<?xml version="1.0" encoding="UTF-8" standalone="no"?>
<!-- Created with Inkscape (http://www.inkscape.org/) -->

<svg
   xmlns:dc="http://purl.org/dc/elements/1.1/"
   xmlns:cc="http://creativecommons.org/ns#"
   xmlns:rdf="http://www.w3.org/1999/02/22-rdf-syntax-ns#"
   xmlns:svg="http://www.w3.org/2000/svg"
   xmlns="http://www.w3.org/2000/svg"
   xmlns:sodipodi="http://sodipodi.sourceforge.net/DTD/sodipodi-0.dtd"
   xmlns:inkscape="http://www.inkscape.org/namespaces/inkscape"
   width="18"
   height="18"
   id="svg13094"
   version="1.1"
   inkscape:version="0.92.2 5c3e80d, 2017-08-06"
   sodipodi:docname="chm.svg">
  <sodipodi:namedview
     id="base"
     pagecolor="#ffffff"
     bordercolor="#666666"
     borderopacity="1.0"
     inkscape:pageopacity="0.0"
     inkscape:pageshadow="2"
     inkscape:zoom="45.254834"
     inkscape:cx="6.3727589"
     inkscape:cy="7.7472934"
     inkscape:document-units="px"
     inkscape:current-layer="layer1"
     showgrid="true"
     inkscape:snap-bbox="true"
     inkscape:bbox-paths="true"
     inkscape:bbox-nodes="true"
     inkscape:snap-bbox-edge-midpoints="true"
     inkscape:snap-bbox-midpoints="true"
     inkscape:object-paths="true"
     inkscape:snap-intersection-paths="true"
     inkscape:object-nodes="true"
     inkscape:snap-smooth-nodes="true"
     inkscape:snap-midpoints="true"
     inkscape:snap-object-midpoints="true"
     inkscape:snap-center="true"
     showguides="false"
     inkscape:guide-bbox="true"
     inkscape:window-width="1920"
     inkscape:window-height="1027"
     inkscape:window-x="-10"
     inkscape:window-y="31"
     inkscape:window-maximized="1"
     inkscape:snap-global="true"
     fit-margin-top="0"
     fit-margin-left="0"
     fit-margin-right="0"
     fit-margin-bottom="0"
     showborder="true"
     inkscape:showpageshadow="false">
    <sodipodi:guide
       orientation="0,1"
       position="-20.000165,933.61275"
       id="guide4700"
       inkscape:locked="false" />
    <sodipodi:guide
       orientation="0,1"
       position="581.7187,331.89377"
       id="guide4702"
       inkscape:locked="false" />
    <sodipodi:guide
       orientation="1,0"
       position="581.71882,492.70384"
       id="guide4706"
       inkscape:locked="false" />
    <sodipodi:guide
       orientation="1,0"
       position="59.999836,933.61275"
       id="guide4708"
       inkscape:locked="false" />
    <sodipodi:guide
       orientation="0,1"
       position="-20.000165,853.61285"
       id="guide4710"
       inkscape:locked="false" />
    <sodipodi:guide
       orientation="0,1"
       position="541.7187,411.89369"
       id="guide4712"
       inkscape:locked="false" />
    <sodipodi:guide
       orientation="1,0"
       position="501.7187,411.89369"
       id="guide4714"
       inkscape:locked="false" />
    <inkscape:grid
       type="xygrid"
       id="grid3216"
       empspacing="5"
       visible="true"
       enabled="true"
       snapvisiblegridlinesonly="true"
       originx="-20.000111"
       originy="-216.00016"
       spacingx="1"
       spacingy="1" />
    <sodipodi:guide
       orientation="-0.70710664,0.70710692"
       position="8.9998902,-243.00016"
       id="guide3847"
       inkscape:locked="false" />
    <sodipodi:guide
       orientation="0.70710594,0.70710762"
       position="9.9998902,-242.00016"
       id="guide3849"
       inkscape:locked="false" />
    <sodipodi:guide
       orientation="-0.70710681,0.70710676"
       position="11.99989,-209.00016"
       id="guide3851"
       inkscape:locked="false" />
  </sodipodi:namedview>
  <defs
     id="defs13096" />
  <metadata
     id="metadata13099">
    <rdf:RDF>
      <cc:Work
         rdf:about="">
        <dc:format>image/svg+xml</dc:format>
        <dc:type
           rdf:resource="http://purl.org/dc/dcmitype/StillImage" />
        <dc:title />
      </cc:Work>
    </rdf:RDF>
  </metadata>
  <g
     transform="translate(9384.3076,-4846.1987)"
     id="layer1"
     inkscape:groupmode="layer"
     inkscape:label="Camada 1">
    <path
       style="fill:#27303a;fill-opacity:0.753280819999999968;fill-rule:nonzero"
       d="M 2 2 L 2 16 L 11 16 L 16 11 L 16 2 L 2 2 z M 6 4 C 6.5523 4 7 4.4477 7 5 C 7 5.5523 6.5523 6 6 6 C 5.4478 6 5 5.5523 5 5 C 5 4.4477 5.4478 4 6 4 z M 4 7 L 7 7 L 7 12 L 5 12 L 5 8 L 4 8 L 4 7 z M 10 10 L 15 10 L 10 15 L 10 10 z "
       transform="translate(-9384.3076,4846.1987)"
       id="path3789-4" />
    <path
       style="fill:#8a929e;stroke:none;stroke-width:1;stroke-linecap:butt;stroke-linejoin:miter;stroke-opacity:1;color:#000000;fill-opacity:0.60931899000000000;fill-rule:nonzero;marker:none;visibility:visible;display:inline;overflow:visible;enable-background:accumulate"
       d="m 9.999889,15.00016 5,0 0,-5 z"
       id="path3005"
       inkscape:connector-curvature="0"
       transform="translate(-9383.3076,4847.1987)" />
    <path
       style="font-size:medium;font-style:normal;font-variant:normal;font-weight:normal;font-stretch:normal;text-indent:0;text-align:start;text-decoration:none;line-height:normal;letter-spacing:normal;word-spacing:normal;text-transform:none;direction:ltr;block-progression:tb;writing-mode:lr-tb;text-anchor:start;baseline-shift:baseline;color:#000000;fill:#f1f3f5;fill-opacity:0.90288714000000003;fill-rule:nonzero;stroke:none;stroke-width:2;marker:none;visibility:visible;display:inline;overflow:visible;enable-background:accumulate;font-family:Sans;-inkscape-font-specification:Sans"
       d="M 1 1 L 1 2 L 1 16 L 1 17 L 2 17 L 9 17 L 9.40625 17 L 11.40625 17 L 11.96875 16.96875 L 16.96875 11.96875 L 17 11.40625 L 17 11 L 17 10 L 17 9.40625 L 17 9 L 17 8 L 17 2 L 17 1 L 16 1 L 2 1 L 1 1 z M 2 2 L 16 2 L 16 11 L 13 14 L 11 16 L 2 16 L 2 2 z M 6 4 C 5.4478 4 5 4.4477 5 5 C 5 5.5523 5.4478 6 6 6 C 6.5523 6 7 5.5523 7 5 C 7 4.4477 6.5523 4 6 4 z M 4 7 L 4 8 L 5 8 L 5 12 L 7 12 L 7 7 L 4 7 z M 10 10 L 10 15 L 11 14 L 11 12 L 11 11 L 14 11 L 15 10 L 10 10 z "
       transform="translate(-9384.3076,4846.1987)"
       id="path3789-4-3" />
  </g>
</svg>
