<?xml version="1.0" encoding="UTF-8"?>
<!-- Created with Inkscape (http://www.inkscape.org/) -->
<svg width="18" height="18" version="1.1" xmlns="http://www.w3.org/2000/svg" xmlns:cc="http://creativecommons.org/ns#" xmlns:dc="http://purl.org/dc/elements/1.1/" xmlns:rdf="http://www.w3.org/1999/02/22-rdf-syntax-ns#">
	<metadata>
		<rdf:RDF>
			<cc:Work rdf:about="">
				<dc:format>image/svg+xml</dc:format>
				<dc:type rdf:resource="http://purl.org/dc/dcmitype/StillImage"/>
			</cc:Work>
		</rdf:RDF>
	</metadata>
	<defs>
		<style id="current-color-scheme" type="text/css">.ColorScheme-Text {
			color:#090d11;
			}
			.ColorScheme-Background{
			color:#ffffff;
			}</style>
	</defs>
	<path class="ColorScheme-Text" d="m8.998 2c-0.11238 0-0.20597 0.00297-0.29492 0.00586-0.25639 0.010134-0.39317 0.031842-0.43164 0.046875-0.051288 0.020044-0.043165 0.00583-0.1582 0.20508-0.31827 0.55119-0.70744 1.2019-1.2305 1.6914-0.010321 0.01058-0.018806 0.02278-0.029297 0.033203-0.11277 0.11204-0.23637 0.21613-0.37305 0.30859-0.04556 0.03082-0.091822 0.059517-0.14062 0.087891h-0.00195v0.00195c-0.00256 0.00148-0.00526 0.00244-0.00781 0.00391-0.096381 0.055375-0.19275 0.10213-0.29102 0.14258-0.00189 7.788e-4 -0.00397 0.00118-0.00586 0.00195-0.04843 0.019769-0.097554 0.038108-0.14648 0.054688-0.00192 6.526e-4 -0.00394 0.00131-0.00586 0.00195-0.048913 0.016444-0.097034 0.031381-0.14648 0.044922-0.00198 5.446e-4 -0.00387 0.00141-0.00586 0.00195-0.015407 0.00418-0.031253 0.00647-0.046875 0.00977-0.68477 0.20786-1.4403 0.21871-2.0762 0.21875-0.23007 1.9e-6 -0.21481-0.00119-0.25781 0.033203-0.021501 0.017197-0.067785 0.069798-0.13672 0.16797-0.034043 0.048482-0.074157 0.11042-0.11914 0.18164-0.00582 0.00921-0.013537 0.021643-0.019531 0.03125-0.042576 0.068627-0.085378 0.13711-0.13477 0.22266v0.00195c-0.056465 0.097801-0.10475 0.18416-0.14453 0.25977-0.11936 0.22682-0.16761 0.35566-0.17383 0.39648-0.00829 0.054439-0.015425 0.042937 0.099609 0.24219 0.30699 0.5318 0.65837 1.1657 0.82812 1.8359 0.00696 0.027494 0.015156 0.054419 0.021484 0.082031 0.060693 0.21675 0.099398 0.44127 0.099609 0.68164-2.136e-4 0.24262-0.03797 0.4688-0.099609 0.6875-0.0056 0.024367-0.013438 0.047991-0.019531 0.072266-0.16898 0.67315-0.52189 1.3099-0.83008 1.8437-0.11503 0.19925-0.1079 0.18775-0.099609 0.24219 0.00573 0.03766 0.050231 0.15635 0.15039 0.35156 0.00328 0.0062 0.00834 0.01514 0.011719 0.02149 0.00457 0.0088 0.00693 0.01433 0.011719 0.02344 0.041956 0.07832 0.088315 0.16044 0.14453 0.25781v2e-3c0.065175 0.11281 0.12703 0.20929 0.17969 0.29297v2e-3c0.047 0.07465 0.07669 0.1167 0.11328 0.16992 0.056009 0.07739 0.098226 0.12546 0.11719 0.14062 0.043003 0.0344 0.027739 0.0332 0.25781 0.0332 0.30537 1.8e-5 0.63723 0.0031 0.97656 0.0293 0.16967 0.01309 0.34141 0.03143 0.51172 0.05859s0.34015 0.06313 0.50586 0.10938c0.044819 0.01021 0.09041 0.01715 0.13477 0.0293h0.00195c0.050832 0.01396 0.10013 0.02985 0.15039 0.04687h0.00195c0.050281 0.01708 0.10064 0.03619 0.15039 0.05664h0.00195c0.049768 0.0205 0.099158 0.04223 0.14844 0.06641h0.00195c0.049309 0.02423 0.097625 0.05187 0.14648 0.08008v2e-3c0.24617 0.14289 0.45014 0.31723 0.62891 0.51562 0.4808 0.47876 0.84555 1.0882 1.1465 1.6094 0.11504 0.19924 0.10692 0.18503 0.1582 0.20508 0.020014 0.0078 0.076176 0.01641 0.15234 0.02539 0.068693 6e-3 0.12881 0.01378 0.22656 0.01758h0.00195c0.099019 0.0038 0.21319 0.0058 0.34375 0.0059h0.00195c0.1313-3.1e-5 0.24628-2e-3 0.3457-0.0059 0.067033-0.0026 0.11667-6e-3 0.16992-0.0098 0.00655-5.86e-4 0.00938-0.0014 0.015625-2e-3 0.10754-0.01034 0.17498-0.02178 0.19922-0.03125 0.051288-0.02004 0.043165-0.0058 0.1582-0.20508 0.072383-0.12535 0.14788-0.25631 0.22852-0.38867 0.24191-0.39709 0.52468-0.81164 0.86523-1.1641 0.0048-0.0056 0.0108-0.01006 0.01563-0.01563 0.04746-0.05457 0.09518-0.10918 0.14648-0.16016 0.15048-0.14935 0.31828-0.28306 0.51367-0.39648h2e-3v-2e-3c0.0018-0.0011 4e-3 -0.0032 0.0059-0.0039h2e-3c0.04912-0.02822 0.09854-0.05417 0.14844-0.07813 0.04991-0.02396 0.10029-0.04593 0.15039-0.06641 0.04818-0.01969 0.09585-0.03816 0.14453-0.05469 2e-3 -6.67e-4 0.0039-0.0013 0.0059-2e-3 0.07001-0.02358 0.14158-0.0396 0.21289-0.05664 0.0158-0.0038 0.03106-0.01001 0.04687-0.01367 0.01685-0.0039 0.03385-0.0079 0.05078-0.01172 0.65581-0.17818 1.3659-0.18942 1.9688-0.18945 0.23007 0 0.21481 0.0012 0.25781-0.0332 0.01813-0.0145 0.05731-0.06163 0.10938-0.13281 0.07756-0.11285 0.17545-0.26427 0.29688-0.47461 0.10967-0.18997 0.18595-0.33426 0.24414-0.45312 2e-3 -0.0042 0.0039-0.0096 0.0059-0.01367 0.04503-0.09855 0.06834-0.1617 0.07226-0.1875 0.0083-0.05444 0.01543-0.04294-0.09961-0.24219-0.30186-0.52291-0.64546-1.1449-0.81836-1.8027-0.01005-0.030927-0.01829-0.062507-0.02734-0.09375-0.06527-0.22455-0.1072-0.45725-0.10742-0.70703 6.5e-5 -0.07356 0.0032-0.14596 0.0098-0.2168 0.01969-0.2125 0.06739-0.41343 0.13281-0.60938 0.17539-0.64695 0.51318-1.2583 0.81055-1.7734 0.11504-0.19925 0.10791-0.18775 0.09961-0.24219-0.0041-0.027219-0.02779-0.092811-0.07813-0.20117-0.01263-0.027197-0.03264-0.065108-0.04883-0.097656-0.01044-0.020292-0.01581-0.034791-0.02734-0.056641-0.04646-0.088005-0.10212-0.18867-0.16797-0.30273-0.06451-0.11174-0.12154-0.20781-0.17383-0.29102-0.0014-0.00215-0.0025-0.00373-0.0039-0.00586-0.03688-0.058578-0.06708-0.10123-0.09766-0.14648-0.06505-0.091852-0.1101-0.14355-0.13086-0.16016-0.043-0.034393-0.02774-0.033201-0.25781-0.033203-0.61845-3.74e-5 -1.3498-0.01132-2.0195-0.20312-0.01564-0.00367-0.0313-0.00779-0.04687-0.011719-0.07358-0.018559-0.14609-0.037934-0.21875-0.0625h-2e-3c-0.05029-0.017041-0.10063-0.036226-0.15039-0.056641h-2e-3c-0.04977-0.020463-0.09915-0.042271-0.14844-0.066406h-2e-3c-0.04931-0.024194-0.09762-0.051909-0.14648-0.080078v-0.00195c-0.04896-0.028417-0.09686-0.05704-0.14258-0.087891-0.18438-0.12457-0.34315-0.27021-0.48633-0.42969-0.47837-0.47802-0.84266-1.0841-1.1426-1.6035-0.11504-0.19925-0.10692-0.18503-0.1582-0.20508-0.038471-0.015033-0.17526-0.036741-0.43164-0.046875-0.082092-0.00324-0.17776-0.00571-0.28516-0.00586-0.00516-7.2e-6 -0.00846 0-0.013672 0zm0 1c0.00613 0 0.0081-5.1e-6 0.011719 0 0.071004 1.017e-4 0.13088 0.00206 0.18945 0.00391 0.28489 0.48531 0.60384 1.0352 1.1113 1.5469 0.18184 0.19956 0.3925 0.39689 0.64648 0.56836 0.07646 0.051593 0.14303 0.092386 0.19922 0.125a1.0001 1.0001 0 0 0 2e-3 0.00391c0.05005 0.028851 0.11651 0.067874 0.20508 0.11133a1.0001 1.0001 0 0 0 0.0078 0.00195c0.07103 0.034652 0.13866 0.065293 0.20312 0.091797a1.0001 1.0001 0 0 0 0.0039 0 1.0001 1.0001 0 0 0 0.0039 0.00195c0.06423 0.026278 0.13229 0.051506 0.20508 0.076172a1.0001 1.0001 0 0 0 0.0039 0c0.11188 0.037733 0.21092 0.06329 0.29297 0.083984 0.0022 5.66e-4 0.01188 0.00294 0.01563 0.00391 0.73354 0.21009 1.404 0.20731 1.9922 0.21094 0.03153 0.052185 0.06206 0.099539 0.10156 0.16797 0.03984 0.069006 0.06699 0.12161 0.09766 0.17773-0.27433 0.4838-0.58617 1.0275-0.77539 1.7109-0.10804 0.33133-0.18714 0.70429-0.1875 1.1113 3.19e-4 0.36166 0.06212 0.6952 0.14648 0.98633 0.0023 0.00786 0.01431 0.043449 0.02149 0.068359 0.18659 0.70989 0.51041 1.2693 0.79297 1.7676-0.03249 0.06009-0.05021 0.09893-0.0957 0.17774-0.04585 0.07942-0.07039 0.1123-0.10742 0.17188-0.55956 0.0038-1.1904 0.0019-1.8828 0.18359-0.01965 0.0045-0.03838 0.0079-0.05469 0.01172-0.12085 0.028-0.13723 0.03581-0.05274 0.01563-0.06203 0.01482-0.16334 0.03641-0.29883 0.08203a1.0001 1.0001 0 0 0-0.0039 0 1.0001 1.0001 0 0 0-0.0059 2e-3 1.0001 1.0001 0 0 0-2e-3 2e-3c-0.07413 0.02525-0.14061 0.05027-0.19922 0.07422-0.13238 0.05411-0.2731 0.11989-0.41797 0.20312l0.01563-0.0039c-0.0084 0.0042-0.0123 6e-3 -0.01953 0.0098a1.0001 1.0001 0 0 0-0.0098 2e-3c-3e-3 0.0017-0.0048 0.0041-0.0078 0.0059-0.0028 0.0015-0.0075 0.0026-0.0098 0.0039a1.0001 1.0001 0 0 0 0 2e-3 1.0001 1.0001 0 0 0-0.0039 0.0039c-0.26531 0.15698-0.49877 0.34205-0.69531 0.53711-0.07906 0.07855-0.13456 0.14503-0.18164 0.19922-0.47697 0.4959-0.78154 1.0206-1.0566 1.4883-0.063286 0.0015-0.12151 0.0039-0.20117 0.0039h-0.00195c-0.078337-6e-5 -0.1348-0.0025-0.19727-0.0039-0.28411-0.4849-0.60312-1.035-1.1113-1.5469-0.2336-0.25574-0.51198-0.49852-0.84766-0.69336a1.0001 1.0001 0 0 0-0.00195-2e-3c-0.051147-0.02953-0.11769-0.07034-0.20508-0.11328a1.0001 1.0001 0 0 0-0.00391 0c-0.07319-0.03585-0.14314-0.06548-0.20703-0.0918a1.0001 1.0001 0 0 0-0.30664-0.06055l0.30469 0.05859c-0.066574-0.02736-0.13613-0.05338-0.20898-0.07813a1.0001 1.0001 0 0 0-0.00391 0c-0.00119-4.04e-4 -0.00271-0.0015-0.00391-2e-3 -0.058624-0.01983-0.12431-0.04139-0.20117-0.0625a1.0001 1.0001 0 0 0-0.00391 0c-0.00407-0.0011-0.00193-8.5e-4 -0.00586-2e-3 -0.11122-0.02991-0.17252-0.0377-0.16992-0.03711-0.70275-0.18823-1.3464-0.18753-1.9141-0.19141-0.033317-0.05314-0.067656-0.10524-0.099609-0.16016-2.939e-4 -8.03e-4 -0.0039-0.01172-0.00391-0.01172a1.0001 1.0001 0 0 0-0.00195 0c-0.039865-0.06905-0.067209-0.12008-0.095703-0.17188 0.29021-0.51056 0.62764-1.0878 0.8125-1.8242-0.0029 0.01154 0.00759-0.03054 0.011719-0.044922v-0.00195c0.081293-0.28875 0.13642-0.6119 0.13672-0.95703-3.045e-4 -0.34577-0.05794-0.66499-0.13672-0.94727-0.00648-0.024534-0.016048-0.064171-0.015625-0.0625-0.1854-0.73201-0.51971-1.3062-0.80859-1.8145 0.027764-0.051205 0.055233-0.10373 0.095703-0.17383v-0.00195c7.578e-4 -0.00131 0.0012-0.0026 0.00195-0.00391 0.033736-0.058287 0.066114-0.10887 0.10156-0.16602 0.58462-0.00313 1.2545-0.00123 1.9824-0.20703-0.026792 0.00566 0.00769 0.00205 0.10156-0.023438 0.00604-0.00164 0.00285-6.082e-4 0.00781-0.00195 0.00306-8.318e-4 0.00297-0.00117 0.00586-0.00195 0.068458-0.01894 0.13385-0.039885 0.19531-0.060547 2.659e-4 -8.11e-5 0.00275-2.461e-4 0.00781-0.00195 0.068524-0.023219 0.13597-0.04876 0.20312-0.076172-0.12224 0.049801-0.1184 0.048921 0.00977-0.00391 0.13549-0.055777 0.27179-0.12016 0.40625-0.19727l0.00195-0.00195a1.0001 1.0001 0 0 0 0.00195 0c0.00493-0.00286 0.00232-0.00269 0.00781-0.00586a1.0001 1.0001 0 0 0 0-0.00195 1.0001 1.0001 0 0 0 0.00391 0c0.27438-0.15952 0.51357-0.35083 0.7168-0.55273 0.096048-0.095423 0.1058-0.11138 0.039062-0.042969 0.56021-0.53482 0.89801-1.1297 1.1992-1.6445 0.065745-0.00198 0.12835-0.00391 0.20117-0.00391zm0.00195 4c-1.0986 0-2 0.90135-2 2s0.90135 2 2 2 2-0.90135 2-2-0.90135-2-2-2zm0 1c0.55821 0 1 0.44179 1 1s-0.44179 1-1 1-1-0.44179-1-1 0.44179-1 1-1z" style="fill-opacity:.75;fill:currentColor;shape-rendering:auto"/>
	<path id="b" class="ColorScheme-Background" d="m9 1c-0.47365 0-0.77873-0.001257-1.0918 0.12109-0.31306 0.12235-0.5187 0.38833-0.66211 0.63672-0.39992 0.69259-0.9533 1.4739-1.418 1.7422l0.5 0.86719c0.81917-0.47295 1.3633-1.3788 1.7852-2.1094 0.11504-0.19925 0.10692-0.18503 0.1582-0.20508s0.27683-0.052734 0.72852-0.052734 0.67723 0.03269 0.72852 0.052734c0.051288 0.020044 0.043165 0.00583 0.1582 0.20508 0.42188 0.73061 0.96598 1.6364 1.7852 2.1094l0.5-0.86719c-0.46466-0.26827-1.018-1.0496-1.418-1.7422-0.14341-0.24839-0.34904-0.51437-0.66211-0.63672-0.31306-0.12235-0.61815-0.12109-1.0918-0.12109zm-3.1758 2.502c-0.46466 0.26828-1.419 0.35933-2.2188 0.35938-0.28682 2.4e-6 -0.62032 0.04396-0.88281 0.25391s-0.41356 0.47457-0.65039 0.88477c-0.23683 0.41019-0.39083 0.67356-0.44141 1.0059-0.050573 0.3323 0.077296 0.64418 0.2207 0.89258 0.39984 0.69263 0.79883 1.5631 0.79883 2.0996h1c3e-6 -0.9459-0.50985-1.8689-0.93164-2.5996-0.11503-0.19925-0.10789-0.18775-0.099609-0.24219s0.092515-0.26508 0.31836-0.65625 0.36715-0.57107 0.41016-0.60547c0.043003-0.034394 0.02774-0.033201 0.25781-0.033203 0.84367-5.12e-5 1.8996-0.019236 2.7188-0.49219l-0.5-0.86719zm6.3516 0-0.5 0.86719c0.81917 0.47295 1.8751 0.49214 2.7188 0.49219 0.23007 1.9e-6 0.21481-0.00119 0.25781 0.033203 0.043 0.034394 0.18431 0.2143 0.41016 0.60547 0.22584 0.39117 0.31007 0.60181 0.31836 0.65625 0.0083 0.054439 0.01543 0.042937-0.09961 0.24219-0.42179 0.73066-0.93164 1.6537-0.93164 2.5996h1c0-0.53655 0.39899-1.407 0.79883-2.0996 0.1434-0.24839 0.27128-0.56028 0.2207-0.89258-0.05057-0.3323-0.20458-0.59567-0.44141-1.0059-0.23682-0.41019-0.3879-0.67482-0.65039-0.88477s-0.59599-0.2539-0.88281-0.25391c-0.79976-4.84e-5 -1.7541-0.0911-2.2188-0.35938zm-3.1758 2.498c-1.6509 0-3 1.3491-3 3s1.3491 3 3 3 3-1.3491 3-3-1.3491-3-3-3zm0 1c1.1105 0 2 0.88951 2 2s-0.88951 2-2 2-2-0.88951-2-2 0.88951-2 2-2zm-6.3496 2.002c1.7e-6 0.53655-0.39899 1.407-0.79883 2.0996-0.14341 0.2484-0.27128 0.56028-0.2207 0.89258 0.050573 0.3323 0.20458 0.59566 0.44141 1.0059 0.23683 0.41019 0.3879 0.67482 0.65039 0.88477s0.59599 0.2539 0.88281 0.25391c0.79976 4.9e-5 1.7541 0.0911 2.2188 0.35938l0.5-0.86719c-0.81917-0.47295-1.8751-0.49214-2.7188-0.49219-0.23007-2e-6 -0.21481 0.0012-0.25781-0.0332-0.043002-0.0344-0.18431-0.2143-0.41016-0.60547s-0.31007-0.60181-0.31836-0.65625-0.015425-0.04294 0.099609-0.24219c0.42179-0.73066 0.93164-1.6537 0.93164-2.5996h-1zm11.699 0c-2e-6 0.9459 0.50985 1.8689 0.93164 2.5996 0.11504 0.19925 0.10789 0.18775 0.09961 0.24219-0.0083 0.05444-0.09251 0.26508-0.31836 0.65625-0.22584 0.39117-0.36715 0.57107-0.41016 0.60547-0.043 0.03439-0.02774 0.0332-0.25781 0.0332-0.84367 5.1e-5 -1.8996 0.01924-2.7188 0.49219l0.5 0.86719c0.46466-0.26828 1.419-0.35933 2.2188-0.35938 0.28682-2e-6 0.62032-0.04396 0.88281-0.25391 0.26249-0.20994 0.41356-0.47457 0.65039-0.88477 0.23683-0.41019 0.39083-0.67356 0.44141-1.0059 0.05057-0.3323-0.0773-0.64418-0.2207-0.89258-0.39984-0.69263-0.79883-1.5631-0.79883-2.0996h-1zm-8.0215 4.6309-0.5 0.86719c0.46467 0.26827 1.018 1.0496 1.418 1.7422 0.14341 0.24839 0.34904 0.51437 0.66211 0.63672 0.31306 0.12235 0.61815 0.12109 1.0918 0.12109s0.77873 0.0013 1.0918-0.12109c0.31306-0.12235 0.5187-0.38833 0.66211-0.63672 0.39992-0.69259 0.9533-1.4739 1.418-1.7422l-0.5-0.86719c-0.81917 0.47295-1.3633 1.3788-1.7852 2.1094-0.11504 0.19924-0.10692 0.18503-0.1582 0.20508s-0.27683 0.05273-0.72852 0.05273-0.67723-0.03269-0.72852-0.05273c-0.05129-0.020044-0.043165-0.005831-0.1582-0.20508-0.42188-0.73062-0.96598-1.6364-1.7852-2.1094z" style="-inkscape-stroke:none;fill-opacity:.5;fill:currentColor;stroke-linejoin:round"/>
</svg>
