<?xml version="1.0" encoding="UTF-8"?>
<!-- Created with Inkscape (http://www.inkscape.org/) -->
<svg width="18" height="18" version="1.1" xmlns="http://www.w3.org/2000/svg" xmlns:cc="http://creativecommons.org/ns#" xmlns:dc="http://purl.org/dc/elements/1.1/" xmlns:rdf="http://www.w3.org/1999/02/22-rdf-syntax-ns#">
	<metadata>
		<rdf:RDF>
			<cc:Work rdf:about="">
				<dc:format>image/svg+xml</dc:format>
				<dc:type rdf:resource="http://purl.org/dc/dcmitype/StillImage"/>
			</cc:Work>
		</rdf:RDF>
	</metadata>
	<defs>
		<style id="current-color-scheme" type="text/css">.ColorScheme-Text {color:#090d11;}.ColorScheme-Background{color:#ffffff;}</style>
	</defs>
	<path class="ColorScheme-Background" d="m1.5 1c-0.27613 2.76e-5 -0.49997 0.22387-0.5 0.5v14c2.76e-5 0.27613 0.22387 0.49997 0.5 0.5h9c0.27613-2.8e-5 0.49997-0.22387 0.5-0.5v-2.5h5.5c0.27613-2.8e-5 0.49997-0.22387 0.5-0.5v-9c-2.8e-5 -0.27613-0.22387-0.49997-0.5-0.5h-2.5v-1.5c-2.8e-5 -0.27613-0.22387-0.49997-0.5-0.5zm0.5 1h11v1h-8.5c-0.27613 2.76e-5 -0.49997 0.22387-0.5 0.5v5.5h1v-5h11v8h-5v-1h2.5c0.27613-2.8e-5 0.49997-0.22387 0.5-0.5v-5.5h-1v5h-11zm0 9h2v1.5c2.76e-5 0.27613 0.22387 0.49997 0.5 0.5h4.5v-1h-4v-1h5v4h-8z" style="fill-opacity:.5;fill:currentColor"/>
	<path class="ColorScheme-Text" d="m2.5 2c-0.27613 2.76e-5 -0.49997 0.22387-0.5 0.5v7.5h10.5c0.27613-2.76e-5 0.49997-0.22387 0.5-0.5v-4.5h2v6h-4v1h4.5c0.27613-2.8e-5 0.49997-0.22387 0.5-0.5v-7c-2.8e-5 -0.27613-0.22387-0.49997-0.5-0.5h-10c-0.27613 2.76e-5 -0.49997 0.22387-0.5 0.5v4.5h-2v-6h10v-0.5c-2.8e-5 -0.27613-0.22387-0.49997-0.5-0.5zm3.5 3h6v4h-6zm-4 6v3.5c2.76e-5 0.27613 0.22387 0.49997 0.5 0.5h7c0.27613-2.8e-5 0.49997-0.22387 0.5-0.5v-3.5h-5v0.5c2.76e-5 0.27613 0.22387 0.49997 0.5 0.5h3.5v2h-6v-3z" style="fill-opacity:.75;fill:currentColor"/>
</svg>
