<?xml version="1.0" encoding="UTF-8"?>
<svg id="g" width="18" height="18" version="1.1" xmlns="http://www.w3.org/2000/svg" xmlns:cc="http://creativecommons.org/ns#" xmlns:dc="http://purl.org/dc/elements/1.1/" xmlns:rdf="http://www.w3.org/1999/02/22-rdf-syntax-ns#">
	<metadata id="a">
		<rdf:RDF>
			<cc:Work rdf:about="">
				<dc:format>image/svg+xml</dc:format>
				<dc:type rdf:resource="http://purl.org/dc/dcmitype/StillImage"/>
			</cc:Work>
		</rdf:RDF>
	</metadata>
	<defs>
		<style id="current-color-scheme" type="text/css">.ColorScheme-Text {color:#090d11;}.ColorScheme-Background{color:#ffffff;}</style>
	</defs>
	<path id="f" class="ColorScheme-Text" d="m14 2.75c-0.3317-4.682e-4 -0.64998 0.13092-0.88477 0.36523l-2.1504 2.1504-1.1152-1.1133c-0.11308-0.11326-0.27355-0.16553-0.43164-0.14062-0.10435 0.016599-0.20076 0.065829-0.27539 0.14062-0.19521 0.19525-0.19521 0.51178 0 0.70703l4 4c0.19525 0.19521 0.51178 0.19521 0.70703 0 0.19521-0.19525 0.19521-0.51178 0-0.70703l-1.1152-1.1172 2.1504-2.1504c0.48933-0.48836 0.48933-1.2812 0-1.7695-0.23478-0.23431-0.55307-0.3657-0.88477-0.36523zm-5.0039 3.7559c-0.1326 2e-5 -0.25976 0.052712-0.35352 0.14648l-5.4961 5.4941c-0.093768 0.093756-0.14646 0.22092-0.14648 0.35352v2c2.76e-5 0.27613 0.22387 0.49997 0.5 0.5h2c0.1326-2.5e-5 0.25976-0.05272 0.35352-0.14648l5.4961-5.4941c0.19521-0.19525 0.19521-0.51178 0-0.70703-0.19525-0.19521-0.51178-0.19521-0.70703 0l-2.3477 2.3477h-2.5879l3.6426-3.6406c0.19521-0.19525 0.19521-0.51178 0-0.70703-0.093753-0.093773-0.22092-0.14646-0.35352-0.14648zm-4.4961 6.4941c0.27614 0 0.5 0.22386 0.5 0.5s-0.22386 0.5-0.5 0.5-0.5-0.22386-0.5-0.5 0.22386-0.5 0.5-0.5zm-1 3c-0.27614 0-0.5 0.22386-0.5 0.5s0.22386 0.5 0.5 0.5 0.5-0.22386 0.5-0.5-0.22386-0.5-0.5-0.5z" style="fill-opacity:.75;fill:currentColor"/>
</svg>
