<?xml version="1.0" encoding="UTF-8"?>
<svg id="b" width="18" height="18" version="1.1" xmlns="http://www.w3.org/2000/svg" xmlns:cc="http://creativecommons.org/ns#" xmlns:dc="http://purl.org/dc/elements/1.1/" xmlns:rdf="http://www.w3.org/1999/02/22-rdf-syntax-ns#">
	<metadata id="f">
		<rdf:RDF>
			<cc:Work rdf:about="">
				<dc:format>image/svg+xml</dc:format>
				<dc:type rdf:resource="http://purl.org/dc/dcmitype/StillImage"/>
				<dc:title/>
			</cc:Work>
		</rdf:RDF>
	</metadata>
	<defs id="g">
		<style id="current-color-scheme" type="text/css">.ColorScheme-Text {color:#090d11;}.ColorScheme-Background{color:#ffffff;}</style>
	</defs>
	<path id="c" class="ColorScheme-Text" d="m9 2c-0.064279-0.001183-0.12764 0.015367-0.18313 0.047832l-5.7085 3.2922c-9.153e-4 4.493e-4 -0.00183 9.027e-4 -0.00274 0.00136-0.15524 0.058871-0.24774 0.21874-0.2214 0.38266v6.59c-1.374e-4 0.12514 0.066563 0.24082 0.17493 0.30339l5.7112 3.2936c0.00137 9.43e-4 0.00275 0.0019 0.00413 0.0028 0.1273 0.10087 0.30728 0.10087 0.43459 0l5.7153-3.2964c0.10837-0.06257 0.17507-0.17826 0.17493-0.30339v-6.5886c0.02652-0.16356-0.06533-0.3233-0.22003-0.38266l-5.7126-3.295c-0.050681-0.029685-0.10802-0.046135-0.16673-0.047832zm0.011924 1.3179 4.2932 2.4737-4.3938 2.5167-4.2932-2.4764zm5.0053 3.7043v4.9688l-4.4743 2.5555v-4.9688z" style="fill-opacity:.75;fill:currentColor"/>
	<path id="a" class="ColorScheme-Text" d="m14.017 7.0221-4.4743 2.5555v4.9688l4.4743-2.5555z" style="fill-opacity:.75;fill:currentColor;opacity:.35"/>
	<path id="d" class="ColorScheme-Background" d="m9.0176 1.1348c-0.24371-0.004485-0.48297 0.05855-0.69336 0.18164l0.00391-0.00391-5.5625 3.2109 0.091797-0.041016c-0.58324 0.22118-0.93879 0.83527-0.83984 1.4512l-0.011723-0.1543v6.4766c1.186e-4 0.47232 0.25302 0.91416 0.66211 1.1504h0.00195l5.5625 3.207 0.050781 0.0293-0.066406-0.04102-0.048828-0.03711c0.47862 0.37923 1.1698 0.37923 1.6484 0l-0.11914 0.08008 5.6172-3.2383c0.40909-0.23622 0.66394-0.67807 0.66406-1.1504v-6.4766l-0.01367 0.15625c0.09963-0.61444-0.2508-1.2262-0.83203-1.4492l0.13672 0.0645-5.6094-3.2344c-0.19217-0.11256-0.40824-0.1752-0.63086-0.18164l0.88281 0.61719zm-0.017578 0.86523c0.05871 0.0017 0.11533 0.01719 0.16602 0.046875l5.7129 3.2969c0.1547 0.05936 0.24722 0.2173 0.2207 0.38086v6.5898c1.4e-4 0.12513-0.06741 0.24016-0.17578 0.30274l-5.7148 3.2969c-0.12731 0.10087-0.30629 0.10087-0.43359 0-0.00138-9e-4 -0.00449-3e-3 -0.00586-0.0039l-5.7109-3.293c-0.10837-0.06257-0.17397-0.1776-0.17383-0.30274v-6.5898c-0.02634-0.16392 0.065463-0.32394 0.2207-0.38281l0.00195-0.00195 5.709-3.293c0.05549-0.032465 0.11931-0.048058 0.18359-0.046875z" style="fill-opacity:.75;fill:currentColor;opacity:.35"/>
	<path id="e" class="ColorScheme-Background" d="m14.018 7.0215-4.4746 2.5566v4.9688l4.4746-2.5566v-4.9687z" style="fill:currentColor;opacity:.5"/>
</svg>
