<?xml version="1.0" encoding="UTF-8"?>
<svg id="h" width="18" height="18" version="1.1" xmlns="http://www.w3.org/2000/svg" xmlns:cc="http://creativecommons.org/ns#" xmlns:dc="http://purl.org/dc/elements/1.1/" xmlns:rdf="http://www.w3.org/1999/02/22-rdf-syntax-ns#">
	<metadata id="a">
		<rdf:RDF>
			<cc:Work rdf:about="">
				<dc:format>image/svg+xml</dc:format>
				<dc:type rdf:resource="http://purl.org/dc/dcmitype/StillImage"/>
			</cc:Work>
		</rdf:RDF>
	</metadata>
	<defs>
		<style id="current-color-scheme" type="text/css">.ColorScheme-Text {color:#090d11;}.ColorScheme-Background{color:#ffffff;}</style>
	</defs>
	<path id="f" class="ColorScheme-Text" d="m13 2v8l1 2h1l1-2v-8zm-9 1.5c0 5.359 3.8162 9.761 8.9687 10.5h-0.9687v1h1v-1c0.3272 0.046 0.6639 0.078 1 0.094v0.9063h1v-1h-0.5v-1.125c-5.175 0-9.5-4.2313-9.5-9.4063v-2.4687h-0.4843zm-2 9.5v3h3v-3h-2.5zm1 1h1v1h-1zm3 0v1h1v-1zm2 0v1h1v-1zm2 0v1h1v-1z" style="fill-opacity:.75;fill:currentColor"/>
</svg>
