<?xml version="1.0" encoding="UTF-8"?>
<!-- Created with Inkscape (http://www.inkscape.org/) -->
<svg width="18" height="18" version="1.0" xmlns="http://www.w3.org/2000/svg" xmlns:cc="http://creativecommons.org/ns#" xmlns:dc="http://purl.org/dc/elements/1.1/" xmlns:rdf="http://www.w3.org/1999/02/22-rdf-syntax-ns#">
	<metadata>
		<rdf:RDF>
			<cc:Work rdf:about="">
				<dc:format>image/svg+xml</dc:format>
				<dc:type rdf:resource="http://purl.org/dc/dcmitype/StillImage"/>
				<dc:title/>
			</cc:Work>
		</rdf:RDF>
	</metadata>
	<defs>
		<style id="current-color-scheme" type="text/css">.ColorScheme-Text {
			color:#090d11;
			}
			.ColorScheme-Background{
			color:#ffffff;
			}</style>
	</defs>
	<path class="ColorScheme-Text" d="m7 2c-2.77 0-5 2.23-5 5v4c0 2.77 2.23 5 5 5h4c2.77 0 5-2.23 5-5v-4c0-2.77-2.23-5-5-5zm-0.29297 4 2.293 2.293 2.293-2.293 0.70703 0.70703-2.293 2.293 2.293 2.293-0.70703 0.70703-2.293-2.293-2.293 2.293-0.70703-0.70703 2.293-2.293-2.293-2.293z" style="fill-opacity:.75;fill:currentColor"/>
	<path class="ColorScheme-Background" d="m7 1c-3.3154 0-6 2.6846-6 6v4c0 3.3154 2.6846 6 6 6h4c3.3154 0 6-2.6846 6-6v-4c0-3.3154-2.6846-6-6-6zm0 1h4c2.7786 0 5 2.2214 5 5v4c0 2.7786-2.2214 5-5 5h-4c-2.7786 0-5-2.2214-5-5v-4c0-2.7786 2.2214-5 5-5zm-0.29297 4-0.70703 0.70703 2.293 2.293-2.293 2.293 0.70703 0.70703 2.293-2.293 2.293 2.293 0.70703-0.70703-2.293-2.293 2.293-2.293-0.70703-0.70703-2.293 2.293z" style="fill-opacity:.5;fill:currentColor"/>
</svg>
