<?xml version="1.0" encoding="UTF-8" standalone="no"?>
<!-- Created with Inkscape (http://www.inkscape.org/) -->

<svg
   xmlns:dc="http://purl.org/dc/elements/1.1/"
   xmlns:cc="http://creativecommons.org/ns#"
   xmlns:rdf="http://www.w3.org/1999/02/22-rdf-syntax-ns#"
   xmlns:svg="http://www.w3.org/2000/svg"
   xmlns="http://www.w3.org/2000/svg"
   xmlns:sodipodi="http://sodipodi.sourceforge.net/DTD/sodipodi-0.dtd"
   xmlns:inkscape="http://www.inkscape.org/namespaces/inkscape"
   id="svg13094"
   height="18"
   width="18"
   version="1.1"
   inkscape:version="0.92.2 5c3e80d, 2017-08-06"
   sodipodi:docname="kdenlive-hide-video.svg">
  <defs
     id="defs3016" />
  <sodipodi:namedview
     pagecolor="#ffffff"
     bordercolor="#666666"
     borderopacity="1"
     objecttolerance="10"
     gridtolerance="10"
     guidetolerance="10"
     inkscape:pageopacity="0"
     inkscape:pageshadow="2"
     inkscape:window-width="1920"
     inkscape:window-height="1023"
     id="namedview3014"
     showgrid="true"
     inkscape:zoom="29.5"
     inkscape:cx="-0.25694789"
     inkscape:cy="8.8252744"
     inkscape:window-x="-10"
     inkscape:window-y="35"
     inkscape:window-maximized="1"
     inkscape:current-layer="svg13094"
     inkscape:snap-bbox="true"
     inkscape:bbox-paths="true"
     inkscape:bbox-nodes="true"
     inkscape:snap-bbox-edge-midpoints="true"
     inkscape:snap-bbox-midpoints="true"
     inkscape:object-paths="true"
     inkscape:snap-intersection-paths="true"
     inkscape:object-nodes="true"
     inkscape:snap-smooth-nodes="true"
     inkscape:snap-midpoints="true"
     inkscape:snap-object-midpoints="true"
     inkscape:snap-center="true">
    <inkscape:grid
       type="xygrid"
       id="grid2982" />
  </sodipodi:namedview>
  <metadata
     id="metadata13099">
    <rdf:RDF>
      <cc:Work
         rdf:about="">
        <dc:format>image/svg+xml</dc:format>
        <dc:type
           rdf:resource="http://purl.org/dc/dcmitype/StillImage" />
        <dc:title />
      </cc:Work>
    </rdf:RDF>
  </metadata>
  <path
     inkscape:connector-curvature="0"
     style="color:#000000;font-style:normal;font-variant:normal;font-weight:normal;font-stretch:normal;font-size:medium;line-height:normal;font-family:sans-serif;font-variant-ligatures:normal;font-variant-position:normal;font-variant-caps:normal;font-variant-numeric:normal;font-variant-alternates:normal;font-feature-settings:normal;text-indent:0;text-align:start;text-decoration:none;text-decoration-line:none;text-decoration-style:solid;text-decoration-color:#000000;letter-spacing:normal;word-spacing:normal;text-transform:none;writing-mode:lr-tb;direction:ltr;text-orientation:mixed;dominant-baseline:auto;baseline-shift:baseline;text-anchor:start;white-space:normal;shape-padding:0;clip-rule:nonzero;display:inline;overflow:visible;visibility:visible;opacity:1;isolation:auto;mix-blend-mode:normal;color-interpolation:sRGB;color-interpolation-filters:linearRGB;solid-color:#000000;solid-opacity:1;vector-effect:none;fill:#f1f3f5;fill-opacity:0.90288714;fill-rule:nonzero;stroke:none;stroke-width:2;stroke-linecap:butt;stroke-linejoin:miter;stroke-miterlimit:4;stroke-dasharray:none;stroke-dashoffset:0;stroke-opacity:1;marker:none;paint-order:normal;color-rendering:auto;image-rendering:auto;shape-rendering:auto;text-rendering:auto;enable-background:accumulate"
     d="M 15.363281,1.222656 14.585938,1.9999998 H 3 c -1.0907028,0 -2,0.9092971 -2,2 V 14 c 0,0.441374 0.1547247,0.847915 0.4042969,1.181641 l -0.1816407,0.18164 0.7070313,0.707031 0.2519531,-0.251953 C 2.4326825,15.933649 2.7094536,16 3,16 h 12 c 1.090703,0 2,-0.909297 2,-2 V 3.9999998 C 17,3.1998433 16.509721,2.4991445 15.818359,2.1816404 L 16.070312,1.9296873 Z M 3,2.9999997 h 10.585938 l -1,1.0000001 H 12 V 4.5859373 L 4.5859375,12 H 4 v 0.585938 l -1.875,1.875 C 2.0515051,14.321573 2,14.169101 2,14 V 3.9999998 c 0,-0.554 0.446,-1.0000001 1,-1.0000001 z m 12,0 c 0.554,0 1,0.4460001 1,1.0000001 V 14 c 0,0.554 -0.446,1 -1,1 H 3 l 1,-1 h 2 v -2 l 6,-6.0000003 h 2 V 3.9999998 Z M 4,3.9999998 V 5.9999997 H 6 V 3.9999998 Z m 4,0 v 1.9999999 h 2 V 3.9999998 Z M 8,12 v 2 h 2 v -2 z m 4,0 v 2 h 2 v -2 z"
     id="rect814" />
  <path
     inkscape:connector-curvature="0"
     style="opacity:1;vector-effect:none;fill:#27303a;fill-opacity:0.36204379;fill-rule:nonzero;stroke:none;stroke-width:1;stroke-linecap:butt;stroke-linejoin:miter;stroke-miterlimit:4;stroke-dasharray:none;stroke-dashoffset:0;stroke-opacity:1;marker:none;paint-order:normal"
     d="m 3,2.9999997 c -0.554,0 -1,0.4460001 -1,1.0000001 V 14 c 0,0.169101 0.051505,0.321573 0.125,0.460938 L 4,12.585938 V 12 H 4.5859375 L 12,4.5859373 V 3.9999998 h 0.585938 l 1,-1.0000001 z m 12,0 -1,1.0000001 V 5.9999997 H 12 L 6,12 v 2 H 4 l -1,1 h 12 c 0.554,0 1,-0.446 1,-1 V 3.9999998 c 0,-0.554 -0.446,-1.0000001 -1,-1.0000001 z M 4,3.9999998 H 6 V 5.9999997 H 4 Z m 4,0 h 2 V 5.9999997 H 8 Z M 8,12 h 2 v 2 H 8 Z m 4,0 h 2 v 2 h -2 z"
     id="path854" />
  <rect
     style="opacity:1;vector-effect:none;fill:#27303a;fill-opacity:0.36204379;fill-rule:nonzero;stroke:none;stroke-width:1;stroke-linecap:butt;stroke-linejoin:miter;stroke-miterlimit:4;stroke-dasharray:none;stroke-dashoffset:0;stroke-opacity:1;marker:none;paint-order:normal"
     id="rect822"
     width="1"
     height="20"
     x="-13.727921"
     y="-10.000002"
     transform="matrix(-0.70710678,-0.70710678,-0.70710678,0.70710678,0,0)" />
</svg>
