<?xml version="1.0" encoding="UTF-8"?>
<svg id="d" width="18" height="18" version="1.1" xmlns="http://www.w3.org/2000/svg" xmlns:cc="http://creativecommons.org/ns#" xmlns:dc="http://purl.org/dc/elements/1.1/" xmlns:rdf="http://www.w3.org/1999/02/22-rdf-syntax-ns#">
	<metadata id="a">
		<rdf:RDF>
			<cc:Work rdf:about="">
				<dc:format>image/svg+xml</dc:format>
				<dc:type rdf:resource="http://purl.org/dc/dcmitype/StillImage"/>
				<dc:title/>
			</cc:Work>
		</rdf:RDF>
	</metadata>
	<defs id="b">
		<style id="current-color-scheme" type="text/css">.ColorScheme-Text {color:#090d11;}.ColorScheme-Background{color:#ffffff;}</style>
	</defs>
	<path id="c" class="ColorScheme-Text" d="m6 12 3 4 3-4h-2v-6h-2v6zm2-7h2v-1h-2zm0-2h2v-1h-2z" style="fill-opacity:.75;fill:currentColor"/>
	<path id="e" class="ColorScheme-Background" d="m9 17.7-1.0625-0.8125-3-4-0.6875-0.8439h1.75l3 4 3-4h1.75l-0.6875 0.8439-3 4zm-2-5.6564v-7h4v7h-1v-6h-2v6zm0-8v-1h4v1h-3zm0-2v-1h4v1h-3z" style="fill-opacity:.5;fill:currentColor"/>
</svg>
