<?xml version="1.0" encoding="UTF-8"?>
<svg id="c" width="18" height="18" version="1.1" xmlns="http://www.w3.org/2000/svg" xmlns:cc="http://creativecommons.org/ns#" xmlns:dc="http://purl.org/dc/elements/1.1/" xmlns:rdf="http://www.w3.org/1999/02/22-rdf-syntax-ns#">
	<metadata id="e">
		<rdf:RDF>
			<cc:Work rdf:about="">
				<dc:format>image/svg+xml</dc:format>
				<dc:type rdf:resource="http://purl.org/dc/dcmitype/StillImage"/>
				<dc:title/>
			</cc:Work>
		</rdf:RDF>
	</metadata>
	<defs id="g">
		<style id="current-color-scheme" type="text/css">.ColorScheme-Text {color:#090d11;}.ColorScheme-Background{color:#ffffff;}</style>
	</defs>
	<path id="d" class="ColorScheme-Text" d="m12 4.0011v2l2.75 1.9375 1.25-0.9375zm-9 2v2h1v-2zm2 0v2h1v-2zm2 0v2h4v1h-5v2h5v2l4-3-4-3v-1zm-5 3v2h1v-2zm2 0v2h1v-2z" style="fill-opacity:.75;fill:currentColor"/>
	<path id="b" class="ColorScheme-Background" d="m12 2.2508 0.8437 0.6875 4 3 0.8125 1.0625-0.8125 1.0625-1.0937 0.8125 0.094 0.062 0.8125 1.0625-0.8125 1.0625-4 3-0.8437 0.6875v-1.75l4-3-0.375-0.2812-3.625-2.7188v-1h-4v2h4v1h-5v2h5v1h-6v-3h-1v3h-1v-3h-1v3h-1v-4h1v-3h1v3h1v-3h1v3h1v-3h6v1h-0.062l2.6875 2.0313 0.125-0.094 1.25-0.9375-4-3v-1.75z" style="fill-opacity:.5;fill:currentColor"/>
	<path id="a" class="ColorScheme-Text" d="m8 14c0.554 0 1 0.446 1 1s-0.446 1-1 1-1-0.446-1-1 0.446-1 1-1zm-3 0c0.554 0 1 0.446 1 1s-0.446 1-1 1-1-0.446-1-1 0.446-1 1-1zm-3 0c0.554 0 1 0.446 1 1s-0.446 1-1 1-1-0.446-1-1 0.446-1 1-1z" style="fill-opacity:.75;fill:currentColor"/>
	<path id="f" class="ColorScheme-Background" d="m9 16v1h-2v-1zm-3 0v1h-2v-1zm-3 0v1h-2v-1z" style="fill-opacity:.5;fill:currentColor"/>
</svg>
