<?xml version="1.0" encoding="UTF-8"?>
<svg id="a" width="18" height="18" version="1.1" viewBox="0 0 18 18" xmlns="http://www.w3.org/2000/svg" xmlns:cc="http://creativecommons.org/ns#" xmlns:dc="http://purl.org/dc/elements/1.1/" xmlns:rdf="http://www.w3.org/1999/02/22-rdf-syntax-ns#">
	<metadata id="e">
		<rdf:RDF>
			<cc:Work rdf:about="">
				<dc:format>image/svg+xml</dc:format>
				<dc:type rdf:resource="http://purl.org/dc/dcmitype/StillImage"/>
			</cc:Work>
		</rdf:RDF>
	</metadata>
	<defs id="d">
		<style id="current-color-scheme" type="text/css">.ColorScheme-Text{color:#090d11;}.ColorScheme-Background{color:#ffffff;}.ColorScheme-PositiveText {color:#31ad39;}</style>
	</defs>
	<path id="b" class="ColorScheme-Text" d="m2 2v2h2v-2zm9 0v2h2v-2zm-6 1v1h1v-1zm2 0v1h1v-1zm2 0v1h1v-1zm-6 2v1h1v-1zm3 0c-0.554 0-1 0.446-1 1v3c0 0.554 0.446 1 1 1h3c0.554 0 1-0.446 1-1v-3c0-0.554-0.446-1-1-1zm5 0v1h1v-1zm1 1v1h1v-1zm2-1v2h2v-2zm-11 2v1h1v-1zm8 1v1c0 1.0907-0.9093 2-2 2h-1v1c0 0.554 0.446 1 1 1h3c0.554 0 1-0.446 1-1v-3c0-0.554-0.446-1-1-1zm3 0v1h1v-1zm-11 1v1h1v-1zm11 1v1h1v-1zm-12 1v2h2v-2zm3 0v1h1v-1zm1 1v1h1v-1zm8 0v1h1v-1zm-9 2v2h2v-2zm3 0v1h1v-1zm2 0v1h1v-1zm2 0v1h1v-1zm2 0v2h2v-2z" style="fill-opacity:.75;fill:currentColor"/>
	<path id="f" class="ColorScheme-Background" d="m1 1v1l1 2v-2h2l-2-1zm3 1v2h-2l2 0.43945 0.43945-0.43945zm9-1-2 1h2v2l1-2v-1zm0 3h-2v-2l-0.43945 2 0.43945 0.43945zm-8-2v1h1v-1zm2 0v1h1v-1zm2 0v1h1v-1zm-4 2c-0.54535 0-1 0.45465-1 1v5c0 0.54535 0.45465 1 1 1h5c0.54535 0 1-0.45465 1-1v-5c0-0.54535-0.45465-1-1-1zm11 0-2 1h2v2l1-2v-1zm0 3h-2v-2l-0.43945 2 0.43945 0.43945zm-14-2v1h1v-1zm3 0h5v5h-5zm7 0v1h1v-1zm-10 2v1h1v-1zm10 0v1h1v5h-5v-1h-1v1c0 0.54535 0.45465 1 1 1h5c0.54535 0 1-0.45465 1-1v-5c0-0.54535-0.45465-1-1-1zm3 1v1h1v-1zm-13 1v1h1v-1zm13 1v1h1v-1zm-11 0.56055-2 0.43945h2v2l0.43945-2zm0 2.4395h-2v-2l-1 2v1h1zm1-1v1h1v-1zm10 0v1h1v-1zm-8 1.5605-2 0.43945h2v2l0.43945-2zm0 2.4395h-2v-2l-1 2v1h1zm7-2.4395-0.43945 0.43945 0.43945 2v-2h2zm2 0.43945v2h-2l2 1h1v-1zm-8 1v1h1v-1zm2 0v1h1v-1zm2 0v1h1v-1z" style="fill-opacity:.5;fill:currentColor"/>
</svg>
