<?xml version="1.0" encoding="UTF-8"?>
<!-- Created with Inkscape (http://www.inkscape.org/) -->
<svg width="18" height="18" version="1.1" xmlns="http://www.w3.org/2000/svg" xmlns:cc="http://creativecommons.org/ns#" xmlns:dc="http://purl.org/dc/elements/1.1/" xmlns:rdf="http://www.w3.org/1999/02/22-rdf-syntax-ns#">
	<defs>
		<style id="current-color-scheme" type="text/css">.ColorScheme-Text {
			color:#090d11;
			}
			.ColorScheme-Background{
			color:#ffffff;
			}</style>
	</defs>
	<metadata>
		<rdf:RDF>
			<cc:Work rdf:about="">
				<dc:format>image/svg+xml</dc:format>
				<dc:type rdf:resource="http://purl.org/dc/dcmitype/StillImage"/>
			</cc:Work>
		</rdf:RDF>
	</metadata>
	<path class="ColorScheme-Text" d="m9 2c-1.6533 0-3 1.3466-3 3v4.3613a4 4 0 0 0-1 2.6387 4 4 0 0 0 4 4 4 4 0 0 0 4-4 4 4 0 0 0-1-2.6387v-4.3613c0-1.6534-1.3466-3-3-3zm0 1c1.1167 0 2 0.8833 2 2v3.541a4 4 0 0 0-2-0.541 4 4 0 0 0-2 0.541v-3.541c0-1.1167 0.8834-2 2-2zm0 8c0.554 0 1 0.446 1 1 0 0.1864-0.064 0.3509-0.1523 0.5 0.088 0.149 0.1523 0.3136 0.1523 0.5 0 0.554-0.446 1-1 1s-1-0.446-1-1c0-0.1864 0.064-0.351 0.1523-0.5-0.088-0.1491-0.1523-0.3136-0.1523-0.5 0-0.554 0.446-1 1-1z" style="fill-opacity:.75;fill:currentColor"/>
</svg>
