<?xml version="1.0" encoding="UTF-8"?>
<svg id="d" width="18" height="18" version="1.1" xmlns="http://www.w3.org/2000/svg" xmlns:cc="http://creativecommons.org/ns#" xmlns:dc="http://purl.org/dc/elements/1.1/" xmlns:rdf="http://www.w3.org/1999/02/22-rdf-syntax-ns#">
	<metadata id="c">
		<rdf:RDF>
			<cc:Work rdf:about="">
				<dc:format>image/svg+xml</dc:format>
				<dc:type rdf:resource="http://purl.org/dc/dcmitype/StillImage"/>
				<dc:title/>
			</cc:Work>
		</rdf:RDF>
	</metadata>
	<defs id="e">
		<style id="current-color-scheme" type="text/css">.ColorScheme-Text {color:#090d11;}.ColorScheme-Background{color:#ffffff;}</style>
	</defs>
	<path id="b" class="ColorScheme-Text" d="m5.9258 3.2461c-0.23673-0.020587-0.47194-0.0172-0.70312 0.0078124-1.3871 0.15007-2.6236 1.0957-3.0723 2.5-0.59818 1.8724 0.42028 3.8905 2.2832 4.5254a0.50029 0.50029 0 0 0 0.32227-0.94727c-1.3594-0.46328-2.0899-1.91-1.6543-3.2734 0.43559-1.3635 1.8743-2.1252 3.252-1.7188 1.3776 0.40644 2.1673 1.8228 1.7891 3.2031a0.50037 0.50037 0 1 0 0.96484 0.26562c0.51949-1.8956-0.58293-3.8708-2.4707-4.4277-0.23597-0.069617-0.47421-0.11418-0.71094-0.13477zm5.1387 0.49219a0.50005 0.50005 0 0 0-0.40625 0.24805l-0.91016 1.5742a0.50005 0.50005 0 1 0 0.86523 0.5l0.47852-0.82422 2.7773 4.7949h-0.45898a0.50005 0.50005 0 1 0 0 1h1.3242a0.50005 0.50005 0 0 0 0.43359-0.75l-3.6445-6.2949a0.50005 0.50005 0 0 0-0.45898-0.24805zm-4.4961 5.375a0.50005 0.50005 0 0 0-0.5 0.5v4.8867a0.50005 0.50005 0 0 0 0.5 0.5h4.8984a0.50005 0.50005 0 0 0 0.5-0.5v-4.8867a0.50005 0.50005 0 0 0-0.5-0.5zm0.5 1h3.8984v3.8867h-3.8984z" style="fill-opacity:.75;fill:currentColor"/>
	<path id="a" class="ColorScheme-Background" d="m11.078 1.7812a0.50005 0.50005 0 0 0-0.4043 0.24805l-0.73438 1.2637a0.50005 0.50005 0 1 0 0.86328 0.50391l0.30469-0.52148 4.5234 7.7617h-1.2676a0.50005 0.50005 0 1 0 0 1h2.1367a0.50005 0.50005 0 0 0 0.43164-0.75l-5.3926-9.2578a0.50005 0.50005 0 0 0-0.41016-0.24805 0.50005 0.50005 0 0 0-0.05078 0zm-5.7109 0.47266c-1.8615 0.10127-3.5173 1.3305-4.1152 3.1484-0.68332 2.0777 0.20365 4.3564 2.1133 5.4277a0.50064 0.50064 0 1 0 0.49023-0.87305c-1.4992-0.84108-2.1901-2.6131-1.6543-4.2422 0.53578-1.6291 2.1458-2.6496 3.8535-2.4414s3.0238 1.5853 3.1504 3.2949a0.50005 0.50005 0 1 0 0.99609-0.074219c-0.16152-2.1808-1.851-3.9478-4.0254-4.2129-0.2718-0.033138-0.54267-0.041811-0.80859-0.027344zm0.19922 5.8594a0.50005 0.50005 0 0 0-0.5 0.5v6.8867a0.50005 0.50005 0 0 0 0.5 0.5h6.9043a0.50005 0.50005 0 0 0 0.5-0.5v-6.8867a0.50005 0.50005 0 0 0-0.5-0.5zm0.5 1h5.9043v5.8867h-5.9043z" style="fill-opacity:.5;fill:currentColor"/>
</svg>
