<?xml version="1.0" encoding="UTF-8"?>
<!-- Created with Inkscape (http://www.inkscape.org/) -->
<svg width="18" height="18" version="1.1" xmlns="http://www.w3.org/2000/svg" xmlns:cc="http://creativecommons.org/ns#" xmlns:dc="http://purl.org/dc/elements/1.1/" xmlns:rdf="http://www.w3.org/1999/02/22-rdf-syntax-ns#">
	<metadata>
		<rdf:RDF>
			<cc:Work rdf:about="">
				<dc:format>image/svg+xml</dc:format>
				<dc:type rdf:resource="http://purl.org/dc/dcmitype/StillImage"/>
			</cc:Work>
		</rdf:RDF>
	</metadata>
	<defs>
		<style id="current-color-scheme" type="text/css">.ColorScheme-Text {color:#090d11;}.ColorScheme-Background{color:#ffffff;}</style>
	</defs>
	<path class="ColorScheme-Text" d="m5.8398 1c0.57391 1.9796 2.1315 3.5837 4.1953 4.1367 1.7534 0.46982 2.9648 2.048 2.9648 3.8633s-1.2114 3.3935-2.9648 3.8633c-2.0638 0.55299-3.6214 2.1571-4.1953 4.1367h2.1211c0.48394-1.0592 1.4087-1.8881 2.5918-2.2051 2.6184-0.70161 4.4473-3.0841 4.4473-5.7949s-1.8288-5.0933-4.4473-5.7949c-1.1831-0.31702-2.1079-1.1459-2.5918-2.2051zm3.3594 5.1348c-0.55118-0.039524-1.1205 0.078118-1.6328 0.375-1.366 0.79168-1.8348 2.5598-1.0469 3.9297 0.78792 1.3699 2.5461 1.8444 3.9121 1.0527 1.366-0.79168 1.8387-2.5598 1.0508-3.9297-0.49245-0.85619-1.3646-1.3619-2.2832-1.4277zm-0.068359 0.99219c0.59712 0.041452 1.162 0.37355 1.4863 0.9375 0.51898 0.90231 0.21398 2.0404-0.68359 2.5605-0.89757 0.52018-2.0298 0.21481-2.5488-0.6875-0.51898-0.90231-0.21593-2.0404 0.68164-2.5605 0.33659-0.19507 0.70618-0.27487 1.0645-0.25z" style="fill-opacity:.75;fill:currentColor"/>
	<path class="ColorScheme-Background" d="m7.9609 1c0.48394 1.0592 1.4087 1.8881 2.5918 2.2051 2.6184 0.70161 4.4473 3.0841 4.4473 5.7949s-1.8288 5.0933-4.4473 5.7949c-1.1831 0.31702-2.1079 1.1459-2.5918 2.2051h1.1328c0.39267-0.59106 0.98761-1.0424 1.7188-1.2383 3.0527-0.81796 5.1875-3.6012 5.1875-6.7617 0-3.1606-2.1348-5.9438-5.1875-6.7617-0.73114-0.19591-1.3261-0.64722-1.7188-1.2383zm1.3105 4.0977c-0.75007-0.053905-1.5227 0.10729-2.2207 0.51172-1.8614 1.0785-2.5017 3.4809-1.4277 5.3477 1.0739 1.8667 3.4668 2.5121 5.3281 1.4336 1.8614-1.0785 2.5017-3.4809 1.4277-5.3477-0.67121-1.1667-1.8573-1.8555-3.1074-1.9453zm-0.068359 0.99219c0.92857 0.065419 1.8075 0.58062 2.3105 1.4551 0.80492 1.3991 0.33041 3.1715-1.0625 3.9785-1.3929 0.80706-3.158 0.33272-3.9629-1.0664-0.80492-1.3991-0.33236-3.1734 1.0605-3.9805 0.52234-0.30265 1.0972-0.42597 1.6543-0.38672z" style="fill-opacity:.5;fill:currentColor"/>
</svg>
