<?xml version="1.0" encoding="UTF-8"?>
<!-- Created with Inkscape (http://www.inkscape.org/) -->
<svg width="18" height="18" version="1.1" xmlns="http://www.w3.org/2000/svg" xmlns:cc="http://creativecommons.org/ns#" xmlns:dc="http://purl.org/dc/elements/1.1/" xmlns:rdf="http://www.w3.org/1999/02/22-rdf-syntax-ns#">
	<defs>
		<style id="current-color-scheme" type="text/css">.ColorScheme-Text {color:#090d11;}.ColorScheme-Background{color:#ffffff;}</style>
	</defs>
	<metadata>
		<rdf:RDF>
			<cc:Work rdf:about="">
				<dc:format>image/svg+xml</dc:format>
				<dc:type rdf:resource="http://purl.org/dc/dcmitype/StillImage"/>
			</cc:Work>
		</rdf:RDF>
	</metadata>
	<path id="d" class="ColorScheme-Text" d="m9.002 2c-3.8601 0-7 3.1399-7 7h1c0-3.3197 2.6804-6 6-6s6 2.6803 6 6c0 3.3196-2.6804 6-6 6h-0.00195v1h0.00195c3.86 0 7-3.14 7-7 0-3.8601-3.14-7-7-7zm0.45312 2c-0.23172 0.020927-0.42435 0.2031-0.45117 0.44336l-0.4043 3.6406c-0.36405 0.15914-0.5994 0.51868-0.59961 0.91602 1.538e-4 0.55224 0.44779 0.99987 1 1 0.55221-1.321e-4 0.99985-0.44776 1-1 5.84e-4 -0.31819-0.15025-0.61768-0.40625-0.80664l0.4043-3.6387c0.030844-0.27455-0.16683-0.52208-0.44141-0.55273-0.034319-0.0038555-0.068459-0.0049427-0.10156-0.0019531zm-0.45508 4.6445c0.19652-5.084e-4 0.35597 0.15894 0.35547 0.35547-5.798e-4 0.19577-0.15971 0.35402-0.35547 0.35352-0.195-5.696e-4 -0.35294-0.15851-0.35352-0.35352-4.989e-4 -0.19577 0.15775-0.3549 0.35352-0.35547zm1.1875 0.83398c-0.13044 0.32155-0.38549 0.5766-0.70703 0.70703l1.7031 1.7031c0.19525 0.19521 0.51178 0.19521 0.70703 0 0.19521-0.19525 0.19521-0.51178 0-0.70703zm-8.6875 0.52148a0.5 0.5 0 0 0-0.5 0.5 0.5 0.5 0 0 0 0.5 0.5h6a0.5 0.5 0 0 0 0.5-0.5 0.5 0.5 0 0 0-0.5-0.5zm0 3a0.5 0.5 0 0 0-0.5 0.5 0.5 0.5 0 0 0 0.5 0.5h6a0.5 0.5 0 0 0 0.5-0.5 0.5 0.5 0 0 0-0.5-0.5zm0 3a0.5 0.5 0 0 0-0.5 0.5 0.5 0.5 0 0 0 0.5 0.5h6a0.5 0.5 0 0 0 0.5-0.5 0.5 0.5 0 0 0-0.5-0.5z" style="fill-opacity:.75;fill:currentColor"/>
</svg>
