<?xml version="1.0" encoding="UTF-8"?>
<!-- Created with Inkscape (http://www.inkscape.org/) -->
<svg width="18" height="18" version="1.1" xmlns="http://www.w3.org/2000/svg" xmlns:cc="http://creativecommons.org/ns#" xmlns:dc="http://purl.org/dc/elements/1.1/" xmlns:rdf="http://www.w3.org/1999/02/22-rdf-syntax-ns#">
	<defs>
		<style id="current-color-scheme" type="text/css">.ColorScheme-Text {color:#090d11;}.ColorScheme-Background{color:#ffffff;}</style>
	</defs>
	<metadata>
		<rdf:RDF>
			<cc:Work rdf:about="">
				<dc:format>image/svg+xml</dc:format>
				<dc:type rdf:resource="http://purl.org/dc/dcmitype/StillImage"/>
			</cc:Work>
		</rdf:RDF>
	</metadata>
	<path id="b" class="ColorScheme-Background" d="m13.5 0.75c-0.14558 2.287e-5 -0.28393 0.063491-0.37891 0.17383l-3 3.5c-0.18012 0.20927-0.15651 0.52493 0.05273 0.70508 0.20927 0.18012 0.52493 0.15651 0.70508-0.052734l1.1211-1.3086v0.033203l0.64648-0.77539c-0.0019-0.00132-0.0039-0.00262-0.0059-0.00391l0.30668-0.35937 0.55273-0.66211 0.50977 0.61133 0.35156 0.41016c-0.0026 0.00128-0.0052 0.00258-0.0078 0.00391l0.64647 0.77539v-0.033203l1.1211 1.3086c0.18015 0.20924 0.49581 0.23285 0.70508 0.052734 0.20924-0.18015 0.23285-0.49581 0.05273-0.70508l-3-3.5c-0.094966-0.11034-0.23332-0.17381-0.3789-0.17383zm-11 2.25c-0.27614 0-0.5 0.22386-0.5 0.5s0.22386 0.5 0.5 0.5h6c0.27614 0 0.5-0.22386 0.5-0.5s-0.22386-0.5-0.5-0.5zm9.5 2v10c0 0.27614 0.22386 0.5 0.5 0.5s0.5-0.22386 0.5-0.5v-10zm2 0v10c0 0.27614 0.22386 0.5 0.5 0.5s0.5-0.22386 0.5-0.5v-10zm-11.5 1c-0.27614 0-0.5 0.22386-0.5 0.5s0.22386 0.5 0.5 0.5h6c0.27614 0 0.5-0.22386 0.5-0.5s-0.22386-0.5-0.5-0.5zm0 3c-0.27614 0-0.5 0.22386-0.5 0.5s0.22386 0.5 0.5 0.5h6c0.27614 0 0.5-0.22386 0.5-0.5s-0.22386-0.5-0.5-0.5zm0 3c-0.27614 0-0.5 0.22386-0.5 0.5s0.22386 0.5 0.5 0.5h6c0.27614 0 0.5-0.22386 0.5-0.5s-0.22386-0.5-0.5-0.5z" style="fill-opacity:.5;fill:currentColor"/>
	<path id="d" class="ColorScheme-Text" d="m13.5 2-2.5 3h2v10c0 0.27614 0.22386 0.5 0.5 0.5s0.5-0.22386 0.5-0.5v-10h2zm-11 2c-0.27614 0-0.5 0.22386-0.5 0.5s0.22386 0.5 0.5 0.5h6c0.27614 0 0.5-0.22386 0.5-0.5s-0.22386-0.5-0.5-0.5zm0 3c-0.27614 0-0.5 0.22386-0.5 0.5s0.22386 0.5 0.5 0.5h6c0.27614 0 0.5-0.22386 0.5-0.5s-0.22386-0.5-0.5-0.5zm0 3c-0.27614 0-0.5 0.22386-0.5 0.5s0.22386 0.5 0.5 0.5h6c0.27614 0 0.5-0.22386 0.5-0.5s-0.22386-0.5-0.5-0.5zm0 3c-0.27614 0-0.5 0.22386-0.5 0.5s0.22386 0.5 0.5 0.5h6c0.27614 0 0.5-0.22386 0.5-0.5s-0.22386-0.5-0.5-0.5z" style="fill-opacity:.75;fill:currentColor"/>
</svg>
