<?xml version="1.0" encoding="UTF-8"?>
<svg id="b" width="24" height="24" version="1.1" xmlns="http://www.w3.org/2000/svg" xmlns:cc="http://creativecommons.org/ns#" xmlns:dc="http://purl.org/dc/elements/1.1/" xmlns:rdf="http://www.w3.org/1999/02/22-rdf-syntax-ns#">
	<defs>
		<style id="current-color-scheme" type="text/css">.ColorScheme-Text {color:#090d11;}.ColorScheme-Background{color:#ffffff;}</style>
	</defs>
	<metadata id="f">
		<rdf:RDF>
			<cc:Work rdf:about="">
				<dc:format>image/svg+xml</dc:format>
				<dc:type rdf:resource="http://purl.org/dc/dcmitype/StillImage"/>
			</cc:Work>
		</rdf:RDF>
	</metadata>
	<path class="ColorScheme-Text" d="m20.871 2.5176a0.5 0.5 0 0 0-0.22461 0.12891l-0.84766 0.84766c-0.009991-0.018807-0.019234-0.037861-0.029297-0.056641l-0.85156 0.85156c0.009669 0.018967 0.019703 0.037646 0.029297 0.056641l-2.0605 2.0605c-0.008694-0.020517-0.014644-0.042014-0.023438-0.0625l-0.88281 0.88281c0.008083 0.020817 0.015463 0.041652 0.023437 0.0625l-2.2754 2.2754c-0.005674-0.023337-0.009787-0.047007-0.015625-0.070312l-0.9707 0.9707c0.004209 0.024758 0.007713 0.049434 0.011718 0.074218l-2.7539 2.7539v-0.085938l-2.4629 2.4629 0.056641 0.029297-4.9473 4.9473a0.5 0.5 0 0 0 0 0.70703 0.5 0.5 0 0 0 0.70703 0l5.1836-5.1836 1.3965 0.69922c0.021951 0.01097 0.044227 0.01588 0.066406 0.02539v-2.1875l2.8691-2.8691c0.030289 1.6355-0.37421 3.276-1.2207 4.7422-0.15849 0.27507-0.064073 0.62654 0.21094 0.78516 0.27507 0.15849 0.62654 0.064073 0.78516-0.21094 1.1346-1.9653 1.5655-4.2112 1.3008-6.3926l2.4102-2.4102c0.9797 3.4011 0.56863 7.1031-1.2461 10.246-0.15849 0.27507-0.06407 0.62654 0.21094 0.78516 0.27507 0.15849 0.62655 0.064073 0.78516-0.21094 2.0794-3.6017 2.4643-7.8806 1.168-11.738l2.123-2.123c2.0895 4.8745 1.7904 10.492-0.90039 15.152-0.15882 0.27456-0.065306 0.62588 0.20898 0.78516 0.27456 0.15882 0.62588 0.065306 0.78516-0.20898 2.9494-5.1086 3.2081-11.301 0.77734-16.6l1.0859-1.0859a0.5 0.5 0 0 0 0-0.70703 0.5 0.5 0 0 0-0.48242-0.12891zm-1.8672 0.12891c-0.028456-5.856e-4 -0.057131 1.662e-4 -0.085937 0.0039062-0.07503 0.00985-0.14737 0.034403-0.21289 0.072266-0.22558 0.13099-0.32634 0.39156-0.26758 0.63281l0.69141-0.69141c-0.040542-0.0098839-0.082543-0.016704-0.125-0.017578zm-3.3594 1.8945c-0.037287-0.0026166-0.074063-7.862e-4 -0.11133 0.0039063-0.07503 0.00985-0.14737 0.034403-0.21289 0.072266-0.275 0.15861-0.36943 0.51008-0.21094 0.78516 0.15893 0.27528 0.30586 0.55459 0.44336 0.83789l0.85547-0.85547c-0.097116-0.18675-0.19687-0.37327-0.30273-0.55664-0.07642-0.13204-0.20219-0.2283-0.34961-0.26758-0.036245-0.009851-0.07404-0.016915-0.11133-0.019531zm-3.459 2.0176c-0.037618-0.0026169-0.075696-9.158e-4 -0.11328 0.0039062-0.07503 0.00985-0.14737 0.034403-0.21289 0.072266-0.275 0.15861-0.36943 0.51008-0.21094 0.78516 0.35102 0.60801 0.62183 1.2469 0.82226 1.9023l0.90625-0.90625c-0.19942-0.53745-0.4403-1.0643-0.73242-1.5703-0.075969-0.13163-0.20096-0.22784-0.34766-0.26758-0.036554-0.0099795-0.07371-0.016914-0.11133-0.019531zm-2.1855 0.54492c-0.022028 0.00965-0.044857 0.020499-0.066406 0.03125l-7.1719 3.582c-1.0164 0.50826-1.0164 2.0563 0 2.5645l3.832 1.918 3.4062-3.4062v-4.6895z" style="fill-opacity:.75;fill:currentColor"/>
</svg>
