<?xml version="1.0" encoding="UTF-8"?>
<svg id="d" width="24" height="24" version="1.1" xmlns="http://www.w3.org/2000/svg" xmlns:cc="http://creativecommons.org/ns#" xmlns:dc="http://purl.org/dc/elements/1.1/" xmlns:rdf="http://www.w3.org/1999/02/22-rdf-syntax-ns#">
	<metadata id="a">
		<rdf:RDF>
			<cc:Work rdf:about="">
				<dc:format>image/svg+xml</dc:format>
				<dc:type rdf:resource="http://purl.org/dc/dcmitype/StillImage"/>
				<dc:title/>
			</cc:Work>
		</rdf:RDF>
	</metadata>
	<defs id="e">
		<style id="current-color-scheme" type="text/css">.ColorScheme-Text{color:#090d11;}.ColorScheme-Background{color:#ffffff;}</style>
	</defs>
	<path id="c" class="ColorScheme-Text" d="m21.672 2.4961a0.50005 0.50005 0 0 0-0.34375 0.15039l-2.9844 2.9844c-0.04474-0.044607-0.0852-0.09305-0.13086-0.13672l-0.70117 0.70117c0.04571 0.043452 0.08618 0.092205 0.13086 0.13672l-1.4062 1.4062c-0.04434-0.044911-0.0852-0.093202-0.13086-0.13672l-0.69727 0.69727c0.04592 0.043391 0.08068 0.097472 0.125 0.14258l-1.3828 1.3828c-0.042896-0.046433-0.077391-0.10096-0.12305-0.14453l-0.71289 0.71289c0.04575 0.04268 0.08283 0.09544 0.125 0.14258l-1.4395 1.4395v-0.26758l-4.5938 4.5938c0.040584 0.04395 0.084192 0.09706 0.125 0.14258l-4.2031 4.2031a0.50005 0.50005 0 1 0 0.70703 0.70703l4.1582-4.1582c0.80466 0.90765 1.7399 1.8047 3.1035 1.8047 0.48903 0 0.70312-3e-4 0.70312-0.65625v-4.9551l1.9297-1.9297c0.04262 0.1727 0.07031 0.35175 0.07031 0.54102 0 0.81258-0.40985 1.5147-1 1.8633v1.0918c1.2048-0.40618 2-1.611 2-2.9551 0-0.47136-0.10278-0.9213-0.2832-1.3281l1.4531-1.4531c0.51919 0.79454 0.83008 1.7458 0.83008 2.7812 0 2.4787-1.7246 4.5202-4 4.9551v1.0117c2.831-0.44851 5-2.9561 5-5.9668 0-1.3075-0.41679-2.5104-1.1152-3.4961l1.4199-1.4199c1.0575 1.356 1.6953 3.0569 1.6953 4.916 0 4.093-3.0514 7.454-7 7.9414v1.0078c4.4943-0.49486 8-4.316 8-8.9492 0-2.1302-0.75218-4.0796-1.9902-5.6211l3.0254-3.0254a0.50005 0.50005 0 0 0-0.36328-0.85742zm-8.6719 0.55469v1.0078c1.3902 0.17161 2.6645 0.70557 3.7383 1.4961l0.71289-0.71289c-1.2644-0.96587-2.7888-1.608-4.4512-1.791zm-1.7031 1.9492c-2.5713 0-3.6341 3.2257-5.1426 3.6309-2.5299 0.73813-3.1543 0.56893-3.1543 1.9688v2.8008c0 1.4 0.62438 1.2306 3.1543 1.9688 0.17714 0.04757 0.34762 0.13833 0.51562 0.25391l5.3301-5.3301v-4.6367c0-0.65596-0.2141-0.65625-0.70312-0.65625zm1.7031 1.0352v1.0098c0.58203 0.11124 1.1249 0.33092 1.6152 0.63281l0.70508-0.70508c-0.69025-0.46414-1.4696-0.80273-2.3203-0.9375zm0 3.0098v0.24805l0.17188-0.17188c-0.057975-0.024137-0.11182-0.055922-0.17188-0.076172z" style="fill-opacity:.75;fill:currentColor;opacity:.35"/>
	<path id="b" class="ColorScheme-Background" d="m14 2.1758v1.0117c1.2833 0.30671 2.4531 0.87897 3.4551 1.6504l-1.3906 1.3906c-0.61982-0.4457-1.3127-0.79415-2.0645-1.0117v1.0293c0.48594 0.16712 0.93195 0.41275 1.3496 0.69727l-2.3535 2.3535v-0.25195c0.0014 4.71e-4 0.0025 0.00155 0.0039 0.00195v-2c-0.0014-2.735e-4 -0.0025-0.00168-0.0039-0.00195v-1.0098c0.0014 2.257e-4 0.0025 0.00173 0.0039 0.00195v-1.9785h-0.0039l-1-0.058594h-0.49609c-0.03596 0-0.0678 0.012386-0.10156 0.019531-0.03281-0.00512-0.07957-0.019531-0.10547-0.019531-0.19656-1.801e-4 -0.3888 0.057559-0.55273 0.16602-1.375 0.22099-2.4378 1.028-3.1602 1.8262-0.82692 0.91371-1.5205 1.6265-1.6895 1.6719-0.00718 0.00187-0.014345 0.00383-0.021484 0.00586-1.224 0.35711-1.9611 0.4546-2.6758 0.79492-0.35734 0.17016-0.74169 0.47545-0.95117 0.88672s-0.24609 0.8238-0.24609 1.248v2.8008c0 0.42431 0.036626 0.83682 0.24609 1.248 0.20947 0.41127 0.59383 0.71655 0.95117 0.88672 0.71468 0.34034 1.4518 0.43584 2.6758 0.79297 0.00714 2e-3 0.014301 4e-3 0.021484 0.0059 0.0078 0.0021 0.031007 0.02243 0.041016 0.02734l-4.2852 4.2852a0.50005 0.50005 0 1 0 0.70703 0.70703l4.3164-4.3164c0.038445 0.03953 0.089388 0.09767 0.12891 0.13867l0.72852-0.72852c-0.040796-0.04551-0.084434-0.09862-0.125-0.14258l4.5938-4.5938v0.26758l1.0039-1.0039v-0.26758l1.0469-1.0469c0.04467 0.044166 0.07901 0.099342 0.12109 0.14648l0.6875-0.6875c-0.04334-0.045935-0.07768-0.10077-0.12305-0.14453l1.4004-1.4004c0.04524 0.043823 0.08503 0.093434 0.12891 0.13867l0.70312-0.70312c-0.04419-0.045101-0.08352-0.094794-0.12891-0.13867l1.375-1.375c0.04552 0.043751 0.08627 0.092062 0.13086 0.13672l0.68945-0.68945c-0.04471-0.044517-0.08531-0.093004-0.13086-0.13672l1.4531-1.4531a0.50005 0.50005 0 0 0-0.36328-0.85742 0.50005 0.50005 0 0 0-0.34375 0.15039l-1.502 1.502c-1.1887-0.93613-2.5926-1.6267-4.1445-1.9727zm-2.707 2.8242c0.48903 0 0.70312 2.884e-4 0.70312 0.65625v4.6406l-5.3281 5.3281c-0.16874-0.11636-0.33964-0.20807-0.51758-0.25586-2.5299-0.73818-3.1543-0.56874-3.1543-1.9688v-2.8008c0-1.3999 0.62437-1.2306 3.1543-1.9688 1.5085-0.40519 2.5712-3.6309 5.1426-3.6309zm8.4121 0.68359-0.69727 0.69727c1.2436 1.5518 1.9897 3.5033 1.9922 5.6191-0.0042 4.2317-2.9423 7.8446-7 8.8145v1.0117c4.6306-1.0323 7.9953-5.0808 8-9.8262-0.0028-2.3828-0.86177-4.5804-2.2949-6.3164zm-2.0898 2.0898-0.71094 0.71094c0.6887 0.9952 1.0942 2.2101 1.0957 3.5156-0.0023 2.6525-1.6506 4.9485-4 5.7559v1.0312c2.9135-0.84264 4.9971-3.5861 5-6.7871-0.0018-1.5809-0.51782-3.0443-1.3848-4.2266zm-2.166 2.166-0.72461 0.72461c0.17498 0.40651 0.27486 0.85824 0.27539 1.3359-2.63e-4 0.95581-0.3851 1.8243-1 2.4023v1.1895c1.2026-0.7013 1.9992-2.0585 2-3.5918-9.35e-4 -0.75348-0.21101-1.451-0.55078-2.0605zm-2.4492 2.4492-1.0039 1.0039v4.9512c0 0.65595-0.2141 0.65625-0.70312 0.65625-1.3627 0-2.2987-0.89424-3.1035-1.8008l-0.70508 0.70508c0.035461 0.03887 0.059146 0.06313 0.095703 0.10352 0.82692 0.91364 2.009 1.9922 3.7129 1.9922 0.0259 0 0.07266-0.01432 0.10547-0.01953 0.03377 0.0071 0.06561 0.01953 0.10156 0.01953h0.49609l1-0.05859h0.0039v-1.9766c-0.0014 2.26e-4 -0.0025 0.0017-0.0039 2e-3v-1.0117c0.0014-2.72e-4 0.0025-0.0017 0.0039-2e-3v-2c-0.0014 4.73e-4 -0.0025 0.0015-0.0039 2e-3v-1.0918c0.0016-9.23e-4 0.0023-3e-3 0.0039-0.0039v-1.4707z" style="fill-opacity:.5;fill:currentColor;opacity:.35"/>
</svg>
