<?xml version="1.0" encoding="UTF-8"?>
<!-- Created with Inkscape (http://www.inkscape.org/) -->
<svg width="24" height="24" version="1.1" xmlns="http://www.w3.org/2000/svg" xmlns:cc="http://creativecommons.org/ns#" xmlns:dc="http://purl.org/dc/elements/1.1/" xmlns:rdf="http://www.w3.org/1999/02/22-rdf-syntax-ns#">
	<metadata>
		<rdf:RDF>
			<cc:Work rdf:about="">
				<dc:format>image/svg+xml</dc:format>
				<dc:type rdf:resource="http://purl.org/dc/dcmitype/StillImage"/>
			</cc:Work>
		</rdf:RDF>
	</metadata>
	<defs id="defs">
		<style id="current-color-scheme" type="text/css">.ColorScheme-Text {color:#090d11;}.ColorScheme-NegativeText{color:#fa0473;}</style>
	</defs>
	<path class="ColorScheme-Text" d="m11 3c-0.554 0-1 0.446-1 1-1.6447 0-3 1.3553-3 3v10c0 1.6447 1.3553 3 3 3h4c1.6447 0 3-1.3553 3-3v-10c0-1.6447-1.3553-3-3-3 0-0.554-0.446-1-1-1h-2zm-1 2h4c1.108 0 2 0.892 2 2v10c0 0.15803-0.022237 0.30983-0.056641 0.45703-0.002422 0.010277-0.003298 0.021031-0.005859 0.03125-0.13309 0.53114-0.47555 0.97767-0.9375 1.2441-0.29408 0.16962-0.63478 0.26758-1 0.26758h-4c-0.36522 0-0.70592-0.097953-1-0.26758-0.46195-0.26646-0.80441-0.713-0.9375-1.2441-0.0025553-0.010236-0.0034371-0.020972-0.0058594-0.03125-0.0098965-0.041985-0.020212-0.083952-0.027344-0.12695-0.017859-0.10768-0.029297-0.21715-0.029297-0.33008v-10c0-1.108 0.892-2 2-2z" style="fill-opacity:.75;fill:currentColor"/>
	<path class="ColorScheme-NegativeText error" d="m8 17c0 0.11293 0.011478 0.2224 0.029297 0.33008 0.007132 0.043 0.017444 0.084963 0.027344 0.12695 0.00242 0.01028 0.0032994 0.02101 0.0058594 0.03125 0.13309 0.5311 0.47555 0.97768 0.9375 1.2441 0.29408 0.16963 0.63478 0.26758 1 0.26758h4c0.36522 0 0.70592-0.097958 1-0.26758 0.46195-0.26643 0.80441-0.713 0.9375-1.2441 0.0026-0.01022 0.003459-0.02097 0.005859-0.03125 0.0344-0.1472 0.056641-0.299 0.056641-0.45703h-8zm-1.3613 0.33008c0.011951 0.05361 0.027373 0.10615 0.044922 0.1582-0.017586-0.05197-0.032934-0.10468-0.044922-0.1582zm10.723 0c-0.01202 0.05353-0.027342 0.10623-0.044922 0.1582 0.01756-0.05206 0.032972-0.10459 0.044922-0.1582z" style="fill:currentColor"/>
</svg>
