<?xml version="1.0" encoding="UTF-8"?>
<!-- Created with Inkscape (http://www.inkscape.org/) -->
<svg width="24" height="24" version="1.1" xmlns="http://www.w3.org/2000/svg" xmlns:cc="http://creativecommons.org/ns#" xmlns:dc="http://purl.org/dc/elements/1.1/" xmlns:rdf="http://www.w3.org/1999/02/22-rdf-syntax-ns#">
	<metadata>
		<rdf:RDF>
			<cc:Work rdf:about="">
				<dc:format>image/svg+xml</dc:format>
				<dc:type rdf:resource="http://purl.org/dc/dcmitype/StillImage"/>
			</cc:Work>
		</rdf:RDF>
	</metadata>
	<defs id="e">
		<style id="current-color-scheme" type="text/css">.ColorScheme-Text {color:#090d11;}
			.ColorScheme-Background{color:#ffffff;}</style>
	</defs>
	<path class="ColorScheme-Background" d="m11 2c-0.7507 0-1.2835 0.5009-1.625 1.125-1.8921 0.3123-3.375 1.9003-3.375 3.875v10c0 2.194 1.8059 4 4 4h4c2.194 0 3.9999-1.806 4-4v-10c0-1.9704-1.489-3.5576-3.375-3.875-0.3416-0.6241-0.8744-1.125-1.625-1.125h-2zm0 1h2c0.06925 0 0.13596 0.0062504 0.20117 0.019531 0.06522 0.013277 0.12959 0.033359 0.18945 0.058594 0.23944 0.10094 0.43031 0.29181 0.53125 0.53125 0.02523 0.059859 0.045324 0.12424 0.058594 0.18945 0.01328 0.065215 0.019531 0.13192 0.019531 0.20117 0.82235 0 1.5728 0.3384 2.1172 0.88281 0.47636 0.47636 0.79489 1.1106 0.86719 1.8125 0.01033 0.10027 0.015625 0.20189 0.015625 0.30469v10c0 1.6447-1.3553 3-3 3h-4c-1.6447 0-3-1.3553-3-3v-10c0-0.10279 0.0053-0.20441 0.015625-0.30469 0.15492-1.5041 1.4425-2.6953 2.9844-2.6953 0-0.06925 0.006301-0.13596 0.019531-0.20117 0.01328-0.065215 0.033364-0.12959 0.058594-0.18945 0.10094-0.23944 0.29181-0.43031 0.53125-0.53125 0.05986-0.025234 0.12424-0.045316 0.18945-0.058594 0.06522-0.013277 0.13192-0.019531 0.20117-0.019531zm-1 2v1h4v-1h-4zm2.3652 1.0059a1.5 1.5 0 0 0-1.2695 0.9668l-1.5 4a1.5002 1.5002 0 0 0 1.334 1.9902l-0.85352 2.5625a1.5 1.5 0 0 0 0.94922 1.8984 1.5 1.5 0 0 0 1.8984-0.94922l1.5-4.5a1.5002 1.5002 0 0 0-1.2773-1.9258l0.75781-2.0215a1.5 1.5 0 0 0-0.87695-1.9316 1.5 1.5 0 0 0-0.66211-0.089844zm0.16406 0.84375a0.65 0.65 0 0 1 0.19922 0.041016 0.65 0.65 0 0 1 0.38086 0.83789l-1.1699 3.1211h1.0605a0.65006 0.65006 0 0 1 0.61719 0.85547l-1.5 4.5a0.65 0.65 0 0 1-0.82227 0.41211 0.65 0.65 0 0 1-0.41211-0.82227l1.2148-3.6445h-1.0977a0.65006 0.65006 0 0 1-0.60938-0.87891l1.5-4a0.65 0.65 0 0 1 0.63867-0.42188z" style="fill-opacity:.5;fill:currentColor"/>
	<path class="ColorScheme-Text" d="m11 3c-0.554 0-1 0.446-1 1-1.6447 0-3 1.3553-3 3v10c0 1.6447 1.3553 3 3 3h4c1.6447 0 3-1.3553 3-3v-10c0-1.6447-1.3553-3-3-3 0-0.554-0.446-1-1-1h-2zm-1 2h4v1h-4v-1zm2.3652 1.0059a1.5 1.5 0 0 1 0.66211 0.089844 1.5 1.5 0 0 1 0.87695 1.9316l-0.75781 2.0215a1.5002 1.5002 0 0 1 1.2773 1.9258l-1.5 4.5a1.5 1.5 0 0 1-1.8984 0.94922 1.5 1.5 0 0 1-0.94922-1.8984l0.85352-2.5625a1.5002 1.5002 0 0 1-1.334-1.9902l1.5-4a1.5 1.5 0 0 1 1.2695-0.9668zm0.16406 0.84375a0.65 0.65 0 0 0-0.63867 0.42188l-1.5 4a0.65006 0.65006 0 0 0 0.60938 0.87891h1.0977l-1.2148 3.6445a0.65 0.65 0 0 0 0.41211 0.82227 0.65 0.65 0 0 0 0.82227-0.41211l1.5-4.5a0.65006 0.65006 0 0 0-0.61719-0.85547h-1.0605l1.1699-3.1211a0.65 0.65 0 0 0-0.38086-0.83789 0.65 0.65 0 0 0-0.19922-0.041016z" style="fill-opacity:.75;fill:currentColor"/>
</svg>
