<?xml version="1.0" encoding="UTF-8"?>
<!-- Created with Inkscape (http://www.inkscape.org/) -->
<svg width="24" height="24" version="1.1" xmlns="http://www.w3.org/2000/svg" xmlns:cc="http://creativecommons.org/ns#" xmlns:dc="http://purl.org/dc/elements/1.1/" xmlns:rdf="http://www.w3.org/1999/02/22-rdf-syntax-ns#">
	<metadata>
		<rdf:RDF>
			<cc:Work rdf:about="">
				<dc:format>image/svg+xml</dc:format>
				<dc:type rdf:resource="http://purl.org/dc/dcmitype/StillImage"/>
			</cc:Work>
		</rdf:RDF>
	</metadata>
	<defs id="e">
		<style id="current-color-scheme" type="text/css">.ColorScheme-Text {color:#090d11;}
			.ColorScheme-Background{color:#ffffff;}</style>
	</defs>
	<path class="ColorScheme-Text" d="m11 3c-0.554 0-1 0.446-1 1-1.6447 0-3 1.3553-3 3v10c0 1.6447 1.3553 3 3 3h4c1.6447 0 3-1.3553 3-3v-10c0-1.6447-1.3553-3-3-3 0-0.554-0.446-1-1-1h-2zm-1 2h4c1.108 0 2 0.892 2 2h-2.0879a1.5 1.5 0 0 1-0.007812 1.0273l-0.75781 2.0215a1.5002 1.5002 0 0 1 1.2773 1.9258l-1.5 4.5a1.5 1.5 0 0 1-1.8984 0.94922 1.5 1.5 0 0 1-0.94922-1.8984l0.85352-2.5625a1.5002 1.5002 0 0 1-1.334-1.9902l1.4902-3.9727h-3.0859c0-1.108 0.892-2 2-2zm2.5078 1.8516a0.65 0.65 0 0 0-0.007812 0.0019531 0.65 0.65 0 0 0-0.21094 0.037109 0.65 0.65 0 0 0-0.19531 0.10938 0.65 0.65 0 0 0-0.20312 0.27148l-1.5 4a0.65006 0.65006 0 0 0 0.60938 0.87891h1.0977l-1.2148 3.6445a0.65 0.65 0 0 0 0.41211 0.82227 0.65 0.65 0 0 0 0.82227-0.41211l1.5-4.5a0.65006 0.65006 0 0 0-0.61719-0.85547h-1.0605l1.1699-3.1211a0.65 0.65 0 0 0-0.19141-0.72852 0.65 0.65 0 0 0-0.007813-0.0039062 0.65 0.65 0 0 0-0.18164-0.10547 0.65 0.65 0 0 0-0.21875-0.039062 0.65 0.65 0 0 0-0.001954 0z" style="fill-opacity:.75;fill:currentColor"/>
</svg>
