<?xml version="1.0" encoding="UTF-8"?>
<!-- Created with Inkscape (http://www.inkscape.org/) -->
<svg width="24" height="24" version="1.0" xmlns="http://www.w3.org/2000/svg" xmlns:cc="http://creativecommons.org/ns#" xmlns:dc="http://purl.org/dc/elements/1.1/" xmlns:rdf="http://www.w3.org/1999/02/22-rdf-syntax-ns#">
	<metadata>
		<rdf:RDF>
			<cc:Work rdf:about="">
				<dc:format>image/svg+xml</dc:format>
				<dc:type rdf:resource="http://purl.org/dc/dcmitype/StillImage"/>
				<dc:title/>
			</cc:Work>
		</rdf:RDF>
	</metadata>
	<defs>
		<radialGradient id="a" cx="8.3649" cy="7.8715" r="5.8618" gradientTransform="matrix(2.3883,0,0,3.2595,-8.2694,-14.657)" gradientUnits="userSpaceOnUse">
			<stop stop-color="#ffffff" stop-opacity=".74858" offset="0"/>
			<stop stop-color="#ffffff" stop-opacity=".60511" offset="1"/>
		</radialGradient>
		<radialGradient id="b" cx="7.0346" cy="8.1285" r="4.2714" gradientTransform="matrix(3.5436,0,0,4.6412,-13.428,-24.726)" gradientUnits="userSpaceOnUse">
			<stop stop-color="#213851" stop-opacity=".9059" offset="0"/>
			<stop stop-color="#27303a" stop-opacity="0" offset="1"/>
		</radialGradient>
	</defs>
	<path d="m10.75 2.0117c-0.23532 2.396e-4 -0.43862 0.16451-0.48828 0.39453l-0.39844 1.8516c-1.3208 0.36486-2.5236 1.0597-3.5 2.0215l-1.8027-0.58203c-0.22403-0.072006-0.46807 0.022893-0.58594 0.22656l-1.25 2.1641c-0.11745 0.20391-0.076718 0.46308 0.097656 0.62109l1.4043 1.2695c-0.34448 1.3263-0.34478 2.7164 0 4.043l-1.4043 1.2695c-0.17437 0.15801-0.21511 0.41718-0.097656 0.62109l1.25 2.1641c0.11787 0.20367 0.36191 0.29857 0.58594 0.22656l1.8027-0.58203c0.97633 0.9613 2.1789 1.6568 3.5 2.0215l0.39844 1.8516c0.04966 0.23002 0.25296 0.39429 0.48828 0.39453h2.5c0.23532-2.39e-4 0.43862-0.16451 0.48828-0.39453l0.39844-1.8516c1.3208-0.36486 2.5236-1.0597 3.5-2.0215l1.8027 0.58203c0.22403 0.072 0.46807-0.02289 0.58594-0.22656l1.25-2.1641c0.11745-0.20391 0.07671-0.46308-0.09766-0.62109l-1.4043-1.2695c0.34448-1.3263 0.34478-2.7164 0-4.043l1.4043-1.2695c0.17437-0.15801 0.21511-0.41718 0.09766-0.62109l-1.25-2.1641c-0.11786-0.20367-0.36191-0.29857-0.58594-0.22656l-1.8027 0.58203c-0.97633-0.9613-2.1789-1.6568-3.5-2.0215l-0.39844-1.8516c-0.049656-0.23002-0.25296-0.39429-0.48828-0.39453zm0 1h2.5c0.22042 7.76e-5 0.41479 0.14447 0.47852 0.35547l0.59375 1.9688c0.83465 0.29144 1.6112 0.72629 2.2832 1.2988l0.02148 0.019531 1.9844-0.4668c0.2146-0.050309 0.4366 0.045482 0.54688 0.23633l0.20312 0.34961 0.8457 1.4648 0.20117 0.34961c0.11014 0.19092 0.08251 0.4311-0.06836 0.5918l-1.4082 1.5c0.16493 0.86855 0.17743 1.7587 0.01758 2.627l-0.0059 0.02734 1.3965 1.4863c0.15087 0.1607 0.1785 0.40087 0.06836 0.5918l-0.20117 0.34961-0.8457 1.4648-0.20312 0.34961c-0.11028 0.19085-0.33228 0.28664-0.54688 0.23633l-2.002-0.46875c-0.66972 0.5771-1.4338 1.0325-2.2656 1.3281l-0.02734 0.0078-0.58789 1.9531c-0.06373 0.211-0.2581 0.35539-0.47852 0.35547h-2.5c-0.22042-7.8e-5 -0.41479-0.14447-0.47852-0.35547l-0.59375-1.9688c-0.83465-0.29144-1.6112-0.72629-2.2832-1.2988l-0.021484-0.01953-1.9844 0.4668c-0.2146 0.05031-0.4366-0.04548-0.54688-0.23633l-0.20312-0.34961-0.8457-1.4648-0.20117-0.34961c-0.11014-0.19092-0.082509-0.4311 0.068359-0.5918l1.4082-1.5c-0.16493-0.86855-0.17743-1.7587-0.017578-2.627l0.00586-0.02734-1.3965-1.4863c-0.15087-0.16069-0.1785-0.40087-0.068359-0.5918l0.20117-0.34961 0.8457-1.4648 0.20312-0.34961c0.11028-0.19085 0.33228-0.28664 0.54688-0.23633l2.002 0.46875c0.66816-0.57576 1.4302-1.0305 2.2598-1.3262 0.00194-6.923e-4 0.00392-0.00126 0.00586-0.00195l0.027344-0.00781 0.58789-1.9531c0.06373-0.211 0.2581-0.35539 0.47852-0.35547zm1.2383 12.988c0.27793 0.0033 0.54471-0.10921 0.73633-0.31055l2.8008-3c0.606-0.63687 0.1545-1.6896-0.72461-1.6895h-0.8008v-2c0-0.554-0.446-1-1-1h-2c-0.554 0-1 0.446-1 1v2h-0.8008c-0.87911-8e-5 -1.3306 1.0526-0.72461 1.6895l2.8008 3c0.18601 0.19544 0.4431 0.30743 0.71289 0.31055zm0.01172-1-2.8008-3h1.8008v-3h2v3h1.8008z" fill="url(#a)" style="paint-order:normal"/>
	<path d="m10.75 3.0117c-0.22042 7.61e-5 -0.41479 0.14447-0.47852 0.35547l-0.5918 1.9629c-0.8393 0.29547-1.6141 0.74459-2.2891 1.3262l-2.002-0.46875c-0.21445-0.050264-0.43653 0.045707-0.54688 0.23633l-1.25 2.1641c-0.11003 0.19079-0.08227 0.43111 0.068359 0.5918l1.4043 1.4961c-0.16346 0.87409-0.1622 1.7698 0.00391 2.6445l-1.4082 1.5c-0.15063 0.16069-0.17839 0.401-0.068359 0.5918l1.25 2.1641c0.11035 0.19062 0.33243 0.28659 0.54688 0.23633l1.9961-0.46875c0.6755 0.57907 1.4519 1.0266 2.293 1.3203l0.59375 1.9688c0.06373 0.211 0.2581 0.35539 0.47851 0.35547h2.5c0.22042-7.6e-5 0.41479-0.14447 0.47852-0.35547l0.5918-1.9629c0.8393-0.29547 1.6142-0.74459 2.2891-1.3262l2.002 0.46875c0.21445 0.05026 0.43653-0.04571 0.54688-0.23633l1.25-2.1641c0.11003-0.1908 0.08227-0.43111-0.06836-0.5918l-1.4043-1.4961c0.16346-0.87409 0.1622-1.7698-0.0039-2.6445l1.4082-1.5c0.15063-0.16069 0.17839-0.40101 0.06836-0.5918l-1.25-2.1641c-0.11035-0.19062-0.33243-0.28659-0.54688-0.23633l-1.9961 0.46875c-0.6755-0.57907-1.4519-1.0266-2.293-1.3203l-0.59375-1.9688c-0.06373-0.211-0.2581-0.35539-0.47852-0.35547zm0.37109 1h1.7578l0.63281 2.0996-2e-3 0.00586c0.0014 3.606e-4 0.0025 0.00159 0.0039 0.00195l0.0078 0.025391 0.03711-0.011719c1.0395 0.27684 1.986 0.82399 2.7441 1.5879l0.0078 0.033203 0.02344-0.00586c0.0019 0.00198 0.0039 0.00388 0.0059 0.00586l0.0098-0.00977 2.1289-0.5 0.87891 1.5234-1.502 1.5977h-0.0059c3.88e-4 0.0014-3.88e-4 0.0045 0 0.0059l-0.01758 0.01953 0.0293 0.02539c0.27998 1.0386 0.27857 2.1314-0.0039 3.1699l-0.02539 0.02344 0.01758 0.01758c-7.25e-4 0.0026-0.0012 0.0052-2e-3 0.0078l0.01172 0.0039 1.498 1.5938-0.87891 1.5234-2.1348-0.50195-0.0039-0.0059-0.0039 0.0039-0.02539-0.0059-0.0078 0.03711c-0.75958 0.76188-1.7073 1.3074-2.748 1.582l-0.0332-0.0098-0.0078 0.02344c-2e-3 5.14e-4 -0.0039 0.0014-0.0059 2e-3l2e-3 0.01172-0.63086 2.0957h-1.7578l-0.63281-2.0996 2e-3 -0.0059c-0.0014-3.61e-4 -0.0025-0.0016-0.0039-2e-3l-0.0078-0.02539-0.03711 0.01172c-1.0395-0.27662-1.986-0.82385-2.7442-1.5878l-0.00781-0.0332-0.023437 0.0059c-0.00194-2e-3 -0.00392-0.0039-0.00586-0.0059l-0.00977 0.0098-2.1289 0.5-0.87891-1.5234 1.502-1.5977h0.00586c-3.877e-4 -0.0014 3.882e-4 -0.0045 0-0.0059l0.017578-0.01953-0.029297-0.02539c-0.27998-1.0386-0.27857-2.1314 0.00391-3.1699l0.025391-0.02344-0.017578-0.01758c7.258e-4 -0.0026 0.00122-0.0052 0.00195-0.0078l-0.011718-0.0039-1.498-1.5937 0.87891-1.5234 2.1348 0.50195 0.00391 0.00586c0.00101-0.00103 0.0029-0.00288 0.00391-0.00391l0.025391 0.005846 0.00781-0.037109c0.75957-0.76188 1.7073-1.3074 2.748-1.582l0.0332 0.00977 0.0078-0.023437c2e-3 -5.135e-4 0.0039-0.00144 0.0059-0.00195l-2e-3 -0.011719zm0.87887 10.988 2.8008-3h-1.8008v-3h-2v3h-1.8008z" color="#000000" color-rendering="auto" dominant-baseline="auto" fill="#090d11" fill-opacity=".76621" image-rendering="auto" shape-rendering="auto" solid-color="#000000" style="font-feature-settings:normal;font-variant-alternates:normal;font-variant-caps:normal;font-variant-ligatures:normal;font-variant-numeric:normal;font-variant-position:normal;isolation:auto;mix-blend-mode:normal;paint-order:normal;shape-padding:0;text-decoration-color:#000000;text-decoration-line:none;text-decoration-style:solid;text-indent:0;text-orientation:mixed;text-transform:none;white-space:normal"/>
	<path d="m10.75 3.0117c-0.22042 7.61e-5 -0.41479 0.14447-0.47852 0.35547l-0.5918 1.9629c-0.8393 0.29547-1.6141 0.74459-2.2891 1.3262l-2.002-0.46875c-0.21445-0.050264-0.43653 0.045707-0.54688 0.23633l-1.25 2.1641c-0.11003 0.19079-0.08227 0.43111 0.068359 0.5918l1.4043 1.4961c-0.16346 0.87409-0.1622 1.7698 0.00391 2.6445l-1.4082 1.5c-0.15063 0.16069-0.17839 0.401-0.068359 0.5918l1.25 2.1641c0.11035 0.19062 0.33243 0.28659 0.54688 0.23633l1.9961-0.46875c0.6755 0.57907 1.4519 1.0266 2.293 1.3203l0.59375 1.9688c0.06373 0.211 0.2581 0.35539 0.47852 0.35547h2.5c0.22042-7.6e-5 0.41479-0.14447 0.47852-0.35547l0.5918-1.9629c0.8393-0.29547 1.6142-0.74459 2.2891-1.3262l2.002 0.46875c0.21445 0.05026 0.43653-0.04571 0.54688-0.23633l1.25-2.1641c0.11003-0.1908 0.08227-0.43111-0.06836-0.5918l-1.4043-1.4961c0.16346-0.87409 0.1622-1.7698-0.0039-2.6445l1.4082-1.5c0.15063-0.16069 0.17839-0.40101 0.06836-0.5918l-1.25-2.1641c-0.11035-0.19063-0.33244-0.2866-0.54689-0.23633l-1.9961 0.46875c-0.6755-0.57907-1.4519-1.0266-2.293-1.3203l-0.59375-1.9688c-0.06373-0.211-0.2581-0.35539-0.47852-0.35547zm0.37109 1h1.7578l0.63281 2.0996-2e-3 0.00586c0.0014 3.606e-4 0.0025 0.00159 0.0039 0.00195l0.0078 0.025391 0.03711-0.011719c1.0395 0.27684 1.986 0.82399 2.7441 1.5879l0.0078 0.033203 0.02344-0.00586c0.0019 0.00198 0.0039 0.00388 0.0059 0.00586l0.0098-0.00977 2.1289-0.5 0.87891 1.5234-1.502 1.5977h-0.0059c3.88e-4 0.0014-3.88e-4 0.0045 0 0.0059l-0.01758 0.01953 0.0293 0.02539c0.27998 1.0386 0.27857 2.1314-0.0039 3.1699l-0.02539 0.02344 0.01758 0.01758c-7.25e-4 0.0026-0.0012 0.0052-2e-3 0.0078l0.01172 0.0039 1.498 1.5938-0.87891 1.5234-2.1348-0.50195-0.0039-0.0059-0.0039 0.0039-0.02539-0.0059-0.0078 0.03711c-0.75958 0.76188-1.7073 1.3074-2.748 1.582l-0.0332-0.0098-0.0078 0.02344c-2e-3 5.14e-4 -0.0039 0.0014-0.0059 2e-3l2e-3 0.01172-0.63086 2.0957h-1.7578l-0.63281-2.0996 0.0019-0.0059c-0.0014-3.61e-4 -0.0025-0.0016-0.0039-2e-3l-0.0078-0.02539-0.03711 0.01172c-1.0395-0.27676-1.986-0.82399-2.7441-1.5879l-0.00781-0.0332-0.023438 0.0059c-0.00194-2e-3 -0.00392-0.0039-0.00586-0.0059l-0.00977 0.0098-2.1289 0.5-0.87891-1.5234 1.502-1.5977h0.00586c-3.877e-4 -0.0014 3.882e-4 -0.0045 0-0.0059l0.017578-0.01953-0.029297-0.02539c-0.27998-1.0386-0.27857-2.1314 0.00391-3.1699l0.025391-0.02344-0.017578-0.01758c7.258e-4 -0.0026 0.00122-0.0052 0.00195-0.0078l-0.011719-0.0039-1.498-1.5937 0.87891-1.5234 2.1348 0.50195 0.00391 0.00586c0.00101-0.00103 0.0029-0.00288 0.00391-0.00391l0.025391 0.00586 0.00781-0.037109c0.75958-0.76188 1.7073-1.3074 2.748-1.582l0.0332 0.00977 0.0078-0.023437c2e-3 -5.135e-4 0.0038-0.00144 0.0059-0.00195l-2e-3 -0.011719 0.63086-2.0957zm0.87887 10.988 2.8008-3h-1.8008v-3h-2v3h-1.8008z" color="#000000" color-rendering="auto" dominant-baseline="auto" fill="url(#b)" fill-opacity=".76471" image-rendering="auto" shape-rendering="auto" solid-color="#000000" style="font-feature-settings:normal;font-variant-alternates:normal;font-variant-caps:normal;font-variant-ligatures:normal;font-variant-numeric:normal;font-variant-position:normal;isolation:auto;mix-blend-mode:normal;paint-order:normal;shape-padding:0;text-decoration-color:#000000;text-decoration-line:none;text-decoration-style:solid;text-indent:0;text-orientation:mixed;text-transform:none;white-space:normal"/>
</svg>
