<?xml version="1.0" encoding="UTF-8"?>
<!-- Created with Inkscape (http://www.inkscape.org/) -->
<svg width="64" height="64" version="1.1" xmlns="http://www.w3.org/2000/svg" xmlns:cc="http://creativecommons.org/ns#" xmlns:dc="http://purl.org/dc/elements/1.1/" xmlns:rdf="http://www.w3.org/1999/02/22-rdf-syntax-ns#">
	<defs>
		<radialGradient id="a" cx="33.466" cy="2.1992" r="30.5" gradientTransform="matrix(-1.0283 0 0 -.55738 67.779 1.2258)" gradientUnits="userSpaceOnUse">
			<stop stop-color="#668cbb" offset="0"/>
			<stop stop-color="#668cbb" offset="1"/>
		</radialGradient>
		<linearGradient id="e" x1="61" x2="60" y1="17" gradientUnits="userSpaceOnUse">
			<stop stop-color="#3e4d60" stop-opacity=".72157" offset="0"/>
			<stop stop-color="#393b49" stop-opacity=".2656" offset="1"/>
		</linearGradient>
		<linearGradient id="d" x1="53" x2="53" y1="17" y2="15" gradientUnits="userSpaceOnUse">
			<stop stop-color="#dad8ce" offset="0"/>
			<stop stop-color="#ebebeb" offset="1"/>
		</linearGradient>
		<linearGradient id="f" x1="32.559" x2="33.542" y1="15.559" y2="14.542" gradientUnits="userSpaceOnUse">
			<stop stop-color="#37321c" stop-opacity=".15675" offset="0"/>
			<stop stop-color="#6d5524" stop-opacity="0" offset="1"/>
		</linearGradient>
		<linearGradient id="c" x1="-5" x2="-5" y1="64" y2="14" gradientUnits="userSpaceOnUse">
			<stop stop-color="#f43f66" stop-opacity=".018868" offset="0"/>
			<stop stop-color="#f4ae3f" stop-opacity=".47025" offset="1"/>
		</linearGradient>
		<radialGradient id="b" cx="30.107" cy="50.318" r="30.5" gradientTransform="matrix(2.7541 -1.4218e-7 8.3652e-8 2.7869 -52.917 -81.23)" gradientUnits="userSpaceOnUse">
			<stop stop-color="#9e1423" stop-opacity=".12917" offset="0"/>
			<stop stop-color="#f4405b" stop-opacity=".023222" offset=".54"/>
			<stop stop-color="#f43f6d" stop-opacity=".169" offset="1"/>
		</radialGradient>
	</defs>
	<metadata>
		<rdf:RDF>
			<cc:Work rdf:about="">
				<dc:format>image/svg+xml</dc:format>
				<dc:type rdf:resource="http://purl.org/dc/dcmitype/StillImage"/>
				<dc:title/>
			</cc:Work>
		</rdf:RDF>
	</metadata>
	<g>
		<path d="m3 6-1e-7 58 57-1e-6 4-4v-59l-1-1h-26l-5 5-28 1e-7z" color="#000000" fill="url(#a)"/>
		<path d="m3 6-1e-7 58 57-1e-6 4-4v-59l-1-1h-26l-5 5-28 1e-7z" color="#000000" fill="url(#e)"/>
		<path d="m58 13v51h2l4-4v-59l-1-1v18z" fill="#002812" fill-opacity=".12482"/>
	</g>
	<g>
		<path d="m7 13h51v31h-51z" fill="url(#d)"/>
		<path d="m30 13 4 4h2l-4-4z" color="#000000" fill="url(#f)"/>
	</g>
	<g>
		<path d="m0 13v50l1 1h59l1-1v-45l-1-1-26 1e-6 -5-5-28-1e-6z" color="#000000" fill="#f4ae3f"/>
		<path d="m0 13v50l1 1h59l1-1v-45l-1-1-26 1e-6 -5-5-28-1e-6z" color="#000000" fill="url(#c)"/>
		<path d="m0 13v50l1 1h59l1-1v-45l-1-1-26 1e-6 -5-5-28-1e-6z" color="#000000" fill="url(#b)"/>
	</g>
	<g fill="#ff0066" opacity=".3">
		<path d="m24 32v32h8.5227e-4 18.666l4.2613e-4 -4.2613e-4c0.072348-0.072348 9.3329-9.3329 9.3329-9.3329v-2.5906e-4 -22.666h-3.2002e-4 -28m2.6667 2.6667h2.5906e-4 22.666v9.1314e-4 19.999h-3.0438e-4 -6.6664v3.0438e-4 6.6664h-7.3051e-4 -15.999v-3.0478e-4 -26.666m3.3333 4c-1.8034e-4 0-3.6066e-4 7.09e-8 -5.4096e-4 2.126e-7 -0.36908 2.9017e-4 -0.66613 0.29751-0.66613 0.66667 0 1.8034e-4 7.09e-8 3.6066e-4 2.126e-7 5.4097e-4 2.9017e-4 0.36908 0.29752 0.66613 0.66667 0.66613h9.7148e-4 5.3324c1.8034e-4 0 3.6066e-4 -7.09e-8 5.4096e-4 -2.126e-7 0.36908-2.9017e-4 0.66613-0.29751 0.66613-0.66667 0-1.8034e-4 -7.09e-8 -3.6066e-4 -2.126e-7 -5.4096e-4 -2.9017e-4 -0.36908-0.29751-0.66613-0.66667-0.66613h-9.7148e-4 -5.3324m0 4c-1.8034e-4 0-3.6066e-4 7.09e-8 -5.4096e-4 2.126e-7 -0.36908 2.9017e-4 -0.66613 0.29751-0.66613 0.66667 0 1.8034e-4 7.09e-8 3.6066e-4 2.126e-7 5.4096e-4 2.9017e-4 0.36908 0.29752 0.66613 0.66667 0.66613h9.7148e-4 5.3324c1.8034e-4 0 3.6066e-4 -7.09e-8 5.4096e-4 -2.126e-7 0.36908-2.9017e-4 0.66613-0.29751 0.66613-0.66667 0-1.8034e-4 -7.09e-8 -3.6066e-4 -2.126e-7 -5.4097e-4 -2.9017e-4 -0.36908-0.29751-0.66613-0.66667-0.66613h-9.7148e-4 -5.3324m0 4c-1.8034e-4 0-3.6066e-4 7.09e-8 -5.4096e-4 2.126e-7 -0.36908 2.9017e-4 -0.66613 0.29751-0.66613 0.66667 0 1.8034e-4 7.09e-8 3.6066e-4 2.126e-7 5.4096e-4 2.9017e-4 0.36908 0.29752 0.66613 0.66667 0.66613h5.3333c0.36933 0 0.66667-0.29733 0.66667-0.66667 0-1.8034e-4 -7.09e-8 -3.6066e-4 -2.126e-7 -5.4097e-4 -2.9017e-4 -0.36908-0.29751-0.66613-0.66667-0.66613h-9.7148e-4" color="#000000" fill-opacity=".0039216" opacity="1" style="paint-order:normal;text-decoration-line:none;text-indent:0;text-transform:none"/>
		<path d="m22.727 30.727v29.453h5.8096e-4 17.181l2.9048e-4 -2.9048e-4c0.049317-0.049317 8.5903-8.5903 8.5903-8.5903v-1.7659e-4 -20.863h-2.1815e-4 -25.771m1.8178 1.8178m0.63666 0.63666h5.4118 15.451v4.7756 13.633h-1.5919-4.5443v1.5919 4.5443h-3.8205-10.906v-6.3668-18.178m2.2722 2.7267m0.79583 0.95499c-0.088301 0-0.15941 0.070988-0.15953 0.15917-0.25159 1.978e-4 -0.45408 0.20281-0.45408 0.45445 0 0.088301 0.070988 0.15941 0.15917 0.15953 1.978e-4 0.25159 0.20281 0.45408 0.45445 0.45408h1.274 3.6349c0.088301 0 0.15941-0.070988 0.15953-0.15917 0.25159-1.978e-4 0.45408-0.20281 0.45408-0.45445 0-0.088301-0.070988-0.15941-0.15917-0.15953-1.978e-4 -0.25159-0.20281-0.45408-0.45445-0.45408h-1.274-3.6349m0 2.7267m0 0.95499c-0.088301 0-0.15941 0.070988-0.15953 0.15917-0.25159 1.978e-4 -0.45408 0.20281-0.45408 0.45445 0 0.088301 0.070988 0.15941 0.15917 0.15953 1.978e-4 0.25159 0.20281 0.45408 0.45445 0.45408h1.274 3.6349c0.088301 0 0.15941-0.070988 0.15953-0.15917 0.25159-1.978e-4 0.45408-0.20281 0.45408-0.45445 0-0.088301-0.070988-0.15941-0.15917-0.15953-1.978e-4 -0.25159-0.20281-0.45408-0.45445-0.45408h-1.274-3.6349m0 2.7267m0 0.95499c-0.088301 0-0.15941 0.070988-0.15953 0.15917-0.25159 1.978e-4 -0.45408 0.20281-0.45408 0.45445 0 0.088301 0.070988 0.15941 0.15917 0.15953 1.978e-4 0.25159 0.20288 0.45408 0.45468 0.45408h1.2731c8.6111e-5 0 3.6357-6.77e-8 3.6358-2.031e-7 0.088058-1.3846e-4 0.15891-0.071074 0.15891-0.15917 0.25176 0 0.45445-0.20268 0.45445-0.45445 0-0.088301-0.070988-0.15941-0.15917-0.15953-1.978e-4 -0.25159-0.20281-0.45408-0.45445-0.45408h-1.274" color="#000000" fill-opacity=".01266" opacity="1" style="paint-order:normal;text-decoration-line:none;text-indent:0;text-transform:none"/>
		<path d="m22.396 30.396v28.791h5.1045e-4 16.794l2.5522e-4 -2.5522e-4c0.043331-0.043331 8.3972-8.3972 8.3972-8.3972v-1.5516e-4 -20.394h-1.9167e-4 -25.192m1.5971 1.5971m0.80214 0.80214h6.8184 13.576v6.0166 11.978h-2.0055-3.9927v2.0055 3.9927h-4.8133-9.5824v-8.0216-15.971m1.9964 2.3957m1.0027 1.2032c-0.11121 0-0.20075 0.089439-0.20086 0.20054-0.22105 1.7379e-4 -0.39896 0.17819-0.39896 0.39928 0 0.11121 0.089439 0.20075 0.20054 0.20086 1.7379e-4 0.22105 0.17819 0.39896 0.39929 0.39896h1.6049 3.1937c0.11121 0 0.20075-0.089439 0.20086-0.20054 0.22105-1.7379e-4 0.39896-0.17819 0.39896-0.39929 0-0.11121-0.089439-0.20075-0.20054-0.20086-1.7379e-4 -0.22105-0.17819-0.39896-0.39928-0.39896h-1.6049-3.1937m0 2.3957m0 1.2032c-0.11121 0-0.20075 0.089439-0.20086 0.20054-0.22105 1.7379e-4 -0.39896 0.17819-0.39896 0.39929 0 0.11121 0.089439 0.20075 0.20054 0.20086 1.7379e-4 0.22105 0.17819 0.39896 0.39929 0.39896h1.6049 3.1937c0.11121 0 0.20075-0.089439 0.20086-0.20054 0.22105-1.7379e-4 0.39896-0.17819 0.39896-0.39928 0-0.11121-0.089439-0.20075-0.20054-0.20086-1.7379e-4 -0.22105-0.17819-0.39896-0.39928-0.39896h-1.6049-3.1937m0 2.3957m0 1.2032c-0.11121 0-0.20075 0.089439-0.20086 0.20054-0.22105 1.7379e-4 -0.39896 0.17819-0.39896 0.39929 0 0.11121 0.089439 0.20075 0.20054 0.20086 1.7379e-4 0.22105 0.17829 0.39896 0.39958 0.39896h1.604c1.0849e-4 0 3.1945-8.52e-8 3.1946-2.558e-7 0.11095-1.7445e-4 0.20021-0.089547 0.20021-0.20054 0.2212 0 0.39928-0.17808 0.39928-0.39928 0-0.11121-0.089439-0.20075-0.20054-0.20086-1.7379e-4 -0.22105-0.17819-0.39896-0.39928-0.39896h-1.6049" color="#000000" fill-opacity=".014931" opacity="1" style="paint-order:normal;text-decoration-line:none;text-indent:0;text-transform:none"/>
		<path d="m22.164 30.164v28.327h4.6098e-4 16.524s7.703e-5 -7.7031e-5 2.3049e-4 -2.3049e-4c0.039132-0.039132 8.2618-8.2618 8.2618-8.2618v-1.4012e-4 -20.065h-1.7309e-4 -24.786m1.4424 1.4424m0.91823 0.91823h7.8051 12.26v6.8872 10.817h-2.2957-3.6057v2.2957 3.6057h-5.5098-8.6538v-9.1824-14.423m1.803 2.1635m1.1478 1.3773c-0.12727 0-0.22975 0.10238-0.22985 0.22956-0.19963 1.5695e-4 -0.3603 0.16092-0.3603 0.36059 0 0.12727 0.10238 0.22975 0.22956 0.22985 1.5695e-4 0.19963 0.16092 0.3603 0.36059 0.3603h1.837 2.8842c0.12727 0 0.22975-0.10238 0.22985-0.22956 0.19963-1.5695e-4 0.3603-0.16092 0.3603-0.36059 0-0.12727-0.10238-0.22975-0.22956-0.22985-1.5695e-4 -0.19963-0.16092-0.3603-0.36059-0.3603h-1.837-2.8842m0 2.1635m0 1.3773c-0.12727 0-0.22975 0.10238-0.22985 0.22956-0.19963 1.5695e-4 -0.3603 0.16092-0.3603 0.36059 0 0.12727 0.10238 0.22975 0.22956 0.22985 1.5695e-4 0.19963 0.16092 0.3603 0.36059 0.3603h1.837 2.8842c0.12727 0 0.22975-0.10238 0.22985-0.22956 0.19963-1.5695e-4 0.3603-0.16092 0.3603-0.36059 0-0.12727-0.10238-0.22975-0.22956-0.22985-1.5695e-4 -0.19963-0.16092-0.3603-0.36059-0.3603h-1.837-2.8842m0 2.1635m0 1.3773c-0.12727 0-0.22975 0.10238-0.22985 0.22956-0.19963 1.5695e-4 -0.3603 0.16092-0.3603 0.36059 0 0.12727 0.10238 0.22975 0.22956 0.22985 1.5695e-4 0.19963 0.16103 0.3603 0.36093 0.3603h1.8361c1.2419e-4 0 2.885-9.77e-8 2.8851-2.929e-7 0.127-1.997e-4 0.22918-0.10251 0.22918-0.22956 0.19977 0 0.36059-0.16082 0.36059-0.36059 0-0.12727-0.10238-0.22975-0.22956-0.22985-1.5695e-4 -0.19963-0.16092-0.3603-0.36059-0.3603h-1.837" color="#000000" fill-opacity=".016525" opacity="1" style="paint-order:normal;text-decoration-line:none;text-indent:0;text-transform:none"/>
		<path d="m21.979 29.979v27.957h4.216e-4 16.308s7.045e-5 -7.045e-5 2.108e-4 -2.108e-4c0.035789-0.035789 8.154-8.154 8.154-8.154v-1.2815e-4 -19.803h-1.5831e-4 -24.463m1.3191 1.3191m1.0106 1.0106h8.5906 11.213v7.5802 9.8932h-2.5267-3.2977v2.5267 3.2977h-6.0642-7.9145v-10.107-13.191m1.6489 1.9787m1.2633 1.516c-0.14006 0-0.25284 0.11269-0.25293 0.25266-0.18258 1.4354e-4 -0.32952 0.14717-0.32952 0.32979 0 0.14006 0.11269 0.25284 0.25266 0.25293 1.4354e-4 0.18258 0.14717 0.32952 0.32979 0.32952h2.0218 2.6378c0.14006 0 0.25284-0.11269 0.25293-0.25266 0.18258-1.4354e-4 0.32952-0.14717 0.32952-0.32979 0-0.14006-0.11269-0.25284-0.25266-0.25293-1.4354e-4 -0.18258-0.14717-0.32952-0.32979-0.32952h-2.0218-2.6378m0 1.9787m0 1.516c-0.14006 0-0.25284 0.11269-0.25293 0.25266-0.18258 1.4354e-4 -0.32952 0.14717-0.32952 0.32979 0 0.14006 0.11269 0.25284 0.25266 0.25293 1.4354e-4 0.18258 0.14717 0.32952 0.32979 0.32952h2.0218 2.6378c0.14006 0 0.25284-0.11269 0.25293-0.25266 0.18258-1.4354e-4 0.32952-0.14717 0.32952-0.32979 0-0.14006-0.11269-0.25284-0.25266-0.25293-1.4354e-4 -0.18258-0.14717-0.32952-0.32979-0.32952h-2.0218-2.6378m0 1.9787m0 1.516c-0.14006 0-0.25284 0.11269-0.25293 0.25266-0.18258 1.4354e-4 -0.32952 0.14717-0.32952 0.32979 0 0.14006 0.11269 0.25284 0.25266 0.25293 1.4354e-4 0.18258 0.1473 0.32952 0.33016 0.32952h2.0209c1.3669e-4 0 2.6386-1.075e-7 2.6387-3.223e-7 0.13978-2.1979e-4 0.25225-0.11282 0.25225-0.25266 0.1827 0 0.32979-0.14708 0.32979-0.32979 0-0.14006-0.11269-0.25284-0.25266-0.25293-1.4354e-4 -0.18258-0.14717-0.32952-0.32979-0.32952h-2.0218" color="#000000" fill-opacity=".017793" opacity="1" style="paint-order:normal;text-decoration-line:none;text-indent:0;text-transform:none"/>
		<path d="m21.823 29.823v27.645h3.8834e-4 16.126s6.4893e-5 -6.4893e-5 1.9417e-4 -1.9417e-4c0.032966-0.032966 8.063-8.063 8.063-8.063v-1.1804e-4 -19.582h-1.4582e-4 -24.189m1.2151 1.2151m1.0887 1.0887h9.2539 10.328v8.1655 9.1128h-2.7218-3.0376v2.7218 3.0376h-6.5324-7.2902v-10.887-12.151m1.5189 1.8226m1.3608 1.633c-0.15086 0-0.27233 0.12139-0.27242 0.27217-0.16818 1.3222e-4 -0.30353 0.13557-0.30353 0.30377 0 0.15086 0.12139 0.27233 0.27217 0.27242 1.3222e-4 0.16818 0.13557 0.30353 0.30377 0.30353h2.1778 2.4297c0.15086 0 0.27233-0.12139 0.27242-0.27217 0.16818-1.3222e-4 0.30353-0.13557 0.30353-0.30377 0-0.15086-0.12139-0.27233-0.27217-0.27242-1.3222e-4 -0.16818-0.13557-0.30353-0.30377-0.30353h-2.1778-2.4297m0 1.8226m0 1.633c-0.15086 0-0.27233 0.12139-0.27242 0.27217-0.16818 1.3222e-4 -0.30353 0.13557-0.30353 0.30377 0 0.15086 0.12139 0.27233 0.27217 0.27242 1.3222e-4 0.16818 0.13557 0.30353 0.30377 0.30353h2.1778 2.4297c0.15086 0 0.27233-0.12139 0.27242-0.27217 0.16818-1.3222e-4 0.30353-0.13557 0.30353-0.30377 0-0.15086-0.12139-0.27233-0.27217-0.27242-1.3222e-4 -0.16818-0.13557-0.30353-0.30377-0.30353h-2.1778-2.4297m0 1.8226m0 1.633c-0.15086 0-0.27233 0.12139-0.27242 0.27217-0.16818 1.3222e-4 -0.30353 0.13557-0.30353 0.30377 0 0.15086 0.12139 0.27233 0.27217 0.27242 1.3222e-4 0.16818 0.1357 0.30353 0.30417 0.30353h2.177c1.4725e-4 0 2.4305-1.157e-7 2.4306-3.472e-7 0.15058-2.3677e-4 0.27173-0.12153 0.27173-0.27217 0.16829 0 0.30377-0.13548 0.30377-0.30377 0-0.15086-0.12139-0.27233-0.27217-0.27242-1.3222e-4 -0.16818-0.13557-0.30353-0.30377-0.30353h-2.1778" color="#000000" fill-opacity=".018864" opacity="1" style="paint-order:normal;text-decoration-line:none;text-indent:0;text-transform:none"/>
		<path d="m21.686 29.686v27.372h3.5928e-4 15.967l1.7964e-4 -1.7964e-4c0.030499-0.030499 7.9834-7.9834 7.9834-7.9834v-1.0921e-4 -19.389h-1.349e-4 -23.951m1.1241 1.1241m1.1569 1.1569h9.8337 9.5551v8.6771 8.4307h-2.8924-2.8102v2.8924 2.8102h-6.9417-6.7445v-11.569-11.241m1.4052 1.6862m1.4461 1.7353c-0.16031 0-0.28938 0.12899-0.28945 0.28922-0.15559 1.2232e-4 -0.28081 0.12542-0.28081 0.28104 0 0.16031 0.12899 0.28938 0.28922 0.28945 1.2232e-4 0.15559 0.12542 0.28081 0.28104 0.28081h2.3142 2.2479c0.16031 0 0.28938-0.12899 0.28945-0.28922 0.15559-1.2232e-4 0.28081-0.12542 0.28081-0.28104 0-0.16031-0.12899-0.28938-0.28922-0.28945-1.2232e-4 -0.15559-0.12542-0.28081-0.28104-0.28081h-2.3142-2.2479m0 1.6862m0 1.7353c-0.16031 0-0.28938 0.12899-0.28945 0.28922-0.15559 1.2232e-4 -0.28081 0.12542-0.28081 0.28104 0 0.16031 0.12899 0.28938 0.28922 0.28945 1.2232e-4 0.15559 0.12542 0.28081 0.28104 0.28081h2.3142 2.2479c0.16031 0 0.28938-0.12899 0.28945-0.28922 0.15559-1.2232e-4 0.28081-0.12542 0.28081-0.28104 0-0.16031-0.12899-0.28938-0.28922-0.28945-1.2232e-4 -0.15559-0.12542-0.28081-0.28104-0.28081h-2.3142-2.2479m0 1.6862m0 1.7353c-0.16031 0-0.28938 0.12899-0.28945 0.28922-0.15559 1.2232e-4 -0.28081 0.12542-0.28081 0.28104 0 0.16031 0.12899 0.28938 0.28922 0.28945 1.2232e-4 0.15559 0.12556 0.28081 0.28146 0.28081h2.3134c1.5647e-4 0 2.2486-1.23e-7 2.2488-3.69e-7 0.16001-2.516e-4 0.28875-0.12915 0.28875-0.28922 0.15569 0 0.28104-0.12534 0.28104-0.28104 0-0.16031-0.12899-0.28938-0.28922-0.28945-1.2232e-4 -0.15559-0.12542-0.28081-0.28104-0.28081h-2.3142" color="#000000" fill-opacity=".0198" opacity="1" style="paint-order:normal;text-decoration-line:none;text-indent:0;text-transform:none"/>
		<path d="m21.564 29.564v27.128h3.3328e-4 15.825l1.6664e-4 -1.6664e-4c0.028292-0.028292 7.9123-7.9123 7.9123-7.9123v-1.0131e-4 -19.216h-1.2514e-4 -23.737m1.0428 1.0428m1.2179 1.2179h10.352 8.8638v9.1345 7.8207h-3.0448-2.6069v3.0448 2.6069h-7.3076-6.2566v-12.179-10.428m1.3035 1.5642m1.5224 1.8268c-0.16875 0-0.30461 0.13579-0.30468 0.30447-0.14433 1.1347e-4 -0.26049 0.11634-0.26049 0.2607 0 0.16875 0.13579 0.30461 0.30447 0.30468 1.1347e-4 0.14433 0.11634 0.26049 0.2607 0.26049h2.4362 2.0852c0.16875 0 0.30461-0.13579 0.30468-0.30447 0.14433-1.1347e-4 0.26049-0.11634 0.26049-0.2607 0-0.16875-0.13579-0.30461-0.30447-0.30468-1.1347e-4 -0.14433-0.11634-0.26049-0.2607-0.26049h-2.4362-2.0852m0 1.5642m0 1.8268c-0.16875 0-0.30461 0.13579-0.30468 0.30447-0.14433 1.1347e-4 -0.26049 0.11634-0.26049 0.2607 0 0.16875 0.13579 0.30461 0.30447 0.30468 1.1347e-4 0.14433 0.11634 0.26049 0.2607 0.26049h2.4362 2.0852c0.16875 0 0.30461-0.13579 0.30468-0.30447 0.14433-1.1347e-4 0.26049-0.11634 0.26049-0.2607 0-0.16875-0.13579-0.30461-0.30447-0.30468-1.1347e-4 -0.14433-0.11634-0.26049-0.2607-0.26049h-2.4362-2.0852m0 1.5642m0 1.8268c-0.16875 0-0.30461 0.13579-0.30468 0.30447-0.14433 1.1347e-4 -0.26049 0.11634-0.26049 0.2607 0 0.16875 0.13579 0.30461 0.30447 0.30468 1.1347e-4 0.14433 0.11649 0.26049 0.26115 0.26049h2.4353c1.6472e-4 0 2.086-1.295e-7 2.0861-3.884e-7 0.16845-2.6487e-4 0.30398-0.13596 0.30398-0.30447 0.14443 0 0.2607-0.11627 0.2607-0.2607 0-0.16875-0.13579-0.30461-0.30447-0.30468-1.1347e-4 -0.14433-0.11634-0.26049-0.2607-0.26049h-2.4362" color="#000000" fill-opacity=".020638" opacity="1" style="paint-order:normal;text-decoration-line:none;text-indent:0;text-transform:none"/>
		<path d="m21.453 29.453v26.907h3.0966e-4 15.695l1.5483e-4 -1.5483e-4c0.026287-0.026287 7.8476-7.8476 7.8476-7.8476v-9.4127e-5 -19.059h-1.1627e-4 -23.543m0.9689 0.9689m1.2733 1.2733h10.823 8.2356v9.5503 7.2664h-3.1834-2.4221v3.1834 2.4221h-7.6402-5.8131v-12.733-9.6889m1.2111 1.4533m1.5917 1.91c-0.17642 0-0.31846 0.14198-0.31853 0.31833-0.1341 1.0543e-4 -0.24203 0.1081-0.24203 0.24222 0 0.17642 0.14198 0.31846 0.31833 0.31853 1.0543e-4 0.1341 0.1081 0.24203 0.24223 0.24203h2.547 1.9374c0.17642 0 0.31846-0.14198 0.31853-0.31833 0.1341-1.0543e-4 0.24203-0.1081 0.24203-0.24222 0-0.17642-0.14198-0.31846-0.31833-0.31853-1.0543e-4 -0.1341-0.1081-0.24203-0.24222-0.24203h-2.547-1.9374m0 1.4533m0 1.91c-0.17642 0-0.31846 0.14198-0.31853 0.31833-0.1341 1.0543e-4 -0.24203 0.1081-0.24203 0.24222 0 0.17642 0.14198 0.31846 0.31833 0.31853 1.0543e-4 0.1341 0.1081 0.24203 0.24223 0.24203h2.547 1.9374c0.17642 0 0.31846-0.14198 0.31853-0.31833 0.1341-1.0543e-4 0.24203-0.1081 0.24203-0.24222 0-0.17642-0.14198-0.31846-0.31833-0.31853-1.0543e-4 -0.1341-0.1081-0.24203-0.24222-0.24203h-2.547-1.9374m0 1.4533m0 1.91c-0.17642 0-0.31846 0.14198-0.31853 0.31833-0.1341 1.0543e-4 -0.24203 0.1081-0.24203 0.24222 0 0.17642 0.14198 0.31846 0.31833 0.31853 1.0543e-4 0.1341 0.10825 0.24203 0.24269 0.24203h2.5462c1.7222e-4 0 1.9381-1.354e-7 1.9383-4.061e-7 0.17612-2.7692e-4 0.31781-0.14215 0.31781-0.31833 0.13419 0 0.24222-0.10803 0.24222-0.24222 0-0.17642-0.14198-0.31846-0.31833-0.31853-1.0543e-4 -0.1341-0.1081-0.24203-0.24222-0.24203h-2.547" color="#000000" fill-opacity=".021399" opacity="1" style="paint-order:normal;text-decoration-line:none;text-indent:0;text-transform:none"/>
		<path d="m21.351 29.351v26.703h2.8793e-4 15.576s4.8114e-5 -4.8114e-5 1.4397e-4 -1.4397e-4c0.024442-0.024442 7.7882-7.7882 7.7882-7.7882v-8.7522e-5 -18.914h-1.0812e-4 -23.365m0.90092 0.90092m1.3243 1.3243h11.257 7.6577v9.9326 6.7566h-3.3109-2.2522v3.3109 2.2522h-7.9461-5.4053v-13.243-9.0091m1.1261 1.3514m1.6554 1.9865c-0.18348 0-0.3312 0.14766-0.33126 0.33108-0.12469 9.8032e-5 -0.22505 0.10051-0.22505 0.22523 0 0.18348 0.14766 0.3312 0.33108 0.33126 9.8032e-5 0.12469 0.10051 0.22505 0.22523 0.22505h2.649 1.8015c0.18348 0 0.3312-0.14766 0.33126-0.33108 0.12469-9.8032e-5 0.22505-0.10051 0.22505-0.22523 0-0.18348-0.14766-0.3312-0.33108-0.33126-9.8032e-5 -0.12469-0.10051-0.22505-0.22523-0.22505h-2.649-1.8015m0 1.3514m0 1.9865c-0.18348 0-0.3312 0.14766-0.33126 0.33108-0.12469 9.8032e-5 -0.22505 0.10051-0.22505 0.22523 0 0.18348 0.14766 0.3312 0.33108 0.33126 9.8032e-5 0.12469 0.10051 0.22505 0.22523 0.22505h2.649 1.8015c0.18348 0 0.3312-0.14766 0.33126-0.33108 0.12469-9.8032e-5 0.22505-0.10051 0.22505-0.22523 0-0.18348-0.14766-0.3312-0.33108-0.33126-9.8032e-5 -0.12469-0.10051-0.22505-0.22523-0.22505h-2.649-1.8015m0 1.3514m0 1.9865c-0.18348 0-0.3312 0.14766-0.33126 0.33108-0.12469 9.8032e-5 -0.22505 0.10051-0.22505 0.22523 0 0.18348 0.14766 0.3312 0.33108 0.33126 9.8032e-5 0.12469 0.10068 0.22505 0.22571 0.22505h2.6481c1.7912e-4 0 1.8022-1.408e-7 1.8024-4.223e-7 0.18317-2.8801e-4 0.33054-0.14784 0.33054-0.33108 0.12478 0 0.22523-0.10045 0.22523-0.22523 0-0.18348-0.14766-0.3312-0.33108-0.33126-9.8032e-5 -0.12469-0.10051-0.22505-0.22523-0.22505h-2.649" color="#000000" fill-opacity=".022098" opacity="1" style="paint-order:normal;text-decoration-line:none;text-indent:0;text-transform:none"/>
		<path d="m21.257 29.257v26.513h2.6776e-4 15.466s4.4743e-5 -4.4744e-5 1.3388e-4 -1.3388e-4c0.02273-0.02273 7.7329-7.7329 7.7329-7.7329v-8.1391e-5 -18.78h-1.0054e-4 -23.199m0.8378 0.8378m1.3716 1.3716h11.659 7.1212v10.288 6.2832h-3.4292-2.0944v3.4292 2.0944h-8.2301-5.0266v-13.717-8.3779m1.0473 1.2567m1.7146 2.0575c-0.19003 0-0.34303 0.15294-0.34308 0.34291-0.11596 9.1164e-5 -0.20928 0.093471-0.20928 0.20945 0 0.19003 0.15294 0.34303 0.34291 0.34308 9.1165e-5 0.11596 0.093472 0.20928 0.20945 0.20928h2.7436 1.6753c0.19003 0 0.34303-0.15294 0.34308-0.34291 0.11596-9.1164e-5 0.20928-0.093471 0.20928-0.20945 0-0.19003-0.15294-0.34303-0.34291-0.34308-9.1164e-5 -0.11596-0.093472-0.20928-0.20945-0.20928h-2.7436-1.6753m0 1.2567m0 2.0575c-0.19003 0-0.34303 0.15294-0.34308 0.34291-0.11596 9.1164e-5 -0.20928 0.093471-0.20928 0.20945 0 0.19003 0.15294 0.34303 0.34291 0.34308 9.1165e-5 0.11596 0.093472 0.20928 0.20945 0.20928h2.7436 1.6753c0.19003 0 0.34303-0.15294 0.34308-0.34291 0.11596-9.1164e-5 0.20928-0.093471 0.20928-0.20945 0-0.19003-0.15294-0.34303-0.34291-0.34308-9.1164e-5 -0.11596-0.093472-0.20928-0.20945-0.20928h-2.7436-1.6753m0 1.2567m0 2.0575c-0.19003 0-0.34303 0.15294-0.34308 0.34291-0.11596 9.1164e-5 -0.20928 0.093471-0.20928 0.20945 0 0.19003 0.15294 0.34303 0.34291 0.34308 9.1165e-5 0.11596 0.09364 0.20928 0.20995 0.20928h2.7428c1.8552e-4 0 1.676-1.458e-7 1.6762-4.374e-7 0.18972-2.9831e-4 0.34236-0.15312 0.34236-0.34291 0.11604 0 0.20945-0.093415 0.20945-0.20945 0-0.19003-0.15294-0.34303-0.34291-0.34308-9.1164e-5 -0.11596-0.093472-0.20928-0.20945-0.20928h-2.7436" color="#000000" fill-opacity=".022748" opacity="1" style="paint-order:normal;text-decoration-line:none;text-indent:0;text-transform:none"/>
		<path d="m21.168 29.168v26.336h2.4889e-4 15.363s4.1591e-5 -4.1591e-5 1.2445e-4 -1.2445e-4c0.021128-0.021128 7.6813-7.6813 7.6813-7.6813v-7.5656e-5 -18.655h-9.3457e-5 -23.044m0.77877 0.77877m1.4159 1.4159h12.035 6.6194v10.62 5.8405h-3.5399-1.9468v3.5399 1.9468h-8.4958-4.6724v-14.159-7.7876m0.97346 1.1681m1.7699 2.1239c-0.19616 0-0.35409 0.15788-0.35414 0.35398-0.10779 8.474e-5 -0.19453 0.086885-0.19453 0.19469 0 0.19616 0.15788 0.35409 0.35398 0.35414 8.4741e-5 0.10779 0.086886 0.19453 0.19469 0.19453h2.8321 1.5572c0.19616 0 0.35409-0.15788 0.35414-0.35398 0.10779-8.474e-5 0.19453-0.086885 0.19453-0.19469 0-0.19616-0.15788-0.35409-0.35398-0.35414-8.474e-5 -0.10779-0.086885-0.19453-0.19469-0.19453h-2.8321-1.5572m0 1.1681m0 2.1239c-0.19616 0-0.35409 0.15788-0.35414 0.35398-0.10779 8.474e-5 -0.19453 0.086885-0.19453 0.19469 0 0.19616 0.15788 0.35409 0.35398 0.35414 8.4741e-5 0.10779 0.086886 0.19453 0.19469 0.19453h2.8321 1.5572c0.19616 0 0.35409-0.15788 0.35414-0.35398 0.10779-8.474e-5 0.19453-0.086885 0.19453-0.19469 0-0.19616-0.15788-0.35409-0.35398-0.35414-8.474e-5 -0.10779-0.086885-0.19453-0.19469-0.19453h-2.8321-1.5572m0 1.1681m0 2.1239c-0.19616 0-0.35409 0.15788-0.35414 0.35398-0.10779 8.474e-5 -0.19453 0.086885-0.19453 0.19469 0 0.19616 0.15788 0.35409 0.35398 0.35414 8.4741e-5 0.10779 0.087058 0.19453 0.19521 0.19453h2.8313c1.9151e-4 0 1.5579-1.505e-7 1.5581-4.516e-7 0.19584-3.0794e-4 0.35341-0.15807 0.35341-0.35398 0.10786 0 0.19469-0.086832 0.19469-0.19469 0-0.19616-0.15788-0.35409-0.35398-0.35414-8.474e-5 -0.10779-0.086885-0.19453-0.19469-0.19453h-2.8321" color="#000000" fill-opacity=".023356" opacity="1" style="paint-order:normal;text-decoration-line:none;text-indent:0;text-transform:none"/>
		<path d="m21.085 29.085v26.17h2.3114e-4 15.265s3.8624e-5 -3.8624e-5 1.1557e-4 -1.1557e-4c0.019621-0.019621 7.6327-7.6327 7.6327-7.6327v-7.0258e-5 -18.537h-8.679e-5 -22.898m0.72321 0.72321m1.4576 1.4576h12.39 6.1472v10.932 5.4238h-3.6441-1.8079v3.6441 1.8079h-8.7458-4.3391v-14.576-7.232m0.90401 1.0848m1.822 2.1864c-0.20193 0-0.3645 0.16252-0.36455 0.3644-0.1001 7.8695e-5 -0.18066 0.080686-0.18066 0.1808 0 0.20193 0.16252 0.3645 0.3644 0.36455 7.8695e-5 0.1001 0.080687 0.18066 0.1808 0.18066h2.9155 1.4462c0.20193 0 0.3645-0.16252 0.36455-0.3644 0.1001-7.8695e-5 0.18066-0.080686 0.18066-0.1808 0-0.20193-0.16252-0.3645-0.3644-0.36455-7.8695e-5 -0.1001-0.080687-0.18066-0.1808-0.18066h-2.9155-1.4462m0 1.0848m0 2.1864c-0.20193 0-0.3645 0.16252-0.36455 0.3644-0.1001 7.8695e-5 -0.18066 0.080686-0.18066 0.1808 0 0.20193 0.16252 0.3645 0.3644 0.36455 7.8695e-5 0.1001 0.080687 0.18066 0.1808 0.18066h2.9155 1.4462c0.20193 0 0.3645-0.16252 0.36455-0.3644 0.1001-7.8695e-5 0.18066-0.080686 0.18066-0.1808 0-0.20193-0.16252-0.3645-0.3644-0.36455-7.8695e-5 -0.1001-0.080687-0.18066-0.1808-0.18066h-2.9155-1.4462m0 1.0848m0 2.1864c-0.20193 0-0.3645 0.16252-0.36455 0.3644-0.1001 7.8695e-5 -0.18066 0.080686-0.18066 0.1808 0 0.20193 0.16252 0.3645 0.3644 0.36455 7.8695e-5 0.1001 0.080865 0.18066 0.18133 0.18066h2.9147c1.9715e-4 0 1.4468-1.55e-7 1.447-4.649e-7 0.2016-3.17e-4 0.36381-0.16272 0.36381-0.3644 0.10016 0 0.1808-0.080638 0.1808-0.1808 0-0.20193-0.16252-0.3645-0.3644-0.36455-7.8695e-5 -0.1001-0.080687-0.18066-0.1808-0.18066h-2.9155" color="#000000" fill-opacity=".023928" opacity="1" style="paint-order:normal;text-decoration-line:none;text-indent:0;text-transform:none"/>
		<path d="m21.006 29.006v26.012h2.1434e-4 15.173l1.0717e-4 -1.0717e-4c0.018195-0.018195 7.5867-7.5867 7.5867-7.5867v-6.5153e-5 -18.425h-8.0483e-5 -22.76m0.67066 0.67066m1.497 1.497h12.725 5.7005v11.228 5.0297h-3.7426-1.6766v3.7426 1.6766h-8.9822-4.0238v-14.97-6.7065m0.83832 1.006m1.8713 2.2455c-0.20738 0-0.37434 0.16692-0.37439 0.37425-0.092823 7.2976e-5 -0.16753 0.074823-0.16753 0.16766 0 0.20738 0.16692 0.37434 0.37425 0.37439 7.2977e-5 0.092823 0.074824 0.16753 0.16766 0.16753h2.9943 1.3411c0.20738 0 0.37434-0.16692 0.37439-0.37425 0.092823-7.2976e-5 0.16753-0.074823 0.16753-0.16766 0-0.20738-0.16692-0.37434-0.37425-0.37439-7.2977e-5 -0.092823-0.074824-0.16753-0.16766-0.16753h-2.9943-1.3411m0 1.006m0 2.2455c-0.20738 0-0.37434 0.16692-0.37439 0.37425-0.092823 7.2976e-5 -0.16753 0.074823-0.16753 0.16766 0 0.20738 0.16692 0.37434 0.37425 0.37439 7.2977e-5 0.092823 0.074824 0.16753 0.16766 0.16753h2.9943 1.3411c0.20738 0 0.37434-0.16692 0.37439-0.37425 0.092823-7.2976e-5 0.16753-0.074823 0.16753-0.16766 0-0.20738-0.16692-0.37434-0.37425-0.37439-7.2977e-5 -0.092823-0.074824-0.16753-0.16766-0.16753h-2.9943-1.3411m0 1.006m0 2.2455c-0.20738 0-0.37434 0.16692-0.37439 0.37425-0.092823 7.2976e-5 -0.16753 0.074823-0.16753 0.16766 0 0.20738 0.16692 0.37434 0.37425 0.37439 7.2977e-5 0.092823 0.075007 0.16753 0.16821 0.16753h2.9935c2.0248e-4 0 1.3417-1.592e-7 1.3419-4.775e-7 0.20705-3.2557e-4 0.37364-0.16712 0.37364-0.37425 0.092886 0 0.16766-0.074778 0.16766-0.16766 0-0.20738-0.16692-0.37434-0.37425-0.37439-7.2977e-5 -0.092823-0.074824-0.16753-0.16766-0.16753h-2.9943" color="#000000" fill-opacity=".024469" opacity="1" style="paint-order:normal;text-decoration-line:none;text-indent:0;text-transform:none"/>
		<path d="m20.931 28.931v25.862h1.9839e-4 15.086l9.9194e-5 -9.9194e-5c0.016841-0.016841 7.543-7.543 7.543-7.543v-6.0303e-5 -18.319h-7.4492e-5 -22.629m0.62074 0.62074m1.5344 1.5344h13.043 5.2762v11.509 4.6553h-3.8362-1.5518v3.8362 1.5518h-9.2069-3.7242v-15.345-6.2073m0.77592 0.9311m1.9181 2.3017c-0.21256 0-0.3837 0.17109-0.38374 0.38361-0.085914 6.7544e-5 -0.15506 0.069254-0.15506 0.15518 0 0.21256 0.17109 0.3837 0.38361 0.38374 6.7545e-5 0.085914 0.069254 0.15506 0.15518 0.15506h3.0691 1.2412c0.21256 0 0.3837-0.17109 0.38374-0.38361 0.085913-6.7544e-5 0.15506-0.069254 0.15506-0.15518 0-0.21256-0.17109-0.3837-0.38361-0.38374-6.7545e-5 -0.085914-0.069254-0.15506-0.15518-0.15506h-3.0691-1.2412m0 0.9311m0 2.3017c-0.21256 0-0.3837 0.17109-0.38374 0.38361-0.085914 6.7544e-5 -0.15506 0.069254-0.15506 0.15518 0 0.21256 0.17109 0.3837 0.38361 0.38374 6.7545e-5 0.085914 0.069254 0.15506 0.15518 0.15506h3.0691 1.2412c0.21256 0 0.3837-0.17109 0.38374-0.38361 0.085913-6.7544e-5 0.15506-0.069254 0.15506-0.15518 0-0.21256-0.17109-0.3837-0.38361-0.38374-6.7545e-5 -0.085914-0.069254-0.15506-0.15518-0.15506h-3.0691-1.2412m0 0.9311m0 2.3017c-0.21256 0-0.3837 0.17109-0.38374 0.38361-0.085914 6.7544e-5 -0.15506 0.069254-0.15506 0.15518 0 0.21256 0.17109 0.3837 0.38361 0.38374 6.7545e-5 0.085914 0.069442 0.15506 0.15574 0.15506h3.0683c2.0754e-4 0 1.2419-1.632e-7 1.2421-4.894e-7 0.21223-3.3371e-4 0.38299-0.1713 0.38299-0.38361 0.085972 0 0.15518-0.069212 0.15518-0.15518 0-0.21256-0.17109-0.3837-0.38361-0.38374-6.7545e-5 -0.085914-0.069254-0.15506-0.15518-0.15506h-3.0691" color="#000000" fill-opacity=".024983" opacity="1" style="paint-order:normal;text-decoration-line:none;text-indent:0;text-transform:none"/>
		<path d="m20.86 28.86v25.719h1.8318e-4 15.003l9.1588e-5 -9.1588e-5c0.01555-0.01555 7.5014-7.5014 7.5014-7.5014v-5.568e-5 -18.218h-6.878e-5 -22.504m0.57314 0.57314m1.5701 1.5701h13.346 4.8716v11.776 4.2984h-3.9254-1.4328v3.9254 1.4328h-9.421-3.4387v-15.702-5.7313m0.71642 0.85971m1.9627 2.3552c-0.2175 0-0.39261 0.17507-0.39265 0.39254-0.079326 6.2365e-5 -0.14317 0.063944-0.14317 0.14328 0 0.2175 0.17507 0.39261 0.39254 0.39265 6.2366e-5 0.079326 0.063944 0.14317 0.14329 0.14317h3.1405 1.1461c0.2175 0 0.39261-0.17507 0.39265-0.39254 0.079326-6.2365e-5 0.14317-0.063944 0.14317-0.14328 0-0.2175-0.17507-0.39261-0.39254-0.39265-6.2366e-5 -0.079326-0.063944-0.14317-0.14328-0.14317h-3.1405-1.1461m0 0.85971m0 2.3552c-0.2175 0-0.39261 0.17507-0.39265 0.39254-0.079326 6.2365e-5 -0.14317 0.063944-0.14317 0.14328 0 0.2175 0.17507 0.39261 0.39254 0.39265 6.2366e-5 0.079326 0.063944 0.14317 0.14329 0.14317h3.1405 1.1461c0.2175 0 0.39261-0.17507 0.39265-0.39254 0.079326-6.2365e-5 0.14317-0.063944 0.14317-0.14328 0-0.2175-0.17507-0.39261-0.39254-0.39265-6.2366e-5 -0.079326-0.063944-0.14317-0.14328-0.14317h-3.1405-1.1461m0 0.85971m0 2.3552c-0.2175 0-0.39261 0.17507-0.39265 0.39254-0.079326 6.2365e-5 -0.14317 0.063944-0.14317 0.14328 0 0.2175 0.17507 0.39261 0.39254 0.39265 6.2366e-5 0.079326 0.064136 0.14317 0.14386 0.14317h3.1397c2.1237e-4 0 1.1467-1.669e-7 1.1469-5.007e-7 0.21717-3.4148e-4 0.3919-0.17528 0.3919-0.39254 0.07938 0 0.14328-0.063905 0.14328-0.14328 0-0.2175-0.17507-0.39261-0.39254-0.39265-6.2366e-5 -0.079326-0.063944-0.14317-0.14328-0.14317h-3.1405" color="#000000" fill-opacity=".025473" opacity="1" style="paint-order:normal;text-decoration-line:none;text-indent:0;text-transform:none"/>
		<path d="m20.791 28.791v25.583h1.6863e-4 14.923s2.8178e-5 -2.8178e-5 8.4313e-5 -8.4313e-5c0.014314-0.014314 7.4616-7.4616 7.4616-7.4616v-5.1257e-5 -18.121h-6.3317e-5 -22.385m0.52761 0.52761m1.6043 1.6043h13.637 4.4847v12.032 3.9569h-4.0108-1.319v4.0108 1.319h-9.6259-3.1655v-16.043-5.2761m0.65952 0.79142m2.0054 2.4064c-0.22223 0-0.40114 0.17888-0.40118 0.40107-0.073025 5.7411e-5 -0.1318 0.058865-0.1318 0.1319 0 0.22223 0.17888 0.40114 0.40107 0.40118 5.7412e-5 0.073025 0.058865 0.1318 0.1319 0.1318h3.2088 1.055c0.22223 0 0.40114-0.17888 0.40118-0.40107 0.073025-5.7411e-5 0.1318-0.058865 0.1318-0.1319 0-0.22223-0.17888-0.40114-0.40107-0.40118-5.7412e-5 -0.073025-0.058865-0.1318-0.1319-0.1318h-3.2088-1.055m0 0.79142m0 2.4064c-0.22223 0-0.40114 0.17888-0.40118 0.40107-0.073025 5.7411e-5 -0.1318 0.058865-0.1318 0.1319 0 0.22223 0.17888 0.40114 0.40107 0.40118 5.7412e-5 0.073025 0.058865 0.1318 0.1319 0.1318h3.2088 1.055c0.22223 0 0.40114-0.17888 0.40118-0.40107 0.073025-5.7411e-5 0.1318-0.058865 0.1318-0.1319 0-0.22223-0.17888-0.40114-0.40107-0.40118-5.7412e-5 -0.073025-0.058865-0.1318-0.1319-0.1318h-3.2088-1.055m0 0.79142m0 2.4064c-0.22223 0-0.40114 0.17888-0.40118 0.40107-0.073025 5.7411e-5 -0.1318 0.058865-0.1318 0.1319 0 0.22223 0.17888 0.40114 0.40107 0.40118 5.7412e-5 0.073025 0.059061 0.1318 0.13249 0.1318h3.208c2.1699e-4 0 1.0557-1.706e-7 1.0559-5.117e-7 0.22189-3.489e-4 0.40042-0.17909 0.40042-0.40107 0.073074 0 0.1319-0.058829 0.1319-0.1319 0-0.22223-0.17888-0.40114-0.40107-0.40118-5.7412e-5 -0.073025-0.058865-0.1318-0.1319-0.1318h-3.2088" color="#000000" fill-opacity=".025941" opacity="1" style="paint-order:normal;text-decoration-line:none;text-indent:0;text-transform:none"/>
		<path d="m20.726 28.726v25.452h1.5467e-4 14.847l7.7335e-5 -7.7335e-5c0.01313-0.01313 7.4234-7.4234 7.4234-7.4234v-4.7015e-5 -18.028h-5.8077e-5 -22.27m0.48395 0.48395m1.637 1.637h13.915 4.1135v12.278 3.6294h-4.0927-1.2098v4.0927 1.2098h-9.8224-2.9036v-16.37-4.8394m0.60493 0.72592m2.0463 2.4556c-0.22676 0-0.40933 0.18253-0.40936 0.40926-0.066981 5.266e-5 -0.12089 0.053993-0.12089 0.12099 0 0.22676 0.18253 0.40933 0.40926 0.40936 5.266e-5 0.066981 0.053993 0.12089 0.12099 0.12089h3.2743 0.96772c0.22676 0 0.40933-0.18253 0.40936-0.40926 0.066981-5.266e-5 0.12089-0.053993 0.12089-0.12099 0-0.22676-0.18253-0.40933-0.40926-0.40936-5.266e-5 -0.066981-0.053993-0.12089-0.12099-0.12089h-3.2743-0.96772m0 0.72592m0 2.4556c-0.22676 0-0.40933 0.18253-0.40936 0.40926-0.066981 5.266e-5 -0.12089 0.053993-0.12089 0.12099 0 0.22676 0.18253 0.40933 0.40926 0.40936 5.266e-5 0.066981 0.053993 0.12089 0.12099 0.12089h3.2743 0.96772c0.22676 0 0.40933-0.18253 0.40936-0.40926 0.066981-5.266e-5 0.12089-0.053993 0.12089-0.12099 0-0.22676-0.18253-0.40933-0.40926-0.40936-5.266e-5 -0.066981-0.053993-0.12089-0.12099-0.12089h-3.2743-0.96772m0 0.72592m0 2.4556c-0.22676 0-0.40933 0.18253-0.40936 0.40926-0.066981 5.266e-5 -0.12089 0.053993-0.12089 0.12099 0 0.22676 0.18253 0.40933 0.40926 0.40936 5.266e-5 0.066981 0.054193 0.12089 0.12158 0.12089h3.2735c2.2142e-4 0 0.96834-1.741e-7 0.96856-5.221e-7 0.22642-3.5602e-4 0.4086-0.18275 0.4086-0.40926 0.067027 0 0.12099-0.05396 0.12099-0.12099 0-0.22676-0.18253-0.40933-0.40926-0.40936-5.266e-5 -0.066981-0.053993-0.12089-0.12099-0.12089h-3.2743" color="#000000" fill-opacity=".026391" opacity="1" style="paint-order:normal;text-decoration-line:none;text-indent:0;text-transform:none"/>
		<path d="m20.663 28.663v25.326h1.4125e-4 14.773s2.3603e-5 -2.3603e-5 7.0626e-5 -7.0626e-5c0.011991-0.011991 7.3866-7.3866 7.3866-7.3866v-4.2936e-5 -17.939h-5.3038e-5 -22.16m0.44196 0.44196m1.6685 1.6685h14.183 3.7566v12.514 3.3146h-4.1714-1.1049v4.1714 1.1049h-10.011-2.6517v-16.685-4.4196m0.55245 0.66294m2.0857 2.5028c-0.23112 0-0.41719 0.18604-0.41722 0.41713-0.06117 4.8091e-5 -0.1104 0.049309-0.1104 0.11049 0 0.23112 0.18604 0.41719 0.41713 0.41722 4.8092e-5 0.06117 0.049309 0.1104 0.11049 0.1104h3.3372 0.88376c0.23112 0 0.41719-0.18604 0.41722-0.41713 0.06117-4.8091e-5 0.1104-0.049309 0.1104-0.11049 0-0.23112-0.18604-0.41719-0.41713-0.41722-4.8092e-5 -0.06117-0.049309-0.1104-0.11049-0.1104h-3.3372-0.88376m0 0.66294m0 2.5028c-0.23112 0-0.41719 0.18604-0.41722 0.41713-0.06117 4.8091e-5 -0.1104 0.049309-0.1104 0.11049 0 0.23112 0.18604 0.41719 0.41713 0.41722 4.8092e-5 0.06117 0.049309 0.1104 0.11049 0.1104h3.3372 0.88376c0.23112 0 0.41719-0.18604 0.41722-0.41713 0.06117-4.8091e-5 0.1104-0.049309 0.1104-0.11049 0-0.23112-0.18604-0.41719-0.41713-0.41722-4.8092e-5 -0.06117-0.049309-0.1104-0.11049-0.1104h-3.3372-0.88376m0 0.66294m0 2.5028c-0.23112 0-0.41719 0.18604-0.41722 0.41713-0.06117 4.8091e-5 -0.1104 0.049309-0.1104 0.11049 0 0.23112 0.18604 0.41719 0.41713 0.41722 4.8092e-5 0.06117 0.049513 0.1104 0.1111 0.1104h3.3364c2.2568e-4 0 0.88438-1.775e-7 0.8846-5.322e-7 0.23078-3.6287e-4 0.41646-0.18627 0.41646-0.41713 0.061212 0 0.11049-0.049279 0.11049-0.11049 0-0.23112-0.18604-0.41719-0.41713-0.41722-4.8092e-5 -0.06117-0.049309-0.1104-0.11049-0.1104h-3.3372" color="#000000" fill-opacity=".026823" opacity="1" style="paint-order:normal;text-decoration-line:none;text-indent:0;text-transform:none"/>
		<path d="m20.602 28.602v25.205h1.2832e-4 14.703s2.1443e-5 -2.1443e-5 6.416e-5 -6.416e-5c0.010893-0.010893 7.3513-7.3513 7.3513-7.3513v-3.9005e-5 -17.853h-4.8183e-5 -22.054m0.4015 0.4015m1.6989 1.6989h14.44 3.4127v12.742 3.0111h-4.2472-1.0037v4.2472 1.0037h-10.193-2.4089v-16.989-4.015m0.50188 0.60226m2.1236 2.5483c-0.23532 0-0.42477 0.18942-0.4248 0.42472-0.055571 4.3689e-5 -0.10029 0.044795-0.10029 0.10038 0 0.23532 0.18942 0.42477 0.42472 0.4248 4.3689e-5 0.055571 0.044795 0.10029 0.10038 0.10029h3.3979 0.80286c0.23532 0 0.42477-0.18942 0.4248-0.42472 0.05557-4.3689e-5 0.10029-0.044795 0.10029-0.10038 0-0.23532-0.18942-0.42477-0.42472-0.4248-4.3689e-5 -0.055571-0.044795-0.10029-0.10038-0.10029h-3.3979-0.80286m0 0.60226m0 2.5483c-0.23532 0-0.42477 0.18942-0.4248 0.42472-0.055571 4.3689e-5 -0.10029 0.044795-0.10029 0.10038 0 0.23532 0.18942 0.42477 0.42472 0.4248 4.3689e-5 0.055571 0.044795 0.10029 0.10038 0.10029h3.3979 0.80286c0.23532 0 0.42477-0.18942 0.4248-0.42472 0.05557-4.3689e-5 0.10029-0.044795 0.10029-0.10038 0-0.23532-0.18942-0.42477-0.42472-0.4248-4.3689e-5 -0.055571-0.044795-0.10029-0.10038-0.10029h-3.3979-0.80286m0 0.60226m0 2.5483c-0.23532 0-0.42477 0.18942-0.4248 0.42472-0.055571 4.3689e-5 -0.10029 0.044795-0.10029 0.10038 0 0.23532 0.18942 0.42477 0.42472 0.4248 4.3689e-5 0.055571 0.045002 0.10029 0.101 0.10029h3.3971c2.2978e-4 0 0.80347-1.806e-7 0.8037-5.418e-7 0.23497-3.6947e-4 0.42403-0.18965 0.42403-0.42472 0.055608 0 0.10038-0.044768 0.10038-0.10038 0-0.23532-0.18942-0.42477-0.42472-0.4248-4.3689e-5 -0.055571-0.044795-0.10029-0.10038-0.10029h-3.3979" color="#000000" fill-opacity=".027239" opacity="1" style="paint-order:normal;text-decoration-line:none;text-indent:0;text-transform:none"/>
		<path d="m20.544 28.544v25.087h1.1584e-4 14.634s1.9356e-5 -1.9356e-5 5.7918e-5 -5.7918e-5c0.0098332-0.0098332 7.3171-7.3171 7.3171-7.3171v-3.521e-5 -17.77h-4.3495e-5 -21.951m0.36244 0.36244m1.7282 1.7282h14.689 3.0807v12.961 2.7182h-4.3205-0.90606v4.3205 0.90606h-10.369-2.1746v-17.282-3.6244m0.45305 0.54366m2.1602 2.5923c-0.23938 0-0.43209 0.19269-0.43212 0.43204-0.050164 3.9438e-5 -0.090537 0.040437-0.090537 0.09061 0 0.23938 0.19269 0.43209 0.43204 0.43212 3.9439e-5 0.050164 0.040437 0.090537 0.090611 0.090537h3.4565 0.72475c0.23938 0 0.43209-0.19269 0.43212-0.43204 0.050164-3.9438e-5 0.090537-0.040437 0.090537-0.090611 0-0.23938-0.19269-0.43209-0.43204-0.43212-3.9439e-5 -0.050164-0.040437-0.090537-0.09061-0.090537h-3.4565-0.72475m0 0.54366m0 2.5923c-0.23938 0-0.43209 0.19269-0.43212 0.43204-0.050164 3.9438e-5 -0.090537 0.040437-0.090537 0.090611 0 0.23938 0.19269 0.43209 0.43204 0.43212 3.9439e-5 0.050164 0.040437 0.090537 0.090611 0.090537h3.4565 0.72475c0.23938 0 0.43209-0.19269 0.43212-0.43204 0.050164-3.9438e-5 0.090537-0.040437 0.090537-0.09061 0-0.23938-0.19269-0.43209-0.43204-0.43212-3.9439e-5 -0.050164-0.040437-0.090537-0.09061-0.090537h-3.4565-0.72475m0 0.54366m0 2.5923c-0.23938 0-0.43209 0.19269-0.43212 0.43204-0.050164 3.9438e-5 -0.090537 0.040437-0.090537 0.090611 0 0.23938 0.19269 0.43209 0.43204 0.43212 3.9439e-5 0.050164 0.040648 0.090537 0.09124 0.090537h3.4557c2.3374e-4 0 0.72535-1.837e-7 0.72559-5.511e-7 0.23903-3.7584e-4 0.43134-0.19292 0.43134-0.43204 0.050198 0 0.09061-0.040412 0.09061-0.09061 0-0.23938-0.19269-0.43209-0.43204-0.43212-3.9439e-5 -0.050164-0.040437-0.090537-0.09061-0.090537h-3.4565" color="#000000" fill-opacity=".027642" opacity="1" style="paint-order:normal;text-decoration-line:none;text-indent:0;text-transform:none"/>
		<path d="m20.487 28.487v24.974h1.0376e-4 14.568l5.1881e-5 -5.1881e-5c0.0088082-0.0088082 7.284-7.284 7.284-7.284v-3.154e-5 -17.69h-3.8961e-5 -21.852m0.32466 0.32466m1.7565 1.7565h14.93 2.7596v13.174 2.4348h-4.3913-0.81162v4.3913 0.81162h-10.539-1.9479v-17.565-3.2466m0.40583 0.48699m2.1956 2.6348c-0.2433 0-0.43917 0.19585-0.43919 0.43913-0.044935 3.5328e-5 -0.0811 0.036222-0.0811 0.081165 0 0.2433 0.19585 0.43917 0.43913 0.43919 3.5328e-5 0.044935 0.036222 0.081099 0.081165 0.081099h3.5131 0.6492c0.2433 0 0.43917-0.19585 0.43919-0.43913 0.044935-3.5328e-5 0.081099-0.036222 0.081099-0.081165 0-0.2433-0.19585-0.43917-0.43913-0.43919-3.5328e-5 -0.044935-0.036222-0.081099-0.081165-0.081099h-3.5131-0.6492m0 0.48699m0 2.6348c-0.2433 0-0.43917 0.19585-0.43919 0.43913-0.044935 3.5328e-5 -0.0811 0.036222-0.0811 0.081165 0 0.2433 0.19585 0.43917 0.43913 0.43919 3.5328e-5 0.044935 0.036222 0.081099 0.081165 0.081099h3.5131 0.6492c0.2433 0 0.43917-0.19585 0.43919-0.43913 0.044935-3.5328e-5 0.081099-0.036222 0.081099-0.081165 0-0.2433-0.19585-0.43917-0.43913-0.43919-3.5328e-5 -0.044935-0.036222-0.081099-0.081165-0.081099h-3.5131-0.6492m0 0.48699m0 2.6348c-0.2433 0-0.43917 0.19585-0.43919 0.43913-0.044935 3.5327e-5 -0.0811 0.036222-0.0811 0.081165 0 0.2433 0.19585 0.43917 0.43913 0.43919 3.5328e-5 0.044935 0.036436 0.081099 0.081805 0.081099h3.5124c2.3757e-4 0 0.6498-1.868e-7 0.65003-5.602e-7 0.24295-3.82e-4 0.43841-0.19609 0.43841-0.43913 0.044965 0 0.081165-0.0362 0.081165-0.081165 0-0.2433-0.19585-0.43917-0.43913-0.43919-3.5328e-5 -0.044935-0.036222-0.081099-0.081165-0.081099h-3.5131" color="#000000" fill-opacity=".02803" opacity="1" style="paint-order:normal;text-decoration-line:none;text-indent:0;text-transform:none"/>
		<path d="m20.432 28.432v24.864h9.2064e-5 14.504l4.6032e-5 -4.6032e-5c0.0078153-0.0078153 7.252-7.252 7.252-7.252v-2.7985e-5 -17.612h-3.4569e-5 -21.756m0.28806 0.28806m1.784 1.784h15.164 2.4485v13.38 2.1604h-4.4599-0.72012v4.4599 0.72012h-10.704-1.7283v-17.84-2.8806m0.36008 0.43209m2.2299 2.6759c-0.2471 0-0.44603 0.19891-0.44605 0.44599-0.039869 3.1345e-5 -0.071957 0.032138-0.071957 0.072015 0 0.2471 0.19891 0.44603 0.44599 0.44605 3.1345e-5 0.039869 0.032138 0.071957 0.072015 0.071957h3.568 0.57602c0.2471 0 0.44603-0.19891 0.44605-0.44599 0.039869-3.1345e-5 0.071957-0.032138 0.071957-0.072015 0-0.2471-0.19891-0.44603-0.44599-0.44605-3.1345e-5 -0.039869-0.032138-0.071957-0.072015-0.071957h-3.568-0.57602m0 0.43209m0 2.6759c-0.2471 0-0.44603 0.19891-0.44605 0.44599-0.039869 3.1345e-5 -0.071957 0.032138-0.071957 0.072015 0 0.2471 0.19891 0.44603 0.44599 0.44605 3.1345e-5 0.039869 0.032138 0.071957 0.072015 0.071957h3.568 0.57602c0.2471 0 0.44603-0.19891 0.44605-0.44599 0.039869-3.1345e-5 0.071957-0.032138 0.071957-0.072015 0-0.2471-0.19891-0.44603-0.44599-0.44605-3.1345e-5 -0.039869-0.032138-0.071957-0.072015-0.071957h-3.568-0.57602m0 0.43209m0 2.6759c-0.2471 0-0.44603 0.19891-0.44605 0.44599-0.039869 3.1345e-5 -0.071957 0.032138-0.071957 0.072015 0 0.2471 0.19891 0.44603 0.44599 0.44605 3.1345e-5 0.039869 0.032356 0.071957 0.072665 0.071957h3.5673c2.4129e-4 0 0.57661-1.897e-7 0.57685-5.69e-7 0.24674-3.8797e-4 0.44526-0.19915 0.44526-0.44599 0.039896 0 0.072015-0.032119 0.072015-0.072015 0-0.2471-0.19891-0.44603-0.44599-0.44605-3.1345e-5 -0.039869-0.032138-0.071957-0.072015-0.071957h-3.568" color="#000000" fill-opacity=".028407" opacity="1" style="paint-order:normal;text-decoration-line:none;text-indent:0;text-transform:none"/>
		<path d="m20.379 28.379v24.758h8.0716e-5 14.442l4.0358e-5 -4.0358e-5c0.0068519-0.0068519 7.2209-7.2209 7.2209-7.2209v-2.4535e-5 -17.537h-3.0308e-5 -21.663m0.25255 0.25255m1.8106 1.8106h15.39 2.1467v13.579 1.8941h-4.5265-0.63136v4.5265 0.63136h-10.864-1.5153v-18.106-2.5255m0.31569 0.37883m2.2632 2.7159c-0.25078 0-0.45268 0.20188-0.4527 0.45265-0.034955 2.7481e-5 -0.063088 0.028177-0.063088 0.063139 0 0.25078 0.20188 0.45268 0.45265 0.4527 2.7482e-5 0.034955 0.028177 0.063087 0.063139 0.063087h3.6213 0.50502c0.25078 0 0.45268-0.20188 0.4527-0.45265 0.034955-2.7481e-5 0.063087-0.028177 0.063087-0.063139 0-0.25078-0.20188-0.45268-0.45265-0.4527-2.7481e-5 -0.034955-0.028177-0.063087-0.063139-0.063087h-3.6213-0.50502m0 0.37883m0 2.7159c-0.25078 0-0.45268 0.20188-0.4527 0.45265-0.034955 2.7481e-5 -0.063088 0.028177-0.063088 0.063139 0 0.25078 0.20188 0.45268 0.45265 0.4527 2.7482e-5 0.034955 0.028177 0.063087 0.063139 0.063087h3.6213 0.50502c0.25078 0 0.45268-0.20188 0.4527-0.45265 0.034955-2.7481e-5 0.063087-0.028177 0.063087-0.063139 0-0.25078-0.20188-0.45268-0.45265-0.4527-2.7481e-5 -0.034955-0.028177-0.063087-0.063139-0.063087h-3.6213-0.50502m0 0.37883m0 2.7159c-0.25078 0-0.45268 0.20188-0.4527 0.45265-0.034955 2.7481e-5 -0.063088 0.028177-0.063088 0.063139 0 0.25078 0.20188 0.45268 0.45265 0.4527 2.7482e-5 0.034955 0.028398 0.063087 0.063798 0.063087h3.6205c2.4489e-4 0 0.5056-1.926e-7 0.50584-5.775e-7 0.25043-3.9377e-4 0.45191-0.20212 0.45191-0.45265 0.034979 0 0.063139-0.02816 0.063139-0.063139 0-0.25078-0.20188-0.45268-0.45265-0.4527-2.7481e-5 -0.034955-0.028177-0.063087-0.063139-0.063087h-3.6213" color="#000000" fill-opacity=".028773" opacity="1" style="paint-order:normal;text-decoration-line:none;text-indent:0;text-transform:none"/>
		<path d="m20.327 28.327v24.654h6.9693e-5 14.382l3.4846e-5 -3.4846e-5c0.0059162-0.0059162 7.1908-7.1908 7.1908-7.1908v-2.1184e-5 -17.463h-2.6169e-5 -21.572m0.21806 0.21806m1.8365 1.8365h15.61 1.8535v13.773 1.6354h-4.5912-0.54513v4.5912 0.54513h-11.019-1.3083v-18.365-2.1806m0.27258 0.32709m2.2956 2.7547c-0.25436 0-0.45914 0.20476-0.45916 0.45911-0.030181 2.3728e-5 -0.054472 0.024329-0.054472 0.054516 0 0.25436 0.20476 0.45914 0.45911 0.45916 2.3728e-5 0.030181 0.024329 0.054471 0.054516 0.054471h3.673 0.43605c0.25436 0 0.45914-0.20476 0.45916-0.45911 0.030181-2.3728e-5 0.054471-0.024329 0.054471-0.054516 0-0.25436-0.20476-0.45914-0.45911-0.45916-2.3728e-5 -0.030181-0.024329-0.054471-0.054516-0.054471h-3.673-0.43605m0 0.32709m0 2.7547c-0.25436 0-0.45914 0.20476-0.45916 0.45911-0.030181 2.3728e-5 -0.054472 0.024329-0.054472 0.054516 0 0.25436 0.20476 0.45914 0.45911 0.45916 2.3728e-5 0.030181 0.024329 0.054471 0.054516 0.054471h3.673 0.43605c0.25436 0 0.45914-0.20476 0.45916-0.45911 0.030181-2.3728e-5 0.054471-0.024329 0.054471-0.054516 0-0.25436-0.20476-0.45914-0.45911-0.45916-2.3728e-5 -0.030181-0.024329-0.054471-0.054516-0.054471h-3.673-0.43605m0 0.32709m0 2.7547c-0.25436 0-0.45914 0.20476-0.45916 0.45911-0.030181 2.3728e-5 -0.054472 0.024329-0.054472 0.054516 0 0.25436 0.20476 0.45914 0.45911 0.45916 2.3728e-5 0.030181 0.024553 0.054471 0.055185 0.054471h3.6722c2.4839e-4 0 0.43662-1.953e-7 0.43687-5.857e-7 0.254-3.9939e-4 0.45837-0.20501 0.45837-0.45911 0.030202 0 0.054516-0.024314 0.054516-0.054516 0-0.25436-0.20476-0.45914-0.45911-0.45916-2.3728e-5 -0.030181-0.024329-0.054471-0.054516-0.054471h-3.673" color="#000000" fill-opacity=".029128" opacity="1" style="paint-order:normal;text-decoration-line:none;text-indent:0;text-transform:none"/>
		<path d="m20.277 28.277v24.554h5.8971e-5 14.323s9.8543e-6 -9.8542e-6 2.9486e-5 -2.9486e-5c0.005006-0.005006 7.1614-7.1614 7.1614-7.1614v-1.7925e-5 -17.392h-2.2143e-5 -21.484m0.18452 0.18452m1.8616 1.8616h15.824 1.5684v13.962 1.3838h-4.6541-0.46127v4.6541 0.46127h-11.17-1.107v-18.616-1.8451m0.23064 0.27677m2.327 2.7924c-0.25785 0-0.46543 0.20757-0.46544 0.4654-0.025538 2.0078e-5 -0.046092 0.020586-0.046092 0.046129 0 0.25785 0.20757 0.46543 0.4654 0.46544 2.0078e-5 0.025538 0.020586 0.046092 0.046129 0.046092h3.7233 0.36896c0.25785 0 0.46543-0.20757 0.46544-0.4654 0.025538-2.0078e-5 0.046091-0.020586 0.046091-0.046129 0-0.25785-0.20757-0.46543-0.4654-0.46544-2.0078e-5 -0.025538-0.020586-0.046091-0.046129-0.046091h-3.7233-0.36896m0 0.27677m0 2.7924c-0.25785 0-0.46543 0.20757-0.46544 0.4654-0.025538 2.0078e-5 -0.046092 0.020586-0.046092 0.046129 0 0.25785 0.20757 0.46543 0.4654 0.46544 2.0078e-5 0.025538 0.020586 0.046091 0.046129 0.046091h3.7233 0.36896c0.25785 0 0.46543-0.20757 0.46544-0.4654 0.025538-2.0078e-5 0.046091-0.020586 0.046091-0.046129 0-0.25785-0.20757-0.46543-0.4654-0.46544-2.0078e-5 -0.025538-0.020586-0.046092-0.046129-0.046092h-3.7233-0.36896m0 0.27677m0 2.7924c-0.25785 0-0.46543 0.20757-0.46544 0.4654-0.025538 2.0078e-5 -0.046092 0.020586-0.046092 0.046129 0 0.25785 0.20757 0.46543 0.4654 0.46544 2.0078e-5 0.025538 0.020813 0.046091 0.046807 0.046091h3.7225c2.5179e-4 0 0.36954-1.979e-7 0.36979-5.937e-7 0.25748-4.0486e-4 0.46465-0.20782 0.46465-0.4654 0.025555 0 0.046129-0.020573 0.046129-0.046129 0-0.25785-0.20757-0.46543-0.4654-0.46544-2.0078e-5 -0.025538-0.020586-0.046092-0.046129-0.046092h-3.7233" color="#000000" fill-opacity=".029473" opacity="1" style="paint-order:normal;text-decoration-line:none;text-indent:0;text-transform:none"/>
		<path d="m20.228 28.228v24.456h4.8532e-5 14.266l2.4266e-5 -2.4266e-5c0.0041198-0.0041198 7.1328-7.1328 7.1328-7.1328v-1.4752e-5 -17.323h-1.8223e-5 -21.399m0.15185 0.15185m1.8861 1.8861h16.032 1.2907v14.146 1.1388h-4.7153-0.37961v4.7153 0.37961h-11.317-0.91107v-18.861-1.5185m0.18982 0.22778m2.3576 2.8292c-0.26124 0-0.47155 0.2103-0.47156 0.47153-0.021017 1.6524e-5 -0.037932 0.016942-0.037932 0.037963 0 0.26124 0.2103 0.47155 0.47153 0.47156 1.6524e-5 0.021017 0.016942 0.037932 0.037963 0.037932h3.7723 0.30365c0.26124 0 0.47155-0.2103 0.47156-0.47153 0.021017-1.6524e-5 0.037932-0.016942 0.037932-0.037963 0-0.26124-0.2103-0.47155-0.47153-0.47156-1.6524e-5 -0.021017-0.016942-0.037932-0.037963-0.037932h-3.7723-0.30365m0 0.22778m0 2.8292c-0.26124 0-0.47155 0.2103-0.47156 0.47153-0.021017 1.6524e-5 -0.037932 0.016942-0.037932 0.037963 0 0.26124 0.2103 0.47155 0.47153 0.47156 1.6524e-5 0.021017 0.016942 0.037932 0.037963 0.037932h3.7723 0.30365c0.26124 0 0.47155-0.2103 0.47156-0.47153 0.021017-1.6524e-5 0.037932-0.016942 0.037932-0.037963 0-0.26124-0.2103-0.47155-0.47153-0.47156-1.6524e-5 -0.021017-0.016942-0.037932-0.037963-0.037932h-3.7723-0.30365m0 0.22778m0 2.8292c-0.26124 0-0.47155 0.2103-0.47156 0.47153-0.021017 1.6524e-5 -0.037932 0.016942-0.037932 0.037963 0 0.26124 0.2103 0.47155 0.47153 0.47156 1.6524e-5 0.021017 0.017172 0.037932 0.03865 0.037932h3.7715c2.551e-4 0 0.30421-2.006e-7 0.30447-6.015e-7 0.26087-4.1019e-4 0.47076-0.21056 0.47076-0.47153 0.021031 0 0.037963-0.016932 0.037963-0.037963 0-0.26124-0.2103-0.47155-0.47153-0.47156-1.6524e-5 -0.021017-0.016942-0.037932-0.037963-0.037932h-3.7723" color="#000000" fill-opacity=".029809" opacity="1" style="paint-order:normal;text-decoration-line:none;text-indent:0;text-transform:none"/>
		<path d="m20.18 28.18v24.36h3.8357e-5 14.21l1.9178e-5 -1.9178e-5c0.0032561-0.0032561 7.105-7.105 7.105-7.105v-1.1659e-5 -17.255h-1.4403e-5 -21.315m0.12002 0.12002m1.91 1.91h16.235 1.0201v14.325 0.90008h-4.775-0.30003v4.775 0.30003h-11.46-0.72006v-19.1-1.2001m0.15002 0.18002m2.3875 2.865c-0.26454 0-0.47751 0.21296-0.47752 0.4775-0.016611 1.3059e-5 -0.02998 0.01339-0.02998 0.030004 0 0.26454 0.21296 0.47751 0.4775 0.47752 1.3059e-5 0.016611 0.01339 0.02998 0.030004 0.02998h3.82 0.23999c0.26454 0 0.47751-0.21296 0.47752-0.4775 0.016611-1.3059e-5 0.02998-0.01339 0.02998-0.030004 0-0.26454-0.21296-0.47751-0.4775-0.47752-1.3059e-5 -0.016611-0.01339-0.02998-0.030004-0.02998h-3.82-0.23999m0 0.18002m0 2.865c-0.26454 0-0.47751 0.21296-0.47752 0.4775-0.016611 1.3059e-5 -0.02998 0.01339-0.02998 0.030004 0 0.26454 0.21296 0.47751 0.4775 0.47752 1.3059e-5 0.016611 0.01339 0.02998 0.030004 0.02998h3.82 0.23999c0.26454 0 0.47751-0.21296 0.47752-0.4775 0.016611-1.3059e-5 0.02998-0.01339 0.02998-0.030004 0-0.26454-0.21296-0.47751-0.4775-0.47752-1.3059e-5 -0.016611-0.01339-0.02998-0.030004-0.02998h-3.82-0.23999m0 0.18002m0 2.865c-0.26454 0-0.47751 0.21296-0.47752 0.4775-0.016611 1.3059e-5 -0.02998 0.01339-0.02998 0.030004 0 0.26454 0.21296 0.47751 0.4775 0.47752 1.3059e-5 0.016611 0.013623 0.02998 0.0307 0.02998h3.8193c2.5833e-4 0 0.24055-2.031e-7 0.24081-6.091e-7 0.26417-4.1538e-4 0.47672-0.21322 0.47672-0.4775 0.016622 0 0.030004-0.013382 0.030004-0.030004 0-0.26454-0.21296-0.47751-0.4775-0.47752-1.3059e-5 -0.016611-0.01339-0.02998-0.030004-0.02998h-3.82" color="#000000" fill-opacity=".030137" opacity="1" style="paint-order:normal;text-decoration-line:none;text-indent:0;text-transform:none"/>
		<path d="m20.133 28.133v24.267h2.843e-5 14.156s4.7508e-6 -4.7507e-6 1.4215e-5 -1.4215e-5c0.0024134-0.0024134 7.0778-7.0778 7.0778-7.0778v-8.6419e-6 -17.189h-1.0675e-5 -21.233m0.088956 0.088956m1.9333 1.9333h16.433 0.75612v14.5 0.66714h-4.8332-0.22238v4.8332 0.22238h-11.6-0.53371v-19.333-0.88955m0.11119 0.13343m2.4166 2.8999c-0.26777 0-0.48333 0.21556-0.48334 0.48332-0.012312 9.6796e-6 -0.022221 0.0099246-0.022221 0.022239 0 0.26777 0.21556 0.48333 0.48332 0.48334 9.6797e-6 0.012312 0.0099247 0.022221 0.022239 0.022221h3.8666 0.17788c0.26777 0 0.48333-0.21556 0.48334-0.48332 0.012312-9.6796e-6 0.022221-0.0099246 0.022221-0.022239 0-0.26777-0.21556-0.48333-0.48332-0.48334-9.6796e-6 -0.012312-0.0099246-0.022221-0.022239-0.022221h-3.8666-0.17788m0 0.13343m0 2.8999c-0.26777 0-0.48333 0.21556-0.48334 0.48332-0.012312 9.6796e-6 -0.022221 0.0099246-0.022221 0.022239 0 0.26777 0.21556 0.48333 0.48332 0.48334 9.6797e-6 0.012312 0.0099247 0.022221 0.022239 0.022221h3.8666 0.17788c0.26777 0 0.48333-0.21556 0.48334-0.48332 0.012312-9.6796e-6 0.022221-0.0099246 0.022221-0.022239 0-0.26777-0.21556-0.48333-0.48332-0.48334-9.6796e-6 -0.012312-0.0099246-0.022221-0.022239-0.022221h-3.8666-0.17788m0 0.13343m0 2.8999c-0.26777 0-0.48333 0.21556-0.48334 0.48332-0.012312 9.6796e-6 -0.022221 0.0099246-0.022221 0.022239 0 0.26777 0.21556 0.48333 0.48332 0.48334 9.6797e-6 0.012312 0.010161 0.022221 0.022943 0.022221h3.8659c2.6148e-4 0 0.17843-2.056e-7 0.1787-6.166e-7 0.2674-4.2045e-4 0.48254-0.21582 0.48254-0.48332 0.01232 0 0.022239-0.0099186 0.022239-0.022239 0-0.26777-0.21556-0.48333-0.48332-0.48334-9.6796e-6 -0.012312-0.0099246-0.022221-0.022239-0.022221h-3.8666" color="#000000" fill-opacity=".030457" opacity="1" style="paint-order:normal;text-decoration-line:none;text-indent:0;text-transform:none"/>
		<path d="m20.088 28.088v24.176h1.8737e-5 14.103l9.3686e-6 -9.3686e-6c0.0015906-0.0015906 7.0513-7.0513 7.0513-7.0513v-5.6955e-6 -17.125h-7.0357e-6 -21.154m0.058627 0.058627m1.956 1.956h16.626 0.49833v14.67 0.43968h-4.8901-0.14656v4.8901 0.14656h-11.736-0.35175v-19.56-0.58626m0.073284 0.087941m2.445 2.934c-0.27091 0-0.48902 0.2181-0.48902 0.48901-0.0081143 6.3794e-6 -0.014645 0.0065409-0.014645 0.014657 0 0.27091 0.2181 0.48902 0.48901 0.48902 6.3795e-6 0.0081144 0.0065409 0.014645 0.014657 0.014645h3.9121 0.11723c0.27091 0 0.48902-0.2181 0.48902-0.48901 0.0081143-6.3794e-6 0.014645-0.0065409 0.014645-0.014657 0-0.27091-0.2181-0.48902-0.48901-0.48902-6.3794e-6 -0.0081143-0.0065409-0.014645-0.014657-0.014645h-3.9121-0.11723m0 0.087941m0 2.934c-0.27091 0-0.48902 0.2181-0.48902 0.48901-0.0081143 6.3794e-6 -0.014645 0.0065409-0.014645 0.014657 0 0.27091 0.2181 0.48902 0.48901 0.48902 6.3795e-6 0.0081143 0.0065409 0.014645 0.014657 0.014645h3.9121 0.11723c0.27091 0 0.48902-0.2181 0.48902-0.48901 0.0081143-6.3794e-6 0.014645-0.0065409 0.014645-0.014657 0-0.27091-0.2181-0.48902-0.48901-0.48902-6.3794e-6 -0.0081144-0.0065409-0.014645-0.014657-0.014645h-3.9121-0.11723m0 0.087941m0 2.934c-0.27091 0-0.48902 0.2181-0.48902 0.48901-0.0081143 6.3794e-6 -0.014645 0.0065409-0.014645 0.014657 0 0.27091 0.2181 0.48902 0.48901 0.48902 6.3795e-6 0.0081143 0.0067797 0.014645 0.015369 0.014645h3.9113c2.6456e-4 0 0.11778-2.08e-7 0.11805-6.238e-7 0.27054-4.254e-4 0.48821-0.21836 0.48821-0.48901 0.0081198 0 0.014657-0.0065369 0.014657-0.014657 0-0.27091-0.2181-0.48902-0.48901-0.48902-6.3794e-6 -0.0081144-0.0065409-0.014645-0.014657-0.014645h-3.9121" color="#000000" fill-opacity=".030769" opacity="1" style="paint-order:normal;text-decoration-line:none;text-indent:0;text-transform:none"/>
		<path d="m20.043 28.043v24.087h9.2645e-6 14.051s1.5482e-6 -1.5481e-6 4.6323e-6 -4.6322e-6c7.8645e-4 -7.8645e-4 7.0254-7.0254 7.0254-7.0254v-2.8161e-6 -17.062h-3.4787e-6 -21.076m0.028988 0.028988m1.9783 1.9783h16.815 0.24639v14.837 0.2174h-4.9457-0.072466v4.9457 0.072466h-11.87-0.17392v-19.783-0.28987m0.036235 0.043482m2.4728 2.9674c-0.27399 0-0.49457 0.22058-0.49457 0.49456-0.0040121 3.1542e-6 -0.0072411 0.0032341-0.0072411 0.0072469 0 0.27399 0.22058 0.49457 0.49456 0.49457 3.1543e-6 0.0040121 0.0032341 0.0072411 0.007247 0.0072411h3.9565 0.057965c0.27399 0 0.49457-0.22058 0.49457-0.49456 0.0040121-3.1543e-6 0.0072411-0.0032341 0.0072411-0.007247 0-0.27399-0.22058-0.49457-0.49456-0.49457-3.1542e-6 -0.0040121-0.0032341-0.0072411-0.0072469-0.0072411h-3.9565-0.057965m0 0.043482m0 2.9674c-0.27399 0-0.49457 0.22058-0.49457 0.49456-0.0040121 3.1543e-6 -0.0072411 0.0032341-0.0072411 0.007247 0 0.27399 0.22058 0.49457 0.49456 0.49457 3.1543e-6 0.0040121 0.0032341 0.0072411 0.007247 0.0072411h3.9565 0.057965c0.27399 0 0.49457-0.22058 0.49457-0.49456 0.0040121-3.1543e-6 0.0072411-0.0032341 0.0072411-0.0072469 0-0.27399-0.22058-0.49457-0.49456-0.49457-3.1542e-6 -0.0040121-0.0032341-0.0072411-0.0072469-0.0072411h-3.9565-0.057965m0 0.043482m0 2.9674c-0.27399 0-0.49457 0.22058-0.49457 0.49456-0.0040121 3.1543e-6 -0.0072411 0.0032341-0.0072411 0.007247 0 0.27399 0.22058 0.49457 0.49456 0.49457 3.1543e-6 0.0040121 0.0034756 0.0072411 0.0079676 0.0072411h3.9558c2.6757e-4 0 0.058511-2.103e-7 0.058778-6.309e-7 0.27362-4.3023e-4 0.49376-0.22084 0.49376-0.49456 0.0040148 0 0.0072469-0.0032321 0.0072469-0.0072469 0-0.27399-0.22058-0.49457-0.49456-0.49457-3.1542e-6 -0.0040121-0.0032341-0.0072411-0.0072469-0.0072411h-3.9565" color="#000000" fill-opacity=".031074" opacity="1" style="paint-order:normal;text-decoration-line:none;text-indent:0;text-transform:none"/>
		<path d="m20 28v24h14l7-7v-17h-21m2 2h17v15h-5v5h-12v-20m2.5 3c-0.277 0-0.5 0.223-0.5 0.5s0.223 0.5 0.5 0.5h4c0.277 0 0.5-0.223 0.5-0.5s-0.223-0.5-0.5-0.5h-4m0 3c-0.277 0-0.5 0.223-0.5 0.5s0.223 0.5 0.5 0.5h4c0.277 0 0.5-0.223 0.5-0.5s-0.223-0.5-0.5-0.5h-4m0 3c-0.277 0-0.5 0.223-0.5 0.5s0.223 0.5 0.5 0.5h7.2861e-4 3.9993c2.7051e-4 0 5.4096e-4 -2.127e-7 8.1137e-4 -6.379e-7 0.27662-4.3496e-4 0.49919-0.22327 0.49919-0.5 0-0.277-0.223-0.5-0.5-0.5h-4" color="#000000" fill-opacity=".031373" opacity="1" style="paint-order:normal;text-decoration-line:none;text-indent:0;text-transform:none"/>
	</g>
	<path d="m20 28v24h14v-2h-12v-20h17v15h2v-17z" color="#000000" fill="#d5ffff" style="paint-order:normal;text-decoration-line:none;text-indent:0;text-transform:none"/>
	<path d="m24.5 33c-0.277 0-0.5 0.223-0.5 0.5s0.223 0.5 0.5 0.5h4c0.277 0 0.5-0.223 0.5-0.5s-0.223-0.5-0.5-0.5zm0 3c-0.277 0-0.5 0.223-0.5 0.5s0.223 0.5 0.5 0.5h4c0.277 0 0.5-0.223 0.5-0.5s-0.223-0.5-0.5-0.5zm0 3c-0.277 0-0.5 0.223-0.5 0.5s0.223 0.5 0.5 0.5h4c0.277 0 0.5-0.223 0.5-0.5s-0.223-0.5-0.5-0.5zm9.5 6v7l7-7z" color="#000000" fill="#4b617d" style="paint-order:normal;text-decoration-line:none;text-indent:0;text-transform:none"/>
</svg>
