<?xml version="1.0" encoding="UTF-8"?>
<!-- Created with Inkscape (http://www.inkscape.org/) -->
<svg width="64" height="64" version="1.1" xmlns="http://www.w3.org/2000/svg" xmlns:cc="http://creativecommons.org/ns#" xmlns:dc="http://purl.org/dc/elements/1.1/" xmlns:rdf="http://www.w3.org/1999/02/22-rdf-syntax-ns#">
	<defs>
		<linearGradient id="d" x1="53" x2="53" y1="17" y2="15" gradientUnits="userSpaceOnUse">
			<stop stop-color="#dad8ce" offset="0"/>
			<stop stop-color="#ebebeb" offset="1"/>
		</linearGradient>
		<linearGradient id="f" x1="32.559" x2="33.542" y1="15.559" y2="14.542" gradientUnits="userSpaceOnUse">
			<stop stop-color="#37321c" stop-opacity=".15675" offset="0"/>
			<stop stop-color="#6d5524" stop-opacity="0" offset="1"/>
		</linearGradient>
		<radialGradient id="a" cx="33.466" cy="2.1992" r="30.5" gradientTransform="matrix(-1.0283 0 0 -.55738 67.779 1.2258)" gradientUnits="userSpaceOnUse">
			<stop stop-color="#668cbb" offset="0"/>
			<stop stop-color="#668cbb" offset="1"/>
		</radialGradient>
		<linearGradient id="g" x1="61" x2="60" y1="17" gradientTransform="translate(-.88255)" gradientUnits="userSpaceOnUse">
			<stop stop-color="#3e4d60" stop-opacity=".72157" offset="0"/>
			<stop stop-color="#393b49" stop-opacity=".2656" offset="1"/>
		</linearGradient>
		<linearGradient id="c" x1="62.381" x2="62.381" y1="63.314" y2="23.077" gradientUnits="userSpaceOnUse">
			<stop stop-color="#000828" stop-opacity=".35976" offset="0"/>
			<stop stop-color="#000828" stop-opacity=".12715" offset="1"/>
		</linearGradient>
		<radialGradient id="b" cx="30.107" cy="50.318" r="30.5" gradientTransform="matrix(2.7541,-1.4218e-7,8.3652e-8,2.7869,-52.917,-93.23)" gradientUnits="userSpaceOnUse">
			<stop stop-color="#9e1423" stop-opacity=".12917" offset="0"/>
			<stop stop-color="#f4405b" stop-opacity=".023222" offset=".54"/>
			<stop stop-color="#f43f6d" stop-opacity=".169" offset="1"/>
		</radialGradient>
		<linearGradient id="h" x1="-5" x2="-5" y1="64" y2="14" gradientTransform="translate(.88908)" gradientUnits="userSpaceOnUse">
			<stop stop-color="#f43f66" stop-opacity=".018868" offset="0"/>
			<stop stop-color="#f4ae3f" stop-opacity=".47025" offset="1"/>
		</linearGradient>
		<linearGradient id="e" x1="4.5255" x2="4.5255" y1="64" y2="61.09" gradientUnits="userSpaceOnUse">
			<stop stop-color="#e50d4c" stop-opacity=".47868" offset="0"/>
			<stop stop-color="#e50d4c" stop-opacity="0" offset="1"/>
		</linearGradient>
	</defs>
	<metadata>
		<rdf:RDF>
			<cc:Work rdf:about="">
				<dc:format>image/svg+xml</dc:format>
				<dc:type rdf:resource="http://purl.org/dc/dcmitype/StillImage"/>
				<dc:title/>
			</cc:Work>
		</rdf:RDF>
	</metadata>
	<g>
		<g>
			<path d="m38 0c-1 0-1.5103 0.51027-2 1l-3 3c-0.53814 0.53814-1 1-2 1h-28c-0.52243 0-1 0.43922-1 1l-0.76511 58h61.543c1 0 1.2218-1 1.2218-2v-61c0-0.51973-0.5-1-1-1z" style="color:#000000;fill:url(#a)"/>
			<path d="m38 0c-1 0-1.5103 0.51027-2 1l-3 3c-0.53814 0.53814-1 1-2 1h-28c-0.52243 0-1 0.43922-1 1l-0.76511 58h61.543c1 0 1.2218-1 1.2218-2v-61c0-0.51973-0.5-1-1-1z" style="color:#000000;fill:url(#g)"/>
			<path d="m38 0c-1 0-1.5103 0.51027-2 1l-3 3c-0.53814 0.53814-1 1-2 1h-28c-0.52243 0-1 0.43922-1 1l-0.76562 58h0.00586l0.75976-57.5c0-0.56078 0.47757-1 1-1h28c1 0 1.4619-0.46186 2-1l3-3c0.48973-0.48973 1-1 2-1h25c0.5 0 1 0.48027 1 1v-0.5c0-0.51973-0.5-1-1-1z" style="color:#000000;fill-opacity:.19073;fill:#b3ffff"/>
			<path d="m61 13v51h1.7773c0.09408 0 0.17509-0.01633 0.25586-0.0332l0.8125-0.8125c0.11225-0.34056 0.1543-0.74535 0.1543-1.1543v-46l-3-3z" style="fill:url(#c)"/>
			<path d="m63.5 0.15532v61.845c0 0.52439-0.13604 1.5011-0.72184 1.5v0.5c1 0 1.2218-1 1.2218-2v-61c0-0.39808-0.24002-0.69459-0.5-0.84468z" style="fill-opacity:.14136;fill:#0f1f33;paint-order:normal"/>
		</g>
		<g>
			<path d="m7 13h54v31h-54z" style="fill:url(#d)"/>
			<path d="m30 13 4 4h2l-4-4z" style="color:#000000;fill:url(#f)"/>
		</g>
		<path d="m62.778 63.5c-0.58579-0.0011-0.77816-0.9402-0.77816-1.5v-44c0-0.57647-0.4549-1-1-1h-26c-1 0-1.3759-0.3759-2-1l-3-3c-0.46442-0.46442-1-1-2-1h-27c-0.52342 0-1 0.4716-1 1 0.0044097 9.6802 0.0035924 21.791 0.002195 32.011-9.6046e-4 7.024-0.002195 13.155-0.002195 16.989 0 1 0.23489 2 1.2349 2h61.543z" style="color:#000000;fill:#f4ae3f"/>
		<path d="m62.778 63.5c-0.58579-0.0011-0.77816-0.9402-0.77816-1.5v-44c0-0.57647-0.4549-1-1-1h-26c-1 0-1.3759-0.3759-2-1l-3-3c-0.46442-0.46442-1-1-2-1h-27c-0.52342 0-1 0.4716-1 1 0.0044097 9.6802 0.0035924 21.791 0.002195 32.011-9.6046e-4 7.024-0.002195 13.155-0.002195 16.989 0 1 0.23489 2 1.2349 2h61.543z" style="color:#000000;fill:#f4ae3f"/>
		<path d="m62.778 63.5c-0.58579-0.0011-0.77816-0.9402-0.77816-1.5v-44c0-0.57647-0.4549-1-1-1h-26c-1 0-1.3759-0.3759-2-1l-3-3c-0.46442-0.46442-1-1-2-1h-27c-0.52342 0-1 0.4716-1 1 0.0044097 9.6802 0.0035924 21.791 0.002195 32.011-9.6046e-4 7.024-0.002195 13.155-0.002195 16.989 0 1 0.23489 2 1.2349 2h61.543z" style="color:#000000;fill:url(#b)"/>
		<path d="m62.778 63.5c-0.58579-0.0011-0.77816-0.9402-0.77816-1.5v-44c0-0.57647-0.4549-1-1-1h-26c-1 0-1.3759-0.3759-2-1l-3-3c-0.46442-0.46442-1-1-2-1h-27c-0.52342 0-1 0.4716-1 1 0.0044097 9.6802 0.0035924 21.791 0.002195 32.011-9.6046e-4 7.024-0.002195 13.155-0.002195 16.989 0 1 0.23489 2 1.2349 2h61.543z" style="color:#000000;fill:url(#h)"/>
		<path d="m62.778 63.5c-0.58579-0.0011-0.77816-0.9402-0.77816-1.5v-44c0-0.57647-0.4549-1-1-1h-26c-1 0-1.3759-0.3759-2-1l-3-3c-0.46442-0.46442-1-1-2-1h-27c-0.52342 0-1 0.4716-1 1 0.0044097 9.6802 0.0035924 21.791 0.002195 32.011-9.6046e-4 7.024-0.002195 13.155-0.002195 16.989 0 1 0.23489 2 1.2349 2h61.543z" style="color:#000000;fill:url(#e);opacity:.318"/>
		<path d="m27.5 12c1 0 1.5356 0.53558 2 1l3 3c0.6241 0.6241 1 1 2 1h0.5c-1 0-1.3759-0.3759-2-1l-3-3c-0.46442-0.46442-1-1-2-1zm33 5c0.5451 0 1 0.42353 1 1v44c0 0.90201 0.20957 1.9442 1.2782 2h-8.19e-4v-0.5c-0.58579-0.0011-0.77734-0.9402-0.77734-1.5v-44c0-0.57647-0.4549-1-1-1z" style="color:#000000;fill-opacity:.23186;fill:#ff024d;paint-order:normal"/>
		<path d="m27.75 12c1 0 1.5356 0.53558 2 1l3 3c0.6241 0.6241 1 1 2 1h0.25c-1 0-1.3759-0.3759-2-1l-3-3c-0.46442-0.46442-1-1-2-1zm33 5c0.5451 0 1 0.42353 1 1v44c0 0.5598 0.19155 1.4989 0.77734 1.5v0.45508c0.08 0.01886 0.15756 0.0401 0.25 0.04492v-0.5c-0.58579-0.0011-0.77734-0.9402-0.77734-1.5v-44c0-0.57647-0.4549-1-1-1z" style="color:#000000;fill-opacity:.19147;fill:#ff024d;paint-order:normal"/>
		<path d="m1 12c-0.52342 0-1 0.4716-1 1 6.888e-5 0.15121-6.6347e-5 0.34762 0 0.5 0-0.5284 0.47658-1 1-1h27c1 0 1.5356 0.53558 2 1l3 3c0.6241 0.6241 1 1 2 1h26c0.5451 0 1 0.42353 1 1v-0.5c0-0.57647-0.4549-1-1-1h-26c-1 0-1.3759-0.3759-2-1l-3-3c-0.46442-0.46442-1-1-2-1z" style="color:#000000;fill-opacity:.31189;fill:#f8ff34"/>
		<path d="m1 12c-0.52342 0-1 0.4716-1 1 3.444e-5 0.0756-3.3805e-5 0.1741 0 0.25 0-0.5284 0.47658-1 1-1h27c1 0 1.5356 0.53558 2 1l3 3c0.6241 0.6241 1 1 2 1h26c0.5451 0 1 0.42353 1 1v-0.25c0-0.57647-0.4549-1-1-1h-26c-1 0-1.3759-0.3759-2-1l-3-3c-0.46442-0.46442-1-1-2-1z" style="color:#000000;fill-opacity:.31189;fill:#f8ff34"/>
	</g>
	<g style="opacity:.4">
		<path d="m38.995 30.094-4.1261 10.375-11.337 0.8813s-4.4e-5 1.37e-4 -1.31e-4 4.09e-4c-0.01109 0.03451-0.72093 2.2429-0.72093 2.2429s1.31e-4 1.09e-4 3.91e-4 3.26e-4c0.06645 0.05527 8.5722 7.1302 8.5722 7.1302l-1.23e-4 5.07e-4c-0.0208 0.08601-2.6839 11.096-2.6839 11.096s1.17e-4 8.3e-5 3.5e-4 2.48e-4c0.02958 0.02095 1.9225 1.3618 1.9225 1.3618l9.4539-5.9687 9.6943 5.9687 1.9228-1.4021-2.764-10.856 5.488-4.6468-3.7655-0.16024-4.0059 3.405-0.40059 1.2819s2.1632 8.5325 2.1632 8.5325l-7.6513-4.727h-1.362l-7.451 4.727s2.1632-8.773 2.1632-8.773l-0.44065-1.2819-6.7699-5.6083 8.9732-0.681 1.0816-0.80118 3.2447-8.172s3.4451 8.2923 3.4451 8.2923l1.0816 0.80118 8.813 0.56083 3.7655 0.2003s7.8e-5 -6.8e-5 2.32e-4 -2.03e-4c0.0097-0.0085 0.32024-0.28021 0.32024-0.28021l-0.76112-2.2833-11.177-0.72106-4.3264-10.495h-2.3635l3.84e-4 1.92e-4" style="color:#000000;fill-opacity:.0039216;fill:#ff0066;opacity:1;paint-order:normal;text-indent:0;text-transform:none"/>
		<path d="m37.458 29.196-3.9632 9.9656s-2.4e-5 1e-6 -7.2e-5 5e-6c-0.01231 9.57e-4 -10.889 0.84648-10.889 0.84648s-3.6e-5 1.13e-4 -1.08e-4 3.36e-4c-0.0091 0.02831-0.69248 2.1544-0.69248 2.1544s1.08e-4 8.9e-5 3.21e-4 2.67e-4c0.05452 0.04534 8.2337 6.8486 8.2337 6.8486s-3.4e-5 1.39e-4 -1e-4 4.16e-4c-0.01707 0.07057-2.5779 10.658-2.5779 10.658s9.6e-5 6.8e-5 2.87e-4 2.03e-4c0.02427 0.01719 1.8466 1.308 1.8466 1.308s2e-5 -1.3e-5 6.1e-5 -3.8e-5c0.01027-0.0065 9.0805-5.733 9.0805-5.733s2.1e-5 1.3e-5 6.2e-5 3.9e-5c0.01053 0.0065 9.3113 5.733 9.3113 5.733s1.6e-5 -1.2e-5 4.9e-5 -3.6e-5c0.0041-3e-3 1.8468-1.3467 1.8468-1.3467l-1.8e-5 -6.9e-5c-3e-3 -0.01179-2.6548-10.427-2.6548-10.427s1.2e-5 -1e-5 3.5e-5 -2.9e-5c6e-3 -5e-3 5.2712-4.4633 5.2712-4.4633s-3.2e-5 -2e-6 -9.6e-5 -4e-6c-0.0081-3.46e-4 -3.6167-0.1539-3.6167-0.1539s-3.5e-5 2.9e-5 -1.03e-4 8.7e-5c-0.0086 0.0073-3.8476 3.2704-3.8476 3.2704s-1.4e-5 4.4e-5 -4.1e-5 1.3e-4c-0.0017 0.0054-0.38473 1.2311-0.38473 1.2311s5e-6 1.8e-5 1.4e-5 5.5e-5c0.0023 0.0093 2.0777 8.1955 2.0777 8.1955s-1.6e-5 -1e-5 -4.8e-5 -3.1e-5c-0.0083-0.0051-7.3491-4.5402-7.3491-4.5402h-1.38e-4 -1.3081s-1.6e-5 1e-5 -4.8e-5 3.1e-5c-0.0081 0.0051-7.1566 4.5402-7.1566 4.5402s5e-6 -1.9e-5 1.4e-5 -5.7e-5c0.0023-0.0095 2.0777-8.4264 2.0777-8.4264s-1.6e-5 -4.4e-5 -4.5e-5 -1.3e-4c-0.0019-0.0054-0.4232-1.2311-0.4232-1.2311s-1.4e-5 -1.2e-5 -4.3e-5 -3.6e-5c-0.0074-0.0061-6.5025-5.3867-6.5025-5.3867s2e-5 -1e-6 5.8e-5 -4e-6c0.0097-7.4e-4 8.6188-0.6541 8.6188-0.6541s3.7e-5 -2.8e-5 1.1e-4 -8.2e-5c0.0046-0.0034 1.0388-0.76946 1.0388-0.76946s7e-6 -1.8e-5 2.1e-5 -5.3e-5c0.0035-0.0089 3.1165-7.8492 3.1165-7.8492s7e-6 1.8e-5 2.2e-5 5.4e-5c0.0037 9e-3 3.309 7.9647 3.309 7.9647s3.7e-5 2.7e-5 1.1e-4 8.1e-5c0.0046 0.0034 1.0388 0.76946 1.0388 0.76946l5.7e-5 3e-6c0.0096 6.1e-4 8.4648 0.53867 8.4648 0.53867s3.2e-5 2e-6 9.6e-5 5e-6c0.0081 4.32e-4 3.6167 0.19238 3.6167 0.19238s6.4e-5 -5.6e-5 1.9e-4 -1.67e-4c8e-3 -7e-3 0.30762-0.26917 0.30762-0.26917s-7e-6 -1.9e-5 -2e-5 -5.8e-5c-0.0016-0.0049-0.73104-2.1931-0.73104-2.1931s-2.4e-5 -2e-6 -7.1e-5 -5e-6c-0.01214-7.83e-4 -10.735-0.69258-10.735-0.69258s-9e-6 -2.2e-5 -2.7e-5 -6.7e-5c-0.0047-0.0114-4.1555-10.081-4.1555-10.081h-6e-5 -2.2701l5.4e-5 2.7e-5 3.15e-4 1.58e-4" style="color:#000000;fill-opacity:.0088519;fill:#ff0066;opacity:1;paint-order:normal;text-indent:0;text-transform:none"/>
		<path d="m36.821 28.824s-3.8957 9.7958-3.8957 9.7958-3.5e-5 3e-6 -1.03e-4 8e-6c-0.01741 0.0014-10.703 0.83207-10.703 0.83207s-3.3e-5 1.02e-4 -9.8e-5 3.04e-4c-0.0083 0.02574-0.68069 2.1177-0.68069 2.1177s9.8e-5 8.2e-5 2.92e-4 2.43e-4c0.04957 0.04123 8.0935 6.732 8.0935 6.732s-3.1e-5 1.26e-4 -9.2e-5 3.78e-4c-0.01552 0.06417-2.534 10.476-2.534 10.476s8.7e-5 6.2e-5 2.61e-4 1.85e-4c0.02206 0.01563 1.8152 1.2857 1.8152 1.2857s2.9e-5 -1.8e-5 8.6e-5 -5.4e-5c0.01452-0.0092 8.9258-5.6353 8.9258-5.6353l8.7e-5 5.4e-5c0.01489 0.0092 9.1527 5.6353 9.1527 5.6353s2.3e-5 -1.7e-5 7e-5 -5e-5c0.0059-0.0043 1.8154-1.3238 1.8154-1.3238s-9e-6 -3.3e-5 -2.5e-5 -9.8e-5c-0.0042-0.01667-2.6096-10.25-2.6096-10.25s1.6e-5 -1.4e-5 4.9e-5 -4.2e-5c0.0084-0.0071 5.1814-4.3873 5.1814-4.3873s-4.6e-5 -2e-6 -1.36e-4 -6e-6c-0.01148-4.88e-4 -3.5551-0.15128-3.5551-0.15128l-1.44e-4 1.23e-4c-0.01221 0.01038-3.782 3.2146-3.782 3.2146s-1.9e-5 6.2e-5 -5.7e-5 1.84e-4c-0.0024 0.0077-0.37816 1.2101-0.37816 1.2101s6e-6 2.6e-5 2e-5 7.8e-5c0.0033 0.0131 2.0423 8.0558 2.0423 8.0558s-2.4e-5 -1.4e-5 -7e-5 -4.2e-5c-0.01175-0.0073-7.2239-4.4629-7.2239-4.4629h-1.95e-4 -1.2857s-2.2e-5 1.4e-5 -6.7e-5 4.3e-5c-0.01144 0.0073-7.0347 4.4629-7.0347 4.4629s7e-6 -2.6e-5 2e-5 -7.9e-5c0.0033-0.01347 2.0423-8.2829 2.0423-8.2829s-2.2e-5 -6.2e-5 -6.4e-5 -1.84e-4c-0.0026-0.0077-0.41597-1.2101-0.41597-1.2101s-2e-5 -1.7e-5 -6.1e-5 -5.1e-5c-0.0104-0.0086-6.3917-5.295-6.3917-5.295s2.8e-5 -2e-6 8.2e-5 -6e-6c0.01378-1e-3 8.4719-0.64296 8.4719-0.64296s5.2e-5 -3.9e-5 1.55e-4 -1.15e-4c0.0065-0.0048 1.021-0.75632 1.021-0.75632s1e-5 -2.5e-5 2.9e-5 -7.4e-5c5e-3 -0.01255 3.0635-7.7155 3.0635-7.7155s1e-5 2.5e-5 3.1e-5 7.5e-5c0.0053 0.01274 3.2526 7.829 3.2526 7.829s5.2e-5 3.9e-5 1.55e-4 1.15e-4c0.0065 0.0048 1.021 0.75632 1.021 0.75632s2.7e-5 2e-6 8e-5 5e-6c0.01354 8.62e-4 8.3207 0.5295 8.3207 0.5295s4.6e-5 3e-6 1.36e-4 8e-6c0.01148 6.1e-4 3.5551 0.1891 3.5551 0.1891s5.8e-5 -5.1e-5 1.73e-4 -1.52e-4c0.0072-0.0063 0.3024-0.2646 0.3024-0.2646s-1e-5 -2.7e-5 -2.8e-5 -8.2e-5c-0.0023-7e-3 -0.71858-2.1557-0.71858-2.1557s-3.4e-5 -3e-6 -1.01e-4 -7e-6c-0.01717-0.0011-10.552-0.68078-10.552-0.68078s-1.3e-5 -3.2e-5 -3.9e-5 -9.5e-5c-0.0066-0.01612-4.0847-9.9091-4.0847-9.9091h-8.5e-5 -2.2314l7.7e-5 3.9e-5 2.86e-4 1.43e-4" style="color:#000000;fill-opacity:.010894;fill:#ff0066;opacity:1;paint-order:normal;text-indent:0;text-transform:none"/>
		<path d="m36.332 28.538s-3.8439 9.6656-3.8439 9.6656-4.2e-5 3e-6 -1.26e-4 1e-5c-0.02133 0.0017-10.561 0.821-10.561 0.821s-3.1e-5 9.5e-5 -9.1e-5 2.82e-4c-0.0076 0.02377-0.67164 2.0896-0.67164 2.0896s9e-5 7.5e-5 2.7e-4 2.24e-4c0.04578 0.03808 7.9859 6.6425 7.9859 6.6425s-2.8e-5 1.16e-4 -8.4e-5 3.49e-4c-0.01433 0.05926-2.5003 10.337-2.5003 10.337s8.1e-5 5.8e-5 2.42e-4 1.71e-4c0.02037 0.01443 1.7911 1.2687 1.7911 1.2687l1.05e-4 -6.6e-5c0.01778-0.01123 8.8071-5.5604 8.8071-5.5604s3.6e-5 2.2e-5 1.07e-4 6.6e-5c0.01824 0.01123 9.031 5.5604 9.031 5.5604s2.8e-5 -2e-5 8.5e-5 -6.2e-5c0.0072-0.0052 1.7912-1.3062 1.7912-1.3062s-1.1e-5 -4e-5 -3.1e-5 -1.2e-4c-0.0052-0.02042-2.5749-10.113-2.5749-10.113s2.1e-5 -1.7e-5 6.1e-5 -5.1e-5c0.01032-0.0087 5.1125-4.3289 5.1125-4.3289s-5.6e-5 -3e-6 -1.66e-4 -7e-6c-0.01406-5.98e-4 -3.5078-0.14927-3.5078-0.14927s-5.9e-5 5.1e-5 -1.77e-4 1.51e-4c-0.01495 0.01271-3.7317 3.1719-3.7317 3.1719s-2.4e-5 7.6e-5 -7.1e-5 2.25e-4c-0.0029 0.0094-0.37312 1.194-0.37312 1.194s8e-6 3.1e-5 2.4e-5 9.4e-5c0.0041 0.01605 2.0152 7.9487 2.0152 7.9487s-2.8e-5 -1.8e-5 -8.4e-5 -5.3e-5c-0.01439-0.0089-7.1278-4.4035-7.1278-4.4035h-2.4e-4 -1.2686s-2.7e-5 1.7e-5 -8.2e-5 5.2e-5c-0.01402 0.0089-6.9412 4.4035-6.9412 4.4035s8e-6 -3.3e-5 2.4e-5 -9.8e-5c0.0041-0.0165 2.0152-8.1727 2.0152-8.1727s-2.6e-5 -7.6e-5 -7.7e-5 -2.25e-4c-0.0032-0.0094-0.41043-1.194-0.41043-1.194s-2.5e-5 -2.1e-5 -7.5e-5 -6.2e-5c-0.01273-0.01055-6.3067-5.2245-6.3067-5.2245s3.3e-5 -2e-6 9.9e-5 -7e-6c0.01688-0.0013 8.3593-0.63441 8.3593-0.63441s6.4e-5 -4.7e-5 1.9e-4 -1.41e-4c0.0079-0.0059 1.0074-0.74623 1.0074-0.74623l3.6e-5 -9e-5c0.0061-0.01537 3.0227-7.6129 3.0227-7.6129s1.2e-5 3e-5 3.8e-5 9.2e-5c0.0065 0.0156 3.2094 7.7249 3.2094 7.7249s6.4e-5 4.7e-5 1.9e-4 1.41e-4c0.0079 0.0059 1.0074 0.74623 1.0074 0.74623s3.3e-5 2e-6 9.8e-5 6e-6c0.01658 0.0011 8.21 0.52246 8.21 0.52246s5.6e-5 3e-6 1.67e-4 9e-6c0.01406 7.48e-4 3.5078 0.18658 3.5078 0.18658s5.4e-5 -4.7e-5 1.6e-4 -1.4e-4c0.0067-0.0058 0.29839-0.26109 0.29839-0.26109s-1.2e-5 -3.4e-5 -3.4e-5 -1.01e-4c-0.0028-0.0085-0.70902-2.127-0.70902-2.127s-4.1e-5 -2e-6 -1.24e-4 -8e-6c-0.02102-0.0014-10.412-0.67173-10.412-0.67173s-1.6e-5 -3.8e-5 -4.8e-5 -1.16e-4c-0.0081-0.01974-4.0304-9.7774-4.0304-9.7774h-1.05e-4 -2.2018l9.3e-5 4.7e-5 2.64e-4 1.32e-4" style="color:#000000;fill-opacity:.012461;fill:#ff0066;opacity:1;paint-order:normal;text-indent:0;text-transform:none"/>
		<path d="m35.92 28.298-3.8002 9.5558s-4.9e-5 4e-6 -1.46e-4 1.1e-5c-0.02463 0.0019-10.441 0.81167-10.441 0.81167s-2.8e-5 8.8e-5 -8.4e-5 2.62e-4c-0.0071 0.02211-0.66402 2.0658-0.66402 2.0658s8.3e-5 7e-5 2.5e-4 2.09e-4c0.04258 0.03542 7.8952 6.567 7.8952 6.567l-7.8e-5 3.24e-4c-0.01333 0.05512-2.4719 10.219-2.4719 10.219s7.5e-5 5.4e-5 2.25e-4 1.59e-4c0.01895 0.01343 1.7707 1.2543 1.7707 1.2543s4e-5 -2.6e-5 1.21e-4 -7.7e-5c0.02053-0.01296 8.707-5.4972 8.707-5.4972s4.1e-5 2.5e-5 1.24e-4 7.6e-5c0.02106 0.01297 8.9284 5.4972 8.9284 5.4972s3.2e-5 -2.4e-5 9.8e-5 -7.2e-5c0.0083-6e-3 1.7708-1.2913 1.7708-1.2913s-1.2e-5 -4.7e-5 -3.6e-5 -1.39e-4c-6e-3 -0.02358-2.5456-9.9984-2.5456-9.9984s2.4e-5 -2e-5 7e-5 -6e-5c0.01192-0.01009 5.0544-4.2797 5.0544-4.2797s-6.5e-5 -2e-6 -1.93e-4 -8e-6c-0.01623-6.9e-4 -3.4679-0.14757-3.4679-0.14757s-6.8e-5 5.8e-5 -2.04e-4 1.73e-4c-0.01727 0.01468-3.6893 3.1358-3.6893 3.1358s-2.8e-5 8.7e-5 -8.2e-5 2.6e-4c-0.0034 0.01088-0.36887 1.1804-0.36887 1.1804s1e-5 3.7e-5 2.8e-5 1.1e-4c0.0047 0.01853 1.9923 7.8584 1.9923 7.8584s-3.3e-5 -2e-5 -9.8e-5 -6e-5c-0.01662-0.01027-7.0469-4.3535-7.0469-4.3535h-2.76e-4 -1.2541l-9.6e-5 6e-5c-0.01618 0.01027-6.8623 4.3535-6.8623 4.3535s1e-5 -3.7e-5 2.8e-5 -1.12e-4c0.0047-0.01906 1.9923-8.0799 1.9923-8.0799s-3e-5 -8.7e-5 -8.9e-5 -2.6e-4c-0.0037-0.01088-0.40575-1.1804-0.40575-1.1804s-2.9e-5 -2.4e-5 -8.6e-5 -7.1e-5c-0.01471-0.01218-6.2351-5.1652-6.2351-5.1652s3.8e-5 -3e-6 1.15e-4 -9e-6c0.01949-0.0015 8.2643-0.6272 8.2643-0.6272s7.4e-5 -5.5e-5 2.2e-4 -1.63e-4c0.0092-0.0068 0.99594-0.73773 0.99594-0.73773s1.4e-5 -3.5e-5 4.2e-5 -1.04e-4c7e-3 -0.01775 2.9884-7.5264 2.9884-7.5264s1.5e-5 3.5e-5 4.4e-5 1.06e-4c0.0075 0.01801 3.1729 7.6372 3.1729 7.6372s7.4e-5 5.5e-5 2.19e-4 1.63e-4c0.0092 0.0068 0.99594 0.73773 0.99594 0.73773s3.8e-5 2e-6 1.13e-4 7e-6c0.01914 0.0012 8.1167 0.51652 8.1167 0.51652s6.4e-5 3e-6 1.92e-4 1e-5c0.01623 8.63e-4 3.4679 0.18446 3.4679 0.18446s5.1e-5 -4.4e-5 1.49e-4 -1.3e-4c0.0062-0.0054 0.29501-0.25813 0.29501-0.25813s-1.3e-5 -3.9e-5 -3.9e-5 -1.16e-4c-0.0033-0.0098-0.70096-2.1028-0.70096-2.1028s-4.8e-5 -4e-6 -1.43e-4 -1e-5c-0.02428-0.0016-10.294-0.6641-10.294-0.6641s-1.8e-5 -4.5e-5 -5.5e-5 -1.34e-4c-0.0094-0.0228-3.9846-9.6663-3.9846-9.6663h-1.21e-4 -2.1767l1.07e-4 5.4e-5 2.46e-4 1.23e-4" style="color:#000000;fill-opacity:.013782;fill:#ff0066;opacity:1;paint-order:normal;text-indent:0;text-transform:none"/>
		<path d="m35.557 28.086-3.7617 9.4591-1.62e-4 1.2e-5c-0.02753 0.0021-10.335 0.80346-10.335 0.80346s-2.6e-5 8.1e-5 -7.8e-5 2.44e-4c-0.0066 0.02065-0.6573 2.0449-0.6573 2.0449s7.9e-5 6.5e-5 2.34e-4 1.95e-4c0.03976 0.03308 7.8153 6.5006 7.8153 6.5006s-2.4e-5 1.01e-4 -7.3e-5 3.03e-4c-0.01245 0.05147-2.4469 10.116-2.4469 10.116s7e-5 5e-5 2.1e-4 1.48e-4c0.0177 0.01254 1.7528 1.2416 1.7528 1.2416s4.5e-5 -2.8e-5 1.35e-4 -8.5e-5c0.02296-0.01449 8.6189-5.4415 8.6189-5.4415s4.6e-5 2.9e-5 1.38e-4 8.6e-5c0.02354 0.0145 8.838 5.4415 8.838 5.4415s3.7e-5 -2.6e-5 1.1e-4 -8e-5c0.0093-0.0068 1.7529-1.2782 1.7529-1.2782s-1.4e-5 -5.2e-5 -4e-5 -1.55e-4c-0.0067-0.02636-2.5199-9.8972-2.5199-9.8972s2.7e-5 -2.2e-5 7.9e-5 -6.6e-5c0.01333-0.01129 5.0033-4.2364 5.0033-4.2364s-7.2e-5 -3e-6 -2.15e-4 -9e-6c-0.01815-7.72e-4 -3.4328-0.14608-3.4328-0.14608s-7.7e-5 6.6e-5 -2.29e-4 1.95e-4c-0.0193 0.01641-3.6519 3.104-3.6519 3.104s-3e-5 9.8e-5 -9e-5 2.91e-4c-0.0038 0.01216-0.36512 1.1684-0.36512 1.1684s1.1e-5 4.1e-5 3.1e-5 1.22e-4c0.0053 0.02072 1.9721 7.7788 1.9721 7.7788s-3.6e-5 -2.3e-5 -1.09e-4 -6.8e-5c-0.01858-0.01148-6.9755-4.3094-6.9755-4.3094h-3.09e-4 -1.2414s-3.5e-5 2.3e-5 -1.06e-4 6.8e-5c-0.01809 0.01148-6.7928 4.3094-6.7928 4.3094s1e-5 -4.2e-5 3.1e-5 -1.26e-4c0.0053-0.0213 1.9721-7.9981 1.9721-7.9981s-3.4e-5 -9.8e-5 -1e-4 -2.91e-4c-0.0042-0.01216-0.40163-1.1684-0.40163-1.1684s-3.2e-5 -2.7e-5 -9.6e-5 -8e-5c-0.01644-0.01362-6.1719-5.1129-6.1719-5.1129s4.3e-5 -3e-6 1.28e-4 -9e-6c0.02179-0.0017 8.1806-0.62085 8.1806-0.62085s8.3e-5 -6.2e-5 2.46e-4 -1.82e-4c0.01026-0.0076 0.98583-0.73024 0.98583-0.73024s1.6e-5 -3.9e-5 4.7e-5 -1.17e-4c0.0079-0.01985 2.9581-7.4502 2.9581-7.4502s1.7e-5 3.9e-5 4.9e-5 1.18e-4c0.0084 0.02014 3.1408 7.5598 3.1408 7.5598s8.3e-5 6.2e-5 2.46e-4 1.82e-4c0.01026 0.0076 0.98583 0.73024 0.98583 0.73024s4.2e-5 2e-6 1.26e-4 8e-6c0.0214 0.0014 8.0345 0.51129 8.0345 0.51129s7.2e-5 4e-6 2.15e-4 1.1e-5c0.01815 9.66e-4 3.4328 0.1826 3.4328 0.1826s4.7e-5 -4.1e-5 1.39e-4 -1.22e-4c0.0058-0.0051 0.29203-0.25553 0.29203-0.25553s-1.5e-5 -4.3e-5 -4.4e-5 -1.3e-4c-0.0037-0.011-0.69386-2.0815-0.69386-2.0815s-5.3e-5 -3e-6 -1.6e-4 -1e-5c-0.02714-0.0018-10.189-0.65737-10.189-0.65737s-2e-5 -5e-5 -6.1e-5 -1.5e-4c-0.01051-0.02549-3.9442-9.5684-3.9442-9.5684h-1.35e-4 -2.1547l1.21e-4 6.1e-5 2.3e-4 1.14e-4" style="color:#000000;fill-opacity:.014946;fill:#ff0066;opacity:1;paint-order:normal;text-indent:0;text-transform:none"/>
		<path d="m35.229 27.894s-3.727 9.3716-3.727 9.3716-6e-5 5e-6 -1.78e-4 1.4e-5c-0.03016 0.0023-10.24 0.79602-10.24 0.79602s-2.5e-5 7.6e-5 -7.4e-5 2.28e-4c-0.0062 0.01933-0.65123 2.026-0.65123 2.026s7.3e-5 6.1e-5 2.19e-4 1.82e-4c0.03722 0.03096 7.7431 6.4405 7.7431 6.4405s-2.3e-5 9.4e-5 -6.9e-5 2.83e-4c-0.01165 0.04817-2.4243 10.023-2.4243 10.023s6.5e-5 4.7e-5 1.96e-4 1.39e-4c0.01656 0.01173 1.7366 1.2301 1.7366 1.2301s5e-5 -3.1e-5 1.49e-4 -9.3e-5c0.02515-0.01588 8.5392-5.3912 8.5392-5.3912s5e-5 3.1e-5 1.52e-4 9.3e-5c0.02579 0.01588 8.7563 5.3912 8.7563 5.3912l1.2e-4 -8.7e-5c0.01015-0.0074 1.7367-1.2664 1.7367-1.2664s-1.4e-5 -5.7e-5 -4.3e-5 -1.7e-4c-0.0074-0.02888-2.4966-9.8056-2.4966-9.8056s2.9e-5 -2.4e-5 8.6e-5 -7.2e-5c0.0146-0.01236 4.957-4.1972 4.957-4.1972s-7.9e-5 -3e-6 -2.36e-4 -1e-5c-0.01988-8.46e-4 -3.401-0.14472-3.401-0.14472s-8.4e-5 7.1e-5 -2.5e-4 2.13e-4c-0.02115 0.01797-3.6181 3.0753-3.6181 3.0753s-3.4e-5 1.07e-4 -1e-4 3.19e-4c-0.0042 0.01332-0.36174 1.1576-0.36174 1.1576s1.2e-5 4.5e-5 3.4e-5 1.34e-4c0.0058 0.0227 1.9539 7.7069 1.9539 7.7069s-4e-5 -2.4e-5 -1.2e-4 -7.4e-5c-0.02036-0.01257-6.911-4.2696-6.911-4.2696h-3.39e-4 -1.2299s-3.9e-5 2.5e-5 -1.16e-4 7.4e-5c-0.01982 0.01258-6.73 4.2696-6.73 4.2696s1.2e-5 -4.5e-5 3.4e-5 -1.37e-4c0.0058-0.02334 1.9539-7.9241 1.9539-7.9241s-3.6e-5 -1.08e-4 -1.09e-4 -3.19e-4c-0.0046-0.01332-0.39791-1.1576-0.39791-1.1576s-3.5e-5 -2.9e-5 -1.06e-4 -8.8e-5c-0.01801-0.01492-6.1149-5.0656-6.1149-5.0656s4.7e-5 -3e-6 1.41e-4 -1e-5c0.02387-0.0018 8.105-0.61511 8.105-0.61511s9e-5 -6.7e-5 2.69e-4 -2e-4c0.01124-0.0083 0.97669-0.72347 0.97669-0.72347s1.7e-5 -4.3e-5 5.1e-5 -1.28e-4c0.0086-0.02174 2.9308-7.3813 2.9308-7.3813s1.8e-5 4.4e-5 5.4e-5 1.3e-4c0.0092 0.02206 3.1117 7.4899 3.1117 7.4899s9e-5 6.7e-5 2.69e-4 1.99e-4c0.01124 0.0083 0.97669 0.72347 0.97669 0.72347l1.38e-4 9e-6c0.02345 0.0015 7.9602 0.50656 7.9602 0.50656s7.9e-5 4e-6 2.35e-4 1.3e-5c0.01988 0.0011 3.401 0.1809 3.401 0.1809s4.4e-5 -3.9e-5 1.31e-4 -1.14e-4c0.0054-0.0048 0.28934-0.25317 0.28934-0.25317s-1.6e-5 -4.8e-5 -4.8e-5 -1.43e-4c-4e-3 -0.01205-0.68744-2.0623-0.68744-2.0623s-5.9e-5 -4e-6 -1.75e-4 -1.1e-5c-0.02973-0.0019-10.095-0.65129-10.095-0.65129s-2.3e-5 -5.5e-5 -6.8e-5 -1.65e-4c-0.01151-0.02792-3.9078-9.4799-3.9078-9.4799h-1.47e-4 -2.1347l1.32e-4 6.6e-5 2.15e-4 1.07e-4" style="color:#000000;fill-opacity:.015998;fill:#ff0066;opacity:1;paint-order:normal;text-indent:0;text-transform:none"/>
		<path d="m34.928 27.718s-3.695 9.2912-3.695 9.2912l-1.92e-4 1.5e-5c-0.03258 0.0025-10.152 0.78919-10.152 0.78919s-2.3e-5 7.2e-5 -6.8e-5 2.15e-4c-0.0058 0.01811-0.64565 2.0087-0.64565 2.0087s6.8e-5 5.7e-5 2.05e-4 1.71e-4c0.03487 0.02901 7.6766 6.3852 7.6766 6.3852s-2.2e-5 8.9e-5 -6.4e-5 2.66e-4c-0.01092 0.04514-2.4035 9.9365-2.4035 9.9365s6.1e-5 4.4e-5 1.83e-4 1.3e-4c0.01552 0.011 1.7217 1.2196 1.7217 1.2196s5.3e-5 -3.3e-5 1.6e-4 -1.01e-4c0.02717-0.01715 8.4659-5.3449 8.4659-5.3449s5.5e-5 3.4e-5 1.64e-4 1.01e-4c0.02786 0.01715 8.6811 5.3449 8.6811 5.3449s4.4e-5 -3.1e-5 1.3e-4 -9.4e-5c0.01096-8e-3 1.7218-1.2555 1.7218-1.2555s-1.6e-5 -6.2e-5 -4.7e-5 -1.84e-4c-0.0079-0.03119-2.4751-9.7215-2.4751-9.7215s3.2e-5 -2.7e-5 9.3e-5 -7.9e-5c0.01577-0.01335 4.9145-4.1612 4.9145-4.1612s-8.5e-5 -3e-6 -2.54e-4 -1.1e-5c-0.02147-9.13e-4 -3.3718-0.14348-3.3718-0.14348s-9e-5 7.7e-5 -2.7e-4 2.3e-4c-0.02284 0.01942-3.587 3.0489-3.587 3.0489s-3.7e-5 1.16e-4 -1.08e-4 3.44e-4c-0.0045 0.01439-0.35862 1.1476-0.35862 1.1476s1.2e-5 4.8e-5 3.7e-5 1.45e-4c0.0062 0.02452 1.9371 7.6408 1.9371 7.6408s-4.4e-5 -2.7e-5 -1.3e-4 -8e-5c-0.02199-0.01358-6.8517-4.2329-6.8517-4.2329h-3.66e-4 -1.2193s-4.3e-5 2.7e-5 -1.26e-4 8e-5c-0.02141 0.01358-6.6723 4.2329-6.6723 4.2329s1.2e-5 -5e-5 3.7e-5 -1.49e-4c0.0062-0.02521 1.9371-7.8561 1.9371-7.8561s-4e-5 -1.16e-4 -1.19e-4 -3.44e-4c-0.0049-0.01439-0.39448-1.1476-0.39448-1.1476s-3.8e-5 -3.2e-5 -1.15e-4 -9.5e-5c-0.01945-0.01612-6.0624-5.0221-6.0624-5.0221s5.1e-5 -4e-6 1.52e-4 -1.2e-5c0.02578-2e-3 8.0354-0.60983 8.0354-0.60983s9.8e-5 -7.2e-5 2.9e-4 -2.15e-4c0.01214-9e-3 0.96828-0.71725 0.96828-0.71725s1.9e-5 -4.6e-5 5.5e-5 -1.38e-4c0.0093-0.02348 2.9056-7.318 2.9056-7.318s1.9e-5 4.7e-5 5.8e-5 1.4e-4c0.0099 0.02383 3.085 7.4256 3.085 7.4256s9.8e-5 7.2e-5 2.9e-4 2.15e-4c0.01214 9e-3 0.96828 0.71725 0.96828 0.71725s5e-5 3e-6 1.49e-4 9e-6c0.02532 0.0016 7.8919 0.50221 7.8919 0.50221s8.5e-5 5e-6 2.54e-4 1.4e-5c0.02147 0.0011 3.3718 0.17935 3.3718 0.17935s4.1e-5 -3.6e-5 1.22e-4 -1.07e-4c0.0051-0.0045 0.28686-0.251 0.28686-0.251s-1.7e-5 -5.1e-5 -5.1e-5 -1.54e-4c-0.0043-0.01302-0.68154-2.0446-0.68154-2.0446l-1.89e-4 -1.2e-5c-0.03212-0.0021-10.008-0.6457-10.008-0.6457s-2.5e-5 -5.9e-5 -7.3e-5 -1.78e-4c-0.01243-0.03016-3.8742-9.3986-3.8742-9.3986h-1.6e-4 -2.1164l3.44e-4 1.72e-4" style="color:#000000;fill-opacity:.016966;fill:#ff0066;opacity:1;paint-order:normal;text-indent:0;text-transform:none"/>
		<path d="m34.647 27.554-3.6652 9.2163s-6.8e-5 5e-6 -2.05e-4 1.6e-5c-0.03482 0.0027-10.07 0.78283-10.07 0.78283s-2.1e-5 6.7e-5 -6.4e-5 2.01e-4c-0.0055 0.01698-0.64045 1.9925-0.64045 1.9925s6.4e-5 5.3e-5 1.93e-4 1.6e-4c0.03269 0.02719 7.6148 6.3338 7.6148 6.3338l-6e-5 2.49e-4c-0.01024 0.04232-2.3841 9.8565-2.3841 9.8565s5.7e-5 4.1e-5 1.72e-4 1.22e-4c0.01455 0.01031 1.7079 1.2097 1.7079 1.2097l1.71e-4 -1.08e-4c0.02904-0.01834 8.3977-5.3019 8.3977-5.3019s5.9e-5 3.7e-5 1.76e-4 1.08e-4c0.02978 0.01834 8.6112 5.3019 8.6112 5.3019s4.7e-5 -3.4e-5 1.39e-4 -1.02e-4c0.01172-0.0085 1.7079-1.2454 1.7079-1.2454s-1.7e-5 -6.6e-5 -5e-5 -1.97e-4c-0.0085-0.03335-2.4552-9.6431-2.4552-9.6431s3.4e-5 -2.8e-5 1e-4 -8.4e-5c0.01686-0.01427 4.8749-4.1277 4.8749-4.1277s-9.1e-5 -3e-6 -2.72e-4 -1.1e-5c-0.02295-9.77e-4 -3.3446-0.14232-3.3446-0.14232s-9.7e-5 8.3e-5 -2.89e-4 2.46e-4c-0.02442 0.02076-3.5581 3.0243-3.5581 3.0243s-3.9e-5 1.24e-4 -1.15e-4 3.68e-4c-0.0048 0.01538-0.35572 1.1383-0.35572 1.1383s1.3e-5 5.1e-5 3.9e-5 1.54e-4c0.0066 0.02621 1.9215 7.5792 1.9215 7.5792s-4.6e-5 -2.9e-5 -1.38e-4 -8.6e-5c-0.0235-0.01452-6.7965-4.1988-6.7965-4.1988h-3.91e-4 -1.2095s-4.5e-5 2.8e-5 -1.35e-4 8.5e-5c-0.02289 0.01452-6.6185 4.1988-6.6185 4.1988l3.9e-5 -1.59e-4c0.0066-0.02695 1.9215-7.7928 1.9215-7.7928s-4.2e-5 -1.24e-4 -1.26e-4 -3.68e-4c-0.0053-0.01538-0.3913-1.1383-0.3913-1.1383s-4.1e-5 -3.4e-5 -1.22e-4 -1.01e-4c-0.0208-0.01723-6.0135-4.9817-6.0135-4.9817s5.4e-5 -4e-6 1.62e-4 -1.3e-5c0.02756-0.0021 7.9707-0.60492 7.9707-0.60492s1.05e-4 -7.7e-5 3.11e-4 -2.3e-4c0.01298-0.0096 0.96046-0.71145 0.96046-0.71145s2e-5 -5e-5 5.9e-5 -1.48e-4c0.01-0.0251 2.8822-7.259 2.8822-7.259s2.1e-5 5e-5 6.2e-5 1.5e-4c0.01058 0.02547 3.0602 7.3658 3.0602 7.3658s1.05e-4 7.7e-5 3.11e-4 2.3e-4c0.01298 0.0096 0.96046 0.71145 0.96046 0.71145s5.3e-5 4e-6 1.6e-4 1e-5c0.02707 0.0017 7.8283 0.49817 7.8283 0.49817s9.1e-5 4e-6 2.72e-4 1.4e-5c0.02295 0.0012 3.3446 0.17791 3.3446 0.17791s3.8e-5 -3.4e-5 1.14e-4 -1e-4c0.0048-0.0042 0.28456-0.24899 0.28456-0.24899s-1.8e-5 -5.6e-5 -5.5e-5 -1.65e-4c-0.0046-0.01392-0.67604-2.0281-0.67604-2.0281s-6.7e-5 -4e-6 -2.02e-4 -1.3e-5c-0.03433-0.0022-9.9278-0.6405-9.9278-0.6405s-2.6e-5 -6.3e-5 -7.9e-5 -1.9e-4c-0.01329-0.03224-3.843-9.3228-3.843-9.3228h-1.71e-4 -2.0993l1.52e-4 7.6e-5s1.89e-4 9.5e-5 1.89e-4 9.5e-5" style="color:#000000;fill-opacity:.017867;fill:#ff0066;opacity:1;paint-order:normal;text-indent:0;text-transform:none"/>
		<path d="m34.383 27.4s-3.6373 9.146-3.6373 9.146-7.3e-5 5e-6 -2.18e-4 1.7e-5c-0.03694 0.0029-9.9933 0.77686-9.9933 0.77686l-6e-5 1.89e-4c-0.0051 0.01591-0.63557 1.9773-0.63557 1.9773l1.8e-4 1.5e-4c0.03065 0.02549 7.5567 6.2855 7.5567 6.2855s-1.9e-5 7.8e-5 -5.6e-5 2.33e-4c-0.0096 0.03967-2.3659 9.7813-2.3659 9.7813s5.5e-5 3.8e-5 1.62e-4 1.14e-4c0.01364 0.0097 1.6948 1.2005 1.6948 1.2005s6e-5 -3.8e-5 1.81e-4 -1.14e-4c0.0308-0.01945 8.3336-5.2614 8.3336-5.2614s6.2e-5 3.9e-5 1.86e-4 1.15e-4c0.03159 0.01945 8.5455 5.2614 8.5455 5.2614s5e-5 -3.6e-5 1.48e-4 -1.07e-4c0.01243-0.0091 1.6949-1.2359 1.6949-1.2359s-1.8e-5 -7e-5 -5.3e-5 -2.08e-4c-9e-3 -0.03537-2.4365-9.5696-2.4365-9.5696s3.5e-5 -3e-5 1.06e-4 -8.9e-5c0.01788-0.01514 4.8377-4.0962 4.8377-4.0962s-9.7e-5 -4e-6 -2.88e-4 -1.2e-5c-0.02435-1e-3 -3.3191-0.14124-3.3191-0.14124s-1.03e-4 8.7e-5 -3.07e-4 2.61e-4c-0.0259 0.02201-3.531 3.0012-3.531 3.0012s-4.1e-5 1.32e-4 -1.22e-4 3.91e-4c-0.0051 0.01632-0.353 1.1296-0.353 1.1296s1.3e-5 5.4e-5 4.1e-5 1.63e-4c7e-3 0.0278 1.9068 7.5214 1.9068 7.5214s-4.9e-5 -3e-5 -1.46e-4 -9.1e-5c-0.02493-0.0154-6.7446-4.1668-6.7446-4.1668h-4.15e-4 -1.2002s-4.7e-5 3e-5 -1.43e-4 9.1e-5c-0.02428 0.0154-6.568 4.1668-6.568 4.1668s1.4e-5 -5.6e-5 4.1e-5 -1.69e-4c7e-3 -0.02858 1.9068-7.7333 1.9068-7.7333s-4.6e-5 -1.31e-4 -1.35e-4 -3.9e-4c-0.0056-0.01632-0.3883-1.1296-0.3883-1.1296s-4.3e-5 -3.6e-5 -1.3e-4 -1.08e-4c-0.02206-0.01827-5.9676-4.9437-5.9676-4.9437s5.8e-5 -4e-6 1.72e-4 -1.3e-5c0.02924-0.0022 7.9098-0.6003 7.9098-0.6003s1.11e-4 -8.2e-5 3.3e-4 -2.44e-4c0.01377-0.0102 0.95311-0.70601 0.95311-0.70601s2.1e-5 -5.2e-5 6.2e-5 -1.57e-4c0.01057-0.02663 2.8602-7.2036 2.8602-7.2036s2.2e-5 5.4e-5 6.7e-5 1.6e-4c0.01122 0.02702 3.0368 7.3096 3.0368 7.3096s1.11e-4 8.2e-5 3.3e-4 2.44e-4c0.01377 0.0102 0.95311 0.70601 0.95311 0.70601s5.7e-5 3e-6 1.7e-4 1e-5c0.02871 0.0018 7.7686 0.49437 7.7686 0.49437s9.7e-5 5e-6 2.88e-4 1.5e-5c0.02435 0.0013 3.3191 0.17655 3.3191 0.17655s3.6e-5 -3.1e-5 1.07e-4 -9.3e-5c0.0045-0.0039 0.28239-0.2471 0.28239-0.2471s-2e-5 -5.8e-5 -5.8e-5 -1.74e-4c-0.0049-0.01476-0.67088-2.0126-0.67088-2.0126s-7.1e-5 -4e-6 -2.14e-4 -1.3e-5c-0.03642-0.0023-9.852-0.63561-9.852-0.63561s-2.8e-5 -6.8e-5 -8.3e-5 -2.02e-4c-0.0141-0.0342-3.8137-9.2517-3.8137-9.2517h-1.8e-4 -2.0833s1.61e-4 8.1e-5 1.61e-4 8.1e-5l1.78e-4 8.8e-5" style="color:#000000;fill-opacity:.018713;fill:#ff0066;opacity:1;paint-order:normal;text-indent:0;text-transform:none"/>
		<path d="m34.134 27.254s-3.6108 9.0795-3.6108 9.0795-7.7e-5 6e-6 -2.29e-4 1.8e-5c-0.03894 3e-3 -9.9206 0.77121-9.9206 0.77121l-5.7e-5 1.77e-4c-0.0048 0.01491-0.63095 1.9629-0.63095 1.9629s5.7e-5 4.7e-5 1.69e-4 1.41e-4c0.02871 0.02388 7.5018 6.2398 7.5018 6.2398s-1.8e-5 7.3e-5 -5.3e-5 2.19e-4c-9e-3 0.03716-2.3487 9.7102-2.3487 9.7102s5e-5 3.6e-5 1.51e-4 1.07e-4c0.01278 0.0091 1.6825 1.1918 1.6825 1.1918s6.4e-5 -4e-5 1.91e-4 -1.21e-4c0.03247-0.0205 8.273-5.2231 8.273-5.2231s6.5e-5 4e-5 1.96e-4 1.21e-4c0.03329 0.0205 8.4833 5.2231 8.4833 5.2231s5.2e-5 -3.8e-5 1.55e-4 -1.13e-4c0.0131-0.0096 1.6825-1.2269 1.6825-1.2269s-1.8e-5 -7.3e-5 -5.5e-5 -2.19e-4c-0.0095-0.03729-2.4187-9.5-2.4187-9.5s3.7e-5 -3.2e-5 1.11e-4 -9.4e-5c0.01885-0.01596 4.8025-4.0664 4.8025-4.0664s-1.02e-4 -5e-6 -3.04e-4 -1.3e-5c-0.02566-0.0011-3.2949-0.14021-3.2949-0.14021s-1.08e-4 9.2e-5 -3.23e-4 2.75e-4c-0.0273 0.0232-3.5053 2.9794-3.5053 2.9794s-4.3e-5 1.39e-4 -1.29e-4 4.11e-4c-0.0054 0.0172-0.35043 1.1214-0.35043 1.1214s1.4e-5 5.8e-5 4.4e-5 1.73e-4c0.0074 0.0293 1.893 7.4667 1.893 7.4667s-5.1e-5 -3.2e-5 -1.54e-4 -9.6e-5c-0.02628-0.01623-6.6956-4.1365-6.6956-4.1365h-4.37e-4 -1.1915s-5.1e-5 3.2e-5 -1.51e-4 9.6e-5c-0.02559 0.01623-6.5202 4.1365-6.5202 4.1365s1.4e-5 -5.9e-5 4.4e-5 -1.78e-4c0.0074-0.03013 1.893-7.6771 1.893-7.6771s-4.7e-5 -1.38e-4 -1.41e-4 -4.11e-4c-0.0059-0.0172-0.38547-1.1214-0.38547-1.1214s-4.6e-5 -3.8e-5 -1.37e-4 -1.14e-4c-0.02325-0.01926-5.9242-4.9077-5.9242-4.9077s6.1e-5 -4e-6 1.81e-4 -1.4e-5c0.03082-0.0023 7.8523-0.59594 7.8523-0.59594s1.17e-4 -8.6e-5 3.47e-4 -2.57e-4c0.01451-0.01075 0.94616-0.70086 0.94616-0.70086s2.2e-5 -5.5e-5 6.6e-5 -1.66e-4c0.01114-0.02807 2.8394-7.1512 2.8394-7.1512s2.3e-5 5.6e-5 6.9e-5 1.67e-4c0.01183 0.02848 3.0147 7.2564 3.0147 7.2564s1.17e-4 8.7e-5 3.47e-4 2.58e-4c0.01451 0.01075 0.94616 0.70086 0.94616 0.70086s6e-5 4e-6 1.79e-4 1.1e-5c0.03027 0.0019 7.7121 0.49077 7.7121 0.49077s1.02e-4 6e-6 3.04e-4 1.6e-5c0.02566 0.0014 3.2949 0.17526 3.2949 0.17526s3.4e-5 -2.9e-5 1e-4 -8.7e-5c0.0042-0.0037 0.28035-0.2453 0.28035-0.2453s-2.1e-5 -6.2e-5 -6.2e-5 -1.85e-4c-0.0052-0.01556-0.666-1.9979-0.666-1.9979s-7.5e-5 -5e-6 -2.26e-4 -1.5e-5c-0.03838-0.0025-9.7804-0.63099-9.7804-0.63099s-2.9e-5 -7.1e-5 -8.7e-5 -2.12e-4c-0.01486-0.03605-3.7859-9.1844-3.7859-9.1844h-1.91e-4 -2.0682l1.71e-4 8.5e-5 1.66e-4 8.3e-5" style="color:#000000;fill-opacity:.019513;fill:#ff0066;opacity:1;paint-order:normal;text-indent:0;text-transform:none"/>
		<path d="m33.896 27.115s-3.5857 9.0163-3.5857 9.0163-8e-5 6e-6 -2.41e-4 1.9e-5c-0.04084 0.0032-9.8515 0.76584-9.8515 0.76584s-1.8e-5 5.5e-5 -5.3e-5 1.65e-4c-0.0045 0.01395-0.62656 1.9493-0.62656 1.9493l1.59e-4 1.32e-4c0.02687 0.02235 7.4495 6.1963 7.4495 6.1963s-1.6e-5 6.9e-5 -4.9e-5 2.05e-4c-0.0084 0.03478-2.3324 9.6426-2.3324 9.6426s4.7e-5 3.3e-5 1.41e-4 1e-4c0.01196 0.0085 1.6708 1.1835 1.6708 1.1835s6.7e-5 -4.3e-5 2e-4 -1.27e-4c0.03405-0.0215 8.2153-5.1867 8.2153-5.1867s6.9e-5 4.2e-5 2.06e-4 1.26e-4c0.03492 0.0215 8.4242 5.1868 8.4242 5.1868s5.4e-5 -4e-5 1.62e-4 -1.19e-4c0.01374-0.01002 1.6708-1.2183 1.6708-1.2183s-2e-5 -7.7e-5 -5.9e-5 -2.3e-4c-0.01-0.0391-2.4019-9.4338-2.4019-9.4338l1.17e-4 -9.9e-5c0.01977-0.01674 4.769-4.038 4.769-4.038s-1.07e-4 -5e-6 -3.19e-4 -1.4e-5c-0.02692-0.0011-3.272-0.13923-3.272-0.13923s-1.13e-4 9.7e-5 -3.39e-4 2.89e-4c-0.02863 0.02434-3.4808 2.9586-3.4808 2.9586s-4.5e-5 1.46e-4 -1.35e-4 4.32e-4c-0.0056 0.01804-0.34798 1.1135-0.34798 1.1135s1.5e-5 6.1e-5 4.6e-5 1.82e-4c0.0078 0.03073 1.8798 7.4146 1.8798 7.4146s-5.5e-5 -3.3e-5 -1.63e-4 -1e-4c-0.02756-0.01703-6.6489-4.1077-6.6489-4.1077h-4.59e-4 -1.1831s-5.3e-5 3.3e-5 -1.58e-4 1e-4c-0.02684 0.01703-6.4748 4.1077-6.4748 4.1077s1.6e-5 -6.2e-5 4.6e-5 -1.86e-4c0.0078-0.0316 1.8798-7.6236 1.8798-7.6236s-5e-5 -1.45e-4 -1.48e-4 -4.31e-4c-0.0062-0.01804-0.38278-1.1135-0.38278-1.1135s-4.8e-5 -3.9e-5 -1.43e-4 -1.19e-4c-0.02439-0.0202-5.883-4.8735-5.883-4.8735s6.4e-5 -5e-6 1.9e-4 -1.5e-5c0.03232-0.0025 7.7976-0.59178 7.7976-0.59178s1.23e-4 -9.1e-5 3.65e-4 -2.7e-4c0.01522-0.01127 0.93955-0.69596 0.93955-0.69596l6.9e-5 -1.74e-4c0.01169-0.02944 2.8196-7.1014 2.8196-7.1014s2.5e-5 5.9e-5 7.3e-5 1.76e-4c0.01241 0.02987 2.9937 7.2059 2.9937 7.2059s1.23e-4 9.1e-5 3.64e-4 2.7e-4c0.01522 0.01127 0.93955 0.69596 0.93955 0.69596s6.2e-5 4e-6 1.87e-4 1.2e-5c0.03175 2e-3 7.6584 0.48735 7.6584 0.48735s1.07e-4 6e-6 3.19e-4 1.7e-5c0.02691 0.0014 3.272 0.17404 3.272 0.17404s3.1e-5 -2.8e-5 9.3e-5 -8.3e-5c0.0039-0.0034 0.2784-0.2436 0.2784-0.2436s-2.2e-5 -6.5e-5 -6.5e-5 -1.93e-4c-0.0054-0.01632-0.66136-1.984-0.66136-1.984l-2.37e-4 -1.5e-5c-0.04026-0.0026-9.7123-0.62659-9.7123-0.62659s-3.1e-5 -7.4e-5 -9.2e-5 -2.22e-4c-0.01558-0.03781-3.7596-9.1204-3.7596-9.1204h-2e-4 -2.0537l1.78e-4 9e-5 1.56e-4 7.7e-5" style="color:#000000;fill-opacity:.020274;fill:#ff0066;opacity:1;paint-order:normal;text-indent:0;text-transform:none"/>
		<path d="m33.67 26.983s-3.5616 8.9558-3.5616 8.9558-8.4e-5 7e-6 -2.51e-4 2e-5c-0.04265 0.0033-9.7855 0.7607-9.7855 0.7607s-1.7e-5 5.1e-5 -5e-5 1.54e-4c-0.0042 0.01304-0.62236 1.9362-0.62236 1.9362s5e-5 4.1e-5 1.48e-4 1.23e-4c0.02511 0.02088 7.3996 6.1548 7.3996 6.1548s-1.6e-5 6.4e-5 -4.7e-5 1.92e-4c-0.0079 0.0325-2.3168 9.5779-2.3168 9.5779l1.32e-4 9.3e-5c0.01117 0.0079 1.6596 1.1756 1.6596 1.1756s7e-5 -4.5e-5 2.09e-4 -1.33e-4c0.03557-0.02246 8.1603-5.152 8.1603-5.152s7.2e-5 4.4e-5 2.15e-4 1.33e-4c0.03647 0.02246 8.3677 5.152 8.3677 5.152s5.7e-5 -4.2e-5 1.7e-4 -1.24e-4c0.01436-0.01047 1.6596-1.2102 1.6596-1.2102s-2e-5 -8e-5 -6.1e-5 -2.41e-4c-0.0104-0.04084-2.3858-9.3705-2.3858-9.3705s4e-5 -3.4e-5 1.21e-4 -1.03e-4c0.02065-0.01748 4.737-4.011 4.737-4.011s-1.11e-4 -4e-6 -3.33e-4 -1.4e-5c-0.02811-0.0012-3.25-0.1383-3.25-0.1383s-1.19e-4 1.01e-4 -3.54e-4 3.01e-4c-0.02991 0.02542-3.4575 2.9388-3.4575 2.9388s-4.8e-5 1.52e-4 -1.41e-4 4.51e-4c-0.0059 0.01884-0.34564 1.1061-0.34564 1.1061l4.8e-5 1.89e-4c0.0081 0.0321 1.8672 7.3649 1.8672 7.3649s-5.7e-5 -3.5e-5 -1.7e-4 -1.05e-4c-0.02879-0.01778-6.6043-4.0801-6.6043-4.0801h-4.79e-4 -1.1752s-5.6e-5 3.5e-5 -1.66e-4 1.04e-4c-0.02803 0.01778-6.4314 4.0801-6.4314 4.0801s1.6e-5 -6.5e-5 4.8e-5 -1.94e-4c0.0081-0.03301 1.8672-7.5725 1.8672-7.5725s-5.2e-5 -1.52e-4 -1.55e-4 -4.51e-4c-0.0065-0.01884-0.38021-1.1061-0.38021-1.1061s-5e-5 -4.1e-5 -1.5e-4 -1.24e-4c-0.02547-0.0211-5.8435-4.8408-5.8435-4.8408s6.6e-5 -5e-6 1.99e-4 -1.5e-5c0.03376-0.0026 7.7453-0.58782 7.7453-0.58782s1.28e-4 -9.5e-5 3.81e-4 -2.82e-4c0.0159-0.01178 0.93323-0.69128 0.93323-0.69128s2.4e-5 -6.1e-5 7.2e-5 -1.81e-4c0.01221-0.03075 2.8007-7.0538 2.8007-7.0538s2.6e-5 6.2e-5 7.6e-5 1.84e-4c0.01296 0.0312 2.9737 7.1576 2.9737 7.1576s1.29e-4 9.5e-5 3.81e-4 2.82e-4c0.0159 0.01178 0.93323 0.69128 0.93323 0.69128l1.95e-4 1.2e-5c0.03316 0.0021 7.607 0.48408 7.607 0.48408s1.12e-4 6e-6 3.33e-4 1.8e-5c0.02811 0.0015 3.25 0.17287 3.25 0.17287s2.9e-5 -2.6e-5 8.8e-5 -7.7e-5c0.0037-0.0032 0.27654-0.24197 0.27654-0.24197s-2.2e-5 -6.7e-5 -6.7e-5 -2.01e-4c-0.0057-0.01705-0.65692-1.9707-0.65692-1.9707s-8.3e-5 -5e-6 -2.48e-4 -1.6e-5c-0.04205-0.0027-9.6472-0.62239-9.6472-0.62239s-3.2e-5 -7.8e-5 -9.6e-5 -2.33e-4c-0.01628-0.03949-3.7344-9.0593-3.7344-9.0593h-2.09e-4 -2.04s1.87e-4 9.4e-5 1.87e-4 9.4e-5l1.45e-4 7.2e-5" style="color:#000000;fill-opacity:.021001;fill:#ff0066;opacity:1;paint-order:normal;text-indent:0;text-transform:none"/>
		<path d="m33.452 26.856s-3.5386 8.8979-3.5386 8.8979-8.8e-5 7e-6 -2.62e-4 2e-5c-0.04439 0.0035-9.7221 0.75578-9.7221 0.75578s-1.6e-5 4.8e-5 -4.7e-5 1.44e-4c-0.0039 0.01216-0.61833 1.9237-0.61833 1.9237l1.38e-4 1.14e-4c0.02342 0.01948 7.3517 6.115 7.3517 6.115s-1.4e-5 5.9e-5 -4.3e-5 1.78e-4c-0.0073 0.03031-2.3018 9.516-2.3018 9.516l1.23e-4 8.7e-5c0.01042 0.0074 1.6489 1.168 1.6489 1.168s7.3e-5 -4.6e-5 2.18e-4 -1.38e-4c0.03702-0.02337 8.1074-5.1186 8.1074-5.1186s7.4e-5 4.6e-5 2.23e-4 1.38e-4c0.03796 0.02337 8.3136 5.1186 8.3136 5.1186s5.9e-5 -4.4e-5 1.77e-4 -1.29e-4c0.01494-0.0109 1.6488-1.2023 1.6488-1.2023s-2.1e-5 -8.4e-5 -6.4e-5 -2.5e-4c-0.01082-0.04251-2.3703-9.3099-2.3703-9.3099s4.2e-5 -3.6e-5 1.26e-4 -1.07e-4c0.02149-0.0182 4.7064-3.985 4.7064-3.985s-1.16e-4 -5e-6 -3.47e-4 -1.5e-5c-0.02926-0.0012-3.229-0.1374-3.229-0.1374s-1.23e-4 1.05e-4 -3.68e-4 3.13e-4c-0.03113 0.02646-3.4351 2.9198-3.4351 2.9198s-4.9e-5 1.58e-4 -1.46e-4 4.7e-4c-0.0061 0.01961-0.3434 1.0989-0.3434 1.0989s1.7e-5 6.6e-5 5e-5 1.97e-4c0.0085 0.03341 1.8551 7.3173 1.8551 7.3173s-5.9e-5 -3.7e-5 -1.76e-4 -1.09e-4c-0.02996-0.01851-6.5616-4.0537-6.5616-4.0537h-4.99e-4 -1.1676s-5.7e-5 3.6e-5 -1.72e-4 1.09e-4c-0.02918 0.01851-6.3898 4.0537-6.3898 4.0537s1.7e-5 -6.8e-5 5e-5 -2.03e-4c0.0085-0.03435 1.8551-7.5235 1.8551-7.5235s-5.4e-5 -1.59e-4 -1.61e-4 -4.7e-4c-0.0067-0.01961-0.37774-1.0989-0.37774-1.0989s-5.2e-5 -4.4e-5 -1.56e-4 -1.3e-4c-0.02651-0.02196-5.8057-4.8095-5.8057-4.8095s6.9e-5 -5e-6 2.07e-4 -1.6e-5c0.03514-0.0027 7.6952-0.58401 7.6952-0.58401s1.34e-4 -9.8e-5 3.96e-4 -2.93e-4c0.01655-0.01226 0.92718-0.6868 0.92718-0.6868s2.5e-5 -6.3e-5 7.4e-5 -1.88e-4c0.01271-0.032 2.7826-7.0081 2.7826-7.0081s2.6e-5 6.4e-5 7.9e-5 1.91e-4c0.01349 0.03247 2.9544 7.1112 2.9544 7.1112s1.33e-4 9.9e-5 3.96e-4 2.93e-4c0.01655 0.01226 0.92718 0.6868 0.92718 0.6868s6.8e-5 4e-6 2.04e-4 1.3e-5c0.03451 0.0022 7.5578 0.48095 7.5578 0.48095s1.16e-4 6e-6 3.46e-4 1.8e-5c0.02926 0.0016 3.229 0.17175 3.229 0.17175s2.7e-5 -2.4e-5 8.2e-5 -7.1e-5c0.0034-3e-3 0.27475-0.24041 0.27475-0.24041s-2.4e-5 -7.1e-5 -7e-5 -2.1e-4c-0.0059-0.01774-0.65266-1.9579-0.65266-1.9579s-8.6e-5 -5e-6 -2.58e-4 -1.6e-5c-0.04377-0.0028-9.5847-0.61836-9.5847-0.61836s-3.3e-5 -8.1e-5 -9.9e-5 -2.43e-4c-0.01694-0.0411-3.7102-9.0006-3.7102-9.0006h-2.18e-4 -2.0268s1.95e-4 9.7e-5 1.95e-4 9.7e-5l1.35e-4 6.8e-5" style="color:#000000;fill-opacity:.021698;fill:#ff0066;opacity:1;paint-order:normal;text-indent:0;text-transform:none"/>
		<path d="m33.243 26.734-3.5164 8.8421s-9e-5 7e-6 -2.71e-4 2.1e-5c-0.04607 0.0036-9.6612 0.75104-9.6612 0.75104s-1.5e-5 4.5e-5 -4.3e-5 1.34e-4c-0.0036 0.01132-0.61446 1.9117-0.61446 1.9117s4.3e-5 3.6e-5 1.28e-4 1.07e-4c0.02179 0.01813 7.3057 6.0767 7.3057 6.0767s-1.3e-5 5.5e-5 -4e-5 1.66e-4c-0.0068 0.02821-2.2873 9.4563-2.2873 9.4563s3.9e-5 2.7e-5 1.15e-4 8.1e-5c0.0097 0.0069 1.6386 1.1607 1.6386 1.1607s7.6e-5 -4.8e-5 2.27e-4 -1.43e-4c0.03842-0.02426 8.0566-5.0865 8.0566-5.0865s7.8e-5 4.8e-5 2.32e-4 1.43e-4c0.03939 0.02426 8.2614 5.0865 8.2614 5.0865s6.2e-5 -4.5e-5 1.84e-4 -1.34e-4c0.0155-0.01131 1.6385-1.1948 1.6385-1.1948s-2.2e-5 -8.7e-5 -6.6e-5 -2.6e-4c-0.01123-0.04412-2.3555-9.2515-2.3555-9.2515s4.4e-5 -3.7e-5 1.31e-4 -1.11e-4c0.0223-0.01888 4.6769-3.96 4.6769-3.96s-1.21e-4 -5e-6 -3.6e-4 -1.6e-5c-0.03036-0.0013-3.2087-0.13654-3.2087-0.13654s-1.28e-4 1.09e-4 -3.83e-4 3.25e-4c-0.0323 0.02746-3.4135 2.9014-3.4135 2.9014s-5.1e-5 1.64e-4 -1.52e-4 4.87e-4c-0.0064 0.02035-0.34124 1.092-0.34124 1.092s1.8e-5 6.8e-5 5.2e-5 2.04e-4c0.0088 0.03467 1.8435 7.2714 1.8435 7.2714l-1.83e-4 -1.14e-4c-0.03109-0.01921-6.5205-4.0283-6.5205-4.0283h-5.18e-4 -1.1602s-6e-5 3.8e-5 -1.79e-4 1.13e-4c-0.03028 0.01921-6.3497 4.0283-6.3497 4.0283s1.7e-5 -7.1e-5 5.1e-5 -2.1e-4c0.0088-0.03565 1.8435-7.4763 1.8435-7.4763s-5.6e-5 -1.64e-4 -1.67e-4 -4.87e-4c-7e-3 -0.02035-0.37536-1.092-0.37536-1.092s-5.4e-5 -4.5e-5 -1.62e-4 -1.34e-4c-0.02751-0.02279-5.7693-4.7793-5.7693-4.7793s7.2e-5 -6e-6 2.15e-4 -1.7e-5c0.03646-0.0028 7.647-0.58035 7.647-0.58035s1.39e-4 -1.03e-4 4.11e-4 -3.04e-4c0.01717-0.01272 0.92135-0.68248 0.92135-0.68248s2.6e-5 -6.6e-5 7.8e-5 -1.96e-4c0.01319-0.03321 2.7651-6.9642 2.7651-6.9642s2.7e-5 6.7e-5 8.2e-5 1.99e-4c0.014 0.0337 2.9359 7.0667 2.9359 7.0667s1.38e-4 1.02e-4 4.1e-4 3.04e-4c0.01717 0.01272 0.92135 0.68248 0.92135 0.68248s7e-5 5e-6 2.11e-4 1.3e-5c0.03581 0.0023 7.5104 0.47794 7.5104 0.47794s1.2e-4 7e-6 3.59e-4 1.9e-5c0.03037 0.0016 3.2087 0.17068 3.2087 0.17068s2.5e-5 -2.2e-5 7.6e-5 -6.7e-5c0.0032-0.0028 0.27304-0.23891 0.27304-0.23891s-2.4e-5 -7.3e-5 -7.3e-5 -2.18e-4c-0.0061-0.01841-0.64857-1.9457-0.64857-1.9457s-8.9e-5 -5e-6 -2.67e-4 -1.7e-5c-0.04542-0.0029-9.5246-0.61449-9.5246-0.61449s-3.5e-5 -8.4e-5 -1.04e-4 -2.51e-4c-0.01758-0.04265-3.6869-8.9442-3.6869-8.9442h-2.26e-4 -2.014l2.01e-4 1.01e-4 1.26e-4 6.3e-5" style="color:#000000;fill-opacity:.022369;fill:#ff0066;opacity:1;paint-order:normal;text-indent:0;text-transform:none"/>
		<path d="m33.041 26.616-3.495 8.7883s-9.4e-5 7e-6 -2.81e-4 2.2e-5c-0.04769 0.0037-9.6024 0.74647-9.6024 0.74647s-1.4e-5 4.1e-5 -4e-5 1.24e-4c-0.0034 0.0105-0.61072 1.9-0.61072 1.9s3.9e-5 3.3e-5 1.19e-4 9.9e-5c0.02023 0.01682 7.2612 6.0397 7.2612 6.0397s-1.3e-5 5.2e-5 -3.8e-5 1.54e-4c-0.0063 0.02618-2.2734 9.3988-2.2734 9.3988s3.6e-5 2.5e-5 1.07e-4 7.6e-5c9e-3 0.0064 1.6286 1.1536 1.6286 1.1536s7.8e-5 -4.9e-5 2.34e-4 -1.48e-4c0.03977-0.02511 8.0076-5.0556 8.0076-5.0556s8e-5 5e-5 2.4e-4 1.48e-4c0.04078 0.02511 8.2112 5.0556 8.2112 5.0556s6.4e-5 -4.6e-5 1.9e-4 -1.38e-4c0.01605-0.0117 1.6285-1.1875 1.6285-1.1875s-2.3e-5 -9e-5 -6.9e-5 -2.69e-4c-0.01163-0.04566-2.3411-9.1952-2.3411-9.1952s4.6e-5 -3.8e-5 1.36e-4 -1.15e-4c0.02309-0.01955 4.6484-3.9359 4.6484-3.9359s-1.25e-4 -6e-6 -3.73e-4 -1.6e-5c-0.03143-0.0013-3.1892-0.13571-3.1892-0.13571s-1.33e-4 1.13e-4 -3.96e-4 3.37e-4c-0.03344 0.02842-3.3927 2.8838-3.3927 2.8838s-5.3e-5 1.7e-4 -1.57e-4 5.04e-4c-0.0066 0.02106-0.33916 1.0853-0.33916 1.0853s1.8e-5 7e-5 5.4e-5 2.11e-4c0.0091 0.03589 1.8322 7.2271 1.8322 7.2271l-1.89e-4 -1.17e-4c-0.03218-0.01988-6.4808-4.0038-6.4808-4.0038h-5.36e-4 -1.1531s-6.2e-5 3.9e-5 -1.85e-4 1.17e-4c-0.03134 0.01988-6.3111 4.0038-6.3111 4.0038s1.8e-5 -7.3e-5 5.4e-5 -2.17e-4c0.0091-0.0369 1.8322-7.4308 1.8322-7.4308s-5.8e-5 -1.7e-4 -1.73e-4 -5.04e-4c-0.0072-0.02106-0.37307-1.0853-0.37307-1.0853l-1.68e-4 -1.38e-4c-0.02848-0.02359-5.7342-4.7503-5.7342-4.7503s7.5e-5 -6e-6 2.23e-4 -1.7e-5c0.03774-0.0029 7.6004-0.57682 7.6004-0.57682s1.44e-4 -1.06e-4 4.26e-4 -3.15e-4c0.01777-0.01316 0.91572-0.67831 0.91572-0.67831s2.7e-5 -6.8e-5 8.1e-5 -2.03e-4c0.01365-0.03437 2.7483-6.9218 2.7483-6.9218s2.9e-5 6.8e-5 8.5e-5 2.05e-4c0.01449 0.03488 2.918 7.0236 2.918 7.0236s1.44e-4 1.06e-4 4.26e-4 3.15e-4c0.01777 0.01317 0.91572 0.67831 0.91572 0.67831s7.3e-5 5e-6 2.19e-4 1.4e-5c0.03707 0.0024 7.4647 0.47502 7.4647 0.47502s1.24e-4 7e-6 3.72e-4 2e-5c0.03143 0.0017 3.1892 0.16964 3.1892 0.16964s2.4e-5 -2.1e-5 7e-5 -6.2e-5c3e-3 -0.0026 0.27138-0.23746 0.27138-0.23746s-2.5e-5 -7.6e-5 -7.5e-5 -2.26e-4c-0.0064-0.01906-0.64462-1.9338-0.64462-1.9338s-9.3e-5 -6e-6 -2.77e-4 -1.8e-5c-0.04701-3e-3 -9.4666-0.61075-9.4666-0.61075s-3.5e-5 -8.7e-5 -1.07e-4 -2.6e-4c-0.0182-0.04415-3.6645-8.8898-3.6645-8.8898h-2.34e-4 -2.0018l2.09e-4 1.04e-4 1.17e-4 5.8e-5" style="color:#000000;fill-opacity:.023017;fill:#ff0066;opacity:1;paint-order:normal;text-indent:0;text-transform:none"/>
		<path d="m32.846 26.502-3.4743 8.7362s-9.7e-5 8e-6 -2.9e-4 2.3e-5c-0.04925 0.0038-9.5455 0.74205-9.5455 0.74205s-1.2e-5 3.8e-5 -3.7e-5 1.15e-4c-0.0031 0.0097-0.60711 1.8888-0.60711 1.8888s3.7e-5 3.1e-5 1.1e-4 9.2e-5c0.01871 0.01556 7.2182 6.0039 7.2182 6.0039s-1.1e-5 4.8e-5 -3.4e-5 1.43e-4c-0.0059 0.02422-2.26 9.3431-2.26 9.3431s3.3e-5 2.3e-5 9.8e-5 7e-5c0.0083 0.0059 1.619 1.1468 1.619 1.1468s8.1e-5 -5.1e-5 2.42e-4 -1.52e-4c0.04107-0.02593 7.9601-5.0256 7.9601-5.0256l2.49e-4 1.53e-4c0.04211 0.02593 8.1625 5.0256 8.1625 5.0256s6.6e-5 -4.8e-5 1.96e-4 -1.43e-4c0.01658-0.01209 1.6189-1.1805 1.6189-1.1805s-2.4e-5 -9.2e-5 -7.1e-5 -2.77e-4c-0.01201-0.04716-2.3273-9.1407-2.3273-9.1407s4.7e-5 -4e-5 1.41e-4 -1.19e-4c0.02384-0.02019 4.6209-3.9126 4.6209-3.9126s-1.28e-4 -6e-6 -3.84e-4 -1.7e-5c-0.03246-0.0014-3.1703-0.1349-3.1703-0.1349s-1.37e-4 1.17e-4 -4.08e-4 3.48e-4c-0.03453 0.02935-3.3726 2.8667-3.3726 2.8667s-5.5e-5 1.76e-4 -1.63e-4 5.21e-4c-0.0068 0.02175-0.33714 1.0789-0.33714 1.0789s1.8e-5 7.3e-5 5.5e-5 2.18e-4c0.0094 0.03707 1.8214 7.1843 1.8214 7.1843s-6.6e-5 -4e-5 -1.96e-4 -1.2e-4c-0.03324-0.02054-6.4424-3.9801-6.4424-3.9801h-5.54e-4 -1.1463s-6.3e-5 4.1e-5 -1.9e-4 1.21e-4c-0.03237 0.02054-6.2737 3.9801-6.2737 3.9801s1.8e-5 -7.5e-5 5.5e-5 -2.24e-4c0.0094-0.03811 1.8214-7.3868 1.8214-7.3868s-6e-5 -1.75e-4 -1.79e-4 -5.2e-4c-0.0075-0.02176-0.37086-1.0789-0.37086-1.0789s-5.8e-5 -4.8e-5 -1.73e-4 -1.44e-4c-0.02941-0.02436-5.7002-4.7221-5.7002-4.7221s7.6e-5 -5e-6 2.29e-4 -1.7e-5c0.03898-3e-3 7.5554-0.5734 7.5554-0.5734s1.48e-4 -1.09e-4 4.39e-4 -3.25e-4c0.01836-0.0136 0.91028-0.67428 0.91028-0.67428s2.8e-5 -7e-5 8.3e-5 -2.09e-4c0.0141-0.0355 2.732-6.8808 2.732-6.8808s2.9e-5 7.1e-5 8.8e-5 2.12e-4c0.01497 0.03602 2.9007 6.982 2.9007 6.982s1.48e-4 1.09e-4 4.4e-4 3.25e-4c0.01835 0.0136 0.91028 0.67428 0.91028 0.67428l2.25e-4 1.5e-5c0.03829 0.0024 7.4205 0.47221 7.4205 0.47221s1.29e-4 7e-6 3.84e-4 2.1e-5c0.03246 0.0017 3.1703 0.16863 3.1703 0.16863s2.2e-5 -2e-5 6.5e-5 -5.8e-5c0.0027-0.0024 0.26978-0.23606 0.26978-0.23606s-2.6e-5 -7.9e-5 -7.7e-5 -2.34e-4c-0.0066-0.01968-0.6408-1.9223-0.6408-1.9223s-9.6e-5 -6e-6 -2.86e-4 -1.8e-5c-0.04856-0.0031-9.4106-0.60713-9.4106-0.60713s-3.7e-5 -9e-5 -1.11e-4 -2.69e-4c-0.01879-0.0456-3.6428-8.8371-3.6428-8.8371h-2.41e-4 -1.9899l3.24e-4 1.62e-4" style="color:#000000;fill-opacity:.023643;fill:#ff0066;opacity:1;paint-order:normal;text-indent:0;text-transform:none"/>
		<path d="m32.657 26.391-3.4542 8.6858s-1e-4 8e-6 -2.99e-4 2.3e-5c-0.05077 0.0039-9.4903 0.73776-9.4903 0.73776s-1.1e-5 3.5e-5 -3.4e-5 1.06e-4c-0.0029 9e-3 -0.60361 1.8779-0.60361 1.8779s3.4e-5 2.8e-5 1.02e-4 8.5e-5c0.01724 0.01434 7.1765 5.9693 7.1765 5.9693s-1e-5 4.4e-5 -3.2e-5 1.31e-4c-0.0054 0.02232-2.2469 9.2892-2.2469 9.2892s3e-5 2.2e-5 9e-5 6.5e-5c0.0077 0.0054 1.6096 1.1401 1.6096 1.1401s8.3e-5 -5.3e-5 2.49e-4 -1.58e-4c0.04233-0.02673 7.9142-4.9966 7.9142-4.9966s8.5e-5 5.2e-5 2.55e-4 1.57e-4c0.04341 0.02673 8.1154 4.9966 8.1154 4.9966s6.8e-5 -5e-5 2.02e-4 -1.48e-4c0.01709-0.01246 1.6095-1.1737 1.6095-1.1737s-2.4e-5 -9.6e-5 -7.3e-5 -2.86e-4c-0.01238-0.04861-2.3138-9.0879-2.3138-9.0879s4.8e-5 -4.1e-5 1.45e-4 -1.23e-4c0.02457-0.02081 4.5942-3.89 4.5942-3.89s-1.33e-4 -6e-6 -3.97e-4 -1.7e-5c-0.03346-0.0014-3.152-0.13413-3.152-0.13413s-1.41e-4 1.2e-4 -4.21e-4 3.59e-4c-0.0356 0.03026-3.3531 2.8501-3.3531 2.8501s-5.7e-5 1.81e-4 -1.68e-4 5.37e-4c-7e-3 0.02242-0.33519 1.0726-0.33519 1.0726s1.9e-5 7.6e-5 5.7e-5 2.25e-4c0.0097 0.03821 1.8109 7.1428 1.8109 7.1428s-6.8e-5 -4.2e-5 -2.02e-4 -1.25e-4c-0.03426-0.02117-6.4052-3.9571-6.4052-3.9571h-5.7e-4 -1.1396s-6.6e-5 4.2e-5 -1.97e-4 1.25e-4c-0.03337 0.02117-6.2374 3.9571-6.2374 3.9571l5.7e-5 -2.31e-4c0.0097-0.03929 1.8109-7.3441 1.8109-7.3441s-6.2e-5 -1.81e-4 -1.84e-4 -5.37e-4c-0.0077-0.02242-0.36871-1.0726-0.36871-1.0726s-6e-5 -4.9e-5 -1.78e-4 -1.48e-4c-0.03032-0.02511-5.6673-4.6948-5.6673-4.6948l2.37e-4 -1.8e-5c0.04018-0.0031 7.5118-0.57009 7.5118-0.57009s1.52e-4 -1.13e-4 4.53e-4 -3.36e-4c0.01892-0.01402 0.90501-0.67038 0.90501-0.67038s2.9e-5 -7.2e-5 8.6e-5 -2.15e-4c0.01453-0.03659 2.7162-6.8411 2.7162-6.8411s3e-5 7.3e-5 9e-5 2.19e-4c0.01543 0.03713 2.884 6.9417 2.884 6.9417s1.53e-4 1.13e-4 4.53e-4 3.35e-4c0.01892 0.01402 0.90501 0.67038 0.90501 0.67038s7.7e-5 5e-6 2.32e-4 1.5e-5c0.03946 0.0025 7.3776 0.46948 7.3776 0.46948l3.96e-4 2.1e-5c0.03346 0.0018 3.152 0.16766 3.152 0.16766s2e-5 -1.8e-5 6e-5 -5.3e-5c0.0025-0.0022 0.26822-0.2347 0.26822-0.2347s-2.7e-5 -8e-5 -8e-5 -2.4e-4c-0.006763-0.020289-0.6371-1.9112-0.6371-1.9112s-9.8e-5 -6e-6 -2.95e-4 -1.9e-5c-0.05005-0.0032-9.3562-0.60362-9.3562-0.60362s-3.8e-5 -9.3e-5 -1.14e-4 -2.77e-4c-0.01937-0.047-3.6217-8.7861-3.6217-8.7861h-2.49e-4 -1.9784l3.22e-4 1.61e-4" style="color:#000000;fill-opacity:.02425;fill:#ff0066;opacity:1;paint-order:normal;text-indent:0;text-transform:none"/>
		<path d="m32.473 26.284s-3.4347 8.6368-3.4347 8.6368-1.03e-4 8e-6 -3.08e-4 2.4e-5c-0.05224 0.0041-9.4368 0.7336-9.4368 0.7336s-1e-5 3.2e-5 -3.1e-5 9.7e-5c-0.0026 0.0082-0.60021 1.8673-0.60021 1.8673s3.2e-5 2.6e-5 9.4e-5 7.8e-5c0.01581 0.01316 7.1361 5.9356 7.1361 5.9356s-1e-5 4.1e-5 -3e-5 1.21e-4c-5e-3 0.02047-2.2342 9.2368-2.2342 9.2368s2.8e-5 1.9e-5 8.4e-5 5.9e-5c7e-3 5e-3 1.6006 1.1337 1.6006 1.1337s8.6e-5 -5.4e-5 2.57e-4 -1.62e-4c0.04356-0.0275 7.8695-4.9684 7.8695-4.9684s8.8e-5 5.4e-5 2.63e-4 1.62e-4c0.04467 0.0275 8.0696 4.9684 8.0696 4.9684s6.9e-5 -5.1e-5 2.08e-4 -1.52e-4c0.01758-0.01282 1.6004-1.167 1.6004-1.167s-2.5e-5 -9.9e-5 -7.5e-5 -2.95e-4c-0.01274-0.05002-2.3008-9.0367-2.3008-9.0367s5e-5 -4.2e-5 1.49e-4 -1.26e-4c0.02529-0.02141 4.5683-3.8681 4.5683-3.8681s-1.37e-4 -6e-6 -4.08e-4 -1.7e-5c-0.03443-0.0015-3.1342-0.13337-3.1342-0.13337s-1.45e-4 1.23e-4 -4.33e-4 3.69e-4c-0.03663 0.03113-3.3342 2.834-3.3342 2.834s-5.8e-5 1.86e-4 -1.72e-4 5.52e-4c-0.0072 0.02307-0.33329 1.0665-0.33329 1.0665s1.9e-5 7.7e-5 5.9e-5 2.32e-4c0.01 0.03932 1.8007 7.1025 1.8007 7.1025s-7e-5 -4.3e-5 -2.08e-4 -1.28e-4c-0.03526-0.02178-6.369-3.9348-6.369-3.9348h-5.86e-4 -1.1332s-6.7e-5 4.3e-5 -2.02e-4 1.29e-4c-0.03433 0.02178-6.2023 3.9348-6.2023 3.9348s2e-5 -7.9e-5 5.9e-5 -2.38e-4c0.01-0.04042 1.8007-7.3027 1.8007-7.3027s-6.4e-5 -1.86e-4 -1.9e-4 -5.52e-4c-0.0079-0.02307-0.36662-1.0665-0.36662-1.0665s-6.1e-5 -5.1e-5 -1.84e-4 -1.52e-4c-0.03119-0.02584-5.6353-4.6684-5.6353-4.6684s8.2e-5 -7e-6 2.44e-4 -1.9e-5c0.04135-0.0031 7.4694-0.56687 7.4694-0.56687s1.57e-4 -1.16e-4 4.66e-4 -3.45e-4c0.01947-0.01442 0.89989-0.66658 0.89989-0.66658s3e-5 -7.4e-5 8.8e-5 -2.22e-4c0.01495-0.03766 2.7009-6.8025 2.7009-6.8025s3.1e-5 7.5e-5 9.3e-5 2.25e-4c0.01588 0.03821 2.8677 6.9026 2.8677 6.9026s1.57e-4 1.16e-4 4.66e-4 3.45e-4c0.01947 0.01442 0.89989 0.66658 0.89989 0.66658s8e-5 5e-6 2.39e-4 1.6e-5c0.04061 0.0026 7.336 0.46684 7.336 0.46684s1.37e-4 7e-6 4.08e-4 2.2e-5c0.03443 0.0018 3.1342 0.16671 3.1342 0.16671s1.8e-5 -1.7e-5 5.5e-5 -4.9e-5c0.0023-2e-3 0.26672-0.23338 0.26672-0.23338s-2.8e-5 -8.3e-5 -8.3e-5 -2.47e-4c-7e-3 -0.02088-0.6335-1.9005-0.6335-1.9005s-1.02e-4 -7e-6 -3.03e-4 -2e-5c-0.0515-0.0033-9.3034-0.60022-9.3034-0.60022s-4e-5 -9.5e-5 -1.18e-4 -2.85e-4c-0.01994-0.04836-3.6013-8.7365-3.6013-8.7365h-2.56e-4 -1.9672l2.29e-4 1.15e-4 9.1e-5 4.5e-5" style="color:#000000;fill-opacity:.024839;fill:#ff0066;opacity:1;paint-order:normal;text-indent:0;text-transform:none"/>
		<path d="m32.294 26.179s-3.4158 8.5892-3.4158 8.5892-1.06e-4 8e-6 -3.16e-4 2.5e-5c-0.05367 0.0042-9.3848 0.72955-9.3848 0.72955s-9e-6 3e-5 -2.8e-5 8.9e-5c-0.0024 0.0075-0.5969 1.857-0.5969 1.857s2.9e-5 2.4e-5 8.5e-5 7.1e-5c0.01443 0.012 7.0967 5.9029 7.0967 5.9029s-9e-6 3.6e-5 -2.7e-5 1.1e-4c-0.0045 0.01868-2.2219 9.1859-2.2219 9.1859s2.5e-5 1.8e-5 7.6e-5 5.4e-5c0.0064 0.0045 1.5917 1.1275 1.5917 1.1275s8.8e-5 -5.6e-5 2.63e-4 -1.66e-4c0.04476-0.02826 7.8261-4.941 7.8261-4.941s9.1e-5 5.6e-5 2.71e-4 1.67e-4c0.04589 0.02826 8.0251 4.941 8.0251 4.941s7.2e-5 -5.2e-5 2.14e-4 -1.56e-4c0.01806-0.01317 1.5916-1.1606 1.5916-1.1606s-2.6e-5 -1.01e-4 -7.7e-5 -3.03e-4c-0.01308-0.05139-2.2881-8.9868-2.2881-8.9868l1.53e-4 -1.29e-4c0.02598-0.022 4.5431-3.8467 4.5431-3.8467s-1.41e-4 -6e-6 -4.19e-4 -1.8e-5c-0.03537-0.0015-3.1169-0.13263-3.1169-0.13263s-1.5e-4 1.27e-4 -4.46e-4 3.79e-4c-0.03763 0.03199-3.3158 2.8184-3.3158 2.8184s-6e-5 1.92e-4 -1.77e-4 5.68e-4c-0.0074 0.02371-0.33145 1.0606-0.33145 1.0606l6e-5 2.37e-4c0.01024 0.04039 1.7907 7.0633 1.7907 7.0633s-7.1e-5 -4.4e-5 -2.13e-4 -1.31e-4c-0.03622-0.02238-6.3339-3.9131-6.3339-3.9131h-6.03e-4 -1.1269s-6.9e-5 4.4e-5 -2.08e-4 1.32e-4c-0.03527 0.02238-6.168 3.9131-6.168 3.9131s2e-5 -8.1e-5 6e-5 -2.44e-4c0.01024-0.04153 1.7907-7.2624 1.7907-7.2624s-6.5e-5 -1.91e-4 -1.95e-4 -5.68e-4c-0.0081-0.02371-0.36459-1.0606-0.36459-1.0606s-6.3e-5 -5.3e-5 -1.89e-4 -1.57e-4c-0.03205-0.02655-5.6042-4.6426-5.6042-4.6426s8.4e-5 -6e-6 2.5e-4 -1.9e-5c0.04248-0.0032 7.4282-0.56374 7.4282-0.56374s1.61e-4 -1.19e-4 4.78e-4 -3.54e-4c0.02-0.01482 0.89491-0.6629 0.89491-0.6629s3e-5 -7.6e-5 9e-5 -2.28e-4c0.01536-0.03869 2.686-6.7649 2.686-6.7649l9.6e-5 2.31e-4c0.01631 0.03926 2.8519 6.8645 2.8519 6.8645s1.62e-4 1.2e-4 4.79e-4 3.55e-4c0.02 0.01482 0.89491 0.6629 0.89491 0.6629s8.2e-5 5e-6 2.46e-4 1.6e-5c0.04172 0.0027 7.2955 0.46426 7.2955 0.46426s1.41e-4 8e-6 4.19e-4 2.3e-5c0.03537 0.0019 3.1169 0.16579 3.1169 0.16579s1.7e-5 -1.4e-5 5.1e-5 -4.4e-5c0.0021-0.0018 0.26525-0.23209 0.26525-0.23209s-2.8e-5 -8.5e-5 -8.5e-5 -2.54e-4c-0.0071-0.02145-0.63-1.89-0.63-1.89s-1.04e-4 -6e-6 -3.12e-4 -2e-5c-0.05291-0.0034-9.2521-0.59691-9.2521-0.59691s-4e-5 -9.8e-5 -1.2e-4 -2.93e-4c-0.02048-0.04969-3.5814-8.6883-3.5814-8.6883h-2.63e-4 -1.9564l2.35e-4 1.18e-4 8.3e-5 4.2e-5" style="color:#000000;fill-opacity:.025412;fill:#ff0066;opacity:1;paint-order:normal;text-indent:0;text-transform:none"/>
		<path d="m32.12 26.078s-3.3973 8.5428-3.3973 8.5428-1.08e-4 9e-6 -3.24e-4 2.6e-5c-0.05506 0.0043-9.334 0.72561-9.334 0.72561s-8e-6 2.7e-5 -2.5e-5 8e-5c-0.0022 0.0068-0.59368 1.847-0.59368 1.847s2.5e-5 2.1e-5 7.7e-5 6.4e-5c0.01308 0.01088 7.0584 5.871 7.0584 5.871s-9e-6 3.3e-5 -2.5e-5 1e-4c-0.0041 0.01693-2.2099 9.1363-2.2099 9.1363l6.9e-5 4.8e-5c0.0058 0.0041 1.5831 1.1214 1.5831 1.1214s9.1e-5 -5.7e-5 2.71e-4 -1.71e-4c0.04592-0.02899 7.7838-4.9143 7.7838-4.9143s9.3e-5 5.7e-5 2.77e-4 1.71e-4c0.04709 0.02899 7.9817 4.9143 7.9817 4.9143s7.4e-5 -5.4e-5 2.2e-4 -1.6e-4c0.01853-0.01351 1.583-1.1543 1.583-1.1543s-2.6e-5 -1.03e-4 -7.9e-5 -3.1e-4c-0.01342-0.05273-2.2757-8.9383-2.2757-8.9383s5.2e-5 -4.5e-5 1.57e-4 -1.33e-4c0.02666-0.02257 4.5185-3.8259 4.5185-3.8259s-1.44e-4 -6e-6 -4.3e-4 -1.9e-5c-0.03629-0.0015-3.1-0.13192-3.1-0.13192s-1.53e-4 1.3e-4 -4.57e-4 3.89e-4c-0.03861 0.03282-3.2979 2.8032-3.2979 2.8032s-6.1e-5 1.97e-4 -1.82e-4 5.83e-4c-0.0076 0.02432-0.32965 1.0549-0.32965 1.0549s2e-5 8.1e-5 6.1e-5 2.44e-4c0.01051 0.04144 1.781 7.0252 1.781 7.0252l-2.19e-4 -1.35e-4c-0.03716-0.02296-6.2997-3.8919-6.2997-3.8919h-6.19e-4 -1.1208s-7.1e-5 4.6e-5 -2.13e-4 1.36e-4c-0.03619 0.02296-6.1347 3.8919-6.1347 3.8919s2.1e-5 -8.4e-5 6.2e-5 -2.51e-4c0.01051-0.04261 1.781-7.2232 1.781-7.2232s-6.8e-5 -1.96e-4 -2e-4 -5.82e-4c-0.0084-0.02432-0.36262-1.0549-0.36262-1.0549s-6.5e-5 -5.3e-5 -1.94e-4 -1.6e-4c-0.03288-0.02724-5.574-4.6175-5.574-4.6175s8.5e-5 -7e-6 2.56e-4 -2e-5c0.04358-0.0033 7.388-0.5607 7.388-0.5607s1.65e-4 -1.22e-4 4.91e-4 -3.63e-4c0.02052-0.0152 0.89006-0.6593 0.89006-0.6593s3.1e-5 -7.9e-5 9.2e-5 -2.34e-4c0.01576-0.03969 2.6715-6.7284 2.6715-6.7284l9.9e-5 2.37e-4c0.01673 0.04028 2.8365 6.8274 2.8365 6.8274s1.66e-4 1.22e-4 4.92e-4 3.64e-4c0.02052 0.0152 0.89006 0.6593 0.89006 0.6593s8.4e-5 5e-6 2.52e-4 1.6e-5c0.04281 0.0027 7.2561 0.46175 7.2561 0.46175s1.44e-4 7e-6 4.29e-4 2.3e-5c0.03629 0.0019 3.1 0.16489 3.1 0.16489s1.5e-5 -1.4e-5 4.6e-5 -4e-5c0.0019-0.0017 0.26382-0.23084 0.26382-0.23084s-2.9e-5 -8.8e-5 -8.6e-5 -2.61e-4c-0.0073-0.02201-0.6266-1.8797-0.6266-1.8797s-1.07e-4 -6e-6 -3.19e-4 -2e-5c-0.05429-0.0035-9.2021-0.59368-9.2021-0.59368s-4.1e-5 -1.01e-4 -1.24e-4 -3.01e-4c-0.02101-0.05098-3.5621-8.6414-3.5621-8.6414h-2.69e-4 -1.9458l2.41e-4 1.2e-4 7.5e-5 3.8e-5" style="color:#000000;fill-opacity:.025971;fill:#ff0066;opacity:1;paint-order:normal;text-indent:0;text-transform:none"/>
		<path d="m31.95 25.979s-3.3794 8.4975-3.3794 8.4975-1.11e-4 9e-6 -3.32e-4 2.6e-5c-0.05642 0.0044-9.2846 0.72177-9.2846 0.72177s-7e-6 2.4e-5 -2.3e-5 7.2e-5c-2e-3 0.0061-0.59053 1.8372-0.59053 1.8372s2.3e-5 1.9e-5 6.9e-5 5.8e-5c0.01176 0.0098 7.021 5.8399 7.021 5.8399l-2.1e-5 9e-5c-0.0037 0.01522-2.1982 9.0879-2.1982 9.0879s2.1e-5 1.5e-5 6.2e-5 4.4e-5c0.0052 0.0037 1.5748 1.1155 1.5748 1.1155s9.3e-5 -5.9e-5 2.77e-4 -1.75e-4c0.04705-0.02971 7.7426-4.8883 7.7426-4.8883s9.5e-5 5.8e-5 2.84e-4 1.75e-4c0.04825 0.02971 7.9394 4.8883 7.9394 4.8883s7.6e-5 -5.5e-5 2.25e-4 -1.64e-4c0.01899-0.01385 1.5746-1.1482 1.5746-1.1482s-2.8e-5 -1.07e-4 -8.2e-5 -3.19e-4c-0.01376-0.05403-2.2637-8.8909-2.2637-8.8909s5.4e-5 -4.5e-5 1.61e-4 -1.36e-4c0.02731-0.02313 4.4946-3.8057 4.4946-3.8057s-1.48e-4 -6e-6 -4.41e-4 -1.9e-5c-0.03719-0.0016-3.0836-0.13122-3.0836-0.13122s-1.57e-4 1.34e-4 -4.68e-4 3.98e-4c-0.03956 0.03363-3.2804 2.7883-3.2804 2.7883s-6.2e-5 2.01e-4 -1.86e-4 5.96e-4c-0.0078 0.02492-0.3279 1.0493-0.3279 1.0493s2.1e-5 8.3e-5 6.4e-5 2.5e-4c0.01077 0.04247 1.7716 6.988 1.7716 6.988s-7.5e-5 -4.6e-5 -2.25e-4 -1.39e-4c-0.03808-0.02353-6.2663-3.8713-6.2663-3.8713h-6.34e-4 -1.1149s-7.3e-5 4.7e-5 -2.19e-4 1.39e-4c-0.03708 0.02353-6.1022 3.8713-6.1022 3.8713s2.1e-5 -8.6e-5 6.3e-5 -2.57e-4c0.01077-0.04366 1.7716-7.1849 1.7716-7.1849s-6.9e-5 -2.01e-4 -2.05e-4 -5.96e-4c-0.0086-0.02492-0.36069-1.0493-0.36069-1.0493l-1.98e-4 -1.65e-4c-0.03369-0.02791-5.5444-4.5931-5.5444-4.5931s8.8e-5 -7e-6 2.63e-4 -2e-5c0.04466-0.0034 7.3489-0.55773 7.3489-0.55773s1.7e-4 -1.26e-4 5.03e-4 -3.73e-4c0.02103-0.01558 0.88533-0.6558 0.88533-0.6558s3.2e-5 -8e-5 9.5e-5 -2.39e-4c0.01615-0.04067 2.6574-6.6927 2.6574-6.6927s3.4e-5 8.1e-5 1.01e-4 2.43e-4c0.01715 0.04127 2.8214 6.7912 2.8214 6.7912s1.69e-4 1.26e-4 5.03e-4 3.73e-4c0.02103 0.01558 0.88533 0.6558 0.88533 0.6558s8.6e-5 6e-6 2.58e-4 1.7e-5c0.04386 0.0028 7.2177 0.4593 7.2177 0.4593s1.47e-4 8e-6 4.4e-4 2.4e-5c0.03719 2e-3 3.0836 0.16402 3.0836 0.16402s1.4e-5 -1.2e-5 4.1e-5 -3.6e-5c0.0017-0.0015 0.26243-0.22962 0.26243-0.22962l-8.9e-5 -2.67e-4c-0.0075-0.02255-0.62328-1.8698-0.62328-1.8698l-3.27e-4 -2.1e-5c-0.05563-0.0036-9.1534-0.59054-9.1534-0.59054s-4.2e-5 -1.03e-4 -1.27e-4 -3.07e-4c-0.02153-0.05224-3.5432-8.5956-3.5432-8.5956h-2.77e-4 -1.9355l2.47e-4 1.23e-4 6.8e-5 3.4e-5" style="color:#000000;fill-opacity:.026515;fill:#ff0066;opacity:1;paint-order:normal;text-indent:0;text-transform:none"/>
		<path d="m31.785 25.882s-3.3618 8.4533-3.3618 8.4533-1.14e-4 8e-6 -3.41e-4 2.6e-5c-0.05775 0.0045-9.2363 0.71801-9.2363 0.71801s-7e-6 2.1e-5 -2.1e-5 6.4e-5c-0.0017 0.0054-0.58746 1.8277-0.58746 1.8277s2.1e-5 1.8e-5 6.2e-5 5.2e-5c0.01047 0.0087 6.9845 5.8095 6.9845 5.8095s-7e-6 2.6e-5 -2e-5 7.9e-5c-0.0033 0.01355-2.1868 9.0406-2.1868 9.0406s1.9e-5 1.3e-5 5.6e-5 3.9e-5c0.0047 0.0033 1.5666 1.1097 1.5666 1.1097s9.4e-5 -6e-5 2.83e-4 -1.79e-4c0.04816-0.03041 7.7023-4.8628 7.7023-4.8628s9.7e-5 6e-5 2.91e-4 1.79e-4c0.04938 0.03041 7.8981 4.8628 7.8981 4.8628s7.8e-5 -5.6e-5 2.31e-4 -1.68e-4c0.01944-0.01417 1.5664-1.1422 1.5664-1.1422s-2.8e-5 -1.09e-4 -8.3e-5 -3.26e-4c-0.01408-0.0553-2.2519-8.8446-2.2519-8.8446s5.5e-5 -4.6e-5 1.65e-4 -1.39e-4c0.02796-0.02367 4.4712-3.7859 4.4712-3.7859s-1.51e-4 -7e-6 -4.51e-4 -1.9e-5c-0.03806-0.0016-3.0675-0.13053-3.0675-0.13053s-1.6e-4 1.37e-4 -4.79e-4 4.08e-4c-0.04049 0.03442-3.2633 2.7738-3.2633 2.7738s-6.4e-5 2.05e-4 -1.9e-4 6.1e-4c-8e-3 0.02551-0.32619 1.0438-0.32619 1.0438s2.1e-5 8.5e-5 6.4e-5 2.56e-4c0.01102 0.04347 1.7624 6.9516 1.7624 6.9516s-7.6e-5 -4.8e-5 -2.29e-4 -1.42e-4c-0.03898-0.02408-6.2337-3.8512-6.2337-3.8512h-6.49e-4 -1.109s-7.5e-5 4.7e-5 -2.23e-4 1.42e-4c-0.03796 0.02408-6.0705 3.8512-6.0705 3.8512s2.2e-5 -8.8e-5 6.5e-5 -2.64e-4c0.01102-0.04469 1.7624-7.1475 1.7624-7.1475s-7e-5 -2.06e-4 -2.1e-4 -6.11e-4c-0.0088-0.02551-0.35881-1.0438-0.35881-1.0438s-6.8e-5 -5.6e-5 -2.03e-4 -1.68e-4c-0.03449-0.02857-5.5156-4.5692-5.5156-4.5692s9e-5 -6e-6 2.7e-4 -2e-5c0.04571-0.0035 7.3107-0.55483 7.3107-0.55483s1.74e-4 -1.29e-4 5.16e-4 -3.82e-4c0.02152-0.01594 0.88071-0.65238 0.88071-0.65238s3.2e-5 -8.2e-5 9.7e-5 -2.45e-4c0.01653-0.04163 2.6435-6.6579 2.6435-6.6579s3.4e-5 8.3e-5 1.03e-4 2.49e-4c0.01755 0.04224 2.8068 6.7559 2.8068 6.7559s1.73e-4 1.28e-4 5.15e-4 3.81e-4c0.02152 0.01594 0.88071 0.65238 0.88071 0.65238s8.8e-5 6e-6 2.64e-4 1.7e-5c0.04489 0.0029 7.1801 0.45692 7.1801 0.45692s1.51e-4 8e-6 4.5e-4 2.4e-5c0.03806 2e-3 3.0675 0.16317 3.0675 0.16317s1.2e-5 -1.1e-5 3.7e-5 -3.2e-5c0.0015-0.0013 0.26107-0.22844 0.26107-0.22844s-3.1e-5 -9.1e-5 -9.1e-5 -2.73e-4c-0.0077-0.02308-0.62003-1.86-0.62003-1.86s-1.12e-4 -7e-6 -3.35e-4 -2.1e-5c-0.05693-0.0037-9.1057-0.58746-9.1057-0.58746s-4.3e-5 -1.05e-4 -1.3e-4 -3.15e-4c-0.02204-0.05347-3.5248-8.5509-3.5248-8.5509h-2.83e-4 -1.9254l2.53e-4 1.27e-4 6e-5 3e-5" style="color:#000000;fill-opacity:.027047;fill:#ff0066;opacity:1;paint-order:normal;text-indent:0;text-transform:none"/>
		<path d="m31.623 25.787s-3.3446 8.4101-3.3446 8.4101-1.17e-4 9e-6 -3.48e-4 2.7e-5c-0.05905 0.0046-9.1891 0.71434-9.1891 0.71434l-1.8e-5 5.7e-5c-0.0015 0.0048-0.58447 1.8183-0.58447 1.8183s1.8e-5 1.5e-5 5.5e-5 4.5e-5c0.0092 0.0077 6.9488 5.7798 6.9488 5.7798s-6e-6 2.4e-5 -1.7e-5 7e-5c-0.0029 0.01193-2.1756 8.9944-2.1756 8.9944s1.7e-5 1.2e-5 4.9e-5 3.5e-5c0.0041 0.0029 1.5586 1.104 1.5586 1.104s9.7e-5 -6.1e-5 2.9e-4 -1.83e-4c0.04924-0.03109 7.6629-4.838 7.6629-4.838l2.97e-4 1.83e-4c0.05049 0.03109 7.8578 4.838 7.8578 4.838s7.9e-5 -5.8e-5 2.35e-4 -1.72e-4c0.01987-0.01449 1.5584-1.1364 1.5584-1.1364s-2.9e-5 -1.11e-4 -8.5e-5 -3.33e-4c-0.0144-0.05654-2.2404-8.7994-2.2404-8.7994s5.7e-5 -4.8e-5 1.69e-4 -1.43e-4c0.02858-0.0242 4.4483-3.7665 4.4483-3.7665s-1.54e-4 -6e-6 -4.6e-4 -1.9e-5c-0.03892-0.0017-3.0518-0.12987-3.0518-0.12987s-1.65e-4 1.4e-4 -4.91e-4 4.17e-4c-0.0414 0.03519-3.2466 2.7596-3.2466 2.7596s-6.6e-5 2.1e-4 -1.95e-4 6.24e-4c-0.0082 0.02608-0.32452 1.0385-0.32452 1.0385s2.2e-5 8.7e-5 6.6e-5 2.62e-4c0.01127 0.04444 1.7534 6.9161 1.7534 6.9161s-7.8e-5 -4.8e-5 -2.34e-4 -1.45e-4c-0.03985-0.02462-6.2018-3.8315-6.2018-3.8315h-6.64e-4 -1.1034s-7.6e-5 4.9e-5 -2.28e-4 1.45e-4c-0.03881 0.02462-6.0394 3.8315-6.0394 3.8315s2.2e-5 -9e-5 6.7e-5 -2.69e-4c0.01127-0.04569 1.7534-7.111 1.7534-7.111s-7.2e-5 -2.1e-4 -2.15e-4 -6.24e-4c-9e-3 -0.02608-0.35697-1.0385-0.35697-1.0385s-7e-5 -5.7e-5 -2.08e-4 -1.72e-4c-0.03526-0.02921-5.4874-4.5458-5.4874-4.5458s9.2e-5 -7e-6 2.75e-4 -2e-5c0.04674-0.0035 7.2733-0.55199 7.2733-0.55199s1.78e-4 -1.31e-4 5.27e-4 -3.9e-4c0.02201-0.0163 0.8762-0.64904 0.8762-0.64904s3.3e-5 -8.4e-5 9.9e-5 -2.51e-4c0.0169-0.04257 2.63-6.6239 2.63-6.6239s3.6e-5 8.5e-5 1.06e-4 2.55e-4c0.01794 0.04319 2.7924 6.7214 2.7924 6.7214s1.77e-4 1.31e-4 5.27e-4 3.9e-4c0.02201 0.0163 0.8762 0.64904 0.8762 0.64904s9.1e-5 6e-6 2.71e-4 1.7e-5c0.0459 0.0029 7.1434 0.45458 7.1434 0.45458s1.54e-4 9e-6 4.61e-4 2.5e-5c0.03892 0.0021 3.0518 0.16233 3.0518 0.16233s1e-5 -1e-5 3.2e-5 -2.8e-5c0.0013-0.0012 0.25974-0.22727 0.25974-0.22727s-3.1e-5 -9.4e-5 -9.3e-5 -2.8e-4c-0.0079-0.0236-0.61686-1.8505-0.61686-1.8505s-1.14e-4 -7e-6 -3.43e-4 -2.2e-5c-0.05821-0.0038-9.0592-0.58446-9.0592-0.58446s-4.5e-5 -1.08e-4 -1.33e-4 -3.22e-4c-0.02253-0.05467-3.5068-8.5072-3.5068-8.5072h-2.89e-4 -1.9156l2.59e-4 1.29e-4 5.3e-5 2.7e-5" style="color:#000000;fill-opacity:.027567;fill:#ff0066;opacity:1;paint-order:normal;text-indent:0;text-transform:none"/>
		<path d="m31.464 25.694s-3.3278 8.3679-3.3278 8.3679-1.19e-4 9e-6 -3.55e-4 2.7e-5c-0.06032 0.0047-9.1429 0.71075-9.1429 0.71075s-6e-6 1.6e-5 -1.6e-5 4.9e-5c-0.0013 0.0041-0.58153 1.8092-0.58153 1.8092s1.5e-5 1.3e-5 4.7e-5 3.9e-5c8e-3 0.0066 6.9139 5.7508 6.9139 5.7508s-5e-6 2.1e-5 -1.5e-5 6.1e-5c-0.0025 0.01033-2.1647 8.9492-2.1647 8.9492s1.5e-5 1e-5 4.2e-5 2.9e-5c0.0036 0.0025 1.5507 1.0984 1.5507 1.0984s9.9e-5 -6.3e-5 2.96e-4 -1.88e-4c0.0503-0.03176 7.6244-4.8137 7.6244-4.8137s1.02e-4 6.3e-5 3.04e-4 1.87e-4c0.05158 0.03176 7.8183 4.8137 7.8183 4.8137s8.1e-5 -5.9e-5 2.41e-4 -1.76e-4c0.0203-0.0148 1.5505-1.1307 1.5505-1.1307s-2.9e-5 -1.14e-4 -8.7e-5 -3.4e-4c-0.01471-0.05776-2.2291-8.7552-2.2291-8.7552s5.7e-5 -4.9e-5 1.72e-4 -1.46e-4c0.0292-0.02472 4.426-3.7476 4.426-3.7476s-1.57e-4 -7e-6 -4.7e-4 -2e-5c-0.03976-0.0017-3.0365-0.12921-3.0365-0.12921s-1.68e-4 1.43e-4 -5.01e-4 4.26e-4c-0.04229 0.03595-3.2303 2.7457-3.2303 2.7457s-6.7e-5 2.15e-4 -2e-4 6.38e-4c-0.0083 0.02664-0.32288 1.0332-0.32288 1.0332s2.2e-5 8.9e-5 6.7e-5 2.67e-4c0.01151 0.0454 1.7446 6.8813 1.7446 6.8813s-8e-5 -5e-5 -2.4e-4 -1.48e-4c-0.04071-0.02515-6.1707-3.8122-6.1707-3.8122h-6.78e-4 -1.0978s-7.8e-5 4.9e-5 -2.34e-4 1.48e-4c-0.03964 0.02515-6.0091 3.8122-6.0091 3.8122s2.2e-5 -9.2e-5 6.8e-5 -2.75e-4c0.01151-0.04668 1.7446-7.0753 1.7446-7.0753s-7.4e-5 -2.15e-4 -2.19e-4 -6.38e-4c-0.0092-0.02664-0.35517-1.0332-0.35517-1.0332s-7.1e-5 -5.9e-5 -2.12e-4 -1.76e-4c-0.03602-0.02984-5.4598-4.523-5.4598-4.523l2.82e-4 -2.1e-5c0.04774-0.0036 7.2367-0.54922 7.2367-0.54922s1.81e-4 -1.34e-4 5.38e-4 -3.98e-4c0.02248-0.01665 0.87178-0.64576 0.87178-0.64576s3.4e-5 -8.5e-5 1.01e-4 -2.56e-4c0.01726-0.04348 2.6168-6.5906 2.6168-6.5906s3.6e-5 8.7e-5 1.08e-4 2.6e-4c0.01833 0.04412 2.7784 6.6876 2.7784 6.6876s1.81e-4 1.34e-4 5.38e-4 3.99e-4c0.02248 0.01665 0.87178 0.64576 0.87178 0.64576l2.76e-4 1.8e-5c0.04689 3e-3 7.1075 0.4523 7.1075 0.4523s1.58e-4 8e-6 4.71e-4 2.5e-5c0.03976 0.0021 3.0365 0.16152 3.0365 0.16152s9e-6 -9e-6 2.8e-5 -2.5e-5c0.0012-1e-3 0.25844-0.22613 0.25844-0.22613s-3.2e-5 -9.6e-5 -9.5e-5 -2.86e-4c-8e-3 -0.02411-0.61376-1.8412-0.61376-1.8412s-1.17e-4 -7e-6 -3.51e-4 -2.3e-5c-0.05947-0.0038-9.0137-0.58152-9.0137-0.58152s-4.6e-5 -1.1e-4 -1.36e-4 -3.29e-4c-0.02302-0.05584-3.4891-8.4644-3.4891-8.4644h-2.96e-4 -1.9059l3.1e-4 1.55e-4" style="color:#000000;fill-opacity:.028075;fill:#ff0066;opacity:1;paint-order:normal;text-indent:0;text-transform:none"/>
		<path d="m31.309 25.604s-3.3113 8.3265-3.3113 8.3265-1.21e-4 9e-6 -3.62e-4 2.8e-5c-0.06156 0.0048-9.0977 0.70723-9.0977 0.70723s-5e-6 1.4e-5 -1.4e-5 4.2e-5c-0.0011 0.0035-0.57866 1.8003-0.57866 1.8003l3.9e-5 3.3e-5c0.0068 0.0056 6.8797 5.7224 6.8797 5.7224s-4e-6 1.8e-5 -1.2e-5 5.2e-5c-0.0021 0.0088-2.154 8.905-2.154 8.905s1.2e-5 9e-6 3.5e-5 2.6e-5c3e-3 0.0021 1.5431 1.093 1.5431 1.093s1.01e-4 -6.4e-5 3.03e-4 -1.91e-4c0.05134-0.03241 7.5867-4.7899 7.5867-4.7899s1.04e-4 6.4e-5 3.1e-4 1.91e-4c0.05264 0.03241 7.7796 4.7899 7.7796 4.7899s8.2e-5 -6e-5 2.45e-4 -1.79e-4c0.02072-0.01511 1.5429-1.1251 1.5429-1.1251s-3e-5 -1.16e-4 -8.9e-5 -3.48e-4c-0.01501-0.05895-2.2181-8.7119-2.2181-8.7119s5.9e-5 -4.9e-5 1.76e-4 -1.48e-4c0.0298-0.02523 4.4041-3.7291 4.4041-3.7291s-1.61e-4 -6e-6 -4.81e-4 -2e-5c-0.04058-0.0017-3.0215-0.12857-3.0215-0.12857s-1.71e-4 1.46e-4 -5.11e-4 4.35e-4c-0.04317 0.03669-3.2143 2.7321-3.2143 2.7321s-6.9e-5 2.19e-4 -2.04e-4 6.51e-4c-0.0085 0.02719-0.32128 1.0281-0.32128 1.0281l6.9e-5 2.73e-4c0.01175 0.04633 1.7359 6.8473 1.7359 6.8473s-8.1e-5 -5e-5 -2.44e-4 -1.51e-4c-0.04155-0.02567-6.1401-3.7933-6.1401-3.7933h-6.92e-4 -1.0924s-8e-5 5e-5 -2.38e-4 1.51e-4c-0.04046 0.02567-5.9793 3.7933-5.9793 3.7933s2.3e-5 -9.4e-5 6.9e-5 -2.81e-4c0.01175-0.04764 1.7359-7.0402 1.7359-7.0402s-7.6e-5 -2.2e-4 -2.24e-4 -6.51e-4c-0.0093-0.02719-0.35341-1.0281-0.35341-1.0281s-7.2e-5 -6e-5 -2.16e-4 -1.79e-4c-0.03676-0.03046-5.4328-4.5006-5.4328-4.5006s9.6e-5 -7e-6 2.87e-4 -2.2e-5c0.04873-0.0037 7.2009-0.5465 7.2009-0.5465s1.85e-4 -1.37e-4 5.49e-4 -4.07e-4c0.02294-0.017 0.86745-0.64256 0.86745-0.64256s3.5e-5 -8.7e-5 1.04e-4 -2.61e-4c0.01762-0.04438 2.6039-6.558 2.6039-6.558s3.6e-5 8.9e-5 1.1e-4 2.66e-4c0.01871 0.04503 2.7646 6.6545 2.7646 6.6545s1.85e-4 1.37e-4 5.49e-4 4.06e-4c0.02294 0.017 0.86746 0.64256 0.86746 0.64256l2.82e-4 1.8e-5c0.04786 3e-3 7.0723 0.45006 7.0723 0.45006s1.61e-4 9e-6 4.81e-4 2.6e-5c0.04058 0.0022 3.0215 0.16072 3.0215 0.16072s8e-6 -7e-6 2.3e-5 -2.1e-5c9.9e-4 -8.66e-4 0.25716-0.22502 0.25716-0.22502s-3.3e-5 -9.8e-5 -9.7e-5 -2.92e-4c-0.0082-0.0246-0.61072-1.8321-0.61072-1.8321s-1.2e-4 -8e-6 -3.58e-4 -2.3e-5c-0.06069-0.0039-8.9691-0.57865-8.9691-0.57865l-1.38e-4 -3.36e-4c-0.02349-0.05699-3.4719-8.4225-3.4719-8.4225h-3.01e-4 -1.8965l2.7e-4 1.34e-4 3.9e-5 2e-5" style="color:#000000;fill-opacity:.028573;fill:#ff0066;opacity:1;paint-order:normal;text-indent:0;text-transform:none"/>
		<path d="m31.157 25.515-3.2952 8.2859s-1.23e-4 9e-6 -3.69e-4 2.9e-5c-0.06278 0.0049-9.0533 0.70379-9.0533 0.70379s-4e-6 1.1e-5 -1.1e-5 3.4e-5c-9.34e-4 0.0029-0.57584 1.7915-0.57584 1.7915s1.1e-5 9e-6 3.3e-5 2.8e-5c0.0056 0.0047 6.8462 5.6945 6.8462 5.6945s-3e-6 1.4e-5 -1e-5 4.2e-5c-0.0018 0.0072-2.1435 8.8616-2.1435 8.8616s1e-5 7e-6 3e-5 2e-5c0.0025 0.0018 1.5356 1.0877 1.5356 1.0877s1.03e-4 -6.5e-5 3.09e-4 -1.95e-4c0.05235-0.03305 7.5497-4.7665 7.5497-4.7665s1.05e-4 6.5e-5 3.16e-4 1.95e-4c0.05369 0.03305 7.7417 4.7665 7.7417 4.7665s8.4e-5 -6.2e-5 2.5e-4 -1.83e-4c0.02113-0.01541 1.5353-1.1196 1.5353-1.1196s-3e-5 -1.19e-4 -9e-5 -3.54e-4c-0.01531-0.06012-2.2073-8.6694-2.2073-8.6694s6e-5 -5e-5 1.79e-4 -1.51e-4c0.03039-0.02573 4.3826-3.7109 4.3826-3.7109s-1.64e-4 -7e-6 -4.9e-4 -2.1e-5c-0.04138-0.0018-3.0067-0.12794-3.0067-0.12794s-1.75e-4 1.48e-4 -5.22e-4 4.43e-4c-0.04402 0.03742-3.1986 2.7188-3.1986 2.7188s-6.9e-5 2.24e-4 -2.07e-4 6.64e-4c-0.0087 0.02773-0.31971 1.0231-0.31971 1.0231s2.4e-5 9.3e-5 7.1e-5 2.79e-4c0.01198 0.04725 1.7275 6.8139 1.7275 6.8139s-8.4e-5 -5.1e-5 -2.5e-4 -1.54e-4c-0.04237-0.02618-6.1102-3.7749-6.1102-3.7749h-7.05e-4 -1.087s-8.1e-5 5.2e-5 -2.43e-4 1.54e-4c-0.04126 0.02618-5.9502 3.7749-5.9502 3.7749s2.4e-5 -9.5e-5 7.1e-5 -2.86e-4c0.01198-0.04858 1.7275-7.0059 1.7275-7.0059s-7.7e-5 -2.23e-4 -2.28e-4 -6.64e-4c-0.0095-0.02773-0.35168-1.0231-0.35168-1.0231s-7.4e-5 -6.1e-5 -2.21e-4 -1.83e-4c-0.03749-0.03106-5.4063-4.4786-5.4063-4.4786s9.7e-5 -7e-6 2.92e-4 -2.2e-5c0.04969-0.0038 7.1658-0.54384 7.1658-0.54384s1.88e-4 -1.4e-4 5.6e-4 -4.15e-4c0.0234-0.01733 0.86321-0.63942 0.86321-0.63942s3.6e-5 -8.9e-5 1.06e-4 -2.66e-4c0.01797-0.04526 2.5912-6.526 2.5912-6.526s3.8e-5 9e-5 1.13e-4 2.7e-4c0.01908 0.04592 2.7512 6.622 2.7512 6.622s1.88e-4 1.4e-4 5.6e-4 4.15e-4c0.0234 0.01733 0.86321 0.63942 0.86321 0.63942s9.7e-5 6e-6 2.88e-4 1.8e-5c0.04881 0.0031 7.0379 0.44786 7.0379 0.44786s1.64e-4 8e-6 4.9e-4 2.6e-5c0.04138 0.0022 3.0067 0.15993 3.0067 0.15993s7e-6 -6e-6 2e-5 -1.7e-5c8.17e-4 -7.15e-4 0.25591-0.22392 0.25591-0.22392l-9.9e-5 -2.97e-4c-0.0084-0.02509-0.60774-1.8232-0.60774-1.8232s-1.22e-4 -8e-6 -3.65e-4 -2.3e-5c-0.06189-4e-3 -8.9253-0.57583-8.9253-0.57583l-1.41e-4 -3.42e-4c-0.02396-0.05812-3.455-8.3815-3.455-8.3815h-3.07e-4 -1.8872l2.75e-4 1.38e-4 3.2e-5 1.6e-5" style="color:#000000;fill-opacity:.029061;fill:#ff0066;opacity:1;paint-order:normal;text-indent:0;text-transform:none"/>
		<path d="m31.007 25.428-3.2794 8.2461s-1.26e-4 1e-5 -3.77e-4 3e-5c-0.06398 5e-3 -9.0098 0.7004-9.0098 0.7004s-3e-6 9e-6 -8e-6 2.7e-5c-7.41e-4 0.0023-0.57308 1.7829-0.57308 1.7829s9e-6 7e-6 2.7e-5 2.2e-5c0.0044 0.0037 6.8133 5.6671 6.8133 5.6671s-3e-6 1.1e-5 -8e-6 3.4e-5c-0.0014 0.0057-2.1332 8.819-2.1332 8.819s8e-6 5e-6 2.3e-5 1.6e-5c2e-3 0.0014 1.5282 1.0825 1.5282 1.0825l3.15e-4 -1.98e-4c0.05335-0.03368 7.5134-4.7436 7.5134-4.7436s1.07e-4 6.7e-5 3.22e-4 1.99e-4c0.05471 0.03368 7.7045 4.7436 7.7045 4.7436l2.55e-4 -1.86e-4c0.02153-0.0157 1.528-1.1142 1.528-1.1142s-3.1e-5 -1.21e-4 -9.2e-5 -3.61e-4c-0.0156-0.06126-2.1967-8.6278-2.1967-8.6278s6.1e-5 -5.2e-5 1.82e-4 -1.55e-4c0.03097-0.02622 4.3616-3.693 4.3616-3.693s-1.67e-4 -7e-6 -4.99e-4 -2.1e-5c-0.04217-0.0018-2.9923-0.12733-2.9923-0.12733s-1.78e-4 1.52e-4 -5.32e-4 4.52e-4c-0.04486 0.03813-3.1833 2.7057-3.1833 2.7057s-7.1e-5 2.27e-4 -2.11e-4 6.76e-4c-0.0088 0.02826-0.31817 1.0181-0.31817 1.0181s2.4e-5 9.5e-5 7.2e-5 2.83e-4c0.01221 0.04815 1.7192 6.7811 1.7192 6.7811s-8.5e-5 -5.3e-5 -2.54e-4 -1.57e-4c-0.04318-0.02668-6.0808-3.7567-6.0808-3.7567h-7.19e-4 -1.0818s-8.3e-5 5.3e-5 -2.48e-4 1.58e-4c-0.04205 0.02668-5.9216 3.7567-5.9216 3.7567s2.4e-5 -9.8e-5 7.2e-5 -2.92e-4c0.01221-0.04951 1.7192-6.9723 1.7192-6.9723s-7.8e-5 -2.28e-4 -2.32e-4 -6.76e-4c-0.0097-0.02826-0.34998-1.0181-0.34998-1.0181l-2.25e-4 -1.86e-4c-0.0382-0.03165-5.3803-4.4571-5.3803-4.4571s9.9e-5 -7e-6 2.98e-4 -2.2e-5c0.05064-0.0038 7.1314-0.54122 7.1314-0.54122s1.92e-4 -1.42e-4 5.71e-4 -4.23e-4c0.02384-0.01766 0.85905-0.63634 0.85905-0.63634s3.6e-5 -9.1e-5 1.08e-4 -2.71e-4c0.01831-0.04612 2.5787-6.4947 2.5787-6.4947s3.8e-5 9.2e-5 1.14e-4 2.76e-4c0.01944 0.0468 2.7379 6.5902 2.7379 6.5902s1.92e-4 1.42e-4 5.7e-4 4.23e-4c0.02385 0.01766 0.85905 0.63634 0.85905 0.63634s9.8e-5 6e-6 2.93e-4 1.9e-5c0.04973 0.0032 7.0041 0.44571 7.0041 0.44571s1.67e-4 9e-6 4.99e-4 2.7e-5c0.04217 0.0022 2.9923 0.15916 2.9923 0.15916s5e-6 -5e-6 1.6e-5 -1.4e-5c6.47e-4 -5.67e-4 0.25469-0.22285 0.25469-0.22285s-3.4e-5 -1.01e-4 -1.01e-4 -3.03e-4c-0.0085-0.02557-0.60482-1.8144-0.60482-1.8144l-3.72e-4 -2.4e-5c-0.06307-0.0041-8.8825-0.57306-8.8825-0.57306l-1.44e-4 -3.48e-4c-0.02442-0.05923-3.4384-8.3412-3.4384-8.3412h-3.13e-4 -1.8782l2.79e-4 1.4e-4 2.6e-5 1.3e-5" style="color:#000000;fill-opacity:.02954;fill:#ff0066;opacity:1;paint-order:normal;text-indent:0;text-transform:none"/>
		<path d="m30.861 25.342s-3.2638 8.207-3.2638 8.207-1.29e-4 1e-5 -3.84e-4 3e-5c-0.06515 0.0051-8.9671 0.69709-8.9671 0.69709s-2e-6 7e-6 -7e-6 2e-5c-5.5e-4 0.0017-0.57036 1.7745-0.57036 1.7745s7e-6 5e-6 2e-5 1.6e-5c0.0033 0.0027 6.781 5.6403 6.781 5.6403s-2e-6 8e-6 -6e-6 2.5e-5c-1e-3 0.0043-2.1231 8.7772-2.1231 8.7772l1.8e-5 1.2e-5c0.0015 1e-3 1.521 1.0773 1.521 1.0773s1.07e-4 -6.8e-5 3.2e-4 -2.02e-4c0.05433-0.0343 7.4778-4.7211 7.4778-4.7211s1.1e-4 6.7e-5 3.29e-4 2.02e-4c0.05571 0.0343 7.6679 4.7211 7.6679 4.7211s8.7e-5 -6.4e-5 2.6e-4 -1.89e-4c0.02193-0.01599 1.5207-1.1089 1.5207-1.1089s-3.1e-5 -1.23e-4 -9.3e-5 -3.67e-4c-0.01589-0.06239-2.1863-8.5869-2.1863-8.5869s6.2e-5 -5.2e-5 1.86e-4 -1.57e-4c0.03154-0.0267 4.3409-3.6755 4.3409-3.6755s-1.71e-4 -7e-6 -5.09e-4 -2.1e-5c-0.04294-0.0018-2.9781-0.12673-2.9781-0.12673s-1.81e-4 1.54e-4 -5.41e-4 4.6e-4c-0.04568 0.03883-3.1682 2.6929-3.1682 2.6929s-7.2e-5 2.32e-4 -2.15e-4 6.89e-4c-9e-3 0.02878-0.31666 1.0133-0.31666 1.0133s2.4e-5 9.7e-5 7.3e-5 2.89e-4c0.01243 0.04904 1.711 6.749 1.711 6.749s-8.6e-5 -5.4e-5 -2.59e-4 -1.6e-4c-0.04397-0.02717-6.052-3.7389-6.052-3.7389h-7.32e-4 -1.0766s-8.4e-5 5.3e-5 -2.52e-4 1.6e-4c-0.04282 0.02717-5.8935 3.7389-5.8935 3.7389s2.5e-5 -9.9e-5 7.4e-5 -2.97e-4c0.01243-0.05042 1.711-6.9392 1.711-6.9392s-8e-5 -2.33e-4 -2.37e-4 -6.89e-4c-0.0099-0.02878-0.34832-1.0133-0.34832-1.0133s-7.7e-5 -6.4e-5 -2.29e-4 -1.9e-4c-0.03891-0.03223-5.3548-4.436-5.3548-4.436s1.02e-4 -8e-6 3.04e-4 -2.3e-5c0.05157-0.0039 7.0976-0.53866 7.0976-0.53866s1.96e-4 -1.45e-4 5.82e-4 -4.3e-4c0.02428-0.01799 0.85497-0.63331 0.85497-0.63331s3.6e-5 -9.3e-5 1.1e-4 -2.77e-4c0.01865-0.04696 2.5665-6.4639 2.5665-6.4639s3.9e-5 9.4e-5 1.17e-4 2.81e-4c0.0198 0.04765 2.725 6.559 2.725 6.559s1.96e-4 1.45e-4 5.81e-4 4.3e-4c0.02428 0.01799 0.85497 0.63331 0.85497 0.63331s9.9e-5 7e-6 2.98e-4 1.9e-5c0.05065 0.0032 6.9709 0.4436 6.9709 0.4436s1.71e-4 9e-6 5.09e-4 2.7e-5c0.04294 0.0023 2.9781 0.15841 2.9781 0.15841s4e-6 -3e-6 1.2e-5 -1e-5c4.81e-4 -4.21e-4 0.25348-0.2218 0.25348-0.2218s-3.4e-5 -1.03e-4 -1.03e-4 -3.08e-4c-0.0087-0.02604-0.60195-1.8058-0.60195-1.8058l-3.78e-4 -2.4e-5c-0.06423-0.0041-8.8404-0.57034-8.8404-0.57034s-4.9e-5 -1.19e-4 -1.47e-4 -3.56e-4c-0.02486-0.06032-3.4221-8.3017-3.4221-8.3017h-3.19e-4 -1.8693l2.85e-4 1.43e-4 1.9e-5 1e-5" style="color:#000000;fill-opacity:.030011;fill:#ff0066;opacity:1;paint-order:normal;text-indent:0;text-transform:none"/>
		<path d="m30.717 25.258s-3.2486 8.1686-3.2486 8.1686l-3.9e-4 3e-5c-0.06631 0.0052-8.9252 0.69383-8.9252 0.69383s-1e-6 4e-6 -4e-6 1.3e-5c-3.64e-4 0.0011-0.5677 1.7662-0.5677 1.7662s5e-6 3e-6 1.3e-5 1.1e-5c0.0022 0.0018 6.7493 5.6139 6.7493 5.6139s-2e-6 5e-6 -5e-6 1.6e-5c-6.82e-4 0.0028-2.1132 8.7362-2.1132 8.7362s4e-6 3e-6 1.1e-5 8e-6c9.7e-4 6.87e-4 1.5139 1.0723 1.5139 1.0723s1.09e-4 -6.9e-5 3.26e-4 -2.06e-4c0.05529-0.03491 7.4429-4.699 7.4429-4.699s1.12e-4 6.9e-5 3.34e-4 2.06e-4c0.0567 0.03491 7.6321 4.699 7.6321 4.699s8.9e-5 -6.5e-5 2.65e-4 -1.93e-4c0.02232-0.01627 1.5136-1.1037 1.5136-1.1037s-3.1e-5 -1.25e-4 -9.5e-5 -3.74e-4c-0.01617-0.06349-2.176-8.5467-2.176-8.5467s6.3e-5 -5.4e-5 1.89e-4 -1.6e-4c0.0321-0.02718 4.3206-3.6584 4.3206-3.6584s-1.74e-4 -8e-6 -5.18e-4 -2.2e-5c-0.0437-0.0019-2.9641-0.12613-2.9641-0.12613s-1.84e-4 1.57e-4 -5.5e-4 4.68e-4c-0.04649 0.03952-3.1533 2.6803-3.1533 2.6803s-7.3e-5 2.36e-4 -2.19e-4 7.01e-4c-0.0092 0.02929-0.31517 1.0085-0.31517 1.0085l7.5e-5 2.94e-4c0.01265 0.0499 1.703 6.7174 1.703 6.7174s-8.8e-5 -5.5e-5 -2.64e-4 -1.63e-4c-0.04475-0.02765-6.0237-3.7214-6.0237-3.7214h-7.45e-4 -1.0716s-8.6e-5 5.4e-5 -2.56e-4 1.62e-4c-0.04358 0.02765-5.866 3.7214-5.866 3.7214l7.5e-5 -3.03e-4c0.01265-0.05131 1.703-6.9068 1.703-6.9068s-8.2e-5 -2.36e-4 -2.41e-4 -7.01e-4c-0.01007-0.02929-0.34669-1.0085-0.34669-1.0085s-7.8e-5 -6.5e-5 -2.33e-4 -1.94e-4c-0.0396-0.0328-5.3298-4.4153-5.3298-4.4153s1.04e-4 -8e-6 3.1e-4 -2.4e-5c0.05248-4e-3 7.0644-0.53614 7.0644-0.53614s1.99e-4 -1.48e-4 5.91e-4 -4.39e-4c0.02471-0.01831 0.85096-0.63034 0.85096-0.63034s3.7e-5 -9.4e-5 1.12e-4 -2.82e-4c0.01898-0.0478 2.5545-6.4337 2.5545-6.4337s4e-5 9.6e-5 1.19e-4 2.86e-4c0.02015 0.0485 2.7122 6.5283 2.7122 6.5283s2e-4 1.47e-4 5.92e-4 4.38e-4c0.02471 0.0183 0.85096 0.63034 0.85096 0.63034s1.01e-4 6e-6 3.03e-4 1.9e-5c0.05154 0.0033 6.9383 0.44152 6.9383 0.44152s1.74e-4 1e-5 5.18e-4 2.8e-5c0.0437 0.0023 2.9641 0.15767 2.9641 0.15767l7e-6 -7e-6c3.19e-4 -2.78e-4 0.2523-0.22076 0.2523-0.22076s-3.5e-5 -1.06e-4 -1.05e-4 -3.14e-4c-0.0088-0.0265-0.59913-1.7974-0.59913-1.7974s-1.29e-4 -9e-6 -3.85e-4 -2.5e-5c-0.06537-0.0042-8.799-0.56768-8.799-0.56768s-5e-5 -1.21e-4 -1.49e-4 -3.62e-4c-0.0253-0.06139-3.4061-8.2628-3.4061-8.2628h-3.25e-4 -1.8605l2.91e-4 1.45e-4 1.2e-5 7e-6" style="color:#000000;fill-opacity:.030472;fill:#ff0066;opacity:1;paint-order:normal;text-indent:0;text-transform:none"/>
		<path d="m30.575 25.175s-3.2336 8.1309-3.2336 8.1309-1.32e-4 1e-5 -3.97e-4 3.1e-5c-0.06744 0.0052-8.8839 0.69062-8.8839 0.69062s-1e-6 2e-6 -2e-6 7e-6c-1.81e-4 5.61e-4 -0.56508 1.758-0.56508 1.758s2e-6 2e-6 7e-6 5e-6c0.0011 8.99e-4 6.7181 5.588 6.7181 5.588s-1e-6 3e-6 -2e-6 9e-6c-3.39e-4 0.0014-2.1034 8.6959-2.1034 8.6959s2e-6 1e-6 6e-6 4e-6c4.81e-4 3.41e-4 1.5069 1.0674 1.5069 1.0674s1.11e-4 -6.9e-5 3.31e-4 -2.09e-4c0.05624-0.03551 7.4085-4.6773 7.4085-4.6773s1.13e-4 7e-5 3.39e-4 2.09e-4c0.05767 0.03551 7.5968 4.6773 7.5968 4.6773s9e-5 -6.5e-5 2.69e-4 -1.96e-4c0.0227-0.01655 1.5066-1.0986 1.5066-1.0986s-3.3e-5 -1.27e-4 -9.7e-5 -3.81e-4c-0.01644-0.06458-2.166-8.5072-2.166-8.5072s6.4e-5 -5.4e-5 1.92e-4 -1.63e-4c0.03265-0.02764 4.3006-3.6415 4.3006-3.6415s-1.76e-4 -8e-6 -5.26e-4 -2.3e-5c-0.04445-0.0019-2.9504-0.12555-2.9504-0.12555s-1.87e-4 1.59e-4 -5.6e-4 4.76e-4c-0.04729 0.04019-3.1388 2.6679-3.1388 2.6679s-7.5e-5 2.4e-4 -2.23e-4 7.13e-4c-0.0093 0.02979-0.31371 1.0039-0.31371 1.0039s2.6e-5 1e-4 7.6e-5 2.99e-4c0.01287 0.05076 1.6952 6.6864 1.6952 6.6864s-9e-5 -5.5e-5 -2.68e-4 -1.66e-4c-0.04552-0.02812-5.9959-3.7042-5.9959-3.7042h-7.58e-4 -1.0666s-8.7e-5 5.5e-5 -2.61e-4 1.66e-4c-0.04432 0.02812-5.8389 3.7042-5.8389 3.7042s2.5e-5 -1.03e-4 7.5e-5 -3.07e-4c0.01287-0.05219 1.6952-6.8749 1.6952-6.8749s-8.3e-5 -2.4e-4 -2.45e-4 -7.13e-4c-0.01024-0.02979-0.34508-1.0039-0.34508-1.0039s-7.9e-5 -6.5e-5 -2.37e-4 -1.96e-4c-0.04027-0.03336-5.3052-4.3949-5.3052-4.3949s1.05e-4 -8e-6 3.14e-4 -2.4e-5c0.05338-0.0041 7.0318-0.53366 7.0318-0.53366s2.03e-4 -1.5e-4 6.02e-4 -4.46e-4c0.02513-0.01862 0.84702-0.62742 0.84702-0.62742s3.8e-5 -9.6e-5 1.13e-4 -2.87e-4c0.0193-0.04861 2.5427-6.4039 2.5427-6.4039s4.1e-5 9.7e-5 1.21e-4 2.9e-4c0.02049 0.04933 2.6997 6.4982 2.6997 6.4982s2.03e-4 1.5e-4 6.02e-4 4.45e-4c0.02513 0.01862 0.84702 0.62742 0.84702 0.62742s1.03e-4 6e-6 3.09e-4 1.9e-5c0.05242 0.0033 6.9062 0.43949 6.9062 0.43949s1.76e-4 1e-5 5.26e-4 2.8e-5c0.04445 0.0024 2.9504 0.15694 2.9504 0.15694s1e-6 -1e-6 4e-6 -3e-6c1.57e-4 -1.38e-4 0.25114-0.21975 0.25114-0.21975s-3.6e-5 -1.07e-4 -1.07e-4 -3.2e-4c-9e-3 -0.02695-0.59636-1.789-0.59636-1.789s-1.31e-4 -9e-6 -3.91e-4 -2.5e-5c-0.06649-0.0043-8.7584-0.56505-8.7584-0.56505s-5.1e-5 -1.22e-4 -1.52e-4 -3.67e-4c-0.02574-0.06243-3.3903-8.2247-3.3903-8.2247h-3.3e-4 -1.8519l3.02e-4 1.51e-4" style="color:#000000;fill-opacity:.030926;fill:#ff0066;opacity:1;paint-order:normal;text-indent:0;text-transform:none"/>
		<path d="m30.436 25.094-3.2188 8.0938s-1.35e-4 1e-5 -4.04e-4 3.1e-5c-0.06855 0.0053-8.8434 0.68747-8.8434 0.68747l-0.5625 1.75 6.6875 5.5625s-2.0938 8.6562-2.0938 8.6562l1.5 1.0625s1.13e-4 -7.1e-5 3.37e-4 -2.13e-4c0.05717-0.03609 7.3747-4.656 7.3747-4.656l3.45e-4 2.13e-4c0.05862 0.03609 7.5622 4.656 7.5622 4.656s9.2e-5 -6.7e-5 2.73e-4 -1.99e-4c0.02307-0.01682 1.4997-1.0936 1.4997-1.0936s-3.3e-5 -1.29e-4 -9.8e-5 -3.87e-4c-0.01671-0.06565-2.1561-8.4684-2.1561-8.4684s6.5e-5 -5.5e-5 1.95e-4 -1.66e-4c0.03319-0.0281 4.281-3.6248 4.281-3.6248s-1.79e-4 -8e-6 -5.35e-4 -2.3e-5c-0.04518-0.0019-2.937-0.12498-2.937-0.12498s-1.91e-4 1.62e-4 -5.69e-4 4.84e-4c-0.04807 0.04086-3.1244 2.6557-3.1244 2.6557s-7.6e-5 2.44e-4 -2.26e-4 7.25e-4c-0.0095 0.03028-0.31227 0.99928-0.31227 0.99928s2.6e-5 1.02e-4 7.7e-5 3.04e-4c0.01308 0.0516 1.6874 6.6559 1.6874 6.6559l-2.73e-4 -1.68e-4c-0.04627-0.02858-5.9685-3.6873-5.9685-3.6873h-7.7e-4 -1.0617s-8.9e-5 5.6e-5 -2.65e-4 1.68e-4c-0.04506 0.02858-5.8122 3.6873-5.8122 3.6873s2.6e-5 -1.04e-4 7.7e-5 -3.12e-4c0.01308-0.05305 1.6874-6.8435 1.6874-6.8435s-8.4e-5 -2.44e-4 -2.49e-4 -7.25e-4c-0.01041-0.03028-0.3435-0.99928-0.3435-0.99928s-8.1e-5 -6.7e-5 -2.41e-4 -2e-4c-0.04094-0.03391-5.281-4.3748-5.281-4.3748s1.07e-4 -8e-6 3.2e-4 -2.4e-5c0.05426-0.0041 6.9997-0.53123 6.9997-0.53123s2.06e-4 -1.53e-4 6.12e-4 -4.53e-4c0.02555-0.01893 0.84314-0.62455 0.84314-0.62455s3.9e-5 -9.7e-5 1.16e-4 -2.91e-4c0.01962-0.04942 2.5311-6.3747 2.5311-6.3747s4.1e-5 9.9e-5 1.23e-4 2.95e-4c0.02083 0.05014 2.6874 6.4685 2.6874 6.4685s2.06e-4 1.53e-4 6.12e-4 4.53e-4c0.02555 0.01893 0.84314 0.62455 0.84314 0.62455s1.05e-4 7e-6 3.14e-4 2e-5c0.05329 0.0034 6.8747 0.43748 6.8747 0.43748s1.79e-4 1e-5 5.35e-4 2.8e-5c0.04518 0.0024 2.937 0.15622 2.937 0.15622l0.25-0.21875s-3.6e-5 -1.09e-4 -1.08e-4 -3.24e-4c-0.0091-0.0274-0.59364-1.7809-0.59364-1.7809s-1.33e-4 -9e-6 -3.98e-4 -2.6e-5c-0.06759-0.0044-8.7184-0.56247-8.7184-0.56247s-5.1e-5 -1.25e-4 -1.54e-4 -3.74e-4c-0.02616-0.06347-3.3748-8.1871-3.3748-8.1871h-3.36e-4 -1.8435l3e-4 1.5e-4" style="color:#000000;fill-opacity:.031373;fill:#ff0066;opacity:1;paint-order:normal;text-indent:0;text-transform:none"/>
	</g>
	<path d="m30.436 25.094-3.2188 8.0938-8.8438 0.6875-0.5625 1.75 6.6875 5.5625-2.0938 8.6562 1.5 1.0625 7.375-4.6562 7.5625 4.6562 1.5-1.0938-2.1562-8.4688 4.2812-3.625-2.9375-0.125-3.125 2.6562-0.3125 1 1.6875 6.6562-5.9688-3.6875h-1.0625l-5.8125 3.6875 1.6875-6.8438-0.34375-1-5.2812-4.375 7-0.53125 0.84375-0.625 2.5312-6.375 2.6875 6.4688 0.84375 0.625 6.875 0.4375 2.9375 0.15625 0.25-0.21875-0.59375-1.7812-8.7188-0.5625-3.375-8.1875h-1.8438z" style="color:#000000;fill:#d5ffff;paint-order:normal;text-indent:0;text-transform:none"/>
</svg>
