<?xml version="1.0" encoding="UTF-8"?>
<!-- Created with Inkscape (http://www.inkscape.org/) -->
<svg width="64" height="64" version="1.1" xmlns="http://www.w3.org/2000/svg" xmlns:cc="http://creativecommons.org/ns#" xmlns:dc="http://purl.org/dc/elements/1.1/" xmlns:rdf="http://www.w3.org/1999/02/22-rdf-syntax-ns#">
	<defs>
		<radialGradient id="e" cx="33.466" cy="2.1992" r="30.5" gradientTransform="matrix(-1.0283 0 0 -.55738 67.779 1.2258)" gradientUnits="userSpaceOnUse">
			<stop stop-color="#668cbb" offset="0"/>
			<stop stop-color="#668cbb" offset="1"/>
		</radialGradient>
		<linearGradient id="g" x1="61" x2="60" y1="17" gradientTransform="translate(-.88255)" gradientUnits="userSpaceOnUse">
			<stop stop-color="#3e4d60" stop-opacity=".72157" offset="0"/>
			<stop stop-color="#393b49" stop-opacity=".2656" offset="1"/>
		</linearGradient>
		<linearGradient id="b" x1="62.381" x2="62.381" y1="63.314" y2="23.077" gradientUnits="userSpaceOnUse">
			<stop stop-color="#000828" stop-opacity=".35976" offset="0"/>
			<stop stop-color="#000828" stop-opacity=".12715" offset="1"/>
		</linearGradient>
		<linearGradient id="d" x1="53" x2="53" y1="17" y2="15" gradientUnits="userSpaceOnUse">
			<stop stop-color="#dad8ce" offset="0"/>
			<stop stop-color="#ebebeb" offset="1"/>
		</linearGradient>
		<linearGradient id="f" x1="32.559" x2="33.542" y1="15.559" y2="14.542" gradientUnits="userSpaceOnUse">
			<stop stop-color="#37321c" stop-opacity=".15675" offset="0"/>
			<stop stop-color="#6d5524" stop-opacity="0" offset="1"/>
		</linearGradient>
		<radialGradient id="c" cx="30.107" cy="50.318" r="30.5" gradientTransform="matrix(2.7541,-1.4218e-7,8.3652e-8,2.7869,-52.917,-93.23)" gradientUnits="userSpaceOnUse">
			<stop stop-color="#9e1423" stop-opacity=".12917" offset="0"/>
			<stop stop-color="#f4405b" stop-opacity=".023222" offset=".54"/>
			<stop stop-color="#f43f6d" stop-opacity=".169" offset="1"/>
		</radialGradient>
		<linearGradient id="h" x1="-5" x2="-5" y1="64" y2="14" gradientTransform="translate(.88908)" gradientUnits="userSpaceOnUse">
			<stop stop-color="#f43f66" stop-opacity=".018868" offset="0"/>
			<stop stop-color="#f4ae3f" stop-opacity=".47025" offset="1"/>
		</linearGradient>
		<linearGradient id="a" x1="4.5255" x2="4.5255" y1="64" y2="61.09" gradientUnits="userSpaceOnUse">
			<stop stop-color="#e50d4c" stop-opacity=".47868" offset="0"/>
			<stop stop-color="#e50d4c" stop-opacity="0" offset="1"/>
		</linearGradient>
	</defs>
	<metadata>
		<rdf:RDF>
			<cc:Work rdf:about="">
				<dc:format>image/svg+xml</dc:format>
				<dc:type rdf:resource="http://purl.org/dc/dcmitype/StillImage"/>
				<dc:title/>
			</cc:Work>
		</rdf:RDF>
	</metadata>
	<g>
		<g>
			<path d="m38 0c-1 0-1.5103 0.51027-2 1l-3 3c-0.53814 0.53814-1 1-2 1h-28c-0.52243 0-1 0.43922-1 1l-0.76511 58h61.543c1 0 1.2218-1 1.2218-2v-61c0-0.51973-0.5-1-1-1z" style="color:#000000;fill:url(#e)"/>
			<path d="m38 0c-1 0-1.5103 0.51027-2 1l-3 3c-0.53814 0.53814-1 1-2 1h-28c-0.52243 0-1 0.43922-1 1l-0.76511 58h61.543c1 0 1.2218-1 1.2218-2v-61c0-0.51973-0.5-1-1-1z" style="color:#000000;fill:url(#g)"/>
			<path d="m38 0c-1 0-1.5103 0.51027-2 1l-3 3c-0.53814 0.53814-1 1-2 1h-28c-0.52243 0-1 0.43922-1 1l-0.76562 58h0.00586l0.75976-57.5c0-0.56078 0.47757-1 1-1h28c1 0 1.4619-0.46186 2-1l3-3c0.48973-0.48973 1-1 2-1h25c0.5 0 1 0.48027 1 1v-0.5c0-0.51973-0.5-1-1-1z" style="color:#000000;fill-opacity:.19073;fill:#b3ffff"/>
			<path d="m61 13v51h1.7773c0.09408 0 0.17509-0.01633 0.25586-0.0332l0.8125-0.8125c0.11225-0.34056 0.1543-0.74535 0.1543-1.1543v-46l-3-3z" style="fill:url(#b)"/>
			<path d="m63.5 0.15532v61.845c0 0.52439-0.13604 1.5011-0.72184 1.5v0.5c1 0 1.2218-1 1.2218-2v-61c0-0.39808-0.24002-0.69459-0.5-0.84468z" style="fill-opacity:.14136;fill:#0f1f33;paint-order:normal"/>
		</g>
		<g>
			<path d="m7 13h54v31h-54z" style="fill:url(#d)"/>
			<path d="m30 13 4 4h2l-4-4z" style="color:#000000;fill:url(#f)"/>
		</g>
		<path d="m62.778 63.5c-0.58579-0.0011-0.77816-0.9402-0.77816-1.5v-44c0-0.57647-0.4549-1-1-1h-26c-1 0-1.3759-0.3759-2-1l-3-3c-0.46442-0.46442-1-1-2-1h-27c-0.52342 0-1 0.4716-1 1 0.0044097 9.6802 0.0035924 21.791 0.002195 32.011-9.6046e-4 7.024-0.002195 13.155-0.002195 16.989 0 1 0.23489 2 1.2349 2h61.543z" style="color:#000000;fill:#f4ae3f"/>
		<path d="m62.778 63.5c-0.58579-0.0011-0.77816-0.9402-0.77816-1.5v-44c0-0.57647-0.4549-1-1-1h-26c-1 0-1.3759-0.3759-2-1l-3-3c-0.46442-0.46442-1-1-2-1h-27c-0.52342 0-1 0.4716-1 1 0.0044097 9.6802 0.0035924 21.791 0.002195 32.011-9.6046e-4 7.024-0.002195 13.155-0.002195 16.989 0 1 0.23489 2 1.2349 2h61.543z" style="color:#000000;fill:#f4ae3f"/>
		<path d="m62.778 63.5c-0.58579-0.0011-0.77816-0.9402-0.77816-1.5v-44c0-0.57647-0.4549-1-1-1h-26c-1 0-1.3759-0.3759-2-1l-3-3c-0.46442-0.46442-1-1-2-1h-27c-0.52342 0-1 0.4716-1 1 0.0044097 9.6802 0.0035924 21.791 0.002195 32.011-9.6046e-4 7.024-0.002195 13.155-0.002195 16.989 0 1 0.23489 2 1.2349 2h61.543z" style="color:#000000;fill:url(#c)"/>
		<path d="m62.778 63.5c-0.58579-0.0011-0.77816-0.9402-0.77816-1.5v-44c0-0.57647-0.4549-1-1-1h-26c-1 0-1.3759-0.3759-2-1l-3-3c-0.46442-0.46442-1-1-2-1h-27c-0.52342 0-1 0.4716-1 1 0.0044097 9.6802 0.0035924 21.791 0.002195 32.011-9.6046e-4 7.024-0.002195 13.155-0.002195 16.989 0 1 0.23489 2 1.2349 2h61.543z" style="color:#000000;fill:url(#h)"/>
		<path d="m62.778 63.5c-0.58579-0.0011-0.77816-0.9402-0.77816-1.5v-44c0-0.57647-0.4549-1-1-1h-26c-1 0-1.3759-0.3759-2-1l-3-3c-0.46442-0.46442-1-1-2-1h-27c-0.52342 0-1 0.4716-1 1 0.0044097 9.6802 0.0035924 21.791 0.002195 32.011-9.6046e-4 7.024-0.002195 13.155-0.002195 16.989 0 1 0.23489 2 1.2349 2h61.543z" style="color:#000000;fill:url(#a);opacity:.318"/>
		<path d="m27.5 12c1 0 1.5356 0.53558 2 1l3 3c0.6241 0.6241 1 1 2 1h0.5c-1 0-1.3759-0.3759-2-1l-3-3c-0.46442-0.46442-1-1-2-1zm33 5c0.5451 0 1 0.42353 1 1v44c0 0.90201 0.20957 1.9442 1.2782 2h-8.19e-4v-0.5c-0.58579-0.0011-0.77734-0.9402-0.77734-1.5v-44c0-0.57647-0.4549-1-1-1z" style="color:#000000;fill-opacity:.23186;fill:#ff024d;paint-order:normal"/>
		<path d="m27.75 12c1 0 1.5356 0.53558 2 1l3 3c0.6241 0.6241 1 1 2 1h0.25c-1 0-1.3759-0.3759-2-1l-3-3c-0.46442-0.46442-1-1-2-1zm33 5c0.5451 0 1 0.42353 1 1v44c0 0.5598 0.19155 1.4989 0.77734 1.5v0.45508c0.08 0.01886 0.15756 0.0401 0.25 0.04492v-0.5c-0.58579-0.0011-0.77734-0.9402-0.77734-1.5v-44c0-0.57647-0.4549-1-1-1z" style="color:#000000;fill-opacity:.19147;fill:#ff024d;paint-order:normal"/>
		<path d="m1 12c-0.52342 0-1 0.4716-1 1 6.888e-5 0.15121-6.6347e-5 0.34762 0 0.5 0-0.5284 0.47658-1 1-1h27c1 0 1.5356 0.53558 2 1l3 3c0.6241 0.6241 1 1 2 1h26c0.5451 0 1 0.42353 1 1v-0.5c0-0.57647-0.4549-1-1-1h-26c-1 0-1.3759-0.3759-2-1l-3-3c-0.46442-0.46442-1-1-2-1z" style="color:#000000;fill-opacity:.31189;fill:#f8ff34"/>
		<path d="m1 12c-0.52342 0-1 0.4716-1 1 3.444e-5 0.0756-3.3805e-5 0.1741 0 0.25 0-0.5284 0.47658-1 1-1h27c1 0 1.5356 0.53558 2 1l3 3c0.6241 0.6241 1 1 2 1h26c0.5451 0 1 0.42353 1 1v-0.25c0-0.57647-0.4549-1-1-1h-26c-1 0-1.3759-0.3759-2-1l-3-3c-0.46442-0.46442-1-1-2-1z" style="color:#000000;fill-opacity:.31189;fill:#f8ff34"/>
	</g>
	<g style="opacity:.3">
		<path d="m36.249 34.636c-4.3361 0-7.8771 3.5411-7.8771 7.8771 0 3.4964e-5 8.5e-9 6.9921e-5 2.54e-8 1.0487e-4 1.737e-5 0.22256 0.055398 0.39812 0.075744 0.60583-5.5937e-5 2.1401e-5 -1.1187e-4 4.2806e-5 -1.678e-4 6.4214e-5 -2.8491 1.0901-4.923 3.7487-4.923 6.9682 0 4.0922e-5 2e-9 8.1844e-5 6.1e-9 1.2276e-4 6.6852e-5 4.1687 3.4055 7.574 7.5742 7.574h1.2458e-4 16.966c4.4207e-5 0 8.8414e-5 -2.2e-9 1.3262e-4 -6.6e-9 4.5033-7.2178e-5 8.18-3.6768 8.18-8.1801 0-4.4207e-5 -2.2e-9 -8.8414e-5 -6.6e-9 -1.3262e-4 -7.2178e-5 -4.5033-3.6768-8.18-8.1801-8.18-4.0024e-5 0-7.9967e-5 -6e-9 -1.1983e-4 -1.78e-8 -0.063631-3.0158e-6 -0.094032-0.002401-0.15136 1.78e-8 -2.4513e-5 -3.1059e-5 -4.9028e-5 -6.2116e-5 -7.3544e-5 -9.3173e-5 -1.2486-1.5819-3.0357-2.6605-5.1504-2.916-2.7524e-5 -4.3075e-5 -5.505e-5 -8.6148e-5 -8.2578e-5 -1.2922e-4 -1.4019-2.194-3.731-3.7491-6.5137-3.7491m0 0.38981m0 2.0339c1.7687 0 3.3033 0.99453 4.068 2.4471 0.33893 4.6528e-5 0.63298 0.19064 0.7795 0.469 0 0 0.25425 0.5085 0.25427 0.50855 0.0014755 0.002951 0.048691 0.097383 0.048691 0.097383s0.60385 0.031779 0.6039 0.031781c0.0035043 1.8444e-4 0.11564 0.0060864 0.11564 0.0060864 1.5512 0.060955 2.8668 0.90996 3.6548 2.161 0.29724 0.011718 0.54933 0.17442 0.70034 0.41417 0 0 0.31781 0.5085 0.31784 0.50855 0.0018444 0.002951 0.060864 0.097383 0.060864 0.097383s0.63563-0.031779 0.63569-0.031781c0.0036887-1.8444e-4 0.12173-0.0060864 0.12173-0.0060864 0.18357-0.014723 0.30388-0.031788 0.38157-0.031794 0.035053-0.0028165 0.058037-0.0060743 0.072884-0.0060743 2.68 0 4.8307 2.1507 4.8307 4.8306 0.51353 1.0062e-4 0.92562 0.41225 0.92562 0.92581 0 2.68-2.1507 4.8307-4.8306 4.8307-1.0062e-4 0.51353-0.41225 0.92562-0.92581 0.92562h-14.238-2.7286c-2.3991 0-4.3222-1.923-4.3222-4.3221-0.45972-8.9965e-5 -0.82819-0.36861-0.82819-0.82836 0-2.0794 1.4603-3.8031 3.4005-4.2269 6.832e-5 -0.39845 0.27993-0.72874 0.65172-0.80994 0 0 0.98523-0.22247 0.98532-0.22249 0.0057176-0.0012911 0.18868-0.042605 0.18868-0.042605s-0.22247-0.98523-0.22249-0.98532c-0.0012911-0.0057176-0.042605-0.18868-0.042605-0.18868-0.066827-0.32659-0.095365-0.62799-0.095377-0.9218-0.012779-0.06251-0.018235-0.12021-0.018235-0.17645 0-2.5395 2.0368-4.5764 4.5763-4.5765 9.529e-5 -0.48662 0.39043-0.87691 0.87708-0.87691" style="color:#000000;fill-opacity:.009272;fill:#ff0066;opacity:1;paint-order:normal;text-decoration-line:none;text-indent:0;text-transform:none"/>
		<path d="m35.505 34.102c-4.2643 0-7.7468 3.4825-7.7468 7.7468 0 4.8637e-5 1.19e-8 9.7264e-5 3.55e-8 1.4588e-4 2.4163e-5 0.21886 0.054483 0.3915 0.07449 0.59576-7.7812e-5 2.977e-5 -1.5562e-4 5.9545e-5 -2.3343e-4 8.9326e-5 -2.8019 1.0721-4.8415 3.6867-4.8415 6.8528 0 5.6925e-5 2.8e-9 1.1385e-4 8.5e-9 1.7077e-4 9.2996e-5 4.0997 3.3491 7.4486 7.4488 7.4486h1.7331e-4 16.685c6.1495e-5 0 1.2299e-4 -3.1e-9 1.8448e-4 -9.2e-9 4.4288-1.004e-4 8.0445-3.6159 8.0445-8.0447 0-6.1495e-5 -3e-9 -1.2299e-4 -9.2e-9 -1.8448e-4 -1.004e-4 -4.4288-3.6159-8.0445-8.0447-8.0445-5.5677e-5 0-1.1124e-4 -8.3e-9 -1.6669e-4 -2.47e-8 -0.062544-4.1952e-6 -0.092442-0.0023623-0.14881 2.47e-8 -3.41e-5 -4.3205e-5 -6.8201e-5 -8.6408e-5 -1.023e-4 -1.2961e-4 -1.2279-1.5557-2.9855-2.6164-5.0651-2.8677-3.8287e-5 -5.992e-5 -7.6578e-5 -1.1984e-4 -1.1487e-4 -1.7975e-4 -1.3787-2.1576-3.6692-3.687-6.4059-3.687m0 0.54226m0 1.8414c1.6013 0 2.9906 0.90037 3.6829 2.2154 0.47147 6.4724e-5 0.88052 0.2652 1.0843 0.6524 0 0 0.23019 0.46037 0.23022 0.46044 0.0020525 0.004105 0.067733 0.13547 0.067733 0.13547s0.54669 0.028771 0.54677 0.028775c0.0048747 2.5656e-4 0.16087 0.0084666 0.16087 0.0084666 1.4043 0.055185 2.5954 0.82381 3.3088 1.9565 0.41348 0.016301 0.76416 0.24263 0.97422 0.57614 0 0 0.28773 0.46037 0.28777 0.46044 0.0025656 0.004105 0.084666 0.13547 0.084666 0.13547s0.57547-0.028771 0.57555-0.028775c0.0051313-2.5656e-4 0.16933-0.0084666 0.16933-0.0084666 0.16622-0.013331 0.27517-0.028784 0.34554-0.028792 0.048761-0.003918 0.080733-0.0084498 0.10139-0.0084498 2.4263 0 4.3734 1.9471 4.3735 4.3732 0.71436 1.3996e-4 1.2876 0.57347 1.2876 1.2879 0 2.4263-1.9471 4.3734-4.3732 4.3735-1.3996e-4 0.71436-0.57347 1.2876-1.2879 1.2876h-12.89-3.7956c-2.172 0-3.913-1.741-3.9131-3.9129-0.6395-1.2515e-4 -1.1521-0.51277-1.1521-1.1523 0-1.8825 1.3221-3.4431 3.0785-3.8268 9.5037e-5 -0.55427 0.3894-1.0137 0.90659-1.1267 0 0 0.89197-0.20141 0.8921-0.20144 0.0079535-0.001796 0.26247-0.059266 0.26247-0.059266s-0.20141-0.89197-0.20144-0.8921c-0.001796-0.0079535-0.059266-0.26247-0.059266-0.26247-0.060506-0.2957-0.086348-0.5686-0.086366-0.83462-0.017776-0.086956-0.025366-0.16722-0.025366-0.24546 0-2.2991 1.844-4.1432 4.1431-4.1433 1.3256e-4 -0.67693 0.54312-1.2198 1.2201-1.2198" style="color:#000000;fill-opacity:.011364;fill:#ff0066;opacity:1;paint-order:normal;text-decoration-line:none;text-indent:0;text-transform:none"/>
		<path d="m34.941 33.698c-4.2099 0-7.648 3.4381-7.648 7.648 0 5.8996e-5 1.43e-8 1.1798e-4 4.3e-8 1.7695e-4 2.9309e-5 0.21605 0.053789 0.38649 0.07354 0.58813-9.4384e-5 3.611e-5 -1.8876e-4 7.2227e-5 -2.8314e-4 1.0835e-4 -2.7661 1.0584-4.7797 3.6397-4.7797 6.7654 0 6.9049e-5 3.5e-9 1.381e-4 1.04e-8 2.0715e-4 1.128e-4 4.0474 3.3064 7.3536 7.3538 7.3536h2.1022e-4 16.472c7.4592e-5 0 1.4918e-4 -3.7e-9 2.2377e-4 -1.12e-8 4.3723-1.2179e-4 7.9419-3.5698 7.9419-7.9421 0-7.4592e-5 -3.7e-9 -1.4918e-4 -1.11e-8 -2.2377e-4 -1.2179e-4 -4.3723-3.5698-7.9419-7.9421-7.9419-6.7535e-5 0-1.3493e-4 -1e-8 -2.0219e-4 -3e-8 -0.061721-5.0886e-6 -0.091236-0.002333-0.14687 3e-8 -4.1362e-5 -5.2406e-5 -8.2726e-5 -1.0481e-4 -1.2409e-4 -1.5721e-4 -1.2123-1.5359-2.9474-2.583-5.0005-2.8311-4.6442e-5 -7.2682e-5 -9.2887e-5 -1.4536e-4 -1.3934e-4 -2.1804e-4 -1.3612-2.1301-3.6224-3.6399-6.3242-3.6399m0 0.65775m0 1.6955c1.4745 0 2.7537 0.82904 3.3912 2.0399 0.57189 7.8508e-5 1.0681 0.32168 1.3153 0.79135 0 0 0.21195 0.42391 0.21199 0.42399 0.0024897 0.0049793 0.082159 0.16432 0.082159 0.16432s0.50339 0.026492 0.50349 0.026497c0.0059129 3.1121e-4 0.19513 0.01027 0.19513 0.01027 1.2931 0.050813 2.3898 0.75854 3.0467 1.8015 0.50155 0.019772 0.92691 0.29431 1.1817 0.69885 0 0 0.26494 0.42391 0.26499 0.42399 0.0031121 0.0049793 0.1027 0.16432 0.1027 0.16432s0.52989-0.026492 0.52999-0.026497c0.0062241-3.1121e-4 0.2054-0.01027 0.2054-0.01027 0.15308-0.012277 0.25343-0.026508 0.31825-0.026517 0.059146-0.0047524 0.097927-0.010249 0.12298-0.010249 2.2341 0 4.027 1.7928 4.0271 4.0268 0.8665 1.6977e-4 1.5618 0.69561 1.5618 1.5621 0 2.2341-1.7928 4.027-4.0268 4.0271-1.6977e-4 0.8665-0.69561 1.5618-1.5621 1.5618h-11.869-4.604c-2 0-3.6031-1.603-3.6032-3.6029-0.7757-1.518e-4 -1.3974-0.62198-1.3974-1.3977 0-1.7334 1.2173-3.1704 2.8346-3.5237 1.1528e-4 -0.67232 0.47233-1.2296 1.0997-1.3666 0 0 0.82133-0.18546 0.82148-0.18549 0.0096474-0.0021784 0.31836-0.071889 0.31836-0.071889s-0.18546-0.82133-0.18549-0.82148c-0.0021784-0.0096474-0.071889-0.31836-0.071889-0.31836-0.055718-0.2723-0.079518-0.5236-0.079539-0.76857-0.021562-0.10548-0.030769-0.20283-0.030769-0.29773 0-2.117 1.6979-3.815 3.8148-3.8151 1.6079e-4 -0.8211 0.65879-1.4796 1.4799-1.4796" style="color:#000000;fill-opacity:.012949;fill:#ff0066;opacity:1;paint-order:normal;text-decoration-line:none;text-indent:0;text-transform:none"/>
		<path d="m34.47 33.36c-4.1645 0-7.5654 3.4009-7.5654 7.5654 0 6.7657e-5 1.64e-8 1.353e-4 4.93e-8 2.0293e-4 3.3612e-5 0.21371 0.053209 0.3823 0.072746 0.58175-1.0824e-4 4.1412e-5 -2.1648e-4 8.2832e-5 -3.2471e-4 1.2426e-4 -2.7362 1.047-4.728 3.6004-4.728 6.6923 0 7.9187e-5 3.9e-9 1.5837e-4 1.18e-8 2.3756e-4 1.2936e-4 4.0037 3.2707 7.2742 7.2744 7.2742h2.4108e-4 16.294c8.5544e-5 0 1.7109e-4 -4.2e-9 2.5663e-4 -1.28e-8 4.325-1.3967e-4 7.8561-3.5313 7.8561-7.8564 0-8.5544e-5 -4.2e-9 -1.7109e-4 -1.28e-8 -2.5663e-4 -1.3967e-4 -4.325-3.5313-7.8561-7.8564-7.8561-7.745e-5 0-1.5474e-4 -1.15e-8 -2.3188e-4 -3.44e-8 -0.061032-5.8357e-6 -0.090229-0.0023084-0.14526 3.44e-8 -4.7435e-5 -6.0101e-5 -9.4872e-5 -1.202e-4 -1.4231e-4 -1.8029e-4 -1.1992-1.5193-2.9155-2.5551-4.9465-2.8005-5.326e-5 -8.3353e-5 -1.0652e-4 -1.667e-4 -1.5979e-4 -2.5005e-4 -1.3465-2.1071-3.5833-3.6006-6.2558-3.6006m0 0.75432m0 1.5735c1.3684 0 2.5556 0.7694 3.1472 1.8931 0.65585 9.0035e-5 1.2249 0.3689 1.5084 0.90754 0 0 0.19671 0.39342 0.19676 0.39351 0.0028552 0.0057104 0.094221 0.18844 0.094221 0.18844s0.46719 0.024586 0.46729 0.024592c0.0067811 3.569e-4 0.22378 0.011778 0.22378 0.011778 1.2001 0.047158 2.2179 0.70397 2.8276 1.6718 0.57518 0.022675 1.063 0.33752 1.3552 0.80145 0 0 0.24589 0.39342 0.24594 0.39351 0.003569 0.0057104 0.11778 0.18844 0.11778 0.18844s0.49177-0.024586 0.49189-0.024592c0.007138-3.569e-4 0.23555-0.011778 0.23555-0.011778 0.14209-0.011396 0.23525-0.024605 0.29543-0.024616 0.067829-0.0054502 0.1123-0.011754 0.14104-0.011754 2.0734 0 3.7373 1.6638 3.7374 3.7371 0.99372 1.947e-4 1.7911 0.79774 1.7911 1.7915 0 2.0734-1.6638 3.7373-3.7371 3.7374-1.947e-4 0.99372-0.79774 1.7911-1.7915 1.7911h-11.015-5.28c-1.8561 0-3.3439-1.4877-3.344-3.3437-0.88958-1.7409e-4 -1.6026-0.71329-1.6026-1.6029 0-1.6087 1.1298-2.9423 2.6307-3.2702 1.322e-4 -0.77103 0.54168-1.4101 1.2611-1.5673 0 0 0.76225-0.17212 0.76243-0.17216 0.011064-0.0024983 0.36511-0.082443 0.36511-0.082443s-0.17212-0.76225-0.17216-0.76243c-0.0024983-0.011064-0.082443-0.36511-0.082443-0.36511-0.051714-0.25273-0.073806-0.48597-0.07383-0.71334-0.024727-0.12096-0.035286-0.23261-0.035286-0.34144 0-1.9647 1.5758-3.5406 3.5404-3.5407 1.8439e-4 -0.94165 0.75551-1.6969 1.6972-1.6969" style="color:#000000;fill-opacity:.014275;fill:#ff0066;opacity:1;paint-order:normal;text-decoration-line:none;text-indent:0;text-transform:none"/>
		<path d="m34.057 33.064c-4.1246 0-7.4931 3.3684-7.4931 7.4931 0 7.5242e-5 1.83e-8 1.5047e-4 5.48e-8 2.2568e-4 3.738e-5 0.21165 0.052701 0.37862 0.07205 0.57616-1.2038e-4 4.6055e-5 -2.4075e-4 9.2118e-5 -3.6112e-4 1.3819e-4 -2.71 1.037-4.6828 3.566-4.6828 6.6283 0 8.8064e-5 4.4e-9 1.7613e-4 1.32e-8 2.6419e-4 1.4387e-4 3.9654 3.2395 7.2046 7.2049 7.2046h2.6811e-4 16.139c9.5134e-5 0 1.9027e-4 -4.7e-9 2.854e-4 -1.42e-8 4.2837-1.5533e-4 7.781-3.4975 7.781-7.7813 0-9.5134e-5 -4.7e-9 -1.9027e-4 -1.42e-8 -2.854e-4 -1.5533e-4 -4.2837-3.4975-7.781-7.7813-7.781-8.6133e-5 0-1.7209e-4 -1.28e-8 -2.5787e-4 -3.83e-8 -0.060429-6.4899e-6 -0.089346-0.002287-0.14384 3.83e-8 -5.2752e-5 -6.6838e-5 -1.0551e-4 -1.3367e-4 -1.5827e-4 -2.0051e-4 -1.1877-1.5047-2.8877-2.5306-4.8992-2.7737-5.9231e-5 -9.2698e-5 -1.1847e-4 -1.8539e-4 -1.7771e-4 -2.7808e-4 -1.3336-2.0869-3.549-3.5661-6.196-3.5661m0 0.83888m0 1.4667c1.2755 0 2.3822 0.71716 2.9336 1.7646 0.72938 1.0013e-4 1.3622 0.41026 1.6775 1.0093 0 0 0.18336 0.36672 0.18341 0.36682l0.10478 0.20957s0.43548 0.022918 0.4356 0.022924c0.0075413 3.9691e-4 0.24886 0.013098 0.24886 0.013098 1.1186 0.043957 2.0674 0.65618 2.6357 1.5584 0.63966 0.025218 1.1822 0.37536 1.5071 0.8913 0 0 0.2292 0.36672 0.22926 0.36682 0.0039691 0.0063506 0.13098 0.20957 0.13098 0.20957s0.4584-0.022918 0.45853-0.022924c0.0079382-3.9691e-4 0.26196-0.013098 0.26196-0.013098 0.13247-0.010624 0.21932-0.022938 0.27545-0.02295 0.075434-0.0060612 0.1249-0.013072 0.15685-0.013072 1.9326 0 3.4836 1.5509 3.4838 3.4834 1.1051 2.1652e-4 1.9919 0.88717 1.9919 1.9923 0 1.9326-1.5509 3.4836-3.4834 3.4838-2.1652e-4 1.1051-0.88717 1.9919-1.9923 1.9919h-10.267-5.8719c-1.7301 0-3.1169-1.3867-3.117-3.1167-0.98932-1.936e-4 -1.7823-0.79326-1.7823-1.7826 0-1.4995 1.0531-2.7426 2.4521-3.0483 1.4702e-4 -0.85747 0.60241-1.5682 1.4025-1.743 0 0 0.71052-0.16044 0.71072-0.16048 0.012304-0.0027784 0.40604-0.091686 0.40604-0.091686s-0.16044-0.71052-0.16048-0.71072c-0.0027784-0.012304-0.091686-0.40604-0.091686-0.40604-0.048208-0.23559-0.068804-0.45302-0.068831-0.66498-0.0275-0.13452-0.039242-0.25869-0.039242-0.37972 0-1.8314 1.4688-3.3003 3.3-3.3004 2.0506e-4 -1.0472 0.84021-1.8871 1.8875-1.8871" style="color:#000000;fill-opacity:.015436;fill:#ff0066;opacity:1;paint-order:normal;text-decoration-line:none;text-indent:0;text-transform:none"/>
		<path d="m33.686 32.798c-4.0888 0-7.428 3.3392-7.428 7.428 0 8.2067e-5 1.99e-8 1.6412e-4 5.98e-8 2.4615e-4 4.077e-5 0.2098 0.052244 0.37532 0.071424 0.57114-1.3129e-4 5.0232e-5 -2.6258e-4 1.0047e-4 -3.9387e-4 1.5072e-4 -2.6865 1.028-4.6421 3.535-4.6421 6.5708 0 9.6052e-5 4.8e-9 1.921e-4 1.44e-8 2.8815e-4 1.5692e-4 3.9309 3.2113 7.142 7.1423 7.142h2.9242e-4 15.998c1.0376e-4 0 2.0752e-4 -5.2e-9 3.1128e-4 -1.55e-8 4.2465-1.6942e-4 7.7134-3.4672 7.7134-7.7137 0-1.0376e-4 -5.1e-9 -2.0752e-4 -1.55e-8 -3.1128e-4 -1.6942e-4 -4.2465-3.4672-7.7134-7.7137-7.7134-9.3945e-5 0-1.877e-4 -1.39e-8 -2.8126e-4 -4.17e-8 -0.059887-7.0785e-6 -0.088552-0.0022676-0.14256 4.17e-8 -5.7537e-5 -7.2901e-5 -1.1508e-4 -1.458e-4 -1.7262e-4 -2.1869e-4 -1.1774-1.4917-2.8626-2.5087-4.8566-2.7496-6.4603e-5 -1.0111e-4 -1.2921e-4 -2.0221e-4 -1.9383e-4 -3.033e-4 -1.322-2.0688-3.5182-3.5351-6.1422-3.5351m0 0.91497m0 1.3706c1.1919 0 2.2261 0.67017 2.7414 1.649 0.79553 1.0921e-4 1.4857 0.44747 1.8296 1.1008 0 0 0.17135 0.3427 0.1714 0.34281 0.0034633 0.0069266 0.11429 0.22858 0.11429 0.22858s0.40695 0.021417 0.40708 0.021423c0.0082253 4.3291e-4 0.27143 0.014286 0.27143 0.014286 1.0453 0.041077 1.9319 0.61318 2.463 1.4562 0.69768 0.027505 1.2894 0.40941 1.6438 0.97214 0 0 0.21419 0.3427 0.21425 0.34281 0.0043291 0.0069266 0.14286 0.22858 0.14286 0.22858s0.42837-0.021417 0.42851-0.021423c0.0086582-4.3291e-4 0.28572-0.014286 0.28572-0.014286 0.12381-0.0099301 0.205-0.021439 0.25747-0.021452 0.082275-0.006611 0.13622-0.014258 0.17107-0.014258 1.806 0 3.2554 1.4492 3.2555 3.2551 1.2054 2.3616e-4 2.1726 0.96764 2.1726 2.173 0 1.806-1.4492 3.2554-3.2551 3.2555-2.3616e-4 1.2054-0.96764 2.1726-2.173 2.1726h-9.5943-6.4045c-1.6168 0-2.9127-1.2958-2.9128-2.9125-1.079-2.1116e-4 -1.9439-0.86521-1.9439-1.9443 0-1.4013 0.98406-2.5629 2.2914-2.8486 1.6036e-4 -0.93524 0.65705-1.7105 1.5297-1.9011 0 0 0.66398-0.14993 0.66419-0.14998 0.01342-0.0030304 0.44287-0.1 0.44287-0.1s-0.14993-0.66398-0.14998-0.66419c-0.0030304-0.01342-0.1-0.44287-0.1-0.44287-0.045053-0.22017-0.064304-0.42338-0.064333-0.62147-0.029994-0.14672-0.042801-0.28215-0.042801-0.41416 0-1.7114 1.3725-3.0841 3.0838-3.0842 2.2366e-4 -1.1422 0.91642-2.0583 2.0587-2.0583" style="color:#000000;fill-opacity:.01648;fill:#ff0066;opacity:1;paint-order:normal;text-decoration-line:none;text-indent:0;text-transform:none"/>
		<path d="m33.345 32.554c-4.056 0-7.3684 3.3124-7.3684 7.3684 0 8.8318e-5 2.15e-8 1.7662e-4 6.44e-8 2.649e-4 4.3876e-5 0.20811 0.051825 0.37229 0.070851 0.56653-1.4129e-4 5.4058e-5 -2.8258e-4 1.0813e-4 -4.2387e-4 1.622e-4 -2.6649 1.0198-4.6048 3.5066-4.6048 6.518 0 1.0337e-4 5.1e-9 2.0673e-4 1.55e-8 3.101e-4 1.6887e-4 3.8994 3.1856 7.0847 7.085 7.0847h3.147e-4 15.87c1.1167e-4 0 2.2333e-4 -5.6e-9 3.3499e-4 -1.67e-8 4.2124-1.8232e-4 7.6514-3.4394 7.6514-7.6518 0-1.1167e-4 -5.5e-9 -2.2333e-4 -1.67e-8 -3.3499e-4 -1.8232e-4 -4.2124-3.4394-7.6514-7.6518-7.6514-1.011e-4 0-2.0199e-4 -1.5e-8 -3.0268e-4 -4.49e-8 -0.05939-7.6177e-6 -0.087825-0.0022499-0.1414 4.49e-8 -6.192e-5 -7.8453e-5 -1.2384e-4 -1.569e-4 -1.8577e-4 -2.3535e-4 -1.1679-1.4797-2.8396-2.4885-4.8176-2.7275-6.9524e-5 -1.0881e-4 -1.3905e-4 -2.1761e-4 -2.0859e-4 -3.2641e-4 -1.3114-2.0522-3.49-3.5067-6.0929-3.5067m0 0.98466m0 1.2825c1.1154 0 2.0832 0.62712 2.5654 1.5431 0.85612 1.1753e-4 1.5989 0.48156 1.969 1.1847 0 0 0.16035 0.32069 0.16041 0.32081 0.0037271 0.0074541 0.12299 0.24599 0.12299 0.24599s0.38082 0.020042 0.38097 0.020049c0.0088518 4.6588e-4 0.29211 0.015374 0.29211 0.015374 0.97821 0.038439 1.8079 0.5738 2.3048 1.3627 0.75082 0.0296 1.3876 0.44059 1.769 1.0462 0 0 0.20043 0.32069 0.20051 0.32081 0.0046588 0.0074541 0.15374 0.24599 0.15374 0.24599s0.40087-0.020042 0.40102-0.020049c0.0093177-4.6588e-4 0.30748-0.015374 0.30748-0.015374 0.11588-0.0092941 0.19188-0.020066 0.241-0.02008 0.088542-0.0071145 0.1466-0.015344 0.1841-0.015344 1.69 0 3.0463 1.3562 3.0465 3.046 1.2972 2.5415e-4 2.3381 1.0413 2.3381 2.3386 0 1.69-1.3562 3.0463-3.046 3.0465-2.5415e-4 1.2972-1.0413 2.3381-2.3386 2.3381h-8.9781-6.8923c-1.5129 0-2.7257-1.2126-2.7258-2.7254-1.1612-2.2725e-4 -2.092-0.93111-2.092-2.0924 0-1.3113 0.92085-2.3983 2.1442-2.6656 1.7257e-4 -1.0065 0.70709-1.8408 1.6462-2.0459 0 0 0.62135-0.1403 0.62157-0.14036 0.014442-0.0032612 0.4766-0.10762 0.4766-0.10762s-0.1403-0.62135-0.14036-0.62158c-0.0032612-0.014442-0.10762-0.4766-0.10762-0.4766-0.042163-0.20605-0.060182-0.39623-0.060214-0.58161-0.032278-0.1579-0.046061-0.30364-0.046061-0.44571 0-1.6015 1.2844-2.886 2.8857-2.8862 2.407e-4 -1.2292 0.98622-2.215 2.2155-2.215" style="color:#000000;fill-opacity:.017436;fill:#ff0066;opacity:1;paint-order:normal;text-decoration-line:none;text-indent:0;text-transform:none"/>
		<path d="m33.03 32.327c-4.0256 0-7.3131 3.2875-7.3131 7.3131 0 9.4116e-5 2.29e-8 1.8821e-4 6.86e-8 2.8229e-4 4.6756e-5 0.20654 0.051437 0.36949 0.070319 0.56226-1.5057e-4 5.7607e-5 -3.0114e-4 1.1522e-4 -4.517e-4 1.7285e-4 -2.6449 1.0121-4.5702 3.4803-4.5702 6.4691 0 1.1015e-4 5.5e-9 2.2031e-4 1.65e-8 3.3046e-4 1.7995e-4 3.8701 3.1617 7.0315 7.0318 7.0315h3.3536e-4 15.751c1.19e-4 0 2.3799e-4 -5.9e-9 3.5699e-4 -1.78e-8 4.1808-1.9429e-4 7.594-3.4136 7.594-7.5944 0-1.19e-4 -5.9e-9 -2.3799e-4 -1.78e-8 -3.5699e-4 -1.9429e-4 -4.1808-3.4136-7.594-7.5944-7.594-1.0774e-4 0-2.1526e-4 -1.6e-8 -3.2256e-4 -4.78e-8 -0.058929-8.1179e-6 -0.087151-0.0022335-0.14031 4.78e-8 -6.5985e-5 -8.3604e-5 -1.3197e-4 -1.672e-4 -1.9796e-4 -2.508e-4 -1.1592-1.4686-2.8183-2.4698-4.7814-2.707-7.4088e-5 -1.1595e-4 -1.4818e-4 -2.3189e-4 -2.2228e-4 -3.4784e-4 -1.3016-2.0367-3.4638-3.4804-6.0471-3.4804m0 1.0493m0 1.2009c1.0444 0 1.9506 0.5872 2.4021 1.4448 0.91233 1.2524e-4 1.7039 0.51317 2.0983 1.2624 0 0 0.15014 0.30028 0.15021 0.30041 0.0039717 0.0079435 0.13107 0.26214 0.13107 0.26214s0.35659 0.018766 0.35674 0.018774c0.0094329 4.9647e-4 0.31129 0.016383 0.31129 0.016383 0.91594 0.035993 1.6928 0.53727 2.1581 1.2759 0.80011 0.031543 1.4787 0.46951 1.8852 1.1149 0 0 0.18768 0.30028 0.18776 0.30041 0.0049647 0.0079435 0.16383 0.26214 0.16383 0.26214s0.37536-0.018766 0.37551-0.018774c0.0099294-4.9647e-4 0.32767-0.016383 0.32767-0.016383 0.10853-0.0087042 0.17971-0.018792 0.22572-0.018807 0.094355-0.0075816 0.15622-0.016351 0.19619-0.016351 1.5824 0 2.8524 1.2698 2.8526 2.8521 1.3823 2.7084e-4 2.4916 1.1097 2.4916 2.4921 0 1.5824-1.2698 2.8524-2.8521 2.8526-2.7084e-4 1.3823-1.1097 2.4916-2.4921 2.4916h-8.4065-7.3448c-1.4166 0-2.5522-1.1354-2.5523-2.5519-1.2375-2.4217e-4 -2.2293-0.99224-2.2293-2.2298 0-1.2278 0.86222-2.2457 2.0077-2.496 1.839e-4 -1.0726 0.75351-1.9616 1.7543-2.1802 0 0 0.5818-0.13137 0.58205-0.13143 0.015391-0.0034753 0.50789-0.11468 0.50789-0.11468s-0.13137-0.5818-0.13143-0.58205c-0.0034753-0.015391-0.11468-0.50789-0.11468-0.50789-0.039483-0.19295-0.056359-0.37104-0.056392-0.54464-0.034397-0.16827-0.049085-0.32357-0.049085-0.47497 0-1.4995 1.2026-2.7023 2.702-2.7025 2.565e-4 -1.3099 1.051-2.3605 2.3609-2.3605" style="color:#000000;fill-opacity:.018324;fill:#ff0066;opacity:1;paint-order:normal;text-decoration-line:none;text-indent:0;text-transform:none"/>
		<path d="m32.734 32.116c-3.9971 0-7.2613 3.2642-7.2613 7.2613 0 9.9546e-5 2.42e-8 1.9907e-4 7.25e-8 2.9857e-4 4.9454e-5 0.20507 0.051073 0.36686 0.069822 0.55826-1.5926e-4 6.093e-5 -3.1851e-4 1.2187e-4 -4.7776e-4 1.8282e-4 -2.6262 1.005-4.5378 3.4557-4.5378 6.4233 0 1.1651e-4 5.9e-9 2.3302e-4 1.75e-8 3.4952e-4 1.9033e-4 3.8427 3.1393 6.9817 6.982 6.9817h3.547e-4 15.639c1.2586e-4 0 2.5172e-4 -6.3e-9 3.7758e-4 -1.89e-8 4.1512-2.055e-4 7.5402-3.3894 7.5402-7.5406 0-1.2586e-4 -6.3e-9 -2.5172e-4 -1.88e-8 -3.7758e-4 -2.055e-4 -4.1512-3.3894-7.5402-7.5406-7.5402-1.1395e-4 0-2.2767e-4 -1.7e-8 -3.4116e-4 -5.06e-8 -0.058498-8.5862e-6 -0.086519-0.0022182-0.1393 5.06e-8 -6.9791e-5 -8.8427e-5 -1.3959e-4 -1.7685e-4 -2.0938e-4 -2.6527e-4 -1.151-1.4582-2.7983-2.4523-4.7476-2.6878-7.8362e-5 -1.2264e-4 -1.5673e-4 -2.4527e-4 -2.3511e-4 -3.679e-4 -1.2924-2.0223-3.4393-3.4557-6.0043-3.4557m0 1.1098m0 1.1244c0.97791 0 1.8264 0.54981 2.2492 1.3528 0.96496 1.3247e-4 1.8022 0.54278 2.2193 1.3353 0 0 0.14059 0.28117 0.14065 0.28131l0.13863 0.27726s0.33389 0.017572 0.33405 0.01758c0.0099771 5.2511e-4 0.32924 0.017329 0.32924 0.017329 0.85763 0.033701 1.585 0.50306 2.0207 1.1947 0.84627 0.033363 1.564 0.4966 1.9939 1.1792 0 0 0.17573 0.28117 0.17582 0.28131 0.0052511 0.0084018 0.17329 0.27726 0.17329 0.27726s0.35146-0.017572 0.35163-0.01758c0.010502-5.2511e-4 0.34657-0.017329 0.34657-0.017329 0.10164-0.0081518 0.16831-0.017599 0.21141-0.017614 0.099798-0.0080189 0.16524-0.017294 0.20751-0.017294 1.4817 0 2.6708 1.189 2.671 2.6705 1.4621 2.8646e-4 2.6353 1.1737 2.6353 2.6359 0 1.4817-1.189 2.6708-2.6705 2.671-2.8646e-4 1.4621-1.1737 2.6353-2.6359 2.6353h-7.8713-7.7685c-1.3264 0-2.3897-1.0631-2.3899-2.3894-1.3089-2.5614e-4 -2.3579-1.0495-2.3579-2.3584 0-1.1497 0.80732-2.1027 1.8799-2.3371 1.9451e-4 -1.1344 0.79698-2.0748 1.8555-2.306 0 0 0.54477-0.12301 0.54503-0.12307 0.016278-0.0036758 0.53719-0.1213 0.53719-0.1213s-0.12301-0.54477-0.12307-0.54503c-0.0036758-0.016278-0.1213-0.53719-0.1213-0.53719-0.036973-0.18069-0.052778-0.34745-0.052814-0.51002-0.036382-0.17797-0.051917-0.34224-0.051917-0.50237 0-1.4041 1.126-2.5303 2.5299-2.5304 2.713e-4 -1.3855 1.1116-2.4966 2.4971-2.4966" style="color:#000000;fill-opacity:.019155;fill:#ff0066;opacity:1;paint-order:normal;text-decoration-line:none;text-indent:0;text-transform:none"/>
		<path d="m32.456 31.916c-3.9702 0-7.2125 3.2423-7.2125 7.2125 0 1.0467e-4 2.55e-8 2.0931e-4 7.63e-8 3.1394e-4 5.1998e-5 0.20368 0.05073 0.36438 0.069352 0.55449-1.6745e-4 6.4065e-5 -3.349e-4 1.2814e-4 -5.0234e-4 1.9223e-4 -2.6085 0.9982-4.5073 3.4324-4.5073 6.3801 0 1.225e-4 6.1e-9 2.4501e-4 1.83e-8 3.6751e-4 2.0013e-4 3.8168 3.1182 6.9347 6.9351 6.9347h3.7295e-4 15.534c1.3234e-4 0 2.6467e-4 -6.6e-9 3.9701e-4 -1.98e-8 4.1232-2.1607e-4 7.4895-3.3666 7.4895-7.4899 0-1.3234e-4 -6.6e-9 -2.6467e-4 -1.98e-8 -3.9701e-4 -2.1607e-4 -4.1232-3.3666-7.4895-7.4899-7.4895-1.1982e-4 0-2.3939e-4 -1.78e-8 -3.5872e-4 -5.32e-8 -0.058091-9.0279e-6 -0.085923-0.0022037-0.13834 5.32e-8 -7.3382e-5 -9.2977e-5 -1.4677e-4 -1.8595e-4 -2.2016e-4 -2.7892e-4 -1.1432-1.4483-2.7795-2.4358-4.7156-2.6697-8.2394e-5 -1.2895e-4 -1.648e-4 -2.5789e-4 -2.472e-4 -3.8683e-4 -1.2837-2.0087-3.4161-3.4325-5.9639-3.4325m0 1.1669m0 1.0523c0.91519 0 1.7092 0.51454 2.1049 1.266 1.0146 1.3929e-4 1.8949 0.5707 2.3335 1.404 0 0 0.13157 0.26314 0.13164 0.26328l0.14576 0.29152s0.31248 0.016445 0.31265 0.016454c0.01049 5.5213e-4 0.34618 0.01822 0.34618 0.01822 0.80263 0.03154 1.4834 0.47079 1.8912 1.1181 0.88982 0.035079 1.6445 0.52215 2.0965 1.2399 0 0 0.16446 0.26314 0.16455 0.26328 0.0055213 0.008834 0.1822 0.29152 0.1822 0.29152s0.32893-0.016445 0.3291-0.016454c0.011043-5.5213e-4 0.3644-0.01822 0.3644-0.01822 0.095142-0.0076307 0.15756-0.016473 0.19792-0.01649 0.10493-0.0084315 0.17374-0.018184 0.21818-0.018184 1.3867 0 2.4996 1.1127 2.4997 2.4992 1.5373 3.012e-4 2.7709 1.2341 2.7709 2.7715 0 1.3867-1.1127 2.4996-2.4992 2.4997-3.012e-4 1.5373-1.2341 2.7709-2.7715 2.7709h-7.3664-8.1682c-1.2414 0-2.2364-0.99491-2.2366-2.2361-1.3762-2.6932e-4 -2.4792-1.1035-2.4792-2.4797 0-1.0759 0.75553-1.9678 1.7593-2.1872 2.0452e-4 -1.1928 0.83799-2.1815 1.951-2.4246 0 0 0.50984-0.11512 0.51011-0.11519 0.017116-0.0038649 0.56483-0.12754 0.56483-0.12754s-0.11512-0.50984-0.11519-0.51011c-0.0038649-0.017116-0.12754-0.56483-0.12754-0.56483-0.034605-0.16912-0.049401-0.32521-0.049438-0.47737-0.038254-0.18713-0.054588-0.35985-0.054588-0.52822 0-1.314 1.0538-2.368 2.3676-2.3682 2.8526e-4 -1.4567 1.1688-2.6251 2.6256-2.6251" style="color:#000000;fill-opacity:.019938;fill:#ff0066;opacity:1;paint-order:normal;text-decoration-line:none;text-indent:0;text-transform:none"/>
		<path d="m32.191 31.726c-3.9447 0-7.1661 3.2215-7.1661 7.1661 0 1.0953e-4 2.66e-8 2.1903e-4 7.98e-8 3.2851e-4 5.4413e-5 0.20236 0.050405 0.36203 0.068906 0.55091-1.7523e-4 6.704e-5 -3.5045e-4 1.3409e-4 -5.2566e-4 2.0116e-4 -2.5917 0.99179-4.4783 3.4104-4.4783 6.3391 0 1.2819e-4 6.4e-9 2.5638e-4 1.92e-8 3.8457e-4 2.0942e-4 3.7923 3.0982 6.8901 6.8905 6.8901h3.9027e-4 15.434c1.3848e-4 0 2.7696e-4 -6.9e-9 4.1544e-4 -2.07e-8 4.0967-2.261e-4 7.4414-3.345 7.4414-7.4418 0-1.3848e-4 -6.9e-9 -2.7696e-4 -2.07e-8 -4.1544e-4 -2.261e-4 -4.0967-3.345-7.4414-7.4418-7.4414-1.2538e-4 0-2.505e-4 -1.86e-8 -3.7537e-4 -5.57e-8 -0.057704-9.447e-6 -0.085358-0.0021899-0.13744 5.57e-8 -7.6789e-5 -9.7294e-5 -1.5358e-4 -1.9458e-4 -2.3038e-4 -2.9187e-4 -1.1359-1.439-2.7616-2.4201-4.6853-2.6526-8.622e-5 -1.3494e-4 -1.7245e-4 -2.6987e-4 -2.5868e-4 -4.0479e-4 -1.2754-1.9958-3.3942-3.4104-5.9256-3.4104m0 1.2211m0 0.98385c0.85568 0 1.5981 0.48107 1.9681 1.1837 1.0617 1.4575e-4 1.9829 0.5972 2.4419 1.4692 0 0 0.12302 0.24604 0.12309 0.24618 0.0046221 0.0092442 0.15253 0.30506 0.15253 0.30506s0.29217 0.015376 0.29234 0.015385c0.010978 5.7776e-4 0.36226 0.019066 0.36226 0.019066 0.75044 0.029489 1.3869 0.44017 1.7682 1.0453 0.93113 0.036708 1.7208 0.54639 2.1939 1.2974 0 0 0.15377 0.24604 0.15386 0.24618 0.0057776 0.0092442 0.19066 0.30506 0.19066 0.30506s0.30754-0.015376 0.30773-0.015385c0.011555-5.7776e-4 0.38132-0.019066 0.38132-0.019066 0.088977-0.0071362 0.14735-0.015406 0.18512-0.015423 0.10981-0.008823 0.1818-0.019028 0.22832-0.019028 1.2965 0 2.337 1.0403 2.3372 2.3366 1.6087 3.1519e-4 2.8996 1.2914 2.8996 2.9002 0 1.2965-1.0403 2.337-2.3366 2.3372-3.1519e-4 1.6087-1.2914 2.8996-2.9002 2.8996h-6.8873-8.5475c-1.1606 0-2.091-0.9302-2.0912-2.0907-1.4401-2.8182e-4 -2.5944-1.1547-2.5944-2.5949 0-1.006 0.70639-1.8399 1.6449-2.045 2.1402e-4 -1.2482 0.8769-2.2828 2.0416-2.5372 0 0 0.47669-0.10764 0.47698-0.1077 0.017911-0.0040443 0.59105-0.13346 0.59105-0.13346s-0.10764-0.4767-0.1077-0.47698c-0.0040443-0.017911-0.13346-0.59105-0.13346-0.59105-0.032359-0.15814-0.046196-0.3041-0.046235-0.44638-0.04003-0.19582-0.057123-0.37656-0.057123-0.55275 0-1.2286 0.98526-2.214 2.2137-2.2142 2.985e-4 -1.5244 1.2231-2.747 2.7475-2.747" style="color:#000000;fill-opacity:.020682;fill:#ff0066;opacity:1;paint-order:normal;text-decoration-line:none;text-indent:0;text-transform:none"/>
		<path d="m31.939 31.545c-3.9204 0-7.122 3.2016-7.122 7.122 0 1.1416e-4 2.77e-8 2.283e-4 8.32e-8 3.4241e-4 5.6714e-5 0.20111 0.050095 0.35978 0.068481 0.5475-1.8264e-4 6.9876e-5 -3.6527e-4 1.3976e-4 -5.479e-4 2.0966e-4 -2.5757 0.98569-4.4507 3.3893-4.4507 6.3 0 1.3361e-4 6.7e-9 2.6723e-4 2e-8 4.0084e-4 2.1828e-4 3.7689 3.0791 6.8476 6.848 6.8476h4.0678e-4 15.339c1.4434e-4 0 2.8868e-4 -7.2e-9 4.3302e-4 -2.16e-8 4.0715-2.3567e-4 7.3955-3.3244 7.3955-7.3959 0-1.4434e-4 -7.2e-9 -2.8868e-4 -2.16e-8 -4.3302e-4 -2.3567e-4 -4.0715-3.3244-7.3955-7.3959-7.3955-1.3068e-4 0-2.611e-4 -1.94e-8 -3.9125e-4 -5.81e-8 -0.057336-9.8467e-6 -0.084819-0.0021768-0.13657 5.81e-8 -8.0038e-5 -1.0141e-4 -1.6008e-4 -2.0282e-4 -2.4013e-4 -3.0422e-4 -1.1289-1.4302-2.7446-2.4052-4.6564-2.6362-8.9868e-5 -1.4064e-4 -1.7974e-4 -2.8128e-4 -2.6962e-4 -4.2192e-4 -1.2676-1.9835-3.3732-3.3894-5.889-3.3894m0 1.2728m0 0.91859c0.79894 0 1.4921 0.44917 1.8376 1.1052 1.1066 1.5192e-4 2.0668 0.62247 2.5452 1.5313 0 0 0.11486 0.22973 0.11494 0.22988 0.0048176 0.0096353 0.15898 0.31796 0.15898 0.31796s0.2728 0.014357 0.27298 0.014366c0.011442 6.0221e-4 0.37758 0.019873 0.37758 0.019873 0.70068 0.027534 1.295 0.41098 1.651 0.97602 0.97052 0.038261 1.7936 0.56951 2.2867 1.3523 0 0 0.14358 0.22973 0.14367 0.22988 0.0060221 0.0096353 0.19873 0.31796 0.19873 0.31796s0.28716-0.014357 0.28735-0.014366c0.012044-6.0221e-4 0.39746-0.019873 0.39746-0.019873 0.083099-0.0066648 0.13763-0.014388 0.17291-0.014406 0.11445-0.0091963 0.1895-0.019833 0.23797-0.019833 1.2105 0 2.1821 0.97132 2.1823 2.1817 1.6767 3.2852e-4 3.0222 1.346 3.0222 3.0229 0 1.2105-0.97132 2.1821-2.1817 2.1823-3.2852e-4 1.6767-1.346 3.0222-3.0229 3.0222h-6.4306-8.9091c-1.0837 0-1.9524-0.8685-1.9526-1.952-1.501-2.9374e-4 -2.7041-1.2036-2.7041-2.7047 0-0.93926 0.65954-1.7179 1.5358-1.9094 2.2307e-4 -1.301 0.914-2.3794 2.1279-2.6445 0 0 0.44509-0.1005 0.44539-0.10057 0.018668-0.0042154 0.61606-0.13911 0.61606-0.13911s-0.1005-0.44509-0.10057-0.44539c-0.0042154-0.018668-0.13911-0.61606-0.13911-0.61606-0.030217-0.14767-0.043141-0.28397-0.043181-0.41684-0.041723-0.2041-0.059539-0.39249-0.059539-0.57613 0-1.1471 0.91991-2.0672 2.0668-2.0674 3.1113e-4 -1.5889 1.2748-2.8632 2.8638-2.8632" style="color:#000000;fill-opacity:.021391;fill:#ff0066;opacity:1;paint-order:normal;text-decoration-line:none;text-indent:0;text-transform:none"/>
		<path d="m31.698 31.372c-3.8971 0-7.0797 3.1826-7.0797 7.0797 0 1.186e-4 2.88e-8 2.3717e-4 8.64e-8 3.5571e-4 5.8918e-5 0.19991 0.049798 0.35764 0.068075 0.54423-1.8973e-4 7.2591e-5 -3.7946e-4 1.4519e-4 -5.6918e-4 2.1781e-4 -2.5604 0.97984-4.4242 3.3692-4.4242 6.2626 0 1.3881e-4 6.9e-9 2.7761e-4 2.07e-8 4.1641e-4 2.2676e-4 3.7465 3.0608 6.807 6.8074 6.807h4.2258e-4 15.248c1.4995e-4 0 2.999e-4 -7.5e-9 4.4984e-4 -2.24e-8 4.0473-2.4482e-4 7.3515-3.3046 7.3515-7.352 0-1.4995e-4 -7.4e-9 -2.999e-4 -2.24e-8 -4.4984e-4 -2.4482e-4 -4.0473-3.3046-7.3515-7.352-7.3515-1.3576e-4 0-2.7124e-4 -2.02e-8 -4.0645e-4 -6.03e-8 -0.056984-1.0229e-5 -0.084303-0.0021642-0.13574 6.03e-8 -8.3148e-5 -1.0535e-4 -1.663e-4 -2.107e-4 -2.4946e-4 -3.1604e-4 -1.1222-1.4217-2.7283-2.3909-4.6288-2.6205-9.3359e-5 -1.4611e-4 -1.8673e-4 -2.9221e-4 -2.801e-4 -4.3831e-4 -1.26-1.9717-3.3532-3.3692-5.8541-3.3692m0 1.3222m0 0.85613c0.74463 0 1.3907 0.41862 1.7127 1.03 1.1496 1.5782e-4 2.1471 0.64665 2.644 1.5908 0 0 0.10706 0.21411 0.10714 0.21427 0.0050048 0.01001 0.16516 0.33032 0.16516 0.33032s0.25426 0.013381 0.25445 0.013391c0.011886 6.256e-4 0.39225 0.020645 0.39225 0.020645 0.65304 0.025662 1.2069 0.38303 1.5387 0.90965 1.0082 0.039747 1.8633 0.59164 2.3755 1.4049 0 0 0.13382 0.21411 0.13392 0.21427 0.006256 0.01001 0.20645 0.33032 0.20645 0.33032s0.26764-0.013381 0.26784-0.013391c0.012512-6.256e-4 0.4129-0.020645 0.4129-0.020645 0.077472-0.0062135 0.12832-0.013413 0.16122-0.013432 0.1189-0.0095536 0.19686-0.020604 0.24722-0.020604 1.1282 0 2.0337 0.90527 2.0339 2.0333 1.7419 3.4128e-4 3.1397 1.3983 3.1397 3.1403 0 1.1282-0.90527 2.0337-2.0333 2.0339-3.4128e-4 1.7419-1.3983 3.1397-3.1403 3.1397h-5.9933-9.2552c-1.01 0-1.8197-0.80945-1.8198-1.8193-1.5593-3.0516e-4 -2.8092-1.2503-2.8092-2.8097 0-0.87541 0.6147-1.6011 1.4313-1.7796 2.3174e-4 -1.3515 0.94951-2.4718 2.2106-2.7473 0 0 0.41484-0.093674 0.41515-0.093744 0.019394-0.0043792 0.63999-0.14451 0.63999-0.14451s-0.093674-0.41484-0.093744-0.41515c-0.0043792-0.019394-0.14451-0.63999-0.14451-0.63999-0.028166-0.13765-0.040216-0.2647-0.040258-0.38856-0.043344-0.21203-0.061852-0.40774-0.061852-0.59851 0-1.0691 0.85736-1.9267 1.9263-1.9269 3.2322e-4 -1.6506 1.3243-2.9744 2.975-2.9744" style="color:#000000;fill-opacity:.02207;fill:#ff0066;opacity:1;paint-order:normal;text-decoration-line:none;text-indent:0;text-transform:none"/>
		<path d="m31.466 31.206c-3.8747 0-7.0391 3.1643-7.0391 7.0391 0 1.2286e-4 2.99e-8 2.4569e-4 8.96e-8 3.6849e-4 6.1034e-5 0.19875 0.049512 0.35558 0.067684 0.5411-1.9655e-4 7.5198e-5 -3.9309e-4 1.5041e-4 -5.8963e-4 2.2563e-4 -2.5457 0.97422-4.3988 3.3499-4.3988 6.2266 0 1.4379e-4 7.2e-9 2.8758e-4 2.15e-8 4.3137e-4 2.3491e-4 3.725 3.0433 6.7679 6.7683 6.7679h4.3776e-4 15.161c1.5533e-4 0 3.1067e-4 -7.7e-9 4.66e-4 -2.32e-8 4.024-2.5362e-4 7.3093-3.2857 7.3093-7.3098 0-1.5533e-4 -7.7e-9 -3.1067e-4 -2.32e-8 -4.66e-4 -2.5362e-4 -4.024-3.2857-7.3093-7.3098-7.3093-1.4064e-4 0-2.8099e-4 -2.09e-8 -4.2105e-4 -6.24e-8 -0.056645-1.0597e-5 -0.083807-0.0021522-0.13495 6.24e-8 -8.6134e-5 -1.0913e-4 -1.7227e-4 -2.1826e-4 -2.5842e-4 -3.2739e-4 -1.1157-1.4135-2.7127-2.3772-4.6022-2.6055-9.6712e-5 -1.5136e-4 -1.9343e-4 -3.0271e-4 -2.9016e-4 -4.5405e-4 -1.2528-1.9604-3.334-3.3499-5.8205-3.3499m0 1.3697m0 0.79614c0.69246 0 1.2933 0.38929 1.5927 0.95785 1.1909 1.6349e-4 2.2242 0.66988 2.739 1.6479 0 0 0.099559 0.19912 0.099641 0.19928 0.0051846 0.010369 0.17109 0.34218 0.17109 0.34218s0.23645 0.012444 0.23665 0.012454c0.012313 6.4807e-4 0.40634 0.021386 0.40634 0.021386 0.6073 0.023864 1.1224 0.35619 1.4309 0.84591 1.0444 0.041175 1.9302 0.61289 2.4608 1.4553 0 0 0.12445 0.19912 0.12455 0.19928 0.0064807 0.010369 0.21386 0.34218 0.21386 0.34218s0.2489-0.012444 0.2491-0.012454c0.012961-6.4807e-4 0.42773-0.021386 0.42773-0.021386 0.072068-0.0057801 0.11938-0.012477 0.15-0.012497 0.12317-0.0098967 0.20393-0.021344 0.2561-0.021344 1.0492 0 1.8913 0.84184 1.8915 1.8908 1.8044 3.5354e-4 3.2524 1.4486 3.2524 3.2531 0 1.0492-0.84184 1.8913-1.8908 1.8915-3.5354e-4 1.8044-1.4486 3.2524-3.2531 3.2524h-5.5734-9.5876c-0.93926 0-1.6922-0.75273-1.6924-1.6918-1.6154-3.1612e-4 -2.9101-1.2952-2.9101-2.9107 0-0.81408 0.57162-1.489 1.331-1.655 2.4006e-4 -1.4001 0.98361-2.5606 2.29-2.8459 0 0 0.38579-0.087114 0.38611-0.087186 0.02009-0.0045365 0.66298-0.1497 0.66298-0.1497s-0.087114-0.38579-0.087186-0.38611c-0.0045365-0.02009-0.1497-0.66298-0.1497-0.66298-0.026197-0.12803-0.037407-0.2462-0.037451-0.36139-0.044901-0.21965-0.064074-0.42238-0.064074-0.62001 0-0.99424 0.79728-1.7917 1.7913-1.7919 3.3483e-4 -1.7099 1.3719-3.0813 3.0819-3.0813" style="color:#000000;fill-opacity:.022722;fill:#ff0066;opacity:1;paint-order:normal;text-decoration-line:none;text-indent:0;text-transform:none"/>
		<path d="m31.242 31.046c-3.8532 0-6.9999 3.1467-6.9999 6.9999 0 1.2696e-4 3.08e-8 2.5389e-4 9.25e-8 3.808e-4 6.3073e-5 0.19764 0.049237 0.35359 0.067308 0.53807-2.0311e-4 7.771e-5 -4.0622e-4 1.5543e-4 -6.0932e-4 2.3317e-4 -2.5315 0.96881-4.3743 3.3313-4.3743 6.192 0 1.4859e-4 7.4e-9 2.9719e-4 2.23e-8 4.4578e-4 2.4275e-4 3.7043 3.0263 6.7303 6.7307 6.7303h4.5238e-4 15.076c1.6052e-4 0 3.2104e-4 -8e-9 4.8156e-4 -2.4e-8 4.0017-2.6209e-4 7.2687-3.2674 7.2687-7.2692 0-1.6052e-4 -8e-9 -3.2104e-4 -2.4e-8 -4.8156e-4 -2.6209e-4 -4.0017-3.2674-7.2687-7.2692-7.2687-1.4533e-4 0-2.9037e-4 -2.16e-8 -4.3512e-4 -6.46e-8 -0.056319-1.0951e-5 -0.08333-0.0021405-0.13418 6.46e-8 -8.9011e-5 -1.1278e-4 -1.7803e-4 -2.2555e-4 -2.6705e-4 -3.3832e-4 -1.1095-1.4056-2.6976-2.364-4.5766-2.591-9.9943e-5 -1.5641e-4 -1.9989e-4 -3.1282e-4 -2.9985e-4 -4.6922e-4 -1.2458-1.9494-3.3154-3.3312-5.7881-3.3312m0 1.4155m0 0.73835c0.64222 0 1.1994 0.36103 1.4772 0.88833 1.2307 1.6895e-4 2.2985 0.69225 2.8305 1.703 0 0 0.092337 0.18467 0.092422 0.18484 0.0053577 0.010715 0.17681 0.35361 0.17681 0.35361s0.2193 0.011541 0.2195 0.011552c0.012725 6.6972e-4 0.41991 0.022101 0.41991 0.022101 0.56323 0.022132 1.0409 0.33034 1.3271 0.78451 1.0793 0.04255 1.9947 0.63336 2.543 1.5039 0 0 0.11542 0.18467 0.11553 0.18484 0.0066972 0.010715 0.22101 0.35361 0.22101 0.35361s0.23084-0.011541 0.23106-0.011552c0.013394-6.6972e-4 0.44201-0.022101 0.44201-0.022101 0.066863-0.0053626 0.11076-0.011576 0.13919-0.011596 0.12728-0.010227 0.21074-0.022057 0.26465-0.022057 0.97308 0 1.754 0.78073 1.7543 1.7536 1.8647 3.6535e-4 3.3611 1.4969 3.3611 3.3617 0 0.97308-0.78073 1.754-1.7536 1.7543-3.6535e-4 1.8647-1.4969 3.3611-3.3617 3.3611h-5.1689-9.9079c-0.87111 0-1.5694-0.69809-1.5696-1.569-1.6693-3.2668e-4 -3.0073-1.3385-3.0073-3.0079 0-0.75501 0.53013-1.3809 1.2344-1.5349 2.4808e-4 -1.4468 1.0165-2.6461 2.3665-2.941 0 0 0.35781-0.080795 0.35814-0.080869 0.020761-0.004688 0.68512-0.15471 0.68512-0.15471s-0.080795-0.35781-0.080869-0.35814c-0.004688-0.020761-0.15471-0.68512-0.15471-0.68512-0.0243-0.11876-0.034701-0.22837-0.034746-0.33523-0.046401-0.22698-0.066214-0.43649-0.066214-0.64072 0-0.92209 0.73941-1.6617 1.6613-1.6619 3.4601e-4 -1.767 1.4177-3.1842 3.1848-3.1842" style="color:#000000;fill-opacity:.02335;fill:#ff0066;opacity:1;paint-order:normal;text-decoration-line:none;text-indent:0;text-transform:none"/>
		<path d="m31.027 30.891c-3.8324 0-6.9621 3.1297-6.9621 6.9621 0 1.3092e-4 3.18e-8 2.6182e-4 9.54e-8 3.9268e-4 6.5041e-5 0.19657 0.048972 0.35167 0.066944 0.53516-2.0945e-4 8.0135e-5 -4.189e-4 1.6028e-4 -6.2834e-4 2.4045e-4 -2.5179 0.96359-4.3507 3.3133-4.3507 6.1586 0 1.5323e-4 7.7e-9 3.0646e-4 2.29e-8 4.5969e-4 2.5033e-4 3.6843 3.01 6.6939 6.6944 6.6939h4.665e-4 14.995c1.6553e-4 0 3.3106e-4 -8.2e-9 4.9659e-4 -2.47e-8 3.9801-2.7027e-4 7.2294-3.2498 7.2294-7.2299 0-1.6553e-4 -8.3e-9 -3.3106e-4 -2.48e-8 -4.9659e-4 -2.7027e-4 -3.9801-3.2498-7.2294-7.2299-7.2294-1.4987e-4 0-2.9944e-4 -2.22e-8 -4.487e-4 -6.65e-8 -0.056004-1.1292e-5 -0.082869-0.0021293-0.13344 6.65e-8 -9.1789e-5 -1.163e-4 -1.8358e-4 -2.3259e-4 -2.7538e-4 -3.4888e-4 -1.1035-1.398-2.683-2.3512-4.5519-2.577-1.0306e-4 -1.6129e-4 -2.0613e-4 -3.2258e-4 -3.0921e-4 -4.8386e-4 -1.2391-1.9389-3.2975-3.3132-5.7568-3.3132m0 1.4596m0 0.68255c0.5937 0 1.1088 0.33375 1.3656 0.82119 1.2691 1.7422e-4 2.3702 0.71385 2.9188 1.7561 0 0 0.085363 0.17073 0.085451 0.1709 0.005525 0.01105 0.18232 0.36465 0.18232 0.36465s0.20274 0.010669 0.20295 0.01068c0.013122 6.9062e-4 0.43302 0.02279 0.43302 0.02279 0.52068 0.02046 0.96229 0.30538 1.2269 0.72523 1.113 0.043878 2.057 0.65312 2.6224 1.5509 0 0 0.1067 0.17073 0.10681 0.1709 0.0069062 0.01105 0.2279 0.36465 0.2279 0.36465s0.21341-0.010669 0.21363-0.01068c0.013812-6.9062e-4 0.45581-0.02279 0.45581-0.02279 0.061836-0.0049594 0.10244-0.010705 0.12875-0.010726 0.13125-0.010546 0.21732-0.022745 0.27291-0.022745 0.89956 0 1.6215 0.72173 1.6218 1.6211 1.9229 3.7675e-4 3.466 1.5437 3.466 3.4667 0 0.89956-0.72173 1.6215-1.6211 1.6218-3.7675e-4 1.9229-1.5437 3.466-3.4667 3.466h-4.7783-10.217c-0.8053 0-1.4508-0.64533-1.451-1.4504-1.7214-3.3687e-4 -3.1011-1.3803-3.1011-3.1018 0-0.69797 0.49007-1.2766 1.1411-1.419 2.5582e-4 -1.492 1.0482-2.7287 2.4403-3.0328 0 0 0.33078-0.074693 0.33112-0.074769 0.021409-0.0048343 0.7065-0.15953 0.7065-0.15953s-0.074693-0.33078-0.074769-0.33112c-0.0048343-0.021409-0.15953-0.7065-0.15953-0.7065-0.022469-0.10981-0.032088-0.21116-0.032135-0.30997-0.047849-0.23407-0.068281-0.45011-0.068281-0.66072 0-0.85243 0.68353-1.5362 1.5357-1.5364 3.5681e-4 -1.8222 1.462-3.2835 3.2842-3.2835" style="color:#000000;fill-opacity:.023956;fill:#ff0066;opacity:1;paint-order:normal;text-decoration-line:none;text-indent:0;text-transform:none"/>
		<path d="m30.818 30.742c-3.8123 0-6.9256 3.1133-6.9256 6.9256 0 1.3476e-4 3.27e-8 2.6948e-4 9.82e-8 4.0418e-4 6.6946e-5 0.19553 0.048715 0.34981 0.066593 0.53233-2.1559e-4 8.2482e-5 -4.3117e-4 1.6498e-4 -6.4674e-4 2.4749e-4 -2.5046 0.95853-4.3278 3.2959-4.3278 6.1262 0 1.5772e-4 7.8e-9 3.1544e-4 2.36e-8 4.7315e-4 2.5766e-4 3.6649 2.9942 6.6587 6.6592 6.6587h4.8017e-4 14.916c1.7038e-4 0 3.4076e-4 -8.5e-9 5.1114e-4 -2.55e-8 3.9591-2.7818e-4 7.1914-3.2327 7.1914-7.1919 0-1.7038e-4 -8.5e-9 -3.4076e-4 -2.55e-8 -5.1114e-4 -2.7818e-4 -3.9591-3.2327-7.1914-7.1919-7.1914-1.5426e-4 0-3.0821e-4 -2.29e-8 -4.6184e-4 -6.85e-8 -0.055699-1.1623e-5 -0.082423-0.0021185-0.13272 6.85e-8 -9.4478e-5 -1.197e-4 -1.8896e-4 -2.3941e-4 -2.8345e-4 -3.591e-4 -1.0977-1.3907-2.6689-2.3388-4.528-2.5634-1.0608e-4 -1.6602e-4 -2.1217e-4 -3.3203e-4 -3.1827e-4 -4.9803e-4 -1.2326-1.9287-3.2802-3.2958-5.7266-3.2958m0 1.5024m0 0.62855c0.54674 0 1.0211 0.30734 1.2576 0.75622 1.3063 1.7933e-4 2.4396 0.73476 3.0043 1.8076 0 0 0.078614 0.15723 0.078704 0.15741 0.0056868 0.011374 0.18766 0.37533 0.18766 0.37533s0.18671 0.0098259 0.18692 0.0098371c0.013506 7.1085e-4 0.4457 0.023458 0.4457 0.023458 0.4795 0.018842 0.88619 0.28122 1.1298 0.66785 1.1456 0.045164 2.1172 0.67225 2.6992 1.5963 0 0 0.098268 0.15723 0.098381 0.15741 0.0071085 0.011374 0.23458 0.37533 0.23458 0.37533s0.19654-0.0098259 0.19676-0.0098371c0.014217-7.1085e-4 0.46916-0.023458 0.46916-0.023458 0.056972-0.0045693 0.094394-0.0098626 0.11865-0.0098838 0.1351-0.010855 0.22368-0.023411 0.28091-0.023411 0.82841 0 1.4933 0.66463 1.4935 1.4928 1.9792 3.8779e-4 3.5675 1.5889 3.5675 3.5682 0 0.82841-0.66463 1.4933-1.4928 1.4935-3.8779e-4 1.9792-1.5889 3.5675-3.5682 3.5675h-4.4003-10.516c-0.7416 0-1.3361-0.59427-1.3363-1.3357-1.7718-3.4674e-4 -3.192-1.4207-3.192-3.1926 0-0.64277 0.45129-1.1756 1.0509-1.3068 2.6331e-4 -1.5357 1.0789-2.8087 2.5118-3.1216 0 0 0.30463-0.068787 0.30498-0.068866 0.022036-0.0049759 0.7272-0.16421 0.7272-0.16421s-0.068787-0.30463-0.068866-0.30498c-0.0049759-0.022036-0.16421-0.7272-0.16421-0.7272-0.020696-0.10114-0.029559-0.1945-0.029608-0.28552-0.04925-0.24092-0.070281-0.4633-0.070281-0.68007 0-0.78501 0.62945-1.4147 1.4142-1.4149 3.6726e-4 -1.8755 1.5048-3.3797 3.3804-3.3797" style="color:#000000;fill-opacity:.024543;fill:#ff0066;opacity:1;paint-order:normal;text-decoration-line:none;text-indent:0;text-transform:none"/>
		<path d="m30.616 30.597c-3.7928 0-6.8901 3.0974-6.8901 6.8901 0 1.3847e-4 3.36e-8 2.7692e-4 1.009e-7 4.1534e-4 6.8793e-5 0.19452 0.048466 0.34801 0.066252 0.52959-2.2154e-4 8.4758e-5 -4.4307e-4 1.6953e-4 -6.6459e-4 2.5432e-4 -2.4918 0.95363-4.3057 3.279-4.3057 6.0949 0 1.6207e-4 8.1e-9 3.2414e-4 2.43e-8 4.8621e-4 2.6477e-4 3.6462 2.9789 6.6246 6.6251 6.6246h4.9342e-4 14.84c1.7508e-4 0 3.5016e-4 -8.7e-9 5.2524e-4 -2.61e-8 3.9389-2.8586e-4 7.1546-3.2162 7.1546-7.1551 0-1.7508e-4 -8.7e-9 -3.5016e-4 -2.62e-8 -5.2524e-4 -2.8586e-4 -3.9389-3.2162-7.1546-7.1551-7.1546-1.5852e-4 0-3.1671e-4 -2.35e-8 -4.7458e-4 -7.04e-8 -0.055404-1.1944e-5 -0.08199-0.0021079-0.13203 7.04e-8 -9.7084e-5 -1.2301e-4 -1.9417e-4 -2.4601e-4 -2.9127e-4 -3.6901e-4 -1.0921-1.3836-2.6552-2.3268-4.5048-2.5503-1.0901e-4 -1.706e-4 -2.1802e-4 -3.4119e-4 -3.2705e-4 -5.1178e-4 -1.2263-1.9188-3.2634-3.2789-5.6973-3.2789m0 1.5439m0 0.57618c0.50121 0 0.9361 0.28174 1.1529 0.69322 1.3423 1.8427e-4 2.5069 0.75504 3.0872 1.8575 0 0 0.07207 0.14414 0.072163 0.14433 0.0058437 0.011687 0.19284 0.38568 0.19284 0.38568s0.17117 0.0090079 0.17139 0.0090195c0.013879 7.3046e-4 0.458 0.024105 0.458 0.024105 0.43957 0.017273 0.81239 0.25779 1.0358 0.61221 1.1772 0.04641 2.1756 0.6908 2.7737 1.6403 0 0 0.090088 0.14414 0.090203 0.14433 0.0073046 0.011687 0.24105 0.38568 0.24105 0.38568s0.18017-0.0090079 0.18041-0.0090195c0.014609-7.3046e-4 0.48211-0.024105 0.48211-0.024105 0.052255-0.004191 0.086589-0.0090457 0.10885-0.0090675 0.13883-0.011155 0.22985-0.024057 0.28866-0.024057 0.75943 0 1.3689 0.60926 1.3692 1.3684 2.0338 3.9849e-4 3.6659 1.6327 3.6659 3.6667 0 0.75943-0.60926 1.3689-1.3684 1.3692-3.9849e-4 2.0338-1.6327 3.6659-3.6667 3.6659h-4.0338-10.806c-0.67985 0-1.2248-0.54477-1.2251-1.2244-1.8207-3.5631e-4 -3.28-1.4599-3.28-3.2807 0-0.58924 0.4137-1.0777 0.96331-1.198 2.7058e-4 -1.5781 1.1087-2.8861 2.5811-3.2077 0 0 0.27927-0.063061 0.27963-0.063142 0.022644-0.0051132 0.74726-0.16874 0.74726-0.16874s-0.063061-0.27927-0.063142-0.27963c-0.0051132-0.022644-0.16874-0.74726-0.16874-0.74726-0.018977-0.092743-0.027108-0.17835-0.027157-0.26181-0.050609-0.24757-0.07222-0.47608-0.07222-0.69883 0-0.71964 0.57701-1.2969 1.2964-1.2971 3.774e-4 -1.9273 1.5463-3.473 3.4737-3.473" style="color:#000000;fill-opacity:.025112;fill:#ff0066;opacity:1;paint-order:normal;text-decoration-line:none;text-indent:0;text-transform:none"/>
		<path d="m30.419 30.456c-3.7738 0-6.8557 3.0819-6.8557 6.8557 0 1.4209e-4 3.46e-8 2.8414e-4 1.036e-7 4.2617e-4 7.0588e-5 0.19354 0.048224 0.34627 0.065921 0.52693-2.2731e-4 8.6969e-5 -4.5462e-4 1.7395e-4 -6.8192e-4 2.6095e-4 -2.4793 0.94887-4.2841 3.2626-4.2841 6.0644 0 1.663e-4 8.2e-9 3.326e-4 2.48e-8 4.9889e-4 2.7167e-4 3.6279 2.964 6.5915 6.592 6.5915h5.0628e-4 14.766c1.7965e-4 0 3.5929e-4 -9e-9 5.3894e-4 -2.69e-8 3.9192-2.9332e-4 7.1188-3.2001 7.1188-7.1194 0-1.7965e-4 -8.9e-9 -3.5929e-4 -2.68e-8 -5.3894e-4 -2.9332e-4 -3.9192-3.2001-7.1188-7.1194-7.1188-1.6265e-4 0-3.2497e-4 -2.42e-8 -4.8696e-4 -7.22e-8 -0.055116-1.2255e-5 -0.08157-0.0020977-0.13135 7.22e-8 -9.9616e-5 -1.2622e-4 -1.9924e-4 -2.5243e-4 -2.9886e-4 -3.7863e-4 -1.0867-1.3766-2.642-2.3152-4.4823-2.5375-1.1185e-4 -1.7505e-4 -2.2371e-4 -3.5009e-4 -3.3558e-4 -5.2512e-4 -1.2202-1.9092-3.2471-3.2625-5.6688-3.2625m0 1.5841m0 0.52532c0.45699 0 0.8535 0.25687 1.0511 0.63203 1.3773 1.8908e-4 2.5723 0.77473 3.1677 1.9059 0 0 0.065714 0.13143 0.065809 0.13162 0.0059961 0.011992 0.19787 0.39574 0.19787 0.39574s0.15607 0.0082134 0.1563 0.0082253c0.014241 7.4951e-4 0.46994 0.024734 0.46994 0.024734 0.40078 0.015749 0.74071 0.23504 0.94438 0.55817 1.2079 0.04762 2.2324 0.70882 2.846 1.6831 0 0 0.082142 0.13143 0.082261 0.13162 0.0074951 0.011992 0.24734 0.39574 0.24734 0.39574s0.16428-0.0082134 0.16452-0.0082253c0.01499-7.4951e-4 0.49468-0.024734 0.49468-0.024734 0.047673-0.0038235 0.079008-0.0082522 0.099335-0.0082746 0.14245-0.011446 0.23585-0.024685 0.29619-0.024685 0.69242 0 1.2481 0.55548 1.2484 1.2476 2.0869 4.0888e-4 3.7615 1.6753 3.7615 3.7623 0 0.69242-0.55548 1.2481-1.2476 1.2484-4.0888e-4 2.0869-1.6753 3.7615-3.7623 3.7615h-3.6778-11.088c-0.61986 0-1.1168-0.49668-1.117-1.1163-1.8682-3.656e-4 -3.3656-1.498-3.3656-3.3663 0-0.53725 0.37718-0.98264 0.87827-1.0923 2.7764e-4 -1.6192 1.1376-2.9614 2.6485-3.2914 0 0 0.25464-0.057499 0.25501-0.057583 0.023235-0.0052466 0.76675-0.17314 0.76675-0.17314s-0.057499-0.25464-0.057583-0.25501c-0.0052466-0.023235-0.17314-0.76675-0.17314-0.76675-0.017308-0.084584-0.024726-0.16266-0.024777-0.23878-0.051929-0.25403-0.074103-0.4885-0.074103-0.71706 0-0.65614 0.52608-1.1825 1.182-1.1827 3.8724e-4 -1.9775 1.5866-3.5635 3.5643-3.5635" style="color:#000000;fill-opacity:.025664;fill:#ff0066;opacity:1;paint-order:normal;text-decoration-line:none;text-indent:0;text-transform:none"/>
		<path d="m30.228 30.318c-3.7554 0-6.8222 3.0668-6.8222 6.8222 0 1.456e-4 3.54e-8 2.9117e-4 1.061e-7 4.3671e-4 7.2333e-5 0.19259 0.047989 0.34457 0.065598 0.52435-2.3294e-4 8.9119e-5 -4.6586e-4 1.7825e-4 -6.9878e-4 2.674e-4 -2.4672 0.94424-4.2632 3.2467-4.2632 6.0347 0 1.7041e-4 8.5e-9 3.4082e-4 2.55e-8 5.1123e-4 2.7839e-4 3.6102 2.9495 6.5593 6.5598 6.5593h5.188e-4 14.693c1.8409e-4 0 3.6818e-4 -9.1e-9 5.5226e-4 -2.75e-8 3.9-3.0057e-4 7.084-3.1845 7.084-7.0846 0-1.8409e-4 -9.2e-9 -3.6818e-4 -2.76e-8 -5.5226e-4 -3.0057e-4 -3.9-3.1845-7.084-7.0846-7.084-1.6667e-4 0-3.33e-4 -2.48e-8 -4.99e-4 -7.41e-8 -0.054837-1.2558e-5 -0.081161-0.0020878-0.1307 7.41e-8 -1.0208e-4 -1.2934e-4 -2.0416e-4 -2.5867e-4 -3.0625e-4 -3.88e-4 -1.0814-1.3699-2.6291-2.3039-4.4604-2.5251-1.1462e-4 -1.7938e-4 -2.2924e-4 -3.5874e-4 -3.4388e-4 -5.3811e-4 -1.2142-1.8999-3.2312-3.2466-5.6411-3.2466m0 1.6233m0 0.47585c0.41397 0 0.77316 0.23268 0.95221 0.5725 1.4114 1.9375e-4 2.6359 0.79388 3.2461 1.953 0 0 0.05953 0.11906 0.059628 0.11926 0.0061444 0.012289 0.20276 0.40553 0.20276 0.40553s0.14138 0.0074406 0.14162 0.0074528c0.014593 7.6805e-4 0.48156 0.025346 0.48156 0.025346 0.36305 0.014266 0.67098 0.2129 0.85549 0.5056 1.2378 0.048798 2.2876 0.72635 2.9164 1.7247 0 0 0.074413 0.11906 0.074535 0.11926 0.0076805 0.012289 0.25346 0.40553 0.25346 0.40553s0.14883-0.0074406 0.14907-0.0074528c0.015361-7.6805e-4 0.50691-0.025346 0.50691-0.025346 0.043216-0.0034661 0.071633-0.0074803 0.090079-0.0075032 0.14597-0.011729 0.24168-0.025295 0.30351-0.025295 0.62723 0 1.1307 0.50316 1.1309 1.1301 2.1385 4.1899e-4 3.8545 1.7167 3.8545 3.8553 0 0.62723-0.50316 1.1307-1.1301 1.1309-4.1899e-4 2.1385-1.7167 3.8545-3.8553 3.8545h-3.3314-11.363c-0.56151 0-1.0116-0.4499-1.0119-1.0112-1.9144-3.7464e-4 -3.4488-1.535-3.4488-3.4495 0-0.48667 0.34165-0.89014 0.79555-0.98947 2.845e-4 -1.6593 1.1657-3.0346 2.7139-3.3728 0 0 0.23068-0.052089 0.23106-0.052174 0.023809-0.0053763 0.78571-0.17742 0.78571-0.17742s-0.052089-0.23068-0.052174-0.23106c-0.0053763-0.023809-0.17742-0.78571-0.17742-0.78571-0.015684-0.076647-0.022409-0.1474-0.022461-0.21638-0.053213-0.26031-0.075936-0.50057-0.075936-0.73479 0-0.59437 0.47653-1.0711 1.0707-1.0714 3.9681e-4 -2.0264 1.6259-3.6517 3.6524-3.6517" style="color:#000000;fill-opacity:.026202;fill:#ff0066;opacity:1;paint-order:normal;text-decoration-line:none;text-indent:0;text-transform:none"/>
		<path d="m30.042 30.185c-3.7374 0-6.7896 3.0522-6.7896 6.7896 0 1.4902e-4 3.62e-8 2.9801e-4 1.086e-7 4.4697e-4 7.4033e-5 0.19166 0.04776 0.34291 0.065285 0.52183-2.3841e-4 9.1214e-5 -4.7681e-4 1.8244e-4 -7.1521e-4 2.7369e-4 -2.4554 0.93973-4.2428 3.2311-4.2428 6.0059 0 1.7442e-4 8.7e-9 3.4883e-4 2.61e-8 5.2324e-4 2.8493e-4 3.5929 2.9354 6.5279 6.5284 6.5279h5.31e-4 14.623c1.8842e-4 0 3.7683e-4 -9.4e-9 5.6525e-4 -2.82e-8 3.8814-3.0763e-4 7.0501-3.1693 7.0501-7.0507 0-1.8842e-4 -9.4e-9 -3.7683e-4 -2.82e-8 -5.6525e-4 -3.0763e-4 -3.8814-3.1693-7.0501-7.0507-7.0501-1.7059e-4 0-3.4083e-4 -2.54e-8 -5.1073e-4 -7.58e-8 -0.054565-1.2854e-5 -0.080763-0.0020781-0.13006 7.58e-8 -1.0448e-4 -1.3238e-4 -2.0896e-4 -2.6475e-4 -3.1345e-4 -3.9712e-4 -1.0762-1.3633-2.6165-2.2928-4.439-2.513-1.1731e-4 -1.8359e-4 -2.3463e-4 -3.6718e-4 -3.5196e-4 -5.5076e-4 -1.2084-1.8908-3.2158-3.231-5.6141-3.231m0 1.6614m0 0.42765c0.37206 0 0.69489 0.20911 0.85583 0.51451 1.4446 1.9831e-4 2.6979 0.81254 3.3224 1.9989 0 0 0.053507 0.10701 0.053606 0.10721 0.0062888 0.012578 0.20753 0.41506 0.20753 0.41506s0.12708 0.0066877 0.12732 0.0067002c0.014936 7.861e-4 0.49288 0.025941 0.49288 0.025941 0.3263 0.012822 0.60306 0.19134 0.76889 0.45439 1.2669 0.049945 2.3413 0.74342 2.9849 1.7653 0 0 0.066883 0.10701 0.067008 0.10721 0.007861 0.012578 0.25941 0.41506 0.25941 0.41506s0.13377-0.0066877 0.13402-0.0067002c0.015722-7.861e-4 0.51883-0.025941 0.51883-0.025941 0.038875-0.0031179 0.064449-0.0067283 0.081062-0.0067518 0.1494-0.012004 0.24736-0.02589 0.31064-0.02589 0.56374 0 1.0162 0.4522 1.0165 1.0157 2.1887 4.2884e-4 3.9451 1.7571 3.9451 3.9459 0 0.56374-0.4522 1.0162-1.0157 1.0165-4.2884e-4 2.1887-1.7571 3.9451-3.9459 3.9451h-2.9941-11.63c-0.50466 0-0.90923-0.40433-0.90947-0.90875-1.9594-3.8344e-4 -3.5299-1.5711-3.5299-3.5306 0-0.4374 0.30705-0.80003 0.71497-0.88933 2.9119e-4 -1.6983 1.1931-3.106 2.7777-3.4521 0 0 0.20734-0.046818 0.20773-0.046906 0.024369-0.0055027 0.80418-0.18159 0.80418-0.18159s-0.046818-0.20734-0.046906-0.20773c-0.0055027-0.024369-0.18159-0.80418-0.18159-0.80418-0.014102-0.068915-0.020153-0.13254-0.020206-0.19456-0.054464-0.26643-0.07772-0.51234-0.07772-0.75206 0-0.5342 0.42826-0.96272 0.96221-0.96297 4.0614e-4 -2.0741 1.6641-3.7375 3.7383-3.7375" style="color:#000000;fill-opacity:.026726;fill:#ff0066;opacity:1;paint-order:normal;text-decoration-line:none;text-indent:0;text-transform:none"/>
		<path d="m29.86 30.055c-3.7199 0-6.7577 3.0379-6.7577 6.7577 0 1.5236e-4 3.7e-8 3.0469e-4 1.11e-7 4.5698e-4 7.5692e-5 0.19076 0.047536 0.34129 0.064978 0.51937-2.4375e-4 9.3257e-5 -4.8749e-4 1.8653e-4 -7.3123e-4 2.7982e-4 -2.4439 0.93533-4.2228 3.216-4.2228 5.9777 0 1.7832e-4 8.9e-9 3.5664e-4 2.66e-8 5.3496e-4 2.9132e-4 3.5761 2.9217 6.4973 6.4978 6.4973h5.4289e-4 14.555c1.9264e-4 0 3.8527e-4 -9.6e-9 5.7791e-4 -2.88e-8 3.8632-3.1452e-4 7.0171-3.1544 7.0171-7.0176 0-1.9264e-4 -9.6e-9 -3.8527e-4 -2.88e-8 -5.7791e-4 -3.1452e-4 -3.8632-3.1544-7.0171-7.0176-7.0171-1.7441e-4 0-3.4847e-4 -2.6e-8 -5.2217e-4 -7.75e-8 -0.0543-1.3142e-5 -0.080375-0.0020686-0.12943 7.75e-8 -1.0682e-4 -1.3534e-4 -2.1364e-4 -2.7068e-4 -3.2047e-4 -4.0601e-4 -1.0711-1.3569-2.6042-2.2821-4.4182-2.5013-1.1994e-4 -1.877e-4 -2.3989e-4 -3.754e-4 -3.5984e-4 -5.6309e-4 -1.2027-1.8819-3.2007-3.2159-5.5878-3.2159m0 1.6987m0 0.38064c0.33118 0 0.61855 0.18612 0.76182 0.45796 1.4769 2.0275e-4 2.7583 0.83075 3.3968 2.0437 0 0 0.047632 0.095263 0.047734 0.095468 0.0064297 0.012859 0.21218 0.42436 0.21218 0.42436s0.11313 0.0059534 0.11337 0.0059662c0.01527 8.0371e-4 0.50392 0.026522 0.50392 0.026522 0.29045 0.011413 0.53681 0.17031 0.68444 0.40445 1.2953 0.051063 2.3938 0.76007 3.0518 1.8048 0 0 0.05954 0.095263 0.059667 0.095468 0.0080371 0.012859 0.26522 0.42436 0.26522 0.42436s0.11908-0.0059534 0.11933-0.0059662c0.016074-8.0371e-4 0.53045-0.026522 0.53045-0.026522 0.03464-0.0027782 0.057442-0.0059949 0.072267-0.006019 0.15275-0.012273 0.2529-0.02647 0.3176-0.02647 0.5018 0 0.90456 0.40249 0.90484 0.90402 2.2378 4.3844e-4 4.0335 1.7964 4.0335 4.0343 0 0.5018-0.40249 0.90456-0.90402 0.90484-4.3844e-4 2.2378-1.7964 4.0335-4.0343 4.0335h-2.665-11.89c-0.44922 0-0.80935-0.35988-0.80959-0.80886-2.0033-3.9203e-4 -3.6089-1.6063-3.6089-3.6097 0-0.38935 0.2733-0.71214 0.63638-0.79165 2.9771e-4 -1.7363 1.2198-3.1755 2.8399-3.5294 0 0 0.18457-0.041678 0.18497-0.041767 0.024915-0.005626 0.82219-0.18566 0.82219-0.18566s-0.041678-0.18457-0.041767-0.18497c-0.005626-0.024915-0.18566-0.82219-0.18566-0.82219-0.012559-0.061374-0.017951-0.11804-0.018006-0.17328-0.055684-0.2724-0.079461-0.52382-0.079461-0.76891 0-0.47551 0.38119-0.85696 0.85644-0.85721 4.1524e-4 -2.1205 1.7014-3.8212 3.822-3.8212" style="color:#000000;fill-opacity:.027237;fill:#ff0066;opacity:1;paint-order:normal;text-decoration-line:none;text-indent:0;text-transform:none"/>
		<path d="m29.683 29.927c-3.7028 0-6.7266 3.0239-6.7266 6.7266 0 1.5562e-4 3.78e-8 3.1121e-4 1.134e-7 4.6676e-4 7.7311e-5 0.18988 0.047318 0.33972 0.06468 0.51697-2.4897e-4 9.5252e-5 -4.9792e-4 1.9052e-4 -7.4687e-4 2.8581e-4 -2.4326 0.93103-4.2034 3.2012-4.2034 5.9502 0 1.8214e-4 9e-9 3.6427e-4 2.72e-8 5.4641e-4 2.9755e-4 3.5596 2.9082 6.4674 6.4679 6.4674h5.5451e-4 14.488c1.9676e-4 0 3.9352e-4 -9.8e-9 5.9027e-4 -2.94e-8 3.8454-3.2125e-4 6.9848-3.1399 6.9848-6.9854 0-1.9676e-4 -9.8e-9 -3.9352e-4 -2.94e-8 -5.9027e-4 -3.2125e-4 -3.8454-3.1399-6.9848-6.9854-6.9848-1.7814e-4 0-3.5592e-4 -2.64e-8 -5.3334e-4 -7.91e-8 -0.054041-1.3423e-5 -0.079995-0.0020594-0.12883 7.91e-8 -1.091e-4 -1.3824e-4 -2.1821e-4 -2.7647e-4 -3.2733e-4 -4.147e-4 -1.0662-1.3507-2.5922-2.2716-4.3979-2.4897-1.225e-4 -1.9172e-4 -2.4502e-4 -3.8343e-4 -3.6754e-4 -5.7514e-4 -1.1972-1.8733-3.186-3.201-5.562-3.201m0 1.735m0 0.33474c0.29127 0 0.54401 0.16368 0.67003 0.40273 1.5085 2.0709e-4 2.8173 0.84852 3.4694 2.0874 0 0 0.041895 0.08379 0.041999 0.083998 0.0065672 0.013134 0.21672 0.43344 0.21672 0.43344s0.099501 0.0052364 0.099748 0.0052494c0.015597 8.209e-4 0.5147 0.02709 0.5147 0.02709 0.25545 0.010038 0.47212 0.14977 0.60196 0.35568 1.323 0.052156 2.445 0.77633 3.1171 1.8434 0 0 0.052369 0.08379 0.052499 0.083998 0.008209 0.013134 0.2709 0.43344 0.2709 0.43344s0.10474-0.0052364 0.105-0.0052494c0.016418-8.209e-4 0.54179-0.02709 0.54179-0.02709 0.030505-0.0024466 0.0506-0.0052788 0.06368-0.0053033 0.15601-0.012536 0.25831-0.027036 0.3244-0.027036 0.44133 0 0.79556 0.35395 0.79584 0.795 2.2856 4.4782e-4 4.1198 1.8349 4.1198 4.1206 0 0.44133-0.35395 0.79556-0.795 0.79584-4.4782e-4 2.2856-1.8349 4.1198-4.1206 4.1198h-2.3437-12.144c-0.39508 0-0.71181-0.31648-0.71206-0.71131-2.0461-4.0042e-4 -3.6861-1.6406-3.6861-3.6869 0-0.34243 0.24034-0.62632 0.55964-0.69627 3.0408e-4 -1.7734 1.2459-3.2435 2.9007-3.6049 0 0 0.16234-0.036658 0.16275-0.036749 0.025448-0.0057463 0.83978-0.18963 0.83978-0.18963s-0.036658-0.16234-0.036749-0.16275c-0.0057463-0.025448-0.18963-0.83978-0.18963-0.83978-0.011052-0.054011-0.015802-0.10388-0.015858-0.15249-0.056875-0.27822-0.081161-0.53502-0.081161-0.78536 0-0.4182 0.33522-0.75369 0.75316-0.75395 4.2412e-4 -2.1659 1.7378-3.903 3.9038-3.903" style="color:#000000;fill-opacity:.027735;fill:#ff0066;opacity:1;paint-order:normal;text-decoration-line:none;text-indent:0;text-transform:none"/>
		<path d="m29.509 29.803c-3.686 0-6.6963 3.0102-6.6963 6.6963 0 1.588e-4 3.85e-8 3.1758e-4 1.157e-7 4.7632e-4 7.8894e-5 0.18901 0.047105 0.33817 0.064387 0.51462-2.5406e-4 9.7202e-5 -5.0812e-4 1.9442e-4 -7.6216e-4 2.9166e-4 -2.4216 0.92683-4.1844 3.1868-4.1844 5.9233 0 1.8587e-4 9.3e-9 3.7173e-4 2.78e-8 5.5759e-4 3.0364e-4 3.5435 2.8951 6.4382 6.4387 6.4382h5.6586e-4 14.422c2.0079e-4 0 4.0157e-4 -1e-8 6.0235e-4 -3e-8 3.828-3.2783e-4 6.9532-3.1257 6.9532-6.9538 0-2.0079e-4 -1e-8 -4.0157e-4 -3e-8 -6.0235e-4 -3.2783e-4 -3.828-3.1257-6.9532-6.9538-6.9532-1.8179e-4 0-3.6321e-4 -2.71e-8 -5.4426e-4 -8.08e-8 -0.053788-1.3697e-5 -0.079625-0.0020504-0.12823 8.08e-8 -1.1134e-4 -1.4107e-4 -2.2268e-4 -2.8213e-4 -3.3403e-4 -4.2319e-4 -1.0614-1.3446-2.5805-2.2613-4.378-2.4785-1.2501e-4 -1.9564e-4 -2.5003e-4 -3.9128e-4 -3.7507e-4 -5.8691e-4 -1.1918-1.8648-3.1716-3.1866-5.5369-3.1866m0 1.7705m0 0.28987c0.25226 0 0.47114 0.14174 0.5803 0.34875 1.5394 2.1133e-4 2.875 0.86589 3.5405 2.1302 0 0 0.036287 0.072575 0.036394 0.072788 0.0067017 0.013403 0.22115 0.44231 0.22115 0.44231s0.086183 0.0045355 0.086435 0.0045488c0.015916 8.3771e-4 0.52524 0.027644 0.52524 0.027644 0.22123 0.0086934 0.40888 0.1297 0.52135 0.308 1.3501 0.053224 2.4951 0.79223 3.1809 1.8812 0 0 0.045359 0.072575 0.045492 0.072788 0.0083771 0.013403 0.27644 0.44231 0.27644 0.44231s0.090719-0.0045355 0.090985-0.0045488c0.016754-8.3771e-4 0.55289-0.027644 0.55289-0.027644 0.026464-0.0021225 0.043912-0.0045788 0.055286-0.0046038 0.15921-0.012793 0.2636-0.027589 0.33104-0.027589 0.38221 0 0.689 0.30651 0.68929 0.68844 2.3324 4.5699e-4 4.2041 1.8724 4.2041 4.205 0 0.38221-0.30651 0.689-0.68844 0.68929-4.5699e-4 2.3324-1.8724 4.2041-4.205 4.2041h-2.0296-12.393c-0.34216 0-0.61648-0.27406-0.61673-0.61597-2.088-4.0862e-4 -3.7616-1.6742-3.7616-3.7624 0-0.29656 0.20812-0.54243 0.48462-0.60304 3.1031e-4 -1.8098 1.2714-3.3099 2.9601-3.6787 0 0 0.14061-0.031751 0.14103-0.031845 0.025969-0.005864 0.85697-0.19351 0.85697-0.19351s-0.031751-0.14061-0.031845-0.14103c-0.005864-0.025969-0.19351-0.85697-0.19351-0.85697-0.009579-0.046813-0.013701-0.090037-0.013758-0.13218-0.05804-0.28392-0.082823-0.54598-0.082823-0.80143 0-0.36219 0.29028-0.65274 0.6522-0.65301 4.328e-4 -2.2102 1.7733-3.9829 3.9837-3.9829" style="color:#000000;fill-opacity:.028223;fill:#ff0066;opacity:1;paint-order:normal;text-decoration-line:none;text-indent:0;text-transform:none"/>
		<path d="m29.339 29.682c-3.6697 0-6.6665 2.9969-6.6665 6.6665 0 1.6192e-4 3.94e-8 3.2381e-4 1.18e-7 4.8567e-4 8.0442e-5 0.18817 0.046896 0.33666 0.064101 0.51233-2.5905e-4 9.911e-5 -5.1809e-4 1.9824e-4 -7.7712e-4 2.9738e-4 -2.4109 0.92272-4.1658 3.1726-4.1658 5.897 0 1.8952e-4 9.4e-9 3.7903e-4 2.83e-8 5.6854e-4 3.096e-4 3.5278 2.8823 6.4096 6.4101 6.4096h5.7697e-4 14.358c2.0473e-4 0 4.0945e-4 -1.02e-8 6.1418e-4 -3.06e-8 3.811-3.3427e-4 6.9223-3.1119 6.9223-6.9229 0-2.0473e-4 -1.02e-8 -4.0945e-4 -3.06e-8 -6.1418e-4 -3.3427e-4 -3.811-3.1119-6.9223-6.9229-6.9223-1.8536e-4 0-3.7034e-4 -2.75e-8 -5.5494e-4 -8.23e-8 -0.05354-1.3966e-5 -0.079262-0.0020415-0.12765 8.23e-8 -1.1352e-4 -1.4384e-4 -2.2705e-4 -2.8767e-4 -3.4059e-4 -4.3149e-4 -1.0567-1.3386-2.5691-2.2513-4.3586-2.4675-1.2747e-4 -1.9949e-4 -2.5494e-4 -3.9896e-4 -3.8243e-4 -5.9843e-4 -1.1865-1.8565-3.1575-3.1724-5.5123-3.1724m0 1.8053m0 0.24597c0.21408 0 0.39986 0.12027 0.49251 0.29593 1.5696 2.1548e-4 2.9314 0.88289 3.61 2.172 0 0 0.030801 0.061602 0.030909 0.061819 0.0068332 0.013666 0.2255 0.45099 0.2255 0.45099s0.073153 0.0038498 0.07341 0.0038633c0.016229 8.5415e-4 0.53555 0.028187 0.53555 0.028187 0.18775 0.0073779 0.34702 0.11006 0.44248 0.26136 1.3766 0.054268 2.544 0.80778 3.2434 1.9181 0 0 0.038501 0.061602 0.038637 0.061819 0.0085415 0.013666 0.28187 0.45099 0.28187 0.45099s0.077003-0.0038498 0.077274-0.0038633c0.017083-8.5415e-4 0.56374-0.028187 0.56374-0.028187 0.022509-0.0018053 0.037368-0.0038939 0.047073-0.0039194 0.16233-0.013044 0.26877-0.028131 0.33754-0.028131 0.32438 0 0.58475 0.26009 0.58504 0.58417 2.3782 4.6596e-4 4.2867 1.9092 4.2867 4.2875 0 0.32438-0.26009 0.58475-0.58417 0.58504-4.6596e-4 2.3782-1.9092 4.2867-4.2875 4.2867h-1.7224-12.636c-0.29039 0-0.5232-0.23256-0.52346-0.52268-2.129-4.1664e-4 -3.8354-1.7071-3.8354-3.8362 0-0.25168 0.1766-0.46036 0.41123-0.51183 3.164e-4 -1.8453 1.2964-3.3749 3.0182-3.7509 0 0 0.11935-0.026951 0.11977-0.027046 0.026479-0.0059791 0.8738-0.19731 0.8738-0.19731s-0.026951-0.11935-0.027046-0.11977c-0.0059791-0.026479-0.19731-0.8738-0.19731-0.8738-0.008138-0.039771-0.011646-0.076496-0.011703-0.1123-0.059179-0.28949-0.084449-0.55669-0.084449-0.81717 0-0.30738 0.24632-0.55398 0.55343-0.55425 4.413e-4 -2.2536 1.8081-4.061 4.0619-4.061" style="color:#000000;fill-opacity:.0287;fill:#ff0066;opacity:1;paint-order:normal;text-decoration-line:none;text-indent:0;text-transform:none"/>
		<path d="m29.173 29.562c-3.6537 0-6.6374 2.9838-6.6374 6.6374 0 1.6497e-4 4.01e-8 3.2992e-4 1.203e-7 4.9482e-4 8.1959e-5 0.18734 0.046692 0.33519 0.063822 0.51008-2.6393e-4 1.0098e-4 -5.2786e-4 2.0197e-4 -7.9177e-4 3.0299e-4 -2.4003 0.91869-4.1476 3.1588-4.1476 5.8713 0 1.9309e-4 9.6e-9 3.8617e-4 2.88e-8 5.7926e-4 3.1544e-4 3.5124 2.8697 6.3816 6.3821 6.3816h5.8784e-4 14.295c2.0859e-4 0 4.1717e-4 -1.04e-8 6.2576e-4 -3.12e-8 3.7944-3.4057e-4 6.8921-3.0983 6.8921-6.8927 0-2.0859e-4 -1.04e-8 -4.1717e-4 -3.12e-8 -6.2576e-4 -3.4057e-4 -3.7944-3.0983-6.8921-6.8927-6.8921-1.8885e-4 0-3.7732e-4 -2.81e-8 -5.654e-4 -8.39e-8 -0.053297-1.423e-5 -0.078907-0.0020329-0.12708 8.39e-8 -1.1566e-4 -1.4655e-4 -2.3133e-4 -2.9309e-4 -3.4701e-4 -4.3963e-4 -1.0521-1.3328-2.5578-2.2414-4.3395-2.4567-1.2987e-4 -2.0325e-4 -2.5975e-4 -4.0648e-4 -3.8964e-4 -6.0972e-4 -1.1813-1.8484-3.1437-3.1586-5.4883-3.1586m0 1.8393m0 0.20298c0.1767 0 0.33004 0.099251 0.40654 0.24421 1.5992 2.1954e-4 2.9867 0.89953 3.678 2.2129 0 0 0.025428 0.050857 0.025539 0.051078 0.006962 0.013924 0.22975 0.45949 0.22975 0.45949s0.060393 0.0031783 0.060655 0.0031921c0.016535 8.7025e-4 0.54565 0.028718 0.54565 0.028718 0.15497 0.0060897 0.28643 0.090824 0.36524 0.21569 1.4025 0.055291 2.592 0.823 3.3045 1.9542 0 0 0.031786 0.050857 0.031924 0.051078 0.0087025 0.013924 0.28718 0.45949 0.28718 0.45949s0.063571-0.0031783 0.063847-0.0031921c0.017405-8.7025e-4 0.57437-0.028718 0.57437-0.028718 0.018637-0.0014947 0.03096-0.0032232 0.03903-0.0032492 0.16539-0.01329 0.27384-0.028661 0.3439-0.028661 0.26774 0 0.48267 0.21463 0.48296 0.48207 2.4231 4.7475e-4 4.3675 1.9452 4.3675 4.3684 0 0.26774-0.21463 0.48267-0.48207 0.48296-4.7475e-4 2.4231-1.9452 4.3675-4.3684 4.3675h-1.4214-12.875c-0.23968 0-0.43186-0.19191-0.43212-0.43133-2.1691-4.2449e-4 -3.9077-1.7393-3.9077-3.9085 0-0.20774 0.14574-0.37999 0.33935-0.4225 3.2236e-4 -1.8801 1.3208-3.4385 3.0751-3.8216 0 0 0.098535-0.02225 0.098963-0.022347 0.026978-0.0060918 0.89027-0.20103 0.89027-0.20103s-0.02225-0.098535-0.022347-0.098964c-0.0060918-0.026978-0.20103-0.89027-0.20103-0.89027-0.0067269-0.032875-0.0096326-0.063236-0.0096915-0.09284-0.060295-0.29495-0.086041-0.56719-0.086041-0.83257 0-0.25371 0.20327-0.45726 0.4567-0.45754 4.4962e-4 -2.2961 1.8422-4.1376 4.1384-4.1376" style="color:#000000;fill-opacity:.029167;fill:#ff0066;opacity:1;paint-order:normal;text-decoration-line:none;text-indent:0;text-transform:none"/>
		<path d="m29.011 29.446c-3.638 0-6.6089 2.971-6.6089 6.6089 0 1.6797e-4 4.08e-8 3.359e-4 1.224e-7 5.038e-4 8.3445e-5 0.18653 0.046491 0.33374 0.063547 0.50787-2.6872e-4 1.0281e-4 -5.3743e-4 2.0564e-4 -8.0613e-4 3.0848e-4 -2.39 0.91475-4.1298 3.1452-4.1298 5.846 0 1.9659e-4 9.8e-9 3.9318e-4 2.95e-8 5.8976e-4 3.2116e-4 3.4973 2.8573 6.3541 6.3547 6.3541h5.985e-4 14.234c2.1237e-4 0 4.2474e-4 -1.06e-8 6.371e-4 -3.18e-8 3.778-3.4674e-4 6.8625-3.085 6.8625-6.8631 0-2.1237e-4 -1.06e-8 -4.2474e-4 -3.18e-8 -6.371e-4 -3.4674e-4 -3.778-3.085-6.8625-6.8631-6.8625-1.9228e-4 0-3.8416e-4 -2.86e-8 -5.7566e-4 -8.54e-8 -0.053059-1.4488e-5 -0.078559-0.0020244-0.12652 8.54e-8 -1.1776e-4 -1.4921e-4 -2.3553e-4 -2.9841e-4 -3.533e-4 -4.476e-4 -1.0475-1.327-2.5468-2.2318-4.3209-2.4461-1.3222e-4 -2.0693e-4 -2.6446e-4 -4.1386e-4 -3.967e-4 -6.2077e-4 -1.1763-1.8405-3.1302-3.145-5.4647-3.145m0 1.8727m0 0.16085c0.14007 0 0.26163 0.07865 0.32229 0.19352 1.6282 2.2352e-4 3.0408 0.91584 3.7447 2.253 0 0 0.020163 0.040326 0.020276 0.040551 0.0070883 0.014177 0.23391 0.46783 0.23391 0.46783s0.047887 0.0025201 0.048154 0.0025342c0.016835 8.8603e-4 0.55554 0.029239 0.55554 0.029239 0.12284 0.0048272 0.22706 0.071975 0.28955 0.17092 1.4279 0.056294 2.639 0.83793 3.3644 1.9897 0 0 0.025204 0.040326 0.025344 0.040551 0.0088603 0.014177 0.29239 0.46783 0.29239 0.46783s0.050408-0.0025201 0.050689-0.0025342c0.017721-8.8603e-4 0.58478-0.029239 0.58478-0.029239 0.014841-0.0011903 0.02468-0.0025659 0.031148-0.0025924 0.16839-0.013531 0.27881-0.029181 0.35013-0.029181 0.21223 0 0.38261 0.17008 0.38292 0.38201 2.467 4.8336e-4 4.4467 1.9805 4.4467 4.4476 0 0.21223-0.17008 0.38261-0.38201 0.38292-4.8336e-4 2.467-1.9805 4.4467-4.4476 4.4467h-1.1265-13.108c-0.18999 0-0.34234-0.15208-0.34261-0.3418-2.2085-4.3219e-4 -3.9786-1.7708-3.9786-3.9794 0-0.16467 0.11549-0.30122 0.26892-0.33496 3.2821e-4 -1.9142 1.3448-3.5008 3.1309-3.8909 0 0 0.078132-0.017643 0.078568-0.017741 0.027467-0.0062022 0.90641-0.20467 0.90641-0.20467s-0.017643-0.078132-0.017741-0.078568c-0.0062022-0.027467-0.20467-0.90641-0.20467-0.90641-0.0053439-0.026116-0.0076598-0.050241-0.0077198-0.073765-0.061388-0.3003-0.087601-0.57747-0.087601-0.84767 0-0.20111 0.16108-0.36248 0.36191-0.36276 4.5777e-4 -2.3377 1.8756-4.2126 4.2135-4.2126" style="color:#000000;fill-opacity:.029625;fill:#ff0066;opacity:1;paint-order:normal;text-decoration-line:none;text-indent:0;text-transform:none"/>
		<path d="m28.851 29.331c-3.6226 0-6.5809 2.9584-6.5809 6.5809 0 1.709e-4 4.15e-8 3.4177e-4 1.245e-7 5.126e-4 8.4903e-5 0.18574 0.046295 0.33232 0.063278 0.50571-2.7341e-4 1.0461e-4 -5.4682e-4 2.0923e-4 -8.2021e-4 3.1387e-4 -2.3799 0.91088-4.1123 3.1319-4.1123 5.8213 0 2.0002e-4 1e-8 4.0004e-4 3e-8 6.0006e-4 3.2677e-4 3.4825 2.8453 6.3272 6.3278 6.3272h6.0896e-4 14.174c2.1608e-4 0 4.3216e-4 -1.08e-8 6.4823e-4 -3.23e-8 3.762-3.528e-4 6.8334-3.0719 6.8334-6.834 0-2.1608e-4 -1.07e-8 -4.3216e-4 -3.23e-8 -6.4823e-4 -3.528e-4 -3.762-3.0719-6.8334-6.834-6.8334-1.9564e-4 0-3.9087e-4 -2.91e-8 -5.8571e-4 -8.69e-8 -0.052826-1.4741e-5 -0.078218-0.0020161-0.12597 8.69e-8 -1.1982e-4 -1.5181e-4 -2.3964e-4 -3.0362e-4 -3.5947e-4 -4.5542e-4 -1.0431-1.3214-2.5361-2.2223-4.3026-2.4358-1.3453e-4 -2.1055e-4 -2.6908e-4 -4.2109e-4 -4.0363e-4 -6.3162e-4 -1.1713-1.8327-3.1169-3.1316-5.4415-3.1316m0 1.9054m0 0.11953c0.10414 0 0.19452 0.058445 0.23966 0.1438 1.6567 2.2742e-4 3.094 0.93184 3.8101 2.2924 0 0 0.014999 0.029998 0.015113 0.030227 0.0072121 0.014424 0.238 0.476 0.238 0.476s0.035622 0.0018747 0.035894 0.001889c0.017129 9.0151e-4 0.56525 0.02975 0.56525 0.02975 0.091332 0.003589 0.16882 0.053488 0.2153 0.12702 1.4529 0.057277 2.6851 0.85257 3.4232 2.0244 0 0 0.018749 0.029998 0.018892 0.030227 0.0090151 0.014424 0.2975 0.476 0.2975 0.476s0.037497-0.0018747 0.037783-0.001889c0.01803-9.0151e-4 0.595-0.02975 0.595-0.02975 0.011119-8.9179e-4 0.018521-0.0019213 0.023418-0.0019482 0.17133-0.013767 0.28368-0.029691 0.35625-0.029691 0.15779 0 0.28449 0.12639 0.28479 0.28387 2.5101 4.918e-4 4.5243 2.0151 4.5243 4.5253 0 0.15779-0.12639 0.28449-0.28387 0.28479-4.918e-4 2.5101-2.0151 4.5243-4.5253 4.5243h-0.83729-13.337c-0.14126 0-0.25454-0.11301-0.25481-0.25399-2.2471-4.3974e-4 -4.0481-1.8018-4.0481-4.0489 0-0.12243 0.085818-0.22396 0.19983-0.2491 3.3394e-4 -1.9476 1.3683-3.562 3.1856-3.9589 0 0 0.05812-0.013124 0.058564-0.013224 0.027947-0.0063106 0.92225-0.20825 0.92225-0.20825s-0.013124-0.05812-0.013224-0.058564c-0.0063106-0.027947-0.20825-0.92225-0.20825-0.92225-0.0039876-0.019487-0.005725-0.037495-0.005786-0.055056-0.06246-0.30555-0.089131-0.58756-0.089131-0.86248 0-0.14953 0.1197-0.26951 0.26893-0.2698 4.6577e-4 -2.3786 1.9084-4.2862 4.2871-4.2862" style="color:#000000;fill-opacity:.030074;fill:#ff0066;opacity:1;paint-order:normal;text-decoration-line:none;text-indent:0;text-transform:none"/>
		<path d="m28.694 29.219c-3.6074 0-6.5535 2.946-6.5535 6.5535 0 1.7378e-4 4.22e-8 3.4752e-4 1.266e-7 5.2123e-4 8.6333e-5 0.18496 0.046102 0.33092 0.063014 0.50359-2.7802e-4 1.0637e-4 -5.5603e-4 2.1276e-4 -8.3403e-4 3.1916e-4 -2.3699 0.90708-4.0951 3.1188-4.0951 5.797 0 2.0339e-4 1.01e-8 4.0679e-4 3.04e-8 6.1018e-4 3.3227e-4 3.468 2.8334 6.3008 6.3014 6.3008h6.1922e-4 14.115c2.1972e-4 0 4.3944e-4 -1.1e-8 6.5916e-4 -3.29e-8 3.7463-3.5874e-4 6.8049-3.0591 6.8049-6.8055 0-2.1972e-4 -1.1e-8 -4.3944e-4 -3.29e-8 -6.5916e-4 -3.5874e-4 -3.7463-3.0591-6.8049-6.8055-6.8049-1.9893e-4 0-3.9746e-4 -2.96e-8 -5.9558e-4 -8.84e-8 -0.052597-1.4989e-5 -0.077882-0.002008-0.12543 8.84e-8 -1.2184e-4 -1.5437e-4 -2.4368e-4 -3.0873e-4 -3.6553e-4 -4.6309e-4 -1.0388-1.3159-2.5255-2.213-4.2846-2.4256-1.368e-4 -2.1409e-4 -2.7361e-4 -4.2818e-4 -4.1043e-4 -6.4226e-4 -1.1664-1.825-3.1039-3.1186-5.4188-3.1186m0 1.9375m0 0.07897c0.068877 0 0.12866 0.038614 0.15856 0.09501 1.6846 2.3126e-4 3.1461 0.94754 3.8743 2.331 0 0 0.0099303 0.019861 0.010047 0.020093 0.0073336 0.014667 0.24201 0.48402 0.24201 0.48402s0.023585 0.0012412 0.023861 0.0012557c0.017417 9.167e-4 0.57477 0.030251 0.57477 0.030251 0.060406 0.0023737 0.11166 0.035344 0.14244 0.083927 1.4774 0.058243 2.7303 0.86693 3.4809 2.0586 0 0 0.012413 0.019861 0.012558 0.020093 0.009167 0.014667 0.30251 0.48402 0.30251 0.48402s0.024826-0.0012412 0.025117-0.0012557c0.018334-9.167e-4 0.60502-0.030251 0.60502-0.030251 0.007466-5.9879e-4 0.012476-0.0012886 0.01583-0.0013159 0.17422-0.013999 0.28846-0.030191 0.36225-0.030191 0.10436 0 0.18818 0.083503 0.18849 0.18755 2.5524 5.0009e-4 4.6006 2.049 4.6006 4.6015 0 0.10436-0.083503 0.18818-0.18755 0.18849-5.0009e-4 2.5524-2.049 4.6006-4.6015 4.6006h-0.55341-13.562c-0.093426 0-0.16837-0.074664-0.16865-0.16781-2.2849-4.4715e-4 -4.1163-1.8321-4.1163-4.1171 0-0.080975 0.0567-0.14814 0.13203-0.16483 3.3957e-4 -1.9804 1.3913-3.622 3.2392-4.0256 0 0 0.03848-0.008689 0.038931-0.0087909 0.028418-0.0064169 0.93779-0.21176 0.93779-0.21176s-0.008689-0.03848-0.0087909-0.038931c-0.0064169-0.028418-0.21176-0.93779-0.21176-0.93779-0.0026563-0.012982-0.003826-0.024985-0.0038881-0.036694-0.063513-0.31069-0.090633-0.59746-0.090633-0.87701 0-0.098894 0.079083-0.17827 0.17768-0.17857 4.7362e-4 -2.4187 1.9406-4.3584 4.3593-4.3584" style="color:#000000;fill-opacity:.030514;fill:#ff0066;opacity:1;paint-order:normal;text-decoration-line:none;text-indent:0;text-transform:none"/>
		<path d="m28.54 29.108c-3.5926 0-6.5265 2.9339-6.5265 6.5265 0 1.7661e-4 4.29e-8 3.5318e-4 1.287e-7 5.2972e-4 8.7738e-5 0.18419 0.045912 0.32955 0.062755 0.50151-2.8255e-4 1.081e-4 -5.6508e-4 2.1622e-4 -8.4761e-4 3.2436e-4 -2.3602 0.90336-4.0782 3.106-4.0782 5.7731 0 2.067e-4 1.03e-8 4.1341e-4 3.09e-8 6.2011e-4 3.3768e-4 3.4537 2.8217 6.2749 6.2755 6.2749h6.293e-4 14.056c2.233e-4 0 4.4659e-4 -1.11e-8 6.6988e-4 -3.34e-8 3.7309-3.6458e-4 6.7769-3.0465 6.7769-6.7775 0-2.233e-4 -1.12e-8 -4.4659e-4 -3.34e-8 -6.6988e-4 -3.6458e-4 -3.7309-3.0465-6.7769-6.7775-6.7769-2.0217e-4 0-4.0393e-4 -3.01e-8 -6.0527e-4 -8.98e-8 -0.052372-1.5233e-5 -0.077553-2e-3 -0.1249 8.98e-8 -1.2382e-4 -1.5688e-4 -2.4765e-4 -3.1376e-4 -3.7148e-4 -4.7063e-4 -1.0345-1.3105-2.5151-2.2039-4.267-2.4156-1.3903e-4 -2.1758e-4 -2.7806e-4 -4.3515e-4 -4.1711e-4 -6.5271e-4 -1.1616-1.8175-3.0912-3.1057-5.3965-3.1057m0 1.969m0 0.03914c0.034245 0 0.063985 0.019138 0.078907 0.04709 1.712 2.3502e-4 3.1973 0.96296 3.9374 2.369 0 0 0.0049526 0.0099052 0.0050709 0.010142 0.007453 0.014906 0.24595 0.4919 0.24595 0.4919s0.011762 6.1902e-4 0.012043 6.338e-4c0.017701 9.3162e-4 0.58413 0.030744 0.58413 0.030744 0.030033 0.0011802 0.055533 0.017525 0.07088 0.041608 1.5014 0.05919 2.7748 0.88104 3.5375 2.0921 0 0 0.0061907 0.0099052 0.0063386 0.010142 0.0093162 0.014906 0.30744 0.4919 0.30744 0.4919s0.012381-6.1902e-4 0.012677-6.338e-4c0.018632-9.3162e-4 0.61487-0.030744 0.61487-0.030744 0.0038781-3.1103e-4 0.0065387-6.6716e-4 0.0083789-6.95e-4 0.17706-0.014227 0.29315-0.030682 0.36815-0.030682 0.051888 0 0.093591 0.041387 0.093908 0.092958 2.5939 5.0822e-4 4.6755 2.0824 4.6755 4.6764 0 0.051888-0.041387 0.093591-0.092958 0.093908-5.0822e-4 2.5939-2.0824 4.6755-4.6764 4.6755h-0.27461-13.782c-0.04645 0-0.08374-0.037006-0.084023-0.083173-2.3221-4.5443e-4 -4.1833-1.8619-4.1833-4.1842 0-0.04026 0.028102-0.073675 0.065437-0.082075 3.4509e-4 -2.0126 1.414-3.681 3.2919-4.0911 0 0 0.019191-0.0043335 0.01965-0.004437 0.02888-0.0065214 0.95305-0.2152 0.95305-0.2152s-0.0043335-0.019191-0.004437-0.01965c-0.0065214-0.02888-0.2152-0.95305-0.2152-0.95305-0.0013489-0.0065923-0.001961-0.0127-0.0020241-0.018661-0.064547-0.31575-0.092108-0.60719-0.092108-0.89128 0-0.049169 0.039196-0.088665 0.088065-0.088965 4.8133e-4 -2.458 1.9721-4.4294 4.4303-4.4294" style="color:#000000;fill-opacity:.030947;fill:#ff0066;opacity:1;paint-order:normal;text-decoration-line:none;text-indent:0;text-transform:none"/>
	</g>
	<path d="m28.389 29c-3.578 0-6.5 2.922-6.5 6.5 0 0.18369 0.04571 0.32858 0.0625 0.5-2.351 0.89949-4.0625 3.0934-4.0625 5.75 0 3.4399 2.8101 6.25 6.25 6.25h14c3.7161 0 6.75-3.0339 6.75-6.75s-3.0339-6.75-6.75-6.75c-0.05257 0-0.07766-2e-3 -0.125 0-1.0303-1.3054-2.505-2.1954-4.25-2.4062-1.1568-1.8105-3.0787-3.0938-5.375-3.0938zm0 2c1.7392 0 3.2482 0.97794 4 2.4062l0.25 0.5 0.59375 0.03125c1.5253 0.05994 2.8189 0.89478 3.5938 2.125l0.3125 0.5 0.625-0.03125c0.18044-0.01447 0.29867-0.03125 0.375-0.03125 2.6352 0 4.75 2.1148 4.75 4.75s-2.1148 4.75-4.75 4.75h-14c-2.3591 0-4.25-1.8909-4.25-4.25 0-2.0447 1.436-3.7396 3.3438-4.1562l0.96875-0.21875-0.21875-0.96875c-0.0657-0.32108-0.09375-0.6174-0.09375-0.90625 0-2.4971 2.0029-4.5 4.5-4.5z" style="color:#000000;fill:#d5ffff;paint-order:normal;text-decoration-line:none;text-indent:0;text-transform:none"/>
</svg>
