<?xml version="1.0" encoding="UTF-8"?>
<svg id="as" width="64" height="64" version="1.1" xmlns="http://www.w3.org/2000/svg" xmlns:cc="http://creativecommons.org/ns#" xmlns:dc="http://purl.org/dc/elements/1.1/" xmlns:rdf="http://www.w3.org/1999/02/22-rdf-syntax-ns#">
	<defs id="bn">
		<linearGradient id="d" x1="53" x2="53" y1="17" y2="15" gradientUnits="userSpaceOnUse">
			<stop id="bx" stop-color="#dad8ce" offset="0"/>
			<stop id="bu" stop-color="#ebebeb" offset="1"/>
		</linearGradient>
		<linearGradient id="f" x1="32.559" x2="33.542" y1="15.559" y2="14.542" gradientUnits="userSpaceOnUse">
			<stop id="bv" stop-color="#37321c" stop-opacity=".15675" offset="0"/>
			<stop id="bs" stop-color="#6d5524" stop-opacity="0" offset="1"/>
		</linearGradient>
		<radialGradient id="a" cx="33.466" cy="2.1992" r="30.5" gradientTransform="matrix(-1.0283 0 0 -.55738 67.779 1.2258)" gradientUnits="userSpaceOnUse">
			<stop id="bj" stop-color="#668cbb" offset="0"/>
			<stop id="bd" stop-color="#668cbb" offset="1"/>
		</radialGradient>
		<linearGradient id="g" x1="61" x2="60" y1="17" gradientTransform="translate(-.88255)" gradientUnits="userSpaceOnUse">
			<stop id="be" stop-color="#3e4d60" stop-opacity=".72157" offset="0"/>
			<stop id="ba" stop-color="#393b49" stop-opacity=".2656" offset="1"/>
		</linearGradient>
		<linearGradient id="c" x1="62.381" x2="62.381" y1="63.314" y2="23.077" gradientUnits="userSpaceOnUse">
			<stop id="n" stop-color="#000828" stop-opacity=".35976" offset="0"/>
			<stop id="p" stop-color="#000828" stop-opacity=".12715" offset="1"/>
		</linearGradient>
		<radialGradient id="b" cx="30.107" cy="50.318" r="30.5" gradientTransform="matrix(2.7541,-1.4218e-7,8.3652e-8,2.7869,-52.917,-93.23)" gradientUnits="userSpaceOnUse">
			<stop id="r" stop-color="#9e1423" stop-opacity=".12917" offset="0"/>
			<stop id="i" stop-color="#f4405b" stop-opacity=".023222" offset=".54"/>
			<stop id="ar" stop-color="#f43f6d" stop-opacity=".169" offset="1"/>
		</radialGradient>
		<linearGradient id="h" x1="-5" x2="-5" y1="64" y2="14" gradientTransform="translate(.88908)" gradientUnits="userSpaceOnUse">
			<stop id="ap" stop-color="#f43f66" stop-opacity=".018868" offset="0"/>
			<stop id="ao" stop-color="#f4ae3f" stop-opacity=".47025" offset="1"/>
		</linearGradient>
		<linearGradient id="e" x1="4.5255" x2="4.5255" y1="64" y2="61.09" gradientUnits="userSpaceOnUse">
			<stop id="aw" stop-color="#e50d4c" stop-opacity=".47868" offset="0"/>
			<stop id="by" stop-color="#e50d4c" stop-opacity="0" offset="1"/>
		</linearGradient>
	</defs>
	<metadata id="bo">
		<rdf:RDF>
			<cc:Work rdf:about="">
				<dc:format>image/svg+xml</dc:format>
				<dc:type rdf:resource="http://purl.org/dc/dcmitype/StillImage"/>
				<dc:title/>
			</cc:Work>
		</rdf:RDF>
	</metadata>
	<g id="s">
		<g id="cc">
			<path id="bm" d="m38 0c-1 0-1.5103 0.51027-2 1l-3 3c-0.53814 0.53814-1 1-2 1h-28c-0.52243 0-1 0.43922-1 1l-0.76511 58h61.543c1 0 1.2218-1 1.2218-2v-61c0-0.51973-0.5-1-1-1z" style="color:#000000;fill:url(#a)"/>
			<path id="br" d="m38 0c-1 0-1.5103 0.51027-2 1l-3 3c-0.53814 0.53814-1 1-2 1h-28c-0.52243 0-1 0.43922-1 1l-0.76511 58h61.543c1 0 1.2218-1 1.2218-2v-61c0-0.51973-0.5-1-1-1z" style="color:#000000;fill:url(#g)"/>
			<path id="t" d="m38 0c-1 0-1.5103 0.51027-2 1l-3 3c-0.53814 0.53814-1 1-2 1h-28c-0.52243 0-1 0.43922-1 1l-0.76562 58h0.00586l0.75976-57.5c0-0.56078 0.47757-1 1-1h28c1 0 1.4619-0.46186 2-1l3-3c0.48973-0.48973 1-1 2-1h25c0.5 0 1 0.48027 1 1v-0.5c0-0.51973-0.5-1-1-1z" style="color:#000000;fill-opacity:.19073;fill:#b3ffff"/>
			<path id="v" d="m61 13v51h1.7773c0.09408 0 0.17509-0.01633 0.25586-0.0332l0.8125-0.8125c0.11225-0.34056 0.1543-0.74535 0.1543-1.1543v-46l-3-3z" style="fill:url(#c)"/>
			<path id="x" d="m63.5 0.15532v61.845c0 0.52439-0.13604 1.5011-0.72184 1.5v0.5c1 0 1.2218-1 1.2218-2v-61c0-0.39808-0.24002-0.69459-0.5-0.84468z" style="fill-opacity:.14136;fill:#0f1f33;paint-order:normal"/>
		</g>
		<g id="bz">
			<path id="bl" d="m7 13h54v31h-54z" style="fill:url(#d)"/>
			<path id="o" d="m30 13 4 4h2l-4-4z" style="color:#000000;fill:url(#f)"/>
		</g>
		<path id="bk" d="m62.778 63.5c-0.58579-0.0011-0.77816-0.9402-0.77816-1.5v-44c0-0.57647-0.4549-1-1-1h-26c-1 0-1.3759-0.3759-2-1l-3-3c-0.46442-0.46442-1-1-2-1h-27c-0.52342 0-1 0.4716-1 1 0.0044097 9.6802 0.0035924 21.791 0.002195 32.011-9.6046e-4 7.024-0.002195 13.155-0.002195 16.989 0 1 0.23489 2 1.2349 2h61.543z" style="color:#000000;fill:#f4ae3f"/>
		<path id="bp" d="m62.778 63.5c-0.58579-0.0011-0.77816-0.9402-0.77816-1.5v-44c0-0.57647-0.4549-1-1-1h-26c-1 0-1.3759-0.3759-2-1l-3-3c-0.46442-0.46442-1-1-2-1h-27c-0.52342 0-1 0.4716-1 1 0.0044097 9.6802 0.0035924 21.791 0.002195 32.011-9.6046e-4 7.024-0.002195 13.155-0.002195 16.989 0 1 0.23489 2 1.2349 2h61.543z" style="color:#000000;fill:#f4ae3f"/>
		<path id="l" d="m62.778 63.5c-0.58579-0.0011-0.77816-0.9402-0.77816-1.5v-44c0-0.57647-0.4549-1-1-1h-26c-1 0-1.3759-0.3759-2-1l-3-3c-0.46442-0.46442-1-1-2-1h-27c-0.52342 0-1 0.4716-1 1 0.0044097 9.6802 0.0035924 21.791 0.002195 32.011-9.6046e-4 7.024-0.002195 13.155-0.002195 16.989 0 1 0.23489 2 1.2349 2h61.543z" style="color:#000000;fill:url(#b)"/>
		<path id="cb" d="m62.778 63.5c-0.58579-0.0011-0.77816-0.9402-0.77816-1.5v-44c0-0.57647-0.4549-1-1-1h-26c-1 0-1.3759-0.3759-2-1l-3-3c-0.46442-0.46442-1-1-2-1h-27c-0.52342 0-1 0.4716-1 1 0.0044097 9.6802 0.0035924 21.791 0.002195 32.011-9.6046e-4 7.024-0.002195 13.155-0.002195 16.989 0 1 0.23489 2 1.2349 2h61.543z" style="color:#000000;fill:url(#h)"/>
		<path id="bw" d="m62.778 63.5c-0.58579-0.0011-0.77816-0.9402-0.77816-1.5v-44c0-0.57647-0.4549-1-1-1h-26c-1 0-1.3759-0.3759-2-1l-3-3c-0.46442-0.46442-1-1-2-1h-27c-0.52342 0-1 0.4716-1 1 0.0044097 9.6802 0.0035924 21.791 0.002195 32.011-9.6046e-4 7.024-0.002195 13.155-0.002195 16.989 0 1 0.23489 2 1.2349 2h61.543z" style="color:#000000;fill:url(#e);opacity:.318"/>
		<path id="j" d="m27.5 12c1 0 1.5356 0.53558 2 1l3 3c0.6241 0.6241 1 1 2 1h0.5c-1 0-1.3759-0.3759-2-1l-3-3c-0.46442-0.46442-1-1-2-1zm33 5c0.5451 0 1 0.42353 1 1v44c0 0.90201 0.20957 1.9442 1.2782 2h-8.19e-4v-0.5c-0.58579-0.0011-0.77734-0.9402-0.77734-1.5v-44c0-0.57647-0.4549-1-1-1z" style="color:#000000;fill-opacity:.23186;fill:#ff024d;paint-order:normal"/>
		<path id="ac" d="m27.75 12c1 0 1.5356 0.53558 2 1l3 3c0.6241 0.6241 1 1 2 1h0.25c-1 0-1.3759-0.3759-2-1l-3-3c-0.46442-0.46442-1-1-2-1zm33 5c0.5451 0 1 0.42353 1 1v44c0 0.5598 0.19155 1.4989 0.77734 1.5v0.45508c0.08 0.01886 0.15756 0.0401 0.25 0.04492v-0.5c-0.58579-0.0011-0.77734-0.9402-0.77734-1.5v-44c0-0.57647-0.4549-1-1-1z" style="color:#000000;fill-opacity:.19147;fill:#ff024d;paint-order:normal"/>
		<path id="au" d="m1 12c-0.52342 0-1 0.4716-1 1 6.888e-5 0.15121-6.6347e-5 0.34762 0 0.5 0-0.5284 0.47658-1 1-1h27c1 0 1.5356 0.53558 2 1l3 3c0.6241 0.6241 1 1 2 1h26c0.5451 0 1 0.42353 1 1v-0.5c0-0.57647-0.4549-1-1-1h-26c-1 0-1.3759-0.3759-2-1l-3-3c-0.46442-0.46442-1-1-2-1z" style="color:#000000;fill-opacity:.31189;fill:#f8ff34"/>
		<path id="at" d="m1 12c-0.52342 0-1 0.4716-1 1 3.444e-5 0.0756-3.3805e-5 0.1741 0 0.25 0-0.5284 0.47658-1 1-1h27c1 0 1.5356 0.53558 2 1l3 3c0.6241 0.6241 1 1 2 1h26c0.5451 0 1 0.42353 1 1v-0.25c0-0.57647-0.4549-1-1-1h-26c-1 0-1.3759-0.3759-2-1l-3-3c-0.46442-0.46442-1-1-2-1z" style="color:#000000;fill-opacity:.31189;fill:#f8ff34"/>
	</g>
	<g id="az" style="opacity:.3">
		<path id="bh" d="m43.25 37.5c-2.8086 0-13.092 0.25587-14.976 1.7614-1.6855 1.3466-1.7739 4.5108-1.7739 10.528 0 6.0167 0.08838 9.1809 1.7739 10.528 1.8843 1.5055 12.168 1.7614 14.976 1.7614s13.092-0.25587 14.976-1.7614c1.6855-1.3466 1.7739-4.5108 1.7739-10.528 0-6.0167-0.088395-9.1809-1.7739-10.528-1.8843-1.5055-12.168-1.7614-14.976-1.7614" style="color:#000000;fill-opacity:.0039216;fill:#ff0066;opacity:1;paint-order:normal"/>
		<path id="aj" d="m41.229 35.794c-2.7559 0-12.846 0.25107-14.695 1.7283-1.6539 1.3214-1.7406 4.4262-1.7406 10.33 0 5.9038 0.086722 9.0086 1.7406 10.33 1.8489 1.4772 11.939 1.7283 14.695 1.7283s12.846-0.25107 14.695-1.7283c1.6539-1.3214 1.7406-4.4262 1.7406-10.33 0-5.9038-0.086736-9.0086-1.7406-10.33-1.8489-1.4772-11.939-1.7283-14.695-1.7283" style="color:#000000;fill-opacity:.008852;fill:#ff0066;opacity:1;paint-order:normal"/>
		<path id="ak" d="m40.392 35.087c-2.7341 0-12.744 0.24908-14.579 1.7146-1.6408 1.3109-1.7268 4.3911-1.7268 10.248 0 5.8571 0.086036 8.9373 1.7268 10.248 1.8343 1.4655 11.845 1.7146 14.579 1.7146s12.744-0.24908 14.579-1.7146c1.6408-1.3109 1.7268-4.3911 1.7268-10.248 0-5.857-0.086049-8.9373-1.7268-10.248-1.8343-1.4655-11.845-1.7146-14.579-1.7146" style="color:#000000;fill-opacity:.010894;fill:#ff0066;opacity:1;paint-order:normal"/>
		<path id="am" d="m39.75 34.545c-2.7173 0-12.666 0.24756-14.489 1.7041-1.6307 1.3029-1.7162 4.3642-1.7162 10.185 0 5.8212 0.085509 8.8825 1.7162 10.185 1.8231 1.4566 11.772 1.7041 14.489 1.7041 2.7173 0 12.666-0.24756 14.489-1.7041 1.6307-1.3029 1.7162-4.3642 1.7162-10.185 0-5.8212-0.085522-8.8825-1.7162-10.185-1.8231-1.4566-11.772-1.7041-14.489-1.7041" style="color:#000000;fill-opacity:.012461;fill:#ff0066;opacity:1;paint-order:normal"/>
		<path id="an" d="m39.209 34.088c-2.7032 0-12.601 0.24627-14.414 1.6953-1.6222 1.2961-1.7073 4.3415-1.7073 10.132 0 5.7909 0.085064 8.8363 1.7073 10.132 1.8136 1.449 11.711 1.6953 14.414 1.6953s12.601-0.24627 14.414-1.6953c1.6222-1.2961 1.7073-4.3415 1.7073-10.132 0-5.7909-0.085078-8.8363-1.7073-10.132-1.8136-1.449-11.711-1.6953-14.414-1.6953" style="color:#000000;fill-opacity:.013782;fill:#ff0066;opacity:1;paint-order:normal"/>
		<path id="af" d="m38.732 33.685c-2.6908 0-12.543 0.24514-14.348 1.6875-1.6148 1.2901-1.6994 4.3215-1.6994 10.086 0 5.7643 0.084673 8.7957 1.6994 10.086 1.8052 1.4423 11.657 1.6875 14.348 1.6875s12.543-0.24514 14.348-1.6875c1.6148-1.2901 1.6994-4.3215 1.6994-10.086 0-5.7643-0.084686-8.7957-1.6994-10.086-1.8052-1.4423-11.657-1.6875-14.348-1.6875" style="color:#000000;fill-opacity:.014946;fill:#ff0066;opacity:1;paint-order:normal"/>
		<path id="ay" d="m38.301 33.321c-2.6795 0-12.49 0.24411-14.288 1.6804-1.608 1.2847-1.6923 4.3035-1.6923 10.044 0 5.7402 0.084319 8.7589 1.6923 10.044 1.7977 1.4363 11.608 1.6804 14.288 1.6804 2.6795 0 12.49-0.24411 14.288-1.6804 1.608-1.2847 1.6923-4.3035 1.6923-10.044 0-5.7402-0.084332-8.7589-1.6923-10.044-1.7977-1.4363-11.608-1.6804-14.288-1.6804" style="color:#000000;fill-opacity:.015999;fill:#ff0066;opacity:1;paint-order:normal"/>
		<path id="av" d="m37.904 32.986c-2.6692 0-12.442 0.24317-14.233 1.6739-1.6018 1.2798-1.6858 4.2869-1.6858 10.005 0 5.718 0.083994 8.7251 1.6858 10.005 1.7907 1.4307 11.563 1.6739 14.233 1.6739s12.442-0.24317 14.233-1.6739c1.6018-1.2798 1.6858-4.2869 1.6858-10.005 0-5.718-0.084007-8.7251-1.6858-10.005-1.7907-1.4307-11.563-1.6739-14.233-1.6739" style="color:#000000;fill-opacity:.016966;fill:#ff0066;opacity:1;paint-order:normal"/>
		<path id="ax" d="m37.535 32.674c-2.6595 0-12.397 0.24229-14.181 1.6679-1.596 1.2752-1.6797 4.2714-1.6797 9.9688 0 5.6974 0.083691 8.6936 1.6797 9.9688 1.7843 1.4256 11.522 1.6679 14.181 1.6679s12.397-0.24229 14.181-1.6679c1.596-1.2752 1.6797-4.2714 1.6797-9.9688 0-5.6974-0.083704-8.6936-1.6797-9.9688-1.7843-1.4256-11.522-1.6679-14.181-1.6679" style="color:#000000;fill-opacity:.017867;fill:#ff0066;opacity:1;paint-order:normal"/>
		<path id="aq" d="m37.188 32.381c-2.6505 0-12.355 0.24147-14.133 1.6622-1.5906 1.2708-1.674 4.2569-1.674 9.9349 0 5.678 0.083407 8.6641 1.674 9.9349 1.7782 1.4207 11.483 1.6622 14.133 1.6622s12.355-0.24147 14.133-1.6622c1.5906-1.2708 1.674-4.2569 1.674-9.9349 0-5.678-0.083419-8.6641-1.674-9.9349-1.7782-1.4207-11.483-1.6622-14.133-1.6622" style="color:#000000;fill-opacity:.018713;fill:#ff0066;opacity:1;paint-order:normal"/>
		<path id="bt" d="m36.86 32.104c-2.6419 0-12.315 0.24069-14.087 1.6568-1.5855 1.2667-1.6686 4.2431-1.6686 9.9028 0 5.6597 0.083138 8.6361 1.6686 9.9028 1.7725 1.4162 11.446 1.6568 14.087 1.6568s12.315-0.24069 14.087-1.6568c1.5855-1.2667 1.6686-4.2431 1.6686-9.9028 0-5.6597-0.08315-8.6361-1.6686-9.9028-1.7725-1.4162-11.446-1.6568-14.087-1.6568" style="color:#000000;fill-opacity:.019513;fill:#ff0066;opacity:1;paint-order:normal"/>
		<path id="z" d="m36.549 31.841c-2.6338 0-12.277 0.23995-14.044 1.6517-1.5806 1.2628-1.6635 4.2301-1.6635 9.8723 0 5.6423 0.082882 8.6095 1.6635 9.8723 1.767 1.4118 11.41 1.6517 14.044 1.6517s12.277-0.23995 14.044-1.6517c1.5806-1.2628 1.6635-4.2301 1.6635-9.8723 0-5.6423-0.082894-8.6095-1.6635-9.8723-1.767-1.4118-11.41-1.6517-14.044-1.6517" style="color:#000000;fill-opacity:.020274;fill:#ff0066;opacity:1;paint-order:normal"/>
		<path id="aa" d="m36.251 31.589c-2.626 0-12.241 0.23924-14.003 1.6469-1.5759 1.2591-1.6586 4.2176-1.6586 9.8432 0 5.6256 0.082637 8.5841 1.6586 9.8432 1.7618 1.4076 11.377 1.6469 14.003 1.6469s12.241-0.23924 14.003-1.6469c1.5759-1.2591 1.6586-4.2176 1.6586-9.8432 0-5.6256-0.082649-8.5841-1.6586-9.8432-1.7618-1.4076-11.377-1.6469-14.003-1.6469" style="color:#000000;fill-opacity:.021001;fill:#ff0066;opacity:1;paint-order:normal"/>
		<path id="k" d="m35.965 31.348c-2.6186 0-12.206 0.23856-13.963 1.6422-1.5714 1.2555-1.6539 4.2056-1.6539 9.8153 0 5.6096 0.082403 8.5597 1.6539 9.8153 1.7568 1.4036 11.344 1.6422 13.963 1.6422 2.6186 0 12.206-0.23856 13.963-1.6422 1.5715-1.2555 1.6539-4.2056 1.6539-9.8153 0-5.6096-0.082415-8.5597-1.6539-9.8153-1.7568-1.4036-11.344-1.6422-13.963-1.6422" style="color:#000000;fill-opacity:.021698;fill:#ff0066;opacity:1;paint-order:normal"/>
		<path id="cd" d="m35.69 31.116c-2.6114 0-12.173 0.23791-13.925 1.6377-1.5671 1.2521-1.6493 4.1941-1.6493 9.7884 0 5.5943 0.082177 8.5363 1.6493 9.7884 1.752 1.3998 11.313 1.6377 13.925 1.6377 2.6114 0 12.173-0.23791 13.925-1.6377 1.5671-1.2521 1.6493-4.1941 1.6493-9.7884 0-5.5943-0.082189-8.5363-1.6493-9.7884-1.752-1.3998-11.313-1.6377-13.925-1.6377" style="color:#000000;fill-opacity:.02237;fill:#ff0066;opacity:1;paint-order:normal"/>
		<path id="ai" d="m35.424 30.892c-2.6045 0-12.14 0.23728-13.888 1.6334-1.563 1.2488-1.645 4.183-1.645 9.7624 0 5.5795 0.08196 8.5137 1.645 9.7624 1.7474 1.3961 11.283 1.6334 13.888 1.6334 2.6045 0 12.14-0.23728 13.888-1.6334 1.563-1.2488 1.645-4.183 1.645-9.7624 0-5.5794-0.081971-8.5137-1.645-9.7624-1.7474-1.3961-11.283-1.6334-13.888-1.6334" style="color:#000000;fill-opacity:.023017;fill:#ff0066;opacity:1;paint-order:normal"/>
		<path id="bi" d="m35.168 30.675c-2.5978 0-12.109 0.23667-13.852 1.6292-1.559 1.2456-1.6407 4.1722-1.6407 9.7373 0 5.5651 0.081749 8.4918 1.6407 9.7373 1.7429 1.3925 11.254 1.6292 13.852 1.6292s12.109-0.23667 13.852-1.6292c1.559-1.2456 1.6407-4.1722 1.6407-9.7373 0-5.5651-0.08176-8.4918-1.6407-9.7373-1.7429-1.3925-11.254-1.6292-13.852-1.6292" style="color:#000000;fill-opacity:.023643;fill:#ff0066;opacity:1;paint-order:normal"/>
		<path id="bg" d="m34.919 30.465c-2.5913 0-12.079 0.23608-13.817 1.6251-1.5551 1.2425-1.6366 4.1618-1.6366 9.713 0 5.5512 0.081545 8.4706 1.6366 9.713 1.7385 1.389 11.226 1.6251 13.817 1.6251s12.079-0.23608 13.817-1.6251c1.5551-1.2424 1.6366-4.1618 1.6366-9.713 0-5.5512-0.081556-8.4706-1.6366-9.713-1.7385-1.389-11.226-1.6251-13.817-1.6251" style="color:#000000;fill-opacity:.02425;fill:#ff0066;opacity:1;paint-order:normal"/>
		<path id="ae" d="m34.677 30.261c-2.585 0-12.05 0.2355-13.784 1.6211-1.5513 1.2394-1.6327 4.1517-1.6327 9.6894 0 5.5377 0.081347 8.45 1.6327 9.6894 1.7343 1.3856 11.199 1.6211 13.784 1.6211s12.05-0.2355 13.784-1.6211c1.5513-1.2394 1.6327-4.1517 1.6327-9.6894 0-5.5377-0.081358-8.45-1.6327-9.6894-1.7343-1.3856-11.199-1.6211-13.784-1.6211" style="color:#000000;fill-opacity:.02484;fill:#ff0066;opacity:1;paint-order:normal"/>
		<path id="bc" d="m34.443 30.063c-2.5789 0-12.021 0.23495-13.751 1.6173-1.5476 1.2365-1.6288 4.1419-1.6288 9.6664 0 5.5246 0.081154 8.43 1.6288 9.6664 1.7302 1.3823 11.172 1.6173 13.751 1.6173s12.021-0.23494 13.751-1.6173c1.5476-1.2365 1.6288-4.1419 1.6288-9.6664 0-5.5246-0.081165-8.43-1.6288-9.6664-1.7302-1.3823-11.172-1.6173-13.751-1.6173" style="color:#000000;fill-opacity:.025413;fill:#ff0066;opacity:1;paint-order:normal"/>
		<path id="bb" d="m34.214 29.869c-2.5729 0-11.993 0.2344-13.719 1.6136-1.544 1.2336-1.625 4.1323-1.625 9.6441 0 5.5118 0.080966 8.4105 1.625 9.6441 1.7262 1.3792 11.146 1.6136 13.719 1.6136s11.993-0.2344 13.719-1.6136c1.544-1.2336 1.625-4.1323 1.625-9.6441 0-5.5118-0.080977-8.4104-1.625-9.6441-1.7262-1.3791-11.146-1.6136-13.719-1.6136" style="color:#000000;fill-opacity:.025971;fill:#ff0066;opacity:1;paint-order:normal"/>
		<path id="q" d="m33.991 29.681c-2.5671 0-11.966 0.23387-13.688 1.6099-1.5405 1.2308-1.6213 4.1229-1.6213 9.6223 0 5.4993 0.080783 8.3914 1.6213 9.6223 1.7223 1.376 11.121 1.6099 13.688 1.6099s11.966-0.23387 13.688-1.6099c1.5406-1.2308 1.6213-4.1229 1.6213-9.6223 0-5.4993-0.080794-8.3914-1.6213-9.6223-1.7223-1.376-11.121-1.6099-13.688-1.6099" style="color:#000000;fill-opacity:.026516;fill:#ff0066;opacity:1;paint-order:normal"/>
		<path id="ah" d="m33.773 29.497c-2.5614 0-11.94 0.23335-13.658 1.6063-1.5371 1.2281-1.6177 4.1138-1.6177 9.601 0 5.4872 0.080604 8.3728 1.6177 9.601 1.7185 1.373 11.097 1.6063 13.658 1.6063 2.5614 0 11.94-0.23335 13.658-1.6063 1.5371-1.2281 1.6177-4.1138 1.6177-9.601 0-5.4872-0.080615-8.3728-1.6177-9.601-1.7185-1.373-11.097-1.6063-13.658-1.6063" style="color:#000000;fill-opacity:.027047;fill:#ff0066;opacity:1;paint-order:normal"/>
		<path id="m" d="m33.56 29.317c-2.5558 0-11.914 0.23285-13.628 1.6029-1.5338 1.2255-1.6142 4.1049-1.6142 9.5801 0 5.4753 0.08043 8.3547 1.6142 9.5801 1.7147 1.37 11.073 1.6029 13.628 1.6029s11.914-0.23285 13.628-1.6029c1.5338-1.2254 1.6142-4.1049 1.6142-9.5801 0-5.4753-0.08044-8.3547-1.6142-9.5801-1.7147-1.37-11.073-1.6029-13.628-1.6029" style="color:#000000;fill-opacity:.027567;fill:#ff0066;opacity:1;paint-order:normal"/>
		<path id="al" d="m33.351 29.141c-2.5504 0-11.888 0.23235-13.599 1.5994-1.5305 1.2228-1.6108 4.0961-1.6108 9.5598 0 5.4636 0.080259 8.3369 1.6108 9.5598 1.7111 1.3671 11.049 1.5994 13.599 1.5994 2.5504 0 11.888-0.23235 13.599-1.5994 1.5305-1.2228 1.6108-4.0961 1.6108-9.5598 0-5.4636-0.080269-8.3369-1.6108-9.5598-1.7111-1.3671-11.049-1.5994-13.599-1.5994" style="color:#000000;fill-opacity:.028076;fill:#ff0066;opacity:1;paint-order:normal"/>
		<path id="ad" d="m33.147 28.969c-2.5451 0-11.864 0.23187-13.571 1.5961-1.5273 1.2203-1.6074 4.0876-1.6074 9.5398 0 5.4522 0.080091 8.3195 1.6074 9.5398 1.7075 1.3642 11.026 1.5961 13.571 1.5961s11.864-0.23187 13.571-1.5961c1.5274-1.2203 1.6074-4.0876 1.6074-9.5398 0-5.4522-0.080102-8.3195-1.6074-9.5398-1.7075-1.3642-11.026-1.5961-13.571-1.5961" style="color:#000000;fill-opacity:.028574;fill:#ff0066;opacity:1;paint-order:normal"/>
		<path id="ab" d="m32.947 28.8c-2.5399 0-11.839 0.23139-13.543 1.5928-1.5242 1.2178-1.6041 4.0792-1.6041 9.5202 0 5.441 0.079927 8.3025 1.6041 9.5202 1.704 1.3614 11.003 1.5928 13.543 1.5928s11.839-0.23139 13.543-1.5928c1.5242-1.2178 1.6041-4.0792 1.6041-9.5202 0-5.441-0.079937-8.3025-1.6041-9.5202-1.704-1.3614-11.003-1.5928-13.543-1.5928" style="color:#000000;fill-opacity:.029062;fill:#ff0066;opacity:1;paint-order:normal"/>
		<path id="ca" d="m32.751 28.634c-2.5347 0-11.815 0.23093-13.516 1.5896-1.5211 1.2153-1.6009 4.071-1.6009 9.5011 0 5.4301 0.079766 8.2857 1.6009 9.5011 1.7006 1.3587 10.981 1.5896 13.516 1.5896 2.5347 0 11.815-0.23092 13.516-1.5896 1.5211-1.2153 1.6009-4.071 1.6009-9.5011 0-5.4301-0.079776-8.2857-1.6009-9.5011-1.7006-1.3587-10.981-1.5896-13.516-1.5896" style="color:#000000;fill-opacity:.029541;fill:#ff0066;opacity:1;paint-order:normal"/>
		<path id="y" d="m32.558 28.471c-2.5297 0-11.792 0.23047-13.489 1.5865-1.5181 1.2129-1.5977 4.0629-1.5977 9.4822 0 5.4193 0.079608 8.2693 1.5977 9.4822 1.6972 1.356 10.959 1.5865 13.489 1.5865s11.792-0.23047 13.489-1.5865c1.5181-1.2129 1.5977-4.0629 1.5977-9.4822 0-5.4193-0.079618-8.2693-1.5977-9.4822-1.6972-1.356-10.959-1.5865-13.489-1.5865" style="color:#000000;fill-opacity:.030011;fill:#ff0066;opacity:1;paint-order:normal"/>
		<path id="ag" d="m32.369 28.312c-2.5248 0-11.769 0.23002-13.463 1.5834-1.5152 1.2106-1.5946 4.055-1.5946 9.4637 0 5.4087 0.079453 8.2532 1.5946 9.4637 1.6939 1.3534 10.938 1.5834 13.463 1.5834 2.5248 0 11.769-0.23002 13.463-1.5834 1.5152-1.2106 1.5946-4.055 1.5946-9.4637 0-5.4087-0.079463-8.2532-1.5946-9.4637-1.6939-1.3534-10.938-1.5834-13.463-1.5834" style="color:#000000;fill-opacity:.030473;fill:#ff0066;opacity:1;paint-order:normal"/>
		<path id="w" d="m32.183 28.154c-2.5199 0-11.746 0.22958-13.437 1.5803-1.5122 1.2082-1.5916 4.0472-1.5916 9.4455 0 5.3983 0.0793 8.2373 1.5916 9.4455 1.6906 1.3508 10.917 1.5803 13.437 1.5803s11.746-0.22957 13.437-1.5803c1.5123-1.2082 1.5916-4.0472 1.5916-9.4455 0-5.3983-0.07931-8.2373-1.5916-9.4455-1.6906-1.3508-10.917-1.5803-13.437-1.5803" style="color:#000000;fill-opacity:.030927;fill:#ff0066;opacity:1;paint-order:normal"/>
		<path id="bq" d="m32 28c-2.5152 0-11.724 0.22914-13.411 1.5773-1.5094 1.2059-1.5885 4.0395-1.5885 9.4276 0 5.3881 0.07915 8.2217 1.5885 9.4276 1.6874 1.3482 10.896 1.5773 13.411 1.5773s11.724-0.22914 13.411-1.5773c1.5094-1.2059 1.5885-4.0395 1.5885-9.4276 0-5.3881-0.07916-8.2217-1.5885-9.4276-1.6874-1.3482-10.896-1.5773-13.411-1.5773" style="color:#000000;fill-opacity:.031373;fill:#ff0066;opacity:1;paint-order:normal"/>
	</g>
	<path id="u" d="m32 28c-2.5152 0-11.724 0.22914-13.411 1.5773-1.5094 1.2059-1.5885 4.0395-1.5885 9.4276 0 5.3881 0.07915 8.2217 1.5885 9.4276 1.6874 1.3482 10.896 1.5773 13.411 1.5773s11.724-0.22914 13.411-1.5773c1.5094-1.2059 1.5885-4.0395 1.5885-9.4276 0-5.3881-0.07916-8.2217-1.5885-9.4276-1.6874-1.3482-10.896-1.5773-13.411-1.5773z" style="color:#000000;fill:#d5ffff"/>
	<path id="bf" d="m29 35 8 4-8 4z" style="color:#000000;fill:#4b617d"/>
</svg>
