<?xml version="1.0" encoding="UTF-8"?>
<!-- Created with Inkscape (http://www.inkscape.org/) -->
<svg width="64" height="64" version="1.1" xmlns="http://www.w3.org/2000/svg" xmlns:cc="http://creativecommons.org/ns#" xmlns:dc="http://purl.org/dc/elements/1.1/" xmlns:rdf="http://www.w3.org/1999/02/22-rdf-syntax-ns#">
	<defs>
		<linearGradient id="d" x1="53" x2="53" y1="17" y2="15" gradientUnits="userSpaceOnUse">
			<stop stop-color="#dad8ce" offset="0"/>
			<stop stop-color="#ebebeb" offset="1"/>
		</linearGradient>
		<linearGradient id="f" x1="32.559" x2="33.542" y1="15.559" y2="14.542" gradientUnits="userSpaceOnUse">
			<stop stop-color="#37321c" stop-opacity=".15675" offset="0"/>
			<stop stop-color="#6d5524" stop-opacity="0" offset="1"/>
		</linearGradient>
		<radialGradient id="a" cx="33.466" cy="2.1992" r="30.5" gradientTransform="matrix(-1.0283 0 0 -.55738 67.779 1.2258)" gradientUnits="userSpaceOnUse">
			<stop stop-color="#668cbb" offset="0"/>
			<stop stop-color="#668cbb" offset="1"/>
		</radialGradient>
		<linearGradient id="g" x1="61" x2="60" y1="17" gradientTransform="translate(-.88255)" gradientUnits="userSpaceOnUse">
			<stop stop-color="#3e4d60" stop-opacity=".72157" offset="0"/>
			<stop stop-color="#393b49" stop-opacity=".2656" offset="1"/>
		</linearGradient>
		<linearGradient id="c" x1="62.381" x2="62.381" y1="63.314" y2="23.077" gradientUnits="userSpaceOnUse">
			<stop stop-color="#000828" stop-opacity=".35976" offset="0"/>
			<stop stop-color="#000828" stop-opacity=".12715" offset="1"/>
		</linearGradient>
		<radialGradient id="b" cx="30.107" cy="50.318" r="30.5" gradientTransform="matrix(2.7541,-1.4218e-7,8.3652e-8,2.7869,-52.917,-93.23)" gradientUnits="userSpaceOnUse">
			<stop stop-color="#9e1423" stop-opacity=".12917" offset="0"/>
			<stop stop-color="#f4405b" stop-opacity=".023222" offset=".54"/>
			<stop stop-color="#f43f6d" stop-opacity=".169" offset="1"/>
		</radialGradient>
		<linearGradient id="h" x1="-5" x2="-5" y1="64" y2="14" gradientTransform="translate(.88908)" gradientUnits="userSpaceOnUse">
			<stop stop-color="#f43f66" stop-opacity=".018868" offset="0"/>
			<stop stop-color="#f4ae3f" stop-opacity=".47025" offset="1"/>
		</linearGradient>
		<linearGradient id="e" x1="4.5255" x2="4.5255" y1="64" y2="61.09" gradientUnits="userSpaceOnUse">
			<stop stop-color="#e50d4c" stop-opacity=".47868" offset="0"/>
			<stop stop-color="#e50d4c" stop-opacity="0" offset="1"/>
		</linearGradient>
	</defs>
	<metadata>
		<rdf:RDF>
			<cc:Work rdf:about="">
				<dc:format>image/svg+xml</dc:format>
				<dc:type rdf:resource="http://purl.org/dc/dcmitype/StillImage"/>
				<dc:title/>
			</cc:Work>
		</rdf:RDF>
	</metadata>
	<g>
		<g>
			<path d="m38 0c-1 0-1.5103 0.51027-2 1l-3 3c-0.53814 0.53814-1 1-2 1h-28c-0.52243 0-1 0.43922-1 1l-0.76511 58h61.543c1 0 1.2218-1 1.2218-2v-61c0-0.51973-0.5-1-1-1z" style="color:#000000;fill:url(#a)"/>
			<path d="m38 0c-1 0-1.5103 0.51027-2 1l-3 3c-0.53814 0.53814-1 1-2 1h-28c-0.52243 0-1 0.43922-1 1l-0.76511 58h61.543c1 0 1.2218-1 1.2218-2v-61c0-0.51973-0.5-1-1-1z" style="color:#000000;fill:url(#g)"/>
			<path d="m38 0c-1 0-1.5103 0.51027-2 1l-3 3c-0.53814 0.53814-1 1-2 1h-28c-0.52243 0-1 0.43922-1 1l-0.76562 58h0.00586l0.75976-57.5c0-0.56078 0.47757-1 1-1h28c1 0 1.4619-0.46186 2-1l3-3c0.48973-0.48973 1-1 2-1h25c0.5 0 1 0.48027 1 1v-0.5c0-0.51973-0.5-1-1-1z" style="color:#000000;fill-opacity:.19073;fill:#b3ffff"/>
			<path d="m61 13v51h1.7773c0.09408 0 0.17509-0.01633 0.25586-0.0332l0.8125-0.8125c0.11225-0.34056 0.1543-0.74535 0.1543-1.1543v-46l-3-3z" style="fill:url(#c)"/>
			<path d="m63.5 0.15532v61.845c0 0.52439-0.13604 1.5011-0.72184 1.5v0.5c1 0 1.2218-1 1.2218-2v-61c0-0.39808-0.24002-0.69459-0.5-0.84468z" style="fill-opacity:.14136;fill:#0f1f33;paint-order:normal"/>
		</g>
		<g>
			<path d="m7 13h54v31h-54z" style="fill:url(#d)"/>
			<path d="m30 13 4 4h2l-4-4z" style="color:#000000;fill:url(#f)"/>
		</g>
		<path d="m62.778 63.5c-0.58579-0.0011-0.77816-0.9402-0.77816-1.5v-44c0-0.57647-0.4549-1-1-1h-26c-1 0-1.3759-0.3759-2-1l-3-3c-0.46442-0.46442-1-1-2-1h-27c-0.52342 0-1 0.4716-1 1 0.0044097 9.6802 0.0035924 21.791 0.002195 32.011-9.6046e-4 7.024-0.002195 13.155-0.002195 16.989 0 1 0.23489 2 1.2349 2h61.543z" style="color:#000000;fill:#f4ae3f"/>
		<path d="m62.778 63.5c-0.58579-0.0011-0.77816-0.9402-0.77816-1.5v-44c0-0.57647-0.4549-1-1-1h-26c-1 0-1.3759-0.3759-2-1l-3-3c-0.46442-0.46442-1-1-2-1h-27c-0.52342 0-1 0.4716-1 1 0.0044097 9.6802 0.0035924 21.791 0.002195 32.011-9.6046e-4 7.024-0.002195 13.155-0.002195 16.989 0 1 0.23489 2 1.2349 2h61.543z" style="color:#000000;fill:#f4ae3f"/>
		<path d="m62.778 63.5c-0.58579-0.0011-0.77816-0.9402-0.77816-1.5v-44c0-0.57647-0.4549-1-1-1h-26c-1 0-1.3759-0.3759-2-1l-3-3c-0.46442-0.46442-1-1-2-1h-27c-0.52342 0-1 0.4716-1 1 0.0044097 9.6802 0.0035924 21.791 0.002195 32.011-9.6046e-4 7.024-0.002195 13.155-0.002195 16.989 0 1 0.23489 2 1.2349 2h61.543z" style="color:#000000;fill:url(#b)"/>
		<path d="m62.778 63.5c-0.58579-0.0011-0.77816-0.9402-0.77816-1.5v-44c0-0.57647-0.4549-1-1-1h-26c-1 0-1.3759-0.3759-2-1l-3-3c-0.46442-0.46442-1-1-2-1h-27c-0.52342 0-1 0.4716-1 1 0.0044097 9.6802 0.0035924 21.791 0.002195 32.011-9.6046e-4 7.024-0.002195 13.155-0.002195 16.989 0 1 0.23489 2 1.2349 2h61.543z" style="color:#000000;fill:url(#h)"/>
		<path d="m62.778 63.5c-0.58579-0.0011-0.77816-0.9402-0.77816-1.5v-44c0-0.57647-0.4549-1-1-1h-26c-1 0-1.3759-0.3759-2-1l-3-3c-0.46442-0.46442-1-1-2-1h-27c-0.52342 0-1 0.4716-1 1 0.0044097 9.6802 0.0035924 21.791 0.002195 32.011-9.6046e-4 7.024-0.002195 13.155-0.002195 16.989 0 1 0.23489 2 1.2349 2h61.543z" style="color:#000000;fill:url(#e);opacity:.318"/>
		<path d="m27.5 12c1 0 1.5356 0.53558 2 1l3 3c0.6241 0.6241 1 1 2 1h0.5c-1 0-1.3759-0.3759-2-1l-3-3c-0.46442-0.46442-1-1-2-1zm33 5c0.5451 0 1 0.42353 1 1v44c0 0.90201 0.20957 1.9442 1.2782 2h-8.19e-4v-0.5c-0.58579-0.0011-0.77734-0.9402-0.77734-1.5v-44c0-0.57647-0.4549-1-1-1z" style="color:#000000;fill-opacity:.23186;fill:#ff024d;paint-order:normal"/>
		<path d="m27.75 12c1 0 1.5356 0.53558 2 1l3 3c0.6241 0.6241 1 1 2 1h0.25c-1 0-1.3759-0.3759-2-1l-3-3c-0.46442-0.46442-1-1-2-1zm33 5c0.5451 0 1 0.42353 1 1v44c0 0.5598 0.19155 1.4989 0.77734 1.5v0.45508c0.08 0.01886 0.15756 0.0401 0.25 0.04492v-0.5c-0.58579-0.0011-0.77734-0.9402-0.77734-1.5v-44c0-0.57647-0.4549-1-1-1z" style="color:#000000;fill-opacity:.19147;fill:#ff024d;paint-order:normal"/>
		<path d="m1 12c-0.52342 0-1 0.4716-1 1 6.888e-5 0.15121-6.6347e-5 0.34762 0 0.5 0-0.5284 0.47658-1 1-1h27c1 0 1.5356 0.53558 2 1l3 3c0.6241 0.6241 1 1 2 1h26c0.5451 0 1 0.42353 1 1v-0.5c0-0.57647-0.4549-1-1-1h-26c-1 0-1.3759-0.3759-2-1l-3-3c-0.46442-0.46442-1-1-2-1z" style="color:#000000;fill-opacity:.31189;fill:#f8ff34"/>
		<path d="m1 12c-0.52342 0-1 0.4716-1 1 3.444e-5 0.0756-3.3805e-5 0.1741 0 0.25 0-0.5284 0.47658-1 1-1h27c1 0 1.5356 0.53558 2 1l3 3c0.6241 0.6241 1 1 2 1h26c0.5451 0 1 0.42353 1 1v-0.25c0-0.57647-0.4549-1-1-1h-26c-1 0-1.3759-0.3759-2-1l-3-3c-0.46442-0.46442-1-1-2-1z" style="color:#000000;fill-opacity:.31189;fill:#f8ff34"/>
	</g>
	<g style="opacity:.4">
		<path d="m24.139 31v1.2222 23.222 1.2222h1.2222 2.4444v-2.4444h-1.2222v-20.778h20.778v9.49e-4 20.777h-7.25e-4 -15.888-8.86e-4 -1.2213v8.86e-4 1.2213 6.68e-4 3.666 8.86e-4 1.2213h8.86e-4 1.2213 9.49e-4 20.777 8.86e-4 1.2213v-8.86e-4 -1.2213-6.14e-4 -13.444h8.86e-4 1.2213v7.25e-4 15.888h-8.37e-4 -18.332v4.45e-4 2.444h8.93e-4 19.555 8.86e-4 1.2213v-8.86e-4 -1.2213-8.37e-4 -18.332-8.86e-4 -1.2213h-8.86e-4 -1.2213-6.68e-4 -3.666-8.86e-4 -1.2213v8.86e-4 1.2213 6.14e-4 13.444h-8.37e-4 -18.332v-8.86e-4 -1.2213h7.25e-4 15.888 8.86e-4 1.2213v-8.86e-4 -1.2213-23.222-8.86e-4 -1.2213h-1.2222-2.65e-4 -23.222-1.2222" style="color:#000000;fill-opacity:.0039216;fill:#ff0066;opacity:1;paint-order:normal;text-decoration-line:none;text-indent:0;text-transform:none"/>
		<path d="m23.061 29.922v1.1823 1.56e-4 22.464 1.3e-4 1.1822h1.3e-4 1.1822 6.5e-5 2.3646v-6.5e-5 -2.3646h-1.3e-4 -1.1822v-1.39e-4 -20.099h1.39e-4 20.099v7.78e-4 20.098h-5.95e-4 -15.369-7.27e-4 -1.1816v7.27e-4 1.1816 5.48e-4 3.5464 7.26e-4 1.1816h7.27e-4 1.1816 7.78e-4 20.098 7.26e-4 1.1816v-7.26e-4 -1.1816-5.04e-4 -13.005h7.27e-4 1.1816v5.95e-4 15.369h-6.87e-4 -17.734v3.66e-4 2.3643h7.33e-4 18.916 7.27e-4 1.1816v-7.27e-4 -1.1816-6.87e-4 -17.734-7.27e-4 -1.1816h-7.27e-4 -1.1816-5.48e-4 -3.5464-7.27e-4 -1.1816v7.26e-4 1.1816 5.04e-4 13.005h-6.87e-4 -17.734v-7.27e-4 -1.1816h5.95e-4 15.369 7.27e-4 1.1816v-7.27e-4 -1.1816-1.56e-4 -22.464-7.27e-4 -1.1816h-1.3e-4 -1.1822-2.17e-4 -22.464-1.3e-4 -1.1822" style="color:#000000;fill-opacity:.0088519;fill:#ff0066;opacity:1;paint-order:normal;text-decoration-line:none;text-indent:0;text-transform:none"/>
		<path d="m22.615 29.476v1.1658 2.2e-4 22.15 1.84e-4 1.1656h1.85e-4 1.1656 9.3e-5 2.3315v-9.2e-5 -2.3315h-1.84e-4 -1.1656v-1.97e-4 -19.818h1.97e-4 19.818v7.07e-4 19.818h-5.41e-4 -15.155-6.61e-4 -1.1651v6.61e-4 1.1651 4.98e-4 3.4968 6.61e-4 1.1651h6.61e-4 1.1651 7.07e-4 19.818 6.61e-4 1.1651v-6.61e-4 -1.1651-4.58e-4 -12.823h6.61e-4 1.1651v5.41e-4 15.155h-6.24e-4 -17.486v3.33e-4 2.3312h6.66e-4 18.652 6.6e-4 1.1651v-6.61e-4 -1.1651-6.25e-4 -17.486-6.61e-4 -1.1651h-6.61e-4 -1.1651-4.99e-4 -3.4968-6.61e-4 -1.1651v6.61e-4 1.1651 4.58e-4 12.823h-6.25e-4 -17.486v-6.61e-4 -1.1651h5.41e-4 15.155 6.6e-4 1.1651v-6.61e-4 -1.1651-2.21e-4 -22.15-6.61e-4 -1.1651h-1.84e-4 -1.1656-1.98e-4 -22.15-1.84e-4 -1.1656" style="color:#000000;fill-opacity:.010894;fill:#ff0066;opacity:1;paint-order:normal;text-decoration-line:none;text-indent:0;text-transform:none"/>
		<path d="m22.272 29.133v1.1531 2.7e-4 21.908 2.26e-4 1.1529h2.25e-4 1.1529 1.13e-4 2.3061v-1.14e-4 -2.3061h-2.26e-4 -1.1529v-2.41e-4 -19.602h2.41e-4 19.602v6.53e-4 19.602h-5e-4 -14.99-6.1e-4 -1.1525v6.1e-4 1.1525 4.6e-4 3.4588 6.1e-4 1.1525h6.11e-4 1.1525 6.54e-4 19.602 6.1e-4 1.1525v-6.11e-4 -1.1525-4.23e-4 -12.684h6.1e-4 1.1525v5e-4 14.99h-5.76e-4 -17.296v3.06e-4 2.3059h6.15e-4 18.449 6.11e-4 1.1525v-6.1e-4 -1.1525-5.76e-4 -17.296-6.1e-4 -1.1525h-6.1e-4 -1.1525-4.6e-4 -3.4588-6.11e-4 -1.1525v6.1e-4 1.1525 4.23e-4 12.684h-5.77e-4 -17.296v-6.11e-4 -1.1525h5e-4 14.99 6.1e-4 1.1525v-6.1e-4 -1.1525-2.7e-4 -21.908-6.1e-4 -1.1525h-2.26e-4 -1.1529-1.83e-4 -21.909-2.26e-4 -1.1529" style="color:#000000;fill-opacity:.012461;fill:#ff0066;opacity:1;paint-order:normal;text-decoration-line:none;text-indent:0;text-transform:none"/>
		<path d="m21.984 28.845v1.1424 3.11e-4 21.705 2.61e-4 1.1421h2.61e-4 1.1421 1.31e-4 2.2847v-1.3e-4 -2.2847h-2.6e-4 -1.1421v-2.79e-4 -19.42h2.79e-4 19.42v6.08e-4 19.42h-4.65e-4 -14.851-5.68e-4 -1.1418v5.67e-4 1.1418 4.28e-4 3.4268 5.68e-4 1.1418h5.67e-4 1.1418 6.08e-4 19.42 5.68e-4 1.1418v-5.68e-4 -1.1418-3.93e-4 -12.566h5.68e-4 1.1418v4.65e-4 14.851h-5.36e-4 -17.135v2.86e-4 2.2845h5.72e-4 18.278 5.67e-4 1.1418v-5.68e-4 -1.1418-5.37e-4 -17.135-5.67e-4 -1.1418h-5.68e-4 -1.1418-4.28e-4 -3.4268-5.67e-4 -1.1418v5.68e-4 1.1418 3.94e-4 12.566h-5.36e-4 -17.135v-5.68e-4 -1.1418h4.64e-4 14.851 5.68e-4 1.1418v-5.67e-4 -1.1418-3.11e-4 -21.705-5.68e-4 -1.1418h-2.6e-4 -1.1421-1.7e-4 -21.705-2.6e-4 -1.1421" style="color:#000000;fill-opacity:.013782;fill:#ff0066;opacity:1;paint-order:normal;text-decoration-line:none;text-indent:0;text-transform:none"/>
		<path d="m21.729 28.59v1.133 3.48e-4 21.526 2.91e-4 1.1327h2.91e-4 1.1327 1.46e-4 2.2658v-1.46e-4 -2.2658h-2.92e-4 -1.1327v-3.11e-4 -19.26h3.12e-4 19.26v5.68e-4 19.26h-4.34e-4 -14.728-5.3e-4 -1.1324v5.3e-4 1.1324 3.99e-4 3.3985 5.3e-4 1.1324h5.3e-4 1.1324 5.67e-4 19.26 5.3e-4 1.1324v-5.3e-4 -1.1324-3.67e-4 -12.462h5.3e-4 1.1324v4.34e-4 14.728h-5e-4 -16.994v2.66e-4 2.2657h5.34e-4 18.127 5.3e-4 1.1324v-5.3e-4 -1.1324-5.01e-4 -16.994-5.3e-4 -1.1324h-5.3e-4 -1.1324-4e-4 -3.3985-5.3e-4 -1.1324v5.3e-4 1.1324 3.67e-4 12.462h-5.01e-4 -16.994v-5.3e-4 -1.1324h4.34e-4 14.728 5.3e-4 1.1324v-5.3e-4 -1.1324-3.49e-4 -21.526-5.31e-4 -1.1324h-2.91e-4 -1.1327-1.58e-4 -21.526-2.92e-4 -1.1327" style="color:#000000;fill-opacity:.014946;fill:#ff0066;opacity:1;paint-order:normal;text-decoration-line:none;text-indent:0;text-transform:none"/>
		<path d="m21.499 28.36v1.1245 3.82e-4 21.364 3.19e-4 1.1241h3.19e-4 1.1241 1.61e-4 2.2488v-1.61e-4 -2.2488h-3.19e-4 -1.1241v-3.41e-4 -19.115h3.41e-4 19.115v5.31e-4 19.115h-4.06e-4 -14.618-4.97e-4 -1.124v4.96e-4 1.124 3.74e-4 3.373 4.96e-4 1.124h4.96e-4 1.124 5.31e-4 19.115 4.96e-4 1.124v-4.96e-4 -1.124-3.43e-4 -12.369h4.96e-4 1.124v4.07e-4 14.618h-4.69e-4 -16.866v2.49e-4 2.2487h5e-4 17.991 4.96e-4 1.124v-4.96e-4 -1.124-4.69e-4 -16.866-4.96e-4 -1.124h-4.96e-4 -1.124-3.74e-4 -3.373-4.96e-4 -1.124v4.96e-4 1.124 3.44e-4 12.369h-4.69e-4 -16.866v-4.96e-4 -1.124h4.06e-4 14.618 4.96e-4 1.124v-4.97e-4 -1.124-3.82e-4 -21.364-4.96e-4 -1.124h-3.19e-4 -1.1241-1.48e-4 -21.365-3.19e-4 -1.1241" style="color:#000000;fill-opacity:.015998;fill:#ff0066;opacity:1;paint-order:normal;text-decoration-line:none;text-indent:0;text-transform:none"/>
		<path d="m21.288 28.149v1.1166 4.13e-4 21.215 3.44e-4 1.1163h3.45e-4 1.1163 1.73e-4 2.2331v-1.73e-4 -2.2331h-3.45e-4 -1.1163v-3.69e-4 -18.982h3.69e-4 18.982v4.98e-4 18.982h-3.81e-4 -14.516-4.64e-4 -1.1162v4.65e-4 1.1162 3.51e-4 3.3495 4.65e-4 1.1162h4.65e-4 1.1162 4.98e-4 18.982 4.65e-4 1.1162v-4.65e-4 -1.1162-3.22e-4 -12.283h4.65e-4 1.1162v3.8e-4 14.516h-4.4e-4 -16.749v2.34e-4 2.233h4.69e-4 17.866 4.65e-4 1.1162v-4.65e-4 -1.1162-4.39e-4 -16.749-4.65e-4 -1.1162h-4.65e-4 -1.1162-3.51e-4 -3.3495-4.65e-4 -1.1162v4.65e-4 1.1162 3.22e-4 12.283h-4.39e-4 -16.749v-4.65e-4 -1.1162h3.8e-4 14.516 4.65e-4 1.1162v-4.65e-4 -1.1162-4.12e-4 -21.215-4.65e-4 -1.1162h-3.45e-4 -1.1163-1.4e-4 -21.216-3.44e-4 -1.1163" style="color:#000000;fill-opacity:.016966;fill:#ff0066;opacity:1;paint-order:normal;text-decoration-line:none;text-indent:0;text-transform:none"/>
		<path d="m21.091 27.952v1.1093 4.41e-4 21.077 3.68e-4 1.109h3.68e-4 1.109 1.85e-4 2.2185v-1.85e-4 -2.2185h-3.68e-4 -1.109v-3.95e-4 -18.858h3.94e-4 18.858v4.67e-4 18.858h-3.57e-4 -14.421-4.36e-4 -1.1089v4.35e-4 1.1089 3.28e-4 3.3277 4.36e-4 1.1089h4.36e-4 1.1089 4.67e-4 18.858 4.36e-4 1.1089v-4.36e-4 -1.1089-3.02e-4 -12.202h4.35e-4 1.1089v3.57e-4 14.421h-4.12e-4 -16.64v2.19e-4 2.2184h4.39e-4 17.749 4.36e-4 1.1089v-4.35e-4 -1.1089-4.12e-4 -16.64-4.36e-4 -1.1089h-4.35e-4 -1.1089-3.28e-4 -3.3277-4.35e-4 -1.1089v4.35e-4 1.1089 3.02e-4 12.202h-4.11e-4 -16.64v-4.35e-4 -1.1089h3.57e-4 14.421 4.36e-4 1.1089v-4.36e-4 -1.1089-4.41e-4 -21.077-4.36e-4 -1.1089h-3.68e-4 -1.109-1.3e-4 -21.077-3.68e-4 -1.109" style="color:#000000;fill-opacity:.017867;fill:#ff0066;opacity:1;paint-order:normal;text-decoration-line:none;text-indent:0;text-transform:none"/>
		<path d="m20.906 27.767v1.1025 4.67e-4 20.947 3.91e-4 1.1021h3.9e-4 1.1021 1.96e-4 2.2048v-1.97e-4 -2.2048h-3.9e-4 -1.1021v-4.18e-4 -18.742h4.18e-4 18.742v4.38e-4 18.742h-3.35e-4 -14.332-4.09e-4 -1.1021v4.08e-4 1.1021 3.08e-4 3.3071 4.09e-4 1.1021h4.09e-4 1.1021 4.37e-4 18.742 4.09e-4 1.1021v-4.08e-4 -1.1021-2.83e-4 -12.127h4.09e-4 1.1021v3.34e-4 14.332h-3.86e-4 -16.537v2.05e-4 2.2048h4.12e-4 17.639 4.09e-4 1.1021v-4.09e-4 -1.1021-3.86e-4 -16.537-4.08e-4 -1.1021h-4.09e-4 -1.1021-3.08e-4 -3.3071-4.08e-4 -1.1021v4.08e-4 1.1021 2.83e-4 12.127h-3.86e-4 -16.537v-4.09e-4 -1.1021h3.34e-4 14.332 4.09e-4 1.1021v-4.09e-4 -1.1021-4.67e-4 -20.947-4.09e-4 -1.1021h-3.91e-4 -1.1021-1.22e-4 -20.947-3.91e-4 -1.1021" style="color:#000000;fill-opacity:.018713;fill:#ff0066;opacity:1;paint-order:normal;text-decoration-line:none;text-indent:0;text-transform:none"/>
		<path d="m20.731 27.592v1.096 4.93e-4 20.824 4.12e-4 1.0956h4.12e-4 1.0956 2.07e-4 2.1918v-2.07e-4 -2.1918h-4.12e-4 -1.0956v-4.41e-4 -18.632h4.41e-4 18.632v4.1e-4 18.632h-3.14e-4 -14.248-3.83e-4 -1.0956v3.82e-4 1.0956 2.89e-4 3.2877 3.82e-4 1.0956h3.83e-4 1.0956 4.1e-4 18.632 3.82e-4 1.0956v-3.83e-4 -1.0956-2.66e-4 -12.056h3.83e-4 1.0956v3.14e-4 14.248h-3.62e-4 -16.44v1.93e-4 2.1918h3.85e-4 17.536 3.83e-4 1.0956v-3.83e-4 -1.0956-3.61e-4 -16.44-3.83e-4 -1.0956h-3.83e-4 -1.0956-2.88e-4 -3.2877-3.83e-4 -1.0956v3.83e-4 1.0956 2.65e-4 12.056h-3.61e-4 -16.44v-3.83e-4 -1.0956h3.14e-4 14.248 3.83e-4 1.0956v-3.83e-4 -1.0956-4.93e-4 -20.824-3.82e-4 -1.0956h-4.12e-4 -1.0956-1.14e-4 -20.824-4.11e-4 -1.0956" style="color:#000000;fill-opacity:.019513;fill:#ff0066;opacity:1;paint-order:normal;text-decoration-line:none;text-indent:0;text-transform:none"/>
		<path d="m20.565 27.426v1.0898 5.16e-4 20.707 4.31e-4 1.0894h4.31e-4 1.0894 2.17e-4 2.1795v-2.17e-4 -2.1795h-4.32e-4 -1.0894v-4.63e-4 -18.527h4.62e-4 18.527v3.83e-4 18.527h-2.94e-4 -14.168-3.58e-4 -1.0895v3.58e-4 1.0895 2.7e-4 3.2693 3.58e-4 1.0895h3.58e-4 1.0895 3.84e-4 18.527 3.58e-4 1.0895v-3.58e-4 -1.0895-2.48e-4 -11.988h3.58e-4 1.0895v2.93e-4 14.168h-3.39e-4 -16.347v1.8e-4 2.1795h3.61e-4 17.437 3.58e-4 1.0895v-3.58e-4 -1.0895-3.39e-4 -16.347-3.58e-4 -1.0895h-3.58e-4 -1.0895-2.7e-4 -3.2693-3.58e-4 -1.0895v3.59e-4 1.0895 2.48e-4 11.988h-3.38e-4 -16.347v-3.58e-4 -1.0895h2.94e-4 14.168 3.58e-4 1.0895v-3.58e-4 -1.0895-5.17e-4 -20.707-3.59e-4 -1.0895h-4.32e-4 -1.0894-1.07e-4 -20.707-4.32e-4 -1.0894" style="color:#000000;fill-opacity:.020274;fill:#ff0066;opacity:1;paint-order:normal;text-decoration-line:none;text-indent:0;text-transform:none"/>
		<path d="m20.406 27.267v1.084 5.4e-4 20.595 4.51e-4 1.0835h4.51e-4 1.0835 2.26e-4 2.1677v-2.27e-4 -2.1677h-4.51e-4 -1.0835v-4.83e-4 -18.427h4.83e-4 18.427v3.58e-4 18.427h-2.74e-4 -14.091-3.35e-4 -1.0836v3.35e-4 1.0836 2.53e-4 3.2516 3.35e-4 1.0836h3.35e-4 1.0836 3.58e-4 18.427 3.35e-4 1.0836v-3.34e-4 -1.0836-2.32e-4 -11.923h3.35e-4 1.0836v2.74e-4 14.091h-3.17e-4 -16.259v1.68e-4 2.1678h3.37e-4 17.343 3.34e-4 1.0836v-3.34e-4 -1.0836-3.17e-4 -16.259-3.35e-4 -1.0836h-3.34e-4 -1.0836-2.53e-4 -3.2516-3.34e-4 -1.0836v3.35e-4 1.0836 2.32e-4 11.923h-3.16e-4 -16.259v-3.34e-4 -1.0836h2.74e-4 14.091 3.34e-4 1.0836v-3.35e-4 -1.0836-5.39e-4 -20.595-3.35e-4 -1.0836h-4.51e-4 -1.0835-1.01e-4 -20.595-4.51e-4 -1.0835" style="color:#000000;fill-opacity:.021001;fill:#ff0066;opacity:1;paint-order:normal;text-decoration-line:none;text-indent:0;text-transform:none"/>
		<path d="m20.253 27.115v1.0783 5.61e-4 20.487 4.69e-4 1.0778h4.7e-4 1.0778 2.35e-4 2.1564v-2.36e-4 -2.1564h-4.69e-4 -1.0778v-5.03e-4 -18.331h5.03e-4 18.331v3.34e-4 18.331h-2.56e-4 -14.018-3.13e-4 -1.078v3.12e-4 1.078 2.35e-4 3.2347 3.13e-4 1.078h3.12e-4 1.078 3.34e-4 18.331 3.13e-4 1.078v-3.12e-4 -1.078-2.16e-4 -11.861h3.12e-4 1.078v2.56e-4 14.018h-2.95e-4 -16.174v1.57e-4 2.1565h3.15e-4 17.253 3.12e-4 1.078v-3.12e-4 -1.078-2.95e-4 -16.174-3.13e-4 -1.078h-3.12e-4 -1.078-2.36e-4 -3.2347-3.12e-4 -1.078v3.12e-4 1.078 2.16e-4 11.861h-2.95e-4 -16.174v-3.12e-4 -1.078h2.56e-4 14.018 3.13e-4 1.078v-3.12e-4 -1.078-5.62e-4 -20.487-3.13e-4 -1.078h-4.7e-4 -1.0778-9.3e-5 -20.488-4.7e-4 -1.0778" style="color:#000000;fill-opacity:.021698;fill:#ff0066;opacity:1;paint-order:normal;text-decoration-line:none;text-indent:0;text-transform:none"/>
		<path d="m20.107 26.968v1.0729 5.83e-4 20.384 4.87e-4 1.0724h4.87e-4 1.0724 2.45e-4 2.1455v-2.45e-4 -2.1455h-4.87e-4 -1.0724v-5.22e-4 -18.239h5.22e-4 18.239v3.11e-4 18.239h-2.38e-4 -13.947-2.91e-4 -1.0726v2.9e-4 1.0726 2.19e-4 3.2184 2.91e-4 1.0726h2.91e-4 1.0726 3.11e-4 18.239 2.91e-4 1.0726v-2.9e-4 -1.0726-2.01e-4 -11.802h2.91e-4 1.0726v2.38e-4 13.947h-2.75e-4 -16.093v1.46e-4 2.1456h2.93e-4 17.166 2.9e-4 1.0726v-2.91e-4 -1.0726-2.75e-4 -16.093-2.91e-4 -1.0726h-2.91e-4 -1.0726-2.19e-4 -3.2184-2.9e-4 -1.0726v2.9e-4 1.0726 2.01e-4 11.802h-2.74e-4 -16.093v-2.9e-4 -1.0726h2.37e-4 13.947 2.91e-4 1.0726v-2.9e-4 -1.0726-5.83e-4 -20.384-2.91e-4 -1.0726h-4.87e-4 -1.0724-8.7e-5 -20.385-4.87e-4 -1.0724" style="color:#000000;fill-opacity:.022369;fill:#ff0066;opacity:1;paint-order:normal;text-decoration-line:none;text-indent:0;text-transform:none"/>
		<path d="m19.965 26.826v1.0676 6.04e-4 20.285 5.04e-4 1.0671h5.04e-4 1.0671 2.54e-4 2.135v-2.53e-4 -2.135h-5.05e-4 -1.0671v-5.4e-4 -18.149h5.4e-4 18.149v2.89e-4 18.15h-2.21e-4 -13.879-2.69e-4 -1.0674v2.69e-4 1.0674 2.04e-4 3.2027 2.7e-4 1.0674h2.7e-4 1.0674 2.89e-4 18.15 2.7e-4 1.0674v-2.7e-4 -1.0674-1.87e-4 -11.744h2.69e-4 1.0674v2.21e-4 13.879h-2.55e-4 -16.014v1.36e-4 2.1352h2.72e-4 17.082 2.7e-4 1.0674v-2.7e-4 -1.0674-2.55e-4 -16.014-2.69e-4 -1.0674h-2.7e-4 -1.0674-2.03e-4 -3.2027-2.69e-4 -1.0674v2.7e-4 1.0674 1.87e-4 11.744h-2.55e-4 -16.014v-2.7e-4 -1.0674h2.21e-4 13.879 2.69e-4 1.0674v-2.7e-4 -1.0674-6.03e-4 -20.285-2.69e-4 -1.0674h-5.04e-4 -1.0671-8.1e-5 -20.285-5.04e-4 -1.0671" style="color:#000000;fill-opacity:.023017;fill:#ff0066;opacity:1;paint-order:normal;text-decoration-line:none;text-indent:0;text-transform:none"/>
		<path d="m19.828 26.689v1.0626 6.23e-4 20.188 5.2e-4 1.0621h5.2e-4 1.0621 2.61e-4 2.1249v-2.62e-4 -2.1249h-5.21e-4 -1.0621v-5.58e-4 -18.063h5.57e-4 18.063v2.67e-4 18.063h-2.05e-4 -13.813-2.49e-4 -1.0623v2.49e-4 1.0623 1.88e-4 3.1875 2.49e-4 1.0623h2.49e-4 1.0623 2.67e-4 18.063 2.49e-4 1.0623v-2.5e-4 -1.0623-1.73e-4 -11.688h2.49e-4 1.0623v2.05e-4 13.813h-2.35e-4 -15.938v1.25e-4 2.125h2.52e-4 17.001 2.5e-4 1.0623v-2.49e-4 -1.0623-2.35e-4 -15.938-2.49e-4 -1.0623h-2.49e-4 -1.0623-1.88e-4 -3.1875-2.5e-4 -1.0623v2.49e-4 1.0623 1.73e-4 11.688h-2.36e-4 -15.938v-2.5e-4 -1.0623h2.04e-4 13.813 2.49e-4 1.0623v-2.5e-4 -1.0623-6.24e-4 -20.188-2.5e-4 -1.0623h-5.21e-4 -1.0621-7.5e-5 -20.189-5.21e-4 -1.0621" style="color:#000000;fill-opacity:.023643;fill:#ff0066;opacity:1;paint-order:normal;text-decoration-line:none;text-indent:0;text-transform:none"/>
		<path d="m19.696 26.557v1.0577 6.42e-4 20.095 5.36e-4 1.0571h5.37e-4 1.0571 2.7e-4 2.115v-2.69e-4 -2.115h-5.37e-4 -1.0571v-5.75e-4 -17.98h5.75e-4 17.98v2.47e-4 17.98h-1.88e-4 -13.749-2.3e-4 -1.0574v2.3e-4 1.0574 1.73e-4 3.1728 2.29e-4 1.0574h2.3e-4 1.0574 2.46e-4 17.98 2.29e-4 1.0574v-2.3e-4 -1.0574-1.6e-4 -11.634h2.3e-4 1.0574v1.88e-4 13.749h-2.17e-4 -15.865v1.15e-4 2.1152h2.31e-4 16.922 2.29e-4 1.0574v-2.3e-4 -1.0574-2.18e-4 -15.865-2.3e-4 -1.0574h-2.3e-4 -1.0574-1.74e-4 -3.1728-2.3e-4 -1.0574v2.3e-4 1.0574 1.59e-4 11.634h-2.17e-4 -15.865v-2.3e-4 -1.0574h1.88e-4 13.749 2.3e-4 1.0574v-2.29e-4 -1.0574-6.43e-4 -20.095-2.3e-4 -1.0574h-5.36e-4 -1.0571-6.9e-5 -20.095-5.37e-4 -1.0571" style="color:#000000;fill-opacity:.02425;fill:#ff0066;opacity:1;paint-order:normal;text-decoration-line:none;text-indent:0;text-transform:none"/>
		<path d="m19.567 26.428v1.0529 6.61e-4 20.004 5.53e-4 1.0523h5.53e-4 1.0523 2.78e-4 2.1055v-2.77e-4 -2.1055h-5.52e-4 -1.0523v-5.92e-4 -17.899h5.91e-4 17.899v2.26e-4 17.899h-1.73e-4 -13.687-2.11e-4 -1.0527v2.11e-4 1.0527 1.59e-4 3.1585 2.11e-4 1.0527h2.11e-4 1.0527 2.25e-4 17.899 2.11e-4 1.0527v-2.1e-4 -1.0527-1.46e-4 -11.582h2.11e-4 1.0527v1.73e-4 13.687h-1.99e-4 -15.793v1.06e-4 2.1057h2.12e-4 16.846 2.11e-4 1.0527v-2.11e-4 -1.0527-1.99e-4 -15.793-2.11e-4 -1.0527h-2.11e-4 -1.0527-1.59e-4 -3.1585-2.11e-4 -1.0527v2.11e-4 1.0527 1.46e-4 11.582h-1.99e-4 -15.793v-2.11e-4 -1.0527h1.73e-4 13.687 2.11e-4 1.0527v-2.1e-4 -1.0527-6.61e-4 -20.004-2.11e-4 -1.0527h-5.52e-4 -1.0523-6.3e-5 -20.005-5.52e-4 -1.0523" style="color:#000000;fill-opacity:.024839;fill:#ff0066;opacity:1;paint-order:normal;text-decoration-line:none;text-indent:0;text-transform:none"/>
		<path d="m19.442 26.303v1.0482 6.8e-4 19.916 5.68e-4 1.0477h5.67e-4 1.0477 2.86e-4 2.0962v-2.85e-4 -2.0962h-5.67e-4 -1.0477v-6.08e-4 -17.82h6.08e-4 17.82v2.06e-4 17.82h-1.58e-4 -13.627-1.92e-4 -1.0481v1.92e-4 1.0481 1.45e-4 3.1446 1.92e-4 1.0481h1.92e-4 1.0481 2.06e-4 17.82 1.92e-4 1.0481v-1.93e-4 -1.0481-1.33e-4 -11.531h1.92e-4 1.0481v1.57e-4 13.627h-1.81e-4 -15.724v9.7e-5 2.0964h1.94e-4 16.772 1.92e-4 1.0481v-1.92e-4 -1.0481-1.82e-4 -15.724-1.92e-4 -1.0481h-1.92e-4 -1.0481-1.45e-4 -3.1446-1.92e-4 -1.0481v1.93e-4 1.0481 1.33e-4 11.531h-1.82e-4 -15.724v-1.93e-4 -1.0481h1.57e-4 13.627 1.93e-4 1.0481v-1.92e-4 -1.0481-6.79e-4 -19.916-1.92e-4 -1.0481h-5.67e-4 -1.0477-5.7e-5 -19.917-5.67e-4 -1.0477" style="color:#000000;fill-opacity:.025412;fill:#ff0066;opacity:1;paint-order:normal;text-decoration-line:none;text-indent:0;text-transform:none"/>
		<path d="m19.32 26.181v1.0437 6.97e-4 19.83 5.82e-4 1.0431h5.82e-4 1.0431 2.93e-4 2.0872v-2.93e-4 -2.0872h-5.82e-4 -1.0431v-6.24e-4 -17.743h6.23e-4 17.743v1.87e-4 17.743h-1.43e-4 -13.568-1.74e-4 -1.0436v1.74e-4 1.0436 1.31e-4 3.1311 1.74e-4 1.0436h1.75e-4 1.0436 1.87e-4 17.743 1.74e-4 1.0436v-1.75e-4 -1.0436-1.21e-4 -11.481h1.74e-4 1.0436v1.43e-4 13.568h-1.65e-4 -15.656v8.7e-5 2.0874h1.76e-4 16.699 1.74e-4 1.0436v-1.74e-4 -1.0436-1.65e-4 -15.656-1.74e-4 -1.0436h-1.74e-4 -1.0436-1.32e-4 -3.1311-1.75e-4 -1.0436v1.74e-4 1.0436 1.21e-4 11.481h-1.65e-4 -15.656v-1.75e-4 -1.0436h1.43e-4 13.568 1.74e-4 1.0436v-1.75e-4 -1.0436-6.97e-4 -19.83-1.74e-4 -1.0436h-5.82e-4 -1.0431-5.3e-5 -19.831-5.82e-4 -1.0431" style="color:#000000;fill-opacity:.025971;fill:#ff0066;opacity:1;paint-order:normal;text-decoration-line:none;text-indent:0;text-transform:none"/>
		<path d="m19.201 26.062v1.0393 7.14e-4 19.746 5.97e-4 1.0387h5.96e-4 1.0387 3e-4 2.0783v-2.99e-4 -2.0783h-5.97e-4 -1.0387v-6.39e-4 -17.668h6.39e-4 17.668v1.68e-4 17.668h-1.28e-4 -13.511-1.56e-4 -1.0392v1.57e-4 1.0392 1.18e-4 3.1178 1.56e-4 1.0392h1.57e-4 1.0392 1.68e-4 17.668 1.56e-4 1.0392v-1.57e-4 -1.0392-1.09e-4 -11.432h1.56e-4 1.0392v1.29e-4 13.511h-1.48e-4 -15.59v7.9e-5 2.0786h1.58e-4 16.629 1.57e-4 1.0392v-1.57e-4 -1.0392-1.48e-4 -15.59-1.57e-4 -1.0392h-1.57e-4 -1.0392-1.18e-4 -3.1178-1.57e-4 -1.0392v1.57e-4 1.0392 1.09e-4 11.432h-1.48e-4 -15.59v-1.56e-4 -1.0392h1.29e-4 13.511 1.57e-4 1.0392v-1.56e-4 -1.0392-7.14e-4 -19.746-1.57e-4 -1.0392h-5.96e-4 -1.0387-4.7e-5 -19.747-5.97e-4 -1.0387" style="color:#000000;fill-opacity:.026515;fill:#ff0066;opacity:1;paint-order:normal;text-decoration-line:none;text-indent:0;text-transform:none"/>
		<path d="m19.084 25.945v1.035 7.31e-4 19.665 6.11e-4 1.0344h6.1e-4 1.0344 3.07e-4 2.0697v-3.06e-4 -2.0697h-6.11e-4 -1.0344v-6.53e-4 -17.595h6.54e-4 17.595v1.49e-4 17.595h-1.14e-4 -13.455-1.4e-4 -1.0349v1.4e-4 1.0349 1.06e-4 3.1049 1.4e-4 1.0349h1.39e-4 1.0349 1.49e-4 17.595 1.4e-4 1.0349v-1.39e-4 -1.0349-9.6e-5 -11.385h1.4e-4 1.0349v1.14e-4 13.455h-1.31e-4 -15.525v7e-5 2.07h1.4e-4 16.56 1.4e-4 1.0349v-1.39e-4 -1.0349-1.31e-4 -15.525-1.4e-4 -1.0349h-1.39e-4 -1.0349-1.05e-4 -3.1049-1.39e-4 -1.0349v1.4e-4 1.0349 9.6e-5 11.385h-1.31e-4 -15.525v-1.39e-4 -1.0349h1.14e-4 13.455 1.39e-4 1.0349v-1.39e-4 -1.0349-7.3e-4 -19.665-1.4e-4 -1.0349h-6.1e-4 -1.0344-4.2e-5 -19.665-6.11e-4 -1.0344" style="color:#000000;fill-opacity:.027047;fill:#ff0066;opacity:1;paint-order:normal;text-decoration-line:none;text-indent:0;text-transform:none"/>
		<path d="m18.971 25.832v1.0308 7.47e-4 19.585 6.25e-4 1.0302h6.25e-4 1.0302 3.14e-4 2.0613v-3.14e-4 -2.0613h-6.24e-4 -1.0302v-6.69e-4 -17.523h6.68e-4 17.523v1.31e-4 17.524h-1.01e-4 -13.4-1.23e-4 -1.0307v1.23e-4 1.0307 9.3e-5 3.0923 1.23e-4 1.0307h1.23e-4 1.0307 1.32e-4 17.524 1.23e-4 1.0307v-1.23e-4 -1.0307-8.5e-5 -11.339h1.23e-4 1.0307v1e-4 13.4h-1.16e-4 -15.462v6.2e-5 2.0616h1.24e-4 16.493 1.23e-4 1.0307v-1.23e-4 -1.0307-1.16e-4 -15.462-1.23e-4 -1.0307h-1.23e-4 -1.0307-9.3e-5 -3.0923-1.23e-4 -1.0307v1.23e-4 1.0307 8.5e-5 11.339h-1.16e-4 -15.462v-1.23e-4 -1.0307h1e-4 13.4 1.23e-4 1.0307v-1.23e-4 -1.0307-7.47e-4 -19.585-1.23e-4 -1.0307h-6.24e-4 -1.0302-3.6e-5 -19.585-6.24e-4 -1.0302" style="color:#000000;fill-opacity:.027567;fill:#ff0066;opacity:1;paint-order:normal;text-decoration-line:none;text-indent:0;text-transform:none"/>
		<path d="m18.86 25.721v1.0267 7.63e-4 19.506 6.38e-4 1.0261h6.38e-4 1.0261 3.2e-4 2.0531v-3.2e-4 -2.0531h-6.38e-4 -1.0261v-6.83e-4 -17.453h6.83e-4 17.453v1.14e-4 17.454h-8.7e-5 -13.347-1.06e-4 -1.0266v1.06e-4 1.0266 8.1e-5 3.08 1.06e-4 1.0266h1.06e-4 1.0266 1.14e-4 17.454 1.06e-4 1.0266v-1.06e-4 -1.0266-7.4e-5 -11.294h1.07e-4 1.0266v8.7e-5 13.347h-1e-4 -15.4v5.4e-5 2.0533h1.07e-4 16.427 1.06e-4 1.0266v-1.07e-4 -1.0266-1.01e-4 -15.4-1.07e-4 -1.0266h-1.07e-4 -1.0266-8e-5 -3.08-1.07e-4 -1.0266v1.06e-4 1.0266 7.4e-5 11.294h-1.01e-4 -15.4v-1.06e-4 -1.0266h8.7e-5 13.347 1.06e-4 1.0266v-1.06e-4 -1.0266-7.63e-4 -19.506-1.07e-4 -1.0266h-6.38e-4 -1.0261-3.2e-5 -19.507-6.38e-4 -1.0261" style="color:#000000;fill-opacity:.028075;fill:#ff0066;opacity:1;paint-order:normal;text-decoration-line:none;text-indent:0;text-transform:none"/>
		<path d="m18.751 25.612v1.0227 7.79e-4 19.43 6.51e-4 1.022h6.51e-4 1.022 3.27e-4 2.045v-3.27e-4 -2.045h-6.51e-4 -1.022v-6.97e-4 -17.385h6.97e-4 17.385v9.7e-5 17.385h-7.4e-5 -13.295-9.1e-5 -1.0226v9e-5 1.0226 6.8e-5 3.0679 9e-5 1.0226h9e-5 1.0226 9.6e-5 17.385 9e-5 1.0226v-9e-5 -1.0226-6.3e-5 -11.249h9.1e-5 1.0226v7.4e-5 13.295h-8.5e-5 -15.34v4.6e-5 2.0453h9.1e-5 16.362 9e-5 1.0226v-9.1e-5 -1.0226-8.5e-5 -15.34-9e-5 -1.0226h-9.1e-5 -1.0226-6.8e-5 -3.0679-9.1e-5 -1.0226v9e-5 1.0226 6.3e-5 11.249h-8.5e-5 -15.34v-9e-5 -1.0226h7.4e-5 13.295 9.1e-5 1.0226v-9e-5 -1.0226-7.79e-4 -19.43-9.1e-5 -1.0226h-6.51e-4 -1.022-2.7e-5 -19.431-6.51e-4 -1.022" style="color:#000000;fill-opacity:.028573;fill:#ff0066;opacity:1;paint-order:normal;text-decoration-line:none;text-indent:0;text-transform:none"/>
		<path d="m18.644 25.505v1.0187 7.94e-4 19.355 6.64e-4 1.018h6.64e-4 1.018 3.34e-4 2.0371v-3.34e-4 -2.0371h-6.63e-4 -1.018v-7.11e-4 -17.317h7.11e-4 17.317v8e-5 17.318h-6.1e-5 -13.243-7.4e-5 -1.0186v7.5e-5 1.0186 5.6e-5 3.0561 7.4e-5 1.0186h7.4e-5 1.0186 8e-5 17.318 7.4e-5 1.0186v-7.5e-5 -1.0186-5.2e-5 -11.206h7.4e-5 1.0186v6.2e-5 13.243h-7e-5 -15.281v3.8e-5 2.0374h7.5e-5 16.299 7.5e-5 1.0186v-7.5e-5 -1.0186-7e-5 -15.281-7.5e-5 -1.0186h-7.5e-5 -1.0186-5.6e-5 -3.0561-7.5e-5 -1.0186v7.5e-5 1.0186 5.1e-5 11.206h-7e-5 -15.281v-7.4e-5 -1.0186h6.1e-5 13.243 7.5e-5 1.0186v-7.5e-5 -1.0186-7.95e-4 -19.355-7.5e-5 -1.0186h-6.64e-4 -1.018-2.2e-5 -19.355-6.64e-4 -1.018" style="color:#000000;fill-opacity:.029061;fill:#ff0066;opacity:1;paint-order:normal;text-decoration-line:none;text-indent:0;text-transform:none"/>
		<path d="m18.539 25.4v1.0148 8.09e-4 19.281 6.77e-4 1.0142h6.76e-4 1.0142 3.4e-4 2.0293v-3.4e-4 -2.0293h-6.76e-4 -1.0142v-7.25e-4 -17.251h7.24e-4 17.251v6.3e-5 17.252h-4.9e-5 -13.193-5.9e-5 -1.0148v5.9e-5 1.0148 4.5e-5 3.0445 5.9e-5 1.0148h5.9e-5 1.0148 6.3e-5 17.252 5.9e-5 1.0148v-5.9e-5 -1.0148-4.1e-5 -11.163h5.9e-5 1.0148v4.9e-5 13.193h-5.6e-5 -15.222v3e-5 2.0296h5.9e-5 16.237 5.9e-5 1.0148v-5.9e-5 -1.0148-5.6e-5 -15.222-6e-5 -1.0148h-5.9e-5 -1.0148-4.5e-5 -3.0445-5.9e-5 -1.0148v5.9e-5 1.0148 4.1e-5 11.163h-5.6e-5 -15.222v-5.9e-5 -1.0148h4.8e-5 13.193 6e-5 1.0148v-5.9e-5 -1.0148-8.09e-4 -19.281-5.9e-5 -1.0148h-6.76e-4 -1.0142-1.7e-5 -19.282-6.77e-4 -1.0142" style="color:#000000;fill-opacity:.02954;fill:#ff0066;opacity:1;paint-order:normal;text-decoration-line:none;text-indent:0;text-transform:none"/>
		<path d="m18.437 25.298v1.011 8.24e-4 19.209 6.89e-4 1.0103h6.89e-4 1.0103 3.46e-4 2.0217v-3.46e-4 -2.0217h-6.89e-4 -1.0103v-7.38e-4 -17.187h7.38e-4 17.187v4.7e-5 17.187h-3.6e-5 -13.143-4.4e-5 -1.011v4.4e-5 1.011 3.3e-5 3.033 4.4e-5 1.011h4.4e-5 1.011 4.7e-5 17.187 4.4e-5 1.011v-4.4e-5 -1.011-3.1e-5 -11.121h4.4e-5 1.011v3.6e-5 13.143h-4.1e-5 -15.165v2.2e-5 2.022h4.4e-5 16.176 4.4e-5 1.011v-4.4e-5 -1.011-4.2e-5 -15.165-4.4e-5 -1.011h-4.4e-5 -1.011-3.4e-5 -3.033-4.4e-5 -1.011v4.4e-5 1.011 3e-5 11.121h-4.2e-5 -15.165v-4.4e-5 -1.011h3.6e-5 13.143 4.4e-5 1.011v-4.4e-5 -1.011-8.24e-4 -19.209-4.4e-5 -1.011h-6.88e-4 -1.0103-1.3e-5 -19.209-6.89e-4 -1.0103" style="color:#000000;fill-opacity:.030011;fill:#ff0066;opacity:1;paint-order:normal;text-decoration-line:none;text-indent:0;text-transform:none"/>
		<path d="m18.336 25.197v1.0073 8.39e-4 19.138 7.01e-4 1.0066h7.01e-4 1.0066 3.52e-4 2.0142v-3.52e-4 -2.0142h-7.01e-4 -1.0066v-7.5e-4 -17.123h7.51e-4 17.123v3.1e-5 17.124h-2.3e-5 -13.095-2.9e-5 -1.0073v2.9e-5 1.0073 2.2e-5 3.0218 2.9e-5 1.0073h2.9e-5 1.0073 3.1e-5 17.124 2.9e-5 1.0073v-2.9e-5 -1.0073-2e-5 -11.08h2.9e-5 1.0073v2.3e-5 13.095h-2.7e-5 -15.109v1.5e-5 2.0146h2.9e-5 16.117 2.9e-5 1.0073v-2.9e-5 -1.0073-2.7e-5 -15.109-2.9e-5 -1.0073h-2.9e-5 -1.0073-2.2e-5 -3.0218-2.9e-5 -1.0073v2.9e-5 1.0073 2e-5 11.08h-2.7e-5 -15.109v-2.9e-5 -1.0073h2.4e-5 13.095 2.9e-5 1.0073v-2.9e-5 -1.0073-8.39e-4 -19.138-2.9e-5 -1.0073h-7.01e-4 -1.0066-8e-6 -19.138-7.01e-4 -1.0066" style="color:#000000;fill-opacity:.030472;fill:#ff0066;opacity:1;paint-order:normal;text-decoration-line:none;text-indent:0;text-transform:none"/>
		<path d="m18.236 25.098v1.0036 8.53e-4 19.068 7.13e-4 1.0029h7.13e-4 1.0029 3.58e-4 2.0069v-3.58e-4 -2.0069h-7.13e-4 -1.0029v-7.63e-4 -17.061h7.63e-4 17.061v1.5e-5 17.061h-1.2e-5 -13.047-1.4e-5 -1.0036v1.4e-5 1.0036 1.1e-5 3.0108 1.5e-5 1.0036h1.4e-5 1.0036 1.6e-5 17.061 1.5e-5 1.0036v-1.4e-5 -1.0036-9e-6 -11.04h1.5e-5 1.0036v1.2e-5 13.047h-1.4e-5 -15.054v7e-6 2.0072h1.4e-5 16.058 1.5e-5 1.0036v-1.4e-5 -1.0036-1.3e-5 -15.054-1.4e-5 -1.0036h-1.4e-5 -1.0036-1.1e-5 -3.0108-1.4e-5 -1.0036v1.4e-5 1.0036 1e-5 11.04h-1.4e-5 -15.054v-1.5e-5 -1.0036h1.2e-5 13.047 1.4e-5 1.0036v-1.4e-5 -1.0036-8.54e-4 -19.068-1.4e-5 -1.0036h-7.13e-4 -1.0029-5e-6 -19.069-7.13e-4 -1.0029" style="color:#000000;fill-opacity:.030926;fill:#ff0066;opacity:1;paint-order:normal;text-decoration-line:none;text-indent:0;text-transform:none"/>
		<path d="m18.139 25v1 8.67e-4 18.999 7.25e-4 0.99928h7.25e-4 0.99928 3.64e-4 1.9996v-3.64e-4 -1.9996h-7.25e-4 -0.99928v-7.76e-4 -16.999h7.76e-4 16.999v17h-13-1v1 3 1h1 17 1v-1-11h1v13h-15v2h16 1v-1-15-1h-1-3-1v1 11h-15v-1h13 1v-1-8.67e-4 -18.999-1h-7.25e-4 -0.99928-19-7.25e-4 -0.99928" style="color:#000000;fill-opacity:.031373;fill:#ff0066;opacity:1;paint-order:normal;text-decoration-line:none;text-indent:0;text-transform:none"/>
	</g>
	<path d="m18.139 25v21h3v-2h-1v-17h17v17h-14l2 2h14v-21h-20z" style="color:#000000;fill:#d5ffff;paint-order:normal;text-decoration-line:none;text-indent:0;text-transform:none"/>
	<path d="m23.139 44v5h19v-12h1v13h-15v2h17v-17h-5v12h-15v-1z" style="color:#000000;fill:#4b617d;paint-order:normal;text-decoration-line:none;text-indent:0;text-transform:none"/>
</svg>
