<?xml version="1.0" encoding="UTF-8"?>
<!-- Created with Inkscape (http://www.inkscape.org/) -->
<svg width="64" height="64" version="1.1" xmlns="http://www.w3.org/2000/svg" xmlns:cc="http://creativecommons.org/ns#" xmlns:dc="http://purl.org/dc/elements/1.1/" xmlns:rdf="http://www.w3.org/1999/02/22-rdf-syntax-ns#" xmlns:xlink="http://www.w3.org/1999/xlink">
	<defs>
		<linearGradient id="c" x1="-5" x2="-5" y1="64" y2="14" gradientUnits="userSpaceOnUse">
			<stop stop-color="#f43f66" stop-opacity=".018868" offset="0"/>
			<stop stop-color="#f4ae3f" stop-opacity=".47025" offset="1"/>
		</linearGradient>
		<radialGradient id="b" cx="30.107" cy="50.318" r="30.5" gradientTransform="matrix(2.7541 -1.4218e-7 8.3652e-8 2.7869 -52.917 -81.23)" gradientUnits="userSpaceOnUse">
			<stop stop-color="#9e1423" stop-opacity=".12917" offset="0"/>
			<stop stop-color="#f4405b" stop-opacity=".023222" offset=".54"/>
			<stop stop-color="#f43f6d" stop-opacity=".169" offset="1"/>
		</radialGradient>
		<linearGradient id="d" x1="53" x2="53" y1="17" y2="15" gradientUnits="userSpaceOnUse">
			<stop stop-color="#dad8ce" offset="0"/>
			<stop stop-color="#ebebeb" offset="1"/>
		</linearGradient>
		<linearGradient id="f" x1="32.559" x2="33.542" y1="15.559" y2="14.542" gradientUnits="userSpaceOnUse">
			<stop stop-color="#37321c" stop-opacity=".15675" offset="0"/>
			<stop stop-color="#6d5524" stop-opacity="0" offset="1"/>
		</linearGradient>
		<radialGradient id="a" cx="33.466" cy="2.1992" r="30.5" gradientTransform="matrix(-1.0283 0 0 -.55738 67.779 1.2258)" gradientUnits="userSpaceOnUse">
			<stop stop-color="#668cbb" offset="0"/>
			<stop stop-color="#668cbb" offset="1"/>
		</radialGradient>
		<linearGradient id="e" x1="61" x2="60" y1="17" gradientUnits="userSpaceOnUse">
			<stop stop-color="#3e4d60" stop-opacity=".72157" offset="0"/>
			<stop stop-color="#393b49" stop-opacity=".2656" offset="1"/>
		</linearGradient>
	</defs>
	<metadata>
		<rdf:RDF>
			<cc:Work rdf:about="">
				<dc:format>image/svg+xml</dc:format>
				<dc:type rdf:resource="http://purl.org/dc/dcmitype/StillImage"/>
				<dc:title/>
			</cc:Work>
		</rdf:RDF>
	</metadata>
	<g>
		<path d="m3 6-1e-7 58 57-1e-6 4-4v-59l-1-1h-26l-5 5-28 1e-7z" color="#000000" fill="url(#a)"/>
		<path d="m3 6-1e-7 58 57-1e-6 4-4v-59l-1-1h-26l-5 5-28 1e-7z" color="#000000" fill="url(#e)"/>
		<path d="m58 13v51h2l4-4v-59l-1-1v18z" fill="#002812" fill-opacity=".12482"/>
	</g>
	<g>
		<path d="m7 13h51v31h-51z" fill="url(#d)"/>
		<path d="m30 13 4 4h2l-4-4z" color="#000000" fill="url(#f)"/>
	</g>
	<g>
		<path d="m0 13v50l1 1h59l1-1v-45l-1-1-26 1e-6 -5-5-28-1e-6z" color="#000000" fill="#f4ae3f"/>
		<path d="m0 13v50l1 1h59l1-1v-45l-1-1-26 1e-6 -5-5-28-1e-6z" color="#000000" fill="url(#c)"/>
		<path d="m0 13v50l1 1h59l1-1v-45l-1-1-26 1e-6 -5-5-28-1e-6z" color="#000000" fill="url(#b)"/>
	</g>
	<path d="m20.736 27.464c-2.9988 0.0095-5.5756 1.0352-7.7617 3.0918-1.1583 1.0896-1.8515 2.1009-2.9844 4.3574-0.95296 1.8981-1.0468 2.0431-2.3047 3.4883-1.017 1.1685-1.8133 2.3502-2.3828 3.5371-0.2449 0.51039-0.46433 1.1707-0.60742 1.7578-0.071546 0.29356-0.12484 0.56833-0.15039 0.79883-0.025549 0.2305-0.039193 0.40649 0.027344 0.57031 0.023603 0.05811 0.014571 0.09913 0.10352 0.18555 0.013281 0.0129 0.042515 0.02317 0.066406 0.03516 0.23862 2.1141 2.1683 3.3414 5.7344 3.5879 0.71699 0.04952 1.5594 0.07442 1.8711 0.05469 0.31174-0.01973 1.0398-0.06623 1.6191-0.10156 3.6753-0.22414 8.5804-1.7659 12.318-3.873 6.1008-3.4391 10.837-8.8066 10.83-12.273-0.0019-0.86666-0.56906-1.7927-1.4297-2.4141 0.0049-0.03786 0.0027-0.07619-0.0059-0.09961-0.01849-0.0505-0.03942-0.07381-0.05859-0.09375-0.03834-0.03988-0.07672-0.06605-0.125-0.09766-0.09655-0.06322-0.2281-0.13368-0.38477-0.21094-0.31332-0.15452-0.72332-0.33058-1.1016-0.46094-1.1927-0.41105-2.5548-0.57818-5.2773-0.66406-2.6433-0.08338-2.6197-0.07872-3.8691-0.48242-1.7494-0.56527-2.5428-0.69849-4.127-0.69336zm11.359 4.5703c0.82648 0.0092 1.5994 0.09666 1.8887 0.16602 0.29031 0.06959 0.56147 0.12865 0.81641 0.17383 0.0346 0.0061 0.05729 0.0085 0.08984 0.01367 0.05163 0.10082 0.22461 0.29791 0.22461 0.29688 0.0018 0.82035-0.85158 2.8106-2.625 4.8203-1.7734 2.0097-4.3319 4.0973-7.1875 5.707-3.4495 1.9445-8.23 3.4223-11.457 3.6191-0.58417 0.03563-1.3151 0.08195-1.625 0.10156 0.02079-0.0013-0.94992-0.0094-1.6055-0.05469-1.58-0.10918-2.6495-0.45177-3.1894-0.79101-0.30338-0.19061-0.29485-0.39975-0.39062-0.57617 0.060016-0.17267 0.152-0.34814 0.23633-0.58594 0.15216-0.42906 0.88465-1.5617 2.0332-2.7324 1.1486-1.1707 2.6923-2.4513 4.4238-3.6113 4.7498-3.1822 11.108-5.7124 15.891-6.3984 0.7324-0.10506 1.6501-0.15762 2.4766-0.14844z" color="#000000" color-rendering="auto" dominant-baseline="auto" fill="#3e566a" fill-opacity=".85196" image-rendering="auto" shape-rendering="auto" solid-color="#000000" style="font-feature-settings:normal;font-variant-alternates:normal;font-variant-caps:normal;font-variant-ligatures:normal;font-variant-numeric:normal;font-variant-position:normal;isolation:auto;mix-blend-mode:normal;paint-order:normal;shape-padding:0;text-decoration-color:#000000;text-decoration-line:none;text-decoration-style:solid;text-indent:0;text-orientation:mixed;text-transform:none;white-space:normal"/>
</svg>
