<?xml version="1.0" encoding="UTF-8" standalone="no"?>
<svg
   xmlns:dc="http://purl.org/dc/elements/1.1/"
   xmlns:cc="http://creativecommons.org/ns#"
   xmlns:rdf="http://www.w3.org/1999/02/22-rdf-syntax-ns#"
   xmlns:svg="http://www.w3.org/2000/svg"
   xmlns="http://www.w3.org/2000/svg"
   xmlns:xlink="http://www.w3.org/1999/xlink"
   id="svg110"
   version="1.1"
   height="64"
   width="64">
  <defs
     id="defs25">
    <linearGradient
       gradientUnits="userSpaceOnUse"
       y2="2"
       y1="64"
       x2="31"
       x1="31"
       id="b">
      <stop
         id="stop2"
         offset="0"
         stop-color="#ffe665" />
      <stop
         id="stop4"
         offset=".5"
         stop-color="#ffe665" />
      <stop
         id="stop6"
         offset=".51613"
         stop-color="#f4cd4e" />
      <stop
         id="stop8"
         offset="1"
         stop-color="#f4cd4e" />
    </linearGradient>
    <linearGradient
       xlink:href="#b"
       gradientUnits="userSpaceOnUse"
       gradientTransform="matrix(.047118 -.012625 .012625 .047118 -8.8517 23.445)"
       y2="152"
       y1="398"
       x2="310"
       x1="310"
       id="e" />
    <linearGradient
       xlink:href="#b"
       gradientUnits="userSpaceOnUse"
       gradientTransform="matrix(.047118 .012625 -.012625 .047118 -1.3267 -3.3714)"
       y2="152"
       y1="398"
       x2="310"
       x1="310"
       id="f" />
    <radialGradient
       gradientUnits="userSpaceOnUse"
       gradientTransform="matrix(1.8449,0,0,1.8449,-10.998,-11.484)"
       r="32"
       cy="21.075"
       cx="18.161"
       id="c">
      <stop
         id="stop13"
         offset="0"
         stop-color="#294c79" />
      <stop
         id="stop15"
         offset="1"
         stop-color="#27456a" />
    </radialGradient>
    <radialGradient
       gradientUnits="userSpaceOnUse"
       gradientTransform="matrix(3.6255,3.6255,-1.2576,1.2576,-10.392,-123.26)"
       fy="53.332165"
       fx="32.34766"
       r="26"
       cy="53.332165"
       cx="32.34766"
       id="d">
      <stop
         style="stop-color:#00e0e4;stop-opacity:1"
         id="stop18"
         offset="0"
         stop-color="#10b9bc" />
      <stop
         style="stop-color:#4f4cf8;stop-opacity:1"
         id="stop20"
         offset=".51165"
         stop-color="#5c5aea" />
      <stop
         style="stop-color:#d93e82;stop-opacity:1"
         id="stop22"
         offset="1"
         stop-color="#cb4c84" />
    </radialGradient>
    <radialGradient
       r="32"
       fy="8.1887512"
       fx="23.340954"
       cy="8.1887512"
       cx="23.340954"
       gradientTransform="matrix(1.1998795e-8,3.2648446,-0.99968648,0,40.235958,-73.423021)"
       gradientUnits="userSpaceOnUse"
       id="radialGradient4745-3"
       xlink:href="#radialGradient2122-6" />
    <radialGradient
       spreadMethod="pad"
       fr="0"
       fy="21.075001"
       fx="18.160999"
       id="radialGradient2122-6"
       cx="18.160999"
       cy="21.075001"
       r="32"
       gradientTransform="matrix(1.8449,0,0,1.8449,-10.998,-11.484)"
       gradientUnits="userSpaceOnUse">
      <stop
         offset="0"
         id="stop2118-7"
         style="stop-color:#005075;stop-opacity:1" />
      <stop
         offset="1"
         id="stop2120-5"
         style="stop-color:#1c334f;stop-opacity:1" />
    </radialGradient>
    <radialGradient
       xlink:href="#linearGradient930-3"
       id="radialGradient2296"
       gradientUnits="userSpaceOnUse"
       gradientTransform="matrix(0,0.08891455,-2.797017,0,26.993229,-2.4976092)"
       cx="32"
       cy="-1.7900395"
       fx="32"
       fy="-1.7900395"
       r="31.746094" />
    <linearGradient
       id="linearGradient930-3">
      <stop
         id="stop926-5"
         offset="0"
         style="stop-color:#ffffff;stop-opacity:0.24267782" />
      <stop
         id="stop928-6"
         offset="1"
         style="stop-color:#24ffee;stop-opacity:0.0167364" />
    </linearGradient>
    <radialGradient
       xlink:href="#linearGradient930-3"
       id="radialGradient2294"
       gradientUnits="userSpaceOnUse"
       gradientTransform="matrix(0,0.08429842,-2.797017,0,26.993229,-2.3498931)"
       cx="32"
       cy="-1.7900395"
       fx="32"
       fy="-1.7900395"
       r="31.746094" />
    <radialGradient
       xlink:href="#linearGradient930-3"
       id="radialGradient848"
       gradientUnits="userSpaceOnUse"
       gradientTransform="matrix(0,0.68805745,-2.797017,0,26.993229,-21.670182)"
       cx="32.513203"
       cy="-1.7900395"
       fx="32.513203"
       fy="-1.7900395"
       r="31.746094" />
    <radialGradient
       r="31.746094"
       fy="-1.7900395"
       fx="32"
       cy="-1.7900395"
       cx="32"
       gradientTransform="matrix(0,0.68805745,-2.797017,0,26.993229,-21.670182)"
       gradientUnits="userSpaceOnUse"
       id="radialGradient4987-2"
       xlink:href="#linearGradient930-3" />
    <radialGradient
       xlink:href="#linearGradient930-3"
       id="radialGradient2290"
       gradientUnits="userSpaceOnUse"
       gradientTransform="matrix(0,0.68805745,-2.797017,0,26.993229,-21.670182)"
       cx="32"
       cy="-1.7900395"
       fx="32"
       fy="-1.7900395"
       r="31.746094" />
    <radialGradient
       xlink:href="#linearGradient930-3"
       id="radialGradient2292"
       gradientUnits="userSpaceOnUse"
       gradientTransform="matrix(0,0.09008463,-2.797017,0,26.993229,-2.5350518)"
       cx="32"
       cy="-1.7900395"
       fx="32"
       fy="-1.7900395"
       r="31.746094" />
    <radialGradient
       xlink:href="#linearGradient1008-3-7-1-8-0-5"
       id="radialGradient4487"
       cx="32"
       cy="60.253944"
       fx="32"
       fy="60.253944"
       r="30"
       gradientTransform="matrix(2.1945173,1.5130023e-8,-1.3333333e-8,1.9339184,-38.224553,-59.916877)"
       gradientUnits="userSpaceOnUse"
       spreadMethod="pad" />
    <linearGradient
       id="linearGradient1008-3-7-1-8-0-5">
      <stop
         id="stop998"
         offset="0"
         style="stop-color:#d34945;stop-opacity:1" />
      <stop
         style="stop-color:#d24848;stop-opacity:1"
         offset="0.20931257"
         id="stop1000" />
      <stop
         style="stop-color:#c34f4c;stop-opacity:1"
         offset="0.50827432"
         id="stop1002" />
      <stop
         id="stop1004"
         offset="0.72988421"
         style="stop-color:#9d4035;stop-opacity:1" />
      <stop
         id="stop1006"
         offset="1"
         style="stop-color:#ab2c19;stop-opacity:1" />
    </linearGradient>
    <radialGradient
       r="32"
       fy="8.1887512"
       fx="23.340954"
       cy="8.1887512"
       cx="23.340954"
       gradientTransform="matrix(1.1998795e-8,3.2648446,-0.99968648,0,40.235958,-73.423021)"
       gradientUnits="userSpaceOnUse"
       id="radialGradient1093"
       xlink:href="#radialGradient2122-6-2" />
    <radialGradient
       spreadMethod="pad"
       fr="0"
       fy="21.075001"
       fx="18.160999"
       id="radialGradient2122-6-2"
       cx="18.160999"
       cy="21.075001"
       r="32"
       gradientTransform="matrix(1.8449,0,0,1.8449,-10.998,-11.484)"
       gradientUnits="userSpaceOnUse">
      <stop
         offset="0"
         id="stop2118-7-0"
         style="stop-color:#005075;stop-opacity:1" />
      <stop
         offset="1"
         id="stop2120-5-9"
         style="stop-color:#1c334f;stop-opacity:1" />
    </radialGradient>
    <radialGradient
       r="30.457031"
       fy="89.864296"
       fx="32"
       cy="89.864296"
       cx="32"
       gradientTransform="matrix(0.57501373,0,0,0.17667003,13.59956,46.553167)"
       gradientUnits="userSpaceOnUse"
       id="radialGradient1126"
       xlink:href="#linearGradient1104" />
    <linearGradient
       id="linearGradient1104">
      <stop
         id="stop1100"
         offset="0"
         style="stop-color:#aeeeff;stop-opacity:1" />
      <stop
         style="stop-color:#34a3ff;stop-opacity:0.92920351"
         offset="0.21737182"
         id="stop1152" />
      <stop
         style="stop-color:#3d5fff;stop-opacity:0.6901961"
         offset="0.50562274"
         id="stop1108" />
      <stop
         id="stop1102"
         offset="1"
         style="stop-color:#153b5a;stop-opacity:0" />
    </linearGradient>
    <radialGradient
       r="30.457031"
       fy="89.864296"
       fx="32"
       cy="89.864296"
       cx="32"
       gradientTransform="matrix(0.57501373,0,0,0.17667003,13.59956,46.553167)"
       gradientUnits="userSpaceOnUse"
       id="radialGradient1134"
       xlink:href="#linearGradient1104" />
    <radialGradient
       r="30.457031"
       fy="89.864296"
       fx="32"
       cy="89.864296"
       cx="32"
       gradientTransform="matrix(0.57501373,0,0,0.17667003,13.59956,46.553167)"
       gradientUnits="userSpaceOnUse"
       id="radialGradient1138"
       xlink:href="#linearGradient1104" />
    <radialGradient
       gradientUnits="userSpaceOnUse"
       gradientTransform="matrix(0.57501373,0,0,0.17667003,13.59956,46.553167)"
       r="30.457031"
       fy="89.864296"
       fx="32"
       cy="89.864296"
       cx="32"
       id="radialGradient1106"
       xlink:href="#linearGradient1104" />
    <radialGradient
       r="30.457031"
       fy="89.864296"
       fx="32"
       cy="89.864296"
       cx="32"
       gradientTransform="matrix(0.8032471,0,0,0.17667003,6.2960922,46.553167)"
       gradientUnits="userSpaceOnUse"
       id="radialGradient1142"
       xlink:href="#linearGradient1104" />
    <radialGradient
       r="30.457031"
       fy="89.864296"
       fx="32"
       cy="89.864296"
       cx="32"
       gradientTransform="matrix(0.8263668,0,0,0.17667003,5.5562619,46.553167)"
       gradientUnits="userSpaceOnUse"
       id="radialGradient1130"
       xlink:href="#linearGradient1104" />
    <radialGradient
       r="30.457031"
       fy="89.864296"
       fx="32"
       cy="89.864296"
       cx="32"
       gradientTransform="matrix(0.9160521,0,0,0.17667003,2.6863322,46.553167)"
       gradientUnits="userSpaceOnUse"
       id="radialGradient1122"
       xlink:href="#linearGradient1104" />
    <radialGradient
       r="30.457031"
       fy="89.864296"
       fx="32"
       cy="89.864296"
       cx="32"
       gradientTransform="matrix(1.0445973,0,0,0.17667003,-1.4271152,46.553167)"
       gradientUnits="userSpaceOnUse"
       id="radialGradient1112"
       xlink:href="#linearGradient1104" />
    <radialGradient
       r="2.327091"
       fy="60.947365"
       fx="32"
       cy="60.947365"
       cx="32"
       gradientTransform="matrix(1.8011858,0,0,1.8011856,-25.637946,-48.374801)"
       gradientUnits="userSpaceOnUse"
       id="radialGradient1190"
       xlink:href="#linearGradient1166" />
    <linearGradient
       id="linearGradient1166">
      <stop
         id="stop1162"
         offset="0"
         style="stop-color:#ebffff;stop-opacity:0.757" />
      <stop
         style="stop-color:#a0ebff;stop-opacity:0.10619469"
         offset="0.59080499"
         id="stop1207" />
      <stop
         id="stop1164"
         offset="1"
         style="stop-color:#b197ff;stop-opacity:0" />
    </linearGradient>
    <radialGradient
       r="2.327091"
       fy="60.947365"
       fx="32"
       cy="60.947365"
       cx="32"
       gradientTransform="matrix(1.8011858,0,0,1.8011856,-25.637946,-48.374801)"
       gradientUnits="userSpaceOnUse"
       id="radialGradient1172"
       xlink:href="#linearGradient1166" />
    <radialGradient
       r="2.327091"
       fy="60.947365"
       fx="32"
       cy="60.947365"
       cx="32"
       gradientTransform="matrix(1.8011858,0,0,1.8011856,-25.637946,-48.374801)"
       gradientUnits="userSpaceOnUse"
       id="radialGradient1184"
       xlink:href="#linearGradient1166" />
    <radialGradient
       r="2.327091"
       fy="60.947365"
       fx="32"
       cy="60.947365"
       cx="32"
       gradientTransform="matrix(1.8011858,0,0,1.8011856,-25.637946,-48.374801)"
       gradientUnits="userSpaceOnUse"
       id="radialGradient1178"
       xlink:href="#linearGradient1166" />
    <radialGradient
       r="2.327091"
       fy="60.947365"
       fx="32"
       cy="60.947365"
       cx="32"
       gradientTransform="matrix(1.8011858,0,0,1.8011856,-25.637946,-48.374801)"
       gradientUnits="userSpaceOnUse"
       id="radialGradient1203"
       xlink:href="#linearGradient1166" />
    <radialGradient
       gradientTransform="matrix(1.8011858,0,0,1.8011856,-25.637946,-48.374801)"
       gradientUnits="userSpaceOnUse"
       r="2.327091"
       fy="60.947365"
       fx="32"
       cy="60.947365"
       cx="32"
       id="radialGradient1168"
       xlink:href="#linearGradient1166" />
    <radialGradient
       xlink:href="#linearGradient930-3"
       id="radialGradient2296-2"
       gradientUnits="userSpaceOnUse"
       gradientTransform="matrix(0,0.08891455,-2.797017,0,26.993229,-2.4976092)"
       cx="32"
       cy="-1.7900395"
       fx="32"
       fy="-1.7900395"
       r="31.746094" />
    <radialGradient
       xlink:href="#linearGradient930-3"
       id="radialGradient2294-1"
       gradientUnits="userSpaceOnUse"
       gradientTransform="matrix(0,0.08429842,-2.797017,0,26.993229,-2.3498931)"
       cx="32"
       cy="-1.7900395"
       fx="32"
       fy="-1.7900395"
       r="31.746094" />
    <radialGradient
       xlink:href="#linearGradient930-3"
       id="radialGradient848-3"
       gradientUnits="userSpaceOnUse"
       gradientTransform="matrix(0,0.68805745,-2.797017,0,26.993229,-21.670182)"
       cx="32.513203"
       cy="-1.7900395"
       fx="32.513203"
       fy="-1.7900395"
       r="31.746094" />
    <radialGradient
       r="31.746094"
       fy="-1.7900395"
       fx="32"
       cy="-1.7900395"
       cx="32"
       gradientTransform="matrix(0,0.68805745,-2.797017,0,26.993229,-21.670182)"
       gradientUnits="userSpaceOnUse"
       id="radialGradient4987-2-2"
       xlink:href="#linearGradient930-3" />
    <radialGradient
       xlink:href="#linearGradient930-3"
       id="radialGradient2290-4"
       gradientUnits="userSpaceOnUse"
       gradientTransform="matrix(0,0.68805745,-2.797017,0,26.993229,-21.670182)"
       cx="32"
       cy="-1.7900395"
       fx="32"
       fy="-1.7900395"
       r="31.746094" />
    <radialGradient
       xlink:href="#linearGradient930-3"
       id="radialGradient2292-2"
       gradientUnits="userSpaceOnUse"
       gradientTransform="matrix(0,0.09008463,-2.797017,0,26.993229,-2.5350518)"
       cx="32"
       cy="-1.7900395"
       fx="32"
       fy="-1.7900395"
       r="31.746094" />
  </defs>
  <metadata
     id="metadata27">
    <rdf:RDF>
      <cc:Work
         rdf:about="">
        <dc:format>image/svg+xml</dc:format>
        <dc:type
           rdf:resource="http://purl.org/dc/dcmitype/StillImage" />
        <dc:title></dc:title>
      </cc:Work>
    </rdf:RDF>
  </metadata>
  <g
     id="g885">
    <path
       id="path1091"
       d="M 32,0 C 15.364933,0 1.1816406,1.1015625 1.1816406,1.1015625 0.31175763,1.1714444 0,1.4145127 0,1.9316406 V 58.632812 c 0,0.842925 0.57606114,1.478594 1.3046875,1.673829 C 5.4311186,61.242596 18.715337,64 32,64 45.284663,64 58.568882,61.242596 62.695312,60.306641 63.423939,60.111406 64,59.475737 64,58.632812 V 1.9316406 C 64,1.4145127 63.688242,1.1714444 62.818359,1.1015625 62.818359,1.1015625 48.635067,0 32,0 Z"
       style="color:#000000;fill:url(#radialGradient1093)" />
    <g
       id="g1118">
      <path
         d="M 1.5429688,55.726562 A 1.2430375,1.2430375 0 0 0 0.30078125,56.96875 v 1.664062 c 0,0.217332 0.0806859,0.709206 0.43164063,1.03711 C 1.0833766,59.997826 1.3188375,59.994632 1.375,60.009766 a 1.2430375,1.2430375 0 0 0 0.048828,0.01367 C 5.5721199,60.963143 18.785463,63.699219 32,63.699219 c 13.214537,0 26.427882,-2.736076 30.576172,-3.675781 a 1.2430375,1.2430375 0 0 0 0.04883,-0.01367 c 0.05618,-0.01514 0.291633,-0.01194 0.642578,-0.339844 0.350945,-0.327903 0.431641,-0.819776 0.431641,-1.03711 V 56.96875 a 1.2430375,1.2430375 0 0 0 -1.242188,-1.242188 z"
         id="path1124"
         style="color:#000000;opacity:0.11799999;fill:url(#radialGradient1126);fill-opacity:1" />
      <path
         d="M 1.5429688,56.021484 A 0.94821666,0.94821666 0 0 0 0.59570312,56.96875 v 1.664062 c 0,0.181787 0.0640952,0.566453 0.33789063,0.822266 0.27379545,0.255813 0.46394785,0.256507 0.51953125,0.271484 a 0.94821666,0.94821666 0 0 0 0.037109,0.0078 C 5.6268216,60.671429 18.82642,63.404297 32,63.404297 c 13.17358,0 26.373181,-2.732868 30.509766,-3.669922 a 0.94821666,0.94821666 0 0 0 0.03711,-0.0078 c 0.05559,-0.01498 0.245743,-0.01567 0.519531,-0.271484 0.273789,-0.255811 0.337891,-0.640478 0.337891,-0.822266 V 56.96875 a 0.94821666,0.94821666 0 0 0 -0.947266,-0.947266 z"
         id="path1132"
         style="color:#000000;opacity:0.153;fill:url(#radialGradient1134);fill-opacity:1" />
      <path
         d="M 1.5429688,56.208984 A 0.75910911,0.75910911 0 0 0 0.78320312,56.96875 v 1.664062 c 0,0.158987 0.0549938,0.474023 0.27929688,0.683594 0.224303,0.209571 0.3842411,0.211685 0.4394531,0.226563 a 0.75910911,0.75910911 0 0 0 0.029297,0.0078 C 5.6603295,60.486134 18.852691,63.216797 32,63.216797 c 13.147309,0 26.339673,-2.730663 30.46875,-3.666016 a 0.75910911,0.75910911 0 0 0 0.0293,-0.0078 c 0.05522,-0.01488 0.215156,-0.01699 0.439453,-0.226563 0.224297,-0.20957 0.279297,-0.524607 0.279297,-0.683594 V 56.96875 a 0.75910911,0.75910911 0 0 0 -0.759766,-0.759766 z"
         id="path1136"
         style="color:#000000;opacity:0.203;fill:url(#radialGradient1138);fill-opacity:1" />
      <path
         style="color:#000000;opacity:0.203;fill:url(#radialGradient1106);fill-opacity:1"
         id="path16"
         d="M 1.5429688,56.337891 A 0.6300404,0.6300404 0 0 0 0.91210938,56.96875 v 1.664062 c -10e-9,0.143426 0.0477575,0.411834 0.23828122,0.589844 0.1905238,0.178011 0.3298072,0.180504 0.3847656,0.195313 a 0.6300404,0.6300404 0 0 0 0.025391,0.0078 C 5.6845023,60.359973 18.870621,63.087891 32,63.087891 c 13.129379,0 26.3155,-2.727918 30.439453,-3.66211 a 0.6300404,0.6300404 0 0 0 0.02539,-0.0078 c 0.05497,-0.01481 0.194246,-0.0173 0.384765,-0.195313 0.190519,-0.178009 0.238282,-0.446418 0.238282,-0.589844 V 56.96875 a 0.6300404,0.6300404 0 0 0 -0.63086,-0.630859 z" />
      <path
         d="M 1.5429688,56.490234 A 0.47944866,0.47944866 0 0 0 1.0644531,56.96875 v 1.664062 c 0,0.12527 0.038342,0.337329 0.1894531,0.478516 0.1511116,0.141187 0.2656499,0.14738 0.3203126,0.16211 a 0.47944866,0.47944866 0 0 0 0.019531,0.0039 C 5.7117268,60.210182 18.891541,62.935547 32,62.935547 c 13.108459,0 26.288275,-2.725365 30.40625,-3.658203 a 0.47944866,0.47944866 0 0 0 0.01953,-0.0039 c 0.05467,-0.01473 0.169205,-0.02092 0.320313,-0.16211 0.151108,-0.141186 0.189453,-0.353247 0.189453,-0.478516 V 56.96875 a 0.47944866,0.47944866 0 0 0 -0.478516,-0.478516 z"
         id="path1140"
         style="color:#000000;opacity:0.46799999;fill:url(#radialGradient1142);fill-opacity:1" />
      <path
         style="color:#000000;opacity:0.46799999;fill:url(#radialGradient1130);fill-opacity:1"
         id="path1128"
         d="M 1.5429688,56.574219 A 0.39380849,0.39380849 0 0 0 1.1484375,56.96875 v 1.664062 c 0,0.114944 0.035364,0.295771 0.1640625,0.416016 0.1286981,0.120245 0.2306618,0.127894 0.2851562,0.142578 a 0.39380849,0.39380849 0 0 0 0.013672,0.0039 C 5.725905,60.12738 18.903439,62.851563 32,62.851562 c 13.096561,10e-7 26.274097,-2.724182 30.388672,-3.65625 a 0.39380849,0.39380849 0 0 0 0.01367,-0.0039 c 0.0545,-0.01468 0.156461,-0.02233 0.285156,-0.142578 0.128695,-0.120245 0.164062,-0.301072 0.164062,-0.416016 V 56.96875 a 0.39380849,0.39380849 0 0 0 -0.394531,-0.394531 z" />
      <path
         d="M 1.5429688,56.744141 A 0.22429779,0.22429779 0 0 0 1.3183594,56.96875 v 1.664062 c 0,0.09451 0.025041,0.214174 0.109375,0.292969 0.084334,0.0788 0.1587291,0.08697 0.2128906,0.101563 a 0.22429779,0.22429779 0 0 0 0.00977,0.002 C 5.7582378,59.95984 18.926987,62.681641 32,62.681641 c 13.073013,0 26.241765,-2.721801 30.349609,-3.652344 a 0.22429779,0.22429779 0 0 0 0.0098,-0.002 c 0.05416,-0.01459 0.128558,-0.02277 0.212891,-0.101563 0.08433,-0.07879 0.109375,-0.198462 0.109375,-0.292969 V 56.96875 a 0.22429779,0.22429779 0 0 0 -0.22461,-0.224609 z"
         id="path1120"
         style="color:#000000;opacity:0.51499999;fill:url(#radialGradient1122);fill-opacity:1" />
      <path
         id="path1110"
         d="m 1.5429688,56.96875 v 1.664062 c 0,0.134929 0.048808,0.148784 0.15625,0.177735 C 5.7981612,59.739073 18.958147,62.457031 32,62.457031 c 13.041853,0 26.201841,-2.717958 30.300781,-3.646484 0.107442,-0.02895 0.15625,-0.04281 0.15625,-0.177735 V 56.96875 Z"
         style="color:#000000;opacity:0.51799999;fill:url(#radialGradient1112);fill-opacity:1" />
    </g>
    <g
       id="g1199">
      <path
         id="path1188"
         class="ColorScheme-Text"
         style="color:#090d11;opacity:0.653;fill:url(#radialGradient1190);fill-opacity:1;stroke-width:0.29088637"
         d="m 33.163545,57.747924 c -0.16118,0 -0.290886,0.129706 -0.290886,0.290886 v 0.87266 c 0,0.16118 0.129706,0.290886 0.290886,0.290886 h 0.87266 c 0.16118,0 0.290886,-0.129706 0.290886,-0.290886 v -0.87266 c 0,-0.16118 -0.129706,-0.290886 -0.290886,-0.290886 z m -2.908863,0.290886 c -0.16118,0 -0.290887,0.129707 -0.290887,0.290887 v 0.290886 c 0,0.16118 0.129707,0.290887 0.290887,0.290887 h 0.290886 c 0.16118,0 0.290887,-0.129707 0.290887,-0.290887 v -0.290886 c 0,-0.16118 -0.129707,-0.290887 -0.290887,-0.290887 z m 1.454431,0 c -0.16118,0 -0.290886,0.129707 -0.290886,0.290887 v 0.581773 c 0,0.16118 0.129706,0.290886 0.290886,0.290886 h 0.581774 c 0.16118,0 0.290886,-0.129706 0.290886,-0.290886 v -0.581773 c 0,-0.16118 -0.129706,-0.290887 -0.290886,-0.290887 z m -1.454431,1.454432 c -0.16118,0 -0.290887,0.129706 -0.290887,0.290886 v 0.581774 c 0,0.16118 0.129707,0.290886 0.290887,0.290886 h 0.581773 c 0.16118,0 0.290886,-0.129706 0.290886,-0.290886 v -0.581774 c 0,-0.16118 -0.129706,-0.290886 -0.290886,-0.290886 z m 1.454431,0 c -0.16118,0 -0.290886,0.129706 -0.290886,0.290886 v 0.581774 c 0,0.16118 0.129706,0.290886 0.290886,0.290886 h 0.581774 c 0.16118,0 0.290886,-0.129706 0.290886,-0.290886 v -0.581774 c 0,-0.16118 -0.129706,-0.290886 -0.290886,-0.290886 z m 1.454432,0 c -0.16118,0 -0.290886,0.129706 -0.290886,0.290886 v 0.581774 c 0,0.16118 0.129706,0.290886 0.290886,0.290886 h 0.581773 c 0.16118,0 0.290887,-0.129706 0.290887,-0.290886 v -0.581774 c 0,-0.16118 -0.129707,-0.290886 -0.290887,-0.290886 z m -3.19975,1.454432 c -0.16118,0 -0.290886,0.129706 -0.290886,0.290886 v 0.87266 c 0,0.16118 0.129706,0.290886 0.290886,0.290886 h 0.87266 c 0.16118,0 0.290886,-0.129706 0.290886,-0.290886 v -0.87266 c 0,-0.16118 -0.129706,-0.290886 -0.290886,-0.290886 z m 1.745318,0 c -0.16118,0 -0.290886,0.129706 -0.290886,0.290886 v 0.581773 c 0,0.16118 0.129706,0.290887 0.290886,0.290887 h 0.581774 c 0.16118,0 0.290886,-0.129707 0.290886,-0.290887 V 61.23856 c 0,-0.16118 -0.129706,-0.290886 -0.290886,-0.290886 z m 1.745319,0.290886 c -0.16118,0 -0.290887,0.129707 -0.290887,0.290887 v 0.290886 c 0,0.16118 0.129707,0.290887 0.290887,0.290887 h 0.290886 c 0.16118,0 0.290887,-0.129707 0.290887,-0.290887 v -0.290886 c 0,-0.16118 -0.129707,-0.290887 -0.290887,-0.290887 z" />
      <path
         style="color:#090d11;opacity:0.653;fill:url(#radialGradient1172);fill-opacity:1;stroke-width:0.29088637"
         id="path1170"
         d="m 33.164062,57.792969 c -0.137044,0 -0.246093,0.109049 -0.246093,0.246093 v 0.873047 c 0,0.137045 0.109049,0.246094 0.246093,0.246094 h 0.873047 c 0.137045,0 0.244141,-0.108686 0.244141,-0.246094 v -0.873047 c 0,-0.137407 -0.107096,-0.246093 -0.244141,-0.246093 z m -2.910156,0.291015 c -0.137044,0 -0.246093,0.10905 -0.246094,0.246094 v 0.291016 c 0,0.137044 0.10905,0.246093 0.246094,0.246094 h 0.291016 c 0.137044,0 0.246093,-0.10905 0.246094,-0.246094 v -0.291016 c 0,-0.137044 -0.10905,-0.246094 -0.246094,-0.246094 z m 1.455078,0 c -0.137044,0 -0.246093,0.10905 -0.246093,0.246094 v 0.582031 c 0,0.137045 0.109049,0.246094 0.246093,0.246094 h 0.582032 c 0.137044,0 0.246093,-0.109049 0.246093,-0.246094 v -0.582031 c 0,-0.137044 -0.109049,-0.246094 -0.246093,-0.246094 z m -1.455078,1.455078 c -0.137407,0 -0.246093,0.107097 -0.246094,0.244141 v 0.582031 c 0,0.137045 0.10905,0.246094 0.246094,0.246094 h 0.582032 c 0.137044,0 0.246093,-0.109049 0.246093,-0.246094 v -0.582031 c 0,-0.137044 -0.108686,-0.244141 -0.246093,-0.244141 z m 1.455078,0 c -0.137407,0 -0.246093,0.107097 -0.246093,0.244141 v 0.582031 c 0,0.137045 0.109049,0.246094 0.246093,0.246094 h 0.582032 c 0.137044,0 0.246093,-0.109049 0.246093,-0.246094 v -0.582031 c 0,-0.137044 -0.108686,-0.244141 -0.246093,-0.244141 z m 1.455078,0 c -0.137407,0 -0.246093,0.107097 -0.246093,0.244141 v 0.582031 c 0,0.137045 0.109049,0.246094 0.246093,0.246094 h 0.582032 c 0.137044,0 0.246094,-0.109049 0.246094,-0.246094 v -0.582031 c 0,-0.137044 -0.108687,-0.244141 -0.246094,-0.244141 z m -3.201171,1.453126 c -0.137045,0 -0.244141,0.108686 -0.244141,0.246093 v 0.873047 c 0,0.137407 0.107096,0.246094 0.244141,0.246094 h 0.873047 c 0.137044,0 0.246093,-0.109049 0.246093,-0.246094 v -0.873047 c 0,-0.137044 -0.109049,-0.246093 -0.246093,-0.246093 z m 1.746093,0 c -0.137044,0 -0.246093,0.109049 -0.246093,0.246093 v 0.582031 c 0,0.137046 0.109049,0.246094 0.246093,0.246094 h 0.582032 c 0.137044,0 0.246093,-0.109049 0.246093,-0.246094 v -0.582031 c 0,-0.137044 -0.109049,-0.246093 -0.246093,-0.246093 z m 1.746094,0.291015 c -0.137044,0 -0.246094,0.10905 -0.246094,0.246094 v 0.291015 c 0,0.137046 0.10905,0.246094 0.246094,0.246094 h 0.291016 c 0.137044,0 0.246094,-0.109049 0.246094,-0.246094 v -0.291015 c 0,-0.137045 -0.10905,-0.246094 -0.246094,-0.246094 z" />
      <path
         style="color:#090d11;opacity:0.653;fill:url(#radialGradient1184);fill-opacity:1;stroke-width:0.29088637"
         id="path1182"
         d="m 33.164062,57.851562 c -0.105098,0 -0.1875,0.0824 -0.1875,0.1875 v 0.873047 c 0,0.105099 0.0824,0.1875 0.1875,0.1875 h 0.873047 c 0.105099,0 0.185547,-0.08156 0.185547,-0.1875 v -0.873047 c 0,-0.105942 -0.08045,-0.1875 -0.185547,-0.1875 z m -2.910156,0.291016 c -0.105098,0 -0.1875,0.0824 -0.1875,0.1875 v 0.291016 c 0,0.105099 0.0824,0.1875 0.1875,0.1875 h 0.291016 c 0.105099,0 0.187499,-0.0824 0.1875,-0.1875 v -0.291016 c 0,-0.105098 -0.0824,-0.1875 -0.1875,-0.1875 z m 1.455078,0 c -0.105098,0 -0.1875,0.0824 -0.1875,0.1875 v 0.582031 c 0,0.105099 0.0824,0.1875 0.1875,0.1875 h 0.582032 c 0.105098,0 0.1875,-0.0824 0.1875,-0.1875 v -0.582031 c 0,-0.105099 -0.0824,-0.1875 -0.1875,-0.1875 z m -1.455078,1.455078 c -0.105942,0 -0.1875,0.08045 -0.1875,0.185547 v 0.582031 c 0,0.105099 0.0824,0.1875 0.1875,0.1875 h 0.582032 c 0.105098,0 0.1875,-0.0824 0.1875,-0.1875 v -0.582031 c 0,-0.105099 -0.08156,-0.185547 -0.1875,-0.185547 z m 1.455078,0 c -0.105942,0 -0.1875,0.08045 -0.1875,0.185547 v 0.582031 c 0,0.105099 0.0824,0.1875 0.1875,0.1875 h 0.582032 c 0.105098,0 0.1875,-0.0824 0.1875,-0.1875 v -0.582031 c 0,-0.105099 -0.08156,-0.185547 -0.1875,-0.185547 z m 1.455078,0 c -0.105942,0 -0.1875,0.08045 -0.1875,0.185547 v 0.582031 c 0,0.105099 0.0824,0.1875 0.1875,0.1875 h 0.582032 c 0.105098,0 0.1875,-0.0824 0.1875,-0.1875 v -0.582031 c 0,-0.105099 -0.08156,-0.185547 -0.1875,-0.185547 z m -3.201171,1.453125 c -0.105099,0 -0.185547,0.08156 -0.185547,0.1875 v 0.873047 c 0,0.105942 0.08045,0.1875 0.185547,0.1875 h 0.873047 c 0.105098,0 0.1875,-0.0824 0.1875,-0.1875 v -0.873047 c 0,-0.105099 -0.0824,-0.1875 -0.1875,-0.1875 z m 1.746093,0 c -0.105099,0 -0.1875,0.0824 -0.1875,0.1875 v 0.582031 c 0,0.105101 0.0824,0.187501 0.1875,0.1875 h 0.582032 c 0.105098,0 0.1875,-0.0824 0.1875,-0.1875 v -0.582031 c 0,-0.105099 -0.0824,-0.1875 -0.1875,-0.1875 z m 1.746094,0.291016 c -0.105098,0 -0.1875,0.0824 -0.1875,0.1875 v 0.291015 c 0,0.1051 0.0824,0.187501 0.1875,0.1875 h 0.291016 c 0.105098,0 0.1875,-0.0824 0.1875,-0.1875 v -0.291015 c 0,-0.105099 -0.0824,-0.1875 -0.1875,-0.1875 z" />
      <path
         style="color:#090d11;opacity:0.653;fill:url(#radialGradient1178);fill-opacity:1;stroke-width:0.29088637"
         id="path1176"
         d="m 33.164062,57.900391 c -0.07926,0 -0.138671,0.05942 -0.138671,0.138671 v 0.873047 c 0,0.07926 0.05941,0.138672 0.138671,0.138672 h 0.873047 c 0.07952,0 0.136719,-0.05776 0.136719,-0.138672 v -0.873047 c 0,-0.08091 -0.0572,-0.138671 -0.136719,-0.138671 z m -2.910156,0.291015 c -0.07926,0 -0.138672,0.05941 -0.138672,0.138672 v 0.291016 c 0,0.07926 0.05941,0.138672 0.138672,0.138672 h 0.291016 c 0.07926,0 0.138671,-0.05941 0.138672,-0.138672 v -0.291016 c 0,-0.07926 -0.05941,-0.138672 -0.138672,-0.138672 z m 1.455078,0 c -0.07926,0 -0.138672,0.05941 -0.138672,0.138672 v 0.582031 c 0,0.07926 0.05941,0.138672 0.138672,0.138672 h 0.582032 c 0.07926,0 0.138672,-0.05941 0.138672,-0.138672 v -0.582031 c 0,-0.07926 -0.05941,-0.138672 -0.138672,-0.138672 z m -1.455078,1.455078 c -0.08092,0 -0.138672,0.0572 -0.138672,0.136719 v 0.582031 c 0,0.07926 0.05941,0.138672 0.138672,0.138672 h 0.582032 c 0.07926,0 0.138671,-0.05941 0.138671,-0.138672 v -0.582031 c 0,-0.07952 -0.05776,-0.136719 -0.138671,-0.136719 z m 1.455078,0 c -0.08092,0 -0.138672,0.0572 -0.138672,0.136719 v 0.582031 c 0,0.07926 0.05941,0.138672 0.138672,0.138672 h 0.582032 c 0.07926,0 0.138672,-0.05941 0.138672,-0.138672 v -0.582031 c 0,-0.07952 -0.05776,-0.136719 -0.138672,-0.136719 z m 1.455078,0 c -0.08091,0 -0.138671,0.0572 -0.138671,0.136719 v 0.582031 c 0,0.07926 0.05941,0.138672 0.138671,0.138672 h 0.582032 c 0.07926,0 0.138672,-0.05941 0.138672,-0.138672 v -0.582031 c 0,-0.07952 -0.05776,-0.136719 -0.138672,-0.136719 z m -3.201171,1.453125 c -0.07953,0 -0.136719,0.05776 -0.136719,0.138672 v 0.873047 c 0,0.08092 0.05719,0.138672 0.136719,0.138672 h 0.873047 c 0.07926,0 0.138671,-0.05941 0.138671,-0.138672 v -0.873047 c 0,-0.07926 -0.05941,-0.138672 -0.138671,-0.138672 z m 1.746093,0 c -0.07926,0 -0.138672,0.05941 -0.138672,0.138672 v 0.582031 c 0,0.07926 0.05941,0.138674 0.138672,0.138672 h 0.582032 c 0.07926,0 0.138672,-0.05941 0.138672,-0.138672 v -0.582031 c 0,-0.07926 -0.05941,-0.138672 -0.138672,-0.138672 z m 1.746094,0.291016 c -0.07926,0 -0.138672,0.05941 -0.138672,0.138672 v 0.291015 c 0,0.07926 0.05941,0.138674 0.138672,0.138672 h 0.291016 c 0.07926,0 0.138672,-0.05941 0.138672,-0.138672 v -0.291015 c 0,-0.07926 -0.05941,-0.138672 -0.138672,-0.138672 z" />
      <path
         d="m 33.164062,57.955078 c -0.0534,0 -0.08398,0.03058 -0.08398,0.08398 v 0.873047 c 0,0.05341 0.03058,0.08398 0.08398,0.08398 h 0.873047 c 0.05398,0 0.08203,-0.02805 0.08203,-0.08398 v -0.873047 c 0,-0.05594 -0.02805,-0.08398 -0.08203,-0.08398 z m -2.910156,0.291016 c -0.05341,0 -0.08398,0.03058 -0.08398,0.08398 v 0.291016 c 0,0.05341 0.03058,0.08398 0.08398,0.08398 h 0.291016 c 0.05341,0 0.08399,-0.03058 0.08398,-0.08398 v -0.291016 c 0,-0.05341 -0.03058,-0.08398 -0.08398,-0.08398 z m 1.455078,0 c -0.0534,0 -0.08398,0.03058 -0.08398,0.08398 v 0.582031 c 0,0.05341 0.03058,0.08398 0.08398,0.08398 h 0.582032 c 0.0534,0 0.08398,-0.03058 0.08398,-0.08398 v -0.582031 c 0,-0.05341 -0.03058,-0.08398 -0.08398,-0.08398 z m -1.455078,1.455078 c -0.05594,0 -0.08398,0.02805 -0.08398,0.08203 v 0.582031 c 0,0.05341 0.03058,0.08398 0.08398,0.08398 h 0.582032 c 0.0534,0 0.08398,-0.03058 0.08398,-0.08398 v -0.582031 c 0,-0.05398 -0.02805,-0.08203 -0.08398,-0.08203 z m 1.455078,0 c -0.05594,0 -0.08398,0.02805 -0.08398,0.08203 v 0.582031 c 0,0.05341 0.03058,0.08398 0.08398,0.08398 h 0.582032 c 0.0534,0 0.08398,-0.03058 0.08398,-0.08398 v -0.582031 c 0,-0.05398 -0.02804,-0.08203 -0.08398,-0.08203 z m 1.455078,0 c -0.05594,0 -0.08398,0.02805 -0.08398,0.08203 v 0.582031 c 0,0.05341 0.03058,0.08398 0.08398,0.08398 h 0.582032 c 0.05341,0 0.08398,-0.03058 0.08398,-0.08398 v -0.582031 c 0,-0.05398 -0.02804,-0.08203 -0.08398,-0.08203 z m -3.201171,1.453125 c -0.05398,0 -0.08203,0.02805 -0.08203,0.08398 v 0.873047 c 0,0.05594 0.02805,0.08398 0.08203,0.08398 h 0.873047 c 0.0534,0 0.08398,-0.03058 0.08398,-0.08398 v -0.873047 c 0,-0.0534 -0.03058,-0.08398 -0.08398,-0.08398 z m 1.746093,0 c -0.05341,0 -0.08398,0.03058 -0.08398,0.08398 v 0.582031 c 0,0.05341 0.03058,0.08398 0.08398,0.08398 h 0.582032 c 0.0534,0 0.08398,-0.03058 0.08398,-0.08398 v -0.582031 c 0,-0.05341 -0.03058,-0.08398 -0.08398,-0.08398 z m 1.746094,0.291015 c -0.05341,0 -0.08398,0.03058 -0.08398,0.08398 v 0.291015 c 0,0.05341 0.03058,0.08398 0.08398,0.08398 h 0.291016 c 0.05341,0 0.08398,-0.03058 0.08398,-0.08398 v -0.291015 c 0,-0.05341 -0.03058,-0.08398 -0.08398,-0.08398 z"
         id="path1201"
         style="color:#090d11;opacity:0.653;fill:url(#radialGradient1203);fill-opacity:1;stroke-width:0.29088637" />
      <path
         d="m 33.164062,58.015625 c -0.01526,0 -0.01838,0.0028 -0.01953,0.0039 -0.0012,0.0012 -0.0039,0.0043 -0.0039,0.01953 v 0.873047 c 0,0.01527 0.0028,0.01838 0.0039,0.01953 0.0012,0.0012 0.0043,0.0039 0.01953,0.0039 h 0.873047 c 0.01661,0 0.01767,-0.002 0.01758,-0.002 -9.4e-5,9.4e-5 0.0039,-0.0035 0.0039,-0.02148 v -0.873047 c 0,-0.01795 -0.004,-0.02158 -0.0039,-0.02148 9.3e-5,9.5e-5 -9.66e-4,-0.002 -0.01758,-0.002 z m -2.910156,0.291016 c -0.01527,0 -0.01838,0.0028 -0.01953,0.0039 -0.0012,0.0012 -0.0039,0.0043 -0.0039,0.01953 v 0.291016 c 0,0.01527 0.0028,0.01838 0.0039,0.01953 0.0012,0.0012 0.0043,0.0039 0.01953,0.0039 h 0.291016 c 0.01527,0 0.01838,-0.0028 0.01953,-0.0039 0.0012,-0.0012 0.0039,-0.0043 0.0039,-0.01953 v -0.291016 c 0,-0.01527 -0.0028,-0.01838 -0.0039,-0.01953 -0.0012,-0.0012 -0.0043,-0.0039 -0.01953,-0.0039 z m 1.455078,0 c -0.01526,0 -0.01838,0.0028 -0.01953,0.0039 -0.0012,0.0012 -0.0039,0.0043 -0.0039,0.01953 v 0.582031 c 0,0.01527 0.0028,0.01838 0.0039,0.01953 0.0012,0.0012 0.0043,0.0039 0.01953,0.0039 h 0.582032 c 0.01526,0 0.01838,-0.0028 0.01953,-0.0039 0.0012,-0.0012 0.0039,-0.0043 0.0039,-0.01953 v -0.582031 c 0,-0.01526 -0.0028,-0.01838 -0.0039,-0.01953 -0.0012,-0.0012 -0.0043,-0.0039 -0.01953,-0.0039 z m -1.455078,1.455078 c -0.01795,0 -0.02158,0.004 -0.02148,0.0039 9.5e-5,-9.4e-5 -0.002,9.65e-4 -0.002,0.01758 v 0.582031 c 0,0.01527 0.0028,0.01838 0.0039,0.01953 0.0012,0.0012 0.0043,0.0039 0.01953,0.0039 h 0.582032 c 0.01526,0 0.01838,-0.0028 0.01953,-0.0039 0.0012,-0.0012 0.0039,-0.0043 0.0039,-0.01953 v -0.582031 c 0,-0.01661 -0.002,-0.01767 -0.002,-0.01758 9.5e-5,9.3e-5 -0.0035,-0.0039 -0.02148,-0.0039 z m 1.455078,0 c -0.01795,0 -0.02158,0.004 -0.02148,0.0039 9.5e-5,-9.4e-5 -0.002,9.65e-4 -0.002,0.01758 v 0.582031 c 0,0.01527 0.0028,0.01838 0.0039,0.01953 0.0012,0.0012 0.0043,0.0039 0.01953,0.0039 h 0.582032 c 0.01526,0 0.01838,-0.0028 0.01953,-0.0039 0.0012,-0.0012 0.0039,-0.0043 0.0039,-0.01953 v -0.582031 c 0,-0.01661 -0.002,-0.01767 -0.002,-0.01758 9.5e-5,9.4e-5 -0.0035,-0.0039 -0.02148,-0.0039 z m 1.455078,0 c -0.01795,0 -0.02158,0.004 -0.02148,0.0039 9.5e-5,-9.3e-5 -0.002,9.66e-4 -0.002,0.01758 v 0.582031 c 0,0.01527 0.0028,0.01838 0.0039,0.01953 0.0012,0.0012 0.0043,0.0039 0.01953,0.0039 h 0.582032 c 0.01527,0 0.01838,-0.0028 0.01953,-0.0039 0.0012,-0.0012 0.0039,-0.0043 0.0039,-0.01953 v -0.582031 c 0,-0.01661 -0.002,-0.01767 -0.002,-0.01758 9.5e-5,9.4e-5 -0.0035,-0.0039 -0.02148,-0.0039 z m -3.201171,1.453125 c -0.01661,0 -0.01767,0.002 -0.01758,0.002 9.4e-5,-9.5e-5 -0.0039,0.0035 -0.0039,0.02148 v 0.873047 c 0,0.01795 0.004,0.02158 0.0039,0.02148 -9.2e-5,-9.4e-5 9.67e-4,0.002 0.01758,0.002 h 0.873047 c 0.01527,0 0.01838,-0.0028 0.01953,-0.0039 0.0012,-0.0012 0.0039,-0.0043 0.0039,-0.01953 v -0.873047 c 0,-0.01526 -0.0028,-0.01838 -0.0039,-0.01953 -0.0012,-0.0012 -0.0043,-0.0039 -0.01953,-0.0039 z m 1.746093,0 c -0.01527,0 -0.01838,0.0028 -0.01953,0.0039 -0.0012,0.0012 -0.0039,0.0043 -0.0039,0.01953 v 0.582031 c 0,0.01527 0.0028,0.01838 0.0039,0.01953 0.0012,0.0012 0.0043,0.0039 0.01953,0.0039 h 0.582032 c 0.01526,0 0.01838,-0.0028 0.01953,-0.0039 0.0012,-0.0012 0.0039,-0.0043 0.0039,-0.01953 v -0.582031 c 0,-0.01527 -0.0028,-0.01838 -0.0039,-0.01953 -0.0012,-0.0012 -0.0043,-0.0039 -0.01953,-0.0039 z m 1.746094,0.291015 c -0.01527,0 -0.01838,0.0028 -0.01953,0.0039 -0.0012,0.0012 -0.0039,0.0043 -0.0039,0.01953 v 0.291015 c 0,0.01527 0.0028,0.01838 0.0039,0.01953 0.0012,0.0012 0.0043,0.0039 0.01953,0.0039 h 0.291016 c 0.01527,0 0.01838,-0.0028 0.01953,-0.0039 0.0012,-0.0012 0.0039,-0.0043 0.0039,-0.01953 v -0.291015 c 0,-0.01527 -0.0028,-0.01838 -0.0039,-0.01953 -0.0012,-0.0012 -0.0043,-0.0039 -0.01953,-0.0039 z"
         id="path888"
         style="color:#090d11;fill:url(#radialGradient1168);fill-opacity:1;stroke-width:0.29088637" />
    </g>
    <g
       id="g2308">
      <path
         id="path2269"
         style="opacity:1;vector-effect:none;fill:url(#radialGradient2296-2);fill-opacity:1;fill-rule:nonzero;stroke:none;stroke-width:1.90849996;stroke-linecap:butt;stroke-linejoin:miter;stroke-miterlimit:4;stroke-dasharray:none;stroke-dashoffset:0;stroke-opacity:1;marker:none;paint-order:fill markers stroke"
         d="m 32,0.10438319 c -8.764736,0 -19.154205,0.41873312 -24.3510697,0.71204742 C 3.6697078,1.0125654 1.167523,1.2106629 1.1347268,1.2153285 c -0.63932783,0.0515 -0.88381963,0.2257671 -0.90895417,0.592577 -0.015755,0.00319 -0.0281435,2.4843892 -0.0398767,6.2071145 -0.0100122,3.722511 -0.0188751,8.685394 -0.0275619,13.648263 -0.0104198,4.96331 -0.0322075,9.928451 -0.0340125,13.650022 -0.005269,3.725174 -0.008268,6.208209 -0.0129013,6.212392 -0.005308,0.341567 0.13104607,0.627493 0.33560787,0.843857 0.0875054,0.04967 0.1846244,0.0986 0.30144029,0.135139 0.0870427,0.02515 0.17465328,0.0078 0.24553301,-0.04387 0.0708798,-0.05649 0.1119854,-0.128256 0.1115593,-0.218892 -4.684e-4,0.0052 -0.019589,-2.49792 -0.044574,-6.247183 C 1.0362903,32.239023 1.0053278,27.23147 0.97230718,22.223849 0.9389938,17.216251 0.90568042,29.288792 0.88069539,25.533093 0.85571035,21.871506 0.86698001,19.454 1.0730362,19.5023 2.324036,19.437436 5.2830216,1.9927485 9.2112549,1.8760526 14.122138,1.7067866 23.252384,1.4254808 32,1.4254807 c 8.747616,1e-7 17.877862,0.2813059 22.788745,0.450572 3.928233,0.1166958 6.887219,17.5613833 8.138218,17.6262473 0.206058,-0.0483 0.217326,2.369206 0.192341,6.030793 -0.02499,3.755699 -0.0583,-8.316842 -0.09161,-3.309244 -0.03301,5.007621 -0.06398,10.015174 -0.08868,13.770896 -0.02499,3.749263 -0.04409,6.252392 -0.04457,6.247183 -4.26e-4,0.09064 0.04068,0.162402 0.111559,0.218892 0.07088,0.05169 0.158478,0.06902 0.245533,0.04387 0.116816,-0.03654 0.213936,-0.08547 0.301441,-0.135139 0.204563,-0.216364 0.340916,-0.50229 0.335608,-0.843857 -0.0046,-0.0042 -0.0076,-2.487218 -0.0129,-6.212392 -0.0018,-3.721571 -0.0236,-8.686712 -0.03401,-13.650022 -0.0087,-4.962866 -0.01756,-9.925749 -0.02757,-13.64826 C 63.80237,4.2922947 63.789981,1.8111004 63.774227,1.8079055 63.749093,1.4410956 63.504601,1.2668286 62.865273,1.2153285 62.832477,1.2106629 60.330292,1.0125654 56.35107,0.81643061 51.154205,0.52311631 40.764736,0.10438319 32,0.10438319 c 0,0 0,0 0,0" />
      <path
         id="path2267"
         style="opacity:1;vector-effect:none;fill:url(#radialGradient2294-1);fill-opacity:1;fill-rule:nonzero;stroke:none;stroke-width:1.90849996;stroke-linecap:butt;stroke-linejoin:miter;stroke-miterlimit:4;stroke-dasharray:none;stroke-dashoffset:0;stroke-opacity:1;marker:none;paint-order:fill markers stroke"
         d="m 32,0.19412668 c -9.149218,0 -21.847013,0.54197189 -26.6756112,0.85069612 -2.564087,0.1279945 -4.1690034,0.2596392 -4.2299961,0.268316 -0.44110804,0.035696 -0.62776799,0.1508115 -0.67451196,0.3883853 -0.0293003,0.00594 -0.0523398,1.5735404 -0.0741608,3.9266752 -0.0186201,2.352736 -0.035103,5.4888537 -0.0512582,8.6249437 -0.0193783,3.136911 -0.0598978,6.277227 -0.0632548,8.628215 -0.009799,2.357688 -0.0153766,3.928711 -0.0239932,3.936491 -0.009872,0.220482 0.0716935,0.406473 0.19595087,0.548409 0.0481867,0.03859 0.10498727,0.0837 0.17438771,0.116988 0.0534408,0.02142 0.10229806,0.01489 0.14703024,-0.01184 0.0447322,-0.03565 0.0706739,-0.06365 0.070405,-0.120851 -8.7109e-4,0.0097 -0.015965,-1.569211 -0.0317331,-3.927465 -0.0152316,-2.370262 -0.0318835,-5.530472 -0.0523632,-8.690808 -0.0210241,-3.160294 -0.0420481,25.444207 -0.0578162,23.073987 -0.0157681,-2.195197 0.0256559,-3.61486 0.40886904,-3.525034 C 1.85145,34.240302 3.5776455,1.9608392 6.0567526,1.8871925 10.363343,1.7157783 21.467249,1.3160744 32,1.3160743 c 10.532751,1e-7 21.636657,0.399704 25.943247,0.5711182 2.479108,0.073647 4.205303,32.3531095 4.994808,32.3940455 0.383216,-0.08983 0.424638,1.329837 0.408869,3.525034 -0.01577,2.37022 -0.03679,-26.234281 -0.05782,-23.073987 -0.02047,3.160336 -0.03713,6.320546 -0.05236,8.690808 -0.01577,2.358254 -0.03084,3.937153 -0.03173,3.927465 -2.69e-4,0.0572 0.02567,0.0852 0.0704,0.120851 0.04473,0.02672 0.09357,0.03325 0.147031,0.01184 0.0694,-0.03329 0.126202,-0.0784 0.174387,-0.116988 0.12426,-0.141936 0.205823,-0.327927 0.195951,-0.548409 -0.0086,-0.0078 -0.01419,-1.578803 -0.02399,-3.936491 -0.0034,-2.350988 -0.04388,-5.491304 -0.06326,-8.628215 -0.01615,-3.13609 -0.03264,-6.2722077 -0.05126,-8.6249437 C 63.632457,3.2750645 63.609418,1.7074659 63.580119,1.7015241 63.533375,1.4639503 63.346715,1.3488351 62.905607,1.3131388 62.844614,1.304462 61.239698,1.1728173 58.675611,1.0448228 53.847013,0.73609857 41.149218,0.19412668 32,0.19412668 c 0,0 0,0 0,0" />
      <path
         id="path1260-7"
         d="M 32,0 C 15.364933,0 1.1816406,1.1015625 1.1816406,1.1015625 0.31175766,1.1714444 0,1.4145127 0,1.9316406 V 58.632812 c 0,0.482403 0.20008079,0.884567 0.49804688,1.1875 0.13323797,0.06256 0.2772526,0.115941 0.44921874,0.15625 A 0.42318665,0.42318665 0 0 0 1.4667969,59.5625 L 1.0859375,2.3125 C 4.6614909,2.127109 18.657452,1.5527345 32,1.5527344 45.342548,1.5527346 59.338509,2.127109 62.914062,2.3125 l -0.380859,57.25 a 0.42318665,0.42318665 0 0 0 0.519531,0.414062 c 0.171968,-0.04031 0.315981,-0.09369 0.449219,-0.15625 C 63.799919,59.517379 64,59.115215 64,58.632812 V 1.9316406 C 64,1.4145127 63.688242,1.1714444 62.818359,1.1015625 62.818359,1.1015625 48.635067,0 32,0 Z"
         style="opacity:1;vector-effect:none;fill:url(#radialGradient848-3);fill-opacity:1;fill-rule:nonzero;stroke:none;stroke-width:1.90849996;stroke-linecap:butt;stroke-linejoin:miter;stroke-miterlimit:4;stroke-dasharray:none;stroke-dashoffset:0;stroke-opacity:1;marker:none;paint-order:fill markers stroke" />
      <path
         id="path1260"
         d="m 32,0.34765625 c -9.806975,0 -26.4537612,0.75280385 -30.6523438,1.08789065 -0.1431299,0.011423 -0.2130354,0.029383 -0.3222656,0.044922 -0.10200142,0.00866 -0.18972495,0.02258 -0.27343748,0.039062 -0.0524731,0.010641 -0.093734,0.015297 -0.1328125,0.025391 -0.0333463,0.00938 -0.062865,0.02034 -0.0917969,0.03125 -0.034704,0.01238 -0.10726944,0.030858 -0.11328125,0.037109 -0.0175493,0.018248 -0.0275376,0.029036 -0.0429687,0.042969 -0.0176787,0.013335 -0.0298446,0.028362 -0.0429687,0.042969 -0.019078,0.019636 -0.0312527,0.058198 -0.0429687,0.085937 -0.004044,0.015034 -0.0214844,0.026983 -0.0214844,0.042969 V 1.875 c -0.00156,0.017349 -0.009766,0.019584 -0.009766,0.041016 9.607e-4,-7.47e-5 0.008791,7.53e-5 0.009766,0 v 56.886718 c 0,0.313446 0.0930108,0.600852 0.77929693,0.761719 L 0.66015625,1.90625 C 3.9329473,1.7311609 18.41331,1.1289063 32,1.1289062 c 13.58669,10e-8 28.067053,0.6022547 31.339844,0.7773438 l -0.382813,57.658203 c 0.686291,-0.160867 0.779297,-0.448273 0.779297,-0.761719 V 1.9160156 c 10e-4,7.53e-5 0.0088,-7.47e-5 0.0098,0 0,-0.021432 -0.0082,-0.023667 -0.0098,-0.041016 V 1.828125 c 0,-0.015986 -0.01748,-0.027935 -0.02148,-0.042969 -0.01172,-0.027739 -0.02389,-0.066302 -0.04297,-0.085937 -0.01312,-0.014607 -0.02529,-0.029634 -0.04297,-0.042969 -0.01543,-0.013933 -0.02542,-0.024721 -0.04297,-0.042969 -0.006,-0.00625 -0.07858,-0.024729 -0.113282,-0.037109 -0.02893,-0.01091 -0.05845,-0.02187 -0.0918,-0.03125 C 63.341776,1.534828 63.300516,1.530172 63.248044,1.519531 63.164334,1.503049 63.076608,1.489128 62.974606,1.480469 62.865376,1.46493 62.795471,1.44697 62.652341,1.435547 58.453761,1.1004601 41.806975,0.34765625 32,0.34765625 Z"
         style="opacity:1;vector-effect:none;fill:url(#radialGradient4987-2-2);fill-opacity:1;fill-rule:nonzero;stroke:none;stroke-width:1.90849996;stroke-linecap:butt;stroke-linejoin:miter;stroke-miterlimit:4;stroke-dasharray:none;stroke-dashoffset:0;stroke-opacity:1;marker:none;paint-order:fill markers stroke" />
      <path
         id="path2263"
         style="opacity:1;vector-effect:none;fill:url(#radialGradient2290-4);fill-opacity:1;fill-rule:nonzero;stroke:none;stroke-width:1.90849996;stroke-linecap:butt;stroke-linejoin:miter;stroke-miterlimit:4;stroke-dasharray:none;stroke-dashoffset:0;stroke-opacity:1;marker:none;paint-order:fill markers stroke"
         d="m 32,0.32118356 c -9.69356,0 -25.6594321,0.71645064 -29.9666466,1.04699184 -0.560569,0.031523 -0.8951522,0.069085 -0.996065,0.083441 -0.16047261,0.013322 -0.26525548,0.044691 -0.34259362,0.099295 -0.0484775,0.00983 -0.0865965,0.2839805 -0.12269934,0.6980786 -0.0308071,0.4134385 -0.058078,0.963261 -0.0848069,1.5130373 -0.0320614,0.5511343 -0.0991013,1.1079026 -0.10465532,1.5184503 -0.016213,0.4216314 -0.0254407,0.7014461 -0.0396968,0.7143182 -0.0163325,0.049053 -0.0123367,0.093558 -0.001772,0.1301204 -0.00748,0.022905 -0.007761,0.062595 -0.005491,0.091291 0.005868,0.016135 -1.409e-4,0.024897 0.007572,0.033519 0.007713,-0.00615 0.0121861,0.027817 0.0121397,0.017954 -0.001441,0.016029 -0.0108345,-0.254367 -0.0135533,-0.6432576 -0.001831,-0.4087597 0.001777,-0.9535421 -9.4708e-4,-1.4985326 -0.003625,-0.5449209 -0.00725,51.465172 -0.009969,51.056481 -0.002719,-0.119112 0.081397,-0.126052 0.71542506,0.02257 C 1.182373,55.197879 1.163211,1.9156627 1.5906767,1.902964 5.041723,1.7285085 18.939892,1.1611792 32,1.1611791 c 13.060108,1e-7 26.958277,0.5673294 30.409324,0.7417849 0.427465,0.012699 0.408303,53.294915 0.544435,53.301973 0.634033,-0.148618 0.718144,-0.141678 0.715425,-0.02257 -0.0027,0.408691 -0.0063,-51.6014019 -0.01,-51.056481 -0.0027,0.5449905 8.84e-4,1.0897729 -9.47e-4,1.4985326 -0.0027,0.3888906 -0.01208,0.6592866 -0.01355,0.6432587 -4.7e-5,0.00986 0.0044,-0.024102 0.01214,-0.017954 0.0077,-0.00862 0.0017,-0.017384 0.0076,-0.033519 0.0023,-0.028696 0.002,-0.068387 -0.0055,-0.091291 0.01057,-0.036562 0.01456,-0.081068 -0.0018,-0.1301204 -0.01425,-0.012872 -0.02348,-0.2926868 -0.0397,-0.7143182 -0.0056,-0.4105477 -0.0726,-0.967316 -0.104656,-1.5184503 -0.02673,-0.5497763 -0.054,-1.0995988 -0.08481,-1.5130373 C 63.391898,1.8348922 63.35378,1.5607425 63.305305,1.5509117 63.227967,1.4963075 63.123184,1.4649383 62.962711,1.4516165 62.861799,1.4372607 62.527216,1.3996985 61.966647,1.3681754 57.659432,1.0376342 41.69356,0.32118356 32,0.32118356 c 0,0 0,0 0,0" />
      <path
         id="path2265"
         style="opacity:1;vector-effect:none;fill:url(#radialGradient2292-2);fill-opacity:1;fill-rule:nonzero;stroke:none;stroke-width:1.90849996;stroke-linecap:butt;stroke-linejoin:miter;stroke-miterlimit:4;stroke-dasharray:none;stroke-dashoffset:0;stroke-opacity:1;marker:none;paint-order:fill markers stroke"
         d="m 32,0.26740607 c -9.463164,0 -24.0458056,0.64260161 -28.5736986,0.96390863 -1.4085685,0.072355 -2.2808269,0.1497382 -2.3648433,0.1616904 -0.27925303,0.022792 -0.41869081,0.089607 -0.48307981,0.2216541 -0.0403606,0.00818 -0.0720972,0.8297935 -0.10215513,2.0645991 -0.0256489,1.2342564 -0.0483537,2.8787419 -0.0706072,4.523189 -0.0266932,1.6455777 -0.0825082,3.2958457 -0.0871323,4.5276957 -0.0134984,1.241078 -0.021181,2.067403 -0.0330502,2.07812 -0.0135979,0.121611 0.0232295,0.226001 0.081915,0.307163 0.0160814,0.02954 0.0399601,0.07153 0.0706439,0.102168 0.0260034,0.01837 0.0432169,0.02066 0.0665985,0.01432 0.0233816,-0.01863 0.0369414,-0.0109 0.0368008,-0.0408 -0.0012,0.01334 -0.0130061,-0.810883 -0.0212481,-2.033316 -0.007503,-1.23897 -0.0124698,-2.890746 -0.0227092,-4.5426957 C 0.48644503,6.9632109 0.47545571,49.066764 0.46721373,47.827846 0.45897174,46.83002 0.52501804,46.225138 1.0528874,46.348871 1.4655634,46.327474 2.1851331,1.9347839 3.4809668,1.8962886 7.2941267,1.7231204 20.009609,1.2267394 32,1.2267393 c 11.990391,1e-7 24.705874,0.4963811 28.519033,0.6695493 1.295834,0.038495 2.015403,44.4311854 2.428079,44.4525824 0.527873,-0.123733 0.593916,0.481149 0.585674,1.478975 -0.0082,1.238918 -0.01923,-40.8646351 -0.03022,-39.2127437 -0.01022,1.6519497 -0.01521,3.3037257 -0.02271,4.5427017 -0.0082,1.222433 -0.02002,2.04666 -0.02125,2.033316 -1.4e-4,0.0299 0.01342,0.02216 0.0368,0.0408 0.02338,0.0063 0.04056,0.004 0.0666,-0.01432 0.03068,-0.03064 0.05456,-0.07262 0.07064,-0.102168 0.05869,-0.08116 0.09551,-0.185552 0.08191,-0.307163 -0.01187,-0.01072 -0.01955,-0.837042 -0.03305,-2.07812 -0.0046,-1.23185 -0.06044,-2.882118 -0.08713,-4.5276957 -0.02225,-1.6444471 -0.04496,-3.2889326 -0.07061,-4.523189 C 63.493716,2.4444527 63.46198,1.6228439 63.421622,1.6146592 63.357232,1.4826121 63.217795,1.415797 62.938542,1.3930051 62.854525,1.3810529 61.982267,1.3036699 60.573699,1.2313147 56.045805,0.91000768 41.463164,0.26740607 32,0.26740607 c 0,0 0,0 0,0" />
    </g>
  </g>
  <path
     style="color:#000000;fill:url(#d)"
     d="M 2 3.125 L 2 56 L 5 56 L 59 56 L 62 56 L 62 3.125 L 2 3.125 z "
     id="path37" />
  <g
     id="g108">
    <g
       id="g56">
      <rect
         id="rect42"
         fill="#b5d8f6"
         color="#000000"
         height="5"
         width="5"
         y="47"
         x="41" />
      <rect
         id="rect44"
         fill="#94e353"
         color="#000000"
         height="5"
         width="5"
         y="47"
         x="25" />
      <rect
         id="rect46"
         fill-opacity=".84347"
         fill="#ffd00e"
         color="#000000"
         height="5"
         width="5"
         y="47"
         x="33" />
      <rect
         id="rect48"
         fill="#dceefb"
         color="#000000"
         height="5"
         width="5"
         y="47"
         x="17" />
      <path
         id="path50"
         fill="#d9ecfc"
         color="#000000"
         d="m52 27.5a9.5 9.5 0 0 1-9.5 9.5 9.5 9.5 0 0 1-9.5-9.5 9.5 9.5 0 0 1 9.5-9.5 9.5 9.5 0 0 1 9.5 9.5z"
         transform="translate(2,-5)" />
      <rect
         id="rect52"
         fill-opacity=".31184"
         fill="#000000"
         color="#000000"
         height="7"
         width="1"
         y="16"
         x="44" />
      <rect
         id="rect54"
         fill-opacity=".31184"
         fill="#000000"
         color="#000000"
         height="7"
         width="1"
         y="-51"
         x="22"
         transform="rotate(90)" />
    </g>
    <g
       id="g106">
      <path
         id="path58"
         fill-opacity=".13958"
         fill="#000000"
         color="#000000"
         d="m1.313 28.397 11.591-3.1058 6 13-1 3h-12z" />
      <path
         id="path60"
         fill="url(#e)"
         color="#000000"
         d="m1.313 28.397 11.591-3.1058 2.847 10.625-0.70711 1.2247-10.625 2.847z" />
      <rect
         id="rect62"
         fill-opacity=".23084"
         fill="#ffffff"
         color="#000000"
         ry="0"
         rx="0"
         height="1.2985"
         width="3.5552"
         y="26.613"
         x="-3.1021"
         transform="matrix(.98093 -.19438 .19438 .98093 0 0)" />
      <path
         id="path64"
         stroke-width=".12666"
         stroke-opacity=".36484"
         stroke="#000000"
         fill="none"
         d="m6.3511 30.922c0.03005 0.08025 0.0986 0.13664 0.13628 0.21199 0.03598 0.07198 0.05453 0.1545 0.09085 0.22713 0.02324 0.04648 0.05247 0.0898 0.07571 0.13628 0.04446 0.08892 0.08076 0.1817 0.12114 0.27255s0.07285 0.18564 0.12113 0.27255c0.07696 0.13852 0.09864 0.11665 0.15142 0.25741 0.01461 0.03897 0.01788 0.08141 0.03028 0.12114 0.05438 0.174 0.04043 0.06588 0.07571 0.24227 0.02955 0.14776-0.0035 0.07071 0.04542 0.22713 0.01286 0.04116 0.03028 0.08076 0.04543 0.12113 0.01009 0.04542 0.01715 0.09163 0.03028 0.13628 0.01217 0.04137 0.03256 0.07997 0.04543 0.12114 0.03867 0.12376 0.05435 0.25446 0.09085 0.37854 0.02696 0.09168 0.05375 0.12415 0.0757 0.21198 0.0075 0.02978 0.0077 0.06106 0.01514 0.09085 0.0077 0.03097 0.02403 0.05955 0.03028 0.09085 4e-3 0.01979-5e-3 0.04098 0 0.06057 0.03307 0.13226 0.03082-0.01027 0.04543 0.12113 0.0059 0.05342-0.01422 0.14705 0 0.19684 5e-3 0.0175 0.02634 0.02766 0.03028 0.04542 0.01086 0.04887 0 0.22211 0 0.28769 0 0.03514 0.01079 0.08876 0 0.12114-0.0035 0.01071-0.01241 0.01934-0.01514 0.03028-0.0024 0.0098 0.0024 0.02049 0 0.03028-0.0052 0.0206-0.03214 0.0927-0.04543 0.10599-0.0035 0.0035-0.01157-0.0035-0.01514 0-8e-3 8e-3 -0.0072 0.0223-0.01514 0.03028-0.01071 0.01071-0.03074-0.0037-0.04543 0-0.0219 0.0055-0.0383 0.02658-0.06057 0.03028-0.03485 0.0058-0.07114-0.0058-0.10599 0-0.05653 0.0094-0.11006 0.03601-0.16656 0.04542-0.03588 6e-3 -0.08473 0-0.12113 0h-0.54511c-0.04543 0-0.09147 0.0075-0.13628 0-0.01113-0.0018-0.01934-0.01241-0.03028-0.01515-0.0098-0.0024-0.02071 0.0032-0.03028 0-0.0068-0.0023-0.0084-0.01289-0.01514-0.01514-0.0096-0.0032-0.02049 0.0024-0.03028 0-0.0033-7.87e-4 -0.13584-0.06031-0.13628-0.06057-0.03759-0.0015-0.02443-0.04657-0.04543-0.06057-0.0084-0.0056-0.02188 0.0056-0.03028 0-0.0094-0.0062-0.0072-0.0223-0.01514-0.03028-0.0036-0.0035-0.01009 0-0.01514 0-0.01009-0.01009-0.02236-0.01841-0.03028-0.03028-0.0028-0.0042 0.0028-0.01094 0-0.01514-0.01188-0.01781-0.03585-0.02628-0.04542-0.04542-0.0072-0.01428-0.0069-0.03174-0.01514-0.04542-0.0073-0.01224-0.02294-0.01804-0.03028-0.03028-0.01643-0.02737-0.01843-0.06121-0.03028-0.09085-0.01385-0.03461-0.0241-0.04015-0.04542-0.07571-0.01467-0.02445-0.03853-0.06327-0.04543-0.09085-0.0024-0.0098 0.0032-0.02071 0-0.03028-3.18e-4 -9.44e-4 -0.05587-0.07102-0.06057-0.07571" />
      <path
         id="path66"
         stroke-width=".12666"
         stroke-opacity=".36484"
         stroke="#000000"
         fill="none"
         d="m6.6236 30.68c-0.014 0.05109 0.04486 0.05943 0.06057 0.09085 0.01483 0.02966 0.03302 0.11457 0.04543 0.13628 0.01063 0.01859 0.03407 0.02727 0.04542 0.04542 0.0144 0.02305 0.01813 0.0514 0.03028 0.07571 0.0182 0.03639 0.04037 0.07066 0.06057 0.10599 0.06448 0.11284 0.14575 0.22904 0.19684 0.34826 0.02515 0.05868 0.03784 0.12204 0.06057 0.1817 0.04105 0.10776 0.09426 0.21059 0.13628 0.31798 0.10091 0.25787 0.02916 0.07122 0.09085 0.31798 0.02439 0.09756 0.07113 0.18908 0.09085 0.2877 0.01094 0.05467 0.0037 0.11201 0.01515 0.16656 0.01874 0.08904 0.0665 0.16974 0.09085 0.25741 0.01246 0.04484 0.01716 0.09163 0.03028 0.13628 0.01216 0.04137 0.03326 0.07976 0.04543 0.12113 0.02735 0.12306 0.02611 0.13029 0.06057 0.24227 0.01381 0.04487 0.05385 0.1532 0.06057 0.19684 0.0046 0.02994 0 0.06057 0 0.09085 0.01009 0.03028 0.02503 0.05936 0.03029 0.09085 5e-3 0.02987-5e-3 0.06098 0 0.09085 0.01049 0.06298 0.05007 0.11873 0.06057 0.1817 0.0037 0.02221-0.0031 0.1388 0 0.16656 0.0023 0.02068 0.01256 0.03992 0.01514 0.06057 0.0025 0.02003-5e-3 0.04098 0 0.06057 0.0055 0.0219 0.02481 0.03867 0.03028 0.06057 0.01047 0.04189 0 0.13591 0 0.1817 0 0.06161 0.0116 0.1691 0 0.22713-0.0022 0.01107-0.01157 0.01957-0.01514 0.03028-0.0048 0.01436 0.0048 0.03106 0 0.04542-5e-3 0.01508-0.02525 0.03034-0.03028 0.04542-0.0032 0.0096 0.0032 0.02071 0 0.03028-0.0023 0.0068-0.01009 0.01009-0.01514 0.01515 0 0.01009 0.0032 0.02071 0 0.03028-0.0063 0.01895-0.0587 0.06437-0.07571 0.07571-0.02671 0.0178-0.18616 0.10083-0.21198 0.10599-0.01485 3e-3 -0.03057-3e-3 -0.04543 0-0.03205 0.0064-0.0591 0.03749-0.09085 0.04542-0.0098 0.0024-0.02049-0.0024-0.03029 0-0.03117 0.0078-0.05968 0.02249-0.09085 0.03028-0.02448 0.0061-0.05096-5e-3 -0.0757 0-0.01107 0.0022-0.01922 0.01293-0.03028 0.01514-0.05022 0.01005-0.11493 0-0.16656 0-0.03292 0-0.10582 0.01015-0.13628 0-0.01071-0.0035-0.01957-0.01157-0.03028-0.01514-0.0048-0.0016-0.01063 0.0023-0.01514 0-0.0064-0.0032-0.0084-0.01289-0.01515-0.01514-0.0096-0.0032-0.02049 0.0024-0.03028 0-0.01095-0.0028-0.01934-0.01241-0.03028-0.01515-0.0098-0.0024-0.02049 0.0024-0.03029 0-0.0245-0.0061-0.07063-0.03026-0.09085-0.04542-0.01713-0.01285-0.02761-0.03355-0.04543-0.04542-0.01878-0.01252-0.04251-0.01674-0.06057-0.03029-0.01142-0.0086-0.01887-0.02172-0.03028-0.03028-0.01806-0.01355-0.04251-0.01674-0.06057-0.03028-0.02285-0.01713-0.03827-0.04273-0.06057-0.06057-0.0177-0.02748-0.05217-0.02777-0.07571-0.04542-0.01142-0.0086-0.01887-0.02172-0.03028-0.03028-0.0439-0.03292-0.17273-0.1032-0.19684-0.15142-0.0023-0.0045 0.0028-0.01094 0-0.01514-0.0079-0.01187-0.02236-0.01841-0.03028-0.03028-0.0028-0.0042 0.0023-0.01063 0-0.01514-0.0108-0.02161-0.03028-0.01835-0.03028-0.04543" />
      <path
         id="path68"
         stroke-width=".12666"
         stroke-opacity=".36484"
         stroke="#000000"
         fill="none"
         d="m6.4874 30.983c0.04535 0.1702 0.14945 0.31403 0.22713 0.4694 0.14963 0.29926-0.03115-0.03379 0.12114 0.28769 0.02224 0.04696 0.05346 0.08931 0.07571 0.13628 0.02327 0.04913 0.03625 0.1028 0.06057 0.15142 0.0213 0.04259 0.05236 0.07963 0.07571 0.12114 0.02214 0.03935 0.04037 0.08076 0.06057 0.12113 0.02524 0.04038 0.05236 0.07963 0.0757 0.12114 0.02214 0.03935 0.03734 0.08242 0.06057 0.12113 0.01388 0.02313 0.12119 0.16415 0.13628 0.19684 0.0154 0.03336 0.01508 0.07254 0.03028 0.10599 0.01044 0.02297 0.03317 0.03851 0.04543 0.06057 0.04468 0.08041 0.04046 0.17282 0.07571 0.25741 0.01302 0.03125 0.0324 0.05959 0.04543 0.09085 0.07486 0.17965-0.0085 2e-3 0.04543 0.1817 0.0065 0.02162 0.0219 0.03961 0.03029 0.06057 0.05229 0.13074 0.01284 0.04708 0.04542 0.16656 0.02245 0.08233 0.02659 0.08347 0.06057 0.15142 0.01009 0.02019 0.02408 0.03886 0.03028 0.06057 0.0042 0.01456-0.0024 0.03049 0 0.04542 0.0068 0.04037 0.02342 0.09509 0.03028 0.13628 0.0034 0.01992-5e-3 0.04098 0 0.06057 0.0028 0.01094 0.01293 0.01922 0.01514 0.03028 0.0062 0.03129 0.0068 0.19278 0 0.22713-9e-3 0.04483-0.03543 0.05086-0.04543 0.09085-0.0024 0.0098 0.0024 0.02049 0 0.03029-0.01828 0.07312-0.0072-7.58e-4 -0.03028 0.04542-0.0072 0.01428-8e-3 0.03115-0.01514 0.04542-0.0065 0.013-0.04962 0.05928-0.06057 0.07571-0.0063 0.0094-0.0072 0.0223-0.01514 0.03028-8e-3 8e-3 -0.0223 0.0072-0.03029 0.01515-0.01678 0.01678-0.03046 0.05564-0.06057 0.07571-0.0094 0.0062-0.02019 0.01009-0.03028 0.01514-0.01009 0.01009-0.01886 0.02172-0.03028 0.03028-0.01806 0.01355-0.04251 0.01674-0.06057 0.03028-0.01713 0.01285-0.02761 0.03355-0.04543 0.04542-0.01878 0.01252-0.04461 0.01432-0.06057 0.03028-8e-3 8e-3 -0.0057 0.02403-0.01514 0.03028-0.0084 0.0056-0.02126-0.0045-0.03028 0-0.01277 0.0064-0.01841 0.02237-0.03028 0.03028-0.0042 0.0028-0.01063-0.0023-0.01514 0-0.0193 0.0097-0.04055 0.03875-0.06057 0.04543-0.0096 0.0032-0.02071-0.0032-0.03029 0-0.02001 0.0067-0.04127 0.03577-0.06057 0.04542-0.0045 0.0023-0.01009 0-0.01514 0-0.01009 5e-3 -0.02089 0.0089-0.03028 0.01514-0.03465 0.0231 0.0095 0.01198-0.04542 0.03028-0.01437 0.0048-0.03073-0.0037-0.04543 0-0.07312 0.01828 7.58e-4 0.0072-0.04542 0.03028-0.0045 0.0023-0.01009 0-0.01515 0-5e-3 5e-3 -0.0088 0.01195-0.01514 0.01514-0.01614 0.0081-0.01414-0.0081-0.03028 0-0.0064 0.0032-0.0088 0.01195-0.01514 0.01515-0.02406 0.01203-0.09447 0-0.12113 0-0.04135 0-0.21219 0.01002-0.24227 0-0.01071-0.0035-0.01934-0.01241-0.03028-0.01515-0.0098-0.0024-0.02071 0.0032-0.03028 0-0.0068-0.0023-0.0088-0.01195-0.01514-0.01514-0.0045-0.0023-0.01009 0-0.01514 0-0.01009-5e-3 -0.02089-0.0089-0.03028-0.01514-0.0059-4e-3 -0.0088-0.01195-0.01514-0.01514-0.01553-0.0078-0.04504-0.0074-0.06057-0.01514-0.0064-0.0032-0.0088-0.01195-0.01514-0.01514-0.0045-0.0023-0.01063 0.0023-0.01514 0-0.02388-0.01194-0.05092-0.06929-0.06057-0.07571-0.0084-0.0056-0.02071 0.0032-0.03028 0-0.03012-0.01005-0.04706-0.06139-0.0757-0.07571-0.0061-0.0031-0.05907-0.01364-0.06057-0.01514-8e-3 -8e-3 -0.0089-0.02089-0.01514-0.03028-0.01869-0.02804-0.06071-0.04571-0.07571-0.07571-0.02228-0.04456 0.03508 0.01994-0.01514-0.03028" />
      <path
         id="path70"
         stroke-width=".12666"
         stroke-opacity=".36484"
         stroke="#000000"
         fill="none"
         d="m5.6546 32.012c0.02524-0.02524 0.04885-0.05221 0.0757-0.07571 0.0137-0.01198 0.03144-0.01864 0.04543-0.03028 0.04387-0.03656 0.07869-0.08293 0.12114-0.12113 0.02403-0.02162 0.05169-0.03894 0.0757-0.06057 0.07991-0.07191 0.15473-0.14832 0.24227-0.21198 0.02381-0.01731 0.05247-0.02736 0.07571-0.04543 0.06126-0.04765 0.07981-0.09495 0.13628-0.15142 0.02787-0.02787 0.06298-0.04783 0.09085-0.07571 0.02787-0.02787 0.04783-0.06298 0.07571-0.09085 0.26198-0.26198-0.08719 0.12474 0.1817-0.16656 0.03156-0.03419 0.05795-0.07309 0.09085-0.10599 0.06758-0.06758 0.12926-0.11412 0.19684-0.1817 0.03028-0.03028 0.05522-0.0671 0.09085-0.09085 0.02656-0.01771 0.06348-0.01386 0.09085-0.03028 0.02448-0.01469 0.04038-0.04038 0.06057-0.06057l0.45425-0.45425c0.04037-0.04038 0.07271-0.09087 0.12113-0.12114 0.01765-0.01103 0.04272-0.0044 0.06057-0.01514 0.0097-0.0058 0.0089-0.02089 0.01514-0.03028-0.0015-0.03 0.0223-0.0072 0.03028-0.01514 0.02019-0.02019-0.02524-0.01514 0.01515-0.01514" />
      <path
         id="path72"
         stroke-width=".12666"
         stroke-opacity=".36484"
         stroke="#000000"
         fill="none"
         d="m5.2306 31.982c0.08757-0.07702 0.18155-0.07696 0.27255-0.15142 0.02762-0.0226 0.04438-0.05862 0.07571-0.07571 0.02695-0.0147 0.06251-0.0034 0.09085-0.01515 0.03359-0.01399 0.06023-0.04088 0.09085-0.06057 0.0703-0.04519 0.15273-0.0966 0.22713-0.13628 0.03983-0.02124 0.08076-0.04038 0.12114-0.06057 0.04038-0.02524 0.07963-0.05236 0.12113-0.07571 0.03935-0.02213 0.08179-0.03843 0.12114-0.06057 0.04151-0.02334 0.07963-0.05236 0.12113-0.07571 0.16418-0.09235 0.08237-0.02558 0.24227-0.13628 0.32424-0.22447-0.14701 0.09133 0.13628-0.12114 0.08713-0.06534 0.0369 0.0057 0.13628-0.06057 0.0094-0.0063 0.0055-0.02448 0.01514-0.03028 0.01784-0.01071 0.04196-0.0058 0.06057-0.01514 0.02257-0.01129 0.03916-0.03205 0.06057-0.04543 0.01914-0.01196 0.04122-0.01867 0.06057-0.03028 0.0061-0.0037 0.0088-0.01195 0.01514-0.01514 0.0045-0.0023 0.01009 0 0.01514 0 5e-3 -0.0051 0.0088-0.01195 0.01514-0.01514 0.0045-0.0023 0.01289 0.0045 0.01514 0 0.0045-9e-3 -0.0045-0.02126 0-0.03028 0.0023-0.0045 0.01035 0.0016 0.01514 0 0.01071-0.0036 0.0223-0.0072 0.03028-0.01514 8e-3 -8e-3 0.0072-0.0223 0.01514-0.03028 0.0036-0.0036 0.01063 0.0023 0.01514 0 0.02971-0.01485-0.0011-0.03028 0.03028-0.03028" />
      <path
         id="path74"
         stroke-width=".12666"
         stroke-opacity=".36484"
         stroke="#000000"
         fill="none"
         d="m8.2438 32.118c0.01477 0.01093-0.0585 0.0977-0.06057 0.10599-0.0037 0.01469 3e-3 0.03057 0 0.04542-0.0022 0.01107-0.01009 0.02019-0.01514 0.03028 0 0.01514 3e-3 0.03058 0 0.04542-0.0022 0.01107-0.01293 0.01922-0.01514 0.03028-5e-3 0.02474 0 0.05048 0 0.07571 0 0.06364-0.0079 0.13387 0 0.19684 0.0026 0.02065 0.0122 0.03997 0.01514 0.06057 0.0021 0.01499-0.0021 0.03044 0 0.04542 0.0068 0.04734 0.01796 0.06285 0.03029 0.10599 0.01143 0.04002 0.01338 0.0831 0.03028 0.12113 0.07014 0.15782 0.02713-0.01158 0.07571 0.16656 0.0068 0.02483 0.0077 0.05106 0.01514 0.07571 0.02453 0.08177 0.0684 0.15995 0.09085 0.24227 0.0081 0.02962 0.0054 0.06172 0.01515 0.09085 0.01071 0.03212 0.03141 0.06003 0.04542 0.09085 0.10715 0.23572-0.06195-0.10876 0.07571 0.16656 0.02019 0.04038 0.03664 0.08285 0.06057 0.12113 0.01338 0.0214 0.03205 0.03916 0.04543 0.06057 0.01197 0.01914 0.01294 0.04612 0.03028 0.06057 0.01599 0.01332 0.04108 0.0079 0.06057 0.01514 0.02114 0.0079 0.04037 0.02019 0.06057 0.03028 0.05579 0.0279 0.1081 0.06893 0.16656 0.09085 0.02816 0.01056 0.19138 0.02705 0.22713 0.01514 0.01071-0.0036 0.01957-0.01157 0.03028-0.01514 0.0048-0.0016 0.01094 0.0028 0.01515 0 0.01188-0.0079 0.01804-0.02294 0.03028-0.03028 0.02737-0.01643 0.06348-0.01386 0.09085-0.03029 0.03406-0.02044 0.0758-0.08603 0.09085-0.12113 0.0082-0.01913 0.0069-0.04144 0.01514-0.06057 0.0072-0.01673 0.02389-0.02839 0.03028-0.04542 9e-3 -0.0241 7e-3 -0.05129 0.01515-0.07571 0.0072-0.02141 0.02314-0.03915 0.03028-0.06057 0.03408-0.10224 0.01514-0.22787 0.01514-0.33312v-0.45426c0-0.04542 0.0053-0.09116 0-0.13628-0.0097-0.08267-0.04522-0.16045-0.06057-0.24227-0.0075-0.03999-0.0053-0.08166-0.01514-0.12113-0.02092-0.08367-0.06512-0.15995-0.09085-0.24227-0.01242-0.03973-0.01629-0.08194-0.03028-0.12113-0.0372-0.10417-0.11214-0.22003-0.16656-0.31798-0.05977-0.10759-0.12759-0.28875-0.22713-0.3634-9e-3 -0.0068-0.02126-0.0084-0.03028-0.01514-0.01142-0.0086-0.01804-0.02294-0.03028-0.03028-0.01368-0.0082-0.03174-0.0069-0.04542-0.01514-0.01224-0.0073-0.01804-0.02294-0.03028-0.03028-0.01369-0.0082-0.03115-8e-3 -0.04542-0.01514-0.01628-0.0081-0.02915-0.02215-0.04543-0.03028-0.0372-0.0186-0.09548-0.03727-0.13628-0.04542-0.0099-2e-3 -0.02038 2e-3 -0.03028 0-0.03499-7e-3 -0.05825-0.02213-0.09085-0.03028-0.05927-0.01481-0.14499 0.0043-0.19684 0.03028-0.01628 0.0081-0.02915 0.02215-0.04543 0.03028-0.01428 0.0072-0.03266 0.0056-0.04543 0.01514-9e-3 0.0068-0.0089 0.02089-0.01514 0.03028-0.04496 0.06745-0.0156 0.03213-0.03028 0.09085-0.0028 0.01095-0.01241 0.01934-0.01514 0.03028-0.0088 0.03507 0 0.08482 0 0.12113v0.27255c0 0.02386-0.0098 0.14689 0 0.16656 0.0032 0.0064 0.01289 0.0084 0.01514 0.01514 0.0064 0.01916-0.0064 0.04141 0 0.06057 0.0023 0.0068 0.01195 0.0088 0.01514 0.01514 0.0045 9e-3 -0.01009 0.03028 0 0.03028 0.02573 0 0.05048-0.01009 0.07571-0.01514z" />
      <path
         id="path76"
         stroke-width=".12666"
         stroke-opacity=".36484"
         stroke="#000000"
         fill="none"
         d="m8.4104 32.315c-0.06331 0.05654-0.0535 0.12281-0.07571 0.19684-0.0078 0.02603-0.02495 0.04906-0.03028 0.07571-5e-3 0.02474 5e-3 0.05096 0 0.0757-0.0053 0.02665-0.02019 0.05048-0.03028 0.07571-0.01515 0.03028-0.03833 0.05775-0.04543 0.09085-0.01692 0.07896 0.0053 0.16169 0 0.24227-0.0073 0.10916-0.0305 0.11194-0.01514 0.22713 0.0049 0.03642 0.0247 0.06967 0.03028 0.10599 0.0046 0.02994-0.0073 0.06147 0 0.09085 0.0082 0.03285 0.0324 0.05959 0.04543 0.09085 0.01228 0.02947 0.01601 0.0623 0.03028 0.09085 0.01129 0.02257 0.03205 0.03916 0.04543 0.06057 0.02393 0.03828 0.03348 0.08502 0.06057 0.12113 0.05088 0.06784 0.13082 0.11387 0.1817 0.1817 0.05154 0.06873 0.0036 0.0666 0.09085 0.12113 0.01765 0.01103 0.04196 0.0058 0.06057 0.01514 0.02257 0.01129 0.03865 0.03291 0.06057 0.04542 0.01386 0.0079 0.03076 0.0089 0.04543 0.01515 0.0351 0.01504 0.06726 0.03897 0.10599 0.04542 0.03887 0.0065 0.14348 0.0076 0.1817 0 0.04443-0.0089 0.10467-0.08271 0.12113-0.12113 0.0082-0.01913 0.0086-0.04083 0.01514-0.06057 0.03342-0.10027 0.04749-0.08497 0.0757-0.21199 0.0099-0.04461 8e-3 -0.09113 0.01515-0.13628 0.02333-0.14769 0.06867-0.29125 0.09085-0.43911 0.0076-0.05016 8e-3 -0.1012 0.01515-0.15142 8e-3 -0.05587 0.02539-0.11034 0.03029-0.16656 0.01049-0.12068 0-0.24227 0-0.3634v-0.19684c0-0.05552 0.0079-0.1116 0-0.16656-0.0075-0.05217-0.03322-0.10016-0.04543-0.15142-0.01307-0.0549-0.01659-0.11181-0.03028-0.16656-0.02322-0.09291-0.06383-0.18068-0.09085-0.27255-0.01175-0.03993-0.02019-0.08076-0.03028-0.12113-0.02524-0.04542-0.05705-0.08778-0.07571-0.13628-0.0072-0.01884 9e-3 -0.04251 0-0.06057-0.0081-0.01628-0.03406-0.01607-0.04543-0.03028-0.01-0.01246-0.0056-0.03266-0.01514-0.04542-0.0068-9e-3 -0.0223-0.0072-0.03028-0.01514-0.01678-0.01678-0.03046-0.05564-0.06057-0.07571-0.01009-5e-3 -0.02019-0.01009-0.03028-0.01514-0.01009 0-0.02126 0.0045-0.03028 0-0.0045-0.0023 0.0042-0.01234 0-0.01514-0.05532-0.03688-0.14907-0.03644-0.21198-0.04542-0.0206-0.0029-0.03989-0.01285-0.06057-0.01514-0.04228-0.0047-0.12193-0.0075-0.16656 0-0.01574 0.0026-0.02977 0.01201-0.04543 0.01514-0.04206 0.0084-0.02524-0.01262-0.07571 0-0.0251 0.0063-0.05501 0.06018-0.0757 0.07571-9e-3 0.0068-0.0223 0.0072-0.03028 0.01514-0.01287 0.01287-0.01864 0.03145-0.03028 0.04542-0.01371 0.01645-0.03355 0.02761-0.04542 0.04543-0.03179 0.04769-0.05399 0.18434-0.07571 0.24227-0.08398 0.22394 0.02358-0.14485-0.03029 0.15142-0.0049 0.02674-0.02495 0.04906-0.03028 0.07571-5e-3 0.02474 0 0.05048 0 0.07571 0 0.08289 0.0091 0.17508 0 0.25741-0.0017 0.01586-0.01289 0.02963-0.01514 0.04542-0.0059 0.04133-0.0083 0.10984 0 0.15142-0.0035 0.03041 0.02369 0.04934 0.03028 0.07571 0.0024 0.0098-0.0024 0.02049 0 0.03028 0.0028 0.01095 0.01329 0.01916 0.01514 0.03028 0.01797 0.10778-0.01907 0.02243 0.01514 0.09085" />
      <path
         id="path78"
         stroke-width=".12666"
         stroke-opacity=".36484"
         stroke="#000000"
         fill="none"
         d="m8.3347 31.286c-0.01498 0.0627-0.07687 0.10364-0.09085 0.16656-0.0055 0.02463 0.0042 0.05081 0 0.07571-0.0061 0.03624-0.02137 0.07035-0.03028 0.10599-0.035 0.14001-0.06256 0.28251-0.09085 0.42397-0.01009 0.05048-0.02516 0.1002-0.03028 0.15142-5e-3 0.05022 0 0.10094 0 0.15142v0.57539c0 0.05048-0.0075 0.1015 0 0.15142 0.0078 0.05211 0.03201 0.10046 0.04543 0.15142 0.02321 0.08819 0.0334 0.17048 0.06057 0.25741 0.01286 0.04116 0.03496 0.0793 0.04543 0.12113 0.0099 0.03948 0.0053 0.08166 0.01514 0.12114 0.02092 0.08367 0.06357 0.16045 0.09085 0.24227 0.03163 0.09487 0.05225 0.19506 0.09085 0.28769 0.01302 0.03125 0.0324 0.05959 0.04543 0.09085 0.01228 0.02947 0.01601 0.0623 0.03028 0.09085 0.01129 0.02257 0.03205 0.03916 0.04543 0.06057 0.02393 0.03828 0.03348 0.08502 0.06057 0.12113 0.0357 0.0476 0.0673 0.07066 0.12113 0.09085 0.01949 0.0073 0.04144 0.0069 0.06057 0.01514 0.01673 0.0072 0.03028 0.02019 0.04543 0.03028 0.02019 0.01009 0.03982 0.02139 0.06057 0.03028 0.12802 0.05487 0.18947 0.07571 0.33312 0.07571 0.01515 0 0.03057 3e-3 0.04543 0 0.01392-0.0028 0.15665-0.05462 0.16656-0.06057 0.02493-0.01496 0.08067-0.07059 0.10599-0.09085 0.01422-0.01137 0.03255-0.01742 0.04542-0.03028 0.0307-0.0307 0.04905-0.07172 0.07571-0.10599 0.01984-0.0255 0.04814-0.04587 0.06057-0.07571 0.01373-0.03294 0.0053-0.07168 0.01514-0.10599 0.05962-0.20866 0.05035 0.0064 0.07571-0.27255 5e-3 -0.05529 0-0.11104 0-0.16656v-0.66624c0-0.05552 0.0053-0.11129 0-0.16656-0.0049-0.05125-0.0249-0.10023-0.03028-0.15142-0.0047-0.04517 0.0053-0.09116 0-0.13628-0.0049-0.04134-0.02075-0.08062-0.03028-0.12114-0.04009-0.17036-0.06892-0.34773-0.12113-0.51482-0.01286-0.04116-0.03326-0.07976-0.04543-0.12114-0.02487-0.08457-0.03635-0.17266-0.06057-0.25741-0.04426-0.1549-0.11004-0.29579-0.1817-0.43911-0.02927-0.05855-0.05457-0.12728-0.09085-0.1817-0.03463-0.05195-0.15638-0.09333-0.21198-0.12114-0.03255-0.01628-0.05925-0.04251-0.09085-0.06057-0.05653-0.0323-0.10622-0.04045-0.16656-0.06057-0.04942-0.01647-0.01269-0.01978-0.0757-0.03028-0.03209-0.0053-0.07299 0-0.10599 0-0.03028 0-0.06098-5e-3 -0.09085 0-0.10555 0.01759-0.22165 0.11675-0.30284 0.1817-0.01421 0.01137-0.03377 0.0163-0.04543 0.03028-0.02188 0.02625-0.06796 0.14298-0.07571 0.1817-2e-3 0.0099 0.0024 0.02049 0 0.03028-0.0028 0.01095-0.01094 0.0198-0.01515 0.03028-0.0075 0.01866-0.02693 0.10101-0.03028 0.12113-5e-3 0.02987 5e-3 0.06098 0 0.09085-0.0027 0.01574-0.01289 0.02963-0.01514 0.04542-0.01233 0.08631 0 0.1859 0 0.27255 0 0.06561-0.01 0.13199 0 0.19684 0.0049 0.03155 0.02112 0.06028 0.03028 0.09085 0.01124 0.0375 0.0072 0.0981 0.03028 0.12113" />
      <path
         id="path80"
         stroke-width=".12666"
         stroke-opacity=".36484"
         stroke="#000000"
         fill="none"
         d="m9.6066 30.831c5e-3 -0.02019 0.0074-0.04124 0.01515-0.06057 0.0027-0.0066 0.01118-0.0092 0.01514-0.01514 0.01991-0.02987 0.02378-0.0876 0.06057-0.10599 0.0045-0.0023 0.01063 0.0023 0.01514 0 0.0064-0.0032 0.0092-0.01118 0.01514-0.01514 0.01393-0.0093 0.05969-0.02628 0.0757-0.03028 0.02347-0.0059 0.0538-0.0042 0.07571-0.01514 0.0064-0.0032 0.0084-0.01289 0.01514-0.01514 0.0096-0.0032 0.02071 0.0032 0.03028 0 0.0068-0.0023 0.0084-0.01289 0.01514-0.01514 0.02374-0.0079 0.28294-5e-3 0.30284 0 0.01095 0.0027 0.01934 0.0124 0.03028 0.01514 0.0098 0.0025 0.02049-0.0025 0.03028 0 0.03207 8e-3 0.05878 0.03741 0.09085 0.04542 0.10044 0-0.02142-0.0071 0.04543 0.01514 0.0096 0.0032 0.02314-0.0071 0.03028 0 0.0072 0.0071-0.0072 0.02315 0 0.03028 0.0072 0.0071 0.02071-0.0032 0.03028 0 0.0068 0.0023 0.0088 0.01195 0.01514 0.01514 0.0045 0.0023 0.01009 0 0.01514 0 0.01009 5e-3 0.02089 0.0089 0.03028 0.01514 0.02418 0.01612 0.02688 0.04202 0.04543 0.06057 0.0036 0.0036 0.01009 0 0.01514 0 0.01009 0.01009 0.02236 0.0184 0.03028 0.03028 0.0044 0.0066 0.01075 0.03884 0.01514 0.04543 0.02214 0.0332 0.07304 0.05523 0.09085 0.09085 0.0045 9e-3 -0.0045 0.02126 0 0.03028 0.0064 0.01277 0.02236 0.01841 0.03028 0.03028 0.0055 0.0082 0.0042 0.029 0.01514 0.04542 0.03001 0.04502 0.0583 0.09918 0.0757 0.15142 0.0046 0.01363-0.0046 0.0318 0 0.04543 0.0023 0.0068 0.01289 0.0084 0.01514 0.01514 0.0091 0.02721-7e-3 0.06295 0 0.09085 0.0028 0.01095 0.01241 0.01934 0.01514 0.03028 0.0055 0.02204 0.0069 0.07016 0 0.09085-0.02356 0.07069-0.10855 0.19876-0.16656 0.24227-9e-3 0.0068-0.02126 0.0084-0.03028 0.01514-0.02285 0.01713-0.03502 0.0478-0.06057 0.06057-9e-3 0.0045-0.02049-0.0024-0.03028 0-0.07312 0.01828 7.59e-4 0.0072-0.04543 0.03028-0.0438 0.02189-0.09184 0.03835-0.13628 0.06057-0.01009 5e-3 -0.02089 0.0089-0.03028 0.01514-0.0059 4e-3 -0.0084 0.01289-0.01514 0.01515-0.05613 0.01871-0.0099-0.02037-0.04543 0.01514-5e-3 5e-3 -0.0088 0.01195-0.01514 0.01514-0.01122 0.0056-0.07451-0.01394-0.04543 0.01514 0.0076 0.0076 0.09862 0 0.10599 0h0.33312c0.03493 0 0.08693-0.0068 0.12114 0 0.01107 0.0022 0.01957 0.01157 0.03028 0.01514 0.02271 0.0076 0.01514-0.01514 0.04543 0 0.0045 0.0023-0.0045 0.01289 0 0.01514 9e-3 0.0045 0.02071-0.0032 0.03028 0 0.0068 0.0023 0.0088 0.01195 0.01514 0.01514 0.0045 0.0023 0.01063-0.0023 0.01514 0 0.01628 0.0081 0.03029 0.02019 0.04542 0.03028 0.02622 0.01749 0.04724 0.04634 0.07571 0.06057 0.0045 0.0023 0.01009 0 0.01514 0 0.01009 5e-3 0.0209 0.0089 0.03029 0.01514 0.0233 0.01553 0.03727 0.04503 0.06057 0.06057 0.0094 0.0062 0.02403 0.0057 0.03028 0.01514 0.0056 0.0084-0.0056 0.02189 0 0.03028 0.01237 0.01855 0.03768 7e-3 0.04542 0.03028 0.0032 0.0096 0 0.02019 0 0.03028 0.01009 5e-3 0.02403 0.0057 0.03028 0.01514 0.0056 0.0084-0.0056 0.02188 0 0.03028 0.0062 0.0094 0.02403 0.0057 0.03028 0.01514 0.0056 0.0084-0.0024 0.02049 0 0.03028 0.0057 0.02312 0.04137 0.06357 0.04543 0.07571 0.0032 0.0096-0.0024 0.02049 0 0.03028 0.0055 0.02189 0.01776 0.04179 0.03028 0.06057 4e-3 0.0059 0.01341 0.0082 0.01514 0.01514 0.0037 0.01469-3e-3 0.03058 0 0.04543 0.0044 0.02214 0.02481 0.03867 0.03028 0.06057 0.0024 0.0098-0.0037 0.02091 0 0.03028 0.0068 0.0169 0.02352 0.02853 0.03028 0.04542 0.01393 0.03484-0.01189 0.08546 0 0.12114 0.0035 0.01071 0.01157 0.01957 0.01514 0.03028 0.0067 0.01996 0.0065 0.08636 0 0.10599-0.0023 0.0068-0.01289 0.0084-0.01514 0.01514-0.0032 0.0096 0.0024 0.02049 0 0.03028-0.0118 0.04719-0.04968 0.09724-0.07571 0.13628-0.01845 0.02768-0.02548 0.06427-0.04543 0.09085-0.0086 0.01142-0.02172 0.01886-0.03028 0.03028-0.0068 9e-3 -0.0072 0.0223-0.01514 0.03028-0.01287 0.01287-0.03086 0.01936-0.04543 0.03028-0.02019 0.01514-0.04086 0.02966-0.06057 0.04542-0.01673 0.01338-0.02761 0.03355-0.04543 0.04542-0.0094 0.0062-0.02126 0.0084-0.03028 0.01514-0.01142 0.0086-0.01887 0.02172-0.03028 0.03028-0.01806 0.01355-0.04251 0.01674-0.06057 0.03028-0.05004 0.03753-0.0082 0.02448-0.06057 0.04542-0.02524 0.01009-0.04992 0.02169-0.07571 0.03028-0.0048 0.0016-0.01094-0.0028-0.01514 0-0.0046 0.0031-0.08707 0.07476-0.09085 0.0757-0.01469 0.0037-0.03058-3e-3 -0.04543 0-0.01107 0.0022-0.01957 0.01157-0.03029 0.01515-0.0048 0.0016-0.01062-0.0023-0.01514 0-0.0064 0.0032-0.0084 0.01289-0.01515 0.01514-0.03136 0.01045-0.08739 0-0.12113 0-0.01129 0-0.03827 0.0072-0.03028 0.01514 0.0072 0.0072 0.02049-0.0024 0.03028 0 0.01094 0.0028 0.01957 0.01157 0.03028 0.01515 0.01437 0.0048 0.03106-0.0048 0.04542 0 0.0068 0.0023 0.01009 0.01009 0.01515 0.01514 0.01009 5e-3 0.01934 0.01241 0.03028 0.01514 0.02448 0.0061 0.05096-5e-3 0.07571 0 0.01107 0.0022 0.01922 0.01293 0.03028 0.01514 0.01485 3e-3 0.03049-0.0024 0.04542 0 0.01574 0.0027 0.02968 0.01252 0.04543 0.01515 0.06661 0.01111 0.14416 0 0.21199 0 0.01957 0 0.10335 0.01185 0.12113 0 0.01188-0.0079 0.01752-0.0239 0.03029-0.03028 0.03028-0.01514 0.02271 0.0076 0.04542 0 0.01071-0.0035 0.01934-0.01241 0.03028-0.01514 0.0098-0.0024 0.02126 0.0045 0.03028 0 0.05446-0.02723 0.0111-0.02624 0.04543-0.06057 0.01287-0.01287 0.03606-0.01468 0.04542-0.03028 0.0078-0.01298-0.0024-0.03049 0-0.04542 0.0027-0.01574 0.0089-0.03076 0.01514-0.04542 0.02983-0.06959 0.03709-0.05801 0.06057-0.13628 0.0074-0.02465 0.0077-0.05106 0.01514-0.07571 0.0078-0.02603 0.02496-0.04906 0.03028-0.07571 5e-3 -0.02474-0.0023-0.05057 0-0.0757 0.0028-0.03057 0.01236-0.06028 0.01514-0.09085 0.0043-0.04821 0.0097-0.19393 0-0.24227-0.0031-0.01566-0.01252-0.02968-0.01514-0.04542-0.0042-0.02489 5e-3 -0.05096 0-0.07571-0.0031-0.01566-0.01201-0.02977-0.01514-0.04543-4e-3 -0.01979 5e-3 -0.04098 0-0.06057-0.03515-0.07029-0.0013 0.0087-0.01514-0.06057-0.0159-0.07949-0.0046-0.02193-0.03028-0.06057-0.0027-4e-3 -0.06047-0.1359-0.06057-0.13628-0.0024-0.0098 0.0045-0.02126 0-0.03028-0.01514-0.03028-0.03028-0.02271-0.04542-0.04542-0.01252-0.01878-0.01776-0.04179-0.03028-0.06057-0.01544-0.02316-0.02091-0.01189-0.04543-0.03028-0.04413-0.0331-0.07543-0.07564-0.13628-0.09085-0.0098-0.0024-0.02049 0.0024-0.03028 0-0.03176-0.0079-0.0588-0.03901-0.09085-0.04542-0.01485-3e-3 -0.03074 0.0037-0.04543 0-0.01765-0.0044-0.02777-0.02587-0.04543-0.03029-0.0098-0.0024-0.02038 2e-3 -0.03028 0-0.04363-0.0087-0.07955-0.03503-0.12113-0.04542-0.0098-0.0024-0.02049 0.0024-0.03028 0-0.01095-0.0028-0.01934-0.01241-0.03028-0.01514-0.0098-0.0024-0.02071 0.0032-0.03028 0-0.0068-0.0023-0.0084-0.01289-0.01515-0.01514-0.02394-8e-3 -0.05122 0.0061-0.0757 0-0.0069-0.0017-0.0084-0.01289-0.01514-0.01514-0.02285-0.0076-0.06586 0-0.09085 0" />
      <path
         id="path82"
         stroke-width=".12666"
         stroke-opacity=".36484"
         stroke="#000000"
         fill="none"
         d="m10.394 33.996c0.04896 0.03019 0.1074 0.07606 0.16656 0.09085 0.0227 0.0057 0.05353-0.0074 0.07571 0 0.0068 0.0023 0.0084 0.01289 0.01514 0.01514 0.05494 0.01831 0.14732-0.01378 0.19684-0.03028 0.03028-0.01009 0.06348-0.01386 0.09085-0.03028 0.01224-0.0073 0.01913-0.02137 0.03028-0.03028 0.05874-0.04699 0.11685-0.09342 0.16656-0.15142 0.01185-0.01381 0.01742-0.03256 0.03028-0.04542 0.01287-0.01287 0.03144-0.01864 0.04543-0.03028 0.02742-0.02285 0.05341-0.04784 0.07571-0.07571 0.01137-0.01421 0.01742-0.03256 0.03028-0.04542 0.01784-0.01784 0.04272-0.02758 0.06057-0.04542 0.05343-0.05343 0.05907-0.08264 0.10599-0.13628 0.0376-0.04298 0.08794-0.07467 0.12113-0.12113 0.0093-0.01299 0.0072-0.03156 0.01514-0.04543 0.01252-0.02191 0.03205-0.03916 0.04542-0.06057 0.03643-0.05828 0.06922-0.13196 0.09085-0.19684 0.0066-0.01974 0.0079-0.04108 0.01514-0.06057 0.01585-0.04227 0.04962-0.07733 0.06057-0.12114 5e-3 -0.01959-0.0034-0.04065 0-0.06057 0.0018-0.01113 0.01293-0.01922 0.01515-0.03028 0.0073-0.03657-0.01183-0.08566 0-0.12114 0.0036-0.01071 0.01241-0.01934 0.01514-0.03028 0.0066-0.02639 0.0046-0.12842 0-0.15142-0.0022-0.01107-0.01293-0.01922-0.01514-0.03028-3e-3 -0.01485 0.0024-0.03049 0-0.04542-0.0072-0.04304-0.01616-0.04041-0.03028-0.07571-0.02355-0.05889-0.03666-0.12964-0.07571-0.1817-0.0086-0.01142-0.0239-0.01752-0.03029-0.03028-0.0045-9e-3 0.0056-0.02188 0-0.03028-0.0062-0.0094-0.02126-0.0084-0.03028-0.01514-0.04964-0.03723-0.10288-0.09007-0.16656-0.10599-0.0098-0.0024-0.02049 0.0024-0.03028 0-0.0219-0.0055-0.03867-0.02481-0.06057-0.03028-0.0098-0.0024-0.02049 0.0024-0.03028 0-0.0426-0.01065-0.07939-0.04666-0.12113-0.06057-0.01437-0.0048-0.03073 0.0037-0.04543 0-0.01094-0.0028-0.01934-0.01241-0.03028-0.01515-0.01959-5e-3 -0.04098 5e-3 -0.06057 0-0.01095-0.0028-0.02019-0.01009-0.03028-0.01514-0.01514-5e-3 -0.02977-0.01201-0.04543-0.01514-0.02474-5e-3 -0.05047 0-0.07571 0h-0.31798c-5e-3 0-0.01514 5e-3 -0.01514 0s0.01063 0.0023 0.01514 0c0.0064-0.0032 0.01009-0.01009 0.01514-0.01514 0.03945-0.03945 0.08624-0.07752 0.12114-0.12114 0.01577-0.01971 0.03413-0.038 0.04542-0.06057 0.01527-0.03054 0.01044-0.04925 0.03029-0.07571 0.0086-0.01142 0.0239-0.01752 0.03028-0.03028 0.0093-0.01861 0.0044-0.04272 0.01514-0.06057 0.0058-0.0097 0.02524-5e-3 0.03028-0.01514 0.0068-0.01355-3e-3 -0.03058 0-0.04542 0.0022-0.01107 0.01293-0.01922 0.01514-0.03028 0.0059-0.0297-0.0059-0.06115 0-0.09085 0.0022-0.01107 0.01293-0.01922 0.01514-0.03028 0.0061-0.03074 0.0071-0.15329 0-0.1817-0.0028-0.01095-0.01241-0.01934-0.01514-0.03028-0.0024-0.0098 0.0045-0.02126 0-0.03028-0.0064-0.01277-0.0239-0.01751-0.03028-0.03028-0.0045-9e-3 0.0024-0.02049 0-0.03028-0.0039-0.01548-0.01009-0.03028-0.01514-0.04542-0.01399-0.042-0.05228-0.07084-0.0757-0.10599-0.0028-0.0042 0.0023-0.01063 0-0.01514-0.0032-0.0064-0.01289-0.0084-0.01514-0.01514-0.0032-0.0096 0.0056-0.02188 0-0.03028-0.01009-0.01514-0.03255-0.01741-0.04543-0.03028-0.01009-0.01009-0.02172-0.01886-0.03028-0.03028-0.0068-9e-3 -0.0072-0.0223-0.01515-0.03028-0.0035-0.0036-0.01157 0.0036-0.01514 0-8e-3 -8e-3 -0.0072-0.0223-0.01514-0.03028-0.02421-0.02421-0.07616-0.03548-0.10599-0.04542-0.03123-0.01041-0.05896-0.03745-0.09085-0.04542-0.0098-0.0025-0.02049 0.0025-0.03028 0-0.02189-0.0055-0.03867-0.02481-0.06057-0.03028-0.0098-0.0025-0.02071 0.0032-0.03029 0-0.0068-0.0023-0.0084-0.01289-0.01514-0.01514-0.01916-0.0064-0.04098 0.0049-0.06057 0-0.01095-0.0027-0.01934-0.0124-0.03028-0.01514-0.04609-0.01152-0.13339 0-0.1817 0-0.17431 0 0.05577 0.0068-0.07571-0.01514-0.04619-0.0077-0.10415 0-0.15142 0-0.04234 0-0.07817 0.01514-0.12113 0.01514-0.02244 0-0.06057-0.0112-0.06057 0.01514" />
      <path
         id="path84"
         stroke-width=".12666"
         stroke-opacity=".36484"
         stroke="#000000"
         fill="none"
         d="m9.652 30.725c0.12479-0.0624 4e-3 -0.01328 0.10599-0.03028 0.06546-0.01091 0.12913-0.05878 0.19684-0.07571 0.07534-0.01883 0.1516-0.04314 0.22713-0.06057 0.02992-0.0069 0.0615-0.0061 0.09085-0.01514 0.03674-0.0113 0.0684-0.03737 0.10599-0.04542 0.03455-0.0074 0.07097 0.0047 0.10599 0 0.06332-0.0084 0.13151-0.03949 0.19684-0.04543 0.05026-0.0046 0.10245 0.01224 0.15142 0 0.0219-0.0055 0.03867-0.02481 0.06057-0.03028 0.04811-0.01203 0.1164 0 0.16656 0 0.0415 0 0.1097-0.01043 0.15142 0 0.03207 8e-3 0.05878 0.03741 0.09085 0.04543 0.0098 0.0025 0.02071-0.0032 0.03028 0 0.03347 0.01116 0.11388 0.11783 0.13628 0.15142 0.0079 0.01188 0.02236 0.0184 0.03028 0.03028 0.02276 0.03414 0.05077 0.08196 0.06057 0.12113 0.0068 0.02725 0 0.06241 0 0.09085 0 0.11326-1.24e-4 0.17807-0.07571 0.27255-0.0089 0.01115-0.02172 0.01886-0.03028 0.03028-0.0068 9e-3 -0.0072 0.0223-0.01514 0.03028-8e-3 8e-3 -0.02126 0.0084-0.03028 0.01514-0.01142 0.0086-0.02019 0.02019-0.03028 0.03028-0.0267 0.0267-0.05859 0.0715-0.09085 0.09085-0.01369 0.0082-0.03296 0.0052-0.04543 0.01514-0.01422 0.01137-0.01891 0.03122-0.03028 0.04542-0.01783 0.0223-0.03827 0.04273-0.06057 0.06057-0.06696 0.05357-0.07242 0.02864-0.13628 0.06057-0.01277 0.0064-0.01913 0.02137-0.03029 0.03028-0.03421 0.02737-0.0717 0.05-0.10599 0.07571-0.01142 0.0086-0.01804 0.02294-0.03028 0.03028-0.01369 0.0082-0.0306 0.0092-0.04543 0.01515-0.06862 0.02745-0.0021 0.0014-0.04542 0.03028-0.03104 0.0207-0.07146 0.03392-0.10599 0.04542-0.01817 0.0061-0.01212-0.0061-0.03028 0-0.02645 0.0088-0.03838 0.03803-0.06057 0.04542-0.0096 0.0032-0.02071-0.0032-0.03028 0-0.0068 0.0023-0.0092 0.01118-0.01514 0.01514-0.01009 5e-3 -0.02019 0.01009-0.03029 0.01515-5e-3 0-0.01063-0.0023-0.01514 0-0.0064 0.0032-0.0088 0.01195-0.01514 0.01514-0.0045 0.0023-0.02019 0-0.01515 0 0.03651 0 0.17488 0.05715 0.21199 0.07571 0.01628 0.0081 0.02853 0.02352 0.04543 0.03028 0.0094 0.0037 0.02019 0 0.03028 0 0.02524 0.01009 0.05073 0.01957 0.07571 0.03028 0.01038 0.0044 0.02019 0.01009 0.03028 0.01514 0.01514 0.01009 0.0287 0.02311 0.04542 0.03028 0.01913 0.0082 0.04196 0.0058 0.06057 0.01514 0.01277 0.0064 0.01804 0.02294 0.03028 0.03028 0.02737 0.01643 0.0623 0.01601 0.09085 0.03028 0.01947 0.0097 0.0862 0.04572 0.10599 0.06057 0.03973 0.02979 0.02278 0.03939 0.07571 0.06057 0.0094 0.0037 0.02189-0.0056 0.03028 0 0.0094 0.0062 0.0072 0.0223 0.01514 0.03028 8e-3 8e-3 0.02126 0.0084 0.03028 0.01514 0.03816 0.02863 0.06541 0.06782 0.09085 0.10599 0.01514 0.02271 0.03028 0.01515 0.04543 0.04542 0.0045 9e-3 -2e-3 0.02038 0 0.03028 0.0031 0.01566 0.0092 0.0306 0.01514 0.04542 0.01533 0.03833 0.03009 0.02223 0.04542 0.06057 0.0056 0.01406-0.0024 0.03049 0 0.04543 7e-3 0.04207 0.03737 0.08086 0.04543 0.12114 3e-3 0.01485-0.0024 0.03049 0 0.04542 0.0061 0.03624 0.02019 0.07066 0.03028 0.10599 0.0043 0.01534 0.01252 0.02968 0.01514 0.04542 5e-3 0.02987-0.0059 0.06116 0 0.09085 0.0022 0.01107 0.01293 0.01922 0.01514 0.03028 0.0027 0.0133 0.0067 0.16838 0 0.1817-0.0064 0.01277-0.02237 0.01841-0.03028 0.03028-0.0028 0.0042 0.0023 0.01063 0 0.01514-0.0072 0.01441-0.06554 0.12272-0.07571 0.13628-0.01713 0.02285-0.03608 0.04588-0.06057 0.06057-0.01369 0.0082-0.03174 0.0069-0.04542 0.01514-0.02448 0.0147-0.03502 0.0478-0.06057 0.06057-0.01861 0.0093-0.04196 0.0058-0.06057 0.01514-0.01277 0.0064-0.02019 0.02019-0.03029 0.03028-0.02019 0.01009-0.03982 0.02139-0.06057 0.03028-0.03533 0.01515-0.07 0.03193-0.10599 0.04542-0.01949 0.0073-0.04196 0.0058-0.06057 0.01514-0.02257 0.01129-0.03714 0.03606-0.06057 0.04542-0.0285 0.0114-0.06106 0.0077-0.09085 0.01514-0.0707 0.01768-0.10033 0.03648-0.16656 0.06057-0.04526 0.03278-0.11599 0.02857-0.16656 0.04542-0.04283 0.01428-0.07887 0.04472-0.12113 0.06057-0.0241 9e-3 -0.05269 0.0037-0.07571 0.01514-0.02093 0.01046-0.03523 0.03029-0.06057 0.03029" />
      <path
         id="path86"
         stroke-width=".12666"
         stroke-opacity=".36484"
         stroke="#000000"
         fill="none"
         d="m9.5157 30.619c0 0.15833-9e-3 -0.0058 0.01514 0.09085 0.0024 0.0098-0.0024 0.02049 0 0.03028 0.0066 0.02637 0.02169 0.04992 0.03028 0.07571 0.0164 0.04922 0.02739 0.1033 0.04543 0.15142 0.0079 0.02113 0.02236 0.03943 0.03028 0.06057 0.01461 0.03897 0.01567 0.08216 0.03028 0.12114 0.0079 0.02114 0.02314 0.03916 0.03028 0.06057 0.01628 0.04883 0.0155 0.10212 0.03028 0.15142 0.01698 0.05659 0.04038 0.11104 0.06057 0.16656 0.0093 0.02554 0.02542 0.04897 0.03028 0.07571 0.04555 0.25054-0.04465-0.05268 0.01515 0.16656 0.0168 0.06159 0.04621 0.11949 0.06057 0.1817 8e-3 0.03477 0.0081 0.07099 0.01514 0.10599 0.01537 0.07683 0.0452 0.15029 0.06057 0.22713 8e-3 0.0399 0.0072 0.08123 0.01514 0.12114 0.01536 0.07683 0.04415 0.15051 0.06057 0.22713 0.0065 0.03002 0.0046 0.06199 0.01514 0.09085 0.01005 0.02765 0.03612 0.04779 0.04543 0.07571 0.04135 0.12405-0.05667-0.0073 0.01514 0.13628 5e-3 0.01009 0.02403 0.0057 0.03028 0.01514 0.0056 0.0084-0.0024 0.02049 0 0.03028 0.0028 0.01095 0.01293 0.01922 0.01514 0.03028 3e-3 0.01484-0.0021 0.03044 0 0.04542 0.01428 0.09995 0.01271 0.02298 0.04543 0.12114 0.0064 0.01916-4e-3 0.04077 0 0.06057 0.0031 0.01565 0.01201 0.02977 0.01514 0.04542 0.0093 0.04644-0.01493 0.10661 0 0.15142 0.0023 0.0068 0.01289 0.0084 0.01514 0.01514 0.01 0.02999-0.01401 0.07797 0 0.10599 0.0032 0.0064 0.01289 0.0084 0.01514 0.01514 0.0048 0.01437-0.01071 0.03472 0 0.04542 0.02019 0.02019 0.01514-0.02524 0.01514 0.01514" />
      <path
         id="path88"
         stroke-width=".12666"
         stroke-opacity=".36484"
         stroke="#000000"
         fill="none"
         d="m9.6369 30.483c0.01009 0.03028 0.01908 0.06096 0.03028 0.09085 0.03058 0.08156 0.08483 0.15761 0.10599 0.24227 0.01634 0.06535 0.02687 0.1319 0.04542 0.19684 0.01581 0.05531 0.0341 0.10994 0.04543 0.16656 6e-3 0.03011 0.0077 0.06107 0.01515 0.09085 0.01629 0.06516 0.05099 0.12986 0.06057 0.19684 0.01784 0.12492-0.02303 0.08795 0.01514 0.21199 0.01 0.03236 0.03547 0.05849 0.04542 0.09085 0.0105 0.03411 0.0071 0.07121 0.01514 0.10599 0.01436 0.06221 0.04509 0.11976 0.06057 0.1817 0.0075 0.02979 0.0077 0.06107 0.01514 0.09085 0.01548 0.06194 0.04915 0.11889 0.06057 0.1817 0.0045 0.02484-0.0028 0.05062 0 0.07571 0.02004 0.18034 0.01514-0.05744 0.01514 0.12113 0 0.04038-0.0098 0.08196 0 0.12114 0.0055 0.0219 0.02586 0.03843 0.03028 0.06057 0.0089 0.04454 0 0.09085 0 0.13628 0 0.1662-0.0059 0.019 0.01514 0.16656 0.0084 0.05888-0.01262 0 0 0.07571 0.0027 0.01574 0.01201 0.02977 0.01514 0.04542 0.0046 0.02322-0.0075 0.0533 0 0.07571 0.0036 0.01071 0.01241 0.01934 0.01514 0.03028 5e-3 0.01959-5e-3 0.04098 0 0.06057 0.0028 0.01095 0.01241 0.01934 0.01514 0.03028 5e-3 0.01959-0.0064 0.04141 0 0.06057 0.0023 0.0068 0.01289 0.0084 0.01514 0.01515 0.0032 0.0096-0.0032 0.02071 0 0.03028 0.01871 0.05613 0.01515-0.01846 0.01515 0.03028" />
      <path
         id="path90"
         stroke-width=".12666"
         stroke-opacity=".36484"
         stroke="#000000"
         fill="none"
         d="m9.7277 30.332c5e-3 0.02019 0.01219 0.03997 0.01514 0.06057 0.0043 0.02998-0.0037 0.0608 0 0.09085 0.0076 0.06093 0.01742 0.12166 0.03028 0.1817 0.0077 0.03593 0.02137 0.07034 0.03028 0.10599 0.035 0.14001 0.06256 0.28251 0.09085 0.42397 0.01009 0.05048 0.02516 0.1002 0.03028 0.15142 5e-3 0.05022-0.0088 0.10171 0 0.15142 0.0067 0.03785 0.03396 0.0693 0.04543 0.10599 0.04537 0.14518 0.01707 0.10427 0.04543 0.22713 0.02782 0.12057 0.07631 0.23985 0.09085 0.3634 0.03426 0.29126-0.03954-0.04937 0.01514 0.24227 0.01444 0.07701 0.04865 0.14968 0.06057 0.22713 0.0092 0.05986-0.01188 0.12231 0 0.1817 0.0044 0.02214 0.02481 0.03867 0.03028 0.06057 0.0095 0.03801-0.0095 0.08313 0 0.12114 0.0028 0.01095 0.01293 0.01922 0.01514 0.03028 3e-3 0.01485 0 0.03028 0 0.04542 5e-3 0.01514 0.01201 0.02977 0.01514 0.04542 0.0049 0.02426-0.0049 0.05144 0 0.07571 0.0022 0.01107 0.01293 0.01922 0.01515 0.03028 3e-3 0.01485-3e-3 0.03058 0 0.04542 0.0022 0.01107 0.01241 0.01934 0.01514 0.03028 0.0024 0.0098-0.0024 0.02049 0 0.03028 0.0055 0.0219 0.02314 0.03915 0.03028 0.06057 0.0058 0.01752-0.0081 0.04429 0 0.06057 0.0032 0.0064 0.01195 0.0088 0.01515 0.01514 0.01615 0.0323-0.01615-2e-3 0 0.03028 0.0032 0.0064 0.01195 0.0088 0.01514 0.01514 0.01205 0.0241 0 0.11826 0 0.15142" />
      <path
         id="path92"
         stroke-width=".15734"
         stroke-opacity=".36484"
         stroke="#000000"
         fill="none"
         d="m5.4347 32.05c0.07806-0.01949 0.13584-0.08451 0.20743-0.11314 0.03691-0.01477 0.0821-0.01288 0.11314-0.03772 0.0177-0.01416 0.02001-0.04241 0.03772-0.05657 0.01552-0.01242 0.03952-0.0086 0.05657-0.01886 0.03049-0.01829 0.04362-0.05953 0.07543-0.07543 0.02318-0.01159 0.05225-0.0072 0.07543-0.01886 0.0159-8e-3 0.02383-0.02661 0.03772-0.03772 0.02204-0.03422 0.06497-0.03458 0.09429-0.05657 0.07016-0.05262 2e-3 -0.02928 0.09429-0.07543 0.01778-0.0089 0.03879-0.01 0.05657-0.01886 0.05136-0.02568 0.10157-0.06471 0.15086-0.09429 0.06134-0.0368 0.13155-0.07038 0.18858-0.11314 0.07016-0.05262 2e-3 -0.02928 0.09429-0.07543 0.0056-0.0028 0.01363 0.0035 0.01886 0 0.05003-0.03335 0.09221-0.14039 0.15086-0.16972 0.0056-0.0028 0.01323 0.0028 0.01886 0 0.03738-0.01868 0.05948-0.07109 0.09429-0.09429 0.0117-0.0078 0.02602-0.01106 0.03771-0.01886 0.05077-0.03384 0.08123-0.09815 0.132-0.132 0.0117-0.0078 0.02602-0.01106 0.03772-0.01886 0.02853-0.01902 0.04823-0.05503 0.07543-0.07543 0.02248-0.01687 0.05294-0.02085 0.07543-0.03771 0.01422-0.01067 0.02182-0.02976 0.03771-0.03771 0.01124-0.0056 0.02647 0.0056 0.03771 0 0.0159-8e-3 0.02349-0.02705 0.03772-0.03772 0.01958-0.01469 0.09413-0.06592 0.11314-0.07543 0.01124-0.0056 0.02647 0.0056 0.03771 0 0.07848-0.03924-0.02016 0.0013 0.01886-0.03771 0.02016-0.02015 0.03771 0.02681 0.03771-0.01886" />
      <path
         id="path94"
         fill-opacity=".13958"
         fill="#000000"
         color="#000000"
         d="m5 6 12 5-2 11-1 1-11-4z" />
      <path
         id="path96"
         fill="url(#f)"
         color="#000000"
         d="m5 6 11.591 3.1058-2.847 10.625-1.2247 0.70711-10.625-2.847z" />
      <path
         id="path98"
         fill-opacity=".23084"
         fill="#ffffff"
         color="#000000"
         d="m8.3864 7.0575 3.4868-0.6942 0.25354 1.2735-3.4868 0.6942z" />
      <path
         id="path100"
         stroke-width=".12666"
         stroke-opacity=".36484"
         stroke="#000000"
         fill="none"
         color="#000000"
         d="m8.0532 12.776c0.39719-0.17234 1.8167-1.3205 2.6119-1.7181 0.07067-0.03533 0.23006-0.30583 0.26794-0.26794 0.02016 0.02015-0.80383 1.9643-0.80383 2.2775 0 0.16926 0.32058-0.14832 0.4689 0 0.12379 0.12379 1.8756 0.21822 1.8756 0.4689 0 0.10878-0.63085 0.09496-0.73684 0.20096-0.25155 0.25155-1.2817 0.53589-1.7416 0.53589-0.081552 0-0.13397 1.9227-0.13397 2.2105 0 0.1563 0.1563 0.4689 0 0.4689-0.078554 0-1.1097-1.7796-1.2727-1.9426-0.033493-0.03349 0.033493-0.16746 0-0.20096-0.056927-0.05693-0.20096-0.05347-0.20096-0.13397 0-0.02233 0.015789 0.0512 0 0.06699-0.13084 0.13084-0.27948 0.24022-0.4689 0.33493-0.46093 0.23046-1.3983 0.73685-1.8756 0.73685-0.051034 0 0.30276-0.53854 0.33493-0.60287 0.15049-0.30097 0.92893-1.1565 0.80383-1.4067-0.13749-0.27498-0.45173-0.85365-0.60287-1.0048-0.14117-0.14117-0.11448-0.49691-0.20096-0.66986-0.032377-0.064754-0.44194-0.66986-0.40192-0.66986 0.23503 0 1.9033 1.0475 2.0772 1.3162z" />
      <path
         id="path102"
         stroke-width=".12666"
         stroke-opacity=".36484"
         stroke="#000000"
         fill="none"
         color="#000000"
         d="m8.0532 13.474c0.43542-0.50955 2.6851-2.2158 2.9468-2.2158 0.09986 0-0.08932 0.17863-0.13397 0.26794-0.09733 0.19466-0.14764 0.54956-0.26794 0.66986-0.05582 0.05582 0.05582 0.27911 0 0.33493-0.01241 0.01242-0.20694 0.46292-0.20096 0.4689 0.08255 0.08255 0.48848-0.03813 0.60287 0 0.38139 0.12713 0.79386 0.19597 1.2057 0.40192 0.02308 0.01154 0.25638 0.10626 0.20096 0.13397-0.28481 0.14241-2.5455 0.91947-2.5455 1.0718 0 0.48538-0.13397 0.90322-0.13397 1.4067v0.73685c0 0.04466 0.044657 0.13397 0 0.13397-0.02145 0-0.98567-0.91869-1.0718-1.0048-0.134-0.134-0.23246-0.56739-0.33493-0.66986-0.031578-0.03158-0.094029 0.01997-0.13397 0-0.015329-0.0077-0.059684-0.27525-0.13397-0.20096-0.36947 0.36947-1.0116 0.50581-1.4737 0.73684-0.15373 0.07687-0.12295 0.33493-0.33493 0.33493-0.1382 0 0.66986-1.9373 0.66986-2.0766 0-0.04466 0.066986-0.18979 0.066986-0.13397 0 0.03866-0.2805-0.23864-0.40192-0.60287-0.067205-0.20161-1.1387-1.6077-1.0048-1.7416 0.052365-0.05236 0.11653 0.05827 0.13397 0.06699 0.32306 0.16153 0.79096 0.19452 1.0718 0.33493 0.48003 0.24002 1.0258 0.76732 1.2733 0.84731" />
      <path
         id="path104"
         stroke-width=".12666"
         stroke-opacity=".36484"
         stroke="#000000"
         fill="none"
         color="#000000"
         d="m8.7519 12.776c0.49893-0.16744 2.2405-2.254 2.5161-2.254 0.01042 0-0.24863 0.69822-0.26794 0.73684-0.09544 0.19088-0.58694 1.9585-0.53589 2.0096 0.06835 0.06836 1.9147 0.10603 2.1435 0.33493 0.01752 0.01751-0.58758 0.29379-0.66986 0.33493-0.13655 0.06828-0.08969 0.08969-0.20096 0.20096-0.18055 0.18055-1.7416 0.39144-1.7416 0.73684v1.4737c0 0.20096 0.20096 0.60287 0 0.60287-0.57077 0-1.3329-1.5776-1.8086-1.3397-0.13951 0.06975-2.1538 0.7936-2.2105 0.73684-0.045816-0.04582 0.2367-0.60738 0.33493-0.80383 0.23049-0.46098 0.22144-1.0923 0.53589-1.4067 0.17854-0.17854-1.1697-2.2466-1.1388-2.2775 0.11062-0.11062 0.67597 0.271 0.80383 0.33493 0.088437 0.04422 0.40848 0.0066 0.4689 0.06699 0.23678 0.23677 0.97612 0.43337 1.0724 0.51238" />
    </g>
  </g>
</svg>
