<?xml version="1.0" encoding="UTF-8"?>
<!-- Created with Inkscape (http://www.inkscape.org/) -->
<svg width="64" height="64" version="1.1" xmlns="http://www.w3.org/2000/svg" xmlns:cc="http://creativecommons.org/ns#" xmlns:dc="http://purl.org/dc/elements/1.1/" xmlns:rdf="http://www.w3.org/1999/02/22-rdf-syntax-ns#" xmlns:xlink="http://www.w3.org/1999/xlink">
	<defs>
		<linearGradient id="c" x1="-5" x2="-5" y1="64" y2="14" gradientUnits="userSpaceOnUse">
			<stop stop-color="#f43f66" stop-opacity=".018868" offset="0"/>
			<stop stop-color="#f4ae3f" stop-opacity=".47025" offset="1"/>
		</linearGradient>
		<radialGradient id="b" cx="30.107" cy="50.318" r="30.5" gradientTransform="matrix(2.7541 -1.4218e-7 8.3652e-8 2.7869 -52.917 -81.23)" gradientUnits="userSpaceOnUse">
			<stop stop-color="#9e1423" stop-opacity=".12917" offset="0"/>
			<stop stop-color="#f4405b" stop-opacity=".023222" offset=".54"/>
			<stop stop-color="#f43f6d" stop-opacity=".169" offset="1"/>
		</radialGradient>
		<linearGradient id="d" x1="53" x2="53" y1="17" y2="15" gradientUnits="userSpaceOnUse">
			<stop stop-color="#dad8ce" offset="0"/>
			<stop stop-color="#ebebeb" offset="1"/>
		</linearGradient>
		<linearGradient id="f" x1="32.559" x2="33.542" y1="15.559" y2="14.542" gradientUnits="userSpaceOnUse">
			<stop stop-color="#37321c" stop-opacity=".15675" offset="0"/>
			<stop stop-color="#6d5524" stop-opacity="0" offset="1"/>
		</linearGradient>
		<radialGradient id="a" cx="33.466" cy="2.1992" r="30.5" gradientTransform="matrix(-1.0283 0 0 -.55738 67.779 1.2258)" gradientUnits="userSpaceOnUse">
			<stop stop-color="#668cbb" offset="0"/>
			<stop stop-color="#668cbb" offset="1"/>
		</radialGradient>
		<linearGradient id="e" x1="61" x2="60" y1="17" gradientUnits="userSpaceOnUse">
			<stop stop-color="#3e4d60" stop-opacity=".72157" offset="0"/>
			<stop stop-color="#393b49" stop-opacity=".2656" offset="1"/>
		</linearGradient>
	</defs>
	<metadata>
		<rdf:RDF>
			<cc:Work rdf:about="">
				<dc:format>image/svg+xml</dc:format>
				<dc:type rdf:resource="http://purl.org/dc/dcmitype/StillImage"/>
				<dc:title/>
			</cc:Work>
		</rdf:RDF>
	</metadata>
	<g>
		<path d="m3 6-1e-7 58 57-1e-6 4-4v-59l-1-1h-26l-5 5-28 1e-7z" color="#000000" fill="url(#a)"/>
		<path d="m3 6-1e-7 58 57-1e-6 4-4v-59l-1-1h-26l-5 5-28 1e-7z" color="#000000" fill="url(#e)"/>
		<path d="m58 13v51h2l4-4v-59l-1-1v18z" fill="#002812" fill-opacity=".12482"/>
	</g>
	<g>
		<path d="m7 13h51v31h-51z" fill="url(#d)"/>
		<path d="m30 13 4 4h2l-4-4z" color="#000000" fill="url(#f)"/>
	</g>
	<g>
		<path d="m0 13v50l1 1h59l1-1v-45l-1-1-26 1e-6 -5-5-28-1e-6z" color="#000000" fill="#f4ae3f"/>
		<path d="m0 13v50l1 1h59l1-1v-45l-1-1-26 1e-6 -5-5-28-1e-6z" color="#000000" fill="url(#c)"/>
		<path d="m0 13v50l1 1h59l1-1v-45l-1-1-26 1e-6 -5-5-28-1e-6z" color="#000000" fill="url(#b)"/>
	</g>
	<path d="m11.261 50.781c-2.004-0.6147-4.804-4.7844-5.8229-8.6713-1.9736-7.5292 3.0208-13.877 8.9882-11.423 1.6344 0.672 1.7636 0.67364 3.6948 0.0469 3.4631-1.1239 6.653-0.40353 7.769 1.7545 0.33976 0.65702 0.29308 0.7822-0.65346 1.7525-2.4494 2.511-2.2023 6.4081 0.52919 8.3451 1.1601 0.82269 1.1995 1.2696 0.28632 3.2461-2.0324 4.3989-4.0971 5.6672-7.463 4.5845-1.7192-0.55301-2.3997-0.52728-4.389 0.16595-1.4392 0.50152-1.8598 0.52999-2.939 0.19895zm4.506-20.488c-0.8364-1.2765 1.2127-4.715 3.443-5.7775 2.2044-1.0502 2.8032-0.52245 2.0765 1.8302-0.83334 2.6981-4.5816 5.3786-5.5194 3.9473z" color="#000000" fill="#3e566a" fill-opacity=".85196" style="font-variant-east_asian:normal;paint-order:normal"/>
</svg>
