<?xml version="1.0" encoding="UTF-8"?>
<!-- Created with Inkscape (http://www.inkscape.org/) -->
<svg width="22" height="22" version="1.1" xml:space="preserve" xmlns="http://www.w3.org/2000/svg" xmlns:cc="http://creativecommons.org/ns#" xmlns:dc="http://purl.org/dc/elements/1.1/" xmlns:rdf="http://www.w3.org/1999/02/22-rdf-syntax-ns#"><defs><style id="current-color-scheme" type="text/css">.ColorScheme-Text {color:#090d11;}.ColorScheme-Background{color:#ffffff;}</style></defs><metadata><rdf:RDF><cc:Work rdf:about=""><dc:format>image/svg+xml</dc:format><dc:type rdf:resource="http://purl.org/dc/dcmitype/StillImage"/></cc:Work></rdf:RDF></metadata><path id="f" class="ColorScheme-Text" d="m3 2c-0.54535 0-1 0.45465-1 1v16c0 0.54535 0.45465 1 1 1h16c0.54535 0 1-0.45465 1-1v-16c0-0.54535-0.45465-1-1-1zm4 1h4v4h4v-4h4v4h-4v4h4v4h-4v4h-4v-4h-4v4h-4v-4h4v-4h-4v-4h4zm0 4v4h4v-4zm4 4v4h4v-4z" style="fill-opacity:.75;fill:currentColor"/></svg>
