<?xml version="1.0" encoding="UTF-8"?>
<!-- Created with Inkscape (http://www.inkscape.org/) -->
<svg width="12" height="12" version="1.1" xmlns="http://www.w3.org/2000/svg" xmlns:cc="http://creativecommons.org/ns#" xmlns:dc="http://purl.org/dc/elements/1.1/" xmlns:rdf="http://www.w3.org/1999/02/22-rdf-syntax-ns#">
	<defs>
		<radialGradient id="f" cx="6.0011" cy="9.4073" r="4" gradientTransform="matrix(2.2495,0,0,3.3743,-7.7711,-27.743)" gradientUnits="userSpaceOnUse">
			<stop stop-color="#ffffff" stop-opacity=".74858" offset="0"/>
			<stop stop-color="#ffffff" stop-opacity=".60511" offset="1"/>
		</radialGradient>
		<radialGradient id="d" cx="6" cy="10" r="3" gradientTransform="matrix(4.3333,0,0,4.3333,-20.451,-37.61)" gradientUnits="userSpaceOnUse">
			<stop stop-color="#213851" stop-opacity=".9059" offset="0"/>
			<stop stop-color="#27303a" stop-opacity="0" offset="1"/>
		</radialGradient>
	</defs>
	<metadata>
		<rdf:RDF>
			<cc:Work rdf:about="">
				<dc:format>image/svg+xml</dc:format>
				<dc:type rdf:resource="http://purl.org/dc/dcmitype/StillImage"/>
				<dc:title/>
			</cc:Work>
		</rdf:RDF>
	</metadata>
	<path d="m6 1c-1.3011 0-2.402 0.83888-2.8164 2h1.0879c0.34305-0.59809 0.97996-1 1.7285-1 1.1166 0 2 0.88335 2 2v0.72852c0 0.033098-0.00673 0.25654-0.00977 0.45117-0.31136-0.10887-0.6408-0.17969-0.99023-0.17969h-2c-0.34943 0-0.67887 0.070818-0.99023 0.17969l-0.98828 0.57812c-0.62218 0.54891-1.0215 1.3434-1.0215 2.2422 0 1.662 1.338 3 3 3h2c1.662 0 3-1.338 3-3 0-0.89874-0.39929-1.6933-1.0215-2.2422 0.0097-0.3223 0.021484-0.95404 0.021484-1.0293v-0.72852c0-1.6534-1.3466-3-3-3z" fill="#090d11" fill-opacity=".76471" style="paint-order:normal"/>
	<path d="m6 1c-1.3011 0-2.402 0.83888-2.8164 2h1.0879c0.34305-0.59809 0.97996-1 1.7285-1 1.1166 0 2 0.88335 2 2v0.72852c0 0.033098-0.00673 0.25654-0.00977 0.45117-0.31136-0.10887-0.6408-0.17969-0.99023-0.17969h-2c-0.34943 0-0.67887 0.070818-0.99023 0.17969l-0.98828 0.57812c-0.62218 0.54891-1.0215 1.3434-1.0215 2.2422 0 1.662 1.338 3 3 3h2c1.662 0 3-1.338 3-3 0-0.89874-0.39929-1.6933-1.0215-2.2422 0.0097-0.3223 0.021484-0.95404 0.021484-1.0293v-0.72852c0-1.6534-1.3466-3-3-3z" fill="url(#d)" style="paint-order:normal"/>
	<path d="m5.8652 0c-1.4526 0-2.7049 0.81325-3.3652 2h1.1973c0.52332-0.60925 1.2919-1 2.168-1h0.26953c1.5957 0 2.8652 1.2695 2.8652 2.8652v1.1855c-0.16186-0.033162-0.32862-0.050781-0.5-0.050781h-5c-0.17138 0-0.33814 0.017619-0.5 0.050781-0.22756 0-0.71196 0.17485-1 0.46289-0.60333 0.45725-1 1.1743-1 1.9863v2c0 1.3764 1.1236 2.5 2.5 2.5h5c1.3764 0 2.5-1.1236 2.5-2.5v-2c0-0.81199-0.39667-1.5291-1-1.9863v-1.6484c0-2.1324-1.7328-3.8652-3.8652-3.8652zm-2.3652 6h5c0.015881 0 0.029242 0.00721 0.044922 0.00781 0.12011 0.0058 0.23456 0.026844 0.3457 0.058594 0.020622 0.0058 0.044082 0.00337 0.064453 0.00977-4.109e-4 0.0027-0.00153 0.00511-0.00195 0.00781 0.36479 0.12135 0.66576 0.37448 0.84961 0.70508 0.00169-0.0054 0.00419-0.010265 0.00586-0.015625 0.018772 0.03425 0.02852 0.073665 0.044922 0.10938 0.017852 0.0382 0.032162 0.077327 0.046875 0.11719 0.022478 0.06143 0.044103 0.12246 0.058594 0.1875 0.01614 0.07089 0.023323 0.14442 0.029297 0.21875 0.0021458 0.03196 0.011714 0.06111 0.011714 0.09375v2c0 0.83965-0.66035 1.5-1.5 1.5h-5c-0.83965 0-1.5-0.66035-1.5-1.5v-2c0-0.03264 0.0095698-0.06179 0.011719-0.09375 0.00597-0.07432 0.013157-0.14786 0.029297-0.21875 0.014491-0.06504 0.036116-0.12607 0.058594-0.1875 0.014713-0.03986 0.029023-0.078988 0.046875-0.11719 0.016402-0.03571 0.02615-0.075125 0.044922-0.10938 0.00167 0.0054 0.00417 0.010275 0.00586 0.015625 0.18385-0.3306 0.48482-0.58373 0.84961-0.70508-4.183e-4 -0.0027-0.00154-0.00511-0.00195-0.00781 0.020371-0.0064 0.043832-0.00397 0.064453-0.00977 0.11114-0.03176 0.22559-0.052774 0.3457-0.058594 0.015669-5.669e-4 0.029037-0.0078104 0.044918-0.0078104z" fill="url(#f)" style="font-feature-settings:normal;font-variant-alternates:normal;font-variant-caps:normal;font-variant-ligatures:normal;font-variant-numeric:normal;font-variant-position:normal;isolation:auto;mix-blend-mode:normal;paint-order:normal;shape-padding:0;text-decoration-color:#000000;text-decoration-line:none;text-decoration-style:solid;text-indent:0;text-orientation:mixed;text-transform:none;white-space:normal"/>
</svg>
