<?xml version="1.0" encoding="UTF-8"?>
<svg id="g" width="24" height="24" version="1.1" xmlns="http://www.w3.org/2000/svg" xmlns:cc="http://creativecommons.org/ns#" xmlns:dc="http://purl.org/dc/elements/1.1/" xmlns:rdf="http://www.w3.org/1999/02/22-rdf-syntax-ns#">
	<defs id="f">
		<style id="current-color-scheme" type="text/css">.ColorScheme-Text {color:#090d11;}.ColorScheme-Background{color:#ffffff;}</style>
	</defs>
	<metadata id="a">
		<rdf:RDF>
			<cc:Work rdf:about="">
				<dc:format>image/svg+xml</dc:format>
				<dc:type rdf:resource="http://purl.org/dc/dcmitype/StillImage"/>
				<dc:title/>
			</cc:Work>
		</rdf:RDF>
	</metadata>
	<path id="b" class="ColorScheme-Text" d="m3 18c0 0.554 0.446 1 1 1h16c0.554 0 1-0.446 1-1v-12c0-0.554-0.446-1-1-1h-16c-0.554 0-1 0.446-1 1zm2 0v-12h14v12z" style="fill-opacity:.75;fill:currentColor"/>
	<path id="c" class="ColorScheme-Background" d="m2 18c0 1.0907 0.9093 2 2 2h16c1.0907 0 2-0.9093 2-2v-12c0-1.0907-0.9093-2-2-2h-16c-1.0907 0-2 0.9093-2 2zm1 0v-12c0-0.554 0.446-1 1-1h16c0.554 0 1 0.446 1 1v12c0 0.554-0.446 1-1 1h-16c-0.554 0-1-0.446-1-1zm2 0h14v-12h-14zm1-1v-10h12v10z" style="fill-opacity:.5;fill:currentColor"/>
</svg>
