<svg width="64" height="64" xmlns="http://www.w3.org/2000/svg" xmlns:xlink="http://www.w3.org/1999/xlink"><defs><radialGradient id="j" cx="35.574" cy="5.269" r="32" gradientTransform="matrix(0 1.1252 -5.1753 0 37.271 -39.027)" gradientUnits="userSpaceOnUse" xlink:href="#a"/><radialGradient id="k" cx="35.574" cy="5.287" r="32" gradientTransform="matrix(0 1.1252 -5.1753 0 37.363 -39.027)" gradientUnits="userSpaceOnUse" xlink:href="#a"/><radialGradient id="l" cx="35.574" cy="5.306" r="32" gradientTransform="matrix(0 1.1252 -5.1753 0 37.458 -39.027)" gradientUnits="userSpaceOnUse" xlink:href="#a"/><radialGradient id="m" cx="35.574" cy="5.322" r="32" gradientTransform="matrix(0 1.1252 -5.1753 0 37.544 -39.027)" gradientUnits="userSpaceOnUse" xlink:href="#a"/><radialGradient id="n" cx="35.574" cy="5.342" r="32" gradientTransform="matrix(0 1.1252 -5.1753 0 37.648 -39.027)" gradientUnits="userSpaceOnUse" xlink:href="#a"/><radialGradient id="o" cx="35.574" cy="5.364" r="32" gradientTransform="matrix(0 1.1252 -5.1753 0 37.758 -39.027)" gradientUnits="userSpaceOnUse" xlink:href="#a"/><radialGradient id="p" cx="35.574" cy="5.386" r="32" gradientTransform="matrix(0 1.1252 -5.1753 0 37.875 -39.027)" gradientUnits="userSpaceOnUse" xlink:href="#a"/><radialGradient id="q" cx="35.574" cy="5.41" r="32" gradientTransform="matrix(0 1.1252 -5.1753 0 38 -39.027)" gradientUnits="userSpaceOnUse" xlink:href="#a"/><radialGradient id="r" cx="35.574" cy="5.431" r="32" gradientTransform="matrix(0 1.1252 -5.1753 0 38.107 -39.027)" gradientUnits="userSpaceOnUse" xlink:href="#a"/><radialGradient id="s" cx="35.574" cy="5.459" r="32" gradientTransform="matrix(0 1.1252 -5.1753 0 38.252 -39.027)" gradientUnits="userSpaceOnUse" xlink:href="#a"/><radialGradient id="t" cx="35.574" cy="5.49" r="32" gradientTransform="matrix(0 1.1252 -5.1753 0 38.411 -39.027)" gradientUnits="userSpaceOnUse" xlink:href="#a"/><radialGradient id="u" cx="35.574" cy="5.524" r="32" gradientTransform="matrix(0 1.1252 -5.1753 0 38.587 -39.027)" gradientUnits="userSpaceOnUse" xlink:href="#a"/><radialGradient id="v" cx="35.574" cy="5.555" r="32" gradientTransform="matrix(0 1.1252 -5.1753 0 38.75 -39.027)" gradientUnits="userSpaceOnUse" xlink:href="#a"/><radialGradient id="w" cx="35.574" cy="5.597" r="32" gradientTransform="matrix(0 1.1252 -5.1753 0 38.966 -39.027)" gradientUnits="userSpaceOnUse" xlink:href="#a"/><radialGradient id="x" cx="35.574" cy="5.644" r="32" gradientTransform="matrix(0 1.1252 -5.1753 0 39.208 -39.027)" gradientUnits="userSpaceOnUse" xlink:href="#a"/><radialGradient id="z" cx="35.574" cy="5.69" r="32" gradientTransform="matrix(0 1.1252 -5.1753 0 39.446 -39.027)" gradientUnits="userSpaceOnUse" xlink:href="#a"/><radialGradient id="y" cx="-2.932" cy="18.746" r="32" gradientTransform="matrix(0 .01492 -1.2755 0 33.91 1.042)" gradientUnits="userSpaceOnUse"><stop stop-color="#fff" stop-opacity=".667" offset="0"/><stop stop-color="#7eeeff" stop-opacity="0" offset="1"/></radialGradient><radialGradient id="f" cx="32" cy="32" r="32" gradientTransform="matrix(1.0524 0 0 1.0195 -1.933 -.907)" gradientUnits="userSpaceOnUse"><stop stop-color="#9da1c8" offset="0"/><stop stop-color="#9ba9ca" offset="1"/></radialGradient><radialGradient id="h" cx="10.806" cy="24.059" r="9.5" gradientTransform="matrix(5.5789 0 0 5.2512 -47.284 -88.338)" gradientUnits="userSpaceOnUse"><stop stop-color="#c5dfeb" stop-opacity=".421" offset="0"/><stop stop-color="#2450ff" stop-opacity=".007" offset="1"/></radialGradient><radialGradient id="A" cx="9.5" cy="32.5" r="6" gradientUnits="userSpaceOnUse" xlink:href="#c"/><radialGradient id="C" cx="9.5" cy="19.5" r="3" gradientUnits="userSpaceOnUse" xlink:href="#c"/><radialGradient id="G" cx="9.5" cy="9.5" r="3" gradientUnits="userSpaceOnUse" xlink:href="#c"/><radialGradient id="I" cx="9.5" cy="45.5" r="3" gradientUnits="userSpaceOnUse" xlink:href="#c"/><radialGradient id="E" cx="9.5" cy="55.5" r="3" gradientUnits="userSpaceOnUse" xlink:href="#c"/><linearGradient id="d"><stop stop-color="#8e9dba" offset="0"/><stop stop-color="#7e8cab" offset=".508"/><stop stop-color="#4c5a78" offset="1"/></linearGradient><linearGradient id="c"><stop stop-color="#171c29" stop-opacity=".16" offset="0"/><stop stop-color="#171c29" stop-opacity=".59" offset="1"/></linearGradient><linearGradient id="b"><stop stop-color="#adb1ff" stop-opacity=".28" offset="0"/><stop stop-color="#adb1ff" stop-opacity=".03" offset="1"/></linearGradient><linearGradient id="a"><stop stop-color="#adb1ff" stop-opacity=".051" offset="0"/><stop stop-color="#bec1ff" stop-opacity=".012" offset="1"/></linearGradient><linearGradient id="i" x1="42" x2="42" y2="1" gradientUnits="userSpaceOnUse"><stop stop-color="#b4caff" offset="0"/><stop stop-color="#b4caff" stop-opacity="0" offset="1"/></linearGradient><linearGradient id="g" x1="8.745" x2="17.004" y1="66.395" y2="66.395" gradientTransform="matrix(0 -.34375 1.0195 0 -54.907 66.571)" gradientUnits="userSpaceOnUse"><stop stop-color="#282240" stop-opacity=".491" offset="0"/><stop stop-color="#161a23" stop-opacity=".376" offset="1"/></linearGradient><linearGradient id="B" x1="9" x2="9" y1="39" y2="32" gradientUnits="userSpaceOnUse" xlink:href="#b"/><linearGradient id="J" x1="9" x2="9" y1="49" y2="45" gradientUnits="userSpaceOnUse" xlink:href="#b"/><linearGradient id="F" x1="10" x2="10" y1="59" y2="55" gradientUnits="userSpaceOnUse" xlink:href="#b"/><linearGradient id="D" x1="10" x2="10" y1="23" y2="19" gradientUnits="userSpaceOnUse" xlink:href="#b"/><linearGradient id="H" x1="10" x2="10" y1="13" y2="9" gradientUnits="userSpaceOnUse" xlink:href="#b"/><linearGradient id="e" x1="38" x2="41.357" y1="-46.5" y2="-46.5" gradientUnits="userSpaceOnUse"><stop stop-color="#475067" offset="0"/><stop stop-color="#b7c4e2" offset=".25"/><stop stop-color="#3f495b" offset=".5"/><stop stop-color="#b7c4e2" offset=".75"/><stop stop-color="#4f5a72" offset="1"/></linearGradient><linearGradient id="L" x1="38" x2="40.666" y1="42" y2="42" gradientUnits="userSpaceOnUse" xlink:href="#d"/><linearGradient id="M" x1="38" x2="41.357" y1="-46.5" y2="-46.5" gradientUnits="userSpaceOnUse" xlink:href="#e"/><linearGradient id="N" x1="36.9" x2="39.971" y1="48.876" y2="48.876" gradientUnits="userSpaceOnUse" xlink:href="#d"/><linearGradient id="O" x1="38" x2="41.357" y1="-46.5" y2="-46.5" gradientTransform="translate(0 30)" gradientUnits="userSpaceOnUse" xlink:href="#e"/><linearGradient id="K" x1="51.207" x2="60.435" y1="56.32" y2="61.648" gradientTransform="rotate(15 86.404 26.67)" gradientUnits="userSpaceOnUse"><stop stop-color="#121825" stop-opacity=".218" offset="0"/><stop stop-color="#04004e" stop-opacity="0" offset="1"/></linearGradient></defs><path d="M1 0h62c.554 0 1 .446 1 1v62c0 .554-.446 1-1 1H1c-.554 0-1-.446-1-1V1c0-.554.446-1 1-1z" fill="url(#f)" paint-order="fill markers stroke"/><path d="M1 0h17c.554 0 1 .446 1 1v62c0 .554-.446 1-1 1H1c-.554 0-1-.446-1-1V1c0-.554.446-1 1-1z" fill="url(#g)" paint-order="fill markers stroke"/><path d="M1 0C.446 0 0 .446 0 1v30.826a54.004 54.004 0 0 1 19-12.227V.999c0-.554-.446-1-1-1z" fill="url(#h)" paint-order="fill markers stroke"/><rect x="18" width="46" height="1" rx=".5" ry=".5" fill="url(#i)" paint-order="stroke fill markers"/><path d="M1 0C.446 0 0 .446 0 1v62-.224V63 1h19v62-.334V63 1a.998.998 0 0 0-1-1z" fill="url(#j)" transform="translate(0 .002)"/><path d="M1 0a.998.998 0 0 0-1 1.006v61.98-.197c0-.277.004-.184.01.246.012.016.03-.297.052-.897v-61c.072-.009.133-.013.185-.013.29-.016.357-.032.774-.044.246-.011.496-.019.747-.019h15.2c.346 0 .689.012 1.023.03.268.01.389.02.52.033.106 0 .22.01.427.028v60.744c.027.754.05 1.148.059 1.123l.003-.334v.286V1.21c0-.143 0-.22-.002-.224A.996.996 0 0 0 17.986 0H1" fill="url(#k)" transform="translate(0 .002)"/><path d="M1 0a.998.998 0 0 0-1 1.006v61.966-.169c0-.245.008-.145.021.266.022.034.06-.247.104-.807V1.274a.744.744 0 0 1 .173-.025c.27-.031.341-.064.743-.088.242-.022.492-.037.742-.037H16.97c.347 0 .69.024 1.013.06.256.02.372.042.494.065.1 0 .206.02.398.057v60.731c.055.703.102 1.052.119 1.003.004-.154.006-.265.006-.333v.237V1.196c0-.139 0-.215-.003-.224A.994.994 0 0 0 18.19.02a1.025 1.025 0 0 0-.217-.02H1" fill="url(#l)" transform="translate(0 .002)"/><path d="M1 0a.998.998 0 0 0-1 1.005v61.953-.14c0-.213.012-.107.031.287.034.05.091-.198.156-.718V1.413a.45.45 0 0 1 .16-.037c.252-.048.327-.097.715-.132.238-.034.487-.056.737-.056h15.173c.348 0 .688.036 1.001.09.244.029.356.062.47.098.091 0 .19.03.37.085v60.718c.082.653.151.957.176.884.007-.152.01-.262.01-.333v.188V1.184c0-.135 0-.21-.004-.224a.992.992 0 0 0-.819-.94 1.041 1.041 0 0 0-.217-.018H.999" fill="url(#m)" transform="translate(0 .002)"/><path d="M1 0a.998.998 0 0 0-1 1.005v61.939-.113c0-.18.015-.068.042.308.045.067.121-.149.208-.629V1.55a.312.312 0 0 1 .148-.05c.232-.063.311-.128.684-.176.234-.044.483-.074.732-.074h15.16c.35 0 .689.048.991.12.232.039.34.083.444.13.085 0 .176.04.341.114v60.704c.11.603.203.862.236.764a5.23 5.23 0 0 0 .014-.333v.14V1.168c0-.13-.002-.206-.006-.224a.991.991 0 0 0-.83-.927 1.066 1.066 0 0 0-.22-.017H1" fill="url(#n)" transform="translate(0 .002)"/><path d="M1 0a.998.998 0 0 0-1 1.004V62.93v-.084c0-.148.02-.029.052.328.056.084.152-.099.26-.539V1.686c.053-.04.097-.061.136-.061.212-.08.297-.16.655-.22.23-.056.477-.093.727-.093h15.147c.35 0 .688.06.98.151.22.047.322.102.418.162.078 0 .162.049.313.142v60.69c.137.553.253.767.295.645A4.7 4.7 0 0 0 19 62.77v.09V1.155c0-.126-.002-.202-.007-.224a.99.99 0 0 0-.843-.914A1.099 1.099 0 0 0 17.932 0H1" fill="url(#o)" transform="translate(0 .002)"/><path d="M1 0a.998.998 0 0 0-1 1.004v61.912-.056c0-.117.023.01.063.349.067.1.182-.05.312-.45V1.824c.048-.049.088-.074.123-.074.193-.095.282-.192.626-.264.225-.067.472-.11.721-.11h15.133c.352 0 .688.071.97.18.144.033.279.1.393.194.07 0 .147.059.284.17V62.6c.164.502.304.671.354.524.014-.14.02-.25.02-.331v.042V1.14c0-.121-.002-.197-.009-.224a.99.99 0 0 0-.854-.902A1.142 1.142 0 0 0 17.918 0H1" fill="url(#p)" transform="translate(0 .002)"/><path d="M1 0a.998.998 0 0 0-1 1.004v61.898-.029c0-.084.027.049.073.37.079.117.212 0 .365-.36V1.96c.043-.057.079-.086.11-.086.174-.112.267-.225.596-.309a2.19 2.19 0 0 1 .717-.129h15.12c.353 0 .687.084.958.211a.81.81 0 0 1 .368.227c.063 0 .132.068.256.199v60.665c.192.452.354.576.413.404.014-.11.022-.22.024-.33V1.125c0-.117-.004-.193-.01-.224a.99.99 0 0 0-.868-.89A1.198 1.198 0 0 0 17.905 0H1" fill="url(#q)" transform="translate(0 .002)"/><path d="M1 0a.998.998 0 0 0-1 1.003v61.885c0-.052.03.087.084.39.09.135.242.05.416-.27V2.097C.538 2.034.57 2 .599 2c.154-.127.251-.257.566-.352.217-.089.463-.148.711-.148h15.107c.355 0 .687.096.947.242.138.05.257.14.343.258.056 0 .118.079.227.227v60.651c.22.402.406.482.473.285.018-.132.027-.243.027-.33V1.112c0-.113-.004-.188-.012-.224a.99.99 0 0 0-.879-.877A1.273 1.273 0 0 0 17.891 0H1.001" fill="url(#r)" transform="translate(0 .002)"/><path d="M1 0a.998.998 0 0 0-1 1.003v61.899c0-.02.035.126.094.41.101.152.273.1.468-.18V2.235c.034-.073.062-.11.087-.11.135-.143.236-.29.536-.397.213-.1.459-.166.707-.166h15.093c.356 0 .687.108.936.272.134.06.246.162.317.29.05 0 .103.089.2.256v60.64c.246.352.455.386.531.165.02-.128.03-.239.03-.33V1.1c0-.108-.004-.184-.013-.224a.99.99 0 0 0-.891-.864 1.376 1.376 0 0 0-.218-.01H1" fill="url(#s)" transform="translate(0 .002)"/><path d="M1 0a.998.998 0 0 0-1 1.002v61.913c0 .013.039.165.105.432.112.168.303.148.52-.092V2.373c.029-.081.053-.123.074-.123.116-.159.222-.321.507-.44a1.52 1.52 0 0 1 .701-.185h15.08c.357 0 .687.12.925.302a.66.66 0 0 1 .292.323c.043 0 .089.098.171.284V63.16c.275.302.507.29.591.046.022-.125.034-.236.034-.33V1.085c0-.104-.005-.18-.016-.224a.99.99 0 0 0-.903-.852 1.514 1.514 0 0 0-.218-.008H1" fill="url(#t)" transform="translate(0 .002)"/><path d="M1 0a.998.998 0 0 0-1 1.002V62.93c0 .045.042.203.115.453.123.184.333.197.572-.003V2.51c.024-.089.045-.135.062-.135.097-.174.207-.353.478-.484.204-.122.448-.203.696-.203H16.99a1.4 1.4 0 0 1 .914.332c.15.103.224.225.267.355.035 0 .073.108.142.313V63.3c.302.251.557.196.65-.074a1.7 1.7 0 0 0 .037-.33V1.071c0-.1-.006-.175-.017-.224a.99.99 0 0 0-.915-.84A1.712 1.712 0 0 0 17.85 0H1" fill="url(#u)" transform="translate(0 .002)"/><path d="M1 0a.998.998 0 0 0-1 1.002v61.942c0 .077.046.242.126.473.134.201.363.246.624.086V2.647C.77 2.55.785 2.5.8 2.5a.981.981 0 0 1 .447-.529c.2-.133.444-.221.691-.221h15.053c.36 0 .686.144.903.362a.688.688 0 0 1 .242.388c.028 0 .059.118.114.341v60.598c.33.2.608.1.709-.194.026-.117.04-.228.04-.329V1.056c0-.095-.006-.17-.018-.224a.991.991 0 0 0-.927-.827A2.015 2.015 0 0 0 17.836 0H1" fill="url(#v)" transform="translate(0 .002)"/><path d="M1 0a.998.998 0 0 0-1 1.001v61.956c0 .11.05.281.136.494.146.218.394.296.677.176V2.784c.014-.105.026-.16.036-.16a.967.967 0 0 1 .419-.572c.196-.144.439-.24.686-.24h15.04c.36 0 .685.156.892.392a.73.73 0 0 1 .216.42c.021 0 .044.128.086.37v60.585c.356.15.658.005.768-.314.029-.114.044-.224.044-.328V1.042c0-.09-.007-.166-.02-.224a.992.992 0 0 0-.94-.814 2.524 2.524 0 0 0-.217-.005H1" fill="url(#w)" transform="translate(0 .002)"/><path d="M1 0a.998.998 0 0 0-1 1v61.972c0 .142.054.32.147.515.156.241.453.35.728.265V2.922c.01-.114.018-.172.025-.172a.97.97 0 0 1 .389-.617c.192-.155.434-.258.68-.258h15.027c.362 0 .686.168.882.422.11.127.176.286.19.453.015 0 .03.137.057.398V63.72c.385.1.71-.09.828-.434.03-.11.047-.22.047-.328V1.028c0-.086-.007-.161-.021-.224a.994.994 0 0 0-.951-.802A3.563 3.563 0 0 0 17.809 0H1" fill="url(#x)" transform="translate(0 .002)"/><path d="M1 0a.998.998 0 0 0-1 1v62a.997.997 0 0 0 1 1V3.001c0-.254.132-.514.33-.705A.99.99 0 0 1 2 2.001h15a1 1 0 0 1 .86.483A.98.98 0 0 1 18 3v61a.998.998 0 0 0 1-1V1.001a.998.998 0 0 0-1-1H1" fill="url(#y)" transform="translate(0 .002)"/><path d="M1 0a.998.998 0 0 0-1 1v61.986c0 .174.058.358.157.535.17.259.473.397.78.355V3.06c.005-.122.01-.185.013-.185a.987.987 0 0 1 .36-.66c.187-.166.429-.277.675-.277h15.013c.363 0 .685.18.87.452.102.141.16.31.166.485.007 0 .015.147.028.427V63.86c.412.05.76-.186.887-.553a1.1 1.1 0 0 0 .05-.328V1.014A.996.996 0 0 0 18.014 0a6.67 6.67 0 0 0-.219 0H1" fill="url(#z)" transform="translate(0 .002)"/><g stroke-linecap="round" stroke-linejoin="round" paint-order="stroke fill markers"><rect x="24" y="6" width="35" height="53" rx="1" ry="1" fill="#161a23" fill-opacity=".449" stroke="#161a23" stroke-opacity=".257" stroke-width="4"/><circle cx="9.5" cy="32.5" r="5.5" fill="url(#A)" stroke="url(#B)" stroke-opacity=".997"/><g stroke-opacity=".997"><circle cx="9.5" cy="19.5" r="2.5" fill="url(#C)" stroke="url(#D)" style="font-variation-settings:normal"/><circle cx="9.5" cy="55.5" r="2.5" fill="url(#E)" stroke="url(#F)" style="font-variation-settings:normal"/><circle cx="9.5" cy="9.5" r="2.5" fill="url(#G)" stroke="url(#H)" style="font-variation-settings:normal"/><circle cx="9.5" cy="45.5" r="2.5" fill="url(#I)" stroke="url(#J)" style="font-variation-settings:normal"/></g></g><path d="m62.822 25.8-.853-2.23-17.13 28.925-.887 5.896.169 6.866 6.006-5.13 12.511-24.69z" fill="url(#K)" style="font-variation-settings:normal" paint-order="stroke fill markers"/><g transform="rotate(30 36.64 59.987)" paint-order="stroke fill markers"><rect x="38" y="15" width="4" height="31" rx="0" ry="0" fill="url(#L)" style="font-variation-settings:normal"/><rect transform="scale(1 -1)" x="38" y="-47" width="4" height="2" rx="0" ry="0" fill="url(#M)" style="font-variation-settings:normal"/><path d="M38 47h4l-2 4z" fill="url(#N)"/><rect transform="scale(1 -1)" x="38" y="-17" width="4" height="2" rx="0" ry="0" fill="url(#O)" style="font-variation-settings:normal"/></g></svg>