<?xml version="1.0" encoding="UTF-8"?>
<svg id="i" width="24" height="24" version="1.1" xmlns="http://www.w3.org/2000/svg" xmlns:cc="http://creativecommons.org/ns#" xmlns:dc="http://purl.org/dc/elements/1.1/" xmlns:rdf="http://www.w3.org/1999/02/22-rdf-syntax-ns#">
	<metadata id="l">
		<rdf:RDF>
			<cc:Work rdf:about="">
				<dc:format>image/svg+xml</dc:format>
				<dc:type rdf:resource="http://purl.org/dc/dcmitype/StillImage"/>
				<dc:title/>
			</cc:Work>
		</rdf:RDF>
	</metadata>
	<defs id="c">
		<style id="current-color-scheme" type="text/css">.ColorScheme-Text {color:#090d11;}.ColorScheme-Background{color:#ffffff;}</style>
	</defs>
	<path id="b" d="m12 17.656-5.6562-5.6567 5.6562-5.6559 1.8856 1.8852-3.7711 3.7707 1.8855 1.8856 5.6562-5.6559-4.9272-4.9272c-0.40234-0.40269-1.055-0.40269-1.4576 0l-7.9693 7.9693c-0.40235 0.40235-0.40235 1.055 0 1.4576l7.9694 7.969c0.40269 0.40269 1.0553 0.40269 1.4576 0l7.9694-7.969c0.40234-0.40269 0.40234-1.0553 0-1.4576l-1.1569-1.1566z" style="fill-opacity:.75;fill:currentColor" class="ColorScheme-Text"/>
	<path id="a" d="m12 2.0059c-0.52189-1.44e-5 -1.0432 0.19751-1.4355 0.58984l-7.9707 7.9687c-0.78466 0.78466-0.78417 2.0863 0 2.8711a1.0001 1.0001 0 0 0 0.0019531 0l7.9687 7.9688c0.78467 0.78468 2.0866 0.78517 2.8711 0l7.9707-7.9688c0.78416-0.78484 0.78465-2.0864 0-2.8711a1.0001 1.0001 0 0 0-0.001953 0l-1.1562-1.1562a1.0001 1.0001 0 0 0-1.4141 0l-6.834 6.834-4.2422-4.2422 4.2422-4.2422 0.4707 0.4707-3.0645 3.0645a1.0001 1.0001 0 0 0 0 1.4141l1.8867 1.8848a1.0001 1.0001 0 0 0 1.4141 0l5.6562-5.6563a1.0001 1.0001 0 0 0 0-1.4141l-4.9277-4.9258c-0.39225-0.39258-0.91365-0.58983-1.4355-0.58984zm0 0.99414c0.26378 0 0.52734 0.10139 0.72852 0.30273l4.9277 4.9258-5.6562 5.6563-1.8848-1.8848 3.7695-3.7715-1.8848-1.8848-5.6562 5.6562 5.6562 5.6562 7.541-7.541 1.1562 1.1562c0.40234 0.40235 0.40234 1.0543 0 1.457l-7.9688 7.9688c-0.40234 0.40269-1.0543 0.40269-1.457 0l-7.9687-7.9688c-0.40235-0.40269-0.40235-1.0547 0-1.457l7.9687-7.9687c0.20134-0.20135 0.46473-0.30273 0.72852-0.30273z" style="fill-opacity:.5;fill:currentColor" class="ColorScheme-Background"/>
</svg>
