<?xml version="1.0" encoding="UTF-8"?>
<svg id="e" width="18" height="18" version="1.1" xmlns="http://www.w3.org/2000/svg" xmlns:cc="http://creativecommons.org/ns#" xmlns:dc="http://purl.org/dc/elements/1.1/" xmlns:rdf="http://www.w3.org/1999/02/22-rdf-syntax-ns#">
	<metadata id="b">
		<rdf:RDF>
			<cc:Work rdf:about="">
				<dc:format>image/svg+xml</dc:format>
				<dc:type rdf:resource="http://purl.org/dc/dcmitype/StillImage"/>
				<dc:title/>
			</cc:Work>
		</rdf:RDF>
	</metadata>
	<defs id="g">
		<style id="current-color-scheme" type="text/css">.ColorScheme-Text {color:#090d11;}.ColorScheme-Background{color:#ffffff;}</style>
	</defs>
	<path id="f" class="ColorScheme-Background" d="m9 2c-1.4435 0.004587-2.8363 0.46104-4.002 1.2812 0.5948 0.34749 1.002 0.98523 1.002 1.7188 0 0.22094-0.045983 0.4297-0.11328 0.62891l3.166 1.0547c0.13631-0.40679 0.51764-0.68118 0.94727-0.68164 0.55214-6e-7 0.99979 0.44678 1 0.99805-2.06e-4 0.55127-0.44786 0.99805-1 0.99805-0.15461-3.135e-4 -0.30704-0.036414-0.44531-0.10547l-1.1094 2.2148c0.33936 0.16853 0.55413 0.51413 0.55469 0.89258-3.867e-4 0.10762-0.018194 0.21446-0.052734 0.31641l3.1699 1.0547c0.267-0.78791 1.0081-1.3633 1.8828-1.3633 0.57597 1e-6 1.0933 0.25219 1.459 0.64648 0.34708-0.83939 0.53876-1.7387 0.54102-2.6543 0-3.866-3.134-7-7-7z" style="fill-opacity:.3;fill:currentColor"/>
	<path id="c" class="ColorScheme-Text" d="m9 2c-1.4435 0.004587-2.8363 0.46104-4.002 1.2812 0.5948 0.34749 1.002 0.98523 1.002 1.7188 0 0.22094-0.045983 0.4297-0.11328 0.62891l3.166 1.0547c0.13631-0.40679 0.51764-0.68118 0.94727-0.68164 0.55214-6e-7 0.99979 0.44678 1 0.99805-2.06e-4 0.55127-0.44786 0.99805-1 0.99805-0.15461-3.135e-4 -0.30704-0.036414-0.44531-0.10547l-1.1094 2.2148c0.33936 0.16853 0.55413 0.51413 0.55469 0.89258-3.867e-4 0.10762-0.018194 0.21446-0.052734 0.31641l3.1699 1.0547c0.267-0.78791 1.0081-1.3633 1.8828-1.3633 0.57597 1e-6 1.0933 0.25219 1.459 0.64648 0.34708-0.83939 0.53876-1.7387 0.54102-2.6543 0-3.866-3.134-7-7-7z" style="fill-opacity:.3;fill:currentColor"/>
	<path id="a" class="ColorScheme-Text" d="m4 3.002c-1.0982 0-2 0.90024-2 1.998 0 0.52058 0.20676 0.99281 0.53711 1.3496a7 7 0 0 0-0.53711 2.6504 7 7 0 0 0 7 7 7 7 0 0 0 4.0195-1.2773c0.2913 0.16652 0.62323 0.26953 0.98047 0.26953 1.0956 0 1.9961-0.89703 1.9961-1.9922s-0.90051-1.9922-1.9961-1.9922c-0.8747 0-1.6158 0.57539-1.8828 1.3633l-3.1699-1.0547a1 0.9985 0 0 1-0.94727 0.68164 1 0.9985 0 0 1-1-0.99805 1 0.9985 0 0 1 1-0.99805 1 0.9985 0 0 1 0.44531 0.10547l1.1094-2.2148a1 0.99842 0 0 1-0.55469-0.89258 1 0.99842 0 0 1 0.052734-0.31641l-3.166-1.0547c0.067298-0.19921 0.11328-0.40797 0.11328-0.62891 0-1.0978-0.90176-1.998-2-1.998zm0 1c0.55861 0 1 0.44149 1 0.99805 0 0.13218-0.028767 0.25627-0.074219 0.37109a1 0.9985 0 0 1-0.015625 0.039062c-0.04633 0.10374-0.11035 0.19647-0.1875 0.27734a1 0.9985 0 0 1-0.027344 0.029297c-0.083545 0.08064-0.1807 0.14589-0.28906 0.19336a1 0.9985 0 0 1-0.03125 0.013672c-0.1156 0.045891-0.24163 0.074219-0.375 0.074219-0.1327 0-0.25792-0.028765-0.37305-0.074219a1 0.9985 0 0 1-0.039062-0.017578c-0.10222-0.045667-0.19343-0.10814-0.27344-0.18359a1 0.9985 0 0 1-0.037109-0.035156c-0.076274-0.079954-0.13741-0.17305-0.18359-0.27539a1 0.9985 0 0 1-0.019531-0.044922c-0.044579-0.11388-0.074219-0.23634-0.074219-0.36719 0-0.55656 0.44139-0.99805 1-0.99805zm10 8.0059c0.55595 0 0.99609 0.43828 0.99609 0.99219s-0.44014 0.99219-0.99609 0.99219c-0.27798 0-0.5275-0.11025-0.70703-0.28906s-0.28906-0.42617-0.28906-0.70312c0-0.5539 0.44014-0.99219 0.99609-0.99219z" style="fill-opacity:.75;fill:currentColor"/>
	<path id="d" class="ColorScheme-Background" d="m8.998 1c-1.4739 0.00354-2.8899 0.46859-4.1406 1.2363-0.282-0.092486-0.53876-0.23438-0.85742-0.23438-1.6447 0-3 1.3526-3 2.998 0 0.5212 0.29406 0.92027 0.5293 1.3438-0.30466 0.8567-0.52824 1.7431-0.5293 2.6543a1.0001 1.0001 0 0 0 0 0.00195c0 4.4064 3.5936 8 8 8a1.0001 1.0001 0 0 0 0.00195 0c1.4758-0.0035 2.8927-0.47072 4.1445-1.2402 0.28039 0.092 0.53532 0.23242 0.85352 0.23242 1.6414 0 2.9961-1.3489 2.9961-2.9922 0-0.51904-0.29132-0.91746-0.52539-1.3398 0.30536-0.85742 0.52813-1.7461 0.5293-2.6582a1.0001 1.0001 0 0 0 0-0.00195c0-4.4064-3.5936-8-8-8a1.0001 1.0001 0 0 0-0.00195 0zm0.00195 1c3.866 0 7 3.134 7 7-0.0012 0.91485-0.18165 1.8206-0.53125 2.666 0.32377 0.35445 0.52734 0.82001 0.52734 1.334 0 1.0952-0.90051 1.9922-1.9961 1.9922-0.35818-3e-6 -0.6906-0.10416-0.98242-0.27148-1.1759 0.8292-2.5787 1.2759-4.0176 1.2793-3.866 0-7-3.134-7-7 0.00106-0.9134 0.18087-1.8178 0.5293-2.6621-0.32471-0.35563-0.5293-0.82233-0.5293-1.3379 0-1.0978 0.90176-1.998 2-1.998 0.3606 0 0.69501 0.10421 0.98828 0.27344 1.1747-0.82667 2.5753-1.2719 4.0117-1.2754zm-5 2.002a1 0.9985 0 0 0-1 0.99805 1 0.9985 0 0 0 1 0.99805 1 0.9985 0 0 0 1-0.99805 1 0.9985 0 0 0-1-0.99805zm6 2a1 0.99842 0 0 0-1 0.99805 1 0.99842 0 0 0 1 0.99805 1 0.99842 0 0 0 1-0.99805 1 0.99842 0 0 0-1-0.99805zm-2 4a1 0.9985 0 0 0-1 0.99805 1 0.9985 0 0 0 1 0.99805 1 0.9985 0 0 0 1-0.99805 1 0.9985 0 0 0-1-0.99805zm6 2a1 0.9985 0 0 0-1 0.99805 1 0.9985 0 0 0 1 0.99805 1 0.9985 0 0 0 1-0.99805 1 0.9985 0 0 0-1-0.99805z" style="fill-opacity:.5;fill:currentColor"/>
</svg>
