<?xml version="1.0" encoding="UTF-8"?>
<!-- Created with Inkscape (http://www.inkscape.org/) -->
<svg width="18" height="18" version="1.1" xmlns="http://www.w3.org/2000/svg" xmlns:cc="http://creativecommons.org/ns#" xmlns:dc="http://purl.org/dc/elements/1.1/" xmlns:rdf="http://www.w3.org/1999/02/22-rdf-syntax-ns#">
	<defs>
		<radialGradient id="b" cx="341.34" cy="-91.054" r="7.254" gradientTransform="matrix(1.4245,0,0,1.3785,-474.85,137.7)" gradientUnits="userSpaceOnUse">
			<stop stop-color="#213851" stop-opacity=".9059" offset="0"/>
			<stop stop-color="#27303a" stop-opacity="0" offset="1"/>
		</radialGradient>
		<radialGradient id="a" cx="8" cy="11" r="8" gradientTransform="translate(1,1)" gradientUnits="userSpaceOnUse">
			<stop stop-color="#ffffff" stop-opacity=".74858" offset="0"/>
			<stop stop-color="#ffffff" stop-opacity=".60511" offset="1"/>
		</radialGradient>
	</defs>
	<metadata>
		<rdf:RDF>
			<cc:Work rdf:about="">
				<dc:format>image/svg+xml</dc:format>
				<dc:type rdf:resource="http://purl.org/dc/dcmitype/StillImage"/>
				<dc:title/>
			</cc:Work>
		</rdf:RDF>
	</metadata>
	<path d="m9 2c-3.8661 0-7 3.1339-7 7s3.1339 7 7 7 7-3.1339 7-7-3.1339-7-7-7zm-4.2715 6a1.8358 1.5553 64.405 0 1 0.78906 0.24805 1.8358 1.5553 64.405 0 1 0.84961 2.4453 1.8358 1.5553 64.405 0 1-2.1094 0.63477 1.8358 1.5553 64.405 0 1-0.85547-2.4453 1.8358 1.5553 64.405 0 1 1.2109-0.88086 1.8358 1.5553 64.405 0 1 0.11523-0.00195zm8.543 0a1.5553 1.8358 25.595 0 1 0.11524 0.00195 1.5553 1.8358 25.595 0 1 1.2109 0.88086 1.5553 1.8358 25.595 0 1-0.85547 2.4453 1.5553 1.8358 25.595 0 1-2.1094-0.63477 1.5553 1.8358 25.595 0 1 0.84961-2.4453 1.5553 1.8358 25.595 0 1 0.78906-0.24805zm-8.1504 1.6367a0.49483 0.69498 0 0 0-0.45898 0.69336 0.49483 0.69498 0 0 0 0.49414 0.69727 0.49483 0.69498 0 0 0 0.49414-0.69727 0.49483 0.69498 0 0 0-0.49414-0.69336 0.49483 0.69498 0 0 0-0.033203 0 0.49483 0.69498 0 0 1-0.00195 0zm7.7227 0a0.49483 0.69498 0 0 0-0.49414 0.69336 0.49483 0.69498 0 0 0 0.49414 0.69727 0.49483 0.69498 0 0 0 0.49414-0.69727 0.49483 0.69498 0 0 0-0.46094-0.69336 0.49483 0.69498 0 0 0-0.0332 0zm-3.8691 1.7402c0.89924-0.0043 1.8065 0.33546 2.7344 1.0352-1.2345 0.54258-1.9366 1.4112-2.6934 2.2461-0.81038-0.95822-1.6687-1.8138-2.7246-2.2461 0.89389-0.68262 1.7844-1.0309 2.6836-1.0352zm-0.39648 1.2871a0.20378 0.28551 0 0 0-0.18945 0.28516 0.20378 0.28551 0 0 0 0.20312 0.28516 0.20378 0.28551 0 0 0 0.20508-0.28516 0.20378 0.28551 0 0 0-0.20508-0.28516 0.20378 0.28551 0 0 0-0.013672 0zm0.81445 0a0.20378 0.28551 0 0 0-0.18945 0.28516 0.20378 0.28551 0 0 0 0.20508 0.28516 0.20378 0.28551 0 0 0 0.20312-0.28516 0.20378 0.28551 0 0 0-0.20312-0.28516 0.20378 0.28551 0 0 0-0.015625 0z" fill="#090d11" fill-opacity=".76621" style="paint-order:normal"/>
	<path d="m9 2c-3.8661 0-7 3.1339-7 7s3.1339 7 7 7 7-3.1339 7-7-3.1339-7-7-7zm-4.2715 6a1.8358 1.5553 64.405 0 1 0.78906 0.24805 1.8358 1.5553 64.405 0 1 0.84961 2.4453 1.8358 1.5553 64.405 0 1-2.1094 0.63477 1.8358 1.5553 64.405 0 1-0.85547-2.4453 1.8358 1.5553 64.405 0 1 1.2109-0.88086 1.8358 1.5553 64.405 0 1 0.11523-0.00195zm8.543 0a1.5553 1.8358 25.595 0 1 0.11524 0.00195 1.5553 1.8358 25.595 0 1 1.2109 0.88086 1.5553 1.8358 25.595 0 1-0.85547 2.4453 1.5553 1.8358 25.595 0 1-2.1094-0.63477 1.5553 1.8358 25.595 0 1 0.84961-2.4453 1.5553 1.8358 25.595 0 1 0.78906-0.24805zm-8.1504 1.6367a0.49483 0.69498 0 0 0-0.45898 0.69336 0.49483 0.69498 0 0 0 0.49414 0.69727 0.49483 0.69498 0 0 0 0.49414-0.69727 0.49483 0.69498 0 0 0-0.49414-0.69336 0.49483 0.69498 0 0 0-0.033203 0 0.49483 0.69498 0 0 1-0.00195 0zm7.7227 0a0.49483 0.69498 0 0 0-0.49414 0.69336 0.49483 0.69498 0 0 0 0.49414 0.69727 0.49483 0.69498 0 0 0 0.49414-0.69727 0.49483 0.69498 0 0 0-0.46094-0.69336 0.49483 0.69498 0 0 0-0.0332 0zm-3.8691 1.7402c0.89924-0.0043 1.8065 0.33546 2.7344 1.0352-1.2345 0.54258-1.9366 1.4112-2.6934 2.2461-0.81038-0.95822-1.6687-1.8138-2.7246-2.2461 0.89389-0.68262 1.7844-1.0309 2.6836-1.0352zm-0.39648 1.2871a0.20378 0.28551 0 0 0-0.18945 0.28516 0.20378 0.28551 0 0 0 0.20312 0.28516 0.20378 0.28551 0 0 0 0.20508-0.28516 0.20378 0.28551 0 0 0-0.20508-0.28516 0.20378 0.28551 0 0 0-0.013672 0zm0.81445 0a0.20378 0.28551 0 0 0-0.18945 0.28516 0.20378 0.28551 0 0 0 0.20508 0.28516 0.20378 0.28551 0 0 0 0.20312-0.28516 0.20378 0.28551 0 0 0-0.20312-0.28516 0.20378 0.28551 0 0 0-0.015625 0z" fill="url(#b)" fill-opacity=".7533" style="paint-order:normal"/>
	<path d="m9 1c-4.4065 0-8 3.5935-8 8s3.5935 8 8 8 8-3.5935 8-8-3.5935-8-8-8zm0 1c3.8661 0 7 3.1339 7 7s-3.1339 7-7 7-7-3.1339-7-7c0-0.24163 0.013212-0.47952 0.037109-0.71484 0.35846-3.5299 3.3385-6.2852 6.9629-6.2852zm-4.2715 6a1.8358 1.5553 64.405 0 0-0.11523 0.00195c-0.13036 0.00596-0.2547 0.032167-0.37305 0.072266a1.8358 1.5553 64.405 0 0-0.027344 0.00977c-0.1157 0.042089-0.2268 0.097937-0.32617 0.16992-7.127e-4 5.163e-4 -0.00124 0.00144-0.00195 0.00195-0.099764 0.07257-0.18866 0.16014-0.26758 0.25977a1.8358 1.5553 64.405 0 0-0.019531 0.025391c-0.077287 0.1022-0.14379 0.21576-0.19531 0.3418-0.042403 0.10397-0.072582 0.21257-0.09375 0.32227-0.0015 0.00778-0.00251 0.015638-0.00391 0.023438-0.017755 0.099109-0.027899 0.19956-0.029297 0.30078a1.8358 1.5553 64.405 0 0 0.00195 0.070312c0.00213 0.094263 0.00993 0.18747 0.025391 0.28125a1.8358 1.5553 64.405 0 0 0.00977 0.048828c0.018686 0.09856 0.043518 0.19735 0.076172 0.29297a1.8358 1.5553 64.405 0 0 0.015625 0.04102c0.035471 0.09735 0.07576 0.19345 0.125 0.28516a1.8358 1.5553 64.405 0 0 0.00195 0.0039c0.00474 0.0088 0.010766 0.01667 0.015625 0.02539 0.048221 0.0865 0.10221 0.16887 0.16211 0.24805a1.8358 1.5553 64.405 0 0 0.042969 0.05469c0.060524 0.07469 0.12658 0.14532 0.19727 0.21094 0.00778 0.0072 0.013584 0.01634 0.021484 0.02344a1.8358 1.5553 64.405 0 0 0.00391 2e-3c0.00377 0.0034 0.00792 0.0064 0.011719 0.0098 0.08419 0.07419 0.17461 0.14225 0.27148 0.20117 0.095723 0.05818 0.193 0.1035 0.29102 0.14062a1.8358 1.5553 64.405 0 0 0.048828 0.01758c0.085828 0.02943 0.17219 0.05053 0.25781 0.06445a1.8358 1.5553 64.405 0 0 0.068359 0.0098c0.085166 0.0098 0.17089 0.01286 0.25391 0.0078a1.8358 1.5553 64.405 0 0 0.041016-0.0039c0.086203-0.0078 0.1701-0.02148 0.25195-0.04492a1.8358 1.5553 64.405 0 0 0.050781-0.01758c0.078929-0.02609 0.15575-0.05722 0.22852-0.09766a1.8358 1.5553 64.405 0 0 0.011719-0.0059c0.0056-0.0032 0.010063-0.0084 0.015625-0.01172 0.074426-0.04379 0.14515-0.09572 0.21094-0.1543a1.8358 1.5553 64.405 0 0 0.015625-0.01172 1.8358 1.5553 64.405 0 0 0.019531-0.01953c0.057981-0.05535 0.11094-0.1186 0.16016-0.18555a1.8358 1.5553 64.405 0 0 0.042969-0.06055c0.053213-0.08076 0.10142-0.16639 0.14062-0.26172 0.041213-0.1005 0.070481-0.20459 0.091797-0.31055a1.8358 1.5553 64.405 0 0 0.00781-0.04492c0.017514-0.10041 0.028517-0.20217 0.029297-0.30469a1.8358 1.5553 64.405 0 0-0.00195-0.027338c-6.734e-4 -0.10331-0.00864-0.20768-0.025391-0.31055a1.8358 1.5553 64.405 0 0-0.00781-0.042969c-0.019508-0.10574-0.046465-0.21014-0.082031-0.3125-0.037003-0.1065-0.081375-0.21056-0.13477-0.31055a1.8358 1.5553 64.405 0 0-0.00586-0.011719c-0.00336-0.0062-0.0083-0.011408-0.011719-0.017578-0.053691-0.096827-0.11338-0.18976-0.18164-0.27734-0.072611-0.09316-0.15419-0.18025-0.24219-0.25977-0.00135-0.00122-0.00255-0.00269-0.00391-0.00391-0.086868-0.078071-0.18058-0.14929-0.28125-0.21094-5.181e-4 -3.184e-4 -0.00143 3.178e-4 -0.00195 0a1.8358 1.5553 64.405 0 0-0.00977-0.00586c-0.11566-0.069909-0.23654-0.12403-0.35938-0.16406a1.8358 1.5553 64.405 0 0-0.03125-0.00977c-0.12763-0.038742-0.25731-0.063534-0.38672-0.068359zm8.541 0c-0.12972 0.00502-0.25882 0.029272-0.38672 0.068359a1.5553 1.8358 25.595 0 0-0.02734 0.00781c-0.12742 0.041407-0.25342 0.098358-0.37305 0.17188-0.10067 0.061648-0.19438 0.13287-0.28125 0.21094a1.5553 1.8358 25.595 0 0-0.0039 0.00391c-0.0017 0.00156-0.0022 0.0043-0.0039 0.00586-0.08053 0.073293-0.15507 0.15343-0.22266 0.23828a1.5553 1.8358 25.595 0 0-0.03711 0.048828c-0.05863 0.078229-0.11287 0.15886-0.16016 0.24414a1.5553 1.8358 25.595 0 0-0.02539 0.050781c-0.04879 0.09374-0.09244 0.18974-0.12695 0.28906-0.03713 0.10687-0.06633 0.21569-0.08594 0.32617a1.5553 1.8358 25.595 0 0-2e-3 0.00781c-6.6e-4 0.00381 6.39e-4 0.00791 0 0.011719-0.01867 0.11127-0.02947 0.22418-0.0293 0.33594a1.5553 1.8358 25.595 0 0 0 0.0019c2e-6 6.52e-4 -2e-6 0.0013 0 2e-3 3.77e-4 0.10579 0.01111 0.21087 0.0293 0.31445a1.5553 1.8358 25.595 0 0 0.0039 0.0293c1e-3 0.0053 0.0028 0.01036 0.0039 0.01563 0.0213 0.10532 0.05082 0.20867 0.0918 0.30859 0.04151 0.10093 0.09129 0.19277 0.14844 0.27734a1.5553 1.8358 25.595 0 0 0.02148 0.0293c0.05305 0.07443 0.11214 0.14262 0.17578 0.20312a1.5553 1.8358 25.595 0 0 0.04297 0.03711c0.06486 0.05667 0.13396 0.10792 0.20703 0.15039a1.5553 1.8358 25.595 0 0 0.0293 0.01563c0.07863 0.04308 0.16044 0.07908 0.24609 0.10547a1.5553 1.8358 25.595 0 0 0.02539 0.0078c0.09007 0.02579 0.18212 0.04199 0.27734 0.04883 0.10004 0.0072 0.20356 0.0048 0.30664-0.0098a1.5553 1.8358 25.595 0 0 0.01172-2e-3c0.09668-0.01441 0.19405-0.04 0.29102-0.07422a1.5553 1.8358 25.595 0 0 0.01563-0.0039c0.0019-6.77e-4 4e-3 -0.0013 0.0059-2e-3 0.10283-0.03787 0.20431-0.08743 0.30469-0.14844 0.09687-0.05892 0.18729-0.12698 0.27148-0.20117a1.5553 1.8358 25.595 0 0 0.04102-0.03906c0.07286-0.06801 0.14114-0.1411 0.20312-0.21875a1.5553 1.8358 25.595 0 0 0.0332-0.04102c0.06204-0.08188 0.11648-0.16811 0.16602-0.25781a1.5553 1.8358 25.595 0 0 0.01758-0.03125c0.05152-0.09709 0.0967-0.19756 0.13281-0.30078 0.0374-0.1069 0.06608-0.21755 0.08594-0.32812a1.5553 1.8358 25.595 0 0 2e-3 -0.011719c5.61e-4 -0.00323-5.45e-4 -0.00654 0-0.00977 0.01649-0.097669 0.02532-0.19476 0.02734-0.29297a1.5553 1.8358 25.595 0 0 0-0.078125c-0.0021-0.10248-0.01043-0.20448-0.0293-0.30469-0.02117-0.11243-0.05228-0.22361-0.0957-0.33008-0.05061-0.12379-0.11591-0.23511-0.19141-0.33594a1.5553 1.8358 25.595 0 0-0.02734-0.03321c-0.07829-0.09823-0.16502-0.18605-0.26367-0.25781-0.09948-0.072367-0.21026-0.12953-0.32617-0.17188a1.5553 1.8358 25.595 0 0-0.03516-0.011719c-0.11667-0.038936-0.23893-0.064453-0.36719-0.070312a1.5553 1.8358 25.595 0 0-0.11524-0.00195 1.5553 1.8358 25.595 0 1-2e-3 0zm-8.1484 1.6367a0.49483 0.69498 0 0 1 0.00195 0 0.49483 0.69498 0 0 1 0.033203 0 0.49483 0.69498 0 0 1 0.18945 0.054687c5.582e-4 3.286e-4 0.0014-3.313e-4 0.00195 0a0.49483 0.69498 0 0 1 0.00195 0.00195 0.49483 0.69498 0 0 1 0.1543 0.14453c5.715e-4 7.942e-4 0.00138 0.00116 0.00195 0.00195a0.49483 0.69498 0 0 1 0.00195 0.00391 0.49483 0.69498 0 0 1 0.10352 0.21484 0.49483 0.69498 0 0 1 0 2e-3 0.49483 0.69498 0 0 1 0.039062 0.26953 0.49483 0.69498 0 0 1-0.039062 0.27148 0.49483 0.69498 0 0 1-0.10547 0.2207 0.49483 0.69498 0 0 1-0.15625 0.15039 0.49483 0.69498 0 0 1-0.19336 0.05469 0.49483 0.69498 0 0 1-0.18555-0.05274c-0.00506-0.0029-0.010651-0.0047-0.015625-0.0078a0.49483 0.69498 0 0 1-0.14844-0.14459 0.49483 0.69498 0 0 1-0.10547-0.2207 0.49483 0.69498 0 0 1-0.039062-0.27148 0.49483 0.69498 0 0 1 0.035156-0.25195c9.12e-4 -0.0033 0.00101-0.0065 0.00195-0.0098a0.49483 0.69498 0 0 1 0.00195-0.0078 0.49483 0.69498 0 0 1 0.09375-0.20312 0.49483 0.69498 0 0 1 0.14258-0.15039c0.00144-9.958e-4 0.00246-0.00293 0.00391-0.00391a0.49483 0.69498 0 0 1 0.17969-0.066406zm7.7227 0a0.49483 0.69498 0 0 1 0.0332 0c6.11e-4 5.89e-5 0.0013-6.21e-5 2e-3 0a0.49483 0.69498 0 0 1 0.17969 0.068359 0.49483 0.69498 0 0 1 0.13867 0.14258c0.0046 0.00661 0.0093 0.012673 0.01367 0.019531a0.49483 0.69498 0 0 1 0.08789 0.19141c0.0013 0.0041 0.0027 0.0076 0.0039 0.01172a0.49483 0.69498 0 0 1 0 0.0059 0.49483 0.69498 0 0 1 0.03516 0.25391 0.49483 0.69498 0 0 1-0.03906 0.27148 0.49483 0.69498 0 0 1-0.10547 0.2207 0.49483 0.69498 0 0 1-0.15625 0.15039 0.49483 0.69498 0 0 1-0.19336 0.05469 0.49483 0.69498 0 0 1-0.18555-0.05274c-0.0051-0.0029-0.01065-0.0047-0.01563-0.0078a0.49483 0.69498 0 0 1-0.14844-0.14453 0.49483 0.69498 0 0 1-0.10547-0.2207 0.49483 0.69498 0 0 1-0.03906-0.27148 0.49483 0.69498 0 0 1 0.03906-0.26758c3.56e-4 -0.0012-3.61e-4 -0.0027 0-0.0039a0.49483 0.69498 0 0 1 0.10547-0.2168c8.88e-4 -0.00125 0.0011-0.00266 2e-3 -0.00391a0.49483 0.69498 0 0 1 0.1543-0.14648 0.49483 0.69498 0 0 1 2e-3 0 0.49483 0.69498 0 0 1 0.19141-0.054687zm-3.8691 1.7402c-0.89924 0.0043-1.7897 0.35254-2.6836 1.0352 1.0559 0.43227 1.9142 1.2879 2.7246 2.2461 0.75677-0.83493 1.4589-1.7035 2.6934-2.2461-0.92787-0.6997-1.8351-1.0395-2.7344-1.0352zm-0.39648 1.2871a0.20378 0.28551 0 0 1 0.013672 0 0.20378 0.28551 0 0 1 0.20508 0.28516 0.20378 0.28551 0 0 1-0.20508 0.28516 0.20378 0.28551 0 0 1-0.20312-0.28516 0.20378 0.28551 0 0 1 0.18945-0.28516zm0.81445 0a0.20378 0.28551 0 0 1 0.015625 0 0.20378 0.28551 0 0 1 0.20312 0.28516 0.20378 0.28551 0 0 1-0.20312 0.28516 0.20378 0.28551 0 0 1-0.20508-0.28516 0.20378 0.28551 0 0 1 0.18945-0.28516z" color="#000000" color-rendering="auto" dominant-baseline="auto" fill="url(#a)" fill-opacity=".99858" image-rendering="auto" shape-rendering="auto" solid-color="#000000" style="font-feature-settings:normal;font-variant-alternates:normal;font-variant-caps:normal;font-variant-ligatures:normal;font-variant-numeric:normal;font-variant-position:normal;isolation:auto;mix-blend-mode:normal;paint-order:normal;shape-padding:0;text-decoration-color:#000000;text-decoration-line:none;text-decoration-style:solid;text-indent:0;text-orientation:mixed;text-transform:none;white-space:normal"/>
</svg>
