<?xml version="1.0" encoding="UTF-8"?>
<svg id="a" width="18" height="18" version="1.1" xmlns="http://www.w3.org/2000/svg" xmlns:cc="http://creativecommons.org/ns#" xmlns:dc="http://purl.org/dc/elements/1.1/" xmlns:rdf="http://www.w3.org/1999/02/22-rdf-syntax-ns#">
	<metadata id="c">
		<rdf:RDF>
			<cc:Work rdf:about="">
				<dc:format>image/svg+xml</dc:format>
				<dc:type rdf:resource="http://purl.org/dc/dcmitype/StillImage"/>
				<dc:title/>
			</cc:Work>
		</rdf:RDF>
	</metadata>
	<defs id="e">
		<style id="current-color-scheme" type="text/css">.ColorScheme-Text {color:#090d11;}.ColorScheme-Background{color:#ffffff;}</style>
	</defs>
	<path id="b" class="ColorScheme-Text" d="m14 2c-1.9087 0-3.4099 0.9319-4.2813 2.0625-0.8712 1.1306-1.2673 2.3957-1.6562 3.3437l-0.875 2.0938c-0.4081 0.9949-0.7794 1.9783-1.25 2.5937-0.4706 0.6155-0.8655 0.9063-1.9375 0.9063v3c1.9281 0 3.4414-0.9546 4.3125-2.0938 0.7649-1.0003 1.1631-2.0549 1.5-2.9062h3.1875v-3h-1.9688c0.346-0.8358 0.6852-1.604 1.0625-2.0938 0.4585-0.595 0.815-0.9062 1.9063-0.9062z" style="fill-opacity:.75;fill:currentColor"/>
	<path id="d" class="ColorScheme-Background" d="m15 1c-3.283-5.254e-4 -4.6407 0.36786-6.1875 2.375-1.0215 1.3256-1.4559 2.7244-1.8125 3.5938l-0.875 2.0938c-0.4161 1.0145-0.80495 1.9662-1.0938 2.3438-0.194 0.2539-0.2973 0.30395-0.375 0.34375-0.078 0.04-0.22425 0.24993-0.65625 0.25l-1.0001 1.6e-4v4l-1.11e-4 1.0002 1.0001-1.6e-4c2.3077-3.69e-4 4.1458-1.0029 5.2189-2.4064 0.6836-0.8939 0.97364-1.8389 1.2811-2.5936h4.5l1.11e-4 -1.0002v-3l-1.11e-4 -0.99984h-2.125c0.035-0.055 0.09411-0.36651 0.12511-0.40641 0.2005-0.2601 0.27734-0.46414 0.34364-0.49984 0.066-0.036 1.22-0.09375 1.6562-0.09375h1v-5zm0 1v3c-1.6443-0.095887-2.1499-0.085249-2.9062 0.90625-0.3773 0.4898-0.7165 1.258-1.0625 2.0938h2.9688v3h-4.1875c-0.3369 0.8513-0.7351 1.906-1.5 2.9062-0.8711 1.1392-2.3844 2.0938-4.3125 2.0938v-3c1.072 0 1.4669-0.29075 1.9375-0.90625 0.4706-0.6154 0.8419-1.5989 1.25-2.5938l0.875-2.0938c0.3889-0.948 0.78505-2.2132 1.6562-3.3438 0.82124-1.1608 2.6833-2.4022 5.2812-2.0625z" style="fill-opacity:.5;fill:currentColor"/>
</svg>
