<?xml version="1.0" encoding="UTF-8"?>
<!-- Created with Inkscape (http://www.inkscape.org/) -->
<svg width="18" height="18" version="1.1" xmlns="http://www.w3.org/2000/svg" xmlns:cc="http://creativecommons.org/ns#" xmlns:dc="http://purl.org/dc/elements/1.1/" xmlns:rdf="http://www.w3.org/1999/02/22-rdf-syntax-ns#">
	<defs>
		<radialGradient id="b" cx="349.64" cy="-98.254" r="7.254" gradientTransform="matrix(-2.5068,0,0,-2.4259,878.48,-236.35)" gradientUnits="userSpaceOnUse">
			<stop stop-color="#213851" stop-opacity=".9059" offset="0"/>
			<stop stop-color="#27303a" stop-opacity="0" offset="1"/>
		</radialGradient>
		<radialGradient id="a" cx="24.192" cy="5.7353" r="8" gradientTransform="matrix(-1.8841,0,0,-1.8841,55.58,12.806)" gradientUnits="userSpaceOnUse">
			<stop stop-color="#ffffff" stop-opacity=".74858" offset="0"/>
			<stop stop-color="#ffffff" stop-opacity=".60511" offset="1"/>
		</radialGradient>
	</defs>
	<metadata>
		<rdf:RDF>
			<cc:Work rdf:about="">
				<dc:format>image/svg+xml</dc:format>
				<dc:type rdf:resource="http://purl.org/dc/dcmitype/StillImage"/>
				<dc:title/>
			</cc:Work>
		</rdf:RDF>
	</metadata>
	<path d="m2 2v12.047h2.9297v-4.5586h1.9531v-2.2793h-1.9531v-1.627h4.5586v-3.582zm9.7285 6c-0.126 0-0.23255 0.09375-0.24805 0.21875l-0.25781 1.0527c-0.048 0.38475-0.28359 0.48214-0.58984 0.24414l-0.92773-0.56445c-0.0995-0.0775-0.24278-0.071422-0.33203 0.017578l-0.39453 0.39648c-0.08925 0.08925-0.097031 0.23253-0.019531 0.33203l0.56445 0.92773c0.238 0.306 0.14061 0.54159-0.24414 0.58984l-1.0566 0.25586c-0.12525 0.0155-0.22266 0.12205-0.22266 0.24805v0.55859c0 0.126 0.097657 0.23255 0.22266 0.24805l1.0566 0.25781c0.38475 0.048 0.48214 0.28359 0.24414 0.58984l-0.56445 0.92773c-0.0775 0.0995-0.071671 0.24474 0.017578 0.33398l0.39648 0.39453c0.08925 0.08925 0.23253 0.09483 0.33203 0.01758l0.92773-0.56445c0.306-0.238 0.54184-0.14061 0.58984 0.24414l0.25781 1.0547c0.01575 0.125 0.1218 0.21875 0.24805 0.21875h0.55859c0.126 0 0.23255-0.0935 0.24805-0.21875l0.25586-1.0547c0.048-0.38475 0.28359-0.48214 0.58984-0.24414l0.92578 0.56055c0.0995 0.0775 0.23912 0.06752 0.32812-0.02149l0.39453-0.39453c0.08925-0.08925 0.10094-0.22862 0.02344-0.32812l-0.5625-0.92773c-0.238-0.306-0.14086-0.53989 0.24414-0.58789l1.0508-0.25781c0.125-0.01575 0.21484-0.12204 0.21484-0.24804v-0.55664c0-0.126-0.08959-0.23255-0.21484-0.24805l-1.0527-0.25781c-0.38475-0.048-0.48044-0.28359-0.24219-0.58984l0.56055-0.92383c0.0775-0.0995 0.06775-0.23888-0.02148-0.32812l-0.39454-0.39648c-0.089-0.08925-0.22862-0.098984-0.32812-0.021484l-0.92578 0.5625c-0.306 0.238-0.54159 0.14061-0.58984-0.24414l-0.25586-1.0547c-0.01575-0.125-0.1218-0.21875-0.24805-0.21875zm0.2793 2.498c0.38388 0 0.76767 0.14658 1.0605 0.43945 0.58575 0.58575 0.58575 1.5353 0 2.1211-0.58575 0.58575-1.5353 0.58575-2.1211 0-0.58575-0.58575-0.58575-1.5353 0-2.1211 0.29288-0.29288 0.67667-0.43945 1.0605-0.43945z" fill="#090d11" fill-opacity=".76621" style="paint-order:normal"/>
	<path d="m2 2v12.047h2.9297v-4.5586h1.9531v-2.2793h-1.9531v-1.627h4.5586v-3.582h-7.4883zm9.7285 6c-0.126 0-0.23255 0.09375-0.24805 0.21875l-0.25781 1.0527c-0.048 0.38475-0.28359 0.48214-0.58984 0.24414l-0.92773-0.56445c-0.0995-0.0775-0.24278-0.071422-0.33203 0.017578l-0.39453 0.39648c-0.08925 0.08925-0.097031 0.23253-0.019531 0.33203l0.56445 0.92773c0.238 0.306 0.14061 0.54159-0.24414 0.58984l-1.0566 0.25586c-0.12525 0.0155-0.22266 0.12205-0.22266 0.24805v0.55859c0 0.126 0.097657 0.23255 0.22266 0.24805l1.0566 0.25781c0.38475 0.048 0.48214 0.28359 0.24414 0.58984l-0.56445 0.92773c-0.0775 0.0995-0.071671 0.24474 0.017578 0.33398l0.39648 0.39453c0.08925 0.08925 0.23253 0.09483 0.33203 0.01758l0.92773-0.56445c0.306-0.238 0.54184-0.14061 0.58984 0.24414l0.25781 1.0547c0.01575 0.125 0.1218 0.21875 0.24805 0.21875h0.55859c0.126 0 0.23255-0.0935 0.24805-0.21875l0.25586-1.0547c0.048-0.38475 0.28359-0.48214 0.58984-0.24414l0.92578 0.56055c0.0995 0.0775 0.23912 0.06752 0.32812-0.02149l0.39453-0.39453c0.08925-0.08925 0.10094-0.22862 0.02344-0.32812l-0.5625-0.92773c-0.238-0.306-0.14086-0.53989 0.24414-0.58789l1.0508-0.25781c0.125-0.01576 0.21484-0.12205 0.21484-0.24805v-0.55664c0-0.126-0.08959-0.23255-0.21484-0.24805l-1.0527-0.25781c-0.38475-0.048-0.48044-0.28359-0.24219-0.58984l0.56055-0.92383c0.0775-0.0995 0.06775-0.23888-0.02148-0.32812l-0.39453-0.39648c-0.089-0.08925-0.22862-0.098984-0.32812-0.021484l-0.92578 0.5625c-0.306 0.238-0.54159 0.14061-0.58984-0.24414l-0.25586-1.0547c-0.01575-0.125-0.1218-0.21875-0.24805-0.21875h-0.55859zm0.2793 2.498c0.38388 0 0.76767 0.14658 1.0605 0.43945 0.58575 0.58575 0.58575 1.5353 0 2.1211-0.58575 0.58575-1.5353 0.58575-2.1211 0-0.58575-0.58575-0.58575-1.5353 0-2.1211 0.29288-0.29288 0.67667-0.43945 1.0605-0.43945z" fill="url(#b)" fill-opacity=".7533" style="paint-order:normal"/>
	<path d="m1 1v14.047h4.9297v-4.5586h1.9551v-3.9062h2.6035v-5.582h-9.4883zm1 1h7.4883v3.582h-4.5586v1.627h1.9531v2.2793h-1.9531v4.5586h-2.9297v-12.047zm9.7285 5c-0.62071 0-1.1634 0.47599-1.2402 1.0957l0.01953-0.11328-0.06055 0.25-0.22266-0.13477 0.0957 0.064453c-0.49044-0.382-1.2035-0.348-1.6523 0.099609h-0.00195l-0.39453 0.39648c-0.44908 0.44908-0.48292 1.1627-0.10156 1.6523l-0.064453-0.09375 0.13477 0.2207-0.25391 0.0625 0.11328-0.02148c-0.61656 0.0763-1.0996 0.59836-1.0996 1.2402v0.55859c0 0.6432 0.48265 1.1657 1.0996 1.2422l-0.11328-0.02148 0.25195 0.06055-0.13477 0.22266 0.066406-0.09375c-0.38236 0.4909-0.35079 1.2039 0.099609 1.6543l0.39648 0.39453c0.45172 0.45172 1.1629 0.48159 1.6523 0.10156l-0.09375 0.06445 0.22266-0.13477 0.06055 0.25-0.01953-0.11133c0.07769 0.61656 0.6163 1.0938 1.2402 1.0938h0.55859c0.62468 0 1.1637-0.479 1.2402-1.0977l-0.02149 0.11523 0.0625-0.25195 0.21875 0.13281-0.0957-0.06641c0.49362 0.38448 1.2191 0.32778 1.6504-0.10352l0.39648-0.39453c0.43059-0.43059 0.48685-1.1582 0.10352-1.6504l0.06445 0.0957-0.13281-0.2207 0.24805-0.06055-0.11133 0.01953c0.61915-0.07802 1.0898-0.63672 1.0898-1.2402v-0.55664c0-0.60219-0.47041-1.1653-1.0918-1.2422l0.11328 0.02148-0.24805-0.06055 0.13281-0.21875-0.06641 0.09375c0.38352-0.49238 0.32566-1.2192-0.10352-1.6484l-0.39453-0.39453c-0.42826-0.42946-1.1579-0.48909-1.6504-0.10547l0.0957-0.066406-0.2207 0.13477-0.06055-0.25195 0.02149 0.11133c-0.07756-0.61561-0.61893-1.0938-1.2402-1.0938h-0.55859zm0 1h0.55859c0.12625 0 0.2323 0.09375 0.24805 0.21875l0.25586 1.0547c0.04825 0.38475 0.28384 0.48214 0.58984 0.24414l0.92578-0.5625c0.0995-0.0775 0.23912-0.067766 0.32812 0.021484l0.39453 0.39648c0.08923 0.08925 0.09898 0.22862 0.02148 0.32812l-0.56055 0.92383c-0.23825 0.30625-0.14256 0.54184 0.24219 0.58984l1.0527 0.25781c0.12525 0.0155 0.21484 0.12205 0.21484 0.24805v0.55664c0 0.126-0.08984 0.23229-0.21484 0.24805l-1.0508 0.25781c-0.385 0.048-0.48214 0.28189-0.24414 0.58789l0.5625 0.92773c0.0775 0.0995 0.06581 0.23888-0.02344 0.32812l-0.39453 0.39453c-0.089 0.089-0.22862 0.09899-0.32812 0.02149l-0.92578-0.56055c-0.30625-0.238-0.54184-0.14061-0.58984 0.24414l-0.25586 1.0547c-0.0155 0.12525-0.12205 0.21875-0.24805 0.21875h-0.55859c-0.12625 0-0.2323-0.09375-0.24805-0.21875l-0.25781-1.0547c-0.048-0.38475-0.28384-0.48214-0.58984-0.24414l-0.92773 0.56445c-0.0995 0.07725-0.24278 0.07167-0.33203-0.01758l-0.39648-0.39453c-0.089249-0.08925-0.095078-0.23448-0.017578-0.33398l0.56445-0.92773c0.238-0.30625 0.14061-0.54184-0.24414-0.58984l-1.0566-0.25781c-0.125-0.0155-0.22266-0.12205-0.22266-0.24805v-0.55859c0-0.126 0.097406-0.23255 0.22266-0.24805l1.0566-0.25586c0.38475-0.04825 0.48214-0.28384 0.24414-0.58984l-0.56444-0.92773c-0.0775-0.0995-0.069719-0.24278 0.019531-0.33203l0.39453-0.39648c0.08925-0.089 0.23253-0.095078 0.33203-0.017578l0.92773 0.56445c0.30625 0.238 0.54184 0.14061 0.58984-0.24414l0.25781-1.0527c0.0155-0.125 0.12205-0.21875 0.24805-0.21875zm0.2793 2.498c-0.38387 0-0.76767 0.14658-1.0605 0.43945-0.58575 0.58575-0.58575 1.5353 0 2.1211 0.58575 0.58575 1.5353 0.58575 2.1211 0 0.58575-0.58575 0.58575-1.5353 0-2.1211-0.29288-0.29288-0.67667-0.43945-1.0605-0.43945z" color="#000000" color-rendering="auto" dominant-baseline="auto" fill="url(#a)" fill-opacity=".99858" image-rendering="auto" shape-rendering="auto" solid-color="#000000" style="font-feature-settings:normal;font-variant-alternates:normal;font-variant-caps:normal;font-variant-ligatures:normal;font-variant-numeric:normal;font-variant-position:normal;isolation:auto;mix-blend-mode:normal;paint-order:normal;shape-padding:0;text-decoration-color:#000000;text-decoration-line:none;text-decoration-style:solid;text-indent:0;text-orientation:mixed;text-transform:none;white-space:normal"/>
</svg>
