<?xml version="1.0" encoding="UTF-8"?>
<!-- Created with Inkscape (http://www.inkscape.org/) -->
<svg width="18" height="18" version="1.1" xmlns="http://www.w3.org/2000/svg" xmlns:cc="http://creativecommons.org/ns#" xmlns:dc="http://purl.org/dc/elements/1.1/" xmlns:rdf="http://www.w3.org/1999/02/22-rdf-syntax-ns#">
	<defs>
		<style id="current-color-scheme" type="text/css">.ColorScheme-Text {color:#090d11;}.ColorScheme-Background{color:#ffffff;}</style>
	</defs>
	<metadata>
		<rdf:RDF>
			<cc:Work rdf:about="">
				<dc:format>image/svg+xml</dc:format>
				<dc:type rdf:resource="http://purl.org/dc/dcmitype/StillImage"/>
			</cc:Work>
		</rdf:RDF>
	</metadata>
	<path class="ColorScheme-Background" d="m9 1c-1.0927 0-2 0.90728-2 2v0.45703c-0.1723 0.062848-0.33941 0.13125-0.50391 0.20898l-0.32422-0.32227c-0.37474-0.37482-0.88404-0.58586-1.4141-0.58594-0.53002 8e-5 -1.0393 0.21112-1.4141 0.58594-0.77248 0.77264-0.77248 2.0555 0 2.8281l0.32227 0.32227c-0.078222 0.16544-0.14779 0.33257-0.21094 0.50586h-0.45508c-1.0927 0-2 0.90728-2 2s0.90728 2 2 2h0.45703c0.062995 0.17265 0.133 0.3391 0.21094 0.50391l-0.32422 0.32422c-0.77248 0.77264-0.77248 2.0555 0 2.8281 0.77264 0.77248 2.0555 0.77248 2.8281 0l0.32422-0.32227c0.16449 0.07773 0.3316 0.14614 0.50391 0.20898v0.45703c0 1.0927 0.90728 2 2 2s2-0.90728 2-2v-0.45508c0.17329-0.06315 0.34042-0.13272 0.50586-0.21094l0.32227 0.32227c0.77264 0.77248 2.0555 0.77248 2.8281 0 0.77248-0.77264 0.77248-2.0555 0-2.8281l-0.32422-0.32422c0.07794-0.1648 0.14794-0.33126 0.21094-0.50391h0.45703c1.0927 0 2-0.90728 2-2s-0.90728-2-2-2h-0.45703c-0.06296-0.17272-0.133-0.33899-0.21094-0.50391l0.32422-0.32422c0.77248-0.77264 0.77248-2.0555 0-2.8281-0.37474-0.37482-0.88405-0.58586-1.4141-0.58594-0.53002 7.96e-5 -1.0393 0.21112-1.4141 0.58594l-0.32422 0.32422c-0.16492-0.077936-0.33119-0.14798-0.50391-0.21094v-0.45703c0-1.0927-0.90728-2-2-2zm0 1c0.55228 0 1 0.44772 1 1v1c-0.00359 0.03279-0.00881 0.065382-0.015625 0.097656 0.6487 0.13029 1.2529 0.38645 1.7852 0.74219 0.01814-0.028312 0.0377-0.05569 0.05859-0.082031l0.70703-0.70703c0.18751-0.18755 0.44183-0.29293 0.70703-0.29297 0.2652 4.01e-5 0.51953 0.10542 0.70703 0.29297 0.39042 0.39051 0.39042 1.0236 0 1.4141l-0.70703 0.70703c-0.02634 0.020898-0.05372 0.040454-0.08203 0.058594 0.35574 0.53229 0.6119 1.1365 0.74219 1.7852 0.03227-0.00682 0.06486-0.012031 0.09765-0.015625h1c0.55228 0 1 0.44772 1 1s-0.44772 1-1 1h-1c-0.03279-0.00359-0.06538-0.00881-0.09766-0.015625-0.13 0.64724-0.38574 1.2498-0.74024 1.7812 0.02774 0.01946 0.05446 0.04032 0.08008 0.0625l0.70703 0.70703c0.39042 0.39051 0.39042 1.0236 0 1.4141-0.39051 0.39042-1.0236 0.39042-1.4141 0l-0.70703-0.70703c-0.0209-0.02634-0.04045-0.05372-0.05859-0.08203-0.52963 0.35396-1.1304 0.60934-1.7754 0.74024 0.00361 0.03308 0.00556 0.06633 0.00586 0.09961v1c0 0.55228-0.44772 1-1 1s-1-0.44772-1-1v-1c0.00359-0.03279 0.00881-0.06538 0.015625-0.09766-0.64487-0.12952-1.2454-0.38386-1.7754-0.73633-0.021471 0.02654-0.044288 0.05196-0.068359 0.07617l-0.70703 0.70703c-0.39051 0.39042-1.0236 0.39042-1.4141 0-0.39042-0.39051-0.39042-1.0236 0-1.4141l0.70703-0.70703c0.025617-0.02218 0.052344-0.04304 0.080078-0.0625-0.35449-0.5314-0.61024-1.134-0.74023-1.7812-0.032274 0.00682-0.064866 0.01203-0.097656 0.015625h-1c-0.55228 0-1-0.44772-1-1s0.44772-1 1-1h1c0.03328 2.944e-4 0.066524 0.00225 0.099609 0.00586 0.13089-0.64501 0.38628-1.2458 0.74023-1.7754-0.028312-0.01814-0.05569-0.037696-0.082031-0.058594l-0.70703-0.70703c-0.39042-0.39051-0.39042-1.0236 0-1.4141 0.18751-0.18755 0.44183-0.29293 0.70703-0.29297 0.2652 4e-5 0.51953 0.10542 0.70703 0.29297l0.70703 0.70703c0.024072 0.024207 0.046888 0.049631 0.068359 0.076172 0.52999-0.35247 1.1305-0.60681 1.7754-0.73633-0.00682-0.032274-0.01203-0.064866-0.015625-0.097656v-1c0-0.55228 0.44772-1 1-1zm-2.5 5c-0.27614 0-0.5 0.22386-0.5 0.5s0.22386 0.5 0.5 0.5 0.5-0.22386 0.5-0.5-0.22386-0.5-0.5-0.5zm5 0c-0.27614 0-0.5 0.22386-0.5 0.5s0.22386 0.5 0.5 0.5 0.5-0.22386 0.5-0.5-0.22386-0.5-0.5-0.5zm-5.8027 2.3438c-0.05786-0.00323-0.11587 0.0027-0.17188 0.017578-0.29342 0.07872-0.46745 0.38042-0.38867 0.67383 0.46788 1.7462 2.0555 2.9648 3.8633 2.9648s3.3954-1.2187 3.8633-2.9648c0.07877-0.29341-0.09525-0.59511-0.38867-0.67383-0.2934-0.078773-0.59511 0.095252-0.67383 0.38867-0.3404 1.2704-1.4856 2.1504-2.8008 2.1504s-2.4604-0.87999-2.8008-2.1504c-0.061846-0.22973-0.26438-0.39365-0.50195-0.40625z" style="fill-opacity:.5;fill:currentColor"/>
	<path class="ColorScheme-Text" d="m9 2c-0.55228 0-1 0.44772-1 1v1c0.00359 0.03279 0.00881 0.065382 0.015625 0.097656-0.64487 0.12952-1.2454 0.38386-1.7754 0.73633-0.021471-0.026541-0.044288-0.051965-0.068359-0.076172l-0.70703-0.70703c-0.18751-0.18755-0.44183-0.29293-0.70703-0.29297-0.2652 4e-5 -0.51953 0.10542-0.70703 0.29297-0.39042 0.39051-0.39042 1.0236 0 1.4141l0.70703 0.70703c0.026341 0.020898 0.05372 0.040454 0.082031 0.058594-0.35396 0.52963-0.60934 1.1304-0.74023 1.7754-0.033085-0.00361-0.066329-0.00556-0.099609-0.00586h-1c-0.55228 0-1 0.44772-1 1s0.44772 1 1 1h1c0.03279-0.00359 0.065382-0.00881 0.097656-0.015625 0.13 0.64724 0.38574 1.2498 0.74023 1.7812-0.027734 0.01946-0.054461 0.04032-0.080078 0.0625l-0.70703 0.70703c-0.39042 0.39051-0.39042 1.0236 0 1.4141 0.39051 0.39042 1.0236 0.39042 1.4141 0l0.70703-0.70703c0.024072-0.02421 0.046888-0.04963 0.068359-0.07617 0.52999 0.35247 1.1305 0.60681 1.7754 0.73633-0.00682 0.03227-0.01203 0.06486-0.015625 0.09765v1c0 0.55228 0.44772 1 1 1s1-0.44772 1-1v-1c-2.944e-4 -0.03328-0.00225-0.06652-0.00586-0.09961 0.64501-0.13089 1.2458-0.38628 1.7754-0.74024 0.01814 0.02831 0.0377 0.05569 0.05859 0.08203l0.70703 0.70703c0.39051 0.39042 1.0236 0.39042 1.4141 0 0.39042-0.39051 0.39042-1.0236 0-1.4141l-0.70703-0.70703c-0.02562-0.02218-0.05234-0.04304-0.08008-0.0625 0.35449-0.53141 0.61024-1.134 0.74024-1.7812 0.03228 0.00682 0.06487 0.012034 0.09766 0.015628h1c0.55228 0 1-0.44772 1-1s-0.44772-1-1-1h-1c-0.03279 0.00359-0.06538 0.00881-0.09766 0.015625-0.13029-0.6487-0.38645-1.2529-0.74219-1.7852 0.02831-0.01814 0.05569-0.037696 0.08203-0.058594l0.70703-0.70703c0.39042-0.39051 0.39042-1.0236 0-1.4141-0.1875-0.18755-0.44183-0.29293-0.70703-0.29297-0.2652 3.99e-5 -0.51953 0.10542-0.70703 0.29297l-0.70703 0.70703c-0.0209 0.026341-0.04045 0.05372-0.05859 0.082031-0.53229-0.35574-1.1365-0.6119-1.7852-0.74219 0.00682-0.032274 0.01203-0.064866 0.015625-0.097656v-1c0-0.55228-0.44772-1-1-1zm0 3.0996c2.1604 0 3.9004 1.74 3.9004 3.9004s-1.74 3.9004-3.9004 3.9004-3.9004-1.74-3.9004-3.9004 1.74-3.9004 3.9004-3.9004zm-1.5 1.9004c-0.27614 0-0.5 0.22386-0.5 0.5s0.22386 0.5 0.5 0.5 0.5-0.22386 0.5-0.5-0.22386-0.5-0.5-0.5zm3 0c-0.27614 0-0.5 0.22386-0.5 0.5s0.22386 0.5 0.5 0.5 0.5-0.22386 0.5-0.5-0.22386-0.5-0.5-0.5zm-3.8672 2.084c-0.048176 2.378e-4 -0.096113 0.0068-0.14258 0.019531-0.29342 0.07872-0.46745 0.38042-0.38867 0.67383 0.35074 1.309 1.5433 2.2227 2.8984 2.2227s2.5477-0.91367 2.8984-2.2227c0.07877-0.29341-0.09525-0.59511-0.38867-0.67383-0.2934-0.078774-0.59511 0.095252-0.67383 0.38867-0.22326 0.83322-0.97333 1.4082-1.8359 1.4082s-1.6127-0.57499-1.8359-1.4082c-0.064218-0.24067-0.28216-0.40813-0.53125-0.4082z" style="fill-opacity:.75;fill:currentColor"/>
</svg>
