<?xml version="1.0" encoding="UTF-8" standalone="no"?>
<!-- Created with Inkscape (http://www.inkscape.org/) -->

<svg
   xmlns:dc="http://purl.org/dc/elements/1.1/"
   xmlns:cc="http://creativecommons.org/ns#"
   xmlns:rdf="http://www.w3.org/1999/02/22-rdf-syntax-ns#"
   xmlns:svg="http://www.w3.org/2000/svg"
   xmlns="http://www.w3.org/2000/svg"
   xmlns:sodipodi="http://sodipodi.sourceforge.net/DTD/sodipodi-0.dtd"
   xmlns:inkscape="http://www.inkscape.org/namespaces/inkscape"
   version="1.1"
   width="18"
   height="18"
   id="svg2"
   inkscape:version="0.92.2 5c3e80d, 2017-08-06"
   sodipodi:docname="genymotion-player.svg">
  <sodipodi:namedview
     pagecolor="#ffffff"
     bordercolor="#666666"
     borderopacity="1"
     objecttolerance="10"
     gridtolerance="10"
     guidetolerance="10"
     inkscape:pageopacity="0"
     inkscape:pageshadow="2"
     inkscape:window-width="1920"
     inkscape:window-height="1033"
     id="namedview6"
     showgrid="true"
     inkscape:zoom="29.5"
     inkscape:cx="11.267672"
     inkscape:cy="10.623279"
     inkscape:window-x="-10"
     inkscape:window-y="25"
     inkscape:window-maximized="1"
     inkscape:current-layer="svg2"
     inkscape:snap-global="false">
    <inkscape:grid
       type="xygrid"
       id="grid2982"
       empspacing="5"
       visible="true"
       enabled="true"
       snapvisiblegridlinesonly="true" />
  </sodipodi:namedview>
  <defs
     id="defs4" />
  <metadata
     id="metadata7">
    <rdf:RDF>
      <cc:Work
         rdf:about="">
        <dc:format>image/svg+xml</dc:format>
        <dc:type
           rdf:resource="http://purl.org/dc/dcmitype/StillImage" />
        <dc:title />
      </cc:Work>
    </rdf:RDF>
  </metadata>
  <path
     inkscape:connector-curvature="0"
     id="path814"
     d="M 8.6308594,1.0019531 C 7.3358603,1.0605289 6.0645039,1.4313616 4.9316406,2.1015625 2.1821577,3.7281509 0.66140819,6.8244781 1.0546875,9.9941406 c 0.2684574,2.1636634 1.4132989,4.1229314 3.1679687,5.4316404 1.2276127,0.915609 2.710098,1.46432 4.2363282,1.564453 1.9988586,0.131135 3.9763566,-0.484784 5.5312496,-1.728515 2.459065,-1.966957 3.538331,-5.16897 2.773438,-8.2265628 C 16.052607,4.1927235 13.804724,1.9472448 10.962891,1.2363281 10.192192,1.0435296 9.4081151,0.9667988 8.6308594,1.0019531 Z M 8.6757812,2 c 0.6801723,-0.030763 1.3672868,0.037514 2.0449218,0.2070312 2.479095,0.6201736 4.452094,2.5912184 5.072266,5.0703126 0.672059,2.686497 -0.268156,5.4757212 -2.427735,7.2031252 -1.357572,1.085897 -3.088433,1.626619 -4.8398434,1.511719 C 7.1969138,15.905029 5.8897803,15.422657 4.8203125,14.625 3.2816419,13.477392 2.2817024,11.763712 2.046875,9.8710938 1.7019518,7.0911605 3.0295725,4.3897264 5.4414062,2.9628906 6.4321972,2.3767395 7.5421616,2.0512762 8.6757812,2 Z m 3.1816408,3.9765625 c -1.640365,0 -2.9804689,1.3420572 -2.9804689,2.9824219 0,1.6403646 1.3401039,2.9804686 2.9804689,2.9804686 1.640365,0 2.982422,-1.340104 2.982422,-2.9804686 0,-1.6403647 -1.342057,-2.9824219 -2.982422,-2.9824219 z m 0,1 c 1.099924,0 1.982422,0.8824974 1.982422,1.9824219 0,1.0999246 -0.882498,1.9804686 -1.982422,1.9804686 -1.099925,0 -1.9804689,-0.880544 -1.9804689,-1.9804686 0,-1.0999245 0.8805439,-1.9824219 1.9804689,-1.9824219 z M 5.53125,6.984375 c -1.3689834,0 -2.4902344,1.1192982 -2.4902344,2.4882812 0,1.3689838 1.121251,2.4902348 2.4902344,2.4902348 1.3689834,0 2.4882812,-1.121251 2.4882812,-2.4902348 0,-1.3689831 -1.1192978,-2.4882812 -2.4882812,-2.4882812 z m 0,1 c 0.8285432,0 1.4882812,0.6597381 1.4882812,1.4882812 0,0.8285438 -0.659738,1.4902348 -1.4882812,1.4902348 -0.8285432,0 -1.4902344,-0.661692 -1.4902344,-1.4902348 0,-0.8285431 0.6616912,-1.4882812 1.4902344,-1.4882812 z"
     style="color:#000000;font-style:normal;font-variant:normal;font-weight:normal;font-stretch:normal;font-size:medium;line-height:normal;font-family:sans-serif;font-variant-ligatures:normal;font-variant-position:normal;font-variant-caps:normal;font-variant-numeric:normal;font-variant-alternates:normal;font-feature-settings:normal;text-indent:0;text-align:start;text-decoration:none;text-decoration-line:none;text-decoration-style:solid;text-decoration-color:#000000;letter-spacing:normal;word-spacing:normal;text-transform:none;writing-mode:lr-tb;direction:ltr;text-orientation:mixed;dominant-baseline:auto;baseline-shift:baseline;text-anchor:start;white-space:normal;shape-padding:0;clip-rule:nonzero;display:inline;overflow:visible;visibility:visible;opacity:1;isolation:auto;mix-blend-mode:normal;color-interpolation:sRGB;color-interpolation-filters:linearRGB;solid-color:#000000;solid-opacity:1;vector-effect:none;fill:#27303a;fill-opacity:0.75328082;fill-rule:nonzero;stroke:none;stroke-width:1;stroke-linecap:butt;stroke-linejoin:miter;stroke-miterlimit:4;stroke-dasharray:none;stroke-dashoffset:0;stroke-opacity:1;marker:none;color-rendering:auto;image-rendering:auto;shape-rendering:auto;text-rendering:auto;enable-background:accumulate;font-variant-east_asian:normal" />
  <path
     id="path816"
     d="M 8.6757812,2 C 7.5421616,2.0512762 6.4321972,2.3767395 5.4414062,2.9628906 3.0295725,4.3897264 1.7019518,7.0911605 2.046875,9.8710938 2.2817024,11.763712 3.2816419,13.477392 4.8203125,14.625 c 1.0694678,0.797657 2.3766013,1.280029 3.7050781,1.367188 1.7514104,0.114901 3.4822714,-0.425822 4.8398434,-1.511719 2.159579,-1.727404 3.099794,-4.5166281 2.427735,-7.2031252 C 15.172797,4.7982497 13.199798,2.8272048 10.720703,2.2070312 10.043068,2.0375135 9.3559535,1.9692366 8.6757812,2 Z m 3.1816408,3.9765625 c 1.640365,0 2.982422,1.3420572 2.982422,2.9824219 0,1.6403646 -1.342057,2.9804686 -2.982422,2.9804686 -1.640365,0 -2.9804689,-1.340104 -2.9804689,-2.9804686 0,-1.6403647 1.3401039,-2.9824219 2.9804689,-2.9824219 z m 0,1 c -1.099925,0 -1.9804689,0.8824974 -1.9804689,1.9824219 0,1.0999246 0.8805439,1.9804686 1.9804689,1.9804686 1.099924,0 1.982422,-0.880544 1.982422,-1.9804686 0,-1.0999245 -0.882498,-1.9824219 -1.982422,-1.9824219 z M 5.53125,6.984375 c 1.3689834,0 2.4882812,1.119298 2.4882812,2.4882812 0,1.3689838 -1.1192978,2.4902348 -2.4882812,2.4902348 -1.3689834,0 -2.4902344,-1.121251 -2.4902344,-2.4902348 0,-1.3689831 1.121251,-2.4882812 2.4902344,-2.4882812 z m 0,1 c -0.8285432,0 -1.4902344,0.6597381 -1.4902344,1.4882812 0,0.8285438 0.6616912,1.4902348 1.4902344,1.4902348 0.8285432,0 1.4882812,-0.661692 1.4882812,-1.4902348 0,-0.8285431 -0.659738,-1.4882812 -1.4882812,-1.4882812 z"
     style="opacity:1;vector-effect:none;fill:#f1f3f5;fill-opacity:0.90288714;stroke:none;stroke-width:2;stroke-linecap:butt;stroke-linejoin:miter;stroke-miterlimit:4;stroke-dasharray:none;stroke-dashoffset:0;stroke-opacity:1;marker:none;font-variant-east_asian:normal"
     inkscape:connector-curvature="0" />
</svg>
