<?xml version="1.0" encoding="UTF-8" standalone="no"?>
<svg
   xmlns:dc="http://purl.org/dc/elements/1.1/"
   xmlns:cc="http://creativecommons.org/ns#"
   xmlns:rdf="http://www.w3.org/1999/02/22-rdf-syntax-ns#"
   xmlns:svg="http://www.w3.org/2000/svg"
   xmlns="http://www.w3.org/2000/svg"
   id="svg24"
   version="1.1"
   height="18"
   width="18">
  <defs
     id="defs4">
    <style
       type="text/css"
       id="current-color-scheme">.ColorScheme-Text {color:#090d11;}.ColorScheme-Background{color:#ffffff;}</style>
  </defs>
  <metadata
     id="metadata14">
    <rdf:RDF>
      <cc:Work
         rdf:about="">
        <dc:format>image/svg+xml</dc:format>
        <dc:type
           rdf:resource="http://purl.org/dc/dcmitype/StillImage" />
        <dc:title></dc:title>
      </cc:Work>
    </rdf:RDF>
  </metadata>
  <path
     id="path31"
     d="M 5,4 C 4.0000001,4 2,5.4999999 2,8.5 v 1 C 2,12.499999 4.0000001,14 5,14 H 16 V 11 H 11 L 16,7 V 4 Z m 1,3 h 7 L 9,10 V 8 H 7 v 3 H 6 C 5.5,11 5,10.5 5,9.5 v -1 C 5,7.5 5.5012707,7.0356235 6,7 Z"
     style="fill:currentColor;fill-opacity:0.75"
     class="ColorScheme-Text" />
  <path
     style="fill:currentColor;fill-opacity:0.5"
     d="M 5,3 C 2.232125,3.5647186 1.0281534,6.233361 1,8.5 v 1 c 0,2.5128 1.5589578,5.440111 4,5.5 h 11 c 0.552262,-5.5e-5 0.999945,-0.447738 1,-1 v -3 c -5.5e-5,-0.552262 -0.447738,-0.999945 -1,-1 H 13.74365 L 16.707031,7.707031 C 16.894567,7.519519 16.999949,7.265199 17,7 V 4 C 16.999945,3.4477381 16.552262,3.0000552 16,3 Z m 0,1 h 11 v 3 l -5,4 h 5 v 3 H 5 C 4.0000001,14 2,12.499999 2,9.5 v -1 C 2,5.4999999 4.0000001,4 5,4 Z M 6,7 C 5.5,7 5,7.5 5,8.5 v 1 c 0,1 0.5527864,1.723607 1,1.5 H 7 V 8 h 2 v 2 l 4,-3 z"
     id="path20"
     class="ColorScheme-Background" />
</svg>
