<?xml version="1.0" encoding="UTF-8"?>
<svg id="d" width="18" height="18" version="1.1" xmlns="http://www.w3.org/2000/svg" xmlns:cc="http://creativecommons.org/ns#" xmlns:dc="http://purl.org/dc/elements/1.1/" xmlns:rdf="http://www.w3.org/1999/02/22-rdf-syntax-ns#">
	<metadata id="f">
		<rdf:RDF>
			<cc:Work rdf:about="">
				<dc:format>image/svg+xml</dc:format>
				<dc:type rdf:resource="http://purl.org/dc/dcmitype/StillImage"/>
				<dc:title/>
			</cc:Work>
		</rdf:RDF>
	</metadata>
	<defs id="b">
		<style id="current-color-scheme" type="text/css">.ColorScheme-Text {
			color:#090d11;
			}
			.ColorScheme-Background{
			color:#ffffff;
			}</style>
	</defs>
	<g id="h" transform="translate(3365.4,-1858.5)">
		<path id="a" class="ColorScheme-Background" d="m-3359.4 1864.5v2c1.1046 0 2-0.8954 2-2zm4 0c0 1.1046 0.8954 2 2 2v-2zm-4 4v2h2c0-1.1046-0.8954-2-2-2zm6 0c-1.1046 0-2 0.8954-2 2h2z" style="fill-opacity:.5;fill:currentColor"/>
		<path id="g" class="ColorScheme-Text" d="m-3362.4 1860.5c-0.554 0-1 0.446-1 1v12c0 0.554 0.446 1 1 1h12c0.554 0 1-0.446 1-1v-12c0-0.554-0.446-1-1-1zm3 2c1.1046 0 2 0.8954 2 2s-0.8954 2-2 2-2-0.8954-2-2 0.8954-2 2-2zm6 0c1.1046 0 2 0.8954 2 2s-0.8954 2-2 2-2-0.8954-2-2 0.8954-2 2-2zm-6 6c1.1046 0 2 0.8954 2 2s-0.8954 2-2 2-2-0.8954-2-2 0.8954-2 2-2zm6 0c1.1046 0 2 0.8954 2 2s-0.8954 2-2 2-2-0.8954-2-2 0.8954-2 2-2z" style="fill-opacity:.75;fill:currentColor"/>
		<path id="e" class="ColorScheme-Background" d="m-3362.4 1859.5c-1.0907 0-2 0.9093-2 2v12c0 1.0907 0.9093 2 2 2h12c1.0907 0 2-0.9093 2-2v-12c0-1.0907-0.9093-2-2-2zm0 1h12c0.554 0 1 0.446 1 1v12c0 0.554-0.446 1-1 1h-12c-0.554 0-1-0.446-1-1v-12c0-0.554 0.446-1 1-1zm3 2c-1.1046 0-2 0.8954-2 2s0.8954 2 2 2v-2h2c0-1.1046-0.8954-2-2-2zm6 0c-1.1046 0-2 0.8954-2 2h2v2c1.1046 0 2-0.8954 2-2s-0.8954-2-2-2zm-6 6c-1.1046 0-2 0.8954-2 2s0.8954 2 2 2 2-0.8954 2-2h-2zm6 0v2h-2c0 1.1046 0.8954 2 2 2s2-0.8954 2-2-0.8954-2-2-2z" style="fill-opacity:.5;fill:currentColor"/>
		<path id="c" class="ColorScheme-Text" d="m-3359.4 1864.5v2c1.1046 0 2-0.8954 2-2zm4 0c0 1.1046 0.8954 2 2 2v-2zm-4 4v2h2c0-1.1046-0.8954-2-2-2zm6 0c-1.1046 0-2 0.8954-2 2h2z" style="fill-opacity:.75;fill:currentColor;opacity:.35"/>
	</g>
</svg>
