<?xml version="1.0" encoding="UTF-8"?>
<svg id="a" width="18" height="18" version="1.1" xmlns="http://www.w3.org/2000/svg" xmlns:cc="http://creativecommons.org/ns#" xmlns:dc="http://purl.org/dc/elements/1.1/" xmlns:rdf="http://www.w3.org/1999/02/22-rdf-syntax-ns#">
	<metadata id="b">
		<rdf:RDF>
			<cc:Work rdf:about="">
				<dc:format>image/svg+xml</dc:format>
				<dc:type rdf:resource="http://purl.org/dc/dcmitype/StillImage"/>
				<dc:title/>
			</cc:Work>
		</rdf:RDF>
	</metadata>
	<defs id="d">
		<style id="current-color-scheme" type="text/css">.ColorScheme-Text {color:#090d11;}.ColorScheme-Background{color:#ffffff;}</style>
	</defs>
	<path id="e" class="ColorScheme-Text" d="m3 2c-0.554 0-1 0.446-1 1v12c0 0.554 0.446 1 1 1h12c0.554 0 1-0.446 1-1v-12c0-0.554-0.446-1-1-1zm2.0352 1.0098h2.998v0.9707h-1.0176v5.0059h1.0176v0.99609h-2.998v-0.99609h0.98633v-5.0059h-0.98633zm3.9648 0h2.1484c0.75204 0 0.9596 0.16818 1.3477 0.50781 0.38805 0.33665 0.58203 0.83193 0.58203 1.4844 0 0.65841-0.19398 1.1555-0.58203 1.4922-0.38504 0.33665-0.59264 0.50586-1.3477 0.50586h-1.125v2.9824h-1.0234zm1.0234 0.96484v2.0566h1.125c0.42114 0 0.38646-0.090611 0.62109-0.27148 0.23764-0.18087 0.35742-0.43273 0.35742-0.75781s-0.11693-0.57743-0.35156-0.75586c-0.23464-0.18087-0.2028-0.27148-0.62695-0.27148zm4.4375 7.0488c0.25854 0 0.50391 0.1656 0.50391 0.49609 0 0.15913-0.05739 0.2815-0.17383 0.36719-0.11642 0.08569-0.19054 0.13086-0.33008 0.13086-0.12486 0-0.18338-0.03738-0.3125-0.11328-0.12534-0.07834-0.18555-0.2085-0.18555-0.38477 0-0.3305 0.20917-0.49609 0.49805-0.49609zm-7.5723 0.0078h1.0352l0.5293 1.5684c0.11632 0.40418 0.18882 0.4905 0.2168 0.66992h0.017578c0.019142-0.09632 0.05877-0.05675 0.11914-0.28906 0.061843-0.2342 0.2629-0.74801 0.60156-1.9492h0.89258l-1.0391 3.332c-0.10307 0.34941-0.22487 0.5987-0.36328 0.74414-0.13694 0.14732-0.80561 0.21875-1.0059 0.21875-0.11191 0-0.22112-0.01476-0.33008-0.04687l-0.5-0.37891c0.080985 0.02263 0.17136 0.03516 0.27148 0.03516 0.25179 0 0.43157-0.18034 0.53906-0.54297v-0.40234zm-2.8574 2e-3h1.9746v0.93945h-1.0059v2.0156h1.0059v0.99024h-1.9746zm6.9531 0.01563h2.0195v3.9453h-2.0195v-0.99024h1.041v-2.0176h-1.041zm3.4766 2.9277c-2e-6 1e-6 0.22528 0.04244 0.3418 0.13086 0.12016 0.08591 0.17774 0.21158 0.17774 0.38086 0 0.16423-0.05757 0.29437-0.17774 0.38281-0.12016 0.08842-0.19778 0.13086-0.3418 0.13086-0.12886 0-0.189-0.03886-0.32227-0.11719-0.12936-0.08086-0.19336-0.21457-0.19336-0.39648 1e-6 -0.16929 0.06014-0.29496 0.17774-0.38086 0.12151-0.08842 0.19387-0.13086 0.33789-0.13086z" style="fill-opacity:.75;fill:currentColor"/>
	<path id="c" class="ColorScheme-Background" d="m3 1c-1.0907 0-2 0.9093-2 2v12c0 1.0907 0.9093 2 2 2h12c1.0907 0 2-0.9093 2-2v-12c0-1.0907-0.9093-2-2-2zm0 1h12c0.554 0 1 0.446 1 1v12c0 0.554-0.446 1-1 1h-12c-0.554 0-1-0.446-1-1v-12c0-0.554 0.446-1 1-1zm2.0352 1.0098v0.9707h0.98633v5.0059h-0.98633v0.99609h2.998v-0.99609h-1.0176v-5.0059h1.0176v-0.9707zm3.9648 0v6.9727h1.0234v-2.9824h1.125c0.75502 0 0.96261-0.16921 1.3477-0.50586 0.38805-0.33665 0.58203-0.83378 0.58203-1.4922 0-0.65245-0.19398-1.1477-0.58203-1.4844-0.38805-0.33963-0.59562-0.50781-1.3477-0.50781zm1.0234 0.96484h1.125c0.42415 0 0.39232 0.09061 0.62695 0.27148 0.23464 0.17843 0.35156 0.43078 0.35156 0.75586s-0.11978 0.57694-0.35742 0.75781c-0.23464 0.18087-0.19995 0.27148-0.62109 0.27148h-1.125zm4.4367 7.0254c-0.29814 0-0.53984 0.22386-0.53984 0.5s0.2417 0.5 0.53984 0.5c0.29815 0 0.53984-0.22386 0.53984-0.5s-0.2417-0.5-0.53984-0.5zm-7.5715 0.03125 0.98438 2.959v0.40234c-0.10749 0.36263-0.28727 0.54297-0.53906 0.54297-0.10013 0-0.1905-0.01253-0.27148-0.03516l0.5 0.37891c0.10896 0.03211 0.21817 0.04687 0.33008 0.04687 0.20025 0 0.86892-0.07143 1.0059-0.21875 0.13841-0.14544 0.26021-0.39473 0.36328-0.74414l1.0391-3.332h-0.89258c-0.33866 1.2012-0.53972 1.715-0.60156 1.9492-0.060371 0.23231-0.099999 0.19274-0.11914 0.28906h-0.017578c-0.027977-0.17943-0.10047-0.26574-0.2168-0.66992l-0.5293-1.5684zm-2.8574 2e-3v3.9453h1.9746v-0.99028h-1.0059v-2.0156h1.0059v-0.93945zm6.9531 0.01563v0.9375h1.041v2.0176h-1.041v0.99024h2.0195v-3.9454zm3.4758 2.9511c-0.29814 0-0.53984 0.22386-0.53984 0.5s0.2417 0.5 0.53984 0.5c0.29815 0 0.53984-0.22386 0.53984-0.5s-0.2417-0.5-0.53984-0.5z" style="fill-opacity:.5;fill:currentColor"/>
</svg>
