<?xml version="1.0" encoding="UTF-8"?>
<svg id="d" width="18" height="18" version="1.1" xmlns="http://www.w3.org/2000/svg" xmlns:cc="http://creativecommons.org/ns#" xmlns:dc="http://purl.org/dc/elements/1.1/" xmlns:rdf="http://www.w3.org/1999/02/22-rdf-syntax-ns#">
	<metadata id="a">
		<rdf:RDF>
			<cc:Work rdf:about="">
				<dc:format>image/svg+xml</dc:format>
				<dc:type rdf:resource="http://purl.org/dc/dcmitype/StillImage"/>
				<dc:title/>
			</cc:Work>
		</rdf:RDF>
	</metadata>
	<defs id="c">
		<style id="current-color-scheme" type="text/css">.ColorScheme-Text {color:#090d11;}.ColorScheme-Background{color:#ffffff;}</style>
	</defs>
	<path id="b" class="ColorScheme-Text" d="m5 1.6-1.4375 1.4375 1.7812 2.9688c-0.018 0.043-0.045 0.082-0.062 0.125l-3.3437 0.8437v2l3.375 0.8438c0.013 0.031 0.018 0.063 0.031 0.094l-1.7812 3 1.4375 1.4375 2.9375-1.7812c0.054 0.024 0.1008 0.041 0.1562 0.062l0.8438 3.3437h2l0.8437-3.375c0.031-0.013 0.063-0.018 0.094-0.031l3 1.7812 1.4375-1.4375-1.7813-2.9375c0.101-0.2304 0.183-0.4687 0.25-0.7187l-0.875-0.875c-0.102 1.0089-0.5735 1.9162-1.2812 2.5625-0.7077 0.6462-1.6517 1.0312-2.6875 1.0312-1.0315 0-1.9781-0.3901-2.6875-1.0312-0.1005-0.091-0.1904-0.1808-0.2813-0.2813-0.6411-0.7094-1.0312-1.656-1.0312-2.6875 0-1.0358 0.385-1.9798 1.0312-2.6875 0.6463-0.7077 1.5536-1.1792 2.5625-1.2812l-0.875-0.875c-0.2386 0.064-0.4637 0.1526-0.6875 0.25l-2.9687-1.7813zm4.9375 3.375c-1.6569 0-3 1.3431-3 3s1.3431 3 3 3 3-1.3431 3-3-1.3431-3-3-3zm-1 2 2 1-2 1z" style="fill-opacity:.75;fill:currentColor"/>
	<path id="e" class="ColorScheme-Background" d="m5.0625 0.625a1.0001 1.0001 0 0 0-0.70703 0.29297l-1.4375 1.4375a1.0001 1.0001 0 0 0-0.15039 1.2207l1.1465 1.9102-2.1582 0.54297a1.0001 1.0001 0 0 0-0.75391 0.9707v2a1.0001 1.0001 0 0 0 0.75781 0.9707l2.1465 0.53711-1.1406 1.9199a1.0001 1.0001 0 0 0 0.1543 1.2168l1.4375 1.4375a1.0001 1.0001 0 0 0 1.2246 0.14844l1.9023-1.1543 0.54688 2.168a1.0001 1.0001 0 0 0 0.9707 0.75586h2a1.0001 1.0001 0 0 0 0.96875-0.75781l0.53711-2.1484 1.9199 1.1406a1.0001 1.0001 0 0 0 1.2188-0.15234l1.4375-1.4375a1.0001 1.0001 0 0 0 0.14648-1.2266l-1.5391-2.5371c0.038-0.1145 0.08794-0.2252 0.11914-0.3418a1.0001 1.0001 0 0 0-0.25781-0.96484l-0.875-0.875a1.0001 1.0001 0 0 0-0.79688-0.28906c-0.2671-1.7089-1.5821-3.0219-3.291-3.2891a1.0001 1.0001 0 0 0-0.28711-0.79688l-0.875-0.875a1.0001 1.0001 0 0 0-0.9668-0.25977c-0.1198 0.032-0.21111 0.077034-0.32031 0.11523l-2.5625-1.5371a1.0001 1.0001 0 0 0-0.51367-0.14258h-0.00195zm0 1 2.9688 1.7812c0.2238-0.0974 0.4489-0.186 0.6875-0.25l0.875 0.875c-1.0089 0.102-1.9162 0.57355-2.5625 1.2812-0.6462 0.7077-1.0312 1.6517-1.0312 2.6875 0 1.0315 0.39015 1.9781 1.0312 2.6875 0.0909 0.1005 0.18075 0.19025 0.28125 0.28125 0.7094 0.6411 1.656 1.0312 2.6875 1.0312 1.0358 0 1.9798-0.38505 2.6875-1.0312 0.7077-0.6463 1.1792-1.5536 1.2812-2.5625l0.875 0.875c-0.067 0.25-0.149 0.48835-0.25 0.71875l1.7812 2.9375-1.4375 1.4375-3-1.7812c-0.031 0.013-0.06275 0.01825-0.09375 0.03125l-0.84375 3.375h-2l-0.84375-3.3438c-0.0554-0.021-0.10225-0.0385-0.15625-0.0625l-2.9375 1.7812-1.4375-1.4375 1.7812-3c-0.013-0.031-0.01825-0.06275-0.03125-0.09375l-3.375-0.84375v-2l3.3438-0.84375c0.017-0.043 0.0445-0.082 0.0625-0.125l-1.7812-2.9688 1.4375-1.4375zm4.9375 3.375c1.6569 0 3 1.3431 3 3s-1.3431 3-3 3-3-1.3431-3-3 1.3431-3 3-3zm-1 2v2l2-1z" style="fill-opacity:.5;fill:currentColor"/>
</svg>
