<?xml version="1.0" encoding="UTF-8"?>
<!-- Created with Inkscape (http://www.inkscape.org/) -->
<svg width="18" height="18" version="1.1" xmlns="http://www.w3.org/2000/svg" xmlns:cc="http://creativecommons.org/ns#" xmlns:dc="http://purl.org/dc/elements/1.1/" xmlns:rdf="http://www.w3.org/1999/02/22-rdf-syntax-ns#">
	<defs>
		<radialGradient id="a" cx="8.3039" cy="6.97" r="4.5115" gradientTransform="matrix(2.549,0,0,2.9412,-12.167,-15.5)" gradientUnits="userSpaceOnUse">
			<stop stop-color="#213851" stop-opacity=".9059" offset="0"/>
			<stop stop-color="#27303a" stop-opacity="0" offset="1"/>
		</radialGradient>
		<radialGradient id="c" cx="8.7396" cy="6.443" r="5.5094" gradientTransform="matrix(2.0874,0,0,2.569,-8.243,-11.552)" gradientUnits="userSpaceOnUse">
			<stop stop-color="#ffffff" stop-opacity=".74858" offset="0"/>
			<stop stop-color="#ffffff" stop-opacity=".60511" offset="1"/>
		</radialGradient>
	</defs>
	<metadata>
		<rdf:RDF>
			<cc:Work rdf:about="">
				<dc:format>image/svg+xml</dc:format>
				<dc:type rdf:resource="http://purl.org/dc/dcmitype/StillImage"/>
				<dc:title/>
			</cc:Work>
		</rdf:RDF>
	</metadata>
	<path d="m7 1c-0.5518 0-1.0786 0.26434-1.4043 0.61914s-0.49337 0.77165-0.57617 1.1855l-1 5c-0.1436 0.718 0.2717 1.3711 0.7207 1.7031s0.97602 0.49219 1.5449 0.49219h0.21484v0.23633l0.5 1v4.6895l1 1.0742h1.0391l-1.0391-1v-5l-0.5-1v-1h-1.2148c-0.7123 0-1.3943-0.4545-1.2852-1l1-5c0.1087-0.5433 0.446-1 1-1h5c0.5541 0 0.8913 0.4567 1 1l1 5c0.1091 0.5455-0.57276 1-1.2852 1h-1.2148v1l-0.5 1v5l-1.0391 1h1.0391l1-1.0742v-4.6895l0.5-1v-0.23633h0.21484c0.5689 0 1.0959-0.16019 1.5449-0.49219s0.8643-0.98512 0.7207-1.7031l-1-5c-0.083-0.4139-0.25047-0.83065-0.57617-1.1855-0.3257-0.3548-0.8525-0.61914-1.4043-0.61914h-5zm2.9609 16c0.024-0.0589 0.039062-0.12341 0.039062-0.19141v-5.3086c0-0.277-0.223-0.5-0.5-0.5s-0.5 0.223-0.5 0.5v5.3086c0 0.0679 0.015062 0.13241 0.039062 0.19141h0.92188zm-0.46094-14c-0.277 0-0.5 0.223-0.5 0.5s0.223 0.5 0.5 0.5 0.5-0.223 0.5-0.5-0.223-0.5-0.5-0.5z" color="#000000" color-rendering="auto" dominant-baseline="auto" fill="url(#c)" image-rendering="auto" shape-rendering="auto" solid-color="#000000" style="font-feature-settings:normal;font-variant-alternates:normal;font-variant-caps:normal;font-variant-ligatures:normal;font-variant-numeric:normal;font-variant-position:normal;isolation:auto;mix-blend-mode:normal;paint-order:normal;shape-padding:0;text-decoration-color:#000000;text-decoration-line:none;text-decoration-style:solid;text-indent:0;text-orientation:mixed;text-transform:none;white-space:normal"/>
	<path d="m7 2c-0.554 0-0.8913 0.4567-1 1l-1 5c-0.1091 0.5455 0.5729 1 1.2852 1h1.2148v1l0.5 1v5l1 0.9629v0.037h0.9998v-0.037l1-0.9629v-5l0.5-1v-1h1.2148c0.7124 0 1.3943-0.4545 1.2852-1l-1-5c-0.1087-0.5433-0.4459-1-1-1zm0 1h5l0.9668 4.9297-0.25 0.07h-2.2148v1.7637l-0.2715 0.5449-0.2305 0.6914v5h-1v-5l-0.2285-0.6934-0.2715-0.5429v-1.7637h-2.2148l-0.25-0.07zm2.5 1c-0.277 0-0.5 0.223-0.5 0.5s0.223 0.5 0.5 0.5 0.5-0.223 0.5-0.5-0.223-0.5-0.5-0.5z" color="#000000" color-rendering="auto" dominant-baseline="auto" fill="#090d11" fill-opacity=".76621" image-rendering="auto" shape-rendering="auto" solid-color="#000000" style="font-feature-settings:normal;font-variant-alternates:normal;font-variant-caps:normal;font-variant-ligatures:normal;font-variant-numeric:normal;font-variant-position:normal;isolation:auto;mix-blend-mode:normal;paint-order:normal;shape-padding:0;text-decoration-color:#000000;text-decoration-line:none;text-decoration-style:solid;text-indent:0;text-orientation:mixed;text-transform:none;white-space:normal"/>
	<path d="m7 2c-0.554 0-0.8913 0.4567-1 1l-1 5c-0.1091 0.5455 0.57286 1 1.2852 1h1.2148v1l0.5 1v5l1 0.96289v0.03711h1v-0.03711l1-0.96289v-5l0.5-1v-1h1.2148c0.7124 0 1.3943-0.4545 1.2852-1l-1-5c-0.1087-0.5433-0.4459-1-1-1zm0 1h5l0.9668 4.9297-0.25 0.070312h-2.2148v1.7637l-0.27148 0.54492-0.23047 0.69141v5h-1v-5l-0.22852-0.69336-0.27148-0.54297v-1.7637h-2.2148l-0.25-0.070312 0.96484-4.9297zm2.5 1c-0.277 0-0.5 0.223-0.5 0.5s0.223 0.5 0.5 0.5 0.5-0.223 0.5-0.5-0.223-0.5-0.5-0.5z" color="#000000" color-rendering="auto" dominant-baseline="auto" fill="url(#a)" fill-opacity=".7533" image-rendering="auto" shape-rendering="auto" solid-color="#000000" style="font-feature-settings:normal;font-variant-alternates:normal;font-variant-caps:normal;font-variant-ligatures:normal;font-variant-numeric:normal;font-variant-position:normal;isolation:auto;mix-blend-mode:normal;paint-order:normal;shape-padding:0;text-decoration-color:#000000;text-decoration-line:none;text-decoration-style:solid;text-indent:0;text-orientation:mixed;text-transform:none;white-space:normal"/>
</svg>
