<?xml version="1.0" encoding="UTF-8"?>
<!-- Created with Inkscape (http://www.inkscape.org/) -->
<svg width="18" height="18" version="1.1" xmlns="http://www.w3.org/2000/svg" xmlns:cc="http://creativecommons.org/ns#" xmlns:dc="http://purl.org/dc/elements/1.1/" xmlns:rdf="http://www.w3.org/1999/02/22-rdf-syntax-ns#">
	<metadata>
		<rdf:RDF>
			<cc:Work rdf:about="">
				<dc:format>image/svg+xml</dc:format>
				<dc:type rdf:resource="http://purl.org/dc/dcmitype/StillImage"/>
			</cc:Work>
		</rdf:RDF>
	</metadata>
	<defs>
		<style id="current-color-scheme" type="text/css">.ColorScheme-Background{color:#ffffff;}
			.ColorScheme-Text{color:#090d11;}</style>
	</defs>
	<path class="ColorScheme-Text" d="m12.5 2a3.4999 3.4999 0 0 0-3.5 3.5 3.4999 3.4999 0 0 0 0.42773 1.6582l-6.1348 6.1348a1 1 0 0 0 0 1.4141 1 1 0 0 0 1.4141 0l4.293-4.293 4.293 4.293a1 1 0 0 0 1.4141 0 1 1 0 0 0 0-1.4141l-4.293-4.293 0.42773-0.42773a3.4999 3.4999 0 0 0 1.6582 0.42773 3.4999 3.4999 0 0 0 3.5-3.5 3.4999 3.4999 0 0 0-3.5-3.5zm-8.5 1a1 1 0 0 0-0.70703 0.29297 1 1 0 0 0 0 1.4141l3 3a1 1 0 0 0 1.4141 0 1 1 0 0 0 0-1.4141l-3-3a1 1 0 0 0-0.70703-0.29297zm9 1a0.99994 0.99994 0 0 1 1 1 0.99994 0.99994 0 0 1-1 1 0.99994 0.99994 0 0 1-1-1 0.99994 0.99994 0 0 1 1-1z" style="fill-opacity:.75;fill:currentColor"/>
	<path class="ColorScheme-Background" d="m12.373 1.0293c-0.22678 0.00707-0.45311 0.031216-0.67578 0.072266l2e-3 -0.00195c-0.8908 0.1642-1.7327 0.59714-2.3965 1.2734-1.2243 1.2473-1.5497 3.0038-0.95703 4.6211l-5.7344 5.6074c-0.198 0.1925-0.20227 0.50903-0.00977 0.70703 0.1925 0.198 0.50903 0.20226 0.70703 0.0098l5.8965-5.7637c0.1544-0.1501 0.19536-0.38227 0.10156-0.57617-0.6409-1.331-0.32777-2.8481 0.70703-3.9023s2.6164-1.3464 3.959-0.73047c1.3426 0.6159 2.1514 2.0027 2.0273 3.4746-0.1241 1.472-1.1551 2.7056-2.582 3.0879-0.2662 0.072-0.42432 0.34493-0.35352 0.61133 0.071 0.2672 0.34628 0.54856 0.61328 0.47656 1.8308-0.4905 3.1591-2.2013 3.3184-4.0898s-0.88482-3.6784-2.6074-4.4688c-0.64598-0.29632-1.3353-0.42942-2.0156-0.4082zm-10.359 2.6191c-0.1326 0-0.25972 0.053084-0.35352 0.14648-0.1953 0.1952-0.1953 0.51173 0 0.70703l3.5 3.5c0.1952 0.1952 0.51183 0.1952 0.70703 0 0.1953-0.1953 0.1953-0.51183 0-0.70703l-3.5-3.5c-0.094-0.094-0.22092-0.14648-0.35352-0.14648zm10.986 0.35156a0.99994 0.99994 0 0 0-1 1 0.99994 0.99994 0 0 0 1 1 0.99994 0.99994 0 0 0 1-1 0.99994 0.99994 0 0 0-1-1zm-3.9863 6.6484c-0.12792 0-0.25587 0.04888-0.35352 0.14648l-4.7656 4.7676-2.1934-1.002c-0.2567-0.1028-0.54809 0.022-0.65039 0.2793-0.103 0.2562 0.020944 0.54739 0.27734 0.65039l2.5 1.123c0.1858 0.074 0.39776 0.02997 0.53906-0.11133l4.6465-4.6465 4.6465 4.6465c0.1952 0.1952 0.51183 0.1952 0.70703 0 0.1953-0.1953 0.1953-0.51183 0-0.70703l-5-5c-0.09765-0.0976-0.22559-0.14648-0.35352-0.14648z" style="fill-opacity:.5;fill:currentColor"/>
</svg>
