<?xml version="1.0" encoding="UTF-8"?>
<svg id="i" width="18" height="18" version="1.1" xmlns="http://www.w3.org/2000/svg" xmlns:cc="http://creativecommons.org/ns#" xmlns:dc="http://purl.org/dc/elements/1.1/" xmlns:rdf="http://www.w3.org/1999/02/22-rdf-syntax-ns#">
	<metadata id="a">
		<rdf:RDF>
			<cc:Work rdf:about="">
				<dc:format>image/svg+xml</dc:format>
				<dc:type rdf:resource="http://purl.org/dc/dcmitype/StillImage"/>
				<dc:title/>
			</cc:Work>
		</rdf:RDF>
	</metadata>
	<defs id="d">
		<style id="current-color-scheme" type="text/css">.ColorScheme-Text {color:#090d11;}.ColorScheme-Background{color:#ffffff;}</style>
	</defs>
	<path id="b" class="ColorScheme-Text" d="m9 2c-0.554 0-1 0.446-1 1v4h-5.3262c-0.15177 0.32015-0.28047 0.65496-0.38281 1h13.418c-0.10234-0.34504-0.23104-0.67985-0.38281-1h-5.3262v-4c0-0.554-0.446-1-1-1zm-2 1.3027c-1.5371 0.45512-2.85 1.4161-3.7441 2.6973h3.7441zm4 0v2.6973h3.7441c-0.89417-1.2812-2.207-2.2421-3.7441-2.6973zm-8.9219 5.6973c-0.046575 0.32707-0.078125 0.65955-0.078125 1v6h3v-4c0 2.216 1.784 4 4 4s4-1.784 4-4v4h3v-6c0-0.34045-0.03155-0.67293-0.07813-1z" style="fill-opacity:.75;fill:currentColor"/>
	<path id="c" class="ColorScheme-Background" d="m9 1c-0.83597 0-1.4295 0.6012-1.7246 1.3418a1.0001 1.0001 0 0 0 -0.55859 0.00195c-1.7559 0.5199-3.2585 1.6186-4.2812 3.084a1.0001 1.0001 0 0 0 -0.17578 0.66211 1.0001 1.0001 0 0 0 -0.49023 0.48242c-0.17364 0.36627-0.32032 0.74749-0.4375 1.1426a1.0001 1.0001 0 0 0 0.013672 0.60547 1.0001 1.0001 0 0 0 -0.25781 0.53906c-0.051024 0.35831-0.087891 0.7384-0.087891 1.1406v6a1.0001 1.0001 0 0 0 1 1h3a1.0001 1.0001 0 0 0 1 -1v-0.10742c0.84497 0.6529 1.8544 1.1074 3 1.1074s2.155-0.45452 3-1.1074v0.10742a1.0001 1.0001 0 0 0 1 1h3a1.0001 1.0001 0 0 0 1 -1v-6c0-0.40223-0.03687-0.78231-0.08789-1.1406a1.0001 1.0001 0 0 0 -0.25781 -0.54102 1.0001 1.0001 0 0 0 0.01367 -0.60352c-0.11718-0.39509-0.26386-0.77631-0.4375-1.1426a1.0001 1.0001 0 0 0 -0.49024 -0.48242 1.0001 1.0001 0 0 0 -0.17578 -0.66211c-1.0228-1.4654-2.5253-2.5641-4.2812-3.084a1.0001 1.0001 0 0 0 -0.55859 0c-0.29466-0.74148-0.888-1.3438-1.7246-1.3438zm0 1c0.554 0 1 0.446 1 1v4h5.3262c0.15177 0.32015 0.28047 0.65496 0.38281 1h-13.418c0.10234-0.34504 0.23104-0.67985 0.38281-1h5.3262v-4c0-0.554 0.446-1 1-1zm-2 1.3027v2.6973h-3.7441c0.89417-1.2812 2.207-2.2421 3.7441-2.6973zm4 0c1.5371 0.45512 2.85 1.4161 3.7441 2.6973h-3.7441zm-8.9219 5.6973h13.844c0.04657 0.32707 0.07813 0.65955 0.07813 1v6h-3v-4c0 2.216-1.784 4-4 4s-4-1.784-4-4v4h-3v-6c0-0.34045 0.03155-0.67293 0.078125-1z" style="fill-opacity:.5;fill:currentColor"/>
</svg>
