<?xml version="1.0" encoding="UTF-8"?>
<!-- Created with Inkscape (http://www.inkscape.org/) -->
<svg width="18" height="18" version="1.1" xmlns="http://www.w3.org/2000/svg" xmlns:cc="http://creativecommons.org/ns#" xmlns:dc="http://purl.org/dc/elements/1.1/" xmlns:rdf="http://www.w3.org/1999/02/22-rdf-syntax-ns#">
	<defs>
		<radialGradient id="b" cx="5.4547" cy="14.796" r="1.0913" gradientTransform="matrix(9.3942,0,3.9878e-8,8.511,-42.205,-111.35)" gradientUnits="userSpaceOnUse">
			<stop stop-color="#ffffff" stop-opacity=".8252" offset="0"/>
			<stop stop-color="#ffffff" stop-opacity=".6051" offset="1"/>
		</radialGradient>
		<radialGradient id="a" cx="337.46" cy="-93.634" r="7.254" gradientTransform="matrix(0,1.6697,-1.6158,0,-142.42,-550.11)" gradientUnits="userSpaceOnUse">
			<stop stop-color="#213851" stop-opacity=".9059" offset="0"/>
			<stop stop-color="#27303a" stop-opacity="0" offset="1"/>
		</radialGradient>
	</defs>
	<metadata>
		<rdf:RDF>
			<cc:Work rdf:about="">
				<dc:format>image/svg+xml</dc:format>
				<dc:type rdf:resource="http://purl.org/dc/dcmitype/StillImage"/>
				<dc:title/>
			</cc:Work>
		</rdf:RDF>
	</metadata>
	<path d="m9 2-7 4.041v7.2266l3 1.7324 2-1.1543v-2.8457l-3-1.7324v-2.3809l5-2.8867 5 2.8867v2.3809l-3 1.7324v2.8457l2 1.1543 3-1.7324v-7.2266z" fill="#090d11" fill-opacity=".76621" style="paint-order:normal"/>
	<path d="m9 2-7 4.041v7.2266l3 1.7324 2-1.1543v-2.8457l-3-1.7324v-2.3809l5-2.8867 5 2.8867v2.3809l-3 1.7324v2.8457l2 1.1543 3-1.7324v-7.2266z" fill="url(#a)" fill-opacity=".99858" style="paint-order:normal"/>
	<path d="m9 0.8457-0.5 0.28906-7.5 4.3281v8.5083l4 2.3086 3-1.7305v-3.8137l-3-1.7324v-2.056l4-2.3105 4 2.3105v2.056l-3 1.7324v3.8137l3 1.7305 4-2.3086v-8.5083zm0 1.1543 7 4.041v7.2266l-3 1.7324-2-1.1543v-2.8457l3-1.7324v-2.3809l-5-2.8867-5 2.8867v2.3809l3 1.7324v2.8457l-2 1.1543-3-1.7324v-7.2266z" color="#000000" color-rendering="auto" dominant-baseline="auto" fill="url(#b)" fill-opacity=".99816" image-rendering="auto" shape-rendering="auto" solid-color="#000000" style="font-feature-settings:normal;font-variant-alternates:normal;font-variant-caps:normal;font-variant-ligatures:normal;font-variant-numeric:normal;font-variant-position:normal;isolation:auto;mix-blend-mode:normal;paint-order:normal;shape-padding:0;text-decoration-color:#000000;text-decoration-line:none;text-decoration-style:solid;text-indent:0;text-orientation:mixed;text-transform:none;white-space:normal"/>
</svg>
