<?xml version="1.0" encoding="UTF-8"?>
<svg id="g" width="18" height="18" version="1.1" xmlns="http://www.w3.org/2000/svg" xmlns:cc="http://creativecommons.org/ns#" xmlns:dc="http://purl.org/dc/elements/1.1/" xmlns:rdf="http://www.w3.org/1999/02/22-rdf-syntax-ns#">
	<metadata id="b">
		<rdf:RDF>
			<cc:Work rdf:about="">
				<dc:format>image/svg+xml</dc:format>
				<dc:type rdf:resource="http://purl.org/dc/dcmitype/StillImage"/>
			</cc:Work>
		</rdf:RDF>
	</metadata>
	<defs id="c">
		<style id="current-color-scheme" type="text/css">.ColorScheme-Text {color:#090d11;}.ColorScheme-Background{color:#ffffff;}</style>
	</defs>
	<path class="ColorScheme-Text" d="m9 2c-3.866 0-7 3.134-7 7s3.134 7 7 7 7-3.134 7-7-3.134-7-7-7zm-4.1133 4.0137h9.5c0.23243 0 0.23243 1e-4 0 0.42969l-2.8008 5.1777c-0.21963 0.4059-0.22069 0.40625-0.45313 0.40625h-0.92969c-0.23243 0-0.23142-3.46e-4 -0.01172-0.40625l1.9707-3.6367h-1.8398l-1.9531 3.6133c-0.23243 0.42956-0.23241 0.42969-0.46484 0.42969h-3.9512l2.1875-4.043h-2.3223z" style="fill-opacity:.75;fill:currentColor"/>
	<path id="a" class="ColorScheme-Text" d="m7.207 6.0137-3.2539 6.0137h2.7891l3.2539-6.0137h-1.3945z" style="fill-opacity:.75;fill:currentColor;opacity:.5"/>
	<path class="ColorScheme-Background" d="m9 1c-4.4183-2.8e-7 -8 3.5817-8 8-2.8e-7 4.4183 3.5817 8 8 8s8-3.5817 8-8-3.5817-8-8-8zm0 1c3.866 0 7 3.134 7 7s-3.134 7-7 7-7-3.134-7-7 3.134-7 7-7zm-4.1133 4.0137-1.0684 1.9707h2.3223l1.0664-1.9707zm5.1094 0-3.2539 6.0137h1.1621c0.23244 0 0.23242-1.26e-4 0.46484-0.42969l1.9531-3.6133h1.8398l-1.9707 3.6367c-0.2197 0.4059-0.22071 0.40625 0.01172 0.40625h0.92969c0.23243 0 0.2335-3.46e-4 0.45313-0.40625l2.8008-5.1777c0.23243-0.42959 0.23243-0.42969 0-0.42969h-4.3906z" style="fill-opacity:.5;fill:currentColor"/>
	<path id="f" class="ColorScheme-Background" d="m7.207 6.0137-3.2539 6.0137h2.7891l3.2539-6.0137h-1.3945z" style="fill-opacity:.5;fill:currentColor;opacity:.5"/>
</svg>
