<?xml version="1.0" encoding="UTF-8"?>
<!-- Created with Inkscape (http://www.inkscape.org/) -->
<svg width="18" height="18" version="1.1" xmlns="http://www.w3.org/2000/svg" xmlns:cc="http://creativecommons.org/ns#" xmlns:dc="http://purl.org/dc/elements/1.1/" xmlns:rdf="http://www.w3.org/1999/02/22-rdf-syntax-ns#">
	<metadata>
		<rdf:RDF>
			<cc:Work rdf:about="">
				<dc:format>image/svg+xml</dc:format>
				<dc:type rdf:resource="http://purl.org/dc/dcmitype/StillImage"/>
			</cc:Work>
		</rdf:RDF>
	</metadata>
	<defs id="e">
		<style id="current-color-scheme" type="text/css">.ColorScheme-Text{color:#090d11;}.ColorScheme-Background{color:#ffffff;}</style>
	</defs>
	<path class="ColorScheme-Text" d="m9 1.9961c-3.8663-2.3e-6 -7 3.1339-7 7 2.166e-4 1.1803 0.2998 2.3411 0.86914 3.375l0.79688-0.63281c-0.4371-0.84855-0.66547-1.7877-0.66602-2.7422-2.18e-5 -3.3132 2.6866-5.998 6-5.998 1.7737 0.00251 3.4558 0.78803 4.5938 2.1484l0.88867-0.49414c-1.326-1.6764-3.3449-2.6539-5.4824-2.6563zm-2.998 2.6016v1.9414l1.2871 0.85742-1.2871 0.85938v1.9395l4.1973-2.7988zm9.1328 1.0293-0.79688 0.63281c0.43457 0.84658 0.66156 1.7847 0.66211 2.7363 1e-6 3.3132-2.6866 6-6 6-1.7703-0.0023-3.4497-0.78664-4.5879-2.1426l-0.89062 0.49023c1.3259 1.673 3.3437 2.6496 5.4785 2.6523 3.8662 0 7-3.134 7-7-3.1e-4 -1.1777-0.29819-2.3369-0.86523-3.3691zm-3.1367 2.1699-4.1973 2.7988 4.1973 2.7988v-1.9414l-1.2871-0.85742 1.2871-0.85938z" color="#000000" fill="currentColor" fill-opacity=".75" style="fill-opacity:.75;fill:currentColor"/>
</svg>
