<?xml version="1.0" encoding="UTF-8"?>
<!-- Created with Inkscape (http://www.inkscape.org/) -->
<svg width="18" height="18" version="1.1" xmlns="http://www.w3.org/2000/svg" xmlns:cc="http://creativecommons.org/ns#" xmlns:dc="http://purl.org/dc/elements/1.1/" xmlns:rdf="http://www.w3.org/1999/02/22-rdf-syntax-ns#">
	<defs>
		<style id="current-color-scheme" type="text/css">.ColorScheme-Text {
			color:#090d11;
			}
			.ColorScheme-Background{
			color:#ffffff;
			}</style>
	</defs>
	<metadata>
		<rdf:RDF>
			<cc:Work rdf:about="">
				<dc:format>image/svg+xml</dc:format>
				<dc:type rdf:resource="http://purl.org/dc/dcmitype/StillImage"/>
			</cc:Work>
		</rdf:RDF>
	</metadata>
	<path class="ColorScheme-Text" d="m8.3965 4.8906c-0.7271 0-1.3778 0.33977-1.8047 0.86719h-0.00195c-0.14062-0.044324-0.28895-0.070312-0.44336-0.070312-0.8191 0-1.4961 0.6731-1.4961 1.4922 0 0.14713 0.021912 0.28907 0.0625 0.42383-0.22112 0.20252-0.40452 0.44495-0.54102 0.71484-1.2067 0.07823-2.1719 1.0897-2.1719 2.3145 0 1.2752 1.0463 2.3184 2.3223 2.3184 0.3788 0 0.73628-0.09319 1.0527-0.25586 0.25037 0.17572 0.55445 0.2793 0.88086 0.2793 0.44022 0 0.84058-0.18848 1.123-0.48828 0.46795 0.29916 1.0231 0.47266 1.6172 0.47266 0.62374 0 1.2055-0.19046 1.6875-0.51758 0.42609 0.34893 0.97014 0.55859 1.5605 0.55859 0.4942 0 0.9546-0.1478 1.3418-0.40039 0.24918 0.17267 0.5501 0.27539 0.87305 0.27539 0.84525 0 1.541-0.69582 1.541-1.541 0-0.79696-0.61918-1.4582-1.3984-1.5312-0.27416-0.87566-1.0263-1.5457-1.9473-1.7012-0.229-0.98155-1.0874-1.7281-2.1211-1.791v-0.00195c-0.35355-0.83137-1.1798-1.418-2.1367-1.418zm0 1c0.67565 0 1.223 0.49244 1.3086 1.1406-0.22769-0.055401-0.46482-0.085937-0.70898-0.085937-0.034724 0-0.069066 7.774e-4 -0.10352 0.00195-0.00911 3.138e-4 -0.018255-3.957e-4 -0.027344 0-0.0078 3.395e-4 -0.0156 0.00134-0.023437 0.00195-0.64376 0.032856-1.2347 0.27115-1.7109 0.64844-0.03718-0.12264-0.056641-0.25322-0.056641-0.38867 0-0.73394 0.58597-1.3184 1.3223-1.3184zm-2.2617 0.79688c-0.021729 0.093273-0.038859 0.19-0.048828 0.28711-0.26728 0.031718-0.52126 0.10622-0.75586 0.2168 0.10772-0.050869 0.21855-0.095829 0.33398-0.13086 0.050992-0.21423 0.23802-0.3681 0.4707-0.37305zm2.8613 1.2578c1.1169 0 2.0117 0.89374 2.0117 2.0078 0 1.1139-0.89471 2.0059-2.0117 2.0059-1.117 0-2.0117-0.89194-2.0117-2.0059 0-1.1141 0.8948-2.0078 2.0117-2.0078zm-2.791 0.021484c0.054535 0.15574 0.12419 0.30454 0.20898 0.44336v0.00195c-0.26649 0.4426-0.42363 0.95753-0.42969 1.5078-0.31382 0.056961-0.59625 0.21039-0.81445 0.42773 0.012423-0.01242 0.024274-0.02512 0.037109-0.03711-0.18674-0.24604-0.29883-0.55311-0.29883-0.88867 0-0.75701 0.56207-1.3708 1.2969-1.4551zm6.0391 1.0996c0.81788 0 1.4688 0.6514 1.4688 1.4668s-0.65087 1.4668-1.4688 1.4668c-0.31024 0-0.59626-0.095-0.83203-0.25586 0.37412-0.50079 0.5957-1.1211 0.5957-1.791 0-0.2927-0.04413-0.57579-0.12305-0.84375 0.11485-0.028363 0.23511-0.042968 0.35938-0.042969zm-8.3359 0.31055c-2.73e-4 0.015007 0 0.029852 0 0.044922 0 0.7242 0.31663 1.3777 0.81836 1.8301-0.0073 0.06024-0.011719 0.12152-0.011719 0.18359 0 0.15067 0.023323 0.29561 0.064453 0.43359-0.14203 0.05189-0.2956 0.08203-0.45703 0.08203-0.73632 2e-6 -1.3223-0.5844-1.3223-1.3184 0-0.58921 0.37832-1.0839 0.9082-1.2559zm10.783 1.4688c0.18444 0.08467 0.30859 0.26799 0.30859 0.48828 0 0.30393-0.23538 0.54102-0.54102 0.54102-0.04742 0-0.09322-0.0068-0.13672-0.01758 0.19249-0.30002 0.32202-0.64314 0.36914-1.0117zm-8.5488 0.06055c0.11288 0.33465 0.28182 0.6432 0.49805 0.91406-0.097399 0.09565-0.23297 0.1543-0.38477 0.1543-0.3056 0-0.54102-0.23516-0.54102-0.53906 0-0.26525 0.17892-0.47905 0.42773-0.5293z" style="fill-opacity:.75;fill:currentColor"/>
	<path class="ColorScheme-Background" d="m8.3965 3.8906c-0.80069 0-1.4893 0.34955-2.0645 0.82617-0.064428-0.0053356-0.11906-0.029297-0.18555-0.029297-1.3669 0-2.4961 1.1221-2.4961 2.4922 0 0.073575 0.024799 0.14061 0.03125 0.21289-0.057516 0.0761-0.13239 0.13611-0.18359 0.2168-1.3884 0.3986-2.498 1.5156-2.498 3.0234 0 1.8222 1.5013 3.3184 3.3223 3.3184 0.37847 0 0.71325-0.13764 1.0527-0.25586 0.2884 0.11387 0.55517 0.2793 0.88086 0.2793 0.44098 0 0.76131-0.28781 1.125-0.48828 0.50853 0.23266 1.0244 0.47266 1.6152 0.47266 0.62053 0 1.1585-0.26216 1.6875-0.51758 0.48891 0.26255 0.97205 0.55859 1.5605 0.55859 0.49263 0 0.91549-0.21059 1.3418-0.39844 0.28533 0.11196 0.54952 0.27344 0.87305 0.27344 1.3941 0 2.541-1.147 2.541-2.541 0-1.0723-0.75286-1.8568-1.7012-2.2266-0.40034-0.84347-1.1001-1.4564-1.9922-1.7598-0.41455-0.92266-1.1774-1.571-2.1738-1.8184-0.58805-0.94385-1.5522-1.6387-2.7363-1.6387zm0 1c0.95693 0 1.7832 0.5866 2.1367 1.418v0.00195c0.19382 0.0118 0.38205 0.04856 0.56055 0.10547 0.0595 0.01897 0.11647 0.038956 0.17383 0.0625 0.6309 0.25898 1.1256 0.78799 1.3359 1.4414 0.01912 0.059401 0.03647 0.12029 0.05078 0.18164 0.92099 0.15551 1.6731 0.82551 1.9473 1.7012 0.14611 0.013688 0.28614 0.047541 0.41797 0.099609 0.04394 0.017356 0.087 0.037415 0.12891 0.058594 0.46098 0.23296 0.79177 0.68957 0.84375 1.2246 0.0047 0.04864 0.0078 0.09863 0.0078 0.14844 0 0.8452-0.69577 1.541-1.541 1.541-0.08074 0-0.16076-0.0072-0.23828-0.01953s-0.15319-0.0291-0.22656-0.05274c-0.07337-0.02363-0.14459-0.05398-0.21289-0.08789s-0.13302-0.07207-0.19531-0.11524c-0.38718 0.2526-0.84759 0.4004-1.3418 0.4004-0.59041 0-1.1345-0.20966-1.5605-0.55859-0.48203 0.32712-1.0638 0.51758-1.6875 0.51758-0.59408 0-1.1492-0.1735-1.6172-0.47266-0.28246 0.2998-0.68283 0.48828-1.123 0.48828-0.040801 0-0.081052-7.3e-4 -0.12109-0.0039-0.040042-0.0032-0.07998-0.0094-0.11914-0.01563-0.078321-0.01246-0.15446-0.03076-0.22852-0.05469-0.074059-0.02393-0.14603-0.05347-0.21484-0.08789s-0.13467-0.07326-0.19727-0.11719c-0.15823 0.08134-0.32763 0.14582-0.50391 0.18945-0.088139 0.02181-0.1778 0.03755-0.26953 0.04883-0.091727 0.01128-0.1846 0.01758-0.2793 0.01758-1.2759-4e-6 -2.3223-1.0431-2.3223-2.3184 0-0.07655 0.00436-0.15186 0.011719-0.22656 0.11045-1.1206 1.0288-2.0145 2.1602-2.0879 0.030522-0.060352 0.064464-0.11831 0.099609-0.17578 0.00745-0.012203 0.013831-0.025044 0.021484-0.037109 0.035318-0.055618 0.07184-0.10957 0.11133-0.16211 0.0011-0.00146 0.00281-0.00245 0.00391-0.00391 0.00337-0.00447 0.00637-0.00923 0.00977-0.013672 0.03696-0.048273 0.076853-0.095232 0.11719-0.14062 0.013469-0.015174 0.02718-0.030085 0.041016-0.044922 0.044257-0.047438 0.08887-0.092895 0.13672-0.13672-0.020294-0.067379-0.036323-0.13631-0.046875-0.20703-0.010552-0.070721-0.015625-0.14323-0.015625-0.2168 0-0.051193 0.00265-0.10242 0.00781-0.15234 0.077372-0.74885 0.72037-1.3398 1.4883-1.3398 0.077207 0 0.1526 0.00554 0.22656 0.017578 0.073962 0.012038 0.14649 0.030572 0.2168 0.052734h0.00195c0.053359-0.065927 0.10986-0.12969 0.16992-0.18945 0.42045-0.41836 0.99855-0.67773 1.6348-0.67773zm0.37891 2.0645c-0.029463 0.00216-0.058666 0.00479-0.087891 0.00781 0.029266-0.00303 0.058386-0.00564 0.087891-0.00781zm-2.6895 0.017578c-0.09643 0.011424-0.19061 0.030582-0.2832 0.052734 0.092474-0.022181 0.18695-0.039358 0.2832-0.050781zm2.4395 0.011719c-0.030152 0.0048-0.059992 0.00992-0.089844 0.015625 0.029619-0.00565 0.059928-0.010859 0.089844-0.015625zm-2.75 0.046875c-0.037345 0.0094-0.074624 0.018158-0.11133 0.029297-0.11543 0.03503-0.22626 0.079991-0.33398 0.13086 0.058651-0.027645 0.11871-0.053142 0.17969-0.076172 0.086476-0.03266 0.17498-0.06114 0.26562-0.083985zm2.5137 0.00195c-0.03335 0.00814-0.066698 0.016146-0.099609 0.025391 0.032908-0.00924 0.066263-0.017264 0.099609-0.025391zm-0.22461 0.064453c-0.035268 0.011602-0.070779 0.022294-0.10547 0.035156 0.034821-0.012919 0.070064-0.023508 0.10547-0.035156zm-2.1406 0.92969c-0.036415 0.011613-0.07234 0.024786-0.10742 0.039062 0.035354-0.014382 0.070711-0.02739 0.10742-0.039062zm-0.12305 0.046875c-0.034649 0.014589-0.068366 0.029788-0.10156 0.046875 0.033367-0.017191 0.066724-0.032212 0.10156-0.046875zm-0.25195 0.13672c-0.020275 0.013731-0.041028 0.026314-0.060547 0.041016 0.01972-0.014875 0.040053-0.027133 0.060547-0.041016zm-0.089844 0.064453c-0.028893 0.022936-0.056954 0.047248-0.083984 0.072266 0.026847-0.024882 0.055296-0.04944 0.083984-0.072266zm-0.19336 0.18555c-0.020946 0.024107-0.041208 0.04875-0.060547 0.074219 0.019302-0.025441 0.039643-0.050136 0.060547-0.074219zm-0.070312 0.087891c-0.01921 0.025914-0.037203 0.052869-0.054687 0.080078 0.017514-0.027288 0.035441-0.054092 0.054687-0.080078zm-0.078125 0.11523c-0.01278 0.021222-0.025398 0.042533-0.037109 0.064453 0.011638-0.021795 0.024416-0.043348 0.037109-0.064453zm6.7676 0.44531c0.02641 0.089686 0.04807 0.18234 0.06641 0.27539-0.01832-0.09338-0.03985-0.18523-0.06641-0.27539zm0.07813 0.33984c0.01653 0.094712 0.02984 0.18986 0.03711 0.28711-0.0072-0.096756-0.02077-0.19305-0.03711-0.28711zm0.0371 0.71875c-0.0022 0.03087-0.0066 0.06119-0.0098 0.0918 0.0031-0.03053 0.0076-0.06101 0.0098-0.0918zm-6.6543 0.0293c-0.048004 0.03544-0.095082 0.07257-0.13867 0.11328l-0.00195 2e-3c-0.012066 0.01143-0.023387 0.02339-0.035156 0.03516 0.054552-0.05434 0.11371-0.10455 0.17578-0.15039zm-0.63086 1.2383c0 0.075 0.00684 0.14866 0.017578 0.2207-0.010972-0.07232-0.017578-0.14537-0.017578-0.2207zm0.017578 0.22266c0.010834 0.07203 0.026397 0.14225 0.046875 0.21094-0.020385-0.06839-0.035923-0.13927-0.046875-0.21094z" style="fill-opacity:.5;fill:currentColor"/>
</svg>
