<?xml version="1.0" encoding="UTF-8"?>
<!-- Created with Inkscape (http://www.inkscape.org/) -->
<svg width="18" height="18" version="1.1" xmlns="http://www.w3.org/2000/svg" xmlns:cc="http://creativecommons.org/ns#" xmlns:dc="http://purl.org/dc/elements/1.1/" xmlns:rdf="http://www.w3.org/1999/02/22-rdf-syntax-ns#">
	<defs>
		<radialGradient id="a" cx="8.3039" cy="6.97" r="4.5115" gradientTransform="matrix(0,-2.549,2.9412,0,-15.5,30.167)" gradientUnits="userSpaceOnUse">
			<stop stop-color="#213851" stop-opacity=".9059" offset="0"/>
			<stop stop-color="#27303a" stop-opacity="0" offset="1"/>
		</radialGradient>
		<radialGradient id="c" cx="8.7396" cy="6.443" r="5.5094" gradientTransform="matrix(0,-2.0874,2.569,0,-11.552,26.243)" gradientUnits="userSpaceOnUse">
			<stop stop-color="#ffffff" stop-opacity=".74858" offset="0"/>
			<stop stop-color="#ffffff" stop-opacity=".60511" offset="1"/>
		</radialGradient>
	</defs>
	<metadata>
		<rdf:RDF>
			<cc:Work rdf:about="">
				<dc:format>image/svg+xml</dc:format>
				<dc:type rdf:resource="http://purl.org/dc/dcmitype/StillImage"/>
				<dc:title/>
			</cc:Work>
		</rdf:RDF>
	</metadata>
	<path d="m0.99995 11c0 0.5518 0.26434 1.0786 0.61914 1.4043s0.77165 0.49337 1.1855 0.57617l5 1c0.718 0.1436 1.3711-0.2717 1.7031-0.7207s0.49219-0.97602 0.49219-1.5449v-0.21484h0.23633l1-0.5h4.6895l1.0742-1v-1.0391l-1 1.0391h-5l-1 0.5h-1v1.2148c0 0.7123-0.4545 1.3943-1 1.2852l-5-1c-0.5433-0.1087-1-0.446-1-1v-5c0-0.5541 0.4567-0.8913 1-1l5-1c0.5455-0.1091 1 0.57276 1 1.2852v1.2148h1l1 0.5h5l1 1.0391v-1.0391l-1.0742-1h-4.6895l-1-0.5h-0.23633v-0.21484c0-0.5689-0.16019-1.0959-0.49219-1.5449s-0.98512-0.8643-1.7031-0.7207l-5 1c-0.4139 0.083-0.83065 0.25047-1.1855 0.57617-0.3548 0.3257-0.61914 0.8525-0.61914 1.4043v5zm16-2.9609c-0.0589-0.024-0.12341-0.039062-0.19141-0.039062h-5.3086c-0.277 0-0.5 0.223-0.5 0.5s0.223 0.5 0.5 0.5h5.3086c0.0679 0 0.13241-0.015062 0.19141-0.039062v-0.92188zm-14 0.46094c0 0.277 0.223 0.5 0.5 0.5s0.5-0.223 0.5-0.5-0.223-0.5-0.5-0.5-0.5 0.223-0.5 0.5z" color="#000000" color-rendering="auto" dominant-baseline="auto" fill="url(#c)" image-rendering="auto" shape-rendering="auto" solid-color="#000000" style="font-feature-settings:normal;font-variant-alternates:normal;font-variant-caps:normal;font-variant-ligatures:normal;font-variant-numeric:normal;font-variant-position:normal;isolation:auto;mix-blend-mode:normal;paint-order:normal;shape-padding:0;text-decoration-color:#000000;text-decoration-line:none;text-decoration-style:solid;text-indent:0;text-orientation:mixed;text-transform:none;white-space:normal"/>
	<path d="m2 11c0 0.554 0.4567 0.8913 1 1l5 1c0.5455 0.1091 1-0.5729 1-1.2852v-1.2148h1l1-0.5h5l0.9629-1h0.037v-0.9998h-0.037l-0.9629-1h-5l-1-0.5h-1v-1.2148c0-0.7124-0.4545-1.3943-1-1.2852l-5 1c-0.5433 0.1087-1 0.4459-1 1zm1 0v-5l4.9297-0.9668 0.07 0.25v2.2148h1.7637l0.5449 0.2715 0.6914 0.2305h5v1h-5l-0.6934 0.2285-0.5429 0.2715h-1.7637v2.2148l-0.07 0.25zm1-2.5c0 0.277 0.223 0.5 0.5 0.5s0.5-0.223 0.5-0.5-0.223-0.5-0.5-0.5-0.5 0.223-0.5 0.5z" color="#000000" color-rendering="auto" dominant-baseline="auto" fill="#090d11" fill-opacity=".76621" image-rendering="auto" shape-rendering="auto" solid-color="#000000" style="font-feature-settings:normal;font-variant-alternates:normal;font-variant-caps:normal;font-variant-ligatures:normal;font-variant-numeric:normal;font-variant-position:normal;isolation:auto;mix-blend-mode:normal;paint-order:normal;shape-padding:0;text-decoration-color:#000000;text-decoration-line:none;text-decoration-style:solid;text-indent:0;text-orientation:mixed;text-transform:none;white-space:normal"/>
	<path d="m2 11c0 0.554 0.4567 0.8913 1 1l5 1c0.5455 0.1091 1-0.57286 1-1.2852v-1.2148h1l1-0.5h5l0.96289-1h0.03711v-1h-0.03711l-0.96289-1h-5l-1-0.5h-1v-1.2148c0-0.7124-0.4545-1.3943-1-1.2852l-5 1c-0.5433 0.1087-1 0.4459-1 1zm1 0v-5l4.9297-0.9668 0.070312 0.25v2.2148h1.7637l0.54492 0.27148 0.69141 0.23047h5v1h-5l-0.69336 0.22852-0.54297 0.27148h-1.7637v2.2148l-0.070312 0.25-4.9297-0.96484zm1-2.5c0 0.277 0.223 0.5 0.5 0.5s0.5-0.223 0.5-0.5-0.223-0.5-0.5-0.5-0.5 0.223-0.5 0.5z" color="#000000" color-rendering="auto" dominant-baseline="auto" fill="url(#a)" fill-opacity=".7533" image-rendering="auto" shape-rendering="auto" solid-color="#000000" style="font-feature-settings:normal;font-variant-alternates:normal;font-variant-caps:normal;font-variant-ligatures:normal;font-variant-numeric:normal;font-variant-position:normal;isolation:auto;mix-blend-mode:normal;paint-order:normal;shape-padding:0;text-decoration-color:#000000;text-decoration-line:none;text-decoration-style:solid;text-indent:0;text-orientation:mixed;text-transform:none;white-space:normal"/>
</svg>
