<?xml version="1.0" encoding="UTF-8" standalone="no"?>
<svg
   xmlns:dc="http://purl.org/dc/elements/1.1/"
   xmlns:cc="http://creativecommons.org/ns#"
   xmlns:rdf="http://www.w3.org/1999/02/22-rdf-syntax-ns#"
   xmlns:svg="http://www.w3.org/2000/svg"
   xmlns="http://www.w3.org/2000/svg"
   id="a"
   width="18"
   height="18"
   version="1.1">
  <metadata
     id="c">
    <rdf:RDF>
      <cc:Work
         rdf:about="">
        <dc:format>image/svg+xml</dc:format>
        <dc:type
           rdf:resource="http://purl.org/dc/dcmitype/StillImage" />
        <dc:title></dc:title>
      </cc:Work>
    </rdf:RDF>
  </metadata>
  <defs
     id="e">
    <style
       id="current-color-scheme"
       type="text/css">.ColorScheme-Text {color:#090d11;}.ColorScheme-Background{color:#ffffff;}</style>
  </defs>
  <path
     class="ColorScheme-Background"
     style="fill:currentColor;fill-opacity:0.5"
     d="M 6,1 C 4.3544789,1 3,2.3544789 3,4 V 8.4160156 C 1.8932117,8.8592911 1,9.7429567 1,11 v 1 c 0,1.645521 1.3544787,3 3,3 0.00264,0 0.00128,9e-6 0.00391,0 0.3512046,0.381857 0.7895933,0.634363 1.3242188,0.789062 C 5.6508465,16.461991 6.2064586,17 7,17 h 6 c 0.826314,0 1.402895,-0.576939 1.707031,-1.294922 C 15.972109,15.352963 17,14.370747 17,13 V 10 8.5 C 17,7.1282898 15.87171,6 14.5,6 14.42055,6 14.347828,6.021985 14.28125,6.054687 14.21324,6.086515 14.148183,6.124095 14.068359,6.152343 13.567848,5.5194987 12.916075,5 12,5 11.416688,5 10.928217,5.2174723 10.5,5.5039062 10.071783,5.2174722 9.583312,5 9,5 V 4 C 9,2.3544789 7.6455211,1 6,1 Z M 9.5,1 C 9.223,1 9,1.223 9,1.5 9,1.777 9.223,2 9.5,2 h 3 C 12.777,2 13,1.777 13,1.5 13,1.223 12.777,1 12.5,1 Z M 6,2 C 7.0993514,2 8,2.9006486 8,4 V 5.5 6.4160156 7.5 C 8,7.777 8.223,8 8.5,8 8.777,8 9,7.777 9,7.5 V 6 C 9.631795,6 10.132696,6.337136 10.5,6.7988281 10.644271,6.617483 10.81467,6.4640148 11,6.3339844 V 7.5 C 11,7.777 11.223,8 11.5,8 11.777,8 12,7.777 12,7.5 V 6 c 0.877505,0 1.496344,0.6390112 1.763672,1.4296875 C 13.847002,7.3697636 13.922704,7.3008013 14,7.234375 V 7.5 C 14,7.777 14.223,8 14.5,8 14.777,8 15,7.777 15,7.5 V 7.09375 C 15.578994,7.3022672 16,7.8532803 16,8.5 v 1.5 3 c 0,1.099351 -0.900649,2 -2,2 0,0.545351 -0.454649,1 -1,1 H 7 C 6.4546486,16 6,15.545352 6,15 5.2582901,15 4.6927319,14.53484 4.3496094,13.931641 4.231979,13.953791 4.1248291,14 4,14 2.9006486,14 2,13.099351 2,12 V 11 C 2,10.26638 2.4064484,9.6293018 3,9.28125 V 10.5 C 3,10.777 3.223,11 3.5,11 3.777,11 4,10.777 4,10.5 V 9 8.7714844 4 C 4,2.9006486 4.9006486,2 6,2 Z"
     id="rect832" />
  <path
     class="ColorScheme-Text"
     style="fill:currentColor;fill-opacity:0.75"
     d="M 6,2 C 4.9006486,2 4,2.9006486 4,4 V 8.7714844 9 10 c 0.1086084,0 0.2169601,0.02107 0.3339844,0.0625 C 4.6588454,10.176801 4.9993104,9.9361787 5,9.5917969 V 4 C 5,3.4373514 5.4373514,3 6,3 6.5626486,3 7,3.4373514 7,4 V 8 C 7.00461,8.6581904 7.9876725,8.6639499 8,8.00586 8.0000114,8.00391 8.0000114,8.00195 8,8 V 7.5 6.4160156 5.5 4 C 8,2.9006486 7.0993514,2 6,2 Z M 9.5,2 C 9.223,2 9,2.223 9,2.5 9,2.777 9.223,3 9.5,3 h 3 C 12.777,3 13,2.777 13,2.5 13,2.223 12.777,2 12.5,2 Z M 9,6 v 1 c 0.5626486,0 1,0.4373514 1,1 4.39e-4,0.016982 0.0017,0.033931 0.0039,0.050781 0.0018,0.016395 0.0044,0.032691 0.0078,0.048828 0.0038,0.015838 0.0084,0.031482 0.01367,0.046875 0.0051,0.015909 0.01094,0.031553 0.01758,0.046875 0.01328,0.030863 0.02964,0.060309 0.04883,0.087891 0.0098,0.013534 0.02019,0.026571 0.03125,0.039063 0.01044,0.012913 0.02153,0.025299 0.0332,0.037109 0.01249,0.011062 0.02553,0.021492 0.03906,0.03125 0.01317,0.010449 0.02686,0.020227 0.04102,0.029297 0.01393,0.00851 0.02827,0.016332 0.04297,0.023437 0.02999,0.014826 0.0614,0.026603 0.09375,0.035156 0.0161,0.00406 0.0324,0.00732 0.04883,0.00977 0.0827,0.012907 0.167317,0.00485 0.246094,-0.023437 0.01591,-0.00507 0.03155,-0.01094 0.04687,-0.017578 0.0147,-0.00711 0.02904,-0.014928 0.04297,-0.023437 0.043,-0.025934 0.08185,-0.058197 0.115234,-0.095703 0.0785,-0.087856 0.123458,-0.2006029 0.126951,-0.3183645 2e-5,-0.0026 2e-5,-0.00521 0,-0.00781 V 7.5 6.3339844 C 10.814668,6.4640148 10.644271,6.617483 10.5,6.7988281 10.132696,6.337136 9.631795,6 9,6 Z m 3,0 v 1 c 0.562649,0 1,0.4373514 1,1 2.8e-5,0.2761309 0.223869,0.4999724 0.5,0.5 h 0.152344 C 13.782358,8.4994772 13.907057,8.4483367 14,8.3574219 V 7.5 7.234375 C 13.9227,7.300801 13.847002,7.3697636 13.763672,7.4296875 13.496344,6.6390112 12.877505,6 12,6 Z m 3,1.09375 V 7.5 8.5 9.9160156 10 13 c 0,0.562649 -0.437351,1 -1,1 h -1 c -0.666666,-0.02083 -0.697916,0.979167 -0.03125,1 H 7 C 7.6573047,14.9907 7.6573047,14.009296 7,14 H 6 C 5.5312313,14 5.1564628,13.688148 5.0410156,13.259766 4.9629913,12.971123 4.6507759,12.815015 4.3730469,12.925781 4.253984,12.973504 4.1311008,13 4,13 3.4373514,13 3,12.562649 3,12 V 11 10.5 9.28125 C 2.4064484,9.6293018 2,10.26638 2,11 v 1 c 0,1.099351 0.9006486,2 2,2 0.1248291,0 0.231979,-0.04621 0.3496094,-0.06836 C 4.6927319,14.534841 5.2582901,15 6,15 c 0,0.545352 0.4546486,1 1,1 h 6 c 0.545351,0 1,-0.454649 1,-1 1.099351,0 2,-0.900649 2,-2 V 10 8.5 C 16,7.8532803 15.578994,7.3022672 15,7.09375 Z"
     id="d" />
</svg>
