<?xml version="1.0" encoding="UTF-8"?>
<!-- Created with Inkscape (http://www.inkscape.org/) -->
<svg width="18" height="18" version="1.1" xmlns="http://www.w3.org/2000/svg" xmlns:cc="http://creativecommons.org/ns#" xmlns:dc="http://purl.org/dc/elements/1.1/" xmlns:rdf="http://www.w3.org/1999/02/22-rdf-syntax-ns#">
	<metadata>
		<rdf:RDF>
			<cc:Work rdf:about="">
				<dc:format>image/svg+xml</dc:format>
				<dc:type rdf:resource="http://purl.org/dc/dcmitype/StillImage"/>
			</cc:Work>
		</rdf:RDF>
	</metadata>
	<defs>
		<style id="current-color-scheme" type="text/css">.ColorScheme-Background{color:#ffffff;}
			.ColorScheme-Text{color:#090d11;}</style>
	</defs>
	<path class="ColorScheme-Background" d="m8 7v6h0.70703l5.293-5.293v-0.70703z" style="fill-opacity:.5;fill:currentColor"/>
	<path class="ColorScheme-Text" d="m3 3c-0.554 0-1 0.446-1 1v10c0 0.554 0.446 1 1 1h12c0.554 0 1-0.446 1-1v-10c0-0.554-0.446-1-1-1zm1 2h10v8h-10z" style="fill-opacity:.75;fill:currentColor"/>
	<path class="ColorScheme-Text" d="m8 7v6h0.70703l5.293-5.293v-0.70703z" style="fill-opacity:.5;fill:currentColor"/>
	<path class="ColorScheme-Background" d="m2 2c-0.554 0-1 0.446-1 1v13c0 0.554 0.446 1 1 1h14c0.554 0 1-0.446 1-1v-13c0-0.554-0.446-1-1-1zm0 1h14v12h-14zm11.922 5.0059a0.5 0.5 0 0 0-0.27539 0.14062l-4.5 4.5a0.5 0.5 0 0 0-0.14062 0.35352h1.2012l3.793-3.793v-1.2012a0.5 0.5 0 0 0-0.07813 0z" style="fill-opacity:.5;fill:currentColor"/>
</svg>
