<?xml version="1.0" encoding="UTF-8"?>
<!-- Created with Inkscape (http://www.inkscape.org/) -->
<svg width="18" height="18" version="1.1" xmlns="http://www.w3.org/2000/svg" xmlns:cc="http://creativecommons.org/ns#" xmlns:dc="http://purl.org/dc/elements/1.1/" xmlns:rdf="http://www.w3.org/1999/02/22-rdf-syntax-ns#">
	<defs>
		<radialGradient id="b" cx="349.96" cy="-98.426" r="7.254" gradientTransform="matrix(-2.0354,0,0,-1.9697,715.3,-188.87)" gradientUnits="userSpaceOnUse">
			<stop stop-color="#213851" stop-opacity=".9059" offset="0"/>
			<stop stop-color="#27303a" stop-opacity="0" offset="1"/>
		</radialGradient>
		<radialGradient id="a" cx="14.277" cy="3.8648" r="8" gradientTransform="matrix(-1.8841,0,0,-1.8841,35.899,13.282)" gradientUnits="userSpaceOnUse">
			<stop stop-color="#ffffff" stop-opacity=".74858" offset="0"/>
			<stop stop-color="#ffffff" stop-opacity=".60511" offset="1"/>
		</radialGradient>
	</defs>
	<metadata>
		<rdf:RDF>
			<cc:Work rdf:about="">
				<dc:format>image/svg+xml</dc:format>
				<dc:type rdf:resource="http://purl.org/dc/dcmitype/StillImage"/>
				<dc:title/>
			</cc:Work>
		</rdf:RDF>
	</metadata>
	<path d="m6 5v1h1v-1zm1 1v1h-2v2h-2v-2h-1v3h2v1h2v1h1v-1h4v1h1v-1h2v-1h2v-3h-1v2h-2v-2h-2v-1h-1v1h-2v-1zm4 0h1v-1h-1zm1 6v1h1v-1zm-6 0h-1v1h1zm0-4h1v2h-1v-1zm5 0h1v2h-1z" fill="#090d11" fill-opacity=".76621" style="paint-order:normal"/>
	<path d="m6 5v1h1v-1zm1 1v1h-2v2h-2v-2h-1v3h2v1h2v1h1v-1h4v1h1v-1h2v-1h2v-3h-1v2h-2v-2h-2v-1h-1v1h-2v-1zm4 0h1v-1h-1zm1 6v1h1v-1zm-6 0h-1v1h1zm0-4h1v2h-1v-1zm5 0h1v2h-1z" fill="url(#b)" fill-opacity=".7533" style="paint-order:normal"/>
	<path d="m5 4v2h-4v5h2v1h1v2h3v-1h1v-1h2v1h1v1h3v-2h1v-1h2v-5h-4v-2h-3v1h-2v-1zm1 1h1v1h1v1h2v-1h1v-1h1v1h-1v1h2v2h2v-2h1v3h-2v1h-2v1h1v1h-1v-1h-1v-1h-4v1h-1v1h-1v-1h1v-1h-2v-1h-2v-3h1v2h2v-2h2v-1h-1zm0 3v2h1v-2zm5 0v2h1v-2z" color="#000000" color-rendering="auto" dominant-baseline="auto" fill="url(#a)" fill-opacity=".99858" image-rendering="auto" shape-rendering="auto" solid-color="#000000" style="font-feature-settings:normal;font-variant-alternates:normal;font-variant-caps:normal;font-variant-ligatures:normal;font-variant-numeric:normal;font-variant-position:normal;isolation:auto;mix-blend-mode:normal;paint-order:normal;shape-padding:0;text-decoration-color:#000000;text-decoration-line:none;text-decoration-style:solid;text-indent:0;text-orientation:mixed;text-transform:none;white-space:normal"/>
</svg>
