<?xml version="1.0" encoding="UTF-8"?>
<svg id="d" width="18" height="18" version="1.1" xmlns="http://www.w3.org/2000/svg" xmlns:cc="http://creativecommons.org/ns#" xmlns:dc="http://purl.org/dc/elements/1.1/" xmlns:rdf="http://www.w3.org/1999/02/22-rdf-syntax-ns#">
	<metadata id="b">
		<rdf:RDF>
			<cc:Work rdf:about="">
				<dc:format>image/svg+xml</dc:format>
				<dc:type rdf:resource="http://purl.org/dc/dcmitype/StillImage"/>
				<dc:title/>
			</cc:Work>
		</rdf:RDF>
	</metadata>
	<defs id="e">
		<style id="current-color-scheme" type="text/css">.ColorScheme-Text{color:#090d11;}.ColorScheme-Background{color:#ffffff;}</style>
	</defs>
	<path id="c" class="ColorScheme-Text" d="m3 3c-0.5541 0-1 0.4459-1 1v10c0 0.5541 0.4459 1 1 1h12c0.5541 0 1-0.4459 1-1v-10c0-0.5541-0.4459-1-1-1zm1 1h2v1h-2zm4 0h2v1h-2zm4 0h2v1h-2zm-5 3h1v4h-1zm3 0h1v4h-1zm-6 6h2v1h-2zm4 0h2v1h-2zm4 0h2v1h-2z" style="fill-opacity:.75;fill:currentColor"/>
	<path id="a" class="ColorScheme-Background" d="m1 2v1h16v-1zm3 2v1h2v-1zm4 0v1h2v-1zm4 0v1h2v-1zm-5 3v4h1v-4zm3 0v4h1v-4zm-6 6v1h2v-1zm4 0v1h2v-1zm4 0v1h2v-1zm-11 2v1h16v-1z" style="fill-opacity:.5;fill:currentColor"/>
</svg>
