<?xml version="1.0" encoding="UTF-8" standalone="no"?>
<svg
   xmlns:dc="http://purl.org/dc/elements/1.1/"
   xmlns:cc="http://creativecommons.org/ns#"
   xmlns:rdf="http://www.w3.org/1999/02/22-rdf-syntax-ns#"
   xmlns:svg="http://www.w3.org/2000/svg"
   xmlns="http://www.w3.org/2000/svg"
   version="1.1"
   id="svg2"
   height="18"
   width="18">
  <defs
     id="defs4">
    <style
       id="current-color-scheme"
       type="text/css">.ColorScheme-Text {color:#090d11;}.ColorScheme-Background{color:#ffffff;}</style>
  </defs>
  <metadata
     id="metadata7">
    <rdf:RDF>
      <cc:Work
         rdf:about="">
        <dc:format>image/svg+xml</dc:format>
        <dc:type
           rdf:resource="http://purl.org/dc/dcmitype/StillImage" />
        <dc:title></dc:title>
      </cc:Work>
    </rdf:RDF>
  </metadata>
  <path
     id="path3076"
     d="m 8.25,3.9688 c -1.4536501,0 -2.6390909,1.1738 -2.65625,2.625 h 0.125 c 1.4630728,0 2.65625,1.19 2.65625,2.6562 V 9.281 H 8.5 L 8.625,9.25 8.75,9.219 H 8.875 L 9,9.188 9.125,9.126 9.25,9.095 9.34375,9.033 9.46875,9.002 9.59375,8.94 9.6875,8.878 9.78125,8.784 9.90625,8.722 10,8.628 10.09375,8.566 10.15625,8.472 10.25,8.378 l 0.09375,-0.094 0.0625,-0.094 0.0625,-0.094 0.0625,-0.125 0.0625,-0.094 0.0625,-0.125 0.0625,-0.125 L 10.75,7.533 10.78125,7.408 10.84375,7.283 V 7.158 L 10.875,7.033 10.90625,6.908 V 6.7517 6.6267 C 10.90625,5.1633 9.7134489,3.9705 8.25,3.9705 Z m 5.15625,2.75 c -1.413923,0 -2.545712,1.1504 -2.5625,2.5625 h 0.09375 c 1.423249,0 2.59375,1.1677 2.59375,2.5937 v 0.031 l 0.125,-0.031 h 0.125 l 0.125,-0.031 0.125,-0.031 0.125,-0.031 0.09375,-0.031 0.125,-0.031 0.125,-0.062 0.09375,-0.031 0.125,-0.062 0.09375,-0.062 0.09375,-0.062 L 15,11.347 l 0.09375,-0.062 0.09375,-0.094 0.09375,-0.094 0.0625,-0.062 0.09375,-0.094 0.0625,-0.094 0.09375,-0.125 0.0625,-0.094 L 15.6875,10.534 15.75,10.409 15.8125,10.315 15.84375,10.19 15.875,10.065 15.9375,9.94 V 9.815 L 15.96875,9.69 16,9.565 V 9.44 9.315 C 16,7.8889 14.833229,6.7213 13.40625,6.7213 Z M 4.5,8.5 4.375,8.531 H 4.21875 l -0.125,0.031 h -0.125 l -0.125,0.031 -0.125,0.031 -0.125,0.031 -0.125,0.031 -0.125,0.031 -0.125,0.031 L 3.125,8.779 3.03125,8.81 2.90625,8.872 2.8125,8.903 2.71875,8.965 2.625,9.027 2.5625,9.058 2.46875,9.12 2.40625,9.182 2.34375,9.244 2.28125,9.306 2.21875,9.368 2.15625,9.43 2.125,9.492 2.09375,9.554 2.0625,9.616 2.03125,9.678 2,9.772 v 0.062 0.062 0.031 c 0,0.7834 1.2394579,1.4063 2.78125,1.4063 1.5440265,0 2.8125,-0.6229 2.8125,-1.4063 0,-0.7807 -1.2680974,-1.4375 -2.8125,-1.4375 H 4.65625 4.5 Z M 9.65625,11.0625 9.5,11.0935 H 9.375 l -0.15625,0.031 h -0.125 l -0.15625,0.031 -0.125,0.031 -0.125,0.031 -0.125,0.031 -0.09375,0.062 -0.125,0.031 -0.125,0.031 -0.09375,0.062 -0.09375,0.031 -0.09375,0.062 -0.09375,0.062 -0.09375,0.062 -0.09375,0.031 -0.0625,0.062 -0.09375,0.062 -0.0625,0.062 -0.03125,0.094 -0.0625,0.062 -0.0625,0.062 -0.03125,0.062 -0.03125,0.062 -0.03125,0.094 v 0.062 l -0.03125,0.094 v 0.062 c 0,0.82 1.3166189,1.5 2.9375,1.5 1.620037,0 2.9375,-0.6803 2.9375,-1.5 0,-0.8205 -1.317463,-1.4688 -2.9375,-1.4688 H 9.9375 9.78125 9.65625 Z"
     style="color:#090d11;fill:currentColor;fill-opacity:0.75"
     class="ColorScheme-Text" />
  <path
     style="color:#ffffff;fill:currentColor;fill-opacity:0.5"
     class="ColorScheme-Background"
     d="m 8.25,2.78125 c -2.0996378,0 -3.818956,1.7155 -3.84375,3.8125 L 4.375,7.3125 H 4.34375 l -0.125,0.03125 H 4.0625 L 3.96875,7.375 H 3.9375 3.8125 L 3.6875,7.40625 3.5625,7.4375 3.4375,7.46875 3.3125,7.5 3.1875,7.53125 3.0625,7.5625 2.9375,7.59375 H 2.875 L 2.84375,7.625 2.75,7.65625 2.65625,7.6875 H 2.5625 L 2.53125,7.75 H 2.5 L 2.4375,7.78125 2.375,7.8125 H 2.28125 l -0.125,0.09375 -0.0625,0.0625 H 2.0625 L 2.03125,8 1.96875,8.03125 1.90625,8.0625 1.8125,8.125 1.71875,8.1875 1.625,8.28125 1.5625,8.34375 1.5,8.40625 1.4375,8.46875 1.375,8.53125 1.3125,8.59375 1.15625,8.71875 1.09375,8.90625 1.0625,8.96875 1.03125,9.03125 1,9.09375 0.96875,9.15625 0.90625,9.21875 V 9.3125 L 0.875,9.40625 0.8125,9.59375 v 0.1875 0.0625 0.0625 0.03125 c 0,1.0246 0.7450947,1.6973 1.46875,2.0625 0.7236553,0.3652 1.5675128,0.53125 2.5,0.53125 0.4379348,0 0.788414,-0.1723 1.1875,-0.25 v 0.1875 0.0625 c 0,1.0522 0.7494309,1.7403 1.5,2.125 0.7505691,0.3846 1.6467742,0.5625 2.625,0.5625 0.97799,0 1.874479,-0.178 2.625,-0.5625 0.606756,-0.311 1.099066,-0.8851 1.3125,-1.625 H 14.0625 L 14.1875,13 l 0.125,-0.03125 0.125,-0.03125 H 14.5 L 14.53125,12.90625 14.625,12.875 h 0.03125 l 0.125,-0.03125 L 14.875,12.78125 14.96875,12.75 H 15.0625 L 15.125,12.6875 15.25,12.625 15.3125,12.59375 15.375,12.5625 15.46875,12.5 15.5625,12.4375 15.65625,12.375 v -0.03125 l 0.09375,-0.0625 0.09375,-0.0625 V 12.1875 L 15.9375,12.125 16.03125,12.03125 16.125,11.9375 16.1875,11.875 16.28125,11.78125 16.375,11.6875 16.4375,11.59375 16.46875,11.5625 16.5,11.5 16.5625,11.4375 v -0.03125 l 0.03125,-0.03125 0.0625,-0.09375 0.09375,-0.125 V 11.0625 l 0.03125,-0.03125 V 11 L 16.8125,10.96875 V 10.9375 l 0.125,-0.125 0.03125,-0.21875 0.03125,-0.125 0.125,-0.25 v -0.25 -0.03125 l 0.03125,-0.09375 0.03125,-0.125 V 9.5625 9.4375 9.3125 c 0,-2.0806 -1.699657,-3.78125 -3.78125,-3.78125 -0.516205,0 -1.021135,0.09005 -1.46875,0.28125 C 11.551287,4.0932 10.078798,2.78125 8.25,2.78125 Z m 0,1.1875 c 1.4634489,0 2.65625,1.19285 2.65625,2.65625 V 6.75 6.90625 l -0.03125,0.125 -0.03125,0.125 v 0.125 l -0.0625,0.125 -0.03125,0.125 -0.03125,0.09375 -0.0625,0.125 -0.0625,0.125 -0.0625,0.09375 -0.0625,0.125 -0.0625,0.09375 -0.0625,0.09375 L 10.25,8.375 10.15625,8.46875 10.09375,8.5625 10,8.625 9.90625,8.71875 9.78125,8.78125 9.6875,8.875 9.59375,8.9375 9.46875,9 9.34375,9.03125 9.25,9.09375 9.125,9.125 9,9.1875 8.875,9.21875 H 8.75 L 8.625,9.25 8.5,9.28125 H 8.375 V 9.25 C 8.375,7.7838 7.1818228,6.59375 5.71875,6.59375 h -0.125 C 5.610909,5.14255 6.7963499,3.96875 8.25,3.96875 Z m 5.15625,2.75 C 14.833229,6.71875 16,7.8864 16,9.3125 v 0.125 0.125 l -0.03125,0.125 -0.03125,0.125 v 0.125 l -0.0625,0.125 -0.03125,0.125 -0.03125,0.125 -0.0625,0.09375 -0.0625,0.125 -0.03125,0.09375 -0.0625,0.09375 -0.09375,0.125 -0.0625,0.09375 -0.09375,0.09375 -0.0625,0.0625 L 15.1875,11.1875 15.09375,11.28125 15,11.34375 14.90625,11.4375 14.8125,11.5 14.71875,11.5625 14.59375,11.625 14.5,11.65625 14.375,11.71875 14.25,11.75 l -0.09375,0.03125 -0.125,0.03125 -0.125,0.03125 -0.125,0.03125 h -0.125 l -0.125,0.03125 V 11.875 c 0,-1.426 -1.170501,-2.59375 -2.59375,-2.59375 h -0.09375 c 0.01679,-1.4121 1.148577,-2.5625 2.5625,-2.5625 z M 4.5,8.5 h 0.15625 0.125 c 1.5444026,0 2.8125,0.6568 2.8125,1.4375 0,0.7834 -1.2684735,1.40625 -2.8125,1.40625 C 3.2394579,11.34375 2,10.7209 2,9.9375 V 9.90625 9.84375 9.78125 L 2.03125,9.6875 2.0625,9.625 2.09375,9.5625 2.125,9.5 2.15625,9.4375 2.21875,9.375 2.28125,9.3125 2.34375,9.25 2.40625,9.1875 2.46875,9.125 2.5625,9.0625 2.625,9.03125 2.71875,8.96875 2.8125,8.90625 2.90625,8.875 3.03125,8.8125 3.125,8.78125 3.21875,8.75 l 0.125,-0.03125 0.125,-0.03125 0.125,-0.03125 0.125,-0.03125 0.125,-0.03125 0.125,-0.03125 h 0.125 l 0.125,-0.03125 H 4.375 Z m 5.15625,2.5625 h 0.125 0.15625 0.15625 c 1.620037,0 2.9375,0.64825 2.9375,1.46875 0,0.8197 -1.317463,1.5 -2.9375,1.5 -1.6208811,0 -2.9375,-0.68 -2.9375,-1.5 v -0.0625 L 7.1875,12.375 v -0.0625 l 0.03125,-0.09375 0.03125,-0.0625 0.03125,-0.0625 0.0625,-0.0625 0.0625,-0.0625 L 7.4375,11.875 7.5,11.8125 7.59375,11.75 7.65625,11.6875 7.75,11.65625 7.84375,11.59375 7.9375,11.53125 8.03125,11.46875 8.125,11.4375 8.21875,11.375 8.34375,11.34375 8.46875,11.3125 8.5625,11.25 8.6875,11.21875 8.8125,11.1875 8.9375,11.15625 9.09375,11.125 h 0.125 L 9.375,11.09375 H 9.5 Z"
     id="path3324" />
</svg>
