<?xml version="1.0" encoding="UTF-8"?>
<!-- Created with Inkscape (http://www.inkscape.org/) -->
<svg width="18" height="18" version="1.1" xmlns="http://www.w3.org/2000/svg" xmlns:cc="http://creativecommons.org/ns#" xmlns:dc="http://purl.org/dc/elements/1.1/" xmlns:rdf="http://www.w3.org/1999/02/22-rdf-syntax-ns#">
	<metadata>
		<rdf:RDF>
			<cc:Work rdf:about="">
				<dc:format>image/svg+xml</dc:format>
				<dc:type rdf:resource="http://purl.org/dc/dcmitype/StillImage"/>
			</cc:Work>
		</rdf:RDF>
	</metadata>
	<defs>
		<style id="current-color-scheme" type="text/css">.ColorScheme-Text {color:#090d11;}.ColorScheme-Background{color:#ffffff;}</style>
	</defs>
	<path class="ColorScheme-Text" d="m2.5 2c-0.27613 2.59e-5 -0.49997 0.22387-0.5 0.5v2c2.59e-5 0.27613 0.22387 0.49997 0.5 0.5h2c0.27613-2.59e-5 0.49997-0.22387 0.5-0.5v-2c-2.59e-5 -0.27613-0.22387-0.49997-0.5-0.5zm10 0c-0.27613 2.68e-5 -0.49997 0.22387-0.5 0.5v3c2.7e-5 0.27613 0.22387 0.49997 0.5 0.5h3c0.27613-2.68e-5 0.49997-0.22387 0.5-0.5v-3c-2.7e-5 -0.27613-0.22387-0.49997-0.5-0.5zm-9.5 1h1v1h-1zm4.5 0c-0.27613 2.68e-5 -0.49997 0.22387-0.5 0.5v2c2.68e-5 0.27613 0.22387 0.49997 0.5 0.5h3c0.27613-2.68e-5 0.49997-0.22387 0.5-0.5v-2c-2.7e-5 -0.27613-0.22387-0.49997-0.5-0.5zm0.5 1h2v1h-2zm-4.5 3c-0.27613 2.68e-5 -0.49997 0.22387-0.5 0.5v3c2.68e-5 0.27613 0.22387 0.49997 0.5 0.5h2c0.27613-2.7e-5 0.49997-0.22387 0.5-0.5v-3c-2.68e-5 -0.27613-0.22387-0.49997-0.5-0.5zm4 0c-0.27613 2.68e-5 -0.49997 0.22387-0.5 0.5v3c2.68e-5 0.27613 0.22387 0.49997 0.5 0.5h3c0.27613-2.7e-5 0.49997-0.22387 0.5-0.5v-3c-2.7e-5 -0.27613-0.22387-0.49997-0.5-0.5zm5 0c-0.27613 2.68e-5 -0.49997 0.22387-0.5 0.5v3c2.7e-5 0.27613 0.22387 0.49997 0.5 0.5h2c0.27613-2.7e-5 0.49997-0.22387 0.5-0.5v-3c-2.7e-5 -0.27613-0.22387-0.49997-0.5-0.5zm-8.5 1h1v2h-1zm9 0h1v2h-1zm-10.5 4c-0.27613 2.7e-5 -0.49997 0.22387-0.5 0.5v3c2.68e-5 0.27613 0.22387 0.49997 0.5 0.5h3c0.27613-2.7e-5 0.49997-0.22387 0.5-0.5v-3c-2.68e-5 -0.27613-0.22387-0.49997-0.5-0.5zm5 0c-0.27613 2.7e-5 -0.49997 0.22387-0.5 0.5v2c2.68e-5 0.27613 0.22387 0.49997 0.5 0.5h3c0.27613-2.7e-5 0.49997-0.22387 0.5-0.5v-2c-2.7e-5 -0.27613-0.22387-0.49997-0.5-0.5zm0.5 1h2v1h-2zm5.5 0c-0.27613 2.6e-5 -0.49997 0.22387-0.5 0.5v2c2.6e-5 0.27613 0.22387 0.49997 0.5 0.5h2c0.27613-2.6e-5 0.49997-0.22387 0.5-0.5v-2c-2.6e-5 -0.27613-0.22387-0.49997-0.5-0.5zm0.5 1h1v1h-1z" style="fill-opacity:.75;fill:currentColor"/>
</svg>
