<?xml version="1.0" encoding="UTF-8"?>
<!-- Created with Inkscape (http://www.inkscape.org/) -->
<svg width="18" height="18" version="1.1" xmlns="http://www.w3.org/2000/svg" xmlns:cc="http://creativecommons.org/ns#" xmlns:dc="http://purl.org/dc/elements/1.1/" xmlns:rdf="http://www.w3.org/1999/02/22-rdf-syntax-ns#">
	<defs>
		<style id="current-color-scheme" type="text/css">.ColorScheme-Text {
			color:#090d11;
			}
			.ColorScheme-Background{
			color:#ffffff;
			}</style>
	</defs>
	<metadata>
		<rdf:RDF>
			<cc:Work rdf:about="">
				<dc:format>image/svg+xml</dc:format>
				<dc:type rdf:resource="http://purl.org/dc/dcmitype/StillImage"/>
			</cc:Work>
		</rdf:RDF>
	</metadata>
	<path class="ColorScheme-Text" d="m9 2c-3.866 0-7 3.134-7 7s3.134 7 7 7 7-3.134 7-7-3.134-7-7-7zm0 1c3.3078 0 6 2.6922 6 6s-2.6922 6-6 6v-1c2.7673 0 5-2.2327 5-5s-2.2327-5-5-5zm0 2c2.2032 0 4 1.7968 4 4s-1.7968 4-4 4v-1c1.6628 0 3-1.3372 3-3s-1.3372-3-3-3zm0 2c1.0986 0 2 0.90135 2 2s-0.90135 2-2 2v-3z" style="fill-opacity:.75;fill:currentColor"/>
</svg>
