<?xml version="1.0" encoding="UTF-8"?>
<svg id="d" width="18" height="18" version="1.1" xmlns="http://www.w3.org/2000/svg" xmlns:cc="http://creativecommons.org/ns#" xmlns:dc="http://purl.org/dc/elements/1.1/" xmlns:rdf="http://www.w3.org/1999/02/22-rdf-syntax-ns#">
	<metadata id="a">
		<rdf:RDF>
			<cc:Work rdf:about="">
				<dc:format>image/svg+xml</dc:format>
				<dc:type rdf:resource="http://purl.org/dc/dcmitype/StillImage"/>
				<dc:title/>
			</cc:Work>
		</rdf:RDF>
	</metadata>
	<defs id="c">
		<style id="current-color-scheme" type="text/css">.ColorScheme-Text {color:#090d11;}.ColorScheme-Background{color:#ffffff;}</style>
	</defs>
	<path id="e" class="ColorScheme-Text" d="m3 3c-0.554 0-1 0.446-1 1v8c0 0.554 0.446 1 1 1v-8c0-0.554 0.446-1 1-1h10c0-0.554-0.446-1-1-1zm2 2c-0.554 0-1 0.446-1 1v8c0 0.554 0.446 1 1 1h10c0.554 0 1-0.446 1-1v-8c0-0.554-0.446-1-1-1zm1 1c0.5523 0 1 0.4477 1 1s-0.4477 1-1 1-1-0.4477-1-1 0.4477-1 1-1zm3 0c0.5523 0 1 0.4477 1 1s-0.4477 1-1 1-1-0.4477-1-1 0.4477-1 1-1zm3 0c0.5523 0 1 0.4477 1 1s-0.4477 1-1 1-1-0.4477-1-1 0.4477-1 1-1zm-7 3h10v5h-10z" style="fill:currentColor;opacity:.75"/>
	<path id="f" class="ColorScheme-Background" d="m2 2c-0.554 0-1 0.446-1 1v10c0 0.554 0.446 1 1 1h1v1c0 0.554 0.446 1 1 1h12c0.554 0 1-0.446 1-1v-10c0-0.554-0.50449-0.75224-1-1h-1v-1c0-0.554-0.446-1-1-1zm0 1h12v1h-10c-0.554 0-1 0.446-1 1v8h-1zm2 2h12v10h-12zm2 1c-0.55228 0-1 0.44772-1 1s0.44772 1 1 1 1-0.44772 1-1-0.44772-1-1-1zm3 0c-0.55228 0-1 0.44772-1 1s0.44772 1 1 1 1-0.44772 1-1-0.44772-1-1-1zm3 0c-0.55228 0-1 0.44772-1 1s0.44772 1 1 1 1-0.44772 1-1-0.44772-1-1-1z" style="fill:currentColor;opacity:.5"/>
</svg>
