<?xml version="1.0" encoding="UTF-8"?>
<!-- Created with Inkscape (http://www.inkscape.org/) -->
<svg width="18" height="18" version="1.1" xmlns="http://www.w3.org/2000/svg" xmlns:cc="http://creativecommons.org/ns#" xmlns:dc="http://purl.org/dc/elements/1.1/" xmlns:rdf="http://www.w3.org/1999/02/22-rdf-syntax-ns#">
	<defs>
		<style id="current-color-scheme" type="text/css">.ColorScheme-Text {color:#090d11;}.ColorScheme-Background{color:#ffffff;}</style>
	</defs>
	<metadata>
		<rdf:RDF>
			<cc:Work rdf:about="">
				<dc:format>image/svg+xml</dc:format>
				<dc:type rdf:resource="http://purl.org/dc/dcmitype/StillImage"/>
			</cc:Work>
		</rdf:RDF>
	</metadata>
	<g transform="translate(3365.4,-2099.7)">
		<path id="a" class="ColorScheme-Background" transform="translate(-3364.4,2100.7)" d="m3.4336 0c-0.2652 5.1032e-5 -0.51952 0.10543-0.70703 0.29297l-2.4336 2.4336c-0.39037 0.39053-0.39037 1.0235 0 1.4141l3.8613 3.8594-3.8613 3.8594c-0.39037 0.39053-0.39037 1.0235 0 1.4141l2.4336 2.4336c0.39053 0.39037 1.0235 0.39037 1.4141 0l3.8594-3.8594 3.8613 3.8594c0.39053 0.39037 1.0235 0.39037 1.4141 0l2.4336-2.4336c0.39037-0.39053 0.39037-1.0235 0-1.4141l-3.8613-3.8594 3.8613-3.8594c0.39037-0.39053 0.39037-1.0235 0-1.4141l-2.4336-2.4336c-0.39053-0.39037-1.0235-0.39037-1.4141 0l-3.8613 3.8594-3.8594-3.8594c-0.18751-0.18754-0.44183-0.29292-0.70703-0.29297zm0 1 4.5664 4.5664 4.5664-4.5664 2.4336 2.4336-4.5664 4.5664 4.5664 4.5664-2.4336 2.4336-4.5664-4.5664-4.5664 4.5664-2.4336-2.4336 4.5664-4.5664-4.5664-4.5664z" style="fill-opacity:.5;fill:currentColor"/>
		<path id="g" class="ColorScheme-Text" transform="translate(-3364.4,2100.7)" d="M 3.4335938,1 1,3.4335938 5.5664062,8 1,12.566406 3.4335938,15 8,10.433594 12.566406,15 15,12.566406 10.433594,8 15,3.4335938 12.566406,1 8,5.5664062 Z" style="fill-opacity:.75;fill:currentColor"/>
	</g>
</svg>
