<?xml version="1.0" encoding="UTF-8"?>
<!-- Created with Inkscape (http://www.inkscape.org/) -->
<svg width="18" height="18" version="1.1" xmlns="http://www.w3.org/2000/svg" xmlns:cc="http://creativecommons.org/ns#" xmlns:dc="http://purl.org/dc/elements/1.1/" xmlns:rdf="http://www.w3.org/1999/02/22-rdf-syntax-ns#">
	<metadata>
		<rdf:RDF>
			<cc:Work rdf:about="">
				<dc:format>image/svg+xml</dc:format>
				<dc:type rdf:resource="http://purl.org/dc/dcmitype/StillImage"/>
			</cc:Work>
		</rdf:RDF>
	</metadata>
	<defs>
		<style id="current-color-scheme" type="text/css">
			.ColorScheme-Text {color:#090d11;}
			.ColorScheme-Background{color:#ffffff;}
		</style>
	</defs>
	<path class="ColorScheme-Text" d="m3 3 4.4375 5.8438-1.9688 2.7188c0.21177 0.17233 0.42807 0.35737 0.6875 0.5l3.3125-4.5312-3.4688-4.5312zm11 0-5.4688 7.4688 1.8125 2.375c0.93304-0.08919 1.7608-0.35946 2.4688-0.71875l-2.25-2.9688 4.4375-6.1562zm-9.5 9.9062-1.5 2.0938h1l1.25-1.7188c-0.26966-0.11076-0.50722-0.24222-0.75-0.375zm8.9375 0.03125c-0.69566 0.37169-1.4903 0.66685-2.375 0.84375l0.9375 1.2188h3z" style="fill:currentColor;opacity:.75"/>
	<path class="ColorScheme-Background" d="m8.7812 5 0.875 1.125c0.25116 0.00208 0.50687 0.041993 0.75 0.0625l0.71875-0.96875c-0.67146-0.14372-1.3746-0.21875-2.125-0.21875-0.07484 0-0.14466-0.0015931-0.21875 0zm-4.5625 1.25c-1.3583 0.81775-2.2188 1.958-2.2188 3.25 0 1.0972 0.63277 2.0999 1.6562 2.875l1.125-1.5625c-0.27979-0.40801-0.46875-0.83942-0.46875-1.3125 0-0.70245 0.33506-1.365 0.90625-1.9062zm9.6562 0.0625-0.59375 0.8125c0.95485 0.6092 1.5625 1.4442 1.5625 2.375 0 0.78809-0.44522 1.5136-1.1562 2.0938l0.59375 0.8125c1.0602-0.78097 1.7188-1.7872 1.7188-2.9062 0-1.2604-0.82332-2.3741-2.125-3.1875zm-6.75 6.1562-0.875 1.1562c0.84271 0.23772 1.77 0.375 2.75 0.375 0.31994 0 0.6331-0.0322 0.9375-0.0625l-0.84375-1.0938c-0.71679-0.04035-1.367-0.1676-1.9688-0.375z" style="fill:currentColor;opacity:.3"/>
	<path id="e" class="ColorScheme-Text" d="m8.7812 5 0.875 1.125c0.25116 0.00208 0.50687 0.041993 0.75 0.0625l0.71875-0.96875c-0.67146-0.14372-1.3746-0.21875-2.125-0.21875-0.07484 0-0.14466-0.0015931-0.21875 0zm-4.5625 1.25c-1.3583 0.81775-2.2188 1.958-2.2188 3.25 0 1.0972 0.63277 2.0999 1.6562 2.875l1.125-1.5625c-0.27979-0.40801-0.46875-0.83942-0.46875-1.3125 0-0.70245 0.33506-1.365 0.90625-1.9062zm9.6562 0.0625-0.59375 0.8125c0.95485 0.6092 1.5625 1.4442 1.5625 2.375 0 0.78809-0.44522 1.5136-1.1562 2.0938l0.59375 0.8125c1.0602-0.78097 1.7188-1.7872 1.7188-2.9062 0-1.2604-0.82332-2.3741-2.125-3.1875zm-6.75 6.1562-0.875 1.1562c0.84271 0.23772 1.77 0.375 2.75 0.375 0.31994 0 0.6331-0.0322 0.9375-0.0625l-0.84375-1.0938c-0.71679-0.04035-1.367-0.1676-1.9688-0.375z" style="fill:currentColor;opacity:.3"/>
	<path class="ColorScheme-Background" d="m1 2 1.1875 1.5938 4 5.25-1.4375 2c0.18114 0.26739 0.44135 0.49301 0.71875 0.71875l1.9688-2.7188-4.4375-5.8438h3l3.4375 4.5-1.7188 2.375-0.4375 0.625-1.125 1.5625c0.28291 0.15554 0.607 0.29187 0.9375 0.40625l0.84375-1.125 1.1562 1.5c0.15662 9e-3 0.3084 0.03125 0.46875 0.03125 0.26683 0 0.52481-0.0067 0.78125-0.03125l-1.7812-2.3438 1.7188-2.375 0.4375-0.625 3.2812-4.5h1l-4.4375 6.1562 2.25 2.9688c0.30767-0.15614 0.59721-0.33566 0.84375-0.53125l-1.8438-2.4375 4-5.5625 1.125-1.5938h-3.4375l-0.3125 0.40625-3.125 4.25-3.2812-4.25-0.28125-0.40625h-3.5zm2.625 10.406-1.4375 2-1.125 1.5938h3.4375l0.3125-0.40625 1.4375-1.9375c-0.35255-0.09708-0.68008-0.24359-1-0.375l-1.25 1.7188h-1l1.5-2.0938c-0.30144-0.16487-0.62082-0.30494-0.875-0.5zm10.688 0.03125c-0.2573 0.1928-0.57102 0.33759-0.875 0.5l1.5625 2.0625h-3l-0.9375-1.2188c-0.36532 0.07305-0.73674 0.12239-1.125 0.15625l1.2812 1.6562 0.28125 0.40625h5.5l-1.1875-1.5938z" style="fill:currentColor;opacity:.5"/>
</svg>
