<?xml version="1.0" encoding="UTF-8"?>
<!-- Created with Inkscape (http://www.inkscape.org/) -->
<svg width="18" height="18" version="1.1" xmlns="http://www.w3.org/2000/svg" xmlns:cc="http://creativecommons.org/ns#" xmlns:dc="http://purl.org/dc/elements/1.1/" xmlns:rdf="http://www.w3.org/1999/02/22-rdf-syntax-ns#">
	<defs>
		<radialGradient id="a" cx="15.394" cy="15.084" r="9" gradientTransform="matrix(1.3818,0,0,1.3814,-10.54,-10.534)" gradientUnits="userSpaceOnUse">
			<stop stop-color="#213851" stop-opacity=".9059" offset="0"/>
			<stop stop-color="#27303a" stop-opacity="0" offset="1"/>
		</radialGradient>
		<radialGradient id="b" cx="-3357.4" cy="2099.7" r="8" gradientTransform="matrix(.88889 0 0 .88838 2988.9 -1860.7)" gradientUnits="userSpaceOnUse">
			<stop stop-color="#ffffff" stop-opacity=".74858" offset="0"/>
			<stop stop-color="#ffffff" stop-opacity=".60511" offset="1"/>
		</radialGradient>
	</defs>
	<metadata>
		<rdf:RDF>
			<cc:Work rdf:about="">
				<dc:format>image/svg+xml</dc:format>
				<dc:type rdf:resource="http://purl.org/dc/dcmitype/StillImage"/>
				<dc:title/>
			</cc:Work>
		</rdf:RDF>
	</metadata>
	<path d="m9 1.005c-4.406 0-8 3.5942-8 7.9975 0 4.4032 3.594 7.9975 8 7.9975 4.4061 0 8-3.5941 8-7.9975 0-4.4035-3.5939-7.9975-8-7.9975zm1.19e-5 0.99906c3.8619 0 7 3.1381 7 6.9984 0 3.8602-3.1381 6.9984-7 6.9984-3.8618 0-7-3.1382-7-6.9984 0-3.8603 3.1382-6.9984 7-6.9984zm5.2e-6 0.98677c-0.17072 0-0.33826 0.011161-0.50537 0.024905-0.11397 0.010214-0.22763 0.023673-0.34084 0.040363-0.086907 0.012023-0.1745 0.024045-0.2602 0.040362-0.11773 0.022836-0.23474 0.049184-0.35089 0.079007-0.072208 0.018034-0.14407 0.03521-0.2149 0.054961-0.12729 0.037761-0.25329 0.079722-0.3778 0.12581-0.061892 0.022328-0.12387 0.042938-0.18464 0.066984-0.11344 0.046891-0.22541 0.09724-0.33576 0.15097-0.073926 0.035211-0.1494 0.067843-0.22161 0.10563-0.093178 0.050128-0.18502 0.1027-0.27542 0.15767-0.079944 0.047232-0.16092 0.093177-0.23837 0.14427-0.078524 0.053527-0.15577 0.10891-0.23167 0.16609-0.086649 0.06355-0.1739 0.12521-0.25694 0.19288-0.046485 0.039548-0.092365 0.079801-0.13762 0.12074-0.1059 0.091889-0.21146 0.18447-0.31058 0.28348-0.011172 0.011161-0.02235 0.024046-0.033525 0.035211-0.12482 0.12658-0.24611 0.25695-0.35932 0.39418-0.85609 1.0376-1.37 2.368-1.37 3.8209 0 3.3206 2.6841 6.0048 6.0055 6.0048 3.3214 0 6.0055-2.6841 6.0055-6.0048 0-0.6227-0.09507-1.2237-0.27026-1.788-0.05673-0.18361-0.12284-0.36301-0.19642-0.53846-0.0029-0.00458-0.0057-0.00916-0.0086-0.013741-0.0086-0.011161-0.01028-0.022328-0.01547-0.033492-0.06877-0.15922-0.14356-0.31457-0.22496-0.46632-0.01834-0.032031-0.03697-0.063894-0.05589-0.095582-0.07562-0.13491-0.15444-0.2676-0.23997-0.39581-0.02816-0.0406-0.05681-0.080851-0.08596-0.12074-0.08424-0.11989-0.17098-0.23745-0.26356-0.35055-0.02606-0.030463-0.05242-0.060665-0.07908-0.090601-0.10102-0.11851-0.20418-0.23531-0.31395-0.34557-0.02332-0.021943-0.04682-0.043699-0.07049-0.065267-0.11433-0.11121-0.23124-0.22019-0.35425-0.32204-0.0034-0.00287-0.0069-0.00573-0.01028-0.00859-0.03782-0.031776-0.07994-0.058398-0.11923-0.088886-0.10847-0.085018-0.21636-0.17064-0.33069-0.24827-0.12308-0.081202-0.24911-0.15786-0.37783-0.22981-0.03696-0.02147-0.07134-0.046374-0.10908-0.066984-0.17467-0.095507-0.35398-0.18229-0.53726-0.26004-0.18503-0.078152-0.37387-0.147-0.5658-0.20628-0.18612-0.057761-0.37494-0.10645-0.5658-0.14591h-0.01719c-0.05305-0.00844-0.1062-0.016169-0.15946-0.023187-0.14411-0.027042-0.28917-0.048812-0.43488-0.065267-0.19972-0.020028-0.40032-0.03006-0.60104-0.030057zm-2.8507 2.4023 2.8559 2.8532 2.8594-2.8532 1.0851 1.0858-3.1719 3.1688v3.7776h-1.5382v-3.7724l-3.1771-3.174z" fill="#090d11" fill-opacity=".76621" stroke-width=".88846" style="paint-order:normal"/>
	<path d="m9 0.99975c-4.406 0-8 3.5942-8 7.9975 0 4.4032 3.594 7.9975 8 7.9975 4.4061 0 8-3.5941 8-7.9975 0-4.4035-3.5939-7.9975-8-7.9975zm1.19e-5 0.99914c3.8619 0 7 3.1381 7 6.9984 0 3.8602-3.1381 6.9984-7 6.9984-3.8618 0-7-3.1382-7-6.9984 0-3.8603 3.1382-6.9984 7-6.9984zm5.2e-6 0.98687c-0.17073 0-0.33828 0.011256-0.50536 0.025159-0.11397 0.010178-0.22762 0.023602-0.34082 0.040255-0.086958 0.012248-0.17453 0.024334-0.26023 0.040255-0.11772 0.022779-0.23474 0.049069-0.35089 0.078834-0.07188 0.017887-0.14408 0.034906-0.2149 0.055351-0.12727 0.037756-0.25326 0.079711-0.37776 0.12579-0.061745 0.0224-0.1239 0.042746-0.18468 0.067092-0.11344 0.046885-0.22542 0.097228-0.33578 0.15096-0.073911 0.035047-0.14942 0.067733-0.22162 0.10567-0.093152 0.050127-0.18496 0.1027-0.27534 0.15766-0.079877 0.047536-0.16099 0.09317-0.2384 0.14425-0.078532 0.053515-0.15578 0.10888-0.23169 0.16605-0.08658 0.063226-0.17391 0.12523-0.25688 0.19289-0.046502 0.039554-0.0924 0.079812-0.13768 0.12076-0.1059 0.091872-0.21141 0.18448-0.3106 0.28347-0.011502 0.011479-0.022169 0.023652-0.033577 0.035224-0.1248 0.12657-0.24607 0.25694-0.35929 0.39416-0.85608 1.0377-1.37 2.368-1.37 3.8209 0 3.3206 2.6841 6.0048 6.0055 6.0048 3.3214 0 6.0055-2.6841 6.0055-6.0048 0-0.62265-0.09508-1.2236-0.2703-1.788-0.05699-0.18354-0.12281-0.36293-0.19644-0.53841-0.0016-0.00448-0.0033-0.00895-0.0049-0.013423-0.0047-0.011353-0.01028-0.022234-0.01511-0.033543-0.06852-0.15923-0.14363-0.31455-0.22507-0.46629-0.01817-0.032038-0.03664-0.063909-0.05539-0.095609-0.07573-0.13494-0.1546-0.26763-0.24015-0.39585-0.02805-0.040603-0.05659-0.08086-0.08563-0.12076-0.08429-0.11982-0.17098-0.23743-0.2636-0.35055-0.026-0.030454-0.05231-0.060647-0.07891-0.090576-0.101-0.11847-0.20416-0.2353-0.31396-0.34552-0.02333-0.021992-0.04683-0.043798-0.07051-0.065415-0.11438-0.11122-0.23131-0.22017-0.35426-0.32204-0.0033-0.0028-0.0067-0.00559-0.01006-0.00838-0.03825-0.031535-0.08021-0.058303-0.11922-0.088903-0.10852-0.085096-0.21643-0.17066-0.33078-0.24825-0.12306-0.081196-0.24906-0.15785-0.37776-0.22979-0.03706-0.021341-0.07156-0.046525-0.10913-0.067092l-0.0033-0.00168c-0.17468-0.095488-0.35401-0.18225-0.53731-0.25997-0.18503-0.078161-0.37387-0.14702-0.5658-0.2063-0.18612-0.057767-0.37494-0.10647-0.5658-0.14592-0.0055-0.00113-0.01126-0.00224-0.01679-0.00336-0.05306-0.00854-0.10623-0.016367-0.1595-0.023482-0.1441-0.027091-0.28915-0.04891-0.43484-0.065415-0.19972-0.020073-0.40033-0.03015-0.60106-0.030191zm-2.8507 2.4021 2.8559 2.8532 2.8594-2.8532 1.0851 1.0858-3.1719 3.1688v3.7776h-1.5382v-3.7724l-3.1771-3.174z" fill="url(#a)" fill-opacity=".75328" stroke-width=".88846" style="paint-order:normal"/>
	<path d="m9 1.9989c-3.7968 0-7.0044 3.0485-7.0044 6.9426 0 3.894 3.1396 7.0596 7.0044 7.0596s7.006-3.1656 7.006-7.0596c0-3.8941-3.209-6.9426-7.006-6.9426zm7.789e-4 0.98687c3.3214 0 6.0053 2.6839 6.0053 6.0048 0 3.3206-2.6847 6.0048-6.0061 6.0048-3.3214 0-6.0046-2.6841-6.0046-6.0048 0-3.3208 2.684-6.0048 6.0053-6.0048zm-2.8515 2.4018-1.0865 1.0855 3.1779 3.1748v3.773h1.5372v-3.7776l3.1732-3.1702-1.0866-1.0855-2.8584 2.8541z" color="#000000" color-rendering="auto" dominant-baseline="auto" fill="url(#b)" fill-opacity=".99858" image-rendering="auto" shape-rendering="auto" solid-color="#000000" stroke-width=".88846" style="font-feature-settings:normal;font-variant-alternates:normal;font-variant-caps:normal;font-variant-ligatures:normal;font-variant-numeric:normal;font-variant-position:normal;isolation:auto;mix-blend-mode:normal;paint-order:normal;shape-padding:0;text-decoration-color:#000000;text-decoration-line:none;text-decoration-style:solid;text-indent:0;text-orientation:mixed;text-transform:none;white-space:normal"/>
</svg>
