<?xml version="1.0" encoding="UTF-8"?>
<!-- Created with Inkscape (http://www.inkscape.org/) -->
<svg width="24" height="24" version="1.1" xmlns="http://www.w3.org/2000/svg" xmlns:cc="http://creativecommons.org/ns#" xmlns:dc="http://purl.org/dc/elements/1.1/" xmlns:rdf="http://www.w3.org/1999/02/22-rdf-syntax-ns#">
	<defs>
		<style id="current-color-scheme" type="text/css">.ColorScheme-Text {color:#090d11;}
			.ColorScheme-Background{color:#ffffff;}</style>
	</defs>
	<metadata>
		<rdf:RDF>
			<cc:Work rdf:about="">
				<dc:format>image/svg+xml</dc:format>
				<dc:type rdf:resource="http://purl.org/dc/dcmitype/StillImage"/>
			</cc:Work>
		</rdf:RDF>
	</metadata>
	<g class="ColorScheme-Text" transform="translate(-406,-1050.4)" style="fill-opacity:.75;fill:currentColor">
		<path transform="translate(406,1051.4)" d="m12 2.9492c-3.8689 0-7 3.1263-7 6.9902v3.5469c2.32e-5 0.1326 0.052712 0.25976 0.14648 0.35352l1.6055 1.6035-0.24609 2.457c-0.054538 0.54892 0.34571 1.0383 0.89453 1.0938 0.54891 0.05454 1.0383-0.34571 1.0938-0.89453l0.5-5c0.055658-0.54962-0.34489-1.0402-0.89453-1.0957-0.5496-0.0545-1.0393 0.34687-1.0938 0.89648l-0.125 1.2578-0.88086-0.87891v-3.3398c0-3.3264 2.6669-5.9902 6-5.9902s6 2.6638 6 5.9902v3.3398l-0.88086 0.87891-0.125-1.2578c-0.05448-0.54961-0.5442-0.95098-1.0938-0.89648-0.54964 0.05545-0.95019 0.54608-0.89453 1.0957l0.5 5c0.05548 0.54882 0.54488 0.94907 1.0938 0.89453 0.54882-0.05548 0.94907-0.54488 0.89453-1.0938l-0.24609-2.459 1.6055-1.6035c0.09329-0.09328 0.14594-0.21964 0.14648-0.35156v-3.5469c0-3.8639-3.1311-6.9902-7-6.9902z"/>
	</g>
</svg>
