<?xml version="1.0" encoding="UTF-8"?>
<!-- Created with Inkscape (http://www.inkscape.org/) -->
<svg width="24" height="24" version="1.1" xmlns="http://www.w3.org/2000/svg" xmlns:cc="http://creativecommons.org/ns#" xmlns:dc="http://purl.org/dc/elements/1.1/" xmlns:rdf="http://www.w3.org/1999/02/22-rdf-syntax-ns#">
	<defs>
		<style id="current-color-scheme" type="text/css">.ColorScheme-Text {color:#090d11;}.ColorScheme-Background{color:#ffffff;}</style>
	</defs>
	<metadata>
		<rdf:RDF>
			<cc:Work rdf:about="">
				<dc:format>image/svg+xml</dc:format>
				<dc:type rdf:resource="http://purl.org/dc/dcmitype/StillImage"/>
			</cc:Work>
		</rdf:RDF>
	</metadata>
	<g transform="translate(9379.3 -4835.2)">
		<path id="f" class="ColorScheme-Text" transform="translate(-9379.3 4835.2)" d="m6 4c-0.554 0-1 0.446-1 1v14c0 0.554 0.446 1 1 1h12c0.554 0 1-0.446 1-1v-14c0-0.554-0.446-1-1-1zm1.5 2h9c0.277 0 0.5 0.223 0.5 0.5s-0.223 0.5-0.5 0.5h-9c-0.277 0-0.5-0.223-0.5-0.5s0.223-0.5 0.5-0.5zm4.5 2c2.7614 0 5 2.2386 5 5s-2.2386 5-5 5-5-2.2386-5-5 2.2386-5 5-5zm0 3c-1.1046 0-2 0.8954-2 2s0.8954 2 2 2 2-0.8954 2-2-0.8954-2-2-2z" style="fill-opacity:.75;fill:currentColor"/>
		<path id="h" class="ColorScheme-Background" transform="translate(-9379.3 4835.2)" d="m6 3c-1.0907 0-2 0.9093-2 2v14c0 1.0907 0.9093 2 2 2h12c1.0907 0 2-0.9093 2-2v-14c0-1.0907-0.9093-2-2-2zm0 1h12c0.554 0 1 0.446 1 1v14c0 0.554-0.446 1-1 1h-12c-0.554 0-1-0.446-1-1v-14c0-0.554 0.446-1 1-1zm1.5 2c-0.277 0-0.5 0.223-0.5 0.5s0.223 0.5 0.5 0.5h9c0.277 0 0.5-0.223 0.5-0.5s-0.223-0.5-0.5-0.5zm4.5 2c-2.7614 0-5 2.2386-5 5s2.2386 5 5 5 5-2.2386 5-5-2.2386-5-5-5zm0 1.1875c2.1129 0 3.8125 1.6996 3.8125 3.8125s-1.6996 3.8125-3.8125 3.8125-3.8125-1.6996-3.8125-3.8125 1.6996-3.8125 3.8125-3.8125zm0 0.625c-1.7531 0-3.1875 1.4344-3.1875 3.1875s1.4344 3.1875 3.1875 3.1875 3.1875-1.4344 3.1875-3.1875-1.4344-3.1875-3.1875-3.1875zm0 1.1875c1.1046 0 2 0.8954 2 2s-0.8954 2-2 2-2-0.8954-2-2 0.8954-2 2-2z" style="fill-opacity:.5;fill:currentColor"/>
	</g>
</svg>
