<?xml version="1.0" encoding="UTF-8"?>
<svg id="a" width="32" height="32" version="1.1" xmlns="http://www.w3.org/2000/svg" xmlns:cc="http://creativecommons.org/ns#" xmlns:dc="http://purl.org/dc/elements/1.1/" xmlns:rdf="http://www.w3.org/1999/02/22-rdf-syntax-ns#">
	<metadata id="e">
		<rdf:RDF>
			<cc:Work rdf:about="">
				<dc:format>image/svg+xml</dc:format>
				<dc:type rdf:resource="http://purl.org/dc/dcmitype/StillImage"/>
				<dc:title/>
			</cc:Work>
		</rdf:RDF>
	</metadata>
	<defs>
		<style id="current-color-scheme" type="text/css">.ColorScheme-Text {color:#090d11;}.ColorScheme-Background{color:#ffffff;}</style>
	</defs>
	<path id="c" d="m4 3v1h1v-1zm2 0v22h-3v1h3v3h1v-3h22v-1h-1v-12h-5v12h-2v-7h-5v7h-2v-17h-5v17h-2v-22zm-2 2v1h1v-1zm0 2v1h1v-1zm0 2v1h1v-1zm6 0h3v16h-3zm-6 2v1h1v-1zm0 2v1h1v-1zm20 1h3v11h-3zm-20 1v1h1v-1zm0 2v1h1v-1zm0 2v1h1v-1zm13 0h3v6h-3zm-13 2v1h1v-1zm0 2v1h1v-1zm0 4v1h1v-1zm4 0v1h1v-1zm2 0v1h1v-1zm2 0v1h1v-1zm2 0v1h1v-1zm2 0v1h1v-1zm2 0v1h1v-1zm2 0v1h1v-1zm2 0v1h1v-1zm2 0v1h1v-1zm2 0v1h1v-1zm2 0v1h1v-1z" style="fill-opacity:.75;fill:currentColor" class="ColorScheme-Text"/>
	<path id="b" d="m3 4v1h1v-1zm2 0v22h-3v1h3v3h1v-3h22v-1h-1v-12h-3v12h-4v-7h-3v7h-4v-17h-3v17h-4v-22zm-2 2v1h1v-1zm0 2v1h1v-1zm0 2v1h1v-1zm8 0h1v16h-1zm-8 2v1h1v-1zm0 2v1h1v-1zm22 1h1v11h-1zm-22 1v1h1v-1zm0 2v1h1v-1zm0 2v1h1v-1zm15 0h1v6h-1zm-15 2v1h1v-1zm0 2v1h1v-1zm0 4v1h1v-1zm4 0v1h1v-1zm2 0v1h1v-1zm2 0v1h1v-1zm2 0v1h1v-1zm2 0v1h1v-1zm2 0v1h1v-1zm2 0v1h1v-1zm2 0v1h1v-1zm2 0v1h1v-1zm2 0v1h1v-1zm2 0v1h1v-1z" style="fill-opacity:.5;fill:currentColor" class="ColorScheme-Background"/>
</svg>
