<?xml version="1.0" encoding="UTF-8"?>
<!-- Created with Inkscape (http://www.inkscape.org/) -->
<svg width="22" height="22" version="1.1" xmlns="http://www.w3.org/2000/svg" xmlns:cc="http://creativecommons.org/ns#" xmlns:dc="http://purl.org/dc/elements/1.1/" xmlns:rdf="http://www.w3.org/1999/02/22-rdf-syntax-ns#">
	<defs>
		<style id="current-color-scheme" type="text/css">.ColorScheme-Text {color:#090d11;}.ColorScheme-Background{color:#ffffff;}</style>
	</defs>
	<metadata>
		<rdf:RDF>
			<cc:Work rdf:about="">
				<dc:format>image/svg+xml</dc:format>
				<dc:type rdf:resource="http://purl.org/dc/dcmitype/StillImage"/>
			</cc:Work>
		</rdf:RDF>
	</metadata>
	<path id="a" class="ColorScheme-Text" d="m7 2c-0.55401 0-1 0.44599-1 1v8c0 0.55401 0.44599 1 1 1h8c0.55401 0 1-0.44599 1-1v-8c0-0.55401-0.44599-1-1-1zm0.5 1h7c0.277 0 0.5 0.223 0.5 0.5s-0.223 0.5-0.5 0.5h-7c-0.277 0-0.5-0.223-0.5-0.5s0.223-0.5 0.5-0.5zm1.5 3h1v2h-1zm3 0h1v2h-1zm-7.498 2c-0.27614 0-0.5 0.22386-0.5 0.5v10c0 0.8224 0.6776 1.5 1.5 1.5h11c0.8223 0 1.5-0.6776 1.5-1.5v-10c0-0.27614-0.22386-0.5-0.5-0.5s-0.5 0.22386-0.5 0.5v10c0 0.2857-0.2144 0.5-0.5 0.5h-11c-0.2857 0-0.5-0.2143-0.5-0.5v-10c0-0.27614-0.22386-0.5-0.5-0.5z" fill="currentColor" fill-opacity=".75"/>
</svg>
