<?xml version="1.0" encoding="UTF-8"?>
<!-- Created with Inkscape (http://www.inkscape.org/) -->
<svg width="22" height="22" version="1.1" xmlns="http://www.w3.org/2000/svg" xmlns:cc="http://creativecommons.org/ns#" xmlns:dc="http://purl.org/dc/elements/1.1/" xmlns:rdf="http://www.w3.org/1999/02/22-rdf-syntax-ns#">
	<defs>
		<radialGradient id="a" cx="291.3" cy="-101.17" r="7.254" gradientTransform="matrix(1.5209,0,0,1.6065,-430.5,170)" gradientUnits="userSpaceOnUse">
			<stop stop-color="#213851" stop-opacity=".9059" offset="0"/>
			<stop stop-color="#27303a" stop-opacity="0" offset="1"/>
		</radialGradient>
		<radialGradient id="b" cx="12" cy="12" r="9.1875" gradientTransform="matrix(1.4796,0,0,1.4796,-5.8,-6.9)" gradientUnits="userSpaceOnUse">
			<stop stop-color="#ffffff" stop-opacity=".74858" offset="0"/>
			<stop stop-color="#ffffff" stop-opacity=".60511" offset="1"/>
		</radialGradient>
	</defs>
	<metadata>
		<rdf:RDF>
			<cc:Work rdf:about="">
				<dc:format>image/svg+xml</dc:format>
				<dc:type rdf:resource="http://purl.org/dc/dcmitype/StillImage"/>
				<dc:title/>
			</cc:Work>
		</rdf:RDF>
	</metadata>
	<path d="m10 3c-2.216 0-4 1.784-4 4v8c0 2.216 1.784 4 4 4h2c2.216 0 4-1.784 4-4v-8c0-2.216-1.784-4-4-4zm1 2c0.554 0 1 0.446 1 1v3c0 0.554-0.446 1-1 1s-1-0.446-1-1v-3c0-0.554 0.446-1 1-1z" color="#000000" fill="#090d11" fill-opacity=".76621" style="paint-order:normal"/>
	<path d="m10 3c-2.216 0-4 1.784-4 4v8c0 2.216 1.784 4 4 4h2c2.216 0 4-1.784 4-4v-8c0-2.216-1.784-4-4-4zm1 2c0.554 0 1 0.446 1 1v3c0 0.554-0.446 1-1 1s-1-0.446-1-1v-3c0-0.554 0.446-1 1-1z" color="#000000" fill="url(#a)" fill-opacity=".7533" style="paint-order:normal"/>
	<path d="m8.5 2c-1.7333 0.5211-3.0776 1.9539-3.5312 3.7187v10.688c0.4874 1.7178 1.8548 3.0904 3.5625 3.5938h4.875c1.7035-0.5004 3.0621-1.859 3.5625-3.5625v-10.875c-0.5034-1.7077-1.8761-3.0751-3.5938-3.5625zm1.4688 1h2c2.216 0 4 1.784 4 4v8c0 2.216-1.784 4-4 4h-2c-2.216 0-4-1.784-4-4v-8c0-2.216 1.784-4 4-4zm1 2c-0.554 0-1 0.446-1 1v3c0 0.554 0.446 1 1 1s1-0.446 1-1v-3c0-0.554-0.446-1-1-1z" color="#000000" fill="url(#b)" style="paint-order:normal;text-indent:0;text-transform:none"/>
</svg>
