<?xml version="1.0" encoding="UTF-8"?>
<!-- Created with Inkscape (http://www.inkscape.org/) -->
<svg width="48" height="48" version="1.1" xmlns="http://www.w3.org/2000/svg" xmlns:cc="http://creativecommons.org/ns#" xmlns:dc="http://purl.org/dc/elements/1.1/" xmlns:rdf="http://www.w3.org/1999/02/22-rdf-syntax-ns#">
	<metadata>
		<rdf:RDF>
			<cc:Work rdf:about="">
				<dc:format>image/svg+xml</dc:format>
				<dc:type rdf:resource="http://purl.org/dc/dcmitype/StillImage"/>
			</cc:Work>
		</rdf:RDF>
	</metadata>
	<defs>
		<style id="current-color-scheme" type="text/css">.ColorScheme-Text {
			color:#090d11;
			}</style>
		<style type="text/css">.ColorScheme-Text {color:#090d11;}.ColorScheme-Background{color:#ffffff;}</style>
	</defs>
	<path class="ColorScheme-Text" d="m34.5 5c-0.82235 0-1.5 0.67765-1.5 1.5v7c0 0.82235 0.67765 1.5 1.5 1.5h7c0.82235 0 1.5-0.67765 1.5-1.5v-7c0-0.82235-0.67765-1.5-1.5-1.5zm1 2h5c0.28565 0 0.5 0.21435 0.5 0.5v5c0 0.28565-0.21435 0.5-0.5 0.5h-5c-0.28565 0-0.5-0.21435-0.5-0.5v-5c0-0.28565 0.21435-0.5 0.5-0.5zm-26 1c-0.82235 0-1.5 0.67765-1.5 1.5v2c0 0.82235 0.67765 1.5 1.5 1.5h2c0.82235 0 1.5-0.67765 1.5-1.5v-2c0-0.82235-0.67765-1.5-1.5-1.5zm12 0c-0.82235 0-1.5 0.67765-1.5 1.5v4c0 0.82235 0.67765 1.5 1.5 1.5h5c0.82235 0 1.5-0.67765 1.5-1.5v-4c0-0.82235-0.67765-1.5-1.5-1.5zm-12 1h2c0.28565 0 0.5 0.21435 0.5 0.5v2c0 0.28565-0.21435 0.5-0.5 0.5h-2c-0.28565 0-0.5-0.21435-0.5-0.5v-2c0-0.28565 0.21435-0.5 0.5-0.5zm12 0h5c0.28565 0 0.5 0.21435 0.5 0.5v4c0 0.28565-0.21435 0.5-0.5 0.5h-5c-0.28565 0-0.5-0.21435-0.5-0.5v-4c0-0.28565 0.21435-0.5 0.5-0.5zm-1 10c-0.82235 0-1.5 0.67765-1.5 1.5v7c0 0.82235 0.67765 1.5 1.5 1.5h7c0.82235 0 1.5-0.67765 1.5-1.5v-7c0-0.82235-0.67765-1.5-1.5-1.5zm-11 1c-0.82235 0-1.5 0.67765-1.5 1.5v5c0 0.82235 0.67765 1.5 1.5 1.5h4c0.82235 0 1.5-0.67765 1.5-1.5v-5c0-0.82235-0.67765-1.5-1.5-1.5zm25 0c-0.82235 0-1.5 0.67765-1.5 1.5v5c0 0.82235 0.67765 1.5 1.5 1.5h4c0.82235 0 1.5-0.67765 1.5-1.5v-5c0-0.82235-0.67765-1.5-1.5-1.5zm-25 1h4c0.28565 0 0.5 0.21435 0.5 0.5v5c0 0.28565-0.21435 0.5-0.5 0.5h-4c-0.28565 0-0.5-0.21435-0.5-0.5v-5c0-0.28565 0.21435-0.5 0.5-0.5zm25 0h4c0.28565 0 0.5 0.21435 0.5 0.5v5c0 0.28565-0.21435 0.5-0.5 0.5h-4c-0.28565 0-0.5-0.21435-0.5-0.5v-5c0-0.28565 0.21435-0.5 0.5-0.5zm-28 12c-0.82235 0-1.5 0.67765-1.5 1.5v7c0 0.82235 0.67765 1.5 1.5 1.5h7c0.82235 0 1.5-0.67765 1.5-1.5v-7c0-0.82235-0.67765-1.5-1.5-1.5zm15 0c-0.82235 0-1.5 0.67765-1.5 1.5v4c0 0.82235 0.67765 1.5 1.5 1.5h5c0.82235 0 1.5-0.67765 1.5-1.5v-4c0-0.82235-0.67765-1.5-1.5-1.5zm0 1h5c0.28565 0 0.5 0.21435 0.5 0.5v4c0 0.28565-0.21435 0.5-0.5 0.5h-5c-0.28565 0-0.5-0.21435-0.5-0.5v-4c0-0.28565 0.21435-0.5 0.5-0.5zm-14 1h5c0.28565 0 0.5 0.21435 0.5 0.5v5c0 0.28565-0.21435 0.5-0.5 0.5h-5c-0.28565 0-0.5-0.21435-0.5-0.5v-5c0-0.28565 0.21435-0.5 0.5-0.5zm29 0c-0.82235 0-1.5 0.67765-1.5 1.5v2c0 0.82235 0.67765 1.5 1.5 1.5h2c0.82235 0 1.5-0.67765 1.5-1.5v-2c0-0.82235-0.67765-1.5-1.5-1.5zm0 1h2c0.28565 0 0.5 0.21435 0.5 0.5v2c0 0.28565-0.21435 0.5-0.5 0.5h-2c-0.28565 0-0.5-0.21435-0.5-0.5v-2c0-0.28565 0.21435-0.5 0.5-0.5z" style="fill-opacity:.75;fill:currentColor"/>
</svg>
