<?xml version="1.0" encoding="UTF-8"?>
<!-- Created with Inkscape (http://www.inkscape.org/) -->
<svg width="22" height="22" version="1.1" xmlns="http://www.w3.org/2000/svg" xmlns:cc="http://creativecommons.org/ns#" xmlns:dc="http://purl.org/dc/elements/1.1/" xmlns:rdf="http://www.w3.org/1999/02/22-rdf-syntax-ns#">
	<defs>
		<radialGradient id="b" cx="383" cy="526.33" r="7.0403" gradientTransform="matrix(2.8252,0,0,2.8405,-1069.1,-1478.2)" gradientUnits="userSpaceOnUse">
			<stop stop-color="#213851" stop-opacity=".9059" offset="0"/>
			<stop stop-color="#27303a" stop-opacity="0" offset="1"/>
		</radialGradient>
		<radialGradient id="a" cx="12" cy="20.871" r="10.055" gradientTransform="matrix(1.9913,0,0,2.2071,-13.895,-25.536)" gradientUnits="userSpaceOnUse">
			<stop stop-color="#ffffff" stop-opacity=".74858" offset="0"/>
			<stop stop-color="#ffffff" stop-opacity=".60511" offset="1"/>
		</radialGradient>
	</defs>
	<metadata>
		<rdf:RDF>
			<cc:Work rdf:about="">
				<dc:format>image/svg+xml</dc:format>
				<dc:type rdf:resource="http://purl.org/dc/dcmitype/StillImage"/>
				<dc:title/>
			</cc:Work>
		</rdf:RDF>
	</metadata>
	<path d="m4.373 2-0.048828 0.00977-0.45899 0.091797-0.082031 0.056641-0.060547 0.039063 0.37695 0.56054 0.060547 0.30469 0.31055-0.0625h0.51172v-1h-0.56055zm1.6094 0v1h1v-1zm2 0v1h1v-1zm2 0v1h1v-1zm2 0v1h1v-1zm2 0v1h1v-1zm2 0v1h1v-1zm2.2656 0.17773-0.55859 0.83008 0.18164 0.12109 0.08594 0.12891 0.04492 0.22852 0.98047-0.19727-0.06445-0.32617-0.01953-0.097656-0.05664-0.082031-0.19727-0.29297-0.05273-0.082031-0.08203-0.052734zm-15.248 1.2441v0.5957h1v-0.5957zm15 0.59961v1h1v-1zm-15 0.99609v1h1v-1zm15 1.0039v1h1v-1zm-15 0.99609v1h1v-1zm15 1.0039v1h1v-1zm-15 0.99609v1h1v-1zm15 1.0039v1h1v-1zm-15 0.99609v1h1v-1zm9 1.9824v7l7-7zm-9 0.01758v1h1v-1zm0 2v1h1v-1zm0 2v1h1v-1zm1.0273 1.7012-0.83008 0.55859 0.1582 0.23242 0.052734 0.08203 0.082031 0.05273 0.29297 0.19727 0.082031 0.05664 0.097656 0.01953 0.36133 0.07227 0.19531-0.98047-0.26172-0.05273-0.12891-0.08594zm0.95117 0.28125v1h1v-1zm2 0v1h1v-1zm2 0v1h1v-1z" color="#000000" color-rendering="auto" dominant-baseline="auto" fill="#090d11" fill-opacity=".76471" image-rendering="auto" shape-rendering="auto" solid-color="#000000" style="font-feature-settings:normal;font-variant-alternates:normal;font-variant-caps:normal;font-variant-ligatures:normal;font-variant-numeric:normal;font-variant-position:normal;isolation:auto;mix-blend-mode:normal;paint-order:normal;shape-padding:0;text-decoration-color:#000000;text-decoration-line:none;text-decoration-style:solid;text-indent:0;text-orientation:mixed;text-transform:none;white-space:normal"/>
	<path d="m4.373 2-0.048828 0.00977-0.45899 0.091797-0.082031 0.056641-0.060547 0.039062 0.37695 0.56055 0.060547 0.30469 0.31055-0.0625h0.51172v-1h-0.60938zm1.6094 0v1h1v-1zm2 0v1h1v-1zm2 0v1h1v-1zm2 0v1h1v-1zm2 0v1h1v-1zm2 0v1h1v-1zm2.2656 0.17773-0.55859 0.83008 0.18164 0.12109 0.08594 0.12891 0.04492 0.22852 0.98047-0.19727-0.06445-0.32617-0.01953-0.097656-0.05664-0.082031-0.19727-0.29297-0.05273-0.082031-0.08203-0.052734-0.26172-0.17773zm-15.248 1.2441v0.5957h1v-0.5957zm15 0.59961v1h1v-1zm-15 0.99609v1h1v-1zm15 1.0039v1h1v-1zm-15 0.99609v1h1v-1zm15 1.0039v1h1v-1zm-15 0.99609v1h1v-1zm15 1.0039v1h1v-1zm-15 0.99609v1h1v-1zm9 1.9824v7l7-7zm-9 0.01758v1h1v-1zm0 2v1h1v-1zm0 2v1h1v-1zm1.0273 1.7012-0.83008 0.55859 0.1582 0.23242 0.052734 0.08203 0.082031 0.05273 0.29297 0.19727 0.082031 0.05664 0.45899 0.09179 0.19531-0.98047-0.26172-0.05273-0.12891-0.08594-0.10156-0.15234zm0.95117 0.28125v1h1v-1zm2 0v1h1v-1zm2 0v1h1v-1z" color="#000000" color-rendering="auto" dominant-baseline="auto" fill="url(#b)" fill-opacity=".76471" image-rendering="auto" shape-rendering="auto" solid-color="#000000" style="font-feature-settings:normal;font-variant-alternates:normal;font-variant-caps:normal;font-variant-ligatures:normal;font-variant-numeric:normal;font-variant-position:normal;isolation:auto;mix-blend-mode:normal;paint-order:normal;shape-padding:0;text-decoration-color:#000000;text-decoration-line:none;text-decoration-style:solid;text-indent:0;text-orientation:mixed;text-transform:none;white-space:normal"/>
	<path d="m4.0176 1v1h1v-1zm2 0v1h1v-1zm2 0v1h1v-1zm2 0v1h1v-1zm2 0v1h1v-1zm2 0v1h1v-1zm2 0v1h1v-1zm1.9824 0v1h2c0-0.53915-0.43756-1-1-1zm-15.248 0.17773c-0.49501 0.2858-0.73438 0.64726-0.73438 1.1113l-0.017578 0.13281v0.59961h1v-0.54492l0.042969-0.21875 0.085937-0.12891 0.18164-0.12109zm16.248 1.8223v1h1v-1zm-17 1.0215v1h1v-1zm17 0.97852v1h1v-1zm-17 1.0215v1h1v-1zm17 0.97852v1h1v-1zm-17 1.0215v1h1v-1zm17 0.97852v1h1v-1zm-17 1.0215v1h1v-1zm10 1.9785c-0.61195 0-1 0.435-1 1v0.5h1v-0.5h0.80664v-1zm1.8066 0v1h1v-1zm2 0v1h1v-1zm2 0v1h1.2012l-0.2168 0.2168 0.70703 0.70703 0.07031-0.07031c0.54515-0.54514 0.64649-0.69422 0.64649-0.85352 0-0.39483-7.42e-4 -0.53004-0.22852-0.75781-0.22778-0.22778-0.50841-0.24219-0.77148-0.24219zm-15.807 0.02148v1h1v-1zm16.084 1.9023-0.70703 0.70703 0.70703 0.70703 0.70703-0.70703zm-16.084 0.09766v1h1v-1zm9 0.47852v1h1v-1zm5.6699 0.83789-0.70703 0.70703 0.70703 0.70703 0.70703-0.70703zm-14.67 0.68359v1h1v-1zm9 0.47852v0.5h1v-0.5zm4.2559 0.25195-0.70703 0.70703 0.70703 0.70703 0.70703-0.70703zm-13.256 1.2695v1h1v-1zm11.842 0.14453-0.70703 0.70703 0.70703 0.70703 0.70703-0.70703zm-1.4141 1.4141-0.41992 0.41992h-0.98633v1h1.1934c0.15992 0 0.27803-0.071 0.35352-0.14648l0.56641-0.56641zm-9.3984 0.14258-0.82812 0.55859 0.1543 0.22852 0.052734 0.08203 0.082031 0.05273 0.29297 0.19727 0.082031 0.05664 0.097656 0.01953 0.36133 0.07227 0.048828-0.0039 0.048829 0.01367h0.59961v-1h-0.55078l-0.21289-0.04297-0.12891-0.08594zm1.9922 0.27734v1h1v-1zm2 0v1h1v-1zm2 0v1h1v-1z" color="#000000" color-rendering="auto" dominant-baseline="auto" fill="url(#a)" fill-opacity=".76471" image-rendering="auto" shape-rendering="auto" solid-color="#000000" style="font-feature-settings:normal;font-variant-alternates:normal;font-variant-caps:normal;font-variant-ligatures:normal;font-variant-numeric:normal;font-variant-position:normal;isolation:auto;mix-blend-mode:normal;paint-order:normal;shape-padding:0;text-decoration-color:#000000;text-decoration-line:none;text-decoration-style:solid;text-indent:0;text-orientation:mixed;text-transform:none;white-space:normal"/>
</svg>
