<?xml version="1.0" encoding="UTF-8"?>
<!-- Created with Inkscape (http://www.inkscape.org/) -->
<svg width="64" height="64" version="1.1" xmlns="http://www.w3.org/2000/svg" xmlns:cc="http://creativecommons.org/ns#" xmlns:dc="http://purl.org/dc/elements/1.1/" xmlns:rdf="http://www.w3.org/1999/02/22-rdf-syntax-ns#" xmlns:xlink="http://www.w3.org/1999/xlink">
	<defs>
		<radialGradient id="a" cx="46" cy="44.183" r="32" gradientTransform="matrix(1 0 0 .98438 0 .50781)" gradientUnits="userSpaceOnUse">
			<stop stop-color="#3a7527" offset="0"/>
			<stop stop-color="#4ba330" offset="1"/>
		</radialGradient>
	</defs>
	<metadata>
		<rdf:RDF>
			<cc:Work rdf:about="">
				<dc:format>image/svg+xml</dc:format>
				<dc:type rdf:resource="http://purl.org/dc/dcmitype/StillImage"/>
				<dc:title/>
			</cc:Work>
		</rdf:RDF>
	</metadata>
	<path d="m0 1v33 28l2 2h30 30l2-2v-28-33z" color="#000000" fill="url(#a)"/>
	<path d="m2 0-2 1v1h64v-1l-2-1z" color="#000000" fill="#7ee05c"/>
	<path d="m64 4-2-2 2-1z" fill="#6bbf44"/>
	<path d="m0 1v3l2-2z" fill="#b1f86d"/>
	<g transform="matrix(.13652 0 0 .13652 33 18.512)" fill="#daeac0">
		<path d="m-55.489-62.482c-0.39219 0.0422-0.73848 0.1481-1.0768 0.33562-1.4276 0.79134-1.9052 2.4408-1.1187 3.8596l14.096 25.437a88.948 82.106 0 0 0-45.364 71.417h177.91a88.948 82.106 0 0 0-45.392-71.375l14.124-25.479c0.78648-1.4189 0.30889-3.0683-1.1187-3.8596-0.3383-0.18752-0.68459-0.29342-1.0768-0.33562-1.088-0.11707-2.1732 0.37969-2.7689 1.4543l-14.264 25.731a88.948 82.106 0 0 0-38.456-8.1388 88.948 82.106 0 0 0-38.428 8.1667l-14.292-25.759c-0.59569-1.0747-1.6809-1.5714-2.7689-1.4543zm14.166 57.167a3.9098 3.9098 0 0 1 0.2657 0 3.9098 3.9098 0 0 1 3.9156 3.9016 3.9098 3.9098 0 0 1-3.9156 3.9156 3.9098 3.9098 0 0 1-3.9016-3.9156 3.9098 3.9098 0 0 1 3.6359-3.9016zm82.101 0a3.9098 3.9098 0 0 1 0.27969 0 3.9098 3.9098 0 0 1 3.9016 3.9016 3.9098 3.9098 0 0 1-3.9016 3.9156 3.9098 3.9098 0 0 1-3.9156-3.9156 3.9098 3.9098 0 0 1 3.6359-3.9016zm-157.1 47.504c-11.106 2.1e-5 -19.927 8.8324-19.927 19.941v83.08c0 11.109 8.8184 19.927 19.927 19.927s19.941-8.821 19.941-19.927v-83.08c0-11.106-8.8349-19.941-19.941-19.941zm232.64 0c-11.106 1.4e-5 -19.941 8.8349-19.941 19.941v83.08c0 11.106 8.8324 19.927 19.941 19.927s19.927-8.8184 19.927-19.927v-83.08c0-11.109-8.821-19.941-19.927-19.941zm-205.27 3.4121v128.93c0 11.913 9.5944 21.494 21.508 21.494h14.278v43.994c0 11.106 8.8324 19.927 19.941 19.927s19.927-8.8184 19.927-19.927v-43.994h26.598v43.994c0 11.109 8.8184 19.927 19.927 19.927s19.941-8.821 19.941-19.927v-43.994h14.278c11.913 0 21.508-9.5804 21.508-21.494v-128.93z" fill="#daeac0"/>
	</g>
</svg>
