<?xml version="1.0" encoding="UTF-8"?>
<!-- Created with Inkscape (http://www.inkscape.org/) -->
<svg width="64" height="64" version="1.1" xmlns="http://www.w3.org/2000/svg" xmlns:cc="http://creativecommons.org/ns#" xmlns:dc="http://purl.org/dc/elements/1.1/" xmlns:rdf="http://www.w3.org/1999/02/22-rdf-syntax-ns#" xmlns:xlink="http://www.w3.org/1999/xlink">
	<defs>
		<radialGradient id="c" cx="46.451" cy="46.991" r="32" gradientTransform="matrix(-8.1823 -8.1823 1.9333 -1.9333 415.32 595.91)" gradientUnits="userSpaceOnUse">
			<stop stop-color="#20c6ff" offset="0"/>
			<stop stop-color="#0544db" stop-opacity=".9098" offset=".5333"/>
			<stop stop-color="#390080" stop-opacity="0" offset="1"/>
		</radialGradient>
		<radialGradient id="b" cx="43.98" cy="25.634" r="22.437" gradientTransform="matrix(0 2.0471 -1.9588 0 97.297 -65.569)" gradientUnits="userSpaceOnUse">
			<stop stop-color="#4fc5d9" offset="0"/>
			<stop stop-color="#60fffd" stop-opacity="0" offset="1"/>
		</radialGradient>
		<radialGradient id="a" cx="48.489" cy="34.2" r="18.588" gradientTransform="matrix(0 1.276 -1.4743 0 94.76 -30.803)" gradientUnits="userSpaceOnUse">
			<stop stop-color="#3a00b1" stop-opacity=".25019" offset="0"/>
			<stop stop-color="#1d00ad" stop-opacity="0" offset="1"/>
		</radialGradient>
		<linearGradient id="d" x1="49.151" x2="27.416" y1="43.549" y2="21.814" gradientUnits="userSpaceOnUse">
			<stop stop-color="#bbe9fa" offset="0"/>
			<stop stop-color="#d6f2f1" offset="1"/>
		</linearGradient>
	</defs>
	<metadata>
		<rdf:RDF>
			<cc:Work rdf:about="">
				<dc:format>image/svg+xml</dc:format>
				<dc:type rdf:resource="http://purl.org/dc/dcmitype/StillImage"/>
				<dc:title/>
			</cc:Work>
		</rdf:RDF>
	</metadata>
	<path d="m0 2v60l2 2h60l2-2v-60h-32z" color="#000000" fill="#2d3f57"/>
	<path d="m0 2v60l2 2h60l2-2v-60h-32z" color="#000000" fill="url(#c)"/>
	<path d="m2 0-2 1v1h64v-1l-2-1h-30z" color="#000000" fill="#5ecaff"/>
	<path d="m0 1v3l2-2z" fill="#6fe6ff"/>
	<path d="m64 4-2-2 2-1z" fill="#388ce8"/>
	<g transform="matrix(.99911 0 0 1 -2.8789e-8 -.028147)" stroke-width="1.0004">
		<g fill="#00ffcc" opacity=".349" shape-rendering="auto" stroke-width="1.0009">
			<path d="m21.258 2c-0.15328 6.3213-0.31055 12.854-0.31055 12.854-0.07939 3.303-1.8072 6.3328-4.6113 8.084-0.063563 0.039671-11.218 7.0015-16.336 10.195v11.215c4.641 1.6328 18.488 6.5039 18.488 6.5039 3.1187 1.0983 5.4641 3.6784 6.2617 6.8848v2e-3 2e-3c0.01209 0.048436 1.5605 6.2597 1.5605 6.2597h8.7891c-0.01608-0.06452-2.0723-8.3223-2.0723-8.3223v-2e-3c-1.488-5.9809-5.8931-10.822-11.707-12.869l-13.246-4.6602 12.779-7.9746c5.2279-3.2651 8.4714-8.9518 8.6191-15.113 0.00242-0.10123 0.27759-11.383 0.31836-13.059zm9.7168 0c1.9278 1.6189 10.377 8.7148 10.377 8.7148h2e-3 2e-3c4.7208 3.9597 11.129 5.2844 17.033 3.5234l5.6112-1.6738v-8.8984l-8.0488 2.3984c-3.168 0.94532-6.583 0.23923-9.1152-1.8848v0.00195l-2.5996-2.1816h-12.236zm28.93 49.932c-5.7349-0.0396-11.197 2.6163-14.705 7.207l-3.7188 4.8613h10.771c2.0141-2.4153 5.0484-3.737 8.2051-3.5176l3.543 0.25v-8.5508l-2.9453-0.20508c-0.38406-0.0268-0.76825-0.04228-1.1504-0.04492z" color="#000000" color-rendering="auto" dominant-baseline="auto" fill-opacity=".0039216" image-rendering="auto" opacity="1" solid-color="#000000" style="font-feature-settings:normal;font-variant-alternates:normal;font-variant-caps:normal;font-variant-ligatures:normal;font-variant-numeric:normal;font-variant-position:normal;isolation:auto;mix-blend-mode:normal;paint-order:normal;shape-padding:0;text-decoration-color:#000000;text-decoration-line:none;text-decoration-style:solid;text-indent:0;text-orientation:mixed;text-transform:none;white-space:normal"/>
			<path d="m27.93 2c-0.05059 0.22694-0.0819 0.4621-0.08789 0.70312-0.0011 0.044264-0.47266 19.482-0.47266 19.482-0.06748 2.8104-1.536 5.387-3.9219 6.877v2e-3l-17.273 10.779c-1.1827 0.73836-1.8381 2.0887-1.6855 3.4746 0.1527 1.3858 1.0854 2.5621 2.4004 3.0254 0.083231 0.02928 18.389 6.4707 18.389 6.4707 2.6536 0.93444 4.6495 3.1293 5.3281 5.8574v2e-3c6e-3 0.024063 1.3281 5.3261 1.3281 5.3261h7.4785c-8e-3 -0.03205-1.7656-7.082-1.7656-7.082-1.266-5.0888-5.0142-9.2074-9.9609-10.949-0.03635-0.01279-11.268-3.9668-11.268-3.9668 0.03507-0.02188 10.871-6.7832 10.871-6.7832 4.4482-2.778 7.2083-7.6169 7.334-12.859 0.0013-0.05404 0.29102-11.939 0.29102-11.939l9.8164 8.2441h2e-3 2e-3c4.0165 3.3688 9.4685 4.4943 14.492 2.9961 0.030456-0.0091 4.7733-1.4238 4.7733-1.4238v-7.5703c-0.02208 0.0066-6.8477 2.041-6.8477 2.041-2.6953 0.80412-5.6015 0.20354-7.7559-1.6035v2e-3h-2e-3c-0.042614-0.035871-9.8339-8.2555-13.228-11.106h-4.166zm32.586 51.732c-2.8493-0.01967-5.5639 1.2993-7.3066 3.5801-2.0301-0.0139-3.9634 0.9257-5.2051 2.5508l-1.8477 2.416c-0.02026 0.02647-1.3164 1.7207-1.3164 1.7207h9.1641c1.0007-1.2001 2.5098-1.857 4.0781-1.748 0.71302-0.85484 1.7869-1.3218 2.9043-1.2441l1.7598 0.12305c0.01929 0.0014 1.2539 0.089844 1.2539 0.089844v-4.248-3.0273l-1.4629-0.10156c-0.01613-0.0011-1.0429-0.07422-1.043-0.07422-0.19081-0.01331-0.38046-0.02017-0.57031-0.02148-0.13603-0.0095-0.27286-0.0147-0.4082-0.01563z" color="#000000" color-rendering="auto" dominant-baseline="auto" fill-opacity=".030339" image-rendering="auto" opacity="1" solid-color="#000000" style="font-feature-settings:normal;font-variant-alternates:normal;font-variant-caps:normal;font-variant-ligatures:normal;font-variant-numeric:normal;font-variant-position:normal;isolation:auto;mix-blend-mode:normal;paint-order:normal;shape-padding:0;text-decoration-color:#000000;text-decoration-line:none;text-decoration-style:solid;text-indent:0;text-orientation:mixed;text-transform:none;white-space:normal"/>
			<path d="m32.312 0.85538c-1.9151 0.003341-3.479 1.5316-3.5266 3.4461 0 0-1e-6 3.69e-5 -3e-6 1.105e-4 -9.12e-4 0.037597-0.46008 18.974-0.46008 18.974-2e-6 8.6e-5 -4e-6 1.71e-4 -6e-6 2.56e-4 -0.06571 2.7371-1.4973 5.2475-3.821 6.6986 0 0-3.3e-5 2.1e-5 -9.8e-5 6.1e-5 -0.03334 0.0208-16.823 10.499-16.823 10.499-7.16e-5 4.4e-5 -1.432e-4 8.9e-5 -2.148e-4 1.34e-4 -1.1518 0.7191-1.7898 2.0346-1.6412 3.3844 9.2e-6 8.4e-5 1.84e-5 1.68e-4 2.77e-5 2.52e-4 0.1487 1.3497 1.0576 2.4949 2.3384 2.9461 0 0 1.392e-4 4.9e-5 4.164e-4 1.47e-4 0.070696 0.02487 17.908 6.3007 17.908 6.3007 8e-5 2.9e-5 1.61e-4 5.7e-5 2.41e-4 8.5e-5 2.5844 0.91007 4.5286 3.0479 5.1895 5.705v3.06e-4 0.0021l3e-5 1.2e-4c0.0051 0.02048 1.2928 5.1873 1.2928 5.1873h1.7e-4 7.283s-1.3e-5 -5.4e-5 -4e-5 -1.61e-4c-0.0068-0.02723-1.7184-6.8966-1.7184-6.8966l-5.7e-5 -2.31e-4c-1.233-4.9562-4.8831-8.9682-9.7009-10.665 0 0-8.3e-5 -2.9e-5 -2.46e-4 -8.6e-5 -0.04175-0.01469-10.975-3.8623-10.975-3.8623s7.9e-5 -4.9e-5 2.37e-4 -1.48e-4c0.04028-0.02513 10.589-6.6067 10.589-6.6067 6.8e-5 -4.3e-5 1.35e-4 -8.5e-5 2.02e-4 -1.27e-4 4.3322-2.7056 7.0202-7.4177 7.1426-12.523 0 0 3e-6 -9e-5 7e-6 -2.7e-4 0.0011-0.04591 0.28295-11.628 0.28295-11.628s7.4e-5 6.3e-5 2.22e-4 1.87e-4c0.03774 0.03169 9.5604 8.0283 9.5604 8.0283h3.06e-4 0.0021c1.17e-4 9.8e-5 2.35e-4 1.96e-4 3.52e-4 2.95e-4 3.9118 3.2809 9.2224 4.3781 14.115 2.919 0 0 1.4e-4 -4.1e-5 4.16e-4 -1.24e-4 0.03509-0.01047 4.6487-1.387 4.6487-1.387v-1.65e-4 -7.3727s-5e-5 1.5e-5 -1.49e-4 4.5e-5c-0.02537 0.0076-6.6688 1.9875-6.6688 1.9875-1.57e-4 4.7e-5 -3.14e-4 9.4e-5 -4.72e-4 1.41e-4 -2.625 0.78312-5.4559 0.19779-7.5542-1.5621v5.78e-4 0.0018s-1.14e-4 -9.5e-5 -3.4e-4 -2.85e-4c-0.05777-0.04851-15.187-12.751-15.187-12.751-7.7e-5 -6.41e-5 -1.53e-4 -1.282e-4 -2.3e-4 -1.923e-4 -0.63809-0.5349-1.4446-0.82731-2.2772-0.82566m13.886 26.08m14.41 27.064c-2.4202-0.01671-4.7256 1.104-6.2059 3.0412-2.3319-0.01597-4.5532 1.064-5.9795 2.9307 0 0-1.5699 2.0514-1.5701 2.0517-0.02327 0.03041-1.5125 1.9764-1.5125 1.9764h4.5457 4.38c0.85004-1.0194 2.1311-1.5771 3.4633-1.4847 0.81904-0.98195 2.0533-1.5192 3.3368-1.43 0 0 1.4949 0.10544 1.4951 0.10545 0.02216 0.0016 1.4402 0.10158 1.4402 0.10158v-3.6084-3.4769s-1.243-0.0867-1.2432-0.08671c-0.0185-0.0013-1.1977-0.08354-1.1978-0.08354-0.16207-0.01131-0.32351-0.01761-0.48477-0.01873-0.15626-0.01091-0.3119-0.01699-0.46737-0.01806" color="#000000" color-rendering="auto" dominant-baseline="auto" fill-opacity=".034267" image-rendering="auto" opacity="1" solid-color="#000000" style="font-feature-settings:normal;font-variant-alternates:normal;font-variant-caps:normal;font-variant-ligatures:normal;font-variant-numeric:normal;font-variant-position:normal;isolation:auto;mix-blend-mode:normal;paint-order:normal;shape-padding:0;text-decoration-color:#000000;text-decoration-line:none;text-decoration-style:solid;text-indent:0;text-orientation:mixed;text-transform:none;white-space:normal"/>
			<path d="m32.865 1.9584c-1.8816 0.00328-3.4182 1.5048-3.465 3.3859 0 0-1e-6 3.26e-5 -2e-6 9.76e-5 -8.06e-4 0.033247-0.45205 18.642-0.45205 18.642-2e-6 7.6e-5 -3e-6 1.51e-4 -5e-6 2.26e-4 -0.06455 2.6893-1.4712 5.1558-3.7543 6.5816l-8.7e-5 5.4e-5c-0.02948 0.0184-16.529 10.316-16.529 10.316-6.33e-5 4e-5 -1.267e-4 8e-5 -1.9e-4 1.19e-4 -1.1317 0.70654-1.7585 1.9991-1.6125 3.3252 8.2e-6 7.5e-5 1.64e-5 1.49e-4 2.46e-5 2.23e-4 0.1461 1.3262 1.0392 2.4513 2.2976 2.8946 0 0 1.23e-4 4.3e-5 3.682e-4 1.29e-4 0.062516 0.022 17.596 6.1907 17.596 6.1907l2.13e-4 7.5e-5c2.5393 0.89417 4.4495 2.9947 5.0989 5.6053v2.71e-4 0.0021s9e-6 3.6e-5 2.7e-5 1.07e-4c0.0045 0.01811 1.2702 5.0967 1.2702 5.0967h1.5e-4 7.1558s-1.2e-5 -4.7e-5 -3.6e-5 -1.42e-4c-6e-3 -0.02407-1.6884-6.7761-1.6884-6.7761-1.7e-5 -6.8e-5 -3.4e-5 -1.36e-4 -5e-5 -2.04e-4 -1.2114-4.8696-4.7978-8.8116-9.5314-10.478 0 0-8.9e-5 -3.2e-5 -2.66e-4 -9.4e-5 -0.04528-0.01593-10.783-3.7949-10.783-3.7949s8.6e-5 -5.3e-5 2.57e-4 -1.6e-4c0.04368-0.02726 10.404-6.4913 10.404-6.4913 5.9e-5 -3.7e-5 1.19e-4 -7.4e-5 1.78e-4 -1.11e-4 4.2565-2.6583 6.8976-7.2881 7.0179-12.305 0 0 2e-6 -8e-5 5e-6 -2.39e-4 9.88e-4 -0.04059 0.27801-11.425 0.27801-11.425s6.6e-5 5.5e-5 1.97e-4 1.65e-4c0.03337 0.02803 9.3934 7.8881 9.3934 7.8881h2.7e-4 0.0021c1.27e-4 1.06e-4 2.54e-4 2.13e-4 3.81e-4 3.19e-4 3.8435 3.2236 9.0613 4.3016 13.869 2.8679 0 0 1.51e-4 -4.5e-5 4.5e-4 -1.34e-4 0.03806-0.01136 4.5675-1.3628 4.5675-1.3628v-1.79e-4 -7.2439s-5.4e-5 1.7e-5 -1.62e-4 4.9e-5c-0.02751 0.0082-6.5523 1.9528-6.5523 1.9528-1.71e-4 5.1e-5 -3.41e-4 1.02e-4 -5.12e-4 1.53e-4 -2.5791 0.76942-5.3606 0.19431-7.4221-1.5349v6.27e-4 0.0017s-1.23e-4 -1.04e-4 -3.69e-4 -3.1e-4c-0.06265-0.0526-14.922-12.528-14.922-12.528l-2.49e-4 -2.085e-4c-0.62694-0.52554-1.4193-0.81284-2.2374-0.81122m15.059 28.283m12.742 23.933c-2.1402-0.01478-4.1789 0.97624-5.488 2.6894-2.5289-0.01732-4.9378 1.1538-6.4846 3.1782 0 0-1.3883 1.8141-1.3885 1.8144-0.02523 0.03297-1.6402 2.1433-1.6402 2.1433h4.0198 4.75c0.75171-0.90144 1.8846-1.3947 3.0626-1.313 0.88822-1.0649 2.2267-1.6475 3.6187-1.5508 0 0 1.322 0.09324 1.3222 0.09326 0.02403 0.0017 1.5619 0.11017 1.5619 0.11017v-3.1909-3.7706s-1.0992-0.07667-1.0994-0.07668c-0.02005-0.0014-1.2989-0.09059-1.2989-0.0906-0.14332-0.01-0.28608-0.01558-0.42868-0.01656-0.16946-0.01183-0.33825-0.01842-0.50685-0.01959" color="#000000" color-rendering="auto" dominant-baseline="auto" fill-opacity=".03683" image-rendering="auto" opacity="1" solid-color="#000000" style="font-feature-settings:normal;font-variant-alternates:normal;font-variant-caps:normal;font-variant-ligatures:normal;font-variant-numeric:normal;font-variant-position:normal;isolation:auto;mix-blend-mode:normal;paint-order:normal;shape-padding:0;text-decoration-color:#000000;text-decoration-line:none;text-decoration-style:solid;text-indent:0;text-orientation:mixed;text-transform:none;white-space:normal"/>
			<path d="m33.286 2.7971c-1.8562 0.00324-3.372 1.4845-3.4181 3.3401 0 0-1e-6 2.94e-5 -2e-6 8.8e-5 -7.26e-4 0.02994-0.44594 18.39-0.44594 18.39-1e-6 6.8e-5 -3e-6 1.36e-4 -5e-6 2.04e-4 -0.06367 2.653-1.4513 5.0861-3.7035 6.4927 0 0-2.6e-5 1.6e-5 -7.8e-5 4.9e-5 -0.02654 0.01657-16.306 10.176-16.306 10.176-5.71e-5 3.5e-5 -1.141e-4 7.1e-5 -1.711e-4 1.07e-4 -1.1165 0.69698-1.7348 1.9721-1.5907 3.2803 7.4e-6 6.7e-5 1.47e-5 1.34e-4 2.21e-5 2.01e-4 0.14412 1.3082 1.0251 2.4182 2.2665 2.8555 0 0 1.11e-4 3.9e-5 3.32e-4 1.17e-4 0.0563 0.01981 17.358 6.107 17.358 6.107 6.4e-5 2.3e-5 1.28e-4 4.5e-5 1.92e-4 6.8e-5 2.5049 0.88208 4.3894 2.9542 5.03 5.5296v2.44e-4 0.0021s8e-6 3.3e-5 2.4e-5 9.6e-5c0.0041 0.01631 1.2531 5.0278 1.2531 5.0278h1.35e-4 7.0591s-1e-5 -4.3e-5 -3.2e-5 -1.28e-4c-0.0054-0.02168-1.6656-6.6845-1.6656-6.6845-1.5e-5 -6.1e-5 -3e-5 -1.22e-4 -4.5e-5 -1.84e-4 -1.195-4.8038-4.733-8.6925-9.4026-10.337l-2.82e-4 -9.9e-5c-0.04796-0.01688-10.638-3.7436-10.638-3.7436s9.1e-5 -5.7e-5 2.73e-4 -1.7e-4c0.04627-0.02887 10.263-6.4035 10.263-6.4035 5.3e-5 -3.3e-5 1.07e-4 -6.7e-5 1.61e-4 -1e-4 4.199-2.6224 6.8044-7.1896 6.923-12.138 0 0 2e-6 -7.2e-5 5e-6 -2.15e-4 8.9e-4 -0.03655 0.27425-11.271 0.27425-11.271s6e-5 5e-5 1.77e-4 1.49e-4c0.03005 0.02524 9.2664 7.7815 9.2664 7.7815h2.44e-4 0.0021c1.35e-4 1.13e-4 2.7e-4 2.25e-4 4.04e-4 3.38e-4 3.7915 3.18 8.9388 4.2434 13.681 2.8291 0 0 1.6e-4 -4.8e-5 4.78e-4 -1.42e-4 0.04031-0.01203 4.5057-1.3444 4.5057-1.3444v-1.9e-4 -7.146l-1.71e-4 5.1e-5c-0.02914 0.0087-6.4637 1.9264-6.4637 1.9264-1.8e-4 5.4e-5 -3.61e-4 1.08e-4 -5.42e-4 1.62e-4 -2.5443 0.759-5.2881 0.19166-7.3218-1.5141v6.64e-4 0.0016s-1.31e-4 -1.1e-4 -3.91e-4 -3.28e-4c-0.066406-0.05574-14.72-12.359-14.72-12.359-8.8e-5 -7.37e-5 -1.75e-4 -1.473e-4 -2.63e-4 -2.209e-4 -0.61846-0.51843-1.4001-0.80184-2.2071-0.80024m15.951 29.958m11.475 21.552c-1.9273-0.01331-3.7632 0.87912-4.9421 2.4218-2.6787-0.01834-5.2302 1.2222-6.8686 3.3665 0 0-1.2502 1.6337-1.2504 1.6339-0.02673 0.03493-1.7374 2.2703-1.7374 2.2703h3.6199 5.0313c0.67694-0.81178 1.6971-1.256 2.758-1.1824 0.94083-1.128 2.3586-1.7451 3.833-1.6426 0 0 1.1905 0.08397 1.1907 0.08398 0.02545 0.0018 1.6544 0.11669 1.6544 0.11669v-2.8735-3.9939s-0.9899-0.06904-0.99006-0.06905c-0.02123-0.0015-1.3758-0.09595-1.3758-0.09596-0.12906-9e-3 -0.25762-0.01403-0.38603-0.01491-0.17949-0.01253-0.35828-0.01951-0.53687-0.02075" color="#000000" color-rendering="auto" dominant-baseline="auto" fill-opacity=".038779" image-rendering="auto" opacity="1" solid-color="#000000" style="font-feature-settings:normal;font-variant-alternates:normal;font-variant-caps:normal;font-variant-ligatures:normal;font-variant-numeric:normal;font-variant-position:normal;isolation:auto;mix-blend-mode:normal;paint-order:normal;shape-padding:0;text-decoration-color:#000000;text-decoration-line:none;text-decoration-style:solid;text-indent:0;text-orientation:mixed;text-transform:none;white-space:normal"/>
			<path d="m33.629 3.4816c-1.8354 0.0032-3.3343 1.4679-3.3799 3.3027 0 0 0 2.67e-5 -2e-6 8e-5 -6.6e-4 0.02724-0.44095 18.185-0.44095 18.185-2e-6 6.1e-5 -3e-6 1.23e-4 -5e-6 1.85e-4 -0.06296 2.6233-1.435 5.0293-3.6621 6.4201 0 0-2.4e-5 1.5e-5 -7.1e-5 4.5e-5 -0.02415 0.01507-16.123 10.062-16.123 10.062-5.2e-5 3.3e-5 -1.03e-4 6.5e-5 -1.55e-4 9.7e-5 -1.104 0.68919-1.7154 1.95-1.573 3.2436l2.01e-5 1.83e-4c0.1425 1.2936 1.0136 2.3912 2.2411 2.8236 0 0 1.01e-4 3.6e-5 3.01e-4 1.06e-4 0.05122 0.01802 17.164 6.0387 17.164 6.0387 5.8e-5 2.1e-5 1.17e-4 4.1e-5 1.75e-4 6.2e-5 2.4769 0.87221 4.3403 2.9212 4.9738 5.4677v2.22e-4 0.0021s7e-6 2.9e-5 2.2e-5 8.7e-5c0.0037 0.01484 1.2391 4.9716 1.2391 4.9716h1.23e-4 6.9801s-1e-5 -3.9e-5 -2.9e-5 -1.17e-4c-0.0049-0.01973-1.6469-6.6098-1.6469-6.6098-1.4e-5 -5.6e-5 -2.8e-5 -1.12e-4 -4.2e-5 -1.67e-4 -1.1817-4.75-4.68-8.5953-9.2974-10.221 0 0-9.9e-5 -3.5e-5 -2.96e-4 -1.04e-4 -0.05015-0.01765-10.519-3.7017-10.519-3.7017s9.6e-5 -5.9e-5 2.85e-4 -1.78e-4c0.04838-0.03019 10.148-6.3319 10.148-6.3319 4.9e-5 -3.1e-5 9.8e-5 -6.1e-5 1.47e-4 -9.2e-5 4.152-2.593 6.7283-7.1092 6.8456-12.003 0 0 2e-6 -6.5e-5 5e-6 -1.96e-4 8.09e-4 -0.03326 0.27118-11.145 0.27118-11.145s5.4e-5 4.5e-5 1.61e-4 1.35e-4c0.02734 0.02296 9.1628 7.6945 9.1628 7.6945h2.22e-4 0.0021c1.41e-4 1.18e-4 2.82e-4 2.36e-4 4.22e-4 3.54e-4 3.7491 3.1444 8.8388 4.1959 13.528 2.7975 0 0 1.67e-4 -5e-5 4.99e-4 -1.49e-4 0.04215-0.01258 4.4553-1.3293 4.4553-1.3293v-1.98e-4 -7.066l-1.8e-4 5.4e-5c-0.03047 0.0091-6.3914 1.9049-6.3914 1.9049-1.89e-4 5.6e-5 -3.78e-4 1.13e-4 -5.67e-4 1.69e-4 -2.5158 0.7505-5.2289 0.1895-7.2399-1.4972v6.94e-4 0.0016s-1.37e-4 -1.15e-4 -4.09e-4 -3.43e-4c-0.06939-0.05826-14.555-12.221-14.555-12.221l-2.76e-4 -2.31e-4c-0.61154-0.51262-1.3845-0.79286-2.1824-0.79128m16.678 31.326m10.44 19.609c-1.7536-0.01211-3.4239 0.79985-4.4965 2.2034-2.801-0.01918-5.4689 1.2779-7.1821 3.5201 0 0-1.1375 1.4864-1.1377 1.4866-0.02795 0.03652-1.8167 2.3739-1.8167 2.3739h3.2935 5.2609c0.61592-0.7386 1.5441-1.1428 2.5094-1.0758 0.98377-1.1794 2.4663-1.8248 4.0079-1.7176 0 0 1.0832 0.0764 1.0834 0.07641 0.02661 0.0019 1.7299 0.12202 1.7299 0.12202v-2.6144-4.1762s-0.90064-0.06282-0.90082-0.06283c-0.02219-0.0015-1.4385-0.10033-1.4386-0.10034-0.11742-0.0082-0.23439-0.01276-0.35122-0.01357-0.18768-0.0131-0.37463-0.0204-0.56137-0.0217" color="#000000" color-rendering="auto" dominant-baseline="auto" fill-opacity=".04037" image-rendering="auto" opacity="1" solid-color="#000000" style="font-feature-settings:normal;font-variant-alternates:normal;font-variant-caps:normal;font-variant-ligatures:normal;font-variant-numeric:normal;font-variant-position:normal;isolation:auto;mix-blend-mode:normal;paint-order:normal;shape-padding:0;text-decoration-color:#000000;text-decoration-line:none;text-decoration-style:solid;text-indent:0;text-orientation:mixed;text-transform:none;white-space:normal"/>
			<path d="m33.922 4.0641c-1.8178 0.00317-3.3022 1.4537-3.3474 3.2709 0 0-1e-6 2.44e-5 -2e-6 7.32e-5 -6.05e-4 0.024943-0.4367 18.01-0.4367 18.01-1e-6 5.6e-5 -2e-6 1.13e-4 -4e-6 1.69e-4 -0.06235 2.5981-1.4212 4.9809-3.6268 6.3583 0 0-2.2e-5 1.4e-5 -6.5e-5 4.1e-5 -0.02212 0.0138-15.968 9.9656-15.968 9.9656-4.7e-5 3e-5 -9.5e-5 6e-5 -1.42e-4 8.9e-5 -1.0934 0.68255-1.6989 1.9312-1.5578 3.2124 6.1e-6 5.6e-5 1.22e-5 1.11e-4 1.84e-5 1.67e-4 0.14112 1.2812 1.0039 2.3682 2.2196 2.7964 0 0 9.2e-5 3.3e-5 2.76e-4 9.7e-5 0.0469 0.0165 16.999 5.9806 16.999 5.9806 5.3e-5 1.9e-5 1.06e-4 3.7e-5 1.59e-4 5.6e-5 2.4531 0.86381 4.2985 2.8931 4.9259 5.4151v2.03e-4 2e-3s7e-6 2.6e-5 2e-5 8e-5c0.0034 0.01358 1.2271 4.9237 1.2271 4.9237h1.12e-4 6.913s-9e-6 -3.5e-5 -2.6e-5 -1.06e-4c-0.0045-0.01806-1.6311-6.5461-1.6311-6.5461l-3.9e-5 -1.53e-4c-1.1703-4.7043-4.635-8.5126-9.2079-10.123 0 0-1.03e-4 -3.6e-5 -3.07e-4 -1.08e-4 -0.05201-0.0183-10.417-3.6661-10.417-3.6661s9.8e-5 -6.1e-5 2.95e-4 -1.84e-4c0.05018-0.03131 10.051-6.2709 10.051-6.2709 4.5e-5 -2.7e-5 9e-5 -5.5e-5 1.34e-4 -8.3e-5 4.1121-2.5681 6.6635-7.0407 6.7797-11.887 0 0 1e-6 -6e-5 4e-6 -1.79e-4 7.41e-4 -0.03045 0.26857-11.038 0.26857-11.038s5e-5 4.2e-5 1.48e-4 1.24e-4c0.02504 0.02103 9.0746 7.6204 9.0746 7.6204h2.03e-4c6.83e-4 1e-6 0.0014 1e-6 2e-3 0 1.46e-4 1.23e-4 2.92e-4 2.45e-4 4.38e-4 3.68e-4 3.713 3.1141 8.7537 4.1555 13.398 2.7705 0 0 1.74e-4 -5.2e-5 5.18e-4 -1.54e-4 0.04372-0.01304 4.4124-1.3165 4.4124-1.3165v-2.06e-4 -6.998s-6.3e-5 1.8e-5 -1.87e-4 5.5e-5c-0.0316 0.0094-6.3299 1.8865-6.3299 1.8865-1.95e-4 5.9e-5 -3.91e-4 1.17e-4 -5.87e-4 1.76e-4 -2.4916 0.74326-5.1786 0.18767-7.1701-1.4828v7.2e-4 0.0015s-1.42e-4 -1.19e-4 -4.24e-4 -3.56e-4c-0.07197-0.06043-14.415-12.103-14.415-12.103-9.5e-5 -7.99e-5 -1.9e-4 -1.597e-4 -2.85e-4 -2.395e-4 -0.60565-0.50768-1.3711-0.78522-2.1614-0.78365m17.298 32.489m9.5596 17.955c-1.6057-0.01109-3.1352 0.7324-4.1174 2.0176-2.905-0.01989-5.672 1.3254-7.4488 3.6508 0 0-1.0416 1.361-1.0418 1.3613-0.02899 0.03788-1.8841 2.462-1.8841 2.462h3.0158 5.4563c0.56399-0.67633 1.4139-1.0464 2.2978-0.98517 1.0203-1.2232 2.5578-1.8925 4.1567-1.7814 0 0 0.99182 0.06996 0.99204 0.06997 0.0276 0.0019 1.7942 0.12655 1.7942 0.12655v-2.394-4.3313s-0.8247-0.05752-0.82489-0.05753c-0.023-0.0016-1.492-0.10406-1.492-0.10406-0.10752-0.0075-0.21462-0.01169-0.3216-0.01242-0.19465-0.01359-0.38854-0.02116-0.58222-0.0225" color="#000000" color-rendering="auto" dominant-baseline="auto" fill-opacity=".041724" image-rendering="auto" opacity="1" solid-color="#000000" style="font-feature-settings:normal;font-variant-alternates:normal;font-variant-caps:normal;font-variant-ligatures:normal;font-variant-numeric:normal;font-variant-position:normal;isolation:auto;mix-blend-mode:normal;paint-order:normal;shape-padding:0;text-decoration-color:#000000;text-decoration-line:none;text-decoration-style:solid;text-indent:0;text-orientation:mixed;text-transform:none;white-space:normal"/>
			<path d="m34.177 4.5734c-1.8023 0.00314-3.2742 1.4414-3.3189 3.2431 0 0 0 2.25e-5 -1e-6 6.74e-5 -5.56e-4 0.022934-0.43299 17.857-0.43299 17.857-1e-6 5.2e-5 -3e-6 1.04e-4 -4e-6 1.56e-4 -0.06181 2.576-1.4091 4.9385-3.596 6.3043 0 0-2e-5 1.3e-5 -6e-5 3.7e-5 -0.02033 0.01269-15.832 9.8809-15.832 9.8809-4.4e-5 2.7e-5 -8.8e-5 5.4e-5 -1.31e-4 8.2e-5 -1.0841 0.67675-1.6845 1.9148-1.5446 3.1851 5.6e-6 5.1e-5 1.13e-5 1.02e-4 1.69e-5 1.53e-4 0.13992 1.2703 0.99535 2.348 2.2007 2.7727 0 0 8.4e-5 3e-5 2.54e-4 8.9e-5 0.04312 0.01517 16.854 5.9298 16.854 5.9298l1.47e-4 5.1e-5c2.4323 0.85647 4.262 2.8685 4.8841 5.3691v1.87e-4c-1e-6 6.82e-4 -1e-6 0.0014 0 2e-3 0 0 6e-6 2.5e-5 1.8e-5 7.4e-5 0.0031 0.01249 1.2167 4.8819 1.2167 4.8819h1.04e-4 6.8542s-8e-6 -3.3e-5 -2.4e-5 -9.8e-5c-0.0041-0.01661-1.6172-6.4905-1.6172-6.4905-1.2e-5 -4.7e-5 -2.3e-5 -9.4e-5 -3.5e-5 -1.41e-4 -1.1603-4.6644-4.5956-8.4402-9.1297-10.037 0 0-1.06e-4 -3.7e-5 -3.16e-4 -1.11e-4 -0.05364-0.01888-10.329-3.6349-10.329-3.6349s1.02e-4 -6.4e-5 3.05e-4 -1.9e-4c0.05175-0.03229 9.9651-6.2176 9.9651-6.2176 4.1e-5 -2.5e-5 8.2e-5 -5.1e-5 1.23e-4 -7.7e-5 4.0772-2.5463 6.6069-6.9809 6.7221-11.786 0 0 2e-6 -5.5e-5 4e-6 -1.64e-4 6.82e-4 -0.028 0.26629-10.944 0.26629-10.944l1.35e-4 1.14e-4c0.02302 0.01933 8.9975 7.5557 8.9975 7.5557h1.86e-4 2e-3c1.51e-4 1.26e-4 3.01e-4 2.52e-4 4.52e-4 3.79e-4 3.6815 3.0877 8.6793 4.1202 13.284 2.747 0 0 1.79e-4 -5.4e-5 5.34e-4 -1.6e-4 0.04509-0.01345 4.3748-1.3053 4.3748-1.3053v-2.12e-4 -6.9386l-1.92e-4 5.7e-5c-0.03259 0.0097-6.2761 1.8705-6.2761 1.8705-2.02e-4 6.1e-5 -4.04e-4 1.21e-4 -6.06e-4 1.81e-4 -2.4704 0.73694-5.1346 0.18606-7.1092-1.4702v7.42e-4 0.0015s-1.46e-4 -1.22e-4 -4.37e-4 -3.67e-4c-0.07422-0.06232-14.293-12-14.293-12-9.8e-5 -8.24e-5 -1.96e-4 -1.647e-4 -2.95e-4 -2.47e-4 -0.6005-0.50336-1.3595-0.77853-2.143-0.77698m17.84 33.506m8.7898 16.509c-1.4764-0.01019-2.8828 0.67342-3.7859 1.8551-2.9959-0.02052-5.8496 1.3669-7.682 3.7652 0 0-0.9577 1.2514-0.95794 1.2518-0.02989 0.03906-1.9431 2.5391-1.9431 2.5391h2.773 5.6272c0.51859-0.62188 1.3001-0.96221 2.1128-0.90588 1.0522-1.2615 2.6379-1.9518 4.2869-1.8372 0 0 0.91196 0.06432 0.91219 0.06434 0.02847 2e-3 1.8503 0.13051 1.8503 0.13051v-2.2012-4.4669s-0.7583-0.05289-0.75849-0.0529c-0.02372-0.0017-1.5387-0.10731-1.5387-0.10732-0.09886-0.0069-0.19734-0.01075-0.29571-0.01142-0.20075-0.01401-0.40071-0.02182-0.60045-0.02321" color="#000000" color-rendering="auto" dominant-baseline="auto" fill-opacity=".042907" image-rendering="auto" opacity="1" solid-color="#000000" style="font-feature-settings:normal;font-variant-alternates:normal;font-variant-caps:normal;font-variant-ligatures:normal;font-variant-numeric:normal;font-variant-position:normal;isolation:auto;mix-blend-mode:normal;paint-order:normal;shape-padding:0;text-decoration-color:#000000;text-decoration-line:none;text-decoration-style:solid;text-indent:0;text-orientation:mixed;text-transform:none;white-space:normal"/>
			<path d="m34.405 5.0275c-1.7886 0.00312-3.2491 1.4304-3.2936 3.2184 0 0 0 2.07e-5 -1e-6 6.21e-5 -5.13e-4 0.021143-0.42969 17.72-0.42969 17.72l-3e-6 1.44e-4c-0.06134 2.5563-1.3984 4.9008-3.5686 6.2561 0 0-1.8e-5 1.1e-5 -5.5e-5 3.4e-5 -0.01875 0.0117-15.711 9.8054-15.711 9.8054-4e-5 2.5e-5 -8.1e-5 5e-5 -1.21e-4 7.5e-5 -1.0758 0.67158-1.6716 1.9002-1.5328 3.1608 5.2e-6 4.8e-5 1.04e-5 9.5e-5 1.56e-5 1.42e-4 0.13885 1.2606 0.98774 2.3301 2.1839 2.7515 0 0 7.9e-5 2.8e-5 2.35e-4 8.3e-5 0.03976 0.01399 16.725 5.8845 16.725 5.8845 4.5e-5 1.6e-5 9e-5 3.2e-5 1.36e-4 4.8e-5 2.4137 0.84992 4.2295 2.8466 4.8467 5.3281v1.72e-4c-1e-6 6.81e-4 -1e-6 0.0014 0 2e-3 0 0 5e-6 2.2e-5 1.7e-5 6.7e-5 0.0029 0.01152 1.2074 4.8446 1.2074 4.8446h9.5e-5 6.8019s-8e-6 -3e-5 -2.2e-5 -9e-5c-0.0038-0.01531-1.6049-6.4409-1.6049-6.4409-1.1e-5 -4.3e-5 -2.2e-5 -8.7e-5 -3.3e-5 -1.3e-4 -1.1515-4.6287-4.5605-8.3758-9.0599-9.96 0 0-1.09e-4 -3.8e-5 -3.25e-4 -1.14e-4 -0.05509-0.01939-10.25-3.6071-10.25-3.6071s1.05e-4 -6.5e-5 3.13e-4 -1.95e-4c0.05315-0.03316 9.889-6.1701 9.889-6.1701 3.8e-5 -2.4e-5 7.6e-5 -4.7e-5 1.14e-4 -7.1e-5 4.046-2.5268 6.5565-6.9276 6.6708-11.696 0 0 1e-6 -5.1e-5 3e-6 -1.52e-4 6.28e-4 -0.02582 0.26426-10.86 0.26426-10.86s4.2e-5 3.5e-5 1.25e-4 1.05e-4c0.02122 0.01782 8.9288 7.498 8.9288 7.498h1.72e-4 2e-3c1.54e-4 1.29e-4 3.09e-4 2.59e-4 4.64e-4 3.89e-4 3.6533 3.0641 8.613 4.0887 13.182 2.726 0 0 1.84e-4 -5.5e-5 5.49e-4 -1.64e-4 0.04631-0.01382 4.3414-1.2953 4.3414-1.2953v-2.18e-4 -6.8855s-6.6e-5 1.9e-5 -1.97e-4 5.8e-5c-0.03347 0.01-6.2281 1.8562-6.2281 1.8562-2.07e-4 6.2e-5 -4.15e-4 1.24e-4 -6.22e-4 1.85e-4 -2.4515 0.7313-5.0953 0.18463-7.0549-1.459v7.63e-4 0.0014s-1.5e-4 -1.26e-4 -4.49e-4 -3.77e-4c-0.07623-0.06401-14.184-11.908-14.184-11.908l-3.03e-4 -2.538e-4c-0.59592-0.49951-1.3491-0.77258-2.1267-0.77104m18.322 34.413m8.1035 15.22c-1.3612-0.0094-2.6577 0.62084-3.4903 1.7103-3.077-0.02107-6.008 1.4039-7.89 3.8671 0 0-0.88294 1.1538-0.88318 1.1541-0.0307 0.04012-1.9957 2.6079-1.9957 2.6079h2.5565 5.7795c0.47811-0.57334 1.1986-0.88711 1.9479-0.8352 1.0807-1.2957 2.7093-2.0046 4.4029-1.8869 0 0 0.84077 0.0593 0.841 0.05932 0.02924 0.0021 1.9004 0.13404 1.9004 0.13404v-2.0294-4.5878s-0.6991-0.04876-0.6993-0.04877c-0.02435-0.0017-1.5803-0.11022-1.5803-0.11022-0.09114-0.0064-0.18193-0.0099-0.27262-0.01053-0.20618-0.01439-0.41155-0.02242-0.6167-0.02383" color="#000000" color-rendering="auto" dominant-baseline="auto" fill-opacity=".043963" image-rendering="auto" opacity="1" solid-color="#000000" style="font-feature-settings:normal;font-variant-alternates:normal;font-variant-caps:normal;font-variant-ligatures:normal;font-variant-numeric:normal;font-variant-position:normal;isolation:auto;mix-blend-mode:normal;paint-order:normal;shape-padding:0;text-decoration-color:#000000;text-decoration-line:none;text-decoration-style:solid;text-indent:0;text-orientation:mixed;text-transform:none;white-space:normal"/>
			<path d="m34.611 5.4382c-1.7761 0.0031-3.2265 1.4204-3.2706 3.1959 0 0-1e-6 1.92e-5 -2e-6 5.74e-5 -4.73e-4 0.019524-0.42669 17.597-0.42669 17.597l-3e-6 1.32e-4c-0.06091 2.5385-1.3886 4.8667-3.5437 6.2126 0 0-1.7e-5 1.1e-5 -5.1e-5 3.2e-5 -0.01731 0.0108-15.602 9.7372-15.602 9.7372-3.8e-5 2.3e-5 -7.5e-5 4.7e-5 -1.12e-4 7e-5 -1.0683 0.6669-1.66 1.887-1.5222 3.1388 5e-6 4.4e-5 1e-5 8.7e-5 1.4e-5 1.31e-4 0.13788 1.2518 0.98086 2.3139 2.1687 2.7323 0 0 7.2e-5 2.5e-5 2.16e-4 7.6e-5 0.03671 0.01292 16.609 5.8435 16.609 5.8435 4.1e-5 1.5e-5 8.3e-5 2.9e-5 1.25e-4 4.4e-5 2.3969 0.844 4.2 2.8267 4.813 5.291v1.59e-4 2e-3s6e-6 2.1e-5 1.6e-5 6.3e-5c0.0027 0.01063 1.199 4.8109 1.199 4.8109h8.8e-5 6.7545s-7e-6 -2.8e-5 -2.1e-5 -8.3e-5c-0.0035-0.01414-1.5937-6.3961-1.5937-6.3961l-3e-5 -1.2e-4c-1.1434-4.5965-4.5287-8.3174-8.9968-9.8907 0 0-1.11e-4 -3.9e-5 -3.33e-4 -1.17e-4 -0.0564-0.01985-10.178-3.582-10.178-3.582s1.07e-4 -6.6e-5 3.2e-4 -2e-4c0.05442-0.03395 9.8201-6.1271 9.8201-6.1271 3.5e-5 -2.1e-5 7e-5 -4.3e-5 1.05e-4 -6.5e-5 4.0178-2.5092 6.5108-6.8793 6.6243-11.615l3e-6 -1.41e-4c5.8e-4 -0.02384 0.26242-10.785 0.26242-10.785s3.9e-5 3.2e-5 1.15e-4 9.7e-5c0.0196 0.01646 8.8666 7.4457 8.8666 7.4457h1.59e-4 2e-3c1.59e-4 1.33e-4 3.17e-4 2.66e-4 4.75e-4 3.98e-4 3.6279 3.0427 8.553 4.0602 13.091 2.707 0 0 1.88e-4 -5.6e-5 5.61e-4 -1.67e-4 0.04741-0.01415 4.3111-1.2863 4.3111-1.2863v-2.23e-4 -6.8376l-2.01e-4 6e-5c-0.03427 0.01022-6.1848 1.8433-6.1848 1.8433-2.12e-4 6.3e-5 -4.25e-4 1.27e-4 -6.37e-4 1.9e-4 -2.4344 0.7262-5.0598 0.18333-7.0057-1.4488v7.8e-4 0.0014s-1.54e-4 -1.29e-4 -4.6e-4 -3.86e-4c-0.07805-0.06553-14.085-11.826-14.085-11.826-1.04e-4 -8.66e-5 -2.07e-4 -1.732e-4 -3.1e-4 -2.598e-4 -0.59173-0.49598-1.3396-0.76714-2.1118-0.76561m18.759 35.234m7.4827 14.054c-1.2569-0.0087-2.4542 0.57328-3.223 1.5793-3.1504-0.02157-6.1512 1.4374-8.078 3.9592 0 0-0.81531 1.0654-0.81556 1.0657-0.03143 0.04108-2.0433 2.67-2.0433 2.67h2.3607 5.9172c0.4415-0.52944 1.1068-0.81919 1.7987-0.77127 1.1065-1.3266 2.7739-2.0524 4.5079-1.9318 0 0 0.77637 0.05476 0.77661 0.05478 0.02993 0.0021 1.9457 0.13724 1.9457 0.13724v-1.8739-4.6972s-0.64556-0.04502-0.64576-0.04504c-0.02493-0.0017-1.6179-0.11284-1.618-0.11285-0.08416-0.0059-0.16799-0.0091-0.25173-0.0097-0.2111-0.01473-0.42136-0.02295-0.6314-0.0244" color="#000000" color-rendering="auto" dominant-baseline="auto" fill-opacity=".044917" image-rendering="auto" opacity="1" solid-color="#000000" style="font-feature-settings:normal;font-variant-alternates:normal;font-variant-caps:normal;font-variant-ligatures:normal;font-variant-numeric:normal;font-variant-position:normal;isolation:auto;mix-blend-mode:normal;paint-order:normal;shape-padding:0;text-decoration-color:#000000;text-decoration-line:none;text-decoration-style:solid;text-indent:0;text-orientation:mixed;text-transform:none;white-space:normal"/>
			<path d="m34.8 5.8138c-1.7647 0.00308-3.2058 1.4113-3.2496 3.1754 0 0-1e-6 1.77e-5 -2e-6 5.3e-5 -4.37e-4 0.018042-0.42396 17.484-0.42396 17.484-1e-6 4.1e-5 -2e-6 8.2e-5 -3e-6 1.22e-4 -0.06051 2.5222-1.3797 4.8355-3.521 6.1727 0 0-1.6e-5 1e-5 -4.7e-5 2.9e-5 -0.016 0.01-15.502 9.6747-15.502 9.6747-3.5e-5 2.1e-5 -6.9e-5 4.3e-5 -1.03e-4 6.4e-5 -1.0615 0.66262-1.6493 1.8749-1.5124 3.1187 5e-6 4e-5 9e-6 8.1e-5 1.4e-5 1.21e-4 0.13699 1.2438 0.97457 2.2991 2.1548 2.7148 0 0 6.7e-5 2.3e-5 2e-4 7e-5 0.03392 0.01194 16.502 5.806 16.502 5.806 3.8e-5 1.3e-5 7.7e-5 2.7e-5 1.15e-4 4e-5 2.3815 0.83859 4.1731 2.8086 4.7821 5.257v1.47e-4 2e-3s5e-6 1.9e-5 1.5e-5 5.8e-5c0.0024 0.0098 1.1913 4.78 1.1913 4.78h8.1e-5 6.7112s-6e-6 -2.5e-5 -1.9e-5 -7.7e-5c-0.0033-0.01306-1.5835-6.3551-1.5835-6.3551-9e-6 -3.7e-5 -1.8e-5 -7.4e-5 -2.8e-5 -1.11e-4 -1.1361-4.567-4.4997-8.2641-8.9391-9.8273 0 0-1.14e-4 -3.9e-5 -3.4e-4 -1.19e-4 -0.0576-0.02027-10.113-3.559-10.113-3.559l3.27e-4 -2.04e-4c0.05558-0.03468 9.7571-6.0878 9.7571-6.0878 3.3e-5 -2.1e-5 6.5e-5 -4.1e-5 9.7e-5 -6.1e-5 3.9921-2.4931 6.469-6.8352 6.5819-11.54 0 0 1e-6 -4.3e-5 3e-6 -1.3e-4 5.36e-4 -0.02203 0.26073-10.715 0.26073-10.715s3.5e-5 3e-5 1.06e-4 9e-5c0.01811 0.01521 8.8097 7.398 8.8097 7.398h1.47e-4 2e-3c1.61e-4 1.36e-4 3.23e-4 2.71e-4 4.85e-4 4.07e-4 3.6046 3.0232 8.4981 4.0342 13.007 2.6896 0 0 1.92e-4 -5.8e-5 5.74e-4 -1.71e-4 0.04842-0.01445 4.2835-1.2781 4.2835-1.2781v-2.28e-4 -6.7937s-6.9e-5 2.1e-5 -2.07e-4 6.2e-5c-0.035 0.01043-6.1451 1.8314-6.1451 1.8314-2.17e-4 6.5e-5 -4.34e-4 1.3e-4 -6.51e-4 1.94e-4 -2.4188 0.72153-5.0273 0.18215-6.9607-1.4395v7.97e-4 0.0014s-1.56e-4 -1.32e-4 -4.69e-4 -3.94e-4c-0.079676-0.066916-13.994-11.75-13.994-11.75-1.06e-4 -8.84e-5 -2.11e-4 -1.769e-4 -3.17e-4 -2.653e-4 -0.58797-0.49284-1.3311-0.76226-2.0983-0.76074m19.159 35.984m6.9149 12.988c-1.1615-8e-3 -2.268 0.52977-2.9785 1.4594-3.2174-0.02203-6.2822 1.468-8.2501 4.0435 0 0-0.75346 0.98455-0.75371 0.98488-0.0321 0.04195-2.0868 2.7269-2.0868 2.7269h2.1816 6.0432c0.40801-0.48928 1.0229-0.75706 1.6622-0.71278 1.1301-1.3548 2.833-2.0961 4.6039-1.973 0 0 0.71747 0.05061 0.71771 0.05062 0.03057 0.0022 1.9871 0.14016 1.9871 0.14016v-1.7318-4.7972s-0.59658-0.04161-0.59678-0.04162c-0.02546-0.0018-1.6524-0.11525-1.6524-0.11525-0.07778-0.0054-0.15524-0.0085-0.23263-9e-3 -0.21559-0.01505-0.43034-0.02344-0.64485-0.02492" color="#000000" color-rendering="auto" dominant-baseline="auto" fill-opacity=".04579" image-rendering="auto" opacity="1" solid-color="#000000" style="font-feature-settings:normal;font-variant-alternates:normal;font-variant-caps:normal;font-variant-ligatures:normal;font-variant-numeric:normal;font-variant-position:normal;isolation:auto;mix-blend-mode:normal;paint-order:normal;shape-padding:0;text-decoration-color:#000000;text-decoration-line:none;text-decoration-style:solid;text-indent:0;text-orientation:mixed;text-transform:none;white-space:normal"/>
			<path d="m34.974 6.1606c-1.7542 0.00306-3.1867 1.4029-3.2303 3.1565 0 0-1e-6 1.63e-5 -2e-6 4.9e-5 -4.04e-4 0.016675-0.42143 17.38-0.42143 17.38-1e-6 3.8e-5 -1e-6 7.6e-5 -2e-6 1.14e-4 -0.06015 2.5072-1.3715 4.8067-3.5 6.1359 0 0-1.4e-5 9e-6 -4.3e-5 2.7e-5 -0.01478 0.0092-15.41 9.6171-15.41 9.6171-3.2e-5 2e-5 -6.4e-5 4e-5 -9.5e-5 6e-5 -1.0551 0.65867-1.6395 1.8637-1.5034 3.1001 4e-6 3.7e-5 8e-6 7.4e-5 1.3e-5 1.11e-4 0.13617 1.2364 0.96876 2.2854 2.1419 2.6987 0 0 6.1e-5 2.2e-5 1.84e-4 6.5e-5 0.03136 0.01103 16.404 5.7714 16.404 5.7714 3.6e-5 1.3e-5 7.2e-5 2.5e-5 1.07e-4 3.8e-5 2.3673 0.83359 4.1482 2.7919 4.7536 5.2257v1.35e-4c-1e-6 6.78e-4 -1e-6 0.0014 0 2e-3 0 0 4e-6 1.8e-5 1.3e-5 5.3e-5 0.0023 0.0091 1.1842 4.7515 1.1842 4.7515h7.6e-5 6.6712l-1.8e-5 -7.2e-5c-3e-3 -0.01207-1.574-6.3172-1.574-6.3172-9e-6 -3.4e-5 -1.7e-5 -6.8e-5 -2.6e-5 -1.02e-4 -1.1293-4.5398-4.4728-8.2148-8.8859-9.7687 0 0-1.15e-4 -4e-5 -3.46e-4 -1.21e-4 -0.05871-0.02066-10.053-3.5378-10.053-3.5378s1.12e-4 -6.9e-5 3.34e-4 -2.08e-4c0.05665-0.03534 9.6989-6.0516 9.6989-6.0516 3e-5 -1.8e-5 6e-5 -3.7e-5 9e-5 -5.6e-5 3.9683-2.4782 6.4305-6.7945 6.5426-11.471 0 0 0-4e-5 2e-6 -1.2e-4 4.96e-4 -0.02036 0.25918-10.652 0.25918-10.652s3.3e-5 2.8e-5 9.8e-5 8.3e-5c0.01674 0.01406 8.7573 7.3539 8.7573 7.3539h1.36e-4 2e-3c1.65e-4 1.38e-4 3.3e-4 2.76e-4 4.95e-4 4.15e-4 3.5832 3.0052 8.4475 4.0101 12.929 2.6736 0 0 1.96e-4 -5.8e-5 5.85e-4 -1.74e-4 0.04935-0.01473 4.2579-1.2704 4.2579-1.2704v-2.32e-4 -6.7532s-7e-5 2.1e-5 -2.1e-4 6.2e-5c-0.03568 0.01063-6.1085 1.8205-6.1085 1.8205-2.21e-4 6.6e-5 -4.42e-4 1.32e-4 -6.64e-4 1.98e-4 -2.4044 0.71722-4.9974 0.18105-6.9193-1.431v8.13e-4 0.0013s-1.59e-4 -1.34e-4 -4.78e-4 -4.02e-4c-0.08125-0.06821-13.911-11.68-13.911-11.68-1.07e-4 -9.01e-5 -2.15e-4 -1.802e-4 -3.22e-4 -2.704e-4 -0.58443-0.48982-1.3231-0.75763-2.0857-0.75612m19.527 36.676m6.3908 12.003c-1.0735-0.0074-2.0961 0.48962-2.7528 1.3488-3.2794-0.02246-6.403 1.4962-8.4088 4.1214 0 0-0.69636 0.90995-0.69662 0.91029-0.03272 0.04276-2.127 2.7794-2.127 2.7794h2.0162 6.1595c0.3771-0.45221 0.94536-0.69971 1.5363-0.65881 1.1518-1.3809 2.8875-2.1364 4.6925-2.011 0 0 0.6631 0.04677 0.66335 0.04679 0.03116 0.0022 2.0254 0.14286 2.0254 0.14286v-1.6005-4.8895s-0.55138-0.03846-0.55158-0.03847c-0.02595-0.0018-1.6842-0.11746-1.6842-0.11747-0.07188-5e-3 -0.14348-0.0078-0.215-0.0083-0.21974-0.01534-0.43862-0.02389-0.65726-0.0254" color="#000000" color-rendering="auto" dominant-baseline="auto" fill-opacity=".046596" image-rendering="auto" opacity="1" solid-color="#000000" style="font-feature-settings:normal;font-variant-alternates:normal;font-variant-caps:normal;font-variant-ligatures:normal;font-variant-numeric:normal;font-variant-position:normal;isolation:auto;mix-blend-mode:normal;paint-order:normal;shape-padding:0;text-decoration-color:#000000;text-decoration-line:none;text-decoration-style:solid;text-indent:0;text-orientation:mixed;text-transform:none;white-space:normal"/>
			<path d="m35.136 6.4829c-1.7444 0.00304-3.169 1.3951-3.2123 3.1389 0 0-1e-6 1.51e-5 -2e-6 4.52e-5 -3.73e-4 0.015404-0.41908 17.283-0.41908 17.283-1e-6 3.5e-5 -1e-6 6.9e-5 -2e-6 1.04e-4 -0.05981 2.4932-1.3638 4.7799-3.4805 6.1017 0 0-1.3e-5 8e-6 -4e-5 2.5e-5 -0.01366 0.0085-15.324 9.5635-15.324 9.5635-3e-5 1.8e-5 -5.9e-5 3.7e-5 -8.8e-5 5.5e-5 -1.0493 0.655-1.6304 1.8533-1.495 3.0828 4e-6 3.4e-5 8e-6 6.8e-5 1.2e-5 1.03e-4 0.13541 1.2295 0.96336 2.2726 2.13 2.6836 0 0 5.7e-5 2e-5 1.7e-4 6e-5 0.02896 0.01019 16.313 5.7393 16.313 5.7393 3.3e-5 1.2e-5 6.6e-5 2.3e-5 9.9e-5 3.5e-5 2.3541 0.82894 4.1251 2.7763 4.7272 5.1966v1.25e-4 2e-3s5e-6 1.7e-5 1.3e-5 5e-5c0.0021 0.0084 1.1776 4.7251 1.1776 4.7251h7e-5 6.634s-6e-6 -2.2e-5 -1.7e-5 -6.6e-5c-0.0028-0.01115-1.5653-6.282-1.5653-6.282-8e-6 -3.2e-5 -1.6e-5 -6.3e-5 -2.3e-5 -9.5e-5 -1.123-4.5145-4.4479-8.1691-8.8363-9.7143 0 0-1.17e-4 -4.2e-5 -3.51e-4 -1.24e-4 -0.05974-0.02103-9.9969-3.5181-9.9969-3.5181s1.14e-4 -7.1e-5 3.4e-4 -2.12e-4c0.05764-0.03596 9.6449-6.0178 9.6449-6.0178 2.8e-5 -1.8e-5 5.5e-5 -3.5e-5 8.3e-5 -5.2e-5 3.9462-2.4644 6.3947-6.7566 6.5062-11.407l3e-6 -1.11e-4c4.57e-4 -0.01881 0.25773-10.592 0.25773-10.592s3e-5 2.6e-5 9.1e-5 7.7e-5c0.01546 0.01298 8.7085 7.3129 8.7085 7.3129h1.25e-4c6.77e-4 1e-6 0.0014 1e-6 2e-3 0 1.67e-4 1.41e-4 3.35e-4 2.82e-4 5.03e-4 4.22e-4 3.5632 2.9884 8.4004 3.9878 12.857 2.6587 0 0 1.99e-4 -6e-5 5.94e-4 -1.78e-4 0.05022-0.01498 4.2342-1.2634 4.2342-1.2634v-2.36e-4 -6.7156s-7.1e-5 2.2e-5 -2.14e-4 6.4e-5c-0.0363 0.01082-6.0744 1.8104-6.0744 1.8104-2.25e-4 6.7e-5 -4.5e-4 1.34e-4 -6.75e-4 2.02e-4 -2.391 0.71322-4.9695 0.18003-6.8807-1.423v8.27e-4 0.0013s-1.63e-4 -1.36e-4 -4.87e-4 -4.09e-4c-0.08267-0.06941-13.833-11.615-13.833-11.615-1.1e-4 -9.17e-5 -2.19e-4 -1.834e-4 -3.29e-4 -2.751e-4 -0.5812-0.48717-1.3158-0.75348-2.0741-0.75198m19.87 37.32m5.9036 11.088c-0.9917-0.0068-1.9364 0.45229-2.543 1.246-3.3369-0.02285-6.5155 1.5225-8.5564 4.1937 0 0-0.64328 0.84059-0.64355 0.84093-0.0333 0.04351-2.1643 2.8281-2.1643 2.8281h1.8626 6.2677c0.34836-0.41775 0.87331-0.6464 1.4192-0.60863 1.172-1.4051 2.9382-2.1739 4.7748-2.0463 0 0 0.61256 0.04321 0.61281 0.04322 0.03171 0.0022 2.0609 0.14536 2.0609 0.14536v-1.4785-4.9754s-0.50935-0.03552-0.50956-0.03554c-0.0264-0.0018-1.7137-0.11953-1.7138-0.11953-0.0664-0.0046-0.13254-0.0072-0.19861-0.0077-0.2236-0.01561-0.44632-0.02431-0.6688-0.02585" color="#000000" color-rendering="auto" dominant-baseline="auto" fill-opacity=".047345" image-rendering="auto" opacity="1" solid-color="#000000" style="font-feature-settings:normal;font-variant-alternates:normal;font-variant-caps:normal;font-variant-ligatures:normal;font-variant-numeric:normal;font-variant-position:normal;isolation:auto;mix-blend-mode:normal;paint-order:normal;shape-padding:0;text-decoration-color:#000000;text-decoration-line:none;text-decoration-style:solid;text-indent:0;text-orientation:mixed;text-transform:none;white-space:normal"/>
			<path d="m35.287 6.7844c-1.7353 0.00303-3.1523 1.3877-3.1954 3.1225 0 0 0 1.39e-5 -1e-6 4.18e-5 -3.44e-4 0.014214-0.41688 17.192-0.41688 17.192-1e-6 3.2e-5 -2e-6 6.4e-5 -2e-6 9.6e-5 -0.0595 2.4802-1.3567 4.7548-3.4622 6.0698 0 0-1.2e-5 8e-6 -3.7e-5 2.4e-5 -0.0126 0.0079-15.243 9.5133-15.243 9.5133l-8.1e-5 5.1e-5c-1.0438 0.65156-1.6218 1.8436-1.4872 3.0666 4e-6 3.2e-5 7e-6 6.4e-5 1.1e-5 9.6e-5 0.1347 1.223 0.9583 2.2607 2.1188 2.6696 0 0 5.3e-5 1.9e-5 1.58e-4 5.6e-5 0.02673 0.0094 16.227 5.7092 16.227 5.7092 3e-5 1.1e-5 6e-5 2.1e-5 9.1e-5 3.2e-5 2.3418 0.82459 4.1035 2.7618 4.7024 5.1694v1.16e-4 2e-3s4e-6 1.5e-5 1.2e-5 4.6e-5c0.0019 0.0077 1.1714 4.7003 1.1714 4.7003h6.5e-5 6.5992l-1.5e-5 -6e-5c-0.0026-0.01027-1.5571-6.249-1.5571-6.249-7e-6 -2.9e-5 -1.4e-5 -5.8e-5 -2.2e-5 -8.7e-5 -1.1172-4.4908-4.4246-8.1262-8.79-9.6633l-3.57e-4 -1.26e-4c-0.06071-0.02136-9.9445-3.4996-9.9445-3.4996s1.16e-4 -7.2e-5 3.45e-4 -2.16e-4c0.05857-0.03654 9.5943-5.9863 9.5943-5.9863 2.6e-5 -1.5e-5 5.1e-5 -3.1e-5 7.7e-5 -4.7e-5 3.9255-2.4515 6.3612-6.7212 6.4721-11.348 0 0 1e-6 -3.5e-5 3e-6 -1.03e-4 4.22e-4 -0.01735 0.25638-10.537 0.25638-10.537s2.8e-5 2.4e-5 8.4e-5 7e-5c0.01427 0.01198 8.6628 7.2746 8.6628 7.2746h1.16e-4 2e-3c1.7e-4 1.42e-4 3.41e-4 2.85e-4 5.11e-4 4.28e-4 3.5445 2.9727 8.3563 3.9668 12.79 2.6447 0 0 2.02e-4 -6.1e-5 6.04e-4 -1.8e-4 0.05103-0.01523 4.212-1.2567 4.212-1.2567v-2.4e-4 -6.6804s-7.2e-5 2.2e-5 -2.17e-4 6.5e-5c-0.03689 0.01099-6.0426 1.8009-6.0426 1.8009-2.28e-4 6.8e-5 -4.57e-4 1.36e-4 -6.86e-4 2.04e-4 -2.3785 0.70947-4.9435 0.17908-6.8446-1.4155v8.4e-4 0.0013s-1.65e-4 -1.39e-4 -4.95e-4 -4.15e-4c-0.08401-0.07053-13.761-11.554-13.761-11.554-1.11e-4 -9.32e-5 -2.23e-4 -1.864e-4 -3.34e-4 -2.796e-4 -0.57816-0.48461-1.3089-0.74953-2.0633-0.74803m20.191 37.922m5.4478 10.232c-0.91516-0.0063-1.7869 0.41737-2.3467 1.1498-3.3908-0.02322-6.6206 1.5471-8.6945 4.2614 0 0-0.59364 0.77571-0.5939 0.77606-0.03384 0.04421-2.1992 2.8738-2.1992 2.8738h1.7188 6.3688c0.32148-0.38551 0.80592-0.59652 1.3097-0.56169 1.1909-1.4278 2.9856-2.209 4.8519-2.0793 0 0 0.56528 0.03987 0.56554 0.03989 0.03222 0.0023 2.0942 0.14771 2.0942 0.14771v-1.3644-5.0557s-0.47003-0.03278-0.47024-0.0328c-0.02682-0.0019-1.7414-0.12145-1.7414-0.12146-0.06127-0.0043-0.12231-0.0067-0.18328-0.0071-0.22721-0.01586-0.45352-0.0247-0.67959-0.02626" color="#000000" color-rendering="auto" dominant-baseline="auto" fill-opacity=".048046" image-rendering="auto" opacity="1" solid-color="#000000" style="font-feature-settings:normal;font-variant-alternates:normal;font-variant-caps:normal;font-variant-ligatures:normal;font-variant-numeric:normal;font-variant-position:normal;isolation:auto;mix-blend-mode:normal;paint-order:normal;shape-padding:0;text-decoration-color:#000000;text-decoration-line:none;text-decoration-style:solid;text-indent:0;text-orientation:mixed;text-transform:none;white-space:normal"/>
			<path d="m35.429 7.068c-1.7267 0.00301-3.1367 1.3809-3.1796 3.107 0 0 0 1.3e-5 -1e-6 3.8e-5 -3.18e-4 0.0131-0.41482 17.107-0.41482 17.107 0 3e-5 -1e-6 5.9e-5 -2e-6 8.9e-5 -0.0592 2.4679-1.35 4.7313-3.4451 6.0397 0 0-1.1e-5 7e-6 -3.4e-5 2.1e-5 -0.01161 0.0072-15.168 9.4662-15.168 9.4662-2.5e-5 1.5e-5 -5e-5 3.1e-5 -7.5e-5 4.6e-5 -1.0386 0.64834-1.6138 1.8345-1.4798 3.0515 3e-6 2.9e-5 7e-6 5.9e-5 1e-5 8.8e-5 0.13403 1.217 0.95356 2.2495 2.1083 2.6563 0 0 4.8e-5 1.8e-5 1.45e-4 5.2e-5 0.02462 0.0087 16.147 5.6809 16.147 5.6809 2.8e-5 1e-5 5.6e-5 2e-5 8.4e-5 2.9e-5 2.3302 0.82051 4.0832 2.7481 4.6791 5.1437v1.07e-4c-1e-6 6.75e-4 -1e-6 0.0013 0 2e-3 0 0 3e-6 1.4e-5 1e-5 4.2e-5 0.0018 0.0071 1.1656 4.677 1.1656 4.677h5.9e-5 6.5666s-5e-6 -1.8e-5 -1.4e-5 -5.5e-5c-0.0024-0.0095-1.5493-6.2181-1.5493-6.2181-6e-6 -2.7e-5 -1.3e-5 -5.4e-5 -2e-5 -8e-5 -1.1116-4.4686-4.4027-8.086-8.7465-9.6155 0 0-1.22e-4 -4.3e-5 -3.63e-4 -1.28e-4 -0.06162-0.02168-9.8952-3.4823-9.8952-3.4823s1.17e-4 -7.3e-5 3.5e-4 -2.19e-4c0.05945-0.03709 9.5467-5.9566 9.5467-5.9566 2.4e-5 -1.5e-5 4.7e-5 -3e-5 7e-5 -4.4e-5 3.906-2.4394 6.3296-6.6879 6.44-11.291 0 0 1e-6 -3.1e-5 3e-6 -9.4e-5 3.89e-4 -0.01599 0.25511-10.484 0.25511-10.484s2.5e-5 2.2e-5 7.7e-5 6.5e-5c0.01315 0.01104 8.6199 7.2386 8.6199 7.2386h1.07e-4 2e-3l5.19e-4 4.35e-4c3.5269 2.958 8.3149 3.9472 12.726 2.6316 0 0 2.06e-4 -6.2e-5 6.13e-4 -1.83e-4 0.05179-0.01545 4.1911-1.2505 4.1911-1.2505v-2.43e-4 -6.6473s-7.4e-5 2.2e-5 -2.21e-4 6.5e-5c-0.03744 0.01116-6.0126 1.792-6.0126 1.792-2.32e-4 6.9e-5 -4.64e-4 1.39e-4 -6.96e-4 2.08e-4 -2.3667 0.70595-4.9189 0.17819-6.8107-1.4085v8.53e-4 0.0013s-1.68e-4 -1.4e-4 -5.02e-4 -4.21e-4c-0.08526-0.07158-13.693-11.496-13.693-11.496-1.13e-4 -9.46e-5 -2.26e-4 -1.892e-4 -3.38e-4 -2.837e-4 -0.57529-0.4822-1.3024-0.74581-2.053-0.74432m20.492 38.489m5.0193 9.4272c-0.84319-0.0058-1.6464 0.38454-2.1622 1.0593-3.4414-0.02357-6.7195 1.5702-8.8243 4.325 0 0-0.54695 0.71471-0.54722 0.71506-0.03434 0.04487-2.2321 2.9167-2.2321 2.9167h1.5836 6.4639c0.2962-0.3552 0.74255-0.54963 1.2067-0.51756 1.2087-1.4491 3.0302-2.242 4.9243-2.1103 0 0 0.52083 0.03674 0.52108 0.03675 0.0327 0.0023 2.1255 0.14992 2.1255 0.14992v-1.2571-5.1311s-0.43307-0.0302-0.43328-0.03022c-0.02722-0.0019-1.7674-0.12327-1.7674-0.12327-0.05645-0.0039-0.11269-0.0061-0.16886-0.0065-0.2306-0.0161-0.46029-0.02507-0.68974-0.02666" color="#000000" color-rendering="auto" dominant-baseline="auto" fill-opacity=".048705" image-rendering="auto" opacity="1" solid-color="#000000" style="font-feature-settings:normal;font-variant-alternates:normal;font-variant-caps:normal;font-variant-ligatures:normal;font-variant-numeric:normal;font-variant-position:normal;isolation:auto;mix-blend-mode:normal;paint-order:normal;shape-padding:0;text-decoration-color:#000000;text-decoration-line:none;text-decoration-style:solid;text-indent:0;text-orientation:mixed;text-transform:none;white-space:normal"/>
			<path d="m35.564 7.3357c-1.7185 3e-3 -3.122 1.3744-3.1646 3.0924 0 0 0 1.2e-5 -1e-6 3.6e-5 -2.92e-4 0.01204-0.41287 17.027-0.41287 17.027 0 2.7e-5 -1e-6 5.4e-5 -2e-6 8.1e-5 -0.05892 2.4563-1.3436 4.709-3.4289 6.0113 0 0-1.1e-5 7e-6 -3.2e-5 2e-5 -0.01067 0.0067-15.097 9.4217-15.097 9.4217-2.3e-5 1.5e-5 -4.6e-5 2.9e-5 -6.9e-5 4.3e-5 -1.0337 0.64528-1.6062 1.8258-1.4729 3.0371l9e-6 8.1e-5c0.13339 1.2113 0.94907 2.239 2.0984 2.6439 0 0 4.4e-5 1.6e-5 1.33e-4 4.7e-5 0.02264 8e-3 16.071 5.6542 16.071 5.6542 2.6e-5 9e-6 5.2e-5 1.8e-5 7.8e-5 2.7e-5 2.3192 0.81665 4.064 2.7351 4.6571 5.1196v9.8e-5 2e-3l9e-6 3.9e-5c0.0016 0.0066 1.1602 4.655 1.1602 4.655h5.4e-5 6.5357s-5e-6 -1.7e-5 -1.3e-5 -5.1e-5c-0.0022-0.0087-1.5421-6.1889-1.5421-6.1889-6e-6 -2.4e-5 -1.2e-5 -4.9e-5 -1.8e-5 -7.4e-5 -1.1064-4.4476-4.382-8.048-8.7053-9.5702 0 0-1.23e-4 -4.3e-5 -3.68e-4 -1.3e-4 -0.06247-0.02198-9.8486-3.4659-9.8486-3.4659s1.18e-4 -7.4e-5 3.55e-4 -2.21e-4c0.06027-0.03761 9.5018-5.9286 9.5018-5.9286 2.1e-5 -1.4e-5 4.3e-5 -2.7e-5 6.4e-5 -4.1e-5 3.8877-2.4279 6.2999-6.6564 6.4097-11.238l3e-6 -8.7e-5c3.57e-4 -0.0147 0.25391-10.435 0.25391-10.435s2.4e-5 2e-5 7.1e-5 6e-5c0.01209 0.01015 8.5794 7.2045 8.5794 7.2045h9.8e-5 2e-3c1.75e-4 1.47e-4 3.5e-4 2.94e-4 5.26e-4 4.41e-4 3.5103 2.9441 8.2758 3.9286 12.666 2.6192 0 0 2.08e-4 -6.2e-5 6.22e-4 -1.86e-4 0.05251-0.01567 4.1714-1.2446 4.1714-1.2446v-2.47e-4 -6.616s-7.5e-5 2.3e-5 -2.24e-4 6.7e-5c-0.03796 0.01131-5.9843 1.7835-5.9843 1.7835-2.35e-4 7e-5 -4.7e-4 1.4e-4 -7.05e-4 2.11e-4 -2.3555 0.70262-4.8958 0.17734-6.7786-1.4019v8.65e-4 0.0012s-1.7e-4 -1.43e-4 -5.09e-4 -4.28e-4c-0.086422-0.072506-13.628-11.442-13.628-11.442-1.15e-4 -9.59e-5 -2.29e-4 -1.918e-4 -3.43e-4 -2.877e-4 -0.57258-0.47993-1.2962-0.74229-2.0434-0.74081m20.777 39.023m4.6146 8.6671c-0.77523-0.0054-1.5137 0.35354-1.9879 0.97393-3.4892-0.02389-6.8128 1.592-8.9469 4.3851 0 0-0.50286 0.6571-0.50314 0.65746-0.03482 0.0455-2.2631 2.9572-2.2631 2.9572h1.456 6.5537c0.27234-0.32658 0.6827-0.50535 1.1094-0.47588 1.2255-1.4693 3.0723-2.2731 4.9928-2.1397 0 0 0.47885 0.03377 0.47911 0.03379 0.03315 0.0023 2.155 0.152 2.155 0.152v-1.1558-5.2024s-0.39816-0.02777-0.39838-0.02779c-0.02759-0.0019-1.7919-0.12498-1.792-0.12498-0.0519-0.0036-0.1036-0.0056-0.15524-6e-3 -0.2338-0.01632-0.46669-0.02542-0.69932-0.02703" color="#000000" color-rendering="auto" dominant-baseline="auto" fill-opacity=".049327" image-rendering="auto" opacity="1" solid-color="#000000" style="font-feature-settings:normal;font-variant-alternates:normal;font-variant-caps:normal;font-variant-ligatures:normal;font-variant-numeric:normal;font-variant-position:normal;isolation:auto;mix-blend-mode:normal;paint-order:normal;shape-padding:0;text-decoration-color:#000000;text-decoration-line:none;text-decoration-style:solid;text-indent:0;text-orientation:mixed;text-transform:none;white-space:normal"/>
			<path d="m35.691 7.5895c-1.7108 0.00298-3.108 1.3682-3.1505 3.0785 0 0 0 1.1e-5 -1e-6 3.2e-5 -2.68e-4 0.01104-0.41102 16.95-0.41102 16.95-1e-6 2.5e-5 -2e-6 5e-5 -2e-6 7.5e-5 -0.05865 2.4453-1.3376 4.688-3.4135 5.9844 0 0-1e-5 6e-6 -2.9e-5 1.8e-5 -0.0098 0.0061-15.029 9.3795-15.029 9.3795-2.1e-5 1.3e-5 -4.2e-5 2.6e-5 -6.3e-5 4e-5 -1.0291 0.64239-1.599 1.8177-1.4663 3.0235 2e-6 2.4e-5 5e-6 4.9e-5 8e-6 7.4e-5 0.13279 1.2058 0.94482 2.2289 2.089 2.632 0 0 4.1e-5 1.4e-5 1.22e-4 4.3e-5 0.02076 0.0073 15.999 5.6289 15.999 5.6289 2.4e-5 8e-6 4.7e-5 1.6e-5 7.1e-5 2.5e-5 2.3088 0.81299 4.0458 2.7229 4.6362 5.0966 0 3e-5 -1e-6 6e-5 -1e-6 9e-5 0 6.73e-4 0 0.0013 1e-6 2e-3 0 0 2e-6 1.2e-5 8e-6 3.6e-5 0.0015 6e-3 1.155 4.6342 1.155 4.6342h5e-5 6.5064s-4e-6 -1.5e-5 -1.2e-5 -4.7e-5c-2e-3 -8e-3 -1.5351-6.1611-1.5351-6.1611-6e-6 -2.2e-5 -1.2e-5 -4.5e-5 -1.7e-5 -6.8e-5 -1.1014-4.4276-4.3623-8.0119-8.6663-9.5274 0 0-1.24e-4 -4.3e-5 -3.72e-4 -1.31e-4 -0.06328-0.02227-9.8045-3.4504-9.8045-3.4504s1.2e-4 -7.5e-5 3.59e-4 -2.24e-4c0.06105-0.03809 9.4593-5.902 9.4593-5.902 2e-5 -1.2e-5 4e-5 -2.4e-5 6e-5 -3.7e-5 3.8703-2.417 6.2717-6.6266 6.381-11.188 0 0 0-2.7e-5 1e-6 -8e-5 3.28e-4 -0.01348 0.25278-10.388 0.25278-10.388s2.1e-5 1.8e-5 6.5e-5 5.5e-5c0.01108 0.0093 8.5409 7.1722 8.5409 7.1722h9e-5 2e-3c1.77e-4 1.49e-4 3.55e-4 2.98e-4 5.33e-4 4.47e-4 3.4946 2.9309 8.2387 3.911 12.61 2.6075 0 0 2.11e-4 -6.3e-5 6.3e-4 -1.88e-4 0.05319-0.01587 4.1527-1.239 4.1527-1.239v-2.51e-4 -6.5863s-7.5e-5 2.2e-5 -2.26e-4 6.7e-5c-0.03845 0.01146-5.9575 1.7755-5.9575 1.7755-2.38e-4 7.1e-5 -4.77e-4 1.42e-4 -7.15e-4 2.13e-4 -2.345 0.69947-4.8739 0.17654-6.7482-1.3956v8.77e-4 0.0012s-1.72e-4 -1.45e-4 -5.16e-4 -4.33e-4c-0.087546-0.073473-13.567-11.391-13.567-11.391-1.16e-4 -9.72e-5 -2.32e-4 -1.943e-4 -3.48e-4 -2.915e-4 -0.57002-0.47778-1.2904-0.73896-2.0342-0.73749m21.047 39.53m4.2309 7.9465c-0.71079-0.0049-1.3879 0.32414-1.8227 0.89296-3.5346-0.0242-6.9013 1.6127-9.0632 4.4421 0 0-0.46107 0.60248-0.46135 0.60285-0.03527 0.04609-2.2925 2.9956-2.2925 2.9956h1.3349 6.6389c0.24971-0.29945 0.62597-0.46337 1.0172-0.43636 1.2414-1.4884 3.1122-2.3027 5.0576-2.1674 0 0 0.43905 0.03097 0.43931 0.03099 0.03359 0.0024 2.183 0.15397 2.183 0.15397v-1.0597-5.27s-0.36507-0.02546-0.36529-0.02548c-0.02795-2e-3 -1.8152-0.1266-1.8152-0.1266-0.04759-0.0033-0.09499-0.0052-0.14234-0.0055-0.23684-0.01653-0.47275-0.02575-0.7084-0.02738" color="#000000" color-rendering="auto" dominant-baseline="auto" fill-opacity=".049917" image-rendering="auto" opacity="1" solid-color="#000000" style="font-feature-settings:normal;font-variant-alternates:normal;font-variant-caps:normal;font-variant-ligatures:normal;font-variant-numeric:normal;font-variant-position:normal;isolation:auto;mix-blend-mode:normal;paint-order:normal;shape-padding:0;text-decoration-color:#000000;text-decoration-line:none;text-decoration-style:solid;text-indent:0;text-orientation:mixed;text-transform:none;white-space:normal"/>
			<path d="m35.812 7.831c-1.7035 0.00297-3.0947 1.3624-3.137 3.0654 0 0 0 1e-5 -1e-6 3e-5 -2.44e-4 0.01009-0.40926 16.878-0.40926 16.878-1e-6 2.3e-5 -1e-6 4.5e-5 -2e-6 6.8e-5 -0.0584 2.4348-1.3319 4.6679-3.3989 5.9588 0 0-9e-6 5e-6 -2.6e-5 1.6e-5 -0.0089 0.0056-14.965 9.3393-14.965 9.3393l-5.7e-5 3.6e-5c-1.0247 0.63964-1.5922 1.8099-1.46 3.0106 2e-6 2.3e-5 5e-6 4.5e-5 7e-6 6.8e-5 0.13222 1.2007 0.94077 2.2194 2.0801 2.6208 0 0 3.7e-5 1.3e-5 1.12e-4 3.9e-5 0.01897 0.0067 15.93 5.6048 15.93 5.6048 2.2e-5 7e-6 4.3e-5 1.5e-5 6.5e-5 2.3e-5 2.299 0.8095 4.0284 2.7112 4.6164 5.0748v8.2e-5 2e-3s3e-6 1.1e-5 8e-6 3.2e-5c0.0014 0.0055 1.15 4.6143 1.15 4.6143h4.5e-5 6.4786s-4e-6 -1.5e-5 -1.1e-5 -4.3e-5c-0.0018-0.0073-1.5286-6.1348-1.5286-6.1348-5e-6 -2.1e-5 -1e-5 -4.2e-5 -1.5e-5 -6.2e-5 -1.0967-4.4087-4.3437-7.9776-8.6293-9.4866 0 0-1.26e-4 -4.4e-5 -3.77e-4 -1.33e-4 -0.06405-0.02254-9.7625-3.4356-9.7625-3.4356s1.22e-4 -7.6e-5 3.64e-4 -2.27e-4c0.0618-0.03856 9.4188-5.8768 9.4188-5.8768 1.8e-5 -1.1e-5 3.6e-5 -2.3e-5 5.4e-5 -3.4e-5 3.8537-2.4067 6.2448-6.5983 6.3537-11.14 0 0 0-2.4e-5 1e-6 -7.3e-5 3e-4 -0.01232 0.2517-10.344 0.2517-10.344s2e-5 1.7e-5 5.9e-5 5e-5c0.01013 0.0085 8.5044 7.1416 8.5044 7.1416h8.2e-5c6.73e-4 1e-6 0.0013 1e-6 2e-3 0 1.8e-4 1.51e-4 3.59e-4 3.02e-4 5.39e-4 4.53e-4 3.4797 2.9183 8.2035 3.8942 12.556 2.5963 0 0 2.14e-4 -6.4e-5 6.38e-4 -1.91e-4 0.05384-0.01606 4.1349-1.2337 4.1349-1.2337v-2.53e-4 -6.5582s-7.7e-5 2.3e-5 -2.29e-4 6.9e-5c-0.03892 0.0116-5.932 1.7679-5.932 1.7679-2.42e-4 7.2e-5 -4.83e-4 1.44e-4 -7.24e-4 2.16e-4 -2.3349 0.69647-4.853 0.17578-6.7193-1.3897v8.86e-4 0.0012s-1.75e-4 -1.47e-4 -5.22e-4 -4.39e-4c-0.088617-0.074389-13.509-11.342-13.509-11.342-1.17e-4 -9.83e-5 -2.35e-4 -1.966e-4 -3.52e-4 -2.95e-4 -0.56758-0.47573-1.2849-0.7358-2.0255-0.73433m21.304 40.013m3.866 7.2611c-0.6495-0.0045-1.2682 0.29618-1.6655 0.81594-3.5777-0.0245-6.9855 1.6323-9.1737 4.4963 0 0-0.42131 0.55054-0.42159 0.5509-0.0357 0.04665-2.3205 3.0322-2.3205 3.0322h1.2198 6.7198c0.22818-0.27364 0.57201-0.42344 0.92955-0.39878 1.2566-1.5065 3.1502-2.3308 5.1193-2.1939 0 0 0.40119 0.0283 0.40146 0.02832 0.03399 0.0024 2.2096 0.15585 2.2096 0.15585v-0.96831-5.3343s-0.33359-0.02327-0.33381-0.02328c-0.02829-2e-3 -1.8374-0.12815-1.8374-0.12815-0.04348-3e-3 -0.08679-0.0047-0.13006-5e-3 -0.23973-0.01673-0.47852-0.02606-0.71705-0.02771" color="#000000" color-rendering="auto" dominant-baseline="auto" fill-opacity=".050478" image-rendering="auto" opacity="1" solid-color="#000000" style="font-feature-settings:normal;font-variant-alternates:normal;font-variant-caps:normal;font-variant-ligatures:normal;font-variant-numeric:normal;font-variant-position:normal;isolation:auto;mix-blend-mode:normal;paint-order:normal;shape-padding:0;text-decoration-color:#000000;text-decoration-line:none;text-decoration-style:solid;text-indent:0;text-orientation:mixed;text-transform:none;white-space:normal"/>
			<path d="m35.928 8.0613c-1.6965 0.00296-3.082 1.3568-3.1241 3.0528v2.7e-5c-2.23e-4 0.0092-0.40758 16.809-0.40758 16.809-1e-6 2.1e-5 -1e-6 4.2e-5 -2e-6 6.3e-5 -0.05816 2.4248-1.3264 4.6488-3.385 5.9343 0 0-8e-6 5e-6 -2.3e-5 1.5e-5 -0.0081 0.0051-14.903 9.301-14.903 9.301-1.8e-5 1.1e-5 -3.5e-5 2.2e-5 -5.3e-5 3.3e-5 -1.0205 0.63702-1.5857 1.8025-1.454 2.9982 3e-6 2e-5 5e-6 4.1e-5 7e-6 6.1e-5 0.13168 1.1958 0.93691 2.2103 2.0716 2.61l1.02e-4 3.6e-5c0.01726 0.0061 15.865 5.5818 15.865 5.5818 1.9e-5 7e-6 3.9e-5 1.3e-5 5.9e-5 2e-5 2.2895 0.80618 4.0119 2.7001 4.5975 5.054v7.5e-5 2e-3s3e-6 9e-6 8e-6 2.9e-5c0.0012 5e-3 1.1453 4.5954 1.1453 4.5954h4.1e-5 6.452s-3e-6 -1.3e-5 -1e-5 -3.9e-5c-0.0017-0.0066-1.5223-6.1096-1.5223-6.1096-5e-6 -1.8e-5 -1e-5 -3.7e-5 -1.4e-5 -5.6e-5 -1.0922-4.3906-4.3258-7.9449-8.5939-9.4477l-3.81e-4 -1.35e-4c-0.06479-0.0228-9.7225-3.4215-9.7225-3.4215s1.23e-4 -7.7e-5 3.68e-4 -2.3e-4c0.06251-0.039 9.3801-5.8527 9.3801-5.8527 1.6e-5 -1e-5 3.3e-5 -2.1e-5 4.9e-5 -3.1e-5 3.8379-2.3968 6.2192-6.5712 6.3277-11.094 0 0 1e-6 -2.2e-5 2e-6 -6.6e-5 2.72e-4 -0.01121 0.25066-10.302 0.25066-10.302s1.8e-5 1.5e-5 5.4e-5 4.6e-5c0.0092 0.0077 8.4695 7.1123 8.4695 7.1123h7.5e-5 2e-3c1.82e-4 1.53e-4 3.64e-4 3.05e-4 5.46e-4 4.58e-4 3.4654 2.9064 8.1698 3.8783 12.504 2.5857 0 0 2.16e-4 -6.4e-5 6.45e-4 -1.92e-4 0.05446-0.01625 4.1179-1.2287 4.1179-1.2287v-2.56e-4 -6.5313s-7.7e-5 2.3e-5 -2.32e-4 6.9e-5c-0.03937 0.01173-5.9077 1.7607-5.9077 1.7607-2.45e-4 7.3e-5 -4.89e-4 1.45e-4 -7.33e-4 2.18e-4 -2.3254 0.69361-4.8331 0.17505-6.6918-1.384v8.97e-4 0.0012l-5.28e-4 -4.44e-4c-0.08966-0.07527-13.454-11.296-13.454-11.296-1.19e-4 -9.95e-5 -2.38e-4 -1.989e-4 -3.56e-4 -2.984e-4 -0.56525-0.47378-1.2796-0.73277-2.0172-0.73131m21.549 40.473m3.5178 6.6072c-0.59104-0.0041-1.154 0.26951-1.5156 0.74246-3.6188-0.02478-7.0658 1.6511-9.2792 4.548 0 0-0.38339 0.50098-0.38367 0.50135-0.03611 0.04718-2.3471 3.067-2.3471 3.067h1.11 6.7971c0.20765-0.24901 0.52053-0.38534 0.84589-0.36292 1.271-1.5238 3.1864-2.3576 5.1782-2.2191 0 0 0.36508 0.02575 0.36535 0.02577 0.03439 0.0024 2.235 0.15764 2.235 0.15764v-0.88113-5.3956s-0.30356-0.02117-0.30379-0.02119c-0.02861-2e-3 -1.8585-0.12962-1.8585-0.12962-0.03957-0.0028-0.07898-0.0043-0.11835-0.0046-0.24249-0.01693-0.48402-0.02636-0.72529-0.02803" color="#000000" color-rendering="auto" dominant-baseline="auto" fill-opacity=".051013" image-rendering="auto" opacity="1" solid-color="#000000" style="font-feature-settings:normal;font-variant-alternates:normal;font-variant-caps:normal;font-variant-ligatures:normal;font-variant-numeric:normal;font-variant-position:normal;isolation:auto;mix-blend-mode:normal;paint-order:normal;shape-padding:0;text-decoration-color:#000000;text-decoration-line:none;text-decoration-style:solid;text-indent:0;text-orientation:mixed;text-transform:none;white-space:normal"/>
			<path d="m36.038 8.2816c-1.6899 0.00295-3.0698 1.3514-3.1118 3.0408 0 0 0 8e-6 -1e-6 2.5e-5 -2.01e-4 0.0083-0.40598 16.742-0.40598 16.742 0 1.9e-5 0 3.8e-5 -1e-6 5.7e-5 -0.05793 2.4153-1.3212 4.6305-3.3716 5.911 0 0-7e-6 5e-6 -2.2e-5 1.4e-5 -0.0074 0.0046-14.845 9.2644-14.845 9.2644l-4.8e-5 3e-5c-1.0165 0.63451-1.5794 1.7954-1.4483 2.9864 2e-6 1.8e-5 4e-6 3.7e-5 6e-6 5.6e-5 0.13116 1.1911 0.93322 2.2016 2.0634 2.5997 0 0 3e-5 1.1e-5 9.2e-5 3.2e-5 0.01563 0.0055 15.803 5.5598 15.803 5.5598 1.7e-5 6e-6 3.5e-5 1.2e-5 5.3e-5 1.8e-5 2.2805 0.80301 3.9961 2.6895 4.5794 5.0341v6.8e-5 2e-3s2e-6 9e-6 7e-6 2.7e-5c0.0011 0.0045 1.1408 4.5773 1.1408 4.5773h3.7e-5 6.4266s-3e-6 -1.2e-5 -8e-6 -3.6e-5c-0.0015-6e-3 -1.5163-6.0856-1.5163-6.0856-5e-6 -1.7e-5 -9e-6 -3.4e-5 -1.3e-5 -5.1e-5 -1.0879-4.3733-4.3088-7.9136-8.56-9.4105 0 0-1.29e-4 -4.5e-5 -3.86e-4 -1.35e-4 -0.06549-0.02305-9.6842-3.408-9.6842-3.408s1.25e-4 -7.8e-5 3.72e-4 -2.32e-4c0.06319-0.03943 9.3432-5.8296 9.3432-5.8296 1.5e-5 -1e-5 3e-5 -1.9e-5 4.5e-5 -2.8e-5 3.8228-2.3874 6.1947-6.5453 6.3028-11.051 0 0 0-2e-5 1e-6 -6e-5 2.47e-4 -0.01015 0.24968-10.261 0.24968-10.261s1.7e-5 1.4e-5 4.9e-5 4.1e-5c0.0083 7e-3 8.4362 7.0843 8.4362 7.0843h6.8e-5c6.72e-4 1e-6 0.0013 1e-6 2e-3 0 1.84e-4 1.55e-4 3.67e-4 3.09e-4 5.51e-4 4.63e-4 3.4517 2.8949 8.1376 3.863 12.455 2.5755 0 0 2.19e-4 -6.5e-5 6.52e-4 -1.94e-4 0.05505-0.01643 4.1017-1.2238 4.1017-1.2238v-2.59e-4 -6.5055s-7.8e-5 2.3e-5 -2.35e-4 7e-5c-0.0398 0.01186-5.8844 1.7538-5.8844 1.7538-2.47e-4 7.4e-5 -4.93e-4 1.47e-4 -7.4e-4 2.21e-4 -2.3162 0.69088-4.814 0.17436-6.6654-1.3785v9.07e-4 0.0012s-1.79e-4 -1.49e-4 -5.34e-4 -4.48e-4c-0.09063-0.07609-13.401-11.251-13.401-11.251-1.2e-4 -1.005e-4 -2.4e-4 -2.011e-4 -3.6e-4 -3.016e-4 -0.56302-0.47191-1.2746-0.72988-2.0092-0.72843m21.783 40.913m3.1848 5.9818c-0.53511-0.0037-1.0448 0.244-1.3722 0.67218-3.6582-0.02505-7.1426 1.669-9.3801 4.5974 0 0-0.34711 0.45357-0.3474 0.45395-0.0365 0.0477-2.3727 3.1004-2.3727 3.1004h1.005 6.871c0.18801-0.22546 0.47129-0.3489 0.76586-0.32863 1.2848-1.5404 3.221-2.3832 5.2345-2.2432 0 0 0.33053 0.02331 0.3308 0.02333 0.03476 0.0025 2.2593 0.15936 2.2593 0.15936v-0.79775-5.4543s-0.27484-0.01917-0.27507-0.01919c-0.02892-2e-3 -1.8787-0.13103-1.8787-0.13103-0.03582-0.0025-0.0715-0.0039-0.10714-0.0041-0.24512-0.01711-0.48928-0.02665-0.73318-0.02834" color="#000000" color-rendering="auto" dominant-baseline="auto" fill-opacity=".051525" image-rendering="auto" opacity="1" solid-color="#000000" style="font-feature-settings:normal;font-variant-alternates:normal;font-variant-caps:normal;font-variant-ligatures:normal;font-variant-numeric:normal;font-variant-position:normal;isolation:auto;mix-blend-mode:normal;paint-order:normal;shape-padding:0;text-decoration-color:#000000;text-decoration-line:none;text-decoration-style:solid;text-indent:0;text-orientation:mixed;text-transform:none;white-space:normal"/>
			<path d="m36.144 8.4928c-1.6835 0.00294-3.0582 1.3463-3.1 3.0292 0 0-1e-6 7e-6 -1e-6 2.2e-5 -1.81e-4 0.0075-0.40444 16.679-0.40444 16.679 0 1.7e-5 -1e-6 3.3e-5 -1e-6 5e-5 -0.05771 2.4061-1.3162 4.6129-3.3589 5.8886 0 0-7e-6 5e-6 -2e-5 1.3e-5 -0.0066 0.0041-14.788 9.2293-14.788 9.2293-1.4e-5 9e-6 -2.8e-5 1.8e-5 -4.2e-5 2.7e-5 -1.0126 0.6321-1.5735 1.7886-1.4428 2.9751 2e-6 1.6e-5 4e-6 3.3e-5 6e-6 5e-5 0.13066 1.1865 0.92968 2.1933 2.0556 2.5899 0 0 2.8e-5 1e-5 8.3e-5 2.9e-5 0.01406 0.0049 15.743 5.5388 15.743 5.5388 1.6e-5 6e-6 3.2e-5 1.2e-5 4.8e-5 1.7e-5 2.2719 0.79996 3.981 2.6793 4.562 5.015v6.1e-5c-1e-6 6.71e-4 -1e-6 0.0013 0 2e-3 0 0 2e-6 8e-6 6e-6 2.3e-5 1e-3 0.0041 1.1365 4.56 1.1365 4.56h3.3e-5 6.4022s-3e-6 -1e-5 -8e-6 -3.2e-5c-0.0013-0.0054-1.5106-6.0625-1.5106-6.0625-4e-6 -1.5e-5 -7e-6 -3.1e-5 -1.1e-5 -4.6e-5 -1.0838-4.3568-4.2925-7.8836-8.5276-9.3748 0 0-1.3e-4 -4.5e-5 -3.9e-4 -1.37e-4 -0.06617-0.02329-9.6475-3.3951-9.6475-3.3951s1.25e-4 -7.9e-5 3.76e-4 -2.35e-4c0.06384-0.03983 9.3078-5.8075 9.3078-5.8075 1.3e-5 -9e-6 2.6e-5 -1.7e-5 4e-5 -2.5e-5 3.8083-2.3783 6.1712-6.5205 6.2789-11.009 0 0 0-1.8e-5 1e-6 -5.4e-5 2.22e-4 -0.0091 0.24873-10.222 0.24873-10.222s1.5e-5 1.2e-5 4.4e-5 3.7e-5c0.0075 0.0063 8.4042 7.0574 8.4042 7.0574h6.1e-5 2e-3c1.85e-4 1.56e-4 3.71e-4 3.11e-4 5.57e-4 4.67e-4 3.4387 2.8839 8.1068 3.8483 12.408 2.5657 0 0 2.21e-4 -6.6e-5 6.59e-4 -1.97e-4 0.05562-0.01659 4.0861-1.2192 4.0861-1.2192v-2.62e-4 -6.4809s-7.9e-5 2.4e-5 -2.36e-4 7.1e-5c-0.04021 0.01198-5.8621 1.7471-5.8621 1.7471-2.5e-4 7.4e-5 -4.99e-4 1.48e-4 -7.48e-4 2.23e-4 -2.3074 0.68825-4.7958 0.17369-6.6401-1.3733v9.16e-4 0.0012s-1.81e-4 -1.51e-4 -5.4e-4 -4.53e-4c-0.09157-0.07688-13.35-11.209-13.35-11.209-1.21e-4 -1.016e-4 -2.42e-4 -2.031e-4 -3.63e-4 -3.047e-4 -0.56089-0.47012-1.2698-0.72711-2.0016-0.72566m22.007 41.335m2.8656 5.3821c-0.4815-0.0033-0.94015 0.21954-1.2347 0.60479-3.6959-0.02531-7.2163 1.6863-9.4768 4.6448 0 0-0.31233 0.40813-0.31262 0.40851-0.03688 0.04819-2.3971 3.1324-2.3971 3.1324h0.90425 6.9419c0.16918-0.20288 0.42408-0.31397 0.68914-0.29575 1.2981-1.5563 3.2542-2.4078 5.2885-2.2664 0 0 0.29741 0.02098 0.29769 0.021 0.03512 0.0025 2.2826 0.161 2.2826 0.161v-0.71781-5.5105s-0.2473-0.01725-0.24753-0.01726c-0.02922-2e-3 -1.898-0.13238-1.8981-0.13238-0.03223-0.0022-0.06433-0.0035-0.0964-0.0037-0.24765-0.01729-0.49433-0.02692-0.74074-0.02863" color="#000000" color-rendering="auto" dominant-baseline="auto" fill-opacity=".052016" image-rendering="auto" opacity="1" solid-color="#000000" style="font-feature-settings:normal;font-variant-alternates:normal;font-variant-caps:normal;font-variant-ligatures:normal;font-variant-numeric:normal;font-variant-position:normal;isolation:auto;mix-blend-mode:normal;paint-order:normal;shape-padding:0;text-decoration-color:#000000;text-decoration-line:none;text-decoration-style:solid;text-indent:0;text-orientation:mixed;text-transform:none;white-space:normal"/>
			<path d="m36.246 8.6958c-1.6773 0.00293-3.047 1.3414-3.0887 3.0182 0 0-1e-6 7e-6 -1e-6 2e-5 -1.62e-4 0.0067-0.40296 16.618-0.40296 16.618-1e-6 1.5e-5 -1e-6 3.1e-5 -1e-6 4.6e-5 -0.05749 2.3973-1.3114 4.596-3.3466 5.867 0 0-5e-6 4e-6 -1.7e-5 1.1e-5 -0.0059 0.0037-14.734 9.1955-14.734 9.1955-1.3e-5 8e-6 -2.5e-5 1.6e-5 -3.8e-5 2.3e-5 -1.0089 0.62979-1.5677 1.782-1.4375 2.9642 2e-6 1.5e-5 3e-6 3e-5 5e-6 4.5e-5 0.13018 1.1822 0.92628 2.1852 2.0481 2.5804 0 0 2.5e-5 9e-6 7.4e-5 2.6e-5 0.01255 0.0044 15.685 5.5185 15.685 5.5185 1.4e-5 5e-6 2.9e-5 1e-5 4.3e-5 1.5e-5 2.2636 0.79704 3.9664 2.6695 4.5453 4.9967v5.4e-5 2e-3s2e-6 8e-6 5e-6 2.2e-5c9.06e-4 0.0036 1.1323 4.5433 1.1323 4.5433h3e-5 6.3788s-2e-6 -1e-5 -7e-6 -2.9e-5c-0.0012-0.0048-1.505-6.0403-1.505-6.0403-3e-6 -1.3e-5 -6e-6 -2.7e-5 -1e-5 -4.1e-5 -1.0798-4.3408-4.2768-7.8548-8.4964-9.3406 0 0-1.31e-4 -4.7e-5 -3.93e-4 -1.39e-4 -0.06682-0.02351-9.6122-3.3827-9.6122-3.3827s1.27e-4 -7.9e-5 3.8e-4 -2.37e-4c0.06447-0.04022 9.2737-5.7863 9.2737-5.7863 1.2e-5 -7e-6 2.4e-5 -1.5e-5 3.6e-5 -2.2e-5 3.7944-2.3696 6.1487-6.4967 6.2559-10.969 0 0 0-1.6e-5 1e-6 -4.8e-5 1.99e-4 -0.0082 0.24782-10.185 0.24782-10.185s1.3e-5 1.1e-5 4e-5 3.3e-5c0.0067 0.0056 8.3735 7.0316 8.3735 7.0316h5.5e-5 2e-3c1.87e-4 1.57e-4 3.75e-4 3.14e-4 5.62e-4 4.72e-4 3.4261 2.8734 8.0771 3.8343 12.362 2.5563 0 0 2.23e-4 -6.6e-5 6.65e-4 -1.98e-4 0.05617-0.01676 4.0712-1.2147 4.0712-1.2147v-2.65e-4 -6.4572s-8e-5 2.4e-5 -2.39e-4 7.1e-5c-0.0406 0.0121-5.8407 1.7407-5.8407 1.7407-2.52e-4 7.5e-5 -5.03e-4 1.5e-4 -7.55e-4 2.25e-4 -2.299 0.68573-4.7782 0.17305-6.6158-1.3683v9.25e-4 0.0011s-1.82e-4 -1.53e-4 -5.45e-4 -4.58e-4c-0.092449-0.077579-13.301-11.168-13.301-11.168-1.22e-4 -1.026e-4 -2.44e-4 -2.052e-4 -3.67e-4 -3.078e-4 -0.55883-0.4684-1.2651-0.72445-1.9943-0.72301m22.223 41.74m2.5588 4.806c-0.42998-3e-3 -0.83957 0.19604-1.1026 0.54005-3.7321-0.02556-7.2871 1.7028-9.5697 4.6904 0 0-0.27892 0.36446-0.27921 0.36484-0.03724 0.048663-2.4206 3.1631-2.4206 3.1631h0.8075 7.0099c0.15109-0.18119 0.37872-0.28041 0.61543-0.26416 1.3108-1.5715 3.2862-2.4314 5.3403-2.2886 0 0 0.26559 0.01873 0.26587 0.01875 0.035462 0.002504 2.305 0.16258 2.305 0.16258v-0.641-5.5646s-0.22084-0.0154-0.22108-0.01542c-0.0295-0.0021-1.9167-0.13368-1.9167-0.13368-0.02878-2e-3 -0.05745-0.0031-0.08608-0.0033-0.25008-0.01746-0.49918-0.02719-0.748-0.02891" color="#000000" color-rendering="auto" dominant-baseline="auto" fill-opacity=".052487" image-rendering="auto" opacity="1" solid-color="#000000" style="font-feature-settings:normal;font-variant-alternates:normal;font-variant-caps:normal;font-variant-ligatures:normal;font-variant-numeric:normal;font-variant-position:normal;isolation:auto;mix-blend-mode:normal;paint-order:normal;shape-padding:0;text-decoration-color:#000000;text-decoration-line:none;text-decoration-style:solid;text-indent:0;text-orientation:mixed;text-transform:none;white-space:normal"/>
			<path d="m36.344 8.8911c-1.6714 0.0029154-3.0363 1.3366-3.0778 3.0075v1.8e-5c-1.43e-4 0.0059-0.40154 16.559-0.40154 16.559-1e-6 1.4e-5 -1e-6 2.7e-5 -1e-6 4e-5 -0.05729 2.3889-1.3067 4.5798-3.3348 5.8463l-1.5e-5 9e-6c-0.0052 0.0033-14.682 9.1631-14.682 9.1631-1.2e-5 7e-6 -2.3e-5 1.4e-5 -3.4e-5 2.1e-5 -1.0054 0.62757-1.5622 1.7757-1.4325 2.9538 2e-6 1.3e-5 3e-6 2.6e-5 5e-6 4e-5 0.12972 1.178 0.92301 2.1775 2.0408 2.5713 0 0 2.2e-5 7e-6 6.5e-5 2.3e-5 0.01111 0.0039 15.63 5.499 15.63 5.499 1.3e-5 4e-6 2.6e-5 9e-6 3.8e-5 1.3e-5 2.2556 0.79422 3.9524 2.6601 4.5293 4.979v4.8e-5 2e-3s1e-6 6e-6 5e-6 1.9e-5c8.01e-4 0.0032 1.1283 4.5273 1.1283 4.5273h2.7e-5 6.3563s-3e-6 -8e-6 -7e-6 -2.5e-5c-0.0011-0.0043-1.4997-6.019-1.4997-6.019-3e-6 -1.2e-5 -6e-6 -2.5e-5 -9e-6 -3.7e-5 -1.076-4.3255-4.2617-7.8271-8.4664-9.3076 0 0-1.32e-4 -4.7e-5 -3.97e-4 -1.4e-4 -0.06744-0.02373-9.5783-3.3708-9.5783-3.3708s1.28e-4 -7.9e-5 3.83e-4 -2.39e-4c0.06507-0.0406 9.241-5.7658 9.241-5.7658 1e-5 -6e-6 2.1e-5 -1.3e-5 3.1e-5 -1.9e-5 3.781-2.3612 6.127-6.4737 6.2338-10.93 0 0 0-1.4e-5 1e-6 -4.2e-5 1.75e-4 -0.0072 0.24694-10.149 0.24694-10.149s1.2e-5 9e-6 3.5e-5 2.9e-5c0.0059 5e-3 8.3439 7.0068 8.3439 7.0068h4.8e-5 2e-3c1.9e-4 1.58e-4 3.79e-4 3.17e-4 5.68e-4 4.76e-4 3.414 2.8632 8.0486 3.8207 12.319 2.5473 0 0 2.25e-4 -6.7e-5 6.72e-4 -2e-4 0.05669-0.01692 4.0568-1.2104 4.0568-1.2104v-2.67e-4 -6.4344s-8e-5 2.4e-5 -2.41e-4 7.2e-5c-0.04098 0.01221-5.82 1.7346-5.82 1.7346-2.54e-4 7.6e-5 -5.08e-4 1.52e-4 -7.62e-4 2.27e-4 -2.2909 0.6833-4.7614 0.17244-6.5925-1.3634v9.34e-4 0.0011s-1.84e-4 -1.55e-4 -5.5e-4 -4.62e-4c-0.09333-0.07836-13.254-11.128-13.254-11.128-1.24e-4 -1.035e-4 -2.47e-4 -2.071e-4 -3.71e-4 -3.106e-4 -0.55686-0.46674-1.2606-0.72189-1.9872-0.72045m22.431 42.13m2.2636 4.2515c-0.38039-0.0026-0.74275 0.17342-0.9755 0.47774-3.767-0.02579-7.3552 1.7187-9.6592 4.7342 0 0-0.24675 0.32243-0.24704 0.32282-0.037589 0.049117-2.4433 3.1926-2.4433 3.1926h0.71436 7.0755c0.13368-0.1603 0.33506-0.2481 0.54448-0.23375 1.3231-1.5862 3.3169-2.4541 5.3902-2.31 0 0 0.23496 0.01657 0.23525 0.01659 0.035793 0.002527 2.3266 0.1641 2.3266 0.1641v-0.56707-5.6166s-0.19537-0.01363-0.19561-0.01364c-0.02978-0.0021-1.9346-0.13493-1.9346-0.13493-0.02546-0.0018-0.05082-0.0028-0.07615-0.0029-0.25242-0.01762-0.50384-0.02744-0.75499-0.02918" color="#000000" color-rendering="auto" dominant-baseline="auto" fill-opacity=".052941" image-rendering="auto" opacity="1" solid-color="#000000" style="font-feature-settings:normal;font-variant-alternates:normal;font-variant-caps:normal;font-variant-ligatures:normal;font-variant-numeric:normal;font-variant-position:normal;isolation:auto;mix-blend-mode:normal;paint-order:normal;shape-padding:0;text-decoration-color:#000000;text-decoration-line:none;text-decoration-style:solid;text-indent:0;text-orientation:mixed;text-transform:none;white-space:normal"/>
			<path d="m36.439 9.0795c-1.6657 0.00291-3.0259 1.3321-3.0673 2.9972 0 0 0 5e-6 -1e-6 1.5e-5 -1.25e-4 0.0052-0.40016 16.503-0.40016 16.503-1e-6 1.2e-5 -1e-6 2.3e-5 -1e-6 3.5e-5 -0.05709 2.3807-1.3023 4.5642-3.3234 5.8264 0 0-4e-6 3e-6 -1.3e-5 9e-6 -0.0046 0.0029-14.632 9.1317-14.632 9.1317-1e-5 6e-6 -2e-5 1.3e-5 -3e-5 1.9e-5 -1.0019 0.62542-1.5568 1.7697-1.4276 2.9437 1e-6 1.2e-5 2e-6 2.3e-5 4e-6 3.5e-5 0.12927 1.174 0.91985 2.1701 2.0339 2.5625 0 0 1.9e-5 7e-6 5.7e-5 2e-5 0.0097 0.0034 15.576 5.4802 15.576 5.4802 1.1e-5 4e-6 2.2e-5 8e-6 3.3e-5 1.2e-5 2.2479 0.79151 3.9389 2.651 4.5138 4.962v4.2e-5 2e-3s2e-6 5e-6 4e-6 1.6e-5c7.01e-4 0.0028 1.1245 4.5118 1.1245 4.5118h2.3e-5 6.3346s-2e-6 -7e-6 -6e-6 -2.2e-5c-9.31e-4 -0.0037-1.4946-5.9984-1.4946-5.9984-2e-6 -1.1e-5 -5e-6 -2.1e-5 -7e-6 -3.2e-5 -1.0723-4.3107-4.2471-7.8003-8.4375-9.2758 0 0-1.34e-4 -4.8e-5 -4.01e-4 -1.42e-4 -0.06805-0.02395-9.5455-3.3592-9.5455-3.3592s1.29e-4 -8.1e-5 3.86e-4 -2.41e-4c0.06565-0.04096 9.2094-5.7461 9.2094-5.7461 9e-6 -6e-6 1.8e-5 -1.2e-5 2.8e-5 -1.8e-5 3.7681-2.3532 6.106-6.4516 6.2125-10.892 0 0 1e-6 -1.2e-5 1e-6 -3.7e-5 1.54e-4 -0.0063 0.2461-10.114 0.2461-10.114s1e-5 9e-6 3e-5 2.6e-5c0.0052 0.0044 8.3154 6.9828 8.3154 6.9828h4.2e-5 2e-3c1.91e-4 1.6e-4 3.82e-4 3.2e-4 5.73e-4 4.81e-4 3.4023 2.8534 8.0211 3.8076 12.276 2.5386 0 0 2.27e-4 -6.8e-5 6.77e-4 -2.03e-4 0.0572-0.01707 4.0429-1.2063 4.0429-1.2063v-2.69e-4 -6.4124s-8.1e-5 2.5e-5 -2.44e-4 7.3e-5c-0.04135 0.01232-5.8001 1.7286-5.8001 1.7286-2.57e-4 7.7e-5 -5.13e-4 1.53e-4 -7.69e-4 2.3e-4 -2.283 0.68096-4.7451 0.17184-6.5699-1.3588v9.42e-4 0.0011s-1.86e-4 -1.55e-4 -5.55e-4 -4.65e-4c-0.09415-0.07904-13.209-11.09-13.209-11.09-1.24e-4 -1.045e-4 -2.49e-4 -2.089e-4 -3.74e-4 -3.134e-4 -0.55496-0.46514-1.2563-0.71942-1.9804-0.71798m22.631 42.506m1.9788 3.7167c-0.33258-0.0023-0.64938 0.1516-0.85289 0.41764-3.8006-0.02603-7.4209 1.7341-9.7455 4.7765 0 0-0.21573 0.2819-0.21603 0.28229-0.037924 0.049556-2.4651 3.2211-2.4651 3.2211h0.62455 7.1386c0.11688-0.14017 0.29296-0.21694 0.47606-0.20442 1.3349-1.6004 3.3465-2.476 5.4384-2.3306 0 0 0.20543 0.01449 0.20571 0.01451 0.036112 0.002547 2.3473 0.16556 2.3473 0.16556v-0.49578-5.6668s-0.17082-0.01191-0.17105-0.01193c-0.03004-0.0021-1.9518-0.13613-1.9519-0.13613-0.02226-0.0016-0.04443-0.0024-0.06657-0.0026-0.25467-0.01778-0.50834-0.02769-0.76173-0.02944" color="#000000" color-rendering="auto" dominant-baseline="auto" fill-opacity=".053379" image-rendering="auto" opacity="1" solid-color="#000000" style="font-feature-settings:normal;font-variant-alternates:normal;font-variant-caps:normal;font-variant-ligatures:normal;font-variant-numeric:normal;font-variant-position:normal;isolation:auto;mix-blend-mode:normal;paint-order:normal;shape-padding:0;text-decoration-color:#000000;text-decoration-line:none;text-decoration-style:solid;text-indent:0;text-orientation:mixed;text-transform:none;white-space:normal"/>
			<path d="m36.53 9.2614c-1.6601 0.0029-3.0159 1.3277-3.0571 2.9873v1.3e-5c-1.08e-4 0.0044-0.39884 16.448-0.39884 16.448 0 1e-5 -1e-6 2e-5 -1e-6 3e-5 -0.0569 2.3728-1.2979 4.5491-3.3124 5.8071 0 0-4e-6 3e-6 -1.1e-5 8e-6 -0.0039 0.0025-14.584 9.1015-14.584 9.1015-9e-6 5e-6 -1.7e-5 1e-5 -2.6e-5 1.6e-5 -0.99861 0.62335-1.5517 1.7638-1.4229 2.9339l3e-6 3e-5c0.12884 1.1701 0.91681 2.1629 2.0271 2.5541 0 0 1.7e-5 6e-6 5e-5 1.7e-5 0.0084 0.0029 15.525 5.4621 15.525 5.4621 9e-6 3e-6 1.9e-5 6e-6 2.8e-5 1e-5 2.2404 0.78888 3.9259 2.6422 4.4989 4.9456v3.6e-5c-1e-6 6.7e-4 -1e-6 0.0013 0 2e-3 0 0 1e-6 5e-6 3e-6 1.4e-5 6.04e-4 0.0024 1.1207 4.4968 1.1207 4.4968h2e-5 6.3136s-1e-6 -7e-6 -4e-6 -1.9e-5c-8.03e-4 -0.0032-1.4897-5.9786-1.4897-5.9786-3e-6 -9e-6 -5e-6 -1.8e-5 -7e-6 -2.7e-5 -1.0688-4.2964-4.233-7.7745-8.4095-9.2451 0 0-1.35e-4 -4.7e-5 -4.04e-4 -1.42e-4 -0.06863-0.02415-9.5139-3.3481-9.5139-3.3481s1.3e-4 -8.2e-5 3.9e-4 -2.44e-4c0.06621-0.04131 9.1789-5.7271 9.1789-5.7271l2.4e-5 -1.5e-5c3.7556-2.3454 6.0858-6.4302 6.1919-10.856 0 0 0-1.1e-5 1e-6 -3.2e-5 1.32e-4 -0.0054 0.24528-10.081 0.24528-10.081s9e-6 7e-6 2.7e-5 2.2e-5c0.0045 0.0037 8.2878 6.9597 8.2878 6.9597h3.6e-5 2e-3c1.92e-4 1.62e-4 3.85e-4 3.23e-4 5.78e-4 4.85e-4 3.391 2.844 7.9945 3.795 12.236 2.5301 0 0 2.29e-4 -6.8e-5 6.83e-4 -2.04e-4 0.05769-0.01721 4.0295-1.2023 4.0295-1.2023v-2.71e-4 -6.3911s-8.2e-5 2.4e-5 -2.46e-4 7.3e-5c-0.0417 0.01243-5.7809 1.7229-5.7809 1.7229-2.58e-4 7.7e-5 -5.17e-4 1.54e-4 -7.75e-4 2.31e-4 -2.2755 0.6787-4.7294 0.17127-6.5482-1.3543v9.5e-4 0.0011s-1.87e-4 -1.57e-4 -5.6e-4 -4.7e-4c-0.094956-0.079731-13.165-11.053-13.165-11.053-1.25e-4 -1.053e-4 -2.51e-4 -2.107e-4 -3.77e-4 -3.16e-4 -0.55312-0.4636-1.2522-0.71703-1.9739-0.7156m22.825 42.87m1.7039 3.2002c-0.2864-2e-3 -0.55922 0.13054-0.73448 0.35961-3.8331-0.02625-7.4843 1.7489-9.8288 4.8173 0 0-0.18578 0.24276-0.18608 0.24315-0.038249 0.04998-2.4861 3.2487-2.4861 3.2487h0.53781 7.1997c0.10067-0.12072 0.2523-0.18686 0.40998-0.1761 1.3463-1.6141 3.3751-2.4972 5.4849-2.3505 0 0 0.1769 0.01248 0.17719 0.0125 0.03642 0.0026 2.3674 0.16698 2.3674 0.16698v-0.42692-5.7152s-0.1471-0.01026-0.14734-0.01028c-0.03029-0.0021-1.9685-0.1373-1.9685-0.1373-0.01917-0.0013-0.03825-0.0021-0.05732-0.0022-0.25685-0.01793-0.51269-0.02792-0.76824-0.02969" color="#000000" color-rendering="auto" dominant-baseline="auto" fill-opacity=".053802" image-rendering="auto" opacity="1" solid-color="#000000" style="font-feature-settings:normal;font-variant-alternates:normal;font-variant-caps:normal;font-variant-ligatures:normal;font-variant-numeric:normal;font-variant-position:normal;isolation:auto;mix-blend-mode:normal;paint-order:normal;shape-padding:0;text-decoration-color:#000000;text-decoration-line:none;text-decoration-style:solid;text-indent:0;text-orientation:mixed;text-transform:none;white-space:normal"/>
			<path d="m36.618 9.4374c-1.6548 0.00289-3.0062 1.3234-3.0473 2.9777 0 0 0 3e-6 -1e-6 1.1e-5 -9.1e-5 0.0038-0.39756 16.395-0.39756 16.395v2.6e-5c-0.05672 2.3652-1.2938 4.5344-3.3017 5.7884 0 0-3e-6 2e-6 -1e-5 6e-6 -0.0033 0.0021-14.537 9.0722-14.537 9.0722-7e-6 5e-6 -1.4e-5 9e-6 -2.1e-5 1.4e-5 -0.9954 0.62134-1.5467 1.7581-1.4183 2.9245 1e-6 9e-6 2e-6 1.7e-5 3e-6 2.5e-5 0.12843 1.1664 0.91386 2.156 2.0206 2.5458 0 0 1.3e-5 5e-6 4.1e-5 1.5e-5 0.0071 0.0025 15.475 5.4445 15.475 5.4445l2.4e-5 9e-6c2.2332 0.78635 3.9133 2.6337 4.4844 4.9297v3e-5 2e-3l3e-6 1.2e-5c5.09e-4 2e-3 1.1171 4.4824 1.1171 4.4824h1.7e-5 6.2933s-2e-6 -5e-6 -4e-6 -1.6e-5c-6.77e-4 -0.0027-1.4849-5.9594-1.4849-5.9594-2e-6 -7e-6 -4e-6 -1.5e-5 -6e-6 -2.3e-5 -1.0653-4.2826-4.2194-7.7495-8.3825-9.2153 0 0-1.36e-4 -4.8e-5 -4.07e-4 -1.44e-4 -0.06919-0.02435-9.4833-3.3373-9.4833-3.3373s1.31e-4 -8.2e-5 3.93e-4 -2.45e-4c0.06675-0.04165 9.1494-5.7087 9.1494-5.7087 7e-6 -4e-6 1.3e-5 -9e-6 2e-5 -1.3e-5 3.7435-2.3378 6.0663-6.4096 6.172-10.821 0 0 0-9e-6 1e-6 -2.7e-5 1.11e-4 -0.0046 0.2445-10.048 0.2445-10.048s7e-6 7e-6 2.2e-5 1.9e-5c0.0038 0.0032 8.2612 6.9373 8.2612 6.9373h3.1e-5 2e-3c1.94e-4 1.63e-4 3.89e-4 3.26e-4 5.83e-4 4.88e-4 3.3801 2.8348 7.9688 3.7828 12.196 2.522 0 0 2.31e-4 -6.9e-5 6.89e-4 -2.05e-4 0.05816-0.01735 4.0166-1.1984 4.0166-1.1984v-2.74e-4 -6.3706s-8.3e-5 2.4e-5 -2.47e-4 7.3e-5c-0.04204 0.01253-5.7623 1.7174-5.7623 1.7174-2.6e-4 7.7e-5 -5.21e-4 1.55e-4 -7.81e-4 2.33e-4 -2.2681 0.67652-4.7141 0.17071-6.5271-1.3499v9.58e-4 0.0011s-1.88e-4 -1.58e-4 -5.64e-4 -4.73e-4c-0.09574-0.08039-13.123-11.018-13.123-11.018-1.26e-4 -1.06e-4 -2.53e-4 -2.13e-4 -3.8e-4 -3.19e-4 -0.55134-0.46211-1.2481-0.71472-1.9675-0.7133m23.012 43.221m1.4379 2.7007c-0.24173-0.0017-0.472 0.11016-0.61994 0.30348-3.8646-0.02646-7.5456 1.7632-9.9093 4.8568 0 0-0.1568 0.2049-0.15711 0.20529-0.038562 0.05039-2.5065 3.2753-2.5065 3.2753h0.45392 7.2587c0.08498-0.10191 0.21297-0.15775 0.34606-0.14871 1.3573-1.6273 3.4028-2.5177 5.5298-2.3698 0 0 0.14931 0.01053 0.1496 0.01055 0.036721 0.002592 2.3868 0.16835 2.3868 0.16835v-0.36033-5.762s-0.12416-0.0087-0.1244-0.0087c-0.03054-0.0021-1.9847-0.13842-1.9847-0.13842-0.01617-0.0011-0.03228-0.0018-0.04837-0.0019-0.25895-0.01808-0.51689-0.02815-0.77454-0.02993" color="#000000" color-rendering="auto" dominant-baseline="auto" fill-opacity=".054211" image-rendering="auto" opacity="1" solid-color="#000000" style="font-feature-settings:normal;font-variant-alternates:normal;font-variant-caps:normal;font-variant-ligatures:normal;font-variant-numeric:normal;font-variant-position:normal;isolation:auto;mix-blend-mode:normal;paint-order:normal;shape-padding:0;text-decoration-color:#000000;text-decoration-line:none;text-decoration-style:solid;text-indent:0;text-orientation:mixed;text-transform:none;white-space:normal"/>
			<path d="m36.704 9.6078c-1.6496 0.00288-2.9968 1.3193-3.0378 2.9684v9e-6c-7.5e-5 0.0031-0.39631 16.344-0.39631 16.344-1e-6 7e-6 -1e-6 1.4e-5 -1e-6 2.1e-5 -0.05654 2.3578-1.2897 4.5203-3.2914 5.7703 0 0-3e-6 1e-6 -8e-6 5e-6 -0.0027 0.0017-14.491 9.0439-14.491 9.0439-6e-6 4e-6 -1.2e-5 7e-6 -1.8e-5 1.1e-5 -0.9923 0.6194-1.5419 1.7526-1.4139 2.9154l3e-6 2.1e-5c0.12802 1.1627 0.911 2.1492 2.0143 2.5379 0 0 1.1e-5 4e-6 3.4e-5 1.2e-5 0.0058 2e-3 15.427 5.4275 15.427 5.4275 6e-6 2e-6 1.3e-5 5e-6 1.9e-5 7e-6 2.2263 0.78389 3.9011 2.6255 4.4704 4.9143v2.5e-5 2e-3s1e-6 3e-6 2e-6 1e-5c4.18e-4 0.0017 1.1136 4.4684 1.1136 4.4684h1.4e-5 6.2736s-1e-6 -5e-6 -3e-6 -1.3e-5c-5.56e-4 -0.0022-1.4802-5.9407-1.4802-5.9407-1e-6 -7e-6 -3e-6 -1.3e-5 -4e-6 -1.9e-5 -1.062-4.2693-4.2063-7.7253-8.3563-9.1866 0 0-1.38e-4 -4.9e-5 -4.11e-4 -1.45e-4 -0.06974-0.02454-9.4537-3.3269-9.4537-3.3269s1.33e-4 -8.3e-5 3.97e-4 -2.48e-4c0.06728-0.04198 9.1208-5.6908 9.1208-5.6908 6e-6 -4e-6 1.1e-5 -7e-6 1.7e-5 -1e-5 3.7318-2.3305 6.0473-6.3895 6.1528-10.788v-2.2e-5c9.2e-5 -0.0038 0.24373-10.017 0.24373-10.017l1.8e-5 1.5e-5c0.0031 0.0026 8.2354 6.9157 8.2354 6.9157h2.5e-5c6.69e-4 1e-6 0.0013 1e-6 2e-3 0 1.96e-4 1.64e-4 3.92e-4 3.29e-4 5.88e-4 4.93e-4 3.3696 2.826 7.9439 3.771 12.158 2.5141 0 0 2.32e-4 -6.9e-5 6.94e-4 -2.07e-4 0.05862-0.01749 4.004-1.1947 4.004-1.1947v-2.76e-4 -6.3507s-8.4e-5 2.5e-5 -2.5e-4 7.4e-5c-0.04237 0.01263-5.7443 1.712-5.7443 1.712-2.62e-4 7.8e-5 -5.25e-4 1.57e-4 -7.88e-4 2.35e-4 -2.2611 0.6744-4.6994 0.17018-6.5067-1.3457v9.66e-4 0.0011s-1.89e-4 -1.6e-4 -5.68e-4 -4.78e-4c-0.0965-0.08102-13.082-10.983-13.082-10.983-1.27e-4 -1.07e-4 -2.55e-4 -2.14e-4 -3.83e-4 -3.21e-4 -0.54962-0.46066-1.2442-0.71248-1.9614-0.71106m23.193 43.561m1.1803 2.2169c-0.19847-0.0014-0.38754 0.09043-0.50902 0.24911-3.895-0.02667-7.6051 1.7771-9.9874 4.8951 0 0-0.12874 0.16823-0.12905 0.16863-0.038859 0.050756-2.5263 3.3011-2.5263 3.3011h0.37267 7.3158c0.06979-0.08369 0.17488-0.12957 0.28416-0.12218 1.368-1.6401 3.4296-2.5375 5.5734-2.3885 0 0 0.12259 0.0086 0.12288 0.0087 0.03701 0.002578 2.4056 0.16964 2.4056 0.16964v-0.29583-5.8074s-0.10194-0.0071-0.10218-0.0071c-0.03078-0.0021-2.0003-0.13951-2.0003-0.13951-0.01328-9.26e-4 -0.0265-0.0014-0.03971-0.0015-0.26099-0.01822-0.52096-0.02837-0.78064-0.03017" color="#000000" color-rendering="auto" dominant-baseline="auto" fill-opacity=".054607" image-rendering="auto" opacity="1" solid-color="#000000" style="font-feature-settings:normal;font-variant-alternates:normal;font-variant-caps:normal;font-variant-ligatures:normal;font-variant-numeric:normal;font-variant-position:normal;isolation:auto;mix-blend-mode:normal;paint-order:normal;shape-padding:0;text-decoration-color:#000000;text-decoration-line:none;text-decoration-style:solid;text-indent:0;text-orientation:mixed;text-transform:none;white-space:normal"/>
			<path d="m36.787 9.773c-1.6446 0.00287-2.9877 1.3153-3.0285 2.9594v7e-6c-5.9e-5 0.0024-0.39511 16.294-0.39511 16.294 0 6e-6 -1e-6 1.1e-5 -1e-6 1.7e-5 -0.05636 2.3506-1.2858 4.5065-3.2814 5.7528 0 0-2e-6 1e-6 -6e-6 4e-6 -0.0022 0.0013-14.447 9.0164-14.447 9.0164-5e-6 2e-6 -9e-6 5e-6 -1.4e-5 8e-6 -0.98928 0.61752-1.5372 1.7473-1.4096 2.9065 1e-6 5e-6 1e-6 1e-5 2e-6 1.6e-5 0.12764 1.1592 0.90823 2.1427 2.0082 2.5302l2.7e-5 9e-6c0.0046 0.0016 15.38 5.411 15.38 5.411 5e-6 1e-6 1e-5 3e-6 1.5e-5 5e-6 2.2195 0.78151 3.8892 2.6175 4.4568 4.8994v2e-5 2e-3s1e-6 2e-6 2e-6 8e-6c3.3e-4 0.0013 1.1103 4.4548 1.1103 4.4548h1.1e-5 6.2546s-1e-6 -3e-6 -2e-6 -1e-5c-4.39e-4 -0.0018-1.4757-5.9227-1.4757-5.9227-1e-6 -5e-6 -3e-6 -1e-5 -4e-6 -1.5e-5 -1.0588-4.2563-4.1935-7.7018-8.3309-9.1587 0 0-1.38e-4 -4.9e-5 -4.14e-4 -1.46e-4 -0.07026-0.02473-9.425-3.3168-9.425-3.3168s1.33e-4 -8.4e-5 3.99e-4 -2.5e-4c0.06779-0.0423 9.0931-5.6735 9.0931-5.6735 4e-6 -3e-6 9e-6 -6e-6 1.3e-5 -8e-6 3.7205-2.3235 6.0289-6.3701 6.1341-10.755v-1.7e-5c7.2e-5 -3e-3 0.24299-9.9864 0.24299-9.9864s4e-6 4e-6 1.4e-5 1.2e-5c0.0024 2e-3 8.2104 6.8947 8.2104 6.8947h2e-5 2e-3c1.97e-4 1.65e-4 3.94e-4 3.31e-4 5.91e-4 4.96e-4 3.3593 2.8174 7.9198 3.7595 12.121 2.5065 0 0 2.35e-4 -7e-5 7e-4 -2.09e-4 0.05906-0.01762 3.9918-1.191 3.9918-1.191v-2.78e-4 -6.3314s-8.4e-5 2.5e-5 -2.51e-4 7.5e-5c-0.04269 0.01272-5.7269 1.7068-5.7269 1.7068-2.65e-4 7.9e-5 -5.3e-4 1.58e-4 -7.94e-4 2.37e-4 -2.2542 0.67235-4.6851 0.16965-6.4869-1.3416v9.73e-4 0.0011l-5.73e-4 -4.8e-4c-0.09723-0.08163-13.042-10.95-13.042-10.95-1.29e-4 -1.08e-4 -2.58e-4 -2.15e-4 -3.87e-4 -3.23e-4 -0.54794-0.45926-1.2404-0.71032-1.9554-0.7089m23.369 43.891m0.93056 1.7478c-0.15653-0.0011-0.30564 0.07129-0.40146 0.1964-3.9245-0.02687-7.6627 1.7906-10.063 4.9321 0 0-0.10153 0.13268-0.10184 0.13308-0.03916 0.051171-2.5454 3.3261-2.5454 3.3261h0.29388 7.3713c0.05506-0.06602 0.13795-0.10224 0.22414-0.09646 1.3784-1.6526 3.4555-2.5567 5.6156-2.4066 0 0 0.09668 0.0068 0.09698 0.0068 0.03729 0.0026 2.4238 0.17096 2.4238 0.17096v-0.23328-5.8514s-0.08039-0.0056-0.08064-0.0056c-0.03101-0.0022-2.0154-0.14057-2.0154-0.14057-0.01047-7.3e-4 -0.02089-0.0011-0.0313-0.0012-0.26297-0.01836-0.52491-0.02859-0.78656-0.0304" color="#000000" color-rendering="auto" dominant-baseline="auto" fill-opacity=".054991" image-rendering="auto" opacity="1" solid-color="#000000" style="font-feature-settings:normal;font-variant-alternates:normal;font-variant-caps:normal;font-variant-ligatures:normal;font-variant-numeric:normal;font-variant-position:normal;isolation:auto;mix-blend-mode:normal;paint-order:normal;shape-padding:0;text-decoration-color:#000000;text-decoration-line:none;text-decoration-style:solid;text-indent:0;text-orientation:mixed;text-transform:none;white-space:normal"/>
			<path d="m36.867 9.9334c-1.6398 0.00286-2.9788 1.3114-3.0196 2.9506v5e-6c-4.4e-5 0.0018-0.39394 16.246-0.39394 16.246v1.2e-5c-0.0562 2.3437-1.282 4.4932-3.2717 5.7358 0 0-1e-6 1e-6 -4e-6 3e-6 -0.0016 9.94e-4 -14.404 8.9898-14.404 8.9898-4e-6 2e-6 -7e-6 4e-6 -1.1e-5 6e-6 -0.98636 0.6157-1.5327 1.7421-1.4054 2.8979 0 4e-6 1e-6 8e-6 1e-6 1.2e-5 0.12726 1.1558 0.90555 2.1364 2.0022 2.5227 0 0 6e-6 2e-6 2e-5 7e-6 0.0034 0.0012 15.334 5.395 15.334 5.395 4e-6 1e-6 8e-6 2e-6 1.2e-5 4e-6 2.2129 0.7792 3.8777 2.6098 4.4437 4.8849v1.5e-5 2e-3s0 2e-6 1e-6 6e-6c2.44e-4 9.78e-4 1.107 4.4416 1.107 4.4416h9e-6 6.2361s-1e-6 -3e-6 -2e-6 -8e-6c-3.24e-4 -0.0013-1.4714-5.9052-1.4714-5.9052 0-3e-6 -1e-6 -7e-6 -2e-6 -1.1e-5 -1.0557-4.2437-4.1811-7.6791-8.3063-9.1316 0 0-1.4e-4 -4.9e-5 -4.17e-4 -1.47e-4 -0.07078-0.02491-9.3971-3.307-9.3971-3.307s1.34e-4 -8.4e-5 4.02e-4 -2.51e-4c0.06828-0.04261 9.0662-5.6568 9.0662-5.6568 4e-6 -2e-6 7e-6 -4e-6 1e-5 -6e-6 3.7095-2.3166 6.0111-6.3513 6.1159-10.723 0 0 0-4e-6 1e-6 -1.2e-5 5.3e-5 -0.0022 0.24227-9.9569 0.24227-9.9569s4e-6 3e-6 1.1e-5 9e-6c0.0018 0.0015 8.1861 6.8743 8.1861 6.8743h1.5e-5 2e-3c1.98e-4 1.66e-4 3.97e-4 3.33e-4 5.95e-4 4.99e-4 3.3494 2.809 7.8963 3.7484 12.086 2.4991 0 0 2.36e-4 -7e-5 7.05e-4 -2.1e-4 0.05949-0.01775 3.98-1.1875 3.98-1.1875v-2.8e-4 -6.3126s-8.5e-5 2.5e-5 -2.53e-4 7.5e-5c-0.04301 0.01282-5.7099 1.7018-5.7099 1.7018-2.66e-4 7.9e-5 -5.33e-4 1.59e-4 -8e-4 2.38e-4 -2.2475 0.67036-4.6713 0.16915-6.4677-1.3377v9.8e-4 1e-3s-1.93e-4 -1.62e-4 -5.77e-4 -4.85e-4c-0.09794-0.08223-13.003-10.918-13.003-10.918-1.3e-4 -1.08e-4 -2.59e-4 -2.17e-4 -3.89e-4 -3.26e-4 -0.54632-0.4579-1.2368-0.70821-1.9496-0.7068m23.539 44.212m0.68808 1.2924c-0.1158-8e-4 -0.22612 0.05271-0.29705 0.14522-3.9531-0.02707-7.7186 1.8036-10.137 4.9681 0 0-0.07512 0.09816-0.07543 0.09856-0.039445 0.051549-2.564 3.3504-2.564 3.3504h0.21739 7.4251c0.04075-0.04887 0.10209-0.07571 0.16587-0.07149 1.3884-1.6646 3.4808-2.5754 5.6566-2.4241 0 0 0.07153 5e-3 0.07183 0.0051 0.03756 0.0026 2.4415 0.17218 2.4415 0.17218v-0.17257-5.8941s-0.05948-0.0041-0.05972-0.0042c-0.03124-0.0022-2.0301-0.14159-2.0302-0.14159-0.0077-5.4e-4 -0.01545-8.42e-4 -0.02315-8.95e-4 -0.26489-0.01849-0.52874-0.0288-0.7923-0.03062" color="#000000" color-rendering="auto" dominant-baseline="auto" fill-opacity=".055364" image-rendering="auto" opacity="1" solid-color="#000000" style="font-feature-settings:normal;font-variant-alternates:normal;font-variant-caps:normal;font-variant-ligatures:normal;font-variant-numeric:normal;font-variant-position:normal;isolation:auto;mix-blend-mode:normal;paint-order:normal;shape-padding:0;text-decoration-color:#000000;text-decoration-line:none;text-decoration-style:solid;text-indent:0;text-orientation:mixed;text-transform:none;white-space:normal"/>
			<path d="m36.945 10.089c-1.635 0.0029-2.9703 1.3076-3.0109 2.9421v4e-6c-2.9e-5 0.0012-0.3928 16.199-0.3928 16.199v8e-6c-0.05603 2.3369-1.2783 4.4803-3.2623 5.7192 0 0-1e-6 0-3e-6 2e-6 -1e-3 6.53e-4 -14.363 8.9638-14.363 8.9638-2e-6 2e-6 -4e-6 3e-6 -6e-6 5e-6 -0.98352 0.61392-1.5282 1.7371-1.4014 2.8896 0 2e-6 1e-6 5e-6 1e-6 8e-6 0.12689 1.1524 0.90293 2.1302 1.9965 2.5154 0 0 5e-6 2e-6 1.3e-5 5e-6 0.0022 7.81e-4 15.29 5.3795 15.29 5.3795 3e-6 1e-6 5e-6 1e-6 8e-6 2e-6 2.2066 0.77695 3.8665 2.6022 4.4308 4.8708v9e-6c-1e-6 6.68e-4 -1e-6 0.0013 0 2e-3 0 0 0 1e-6 1e-6 3e-6 1.6e-4 6.43e-4 1.1038 4.4288 1.1038 4.4288h5e-6 6.2181s-1e-6 -2e-6 -1e-6 -5e-6c-2.13e-4 -8.55e-4 -1.4671-5.8882-1.4671-5.8882-1e-6 -3e-6 -1e-6 -5e-6 -2e-6 -7e-6 -1.0526-4.2315-4.169-7.6569-8.2823-9.1052 0 0-1.4e-4 -5e-5 -4.2e-4 -1.48e-4 -0.07127-0.02508-9.37-3.2975-9.37-3.2975s1.36e-4 -8.4e-5 4.05e-4 -2.52e-4c0.06877-0.04291 9.04-5.6404 9.04-5.6404 2e-6 -2e-6 5e-6 -3e-6 7e-6 -4e-6 3.6988-2.3099 5.9938-6.333 6.0983-10.692v-9e-6c3.5e-5 -0.0014 0.24158-9.9282 0.24158-9.9282s2e-6 2e-6 7e-6 6e-6c0.0012 9.95e-4 8.1625 6.8545 8.1625 6.8545h1e-5 2e-3c2e-4 1.68e-4 4e-4 3.35e-4 6e-4 5.03e-4 3.3398 2.8009 7.8736 3.7376 12.051 2.4918 0 0 2.38e-4 -7.1e-5 7.1e-4 -2.12e-4 0.05991-0.01788 3.9685-1.1841 3.9685-1.1841v-2.82e-4 -6.2944s-8.6e-5 2.5e-5 -2.55e-4 7.6e-5c-0.04331 0.01291-5.6935 1.6968-5.6935 1.6968-2.68e-4 8e-5 -5.37e-4 1.61e-4 -8.05e-4 2.41e-4 -2.241 0.66842-4.6578 0.16866-6.4491-1.3338v9.87e-4 1e-3s-1.94e-4 -1.63e-4 -5.81e-4 -4.88e-4c-0.09863-0.08281-12.966-10.886-12.966-10.886-1.31e-4 -1.1e-4 -2.61e-4 -2.19e-4 -3.92e-4 -3.29e-4 -0.54475-0.45658-1.2332-0.70617-1.944-0.70476m23.705 44.523m0.45243 0.84976c-0.07623-5.27e-4 -0.14885 0.03466-0.19557 0.09548-3.981-0.02726-7.773 1.8163-10.208 5.0031 0 0-0.04945 0.06461-0.04976 0.06502-0.039722 0.05194-2.582 3.374-2.582 3.374h0.14306 7.4774c0.02686-0.03221 0.06725-0.04992 0.10924-0.04722 1.3982-1.6763 3.5053-2.5935 5.6964-2.4412 0 0 0.04709 0.0033 0.04738 0.0033 0.03783 0.0027 2.4587 0.17342 2.4587 0.17342v-0.11356-5.9356s-0.03915-0.0027-0.0394-0.0027c-0.03146-0.0022-2.0444-0.14259-2.0444-0.14259-0.0051-3.55e-4 -0.01016-5.53e-4 -0.01522-5.88e-4 -0.26676-0.01862-0.53246-0.029-0.79788-0.03084" color="#000000" color-rendering="auto" dominant-baseline="auto" fill-opacity=".055726" image-rendering="auto" opacity="1" solid-color="#000000" style="font-feature-settings:normal;font-variant-alternates:normal;font-variant-caps:normal;font-variant-ligatures:normal;font-variant-numeric:normal;font-variant-position:normal;isolation:auto;mix-blend-mode:normal;paint-order:normal;shape-padding:0;text-decoration-color:#000000;text-decoration-line:none;text-decoration-style:solid;text-indent:0;text-orientation:mixed;text-transform:none;white-space:normal"/>
			<path d="m37.022 10.241c-1.6304 0.0028-2.9619 1.3039-3.0024 2.9338v1e-6c-1.5e-5 5.83e-4 -0.3917 16.154-0.3917 16.154v4e-6c-0.05588 2.3304-1.2747 4.4677-3.2531 5.7032 0 0-1e-6 0-2e-6 1e-6 -5.16e-4 3.22e-4 -14.323 8.9386-14.323 8.9386-1e-6 1e-6 -2e-6 1e-6 -3e-6 2e-6 -0.98075 0.61219-1.5239 1.7322-1.3974 2.8814 0 2e-6 1e-6 3e-6 1e-6 4e-6 0.12653 1.1492 0.90039 2.1242 1.9908 2.5084 0 0 3e-6 1e-6 7e-6 2e-6 0.0011 3.85e-4 15.247 5.3643 15.247 5.3643 2e-6 0 3e-6 1e-6 4e-6 1e-6 2.2004 0.77476 3.8557 2.5949 4.4184 4.8571v5e-6 2e-3 2e-6c7.9e-5 3.18e-4 1.1007 4.4164 1.1007 4.4164h3e-6 6.2006v-2e-6c-1.05e-4 -4.22e-4 -1.463-5.8716-1.463-5.8716-1e-6 -1e-6 -1e-6 -3e-6 -1e-6 -4e-6 -1.0496-4.2196-4.1573-7.6354-8.259-9.0796 0 0-1.42e-4 -4.9e-5 -4.23e-4 -1.48e-4 -0.07176-0.02525-9.3436-3.2882-9.3436-3.2882l4.08e-4 -2.55e-4c0.06923-0.0432 9.0146-5.6246 9.0146-5.6246 1e-6 0 2e-6 -1e-6 3e-6 -2e-6 3.6884-2.3034 5.9769-6.3152 6.0812-10.662v-4e-6c1.7e-5 -7.11e-4 0.2409-9.9002 0.2409-9.9002s2e-6 1e-6 4e-6 3e-6c5.84e-4 4.91e-4 8.1395 6.8352 8.1395 6.8352h5e-6 2e-3c2.02e-4 1.69e-4 4.03e-4 3.38e-4 6.04e-4 5.07e-4 3.3304 2.7931 7.8514 3.7271 12.017 2.4848 0 0 2.39e-4 -7.1e-5 7.14e-4 -2.13e-4 0.06032-0.017997 3.9574-1.1808 3.9574-1.1808v-2.84e-4 -6.2767s-8.5e-5 2.6e-5 -2.56e-4 7.7e-5c-0.0436 0.013-5.6774 1.6921-5.6774 1.6921-2.7e-4 8.1e-5 -5.4e-4 1.61e-4 -8.1e-4 2.42e-4 -2.2347 0.66654-4.6447 0.16818-6.4309-1.3301v9.94e-4 1e-3s-1.96e-4 -1.64e-4 -5.85e-4 -4.91e-4c-0.0993-0.08337-12.929-10.856-12.929-10.856-1.32e-4 -1.1e-4 -2.63e-4 -2.2e-4 -3.95e-4 -3.3e-4 -0.54321-0.45529-1.2297-0.70418-1.9385-0.70277m23.866 44.826m0.2232 0.41922c-0.03773-2.6e-4 -0.07368 0.0171-0.09686 0.0471-4.0081-0.02745-7.8259 1.8287-10.277 5.0372 0 0-0.02447 0.03198-0.02479 0.03239-0.039989 0.052279-2.5996 3.397-2.5996 3.397h0.07075 7.5282c0.01334-0.01599 0.03335-0.02484 0.05416-0.02361 1.4077-1.6877 3.5291-2.6112 5.7352-2.4578 0 0 0.02331 0.0016 0.02361 0.0017 0.03808 0.0027 2.4754 0.1746 2.4754 0.1746v-0.05616-5.976s-0.01938-0.0014-0.01963-0.0014c-0.03167-0.0022-2.0583-0.14356-2.0584-0.14356-0.0025-1.75e-4 -5e-3 -2.73e-4 -0.0075-2.9e-4 -0.26857-0.01875-0.53608-0.0292-0.80331-0.03105" color="#000000" color-rendering="auto" dominant-baseline="auto" fill-opacity=".056078" image-rendering="auto" opacity="1" solid-color="#000000" style="font-feature-settings:normal;font-variant-alternates:normal;font-variant-caps:normal;font-variant-ligatures:normal;font-variant-numeric:normal;font-variant-position:normal;isolation:auto;mix-blend-mode:normal;paint-order:normal;shape-padding:0;text-decoration-color:#000000;text-decoration-line:none;text-decoration-style:solid;text-indent:0;text-orientation:mixed;text-transform:none;white-space:normal"/>
			<path d="m37.096 10.389c-1.626 0.0028-2.9538 1.3003-2.9941 2.9258l-0.39062 16.109c-0.05572 2.324-1.2712 4.4554-3.2441 5.6875l-14.283 8.9141c-0.97806 0.61051-1.5198 1.7275-1.3936 2.8735 0.12618 1.146 0.89792 2.1184 1.9854 2.5015 0 0 15.205 5.3496 15.205 5.3496 2.1943 0.77263 3.8451 2.5878 4.4062 4.8438v2e-3l1.0977 4.4042h6.1836l-1.459-5.8555c-1.0468-4.208-4.1459-7.6144-8.2363-9.0547 0 0-1.42e-4 -5e-5 -4.25e-4 -1.5e-4 -0.07223-0.02542-9.3179-3.2791-9.3179-3.2791s1.37e-4 -8.6e-5 4.1e-4 -2.56e-4c0.06969-0.04348 8.9898-5.6091 8.9898-5.6091 3.6782-2.2971 5.9605-6.2978 6.0645-10.633l0.24024-9.873 8.1172 6.8164h2e-3c2.03e-4 1.7e-4 4.05e-4 3.4e-4 6.08e-4 5.1e-4 3.3212 2.7854 7.8298 3.7168 11.984 2.478 0 0 2.41e-4 -7.2e-5 7.19e-4 -2.15e-4 0.060715-0.018115 3.9465-1.1775 3.9465-1.1775v-2.86e-4 -6.2595s-8.6e-5 2.6e-5 -2.59e-4 7.7e-5c-0.04389 0.01308-5.6618 1.6874-5.6618 1.6874-2.72e-4 8.1e-5 -5.44e-4 1.62e-4 -8.16e-4 2.44e-4 -2.2286 0.6647-4.6319 0.16771-6.4132-1.3264v1e-3 1e-3s-1.97e-4 -1.65e-4 -5.89e-4 -4.94e-4c-0.09995-0.08392-12.894-10.826-12.894-10.826-1.32e-4 -1.11e-4 -2.65e-4 -2.22e-4 -3.97e-4 -3.33e-4 -0.54172-0.45404-1.2264-0.70224-1.9332-0.70084m24.023 45.121c-2.46e-4 -2e-6 -4.93e-4 -3e-6 -7.39e-4 -5e-6 -4.0344-0.02763-7.8774 1.8407-10.345 5.0703 0 0-1.6e-4 2.09e-4 -4.77e-4 6.23e-4 -0.040257 0.052605-2.6167 3.4193-2.6167 3.4193h3.46e-4 7.5778c1.73e-4 -2.07e-4 3.46e-4 -4.15e-4 5.19e-4 -6.22e-4 1.417-1.6989 3.5524-2.6283 5.7729-2.474 0 0 1.52e-4 1.1e-5 4.54e-4 3.2e-5 0.038334 0.002704 2.4917 0.17575 2.4917 0.17575v-2.75e-4 -6.0154s-1.26e-4 -9e-6 -3.77e-4 -2.6e-5c-0.03188-0.0022-2.0719-0.1445-2.0719-0.1445-0.27034-0.01887-0.53961-0.02939-0.80859-0.03125" color="#000000" color-rendering="auto" dominant-baseline="auto" fill-opacity=".056422" image-rendering="auto" opacity="1" solid-color="#000000" style="font-feature-settings:normal;font-variant-alternates:normal;font-variant-caps:normal;font-variant-ligatures:normal;font-variant-numeric:normal;font-variant-position:normal;isolation:auto;mix-blend-mode:normal;paint-order:normal;shape-padding:0;text-decoration-color:#000000;text-decoration-line:none;text-decoration-style:solid;text-indent:0;text-orientation:mixed;text-transform:none;white-space:normal"/>
		</g>
		<path d="m37.096 10.389a3.0003 3.0003 0 0 0-2.9941 2.9258l-0.39062 16.109c-0.05572 2.324-1.2712 4.4554-3.2441 5.6875l-14.283 8.9141a3.0003 3.0003 0 0 0 0.5918 5.375l15.205 5.3496c2.1943 0.77263 3.8451 2.5878 4.4062 4.8438a3.0003 3.0003 0 0 0 0 2e-3l1.0977 4.4042h6.1836l-1.459-5.8555c-1.0468-4.208-4.1459-7.6144-8.2363-9.0547l-9.3184-3.2793 8.9902-5.6094c3.6782-2.2971 5.9605-6.2978 6.0645-10.633l0.24024-9.873 8.1172 6.8164a3.0003 3.0003 0 0 0 2e-3 0c3.3213 2.7858 7.8302 3.7174 11.984 2.4785l3.9472-1.1777v-6.2598l-5.6621 1.6875c-2.2288 0.66507-4.6325 0.16814-6.4141-1.3262v2e-3l-12.895-10.826a3.0003 3.0003 0 0 0-1.9336-0.70117zm24.023 45.121c-4.0347-0.02786-7.8779 1.8405-10.346 5.0703l-2.6172 3.4199h7.5781c1.417-1.6992 3.5526-2.629 5.7734-2.4746l2.4922 0.17578v-6.0156l-2.0723-0.14453c-0.27034-0.01887-0.53961-0.02939-0.80859-0.03125z" color="#000000" color-rendering="auto" dominant-baseline="auto" fill="url(#d)" image-rendering="auto" shape-rendering="auto" solid-color="#000000" style="font-feature-settings:normal;font-variant-alternates:normal;font-variant-caps:normal;font-variant-ligatures:normal;font-variant-numeric:normal;font-variant-position:normal;isolation:auto;mix-blend-mode:normal;paint-order:normal;shape-padding:0;text-decoration-color:#000000;text-decoration-line:none;text-decoration-style:solid;text-indent:0;text-orientation:mixed;text-transform:none;white-space:normal"/>
		<path d="m40.067 19.895c-0.35898 0.47417-0.08791 1.2305-0.18795 1.7943-0.0879 3.3547-0.10889 6.7218-0.45982 10.059-0.70394 3.5612-2.949 6.8052-6.1275 8.5933-2.7232 1.8425-5.6317 3.4348-8.2824 5.3794 0.15233 0.42376 0.90529 0.39991 1.2611 0.64815 3.2384 1.2779 6.6393 2.1603 9.7669 3.7021 3.2808 1.8214 5.5731 5.166 6.3191 8.8168 0.46424 1.6486 0.76518 3.3753 1.3063 4.9839 1.4536 0.2945 2.9829 0.06508 4.4625 0.14142 2.0932-2.4943 3.8782-5.5111 6.9309-6.9885 2.1841-1.1622 4.6576-1.5815 7.1105-1.3841 0.5528-0.17285 1.818 0.44626 1.8903-0.30907 0-9.1503-1e-6 -18.301 0-27.451-0.53325-0.14448-1.2528 0.35678-1.8588 0.45564-2.3441 0.79068-4.8071 1.2907-7.2831 1.01-2.9444-0.1641-5.6408-1.734-7.8035-3.6732-2.339-1.9104-4.5945-3.928-6.9833-5.7741l-0.05613-0.0056z" fill="#1774f2" style="paint-order:normal"/>
		<path d="m49.49 27.473c-1.9072 1.0406-3.8817 2.1603-5.9453 3.3984-1.7212 1.0327-3.3518 2.1679-4.8984 3.377-1.071 2.5383-2.9418 4.7359-5.3555 6.0938-0.96552 0.65326-1.9549 1.2754-2.9473 1.8926-1.2438 1.4428-2.3937 2.9046-3.4629 4.3594 3.0541 1.1559 6.2235 2.0328 9.1562 3.4785 3.2808 1.8214 5.5724 5.1656 6.3184 8.8164 0.46424 1.6486 0.76551 3.3758 1.3066 4.9844 1.4536 0.2945 2.9833 0.06428 4.4629 0.14062 2.0932-2.4943 3.8789-5.5109 6.9316-6.9883 2.1841-1.1622 4.6565-1.5802 7.1094-1.3828 0.5528-0.17285 1.8184 0.44479 1.8906-0.31055v-27.451c-0.53325-0.14448-1.2534 0.35818-1.8594 0.45703-2.3441 0.79068-4.8072 1.2904-7.2832 1.0098-1.9452-0.10841-3.7775-0.83834-5.4238-1.875z" fill="url(#a)" style="paint-order:normal"/>
		<path d="m50.908 21.062c-1.8061 0.91827-3.7158 1.9429-5.6953 3.0527l2.8535 2.3965a3.0003 3.0003 0 0 0 2e-3 0c3.3213 2.7858 7.8302 3.7174 11.984 2.4785l3.9472-1.1777v-6.2598l-5.6621 1.6875c-2.2288 0.66507-4.6325 0.16814-6.4141-1.3262v2e-3zm-11.145 6.2637c-2.5209 1.6151-4.8502 3.4394-6.9824 5.3926-0.5562 0.95914-1.3424 1.7855-2.3145 2.3926l-0.375 0.23438c-4.7253 4.9114-8.341 10.286-10.965 14.881l12.854 4.5234c2.1943 0.77263 3.8451 2.5878 4.4062 4.8438a3.0003 3.0003 0 0 0 0 2e-3l1.0977 4.4042h6.1836l-1.459-5.8555c-1.0468-4.208-4.1459-7.6144-8.2363-9.0547l-9.3184-3.2793 8.9902-5.6094c3.6782-2.2971 5.9605-6.2978 6.0645-10.633zm21.355 28.184c-4.0347-0.02786-7.8779 1.8405-10.346 5.0703l-2.6172 3.4199h7.5781c1.417-1.6992 3.5526-2.629 5.7734-2.4746l2.4922 0.17578v-6.0156l-2.0723-0.14453c-0.27034-0.01887-0.53961-0.02939-0.80859-0.03125z" fill="url(#b)" style="paint-order:normal"/>
	</g>
</svg>
