<?xml version="1.0" encoding="UTF-8"?>
<!-- Created with Inkscape (http://www.inkscape.org/) -->
<svg width="64" height="64" version="1.1" xmlns="http://www.w3.org/2000/svg" xmlns:cc="http://creativecommons.org/ns#" xmlns:dc="http://purl.org/dc/elements/1.1/" xmlns:rdf="http://www.w3.org/1999/02/22-rdf-syntax-ns#" xmlns:xlink="http://www.w3.org/1999/xlink">
	<defs>
		<linearGradient id="a">
			<stop stop-color="#44ecff" stop-opacity=".22495" offset="0"/>
			<stop stop-color="#4aefff" stop-opacity=".11829" offset=".5"/>
			<stop stop-color="#6af4ff" stop-opacity=".05042" offset=".75"/>
			<stop stop-color="#4df5ff" stop-opacity="0" offset="1"/>
		</linearGradient>
		<radialGradient id="f" cx="33.422" cy="18" r="32" gradientTransform="matrix(0 1.3522 -1.5625 0 60.125 -24.192)" gradientUnits="userSpaceOnUse">
			<stop stop-color="#9f2d39" offset="0"/>
			<stop stop-color="#702828" offset="1"/>
		</radialGradient>
		<radialGradient id="e" cx="26.312" cy="42.443" r="32" gradientTransform="matrix(1.5611 1.5205e-8 0 .18746 -11.771 26.369)" gradientUnits="userSpaceOnUse" xlink:href="#a"/>
		<radialGradient id="d" cx="21.274" cy="32.829" r="32" gradientTransform="matrix(.61616 0 0 .84636 9.2121 5.1266)" gradientUnits="userSpaceOnUse" xlink:href="#a"/>
		<radialGradient id="c" cx="34.472" cy="49.389" r="32" fx="34.318" fy="18.373" gradientTransform="matrix(2.544 -5.3372e-8 4.5386e-8 1.75 -48.699 -34.431)" gradientUnits="userSpaceOnUse">
			<stop stop-color="#3259ff" stop-opacity=".29936" offset="0"/>
			<stop stop-color="#26fffd" stop-opacity="0" offset="1"/>
		</radialGradient>
		<radialGradient id="b" cx="71.022" cy="16.185" r="24.508" fx="60.629" fy="-9.108" gradientTransform="matrix(.6596 -1.1425 .49648 .28664 -5.8814 84.5)" gradientUnits="userSpaceOnUse">
			<stop stop-color="#c4b7f9" offset="0"/>
			<stop stop-color="#c5fcec" offset="1"/>
		</radialGradient>
	</defs>
	<metadata>
		<rdf:RDF>
			<cc:Work rdf:about="">
				<dc:format>image/svg+xml</dc:format>
				<dc:type rdf:resource="http://purl.org/dc/dcmitype/StillImage"/>
				<dc:title/>
			</cc:Work>
		</rdf:RDF>
	</metadata>
	<path d="m0 2v32 28l2 2h30 30l2-2v-28-32h-32z" color="#000000" fill="url(#d)"/>
	<path d="m0 2v32 28l2 2h30 30l2-2v-28-32h-32z" color="#000000" fill="url(#e)"/>
	<path d="m0 2v32 28l2 2h30 30l2-2v-28-32h-32z" color="#000000" fill="url(#f)"/>
	<path d="m0 2v32 28l2 2h30 30l2-2v-28-32h-32z" color="#000000" fill="#e80e5d"/>
	<path d="m0 2v32 28l2 2h30 30l2-2v-28-32h-32z" color="#000000" fill="url(#c)"/>
	<path d="m2 0-2 1v1h32 32v-1l-2-1h-30z" color="#000000" fill="#ff92e1"/>
	<path d="m0 1v3l2-2z" fill="#ffa9e7"/>
	<path d="m64 4-2-2 2-1z" fill="#f053a0"/>
	<path d="m7.9831 51.762 24.508-41.718 24.508 41.718c-0.79887-0.03617-1.7174-0.59544-2.5906-0.68097-0.58513-0.05732-1.1589 0.08071-1.7185 0.0544-0.48863-0.02298-0.89982-1.2542-1.3984-1.3245-0.55535-0.07831-0.89196 1.2281-1.7644 1.118-1.0521-0.13283-0.35564-2.7218-1.4088-2.7218-0.74616 0-0.69352 2.1899-1.6258 2.2139-1.2654 0.03267-0.36604-4.5122-1.4877-4.5122-1.0903 0-0.54527 3.9575-1.6866 3.9282-1.0151-0.02608-0.61889-6.4948-1.5553-6.41-0.81766 0.074-0.49699 5.8814-1.5335 5.8119-1.204-0.08066-0.71491-8.4089-1.6118-8.4437-0.72765-0.02825-0.52864 7.8559-1.5206 7.828-1.2729-0.0357-0.55212-11.004-1.5243-10.769-1.0399 0.25064-0.69968 10.166-1.6853 10.155-0.90643-0.01-0.57126-12.59-1.3969-12.621-0.98685-0.03747-0.39989 12.074-1.7438 12.076-1.0903 0.0014-0.29114-13.668-1.4556-13.624-0.88534 0.03366-0.46204 13.359-1.5524 13.234-1.368-0.15595-0.62692-13.603-1.7121-13.612-1.0468-9e-3 -0.56949 13.54-1.2471 13.741-1.4519 0.14555-0.70107-12.592-1.8069-12.6-0.69387-0.0049-0.43371 12.766-1.5579 13.257-0.6228 0.27219-0.59378-10.05-1.5935-10.269-0.55625-0.12204-0.08936 10.712-1.5398 11.161-1.2641 0.39184-0.65935-6.1301-1.5656-6.1399-0.93221-0.01015-0.1255 6.822-1.403 7.2057-1.2036 0.36156-0.65934-2.8964-1.8009-2.8354-1.0326 0.05521-0.13756 2.9113-1.3908 3.2343-0.74784 0.19274-1.0338-0.30179-1.6304-0.19206-0.85048 0.15642-1.8127 1.7373-2.5086 1.7373z" fill="url(#b)"/>
</svg>
