<?xml version="1.0" encoding="UTF-8"?>
<!-- Created with Inkscape (http://www.inkscape.org/) -->
<svg width="64" height="64" version="1.1" xmlns="http://www.w3.org/2000/svg" xmlns:cc="http://creativecommons.org/ns#" xmlns:dc="http://purl.org/dc/elements/1.1/" xmlns:rdf="http://www.w3.org/1999/02/22-rdf-syntax-ns#" xmlns:xlink="http://www.w3.org/1999/xlink">
	<defs>
		<linearGradient id="a">
			<stop stop-color="#9d0055" offset="0"/>
			<stop stop-color="#130071" stop-opacity=".5451" offset=".17789"/>
			<stop stop-color="#5d0080" stop-opacity=".36863" offset=".34046"/>
			<stop stop-color="#68006d" stop-opacity=".20046" offset=".48357"/>
			<stop stop-color="#4d0085" stop-opacity=".069659" offset=".66441"/>
			<stop stop-color="#4d0085" stop-opacity="0" offset="1"/>
		</linearGradient>
		<radialGradient id="e" cx="21.274" cy="32.829" r="32" gradientTransform="matrix(.61616 0 0 .84636 9.212 5.1265)" gradientUnits="userSpaceOnUse" xlink:href="#b"/>
		<linearGradient id="b">
			<stop stop-color="#44ecff" stop-opacity=".22495" offset="0"/>
			<stop stop-color="#4aefff" stop-opacity=".11829" offset=".5"/>
			<stop stop-color="#6af4ff" stop-opacity=".05042" offset=".75"/>
			<stop stop-color="#4df5ff" stop-opacity="0" offset="1"/>
		</linearGradient>
		<radialGradient id="g" cx="26.312" cy="42.443" r="32" gradientTransform="matrix(1.5611 1.5205e-8 0 .18746 -11.771 26.369)" gradientUnits="userSpaceOnUse" xlink:href="#b"/>
		<radialGradient id="m" cx="32" cy="43.394" r="32" gradientTransform="matrix(2.125 -5.1805e-8 7.1049e-8 2.9144 -36 -83.261)" gradientUnits="userSpaceOnUse">
			<stop stop-color="#fff41e" offset="0"/>
			<stop stop-color="#ffea23" stop-opacity=".80805" offset=".11765"/>
			<stop stop-color="#ff6be0" stop-opacity=".47678" offset=".60585"/>
			<stop stop-color="#8e0dff" stop-opacity=".33669" offset="1"/>
		</radialGradient>
		<radialGradient id="l" cx="-4.928" cy="35.384" r="27.994" fx="27.413" fy="38.937" gradientTransform="matrix(1.2626 -.55824 .26828 .60681 -16.146 33.045)" gradientUnits="userSpaceOnUse" xlink:href="#a"/>
		<radialGradient id="k" cx="-5.1495" cy="35.765" r="27.994" fx="24.962" fy="43.081" gradientTransform="matrix(1.1618 .74571 -.35838 .55835 8.3344 9.0317)" gradientUnits="userSpaceOnUse" xlink:href="#a"/>
		<linearGradient id="o" x1="29.457" x2="8.4565" y1="4.0957" y2="12.096" gradientTransform="matrix(.99728 .070505 -.073753 .95336 .942 .26144)" gradientUnits="userSpaceOnUse">
			<stop stop-color="#44358d" offset="0"/>
			<stop stop-color="#162858" offset="1"/>
		</linearGradient>
		<radialGradient id="j" cx="37.291" cy="-3.5898" r="13.277" gradientTransform="matrix(-.95459 .068522 -.012465 -.17365 66.257 5.6405)" gradientUnits="userSpaceOnUse">
			<stop stop-color="#e50f7d" offset="0"/>
			<stop stop-color="#e50f7d" stop-opacity=".9098" offset=".06894"/>
			<stop stop-color="#e50f7d" stop-opacity="0" offset="1"/>
		</radialGradient>
		<radialGradient id="i" cx="9.8165" cy="25.305" r="2.8701" gradientTransform="matrix(.53734 .00034466 -.003008 4.6898 3.6041 -87.581)" gradientUnits="userSpaceOnUse">
			<stop stop-color="#0b254b" offset="0"/>
			<stop stop-color="#493999" offset="1"/>
		</radialGradient>
		<linearGradient id="n" x1="29.009" x2="6.4565" y1="3.7506" y2="3.7506" gradientTransform="translate(0,1)" gradientUnits="userSpaceOnUse">
			<stop stop-color="#493999" offset="0"/>
			<stop stop-color="#6c5ac2" offset=".74839"/>
			<stop stop-color="#493999" offset="1"/>
		</linearGradient>
		<radialGradient id="h" cx="3.6975" cy="42.675" r="7.6863" fx=".42638" fy="36.31" gradientTransform="matrix(1.0057 0 0 1.4501 .18601 -18.831)" gradientUnits="userSpaceOnUse">
			<stop stop-color="#00f696" offset="0"/>
			<stop stop-color="#00518b" offset=".63288"/>
			<stop stop-color="#6a458f" offset="1"/>
		</radialGradient>
		<radialGradient id="f" cx="8.899" cy="41.178" r="9.3382" fx="11.753" fy="41.4" gradientTransform="matrix(1.0679 0 1.37e-8 1.6335 -.44698 -26.258)" gradientUnits="userSpaceOnUse">
			<stop stop-color="#0f2d57" offset="0"/>
			<stop stop-color="#142d51" stop-opacity=".4613" offset=".36302"/>
			<stop stop-color="#0e294d" stop-opacity=".43963" offset=".52711"/>
			<stop stop-color="#2e5183" stop-opacity=".92549" offset=".68624"/>
			<stop stop-color="#080117" stop-opacity="0" offset="1"/>
		</radialGradient>
		<radialGradient id="d" cx="12.307" cy="41.365" r="9.3382" fx="6.8687" fy="41.671" gradientTransform="matrix(.93948 -1.9711e-8 2.9306e-8 1.3968 .50147 -16.478)" gradientUnits="userSpaceOnUse">
			<stop stop-color="#fffc00" offset="0"/>
			<stop stop-color="#ff0253" offset=".31442"/>
			<stop stop-color="#c912ff" stop-opacity=".70588" offset=".60887"/>
			<stop stop-color="#8805ff" stop-opacity=".36863" offset=".77994"/>
			<stop stop-color="#6200ff" stop-opacity=".05098" offset=".92783"/>
			<stop stop-color="#36245c" stop-opacity=".16471" offset="1"/>
		</radialGradient>
		<radialGradient id="c" cx="7.1573" cy="41.716" r="5.4158" fx="2.9405" fy="41.623" gradientTransform="matrix(.96595 0 0 1.6462 3.0974 -26.735)" gradientUnits="userSpaceOnUse">
			<stop stop-color="#ffe200" offset="0"/>
			<stop stop-color="#ff066d" stop-opacity=".68189" offset=".73784"/>
			<stop stop-color="#d2003c" stop-opacity="0" offset="1"/>
		</radialGradient>
	</defs>
	<metadata>
		<rdf:RDF>
			<cc:Work rdf:about="">
				<dc:format>image/svg+xml</dc:format>
				<dc:type rdf:resource="http://purl.org/dc/dcmitype/StillImage"/>
				<dc:title/>
			</cc:Work>
		</rdf:RDF>
	</metadata>
	<path d="m0 2v60l2 2h60l2-2v-60h-32z" color="#000000" fill="url(#e)"/>
	<path d="m0 2v60l2 2h60l2-2v-60h-32z" color="#000000" fill="url(#g)"/>
	<path d="m0 2v60l2 2h60l2-2v-60h-32z" color="#000000" fill="#eb9020"/>
	<path d="m0 2v60l2 2h60l2-2v-60h-32z" color="#000000" fill="url(#m)"/>
	<path d="m2 0-2 1v1h64v-1l-2-1h-30z" color="#000000" fill="#ffef7a"/>
	<path d="m0 1v3l2-2z" fill="#fff4a2"/>
	<path d="m64 4-2-2 2-1z" fill="#faba78" fill-opacity=".99816"/>
	<g transform="translate(.54345 3.9043)">
		<g id="p" transform="translate(.054688)">
			<path d="m3.0054 36.93a17.789 35.349 76.235 0 0-3.5488 0.02539v21.141l2 2h18.541a17.789 35.349 76.235 0 0-3.1094-20.406 17.789 35.349 76.235 0 0-13.883-2.7598z" fill="url(#l)" style="paint-order:normal"/>
			<path d="m-0.54345 9.6957v42.674a35.349 17.789 42.781 0 0 21.545-12.113 35.349 17.789 42.781 0 0-21.545-30.561z" fill="url(#k)" style="paint-order:normal"/>
			<path d="m31.457 6.0957c-9.9718-0.70498-19.817 4.8536-26.555 13.709l2.1093-1.3427c6.5396-8.5946 16.802-10.866 24.446-10.866z" color="#000000" color-rendering="auto" dominant-baseline="auto" fill="url(#o)" image-rendering="auto" shape-rendering="auto" solid-color="#000000" style="font-feature-settings:normal;font-variant-alternates:normal;font-variant-caps:normal;font-variant-ligatures:normal;font-variant-numeric:normal;font-variant-position:normal;isolation:auto;mix-blend-mode:normal;paint-order:normal;shape-padding:0;text-decoration-color:#000000;text-decoration-line:none;text-decoration-style:solid;text-indent:0;text-orientation:mixed;text-transform:none;white-space:normal"/>
			<path d="m31.457 6.0957c-9.9718-0.70498-19.817 4.8536-26.555 13.709l2.1093-1.3427c6.5396-8.5946 16.802-10.866 24.446-10.866z" color="#000000" color-rendering="auto" dominant-baseline="auto" fill="url(#j)" image-rendering="auto" shape-rendering="auto" solid-color="#000000" style="font-feature-settings:normal;font-variant-alternates:normal;font-variant-caps:normal;font-variant-ligatures:normal;font-variant-numeric:normal;font-variant-position:normal;isolation:auto;mix-blend-mode:normal;paint-order:normal;shape-padding:0;text-decoration-color:#000000;text-decoration-line:none;text-decoration-style:solid;text-indent:0;text-orientation:mixed;text-transform:none;white-space:normal"/>
			<path d="m7.9424 14.879c-1.7962 8.6065-1.6254 18.928 0.49536 28.434l2.6057-0.53136c-1.8572-8.0073-2.8105-22.239-1.3997-27.194-0.62261-3.8886 0.70225-4.5121 0.16843-4.7493-0.5323 0.07225-1.2673 1.4474-1.8697 4.0411z" color="#000000" color-rendering="auto" dominant-baseline="auto" fill="url(#i)" image-rendering="auto" shape-rendering="auto" solid-color="#000000" style="font-feature-settings:normal;font-variant-alternates:normal;font-variant-caps:normal;font-variant-ligatures:normal;font-variant-numeric:normal;font-variant-position:normal;isolation:auto;mix-blend-mode:normal;paint-order:normal;shape-padding:0;text-decoration-color:#000000;text-decoration-line:none;text-decoration-style:solid;text-indent:0;text-orientation:mixed;text-transform:none;white-space:normal"/>
			<path d="m31.456 4.0951c-9.999 0-19.963 7.2657-25.999 17.001l2-1.5563c5.8587-9.4484 14.994-13.444 24-13.444z" color="#000000" color-rendering="auto" dominant-baseline="auto" fill="url(#n)" image-rendering="auto" shape-rendering="auto" solid-color="#000000" style="font-feature-settings:normal;font-variant-alternates:normal;font-variant-caps:normal;font-variant-ligatures:normal;font-variant-numeric:normal;font-variant-position:normal;isolation:auto;mix-blend-mode:normal;paint-order:normal;shape-padding:0;text-decoration-color:#000000;text-decoration-line:none;text-decoration-style:solid;text-indent:0;text-orientation:mixed;text-transform:none;white-space:normal"/>
			<g transform="rotate(-4.4682,22.066,32.095)">
				<ellipse transform="rotate(-15)" cx="3.646" cy="41.79" rx="7.6863" ry="9.5458" fill="url(#h)" style="paint-order:normal"/>
				<g>
					<ellipse transform="rotate(-15)" cx="8.1408" cy="41.5" rx="9.3382" ry="13.884" fill="#104185" style="paint-order:normal"/>
					<ellipse transform="rotate(-15)" cx="8.1408" cy="41.5" rx="9.3382" ry="13.884" fill="url(#f)" style="paint-order:normal"/>
					<ellipse transform="rotate(-15)" cx="8.1408" cy="41.5" rx="9.3382" ry="13.884" fill="url(#d)" style="paint-order:normal"/>
				</g>
				<ellipse transform="rotate(-15)" cx="10.365" cy="41.66" rx="6.0855" ry="9.048" fill="url(#c)" style="paint-order:normal"/>
			</g>
		</g>
		<use transform="matrix(-1 0 0 1 62.967 0)" width="100%" height="100%" xlink:href="#p"/>
	</g>
	<g transform="translate(0 .65882)" fill="none" stroke="#ffff00" stroke-width=".2">
		<path d="m18.146 43.768c-0.73653 0.0051-0.4002-2.0862 0.08873-1.5972 0.08079 0.08079 0.32833 0.34718 0.53476 0.64014 0.25816 0.36636 0.45203 0.77427 0.17512 0.91273-0.17916 0.08958-0.30616 0.04459-0.39072-0.07512-0.29689-0.4203-0.07066-1.7616 0.25761-1.4334 0.09166 0.09166 0.17403 0.19528 0.24841 0.30662 0.58509 0.87581 0.67602 2.2296 0.90514 2.0005 0.19915-0.19915 0.34366-0.52222 0.44289-0.81074 0.12509-0.36368 0.17825-0.67247 0.17825-0.60902 0 0.87701 0.66551 1.8212 0.66551 1.7747 0-0.10074 0.02256-0.22628 0.05828-0.36086 0.08226-0.30997 0.23428-0.66793 0.34103-0.88143 0.98894-1.9779 0.13182 2.0878 1.331-0.31057 0.0034-0.0067 0.0068-0.01353 0.01017-0.02038 0.24634-0.49441 0.61097-1.2908 0.61097-1.843 0-0.79613 1.5017-1.4265 2.174-0.75425 0.43274 0.43274 0.79062 1.1252 0.79862 1.1092 0.15401-0.30801 0.58488-3.0976 1.4641-2.2184 0.9701 0.9701 1.0378 2.0582 1.7747 2.7952 0.2322 0.2322-0.09909 1.2083 0.1331 0.97608 0.0739-0.0739 0.13724-0.13376 0.19184-0.18108 0.52786-0.4574 0.23968 0.25766 0.78424 0.80222 0.08619 0.08619 0.2392-0.19109 0.41569-0.61116 0.39183-0.93262 0.89939-2.5691 1.0484-2.4946 0.05134 0.02567 0.1281 0.13248 0.21907 0.28683 0.37833 0.64188 1.0026 2.106 1.0676 1.9759 0.06396-0.12792 0.1479-0.28345 0.24348-0.45024 0.48354-0.84382 1.265-1.9759 1.265-1.2801 0 0.08248 0.02902 0.90245 0.09358 1.7924 0.08856 1.2207 0.24401 2.573 0.4832 2.3338 0.94947-0.94947 2.3203-8.3411 3.017-8.3411 0.71226 0 1.7303-1.9732 1.7303-1.5085 0 0.29961 0.49522 2.8246 0.96296 5.0912 0.39623 1.92 0.77273 3.6546 0.81174 3.6936 0.18852 0.18852 0.44367-0.29578 0.66551-0.44368 0.55079-0.36719 1.4246-0.49293 1.7747-0.84298 0.48676-0.48676 0.99157-0.36268 1.5085-0.62114 0.16147-0.08073 0.31057 0.6242 0.31057 0.44368 0-0.67104 0.26594-0.88762-0.2662-1.4198-0.1607-0.1607-1.4776 1.7014-1.1536 1.8634 0.4954 0.2477 0.91476-0.56376 0.97608-0.93172" stroke-opacity=".12926" style="paint-order:normal"/>
		<path d="m18.144 43.763c-0.73448 0.0049-0.40005-2.0816 0.08709-1.5955 0.0804 0.07994 0.32718 0.34502 0.53326 0.63694 0.25772 0.36505 0.45145 0.77244 0.1757 0.91097-0.17839 0.08966-0.30484 0.04504-0.38914-0.07458-0.29598-0.41967-0.07056-1.7582 0.25686-1.4317 0.09142 0.09113 0.17362 0.19422 0.24789 0.30511 0.58356 0.87285 0.67537 2.2242 0.90462 1.997 0.19901-0.19783 0.34344-0.51937 0.4424-0.80709 0.12478-0.3628 0.1779-0.67099 0.17804-0.60811 3.34e-4 0.87338 0.66427 1.8135 0.66476 1.7665 1.41e-4 -0.10061 0.02278-0.2259 0.05852-0.36014 0.08229-0.30916 0.23434-0.6658 0.34135-0.87827 0.98716-1.971 0.1343 2.0838 1.3303-0.30668 0.0034-0.0067 0.0068-0.01347 0.01017-0.0203 0.24632-0.49214 0.61057-1.2854 0.61132-1.8353 0.0011-0.79268 1.4993-1.4202 2.1707-0.74918 0.432 0.43183 0.78937 1.1225 0.79796 1.107 0.15493-0.30622 0.58595-3.0865 1.4641-2.2095 0.96869 0.96764 1.0378 2.0528 1.7744 2.7876 0.23205 0.23153-0.09764 1.2046 0.13444 0.97317 0.07381-0.07367 0.13709-0.13335 0.19167-0.18052 0.52668-0.45599 0.24036 0.25693 0.78405 0.79977 0.08647 0.0859 0.23948-0.19061 0.4156-0.60957 0.39142-0.93055 0.89935-2.5621 1.0491-2.4886 0.05135 0.02549 0.12802 0.13185 0.21884 0.28559 0.37812 0.63896 1.0007 2.0974 1.0661 1.9668 0.06391-0.12775 0.14775-0.28302 0.24323-0.44949 0.48215-0.84132 1.2622-1.9713 1.2632-1.2789 9.18e-4 0.08109 0.03076 0.89755 0.0953 1.7851 0.08865 1.2177 0.24447 2.5669 0.4841 2.3298 0.94909-0.94377 2.3198-8.309 3.0184-8.3064 0.7112 7.21e-4 1.7273-1.9657 1.7284-1.502 0.0031 0.30012 0.49958 2.8179 0.96778 5.0762 0.39615 1.9134 0.77335 3.6415 0.81441 3.6793 0.18834 0.18774 0.44311-0.29529 0.66469-0.44293 0.55-0.36652 1.4221-0.49232 1.772-0.84173 0.48605-0.48562 0.99011-0.36229 1.5062-0.62029 0.16128-0.08061 0.31023 0.62202 0.31053 0.44193 7.6e-4 -0.66928 0.26663-0.88549-0.26315-1.4163-0.15895-0.16065-1.4706 1.6954-1.1465 1.8566 0.49478 0.24673 0.91366-0.56235 0.97546-0.92918" stroke-opacity=".13193" style="paint-order:normal"/>
		<path d="m18.138 43.748c-0.72886 0.0044-0.39964-2.0693 0.08261-1.5906 0.07934 0.07762 0.32404 0.33913 0.52915 0.6282 0.25652 0.36149 0.44986 0.76745 0.1773 0.90618-0.17627 0.08987-0.30124 0.04628-0.38483-0.0731-0.29348-0.41794-0.07028-1.7486 0.25479-1.427 0.09079 0.08967 0.17249 0.19136 0.24645 0.30099 0.57938 0.86476 0.67361 2.2094 0.90321 1.9875 0.19864-0.19425 0.34286-0.5116 0.44107-0.79713 0.12395-0.36041 0.17693-0.66693 0.17745-0.60564 0.0012 0.86348 0.66089 1.7925 0.66269 1.7441 5.27e-4 -0.10027 0.02336-0.22488 0.05918-0.35817 0.08236-0.30694 0.23452-0.65999 0.34221-0.86963 0.98229-1.9521 0.14106 2.073 1.3284-0.29606 0.0034-0.0066 0.0067-0.01332 0.01014-0.02006 0.24628-0.48596 0.60949-1.2705 0.61226-1.8139 0.0041-0.78327 1.4927-1.403 2.1615-0.73535 0.42996 0.42936 0.78597 1.1153 0.79615 1.1009 0.15745-0.30131 0.58886-3.0563 1.4639-2.1851 0.96484 0.96092 1.0381 2.0379 1.7735 2.7669 0.23165 0.22971-0.09366 1.1947 0.1381 0.9652 0.07356-0.07304 0.1367-0.13222 0.1912-0.17899 0.52343-0.45215 0.24221 0.25492 0.78354 0.79306 0.08724 0.08509 0.24024-0.1893 0.41535-0.6052 0.3903-0.92488 0.89924-2.5431 1.051-2.4723 0.05137 0.02499 0.1278 0.13014 0.21822 0.28222 0.37755 0.63096 0.99556 2.074 1.0621 1.9418 0.06376-0.12729 0.14734-0.28182 0.24255-0.44743 0.47835-0.83449 1.2546-1.9588 1.2583-1.2756 0.0034 0.07727 0.03551 0.88415 0.10002 1.7652 0.08888 1.2094 0.24571 2.5503 0.48657 2.3187 0.94805-0.92819 2.3184-8.2213 3.0224-8.2116 0.70832 0.0027 1.7189-1.9454 1.7231-1.4842 0.0114 0.30153 0.51148 2.7995 0.98098 5.0353 0.39594 1.8952 0.77504 3.6058 0.8217 3.6402 0.18784 0.1856 0.44159-0.29393 0.66243-0.4409 0.54784-0.36466 1.4152-0.49065 1.7648-0.83832 0.48412-0.48253 0.98612-0.3612 1.5001-0.61795 0.16076-0.08029 0.3093 0.61608 0.31043 0.43716 0.0028-0.66449 0.26852-0.87967-0.2548-1.4067-0.15417-0.16054-1.4515 1.6788-1.1273 1.8381 0.49309 0.24408 0.91065-0.55851 0.97376-0.92224" stroke-opacity=".13925" style="paint-order:normal"/>
		<path d="m18.129 43.724c-0.71995 0.0035-0.39898-2.0497 0.0755-1.5829 0.07766 0.07394 0.31905 0.32979 0.52263 0.61435 0.25461 0.35585 0.44734 0.75954 0.17984 0.89859-0.17292 0.09021-0.29553 0.04824-0.37799-0.07075-0.28953-0.41521-0.06985-1.7335 0.2515-1.4197 0.08977 0.08737 0.17071 0.18681 0.24418 0.29446 0.57275 0.85193 0.67081 2.186 0.90096 1.9724 0.19805-0.18856 0.34195-0.49927 0.43896-0.78133 0.12264-0.35661 0.1754-0.6605 0.17652-0.60172 0.0027 0.84779 0.65553 1.7591 0.65942 1.7087 0.0011-0.09973 0.02429-0.22325 0.06024-0.35506 0.08248-0.30342 0.2348-0.65078 0.34359-0.85593 0.97457-1.9222 0.15178 2.0557 1.3253-0.27921 0.0033-0.0065 0.0067-0.01307 0.01011-0.01969 0.24622-0.47616 0.60776-1.247 0.61375-1.7802 0.0088-0.76834 1.4822-1.3757 2.147-0.71342 0.42674 0.42543 0.78057 1.1039 0.7933 1.0913 0.16144-0.29354 0.59348-3.0083 1.4637-2.1466 0.95874 0.95028 1.0384 2.0143 1.772 2.7342 0.23101 0.22682-0.08736 1.1789 0.14391 0.95257 0.07318-0.07205 0.13607-0.13042 0.19045-0.17656 0.51829-0.44606 0.24514 0.25173 0.78273 0.78242 0.08845 0.0838 0.24144-0.18723 0.41495-0.59829 0.38852-0.9159 0.89908-2.5129 1.054-2.4464 0.0514 0.02419 0.12746 0.12742 0.21724 0.27688 0.37664 0.61828 0.98743 2.0368 1.0558 1.9023 0.06353-0.12654 0.1467-0.27992 0.24148-0.44416 0.47233-0.82367 1.2424-1.9391 1.2504-1.2704 0.0074 0.07122 0.04305 0.8629 0.1075 1.7337 0.08926 1.1962 0.24769 2.5239 0.49049 2.3011 0.94641-0.9035 2.3162-8.0823 3.0287-8.0613 0.70374 0.0058 1.7057-1.9133 1.7146-1.4559 0.02464 0.30377 0.53034 2.7703 1.0019 4.9704 0.3956 1.8663 0.77772 3.5493 0.83326 3.5782 0.18705 0.1822 0.43916-0.29178 0.65885-0.43768 0.54442-0.36173 1.4042-0.488 1.7533-0.83292 0.48106-0.47762 0.9798-0.35948 1.4903-0.61424 0.15994-0.07978 0.30781 0.60665 0.31027 0.4296 0.0061-0.6569 0.27153-0.87044-0.24156-1.3915-0.14659-0.16035-1.4213 1.6526-1.0968 1.8087 0.49042 0.23988 0.90588-0.55241 0.97107-0.91125" stroke-opacity=".15084" style="paint-order:normal"/>
		<path d="m18.116 43.692c-0.70789 0.0024-0.3981-2.0233 0.06589-1.5725 0.07539 0.06895 0.31231 0.31714 0.51381 0.5956 0.25204 0.3482 0.44393 0.74882 0.18327 0.88831-0.16838 0.09066-0.2878 0.05091-0.36874-0.06758-0.28418-0.4115-0.06925-1.7131 0.24706-1.4097 0.0884 0.08425 0.16829 0.18065 0.24109 0.28562 0.56377 0.83456 0.66702 2.1542 0.89792 1.9519 0.19726-0.18086 0.3407-0.48258 0.43609-0.75994 0.12085-0.35146 0.17333-0.65179 0.17526-0.59642 0.0046 0.82654 0.64827 1.7139 0.65499 1.6606 2e-3 -0.09899 0.02554-0.22106 0.06166-0.35084 0.08265-0.29865 0.23517-0.63831 0.34545-0.83738 0.96412-1.8817 0.1663 2.0323 1.3212-0.2564 0.0033-0.0063 0.0067-0.01273 0.01006-0.01919 0.24614-0.46289 0.60543-1.2152 0.61577-1.7344 0.01524-0.74813 1.468-1.3387 2.1274-0.68373 0.42238 0.42012 0.77326 1.0885 0.78943 1.0783 0.16685-0.283 0.59973-2.9433 1.4634-2.0944 0.95049 0.93587 1.0388 1.9823 1.77 2.6898 0.23015 0.22291-0.07883 1.1576 0.15176 0.93546 0.07266-0.0707 0.13522-0.12799 0.18944-0.17328 0.51132-0.43781 0.24912 0.24742 0.78163 0.76801 0.09009 0.08207 0.24307-0.18443 0.41442-0.58893 0.38611-0.90374 0.89885-2.4721 1.0581-2.4113 0.05143 0.02312 0.127 0.12373 0.2159 0.26964 0.37542 0.60111 0.97643 1.9865 1.0472 1.8488 0.06321-0.12554 0.14582-0.27736 0.24003-0.43973 0.46417-0.80901 1.226-1.9123 1.2398-1.2634 0.01278 0.06303 0.05327 0.83413 0.11763 1.6911 0.08977 1.1784 0.25037 2.4882 0.49579 2.2773 0.94418-0.87006 2.3132-7.8941 3.0372-7.8577 0.69755 0.01005 1.6878-1.8697 1.7032-1.4177 0.04255 0.3068 0.55588 2.7308 1.0302 4.8826 0.39514 1.8272 0.78135 3.4726 0.84892 3.4944 0.18598 0.17759 0.43588-0.28886 0.65401-0.43332 0.53978-0.35775 1.3893-0.48442 1.7377-0.8256 0.47691-0.47098 0.97123-0.35715 1.4771-0.60922 0.15882-0.07908 0.3058 0.59389 0.31004 0.41937 0.01059-0.64661 0.27559-0.85795-0.22363-1.3709-0.13634-0.1601-1.3803 1.6171-1.0554 1.7688 0.48679 0.23418 0.89943-0.54416 0.96743-0.89636" stroke-opacity=".16655" style="paint-order:normal"/>
		<path d="m18.1 43.652c-0.69276 9.95e-4 -0.397-1.99 0.05382-1.5594 0.07253 0.0627 0.30384 0.30128 0.50274 0.57208 0.2488 0.33862 0.43966 0.73539 0.18758 0.87542-0.16269 0.09123-0.27811 0.05424-0.35714-0.06359-0.27746-0.40685-0.0685-1.6874 0.24149-1.3972 0.08668 0.08034 0.16527 0.17292 0.23723 0.27453 0.55252 0.81278 0.66226 2.1144 0.8941 1.9263 0.19626-0.17121 0.33915-0.46166 0.4325-0.73312 0.11861-0.34501 0.17073-0.64087 0.17368-0.58976 0.0071 0.79989 0.63917 1.6572 0.64943 1.6004 3e-3 -0.09807 0.02711-0.2183 0.06345-0.34556 0.08285-0.29268 0.23565-0.62268 0.34779-0.81412 0.95102-1.8309 0.18451 2.0029 1.316-0.22779 0.0033-0.0061 0.0067-0.01231 0.01-0.01856 0.24603-0.44624 0.60251-1.1753 0.61831-1.677 0.02328-0.72279 1.4502-1.2923 2.1028-0.64649 0.41692 0.41346 0.76409 1.0691 0.78457 1.062 0.17363-0.2698 0.60757-2.8619 1.4631-2.0289 0.94013 0.9178 1.0394 1.9423 1.7676 2.6342 0.22908 0.21801-0.06813 1.1308 0.16162 0.91402 0.07201-0.06902 0.13416-0.12494 0.18817-0.16916 0.50259-0.42746 0.2541 0.24201 0.78026 0.74994 0.09215 0.07989 0.24511-0.18091 0.41374-0.57719 0.38309-0.88849 0.89857-2.4209 1.0632-2.3674 0.05148 0.02177 0.12641 0.11911 0.21423 0.26056 0.37388 0.57958 0.96263 1.9234 1.0364 1.7816 0.06282-0.12428 0.14472-0.27414 0.23821-0.43418 0.45394-0.79064 1.2054-1.8787 1.2265-1.2546 0.01953 0.05275 0.06607 0.79806 0.13033 1.6376 0.0904 1.1561 0.25372 2.4434 0.50244 2.2475 0.94139-0.82813 2.3094-7.6581 3.0479-7.6025 0.68978 0.01535 1.6654-1.8151 1.6889-1.3697 0.06502 0.31059 0.58791 2.6813 1.0657 4.7724 0.39456 1.7782 0.7859 3.3766 0.86855 3.3892 0.18464 0.17182 0.43177-0.28521 0.64793-0.42784 0.53397-0.35277 1.3707-0.47992 1.7181-0.81642 0.47171-0.46264 0.96049-0.35422 1.4605-0.60292 0.15743-0.07821 0.30329 0.57788 0.30977 0.40654 0.01618-0.63371 0.28069-0.84228-0.20115-1.3452-0.12347-0.15978-1.3289 1.5727-1.0036 1.7189 0.48225 0.22705 0.89134-0.53381 0.96286-0.87769" stroke-opacity=".18624" style="paint-order:normal"/>
		<path d="m18.081 43.604c-0.67464-7.05e-4 -0.39567-1.9503 0.03937-1.5438 0.06911 0.05521 0.29371 0.28228 0.48948 0.5439 0.24493 0.32713 0.43454 0.71929 0.19274 0.85997-0.15587 0.09192-0.2665 0.05824-0.34323-0.05882-0.26942-0.40128-0.06761-1.6567 0.23482-1.3823 0.08462 0.07566 0.16164 0.16367 0.2326 0.26125 0.53903 0.7867 0.65656 2.0667 0.88953 1.8956 0.19507-0.15965 0.33728-0.43658 0.42819-0.70098 0.11593-0.33728 0.16761-0.62779 0.17179-0.58179 0.01004 0.76796 0.62827 1.5893 0.64278 1.5282 0.0043-0.09696 0.029-0.215 0.06559-0.33922 0.0831-0.28552 0.23622-0.60395 0.35059-0.78626 0.93532-1.7701 0.20632 1.9678 1.3097-0.19352 0.0033-0.0059 0.0066-0.01181 0.0099-0.0178 0.2459-0.4263 0.59901-1.1275 0.62135-1.6083 0.03292-0.69243 1.4289-1.2368 2.0733-0.60189 0.41037 0.40548 0.75311 1.0459 0.77876 1.0425 0.18176-0.25398 0.61696-2.7643 1.4626-1.9505 0.92773 0.89614 1.0401 1.8942 1.7646 2.5676 0.22778 0.21213-0.05532 1.0988 0.17342 0.88832 0.07122-0.067 0.13289-0.12129 0.18665-0.16423 0.49213-0.41507 0.26008 0.23552 0.77861 0.7283 0.09462 0.07728 0.24755-0.1767 0.41293-0.56312 0.37947-0.87023 0.89823-2.3595 1.0694-2.3147 0.05154 0.02015 0.12571 0.11358 0.21222 0.24969 0.37204 0.55378 0.9461 1.8478 1.0235 1.7012 0.06235-0.12278 0.14341-0.27028 0.23603-0.42752 0.44168-0.76862 1.1808-1.8384 1.2105-1.2441 0.02761 0.04045 0.08141 0.75484 0.14554 1.5735 0.09117 1.1294 0.25775 2.3898 0.51041 2.2117 0.93804-0.7779 2.3049-7.3753 3.0607-7.2968 0.68048 0.02171 1.6385-1.7496 1.6718-1.3123 0.09194 0.31514 0.62628 2.622 1.1083 4.6404 0.39386 1.7195 0.79135 3.2615 0.89206 3.2631 0.18303 0.1649 0.42684-0.28083 0.64066-0.42129 0.52701-0.3468 1.3483-0.47454 1.6947-0.80542 0.46548-0.45266 0.94763-0.35072 1.4406-0.59538 0.15576-0.07717 0.30027 0.55871 0.30943 0.39116 0.02288-0.61826 0.28679-0.82351-0.17421-1.3143-0.10806-0.1594-1.2674 1.5194-0.94158 1.6591 0.4768 0.2185 0.88164-0.52141 0.95738-0.85532" stroke-opacity=".20982" style="paint-order:normal"/>
		<path d="m18.058 43.548c-0.65358-0.0027-0.39413-1.904 0.02258-1.5256 0.06514 0.0465 0.28193 0.26019 0.47408 0.51116 0.24043 0.31378 0.42858 0.70058 0.19874 0.84202-0.14795 0.09271-0.253 0.06288-0.32708-0.05327-0.26007-0.39481-0.06657-1.6209 0.22706-1.3649 0.08223 0.07022 0.15742 0.15291 0.22722 0.24581 0.52336 0.75637 0.64994 2.0113 0.88422 1.8599 0.19368-0.1462 0.33511-0.40744 0.42319-0.66363 0.11282-0.3283 0.16399-0.61258 0.16958-0.57253 0.01346 0.73085 0.61559 1.5104 0.63504 1.4443 0.0057-0.09567 0.03119-0.21116 0.06808-0.33186 0.08338-0.27719 0.23688-0.58217 0.35384-0.75387 0.91708-1.6994 0.23168 1.927 1.3025-0.15369 0.0033-0.0056 0.0066-0.01122 0.0098-0.01692 0.24575-0.40313 0.59494-1.072 0.62488-1.5285 0.04413-0.65714 1.4041-1.1722 2.039-0.55004 0.40276 0.3962 0.74035 1.0189 0.772 1.0199 0.1912-0.23559 0.62787-2.6509 1.4621-1.8593 0.91331 0.87098 1.0408 1.8384 1.7612 2.4902 0.22628 0.2053-0.04042 1.0615 0.18714 0.85846 0.07031-0.06465 0.13141-0.11705 0.18489-0.1585 0.47997-0.40067 0.26702 0.22799 0.77669 0.70314 0.09748 0.07424 0.25039-0.1718 0.41199-0.54678 0.37527-0.84899 0.89784-2.2882 1.0765-2.2535 0.0516 0.01827 0.1249 0.10714 0.20989 0.23706 0.3699 0.5238 0.92689 1.76 1.0085 1.6077 0.06179-0.12102 0.14188-0.2658 0.2335-0.41979 0.42743-0.74303 1.1521-1.7917 1.192-1.2318 0.03701 0.02614 0.09924 0.70461 0.16322 1.499 0.09205 1.0983 0.26242 2.3274 0.51967 2.1702 0.93415-0.71952 2.2997-7.0467 3.0756-6.9414 0.66966 0.02909 1.6073-1.6735 1.6519-1.2455 0.12323 0.32043 0.67088 2.553 1.1577 4.487 0.39306 1.6513 0.79768 3.1277 0.91939 3.1166 0.18116 0.15686 0.4211-0.27575 0.6322-0.41367 0.51892-0.33986 1.3224-0.46828 1.6675-0.79264 0.45824-0.44105 0.93267-0.34665 1.4175-0.58661 0.15381-0.07596 0.29677 0.53642 0.30904 0.37329 0.03067-0.6003 0.29389-0.8017-0.14291-1.2784-0.09015-0.15895-1.1959 1.4574-0.86945 1.5895 0.47047 0.20856 0.87038-0.50699 0.95102-0.82932" stroke-opacity=".23724" style="paint-order:normal"/>
		<path d="m18.033 43.485c-0.62962-0.0049-0.39238-1.8514 0.0035-1.505 0.06062 0.0366 0.26852 0.23507 0.45655 0.47391 0.23531 0.2986 0.42181 0.6793 0.20556 0.8216-0.13894 0.09362-0.23765 0.06817-0.3087-0.04696-0.24944-0.38745-0.06539-1.5803 0.21824-1.3451 0.07951 0.06402 0.15262 0.14068 0.2211 0.22825 0.50553 0.72188 0.64241 1.9483 0.87817 1.8193 0.1921-0.13092 0.33264-0.3743 0.4175-0.62115 0.10927-0.31808 0.15988-0.59528 0.16708-0.56199 0.01735 0.68864 0.60118 1.4207 0.62624 1.3489 0.0073-0.09421 0.03367-0.2068 0.07091-0.32348 0.08371-0.26773 0.23763-0.55741 0.35754-0.71703 0.89632-1.619 0.26051 1.8805 1.2943-0.10838 0.0032-0.0052 0.0065-0.01055 0.0098-0.01592 0.24558-0.37677 0.5903-1.0088 0.62889-1.4376 0.05687-0.617 1.3759-1.0988 2.0001-0.49107 0.3941 0.38565 0.72583 0.98817 0.76432 0.99406 0.20194-0.21468 0.64029-2.5218 1.4616-1.7556 0.89691 0.84236 1.0417 1.775 1.7573 2.4022 0.22457 0.19754-0.02348 1.0191 0.20274 0.82449 0.06927-0.06198 0.12972-0.11222 0.18288-0.15197 0.46614-0.38429 0.27491 0.21942 0.77451 0.67453 0.10074 0.07079 0.25362-0.16623 0.41092-0.52818 0.37048-0.82484 0.89739-2.2071 1.0846-2.1839 0.05168 0.01613 0.12398 0.09983 0.20724 0.22268 0.36746 0.48969 0.90504 1.6601 0.99146 1.5014 0.06117-0.11903 0.14014-0.2607 0.23061-0.411 0.41123-0.71392 1.1195-1.7385 1.1708-1.2179 0.0477 0.0099 0.11952 0.64748 0.18334 1.4143 0.09306 1.0629 0.26774 2.2565 0.5302 2.1229 0.92973-0.65311 2.2938-6.6729 3.0925-6.5371 0.65736 0.03749 1.5717-1.587 1.6292-1.1696 0.15882 0.32644 0.7216 2.4745 1.2139 4.3126 0.39215 1.5737 0.80489 2.9756 0.95048 2.95 0.17903 0.14772 0.41459-0.26996 0.62258-0.40501 0.50971-0.33196 1.2928-0.46116 1.6366-0.77811 0.45001-0.42786 0.91566-0.34202 1.3912-0.57664 0.1516-0.07458 0.29278 0.51108 0.3086 0.35296 0.03952-0.57988 0.30196-0.77689-0.1073-1.2376-0.06977-0.15845-1.1145 1.3869-0.7874 1.5104 0.46327 0.19726 0.85756-0.4906 0.94378-0.79975" stroke-opacity=".26843" style="paint-order:normal"/>
		<path d="m18.004 43.414c-0.60281-0.0074-0.39042-1.7925-0.01791-1.4818 0.05556 0.02551 0.25353 0.20695 0.43693 0.43222 0.22958 0.2816 0.41423 0.65549 0.21319 0.79875-0.12885 0.09463-0.22047 0.07408-0.28812-0.0399-0.23754-0.37921-0.06407-1.5348 0.20836-1.323 0.07646 0.05709 0.14726 0.12698 0.21424 0.20859 0.48558 0.68327 0.63399 1.8777 0.87141 1.7739 0.19034-0.1138 0.32988-0.3372 0.41114-0.5736 0.1053-0.30664 0.15527-0.57592 0.16428-0.5502 0.0217 0.6414 0.58504 1.3202 0.61639 1.2421 0.0092-0.09257 0.03646-0.20191 0.07408-0.31411 0.08407-0.25713 0.23847-0.52969 0.36168-0.6758 0.8731-1.5289 0.29279 1.8285 1.285-0.05767 0.0032-0.0049 0.0064-0.0098 0.0096-0.0148 0.24539-0.34727 0.58512-0.93808 0.63339-1.3359 0.07113-0.57208 1.3444-1.0166 1.9564-0.42506 0.38441 0.37384 0.70958 0.95381 0.75572 0.96518 0.21397-0.19127 0.65419-2.3774 1.4609-1.6395 0.87855 0.81032 1.0427 1.7039 1.753 2.3036 0.22266 0.18885-0.0045 0.97165 0.22021 0.78646 0.06811-0.05899 0.12784-0.10682 0.18063-0.14467 0.45066-0.36596 0.28374 0.20983 0.77206 0.6425 0.10439 0.06693 0.25724-0.16 0.40973-0.50737 0.36513-0.79781 0.89688-2.1163 1.0937-2.106 0.05176 0.01374 0.12294 0.09164 0.20427 0.20659 0.36474 0.45152 0.88058 1.5482 0.97236 1.3823 0.06047-0.1168 0.13819-0.25499 0.22738-0.40116 0.39309-0.68134 1.083-1.6789 1.1472-1.2023 0.05967-0.0083 0.14222 0.58352 0.20585 1.3195 0.09419 1.0233 0.27369 2.1771 0.54198 2.07 0.92478-0.57878 2.2871-6.2545 3.1114-6.0847 0.64359 0.0469 1.532-1.4901 1.6038-1.0845 0.19865 0.33317 0.77838 2.3867 1.2769 4.1173 0.39112 1.4868 0.81295 2.8053 0.98528 2.7635 0.17665 0.13748 0.40729-0.26348 0.61181-0.39531 0.4994-0.32313 1.2598-0.45319 1.6019-0.76184 0.44079-0.41308 0.89662-0.33684 1.3618-0.56548 0.14913-0.07303 0.28832 0.4827 0.30811 0.33021 0.04944-0.55701 0.311-0.74912-0.06745-1.1919-0.04697-0.15788-1.0234 1.3081-0.69557 1.4219 0.45522 0.18461 0.84321-0.47225 0.93568-0.76665" stroke-opacity=".30333" style="paint-order:normal"/>
		<path d="m17.973 43.335c-0.57317-0.01022-0.38825-1.7274-0.04154-1.4562 0.04997 0.01326 0.23695 0.17587 0.41525 0.38614 0.22325 0.26282 0.40586 0.62916 0.22163 0.77349-0.1177 0.09575-0.20148 0.08061-0.26539-0.03209-0.22438-0.3701-0.06261-1.4845 0.19744-1.2985 0.07309 0.04943 0.14132 0.11184 0.20667 0.18687 0.46352 0.6406 0.62467 1.7997 0.86394 1.7236 0.18838-0.09489 0.32683-0.2962 0.4041-0.52104 0.10092-0.294 0.15017-0.55452 0.16118-0.53716 0.02651 0.58918 0.5672 1.2092 0.6055 1.1241 0.01122-0.09076 0.03954-0.19651 0.07759-0.30375 0.08447-0.24542 0.2394-0.49905 0.36626-0.63023 0.84742-1.4295 0.32846 1.771 1.2748-0.0016 0.0032-0.0045 0.0064-9e-3 0.0095-0.01357 0.24518-0.31466 0.57939-0.85992 0.63836-1.2235 0.0869-0.52242 1.3095-0.92573 1.9082-0.3521 0.3737 0.36078 0.69162 0.91583 0.74621 0.93326 0.22726-0.1654 0.66955-2.2178 1.4602-1.5112 0.85826 0.7749 1.0438 1.6254 1.7481 2.1946 0.22055 0.17924 0.01644 0.91921 0.23951 0.74444 0.06683-0.05568 0.12575-0.10084 0.17815-0.13661 0.43354-0.34569 0.29351 0.19923 0.76937 0.6071 0.10842 0.06265 0.26124-0.15311 0.40841-0.48437 0.35921-0.76793 0.89633-2.016 1.1037-2.0199 0.05186 0.0111 0.1218 0.08259 0.20099 0.18881 0.36173 0.40933 0.85355 1.4246 0.95126 1.2508 0.05969-0.11434 0.13604-0.24868 0.22382-0.39028 0.37304-0.64533 1.0426-1.6131 1.1211-1.1851 0.07289-0.02847 0.16731 0.51284 0.23073 1.2147 0.09544 0.9796 0.28027 2.0894 0.55501 2.0115 0.91931-0.49662 2.2797-5.792 3.1324-5.5846 0.62837 0.05729 1.488-1.3831 1.5758-0.99058 0.24268 0.34061 0.84114 2.2897 1.3465 3.9014 0.38999 1.3908 0.82187 2.6171 1.0237 2.5574 0.17402 0.12617 0.39923-0.25632 0.59991-0.38459 0.48802-0.31336 1.2232-0.44438 1.5636-0.74385 0.43061-0.39676 0.87558-0.33111 1.3293-0.55314 0.14639-0.07133 0.28339 0.45134 0.30756 0.30506 0.06039-0.53174 0.32099-0.71842-0.0234-1.1414-0.02176-0.15726-0.92274 1.2209-0.59406 1.324 0.44631 0.17062 0.82736-0.45197 0.92672-0.73007" stroke-opacity=".34191" style="paint-order:normal"/>
		<path d="m17.939 43.249c-0.54074-0.01326-0.38588-1.6562-0.06741-1.4282 0.04385-1.43e-4 0.2188 0.14186 0.39152 0.33572 0.21632 0.24226 0.39669 0.60035 0.23086 0.74585-0.1055 0.09697-0.1807 0.08777-0.2405-0.02355-0.20999-0.36014-0.06101-1.4295 0.1855-1.2717 0.0694 0.04105 0.13483 0.09528 0.19838 0.16309 0.43939 0.5939 0.61448 1.7144 0.85576 1.6687 0.18625-0.07419 0.32349-0.25132 0.3964-0.46353 0.09612-0.28017 0.1446-0.53111 0.1578-0.52289 0.03177 0.53204 0.54769 1.0877 0.59359 0.99496 0.01345-0.08878 0.04291-0.1906 0.08142-0.29242 0.08491-0.23261 0.24041-0.46553 0.37127-0.58036 0.81933-1.3206 0.3675 1.7081 1.2637 0.05972 0.0031-4e-3 0.0063-0.0081 0.0094-0.01221 0.24495-0.27897 0.57312-0.77438 0.64379-1.1005 0.10415-0.46808 1.2713-0.82631 1.8555-0.27227 0.36198 0.3465 0.67196 0.87427 0.73581 0.89834 0.2418-0.13708 0.68635-2.0432 1.4594-1.3708 0.83606 0.73616 1.045 1.5395 1.7429 2.0754 0.21824 0.16873 0.03938 0.86182 0.26064 0.69845 0.06543-0.05207 0.12347-0.09431 0.17543-0.12778 0.41482-0.32351 0.3042 0.18763 0.76641 0.56837 0.11284 0.05798 0.26561-0.14557 0.40696-0.4592 0.35274-0.73524 0.89572-1.9062 1.1147-1.9257 0.05196 0.0082 0.12055 0.07268 0.1974 0.16935 0.35843 0.36317 0.82397 1.2894 0.92816 1.1068 0.05884-0.11164 0.13368-0.24178 0.21992-0.37838 0.35111-0.60593 0.99847-1.5411 1.0926-1.1662 0.08736-0.0505 0.19477 0.43549 0.25796 1.1 0.0968 0.93173 0.28747 1.9934 0.56927 1.9476 0.91332-0.40672 2.2717-5.286 3.1553-5.0374 0.61172 0.06866 1.4399-1.2659 1.5451-0.88777 0.29085 0.34876 0.90981 2.1835 1.4226 3.6653 0.38875 1.2857 0.83162 2.4111 1.0658 2.3318 0.17114 0.11379 0.3904-0.24849 0.58688-0.37286 0.47556-0.30267 1.1833-0.43474 1.5217-0.72417 0.41946-0.37889 0.85255-0.32485 1.2937-0.53964 0.1434-0.06946 0.27799 0.41703 0.30696 0.27755 0.07238-0.50409 0.33192-0.68483 0.02481-1.0861 0.0058-0.15658-0.81258 1.1255-0.48299 1.217 0.43656 0.15532 0.81-0.42978 0.91692-0.69004" stroke-opacity=".38413" style="paint-order:normal"/>
		<path d="m17.901 43.156c-0.50554-0.01656-0.38331-1.5789-0.09548-1.3979 0.03721-0.01469 0.19912 0.10495 0.36577 0.28099 0.2088 0.21995 0.38674 0.56909 0.24089 0.71585-0.09225 0.0983-0.15814 0.09553-0.2135-0.01428-0.19437-0.34932-0.05927-1.3698 0.17253-1.2427 0.0654 0.03195 0.12778 0.07731 0.18939 0.13729 0.41319 0.54322 0.60341 1.6217 0.84688 1.609 0.18393-0.05173 0.31987-0.20263 0.38804-0.40111 0.09091-0.26515 0.13855-0.5057 0.15412-0.50741 0.03748 0.47003 0.52651 0.95583 0.58066 0.85478 0.01586-0.08663 0.04657-0.18419 0.08558-0.28011 0.08539-0.2187 0.24152-0.42914 0.3767-0.52623 0.78884-1.2024 0.40987 1.6399 1.2516 0.12628 0.0031-0.0035 0.0062-0.0071 0.0093-0.01075 0.2447-0.24024 0.56632-0.68154 0.64969-0.96704 0.12287-0.40911 1.2299-0.71841 1.7982-0.18562 0.34926 0.33099 0.65063 0.82917 0.72452 0.86043 0.25758-0.10635 0.7046-1.8536 1.4586-1.2185 0.81196 0.6941 1.0463 1.4462 1.7372 1.946 0.21573 0.15732 0.06427 0.79954 0.28356 0.64854 0.06391-0.04814 0.121-0.08722 0.17248-0.1182 0.3945-0.29945 0.31579 0.17504 0.76321 0.52632 0.11762 0.05291 0.27036-0.13738 0.40539-0.43188 0.34571-0.69975 0.89506-1.787 1.1266-1.8234 0.05207 0.0051 0.1192 0.06193 0.1935 0.14824 0.35485 0.31306 0.79186 1.1426 0.9031 0.9506 0.05792-0.10871 0.13113-0.23429 0.21568-0.36546 0.3273-0.56316 0.95056-1.463 1.0616-1.1457 0.10306-0.0744 0.22457 0.35155 0.28751 0.9755 0.09828 0.87978 0.29528 1.8892 0.58474 1.8781 0.90682-0.30915 2.2629-4.7368 3.1801-4.4435 0.59365 0.08101 1.3877-1.1388 1.5118-0.77618 0.34314 0.35759 0.98434 2.0682 1.5052 3.4089 0.38741 1.1717 0.84221 2.1876 1.1115 2.087 0.16801 0.10036 0.38083-0.23999 0.57275-0.36014 0.46203-0.29108 1.1399-0.42428 1.4763-0.70282 0.40736-0.3595 0.82756-0.31804 1.2551-0.52499 0.14016-0.06744 0.27213 0.37978 0.30632 0.24768 0.08539-0.47408 0.34378-0.64837 0.07712-1.0261 0.03576-0.15584-0.69302 1.022-0.36244 1.1007 0.42599 0.13872 0.79117-0.40569 0.90629-0.64659" stroke-opacity=".42995" style="paint-order:normal"/>
		<path d="m17.861 43.055c-0.4676-0.02012-0.38053-1.4956-0.12573-1.3651 0.03005-0.03038 0.17789 0.06516 0.33801 0.222 0.20069 0.1959 0.37602 0.53538 0.25169 0.68351-0.07798 0.09973-0.13383 0.1039-0.18439-0.0043-0.17753-0.33766-0.0574-1.3054 0.15856-1.2113 0.06109 0.02215 0.12019 0.05793 0.1797 0.10948 0.38496 0.48859 0.59148 1.5219 0.83731 1.5447 0.18143-0.02751 0.31596-0.15013 0.37903-0.33383 0.0853-0.24897 0.13203-0.4783 0.15016-0.49072 0.04364 0.40318 0.50367 0.81368 0.56673 0.70368 0.01847-0.08431 0.05051-0.17728 0.09007-0.26685 0.08591-0.20371 0.24271-0.38992 0.38256-0.46789 0.75597-1.075 0.45554 1.5663 1.2385 0.19804 0.0031-3e-3 0.0061-6e-3 0.0091-0.0092 0.24444-0.1985 0.55899-0.58148 0.65606-0.82315 0.14305-0.34554 1.1853-0.6021 1.7365-0.09222 0.33554 0.31428 0.62764 0.78055 0.71235 0.81958 0.27459-0.07323 0.72426-1.6493 1.4577-1.0542 0.78599 0.64877 1.0477 1.3457 1.731 1.8066 0.21302 0.14502 0.0911 0.7324 0.30828 0.59474 0.06227-0.04392 0.11833-0.07957 0.16929-0.10787 0.37259-0.2735 0.3283 0.16147 0.75975 0.48101 0.12279 0.04744 0.27548-0.12856 0.4037-0.40244 0.33813-0.6615 0.89435-1.6585 1.1394-1.7132 0.05219 0.0017 0.11773 0.05035 0.1893 0.12547 0.35099 0.25905 0.75725 0.98431 0.87608 0.78219 0.05693-0.10556 0.12838-0.22621 0.21111-0.35153 0.30163-0.51706 0.8989-1.3787 1.0281-1.1237 0.11999-0.10017 0.25669 0.26106 0.31937 0.84133 0.09988 0.82378 0.3037 1.7768 0.60142 1.8033 0.89981-0.20397 2.2535-4.1447 3.2069-3.8033 0.57417 0.09431 1.3314-1.0017 1.4759-0.65589 0.3995 0.36712 1.0647 1.944 1.5943 3.1326 0.38596 1.0487 0.85362 1.9466 1.1607 1.8232 0.16464 0.08588 0.37051-0.23082 0.55751-0.34641 0.44745-0.27857 1.0931-0.41301 1.4272-0.67979 0.39432-0.33859 0.80062-0.31071 1.2135-0.50919 0.13666-0.06525 0.26582 0.33964 0.30562 0.21549 0.09942-0.44172 0.35656-0.60908 0.13352-0.96145 0.06802-0.15504-0.56415 0.91038-0.2325 0.97547 0.41458 0.12082 0.77087-0.37973 0.89482-0.59975" stroke-opacity=".47934" style="paint-order:normal"/>
		<path d="m17.818 42.947c-0.42694-0.02394-0.37756-1.4063-0.15816-1.33 0.02238-0.04718 0.15514 0.02252 0.30826 0.15877 0.192 0.17013 0.36453 0.49927 0.26327 0.64885-0.06268 0.10127-0.10778 0.11287-0.1532 0.0064-0.15948-0.32516-0.0554-1.2364 0.14358-1.1778 0.05647 0.01163 0.11205 0.03716 0.1693 0.07967 0.3547 0.43005 0.5787 1.4149 0.82705 1.4758 0.17875-0.0016 0.31177-0.09387 0.36937-0.26172 0.07928-0.23162 0.12504-0.44894 0.14591-0.47283 0.05023 0.33154 0.4792 0.66134 0.55179 0.54174 0.02126-0.08183 0.05474-0.16987 0.09487-0.25263 0.08646-0.18764 0.24398-0.34789 0.38884-0.40536 0.72075-0.93853 0.50449 1.4874 1.2246 0.27494 3e-3 -0.0024 6e-3 -0.0049 9e-3 -0.0075 0.24415-0.15375 0.55113-0.47423 0.66287-0.66894 0.16468-0.27741 1.1374-0.47745 1.6703 0.0079 0.32085 0.29637 0.603 0.72844 0.6993 0.77578 0.29282-0.03773 0.74533-1.4303 1.4567-0.87822 0.75816 0.60018 1.0492 1.238 1.7244 1.6571 0.21012 0.13184 0.11986 0.66045 0.33476 0.53708 0.06051-0.03938 0.11547-0.07138 0.16588-0.0968 0.34912-0.2457 0.3417 0.14692 0.75605 0.43244 0.12832 0.04158 0.28096-0.11911 0.40188-0.37088 0.33001-0.62051 0.89359-1.5208 1.1532-1.595 0.05231-0.0019 0.11616 0.03793 0.1848 0.10107 0.34686 0.20116 0.72016 0.81471 0.84713 0.6017 0.05587-0.10218 0.12542-0.21756 0.20622-0.3366 0.27413-0.46765 0.84355-1.2884 0.99233-1.1 0.13813-0.12779 0.29111 0.16408 0.3535 0.69753 0.10159 0.76376 0.31273 1.6564 0.6193 1.723 0.89231-0.09125 2.2434-3.5103 3.2356-3.1172 0.55329 0.10857 1.2711-0.85486 1.4374-0.52698 0.4599 0.37732 1.1508 1.8108 1.6898 2.8365 0.38441 0.917 0.86585 1.6884 1.2135 1.5403 0.16103 0.07035 0.35944-0.221 0.54118-0.33171 0.43183-0.26517 1.043-0.40093 1.3747-0.65512 0.38034-0.31619 0.77175-0.30285 1.1689-0.49226 0.1329-0.06291 0.25905 0.29661 0.30487 0.18099 0.11445-0.40705 0.37026-0.56696 0.19395-0.89216 0.10261-0.15418-0.42603 0.79077-0.09323 0.84121 0.40237 0.10163 0.74912-0.35191 0.88254-0.54956" stroke-opacity=".53227" style="paint-order:normal"/>
		<path d="m17.772 42.832c-0.38357-0.028-0.37439-1.3111-0.19274-1.2926 0.0142-0.06511 0.13089-0.02295 0.27654 0.09135 0.18274 0.14265 0.35227 0.46075 0.27561 0.61189-0.04637 0.10291-0.07999 0.12243-0.11993 0.01785-0.14023-0.31184-0.05326-1.1629 0.12761-1.142 0.05154 4.25e-4 0.10336 0.01501 0.15822 0.04788 0.32243 0.36761 0.56507 1.3008 0.81611 1.4023 0.17589 0.02611 0.30731-0.03388 0.35907-0.18482 0.07287-0.21313 0.11759-0.41763 0.14138-0.45376 0.05727 0.25514 0.45311 0.49888 0.53586 0.36905 0.02424-0.07918 0.05925-0.16197 0.1-0.23748 0.08705-0.17051 0.24534-0.30306 0.39554-0.33868 0.68318-0.79296 0.55669 1.4033 1.2096 0.35695 3e-3 -0.0018 0.0059-0.0037 0.0088-0.0057 0.24384-0.10604 0.54274-0.35986 0.67014-0.50449 0.18775-0.20476 1.0864-0.34452 1.5998 0.11463 0.30518 0.27727 0.57672 0.67287 0.68539 0.72909 0.31227 1.27e-4 0.76781-1.1967 1.4556-0.69051 0.72847 0.54837 1.0509 1.1231 1.7173 1.4977 0.20703 0.11778 0.15053 0.58372 0.36301 0.47559 0.05863-0.03455 0.11242-0.06264 0.16225-0.08499 0.32408-0.21604 0.35598 0.13141 0.7521 0.38065 0.13422 0.03534 0.28681-0.10903 0.39995-0.33722 0.32136-0.57679 0.89278-1.374 1.1678-1.469 0.05245-0.0058 0.11449 0.02468 0.18 0.07505 0.34245 0.13943 0.68061 0.63385 0.81625 0.40922 0.05474-0.09857 0.12227-0.20833 0.201-0.32069 0.24479-0.41496 0.78451-1.1921 0.95413-1.0748 0.15748-0.15724 0.32782 0.06066 0.38991 0.54418 0.10341 0.69976 0.32235 1.5281 0.63836 1.6375 0.8843 0.02896 2.2326-2.8336 3.2662-2.3855 0.53102 0.12378 1.2068-0.69822 1.3964-0.3895 0.52432 0.38821 1.2426 1.6688 1.7916 2.5207 0.38275 0.77651 0.8789 1.413 1.2698 1.2387 0.15718 0.0538 0.34764-0.21053 0.52377-0.31602 0.41516-0.25088 0.9895-0.38804 1.3187-0.6288 0.36544-0.2923 0.74096-0.29447 1.1213-0.47421 0.1289-0.06042 0.25184 0.25073 0.30407 0.1442 0.13048-0.37008 0.38488-0.52205 0.25841-0.81826 0.13949-0.15327-0.27874 0.66323 0.05528 0.69803 0.38934 0.08117 0.72592-0.32223 0.86944-0.49603" stroke-opacity=".58872" style="paint-order:normal"/>
		<path d="m17.723 42.71c-0.33752-0.03232-0.37102-1.21-0.22946-1.2528 0.0055-0.08414 0.10513-0.07124 0.24285 0.01976 0.1729 0.11346 0.33926 0.41985 0.28873 0.57264-0.02904 0.10464-0.05048 0.13258-0.0846 0.02998-0.1198-0.29769-0.05099-1.0848 0.11065-1.1039 0.04631-0.01148 0.09415-0.0085 0.14646 0.01413 0.28816 0.30131 0.5506 1.1796 0.8045 1.3243 0.17286 0.0555 0.30257 0.02983 0.34814-0.10317 0.06605-0.19349 0.10967-0.38439 0.13657-0.4335 0.06474 0.17401 0.4254 0.32637 0.51895 0.18567 0.0274-0.07636 0.06403-0.15358 0.10544-0.22138 0.08767-0.15231 0.24678-0.25546 0.40265-0.26787 0.64329-0.63838 0.61212 1.314 1.1938 0.44404 0.0029-0.0012 0.0058-0.0024 0.0086-0.0037 0.24352-0.05537 0.53384-0.23841 0.67786-0.32986 0.21224-0.12761 1.0322-0.20336 1.5249 0.22798 0.28853 0.25699 0.54881 0.61386 0.67062 0.6795 0.33292 0.04033 0.79167-0.94874 1.4545-0.49119 0.69695 0.49335 1.0526 1.0011 1.7098 1.3284 0.20375 0.10285 0.18309 0.50224 0.393 0.4103 0.05664-0.02941 0.10919-0.05336 0.15839-0.07246 0.2975-0.18456 0.37116 0.11494 0.74791 0.32565 0.14049 0.0287 0.29302-0.09832 0.39789-0.30148 0.31216-0.53037 0.89192-1.2181 1.1834-1.3352 0.0526-0.0099 0.11272 0.01062 0.1749 0.04743 0.33777 0.07388 0.63861 0.4418 0.78346 0.20483 0.05353-0.09474 0.11893-0.19852 0.19546-0.30379 0.21365-0.35902 0.72183-1.0899 0.91358-1.048 0.17803-0.18852 0.3668-0.04916 0.42857 0.38135 0.10535 0.63179 0.33257 1.3917 0.6586 1.5466 0.8758 0.1566 2.2212-2.1151 3.2988-1.6085 0.50738 0.13993 1.1385-0.53189 1.3529-0.24352 0.59272 0.39977 1.3401 1.518 1.8997 2.1853 0.38099 0.62732 0.89275 1.1205 1.3295 0.91849 0.15309 0.03623 0.33512-0.1994 0.50528-0.29937 0.39747-0.23571 0.93273-0.37436 1.2592-0.60086 0.34961-0.26693 0.70827-0.28557 1.0708-0.45504 0.12466-0.05777 0.24417 0.20201 0.30322 0.10513 0.14751-0.33082 0.40039-0.47436 0.32685-0.73978 0.17865-0.1523-0.12234 0.52779 0.21298 0.54599 0.3755 0.05945 0.70128-0.29072 0.85552-0.43919" stroke-opacity=".64866" style="paint-order:normal"/>
		<path d="m17.671 42.581c-0.28881-0.03689-0.36746-1.103-0.26831-1.2108-0.0037-0.10428 0.07788-0.12232 0.20722-0.05598 0.16249 0.08259 0.32549 0.37658 0.3026 0.53113-0.01071 0.10648-0.01927 0.14333-0.04723 0.04281-0.09818-0.28272-0.04859-1.0021 0.09271-1.0637 0.04077-0.02407 0.0844-0.03338 0.13401-0.02158 0.25191 0.23118 0.53528 1.0514 0.79221 1.2417 0.16965 0.08659 0.29755 0.09723 0.33657-0.01679 0.05885-0.17271 0.1013-0.34922 0.13148-0.41207 0.07264 0.08818 0.39608 0.14387 0.50105-0.0083 0.03075-0.07339 0.0691-0.1447 0.1112-0.20435 0.08833-0.13307 0.24831-0.20511 0.41017-0.19296 0.6011-0.47485 0.67075 1.2196 1.1771 0.53616 0.0029-4.86e-4 0.0057-0.0011 0.0084-0.0017 0.24317-0.0018 0.52443-0.10993 0.68603-0.14513 0.23815-0.046 0.97489-0.05404 1.4456 0.34789 0.27093 0.23553 0.51929 0.55144 0.655 0.62704 0.35476 0.08285 0.81692-0.6864 1.4534-0.28033 0.6636 0.43515 1.0544 0.87207 1.7019 1.1494 0.20028 0.08706 0.21754 0.41604 0.42473 0.34123 0.05453-0.02398 0.10576-0.04355 0.1543-0.0592 0.26937-0.15125 0.38721 0.09752 0.74348 0.26746 0.14712 0.02168 0.29959-0.087 0.39572-0.26368 0.30243-0.48126 0.89101-1.0532 1.1999-1.1937 0.05275-0.01427 0.11084-0.0043 0.1695 0.0182 0.33282 0.0045 0.59418 0.23864 0.74878-0.01139 0.05226-0.09069 0.1154-0.18816 0.1896-0.28591 0.1807-0.29983 0.65551-0.98169 0.87067-1.0197 0.19976-0.2216 0.40804-0.16534 0.46947 0.20909 0.1074 0.5599 0.34338 1.2475 0.68001 1.4505 0.8668 0.29163 2.2091-1.355 3.3332-0.78657 0.48236 0.15701 1.0662-0.35593 1.3068-0.08909 0.66508 0.412 1.4432 1.3585 2.014 1.8306 0.37913 0.4695 0.9074 0.81118 1.3928 0.5797 0.14877 0.01763 0.32186-0.18764 0.48571-0.28175 0.37875-0.21966 0.87267-0.35988 1.1963-0.5713 0.33287-0.24009 0.67368-0.27616 1.0174-0.43476 0.12016-0.05496 0.23607 0.15046 0.30232 0.06379 0.16551-0.28928 0.41681-0.42391 0.39925-0.65677 0.22008-0.15128 0.04312 0.38451 0.37982 0.38515 0.36086 0.03646 0.67522-0.25739 0.8408-0.37907" stroke-opacity=".71207" style="paint-order:normal"/>
		<path d="m17.617 42.444c-0.23745-0.04171-0.36371-0.99027-0.30926-1.1665-0.01337-0.12551 0.04915-0.17618 0.16964-0.13584 0.15151 0.05003 0.31097 0.33095 0.31722 0.48735 0.0086 0.10842 0.01364 0.15466-0.0078 0.05634-0.07538-0.26694-0.04605-0.915 0.07379-1.0213 0.03494-0.03734 0.07411-0.05961 0.12089-0.05923 0.21369 0.15722 0.51914 0.91626 0.77926 1.1547 0.16627 0.11936 0.29226 0.16829 0.32437 0.07429 0.05125-0.1508 0.09247-0.31213 0.12611-0.38948 0.08098-0.0023 0.36518-0.04855 0.48219-0.21287 0.03428-0.07025 0.07443-0.13535 0.11727-0.1864 0.08903-0.11277 0.24992-0.15201 0.4181-0.11398 0.5566-0.30242 0.73258 1.12 1.1594 0.6333 0.0028 2.31e-4 0.0055 3.79e-4 0.0082 4.43e-4 0.24281 0.05474 0.5145 0.02553 0.69464 0.04966 0.26547 0.04006 0.91445 0.10341 1.362 0.47433 0.25237 0.21291 0.48817 0.48562 0.63852 0.57173 0.37779 0.12769 0.84354-0.40979 1.4521-0.058 0.62844 0.37378 1.0563 0.736 1.6936 0.96057 0.19661 0.07041 0.25386 0.32516 0.45819 0.2684 0.05231-0.01826 0.10215-0.0332 0.15-0.04521 0.23972-0.11613 0.40413 0.07915 0.7388 0.20612 0.15411 0.01428 0.30652-0.07506 0.39343-0.22381 0.29218-0.42948 0.89004-0.87926 1.2173-1.0445 0.05291-0.01885 0.10886-0.01994 0.16382-0.01262 0.3276-0.06858 0.54733 0.02442 0.7122-0.23937 0.05092-0.08642 0.11167-0.17722 0.18342-0.26706 0.14596-0.23743 0.58559-0.86764 0.82543-0.9898 0.22268-0.25649 0.45152-0.28783 0.51259 0.02746 0.10956 0.48409 0.35479 1.0955 0.70259 1.3492 0.85732 0.43401 2.1964-0.55361 3.3694 0.08006 0.45599 0.17503 0.99002-0.1704 1.2582 0.07374 0.74138 0.42489 1.552 1.1903 2.1346 1.4565 0.37717 0.3031 0.92285 0.48499 1.4594 0.22248 0.14421-2e-3 0.30789-0.17523 0.46509-0.26318 0.35902-0.20273 0.80935-0.34462 1.1299-0.54014 0.31522-0.2118 0.63721-0.26623 0.96103-0.41338 0.11542-0.05201 0.22752 0.09612 0.30138 0.02022 0.1845-0.24549 0.43411-0.37071 0.47559-0.56924 0.26376-0.15019 0.21757 0.23344 0.55572 0.21557 0.34543 0.01223 0.64774-0.22224 0.82529-0.31567" stroke-opacity=".77892" style="paint-order:normal"/>
		<path d="m17.559 42.301c-0.18345-0.04677-0.35976-0.8717-0.35232-1.1199-0.02356-0.14783 0.01895-0.2328 0.13014-0.21979 0.13997 0.01581 0.29571 0.28299 0.33259 0.44133 0.02893 0.11046 0.04824 0.16656 0.0336 0.07056-0.05141-0.25034-0.04339-0.8234 0.0539-0.97673 0.0288-0.0513 0.0633-0.08719 0.10709-0.09881 0.17351 0.07948 0.50217 0.77416 0.76564 1.0631 0.16271 0.15382 0.2867 0.24299 0.31154 0.17004 0.04326-0.12777 0.08319-0.27315 0.12047-0.36573 0.08974-0.09744 0.33268-0.25084 0.46235-0.4279 0.03799-0.06695 0.08005-0.12551 0.12365-0.16752 0.08976-0.09144 0.25162-0.0962 0.42644-0.03096 0.50983-0.12116 0.79757 1.0153 1.1408 0.73542 0.0027 9.84e-4 0.0054 0.0019 8e-3 0.0027 0.24243 0.11415 0.50406 0.16794 0.70369 0.25443 0.29419 0.13052 0.85091 0.26893 1.2742 0.60724 0.23285 0.18913 0.45544 0.41643 0.6212 0.51358 0.402 0.17483 0.87152-0.11899 1.4508 0.17573 0.59148 0.30927 1.0583 0.59294 1.6848 0.76208 0.19276 0.05291 0.29205 0.22961 0.49336 0.19183 0.04997-0.01224 0.09836-0.02232 0.14547-0.03051 0.20854-0.07921 0.42192 0.05984 0.73388 0.14163 0.16145 0.0065 0.3138-0.0625 0.39102-0.1819 0.2814-0.37505 0.88904-0.69644 1.2356-0.88757 0.05308-0.02367 0.10678-0.03643 0.15784-0.04501 0.32211-0.14544 0.49808-0.20078 0.67375-0.47904 0.04951-0.08193 0.10774-0.16573 0.17692-0.24724 0.10943-0.17182 0.51209-0.74774 0.77788-0.95839 0.24677-0.29316 0.49724-0.41661 0.55792-0.16348 0.11184 0.40439 0.36677 0.93561 0.72632 1.2427 0.84735 0.58369 2.1829 0.28891 3.4076 0.99114 0.42827 0.19396 0.90993 0.02464 1.2071 0.24492 0.82159 0.43844 1.6663 1.0135 2.2614 1.0633 0.37511 0.12817 0.93909 0.14208 1.5295-0.15306 0.13941-0.02258 0.2932-0.16219 0.4434-0.24365 0.33827-0.18494 0.74278-0.32857 1.0601-0.50737 0.29666-0.18205 0.59887-0.2558 0.9018-0.39091 0.11044-0.0489 0.21854 0.03899 0.30038-0.0256 0.20446-0.19945 0.45231-0.31479 0.55584-0.47723 0.30968-0.14906 0.40098 0.07462 0.74064 0.03728 0.3292-0.01324 0.61885-0.1853 0.80897-0.24902" stroke-opacity=".84921" style="paint-order:normal"/>
		<path d="m17.499 42.151c-0.12684-0.05208-0.35562-0.74738-0.39747-1.071-0.03424-0.17123-0.01272-0.29217 0.08872-0.30781 0.12788-0.02007 0.27971 0.2327 0.34871 0.39307 0.05023 0.1126 0.08452 0.17905 0.07703 0.08548-0.02629-0.23295-0.0406-0.72735 0.03305-0.92999 0.02236-0.06593 0.05197-0.1161 0.09262-0.14032 0.13138-2e-3 0.48437 0.62518 0.75136 0.9672 0.15898 0.18996 0.28087 0.32132 0.2981 0.27044 0.03488-0.10362 0.07346-0.23227 0.11456-0.34082 0.09892-0.19719 0.29861-0.46294 0.44156-0.65337 0.04187-0.06349 0.08593-0.11519 0.13034-0.14773 0.09053-0.06907 0.25339-0.03767 0.43518 0.0561 0.46079 0.06891 0.86572 0.90546 1.1214 0.84249 0.0027 0.0018 0.0053 0.0035 0.0078 0.0051 0.24203 0.17645 0.49312 0.31727 0.71318 0.46913 0.32431 0.22538 0.78429 0.44248 1.1821 0.74661 0.21239 0.16419 0.42113 0.34388 0.60304 0.45262 0.42738 0.22426 0.90086 0.18591 1.4495 0.4208 0.55272 0.24162 1.0604 0.44295 1.6756 0.55397 0.18873 0.03455 0.33209 0.12943 0.53024 0.11156 0.04753-0.0059 0.09438-0.01091 0.14072-0.0151 0.17586-0.0405 0.44058 0.03959 0.72873 0.074 0.16916-0.0017 0.32143-0.04934 0.3885-0.13796 0.27009-0.31797 0.88797-0.50475 1.2547-0.72307 0.05326-0.02872 0.1046-0.05373 0.15157-0.07898 0.31636-0.22603 0.44644-0.43691 0.63344-0.73034 0.04803-0.07722 0.10364-0.15368 0.1701-0.22646 0.07114-0.10303 0.43501-0.62202 0.72801-0.92546 0.27203-0.33161 0.54516-0.55163 0.60546-0.36369 0.11422 0.32083 0.37934 0.768 0.75121 1.131 0.8369 0.74063 2.1689 1.1723 3.4475 1.9464 0.3992 0.21382 0.82595 0.22914 1.1535 0.42441 0.90569 0.45266 1.7862 0.82806 2.3943 0.65096 0.37295-0.05526 0.95612-0.21748 1.6029-0.54682 0.13438-0.04419 0.2778-0.14851 0.42067-0.22318 0.31652-0.16628 0.67298-0.31175 0.987-0.47302 0.2772-0.15086 0.55867-0.24486 0.83969-0.36734 0.10522-0.04564 0.20911-0.02092 0.29934-0.07363 0.22539-0.15118 0.47139-0.25615 0.63999-0.38075 0.35783-0.14787 0.59328-0.09191 0.93454-0.14965 0.31219-0.03995 0.58856-0.14656 0.79186-0.17913" stroke-opacity=".92291" style="paint-order:normal"/>
		<path d="m17.436 41.994c-0.06762-0.05764-0.35129-0.61734-0.4447-1.0199-0.04542-0.19571-0.04585-0.35427 0.04539-0.39989 0.11522-0.05761 0.26297 0.1801 0.36558 0.3426 0.07251 0.11483 0.12246 0.19211 0.12246 0.10108 0-0.21475-0.03768-0.62689 0.01124-0.88109 0.01563-0.08124 0.04011-0.14635 0.07749-0.18373 0.0873-0.0873 0.46576 0.46933 0.73642 0.86683 0.15508 0.22775 0.27477 0.40326 0.28404 0.37546 0.02612-0.07836 0.06328-0.18951 0.10837-0.31477 0.10853-0.30153 0.26297-0.68481 0.4198-0.88922 0.04594-0.05988 0.09209-0.1044 0.13734-0.12703 0.09133-0.04567 0.25525 0.02355 0.44433 0.14717 0.40949 0.26772 0.93701 0.79061 1.101 0.95449l0.0075 0.0075c0.24161 0.24161 0.48167 0.47346 0.72311 0.69372 0.35581 0.3246 0.7146 0.62403 1.0857 0.8924 0.19099 0.1381 0.38524 0.26799 0.58404 0.38884 0.45394 0.27596 0.93155 0.50486 1.448 0.67715 0.51218 0.17086 1.0626 0.28606 1.666 0.33628 0.18451 0.01536 0.37397 0.02464 0.56881 0.02758 0.04496 6.79e-4 0.09021 1e-3 0.13576 1e-3 0.14166 0 0.46009 0.0184 0.72334 0.0033 0.17722-0.01019 0.32942-0.03557 0.38585-0.092 0.25827-0.25827 0.88687-0.30423 1.2747-0.551 0.05344-0.034 0.10231-0.07181 0.14502-0.11452 0.31034-0.31034 0.39242-0.68391 0.59127-0.9932 0.04648-0.07229 0.09934-0.14108 0.16298-0.20472 0.03108-0.03108 0.35439-0.49051 0.67585-0.89101 0.29845-0.37184 0.5953-0.69287 0.65518-0.57312 0.11671 0.23342 0.39248 0.59267 0.77724 1.0142 0.82596 0.9048 2.1542 2.0964 3.4894 2.9457 0.36879 0.23459 0.7381 0.44306 1.0975 0.61216 0.99367 0.46752 1.9116 0.63412 2.5333 0.21967 0.37069-0.24712 0.97393-0.59358 1.6798-0.9587 0.12913-0.06679 0.26169-0.13421 0.39688-0.20176 0.29376-0.14677 0.59997-0.29415 0.91048-0.43708 0.25684-0.11823 0.51662-0.23341 0.77473-0.34268 0.09976-0.04223 0.19926-0.08358 0.29825-0.12388 0.24728-0.10068 0.49134-0.19481 0.72801-0.27982 0.4082-0.14662 0.79443-0.2661 1.1374-0.34519 0.29439-0.0679 0.55688-0.10603 0.77397-0.10603" style="paint-order:normal"/>
	</g>
	<g transform="translate(-.031373 -.37647)">
		<g fill-opacity="0" stroke="#ffff00" stroke-width=".2">
			<path d="m17.791 43.635c2.6588 0.98022 3.1401-7.6205 3.5795-7.3761 0.0048 0.0027 0.0095 0.0064 0.0143 0.01111 3.1259 3.1259 0.38978 1.0744 3.2388-1.7747 0.76403-0.76403 1.8906 2.6128 2.6564 1.869 0.0019-0.0018 0.0037-0.0037 0.0056-0.0055 0.22436-0.22436 2.0592-2.2078 2.1296-1.9965 0.0021 0.0062 0.0042 0.0125 0.0063 0.01877 0.61284 1.8163 2.5755 4.4627 3.8315 5.7268 0.0074 0.0075 0.01478 0.01485 0.02214 0.02221 0.0081 0.0081 0.02133 0.0085 0.03919 0.0023 0.0081-0.0028 0.01719-0.0071 0.02715-0.01264 0.31524-0.17576 1.5236-1.6674 1.7964-1.9807 0.02063-0.02369 0.03591-0.04065 0.04504-0.04978 1.0039-1.0039 1.9418 2.0352 2.9444 3.077 0.0094 0.0098 0.01878 0.01934 0.02819 0.02874 0.05321 0.05321 0.10904 0.08231 0.16703 0.09143 0.0127 2e-3 0.02551 3e-3 0.03842 0.0032 0.60416 0.0058 1.4259-1.9939 1.9817-1.5426 0.01051 0.0085 0.02092 0.01794 0.03124 0.02826 0.77162 0.77162 2.447 1.3465 3.2274 0.58804 0.0038-0.0037 0.0076-0.0075 0.01142-0.01126 0.39442-0.39442 0.35734-1.8825 0.74501-1.5175 0.0031 0.0029 0.0061 0.0059 0.0092 9e-3 1.256 1.256 1.8842 3.2819 2.3515 3.7269" stroke-opacity=".14706" style="paint-order:normal"/>
			<path d="m17.791 43.634c2.6576 0.97981 3.1436-7.5949 3.5875-7.3528 0.0048 0.0026 0.0095 0.0063 0.01429 0.01107 3.1205 3.1153 0.39657 1.0682 3.241-1.7744 1e-6 -1e-6 1e-6 -1e-6 2e-6 -1e-6 0.76394-0.76294 1.8894 2.6023 2.6552 1.8593 0.0019-0.0018 0.0037-0.0037 0.0056-0.0055 0.22544-0.22476 2.0565-2.2033 2.1286-1.9938 0.0021 0.0062 0.0042 0.01245 0.0063 0.01869 0.61507 1.8083 2.576 4.4441 3.833 5.702 0.0074 0.0074 0.01478 0.01479 0.02213 0.02211 0.0081 8e-3 0.02132 0.0085 0.03915 0.0022 0.0081-0.0028 0.01718-0.0071 0.02714-0.01262 0.31482-0.17528 1.5205-1.6601 1.7933-1.9695 0.02058-0.02358 0.03583-0.04043 0.04495-0.04949 1.002-0.99718 1.9383 2.0371 2.9387 3.0772 0.0094 0.0098 0.01875 0.01933 0.02814 0.02873 0.05313 0.05321 0.10887 0.08234 0.16676 0.09149 0.01268 2e-3 0.02547 0.0031 0.03836 0.0032 0.60386 0.0072 1.4248-1.9858 1.9809-1.5357 0.01051 0.0085 0.02092 0.01789 0.03123 0.02818 0.77167 0.76939 2.4445 1.3419 3.2251 0.58493 0.0038-0.0037 0.0076-0.0075 0.01142-0.01124 0.39454-0.39361 0.35887-1.8776 0.74662-1.5139 0.0031 0.0029 0.0061 0.0058 0.0092 0.0089 1.2557 1.2513 1.8851 3.271 2.3528 3.7179" stroke-opacity=".14968" style="paint-order:normal"/>
			<path d="m17.789 43.629c2.6545 0.97869 3.1532-7.5247 3.6096-7.289 0.0048 0.0026 0.0095 0.0063 0.01427 0.01096 3.1056 3.0864 0.41513 1.0513 3.2469-1.7737l6e-6 -3e-6c0.76368-0.75995 1.8859 2.5736 2.6517 1.8329 0.0019-0.0018 0.0037-0.0036 0.0056-0.0055 0.22837-0.22583 2.0491-2.191 2.1256-1.9863 0.0021 0.0061 0.0042 0.0123 0.0064 0.01847 0.62115 1.7864 2.5776 4.3933 3.837 5.6342 0.0074 0.0073 0.01477 0.01461 0.02211 0.02184 0.0081 0.0079 0.02128 0.0083 0.03904 0.0021 0.0081-0.0029 0.01715-0.0071 0.02708-0.01257 0.31368-0.17398 1.5117-1.6399 1.7849-1.9387 0.02045-0.02325 0.03561-0.03984 0.0447-0.04869 0.99696-0.97883 1.9289 2.0424 2.9229 3.0778 0.0093 0.0097 0.01867 0.01931 0.02801 0.0287 0.05292 0.05321 0.1084 0.08242 0.16599 0.09168 0.01263 2e-3 0.02537 0.0031 0.0382 0.0033 0.60302 0.01128 1.422-1.9635 1.9786-1.5168 0.0105 0.0084 0.0209 0.01775 0.03121 0.02795 0.77181 0.7633 2.4378 1.3291 3.2188 0.57645 0.0038-0.0037 0.0076-0.0074 0.01142-0.01117 0.39487-0.3914 0.36307-1.8641 0.75101-1.5043 3e-3 0.0028 0.0061 0.0058 0.0092 0.0088 1.2549 1.2386 1.8875 3.2413 2.3563 3.6932" stroke-opacity=".15685" style="paint-order:normal"/>
			<path d="m17.787 43.621c2.6495 0.97692 3.1684-7.4135 3.6445-7.1878 0.0048 0.0026 0.0095 0.0061 0.01424 0.01077 3.082 3.0406 0.44455 1.0246 3.2563-1.7725 4e-6 -2e-6 8e-6 -5e-6 1.3e-5 -7e-6 0.76328-0.75521 1.8805 2.5281 2.6461 1.7911 0.0019-0.0018 0.0037-0.0036 0.0056-0.0055 0.23302-0.22753 2.0374-2.1714 2.1209-1.9743 0.0021 6e-3 0.0043 0.01207 0.0064 0.01812 0.63078 1.7516 2.5802 4.3126 3.8434 5.5267 0.0074 0.0072 0.01475 0.01432 0.02208 0.02141 0.0081 0.0078 0.02123 0.0081 0.03887 0.0019 0.0081-0.0029 0.01711-7e-3 0.027-0.01249 0.31185-0.1719 1.4979-1.6079 1.7716-1.89 0.02025-0.02273 0.03527-0.03889 0.04431-0.04742 0.98892-0.94973 1.914 2.0507 2.8979 3.0788 0.0093 0.0097 0.01854 0.01929 0.02781 0.02866 0.05259 0.05321 0.10766 0.08254 0.16478 0.09197 0.01255 0.0021 0.0252 0.0033 0.03795 0.0035 0.6017 0.01769 1.4175-1.9281 1.975-1.4869 0.01049 0.0083 0.02088 0.01753 0.03119 0.0276 0.77202 0.75364 2.4271 1.3089 3.2087 0.563 0.0038-0.0037 0.0076-0.0073 0.01143-0.01107 0.3954-0.3879 0.36973-1.8428 0.75798-1.4891 3e-3 0.0028 0.0061 0.0057 0.0092 0.0087 1.2536 1.2184 1.8913 3.1943 2.362 3.6542" stroke-opacity=".16821" style="paint-order:normal"/>
			<path d="m17.784 43.611c2.6427 0.97453 3.1889-7.263 3.6919-7.0508 0.0047 0.0025 0.0095 6e-3 0.0142 0.01052 3.05 2.9786 0.48439 0.98847 3.269-1.7709 7e-6 -4e-6 1.5e-5 -8e-6 2.3e-5 -1.3e-5 0.76273-0.74879 1.8731 2.4665 2.6386 1.7344 0.0019-0.0018 0.0037-0.0036 0.0056-0.0054 0.23932-0.22983 2.0215-2.1449 2.1145-1.9582 0.0022 0.0059 0.0044 0.01175 0.0066 0.01764 0.64383 1.7046 2.5836 4.2034 3.8521 5.3812 0.0074 7e-3 0.01472 0.01394 0.02205 0.02083 0.0081 0.0075 0.02116 0.0078 0.03863 0.0016 0.0081-0.0029 0.01705-7e-3 0.02689-0.01237 0.30938-0.16909 1.4792-1.5645 1.7536-1.8239 0.01997-0.02203 0.03481-0.03761 0.04377-0.04571 0.97802-0.91033 1.8938 2.0621 2.8641 3.0801 0.0092 0.0097 0.01835 0.01925 0.02754 0.02859 0.05213 0.05321 0.10666 0.0827 0.16314 0.09236 0.01244 0.0022 0.02497 0.0034 0.0376 0.0038 0.59991 0.02637 1.4115-1.8802 1.9701-1.4464 0.01047 0.0082 0.02086 0.01723 0.03115 0.02713 0.77231 0.74056 2.4127 1.2815 3.1951 0.54479 0.0038-0.0036 0.0076-0.0073 0.01143-0.01093 0.39612-0.38316 0.37875-1.8139 0.76742-1.4685 3e-3 0.0027 0.0061 0.0056 0.0092 0.0085 1.2518 1.1911 1.8965 3.1305 2.3696 3.6013" stroke-opacity=".18359" style="paint-order:normal"/>
			<path d="m17.78 43.598c2.6342 0.97152 3.2146-7.0742 3.7512-6.8791 0.0047 0.0024 0.0094 0.0058 0.01414 0.01021 3.0099 2.9008 0.53435 0.94312 3.2849-1.769 1.2e-5 -7e-6 2.3e-5 -1.3e-5 3.5e-5 -2e-5 0.76204-0.74074 1.8638 2.3892 2.6293 1.6634 0.0019-0.0018 0.0037-0.0036 0.0056-0.0054 0.24722-0.23272 2.0015-2.1117 2.1065-1.938 0.0022 0.0057 0.0044 0.01136 0.0067 0.01705 0.66018 1.6457 2.5879 4.0665 3.863 5.1987 0.0074 0.0067 0.01469 0.01345 0.022 0.02011 0.0081 0.0073 0.02107 0.0074 0.03833 0.0013 8e-3 -0.0029 0.01697-7e-3 0.02676-0.01223 0.30629-0.16557 1.4558-1.5102 1.731-1.7411 0.01962-0.02116 0.03423-0.03601 0.0431-0.04356 0.96435-0.86092 1.8685 2.0763 2.8217 3.0818 0.0091 0.0097 0.01813 0.0192 0.02719 0.02852 0.05157 0.0532 0.10541 0.08291 0.16108 0.09286 0.0123 0.0023 0.02469 0.0037 0.03718 0.0042 0.59767 0.03726 1.4039-1.8202 1.964-1.3957 0.01046 8e-3 0.02082 0.01685 0.0311 0.02653 0.77267 0.72416 2.3946 1.2472 3.1781 0.52196 0.0038-0.0036 0.0076-0.0071 0.01143-0.01075 0.39702-0.37721 0.39005-1.7777 0.77925-1.4426 3e-3 0.0026 0.0061 0.0054 0.0092 0.0083 1.2496 1.1569 1.9029 3.0506 2.3792 3.5349" stroke-opacity=".20287" style="paint-order:normal"/>
			<path d="m17.775 43.583c2.624 0.96792 3.2455-6.848 3.8223-6.6733 0.0047 0.0023 0.0094 0.0056 0.01408 0.0098 2.9618 2.8076 0.5942 0.88879 3.304-1.7666 1.7e-5 -1e-5 3.3e-5 -1.9e-5 5e-5 -2.8e-5 0.76122-0.7311 1.8527 2.2967 2.618 1.5783 0.0019-0.0017 0.0037-0.0035 0.0056-0.0053 0.25669-0.23618 1.9777-2.0718 2.0969-1.9137 0.0023 0.0054 0.0046 0.01088 0.0069 0.01634 0.67978 1.575 2.5931 3.9025 3.876 4.98 0.0073 0.0065 0.01465 0.01287 0.02195 0.01924 0.0081 0.0069 0.02096 7e-3 0.03798 8.61e-4 8e-3 -0.0029 0.01688-0.0069 0.02659-0.01206 0.30258-0.16135 1.4276-1.445 1.7039-1.6419 0.01919-0.02011 0.03354-0.03409 0.0423-0.04098 0.94798-0.80172 1.8381 2.0933 2.7709 3.0837 0.0089 0.0097 0.01786 0.01915 0.02679 0.02843 0.05088 0.0532 0.1039 0.08316 0.15862 0.09345 0.01213 0.0024 0.02435 0.0039 0.03666 0.0046 0.59498 0.0503 1.3948-1.7482 1.9567-1.3348 0.01044 0.0078 0.02078 0.0164 0.03105 0.02581 0.77311 0.70451 2.3729 1.206 3.1576 0.4946 0.0038-0.0035 0.0076-7e-3 0.01144-0.01054 0.3981-0.37009 0.40359-1.7343 0.79342-1.4116 3e-3 0.0025 0.0061 0.0052 0.0092 8e-3 1.247 1.1158 1.9106 2.9549 2.3907 3.4555" stroke-opacity=".22598" style="paint-order:normal"/>
			<path d="m17.77 43.565c2.6122 0.96374 3.2814-6.5851 3.9049-6.4341 0.0047 0.0022 0.0093 0.0053 0.01401 0.0094 2.906 2.6992 0.66376 0.82564 3.3262-1.7638 2.2e-5 -1.2e-5 4.4e-5 -2.4e-5 6.7e-5 -3.7e-5 0.76026-0.71989 1.8397 2.1891 2.6049 1.4794 0.0019-0.0017 0.0037-0.0035 0.0056-0.0052 0.26768-0.2402 1.9499-2.0256 2.0858-1.8855 0.0023 0.0052 0.0047 0.01033 7e-3 0.01551 0.70256 1.4929 2.5991 3.7119 3.8911 4.7259 0.0073 0.0061 0.01461 0.0122 0.02188 0.01823 0.0081 0.0065 0.02083 0.0064 0.03756 3.81e-4 8e-3 -0.0029 0.01678-0.0069 0.0264-0.01186 0.29827-0.15645 1.395-1.3694 1.6724-1.5266 0.01871-0.01889 0.03273-0.03186 0.04137-0.03798 0.92895-0.73293 1.8029 2.1131 2.7118 3.086 0.0088 0.0096 0.01754 0.01908 0.02631 0.02832 0.05009 0.05319 0.10216 0.08345 0.15576 0.09414 0.01193 0.0025 0.02395 0.0042 0.03606 0.0051 0.59186 0.06546 1.3843-1.6646 1.9482-1.2641 0.01041 0.0076 0.02074 0.01587 0.03098 0.02498 0.77361 0.68168 2.3477 1.1582 3.1339 0.46281 0.0038-0.0034 0.0076-0.0068 0.01144-0.0103 0.39935-0.36181 0.41934-1.6838 0.80989-1.3756 3e-3 0.0024 0.0061 5e-3 0.0091 0.0076 1.244 1.0681 1.9196 2.8436 2.4041 3.3631" stroke-opacity=".25284" style="paint-order:normal"/>
			<path d="m17.763 43.544c2.5987 0.95898 3.3221-6.2861 3.9989-6.1621 0.0046 0.0021 0.0093 5e-3 0.01392 0.0089 2.8425 2.576 0.74289 0.75381 3.3514-1.7607 2.9e-5 -1.6e-5 5.8e-5 -3.2e-5 8.6e-5 -4.8e-5 0.75917-0.70714 1.825 2.0668 2.59 1.3669 0.0018-0.0017 0.0037-0.0034 0.0055-0.0052 0.2802-0.24478 1.9184-1.9729 2.0731-1.8535 0.0024 0.0048 0.0048 0.0097 0.0073 0.01457 0.72847 1.3996 2.6059 3.495 3.9083 4.4369 0.0073 0.0057 0.01456 0.01143 0.02181 0.01708 0.0082 0.0061 0.02069 0.0058 0.03709-1.64e-4 0.0079-0.0029 0.01666-0.0068 0.02619-0.01163 0.29337-0.15087 1.3578-1.2833 1.6365-1.3954 0.01815-0.0175 0.03181-0.02932 0.04031-0.03457 0.90731-0.65467 1.7628 2.1356 2.6447 3.0886 0.0086 0.0096 0.01718 0.01901 0.02577 0.0282 0.04919 0.05319 0.10017 0.08378 0.1525 0.09493 0.01171 0.0027 0.0235 0.0046 0.03538 0.0057 0.5883 0.0827 1.3723-1.5695 1.9385-1.1837 0.01038 0.0073 0.02068 0.01528 0.03091 0.02404 0.77419 0.6557 2.319 1.1038 3.1069 0.42664 0.0038-0.0033 0.0076-0.0067 0.01144-0.01002 0.40078-0.35239 0.43724-1.6264 0.82863-1.3346 3e-3 0.0023 0.0061 0.0047 0.0091 0.0072 1.2405 1.0139 1.9299 2.7171 2.4193 3.2581" stroke-opacity=".28338" style="paint-order:normal"/>
			<path d="m17.756 43.521c2.5837 0.95365 3.3678-5.9514 4.1041-5.8576 0.0046 0.0019 0.0092 0.0047 0.01383 0.0083 2.7714 2.4381 0.83145 0.67342 3.3796-1.7572 3.6e-5 -2e-5 7.1e-5 -4e-5 1.07e-4 -6e-5 0.75795-0.69287 1.8086 1.9298 2.5734 1.2409 0.0018-0.0017 0.0037-0.0033 0.0055-0.0051 0.2942-0.2499 1.883-1.914 2.0589-1.8176 0.0025 0.0045 5e-3 9e-3 0.0075 0.01352 0.75747 1.2951 2.6135 3.2523 3.9275 4.1134 0.0073 0.0053 0.0145 0.01058 0.02172 0.0158 0.0082 0.0056 0.02053 0.0051 0.03657-7.76e-4 0.0079-3e-3 0.01652-0.0068 0.02594-0.01138 0.28788-0.14462 1.3162-1.1869 1.5964-1.2487 0.01753-0.01594 0.03078-0.02648 0.03912-0.03075 0.88308-0.56708 1.7179 2.1608 2.5695 3.0915 0.0084 0.0096 0.01678 0.01893 0.02516 0.02807 0.04818 0.05318 0.09794 0.08415 0.14886 0.09581 0.01146 0.0029 0.023 5e-3 0.03462 0.0063 0.58432 0.102 1.3589-1.463 1.9277-1.0937 0.01035 7e-3 0.02062 0.01461 0.03082 0.02298 0.77483 0.62662 2.2869 1.043 3.0767 0.38616 0.0038-0.0032 0.0077-0.0064 0.01145-0.0097 0.40237-0.34185 0.45728-1.5622 0.8496-1.2887 3e-3 0.0022 6e-3 0.0044 0.0091 0.0068 1.2366 0.95312 1.9413 2.5754 2.4363 3.1405" stroke-opacity=".31757" style="paint-order:normal"/>
			<path d="m17.749 43.496c2.567 0.94777 3.4182-5.5814 4.2204-5.521 0.0046 0.0018 0.0091 0.0043 0.01372 0.0077 2.6928 2.2856 0.92934 0.58456 3.4108-1.7533 4.4e-5 -2.4e-5 8.8e-5 -4.8e-5 1.32e-4 -7.3e-5 0.75661-0.6771 1.7904 1.7785 2.555 1.1018 0.0018-0.0016 0.0037-0.0033 0.0055-0.0049 0.30968-0.25555 1.844-1.8489 2.0433-1.7779 0.0026 0.0041 0.0052 0.0082 0.0078 0.01235 0.78953 1.1795 2.622 2.984 3.9488 3.7558 0.0072 0.0048 0.01443 0.0096 0.02163 0.01438 0.0082 5e-3 0.02035 0.0044 0.03598-0.0014 0.0078-3e-3 0.01638-0.0067 0.02568-0.0111 0.28182-0.13772 1.2703-1.0804 1.5521-1.0864 0.01684-0.01422 0.02964-0.02334 0.0378-0.02654 0.85631-0.47027 1.6683 2.1886 2.4864 3.0948 0.0082 0.0095 0.01634 0.01883 0.02449 0.02792 0.04706 0.05318 0.09548 0.08456 0.14483 0.09678 0.01118 0.0031 0.02244 0.0054 0.03378 7e-3 0.57992 0.12333 1.344-1.3454 1.9157-0.99423 0.01031 0.0066 0.02056 0.01387 0.03073 0.02181 0.77554 0.59449 2.2515 0.97569 3.0433 0.34142 0.0038-0.0031 0.0077-0.0062 0.01146-0.0094 0.40414-0.3302 0.47943-1.4912 0.87279-1.238 3e-3 2e-3 6e-3 0.0041 0.0091 0.0063 1.2323 0.886 1.954 2.4188 2.4551 3.0106" stroke-opacity=".35537" style="paint-order:normal"/>
			<path d="m17.74 43.469c2.5488 0.94132 3.4734-5.1766 4.3476-5.1527 0.0045 0.0016 0.0091 4e-3 0.0136 0.0071 2.6068 2.1188 1.0364 0.48733 3.445-1.749 5.3e-5 -3e-5 1.05e-4 -5.9e-5 1.58e-4 -8.8e-5 0.75513-0.65984 1.7705 1.6128 2.5348 0.94945 0.0018-0.0016 0.0036-0.0032 0.0055-0.0048 0.32662-0.26174 1.8013-1.7776 2.0261-1.7346 0.0027 0.0037 0.0054 0.0074 0.0081 0.01108 0.8246 1.0531 2.6312 2.6905 3.9721 3.3645 0.0072 0.0043 0.01437 0.0086 0.02154 0.01282 0.0082 0.0045 0.02016 0.0035 0.03535-0.0022 0.0077-3e-3 0.01621-0.0066 0.02538-0.01079 0.27519-0.13017 1.22-0.96389 1.5036-0.90885 0.01609-0.01234 0.0284-0.0199 0.03637-0.02192 0.82701-0.36433 1.614 2.2191 2.3955 3.0983 0.0079 0.0095 0.01585 0.01873 0.02376 0.02776 0.04584 0.05317 0.09279 0.08501 0.14042 0.09784 0.01088 0.0033 0.02183 0.0059 0.03286 0.0078 0.57511 0.14667 1.3278-1.2166 1.9026-0.88536 0.01028 0.0062 0.02049 0.01306 0.03063 0.02052 0.77632 0.55932 2.2127 0.90207 3.0067 0.29246 0.0038-3e-3 0.0077-6e-3 0.01146-9e-3 0.40607-0.31745 0.50367-1.4135 0.89815-1.1825 3e-3 0.0018 6e-3 0.0038 9e-3 0.0058 1.2276 0.81254 1.9678 2.2475 2.4757 2.8684" stroke-opacity=".39672" style="paint-order:normal"/>
			<path d="m17.731 43.439c2.529 0.93433 3.5334-4.7373 4.4857-4.753 0.0045 0.0014 9e-3 0.0035 0.01348 0.0063 2.5135 1.9378 1.1527 0.3818 3.482-1.7444 6.2e-5 -3.4e-5 1.24e-4 -6.9e-5 1.86e-4 -1.03e-4 0.75353-0.64111 1.7489 1.4331 2.513 0.78414 0.0018-0.0016 0.0036-0.0031 0.0054-0.0047 0.345-0.26846 1.7549-1.7003 2.0075-1.6875 0.0028 0.0032 0.0056 0.0065 0.0084 0.0097 0.86267 0.91594 2.6412 2.3719 3.9973 2.9398 0.0071 0.0038 0.01429 0.0075 0.02143 0.01114 0.0083 0.0038 0.01995 0.0026 0.03466-3e-3 0.0077-3e-3 0.01604-0.0065 0.02507-0.01046 0.26798-0.12197 1.1654-0.8374 1.451-0.71615 0.01528-0.0103 0.02705-0.01617 0.03481-0.01691 0.79521-0.24936 1.5551 2.2522 2.2968 3.1021 0.0077 0.0094 0.01532 0.01863 0.02296 0.02759 0.04452 0.05316 0.08987 0.0855 0.13564 0.099 0.01055 0.0035 0.02117 0.0064 0.03186 0.0086 0.56989 0.172 1.3102-1.0769 1.8884-0.76721 0.01023 0.0058 0.02041 0.01218 0.03052 0.01913 0.77716 0.52116 2.1705 0.82216 2.967 0.23932 0.0038-0.0028 0.0077-0.0057 0.01147-0.0086 0.40816-0.30362 0.52998-1.3292 0.92568-1.1223 3e-3 0.0017 6e-3 0.0034 9e-3 0.0052 1.2225 0.73282 1.9828 2.0615 2.498 2.714" stroke-opacity=".4416" style="paint-order:normal"/>
			<path d="m17.721 43.406c2.5077 0.9268 3.598-4.2637 4.6346-4.3222 0.0045 0.0012 0.0089 0.0031 0.01335 0.0055 2.4129 1.7426 1.278 0.26804 3.522-1.7394 7.2e-5 -4e-5 1.44e-4 -8e-5 2.16e-4 -1.2e-4 0.75181-0.62092 1.7257 1.2393 2.4894 0.60596 0.0018-0.0015 0.0036-3e-3 0.0054-0.0046 0.36481-0.27571 1.7049-1.6169 1.9875-1.6367 0.0029 0.0027 0.0058 0.0055 0.0087 0.0082 0.9037 0.76806 2.652 2.0284 4.0246 2.4821 0.0071 0.0031 0.01421 0.0063 0.02131 0.0093 0.0083 0.0031 0.01972 0.0016 0.03391-0.0039 0.0076-0.0031 0.01585-0.0065 0.02472-0.0101 0.26022-0.11314 1.1065-0.70107 1.3943-0.50844 0.0144-0.0081 0.0256-0.01215 0.03313-0.01151 0.76093-0.12542 1.4915 2.2878 2.1904 3.1063 0.0074 0.0094 0.01476 0.01851 0.0221 0.0274 0.04309 0.05315 0.08672 0.08602 0.13048 0.10024 0.01019 0.0038 0.02046 0.0069 0.03079 0.0095 0.56426 0.19931 1.2911-0.92626 1.873-0.63985 0.01019 0.0054 0.02032 0.01124 0.03041 0.01764 0.77807 0.48002 2.1251 0.73603 2.9242 0.18204 0.0038-0.0027 0.0077-0.0054 0.01148-0.0081 0.41042-0.2887 0.55834-1.2383 0.95536-1.0574 3e-3 0.0015 0.0059 3e-3 0.0089 0.0046 1.2169 0.64688 1.999 1.8611 2.5221 2.5477" stroke-opacity=".48998" style="paint-order:normal"/>
			<path d="m17.71 43.372c2.4849 0.91872 3.6672-3.7562 4.7941-3.8604 0.0044 1e-3 0.0088 0.0026 0.0132 0.0047 2.3051 1.5335 1.4123 0.14612 3.5648-1.7341 8.3e-5 -4.6e-5 1.66e-4 -9.2e-5 2.49e-4 -1.39e-4 0.74996-0.59929 1.7007 1.0316 2.4642 0.41499 0.0018-0.0015 0.0036-0.0029 0.0054-0.0044 0.38605-0.28347 1.6513-1.5276 1.966-1.5823 3e-3 0.0022 0.0061 0.0044 0.0091 0.0066 0.94768 0.60957 2.6636 1.6604 4.0538 1.9915 0.0071 0.0025 0.01412 5e-3 0.02119 0.0074 0.0083 0.0024 0.01948 6.08e-4 0.03311-0.0048 0.0075-0.0031 0.01565-0.0064 0.02435-0.0097 0.2519-0.10367 1.0435-0.55495 1.3335-0.28582 0.01346-0.0057 0.02404-0.0078 0.03132-0.0057 0.72419 0.0074 1.4235 2.326 2.0764 3.1107 0.0071 0.0093 0.01415 0.01838 0.02119 0.0272 0.04156 0.05315 0.08335 0.08658 0.12495 0.10157 0.0098 4e-3 0.0197 0.0075 0.02963 0.01047 0.55823 0.22857 1.2708-0.76482 1.8566-0.50336 0.01014 0.0049 0.02023 0.01022 0.03028 0.01603 0.77905 0.43592 2.0765 0.64372 2.8784 0.12066 0.0038-0.0025 0.0077-0.0051 0.01148-0.0077 0.41284-0.27272 0.58873-1.1409 0.98716-0.98785 3e-3 0.0012 0.0059 0.0026 0.0089 0.0039 1.211 0.55479 2.0164 1.6463 2.5479 2.3694" stroke-opacity=".54183" style="paint-order:normal"/>
			<path d="m17.699 43.335c2.4605 0.91011 3.741-3.2149 4.9642-3.368 0.0044 7.68e-4 0.0087 2e-3 0.01305 0.0038 2.1901 1.3104 1.5555 0.01611 3.6105-1.7284 9.5e-5 -5.3e-5 1.89e-4 -1.05e-4 2.84e-4 -1.58e-4 0.74799-0.57621 1.6741 0.81017 2.4372 0.21134 0.0018-0.0014 0.0036-0.0028 0.0053-0.0043 0.4087-0.29175 1.5942-1.4323 1.943-1.5243 0.0032 0.0016 0.0063 0.0033 0.0095 0.0049 0.99458 0.44055 2.6759 1.2678 4.0849 1.4683 7e-3 0.0018 0.01403 0.0036 0.02105 0.0053 0.0084 0.0016 0.01922-5.03e-4 0.03226-0.0058 0.0074-0.0031 0.01543-0.0063 0.02396-0.0093 0.24303-0.09357 0.9762-0.39912 1.2686-0.04842 0.01245-0.0032 0.02238-0.0033 0.0294 4.46e-4 0.68502 0.14906 1.3509 2.3668 1.9548 3.1154 0.0068 0.0093 0.0135 0.01825 0.0202 0.02698 0.03993 0.05314 0.07975 0.08718 0.11906 0.10299 0.0094 0.0043 0.01888 0.0081 0.0284 0.01149 0.55179 0.25978 1.2491-0.59267 1.8391-0.35779 0.01009 0.0044 0.02014 0.0091 0.03014 0.01432 0.78009 0.3889 2.0246 0.54527 2.8295 0.05519 0.0038-0.0024 0.0077-0.0048 0.01149-0.0072 0.41542-0.25567 0.62114-1.037 1.0211-0.91367 0.0029 1e-3 0.0059 0.0021 0.0089 0.0032 1.2047 0.45657 2.0349 1.4172 2.5754 2.1792" stroke-opacity=".59712" style="paint-order:normal"/>
			<path d="m17.687 43.296c2.4346 0.90096 3.8194-2.6402 5.1449-2.8451 0.0043 5.23e-4 0.0086 0.0015 0.01288 0.0028 2.0681 1.0736 1.7076-0.12195 3.6589-1.7224 1.07e-4 -5.9e-5 2.14e-4 -1.19e-4 3.21e-4 -1.78e-4 0.7459-0.55171 1.6459 0.575 2.4086-0.0049 0.0018-0.0014 0.0035-0.0027 0.0053-0.0041 0.43274-0.30054 1.5335-1.3311 1.9187-1.4626 0.0033 1e-3 0.0066 0.0021 0.0099 0.0031 1.0444 0.26107 2.689 0.85104 4.118 0.9127 7e-3 0.0011 0.01393 0.0021 0.02091 0.0031 0.0084 7.06e-4 0.01894-0.0017 0.03136-0.0068 0.0073-0.0032 0.0152-0.0061 0.02354-0.0089 0.23361-0.08284 0.90478-0.23366 1.1998 0.20366 0.01138-5.62e-4 0.02061 0.0016 0.02736 7e-3 0.64341 0.29947 1.2738 2.41 1.8257 3.1204 0.0064 0.0092 0.01281 0.01811 0.01916 0.02675 0.0382 0.05313 0.07593 0.08781 0.1128 0.1045 9e-3 0.0046 0.01801 0.0088 0.0271 0.01258 0.54496 0.29292 1.226-0.40986 1.8205-0.20322 0.01003 0.0038 0.02004 8e-3 0.03 0.0125 0.78119 0.33898 1.9695 0.44074 2.7776-0.01432 0.0038-0.0022 0.0077-0.0044 0.0115-0.0066 0.41816-0.23757 0.65556-0.9267 1.0571-0.8349 0.0029 7.8e-4 0.0059 0.0016 0.0088 0.0025 1.1981 0.35228 2.0545 1.1739 2.6046 1.9773" stroke-opacity=".65584" style="paint-order:normal"/>
			<path d="m17.674 43.254c2.4073 0.89128 3.9023-2.0321 5.336-2.2919 0.0042 2.62e-4 0.0085 8.67e-4 0.01271 0.0018 1.9389 0.82302 1.8685-0.26799 3.7102-1.716 1.2e-4 -6.6e-5 2.4e-4 -1.33e-4 3.6e-4 -2e-4 0.74368-0.52579 1.616 0.32622 2.3784-0.23368 0.0018-0.0013 0.0035-0.0026 0.0053-0.0039 0.45818-0.30984 1.4694-1.2241 1.893-1.3975 0.0034 3.91e-4 0.0069 7.86e-4 0.01035 0.0012 1.0971 0.07121 2.7029 0.41011 4.1529 0.32498 0.0069 2.9e-4 0.01383 5.4e-4 0.02076 7.5e-4 0.0084-1.92e-4 0.01865-0.0029 0.0304-0.0079 0.0072-0.0032 0.01496-6e-3 0.02311-0.0084 0.22364-0.0715 0.82922-0.05862 1.1269 0.47034 0.01026 0.0023 0.01874 0.0068 0.0252 0.01393 0.5994 0.45859 1.1922 2.4558 1.6891 3.1257 0.0061 0.0091 0.01208 0.01796 0.01806 0.02651 0.03636 0.05312 0.07189 0.08848 0.10618 0.1061 0.0085 0.0049 0.0171 0.0095 0.02571 0.01373 0.53773 0.32798 1.2016-0.21647 1.8008-0.03971 0.01 0.0033 0.01993 0.0068 0.02985 0.01058 0.78236 0.28616 1.9112 0.33016 2.7227-0.08786 0.0038-2e-3 0.0077-4e-3 0.01151-0.0061 0.42106-0.21842 0.69197-0.81001 1.0952-0.75157 0.0029 5.24e-4 0.0058 0.0011 0.0088 0.0017 1.191 0.24195 2.0753 0.91658 2.6355 1.7637" stroke-opacity=".71795" style="paint-order:normal"/>
			<path d="m17.661 43.21c2.3784 0.88108 3.9898-1.391 5.5375-1.7087 0.0042-1.2e-5 0.0084 2.39e-4 0.01253 7.58e-4 1.8027 0.55884 2.0382-0.42198 3.7643-1.7092 1.33e-4 -7.5e-5 2.67e-4 -1.49e-4 4.01e-4 -2.23e-4 0.74135-0.49846 1.5845 0.06392 2.3465-0.4749 0.0017-0.0012 0.0035-0.0025 0.0052-0.0037 0.48501-0.31965 1.4017-1.1112 1.8658-1.3287 0.0036-2.81e-4 0.0072-5.58e-4 0.01081-8.32e-4 1.1526-0.12898 2.7175-0.0548 4.1898-0.2947 0.0069-5.31e-4 0.01372-0.0011 0.0206-0.0017 0.0085-0.0011 0.01834-0.0042 0.02939-0.0091 0.0071-0.0033 0.0147-0.0059 0.02264-0.0079 0.21314-0.05954 0.74956 0.12594 1.0501 0.75153 0.0091 0.0052 0.01677 0.01223 0.02293 0.02124 0.553 0.62636 1.1063 2.504 1.5451 3.1313 0.0057 9e-3 0.01131 0.0178 0.0169 0.02625 0.03443 0.05311 0.06762 0.08919 0.0992 0.10778 8e-3 0.0053 0.01613 0.01023 0.02426 0.01494 0.53011 0.36495 1.1759-0.01256 1.7801 0.1327 0.0099 0.0027 0.01981 0.0055 0.02969 0.0085 0.78359 0.23046 1.8497 0.21356 2.6648-0.1654 0.0038-0.0018 0.0077-0.0036 0.01152-0.0055 0.42412-0.19823 0.73035-0.68698 1.1354-0.66371 0.0029 2.54e-4 0.0058 5.39e-4 0.0087 8.54e-4 1.1835 0.12562 2.0973 0.64524 2.668 1.5385" stroke-opacity=".78344" style="paint-order:normal"/>
			<path d="m17.646 43.164c2.3481 0.87036 4.0817-0.71708 5.7493-1.0955 0.0041-3.01e-4 0.0082-4.23e-4 0.01234-3.63e-4 1.6596 0.28111 2.2165-0.58387 3.8212-1.7022 1.49e-4 -8.2e-5 2.97e-4 -1.65e-4 4.45e-4 -2.47e-4 0.7389-0.46972 1.5513-0.21184 2.313-0.72848 0.0017-0.0012 0.0035-0.0024 0.0052-0.0035 0.5132-0.32996 1.3306-0.99256 1.8373-1.2565 0.0038-9.87e-4 0.0075-2e-3 0.0113-3e-3 1.211-0.33944 2.7329-0.54354 4.2285-0.94617 0.0068-0.0014 0.01361-0.0028 0.02044-0.0043 0.0085-0.0021 0.01802-0.0056 0.02833-0.01033 7e-3 -0.0033 0.01443-0.0058 0.02215-0.0074 0.20209-0.04697 0.66581 0.31997 0.96938 1.0471 0.0078 0.0084 0.01471 0.01795 0.02054 0.02893 0.50422 0.80274 1.0159 2.5548 1.3937 3.1372 0.0053 9e-3 0.0105 0.01763 0.01568 0.02598 0.0324 0.0531 0.06314 0.08994 0.09186 0.10955 0.0075 0.0056 0.01512 0.01101 0.02272 0.01622 0.5221 0.4038 1.1488 0.2018 1.7583 0.31395 0.0099 2e-3 0.01969 0.0042 0.02953 0.0064 0.78488 0.17192 1.7851 0.09098 2.604-0.24691 0.0038-0.0016 0.0077-0.0032 0.01153-0.0048 0.42733-0.17701 0.77071-0.55763 1.1776-0.57134 0.0029-2.9e-5 0.0058-3.7e-5 0.0086-2.3e-5 1.1757 0.0033 2.1203 0.35998 2.7023 1.3018" stroke-opacity=".85229" style="paint-order:normal"/>
			<path d="m17.632 43.116c2.3163 0.85911 4.1781-0.01042 5.9715-0.45261 4e-3 -6.03e-4 0.0081-0.0011 0.01214-0.0015 1.5095-0.0101 2.4035-0.75362 3.8808-1.6947 1.63e-4 -9.1e-5 3.26e-4 -1.82e-4 4.9e-4 -2.73e-4 0.73632-0.4396 1.5166-0.50098 2.2778-0.99436l0.0051-0.0033c0.54277-0.34077 1.256-0.86815 1.8073-1.1807 0.0039-0.0017 0.0079-0.0035 0.01181-0.0052 1.2722-0.56011 2.749-1.056 4.2692-1.6292 0.0067-0.0023 0.01349-0.0046 0.02026-7e-3 0.0086-0.0032 0.01768-0.0071 0.02722-0.01162 0.0069-0.0034 0.01415-0.0057 0.02164-0.0069 0.1905-0.03378 0.578 0.52341 0.88472 1.3571 0.0065 0.01165 0.01253 0.02395 0.01803 0.03698 0.45307 0.98768 0.92109 2.608 1.235 3.1434 0.0049 0.0089 0.0097 0.01746 0.0144 0.0257 0.03027 0.05308 0.05844 0.09072 0.08417 0.1114 7e-3 6e-3 0.01406 0.01183 0.02112 0.01755 0.5137 0.44455 1.1205 0.42657 1.7354 0.50399 0.0098 0.0014 0.01957 0.0027 0.02935 0.0042 0.78624 0.11053 1.7174-0.03754 2.5401-0.33238 0.0039-0.0014 0.0077-0.0028 0.01154-0.0042 0.4307-0.15475 0.81303-0.42201 1.2219-0.47449 0.0029-3.26e-4 0.0057-6.41e-4 0.0086-9.44e-4 1.1675-0.12491 2.1445 0.06088 2.7382 1.0535" stroke-opacity=".92449" style="paint-order:normal"/>
			<path d="m17.616 43.066c2.283 0.84735 4.2789 0.72878 6.2038 0.2199 4e-3 -9.2e-4 8e-3 -0.0018 0.01192-0.0028 1.3525-0.31471 2.5991-0.93117 3.9431-1.687 1.79e-4 -9.9e-5 3.58e-4 -1.99e-4 5.38e-4 -2.99e-4 0.73363-0.40808 1.4803-0.80344 2.241-1.2725 0.0017-1e-3 0.0034-0.0021 0.0051-0.0031 0.5737-0.35208 1.178-0.73802 1.776-1.1015 0.0041-0.0025 0.0082-5e-3 0.01235-0.0075 1.3363-0.79094 2.7659-1.5921 4.3117-2.3438 0.0067-0.0032 0.01336-0.0065 0.02008-0.0099 0.0086-0.0043 0.01733-0.0086 0.02606-0.01297 0.0068-0.0034 0.01385-0.0055 0.0211-0.0063 0.17839-0.01999 0.48615 0.73622 0.79617 1.6813 0.0051 0.01509 0.01026 0.03022 0.0154 0.04541 0.39956 1.1811 0.82195 2.6636 1.0689 3.1498 0.0044 0.0088 0.0088 0.01728 0.01306 0.0254 0.02804 0.05307 0.05353 0.09153 0.07612 0.11334 0.0065 0.0064 0.01295 0.01268 0.01944 0.01895 0.50491 0.48717 1.0908 0.66168 1.7115 0.70279 0.0097 6.54e-4 0.01944 0.0013 0.02917 0.0018 0.78766 0.04631 1.6465-0.17199 2.4734-0.42178 0.0039-0.0012 0.0077-0.0023 0.01155-0.0035 0.43422-0.13147 0.85729-0.28015 1.2682-0.37318 0.0028-6.37e-4 0.0057-0.0013 0.0085-0.0019 1.1589-0.25904 2.1697-0.25198 2.7758 0.79386" style="paint-order:normal"/>
		</g>
	</g>
	<g fill="none" stroke-width=".2">
		<path d="m17.481 42.837c0-0.10373-0.014969-0.27631-0.029354-0.46331-0.017373-0.22585-0.033893-0.47274-0.022159-0.64476 0.015952-0.23385 0.084121-0.32932 0.27335-0.045482 0.16854 0.25282 0.31148 0.44801 0.42394 0.59287 0.18358 0.23648 0.28594 0.33884 0.28594 0.33884s-0.44368-0.84298 0.08873-0.44368c0.089948 0.067461 0.15963 0.13745 0.21526 0.20506 0.27364 0.33256 0.20714 0.60733 0.53898 0.23861 0.39931-0.44368 0.22184-0.31057 0.53241-0.53241 0.12908-0.043027 0.67537-0.67015 1.0725-0.46533 0.012396 0.0063942 0.024648 0.013599 0.036736 0.021658 0.39931 0.2662 0.93172 0.57678 1.331 0.04437 0.39931-0.53241-0.17747-0.88735 0.44368-0.57678 0.46161 0.23081 0.31063 0.70665 0.60325 0.73554 0.10113 0.0099839 0.25524-0.033416 0.50594-0.15876 0.97608-0.48804 0.48804-0.66551 1.1092-0.57678 0.62114 0.08873 0.1331-0.17747 1.1979 0.2662 0.76898 0.32041 1.376 0.1549 2.1385-0.02864 0.29336-0.070611 0.60974-0.14389 0.96721-0.1932 1.0203-0.14073 1.7337 0.24861 2.6269 0.39373 0.2332 0.037888 0.47866 0.05913 0.74504 0.049944 0.33172-0.011439 0.6133-0.12314 0.88276-0.27505 0.77573-0.43731 1.451-1.2078 2.9328-0.8785 0.17986 0.03997 0.35217 0.0821 0.5173 0.1259 1.6679 0.44243 2.604 1.0556 3.2096 1.3382 0.65316 0.30481 0.53707-0.1169 1.2036 0.16095 0.012602 0.0052529 0.025483 0.010756 0.038655 0.016518 0.70988 0.31057 0.39931 0.62114 1.0205 0.48804 0.62114-0.1331 0.93172-0.75425 0.97608-0.39931 0.0071061 0.056846 0.0051079 0.11824-0.0014381 0.18018-0.034326 0.32481-0.19371 0.66453 0.17891 0.44096 0.036395-0.021837 0.070701-0.043077 0.10301-0.063671 0.3616-0.23046 0.47376-0.38 0.47376-0.38s-0.091042 0-0.051496 0.034994c0.022185 0.019631 0.085465 0.050274 0.22897 0.098108 0.21018 0.070061 0.44495-0.13031 0.6396-0.23878 0.17515-0.097603 0.31781-0.12079 0.38085 0.19441 0.0092288 0.046144 0.019737 0.088662 0.031304 0.12783 0.035174 0.11913 0.080132 0.20732 0.12863 0.27248 0.075675 0.10166 0.15998 0.14726 0.22922 0.1668 0.082258 0.023218 0.14325 0.0096633 0.14325 0.0096633" stroke="#fff32d" stroke-opacity=".22755" style="paint-order:normal"/>
		<path d="m17.591 43.017c0.29477-0.45404 0.58079-0.58522 0.64607-0.54327 0.063534 0.019233 0.12757 0.96425 0.41078 0.046622 0.094743-0.38927 0.19186-0.77858 0.34956-0.92159 0.20372-0.54286 0.34146-0.99705 0.61088-0.18057 0.16971 0.36234 0.28038 0.69365 0.32524 0.97096 0.10089 0.62377-0.087819 0.78423 0.3276 1.228 0.12098 0.1776 0.24451 0.16543 0.39222-0.17343 0.25501-0.1176 0.30622-0.49224 0.58957-1.2984 0.29946-0.69568 0.26122-1.0842 0.50958-1.6428 0.26888-1.2675 0.79198-2.5613 1.2783-1.4063 0.013096 0.027557 0.026086 0.056194 0.038961 0.08591 0.38231 0.79655 0.82898 2.0002 1.1888 2.6782 0.31992 0.36566 0.064844 0.81975 0.50745 1.515 0.42651 1.1481 0.48388 1.8637 0.80064 0.72429 0.092938-0.26251 0.21877-0.60842 0.40237-1.0397 0.64062-0.96116 0.42968-1.8742 0.86774-2.6663 0.42819-0.68077 0.20808-1.5952 0.89356-2.0559 0.65227-2.1349 1.1844-4.1522 1.6898-3.6075 0.20192 0.29131 0.4159 0.90093 0.65483 1.6398 0.67549 1.9438 1.1778 5.0001 1.8337 4.9533 0.21137-0.05176 0.47876-0.64988 0.76124-1.2552 0.37852-0.8805 0.7338-1.7972 0.94598-1.0249 0.5177 0.75476 1.1193 3.4968 2.2112 5.1111 0.20375 0.64527 0.40665 0.95293 0.59852 0.59177 1.1662-0.51616 2.2059-3.3283 2.9278-5.3282 0.61736-1.2079 0.73384-2.4284 1.1452-1.9353 0.0088262 0.025413 0.017931 0.053096 0.027316 0.082927 0.44069 0.58404 0.31 1.6295 0.72927 2.4204 0.41712 0.75745 0.65738 1.234 0.72877 1.8799 0.026204 0.2459 0.043977 0.39998 0.053934 0.41356 0.034334 0.10057 0.20642-0.61483 0.56685-0.98653 0.071815-0.098191 0.12698-0.11145 0.1507 0.026987 0.22498 0.28747 0.22461 0.70385 0.28347 0.85782 0.02129 0.055693 0.0056732 0.065615 0.092416 0.029812 0.074544-0.042976 0.19504-0.16951 0.36902-0.31635 0.38318-0.4642 0.83569-1.3401 0.94951-0.97634 0.10242 0.30171 0.22889 0.6705 0.29812 1.0916 0.024898 0.16965 0.046669 0.28434 0.053432 0.30725 0.020568 0.06966 0.47059-0.21164 0.49896-0.17353 0.044251 0.059448 0.25936 0.57028 0.29985 0.58171 0.048101 0.013577 0.34169 0.0056507 0.34169 0.0056507" stroke="#fff532" stroke-opacity=".54831" style="paint-order:normal"/>
		<path d="m17.627 43.075c0.38895-0.56597 0.77114-0.68392 0.86188-0.56882 0.089385 0.097541 0.17916 1.4234 0.54911 0.26752 0.11992-0.43894 0.22628-0.92212 0.37391-1.2015 0.21496-0.79709 0.35104-1.4588 0.67061-0.42769 0.16527 0.40255 0.2786 0.80701 0.33779 1.1729 0.13313 0.82307 0.02588 1.3041 0.40392 1.7621 0.13089 0.21279 0.27162 0.17437 0.44876-0.29436 0.24906-0.26143 0.33787-0.84357 0.60573-1.7895 0.26756-0.7762 0.2738-1.3314 0.50229-1.9975 0.31355-1.6588 0.82923-3.1655 1.3441-1.707 0.01332 0.034319 0.026546 0.069803 0.039672 0.10644 0.37689 0.966 0.79615 2.455 1.1433 3.5197 0.29456 0.6526 0.14226 1.3652 0.52782 2.1834 0.4153 1.4412 0.53923 2.2334 0.86371 0.7207 0.09032-0.34957 0.20712-0.79214 0.36928-1.3212 0.53344-1.1123 0.41103-2.2604 0.7906-3.3339 0.36654-0.92663 0.23203-2.0481 0.79632-2.7978 0.61497-2.9194 1.1231-5.5283 1.5464-4.751 0.1727 0.40695 0.35397 1.2348 0.55502 2.2254 0.56533 2.6098 1.0002 6.5182 1.5803 6.4101 0.20439-0.080403 0.47879-0.87642 0.76642-1.6723 0.39348-1.1582 0.77229-2.3321 0.96618-1.2645 0.43525 1.1356 1.0133 5 1.9806 7.0248 0.21139 0.83867 0.42405 1.2312 0.62447 0.74061 1.006-0.82243 2.0787-4.729 2.8377-7.4582 0.60592-1.6912 0.79671-3.167 1.1265-2.605 0.0076199 0.031854 0.015518 0.066624 0.023693 0.10414 0.35468 0.67141 0.28146 1.9517 0.63624 3.0378 0.35193 1.042 0.56972 1.8693 0.64975 2.6081 0.032306 0.3063 0.056396 0.48999 0.071626 0.48812 0.056271 0.028925 0.33426-1.0236 0.69081-1.4426 0.083132-0.12259 0.14497-0.13329 0.16594 0.055953 0.18133 0.45295 0.145 1.0501 0.22267 1.2533 0.028093 0.073487 0.036575 0.086579 0.1384 0.028156 0.091273-0.06298 0.23004-0.23973 0.41376-0.44877 0.43846-0.6349 0.96053-1.7266 1.0485-1.212 0.079181 0.42929 0.20048 0.92332 0.27169 1.3783 0.029905 0.20911 0.055274 0.34687 0.060503 0.36457 0.015902 0.053855 0.59535-0.34549 0.61728-0.31604 0.034211 0.04596 0.29111 0.70544 0.32241 0.71427 0.037187 0.010496 0.4051 0.0043686 0.4051 0.0043686" stroke="#fff634" stroke-opacity=".65079" style="paint-order:normal"/>
		<path d="m17.652 43.116c0.45744-0.64736 0.90956-0.75569 1.0188-0.5874 0.10818 0.15448 0.21667 1.7572 0.64969 0.42816 0.13822-0.47505 0.25131-1.0265 0.39161-1.4051 0.22314-0.98196 0.358-1.7945 0.71405-0.60739 0.16205 0.43179 0.27731 0.88945 0.34692 1.3198 0.15657 0.96799 0.10856 1.6822 0.45941 2.1505 0.1381 0.23838 0.29134 0.18087 0.48988-0.38229 0.24473-0.36601 0.36089-1.099 0.61748-2.1466 0.24436-0.83475 0.28295-1.5112 0.49698-2.2555 0.34603-1.9433 0.85633-3.6049 1.3919-1.9256 0.013482 0.039236 0.026881 0.079699 0.040189 0.12137 0.37294 1.0892 0.77229 2.7857 1.1103 4.1317 0.27612 0.86126 0.19856 1.7618 0.54264 2.6694 0.40714 1.6543 0.57948 2.5022 0.90957 0.71809 0.088417-0.41288 0.19865-0.92573 0.34522-1.5259 0.4555-1.2222 0.39747-2.5413 0.7345-3.8194 0.32171-1.1054 0.24945-2.3775 0.72561-3.3373 0.58786-3.4899 1.0786-6.529 1.4422-5.5825 0.15146 0.49104 0.30894 1.4775 0.48244 2.6513 0.48522 3.0942 0.87107 7.6221 1.396 7.4694 0.19932-0.10123 0.47881-1.0411 0.77018-1.9755 0.40435-1.3601 0.80029-2.7211 0.98087-1.4387 0.3753 1.4126 0.93628 6.0931 1.8129 8.4164 0.21694 0.97931 0.43671 1.4335 0.64334 0.84885 0.88942-1.0451 1.9863-5.7476 2.7722-9.007 0.5976-2.0427 0.84242-3.7041 1.1129-3.092 0.0067427 0.036538 0.013764 0.076461 0.021058 0.11957 0.29214 0.73495 0.26071 2.186 0.56859 3.4868 0.30453 1.2489 0.50598 2.3312 0.59229 3.1377 0.036743 0.35022 0.065427 0.55545 0.084491 0.54234 0.072224-0.023174 0.42723-1.3208 0.78094-1.7743 0.091361-0.14033 0.15804-0.14918 0.17702 0.077016 0.14959 0.57328 0.087115 1.302 0.17846 1.5409 0.033039 0.086427 0.059045 0.10182 0.17183 0.026952 0.10344-0.077526 0.2555-0.2908 0.4463-0.54506 0.47866-0.75903 1.0513-2.0076 1.1205-1.3834 0.062284 0.52207 0.17981 1.1072 0.25246 1.5867 0.033545 0.23781 0.061531 0.39233 0.065644 0.40626 0.012508 0.042362 0.68607-0.44283 0.70332-0.41966 0.02691 0.036152 0.3142 0.80372 0.33882 0.81067 0.029251 0.0082564 0.4512 0.0034363 0.4512 0.0034363" stroke="#fff636" stroke-opacity=".72531" style="paint-order:normal"/>
		<path d="m17.673 43.151c0.51323-0.71366 1.0223-0.81416 1.1466-0.60253 0.12349 0.20087 0.24723 2.0292 0.73163 0.559 0.15313-0.50446 0.27171-1.1115 0.40604-1.5709 0.22979-1.1325 0.36368-2.068 0.74943-0.75377 0.15943 0.45561 0.27626 0.9566 0.35436 1.4394 0.17566 1.086 0.17591 1.9902 0.50462 2.4669 0.14398 0.25922 0.30741 0.18616 0.52337-0.45392 0.2412-0.45121 0.37965-1.3071 0.62706-2.4375 0.22547-0.88244 0.29041-1.6576 0.49266-2.4657 0.37249-2.175 0.87839-3.9628 1.4309-2.1037 0.013615 0.043242 0.027153 0.087761 0.04061 0.13353 0.36972 1.1896 0.75284 3.0551 1.0834 4.6301 0.26109 1.0312 0.24442 2.0849 0.55471 3.0652 0.4005 1.8279 0.61227 2.7212 0.94693 0.71596 0.086867-0.46445 0.19174-1.0346 0.32562-1.6926 0.39201-1.3118 0.38643-2.77 0.68881-4.2148 0.2852-1.251 0.26364-2.6458 0.668-3.7767 0.56577-3.9545 1.0423-7.3441 1.3572-6.2598 0.13415 0.55953 0.27226 1.6753 0.42332 2.9982 0.41997 3.4887 0.76587 8.5214 1.2459 8.3323 0.19519-0.1182 0.47883-1.1753 0.77325-2.2225 0.41321-1.5246 0.8231-3.0379 0.99283-1.5806 0.32647 1.6382 0.8735 6.9834 1.6763 9.5499 0.22146 1.0939 0.44702 1.5983 0.65871 0.93702 0.79449-1.2266 1.9109-6.5773 2.7189-10.269 0.59082-2.3289 0.87966-4.1415 1.1019-3.4888 0.0060282 0.040353 0.012335 0.084474 0.018912 0.13214 0.24119 0.7867 0.24381 2.3768 0.51348 3.8525 0.26591 1.4174 0.45406 2.7075 0.54549 3.569 0.040358 0.386 0.072783 0.60877 0.094971 0.58651 0.085218-0.065612 0.50295-1.563 0.85436-2.0444 0.098064-0.15478 0.16869-0.16211 0.18604 0.094174 0.12373 0.67131 0.039961 1.5071 0.14244 1.7752 0.037069 0.096967 0.077349 0.11424 0.19907 0.025971 0.11335-0.089375 0.27624-0.33239 0.47281-0.6235 0.5114-0.86014 1.1253-2.2366 1.1792-1.5229 0.048519 0.59764 0.16299 1.2569 0.2368 1.7565 0.036511 0.26118 0.066628 0.42936 0.069832 0.44021 0.0097439 0.033 0.75997-0.52212 0.7734-0.50407 0.020963 0.028162 0.33301 0.88378 0.35219 0.88919 0.022787 0.0064317 0.48876 0.0026769 0.48876 0.0026769" stroke="#fff737" stroke-opacity=".78602" style="paint-order:normal"/>
		<path d="m17.691 43.18c0.56115-0.77061 1.1192-0.86437 1.2564-0.61553 0.13665 0.24071 0.27347 2.2628 0.802 0.67139 0.16594-0.52973 0.28922-1.1846 0.41842-1.7133 0.23551-1.2619 0.36855-2.3029 0.77982-0.8795 0.15717 0.47607 0.27536 1.0143 0.36074 1.5422 0.19206 1.1874 0.23375 2.2547 0.54345 2.7386 0.14902 0.27712 0.3212 0.19071 0.55213-0.51545 0.23817-0.52438 0.39575-1.4859 0.63528-2.6874 0.20924-0.92341 0.29681-1.7834 0.48895-2.6461 0.39521-2.3741 0.89735-4.2702 1.4643-2.2567 0.013728 0.046682 0.027387 0.094685 0.040972 0.14397 0.36696 1.2758 0.73614 3.2865 1.0602 5.0583 0.24819 1.1772 0.28381 2.3624 0.56507 3.4053 0.39479 1.977 0.64043 2.9093 0.97902 0.71413 0.085535-0.50874 0.18582-1.128 0.30879-1.8358 0.33748-1.3887 0.37694-2.9665 0.64956-4.5545 0.25383-1.3761 0.27583-2.8763 0.61853-4.1542 0.5468-4.3537 1.0112-8.0443 1.2843-6.8416 0.11929 0.61836 0.24075 1.8451 0.37254 3.2962 0.36392 3.8275 0.67551 9.2937 1.117 9.0735 0.19164-0.13277 0.47885-1.2906 0.77588-2.4347 0.42082-1.6658 0.84268-3.3101 1.0031-1.7025 0.28452 1.832 0.81958 7.7482 1.559 10.524 0.22534 1.1923 0.45588 1.7399 0.67192 1.0127 0.71295-1.3824 1.8462-7.2899 2.6731-11.352 0.585-2.5748 0.91165-4.5173 1.0924-3.8295 0.0054145 0.04363 0.011107 0.091357 0.017069 0.14294 0.19743 0.83116 0.22929 2.5408 0.46615 4.1666 0.23275 1.5622 0.40947 3.0307 0.50528 3.9395 0.043462 0.41673 0.079102 0.65457 0.10397 0.62444 0.096379-0.10206 0.56799-1.7709 0.91742-2.2765 0.10382-0.16719 0.17784-0.17323 0.19379 0.10891 0.10152 0.7555-5.3994e-4 1.6833 0.11151 1.9764 0.04053 0.10602 0.09307 0.12491 0.22246 0.025129 0.12186-0.099552 0.29405-0.36812 0.49557-0.69087 0.53952-0.94699 1.1888-2.4332 1.2296-1.6428 0.036697 0.66255 0.14853 1.3856 0.22336 1.9024 0.039058 0.28126 0.071006 0.46117 0.073429 0.46938 0.0073697 0.024959 0.82344-0.59023 0.8336-0.57657 0.015855 0.0213 0.34916 0.95254 0.36367 0.95664 0.017235 0.0048646 0.52102 0.0020247 0.52102 0.0020247" stroke="#fff738" stroke-opacity=".83816" style="paint-order:normal"/>
		<path d="m17.707 43.206c0.6036-0.82106 1.205-0.90886 1.3537-0.62704 0.1483 0.27601 0.29673 2.4697 0.86436 0.77096 0.17729-0.55211 0.30473-1.2493 0.4294-1.8395 0.24058-1.3765 0.37287-2.511 0.80674-0.99089 0.15517 0.4942 0.27455 1.0654 0.3664 1.6332 0.2066 1.2773 0.285 2.489 0.57785 2.9794 0.15349 0.29299 0.33343 0.19474 0.57762-0.56996 0.23549-0.58921 0.41002-1.6442 0.64257-2.9087 0.19486-0.9597 0.30248-1.8948 0.48567-2.8061 0.41535-2.5504 0.91414-4.5425 1.494-2.3922 0.013829 0.04973 0.027594 0.10082 0.041293 0.15322 0.36451 1.3522 0.72135 3.4915 1.0397 5.4376 0.23676 1.3065 0.31871 2.6082 0.57426 3.7065 0.38974 2.1091 0.66538 3.076 1.0074 0.71251 0.084355-0.54799 0.18056-1.2108 0.29387-1.9627 0.28917-1.4568 0.36854-3.1406 0.61479-4.8554 0.22604-1.487 0.28663-3.0805 0.5747-4.4886 0.52999-4.7073 0.98359-8.6646 1.2197-7.357 0.10612 0.67049 0.21283 1.9956 0.32755 3.5601 0.31426 4.1277 0.59546 9.978 1.0028 9.7301 0.18849-0.14568 0.47886-1.3927 0.77822-2.6227 0.42756-1.791 0.86004-3.5512 1.0122-1.8105 0.24736 2.0037 0.77181 8.4257 1.4551 11.386 0.22878 1.2794 0.46372 1.8653 0.68361 1.0798 0.64071-1.5204 1.7889-7.9213 2.6325-12.312 0.57984-2.7927 0.93998-4.8502 1.084-4.1314 0.0048708 0.046533 0.010019 0.097455 0.015436 0.1525 0.15867 0.87054 0.21643 2.686 0.42421 4.4449 0.20336 1.6905 0.36996 3.317 0.46967 4.2677 0.046213 0.44396 0.0847 0.69514 0.11195 0.65805 0.10627-0.13436 0.62562-1.9552 0.9733-2.4821 0.10892-0.17818 0.18595-0.18307 0.20066 0.12197 0.081844 0.83009-0.036423 1.8394 0.084107 2.1547 0.043596 0.11404 0.107 0.13436 0.24319 0.024383 0.1294-0.10857 0.30983-0.39977 0.51574-0.75056 0.56443-1.0239 1.2451-2.6075 1.2742-1.7491 0.026223 0.72006 0.13572 1.4995 0.21144 2.0316 0.041315 0.29905 0.074884 0.48935 0.076616 0.49522 0.0052662 0.017835 0.87967-0.65056 0.88693-0.64081 0.01133 0.015221 0.36348 1.0135 0.37384 1.0164 0.012315 0.0034761 0.5496 0.0014468 0.5496 0.0014468" stroke="#fff838" stroke-opacity=".88435" style="paint-order:normal"/>
		<path d="m17.722 43.229c0.64199-0.86668 1.2825-0.94909 1.4417-0.63745 0.15884 0.30792 0.31775 2.6569 0.92074 0.861 0.18755-0.57235 0.31877-1.3078 0.43933-1.9536 0.24516-1.4801 0.37677-2.6992 0.83109-1.0916 0.15337 0.51059 0.27383 1.1116 0.37152 1.7155 0.21973 1.3585 0.33135 2.7009 0.60896 3.1971 0.15753 0.30733 0.34448 0.19838 0.60066-0.61925 0.23306-0.64784 0.42292-1.7874 0.64915-3.1089 0.18186-0.99252 0.30761-1.9955 0.48269-2.9507 0.43355-2.7099 0.92933-4.7888 1.5208-2.5147 0.01392 0.052486 0.027781 0.10637 0.041582 0.16159 0.3623 1.4212 0.70797 3.6769 1.0212 5.7806 0.22642 1.4235 0.35027 2.8306 0.58256 3.9789 0.38517 2.2286 0.68795 3.2266 1.0332 0.71105 0.083289-0.58348 0.17581-1.2857 0.28038-2.0774 0.24548-1.5184 0.36094-3.298 0.58334-5.1275 0.20091-1.5872 0.2964-3.2651 0.53506-4.791 0.51479-5.027 0.95863-9.2255 1.1612-7.8231 0.094208 0.71762 0.18759 2.1316 0.28686 3.7988 0.26936 4.3992 0.52306 10.597 0.89948 10.324 0.18565-0.15736 0.47887-1.485 0.78033-2.7926 0.43365-1.9042 0.87573-3.7692 1.0204-1.9081 0.21376 2.1589 0.72861 9.0384 1.3611 12.166 0.23189 1.3583 0.47082 1.9787 0.69419 1.1405 0.57538-1.6453 1.737-8.4922 2.5958-13.181 0.57518-2.9897 0.96561-5.1512 1.0763-4.4044 0.0043791 0.049159 0.009036 0.10297 0.013959 0.16115 0.12361 0.90615 0.2048 2.8173 0.38629 4.6966 0.17679 1.8064 0.33423 3.576 0.43746 4.5646 0.0487 0.46858 0.089762 0.73183 0.11916 0.68845 0.11521-0.16356 0.67773-2.1218 1.0238-2.668 0.11354-0.18813 0.19328-0.19198 0.20687 0.13377 0.064051 0.89754-0.068871 1.9805 0.059324 2.3159 0.046368 0.12129 0.11959 0.1429 0.26193 0.023708 0.13622-0.11672 0.3241-0.4284 0.53398-0.80454 0.58697-1.0935 1.2959-2.765 1.3146-1.8451 0.016751 0.77206 0.12414 1.6026 0.20067 2.1484 0.043355 0.31513 0.078392 0.51484 0.079498 0.51858 0.003364 0.011393 0.93052-0.70512 0.93516-0.69889 0.0072374 0.0097228 0.37642 1.0686 0.38304 1.0704 0.007867 0.0022205 0.57544 9.2418e-4 0.57544 9.2418e-4" stroke="#fff839" stroke-opacity=".92612" style="paint-order:normal"/>
		<path d="m17.735 43.251c0.67721-0.90854 1.3537-0.986 1.5224-0.64701 0.1685 0.33721 0.33705 2.8286 0.97247 0.94362 0.19697-0.59093 0.33164-1.3614 0.44843-2.0582 0.24936-1.5752 0.38036-2.8719 0.85343-1.184 0.15171 0.52563 0.27317 1.154 0.37621 1.7911 0.23179 1.433 0.37387 2.8954 0.6375 3.3969 0.16124 0.32049 0.35462 0.20172 0.62181-0.66448 0.23084-0.70163 0.43476-1.9188 0.6552-3.2926 0.16993-1.0226 0.31231-2.088 0.47996-3.0833 0.45026-2.8562 0.94326-5.0148 1.5454-2.6272 0.014004 0.055015 0.027953 0.11146 0.041848 0.16927 0.36027 1.4846 0.69569 3.847 1.0042 6.0953 0.21693 1.5308 0.37922 3.0345 0.59018 4.2289 0.38097 2.3382 0.70865 3.3649 1.0567 0.7097 0.08231-0.61604 0.17146-1.3544 0.26801-2.1827 0.20539-1.575 0.35396-3.4425 0.55449-5.3772 0.17786-1.6791 0.30535-3.4345 0.49869-5.0685 0.50084-5.3204 0.93574-9.7401 1.1076-8.2507 0.083282 0.76087 0.16443 2.2565 0.24954 4.0179 0.22816 4.6483 0.45664 11.165 0.8047 10.869 0.18304-0.16807 0.47888-1.5698 0.78226-2.9486 0.43925-2.008 0.89013-3.9692 1.028-1.9977 0.18292 2.3013 0.68898 9.6006 1.2749 12.882 0.23475 1.4306 0.47733 2.0827 0.7039 1.1962 0.51544-1.7598 1.6895-9.016 2.5621-13.977 0.5709-3.1705 0.98912-5.4274 1.0694-4.6549 0.0039279 0.051568 0.0081336 0.10803 0.012604 0.16908 0.091442 0.93883 0.19413 2.9378 0.3515 4.9275 0.15241 1.9129 0.30145 3.8135 0.40791 4.8369 0.050982 0.49117 0.094406 0.7655 0.12577 0.71633 0.12341-0.19035 0.72554-2.2747 1.0702-2.8385 0.11777-0.19725 0.2-0.20015 0.21257 0.14461 0.047726 0.95942-0.098643 2.11 0.036586 2.4638 0.048912 0.12795 0.13115 0.15074 0.27913 0.023089 0.14247-0.1242 0.33719-0.45466 0.55072-0.85406 0.60764-1.1574 1.3426-2.9096 1.3516-1.9332 0.0080604 0.81978 0.11352 1.6971 0.19078 2.2556 0.045228 0.32989 0.08161 0.53822 0.082142 0.54002 0.0016187 0.0054823 0.97718-0.75519 0.97941-0.75219 0.0034826 0.0046786 0.38829 1.1191 0.39148 1.12 0.0037856 0.0010685 0.59915 4.4471e-4 0.59915 4.4471e-4" stroke="#fff83a" stroke-opacity=".96445" style="paint-order:normal"/>
		<path d="m17.747 43.271c0.70988-0.94737 1.4198-1.0202 1.5972-0.65587 0.17747 0.36437 0.35494 2.9878 1.0205 1.0202 0.2057-0.60815 0.34358-1.4112 0.45688-2.1553 0.25326-1.6634 0.38368-3.032 0.87415-1.2698 0.15017 0.53957 0.27255 1.1933 0.38057 1.8611 0.24297 1.5022 0.41331 3.0757 0.66397 3.5821 0.16468 0.3327 0.36403 0.20482 0.64142-0.70642 0.22877-0.75152 0.44574-2.0407 0.66081-3.4629 0.15886-1.0506 0.31668-2.1737 0.47743-3.2064 0.46575-2.9919 0.95618-5.2244 1.5682-2.7315 0.014081 0.05736 0.028113 0.11618 0.042095 0.17639 0.35839 1.5434 0.6843 4.0048 0.98845 6.3872 0.20813 1.6303 0.40608 3.2237 0.59725 4.4607 0.37708 2.4399 0.72785 3.4931 1.0786 0.70846 0.081402-0.64623 0.16741-1.4182 0.25653-2.2803 0.16821-1.6274 0.3475-3.5764 0.52773-5.6088 0.15647-1.7644 0.31366-3.5916 0.46496-5.3258 0.48791-5.5925 0.9145-10.217 1.0579-8.6474 0.073148 0.80098 0.14295 2.3723 0.21492 4.221 0.18995 4.8793 0.39504 11.691 0.7168 11.374 0.18062-0.178 0.4789-1.6483 0.78406-3.0932 0.44443-2.1043 0.90348-4.1548 1.035-2.0808 0.15433 2.4335 0.65221 10.122 1.1949 13.546 0.2374 1.4977 0.48337 2.1792 0.7129 1.2478 0.45985-1.8661 1.6453-9.5019 2.5309-14.716 0.56693-3.3381 1.0109-5.6836 1.0629-4.8872 0.0035095 0.053802 0.0072967 0.11272 0.011348 0.17644 0.061608 0.96914 0.18423 3.0495 0.31923 5.1416 0.1298 2.0116 0.27105 4.0339 0.3805 5.0895 0.053098 0.51212 0.098714 0.79672 0.13191 0.7422 0.13102-0.21521 0.76989-2.4165 1.1132-2.9968 0.12169-0.20571 0.20624-0.20773 0.21785 0.15465 0.032584 1.0168-0.12626 2.2302 0.015496 2.601 0.051272 0.13412 0.14187 0.15801 0.29508 0.022514 0.14828-0.13114 0.34934-0.47902 0.56624-0.9 0.62681-1.2166 1.3859-3.0436 1.3859-2.015 0 0.86403 0.10366 1.7848 0.18161 2.3551 0.046964 0.34358 0.084595 0.55991 0.084595 0.55991l1.0205-0.80162 0.39931 1.166h0.62114" stroke="#fff93b" style="paint-order:normal"/>
	</g>
</svg>
