<?xml version="1.0" encoding="UTF-8"?>
<!-- Created with Inkscape (http://www.inkscape.org/) -->
<svg width="64" height="64" version="1.1" xmlns="http://www.w3.org/2000/svg" xmlns:cc="http://creativecommons.org/ns#" xmlns:dc="http://purl.org/dc/elements/1.1/" xmlns:rdf="http://www.w3.org/1999/02/22-rdf-syntax-ns#" xmlns:xlink="http://www.w3.org/1999/xlink">
	<defs>
		<linearGradient id="d">
			<stop stop-color="#ffffff" stop-opacity=".51778" offset="0"/>
			<stop stop-color="#ff9595" stop-opacity=".15708" offset="1"/>
		</linearGradient>
		<radialGradient id="e" cx="50.842" cy="11.322" r="32" gradientTransform="matrix(0 .99806 -.91822 0 52.412 -5.9839)" gradientUnits="userSpaceOnUse">
			<stop stop-color="#627187" offset="0"/>
			<stop stop-color="#b3bbcf" offset="1"/>
		</radialGradient>
		<radialGradient id="k" cx="38.526" cy="39.456" r="21.523" gradientTransform="matrix(.81479 .81479 -.57687 .57687 31.366 -13.908)" gradientUnits="userSpaceOnUse">
			<stop stop-color="#a00000" offset="0"/>
			<stop stop-color="#810000" stop-opacity=".35165" offset=".50409"/>
			<stop stop-color="#601d1d" stop-opacity=".12864" offset=".76424"/>
			<stop stop-color="#860000" stop-opacity="0" offset="1"/>
		</radialGradient>
		<radialGradient id="j" cx="13.701" cy="17" r="10.552" fx="20.237" fy="13.899" gradientTransform="matrix(.62469 -.83321 1.5732 1.1795 -21.472 7.8866)" gradientUnits="userSpaceOnUse">
			<stop stop-color="#39630e" offset="0"/>
			<stop stop-color="#3a581c" offset=".81838"/>
			<stop stop-color="#b3eabc" offset="1"/>
		</radialGradient>
		<radialGradient id="i" cx="41.552" cy="46.138" r="19.048" gradientTransform="matrix(1.9638 -.88127 .56975 1.2696 -63.091 22.516)" gradientUnits="userSpaceOnUse">
			<stop stop-color="#a33434" offset="0"/>
			<stop stop-color="#8f1919" offset=".5"/>
			<stop stop-color="#ee4040" offset="1"/>
		</radialGradient>
		<radialGradient id="h" cx="32.942" cy="34.572" r="19.047" gradientTransform="matrix(1.0423 -.035179 .035981 1.0661 -2.7052 -1.5226)" gradientUnits="userSpaceOnUse">
			<stop stop-color="#ffffff" stop-opacity="0" offset="0"/>
			<stop stop-color="#ffffff" stop-opacity=".040078" offset=".7648"/>
			<stop stop-color="#cec4c4" stop-opacity=".62702" offset="1"/>
		</radialGradient>
		<radialGradient id="g" cx="25.578" cy="30.053" r="7.5966" gradientTransform="matrix(.065992 2.3306 -1.481 .041937 64.571 -38.122)" gradientUnits="userSpaceOnUse" xlink:href="#d"/>
		<radialGradient id="f" cx="15.738" cy="28.964" r="7.5966" gradientTransform="matrix(1.5433 2.4884 1.2152 -.75362 -34.215 -15.707)" gradientUnits="userSpaceOnUse" xlink:href="#d"/>
		<radialGradient id="a" cx="31.908" cy="37.572" r="8.8388" gradientUnits="userSpaceOnUse" xlink:href="#l"/>
		<linearGradient id="l">
			<stop stop-color="#330000" stop-opacity="0" offset="0"/>
			<stop stop-color="#400000" stop-opacity="0" offset=".49"/>
			<stop stop-color="#6e0000" stop-opacity=".24758" offset=".71"/>
			<stop stop-color="#000000" stop-opacity="0" offset="1"/>
		</linearGradient>
		<radialGradient id="b" cx="32.874" cy="38.6" r="8.8388" gradientTransform="matrix(1.3 0 0 1.3 -9.5924 -10.223)" gradientUnits="userSpaceOnUse" xlink:href="#n"/>
		<linearGradient id="n">
			<stop stop-color="#7e3838" stop-opacity="0" offset="0"/>
			<stop stop-color="#813333" stop-opacity="0" offset=".62424"/>
			<stop stop-color="#7f4545" offset="1"/>
		</linearGradient>
		<linearGradient id="m">
			<stop stop-color="#ffb8ab" stop-opacity=".34971" offset="0"/>
			<stop stop-color="#ef0000" stop-opacity="0" offset=".46935"/>
			<stop stop-color="#edb1a9" stop-opacity=".71105" offset="1"/>
		</linearGradient>
		<radialGradient id="c" cx="30.791" cy="36.026" r="8.8388" gradientTransform="matrix(1.1205 -2.0163e-8 2.0163e-8 1.1205 -3.8299 -4.8277)" gradientUnits="userSpaceOnUse" xlink:href="#m"/>
	</defs>
	<metadata>
		<rdf:RDF>
			<cc:Work rdf:about="">
				<dc:format>image/svg+xml</dc:format>
				<dc:type rdf:resource="http://purl.org/dc/dcmitype/StillImage"/>
				<dc:title/>
			</cc:Work>
		</rdf:RDF>
	</metadata>
	<path d="m0 2v32 28l2 2h30 30l2-2v-28-32h-32z" color="#000000" fill="url(#e)"/>
	<path d="m2 0-2 1v1h19.562 19.562 24.875v-1l-2-1h-22.875-19.562z" color="#000000" fill="#e7ecf0"/>
	<g transform="translate(-.17678 -1.2374)">
		<path d="m62.314 47.474c0 11.749-9.636 17.964-21.523 13.882-11.887-4.0817-21.523-16.915-21.523-28.663 0-7.0291 3.0397-11.723 7.9524-12.559 5.1677-0.87985 7.8963 2.8206 13.77 4.3381 4.3755 1.1305 8.9126 0.40577 13.578 4.9982 4.7983 4.7233 7.7449 10.596 7.7449 18.004z" color="#000000" fill="url(#k)"/>
		<path d="m9.2702 1.2931-0.68658 1.3223c10.975 3.1969 18.054 13.56 20.26 18.353l0.84375-0.53125c-3.0643-4.7157-7.8777-15.32-20.417-19.144z" color="#000000" fill="url(#j)" style="block-progression:tb;text-indent:0;text-transform:none"/>
		<g transform="matrix(.9736 -.22825 .22825 .9736 -5.8809 9.6499)">
			<path d="m51.177 32.18c0 10.398-8.5279 18.827-19.048 18.827-10.52 0-19.048-8.429-19.048-18.827 0-6.2208 2.6902-11.298 7.038-13.532 4.5735-2.3492 6.9883 0.09653 12.187-0.34542 3.8724-0.32922 7.8878-2.3494 12.017 0.29708 4.2466 2.722 6.8543 7.0235 6.8543 13.58z" color="#000000" fill="url(#i)"/>
			<path d="m39.719 17.25c-2.5247-0.02532-4.986 0.85674-7.4062 1.0625-5.1982 0.44195-7.614-2.0054-12.188 0.34375-4.3478 2.2332-7.0312 7.3105-7.0312 13.531 0 10.398 8.5115 18.812 19.031 18.812 10.52 0 19.062-8.4148 19.062-18.812 0-6.5564-2.6284-10.872-6.875-13.594-1.5483-0.99245-3.0789-1.3286-4.5938-1.3438zm-1.9062 0.96875c1.1353 0.01421 2.3084 0.32171 3.4688 1.25 3.1825 2.546 5.1813 7.6981 4.7767 13.817-0.46776 7.0739-9.0348 13.075-13.703 13.19-4.6419 0.11402-11.815-6.9019-12.532-13.825-0.69019-6.6662 2.1327-10.627 4.219-11.997 2.5146-1.6514 4.3124-1.0532 8.208-1.4666 1.8138-0.19246 3.6704-0.99244 5.5625-0.96875z" color="#000000" fill="url(#h)"/>
			<path d="m27.04 21.634c-3.1697-0.58058-7.3994 2.0773-7.7804 7.8284-0.26976 4.0723 3.337 10.018 6.6313 11.44 5.6506 2.4387 5.0924-2.6356 4.6777-5.5717-0.72868-5.1596 0.87628-12.89-3.5287-13.697z" fill="url(#g)"/>
			<path d="m35.761 20.795c1.0557-1.2957 3.4314-1.1823 5.5169 0.95951 1.4768 1.5166 2.2422 4.5895 1.4204 6.2592-1.4097 2.864-2.8968 0.67329-3.7212-0.62515-1.4485-2.2817-4.6833-4.7929-3.2161-6.5936z" fill="url(#f)"/>
		</g>
	</g>
	<g transform="matrix(.22625 0 0 .22625 23.348 25.589)">
		<path transform="matrix(.82731 -.82731 1.0041 1.0041 -30.359 29.25)" d="m40.747 37.572a8.8388 8.8388 0 0 1-8.8388 8.8388 8.8388 8.8388 0 0 1-8.8388-8.8388 8.8388 8.8388 0 0 1 8.8388-8.8388 8.8388 8.8388 0 0 1 8.8388 8.8388z" color="#000000" fill="url(#a)"/>
		<path d="m40.747 37.572a8.8388 8.8388 0 0 1-8.8388 8.8388 8.8388 8.8388 0 0 1-8.8388-8.8388 8.8388 8.8388 0 0 1 8.8388-8.8388 8.8388 8.8388 0 0 1 8.8388 8.8388z" color="#000000" fill="url(#b)"/>
		<path d="m40.747 37.572a8.8388 8.8388 0 0 1-8.8388 8.8388 8.8388 8.8388 0 0 1-8.8388-8.8388 8.8388 8.8388 0 0 1 8.8388-8.8388 8.8388 8.8388 0 0 1 8.8388 8.8388z" color="#000000" fill="url(#c)"/>
	</g>
	<g transform="matrix(.43278 0 0 .43278 12.937 22.682)">
		<path transform="matrix(.82731 -.82731 1.0041 1.0041 -30.359 29.25)" d="m40.747 37.572a8.8388 8.8388 0 0 1-8.8388 8.8388 8.8388 8.8388 0 0 1-8.8388-8.8388 8.8388 8.8388 0 0 1 8.8388-8.8388 8.8388 8.8388 0 0 1 8.8388 8.8388z" color="#000000" fill="url(#a)"/>
		<path d="m40.747 37.572a8.8388 8.8388 0 0 1-8.8388 8.8388 8.8388 8.8388 0 0 1-8.8388-8.8388 8.8388 8.8388 0 0 1 8.8388-8.8388 8.8388 8.8388 0 0 1 8.8388 8.8388z" color="#000000" fill="url(#b)"/>
		<path d="m40.747 37.572a8.8388 8.8388 0 0 1-8.8388 8.8388 8.8388 8.8388 0 0 1-8.8388-8.8388 8.8388 8.8388 0 0 1 8.8388-8.8388 8.8388 8.8388 0 0 1 8.8388 8.8388z" color="#000000" fill="url(#c)"/>
	</g>
	<g transform="matrix(.20451 0 0 .20451 32.457 16.655)">
		<path transform="matrix(.82731 -.82731 1.0041 1.0041 -30.359 29.25)" d="m40.747 37.572a8.8388 8.8388 0 0 1-8.8388 8.8388 8.8388 8.8388 0 0 1-8.8388-8.8388 8.8388 8.8388 0 0 1 8.8388-8.8388 8.8388 8.8388 0 0 1 8.8388 8.8388z" color="#000000" fill="url(#a)"/>
		<path d="m40.747 37.572a8.8388 8.8388 0 0 1-8.8388 8.8388 8.8388 8.8388 0 0 1-8.8388-8.8388 8.8388 8.8388 0 0 1 8.8388-8.8388 8.8388 8.8388 0 0 1 8.8388 8.8388z" color="#000000" fill="url(#b)"/>
		<path d="m40.747 37.572a8.8388 8.8388 0 0 1-8.8388 8.8388 8.8388 8.8388 0 0 1-8.8388-8.8388 8.8388 8.8388 0 0 1 8.8388-8.8388 8.8388 8.8388 0 0 1 8.8388 8.8388z" color="#000000" fill="url(#c)"/>
	</g>
	<g transform="matrix(.10668 0 0 .10668 38.51 22.858)">
		<path transform="matrix(.82731 -.82731 1.0041 1.0041 -30.359 29.25)" d="m40.747 37.572a8.8388 8.8388 0 0 1-8.8388 8.8388 8.8388 8.8388 0 0 1-8.8388-8.8388 8.8388 8.8388 0 0 1 8.8388-8.8388 8.8388 8.8388 0 0 1 8.8388 8.8388z" color="#000000" fill="url(#a)"/>
		<path d="m40.747 37.572a8.8388 8.8388 0 0 1-8.8388 8.8388 8.8388 8.8388 0 0 1-8.8388-8.8388 8.8388 8.8388 0 0 1 8.8388-8.8388 8.8388 8.8388 0 0 1 8.8388 8.8388z" color="#000000" fill="url(#b)"/>
		<path d="m40.747 37.572a8.8388 8.8388 0 0 1-8.8388 8.8388 8.8388 8.8388 0 0 1-8.8388-8.8388 8.8388 8.8388 0 0 1 8.8388-8.8388 8.8388 8.8388 0 0 1 8.8388 8.8388z" color="#000000" fill="url(#c)"/>
	</g>
	<g transform="matrix(.24799 0 0 .24799 33.551 25.586)">
		<path transform="matrix(.82731 -.82731 1.0041 1.0041 -30.359 29.25)" d="m40.747 37.572a8.8388 8.8388 0 0 1-8.8388 8.8388 8.8388 8.8388 0 0 1-8.8388-8.8388 8.8388 8.8388 0 0 1 8.8388-8.8388 8.8388 8.8388 0 0 1 8.8388 8.8388z" color="#000000" fill="url(#a)"/>
		<path d="m40.747 37.572a8.8388 8.8388 0 0 1-8.8388 8.8388 8.8388 8.8388 0 0 1-8.8388-8.8388 8.8388 8.8388 0 0 1 8.8388-8.8388 8.8388 8.8388 0 0 1 8.8388 8.8388z" color="#000000" fill="url(#b)"/>
		<path d="m40.747 37.572a8.8388 8.8388 0 0 1-8.8388 8.8388 8.8388 8.8388 0 0 1-8.8388-8.8388 8.8388 8.8388 0 0 1 8.8388-8.8388 8.8388 8.8388 0 0 1 8.8388 8.8388z" color="#000000" fill="url(#c)"/>
	</g>
	<path d="m64 4-2-2 2-1z" fill="#cbd1de" fill-opacity=".99228"/>
	<path d="m0 1v3l2-2z" fill="#f2f4f7"/>
</svg>
