<svg width="64" height="64" xmlns="http://www.w3.org/2000/svg" xmlns:xlink="http://www.w3.org/1999/xlink"><defs><radialGradient id="u" cx="32.519" cy="1.45" r="31.76" gradientTransform="matrix(0 .02013 -2.0902 0 35.55 1.303)" gradientUnits="userSpaceOnUse"><stop stop-color="#93fff7" offset="0"/><stop stop-color="#8ef4ff" stop-opacity="0" offset="1"/></radialGradient><radialGradient id="t" cx="28.444" cy="-1.667" r="31.76" gradientTransform="matrix(0 .99123 -5.0671 -.00045 23.674 -26.198)" gradientUnits="userSpaceOnUse" xlink:href="#a"/><radialGradient id="s" cx="28.444" cy="-1.681" r="32" gradientTransform="matrix(0 .98378 -5.029 -.00044 23.665 -25.986)" gradientUnits="userSpaceOnUse" xlink:href="#a"/><radialGradient id="r" cx="28.444" cy="-1.678" r="31.971" gradientTransform="matrix(0 .98467 -5.0336 -.00044 23.674 -26.011)" gradientUnits="userSpaceOnUse" xlink:href="#a"/><radialGradient id="q" cx="28.444" cy="-1.675" r="31.944" gradientTransform="matrix(0 .98549 -5.0378 -.00044 23.682 -26.035)" gradientUnits="userSpaceOnUse" xlink:href="#a"/><radialGradient id="p" cx="28.444" cy="-1.672" r="31.92" gradientTransform="matrix(0 .98626 -5.0417 -.00044 23.69 -26.057)" gradientUnits="userSpaceOnUse" xlink:href="#a"/><radialGradient id="o" cx="28.444" cy="-1.678" r="31.897" gradientTransform="matrix(0 .98697 -5.0454 -.00044 23.654 -26.077)" gradientUnits="userSpaceOnUse" xlink:href="#a"/><radialGradient id="n" cx="28.444" cy="-1.675" r="31.875" gradientTransform="matrix(0 .98763 -5.0487 -.00044 23.661 -26.096)" gradientUnits="userSpaceOnUse" xlink:href="#a"/><radialGradient id="m" cx="28.444" cy="-1.678" r="31.856" gradientTransform="matrix(0 .98823 -5.0518 -.00044 23.643 -26.113)" gradientUnits="userSpaceOnUse" xlink:href="#a"/><radialGradient id="l" cx="28.444" cy="-1.676" r="31.839" gradientTransform="matrix(0 .98877 -5.0545 -.00044 23.649 -26.128)" gradientUnits="userSpaceOnUse" xlink:href="#a"/><radialGradient id="k" cx="28.444" cy="-1.674" r="31.823" gradientTransform="matrix(0 .98926 -5.057 -.00044 23.654 -26.142)" gradientUnits="userSpaceOnUse" xlink:href="#a"/><radialGradient id="j" cx="28.444" cy="-1.673" r="31.809" gradientTransform="matrix(0 .98969 -5.0592 -.00044 23.658 -26.154)" gradientUnits="userSpaceOnUse" xlink:href="#a"/><radialGradient id="i" cx="28.444" cy="-1.671" r="31.797" gradientTransform="matrix(0 .99006 -5.0612 -.00045 23.662 -26.165)" gradientUnits="userSpaceOnUse" xlink:href="#a"/><radialGradient id="h" cx="28.444" cy="-1.67" r="31.787" gradientTransform="matrix(0 .99038 -5.0628 -.00045 23.665 -26.174)" gradientUnits="userSpaceOnUse" xlink:href="#a"/><radialGradient id="g" cx="28.444" cy="-1.669" r="31.778" gradientTransform="matrix(0 .99065 -5.0642 -.00045 23.668 -26.182)" gradientUnits="userSpaceOnUse" xlink:href="#a"/><radialGradient id="f" cx="28.444" cy="-1.668" r="31.771" gradientTransform="matrix(0 .99087 -5.0653 -.00045 23.67 -26.188)" gradientUnits="userSpaceOnUse" xlink:href="#a"/><radialGradient id="e" cx="28.444" cy="-1.667" r="31.766" gradientTransform="matrix(0 .99103 -5.0661 -.00045 23.672 -26.192)" gradientUnits="userSpaceOnUse" xlink:href="#a"/><radialGradient id="d" cx="28.444" cy="-1.667" r="31.762" gradientTransform="matrix(0 .99114 -5.0667 -.00045 23.673 -26.196)" gradientUnits="userSpaceOnUse" xlink:href="#a"/><radialGradient id="c" cx="28.444" cy="-1.667" r="31.76" gradientTransform="matrix(0 .99121 -5.067 -.00045 23.674 -26.197)" gradientUnits="userSpaceOnUse" xlink:href="#a"/><radialGradient id="b" cx="-40.009" cy="59.549" r="32" gradientTransform="matrix(1.2905 .36349 -.36926 1.311 34.244 -16.838)" gradientUnits="userSpaceOnUse"><stop stop-color="#3971d8" stop-opacity=".996" offset="0"/><stop stop-color="#0fa2de" offset="1"/></radialGradient><radialGradient id="y" cx="29.586" cy="19.911" r="18" gradientTransform="matrix(.33333 -.83333 .41266 .16506 13.922 36.369)" gradientUnits="userSpaceOnUse"><stop stop-color="#fff" stop-opacity=".998" offset="0"/><stop stop-color="#fff" stop-opacity=".408" offset=".4"/><stop stop-color="#fff" stop-opacity="0" offset="1"/></radialGradient><radialGradient id="v" cx="32.933" cy="46.541" r="22.172" gradientTransform="matrix(2.3002 0 0 1.527 -42.754 -20.07)" gradientUnits="userSpaceOnUse"><stop stop-color="#9affd1" stop-opacity=".936" offset="0"/><stop stop-color="#cae9fd" stop-opacity=".89" offset=".449"/><stop stop-color="#f6fbff" stop-opacity=".949" offset=".483"/><stop stop-color="#e0f0fc" stop-opacity=".818" offset="1"/></radialGradient><radialGradient id="x" cx="37.93" cy="45.361" r="19.263" gradientTransform="matrix(1 0 0 .99762 0 .08)" gradientUnits="userSpaceOnUse"><stop stop-opacity=".287" offset="0"/><stop stop-opacity="0" offset="1"/></radialGradient><radialGradient id="w" cx="26.459" cy="26.241" r="19.263" gradientTransform="matrix(1 0 0 .99762 0 .08)" gradientUnits="userSpaceOnUse"><stop stop-color="#fff" stop-opacity=".997" offset="0"/><stop stop-color="#fff" stop-opacity="0" offset="1"/></radialGradient><linearGradient id="a"><stop stop-color="#56fff3" stop-opacity=".09" offset="0"/><stop stop-color="#2886ff" stop-opacity=".016" offset="1"/></linearGradient></defs><rect transform="scale(-1 1)" x="-64" width="64" height="64" rx="1" ry="1" fill="url(#b)" paint-order="fill markers stroke"/><path d="M.242.24C.241.24.24.81.24 1.844v61.91c0 .002.511.004 1.442.004l1.605.002H63.75c.005 0 .007-1.051.007-2.884.002-.482.003-1.018.003-1.605V.253c0-.007-1.614-.01-4.326-.01C58.936.24 58.4.24 57.83.24H.257m.028 1.603h63.43c.001 0 .002.966.002 2.656v58.858c0 .001-.511.002-1.44.002h-2.595a21260000 21260000 0 0 1-59.4-.002v-1.366L.284 3.288V1.843" fill="url(#c)" paint-order="fill markers stroke"/><path d="M.249.238c-.006 0-.011.57-.011 1.599v61.899c0 .01.507.015 1.43.015.438.007.976.012 1.6.012h60.451c.02 0 .032-1.043.032-2.86.006-.477.011-1.013.011-1.6V.298c0-.03-1.6-.048-4.29-.048-.493-.006-1.028-.01-1.598-.01H.311M.303 1.86h63.393c.006 0 .01.961.01 2.641v58.847c0 .006-.51.01-1.435.01H.529a1.436 1.436 0 0 1-.236-.01V61.5c0-7.697.005-49.867.01-58.206V1.859" fill="url(#d)" paint-order="fill markers stroke"/><path d="M.26.234c-.014 0-.026.568-.026 1.59v61.879c0 .024.5.037 1.408.037.432.015.969.026 1.59.026h60.434c.047 0 .074-1.027.074-2.816.015-.47.026-1.005.026-1.59V.372c0-.07-1.576-.111-4.224-.111a52.964 52.964 0 0 0-1.59-.026H.408M.337 1.887h63.327c.013 0 .308.977.024 2.614v58.828c0 .013-.51.023-1.428.023H.556c-.159-.003-.243-.012-.243-.023v-2.695c0-7.587.01-49.124.024-57.336V1.887" fill="url(#e)" paint-order="fill markers stroke"/><path d="M.277.229C.25.229.229.794.229 1.806v61.85c0 .043.488.067 1.377.067.422.027.956.048 1.577.048h60.405c.086 0 .136-1.004.136-2.753.026-.46.048-.992.048-1.577V.48c0-.128-1.541-.203-4.13-.203a28.16 28.16 0 0 0-1.577-.048H.548M.385 1.926h63.232c.024 0 .243.952.044 2.576v58.8c0 .023-.507.042-1.417.042H57.13L.594 63.343c-.164-.005-.253-.021-.253-.041v-3.92c0-7.428.02-48.047.044-56.076v-1.38" fill="url(#f)" paint-order="fill markers stroke"/><path d="M.298.222c-.042 0-.076.562-.076 1.56v61.811c0 .07.473.109 1.335.109.41.042.942.076 1.56.076h60.369c.137 0 .216-.974.216-2.67.043-.446.077-.976.077-1.56V.623c0-.204-1.495-.325-4.006-.325a17.01 17.01 0 0 0-1.56-.076H.733M.447 1.978h63.107c.039 0 .212.93.07 2.525v58.764c0 .038-.503.068-1.401.068h-6.707c-10.774 0-51.599 0-54.872-.002-.171-.007-.267-.034-.267-.066v-5.533c0-7.22.032-46.63.07-54.417V1.978" fill="url(#g)" paint-order="fill markers stroke"/><path d="M.326.213C.263.213.213.771.213 1.751v61.764c0 .103.455.159 1.284.159.394.062.922.112 1.539.112h60.32c.202 0 .318-.936.318-2.567.062-.429.113-.956.113-1.538V.8c0-.298-1.437-.476-3.851-.476a11.11 11.11 0 0 0-1.538-.112H.96M.524 2.044h62.951c.057 0 .103.904.103 2.461v58.72c0 .055-.5.099-1.382.099h-8.693c-10.361 0-49.65-.001-52.798-.003-.18-.01-.284-.05-.284-.097v-7.546c0-6.96.046-44.86.104-52.347V2.045" fill="url(#h)" paint-order="fill markers stroke"/><path d="M.358.203C.272.203.203.755.203 1.715v61.707c0 .142.433.22 1.222.22.375.085.899.155 1.512.155h60.266c.28 0 .44-.891.44-2.444.085-.408.155-.93.155-1.512V1.016c0-.413-1.368-.658-3.665-.658A7.648 7.648 0 0 0 58.62.203H1.236M.62 2.123h62.763c.079 0 .218.88.142 2.385v58.664c0 .076-.495.137-1.36.137h-11.08c-9.863 0-47.304-.001-50.304-.004-.191-.015-.303-.069-.303-.133v-9.965c0-6.647.063-42.735.142-49.86V2.122" fill="url(#i)" paint-order="fill markers stroke"/><path d="M.396.19C.282.19.191.738.191 1.673v61.641c0 .188.407.291 1.149.291a5 5 0 0 0 1.482.205h60.2c.37 0 .581-.838.581-2.297.114-.384.206-.903.206-1.482V1.269c0-.547-1.286-.872-3.447-.872A5.47 5.47 0 0 0 58.88.192H1.558m-.83 2.024H63.27c.105 0 .19.85.19 2.296v58.6c0 .1-.491.182-1.335.182H48.253c-9.282 0-44.56-.002-47.388-.006-.203-.02-.327-.09-.327-.176V50.316c0-6.281.085-40.247.19-46.949V2.215" fill="url(#j)" paint-order="fill markers stroke"/><path d="M.44.177C.294.177.177.715.177 1.624v61.564c0 .24.378.372 1.066.372.327.146.841.263 1.447.263h60.126c.473 0 .744-.777.744-2.131.146-.356.263-.87.263-1.447V1.555c0-.699-1.192-1.116-3.197-1.116A4.032 4.032 0 0 0 59.18.176H1.93M.854 2.321h62.29c.135 0 .243.817.243 2.193v58.528c0 .13-.485.233-1.304.233H45.006c-8.615 0-41.413-.002-44.04-.007-.218-.025-.354-.116-.354-.226V46.997c0-5.86.108-37.392.242-43.608V2.321" fill="url(#k)" paint-order="fill markers stroke"/><path d="M.49.161c-.182 0-.33.53-.33 1.407v61.479c0 .3.345.464.972.464.298.182.806.328 1.408.328h60.04c.59 0 .93-.708.93-1.943.181-.324.327-.832.327-1.407V1.883c0-.873-1.087-1.393-2.914-1.393-.335-.182-.842-.328-1.407-.328H2.347m-1.35 2.28h62.006c.168 0 .336.78.302 2.077v58.444c0 .161-.478.29-1.27.29h-20.7c-7.86 0-37.855-.002-40.256-.008-.234-.031-.384-.145-.384-.282V43.247c0-5.386.135-34.166.302-39.832v-.973" fill="url(#l)" paint-order="fill markers stroke"/><path d="M.545.144C.323.144.144.665.144 1.507v61.38c0 .367.307.568.866.568.266.222.768.401 1.364.401H62.32c.72 0 1.134-.632 1.134-1.733.222-.289.401-.79.401-1.363V2.246c0-1.066-.97-1.701-2.599-1.701-.299-.222-.799-.401-1.363-.401H2.814m-1.658 2.43h61.688c.204 0 .369.739.369 1.95v58.352c0 .196-.471.354-1.233.354H37.236c-7.017 0-33.883-.003-36.03-.01-.253-.039-.418-.178-.418-.344V39.06c0-4.857.164-30.564.368-35.617v-.869" fill="url(#m)" paint-order="fill markers stroke"/><path d="M.606.125c-.267 0-.481.51-.481 1.314v61.274c0 .44.266.68.75.68.23.268.724.482 1.315.482h59.843c.865 0 1.361-.547 1.361-1.5.267-.25.482-.744.482-1.315V2.648c0-1.28-.84-2.042-2.25-2.042-.26-.267-.752-.481-1.315-.481H3.33M1.331 2.722h61.336c.246 0 .463.692.443 1.806v58.25c0 .236-.463.426-1.19.426H32.706c-6.087 0-29.493-.004-31.363-.012-.272-.046-.455-.213-.455-.414V34.432c0-4.27.197-26.583.442-30.958v-.751" fill="url(#n)" paint-order="fill markers stroke"/><path d="M.673.103c-.316 0-.57.5-.57 1.261v61.157c0 .52.221.806.623.806.191.316.677.57 1.262.57h59.728c1.023 0 1.61-.455 1.61-1.246.316-.208.57-.693.57-1.261V3.089c0-1.515-.697-2.417-1.868-2.417-.215-.315-.7-.569-1.26-.569H3.893m-2.37 2.78h60.95c.29 0 .54.642.524 1.65v58.138c0 .28-.454.504-1.144.504H27.74c-5.067 0-24.681-.005-26.246-.015-.294-.054-.496-.252-.496-.489v-33.31c0-3.63.233-22.22.523-25.853v-.624" fill="url(#o)" paint-order="fill markers stroke"/><path d="M.746.08C.377.08.08.568.08 1.283v61.03c0 .608.172.942.485.942.148.368.625.665 1.203.665h59.604c1.196 0 1.882-.353 1.882-.968.369-.162.665-.639.665-1.203V3.569c0-1.77-.541-2.823-1.452-2.823-.167-.368-.643-.665-1.203-.665H4.51m-2.776 2.98h60.532c.339 0 .624.586.612 1.48v58.015c0 .327-.444.589-1.095.589H22.338a10357 10357 0 0 1-20.676-.017c-.318-.064-.54-.295-.54-.572V23.841c0-2.93.272-17.47.611-20.295v-.485" fill="url(#p)" paint-order="fill markers stroke"/><path d="M.824.056C.398.056.056.53.056 1.196v60.892c0 .702.118 1.088.334 1.088.102.426.57.768 1.14.768H61c1.382 0 2.176-.243 2.176-.668.426-.112.769-.579.769-1.14V4.088c0-2.046-.374-3.264-1.003-3.264-.115-.426-.582-.768-1.14-.768H5.176M1.961 3.25h60.08c.391 0 .715.527.707 1.295V62.43c0 .377-.434.68-1.041.68H16.494c-2.755 0-12.78-.006-13.652-.02-.344-.073-1.589-.34-1.589-.66V17.87c0-2.176.315-12.335.707-14.285V3.25" fill="url(#q)" paint-order="fill markers stroke"/><path d="M.91.029C.42.029.028.489.028 1.1v60.744c0 .804.061 1.246.173 1.246.053.488.51.88 1.072.88H60.6c1.583 0 2.492-.125 2.492-.345.488-.058.88-.515.88-1.073V4.646c0-2.343-.193-3.737-.518-3.737-.06-.488-.517-.88-1.073-.88H5.892M2.205 3.456h59.59c.45 0 .817.463.81 1.097v57.742c0 .432-.421.78-.982.78h-51.42c-1.461 0-6.682-.009-7.168-.024-.371-.084-1.64-.39-1.64-.756V11.443c0-1.361.36-6.806.81-7.814v-.174" fill="url(#r)" paint-order="fill markers stroke"/><path d="M1 0C.446 0 0 .446 0 1v62c0 .554.446 1 1 1h62c.554 0 1-.446 1-1V1c0-.554-.446-1-1-1zm1.466 3.676h59.068c.51 0 .92.394.92.885v57.59c0 .49-.41.885-.92.885H2.466c-.51 0-.92-.394-.92-.884V4.56c0-.49.41-.885.92-.885z" fill="url(#s)" paint-order="fill markers stroke"/><path d="M.24.24v63.52h63.52V.24zm.04 1.598h63.44V63.36H.28z" fill="url(#t)" paint-order="fill markers stroke"/><path d="M.24 1.279v62.48h63.52V1.28zm.04 1.278h63.44V63.36H.28z" fill="url(#u)" paint-order="fill markers stroke"/><path d="M32.824 11.126c-1.974 4.84-3.165 8.006-5.363 12.702 1.348 1.428 3.002 3.092 5.688 4.97-2.888-1.188-4.858-2.38-6.33-3.619-2.813 5.87-7.22 14.23-16.163 30.299 7.03-4.058 12.478-6.56 17.556-7.514a12.869 12.869 0 0 1-.333-3.011l.008-.225c.111-4.503 2.454-7.966 5.23-7.731 2.774.235 4.931 4.078 4.82 8.582a12.722 12.722 0 0 1-.284 2.418c5.023.983 10.413 3.478 17.347 7.481-1.367-2.517-2.588-4.786-3.753-6.947-1.836-1.423-3.75-3.275-7.656-5.28 2.684.698 4.607 1.503 6.105 2.403-11.85-22.061-12.81-24.992-16.872-34.528z" fill="url(#v)" fill-rule="evenodd"/><g stroke-linejoin="round"><path transform="translate(1 1)" d="M32.85 14.701c-1.175 2.915-2.282 5.673-3.715 8.795 1.208 1.247 2.605 2.59 4.824 4.143a1.415 1.415 0 0 1-1.35 2.468c-2.242-.923-3.877-1.882-5.288-2.867-2.453 5.052-6.887 13.316-13.277 24.895 4.617-2.449 8.816-4.347 12.639-5.234-.087-.648-.223-1.27-.217-1.96a1.415 1.415 0 0 1 0-.036l.008-.211c.061-2.488.72-4.72 1.857-6.4 1.136-1.681 2.901-2.878 4.904-2.708 2.003.17 3.586 1.59 4.608 3.408 1.021 1.82 1.57 4.132 1.508 6.62-.012.487-.11.937-.166 1.406 3.76.896 7.857 2.685 12.385 5.086-.468-.867-.985-1.821-1.43-2.647-1.842-1.453-3.585-3.095-7.194-4.947a1.415 1.415 0 0 1 1.002-2.629c1.004.26 1.818.559 2.647.853-8.135-15.296-10.929-21.38-13.744-28.035z" fill="none" stroke="url(#w)" stroke-linecap="round"/><path transform="translate(-.5 -.5)" d="M32.85 14.701c-1.175 2.915-2.282 5.673-3.715 8.795 1.208 1.247 2.605 2.59 4.824 4.143a1.415 1.415 0 0 1-1.35 2.468c-2.242-.923-3.877-1.882-5.288-2.867-2.453 5.052-6.887 13.316-13.277 24.895 4.617-2.449 8.816-4.347 12.639-5.234-.087-.648-.223-1.27-.217-1.96a1.415 1.415 0 0 1 0-.036l.008-.211c.061-2.488.72-4.72 1.857-6.4 1.136-1.681 2.901-2.878 4.904-2.708 2.003.17 3.586 1.59 4.608 3.408 1.021 1.82 1.57 4.132 1.508 6.62-.012.487-.11.937-.166 1.406 3.76.896 7.857 2.685 12.385 5.086-.468-.867-.985-1.821-1.43-2.647-1.842-1.453-3.585-3.095-7.194-4.947a1.415 1.415 0 0 1 1.002-2.629c1.004.26 1.818.559 2.647.853-8.135-15.296-10.929-21.38-13.744-28.035z" fill="none" stroke="url(#x)" stroke-linecap="round"/><path d="M51 15a18 18 0 0 1-18 18 18 18 0 0 1-18-18A18 18 0 0 1 33-3a18 18 0 0 1 18 18z" fill="url(#y)" opacity=".29"/></g></svg>