<?xml version="1.0" encoding="UTF-8"?>
<!-- Created with Inkscape (http://www.inkscape.org/) -->
<svg width="64" height="64" version="1.1" xmlns="http://www.w3.org/2000/svg" xmlns:cc="http://creativecommons.org/ns#" xmlns:dc="http://purl.org/dc/elements/1.1/" xmlns:rdf="http://www.w3.org/1999/02/22-rdf-syntax-ns#">
	<defs>
		<radialGradient id="a" cx="35.27" cy="37.288" r="32" gradientTransform="matrix(1 0 0 .96875 0 1.0312)" gradientUnits="userSpaceOnUse">
			<stop stop-color="#531a7c" stop-opacity=".45098" offset="0"/>
			<stop stop-color="#8d12e5" stop-opacity="0" offset="1"/>
		</radialGradient>
	</defs>
	<metadata>
		<rdf:RDF>
			<cc:Work rdf:about="">
				<dc:format>image/svg+xml</dc:format>
				<dc:type rdf:resource="http://purl.org/dc/dcmitype/StillImage"/>
				<dc:title/>
			</cc:Work>
		</rdf:RDF>
	</metadata>
	<path d="m0 2v60l2 2h60l2-2v-60z" color="#000000" fill="#6045dc"/>
	<path d="m0 2v60l2 2h60l2-2v-60z" color="#000000" fill="url(#a)"/>
	<path d="m2 0-2 1v1h64v-1l-2-1z" color="#000000" fill="#a9bcff"/>
	<path d="m0 1v3l2-2z" fill="#c7d3ff"/>
	<path d="m64 4-2-2 2-1z" fill="#8684ee" fill-opacity=".9905"/>
	<path d="m19.671 48.99s2.2252 0.64611 5.1872 1.0155c1.1995 0.14958 5.7635 0.67241 9.2628 0.65869 0 0 4.2618 0.0049 6.6143-0.32934 2.4615-0.34967 3.8561-0.79592 4.6322-1.6865 0.02021-0.21234 0.37461-0.90448-0.5822-1.572-2.4462-1.7065-5.6086-2.1736-11.751-3.6323-6.7925-1.7077-8.8224-3.3431-9.8365-4.5265-0.96144-1.1861 0.18047-3.6494 5.6537-4.8578 2.7712-0.67436 13.092-0.79827 13.092-0.79827-2.9611-2.3509-8.5201-6.5598-9.6564-7.4549-0.99658-0.78502-2.6025-1.9897-2.7752-3.0663-0.23288-1.048 1.4167-1.5525 2.29-1.6108 4.4505-0.31954 7.0294 0.23966 10.465 0.60619 4.3127 0.46004 6.2272-0.68573 5.8751-3.362-0.2513-1.9101-2.3817-3.781-6.1425-4.3733-5.0185-0.79032-9.5188-0.2455-9.5188-0.2455 7.1897 0.62589 9.5285 2.1193 9.9557 3.1051 0.25229 0.5822-0.98393 1.5986-3.2406 1.4855-2.4568-0.12313-6.9285-1.1556-6.9285-1.1556-5.5435-0.98746-8.1314-1.4361-9.587 0.46576-0.9509 1.2425 0.13585 2.7558 0.5628 3.6485 1.9019 3.3186 5.1906 5.5954 7.2776 7.1999 0.78524 0.60374 3.1827 1.9407 3.1827 1.9407-7.4522-2.0377-13.391-0.89271-17.156 1.0868-4.3277 2.5617-3.6076 6.9191 3.2798 10.926 3.2435 1.887 8.513 3.4088 12.716 4.3491 3.8817 0.61894 4.4602 0.8722 4.4306 1.1953-0.04153 0.45489-4.3445 1.1268-5.5959 1.2136-5.8712 0.40706-11.667-0.22555-11.708-0.22555z" color="#000000" fill="#eceed8"/>
</svg>
