<?xml version="1.0" encoding="UTF-8"?>
<!-- Created with Inkscape (http://www.inkscape.org/) -->
<svg width="64" height="64" version="1.1" xmlns="http://www.w3.org/2000/svg" xmlns:cc="http://creativecommons.org/ns#" xmlns:dc="http://purl.org/dc/elements/1.1/" xmlns:rdf="http://www.w3.org/1999/02/22-rdf-syntax-ns#" xmlns:xlink="http://www.w3.org/1999/xlink">
	<defs>
		<radialGradient id="radialGradient2160630-6" cx="31.744" cy="35.593" r="32" gradientTransform="matrix(-1.1553,0,0,1.1553,68.931,-5.529)" gradientUnits="userSpaceOnUse">
			<stop stop-color="#374d62" offset="0"/>
			<stop stop-color="#47574f" offset="1"/>
		</radialGradient>
		<radialGradient id="radialGradient2160632-5" cx="35.574" cy="1.019" r="32" gradientTransform="matrix(0,1.1252,-5.1753,0,37.271,-39.029)" gradientUnits="userSpaceOnUse" xlink:href="#a-6-5-2"/>
		<linearGradient id="a-6-5-2">
			<stop stop-color="#bdfdff" stop-opacity=".04" offset="0"/>
			<stop stop-color="#bcfffa" stop-opacity=".02" offset="1"/>
		</linearGradient>
		<radialGradient id="radialGradient2160634-2" cx="35.574" cy="1.036" r="32" gradientTransform="matrix(0,1.1252,-5.1753,0,37.363,-39.029)" gradientUnits="userSpaceOnUse" xlink:href="#a-6-5-2"/>
		<radialGradient id="radialGradient2160636-1" cx="35.574" cy="1.055" r="32" gradientTransform="matrix(0,1.1252,-5.1753,0,37.458,-39.029)" gradientUnits="userSpaceOnUse" xlink:href="#a-6-5-2"/>
		<radialGradient id="radialGradient2160638-7" cx="35.574" cy="1.071" r="32" gradientTransform="matrix(0,1.1252,-5.1753,0,37.544,-39.029)" gradientUnits="userSpaceOnUse" xlink:href="#a-6-5-2"/>
		<radialGradient id="radialGradient2160640-8" cx="35.574" cy="1.091" r="32" gradientTransform="matrix(0,1.1252,-5.1753,0,37.648,-39.029)" gradientUnits="userSpaceOnUse" xlink:href="#a-6-5-2"/>
		<radialGradient id="radialGradient2160642-5" cx="35.574" cy="1.113" r="32" gradientTransform="matrix(0,1.1252,-5.1753,0,37.758,-39.029)" gradientUnits="userSpaceOnUse" xlink:href="#a-6-5-2"/>
		<radialGradient id="radialGradient2160644-7" cx="35.574" cy="1.135" r="32" gradientTransform="matrix(0,1.1252,-5.1753,0,37.875,-39.029)" gradientUnits="userSpaceOnUse" xlink:href="#a-6-5-2"/>
		<radialGradient id="radialGradient2160646-4" cx="35.574" cy="1.159" r="32" gradientTransform="matrix(0,1.1252,-5.1753,0,38,-39.029)" gradientUnits="userSpaceOnUse" xlink:href="#a-6-5-2"/>
		<radialGradient id="radialGradient2160648-1" cx="35.574" cy="1.18" r="32" gradientTransform="matrix(0,1.1252,-5.1753,0,38.107,-39.029)" gradientUnits="userSpaceOnUse" xlink:href="#a-6-5-2"/>
		<radialGradient id="radialGradient2160650-8" cx="35.574" cy="1.208" r="32" gradientTransform="matrix(0,1.1252,-5.1753,0,38.252,-39.029)" gradientUnits="userSpaceOnUse" xlink:href="#a-6-5-2"/>
		<radialGradient id="radialGradient2160652-5" cx="35.574" cy="1.239" r="32" gradientTransform="matrix(0,1.1252,-5.1753,0,38.411,-39.029)" gradientUnits="userSpaceOnUse" xlink:href="#a-6-5-2"/>
		<radialGradient id="radialGradient2160654-9" cx="35.574" cy="1.273" r="32" gradientTransform="matrix(0,1.1252,-5.1753,0,38.587,-39.029)" gradientUnits="userSpaceOnUse" xlink:href="#a-6-5-2"/>
		<radialGradient id="radialGradient2160656-7" cx="35.574" cy="1.304" r="32" gradientTransform="matrix(0,1.1252,-5.1753,0,38.75,-39.029)" gradientUnits="userSpaceOnUse" xlink:href="#a-6-5-2"/>
		<radialGradient id="radialGradient2160658-5" cx="35.574" cy="1.346" r="32" gradientTransform="matrix(0,1.1252,-5.1753,0,38.966,-39.029)" gradientUnits="userSpaceOnUse" xlink:href="#a-6-5-2"/>
		<radialGradient id="radialGradient2160660-3" cx="35.574" cy="1.393" r="32" gradientTransform="matrix(0,1.1252,-5.1753,0,39.208,-39.029)" gradientUnits="userSpaceOnUse" xlink:href="#a-6-5-2"/>
		<radialGradient id="radialGradient2160662-8" cx="35.574" cy="1.439" r="32" gradientTransform="matrix(0,1.1252,-5.1753,0,39.446,-39.029)" gradientUnits="userSpaceOnUse" xlink:href="#a-6-5-2"/>
		<radialGradient id="radialGradient2160664-8" cx="36.463" cy="1.498" r="32" gradientTransform="matrix(0 .018045 -1.2755 0 33.91 1.3415)" gradientUnits="userSpaceOnUse">
			<stop stop-color="#d6fffe" stop-opacity=".71186" offset="0"/>
			<stop stop-color="#6edaff" stop-opacity="0" offset="1"/>
		</radialGradient>
		<radialGradient id="radialGradient23086" cx="32.004" cy="33" r="14.721" gradientTransform="matrix(1 0 0 1.0003 0 -.0087562)" gradientUnits="userSpaceOnUse">
			<stop stop-color="#096a89" stop-opacity=".3099" offset="0"/>
			<stop stop-color="#0091a6" stop-opacity=".1451" offset="1"/>
		</radialGradient>
		<radialGradient id="radialGradient24342" cx="32" cy="33" r="19.545" gradientTransform="translate(0)" gradientUnits="userSpaceOnUse">
			<stop stop-color="#c6cbd8" stop-opacity=".68336" offset="0"/>
			<stop stop-color="#c6dfbf" stop-opacity=".91579" offset="1"/>
		</radialGradient>
	</defs>
	<metadata>
		<rdf:RDF>
			<cc:Work rdf:about="">
				<dc:format>image/svg+xml</dc:format>
				<dc:type rdf:resource="http://purl.org/dc/dcmitype/StillImage"/>
			</cc:Work>
		</rdf:RDF>
	</metadata>
	<g transform="translate(1.5037e-5)">
		<path d="m1 0c-0.554 0-1 0.446-1 1v62c0 0.554 0.446 1 1 1h62c0.554 0 1-0.446 1-1v-62c0-0.554-0.446-1-1-1z" fill="url(#radialGradient2160630-6)"/>
		<g transform="translate(0 .0015035)">
			<path d="m1 0c-0.554 0-1 0.446-1 1v62-0.224 0.224-61h1.752c19.15 2e-3 39.445 0 60.213 0h2.035v61-0.334 0.334-62a0.998 0.998 0 0 0-1-1z" fill="url(#radialGradient2160632-5)"/>
			<path d="m1 0a0.998 0.998 0 0 0-1 1.006v61.98-0.197c0-0.277 4e-3 -0.184 0.01 0.246 0.012 0.016 0.03-0.297 0.052-0.897v-60c0.072-9e-3 0.133-0.013 0.185-0.013 0.29-0.016 0.357-0.032 0.774-0.044 0.246-0.011 0.496-0.019 0.747-0.019 19.183 2e-3 39.392 0 60.2 0 0.346 0 0.689 0.012 1.023 0.03 0.268 0.01 0.389 0.02 0.52 0.033 0.106 0 0.22 0.01 0.427 0.028v59.744c0.027 0.754 0.05 1.148 0.059 1.123l3e-3 -0.334v0.286-61.762c0-0.143 0-0.22-2e-3 -0.224a0.996 0.996 0 0 0-1.012-0.986h-61.986" fill="url(#radialGradient2160634-2)"/>
			<path d="m1 0a0.998 0.998 0 0 0-1 1.006v61.966-0.169c0-0.245 8e-3 -0.145 0.021 0.266 0.022 0.034 0.06-0.247 0.104-0.807v-59.988a0.744 0.744 0 0 1 0.173-0.025c0.27-0.031 0.341-0.064 0.743-0.088 0.242-0.022 0.492-0.037 0.742-0.037 19.217 2e-3 39.34 0 60.187 0 0.347 0 0.69 0.024 1.013 0.06 0.256 0.02 0.372 0.042 0.494 0.065 0.1 0 0.206 0.02 0.398 0.057v59.731c0.055 0.703 0.102 1.052 0.119 1.003 4e-3 -0.154 6e-3 -0.265 6e-3 -0.333v0.237-61.748c0-0.139 0-0.215-3e-3 -0.224a0.994 0.994 0 0 0-0.807-0.952 1.025 1.025 0 0 0-0.217-0.02h-61.973" fill="url(#radialGradient2160636-1)"/>
			<path d="m1 0a0.998 0.998 0 0 0-1 1.005v61.953-0.14c0-0.213 0.012-0.107 0.031 0.287 0.034 0.05 0.091-0.198 0.156-0.718v-59.974a0.45 0.45 0 0 1 0.16-0.037c0.252-0.048 0.327-0.097 0.715-0.132 0.238-0.034 0.487-0.056 0.737-0.056 19.25 2e-3 39.286 0 60.173 0 0.348 0 0.688 0.036 1.001 0.09 0.244 0.029 0.356 0.062 0.47 0.098 0.091 0 0.19 0.03 0.37 0.085v59.718c0.082 0.653 0.151 0.957 0.176 0.884 7e-3 -0.152 0.01-0.262 0.01-0.333v0.188-61.734c0-0.135 0-0.21-4e-3 -0.224a0.992 0.992 0 0 0-0.819-0.94 1.041 1.041 0 0 0-0.217-0.018h-61.96" fill="url(#radialGradient2160638-7)"/>
			<path d="m1 0a0.998 0.998 0 0 0-1 1.005v61.939-0.113c0-0.18 0.015-0.068 0.042 0.308 0.045 0.067 0.121-0.149 0.208-0.629v-59.96a0.312 0.312 0 0 1 0.148-0.05c0.232-0.063 0.311-0.128 0.684-0.176 0.234-0.044 0.483-0.074 0.732-0.074 19.284 2e-3 39.234 0 60.16 0 0.35 0 0.689 0.048 0.991 0.12 0.232 0.039 0.34 0.083 0.444 0.13 0.085 0 0.176 0.04 0.341 0.114v59.704c0.11 0.603 0.203 0.862 0.236 0.764 0.01-0.148 0.014-0.259 0.014-0.333v0.14-61.721c0-0.13-2e-3 -0.206-6e-3 -0.224a0.991 0.991 0 0 0-0.83-0.927 1.066 1.066 0 0 0-0.22-0.017h-61.944" fill="url(#radialGradient2160640-8)"/>
			<path d="m1 0a0.998 0.998 0 0 0-1 1.004v61.926-0.084c0-0.148 0.02-0.029 0.052 0.328 0.056 0.084 0.152-0.099 0.26-0.539v-59.949c0.053-0.04 0.097-0.061 0.136-0.061 0.212-0.08 0.297-0.16 0.655-0.22 0.23-0.056 0.477-0.093 0.727-0.093 19.317 2e-3 39.18 0 60.147 0 0.35 0 0.688 0.06 0.98 0.151 0.22 0.047 0.322 0.102 0.418 0.162 0.078 0 0.162 0.049 0.313 0.142v59.69c0.137 0.553 0.253 0.767 0.295 0.645a4.73 4.73 0 0 0 0.017-0.332v0.09-61.705c0-0.126-2e-3 -0.202-7e-3 -0.224a0.99 0.99 0 0 0-0.843-0.914 1.099 1.099 0 0 0-0.218-0.017h-61.932" fill="url(#radialGradient2160642-5)"/>
			<path d="m1 0a0.998 0.998 0 0 0-1 1.004v61.912-0.056c0-0.117 0.023 0.01 0.063 0.349 0.067 0.1 0.182-0.05 0.312-0.45v-59.935c0.048-0.049 0.088-0.074 0.123-0.074 0.193-0.095 0.282-0.192 0.626-0.264 0.225-0.067 0.472-0.11 0.721-0.11h60.133c0.352 0 0.688 0.071 0.97 0.18a0.944 0.944 0 0 1 0.393 0.194c0.07 0 0.147 0.059 0.284 0.17v59.68c0.164 0.502 0.304 0.671 0.354 0.524 0.014-0.14 0.02-0.25 0.02-0.331v0.042-61.695c0-0.121-2e-3 -0.197-9e-3 -0.224a0.99 0.99 0 0 0-0.854-0.902 1.142 1.142 0 0 0-0.218-0.014h-61.918" fill="url(#radialGradient2160644-7)"/>
			<path d="m1 0a0.998 0.998 0 0 0-1 1.004v61.898-0.029c0-0.084 0.027 0.049 0.073 0.37 0.079 0.117 0.212 0 0.365-0.36v-59.923c0.043-0.057 0.079-0.086 0.11-0.086 0.174-0.112 0.267-0.225 0.596-0.309a2.19 2.19 0 0 1 0.717-0.129c19.385 2e-3 39.075 0 60.12 0 0.353 0 0.687 0.084 0.958 0.211 0.196 0.066 0.29 0.144 0.368 0.227 0.063 0 0.132 0.068 0.256 0.199v59.665c0.192 0.452 0.354 0.576 0.413 0.404a3.11 3.11 0 0 0 0.024-0.33v-61.687c0-0.117-4e-3 -0.193-0.01-0.224a0.99 0.99 0 0 0-0.868-0.89 1.198 1.198 0 0 0-0.217-0.011h-61.905" fill="url(#radialGradient2160646-4)"/>
			<path d="m1 0a0.998 0.998 0 0 0-1 1.003v61.885c0-0.052 0.03 0.087 0.084 0.39 0.09 0.135 0.242 0.05 0.416-0.27v-59.911c0.038-0.063 0.07-0.097 0.099-0.097 0.154-0.127 0.251-0.257 0.566-0.352 0.217-0.089 0.463-0.148 0.711-0.148 19.418 2e-3 39.022 0 60.107 0 0.355 0 0.687 0.096 0.947 0.242a0.723 0.723 0 0 1 0.343 0.258c0.056 0 0.118 0.079 0.227 0.227v59.651c0.22 0.402 0.406 0.482 0.473 0.285 0.018-0.132 0.027-0.243 0.027-0.33v-61.721c0-0.113-4e-3 -0.188-0.012-0.224a0.99 0.99 0 0 0-0.879-0.877 1.273 1.273 0 0 0-0.218-0.011h-61.89" fill="url(#radialGradient2160648-1)"/>
			<path d="m1 0a0.998 0.998 0 0 0-1 1.003v61.899c0-0.02 0.035 0.126 0.094 0.41 0.101 0.152 0.273 0.1 0.468-0.18v-59.897c0.034-0.073 0.062-0.11 0.087-0.11 0.135-0.143 0.236-0.29 0.536-0.397 0.213-0.1 0.459-0.166 0.707-0.166 19.452 2e-3 38.969 0 60.093 0 0.356 0 0.687 0.108 0.936 0.272a0.678 0.678 0 0 1 0.317 0.29c0.05 0 0.103 0.089 0.2 0.256v59.64c0.246 0.352 0.455 0.386 0.531 0.165 0.02-0.128 0.03-0.239 0.03-0.33v-61.755c0-0.108-4e-3 -0.184-0.013-0.224a0.99 0.99 0 0 0-0.891-0.864 1.376 1.376 0 0 0-0.218-0.01h-61.877" fill="url(#radialGradient2160650-8)"/>
			<path d="m1 0a0.998 0.998 0 0 0-1 1.002v61.913c0 0.013 0.039 0.165 0.105 0.432 0.112 0.168 0.303 0.148 0.52-0.092v-59.882c0.029-0.081 0.053-0.123 0.074-0.123 0.116-0.159 0.222-0.321 0.507-0.44 0.209-0.111 0.454-0.185 0.701-0.185 19.486 2e-3 38.916 0 60.08 0 0.357 0 0.687 0.12 0.925 0.302a0.66 0.66 0 0 1 0.292 0.323c0.043 0 0.089 0.098 0.171 0.284v59.626c0.275 0.302 0.507 0.29 0.591 0.046 0.022-0.125 0.034-0.236 0.034-0.33v-61.791c0-0.104-5e-3 -0.18-0.016-0.224a0.99 0.99 0 0 0-0.903-0.852 1.514 1.514 0 0 0-0.218-8e-3h-61.863" fill="url(#radialGradient2160652-5)"/>
			<path d="m1 0a0.998 0.998 0 0 0-1 1.002v61.928c0 0.045 0.042 0.203 0.115 0.453 0.123 0.184 0.333 0.197 0.572-3e-3v-59.87c0.024-0.089 0.045-0.135 0.062-0.135 0.097-0.174 0.207-0.353 0.478-0.484 0.204-0.122 0.448-0.203 0.696-0.203 19.519 2e-3 38.863 0 60.067 0a1.4 1.4 0 0 1 0.914 0.332c0.15 0.103 0.224 0.225 0.267 0.355 0.035 0 0.073 0.108 0.142 0.313v59.612c0.302 0.251 0.557 0.196 0.65-0.074a1.7 1.7 0 0 0 0.037-0.33v-61.825c0-0.1-6e-3 -0.175-0.017-0.224a0.99 0.99 0 0 0-0.915-0.84 1.712 1.712 0 0 0-0.218-7e-3h-61.85" fill="url(#radialGradient2160654-9)"/>
			<path d="m1 0a0.998 0.998 0 0 0-1 1.002v61.942c0 0.077 0.046 0.242 0.126 0.473 0.134 0.201 0.363 0.246 0.624 0.086v-59.856c0.02-0.097 0.035-0.147 0.05-0.147a0.981 0.981 0 0 1 0.447-0.529c0.2-0.133 0.444-0.221 0.691-0.221 19.553 2e-3 38.811 0 60.053 0 0.36 0 0.686 0.144 0.903 0.362a0.688 0.688 0 0 1 0.242 0.388c0.028 0 0.059 0.118 0.114 0.341v59.598c0.33 0.2 0.608 0.1 0.709-0.194 0.026-0.117 0.04-0.228 0.04-0.329v-61.86c0-0.095-6e-3 -0.17-0.018-0.224a0.991 0.991 0 0 0-0.927-0.827 2.015 2.015 0 0 0-0.218-5e-3h-61.836" fill="url(#radialGradient2160656-7)"/>
			<path d="m1 0a0.998 0.998 0 0 0-1 1.001v61.956c0 0.11 0.05 0.281 0.136 0.494 0.146 0.218 0.394 0.296 0.677 0.176v-59.843c0.014-0.105 0.026-0.16 0.036-0.16a0.967 0.967 0 0 1 0.419-0.572c0.196-0.144 0.439-0.24 0.686-0.24 19.586 2e-3 38.758 0 60.04 0 0.36 0 0.685 0.156 0.892 0.392a0.73 0.73 0 0 1 0.216 0.42c0.021 0 0.044 0.128 0.086 0.37v59.585c0.356 0.15 0.658 5e-3 0.768-0.314 0.029-0.114 0.044-0.224 0.044-0.328v-61.895c0-0.09-7e-3 -0.166-0.02-0.224a0.992 0.992 0 0 0-0.94-0.814 2.524 2.524 0 0 0-0.217-5e-3h-61.823" fill="url(#radialGradient2160658-5)"/>
			<path d="m1 0a0.998 0.998 0 0 0-1 1v61.972c0 0.142 0.054 0.32 0.147 0.515a0.643 0.643 0 0 0 0.728 0.265v-59.83c0.01-0.114 0.018-0.172 0.025-0.172a0.97 0.97 0 0 1 0.389-0.617c0.192-0.155 0.434-0.258 0.68-0.258 19.62 2e-3 38.705 0 60.027 0 0.362 0 0.686 0.168 0.882 0.422a0.794 0.794 0 0 1 0.19 0.453c0.015 0 0.03 0.137 0.057 0.398v59.572c0.385 0.1 0.71-0.09 0.828-0.434 0.03-0.11 0.047-0.22 0.047-0.328v-61.93c0-0.086-7e-3 -0.161-0.021-0.224a0.994 0.994 0 0 0-0.951-0.802 3.563 3.563 0 0 0-0.219-2e-3h-61.809" fill="url(#radialGradient2160660-3)"/>
			<path d="m1 0a0.998 0.998 0 0 0-1 1v61.986c0 0.174 0.058 0.358 0.157 0.535a0.802 0.802 0 0 0 0.78 0.355v-59.816c5e-3 -0.122 0.01-0.185 0.013-0.185a0.987 0.987 0 0 1 0.36-0.66c0.187-0.166 0.429-0.277 0.675-0.277 19.653 2e-3 38.652 0 60.013 0 0.363 0 0.685 0.18 0.87 0.452a0.876 0.876 0 0 1 0.166 0.485c7e-3 0 0.015 0.147 0.028 0.427v59.558c0.412 0.05 0.76-0.186 0.887-0.553a1.1 1.1 0 0 0 0.05-0.328v-61.965a0.996 0.996 0 0 0-0.985-1.014 6.67 6.67 0 0 0-0.219 0h-61.795" fill="url(#radialGradient2160662-8)"/>
			<path d="m1 0a0.998 0.998 0 0 0-1 1v2h64v-1.998a0.998 0.998 0 0 0-1-1h-62z" fill="url(#radialGradient2160664-8)"/>
		</g>
	</g>
	<g>
		<path d="m12.455 13.455c4.8009 5.0567 2.7176 8.2915 5.3518 14.247 2.4445 5.5269 7.7657 1.39 11.409 5.2975-3.6429 3.9075-8.9823-0.2475-11.427 5.2794-2.6341 5.9558-0.53277 9.2086-5.3337 14.265 5.0567-4.8009 8.3096-2.6995 14.265-5.3337 5.527-2.4445 1.39-7.7657 5.2975-11.409 3.8797 3.6434-0.24079 8.9852 5.2794 11.427 5.9571 2.6347 9.1895 0.51364 14.247 5.3156-4.802-5.0578-2.6809-8.2902-5.3156-14.247-2.4415-5.5202-7.7653-1.4178-11.409-5.2975 3.6434-3.8797 8.9671 0.22269 11.409-5.2975 2.6347-5.9571 0.51362-9.1895 5.3156-14.247-5.0578 4.802-8.2902 2.6809-14.247 5.3156-5.5202 2.4415-1.3997 7.7834-5.2794 11.427-3.9075-3.643 0.22942-8.9642-5.2975-11.409-5.9558-2.6341-9.2086-0.53275-14.265-5.3337z" color="#000000" fill="url(#radialGradient24342)"/>
		<path transform="translate(0,1.5)" d="m46.725 18.275c-0.53972 0.15223-1.1129 0.41187-1.627 0.50586-2.3448 0.4287-4.3451 0.52422-7.0371 1.7148-1.0681 0.4724-1.4255 0.90185-1.6855 1.4219-0.26007 0.52002-0.38319 1.2623-0.45117 2.2461-0.13597 1.9675-0.09735 5.0437-2.6152 7.4082a1.8859 1.8859 0 0 1-2.5762 0.0039c-2.5315-2.3601-2.5006-5.4382-2.6367-7.4023-0.068053-0.98205-0.19176-1.7202-0.45117-2.2383-0.25942-0.5181-0.61679-0.94832-1.6875-1.4219-2.6921-1.1907-4.6998-1.2911-7.0488-1.7246-0.51104-0.09431-1.0811-0.35248-1.6172-0.50391 0.15193 0.53381 0.41071 1.1003 0.50586 1.6094 0.43831 2.3449 0.54279 4.3508 1.7344 7.0449 0.47356 1.0707 0.90377 1.4281 1.4219 1.6875s1.2562 0.38312 2.2383 0.45117c1.9641 0.13611 5.0422 0.10521 7.4023 2.6367a1.8859 1.8859 0 0 1 0 2.5703c-2.3621 2.5336-5.4471 2.4969-7.416 2.6289-0.98445 0.06602-1.7255 0.18703-2.2441 0.44531-0.51867 0.25828-0.94685 0.61399-1.4199 1.6836-1.1907 2.6921-1.2911 4.6998-1.7246 7.0488-0.09475 0.51346-0.35338 1.0862-0.50586 1.625 0.53876-0.15248 1.1115-0.41111 1.625-0.50586 2.349-0.43349 4.3567-0.53393 7.0488-1.7246 1.0707-0.47356 1.4281-0.90377 1.6875-1.4219s0.38312-1.2562 0.45117-2.2383c0.1361-1.9641 0.1052-5.0422 2.6367-7.4023a1.8859 1.8859 0 0 1 2.5762 0.0039c2.5179 2.3645 2.4793 5.4407 2.6152 7.4082 0.06798 0.98376 0.1911 1.7261 0.45117 2.2461s0.61745 0.94948 1.6855 1.4219c2.692 1.1906 4.6923 1.2861 7.0371 1.7148 0.51406 0.09399 1.0872 0.35362 1.627 0.50586-0.15223-0.53972-0.41187-1.1129-0.50586-1.627-0.4287-2.3448-0.52422-4.3451-1.7148-7.0371-0.47289-1.0692-0.90242-1.4282-1.4219-1.6895-0.51946-0.26122-1.2589-0.38701-2.2402-0.45703-1.9627-0.14004-5.034-0.1073-7.3965-2.623a1.8859 1.8859 0 0 1 0-2.582c2.3625-2.5158 5.4338-2.483 7.3965-2.623 0.98136-0.07002 1.7208-0.19582 2.2402-0.45703 0.51946-0.26122 0.94899-0.62026 1.4219-1.6895 1.1906-2.692 1.2862-4.6923 1.7148-7.0371 0.09399-0.51406 0.35362-1.0872 0.50586-1.627z" color="#000000" fill="url(#radialGradient23086)"/>
		<path transform="translate(0,1)" d="m43.396 21.604c-1.4328 0.23275-2.7605 0.48527-4.3262 1.1777-0.65469 0.28956-0.45334 0.23872-0.46094 0.25391-0.0076 0.01519-0.13125 0.40204-0.19336 1.3008-0.03975 0.57514-0.2037 1.6413-0.32812 2.5898 0.94265-0.12513 2.0026-0.29124 2.5742-0.33203 0.89608-0.06394 1.2808-0.18919 1.2969-0.19727 0.01606-0.0081-0.03093 0.19045 0.25977-0.4668 0.69247-1.5656 0.94498-2.8934 1.1777-4.3262zm-22.766 0.01367c0.23723 1.4256 0.49552 2.7524 1.1855 4.3125 0.29126 0.65853 0.24122 0.45654 0.25391 0.46289 0.01268 0.0064 0.39704 0.12918 1.2949 0.19141 0.56957 0.03947 1.6294 0.2079 2.5684 0.33203-0.12413-0.93898-0.29256-1.9988-0.33203-2.5684-0.06222-0.89788-0.18506-1.2822-0.19141-1.2949-0.0063-0.01268 0.19565 0.03736-0.46289-0.25391-1.5595-0.68972-2.8872-0.9468-4.3164-1.1816zm17.457 17.457c0.12443 0.94851 0.28838 2.0147 0.32812 2.5898 0.06211 0.89875 0.18576 1.2856 0.19336 1.3008 0.0076 0.01519-0.19375-0.03565 0.46094 0.25391 1.5656 0.69247 2.8934 0.94498 4.3262 1.1777-0.23275-1.4328-0.48527-2.7605-1.1777-4.3262-0.29069-0.65726-0.2437-0.45872-0.25977-0.4668-0.01606-0.0081-0.4008-0.13333-1.2969-0.19727-0.57166-0.04079-1.6316-0.20691-2.5742-0.33203zm-12.154 0.0039c-0.94727 0.12408-2.0137 0.28962-2.5879 0.32812-0.90056 0.06039-1.287 0.18552-1.2988 0.19141-0.01182 0.0059 0.04208-0.20088-0.24805 0.45508-0.6921 1.5648-0.94805 2.8966-1.1836 4.332 1.4355-0.23554 2.7672-0.4915 4.332-1.1836 0.65853-0.29126 0.45654-0.24122 0.46289-0.25391 0.0063-0.01268 0.12919-0.39704 0.19141-1.2949 0.03956-0.57085 0.20719-1.6326 0.33203-2.5742z" color="#000000" fill="#008773" fill-opacity=".1395"/>
		<path d="m49.537 15.074c-3.9964 2.6768-7.1088 1.4277-12.24 3.6973-5.5202 2.4415-1.3996 7.7824-5.2793 11.426-3.9075-3.643 0.23008-8.9637-5.2969-11.408-5.1279-2.268-8.2549-1.0358-12.252-3.7109 0.28627 0.48741 0.51212 0.96336 0.70312 1.4336 3.6722 2.1046 6.7253 1.144 11.549 3.2773 5.527 2.4445 1.3893 7.7652 5.2969 11.408 3.8797-3.6434-0.24092-8.9843 5.2793-11.426 4.8286-2.1356 7.8693-1.1585 11.541-3.2656 0.18969-0.47015 0.4137-0.94423 0.69922-1.4316zm-20.854 18.426c-3.6135 3.0292-8.5663-0.4847-10.895 4.7793-2.1525 4.8669-1.1475 7.9301-3.3262 11.646 0.23866-0.15993 0.47594-0.31371 0.70898-0.44726 1.2549-3.1114 0.74975-5.977 2.6172-10.199 2.4445-5.5269 7.7828-1.3718 11.426-5.2793-0.17331-0.1859-0.35084-0.34861-0.53125-0.5zm6.6719 0c-0.18174 0.15116-0.36062 0.31414-0.53516 0.5 3.6434 3.8797 8.9667-0.22334 11.408 5.2969 1.8674 4.2221 1.3514 7.0769 2.5996 10.182 0.23207 0.13288 0.4693 0.28615 0.70703 0.44531-2.1718-3.7105-1.1543-6.7606-3.3066-11.627-2.3245-5.2558-7.2609-1.7927-10.873-4.7969z" color="#000000" fill="#f4feeb" fill-opacity=".73958"/>
	</g>
</svg>
