<?xml version="1.0" encoding="UTF-8"?>
<svg id="m" width="64" height="64" version="1.1" xmlns="http://www.w3.org/2000/svg" xmlns:cc="http://creativecommons.org/ns#" xmlns:dc="http://purl.org/dc/elements/1.1/" xmlns:rdf="http://www.w3.org/1999/02/22-rdf-syntax-ns#">
	<defs id="z">
		<radialGradient id="a" cx="32.502" cy="57.073" r="32" gradientTransform="matrix(2.0323 0 0 1.9688 -33.032 -47.852)" gradientUnits="userSpaceOnUse">
			<stop id="y" style="stop-color:#3d33ff;stop-opacity:.56592" offset="0"/>
			<stop id="x" style="stop-color:#000000;stop-opacity:.15844" offset="1"/>
		</radialGradient>
		<radialGradient id="c" cx="32" cy="59.895" r="32" gradientTransform="matrix(2.0202 0 0 1.7468 -32.647 -49.571)" gradientUnits="userSpaceOnUse">
			<stop id="d" style="stop-color:#ff48fa" offset="0"/>
			<stop id="g" style="stop-color:#660eff;stop-opacity:0" offset="1"/>
		</radialGradient>
		<radialGradient id="b" cx="31.495" cy="46.713" r="20.917" gradientTransform="matrix(.84762 0 0 1.6814 5.1657 -24.338)" gradientUnits="userSpaceOnUse">
			<stop id="s" style="stop-color:#91cbd6" offset="0"/>
			<stop id="t" style="stop-color:#ffffff;stop-opacity:.9991" offset="1"/>
		</radialGradient>
	</defs>
	<metadata id="v">
		<rdf:RDF>
			<cc:Work rdf:about="">
				<dc:format>image/svg+xml</dc:format>
				<dc:type rdf:resource="http://purl.org/dc/dcmitype/StillImage"/>
				<dc:title/>
			</cc:Work>
		</rdf:RDF>
	</metadata>
	<path id="f" d="m0 2v60l2 2h60l2-2v-60h-32z" style="color:#000000;fill:#4923b8"/>
	<path id="p" d="m0 2v60l2 2h60l2-2v-60h-32z" style="color:#000000;fill:url(#a)"/>
	<path id="q" d="m2 0-2 1v1h64v-1l-2-1h-30z" style="color:#000000;fill:#f864ff"/>
	<path id="e" d="m0 1v3l2-2z" style="fill:#fa93ff"/>
	<path id="u" d="m64 4-2-2 2-1z" style="fill:#ac2bf0"/>
	<g id="i" transform="matrix(1.4844 0 0 1.4844 -3.625 -5.9239)" style="stroke-width:.67368">
		<path id="r" transform="matrix(.67368 0 0 .67368 2.4421 3.9908)" d="m0 2v40.756a43.57 43.57 0 0 0 32 14.094 43.57 43.57 0 0 0 32 -14.123v-40.727h-64z" style="fill:url(#c);stroke-width:1"/>
		<path id="k" transform="matrix(.78881 0 0 .78881 -1.242 -1.5308)" d="m28.809 15.885c-3.1335-0.0109-6.73 0.59574-10.816 2.2871 5.605 0.43642 8.01 1.2196 8.1465 1.8145-9.127-1.5686-12.434 10.571-13.051 17.125-0.03827 0.40643 0.08669 0.39504 0.06836 0.75391 0 0 3.3989-4.1602 4.5391-4.5586 0.35132-0.12277 0.74251-0.23919 1.166-0.35352-1.0135 1.0461-1.8624 1.9476-2.5 2.4414-0.22592 0.44783-0.45152 1.0193-0.72266 1.502-1.916 4.4382-2.6622 8.1943-2.6543 11.215 7.97e-4 0.30372 0.18075 1.5895 0.27344 2.334a37.211 37.211 0 0 0 3.9453 2.0215c0.21659-0.2551 0.41454-0.4956 0.48828-0.64062-0.15412 0.24903-0.27528 0.46158-0.40234 0.68164a37.211 37.211 0 0 0 14.711 3.0449 37.211 37.211 0 0 0 16.258 -3.7695c0.01572-0.01319 0.03314-0.02387 0.04883-0.03711-1.4962-1.4455-7.5801-7.6139-7.4316-12.727 0.07691-2.6486 1.5783-5.0319 6.4785-6.3867 2.3379-0.27587 4.8211-0.38252 7.4648-0.26758-0.44036-3.4127-3.7455-6.9851-8.9746-8.0859-0.89665-0.42697-6.1979-8.3568-17.035-8.3945z" style="fill-rule:evenodd;fill:url(#b);stroke-width:.85405"/>
		<path id="n" d="m28 16.225s3.5391-1.391 4 2.7459c-3.4897 0.36132-4-2.7459-4-2.7459z" style="fill-rule:evenodd;fill:#373737;stroke-width:.67368"/>
		<path id="l" d="m10.899 44.54s6.6379-18.751 25.687-19.47c0 0-16.398-2.6549-27.314 14.638-0.060527 2.4466 1.6279 4.8314 1.6279 4.8314z" style="fill-rule:evenodd;opacity:.1;stroke-width:.67368"/>
		<path id="h" d="m10.899 43.54s6.6379-18.751 25.687-19.47c0 0-16.398-2.6549-27.314 14.638-0.060527 2.4466 1.6279 4.8314 1.6279 4.8314z" style="fill-rule:evenodd;fill:#ffb039;stroke-width:.67368"/>
		<path id="j" d="m12.967 12.804s4.7511 0.27632 6.4474 1.443c0.70824-0.1457 1.3096-0.63062 1.4118-1.2911-0.60775-0.25152-6.1706-0.70455-7.8592-0.15192z" style="fill-rule:evenodd;fill:#ffb039;stroke-width:.67368"/>
		<path id="o" d="m9.0588 29.674s6.1487-7.1444 18.157-7.9979c0 0-16.548 0.7388-17.92 5.3548-0.38152 1.11-0.23716 2.6431-0.23716 2.6431z" style="fill-rule:evenodd;opacity:.1;stroke-width:.67368"/>
		<path id="w" d="m9.0588 28.674s6.1487-7.1444 18.157-7.9979c0 0-16.548 0.7388-17.92 5.3548-0.38152 1.11-0.23716 2.6431-0.23716 2.6431z" style="fill-rule:evenodd;fill:#ffb039;stroke-width:.67368"/>
	</g>
</svg>
