<svg width="64" height="64" xmlns="http://www.w3.org/2000/svg" xmlns:xlink="http://www.w3.org/1999/xlink"><defs><radialGradient id="d" cx="392.81" cy="61.16" r="554.15" gradientTransform="matrix(.17742 .02501 -.02035 .14433 -2.98 -14.116)" gradientUnits="userSpaceOnUse"><stop stop-color="#ff3751" stop-opacity="0" offset=".13"/><stop stop-color="#ff980e" offset=".28"/><stop stop-color="#ff3750" offset=".47"/><stop stop-color="#de1578" offset=".78"/><stop stop-color="#cb1a7d" offset=".86"/></radialGradient><radialGradient id="e" cx="226.56" cy="290.18" r="554.15" gradientTransform="matrix(.17742 .02501 -.02035 .14433 -2.98 -14.116)" gradientUnits="userSpaceOnUse"><stop stop-color="#980c16" offset=".3"/><stop stop-color="#99313b" stop-opacity=".741" offset=".35"/><stop stop-color="#c73d4d" stop-opacity=".341" offset=".43"/><stop stop-color="#f4344c" stop-opacity=".09" offset=".5"/><stop stop-color="#f93d55" stop-opacity="0" offset=".53"/></radialGradient><radialGradient id="f" cx="395.44" cy="-17.973" r="210.21" gradientTransform="matrix(.12281 .01732 -.0294 .2085 -2.98 -14.116)" gradientUnits="userSpaceOnUse"><stop stop-color="#fff44f" offset=".13"/><stop stop-color="#ff980e" offset=".53"/></radialGradient><radialGradient id="g" cx="206.27" cy="373.24" r="223.5" gradientTransform="scale(.9552 1.0469)" gradientUnits="userSpaceOnUse"><stop stop-color="#3a8ee6" offset=".35"/><stop stop-color="#9059ff" offset=".67"/><stop stop-color="#c139e6" offset="1"/></radialGradient><radialGradient id="h" cx="271.62" cy="200.9" r="131.86" gradientTransform="scale(.9552 1.0469)" gradientUnits="userSpaceOnUse"><stop stop-color="#9059ff" stop-opacity="0" offset=".21"/><stop stop-color="#6e008b" stop-opacity=".6" offset=".97"/></radialGradient><radialGradient id="i" cx="240.61" cy="36.807" r="170.02" gradientTransform="scale(.99823 1.0018)" gradientUnits="userSpaceOnUse"><stop stop-color="#ffe226" offset=".1"/><stop stop-color="#ff7139" offset=".79"/></radialGradient><radialGradient id="j" cx="362.08" cy="-81.709" r="742.39" gradientTransform="matrix(.17465 .02463 -.02067 .14661 -2.98 -14.116)" gradientUnits="userSpaceOnUse"><stop stop-color="#efe65f" offset=".11"/><stop stop-color="#ed9520" offset=".46"/><stop stop-color="#f24d5b" offset=".72"/><stop stop-color="#ea0e88" offset=".9"/></radialGradient><radialGradient id="k" cx="475.59" cy="-41.588" r="779.91" gradientTransform="matrix(.11012 .01553 -.03279 .23253 -2.98 -14.116)" gradientUnits="userSpaceOnUse"><stop stop-color="#fff44f" offset="0"/><stop stop-color="#ff980e" offset=".3"/><stop stop-color="#ff3647" offset=".57"/><stop stop-color="#e31587" offset=".74"/></radialGradient><radialGradient id="l" cx="239.8" cy="99.006" r="461.11" gradientTransform="scale(1.0089 .99118)" gradientUnits="userSpaceOnUse"><stop stop-color="#fff44f" offset=".14"/><stop stop-color="#ff980e" offset=".48"/><stop stop-color="#ff3647" offset=".66"/><stop stop-color="#e31587" offset=".9"/></radialGradient><radialGradient id="m" cx="343.04" cy="132.01" r="528.89" gradientTransform="scale(1.0573 .94584)" gradientUnits="userSpaceOnUse"><stop stop-color="#fff44f" offset=".09"/><stop stop-color="#ff980e" offset=".63"/></radialGradient><radialGradient id="H" cx="32.519" cy="1.45" r="31.76" gradientTransform="matrix(0 .02013 -1.1971 0 34.255 1.303)" gradientUnits="userSpaceOnUse"><stop stop-color="#fffeff" offset="0"/><stop stop-color="#fffffe" stop-opacity="0" offset="1"/></radialGradient><radialGradient id="G" cx="28.444" cy="-1.667" r="31.76" gradientTransform="matrix(0 .99123 -5.0671 -.00045 23.674 -26.198)" gradientUnits="userSpaceOnUse" xlink:href="#a"/><radialGradient id="F" cx="28.444" cy="-1.681" r="32" gradientTransform="matrix(0 .98378 -5.029 -.00044 23.665 -25.986)" gradientUnits="userSpaceOnUse" xlink:href="#a"/><radialGradient id="E" cx="28.444" cy="-1.678" r="31.971" gradientTransform="matrix(0 .98467 -5.0336 -.00044 23.674 -26.011)" gradientUnits="userSpaceOnUse" xlink:href="#a"/><radialGradient id="D" cx="28.444" cy="-1.675" r="31.944" gradientTransform="matrix(0 .98549 -5.0378 -.00044 23.682 -26.035)" gradientUnits="userSpaceOnUse" xlink:href="#a"/><radialGradient id="C" cx="28.444" cy="-1.672" r="31.92" gradientTransform="matrix(0 .98626 -5.0417 -.00044 23.69 -26.057)" gradientUnits="userSpaceOnUse" xlink:href="#a"/><radialGradient id="B" cx="28.444" cy="-1.678" r="31.897" gradientTransform="matrix(0 .98697 -5.0454 -.00044 23.654 -26.077)" gradientUnits="userSpaceOnUse" xlink:href="#a"/><radialGradient id="A" cx="28.444" cy="-1.675" r="31.875" gradientTransform="matrix(0 .98763 -5.0487 -.00044 23.661 -26.096)" gradientUnits="userSpaceOnUse" xlink:href="#a"/><radialGradient id="z" cx="28.444" cy="-1.678" r="31.856" gradientTransform="matrix(0 .98823 -5.0518 -.00044 23.643 -26.113)" gradientUnits="userSpaceOnUse" xlink:href="#a"/><radialGradient id="y" cx="28.444" cy="-1.676" r="31.839" gradientTransform="matrix(0 .98877 -5.0545 -.00044 23.649 -26.128)" gradientUnits="userSpaceOnUse" xlink:href="#a"/><radialGradient id="x" cx="28.444" cy="-1.674" r="31.823" gradientTransform="matrix(0 .98926 -5.057 -.00044 23.654 -26.142)" gradientUnits="userSpaceOnUse" xlink:href="#a"/><radialGradient id="w" cx="28.444" cy="-1.673" r="31.809" gradientTransform="matrix(0 .98969 -5.0592 -.00044 23.658 -26.154)" gradientUnits="userSpaceOnUse" xlink:href="#a"/><radialGradient id="v" cx="28.444" cy="-1.671" r="31.797" gradientTransform="matrix(0 .99006 -5.0612 -.00045 23.662 -26.165)" gradientUnits="userSpaceOnUse" xlink:href="#a"/><radialGradient id="u" cx="28.444" cy="-1.67" r="31.787" gradientTransform="matrix(0 .99038 -5.0628 -.00045 23.665 -26.174)" gradientUnits="userSpaceOnUse" xlink:href="#a"/><radialGradient id="t" cx="28.444" cy="-1.669" r="31.778" gradientTransform="matrix(0 .99065 -5.0642 -.00045 23.668 -26.182)" gradientUnits="userSpaceOnUse" xlink:href="#a"/><radialGradient id="s" cx="28.444" cy="-1.668" r="31.771" gradientTransform="matrix(0 .99087 -5.0653 -.00045 23.67 -26.188)" gradientUnits="userSpaceOnUse" xlink:href="#a"/><radialGradient id="r" cx="28.444" cy="-1.667" r="31.766" gradientTransform="matrix(0 .99103 -5.0661 -.00045 23.672 -26.192)" gradientUnits="userSpaceOnUse" xlink:href="#a"/><radialGradient id="q" cx="28.444" cy="-1.667" r="31.762" gradientTransform="matrix(0 .99114 -5.0667 -.00045 23.673 -26.196)" gradientUnits="userSpaceOnUse" xlink:href="#a"/><radialGradient id="p" cx="28.444" cy="-1.667" r="31.76" gradientTransform="matrix(0 .99121 -5.067 -.00045 23.674 -26.197)" gradientUnits="userSpaceOnUse" xlink:href="#a"/><radialGradient id="b" cx="32" cy="32" r="32" gradientTransform="translate(-3 -3) scale(1.0938)" gradientUnits="userSpaceOnUse"><stop stop-color="#cbd8f2" offset="0"/><stop stop-color="#afb4d1" offset="1"/></radialGradient><linearGradient id="c" x1="441.98" x2="62.126" y1="75.631" y2="454.27" gradientTransform="scale(.98374 1.0165)" gradientUnits="userSpaceOnUse"><stop stop-color="#fff44f" offset=".05"/><stop stop-color="#ff980e" offset=".37"/><stop stop-color="#ff3647" offset=".53"/><stop stop-color="#e31587" offset=".7"/></linearGradient><linearGradient id="n" x1="406.61" x2="104.09" y1="68.312" y2="409.87" gradientTransform="matrix(.15742 .0222 -.02294 .16267 -2.784 -14.01)" gradientUnits="userSpaceOnUse"><stop stop-color="#f3ea5b" stop-opacity=".8" offset=".17"/><stop stop-color="#e3db6b" stop-opacity="0" offset=".6"/></linearGradient><linearGradient id="o" x1="46.383" x2="46.383" y1="1.709" y2="3.337" gradientUnits="userSpaceOnUse"><stop stop-color="#fffb72" offset="0"/><stop stop-color="#fffb72" stop-opacity="0" offset="1"/></linearGradient><linearGradient id="a"><stop stop-color="#fff" stop-opacity=".078" offset="0"/><stop stop-color="#fff" stop-opacity="0" offset="1"/></linearGradient></defs><rect width="64" height="64" rx="1" ry="1" fill="url(#b)" paint-order="fill markers stroke"/><path d="M278.95 48.883c-21.073 30.763-29.589 64.135-30.77 84.662a120.264 120.264 0 0 0-66.148 25.487 71.412 71.412 0 0 0-6.228-4.7 111.353 111.353 0 0 1-.666-58.736c-24.688 11.241-43.9 29.011-57.86 44.701l-.11.003c-9.527-12.067-8.846-51.875-8.303-60.186-.114-.515-7.113 3.632-8.029 4.257a175.074 175.074 0 0 0-23.49 20.119 210.496 210.496 0 0 0-22.435 26.915c-5.568 7.89-9.85 16.523-14.222 25.086l44.195 313.45a6.174 6.174 0 0 0 6.991 5.263l379.9-53.563a6.174 6.174 0 0 0 5.264-6.99l-37.62-266.82c-24.365-41.686-56.233-69.168-85.13-109.58zm151.55 56.65c1.88 3.687 2.82 7.17 4.482 10.841l-1.188-8.425c-1.079-.683-2.247-1.876-3.294-2.416zm-228.79 248.92c1.124.537 2.19 1.125 3.344 1.64.048.033.111.07.16.1a126.728 126.728 0 0 1-3.504-1.74z" fill="url(#c)" transform="scale(.1616) rotate(8.026 613.369 -175.126)"/><g stroke-width=".162"><path d="M63.527 12.484c.218.632.29 1.21.473 1.836v-1.375c-.158-.134-.318-.35-.473-.461zM64 44.242c-.92 2.386-1.95 4.586-3.078 6.324-3.687 5.675-9.999 11.04-18.428 13.434H63c.554 0 1-.446 1-1zM0 47.08V63c0 .554.446 1 1 1h22.602C13.754 61.51 5.3 55.344 0 47.08z" fill="url(#d)"/><path d="M63.527 12.484c.218.632.29 1.21.473 1.836v-1.375c-.158-.134-.318-.35-.473-.461zM64 44.242c-.92 2.386-1.95 4.586-3.078 6.324-3.687 5.675-9.999 11.04-18.428 13.434H63c.554 0 1-.446 1-1zM0 47.08V63c0 .554.446 1 1 1h22.602C13.754 61.51 5.3 55.344 0 47.08z" fill="url(#e)"/><path d="M40.551 0c-4.064 4.447-6.178 9.596-6.83 12.854.452.032.905.057 1.361.121 5.725.807 10.48 4.052 13.477 8.525a21.123 21.123 0 0 0-.713-1.261C42.028 12.51 42.972 5.083 45.171 0zm8.008 21.5a21.123 21.123 0 0 1 1.48 2.625 19.9 19.9 0 0 0-1.48-2.625zm1.48 2.625c.167.356.36.698.506 1.065.076.07.142.14.213.21a21.123 21.123 0 0 0-.719-1.275z" fill="url(#f)"/></g><path d="M256.77 209.51c-.393 5.978-21.514 26.593-28.9 26.593-68.339 0-79.432 41.335-79.432 41.335 3.027 34.81 27.261 63.475 56.611 78.643 1.339.692 2.694 1.317 4.05 1.935a132.77 132.77 0 0 0 7.059 2.886 106.74 106.74 0 0 0 31.271 6.031c119.78 5.618 142.99-143.19 56.545-186.41 22.137-3.85 45.115 5.053 57.947 14.067-21.012-36.714-60.25-61.484-105.3-61.484-2.85 0-5.641.235-8.442.429a120.25 120.25 0 0 0-66.142 25.488c3.664 3.1 7.8 7.244 16.514 15.828 16.302 16.067 58.13 32.705 58.219 34.657z" fill="url(#g)" transform="scale(.1616) rotate(8.026 613.369 -175.126)"/><path d="M256.77 209.51c-.393 5.978-21.514 26.593-28.9 26.593-68.339 0-79.432 41.335-79.432 41.335 3.027 34.81 27.261 63.475 56.611 78.643 1.339.692 2.694 1.317 4.05 1.935a132.77 132.77 0 0 0 7.059 2.886 106.74 106.74 0 0 0 31.271 6.031c119.78 5.618 142.99-143.19 56.545-186.41 22.137-3.85 45.115 5.053 57.947 14.067-21.012-36.714-60.25-61.484-105.3-61.484-2.85 0-5.641.235-8.442.429a120.25 120.25 0 0 0-66.142 25.488c3.664 3.1 7.8 7.244 16.514 15.828 16.302 16.067 58.13 32.705 58.219 34.657z" fill="url(#h)" transform="scale(.1616) rotate(8.026 613.369 -175.126)"/><path d="M170.83 151.04a244.04 244.04 0 0 1 4.981 3.3 111.34 111.34 0 0 1-.674-58.732c-24.688 11.241-43.89 29.01-57.85 44.7 1.155-.033 36.014-.66 53.543 10.732z" fill="url(#i)" transform="scale(.1616) rotate(8.026 613.369 -175.126)"/><path d="M12.633 1.16c-.007-.085-1.22.42-1.38.5A28.292 28.292 0 0 0 7.04 4.35a34.014 34.014 0 0 0-4.199 3.8A32.779 32.779 0 0 0 0 11.845V47.08C5.21 55.202 13.417 61.426 23.047 64h19.447c8.43-2.394 14.741-7.76 18.428-13.434 1.11-1.708 2.168-3.81 3.078-6.145V33.454c-2.262 5.4-6.515 10.026-11.77 13.24l-.029.047c-15.385 9.292-27.962 2.971-30.379.77a23.288 23.288 0 0 1-.521-.358c-7.504-4.98-9.795-12.779-8.196-18.965-6.794-.958-8.302-7.015-8.302-7.015s6.712-3.489 14.219 1.427c6.951 4.554 14.359 2.602 14.359 2.602.03-.314-6.289-3.919-8.536-6.857-1.2-1.57-1.769-2.327-2.285-2.907a11.531 11.531 0 0 0-.89-.892 45.722 45.722 0 0 0-.723-.64c-2.548-2.22-8.139-2.905-8.324-2.927l-.02-.002c-1.252-2.145-.245-8.5.03-9.818z" fill="url(#j)"/><path d="M45.246 0c-2.222 5.084-3.249 12.471 2.6 20.238a21.123 21.123 0 0 1 2.912 5.16c.189.19.365.376.511.555 7.586 9.262 1.416 19.98.961 20.742 5.254-3.214 9.508-7.84 11.77-13.24v-14C61.026 12.196 56.471 7.18 52.748 0z" fill="url(#k)"/><path d="M367.02 198.65c-1.049-.967-2.285-1.958-3.608-2.952-.489-.368-.969-.734-1.493-1.1-12.832-9.014-35.81-17.917-57.947-14.067 86.441 43.214 63.235 192.03-56.545 186.41a106.74 106.74 0 0 1-31.271-6.031 134.51 134.51 0 0 1-7.059-2.886c-1.356-.618-2.711-1.243-4.05-1.935.048.033.114.07.163.1 16.71 11.4 99.239 39.257 185.48-30.966l.133-.313c2.129-5.054 30.675-76.057-23.807-126.26z" fill="url(#l)" transform="scale(.1616) rotate(8.026 613.369 -175.126)"/><path d="M148.44 277.44s11.093-41.335 79.432-41.335c7.388 0 28.509-20.615 28.9-26.593s-43.7 18.352-90.233-3.541c-50.239-23.638-88.358 3.541-88.358 3.541s14.477 35.809 56.934 35.809c-4.453 39.286 16.319 85.1 66.6 109.12 1.124.537 2.18 1.124 3.334 1.639-29.348-15.169-53.582-43.834-56.609-78.644z" fill="url(#m)" transform="scale(.1616) rotate(8.026 613.369 -175.126)"/><path d="M40.861 0c-4.132 4.472-6.288 9.674-6.945 12.959.452.032.905.059 1.361.123 7.21 1.017 12.929 5.864 15.463 12.213-1.85-1.732-5.328-3.675-8.957-3.559 12.857 8.866 5.787 32.156-13.254 28.555a17.247 17.247 0 0 1-4.867-1.671 21.77 21.77 0 0 1-1.065-.622 14.68 14.68 0 0 1-.605-.4l.025.02a23.34 23.34 0 0 1-.521-.358c.167.111.323.23.496.338-4.355-3.09-7.584-8.223-7.283-13.86 0 0 2.707-6.365 13.643-4.823 1.182.166 5.027-2.656 5.224-3.604.03-.314-6.288-3.92-8.535-6.86-1.2-1.57-1.769-2.326-2.285-2.905-.28-.314-.578-.612-.89-.893a17.995 17.995 0 0 1 1.216-9.414c-4.204 1.242-7.678 3.652-10.266 5.848l-.018-.002c-1.252-2.146-.247-8.501.028-9.819-.007-.085-1.218.42-1.38.5a28.3 28.3 0 0 0-4.212 2.69 34.013 34.013 0 0 0-4.197 3.8C1.894 9.473.94 10.837 0 12.207V63c0 .554.446 1 1 1h62c.554 0 1-.446 1-1V19.103C61.023 12.096 56.63 7.025 52.988 0zm22.861 12.59c.128.37.162.708.277 1.076v-.806c-.091-.073-.186-.206-.277-.27z" fill="url(#n)"/><path d="M40.555 0a29.85 29.85 0 0 0-4.287 6.11H56.43C55.208 4.176 53.993 2.191 52.85 0H40.555z" fill="url(#o)"/><path d="M.242.24C.241.24.24.81.24 1.844v61.91c0 .002.511.004 1.442.004l1.605.002H63.75c.005 0 .007-1.051.007-2.884.002-.482.003-1.018.003-1.605V.253c0-.007-1.614-.01-4.326-.01C58.936.24 58.4.24 57.83.24H.257m.028 1.603h63.43c.001 0 .002.966.002 2.656v58.858c0 .001-.511.002-1.44.002h-2.595a21260000 21260000 0 0 1-59.4-.002v-1.366L.284 3.288V1.843" fill="url(#p)" paint-order="fill markers stroke"/><path d="M.249.238c-.006 0-.011.57-.011 1.599v61.899c0 .01.507.015 1.43.015.438.007.976.012 1.6.012h60.451c.02 0 .032-1.043.032-2.86.006-.477.011-1.013.011-1.6V.298c0-.03-1.6-.048-4.29-.048-.493-.006-1.028-.01-1.598-.01H.311M.303 1.86h63.393c.006 0 .01.961.01 2.641v58.847c0 .006-.51.01-1.435.01H.529a1.436 1.436 0 0 1-.236-.01V61.5c0-7.697.005-49.867.01-58.206V1.859" fill="url(#q)" paint-order="fill markers stroke"/><path d="M.26.234c-.014 0-.026.568-.026 1.59v61.879c0 .024.5.037 1.408.037.432.015.969.026 1.59.026h60.434c.047 0 .074-1.027.074-2.816.015-.47.026-1.005.026-1.59V.372c0-.07-1.576-.111-4.224-.111a52.964 52.964 0 0 0-1.59-.026H.408M.337 1.887h63.327c.013 0 .308.977.024 2.614v58.828c0 .013-.51.023-1.428.023H.556c-.159-.003-.243-.012-.243-.023v-2.695c0-7.587.01-49.124.024-57.336V1.887" fill="url(#r)" paint-order="fill markers stroke"/><path d="M.277.229C.25.229.229.794.229 1.806v61.85c0 .043.488.067 1.377.067.422.027.956.048 1.577.048h60.405c.086 0 .136-1.004.136-2.753.026-.46.048-.992.048-1.577V.48c0-.128-1.541-.203-4.13-.203a28.16 28.16 0 0 0-1.577-.048H.548M.385 1.926h63.232c.024 0 .243.952.044 2.576v58.8c0 .023-.507.042-1.417.042H57.13L.594 63.343c-.164-.005-.253-.021-.253-.041v-3.92c0-7.428.02-48.047.044-56.076v-1.38" fill="url(#s)" paint-order="fill markers stroke"/><path d="M.298.222c-.042 0-.076.562-.076 1.56v61.811c0 .07.473.109 1.335.109.41.042.942.076 1.56.076h60.369c.137 0 .216-.974.216-2.67.043-.446.077-.976.077-1.56V.623c0-.204-1.495-.325-4.006-.325a17.01 17.01 0 0 0-1.56-.076H.733M.447 1.978h63.107c.039 0 .212.93.07 2.525v58.764c0 .038-.503.068-1.401.068h-6.707c-10.774 0-51.599 0-54.872-.002-.171-.007-.267-.034-.267-.066v-5.533c0-7.22.032-46.63.07-54.417V1.978" fill="url(#t)" paint-order="fill markers stroke"/><path d="M.326.213C.263.213.213.771.213 1.751v61.764c0 .103.455.159 1.284.159.394.062.922.112 1.539.112h60.32c.202 0 .318-.936.318-2.567.062-.429.113-.956.113-1.538V.8c0-.298-1.437-.476-3.851-.476a11.11 11.11 0 0 0-1.538-.112H.96M.524 2.044h62.951c.057 0 .103.904.103 2.461v58.72c0 .055-.5.099-1.382.099h-8.693c-10.361 0-49.65-.001-52.798-.003-.18-.01-.284-.05-.284-.097v-7.546c0-6.96.046-44.86.104-52.347V2.045" fill="url(#u)" paint-order="fill markers stroke"/><path d="M.358.203C.272.203.203.755.203 1.715v61.707c0 .142.433.22 1.222.22.375.085.899.155 1.512.155h60.266c.28 0 .44-.891.44-2.444.085-.408.155-.93.155-1.512V1.016c0-.413-1.368-.658-3.665-.658A7.648 7.648 0 0 0 58.62.203H1.236M.62 2.123h62.763c.079 0 .218.88.142 2.385v58.664c0 .076-.495.137-1.36.137h-11.08c-9.863 0-47.304-.001-50.304-.004-.191-.015-.303-.069-.303-.133v-9.965c0-6.647.063-42.735.142-49.86V2.122" fill="url(#v)" paint-order="fill markers stroke"/><path d="M.396.19C.282.19.191.738.191 1.673v61.641c0 .188.407.291 1.149.291a5 5 0 0 0 1.482.205h60.2c.37 0 .581-.838.581-2.297.114-.384.206-.903.206-1.482V1.269c0-.547-1.286-.872-3.447-.872A5.47 5.47 0 0 0 58.88.192H1.558m-.83 2.024H63.27c.105 0 .19.85.19 2.296v58.6c0 .1-.491.182-1.335.182H48.253c-9.282 0-44.56-.002-47.388-.006-.203-.02-.327-.09-.327-.176V50.316c0-6.281.085-40.247.19-46.949V2.215" fill="url(#w)" paint-order="fill markers stroke"/><path d="M.44.177C.294.177.177.715.177 1.624v61.564c0 .24.378.372 1.066.372.327.146.841.263 1.447.263h60.126c.473 0 .744-.777.744-2.131.146-.356.263-.87.263-1.447V1.555c0-.699-1.192-1.116-3.197-1.116A4.032 4.032 0 0 0 59.18.176H1.93M.854 2.321h62.29c.135 0 .243.817.243 2.193v58.528c0 .13-.485.233-1.304.233H45.006c-8.615 0-41.413-.002-44.04-.007-.218-.025-.354-.116-.354-.226V46.997c0-5.86.108-37.392.242-43.608V2.321" fill="url(#x)" paint-order="fill markers stroke"/><path d="M.49.161c-.182 0-.33.53-.33 1.407v61.479c0 .3.345.464.972.464.298.182.806.328 1.408.328h60.04c.59 0 .93-.708.93-1.943.181-.324.327-.832.327-1.407V1.883c0-.873-1.087-1.393-2.914-1.393-.335-.182-.842-.328-1.407-.328H2.347m-1.35 2.28h62.006c.168 0 .336.78.302 2.077v58.444c0 .161-.478.29-1.27.29h-20.7c-7.86 0-37.855-.002-40.256-.008-.234-.031-.384-.145-.384-.282V43.247c0-5.386.135-34.166.302-39.832v-.973" fill="url(#y)" paint-order="fill markers stroke"/><path d="M.545.144C.323.144.144.665.144 1.507v61.38c0 .367.307.568.866.568.266.222.768.401 1.364.401H62.32c.72 0 1.134-.632 1.134-1.733.222-.289.401-.79.401-1.363V2.246c0-1.066-.97-1.701-2.599-1.701-.299-.222-.799-.401-1.363-.401H2.814m-1.658 2.43h61.688c.204 0 .369.739.369 1.95v58.352c0 .196-.471.354-1.233.354H37.236c-7.017 0-33.883-.003-36.03-.01-.253-.039-.418-.178-.418-.344V39.06c0-4.857.164-30.564.368-35.617v-.869" fill="url(#z)" paint-order="fill markers stroke"/><path d="M.606.125c-.267 0-.481.51-.481 1.314v61.274c0 .44.266.68.75.68.23.268.724.482 1.315.482h59.843c.865 0 1.361-.547 1.361-1.5.267-.25.482-.744.482-1.315V2.648c0-1.28-.84-2.042-2.25-2.042-.26-.267-.752-.481-1.315-.481H3.33M1.331 2.722h61.336c.246 0 .463.692.443 1.806v58.25c0 .236-.463.426-1.19.426H32.706c-6.087 0-29.493-.004-31.363-.012-.272-.046-.455-.213-.455-.414V34.432c0-4.27.197-26.583.442-30.958v-.751" fill="url(#A)" paint-order="fill markers stroke"/><path d="M.673.103c-.316 0-.57.5-.57 1.261v61.157c0 .52.221.806.623.806.191.316.677.57 1.262.57h59.728c1.023 0 1.61-.455 1.61-1.246.316-.208.57-.693.57-1.261V3.089c0-1.515-.697-2.417-1.868-2.417-.215-.315-.7-.569-1.26-.569H3.893m-2.37 2.78h60.95c.29 0 .54.642.524 1.65v58.138c0 .28-.454.504-1.144.504H27.74c-5.067 0-24.681-.005-26.246-.015-.294-.054-.496-.252-.496-.489v-33.31c0-3.63.233-22.22.523-25.853v-.624" fill="url(#B)" paint-order="fill markers stroke"/><path d="M.746.08C.377.08.08.568.08 1.283v61.03c0 .608.172.942.485.942.148.368.625.665 1.203.665h59.604c1.196 0 1.882-.353 1.882-.968.369-.162.665-.639.665-1.203V3.569c0-1.77-.541-2.823-1.452-2.823-.167-.368-.643-.665-1.203-.665H4.51m-2.776 2.98h60.532c.339 0 .624.586.612 1.48v58.015c0 .327-.444.589-1.095.589H22.338a10357 10357 0 0 1-20.676-.017c-.318-.064-.54-.295-.54-.572V23.841c0-2.93.272-17.47.611-20.295v-.485" fill="url(#C)" paint-order="fill markers stroke"/><path d="M.824.056C.398.056.056.53.056 1.196v60.892c0 .702.118 1.088.334 1.088.102.426.57.768 1.14.768H61c1.382 0 2.176-.243 2.176-.668.426-.112.769-.579.769-1.14V4.088c0-2.046-.374-3.264-1.003-3.264-.115-.426-.582-.768-1.14-.768H5.176M1.961 3.25h60.08c.391 0 .715.527.707 1.295V62.43c0 .377-.434.68-1.041.68H16.494c-2.755 0-12.78-.006-13.652-.02-.344-.073-1.589-.34-1.589-.66V17.87c0-2.176.315-12.335.707-14.285V3.25" fill="url(#D)" paint-order="fill markers stroke"/><path d="M.91.029C.42.029.028.489.028 1.1v60.744c0 .804.061 1.246.173 1.246.053.488.51.88 1.072.88H60.6c1.583 0 2.492-.125 2.492-.345.488-.058.88-.515.88-1.073V4.646c0-2.343-.193-3.737-.518-3.737-.06-.488-.517-.88-1.073-.88H5.892M2.205 3.456h59.59c.45 0 .817.463.81 1.097v57.742c0 .432-.421.78-.982.78h-51.42c-1.461 0-6.682-.009-7.168-.024-.371-.084-1.64-.39-1.64-.756V11.443c0-1.361.36-6.806.81-7.814v-.174" fill="url(#E)" paint-order="fill markers stroke"/><path d="M1 0C.446 0 0 .446 0 1v62c0 .554.446 1 1 1h62c.554 0 1-.446 1-1V1c0-.554-.446-1-1-1zm1.466 3.676h59.068c.51 0 .92.394.92.885v57.59c0 .49-.41.885-.92.885H2.466c-.51 0-.92-.394-.92-.884V4.56c0-.49.41-.885.92-.885z" fill="url(#F)" paint-order="fill markers stroke"/><path d="M.24.24v63.52h63.52V.24zm.04 1.598h63.44V63.36H.28z" fill="url(#G)" paint-order="fill markers stroke"/><path d="M.24 1.279v62.48h63.52V1.28zm.04 1.278h63.44V63.36H.28z" fill="url(#H)" paint-order="fill markers stroke"/></svg>