<?xml version="1.0" encoding="UTF-8"?>
<svg width="64" height="64" version="1.1" xmlns="http://www.w3.org/2000/svg" xmlns:xlink="http://www.w3.org/1999/xlink">
	<defs>
		<radialGradient id="d" cx="392.81" cy="61.16" r="554.15" gradientTransform="matrix(.17742 .02501 -.02035 .14433 -2.98 -14.116)" gradientUnits="userSpaceOnUse">
			<stop stop-color="#ff3751" stop-opacity="0" offset=".13"/>
			<stop stop-color="#ff980e" offset=".28"/>
			<stop stop-color="#ff3750" offset=".47"/>
			<stop stop-color="#de1578" offset=".78"/>
			<stop stop-color="#cb1a7d" offset=".86"/>
		</radialGradient>
		<radialGradient id="e" cx="226.56" cy="290.18" r="554.15" gradientTransform="matrix(.17742 .02501 -.02035 .14433 -2.98 -14.116)" gradientUnits="userSpaceOnUse">
			<stop stop-color="#980c16" offset=".3"/>
			<stop stop-color="#99313b" stop-opacity=".741" offset=".35"/>
			<stop stop-color="#c73d4d" stop-opacity=".341" offset=".43"/>
			<stop stop-color="#f4344c" stop-opacity=".09" offset=".5"/>
			<stop stop-color="#f93d55" stop-opacity="0" offset=".53"/>
		</radialGradient>
		<radialGradient id="f" cx="395.44" cy="-17.973" r="210.21" gradientTransform="matrix(.12281 .01732 -.0294 .2085 -2.98 -14.116)" gradientUnits="userSpaceOnUse">
			<stop stop-color="#fff44f" offset=".13"/>
			<stop stop-color="#ff980e" offset=".53"/>
		</radialGradient>
		<radialGradient id="g" cx="206.27" cy="373.24" r="223.5" gradientTransform="scale(.9552 1.0469)" gradientUnits="userSpaceOnUse">
			<stop stop-color="#588ec8" offset=".35"/>
			<stop stop-color="#9059ff" offset=".67"/>
			<stop stop-color="#b64cd3" offset="1"/>
		</radialGradient>
		<radialGradient id="h" cx="271.62" cy="200.9" r="131.86" gradientTransform="scale(.9552 1.0469)" gradientUnits="userSpaceOnUse">
			<stop stop-color="#9059ff" stop-opacity="0" offset=".21"/>
			<stop stop-color="#662f74" stop-opacity=".6" offset=".97"/>
		</radialGradient>
		<radialGradient id="i" cx="240.61" cy="36.807" r="170.02" gradientTransform="scale(.99823 1.0018)" gradientUnits="userSpaceOnUse">
			<stop stop-color="#ffe226" offset=".1"/>
			<stop stop-color="#ff7139" offset=".79"/>
		</radialGradient>
		<radialGradient id="j" cx="362.08" cy="-81.709" r="742.39" gradientTransform="matrix(.17465 .02463 -.02067 .14661 -2.98 -14.116)" gradientUnits="userSpaceOnUse">
			<stop stop-color="#e3db5e" offset=".11"/>
			<stop stop-color="#ed9520" offset=".46"/>
			<stop stop-color="#e9535f" offset=".72"/>
			<stop stop-color="#ea0e88" offset=".9"/>
		</radialGradient>
		<radialGradient id="k" cx="475.59" cy="-41.588" r="779.91" gradientTransform="matrix(.11012 .01553 -.03279 .23253 -2.98 -14.116)" gradientUnits="userSpaceOnUse">
			<stop stop-color="#fff44f" offset="0"/>
			<stop stop-color="#ff980e" offset=".3"/>
			<stop stop-color="#ff3647" offset=".57"/>
			<stop stop-color="#e31587" offset=".74"/>
		</radialGradient>
		<radialGradient id="l" cx="239.8" cy="99.006" r="461.11" gradientTransform="scale(1.0089 .99118)" gradientUnits="userSpaceOnUse">
			<stop stop-color="#fff44f" offset=".14"/>
			<stop stop-color="#ff980e" offset=".48"/>
			<stop stop-color="#ff3647" offset=".66"/>
			<stop stop-color="#e31587" offset=".9"/>
		</radialGradient>
		<radialGradient id="m" cx="343.04" cy="132.01" r="528.89" gradientTransform="scale(1.0573 .94584)" gradientUnits="userSpaceOnUse">
			<stop stop-color="#fff44f" offset=".09"/>
			<stop stop-color="#ff980e" offset=".63"/>
		</radialGradient>
		<linearGradient id="c" x1="441.98" x2="62.126" y1="75.631" y2="454.27" gradientTransform="scale(.98374 1.0165)" gradientUnits="userSpaceOnUse">
			<stop stop-color="#fff44f" offset=".05"/>
			<stop stop-color="#ff980e" offset=".37"/>
			<stop stop-color="#ff3647" offset=".53"/>
			<stop stop-color="#e31587" offset=".7"/>
		</linearGradient>
		<linearGradient id="n" x1="406.61" x2="104.09" y1="68.312" y2="409.87" gradientTransform="matrix(.15742 .0222 -.02294 .16267 -2.784 -14.01)" gradientUnits="userSpaceOnUse">
			<stop stop-color="#f3ea5b" stop-opacity=".8" offset=".17"/>
			<stop stop-color="#e3db6b" stop-opacity="0" offset=".6"/>
		</linearGradient>
		<linearGradient id="o" x1="46.383" x2="46.383" y1="1.709" y2="3.337" gradientUnits="userSpaceOnUse">
			<stop stop-color="#fffb72" offset="0"/>
			<stop stop-color="#fffb72" stop-opacity="0" offset="1"/>
		</linearGradient>
		<radialGradient id="b-3" cx="37.338" cy="41.714" r="32" gradientTransform="matrix(1.0524 0 0 1.0195 -1.933 -.907)" gradientUnits="userSpaceOnUse">
			<stop stop-color="#b7c4e3" offset="0"/>
			<stop stop-color="#b7c4e3" offset="1"/>
		</radialGradient>
		<linearGradient id="a-7">
			<stop stop-color="#fff" stop-opacity=".07" offset="0"/>
			<stop stop-color="#fff" stop-opacity=".001" offset="1"/>
		</linearGradient>
		<radialGradient id="c-5" cx="35.574" cy="1.019" r="32" gradientTransform="matrix(0,1.1252,-5.1753,0,37.271,-39.029)" gradientUnits="userSpaceOnUse" xlink:href="#a-7"/>
		<radialGradient id="d-1" cx="35.574" cy="1.036" r="32" gradientTransform="matrix(0,1.1252,-5.1753,0,37.363,-39.029)" gradientUnits="userSpaceOnUse" xlink:href="#a-7"/>
		<radialGradient id="e-0" cx="35.574" cy="1.055" r="32" gradientTransform="matrix(0,1.1252,-5.1753,0,37.458,-39.029)" gradientUnits="userSpaceOnUse" xlink:href="#a-7"/>
		<radialGradient id="f-6" cx="35.574" cy="1.071" r="32" gradientTransform="matrix(0,1.1252,-5.1753,0,37.544,-39.029)" gradientUnits="userSpaceOnUse" xlink:href="#a-7"/>
		<radialGradient id="g-3" cx="35.574" cy="1.091" r="32" gradientTransform="matrix(0,1.1252,-5.1753,0,37.648,-39.029)" gradientUnits="userSpaceOnUse" xlink:href="#a-7"/>
		<radialGradient id="h-2" cx="35.574" cy="1.113" r="32" gradientTransform="matrix(0,1.1252,-5.1753,0,37.758,-39.029)" gradientUnits="userSpaceOnUse" xlink:href="#a-7"/>
		<radialGradient id="i-0" cx="35.574" cy="1.135" r="32" gradientTransform="matrix(0,1.1252,-5.1753,0,37.875,-39.029)" gradientUnits="userSpaceOnUse" xlink:href="#a-7"/>
		<radialGradient id="j-61" cx="35.574" cy="1.159" r="32" gradientTransform="matrix(0,1.1252,-5.1753,0,38,-39.029)" gradientUnits="userSpaceOnUse" xlink:href="#a-7"/>
		<radialGradient id="k-5" cx="35.574" cy="1.18" r="32" gradientTransform="matrix(0,1.1252,-5.1753,0,38.107,-39.029)" gradientUnits="userSpaceOnUse" xlink:href="#a-7"/>
		<radialGradient id="l-5" cx="35.574" cy="1.208" r="32" gradientTransform="matrix(0,1.1252,-5.1753,0,38.252,-39.029)" gradientUnits="userSpaceOnUse" xlink:href="#a-7"/>
		<radialGradient id="m-4" cx="35.574" cy="1.239" r="32" gradientTransform="matrix(0,1.1252,-5.1753,0,38.411,-39.029)" gradientUnits="userSpaceOnUse" xlink:href="#a-7"/>
		<radialGradient id="n-7" cx="35.574" cy="1.273" r="32" gradientTransform="matrix(0,1.1252,-5.1753,0,38.587,-39.029)" gradientUnits="userSpaceOnUse" xlink:href="#a-7"/>
		<radialGradient id="o-6" cx="35.574" cy="1.304" r="32" gradientTransform="matrix(0,1.1252,-5.1753,0,38.75,-39.029)" gradientUnits="userSpaceOnUse" xlink:href="#a-7"/>
		<radialGradient id="p-5" cx="35.574" cy="1.346" r="32" gradientTransform="matrix(0,1.1252,-5.1753,0,38.966,-39.029)" gradientUnits="userSpaceOnUse" xlink:href="#a-7"/>
		<radialGradient id="q-6" cx="35.574" cy="1.393" r="32" gradientTransform="matrix(0,1.1252,-5.1753,0,39.208,-39.029)" gradientUnits="userSpaceOnUse" xlink:href="#a-7"/>
		<radialGradient id="r-9" cx="35.574" cy="1.439" r="32" gradientTransform="matrix(0,1.1252,-5.1753,0,39.446,-39.029)" gradientUnits="userSpaceOnUse" xlink:href="#a-7"/>
		<radialGradient id="s-3" cx="36.463" cy="1.498" r="32" gradientTransform="matrix(0 .02541 -1.2755 0 33.91 1.073)" gradientUnits="userSpaceOnUse">
			<stop stop-color="#fff" stop-opacity=".667" offset="0"/>
			<stop stop-color="#fff" stop-opacity=".001" offset="1"/>
		</radialGradient>
	</defs>
	<rect width="64" height="64" rx="1" ry="1" fill="url(#b-3)" paint-order="fill markers stroke"/>
	<path d="m1 0c-0.554 0-1 0.446-1 1v62-0.224 0.224-61h1.752c19.15 2e-3 39.445 0 60.213 0h2.035v61-0.334 0.334-62a0.998 0.998 0 0 0-1-1z" fill="url(#c-5)"/>
	<path d="m1 0a0.998 0.998 0 0 0-1 1.006v61.98-0.197c0-0.277 4e-3 -0.184 0.01 0.246 0.012 0.016 0.03-0.297 0.052-0.897v-60c0.072-9e-3 0.133-0.013 0.185-0.013 0.29-0.016 0.357-0.032 0.774-0.044 0.246-0.011 0.496-0.019 0.747-0.019 19.183 2e-3 39.392 0 60.2 0 0.346 0 0.689 0.012 1.023 0.03 0.268 0.01 0.389 0.02 0.52 0.033 0.106 0 0.22 0.01 0.427 0.028v59.744c0.027 0.754 0.05 1.148 0.059 1.123l3e-3 -0.334v0.286-61.762c0-0.143 0-0.22-2e-3 -0.224a0.996 0.996 0 0 0-1.012-0.986h-61.986" fill="url(#d-1)"/>
	<path d="m1 0a0.998 0.998 0 0 0-1 1.006v61.966-0.169c0-0.245 8e-3 -0.145 0.021 0.266 0.022 0.034 0.06-0.247 0.104-0.807v-59.988a0.744 0.744 0 0 1 0.173-0.025c0.27-0.031 0.341-0.064 0.743-0.088 0.242-0.022 0.492-0.037 0.742-0.037 19.217 2e-3 39.34 0 60.187 0 0.347 0 0.69 0.024 1.013 0.06 0.256 0.02 0.372 0.042 0.494 0.065 0.1 0 0.206 0.02 0.398 0.057v59.731c0.055 0.703 0.102 1.052 0.119 1.003 4e-3 -0.154 6e-3 -0.265 6e-3 -0.333v0.237-61.748c0-0.139 0-0.215-3e-3 -0.224a0.994 0.994 0 0 0-0.807-0.952 1.025 1.025 0 0 0-0.217-0.02h-61.973" fill="url(#e-0)"/>
	<path d="m1 0a0.998 0.998 0 0 0-1 1.005v61.953-0.14c0-0.213 0.012-0.107 0.031 0.287 0.034 0.05 0.091-0.198 0.156-0.718v-59.974a0.45 0.45 0 0 1 0.16-0.037c0.252-0.048 0.327-0.097 0.715-0.132 0.238-0.034 0.487-0.056 0.737-0.056 19.25 2e-3 39.286 0 60.173 0 0.348 0 0.688 0.036 1.001 0.09 0.244 0.029 0.356 0.062 0.47 0.098 0.091 0 0.19 0.03 0.37 0.085v59.718c0.082 0.653 0.151 0.957 0.176 0.884 7e-3 -0.152 0.01-0.262 0.01-0.333v0.188-61.734c0-0.135 0-0.21-4e-3 -0.224a0.992 0.992 0 0 0-0.819-0.94 1.041 1.041 0 0 0-0.217-0.018h-61.96" fill="url(#f-6)"/>
	<path d="m1 0a0.998 0.998 0 0 0-1 1.005v61.939-0.113c0-0.18 0.015-0.068 0.042 0.308 0.045 0.067 0.121-0.149 0.208-0.629v-59.96a0.312 0.312 0 0 1 0.148-0.05c0.232-0.063 0.311-0.128 0.684-0.176 0.234-0.044 0.483-0.074 0.732-0.074 19.284 2e-3 39.234 0 60.16 0 0.35 0 0.689 0.048 0.991 0.12 0.232 0.039 0.34 0.083 0.444 0.13 0.085 0 0.176 0.04 0.341 0.114v59.704c0.11 0.603 0.203 0.862 0.236 0.764 0.01-0.148 0.014-0.259 0.014-0.333v0.14-61.721c0-0.13-2e-3 -0.206-6e-3 -0.224a0.991 0.991 0 0 0-0.83-0.927 1.066 1.066 0 0 0-0.22-0.017h-61.944" fill="url(#g-3)"/>
	<path d="m1 0a0.998 0.998 0 0 0-1 1.004v61.926-0.084c0-0.148 0.02-0.029 0.052 0.328 0.056 0.084 0.152-0.099 0.26-0.539v-59.949c0.053-0.04 0.097-0.061 0.136-0.061 0.212-0.08 0.297-0.16 0.655-0.22 0.23-0.056 0.477-0.093 0.727-0.093 19.317 2e-3 39.18 0 60.147 0 0.35 0 0.688 0.06 0.98 0.151 0.22 0.047 0.322 0.102 0.418 0.162 0.078 0 0.162 0.049 0.313 0.142v59.69c0.137 0.553 0.253 0.767 0.295 0.645a4.73 4.73 0 0 0 0.017-0.332v0.09-61.705c0-0.126-2e-3 -0.202-7e-3 -0.224a0.99 0.99 0 0 0-0.843-0.914 1.099 1.099 0 0 0-0.218-0.017h-61.932" fill="url(#h-2)"/>
	<path d="m1 0a0.998 0.998 0 0 0-1 1.004v61.912-0.056c0-0.117 0.023 0.01 0.063 0.349 0.067 0.1 0.182-0.05 0.312-0.45v-59.935c0.048-0.049 0.088-0.074 0.123-0.074 0.193-0.095 0.282-0.192 0.626-0.264 0.225-0.067 0.472-0.11 0.721-0.11h60.133c0.352 0 0.688 0.071 0.97 0.18a0.944 0.944 0 0 1 0.393 0.194c0.07 0 0.147 0.059 0.284 0.17v59.68c0.164 0.502 0.304 0.671 0.354 0.524 0.014-0.14 0.02-0.25 0.02-0.331v0.042-61.695c0-0.121-2e-3 -0.197-9e-3 -0.224a0.99 0.99 0 0 0-0.854-0.902 1.142 1.142 0 0 0-0.218-0.014h-61.918" fill="url(#i-0)"/>
	<path d="m1 0a0.998 0.998 0 0 0-1 1.004v61.898-0.029c0-0.084 0.027 0.049 0.073 0.37 0.079 0.117 0.212 0 0.365-0.36v-59.923c0.043-0.057 0.079-0.086 0.11-0.086 0.174-0.112 0.267-0.225 0.596-0.309a2.19 2.19 0 0 1 0.717-0.129c19.385 2e-3 39.075 0 60.12 0 0.353 0 0.687 0.084 0.958 0.211 0.196 0.066 0.29 0.144 0.368 0.227 0.063 0 0.132 0.068 0.256 0.199v59.665c0.192 0.452 0.354 0.576 0.413 0.404a3.11 3.11 0 0 0 0.024-0.33v-61.687c0-0.117-4e-3 -0.193-0.01-0.224a0.99 0.99 0 0 0-0.868-0.89 1.198 1.198 0 0 0-0.217-0.011h-61.905" fill="url(#j-61)"/>
	<path d="m1 0a0.998 0.998 0 0 0-1 1.003v61.885c0-0.052 0.03 0.087 0.084 0.39 0.09 0.135 0.242 0.05 0.416-0.27v-59.911c0.038-0.063 0.07-0.097 0.099-0.097 0.154-0.127 0.251-0.257 0.566-0.352 0.217-0.089 0.463-0.148 0.711-0.148 19.418 2e-3 39.022 0 60.107 0 0.355 0 0.687 0.096 0.947 0.242a0.723 0.723 0 0 1 0.343 0.258c0.056 0 0.118 0.079 0.227 0.227v59.651c0.22 0.402 0.406 0.482 0.473 0.285 0.018-0.132 0.027-0.243 0.027-0.33v-61.721c0-0.113-4e-3 -0.188-0.012-0.224a0.99 0.99 0 0 0-0.879-0.877 1.273 1.273 0 0 0-0.218-0.011h-61.89" fill="url(#k-5)"/>
	<path d="m1 0a0.998 0.998 0 0 0-1 1.003v61.899c0-0.02 0.035 0.126 0.094 0.41 0.101 0.152 0.273 0.1 0.468-0.18v-59.897c0.034-0.073 0.062-0.11 0.087-0.11 0.135-0.143 0.236-0.29 0.536-0.397 0.213-0.1 0.459-0.166 0.707-0.166 19.452 2e-3 38.969 0 60.093 0 0.356 0 0.687 0.108 0.936 0.272a0.678 0.678 0 0 1 0.317 0.29c0.05 0 0.103 0.089 0.2 0.256v59.64c0.246 0.352 0.455 0.386 0.531 0.165 0.02-0.128 0.03-0.239 0.03-0.33v-61.755c0-0.108-4e-3 -0.184-0.013-0.224a0.99 0.99 0 0 0-0.891-0.864 1.376 1.376 0 0 0-0.218-0.01h-61.877" fill="url(#l-5)"/>
	<path d="m1 0a0.998 0.998 0 0 0-1 1.002v61.913c0 0.013 0.039 0.165 0.105 0.432 0.112 0.168 0.303 0.148 0.52-0.092v-59.882c0.029-0.081 0.053-0.123 0.074-0.123 0.116-0.159 0.222-0.321 0.507-0.44 0.209-0.111 0.454-0.185 0.701-0.185 19.486 2e-3 38.916 0 60.08 0 0.357 0 0.687 0.12 0.925 0.302a0.66 0.66 0 0 1 0.292 0.323c0.043 0 0.089 0.098 0.171 0.284v59.626c0.275 0.302 0.507 0.29 0.591 0.046 0.022-0.125 0.034-0.236 0.034-0.33v-61.791c0-0.104-5e-3 -0.18-0.016-0.224a0.99 0.99 0 0 0-0.903-0.852 1.514 1.514 0 0 0-0.218-8e-3h-61.863" fill="url(#m-4)"/>
	<path d="m1 0a0.998 0.998 0 0 0-1 1.002v61.928c0 0.045 0.042 0.203 0.115 0.453 0.123 0.184 0.333 0.197 0.572-3e-3v-59.87c0.024-0.089 0.045-0.135 0.062-0.135 0.097-0.174 0.207-0.353 0.478-0.484 0.204-0.122 0.448-0.203 0.696-0.203 19.519 2e-3 38.863 0 60.067 0a1.4 1.4 0 0 1 0.914 0.332c0.15 0.103 0.224 0.225 0.267 0.355 0.035 0 0.073 0.108 0.142 0.313v59.612c0.302 0.251 0.557 0.196 0.65-0.074a1.7 1.7 0 0 0 0.037-0.33v-61.825c0-0.1-6e-3 -0.175-0.017-0.224a0.99 0.99 0 0 0-0.915-0.84 1.712 1.712 0 0 0-0.218-7e-3h-61.85" fill="url(#n-7)"/>
	<path d="m1 0a0.998 0.998 0 0 0-1 1.002v61.942c0 0.077 0.046 0.242 0.126 0.473 0.134 0.201 0.363 0.246 0.624 0.086v-59.856c0.02-0.097 0.035-0.147 0.05-0.147a0.981 0.981 0 0 1 0.447-0.529c0.2-0.133 0.444-0.221 0.691-0.221 19.553 2e-3 38.811 0 60.053 0 0.36 0 0.686 0.144 0.903 0.362a0.688 0.688 0 0 1 0.242 0.388c0.028 0 0.059 0.118 0.114 0.341v59.598c0.33 0.2 0.608 0.1 0.709-0.194 0.026-0.117 0.04-0.228 0.04-0.329v-61.86c0-0.095-6e-3 -0.17-0.018-0.224a0.991 0.991 0 0 0-0.927-0.827 2.015 2.015 0 0 0-0.218-5e-3h-61.836" fill="url(#o-6)"/>
	<path d="m1 0a0.998 0.998 0 0 0-1 1.001v61.956c0 0.11 0.05 0.281 0.136 0.494 0.146 0.218 0.394 0.296 0.677 0.176v-59.843c0.014-0.105 0.026-0.16 0.036-0.16a0.967 0.967 0 0 1 0.419-0.572c0.196-0.144 0.439-0.24 0.686-0.24 19.586 2e-3 38.758 0 60.04 0 0.36 0 0.685 0.156 0.892 0.392a0.73 0.73 0 0 1 0.216 0.42c0.021 0 0.044 0.128 0.086 0.37v59.585c0.356 0.15 0.658 5e-3 0.768-0.314 0.029-0.114 0.044-0.224 0.044-0.328v-61.895c0-0.09-7e-3 -0.166-0.02-0.224a0.992 0.992 0 0 0-0.94-0.814 2.524 2.524 0 0 0-0.217-5e-3h-61.823" fill="url(#p-5)"/>
	<path d="m1 0a0.998 0.998 0 0 0-1 1v61.972c0 0.142 0.054 0.32 0.147 0.515a0.643 0.643 0 0 0 0.728 0.265v-59.83c0.01-0.114 0.018-0.172 0.025-0.172a0.97 0.97 0 0 1 0.389-0.617c0.192-0.155 0.434-0.258 0.68-0.258 19.62 2e-3 38.705 0 60.027 0 0.362 0 0.686 0.168 0.882 0.422a0.794 0.794 0 0 1 0.19 0.453c0.015 0 0.03 0.137 0.057 0.398v59.572c0.385 0.1 0.71-0.09 0.828-0.434 0.03-0.11 0.047-0.22 0.047-0.328v-61.93c0-0.086-7e-3 -0.161-0.021-0.224a0.994 0.994 0 0 0-0.951-0.802 3.563 3.563 0 0 0-0.219-2e-3h-61.809" fill="url(#q-6)"/>
	<path d="m1 0a0.998 0.998 0 0 0-1 1v61.986c0 0.174 0.058 0.358 0.157 0.535a0.802 0.802 0 0 0 0.78 0.355v-59.816c5e-3 -0.122 0.01-0.185 0.013-0.185a0.987 0.987 0 0 1 0.36-0.66c0.187-0.166 0.429-0.277 0.675-0.277 19.653 2e-3 38.652 0 60.013 0 0.363 0 0.685 0.18 0.87 0.452a0.876 0.876 0 0 1 0.166 0.485c7e-3 0 0.015 0.147 0.028 0.427v59.558c0.412 0.05 0.76-0.186 0.887-0.553a1.1 1.1 0 0 0 0.05-0.328v-61.965a0.996 0.996 0 0 0-0.985-1.014 6.67 6.67 0 0 0-0.219 0h-61.795" fill="url(#r-9)"/>
	<path d="m1 0a0.998 0.998 0 0 0-1 1v62a0.997 0.997 0 0 0 1 1v-59.999c0-0.254 0.132-0.514 0.33-0.705a0.99 0.99 0 0 1 0.67-0.295c19.687 2e-3 38.599 0 60 0a1 1 0 0 1 0.86 0.483 0.98 0.98 0 0 1 0.14 0.516v60a0.998 0.998 0 0 0 1-1v-61.999a0.998 0.998 0 0 0-1-1h-62" fill="url(#s-3)"/>
	<path transform="scale(.1616) rotate(8.026 613.37 -175.13)" d="M278.95 48.883c-21.073 30.763-29.589 64.135-30.77 84.662a120.264 120.264 0 0 0-66.148 25.487 71.412 71.412 0 0 0-6.228-4.7 111.353 111.353 0 0 1-.666-58.736c-24.688 11.241-43.9 29.011-57.86 44.701l-.11.003c-9.527-12.067-8.846-51.875-8.303-60.186-.114-.515-7.113 3.632-8.029 4.257a175.074 175.074 0 0 0-23.49 20.119 210.496 210.496 0 0 0-22.435 26.915c-5.568 7.89-9.85 16.523-14.222 25.086l44.195 313.45a6.174 6.174 0 0 0 6.991 5.263l379.9-53.563a6.174 6.174 0 0 0 5.264-6.99l-37.62-266.82c-24.365-41.686-56.233-69.168-85.13-109.58zm151.55 56.65c1.88 3.687 2.82 7.17 4.482 10.841l-1.188-8.425c-1.079-.683-2.247-1.876-3.294-2.416zm-228.79 248.92c1.124.537 2.19 1.125 3.344 1.64.048.033.111.07.16.1a126.728 126.728 0 0 1-3.504-1.74z" fill="url(#c)"/>
	<g stroke-width=".162">
		<path d="M63.527 12.484c.218.632.29 1.21.473 1.836v-1.375c-.158-.134-.318-.35-.473-.461zM64 44.242c-.92 2.386-1.95 4.586-3.078 6.324-3.687 5.675-9.999 11.04-18.428 13.434H63c.554 0 1-.446 1-1zM0 47.08V63c0 .554.446 1 1 1h22.602C13.754 61.51 5.3 55.344 0 47.08z" fill="url(#d)"/>
		<path d="M63.527 12.484c.218.632.29 1.21.473 1.836v-1.375c-.158-.134-.318-.35-.473-.461zM64 44.242c-.92 2.386-1.95 4.586-3.078 6.324-3.687 5.675-9.999 11.04-18.428 13.434H63c.554 0 1-.446 1-1zM0 47.08V63c0 .554.446 1 1 1h22.602C13.754 61.51 5.3 55.344 0 47.08z" fill="url(#e)"/>
		<path d="M40.551 0c-4.064 4.447-6.178 9.596-6.83 12.854.452.032.905.057 1.361.121 5.725.807 10.48 4.052 13.477 8.525a21.123 21.123 0 0 0-.713-1.261C42.028 12.51 42.972 5.083 45.171 0zm8.008 21.5a21.123 21.123 0 0 1 1.48 2.625 19.9 19.9 0 0 0-1.48-2.625zm1.48 2.625c.167.356.36.698.506 1.065.076.07.142.14.213.21a21.123 21.123 0 0 0-.719-1.275z" fill="url(#f)"/>
	</g>
	<path transform="scale(.1616) rotate(8.026 613.37 -175.13)" d="M256.77 209.51c-.393 5.978-21.514 26.593-28.9 26.593-68.339 0-79.432 41.335-79.432 41.335 3.027 34.81 27.261 63.475 56.611 78.643 1.339.692 2.694 1.317 4.05 1.935a132.77 132.77 0 0 0 7.059 2.886 106.74 106.74 0 0 0 31.271 6.031c119.78 5.618 142.99-143.19 56.545-186.41 22.137-3.85 45.115 5.053 57.947 14.067-21.012-36.714-60.25-61.484-105.3-61.484-2.85 0-5.641.235-8.442.429a120.25 120.25 0 0 0-66.142 25.488c3.664 3.1 7.8 7.244 16.514 15.828 16.302 16.067 58.13 32.705 58.219 34.657z" fill="url(#g)"/>
	<path transform="scale(.1616) rotate(8.026 613.37 -175.13)" d="M256.77 209.51c-.393 5.978-21.514 26.593-28.9 26.593-68.339 0-79.432 41.335-79.432 41.335 3.027 34.81 27.261 63.475 56.611 78.643 1.339.692 2.694 1.317 4.05 1.935a132.77 132.77 0 0 0 7.059 2.886 106.74 106.74 0 0 0 31.271 6.031c119.78 5.618 142.99-143.19 56.545-186.41 22.137-3.85 45.115 5.053 57.947 14.067-21.012-36.714-60.25-61.484-105.3-61.484-2.85 0-5.641.235-8.442.429a120.25 120.25 0 0 0-66.142 25.488c3.664 3.1 7.8 7.244 16.514 15.828 16.302 16.067 58.13 32.705 58.219 34.657z" fill="url(#h)"/>
	<path transform="scale(.1616) rotate(8.026 613.37 -175.13)" d="M170.83 151.04a244.04 244.04 0 0 1 4.981 3.3 111.34 111.34 0 0 1-.674-58.732c-24.688 11.241-43.89 29.01-57.85 44.7 1.155-.033 36.014-.66 53.543 10.732z" fill="url(#i)"/>
	<path d="M12.633 1.16c-.007-.085-1.22.42-1.38.5A28.292 28.292 0 0 0 7.04 4.35a34.014 34.014 0 0 0-4.199 3.8A32.779 32.779 0 0 0 0 11.845V47.08C5.21 55.202 13.417 61.426 23.047 64h19.447c8.43-2.394 14.741-7.76 18.428-13.434 1.11-1.708 2.168-3.81 3.078-6.145V33.454c-2.262 5.4-6.515 10.026-11.77 13.24l-.029.047c-15.385 9.292-27.962 2.971-30.379.77a23.288 23.288 0 0 1-.521-.358c-7.504-4.98-9.795-12.779-8.196-18.965-6.794-.958-8.302-7.015-8.302-7.015s6.712-3.489 14.219 1.427c6.951 4.554 14.359 2.602 14.359 2.602.03-.314-6.289-3.919-8.536-6.857-1.2-1.57-1.769-2.327-2.285-2.907a11.531 11.531 0 0 0-.89-.892 45.722 45.722 0 0 0-.723-.64c-2.548-2.22-8.139-2.905-8.324-2.927l-.02-.002c-1.252-2.145-.245-8.5.03-9.818z" fill="url(#j)"/>
	<path d="M45.246 0c-2.222 5.084-3.249 12.471 2.6 20.238a21.123 21.123 0 0 1 2.912 5.16c.189.19.365.376.511.555 7.586 9.262 1.416 19.98.961 20.742 5.254-3.214 9.508-7.84 11.77-13.24v-14C61.026 12.196 56.471 7.18 52.748 0z" fill="url(#k)"/>
	<path transform="scale(.1616) rotate(8.026 613.37 -175.13)" d="M367.02 198.65c-1.049-.967-2.285-1.958-3.608-2.952-.489-.368-.969-.734-1.493-1.1-12.832-9.014-35.81-17.917-57.947-14.067 86.441 43.214 63.235 192.03-56.545 186.41a106.74 106.74 0 0 1-31.271-6.031 134.51 134.51 0 0 1-7.059-2.886c-1.356-.618-2.711-1.243-4.05-1.935.048.033.114.07.163.1 16.71 11.4 99.239 39.257 185.48-30.966l.133-.313c2.129-5.054 30.675-76.057-23.807-126.26z" fill="url(#l)"/>
	<path transform="scale(.1616) rotate(8.026 613.37 -175.13)" d="M148.44 277.44s11.093-41.335 79.432-41.335c7.388 0 28.509-20.615 28.9-26.593s-43.7 18.352-90.233-3.541c-50.239-23.638-88.358 3.541-88.358 3.541s14.477 35.809 56.934 35.809c-4.453 39.286 16.319 85.1 66.6 109.12 1.124.537 2.18 1.124 3.334 1.639-29.348-15.169-53.582-43.834-56.609-78.644z" fill="url(#m)"/>
	<path d="M40.861 0c-4.132 4.472-6.288 9.674-6.945 12.959.452.032.905.059 1.361.123 7.21 1.017 12.929 5.864 15.463 12.213-1.85-1.732-5.328-3.675-8.957-3.559 12.857 8.866 5.787 32.156-13.254 28.555a17.247 17.247 0 0 1-4.867-1.671 21.77 21.77 0 0 1-1.065-.622 14.68 14.68 0 0 1-.605-.4l.025.02a23.34 23.34 0 0 1-.521-.358c.167.111.323.23.496.338-4.355-3.09-7.584-8.223-7.283-13.86 0 0 2.707-6.365 13.643-4.823 1.182.166 5.027-2.656 5.224-3.604.03-.314-6.288-3.92-8.535-6.86-1.2-1.57-1.769-2.326-2.285-2.905-.28-.314-.578-.612-.89-.893a17.995 17.995 0 0 1 1.216-9.414c-4.204 1.242-7.678 3.652-10.266 5.848l-.018-.002c-1.252-2.146-.247-8.501.028-9.819-.007-.085-1.218.42-1.38.5a28.3 28.3 0 0 0-4.212 2.69 34.013 34.013 0 0 0-4.197 3.8C1.894 9.473.94 10.837 0 12.207V63c0 .554.446 1 1 1h62c.554 0 1-.446 1-1V19.103C61.023 12.096 56.63 7.025 52.988 0zm22.861 12.59c.128.37.162.708.277 1.076v-.806c-.091-.073-.186-.206-.277-.27z" fill="url(#n)"/>
	<path d="m40.555 0a29.85 29.85 0 0 0-4.287 6.11h20.162c-1.222-1.934-2.437-3.919-3.58-6.11z" fill="url(#o)"/>
</svg>
