<?xml version="1.0" encoding="UTF-8"?>
<!-- Created with Inkscape (http://www.inkscape.org/) -->
<svg width="64" height="64" version="1.1" xmlns="http://www.w3.org/2000/svg" xmlns:cc="http://creativecommons.org/ns#" xmlns:dc="http://purl.org/dc/elements/1.1/" xmlns:rdf="http://www.w3.org/1999/02/22-rdf-syntax-ns#" xmlns:xlink="http://www.w3.org/1999/xlink">
	<defs>
		<radialGradient id="a" cx="40" cy="42.53" r="32" gradientTransform="matrix(1 0 0 .9375 0 2.125)" gradientUnits="userSpaceOnUse">
			<stop stop-color="#ca5d10" offset="0"/>
			<stop stop-color="#e07d16" offset="1"/>
		</radialGradient>
	</defs>
	<metadata>
		<rdf:RDF>
			<cc:Work rdf:about="">
				<dc:format>image/svg+xml</dc:format>
				<dc:type rdf:resource="http://purl.org/dc/dcmitype/StillImage"/>
				<dc:title/>
			</cc:Work>
		</rdf:RDF>
	</metadata>
	<path d="m0 2v32 28l2 2h30 30l2-2v-28-32h-32z" color="#000000" fill="url(#a)"/>
	<path d="m2 0-2 1v1h32 32v-1l-2-1h-30z" color="#000000" fill="#fbdca6"/>
	<path d="m0 1v3l2-2z" fill="#ffefcc"/>
	<path d="m64 4-2-2 2-1z" fill="#cf945a"/>
	<path d="m33.24 20c-1.196 0.0082-2.38 0.09384-2.958 0.2289-2.312 0.5404-3.985 1.528-5.116 2.99-1.69 2.184-1.911 5.175-0.5619 7.458 0.3786 0.6404 1.552 1.848 2.313 2.359 0.8522 0.5732 2.178 1.219 3.662 1.775 1.914 0.7178 2.965 1.255 3.632 1.906 0.6729 0.6569 0.8955 1.248 0.8404 2.223-0.05171 0.9151-0.4487 1.595-1.221 2.086-0.8623 0.5479-1.579 0.7011-3.198 0.6979-1.968-4e-3 -3.646-0.3651-5.636-1.21-0.1833-0.07785-0.3594-0.1406-0.485-0.1761-1e-3 0.0035-0.0021 0.0045-0.0032 0.0081-0.0396 0.1274-0.09031 0.3095-0.1489 0.525-0.1171 0.4311-0.2628 0.9988-0.4018 1.567-0.139 0.5683-0.2722 1.137-0.3666 1.57-0.0472 0.2169-0.0841 0.4007-0.1072 0.5298-0.0068 0.03791-0.01026 0.05914-0.01441 0.08644 0.01044 0.01128-0.0087-0.01258 0.01441 0.0016 0.06922 0.04244 0.1807 0.09815 0.3217 0.1585 0.2821 0.1207 0.6807 0.2611 1.132 0.3986 0.9021 0.2749 2.024 0.5439 2.92 0.6739 1.302 0.1889 3.755 0.1907 5.007 0.0048 2.441-0.3624 4.36-1.256 5.665-2.547 1.305-1.291 2.008-2.98 2.006-5.001-0.0014-1.243-0.1971-2.128-0.6771-3.099-0.9309-1.883-2.474-3.043-6.043-4.469-2.416-0.9658-3.311-1.422-3.963-2.07-0.6774-0.6727-0.8918-1.542-0.6611-2.323 0.2307-0.7802 0.8837-1.459 1.849-1.838 0.2816-0.1103 0.5171-0.1813 0.834-0.2177 0.3169-0.03641 0.7124-0.04263 1.372-0.04322 1.719-0.0015 2.762 0.1772 4.264 0.7363 0.255 0.09493 0.4984 0.1814 0.6819 0.2433 0.0415 0.01401 0.06612 0.02073 0.1008 0.03201 0.04222-0.1126 0.09363-0.2603 0.1537-0.4514 0.1319-0.42 0.2935-0.9874 0.4466-1.559 0.1531-0.5717 0.2976-1.15 0.3954-1.588 0.04892-0.2191 0.08697-0.4031 0.1072-0.5298 0.0028-0.01769 0.0027-0.02312 0.0048-0.03841-0.06004-0.02882-0.1383-0.06313-0.2385-0.1024-0.2204-0.08647-0.519-0.1908-0.8468-0.2945-0.6557-0.2076-1.433-0.418-1.951-0.5154-0.6961-0.1307-1.927-0.1971-3.123-0.1889z" fill="#f5f0d5" style="paint-order:normal"/>
	<circle cx="32" cy="33" r="25" fill="none" opacity=".985" stroke="#f5f0d5" stroke-linecap="round" stroke-linejoin="round" stroke-width="2" style="paint-order:normal"/>
</svg>
