<?xml version="1.0" encoding="UTF-8"?>
<svg id="s" width="64" height="64" version="1.1" xmlns="http://www.w3.org/2000/svg" xmlns:cc="http://creativecommons.org/ns#" xmlns:dc="http://purl.org/dc/elements/1.1/" xmlns:rdf="http://www.w3.org/1999/02/22-rdf-syntax-ns#" xmlns:xlink="http://www.w3.org/1999/xlink">
	<defs id="l">
		<linearGradient id="a">
			<stop id="aj" stop-color="#80593b" offset="0"/>
			<stop id="ah" stop-color="#f4eedb" offset="1"/>
		</linearGradient>
		<radialGradient id="g" cx="88.516" cy="335.78" r="84.766" gradientTransform="matrix(6.5569 0 0 .23345 -491.88 255.79)" gradientUnits="userSpaceOnUse">
			<stop id="ai" stop-color="#f5f3ec" offset="0"/>
			<stop id="ag" stop-color="#e7e0cf" offset=".40563"/>
			<stop id="y" stop-color="#9c6f48" offset=".66305"/>
			<stop id="z" stop-color="#e8c0a7" offset=".88296"/>
			<stop id="x" stop-color="#ffd09a" offset="1"/>
		</radialGradient>
		<radialGradient id="f" cx="200.68" cy="365.58" r="71.328" fx="135.64" fy="405.14" gradientTransform="matrix(1.2762 .03745 -.0039389 .13422 -49.304 273.66)" gradientUnits="userSpaceOnUse" xlink:href="#a"/>
		<radialGradient id="e" cx="195.7" cy="424.52" r="71.328" fx="134.26" fy="478.61" gradientTransform="matrix(1.2172 .10115 -.019187 .23088 -35.033 236.71)" gradientUnits="userSpaceOnUse" xlink:href="#a"/>
		<radialGradient id="d" cx="124.51" cy="270.99" r="43.254" fx="91.222" fy="312.21" gradientTransform="matrix(-.54092 -.43877 .33631 -.41461 -5.7412 191.44)" gradientUnits="userSpaceOnUse">
			<stop id="i" stop-color="#f8e6c2" offset="0"/>
			<stop id="j" stop-color="#f4f4dc" stop-opacity="0" offset="1"/>
		</radialGradient>
		<radialGradient id="c" cx="20.26" cy="339.62" r="48.223" gradientTransform="matrix(1.3838 0 0 1.524 -3.126 -176.33)" gradientUnits="userSpaceOnUse">
			<stop id="k" stop-color="#d9ceae" offset="0"/>
			<stop id="m" stop-color="#e9dfce" offset="1"/>
		</radialGradient>
		<radialGradient id="radialGradient2160630" cx="31.744" cy="35.593" r="32" gradientTransform="matrix(-1.1553,0,0,1.1553,68.931,-5.529)" gradientUnits="userSpaceOnUse">
			<stop stop-color="#f3a31b" offset="0"/>
			<stop stop-color="#f3a31b" offset="1"/>
		</radialGradient>
		<radialGradient id="e-5-6-0-3-8" cx="35.574" cy="1.019" r="32" gradientTransform="matrix(0,1.1252,-5.1753,0,37.271,-38.97)" gradientUnits="userSpaceOnUse" xlink:href="#a-6-5"/>
		<linearGradient id="a-6-5">
			<stop stop-color="#ffea67" stop-opacity=".12501" offset="0"/>
			<stop stop-color="#fbff62" stop-opacity=".03" offset="1"/>
		</linearGradient>
		<radialGradient id="f-6-9-2-5-2" cx="35.574" cy="1.036" r="32" gradientTransform="matrix(0,1.1252,-5.1753,0,37.363,-38.97)" gradientUnits="userSpaceOnUse" xlink:href="#a-6-5"/>
		<radialGradient id="g-2-1-0-3-0" cx="35.574" cy="1.055" r="32" gradientTransform="matrix(0,1.1252,-5.1753,0,37.458,-38.97)" gradientUnits="userSpaceOnUse" xlink:href="#a-6-5"/>
		<radialGradient id="h-2-5-5-2" cx="35.574" cy="1.071" r="32" gradientTransform="matrix(0,1.1252,-5.1753,0,37.544,-38.97)" gradientUnits="userSpaceOnUse" xlink:href="#a-6-5"/>
		<radialGradient id="i-7-52-6-3" cx="35.574" cy="1.091" r="32" gradientTransform="matrix(0,1.1252,-5.1753,0,37.648,-38.97)" gradientUnits="userSpaceOnUse" xlink:href="#a-6-5"/>
		<radialGradient id="j-0-9-2-7" cx="35.574" cy="1.113" r="32" gradientTransform="matrix(0,1.1252,-5.1753,0,37.758,-38.97)" gradientUnits="userSpaceOnUse" xlink:href="#a-6-5"/>
		<radialGradient id="k-9-0-9-5" cx="35.574" cy="1.135" r="32" gradientTransform="matrix(0,1.1252,-5.1753,0,37.875,-38.97)" gradientUnits="userSpaceOnUse" xlink:href="#a-6-5"/>
		<radialGradient id="l-3-28-1-9" cx="35.574" cy="1.159" r="32" gradientTransform="matrix(0,1.1252,-5.1753,0,38,-38.97)" gradientUnits="userSpaceOnUse" xlink:href="#a-6-5"/>
		<radialGradient id="m-6-38-2-2" cx="35.574" cy="1.18" r="32" gradientTransform="matrix(0,1.1252,-5.1753,0,38.107,-38.97)" gradientUnits="userSpaceOnUse" xlink:href="#a-6-5"/>
		<radialGradient id="n-0-0-7-2" cx="35.574" cy="1.208" r="32" gradientTransform="matrix(0,1.1252,-5.1753,0,38.252,-38.97)" gradientUnits="userSpaceOnUse" xlink:href="#a-6-5"/>
		<radialGradient id="o-6-40-0-8" cx="35.574" cy="1.239" r="32" gradientTransform="matrix(0,1.1252,-5.1753,0,38.411,-38.97)" gradientUnits="userSpaceOnUse" xlink:href="#a-6-5"/>
		<radialGradient id="p-2-9-9-9" cx="35.574" cy="1.273" r="32" gradientTransform="matrix(0,1.1252,-5.1753,0,38.587,-38.97)" gradientUnits="userSpaceOnUse" xlink:href="#a-6-5"/>
		<radialGradient id="q-6-1-3-7" cx="35.574" cy="1.304" r="32" gradientTransform="matrix(0,1.1252,-5.1753,0,38.75,-38.97)" gradientUnits="userSpaceOnUse" xlink:href="#a-6-5"/>
		<radialGradient id="r-1-9-6-3" cx="35.574" cy="1.346" r="32" gradientTransform="matrix(0,1.1252,-5.1753,0,38.966,-38.97)" gradientUnits="userSpaceOnUse" xlink:href="#a-6-5"/>
		<radialGradient id="s-8-6-0-6" cx="35.574" cy="1.393" r="32" gradientTransform="matrix(0,1.1252,-5.1753,0,39.208,-38.97)" gradientUnits="userSpaceOnUse" xlink:href="#a-6-5"/>
		<radialGradient id="t-7-25-6-1" cx="35.574" cy="1.439" r="32" gradientTransform="matrix(0,1.1252,-5.1753,0,39.446,-38.97)" gradientUnits="userSpaceOnUse" xlink:href="#a-6-5"/>
		<radialGradient id="u-9-4-2-2" cx="16.612" cy="1.4814" r="32" gradientTransform="matrix(0 .013135 -1.2755 0 33.91 1.3359)" gradientUnits="userSpaceOnUse">
			<stop stop-color="#f4ff3b" stop-opacity=".62765" offset="0"/>
			<stop stop-color="#ffffff" stop-opacity=".0021116" offset="1"/>
		</radialGradient>
	</defs>
	<metadata id="w">
		<rdf:RDF>
			<cc:Work rdf:about="">
				<dc:format>image/svg+xml</dc:format>
				<dc:type rdf:resource="http://purl.org/dc/dcmitype/StillImage"/>
			</cc:Work>
		</rdf:RDF>
	</metadata>
	<g transform="translate(3.2081e-5)">
		<path d="m1 0c-0.554 0-1 0.446-1 1v62c0 0.554 0.446 1 1 1h62c0.554 0 1-0.446 1-1v-62c0-0.554-0.446-1-1-1z" fill="url(#radialGradient2160630)"/>
		<g transform="translate(-3.2081e-5)">
			<path d="m1.0001 0.059009c-0.554 0-1 0.446-1 1v62-0.224 0.224-62h1.752c19.15 2e-3 39.445 0 60.213 0h2.035v62-0.334 0.334-62c0.0011-0.55274-0.44726-1.0011-1-1z" fill="url(#e-5-6-0-3-8)"/>
			<path d="m1.0001 0.059009c-0.5551-0.0011303-1.0045 0.45091-1 1.006v61.98-0.197c0-0.277 4e-3 -0.184 0.01 0.246 0.012 0.016 0.03-0.297 0.052-0.897v-61c0.072-9e-3 0.133-0.013 0.185-0.013 0.29-0.016 0.357-0.032 0.774-0.044 0.246-0.011 0.496-0.019 0.747-0.019 19.183 2e-3 39.392 0 60.2 0 0.346 0 0.689 0.012 1.023 0.03 0.268 0.01 0.389 0.02 0.52 0.033 0.106 0 0.22 0.01 0.427 0.028v60.744c0.027 0.754 0.05 1.148 0.059 1.123l3e-3 -0.334v0.286-61.762c0-0.143 0-0.22-2e-3 -0.224-0.0055-0.55246-0.45958-0.9949-1.012-0.986h-61.986" fill="url(#f-6-9-2-5-2)"/>
			<path d="m1.0001 0.059009c-0.5551-0.0011303-1.0045 0.45091-1 1.006v61.966-0.169c0-0.245 8e-3 -0.145 0.021 0.266 0.022 0.034 0.06-0.247 0.104-0.807v-60.988c0.056484-0.015102 0.11455-0.023493 0.173-0.025 0.27-0.031 0.341-0.064 0.743-0.088 0.242-0.022 0.492-0.037 0.742-0.037 19.217 2e-3 39.34 0 60.187 0 0.347 0 0.69 0.024 1.013 0.06 0.256 0.02 0.372 0.042 0.494 0.065 0.1 0 0.206 0.02 0.398 0.057v60.731c0.055 0.703 0.102 1.052 0.119 1.003 4e-3 -0.154 6e-3 -0.265 6e-3 -0.333v0.237-61.748c0-0.139 0-0.215-3e-3 -0.224-0.01144-0.46771-0.34748-0.86412-0.807-0.952-0.07142-0.014359-0.14416-0.021063-0.217-0.02h-61.973" fill="url(#g-2-1-0-3-0)"/>
			<path d="m1.0001 0.059009c-0.55471-0.0011253-1.0039 0.45031-1 1.005v61.953-0.14c0-0.213 0.012-0.107 0.031 0.287 0.034 0.05 0.091-0.198 0.156-0.718v-60.974c0.050612-0.022043 0.10485-0.034585 0.16-0.037 0.252-0.048 0.327-0.097 0.715-0.132 0.238-0.034 0.487-0.056 0.737-0.056 19.25 2e-3 39.286 0 60.173 0 0.348 0 0.688 0.036 1.001 0.09 0.244 0.029 0.356 0.062 0.47 0.098 0.091 0 0.19 0.03 0.37 0.085v60.718c0.082 0.653 0.151 0.957 0.176 0.884 7e-3 -0.152 0.01-0.262 0.01-0.333v0.188-61.734c0-0.135 0-0.21-4e-3 -0.224-0.0174-0.46717-0.35861-0.85879-0.819-0.94-0.07151-0.013569-0.14424-0.019602-0.217-0.018h-61.96" fill="url(#h-2-5-5-2)"/>
			<path d="m1.0001 0.059009c-0.55471-0.0011253-1.0039 0.45031-1 1.005v61.939-0.113c0-0.18 0.015-0.068 0.042 0.308 0.045 0.067 0.121-0.149 0.208-0.629v-60.96c0.044295-0.028947 0.095225-0.046153 0.148-0.05 0.232-0.063 0.311-0.128 0.684-0.176 0.234-0.044 0.483-0.074 0.732-0.074 19.284 2e-3 39.234 0 60.16 0 0.35 0 0.689 0.048 0.991 0.12 0.232 0.039 0.34 0.083 0.444 0.13 0.085 0 0.176 0.04 0.341 0.114v60.704c0.11 0.603 0.203 0.862 0.236 0.764 0.0082-0.11082 0.01287-0.22188 0.014-0.333v0.14-61.721c0-0.13-2e-3 -0.206-6e-3 -0.224-0.02403-0.46583-0.36965-0.85184-0.83-0.927-0.07255-0.013262-0.14628-0.018959-0.22-0.017h-61.944" fill="url(#i-7-52-6-3)"/>
			<path d="m1.0001 0.059009c-0.55431-0.0011209-1.0033 0.4497-1 1.004v61.926-0.084c0-0.148 0.02-0.029 0.052 0.328 0.056 0.084 0.152-0.099 0.26-0.539v-60.949c0.053-0.04 0.097-0.061 0.136-0.061 0.212-0.08 0.297-0.16 0.655-0.22 0.23-0.056 0.477-0.093 0.727-0.093 19.317 2e-3 39.18 0 60.147 0 0.35 0 0.688 0.06 0.98 0.151 0.22 0.047 0.322 0.102 0.418 0.162 0.078 0 0.162 0.049 0.313 0.142v60.69c0.137 0.553 0.253 0.767 0.295 0.645 0.0096-0.11043 0.01523-0.22117 0.017-0.332v0.09-61.705c0-0.126-2e-3 -0.202-7e-3 -0.224-0.03077-0.46514-0.38186-0.8458-0.843-0.914-0.07192-0.0129-0.14495-0.018594-0.218-0.017h-61.932" fill="url(#j-0-9-2-7)"/>
			<path d="m1.0001 0.059009c-0.55431-0.0011209-1.0033 0.4497-1 1.004v61.912-0.056c0-0.117 0.023 0.01 0.063 0.349 0.067 0.1 0.182-0.05 0.312-0.45v-60.935c0.048-0.049 0.088-0.074 0.123-0.074 0.193-0.095 0.282-0.192 0.626-0.264 0.225-0.067 0.472-0.11 0.721-0.11h60.133c0.352 0 0.688 0.071 0.97 0.18 0.1444 0.03294 0.27903 0.099398 0.393 0.194 0.07 0 0.147 0.059 0.284 0.17v60.68c0.164 0.502 0.304 0.671 0.354 0.524 0.014-0.14 0.02-0.25 0.02-0.331v0.042-61.695c0-0.121-2e-3 -0.197-9e-3 -0.224-0.03717-0.46407-0.39266-0.83953-0.854-0.902-0.07205-0.011622-0.14505-0.01631-0.218-0.014h-61.918" fill="url(#k-9-0-9-5)"/>
			<path d="m1.0001 0.059009c-0.55431-0.0011209-1.0033 0.4497-1 1.004v61.898-0.029c0-0.084 0.027 0.049 0.073 0.37 0.079 0.117 0.212 0 0.365-0.36v-60.923c0.043-0.057 0.079-0.086 0.11-0.086 0.174-0.112 0.267-0.225 0.596-0.309 0.23012-0.082729 0.47247-0.12633 0.717-0.129 19.385 2e-3 39.075 0 60.12 0 0.353 0 0.687 0.084 0.958 0.211 0.14097 0.040924 0.26817 0.11939 0.368 0.227 0.063 0 0.132 0.068 0.256 0.199v60.665c0.192 0.452 0.354 0.576 0.413 0.404 0.01385-0.1095 0.02186-0.21965 0.024-0.33v-61.687c0-0.117-4e-3 -0.193-0.01-0.224-0.04378-0.464-0.40524-0.83463-0.868-0.89-0.07185-0.010232-0.14448-0.013914-0.217-0.011h-61.905" fill="url(#l-3-28-1-9)"/>
			<path d="m1.0001 0.059009c-0.55392-0.001117-1.0028 0.44909-1 1.003v61.885c0-0.052 0.03 0.087 0.084 0.39 0.09 0.135 0.242 0.05 0.416-0.27v-60.911c0.038-0.063 0.07-0.097 0.099-0.097 0.154-0.127 0.251-0.257 0.566-0.352 0.217-0.089 0.463-0.148 0.711-0.148 19.418 2e-3 39.022 0 60.107 0 0.355 0 0.687 0.096 0.947 0.242 0.13781 0.049299 0.25742 0.13926 0.343 0.258 0.056 0 0.118 0.079 0.227 0.227v60.651c0.22 0.402 0.406 0.482 0.473 0.285 0.018-0.132 0.027-0.243 0.027-0.33v-61.721c0-0.113-4e-3 -0.188-0.012-0.224-0.05048-0.46258-0.4163-0.82757-0.879-0.877-0.07222-0.0099014-0.14515-0.013582-0.218-0.011h-61.89" fill="url(#m-6-38-2-2)"/>
			<path d="m1.0001 0.059009c-0.55392-0.001117-1.0028 0.44909-1 1.003v61.899c0-0.02 0.035 0.126 0.094 0.41 0.101 0.152 0.273 0.1 0.468-0.18v-60.897c0.034-0.073 0.062-0.11 0.087-0.11 0.135-0.143 0.236-0.29 0.536-0.397 0.213-0.1 0.459-0.166 0.707-0.166 19.452 2e-3 38.969 0 60.093 0 0.356 0 0.687 0.108 0.936 0.272 0.13431 0.059746 0.24556 0.16152 0.317 0.29 0.05 0 0.103 0.089 0.2 0.256v60.64c0.246 0.352 0.455 0.386 0.531 0.165 0.02-0.128 0.03-0.239 0.03-0.33v-61.755c0-0.108-4e-3 -0.184-0.013-0.224-0.0572-0.46153-0.42793-0.82103-0.891-0.864-0.07229-0.0090995-0.14518-0.012443-0.218-0.01h-61.877" fill="url(#n-0-0-7-2)"/>
			<path d="m1.0001 0.059009c-0.55353-0.0011137-1.0022 0.44848-1 1.002v61.913c0 0.013 0.039 0.165 0.105 0.432 0.112 0.168 0.303 0.148 0.52-0.092v-60.882c0.029-0.081 0.053-0.123 0.074-0.123 0.116-0.159 0.222-0.321 0.507-0.44 0.21532-0.11731 0.45583-0.18078 0.701-0.185 19.486 2e-3 38.916 0 60.08 0 0.357 0 0.687 0.12 0.925 0.302 0.13107 0.071535 0.23401 0.1854 0.292 0.323 0.043 0 0.089 0.098 0.171 0.284v60.626c0.275 0.302 0.507 0.29 0.591 0.046 0.022-0.125 0.034-0.236 0.034-0.33v-61.791c0-0.104-5e-3 -0.18-0.016-0.224-0.06341-0.4609-0.4392-0.81546-0.903-0.852-0.07238-0.0079052-0.14524-0.010579-0.218-8e-3h-61.863" fill="url(#o-6-40-0-8)"/>
			<path d="m1.0001 0.059009c-0.55353-0.0011137-1.0022 0.44848-1 1.002v61.928c0 0.045 0.042 0.203 0.115 0.453 0.123 0.184 0.333 0.197 0.572-3e-3v-60.87c0.024-0.089 0.045-0.135 0.062-0.135 0.097-0.174 0.207-0.353 0.478-0.484 0.204-0.122 0.448-0.203 0.696-0.203 19.519 2e-3 38.863 0 60.067 0 0.33455-0.0021 0.65879 0.11568 0.914 0.332 0.15 0.103 0.224 0.225 0.267 0.355 0.035 0 0.073 0.108 0.142 0.313v60.612c0.302 0.251 0.557 0.196 0.65-0.074 0.02307-0.10853 0.03547-0.21906 0.037-0.33v-61.825c0-0.1-6e-3 -0.175-0.017-0.224-0.06956-0.46031-0.45044-0.80996-0.915-0.84-0.07244-0.0069646-0.14526-0.0093027-0.218-7e-3h-61.85" fill="url(#p-2-9-9-9)"/>
			<path d="m1.0001 0.059009c-0.55353-0.0011137-1.0022 0.44848-1 1.002v61.942c0 0.077 0.046 0.242 0.126 0.473 0.134 0.201 0.363 0.246 0.624 0.086v-60.856c0.02-0.097 0.035-0.147 0.05-0.147 0.079731-0.22481 0.23864-0.41288 0.447-0.529 0.2-0.133 0.444-0.221 0.691-0.221 19.553 2e-3 38.811 0 60.053 0 0.36 0 0.686 0.144 0.903 0.362 0.12254 0.097958 0.20793 0.23486 0.242 0.388 0.028 0 0.059 0.118 0.114 0.341v60.598c0.33 0.2 0.608 0.1 0.709-0.194 0.026-0.117 0.04-0.228 0.04-0.329v-61.86c0-0.095-6e-3 -0.17-0.018-0.224-0.07643-0.45917-0.46212-0.80326-0.927-0.827-0.07252-0.0056002-0.1453-0.0072693-0.218-5e-3h-61.836" fill="url(#q-6-1-3-7)"/>
			<path d="m1.0001 0.059009c-0.55314-0.001111-1.0017 0.44787-1 1.001v61.956c0 0.11 0.05 0.281 0.136 0.494 0.146 0.218 0.394 0.296 0.677 0.176v-60.843c0.014-0.105 0.026-0.16 0.036-0.16 0.062205-0.23684 0.21195-0.44126 0.419-0.572 0.196-0.144 0.439-0.24 0.686-0.24 19.586 2e-3 38.758 0 60.04 0 0.36 0 0.685 0.156 0.892 0.392 0.11655 0.1122 0.19253 0.25993 0.216 0.42 0.021 0 0.044 0.128 0.086 0.37v60.585c0.356 0.15 0.658 5e-3 0.768-0.314 0.029-0.114 0.044-0.224 0.044-0.328v-61.895c0-0.09-7e-3 -0.166-0.02-0.224-0.08329-0.45841-0.47439-0.79708-0.94-0.814-0.07223-0.0047776-0.14463-0.0064458-0.217-5e-3h-61.823" fill="url(#r-1-9-6-3)"/>
			<path d="m1.0001 0.059009c-0.55274-0.0011088-1.0011 0.44726-1 1v61.972c0 0.142 0.054 0.32 0.147 0.515 0.15624 0.24102 0.45338 0.34918 0.728 0.265v-60.83c0.01-0.114 0.018-0.172 0.025-0.172 0.044459-0.24844 0.184-0.46977 0.389-0.617 0.192-0.155 0.434-0.258 0.68-0.258 19.62 2e-3 38.705 0 60.027 0 0.362 0 0.686 0.168 0.882 0.422 0.10963 0.12712 0.17614 0.28571 0.19 0.453 0.015 0 0.03 0.137 0.057 0.398v60.572c0.385 0.1 0.71-0.09 0.828-0.434 0.03-0.11 0.047-0.22 0.047-0.328v-61.93c0-0.086-7e-3 -0.161-0.021-0.224-0.08986-0.45718-0.48521-0.79059-0.951-0.802-0.07296-0.0029106-0.146-0.0035776-0.219-2e-3h-61.809" fill="url(#s-8-6-0-6)"/>
			<path d="m0.99992 0.059009c-0.55274-0.0011088-1.0011 0.44726-1 1v61.986c0 0.174 0.058 0.358 0.157 0.535 0.16968 0.25897 0.47327 0.39714 0.78 0.355v-60.816c5e-3 -0.122 0.01-0.185 0.013-0.185 0.028233-0.25888 0.15763-0.49611 0.36-0.66 0.187-0.166 0.429-0.277 0.675-0.277 19.653 2e-3 38.652 0 60.013 0 0.363 0 0.685 0.18 0.87 0.452 0.10246 0.1415 0.16026 0.3104 0.166 0.485 7e-3 0 0.015 0.147 0.028 0.427v60.558c0.412 0.05 0.76-0.186 0.887-0.553 0.03316-0.10618 0.05001-0.21677 0.05-0.328v-61.965c0.01002-0.55281-0.43213-1.008-0.985-1.014-0.07299-0.0011985-0.146-0.0011985-0.219 0h-61.795" fill="url(#t-7-25-6-1)"/>
			<path d="m0 1v2.5l2-2z" fill="#fffeff" fill-opacity=".4499"/>
			<path d="m64 3.5-2-2 2-0.5z" fill="#fffeff" fill-opacity=".4499"/>
			<path d="m1.0001 0.058962c-0.55274-0.0011088-1.0011 0.44726-1 1v1h64v-0.998c0.0011-0.55274-0.44726-1.0011-1-1h-62z" fill="url(#u-9-4-2-2)"/>
		</g>
	</g>
	<g id="v" transform="matrix(.55751 .55751 -.55751 .55751 30.281 -5.4958)">
		<g fill="#430088" fill-opacity=".03" opacity=".52885">
			<path d="m35.246 15.628c-0.2712 0.2981-0.4319 0.6311-0.5967 0.9943l-3e-4 8e-4c-0.2195 0.4841-0.4138 1.0507-0.5963 1.7007l-2e-4 1e-3c-0.365 1.3006-0.6612 2.9435-0.9058 4.7499v7e-4c-0.4893 3.6136-0.6868 7.8806-0.2209 11.357l1e-4 7e-4c0.0551 0.4174 0.3373 0.7952 0.7291 0.9495l7e-4 3e-4c1.8725 0.7405 4.2541 1.2157 6.9378 1.5907v16.661l3e-4 2e-4c0.0141 6e-3 0.4637 0.1987 0.4637 0.1987l4e-4 2e-4c0.0174 8e-3 0.5741 0.265 0.5741 0.265v9e-4c-1e-4 0.1584-0.0221 20.439-0.0221 20.439l5e-4 4e-4c0.0377 0.0405 2.4523 2.6292 2.4523 2.6292h2.2539l5e-4 -5e-4c0.0374-0.0408 2.4302-2.6512 2.4302-2.6512v-20.418l8e-4 -4e-4c0.0301-0.014 0.9936-0.4637 0.9936-0.4637v-5e-4c2e-4 -0.0799 0.0221-10.318 0.0221-10.318l-0.0221-0.0221v-6.3198l1e-3 -1e-4c2.7019-0.376 5.099-0.8462 6.9817-1.5909l6e-4 -2e-4c0.3917-0.1546 0.6737-0.5325 0.7286-0.95l1e-4 -9e-4c0.1745-1.3023 0.2579-2.7023 0.2651-4.1534v-5e-4c0.0155-3.1425-0.2914-6.4785-0.7734-9.1698l-1e-4 -4e-4c-0.241-1.3455-0.526-2.5356-0.8396-3.4909l-2e-4 -7e-4c-0.3136-0.9551-0.5166-1.6661-1.3035-2.2753l-5e-4 -3e-4c-1.2278-0.9501-2.8219-1.0292-4.5957-1.1487h-7e-4c-1.7738-0.1195-3.6577-0.1104-5.0153-0.1104h-1e-3c-1.3577 0-3.2414-0.0091-5.015 0.1104-1.774 0.1196-3.3904 0.2207-4.6183 1.1711-0.1211 0.0938-0.219 0.1658-0.3094 0.2652zm7.8666 3.7123c0.0556-0.0674 0.137-0.1373 0.1988-0.1989 0.1798-0.1798 0.3718-0.3412 0.5967-0.464 0.225-0.1223 0.471-0.1895 0.7292-0.2431 0.0023-5e-4 0.0197-0.0216 0.0221-0.0221 0.1738-0.0356 0.3459-0.0442 0.5303-0.0442 0.0922 0 0.1754-0.0091 0.2652 0 1.3467 0.1368 2.4086 1.2909 2.4086 2.6737 0 1.475-1.1987 2.6737-2.6737 2.6737-0.7376 0-1.3949-0.2901-1.8783-0.7734-0.0619-0.0616-0.1433-0.1315-0.1989-0.1989-0.1633-0.1978-0.2964-0.4232-0.3978-0.6629-0.1351-0.3195-0.1988-0.6698-0.1988-1.0386s0.0637-0.719 0.1988-1.0386c0.1014-0.2396 0.2345-0.465 0.3978-0.6629z"/>
			<path d="m32.971 13.353c-0.2712 0.2981-0.4318 0.6312-0.5966 0.9944l-2e-4 5e-4c-0.2196 0.4842-0.414 1.0508-0.5964 1.701l-2e-4 7e-4c-0.365 1.3007-0.6612 2.9436-0.9058 4.7502l-1e-4 5e-4c-0.4892 3.6136-0.6868 7.8807-0.2209 11.358l1e-4 5e-4c0.0551 0.4175 0.3373 0.7953 0.7291 0.9497l6e-4 2e-4c1.8725 0.7405 4.2542 1.2157 6.9379 1.5908v16.661l3e-4 1e-4c0.0105 0.0045 0.4638 0.1988 0.4638 0.1988l3e-4 1e-4c0.013 6e-3 0.5742 0.265 0.5742 0.265v7e-4c-1e-4 0.1188-0.0221 20.439-0.0221 20.439l3e-4 4e-4c0.0283 0.0303 2.4525 2.6292 2.4525 2.6292h2.2539l3e-4 -3e-4c0.0281-0.0306 2.4304-2.6514 2.4304-2.6514v-20.418l5e-4 -2e-4c0.0226-0.0106 0.9939-0.4638 0.9939-0.4638v-4e-4c1e-4 -0.06 0.0221-10.319 0.0221-10.319l-0.0221-0.0221v-6.3198l7e-4 -1e-4c2.702-0.3761 5.0992-0.8462 6.982-1.5909l4e-4 -2e-4c0.3918-0.1545 0.6738-0.5325 0.7288-0.95l1e-4 -7e-4c0.1745-1.3024 0.2578-2.7025 0.265-4.1536v-4e-4c0.0156-3.1425-0.2913-6.4786-0.7734-9.1699v-4e-4c-0.241-1.3455-0.526-2.5356-0.8397-3.4909l-1e-4 -5e-4c-0.3136-0.9552-0.5165-1.6663-1.3036-2.2755l-3e-4 -3e-4c-1.2278-0.9502-2.822-1.0292-4.5959-1.1487h-4e-4c-1.7739-0.1196-3.6579-0.1105-5.0156-0.1105h-7e-4c-1.3577 0-3.2416-0.0091-5.0153 0.1105h-1e-4c-1.774 0.1196-3.3903 0.2207-4.6182 1.1711l-1e-4 1e-4c-0.121 0.0937-0.2189 0.1658-0.3092 0.2651l-1e-4 -1e-4zm1.9667 0.9281m5.8999 2.7842c0.0418-0.0505 0.1029-0.103 0.1493-0.1492 0.0139-0.0168 0.0342-0.0343 0.0496-0.0496 0.1349-0.1349 0.2789-0.256 0.4476-0.3482 0.0449-0.0449 0.0929-0.0852 0.149-0.1159 0.1688-0.0917 0.3534-0.1422 0.5471-0.1824 0.0562-0.0305 0.1176-0.0473 0.1821-0.0606 0.0018-4e-4 0.0149-0.0163 0.0167-0.0167 1e-3 -7e-4 0.0049-0.0053 0.0054-0.0054 0.1305-0.0267 0.2596-0.0332 0.3979-0.0332 0.0434-0.0089 0.0864-0.011 0.1324-0.011 0.0692 0 0.1317-0.0069 0.1991 0 0.023-1e-4 0.0437-0.0023 0.0661 0 1.0101 0.1025 1.8066 0.9681 1.8067 2.0053 0.3366 0.0343 0.6019 0.3227 0.6019 0.6684 0 1.1062-0.899 2.0053-2.0053 2.0054 0 0.3687-0.2997 0.6683-0.6684 0.6683-0.5532 0-1.0462-0.2176-1.4088-0.5801-0.1844 0-0.3487-0.0725-0.4695-0.1933-0.0464-0.0463-0.1075-0.0987-0.1492-0.1493-0.0155-0.0154-0.0358-0.0328-0.0497-0.0496-0.1225-0.1485-0.2223-0.3176-0.2984-0.4973-0.0408-0.0495-0.074-0.1058-0.0993-0.1656-0.1014-0.2397-0.1492-0.5025-0.1492-0.7791-0.0338-0.0798-0.0497-0.1674-0.0497-0.2595 0-0.2767 0.0478-0.5394 0.1492-0.7791 0-0.0922 0.0159-0.1797 0.0497-0.2595 0.076-0.1798 0.1759-0.3489 0.2984-0.4974 0.0253-0.0598 0.0586-0.1161 0.0993-0.1655z"/>
			<path d="m32.028 12.411c-0.2712 0.2981-0.4319 0.6311-0.5967 0.9943l-2e-4 5e-4c-0.2196 0.4842-0.4139 1.0508-0.5964 1.701l-2e-4 6e-4c-0.3649 1.3008-0.6611 2.9437-0.9058 4.7503v5e-4c-0.4893 3.6136-0.6869 7.8807-0.2209 11.358v4e-4c0.0551 0.4176 0.3373 0.7954 0.7292 0.9498l4e-4 2e-4c1.8725 0.7405 4.2543 1.2157 6.9381 1.5908v16.66l2e-4 1e-4c0.0091 0.0039 0.4638 0.1988 0.4638 0.1988l3e-4 1e-4c0.0112 0.0052 0.5742 0.265 0.5742 0.265v6e-4c-1e-4 0.1025-0.0221 20.439-0.0221 20.439l3e-4 4e-4c0.0244 0.0261 2.4525 2.6292 2.4525 2.6292h2.2539l3e-4 -3e-4c0.0242-0.0263 2.4304-2.6514 2.4304-2.6514v-20.418l5e-4 -2e-4c0.0195-0.0091 0.9939-0.4638 0.9939-0.4638v-3e-4c1e-4 -0.0517 0.0221-10.319 0.0221-10.319l-0.0221-0.0221v-6.3198l6e-4 -1e-4c2.7021-0.376 5.0993-0.8462 6.9821-1.5909l4e-4 -1e-4c0.3918-0.1545 0.6738-0.5325 0.7288-0.9501l1e-4 -6e-4c0.1745-1.3024 0.2579-2.7025 0.2651-4.1537v-3e-4c0.0155-3.1425-0.2914-6.4787-0.7734-9.17l-1e-4 -3e-4c-0.241-1.3456-0.526-2.5356-0.8396-3.491l-2e-4 -4e-4c-0.3136-0.9553-0.5165-1.6664-1.3035-2.2756l-3e-4 -2e-4c-1.2279-0.9502-2.8221-1.0293-4.5959-1.1488h-4e-4c-1.7739-0.1195-3.6579-0.1104-5.0156-0.1104h-7e-4c-1.3577 0-3.2416-0.0091-5.0153 0.1104h-3e-4c-1.7739 0.1196-3.3902 0.2208-4.618 1.1711l-3e-4 2e-4c-0.121 0.0937-0.2187 0.1657-0.3091 0.265zm2.7812 1.3125m5.0854 2.3998c0.036-0.0436 0.0886-0.0889 0.1286-0.1287 0.0197-0.0238 0.0484-0.0485 0.0702-0.0702 0.1163-0.1163 0.2405-0.2207 0.3859-0.3002 0.0635-0.0634 0.1313-0.1205 0.2107-0.1638 0.1456-0.0791 0.3047-0.1226 0.4717-0.1573 0.0795-0.0431 0.1663-0.0669 0.2575-0.0858 0.0016-3e-4 0.013-0.014 0.0145-0.0144 0.0014-1e-3 0.0069-0.0076 0.0076-0.0077 0.1125-0.023 0.2238-0.0286 0.3431-0.0286 0.0614-0.0126 0.1222-0.0156 0.1873-0.0156 0.0596 0 0.1135-0.0059 0.1716 0 0.0325 0 0.0619-0.0032 0.0935 0 0.8707 0.0884 1.5573 0.8345 1.5574 1.7284 0.476 0.0485 0.8512 0.4565 0.8512 0.9453 0 0.9536-0.7748 1.7285-1.7284 1.7286-1e-4 0.5214-0.4238 0.9451-0.9453 0.9451-0.4768 0-0.9018-0.1875-1.2144-0.5-0.2606 0-0.493-0.1026-0.6639-0.2734-0.04-0.0399-0.0926-0.0851-0.1286-0.1287-0.0219-0.0217-0.0506-0.0464-0.0702-0.0702-0.1056-0.128-0.1917-0.2737-0.2573-0.4287-0.0577-0.0699-0.1047-0.1496-0.1405-0.2342-0.0874-0.2066-0.1286-0.4331-0.1286-0.6716-0.0477-0.1129-0.0702-0.2367-0.0702-0.367 0-0.2385 0.0412-0.4649 0.1285-0.6716 0-0.1303 0.0226-0.2541 0.0703-0.367 0.0656-0.155 0.1517-0.3008 0.2573-0.4288 0.0358-0.0846 0.0828-0.1642 0.1405-0.2341z"/>
			<path d="m31.305 11.688c-0.2712 0.2981-0.4318 0.6312-0.5966 0.9944l-2e-4 4e-4c-0.2196 0.4842-0.4139 1.0509-0.5964 1.7011l-2e-4 5e-4c-0.3649 1.3008-0.6612 2.9438-0.9058 4.7504v4e-4c-0.4893 3.6136-0.6869 7.8807-0.221 11.358l1e-4 4e-4c0.0551 0.4175 0.3373 0.7954 0.7291 0.9498l4e-4 1e-4c1.8726 0.7406 4.2543 1.2158 6.9381 1.5909v16.661l2e-4 1e-4c8e-3 0.0034 0.4639 0.1988 0.4639 0.1988l2e-4 1e-4c0.0099 0.0045 0.5743 0.265 0.5743 0.265v5e-4c-1e-4 0.0899-0.0221 20.44-0.0221 20.44l3e-4 3e-4c0.0213 0.0229 2.4525 2.6293 2.4525 2.6293h2.2539l3e-4 -3e-4c0.0211-0.0231 2.4304-2.6514 2.4304-2.6514v-20.418l4e-4 -2e-4c0.0171-0.0079 0.994-0.4638 0.994-0.4638v-3e-4c1e-4 -0.0453 0.0221-10.319 0.0221-10.319l-0.0221-0.0221v-6.3198l5e-4 -1e-4c2.7021-0.376 5.0994-0.8462 6.9822-1.5909l3e-4 -2e-4c0.3918-0.1544 0.6739-0.5324 0.7289-0.95v-5e-4c0.1746-1.3025 0.2579-2.7026 0.2651-4.1538v-3e-4c0.0156-3.1425-0.2913-6.4787-0.7734-9.17v-3e-4c-0.241-1.3456-0.526-2.5357-0.8397-3.491l-1e-4 -4e-4c-0.3136-0.9553-0.5165-1.6664-1.3036-2.2756l-2e-4 -2e-4c-1.2279-0.9503-2.8221-1.0293-4.596-1.1488h-3e-4c-1.7739-0.1196-3.6579-0.1105-5.0157-0.1105h-5e-4c-1.3578 0-3.2417-0.0091-5.0155 0.1105h-2e-4c-1.7739 0.1196-3.3902 0.2208-4.6181 1.1711l-3e-4 2e-4c-0.1209 0.0937-0.2187 0.1657-0.309 0.265l-1e-4 -1e-4zm3.4064 1.6075m4.4602 2.1048c0.0316-0.0382 0.0778-0.0779 0.1129-0.1129 0.0241-0.0291 0.0593-0.0593 0.086-0.0859 0.102-0.102 0.2109-0.1936 0.3385-0.2634 0.0778-0.0777 0.1608-0.1475 0.2581-0.2007 0.1277-0.0693 0.2673-0.1075 0.4138-0.1379 0.0973-0.0529 0.2037-0.082 0.3154-0.1051 0.0014-3e-4 0.0114-0.0124 0.0128-0.0127 0.0017-0.0012 0.0084-0.0092 0.0093-0.0094 0.0987-0.0202 0.1963-0.0251 0.3009-0.0252 0.0752-0.0153 0.1497-0.019 0.2294-0.019 0.0524 0 0.0996-0.0052 0.1506 0 0.0399-1e-4 0.0758-4e-3 0.1146 0 0.7637 0.0775 1.3659 0.7319 1.3661 1.516 0.5829 0.0594 1.0425 0.559 1.0425 1.1577 0 0.8363-0.6796 1.5161-1.5159 1.5161-2e-4 0.6386-0.5192 1.1576-1.1578 1.1576-0.4182 0-0.791-0.1645-1.0652-0.4386-0.3192 0-0.6038-0.1256-0.8131-0.3348-0.0351-0.035-0.0813-0.0747-0.1129-0.113-0.0268-0.0266-0.0619-0.0568-0.086-0.0859-0.0926-0.1123-0.1681-0.2402-0.2257-0.3761-0.0706-0.0856-0.1282-0.1832-0.172-0.2868-0.0767-0.1813-0.1128-0.3799-0.1128-0.5891-0.0585-0.1383-0.0861-0.2899-0.0861-0.4495 0-0.2092 0.0362-0.4079 0.1128-0.5891 0-0.1596 0.0276-0.3112 0.0861-0.4495 0.0575-0.136 0.133-0.2639 0.2256-0.3762 0.0439-0.1036 0.1015-0.2011 0.1721-0.2867z"/>
			<path d="m30.696 11.078c-0.2712 0.2981-0.4319 0.6311-0.5966 0.9944l-2e-4 3e-4c-0.2196 0.4842-0.414 1.0509-0.5965 1.7012l-1e-4 4e-4c-0.365 1.3008-0.6612 2.9438-0.9058 4.7505l-1e-4 3e-4c-0.4892 3.6136-0.6868 7.8808-0.2209 11.358v3e-4c0.0551 0.4175 0.3373 0.7955 0.7292 0.9498l3e-4 2e-4c1.8726 0.7406 4.2544 1.2158 6.9382 1.5908v16.661l2e-4 1e-4c7e-3 3e-3 0.4638 0.1988 0.4638 0.1988l2e-4 1e-4c0.0087 4e-3 0.5744 0.2651 0.5744 0.2651v4e-4c-1e-4 0.0793-0.0221 20.44-0.0221 20.44l2e-4 2e-4c0.0188 0.0202 2.4526 2.6294 2.4526 2.6294h2.2539l2e-4 -3e-4c0.0187-0.0204 2.4305-2.6514 2.4305-2.6514v-20.418l3e-4 -2e-4c0.0151-7e-3 0.994-0.4639 0.994-0.4639v-2e-4c1e-4 -0.04 0.0221-10.319 0.0221-10.319l-0.0221-0.0221v-6.3198h5e-4c2.7021-0.3761 5.0994-0.8463 6.9822-1.591l3e-4 -1e-4c0.3918-0.1545 0.674-0.5324 0.7289-0.95l1e-4 -5e-4c0.1745-1.3025 0.2579-2.7026 0.2651-4.1538v-3e-4c0.0155-3.1425-0.2914-6.4787-0.7734-9.17v-3e-4c-0.2411-1.3456-0.526-2.5357-0.8397-3.491l-1e-4 -4e-4c-0.3136-0.9553-0.5165-1.6664-1.3036-2.2756l-2e-4 -2e-4c-1.2279-0.9503-2.8221-1.0293-4.596-1.1488l-3e-4 -2e-5c-1.7739-0.11956-3.658-0.11046-5.0157-0.11046h-5e-4c-1.3578 0-3.2417-0.00908-5.0155 0.11048l-3e-4 2e-5c-1.7739 0.11957-3.3902 0.22074-4.618 1.1711l-3e-4 2e-4c-0.121 0.0936-0.2187 0.1657-0.3091 0.2649zm3.9333 1.8561m3.9333 1.8562c0.0279-0.0338 0.0686-0.0688 0.0996-0.0996 0.0278-0.0337 0.0684-0.0685 0.0993-0.0993 0.0899-0.0899 0.186-0.1707 0.2985-0.2323 0.0898-0.0897 0.1857-0.1703 0.2981-0.2317 0.1126-0.0612 0.2357-0.0949 0.3649-0.1217 0.1124-0.061 0.2353-0.0946 0.3643-0.1214 0.0012-3e-4 0.01-0.0109 0.0113-0.0112 0.0019-0.0014 0.0097-0.0107 0.0108-0.0109 0.087-0.0178 0.1731-0.0221 0.2654-0.0221 0.0868-0.0178 0.1728-0.0221 0.2649-0.0221 0.0462 0 0.0879-0.0045 0.1329 0 0.0459 0 0.0875-0.0045 0.1323 0 0.6735 0.0684 1.2046 0.6455 1.2048 1.3369 0.6731 0.0686 1.2038 0.6456 1.2038 1.3368 0 0.7376-0.5994 1.337-1.3369 1.3371-1e-4 0.7374-0.5994 1.3366-1.3368 1.3366-0.3689 0-0.6977-0.145-0.9394-0.3867-0.3687-1e-4 -0.6973-0.1451-0.9389-0.3867-0.031-0.0308-0.0718-0.0659-0.0996-0.0996-0.0309-0.0308-0.0715-0.0656-0.0993-0.0993-0.0817-0.099-0.1483-0.2118-0.1991-0.3317-0.0815-0.0989-0.148-0.2115-0.1986-0.3312-0.0677-0.1598-0.0995-0.335-0.0996-0.5195-0.0675-0.1597-0.0993-0.3348-0.0993-0.5191 0-0.1845 0.0318-0.3597 0.0994-0.5195 1e-4 -0.1843 0.0319-0.3594 0.0995-0.5191 0.0507-0.1199 0.1173-0.2327 0.199-0.3318 0.0506-0.1197 0.1171-0.2322 0.1987-0.3311z"/>
			<path d="m30.159 10.542c-0.2712 0.2981-0.4319 0.6311-0.5966 0.9943l-2e-4 4e-4c-0.2196 0.4842-0.414 1.0509-0.5965 1.7011l-1e-4 5e-4c-0.365 1.3007-0.6612 2.9437-0.9058 4.7504l-1e-4 3e-4c-0.4893 3.6137-0.6868 7.8808-0.2209 11.358v3e-4c0.0551 0.4176 0.3373 0.7955 0.7292 0.9499l3e-4 1e-4c1.8725 0.7406 4.2543 1.2158 6.9382 1.5909v16.661l1e-4 1e-4c0.0062 0.0026 0.4639 0.1988 0.4639 0.1988l2e-4 1e-4c0.0077 0.0035 0.5743 0.2651 0.5743 0.2651v4e-4c0 0.0698-0.0221 20.44-0.0221 20.44l2e-4 2e-4c0.0167 0.0178 2.4526 2.6294 2.4526 2.6294h2.2539l2e-4 -3e-4c0.0165-0.0179 2.4305-2.6514 2.4305-2.6514v-20.418l4e-4 -2e-4c0.0132-0.0062 0.994-0.4639 0.994-0.4639v-2e-4c1e-4 -0.0353 0.0221-10.319 0.0221-10.319l-0.0221-0.0221v-6.3198h4e-4c2.7022-0.3761 5.0995-0.8463 6.9823-1.591l3e-4 -1e-4c0.3918-0.1545 0.6739-0.5325 0.7289-0.9501l1e-4 -4e-4c0.1745-1.3025 0.2579-2.7026 0.2651-4.1539v-2e-4c0.0155-3.1425-0.2914-6.4787-0.7734-9.1701l-1e-4 -2e-4c-0.241-1.3456-0.526-2.5357-0.8396-3.4911l-1e-4 -3e-4c-0.3136-0.9553-0.5165-1.6664-1.3036-2.2757l-2e-4 -1e-4c-1.2279-0.95031-2.8221-1.0294-4.596-1.1488l-3e-4 -2e-5c-1.7739-0.11956-3.658-0.11046-5.0157-0.11046h-4e-4c-1.3578-1e-5 -3.2418-0.00909-5.0156 0.11048l-4e-4 2e-5c-1.7738 0.11957-3.3901 0.22074-4.6179 1.171l-4e-4 4e-4c-0.1209 0.0935-0.2187 0.1656-0.309 0.2648zm4.3975 2.0752m3.4691 1.6371c0.0246-0.0298 0.0605-0.0607 0.0879-0.0879 0.031-0.0376 0.0764-0.0766 0.1109-0.111 0.0794-0.0794 0.1642-0.1506 0.2634-0.2049 0.1004-0.1004 0.2077-0.1905 0.3333-0.2591 0.0993-0.054 0.2079-0.0837 0.3219-0.1074 0.1257-0.0682 0.2631-0.1058 0.4073-0.1357 0.0011-2e-4 0.0089-0.0096 0.01-0.0099 0.0022-0.0016 0.0108-0.0119 0.0121-0.0122 0.0767-0.0157 0.1527-0.0195 0.2341-0.0196 0.0971-0.0198 0.1932-0.0246 0.2962-0.0246 0.0407 0 0.0775-4e-3 0.1172 0 0.0514 0 0.0979-0.0051 0.148 0 0.594 0.0603 1.0625 0.5693 1.0627 1.1791 0.7525 0.0767 1.3459 0.7218 1.3459 1.4946 0 0.6505-0.5286 1.1793-1.1791 1.1794-2e-4 0.8244-0.6702 1.4943-1.4946 1.4943-0.3254 0-0.6154-0.1279-0.8286-0.3411-0.4122 0-0.7796-0.1622-1.0497-0.4323-0.0274-0.0272-0.0633-0.0581-0.0879-0.0879-0.0346-0.0344-0.08-0.0734-0.111-0.111-0.0721-0.0873-0.1309-0.1868-0.1757-0.2926-0.0911-0.1106-0.1655-0.2365-0.2221-0.3703-0.0596-0.141-0.0877-0.2955-0.0878-0.4583-0.0754-0.1785-0.111-0.3742-0.111-0.5803 0-0.1627 0.0281-0.3173 0.0877-0.4583 0-0.206 0.0356-0.4017 0.1111-0.5803 0.0448-0.1058 0.1035-0.2053 0.1756-0.2927 0.0566-0.1338 0.131-0.2597 0.2222-0.3702z"/>
			<path d="m29.673 10.056c-0.2712 0.2981-0.4319 0.6311-0.5967 0.9943l-1e-4 3e-4c-0.2196 0.4843-0.414 1.051-0.5965 1.7012l-1e-4 4e-4c-0.365 1.3008-0.6612 2.9438-0.9059 4.7505v3e-4c-0.4893 3.6136-0.6868 7.8808-0.2209 11.358v3e-4c0.0551 0.4176 0.3373 0.7955 0.7292 0.9499l2e-4 1e-4c1.8726 0.7406 4.2544 1.2158 6.9383 1.5909v16.661l1e-4 1e-4c0.0055 0.0023 0.4639 0.1988 0.4639 0.1988l2e-4 1e-4c0.0067 0.0031 0.5743 0.2651 0.5743 0.2651v3e-4c0 0.0614-0.0221 20.44-0.0221 20.44l2e-4 1e-4c0.0146 0.0157 2.4526 2.6295 2.4526 2.6295h2.2539l2e-4 -2e-4c0.0145-0.0158 2.4305-2.6515 2.4305-2.6515v-20.418l3e-4 -2e-4c0.0117-0.0054 0.9941-0.4639 0.9941-0.4639v-2e-4c1e-4 -0.031 0.0221-10.319 0.0221-10.319l-0.0221-0.0221v-6.3198h4e-4c2.7021-0.3761 5.0995-0.8463 6.9823-1.591l2e-4 -1e-4c0.3919-0.1544 0.674-0.5324 0.729-0.9501l1e-4 -3e-4c0.1745-1.3025 0.2579-2.7027 0.2651-4.154v-2e-4c0.0155-3.1425-0.2914-6.4787-0.7734-9.1701l-1e-4 -1e-4c-0.241-1.3457-0.526-2.5358-0.8396-3.4912l-1e-4 -2e-4c-0.3136-0.9553-0.5165-1.6665-1.3036-2.2758l-2e-4 -1.3e-4c-1.2279-0.95032-2.8221-1.0294-4.596-1.1489l-3e-4 -1e-5c-1.7739-0.11956-3.658-0.11047-5.0157-0.11047h-4e-4c-1.3578 0-3.2418-0.00908-5.0156 0.11048l-4e-4 3e-5c-1.7739 0.11957-3.3901 0.22075-4.6179 1.1711l-4e-4 3.4e-4c-0.1209 0.09357-0.2187 0.16558-0.309 0.26482zm4.8173 2.2733m3.0493 1.439c0.0216-0.0262 0.0532-0.0534 0.0773-0.0774 0.034-0.0411 0.0837-0.0839 0.1215-0.1215 0.0698-0.0698 0.1444-0.1325 0.2316-0.1802 0.11-0.1099 0.2275-0.2087 0.3651-0.2838 0.0873-0.0475 0.1828-0.0736 0.283-0.0945 0.1377-0.0747 0.2882-0.1158 0.4462-0.1486 9e-4 -2e-4 0.0078-0.0085 0.0089-0.0088 0.0023-0.0016 0.0118-0.013 0.0132-0.0133 0.0675-0.0138 0.1343-0.0172 0.2058-0.0172 0.1064-0.0217 0.2117-0.027 0.3245-0.027 0.0358 0 0.0682-0.0035 0.1031 0 0.0563 0 0.1072-0.0056 0.1621 0 0.5222 0.053 0.934 0.5004 0.9342 1.0365 0.8244 0.084 1.4744 0.7906 1.4744 1.6372 0 0.5719-0.4647 1.0366-1.0364 1.0367-2e-4 0.9031-0.7342 1.637-1.6373 1.637-0.286 0-0.541-0.1124-0.7285-0.2998-0.4514-1e-4 -0.8539-0.1777-1.1498-0.4736-0.0241-0.024-0.0557-0.0511-0.0773-0.0773-0.0379-0.0377-0.0876-0.0804-0.1216-0.1216-0.0634-0.0768-0.1151-0.1643-0.1545-0.2573-0.0998-0.1211-0.1813-0.259-0.2433-0.4056-0.0524-0.1239-0.0771-0.2598-0.0772-0.4029-0.0826-0.1956-0.1216-0.41-0.1216-0.6357 0-0.143 0.0247-0.2789 0.0771-0.4029 0-0.2257 0.039-0.4401 0.1217-0.6357 0.0394-0.093 0.091-0.1805 0.1544-0.2574 0.062-0.1466 0.1435-0.2845 0.2434-0.4055z"/>
			<path d="m29.227 9.6095c-0.2712 0.2981-0.4319 0.63119-0.5966 0.99439l-1e-4 2e-4c-0.2197 0.4843-0.414 1.051-0.5965 1.7013l-1e-4 3e-4c-0.365 1.3008-0.6613 2.9438-0.9059 4.7506v2e-4c-0.4893 3.6137-0.6869 7.8809-0.221 11.358v2e-4c0.0551 0.4176 0.3373 0.7956 0.7292 0.95l2e-4 1e-4c1.8726 0.7406 4.2544 1.2158 6.9383 1.5909v16.661h1e-4c0.0048 2e-3 0.464 0.1988 0.464 0.1988l1e-4 1e-4c0.0059 0.0027 0.5744 0.2651 0.5744 0.2651v3e-4c-1e-4 0.0536-0.0221 20.44-0.0221 20.44l1e-4 2e-4c0.0128 0.0136 2.4527 2.6294 2.4527 2.6294h2.2539l1e-4 -2e-4c0.0127-0.0138 2.4306-2.6515 2.4306-2.6515v-20.418l2e-4 -1e-4c0.0102-0.0048 0.9941-0.4639 0.9941-0.4639v-2e-4c1e-4 -0.0271 0.0221-10.319 0.0221-10.319v-1e-4c-9e-4 -9e-4 -0.0221-0.022-0.0221-0.022v-6.3198l4e-4 -1e-4c2.7021-0.376 5.0995-0.8462 6.9823-1.5909l2e-4 -1e-4c0.3919-0.1545 0.6741-0.5325 0.729-0.9501l1e-4 -3e-4c0.1745-1.3026 0.2579-2.7027 0.2651-4.154v-2e-4c0.0156-3.1426-0.2913-6.4788-0.7734-9.1701v-2e-4c-0.241-1.3456-0.526-2.5358-0.8397-3.4911l-1e-4 -3e-4c-0.3136-0.9553-0.5165-1.6665-1.3036-2.2757l-1e-4 -1.2e-4c-1.2279-0.95034-2.8221-1.0294-4.5961-1.1489l-2e-4 -1e-5c-1.7739-0.11957-3.658-0.11047-5.0158-0.11047h-3e-4c-1.3578 0-3.2418-0.00908-5.0157 0.11048l-4e-4 3e-5c-1.7738 0.11957-3.3901 0.22075-4.6179 1.1711l-4e-4 3.6e-4c-0.1209 0.09356-0.2187 0.16557-0.3089 0.26481l-1e-4 -9e-5zm5.2033 2.4555m2.6633 1.2568c0.0189-0.0229 0.0465-0.0466 0.0676-0.0676 0.0367-0.0445 0.0905-0.0906 0.1313-0.1313 0.061-0.0609 0.1261-0.1157 0.2023-0.1574 0.1188-0.1188 0.2457-0.2254 0.3943-0.3066 0.0763-0.0415 0.1597-0.0643 0.2473-0.0825 0.1487-0.0807 0.3113-0.1252 0.4819-0.1606 9e-4 -2e-4 0.0069-0.0074 0.0079-0.0077 0.0025-0.0018 0.0128-0.0141 0.0142-0.0144 0.059-0.012 0.1173-0.015 0.1799-0.015 0.1149-0.0235 0.2286-0.0292 0.3504-0.0292 0.0314 0 0.0596-0.0031 0.0902 0 0.0608 0 0.1157-6e-3 0.175 0 0.4562 0.0464 0.8159 0.4371 0.8161 0.9053 0.8905 0.0908 1.5925 0.854 1.5925 1.7684 0 0.4995-0.4058 0.9055-0.9052 0.9056-2e-4 0.9755-0.793 1.7681-1.7685 1.7681-0.2498 0-0.4725-0.0982-0.6363-0.2618-0.4877-1e-4 -0.9223-0.192-1.242-0.5116-0.021-0.0209-0.0487-0.0447-0.0676-0.0675-0.0408-0.0407-0.0946-0.0869-0.1313-0.1313-0.0554-0.0672-0.1005-0.1436-0.135-0.2249-0.1078-0.1307-0.1957-0.2797-0.2627-0.438-0.0458-0.1083-0.0674-0.227-0.0675-0.352-0.0893-0.2113-0.1314-0.4428-0.1314-0.6866 0-0.125 0.0216-0.2437 0.0673-0.352 1e-4 -0.2438 0.0422-0.4754 0.1316-0.6866 0.0344-0.0813 0.0795-0.1578 0.1348-0.2249 0.0671-0.1584 0.155-0.3073 0.2629-0.4381z"/>
			<path d="m28.811 9.194c-0.2711 0.2981-0.4318 0.63114-0.5966 0.99435l-1e-4 2e-4c-0.2196 0.4843-0.414 1.051-0.5965 1.7013l-1e-4 3e-4c-0.365 1.3008-0.6612 2.9439-0.9059 4.7506v2e-4c-0.4893 3.6137-0.6869 7.8809-0.2209 11.358v2e-4c0.055 0.4176 0.3372 0.7956 0.7292 0.95l2e-4 1e-4c1.8725 0.7406 4.2544 1.2158 6.9383 1.5909v16.661h1e-4c0.0041 0.0018 0.4639 0.1989 0.4639 0.1989h1e-4c0.0051 0.0024 0.5744 0.2651 0.5744 0.2651v3e-4c0 0.0464-0.0221 20.44-0.0221 20.44l1e-4 2e-4c0.0111 0.0118 2.4527 2.6294 2.4527 2.6294h2.2539l1e-4 -1e-4c0.011-0.012 2.4306-2.6516 2.4306-2.6516v-20.418l2e-4 -1e-4c0.0088-0.0041 0.9942-0.4639 0.9942-0.4639v-1e-4c0-0.0235 0.0221-10.319 0.0221-10.319l-0.0221-0.0221v-6.3198h3e-4c2.7022-0.3761 5.0996-0.8463 6.9824-1.591l2e-4 -1e-4c0.3918-0.1544 0.674-0.5324 0.729-0.9501v-3e-4c0.1746-1.3025 0.258-2.7027 0.2652-4.154v-1e-4c0.0155-3.1426-0.2914-6.4788-0.7734-9.1702l-1e-4 -1e-4c-0.241-1.3457-0.526-2.5358-0.8396-3.4912l-1e-4 -2e-4c-0.3136-0.9553-0.5165-1.6665-1.3036-2.2758l-2e-4 -1e-4c-1.2278-0.95035-2.8221-1.0294-4.596-1.1489l-2e-4 -1e-5c-1.774-0.11957-3.6581-0.11047-5.0158-0.11047h-3e-4c-1.3578 0-3.2419-0.00908-5.0157 0.11048l-5e-4 3e-5c-1.7738 0.11957-3.39 0.22075-4.6178 1.1711l-5e-4 3.9e-4c-0.1209 0.09355-0.2186 0.16555-0.3089 0.26478l-1e-4 -1e-4zm5.5626 2.625m2.304 1.0874c0.0164-0.0199 0.0403-0.0404 0.0585-0.0586 0.0393-0.0475 0.0968-0.0969 0.1404-0.1403 0.0528-0.0528 0.1091-0.1002 0.1751-0.1363 0.127-0.127 0.2627-0.241 0.4215-0.3278 0.0661-0.0358 0.1383-0.0556 0.2141-0.0714 0.159-0.0863 0.3327-0.1338 0.5151-0.1716 8e-4 -2e-4 0.0061-0.0065 0.0069-0.0067 0.0027-2e-3 0.0137-0.0151 0.0152-0.0154 0.0511-0.0105 0.1016-0.013 0.1557-0.013 0.1228-0.0251 0.2444-0.0312 0.3747-0.0312 0.0271 0 0.0516-0.0027 0.078 0 0.0651-1e-4 0.1238-0.0064 0.1871 0 0.3947 0.0401 0.706 0.3781 0.7062 0.7832 0.9519 0.097 1.7024 0.9129 1.7024 1.8905 0 0.4321-0.3511 0.7833-0.7831 0.7835-2e-4 1.0428-0.8477 1.8902-1.8906 1.8902-0.2161 0-0.4088-0.085-0.5505-0.2266-0.5213-1e-4 -0.986-0.2052-1.3278-0.5468-0.0182-0.0182-0.0421-0.0387-0.0585-0.0585-0.0437-0.0435-0.1011-0.0929-0.1403-0.1404-0.048-0.0581-0.0871-0.1242-0.1169-0.1946-0.1153-0.1398-0.2093-0.299-0.2809-0.4683-0.0396-0.0937-0.0583-0.1964-0.0584-0.3045-0.0954-0.2259-0.1405-0.4735-0.1405-0.7341 0-0.1082 0.0187-0.2109 0.0583-0.3046 0-0.2606 0.0451-0.5082 0.1406-0.734 0.0298-0.0704 0.0688-0.1366 0.1167-0.1947 0.0717-0.1692 0.1657-0.3285 0.2811-0.4682z"/>
			<path d="m28.421 8.8036c-0.2711 0.2981-0.4318 0.63114-0.5966 0.99437l-1e-4 1.8e-4c-0.2196 0.4843-0.414 1.051-0.5965 1.7013l-1e-4 3e-4c-0.365 1.3007-0.6612 2.9438-0.9059 4.7506v2e-4c-0.4893 3.6137-0.6869 7.8809-0.2209 11.358v2e-4c0.055 0.4176 0.3372 0.7956 0.7292 0.95l1e-4 1e-4c1.8726 0.7406 4.2544 1.2158 6.9384 1.5909v16.661c0.0036 0.0015 0.464 0.1989 0.464 0.1989h1e-4c0.0043 2e-3 0.5744 0.2651 0.5744 0.2651v3e-4c0 0.0396-0.0221 20.44-0.0221 20.44l1e-4 2e-4c0.0095 0.0101 2.4527 2.6294 2.4527 2.6294h2.2539l1e-4 -1e-4c0.0094-0.0102 2.4306-2.6516 2.4306-2.6516v-20.418l2e-4 -1e-4c0.0075-0.0035 0.9942-0.4639 0.9942-0.4639v-1e-4c0-0.02 0.0221-10.319 0.0221-10.319l-0.0221-0.0221v-6.3198h2e-4c2.7022-0.3761 5.0996-0.8463 6.9825-1.591l1e-4 -1e-4c0.3919-0.1544 0.6741-0.5324 0.7291-0.9501v-2e-4c0.1746-1.3025 0.258-2.7028 0.2652-4.1541v-1e-4c0.0155-3.1426-0.2914-6.4788-0.7734-9.1702l-1e-4 -1e-4c-0.241-1.3457-0.526-2.5358-0.8396-3.4912l-1e-4 -2e-4c-0.3136-0.95533-0.5165-1.6665-1.3036-2.2758l-1e-4 -9e-5c-1.2279-0.95036-2.8222-1.0294-4.5961-1.1489l-2e-4 -1e-5c-1.7739-0.11957-3.6581-0.11047-5.0158-0.11047h-3e-4c-1.3578 0-3.2418-0.00908-5.0157 0.11048l-5e-4 3e-5c-1.7738 0.11957-3.39 0.22076-4.6178 1.1711l-6e-4 4.1e-4c-0.1208 0.09354-0.2185 0.16554-0.3088 0.26476l-1e-4 -1e-4zm5.9 2.7842m1.9666 0.9281c0.014-0.017 0.0345-0.0346 0.05-0.0501 0.0417-0.0504 0.1026-0.1027 0.1489-0.1488 0.0451-0.0451 0.0932-0.0856 0.1496-0.1164 0.1347-0.1347 0.2785-0.2556 0.447-0.3477 0.0565-0.0306 0.1181-0.0475 0.1828-0.061 0.1687-0.0915 0.353-0.1419 0.5464-0.182 7e-4 -2e-4 0.0052-0.0055 6e-3 -0.0058 0.0029-2e-3 0.0145-0.016 0.0161-0.0163 0.0436-0.0089 0.0868-0.0111 0.133-0.0112 0.1303-0.0266 0.2592-0.033 0.3974-0.033 0.0231 0 0.0441-0.0023 0.0667 0 0.0689-1e-4 0.1312-0.0068 0.1984 0 0.337 0.0342 0.6027 0.3227 0.6029 0.6685 1.0097 0.1029 1.8057 0.9683 1.8057 2.0052 0 0.3689-0.2996 0.6687-0.6684 0.6688-2e-4 1.1061-0.8991 2.0049-2.0053 2.0049-0.1845 0-0.349-0.0725-0.4699-0.1934-0.553-1e-4 -1.0459-0.2176-1.4084-0.58-0.0155-0.0155-0.036-0.0331-0.05-0.05-0.0463-0.0461-0.1072-0.0985-0.1488-0.1489-0.041-0.0496-0.0744-0.1061-0.0998-0.1662-0.1223-0.1482-0.222-0.3172-0.298-0.4967-0.0338-0.08-0.0498-0.1677-0.0498-0.26-0.1013-0.2396-0.1491-0.5022-0.1491-0.7786 0-0.0923 0.016-0.18 0.0498-0.2601 0-0.2764 0.0478-0.539 0.1491-0.7785 0.0254-0.0601 0.0588-0.1166 0.0997-0.1663 0.076-0.1795 0.1757-0.3484 0.2981-0.4966z"/>
			<path d="m28.052 8.4345c-0.2712 0.2981-0.4319 0.63114-0.5966 0.99437l-1e-4 1.4e-4c-0.2196 0.48428-0.414 1.051-0.5965 1.7014l-1e-4 2e-4c-0.365 1.3007-0.6613 2.9439-0.9059 4.7507v1e-4c-0.4893 3.6137-0.6869 7.8809-0.221 11.358v1e-4c0.055 0.4176 0.3373 0.7956 0.7292 0.95l1e-4 1e-4c1.8726 0.7406 4.2545 1.2159 6.9384 1.5909v16.661l1e-4 1e-4c0.0029 0.0012 0.4639 0.1988 0.4639 0.1988l1e-4 1e-4c0.0037 0.0016 0.5745 0.2651 0.5745 0.2651v2e-4c-1e-4 0.0332-0.0221 20.44-0.0221 20.44l1e-4 1e-4c0.0079 0.0084 2.4527 2.6295 2.4527 2.6295h2.2539l1e-4 -1e-4c0.0078-0.0086 2.4306-2.6516 2.4306-2.6516v-20.418l1e-4 -1e-4c0.0063-0.0029 0.9942-0.464 0.9942-0.464v-1e-4c1e-4 -0.0167 0.0221-10.319 0.0221-10.319l-0.0221-0.0221v-6.3198h2e-4c2.7023-0.376 5.0997-0.8462 6.9825-1.591h1e-4c0.392-0.1545 0.6742-0.5325 0.7291-0.9501l1e-4 -2e-4c0.1745-1.3026 0.2579-2.7028 0.2651-4.1541v-2e-4c0.0155-3.1425-0.2913-6.4788-0.7734-9.1701v-1e-4c-0.241-1.3457-0.526-2.5359-0.8397-3.4912v-2e-4c-0.3137-0.95537-0.5166-1.6666-1.3037-2.2758l-1e-4 -8e-5c-1.2279-0.95038-2.8221-1.0294-4.5961-1.1489l-1e-4 -1e-5c-1.774-0.11957-3.6581-0.11047-5.0159-0.11047h-2e-4c-1.3578-1e-5 -3.2419-0.00909-5.0158 0.11048l-5e-4 3e-5c-1.7738 0.11956-3.39 0.22076-4.6178 1.1711l-6e-4 4.3e-4c-0.1208 0.09352-0.2185 0.16552-0.3088 0.26474l-1e-4 -1.2e-4zm6.2191 2.9348m1.6475 0.7775c0.0117-0.0142 0.0289-0.029 0.0419-0.042 0.044-0.0531 0.1082-0.1083 0.157-0.1569 0.0377-0.0378 0.0781-0.0717 0.1253-0.0976 0.142-0.1419 0.2937-0.2694 0.4713-0.3664 0.0473-0.0257 0.099-0.0399 0.1532-0.0512 0.1778-0.0965 0.372-0.1496 0.576-0.1919 6e-4 -1e-4 0.0044-0.0046 0.0051-0.0049 3e-3 -0.0021 0.0153-0.0168 0.017-0.0172 0.0365-0.0075 0.0727-0.0093 0.1115-0.0093 0.1373-0.0281 0.2732-0.0349 0.4188-0.0349 0.0195 0 0.037-0.0019 0.056 0 0.0727 0 0.1383-0.0072 0.2092 0 0.2823 0.0287 0.5049 0.2704 0.5052 0.5601 1.0643 0.1084 1.9034 1.0207 1.9034 2.1136 0 0.3091-0.2511 0.5603-0.56 0.5604-2e-4 1.1659-0.9478 2.1133-2.1137 2.1133-0.1546 0-0.2924-0.0607-0.3938-0.162-0.5829-1e-4 -1.1025-0.2294-1.4845-0.6114-0.0131-0.013-0.0302-0.0277-0.042-0.0419-0.0488-0.0486-0.113-0.1038-0.1569-0.157-0.0343-0.0415-0.0623-0.0889-0.0837-0.1392-0.1289-0.1563-0.234-0.3344-0.314-0.5237-0.0284-0.067-0.0418-0.1405-0.0418-0.2178-0.1068-0.2526-0.1571-0.5294-0.1571-0.8208 0-0.0773 0.0133-0.1508 0.0416-0.2179 1e-4 -0.2914 0.0505-0.5682 0.1573-0.8207 0.0213-0.0503 0.0492-0.0977 0.0835-0.1394 0.0801-0.1892 0.1852-0.3672 0.3142-0.5235z"/>
			<path d="m27.701 8.0834c-0.2712 0.2981-0.4319 0.63114-0.5966 0.99437l-1e-4 1.2e-4c-0.2197 0.48428-0.4141 1.051-0.5966 1.7014v1e-4c-0.365 1.3008-0.6613 2.9439-0.9059 4.7508l-1e-4 1e-4c-0.4892 3.6136-0.6869 7.8809-0.2209 11.358v1e-4c0.055 0.4176 0.3372 0.7956 0.7292 0.95l1e-4 1e-4c1.8726 0.7406 4.2544 1.2158 6.9384 1.5909v16.661c0.0024 1e-3 0.464 0.1988 0.464 0.1988h1e-4c3e-3 0.0014 0.5744 0.2652 0.5744 0.2652v1e-4c0 0.0271-0.0221 20.44-0.0221 20.44h1e-4c0.0065 7e-3 2.4527 2.6296 2.4527 2.6296h2.2539l1e-4 -1e-4c0.0064-7e-3 2.4306-2.6516 2.4306-2.6516v-20.418l2e-4 -1e-4c0.0051-0.0024 0.9942-0.464 0.9942-0.464v-1e-4c0-0.0136 0.0221-10.319 0.0221-10.319l-0.0221-0.0221v-6.3198h2e-4c2.7022-0.376 5.0997-0.8462 6.9825-1.591h1e-4c0.3919-0.1545 0.6741-0.5325 0.7291-0.9501v-2e-4c0.1746-1.3026 0.258-2.7028 0.2652-4.1541v-1e-4c0.0155-3.1426-0.2914-6.4789-0.7734-9.1702v-1e-4c-0.2411-1.3457-0.526-2.5359-0.8397-3.4912v-2e-4c-0.3137-0.95537-0.5166-1.6666-1.3037-2.2758l-1e-4 -6e-5c-1.2279-0.95039-2.8221-1.0294-4.5961-1.1489l-1e-4 -1e-5c-1.774-0.11957-3.6581-0.11047-5.0159-0.11047h-2e-4c-1.3578 0-3.2419-0.00909-5.0158 0.11048l-5e-4 4e-5c-1.7738 0.11956-3.39 0.22076-4.6178 1.1711l-6e-4 4.6e-4c-0.1208 0.09351-0.2185 0.1655-0.3088 0.26471l-1e-4 -1.2e-4zm6.5226 3.0781m1.344 0.6342c0.0096-0.0116 0.0236-0.0237 0.0342-0.0343 0.0461-0.0558 0.1135-0.1136 0.1646-0.1646 0.0309-0.0308 0.0638-0.0586 0.1024-0.0797 0.1489-0.1489 0.308-0.2826 0.4943-0.3843 0.0386-0.021 0.0808-0.0326 0.1251-0.0419 0.1864-0.1011 0.3902-0.1568 0.6041-0.2012 5e-4 -1e-4 0.0036-0.0038 0.0042-4e-3 0.0032-0.0023 0.0161-0.0177 0.0179-0.0181 0.0298-0.0061 0.0594-0.0076 0.091-0.0076 0.144-0.0295 0.2866-0.0366 0.4393-0.0366 0.0159 0 0.0303-0.0016 0.0457 0 0.0763 0 0.1452-0.0075 0.2195 0 0.2303 0.0234 0.412 0.2206 0.4123 0.4569 1.1162 0.1138 1.9963 1.0705 1.9963 2.2168 0 0.2521-0.2048 0.4571-0.4568 0.4572-3e-4 1.2228-0.9941 2.2165-2.2169 2.2165-0.1262 0-0.2386-0.0496-0.3214-0.1321-0.6113-1e-4 -1.1562-0.2406-1.5569-0.6413-0.0107-0.0106-0.0247-0.0227-0.0343-0.0343-0.0512-0.051-0.1186-0.1088-0.1646-0.1646-0.028-0.0339-0.0509-0.0726-0.0684-0.1137-0.1352-0.1639-0.2454-0.3507-0.3294-0.5492-0.0231-0.0547-0.034-0.1147-0.0341-0.1778-0.1119-0.2648-0.1647-0.5551-0.1647-0.8608 0-0.0631 0.0109-0.1231 0.034-0.1779 0-0.3056 0.0528-0.5958 0.1648-0.8607 0.0174-0.0411 0.0403-0.0798 0.0682-0.1138 0.0841-0.1985 0.1943-0.3852 0.3296-0.5491z"/>
			<path d="m27.365 7.7479c-0.2712 0.2981-0.4319 0.63114-0.5966 0.99437l-1e-4 1e-4c-0.2196 0.48429-0.414 1.051-0.5966 1.7014v1e-4c-0.365 1.3008-0.6613 2.9439-0.9059 4.7508v1e-4c-0.4893 3.6136-0.6869 7.8809-0.221 11.358 0.055 0.4177 0.3372 0.7957 0.7292 0.9501l1e-4 1e-4c1.8726 0.7406 4.2544 1.2158 6.9384 1.5909v16.661c0.0019 8e-4 0.464 0.1988 0.464 0.1988h1e-4c0.0023 0.0011 0.5745 0.2652 0.5745 0.2652v1e-4c-1e-4 0.0212-0.0221 20.44-0.0221 20.44 0.0051 0.0055 2.4528 2.6296 2.4528 2.6296h2.2539v-1e-4c5e-3 -0.0055 2.4307-2.6516 2.4307-2.6516v-20.418l1e-4 -1e-4c4e-3 -0.0019 0.9942-0.464 0.9942-0.464 1e-4 -0.0107 0.0221-10.319 0.0221-10.319l-0.0221-0.0221v-6.3198h2e-4c2.7022-0.376 5.0997-0.8462 6.9825-1.591h1e-4c0.3919-0.1544 0.6742-0.5325 0.7291-0.9501v-2e-4c0.1746-1.3025 0.258-2.7028 0.2652-4.1541v-1e-4c0.0155-3.1426-0.2913-6.4789-0.7734-9.1702v-1e-4c-0.241-1.3457-0.526-2.5359-0.8397-3.4912v-9e-5c-0.3137-0.95541-0.5166-1.6666-1.3037-2.2759l-1e-4 -4e-5c-1.2278-0.95041-2.8221-1.0295-4.5961-1.149h-1e-4c-1.774-0.11958-3.6581-0.11048-5.0159-0.11048h-1e-4c-1.3578 0-3.242-0.00908-5.0159 0.11048l-6e-4 4e-5c-1.7737 0.11957-3.3899 0.22076-4.6177 1.1711l-6e-4 4.8e-4c-0.1208 0.0935-0.2185 0.16549-0.3088 0.26469l-1e-4 -1.2e-4zm6.8127 3.2149m1.0539 0.4974c0.0075-0.0091 0.0185-0.0186 0.0269-0.027 0.0482-0.0582 0.1185-0.1186 0.172-0.1719 0.0242-0.0242 0.0501-0.046 0.0803-0.0626 0.1556-0.1555 0.3217-0.2951 0.5163-0.4014 0.0303-0.0165 0.0635-0.0256 0.0982-0.0329 0.1948-0.1057 0.4076-0.1638 0.631-0.2102 4e-4 -1e-4 0.0029-3e-3 0.0035-0.0032 0.0033-0.0024 0.0167-0.0185 0.0186-0.0189 0.0234-0.0048 0.0466-6e-3 0.0715-6e-3 0.1504-0.0307 0.2993-0.0382 0.4588-0.0382 0.0125 0 0.0238-0.0012 0.036 0 0.0797 0 0.1516-0.0079 0.2292 0 0.1807 0.0184 0.3232 0.173 0.3235 0.3583 1.1659 0.1189 2.0851 1.1182 2.0851 2.3154 0 0.1978-0.1606 0.3585-0.3582 0.3587-3e-4 1.2772-1.0383 2.315-2.3155 2.315-0.099 0-0.1872-0.0388-0.2521-0.1036-0.6385-1e-4 -1.2077-0.2513-1.6262-0.6698-0.0084-0.0083-0.0194-0.0178-0.027-0.0269-0.0535-0.0533-0.1238-0.1137-0.1719-0.172-0.022-0.0266-0.04-0.057-0.0537-0.0893-0.1412-0.1712-0.2563-0.3662-0.344-0.5736-0.0182-0.0429-0.0268-0.09-0.0269-0.1395-0.1169-0.2766-0.172-0.5798-0.172-0.8991 0-0.0495 0.0085-0.0966 0.0266-0.1396 1e-4 -0.3192 0.0553-0.6224 0.1723-0.899 0.0136-0.0323 0.0315-0.0627 0.0535-0.0894 0.0878-0.2073 0.2029-0.4023 0.3442-0.5735z"/>
			<path d="m27.044 7.4261c-0.2712 0.2981-0.4318 0.63114-0.5966 0.99437v7e-5c-0.2197 0.48429-0.4141 1.0511-0.5966 1.7014l-1e-4 1e-4c-0.365 1.3008-0.6613 2.9439-0.9059 4.7508v1e-4c-0.4893 3.6136-0.6869 7.8809-0.221 11.358 0.055 0.4177 0.3373 0.7958 0.7292 0.9502h1e-4c1.8726 0.7406 4.2545 1.2159 6.9384 1.591v16.661h1e-4c0.0013 6e-4 0.464 0.1988 0.464 0.1988v1e-4c0.0017 7e-4 0.5745 0.2651 0.5745 0.2651v1e-4c0 0.0156-0.0221 20.44-0.0221 20.44 0.0037 4e-3 2.4528 2.6296 2.4528 2.6296h2.2539c0.0037-0.0041 2.4307-2.6517 2.4307-2.6517v-20.418h1e-4c0.0029-0.0014 0.9943-0.464 0.9943-0.464v-1e-4c0-0.0079 0.0221-10.319 0.0221-10.319l-0.0221-0.0221v-6.3199c2.7023-0.376 5.0998-0.8462 6.9827-1.5909v-1e-4c0.392-0.1544 0.6742-0.5324 0.7292-0.9501v-1e-4c0.1745-1.3026 0.2579-2.7028 0.2651-4.1542v-1e-4c0.0156-3.1426-0.2913-6.4788-0.7734-9.1702v-1e-4c-0.241-1.3456-0.526-2.5358-0.8397-3.4912v-7e-5c-0.3137-0.95543-0.5165-1.6666-1.3037-2.2759v-4e-5c-1.2279-0.95041-2.8222-1.0295-4.5962-1.149v-1e-5c-1.774-0.11957-3.6582-0.11047-5.016-0.11047h-1e-4c-1.3578 0-3.2419-0.00909-5.0159 0.11048l-6e-4 4e-5c-1.7737 0.11956-3.3899 0.22076-4.6177 1.1711l-6e-4 4.9e-4c-0.1208 0.0935-0.2185 0.16548-0.3087 0.26468l-2e-4 -1.3e-4zm7.0909 3.3462m0.7757 0.3661c0.0056-0.0067 0.0137-0.0138 0.0199-0.0199 0.0501-0.0607 0.1234-0.1235 0.179-0.179 0.0179-0.0178 0.037-0.0339 0.0593-0.0462 0.1619-0.1618 0.3348-0.3072 0.5373-0.4178 0.0224-0.0122 0.0468-0.0189 0.0725-0.0243 0.2027-0.11 0.4242-0.1705 0.6567-0.2188 4e-4 0 0.0023-0.0022 0.0027-0.0024 0.0035-0.0025 0.0174-0.0192 0.0194-0.0197 0.0173-0.0035 0.0344-0.0044 0.0528-0.0044 0.1565-0.032 0.3115-0.0398 0.4775-0.0398 0.0093 0 0.0177-9e-4 0.0267 0 0.0829 0 0.1577-0.0081 0.2385 0 0.1331 0.0136 0.2381 0.1274 0.2384 0.2638 1.2135 0.1237 2.1702 1.1638 2.1702 2.4099 0 0.1457-0.1182 0.264-0.2637 0.2642-2e-4 1.3293-1.0806 2.4095-2.41 2.4095-0.0729 0-0.1379-0.0286-0.1857-0.0762-0.6646-2e-4 -1.257-0.2616-1.6926-0.6972-0.0062-0.0061-0.0143-0.0131-0.0199-0.0199-0.0557-0.0554-0.1289-0.1183-0.179-0.1789-0.0162-0.0197-0.0295-0.0421-0.0396-0.0659-0.147-0.1782-0.2668-0.3812-0.3581-0.597-0.0134-0.0317-0.0197-0.0664-0.0198-0.1029-0.1217-0.2879-0.1791-0.6035-0.1791-0.9357 0-0.0366 0.0063-0.0713 0.0196-0.1029 1e-4 -0.3323 0.0575-0.6478 0.1793-0.9357 0.0101-0.0239 0.0233-0.0463 0.0395-0.066 0.0913-0.2158 0.2112-0.4188 0.3582-0.597z"/>
			<path d="m26.734 7.1165c-0.2712 0.2981-0.4319 0.63114-0.5966 0.99437v4e-5c-0.2197 0.4843-0.4141 1.0511-0.5966 1.7015l-1e-4 6e-5c-0.365 1.3008-0.6613 2.944-0.9059 4.7509-0.4893 3.6137-0.6869 7.881-0.221 11.358 0.055 0.4177 0.3372 0.7957 0.7292 0.9501v1e-4c1.8726 0.7406 4.2545 1.2159 6.9385 1.5909v16.661c9e-4 3e-4 0.464 0.1988 0.464 0.1988h1e-4c0.0011 5e-4 0.5745 0.2652 0.5745 0.2652 0 0.0103-0.0221 20.44-0.0221 20.44 0.0024 0.0026 2.4528 2.6296 2.4528 2.6296h2.2539v-1e-4c0.0024-0.0026 2.4307-2.6516 2.4307-2.6516v-20.418c2e-3 -1e-3 0.9943-0.4641 0.9943-0.4641 0-0.0052 0.0221-10.319 0.0221-10.319l-0.0221-0.0221v-6.3198h1e-4c2.7023-0.376 5.0997-0.8462 6.9826-1.591h1e-4c0.3919-0.1544 0.6742-0.5325 0.7291-0.9501v-1e-4c0.1746-1.3026 0.258-2.7029 0.2652-4.1542v-1e-4c0.0156-3.1426-0.2913-6.4788-0.7734-9.1702v-1e-4c-0.241-1.3457-0.526-2.5358-0.8397-3.4912v-5e-5c-0.3137-0.95543-0.5165-1.6667-1.3037-2.276v-2e-5c-1.2279-0.95043-2.8222-1.0295-4.5962-1.149-1.774-0.11958-3.6582-0.11048-5.016-0.11048h-1e-4c-1.3577 0-3.2419-0.00909-5.0159 0.11048l-6e-4 4e-5c-1.7738 0.11956-3.3899 0.22077-4.6177 1.1711-2e-4 1.7e-4 -4e-4 3.4e-4 -7e-4 5.1e-4 -0.1207 0.09349-0.2184 0.16547-0.3086 0.26466l-2e-4 -1.3e-4zm7.3585 3.4725m0.5081 0.2398c0.0037-0.0045 9e-3 -0.0091 0.0131-0.0132 0.0521-0.0629 0.128-0.1282 0.1858-0.1857 0.0117-0.0117 0.0243-0.0223 0.039-0.0304 0.168-0.168 0.3474-0.3188 0.5576-0.4336 0.0147-8e-3 0.0308-0.0125 0.0477-0.016 0.2103-0.1142 0.4402-0.17703 0.6815-0.22708 3e-4 -6e-5 0.0016-0.00153 2e-3 -0.00173 0.0035-0.00256 0.018-0.01994 0.0201-0.02037 0.0114-0.00233 0.0226-0.00292 0.0347-0.00295 0.1625-0.0332 0.3233-0.04125 0.4956-0.04125 0.0061 0 0.0117-5.9e-4 0.0176 0 0.0861-3e-5 0.1638-0.0085 0.2476 0 0.0873 0.00886 0.1562 0.08344 0.1565 0.17278 1.2593 0.1284 2.2521 1.2077 2.2521 2.5009 0 0.0955-0.0774 0.173-0.1727 0.1732-3e-4 1.3795-1.1214 2.5005-2.501 2.5005-0.0478 0-0.0904-0.0187-0.1218-0.0499-0.6897-2e-4 -1.3044-0.2715-1.7565-0.7235-0.0041-0.0041-0.0095-0.0087-0.0132-0.0132-0.0578-0.0575-0.1338-0.1228-0.1857-0.1857-0.0107-0.0129-0.0194-0.0276-0.0261-0.0433-0.1526-0.1849-0.2769-0.3956-0.3716-0.6196-0.0088-0.0207-0.013-0.0435-0.0131-0.0675-0.1263-0.2988-0.1858-0.6263-0.1858-0.9711 0-0.0239 0.0041-0.0467 0.0128-0.0675 1e-4 -0.3448 0.0597-0.6723 0.1861-0.9711 0.0066-0.0157 0.0153-0.0304 0.0259-0.0434 0.0948-0.2239 0.2192-0.4346 0.3718-0.6195z"/>
			<path d="m26.435 6.8178c-0.2711 0.2981-0.4318 0.63114-0.5966 0.99437v3e-5c-0.2197 0.4843-0.4141 1.0511-0.5966 1.7015v3e-5c-0.365 1.3008-0.6613 2.944-0.906 4.7508-0.4893 3.6137-0.6869 7.881-0.2209 11.358 0.0549 0.4177 0.3372 0.7958 0.7292 0.9502 1.8726 0.7407 4.2545 1.2159 6.9385 1.591v16.661l0.464 0.1989c6e-4 2e-4 0.5745 0.2651 0.5745 0.2651v1e-4c0 5e-3 -0.0221 20.44-0.0221 20.44 0.0012 0.0013 2.4528 2.6296 2.4528 2.6296h2.2539c0.0012-0.0013 2.4307-2.6517 2.4307-2.6517v-20.418c1e-3 -4e-4 0.9944-0.464 0.9944-0.464 0-0.0026 0.0221-10.319 0.0221-10.319l-0.0221-0.0221v-6.3198c2.7023-0.3761 5.0998-0.8463 6.9827-1.591 0.392-0.1544 0.6742-0.5325 0.7292-0.9502 0.1745-1.3026 0.258-2.7029 0.2652-4.1543 0.0155-3.1426-0.2914-6.4789-0.7734-9.1703-0.2411-1.3457-0.5261-2.5359-0.8397-3.4913v-2e-5c-0.3137-0.95545-0.5166-1.6667-1.3037-2.276v-1e-5c-1.2279-0.95044-2.8222-1.0295-4.5962-1.149h-1e-4c-1.7739-0.11958-3.6581-0.11048-5.0159-0.11048h-1e-4c-1.3578 0-3.2419-0.00909-5.0159 0.11048l-7e-4 5e-5c-1.7737 0.11956-3.3899 0.22077-4.6176 1.171-3e-4 1.8e-4 -5e-4 3.6e-4 -7e-4 5.3e-4 -0.1208 0.09348-0.2185 0.16546-0.3087 0.26464l-1e-4 -1.3e-4zm7.6169 3.5944m0.2497 0.1179c0.0019-0.0023 0.0046-0.0047 0.0067-0.0067 0.0538-0.0651 0.1325-0.1327 0.1922-0.1922 0.0059-0.0059 0.0122-0.0112 0.0195-0.0153 0.1739-0.1738 0.3596-0.32991 0.5771-0.44876 0.0074-0.00399 0.0154-0.00625 0.0238-0.00806 0.2177-0.11814 0.4557-0.1832 0.7054-0.23501 2e-4 -4e-5 1e-3 -8.2e-4 0.0013-0.00101 0.0037-0.00265 0.0187-0.02064 0.0208-0.02109 0.0057-0.00116 0.0114-0.00147 0.0174-0.0015 0.1681-0.03437 0.3346-0.0427 0.513-0.0427 0.0031 0 0.0059-2.9e-4 0.0089 0 0.0891-3e-5 0.1695-0.00879 0.2562 0 0.0431 0.00438 0.0772 0.04106 0.0775 0.085 1.3035 0.13288 2.3311 1.2501 2.3311 2.5887 0 0.047-0.038 0.0852-0.0849 0.0854-2e-4 1.4279-1.1608 2.5883-2.5888 2.5883-0.0236 0-0.0446-0.0092-0.0601-0.0246-0.7139-1e-4 -1.3502-0.281-1.8182-0.7488-2e-3 -0.0021-0.0047-0.0044-0.0066-0.0067-0.0599-0.0595-0.1385-0.1271-0.1922-0.1922-0.0054-0.0065-0.0098-0.0138-0.0131-0.0216-0.1579-0.1914-0.2866-0.4095-0.3847-0.6413-0.0043-0.0103-0.0064-0.0216-0.0065-0.0334-0.1307-0.3093-0.1924-0.6483-0.1924-1.0052 0-0.0119 0.0021-0.0232 0.0064-0.0335 0-0.3569 0.0617-0.6958 0.1925-1.0051 0.0033-0.0078 0.0077-0.0152 0.0129-0.0217 0.0981-0.2318 0.2269-0.4498 0.3849-0.6412z"/>
			<path d="m26.146 6.5288c-0.2712 0.2981-0.4319 0.63114-0.5966 0.99437-0.2197 0.48431-0.4141 1.0511-0.5966 1.7015-0.3651 1.3008-0.6614 2.944-0.906 4.7509-0.4893 3.6137-0.6869 7.881-0.221 11.358 0.055 0.4177 0.3372 0.7957 0.7292 0.9502 1.8726 0.7406 4.2545 1.2159 6.9385 1.591v16.661l0.4641 0.1988 0.5745 0.2652-0.0221 20.44 2.4528 2.6296h2.2539l2.4307-2.6517v-20.418l0.9943-0.4641 0.0221-10.319-0.0221-0.0221v-6.3198c2.7023-0.376 5.0998-0.8462 6.9827-1.591 0.392-0.1544 0.6743-0.5324 0.7292-0.9501 0.1746-1.3026 0.258-2.7029 0.2652-4.1543 0.0156-3.1426-0.2913-6.4789-0.7734-9.1703-0.241-1.3457-0.526-2.5359-0.8397-3.4913-0.3137-0.95546-0.5165-1.6667-1.3037-2.276-1.2279-0.95045-2.8222-1.0295-4.5962-1.149-1.774-0.11958-3.6582-0.11048-5.016-0.11048s-3.242-0.00909-5.016 0.11048l-6e-4 4e-5c-1.7738 0.11956-3.3899 0.22078-4.6177 1.1711-2e-4 1.8e-4 -4e-4 3.7e-4 -7e-4 5.5e-4 -0.1208 0.09347-0.2184 0.16544-0.3086 0.26462zm7.8666 3.7123m0 0 3e-4 -4e-4c0.0556-0.0672 0.1369-0.137 0.1986-0.1985l5e-4 -5e-4c0.1796-0.17954 0.3714-0.34076 0.5961-0.4635l7e-4 -3.6e-4c0.2248-0.12201 0.4705-0.1892 0.7285-0.24271l6e-4 -3.2e-4c0.0038-0.00273 0.0193-0.02132 0.0215-0.02178l5e-4 -1e-4c0.1737-0.0355 0.3456-0.0441 0.5298-0.0441h6e-4c0.0919-4e-5 0.175-0.00908 0.2646 0l1e-3 1e-4c1.3462 0.13723 2.4076 1.2912 2.4076 2.6736v6e-4c-3e-4 1.4747-1.1989 2.6731-2.6737 2.6731h-5e-4c-0.7373-1e-4 -1.3945-0.2902-1.8778-0.7734l-4e-4 -3e-4c-0.0618-0.0615-0.143-0.1313-0.1985-0.1985l-5e-4 -6e-4c-0.163-0.1977-0.296-0.4229-0.3972-0.6623l-2e-4 -5e-4c-0.135-0.3194-0.1987-0.6695-0.1987-1.0381v-6e-4c1e-4 -0.3686 0.0638-0.7186 0.1989-1.038l3e-4 -8e-4c0.1013-0.2393 0.2343-0.4645 0.3974-0.6622z"/>
		</g>
		<g id="al" transform="matrix(0 .2374 -.2374 0 115.29 6.8055)">
			<path id="n" d="m60.875 280.88c-13.237-0.0655-27.194 1.2819-38.531 3.3125-5.6684 1.0153-10.694 2.21-14.719 3.5312-4.0247 1.3213-7.0272 2.0904-9.5938 5.4062-4.0035 5.1723-4.3713 11.902-4.875 19.375s-0.40625 15.468-0.40625 21.188-0.097447 13.715 0.40625 21.188c0.5037 7.4726 0.87146 14.203 4.875 19.375 1.5794 2.0404 3.335 2.8872 5.375 3.8125s4.4165 1.7312 7.1562 2.5c5.4795 1.5377 12.389 2.8757 20 3.9062 15.222 2.0611 33.198 2.9002 47.844 0.9375 1.7595-0.23158 3.3496-1.4739 4-3.125 3.1641-7.9996 5.1911-18.152 6.7812-29.656v-37.875c-1.5902-11.504-3.6171-21.657-6.7812-29.656-0.65042-1.6511-2.2405-2.8934-4-3.125-5.4869-0.73531-11.418-1.0635-17.531-1.0938zm-38.875 41.562c6.2132 0 11.25 5.0368 11.25 11.25 0 3.1066-1.2454 5.9016-3.2812 7.9375-0.25944 0.26051-0.5287 0.51578-0.8125 0.75-0.83343 0.68781-1.7718 1.2605-2.7812 1.6875-1.3459 0.56928-2.8217 0.875-4.375 0.875s-3.0291-0.30572-4.375-0.875c-1.0094-0.42696-1.9478-0.99969-2.7812-1.6875-0.2838-0.23422-0.55306-0.48949-0.8125-0.75-0.75721-0.75721-1.42-1.6152-1.9375-2.5625-0.0044-8e-3 0.0044-0.0231 0-0.0312-0.51492-0.94789-0.89938-1.9748-1.125-3.0625-2e-3 -0.01 2e-3 -0.0213 0-0.0312-0.14986-0.73235-0.21875-1.4734-0.21875-2.25 0-0.38833 0.02409-0.77806 0.0625-1.1562 0.57611-5.6729 5.3626-10.094 11.188-10.094z" color="#000000" fill="url(#c)"/>
			<path id="ak" transform="matrix(-3.7777 -3.7777 3.7777 -3.7777 106.49 579.25)" d="m41.367 13.707c-1.4376-0.1831-8.0618 4.6278-11.25 8.8027 0.5854 1.3515 1.6221 2.929 2.9121 4.6328 1.3143-0.19508 2.275 0.029284 3.6387 1.1914 1.1621 1.3636 1.3865 2.3244 1.1914 3.6387 1.7038 1.29 3.2813 2.3267 4.6328 2.9121 0.7828-0.59778 1.5866-1.3151 2.377-2.0977 3.4248-3.3911 6.5726-7.9843 6.4238-9.1523-0.17873-1.4032-2.872-3.997-4.4004-5.5254s-4.1222-4.2236-5.5254-4.4023zm2.3164 4.4434c0.81079-1e-6 1.6216 0.31107 2.2402 0.92969 1.2372 1.2372 1.2372 3.2393 0 4.4766-1.2372 1.2372-3.2452 1.2372-4.4824 0s-1.2372-3.2393 0-4.4766c0.61861-0.61861 1.4314-0.92969 2.2422-0.92969z" fill="url(#d)"/>
			<path id="p" d="m88.75 314.44v38.531h70.531l2-4.25h86.031l11.125-10.25v-9.5312l-11.125-10.281h-86.031l-2-4.2188z" color="#000000" fill="#000000" fill-opacity=".18996"/>
			<path id="q" d="m115.78 333.59v19.375h43.5l2-4.25h86.031l11.125-10.25v-4.875z" color="#000000" fill="url(#e)"/>
			<path id="r" d="m115.78 314.44v19.156h142.66v-4.6562l-11.125-10.281h-86.031l-2-4.2188z" color="#000000" fill="url(#f)"/>
			<path id="aa" d="m88.75 314.44v38.531h70.531l0.90625-1.9375c-38.794-0.24759-50.016-14.156-36.969-14.156h135.06v-6.3438h-135.06c-13.047 0-1.8249-13.909 36.969-14.156l-0.90625-1.9375z" color="#000000" fill="url(#g)"/>
			<path id="h" d="m44.258 329.04h7.7335v-7.7335h-7.7335zm1.5467 15.467h4.6401v-4.6401h-4.6401zm0-7.7335h6.1868v-6.1868h-6.1868zm7.7335 7.7335h6.1868v-6.1868h-6.1868zm0-7.7335h6.1868v-6.1868h-6.1868zm0-7.7335h6.1868v-6.1868h-6.1868zm7.7335 17.014h7.7335v-7.7335h-7.7335zm0-9.2802h6.1868v-6.1868h-6.1868zm1.5467-9.2802h4.6401v-4.6401h-4.6401z" color="#000000" fill="#001e42" fill-opacity=".1362"/>
		</g>
	</g>
</svg>
