<?xml version="1.0" encoding="UTF-8" standalone="no"?>
<!-- Created with Inkscape (http://www.inkscape.org/) -->

<svg
   xmlns:dc="http://purl.org/dc/elements/1.1/"
   xmlns:cc="http://creativecommons.org/ns#"
   xmlns:rdf="http://www.w3.org/1999/02/22-rdf-syntax-ns#"
   xmlns:svg="http://www.w3.org/2000/svg"
   xmlns="http://www.w3.org/2000/svg"
   xmlns:sodipodi="http://sodipodi.sourceforge.net/DTD/sodipodi-0.dtd"
   xmlns:inkscape="http://www.inkscape.org/namespaces/inkscape"
   width="64"
   height="64"
   id="svg13094"
   version="1.1"
   inkscape:version="0.92.2 5c3e80d, 2017-08-06"
   sodipodi:docname="genymotion-player.svg">
  <sodipodi:namedview
     id="base"
     pagecolor="#ffffff"
     bordercolor="#666666"
     borderopacity="1.0"
     inkscape:pageopacity="0"
     inkscape:pageshadow="2"
     inkscape:zoom="8.0000004"
     inkscape:cx="28.234956"
     inkscape:cy="31.822128"
     inkscape:document-units="px"
     inkscape:current-layer="svg13094"
     showgrid="false"
     inkscape:snap-bbox="true"
     inkscape:bbox-paths="true"
     inkscape:bbox-nodes="true"
     inkscape:snap-bbox-edge-midpoints="true"
     inkscape:snap-bbox-midpoints="true"
     inkscape:object-paths="true"
     inkscape:snap-intersection-paths="true"
     inkscape:object-nodes="true"
     inkscape:snap-smooth-nodes="true"
     inkscape:snap-midpoints="true"
     inkscape:snap-object-midpoints="true"
     inkscape:snap-center="true"
     showguides="true"
     inkscape:guide-bbox="true"
     inkscape:window-width="1920"
     inkscape:window-height="1023"
     inkscape:window-x="-10"
     inkscape:window-y="35"
     inkscape:window-maximized="1"
     inkscape:snap-global="false"
     fit-margin-top="0"
     fit-margin-left="0"
     fit-margin-right="0"
     fit-margin-bottom="0"
     showborder="true"
     inkscape:showpageshadow="false"
     inkscape:snap-page="true">
    <inkscape:grid
       type="xygrid"
       id="grid3075"
       empspacing="5"
       visible="true"
       enabled="true"
       snapvisiblegridlinesonly="true"
       originx="0"
       originy="18"
       spacingx="1"
       spacingy="1" />
  </sodipodi:namedview>
  <defs
     id="defs13096" />
  <metadata
     id="metadata13099">
    <rdf:RDF>
      <cc:Work
         rdf:about="">
        <dc:format>image/svg+xml</dc:format>
        <dc:type
           rdf:resource="http://purl.org/dc/dcmitype/StillImage" />
        <dc:title />
      </cc:Work>
    </rdf:RDF>
  </metadata>
  <path
     id="path821"
     d="m 0,4 v 30 28 l 2,2 h 30 30 l 2,-2 V 34 4 H 32 Z"
     style="color:#000000;display:inline;overflow:visible;visibility:visible;fill:#e2c2e4;fill-opacity:1;fill-rule:nonzero;stroke:none;stroke-width:2.28571415;marker:none;enable-background:accumulate"
     inkscape:connector-curvature="0" />
  <path
     id="path823"
     d="M 2,0 0,1 V 4 H 32 64 V 1 L 62,0 H 32 Z"
     style="color:#000000;display:inline;overflow:visible;visibility:visible;fill:#f5e5f6;fill-opacity:1;fill-rule:nonzero;stroke:none;stroke-width:2.28571415;marker:none;enable-background:accumulate"
     inkscape:connector-curvature="0" />
  <path
     sodipodi:nodetypes="cccc"
     inkscape:connector-curvature="0"
     id="path825"
     d="M 0,3 V 6 L 2,4 Z"
     style="fill:#ffffff;fill-opacity:1;fill-rule:nonzero" />
  <path
     inkscape:connector-curvature="0"
     style="fill:#edd6ee;fill-opacity:1"
     id="path827"
     d="M 64,6 62,4 64,3 Z" />
  <g
     id="g3043"
     inkscape:export-filename="folder.png"
     inkscape:export-xdpi="90"
     inkscape:export-ydpi="90"
     transform="translate(-0.625,0.082283)" />
  <g
     id="scalable"
     transform="matrix(1.0385892,0,0,1.0385892,1214.7222,1878.8121)"
     inkscape:label="#g3701"
     style="fill:#ffffff" />
  <path
     sodipodi:nodetypes="ssssssss"
     inkscape:connector-curvature="0"
     id="path829"
     d="M 30.376193,57.998162 C 25.816754,57.699034 21.325114,56.041671 17.654615,53.304052 12.373775,49.36537 8.9424194,43.483165 8.1364729,36.987543 6.9526697,27.446594 11.507607,18.175962 19.785213,13.278946 25.22597,10.060201 31.705689,9.1322777 37.907557,10.683743 c 8.508448,2.128484 15.278889,8.898926 17.407368,17.407375 2.30656,9.220277 -0.919024,18.791517 -8.330868,24.720107 -4.659298,3.726884 -10.596883,5.581296 -16.607864,5.186937 z"
     style="fill:none;stroke:#e61a5f;stroke-width:0.99999994;stroke-miterlimit:4;stroke-dasharray:none;stroke-opacity:1" />
  <path
     inkscape:connector-curvature="0"
     style="opacity:1;vector-effect:none;fill:#e61a5f;fill-opacity:1;fill-rule:nonzero;stroke:none;stroke-width:0.99999994;stroke-linecap:butt;stroke-linejoin:miter;stroke-miterlimit:4;stroke-dasharray:none;stroke-dashoffset:0;stroke-opacity:1;marker:none;paint-order:normal"
     d="m 41.177388,23.322988 c -0.614013,0.0045 -1.292312,0.04305 -1.713737,0.107451 -1.4877,0.227393 -2.954622,0.833273 -4.275293,1.765738 -0.498591,0.352034 -1.420549,1.226188 -1.836987,1.741604 -1.011418,1.25182 -1.671043,2.726817 -1.969145,4.404003 -0.141623,0.796787 -0.153973,2.419639 -0.02501,3.268598 0.305542,2.011117 1.04474,3.748427 2.188352,5.143511 0.371705,0.453437 1.168187,1.217997 1.62209,1.557161 1.373781,1.026524 3.066349,1.67894 4.842705,1.866294 0.534749,0.0564 1.884919,0.0169 2.486573,-0.07269 1.923371,-0.286475 3.62725,-1.055684 4.998997,-2.256731 1.3985,-1.224468 2.455319,-3.045229 2.923841,-5.037211 0.196799,-0.836703 0.271482,-1.446834 0.300225,-2.447786 0.05176,-1.802112 -0.232258,-3.210208 -0.95182,-4.717447 -0.474341,-0.993585 -0.961231,-1.696881 -1.715462,-2.477663 -1.567789,-1.622994 -3.601162,-2.591189 -5.908872,-2.813231 -0.252946,-0.02432 -0.598062,-0.03415 -0.966474,-0.0316 z m 0.04884,2.022581 c 2.007588,0.01892 3.826384,0.743886 5.130582,2.064528 1.450156,1.468442 2.196755,3.606012 2.103604,6.023508 -0.137653,3.572361 -2.001937,6.290259 -5.003022,7.293657 -0.877141,0.293267 -2.137802,0.459318 -3.008019,0.396472 -1.818947,-0.131358 -3.35592,-0.792202 -4.580688,-1.969431 -1.28181,-1.23205 -2.030409,-2.783456 -2.293223,-4.753648 -0.111048,-0.832483 -0.07575,-2.325142 0.07126,-3.014629 0.722549,-3.388978 3.302376,-5.698143 6.708424,-6.00483 0.293557,-0.02643 0.584293,-0.03833 0.871087,-0.03563 z m -20.878862,1.948748 c -0.594047,-1.33e-4 -1.187184,0.03474 -1.574108,0.104866 -1.689275,0.306338 -3.255889,1.18491 -4.355452,2.442611 -1.645048,1.881646 -2.327995,4.571819 -1.809984,7.129896 0.477299,2.357028 2.024032,4.376897 4.124751,5.386282 1.400156,0.67276 2.931664,0.907574 4.698773,0.720255 3.251736,-0.344688 5.953005,-2.833635 6.610458,-6.090733 0.274898,-1.361905 0.245576,-2.559247 -0.09481,-3.879397 -0.778678,-3.020014 -3.049676,-5.173202 -6.020058,-5.708054 -0.390634,-0.07033 -0.985516,-0.105589 -1.579568,-0.105726 z m -0.07929,2.052174 c 2.494071,-0.03096 4.448612,1.28035 5.298937,3.570842 0.49122,1.323182 0.53609,2.967621 0.116931,4.278454 -0.631851,1.975981 -2.192358,3.368373 -4.251161,3.792628 -0.344874,0.07108 -1.456961,0.137196 -1.624099,0.09653 -0.03882,-0.0094 -0.22931,-0.0429 -0.423479,-0.07412 -0.801613,-0.128911 -1.743473,-0.525437 -2.459276,-1.035709 -1.394607,-0.994165 -2.207811,-2.58736 -2.281728,-4.470373 -0.06384,-1.62632 0.442566,-3.1698 1.416671,-4.318385 0.965658,-1.138634 2.298644,-1.754985 3.964149,-1.832683 0.08156,-0.0039 0.162602,-0.0062 0.243055,-0.0072 z"
     id="path832" />
  <path
     inkscape:connector-curvature="0"
     id="path834"
     d="m 41.22564,25.345508 c -0.286795,-0.0027 -0.577691,0.0094 -0.871248,0.03581 -3.406048,0.306687 -5.984864,2.615983 -6.707413,6.00496 -0.147005,0.689488 -0.182657,2.181932 -0.07161,3.014415 0.262815,1.970193 1.011395,3.521451 2.293206,4.753501 0.110652,0.106358 0.226973,0.203864 0.342702,0.301783 -0.958419,-1.132066 -1.53905,-2.503821 -1.762955,-4.182331 -0.111049,-0.832483 -0.0754,-2.324927 0.07161,-3.014415 0.722549,-3.388977 3.301365,-5.698273 6.707413,-6.00496 0.293557,-0.02643 0.584453,-0.03852 0.871247,-0.03581 1.751327,0.0165 3.359177,0.57121 4.606872,1.589047 -0.113443,-0.134848 -0.224038,-0.271923 -0.347817,-0.397262 -1.304198,-1.320641 -3.124419,-2.045821 -5.132007,-2.064738 z m 7.097855,1.123586 c 0.598973,0.6668 1.031656,1.31158 1.444123,2.175561 0.719562,1.507239 1.004844,2.915584 0.953087,4.717696 -0.02874,1.000952 -0.104984,1.611657 -0.301783,2.448361 -0.468522,1.991981 -1.523845,3.81206 -2.922345,5.036528 -1.371747,1.201047 -3.075646,1.970926 -4.999017,2.257402 -0.601654,0.08959 -1.952826,0.129715 -2.487575,0.07331 -1.776356,-0.187354 -3.468378,-0.840435 -4.842159,-1.86696 -0.156283,-0.116777 -0.373508,-0.318805 -0.579695,-0.50638 0.405434,0.456738 1.047806,1.076829 1.452648,1.379333 1.373781,1.026525 3.065802,1.679606 4.842159,1.86696 0.534749,0.0564 1.885921,0.01628 2.487574,-0.07331 1.923372,-0.286475 3.62727,-1.056355 4.999018,-2.257401 1.3985,-1.224469 2.453822,-3.044547 2.922345,-5.036529 0.196798,-0.836703 0.27304,-1.447409 0.301782,-2.44836 0.05176,-1.802112 -0.233524,-3.210457 -0.953086,-4.717696 -0.474341,-0.993585 -0.960985,-1.696562 -1.715216,-2.477344 -0.193723,-0.200544 -0.394281,-0.390794 -0.60186,-0.57117 z M 20.267957,29.34711 c -0.08045,9.6e-4 -0.160548,0.0029 -0.242108,0.0068 -1.665505,0.0777 -3.000138,0.694227 -3.965797,1.83286 -0.974105,1.148585 -1.478976,2.692409 -1.415137,4.318729 0.0702,1.78841 0.813109,3.307856 2.081787,4.3085 -0.731452,-0.931011 -1.156731,-2.108243 -1.208834,-3.435547 -0.06384,-1.626321 0.441032,-3.170144 1.415137,-4.318729 0.965658,-1.138633 2.300291,-1.755163 3.965797,-1.83286 0.08156,-0.0039 0.161655,-0.0058 0.242108,-0.0068 1.408237,-0.01749 2.634949,0.405122 3.59752,1.178145 -1.025209,-1.33974 -2.595439,-2.074376 -4.470473,-2.051098 z m 6.059519,0.600155 c 0.742869,0.884617 1.306979,1.948054 1.619736,3.161044 0.340388,1.32015 0.368673,2.516938 0.09378,3.878843 -0.657453,3.257098 -3.358493,5.747227 -6.61023,6.091915 -1.767109,0.187319 -3.298784,-0.04845 -4.69894,-0.721209 -0.54339,-0.261096 -1.046872,-0.592294 -1.507207,-0.976958 0.662739,0.768942 1.463824,1.409616 2.38016,1.84991 1.400156,0.672761 2.931831,0.908529 4.69894,0.721209 3.251736,-0.344688 5.952776,-2.834816 6.610229,-6.091915 0.274898,-1.361904 0.246614,-2.558692 -0.09377,-3.878842 -0.424993,-1.648286 -1.307536,-3.02432 -2.492689,-4.033997 z"
     style="opacity:1;vector-effect:none;fill:#250025;fill-opacity:0.08497314;fill-rule:nonzero;stroke:none;stroke-width:0.99999994;stroke-linecap:butt;stroke-linejoin:miter;stroke-miterlimit:4;stroke-dasharray:none;stroke-dashoffset:0;stroke-opacity:1;marker:none;paint-order:normal" />
</svg>
