<?xml version="1.0" encoding="UTF-8"?>
<!-- Created with Inkscape (http://www.inkscape.org/) -->
<svg width="64" height="64" version="1.1" xmlns="http://www.w3.org/2000/svg" xmlns:cc="http://creativecommons.org/ns#" xmlns:dc="http://purl.org/dc/elements/1.1/" xmlns:rdf="http://www.w3.org/1999/02/22-rdf-syntax-ns#">
	<defs>
		<radialGradient id="b" cx="18.161" cy="21.075" r="32" gradientTransform="matrix(1.8449,0,0,1.8449,-10.998,-11.484)" gradientUnits="userSpaceOnUse">
			<stop stop-color="#294c79" offset="0"/>
			<stop stop-color="#27456a" offset="1"/>
		</radialGradient>
		<radialGradient id="a" cx="29.445" cy="61.742" r="26" gradientTransform="matrix(1.963,0,0,1.9945,-26.567,-68.247)" gradientUnits="userSpaceOnUse">
			<stop stop-color="#37c198" stop-opacity=".7451" offset="0"/>
			<stop stop-color="#4a6ad5" offset="1"/>
		</radialGradient>
	</defs>
	<metadata>
		<rdf:RDF>
			<cc:Work rdf:about="">
				<dc:format>image/svg+xml</dc:format>
				<dc:type rdf:resource="http://purl.org/dc/dcmitype/StillImage"/>
				<dc:title/>
			</cc:Work>
		</rdf:RDF>
	</metadata>
	<path d="m0 1 2-1h60l2 1v59s-16 4-32 4-32-4-32-4z" color="#000000" fill="url(#b)"/>
	<path d="m0 1 2-1h60l2 1v1h-64z" color="#000000" fill="#9bb4d3"/>
	<path d="m64 4-2-2 2-1z" fill="#607794"/>
	<path d="m0 4 2-2-2-1z" fill="#c8d9ee"/>
	<path d="m5 7h54v49h-54z" color="#000000" fill="#1d8ee8"/>
	<path d="m5 7h54v49h-54z" color="#000000" fill="url(#a)"/>
	<path d="m29.508 57.008v1.0678h1.0678v-1.0678zm3.5593 0v1.4237h1.4237v-1.4237zm-1.7797 0.35593v1.0678h1.4237v-1.0678zm-1.4237 1.4237v1.4237h1.0678v-1.4237zm1.4237 0v1.4237h1.4237v-1.4237zm1.7797 0v1.4237h1.0678v-1.4237zm-3.5593 1.7797v1.4237h1.4237v-1.4237zm1.7797 0v1.0678h1.4237v-1.0678zm2.1356 0.35593v1.0678h1.0678v-1.0678z" color="#000000" fill="#edeff3" fill-opacity=".23183"/>
	<path d="m9 11v19 2 19h22 2 22v-1-19-20h-22zm2 2h20v17h-20zm22 0h20v17h-20zm-22 19h20v17h-20zm22 0h20v17h-20z" color="#000000" color-rendering="auto" fill="#d4fbc1" image-rendering="auto" shape-rendering="auto" solid-color="#000000" style="isolation:auto;mix-blend-mode:normal;shape-padding:0;text-decoration-color:#000000;text-decoration-line:none;text-decoration-style:solid;text-indent:0;text-transform:none;white-space:normal"/>
</svg>
