<?xml version="1.0" encoding="UTF-8"?>
<!-- Created with Inkscape (http://www.inkscape.org/) -->
<svg width="64" height="64" version="1.1" xmlns="http://www.w3.org/2000/svg" xmlns:cc="http://creativecommons.org/ns#" xmlns:dc="http://purl.org/dc/elements/1.1/" xmlns:rdf="http://www.w3.org/1999/02/22-rdf-syntax-ns#" xmlns:xlink="http://www.w3.org/1999/xlink">
	<defs>
		<linearGradient id="a-6">
			<stop stop-color="#fff" stop-opacity=".07" offset="0"/>
			<stop stop-color="#fff" stop-opacity=".001" offset="1"/>
		</linearGradient>
		<radialGradient id="e-5-6-5" cx="35.574" cy="1.019" r="32" gradientTransform="matrix(0,1.1252,-5.1753,0,37.271,-39.029)" gradientUnits="userSpaceOnUse" xlink:href="#a-6"/>
		<radialGradient id="f-6-9-9" cx="35.574" cy="1.036" r="32" gradientTransform="matrix(0,1.1252,-5.1753,0,37.363,-39.029)" gradientUnits="userSpaceOnUse" xlink:href="#a-6"/>
		<radialGradient id="g-2-1-1" cx="35.574" cy="1.055" r="32" gradientTransform="matrix(0,1.1252,-5.1753,0,37.458,-39.029)" gradientUnits="userSpaceOnUse" xlink:href="#a-6"/>
		<radialGradient id="h-2-3-2" cx="35.574" cy="1.071" r="32" gradientTransform="matrix(0,1.1252,-5.1753,0,37.544,-39.029)" gradientUnits="userSpaceOnUse" xlink:href="#a-6"/>
		<radialGradient id="i-7-7" cx="35.574" cy="1.091" r="32" gradientTransform="matrix(0,1.1252,-5.1753,0,37.648,-39.029)" gradientUnits="userSpaceOnUse" xlink:href="#a-6"/>
		<radialGradient id="j-0-0" cx="35.574" cy="1.113" r="32" gradientTransform="matrix(0,1.1252,-5.1753,0,37.758,-39.029)" gradientUnits="userSpaceOnUse" xlink:href="#a-6"/>
		<radialGradient id="k-9-9" cx="35.574" cy="1.135" r="32" gradientTransform="matrix(0,1.1252,-5.1753,0,37.875,-39.029)" gradientUnits="userSpaceOnUse" xlink:href="#a-6"/>
		<radialGradient id="l-3-3" cx="35.574" cy="1.159" r="32" gradientTransform="matrix(0,1.1252,-5.1753,0,38,-39.029)" gradientUnits="userSpaceOnUse" xlink:href="#a-6"/>
		<radialGradient id="m-6-6" cx="35.574" cy="1.18" r="32" gradientTransform="matrix(0,1.1252,-5.1753,0,38.107,-39.029)" gradientUnits="userSpaceOnUse" xlink:href="#a-6"/>
		<radialGradient id="n-0" cx="35.574" cy="1.208" r="32" gradientTransform="matrix(0,1.1252,-5.1753,0,38.252,-39.029)" gradientUnits="userSpaceOnUse" xlink:href="#a-6"/>
		<radialGradient id="o-6-0" cx="35.574" cy="1.239" r="32" gradientTransform="matrix(0,1.1252,-5.1753,0,38.411,-39.029)" gradientUnits="userSpaceOnUse" xlink:href="#a-6"/>
		<radialGradient id="p-2-6" cx="35.574" cy="1.273" r="32" gradientTransform="matrix(0,1.1252,-5.1753,0,38.587,-39.029)" gradientUnits="userSpaceOnUse" xlink:href="#a-6"/>
		<radialGradient id="q-6" cx="35.574" cy="1.304" r="32" gradientTransform="matrix(0,1.1252,-5.1753,0,38.75,-39.029)" gradientUnits="userSpaceOnUse" xlink:href="#a-6"/>
		<radialGradient id="r-1-2" cx="35.574" cy="1.346" r="32" gradientTransform="matrix(0,1.1252,-5.1753,0,38.966,-39.029)" gradientUnits="userSpaceOnUse" xlink:href="#a-6"/>
		<radialGradient id="s-8-6" cx="35.574" cy="1.393" r="32" gradientTransform="matrix(0,1.1252,-5.1753,0,39.208,-39.029)" gradientUnits="userSpaceOnUse" xlink:href="#a-6"/>
		<radialGradient id="t-7-1" cx="35.574" cy="1.439" r="32" gradientTransform="matrix(0,1.1252,-5.1753,0,39.446,-39.027)" gradientUnits="userSpaceOnUse" xlink:href="#a-6"/>
		<radialGradient id="radialGradient869-8" cx="32" cy="15.077" r="32" gradientTransform="matrix(1 0 0 .014897 0 1.2172)" gradientUnits="userSpaceOnUse">
			<stop stop-color="#fff" stop-opacity=".667" offset="0"/>
			<stop stop-color="#fff" stop-opacity=".001" offset="1"/>
		</radialGradient>
	</defs>
	<metadata>
		<rdf:RDF>
			<cc:Work rdf:about="">
				<dc:format>image/svg+xml</dc:format>
				<dc:type rdf:resource="http://purl.org/dc/dcmitype/StillImage"/>
			</cc:Work>
		</rdf:RDF>
	</metadata>
	<g>
		<rect width="64" height="64" rx="1" ry="1" fill="#b7c4e3" paint-order="fill markers stroke"/>
		<g>
			<g>
				<g transform="translate(8.0016e-5 .057009)">
					<path transform="translate(0 .002)" d="m1 0c-0.554 0-1 0.446-1 1v62-0.224 0.224-62h1.752c19.15 2e-3 39.445 0 60.213 0h2.035v62-0.334 0.334-62c0.0011-0.55274-0.44726-1.0011-1-1z" fill="url(#e-5-6-5)"/>
					<path transform="translate(0 .002)" d="m1 0c-0.5551-0.0011303-1.0045 0.45091-1 1.006v61.98-0.197c0-0.277 4e-3 -0.184 0.01 0.246 0.012 0.016 0.03-0.297 0.052-0.897v-61c0.072-9e-3 0.133-0.013 0.185-0.013 0.29-0.016 0.357-0.032 0.774-0.044 0.246-0.011 0.496-0.019 0.747-0.019 19.183 2e-3 39.392 0 60.2 0 0.346 0 0.689 0.012 1.023 0.03 0.268 0.01 0.389 0.02 0.52 0.033 0.106 0 0.22 0.01 0.427 0.028v60.744c0.027 0.754 0.05 1.148 0.059 1.123l3e-3 -0.334v0.286-61.762c0-0.143 0-0.22-2e-3 -0.224-0.005475-0.55246-0.45958-0.9949-1.012-0.986h-61.986" fill="url(#f-6-9-9)"/>
					<path transform="translate(0 .002)" d="m1 0c-0.5551-0.0011303-1.0045 0.45091-1 1.006v61.966-0.169c0-0.245 8e-3 -0.145 0.021 0.266 0.022 0.034 0.06-0.247 0.104-0.807v-60.988c0.056484-0.015102 0.11455-0.023493 0.173-0.025 0.27-0.031 0.341-0.064 0.743-0.088 0.242-0.022 0.492-0.037 0.742-0.037 19.217 2e-3 39.34 0 60.187 0 0.347 0 0.69 0.024 1.013 0.06 0.256 0.02 0.372 0.042 0.494 0.065 0.1 0 0.206 0.02 0.398 0.057v60.731c0.055 0.703 0.102 1.052 0.119 1.003 4e-3 -0.154 6e-3 -0.265 6e-3 -0.333v0.237-61.748c0-0.139 0-0.215-3e-3 -0.224-0.011441-0.46771-0.34748-0.86412-0.807-0.952-0.071417-0.014359-0.14416-0.021063-0.217-0.02h-61.973" fill="url(#g-2-1-1)"/>
					<path transform="translate(0 .002)" d="m1 0c-0.55471-0.0011253-1.0039 0.45031-1 1.005v61.953-0.14c0-0.213 0.012-0.107 0.031 0.287 0.034 0.05 0.091-0.198 0.156-0.718v-60.974c0.050612-0.022043 0.10485-0.034585 0.16-0.037 0.252-0.048 0.327-0.097 0.715-0.132 0.238-0.034 0.487-0.056 0.737-0.056 19.25 2e-3 39.286 0 60.173 0 0.348 0 0.688 0.036 1.001 0.09 0.244 0.029 0.356 0.062 0.47 0.098 0.091 0 0.19 0.03 0.37 0.085v60.718c0.082 0.653 0.151 0.957 0.176 0.884 7e-3 -0.152 0.01-0.262 0.01-0.333v0.188-61.734c0-0.135 0-0.21-4e-3 -0.224-0.017399-0.46717-0.35861-0.85879-0.819-0.94-0.071505-0.013569-0.14424-0.019602-0.217-0.018h-61.96" fill="url(#h-2-3-2)"/>
					<path transform="translate(0 .002)" d="m1 0c-0.55471-0.0011253-1.0039 0.45031-1 1.005v61.939-0.113c0-0.18 0.015-0.068 0.042 0.308 0.045 0.067 0.121-0.149 0.208-0.629v-60.96c0.044295-0.028947 0.095225-0.046153 0.148-0.05 0.232-0.063 0.311-0.128 0.684-0.176 0.234-0.044 0.483-0.074 0.732-0.074 19.284 2e-3 39.234 0 60.16 0 0.35 0 0.689 0.048 0.991 0.12 0.232 0.039 0.34 0.083 0.444 0.13 0.085 0 0.176 0.04 0.341 0.114v60.704c0.11 0.603 0.203 0.862 0.236 0.764 0.0082-0.11082 0.01287-0.22188 0.014-0.333v0.14-61.721c0-0.13-2e-3 -0.206-6e-3 -0.224-0.024028-0.46583-0.36965-0.85184-0.83-0.927-0.072548-0.013262-0.14628-0.018959-0.22-0.017h-61.944" fill="url(#i-7-7)"/>
					<path transform="translate(0 .002)" d="m1 0c-0.55431-0.0011209-1.0033 0.4497-1 1.004v61.926-0.084c0-0.148 0.02-0.029 0.052 0.328 0.056 0.084 0.152-0.099 0.26-0.539v-60.949c0.053-0.04 0.097-0.061 0.136-0.061 0.212-0.08 0.297-0.16 0.655-0.22 0.23-0.056 0.477-0.093 0.727-0.093 19.317 2e-3 39.18 0 60.147 0 0.35 0 0.688 0.06 0.98 0.151 0.22 0.047 0.322 0.102 0.418 0.162 0.078 0 0.162 0.049 0.313 0.142v60.69c0.137 0.553 0.253 0.767 0.295 0.645 0.0096-0.11043 0.01523-0.22117 0.017-0.332v0.09-61.705c0-0.126-2e-3 -0.202-7e-3 -0.224-0.03077-0.46514-0.38186-0.8458-0.843-0.914-0.071921-0.0129-0.14495-0.018594-0.218-0.017h-61.932" fill="url(#j-0-0)"/>
					<path transform="translate(0 .002)" d="m1 0c-0.55431-0.0011209-1.0033 0.4497-1 1.004v61.912-0.056c0-0.117 0.023 0.01 0.063 0.349 0.067 0.1 0.182-0.05 0.312-0.45v-60.935c0.048-0.049 0.088-0.074 0.123-0.074 0.193-0.095 0.282-0.192 0.626-0.264 0.225-0.067 0.472-0.11 0.721-0.11h60.133c0.352 0 0.688 0.071 0.97 0.18 0.1444 0.03294 0.27903 0.099398 0.393 0.194 0.07 0 0.147 0.059 0.284 0.17v60.68c0.164 0.502 0.304 0.671 0.354 0.524 0.014-0.14 0.02-0.25 0.02-0.331v0.042-61.695c0-0.121-2e-3 -0.197-9e-3 -0.224-0.037172-0.46407-0.39266-0.83953-0.854-0.902-0.072052-0.011622-0.14505-0.01631-0.218-0.014h-61.918" fill="url(#k-9-9)"/>
					<path transform="translate(0 .002)" d="m1 0c-0.55431-0.0011209-1.0033 0.4497-1 1.004v61.898-0.029c0-0.084 0.027 0.049 0.073 0.37 0.079 0.117 0.212 0 0.365-0.36v-60.923c0.043-0.057 0.079-0.086 0.11-0.086 0.174-0.112 0.267-0.225 0.596-0.309 0.23012-0.082729 0.47247-0.12633 0.717-0.129 19.385 2e-3 39.075 0 60.12 0 0.353 0 0.687 0.084 0.958 0.211 0.14097 0.040924 0.26817 0.11939 0.368 0.227 0.063 0 0.132 0.068 0.256 0.199v60.665c0.192 0.452 0.354 0.576 0.413 0.404 0.01385-0.1095 0.02186-0.21965 0.024-0.33v-61.687c0-0.117-4e-3 -0.193-0.01-0.224-0.043775-0.464-0.40524-0.83463-0.868-0.89-0.071851-0.010232-0.14448-0.013914-0.217-0.011h-61.905" fill="url(#l-3-3)"/>
					<path transform="translate(0 .002)" d="m1 0c-0.55392-0.001117-1.0028 0.44909-1 1.003v61.885c0-0.052 0.03 0.087 0.084 0.39 0.09 0.135 0.242 0.05 0.416-0.27v-60.911c0.038-0.063 0.07-0.097 0.099-0.097 0.154-0.127 0.251-0.257 0.566-0.352 0.217-0.089 0.463-0.148 0.711-0.148 19.418 2e-3 39.022 0 60.107 0 0.355 0 0.687 0.096 0.947 0.242 0.13781 0.049299 0.25742 0.13926 0.343 0.258 0.056 0 0.118 0.079 0.227 0.227v60.651c0.22 0.402 0.406 0.482 0.473 0.285 0.018-0.132 0.027-0.243 0.027-0.33v-61.721c0-0.113-4e-3 -0.188-0.012-0.224-0.050481-0.46258-0.4163-0.82757-0.879-0.877-0.072218-0.0099014-0.14515-0.013582-0.218-0.011h-61.89" fill="url(#m-6-6)"/>
					<path transform="translate(0 .002)" d="m1 0c-0.55392-0.001117-1.0028 0.44909-1 1.003v61.899c0-0.02 0.035 0.126 0.094 0.41 0.101 0.152 0.273 0.1 0.468-0.18v-60.897c0.034-0.073 0.062-0.11 0.087-0.11 0.135-0.143 0.236-0.29 0.536-0.397 0.213-0.1 0.459-0.166 0.707-0.166 19.452 2e-3 38.969 0 60.093 0 0.356 0 0.687 0.108 0.936 0.272 0.13431 0.059746 0.24556 0.16152 0.317 0.29 0.05 0 0.103 0.089 0.2 0.256v60.64c0.246 0.352 0.455 0.386 0.531 0.165 0.02-0.128 0.03-0.239 0.03-0.33v-61.755c0-0.108-4e-3 -0.184-0.013-0.224-0.0572-0.46153-0.42793-0.82103-0.891-0.864-0.07229-0.0090995-0.14518-0.012443-0.218-0.01h-61.877" fill="url(#n-0)"/>
					<path transform="translate(0 .002)" d="m1 0c-0.55353-0.0011137-1.0022 0.44848-1 1.002v61.913c0 0.013 0.039 0.165 0.105 0.432 0.112 0.168 0.303 0.148 0.52-0.092v-60.882c0.029-0.081 0.053-0.123 0.074-0.123 0.116-0.159 0.222-0.321 0.507-0.44 0.21532-0.11731 0.45583-0.18078 0.701-0.185 19.486 2e-3 38.916 0 60.08 0 0.357 0 0.687 0.12 0.925 0.302 0.13107 0.071535 0.23401 0.1854 0.292 0.323 0.043 0 0.089 0.098 0.171 0.284v60.626c0.275 0.302 0.507 0.29 0.591 0.046 0.022-0.125 0.034-0.236 0.034-0.33v-61.791c0-0.104-5e-3 -0.18-0.016-0.224-0.063414-0.4609-0.4392-0.81546-0.903-0.852-0.07238-0.0079052-0.14524-0.010579-0.218-8e-3h-61.863" fill="url(#o-6-0)"/>
					<path transform="translate(0 .002)" d="m1 0c-0.55353-0.0011137-1.0022 0.44848-1 1.002v61.928c0 0.045 0.042 0.203 0.115 0.453 0.123 0.184 0.333 0.197 0.572-3e-3v-60.87c0.024-0.089 0.045-0.135 0.062-0.135 0.097-0.174 0.207-0.353 0.478-0.484 0.204-0.122 0.448-0.203 0.696-0.203 19.519 2e-3 38.863 0 60.067 0 0.33455-0.0021 0.65879 0.11568 0.914 0.332 0.15 0.103 0.224 0.225 0.267 0.355 0.035 0 0.073 0.108 0.142 0.313v60.612c0.302 0.251 0.557 0.196 0.65-0.074 0.02307-0.10853 0.03547-0.21906 0.037-0.33v-61.825c0-0.1-6e-3 -0.175-0.017-0.224-0.069565-0.46031-0.45044-0.80996-0.915-0.84-0.072444-0.0069646-0.14526-0.0093027-0.218-7e-3h-61.85" fill="url(#p-2-6)"/>
					<path transform="translate(0 .002)" d="m1 0c-0.55353-0.0011137-1.0022 0.44848-1 1.002v61.942c0 0.077 0.046 0.242 0.126 0.473 0.134 0.201 0.363 0.246 0.624 0.086v-60.856c0.02-0.097 0.035-0.147 0.05-0.147 0.079731-0.22481 0.23864-0.41288 0.447-0.529 0.2-0.133 0.444-0.221 0.691-0.221 19.553 2e-3 38.811 0 60.053 0 0.36 0 0.686 0.144 0.903 0.362 0.12254 0.097958 0.20793 0.23486 0.242 0.388 0.028 0 0.059 0.118 0.114 0.341v60.598c0.33 0.2 0.608 0.1 0.709-0.194 0.026-0.117 0.04-0.228 0.04-0.329v-61.86c0-0.095-6e-3 -0.17-0.018-0.224-0.076427-0.45917-0.46212-0.80326-0.927-0.827-0.072523-0.0056002-0.1453-0.0072693-0.218-5e-3h-61.836" fill="url(#q-6)"/>
					<path transform="translate(0 .002)" d="m1 0c-0.55314-0.001111-1.0017 0.44787-1 1.001v61.956c0 0.11 0.05 0.281 0.136 0.494 0.146 0.218 0.394 0.296 0.677 0.176v-60.843c0.014-0.105 0.026-0.16 0.036-0.16 0.062205-0.23684 0.21195-0.44126 0.419-0.572 0.196-0.144 0.439-0.24 0.686-0.24 19.586 2e-3 38.758 0 60.04 0 0.36 0 0.685 0.156 0.892 0.392 0.11655 0.1122 0.19253 0.25993 0.216 0.42 0.021 0 0.044 0.128 0.086 0.37v60.585c0.356 0.15 0.658 5e-3 0.768-0.314 0.029-0.114 0.044-0.224 0.044-0.328v-61.895c0-0.09-7e-3 -0.166-0.02-0.224-0.083295-0.45841-0.47439-0.79708-0.94-0.814-0.072228-0.0047776-0.14463-0.0064458-0.217-5e-3h-61.823" fill="url(#r-1-2)"/>
					<path transform="translate(0 .002)" d="m1 0c-0.55274-0.0011088-1.0011 0.44726-1 1v61.972c0 0.142 0.054 0.32 0.147 0.515 0.15624 0.24102 0.45338 0.34918 0.728 0.265v-60.83c0.01-0.114 0.018-0.172 0.025-0.172 0.044459-0.24844 0.184-0.46977 0.389-0.617 0.192-0.155 0.434-0.258 0.68-0.258 19.62 2e-3 38.705 0 60.027 0 0.362 0 0.686 0.168 0.882 0.422 0.10963 0.12712 0.17614 0.28571 0.19 0.453 0.015 0 0.03 0.137 0.057 0.398v60.572c0.385 0.1 0.71-0.09 0.828-0.434 0.03-0.11 0.047-0.22 0.047-0.328v-61.93c0-0.086-7e-3 -0.161-0.021-0.224-0.089858-0.45718-0.48521-0.79059-0.951-0.802-0.072962-0.0029106-0.146-0.0035776-0.219-2e-3h-61.809" fill="url(#s-8-6)"/>
					<path d="m0.99984 2e-3c-0.55274-0.0011088-1.0011 0.44726-1 1v61.986c0 0.174 0.058 0.358 0.157 0.535 0.16968 0.25897 0.47327 0.39714 0.78 0.355v-60.816c5e-3 -0.122 0.01-0.185 0.013-0.185 0.028233-0.25888 0.15763-0.49611 0.36-0.66 0.187-0.166 0.429-0.277 0.675-0.277 19.653 2e-3 38.652 0 60.013 0 0.363 0 0.685 0.18 0.87 0.452 0.10246 0.1415 0.16026 0.3104 0.166 0.485 7e-3 0 0.015 0.147 0.028 0.427v60.558c0.412 0.05 0.76-0.186 0.887-0.553 0.03316-0.10618 0.05001-0.21677 0.05-0.328v-61.965c0.01002-0.55281-0.43213-1.008-0.985-1.014-0.07299-0.0011985-0.146-0.0011985-0.219 0h-61.795" fill="url(#t-7-1)"/>
					<path d="m1 0.0019531c-0.55274-0.0011088-1.0011 0.44726-1 1v1h64v-0.998c0.0011-0.55274-0.44726-1.0011-1-1h-62z" fill="url(#radialGradient869-8)"/>
				</g>
				<path d="m0 1v2.5l2-2z" fill="#fffeff" fill-opacity=".4499"/>
				<path d="m64 3.5-2-2 2-0.5z" fill="#fffeff" fill-opacity=".4499"/>
			</g>
		</g>
	</g>
	<g transform="translate(0,1)" fill="#0b0335" fill-opacity=".05" opacity=".24381">
		<path d="m32.831 10.8c-10.285 0-19.166 5.9227-23.487 14.519-1.7982 3.5526-2.8294 7.5425-2.8294 11.797 0 4.2544 1.0312 8.2469 2.8294 11.8 4.3202 8.5965 13.202 14.516 23.487 14.516 7.1052 0 13.047-2.3684 17.389-6.3816 4.9561-4.5833 7.8083-11.338 7.8083-19.343 0-1.7324-0.3429-6.2683-2.0775-9.5098l-25.403 0.031v10.008l9.2801 0.0501c-0.6585 1.1431-1.1768 1.6281-2.0447 2.1243-1.3288 0.8858-3.0138 1.4282-5.0069 1.4282-3.8509 0-7.1645-2.6497-8.3287-6.142-0.3063-0.8823-0.4191-1.7942-0.4191-2.7785 0-0.9842 0.1718-1.9315 0.4671-2.8173 1.1688-3.5064 4.4298-6.1016 8.2807-6.1016 2.1776 0 5.9659 2.8324 7.5038 4.2964l12.222-8.2797c-4.5395-4.2544-12.566-9.2167-19.672-9.2167z" opacity="1"/>
		<path d="m32.819 11.663c-9.4522 0-17.614 5.4431-21.585 13.343-1.6526 3.2649-2.6002 6.9316-2.6002 10.841 0 3.9099 0.94767 7.5791 2.6002 10.844 3.9703 7.9003 12.132 13.341 21.585 13.341 6.5298 0 11.99-2.1767 15.98-5.8648 4.5547-4.2122 7.176-10.42 7.176-17.776 0-1.5921-0.274-5.1283-1.5465-7.7488l-23.209 0.0217v9.1714l9.6011 0.0351c-0.6002 1.51-1.3706 2.4489-2.5825 3.2039-1.4483 0.9656-3.2851 1.5568-5.4576 1.5568-4.1976 0-7.7891-2.8677-9.0598-6.6799-0.3344-0.9631-0.4756-1.9709-0.4756-3.0437 0-1.0729 0.1873-2.1054 0.5091-3.071 1.2741-3.822 4.8287-6.651 9.0263-6.651 2.3737 0 5.7842 2.276 7.4605 3.8719l10.201-7.4389c-4.1719-3.9099-11.093-7.956-17.623-7.956z" opacity="1"/>
		<path d="m32.815 11.967c-9.1591 0-17.068 5.2744-20.916 12.93-1.6014 3.1637-2.5197 6.7168-2.5197 10.506 0 3.7886 0.91827 7.3441 2.5197 10.508 3.8473 7.6554 11.756 12.927 20.916 12.927 6.3275 0 11.618-2.1092 15.485-5.683 4.4136-4.0816 6.9535-10.097 6.9535-17.225 0-1.5428-0.2496-4.7275-1.3596-7.1295l-22.438 0.0185v8.8771l9.7139 0.0298c-0.5798 1.6391-1.4388 2.7376-2.7716 3.5836-1.4904 0.9937-3.3805 1.602-5.6162 1.602-4.3195 0-8.0087-2.9443-9.317-6.869-0.3442-0.9915-0.4953-2.033-0.4953-3.137 0-1.1041 0.1927-2.1666 0.5239-3.1602 1.311-3.9331 4.9689-6.8442 9.2884-6.8442 2.4427 0 5.7203 2.0803 7.4454 3.7225l9.4894-7.1432c-4.0426-3.7886-10.575-7.5125-16.902-7.5125z" opacity="1"/>
		<path d="m32.812 12.192c-8.9421 0-16.664 5.1493-20.42 12.623-1.5635 3.0888-2.46 6.5576-2.46 10.256s0.89652 7.1701 2.46 10.259c3.756 7.474 11.478 12.621 20.42 12.621 6.1775 0 11.343-2.0591 15.118-5.5483 4.309-3.9848 6.7887-9.8579 6.7887-16.817 0-1.5062-0.2317-4.4303-1.2212-6.6705l-21.866 0.016v8.6591l9.7975 0.0259c-0.5645 1.7347-1.4892 2.9516-2.9117 3.865-1.5216 1.0144-3.4512 1.6355-5.7336 1.6355-4.4099 0-8.1715-3.0011-9.5075-7.0092-0.3516-1.0126-0.5101-2.079-0.5101-3.2062 0-1.1271 0.1967-2.2118 0.5348-3.2262 1.3385-4.0154 5.0729-6.9874 9.4828-6.9874 2.4937 0 5.6729 1.9353 7.434 3.6119l8.9626-6.9241c-3.9468-3.6988-10.191-7.1839-16.368-7.1839z" opacity="1"/>
		<path d="m32.809 12.377c-8.7631 0-16.33 5.0463-20.011 12.371-1.5322 3.027-2.4108 6.4264-2.4108 10.051 0 3.6248 0.8786 7.0266 2.4108 10.054 3.6809 7.3245 11.248 12.368 20.011 12.368 6.0539 0 11.116-2.018 14.816-5.4373 4.2227-3.9051 6.6529-9.6607 6.6529-16.481 0-1.4761-0.2169-4.1855-1.1072-6.2922l-21.395 0.0141v8.4793l9.8665 0.0226c-0.552 1.8136-1.5309 3.1279-3.0272 4.097-1.5473 1.0315-3.5095 1.6631-5.8305 1.6631-4.4843 0-8.3056-3.0479-9.6646-7.1247-0.3576-1.03-0.5221-2.117-0.5221-3.2632 0-1.1461 0.2-2.2492 0.5438-3.2807 1.3611-4.0832 5.1586-7.1054 9.6429-7.1054 2.5359 0 5.6339 1.8157 7.4248 3.5206l8.5282-6.7434c-3.8678-3.6248-9.8744-6.9131-15.928-6.9131z" opacity="1"/>
		<path d="m32.807 12.538c-8.6081 0-16.041 4.957-19.657 12.152-1.505 2.9734-2.3681 6.3127-2.3681 9.8734 0 3.5608 0.8631 6.9023 2.3681 9.8757 3.6158 7.1948 11.049 12.15 19.657 12.15 5.9468 0 10.919-1.9823 14.554-5.3411 4.148-3.836 6.5352-9.4897 6.5352-16.189 0-1.45-0.2041-3.9733-1.0084-5.9644l-20.987 0.0123v8.3235l9.9262 0.0199c-0.5412 1.8819-1.5669 3.2807-3.1273 4.2979-1.5696 1.0464-3.56 1.687-5.9144 1.687-4.5488 0-8.4219-3.0884-9.8007-7.2248-0.3628-1.0449-0.5326-2.1499-0.5326-3.3125 0-1.1627 0.2029-2.2816 0.5517-3.328 1.3806-4.1419 5.2328-7.2076 9.7816-7.2076 2.5724 0 5.6001 1.7121 7.4167 3.4416l8.1519-6.5869c-3.7994-3.5607-9.6001-6.6784-15.547-6.6784z" opacity="1"/>
		<path d="m32.805 12.681c-8.4698 0-15.784 4.8774-19.341 11.957-1.4809 2.9256-2.3301 6.2112-2.3301 9.7147s0.8492 6.7913 2.3301 9.7169c3.5576 7.0793 10.871 11.954 19.341 11.954 5.8512 0 10.744-1.9504 14.32-5.2552 4.0814-3.7744 6.4302-9.3373 6.4302-15.929 0-1.4267-0.1926-3.784-0.9202-5.6719l-20.622 0.0107v8.1846l9.9795 0.0174c-0.5315 1.9428-1.5991 3.4171-3.2166 4.4772-1.5894 1.0597-3.6051 1.7084-5.9893 1.7084-4.6064 0-8.5256-3.1246-9.9221-7.3141-0.3675-1.0584-0.542-2.1793-0.542-3.3566 0-1.1774 0.2055-2.3105 0.5587-3.3701 1.3981-4.1944 5.299-7.2989 9.9054-7.2989 2.605 0 5.5699 1.6198 7.4096 3.3711l7.816-6.4472c-3.7383-3.5035-9.3554-6.4691-15.207-6.4691z" opacity="1"/>
		<path d="m32.803 12.812c-8.3439 0-15.549 4.8049-19.054 11.779-1.4589 2.8821-2.2954 6.1189-2.2954 9.5704 0 3.4514 0.8365 6.6904 2.2954 9.5725 3.5048 6.9741 10.71 11.777 19.054 11.777 5.7643 0 10.584-1.9215 14.107-5.1772 4.0208-3.7183 6.3347-9.1985 6.3347-15.692 0-1.4055-0.1822-3.6118-0.84-5.4059l-20.291 0.0094v8.0582l10.028 0.0151c-0.5227 1.9982-1.6284 3.541-3.2978 4.6403-1.6075 1.0717-3.6461 1.7278-6.0574 1.7278-4.6588 0-8.62-3.1576-10.033-7.3954-0.3717-1.0706-0.5505-2.2059-0.5505-3.3967 0-1.1907 0.2078-2.3367 0.565-3.4084 1.414-4.242 5.3593-7.3818 10.018-7.3818 2.6345 0 5.5424 1.5356 7.403 3.3069l7.5106-6.3202c-3.6828-3.4514-9.1328-6.2786-14.897-6.2786z" opacity="1"/>
		<path d="m32.801 12.932c-8.2279 0-15.333 4.738-18.789 11.615-1.4386 2.8421-2.2635 6.0339-2.2635 9.4373s0.8249 6.5974 2.2635 9.4394c3.4561 6.8771 10.561 11.613 18.789 11.613 5.6841 0 10.437-1.8947 13.911-5.1051 3.9648-3.6666 6.2465-9.0707 6.2465-15.474 0-1.386-0.1725-3.453-0.7659-5.1606l-19.985 0.0081v7.9416l10.073 0.013c-0.5146 2.0494-1.6554 3.6555-3.3727 4.7908-1.6242 1.0827-3.6839 1.7457-6.1202 1.7457-4.7071 0-8.707-3.188-10.134-7.4703-0.3757-1.0819-0.5584-2.2306-0.5584-3.4337s0.2099-2.3609 0.5709-3.4437c1.4286-4.286 5.4148-7.4584 10.122-7.4584 2.6619 0 5.5171 1.4582 7.397 3.2478l7.2289-6.2031c-3.6315-3.4034-8.9276-6.1029-14.612-6.1029z" opacity="1"/>
		<path d="m32.8 13.044c-8.1198 0-15.131 4.6758-18.542 11.462-1.4197 2.8047-2.2338 5.9546-2.2338 9.3133 0 3.3588 0.8141 6.5108 2.2338 9.3155 3.4107 6.7867 10.422 11.46 18.542 11.46 5.6094 0 10.3-1.8698 13.728-5.0381 3.9127-3.6184 6.1645-8.9515 6.1645-15.271 0-1.3677-0.1637-3.3051-0.6971-4.932l-19.701 0.0068v7.8331l10.114 0.0111c-0.5071 2.0969-1.6806 3.7619-3.4426 4.9308-1.6397 1.0931-3.7191 1.7624-6.1786 1.7624-4.7521 0-8.788-3.2162-10.229-7.5401-0.3793-1.0924-0.5658-2.2535-0.5658-3.4681s0.212-2.3835 0.5764-3.4766c1.4423-4.327 5.4666-7.5297 10.219-7.5297 2.6873 0 5.4935 1.3859 7.3913 3.1927l6.9666-6.094c-3.5838-3.3587-8.7364-5.9393-14.346-5.9393z" opacity="1"/>
		<path d="m32.798 13.149c-8.0183 0-14.942 4.6173-18.31 11.319-1.4019 2.7697-2.2058 5.8802-2.2058 9.1969 0 3.3168 0.8039 6.4294 2.2058 9.199 3.368 6.7019 10.292 11.317 18.31 11.317 5.5393 0 10.171-1.8465 13.556-4.9751 3.8639-3.5732 6.0875-8.8396 6.0875-15.08 0-1.3506-0.1553-3.1661-0.6324-4.7174l-19.434 0.0057v7.7311l10.154 0.0093c-0.5 2.1417-1.7042 3.8619-3.5081 5.0624-1.6543 1.1028-3.7522 1.778-6.2336 1.778-4.7943 0-8.8641-3.2428-10.318-7.6056-0.3827-1.1022-0.5726-2.275-0.5726-3.5004s0.2139-2.4047 0.5815-3.5076c1.4551-4.3654 5.5152-7.5966 10.31-7.5966 2.7112 0 5.4714 1.3182 7.3861 3.1409l6.7202-5.9914c-3.539-3.3168-8.5569-5.7857-14.096-5.7857z" opacity="1"/>
		<path d="m32.797 13.248c-7.9224 0-14.764 4.5622-18.091 11.184-1.3851 2.7366-2.1794 5.8098-2.1794 9.0869s0.7943 6.3525 2.1794 9.089c3.3278 6.6217 10.169 11.182 18.091 11.182 5.4731 0 10.05-1.8244 13.394-4.9156 3.8176-3.5305 6.0146-8.7339 6.0146-14.9 0-1.3345-0.1473-3.0349-0.5712-4.5147l-19.181 0.0047v7.6348l10.19 0.0075c-0.4933 2.1839-1.7265 3.9565-3.57 5.1867-1.668 1.112-3.7834 1.7929-6.2855 1.7929-4.8342 0-8.936-3.2679-10.403-7.6676-0.3859-1.1115-0.5791-2.2953-0.5791-3.5309s0.2157-2.4248 0.5863-3.5368c1.4673-4.4018 5.5612-7.6599 10.395-7.6599 2.7338 0 5.4505 1.2541 7.3811 3.092l6.4874-5.8946c-3.4967-3.2771-8.3872-5.6406-13.86-5.6406z" opacity="1"/>
		<path d="m32.796 13.343c-7.8313 0-14.594 4.5097-17.883 11.055-1.3692 2.7051-2.1544 5.743-2.1544 8.9824s0.7852 6.2794 2.1544 8.9845c3.2895 6.5456 10.052 11.053 17.883 11.053 5.4102 0 9.9341-1.8034 13.24-4.8591 3.7737-3.4898 5.9454-8.6334 5.9454-14.728 0-1.3192-0.1397-2.9102-0.5131-4.3221l-18.941 0.0037v7.5432l10.226 0.0059c-0.4869 2.2241-1.7477 4.0462-3.6288 5.3048-1.6811 1.1207-3.8131 1.8069-6.3348 1.8069-4.8722 0-9.0043-3.2917-10.483-7.7264-0.389-1.1203-0.5852-2.3146-0.5852-3.5599s0.2173-2.4438 0.5909-3.5645c1.4788-4.4364 5.6047-7.72 10.477-7.72 2.7552 0 5.4306 1.1932 7.3764 3.0456l6.2662-5.8027c-3.4565-3.2394-8.226-5.5027-13.636-5.5027z" opacity="1"/>
		<path d="m32.794 13.433c-7.7445 0-14.432 4.4596-17.685 10.933-1.354 2.6751-2.1305 5.6793-2.1305 8.8827 0 3.2035 0.7765 6.2098 2.1305 8.8848 3.253 6.473 9.9404 10.931 17.685 10.931 5.3501 0 9.8238-1.7834 13.093-4.8052 3.7319-3.4511 5.8795-8.5376 5.8795-14.565 0-1.3045-0.1325-2.7913-0.4577-4.1384l-18.712 0.0027v7.456l10.259 0.0043c-0.4809 2.2624-1.7679 4.1319-3.6849 5.4174-1.6936 1.1291-3.8414 1.8204-6.3818 1.8204-4.9084 0-9.0695-3.3145-10.559-7.7825-0.3919-1.1288-0.5911-2.3331-0.5911-3.5877 0-1.2545 0.2189-2.4619 0.5953-3.5909 1.4897-4.4693 5.6463-7.7773 10.555-7.7773 2.7756 0 5.4116 1.1352 7.3718 3.0013l6.0553-5.715c-3.4181-3.2034-8.0723-5.3711-13.422-5.3711z" opacity="1"/>
		<path d="m32.793 13.519c-7.6613 0-14.277 4.4118-17.495 10.815-1.3395 2.6463-2.1076 5.6183-2.1076 8.7873s0.7681 6.143 2.1076 8.7893c3.218 6.4034 9.8336 10.813 17.495 10.813 5.2926 0 9.7183-1.7642 12.953-4.7536 3.6918-3.4141 5.8164-8.4459 5.8164-14.408 0-1.2905-0.1257-2.6775-0.4047-3.9625l-18.493 0.0017v7.3724l10.291 0.0029c-0.475 2.299-1.7872 4.2138-3.7386 5.5252-1.7055 1.137-3.8685 1.8332-6.4268 1.8332-4.943 0-9.1319-3.3362-10.632-7.8362-0.3947-1.1369-0.5968-2.3508-0.5968-3.6141 0-1.2634 0.2205-2.4793 0.5995-3.6163 1.5003-4.5008 5.6862-7.8322 10.629-7.8322 2.7952 0 5.3935 1.0796 7.3675 2.9589l5.8534-5.631c-3.3814-3.169-7.9252-5.2452-13.218-5.2452z" opacity="1"/>
		<path d="m32.792 13.602c-7.5813 0-14.128 4.3657-17.312 10.702-1.3255 2.6187-2.0856 5.5597-2.0856 8.6956 0 3.136 0.7601 6.079 2.0856 8.6977 3.1845 6.3366 9.7311 10.7 17.312 10.7 5.2374 0 9.617-1.7458 12.818-4.704 3.6533-3.3785 5.7557-8.3578 5.7557-14.258 0-1.277-0.1191-2.5681-0.3538-3.7935l-18.283 8e-4v7.2922l10.322 0.0014c-0.4694 2.3342-1.8059 4.2926-3.7902 5.6287-1.717 1.1447-3.8945 1.8456-6.4701 1.8456-4.9762 0-9.1918-3.3571-10.702-7.8878-0.3974-1.1446-0.6022-2.3677-0.6022-3.6396s0.222-2.4959 0.6035-3.6406c1.5104-4.5311 5.7245-7.8848 10.701-7.8848 2.814 0 5.3761 1.0262 7.3634 2.9181l5.6594-5.5503c-3.3461-3.136-7.7839-5.1243-13.021-5.1243z" opacity="1"/>
		<path d="m32.791 13.682c-7.5044 0-13.984 4.3215-17.137 10.594-1.3121 2.5921-2.0645 5.5033-2.0645 8.6074 0 3.1042 0.7524 6.0173 2.0645 8.6094 3.1522 6.2723 9.6323 10.592 17.137 10.592 5.1843 0 9.5194-1.7281 12.688-4.6563 3.6162-3.3441 5.6973-8.2729 5.6973-14.113 0-1.2641-0.1127-2.4628-0.3047-3.6309h-18.08v7.2148h10.352c-0.464 2.3682-1.8238 4.3685-3.8399 5.7286-1.7281 1.152-3.9195 1.8574-6.5117 1.8574-5.0082 0-9.2494-3.3773-10.77-7.9375-0.4-1.1521-0.6074-2.384-0.6074-3.6641s0.2234-2.512 0.6074-3.664c1.5201-4.5603 5.7613-7.9356 10.77-7.9356 2.8322 0 5.3593 0.9748 7.3594 2.8789l5.4726-5.4726c-3.3121-3.1042-7.6477-5.0079-12.832-5.0079z" opacity="1"/>
	</g>
	<path d="m32.791 13.682c-7.5044 0-13.985 4.3214-17.137 10.594-1.3121 2.5921-2.0645 5.5033-2.0645 8.6074 0 3.1042 0.75238 6.0172 2.0645 8.6094 3.1522 6.2723 9.6323 10.592 17.137 10.592 5.1843 0 9.5193-1.7281 12.688-4.6562 3.6162-3.3442 5.6973-8.273 5.6973-14.113 0-1.2641-0.11268-2.4628-0.30469-3.6309h-18.08v7.2148h10.352c-0.46402 2.3681-1.8237 4.3684-3.8398 5.7285-1.7281 1.1521-3.9196 1.8574-6.5117 1.8574-5.0083 0-9.2495-3.3773-10.77-7.9375-0.40002-1.1521-0.60742-2.384-0.60742-3.6641 0-1.2801 0.2234-2.512 0.60742-3.6641 1.5201-4.5602 5.7613-7.9355 10.77-7.9355 2.8321 0 5.3593 0.97481 7.3594 2.8789l5.4727-5.4727c-3.3122-3.1042-7.6478-5.0078-12.832-5.0078z" fill="none" stroke="#18006e" stroke-linecap="round" stroke-linejoin="round" stroke-opacity=".22015"/>
	<g>
		<path d="m51.175 33.315c0-1.2641-0.112-2.4641-0.30402-3.6322h-18.081v7.2164h10.353c-0.46402 2.3681-1.8241 4.3682-3.8402 5.7283v4.8002h6.1763c3.6162-3.3442 5.6963-8.2724 5.6963-14.113z" fill="#2e7ee0"/>
		<path d="m32.79 52.084c5.1843 0 9.5205-1.7281 12.689-4.6562l-6.1763-4.8002c-1.7281 1.1521-3.9202 1.8561-6.5123 1.8561-5.0083 0-9.2485-3.3762-10.769-7.9364h-6.3683v4.9443c3.1522 6.2723 9.6325 10.593 17.137 10.593z" fill="#1ba766"/>
		<path d="m22.022 36.547c-0.40002-1.1521-0.60803-2.3841-0.60803-3.6642 0-1.2801 0.22401-2.5121 0.60803-3.6642v-4.9443h-6.3683c-1.3121 2.5921-2.0641 5.5043-2.0641 8.6084 0 3.1042 0.75204 6.0163 2.0641 8.6084z" fill="#f3b53a"/>
		<path d="m32.79 21.282c2.8321 0 5.3603 0.97605 7.3604 2.8801l5.4723-5.4723c-3.3122-3.1042-7.6484-5.0083-12.833-5.0083-7.5044 0-13.985 4.3202-17.137 10.593l6.3683 4.9443c1.5201-4.5602 5.7603-7.9364 10.769-7.9364z" fill="#d64d65"/>
	</g>
	<path d="m21.436 33.395c-0.0072 0.16263-0.02148 0.324-0.02148 0.48828 0 1.2801 0.2074 2.512 0.60742 3.6641 1.5201 4.5602 5.7613 7.9375 10.77 7.9375 2.5921 0 4.7836-0.70536 6.5117-1.8574 2.0161-1.3601 3.3758-3.3604 3.8398-5.7285h-0.26172c-0.61408 1.9304-1.8532 3.5648-3.5781 4.7285-1.7281 1.1521-3.9196 1.8574-6.5117 1.8574-5.0083 0-9.2495-3.3773-10.77-7.9375-0.34622-0.9971-0.53788-2.0562-0.58594-3.1523z" fill="#89ffa3" fill-opacity=".18074"/>
	<path d="m32.791 29.684v1h18.08c0.16716 1.0169 0.26806 2.0603 0.29297 3.1465 0.0037-0.17201 0.01172-0.34199 0.01172-0.51562 0-1.2641-0.11268-2.4628-0.30469-3.6309z" fill="#8af3ff" fill-opacity=".35572"/>
	<path d="m32.791 13.682c-7.5044 0-13.985 4.3214-17.137 10.594-1.3121 2.5921-2.0645 5.5033-2.0645 8.6074 0 0.16808 0.01124 0.33306 0.01563 0.5 0.07653-2.916 0.8078-5.6556 2.0488-8.1074 3.1522-6.2723 9.6323-10.594 17.137-10.594 4.9145 0 9.0643 1.7128 12.305 4.5352l0.52734-0.52734c-3.3122-3.1042-7.6478-5.0078-12.832-5.0078z" fill="#ffabc6" fill-opacity=".34541"/>
</svg>
