<?xml version="1.0" encoding="UTF-8" standalone="no"?>
<svg
   xmlns:dc="http://purl.org/dc/elements/1.1/"
   xmlns:cc="http://creativecommons.org/ns#"
   xmlns:rdf="http://www.w3.org/1999/02/22-rdf-syntax-ns#"
   xmlns:svg="http://www.w3.org/2000/svg"
   xmlns="http://www.w3.org/2000/svg"
   xmlns:xlink="http://www.w3.org/1999/xlink"
   version="1.1"
   height="64"
   width="64"
   id="u">
  <defs
     id="defs51">
    <linearGradient
       id="linearGradient1082">
      <stop
         id="stop1078"
         offset="0"
         style="stop-color:#f3ffb5;stop-opacity:0.42477876" />
      <stop
         id="stop1080"
         offset="1"
         style="stop-color:#ffffff;stop-opacity:0.99115044" />
    </linearGradient>
    <linearGradient
       id="linearGradient1074">
      <stop
         id="stop1070"
         offset="0"
         style="stop-color:#93fcff;stop-opacity:0.3938053" />
      <stop
         id="stop1072"
         offset="1"
         style="stop-color:#ffffff;stop-opacity:0.99557525" />
    </linearGradient>
    <linearGradient
       id="linearGradient1066">
      <stop
         id="stop1062"
         offset="0"
         style="stop-color:#ffb9f4;stop-opacity:0.52212387" />
      <stop
         id="stop1064"
         offset="1"
         style="stop-color:#ffffff;stop-opacity:1" />
    </linearGradient>
    <linearGradient
       id="linearGradient1058">
      <stop
         id="stop1054"
         offset="0"
         style="stop-color:#fd447f;stop-opacity:0.00442478" />
      <stop
         id="stop1056"
         offset="1"
         style="stop-color:#fd447f;stop-opacity:1" />
    </linearGradient>
    <linearGradient
       id="linearGradient1049">
      <stop
         id="stop1045"
         offset="0"
         style="stop-color:#72ca1f;stop-opacity:0" />
      <stop
         id="stop1047"
         offset="1"
         style="stop-color:#72ca1f;stop-opacity:0.99557525" />
    </linearGradient>
    <linearGradient
       id="linearGradient1041">
      <stop
         id="stop1037"
         offset="0"
         style="stop-color:#0becff;stop-opacity:0" />
      <stop
         id="stop1039"
         offset="1"
         style="stop-color:#0becff;stop-opacity:1" />
    </linearGradient>
    <radialGradient
       xlink:href="#linearGradient1023"
       id="radialGradient5872"
       cx="28.44438"
       cy="-1.6668763"
       fx="28.44438"
       fy="-1.6668763"
       r="31.760401"
       gradientTransform="matrix(6.4120994e-7,0.99120523,-5.0669888,-4.4563189e-4,23.673786,-26.197458)"
       gradientUnits="userSpaceOnUse" />
    <linearGradient
       id="linearGradient1023">
      <stop
         id="stop1019"
         offset="0"
         style="stop-color:#46deff;stop-opacity:0.18431373" />
      <stop
         id="stop1021"
         offset="1"
         style="stop-color:#0fa2ff;stop-opacity:0" />
    </linearGradient>
    <radialGradient
       xlink:href="#linearGradient1023"
       id="radialGradient5874"
       cx="28.444382"
       cy="-1.667105"
       fx="28.444382"
       fy="-1.667105"
       r="31.762449"
       gradientUnits="userSpaceOnUse"
       gradientTransform="matrix(5.8288574e-7,0.99114129,-5.0666621,-4.4559685e-4,23.673174,-26.195641)" />
    <radialGradient
       xlink:href="#linearGradient1023"
       id="radialGradient5876"
       cx="28.44438"
       cy="-1.6675167"
       fx="28.44438"
       fy="-1.6675166"
       r="31.766052"
       gradientTransform="matrix(6.16315e-7,0.99102888,-5.0660874,-4.4555301e-4,23.672045,-26.192442)"
       gradientUnits="userSpaceOnUse" />
    <radialGradient
       xlink:href="#linearGradient1023"
       id="radialGradient5878"
       cx="28.44438"
       cy="-1.6681248"
       fx="28.44438"
       fy="-1.6681248"
       r="31.771276"
       gradientTransform="matrix(6.2162347e-7,0.99086593,-5.0652543,-4.4544574e-4,23.670354,-26.187806)"
       gradientUnits="userSpaceOnUse" />
    <radialGradient
       xlink:href="#linearGradient1023"
       id="radialGradient5880"
       cx="28.444378"
       cy="-1.6689153"
       fx="28.444378"
       fy="-1.6689153"
       r="31.778152"
       gradientUnits="userSpaceOnUse"
       gradientTransform="matrix(5.5928848e-7,0.99065153,-5.0641584,-4.4538444e-4,23.668181,-26.181707)" />
    <radialGradient
       xlink:href="#linearGradient1023"
       id="radialGradient5882"
       cx="28.444376"
       cy="-1.669909"
       fx="28.444376"
       fy="-1.669909"
       r="31.786732"
       gradientUnits="userSpaceOnUse"
       gradientTransform="matrix(5.6994265e-7,0.99038416,-5.0627915,-4.4525886e-4,23.665431,-26.1741)" />
    <radialGradient
       xlink:href="#linearGradient1023"
       id="radialGradient5884"
       cx="28.444378"
       cy="-1.6710942"
       fx="28.444378"
       fy="-1.6710942"
       r="31.797039"
       gradientUnits="userSpaceOnUse"
       gradientTransform="matrix(5.0170957e-7,0.9900631,-5.0611504,-4.451198e-4,23.662175,-26.16497)" />
    <radialGradient
       xlink:href="#linearGradient1023"
       id="radialGradient5886"
       cx="28.444382"
       cy="-1.6724892"
       fx="28.444382"
       fy="-1.672489"
       r="31.809105"
       gradientUnits="userSpaceOnUse"
       gradientTransform="matrix(4.775357e-7,0.98968755,-5.0592306,-4.4489636e-4,23.658326,-26.15429)" />
    <radialGradient
       xlink:href="#linearGradient1023"
       id="radialGradient5888"
       cx="28.44438"
       cy="-1.6740874"
       fx="28.44438"
       fy="-1.6740874"
       r="31.822948"
       gradientUnits="userSpaceOnUse"
       gradientTransform="matrix(4.7212586e-7,0.98925702,-5.0570297,-4.4475237e-4,23.653925,-26.142044)" />
    <radialGradient
       xlink:href="#linearGradient1023"
       id="radialGradient5890"
       cx="28.44438"
       cy="-1.6758915"
       fx="28.44438"
       fy="-1.6758915"
       r="31.838596"
       gradientUnits="userSpaceOnUse"
       gradientTransform="matrix(4.3536895e-7,0.98877083,-5.0545443,-4.445319e-4,23.648968,-26.128215)" />
    <radialGradient
       xlink:href="#linearGradient1023"
       id="radialGradient5892"
       cx="28.444378"
       cy="-1.6779048"
       fx="28.444378"
       fy="-1.6779048"
       r="31.856064"
       gradientUnits="userSpaceOnUse"
       gradientTransform="matrix(3.4776774e-7,0.98822867,-5.0517728,-4.442823e-4,23.643444,-26.112792)" />
    <radialGradient
       xlink:href="#linearGradient1023"
       id="radialGradient5894"
       cx="28.444378"
       cy="-1.6754643"
       fx="28.444378"
       fy="-1.6754643"
       r="31.87537"
       gradientUnits="userSpaceOnUse"
       gradientTransform="matrix(3.5730535e-7,0.98763011,-5.048713,-4.4401923e-4,23.6609,-26.095765)" />
    <radialGradient
       xlink:href="#linearGradient1023"
       id="radialGradient5896"
       cx="28.44438"
       cy="-1.6779044"
       fx="28.44438"
       fy="-1.6779044"
       r="31.89653"
       gradientUnits="userSpaceOnUse"
       gradientTransform="matrix(2.8748929e-7,0.98697492,-5.0453637,-4.4369489e-4,23.654202,-26.07713)" />
    <radialGradient
       xlink:href="#linearGradient1023"
       id="radialGradient5898"
       cx="28.444378"
       cy="-1.6719596"
       fx="28.444378"
       fy="-1.6719596"
       r="31.919559"
       gradientUnits="userSpaceOnUse"
       gradientTransform="matrix(1.9708376e-7,0.98626283,-5.0417236,-4.4340492e-4,23.690284,-26.056871)" />
    <radialGradient
       xlink:href="#linearGradient1023"
       id="radialGradient5900"
       cx="28.444382"
       cy="-1.6748208"
       fx="28.444382"
       fy="-1.6748208"
       r="31.944473"
       gradientUnits="userSpaceOnUse"
       gradientTransform="matrix(1.0593122e-7,0.98549364,-5.0377915,-4.4304965e-4,23.682447,-26.034996)" />
    <radialGradient
       xlink:href="#linearGradient1023"
       id="radialGradient5902"
       cx="28.44438"
       cy="-1.6779021"
       fx="28.44438"
       fy="-1.6779021"
       r="31.971281"
       gradientUnits="userSpaceOnUse"
       gradientTransform="matrix(7.0482701e-8,0.98466731,-5.0335673,-4.4266574e-4,23.674013,-26.01149)" />
    <radialGradient
       xlink:href="#linearGradient1023"
       id="radialGradient5868"
       cx="28.44438"
       cy="-1.6812059"
       fx="28.44438"
       fy="-1.6812059"
       r="32"
       gradientUnits="userSpaceOnUse"
       gradientTransform="matrix(0,0.98378361,-5.0290499,-4.4225373e-4,23.66498,-25.986354)" />
    <radialGradient
       xlink:href="#linearGradient1023"
       id="radialGradient5870"
       cx="28.444378"
       cy="-1.6667937"
       fx="28.444378"
       fy="-1.6667937"
       r="31.759766"
       gradientUnits="userSpaceOnUse"
       gradientTransform="matrix(6.3999206e-7,0.99122505,-5.0670902,-4.4561523e-4,23.674036,-26.198019)" />
    <radialGradient
       xlink:href="#linearGradient5932"
       id="radialGradient5934"
       cx="32.519352"
       cy="1.449484"
       fx="32.519352"
       fy="1.449484"
       r="31.759766"
       gradientTransform="matrix(0,0.02012613,-1.1971173,-8.9894874e-7,34.254554,1.3030658)"
       gradientUnits="userSpaceOnUse" />
    <linearGradient
       id="linearGradient5932">
      <stop
         style="stop-color:#e2f9ff;stop-opacity:1"
         offset="0"
         id="stop5928" />
      <stop
         style="stop-color:#b7f5ff;stop-opacity:0"
         offset="1"
         id="stop5930" />
    </linearGradient>
    <radialGradient
       fy="7.0038524"
       fx="32.330669"
       gradientUnits="userSpaceOnUse"
       gradientTransform="matrix(0,1.9425718,-2.8391554,0,51.976823,-61.695088)"
       r="32"
       cy="7.0038524"
       cx="32.330669"
       id="b-3">
      <stop
         id="stop16"
         offset="0"
         style="stop-color:#2c73e1;stop-opacity:1" />
      <stop
         style="stop-color:#0e69ff;stop-opacity:1"
         offset="0.49757472"
         id="stop78" />
      <stop
         id="stop18"
         offset="1"
         style="stop-color:#3461c7;stop-opacity:1" />
    </radialGradient>
    <linearGradient
       gradientUnits="userSpaceOnUse"
       y2="32.686813"
       x2="29.717905"
       y1="15.531"
       x1="29.717905"
       id="linearGradient1043"
       xlink:href="#linearGradient1041" />
    <linearGradient
       gradientUnits="userSpaceOnUse"
       y2="34.621082"
       x2="32.250187"
       y1="34.621082"
       x1="47.797241"
       id="linearGradient1051"
       xlink:href="#linearGradient1049" />
    <linearGradient
       gradientUnits="userSpaceOnUse"
       y2="38.349945"
       x2="31.489679"
       y1="38.349945"
       x1="15"
       id="linearGradient1060"
       xlink:href="#linearGradient1058" />
    <linearGradient
       gradientUnits="userSpaceOnUse"
       y2="33.994137"
       x2="31.999975"
       y1="43.800232"
       x1="15.035708"
       id="linearGradient1068"
       xlink:href="#linearGradient1066" />
    <linearGradient
       gradientUnits="userSpaceOnUse"
       y2="33.994137"
       x2="31.999975"
       y1="14.39419"
       x1="31.999969"
       id="linearGradient1076"
       xlink:href="#linearGradient1074" />
    <linearGradient
       gradientUnits="userSpaceOnUse"
       y2="33.994137"
       x2="31.999975"
       y1="43.794575"
       x1="48.974079"
       id="linearGradient1084"
       xlink:href="#linearGradient1082" />
  </defs>
  <metadata
     id="ac">
    <rdf:RDF>
      <cc:Work
         rdf:about="">
        <dc:format>image/svg+xml</dc:format>
        <dc:type
           rdf:resource="http://purl.org/dc/dcmitype/StillImage" />
        <dc:title></dc:title>
      </cc:Work>
    </rdf:RDF>
  </metadata>
  <rect
     ry="1"
     rx="1"
     y="0"
     x="0"
     height="64"
     width="64"
     id="rect874-5"
     style="opacity:1;vector-effect:none;fill:url(#b-3);fill-opacity:1;fill-rule:nonzero;stroke:none;stroke-width:1;stroke-linecap:butt;stroke-linejoin:miter;stroke-miterlimit:4;stroke-dasharray:none;stroke-dashoffset:0;stroke-opacity:1;marker:none;paint-order:fill markers stroke" />
  <g
     id="g902"
     style="opacity:1;vector-effect:none;fill:#ffffff;fill-opacity:1;stroke-width:1;stroke-linecap:butt;stroke-linejoin:miter;stroke-miterlimit:4;stroke-dasharray:none;stroke-dashoffset:0;stroke-opacity:1">
    <path
       d="m 0.24221471,0.23960821 c -0.001444,0 -0.002607,0.57111147 -0.002607,1.60433569 V 63.754097 c 0,0.0024 0.51138686,0.0037 1.44227079,0.0037 0.4426189,0.0014 0.9812417,0.0026 1.6051094,0.0026 H 63.750408 c 0.0047,0 0.0074,-1.051745 0.0074,-2.88421 0.0014,-0.481706 0.0026,-1.018524 0.0026,-1.604651 V 0.25328358 c 0,-0.006936 -1.613902,-0.0110639 -4.326528,-0.0110639 -0.497779,-0.001444 -1.033718,-0.002607 -1.603755,-0.002607 H 0.25698283 M 0.2849989,1.8426801 H 7.1955987 63.715007 c 0.0013,0 0.0024,0.9663692 0.0024,2.6561696 V 6.0918589 63.356753 c 0,0.0013 -0.511304,0.0023 -1.439988,0.0023 h -2.594747 c -11.630755,0 -55.6382813,-2.3e-5 -59.167613,-6.8e-5 -0.1529236,-2.49e-4 -0.2324562,-0.0012 -0.2324562,-0.0022 v -1.365481 c 0,-7.758805 0.00107,-50.291553 0.0024,-58.7029906 V 1.8427121"
       style="opacity:1;vector-effect:none;fill:url(#radialGradient5872);fill-opacity:1;fill-rule:nonzero;stroke:none;stroke-width:1;stroke-linecap:butt;stroke-linejoin:miter;stroke-miterlimit:4;stroke-dasharray:none;stroke-dashoffset:0;stroke-opacity:1;marker:none;paint-order:fill markers stroke"
       id="path5792" />
    <path
       d="m 0.24872423,0.23754993 c -0.006191,0 -0.0111743,0.57003673 -0.0111743,1.59914427 V 63.735463 c 0,0.01021 0.50699395,0.01581 1.42988137,0.01581 0.4388168,0.0062 0.9766439,0.01117 1.5999114,0.01117 H 63.71965 c 0.02009,0 0.03163,-1.04271 0.03163,-2.859434 0.0062,-0.477568 0.01117,-1.013606 0.01117,-1.599457 V 0.29614909 c 0,-0.0297358 -1.600038,-0.0474319 -4.289362,-0.0474319 -0.493503,-0.006191 -1.02867,-0.0111743 -1.598569,-0.0111743 H 0.31196582 M 0.30373,1.8584275 H 7.6314154 63.696269 c 0.0057,0 0.01028,0.9614559 0.01028,2.6409529 V 6.5613 63.346399 c 0,0.0055 -0.510434,0.0099 -1.435521,0.0099 h -3.071275 c -11.531509,0 -55.1702345,-1.01e-4 -58.6698632,-2.91e-4 -0.1550552,-0.0011 -0.2364419,-0.0049 -0.2364419,-0.0096 v -1.848467 c 0,-7.696367 0.00458,-49.867139 0.010281,-58.2063212 V 1.8584365"
       style="opacity:1;vector-effect:none;fill:url(#radialGradient5874);fill-opacity:1;fill-rule:nonzero;stroke:none;stroke-width:1;stroke-linecap:butt;stroke-linejoin:miter;stroke-miterlimit:4;stroke-dasharray:none;stroke-dashoffset:0;stroke-opacity:1;marker:none;paint-order:fill markers stroke"
       id="path5794" />
    <path
       d="m 0.26012698,0.23394443 c -0.0145051,0 -0.0261826,0.56815413 -0.0261826,1.59005057 v 61.878826 c 0,0.02391 0.49929887,0.03705 1.40817882,0.03705 0.4321565,0.01451 0.96859,0.02618 1.590806,0.02618 H 63.665771 c 0.04708,0 0.0741,-1.026884 0.0741,-2.816034 0.01451,-0.47032 0.02618,-1.004992 0.02618,-1.590358 V 0.37125978 c 0,-0.069674 -1.575754,-0.1111378 -4.224259,-0.1111378 -0.486013,-0.0145051 -1.019827,-0.0261826 -1.589484,-0.0261826 H 0.40830358 M 0.3365472,1.8860109 h 8.058296 55.2686098 c 0.01335,0 0.307968,0.9772806 0.02409,2.6142977 V 7.3836201 63.328261 c 0,0.01284 -0.508912,0.02316 -1.427698,0.02316 h -3.906011 c -11.357655,0 -54.3503541,-2.36e-4 -57.7979517,-6.82e-4 -0.1587892,-0.0025 -0.2434236,-0.01159 -0.2434236,-0.02248 v -2.694516 c 0,-7.586996 0.010738,-49.123692 0.02409,-57.3363035 V 1.8860089"
       style="opacity:1;vector-effect:none;fill:url(#radialGradient5876);fill-opacity:1;fill-rule:nonzero;stroke:none;stroke-width:1;stroke-linecap:butt;stroke-linejoin:miter;stroke-miterlimit:4;stroke-dasharray:none;stroke-dashoffset:0;stroke-opacity:1;marker:none;paint-order:fill markers stroke"
       id="path5796" />
    <path
       d="m 0.27663115,0.22872589 c -0.0265395,0 -0.0479053,0.56542926 -0.0479053,1.57688841 V 63.655575 c 0,0.04375 0.48816113,0.06779 1.37676695,0.06779 0.4225165,0.02654 0.9569326,0.04791 1.5776271,0.04791 H 63.587787 c 0.08613,0 0.135582,-1.003977 0.135582,-2.753217 0.02654,-0.459829 0.04791,-0.992522 0.04791,-1.577189 V 0.47997699 c 0,-0.12748006 -1.540603,-0.20334484 -4.130029,-0.20334484 -0.475171,-0.0265395 -1.007026,-0.0479053 -1.576334,-0.0479053 H 0.54775876 M 0.384046,1.9259352 H 9.4998168 63.615954 c 0.02443,0 0.243376,0.9525812 0.04408,2.5757175 v 4.072182 54.7281733 c 0,0.02349 -0.506709,0.04238 -1.416374,0.04238 h -5.114195 c -11.106025,0 -53.1636733,-4.33e-4 -56.5359619,-0.0012 -0.1641937,-0.0046 -0.2535289,-0.0212 -0.2535289,-0.04114 v -3.919074 c 0,-7.428694 0.019647,-48.047638 0.044076,-56.0770526 V 1.9259752"
       style="opacity:1;vector-effect:none;fill:url(#radialGradient5878);fill-opacity:1;fill-rule:nonzero;stroke:none;stroke-width:1;stroke-linecap:butt;stroke-linejoin:miter;stroke-miterlimit:4;stroke-dasharray:none;stroke-dashoffset:0;stroke-opacity:1;marker:none;paint-order:fill markers stroke"
       id="path5798" />
    <path
       d="m 0.29838762,0.22184659 c -0.0424037,0 -0.076541,0.56183724 -0.076541,1.55953761 V 63.593295 c 0,0.06991 0.47347891,0.108318 1.33535848,0.108318 0.4098086,0.0424 0.9415655,0.07654 1.560254,0.07654 H 63.484985 c 0.137622,0 0.216628,-0.973782 0.216628,-2.67041 0.0424,-0.445999 0.07654,-0.976085 0.07654,-1.55983 V 0.62328248 c 0,-0.2036823 -1.494268,-0.32489586 -4.005812,-0.32489586 -0.46088,-0.0424037 -0.990153,-0.076541 -1.559001,-0.076541 H 0.73157505 M 0.4466606,1.9785646 H 10.956437 63.553339 c 0.03903,0 0.211803,0.9302255 0.07042,2.5248595 V 10.142823 63.2674 c 0,0.03753 -0.503804,0.06772 -1.401447,0.06772 h -6.706871 c -10.774315,0 -51.5993426,-6.91e-4 -54.8723558,-0.002 C 0.471767,63.32582 0.3762351,63.29925 0.3762351,63.26739 v -5.533337 c 0,-7.220012 0.031392,-46.629139 0.070423,-54.4170562 V 1.9785546"
       style="opacity:1;vector-effect:none;fill:url(#radialGradient5880);fill-opacity:1;fill-rule:nonzero;stroke:none;stroke-width:1;stroke-linecap:butt;stroke-linejoin:miter;stroke-miterlimit:4;stroke-dasharray:none;stroke-dashoffset:0;stroke-opacity:1;marker:none;paint-order:fill markers stroke"
       id="path5800" />
    <path
       d="m 0.32551582,0.21326878 c -0.0621849,0 -0.11224704,0.55735833 -0.11224704,1.53790282 V 63.515637 c 0,0.10252 0.45517161,0.158848 1.28372612,0.158848 0.3939632,0.06218 0.9224043,0.112247 1.5385916,0.112247 H 63.356801 c 0.201823,0 0.317684,-0.93613 0.317684,-2.567158 0.06218,-0.428753 0.112247,-0.955588 0.112247,-1.538183 V 0.80197401 c 0,-0.29869909 -1.436492,-0.47645819 -3.850926,-0.47645819 C 59.492747,0.26333092 58.966693,0.21326878 58.39842,0.21326878 H 0.96078449 M 0.5247349,2.0441884 H 12.772702 63.475265 c 0.05724,0 0.103274,0.9034937 0.103274,2.4614443 v 7.5935663 51.125049 c 0,0.05504 -0.500182,0.09931 -1.382833,0.09931 h -8.692785 c -10.360705,0 -49.6487734,-10e-4 -52.798,-0.0029 -0.1802017,-0.01072 -0.2834603,-0.04967 -0.2834603,-0.09638 v -7.546166 c 0,-6.959807 0.046036,-44.86041 0.1032742,-52.347203 V 2.0442184"
       style="opacity:1;vector-effect:none;fill:url(#radialGradient5882);fill-opacity:1;fill-rule:nonzero;stroke:none;stroke-width:1;stroke-linecap:butt;stroke-linejoin:miter;stroke-miterlimit:4;stroke-dasharray:none;stroke-dashoffset:0;stroke-opacity:1;marker:none;paint-order:fill markers stroke"
       id="path5802" />
    <path
       d="m 0.3581151,0.20296104 c -0.0859554,0 -0.15515406,0.55197614 -0.15515406,1.51190476 V 63.422317 c 0,0.141709 0.43317217,0.219568 1.22168086,0.219568 0.3749221,0.08596 0.8993786,0.155154 1.5125603,0.155154 H 63.202765 c 0.278971,0 0.43912,-0.890884 0.43912,-2.443081 0.08596,-0.408031 0.155154,-0.930959 0.155154,-1.512172 V 1.0167019 c 0,-0.41287834 -1.367062,-0.6585868 -3.664801,-0.6585868 C 59.710592,0.2721597 59.188408,0.20296104 58.620824,0.20296104 H 1.2362186 M 0.6185549,2.1230468 H 14.955261 63.381445 c 0.07912,0 0.218414,0.8807893 0.142751,2.3852401 v 9.9418401 48.722265 c 0,0.07608 -0.495829,0.137275 -1.360467,0.137275 H 51.084523 c -9.863681,0 -47.3048239,-0.0014 -50.3052991,-0.004 -0.1908768,-0.01482 -0.3034204,-0.06866 -0.3034204,-0.13323 v -9.964931 c 0,-6.647125 0.063633,-42.734972 0.1427514,-49.8599122 v -1.224502"
       style="opacity:1;vector-effect:none;fill:url(#radialGradient5884);fill-opacity:1;fill-rule:nonzero;stroke:none;stroke-width:1;stroke-linecap:butt;stroke-linejoin:miter;stroke-miterlimit:4;stroke-dasharray:none;stroke-dashoffset:0;stroke-opacity:1;marker:none;paint-order:fill markers stroke"
       id="path5804" />
    <path
       d="m 0.39627076,0.1908964 c -0.1137774,0 -0.20537436,0.54567658 -0.20537436,1.4814756 v 61.640719 c 0,0.187578 0.40742305,0.290639 1.1490603,0.290639 0.3526355,0.113777 0.8724283,0.205374 1.4820921,0.205374 H 63.022475 c 0.369268,0 0.581255,-0.837928 0.581255,-2.297857 0.113777,-0.383776 0.205374,-0.902131 0.205374,-1.481726 V 1.2680292 c 0,-0.546519 -1.2858,-0.87175844 -3.446954,-0.87175844 C 59.965568,0.28249336 59.447912,0.1908964 58.881136,0.1908964 H 1.558599 M 0.7283661,2.2153462 H 17.509827 63.271634 c 0.104727,0 0.188957,0.8500882 0.188957,2.2960472 v 12.6903656 45.90994 c 0,0.100709 -0.490735,0.181708 -1.334288,0.181708 H 48.253921 c -9.28194,0 -44.5613597,-0.0019 -47.3877296,-0.0054 C 0.66282,63.268387 0.5394089,63.197117 0.5394089,63.111654 V 50.31569 c 0,-6.281148 0.08423,-40.247263 0.1889572,-46.948675 V 2.2153012"
       style="opacity:1;vector-effect:none;fill:url(#radialGradient5886);fill-opacity:1;fill-rule:nonzero;stroke:none;stroke-width:1;stroke-linecap:butt;stroke-linejoin:miter;stroke-miterlimit:4;stroke-dasharray:none;stroke-dashoffset:0;stroke-opacity:1;marker:none;paint-order:fill markers stroke"
       id="path5806" />
    <path
       d="m 0.4400577,0.17705117 c -0.14570562,0 -0.26300653,0.5384473 -0.26300653,1.44655533 V 63.187746 c 0,0.240215 0.3778737,0.372197 1.06572193,0.372197 0.3270598,0.145705 0.8415006,0.263006 1.4471271,0.263006 H 62.815576 c 0.472893,0 0.744367,-0.777155 0.744367,-2.131199 0.145705,-0.355942 0.263006,-0.869049 0.263006,-1.446788 V 1.556449 c 0,-0.69988316 -1.192544,-1.1163913 -3.196955,-1.1163913 C 60.258175,0.29435208 59.745717,0.17705117 59.179867,0.17705117 H 1.9285586 M 0.8543839,2.3212678 H 20.441413 63.145616 c 0.134116,0 0.241982,0.8170379 0.241982,2.1936905 V 20.359496 63.042047 c 0,0.128971 -0.484889,0.232699 -1.304245,0.232699 H 45.005559 c -8.614343,0 -41.4129959,-0.0024 -44.0395648,-0.0069 C 0.7482841,63.242726 0.6124015,63.151453 0.6124015,63.042004 V 46.997185 c 0,-5.861158 0.1078668,-37.392402 0.2419824,-43.6077772 v -1.068183"
       style="opacity:1;vector-effect:none;fill:url(#radialGradient5888);fill-opacity:1;fill-rule:nonzero;stroke:none;stroke-width:1;stroke-linecap:butt;stroke-linejoin:miter;stroke-miterlimit:4;stroke-dasharray:none;stroke-dashoffset:0;stroke-opacity:1;marker:none;paint-order:fill markers stroke"
       id="path5808" />
    <path
       d="m 0.48954277,0.16140422 c -0.18178876,0 -0.32813855,0.53027724 -0.32813855,1.40709088 V 63.046088 c 0,0.299703 0.344479,0.464369 0.97153838,0.464369 0.2981558,0.181789 0.8065481,0.328139 1.4076122,0.328139 H 62.581753 c 0.590001,0 0.928704,-0.708473 0.928704,-1.942854 0.181789,-0.324485 0.328139,-0.831662 0.328139,-1.407303 V 1.8824018 c 0,-0.8732051 -1.087153,-1.39285903 -2.914424,-1.39285903 C 60.58886,0.30775401 60.082275,0.16140422 59.517472,0.16140422 H 2.3466621 M 0.9968008,2.4409734 H 23.754496 63.003199 c 0.167329,0 0.335343,0.7801173 0.301908,2.0780139 V 23.928159 62.963332 c 0,0.160909 -0.478283,0.290326 -1.270293,0.290326 H 41.334478 c -7.85987,0 -37.8549262,-0.003 -40.2556934,-0.0086 C 0.84487,63.213708 0.6948929,63.099841 0.6948929,62.963288 V 43.24683 c 0,-5.386514 0.1345794,-34.1660291 0.3019079,-39.8321187 V 2.4409294"
       style="opacity:1;vector-effect:none;fill:url(#radialGradient5890);fill-opacity:1;fill-rule:nonzero;stroke:none;stroke-width:1;stroke-linecap:butt;stroke-linejoin:miter;stroke-miterlimit:4;stroke-dasharray:none;stroke-dashoffset:0;stroke-opacity:1;marker:none;paint-order:fill markers stroke"
       id="path5810" />
    <path
       d="m 0.54478644,0.14393643 c -0.22207091,0 -0.40085001,0.52115643 -0.40085001,1.36303397 V 62.887946 c 0,0.366114 0.30719814,0.567268 0.86639477,0.567268 0.2658882,0.222071 0.7675281,0.40085 1.3634988,0.40085 h 59.94689 c 0.720738,0 1.134494,-0.6318 1.134494,-1.732591 0.222071,-0.289368 0.40085,-0.789924 0.40085,-1.363223 V 2.2462859 c 0,-1.0666966 -0.969497,-1.70149946 -2.599014,-1.70149946 C 60.958027,0.32271553 60.457998,0.14393643 59.894365,0.14393643 H 2.8134206 M 1.1557908,2.5746091 H 27.453123 62.844209 c 0.204406,0 0.368807,0.7379889 0.368807,1.9488759 v 23.388624 34.963347 c 0,0.196565 -0.470907,0.354659 -1.232389,0.354659 H 37.236191 c -7.017597,0 -33.8828016,-0.0036 -36.0314905,-0.01045 C 0.9526955,63.181375 0.7869838,63.04227 0.7869838,62.875458 V 39.060091 c 0,-4.856634 0.1644006,-30.5642011 0.368807,-35.6170845 V 2.5746111"
       style="opacity:1;vector-effect:none;fill:url(#radialGradient5892);fill-opacity:1;fill-rule:nonzero;stroke:none;stroke-width:1;stroke-linecap:butt;stroke-linejoin:miter;stroke-miterlimit:4;stroke-dasharray:none;stroke-dashoffset:0;stroke-opacity:1;marker:none;paint-order:fill markers stroke"
       id="path5812" />
    <path
       d="m 0.60584392,0.12463033 c -0.26659233,0 -0.48121359,0.51107575 -0.48121359,1.31434047 V 62.713161 c 0,0.439513 0.26599387,0.680995 0.75018583,0.680995 C 1.1050409,63.660749 1.599218,63.87537 2.1895591,63.87537 H 62.032216 c 0.865234,0 1.36194,-0.547057 1.36194,-1.500199 0.266593,-0.250556 0.481214,-0.743795 0.481214,-1.314505 V 2.6484649 c 0,-1.280551 -0.839459,-2.04262098 -2.25041,-2.04262098 C 61.366044,0.33925159 60.873263,0.12463033 60.310922,0.12463033 H 3.3293004 M 1.3315128,2.7223085 H 31.540992 62.668487 c 0.245386,0 0.462793,0.6920833 0.442746,1.8061476 V 32.315327 62.778333 c 0,0.235973 -0.462754,0.425761 -1.190497,0.425761 H 32.706604 c -6.086685,0 -29.4926543,-0.0043 -31.3627364,-0.01255 -0.271999,-0.04597 -0.4551012,-0.21296 -0.4551012,-0.413214 V 34.432686 c 0,-4.27099 0.1973601,-26.5833187 0.4427464,-30.9584623 V 2.7223055"
       style="opacity:1;vector-effect:none;fill:url(#radialGradient5894);fill-opacity:1;fill-rule:nonzero;stroke:none;stroke-width:1;stroke-linecap:butt;stroke-linejoin:miter;stroke-miterlimit:4;stroke-dasharray:none;stroke-dashoffset:0;stroke-opacity:1;marker:none;paint-order:fill markers stroke"
       id="path5814" />
    <path
       d="m 0.67276608,0.10346985 c -0.31539011,0 -0.56929623,0.50002681 -0.56929623,1.26096985 V 62.521587 c 0,0.519964 0.22083185,0.805647 0.62281483,0.805647 0.19113585,0.31539 0.67713312,0.569296 1.26130402,0.569296 H 61.716 c 1.023609,0 1.611234,-0.454174 1.611234,-1.245486 0.31539,-0.208015 0.569296,-0.693233 0.569296,-1.261106 V 3.089274 c 0,-1.5149466 -0.69693,-2.41650792 -1.868321,-2.41650792 C 61.813253,0.35737597 61.328414,0.10346985 60.767489,0.10346985 H 3.8947314 M 1.5241133,2.8841948 H 36.021508 62.475887 c 0.290302,0 0.539248,0.6415088 0.523788,1.6497099 V 37.141483 62.67188 c 0,0.279166 -0.45382,0.503694 -1.144582,0.503694 H 27.741941 c -5.066357,0 -24.6808245,-0.0051 -26.2455389,-0.01484 -0.2939137,-0.05438 -0.4960768,-0.25194 -0.4960768,-0.48885 V 29.360823 c 0,-3.629093 0.2334855,-22.2200654 0.523788,-25.8523712 v -0.624253"
       style="opacity:1;vector-effect:none;fill:url(#radialGradient5896);fill-opacity:1;fill-rule:nonzero;stroke:none;stroke-width:1;stroke-linecap:butt;stroke-linejoin:miter;stroke-miterlimit:4;stroke-dasharray:none;stroke-dashoffset:0;stroke-opacity:1;marker:none;paint-order:fill markers stroke"
       id="path5816" />
    <path
       d="m 0.7456001,0.08044007 c -0.36849866,0 -0.66516003,0.4880018 -0.66516003,1.20288453 V 62.31309 c 0,0.60752 0.17168025,0.94131 0.48419196,0.94131 0.14859383,0.368499 0.62568867,0.66516 1.20314437,0.66516 H 61.371851 c 1.195974,0 1.882549,-0.353087 1.882549,-0.968273 0.368499,-0.161716 0.66516,-0.638205 0.66516,-1.20299 V 3.5690238 c 0,-1.7700485 -0.541811,-2.8234237 -1.45248,-2.8234237 C 62.299968,0.37710144 61.823774,0.08044007 61.26439,0.08044007 H 4.5101122 M 1.733728,3.0603819 H 40.89783 62.266272 c 0.339186,0 0.623784,0.5864933 0.611989,1.4794526 V 42.393978 62.556024 c 0,0.326175 -0.444096,0.588511 -1.094609,0.588511 H 22.338703 c -3.955893,0 -19.4439208,-0.006 -20.6762917,-0.01734 -0.3177642,-0.06354 -0.540672,-0.294365 -0.540672,-0.571168 v -38.71512 c 0,-2.930493 0.2728021,-17.4713659 0.6119887,-20.295212 V 3.0603849"
       style="opacity:1;vector-effect:none;fill:url(#radialGradient5898);fill-opacity:1;fill-rule:nonzero;stroke:none;stroke-width:1;stroke-linecap:butt;stroke-linejoin:miter;stroke-miterlimit:4;stroke-dasharray:none;stroke-dashoffset:0;stroke-opacity:1;marker:none;paint-order:fill markers stroke"
       id="path5818" />
    <path
       d="m 0.82438998,0.05552708 c -0.42595005,0 -0.7688629,0.47499347 -0.7688629,1.14004942 V 62.087544 c 0,0.702236 0.11850936,1.088066 0.33423345,1.088066 0.10257301,0.42595 0.57003753,0.768863 1.14022877,0.768863 H 60.999559 c 1.382435,0 2.176051,-0.243733 2.176051,-0.66839 0.42595,-0.111631 0.768863,-0.578678 0.768863,-1.140123 V 4.0880042 c 0,-2.0460108 -0.374008,-3.26361422 -1.002634,-3.26361422 C 62.826483,0.39843993 62.35964,0.05552708 61.801924,0.05552708 H 5.1758146 M 1.9604835,3.2509765 H 46.172904 62.039517 c 0.392067,0 0.716226,0.5269957 0.707401,1.2952728 V 48.075985 62.430694 c 0,0.377027 -0.433576,0.680264 -1.04055,0.680264 H 16.493625 c -2.754623,0 -12.7787788,-0.0069 -13.6516294,-0.02005 C 2.4984306,63.017468 1.2530817,62.75065 1.2530817,62.430692 V 17.869606 c 0,-2.174766 0.3153337,-12.3343501 0.7074018,-14.2836262 V 3.2509745"
       style="opacity:1;vector-effect:none;fill:url(#radialGradient5900);fill-opacity:1;fill-rule:nonzero;stroke:none;stroke-width:1;stroke-linecap:butt;stroke-linejoin:miter;stroke-miterlimit:4;stroke-dasharray:none;stroke-dashoffset:0;stroke-opacity:1;marker:none;paint-order:fill markers stroke"
       id="path5820" />
    <path
       d="m 0.909177,0.02871781 c -0.48777439,0 -0.88045919,0.46099501 -0.88045919,1.07243159 V 61.84483 c 0,0.804162 0.06129136,1.245993 0.17286079,1.245993 0.0530493,0.487774 0.51015044,0.880459 1.0725243,0.880459 H 60.59893 c 1.583087,0 2.491893,-0.126055 2.491893,-0.345682 0.487774,-0.05773 0.880459,-0.514619 0.880459,-1.072469 V 4.6464872 c 0,-2.3429782 -0.193431,-3.7373102 -0.518548,-3.7373102 -0.05966,-0.48777439 -0.51644,-0.88045919 -1.072362,-0.88045919 H 5.8921873 M 2.2044986,3.4560783 h 49.6449944 9.946009 c 0.448974,0 0.816464,0.4629802 0.810077,1.0970741 v 49.6373296 8.105342 c 0,0.431751 -0.422256,0.779001 -0.982377,0.779001 H 10.203647 c -1.4619192,0 -6.6824327,-0.008 -7.1683979,-0.02296 -0.3713298,-0.0841 -1.6408278,-0.389645 -1.6408278,-0.756043 v -50.85202 c 0,-1.361516 0.3611027,-6.8063279 0.8100773,-7.8144658 V 3.4560763"
       style="opacity:1;vector-effect:none;fill:url(#radialGradient5902);fill-opacity:1;fill-rule:nonzero;stroke:none;stroke-width:1;stroke-linecap:butt;stroke-linejoin:miter;stroke-miterlimit:4;stroke-dasharray:none;stroke-dashoffset:0;stroke-opacity:1;marker:none;paint-order:fill markers stroke"
       id="path5822" />
    <path
       id="rect874"
       d="M 1,0 C 0.446,0 0,0.446 0,1 v 62 c 0,0.554 0.446,1 1,1 h 62 c 0.554,0 1,-0.446 1,-1 V 1 C 64,0.446 63.554,0 63,0 Z M 2.4658851,3.6757812 H 61.534115 c 0.509932,0 0.920062,0.3943951 0.920062,0.8847657 V 62.151353 c 0,0.49037 -0.41013,0.884766 -0.920062,0.884766 H 2.4658851 c -0.5099323,0 -0.9200623,-0.394396 -0.9200623,-0.884766 V 4.5605469 c 0,-0.4903706 0.41013,-0.8847657 0.9200623,-0.8847657 z"
       style="opacity:1;vector-effect:none;fill:url(#radialGradient5868);fill-opacity:1;fill-rule:nonzero;stroke:none;stroke-width:1;stroke-linecap:butt;stroke-linejoin:miter;stroke-miterlimit:4;stroke-dasharray:none;stroke-dashoffset:0;stroke-opacity:1;marker:none;paint-order:fill markers stroke" />
    <path
       id="rect897"
       d="M 0.24023438,0.24023438 V 63.759766 H 63.759766 V 0.24023438 Z M 0.2792969,1.8378906 H 63.720703 V 63.359904 H 0.2792969 Z"
       style="opacity:1;vector-effect:none;fill:url(#radialGradient5870);fill-opacity:1;fill-rule:nonzero;stroke:none;stroke-width:1;stroke-linecap:butt;stroke-linejoin:miter;stroke-miterlimit:4;stroke-dasharray:none;stroke-dashoffset:0;stroke-opacity:1;marker:none;paint-order:fill markers stroke" />
    <path
       id="rect897-6"
       d="M 0.24023438,1.2789356 V 63.759766 H 63.759766 V 1.2789356 Z M 0.2792969,2.5569913 H 63.720703 V 63.359904 H 0.2792969 Z"
       style="opacity:1;vector-effect:none;fill:url(#radialGradient5934);fill-opacity:1;fill-rule:nonzero;stroke:none;stroke-width:1;stroke-linecap:butt;stroke-linejoin:miter;stroke-miterlimit:4;stroke-dasharray:none;stroke-dashoffset:0;stroke-opacity:1;marker:none;paint-order:fill markers stroke" />
  </g>
  <path
     style="fill:#cd4c1c"
     d="m0 15.531v46.469l2 2h30v-30z"
     id="g" />
  <path
     style="fill:#1aaa33"
     d="m64 15.531-32 18.469v30h30l2-2v-28z"
     id="o" />
  <path
     id="path3826"
     d="M 51.817134,27.99413 31.642837,34.206269 24.65625,53.84375 29.70805,64 H 62 l 2,-2 V 34 Z"
     style="fill:#00285f;fill-opacity:0.17441861;stroke:none" />
  <path
     d="m 31.999598,14.364473 -0.0098,19.635514 m 17.01991,9.815159 -17.009732,-9.82101 -16.974039,9.811744"
     style="fill:none;fill-opacity:1;stroke:#ffffff;opacity:0.553"
     id="path3837" />
  <path
     style="fill:url(#linearGradient1043);fill-opacity:1;stroke:none"
     d="M 31.99997,14.39419 15,24.179632 31.99997,34.005848 48.99994,24.179632 Z"
     id="path228" />
  <path
     style="fill:url(#linearGradient1060);fill-opacity:1;stroke:none"
     d="M 15,43.779592 31.99997,53.605808 31.98977,33.999987 15,24.179632 Z"
     id="path226" />
  <path
     style="fill:url(#linearGradient1051);fill-opacity:1;stroke:none"
     d="M 48.99994,24.179632 31.98983,33.999987 32.00003,53.605808 49,43.779592 Z"
     id="path224" />
  <path
     id="path222"
     d="M 48.99994,24.179632 31.98983,33.999987 32.00003,53.605808 49,43.779592 Z"
     style="fill:none;fill-opacity:1;stroke:url(#linearGradient1084);stroke-linejoin:round;stroke-linecap:round;stroke-opacity:1;opacity:1" />
  <path
     id="path3843"
     d="m 15,24.179632 v 19.59996 l 16.99997,9.826216"
     style="fill:none;fill-opacity:1;stroke:url(#linearGradient1068);stroke-linejoin:round;stroke-linecap:round;stroke-opacity:1;opacity:1" />
  <path
     style="fill:none;fill-opacity:1;stroke:url(#linearGradient1076);stroke-linejoin:round;stroke-linecap:round;stroke-opacity:1;opacity:1"
     d="M 31.99997,14.39419 15,24.179632 31.99997,34.005848 48.99994,24.179632 Z"
     id="path230" />
</svg>
