<?xml version="1.0" encoding="UTF-8"?>
<!-- Created with Inkscape (http://www.inkscape.org/) -->
<svg width="64" height="64" version="1.1" xmlns="http://www.w3.org/2000/svg" xmlns:cc="http://creativecommons.org/ns#" xmlns:dc="http://purl.org/dc/elements/1.1/" xmlns:rdf="http://www.w3.org/1999/02/22-rdf-syntax-ns#" xmlns:xlink="http://www.w3.org/1999/xlink">
	<defs>
		<radialGradient id="a" cx="39.546" cy="44.037" r="32" gradientTransform="matrix(1.4615 0 0 1.4158 -17.929 -18.033)" gradientUnits="userSpaceOnUse">
			<stop stop-color="#3770cd" offset="0"/>
			<stop stop-color="#1280e9" offset="1"/>
		</radialGradient>
	</defs>
	<metadata>
		<rdf:RDF>
			<cc:Work rdf:about="">
				<dc:format>image/svg+xml</dc:format>
				<dc:type rdf:resource="http://purl.org/dc/dcmitype/StillImage"/>
				<dc:title/>
			</cc:Work>
		</rdf:RDF>
	</metadata>
	<path d="m0 2v32 28l2 2h30 30l2-2v-28-32h-32z" color="#000000" fill="url(#a)"/>
	<path d="m2 0-2 1v1h32 32v-1l-2-1h-30z" color="#000000" fill="#65d0ff"/>
	<path d="m0 1v3l2-2z" fill="#78d6ff"/>
	<path d="m64 4-2-2 2-1z" fill="#49b4f7" fill-opacity=".98627"/>
	<path class="ColorScheme-Text" d="m23.039 15.078c-1.2373 0-2.2403 1.003-2.2403 2.2403 0 1.2373 1.003 2.2403 2.2403 2.2403s2.2403-1.003 2.2403-2.2403-1.003-2.2403-2.2403-2.2403zm15.682 0-4.4805 4.4805v1l6.7208 5.7208-6.7208 6.7208v1l4.4805 3.4805 11.201-10.201v-1zm-20.909 13.442c-2.0621 0-3.7338 1.6717-3.7338 3.7338 1e-6 2.0621 1.6717 3.7338 3.7338 3.7338s3.7338-1.6717 3.7338-3.7338c0-2.0621-1.6717-3.7338-3.7338-3.7338zm9.7078 13.442c-2.4745 0-4.4805 2.006-4.4805 4.4805s2.006 4.4805 4.4805 4.4805c2.4745 0 4.4805-2.006 4.4805-4.4805s-2.006-4.4805-4.4805-4.4805z" fill="#f2f2f2"/>
	<path class="ColorScheme-Text" d="m23.039 16.078c-1.2373 0-2.2403 1.003-2.2403 2.2403 0 1.2373 1.003 2.2403 2.2403 2.2403s2.2403-1.003 2.2403-2.2403-1.003-2.2403-2.2403-2.2403zm15.682 0-4.4805 4.4805 6.7208 6.7208-6.7208 6.7208 4.4805 4.4805 11.201-11.201zm-20.909 13.442c-2.0621 0-3.7338 1.6717-3.7338 3.7338 1e-6 2.0621 1.6717 3.7338 3.7338 3.7338s3.7338-1.6717 3.7338-3.7338c0-2.0621-1.6717-3.7338-3.7338-3.7338zm9.7078 13.442c-2.4745 0-4.4805 2.006-4.4805 4.4805s2.006 4.4805 4.4805 4.4805c2.4745 0 4.4805-2.006 4.4805-4.4805s-2.006-4.4805-4.4805-4.4805z" fill="#cce4f5"/>
</svg>
