<svg width="64" height="64" xmlns="http://www.w3.org/2000/svg" xmlns:xlink="http://www.w3.org/1999/xlink"><defs><radialGradient id="b" cx="32.193" cy="31.084" r="32" gradientTransform="matrix(1.809 0 0 1.7807 -25.65 -22.101)" gradientUnits="userSpaceOnUse"><stop stop-color="#36893e" offset="0"/><stop stop-color="#47955b" offset="1"/></radialGradient><radialGradient id="s" cx="36.463" cy="1.498" r="32" gradientTransform="matrix(0 .02541 -1.2755 0 33.91 1.073)" gradientUnits="userSpaceOnUse"><stop stop-color="#a6ff55" offset="0"/><stop stop-color="#a7ff5d" stop-opacity=".001" offset="1"/></radialGradient><radialGradient id="r" cx="35.574" cy="1.439" r="32" gradientTransform="matrix(0 1.1252 -5.1753 0 39.446 -39.029)" gradientUnits="userSpaceOnUse" xlink:href="#a"/><radialGradient id="q" cx="35.574" cy="1.393" r="32" gradientTransform="matrix(0 1.1252 -5.1753 0 39.208 -39.029)" gradientUnits="userSpaceOnUse" xlink:href="#a"/><radialGradient id="p" cx="35.574" cy="1.346" r="32" gradientTransform="matrix(0 1.1252 -5.1753 0 38.966 -39.029)" gradientUnits="userSpaceOnUse" xlink:href="#a"/><radialGradient id="o" cx="35.574" cy="1.304" r="32" gradientTransform="matrix(0 1.1252 -5.1753 0 38.75 -39.029)" gradientUnits="userSpaceOnUse" xlink:href="#a"/><radialGradient id="n" cx="35.574" cy="1.273" r="32" gradientTransform="matrix(0 1.1252 -5.1753 0 38.587 -39.029)" gradientUnits="userSpaceOnUse" xlink:href="#a"/><radialGradient id="m" cx="35.574" cy="1.239" r="32" gradientTransform="matrix(0 1.1252 -5.1753 0 38.411 -39.029)" gradientUnits="userSpaceOnUse" xlink:href="#a"/><radialGradient id="l" cx="35.574" cy="1.208" r="32" gradientTransform="matrix(0 1.1252 -5.1753 0 38.252 -39.029)" gradientUnits="userSpaceOnUse" xlink:href="#a"/><radialGradient id="k" cx="35.574" cy="1.18" r="32" gradientTransform="matrix(0 1.1252 -5.1753 0 38.107 -39.029)" gradientUnits="userSpaceOnUse" xlink:href="#a"/><radialGradient id="j" cx="35.574" cy="1.159" r="32" gradientTransform="matrix(0 1.1252 -5.1753 0 38 -39.029)" gradientUnits="userSpaceOnUse" xlink:href="#a"/><radialGradient id="i" cx="35.574" cy="1.135" r="32" gradientTransform="matrix(0 1.1252 -5.1753 0 37.875 -39.029)" gradientUnits="userSpaceOnUse" xlink:href="#a"/><radialGradient id="h" cx="35.574" cy="1.113" r="32" gradientTransform="matrix(0 1.1252 -5.1753 0 37.758 -39.029)" gradientUnits="userSpaceOnUse" xlink:href="#a"/><radialGradient id="g" cx="35.574" cy="1.091" r="32" gradientTransform="matrix(0 1.1252 -5.1753 0 37.648 -39.029)" gradientUnits="userSpaceOnUse" xlink:href="#a"/><radialGradient id="f" cx="35.574" cy="1.071" r="32" gradientTransform="matrix(0 1.1252 -5.1753 0 37.544 -39.029)" gradientUnits="userSpaceOnUse" xlink:href="#a"/><radialGradient id="e" cx="35.574" cy="1.055" r="32" gradientTransform="matrix(0 1.1252 -5.1753 0 37.458 -39.029)" gradientUnits="userSpaceOnUse" xlink:href="#a"/><radialGradient id="d" cx="35.574" cy="1.036" r="32" gradientTransform="matrix(0 1.1252 -5.1753 0 37.363 -39.029)" gradientUnits="userSpaceOnUse" xlink:href="#a"/><radialGradient id="c" cx="35.574" cy="1.019" r="32" gradientTransform="matrix(0 1.1252 -5.1753 0 37.271 -39.029)" gradientUnits="userSpaceOnUse" xlink:href="#a"/><radialGradient id="t" cx="28.298" cy="14.456" r="12.004" gradientTransform="matrix(1.3141 0 0 1.314 -7.605 -7.315)" gradientUnits="userSpaceOnUse"><stop stop-color="#f2cab7" offset="0"/><stop stop-color="#c8e5a7" offset="1"/></radialGradient><linearGradient id="a"><stop stop-color="#95ff54" stop-opacity=".15" offset="0"/><stop stop-color="#88ff54" stop-opacity=".02" offset="1"/></linearGradient></defs><rect width="64" height="64" rx="1" ry="1" fill="url(#b)" style="-inkscape-stroke:none;font-variation-settings:normal" paint-order="fill markers stroke"/><path d="M1 0C.446 0 0 .446 0 1v62-.224V63 2h1.752c19.15.002 39.445 0 60.213 0H64v61-.334V63 1a.998.998 0 0 0-1-1z" fill="url(#c)"/><path d="M1 0a.998.998 0 0 0-1 1.006v61.98-.197c0-.277.004-.184.01.246.012.016.03-.297.052-.897v-60c.072-.009.133-.013.185-.013.29-.016.357-.032.774-.044.246-.011.496-.019.747-.019 19.183.002 39.392 0 60.2 0 .346 0 .689.012 1.023.03.268.01.389.02.52.033.106 0 .22.01.427.028v59.744c.027.754.05 1.148.059 1.123l.003-.334v.286V1.21c0-.143 0-.22-.002-.224A.996.996 0 0 0 62.986 0H1" fill="url(#d)"/><path d="M1 0a.998.998 0 0 0-1 1.006v61.966-.169c0-.245.008-.145.021.266.022.034.06-.247.104-.807V2.274a.744.744 0 0 1 .173-.025c.27-.031.341-.064.743-.088.242-.022.492-.037.742-.037 19.217.002 39.34 0 60.187 0 .347 0 .69.024 1.013.06.256.02.372.042.494.065.1 0 .206.02.398.057v59.731c.055.703.102 1.052.119 1.003.004-.154.006-.265.006-.333v.237V1.196c0-.139 0-.215-.003-.224A.994.994 0 0 0 63.19.02a1.025 1.025 0 0 0-.217-.02H1" fill="url(#e)"/><path d="M1 0a.998.998 0 0 0-1 1.005v61.953-.14c0-.213.012-.107.031.287.034.05.091-.198.156-.718V2.413a.45.45 0 0 1 .16-.037c.252-.048.327-.097.715-.132.238-.034.487-.056.737-.056 19.25.002 39.286 0 60.173 0 .348 0 .688.036 1.001.09.244.029.356.062.47.098.091 0 .19.03.37.085v59.718c.082.653.151.957.176.884.007-.152.01-.262.01-.333v.188V1.184c0-.135 0-.21-.004-.224a.992.992 0 0 0-.819-.94 1.041 1.041 0 0 0-.217-.018H.999" fill="url(#f)"/><path d="M1 0a.998.998 0 0 0-1 1.005v61.939-.113c0-.18.015-.068.042.308.045.067.121-.149.208-.629V2.55a.312.312 0 0 1 .148-.05c.232-.063.311-.128.684-.176.234-.044.483-.074.732-.074 19.284.002 39.234 0 60.16 0 .35 0 .689.048.991.12.232.039.34.083.444.13.085 0 .176.04.341.114v59.704c.11.603.203.862.236.764a5.23 5.23 0 0 0 .014-.333v.14V1.168c0-.13-.002-.206-.006-.224a.991.991 0 0 0-.83-.927 1.066 1.066 0 0 0-.22-.017H1" fill="url(#g)"/><path d="M1 0a.998.998 0 0 0-1 1.004V62.93v-.084c0-.148.02-.029.052.328.056.084.152-.099.26-.539V2.686c.053-.04.097-.061.136-.061.212-.08.297-.16.655-.22.23-.056.477-.093.727-.093 19.317.002 39.18 0 60.147 0 .35 0 .688.06.98.151.22.047.322.102.418.162.078 0 .162.049.313.142v59.69c.137.553.253.767.295.645A4.73 4.73 0 0 0 64 62.77v.09V1.155c0-.126-.002-.202-.007-.224a.99.99 0 0 0-.843-.914A1.099 1.099 0 0 0 62.932 0H1" fill="url(#h)"/><path d="M1 0a.998.998 0 0 0-1 1.004v61.912-.056c0-.117.023.01.063.349.067.1.182-.05.312-.45V2.824c.048-.049.088-.074.123-.074.193-.095.282-.192.626-.264.225-.067.472-.11.721-.11h60.133c.352 0 .688.071.97.18a.944.944 0 0 1 .393.194c.07 0 .147.059.284.17V62.6c.164.502.304.671.354.524.014-.14.02-.25.02-.331v.042V1.14c0-.121-.002-.197-.009-.224a.99.99 0 0 0-.854-.902A1.142 1.142 0 0 0 62.918 0H1" fill="url(#i)"/><path d="M1 0a.998.998 0 0 0-1 1.004v61.898-.029c0-.084.027.049.073.37.079.117.212 0 .365-.36V2.96c.043-.057.079-.086.11-.086.174-.112.267-.225.596-.309a2.19 2.19 0 0 1 .717-.129c19.385.002 39.075 0 60.12 0 .353 0 .687.084.958.211a.81.81 0 0 1 .368.227c.063 0 .132.068.256.199v59.665c.192.452.354.576.413.404a3.11 3.11 0 0 0 .024-.33V1.125c0-.117-.004-.193-.01-.224a.99.99 0 0 0-.868-.89A1.198 1.198 0 0 0 62.905 0H1" fill="url(#j)"/><path d="M1 0a.998.998 0 0 0-1 1.003v61.885c0-.052.03.087.084.39.09.135.242.05.416-.27V3.097C.538 3.034.57 3 .599 3c.154-.127.251-.257.566-.352.217-.089.463-.148.711-.148 19.418.002 39.022 0 60.107 0 .355 0 .687.096.947.242a.723.723 0 0 1 .343.258c.056 0 .118.079.227.227v59.651c.22.402.406.482.473.285.018-.132.027-.243.027-.33V1.112c0-.113-.004-.188-.012-.224a.99.99 0 0 0-.879-.877A1.273 1.273 0 0 0 62.891 0H1.001" fill="url(#k)"/><path d="M1 0a.998.998 0 0 0-1 1.003v61.899c0-.02.035.126.094.41.101.152.273.1.468-.18V3.235c.034-.073.062-.11.087-.11.135-.143.236-.29.536-.397.213-.1.459-.166.707-.166 19.452.002 38.969 0 60.093 0 .356 0 .687.108.936.272a.678.678 0 0 1 .317.29c.05 0 .103.089.2.256v59.64c.246.352.455.386.531.165.02-.128.03-.239.03-.33V1.1c0-.108-.004-.184-.013-.224a.99.99 0 0 0-.891-.864 1.376 1.376 0 0 0-.218-.01H1" fill="url(#l)"/><path d="M1 0a.998.998 0 0 0-1 1.002v61.913c0 .013.039.165.105.432.112.168.303.148.52-.092V3.373c.029-.081.053-.123.074-.123.116-.159.222-.321.507-.44a1.52 1.52 0 0 1 .701-.185c19.486.002 38.916 0 60.08 0 .357 0 .687.12.925.302a.66.66 0 0 1 .292.323c.043 0 .089.098.171.284V63.16c.275.302.507.29.591.046.022-.125.034-.236.034-.33V1.085c0-.104-.005-.18-.016-.224a.99.99 0 0 0-.903-.852 1.514 1.514 0 0 0-.218-.008H1" fill="url(#m)"/><path d="M1 0a.998.998 0 0 0-1 1.002V62.93c0 .045.042.203.115.453.123.184.333.197.572-.003V3.51c.024-.089.045-.135.062-.135.097-.174.207-.353.478-.484.204-.122.448-.203.696-.203 19.519.002 38.863 0 60.067 0a1.4 1.4 0 0 1 .914.332c.15.103.224.225.267.355.035 0 .073.108.142.313V63.3c.302.251.557.196.65-.074a1.7 1.7 0 0 0 .037-.33V1.071c0-.1-.006-.175-.017-.224a.99.99 0 0 0-.915-.84A1.712 1.712 0 0 0 62.85 0H1" fill="url(#n)"/><path d="M1 0a.998.998 0 0 0-1 1.002v61.942c0 .077.046.242.126.473.134.201.363.246.624.086V3.647C.77 3.55.785 3.5.8 3.5a.981.981 0 0 1 .447-.529c.2-.133.444-.221.691-.221 19.553.002 38.811 0 60.053 0 .36 0 .686.144.903.362a.688.688 0 0 1 .242.388c.028 0 .059.118.114.341v59.598c.33.2.608.1.709-.194.026-.117.04-.228.04-.329V1.056c0-.095-.006-.17-.018-.224a.991.991 0 0 0-.927-.827A2.015 2.015 0 0 0 62.836 0H1" fill="url(#o)"/><path d="M1 0a.998.998 0 0 0-1 1.001v61.956c0 .11.05.281.136.494.146.218.394.296.677.176V3.784c.014-.105.026-.16.036-.16a.967.967 0 0 1 .419-.572c.196-.144.439-.24.686-.24 19.586.002 38.758 0 60.04 0 .36 0 .685.156.892.392a.73.73 0 0 1 .216.42c.021 0 .044.128.086.37v59.585c.356.15.658.005.768-.314.029-.114.044-.224.044-.328V1.042c0-.09-.007-.166-.02-.224a.992.992 0 0 0-.94-.814 2.524 2.524 0 0 0-.217-.005H1" fill="url(#p)"/><path d="M1 0a.998.998 0 0 0-1 1v61.972c0 .142.054.32.147.515a.643.643 0 0 0 .728.265V3.922c.01-.114.018-.172.025-.172a.97.97 0 0 1 .389-.617c.192-.155.434-.258.68-.258 19.62.002 38.705 0 60.027 0 .362 0 .686.168.882.422a.794.794 0 0 1 .19.453c.015 0 .03.137.057.398V63.72c.385.1.71-.09.828-.434.03-.11.047-.22.047-.328V1.028c0-.086-.007-.161-.021-.224a.994.994 0 0 0-.951-.802A3.563 3.563 0 0 0 62.809 0H1" fill="url(#q)"/><path d="M1 0a.998.998 0 0 0-1 1v61.986c0 .174.058.358.157.535a.802.802 0 0 0 .78.355V4.06c.005-.122.01-.185.013-.185a.987.987 0 0 1 .36-.66c.187-.166.429-.277.675-.277 19.653.002 38.652 0 60.013 0 .363 0 .685.18.87.452a.876.876 0 0 1 .166.485c.007 0 .015.147.028.427V63.86c.412.05.76-.186.887-.553a1.1 1.1 0 0 0 .05-.328V1.014A.996.996 0 0 0 63.014 0a6.67 6.67 0 0 0-.219 0H1" fill="url(#r)"/><path d="M1 0a.998.998 0 0 0-1 1v62a.997.997 0 0 0 1 1V4.001c0-.254.132-.514.33-.705A.99.99 0 0 1 2 3.001c19.687.002 38.599 0 60 0a1 1 0 0 1 .86.483A.98.98 0 0 1 63 4v60a.998.998 0 0 0 1-1V1.001a.998.998 0 0 0-1-1H1" fill="url(#s)"/><path d="M41.223 14.896c-5.205 0-9.436 4.225-9.436 9.436m-.36 6c.006.005-.006.017 0 .023L15.432 46.344v3.777h3.778l1.254-1.26v-2.517h2.517l1.26-1.255h2.517l1.25-1.26v-2.517l.761-.755m2.517-2.517 5.413-5.413c.006 0 .023-.006.03 0a9.373 9.373 0 0 0 4.494 1.135c5.2 0 9.442-4.22 9.442-9.43v-.04a9.438 9.438 0 0 0-9.442-9.4m1.88 4.316a3.25 3.25 0 0 1 3.24 3.24 3.24 3.24 0 0 1-6.48 0 3.245 3.245 0 0 1 3.24-3.24M31.395 37.824l12.293 12.29h4.03V46.08l-9.072-9.071M31.66 30.02l-12.19-12.19h-4.037v4.035l9.315 9.313" fill="none" stroke="#1029ee" stroke-linecap="round" stroke-linejoin="round" stroke-opacity=".047" stroke-width="10"/><path d="M41.223 14.896c-5.205 0-9.436 4.225-9.436 9.436m-.36 6c.006.005-.006.017 0 .023L15.432 46.344v3.777h3.778l1.254-1.26v-2.517h2.517l1.26-1.255h2.517l1.25-1.26v-2.517l.761-.755m2.517-2.517 5.413-5.413c.006 0 .023-.006.03 0a9.373 9.373 0 0 0 4.494 1.135c5.2 0 9.442-4.22 9.442-9.43v-.04a9.438 9.438 0 0 0-9.442-9.4m1.88 4.316a3.25 3.25 0 0 1 3.24 3.24 3.24 3.24 0 0 1-6.48 0 3.245 3.245 0 0 1 3.24-3.24M31.395 37.824l12.293 12.29h4.03V46.08l-9.072-9.071M31.66 30.02l-12.19-12.19h-4.037v4.035l9.315 9.313" fill="none" stroke="#d5ecde" stroke-linecap="round" stroke-linejoin="round" stroke-width="2"/><path transform="translate(-2.46 -2.356) scale(1.4767)" d="M29.574 12a6.433 6.433 0 0 0-5.653 9.496c.004.004-.004.012 0 .016L11.999 33.43v2.574h2.574l.855-.859V33.43h1.715l.859-.855h1.715l.852-.859v-1.715l.859-.855h1.715v-1.715l3.348-3.348c.004 0 .016-.004.02 0 .91.496 1.957.773 3.063.773 3.543 0 6.434-2.875 6.434-6.426v-.027a6.431 6.431 0 0 0-6.434-6.406m1.281 3.434a1.715 1.715 0 1 1 0 3.43 1.715 1.715 0 0 1 0-3.43" fill="url(#t)"/></svg>