<?xml version="1.0" encoding="UTF-8"?>
<svg id="ao" width="64" height="64" version="1.1" xmlns="http://www.w3.org/2000/svg" xmlns:cc="http://creativecommons.org/ns#" xmlns:dc="http://purl.org/dc/elements/1.1/" xmlns:rdf="http://www.w3.org/1999/02/22-rdf-syntax-ns#">
	<defs id="bj">
		<filter id="c" color-interpolation-filters="sRGB">
			<feGaussianBlur id="as" stdDeviation="0.0785332"/>
		</filter>
		<filter id="k" color-interpolation-filters="sRGB">
			<feGaussianBlur id="q" stdDeviation="0.0785332"/>
		</filter>
		<linearGradient id="b" x1="34.703" x2="34.703" y1="64" y2=".58805" gradientUnits="userSpaceOnUse">
			<stop id="aa" style="stop-color:#ecd087" offset="0"/>
			<stop id="h" style="stop-color:#ecd087" offset=".50464"/>
			<stop id="g" style="stop-color:#e8c17a" offset=".50464"/>
			<stop id="p" style="stop-color:#dfbe81" offset="1"/>
		</linearGradient>
		<linearGradient id="a" x1="37.713" x2="42.612" y1="27.335" y2="36.593" gradientUnits="userSpaceOnUse">
			<stop id="l" style="stop-color:#4d0000;stop-opacity:.13901" offset="0"/>
			<stop id="ab" style="stop-color:#4d0000;stop-opacity:.069955" offset="1"/>
		</linearGradient>
	</defs>
	<metadata id="ba">
		<rdf:RDF>
			<cc:Work rdf:about="">
				<dc:format>image/svg+xml</dc:format>
				<dc:type rdf:resource="http://purl.org/dc/dcmitype/StillImage"/>
				<dc:title/>
			</cc:Work>
		</rdf:RDF>
	</metadata>
	<path id="w" d="m0 2v60l2 2h60l2-2v-60h-32z" style="color:#000000;fill:url(#b)"/>
	<path id="f" d="m0 1v3l2-2h60l2-1h-32z" style="fill-opacity:.21555;fill:#ffffff"/>
	<path id="m" d="m1 62.966 31-31.008 31 31.008-1 1.0336h-60z" style="color:#000000;fill:#e9c77c"/>
	<g id="al" transform="matrix(.81244 0 0 .81244 76.873 -10.044)" style="stroke-width:1.2309">
		<path id="ay" d="m-48 59v1c0.55228 0 1 0.44772 1 1s-0.44772 1-1 1v1c0.55228 0 1 0.44772 1 1s-0.44772 1-1 1v1c0.55228 0 1 0.44772 1 1s-0.44772 1-1 1v1c0.55228 0 1 0.44772 1 1s-0.44772 1-1 1v1c0.55228 0 1 0.44772 1 1s-0.44772 1-1 1v1c0.55228 0 1 0.44772 1 1s-0.44772 1-1 1v1c0.55228 0 1 0.44772 1 1s-0.44772 1-1 1v1c0.55228 0 1 0.44772 1 1s-0.44772 1-1 1v1h1c0-0.55228 0.44772-1 1-1s1 0.44772 1 1h1c0-0.55228 0.44772-1 1-1s1 0.44772 1 1h1c0-0.55228 0.44772-1 1-1s1 0.44772 1 1h1c0-0.55228 0.44772-1 1-1s1 0.44772 1 1h1c0-0.55228 0.44772-1 1-1s1 0.44772 1 1h1c0-0.55228 0.44772-1 1-1s1 0.44772 1 1h1c0-0.55228 0.44772-1 1-1s1 0.44772 1 1h1c0-0.55228 0.44772-1 1-1s1 0.44772 1 1h1v-1c-0.55228 0-1-0.44772-1-1s0.44772-1 1-1v-1c-0.55228 0-1-0.44772-1-1s0.44772-1 1-1v-1c-0.55228 0-1-0.44772-1-1s0.44772-1 1-1v-1c-0.55228 0-1-0.44772-1-1s0.44772-1 1-1v-1c-0.55228 0-1-0.44772-1-1s0.44772-1 1-1v-1c-0.55228 0-1-0.44772-1-1s0.44772-1 1-1v-1c-0.55228 0-1-0.44772-1-1s0.44772-1 1-1v-1c-0.55228 0-1-0.44772-1-1s0.44772-1 1-1v-1h-1c0 0.55228-0.44772 1-1 1s-1-0.44772-1-1h-1c0 0.55228-0.44772 1-1 1s-1-0.44772-1-1h-1c0 0.55228-0.44772 1-1 1s-1-0.44772-1-1h-1c0 0.55228-0.44772 1-1 1s-1-0.44772-1-1h-1c0 0.55228-0.44772 1-1 1s-1-0.44772-1-1h-1c0 0.55228-0.44772 1-1 1s-1-0.44772-1-1h-1c0 0.55228-0.44772 1-1 1s-1-0.44772-1-1h-1c0 0.55228-0.44772 1-1 1s-1-0.44772-1-1z" style="color:#000000;fill:#ebebeb;stroke-width:1.2309"/>
		<path id="be" transform="translate(-81,51)" d="m58 9c0 0.55228-0.44772 1-1 1 0 0.55228 0.44772 1 1 1 0-0.55228 0.44772-1 1-1v-1zm0 2v1c-0.55228 0-1 0.44772-1 1s0.44772 1 1 1c0-0.55228 0.44772-1 1-1v-1c-0.55228 0-1-0.44772-1-1zm0 3v1c-0.55228 0-1 0.44772-1 1s0.44772 1 1 1c0-0.55228 0.44772-1 1-1v-1c-0.55228 0-1-0.44772-1-1zm0 3v1c-0.55228 0-1 0.44772-1 1s0.44772 1 1 1c0-0.55228 0.44772-1 1-1v-1c-0.55228 0-1-0.44772-1-1zm0 3v1c-0.55228 0-1 0.44772-1 1s0.44772 1 1 1c0-0.55228 0.44772-1 1-1v-1c-0.55228 0-1-0.44772-1-1zm0 3v1c-0.55228 0-1 0.44772-1 1s0.44772 1 1 1c0-0.55228 0.44772-1 1-1v-1c-0.55228 0-1-0.44772-1-1zm0 3v1c-0.55228 0-1 0.44772-1 1s0.44772 1 1 1c0-0.55228 0.44772-1 1-1v-1c-0.55228 0-1-0.44772-1-1zm0 3v1c-0.55228 0-1 0.44772-1 1s0.44772 1 1 1c0-0.55228 0.44772-1 1-1v-1c-0.55228 0-1-0.44772-1-1zm0 3v1h-1c0.55228 0 1 0.44772 1 1h1v-1c-0.55228 0-1-0.44772-1-1zm-1 1c0-0.55228-0.44772-1-1-1s-1 0.44772-1 1h-1c0.55228 0 1 0.44772 1 1h1c0-0.55228 0.44772-1 1-1zm-3 0c0-0.55228-0.44772-1-1-1s-1 0.44772-1 1h-1c0.55228 0 1 0.44772 1 1h1c0-0.55228 0.44772-1 1-1zm-3 0c0-0.55228-0.44772-1-1-1s-1 0.44772-1 1h-1c0.55228 0 1 0.44772 1 1h1c0-0.55228 0.44772-1 1-1zm-3 0c0-0.55228-0.44772-1-1-1s-1 0.44772-1 1h-1c0.55228 0 1 0.44772 1 1h1c0-0.55228 0.44772-1 1-1zm-3 0c0-0.55228-0.44772-1-1-1s-1 0.44772-1 1h-1c0.55228 0 1 0.44772 1 1h1c0-0.55228 0.44772-1 1-1zm-3 0c0-0.55228-0.44772-1-1-1s-1 0.44772-1 1h-1c0.55228 0 1 0.44772 1 1h1c0-0.55228 0.44772-1 1-1zm-3 0c0-0.55228-0.44772-1-1-1s-1 0.44772-1 1h-1c0.55228 0 1 0.44772 1 1h1c0-0.55228 0.44772-1 1-1zm-3 0c0-0.55228-0.44772-1-1-1 0 0.55228-0.44772 1-1 1v1h1c0-0.55228 0.44772-1 1-1z" style="color:#000000;fill-opacity:.14669;fill:#4d0000;stroke-width:1.0154"/>
		<rect id="ag" x="-45" y="62" width="19" height="19" style="color:#000000;fill:#5e87d8;stroke-width:1.2309"/>
		<g id="x" transform="matrix(.030641 0 0 .030641 -34.406 69.364)" style="stroke-width:1.2309">
			<path id="bh" d="m-43.508-218.7c-12.899 1.9428-25.532 6.6292-35.981 14.539-8.2018 5.908-14.297 14.211-19.395 22.828-5.9603 10.033-10.139 21.126-12.157 32.623-2.5481 15.226-1.352 30.712-0.6462 46.038 0.81534 14.717 1.8032 29.46 1.2799 44.206-0.70542 11.354-3.4716 22.535-7.869 33.014-7.1892 18.281-17.092 35.311-26.678 52.403-13.893 24.188-28.307 48.076-41.926 72.421-5.8586 10.477-11.55 21.12-15.493 32.492-3.0312 8.598-4.8916 17.588-5.9203 26.636-1.1803 11.863-0.53932 24.215 4.0956 35.332 2.7174 6.7894 6.8606 12.857 10.708 19.034 10.762 16.244 21.908 32.236 33.439 47.943 8.5781 11.453 17.177 22.949 27.049 33.336 4.4474 4.641 9.2848 8.9172 14.662 12.457 10.945 7.4654 23.197 12.808 35.716 17.021 15.063 4.8819 30.971 7.1796 46.799 6.7324 9.9428-0.35242 19.856-1.3781 29.65-3.1338 18.003-2.983 35.687-7.7747 52.876-13.876 11.423-4.1456 23.063-8.5142 32.69-16.131 5.3093-4.1367 9.575-9.4016 14.158-14.288 12.599-14.243 23.592-29.841 33.528-46.035 6.0357-9.8635 11.579-20.022 16.884-30.294 5.5478-11.051 11.173-22.134 15.132-33.876 2.0154-6.2935 3.407-12.81 3.5955-19.433 0.37937-9.385-0.87854-18.797-3.0882-27.908-2.9276-11.512-7.6212-22.49-13.122-32.991-9.4015-17.689-20.405-34.451-30.787-51.566-7.8937-12.23-15.958-24.358-24.653-36.038-6.2268-8.6062-12.497-17.2-17.945-26.332-3.9544-6.6223-7.7524-13.347-11.321-20.184-3.797-7.4524-6.691-15.389-8.1817-23.631-2.8323-15.574-2.3157-31.482-2.0853-47.236 0.16158-12.985 0.63439-26.085-1.7312-38.922-2.2737-12.999-7.1714-25.694-15.264-36.2-8.7163-11.525-21.041-20.009-34.463-25.158-13.886-5.1319-28.877-6.0995-43.555-5.8225z" style="fill:#3a4652;stroke-width:1.2309"/>
			<path id="z" d="m5.6695-52.902c-19.188 6.6261-38.289 13.669-58.042 18.465-4.4048 1.3563-9.1645 1.4474-13.604 0.19609-8.8728-2.571-17.062-6.9522-25.282-11.08-1.6227-0.54126-3.4412 0.83648-3.2983 2.5481-0.57006 3.5075-0.59285 7.0749-1.118 10.591-1.2249 11.637-3.0987 23.309-7.1894 34.319-3.8686 11.201-8.7588 22.027-14.388 32.449-4.683 8.8888-10.222 17.279-15.725 25.672-7.8955 12.323-15.88 24.664-22.163 37.91-7.3077 15.596-11.91 32.633-12.066 49.92-0.20618 13.309 2.4976 26.517 6.8257 39.059 4.8979 14.595 10.835 28.836 17.512 42.704 4.1061 8.2934 8.2337 16.631 13.592 24.206 7.3874 10.634 17.382 19.333 28.529 25.848 12.027 7.0557 25.624 11.216 39.452 12.762 11.909 1.3445 24.033 1.0826 35.84-1.0114 11.125-1.9985 21.886-6.1185 31.367-12.298 12.881-8.2384 24.733-18.139 34.907-29.565 6.2676-6.9799 11.412-14.885 15.795-23.161 4.1727-7.9778 8.1735-16.058 11.742-24.325 5.25-12.303 9.0482-25.321 10.127-38.693 0.76931-7.6845 0.70681-15.452 0.0479-23.142-1.362-14.803-4.7295-29.448-10.251-43.26-5.2936-13.363-12.321-25.932-18.936-38.665-6.2502-11.932-12.538-23.846-18.648-35.85-6.7806-13.48-13.158-27.24-17.644-41.673-2.9527-9.7127-4.8072-19.783-5.1175-29.939-0.13689-1.4075 0.10397-3.5122-1.6245-3.9874-0.21229-0.0956-0.42624-0.0279-0.63995 0z" style="fill:#ebebeb;stroke-width:1.2309"/>
			<path id="s" d="m-149.2 74.792c-9.1821 8.8397-18.58 17.553-26.438 27.633-6.6672 8.7514-12.441 18.181-17.157 28.122-3.8884 8.1176-6.3554 16.903-7.2901 25.854-0.95647 8.1249-0.25305 16.436 2.1328 24.266 2.0694 7.2859 4.8557 14.344 7.6805 21.364 3.264 7.7285 6.9269 15.301 11.261 22.49 5.817 10.702 12.674 20.92 16.97 32.383 2.1703 5.3945 3.8246 10.984 5.4095 16.572 1.2324 4.7119 1.9196 9.5388 2.5708 14.356 0.45346 1.656 0.58509 3.8013 2.3004 4.6908 2.0564 0.56745 3.8625-1.0321 5.5134-2.0183 3.0851-2.4816 6.3285-4.7469 9.5353-7.066 5.5114-3.7743 11.137-7.3809 16.885-10.783 3.3811-2.2426 6.8148-4.424 10.057-6.8632 3.6928-2.8325 6.5356-6.577 9.4348-10.171 2.244-3.0017 4.2845-6.731 3.4626-10.603-0.75681-3.0328-2.8422-5.5097-4.8619-7.8055-2.2235-2.2735-4.4362-4.5586-6.6541-6.8358-13.813-13.54-27.8-26.903-41.555-40.502-4.7992-4.8002-9.3801-9.8692-13.194-15.496-2.9323-4.5884-4.5921-9.9379-5.0444-15.351-0.94016-8.3973-0.29249-16.9 1.0602-25.216 1.2174-7.4458 3.0727-14.784 5.3925-21.96 3.463-10.456 7.6904-20.631 11.718-30.876 0.69735-1.7757 1.3596-3.5649 2.0404-5.3469 0.0142-0.60254-0.65939-1.1975-1.2307-0.83686z" style="fill-rule:evenodd;fill:#414f5c;stroke-width:1.2309"/>
			<path id="t" d="m-11.904-136.39c-3.985 0.76019-7.8533 2.125-11.492 3.9047-4.6556 2.6159-8.0216 6.9679-10.757 11.457-1.7138 2.9342-3.2148 6.046-4.091 9.338-1.5226 7.4679-2.3718 15.211-1.0772 22.78 1.0879 6.509 3.7718 12.681 7.2982 18.23 2.1265 3.277 5.0369 6.4676 9.0435 7.2444 5.0825 1.095 10.162-1.0273 14.426-3.6442 5.9121-3.8351 10.532-9.2986 14.632-14.956 2.5394-3.6183 4.8206-7.493 5.9399-11.805 1.8738-6.5485 2.8016-13.523 1.6161-20.284-1.0069-5.7228-3.4072-11.284-7.3796-15.576-3.4064-3.6948-8.1507-6.2188-13.196-6.5894-1.6458-0.20541-3.3081-0.16165-4.9617-0.0988z" style="fill:#ebebeb;stroke-width:1.2309"/>
			<path id="aq" d="m-89.929-131.27c-5.7993 0.74946-10.905 5.2558-12.393 10.908-1.1294 4.1357-1.7818 8.4433-1.4659 12.739 0.38242 7.9736 2.9852 15.679 6.5113 22.783 2.228 4.3483 5.1328 8.7591 9.6938 10.912 2.3814 1.3289 5.4734 1.1484 7.6835-0.45935 4.0662-2.8976 6.973-7.1077 9.4154-11.397 2.4169-4.7704 3.4136-10.239 2.8305-15.556-0.3857-4.409-0.83983-8.8638-2.3875-13.045-1.0972-3.4561-2.5803-6.8855-5.0228-9.6151-3.03-3.5751-7.1486-6.5347-11.899-7.1229-0.9734-0.16351-1.9804-0.22746-2.9654-0.14681z" style="fill:#ebebeb;stroke-width:1.2309"/>
			<path id="ad" d="m-87.271-115.47c-1.6622 0.3109-3.2039 1.1131-4.4796 2.2152-1.6704 2.0117-2.9638 4.3952-3.3543 7.0033-0.56847 3.058-0.23259 6.2093 0.41864 9.2262 0.73662 3.374 2.3583 6.4759 4.1313 9.4097 1.4657 2.1782 3.0794 4.3398 5.3043 5.7971 1.2919 0.81553 2.748 1.5658 4.33 1.2503 1.506-0.13358 2.8446-0.97009 3.9382-1.9691 1.1302-1.0206 1.9715-2.3239 2.5204-3.7373 0.60017-1.4913 0.61411-3.1086 0.82701-4.6805 0.21008-2.5103 0.32285-5.0413-9e-3 -7.5464-0.19574-1.7245-0.32164-3.4958-1.0247-5.105-0.41878-1.9022-1.4874-3.5566-2.3622-5.2688-1.1332-1.9551-2.3891-4.003-4.4272-5.1262-1.6805-1.1602-3.7778-1.7267-5.8127-1.4688z" style="fill:#3a4652;stroke-width:1.2309"/>
			<path id="bl" d="m-15.582-116.9c-2.3918 0.38451-4.602 1.4957-6.6456 2.7567-1.956 1.4226-3.5881 3.2258-5.199 5.0154-0.9039 1.2148-1.839 2.445-2.4681 3.8303-1.7307 3.8417-2.783 8.0006-3.0356 12.208-0.14776 3.9134 0.65797 7.8105 2.0167 11.468 0.80173 2.0838 1.5803 4.3855 3.4815 5.7342 1.3641 1.0646 3.2133 1.152 4.8046 0.59296 2.0195-0.45983 3.7624-1.6163 5.6673-2.3717 2.0187-1.0936 4.297-2.0755 5.5363-4.1209 1.5813-2.1182 3.1611-4.2657 4.2106-6.709 1.0279-2.1511 1.9232-4.3981 2.2834-6.7664 0.79605-3.729 1.4055-7.589 0.86707-11.398-0.39138-2.1724-1.1314-4.3231-2.5308-6.0612-1.6137-1.9501-3.9199-3.3127-6.3793-3.8826-0.8656-0.11279-1.7294-0.4738-2.609-0.29537z" style="fill:#3a4652;stroke-width:1.2309"/>
			<ellipse id="bm" transform="matrix(1.5753,0,0,1.5753,-1204.4,512.86)" cx="754.84" cy="-383.44" rx="1.0102" ry="1.1364" style="fill:#ffffff;filter:url(#k);stroke-width:1.2309"/>
			<ellipse id="bn" transform="matrix(1.5753,0,0,1.5753,-1268.5,511.47)" cx="754.84" cy="-383.44" rx="1.0102" ry="1.1364" style="fill:#ffffff;filter:url(#c);stroke-width:1.2309"/>
			<path id="bi" d="m-58.375-92.284c-8.8965 1.3212-17.306 5.1641-24.515 10.485-5.9362 4.1946-11.75 8.5702-17.279 13.291-1.9826 1.9104-3.5916 4.2404-4.3098 6.9237-1.8726 6.1341-0.0855 12.927 3.7066 17.963 2.7432 4.034 6.1606 7.5542 9.7129 10.872 4.9214 4.1166 9.8437 8.2784 15.356 11.597 4.0573 2.6923 8.154 5.643 13.029 6.6037 4.9293 1.0239 10.016 1.2547 15.028 0.87348 5.1943-0.44845 10.293-1.9336 14.88-4.4209 7.8679-3.8962 15.192-8.7702 22.727-13.255 6.273-4.0145 12.483-8.1992 18.021-13.198 4.0668-4.2907 5.7376-10.314 5.84-16.11 0.0744-3.2357-0.35882-6.8928-2.8368-9.2282-2.9197-2.655-6.7784-3.8758-10.338-5.415-7.5452-2.9622-15.302-5.34-22.924-8.0937-9.3214-3.2669-18.602-6.9555-28.41-8.4835-2.5437-0.33508-5.1228-0.67406-7.6892-0.40603z" style="fill:#e9b230;stroke-width:1.2309"/>
			<path id="aj" d="m-47.891-86.182c-1.9571 0-3.6294 0.31486-3.3115 1.0693 1.1126 2.3048 3.9566 2.6232 5.8641 3.6564 1.8268 1.0332 2.8732 1.2597 3.5874 0.86236 1.5895-0.87422 0.41558-3.727-1.1728-4.7602-0.755-0.51604-3.0101-0.82788-4.9672-0.82788z" style="fill:#895237;stroke-width:1.2309"/>
			<path id="ai" d="m-64.993-85.969c-0.42376 0.0351-0.91169 0.12209-1.4382 0.21574-4.2146 0.74905-4.1925 2.4433-4.5664 3.3799-0.37395 0.93543 2.2132 2.6915 3.5237 1.4742 1.406-1.2162 3.1049-2.3216 3.6675-2.6967 2.2099-1.4749 1.7797-2.6191-1.1866-2.3731z" style="fill:#895237;stroke-width:1.2309"/>
			<path id="bg" d="m-99.897-48.794c0.10173-0.10534 5.2957 5.5346 15.92 10.528 6.2003 2.9137 14.147 5.3761 23.37 5.8573 4.8078 0.25214 9.8112-0.04691 14.957-0.93015 5.3798-0.92342 10.482-2.4111 15.17-4.1994l4e-6 -3e-6c11.362-4.3336 20.659-10.449 26.7-14.815 6.1897-4.4736 9.6258-7.4677 9.7006-7.3808 0.032277 0.03746-3.2131 3.2364-9.3375 7.8716-5.9761 4.523-15.245 10.778-26.717 15.223-1e-6 -1e-6 -4e-6 2e-6 -4e-6 2e-6 -4.7316 1.833-9.8926 3.351-15.347 4.2858-5.216 0.89398-10.296 1.1853-15.178 0.90971-9.3672-0.53134-17.408-3.1097-23.638-6.1555-10.844-5.3014-15.532-11.266-15.601-11.195z" style="fill-rule:evenodd;fill:#895237;opacity:.623;stroke-width:1.2309"/>
			<path id="ak" d="m61.493 186.24c-3.4763 0.24356-6.653 2.2493-8.8608 4.8735-2.2136 2.5754-2.7882 6.0137-3.3875 9.2445-0.63565 4.2739-1.2951 8.5462-1.5416 12.865-1.0587 14.289-1.3954 28.616-2.0572 42.926-0.35834 7.9363-0.4882 15.914-1.8743 23.758-0.99202 6.4357-2.6417 12.741-4.1 19.081-2.0099 8.3604-3.7331 16.851-3.9031 25.477-0.14162 3.4156-0.13768 6.8656 0.68111 10.206 0.72183 3.5079 1.9739 6.911 3.5244 10.134 2.8429 4.8786 6.3526 9.5371 11.082 12.728 2.7309 1.9363 5.813 3.3544 9.0618 4.1618 3.7735 1.0736 7.6716 1.62 11.549 2.1462 6.0717 0.52285 12.235 0.18796 18.181-1.1723 6.9144-1.6686 13.539-4.8378 18.83-9.6344 10.675-8.7742 21.342-17.569 32.34-25.937 9.3337-7.0867 19.066-13.625 28.793-20.154 8.68-5.7648 17.326-11.584 25.873-17.544 3.7396-2.7446 7.7548-5.287 10.712-8.9208 2.3408-2.8592 3.4078-6.8768 2.1455-10.432-0.92315-3.1776-3.2433-5.6768-5.6832-7.8023-5.9976-5.6765-12.187-11.156-18.014-17.01-4.8695-5.0841-9.6479-10.541-12.24-17.183-2.0829-4.8301-2.9453-10.058-3.4786-15.258-0.44308-3.5995-0.93241-7.222-2.2149-10.635-1.0602-2.9433-4.0896-4.5037-6.8865-5.4405-4.2163-1.5999-8.7492-2.0499-13.196-2.5688-13.371-0.96923-26.808 0.38829-40.168-0.88048-12.161-1.0514-23.964-4.3842-36.011-6.1912-3.0342-0.39887-6.1002-0.83081-9.1562-0.83686z" style="fill:#e9b230;stroke-width:1.2309"/>
			<path id="ae" d="m100.58 167.39c-4.3746 0.38053-8.523 2.13-12.387 4.1375-6.2646 3.2886-11.743 8.5091-14.491 15.11-1.6362 3.7287-1.5197 7.9354-0.50347 11.81 1.6535 5.3487 3.8153 10.578 6.5706 15.456 3.2838 4.9656 9.0399 7.4202 14.569 8.9815 6.933 2.032 14.132 4.6662 21.458 3.3004 9.1639-1.7332 17.065-7.3213 23.728-13.612 4.9546-4.8173 9.2204-10.457 11.961-16.827 1.1952-2.8564 1.8644-6.3759 1e-3 -9.114-2.2765-3.9989-6.4658-6.3029-10.264-8.6304-7.1108-3.8498-14.685-6.8587-22.579-8.6507-5.6648-1.2048-11.442-2.1798-17.252-2.0095-0.27044 0.0159-0.54087 0.0318-0.81131 0.0477z" style="fill-rule:evenodd;fill:#414f5c;stroke-width:1.2309"/>
			<path id="av" d="m-191.58 174.92c-2.7525 0.12759-5.1318 0.76036-7.2856 1.7229-0.43076 0.19251-0.81707 0.37111-1.2307 0.59072-0.0126 6e-3 -0.0361-6e-3 -0.0491 0-3.7055 1.9768-6.7996 5.0122-10.042 8.3193-0.36152 0.3687-0.71107 0.79248-1.083 1.2307-8e-3 9e-3 8e-3 0.0391 0 0.0491-0.36486 0.42752-0.75597 0.8455-1.1322 1.3291-8e-3 0.011 8e-3 0.0387 0 0.0491-5.3781 6.9235-12.002 19.155-20.921 25.598-10.206 7.3722-36.052 6.6913-42.63 15.31-6.4649 8.6214 0.21345 21.119 0.0985 44.255 0 9.869-1.6717 17.324-2.8059 23.334-0.0852 0.37466-0.11578 0.72155-0.19691 1.083-8e-3 0.0361-0.0419 0.0624-0.0491 0.0985-0.0288 0.12854-0.021 0.26689-0.0491 0.39381-3e-3 0.0162 3e-3 0.0331 0 0.0491-5e-3 0.0208-0.0446 0.0285-0.0491 0.0492-3e-3 0.0157 3e-3 0.0339 0 0.0491-5e-3 0.0192-0.0443 0.0301-0.0491 0.0491-3e-3 0.0142 3e-3 0.0343 0 0.0491-3e-3 0.0158 3e-3 0.034 0 0.0492-3e-3 0.0157 3e-3 0.0343 0 0.0491-9e-3 0.034-0.0403 0.0646-0.0491 0.0984-0.0175 0.0799-0.032 0.16687-0.0491 0.24614-0.0162 0.0632-0.0332 0.13437-0.0491 0.1969-5e-3 0.0184-0.0444 0.0309-0.0491 0.0491-3e-3 0.0126 3e-3 0.0359 0 0.0492-3e-3 0.0126 3e-3 0.0359 0 0.0491-0.0142 0.063-0.0358 0.13421-0.0491 0.19691-3e-3 0.0142 3e-3 0.0348 0 0.0491-8e-3 0.0339-0.0406 0.0648-0.0492 0.0985-3e-3 0.0126 3e-3 0.0362 0 0.0491-3e-3 0.0142 3e-3 0.0351 0 0.0491-5e-3 0.018-0.0446 0.0312-0.0491 0.0491-2e-3 9e-3 2e-3 0.0394 0 0.0492-0.0744 0.29661-0.12839 0.5527-0.19691 0.83686-0.0126 0.0515-0.0369 0.0966-0.0491 0.1476-0.135 0.56394-0.28405 1.1553-0.39381 1.6737-3e-3 0.0142 3e-3 0.0348 0 0.0492-0.65824 2.9721-0.86808 5.138-0.39382 7.0887 3e-3 0.0158-3e-3 0.034 0 0.0492 0.0703 0.28217 0.19588 0.56362 0.29536 0.83685 0.0428 0.12035 0.0499 0.27462 0.0985 0.39382 0.0495 0.11735 0.0925 0.22819 0.1476 0.34458 8e-3 0.0189 0.0405 0.0303 0.0491 0.0491 6e-3 0.0126-6e-3 0.0359 0 0.0492 6e-3 0.0126-6e-3 0.0361 0 0.0491 3e-3 6e-3 0.046-6e-3 0.0491 0 6e-3 0.0126-6e-3 0.0364 0 0.0492 9e-3 0.0194 0.0392 0.0298 0.0491 0.0491 0.0199 0.0457 0.0287 0.10208 0.0491 0.14761 8e-3 0.0203 0.0413 0.029 0.0491 0.0491 6e-3 0.0126-6e-3 0.0365 0 0.0491 8e-3 0.0206 0.041 0.0287 0.0491 0.0492 0.0142 0.0337 0.0348 0.0647 0.0491 0.0984 6e-3 0.0126-6e-3 0.0359 0 0.0492 0.0142 0.0342 0.0345 0.0643 0.0491 0.0985 0.011 0.0197 0.0376 0.0294 0.0491 0.0491 5e-3 0.0142-5e-3 0.035 0 0.0491 6e-3 0.0126-6e-3 0.0359 0 0.0492 2e-3 5e-3 0.0474-5e-3 0.0491 0 5e-3 9e-3 -5e-3 0.0395 0 0.0491 6e-3 0.0142-6e-3 0.0356 0 0.0492 0.011 0.0339 0.0375 0.0646 0.0491 0.0984 6e-3 0.0142-6e-3 0.0347 0 0.0492 2e-3 5e-3 0.0473-5e-3 0.0491 0 6e-3 0.0126-6e-3 0.0367 0 0.0491 6e-3 0.0142-6e-3 0.0353 0 0.0491 9e-3 0.0197 0.0399 0.0295 0.0491 0.0492 6e-3 0.0126-6e-3 0.0366 0 0.0491 6e-3 0.0142-6e-3 0.0348 0 0.0492 9e-3 0.0206 0.04 0.0287 0.0492 0.0491 5e-3 0.0142-5e-3 0.035 0 0.0492 8e-3 0.0202 0.0405 0.0291 0.0491 0.0491 6e-3 0.0126-6e-3 0.0364 0 0.0492 6e-3 0.0142-6e-3 0.0343 0 0.0491 8e-3 0.0192 0.0414 0.0299 0.0491 0.0492 6e-3 0.0142-6e-3 0.035 0 0.0491 0.0291 0.0666 0.068 0.13027 0.0984 0.1969 0.0142 0.0331 0.0342 0.0654 0.0491 0.0985 0.0767 0.17997 0.16096 0.36176 0.24613 0.54149 0.0225 0.0463 0.0261 0.10129 0.0491 0.1476 0.17199 0.35357 0.33503 0.67993 0.5415 1.0338 5.7844 9.6422 15.083 12.072 68.278 23.186 28.468 5.8978 55.364 21.171 73.397 22.644 18.034 1.3626 21.882-4.6187 32.884-14.374 10.888-9.754 14.419-6.7216 14.079-28.158-0.29802-18.674-10.865-25.827-23.924-43.861-0.93275-1.2974-1.8941-2.6156-2.8552-4.0366-0.62762-0.93917-1.2741-1.9504-1.9198-2.9536-0.0523-0.0808-0.0953-0.1649-0.1476-0.24614-0.27101-0.43085-0.45627-0.73456-0.7384-1.1814-3.8846-6.153-6.9697-11.02-9.55-15.162-2.5803-4.1415-4.6683-7.5561-6.5964-10.682-1.9281-3.1261-3.6838-6.0004-5.6119-9.107s-4.0161-6.4515-6.5964-10.535c-1.2901-2.0132-2.7632-4.205-4.332-6.5472-1.5688-2.3421-3.2472-4.8281-5.0211-7.3348-1.7813-2.5172-3.6488-5.0639-5.5626-7.5809-0.95276-1.2535-1.8833-2.4693-2.8552-3.692-1.9437-2.4455-3.9422-4.7911-5.9072-6.9902-0.99096-1.1091-1.9713-2.1848-2.9536-3.1997-2.911-3.01-5.7463-5.5652-8.4178-7.384-0.0126-8e-3 -0.0373 8e-3 -0.0491 0-0.44673-0.30336-0.84392-0.57585-1.2799-0.83686-0.0126-8e-3 -0.0369 8e-3 -0.0491 0-0.43599-0.261-0.85579-0.52232-1.2799-0.7384-0.8482-0.43216-1.6676-0.74751-2.4613-0.98454-0.38133-0.11389-0.76504-0.23003-1.1322-0.29536-0.0164-3e-3 -0.0328 3e-3 -0.0491 0-0.38154-0.0658-0.71793-0.0877-1.083-0.0985-0.58127-0.0142-1.1724-0.0255-1.7229 0z" style="fill:#e9b230;stroke-width:1.2309"/>
		</g>
	</g>
	<path id="j" d="m1.75 2 27.25 36l3 1h2l7-1 23-36h-32z" style="fill:url(#a)"/>
	<path id="v" d="m0 1v0.81787l25.219 26.995 2.7812 0.81323h8l2.7812-0.81323 25.219-26.995v-0.81787z" style="fill:#f9dd96"/>
	<path id="u" d="m15 1-4.0312 4.1311h5l4.0312-4.1311zm20 0-4.0312 4.1311h5l4.0312-4.1311zm20 0-4.0312 4.1311h5l4.0312-4.1311zm-51 11.328-4 4.1634v5.1639l4-4.1634zm60 0-4 4.1634v5.1639l4-4.1634zm-60 20.656-4 4.1634v5.1639l4-4.1634zm60 0.03227-4 4.1634v5.1639l4-4.1634zm-60 20.623-4 4.1634v5.1639l4-4.1634zm60 0.03227-4 4.1634v2.0333h-2l-4.0312 4.1311h5l1.0312-1.0651v0.06455l4-4.1634zm-46 6.1967-4.0312 4.1311h5l4.0312-4.1311zm20 0-4.0312 4.1311h5l4.0312-4.1311z" style="color:#000000;fill:#5276bc"/>
	<path id="r" d="m2 0h-2v1h64v-1h-32z" style="color:#000000;fill:#fff3c4"/>
	<path id="ac" d="m0 0v3l2-2z" style="fill:#fffad7"/>
	<path id="n" d="m5 1-1 1.0005v0.032275l-1.5 1.5492-1.5312 1.5492-0.96875 1.0328v5.1639l4-4.1634v-2.0333h1.9688l4.0312-4.1311zm20 0-4.0312 4.1311h5l4.0312-4.1311zm20 0-4.0312 4.1311h5l4.0312-4.1311zm19 1.0328-4 4.1311v5.1639l4-4.1634zm-60 20.623-4 4.1634v5.1639l4-4.1634zm60 0.03227-4 4.1634v5.1639l4-4.1634zm-60 20.623-4 4.1634v5.1639l4-4.1634zm60 0.03227-4 4.1634v5.1639l4-4.1634zm-56 16.525-4.0312 4.1311h5l4.0312-4.1311zm20 0-4.0312 4.1311h5l4.0312-4.1311zm20 0-4.0312 4.1311h5l4.0312-4.1311z" style="color:#000000;fill:#d35252"/>
	<g id="d" transform="matrix(1 0 0 .81787 0 .18213)" style="fill-opacity:.024215;fill:#fff6d5;stroke-width:1.1058">
		<path id="i" d="m5.4727 1c-1.7735 0.42777-3.5495 0.82767-5.3301 1.1855l13.637 17.85c1.9601 0.19582 3.913 0.49615 5.875 0.62695 0.55446 0.03696 1.1082 0.05848 1.6621 0.08789 0.94414-2.2378 1.9727-4.4787 3.1328-6.7988 1.1876-2.3751 2.7255-4.3333 4.2188-6.4238 0.47702-0.66782 1.4836-1.0724 1.918-1.6309 0.56312-0.72401 0.79586-1.6419 1.3965-2.3848 0.26581-0.85554 0.55786-1.6955 0.9043-2.5039 1e-3 -0.00238 9.72e-4 -0.00542 2e-3 -0.00781h-4.2344c-1.407 0.2373-2.9331 0.24879-4.2617 0h-18.92zm26.51 2.5117c-0.85209 2.7426-1.4126 5.6595-2.4512 8.3301-1.0908 2.8048-3.0342 6.1292-4.1934 9.0918-1.3392-0.04955-2.68-0.11236-4.0215-0.18359-0.84682 2.0072-1.6227 4.0174-2.3516 6.0723l4.873 6.377c4.0215-1.4448 12.34-4.0635 13.842-6.209 0.38036-0.54338 3.8887-3.8769 3.0684-4.6973-0.98797-0.98797-4.8486-0.74618-6.1367-0.86328-2.4104-0.21913-4.8174-0.32458-7.2266-0.41602 0.46728-1.3132 0.94219-2.6206 1.4746-3.8984 1.6049-3.8517 4.5059-10.783 4.5059-14.957 0-0.36158-0.4694 0.56022-0.76562 0.76758-0.2488 0.17416-0.4457 0.37386-0.61719 0.58594z" style="fill-opacity:.16413;fill:#fff6d5;paint-order:normal;stroke-width:1.2227"/>
		<path id="o" d="m23.865 3.7227c-0.31008 7e-3 -0.51015 0.026952-0.56641 0.064453-0.03484 0.023226 1.0915 2.185 1.2461 2.4941 1.9602 3.9203 4.4875 7.4826 6.6152 11.312 0.52538 0.94568 1.1601 1.8683 1.8672 2.7598 1.2593-0.14934 2.5218-0.27672 3.791-0.36133 1.612-0.10747 3.1838-0.6438 4.793-0.76758 2.7807-0.2139 5.5886-0.0991 8.3789-0.18164 0.13493 0.2531 0.27439 0.50424 0.4082 0.75781l9.8926-12.947c-4.2554-0.35508-8.6307-1.0761-11.969-1.5312-1.1611-0.15833-2.3786 0.10621-3.5469 0-1.9553-0.17775-3.8891-0.61692-5.8477-0.76758-1.5324-0.11788-3.073-0.038353-4.6035-0.19141-0.7643-0.07643-8.2884-0.6896-10.459-0.64062zm9.1621 16.631c-3.6264 0.43005-7.226 1.0531-10.879 1.459-2.05 0.22778-4.0051 0.86655-5.9668 1.3652l0.33008 0.43359c2.3028-0.03653 4.6026-0.16797 6.8828-0.16797 4.0402 0 8.11-0.08142 12.154-0.32031-0.90037-0.87996-1.756-1.8044-2.5215-2.7695zm2.5215 2.7695c1.5061 1.472 3.1401 2.8134 4.7207 3.9629 0.97901 0.712 1.9206 1.4688 2.8555 2.2344l5.291-6.9258c-2.133-0.09013-4.395-0.03705-6.3242 0.18555-2.1651 0.24982-4.3517 0.41353-6.543 0.54297z" style="fill-opacity:.16413;fill:#fff6d5;paint-order:normal;stroke-width:1.2227"/>
		<path id="y" d="m49.424 13.176c-4.2664 0.06722-10.477 2.2704-12.895 3.0762-4.465 1.4883-8.7618 3.3054-13.23 4.7949-0.9569 0.31897-3.0022 0.82616-3.8359 1.1504-0.25454 0.09899-0.51645 0.20923-0.77148 0.31055-0.10803 0.01968-0.22114 0.03871-0.32812 0.05859-0.0042 0.02683-0.01135 0.05326-0.01563 0.08008-0.65092 0.26058-1.3122 0.52468-1.9668 0.79297l8.8379 11.566 2.7812 0.99414h8l2.7812-0.99414 6.4609-8.457c-0.02966-0.04365-0.05362-0.08943-0.08398-0.13281-0.13203-0.18861-0.2781-0.36475-0.42383-0.54102 0.93383-0.90465 1.8876-1.6495 2.6289-2.8145 0.98596-1.5494 2.3824-2.7978 3.3574-4.3145 0.55822-0.86835 1.023-1.9842 1.5332-2.877 0.1151-0.20142 1.0116-1.5914 0.57617-1.918-0.77789-0.58342-1.9841-0.7978-3.4062-0.77539zm-31.061 9.3906c0.31922-2.0228 0.50982-4.0618 0.52148-6.1172-0.2101 0.4112-0.72032 0.55762-0.95508 1.1445-0.51101 1.2775-0.89433 2.4683-1.4395 3.7402-0.20549 0.47949-0.39321 0.9832-0.58398 1.4844l0.1543 0.20117c0.73033-0.15426 1.5051-0.30488 2.3027-0.45312zm0.52148-6.1172c0.0011-0.0021 0.0028-0.0037 0.0039-0.0059 0.02858-0.05717 0-0.25532 0-0.19141 0 0.06589-0.0035 0.13142-0.0039 0.19727z" style="fill-opacity:.16413;fill:#fff6d5;paint-order:normal;stroke-width:1.2227"/>
	</g>
	<g id="bb" transform="matrix(.68839 0 0 .68312 30.828 31.263)" style="fill:none;stroke-opacity:.36673;stroke-width:1.4583;stroke:#781e1e">
		<circle id="ah" transform="matrix(1.4336 0 0 1.4336 -27.323 -14.406)" cx="31" cy="24" r="8" style="color:#000000;fill:none;stroke-opacity:.36673;stroke-width:1.0172;stroke:#781e1e"/>
		<path id="af" d="m18.872 18.653s1.7133-1.6535 3.4266-1.6535 3.4266 1.6535 3.4266 1.6535 1.7133 1.6535 3.4266 1.6535 3.4266-1.6535 3.4266-1.6535 1.7133-1.6535 3.4266-1.6535 3.4266 1.6535 3.4266 1.6535 1.7133 1.6535 3.4266 1.6535 3.4266-1.6535 3.4266-1.6535" style="fill:none;stroke-opacity:.36673;stroke-width:1.4583;stroke:#781e1e"/>
		<path id="bc" d="m18.872 21.134s1.7133-1.6535 3.4266-1.6535 3.4266 1.6535 3.4266 1.6535 1.7133 1.6535 3.4266 1.6535 3.4266-1.6535 3.4266-1.6535 1.7133-1.6535 3.4266-1.6535 3.4266 1.6535 3.4266 1.6535 1.7133 1.6535 3.4266 1.6535 3.4266-1.6535 3.4266-1.6535" style="fill:none;stroke-opacity:.36673;stroke-width:1.4583;stroke:#781e1e"/>
		<path id="an" d="m18.872 23.614s1.7133-1.6535 3.4266-1.6535 3.4266 1.6535 3.4266 1.6535 1.7133 1.6535 3.4266 1.6535 3.4266-1.6535 3.4266-1.6535 1.7133-1.6535 3.4266-1.6535 3.4266 1.6535 3.4266 1.6535 1.7133 1.6535 3.4266 1.6535 3.4266-1.6535 3.4266-1.6535" style="fill:none;stroke-opacity:.36673;stroke-width:1.4583;stroke:#781e1e"/>
		<circle id="am" cx="17.119" cy="20" r="7.8812" style="color:#000000;fill:none;stroke-opacity:.36673;stroke-width:1.4583;stroke:#781e1e"/>
	</g>
	<g id="ap" style="color:#000000;fill-opacity:.6297;fill:#000000" aria-label="Mises">
		<path id="bp" d="m10.128 49.848 0.96792-1.92h0.74306l-0.5428 2.5682h-0.49186l0.25471-1.2156q0.0931-0.43389 0.18445-0.77468h-0.0088l-0.99953 1.9903h-0.4936l-0.10716-1.9903h-0.00703q-0.019323 0.15458-0.066753 0.40579t-0.32849 1.5845h-0.48308l0.5428-2.5682h0.70969l0.11945 1.92z"/>
		<path id="ar" d="m12.39 48.072q0-0.15283 0.08256-0.23012 0.08432-0.07905 0.23715-0.07905 0.12824 0 0.19499 0.05446t0.06675 0.15634q0 0.14053-0.07729 0.22836-0.07729 0.08608-0.2389 0.08608-0.26525 0-0.26525-0.21607zm0.02811 2.4242h-0.52875l0.41633-1.9639h0.52875z"/>
		<path id="bq" d="m14.349 49.848q0 0.33025-0.21958 0.50767-0.21782 0.17566-0.6078 0.17566-0.18796 0-0.32849-0.02635-0.13878-0.02635-0.25998-0.08783v-0.43565q0.27579 0.1581 0.56037 0.1581 0.14053 0 0.23012-0.05621 0.08959-0.05797 0.08959-0.15634 0-0.07554-0.065-0.13526-0.065-0.05973-0.23012-0.15107-0.21255-0.11945-0.29687-0.23715-0.08432-0.11945-0.08432-0.28106 0-0.29863 0.19323-0.462 0.19499-0.16512 0.5551-0.16512 0.35309 0 0.63766 0.16688l-0.17391 0.37768q-0.24593-0.14756-0.45322-0.14756-0.10013 0-0.16161 0.04567-0.06148 0.04392-0.06148 0.11945 0 0.06851 0.05621 0.12121 0.05621 0.05094 0.2108 0.12999 0.21607 0.11067 0.31268 0.24066 0.09662 0.12999 0.09662 0.29863z"/>
		<path id="bk" d="m15.816 48.877q-0.15458 0-0.2916 0.14053t-0.17918 0.34255h0.07905q0.27228 0 0.42335-0.08432 0.15283-0.08608 0.15283-0.23188 0-0.16688-0.18445-0.16688zm-0.28809 1.6548q-0.3689 0-0.57267-0.1985t-0.20377-0.56037q0-0.36363 0.14404-0.66226 0.1458-0.30039 0.39349-0.45673 0.24769-0.1581 0.56037-0.1581 0.31093 0 0.48484 0.14404 0.17391 0.14229 0.17391 0.39173 0 0.32849-0.29336 0.50767-0.29336 0.17742-0.83792 0.17742h-0.08959l-0.0035 0.03689v0.03513q0 0.15986 0.08959 0.25296 0.09135 0.09135 0.25998 0.09135 0.15283 0 0.27755-0.03338t0.30214-0.1177v0.39876q-0.30214 0.15107-0.68509 0.15107z"/>
		<path id="br" d="m18.052 49.848q0 0.33025-0.21958 0.50767-0.21782 0.17566-0.6078 0.17566-0.18796 0-0.32849-0.02635-0.13878-0.02635-0.25998-0.08783v-0.43565q0.27579 0.1581 0.56037 0.1581 0.14053 0 0.23012-0.05621 0.08959-0.05797 0.08959-0.15634 0-0.07554-0.065-0.13526-0.065-0.05973-0.23012-0.15107-0.21256-0.11945-0.29687-0.23715-0.08432-0.11945-0.08432-0.28106 0-0.29863 0.19323-0.462 0.19499-0.16512 0.5551-0.16512 0.35309 0 0.63766 0.16688l-0.17391 0.37768q-0.24593-0.14756-0.45322-0.14756-0.10013 0-0.16161 0.04567-0.06148 0.04392-0.06148 0.11945 0 0.06851 0.05621 0.12121 0.05621 0.05094 0.2108 0.12999 0.21607 0.11067 0.31268 0.24066 0.09662 0.12999 0.09662 0.29863z"/>
	</g>
	<g id="bd" style="color:#000000;fill-opacity:.6297;fill:#000000" aria-label="Ancapistão">
		<path id="bs" d="m10.084 54.114h-0.8713l-0.43038 0.81684h-0.33201l1.4036-2.5682h0.30566l0.32322 2.5682h-0.29863zm-0.03162-0.27404-0.061482-0.52524q-0.04216-0.31444-0.050943-0.61483-0.064996 0.15458-0.14229 0.30741-0.075536 0.15283-0.43741 0.83265z"/>
		<path id="bu" d="m11.932 54.93 0.25998-1.2156q0.03513-0.18269 0.03513-0.25296 0-0.11067-0.06324-0.17742-0.06148-0.06675-0.1985-0.06675-0.15634 0-0.30566 0.1054-0.14756 0.1054-0.26174 0.30039-0.11243 0.19499-0.1704 0.47254l-0.17742 0.83441h-0.29512l0.41106-1.9253h0.24417l-0.03865 0.3566h0.01757q0.16864-0.21431 0.32498-0.30214 0.1581-0.08959 0.32674-0.08959 0.22309 0 0.35133 0.12297 0.12999 0.12121 0.12999 0.34079 0 0.13878-0.0404 0.3162l-0.2512 1.1805z"/>
		<path id="bt" d="m13.62 54.965q-0.34079 0-0.52875-0.18796t-0.18796-0.53051q0-0.35133 0.12999-0.6482t0.35836-0.462q0.23012-0.16688 0.51646-0.16688 0.24066 0 0.47078 0.08959l-0.08256 0.24769q-0.2108-0.08959-0.38471-0.08959-0.19674 0-0.36011 0.13526-0.16161 0.1335-0.25471 0.37417-0.09135 0.2389-0.09135 0.51997 0 0.22485 0.11594 0.34957 0.1177 0.12472 0.32322 0.12472 0.12648 0 0.2389-0.03513t0.22134-0.08256v0.2512q-0.21782 0.11067-0.48484 0.11067z"/>
		<path id="au" d="m15.477 52.97q0.16161 0 0.28809 0.08783 0.12648 0.08608 0.19674 0.24944h0.01932l0.1177-0.30214h0.2231l-0.4093 1.9253h-0.23363l0.04567-0.36714h-0.01405q-0.31444 0.40227-0.66226 0.40227-0.24417 0-0.38295-0.17391t-0.13878-0.47605q0-0.36538 0.12472-0.67807 0.12472-0.31268 0.3443-0.4901t0.48132-0.17742zm-0.33376 1.7514q0.1704 0 0.33903-0.16161 0.16864-0.16337 0.27404-0.42335 0.1054-0.26174 0.1054-0.52348 0-0.18094-0.09837-0.28809-0.09837-0.10716-0.25823-0.10716-0.18269 0-0.34079 0.15107-0.15634 0.15107-0.24593 0.4093t-0.08959 0.54456q0 0.20026 0.08256 0.30039 0.08256 0.09837 0.23188 0.09837z"/>
		<path id="aw" d="m17.342 54.965q-0.1704 0-0.29863-0.08783-0.12824-0.08783-0.1985-0.24593h-0.01757l-7e-3 0.06675q-0.0053 0.04392-0.01932 0.12297-0.0123 0.07905-0.20026 0.97318h-0.2916l0.59023-2.7896h0.24418l-0.04567 0.36714h0.01405q0.31444-0.39876 0.65347-0.39876 0.24066 0 0.37944 0.17215 0.13878 0.1704 0.13878 0.47957 0 0.37241-0.12121 0.68334t-0.33552 0.48484q-0.21431 0.17215-0.48484 0.17215zm0.32674-1.7479q-0.16864 0-0.3443 0.16688-0.17391 0.16688-0.27755 0.41984-0.10189 0.25296-0.10189 0.51821 0 0.19323 0.09662 0.29687 0.09837 0.10189 0.28282 0.10189 0.17391 0 0.32322-0.14229 0.15107-0.14229 0.24242-0.40403 0.09135-0.2635 0.09135-0.55861 0-0.39876-0.31268-0.39876z"/>
		<path id="ax" d="m18.863 54.93h-0.29512l0.41106-1.9253h0.29512zm0.1985-2.4172q0-0.09837 0.05621-0.15986 0.05621-0.06324 0.1458-0.06324 0.15458 0 0.15458 0.1581 0 0.09662-0.05973 0.16337-0.05797 0.06675-0.13526 0.06675-0.07027 0-0.11594-0.04216-0.04567-0.04392-0.04567-0.12297z"/>
		<path id="az" d="m20.669 54.384q0 0.27404-0.19499 0.42862-0.19323 0.15283-0.54632 0.15283-0.29687 0-0.53578-0.12121v-0.27755q0.12296 0.07378 0.26525 0.11418t0.2635 0.0404q0.22134 0 0.33376-0.08783 0.11243-0.08783 0.11243-0.22485 0-0.10013-0.06148-0.16864t-0.26525-0.18796q-0.22836-0.12824-0.32322-0.2512-0.09486-0.12297-0.09486-0.2916 0-0.24242 0.17742-0.38998 0.17742-0.14932 0.46727-0.14932 0.30039 0 0.57969 0.12999l-0.09486 0.24066-0.09837-0.04392q-0.17742-0.07554-0.38646-0.07554-0.16337 0-0.25647 0.07729-0.0931 0.07554-0.0931 0.19674 0 0.09837 0.06148 0.16864 0.06324 0.07027 0.25823 0.18094 0.18796 0.1054 0.26877 0.18094 0.08256 0.07554 0.12297 0.16337 0.0404 0.08608 0.0404 0.19499z"/>
		<path id="bf" d="m21.611 54.725q0.09661 0 0.25296-0.04567v0.22661q-0.05973 0.02459-0.14756 0.04216t-0.14053 0.01757q-0.21958 0-0.33728-0.10364-0.11594-0.1054-0.11594-0.31268 0-0.11594 0.03162-0.2635l0.22309-1.0575h-0.30214l0.02459-0.12824 0.32498-0.13702 0.21958-0.40052h0.17215l-0.09662 0.44268h0.48132l-0.04567 0.2231h-0.47956l-0.22661 1.061q-0.03162 0.15283-0.03162 0.23188 0 0.09837 0.05094 0.15107t0.14229 0.0527z"/>
		<path id="at" d="m23.206 52.97q0.16161 0 0.28809 0.08783 0.12648 0.08608 0.19674 0.24944h0.01932l0.1177-0.30214h0.22309l-0.4093 1.9253h-0.23363l0.04567-0.36714h-0.01405q-0.31444 0.40227-0.66226 0.40227-0.24418 0-0.38295-0.17391-0.13878-0.17391-0.13878-0.47605 0-0.36538 0.12472-0.67807 0.12472-0.31268 0.3443-0.4901t0.48132-0.17742zm-0.33376 1.7514q0.1704 0 0.33903-0.16161 0.16864-0.16337 0.27404-0.42335 0.1054-0.26174 0.1054-0.52348 0-0.18094-0.09837-0.28809-0.09837-0.10716-0.25823-0.10716-0.18269 0-0.34079 0.15107-0.15634 0.15107-0.24593 0.4093t-0.08959 0.54456q0 0.20026 0.08256 0.30039 0.08256 0.09837 0.23188 0.09837zm0.71496-1.9745q-0.07027 0-0.13702-0.02986-0.065-0.03162-0.12824-0.06851-0.06148-0.03865-0.12121-0.06851-0.05797-0.03162-0.11418-0.03162-0.07729 0-0.12296 0.05094-0.04392 0.04919-0.08256 0.15107h-0.17567q0.10189-0.45322 0.40579-0.45322 0.07729 0 0.1458 0.03162 0.07027 0.03162 0.13175 0.07027 0.06324 0.03689 0.1177 0.06851t0.10188 0.03162q0.07729 0 0.12121-0.04743 0.04567-0.04743 0.09135-0.1581h0.17566q-0.11594 0.45322-0.4093 0.45322z"/>
		<path id="bo" d="m25.244 52.98q0.33376 0 0.527 0.1985 0.19323 0.19674 0.19323 0.5428 0 0.33025-0.12648 0.62361t-0.34255 0.45322-0.48835 0.15986q-0.33728 0-0.52875-0.1985-0.19148-0.1985-0.19148-0.5428 0-0.33376 0.12824-0.62712 0.12824-0.29512 0.34606-0.45146 0.21782-0.1581 0.48308-0.1581zm0.41457 0.7009q0-0.20202-0.11067-0.32674-0.10891-0.12648-0.29687-0.12648-0.19148 0-0.3443 0.12999-0.15107 0.12999-0.23539 0.36187-0.08256 0.23012-0.08256 0.51294 0 0.23012 0.11067 0.3566 0.11242 0.12472 0.32147 0.12472 0.18269 0 0.32849-0.12824t0.22661-0.36363q0.08256-0.23715 0.08256-0.54105z"/>
	</g>
	<path id="e" d="m64 3-2-2 2-1z" style="fill:#fce9b1"/>
</svg>
