<?xml version="1.0" encoding="UTF-8"?>
<!-- Created with Inkscape (http://www.inkscape.org/) -->
<svg width="64" height="64" version="1.1" xmlns="http://www.w3.org/2000/svg" xmlns:cc="http://creativecommons.org/ns#" xmlns:dc="http://purl.org/dc/elements/1.1/" xmlns:rdf="http://www.w3.org/1999/02/22-rdf-syntax-ns#" xmlns:xlink="http://www.w3.org/1999/xlink">
	<defs>
		<radialGradient id="c" cx="18.161" cy="21.075" r="32" gradientTransform="matrix(1.8449,0,0,1.8449,-10.998,-11.484)" gradientUnits="userSpaceOnUse">
			<stop stop-color="#294c79" offset="0"/>
			<stop stop-color="#27456a" offset="1"/>
		</radialGradient>
		<radialGradient id="b" cx="29.67" cy="61.786" r="26" gradientTransform="matrix(1.963,0,0,1.9945,-26.567,-68.247)" gradientUnits="userSpaceOnUse">
			<stop stop-color="#b3d274" offset="0"/>
			<stop stop-color="#ef81b4" offset="1"/>
		</radialGradient>
	</defs>
	<metadata>
		<rdf:RDF>
			<cc:Work rdf:about="">
				<dc:format>image/svg+xml</dc:format>
				<dc:type rdf:resource="http://purl.org/dc/dcmitype/StillImage"/>
				<dc:title/>
			</cc:Work>
		</rdf:RDF>
	</metadata>
	<g id="a">
		<path d="m0 1 2-1h60l2 1v59s-16 4-32 4-32-4-32-4z" color="#000000" fill="url(#c)"/>
		<path d="m0 1 2-1h60l2 1v1h-64z" color="#000000" fill="#9bb4d3"/>
		<path d="m64 4-2-2 2-1z" fill="#607794"/>
		<path d="m0 4 2-2-2-1z" fill="#c8d9ee"/>
		<path d="m6 8h52v47h-52z" color="#000000" fill="#1d8ee8"/>
		<path d="m6 8h52v47h-52z" color="#000000" fill="url(#b)"/>
		<path d="m29.508 57.008v1.0678h1.0678v-1.0678zm3.5593 0v1.4237h1.4237v-1.4237zm-1.7797 0.35593v1.0678h1.4237v-1.0678zm-1.4237 1.4237v1.4237h1.0678v-1.4237zm1.4237 0v1.4237h1.4237v-1.4237zm1.7797 0v1.4237h1.0678v-1.4237zm-3.5593 1.7797v1.4237h1.4237v-1.4237zm1.7797 0v1.0678h1.4237v-1.0678zm2.1356 0.35593v1.0678h1.0678v-1.0678z" color="#000000" fill="#edeff3" fill-opacity=".23183"/>
	</g>
	<use transform="matrix(.62547 0 0 .62547 11.985 11.985)" width="100%" height="100%" stroke-width="1.5988" xlink:href="#a"/>
	<use transform="matrix(.40076 0 0 .40076 19.176 19.176)" width="100%" height="100%" stroke-width="2.4953" xlink:href="#a"/>
	<use transform="matrix(.24495 0 0 .24495 24.161 24.161)" width="100%" height="100%" stroke-width="4.0824" xlink:href="#a"/>
	<use transform="matrix(.14432 0 0 .14432 27.382 27.382)" width="100%" height="100%" stroke-width="6.9291" xlink:href="#a"/>
	<use transform="matrix(.081818 0 0 .081818 29.382 29.382)" width="100%" height="100%" stroke-width="12.222" xlink:href="#a"/>
	<use transform="matrix(.046331 0 0 .046331 30.517 30.517)" width="100%" height="100%" stroke-width="21.584" xlink:href="#a"/>
	<use transform="matrix(.02723 0 0 .02723 31.129 31.129)" width="100%" height="100%" stroke-width="36.724" xlink:href="#a"/>
	<use transform="matrix(.015994 0 0 .015994 31.488 31.488)" width="100%" height="100%" stroke-width="62.523" xlink:href="#a"/>
	<use transform="matrix(.0097686 0 0 .0097686 31.687 31.687)" width="100%" height="100%" stroke-width="102.37" xlink:href="#a"/>
	<use transform="matrix(.0053741 0 0 .0053741 31.828 31.828)" width="100%" height="100%" stroke-width="186.08" xlink:href="#a"/>
	<use transform="matrix(.0028106 0 0 .0028106 31.91 31.91)" width="100%" height="100%" stroke-width="355.79" xlink:href="#a"/>
	<use transform="matrix(.0013458 0 0 .0013458 31.957 31.957)" width="100%" height="100%" stroke-width="743.07" xlink:href="#a"/>
</svg>
