<svg width="64" height="64" xmlns="http://www.w3.org/2000/svg" xmlns:xlink="http://www.w3.org/1999/xlink"><defs><radialGradient id="v" cx="35.574" cy="1.019" r="32" gradientTransform="matrix(0 1.1252 -5.1753 0 37.271 -39.029)" gradientUnits="userSpaceOnUse" xlink:href="#a"/><radialGradient id="w" cx="35.574" cy="1.036" r="32" gradientTransform="matrix(0 1.1252 -5.1753 0 37.363 -39.029)" gradientUnits="userSpaceOnUse" xlink:href="#a"/><radialGradient id="x" cx="35.574" cy="1.055" r="32" gradientTransform="matrix(0 1.1252 -5.1753 0 37.458 -39.029)" gradientUnits="userSpaceOnUse" xlink:href="#a"/><radialGradient id="y" cx="35.574" cy="1.071" r="32" gradientTransform="matrix(0 1.1252 -5.1753 0 37.544 -39.029)" gradientUnits="userSpaceOnUse" xlink:href="#a"/><radialGradient id="z" cx="35.574" cy="1.091" r="32" gradientTransform="matrix(0 1.1252 -5.1753 0 37.648 -39.029)" gradientUnits="userSpaceOnUse" xlink:href="#a"/><radialGradient id="A" cx="35.574" cy="1.113" r="32" gradientTransform="matrix(0 1.1252 -5.1753 0 37.758 -39.029)" gradientUnits="userSpaceOnUse" xlink:href="#a"/><radialGradient id="B" cx="35.574" cy="1.135" r="32" gradientTransform="matrix(0 1.1252 -5.1753 0 37.875 -39.029)" gradientUnits="userSpaceOnUse" xlink:href="#a"/><radialGradient id="C" cx="35.574" cy="1.159" r="32" gradientTransform="matrix(0 1.1252 -5.1753 0 38 -39.029)" gradientUnits="userSpaceOnUse" xlink:href="#a"/><radialGradient id="D" cx="35.574" cy="1.18" r="32" gradientTransform="matrix(0 1.1252 -5.1753 0 38.107 -39.029)" gradientUnits="userSpaceOnUse" xlink:href="#a"/><radialGradient id="E" cx="35.574" cy="1.208" r="32" gradientTransform="matrix(0 1.1252 -5.1753 0 38.252 -39.029)" gradientUnits="userSpaceOnUse" xlink:href="#a"/><radialGradient id="F" cx="35.574" cy="1.239" r="32" gradientTransform="matrix(0 1.1252 -5.1753 0 38.411 -39.029)" gradientUnits="userSpaceOnUse" xlink:href="#a"/><radialGradient id="G" cx="35.574" cy="1.273" r="32" gradientTransform="matrix(0 1.1252 -5.1753 0 38.587 -39.029)" gradientUnits="userSpaceOnUse" xlink:href="#a"/><radialGradient id="H" cx="35.574" cy="1.304" r="32" gradientTransform="matrix(0 1.1252 -5.1753 0 38.75 -39.029)" gradientUnits="userSpaceOnUse" xlink:href="#a"/><radialGradient id="I" cx="35.574" cy="1.346" r="32" gradientTransform="matrix(0 1.1252 -5.1753 0 38.966 -39.029)" gradientUnits="userSpaceOnUse" xlink:href="#a"/><radialGradient id="J" cx="35.574" cy="1.393" r="32" gradientTransform="matrix(0 1.1252 -5.1753 0 39.208 -39.029)" gradientUnits="userSpaceOnUse" xlink:href="#a"/><radialGradient id="K" cx="35.574" cy="1.439" r="32" gradientTransform="matrix(0 1.1252 -5.1753 0 39.446 -39.029)" gradientUnits="userSpaceOnUse" xlink:href="#a"/><radialGradient id="L" cx="36.463" cy="1.498" r="32" gradientTransform="matrix(0 .02541 -1.2755 0 33.91 1.073)" gradientUnits="userSpaceOnUse"><stop stop-color="#c5e6ff" stop-opacity=".771" offset="0"/><stop stop-color="#1f94ff" stop-opacity="0" offset="1"/></radialGradient><radialGradient id="d" cx="35.574" cy="1.019" r="32" gradientTransform="matrix(0 1.1252 -5.1753 0 37.271 -39.029)" gradientUnits="userSpaceOnUse" xlink:href="#b"/><radialGradient id="e" cx="35.574" cy="1.036" r="32" gradientTransform="matrix(0 1.1252 -5.1753 0 37.363 -39.029)" gradientUnits="userSpaceOnUse" xlink:href="#b"/><radialGradient id="f" cx="35.574" cy="1.055" r="32" gradientTransform="matrix(0 1.1252 -5.1753 0 37.458 -39.029)" gradientUnits="userSpaceOnUse" xlink:href="#b"/><radialGradient id="g" cx="35.574" cy="1.071" r="32" gradientTransform="matrix(0 1.1252 -5.1753 0 37.544 -39.029)" gradientUnits="userSpaceOnUse" xlink:href="#b"/><radialGradient id="h" cx="35.574" cy="1.091" r="32" gradientTransform="matrix(0 1.1252 -5.1753 0 37.648 -39.029)" gradientUnits="userSpaceOnUse" xlink:href="#b"/><radialGradient id="i" cx="35.574" cy="1.113" r="32" gradientTransform="matrix(0 1.1252 -5.1753 0 37.758 -39.029)" gradientUnits="userSpaceOnUse" xlink:href="#b"/><radialGradient id="j" cx="35.574" cy="1.135" r="32" gradientTransform="matrix(0 1.1252 -5.1753 0 37.875 -39.029)" gradientUnits="userSpaceOnUse" xlink:href="#b"/><radialGradient id="k" cx="35.574" cy="1.159" r="32" gradientTransform="matrix(0 1.1252 -5.1753 0 38 -39.029)" gradientUnits="userSpaceOnUse" xlink:href="#b"/><radialGradient id="l" cx="35.574" cy="1.18" r="32" gradientTransform="matrix(0 1.1252 -5.1753 0 38.107 -39.029)" gradientUnits="userSpaceOnUse" xlink:href="#b"/><radialGradient id="m" cx="35.574" cy="1.208" r="32" gradientTransform="matrix(0 1.1252 -5.1753 0 38.252 -39.029)" gradientUnits="userSpaceOnUse" xlink:href="#b"/><radialGradient id="n" cx="35.574" cy="1.239" r="32" gradientTransform="matrix(0 1.1252 -5.1753 0 38.411 -39.029)" gradientUnits="userSpaceOnUse" xlink:href="#b"/><radialGradient id="o" cx="35.574" cy="1.273" r="32" gradientTransform="matrix(0 1.1252 -5.1753 0 38.587 -39.029)" gradientUnits="userSpaceOnUse" xlink:href="#b"/><radialGradient id="p" cx="35.574" cy="1.304" r="32" gradientTransform="matrix(0 1.1252 -5.1753 0 38.75 -39.029)" gradientUnits="userSpaceOnUse" xlink:href="#b"/><radialGradient id="q" cx="35.574" cy="1.346" r="32" gradientTransform="matrix(0 1.1252 -5.1753 0 38.966 -39.029)" gradientUnits="userSpaceOnUse" xlink:href="#b"/><radialGradient id="r" cx="35.574" cy="1.393" r="32" gradientTransform="matrix(0 1.1252 -5.1753 0 39.208 -39.029)" gradientUnits="userSpaceOnUse" xlink:href="#b"/><radialGradient id="s" cx="35.574" cy="1.439" r="32" gradientTransform="matrix(0 1.1252 -5.1753 0 39.446 -39.029)" gradientUnits="userSpaceOnUse" xlink:href="#b"/><radialGradient id="t" cx="36.463" cy="1.498" r="32" gradientTransform="matrix(0 .02541 -1.2755 0 33.91 1.073)" gradientUnits="userSpaceOnUse"><stop stop-color="#fff" stop-opacity=".667" offset="0"/><stop stop-color="#fff" stop-opacity=".001" offset="1"/></radialGradient><radialGradient id="c" cx="37.338" cy="41.714" r="32" gradientTransform="matrix(1.0524 0 0 1.0195 -1.933 -.907)" gradientUnits="userSpaceOnUse"><stop stop-color="#9d9fc8" offset="0"/><stop stop-color="#9ba9ca" offset="1"/></radialGradient><linearGradient id="a"><stop stop-color="#eec5ff" stop-opacity=".071" offset="0"/><stop stop-color="#fff" stop-opacity=".001" offset="1"/></linearGradient><linearGradient id="u" x1="66" x2="66" y1="3" gradientUnits="userSpaceOnUse"><stop stop-color="#291259" stop-opacity=".586" offset="0"/><stop stop-color="#03143e" offset="1"/></linearGradient><linearGradient id="b"><stop stop-color="#fff" stop-opacity=".07" offset="0"/><stop stop-color="#fff" stop-opacity=".001" offset="1"/></linearGradient></defs><rect width="64" height="64" rx="1" ry="1" fill="url(#c)" paint-order="fill markers stroke"/><path fill="#fff" fill-opacity=".446" opacity=".001" d="M1.732 4h9v9h-9z"/><path d="M5.469 4.031 4.03 5.47l2.532 2.53-2.532 2.532L5.47 11.97 8 9.437l2.531 2.532 1.438-1.438L9.438 8l2.53-2.531-1.437-1.438L8 6.562z" color="#000" fill="#00122b" fill-opacity=".659" style="text-indent:0;text-transform:none" transform="translate(1.732 4) scale(.5625)"/><path fill="#fff" fill-opacity=".446" opacity=".001" d="M19.732 4h9v9h-9z"/><path d="M5 5v6h6V5zm2 2h2v2H7z" color="#000" fill="#00122b" fill-opacity=".659" style="text-indent:0;text-transform:none" transform="translate(19.732 4) scale(.5625)"/><path fill="#fff" fill-opacity=".446" opacity=".001" d="M10.732 4h9v9h-9z"/><path d="M4 6.967V9h8V6.967z" color="#000" fill="#00122b" fill-opacity=".659" style="text-indent:0;text-transform:none" transform="translate(10.732 4) scale(.5625)"/><g><path fill="#fff" fill-opacity=".446" opacity=".001" d="M53 4h9v9h-9z"/><path d="M6.563 6.734 4.03 9.266l1.438 1.437L8 8.172l2.531 2.531 1.438-1.437L8 5.296Z" color="#000" fill="#9ba8ca" style="text-indent:0;text-transform:none" transform="translate(53 4) scale(.5625)"/></g><g><path d="M1 0C.446 0 0 .446 0 1v62-.224V63 2h1.752c19.15.002 39.445 0 60.213 0H64v61-.334V63 1a.998.998 0 0 0-1-1z" fill="url(#d)" transform="translate(0 .002)"/><path d="M1 0a.998.998 0 0 0-1 1.006v61.98-.197c0-.277.004-.184.01.246.012.016.03-.297.052-.897v-60c.072-.009.133-.013.185-.013.29-.016.357-.032.774-.044.246-.011.496-.019.747-.019 19.183.002 39.392 0 60.2 0 .346 0 .689.012 1.023.03.268.01.389.02.52.033.106 0 .22.01.427.028v59.744c.027.754.05 1.148.059 1.123l.003-.334v.286V1.21c0-.143 0-.22-.002-.224A.996.996 0 0 0 62.986 0H1" fill="url(#e)" transform="translate(0 .002)"/><path d="M1 0a.998.998 0 0 0-1 1.006v61.966-.169c0-.245.008-.145.021.266.022.034.06-.247.104-.807V2.274a.744.744 0 0 1 .173-.025c.27-.031.341-.064.743-.088.242-.022.492-.037.742-.037 19.217.002 39.34 0 60.187 0 .347 0 .69.024 1.013.06.256.02.372.042.494.065.1 0 .206.02.398.057v59.731c.055.703.102 1.052.119 1.003.004-.154.006-.265.006-.333v.237V1.196c0-.139 0-.215-.003-.224A.994.994 0 0 0 63.19.02a1.025 1.025 0 0 0-.217-.02H1" fill="url(#f)" transform="translate(0 .002)"/><path d="M1 0a.998.998 0 0 0-1 1.005v61.953-.14c0-.213.012-.107.031.287.034.05.091-.198.156-.718V2.413a.45.45 0 0 1 .16-.037c.252-.048.327-.097.715-.132.238-.034.487-.056.737-.056 19.25.002 39.286 0 60.173 0 .348 0 .688.036 1.001.09.244.029.356.062.47.098.091 0 .19.03.37.085v59.718c.082.653.151.957.176.884.007-.152.01-.262.01-.333v.188V1.184c0-.135 0-.21-.004-.224a.992.992 0 0 0-.819-.94 1.041 1.041 0 0 0-.217-.018H.999" fill="url(#g)" transform="translate(0 .002)"/><path d="M1 0a.998.998 0 0 0-1 1.005v61.939-.113c0-.18.015-.068.042.308.045.067.121-.149.208-.629V2.55a.312.312 0 0 1 .148-.05c.232-.063.311-.128.684-.176.234-.044.483-.074.732-.074 19.284.002 39.234 0 60.16 0 .35 0 .689.048.991.12.232.039.34.083.444.13.085 0 .176.04.341.114v59.704c.11.603.203.862.236.764a5.23 5.23 0 0 0 .014-.333v.14V1.168c0-.13-.002-.206-.006-.224a.991.991 0 0 0-.83-.927 1.066 1.066 0 0 0-.22-.017H1" fill="url(#h)" transform="translate(0 .002)"/><path d="M1 0a.998.998 0 0 0-1 1.004V62.93v-.084c0-.148.02-.029.052.328.056.084.152-.099.26-.539V2.686c.053-.04.097-.061.136-.061.212-.08.297-.16.655-.22.23-.056.477-.093.727-.093 19.317.002 39.18 0 60.147 0 .35 0 .688.06.98.151.22.047.322.102.418.162.078 0 .162.049.313.142v59.69c.137.553.253.767.295.645A4.73 4.73 0 0 0 64 62.77v.09V1.155c0-.126-.002-.202-.007-.224a.99.99 0 0 0-.843-.914A1.099 1.099 0 0 0 62.932 0H1" fill="url(#i)" transform="translate(0 .002)"/><path d="M1 0a.998.998 0 0 0-1 1.004v61.912-.056c0-.117.023.01.063.349.067.1.182-.05.312-.45V2.824c.048-.049.088-.074.123-.074.193-.095.282-.192.626-.264.225-.067.472-.11.721-.11h60.133c.352 0 .688.071.97.18a.944.944 0 0 1 .393.194c.07 0 .147.059.284.17V62.6c.164.502.304.671.354.524.014-.14.02-.25.02-.331v.042V1.14c0-.121-.002-.197-.009-.224a.99.99 0 0 0-.854-.902A1.142 1.142 0 0 0 62.918 0H1" fill="url(#j)" transform="translate(0 .002)"/><path d="M1 0a.998.998 0 0 0-1 1.004v61.898-.029c0-.084.027.049.073.37.079.117.212 0 .365-.36V2.96c.043-.057.079-.086.11-.086.174-.112.267-.225.596-.309a2.19 2.19 0 0 1 .717-.129c19.385.002 39.075 0 60.12 0 .353 0 .687.084.958.211a.81.81 0 0 1 .368.227c.063 0 .132.068.256.199v59.665c.192.452.354.576.413.404a3.11 3.11 0 0 0 .024-.33V1.125c0-.117-.004-.193-.01-.224a.99.99 0 0 0-.868-.89A1.198 1.198 0 0 0 62.905 0H1" fill="url(#k)" transform="translate(0 .002)"/><path d="M1 0a.998.998 0 0 0-1 1.003v61.885c0-.052.03.087.084.39.09.135.242.05.416-.27V3.097C.538 3.034.57 3 .599 3c.154-.127.251-.257.566-.352.217-.089.463-.148.711-.148 19.418.002 39.022 0 60.107 0 .355 0 .687.096.947.242a.723.723 0 0 1 .343.258c.056 0 .118.079.227.227v59.651c.22.402.406.482.473.285.018-.132.027-.243.027-.33V1.112c0-.113-.004-.188-.012-.224a.99.99 0 0 0-.879-.877A1.273 1.273 0 0 0 62.891 0H1.001" fill="url(#l)" transform="translate(0 .002)"/><path d="M1 0a.998.998 0 0 0-1 1.003v61.899c0-.02.035.126.094.41.101.152.273.1.468-.18V3.235c.034-.073.062-.11.087-.11.135-.143.236-.29.536-.397.213-.1.459-.166.707-.166 19.452.002 38.969 0 60.093 0 .356 0 .687.108.936.272a.678.678 0 0 1 .317.29c.05 0 .103.089.2.256v59.64c.246.352.455.386.531.165.02-.128.03-.239.03-.33V1.1c0-.108-.004-.184-.013-.224a.99.99 0 0 0-.891-.864 1.376 1.376 0 0 0-.218-.01H1" fill="url(#m)" transform="translate(0 .002)"/><path d="M1 0a.998.998 0 0 0-1 1.002v61.913c0 .013.039.165.105.432.112.168.303.148.52-.092V3.373c.029-.081.053-.123.074-.123.116-.159.222-.321.507-.44a1.52 1.52 0 0 1 .701-.185c19.486.002 38.916 0 60.08 0 .357 0 .687.12.925.302a.66.66 0 0 1 .292.323c.043 0 .089.098.171.284V63.16c.275.302.507.29.591.046.022-.125.034-.236.034-.33V1.085c0-.104-.005-.18-.016-.224a.99.99 0 0 0-.903-.852 1.514 1.514 0 0 0-.218-.008H1" fill="url(#n)" transform="translate(0 .002)"/><path d="M1 0a.998.998 0 0 0-1 1.002V62.93c0 .045.042.203.115.453.123.184.333.197.572-.003V3.51c.024-.089.045-.135.062-.135.097-.174.207-.353.478-.484.204-.122.448-.203.696-.203 19.519.002 38.863 0 60.067 0a1.4 1.4 0 0 1 .914.332c.15.103.224.225.267.355.035 0 .073.108.142.313V63.3c.302.251.557.196.65-.074a1.7 1.7 0 0 0 .037-.33V1.071c0-.1-.006-.175-.017-.224a.99.99 0 0 0-.915-.84A1.712 1.712 0 0 0 62.85 0H1" fill="url(#o)" transform="translate(0 .002)"/><path d="M1 0a.998.998 0 0 0-1 1.002v61.942c0 .077.046.242.126.473.134.201.363.246.624.086V3.647C.77 3.55.785 3.5.8 3.5a.981.981 0 0 1 .447-.529c.2-.133.444-.221.691-.221 19.553.002 38.811 0 60.053 0 .36 0 .686.144.903.362a.688.688 0 0 1 .242.388c.028 0 .059.118.114.341v59.598c.33.2.608.1.709-.194.026-.117.04-.228.04-.329V1.056c0-.095-.006-.17-.018-.224a.991.991 0 0 0-.927-.827A2.015 2.015 0 0 0 62.836 0H1" fill="url(#p)" transform="translate(0 .002)"/><path d="M1 0a.998.998 0 0 0-1 1.001v61.956c0 .11.05.281.136.494.146.218.394.296.677.176V3.784c.014-.105.026-.16.036-.16a.967.967 0 0 1 .419-.572c.196-.144.439-.24.686-.24 19.586.002 38.758 0 60.04 0 .36 0 .685.156.892.392a.73.73 0 0 1 .216.42c.021 0 .044.128.086.37v59.585c.356.15.658.005.768-.314.029-.114.044-.224.044-.328V1.042c0-.09-.007-.166-.02-.224a.992.992 0 0 0-.94-.814 2.524 2.524 0 0 0-.217-.005H1" fill="url(#q)" transform="translate(0 .002)"/><path d="M1 0a.998.998 0 0 0-1 1v61.972c0 .142.054.32.147.515a.643.643 0 0 0 .728.265V3.922c.01-.114.018-.172.025-.172a.97.97 0 0 1 .389-.617c.192-.155.434-.258.68-.258 19.62.002 38.705 0 60.027 0 .362 0 .686.168.882.422a.794.794 0 0 1 .19.453c.015 0 .03.137.057.398V63.72c.385.1.71-.09.828-.434.03-.11.047-.22.047-.328V1.028c0-.086-.007-.161-.021-.224a.994.994 0 0 0-.951-.802A3.563 3.563 0 0 0 62.809 0H1" fill="url(#r)" transform="translate(0 .002)"/><path d="M1 0a.998.998 0 0 0-1 1v61.986c0 .174.058.358.157.535a.802.802 0 0 0 .78.355V4.06c.005-.122.01-.185.013-.185a.987.987 0 0 1 .36-.66c.187-.166.429-.277.675-.277 19.653.002 38.652 0 60.013 0 .363 0 .685.18.87.452a.876.876 0 0 1 .166.485c.007 0 .015.147.028.427V63.86c.412.05.76-.186.887-.553a1.1 1.1 0 0 0 .05-.328V1.014A.996.996 0 0 0 63.014 0a6.67 6.67 0 0 0-.219 0H1" fill="url(#s)" transform="translate(0 .002)"/><path d="M1 0a.998.998 0 0 0-1 1v62a.997.997 0 0 0 1 1V4.001c0-.254.132-.514.33-.705A.99.99 0 0 1 2 3.001c19.687.002 38.599 0 60 0a1 1 0 0 1 .86.483A.98.98 0 0 1 63 4v60a.998.998 0 0 0 1-1V1.001a.998.998 0 0 0-1-1H1" fill="url(#t)" transform="translate(0 .002)"/></g><path d="M32 64V0h31l1 1v63z" fill="url(#u)"/><g><path d="M32 0v2h32V1a.998.998 0 0 0 0-.002L63.002 0H63z" fill="url(#v)" transform="translate(0 .002)"/><path d="M32 0v2.063h29.969c.346 0 .687.011 1.022.03.268.01.39.02.521.032.106 0 .219.01.426.028v59.744c.027.754.05 1.148.058 1.123l.004-.334V1.209c0-.137 0-.203-.002-.213L63.012.01a.996.996 0 0 0-.025-.01z" fill="url(#w)" transform="translate(0 .002)"/><path d="M32 0v2.123h29.971c.347 0 .689.025 1.012.061.256.02.372.041.494.064.1 0 .206.02.398.057v59.732c.055.703.102 1.051.12 1.002.003-.154.005-.264.005-.332V1.195c0-.124-.001-.18-.004-.201l-.992-.992A1.025 1.025 0 0 0 62.973 0z" fill="url(#x)" transform="translate(0 .002)"/><path d="M32 .002v2.186h29.973c.348 0 .687.036 1 .09.244.029.357.061.47.097.092 0 .19.031.37.086v59.717c.082.653.15.958.176.885.007-.152.01-.26.01-.332V1.184c0-.115-.002-.164-.004-.191l-.987-.987a1.041 1.041 0 0 0-.049-.004z" fill="url(#y)" transform="translate(0 .002)"/><path d="M32 0v2.25h29.975c.35 0 .688.048.99.12.232.039.34.083.444.13.085 0 .176.04.341.114v59.705c.11.603.204.861.237.763a5.2 5.2 0 0 0 .013-.334V1.168c0-.1-.001-.14-.003-.173l-.99-.99A1.066 1.066 0 0 0 62.943 0z" fill="url(#z)" transform="translate(0 .002)"/><path d="M32 0v2.313h29.977c.35 0 .688.06.98.15.22.047.322.102.418.162.078 0 .162.048.313.141v59.691c.137.553.253.767.295.645A4.73 4.73 0 0 0 64 62.77V1.155c0-.091-.003-.125-.005-.163l-.987-.986A1.099 1.099 0 0 0 62.932 0z" fill="url(#A)" transform="translate(0 .002)"/><path d="M32 0v2.375h29.979c.352 0 .687.071.969.18a.944.944 0 0 1 .394.195c.07 0 .146.06.283.17V62.6c.164.502.304.67.354.524.014-.14.02-.25.02-.33V1.14c0-.08-.004-.11-.006-.149l-.985-.984a1.142 1.142 0 0 0-.09-.006z" fill="url(#B)" transform="translate(0 .002)"/><path d="M32 0v2.436h29.98c.353 0 .688.084.959.21.196.067.29.144.367.227.063 0 .132.069.256.2v59.666c.192.452.355.574.414.402a3.11 3.11 0 0 0 .024-.328V1.125c0-.07-.004-.093-.006-.133l-.989-.988A1.198 1.198 0 0 0 62.904 0z" fill="url(#C)" transform="translate(0 .002)"/><path d="M32 0v2.5h29.982c.355 0 .687.097.947.243a.723.723 0 0 1 .344.257c.056 0 .118.079.227.227v59.65c.22.402.405.482.472.285.018-.132.028-.243.028-.33V1.112c0-.06-.004-.082-.006-.12l-.987-.986A1.273 1.273 0 0 0 62.89 0z" fill="url(#D)" transform="translate(0 .002)"/><path d="M32 .002v2.56h29.984c.356 0 .689.108.938.272a.678.678 0 0 1 .316.29c.05 0 .102.088.2.255V63.02c.245.352.454.385.53.164.02-.128.03-.237.03-.328V1.1c0-.052-.004-.072-.006-.11l-.983-.982a1.376 1.376 0 0 0-.132-.005z" fill="url(#E)" transform="translate(0 .002)"/><path d="M32 0v2.625h29.986c.357 0 .688.12.926.301a.66.66 0 0 1 .29.324c.044 0 .09.098.173.284V63.16c.275.302.507.289.591.045.022-.125.034-.237.034-.33V1.083c0-.042-.004-.058-.006-.091l-.986-.987a1.514 1.514 0 0 0-.145-.005z" fill="url(#F)" transform="translate(0 .002)"/><path d="M32 0v2.688h29.99a1.4 1.4 0 0 1 .914.332c.15.103.225.225.268.355.035 0 .071.108.14.313v59.61c.302.252.558.197.65-.073a1.7 1.7 0 0 0 .038-.328V1.07c0-.035-.005-.05-.006-.079l-.988-.988A1.712 1.712 0 0 0 62.849 0z" fill="url(#G)" transform="translate(0 .002)"/><path d="M32 0v2.75h29.99c.36 0 .687.144.904.362a.688.688 0 0 1 .242.388c.028 0 .059.117.114.34v59.6c.33.2.608.099.709-.195.026-.117.039-.227.039-.328V1.056c0-.028-.005-.04-.006-.065l-.986-.986a2.015 2.015 0 0 0-.17-.004z" fill="url(#H)" transform="translate(0 .002)"/><path d="M32-.002v2.815h29.994c.36 0 .686.155.893.39a.73.73 0 0 1 .214.42c.021 0 .044.13.086.372v59.584c.356.15.658.004.768-.315.029-.114.045-.222.045-.326V1.042c0-.019-.003-.03-.004-.047l-.99-.99a2.524 2.524 0 0 0-.184-.006z" fill="url(#I)" transform="translate(0 .002)"/><path d="M32 0v2.875h29.996c.362 0 .687.168.883.422a.794.794 0 0 1 .19.453c.014 0 .029.138.056.399v59.57c.385.1.71-.09.828-.434.03-.11.047-.22.047-.328V1.027c0-.013-.004-.02-.004-.033l-.992-.992A3.563 3.563 0 0 0 62.808 0z" fill="url(#J)" transform="translate(0 .002)"/><path d="M32 0v2.938h29.998c.363 0 .684.18.87.451a.876.876 0 0 1 .165.486c.007 0 .016.146.03.426v59.56c.411.05.76-.187.886-.554a1.1 1.1 0 0 0 .049-.328V1.014a.996.996 0 0 0-.002-.02l-.994-.993a6.67 6.67 0 0 0-.207 0z" fill="url(#K)" transform="translate(0 .002)"/><path d="M32 0v3h30a1 1 0 0 1 .86.485A.98.98 0 0 1 63 4v59.998h.016A.998.998 0 0 0 64 63V1a.998.998 0 0 0 0-.002L63.002 0H63z" fill="url(#L)" transform="translate(0 .002)"/></g><g><path d="M15.695 16.135a3 3 0 0 0-3 3l.002 2.06a3 3 0 0 0 2.732 2.95L11.834 43.3l-1.057.078A3 3 0 0 0 8 46.37v2.139a3 3 0 0 0 3 3l12.209.002a3 3 0 0 0 3-3l.002-2.139a3 3 0 0 0-.116-.605c.782 1.578 1.573 3.02 2.956 4.183 1.514 1.275 3.575 1.846 5.73 1.873.871.011 1.484.087 4.266-.002a3 3 0 0 0 1.826-.695c4.782-3.993 8.422-7.53 11.02-10.492 2.6-2.963 4.193-5.111 4.86-7.49.384-1.368.397-3.055-.592-4.463-.988-1.408-2.703-1.983-4.125-1.983-1.602 0-2.979.618-4.26 1.463a3 3 0 0 0-1.324 2.131l-.035.274c-.219-1.44-1.727-3.211-3.173-3.672a3 3 0 0 0-1.557-.073l-4.563 1.006 3.293-3.334 2.414-.234a3 3 0 0 0 2.71-2.986v-2.141a3 3 0 0 0-3-2.998H31.582a3 3 0 0 0-2.32 1.357 3 3 0 0 0-1.357-1.357zm2.969 2.277.03.004v.014a3 3 0 0 0-.03-.018zm15.863.078.056.006v.037a3 3 0 0 0-.056-.043zm-5.98 5.584-1.794 1.848.313-1.658 1.054-.076a3 3 0 0 0 .426-.114zm4.263 8.123a3 3 0 0 0 .236 1.6l-.61-1.22zm.357 1.842a3 3 0 0 0 1.963 1.285l.285.045c-.084.584-.149 1.094-.29 1.9l-.09.503zm-13.52.164a3 3 0 0 0 .06.24 3 3 0 0 0-.125.104zm4.226 6.953 1.494 3.143a3 3 0 0 0-1.902-.906zm-3.664 7.977a3 3 0 0 0 .086.049l-.086-.006z" color="#000" fill="#191030" fill-opacity=".03" style="-inkscape-stroke:none;font-variation-settings:normal"/><g fill="#030036" fill-opacity=".03" opacity=".64"><path d="M15.696 31.634v2.061l2.74.209.443.626-4.41 23.48-.678.653L11 58.87v2.14h12.21v-2.14l-2.713-.182-.47-.679 1.8-9.835h2.766l3.965 8.348c1.62 3.33 2.758 4.757 6.262 4.8 1.007.014 1.412.088 4.13 0 9.374-7.825 14.16-13.791 14.915-16.488.458-1.634-.269-2.636-1.827-2.636-.76 0-1.63.32-2.608.966l-.705 5.61c-1.918 2.507-4.475 5.238-7.591 8.087l2.06-10.775c.428-2.204.57-3.38-.86-3.835l-6.392 1.409-.339 1.2 2.948.47c.205.76-.022 2.41-.47 4.957l-1.435 7.904c-.022.082-.037.17-.052.261-.93-.5-1.517-1.39-2.191-2.739l-5.61-11.219 10.253-10.383 3.496-.34v-2.138H31.585v2.14l2.713.208.261.704L23.575 46.01h-1.304l2.165-11.479.574-.626 2.896-.209v-2.06z" style="-inkscape-stroke:none;font-variation-settings:normal"/><path d="M15.696 28.509v2.061l2.74.209.443.626-4.41 23.48-.678.653-2.791.208v2.14h12.21v-2.14l-2.713-.183-.47-.678 1.8-9.835h2.766l3.965 8.348c1.621 3.33 2.758 4.756 6.262 4.8 1.007.014 1.412.088 4.13 0 9.374-7.825 14.158-13.79 14.914-16.487.458-1.634-.269-2.636-1.826-2.636-.76 0-1.63.32-2.609.966l-.704 5.609c-1.919 2.507-4.476 5.238-7.592 8.088l2.06-10.775c.429-2.204.57-3.38-.86-3.836l-6.392 1.41-.339 1.2 2.948.47c.205.76-.022 2.41-.47 4.956l-1.435 7.905c-.022.082-.036.17-.052.261-.93-.5-1.517-1.39-2.191-2.74l-5.61-11.217 10.254-10.384c.013 0 3.496-.339 3.496-.339v-2.14l-10.958.001v2.14l2.713.208.261.704-10.984 11.323H22.27l2.165-11.478.574-.627 2.896-.208V28.51h-12.21" style="-inkscape-stroke:none;font-variation-settings:normal"/><path d="M15.696 27.215v2.061l2.74.209.443.626-4.41 23.48-.678.653c-.015 0-2.791.208-2.791.208v2.14h12.21v-2.14c-.015 0-2.713-.182-2.713-.182l-.47-.679 1.8-9.835h2.766l3.965 8.348c1.621 3.33 2.758 4.757 6.262 4.8 1.007.014 1.413.088 4.13 0 9.374-7.825 14.158-13.79 14.914-16.487.458-1.634-.269-2.636-1.826-2.636-.76 0-1.63.32-2.609.966l-.704 5.61c-1.919 2.507-4.476 5.238-7.592 8.087l2.061-10.775c.428-2.204.569-3.38-.861-3.836l-6.392 1.41-.339 1.2 2.948.47c.205.76-.022 2.41-.47 4.956l-1.434 7.905c-.023.082-.037.17-.053.26-.93-.5-1.517-1.39-2.191-2.738l-5.61-11.218 10.254-10.383 3.496-.34v-2.139H31.583l.001 2.14 2.713.208.26.705-10.983 11.323H22.27l2.166-11.48.574-.625 2.895-.21v-2.06H15.696" style="-inkscape-stroke:none;font-variation-settings:normal"/><path d="M15.696 26.222v2.061l2.74.209.443.626-4.41 23.48-.678.653c-.018 0-2.791.208-2.791.208v2.14h12.21v-2.14c-.018 0-2.713-.182-2.713-.182l-.47-.679 1.8-9.835h2.766l3.965 8.348c1.621 3.33 2.758 4.757 6.262 4.8 1.007.014 1.413.088 4.13 0 9.374-7.825 14.159-13.79 14.915-16.487.457-1.634-.27-2.636-1.827-2.636-.76 0-1.63.32-2.609.966l-.704 5.61c-1.919 2.507-4.476 5.238-7.592 8.087l2.061-10.775c.428-2.204.569-3.38-.861-3.836l-6.392 1.41-.338 1.2c.02.002 2.947.47 2.947.47.205.76-.022 2.41-.47 4.956l-1.434 7.905c-.023.082-.037.17-.053.26-.93-.5-1.517-1.39-2.191-2.738l-5.61-11.219h.001l10.253-10.383 3.496-.339v-2.14H31.583v2.14l2.714.209.26.704-10.983 11.323H22.27l2.166-11.479.573-.626 2.896-.209v-2.06h-12.21" style="-inkscape-stroke:none;font-variation-settings:normal"/><path d="M15.696 25.384v2.061l2.74.209.443.626-4.41 23.48-.678.653L11 52.62v2.14h12.21v-2.14c-.02 0-2.713-.183-2.713-.183l-.47-.678 1.8-9.836h2.766l3.966 8.349c1.62 3.33 2.757 4.756 6.26 4.8h.001c1.007.014 1.413.088 4.13 0 9.374-7.825 14.159-13.79 14.915-16.487.457-1.634-.27-2.636-1.827-2.636-.76 0-1.63.32-2.608.966l-.705 5.609c-1.919 2.507-4.476 5.238-7.592 8.088l2.061-10.776c.428-2.203.569-3.379-.861-3.835l-6.392 1.41-.338 1.2 2.947.469c.205.76-.022 2.412-.47 4.957l-1.434 7.905c-.023.081-.037.17-.053.26-.93-.5-1.517-1.39-2.19-2.738h-.001l-5.61-11.219h.001l10.253-10.383 3.496-.34v-2.139H31.583v2.14l2.714.209.26.704L23.576 39.76H22.27l2.166-11.479.573-.626 2.896-.209v-2.061h-12.21" style="-inkscape-stroke:none;font-variation-settings:normal"/><path d="M15.696 24.647v2.061l2.74.209.443.626-4.41 23.48-.678.652-2.791.209v2.14h12.21v-2.14l-2.713-.183-.47-.678 1.8-9.836h2.766l3.966 8.349c1.62 3.33 2.757 4.756 6.26 4.8h.001c1.007.014 1.413.087 4.13 0 9.374-7.826 14.159-13.79 14.915-16.488.458-1.633-.27-2.635-1.827-2.635-.76 0-1.63.32-2.608.966l-.705 5.609c-1.919 2.507-4.476 5.238-7.592 8.087L43.194 39.1c.428-2.204.569-3.38-.86-3.835h-.001l-6.392 1.41-.338 1.199 2.947.47c.205.76-.022 2.412-.47 4.957-.005.034-1.434 7.905-1.434 7.905-.023.081-.037.17-.052.26-.93-.5-1.517-1.39-2.192-2.739L28.793 37.51l10.253-10.383 3.496-.34v-2.139H31.583l.001 2.14 2.713.208.26.705-10.983 11.323H22.27l2.166-11.479.574-.626 2.895-.209v-2.061H15.696" style="-inkscape-stroke:none;font-variation-settings:normal"/><path d="M15.696 23.98v2.061l2.74.209.443.626-4.41 23.48-.678.652-2.791.21v2.138h12.21v-2.139l-2.713-.182-.47-.679 1.8-9.836h2.766l3.966 8.35c1.62 3.328 2.757 4.756 6.26 4.8h.001c1.007.013 1.413.087 4.13 0 9.374-7.827 14.159-13.792 14.915-16.489.458-1.633-.27-2.635-1.827-2.635-.76 0-1.63.32-2.608.966l-.705 5.609c-1.919 2.508-4.476 5.238-7.592 8.088l2.061-10.776c.428-2.203.569-3.379-.86-3.835h-.001l-6.392 1.41-.338 1.199 2.947.47c.205.76-.022 2.412-.47 4.957l-1.434 7.905c-.023.081-.037.17-.052.26-.931-.5-1.517-1.39-2.192-2.739l-5.609-11.218 10.253-10.383 3.496-.34V23.98H31.583l.001 2.14 2.713.208.26.705-10.983 11.323H22.27l2.166-11.48.574-.625 2.895-.209V23.98h-12.21" style="-inkscape-stroke:none;font-variation-settings:normal"/><path d="M15.696 23.366v2.061l2.74.209.443.626-4.41 23.48-.678.652-2.791.21v2.138h12.21v-2.139l-2.714-.183-.47-.678 1.8-9.836h2.766l3.966 8.349c1.62 3.33 2.757 4.756 6.261 4.8 1.007.014 1.413.088 4.13 0 9.374-7.826 14.159-13.79 14.915-16.488.458-1.633-.27-2.635-1.827-2.635-.76 0-1.63.32-2.608.966l-.705 5.609c-1.918 2.507-4.476 5.238-7.592 8.088l2.061-10.776c.428-2.203.569-3.379-.86-3.835h-.001l-6.391 1.41-.34 1.199h.001l2.947.47c.205.76-.022 2.412-.47 4.957l-1.434 7.905c-.023.082-.037.17-.052.26-.93-.5-1.517-1.39-2.192-2.739l-5.609-11.218 10.253-10.383 3.496-.34v-2.139H31.584v2.14l2.713.208.26.705-10.983 11.323h-1.305l2.166-11.48.574-.626 2.896-.208v-2.061H15.694" style="-inkscape-stroke:none;font-variation-settings:normal"/><path d="M15.696 22.795v2.061l2.74.209.443.626-4.41 23.48-.678.652-2.791.21v2.138h12.21v-2.138l-2.714-.184-.47-.678 1.8-9.835h2.766l3.966 8.348c1.62 3.33 2.757 4.757 6.261 4.8 1.007.014 1.413.088 4.13 0 9.374-7.826 14.159-13.79 14.915-16.488.458-1.633-.27-2.635-1.827-2.635-.76 0-1.63.32-2.608.966l-.705 5.609c-1.918 2.507-4.476 5.238-7.592 8.088l2.061-10.776c.428-2.204.569-3.38-.86-3.835h-.001l-6.391 1.409-.34 1.2h.001l2.947.47c.205.76-.022 2.412-.47 4.957l-1.434 7.905c-.023.081-.037.17-.052.26-.93-.5-1.517-1.39-2.192-2.739l-5.609-11.218 10.253-10.383 3.496-.34v-2.139H31.584v2.14l2.713.208.26.705L23.575 37.17h-1.305l2.166-11.48.574-.625 2.896-.209v-2.061H15.694" style="-inkscape-stroke:none;font-variation-settings:normal"/><path d="M15.696 22.259v2.061l2.74.209.443.626-4.41 23.48-.678.652-2.791.209v2.14h12.21v-2.14l-2.714-.183-.47-.678 1.8-9.836h2.766l3.966 8.349c1.62 3.33 2.757 4.756 6.261 4.8 1.008.014 1.413.088 4.13 0 9.374-7.826 14.159-13.79 14.915-16.488.458-1.633-.27-2.635-1.827-2.635-.76 0-1.63.32-2.608.966l-.705 5.609c-1.918 2.507-4.476 5.238-7.592 8.087l2.061-10.775c.428-2.204.569-3.38-.86-3.835l-6.392 1.409-.34 1.2h.001l2.948.47c.204.76-.023 2.412-.47 4.957l-1.435 7.905c-.023.081-.037.17-.052.26-.93-.5-1.517-1.39-2.192-2.739L28.792 35.12l10.254-10.384 3.496-.339v-2.14h-.001l-10.957.001v2.14l2.713.208.26.705-10.983 11.323H22.27l2.165-11.48.574-.626 2.896-.208V22.26H15.694" style="-inkscape-stroke:none;font-variation-settings:normal"/><path d="M15.696 21.752v2.061l2.74.209.443.626-4.41 23.48-.678.652-2.791.21v2.138h12.21V48.99l-2.714-.182-.47-.679 1.8-9.835h2.766l3.966 8.348c1.62 3.33 2.757 4.757 6.261 4.8 1.008.014 1.413.088 4.13 0 9.374-7.825 14.159-13.79 14.915-16.488.458-1.633-.27-2.635-1.827-2.635-.76 0-1.63.32-2.608.966l-.705 5.609c-1.918 2.507-4.476 5.238-7.592 8.088l2.061-10.776c.428-2.204.569-3.38-.86-3.835l-6.392 1.409-.34 1.2h.001l2.947.47c.205.76-.022 2.412-.47 4.957l-1.434 7.905c-.023.081-.037.17-.052.26-.93-.5-1.517-1.39-2.192-2.739l-5.609-11.218L39.045 24.23h.001l3.495-.339v-2.14H31.584v2.141l2.713.208.261.705-10.984 11.323H22.27l2.165-11.48.574-.626 2.896-.208v-2.061h-12.21" style="-inkscape-stroke:none;font-variation-settings:normal"/><path d="M15.696 21.27v2.061l2.74.209c.01.016.443.626.443.626l-4.41 23.48-.678.652-2.791.21v2.138h12.21v-2.139l-2.714-.183-.47-.678 1.8-9.836h2.766l3.966 8.349c1.62 3.33 2.758 4.757 6.261 4.8 1.008.014 1.413.088 4.13 0h.001c9.373-7.826 14.158-13.79 14.914-16.488.458-1.633-.27-2.635-1.827-2.635-.76 0-1.63.32-2.608.966l-.705 5.609c-1.918 2.507-4.476 5.238-7.592 8.087l2.061-10.774c.428-2.204.57-3.38-.86-3.835l-6.392 1.409-.339 1.2 2.948.47c.204.76-.023 2.412-.47 4.957l-1.435 7.905c-.023.081-.037.17-.052.26-.93-.5-1.517-1.39-2.192-2.739l-5.609-11.218 10.254-10.384 3.496-.339v-2.14H31.583v2.141l2.713.208.261.705-10.984 11.323H22.27l2.165-11.48.574-.626 2.896-.208V21.27h-12.21" style="-inkscape-stroke:none;font-variation-settings:normal"/><path d="M15.696 20.809v2.061l2.74.209.443.626-4.41 23.48-.678.652-2.791.209v2.14h12.21V48.045l-2.714-.183-.47-.678 1.8-9.836h2.766l3.966 8.349c1.62 3.33 2.758 4.756 6.261 4.8 1.008.014 1.413.088 4.13 0h.001c9.373-7.826 14.158-13.79 14.914-16.488.458-1.633-.27-2.635-1.827-2.635-.76 0-1.63.32-2.608.966l-.705 5.609c-1.918 2.507-4.476 5.238-7.592 8.087l2.061-10.774c.428-2.204.57-3.38-.86-3.835l-6.392 1.409-.339 1.2 2.948.47c.205.76-.022 2.412-.47 4.956l-1.435 7.905v.001c-.023.081-.037.17-.052.26-.93-.5-1.517-1.39-2.192-2.739l-5.609-11.218 10.254-10.384 3.496-.339v-2.14H31.582v2.141l2.714.208.26.704-10.984 11.323H22.27l2.165-11.479.574-.626 2.896-.208V20.81h-12.21" style="-inkscape-stroke:none;font-variation-settings:normal"/><path d="M15.696 20.367v2.061l2.74.209.443.626-4.41 23.48-.678.652-2.791.21v2.138h12.21v-2.139l-2.714-.183-.47-.678 1.8-9.836h2.766l3.966 8.349c1.62 3.33 2.758 4.756 6.261 4.8 1.008.014 1.413.088 4.13 0h.001c9.373-7.826 14.158-13.79 14.914-16.488.458-1.633-.27-2.635-1.827-2.635-.76 0-1.63.32-2.608.966l-.705 5.609c-1.918 2.507-4.476 5.238-7.592 8.087l2.061-10.774c.428-2.204.57-3.38-.86-3.835l-6.392 1.409-.339 1.2 2.948.47c.204.76-.023 2.412-.47 4.956l-1.435 7.905v.001c-.023.081-.037.17-.052.26-.93-.5-1.517-1.39-2.192-2.739L28.792 33.23l10.254-10.384 3.496-.339v-2.14H31.583v2.141l2.713.208.261.704-10.984 11.323H22.27l2.165-11.479.574-.626 2.896-.209v-2.06h-12.21" style="-inkscape-stroke:none;font-variation-settings:normal"/><path d="M15.696 19.942v2.061l2.74.209.443.626-4.41 23.48-.678.652L11 47.18v2.14h12.21V47.178l-2.714-.183-.47-.678 1.8-9.836h2.766l3.966 8.349c1.62 3.33 2.758 4.756 6.261 4.8 1.008.014 1.413.087 4.13 0h.001c9.373-7.826 14.158-13.79 14.914-16.488.458-1.634-.27-2.635-1.827-2.635-.76 0-1.63.32-2.608.966l-.705 5.609c-1.918 2.507-4.476 5.238-7.592 8.087l2.061-10.774c.428-2.204.57-3.38-.86-3.835L35.94 31.97l-.339 1.2 2.948.47c.205.76-.022 2.412-.47 4.957L36.645 46.5v.001c-.023.081-.037.17-.052.26-.93-.5-1.517-1.39-2.192-2.739l-5.609-11.218L39.047 22.42l3.496-.34v-2.138H31.583v2.14l2.713.208.261.704-10.984 11.323H22.27l2.165-11.479.574-.626 2.896-.209v-2.06H15.695" style="-inkscape-stroke:none;font-variation-settings:normal"/><path d="M15.696 19.531v2.061l2.74.209.443.626-4.41 23.48-.678.652-2.791.21v2.138h12.21v-2.139l-2.714-.183-.47-.678 1.8-9.836h2.766l3.966 8.349c1.62 3.33 2.758 4.756 6.261 4.8 1.008.014 1.413.088 4.13 0h.001c9.373-7.826 14.158-13.79 14.914-16.488.458-1.634-.27-2.635-1.827-2.635-.76 0-1.63.32-2.608.966l-.705 5.609c-1.918 2.507-4.476 5.238-7.592 8.087l2.061-10.774c.428-2.204.57-3.38-.86-3.835l-6.392 1.409-.339 1.2 2.948.47c.204.76-.022 2.412-.47 4.956l-1.435 7.905v.001c-.023.081-.037.17-.052.26-.93-.5-1.517-1.39-2.192-2.739l-5.609-11.218L39.047 22.01l3.496-.34v-2.139H31.583v2.141l2.713.208.261.704-10.984 11.323H22.27l2.165-11.479.574-.626 2.896-.209v-2.061H15.695" style="-inkscape-stroke:none;font-variation-settings:normal"/><path d="M15.696 19.134v2.061l2.74.209.443.626-4.41 23.48-.678.652-2.791.209v2.14h12.21V46.37l-2.714-.183-.47-.678 1.8-9.836h2.766l3.966 8.349c1.62 3.33 2.758 4.756 6.261 4.8 1.008.014 1.413.087 4.13 0h.001c9.374-7.826 14.158-13.79 14.914-16.488.458-1.634-.269-2.635-1.826-2.635h-.001c-.76 0-1.63.32-2.608.966l-.704 5.609c-1.92 2.507-4.477 5.238-7.592 8.087l2.06-10.774v-.001c.428-2.203.57-3.378-.86-3.834l-6.392 1.409-.339 1.2 2.948.47c.205.76-.022 2.412-.47 4.956l-1.435 7.905v.001c-.022.081-.037.17-.052.26-.93-.5-1.517-1.39-2.191-2.739l-5.61-11.219 10.254-10.383 3.496-.34v-2.139H31.583v2.14l2.713.209.261.704L23.574 33.51H22.27l2.165-11.479.574-.626 2.896-.209v-2.061h-12.21" style="-inkscape-stroke:none;font-variation-settings:normal"/></g><path d="M15.696 19.134v2.061l2.74.209.443.626-4.41 23.48-.678.652-2.791.209v2.14h12.21v-2.14l-2.713-.183-.47-.678 1.8-9.836h2.766l3.965 8.349c1.621 3.33 2.758 4.756 6.262 4.8 1.007.014 1.412.088 4.13 0 9.374-7.825 14.16-13.791 14.915-16.488.458-1.634-.269-2.636-1.826-2.636-.76 0-1.63.32-2.609.966l-.704 5.61c-1.919 2.506-4.476 5.237-7.592 8.087l2.06-10.775c.428-2.204.57-3.38-.86-3.835l-6.392 1.409-.339 1.2 2.948.47c.205.76-.022 2.411-.47 4.957l-1.435 7.904c-.022.082-.036.17-.052.261-.93-.5-1.517-1.39-2.191-2.739l-5.61-11.219 10.253-10.383 3.496-.339v-2.14H31.585v2.14l2.713.209.261.704L23.575 33.51h-1.304l2.165-11.479.574-.626 2.896-.209v-2.06z" fill="#d4d4d4" style="-inkscape-stroke:none;font-variation-settings:normal"/><path d="M15.695 19.135v.5h12.211v-.5zm15.889 0v.5h10.957v-.5zm2.84 3.191L23.574 33.51h-1.21l-.093.5h1.303l10.984-11.322zm-15.62.098L14.472 45.51l-.68.652-2.79.21v.5l2.79-.21.68-.652 4.408-23.48zM52.038 29.7c-.76 0-1.629.321-2.608.967l-.705 5.61c-1.894 2.475-4.412 5.17-7.474 7.98l-.117.608c3.116-2.85 5.673-5.581 7.591-8.088l.705-5.61c.98-.646 1.848-.967 2.608-.967 1.145 0 1.84.544 1.947 1.479.108-1.238-.613-1.979-1.947-1.979zm-9.703.053-6.393 1.41-.338 1.2.135.021.203-.72 6.393-1.41c.788.25 1.088.731 1.136 1.472.063-1.035-.183-1.669-1.136-1.973zm-13.375 2.576-.166.168 5.61 11.22c.674 1.348 1.26 2.238 2.19 2.738.016-.09.03-.179.053-.26l1.434-7.904c.364-2.075.58-3.546.537-4.434-.035.905-.234 2.21-.537 3.934l-1.434 7.904c-.022.081-.037.17-.053.26-.93-.5-1.516-1.39-2.19-2.739zm-8.86 13.287-.072.395.469.68 2.715.181v-.5l-2.715-.181z" fill="#fff" fill-opacity=".53"/></g><path d="m56.691 7.788-1.424 1.424.809.808L57.5 8.597l1.423 1.423.809-.808L57.5 6.98z" color="#000" fill="#d4d4d4" style="text-indent:0;text-transform:none"/></svg>