<?xml version="1.0" encoding="UTF-8"?>
<!-- Created with Inkscape (http://www.inkscape.org/) -->
<svg width="64" height="64" version="1.1" xmlns="http://www.w3.org/2000/svg" xmlns:cc="http://creativecommons.org/ns#" xmlns:dc="http://purl.org/dc/elements/1.1/" xmlns:rdf="http://www.w3.org/1999/02/22-rdf-syntax-ns#" xmlns:xlink="http://www.w3.org/1999/xlink">
	<defs>
		<radialGradient id="radialGradient262778" cx="35.574" cy="1.019" r="32" gradientTransform="matrix(0,1.1252,-5.1753,0,37.271,-39.029)" gradientUnits="userSpaceOnUse" xlink:href="#linearGradient264665"/>
		<linearGradient id="linearGradient264665">
			<stop stop-color="#eec5ff" stop-opacity=".070588" offset="0"/>
			<stop stop-color="#fff" stop-opacity=".001" offset="1"/>
		</linearGradient>
		<radialGradient id="radialGradient262726" cx="35.574" cy="1.036" r="32" gradientTransform="matrix(0,1.1252,-5.1753,0,37.363,-39.029)" gradientUnits="userSpaceOnUse" xlink:href="#linearGradient264665"/>
		<radialGradient id="radialGradient262700" cx="35.574" cy="1.055" r="32" gradientTransform="matrix(0,1.1252,-5.1753,0,37.458,-39.029)" gradientUnits="userSpaceOnUse" xlink:href="#linearGradient264665"/>
		<radialGradient id="radialGradient262674" cx="35.574" cy="1.071" r="32" gradientTransform="matrix(0,1.1252,-5.1753,0,37.544,-39.029)" gradientUnits="userSpaceOnUse" xlink:href="#linearGradient264665"/>
		<radialGradient id="radialGradient262648" cx="35.574" cy="1.091" r="32" gradientTransform="matrix(0,1.1252,-5.1753,0,37.648,-39.029)" gradientUnits="userSpaceOnUse" xlink:href="#linearGradient264665"/>
		<radialGradient id="radialGradient262622" cx="35.574" cy="1.113" r="32" gradientTransform="matrix(0,1.1252,-5.1753,0,37.758,-39.029)" gradientUnits="userSpaceOnUse" xlink:href="#linearGradient264665"/>
		<radialGradient id="radialGradient262596" cx="35.574" cy="1.135" r="32" gradientTransform="matrix(0,1.1252,-5.1753,0,37.875,-39.029)" gradientUnits="userSpaceOnUse" xlink:href="#linearGradient264665"/>
		<radialGradient id="radialGradient262570" cx="35.574" cy="1.159" r="32" gradientTransform="matrix(0,1.1252,-5.1753,0,38,-39.029)" gradientUnits="userSpaceOnUse" xlink:href="#linearGradient264665"/>
		<radialGradient id="radialGradient262544" cx="35.574" cy="1.18" r="32" gradientTransform="matrix(0,1.1252,-5.1753,0,38.107,-39.029)" gradientUnits="userSpaceOnUse" xlink:href="#linearGradient264665"/>
		<radialGradient id="radialGradient262518" cx="35.574" cy="1.208" r="32" gradientTransform="matrix(0,1.1252,-5.1753,0,38.252,-39.029)" gradientUnits="userSpaceOnUse" xlink:href="#linearGradient264665"/>
		<radialGradient id="radialGradient262492" cx="35.574" cy="1.239" r="32" gradientTransform="matrix(0,1.1252,-5.1753,0,38.411,-39.029)" gradientUnits="userSpaceOnUse" xlink:href="#linearGradient264665"/>
		<radialGradient id="radialGradient262466" cx="35.574" cy="1.273" r="32" gradientTransform="matrix(0,1.1252,-5.1753,0,38.587,-39.029)" gradientUnits="userSpaceOnUse" xlink:href="#linearGradient264665"/>
		<radialGradient id="radialGradient262440" cx="35.574" cy="1.304" r="32" gradientTransform="matrix(0,1.1252,-5.1753,0,38.75,-39.029)" gradientUnits="userSpaceOnUse" xlink:href="#linearGradient264665"/>
		<radialGradient id="radialGradient262414" cx="35.574" cy="1.346" r="32" gradientTransform="matrix(0,1.1252,-5.1753,0,38.966,-39.029)" gradientUnits="userSpaceOnUse" xlink:href="#linearGradient264665"/>
		<radialGradient id="radialGradient262388" cx="35.574" cy="1.393" r="32" gradientTransform="matrix(0,1.1252,-5.1753,0,39.208,-39.029)" gradientUnits="userSpaceOnUse" xlink:href="#linearGradient264665"/>
		<radialGradient id="radialGradient262362" cx="35.574" cy="1.439" r="32" gradientTransform="matrix(0,1.1252,-5.1753,0,39.446,-39.029)" gradientUnits="userSpaceOnUse" xlink:href="#linearGradient264665"/>
		<radialGradient id="radialGradient262336" cx="36.463" cy="1.498" r="32" gradientTransform="matrix(0 .02541 -1.2755 0 33.91 1.073)" gradientUnits="userSpaceOnUse">
			<stop stop-color="#c5e6ff" stop-opacity=".77146" offset="0"/>
			<stop stop-color="#1f94ff" stop-opacity="0" offset="1"/>
		</radialGradient>
		<linearGradient id="linearGradient243124" x1="66" x2="66" y1="3" gradientUnits="userSpaceOnUse">
			<stop stop-color="#291259" stop-opacity=".58637" offset="0"/>
			<stop stop-color="#03143e" offset="1"/>
		</linearGradient>
		<radialGradient id="c-3" cx="35.574" cy="1.019" r="32" gradientTransform="matrix(0,1.1252,-5.1753,0,37.271,-39.029)" gradientUnits="userSpaceOnUse" xlink:href="#a-6"/>
		<linearGradient id="a-6">
			<stop stop-color="#ffffff" stop-opacity=".07" offset="0"/>
			<stop stop-color="#fff" stop-opacity=".001" offset="1"/>
		</linearGradient>
		<radialGradient id="d-7" cx="35.574" cy="1.036" r="32" gradientTransform="matrix(0,1.1252,-5.1753,0,37.363,-39.029)" gradientUnits="userSpaceOnUse" xlink:href="#a-6"/>
		<radialGradient id="e-5" cx="35.574" cy="1.055" r="32" gradientTransform="matrix(0,1.1252,-5.1753,0,37.458,-39.029)" gradientUnits="userSpaceOnUse" xlink:href="#a-6"/>
		<radialGradient id="f-3" cx="35.574" cy="1.071" r="32" gradientTransform="matrix(0,1.1252,-5.1753,0,37.544,-39.029)" gradientUnits="userSpaceOnUse" xlink:href="#a-6"/>
		<radialGradient id="g-5" cx="35.574" cy="1.091" r="32" gradientTransform="matrix(0,1.1252,-5.1753,0,37.648,-39.029)" gradientUnits="userSpaceOnUse" xlink:href="#a-6"/>
		<radialGradient id="h-6" cx="35.574" cy="1.113" r="32" gradientTransform="matrix(0,1.1252,-5.1753,0,37.758,-39.029)" gradientUnits="userSpaceOnUse" xlink:href="#a-6"/>
		<radialGradient id="i-2" cx="35.574" cy="1.135" r="32" gradientTransform="matrix(0,1.1252,-5.1753,0,37.875,-39.029)" gradientUnits="userSpaceOnUse" xlink:href="#a-6"/>
		<radialGradient id="j-9" cx="35.574" cy="1.159" r="32" gradientTransform="matrix(0,1.1252,-5.1753,0,38,-39.029)" gradientUnits="userSpaceOnUse" xlink:href="#a-6"/>
		<radialGradient id="k-1" cx="35.574" cy="1.18" r="32" gradientTransform="matrix(0,1.1252,-5.1753,0,38.107,-39.029)" gradientUnits="userSpaceOnUse" xlink:href="#a-6"/>
		<radialGradient id="l-2" cx="35.574" cy="1.208" r="32" gradientTransform="matrix(0,1.1252,-5.1753,0,38.252,-39.029)" gradientUnits="userSpaceOnUse" xlink:href="#a-6"/>
		<radialGradient id="m-7" cx="35.574" cy="1.239" r="32" gradientTransform="matrix(0,1.1252,-5.1753,0,38.411,-39.029)" gradientUnits="userSpaceOnUse" xlink:href="#a-6"/>
		<radialGradient id="n-0" cx="35.574" cy="1.273" r="32" gradientTransform="matrix(0,1.1252,-5.1753,0,38.587,-39.029)" gradientUnits="userSpaceOnUse" xlink:href="#a-6"/>
		<radialGradient id="o-9" cx="35.574" cy="1.304" r="32" gradientTransform="matrix(0,1.1252,-5.1753,0,38.75,-39.029)" gradientUnits="userSpaceOnUse" xlink:href="#a-6"/>
		<radialGradient id="p-3" cx="35.574" cy="1.346" r="32" gradientTransform="matrix(0,1.1252,-5.1753,0,38.966,-39.029)" gradientUnits="userSpaceOnUse" xlink:href="#a-6"/>
		<radialGradient id="q-6" cx="35.574" cy="1.393" r="32" gradientTransform="matrix(0,1.1252,-5.1753,0,39.208,-39.029)" gradientUnits="userSpaceOnUse" xlink:href="#a-6"/>
		<radialGradient id="r-0" cx="35.574" cy="1.439" r="32" gradientTransform="matrix(0,1.1252,-5.1753,0,39.446,-39.029)" gradientUnits="userSpaceOnUse" xlink:href="#a-6"/>
		<radialGradient id="s-6" cx="36.463" cy="1.498" r="32" gradientTransform="matrix(0 .02541 -1.2755 0 33.91 1.073)" gradientUnits="userSpaceOnUse">
			<stop stop-color="#fff" stop-opacity=".667" offset="0"/>
			<stop stop-color="#fff" stop-opacity=".001" offset="1"/>
		</radialGradient>
		<radialGradient id="b-3" cx="37.338" cy="41.714" r="32" gradientTransform="matrix(1.0524 0 0 1.0195 -1.933 -.907)" gradientUnits="userSpaceOnUse">
			<stop stop-color="#9d9fc8" offset="0"/>
			<stop stop-color="#9ba9ca" offset="1"/>
		</radialGradient>
	</defs>
	<metadata>
		<rdf:RDF>
			<cc:Work rdf:about="">
				<dc:format>image/svg+xml</dc:format>
				<dc:type rdf:resource="http://purl.org/dc/dcmitype/StillImage"/>
			</cc:Work>
		</rdf:RDF>
	</metadata>
	<rect width="64" height="64" rx="1" ry="1" fill="url(#b-3)" paint-order="fill markers stroke"/>
	<g id="c">
		<g id="active-center" transform="matrix(.5625 0 0 .5625 1.7324 4)">
			<rect id="v" width="16" height="16" fill="#ffffff" fill-opacity=".44581" opacity=".001"/>
			<path id="s" d="m5.4688 4.0312-1.4375 1.4375 2.5312 2.5312-2.5312 2.5312 1.4375 1.4375 2.5312-2.5312 2.5312 2.5312 1.4375-1.4375-2.5312-2.5312 2.5312-2.5312-1.4375-1.4375-2.5312 2.5312z" color="#000000" fill="#00122b" fill-opacity=".6586" style="text-indent:0;text-transform:none"/>
		</g>
		<g id="x" transform="matrix(.5625 0 0 .5625 19.732 4)">
			<rect id="t" width="16" height="16" fill="#ffffff" fill-opacity=".44581" opacity=".001"/>
			<path id="j" d="m5 5v6h6v-6zm2 2h2v2h-2z" color="#000000" fill="#00122b" fill-opacity=".6586" style="text-indent:0;text-transform:none"/>
		</g>
		<g id="w" transform="matrix(.5625 0 0 .5625 10.732 4)">
			<rect id="d" width="16" height="16" fill="#ffffff" fill-opacity=".44581" opacity=".001"/>
			<path id="i" d="m4 6.9671v2.0329h8v-2.0329z" color="#000000" fill="#00122b" fill-opacity=".6586" style="text-indent:0;text-transform:none"/>
		</g>
		<g id="h" transform="matrix(.5625 0 0 .5625 53 4)">
			<rect id="u" width="16" height="16" fill="#ffffff" fill-opacity=".44581" opacity=".001"/>
			<path id="k" d="M 6.5625,6.7344 4.0313,9.2656 5.4688,10.7031 8,8.1719 10.5312,10.7031 11.9687,9.2656 8,5.2969 Z" color="#000000" fill="#9ba8ca" style="text-indent:0;text-transform:none"/>
		</g>
	</g>
	<g transform="translate(0 .0015035)">
		<path d="m1 0c-0.554 0-1 0.446-1 1v62-0.224 0.224-61h1.752c19.15 2e-3 39.445 0 60.213 0h2.035v61-0.334 0.334-62a0.998 0.998 0 0 0-1-1z" fill="url(#c-3)"/>
		<path d="m1 0a0.998 0.998 0 0 0-1 1.006v61.98-0.197c0-0.277 4e-3 -0.184 0.01 0.246 0.012 0.016 0.03-0.297 0.052-0.897v-60c0.072-9e-3 0.133-0.013 0.185-0.013 0.29-0.016 0.357-0.032 0.774-0.044 0.246-0.011 0.496-0.019 0.747-0.019 19.183 2e-3 39.392 0 60.2 0 0.346 0 0.689 0.012 1.023 0.03 0.268 0.01 0.389 0.02 0.52 0.033 0.106 0 0.22 0.01 0.427 0.028v59.744c0.027 0.754 0.05 1.148 0.059 1.123l3e-3 -0.334v0.286-61.762c0-0.143 0-0.22-2e-3 -0.224a0.996 0.996 0 0 0-1.012-0.986h-61.986" fill="url(#d-7)"/>
		<path d="m1 0a0.998 0.998 0 0 0-1 1.006v61.966-0.169c0-0.245 8e-3 -0.145 0.021 0.266 0.022 0.034 0.06-0.247 0.104-0.807v-59.988a0.744 0.744 0 0 1 0.173-0.025c0.27-0.031 0.341-0.064 0.743-0.088 0.242-0.022 0.492-0.037 0.742-0.037 19.217 2e-3 39.34 0 60.187 0 0.347 0 0.69 0.024 1.013 0.06 0.256 0.02 0.372 0.042 0.494 0.065 0.1 0 0.206 0.02 0.398 0.057v59.731c0.055 0.703 0.102 1.052 0.119 1.003 4e-3 -0.154 6e-3 -0.265 6e-3 -0.333v0.237-61.748c0-0.139 0-0.215-3e-3 -0.224a0.994 0.994 0 0 0-0.807-0.952 1.025 1.025 0 0 0-0.217-0.02h-61.973" fill="url(#e-5)"/>
		<path d="m1 0a0.998 0.998 0 0 0-1 1.005v61.953-0.14c0-0.213 0.012-0.107 0.031 0.287 0.034 0.05 0.091-0.198 0.156-0.718v-59.974a0.45 0.45 0 0 1 0.16-0.037c0.252-0.048 0.327-0.097 0.715-0.132 0.238-0.034 0.487-0.056 0.737-0.056 19.25 2e-3 39.286 0 60.173 0 0.348 0 0.688 0.036 1.001 0.09 0.244 0.029 0.356 0.062 0.47 0.098 0.091 0 0.19 0.03 0.37 0.085v59.718c0.082 0.653 0.151 0.957 0.176 0.884 7e-3 -0.152 0.01-0.262 0.01-0.333v0.188-61.734c0-0.135 0-0.21-4e-3 -0.224a0.992 0.992 0 0 0-0.819-0.94 1.041 1.041 0 0 0-0.217-0.018h-61.96" fill="url(#f-3)"/>
		<path d="m1 0a0.998 0.998 0 0 0-1 1.005v61.939-0.113c0-0.18 0.015-0.068 0.042 0.308 0.045 0.067 0.121-0.149 0.208-0.629v-59.96a0.312 0.312 0 0 1 0.148-0.05c0.232-0.063 0.311-0.128 0.684-0.176 0.234-0.044 0.483-0.074 0.732-0.074 19.284 2e-3 39.234 0 60.16 0 0.35 0 0.689 0.048 0.991 0.12 0.232 0.039 0.34 0.083 0.444 0.13 0.085 0 0.176 0.04 0.341 0.114v59.704c0.11 0.603 0.203 0.862 0.236 0.764 0.01-0.148 0.014-0.259 0.014-0.333v0.14-61.721c0-0.13-2e-3 -0.206-6e-3 -0.224a0.991 0.991 0 0 0-0.83-0.927 1.066 1.066 0 0 0-0.22-0.017h-61.944" fill="url(#g-5)"/>
		<path d="m1 0a0.998 0.998 0 0 0-1 1.004v61.926-0.084c0-0.148 0.02-0.029 0.052 0.328 0.056 0.084 0.152-0.099 0.26-0.539v-59.949c0.053-0.04 0.097-0.061 0.136-0.061 0.212-0.08 0.297-0.16 0.655-0.22 0.23-0.056 0.477-0.093 0.727-0.093 19.317 2e-3 39.18 0 60.147 0 0.35 0 0.688 0.06 0.98 0.151 0.22 0.047 0.322 0.102 0.418 0.162 0.078 0 0.162 0.049 0.313 0.142v59.69c0.137 0.553 0.253 0.767 0.295 0.645a4.73 4.73 0 0 0 0.017-0.332v0.09-61.705c0-0.126-2e-3 -0.202-7e-3 -0.224a0.99 0.99 0 0 0-0.843-0.914 1.099 1.099 0 0 0-0.218-0.017h-61.932" fill="url(#h-6)"/>
		<path d="m1 0a0.998 0.998 0 0 0-1 1.004v61.912-0.056c0-0.117 0.023 0.01 0.063 0.349 0.067 0.1 0.182-0.05 0.312-0.45v-59.935c0.048-0.049 0.088-0.074 0.123-0.074 0.193-0.095 0.282-0.192 0.626-0.264 0.225-0.067 0.472-0.11 0.721-0.11h60.133c0.352 0 0.688 0.071 0.97 0.18a0.944 0.944 0 0 1 0.393 0.194c0.07 0 0.147 0.059 0.284 0.17v59.68c0.164 0.502 0.304 0.671 0.354 0.524 0.014-0.14 0.02-0.25 0.02-0.331v0.042-61.695c0-0.121-2e-3 -0.197-9e-3 -0.224a0.99 0.99 0 0 0-0.854-0.902 1.142 1.142 0 0 0-0.218-0.014h-61.918" fill="url(#i-2)"/>
		<path d="m1 0a0.998 0.998 0 0 0-1 1.004v61.898-0.029c0-0.084 0.027 0.049 0.073 0.37 0.079 0.117 0.212 0 0.365-0.36v-59.923c0.043-0.057 0.079-0.086 0.11-0.086 0.174-0.112 0.267-0.225 0.596-0.309a2.19 2.19 0 0 1 0.717-0.129c19.385 2e-3 39.075 0 60.12 0 0.353 0 0.687 0.084 0.958 0.211 0.196 0.066 0.29 0.144 0.368 0.227 0.063 0 0.132 0.068 0.256 0.199v59.665c0.192 0.452 0.354 0.576 0.413 0.404a3.11 3.11 0 0 0 0.024-0.33v-61.687c0-0.117-4e-3 -0.193-0.01-0.224a0.99 0.99 0 0 0-0.868-0.89 1.198 1.198 0 0 0-0.217-0.011h-61.905" fill="url(#j-9)"/>
		<path d="m1 0a0.998 0.998 0 0 0-1 1.003v61.885c0-0.052 0.03 0.087 0.084 0.39 0.09 0.135 0.242 0.05 0.416-0.27v-59.911c0.038-0.063 0.07-0.097 0.099-0.097 0.154-0.127 0.251-0.257 0.566-0.352 0.217-0.089 0.463-0.148 0.711-0.148 19.418 2e-3 39.022 0 60.107 0 0.355 0 0.687 0.096 0.947 0.242a0.723 0.723 0 0 1 0.343 0.258c0.056 0 0.118 0.079 0.227 0.227v59.651c0.22 0.402 0.406 0.482 0.473 0.285 0.018-0.132 0.027-0.243 0.027-0.33v-61.721c0-0.113-4e-3 -0.188-0.012-0.224a0.99 0.99 0 0 0-0.879-0.877 1.273 1.273 0 0 0-0.218-0.011h-61.89" fill="url(#k-1)"/>
		<path d="m1 0a0.998 0.998 0 0 0-1 1.003v61.899c0-0.02 0.035 0.126 0.094 0.41 0.101 0.152 0.273 0.1 0.468-0.18v-59.897c0.034-0.073 0.062-0.11 0.087-0.11 0.135-0.143 0.236-0.29 0.536-0.397 0.213-0.1 0.459-0.166 0.707-0.166 19.452 2e-3 38.969 0 60.093 0 0.356 0 0.687 0.108 0.936 0.272a0.678 0.678 0 0 1 0.317 0.29c0.05 0 0.103 0.089 0.2 0.256v59.64c0.246 0.352 0.455 0.386 0.531 0.165 0.02-0.128 0.03-0.239 0.03-0.33v-61.755c0-0.108-4e-3 -0.184-0.013-0.224a0.99 0.99 0 0 0-0.891-0.864 1.376 1.376 0 0 0-0.218-0.01h-61.877" fill="url(#l-2)"/>
		<path d="m1 0a0.998 0.998 0 0 0-1 1.002v61.913c0 0.013 0.039 0.165 0.105 0.432 0.112 0.168 0.303 0.148 0.52-0.092v-59.882c0.029-0.081 0.053-0.123 0.074-0.123 0.116-0.159 0.222-0.321 0.507-0.44 0.209-0.111 0.454-0.185 0.701-0.185 19.486 2e-3 38.916 0 60.08 0 0.357 0 0.687 0.12 0.925 0.302a0.66 0.66 0 0 1 0.292 0.323c0.043 0 0.089 0.098 0.171 0.284v59.626c0.275 0.302 0.507 0.29 0.591 0.046 0.022-0.125 0.034-0.236 0.034-0.33v-61.791c0-0.104-5e-3 -0.18-0.016-0.224a0.99 0.99 0 0 0-0.903-0.852 1.514 1.514 0 0 0-0.218-8e-3h-61.863" fill="url(#m-7)"/>
		<path d="m1 0a0.998 0.998 0 0 0-1 1.002v61.928c0 0.045 0.042 0.203 0.115 0.453 0.123 0.184 0.333 0.197 0.572-3e-3v-59.87c0.024-0.089 0.045-0.135 0.062-0.135 0.097-0.174 0.207-0.353 0.478-0.484 0.204-0.122 0.448-0.203 0.696-0.203 19.519 2e-3 38.863 0 60.067 0a1.4 1.4 0 0 1 0.914 0.332c0.15 0.103 0.224 0.225 0.267 0.355 0.035 0 0.073 0.108 0.142 0.313v59.612c0.302 0.251 0.557 0.196 0.65-0.074a1.7 1.7 0 0 0 0.037-0.33v-61.825c0-0.1-6e-3 -0.175-0.017-0.224a0.99 0.99 0 0 0-0.915-0.84 1.712 1.712 0 0 0-0.218-7e-3h-61.85" fill="url(#n-0)"/>
		<path d="m1 0a0.998 0.998 0 0 0-1 1.002v61.942c0 0.077 0.046 0.242 0.126 0.473 0.134 0.201 0.363 0.246 0.624 0.086v-59.856c0.02-0.097 0.035-0.147 0.05-0.147a0.981 0.981 0 0 1 0.447-0.529c0.2-0.133 0.444-0.221 0.691-0.221 19.553 2e-3 38.811 0 60.053 0 0.36 0 0.686 0.144 0.903 0.362a0.688 0.688 0 0 1 0.242 0.388c0.028 0 0.059 0.118 0.114 0.341v59.598c0.33 0.2 0.608 0.1 0.709-0.194 0.026-0.117 0.04-0.228 0.04-0.329v-61.86c0-0.095-6e-3 -0.17-0.018-0.224a0.991 0.991 0 0 0-0.927-0.827 2.015 2.015 0 0 0-0.218-5e-3h-61.836" fill="url(#o-9)"/>
		<path d="m1 0a0.998 0.998 0 0 0-1 1.001v61.956c0 0.11 0.05 0.281 0.136 0.494 0.146 0.218 0.394 0.296 0.677 0.176v-59.843c0.014-0.105 0.026-0.16 0.036-0.16a0.967 0.967 0 0 1 0.419-0.572c0.196-0.144 0.439-0.24 0.686-0.24 19.586 2e-3 38.758 0 60.04 0 0.36 0 0.685 0.156 0.892 0.392a0.73 0.73 0 0 1 0.216 0.42c0.021 0 0.044 0.128 0.086 0.37v59.585c0.356 0.15 0.658 5e-3 0.768-0.314 0.029-0.114 0.044-0.224 0.044-0.328v-61.895c0-0.09-7e-3 -0.166-0.02-0.224a0.992 0.992 0 0 0-0.94-0.814 2.524 2.524 0 0 0-0.217-5e-3h-61.823" fill="url(#p-3)"/>
		<path d="m1 0a0.998 0.998 0 0 0-1 1v61.972c0 0.142 0.054 0.32 0.147 0.515a0.643 0.643 0 0 0 0.728 0.265v-59.83c0.01-0.114 0.018-0.172 0.025-0.172a0.97 0.97 0 0 1 0.389-0.617c0.192-0.155 0.434-0.258 0.68-0.258 19.62 2e-3 38.705 0 60.027 0 0.362 0 0.686 0.168 0.882 0.422a0.794 0.794 0 0 1 0.19 0.453c0.015 0 0.03 0.137 0.057 0.398v59.572c0.385 0.1 0.71-0.09 0.828-0.434 0.03-0.11 0.047-0.22 0.047-0.328v-61.93c0-0.086-7e-3 -0.161-0.021-0.224a0.994 0.994 0 0 0-0.951-0.802 3.563 3.563 0 0 0-0.219-2e-3h-61.809" fill="url(#q-6)"/>
		<path d="m1 0a0.998 0.998 0 0 0-1 1v61.986c0 0.174 0.058 0.358 0.157 0.535a0.802 0.802 0 0 0 0.78 0.355v-59.816c5e-3 -0.122 0.01-0.185 0.013-0.185a0.987 0.987 0 0 1 0.36-0.66c0.187-0.166 0.429-0.277 0.675-0.277 19.653 2e-3 38.652 0 60.013 0 0.363 0 0.685 0.18 0.87 0.452a0.876 0.876 0 0 1 0.166 0.485c7e-3 0 0.015 0.147 0.028 0.427v59.558c0.412 0.05 0.76-0.186 0.887-0.553a1.1 1.1 0 0 0 0.05-0.328v-61.965a0.996 0.996 0 0 0-0.985-1.014 6.67 6.67 0 0 0-0.219 0h-61.795" fill="url(#r-0)"/>
		<path d="m1 0a0.998 0.998 0 0 0-1 1v62a0.997 0.997 0 0 0 1 1v-59.999c0-0.254 0.132-0.514 0.33-0.705a0.99 0.99 0 0 1 0.67-0.295c19.687 2e-3 38.599 0 60 0a1 1 0 0 1 0.86 0.483 0.98 0.98 0 0 1 0.14 0.516v60a0.998 0.998 0 0 0 1-1v-61.999a0.998 0.998 0 0 0-1-1h-62" fill="url(#s-6)"/>
	</g>
	<path d="m32 64v-64h31l1 1v63z" fill="url(#linearGradient243124)"/>
	<g transform="translate(0 .0015035)">
		<path d="m32 4.4963e-4v2c10.018-2.511e-4 19.63 0 29.965 0h2.0352v-1a0.998 0.998 0 0 0 0-0.001953l-0.99805-0.99805h-0.001953z" fill="url(#radialGradient262778)"/>
		<path d="m32 4.4963e-4v2.0625c10.009-2.51e-4 19.61 0 29.969 0 0.346 0 0.68748 0.011297 1.0215 0.029297 0.268 0.01 0.39048 0.020203 0.52148 0.033203 0.106 0 0.21878 0.00934 0.42578 0.027344v59.744c0.027 0.754 0.04959 1.148 0.05859 1.123l0.00391-0.33398v-61.477c0-0.13673-2.05e-4 -0.20296-2e-3 -0.21289l-0.98628-0.98633a0.996 0.996 0 0 0-0.02539-0.0097656z" fill="url(#radialGradient262726)"/>
		<path d="m32 4.4963e-4v2.123c9.9994-2.51e-4 19.59 0 29.971 0 0.347 0 0.68872 0.024547 1.0117 0.060547 0.256 0.02 0.37214 0.041453 0.49414 0.064453 0.1 0 0.20644 0.019641 0.39844 0.056641v59.732c0.055 0.703 0.10214 1.051 0.11914 1.002 4e-3 -0.154 0.0059-0.26403 0.0059-0.33203v-61.512c0-0.1245-0.0018-0.18063-0.0039-0.20117l-0.99219-0.99219a1.025 1.025 0 0 0-0.03125-0.0019531z" fill="url(#radialGradient262700)"/>
		<path d="m32 0.0024028v2.1855c9.9896-2.509e-4 19.569 0 29.973 0 0.348 0 0.687 0.035844 1 0.089844 0.244 0.029 0.3567 0.061656 0.4707 0.097656 0.091 0 0.18914 0.030937 0.36914 0.085937v59.717c0.082 0.653 0.15078 0.95777 0.17578 0.88477 7e-3 -0.152 0.0098-0.26103 0.0098-0.33203v-61.547c0-0.11505-0.0014-0.16413-0.0039-0.19141l-0.98637-0.98633a1.041 1.041 0 0 0-0.04883-0.0039062z" fill="url(#radialGradient262674)"/>
		<path d="m32 4.4963e-4v2.25c9.9801-2.508e-4 19.548 0 29.975 0 0.35 0 0.68824 0.047141 0.99024 0.11914 0.232 0.039 0.33936 0.083859 0.44336 0.13086 0.085 0 0.1768 0.039281 0.3418 0.11328v59.705c0.11 0.603 0.20333 0.86167 0.23633 0.76367 0.01-0.148 0.013672-0.25998 0.013672-0.33398v-61.58c0-0.1006-0.0015-0.13976-0.0039-0.17383l-0.99024-0.99023a1.066 1.066 0 0 0-0.0625-0.0039062z" fill="url(#radialGradient262648)"/>
		<path d="m32 4.4963e-4v2.3125c9.9704-2.508e-4 19.527 0 29.977 0 0.35 0 0.68847 0.059391 0.98047 0.15039 0.22 0.047 0.32197 0.10211 0.41797 0.16211 0.078 0 0.1615 0.047625 0.3125 0.14062v59.691c0.137 0.553 0.25292 0.76653 0.29492 0.64453a4.73 4.73 0 0 0 0.017578-0.33203v-61.615c0-0.090943-0.0034-0.12477-0.0059-0.16211l-0.98629-0.98633a1.099 1.099 0 0 0-0.07617-0.0058594z" fill="url(#radialGradient262622)"/>
		<path d="m32 4.4963e-4v2.375h29.979c0.352 0 0.68675 0.070688 0.96875 0.17969a0.944 0.944 0 0 1 0.39453 0.19531c0.07 0 0.1462 0.058922 0.2832 0.16992v59.68c0.164 0.502 0.30352 0.67044 0.35352 0.52344 0.014-0.14 0.01953-0.24908 0.01953-0.33008v-61.654c0-0.080679-0.0032-0.10896-0.0059-0.14844l-0.98438-0.98438a1.142 1.142 0 0 0-0.08984-0.0058594z" fill="url(#radialGradient262596)"/>
		<path d="m32 4.4963e-4v2.4355c9.9511-2.506e-4 19.486 0 29.98 0 0.353 0 0.68798 0.083938 0.95898 0.21094 0.196 0.066 0.28919 0.14356 0.36719 0.22656 0.063 0 0.13186 0.068219 0.25586 0.19922v59.666c0.192 0.452 0.35506 0.57434 0.41406 0.40234a3.11 3.11 0 0 0 0.023438-0.32812v-61.688c0-0.069184-0.0035-0.093127-0.0059-0.13281l-0.98824-0.98828a1.198 1.198 0 0 0-0.10156-0.0039062z" fill="url(#radialGradient262570)"/>
		<path d="m32 4.4963e-4v2.5c9.9415-2.506e-4 19.465 0 29.982 0 0.355 0 0.68726 0.096187 0.94727 0.24219a0.723 0.723 0 0 1 0.34375 0.25781c0.056 0 0.11756 0.078562 0.22656 0.22656v59.65c0.22 0.402 0.40566 0.48216 0.47266 0.28516 0.018-0.132 0.027344-0.24308 0.027344-0.33008v-61.721c0-0.05993-0.0036-0.080737-0.0059-0.11914l-0.98629-0.98633a1.273 1.273 0 0 0-0.11719-0.0058594z" fill="url(#radialGradient262544)"/>
		<path d="m32 0.0024028v2.5605c9.9317-2.505e-4 19.444 0 29.984 0 0.356 0 0.6885 0.10748 0.9375 0.27148a0.678 0.678 0 0 1 0.31641 0.28906c0.05 0 0.10222 0.088859 0.19922 0.25586v59.641c0.246 0.352 0.45525 0.38506 0.53125 0.16406 0.02-0.128 0.0293-0.23712 0.0293-0.32812v-61.756c0-0.052595-0.0038-0.07242-0.0059-0.10938l-0.98238-0.98242a1.376 1.376 0 0 0-0.13281-0.0058594z" fill="url(#radialGradient262518)"/>
		<path d="m32 4.4963e-4v2.625c9.9217-2.504e-4 19.423 0 29.986 0 0.357 0 0.68778 0.11878 0.92578 0.30078a0.66 0.66 0 0 1 0.29102 0.32422c0.043 0 0.08987 0.097203 0.17188 0.2832v59.627c0.275 0.302 0.5078 0.28892 0.5918 0.04492 0.022-0.125 0.0332-0.23608 0.0332-0.33008v-61.791c0-0.042858-0.0041-0.058729-0.0059-0.091797l-0.98628-0.98633a1.514 1.514 0 0 0-0.14453-0.0058594z" fill="url(#radialGradient262492)"/>
		<path d="m32 4.4963e-4v2.6875c9.9128-2.503e-4 19.403 0 29.99 0a1.4 1.4 0 0 1 0.91406 0.33203c0.15 0.103 0.22458 0.22547 0.26758 0.35547 0.035 0 0.07162 0.1075 0.14062 0.3125v59.611c0.302 0.251 0.55739 0.19578 0.65039-0.07422a1.7 1.7 0 0 0 0.037109-0.32812v-61.826c0-0.034774-0.0044-0.049439-0.0059-0.078125l-0.98824-0.98828a1.712 1.712 0 0 0-0.15625-0.0039062z" fill="url(#radialGradient262466)"/>
		<path d="m32 4.4963e-4v2.75c9.9025-2.503e-4 19.382 0 29.99 0 0.36 0 0.6873 0.14333 0.9043 0.36133a0.688 0.688 0 0 1 0.24219 0.38867c0.028 0 0.05828 0.11684 0.11328 0.33984v59.6c0.33 0.2 0.60798 0.09869 0.70898-0.19531 0.026-0.117 0.03906-0.22712 0.03906-0.32812v-61.861c0-0.027526-0.0049-0.04031-0.0059-0.064453l-0.98628-0.98633a2.015 2.015 0 0 0-0.16992-0.0039062z" fill="url(#radialGradient262440)"/>
		<path d="m32-0.0015035v2.8145c9.8932-2.502e-4 19.362 0 29.994 0 0.36 0 0.68558 0.15462 0.89258 0.39062a0.73 0.73 0 0 1 0.21484 0.41992c0.021 0 0.04394 0.12909 0.08594 0.37109v59.584c0.356 0.15 0.65758 0.0045 0.76758-0.31445 0.028998-0.114 0.04492-0.22217 0.04492-0.32617v-61.896c0-0.01894-0.0033-0.029212-0.0039-0.046875l-0.99024-0.99023a2.524 2.524 0 0 0-0.18359-0.0058594z" fill="url(#radialGradient262414)"/>
		<path d="m32 4.4963e-4v2.875c9.8835-2.501e-4 19.341 0 29.996 0 0.362 0 0.68681 0.16788 0.88281 0.42188a0.794 0.794 0 0 1 0.18945 0.45312c0.015 0 0.02964 0.13744 0.05664 0.39844v59.57c0.385 0.1 0.71012-0.08959 0.82812-0.43359 0.03-0.11 0.04687-0.22013 0.04687-0.32812v-61.93c0-0.01274-0.0036-0.02095-0.0039-0.033203l-0.99219-0.99219a3.563 3.563 0 0 0-0.19531-0.0019531z" fill="url(#radialGradient262388)"/>
		<path d="m32 4.4963e-4v2.9375c9.8737-2.5e-4 19.321 0 29.998 0 0.363 0 0.68414 0.17917 0.86914 0.45117a0.876 0.876 0 0 1 0.16602 0.48633c7e-3 0 0.0163 0.14578 0.0293 0.42578v59.559c0.412 0.05 0.75972-0.18573 0.88672-0.55274a1.1 1.1 0 0 0 0.04883-0.32812v-61.965a0.996 0.996 0 0 0-2e-3 -0.019531l-0.9941-0.99414a6.67 6.67 0 0 0-0.20703 0z" fill="url(#radialGradient262362)"/>
		<path d="m32 4.4963e-4v3c9.864-2.5e-4 19.3 0 30 0a1 1 0 0 1 0.85938 0.48438 0.98 0.98 0 0 1 0.14062 0.51562v59.998h0.01563a0.998 0.998 0 0 0 0.98437-0.99805v-62a0.998 0.998 0 0 0 0-0.001953l-0.99805-0.99805h-0.001953z" fill="url(#radialGradient262336)"/>
	</g>
	<g>
		<path d="m15.695 16.135a3.0003 3.0003 0 0 0-3 3l2e-3 2.0605a3.0003 3.0003 0 0 0 2.7324 2.9492l-3.5957 19.156-1.0566 0.07813a3.0003 3.0003 0 0 0-2.7774 2.9922v2.1387a3.0003 3.0003 0 0 0 3 3l12.209 2e-3a3.0003 3.0003 0 0 0 3-3l2e-3 -2.1387a3.0003 3.0003 0 0 0-0.11523-0.60547c0.78189 1.5786 1.5722 3.0195 2.9551 4.1836 1.5142 1.2747 3.5755 1.8459 5.7305 1.873 0.87133 0.01132 1.484 0.08702 4.2656-2e-3a3.0003 3.0003 0 0 0 1.8262-0.69531c4.782-3.9924 8.4224-7.5296 11.021-10.492 2.5991-2.9626 4.1926-5.1113 4.8594-7.4902 0.3833-1.3675 0.39665-3.055-0.5918-4.4629-0.98844-1.4079-2.703-1.9824-4.125-1.9824-1.6021 0-2.9792 0.61792-4.2598 1.4629a3.0003 3.0003 0 0 0-1.3242 2.1309l-0.03516 0.27344c-0.21916-1.4388-1.7278-3.2107-3.1738-3.6719a3.0003 3.0003 0 0 0-1.5567-0.072265l-4.5625 1.0059 3.293-3.334 2.4141-0.23438a3.0003 3.0003 0 0 0 2.709-2.9863v-2.1406a3.0003 3.0003 0 0 0-3-2.998h-10.957a3.0003 3.0003 0 0 0-2.3203 1.3574 3.0003 3.0003 0 0 0-1.3574-1.3574zm2.9687 2.2773 0.03125 0.0039v0.01367a3.0003 3.0003 0 0 0-0.03125-0.01758zm15.863 0.07813 0.05664 0.0059v0.03711a3.0003 3.0003 0 0 0-0.05664-0.04297zm-5.9805 5.584-1.793 1.8477 0.3125-1.6582 1.0547-0.07617a3.0003 3.0003 0 0 0 0.42578-0.11328zm4.2637 8.123a3.0003 3.0003 0 0 0 0.23633 1.5996l-0.60938-1.2207zm0.35742 1.8418a3.0003 3.0003 0 0 0 1.9629 1.2852l0.28516 0.04492c-0.08417 0.58368-0.14924 1.094-0.29102 1.9004l-0.08984 0.50195zm-13.521 0.16406a3.0003 3.0003 0 0 0 0.06055 0.24023 3.0003 3.0003 0 0 0-0.125 0.10352zm4.2266 6.9531 1.4941 3.1426a3.0003 3.0003 0 0 0-1.9023-0.90625zm-3.6641 7.9766a3.0003 3.0003 0 0 0 0.08594 0.04883l-0.08594-0.0059z" color="#000000" fill="#191030" fill-opacity=".055562" stop-color="#000000" style="-inkscape-stroke:none;font-variation-settings:normal"/>
		<g fill="#030036" fill-opacity=".03">
			<path d="m15.696 31.634 3e-4 2.0611 2.739 0.2087 0.4436 0.6261-1e-4 3e-4c-0.0172 0.0914-4.409 23.48-4.409 23.48l-0.6784 0.6524-2.7915 0.2086v2.1392l12.21 2e-4 3e-4 -2.139-2.7136-0.183-0.4696-0.6784 1.8001-9.8356h2.7655l3.9656 8.3485c1.6207 3.3292 2.7578 4.7565 6.2614 4.8007 1.0074 0.0131 1.4127 0.0869 4.1305 0 9.3738-7.8261 14.159-13.792 14.915-16.489 0.4579-1.6336-0.269-2.6355-1.8267-2.6355-0.7598 0-1.6296 0.32-2.6084 0.9659l-0.7045 5.609c-1.9184 2.5073-4.4759 5.2384-7.5919 8.0877l2.061-10.775c0.4277-2.2036 0.5687-3.3792-0.8611-3.8352l-6.3917 1.4091-0.3387 1.1999 2.9476 0.4699c0.205 0.7597-0.022 2.4113-0.4696 4.9569l-1.4349 7.9049c-0.0225 0.0813-0.0368 0.1705-0.0522 0.2609-0.9304-0.5-1.5169-1.3902-2.1914-2.7392l-5.6092-11.219 10.253-10.383 3.496-0.3392-4e-4 -2.1394-10.957 1e-4 5e-4 2.1396 2.7128 0.2084 0.2609 0.7045-10.984 11.323h-1.3044l2.1654-11.479 0.5739-0.6261 2.8959-0.2086-2e-4 -2.0613z" stop-color="#000000" style="-inkscape-stroke:none;font-variation-settings:normal"/>
			<path d="m15.696 28.509 3e-4 2.0611h1e-4c0.0105 8e-4 2.7389 0.2087 2.7389 0.2087l1e-4 1e-4c0.0034 0.0048 0.4435 0.626 0.4435 0.626l-1e-4 2e-4c-0.0129 0.0685-4.409 23.48-4.409 23.48l-2e-4 1e-4c-0.0051 5e-3 -0.6782 0.6523-0.6782 0.6523h-1e-4c-0.0107 8e-4 -2.7914 0.2086-2.7914 0.2086v1e-4 2.1391h1e-4c0.0237 0 12.21 2e-4 12.21 2e-4v-1e-4c0-0.0083 3e-4 -2.1389 3e-4 -2.1389h-1e-4c-0.0104-7e-4 -2.7135-0.183-2.7135-0.183l-1e-4 -2e-4c-0.0036-0.0051-0.4695-0.6782-0.4695-0.6782v-1e-4c0.0035-0.0191 1.8001-9.8355 1.8001-9.8355h2e-4 2.7653v1e-4c0.0077 0.0162 3.9656 8.3484 3.9656 8.3484v2e-4c1.6208 3.329 2.7578 4.7563 6.2614 4.8005h2e-4c1.0073 0.0131 1.4126 0.0869 4.1303 0l1e-4 -1e-4c9.3737-7.826 14.158-13.791 14.914-16.488l1e-4 -2e-4c0.4577-1.6334-0.2692-2.6353-1.8268-2.6353h-1e-4c-0.7598 1e-4 -1.6296 0.32-2.6083 0.9659h-1e-4c-0.0013 0.0109-0.7044 5.609-0.7044 5.609v1e-4c-1.9185 2.5073-4.4759 5.2383-7.5919 8.0876v-1e-4c4e-3 -0.0209 2.061-10.775 2.061-10.775l1e-4 -2e-4c0.4276-2.2034 0.5686-3.379-0.8612-3.835h-1e-4c-0.0123 0.0027-6.3916 1.4091-6.3916 1.4091v2e-4c-0.0026 0.0091-0.3387 1.1997-0.3387 1.1997h1e-4c0.0113 0.0018 2.9475 0.4699 2.9475 0.4699l1e-4 1e-4c0.2048 0.7598-0.0222 2.4114-0.4697 4.9568-0.0028 0.0154-1.4349 7.9049-1.4349 7.9049v2e-4c-0.0226 0.0813-0.0368 0.1704-0.0522 0.2607l-1e-4 -1e-4c-0.9303-0.5-1.5168-1.3901-2.1913-2.7391l-1e-4 -2e-4c-0.0109-0.0217-5.6091-11.218-5.6091-11.218l1e-4 -1e-4c0.0198-0.0201 10.253-10.383 10.253-10.383l2e-4 -1e-4c0.0134-0.0013 3.4958-0.3391 3.4958-0.3391v-1e-4c0-0.0082-4e-4 -2.1393-4e-4 -2.1393h-2e-4c-0.0212 0-10.957 1e-4 -10.957 1e-4v1e-4c0 0.0082 5e-4 2.1395 5e-4 2.1395l2.7128 0.2085 0.2609 0.7044-10.984 11.323h-1.3044l2.1654-11.479 1e-4 -1e-4c0.0043-0.0047 0.5738-0.626 0.5738-0.626h2e-4c0.0111-8e-4 2.8957-0.2086 2.8957-0.2086v-1e-4c0-8e-3 -2e-4 -2.0612-2e-4 -2.0612h-2e-4c-0.0236 0-12.209 1e-4 -12.209 1e-4" stop-color="#000000" style="-inkscape-stroke:none;font-variation-settings:normal"/>
			<path d="m15.696 27.215 3e-4 2.0612h1e-4c0.0149 0.0011 2.7389 0.2087 2.7389 0.2087l1e-4 2e-4c0.0048 0.0067 0.4435 0.6259 0.4435 0.6259l-1e-4 2e-4c-0.0111 0.059-4.409 23.48-4.409 23.48l-2e-4 1e-4c-0.0073 7e-3 -0.6782 0.6523-0.6782 0.6523h-1e-4c-0.0152 0.0011-2.7914 0.2086-2.7914 0.2086v1e-4 2.1391h2e-4c0.0335 0 12.21 2e-4 12.21 2e-4v-2e-4c0-0.0116 3e-4 -2.1388 3e-4 -2.1388h-1e-4c-0.0148-1e-3 -2.7135-0.183-2.7135-0.183l-1e-4 -2e-4c-0.0051-0.0073-0.4695-0.6782-0.4695-0.6782v-2e-4c0.0049-0.0269 1.8001-9.8354 1.8001-9.8354h2e-4 2.7653l1e-4 1e-4c0.0108 0.0229 3.9655 8.3484 3.9655 8.3484l1e-4 2e-4c1.6207 3.329 2.7577 4.7563 6.2613 4.8005h2e-4c1.0073 0.0131 1.4127 0.0869 4.1303 0l2e-4 -1e-4c9.3737-7.8261 14.158-13.791 14.914-16.488l1e-4 -3e-4c0.4577-1.6334-0.2692-2.6352-1.8268-2.6352h-2e-4c-0.7597 1e-4 -1.6295 0.32-2.6082 0.9658l-1e-4 1e-4c-0.0019 0.0154-0.7044 5.609-0.7044 5.609l-1e-4 2e-4c-1.9184 2.5072-4.4759 5.2382-7.5918 8.0875v-2e-4c0.0057-0.0295 2.061-10.775 2.061-10.775l1e-4 -3e-4c0.4276-2.2034 0.5686-3.379-0.8612-3.8349h-1e-4c-0.0175 0.0038-6.3916 1.4091-6.3916 1.4091l-1e-4 3e-4c-0.0036 0.0128-0.3386 1.1995-0.3386 1.1995l2e-4 1e-4c0.016 0.0025 2.9474 0.4699 2.9474 0.4699l1e-4 2e-4c0.2048 0.7597-0.0222 2.4113-0.4697 4.9566v2e-4c-0.0039 0.0216-1.4349 7.9047-1.4349 7.9047l-1e-4 4e-4c-0.0225 0.0812-0.0367 0.1703-0.0521 0.2605l-2e-4 -1e-4c-0.9303-0.4999-1.5168-1.3901-2.1912-2.7391l-1e-4 -1e-4c-0.0154-0.0308-5.6091-11.218-5.6091-11.218l1e-4 -1e-4c0.0281-0.0285 10.253-10.383 10.253-10.383h3e-4c0.019-0.0018 3.4957-0.3391 3.4957-0.3391v-1e-4c0-0.0117-4e-4 -2.1393-4e-4 -2.1393h-2e-4 -10.957v2e-4c0 0.0116 5e-4 2.1395 5e-4 2.1395l2.7128 0.2084 0.2609 0.7045-10.984 11.323h-1.3044l2.1654-11.479 1e-4 -2e-4c0.0062-0.0067 0.5738-0.6259 0.5738-0.6259h2e-4c0.0158-0.0012 2.8957-0.2087 2.8957-0.2087v-1e-4c0-0.0112-2e-4 -2.0611-2e-4 -2.0611h-2e-4 -12.209" stop-color="#000000" style="-inkscape-stroke:none;font-variation-settings:normal"/>
			<path d="m15.696 26.222 3e-4 2.0611h2e-4c0.0182 0.0014 2.7388 0.2088 2.7388 0.2088l2e-4 1e-4c0.0058 0.0083 0.4434 0.626 0.4434 0.626l-1e-4 1e-4c-0.0097 0.0518-4.409 23.48-4.409 23.48l-2e-4 2e-4c-0.0089 0.0086-0.6782 0.6522-0.6782 0.6522h-2e-4c-0.0186 0.0014-2.7913 0.2087-2.7913 0.2087v1e-4 2.139h2e-4c0.041 0 12.21 2e-4 12.21 2e-4v-2e-4c0-0.0142 3e-4 -2.1388 3e-4 -2.1388h-2e-4c-0.018-0.0012-2.7134-0.183-2.7134-0.183l-2e-4 -2e-4c-0.0061-0.0089-0.4694-0.6782-0.4694-0.6782v-2e-4c0.0061-0.033 1.8001-9.8354 1.8001-9.8354h3e-4 2.7652l1e-4 2e-4c0.0133 0.028 3.9655 8.3484 3.9655 8.3484l1e-4 2e-4c1.6207 3.329 2.7578 4.7562 6.2613 4.8005h3e-4c1.0072 0.0131 1.4127 0.0869 4.1302 0l2e-4 -2e-4c9.3737-7.826 14.158-13.791 14.914-16.488l1e-4 -2e-4c0.4577-1.6334-0.2692-2.6352-1.8268-2.6352h-2e-4c-0.7598 0-1.6295 0.32-2.6082 0.9658l-1e-4 1e-4c-0.0023 0.0188-0.7044 5.609-0.7044 5.609l-1e-4 2e-4c-1.9185 2.5072-4.4759 5.2382-7.5918 8.0874v-2e-4c0.0069-0.0362 2.061-10.775 2.061-10.775l1e-4 -4e-4c0.4276-2.2033 0.5685-3.3789-0.8612-3.8349l-1e-4 1e-4c-0.0215 0.0047-6.3916 1.409-6.3916 1.409l-1e-4 4e-4c-0.0044 0.0157-0.3386 1.1995-0.3386 1.1995h2e-4c0.0196 0.0032 2.9474 0.4699 2.9474 0.4699l1e-4 3e-4c0.2048 0.7598-0.0222 2.4114-0.4697 4.9566v2e-4c-0.0048 0.0265-1.4349 7.9047-1.4349 7.9047l-1e-4 4e-4c-0.0225 0.0812-0.0367 0.1703-0.0521 0.2605l-3e-4 -2e-4c-0.9302-0.4999-1.5167-1.3901-2.1911-2.739l-2e-4 -2e-4c-0.0188-0.0377-5.609-11.218-5.609-11.218l2e-4 -2e-4c0.0344-0.0349 10.253-10.383 10.253-10.383h3e-4c0.0233-0.0023 3.4957-0.3391 3.4957-0.3391v-2e-4c0-0.0143-4e-4 -2.1393-4e-4 -2.1393h-2e-4c-0.0368 0-10.957 1e-4 -10.957 1e-4v2e-4c0 0.0142 5e-4 2.1394 5e-4 2.1394l2.7128 0.2085 0.2609 0.7044-10.984 11.323h-1.3044l2.1654-11.479 1e-4 -2e-4c0.0076-0.0082 0.5738-0.6259 0.5738-0.6259l3e-4 -1e-4c0.0192-0.0014 2.8956-0.2086 2.8956-0.2086v-2e-4c0-0.0137-2e-4 -2.0611-2e-4 -2.0611h-3e-4c-0.041 0-12.209 1e-4 -12.209 1e-4" stop-color="#000000" style="-inkscape-stroke:none;font-variation-settings:normal"/>
			<path d="m15.696 25.384 3e-4 2.0611h2e-4c0.0211 0.0016 2.7388 0.2087 2.7388 0.2087l2e-4 2e-4c0.0067 0.0095 0.4434 0.6259 0.4434 0.6259l-1e-4 2e-4c-0.0086 0.0456-4.409 23.48-4.409 23.48l-3e-4 2e-4c-0.0102 0.0099-0.6781 0.6522-0.6781 0.6522h-2e-4c-0.0215 0.0016-2.7913 0.2086-2.7913 0.2086v2e-4 2.139h3e-4c0.0473 0 12.21 2e-4 12.21 2e-4v-2e-4c0-0.0165 3e-4 -2.1388 3e-4 -2.1388h-2e-4c-0.0209-0.0014-2.7134-0.183-2.7134-0.183l-2e-4 -3e-4c-0.0071-0.0102-0.4694-0.6781-0.4694-0.6781v-2e-4c7e-3 -0.0382 1.8001-9.8354 1.8001-9.8354h3e-4 2.7652l1e-4 2e-4c0.0154 0.0323 3.9655 8.3483 3.9655 8.3483l1e-4 3e-4c1.6207 3.329 2.7578 4.7562 6.2613 4.8004h3e-4c1.0072 0.0131 1.4127 0.0869 4.1302 0l2e-4 -2e-4c9.3737-7.826 14.158-13.791 14.914-16.488l1e-4 -3e-4c0.4577-1.6334-0.2692-2.6352-1.8268-2.6352h-2e-4c-0.7598 1e-4 -1.6296 0.3201-2.6082 0.9659l-1e-4 1e-4c-0.0027 0.0217-0.7044 5.6089-0.7044 5.6089l-1e-4 3e-4c-1.9185 2.5072-4.4759 5.2382-7.5918 8.0874v-3e-4c8e-3 -0.0417 2.061-10.775 2.061-10.775l1e-4 -4e-4c0.4276-2.2033 0.5685-3.3789-0.8612-3.8348h-1e-4c-0.0248 0.0055-6.3916 1.4091-6.3916 1.4091l-1e-4 4e-4c-0.0051 0.0182-0.3386 1.1995-0.3386 1.1995h2e-4c0.0227 0.0036 2.9474 0.4699 2.9474 0.4699l1e-4 3e-4c0.2048 0.7598-0.0222 2.4114-0.4697 4.9566v1e-4c-0.0056 0.0307-1.4349 7.9048-1.4349 7.9048l-1e-4 4e-4c-0.0225 0.0812-0.0367 0.1702-0.0521 0.2605l-3e-4 -2e-4c-0.9302-0.5-1.5167-1.3901-2.1911-2.739l-2e-4 -3e-4c-0.0217-0.0435-5.609-11.218-5.609-11.218l2e-4 -2e-4c0.0397-0.0402 10.253-10.383 10.253-10.383l4e-4 -1e-4c0.0268-0.0026 3.4956-0.3391 3.4956-0.3391v-2e-4c0-0.0164-4e-4 -2.1392-4e-4 -2.1392h-3e-4c-0.0424 0-10.957 1e-4 -10.957 1e-4v2e-4c0 0.0164 5e-4 2.1394 5e-4 2.1394l2.7128 0.2085 0.2609 0.7044-10.984 11.323h-1.3044l2.1654-11.479 2e-4 -2e-4c0.0087-0.0095 0.5737-0.6259 0.5737-0.6259h3e-4c0.0223-0.0016 2.8956-0.2086 2.8956-0.2086v-2e-4c0-0.0159-2e-4 -2.0611-2e-4 -2.0611h-3e-4c-0.0473 0-12.209 1e-4 -12.209 1e-4" stop-color="#000000" style="-inkscape-stroke:none;font-variation-settings:normal"/>
			<path d="m15.696 24.647 3e-4 2.0611h2e-4c0.0236 0.0018 2.7388 0.2087 2.7388 0.2087l2e-4 3e-4c0.0075 0.0105 0.4434 0.6258 0.4434 0.6258l-1e-4 1e-4c-0.0075 0.0403-4.409 23.48-4.409 23.48l-3e-4 2e-4c-0.0115 0.0111-0.6781 0.6522-0.6781 0.6522h-2e-4c-0.024 0.0018-2.7913 0.2086-2.7913 0.2086v2e-4 2.139h3e-4c0.0529 0 12.21 2e-4 12.21 2e-4v-3e-4c0-0.0184 3e-4 -2.1387 3e-4 -2.1387h-2e-4c-0.0234-0.0016-2.7134-0.183-2.7134-0.183l-2e-4 -3e-4c-8e-3 -0.0115-0.4694-0.6781-0.4694-0.6781v-3e-4c0.0078-0.0426 1.8001-9.8353 1.8001-9.8353h3e-4 2.7652l1e-4 2e-4c0.0172 0.0362 3.9655 8.3483 3.9655 8.3483l1e-4 4e-4c1.6207 3.3289 2.7578 4.7561 6.2613 4.8003h4e-4c1.0071 0.0131 1.4126 0.0869 4.1301 0l3e-4 -2e-4c9.3736-7.826 14.158-13.791 14.914-16.488l1e-4 -4e-4c0.4577-1.6333-0.2693-2.6351-1.8268-2.6351h-3e-4c-0.7597 1e-4 -1.6295 0.3201-2.6081 0.9658l-1e-4 2e-4c-3e-3 0.0243-0.7044 5.6089-0.7044 5.6089l-2e-4 3e-4c-1.9184 2.5072-4.4758 5.2382-7.5917 8.0874v-3e-4c9e-3 -0.0467 2.061-10.775 2.061-10.775l1e-4 -5e-4c0.4276-2.2032 0.5685-3.3788-0.8612-3.8347h-2e-4c-0.0276 0.0061-6.3915 1.4091-6.3915 1.4091l-1e-4 4e-4c-0.0058 0.0204-0.3386 1.1994-0.3386 1.1994l3e-4 1e-4c0.0253 4e-3 2.9473 0.4699 2.9473 0.4699l1e-4 3e-4c0.2048 0.7598-0.0222 2.4114-0.4697 4.9565v2e-4c-0.0062 0.0343-1.4349 7.9047-1.4349 7.9047l-1e-4 6e-4c-0.0225 0.0812-0.0367 0.1701-0.0521 0.2603l-3e-4 -2e-4c-0.9302-0.4999-1.5167-1.3901-2.1911-2.739l-2e-4 -2e-4c-0.0243-0.0487-5.609-11.218-5.609-11.218l2e-4 -2e-4c0.0445-0.045 10.253-10.383 10.253-10.383h4e-4c0.0301-0.0029 3.4956-0.3391 3.4956-0.3391v-2e-4c0-0.0184-4e-4 -2.1392-4e-4 -2.1392h-3e-4c-0.0475 0-10.957 1e-4 -10.957 1e-4v2e-4c0 0.0184 5e-4 2.1394 5e-4 2.1394l2.7128 0.2084 0.2609 0.7045-10.984 11.323h-1.3044l2.1654-11.479 2e-4 -2e-4c0.0097-0.0106 0.5737-0.6259 0.5737-0.6259h3e-4c0.0249-0.0018 2.8956-0.2086 2.8956-0.2086v-3e-4c0-0.0177-2e-4 -2.061-2e-4 -2.061h-3e-4c-0.053 0-12.209 1e-4 -12.209 1e-4" stop-color="#000000" style="-inkscape-stroke:none;font-variation-settings:normal"/>
			<path d="m15.696 23.98 3e-4 2.0611h3e-4c0.0258 2e-3 2.7387 0.2088 2.7387 0.2088l2e-4 2e-4c0.0083 0.0116 0.4434 0.6259 0.4434 0.6259l-1e-4 1e-4c-0.0066 0.0354-4.409 23.48-4.409 23.48l-3e-4 3e-4c-0.0126 0.0121-0.6781 0.6521-0.6781 0.6521h-3e-4c-0.0263 2e-3 -2.7912 0.2087-2.7912 0.2087v2e-4 2.1389h3e-4c0.058 0 12.21 2e-4 12.21 2e-4v-2e-4c0-0.0202 3e-4 -2.1388 3e-4 -2.1388h-3e-4c-0.0255-0.0017-2.7133-0.183-2.7133-0.183l-2e-4 -3e-4c-0.0087-0.0126-0.4694-0.6781-0.4694-0.6781v-2e-4c0.0086-0.0467 1.8001-9.8354 1.8001-9.8354h3e-4 2.7652l1e-4 3e-4c0.0188 0.0396 3.9655 8.3483 3.9655 8.3483l1e-4 4e-4c1.6207 3.3288 2.7578 4.756 6.2613 4.8003h4e-4c1.0071 0.0131 1.4127 0.0869 4.1301 0l3e-4 -3e-4c9.3736-7.826 14.158-13.791 14.914-16.488l1e-4 -4e-4c0.4577-1.6333-0.2693-2.635-1.8268-2.635h-3e-4c-0.7597 1e-4 -1.6295 0.3201-2.6081 0.9658l-1e-4 2e-4c-0.0033 0.0266-0.7044 5.6089-0.7044 5.6089l-2e-4 3e-4c-1.9184 2.5072-4.4758 5.2381-7.5917 8.0873v-3e-4c0.0098-0.0511 2.061-10.775 2.061-10.775l1e-4 -5e-4c0.4276-2.2033 0.5685-3.3788-0.8612-3.8348l-2e-4 1e-4c-0.0303 0.0067-6.3915 1.409-6.3915 1.409l-1e-4 6e-4c-0.0063 0.0222-0.3386 1.1993-0.3386 1.1993l3e-4 1e-4c0.0278 0.0044 2.9473 0.4698 2.9473 0.4698l1e-4 4e-4c0.2048 0.7598-0.0222 2.4114-0.4697 4.9565v2e-4c-0.0068 0.0375-1.4349 7.9047-1.4349 7.9047l-1e-4 6e-4c-0.0225 0.0811-0.0367 0.1701-0.0521 0.2603l-4e-4 -2e-4c-0.9302-0.5-1.5166-1.3901-2.191-2.739l-2e-4 -3e-4c-0.0266-0.0533-5.609-11.218-5.609-11.218l2e-4 -3e-4c0.0487-0.0493 10.253-10.383 10.253-10.383h4e-4c0.033-0.0032 3.4956-0.3391 3.4956-0.3391v-3e-4c0-0.0201-4e-4 -2.1392-4e-4 -2.1392h-3e-4c-0.052 0-10.957 1e-4 -10.957 1e-4v3e-4c0 0.0201 5e-4 2.1393 5e-4 2.1393l2.7128 0.2085 0.2609 0.7044-10.984 11.323h-1.3044l2.1654-11.479 2e-4 -3e-4c0.0107-0.0116 0.5737-0.6258 0.5737-0.6258l3e-4 -1e-4c0.0273-0.0019 2.8956-0.2086 2.8956-0.2086v-2e-4c0-0.0194-2e-4 -2.0611-2e-4 -2.0611h-4e-4c-0.0579 0-12.209 1e-4 -12.209 1e-4" stop-color="#000000" style="-inkscape-stroke:none;font-variation-settings:normal"/>
			<path d="m15.696 23.366 3e-4 2.0611h3e-4c0.0279 0.0021 2.7387 0.2087 2.7387 0.2087l2e-4 3e-4c0.0089 0.0126 0.4434 0.6259 0.4434 0.6259h-1e-4c-0.0058 0.031-4.409 23.48-4.409 23.48l-4e-4 3e-4c-0.0135 0.0131-0.678 0.6521-0.678 0.6521h-3e-4c-0.0284 0.0022-2.7912 0.2087-2.7912 0.2087v2e-4 2.1389h4e-4c0.0626 0 12.209 2e-4 12.209 2e-4v-3e-4c0-0.0217 3e-4 -2.1387 3e-4 -2.1387h-3e-4c-0.0276-0.0019-2.7133-0.183-2.7133-0.183l-2e-4 -3e-4c-0.0094-0.0136-0.4694-0.6781-0.4694-0.6781v-3e-4c0.0093-0.0504 1.8001-9.8353 1.8001-9.8353h4e-4 2.7651l1e-4 3e-4c0.0203 0.0428 3.9655 8.3483 3.9655 8.3483l2e-4 4e-4c1.6206 3.3288 2.7577 4.756 6.2612 4.8002h5e-4c1.007 0.0132 1.4126 0.087 4.13 0l3e-4 -2e-4c9.3736-7.826 14.158-13.791 14.914-16.488l1e-4 -4e-4c0.4577-1.6333-0.2693-2.635-1.8268-2.635h-3e-4c-0.7598 1e-4 -1.6295 0.32-2.6081 0.9658l-1e-4 1e-4c-0.0036 0.0288-0.7044 5.609-0.7044 5.609l-2e-4 3e-4c-1.9184 2.5072-4.4758 5.2381-7.5917 8.0873v-3e-4c0.0106-0.0553 2.061-10.775 2.061-10.775l1e-4 -5e-4c0.4276-2.2032 0.5685-3.3787-0.8612-3.8347l-2e-4 1e-4c-0.0328 0.0072-6.3915 1.409-6.3915 1.409l-1e-4 6e-4c-0.0068 0.024-0.3386 1.1993-0.3386 1.1993h3e-4c0.03 0.0048 2.9473 0.4699 2.9473 0.4699l1e-4 4e-4c0.2048 0.7598-0.0222 2.4114-0.4697 4.9565v2e-4c-0.0074 0.0405-1.4349 7.9047-1.4349 7.9047l-2e-4 6e-4c-0.0224 0.0812-0.0366 0.1701-0.052 0.2603l-4e-4 -3e-4c-0.9302-0.4999-1.5166-1.3901-2.191-2.7389l-2e-4 -4e-4c-0.0288-0.0575-5.609-11.218-5.609-11.218l3e-4 -4e-4c0.0525-0.0532 10.253-10.383 10.253-10.383l5e-4 -1e-4c0.0355-0.0034 3.4955-0.3391 3.4955-0.3391v-2e-4c0-0.0218-4e-4 -2.1392-4e-4 -2.1392h-4e-4c-0.0561 0-10.957 1e-4 -10.957 1e-4v3e-4c0 0.0217 5e-4 2.1393 5e-4 2.1393l2.7128 0.2085 0.2609 0.7044-10.984 11.323h-1.3044l2.1654-11.479 2e-4 -3e-4c0.0115-0.0126 0.5737-0.6259 0.5737-0.6259h4e-4c0.0294-0.0021 2.8955-0.2086 2.8955-0.2086v-3e-4c0-0.0209-2e-4 -2.061-2e-4 -2.061h-4e-4c-0.0626 0-12.209 1e-4 -12.209 1e-4" stop-color="#000000" style="-inkscape-stroke:none;font-variation-settings:normal"/>
			<path d="m15.696 22.795 3e-4 2.0611 3e-4 1e-4c0.0298 0.0022 2.7387 0.2087 2.7387 0.2087l3e-4 3e-4c0.0095 0.0134 0.4433 0.6258 0.4433 0.6258l-1e-4 1e-4c-5e-3 0.0267-4.409 23.48-4.409 23.48l-4e-4 3e-4c-0.0145 0.014-0.678 0.652-0.678 0.652l-3e-4 1e-4c-0.0304 0.0022-2.7912 0.2086-2.7912 0.2086v3e-4 2.1388h4e-4c0.0669 0 12.209 2e-4 12.209 2e-4v-2e-4c0-0.0233 3e-4 -2.1387 3e-4 -2.1387l-3e-4 -1e-4c-0.0295-2e-3 -2.7133-0.183-2.7133-0.183l-3e-4 -3e-4c-0.01-0.0145-0.4693-0.678-0.4693-0.678v-4e-4c0.0099-0.0539 1.8001-9.8352 1.8001-9.8352h4e-4 2.7651l1e-4 2e-4c0.0218 0.0458 3.9655 8.3483 3.9655 8.3483l2e-4 4e-4c1.6206 3.3289 2.7577 4.7561 6.2612 4.8003h5e-4c1.007 0.0131 1.4126 0.0869 4.13 0l3e-4 -3e-4c9.3736-7.8259 14.158-13.791 14.914-16.488l1e-4 -4e-4c0.4577-1.6333-0.2693-2.635-1.8268-2.635h-4e-4c-0.7597 1e-4 -1.6294 0.3201-2.608 0.9658l-1e-4 2e-4c-0.0038 0.0307-0.7044 5.6089-0.7044 5.6089l-2e-4 3e-4c-1.9184 2.5072-4.4758 5.2382-7.5917 8.0873v-3e-4c0.0113-0.0591 2.061-10.775 2.061-10.775l1e-4 -6e-4c0.4276-2.2032 0.5685-3.3787-0.8612-3.8347l-2e-4 1e-4c-0.035 0.0077-6.3915 1.409-6.3915 1.409l-2e-4 7e-4c-0.0072 0.0256-0.3385 1.1992-0.3385 1.1992l3e-4 1e-4c0.0321 0.0051 2.9473 0.4698 2.9473 0.4698l1e-4 4e-4c0.2048 0.7599-0.0222 2.4114-0.4697 4.9565v3e-4c-0.0079 0.0433-1.4349 7.9046-1.4349 7.9046l-2e-4 7e-4c-0.0224 0.0811-0.0366 0.1701-0.052 0.2602l-4e-4 -2e-4c-0.9302-0.5-1.5166-1.3901-2.191-2.739l-2e-4 -3e-4c-0.0308-0.0615-5.609-11.218-5.609-11.218l3e-4 -3e-4c0.0562-0.0569 10.253-10.383 10.253-10.383h5e-4c0.038-0.0037 3.4955-0.3391 3.4955-0.3391v-3e-4c0-0.0233-4e-4 -2.1392-4e-4 -2.1392h-4e-4c-0.06 0-10.957 1e-4 -10.957 1e-4v3e-4c0 0.0233 5e-4 2.1394 5e-4 2.1394l2.7128 0.2084 0.2609 0.7045-10.984 11.323h-1.3044l2.1654-11.479 3e-4 -3e-4c0.0122-0.0134 0.5736-0.6258 0.5736-0.6258l4e-4 -1e-4c0.0315-0.0022 2.8955-0.2086 2.8955-0.2086v-2e-4c0-0.0225-2e-4 -2.0611-2e-4 -2.0611h-4e-4c-0.067 0-12.209 1e-4 -12.209 1e-4" stop-color="#000000" style="-inkscape-stroke:none;font-variation-settings:normal"/>
			<path d="m15.696 22.259 3e-4 2.0611h3e-4c0.0316 0.0024 2.7387 0.2087 2.7387 0.2087l3e-4 3e-4c0.01 0.0143 0.4433 0.6258 0.4433 0.6258l-1e-4 1e-4c-0.0042 0.0228-4.409 23.48-4.409 23.48l-4e-4 3e-4c-0.0154 0.0149-0.678 0.6521-0.678 0.6521h-3e-4c-0.0322 0.0024-2.7912 0.2086-2.7912 0.2086v3e-4 2.1389h4e-4c0.071 0 12.209 2e-4 12.209 2e-4v-3e-4c0-0.0247 3e-4 -2.1387 3e-4 -2.1387h-3e-4c-0.0313-0.0021-2.7133-0.183-2.7133-0.183l-3e-4 -4e-4c-0.0106-0.0154-0.4693-0.678-0.4693-0.678v-3e-4c0.0105-0.0572 1.8001-9.8353 1.8001-9.8353h4e-4 2.7651l1e-4 3e-4c0.0231 0.0485 3.9655 8.3482 3.9655 8.3482l2e-4 5e-4c1.6206 3.3288 2.7577 4.756 6.2612 4.8002h5e-4c1.0071 0.0131 1.4127 0.0869 4.13 0l4e-4 -3e-4c9.3735-7.8259 14.158-13.791 14.914-16.488l1e-4 -5e-4c0.4576-1.6333-0.2693-2.635-1.8268-2.635h-4e-4c-0.7597 2e-4 -1.6294 0.3201-2.608 0.9659l-1e-4 1e-4c-0.0041 0.0327-0.7044 5.6089-0.7044 5.6089l-2e-4 4e-4c-1.9185 2.5072-4.4758 5.2381-7.5917 8.0873v-4e-4c0.012-0.0626 2.061-10.775 2.061-10.775l1e-4 -6e-4c0.4276-2.2032 0.5685-3.3787-0.8612-3.8346h-2e-4c-0.0372 0.0082-6.3915 1.4091-6.3915 1.4091l-2e-4 6e-4c-0.0077 0.0273-0.3385 1.1993-0.3385 1.1993h4e-4c0.034 0.0054 2.9472 0.4699 2.9472 0.4699l2e-4 4e-4c0.2047 0.7599-0.0223 2.4114-0.4698 4.9565v2e-4c-0.0084 0.046-1.4349 7.9047-1.4349 7.9047l-2e-4 7e-4c-0.0224 0.0811-0.0366 0.17-0.052 0.2602l-5e-4 -3e-4c-0.9301-0.5-1.5165-1.3901-2.1909-2.7389l-2e-4 -4e-4c-0.0327-0.0652-5.609-11.218-5.609-11.218l3e-4 -3e-4c0.0596-0.0604 10.253-10.383 10.253-10.383l5e-4 -1e-4c0.0403-0.0039 3.4955-0.3391 3.4955-0.3391v-3e-4c0-0.0247-4e-4 -2.1391-4e-4 -2.1391h-4e-4c-0.0637 0-10.957 1e-4 -10.957 1e-4v3e-4c0 0.0246 5e-4 2.1393 5e-4 2.1393l2.7128 0.2085 0.2609 0.7044-10.984 11.323h-1.3044l2.1654-11.479 3e-4 -3e-4c0.013-0.0142 0.5736-0.6258 0.5736-0.6258h4e-4c0.0334-0.0024 2.8955-0.2086 2.8955-0.2086v-3e-4c0-0.0238-2e-4 -2.061-2e-4 -2.061h-5e-4c-0.0709 0-12.209 1e-4 -12.209 1e-4" stop-color="#000000" style="-inkscape-stroke:none;font-variation-settings:normal"/>
			<path d="m15.696 21.752 3e-4 2.0612h3e-4c0.0334 0.0025 2.7387 0.2087 2.7387 0.2087l3e-4 4e-4c0.0106 0.0149 0.4433 0.6257 0.4433 0.6257l-1e-4 1e-4c-0.0036 0.0191-4.409 23.48-4.409 23.48l-4e-4 4e-4c-0.0163 0.0156-0.678 0.652-0.678 0.652h-4e-4c-0.0339 0.0025-2.7911 0.2086-2.7911 0.2086v3e-4 2.1389h4e-4c0.0749 0 12.209 2e-4 12.209 2e-4v-4e-4c0-0.026 3e-4 -2.1386 3e-4 -2.1386h-3e-4c-0.033-0.0023-2.7133-0.183-2.7133-0.183l-3e-4 -4e-4c-0.0112-0.0163-0.4693-0.678-0.4693-0.678v-4e-4c0.0111-0.0603 1.8001-9.8352 1.8001-9.8352h4e-4 2.7651l1e-4 3e-4c0.0243 0.0511 3.9655 8.3482 3.9655 8.3482l2e-4 5e-4c1.6207 3.3288 2.7577 4.756 6.2612 4.8002h6e-4c1.007 0.0131 1.4126 0.0869 4.1299 0l4e-4 -3e-4c9.3735-7.8259 14.158-13.791 14.914-16.488l2e-4 -5e-4c0.4575-1.6333-0.2694-2.635-1.8269-2.635h-4e-4c-0.7597 1e-4 -1.6294 0.3201-2.608 0.9658l-1e-4 2e-4c-0.0043 0.0344-0.7044 5.6089-0.7044 5.6089l-2e-4 4e-4c-1.9185 2.5071-4.4758 5.2381-7.5917 8.0873v-4e-4c0.0127-0.0661 2.061-10.775 2.061-10.775l1e-4 -6e-4c0.4277-2.2032 0.5685-3.3787-0.8612-3.8346h-2e-4c-0.0392 0.0086-6.3915 1.4091-6.3915 1.4091l-2e-4 6e-4c-0.0081 0.0288-0.3385 1.1992-0.3385 1.1992l4e-4 1e-4c0.0358 0.0057 2.9472 0.4699 2.9472 0.4699l2e-4 4e-4c0.2047 0.7599-0.0223 2.4114-0.4698 4.9564v3e-4c-0.0088 0.0485-1.4349 7.9046-1.4349 7.9046l-2e-4 8e-4c-0.0224 0.0811-0.0366 0.17-0.052 0.2601l-5e-4 -2e-4c-0.9301-0.5-1.5165-1.3901-2.1909-2.739l-3e-4 -4e-4c-0.0343-0.0687-5.6089-11.218-5.6089-11.218l3e-4 -4e-4c0.0629-0.0636 10.253-10.383 10.253-10.383h5e-4c0.0426-0.0041 3.4955-0.3391 3.4955-0.3391v-3e-4c0-0.026-4e-4 -2.1391-4e-4 -2.1391h-4e-4 -10.957v4e-4c0 0.026 5e-4 2.1393 5e-4 2.1393l2.7128 0.2084 0.2609 0.7045-10.984 11.323h-1.3044l2.1654-11.479 3e-4 -3e-4c0.0137-0.015 0.5736-0.6258 0.5736-0.6258h4e-4c0.0353-0.0026 2.8955-0.2087 2.8955-0.2087v-2e-4c0-0.0251-2e-4 -2.061-2e-4 -2.061h-5e-4 -12.209" stop-color="#000000" style="-inkscape-stroke:none;font-variation-settings:normal"/>
			<path d="m15.696 21.27 3e-4 2.0611 4e-4 1e-4c0.0349 0.0026 2.7386 0.2087 2.7386 0.2087l3e-4 3e-4c0.0111 0.0158 0.4433 0.6258 0.4433 0.6258h-1e-4c-0.0029 0.0156-4.409 23.48-4.409 23.48l-4e-4 4e-4c-0.0171 0.0164-0.678 0.652-0.678 0.652l-4e-4 1e-4c-0.0356 0.0026-2.7911 0.2086-2.7911 0.2086v3e-4 2.1388h5e-4c0.0784 0 12.209 2e-4 12.209 2e-4v-3e-4c0-0.0273 3e-4 -2.1387 3e-4 -2.1387h-4e-4c-0.0346-0.0023-2.7132-0.183-2.7132-0.183l-3e-4 -4e-4c-0.0118-0.017-0.4693-0.678-0.4693-0.678v-3e-4c0.0116-0.0632 1.8001-9.8353 1.8001-9.8353h5e-4 2.765l1e-4 4e-4c0.0255 0.0536 3.9655 8.3482 3.9655 8.3482l2e-4 5e-4c1.6207 3.3288 2.7577 4.756 6.2612 4.8002h6e-4c1.007 0.0131 1.4126 0.0869 4.1299 0l4e-4 -3e-4c9.3735-7.826 14.158-13.791 14.914-16.488l2e-4 -5e-4c0.4575-1.6332-0.2694-2.6349-1.8269-2.6349h-4e-4c-0.7597 1e-4 -1.6294 0.3201-2.608 0.9658l-1e-4 2e-4c-0.0045 0.0361-0.7044 5.6089-0.7044 5.6089l-2e-4 4e-4c-1.9185 2.5071-4.4758 5.2381-7.5917 8.0872l1e-4 -4e-4c0.0132-0.0692 2.0609-10.774 2.0609-10.774l2e-4 -7e-4c0.4276-2.2031 0.5684-3.3786-0.8613-3.8346l-2e-4 1e-4c-0.0411 9e-3 -6.3915 1.409-6.3915 1.409s-1e-4 3e-4 -2e-4 7e-4c-0.0085 0.0302-0.3385 1.1992-0.3385 1.1992l4e-4 1e-4c0.0376 6e-3 2.9472 0.4698 2.9472 0.4698l2e-4 5e-4c0.2047 0.7599-0.0223 2.4114-0.4698 4.9564v3e-4c-0.0092 0.0508-1.4349 7.9046-1.4349 7.9046l-2e-4 8e-4c-0.0224 0.0811-0.0366 0.17-0.052 0.2601l-5e-4 -3e-4c-0.9301-0.5-1.5165-1.3901-2.1909-2.7389l-3e-4 -4e-4c-0.036-0.0721-5.6089-11.218-5.6089-11.218l4e-4 -4e-4c0.0659-0.0667 10.253-10.383 10.253-10.383l6e-4 -1e-4c0.0446-0.0043 3.4954-0.339 3.4954-0.339v-4e-4c0-0.0272-4e-4 -2.1391-4e-4 -2.1391h-4e-4c-0.0705 0-10.957 1e-4 -10.957 1e-4v3e-4c0 0.0273 5e-4 2.1393 5e-4 2.1393l2.7128 0.2085 0.2609 0.7045-10.984 11.323h-1.3044l2.1654-11.479 3e-4 -4e-4c0.0144-0.0157 0.5736-0.6257 0.5736-0.6257l5e-4 -1e-4c0.0369-0.0026 2.8954-0.2086 2.8954-0.2086v-3e-4c0-0.0263-2e-4 -2.061-2e-4 -2.061h-5e-4c-0.0785 0-12.209 1e-4 -12.209 1e-4" stop-color="#000000" style="-inkscape-stroke:none;font-variation-settings:normal"/>
			<path d="m15.696 20.809 3e-4 2.0612h4e-4c0.0365 0.0028 2.7386 0.2087 2.7386 0.2087s1e-4 1e-4 3e-4 4e-4c0.0116 0.0164 0.4433 0.6257 0.4433 0.6257h-1e-4c-0.0023 0.0123-4.409 23.48-4.409 23.48l-5e-4 4e-4c-0.0177 0.0171-0.6779 0.652-0.6779 0.652h-4e-4c-0.0372 0.0028-2.7911 0.2086-2.7911 0.2086v3e-4 2.1389h5e-4c0.0819 0 12.209 2e-4 12.209 2e-4v-4e-4c0-0.0285 3e-4 -2.1386 3e-4 -2.1386h-4e-4c-0.0361-0.0025-2.7132-0.183-2.7132-0.183l-3e-4 -5e-4c-0.0123-0.0178-0.4693-0.6779-0.4693-0.6779v-4e-4c0.0121-0.066 1.8001-9.8352 1.8001-9.8352h5e-4 2.765l2e-4 3e-4c0.0266 0.056 3.9654 8.3482 3.9654 8.3482l2e-4 6e-4c1.6207 3.3287 2.7577 4.7559 6.2612 4.8001h6e-4c1.007 0.0131 1.4127 0.0869 4.1299 0l4e-4 -3e-4c9.3735-7.826 14.158-13.791 14.914-16.488l2e-4 -6e-4c0.4575-1.6332-0.2694-2.6349-1.8269-2.6349h-4e-4c-0.7597 2e-4 -1.6295 0.3201-2.608 0.9658l-1e-4 3e-4c-0.0047 0.0376-0.7044 5.6088-0.7044 5.6088l-3e-4 4e-4c-1.9184 2.5072-4.4758 5.2381-7.5916 8.0873l1e-4 -5e-4c0.0138-0.0723 2.0609-10.774 2.0609-10.774l2e-4 -7e-4c0.4276-2.2031 0.5684-3.3786-0.8613-3.8345h-2e-4c-0.0429 0.0095-6.3915 1.4091-6.3915 1.4091s-1e-4 2e-4 -2e-4 7e-4c-0.0089 0.0315-0.3385 1.1991-0.3385 1.1991l4e-4 1e-4c0.0393 0.0063 2.9472 0.4699 2.9472 0.4699l2e-4 4e-4c0.2047 0.76-0.0223 2.4115-0.4698 4.9564v3e-4c-0.0097 0.0531-1.4349 7.9046-1.4349 7.9046l-2e-4 9e-4c-0.0224 0.0811-0.0366 0.17-0.052 0.26l-5e-4 -3e-4c-0.9301-0.5-1.5165-1.3901-2.1909-2.7389l-3e-4 -4e-4c-0.0376-0.0753-5.6089-11.218-5.6089-11.218l4e-4 -4e-4c0.0688-0.0697 10.253-10.383 10.253-10.383h6e-4c0.0466-0.0045 3.4954-0.3391 3.4954-0.3391v-3e-4c0-0.0285-4e-4 -2.1391-4e-4 -2.1391h-5e-4 -10.957v4e-4c0 0.0285 5e-4 2.1393 5e-4 2.1393l2.7128 0.2084 0.2609 0.7045-10.984 11.323h-1.3044l2.1654-11.479s1e-4 -1e-4 3e-4 -4e-4c0.0151-0.0164 0.5736-0.6257 0.5736-0.6257h5e-4c0.0386-0.0028 2.8954-0.2087 2.8954-0.2087v-3e-4c0-0.0274-2e-4 -2.0609-2e-4 -2.0609h-5e-4 -12.209" stop-color="#000000" style="-inkscape-stroke:none;font-variation-settings:normal"/>
			<path d="m15.696 20.367 3e-4 2.0611s1e-4 0 4e-4 1e-4c0.038 0.0029 2.7386 0.2087 2.7386 0.2087s1e-4 1e-4 3e-4 4e-4c0.0121 0.0171 0.4433 0.6257 0.4433 0.6257h-1e-4c-0.0016 9e-3 -4.409 23.48-4.409 23.48l-5e-4 5e-4c-0.0185 0.0178-0.6779 0.6519-0.6779 0.6519l-4e-4 1e-4c-0.0387 0.0029-2.7911 0.2086-2.7911 0.2086v3e-4 2.1388h5e-4c0.0853 0 12.209 2e-4 12.209 2e-4v-3e-4c0-0.0297 3e-4 -2.1386 3e-4 -2.1386l-4e-4 -1e-4c-0.0376-0.0025-2.7132-0.183-2.7132-0.183l-3e-4 -4e-4c-0.0128-0.0185-0.4693-0.678-0.4693-0.678l1e-4 -4e-4c0.0125-0.0687 1.8-9.8352 1.8-9.8352h5e-4 2.765l2e-4 4e-4c0.0277 0.0583 3.9654 8.3482 3.9654 8.3482l2e-4 5e-4c1.6207 3.3288 2.7578 4.756 6.2612 4.8002h6e-4c1.007 0.0131 1.4127 0.0869 4.1299 0l4e-4 -4e-4c9.3735-7.8259 14.158-13.791 14.914-16.488l2e-4 -5e-4c0.4575-1.6332-0.2694-2.6349-1.8269-2.6349h-5e-4c-0.7597 1e-4 -1.6294 0.3201-2.6079 0.9658l-1e-4 2e-4c-0.0049 0.0392-0.7044 5.6089-0.7044 5.6089l-3e-4 4e-4c-1.9184 2.5072-4.4758 5.2381-7.5916 8.0872l1e-4 -4e-4c0.0144-0.0753 2.0609-10.774 2.0609-10.774l2e-4 -8e-4c0.4276-2.2031 0.5684-3.3785-0.8613-3.8345l-3e-4 1e-4c-0.0446 0.0098-6.3914 1.409-6.3914 1.409s-1e-4 3e-4 -2e-4 8e-4c-0.0093 0.0328-0.3385 1.1991-0.3385 1.1991l5e-4 1e-4c0.0408 0.0065 2.9471 0.4698 2.9471 0.4698l2e-4 5e-4c0.2047 0.76-0.0223 2.4115-0.4698 4.9564v3e-4c-0.0101 0.0553-1.4349 7.9046-1.4349 7.9046l-2e-4 9e-4c-0.0224 0.0811-0.0367 0.1699-0.052 0.26l-6e-4 -3e-4c-0.93-0.5-1.5164-1.3901-2.1908-2.7389l-3e-4 -5e-4c-0.0392-0.0783-5.6089-11.218-5.6089-11.218l4e-4 -4e-4c0.0716-0.0726 10.253-10.383 10.253-10.383l6e-4 -1e-4c0.0485-0.0047 3.4954-0.339 3.4954-0.339v-4e-4c0-0.0296-4e-4 -2.1391-4e-4 -2.1391h-5e-4c-0.0765 0-10.957 1e-4 -10.957 1e-4v4e-4c0 0.0296 5e-4 2.1392 5e-4 2.1392l2.7128 0.2085 0.2609 0.7045-10.984 11.323h-1.3044l2.1654-11.479s1e-4 -2e-4 3e-4 -4e-4c0.0157-0.0171 0.5736-0.6257 0.5736-0.6257l5e-4 -1e-4c0.0402-0.0029 2.8954-0.2086 2.8954-0.2086v-3e-4c0-0.0286-2e-4 -2.061-2e-4 -2.061h-5e-4c-0.0853 0-12.209 1e-4 -12.209 1e-4" stop-color="#000000" style="-inkscape-stroke:none;font-variation-settings:normal"/>
			<path d="m15.696 19.942 3e-4 2.0611h4e-4c0.0394 3e-3 2.7386 0.2087 2.7386 0.2087s1e-4 2e-4 3e-4 5e-4c0.0126 0.0177 0.4433 0.6256 0.4433 0.6256l-1e-4 1e-4c-0.0011 0.0059-4.409 23.48-4.409 23.48l-5e-4 5e-4c-0.0192 0.0184-0.6779 0.6519-0.6779 0.6519h-4e-4c-0.0402 3e-3 -2.7911 0.2086-2.7911 0.2086v4e-4 2.1388h5e-4c0.0886 0 12.209 2e-4 12.209 2e-4v-4e-4c0-0.0308 3e-4 -2.1386 3e-4 -2.1386h-4e-4c-0.0391-0.0026-2.7132-0.183-2.7132-0.183l-3e-4 -5e-4c-0.0133-0.0192-0.4693-0.6779-0.4693-0.6779l1e-4 -4e-4c0.013-0.0713 1.8-9.8352 1.8-9.8352h5e-4 2.765l2e-4 4e-4c0.0287 0.0605 3.9654 8.3482 3.9654 8.3482l2e-4 5e-4c1.6207 3.3288 2.7578 4.7559 6.2612 4.8001h7e-4c1.0069 0.0132 1.4126 0.0869 4.1298 0l4e-4 -3e-4c9.3735-7.8259 14.158-13.791 14.914-16.488l2e-4 -6e-4c0.4575-1.6332-0.2694-2.6348-1.8269-2.6348h-5e-4c-0.7597 1e-4 -1.6294 0.3201-2.6079 0.9658l-1e-4 2e-4c-0.0051 0.0407-0.7044 5.6088-0.7044 5.6088l-3e-4 5e-4c-1.9184 2.5071-4.4758 5.2381-7.5916 8.0872l1e-4 -5e-4c0.0149-0.0781 2.0609-10.774 2.0609-10.774l2e-4 -7e-4c0.4276-2.2031 0.5684-3.3786-0.8613-3.8345l-3e-4 1e-4c-0.0463 0.0102-6.3914 1.409-6.3914 1.409s-1e-4 3e-4 -2e-4 8e-4c-0.0096 0.034-0.3385 1.1991-0.3385 1.1991l5e-4 1e-4c0.0424 0.0067 2.9471 0.4698 2.9471 0.4698l2e-4 5e-4c0.2047 0.76-0.0223 2.4114-0.4698 4.9564v3e-4c-0.0104 0.0573-1.4349 7.9046-1.4349 7.9046l-2e-4 9e-4c-0.0224 0.0811-0.0367 0.1699-0.052 0.26l-6e-4 -4e-4c-0.93-0.5-1.5165-1.39-2.1908-2.7388l-3e-4 -5e-4c-0.0407-0.0813-5.6089-11.218-5.6089-11.218l4e-4 -5e-4c0.0743-0.0753 10.253-10.383 10.253-10.383l6e-4 -1e-4c0.0503-0.0049 3.4954-0.3391 3.4954-0.3391v-3e-4c0-0.0308-4e-4 -2.1391-4e-4 -2.1391h-5e-4c-0.0794 0-10.957 1e-4 -10.957 1e-4v4e-4c0 0.0307 5e-4 2.1392 5e-4 2.1392l2.7128 0.2085 0.2609 0.7044-10.984 11.323h-1.3044l2.1654-11.479s1e-4 -1e-4 3e-4 -4e-4c0.0163-0.0177 0.5736-0.6257 0.5736-0.6257h5e-4c0.0417-3e-3 2.8954-0.2086 2.8954-0.2086v-4e-4c0-0.0296-2e-4 -2.0609-2e-4 -2.0609h-6e-4c-0.0885 0-12.209 1e-4 -12.209 1e-4" stop-color="#000000" style="-inkscape-stroke:none;font-variation-settings:normal"/>
			<path d="m15.696 19.531 3e-4 2.0611h4e-4c0.0408 0.0031 2.7386 0.2087 2.7386 0.2087s1e-4 2e-4 3e-4 5e-4c0.013 0.0183 0.4433 0.6257 0.4433 0.6257-6e-4 0.0029-4.4091 23.48-4.4091 23.48l-5e-4 5e-4c-0.0199 0.0191-0.6779 0.6519-0.6779 0.6519h-4e-4c-0.0416 0.0032-2.7911 0.2087-2.7911 0.2087v3e-4 2.1388h5e-4c0.0917 0 12.209 2e-4 12.209 2e-4v-4e-4c0-0.0318 3e-4 -2.1386 3e-4 -2.1386h-4e-4c-0.0405-0.0027-2.7132-0.183-2.7132-0.183l-3e-4 -5e-4c-0.0138-0.0199-0.4693-0.6779-0.4693-0.6779l1e-4 -4e-4c0.0135-0.0738 1.8-9.8352 1.8-9.8352h5e-4 2.765l2e-4 4e-4c0.0297 0.0626 3.9654 8.3482 3.9654 8.3482l2e-4 6e-4c1.6207 3.3287 2.7578 4.7558 6.2612 4.8l7e-4 1e-4c1.0069 0.0131 1.4126 0.0869 4.1298-1e-4l4e-4 -3e-4c9.3735-7.8259 14.158-13.791 14.914-16.488l2e-4 -6e-4c0.4575-1.6332-0.2694-2.6348-1.8269-2.6348h-5e-4c-0.7597 1e-4 -1.6294 0.3201-2.6079 0.9658l-1e-4 2e-4c-0.0053 0.0421-0.7044 5.6089-0.7044 5.6089l-3e-4 4e-4c-1.9184 2.5072-4.4758 5.2381-7.5916 8.0872l1e-4 -5e-4c0.0154-0.0808 2.0609-10.774 2.0609-10.774l2e-4 -7e-4c0.4276-2.2031 0.5684-3.3786-0.8613-3.8345l-3e-4 1e-4c-0.0479 0.0105-6.3914 1.409-6.3914 1.409s-1e-4 3e-4 -2e-4 8e-4c-0.01 0.0352-0.3385 1.1991-0.3385 1.1991l5e-4 1e-4c0.0439 7e-3 2.9471 0.4698 2.9471 0.4698l2e-4 5e-4c0.2046 0.76-0.0223 2.4115-0.4698 4.9564v3e-4c-0.0108 0.0594-1.4349 7.9046-1.4349 7.9046l-2e-4 9e-4c-0.0224 0.0811-0.0367 0.1699-0.052 0.26l-6e-4 -4e-4c-0.9301-0.5-1.5165-1.3901-2.1908-2.7388l-3e-4 -5e-4c-0.0421-0.0842-5.6089-11.218-5.6089-11.218l4e-4 -5e-4c0.077-0.0779 10.253-10.383 10.253-10.383l7e-4 -1e-4c0.052-5e-3 3.4953-0.3391 3.4953-0.3391v-3e-4c0-0.0319-4e-4 -2.1391-4e-4 -2.1391h-5e-4c-0.0823 0-10.957 1e-4 -10.957 1e-4v4e-4c0 0.0318 5e-4 2.1392 5e-4 2.1392l2.7128 0.2085 0.2609 0.7044-10.984 11.323h-1.3044l2.1654-11.479s1e-4 -2e-4 4e-4 -5e-4c0.0168-0.0183 0.5735-0.6257 0.5735-0.6257h5e-4c0.0432-0.0031 2.8954-0.2086 2.8954-0.2086v-4e-4c0-0.0307-2e-4 -2.0609-2e-4 -2.0609h-6e-4c-0.0916 0-12.209 1e-4 -12.209 1e-4" stop-color="#000000" style="-inkscape-stroke:none;font-variation-settings:normal"/>
			<path d="m15.696 19.134 3e-4 2.0611h5e-4c0.0421 0.0032 2.7385 0.2087 2.7385 0.2087s1e-4 2e-4 4e-4 5e-4c0.0134 0.0189 0.4432 0.6256 0.4432 0.6256l-4.4091 23.48-5e-4 5e-4c-0.0206 0.0197-0.6779 0.6519-0.6779 0.6519h-5e-4c-0.0429 0.0032-2.791 0.2086-2.791 0.2086v4e-4 2.1388h6e-4c0.0946 0 12.209 2e-4 12.209 2e-4v-4e-4c0-0.0329 3e-4 -2.1386 3e-4 -2.1386h-5e-4c-0.0417-0.0029-2.7131-0.183-2.7131-0.183l-4e-4 -5e-4c-0.0142-0.0206-0.4692-0.6779-0.4692-0.6779l1e-4 -5e-4c0.0139-0.0762 1.8-9.8351 1.8-9.8351h5e-4 2.765l2e-4 4e-4c0.0307 0.0647 3.9654 8.3481 3.9654 8.3481l3e-4 7e-4c1.6206 3.3287 2.7577 4.7558 6.2611 4.8h7e-4c1.0069 0.0131 1.4126 0.0869 4.1298 0l5e-4 -3e-4c9.3734-7.826 14.158-13.791 14.914-16.488l2e-4 -6e-4c0.4575-1.6332-0.2694-2.6349-1.8269-2.6349h-5e-4c-0.7597 2e-4 -1.6294 0.3202-2.6079 0.9659l-1e-4 2e-4c-0.0054 0.0435-0.7044 5.6088-0.7044 5.6088l-3e-4 5e-4c-1.9184 2.5071-4.4758 5.238-7.5916 8.0872l1e-4 -5e-4c0.0159-0.0835 2.0609-10.774 2.0609-10.774l2e-4 -8e-4c0.4276-2.203 0.5684-3.3785-0.8613-3.8344h-3e-4c-0.0495 0.011-6.3914 1.4091-6.3914 1.4091s-1e-4 3e-4 -2e-4 8e-4c-0.0103 0.0364-0.3385 1.1991-0.3385 1.1991h5e-4c0.0453 0.0073 2.9471 0.4699 2.9471 0.4699l2e-4 5e-4c0.2046 0.76-0.0223 2.4115-0.4698 4.9564v3e-4c-0.0112 0.0613-1.4349 7.9046-1.4349 7.9046l-2e-4 9e-4c-0.0224 0.0811-0.0367 0.1699-0.052 0.26l-6e-4 -4e-4c-0.9301-0.5-1.5165-1.3901-2.1908-2.7388l-3e-4 -6e-4c-0.0435-0.0869-5.6089-11.218-5.6089-11.218l4e-4 -4e-4c0.0795-0.0805 10.253-10.383 10.253-10.383l7e-4 -1e-4c0.0537-0.0052 3.4953-0.3391 3.4953-0.3391v-4e-4c0-0.0329-4e-4 -2.139-4e-4 -2.139h-5e-4c-0.085 0-10.957 1e-4 -10.957 1e-4v4e-4c0 0.0329 5e-4 2.1392 5e-4 2.1392l2.7128 0.2085 0.2609 0.7044-10.984 11.323h-1.3044l2.1654-11.479 4e-4 -4e-4c0.0174-0.019 0.5735-0.6257 0.5735-0.6257h6e-4c0.0445-0.0032 2.8953-0.2086 2.8953-0.2086v-4e-4c0-0.0317-2e-4 -2.0609-2e-4 -2.0609h-6e-4c-0.0946 0-12.209 1e-4 -12.209 1e-4" stop-color="#000000" style="-inkscape-stroke:none;font-variation-settings:normal"/>
		</g>
		<path d="m15.696 19.134 2.89e-4 2.0611 2.7391 0.20874 0.44352 0.62612-4.4091 23.48-0.67832 0.65239-2.7915 0.20864v2.1392l12.21 1.88e-4 3.79e-4 -2.139-2.7137-0.18303-0.46961-0.67837 1.8002-9.8356h2.7655l3.9656 8.3486c1.6208 3.3291 2.7578 4.7565 6.2614 4.8007 1.0074 0.01309 1.4127 0.08693 4.1306 0 9.3738-7.8261 14.159-13.792 14.915-16.489 0.45786-1.6335-0.26907-2.6354-1.8267-2.6354-0.75982 0-1.6297 0.31998-2.6085 0.96582l-0.70441 5.6091c-1.9185 2.5073-4.4759 5.2383-7.592 8.0877l2.061-10.775c0.4277-2.2036 0.5687-3.3792-0.86111-3.8352l-6.3917 1.4091-0.33875 1.1999 2.9477 0.46992c0.20492 0.7597-0.02207 2.4114-0.46961 4.9569l-1.4349 7.9049c-0.02256 0.08132-0.03682 0.1705-0.05218 0.2609-0.93042-0.49992-1.5169-1.3901-2.1915-2.7392l-5.6092-11.219 10.253-10.383 3.496-0.33914-4.25e-4 -2.1394-10.957 9.3e-5 4.59e-4 2.1396 2.7128 0.20846 0.26089 0.70445-10.984 11.323h-1.3045l2.1654-11.479 0.57396-0.62612 2.8959-0.20864-2.66e-4 -2.0613z" fill="#d4d4d4" stop-color="#000000" style="-inkscape-stroke:none;font-variation-settings:normal"/>
		<path d="m15.695 19.135v0.5h12.211v-0.5zm15.889 0v0.5h10.957v-0.5zm2.8398 3.1914-10.85 11.184h-1.209l-0.09375 0.5h1.3027l10.984-11.322zm-15.619 0.09766-4.334 23.086-0.67969 0.65234-2.791 0.20898v0.5l2.791-0.20898 0.67969-0.65234 4.4082-23.48zm33.232 7.2754c-0.75982 0-1.6286 0.32096-2.6074 0.9668l-0.70508 5.6094c-1.894 2.4753-4.4123 5.1704-7.4746 7.9805l-0.11719 0.60742c3.116-2.8493 5.6733-5.5806 7.5918-8.0879l0.70508-5.6094c0.9788-0.64584 1.8476-0.9668 2.6074-0.9668 1.1447 0 1.8404 0.54321 1.9473 1.4785 0.10752-1.2378-0.6129-1.9785-1.9473-1.9785zm-9.7031 0.05273-6.3926 1.4102-0.33789 1.1992 0.13476 0.02148 0.20312-0.7207 6.3926-1.4102c0.78817 0.25136 1.0881 0.7323 1.1367 1.4727 0.0626-1.0351-0.1835-1.6687-1.1367-1.9727zm-13.375 2.5762-0.16602 0.16797 5.6094 11.219c0.67455 1.3491 1.261 2.2384 2.1914 2.7383 0.01536-0.0904 0.03017-0.17845 0.05273-0.25977l1.4336-7.9043c0.36469-2.0743 0.57969-3.5454 0.53711-4.4336-0.03507 0.90459-0.23396 2.2093-0.53711 3.9336l-1.4336 7.9043c-0.02256 0.08132-0.03737 0.16937-0.05273 0.25977-0.93042-0.49992-1.5169-1.3892-2.1914-2.7383zm-8.8594 13.287-0.07227 0.39453 0.46875 0.67969 2.7148 0.18164v-0.5l-2.7148-0.18164z" fill="#ffffff" fill-opacity=".2866"/>
	</g>
	<path d="m56.691 7.7881-1.4238 1.4238 0.80859 0.80859 1.4238-1.4238 1.4238 1.4238 0.80859-0.80859-2.2324-2.2324z" color="#000000" fill="#00122b" fill-opacity=".6586" stroke-width=".5625" style="text-indent:0;text-transform:none"/>
</svg>
