<svg width="64" height="64" xmlns="http://www.w3.org/2000/svg" xmlns:xlink="http://www.w3.org/1999/xlink"><defs><radialGradient id="c" cx="35.574" cy="1.019" r="32" gradientTransform="matrix(0 1.1252 -5.1753 0 37.271 -39.029)" gradientUnits="userSpaceOnUse" xlink:href="#a"/><radialGradient id="d" cx="35.574" cy="1.036" r="32" gradientTransform="matrix(0 1.1252 -5.1753 0 37.363 -39.029)" gradientUnits="userSpaceOnUse" xlink:href="#a"/><radialGradient id="e" cx="35.574" cy="1.055" r="32" gradientTransform="matrix(0 1.1252 -5.1753 0 37.458 -39.029)" gradientUnits="userSpaceOnUse" xlink:href="#a"/><radialGradient id="f" cx="35.574" cy="1.071" r="32" gradientTransform="matrix(0 1.1252 -5.1753 0 37.544 -39.029)" gradientUnits="userSpaceOnUse" xlink:href="#a"/><radialGradient id="g" cx="35.574" cy="1.091" r="32" gradientTransform="matrix(0 1.1252 -5.1753 0 37.648 -39.029)" gradientUnits="userSpaceOnUse" xlink:href="#a"/><radialGradient id="h" cx="35.574" cy="1.113" r="32" gradientTransform="matrix(0 1.1252 -5.1753 0 37.758 -39.029)" gradientUnits="userSpaceOnUse" xlink:href="#a"/><radialGradient id="i" cx="35.574" cy="1.135" r="32" gradientTransform="matrix(0 1.1252 -5.1753 0 37.875 -39.029)" gradientUnits="userSpaceOnUse" xlink:href="#a"/><radialGradient id="j" cx="35.574" cy="1.159" r="32" gradientTransform="matrix(0 1.1252 -5.1753 0 38 -39.029)" gradientUnits="userSpaceOnUse" xlink:href="#a"/><radialGradient id="k" cx="35.574" cy="1.18" r="32" gradientTransform="matrix(0 1.1252 -5.1753 0 38.107 -39.029)" gradientUnits="userSpaceOnUse" xlink:href="#a"/><radialGradient id="l" cx="35.574" cy="1.208" r="32" gradientTransform="matrix(0 1.1252 -5.1753 0 38.252 -39.029)" gradientUnits="userSpaceOnUse" xlink:href="#a"/><radialGradient id="m" cx="35.574" cy="1.239" r="32" gradientTransform="matrix(0 1.1252 -5.1753 0 38.411 -39.029)" gradientUnits="userSpaceOnUse" xlink:href="#a"/><radialGradient id="n" cx="35.574" cy="1.273" r="32" gradientTransform="matrix(0 1.1252 -5.1753 0 38.587 -39.029)" gradientUnits="userSpaceOnUse" xlink:href="#a"/><radialGradient id="o" cx="35.574" cy="1.304" r="32" gradientTransform="matrix(0 1.1252 -5.1753 0 38.75 -39.029)" gradientUnits="userSpaceOnUse" xlink:href="#a"/><radialGradient id="p" cx="35.574" cy="1.346" r="32" gradientTransform="matrix(0 1.1252 -5.1753 0 38.966 -39.029)" gradientUnits="userSpaceOnUse" xlink:href="#a"/><radialGradient id="q" cx="35.574" cy="1.393" r="32" gradientTransform="matrix(0 1.1252 -5.1753 0 39.208 -39.029)" gradientUnits="userSpaceOnUse" xlink:href="#a"/><radialGradient id="r" cx="35.574" cy="1.439" r="32" gradientTransform="matrix(0 1.1252 -5.1753 0 39.446 -39.027)" gradientUnits="userSpaceOnUse" xlink:href="#a"/><radialGradient id="s" cx="16.612" cy="1.481" r="32" gradientTransform="matrix(0 .01314 -1.2755 0 33.91 1.279)" gradientUnits="userSpaceOnUse"><stop stop-color="#9af2ff" stop-opacity=".477" offset="0"/><stop stop-color="#fff" stop-opacity=".002" offset="1"/></radialGradient><radialGradient id="b" cx="32" cy="33" r="32" gradientTransform="matrix(1.2294 0 0 1.191 -7.34 -6.302)" gradientUnits="userSpaceOnUse"><stop stop-color="#1e75ee" offset="0"/><stop stop-color="#2a9ee9" offset="1"/></radialGradient><radialGradient id="t" cx="32" cy="21.363" r="23.15" gradientTransform="matrix(1.1886 0 0 1.1883 -6.036 -6.215)" gradientUnits="userSpaceOnUse"><stop stop-color="#a7f2fa" offset="0"/><stop stop-color="#c4e6fd" stop-opacity=".996" offset="1"/></radialGradient><linearGradient id="a"><stop stop-color="#7ef6ff" stop-opacity=".169" offset="0"/><stop stop-color="#96f4ff" stop-opacity=".047" offset="1"/></linearGradient></defs><path d="M1 0C.446 0 0 .446 0 1v62c0 .554.446 1 1 1h62c.554 0 1-.446 1-1V1c0-.554-.446-1-1-1H1z" fill="url(#b)" style="-inkscape-stroke:none;font-variation-settings:normal"/><path transform="translate(0 .059)" d="M1 0C.446 0 0 .446 0 1v62-.224V63 1h1.752c19.15.002 39.445 0 60.213 0H64v62-.334V63 1a.998.998 0 0 0-1-1z" fill="url(#c)"/><path transform="translate(0 .059)" d="M1 0a.998.998 0 0 0-1 1.006v61.98-.197c0-.277.004-.184.01.246.012.016.03-.297.052-.897v-61c.072-.009.133-.013.185-.013.29-.016.357-.032.774-.044.246-.011.496-.019.747-.019 19.183.002 39.392 0 60.2 0 .346 0 .689.012 1.023.03.268.01.389.02.52.033.106 0 .22.01.427.028v60.744c.027.754.05 1.148.059 1.123l.003-.334v.286V1.21c0-.143 0-.22-.002-.224A.996.996 0 0 0 62.986 0H1" fill="url(#d)"/><path transform="translate(0 .059)" d="M1 0a.998.998 0 0 0-1 1.006v61.966-.169c0-.245.008-.145.021.266.022.034.06-.247.104-.807V1.274a.744.744 0 0 1 .173-.025c.27-.031.341-.064.743-.088.242-.022.492-.037.742-.037 19.217.002 39.34 0 60.187 0 .347 0 .69.024 1.013.06.256.02.372.042.494.065.1 0 .206.02.398.057v60.731c.055.703.102 1.052.119 1.003.004-.154.006-.265.006-.333v.237V1.196c0-.139 0-.215-.003-.224A.994.994 0 0 0 63.19.02a1.025 1.025 0 0 0-.217-.02H1" fill="url(#e)"/><path transform="translate(0 .059)" d="M1 0a.998.998 0 0 0-1 1.005v61.953-.14c0-.213.012-.107.031.287.034.05.091-.198.156-.718V1.413a.45.45 0 0 1 .16-.037c.252-.048.327-.097.715-.132.238-.034.487-.056.737-.056 19.25.002 39.286 0 60.173 0 .348 0 .688.036 1.001.09.244.029.356.062.47.098.091 0 .19.03.37.085v60.718c.082.653.151.957.176.884.007-.152.01-.262.01-.333v.188V1.184c0-.135 0-.21-.004-.224a.992.992 0 0 0-.819-.94 1.041 1.041 0 0 0-.217-.018H.999" fill="url(#f)"/><path transform="translate(0 .059)" d="M1 0a.998.998 0 0 0-1 1.005v61.939-.113c0-.18.015-.068.042.308.045.067.121-.149.208-.629V1.55a.312.312 0 0 1 .148-.05c.232-.063.311-.128.684-.176.234-.044.483-.074.732-.074 19.284.002 39.234 0 60.16 0 .35 0 .689.048.991.12.232.039.34.083.444.13.085 0 .176.04.341.114v60.704c.11.603.203.862.236.764.008-.11.013-.222.014-.333v.14V1.168c0-.13-.002-.206-.006-.224a.991.991 0 0 0-.83-.927 1.066 1.066 0 0 0-.22-.017H1" fill="url(#g)"/><path transform="translate(0 .059)" d="M1 0a.998.998 0 0 0-1 1.004V62.93v-.084c0-.148.02-.029.052.328.056.084.152-.099.26-.539V1.686c.053-.04.097-.061.136-.061.212-.08.297-.16.655-.22.23-.056.477-.093.727-.093 19.317.002 39.18 0 60.147 0 .35 0 .688.06.98.151.22.047.322.102.418.162.078 0 .162.049.313.142v60.69c.137.553.253.767.295.645A4.7 4.7 0 0 0 64 62.77v.09V1.155c0-.126-.002-.202-.007-.224a.99.99 0 0 0-.843-.914A1.099 1.099 0 0 0 62.932 0H1" fill="url(#h)"/><path transform="translate(0 .059)" d="M1 0a.998.998 0 0 0-1 1.004v61.912-.056c0-.117.023.01.063.349.067.1.182-.05.312-.45V1.824c.048-.049.088-.074.123-.074.193-.095.282-.192.626-.264.225-.067.472-.11.721-.11h60.133c.352 0 .688.071.97.18.144.033.279.1.393.194.07 0 .147.059.284.17V62.6c.164.502.304.671.354.524.014-.14.02-.25.02-.331v.042V1.14c0-.121-.002-.197-.009-.224a.99.99 0 0 0-.854-.902A1.142 1.142 0 0 0 62.918 0H1" fill="url(#i)"/><path transform="translate(0 .059)" d="M1 0a.998.998 0 0 0-1 1.004v61.898-.029c0-.084.027.049.073.37.079.117.212 0 .365-.36V1.96c.043-.057.079-.086.11-.086.174-.112.267-.225.596-.309a2.19 2.19 0 0 1 .717-.129c19.385.002 39.075 0 60.12 0 .353 0 .687.084.958.211a.81.81 0 0 1 .368.227c.063 0 .132.068.256.199v60.665c.192.452.354.576.413.404.014-.11.022-.22.024-.33V1.125c0-.117-.004-.193-.01-.224a.99.99 0 0 0-.868-.89A1.198 1.198 0 0 0 62.905 0H1" fill="url(#j)"/><path transform="translate(0 .059)" d="M1 0a.998.998 0 0 0-1 1.003v61.885c0-.052.03.087.084.39.09.135.242.05.416-.27V2.097C.538 2.034.57 2 .599 2c.154-.127.251-.257.566-.352.217-.089.463-.148.711-.148 19.418.002 39.022 0 60.107 0 .355 0 .687.096.947.242.138.05.257.14.343.258.056 0 .118.079.227.227v60.651c.22.402.406.482.473.285.018-.132.027-.243.027-.33V1.112c0-.113-.004-.188-.012-.224a.99.99 0 0 0-.879-.877A1.273 1.273 0 0 0 62.891 0H1.001" fill="url(#k)"/><path transform="translate(0 .059)" d="M1 0a.998.998 0 0 0-1 1.003v61.899c0-.02.035.126.094.41.101.152.273.1.468-.18V2.235c.034-.073.062-.11.087-.11.135-.143.236-.29.536-.397.213-.1.459-.166.707-.166 19.452.002 38.969 0 60.093 0 .356 0 .687.108.936.272.134.06.246.162.317.29.05 0 .103.089.2.256v60.64c.246.352.455.386.531.165.02-.128.03-.239.03-.33V1.1c0-.108-.004-.184-.013-.224a.99.99 0 0 0-.891-.864 1.376 1.376 0 0 0-.218-.01H1" fill="url(#l)"/><path transform="translate(0 .059)" d="M1 0a.998.998 0 0 0-1 1.002v61.913c0 .013.039.165.105.432.112.168.303.148.52-.092V2.373c.029-.081.053-.123.074-.123.116-.159.222-.321.507-.44a1.52 1.52 0 0 1 .701-.185c19.486.002 38.916 0 60.08 0 .357 0 .687.12.925.302a.66.66 0 0 1 .292.323c.043 0 .089.098.171.284V63.16c.275.302.507.29.591.046.022-.125.034-.236.034-.33V1.085c0-.104-.005-.18-.016-.224a.99.99 0 0 0-.903-.852 1.514 1.514 0 0 0-.218-.008H1" fill="url(#m)"/><path transform="translate(0 .059)" d="M1 0a.998.998 0 0 0-1 1.002V62.93c0 .045.042.203.115.453.123.184.333.197.572-.003V2.51c.024-.089.045-.135.062-.135.097-.174.207-.353.478-.484.204-.122.448-.203.696-.203 19.519.002 38.863 0 60.067 0a1.4 1.4 0 0 1 .914.332c.15.103.224.225.267.355.035 0 .073.108.142.313V63.3c.302.251.557.196.65-.074a1.7 1.7 0 0 0 .037-.33V1.071c0-.1-.006-.175-.017-.224a.99.99 0 0 0-.915-.84A1.712 1.712 0 0 0 62.85 0H1" fill="url(#n)"/><path transform="translate(0 .059)" d="M1 0a.998.998 0 0 0-1 1.002v61.942c0 .077.046.242.126.473.134.201.363.246.624.086V2.647C.77 2.55.785 2.5.8 2.5a.981.981 0 0 1 .447-.529c.2-.133.444-.221.691-.221 19.553.002 38.811 0 60.053 0 .36 0 .686.144.903.362a.688.688 0 0 1 .242.388c.028 0 .059.118.114.341v60.598c.33.2.608.1.709-.194.026-.117.04-.228.04-.329V1.056c0-.095-.006-.17-.018-.224a.991.991 0 0 0-.927-.827A2.015 2.015 0 0 0 62.836 0H1" fill="url(#o)"/><path transform="translate(0 .059)" d="M1 0a.998.998 0 0 0-1 1.001v61.956c0 .11.05.281.136.494.146.218.394.296.677.176V2.784c.014-.105.026-.16.036-.16a.967.967 0 0 1 .419-.572c.196-.144.439-.24.686-.24 19.586.002 38.758 0 60.04 0 .36 0 .685.156.892.392a.73.73 0 0 1 .216.42c.021 0 .044.128.086.37v60.585c.356.15.658.005.768-.314.029-.114.044-.224.044-.328V1.042c0-.09-.007-.166-.02-.224a.992.992 0 0 0-.94-.814 2.524 2.524 0 0 0-.217-.005H1" fill="url(#p)"/><path transform="translate(0 .059)" d="M1 0a.998.998 0 0 0-1 1v61.972c0 .142.054.32.147.515.156.241.453.35.728.265V2.922c.01-.114.018-.172.025-.172a.97.97 0 0 1 .389-.617c.192-.155.434-.258.68-.258 19.62.002 38.705 0 60.027 0 .362 0 .686.168.882.422.11.127.176.286.19.453.015 0 .03.137.057.398V63.72c.385.1.71-.09.828-.434.03-.11.047-.22.047-.328V1.028c0-.086-.007-.161-.021-.224a.994.994 0 0 0-.951-.802A3.563 3.563 0 0 0 62.809 0H1" fill="url(#q)"/><path d="M1 .002a.998.998 0 0 0-1 1v61.986c0 .174.058.358.157.535.17.259.473.397.78.355V3.062c.005-.122.01-.185.013-.185a.987.987 0 0 1 .36-.66c.187-.166.429-.277.675-.277 19.653.002 38.652 0 60.013 0 .363 0 .685.18.87.452.102.141.16.31.166.485.007 0 .015.147.028.427v60.558c.412.05.76-.186.887-.553a1.1 1.1 0 0 0 .05-.328V1.016a.996.996 0 0 0-.985-1.014 6.67 6.67 0 0 0-.22 0H1" fill="url(#r)" transform="translate(0 .057)"/><path d="M1 .002a.998.998 0 0 0-1 1v1h64v-.998a.998.998 0 0 0-1-1H1z" fill="url(#s)" transform="translate(0 .057)"/><path d="M29.18 55.129c-3.9-.5-7.632-2.056-10.888-4.538-1.062-.81-3.055-2.815-3.925-3.95-2.435-3.177-3.95-6.784-4.45-10.596-.214-1.632-.212-4.632.003-6.123 1.075-7.456 5.767-13.851 12.506-17.045 3.134-1.486 6.002-2.114 9.645-2.114 5.892 0 11.122 2.11 15.36 6.2 2.042 1.97 3.411 3.838 4.583 6.255 1.586 3.268 2.229 6.111 2.229 9.863 0 4.938-1.427 9.245-4.389 13.252-.88 1.19-2.6 2.999-3.74 3.934-3.13 2.566-7.12 4.302-11.079 4.821-1.367.18-4.599.202-5.855.04zm8.257-4c2.383-.752 4.325-1.761 6.2-3.224.997-.777 2.72-2.517 3.443-3.476 1.96-2.6 3.293-5.856 3.685-9 .189-1.514.08-4.718-.21-6.109-.763-3.684-2.41-6.796-5.003-9.459-1.617-1.66-3.09-2.754-4.983-3.704-2.874-1.44-5.337-2.023-8.571-2.026-3.424-.003-6.426.781-9.398 2.457-2.705 1.525-5.501 4.324-7.033 7.04-1.128 2.001-1.953 4.375-2.275 6.545-.212 1.422-.216 4.247-.009 5.609.415 2.726 1.449 5.42 2.948 7.679.818 1.234.792 1.22 1.514.807 1.292-.739 1.629-1.096 2.332-2.475.823-1.612 1.703-3.02 2.498-3.999.917-1.13 1.043-1.33 1.504-2.396.231-.537.647-1.325.923-1.751l.502-.776-.65-.638c-.863-.849-1.58-1.81-1.716-2.3-.138-.5.025-.778.673-1.153.656-.378 1.125-.487 2.877-.667.853-.088 1.78-.249 2.071-.36.29-.11 1.158-.582 1.928-1.049 2.222-1.347 2.41-1.417 3.743-1.388 1.125.025 1.127.024 1.795-.38 1.398-.844 3.406-2.37 6.05-4.593.506-.427.994-.761 1.084-.744.374.072 1.06 1.756 1.164 2.858.064.668-.065 1.328-.462 2.362-.108.282-.158.55-.11.598.113.113.502-.373.502-.627 0-.325.214-.362.507-.088.212.2.395.256.822.256.466 0 .582.044.764.287.308.412.38 1.535.145 2.246-.23.693-.925 1.49-1.556 1.787-.564.266-1.707 1.381-2.242 2.189-.204.309-.588.954-.852 1.432a23.842 23.842 0 0 1-.986 1.607c-.546.798-1.014 1.91-1.465 3.485-.265.925-.288 1.166-.298 3.23-.014 2.493-.143 3.104-.817 3.872-.766.872-1.53 2.789-1.595 3.997-.04.763-.158 1.506-.325 2.057-.073.242.064.24.882-.019z" fill="url(#t)"/><path d="M32.071 10.762c-3.643 0-6.512.63-9.646 2.115-6.738 3.193-11.43 9.589-12.506 17.045-.115.8-.165 2.03-.157 3.256.007-1.056.057-2.082.157-2.776 1.076-7.456 5.768-13.852 12.506-17.045 3.134-1.485 6.003-2.115 9.646-2.115 5.892 0 11.122 2.111 15.36 6.2 2.042 1.97 3.41 3.839 4.583 6.255 1.555 3.205 2.199 6.007 2.223 9.652.001-.09.006-.179.006-.269 0-3.751-.643-6.595-2.23-9.863-1.172-2.416-2.54-4.285-4.582-6.255-4.238-4.089-9.468-6.2-15.36-6.2zm11.288 8.837c-.09-.018-.578.317-1.085.743-2.642 2.224-4.651 3.749-6.05 4.594-.667.403-.668.403-1.794.379-1.332-.029-1.521.041-3.744 1.389-.77.466-1.637.938-1.927 1.049-.292.11-1.219.27-2.072.358-1.752.18-2.22.29-2.876.668-.63.364-.796.643-.678 1.117.08-.223.29-.413.678-.636.655-.38 1.124-.488 2.876-.669.854-.087 1.78-.247 2.072-.358.29-.11 1.158-.582 1.927-1.049 2.223-1.347 2.412-1.418 3.744-1.389 1.126.025 1.127.025 1.794-.379 1.399-.845 3.408-2.37 6.05-4.594.507-.426.995-.76 1.085-.743.374.072 1.061 1.755 1.165 2.856.003.029 0 .058.002.087a3.42 3.42 0 0 0-.002-.567c-.104-1.101-.791-2.784-1.165-2.856zm1.237 4.922c-.09.016-.143.106-.143.268 0 .214-.273.587-.428.635-.074.228-.114.433-.075.473.113.112.503-.373.503-.627 0-.324.215-.362.507-.088.212.199.395.257.822.257.466 0 .581.042.763.285.148.197.24.562.27.963.027-.576-.063-1.168-.27-1.443-.182-.243-.297-.286-.763-.286-.427 0-.61-.058-.822-.257-.146-.137-.274-.195-.364-.18zm-19.282 8.644-.312.48a14.38 14.38 0 0 0-.923 1.75c-.46 1.067-.588 1.27-1.505 2.4-.795.978-1.673 2.386-2.496 3.998-.704 1.379-1.041 1.735-2.333 2.474-.722.413-.696.426-1.514-.807-1.499-2.26-2.534-4.954-2.948-7.68-.095-.623-.14-1.561-.146-2.523-.01 1.13.035 2.274.146 3.004.414 2.726 1.45 5.42 2.948 7.679.818 1.234.792 1.22 1.514.807 1.292-.74 1.63-1.095 2.333-2.473.823-1.612 1.701-3.021 2.496-4 .917-1.129 1.045-1.331 1.505-2.398.231-.536.647-1.324.923-1.75l.501-.776zm25.535.944c-.013.502-.038.96-.083 1.319-.392 3.144-1.726 6.4-3.685 9-.723.958-2.447 2.7-3.444 3.477-1.875 1.462-3.817 2.47-6.2 3.222-.447.141-.686.203-.803.194-.026.104-.05.211-.08.305-.073.243.065.24.883-.018 2.383-.752 4.325-1.76 6.2-3.222.997-.778 2.721-2.52 3.444-3.478 1.96-2.6 3.293-5.856 3.685-9 .059-.468.078-1.112.083-1.8z" fill="#fff" fill-opacity=".57"/><path d="M0 1v2.5l2-2zM64 3.5l-2-2 2-.5z" fill="#fffeff" fill-opacity=".45"/></svg>