<?xml version="1.0" encoding="UTF-8"?>
<svg width="64" height="64" version="1.1" xmlns="http://www.w3.org/2000/svg" xmlns:cc="http://creativecommons.org/ns#" xmlns:dc="http://purl.org/dc/elements/1.1/" xmlns:rdf="http://www.w3.org/1999/02/22-rdf-syntax-ns#" xmlns:xlink="http://www.w3.org/1999/xlink">
	<defs>
		<linearGradient id="linearGradient1023">
			<stop stop-color="#baf3ff" stop-opacity=".16611" offset="0"/>
			<stop stop-color="#31b7ff" stop-opacity="0" offset="1"/>
		</linearGradient>
		<radialGradient id="b" cx="37.338" cy="41.714" r="32" gradientTransform="matrix(1.0524 0 0 1.0195 -1.933 -.90663)" gradientUnits="userSpaceOnUse">
			<stop stop-color="#009be7" offset="0"/>
			<stop stop-color="#00c5ee" offset="1"/>
		</radialGradient>
		<radialGradient id="radialGradient5872" cx="28.444" cy="-1.6669" r="31.76" gradientTransform="matrix(6.4121e-7 .99121 -5.067 -.00044563 23.674 -26.197)" gradientUnits="userSpaceOnUse" xlink:href="#linearGradient1023"/>
		<radialGradient id="radialGradient5874" cx="28.444" cy="-1.6671" r="31.762" gradientTransform="matrix(5.8289e-7 .99114 -5.0667 -.0004456 23.673 -26.196)" gradientUnits="userSpaceOnUse" xlink:href="#linearGradient1023"/>
		<radialGradient id="radialGradient5876" cx="28.444" cy="-1.6675" r="31.766" gradientTransform="matrix(6.1632e-7 .99103 -5.0661 -.00044555 23.672 -26.192)" gradientUnits="userSpaceOnUse" xlink:href="#linearGradient1023"/>
		<radialGradient id="radialGradient5878" cx="28.444" cy="-1.6681" r="31.771" gradientTransform="matrix(6.2162e-7 .99087 -5.0653 -.00044545 23.67 -26.188)" gradientUnits="userSpaceOnUse" xlink:href="#linearGradient1023"/>
		<radialGradient id="radialGradient5880" cx="28.444" cy="-1.6689" r="31.778" gradientTransform="matrix(5.5929e-7 .99065 -5.0642 -.00044538 23.668 -26.182)" gradientUnits="userSpaceOnUse" xlink:href="#linearGradient1023"/>
		<radialGradient id="radialGradient5882" cx="28.444" cy="-1.6699" r="31.787" gradientTransform="matrix(5.6994e-7 .99038 -5.0628 -.00044526 23.665 -26.174)" gradientUnits="userSpaceOnUse" xlink:href="#linearGradient1023"/>
		<radialGradient id="radialGradient5884" cx="28.444" cy="-1.6711" r="31.797" gradientTransform="matrix(5.0171e-7 .99006 -5.0612 -.00044512 23.662 -26.165)" gradientUnits="userSpaceOnUse" xlink:href="#linearGradient1023"/>
		<radialGradient id="radialGradient5886" cx="28.444" cy="-1.6725" r="31.809" gradientTransform="matrix(4.7754e-7 .98969 -5.0592 -.0004449 23.658 -26.154)" gradientUnits="userSpaceOnUse" xlink:href="#linearGradient1023"/>
		<radialGradient id="radialGradient5888" cx="28.444" cy="-1.6741" r="31.823" gradientTransform="matrix(4.7213e-7 .98926 -5.057 -.00044475 23.654 -26.142)" gradientUnits="userSpaceOnUse" xlink:href="#linearGradient1023"/>
		<radialGradient id="radialGradient5890" cx="28.444" cy="-1.6759" r="31.839" gradientTransform="matrix(4.3537e-7 .98877 -5.0545 -.00044453 23.649 -26.128)" gradientUnits="userSpaceOnUse" xlink:href="#linearGradient1023"/>
		<radialGradient id="radialGradient5892" cx="28.444" cy="-1.6779" r="31.856" gradientTransform="matrix(3.4777e-7 .98823 -5.0518 -.00044428 23.643 -26.113)" gradientUnits="userSpaceOnUse" xlink:href="#linearGradient1023"/>
		<radialGradient id="radialGradient5894" cx="28.444" cy="-1.6755" r="31.875" gradientTransform="matrix(3.5731e-7 .98763 -5.0487 -.00044402 23.661 -26.096)" gradientUnits="userSpaceOnUse" xlink:href="#linearGradient1023"/>
		<radialGradient id="radialGradient5896" cx="28.444" cy="-1.6779" r="31.897" gradientTransform="matrix(2.8749e-7 .98697 -5.0454 -.00044369 23.654 -26.077)" gradientUnits="userSpaceOnUse" xlink:href="#linearGradient1023"/>
		<radialGradient id="radialGradient5898" cx="28.444" cy="-1.672" r="31.92" gradientTransform="matrix(1.9708e-7 .98626 -5.0417 -.0004434 23.69 -26.057)" gradientUnits="userSpaceOnUse" xlink:href="#linearGradient1023"/>
		<radialGradient id="radialGradient5900" cx="28.444" cy="-1.6748" r="31.944" gradientTransform="matrix(1.0593e-7 .98549 -5.0378 -.00044305 23.682 -26.035)" gradientUnits="userSpaceOnUse" xlink:href="#linearGradient1023"/>
		<radialGradient id="radialGradient5902" cx="28.444" cy="-1.6779" r="31.971" gradientTransform="matrix(7.0483e-8 .98467 -5.0336 -.00044267 23.674 -26.011)" gradientUnits="userSpaceOnUse" xlink:href="#linearGradient1023"/>
		<radialGradient id="radialGradient5868" cx="28.444" cy="-1.6812" r="32" gradientTransform="matrix(0 .98378 -5.029 -.00044225 23.665 -25.986)" gradientUnits="userSpaceOnUse" xlink:href="#linearGradient1023"/>
		<radialGradient id="radialGradient5870" cx="28.444" cy="-1.6668" r="31.76" gradientTransform="matrix(6.3999e-7 .99123 -5.0671 -.00044562 23.674 -26.198)" gradientUnits="userSpaceOnUse" xlink:href="#linearGradient1023"/>
		<radialGradient id="radialGradient5934" cx="32.519" cy="1.4495" r="31.76" gradientTransform="matrix(0 .020126 -1.1971 -8.9895e-7 34.255 1.3031)" gradientUnits="userSpaceOnUse">
			<stop stop-color="#cdf4ff" stop-opacity=".9646" offset="0"/>
			<stop stop-color="#b7f5ff" stop-opacity="0" offset="1"/>
		</radialGradient>
		<radialGradient id="radialGradient31839" cx="28.277" cy="39.641" r="22.103" gradientTransform="matrix(1.8485 0 0 .74523 -23.512 6.3753)" gradientUnits="userSpaceOnUse">
			<stop stop-color="#c4dfff" offset="0"/>
			<stop stop-color="#dff9ff" offset="1"/>
		</radialGradient>
	</defs>
	<metadata>
		<rdf:RDF>
			<cc:Work rdf:about="">
				<dc:format>image/svg+xml</dc:format>
				<dc:type rdf:resource="http://purl.org/dc/dcmitype/StillImage"/>
			</cc:Work>
		</rdf:RDF>
	</metadata>
	<rect width="64" height="64" rx="1" ry="1" fill="url(#b)" style="paint-order:fill markers stroke"/>
	<g transform="translate(0 .27202)" fill="#001378" opacity=".52637">
		<path d="m21.91 41.613v-3.0408h-7.675v-14.511h-3.6733v17.552zm8e-3 2e-4m9.4095 0.2917c4.3872 0 7.0729-2.1632 7.0729-5.5903 0.0038 0 0.0061-0.0018 0.0061-0.0048 0-2.6614-1.6163-4.1562-5.3229-4.8975 0-0.0023-0.0014-0.0036-0.0046-0.0042l-1.8594-0.3768-0.0016-3e-4c-2.0659-0.4132-2.9166-1.0816-2.9166-2.1632-0.0018-3e-4 -0.0025-9e-4 -0.0025-0.0018 0-1.2882 1.2153-2.1389 3.026-2.1389 0-0.0011 0.0011-0.0018 0.0026-0.0018 1.8472 0 3.1476 0.8993 3.2691 2.394 0.0016 0 0.0027 8e-4 0.0028 0.0021h3.4635 3e-3c-0.0607-3.2205-2.6371-5.3594-6.7326-5.3594-1e-4 -0.0027-0.0023-0.0046-0.0058-0.0046-3.901 0-6.6962 2.1268-6.6962 5.3351-0.0033 0-0.0057 0.0018-0.0057 0.0046 0 2.6128 1.7135 4.2899 5.2135 4.9826 0 0.0023 0.0015 0.0037 0.0045 0.0043l1.8472 0.3646 0.0016 3e-4c2.1997 0.4496 3.026 1.1059 3.026 2.2604 0.0019 4e-4 0.0026 9e-4 0.0026 0.0019 0 1.2882-1.3368 2.2361-3.2934 2.2361 0 0.0011-0.0011 2e-3 -0.0028 2e-3 -1.993 0-3.4757-0.875-3.7066-2.3455-0.0017 0-3e-3 -8e-4 -0.0032-2e-3h-3.4635-3e-3c0.1094 3.3055 2.8924 5.2986 7.0729 5.2986 1e-4 0.0028 0.0025 0.0045 0.0061 0.0045m13.886-0.2917m0.0119-2e-4v-0.0058-5.5285h0.0035 3.2806c0.0034 0 0.0058-2e-3 6e-3 -0.0051 3.6941-3e-4 6.258-2.4065 6.258-6.0035 0-0.0033-0.0021-0.0056-0.0052-0.0058-3e-4 -3.609-2.4794-6.0028-6.0764-6.0028h-0.0064-7.1333v0.0159 17.536h0.0038 3.6694m2.4792-8.3976m0.0021-0.0072h-0.0025-2.4788v-0.0056-6.2341h0.0026 2.4909c0.0021 0 0.0034 1e-3 0.0036 0.0027 2.102 3e-4 3.3169 1.1183 3.3169 3.1111 0 2e-3 -1e-3 0.0032-0.0028 0.0034-3e-4 2.0048-1.2277 3.1225-3.3299 3.1225" fill-opacity=".039978" opacity="1" stop-color="#000000" style="-inkscape-stroke:none;font-variation-settings:normal;paint-order:fill markers stroke"/>
		<path d="m21.919 41.625v-3.042h-7.678v-14.516h-3.6747v17.558zm0.0346 1e-3m9.3866 0.291c4.3765 0 7.0557-2.158 7.0557-5.5767 0.0162 0 0.0261-8e-3 0.0261-0.0206 0-2.655-1.6124-4.1461-5.31-4.8856 0-0.0098-6e-3 -0.0153-0.0196-0.0181l-1.8549-0.3758-0.0068-0.0014c-2.0609-0.4122-2.9096-1.0789-2.9096-2.1579-0.0076-0.0015-0.0107-4e-3 -0.0107-8e-3 0-1.285 1.2123-2.1337 3.0187-2.1337 0-0.0047 0.0045-0.0078 0.0111-0.0078 1.8428 0 3.1399 0.8971 3.2612 2.3883 0.0068 0 0.0116 0.0033 0.012 0.0088h3.4551 0.0128c-0.0607-3.2127-2.6308-5.3464-6.7163-5.3464-2e-4 -0.0118-0.0097-0.0197-0.0248-0.0197-3.8915 0-6.6799 2.1216-6.6799 5.3221-0.0143 0-0.0246 0.0078-0.0246 0.0196 0 2.6065 1.7093 4.2795 5.2008 4.9706 0 0.0096 0.0064 0.0157 0.0192 0.0183l1.8428 0.3637 0.0068 0.0013c2.1943 0.4486 3.0186 1.1032 3.0186 2.255 0.0081 0.0016 0.0112 4e-3 0.0112 0.0083 0 1.285-1.3336 2.2306-3.2854 2.2306 0 0.0048-0.0049 0.0083-0.0121 0.0083-1.9883 0-3.4673-0.8729-3.6976-2.3398-0.0074 0-0.0128-0.0032-0.0137-0.0086h-3.4551-0.0127c0.1091 3.2975 2.8853 5.2857 7.0557 5.2857 4e-4 0.0122 0.0106 0.0195 0.026 0.0195m13.852-0.291m0.0511-1e-3v-0.0214-5.5151h0.0127 3.2726c0.0139 0 0.0235-0.0088 0.0237-0.0221 3.6852-2e-4 6.2428-2.4006 6.2428-5.9888 0-0.0135-0.0091-0.0226-0.0223-0.0228-3e-4 -3.6002-2.4734-5.9882-6.0616-5.9882h-0.0266-7.116v0.0653 17.493h0.0141 3.6606m2.4731-8.3772m0.0092-0.0309h-0.0096-2.4727v-0.0232-6.219h0.0096 2.4848c8e-3 0 0.0127 0.0041 0.013 0.0115 2.0969 3e-4 3.3089 1.1156 3.3089 3.1035 0 0.0077-0.0045 0.012-0.0123 0.0123-3e-4 1.9998-1.2247 3.1149-3.3217 3.1149" fill-opacity=".039904" opacity="1" stop-color="#000000" style="-inkscape-stroke:none;font-variation-settings:normal;paint-order:fill markers stroke"/>
		<path d="m21.935 41.646v-3.0441h-7.6833v-14.526h-3.6772v17.57h11.36m0.0811 0.0025m9.3466 0.2898c4.3578 0 7.0256-2.1488 7.0256-5.553 0.0379 0 0.061-0.0186 0.061-0.0481 0-2.6437-1.6055-4.1285-5.2873-4.8649 0-0.0229-0.014-0.0358-0.0459-0.0422l-1.847-0.3742-0.016-0.0033c-2.0522-0.4104-2.8972-1.0743-2.8972-2.1487-0.0178-0.0036-0.0251-0.0093-0.0251-0.0187 0-1.2795 1.2071-2.1246 3.0058-2.1246 0-0.0111 0.0105-0.0184 0.0261-0.0184 1.8349 0 3.1265 0.8933 3.2472 2.3781 0.016 0 0.0272 0.0078 0.0282 0.0206h3.4404 0.0299c-0.0604-3.1989-2.6196-5.3235-6.6877-5.3235-5e-4 -0.0278-0.0227-0.0462-0.058-0.0462-3.875 0-6.6514 2.1125-6.6514 5.2994-0.0337 0-0.0578 0.0183-0.0578 0.046 0 2.5954 1.7021 4.2613 5.1787 4.9493 0 0.0226 0.0148 0.037 0.045 0.043l1.8349 0.3621 0.0159 0.0032c2.1849 0.4466 3.0058 1.0985 3.0058 2.2453 0.019 0.0039 0.0261 0.0095 0.0261 0.0195 0 1.2796-1.3279 2.2211-3.2714 2.2211 0 0.0111-0.0115 0.0193-0.0284 0.0193-1.9797 0-3.4525-0.8691-3.6818-2.3298-0.0172 0-0.03-0.0075-0.032-0.0202h-3.4404-0.0298c0.1086 3.2835 2.873 5.2632 7.0256 5.2632 1e-3 0.0285 0.025 0.0457 0.061 0.0457m13.793-0.2898m0.1197-0.0025v-0.0486-5.4916h0.0289 3.2587c0.0321 0 0.0544-0.0207 0.0547-0.0517 3.6693-3e-4 6.2161-2.3904 6.2161-5.9634 0-0.0313-0.0213-0.0522-0.0523-0.0524-3e-4 -3.5849-2.4629-5.9627-6.0358-5.9627h-0.0618-7.0857v0.152 17.418h0.0323 3.6449m2.4626-8.3414m0.0214-0.0724h-0.0218-2.4622v-0.054-6.1925h0.0219 2.4743c0.0183 0 0.0291 0.0097 0.0293 0.0269 2.0879 2e-4 3.2948 1.1108 3.2948 3.0903 0 0.0175-0.0106 0.0274-0.0287 0.0276-3e-4 1.9914-1.2195 3.1017-3.3076 3.1017" fill-opacity=".039776" opacity="1" stop-color="#000000" style="-inkscape-stroke:none;font-variation-settings:normal;paint-order:fill markers stroke"/>
		<path d="m21.959 41.676v-3.0471h-7.6909v-14.541h-3.6809v17.588h11.372m0.1484 0.0046m9.2887 0.2879c4.3308 0 6.9821-2.1354 6.9821-5.5185 0.0692 0 0.1115-0.0341 0.1115-0.0882 0-2.6272-1.5956-4.1028-5.2546-4.8347 0-0.0419-0.0255-0.0655-0.0839-0.0772l-1.8355-0.3719c-5e-4 -1e-4 -0.0293-0.0059-0.0293-0.0059-2.0395-0.4079-2.8793-1.0677-2.8793-2.1355-0.0325-0.0065-0.046-0.017-0.046-0.0341 0-1.2716 1.1997-2.1114 2.9872-2.1114 0-0.0203 0.0192-0.0337 0.0478-0.0337 1.8235 0 3.1071 0.8877 3.2271 2.3633 0.0291 0 0.0496 0.0142 0.0515 0.0378h3.4191 0.0546c-0.0599-3.1792-2.6033-5.2906-6.6462-5.2906-9e-4 -0.0508-0.0416-0.0845-0.1061-0.0845-3.851 0-6.6103 2.0994-6.6103 5.2666-0.0615 0-0.1056 0.0335-0.1056 0.0841 0 2.5793 1.6916 4.2349 5.1466 4.9187 0 0.0412 0.0271 0.0676 0.0823 0.0786l1.8235 0.3599 0.0291 0.0057c2.1714 0.4439 2.9872 1.0917 2.9872 2.2314 0.0347 0.0071 0.0477 0.0175 0.0477 0.0357 0 1.2716-1.3196 2.2074-3.2511 2.2074 0 0.0203-0.0211 0.0352-0.0519 0.0352-1.9675 0-3.4311-0.8637-3.6591-2.3153-0.0314 0-0.0548-0.0138-0.0584-0.037h-3.4191-0.0546c0.108 3.2631 2.8552 5.2306 6.9821 5.2306 0.0017 0.0521 0.0456 0.0835 0.1116 0.0835m13.708-0.2879m0.219-0.0046v-0.0882-5.4575h0.0524 3.2385c0.0585 0 0.0991-0.038 0.0994-0.0947 3.6466-3e-4 6.1776-2.3756 6.1776-5.9264 0-0.0572-0.0391-0.0951-0.0958-0.0954-3e-4 -3.5626-2.4476-5.9257-5.9984-5.9257h-0.1128-7.0418v0.2774 17.31h0.0586 3.6223m2.4473-8.2898m0.0392-0.1324h-0.0396-2.4469v-0.0986-6.1541h0.0398 2.4588c0.0335 0 0.0529 0.0177 0.0531 0.0491 2.075 3e-4 3.2744 1.1039 3.2744 3.0712 0 0.0318-0.0194 0.0497-0.0525 0.05-3e-4 1.979-1.212 3.0824-3.2871 3.0824" fill-opacity=".03959" opacity="1" stop-color="#000000" style="-inkscape-stroke:none;font-variation-settings:normal;paint-order:fill markers stroke"/>
		<path d="m21.99 41.716v-3.0511h-7.701v-14.56h-3.6857v17.611h11.387m0.2371 0.0074m9.2123 0.2855c4.2952 0 6.9247-2.1178 6.9247-5.4731 0.1106 0 0.1783-0.0545 0.1783-0.1409 0-2.6057-1.5825-4.0691-5.2114-4.7949 0-0.0671-0.0408-0.1048-0.1342-0.1234l-1.8204-0.3689c-7e-4 -1e-4 -0.0468-0.0095-0.0468-0.0095-2.0227-0.4045-2.8556-1.0589-2.8556-2.1178-0.052-0.0105-0.0735-0.0273-0.0735-0.0545 0-1.2613 1.1898-2.0941 2.9626-2.0941 1e-4 -0.0325 0.0307-0.0539 0.0763-0.0539 1.8085 0 3.0816 0.8804 3.2006 2.3439 0.0466 0 0.0793 0.0227 0.0824 0.0603h3.391 0.0872c-0.0595-3.153-2.5819-5.247-6.5915-5.247-0.0016-0.0812-0.0665-0.1351-0.1697-0.1351-3.8193 0-6.5559 2.0822-6.5559 5.2233-0.0983 0-0.1687 0.0536-0.1687 0.1344 0 2.5581 1.6776 4.2001 5.1043 4.8783 0 0.0658 0.0432 0.1081 0.1314 0.1255l1.8085 0.357c7e-4 1e-4 0.0465 0.0092 0.0465 0.0092 2.1536 0.4402 2.9627 1.0827 2.9627 2.213 0.0554 0.0113 0.0762 0.0279 0.0762 0.057 0 1.2612-1.3088 2.1892-3.2244 2.1892 0 0.0325-0.0337 0.0564-0.083 0.0564-1.9513 0-3.4028-0.8567-3.6289-2.2964-0.0502 0-0.0876-0.022-0.0934-0.0591h-3.391-0.0872c0.107 3.2363 2.8317 5.1876 6.9247 5.1876 0.0027 0.0833 0.0729 0.1335 0.1782 0.1335m13.595-0.2855m0.3499-0.0074v-0.1403-5.4127h0.0833 3.2119c0.0933 0 0.1581-0.0606 0.1584-0.1512 3.6166-3e-4 6.1268-2.3561 6.1268-5.8777 0-0.0912-0.0625-0.1517-0.1531-0.152-3e-4 -3.5333-2.4274-5.877-5.9491-5.877h-0.1801-6.9838v0.4427 17.168h0.0931 3.5926m2.4272-8.2216m0.0625-0.2116h-0.0629-2.4268v-0.1574-6.1034h0.0632 2.4387c0.0532 0 0.0841 0.0281 0.0843 0.0784 2.058 2e-4 3.2475 1.0948 3.2475 3.0459 0 0.0508-0.0309 0.0792-0.0839 0.0794-3e-4 1.9628-1.202 3.0571-3.2601 3.0571" fill-opacity=".039345" opacity="1" stop-color="#000000" style="-inkscape-stroke:none;font-variation-settings:normal;paint-order:fill markers stroke"/>
		<path d="m22.029 41.765v-3.0561h-1e-4 -7.7135v-14.584h-3.6917v1e-4 17.64h11.405m0.3477 0.0107m9.1171 0.2826c4.2508 0 6.8531-2.0959 6.8531-5.4165 0.1622 0 0.2614-0.08 0.2614-0.2066 0-2.5788-1.5661-4.0271-5.1575-4.7454 0-0.0984-0.0597-0.1536-0.1967-0.181l-1.8016-0.365c-0.0011-2e-4 -0.0687-0.014-0.0687-0.014-2.0018-0.4003-2.8261-1.0479-2.8261-2.0959-0.0763-0.0153-0.1078-0.04-0.1078-0.08 0-1.2481 1.1776-2.0724 2.9321-2.0724 0-0.0476 0.0449-0.079 0.1118-0.079 1.7898 0 3.0498 0.8713 3.1675 2.3197 0.0683 0 0.1163 0.0332 0.1208 0.0884h3.356 0.1279c-0.0588-3.1204-2.5552-5.1928-6.5234-5.1928-0.0023-0.119-0.0975-0.1981-0.2488-0.1981-3.7798 0-6.4881 2.0607-6.4881 5.1693-0.1442 0-0.2475 0.0786-0.2475 0.1972 0 2.5317 1.6603 4.1566 5.0516 4.8278 0 0.0966 0.0633 0.1585 0.1926 0.1841l1.7899 0.3533c1e-3 2e-4 0.0682 0.0135 0.0682 0.0135 2.1313 0.4356 2.932 1.0715 2.9321 2.1901 0.0812 0.0167 0.1118 0.0409 0.1118 0.0836 0 1.2481-1.2953 2.1666-3.1911 2.1666 0 0.0476-0.0494 0.0826-0.1217 0.0826-1.9312 0-3.3677-0.8478-3.5915-2.2726-0.0736 0-0.1284-0.0323-0.1369-0.0866h-3.356-0.1279c0.1059 3.2028 2.8025 5.1339 6.8531 5.1339 0.0041 0.1222 0.1069 0.1958 0.2614 0.1958m13.454-0.2826m0.5132-0.0107v-0.2054-5.3567h0.1218 3.1788c0.1367 0 0.2317-0.0889 0.2319-0.2219 3.5793-2e-4 6.0635-2.3316 6.0635-5.8169 0-0.1336-0.0916-0.2223-0.2245-0.2225-3e-4 -3.4968-2.4024-5.8163-5.8876-5.8163h-0.2639-6.9117v0.6489 16.991h0.1363 3.5554m2.4021-8.1367m0.0917-0.3103h-0.0921-2.4017v-0.2307-6.0404h0.0925 2.4135c0.0779 0 0.1231 0.0414 0.1233 0.115 2.0367 3e-4 3.2139 1.0836 3.2139 3.0145 0 0.0743-0.0454 0.1159-0.1231 0.1161-3e-4 1.9424-1.1895 3.0255-3.2263 3.0255" fill-opacity=".03904" opacity="1" stop-color="#000000" style="-inkscape-stroke:none;font-variation-settings:normal;paint-order:fill markers stroke"/>
		<path d="m22.075 41.824v-3.062h-1e-4 -7.7285v-14.612h-1e-4 -3.6989v1e-4 17.674h11.428m0.4806 0.0149m9.0027 0.2791c4.1975 0 6.7671-2.0697 6.7672-5.3486 0.224 0 0.3612-0.1105 0.3612-0.2856 0-2.5464-1.5464-3.9765-5.0928-4.6858 0-0.1359-0.0825-0.2123-0.2719-0.2502l-1.779-0.3604c-0.0014-3e-4 -0.0949-0.0193-0.0949-0.0193-1.9767-0.3953-2.7906-1.0348-2.7906-2.0696-0.1056-0.0211-0.149-0.0553-0.149-0.1105 0-1.2325 1.1627-2.0465 2.8952-2.0465 0-0.0658 0.0621-0.1092 0.1546-0.1092 1.7674 0 3.0115 0.8604 3.1278 2.2906 0.0943 0 0.1607 0.0459 0.167 0.1223h3.3138 0.1769c-0.0582-3.0813-2.5232-5.1277-6.4416-5.1277-0.0031-0.1645-0.1347-0.2738-0.3439-0.2738-3.7324 0-6.4067 2.0348-6.4067 5.1045-0.1993 0-0.342 0.1086-0.342 0.2725 0 2.4999 1.6394 4.1045 4.9881 4.7672 0 0.1335 0.0875 0.2191 0.2663 0.2545l1.7674 0.3489c0.0014 2e-4 0.0943 0.0186 0.0943 0.0186 2.1046 0.4302 2.8953 1.0581 2.8953 2.1627 0.1123 0.0229 0.1545 0.0565 0.1545 0.1154 0 1.2325-1.279 2.1395-3.151 2.1395 0 0.0658-0.0683 0.1142-0.1682 0.1142-1.9069 0-3.3255-0.8372-3.5464-2.2441-0.1018 0-0.1775-0.0447-0.1893-0.1198h-3.3138-0.1769c0.1046 3.1627 2.7673 5.0696 6.7671 5.0696 0.0056 0.1688 0.1478 0.2706 0.3613 0.2706m13.286-0.2791m0.7093-0.0149v-0.2834-5.2895h0.1682 3.1388c0.189 0 0.3202-0.1229 0.3204-0.3066 3.5344-3e-4 5.9874-2.3025 5.9874-5.744 0-0.1846-0.1266-0.3071-0.3104-0.3073-3e-4 -3.4529-2.3722-5.7433-5.8137-5.7433h-0.3647-6.8249v0.8966 16.778h0.1881 3.5108m2.372-8.0345m0.1266-0.4289h-0.127-2.3716v-0.3188-5.9645h0.1277 2.3832c0.1076 0 0.17 0.0571 0.1702 0.1589 2.0111 2e-4 3.1735 1.0699 3.1735 2.9766 0 0.1027-0.0627 0.16-0.1701 0.1602-2e-4 1.9181-1.1746 2.9876-3.1859 2.9876" fill-opacity=".038673" opacity="1" stop-color="#000000" style="-inkscape-stroke:none;font-variation-settings:normal;paint-order:fill markers stroke"/>
		<path d="m22.13 41.894v-3.0691h-7.7462v-14.645h-1e-4 -3.7073v17.714h11.454m0.6362 0.0197m8.8688 0.2749c4.1351 0 6.6665-2.0389 6.6665-5.269 0.2966-1e-4 0.4782-0.1463 0.4782-0.378 0-2.5086-1.5234-3.9175-5.017-4.6162 0-0.1799-0.1093-0.281-0.3599-0.3311l-1.7526-0.3551c-0.0019-4e-4 -0.1257-0.0255-0.1257-0.0255-1.9472-0.3894-2.7491-1.0194-2.7491-2.0389-0.1396-0.0279-0.1972-0.0731-0.1972-0.1462 0-1.2142 1.1455-2.016 2.8522-2.016 0-0.0871 0.0822-0.1446 0.2046-0.1446 1.7411 0 2.9667 0.8476 3.0813 2.2565 0.1249 0 0.2128 0.0608 0.221 0.1619h3.2645 0.2342c-0.0573-3.0355-2.4856-5.0515-6.3458-5.0515-0.0041-0.2177-0.1783-0.3623-0.4552-0.3623-3.6769 0-6.3114 2.0045-6.3114 5.0285-0.2638 0-0.4527 0.1438-0.4527 0.3607 0 2.4627 1.615 4.0434 4.9139 4.6963 0 0.1767 0.1159 0.2901 0.3525 0.3369l1.7411 0.3437c0.0019 3e-4 0.1249 0.0246 0.1249 0.0246 2.0733 0.4238 2.8522 1.0424 2.8522 2.1305 0.1487 0.0304 0.2045 0.0748 0.2045 0.1529 0 1.2141-1.2599 2.1076-3.1041 2.1076 0 0.0871-0.0904 0.1512-0.2227 0.1512-1.8785 0-3.276-0.8247-3.4936-2.2107-0.1348 0-0.235-0.0592-0.2506-0.1586h-3.2646-0.2341c0.1031 3.1156 2.7261 4.9941 6.6665 4.9941 0.0074 0.2235 0.1955 0.3583 0.4782 0.3583m13.088-0.2749m0.9389-0.0197v-0.3749-5.2108h0.2224 3.0921c0.2501 0 0.4237-0.1627 0.4239-0.4059 3.4818-3e-4 5.8984-2.2682 5.8984-5.6585 0-0.2443-0.1677-0.4064-0.4109-0.4066-3e-4 -3.4016-2.3369-5.6578-5.7272-5.6578h-0.4827-6.7234v1.1865 16.528h0.2488 3.4586m2.3367-7.915m0.1676-0.5679h-0.168-2.3363v-0.4218-5.8758h0.1689 2.3477c0.1424 0 0.2248 0.0756 0.2251 0.2104 1.9811 2e-4 3.1263 1.054 3.1263 2.9323 0 0.1358-0.083 0.2116-0.2252 0.2119-3e-4 1.8895-1.1571 2.943-3.1385 2.943" fill-opacity=".038243" opacity="1" stop-color="#000000" style="-inkscape-stroke:none;font-variation-settings:normal;paint-order:fill markers stroke"/>
		<path d="m22.192 41.974v-3.077h-7.7665v-1e-4 -14.684h-1e-4 -3.717v1e-4 17.761h11.484m0.8148 0.0253m8.7151 0.2701c4.0634 0 6.5509-2.0035 6.551-5.1777 0.3798 0 0.6124-0.1873 0.6124-0.4841 0-2.465-1.4971-3.8495-4.9301-4.5361-1e-4 -0.2305-0.14-0.3599-0.461-0.4241l-1.7221-0.3489c-0.0025-5e-4 -0.161-0.0326-0.161-0.0326-1.9135-0.3827-2.7015-1.0018-2.7015-2.0036-0.1789-0.0358-0.2525-0.0937-0.2525-0.1873 0-1.1932 1.1256-1.9811 2.8027-1.9811 0-0.1115 0.1053-0.1852 0.2621-0.1852 1.7109 0 2.9153 0.833 3.0279 2.2175 0.1599 0 0.2725 0.0778 0.283 0.2073h3.208 0.2998c-0.0563-2.9829-2.4425-4.9639-6.2358-4.9639-0.0052-0.2789-0.2283-0.4641-0.5829-0.4641-3.6132 0-6.2021 1.9698-6.2021 4.9414-0.3378 0-0.5798 0.1841-0.5798 0.4619 0 2.4201 1.5871 3.9734 4.8288 4.615 0 0.2262 0.1484 0.3714 0.4514 0.4314l1.711 0.3377c0.0024 5e-4 0.1599 0.0316 0.1599 0.0316 2.0373 0.4164 2.8028 1.0243 2.8028 2.0936 0.1904 0.0389 0.262 0.0957 0.262 0.1957 0 1.1931-1.2382 2.0711-3.0504 2.0711 0 0.1116-0.1158 0.1936-0.2852 0.1936-1.846 0-3.2192-0.8104-3.4331-2.1724-0.1725 0-0.3009-0.0758-0.3209-0.2031h-3.208-0.2998c0.1013 3.0617 2.6789 4.9076 6.5509 4.9077 0.0095 0.2862 0.2505 0.4587 0.6125 0.4587m12.861-0.2701m1.2024-0.0253v-0.4797-5.1205h0.2847 3.0386c0.3201 0 0.5423-0.2084 0.5425-0.5199 3.4215-2e-4 5.7962-2.2288 5.7962-5.5604 0-0.3127-0.2147-0.5203-0.5262-0.5205-3e-4 -3.3426-2.2964-5.5598-5.6279-5.5598h-0.618-6.607v1.5193 16.242h0.3185 3.3986m2.2962-7.7778m0.2147-0.7272h-0.2151-2.2958v-0.5401-5.774h0.2162 2.307c0.1823 0 0.2878 0.0968 0.288 0.2694 1.9469 3e-4 3.0722 1.0358 3.0722 2.8815 0 0.1739-0.1063 0.2709-0.2884 0.2711-2e-4 1.8568-1.1371 2.8921-3.0841 2.8921" fill-opacity=".03775" opacity="1" stop-color="#000000" style="-inkscape-stroke:none;font-variation-settings:normal;paint-order:fill markers stroke"/>
		<path d="m22.263 42.064v-3.0862h-7.7894v-14.727h-3.728v1e-4 17.813h11.517m1.0166 0.0315m8.5414 0.2647c3.9824 0 6.4204-1.9636 6.4205-5.0745 0.4739 0 0.764-0.2337 0.764-0.6039 0-2.416-1.4672-3.7729-4.8318-4.4458-1e-4 -0.2875-0.1747-0.449-0.5751-0.5291l-1.6879-0.342c-0.0031-6e-4 -0.2008-0.0407-0.2008-0.0407-1.8754-0.375-2.6476-0.9818-2.6477-1.9636-0.2231-0.0446-0.315-0.1168-0.315-0.2337 0-1.1693 1.1032-1.9416 2.7469-1.9416 0-0.1391 0.1313-0.231 0.3269-0.231 1.6768 0 2.8572 0.8163 2.9676 2.1732 0.1995 0 0.3399 0.0972 0.3531 0.2587h3.144 0.3742c-0.0552-2.9234-2.3939-4.865-6.1115-4.865-0.0066-0.3479-0.285-0.579-0.7274-0.579-3.5412 0-6.0785 1.9305-6.0785 4.8429-0.4214 0-0.7233 0.2298-0.7233 0.5764 0 2.3718 1.5554 3.8941 4.7325 4.523 0 0.2822 0.1852 0.4634 0.5633 0.5382l1.6768 0.331c0.0031 6e-4 0.1995 0.0394 0.1995 0.0394 1.9968 0.4081 2.7469 1.0038 2.747 2.0518 0.2376 0.0486 0.3268 0.1195 0.3268 0.2442 0 1.1694-1.2135 2.0299-2.9895 2.0299-1e-4 0.1391-0.1445 0.2415-0.3559 0.2415-1.8092 0-3.155-0.7942-3.3647-2.1291-0.2152 0-0.3754-0.0945-0.4003-0.2534h-3.1441-0.3741c0.0993 3.0006 2.6255 4.8098 6.4204 4.8099 0.0118 0.3571 0.3125 0.5723 0.7641 0.5723m12.605-0.2647m1.5002-0.0315v-0.5983-5.0185h0.3551 2.9779c0.3994 0 0.6766-0.2599 0.6768-0.6486 3.3533-2e-4 5.6807-2.1844 5.6807-5.4496 0-0.3901-0.2679-0.649-0.6565-0.6492-3e-4 -3.276-2.2506-5.449-5.5158-5.449h-0.771-6.4752v1.8953 15.918h0.3971 3.3309m2.2505-7.6228m0.2678-0.9073h-0.2682-2.2501v-0.6738-5.6589h0.2696 2.261c0.2274 0 0.3589 0.1208 0.3592 0.3361 1.908 2e-4 3.0109 1.0151 3.0109 2.8241 0 0.2168-0.1326 0.3378-0.3597 0.3381-3e-4 1.8198-1.1145 2.8344-3.0227 2.8344" fill-opacity=".037193" opacity="1" stop-color="#000000" style="-inkscape-stroke:none;font-variation-settings:normal;paint-order:fill markers stroke"/>
		<path d="m22.342 42.165v-3.0962h-7.8149v-1e-4 -14.775h-1e-4 -3.7402v1e-4 17.872h11.555m1.2418 0.0385m8.3475 0.2588c3.8921 0 6.2747-1.9191 6.2748-4.9594 0.5789 0 0.9333-0.2855 0.9333-0.7378 0-2.361-1.4339-3.6871-4.7221-4.3448-1e-4 -0.3512-0.2134-0.5485-0.7025-0.6463l-1.6496-0.3342c-0.0038-8e-4 -0.2453-0.0498-0.2453-0.0498-1.8329-0.3665-2.5876-0.9595-2.5876-1.919-0.2726-0.0546-0.3848-0.1428-0.3848-0.2855 0-1.1428 1.0781-1.8975 2.6845-1.8975 0-0.17 0.1604-0.2823 0.3993-0.2823 1.6388 0 2.7924 0.7979 2.9002 2.1239 0.2438 1e-4 0.4154 0.1187 0.4314 0.316h3.0727 0.457c-0.0539-2.857-2.3395-4.7545-5.9727-4.7546-0.0081-0.425-0.3481-0.7072-0.8886-0.7072-3.4608 0-5.9405 1.8867-5.9405 4.7329-0.5148 1e-4 -0.8836 0.2807-0.8836 0.7041 0 2.318 1.5201 3.8058 4.6251 4.4204 0 0.3448 0.2262 0.5661 0.6881 0.6575l1.6387 0.3234c0.0038 8e-4 0.2438 0.0481 0.2438 0.0481 1.9514 0.399 2.6846 0.9811 2.6846 2.0054 0.2902 0.0593 0.3992 0.1459 0.3992 0.2983 0 1.1428-1.1859 1.9837-2.9216 1.9838-1e-4 0.1699-0.1765 0.295-0.4347 0.295-1.7681 0-3.0835-0.7762-3.2883-2.0808-0.263 0-0.4587-0.1155-0.4891-0.3095h-3.0727-0.4571c0.0971 2.9325 2.566 4.7006 6.2747 4.7007 0.0144 0.4362 0.3817 0.6992 0.9334 0.6992m12.319-0.2588m1.8326-0.0385v-0.7306-4.9046h0.4336 2.9104c0.4878 0 0.8264-0.3175 0.8266-0.7923 3.2771-2e-4 5.5517-2.1348 5.5517-5.3259 0-0.4765-0.3272-0.7927-0.802-0.7929-2e-4 -3.2016-2.1995-5.3253-5.3905-5.3253h-0.9418-6.3282v2.3151 15.556h0.4849 3.2553m2.1994-7.4498m0.3272-1.1082h-0.3276-2.199v-0.8231-5.5305h0.3292 2.2098c0.2777 0 0.4383 0.1476 0.4385 0.4106 1.8647 3e-4 2.9426 0.9921 2.9426 2.76 0 0.2649-0.162 0.4126-0.4395 0.4129-2e-4 1.7784-1.0891 2.7701-2.954 2.7701" fill-opacity=".036571" opacity="1" stop-color="#000000" style="-inkscape-stroke:none;font-variation-settings:normal;paint-order:fill markers stroke"/>
		<path d="m22.43 42.276v-3.1075h-1e-4 -7.8431v-1e-4 -14.829h-1e-4 -3.7537v1e-4 17.936h1e-4 11.597m1.4908 0.0462m8.1332 0.2521c3.7921 0 6.1136-1.8698 6.1136-4.832 0.695-1e-4 1.1205-0.3428 1.1205-0.8857 0-2.3005-1.3971-3.5926-4.6009-4.2334 0-0.4216-0.2561-0.6584-0.8433-0.7758l-1.6073-0.3257c-0.0045-9e-4 -0.2945-0.0597-0.2945-0.0597-1.7858-0.3571-2.5211-0.9349-2.5212-1.8698-0.3272-0.0654-0.4619-0.1713-0.4619-0.3427 0-1.1135 1.0504-1.8488 2.6155-1.8488 1e-4 -0.2041 0.1926-0.3388 0.4795-0.3388 1.5967 0 2.7207 0.7773 2.8258 2.0693 0.2926 1e-4 0.4985 0.1426 0.5178 0.3794h2.9938 0.5487c-0.0525-2.7837-2.2795-4.6325-5.8194-4.6326-0.0097-0.5102-0.4179-0.849-1.0667-0.849-3.372 0-5.788 1.8383-5.7881 4.6114-0.618 1e-4 -1.0607 0.337-1.0607 0.8453 0 2.2585 1.4811 3.7081 4.5063 4.3069 1e-4 0.4139 0.2715 0.6796 0.826 0.7893l1.5968 0.3152c0.0045 8e-4 0.2926 0.0577 0.2926 0.0577 1.9013 0.3887 2.6156 0.9559 2.6157 1.9538 0.3484 0.0713 0.4793 0.1753 0.4793 0.3582 0 1.1134-1.1555 1.9328-2.8467 1.9328-1e-4 0.2041-0.2118 0.3542-0.5218 0.3542-1.7227 0-3.0043-0.7563-3.2039-2.0273-0.3158 0-0.5506-0.1387-0.5872-0.3716h-2.9938-0.5487c0.0946 2.8572 2.5001 4.58 6.1136 4.58 0.0174 0.5236 0.4583 0.8394 1.1206 0.8394m12.002-0.2521m2.2-0.0462v-0.877-4.7786h0.5204 2.8357c0.5855 0 0.992-0.3812 0.9922-0.9512 3.193-2e-4 5.4091-2.08 5.4091-5.1891 0-0.5721-0.3928-0.9516-0.9627-0.9517-2e-4 -3.1195-2.1431-5.1886-5.2522-5.1886h-1.1305-6.1658v2.779 15.157h0.5821 3.1717m2.1429-7.2586m0.3928-1.3304h-0.3932-2.1425v-0.988-5.3885h0.3951 2.153c0.3334 0 0.5261 0.1771 0.5263 0.4929 1.8169 2e-4 2.8671 0.9666 2.8671 2.6891 0 0.3179-0.1945 0.4953-0.5276 0.4955-2e-4 1.7328-1.0612 2.699-2.8782 2.699" fill-opacity=".035884" opacity="1" stop-color="#000000" style="-inkscape-stroke:none;font-variation-settings:normal;paint-order:fill markers stroke"/>
		<path d="m22.525 42.398v-3.1197h-1e-4 -7.8741v-2e-4 -14.887h-1e-4 -3.7685v1e-4 18.007h1e-4 11.643m1.7636 0.0546m7.8983 0.2449c3.6826 0 5.9371-1.8158 5.9372-4.6925 0.8222 0 1.3255-0.4055 1.3255-1.0478 0-2.2341-1.3567-3.4888-4.468-4.1111 0-0.4988-0.303-0.7789-0.9977-0.9179l-1.5608-0.3162c-0.0054-0.0011-0.3485-0.0706-0.3485-0.0706-1.7342-0.3469-2.4483-0.9079-2.4484-1.8158-0.3871-0.0775-0.5465-0.2028-0.5465-0.4055 0-1.0813 1.0201-1.7954 2.54-1.7954 1e-4 -0.2414 0.2279-0.4009 0.5672-0.4009 1.5506 0 2.6422 0.7549 2.7442 2.0096 0.3462 1e-4 0.5899 0.1686 0.6126 0.4488h2.9075 0.649c-0.051-2.7033-2.2136-4.4987-5.6513-4.4988-0.0115-0.6035-0.4944-1.0044-1.262-1.0044-3.2745 0-5.6208 1.7852-5.6209 4.4782-0.7311 1e-4 -1.2549 0.3987-1.2549 1 0 2.1933 1.4383 3.601 4.3762 4.1825 0 0.4897 0.3212 0.804 0.9772 0.9339l1.5506 0.306c0.0054 0.0011 0.3462 0.0683 0.3462 0.0683 1.8464 0.3775 2.5401 0.9283 2.5402 1.8974 0.4122 0.0843 0.567 0.2073 0.567 0.4237 0 1.0813-1.1221 1.877-2.7644 1.8771-1e-4 0.2414-0.2506 0.419-0.6173 0.419-1.673 0-2.9176-0.7345-3.1115-1.9688-0.3735 0-0.6513-0.164-0.6946-0.4396h-2.9074-0.6491c0.0918 2.7747 2.4279 4.4477 5.937 4.4477 0.0206 0.6195 0.5422 0.9931 1.3257 0.9931m11.656-0.2449m2.6028-0.0546v-1.0373-4.6406h0.6155 2.7538c0.6926 0 1.1734-0.451 1.1736-1.1253 3.1008-2e-4 5.253-2.02 5.253-5.0393 0-0.6767-0.4647-1.1256-1.139-1.1258-2e-4 -3.0294-2.0812-5.0387-5.1005-5.0387h-1.3373-5.9878v3.2876 14.719h0.6885 3.0802m2.081-7.0489m0.4646-1.574h-0.465-2.0806v-1.1688-5.2329h0.4673 2.0908c0.3943 0 0.6223 0.2096 0.6225 0.5832 1.7644 2e-4 2.7843 0.9387 2.7843 2.6114 0 0.3761-0.2301 0.5858-0.6242 0.586-2e-4 1.6828-1.0305 2.6211-2.7951 2.6211" fill-opacity=".03513" opacity="1" stop-color="#000000" style="-inkscape-stroke:none;font-variation-settings:normal;paint-order:fill markers stroke"/>
		<path d="m22.629 42.53v-3.1331h-1e-4 -7.9078v-1e-4 -14.951h-1e-4 -3.7846v2e-4 18.084h1e-4 11.692m2.0606 0.0638m7.6427 0.2369c3.5634 0 5.7449-1.757 5.745-4.5405 0.9607-1e-4 1.5488-0.4738 1.5488-1.2243 0-2.1618-1.3128-3.3759-4.3235-3.9781 0-0.5827-0.354-0.9101-1.1657-1.0724l-1.5103-0.306c-0.0062-0.0013-0.4071-0.0825-0.4071-0.0825-1.6781-0.3356-2.3691-0.8785-2.3692-1.757-0.4523-0.0905-0.6385-0.2369-0.6385-0.4737 0-1.0464 0.987-1.7374 2.4578-1.7374 1e-4 -0.2821 0.2662-0.4683 0.6627-0.4683 1.5004 0 2.5566 0.7304 2.6554 1.9445 0.4045 1e-4 0.6892 0.197 0.7158 0.5243h2.8133 0.7584c-0.0494-2.6158-2.142-4.3531-5.4685-4.3531-0.0133-0.7052-0.5776-1.1736-1.4744-1.1736-3.1686 0-5.4389 1.7274-5.439 4.3333-0.8542 1e-4 -1.4663 0.4658-1.4663 1.1684 0 2.1222 1.3918 3.4844 4.2346 4.0471 1e-4 0.5722 0.3753 0.9394 1.1418 1.0911l1.5004 0.2961c0.0062 0.0013 0.4045 0.0799 0.4045 0.0799 1.7866 0.3652 2.4579 0.8982 2.458 1.836 0.4816 0.0984 0.6625 0.2422 0.6625 0.495 0 1.0463-1.0858 1.8163-2.675 1.8163-1e-4 0.2821-0.2928 0.4896-0.7212 0.4896-1.6189 0-2.8232-0.7107-3.0108-1.9051-0.4364 0-0.761-0.1916-0.8116-0.5136h-2.8133-0.7584c0.0889 2.6849 2.3493 4.3037 5.7449 4.3038 0.024 0.7238 0.6334 1.1602 1.5489 1.1602m11.279-0.2369m3.041-0.0638v-1.2118-4.4904h0.7191 2.6647c0.8092 0 1.371-0.527 1.3711-1.3148 3.0005-2e-4 5.083-1.9546 5.083-4.8762 0-0.7906-0.543-1.3151-1.3307-1.3152-3e-4 -2.9314-2.0139-4.8757-4.9355-4.8757h-1.5625-5.7939v3.8411 14.243h0.8043 2.9804m2.0137-6.8208m0.5429-1.839h-0.5433-2.0133v-1.3656-5.0635h0.546 2.0232c0.4606 0 0.7269 0.2449 0.7272 0.6813 1.7072 3e-4 2.6941 0.9084 2.6941 2.527 0 0.4393-0.2688 0.6844-0.7293 0.6846-2e-4 1.6283-0.9971 2.5362-2.7046 2.5362" fill-opacity=".03431" opacity="1" stop-color="#000000" style="-inkscape-stroke:none;font-variation-settings:normal;paint-order:fill markers stroke"/>
		<path d="m22.742 42.674v-3.1475h-1e-4 -7.9442v-2e-4 -15.02h-2e-4 -3.802v2e-4 18.167h1e-4 11.746m2.3819 0.0738m7.3662 0.2284c3.4345 0 5.5371-1.6935 5.5371-4.3763 1.1105-1e-4 1.7903-0.5477 1.7903-1.4151 0-2.0836-1.2654-3.2538-4.167-3.8342-1e-4 -0.6736-0.4092-1.052-1.3475-1.2396l-1.4557-0.295c-0.0072-0.0014-0.4706-0.0953-0.4706-0.0953-1.6173-0.3235-2.2834-0.8468-2.2834-1.6935-0.5229-0.1046-0.7382-0.2738-0.7382-0.5475 0-1.0085 0.9514-1.6745 2.3689-1.6746 1e-4 -0.326 0.3077-0.5413 0.7661-0.5413 1.4461 0 2.4641 0.704 2.5593 1.8742 0.4675 1e-4 0.7966 0.2277 0.8274 0.606h2.7115 0.8766c-0.0475-2.5211-2.0644-4.1956-5.2705-4.1956-0.0155-0.8152-0.6677-1.3566-1.7043-1.3566-3.054 0-5.2422 1.6649-5.2423 4.1765-0.9874 1e-4 -1.6948 0.5385-1.6948 1.3506 0 2.0454 1.3414 3.3584 4.0813 3.9007 1e-4 0.6613 0.4338 1.0858 1.3198 1.2612l1.4461 0.2854c0.0072 0.0014 0.4676 0.0923 0.4676 0.0923 1.722 0.352 2.369 0.8657 2.3691 1.7696 0.5566 0.1138 0.7658 0.2799 0.7658 0.5721 0 1.0085-1.0465 1.7506-2.5782 1.7507-1e-4 0.326-0.3385 0.5659-0.8337 0.5659-1.5603 0-2.7211-0.685-2.9019-1.8361-0.5044-1e-4 -0.8796-0.2216-0.9381-0.5938h-2.7115-0.8766c0.0856 2.5878 2.2642 4.1481 5.5369 4.1481 0.0278 0.8367 0.7323 1.3412 1.7905 1.3412m10.87-0.2284m3.5151-0.0738v-1.4005-4.328h0.8311 2.5682c0.9354 0 1.5847-0.6091 1.5849-1.5197 2.8919-2e-4 4.899-1.8839 4.899-4.6997 0-0.9139-0.6276-1.5201-1.5382-1.5203-2e-4 -2.8252-1.941-4.6992-4.7568-4.6992h-1.8061-5.5843v4.4398 13.728h0.9296 2.8726m1.9408-6.5739m0.6276-2.1258h-0.628-1.9404v-1.5784-4.8803h0.631 1.95c0.5324 0 0.8402 0.283 0.8404 0.7876 1.6455 2e-4 2.5967 0.8754 2.5967 2.4355 0 0.5077-0.3108 0.791-0.843 0.7912-2e-4 1.5693-0.9611 2.4444-2.6067 2.4444" fill-opacity=".033423" opacity="1" stop-color="#000000" style="-inkscape-stroke:none;font-variation-settings:normal;paint-order:fill markers stroke"/>
		<path d="m22.863 42.828v-3.1631h-1e-4 -7.9834v-2e-4 -15.094h-2e-4 -3.8208v3e-4 18.257h2e-4 11.804m2.7277 0.0845m7.0685 0.2191c3.2958 0 5.3134-1.625 5.3135-4.1995 1.2716 0 2.0501-0.6271 2.0501-1.6205 0-1.9994-1.2142-3.1223-3.9987-3.6792 0-0.7715-0.4686-1.2047-1.543-1.4196l-1.3969-0.2831c-0.0083-0.0016-0.5389-0.1091-0.5389-0.1091-1.552-0.3105-2.1912-0.8126-2.1912-1.6251-0.5988-0.1198-0.8453-0.3135-0.8453-0.627 0-0.9678 0.9129-1.6069 2.2732-1.6069 1e-4 -0.3734 0.3524-0.6199 0.8772-0.6199 1.3877 0 2.3646 0.6756 2.456 1.7985 0.5354 0 0.9122 0.2607 0.9474 0.694h2.6021 1.0038c-0.0456-2.4194-1.981-4.0262-5.0576-4.0262-0.0177-0.9335-0.7646-1.5535-1.9517-1.5535-2.9306 0-5.0304 1.5977-5.0305 4.0078-1.1307 1e-4 -1.9409 0.6166-1.9409 1.5466 0 1.9628 1.2873 3.2227 3.9165 3.7431 1e-4 0.7574 0.4968 1.2435 1.5113 1.4443l1.3878 0.2739c0.0082 0.0016 0.5354 0.1056 0.5354 0.1056 1.6525 0.3378 2.2733 0.8308 2.2734 1.6981 0.6375 0.1304 0.877 0.3206 0.877 0.6552 0 0.9678-1.0043 1.6799-2.4741 1.68-1e-4 0.3733-0.3876 0.648-0.9547 0.648-1.4973 0-2.6111-0.6573-2.7846-1.7619-0.5777-1e-4 -1.0074-0.2537-1.0743-0.6799h-2.602-1.0039c0.0822 2.4832 2.1728 3.9805 5.3133 3.9805 0.0318 0.9581 0.8385 1.5358 2.0503 1.5358m10.431-0.2191m4.0253-0.0845v-1.6037-4.1531h0.9516 2.4645c1.0711 0 1.8146-0.6975 1.8148-1.7403 2.775-2e-4 4.7011-1.8077 4.7011-4.5099 0-1.0464-0.7187-1.7406-1.7615-1.7408-2e-4 -2.7111-1.8625-4.5094-4.5646-4.5094h-2.0682-5.3587v5.0842 13.173h1.0644 2.7566m1.8624-6.3084m0.7186-2.4343h-0.719-1.862v-1.8074-4.6832h0.7225 1.8712c0.6096 0 0.9621 0.3241 0.9623 0.9019 1.579 2e-4 2.4917 0.8401 2.4917 2.3371 0 0.5814-0.3558 0.9057-0.9652 0.9059-3e-4 1.506-0.9223 2.3457-2.5015 2.3457" fill-opacity=".032469" opacity="1" stop-color="#000000" style="-inkscape-stroke:none;font-variation-settings:normal;paint-order:fill markers stroke"/>
		<path d="m22.993 42.994v-3.1797h-2e-4 -8.0254v-2e-4 -15.173h-2e-4 -3.8409v3e-4 18.353h2e-4 11.866m3.0979 0.0961m6.7498 0.2092c3.1471 0 5.0738-1.5517 5.0739-4.0101 1.4443-1e-4 2.3284-0.7123 2.3284-1.8406 0-1.9092-1.1594-2.9815-3.8183-3.5133 0-0.8762-0.5322-1.3683-1.7525-1.6123l-1.3339-0.2703c-0.0094-0.0019-0.6121-0.124-0.6121-0.124-1.4821-0.2964-2.0924-0.7759-2.0924-1.5518-0.6801-0.136-0.9601-0.3561-0.9601-0.7122 0-0.9241 0.8718-1.5344 2.1707-1.5344 1e-4 -0.4241 0.4002-0.7041 0.9963-0.7041 1.3251 0 2.258 0.6451 2.3453 1.7174 0.608 1e-4 1.036 0.2962 1.0761 0.7882h2.4847 1.1401c-0.0436-2.3102-1.8917-3.8446-4.8296-3.8446-0.0201-1.0602-0.8683-1.7644-2.2166-1.7644-2.7984 0-4.8036 1.5256-4.8036 3.8271-1.2843 1e-4 -2.2045 0.7003-2.2045 1.7565 0 1.8743 1.2292 3.0774 3.7399 3.5744 1e-4 0.8601 0.5642 1.4123 1.7165 1.6403l1.3252 0.2616c0.0093 0.0018 0.6081 0.12 0.6081 0.12 1.5779 0.3225 2.1708 0.7933 2.1709 1.6215 0.724 0.148 0.996 0.3641 0.996 0.7442 0 0.9241-0.9589 1.6041-2.3624 1.6042-1e-4 0.424-0.4402 0.736-1.0844 0.736-1.4297 0-2.4934-0.6276-2.6591-1.6825-0.656 0-1.1441-0.2881-1.2201-0.7722h-2.4847-1.1401c0.0784 2.3713 2.0748 3.801 5.0736 3.8011 0.0361 1.0882 0.9524 1.7443 2.3287 1.7443m9.9609-0.2092m4.5719-0.0961v-1.8212-3.9658h1.0807 2.3533c1.2166 0 2.061-0.7922 2.0611-1.9766 2.6499-2e-4 4.4891-1.7262 4.4891-4.3065 0-1.1885-0.8162-1.9769-2.0006-1.9771-2e-4 -2.5888-1.7785-4.306-4.3588-4.306h-2.3489-5.117v5.7743 12.579h1.2088 2.6323m1.7784-6.0238m0.8162-2.7648h-0.8166-1.778v-2.0529-4.4719h0.8205 1.7868c0.6924 0 1.0927 0.3681 1.0929 1.0243 1.5078 2e-4 2.3794 0.8022 2.3794 2.2317 0 0.6604-0.4042 1.0287-1.0964 1.0289-2e-4 1.438-0.8806 2.2399-2.3886 2.2399" fill-opacity=".031446" opacity="1" stop-color="#000000" style="-inkscape-stroke:none;font-variation-settings:normal;paint-order:fill markers stroke"/>
		<path d="m23.132 43.17v-3.1975h-2e-4 -8.0702v-2e-4 -15.258h-3e-4 -3.8622v3e-4 18.456h2e-4 11.933m3.4931 0.1082m6.4096 0.1987c2.9886 0 4.8182-1.4735 4.8183-3.808 1.6285-1e-4 2.6254-0.8032 2.6254-2.0753 0-1.813-1.101-2.8313-3.6259-3.3364-1e-4 -0.9879-0.6001-1.5427-1.976-1.8179l-1.2668-0.2567c-0.0106-0.0021-0.6901-0.1398-0.6901-0.1398-1.4074-0.2815-1.987-0.7368-1.9871-1.4736-0.7667-0.1534-1.0824-0.4015-1.0824-0.803 0-0.8776 0.8278-1.4571 2.0613-1.4572 1e-4 -0.4781 0.4512-0.7938 1.1233-0.7938 1.2584 0 2.1443 0.6126 2.2272 1.6308 0.6856 1e-4 1.1682 0.334 1.2133 0.8888h2.3596 1.2855c-0.0414-2.1938-1.7964-3.6509-4.5862-3.651-0.0227-1.1954-0.9791-1.9893-2.4994-1.9893-2.6574 0-4.5615 1.4487-4.5616 3.6342-1.4481 1e-4 -2.4856 0.7896-2.4856 1.9805 0 1.7799 1.1673 2.9224 3.5514 3.3943 1e-4 0.9699 0.6362 1.5924 1.9355 1.8496l1.2584 0.2483c0.0105 0.0021 0.6856 0.1353 0.6856 0.1353 1.4985 0.3064 2.0615 0.7534 2.0616 1.5399 0.8164 0.1669 1.1231 0.4105 1.1231 0.8391 0 0.8775-0.9106 1.5233-2.2435 1.5234-1e-4 0.4781-0.4963 0.8299-1.2226 0.8299-1.3577 0-2.3678-0.5961-2.5251-1.5977-0.7398-1e-4 -1.2901-0.3249-1.3758-0.8707h-2.3595-1.2856c0.0745 2.2517 1.9703 3.6095 4.8181 3.6095 0.0407 1.227 1.0738 1.9668 2.6256 1.9668m9.4591-0.1987m5.1549-0.1082v-2.0534-3.766h1.2185 2.2347c1.3717 0 2.3237-0.8933 2.3239-2.2287 2.5164-2e-4 4.2629-1.6392 4.2629-4.0895 0-1.34-0.9203-2.229-2.2557-2.2291-2e-4 -2.4584-1.689-4.0891-4.1392-4.0891h-2.6485-4.8592v6.5106 11.945h1.363 2.4996m1.6888-5.7204m0.9203-3.1174h-0.9207-1.6884v-2.3146-4.2466h0.9251 1.6968c0.7806 0 1.232 0.4151 1.2321 1.1549 1.4319 2e-4 2.2595 0.7618 2.2595 2.1193 0 0.7446-0.4556 1.1598-1.2361 1.1599-2e-4 1.3657-0.8363 2.1271-2.2683 2.1271" fill-opacity=".030355" opacity="1" stop-color="#000000" style="-inkscape-stroke:none;font-variation-settings:normal;paint-order:fill markers stroke"/>
		<path d="m23.279 43.358v-3.2163h-1e-4 -8.1179v-3e-4 -15.348h-3e-4 -3.8851v3e-4 18.564h3e-4 12.003m3.9131 0.1213m6.0481 0.1875c2.8201 0 4.5465-1.3905 4.5466-3.5933 1.8243-1e-4 2.9411-0.8997 2.9411-2.3248 0-1.7108-1.0389-2.6716-3.4214-3.1482-1e-4 -1.1067-0.6723-1.7283-2.2136-2.0365l-1.1953-0.2422c-0.0119-0.0024-0.7731-0.1566-0.7731-0.1566-1.3281-0.2657-1.875-0.6953-1.8751-1.3905-0.8589-0.1719-1.2126-0.4498-1.2126-0.8996 0-0.8281 0.7811-1.3749 1.945-1.375 1e-4 -0.5356 0.5055-0.8893 1.2584-0.8893 1.1875 0 2.0234 0.5781 2.1016 1.5389 0.768 1e-4 1.3087 0.374 1.3592 0.9956h2.2265 1.4401c-0.039-2.0701-1.695-3.445-4.3275-3.4451-0.0254-1.3391-1.0968-2.2285-2.7999-2.2285-2.5075 0-4.3043 1.367-4.3044 3.4292-1.6221 1e-4 -2.7844 0.8845-2.7844 2.2187 0 1.6795 1.1014 2.7575 3.3511 3.2029 1e-4 1.0864 0.7127 1.7838 2.1682 2.0719l1.1874 0.2343c0.0119 0.0024 0.7681 0.1516 0.7681 0.1516 1.414 0.2891 1.9453 0.7109 1.9454 1.453 0.9145 0.187 1.2581 0.4599 1.2581 0.94 0 0.8281-0.8593 1.4374-2.1169 1.4375-2e-4 0.5356-0.5561 0.9297-1.3696 0.9297-1.2812 0-2.2343-0.5624-2.3828-1.5076-0.8287-1e-4 -1.4452-0.364-1.5412-0.9754h-2.2265-1.4401c0.0703 2.1248 1.8591 3.4059 4.5463 3.406 0.0456 1.3745 1.2029 2.2033 2.9413 2.2033m8.9256-0.1875m5.7747-0.1213v-2.3002-3.5535h1.3649 2.1087c1.5366 0 2.6031-1.0007 2.6032-2.4967 2.3745-1e-4 4.0225-1.5468 4.0225-3.8588 0-1.5012-1.031-2.4969-2.527-2.4971-2e-4 -2.3197-1.5936-3.8584-3.9057-3.8584h-2.9668-4.5852v7.2933 11.271h1.5268 2.3586m1.5935-5.3977m1.031-3.4922h-1.0313-1.5932v-2.5929-4.0071h1.0363 1.6011c0.8745 0 1.38 0.465 1.3802 1.2938 1.3511 2e-4 2.132 0.7188 2.132 1.9998 0 0.834-0.5104 1.2991-1.3847 1.2993-2e-4 1.2886-0.7892 2.0071-2.1404 2.0071" fill-opacity=".029196" opacity="1" stop-color="#000000" style="-inkscape-stroke:none;font-variation-settings:normal;paint-order:fill markers stroke"/>
		<path d="m23.435 43.557v-3.2364h-2e-4 -8.1684v-3e-4 -15.444h-3e-4 -3.9092v3e-4 18.68h2e-4 12.078m4.3581 0.135m5.665 0.1756c2.6415 0 4.2586-1.3023 4.2587-3.3656 2.0317-2e-4 3.2755-1.002 3.2755-2.5892 0-1.6025-0.9731-2.5025-3.2047-2.9489-1e-4 -1.2325-0.7487-1.9248-2.4653-2.2681l-1.1196-0.2269c-0.0133-0.0027-0.8611-0.1744-0.8611-0.1744-1.2439-0.2488-1.7562-0.6513-1.7563-1.3025-0.9567-0.1913-1.3506-0.5009-1.3506-1.0018 0-0.7756 0.7317-1.2879 1.8219-1.288 1e-4 -0.5965 0.563-0.9904 1.4015-0.9904 1.1123 0 1.8953 0.5414 1.9685 1.4414 0.8554 1e-4 1.4576 0.4166 1.5138 1.1088h2.0856 1.6039c-0.0366-1.939-1.5878-3.2268-4.0535-3.2269-0.0283-1.4914-1.2215-2.482-3.1183-2.482-2.3487 0-4.0317 1.2805-4.0318 3.2121-1.8066 1e-4 -3.1011 0.9851-3.1011 2.471 0 1.5731 1.0317 2.5829 3.1389 3 1e-4 1.2101 0.7937 1.9867 2.4147 2.3076l1.1123 0.2195c0.0131 0.0026 0.8554 0.1688 0.8554 0.1688 1.3244 0.2708 1.8221 0.6659 1.8222 1.361 1.0185 0.2083 1.4012 0.5122 1.4012 1.0469 0 0.7756-0.8048 1.3464-1.9828 1.3465-2e-4 0.5965-0.6193 1.0354-1.5254 1.0354-1.2001 0-2.0928-0.5268-2.2319-1.4121-0.923-1e-4 -1.6095-0.4054-1.7165-1.0863h-2.0855-1.6039c0.0659 1.9902 1.7414 3.1902 4.2583 3.1903 0.0508 1.5308 1.3398 2.4538 3.2759 2.4538m8.3602-0.1756m6.4315-0.135v-2.5617-3.3285h1.5201 1.9752c1.7112 0 2.899-1.1145 2.8992-2.7806 2.224-2e-4 3.7676-1.4488 3.7676-3.6144 0-1.6719-1.1482-2.7809-2.8143-2.781-2e-4 -2.1728-1.4928-3.614-3.6584-3.614h-3.3042-4.2947v8.1227 10.558h1.7003 2.2092m1.4926-5.0559m1.1483-3.8894h-1.1486-1.4923v-2.8877-3.7533h1.1542 1.4996c0.9739 0 1.537 0.5179 1.5371 1.441 1.2655 1e-4 1.997 0.6732 1.997 1.873 0 0.9289-0.5685 1.4469-1.5423 1.4471-1e-4 1.2069-0.7391 1.8799-2.0047 1.8799" fill-opacity=".027967" opacity="1" stop-color="#000000" style="-inkscape-stroke:none;font-variation-settings:normal;paint-order:fill markers stroke"/>
		<path d="m23.6 43.767v-3.2574h-2e-4 -8.2217v-4e-4 -15.544h-3e-4 -3.9347v5e-4 18.802h2e-4 12.157m4.8283 0.1497m5.2603 0.1631c2.4528 0 3.9544-1.2094 3.9545-3.1253 2.251-1e-4 3.629-1.1101 3.629-2.8685 0-1.488-0.9036-2.3237-2.9758-2.7382-1e-4 -1.3655-0.8295-2.1325-2.7313-2.5129l-1.0397-0.2106c-0.0147-3e-3 -0.9539-0.1933-0.9539-0.1933-1.1551-0.231-1.6308-0.6047-1.631-1.2094-1.0598-0.212-1.4962-0.555-1.4962-1.1099 0-0.7203 0.6794-1.1959 1.6917-1.196 1e-4 -0.6609 0.6237-1.0973 1.5527-1.0973 1.0328 0 1.7599 0.5028 1.828 1.3384 0.9476 1e-4 1.6147 0.4616 1.6771 1.2285h1.9366 1.7769c-0.0339-1.8005-1.4743-2.9963-3.7638-2.9964-0.0314-1.6524-1.3534-2.7498-3.4548-2.7498-2.1809 0-3.7437 1.1889-3.7438 2.9825-2.0015 2e-4 -3.4356 1.0914-3.4356 2.7376 0 1.4608 0.9579 2.3985 2.9145 2.7858 2e-4 1.3406 0.8794 2.2011 2.6753 2.5565l1.0328 0.2039c0.0146 0.0028 0.9477 0.187 0.9477 0.187 1.2299 0.2514 1.692 0.6183 1.6921 1.2638 1.1284 0.2307 1.5524 0.5674 1.5524 1.1598 0 0.7202-0.7473 1.2502-1.8412 1.2503-1e-4 0.6609-0.686 1.1472-1.6899 1.1472-1.1143 0-1.9433-0.4892-2.0725-1.3112-1.0226-2e-4 -1.7832-0.4491-1.9016-1.2036h-1.9366-1.777c0.0612 1.8481 1.617 2.9624 3.9541 2.9625 0.0563 1.696 1.4843 2.7186 3.6293 2.7186m7.7629-0.1631m7.1254-0.1497v-2.8379-3.0907h1.6841 1.834c1.8959 0 3.2118-1.2347 3.2119-3.0806 2.0652-1e-4 3.4985-1.3453 3.4985-3.3562 0-1.8522-1.2721-3.0808-3.118-3.0809-1e-4 -2.0176-1.3861-3.3559-3.3969-3.3559h-3.6608-3.9878v8.999 9.8032h1.8836 2.0514m1.386-4.6946m1.2721-4.309h-1.2724-1.3857v-3.1993-3.4851h1.2787 1.3925c1.0789 0 1.7027 0.5737 1.7028 1.5964 1.1751 2e-4 1.8543 0.6252 1.8543 1.7393 0 1.029-0.6298 1.6029-1.7086 1.603-2e-4 1.1208-0.6864 1.7457-1.8616 1.7457" fill-opacity=".026668" opacity="1" stop-color="#000000" style="-inkscape-stroke:none;font-variation-settings:normal;paint-order:fill markers stroke"/>
		<path d="m23.773 43.988v-3.2797h-2e-4 -8.2779v-4e-4 -15.651h-4e-4 -3.9615v4e-4 18.93h3e-4 12.24m5.3238 0.165m4.8338 0.1499c2.2539 0 3.6338-1.1113 3.634-2.8718 2.4819-2e-4 4.0013-1.2241 4.0013-3.163 0-1.3673-0.8303-2.1353-2.7344-2.5162-2e-4 -1.5057-0.9147-2.3513-3.0117-2.7707l-0.9554-0.1936c-0.0162-0.0033-1.0518-0.2131-1.0518-0.2131-1.0615-0.2123-1.4986-0.5557-1.4988-1.1114-1.1686-0.2338-1.6498-0.6119-1.6498-1.2238 0-0.6619 0.6243-1.099 1.5545-1.0991 2e-4 -0.7287 0.6878-1.2099 1.7121-1.2099 0.9491 0 1.6173 0.462 1.6798 1.2299 1.045 1e-4 1.7805 0.5089 1.8493 1.3546h1.7796 1.9593c-0.0312-1.6545-1.3548-2.7534-3.4587-2.7535-0.0345-1.822-1.4922-3.032-3.8093-3.032-2.0041 0-3.4402 1.0925-3.4403 2.7407-2.207 1e-4 -3.7882 1.2034-3.7882 3.0185 0 1.3424 0.8802 2.204 2.6782 2.56 2e-4 1.4781 0.9697 2.4269 2.9498 2.8188l0.9492 0.1874c0.016 0.0031 1.0449 0.2062 1.0449 0.2062 1.1302 0.231 1.5548 0.5682 1.555 1.1613 1.2442 0.2544 1.7117 0.6257 1.7117 1.2789 0 0.6618-0.6868 1.1489-1.6919 1.1489-2e-4 0.7288-0.7565 1.265-1.8634 1.265-1.024 0-1.7858-0.4495-1.9046-1.205-1.1274-1e-4 -1.9661-0.4951-2.0967-1.327h-1.7796-1.9593c0.0562 1.6982 1.4858 2.7222 3.6334 2.7223 0.0621 1.8701 1.6367 2.9976 4.0018 2.9976m7.1335-0.1499m7.8566-0.165v-3.1291-2.84h1.8569 1.6853c2.0904 0 3.5413-1.3615 3.5414-3.3968 1.8977-1e-4 3.2149-1.2362 3.2149-3.084 0-2.0423-1.4027-3.397-3.438-3.3971-2e-4 -1.854-1.2737-3.0837-3.1215-3.0837h-4.0364-3.6645v9.9224 9.0083h2.0769 1.885m1.2736-4.3139m1.4027-4.7513h-1.4029-1.2734v-3.5275-3.2026h1.4098 1.2796c1.1897 0 1.8774 0.6326 1.8776 1.7603 1.0798 1e-4 1.7039 0.5744 1.7039 1.5982 0 1.1346-0.6944 1.7674-1.884 1.7675-1e-4 1.0299-0.6307 1.6041-1.7106 1.6041" fill-opacity=".0253" opacity="1" stop-color="#000000" style="-inkscape-stroke:none;font-variation-settings:normal;paint-order:fill markers stroke"/>
		<path d="m23.956 44.221v-3.3032h-2e-4 -8.337v-4e-4 -15.762h-4e-4 -3.9898v5e-4 19.066h3e-4 12.327m5.8448 0.1811m4.3854 0.136c2.0448 0 3.2968-1.0082 3.2969-2.6055 2.7248-1e-4 4.3929-1.3438 4.3929-3.4724 0-1.2405-0.7533-1.9373-2.4808-2.2829-2e-4 -1.6529-1.0042-2.5813-3.3064-3.0418l-0.8668-0.1756c-0.0177-0.0036-1.1547-0.234-1.1547-0.234-0.9631-0.1926-1.3597-0.5041-1.3598-1.0083-1.283-0.2566-1.8113-0.6718-1.8113-1.3435 0-0.6005 0.5664-0.9971 1.4104-0.9972 1e-4 -0.8 0.755-1.3283 1.8796-1.3283 0.8611 0 1.4672 0.4192 1.524 1.1158 1.1472 2e-4 1.9547 0.5587 2.0302 1.4871h1.6146 2.151c-0.0283-1.5011-1.2291-2.498-3.1378-2.4982-0.038-2.0002-1.6382-3.3286-4.182-3.3286-1.8183 0-3.1211 0.9912-3.1213 2.4865-2.4229 2e-4 -4.1589 1.3212-4.1589 3.3139 0 1.2178 0.7986 1.9996 2.4298 2.3225 2e-4 1.6228 1.0645 2.6644 3.2384 3.0947l0.8612 0.17c0.0176 0.0034 1.1472 0.2264 1.1472 0.2264 1.0253 0.2096 1.4106 0.5155 1.4108 1.0536 1.3659 0.2793 1.8791 0.6869 1.8791 1.4039 0 0.6005-0.623 1.0424-1.5349 1.0425-2e-4 0.8-0.8305 1.3887-2.0457 1.3887-0.929 0-1.6202-0.4078-1.728-1.0932-1.2377-1e-4 -2.1585-0.5436-2.3019-1.4569h-1.6146-2.151c0.051 1.5408 1.348 2.4698 3.2964 2.4699 0.0682 2.053 1.7968 3.2909 4.3934 3.2909m6.4718-0.136m8.6253-0.1811v-3.4352-2.5766h2.0384 1.529c2.295 0 3.8878-1.4947 3.8879-3.7291 1.7217-1e-4 2.9167-1.1216 2.9167-2.798 0-2.2421-1.54-3.7293-3.7744-3.7294-1e-4 -1.682-1.1555-2.7977-2.832-2.7977h-4.4312-3.3246v10.893 8.1728h2.28 1.7102m1.1555-3.9138m1.5399-5.2162h-1.5402-1.1552v-3.8726-2.9055h1.5477 1.1609c1.3061 0 2.0611 0.6945 2.0612 1.9324 0.9796 2e-4 1.5459 0.5212 1.5459 1.45 0 1.2457-0.7624 1.9403-2.0684 1.9404-1e-4 0.9343-0.5722 1.4553-1.5519 1.4553" fill-opacity=".023862" opacity="1" stop-color="#000000" style="-inkscape-stroke:none;font-variation-settings:normal;paint-order:fill markers stroke"/>
		<path d="m24.148 44.465v-3.3277h-2e-4 -8.399v-5e-4 -15.88h-4e-4 -4.0195v5e-4 19.207h4e-4 12.419m6.3912 0.1981m3.915 0.1214c1.8256 0 2.9433-0.9001 2.9435-2.326 2.9795-2e-4 4.8035-1.4695 4.8035-3.7971 0-1.1075-0.6725-1.7295-2.2147-2.0381-2e-4 -1.8075-1.098-2.8227-3.6155-3.3262l-0.7739-0.1568c-0.0194-0.0039-1.2627-0.2558-1.2627-0.2558-0.8597-0.172-1.2139-0.4501-1.214-0.9002-1.4029-0.2806-1.9806-0.7346-1.9806-1.4692 0-0.5361 0.5057-0.8901 1.2591-0.8902 2e-4 -0.8748 0.8256-1.4525 2.0553-1.4525 0.7688 0 1.31 0.3742 1.3607 0.9961 1.2544 2e-4 2.1375 0.611 2.22 1.6262h1.4415 2.3521c-0.0253-1.3401-1.0973-2.2302-2.8013-2.2304-0.0415-2.1872-1.7914-3.6398-4.573-3.6398-1.6233 0-2.7864 0.8849-2.7866 2.2198-2.6494 2e-4 -4.5477 1.4447-4.5477 3.6237 0 1.0873 0.713 1.7852 2.1692 2.0735 2e-4 1.7745 1.1641 2.9135 3.5412 3.384l0.7688 0.1518c0.0193 0.0038 1.2545 0.2475 1.2545 0.2475 0.9154 0.1872 1.2594 0.4603 1.2596 0.9407 1.4936 0.3054 2.0548 0.7511 2.0548 1.5352 0 0.5361-0.5562 0.9306-1.3703 0.9307-2e-4 0.8748-0.9082 1.5185-2.237 1.5185-0.8294 0-1.4465-0.3641-1.5427-0.9759-1.3535-1e-4 -2.3603-0.5944-2.5171-1.5931h-1.4415-2.3521c0.0455 1.3755 1.2034 2.2049 2.9429 2.205 0.0745 2.245 1.9647 3.5986 4.804 3.5986m5.7777-0.1214m9.4317-0.1981v-3.7562-2.3003h2.229 1.365c2.5094 0 4.2512-1.6344 4.2513-4.0777 1.537-1e-4 2.6038-1.0013 2.6038-2.4979 0-2.4517-1.6839-4.0779-4.1272-4.078-1e-4 -1.5016-1.0316-2.4976-2.5283-2.4976h-4.8455-2.968v11.912 7.2962h2.4931 1.5268m1.0315-3.494m1.684-5.7039h-1.6841-1.0314v-4.2346-2.5939h1.6924 1.0364c1.4281 0 2.2537 0.7594 2.2538 2.1132 0.8745 1e-4 1.3801 0.4653 1.3801 1.2944 0 1.3621-0.8337 2.1216-2.2618 2.1217-1e-4 0.8341-0.5108 1.2992-1.3854 1.2992" fill-opacity=".022353" opacity="1" stop-color="#000000" style="-inkscape-stroke:none;font-variation-settings:normal;paint-order:fill markers stroke"/>
		<path d="m24.348 44.721v-3.3535h-3e-4 -8.4638v-5e-4 -16.002h-5e-4 -4.0505v5e-4 19.356h4e-4 12.515m6.9632 0.2158m3.4226 0.1061c1.596 0 2.5732-0.7868 2.5734-2.0334 3.2462-2e-4 5.2335-1.601 5.2335-4.1369 0-0.9682-0.5879-1.5121-1.9362-1.7819-1e-4 -1.9693-1.1963-3.0753-3.9391-3.6239l-0.6766-0.1371c-0.0211-0.0043-1.3757-0.2787-1.3757-0.2787-0.7517-0.1504-1.0613-0.3935-1.0615-0.787-1.5284-0.3058-2.1578-0.8004-2.1578-1.6007 0-0.4687 0.4421-0.7782 1.1007-0.7783 2e-4 -0.9531 0.8995-1.5825 2.2393-1.5825 0.6721 0 1.1453 0.3271 1.1897 0.8708 1.3667 2e-4 2.3287 0.6657 2.4187 1.7717h1.2603 2.5626c-0.0221-1.1716-0.9593-1.9497-2.449-1.9499-0.0452-2.383-1.9517-3.9656-4.9823-3.9656-1.4191 0-2.436 0.7736-2.4362 1.9406-2.8866 2e-4 -4.9548 1.574-4.9548 3.9481 0 0.9505 0.6233 1.5606 1.8964 1.8127 2e-4 1.9334 1.2682 3.1744 3.8582 3.6869l0.6721 0.1327c0.0211 0.0042 1.3668 0.2698 1.3668 0.2698 0.8003 0.1636 1.1011 0.4023 1.1013 0.8223 1.6273 0.3327 2.2387 0.8184 2.2387 1.6726 0 0.4687-0.4863 0.8136-1.198 0.8137-2e-4 0.9532-0.9894 1.6545-2.4371 1.6545-0.7252 0-1.2647-0.3183-1.3488-0.8532-1.4747-2e-4 -2.5716-0.6476-2.7425-1.7357h-1.2603-2.5626c0.0398 1.2025 1.0521 1.9276 2.5728 1.9278 0.0811 2.4459 2.1405 3.9206 5.234 3.9206m5.051-0.1061m10.276-0.2158v-4.0923-2.011h2.4284 1.1933c2.734 0 4.6317-1.7807 4.6318-4.4427 1.3437-1e-4 2.2763-0.8753 2.2763-2.1837 0-2.6711-1.8346-4.4429-4.4966-4.443-2e-4 -1.3127-0.9019-2.1834-2.2103-2.1834h-5.2792-2.5947v12.978 6.3785h2.7162 1.3348m0.9017-3.0546m1.8347-6.2144h-1.8348-0.9016v-4.6136-2.2676h1.8438 0.906c1.5559 0 2.4554 0.8273 2.4554 2.3022 0.7646 1e-4 1.2066 0.4068 1.2066 1.1317 0 1.484-0.9084 2.3115-2.4642 2.3115-1e-4 0.7293-0.4466 1.1358-1.2112 1.1358" fill-opacity=".020774" opacity="1" stop-color="#000000" style="-inkscape-stroke:none;font-variation-settings:normal;paint-order:fill markers stroke"/>
		<path d="m24.558 44.988v-3.3803h-3e-4 -8.5317v-6e-4 -16.13h-5e-4 -4.0829v7e-4 19.511h4e-4 12.615m7.561 0.2343m2.9081 0.0902c1.3561 0 2.1863-0.6686 2.1865-1.7277 3.525-2e-4 5.6829-1.7384 5.6829-4.4921 0-0.8227-0.4996-1.2848-1.6451-1.514-2e-4 -2.1384-1.299-3.3394-4.2773-3.9351l-0.5749-0.1165c-0.023-0.0046-1.4938-0.3027-1.4938-0.3027-0.6387-0.1277-0.9019-0.3343-0.9021-0.6686-1.6596-0.3321-2.3431-0.8691-2.3431-1.7382 0-0.3982 0.3756-0.6612 0.9353-0.6614 2e-4 -1.0349 0.9767-1.7183 2.4316-1.7183 0.571 0 0.9731 0.2779 1.0108 0.7399 1.4841 2e-4 2.5287 0.7228 2.6264 1.9238h1.0709 2.7827c-0.0188-0.9955-0.8151-1.6567-2.0808-1.6568-0.0491-2.5876-2.1193-4.3061-5.41-4.3061-1.2059 0-2.0699 0.6573-2.0701 1.6488-3.1344 3e-4 -5.3802 1.7091-5.3802 4.2871 0 0.8076 0.5296 1.326 1.6113 1.5403 2e-4 2.0993 1.3771 3.4468 4.1894 4.0034l0.5711 0.1127c0.0229 0.0045 1.4841 0.2929 1.4841 0.2929 0.68 0.139 0.9356 0.3419 0.9359 0.6988 1.767 0.3613 2.4309 0.8886 2.4309 1.8162 0 0.3982-0.4132 0.6913-1.0179 0.6915-2e-4 1.0349-1.0743 1.7964-2.6464 1.7964-0.6161 0-1.0746-0.2704-1.1461-0.7249-1.6012-2e-4 -2.7924-0.7032-2.9779-1.8847h-1.0709-2.7826c0.0338 1.0218 0.8939 1.6379 2.1859 1.6381 0.0882 2.6559 2.3244 4.2572 5.6835 4.2572m4.2915-0.0902m11.158-0.2343v-4.4436-1.7086h2.6368 1.0139c2.9688 0 5.0294-1.9336 5.0294-4.8241 1.1417-1e-4 1.9341-0.7438 1.9341-1.8554 0-2.9004-1.9921-4.8243-4.8827-4.8243-1e-4 -1.1154-0.7662-1.8553-1.8779-1.8553h-5.7324-2.2046v14.092 5.4196h2.9493 1.1341m0.7662-2.5954m1.9921-6.7478h-1.9922-0.7661v-5.0098-1.9267h2.002 0.7699c1.6895 0 2.6661 0.8984 2.6662 2.5 0.6496 0 1.0251 0.3456 1.0251 0.9615 0 1.6113-0.9863 2.5098-2.6757 2.5099-1e-4 0.6196-0.3795 0.9651-1.0292 0.9651" fill-opacity=".019123" opacity="1" stop-color="#000000" style="-inkscape-stroke:none;font-variation-settings:normal;paint-order:fill markers stroke"/>
		<path d="m24.776 45.267v-3.4083h-3e-4 -8.6024v-6e-4 -16.264h-6e-4 -4.1167v6e-4 19.672h4e-4 12.72m8.1846 0.2537m2.3713 0.0735c1.1058 0 1.7829-0.5451 1.7831-1.4088 3.8157-2e-4 6.1516-1.8818 6.1516-4.8626 0-0.6708-0.4073-1.0477-1.3414-1.2346-2e-4 -2.3148-1.4062-3.6149-4.6301-4.2596l-0.4688-0.095c-0.0249-0.0051-1.6171-0.3277-1.6171-0.3277-0.5208-0.1042-0.7354-0.2726-0.7357-0.5453-1.7965-0.3594-2.5363-0.9407-2.5363-1.8814 0-0.3248 0.3062-0.5393 0.7626-0.5395 2e-4 -1.1202 1.0573-1.86 2.6321-1.86 0.4657 0 0.7936 0.2266 0.8244 0.6033 1.6065 2e-4 2.7373 0.7824 2.843 2.0825h0.8734 3.0121c-0.0153-0.8118-0.6645-1.351-1.6966-1.3512-0.0532-2.8009-2.2941-4.6612-5.8563-4.6612-0.9833 0-1.6879 0.536-1.6881 1.3445-3.3929 2e-4 -5.8239 1.8501-5.8239 4.6406 0 0.6586 0.4318 1.0814 1.3138 1.2561 2e-4 2.2725 1.4907 3.7311 4.5349 4.3336l0.4658 0.0919c0.0248 0.0049 1.6065 0.3171 1.6065 0.3171 0.5546 0.1134 0.7631 0.2788 0.7633 0.5698 1.9128 0.3911 2.6314 0.9619 2.6314 1.966 0 0.3248-0.3368 0.5638-0.8299 0.564-3e-4 1.1203-1.163 1.9446-2.8647 1.9446-0.5025 0-0.8763-0.2205-0.9347-0.5911-1.7333-2e-4 -3.0227-0.7613-3.2235-2.0402h-0.8734-3.0121c0.0275 0.8332 0.7289 1.3357 1.7824 1.3359 0.0954 2.8749 2.5161 4.6083 6.1522 4.6083m3.4994-0.0735m12.078-0.2537v-4.81-1.3932h2.8543 0.8267c3.2136 0 5.4441-2.093 5.4442-5.222 0.9309-1e-4 1.577-0.6064 1.577-1.5129 0-3.1396-2.1564-5.2221-5.2854-5.2222-1e-4 -0.9095-0.6248-1.5127-1.5313-1.5127h-6.2051-1.7977v15.254 4.4191h3.1926 0.9247m0.6248-2.1162m2.1564-7.3045h-2.1566-0.6246v-5.4229-1.5711h2.1671 0.6277c1.8289 0 2.886 0.9726 2.8861 2.7062 0.5297 0 0.8359 0.2818 0.8359 0.784 0 1.7443-1.0677 2.7168-2.8964 2.7169-1e-4 0.5052-0.3094 0.7869-0.8392 0.7869" fill-opacity=".017401" opacity="1" stop-color="#000000" style="-inkscape-stroke:none;font-variation-settings:normal;paint-order:fill markers stroke"/>
		<path d="m25.004 45.557v-3.4375h-3e-4 -8.6761v-7e-4 -16.403h-6e-4 -4.152v8e-4 19.841h5e-4 12.828m8.8342 0.2739m1.8122 0.0561c0.8451 0 1.3626-0.4166 1.3629-1.0766 4.1185-2e-4 6.6397-2.0311 6.6397-5.2485 0-0.5127-0.3113-0.8007-1.0251-0.9436-2e-4 -2.4985-1.5177-3.9018-4.9975-4.5977l-0.3584-0.0726c-0.0268-0.0055-1.7454-0.3537-1.7454-0.3537-0.3981-0.0796-0.5622-0.2084-0.5624-0.4167-1.9391-0.388-2.7376-1.0155-2.7376-2.0308 0-0.2483 0.234-0.4122 0.5827-0.4124 3e-4 -1.2092 1.1412-2.0077 2.8411-2.0077 0.3559 0 0.6066 0.1732 0.6302 0.4611 1.734 2e-4 2.9545 0.8445 3.0686 2.2477h0.6676 3.2512c-0.0117-0.6204-0.5079-1.0325-1.2966-1.0327-0.0573-3.0232-2.4762-5.0311-6.321-5.0311-0.7515 0-1.2901 0.4096-1.2903 1.0274-3.6622 3e-4 -6.2861 1.9969-6.2861 5.0089 0 0.5034 0.33 0.8265 1.0041 0.9601 2e-4 2.4528 1.6089 4.0272 4.8948 4.6775l0.356 0.0703c0.0267 0.0053 1.734 0.3422 1.734 0.3422 0.4239 0.0867 0.5833 0.2131 0.5835 0.4355 2.0646 0.4222 2.8403 1.0383 2.8403 2.1221 0 0.2482-0.2575 0.4309-0.6343 0.4311-3e-4 1.2092-1.2553 2.0989-3.092 2.0989-0.3841 0-0.6698-0.1685-0.7145-0.4517-1.8709-2e-4 -3.2626-0.8217-3.4793-2.2021h-0.6677-3.2512c0.0211 0.6368 0.5571 1.0209 1.3622 1.021 0.103 3.1032 2.7158 4.9741 6.6405 4.9741m2.6742-0.0561m13.037-0.2739v-5.1916-1.0647h3.0808 0.6318c3.4686 0 5.8761-2.2592 5.8761-5.6365 0.7115 0 1.2053-0.4634 1.2053-1.1561 0-3.3888-2.3276-5.6366-5.7049-5.6366-1e-4 -0.6951-0.4775-1.1561-1.1703-1.1561h-6.6976-1.3738v16.464 3.3771h3.4459 0.7067m0.4775-1.6172m2.3276-7.8842h-2.3277-0.4774v-5.8533-1.2006h2.3391 0.4797c1.974 0 3.115 1.0497 3.115 2.9209 0.4048 1e-4 0.6388 0.2154 0.6388 0.5992 0 1.8827-1.1524 2.9324-3.1262 2.9325-1e-4 0.386-0.2365 0.6013-0.6413 0.6013" fill-opacity=".015608" opacity="1" stop-color="#000000" style="-inkscape-stroke:none;font-variation-settings:normal;paint-order:fill markers stroke"/>
		<path d="m25.241 45.859v-3.4679h-4e-4 -8.7527v-7e-4 -16.548h-7e-4 -4.1885v8e-4 20.016h5e-4 12.942m9.5098 0.2948m1.2306 0.0381c0.574 0 0.9256-0.2829 0.9258-0.7311 4.4335-3e-4 7.1475-2.1865 7.1475-5.6499 0-0.3482-0.2113-0.5439-0.6961-0.641-2e-4 -2.6895-1.6338-4.2001-5.3797-4.9493l-0.2435-0.0493c-0.0289-0.0059-1.8788-0.3807-1.8788-0.3807-0.2705-0.0541-0.382-0.1416-0.3823-0.2831-2.0874-0.4176-2.947-1.0931-2.947-2.1861 0-0.1686 0.159-0.28 0.3958-0.2802 3e-4 -1.3017 1.2285-2.1612 3.0583-2.1612 0.2418 0 0.4121 0.1176 0.4282 0.3131 1.8666 2e-4 3.1805 0.9091 3.3033 2.4196h0.4536 3.4998c-0.0079-0.4214-0.3449-0.7013-0.8805-0.7015-0.0617-3.2545-2.6655-5.4159-6.8044-5.4159-0.5104 0-0.8762 0.2781-0.8765 0.6977-3.9422 3e-4 -6.7668 2.1496-6.7668 5.392 0 0.3419 0.2241 0.5614 0.6818 0.6521 2e-4 2.6404 1.732 4.3352 5.2691 5.0353l0.242 0.0477c0.0287 0.0057 1.8666 0.3684 1.8666 0.3684 0.2879 0.0589 0.3962 0.1448 0.3965 0.2958 2.2225 0.4545 3.0575 1.1177 3.0575 2.2844 0 0.1686-0.1748 0.2927-0.4307 0.2929-3e-4 1.3017-1.3513 2.2595-3.3285 2.2595-0.2609 0-0.4551-0.1145-0.4855-0.3068-2.014-2e-4 -3.5121-0.8845-3.7454-2.3705h-0.4536-3.4998c0.0143 0.4325 0.3782 0.6934 0.925 0.6936 0.1109 3.3404 2.9234 5.3545 7.1483 5.3545m1.8161-0.0381m14.034-0.2948v-5.5886-0.7231h3.3164 0.429c3.7339 0 6.3255-2.4319 6.3255-6.0674 0.4831-1e-4 0.8184-0.3148 0.8184-0.7852 0-3.6479-2.5056-6.0675-6.1411-6.0676-1e-4 -0.4719-0.3243-0.785-0.7947-0.785h-7.2098-0.9329v17.724 2.2934h3.7093 0.4799m0.3243-1.0983m2.5056-8.4871h-2.5057-0.3242v-6.3009-0.8153h2.518 0.3257c2.1249 0 3.3532 1.13 3.3532 3.1443 0.2749 0 0.4338 0.1463 0.4338 0.4069 0 2.0266-1.2405 3.1566-3.3653 3.1566-1e-4 0.2622-0.1606 0.4084-0.4355 0.4084" fill-opacity=".013742" opacity="1" stop-color="#000000" style="-inkscape-stroke:none;font-variation-settings:normal;paint-order:fill markers stroke"/>
		<path d="m25.487 46.172v-3.4995h-4e-4 -8.8323v-7e-4 -16.699h-7e-4 -4.2266v9e-4 20.198h5e-4 13.06m10.212 0.3165m0.6266 0.0195c0.2924 0 0.4716-0.1441 0.4719-0.3723 4.7606-3e-4 7.6749-2.3478 7.6749-6.0668 0-0.1774-0.1076-0.2771-0.3545-0.3266-2e-4 -2.888-1.7543-4.5101-5.7766-5.3145l-0.1242-0.0252c-0.031-0.0063-2.0175-0.4088-2.0175-0.4088-0.1378-0.0275-0.1947-0.0721-0.195-0.1442-2.2415-0.4484-3.1645-1.1738-3.1645-2.3474 0-0.086 0.081-0.1428 0.2015-0.1429 4e-4 -1.3978 1.3191-2.3207 3.284-2.3207 0.1233 0 0.2101 0.0599 0.2184 0.1594 2.0043 2e-4 3.4152 0.9761 3.547 2.5982h0.2314 3.758c-4e-3 -0.2147-0.1756-0.3574-0.4483-0.3576-0.0663-3.4946-2.8622-5.8155-7.3065-5.8155-0.26 0-0.4464 0.1416-0.4467 0.3552-4.2331 3e-4 -7.2661 2.3083-7.2661 5.7899 0 0.1741 0.1141 0.286 0.3471 0.3323 3e-4 2.8352 1.8599 4.6551 5.658 5.4068l0.1233 0.0244c0.0309 6e-3 2.0043 0.3955 2.0043 0.3955 0.1468 0.03 0.2021 0.0738 0.2024 0.1507 2.3865 0.488 3.2831 1.2002 3.2831 2.4529 0 0.086-0.089 0.1493-0.2193 0.1495-3e-4 1.3977-1.451 2.4262-3.5741 2.4262-0.133 0-0.232-0.0583-0.2476-0.1562-2.1626-3e-4 -3.7712-0.9498-4.0218-2.5454h-0.2313-3.7581c0.0073 0.2203 0.1926 0.3532 0.471 0.3535 0.1191 3.5869 3.1392 5.7496 7.6758 5.7496m0.9247-0.0195m15.07-0.3165v-6.0009-0.3681h3.561 0.2185c4.0093 0 6.7921-2.6114 6.7922-6.5152 0.2459-1e-4 0.4167-0.1603 0.4167-0.3998 0-3.917-2.6905-6.5152-6.5943-6.5152-1e-4 -0.2404-0.1651-0.3998-0.4047-0.3998h-7.7417-0.475v19.031 1.1677h3.983 0.2443m0.1651-0.5592m2.6905-9.1133h-2.6905-0.1651v-6.7658-0.4152h2.7037 0.1659c2.2816 0 3.6005 1.2134 3.6005 3.3763 0.14 0 0.2209 0.0745 0.2209 0.2072 0 2.1761-1.332 3.3895-3.6137 3.3895 0 0.1335-0.0817 0.208-0.2217 0.208" fill-opacity=".011805" opacity="1" stop-color="#000000" style="-inkscape-stroke:none;font-variation-settings:normal;paint-order:fill markers stroke"/>
	</g>
	<g>
		<path d="m21.907 41.882v-3.0404h-7.6741v-14.509h-3.6728v17.549zm9.4164 0.29188c4.3904 0 7.0781-2.1648 7.0781-5.5944 0-2.6634-1.6175-4.1593-5.3268-4.9012l-1.8607-0.37701c-2.0675-0.4135-2.9188-1.0824-2.9188-2.1648 0-1.2891 1.2162-2.1405 3.0283-2.1405 1.8486 0 3.1499 0.89997 3.2715 2.3959h3.4661c-0.06081-3.2229-2.6391-5.3633-6.7376-5.3633-3.9039 0-6.7011 2.1283-6.7011 5.339 0 2.6148 1.7148 4.2931 5.2174 4.9863l1.8486 0.36485c2.2013 0.44998 3.0283 1.1067 3.0283 2.2621 0 1.2891-1.3378 2.2378-3.2958 2.2378-1.9945 0-3.4783-0.87564-3.7093-2.3472h-3.4661c0.10946 3.308 2.8945 5.3025 7.0781 5.3025zm13.896-0.29188v-5.5336h3.2837c3.6972 0 6.2633-2.408 6.2633-6.0079 0-3.612-2.481-6.0079-6.0809-6.0079h-7.1389v17.549zm2.481-8.4038h-2.481v-6.239h2.4932c2.104 0 3.3202 1.1189 3.3202 3.1134 0 2.0067-1.2283 3.1256-3.3323 3.1256z" fill="url(#radialGradient31839)"/>
		<path d="m31.324 24.028c-3.9039 0-6.7012 2.1291-6.7012 5.3398 0 0.09672 7e-3 0.18905 0.01172 0.2832 0.1247-3.0878 2.8752-5.123 6.6895-5.123 3.8814 0 6.3936 1.9226 6.7012 4.8633h0.03516c-0.06081-3.2229-2.6378-5.3633-6.7363-5.3633zm-20.764 0.30469v0.5h3.6719v-0.5zm30.986 0v0.5h7.1387c3.5116 0 5.9524 2.2834 6.0703 5.748 0.0026-0.08062 0.0098-0.15837 0.0098-0.24024 0-3.612-2.4802-6.0078-6.0801-6.0078zm-13.229 5.0195c-0.01363 0.09226-0.02344 0.18772-0.02344 0.28516 0 1.0824 0.85047 1.7506 2.918 2.1641l1.8613 0.37695c3.5775 0.7155 5.2049 2.1358 5.3164 4.625 0.0027-0.07529 0.01172-0.14805 0.01172-0.22461 0-2.6634-1.6188-4.1585-5.3281-4.9004l-1.8613-0.37695c-1.9239-0.38478-2.7828-0.99476-2.8945-1.9492zm22.705 1.2344c-0.09403 1.8575-1.3027 2.8906-3.3223 2.8906h-2.4824v0.5h2.4824c2.104 0 3.332-1.1183 3.332-3.125 0-0.09114-0.0047-0.17816-0.0098-0.26562zm-26.777 6.2852c0.0057 0.17131 0.02313 0.33583 0.04297 0.5h3.4219c0.23107 1.4716 1.7145 2.3477 3.709 2.3477 1.958 0 3.2969-0.94914 3.2969-2.2383 0-0.08048-0.01523-0.15277-0.02344-0.22852-0.17547 1.1478-1.4565 1.9668-3.2734 1.9668-1.9945 0-3.4779-0.87609-3.709-2.3477zm-10.014 1.9707v0.5h7.6738v-0.5z" fill="#fff"/>
		<g>
			<path d="m0.24221 0.23961c-0.001444 0-0.002607 0.57111-0.002607 1.6043v61.91c0 0.0024 0.51139 0.0037 1.4423 0.0037 0.44262 0.0014 0.98124 0.0026 1.6051 0.0026h60.463c0.0047 0 0.0074-1.0517 0.0074-2.8842 0.0014-0.48171 0.0026-1.0185 0.0026-1.6047v-59.018c0-0.006936-1.6139-0.011064-4.3265-0.011064-0.49778-0.001444-1.0337-0.002607-1.6038-0.002607h-57.573m0.028016 1.6031h6.9106 56.519c0.0013 0 0.0024 0.96637 0.0024 2.6562v1.593 57.265c0 0.0013-0.5113 0.0023-1.44 0.0023h-2.5947c-11.631 0-55.638-2.3e-5 -59.168-6.8e-5 -0.15292-2.49e-4 -0.23246-0.0012-0.23246-0.0022v-1.3655c0-7.7588 0.00107-50.292 0.0024-58.703v-1.4456" fill="url(#radialGradient5872)" style="paint-order:fill markers stroke"/>
			<path d="m0.24872 0.23755c-0.006191 0-0.011174 0.57004-0.011174 1.5991v61.899c0 0.01021 0.50699 0.01581 1.4299 0.01581 0.43882 0.0062 0.97664 0.01117 1.5999 0.01117h60.452c0.02009 0 0.03163-1.0427 0.03163-2.8594 0.0062-0.47757 0.01117-1.0136 0.01117-1.5995v-59.007c0-0.029736-1.6-0.047432-4.2894-0.047432-0.4935-0.006191-1.0287-0.011174-1.5986-0.011174h-57.563m-0.0082358 1.6209h7.3277 56.065c0.0057 0 0.01028 0.96146 0.01028 2.641v2.0619 56.785c0 0.0055-0.51043 0.0099-1.4355 0.0099h-3.0713c-11.532 0-55.17-1.01e-4 -58.67-2.91e-4 -0.15506-0.0011-0.23644-0.0049-0.23644-0.0096v-1.8485c0-7.6964 0.00458-49.867 0.010281-58.206v-1.4332" fill="url(#radialGradient5874)" style="paint-order:fill markers stroke"/>
			<path d="m0.26013 0.23394c-0.014505 0-0.026183 0.56815-0.026183 1.5901v61.879c0 0.02391 0.4993 0.03705 1.4082 0.03705 0.43216 0.01451 0.96859 0.02618 1.5908 0.02618h60.433c0.04708 0 0.0741-1.0269 0.0741-2.816 0.01451-0.47032 0.02618-1.005 0.02618-1.5904v-58.988c0-0.069674-1.5758-0.11114-4.2243-0.11114-0.48601-0.014505-1.0198-0.026183-1.5895-0.026183h-57.544m-0.071756 1.6521h8.0583 55.269c0.01335 0 0.30797 0.97728 0.02409 2.6143v2.8833 55.945c0 0.01284-0.50891 0.02316-1.4277 0.02316h-3.906c-11.358 0-54.35-2.36e-4 -57.798-6.82e-4 -0.15879-0.0025-0.24342-0.01159-0.24342-0.02248v-2.6945c0-7.587 0.010738-49.124 0.02409-57.336v-1.4114" fill="url(#radialGradient5876)" style="paint-order:fill markers stroke"/>
			<path d="m0.27663 0.22873c-0.02654 0-0.047905 0.56543-0.047905 1.5769v61.85c0 0.04375 0.48816 0.06779 1.3768 0.06779 0.42252 0.02654 0.95693 0.04791 1.5776 0.04791h60.405c0.08613 0 0.13558-1.004 0.13558-2.7532 0.02654-0.45983 0.04791-0.99252 0.04791-1.5772v-58.961c0-0.12748-1.5406-0.20334-4.13-0.20334-0.47517-0.02654-1.007-0.047905-1.5763-0.047905h-57.517m-0.16371 1.6972h9.1158 54.116c0.02443 0 0.24338 0.95258 0.04408 2.5757v4.0722 54.728c0 0.02349-0.50671 0.04238-1.4164 0.04238h-5.1142c-11.106 0-53.164-4.33e-4 -56.536-0.0012-0.16419-0.0046-0.25353-0.0212-0.25353-0.04114v-3.9191c0-7.4287 0.019647-48.048 0.044076-56.077v-1.3799" fill="url(#radialGradient5878)" style="paint-order:fill markers stroke"/>
			<path d="m0.29839 0.22185c-0.042404 0-0.076541 0.56184-0.076541 1.5595v61.812c0 0.06991 0.47348 0.10832 1.3354 0.10832 0.40981 0.0424 0.94157 0.07654 1.5603 0.07654h60.368c0.13762 0 0.21663-0.97378 0.21663-2.6704 0.0424-0.446 0.07654-0.97608 0.07654-1.5598v-58.925c0-0.20368-1.4943-0.3249-4.0058-0.3249-0.46088-0.042404-0.99015-0.076541-1.559-0.076541h-57.482m-0.28491 1.7567h10.51 52.597c0.03903 0 0.2118 0.93023 0.07042 2.5249v5.6394 53.125c0 0.03753-0.5038 0.06772-1.4014 0.06772h-6.7069c-10.774 0-51.599-6.91e-4 -54.872-2e-3 -0.17132-0.0073-0.26685-0.03387-0.26685-0.06573v-5.5333c0-7.22 0.031392-46.629 0.070423-54.417v-1.3384" fill="url(#radialGradient5880)" style="paint-order:fill markers stroke"/>
			<path d="m0.32552 0.21327c-0.062185 0-0.11225 0.55736-0.11225 1.5379v61.764c0 0.10252 0.45517 0.15885 1.2837 0.15885 0.39396 0.06218 0.9224 0.11225 1.5386 0.11225h60.321c0.20182 0 0.31768-0.93613 0.31768-2.5672 0.06218-0.42875 0.11225-0.95559 0.11225-1.5382v-58.879c0-0.2987-1.4365-0.47646-3.8509-0.47646-0.44306-0.062185-0.96911-0.11225-1.5374-0.11225h-57.438m-0.43605 1.8309h12.248 50.703c0.05724 0 0.10327 0.90349 0.10327 2.4614v7.5936 51.125c0 0.05504-0.50018 0.09931-1.3828 0.09931h-8.6928c-10.361 0-49.649-1e-3 -52.798-0.0029-0.1802-0.01072-0.28346-0.04967-0.28346-0.09638v-7.5462c0-6.9598 0.046036-44.86 0.10327-52.347v-1.2867" fill="url(#radialGradient5882)" style="paint-order:fill markers stroke"/>
			<path d="m0.35812 0.20296c-0.085955 0-0.15515 0.55198-0.15515 1.5119v61.707c0 0.14171 0.43317 0.21957 1.2217 0.21957 0.37492 0.08596 0.89938 0.15515 1.5126 0.15515h60.266c0.27897 0 0.43912-0.89088 0.43912-2.4431 0.08596-0.40803 0.15515-0.93096 0.15515-1.5122v-58.825c0-0.41288-1.3671-0.65859-3.6648-0.65859-0.42165-0.085955-0.94383-0.15515-1.5114-0.15515h-57.385m-0.61766 1.9201h14.337 48.426c0.07912 0 0.21841 0.88079 0.14275 2.3852v9.9418 48.722c0 0.07608-0.49583 0.13728-1.3605 0.13728h-11.079c-9.8637 0-47.305-0.0014-50.305-4e-3 -0.19088-0.01482-0.30342-0.06866-0.30342-0.13323v-9.9649c0-6.6471 0.063633-42.735 0.14275-49.86v-1.2245" fill="url(#radialGradient5884)" style="paint-order:fill markers stroke"/>
			<path d="m0.39627 0.1909c-0.11378 0-0.20537 0.54568-0.20537 1.4815v61.641c0 0.18758 0.40742 0.29064 1.1491 0.29064 0.35264 0.11378 0.87243 0.20537 1.4821 0.20537h60.2c0.36927 0 0.58126-0.83793 0.58126-2.2979 0.11378-0.38378 0.20537-0.90213 0.20537-1.4817v-58.761c0-0.54652-1.2858-0.87176-3.447-0.87176-0.39658-0.11378-0.91424-0.20537-1.481-0.20537h-57.323m-0.83023 2.0244h16.781 45.762c0.10473 0 0.18896 0.85009 0.18896 2.296v12.69 45.91c0 0.10071-0.49074 0.18171-1.3343 0.18171h-13.872c-9.2819 0-44.561-0.0019-47.388-0.0054-0.20337-0.01962-0.32678-0.09089-0.32678-0.17635v-12.796c0-6.2811 0.08423-40.247 0.18896-46.949v-1.1517" fill="url(#radialGradient5886)" style="paint-order:fill markers stroke"/>
			<path d="m0.44006 0.17705c-0.14571 0-0.26301 0.53845-0.26301 1.4466v61.564c0 0.24022 0.37787 0.3722 1.0657 0.3722 0.32706 0.1457 0.8415 0.26301 1.4471 0.26301h60.126c0.47289 0 0.74437-0.77716 0.74437-2.1312 0.1457-0.35594 0.26301-0.86905 0.26301-1.4468v-58.689c0-0.69988-1.1925-1.1164-3.197-1.1164-0.36782-0.14571-0.88028-0.26301-1.4461-0.26301h-57.251m-1.0742 2.1442h19.587 42.704c0.13412 0 0.24198 0.81704 0.24198 2.1937v15.845 42.683c0 0.12897-0.48489 0.2327-1.3042 0.2327h-17.078c-8.6143 0-41.413-0.0024-44.04-0.0069-0.21771-0.02512-0.35359-0.11639-0.35359-0.22584v-16.045c0-5.8612 0.10787-37.392 0.24198-43.608v-1.0682" fill="url(#radialGradient5888)" style="paint-order:fill markers stroke"/>
			<path d="m0.48954 0.1614c-0.18179 0-0.32814 0.53028-0.32814 1.4071v61.478c0 0.2997 0.34448 0.46437 0.97154 0.46437 0.29816 0.18179 0.80655 0.32814 1.4076 0.32814h60.041c0.59 0 0.9287-0.70847 0.9287-1.9429 0.18179-0.32448 0.32814-0.83166 0.32814-1.4073v-58.606c0-0.87321-1.0872-1.3929-2.9144-1.3929-0.33531-0.18179-0.8419-0.32814-1.4067-0.32814h-57.171m-1.3499 2.2796h22.758 39.249c0.16733 0 0.33534 0.78012 0.30191 2.078v19.409 39.035c0 0.16091-0.47828 0.29033-1.2703 0.29033h-20.7c-7.8599 0-37.855-3e-3 -40.256-0.0086-0.23391-0.03135-0.38389-0.14522-0.38389-0.28177v-19.716c0-5.3865 0.13458-34.166 0.30191-39.832v-0.97378" fill="url(#radialGradient5890)" style="paint-order:fill markers stroke"/>
			<path d="m0.54479 0.14394c-0.22207 0-0.40085 0.52116-0.40085 1.363v61.381c0 0.36611 0.3072 0.56727 0.86639 0.56727 0.26589 0.22207 0.76753 0.40085 1.3635 0.40085h59.947c0.72074 0 1.1345-0.6318 1.1345-1.7326 0.22207-0.28937 0.40085-0.78992 0.40085-1.3632v-58.514c0-1.0667-0.9695-1.7015-2.599-1.7015-0.29902-0.22207-0.79905-0.40085-1.3627-0.40085h-57.081m-1.6576 2.4307h26.297 35.391c0.20441 0 0.36881 0.73799 0.36881 1.9489v23.389 34.963c0 0.19656-0.47091 0.35466-1.2324 0.35466h-24.744c-7.0176 0-33.883-0.0036-36.031-0.01045-0.252-0.03829-0.41772-0.1774-0.41772-0.34421v-23.815c0-4.8566 0.1644-30.564 0.36881-35.617v-0.8684" fill="url(#radialGradient5892)" style="paint-order:fill markers stroke"/>
			<path d="m0.60584 0.12463c-0.26659 0-0.48121 0.51108-0.48121 1.3143v61.274c0 0.43951 0.26599 0.681 0.75019 0.681 0.23022 0.26659 0.7244 0.48121 1.3147 0.48121h59.843c0.86523 0 1.3619-0.54706 1.3619-1.5002 0.26659-0.25056 0.48121-0.7438 0.48121-1.3145v-58.412c0-1.2806-0.83946-2.0426-2.2504-2.0426-0.25892-0.26659-0.7517-0.48121-1.314-0.48121h-56.982m-1.9978 2.5977h30.209 31.127c0.24539 0 0.46279 0.69208 0.44275 1.8061v27.787 30.463c0 0.23597-0.46275 0.42576-1.1905 0.42576h-29.214c-6.0867 0-29.493-0.0043-31.363-0.01255-0.272-0.04597-0.4551-0.21296-0.4551-0.41321v-28.346c0-4.271 0.19736-26.583 0.44275-30.958v-0.75192" fill="url(#radialGradient5894)" style="paint-order:fill markers stroke"/>
			<path d="m0.67277 0.10347c-0.31539 0-0.5693 0.50003-0.5693 1.261v61.157c0 0.51996 0.22083 0.80565 0.62281 0.80565 0.19114 0.31539 0.67713 0.5693 1.2613 0.5693h59.728c1.0236 0 1.6112-0.45417 1.6112-1.2455 0.31539-0.20802 0.5693-0.69323 0.5693-1.2611v-58.301c0-1.5149-0.69693-2.4165-1.8683-2.4165-0.21496-0.31539-0.6998-0.5693-1.2607-0.5693h-56.873m-2.3706 2.7807h34.497 26.454c0.2903 0 0.53925 0.64151 0.52379 1.6497v32.608 25.53c0 0.27917-0.45382 0.50369-1.1446 0.50369h-34.113c-5.0664 0-24.681-0.0051-26.246-0.01484-0.29391-0.05438-0.49608-0.25194-0.49608-0.48885v-33.311c0-3.6291 0.23349-22.22 0.52379-25.852v-0.62425" fill="url(#radialGradient5896)" style="paint-order:fill markers stroke"/>
			<path d="m0.7456 0.08044c-0.3685 0-0.66516 0.488-0.66516 1.2029v61.03c0 0.60752 0.17168 0.94131 0.48419 0.94131 0.14859 0.3685 0.62569 0.66516 1.2031 0.66516h59.604c1.196 0 1.8825-0.35309 1.8825-0.96827 0.3685-0.16172 0.66516-0.6382 0.66516-1.203v-58.179c0-1.77-0.54181-2.8234-1.4525-2.8234-0.16711-0.3685-0.64331-0.66516-1.2027-0.66516h-56.754m-2.7764 2.9799h39.164 21.368c0.33919 0 0.62378 0.58649 0.61199 1.4795v37.854 20.162c0 0.32618-0.4441 0.58851-1.0946 0.58851h-39.445c-3.9559 0-19.444-6e-3 -20.676-0.01734-0.31776-0.06354-0.54067-0.29436-0.54067-0.57117v-38.715c0-2.9305 0.2728-17.471 0.61199-20.295v-0.48531" fill="url(#radialGradient5898)" style="paint-order:fill markers stroke"/>
			<path d="m0.82439 0.055527c-0.42595 0-0.76886 0.47499-0.76886 1.14v60.892c0 0.70224 0.11851 1.0881 0.33423 1.0881 0.10257 0.42595 0.57004 0.76886 1.1402 0.76886h59.47c1.3824 0 2.1761-0.24373 2.1761-0.66839 0.42595-0.11163 0.76886-0.57868 0.76886-1.1401v-58.048c0-2.046-0.37401-3.2636-1.0026-3.2636-0.11536-0.42595-0.5822-0.76886-1.1399-0.76886h-56.626m-3.2153 3.1954h44.212 15.867c0.39207 0 0.71623 0.527 0.7074 1.2953v43.53 14.355c0 0.37703-0.43358 0.68026-1.0406 0.68026h-45.213c-2.7546 0-12.779-0.0069-13.652-0.02005-0.34356-0.07344-1.5889-0.34026-1.5889-0.66022v-44.561c0-2.1748 0.31533-12.334 0.7074-14.284v-0.33501" fill="url(#radialGradient5900)" style="paint-order:fill markers stroke"/>
			<path d="m0.90918 0.028718c-0.48777 0-0.88046 0.461-0.88046 1.0724v60.744c0 0.80416 0.061291 1.246 0.17286 1.246 0.053049 0.48777 0.51015 0.88046 1.0725 0.88046h59.325c1.5831 0 2.4919-0.12606 2.4919-0.34568 0.48777-0.05773 0.88046-0.51462 0.88046-1.0725v-57.907c0-2.343-0.19343-3.7373-0.51855-3.7373-0.05966-0.48777-0.51644-0.88046-1.0724-0.88046h-56.488m-3.6877 3.4274h49.645 9.946c0.44897 0 0.81646 0.46298 0.81008 1.0971v49.637 8.1053c0 0.43175-0.42226 0.779-0.98238 0.779h-51.42c-1.4619 0-6.6824-8e-3 -7.1684-0.02296-0.37133-0.0841-1.6408-0.38964-1.6408-0.75604v-50.852c0-1.3615 0.3611-6.8063 0.81008-7.8145v-0.17326" fill="url(#radialGradient5902)" style="paint-order:fill markers stroke"/>
			<path d="m1 0c-0.554 0-1 0.446-1 1v62c0 0.554 0.446 1 1 1h62c0.554 0 1-0.446 1-1v-62c0-0.554-0.446-1-1-1zm1.4659 3.6758h59.068c0.50993 0 0.92006 0.3944 0.92006 0.88477v57.591c0 0.49037-0.41013 0.88477-0.92006 0.88477h-59.068c-0.50993 0-0.92006-0.3944-0.92006-0.88477v-57.591c0-0.49037 0.41013-0.88477 0.92006-0.88477z" fill="url(#radialGradient5868)" style="paint-order:fill markers stroke"/>
			<path d="m0.24023 0.24023v63.52h63.52v-63.52zm0.039063 1.5977h63.441v61.522h-63.441z" fill="url(#radialGradient5870)" style="paint-order:fill markers stroke"/>
			<path d="m0.24023 1.2789v62.481h63.52v-62.481zm0.039063 1.2781h63.441v60.803h-63.441z" fill="url(#radialGradient5934)" style="paint-order:fill markers stroke"/>
		</g>
	</g>
</svg>
