<svg width="64" height="64" xmlns="http://www.w3.org/2000/svg" xmlns:xlink="http://www.w3.org/1999/xlink"><defs><linearGradient id="d"><stop stop-color="#2f6f34" offset="0"/><stop stop-color="#24c87e" offset="1"/></linearGradient><linearGradient id="e"><stop stop-color="#3d3bd3" offset="0"/><stop stop-color="#4fb6da" offset="1"/></linearGradient><linearGradient id="c"><stop stop-color="#ca7009" offset="0"/><stop stop-color="#f1b80b" offset="1"/></linearGradient><linearGradient id="b"><stop stop-color="#91bbbe" offset="0"/><stop stop-color="#add5d8" offset=".322"/><stop stop-color="#f3f7fa" offset="1"/></linearGradient><linearGradient id="a"><stop stop-color="#ebbbd6" stop-opacity=".11" offset="0"/><stop stop-color="#ff9797" stop-opacity=".039" offset="1"/></linearGradient><linearGradient id="y" x1="-44.916" x2="-3.149" y1="47.492" y2="47.492" gradientUnits="userSpaceOnUse" xlink:href="#b"/><linearGradient id="z" x1="-44.916" x2="-3.149" y1="47.492" y2="47.492" gradientUnits="userSpaceOnUse" xlink:href="#c"/><linearGradient id="x" x1="39.551" x2="56.467" y1="31.364" y2="31.364" gradientUnits="userSpaceOnUse" xlink:href="#b"/><linearGradient id="A" x1="15.871" x2="-6.084" y1="57" y2="56.925" gradientUnits="userSpaceOnUse" xlink:href="#b"/><linearGradient id="B" x1="15.871" x2="-6.084" y1="57" y2="56.925" gradientUnits="userSpaceOnUse" xlink:href="#d"/><linearGradient id="C" x1="15.871" x2="-6.084" y1="57" y2="56.925" gradientUnits="userSpaceOnUse" xlink:href="#e"/><linearGradient id="D" x1="15.871" x2="-6.084" y1="57" y2="56.925" gradientUnits="userSpaceOnUse" xlink:href="#c"/><linearGradient id="E" x1="28.053" x2="44.97" y1="55.045" y2="55.045" gradientUnits="userSpaceOnUse" xlink:href="#b"/><linearGradient id="F" x1="28.053" x2="44.97" y1="55.045" y2="55.045" gradientUnits="userSpaceOnUse" xlink:href="#d"/><linearGradient id="G" x1="28.053" x2="44.97" y1="55.045" y2="55.045" gradientUnits="userSpaceOnUse" xlink:href="#e"/><linearGradient id="H" x1="28.053" x2="44.97" y1="55.045" y2="55.045" gradientUnits="userSpaceOnUse" xlink:href="#c"/><linearGradient id="I" x1="58.402" x2="39.801" y1="56.998" y2="57" gradientUnits="userSpaceOnUse" xlink:href="#b"/><linearGradient id="J" x1="58.402" x2="39.801" y1="56.998" y2="57" gradientUnits="userSpaceOnUse" xlink:href="#d"/><linearGradient id="K" x1="58.402" x2="39.801" y1="56.998" y2="57" gradientUnits="userSpaceOnUse" xlink:href="#e"/><linearGradient id="L" x1="58.402" x2="39.801" y1="56.998" y2="57" gradientUnits="userSpaceOnUse" xlink:href="#c"/><linearGradient id="M" x1="57.717" x2="76.589" y1="36.265" y2="36.265" gradientUnits="userSpaceOnUse" xlink:href="#b"/><linearGradient id="N" x1="57.717" x2="76.589" y1="36.265" y2="36.265" gradientUnits="userSpaceOnUse" xlink:href="#d"/><linearGradient id="O" x1="57.717" x2="76.589" y1="36.265" y2="36.265" gradientUnits="userSpaceOnUse" xlink:href="#c"/><linearGradient id="P" x1="57.717" x2="76.589" y1="36.265" y2="36.265" gradientUnits="userSpaceOnUse" xlink:href="#e"/><linearGradient id="Q" x1="31.856" x2="31.856" y1="49.099" y2="16.189" gradientTransform="translate(-7.628 15.15) scale(.79703)" gradientUnits="userSpaceOnUse"><stop stop-color="#614ceb" offset="0"/><stop stop-color="#df3983" offset="1"/></linearGradient><radialGradient id="f" cx="31.744" cy="35.593" r="32" gradientTransform="matrix(-1.3401 0 0 2.7279 74.798 -61.501)" gradientUnits="userSpaceOnUse"><stop stop-color="#744655" offset="0"/><stop stop-color="#7b665e" offset="1"/></radialGradient><radialGradient id="g" cx="35.574" cy="1.019" r="32" gradientTransform="matrix(0 1.1252 -5.1753 0 37.271 -39.029)" gradientUnits="userSpaceOnUse" xlink:href="#a"/><radialGradient id="h" cx="35.574" cy="1.036" r="32" gradientTransform="matrix(0 1.1252 -5.1753 0 37.363 -39.029)" gradientUnits="userSpaceOnUse" xlink:href="#a"/><radialGradient id="i" cx="35.574" cy="1.055" r="32" gradientTransform="matrix(0 1.1252 -5.1753 0 37.458 -39.029)" gradientUnits="userSpaceOnUse" xlink:href="#a"/><radialGradient id="j" cx="35.574" cy="1.071" r="32" gradientTransform="matrix(0 1.1252 -5.1753 0 37.544 -39.029)" gradientUnits="userSpaceOnUse" xlink:href="#a"/><radialGradient id="k" cx="35.574" cy="1.091" r="32" gradientTransform="matrix(0 1.1252 -5.1753 0 37.648 -39.029)" gradientUnits="userSpaceOnUse" xlink:href="#a"/><radialGradient id="l" cx="35.574" cy="1.113" r="32" gradientTransform="matrix(0 1.1252 -5.1753 0 37.758 -39.029)" gradientUnits="userSpaceOnUse" xlink:href="#a"/><radialGradient id="m" cx="35.574" cy="1.135" r="32" gradientTransform="matrix(0 1.1252 -5.1753 0 37.875 -39.029)" gradientUnits="userSpaceOnUse" xlink:href="#a"/><radialGradient id="n" cx="35.574" cy="1.159" r="32" gradientTransform="matrix(0 1.1252 -5.1753 0 38 -39.029)" gradientUnits="userSpaceOnUse" xlink:href="#a"/><radialGradient id="o" cx="35.574" cy="1.18" r="32" gradientTransform="matrix(0 1.1252 -5.1753 0 38.107 -39.029)" gradientUnits="userSpaceOnUse" xlink:href="#a"/><radialGradient id="p" cx="35.574" cy="1.208" r="32" gradientTransform="matrix(0 1.1252 -5.1753 0 38.252 -39.029)" gradientUnits="userSpaceOnUse" xlink:href="#a"/><radialGradient id="q" cx="35.574" cy="1.239" r="32" gradientTransform="matrix(0 1.1252 -5.1753 0 38.411 -39.029)" gradientUnits="userSpaceOnUse" xlink:href="#a"/><radialGradient id="r" cx="35.574" cy="1.273" r="32" gradientTransform="matrix(0 1.1252 -5.1753 0 38.587 -39.029)" gradientUnits="userSpaceOnUse" xlink:href="#a"/><radialGradient id="s" cx="35.574" cy="1.304" r="32" gradientTransform="matrix(0 1.1252 -5.1753 0 38.75 -39.029)" gradientUnits="userSpaceOnUse" xlink:href="#a"/><radialGradient id="t" cx="35.574" cy="1.346" r="32" gradientTransform="matrix(0 1.1252 -5.1753 0 38.966 -39.029)" gradientUnits="userSpaceOnUse" xlink:href="#a"/><radialGradient id="u" cx="35.574" cy="1.393" r="32" gradientTransform="matrix(0 1.1252 -5.1753 0 39.208 -39.029)" gradientUnits="userSpaceOnUse" xlink:href="#a"/><radialGradient id="v" cx="35.574" cy="1.439" r="32" gradientTransform="matrix(0 1.1252 -5.1753 0 39.446 -39.029)" gradientUnits="userSpaceOnUse" xlink:href="#a"/><radialGradient id="w" cx="15.111" cy="1.397" r="32" gradientTransform="matrix(0 .01282 -2.532 0 35.666 1.42)" gradientUnits="userSpaceOnUse" xlink:href="#a"><stop stop-color="#ffc68a" stop-opacity=".756" offset="0"/><stop stop-color="#ff92bc" stop-opacity="0" offset="1"/></radialGradient></defs><path d="M1 0C.446 0 0 .446 0 1v62c0 .554.446 1 1 1h62c.554 0 1-.446 1-1V1c0-.554-.446-1-1-1z" fill="url(#f)"/><path transform="translate(0 .002)" d="M1 0C.446 0 0 .446 0 1v62-.224V63 1h1.752c19.15.002 39.445 0 60.213 0H64v62-.334V63 1a.998.998 0 0 0-1-1z" fill="url(#g)"/><path transform="translate(0 .002)" d="M1 0a.998.998 0 0 0-1 1.006v61.98-.197c0-.277.004-.184.01.246.012.016.03-.297.052-.897v-61c.072-.009.133-.013.185-.013.29-.016.357-.032.774-.044.246-.011.496-.019.747-.019 19.183.002 39.392 0 60.2 0 .346 0 .689.012 1.023.03.268.01.389.02.52.033.106 0 .22.01.427.028v60.744c.027.754.05 1.148.059 1.123l.003-.334v.286V1.21c0-.143 0-.22-.002-.224A.996.996 0 0 0 62.986 0H1" fill="url(#h)"/><path transform="translate(0 .002)" d="M1 0a.998.998 0 0 0-1 1.006v61.966-.169c0-.245.008-.145.021.266.022.034.06-.247.104-.807V1.274a.744.744 0 0 1 .173-.025c.27-.031.341-.064.743-.088.242-.022.492-.037.742-.037 19.217.002 39.34 0 60.187 0 .347 0 .69.024 1.013.06.256.02.372.042.494.065.1 0 .206.02.398.057v60.731c.055.703.102 1.052.119 1.003.004-.154.006-.265.006-.333v.237V1.196c0-.139 0-.215-.003-.224A.994.994 0 0 0 63.19.02a1.025 1.025 0 0 0-.217-.02H1" fill="url(#i)"/><path transform="translate(0 .002)" d="M1 0a.998.998 0 0 0-1 1.005v61.953-.14c0-.213.012-.107.031.287.034.05.091-.198.156-.718V1.413a.45.45 0 0 1 .16-.037c.252-.048.327-.097.715-.132.238-.034.487-.056.737-.056 19.25.002 39.286 0 60.173 0 .348 0 .688.036 1.001.09.244.029.356.062.47.098.091 0 .19.03.37.085v60.718c.082.653.151.957.176.884.007-.152.01-.262.01-.333v.188V1.184c0-.135 0-.21-.004-.224a.992.992 0 0 0-.819-.94 1.041 1.041 0 0 0-.217-.018H.999" fill="url(#j)"/><path transform="translate(0 .002)" d="M1 0a.998.998 0 0 0-1 1.005v61.939-.113c0-.18.015-.068.042.308.045.067.121-.149.208-.629V1.55a.312.312 0 0 1 .148-.05c.232-.063.311-.128.684-.176.234-.044.483-.074.732-.074 19.284.002 39.234 0 60.16 0 .35 0 .689.048.991.12.232.039.34.083.444.13.085 0 .176.04.341.114v60.704c.11.603.203.862.236.764a5.23 5.23 0 0 0 .014-.333v.14V1.168c0-.13-.002-.206-.006-.224a.991.991 0 0 0-.83-.927 1.066 1.066 0 0 0-.22-.017H1" fill="url(#k)"/><path transform="translate(0 .002)" d="M1 0a.998.998 0 0 0-1 1.004V62.93v-.084c0-.148.02-.029.052.328.056.084.152-.099.26-.539V1.686c.053-.04.097-.061.136-.061.212-.08.297-.16.655-.22.23-.056.477-.093.727-.093 19.317.002 39.18 0 60.147 0 .35 0 .688.06.98.151.22.047.322.102.418.162.078 0 .162.049.313.142v60.69c.137.553.253.767.295.645A4.7 4.7 0 0 0 64 62.77v.09V1.155c0-.126-.002-.202-.007-.224a.99.99 0 0 0-.843-.914A1.099 1.099 0 0 0 62.932 0H1" fill="url(#l)"/><path transform="translate(0 .002)" d="M1 0a.998.998 0 0 0-1 1.004v61.912-.056c0-.117.023.01.063.349.067.1.182-.05.312-.45V1.824c.048-.049.088-.074.123-.074.193-.095.282-.192.626-.264.225-.067.472-.11.721-.11h60.133c.352 0 .688.071.97.18.144.033.279.1.393.194.07 0 .147.059.284.17V62.6c.164.502.304.671.354.524.014-.14.02-.25.02-.331v.042V1.14c0-.121-.002-.197-.009-.224a.99.99 0 0 0-.854-.902A1.142 1.142 0 0 0 62.918 0H1" fill="url(#m)"/><path transform="translate(0 .002)" d="M1 0a.998.998 0 0 0-1 1.004v61.898-.029c0-.084.027.049.073.37.079.117.212 0 .365-.36V1.96c.043-.057.079-.086.11-.086.174-.112.267-.225.596-.309a2.19 2.19 0 0 1 .717-.129c19.385.002 39.075 0 60.12 0 .353 0 .687.084.958.211a.81.81 0 0 1 .368.227c.063 0 .132.068.256.199v60.665c.192.452.354.576.413.404.014-.11.022-.22.024-.33V1.125c0-.117-.004-.193-.01-.224a.99.99 0 0 0-.868-.89A1.198 1.198 0 0 0 62.905 0H1" fill="url(#n)"/><path transform="translate(0 .002)" d="M1 0a.998.998 0 0 0-1 1.003v61.885c0-.052.03.087.084.39.09.135.242.05.416-.27V2.097C.538 2.034.57 2 .599 2c.154-.127.251-.257.566-.352.217-.089.463-.148.711-.148 19.418.002 39.022 0 60.107 0 .355 0 .687.096.947.242.138.05.257.14.343.258.056 0 .118.079.227.227v60.651c.22.402.406.482.473.285.018-.132.027-.243.027-.33V1.112c0-.113-.004-.188-.012-.224a.99.99 0 0 0-.879-.877A1.273 1.273 0 0 0 62.891 0H1.001" fill="url(#o)"/><path transform="translate(0 .002)" d="M1 0a.998.998 0 0 0-1 1.003v61.899c0-.02.035.126.094.41.101.152.273.1.468-.18V2.235c.034-.073.062-.11.087-.11.135-.143.236-.29.536-.397.213-.1.459-.166.707-.166 19.452.002 38.969 0 60.093 0 .356 0 .687.108.936.272.134.06.246.162.317.29.05 0 .103.089.2.256v60.64c.246.352.455.386.531.165.02-.128.03-.239.03-.33V1.1c0-.108-.004-.184-.013-.224a.99.99 0 0 0-.891-.864 1.376 1.376 0 0 0-.218-.01H1" fill="url(#p)"/><path transform="translate(0 .002)" d="M1 0a.998.998 0 0 0-1 1.002v61.913c0 .013.039.165.105.432.112.168.303.148.52-.092V2.373c.029-.081.053-.123.074-.123.116-.159.222-.321.507-.44a1.52 1.52 0 0 1 .701-.185c19.486.002 38.916 0 60.08 0 .357 0 .687.12.925.302a.66.66 0 0 1 .292.323c.043 0 .089.098.171.284V63.16c.275.302.507.29.591.046.022-.125.034-.236.034-.33V1.085c0-.104-.005-.18-.016-.224a.99.99 0 0 0-.903-.852 1.514 1.514 0 0 0-.218-.008H1" fill="url(#q)"/><path transform="translate(0 .002)" d="M1 0a.998.998 0 0 0-1 1.002V62.93c0 .045.042.203.115.453.123.184.333.197.572-.003V2.51c.024-.089.045-.135.062-.135.097-.174.207-.353.478-.484.204-.122.448-.203.696-.203 19.519.002 38.863 0 60.067 0a1.4 1.4 0 0 1 .914.332c.15.103.224.225.267.355.035 0 .073.108.142.313V63.3c.302.251.557.196.65-.074a1.7 1.7 0 0 0 .037-.33V1.071c0-.1-.006-.175-.017-.224a.99.99 0 0 0-.915-.84A1.712 1.712 0 0 0 62.85 0H1" fill="url(#r)"/><path transform="translate(0 .002)" d="M1 0a.998.998 0 0 0-1 1.002v61.942c0 .077.046.242.126.473.134.201.363.246.624.086V2.647C.77 2.55.785 2.5.8 2.5a.981.981 0 0 1 .447-.529c.2-.133.444-.221.691-.221 19.553.002 38.811 0 60.053 0 .36 0 .686.144.903.362a.688.688 0 0 1 .242.388c.028 0 .059.118.114.341v60.598c.33.2.608.1.709-.194.026-.117.04-.228.04-.329V1.056c0-.095-.006-.17-.018-.224a.991.991 0 0 0-.927-.827A2.015 2.015 0 0 0 62.836 0H1" fill="url(#s)"/><path transform="translate(0 .002)" d="M1 0a.998.998 0 0 0-1 1.001v61.956c0 .11.05.281.136.494.146.218.394.296.677.176V2.784c.014-.105.026-.16.036-.16a.967.967 0 0 1 .419-.572c.196-.144.439-.24.686-.24 19.586.002 38.758 0 60.04 0 .36 0 .685.156.892.392a.73.73 0 0 1 .216.42c.021 0 .044.128.086.37v60.585c.356.15.658.005.768-.314.029-.114.044-.224.044-.328V1.042c0-.09-.007-.166-.02-.224a.992.992 0 0 0-.94-.814 2.524 2.524 0 0 0-.217-.005H1" fill="url(#t)"/><path transform="translate(0 .002)" d="M1 0a.998.998 0 0 0-1 1v61.972c0 .142.054.32.147.515.156.241.453.35.728.265V2.922c.01-.114.018-.172.025-.172a.97.97 0 0 1 .389-.617c.192-.155.434-.258.68-.258 19.62.002 38.705 0 60.027 0 .362 0 .686.168.882.422.11.127.176.286.19.453.015 0 .03.137.057.398V63.72c.385.1.71-.09.828-.434.03-.11.047-.22.047-.328V1.028c0-.086-.007-.161-.021-.224a.994.994 0 0 0-.951-.802A3.563 3.563 0 0 0 62.809 0H1" fill="url(#u)"/><path transform="translate(0 .002)" d="M1 0a.998.998 0 0 0-1 1v61.986c0 .174.058.358.157.535.17.259.473.397.78.355V3.06c.005-.122.01-.185.013-.185a.987.987 0 0 1 .36-.66c.187-.166.429-.277.675-.277 19.653.002 38.652 0 60.013 0 .363 0 .685.18.87.452a.88.88 0 0 1 .166.485c.007 0 .015.147.028.427V63.86c.412.05.76-.186.887-.553a1.1 1.1 0 0 0 .05-.328V1.014A.996.996 0 0 0 63.014 0a6.67 6.67 0 0 0-.219 0H1" fill="url(#v)"/><path transform="translate(0 .002)" d="M1 0a.998.998 0 0 0-1 1v1h64v-.998a.998.998 0 0 0-1-1H1z" fill="url(#w)"/><path d="M0 1v2.5l2-2zm64 2.5-2-2 2-.5z" fill="#ffccf4" fill-opacity=".734"/><g fill="#662f43" fill-opacity=".04"><path d="M2 0 0 1v21.5h2zm2 0v3.5h2V0zm4 0v17.5h2V0zm4 0v32.5h2V0zm8 0v27.5h2V0zm16 0v.5h2V0zm12 0v19.5h2V0zm4 0v33.5h2V0zm4 0v14.5h2V0zm4 0v30.5h2V0zM40 .5v37h2V.5zm-36 5v37h2v-37zm28 0v37h2v-37zm-8 1v37h2v-37zm-8 3v37h2v-37zm12 2v37h2v-37zm16 5v37h2v-37zm-36 3v37h2v-37zm28 0v37h2v-37zm12 2v37h2v-37zm-48 3v37h2v-37zm60 8V64h2V32.5zm-8 5V64h2V37.5zm4 14V64h2V51.5z"/><path d="M2 0 0 1v29h2zm2 0v14h2V0zm4 0v33h2V0zm4 0v19h2V0zm8 0v37h2V0zm20 0v27h2V0zm8 0v32h2V0zm4 0v17h2V0zm4 0v3h2V0zm4 0v22h2V0zM28 5v37h2V5zm28 0v37h2V5zM36 6v37h2V6zm8 3v37h2V9zm-12 2v37h2V11zm-16 5v37h2V16zm8 3v37h2V19zm28 0v37h2V19zm-40 2v37h2V21zm48 3v37h2V24zM0 32v30l2 2V32zm8 5v27h2V37zM4 51v13h2V51z"/><path d="M2 0 0 1v27.5h2zm2 0v12.5h2V0zm4 0v31.5h2V0zm4 0v17.5h2V0zm8 0v35.5h2V0zm20 0v25.5h2V0zm8 0v30.5h2V0zm4 0v15.5h2V0zm4 0v1.5h2V0zm4 0v20.5h2V0zM28 3.5v37h2v-37zm28 0v37h2v-37zm-20 1v37h2v-37zm8 3v37h2v-37zm-12 2v37h2v-37zm-16 5v37h2v-37zm8 3v37h2v-37zm28 0v37h2v-37zm-40 2v37h2v-37zm48 3v37h2v-37zm-60 8V62l2 2V30.5zm8 5V64h2V35.5zm-4 14V64h2V49.5z"/><path d="M2 0 0 1v19h2zm2 0v1h2V0zm4 0v15h2V0zm4 0v30h2V0zm8 0v25h2V0zm20 0v35h2V0zm8 0v17h2V0zm4 0v31h2V0zm4 0v12h2V0zm4 0v28h2V0zM4 3v37h2V3zm28 0v37h2V3zm-8 1v37h2V4zm-8 3v37h2V7zm12 2v37h2V9zm16 5v37h2V14zM8 17v37h2V17zm28 0v37h2V17zm12 2v37h2V19zM0 22v37h2V22zm60 8v34h2V30zm-8 5v29h2V35zm4 14v15h2V49z"/><path d="M2 0 0 1v32.5h2zm2 0v14.5h2V0zm4 0v28.5h2V0zm16 0v9.5h2V0zm8 0v6.5h2V0zm4 0v11.5h2V0zm12 0v30.5h2V0zm8 0v25.5h2V0zM20 1.5v37h2v-37zm40 3v37h2v-37zm-48 2v37h2v-37zm40 1v37h2v-37zm-12 4v37h2v-37zm-36 5v37h2v-37zm28 0v37h2v-37zm-8 1v37h2v-37zm-8 3v37h2v-37zm12 2v37h2v-37zm16 5V64h2V27.5zm-36 3V64h2V30.5zm28 0V64h2V30.5zm12 2V64h2V32.5zm-48 3V62l2 2V35.5zm60 8V64h2V43.5zm-8 5V64h2V48.5zm4 14V64h2v-1.5z"/><path d="M4 0v25h2V0zm8 0v30h2V0zm12 0v11h2V0zm4 0v6h2V0zm8 0v9h2V0zm16 0v28h2V0zm4 0v14h2V0zm4 0v33h2V0zM40 1v37h2V1zM0 4v37h2V4zm48 2v37h2V6zM8 7v37h2V7zm12 4v37h2V11zm8 5v37h2V16zm28 0v37h2V16zm-20 1v37h2V17zm8 3v37h2V20zm-12 2v37h2V22zm-16 5v37h2V27zm8 3v34h2V30zm28 0v34h2V30zm-40 2v32h2V32zm48 3v29h2V35zM0 43v19l2 2V43zm8 5v16h2V48zM4 62v2h2v-2z"/></g><g fill="#ff953a" fill-opacity=".01"><path d="M4 0 2 1v21.5h2zm2 0v3.5h2V0zm4 0v17.5h2V0zm4 0v32.5h2V0zm8 0v27.5h2V0zm16 0v.5h2V0zm12 0v19.5h2V0zm4 0v33.5h2V0zm4 0v14.5h2V0zm4 0v30.5h2V0zM42 .5v37h2V.5zm-36 5v37h2v-37zm28 0v37h2v-37zm-8 1v37h2v-37zm-8 3v37h2v-37zm12 2v37h2v-37zm16 5v37h2v-37zm-36 3v37h2v-37zm28 0v37h2v-37zm12 2v37h2v-37zm-48 3v37h2v-37zm60 8V64h2V32.5zm-8 5V64h2V37.5zm4 14V64h2V51.5z"/><path d="M4 0 2 1v29h2zm2 0v14h2V0zm4 0v33h2V0zm4 0v19h2V0zm8 0v37h2V0zm20 0v27h2V0zm8 0v32h2V0zm4 0v17h2V0zm4 0v3h2V0zm4 0v22h2V0zM30 5v37h2V5zm28 0v37h2V5zM38 6v37h2V6zm8 3v37h2V9zm-12 2v37h2V11zm-16 5v37h2V16zm8 3v37h2V19zm28 0v37h2V19zm-40 2v37h2V21zm48 3v37h2V24zM2 32v30l2 2V32zm8 5v27h2V37zM6 51v13h2V51z"/><path d="M4 0 2 1v27.5h2zm2 0v12.5h2V0zm4 0v31.5h2V0zm4 0v17.5h2V0zm8 0v35.5h2V0zm20 0v25.5h2V0zm8 0v30.5h2V0zm4 0v15.5h2V0zm4 0v1.5h2V0zm4 0v20.5h2V0zM30 3.5v37h2v-37zm28 0v37h2v-37zm-20 1v37h2v-37zm8 3v37h2v-37zm-12 2v37h2v-37zm-16 5v37h2v-37zm8 3v37h2v-37zm28 0v37h2v-37zm-40 2v37h2v-37zm48 3v37h2v-37zm-60 8V62l2 2V30.5zm8 5V64h2V35.5zm-4 14V64h2V49.5z"/><path d="M4 0 2 1v19h2zm2 0v1h2V0zm4 0v15h2V0zm4 0v30h2V0zm8 0v25h2V0zm20 0v35h2V0zm8 0v17h2V0zm4 0v31h2V0zm4 0v12h2V0zm4 0v28h2V0zM6 3v37h2V3zm28 0v37h2V3zm-8 1v37h2V4zm-8 3v37h2V7zm12 2v37h2V9zm16 5v37h2V14zm-36 3v37h2V17zm28 0v37h2V17zm12 2v37h2V19zM2 22v37h2V22zm60 8v34h2V30zm-8 5v29h2V35zm4 14v15h2V49z"/><path d="M4 0 2 1v32.5h2zm2 0v14.5h2V0zm4 0v28.5h2V0zm16 0v9.5h2V0zm8 0v6.5h2V0zm4 0v11.5h2V0zm12 0v30.5h2V0zm8 0v25.5h2V0zM22 1.5v37h2v-37zm40 3v37h2v-37zm-48 2v37h2v-37zm40 1v37h2v-37zm-12 4v37h2v-37zm-36 5v37h2v-37zm28 0v37h2v-37zm-8 1v37h2v-37zm-8 3v37h2v-37zm12 2v37h2v-37zm16 5V64h2V27.5zm-36 3V64h2V30.5zm28 0V64h2V30.5zm12 2V64h2V32.5zm-48 3V62l2 2V35.5zm60 8V64h2V43.5zm-8 5V64h2V48.5zm4 14V64h2v-1.5z"/><path d="M6 0v25h2V0zm8 0v30h2V0zm12 0v11h2V0zm4 0v6h2V0zm8 0v9h2V0zm16 0v28h2V0zm4 0v14h2V0zm4 0v33h2V0zM42 1v37h2V1zM2 4v37h2V4zm48 2v37h2V6zM10 7v37h2V7zm12 4v37h2V11zm8 5v37h2V16zm28 0v37h2V16zm-20 1v37h2V17zm8 3v37h2V20zm-12 2v37h2V22zm-16 5v37h2V27zm8 3v34h2V30zm28 0v34h2V30zm-40 2v32h2V32zm48 3v29h2V35zM2 43v19l2 2V43zm8 5v16h2V48zM6 62v2h2v-2z"/></g><g><g fill="#15004e" fill-opacity=".02" opacity=".541"><path d="M6.6 20.344v43.943l5.652 1.516 2.404.644 8.973 2.404v-.002l4.299-2.06 1.162-.555.803-.386.037-.018.047-.022 3.173-1.521 1.83 4.562 1.043-1.039 1.28-1.275.926-.924.984-.98.344-.342 2.38.637 14.649 3.925V24.908l-14.649-3.925-2.38-.637-.344.342-.984.98-.985.983-1.273 1.267v.002l-.99.986-1.83-4.562-2.73 1.309-2.898 1.388-3.894 1.865-6.957-1.863z"/><path d="M6.6 18.168v43.943l8.056 2.16 8.973 2.404v-.001l4.299-2.061 1.162-.555.803-.386.037-.018.047-.021 3.173-1.522 1.83 4.563 1.043-1.04 1.28-1.275.926-.924.984-.98.344-.342 2.38.637 14.649 3.925V22.732l-14.649-3.925-2.38-.637-.344.342-.984.98-.985.983-1.273 1.267v.002l-.99.987-1.83-4.563-2.73 1.309-2.898 1.388-3.894 1.866-6.957-1.864z"/><path d="M6.6 17.472v43.943l5.652 1.516 2.404.644 8.973 2.404v-.001l4.299-2.061 1.162-.555.803-.386.037-.018.047-.021 3.173-1.522 1.83 4.563 1.043-1.04 1.28-1.275.926-.924.984-.98.344-.342 2.38.637 14.649 3.925V22.038L41.936 18.11l-2.38-.637-.344.342-.984.98-.985.983-1.273 1.267v.002l-.99.987-1.83-4.563-2.73 1.309-2.898 1.388-3.894 1.866-6.957-1.864z"/><path d="M6.6 16.967V60.91l5.652 1.516 2.404.644 8.973 2.404v-.001l4.299-2.061 1.162-.555.803-.386.037-.018.047-.021 3.173-1.522 1.83 4.563 1.043-1.04 1.28-1.275.926-.924.984-.98.344-.342 2.38.637 14.649 3.925V21.531l-14.649-3.925-2.38-.637-.344.342-.984.98-.985.983-1.273 1.267v.002l-.99.987-1.83-4.563-2.73 1.309-2.898 1.388-3.894 1.866-6.957-1.864z"/><path d="M6.6 16.555v43.943l5.652 1.516 2.404.644 8.973 2.404v-.002L27.928 63l1.162-.555.803-.386.037-.018.047-.022 3.173-1.521 1.83 4.562 1.043-1.039 1.28-1.275.926-.924.984-.98.344-.342 2.38.637 14.649 3.925V21.12l-14.649-3.925-2.38-.637-.344.342-.984.98-.985.983-1.273 1.267v.002l-.99.986-1.83-4.562-2.73 1.309-2.898 1.388-3.894 1.865-6.957-1.863z"/><path d="M6.6 16.201v43.943l5.652 1.516 2.404.644 8.973 2.404v-.002l4.299-2.06 1.162-.555.803-.386.037-.018.047-.022 3.173-1.521 1.83 4.562 1.043-1.039 1.28-1.275.926-.924.984-.98.344-.342 2.38.637 14.649 3.925V20.765L41.936 16.84l-2.38-.637-.344.342-.984.98-.985.983-1.273 1.267v.002l-.99.986-1.83-4.562-2.73 1.309-2.898 1.388-3.894 1.865-6.957-1.863z"/><path d="M6.6 15.887V59.83l5.652 1.516 2.404.644 8.973 2.404v-.002l4.299-2.06 1.162-.555.803-.386.037-.018.047-.022 3.173-1.521 1.83 4.562 1.043-1.039 1.28-1.275.926-.924.984-.98.344-.342 2.38.637 14.649 3.925V20.451l-14.649-3.925-2.38-.637-.344.342-.984.98-.985.983-1.273 1.267v.002l-.99.987-1.83-4.563-2.73 1.309-2.898 1.388-3.894 1.866-6.957-1.864z"/><path d="M6.6 15.604v43.943l8.056 2.16 8.973 2.404v-.001l4.299-2.061 1.162-.555.803-.386.037-.018.047-.022 3.173-1.521 1.83 4.563 1.043-1.04 1.28-1.275.926-.924.984-.98.344-.342 2.38.637 14.649 3.925V20.168l-14.649-3.925-2.38-.637-.344.342-.984.98-.985.983-1.273 1.267v.002l-.99.987-1.83-4.563-2.73 1.309-2.898 1.388-3.894 1.866-6.957-1.864z"/><path d="M6.6 15.344v43.943l8.056 2.16 8.973 2.404v-.001l4.299-2.061 1.162-.555.803-.387.037-.017.047-.022 3.173-1.521 1.83 4.563 1.043-1.04 1.28-1.275.926-.924.984-.98.344-.342 2.38.637 14.649 3.925V19.908l-14.649-3.925-2.38-.637-.344.342-.984.98-.985.983-1.273 1.267v.002l-.99.987-1.83-4.563-2.73 1.309-2.898 1.388-3.894 1.866-6.957-1.864z"/><path d="M6.6 15.103v43.943l5.652 1.516 2.404.644 8.973 2.404v-.002l4.299-2.06 1.162-.555.803-.387.037-.017.047-.022 3.173-1.521 1.83 4.562 1.043-1.039 1.28-1.275.926-.924.984-.98.344-.342 2.38.637 14.649 3.925V19.667l-14.649-3.925-2.38-.637-.344.342-.984.98-.985.983-1.273 1.267v.002l-.99.986-1.83-4.562-2.73 1.309-2.898 1.388-3.894 1.865-6.957-1.863z"/><path d="M6.6 14.877V58.82l5.652 1.516 2.404.644 8.973 2.405v-.002l4.299-2.061 1.162-.555.803-.387.037-.017.047-.021 3.173-1.522 1.83 4.562 1.043-1.039 1.28-1.275.926-.924.984-.98.344-.342 2.38.637 14.649 3.925V19.441l-14.649-3.925-2.38-.637-.344.342-.984.98-.985.983-1.273 1.267v.002l-.99.986-1.83-4.562-2.73 1.309-2.898 1.388-3.894 1.865-6.957-1.863z"/><path d="M6.6 14.665v43.942l5.652 1.516 2.404.645 8.973 2.404v-.002l4.299-2.06 1.162-.555.803-.387.037-.018.047-.021 3.173-1.522 1.83 4.563 1.043-1.04 1.28-1.275.926-.923.984-.98.344-.343 2.38.637 14.649 3.926V19.229l-14.649-3.926-2.38-.637-.344.342-.984.98-.985.983-1.273 1.268v.002l-.99.986-1.83-4.563-2.73 1.309-2.898 1.389-3.894 1.865-6.957-1.863z"/><path d="M6.6 14.463v43.943l5.652 1.516 2.404.644 8.973 2.405v-.002l4.299-2.06 1.162-.555.803-.387.037-.018.047-.021 3.173-1.522 1.83 4.563 1.043-1.04 1.28-1.275.926-.924.984-.98.344-.342 2.38.637 14.649 3.926V19.028l-14.649-3.926-2.38-.637-.344.342-.984.98-.985.983-1.273 1.268v.002l-.99.986-1.83-4.563-2.73 1.309-2.898 1.389-3.894 1.865-6.957-1.863z"/><path d="M6.6 14.272v43.943l5.652 1.516 2.404.644 8.973 2.404v-.002l4.299-2.06 1.162-.555.803-.386.037-.018.047-.021 3.173-1.522 1.83 4.562 1.043-1.039 1.28-1.275.926-.924.984-.98.344-.342 2.38.637 14.649 3.925V18.836l-14.649-3.925-2.38-.637-.344.342-.984.98-.985.983-1.273 1.267v.002l-.99.987-1.83-4.563-2.73 1.309-2.898 1.388-3.894 1.866-6.957-1.864z"/><path d="M6.6 14.09v43.942l5.652 1.516 2.404.644 8.973 2.405v-.002l4.299-2.06 1.162-.555.803-.387.037-.018.047-.021 3.173-1.522 1.83 4.563 1.043-1.04 1.28-1.275.926-.923.984-.981.344-.342 2.38.637 14.649 3.926V18.654l-14.649-3.926-2.38-.637-.344.342-.984.98-.985.983-1.273 1.268v.002l-.99.986-1.83-4.563-2.73 1.309-2.898 1.389-3.894 1.865-6.957-1.863z"/><path d="M6.6 13.914v43.943l8.056 2.16 8.973 2.405v-.002l4.299-2.06 1.162-.556.803-.386.037-.018.047-.021 3.173-1.522 1.83 4.563 1.043-1.04 1.28-1.275.926-.924.984-.98.344-.342 2.38.637 14.649 3.926V18.479l-14.649-3.926-2.38-.637-.344.342-.984.98-.985.983-1.273 1.267v.002l-.99.987-1.83-4.563-2.73 1.309-2.898 1.388-3.894 1.866-6.957-1.864z"/><path d="M6.6 13.746V57.69l5.652 1.516 2.404.644 8.973 2.404v-.002l4.299-2.06 1.162-.555.803-.386.037-.018.047-.021 3.173-1.522 1.83 4.562 1.043-1.039 1.28-1.275.926-.924.984-.98.344-.342 2.38.637 14.649 3.925V18.31l-14.649-3.925-2.38-.637-.344.342-.984.98-.985.983-1.273 1.267v.002l-.99.987-1.83-4.563-2.73 1.309-2.898 1.388-3.894 1.866-6.957-1.864z"/></g><g fill="url(#x)"><g stroke-width="1.193"><path transform="matrix(.91549 -.15111 0 -.91549 21.248 62.585)" d="M-16 11.492v48l18.6-4.984v-48z" fill="url(#y)"/><path transform="matrix(.91549 -.15111 0 -.91549 21.248 62.585)" d="m-9.828 9.838 12.04 8.815c-5.905 1.97-10.67 7.94-11.161 13.95l-.05.013v.182l-7-5.109v5.65l7 5.11v3.167l-7 1.876v4l7-1.876v12l4-1.071v-12l3.183-.853L2.6 46.915v-8.422c-1.586.347-3.043.207-4.25-.33l-1.854-1.353C-4.444 35.75-5 34.293-5 32.545c0-4.307 3.348-8.67 7.6-10.017V13.28L-4 8.448v-.171z" color="#000" fill="url(#z)" style="font-feature-settings:normal;font-variant-alternates:normal;font-variant-caps:normal;font-variant-ligatures:normal;font-variant-numeric:normal;font-variant-position:normal;isolation:auto;mix-blend-mode:normal;shape-padding:0;text-decoration-color:#000;text-decoration-line:none;text-decoration-style:solid;text-indent:0;text-orientation:mixed;text-transform:none;white-space:normal"/></g><g stroke-width="1.596"><path transform="matrix(.51191 -.13384 0 -.91549 22.297 64.803)" d="M2.6 9v48h18.6V9z" fill="url(#A)"/><path transform="matrix(.51191 -.13384 0 -.91549 22.297 64.803)" d="M14.838 9c-.149.7-.005 1.461-.063 2.18l-.5 17.492c.49.774 1.293 1.339 1.907 2.03l5.017 4.802V9z" fill="url(#B)"/><path transform="matrix(.51191 -.13384 0 -.91549 22.297 64.803)" d="M13.268 9c-1.57 1.752-1.657 3.806 1.223 6.074 3.033 2.39 5.35 1.087 6.709 5.287V9.001z" fill="url(#C)"/><path transform="matrix(.51191 -.13384 0 -.91549 22.297 64.803)" d="M11 9v15.09a11.75 11.75 0 0 0-.564-.482L2.6 15.772v9.248c.133-.007.265-.02.4-.02 1.752 0 3.36.56 4.674 1.502l1.824 1.824A7.974 7.974 0 0 1 11 33c0 4.442-3.558 8-8 8-.135 0-.267-.009-.4-.015v8.421L10.209 57h5.662L3.805 44.96c5.969-.402 10.762-5.202 11.154-11.173l6.24 6.24v-5.656L15 28.172V9z" color="#000" fill="url(#D)" style="font-feature-settings:normal;font-variant-alternates:normal;font-variant-caps:normal;font-variant-ligatures:normal;font-variant-numeric:normal;font-variant-position:normal;isolation:auto;mix-blend-mode:normal;shape-padding:0;text-decoration-color:#000;text-decoration-line:none;text-decoration-style:solid;text-indent:0;text-orientation:mixed;text-transform:none;white-space:normal"/></g><g stroke-width="3.639"><path transform="matrix(.09843 .13375 0 -.91549 31.063 59.133)" d="M21.199 9v48h18.602V9z" fill="url(#E)"/><path transform="matrix(.09843 .13375 0 -.91549 31.063 59.133)" d="M21.199 9v26.504l6.574 6.291c.52.256.8-.511 1.178-.752 3.445-3.445 7.149-6.762 10.85-10.08V9z" fill="url(#F)"/><path transform="matrix(.09843 .13375 0 -.91549 31.063 59.133)" d="M21.199 9v11.361c.169.522.326 1.114.465 1.824 1.36 6.97 14.62 5.073 12.744-2.097-1.355-5.178.947-6.78 5.392-8.973V9z" fill="url(#G)"/><path transform="matrix(.09843 .13375 0 -.91549 31.063 59.133)" d="M39.801 29.371 28 41.172l-6.8-6.8v5.655L38.171 57h1.63v-4.027L30.827 44l8.973-8.972z" color="#000" fill="url(#H)" style="font-feature-settings:normal;font-variant-alternates:normal;font-variant-caps:normal;font-variant-ligatures:normal;font-variant-numeric:normal;font-variant-position:normal;isolation:auto;mix-blend-mode:normal;shape-padding:0;text-decoration-color:#000;text-decoration-line:none;text-decoration-style:solid;text-indent:0;text-orientation:mixed;text-transform:none;white-space:normal"/></g><g stroke-width="2.301"><path transform="matrix(.2461 -.13374 0 -.91549 25.185 69.777)" d="M39.801 9v48h18.6V9z" fill="url(#I)"/><path transform="matrix(.2461 -.13374 0 -.91549 25.185 69.777)" d="M39.801 9v21.963c3.543-3.176 7.084-6.354 10.383-9.652.2-.895.032-1.864.088-2.787-.022-2.84-.957-6.695-1.033-9.524z" fill="url(#J)"/><path transform="matrix(.2461 -.13374 0 -.91549 25.185 69.777)" d="M39.801 9v2.115c1.134-.56 2.317-1.12 3.72-1.832.187-.094.35-.189.516-.283z" fill="url(#K)"/><path transform="matrix(.2461 -.13374 0 -.91549 25.185 69.777)" d="M49 9v11.172l-9.2 9.2v5.655l9.2-9.199V57h4V9zm8 0v48h1.4V9zM39.801 52.973V57h4.027z" color="#000" fill="url(#L)" style="font-feature-settings:normal;font-variant-alternates:normal;font-variant-caps:normal;font-variant-ligatures:normal;font-variant-numeric:normal;font-variant-position:normal;isolation:auto;mix-blend-mode:normal;shape-padding:0;text-decoration-color:#000;text-decoration-line:none;text-decoration-style:solid;text-indent:0;text-orientation:mixed;text-transform:none;white-space:normal"/></g><g stroke-width="1.193"><path transform="matrix(.91549 .1514 0 -.91549 -13.907 52.961)" d="M58.4 9v48H77V9z" fill="url(#M)"/><path transform="matrix(.91549 .1514 0 -.91549 -13.907 52.961)" d="M60.803 9c-.149.7-.005 1.461-.063 2.18v13.754c.187.549.927.202 1.364.299h14.82c.031-.011.05-.03.076-.043V9z" fill="url(#N)"/><path transform="matrix(.91549 .1514 0 -.91549 -13.907 52.961)" d="M58.4 9v48H61V44h16v-4H61V29h16v-4H61V9z" color="#000" fill="url(#O)" style="font-feature-settings:normal;font-variant-alternates:normal;font-variant-caps:normal;font-variant-ligatures:normal;font-variant-numeric:normal;font-variant-position:normal;isolation:auto;mix-blend-mode:normal;shape-padding:0;text-decoration-color:#000;text-decoration-line:none;text-decoration-style:solid;text-indent:0;text-orientation:mixed;text-transform:none;white-space:normal"/><path transform="matrix(.91549 .1514 0 -.91549 -13.907 52.961)" d="M77 29H61v11h16z" fill="url(#P)"/></g></g><g stroke-width="1.574"><path d="M17.878 27.636c-5.723 0-10.363 4.639-10.363 10.362 0 .358.019.731.054 1.08.002.017-.001.035 0 .053.036.33.097.652.162.972.892 5.324 4.991 10.741 10.146 15.165 5.154-4.423 9.254-9.841 10.145-15.165.065-.32.127-.642.162-.972.002-.018-.002-.036 0-.054.035-.348.054-.721.054-1.079 0-5.723-4.64-10.362-10.362-10.362zm0 6.152c2.315 0 4.21 1.894 4.21 4.21s-1.895 4.21-4.21 4.21c-2.316 0-4.21-1.894-4.21-4.21s1.894-4.21 4.21-4.21z" stroke="#d9e0ef" stroke-width="3.188"/><g fill="#15004e" fill-opacity=".02"><path d="M17.878 33.71c-6.28 0-11.372 5.09-11.372 11.372 0 .393.02.802.06 1.184.001.02-.002.04 0 .06.038.362.104.715.177 1.066.98 5.843 5.477 11.788 11.134 16.643 5.657-4.854 10.155-10.8 11.134-16.643.072-.352.14-.704.178-1.067.001-.018-.002-.038 0-.059.038-.382.06-.791.06-1.184 0-6.28-5.092-11.372-11.373-11.372zm0 6.752c2.542 0 4.62 2.078 4.62 4.62s-2.078 4.62-4.62 4.62-4.62-2.079-4.62-4.62 2.078-4.62 4.62-4.62z" style="-inkscape-stroke:none;font-variation-settings:normal"/><path d="M17.878 31.707c-6.096 0-11.039 4.942-11.039 11.039 0 .381.02.779.058 1.15.001.02-.002.039 0 .057.037.352.102.694.172 1.035.951 5.672 5.317 11.443 10.808 16.156 5.491-4.712 9.858-10.484 10.808-16.156.07-.34.135-.683.172-1.036.002-.017-.001-.037 0-.056.038-.371.058-.769.058-1.15 0-6.096-4.941-11.039-11.039-11.039zm0 6.554c2.467 0 4.485 2.018 4.485 4.485s-2.018 4.484-4.485 4.484-4.485-2.017-4.485-4.485a4.496 4.496 0 0 1 4.485-4.484z" style="-inkscape-stroke:none;font-variation-settings:normal"/><path d="M17.878 31.066c-6.038 0-10.932 4.894-10.932 10.932 0 .378.02.771.057 1.139.002.019-.002.038 0 .057.037.348.101.687.17 1.025.943 5.617 5.267 11.333 10.705 16 5.438-4.667 9.763-10.382 10.704-16 .069-.338.134-.677.17-1.026.002-.018-.001-.037 0-.056.038-.368.058-.761.058-1.139 0-6.038-4.894-10.932-10.932-10.932zm0 6.49c2.444 0 4.442 1.999 4.442 4.443s-1.998 4.44-4.442 4.44-4.442-1.998-4.442-4.441a4.453 4.453 0 0 1 4.442-4.441z" style="-inkscape-stroke:none;font-variation-settings:normal"/><path d="M17.878 30.601c-5.995 0-10.855 4.86-10.855 10.855 0 .375.02.766.057 1.13.001.02-.002.039 0 .057.037.346.1.683.17 1.018.934 5.578 5.228 11.252 10.627 15.886 5.4-4.634 9.694-10.309 10.628-15.886.069-.335.133-.672.17-1.018.001-.018-.002-.037 0-.056.037-.365.057-.756.057-1.131 0-5.995-4.86-10.855-10.855-10.855zm0 6.445a4.422 4.422 0 0 1 4.41 4.41c0 2.426-1.984 4.41-4.41 4.41s-4.41-1.984-4.41-4.41 1.984-4.41 4.41-4.41z" style="-inkscape-stroke:none;font-variation-settings:normal"/><path d="M17.878 30.222c-5.96 0-10.792 4.831-10.792 10.792 0 .373.02.761.056 1.124.002.02-.001.038 0 .056.037.344.1.679.169 1.012.93 5.545 5.198 11.187 10.566 15.794 5.368-4.607 9.637-10.249 10.566-15.794.068-.333.132-.668.168-1.012.002-.018-.001-.037 0-.056a11.4 11.4 0 0 0 .057-1.124c0-5.96-4.831-10.792-10.792-10.792zm0 6.407a4.396 4.396 0 0 1 4.385 4.385 4.396 4.396 0 0 1-4.385 4.384 4.396 4.396 0 0 1-4.385-4.385 4.396 4.396 0 0 1 4.385-4.383z" style="-inkscape-stroke:none;font-variation-settings:normal"/><path d="M17.878 29.896c-5.93 0-10.738 4.807-10.738 10.738 0 .37.019.757.056 1.118.002.02-.001.038 0 .056.037.342.1.675.168 1.007.925 5.517 5.172 11.131 10.513 15.715 5.341-4.584 9.589-10.198 10.513-15.715.068-.332.131-.665.168-1.007.001-.018-.002-.037 0-.056.036-.36.056-.747.056-1.118 0-5.93-4.807-10.738-10.738-10.738zm0 6.375c2.4 0 4.362 1.963 4.362 4.363 0 2.4-1.962 4.362-4.362 4.362a4.374 4.374 0 0 1-4.363-4.363c0-2.4 1.963-4.362 4.363-4.362z" style="-inkscape-stroke:none;font-variation-settings:normal"/><path d="M17.878 29.607c-5.904 0-10.69 4.785-10.69 10.69 0 .37.019.754.056 1.113.002.02-.002.038 0 .056.036.34.099.672.167 1.002.92 5.493 5.149 11.081 10.466 15.645 5.317-4.563 9.546-10.151 10.466-15.644.067-.331.13-.662.167-1.004.001-.017-.002-.036 0-.055.036-.359.056-.744.056-1.113 0-5.904-4.786-10.69-10.69-10.69zm0 6.347c2.39 0 4.343 1.954 4.343 4.343s-1.954 4.342-4.343 4.342-4.343-1.954-4.343-4.343a4.354 4.354 0 0 1 4.343-4.342z" style="-inkscape-stroke:none;font-variation-settings:normal"/><path d="M17.878 29.346c-5.88 0-10.647 4.766-10.647 10.646 0 .368.019.751.056 1.109.001.019-.002.038 0 .056.036.339.098.669.166.998.917 5.47 5.128 11.036 10.424 15.58 5.296-4.544 9.507-10.11 10.424-15.58.067-.33.13-.66.166-1 .002-.016-.001-.035 0-.054.036-.358.056-.741.056-1.109 0-5.88-4.766-10.646-10.647-10.646zm0 6.321c2.38 0 4.325 1.946 4.325 4.325s-1.945 4.325-4.325 4.325-4.325-1.946-4.325-4.325 1.945-4.325 4.325-4.325z" style="-inkscape-stroke:none;font-variation-settings:normal"/><path d="M17.878 29.107c-5.858 0-10.607 4.748-10.607 10.607 0 .366.019.748.055 1.105.002.018-.001.037 0 .055.036.338.098.667.166.995.914 5.45 5.109 10.995 10.385 15.523 5.276-4.528 9.472-10.073 10.385-15.523.067-.328.13-.657.166-.996.001-.017-.002-.036 0-.054.036-.357.055-.739.055-1.105 0-5.858-4.748-10.607-10.607-10.607zm0 6.297a4.32 4.32 0 0 1 4.31 4.31 4.32 4.32 0 0 1-4.31 4.308 4.32 4.32 0 0 1-4.31-4.31 4.32 4.32 0 0 1 4.31-4.308z" style="-inkscape-stroke:none;font-variation-settings:normal"/><path d="M17.878 28.885c-5.837 0-10.57 4.732-10.57 10.57 0 .365.019.746.055 1.1.002.02-.001.038 0 .056.036.337.098.664.165.991.91 5.43 5.091 10.957 10.35 15.47 5.257-4.513 9.438-10.039 10.348-15.47.067-.327.13-.654.165-.992.002-.017-.001-.036 0-.054.036-.355.056-.736.056-1.101 0-5.837-4.732-10.57-10.57-10.57zm0 6.276a4.306 4.306 0 0 1 4.294 4.294 4.305 4.305 0 0 1-4.294 4.293 4.306 4.306 0 0 1-4.294-4.294 4.305 4.305 0 0 1 4.294-4.294z" style="-inkscape-stroke:none;font-variation-settings:normal"/><path d="M17.878 28.677c-5.818 0-10.535 4.716-10.535 10.535 0 .364.019.743.055 1.097.002.019-.002.038 0 .055.036.336.097.662.165.988.907 5.413 5.074 10.921 10.315 15.418 5.24-4.497 9.408-10.005 10.315-15.418.066-.326.128-.652.164-.988.002-.017-.002-.036 0-.055.036-.354.055-.733.055-1.097 0-5.818-4.716-10.535-10.535-10.535zm0 6.255a4.292 4.292 0 0 1 4.28 4.28 4.291 4.291 0 0 1-4.28 4.28c-2.355 0-4.28-1.926-4.28-4.28s1.925-4.28 4.28-4.28z" style="-inkscape-stroke:none;font-variation-settings:normal"/><path d="M17.878 28.481c-5.8 0-10.503 4.702-10.503 10.503 0 .363.019.74.055 1.094.002.018-.002.037 0 .055.035.334.097.66.164.985.905 5.396 5.059 10.887 10.283 15.37 5.224-4.483 9.379-9.974 10.283-15.37.066-.325.128-.65.164-.986.002-.017-.002-.036 0-.054.035-.353.055-.731.055-1.094 0-5.8-4.702-10.503-10.503-10.503zm0 6.236c2.348 0 4.267 1.92 4.267 4.267s-1.92 4.266-4.267 4.266-4.267-1.92-4.267-4.267 1.92-4.266 4.267-4.266z" style="-inkscape-stroke:none;font-variation-settings:normal"/><path d="M17.878 28.296c-5.783 0-10.472 4.688-10.472 10.472 0 .362.019.739.055 1.09.001.02-.002.038 0 .055.035.334.096.659.163.982.902 5.38 5.044 10.855 10.253 15.326 5.21-4.47 9.352-9.945 10.253-15.326.066-.323.128-.648.164-.982.001-.017-.002-.036 0-.054.035-.352.055-.73.055-1.091 0-5.783-4.688-10.472-10.472-10.472zm0 6.218c2.34 0 4.255 1.913 4.255 4.254s-1.914 4.254-4.255 4.254-4.255-1.914-4.255-4.255 1.914-4.254 4.255-4.254z" style="-inkscape-stroke:none;font-variation-settings:normal"/><path d="M17.878 28.12c-5.767 0-10.443 4.675-10.443 10.443 0 .36.018.737.055 1.087.001.019-.002.038 0 .055.035.333.096.656.163.98.9 5.365 5.03 10.824 10.224 15.282C23.07 51.51 27.202 46.05 28.1 40.684c.065-.323.127-.646.163-.98.001-.016-.002-.035 0-.053.035-.352.054-.727.054-1.088 0-5.767-4.674-10.443-10.443-10.443zm0 6.2a4.254 4.254 0 0 1 4.243 4.243 4.254 4.254 0 0 1-4.243 4.242 4.254 4.254 0 0 1-4.243-4.243 4.253 4.253 0 0 1 4.243-4.242z" style="-inkscape-stroke:none;font-variation-settings:normal"/><path d="M17.878 27.952c-5.752 0-10.415 4.662-10.415 10.415 0 .36.018.735.054 1.085.002.018-.001.037 0 .054.036.332.097.655.163.977.897 5.35 5.016 10.796 10.197 15.242 5.18-4.446 9.3-9.891 10.197-15.242.066-.322.127-.645.163-.978.001-.016-.002-.035 0-.053.035-.35.054-.725.054-1.085 0-5.752-4.662-10.415-10.415-10.415zm0 6.184c2.328 0 4.231 1.903 4.231 4.23s-1.903 4.231-4.231 4.231-4.231-1.903-4.231-4.231 1.903-4.23 4.231-4.23z" style="-inkscape-stroke:none;font-variation-settings:normal"/><path d="M17.878 27.791c-5.737 0-10.388 4.65-10.388 10.388 0 .359.018.733.054 1.082.002.018-.001.037 0 .054.035.331.096.653.163.974.894 5.337 5.003 10.768 10.17 15.203 5.168-4.434 9.277-9.865 10.172-15.203.065-.321.127-.643.162-.975.001-.016-.002-.035 0-.053.035-.35.054-.723.054-1.082 0-5.737-4.65-10.388-10.388-10.388zm0 6.168c2.322 0 4.22 1.898 4.22 4.22s-1.898 4.22-4.22 4.22-4.22-1.899-4.22-4.22 1.898-4.22 4.22-4.22z" style="-inkscape-stroke:none;font-variation-settings:normal"/><path d="M17.878 27.636c-5.723 0-10.362 4.639-10.362 10.362 0 .358.018.73.054 1.08.002.017-.001.036 0 .053.035.33.096.652.162.972.893 5.324 4.991 10.742 10.145 15.165 5.154-4.423 9.254-9.84 10.145-15.165.065-.32.127-.642.162-.972.001-.017-.002-.035 0-.054.035-.348.054-.721.054-1.079 0-5.723-4.639-10.362-10.362-10.362zm0 6.152a4.221 4.221 0 0 1 4.21 4.21 4.22 4.22 0 0 1-4.21 4.21 4.221 4.221 0 0 1-4.21-4.21 4.22 4.22 0 0 1 4.21-4.21z" style="-inkscape-stroke:none;font-variation-settings:normal"/></g><path d="M17.878 27.636c-5.723 0-10.362 4.639-10.362 10.362 0 .358.018.73.054 1.08.002.018-.001.036 0 .053.035.33.096.652.162.972.893 5.324 4.991 10.742 10.145 15.165 5.154-4.424 9.253-9.84 10.145-15.165.065-.32.127-.642.162-.972.001-.017-.002-.035 0-.054.035-.348.054-.721.054-1.079 0-5.723-4.639-10.362-10.362-10.362zm0 6.152c2.316 0 4.21 1.894 4.21 4.21s-1.894 4.21-4.21 4.21-4.21-1.894-4.21-4.21 1.894-4.21 4.21-4.21z" fill="url(#Q)"/></g><path d="M56.586 12.437 39.558 9.621l-4.577 2.651-1.831-2.488-9.521 2.507L6.6 10.539" fill="none" stroke="#fff" stroke-linecap="round" stroke-opacity=".561" stroke-width=".7"/></g></svg>