<?xml version="1.0" encoding="UTF-8"?>
<!-- Created with Inkscape (http://www.inkscape.org/) -->
<svg width="64" height="64" version="1.1" xmlns="http://www.w3.org/2000/svg" xmlns:cc="http://creativecommons.org/ns#" xmlns:dc="http://purl.org/dc/elements/1.1/" xmlns:rdf="http://www.w3.org/1999/02/22-rdf-syntax-ns#" xmlns:xlink="http://www.w3.org/1999/xlink">
	<defs>
		<linearGradient id="a">
			<stop stop-color="#7e0b26" stop-opacity=".44908" offset="0"/>
			<stop stop-color="#7e0b26" stop-opacity="0" offset="1"/>
		</linearGradient>
		<linearGradient id="d" x1="11.351" x2="11.351" y1="10.67" y2=".11082" gradientUnits="userSpaceOnUse" xlink:href="#c"/>
		<linearGradient id="c">
			<stop stop-color="#e3afc8" offset="0"/>
			<stop stop-color="#ddd3d9" offset=".18215"/>
			<stop stop-color="#e3e8ea" offset=".44303"/>
			<stop stop-color="#ffffff" offset=".6718"/>
			<stop stop-color="#f4f6f8" offset=".96296"/>
			<stop stop-color="#f1f4f6" offset="1"/>
		</linearGradient>
		<linearGradient id="e" x1="-22.649" x2="-22.649" y1="10.67" y2=".11082" gradientUnits="userSpaceOnUse" xlink:href="#c"/>
		<linearGradient id="b" x1="47.75" x2="47.189" y1="55.438" y2="53.345" gradientUnits="userSpaceOnUse">
			<stop stop-color="#969696" offset="0"/>
			<stop stop-color="#b3b3b3" offset="1"/>
		</linearGradient>
		<radialGradient id="i" cx="-28.201" cy="142.81" r="32" fx="7.1729" fy="142.78" gradientTransform="matrix(-.19817 -.19817 .14168 -.14168 29.335 25.201)" gradientUnits="userSpaceOnUse" xlink:href="#a"/>
		<radialGradient id="h" cx="57.773" cy="22.556" r="32" fx="93.147" fy="22.527" gradientTransform="matrix(-.19817 -.19817 .14168 -.14168 29.335 25.201)" gradientUnits="userSpaceOnUse" xlink:href="#a"/>
		<radialGradient id="g" cx="52.109" cy="61.044" r="27" gradientTransform="matrix(.89152 0 0 .72643 4.3706 11.571)" gradientUnits="userSpaceOnUse">
			<stop stop-color="#ffffff" stop-opacity=".56776" offset="0"/>
			<stop stop-color="#ffffff" stop-opacity="0" offset="1"/>
		</radialGradient>
		<radialGradient id="f" cx="9.7286" cy="38.707" r="27" gradientTransform="matrix(2.709 -.3155 .066445 .57051 -22.748 19.584)" gradientUnits="userSpaceOnUse">
			<stop stop-color="#2d4458" stop-opacity=".2494" offset="0"/>
			<stop stop-color="#2d4458" stop-opacity="0" offset="1"/>
		</radialGradient>
	</defs>
	<metadata>
		<rdf:RDF>
			<cc:Work rdf:about="">
				<dc:format>image/svg+xml</dc:format>
				<dc:type rdf:resource="http://purl.org/dc/dcmitype/StillImage"/>
				<dc:title/>
			</cc:Work>
		</rdf:RDF>
	</metadata>
	<path d="m1.6362e-8 15h64v46l-3 3h-58l-3-3z" color="#000000" fill="#d12f54"/>
	<path d="m6 15v44h24l33.088 2.6187c-1.3283-1.239-2.7369-3.1236-3.0884-7.6187v-39z" color="#000000" fill="#550000" fill-opacity=".074579" style="font-variant-east_asian:normal"/>
	<path d="m5 14v44h54v-44z" color="#000000" fill="#bebebe"/>
	<path d="m5 15v44h25l29-6v-38z" color="#000000" fill="#e7e7e7"/>
	<path d="m5 15v44h25l29-6v-38z" color="#000000" fill="url(#g)"/>
	<path d="m5 15v44h25l29-6v-38z" color="#000000" fill="url(#f)"/>
	<path d="m0 3v12h64v-12h-32z" color="#000000" fill="#d12f54"/>
	<path d="m0 3v12h64v-12h-32z" color="#000000" fill="url(#h)"/>
	<path d="m0 3v12h64v-12h-32z" color="#000000" fill="url(#i)"/>
	<path d="m1.6362e-8 18v-3h64v3h-32z" color="#000000" fill="#550000" fill-opacity=".074579" style="font-variant-east_asian:normal"/>
	<path d="m2 1-2 1v1h63.999v-1l-2-1h-42.437z" color="#000000" fill="#ff66a3"/>
	<path d="m0 2v3l2-2z" fill="#ff83b5"/>
	<g transform="translate(4)">
		<rect x="9" width="4" height="11" color="#000000" fill="url(#d)"/>
		<path d="m13 1v3.7812c0.44717 0.72485 0.71875 1.5221 0.71875 2.2188 0 0.69561-0.27272 1.1672-0.71875 1.375v2.625h-3.7812c0.60482 0.52089 1.2469 0.99433 1.9062 1.375 3.8019 2.195 6.875 0.89566 6.875-2.9062 0-1.7067-0.62919-3.6154-1.6641-5.4017-0.90012-1.1495-2.0191-2.1676-3.3359-3.0671z" color="#000000" fill="#550000" fill-opacity=".074579" style="font-variant-east_asian:normal"/>
	</g>
	<g transform="translate(38)">
		<rect x="9" width="4" height="11" color="#000000" fill="url(#e)"/>
		<path d="m13 1v3.7812c0.44717 0.72485 0.71875 1.5221 0.71875 2.2188 0 0.69561-0.27272 1.1672-0.71875 1.375v2.625h-3.7812c0.60482 0.52089 1.2469 0.99433 1.9062 1.375 3.8019 2.195 6.875 0.89566 6.875-2.9062 0-1.7067-0.62919-3.6154-1.6641-5.4017-0.90012-1.1495-2.0191-2.1676-3.3359-3.0671z" color="#000000" fill="#550000" fill-opacity=".074579" style="font-variant-east_asian:normal"/>
	</g>
	<path d="m64 5-2-2 2-1z" fill="#d7577e" fill-opacity=".99563"/>
	<path d="m59 52.633-0.0023 0.38009-28.998 5.9871 27.205-8.9445c0.31725 1.7207 1.7955 3.9019 1.7955 2.5774z" color="#000000" fill="url(#b)"/>
	<path d="m29.95 21v0.01651l-1.4043 3.5115-2.4648 1.0123-3.4771-1.4965-2.993 2.993 1.3686 3.18 0.12792 0.2971v0.0014l-1.0123 2.4634h-1.4085c-1.9507 0-3.5212 1.5704-3.5212 3.5212 0 1.9507 1.5704 3.5212 3.5212 3.5212h1.4085l0.28609 0.70423h0.0028l0.72349 1.7606-1.4965 3.4771 2.993 2.993 3.18-1.3686 0.2971-0.12792h0.0014l2.4634 1.0123 1.4043 3.5115v0.0165h4.2336v-0.0165l1.4043-3.5115 2.4648-1.0123 3.4771 1.4965 2.9929-2.993-1.3686-3.18-0.12792-0.2971v-0.0014l1.0123-2.4634h-5.0617c-0.0801 0.15687-0.16553 0.31034-0.25583 0.46078-0.18061 0.30087-0.38103 0.58858-0.5997 0.86103-1.0933 1.3623-2.6392 2.3471-4.4083 2.7289-0.17691 0.03818-0.35666 0.07037-0.5378 0.09628-0.36185 0.05168-0.73264 0.0784-1.1086 0.0784-1.3374 0-2.5952-0.33868-3.6931-0.93531-0.21953-0.11925-0.43215-0.24867-0.63821-0.38788-1.0187-0.68823-1.8626-1.6128-2.4579-2.6945-0.02925-0.05316-0.05449-0.1084-0.08252-0.1623-0.0077-0.01488-0.01437-0.03045-0.022-0.04539h5.4853c1.9507 0 3.5212-1.5704 3.5212-3.5212s-1.5704-3.5212-3.5212-3.5212h-5.4853c0.02889-0.05646 0.0523-0.11628 0.08252-0.17193 0.71534-1.3168 1.8015-2.4026 3.1181-3.1181 0.21953-0.11925 0.4464-0.22798 0.6781-0.32598 0.92678-0.392 1.9454-0.60933 3.015-0.60933 0.18822 0 0.3749 6e-3 0.55981 0.01926 0.18491 0.01318 0.36766 0.03324 0.54881 0.05915 1.9931 0.28468 3.7432 1.3264 4.9461 2.8252 0.21867 0.27245 0.41909 0.56016 0.5997 0.86103 0.09031 0.15044 0.17573 0.30392 0.25583 0.46078h5.0617l-1.0123-2.4648 1.4965-3.4771-2.993-2.993-3.18 1.3686-0.2971 0.12792h-0.0014l-2.4634-1.0123-1.4043-3.5115v-0.0165zm-3.517 13.387h4.2254c1.1704 0 2.1127 0.94226 2.1127 2.1127 0 1.1704-0.94226 2.1127-2.1127 2.1127h-4.2254c-1.1704 0-2.1127-0.94226-2.1127-2.1127 0-1.1704 0.94226-2.1127 2.1127-2.1127z" color="#000000" fill="#2d4458"/>
</svg>
