<?xml version="1.0" encoding="UTF-8"?>
<svg width="64" height="64" version="1.1" xmlns="http://www.w3.org/2000/svg" xmlns:cc="http://creativecommons.org/ns#" xmlns:dc="http://purl.org/dc/elements/1.1/" xmlns:rdf="http://www.w3.org/1999/02/22-rdf-syntax-ns#" xmlns:xlink="http://www.w3.org/1999/xlink">
	<defs>
		<linearGradient id="a-3-2-5">
			<stop stop-color="#a6e5ff" stop-opacity=".16389" offset="0"/>
			<stop stop-color="#96e0ff" stop-opacity=".047059" offset="1"/>
		</linearGradient>
		<radialGradient id="radialGradient65580-2" cx="32" cy="32" r="32" gradientTransform="matrix(1.2294,0,0,1.191,-7.3406,-6.3023)" gradientUnits="userSpaceOnUse">
			<stop stop-color="#3980eb" offset="0"/>
			<stop stop-color="#3a91e9" offset="1"/>
		</radialGradient>
		<radialGradient id="e-5-6-3" cx="35.574" cy="1.019" r="32" gradientTransform="matrix(0,1.1252,-5.1753,0,37.271,-39.029)" gradientUnits="userSpaceOnUse" xlink:href="#a-3-2-5"/>
		<radialGradient id="f-6-9-2" cx="35.574" cy="1.036" r="32" gradientTransform="matrix(0,1.1252,-5.1753,0,37.363,-39.029)" gradientUnits="userSpaceOnUse" xlink:href="#a-3-2-5"/>
		<radialGradient id="g-2-1-28" cx="35.574" cy="1.055" r="32" gradientTransform="matrix(0,1.1252,-5.1753,0,37.458,-39.029)" gradientUnits="userSpaceOnUse" xlink:href="#a-3-2-5"/>
		<radialGradient id="h-2-97" cx="35.574" cy="1.071" r="32" gradientTransform="matrix(0,1.1252,-5.1753,0,37.544,-39.029)" gradientUnits="userSpaceOnUse" xlink:href="#a-3-2-5"/>
		<radialGradient id="i-7-3" cx="35.574" cy="1.091" r="32" gradientTransform="matrix(0,1.1252,-5.1753,0,37.648,-39.029)" gradientUnits="userSpaceOnUse" xlink:href="#a-3-2-5"/>
		<radialGradient id="j-0-6" cx="35.574" cy="1.113" r="32" gradientTransform="matrix(0,1.1252,-5.1753,0,37.758,-39.029)" gradientUnits="userSpaceOnUse" xlink:href="#a-3-2-5"/>
		<radialGradient id="k-9-1" cx="35.574" cy="1.135" r="32" gradientTransform="matrix(0,1.1252,-5.1753,0,37.875,-39.029)" gradientUnits="userSpaceOnUse" xlink:href="#a-3-2-5"/>
		<radialGradient id="l-3-2" cx="35.574" cy="1.159" r="32" gradientTransform="matrix(0,1.1252,-5.1753,0,38,-39.029)" gradientUnits="userSpaceOnUse" xlink:href="#a-3-2-5"/>
		<radialGradient id="m-6-93" cx="35.574" cy="1.18" r="32" gradientTransform="matrix(0,1.1252,-5.1753,0,38.107,-39.029)" gradientUnits="userSpaceOnUse" xlink:href="#a-3-2-5"/>
		<radialGradient id="n-0-1" cx="35.574" cy="1.208" r="32" gradientTransform="matrix(0,1.1252,-5.1753,0,38.252,-39.029)" gradientUnits="userSpaceOnUse" xlink:href="#a-3-2-5"/>
		<radialGradient id="o-6-9" cx="35.574" cy="1.239" r="32" gradientTransform="matrix(0,1.1252,-5.1753,0,38.411,-39.029)" gradientUnits="userSpaceOnUse" xlink:href="#a-3-2-5"/>
		<radialGradient id="p-2-4" cx="35.574" cy="1.273" r="32" gradientTransform="matrix(0,1.1252,-5.1753,0,38.587,-39.029)" gradientUnits="userSpaceOnUse" xlink:href="#a-3-2-5"/>
		<radialGradient id="q-6-7" cx="35.574" cy="1.304" r="32" gradientTransform="matrix(0,1.1252,-5.1753,0,38.75,-39.029)" gradientUnits="userSpaceOnUse" xlink:href="#a-3-2-5"/>
		<radialGradient id="r-1-8" cx="35.574" cy="1.346" r="32" gradientTransform="matrix(0,1.1252,-5.1753,0,38.966,-39.029)" gradientUnits="userSpaceOnUse" xlink:href="#a-3-2-5"/>
		<radialGradient id="s-8-4" cx="35.574" cy="1.393" r="32" gradientTransform="matrix(0,1.1252,-5.1753,0,39.208,-39.029)" gradientUnits="userSpaceOnUse" xlink:href="#a-3-2-5"/>
		<radialGradient id="t-7-5" cx="35.574" cy="1.439" r="32" gradientTransform="matrix(0,1.1252,-5.1753,0,39.446,-39.027)" gradientUnits="userSpaceOnUse" xlink:href="#a-3-2-5"/>
		<radialGradient id="u-9-0" cx="16.612" cy="1.4814" r="32" gradientTransform="matrix(0 .013135 -1.2755 0 33.91 1.2789)" gradientUnits="userSpaceOnUse">
			<stop stop-color="#9af2ff" stop-opacity=".53875" offset="0"/>
			<stop stop-color="#ffffff" stop-opacity=".0021116" offset="1"/>
		</radialGradient>
	</defs>
	<metadata>
		<rdf:RDF>
			<cc:Work rdf:about="">
				<dc:format>image/svg+xml</dc:format>
				<dc:type rdf:resource="http://purl.org/dc/dcmitype/StillImage"/>
			</cc:Work>
		</rdf:RDF>
	</metadata>
	<g>
		<path d="m1 0c-0.554 0-1 0.446-1 1v62c0 0.554 0.446 1 1 1h62c0.554 0 1-0.446 1-1v-62c0-0.554-0.446-1-1-1z" fill="url(#radialGradient65580-2)" style="-inkscape-stroke:none;font-variation-settings:normal"/>
		<g transform="translate(8.0016e-5 .057009)">
			<path transform="translate(0 .002)" d="m1 0c-0.554 0-1 0.446-1 1v62-0.224 0.224-62h1.752c19.15 2e-3 39.445 0 60.213 0h2.035v62-0.334 0.334-62c0.0011-0.55274-0.44726-1.0011-1-1z" fill="url(#e-5-6-3)"/>
			<path transform="translate(0 .002)" d="m1 0c-0.5551-0.0011303-1.0045 0.45091-1 1.006v61.98-0.197c0-0.277 4e-3 -0.184 0.01 0.246 0.012 0.016 0.03-0.297 0.052-0.897v-61c0.072-9e-3 0.133-0.013 0.185-0.013 0.29-0.016 0.357-0.032 0.774-0.044 0.246-0.011 0.496-0.019 0.747-0.019 19.183 2e-3 39.392 0 60.2 0 0.346 0 0.689 0.012 1.023 0.03 0.268 0.01 0.389 0.02 0.52 0.033 0.106 0 0.22 0.01 0.427 0.028v60.744c0.027 0.754 0.05 1.148 0.059 1.123l3e-3 -0.334v0.286-61.762c0-0.143 0-0.22-2e-3 -0.224-0.005475-0.55246-0.45958-0.9949-1.012-0.986h-61.986" fill="url(#f-6-9-2)"/>
			<path transform="translate(0 .002)" d="m1 0c-0.5551-0.0011303-1.0045 0.45091-1 1.006v61.966-0.169c0-0.245 8e-3 -0.145 0.021 0.266 0.022 0.034 0.06-0.247 0.104-0.807v-60.988c0.056484-0.015102 0.11455-0.023493 0.173-0.025 0.27-0.031 0.341-0.064 0.743-0.088 0.242-0.022 0.492-0.037 0.742-0.037 19.217 2e-3 39.34 0 60.187 0 0.347 0 0.69 0.024 1.013 0.06 0.256 0.02 0.372 0.042 0.494 0.065 0.1 0 0.206 0.02 0.398 0.057v60.731c0.055 0.703 0.102 1.052 0.119 1.003 4e-3 -0.154 6e-3 -0.265 6e-3 -0.333v0.237-61.748c0-0.139 0-0.215-3e-3 -0.224-0.011441-0.46771-0.34748-0.86412-0.807-0.952-0.071417-0.014359-0.14416-0.021063-0.217-0.02h-61.973" fill="url(#g-2-1-28)"/>
			<path transform="translate(0 .002)" d="m1 0c-0.55471-0.0011253-1.0039 0.45031-1 1.005v61.953-0.14c0-0.213 0.012-0.107 0.031 0.287 0.034 0.05 0.091-0.198 0.156-0.718v-60.974c0.050612-0.022043 0.10485-0.034585 0.16-0.037 0.252-0.048 0.327-0.097 0.715-0.132 0.238-0.034 0.487-0.056 0.737-0.056 19.25 2e-3 39.286 0 60.173 0 0.348 0 0.688 0.036 1.001 0.09 0.244 0.029 0.356 0.062 0.47 0.098 0.091 0 0.19 0.03 0.37 0.085v60.718c0.082 0.653 0.151 0.957 0.176 0.884 7e-3 -0.152 0.01-0.262 0.01-0.333v0.188-61.734c0-0.135 0-0.21-4e-3 -0.224-0.017399-0.46717-0.35861-0.85879-0.819-0.94-0.071505-0.013569-0.14424-0.019602-0.217-0.018h-61.96" fill="url(#h-2-97)"/>
			<path transform="translate(0 .002)" d="m1 0c-0.55471-0.0011253-1.0039 0.45031-1 1.005v61.939-0.113c0-0.18 0.015-0.068 0.042 0.308 0.045 0.067 0.121-0.149 0.208-0.629v-60.96c0.044295-0.028947 0.095225-0.046153 0.148-0.05 0.232-0.063 0.311-0.128 0.684-0.176 0.234-0.044 0.483-0.074 0.732-0.074 19.284 2e-3 39.234 0 60.16 0 0.35 0 0.689 0.048 0.991 0.12 0.232 0.039 0.34 0.083 0.444 0.13 0.085 0 0.176 0.04 0.341 0.114v60.704c0.11 0.603 0.203 0.862 0.236 0.764 0.0082-0.11082 0.01287-0.22188 0.014-0.333v0.14-61.721c0-0.13-2e-3 -0.206-6e-3 -0.224-0.024028-0.46583-0.36965-0.85184-0.83-0.927-0.072548-0.013262-0.14628-0.018959-0.22-0.017h-61.944" fill="url(#i-7-3)"/>
			<path transform="translate(0 .002)" d="m1 0c-0.55431-0.0011209-1.0033 0.4497-1 1.004v61.926-0.084c0-0.148 0.02-0.029 0.052 0.328 0.056 0.084 0.152-0.099 0.26-0.539v-60.949c0.053-0.04 0.097-0.061 0.136-0.061 0.212-0.08 0.297-0.16 0.655-0.22 0.23-0.056 0.477-0.093 0.727-0.093 19.317 2e-3 39.18 0 60.147 0 0.35 0 0.688 0.06 0.98 0.151 0.22 0.047 0.322 0.102 0.418 0.162 0.078 0 0.162 0.049 0.313 0.142v60.69c0.137 0.553 0.253 0.767 0.295 0.645 0.0096-0.11043 0.01523-0.22117 0.017-0.332v0.09-61.705c0-0.126-2e-3 -0.202-7e-3 -0.224-0.03077-0.46514-0.38186-0.8458-0.843-0.914-0.071921-0.0129-0.14495-0.018594-0.218-0.017h-61.932" fill="url(#j-0-6)"/>
			<path transform="translate(0 .002)" d="m1 0c-0.55431-0.0011209-1.0033 0.4497-1 1.004v61.912-0.056c0-0.117 0.023 0.01 0.063 0.349 0.067 0.1 0.182-0.05 0.312-0.45v-60.935c0.048-0.049 0.088-0.074 0.123-0.074 0.193-0.095 0.282-0.192 0.626-0.264 0.225-0.067 0.472-0.11 0.721-0.11h60.133c0.352 0 0.688 0.071 0.97 0.18 0.1444 0.03294 0.27903 0.099398 0.393 0.194 0.07 0 0.147 0.059 0.284 0.17v60.68c0.164 0.502 0.304 0.671 0.354 0.524 0.014-0.14 0.02-0.25 0.02-0.331v0.042-61.695c0-0.121-2e-3 -0.197-9e-3 -0.224-0.037172-0.46407-0.39266-0.83953-0.854-0.902-0.072052-0.011622-0.14505-0.01631-0.218-0.014h-61.918" fill="url(#k-9-1)"/>
			<path transform="translate(0 .002)" d="m1 0c-0.55431-0.0011209-1.0033 0.4497-1 1.004v61.898-0.029c0-0.084 0.027 0.049 0.073 0.37 0.079 0.117 0.212 0 0.365-0.36v-60.923c0.043-0.057 0.079-0.086 0.11-0.086 0.174-0.112 0.267-0.225 0.596-0.309 0.23012-0.082729 0.47247-0.12633 0.717-0.129 19.385 2e-3 39.075 0 60.12 0 0.353 0 0.687 0.084 0.958 0.211 0.14097 0.040924 0.26817 0.11939 0.368 0.227 0.063 0 0.132 0.068 0.256 0.199v60.665c0.192 0.452 0.354 0.576 0.413 0.404 0.01385-0.1095 0.02186-0.21965 0.024-0.33v-61.687c0-0.117-4e-3 -0.193-0.01-0.224-0.043775-0.464-0.40524-0.83463-0.868-0.89-0.071851-0.010232-0.14448-0.013914-0.217-0.011h-61.905" fill="url(#l-3-2)"/>
			<path transform="translate(0 .002)" d="m1 0c-0.55392-0.001117-1.0028 0.44909-1 1.003v61.885c0-0.052 0.03 0.087 0.084 0.39 0.09 0.135 0.242 0.05 0.416-0.27v-60.911c0.038-0.063 0.07-0.097 0.099-0.097 0.154-0.127 0.251-0.257 0.566-0.352 0.217-0.089 0.463-0.148 0.711-0.148 19.418 2e-3 39.022 0 60.107 0 0.355 0 0.687 0.096 0.947 0.242 0.13781 0.049299 0.25742 0.13926 0.343 0.258 0.056 0 0.118 0.079 0.227 0.227v60.651c0.22 0.402 0.406 0.482 0.473 0.285 0.018-0.132 0.027-0.243 0.027-0.33v-61.721c0-0.113-4e-3 -0.188-0.012-0.224-0.050481-0.46258-0.4163-0.82757-0.879-0.877-0.072218-0.0099014-0.14515-0.013582-0.218-0.011h-61.89" fill="url(#m-6-93)"/>
			<path transform="translate(0 .002)" d="m1 0c-0.55392-0.001117-1.0028 0.44909-1 1.003v61.899c0-0.02 0.035 0.126 0.094 0.41 0.101 0.152 0.273 0.1 0.468-0.18v-60.897c0.034-0.073 0.062-0.11 0.087-0.11 0.135-0.143 0.236-0.29 0.536-0.397 0.213-0.1 0.459-0.166 0.707-0.166 19.452 2e-3 38.969 0 60.093 0 0.356 0 0.687 0.108 0.936 0.272 0.13431 0.059746 0.24556 0.16152 0.317 0.29 0.05 0 0.103 0.089 0.2 0.256v60.64c0.246 0.352 0.455 0.386 0.531 0.165 0.02-0.128 0.03-0.239 0.03-0.33v-61.755c0-0.108-4e-3 -0.184-0.013-0.224-0.0572-0.46153-0.42793-0.82103-0.891-0.864-0.07229-0.0090995-0.14518-0.012443-0.218-0.01h-61.877" fill="url(#n-0-1)"/>
			<path transform="translate(0 .002)" d="m1 0c-0.55353-0.0011137-1.0022 0.44848-1 1.002v61.913c0 0.013 0.039 0.165 0.105 0.432 0.112 0.168 0.303 0.148 0.52-0.092v-60.882c0.029-0.081 0.053-0.123 0.074-0.123 0.116-0.159 0.222-0.321 0.507-0.44 0.21532-0.11731 0.45583-0.18078 0.701-0.185 19.486 2e-3 38.916 0 60.08 0 0.357 0 0.687 0.12 0.925 0.302 0.13107 0.071535 0.23401 0.1854 0.292 0.323 0.043 0 0.089 0.098 0.171 0.284v60.626c0.275 0.302 0.507 0.29 0.591 0.046 0.022-0.125 0.034-0.236 0.034-0.33v-61.791c0-0.104-5e-3 -0.18-0.016-0.224-0.063414-0.4609-0.4392-0.81546-0.903-0.852-0.07238-0.0079052-0.14524-0.010579-0.218-8e-3h-61.863" fill="url(#o-6-9)"/>
			<path transform="translate(0 .002)" d="m1 0c-0.55353-0.0011137-1.0022 0.44848-1 1.002v61.928c0 0.045 0.042 0.203 0.115 0.453 0.123 0.184 0.333 0.197 0.572-3e-3v-60.87c0.024-0.089 0.045-0.135 0.062-0.135 0.097-0.174 0.207-0.353 0.478-0.484 0.204-0.122 0.448-0.203 0.696-0.203 19.519 2e-3 38.863 0 60.067 0 0.33455-0.0021 0.65879 0.11568 0.914 0.332 0.15 0.103 0.224 0.225 0.267 0.355 0.035 0 0.073 0.108 0.142 0.313v60.612c0.302 0.251 0.557 0.196 0.65-0.074 0.02307-0.10853 0.03547-0.21906 0.037-0.33v-61.825c0-0.1-6e-3 -0.175-0.017-0.224-0.069565-0.46031-0.45044-0.80996-0.915-0.84-0.072444-0.0069646-0.14526-0.0093027-0.218-7e-3h-61.85" fill="url(#p-2-4)"/>
			<path transform="translate(0 .002)" d="m1 0c-0.55353-0.0011137-1.0022 0.44848-1 1.002v61.942c0 0.077 0.046 0.242 0.126 0.473 0.134 0.201 0.363 0.246 0.624 0.086v-60.856c0.02-0.097 0.035-0.147 0.05-0.147 0.079731-0.22481 0.23864-0.41288 0.447-0.529 0.2-0.133 0.444-0.221 0.691-0.221 19.553 2e-3 38.811 0 60.053 0 0.36 0 0.686 0.144 0.903 0.362 0.12254 0.097958 0.20793 0.23486 0.242 0.388 0.028 0 0.059 0.118 0.114 0.341v60.598c0.33 0.2 0.608 0.1 0.709-0.194 0.026-0.117 0.04-0.228 0.04-0.329v-61.86c0-0.095-6e-3 -0.17-0.018-0.224-0.076427-0.45917-0.46212-0.80326-0.927-0.827-0.072523-0.0056002-0.1453-0.0072693-0.218-5e-3h-61.836" fill="url(#q-6-7)"/>
			<path transform="translate(0 .002)" d="m1 0c-0.55314-0.001111-1.0017 0.44787-1 1.001v61.956c0 0.11 0.05 0.281 0.136 0.494 0.146 0.218 0.394 0.296 0.677 0.176v-60.843c0.014-0.105 0.026-0.16 0.036-0.16 0.062205-0.23684 0.21195-0.44126 0.419-0.572 0.196-0.144 0.439-0.24 0.686-0.24 19.586 2e-3 38.758 0 60.04 0 0.36 0 0.685 0.156 0.892 0.392 0.11655 0.1122 0.19253 0.25993 0.216 0.42 0.021 0 0.044 0.128 0.086 0.37v60.585c0.356 0.15 0.658 5e-3 0.768-0.314 0.029-0.114 0.044-0.224 0.044-0.328v-61.895c0-0.09-7e-3 -0.166-0.02-0.224-0.083295-0.45841-0.47439-0.79708-0.94-0.814-0.072228-0.0047776-0.14463-0.0064458-0.217-5e-3h-61.823" fill="url(#r-1-8)"/>
			<path transform="translate(0 .002)" d="m1 0c-0.55274-0.0011088-1.0011 0.44726-1 1v61.972c0 0.142 0.054 0.32 0.147 0.515 0.15624 0.24102 0.45338 0.34918 0.728 0.265v-60.83c0.01-0.114 0.018-0.172 0.025-0.172 0.044459-0.24844 0.184-0.46977 0.389-0.617 0.192-0.155 0.434-0.258 0.68-0.258 19.62 2e-3 38.705 0 60.027 0 0.362 0 0.686 0.168 0.882 0.422 0.10963 0.12712 0.17614 0.28571 0.19 0.453 0.015 0 0.03 0.137 0.057 0.398v60.572c0.385 0.1 0.71-0.09 0.828-0.434 0.03-0.11 0.047-0.22 0.047-0.328v-61.93c0-0.086-7e-3 -0.161-0.021-0.224-0.089858-0.45718-0.48521-0.79059-0.951-0.802-0.072962-0.0029106-0.146-0.0035776-0.219-2e-3h-61.809" fill="url(#s-8-4)"/>
			<path d="m0.99984 2e-3c-0.55274-0.0011088-1.0011 0.44726-1 1v61.986c0 0.174 0.058 0.358 0.157 0.535 0.16968 0.25897 0.47327 0.39714 0.78 0.355v-60.816c5e-3 -0.122 0.01-0.185 0.013-0.185 0.028233-0.25888 0.15763-0.49611 0.36-0.66 0.187-0.166 0.429-0.277 0.675-0.277 19.653 2e-3 38.652 0 60.013 0 0.363 0 0.685 0.18 0.87 0.452 0.10246 0.1415 0.16026 0.3104 0.166 0.485 7e-3 0 0.015 0.147 0.028 0.427v60.558c0.412 0.05 0.76-0.186 0.887-0.553 0.03316-0.10618 0.05001-0.21677 0.05-0.328v-61.965c0.01002-0.55281-0.43213-1.008-0.985-1.014-0.07299-0.0011985-0.146-0.0011985-0.219 0h-61.795" fill="url(#t-7-5)"/>
			<path d="m1 0.0019531c-0.55274-0.0011088-1.0011 0.44726-1 1v1h64v-0.998c0.0011-0.55274-0.44726-1.0011-1-1h-62z" fill="url(#u-9-0)"/>
		</g>
		<path d="m0 1v2.5l2-2z" fill="#fffeff" fill-opacity=".4499"/>
		<path d="m64 3.5-2-2 2-0.5z" fill="#fffeff" fill-opacity=".4499"/>
	</g>
	<g transform="matrix(.89218 0 0 -.89595 3.4501 61.84)" fill="none" stop-color="#000000" stroke="#cbe9e5" stroke-linecap="round" stroke-width="2.237" style="-inkscape-stroke:none;font-variation-settings:normal;paint-order:stroke fill markers">
		<path d="m15.832 20.423a19.953 19.952 0 0 1 16.157-8.3253 19.953 19.952 0 0 1 16.205 8.2315" stop-color="#000000" style="-inkscape-stroke:none;font-variation-settings:normal;paint-order:stroke fill markers"/>
		<path d="m48.412 43.465a19.953 19.952 0 0 1-16.755 8.5332 19.953 19.952 0 0 1-16.408-9.1817" stop-color="#000000" style="-inkscape-stroke:none;font-variation-settings:normal;paint-order:stroke fill markers"/>
		<path d="m42.132 43.442a12.285 19.952 0 0 1-10.203 8.5596 12.285 19.952 0 0 1-10.1-8.8759" stop-color="#000000" style="-inkscape-stroke:none;font-variation-settings:normal;paint-order:stroke fill markers"/>
		<path d="m21.945 20.697a12.285 19.952 0 0 1 10.091-8.5987 12.285 19.952 0 0 1 10.1 8.5694" stop-color="#000000" style="-inkscape-stroke:none;font-variation-settings:normal;paint-order:stroke fill markers"/>
		<path d="m32 20.623v-8.524" stop-color="#000000" style="-inkscape-stroke:none;font-variation-settings:normal;paint-order:stroke fill markers"/>
		<path d="m32 51.722v-8.6383" stop-color="#000000" style="-inkscape-stroke:none;font-variation-settings:normal;paint-order:stroke fill markers"/>
	</g>
	<g transform="matrix(.85582 0 0 .85582 4.0965 4.6326)" fill="#cbe9e5" stroke-width="1.1685">
		<path d="m55.188 25.672h1.2073l-5.177 15.924h-1.2073z"/>
		<path d="m52.445 25.672h1.2073l-5.177 15.924h-1.2073z"/>
		<path d="m46.218 35.371h1.9755v1.9755h-1.9755z"/>
		<path d="m46.217 29.938h1.9755v1.9755h-1.9755z"/>
		<path id="s" d="m39.634 26.211q-2.0901 5.5e-5 -3.2903 0.52484-1.2002 0.52478-1.798 1.442-0.59782 0.91726-0.59782 1.9486 0 1.5698 1.1683 2.5829 1.1591 1.0131 3.879 1.6246 1.661 0.36509 2.1174 0.77578 0.45635 0.41075 0.45635 0.93092 0 0.54766-0.47912 0.96291-0.47923 0.4153-1.3645 0.41525-1.1865 5.5e-5 -1.8254-0.81228-0.39247-0.50195-0.52022-1.4603l-3.9337 0.24645q0.17335 2.0262 1.4876 3.3405t4.7278 1.3142q1.944 5.5e-5 3.2218-0.56133 1.2777-0.56127 1.9896-1.6474 0.71191-1.0861 0.71191-2.373 0-1.0952-0.53389-1.9805-0.53394-0.88526-1.7068-1.4831-1.1728-0.59777-3.8835-1.1819-1.0953-0.22812-1.3873-0.49284-0.30127-0.25556-0.30122-0.57499-5.5e-5 -0.43808 0.36509-0.74385 0.36504-0.30572 1.0861-0.30577 0.87621 5.5e-5 1.3736 0.41069 0.4974 0.41075 0.65259 1.3143l3.8972-0.22823q-0.25561-2.0809-1.6018-3.0347-1.3462-0.95369-3.9109-0.95375z"/>
		<path id="c" d="m30.317 26.211q-1.3732 0-2.6247 0.51276-1.2516 0.51282-2.1989 1.4254-0.94733 0.91259-1.5122 2.1728-0.56495 1.2602-0.56495 2.7725 0 1.5123 0.57362 2.7899 0.57362 1.2776 1.5209 2.2076 0.94733 0.92999 2.1902 1.4427 1.2428 0.51282 2.5987 0.51282 0.66049 0 1.3384-0.13039 0.67789-0.13033 1.4601-0.4085l0.3477-0.12166v-4.0327q-1.3037 1.3907-2.9376 1.3906-0.74747 5.5e-5 -1.3906-0.27811-0.64315-0.27806-1.1212-0.76481-0.47803-0.4867-0.74741-1.1472-0.26944-0.66049-0.26944-1.4427 0-0.76481 0.26944-1.4254 0.26939-0.66049 0.73874-1.1386 0.4693-0.47797 1.1212-0.75614 0.65182-0.27806 1.4166-0.27811 1.7383 5.5e-5 2.9203 1.4427v-4.0675q-0.83439-0.34759-1.5905-0.51276-0.75614-0.16512-1.5383-0.16512z"/>
		<path id="o" d="m17.928 26.211q1.5818 1.1e-4 2.9202 0.53016 1.3384 0.53027 2.3032 1.4688 0.96467 0.93871 1.5036 2.1989 0.53883 1.2603 0.53888 2.7203-5.5e-5 1.4602-0.53888 2.7204-0.53888 1.2603-1.5036 2.1988-0.96478 0.93877-2.3032 1.4688-1.3384 0.53027-2.9202 0.53016-1.5992 1.1e-4 -2.9289-0.53016-1.3298-0.53005-2.2858-1.4688-0.95605-0.93855-1.4949-2.1988-0.53883-1.2602-0.53883-2.7204 0-1.46 0.53883-2.7203 0.53883-1.2602 1.4949-2.1989 0.95605-0.93855 2.2858-1.4688 1.3297-0.53005 2.9289-0.53016zm0 3.3027q-0.74741 5.5e-5 -1.4166 0.26944-0.66927 0.2695-1.1733 0.75614-0.50415 0.48675-0.7996 1.1472-0.29551 0.6606-0.29551 1.4427 0 0.78232 0.29551 1.4427 0.29545 0.6606 0.7996 1.1472 0.50404 0.48681 1.1733 0.75614 0.66922 0.2695 1.4166 0.26944 0.74747 5.5e-5 1.4167-0.26944 0.66922-0.26933 1.182-0.75614 0.51282-0.48664 0.80833-1.1472 0.29545-0.66043 0.29545-1.4427 0-0.7821-0.29545-1.4427-0.29551-0.66049-0.80833-1.1472-0.51276-0.48664-1.182-0.75614-0.66922-0.26939-1.4167-0.26944z"/>
	</g>
</svg>
