<?xml version="1.0" encoding="UTF-8"?>
<svg width="64" height="64" version="1.1" xmlns="http://www.w3.org/2000/svg" xmlns:xlink="http://www.w3.org/1999/xlink">
	<defs>
		<radialGradient id="ab" cx="35.877" cy="25.673" r="3.602" gradientTransform="matrix(1.6989 0 0 1.8864 -24.312 -23.889)" gradientUnits="userSpaceOnUse" xlink:href="#b"/>
		<radialGradient id="ad" cx="28.258" cy="25.384" r="3.5" gradientTransform="matrix(1.6986 0 0 1.7079 -24.228 -12.82)" gradientUnits="userSpaceOnUse" xlink:href="#b"/>
		<radialGradient id="N" cx="38.133" cy="34.984" r="6.627" gradientTransform="matrix(.82992 2.1443 -.38072 .14735 22.042 -51.45)" gradientUnits="userSpaceOnUse" xlink:href="#c"/>
		<radialGradient id="M" cx="38.753" cy="41.792" r="6.627" gradientTransform="matrix(.95562 2.4056 -.40798 .16207 16.258 -61.732)" gradientUnits="userSpaceOnUse" xlink:href="#c"/>
		<radialGradient id="O" cx="38.539" cy="39.331" r="6.627" gradientTransform="matrix(1.0772 1.834 -.6134 .36028 19.454 -47.222)" gradientUnits="userSpaceOnUse">
			<stop stop-color="#00587e" stop-opacity="0" offset="0"/>
			<stop stop-color="#54acb2" stop-opacity=".31765" offset=".756"/>
			<stop stop-color="#53b195" stop-opacity=".58431" offset="1"/>
		</radialGradient>
		<radialGradient id="Q" cx="47.115" cy="45.138" r="6.627" gradientTransform="matrix(.26958 0 0 .32403 33.517 32.332)" gradientUnits="userSpaceOnUse" xlink:href="#d"/>
		<radialGradient id="P" cx="41.253" cy="42.128" r="6.627" gradientTransform="matrix(.39934 -.15214 .57893 1.5196 -.916 -17.23)" gradientUnits="userSpaceOnUse" xlink:href="#d"/>
		<radialGradient id="I" cx="40.591" cy="61.812" r="6.627" gradientTransform="matrix(.48013 2.5123 -.45244 .08647 41.077 -61.247)" gradientUnits="userSpaceOnUse" xlink:href="#c"/>
		<radialGradient id="K" cx="-4.803" cy="23.624" r="6.627" gradientTransform="matrix(.20367 .45109 -.2154 .09725 41.409 54.99)" gradientUnits="userSpaceOnUse" xlink:href="#d"/>
		<radialGradient id="J" cx="-10.425" cy="23.314" r="6.627" gradientTransform="matrix(.44633 2.0827 -.35749 .07661 45.62 61.933)" gradientUnits="userSpaceOnUse" xlink:href="#d"/>
		<radialGradient id="G" cx="-44.782" cy="35.696" r="6.627" gradientTransform="matrix(-.46625 1.6073 -.35394 -.10267 16.945 114)" gradientUnits="userSpaceOnUse" xlink:href="#d"/>
		<radialGradient id="F" cx="37.054" cy="81.839" r="6.627" gradientTransform="matrix(-.90778 1.8613 -.55847 -.27237 103.06 -8.52)" gradientUnits="userSpaceOnUse" xlink:href="#c"/>
		<radialGradient id="Z" cx="31.164" cy="21.288" r="13.5" gradientTransform="matrix(.93579 -.54028 .61497 1.0652 -12.591 15.529)" gradientUnits="userSpaceOnUse">
			<stop stop-color="#d5f6f8" offset="0"/>
			<stop stop-color="#c7f0f2" offset=".7"/>
			<stop stop-color="#93d7d9" offset="1"/>
		</radialGradient>
		<radialGradient id="aa" cx="31.088" cy="24.627" r="13.5" gradientUnits="userSpaceOnUse">
			<stop stop-color="#fff" stop-opacity="0" offset="0"/>
			<stop stop-color="#007bcf" stop-opacity="0" offset=".87"/>
			<stop stop-color="#83edff" stop-opacity=".102" offset="1"/>
		</radialGradient>
		<radialGradient id="X" cx="37.864" cy="42.51" r="1.5" gradientTransform="matrix(.7734 0 0 .73255 7.15 10.818)" gradientUnits="userSpaceOnUse" xlink:href="#f"/>
		<radialGradient id="Y" cx="38.053" cy="43.223" r=".84" gradientTransform="matrix(1.4719 0 0 .93343 -24.529 .966)" gradientUnits="userSpaceOnUse" xlink:href="#g"/>
		<radialGradient id="T" cx="38.1" cy="42.679" r="1.5" gradientTransform="matrix(1 0 0 1.0703 0 -3.038)" gradientUnits="userSpaceOnUse" xlink:href="#f"/>
		<radialGradient id="U" cx="38.053" cy="43.223" r=".84" gradientTransform="matrix(1.6648 0 0 1.7819 -25.335 -33.868)" gradientUnits="userSpaceOnUse" xlink:href="#g"/>
		<radialGradient id="V" cx="37.993" cy="42.538" r="1.5" gradientTransform="matrix(1 0 0 1.0703 0 -3.038)" gradientUnits="userSpaceOnUse" xlink:href="#f"/>
		<radialGradient id="W" cx="37.975" cy="43.055" r=".84" gradientTransform="matrix(1.6648 0 0 1.7819 -25.335 -33.868)" gradientUnits="userSpaceOnUse" xlink:href="#g"/>
		<radialGradient id="E" cx="38.1" cy="42.679" r="1.5" gradientTransform="matrix(1 0 0 1.0703 -15.722 2.569)" gradientUnits="userSpaceOnUse" xlink:href="#f"/>
		<radialGradient id="C" cx="38.1" cy="42.679" r="1.5" gradientTransform="matrix(1 0 0 1.0703 -11.441 -5.022)" gradientUnits="userSpaceOnUse" xlink:href="#f"/>
		<radialGradient id="D" cx="38.1" cy="42.679" r="1.5" gradientTransform="matrix(1 0 0 1.0703 -13.332 -.879)" gradientUnits="userSpaceOnUse" xlink:href="#f"/>
		<linearGradient id="g">
			<stop stop-color="#40a9a4" offset="0"/>
			<stop stop-color="#367472" stop-opacity="0" offset="1"/>
		</linearGradient>
		<linearGradient id="f">
			<stop stop-color="#b4dedc" offset="0"/>
			<stop stop-color="#5abbbe" offset="1"/>
		</linearGradient>
		<linearGradient id="e">
			<stop stop-color="#fff" stop-opacity=".635" offset="0"/>
			<stop stop-color="#41fff2" stop-opacity="0" offset="1"/>
		</linearGradient>
		<linearGradient id="d">
			<stop stop-color="#b1eeeb" offset="0"/>
			<stop stop-color="#71c8d8" stop-opacity="0" offset="1"/>
		</linearGradient>
		<linearGradient id="c">
			<stop stop-color="#6fc9c8" stop-opacity=".61569" offset="0"/>
			<stop stop-color="#59d1bc" stop-opacity="0" offset="1"/>
		</linearGradient>
		<linearGradient id="b">
			<stop stop-color="#fff" offset="0"/>
			<stop stop-color="#b4e5f2" offset="1"/>
		</linearGradient>
		<linearGradient id="H" x1="18.084" x2="25.367" y1="56.138" y2="31.062" gradientUnits="userSpaceOnUse" xlink:href="#e"/>
		<linearGradient id="L" x1="19.037" x2="25.111" y1="50.477" y2="39.956" gradientTransform="rotate(-9.3 -.961 66.385) scale(1.1283)" gradientUnits="userSpaceOnUse" xlink:href="#e"/>
		<linearGradient id="R" x1="40.655" x2="37.09" y1="48.376" y2="36.287" gradientTransform="translate(-1.105 -.917)" gradientUnits="userSpaceOnUse" xlink:href="#e"/>
		<linearGradient id="S" x1="46.571" x2="46.454" y1="48.379" y2="49.417" gradientTransform="translate(-.724 -1.087)" gradientUnits="userSpaceOnUse" xlink:href="#e"/>
		<linearGradient id="ac" x1="33.091" x2="34.478" y1="14.754" y2="37.739" gradientTransform="matrix(1.2903 -.46636 .46636 1.2903 -18.962 10.788)" gradientUnits="userSpaceOnUse" xlink:href="#e"/>
		<radialGradient id="c-3" cx="35.574" cy="1.019" r="32" gradientTransform="matrix(0,1.1252,-5.1753,0,37.271,-39.029)" gradientUnits="userSpaceOnUse" xlink:href="#a-6"/>
		<linearGradient id="a-6">
			<stop stop-color="#81fffd" stop-opacity=".08" offset="0"/>
			<stop stop-color="#81ffff" stop-opacity=".02" offset="1"/>
		</linearGradient>
		<radialGradient id="d-5" cx="35.574" cy="1.036" r="32" gradientTransform="matrix(0,1.1252,-5.1753,0,37.363,-39.029)" gradientUnits="userSpaceOnUse" xlink:href="#a-6"/>
		<radialGradient id="e-3" cx="35.574" cy="1.055" r="32" gradientTransform="matrix(0,1.1252,-5.1753,0,37.458,-39.029)" gradientUnits="userSpaceOnUse" xlink:href="#a-6"/>
		<radialGradient id="f-5" cx="35.574" cy="1.071" r="32" gradientTransform="matrix(0,1.1252,-5.1753,0,37.544,-39.029)" gradientUnits="userSpaceOnUse" xlink:href="#a-6"/>
		<radialGradient id="g-6" cx="35.574" cy="1.091" r="32" gradientTransform="matrix(0,1.1252,-5.1753,0,37.648,-39.029)" gradientUnits="userSpaceOnUse" xlink:href="#a-6"/>
		<radialGradient id="h-2" cx="35.574" cy="1.113" r="32" gradientTransform="matrix(0,1.1252,-5.1753,0,37.758,-39.029)" gradientUnits="userSpaceOnUse" xlink:href="#a-6"/>
		<radialGradient id="i-9" cx="35.574" cy="1.135" r="32" gradientTransform="matrix(0,1.1252,-5.1753,0,37.875,-39.029)" gradientUnits="userSpaceOnUse" xlink:href="#a-6"/>
		<radialGradient id="j-1" cx="35.574" cy="1.159" r="32" gradientTransform="matrix(0,1.1252,-5.1753,0,38,-39.029)" gradientUnits="userSpaceOnUse" xlink:href="#a-6"/>
		<radialGradient id="k-2" cx="35.574" cy="1.18" r="32" gradientTransform="matrix(0,1.1252,-5.1753,0,38.107,-39.029)" gradientUnits="userSpaceOnUse" xlink:href="#a-6"/>
		<radialGradient id="l-7" cx="35.574" cy="1.208" r="32" gradientTransform="matrix(0,1.1252,-5.1753,0,38.252,-39.029)" gradientUnits="userSpaceOnUse" xlink:href="#a-6"/>
		<radialGradient id="m-0" cx="35.574" cy="1.239" r="32" gradientTransform="matrix(0,1.1252,-5.1753,0,38.411,-39.029)" gradientUnits="userSpaceOnUse" xlink:href="#a-6"/>
		<radialGradient id="n-9" cx="35.574" cy="1.273" r="32" gradientTransform="matrix(0,1.1252,-5.1753,0,38.587,-39.029)" gradientUnits="userSpaceOnUse" xlink:href="#a-6"/>
		<radialGradient id="o-3" cx="35.574" cy="1.304" r="32" gradientTransform="matrix(0,1.1252,-5.1753,0,38.75,-39.029)" gradientUnits="userSpaceOnUse" xlink:href="#a-6"/>
		<radialGradient id="p-6" cx="35.574" cy="1.346" r="32" gradientTransform="matrix(0,1.1252,-5.1753,0,38.966,-39.029)" gradientUnits="userSpaceOnUse" xlink:href="#a-6"/>
		<radialGradient id="q-0" cx="35.574" cy="1.393" r="32" gradientTransform="matrix(0,1.1252,-5.1753,0,39.208,-39.029)" gradientUnits="userSpaceOnUse" xlink:href="#a-6"/>
		<radialGradient id="r-6" cx="35.574" cy="1.439" r="32" gradientTransform="matrix(0,1.1252,-5.1753,0,39.446,-39.029)" gradientUnits="userSpaceOnUse" xlink:href="#a-6"/>
		<radialGradient id="s-2" cx="36.463" cy="1.498" r="32" gradientTransform="matrix(0 .018045 -1.2755 0 33.91 1.3415)" gradientUnits="userSpaceOnUse">
			<stop stop-color="#bffffd" offset="0"/>
			<stop stop-color="#26fff9" stop-opacity="0" offset="1"/>
		</radialGradient>
		<radialGradient id="radialGradient1058" cx="31.566" cy="24.147" r="32" gradientTransform="matrix(1.1557,0,0,1.1557,-4.877,-3.845)" gradientUnits="userSpaceOnUse">
			<stop stop-color="#00a9c5" offset="0"/>
			<stop stop-color="#2b9683" offset="1"/>
		</radialGradient>
		<radialGradient id="radialGradient14352" cx="32.972" cy="46.097" r="32" gradientTransform="matrix(.84583 0 0 1.1408 5.0835 -7.2034)" gradientUnits="userSpaceOnUse">
			<stop stop-color="#101251" stop-opacity=".35553" offset="0"/>
			<stop stop-color="#101251" stop-opacity="0" offset="1"/>
		</radialGradient>
	</defs>
	<g>
		<rect width="64" height="64" rx="1" ry="1" fill="url(#radialGradient1058)" paint-order="fill markers stroke"/>
		<rect width="64" height="64" rx="1" ry="1" fill="url(#radialGradient14352)" paint-order="fill markers stroke"/>
		<path d="m31.77 10.668a15.75 15.75 0 0 0-15.75 15.75 15.75 15.75 0 0 0 5.1973 11.666c-0.51396 2.8222-1.7671 6.8753-3.2832 9.9121-1.7279 3.4628-4.1282 6.6406-3.3477 7.2461 1.8194 1.411 3.794 0.44705 5.6191-1.5645a1.75 1.8726 0 0 0 0.38867 0.052735 1.75 1.8726 0 0 0 1.75-1.873 1.75 1.8726 0 0 0-0.17188-0.80859c0.28754-0.44942 0.56758-0.91517 0.83789-1.3906a1.75 1.8726 0 0 0 0.37109 0.048828 1.75 1.8726 0 0 0 1.752-1.873 1.75 1.8726 0 0 0-0.51562-1.3242c0.25768-0.5626 0.49584-1.1176 0.7168-1.6562a1.75 1.8726 0 0 0 0.25391 0.019531 1.75 1.8726 0 0 0 1.75-1.8711 1.75 1.8726 0 0 0-0.78711-1.5664c0.017815-0.062115 0.032268-0.11774 0.048828-0.17774a15.75 15.75 0 0 0 2.2012 0.59375c-0.50633 4.6591 1.5107 22.769 8.3418 20.148 1.0392-0.39926-0.51305-4.6137-1.25-8.916-0.71859-4.2023-1.118-8.689-0.85742-11.297a15.75 15.75 0 0 0 1.1719-0.25586 15.75 15.75 0 0 0 0.052735-0.019531c0.25004 0.50133 0.5335 1.0481 0.85352 1.6328a1.8726 1.75 80.171 0 0-0.12695 1.1035 1.8726 1.75 80.171 0 0 1.7207 1.5645c0.2378 0.36623 0.47823 0.73168 0.73438 1.0938a1.8726 1.75 67.613 0 0-0.03125 1.5625 1.8726 1.75 67.613 0 0 2.2012 1.1055c0.25917 0.27165 0.52164 0.53536 0.79102 0.78125h0.001953c0.044384 0.040505 0.090119 0.07747 0.13476 0.11719a1.3692 1.2653 9.0996 0 0-0.050781 0.7832 1.3692 1.2653 9.0996 0 0 1.6738 0.9375 1.3692 1.2653 9.0996 0 0 0.50391-0.22656c0.68924 0.34614 1.3588 0.53913 1.9941 0.60547 4.0345 0.42202 6.762-4.1172 5.3633-4.9648-1.013-0.39818-1.6395-0.11623-2.1035 0.31445-0.10341 0.09594-0.1973 0.19966-0.28711 0.30469-0.25929 0.19899-0.46955 0.49749-0.5957 0.70508-0.02371 0.023973-0.046436 0.052768-0.070312 0.074218-0.057984 0.052078-0.11929 0.097037-0.17969 0.13086-0.060353 0.033456-0.12267 0.057942-0.1875 0.068359-0.03207 0.005147-0.066073 0.007223-0.099609 0.00586h-0.001953c-0.03363-0.001617-0.070115-0.006886-0.10547-0.015626-0.036009-0.008908-0.07132-0.022159-0.10938-0.039062-0.038053-0.016894-0.07878-0.038954-0.11914-0.064453-0.039945-0.025246-0.080587-0.055573-0.12305-0.089844h-0.001954c-0.042579-0.034442-0.085499-0.075032-0.13086-0.11914-0.83531-0.81254-1.8949-2.4728-2.9551-4.3711-0.21203-0.37968-0.42238-0.76823-0.63281-1.1621-0.21044-0.39386-0.4197-0.79308-0.625-1.1914-0.20503-0.39782-0.40713-0.79495-0.60352-1.1875v-0.001953c-0.39325-0.7861-0.76615-1.5513-1.1035-2.2578-0.041521-0.086956-0.068941-0.14929-0.10938-0.23438a15.75 15.75 0 0 0 5.6426-12.059 15.75 15.75 0 0 0-15.752-15.75z" fill="none" stroke="#000000" stroke-opacity=".085894" stroke-width="3.5" style="font-variation-settings:normal"/>
		<g transform="translate(-5.564 -5.082) scale(1.1667)" stroke-width=".857">
			<ellipse cx="26.701" cy="41.213" rx="1.5" ry="1.605" fill="url(#C)" style="-inkscape-stroke:none;font-variation-settings:normal"/>
			<ellipse cx="24.81" cy="45.356" rx="1.5" ry="1.605" fill="url(#D)" style="-inkscape-stroke:none;font-variation-settings:normal"/>
			<ellipse cx="22.42" cy="48.804" rx="1.5" ry="1.605" fill="url(#E)" style="-inkscape-stroke:none;font-variation-settings:normal"/>
			<path d="M27.767 38.038c.792.73-5.529 17.519-10.496 13.667-.669-.519 1.388-3.242 2.869-6.21 1.997-4 3.472-10.075 2.912-11.18z" fill="#88d1cd" style="font-variation-settings:normal"/>
			<path d="M27.767 38.038c.792.73-5.529 17.519-10.496 13.667-.669-.519 1.388-3.242 2.869-6.21 1.997-4 3.472-10.075 2.912-11.18z" fill="url(#F)" style="-inkscape-stroke:none;font-variation-settings:normal"/>
			<path d="M27.767 38.038c.792.73-5.529 17.519-10.496 13.667-.669-.519 1.388-3.242 2.869-6.21 1.997-4 3.472-10.075 2.912-11.18z" fill="url(#G)" style="-inkscape-stroke:none;font-variation-settings:normal"/>
			<path d="M24.279 39.175c-.591 1.065-1.363 2.257-1.816 3.869-1.025 3.65-2.732 7.721-4.676 7.767.008.297-.182.637.65.757 1.8-.388.787-.503 1.953-2.39.874-1.417 2.43-3.526 3.675-5.449.772-1.607.496-2.891.214-4.554z" fill="url(#H)" style="-inkscape-stroke:none"/>
			<path transform="rotate(3.239 34.637 41.813)" d="M29.596 39.591c-1.063.59 1.424 20.68 7.892 17.77.87-.392-.663-3.924-1.502-7.57-1.13-4.917-1.772-10.342-.865-11.406z" fill="#88d1cd" style="font-variation-settings:normal"/>
			<path transform="rotate(3.239 34.637 41.813)" d="M29.596 39.591c-1.063.59 1.424 20.68 7.892 17.77.87-.392-.663-3.924-1.502-7.57-1.13-4.917-1.772-10.342-.865-11.406z" fill="url(#I)" style="-inkscape-stroke:none;font-variation-settings:normal"/>
			<path transform="rotate(3.239 34.637 41.813)" d="M29.596 39.591c-1.063.59 1.424 20.68 7.892 17.77.87-.392-.663-3.924-1.502-7.57-1.13-4.917-1.772-10.342-.865-11.406z" fill="url(#J)" style="-inkscape-stroke:none;font-variation-settings:normal"/>
			<path transform="rotate(3.239 34.637 41.813)" d="M29.596 39.591c-1.063.59 1.424 20.68 7.892 17.77.87-.392-.663-3.924-1.502-7.57-1.13-4.917-1.772-10.342-.865-11.406z" fill="url(#K)" style="-inkscape-stroke:none;font-variation-settings:normal"/>
			<path transform="rotate(3.239 34.637 41.813)" d="M31.004 40.973c-.86 1.409.95 2.787 1.432 4.614 2.73 10.34 1.28 9.686 1.939 10.399.24.233 1.409 1.28 2.176.721 1.207-.822-1.32-1.628-2.137-3.994-.935-2.71.096-6.805-.414-9.338-.644-1.906-1.626-2.666-2.996-2.402z" fill="url(#L)" style="-inkscape-stroke:none"/>
			<path d="M39.293 34.36s4.248 9.666 6.538 11.895c1.255 1.222 1.212-2.003 3.528-1.093 1.42.861-2.126 6.165-6.618 3.57-4.486-2.594-7.895-10.965-7.895-10.965z" fill="#88d1cd"/>
			<path transform="rotate(-9.829 37.187 38.981)" d="M40.051 34.788s2.535 10.249 4.412 12.836c1.028 1.418 1.536-1.767 3.662-.475 1.253 1.091-3.147 5.712-7.13 2.387-3.978-3.32-5.907-12.15-5.907-12.15z" fill="url(#M)"/>
			<path transform="rotate(-9.829 37.187 38.981)" d="M40.051 34.788s2.535 10.249 4.412 12.836c1.028 1.418 1.536-1.767 3.662-.475 1.253 1.091-3.147 5.712-7.13 2.387-3.978-3.32-5.907-12.15-5.907-12.15z" fill="url(#N)"/>
			<path transform="rotate(-9.829 37.187 38.981)" d="M40.051 34.788s2.535 10.249 4.412 12.836c1.028 1.418 1.536-1.767 3.662-.475 1.253 1.091-3.147 5.712-7.13 2.387-3.978-3.32-5.907-12.15-5.907-12.15z" fill="url(#O)"/>
			<path transform="rotate(-9.829 37.187 38.981)" d="M40.051 34.788s2.535 10.249 4.412 12.836c1.028 1.418 1.536-1.767 3.662-.475 1.253 1.091-3.147 5.712-7.13 2.387-3.978-3.32-5.907-12.15-5.907-12.15z" fill="url(#P)"/>
			<path transform="rotate(-9.829 37.187 38.981)" d="M40.051 34.788s2.535 10.249 4.412 12.836c1.028 1.418 1.536-1.767 3.662-.475 1.253 1.091-3.147 5.712-7.13 2.387-3.978-3.32-5.907-12.15-5.907-12.15z" fill="url(#Q)"/>
			<path transform="rotate(-9.829 37.187 38.981)" d="m39.936 37.64-1.162.925c1.488 1.396 1.362 3.616 1.974 6.64-.3-1.302.426-4.054-.812-7.565z" fill="url(#R)" style="-inkscape-stroke:none"/>
			<path transform="rotate(-9.829 37.187 38.981)" d="M45.266 48.008c.592.41 2.228.161 1.581-.57s-1.581.57-1.581.57z" fill="url(#S)"/>
			<g transform="rotate(-9.829 31.23 43.737)">
				<ellipse cx="38.142" cy="43.197" rx="1.5" ry="1.605" fill="url(#T)" style="-inkscape-stroke:none;font-variation-settings:normal"/>
				<ellipse cx="37.713" cy="43.451" rx=".84" ry=".899" fill="url(#U)" style="-inkscape-stroke:none;font-variation-settings:normal"/>
			</g>
			<g transform="rotate(-22.387 44.422 39.73)">
				<ellipse cx="38.142" cy="43.197" rx="1.5" ry="1.605" fill="url(#V)" style="-inkscape-stroke:none;font-variation-settings:normal"/>
				<ellipse cx="37.713" cy="43.451" rx=".84" ry=".899" fill="url(#W)" style="-inkscape-stroke:none;font-variation-settings:normal"/>
			</g>
			<g transform="rotate(-14.218 58.58 28.145)">
				<ellipse transform="matrix(.99964 .02698 .03049 .99954 0 0)" cx="36.65" cy="42.462" rx="1.16" ry="1.099" fill="url(#X)" style="-inkscape-stroke:none;font-variation-settings:normal"/>
				<ellipse transform="matrix(.99535 .09628 .1625 .98671 0 0)" cx="31.215" cy="41.47" rx=".743" ry=".471" fill="url(#Y)" style="-inkscape-stroke:none;font-variation-settings:normal"/>
			</g>
			<circle cx="32" cy="27" r="13.5" fill="url(#Z)" style="-inkscape-stroke:none;font-variation-settings:normal"/>
			<circle cx="32" cy="27" r="13.5" fill="url(#aa)" style="-inkscape-stroke:none;font-variation-settings:normal"/>
			<ellipse transform="rotate(17.244)" cx="43.508" cy="15.332" rx="4.984" ry="5.5351" fill="#24726e" fill-opacity=".40832" stroke-width=".857" style="-inkscape-stroke:none;font-variation-settings:normal"/>
			<ellipse transform="rotate(2.0453)" cx="37.583" cy="26.981" rx="3.9385" ry="4.3737" fill="url(#ab)" stroke-width=".857" style="-inkscape-stroke:none;font-variation-settings:normal"/>
			<g transform="translate(.21975 .60431)">
				<circle transform="rotate(-8.533)" cx="33.688" cy="33.196" r="1.585" fill="#2f474d" style="-inkscape-stroke:none;font-variation-settings:normal"/>
				<circle transform="rotate(-8.533)" cx="33.217" cy="32.436" r=".492" fill="#cedde1" style="-inkscape-stroke:none;font-variation-settings:normal"/>
			</g>
			<path d="m35.526 15.949c-1.1403-1.4952-5.6285-2.0696-9.6389 0.51433-4.0107 2.5849-4.3462 5.7001-3.608 6.9717 1.574 2.7114 15.481-4.5565 13.247-7.486z" fill="url(#ac)"/>
			<ellipse transform="rotate(-8.533)" cx="22.272" cy="32.636" rx="4.545" ry="4.436" fill="#24726e" fill-opacity=".40832" style="-inkscape-stroke:none;font-variation-settings:normal"/>
			<ellipse transform="rotate(-8.533)" cx="22.557" cy="33.287" rx="3.4996" ry="3.151" fill="url(#ad)" style="-inkscape-stroke:none;font-variation-settings:normal"/>
			<circle transform="rotate(-8.533)" cx="24.561" cy="33.351" r="1.433" fill="#2f474d" style="-inkscape-stroke:none;font-variation-settings:normal"/>
			<circle transform="rotate(-8.533)" cx="24.186" cy="32.77" r=".492" fill="#cedde1" style="-inkscape-stroke:none;font-variation-settings:normal"/>
		</g>
	</g>
	<g transform="translate(0 .0015035)">
		<path d="m1 0c-0.554 0-1 0.446-1 1v62-0.224 0.224-61h1.752c19.15 2e-3 39.445 0 60.213 0h2.035v61-0.334 0.334-62a0.998 0.998 0 0 0-1-1z" fill="url(#c-3)"/>
		<path d="m1 0a0.998 0.998 0 0 0-1 1.006v61.98-0.197c0-0.277 4e-3 -0.184 0.01 0.246 0.012 0.016 0.03-0.297 0.052-0.897v-60c0.072-9e-3 0.133-0.013 0.185-0.013 0.29-0.016 0.357-0.032 0.774-0.044 0.246-0.011 0.496-0.019 0.747-0.019 19.183 2e-3 39.392 0 60.2 0 0.346 0 0.689 0.012 1.023 0.03 0.268 0.01 0.389 0.02 0.52 0.033 0.106 0 0.22 0.01 0.427 0.028v59.744c0.027 0.754 0.05 1.148 0.059 1.123l3e-3 -0.334v0.286-61.762c0-0.143 0-0.22-2e-3 -0.224a0.996 0.996 0 0 0-1.012-0.986h-61.986" fill="url(#d-5)"/>
		<path d="m1 0a0.998 0.998 0 0 0-1 1.006v61.966-0.169c0-0.245 8e-3 -0.145 0.021 0.266 0.022 0.034 0.06-0.247 0.104-0.807v-59.988a0.744 0.744 0 0 1 0.173-0.025c0.27-0.031 0.341-0.064 0.743-0.088 0.242-0.022 0.492-0.037 0.742-0.037 19.217 2e-3 39.34 0 60.187 0 0.347 0 0.69 0.024 1.013 0.06 0.256 0.02 0.372 0.042 0.494 0.065 0.1 0 0.206 0.02 0.398 0.057v59.731c0.055 0.703 0.102 1.052 0.119 1.003 4e-3 -0.154 6e-3 -0.265 6e-3 -0.333v0.237-61.748c0-0.139 0-0.215-3e-3 -0.224a0.994 0.994 0 0 0-0.807-0.952 1.025 1.025 0 0 0-0.217-0.02h-61.973" fill="url(#e-3)"/>
		<path d="m1 0a0.998 0.998 0 0 0-1 1.005v61.953-0.14c0-0.213 0.012-0.107 0.031 0.287 0.034 0.05 0.091-0.198 0.156-0.718v-59.974a0.45 0.45 0 0 1 0.16-0.037c0.252-0.048 0.327-0.097 0.715-0.132 0.238-0.034 0.487-0.056 0.737-0.056 19.25 2e-3 39.286 0 60.173 0 0.348 0 0.688 0.036 1.001 0.09 0.244 0.029 0.356 0.062 0.47 0.098 0.091 0 0.19 0.03 0.37 0.085v59.718c0.082 0.653 0.151 0.957 0.176 0.884 7e-3 -0.152 0.01-0.262 0.01-0.333v0.188-61.734c0-0.135 0-0.21-4e-3 -0.224a0.992 0.992 0 0 0-0.819-0.94 1.041 1.041 0 0 0-0.217-0.018h-61.96" fill="url(#f-5)"/>
		<path d="m1 0a0.998 0.998 0 0 0-1 1.005v61.939-0.113c0-0.18 0.015-0.068 0.042 0.308 0.045 0.067 0.121-0.149 0.208-0.629v-59.96a0.312 0.312 0 0 1 0.148-0.05c0.232-0.063 0.311-0.128 0.684-0.176 0.234-0.044 0.483-0.074 0.732-0.074 19.284 2e-3 39.234 0 60.16 0 0.35 0 0.689 0.048 0.991 0.12 0.232 0.039 0.34 0.083 0.444 0.13 0.085 0 0.176 0.04 0.341 0.114v59.704c0.11 0.603 0.203 0.862 0.236 0.764 0.01-0.148 0.014-0.259 0.014-0.333v0.14-61.721c0-0.13-2e-3 -0.206-6e-3 -0.224a0.991 0.991 0 0 0-0.83-0.927 1.066 1.066 0 0 0-0.22-0.017h-61.944" fill="url(#g-6)"/>
		<path d="m1 0a0.998 0.998 0 0 0-1 1.004v61.926-0.084c0-0.148 0.02-0.029 0.052 0.328 0.056 0.084 0.152-0.099 0.26-0.539v-59.949c0.053-0.04 0.097-0.061 0.136-0.061 0.212-0.08 0.297-0.16 0.655-0.22 0.23-0.056 0.477-0.093 0.727-0.093 19.317 2e-3 39.18 0 60.147 0 0.35 0 0.688 0.06 0.98 0.151 0.22 0.047 0.322 0.102 0.418 0.162 0.078 0 0.162 0.049 0.313 0.142v59.69c0.137 0.553 0.253 0.767 0.295 0.645a4.73 4.73 0 0 0 0.017-0.332v0.09-61.705c0-0.126-2e-3 -0.202-7e-3 -0.224a0.99 0.99 0 0 0-0.843-0.914 1.099 1.099 0 0 0-0.218-0.017h-61.932" fill="url(#h-2)"/>
		<path d="m1 0a0.998 0.998 0 0 0-1 1.004v61.912-0.056c0-0.117 0.023 0.01 0.063 0.349 0.067 0.1 0.182-0.05 0.312-0.45v-59.935c0.048-0.049 0.088-0.074 0.123-0.074 0.193-0.095 0.282-0.192 0.626-0.264 0.225-0.067 0.472-0.11 0.721-0.11h60.133c0.352 0 0.688 0.071 0.97 0.18a0.944 0.944 0 0 1 0.393 0.194c0.07 0 0.147 0.059 0.284 0.17v59.68c0.164 0.502 0.304 0.671 0.354 0.524 0.014-0.14 0.02-0.25 0.02-0.331v0.042-61.695c0-0.121-2e-3 -0.197-9e-3 -0.224a0.99 0.99 0 0 0-0.854-0.902 1.142 1.142 0 0 0-0.218-0.014h-61.918" fill="url(#i-9)"/>
		<path d="m1 0a0.998 0.998 0 0 0-1 1.004v61.898-0.029c0-0.084 0.027 0.049 0.073 0.37 0.079 0.117 0.212 0 0.365-0.36v-59.923c0.043-0.057 0.079-0.086 0.11-0.086 0.174-0.112 0.267-0.225 0.596-0.309a2.19 2.19 0 0 1 0.717-0.129c19.385 2e-3 39.075 0 60.12 0 0.353 0 0.687 0.084 0.958 0.211 0.196 0.066 0.29 0.144 0.368 0.227 0.063 0 0.132 0.068 0.256 0.199v59.665c0.192 0.452 0.354 0.576 0.413 0.404a3.11 3.11 0 0 0 0.024-0.33v-61.687c0-0.117-4e-3 -0.193-0.01-0.224a0.99 0.99 0 0 0-0.868-0.89 1.198 1.198 0 0 0-0.217-0.011h-61.905" fill="url(#j-1)"/>
		<path d="m1 0a0.998 0.998 0 0 0-1 1.003v61.885c0-0.052 0.03 0.087 0.084 0.39 0.09 0.135 0.242 0.05 0.416-0.27v-59.911c0.038-0.063 0.07-0.097 0.099-0.097 0.154-0.127 0.251-0.257 0.566-0.352 0.217-0.089 0.463-0.148 0.711-0.148 19.418 2e-3 39.022 0 60.107 0 0.355 0 0.687 0.096 0.947 0.242a0.723 0.723 0 0 1 0.343 0.258c0.056 0 0.118 0.079 0.227 0.227v59.651c0.22 0.402 0.406 0.482 0.473 0.285 0.018-0.132 0.027-0.243 0.027-0.33v-61.721c0-0.113-4e-3 -0.188-0.012-0.224a0.99 0.99 0 0 0-0.879-0.877 1.273 1.273 0 0 0-0.218-0.011h-61.89" fill="url(#k-2)"/>
		<path d="m1 0a0.998 0.998 0 0 0-1 1.003v61.899c0-0.02 0.035 0.126 0.094 0.41 0.101 0.152 0.273 0.1 0.468-0.18v-59.897c0.034-0.073 0.062-0.11 0.087-0.11 0.135-0.143 0.236-0.29 0.536-0.397 0.213-0.1 0.459-0.166 0.707-0.166 19.452 2e-3 38.969 0 60.093 0 0.356 0 0.687 0.108 0.936 0.272a0.678 0.678 0 0 1 0.317 0.29c0.05 0 0.103 0.089 0.2 0.256v59.64c0.246 0.352 0.455 0.386 0.531 0.165 0.02-0.128 0.03-0.239 0.03-0.33v-61.755c0-0.108-4e-3 -0.184-0.013-0.224a0.99 0.99 0 0 0-0.891-0.864 1.376 1.376 0 0 0-0.218-0.01h-61.877" fill="url(#l-7)"/>
		<path d="m1 0a0.998 0.998 0 0 0-1 1.002v61.913c0 0.013 0.039 0.165 0.105 0.432 0.112 0.168 0.303 0.148 0.52-0.092v-59.882c0.029-0.081 0.053-0.123 0.074-0.123 0.116-0.159 0.222-0.321 0.507-0.44 0.209-0.111 0.454-0.185 0.701-0.185 19.486 2e-3 38.916 0 60.08 0 0.357 0 0.687 0.12 0.925 0.302a0.66 0.66 0 0 1 0.292 0.323c0.043 0 0.089 0.098 0.171 0.284v59.626c0.275 0.302 0.507 0.29 0.591 0.046 0.022-0.125 0.034-0.236 0.034-0.33v-61.791c0-0.104-5e-3 -0.18-0.016-0.224a0.99 0.99 0 0 0-0.903-0.852 1.514 1.514 0 0 0-0.218-8e-3h-61.863" fill="url(#m-0)"/>
		<path d="m1 0a0.998 0.998 0 0 0-1 1.002v61.928c0 0.045 0.042 0.203 0.115 0.453 0.123 0.184 0.333 0.197 0.572-3e-3v-59.87c0.024-0.089 0.045-0.135 0.062-0.135 0.097-0.174 0.207-0.353 0.478-0.484 0.204-0.122 0.448-0.203 0.696-0.203 19.519 2e-3 38.863 0 60.067 0a1.4 1.4 0 0 1 0.914 0.332c0.15 0.103 0.224 0.225 0.267 0.355 0.035 0 0.073 0.108 0.142 0.313v59.612c0.302 0.251 0.557 0.196 0.65-0.074a1.7 1.7 0 0 0 0.037-0.33v-61.825c0-0.1-6e-3 -0.175-0.017-0.224a0.99 0.99 0 0 0-0.915-0.84 1.712 1.712 0 0 0-0.218-7e-3h-61.85" fill="url(#n-9)"/>
		<path d="m1 0a0.998 0.998 0 0 0-1 1.002v61.942c0 0.077 0.046 0.242 0.126 0.473 0.134 0.201 0.363 0.246 0.624 0.086v-59.856c0.02-0.097 0.035-0.147 0.05-0.147a0.981 0.981 0 0 1 0.447-0.529c0.2-0.133 0.444-0.221 0.691-0.221 19.553 2e-3 38.811 0 60.053 0 0.36 0 0.686 0.144 0.903 0.362a0.688 0.688 0 0 1 0.242 0.388c0.028 0 0.059 0.118 0.114 0.341v59.598c0.33 0.2 0.608 0.1 0.709-0.194 0.026-0.117 0.04-0.228 0.04-0.329v-61.86c0-0.095-6e-3 -0.17-0.018-0.224a0.991 0.991 0 0 0-0.927-0.827 2.015 2.015 0 0 0-0.218-5e-3h-61.836" fill="url(#o-3)"/>
		<path d="m1 0a0.998 0.998 0 0 0-1 1.001v61.956c0 0.11 0.05 0.281 0.136 0.494 0.146 0.218 0.394 0.296 0.677 0.176v-59.843c0.014-0.105 0.026-0.16 0.036-0.16a0.967 0.967 0 0 1 0.419-0.572c0.196-0.144 0.439-0.24 0.686-0.24 19.586 2e-3 38.758 0 60.04 0 0.36 0 0.685 0.156 0.892 0.392a0.73 0.73 0 0 1 0.216 0.42c0.021 0 0.044 0.128 0.086 0.37v59.585c0.356 0.15 0.658 5e-3 0.768-0.314 0.029-0.114 0.044-0.224 0.044-0.328v-61.895c0-0.09-7e-3 -0.166-0.02-0.224a0.992 0.992 0 0 0-0.94-0.814 2.524 2.524 0 0 0-0.217-5e-3h-61.823" fill="url(#p-6)"/>
		<path d="m1 0a0.998 0.998 0 0 0-1 1v61.972c0 0.142 0.054 0.32 0.147 0.515a0.643 0.643 0 0 0 0.728 0.265v-59.83c0.01-0.114 0.018-0.172 0.025-0.172a0.97 0.97 0 0 1 0.389-0.617c0.192-0.155 0.434-0.258 0.68-0.258 19.62 2e-3 38.705 0 60.027 0 0.362 0 0.686 0.168 0.882 0.422a0.794 0.794 0 0 1 0.19 0.453c0.015 0 0.03 0.137 0.057 0.398v59.572c0.385 0.1 0.71-0.09 0.828-0.434 0.03-0.11 0.047-0.22 0.047-0.328v-61.93c0-0.086-7e-3 -0.161-0.021-0.224a0.994 0.994 0 0 0-0.951-0.802 3.563 3.563 0 0 0-0.219-2e-3h-61.809" fill="url(#q-0)"/>
		<path d="m1 0a0.998 0.998 0 0 0-1 1v61.986c0 0.174 0.058 0.358 0.157 0.535a0.802 0.802 0 0 0 0.78 0.355v-59.816c5e-3 -0.122 0.01-0.185 0.013-0.185a0.987 0.987 0 0 1 0.36-0.66c0.187-0.166 0.429-0.277 0.675-0.277 19.653 2e-3 38.652 0 60.013 0 0.363 0 0.685 0.18 0.87 0.452a0.876 0.876 0 0 1 0.166 0.485c7e-3 0 0.015 0.147 0.028 0.427v59.558c0.412 0.05 0.76-0.186 0.887-0.553a1.1 1.1 0 0 0 0.05-0.328v-61.965a0.996 0.996 0 0 0-0.985-1.014 6.67 6.67 0 0 0-0.219 0h-61.795" fill="url(#r-6)"/>
		<path d="m1 0a0.998 0.998 0 0 0-1 1v2h64v-1.998a0.998 0.998 0 0 0-1-1h-62z" fill="url(#s-2)"/>
	</g>
</svg>
