<?xml version="1.0" encoding="UTF-8"?>
<!-- Created with Inkscape (http://www.inkscape.org/) -->
<svg width="64" height="64" version="1.1" xmlns="http://www.w3.org/2000/svg" xmlns:cc="http://creativecommons.org/ns#" xmlns:dc="http://purl.org/dc/elements/1.1/" xmlns:rdf="http://www.w3.org/1999/02/22-rdf-syntax-ns#" xmlns:xlink="http://www.w3.org/1999/xlink">
	<defs>
		<linearGradient id="a">
			<stop stop-color="#e3a8a4" offset="0"/>
			<stop stop-color="#e3a8a4" offset="1"/>
		</linearGradient>
		<radialGradient id="b" cx="41" cy="42.151" r="32" gradientTransform="matrix(1 0 0 .98438 0 .50781)" gradientUnits="userSpaceOnUse">
			<stop stop-color="#5647cf" offset="0"/>
			<stop stop-color="#8e43db" offset="1"/>
		</radialGradient>
		<linearGradient id="f" x1="38.656" x2="45.711" y1="47.027" y2="47.027" gradientUnits="userSpaceOnUse" xlink:href="#a"/>
		<linearGradient id="e" x1="47.147" x2="54.348" y1="29.752" y2="29.752" gradientUnits="userSpaceOnUse" xlink:href="#a"/>
		<linearGradient id="d" x1="38.303" x2="54.061" y1="17.271" y2="17.271" gradientUnits="userSpaceOnUse">
			<stop stop-color="#e6b9bf" offset="0"/>
			<stop stop-color="#f5eac7" offset=".25889"/>
			<stop stop-color="#f3adb9" offset=".28132"/>
			<stop stop-color="#f3a8b6" offset="1"/>
		</linearGradient>
		<linearGradient id="c" x1="26.782" x2="26.782" y1="22.066" y2="23.691" gradientUnits="userSpaceOnUse">
			<stop stop-color="#c49efe" offset="0"/>
			<stop stop-color="#faf7fe" offset=".46693"/>
			<stop stop-color="#e6d7fd" offset=".59196"/>
			<stop stop-color="#e6d7fd" offset="1"/>
		</linearGradient>
	</defs>
	<metadata>
		<rdf:RDF>
			<cc:Work rdf:about="">
				<dc:format>image/svg+xml</dc:format>
				<dc:type rdf:resource="http://purl.org/dc/dcmitype/StillImage"/>
				<dc:title/>
			</cc:Work>
		</rdf:RDF>
	</metadata>
	<path d="m0 1v61l2 2h60l2-2v-61h-32z" color="#000000" fill="url(#b)"/>
	<path d="m2 0-2 1v1h64v-1l-2-1h-30z" color="#000000" fill="#dab8fd"/>
	<path d="m0 1v3l2-2z" fill="#e9d5ff"/>
	<path d="m64 4-2-2 2-1z" fill="#906ecd"/>
	<path d="m54.061 11.969-7.0371 2.5332-3.8008 8.043-4.2109 1.9746-2.4531-2.4531h-12.16v2.6387l-2.6387-2.6387h-10.58l-0.54688 24.961 16.971 16.973h34.396l2-2v-40.092l-9.9395-9.9395z" fill="#400a77" fill-opacity=".13559" style="paint-order:normal"/>
	<path d="m10.632 22.066v24.962h2.3005v-17.077l2.9158-0.24294v1.1238c0.16201-0.16201 0.33447-0.317 0.51673-0.4655 0.18901-0.15526 0.38474-0.2907 0.58725-0.40546 0.20926-0.12151 0.4288-0.21937 0.65831-0.29363 0.22951-0.07421 0.46542-0.11132 0.70843-0.11132 0.53328 0 0.97869 0.0947 1.3365 0.28372 0.36452 0.18225 0.66183 0.42877 0.89134 0.73929 0.22951 0.31051 0.40143 0.67127 0.51618 1.083 0.12151 0.40502 0.20616 0.83033 0.25342 1.2759 0.04724 0.43877 0.07046 0.88418 0.07046 1.3365 0.0068 0.44552 0.01024 0.86768 0.01024 1.2659 0 0.36452-0.0068 0.76974-0.02037 1.2153-0.01355 0.44552-0.05418 0.8941-0.12174 1.3464-0.06078 0.45227-0.15862 0.89135-0.29363 1.3166-0.135 0.42527-0.32702 0.80296-0.57678 1.1337-0.24301 0.33077-0.55037 0.59738-0.92163 0.79989-0.37127 0.19576-0.82673 0.29362-1.3668 0.29362-0.37801 0-0.70546-0.06716-0.98223-0.20217-0.27676-0.12826-0.5095-0.27374-0.69852-0.43576-0.22276-0.18225-0.41216-0.39492-0.56742-0.63793v6.6586h14.684v-17.077l2.9158-0.24294v1.1238c0.16201-0.16201 0.33447-0.317 0.51673-0.4655 0.18901-0.15526 0.38474-0.2907 0.58725-0.40546 0.20926-0.12151 0.4288-0.21937 0.6583-0.29363 0.22951-0.07422 0.46543-0.11132 0.70844-0.11132 0.53328 0 0.97869 0.0947 1.3365 0.28372 0.36452 0.18225 0.66183 0.42877 0.89134 0.73929 0.22951 0.31051 0.40142 0.67127 0.51618 1.083 0.12151 0.40502 0.20616 0.83033 0.25342 1.2759 0.04724 0.43877 0.07046 0.88418 0.07046 1.3365 0.0068 0.44552 0.01024 0.86768 0.01024 1.2659 0 0.36452-0.0068 0.76974-0.02038 1.2153-0.01355 0.44552-0.0543 0.8941-0.12174 1.3464-0.06078 0.45227-0.15862 0.89135-0.29363 1.3166-0.135 0.42527-0.32702 0.80296-0.57678 1.1337-0.24301 0.33077-0.55037 0.59738-0.92163 0.79989-0.37127 0.19576-0.82673 0.29362-1.3668 0.29362-0.37801 0-0.70546-0.06716-0.98223-0.20217-0.27676-0.12826-0.5095-0.27374-0.69852-0.43576-0.22276-0.18225-0.41216-0.39491-0.56742-0.63792v6.6586h3.4612c8.9134-8.8829 8.1852-11.496 4.5005-14.243-3.995-3.6465-4.834-7.4812-4.8514-10.719h-12.159v9.2621c0.54974-0.51309 1.0779-0.88889 1.5849-1.1271 0.50699-0.23822 0.98636-0.35752 1.4384-0.35752 0.32984 0 0.63244 0.06397 0.90731 0.19226 0.27486 0.12217 0.51022 0.29949 0.70569 0.53161 0.20157 0.226 0.3572 0.50419 0.46715 0.83404 0.11606 0.32984 0.17408 0.69913 0.17408 1.1084v8.4467h-2.6387v-7.5031c0-0.48255-0.08844-0.83069-0.26553-1.0445-0.17104-0.21379-0.38795-0.32062-0.6506-0.32062-0.24433 0-0.50083 0.06727-0.76959 0.20162-0.26877 0.12827-0.58654 0.30235-0.95304 0.52224v8.1443h-2.6387v-18.89h-11.129zm6.4619 9.5854c-0.18901 0-0.36093 0.04394-0.51619 0.13166-0.1485 0.08104-0.27706 0.17198-0.38507 0.27323-0.12825 0.12151-0.24304 0.2564-0.34431 0.40491v6.025c0.08105 0.17551 0.18259 0.3305 0.30409 0.4655 0.10131 0.11475 0.22926 0.22267 0.38452 0.32392 0.16201 0.09448 0.35456 0.14212 0.57732 0.14212 0.20251 0 0.38448-0.05077 0.54649-0.15204 0.16875-0.10119 0.31424-0.29381 0.43574-0.57734 0.12151-0.28351 0.21566-0.67813 0.28316-1.1844s0.10142-1.1612 0.10142-1.9645c0-0.72903-0.03017-1.34-0.09095-1.8328-0.06078-0.49952-0.14858-0.90103-0.26333-1.2048-0.11476-0.30376-0.25969-0.52014-0.4352-0.6484-0.17551-0.135-0.37495-0.20217-0.59771-0.20217zm17.6 0c-0.18901 0-0.36092 0.04394-0.51619 0.13166-0.14851 0.08104-0.27706 0.17198-0.38507 0.27323-0.12826 0.12151-0.24304 0.2564-0.34431 0.40491v6.025c0.08104 0.17551 0.18258 0.3305 0.30409 0.4655 0.10119 0.11475 0.22926 0.22267 0.38452 0.32392 0.16201 0.09448 0.35456 0.14212 0.57732 0.14212 0.20251 0 0.38448-0.05077 0.54649-0.15204 0.16875-0.10119 0.31424-0.29381 0.43574-0.57734 0.12151-0.28351 0.21566-0.67813 0.28316-1.1844s0.10131-1.1612 0.10131-1.9645c0-0.72903-0.03016-1.34-0.09083-1.8328-0.06078-0.49952-0.14858-0.90103-0.26333-1.2048-0.11476-0.30376-0.2597-0.52014-0.4352-0.6484-0.17551-0.135-0.37495-0.20217-0.59771-0.20217z" fill="url(#c)"/>
	<path d="m10.632 23.066v24.962h2.3005v-17.077l2.9158-0.24294v1.1238c0.16201-0.16201 0.33447-0.317 0.51673-0.4655 0.18901-0.15526 0.38474-0.2907 0.58725-0.40546 0.20926-0.12151 0.4288-0.21937 0.65831-0.29363 0.22951-0.07421 0.46542-0.11132 0.70843-0.11132 0.53328 0 0.97869 0.0947 1.3365 0.28372 0.36452 0.18225 0.66183 0.42877 0.89134 0.73929 0.22951 0.31051 0.40143 0.67127 0.51618 1.083 0.12151 0.40502 0.20616 0.83033 0.25342 1.2759 0.04724 0.43877 0.07046 0.88418 0.07046 1.3365 0.0068 0.44552 0.01024 0.86768 0.01024 1.2659 0 0.36452-0.0068 0.76974-0.02037 1.2153-0.01355 0.44552-0.05418 0.8941-0.12174 1.3464-0.06078 0.45227-0.15862 0.89135-0.29363 1.3166-0.135 0.42527-0.32702 0.80296-0.57678 1.1337-0.24301 0.33077-0.55037 0.59738-0.92163 0.79989-0.37127 0.19576-0.82673 0.29362-1.3668 0.29362-0.37801 0-0.70546-0.06716-0.98223-0.20217-0.27676-0.12826-0.5095-0.27374-0.69852-0.43576-0.22276-0.18225-0.41216-0.39492-0.56742-0.63793v6.6586h14.684v-17.077l2.9158-0.24294v1.1238c0.16201-0.16201 0.33447-0.317 0.51673-0.4655 0.18901-0.15526 0.38474-0.2907 0.58725-0.40546 0.20926-0.12151 0.4288-0.21937 0.6583-0.29363 0.22951-0.07422 0.46543-0.11132 0.70844-0.11132 0.53328 0 0.97869 0.0947 1.3365 0.28372 0.36452 0.18225 0.66183 0.42877 0.89134 0.73929 0.22951 0.31051 0.40142 0.67127 0.51618 1.083 0.12151 0.40502 0.20616 0.83033 0.25342 1.2759 0.04724 0.43877 0.07046 0.88418 0.07046 1.3365 0.0068 0.44552 0.01024 0.86768 0.01024 1.2659 0 0.36452-0.0068 0.76974-0.02038 1.2153-0.01355 0.44552-0.0543 0.8941-0.12174 1.3464-0.06078 0.45227-0.15862 0.89135-0.29363 1.3166-0.135 0.42527-0.32702 0.80296-0.57678 1.1337-0.24301 0.33077-0.55037 0.59738-0.92163 0.79989-0.37127 0.19576-0.82673 0.29362-1.3668 0.29362-0.37801 0-0.70546-0.06716-0.98223-0.20217-0.27676-0.12826-0.5095-0.27374-0.69852-0.43576-0.22276-0.18225-0.41216-0.39491-0.56742-0.63792v6.6586h3.4612c8.9134-8.8829 8.1852-11.496 4.5005-14.243-3.995-3.6465-4.834-7.4812-4.8514-10.719h-12.159v9.2621c0.54974-0.51309 1.0779-0.88889 1.5849-1.1271 0.50699-0.23822 0.98636-0.35752 1.4384-0.35752 0.32984 0 0.63244 0.06397 0.90731 0.19226 0.27486 0.12217 0.51022 0.29949 0.70569 0.53161 0.20157 0.226 0.3572 0.50419 0.46715 0.83404 0.11606 0.32984 0.17408 0.69913 0.17408 1.1084v8.4467h-2.6387v-7.5031c0-0.48255-0.08844-0.83069-0.26553-1.0445-0.17104-0.21379-0.38795-0.32062-0.6506-0.32062-0.24433 0-0.50083 0.06727-0.76959 0.20162-0.26877 0.12827-0.58654 0.30235-0.95304 0.52224v8.1443h-2.6387v-18.89h-11.129zm6.4619 9.5854c-0.18901 0-0.36093 0.04394-0.51619 0.13166-0.1485 0.08104-0.27706 0.17198-0.38507 0.27323-0.12825 0.12151-0.24304 0.2564-0.34431 0.40491v6.025c0.08105 0.17551 0.18259 0.3305 0.30409 0.4655 0.10131 0.11475 0.22926 0.22267 0.38452 0.32392 0.16201 0.09448 0.35456 0.14212 0.57732 0.14212 0.20251 0 0.38448-0.05077 0.54649-0.15204 0.16875-0.10119 0.31424-0.29381 0.43574-0.57734 0.12151-0.28351 0.21566-0.67813 0.28316-1.1844s0.10142-1.1612 0.10142-1.9645c0-0.72903-0.03017-1.34-0.09095-1.8328-0.06078-0.49952-0.14858-0.90103-0.26333-1.2048-0.11476-0.30376-0.25969-0.52014-0.4352-0.6484-0.17551-0.135-0.37495-0.20217-0.59771-0.20217zm17.6 0c-0.18901 0-0.36092 0.04394-0.51619 0.13166-0.14851 0.08104-0.27706 0.17198-0.38507 0.27323-0.12826 0.12151-0.24304 0.2564-0.34431 0.40491v6.025c0.08104 0.17551 0.18258 0.3305 0.30409 0.4655 0.10119 0.11475 0.22926 0.22267 0.38452 0.32392 0.16201 0.09448 0.35456 0.14212 0.57732 0.14212 0.20251 0 0.38448-0.05077 0.54649-0.15204 0.16875-0.10119 0.31424-0.29381 0.43574-0.57734 0.12151-0.28351 0.21566-0.67813 0.28316-1.1844s0.10131-1.1612 0.10131-1.9645c0-0.72903-0.03016-1.34-0.09083-1.8328-0.06078-0.49952-0.14858-0.90103-0.26333-1.2048-0.11476-0.30376-0.2597-0.52014-0.4352-0.6484-0.17551-0.135-0.37495-0.20217-0.59771-0.20217z" fill="#d7e3ec"/>
	<path d="m42.781 11.969c-3.3884 3.5261-4.4785 7.4827-4.4785 9.9844 0 0.2066 0.01488 0.41415 0.02148 0.62109 0.10065-2.5104 1.2288-6.246 4.457-9.6055h11.279v-1z" fill="url(#d)"/>
	<path d="m54.061 12.969c-0.07962 0.09647-0.17978 0.20068-0.26953 0.30078 0.16228-0.08972 0.26953-0.18723 0.26953-0.30078z" fill="#f8ced4"/>
	<path d="m47.176 22.262c-0.17504 1.6732 0.42731 3.4784 2.377 5.3965 3.2187 3.2187 4.6255 6.4894 4.7891 9.584 0.11276-3.3846-1.2208-7.0158-4.7891-10.584-1.5673-1.5419-2.2536-3.0103-2.377-4.3965z" fill="url(#e)"/>
	<path d="m45.682 36.975c-0.22106 2.2317-1.9526 5.3995-7.0254 10.053v1c5.8832-5.3966 7.2836-8.8008 7.0254-11.053z" fill="url(#f)"/>
	<path d="m42.781 12.969c-3.3884 3.5261-4.4771 7.4826-4.4771 9.9843 0 3.2743 0.74904 6.5802 4.7905 10.269 2.0054 1.5857 6.4955 4.7765-4.4379 14.806h11.074c5.0486-5.1452 7.2889-12.904-0.17739-20.37-6.4908-6.3856 1.894-11.523 4.5074-14.689z" fill="#ec784f"/>
</svg>
