<?xml version="1.0" encoding="UTF-8"?>
<svg width="64" height="64" version="1.1" xmlns="http://www.w3.org/2000/svg" xmlns:xlink="http://www.w3.org/1999/xlink">
	<defs>
		<radialGradient id="e" cx="31.744" cy="30.855" r="32" gradientTransform="translate(277.45 965.74) scale(1.1553)" gradientUnits="userSpaceOnUse">
			<stop stop-color="#414460" offset="0"/>
			<stop stop-color="#4f4e73" offset="1"/>
		</radialGradient>
		<radialGradient id="u" cx="35.574" cy="1.439" r="32" gradientTransform="matrix(0 1.1252 -5.1753 0 39.446 -39.029)" gradientUnits="userSpaceOnUse">
			<stop stop-color="#888acb" stop-opacity=".1" offset="0"/>
			<stop stop-color="#9895c7" stop-opacity=".04" offset="1"/>
		</radialGradient>
		<radialGradient id="s-84" cx="32" cy="15.077" r="32" gradientTransform="matrix(2.0435 0 0 .0149 -33.393 1.217)" gradientUnits="userSpaceOnUse">
			<stop stop-color="#fff" stop-opacity=".126" offset="0"/>
			<stop stop-color="#fff" stop-opacity=".001" offset="1"/>
		</radialGradient>
	</defs>
	<g transform="translate(346.38,-971.27)">
		<rect transform="scale(-1,1)" x="282.38" y="971.27" width="64" height="64" rx="1" ry="1" fill="url(#e)" stop-color="#000000" style="-inkscape-stroke:none;font-variation-settings:normal;paint-order:fill markers stroke" paint-order="fill markers stroke"/>
		<g fill="url(#u)">
			<path transform="translate(-346.38,971.33)" d="m1 0c-0.554 0-1 0.446-1 1v62-0.224 0.224-62h1.752c19.15 2e-3 39.445 0 60.213 0h2.035v62-0.334 0.334-62a0.998 0.998 0 0 0-1-1z" stop-color="#000000" style="-inkscape-stroke:none;font-variation-settings:normal"/>
			<path transform="translate(-346.38,971.33)" d="m1 0a0.998 0.998 0 0 0-1 1.006v61.98-0.197c0-0.277 4e-3 -0.184 0.01 0.246 0.012 0.016 0.03-0.297 0.052-0.897v-61c0.072-9e-3 0.133-0.013 0.185-0.013 0.29-0.016 0.357-0.032 0.774-0.044 0.246-0.011 0.496-0.019 0.747-0.019 19.183 2e-3 39.392 0 60.2 0 0.346 0 0.689 0.012 1.023 0.03 0.268 0.01 0.389 0.02 0.52 0.033 0.106 0 0.22 0.01 0.427 0.028v60.744c0.027 0.754 0.05 1.148 0.059 1.123l3e-3 -0.334v0.286-61.762c0-0.143 0-0.22-2e-3 -0.224a0.996 0.996 0 0 0-1.012-0.986h-61.986" stop-color="#000000" style="-inkscape-stroke:none;font-variation-settings:normal"/>
			<path transform="translate(-346.38,971.33)" d="m1 0a0.998 0.998 0 0 0-1 1.006v61.966-0.169c0-0.245 8e-3 -0.145 0.021 0.266 0.022 0.034 0.06-0.247 0.104-0.807v-60.988a0.744 0.744 0 0 1 0.173-0.025c0.27-0.031 0.341-0.064 0.743-0.088 0.242-0.022 0.492-0.037 0.742-0.037 19.217 2e-3 39.34 0 60.187 0 0.347 0 0.69 0.024 1.013 0.06 0.256 0.02 0.372 0.042 0.494 0.065 0.1 0 0.206 0.02 0.398 0.057v60.731c0.055 0.703 0.102 1.052 0.119 1.003 4e-3 -0.154 6e-3 -0.265 6e-3 -0.333v0.237-61.748c0-0.139 0-0.215-3e-3 -0.224a0.994 0.994 0 0 0-0.807-0.952 1.025 1.025 0 0 0-0.217-0.02h-61.973" stop-color="#000000" style="-inkscape-stroke:none;font-variation-settings:normal"/>
			<path transform="translate(-346.38,971.33)" d="m1 0a0.998 0.998 0 0 0-1 1.005v61.953-0.14c0-0.213 0.012-0.107 0.031 0.287 0.034 0.05 0.091-0.198 0.156-0.718v-60.974a0.45 0.45 0 0 1 0.16-0.037c0.252-0.048 0.327-0.097 0.715-0.132 0.238-0.034 0.487-0.056 0.737-0.056 19.25 2e-3 39.286 0 60.173 0 0.348 0 0.688 0.036 1.001 0.09 0.244 0.029 0.356 0.062 0.47 0.098 0.091 0 0.19 0.03 0.37 0.085v60.718c0.082 0.653 0.151 0.957 0.176 0.884 7e-3 -0.152 0.01-0.262 0.01-0.333v0.188-61.734c0-0.135 0-0.21-4e-3 -0.224a0.992 0.992 0 0 0-0.819-0.94 1.041 1.041 0 0 0-0.217-0.018h-61.96" stop-color="#000000" style="-inkscape-stroke:none;font-variation-settings:normal"/>
			<path transform="translate(-346.38,971.33)" d="m1 0a0.998 0.998 0 0 0-1 1.005v61.939-0.113c0-0.18 0.015-0.068 0.042 0.308 0.045 0.067 0.121-0.149 0.208-0.629v-60.96a0.312 0.312 0 0 1 0.148-0.05c0.232-0.063 0.311-0.128 0.684-0.176 0.234-0.044 0.483-0.074 0.732-0.074 19.284 2e-3 39.234 0 60.16 0 0.35 0 0.689 0.048 0.991 0.12 0.232 0.039 0.34 0.083 0.444 0.13 0.085 0 0.176 0.04 0.341 0.114v60.704c0.11 0.603 0.203 0.862 0.236 0.764 8e-3 -0.11 0.013-0.222 0.014-0.333v0.14-61.721c0-0.13-2e-3 -0.206-6e-3 -0.224a0.991 0.991 0 0 0-0.83-0.927 1.066 1.066 0 0 0-0.22-0.017h-61.944" stop-color="#000000" style="-inkscape-stroke:none;font-variation-settings:normal"/>
			<path transform="translate(-346.38,971.33)" d="m1 0a0.998 0.998 0 0 0-1 1.004v61.926-0.084c0-0.148 0.02-0.029 0.052 0.328 0.056 0.084 0.152-0.099 0.26-0.539v-60.949c0.053-0.04 0.097-0.061 0.136-0.061 0.212-0.08 0.297-0.16 0.655-0.22 0.23-0.056 0.477-0.093 0.727-0.093 19.317 2e-3 39.18 0 60.147 0 0.35 0 0.688 0.06 0.98 0.151 0.22 0.047 0.322 0.102 0.418 0.162 0.078 0 0.162 0.049 0.313 0.142v60.69c0.137 0.553 0.253 0.767 0.295 0.645a4.7 4.7 0 0 0 0.017-0.332v0.09-61.705c0-0.126-2e-3 -0.202-7e-3 -0.224a0.99 0.99 0 0 0-0.843-0.914 1.099 1.099 0 0 0-0.218-0.017h-61.932" stop-color="#000000" style="-inkscape-stroke:none;font-variation-settings:normal"/>
			<path transform="translate(-346.38,971.33)" d="m1 0a0.998 0.998 0 0 0-1 1.004v61.912-0.056c0-0.117 0.023 0.01 0.063 0.349 0.067 0.1 0.182-0.05 0.312-0.45v-60.935c0.048-0.049 0.088-0.074 0.123-0.074 0.193-0.095 0.282-0.192 0.626-0.264 0.225-0.067 0.472-0.11 0.721-0.11h60.133c0.352 0 0.688 0.071 0.97 0.18 0.144 0.033 0.279 0.1 0.393 0.194 0.07 0 0.147 0.059 0.284 0.17v60.68c0.164 0.502 0.304 0.671 0.354 0.524 0.014-0.14 0.02-0.25 0.02-0.331v0.042-61.695c0-0.121-2e-3 -0.197-9e-3 -0.224a0.99 0.99 0 0 0-0.854-0.902 1.142 1.142 0 0 0-0.218-0.014h-61.918" stop-color="#000000" style="-inkscape-stroke:none;font-variation-settings:normal"/>
			<path transform="translate(-346.38,971.33)" d="m1 0a0.998 0.998 0 0 0-1 1.004v61.898-0.029c0-0.084 0.027 0.049 0.073 0.37 0.079 0.117 0.212 0 0.365-0.36v-60.923c0.043-0.057 0.079-0.086 0.11-0.086 0.174-0.112 0.267-0.225 0.596-0.309a2.19 2.19 0 0 1 0.717-0.129c19.385 2e-3 39.075 0 60.12 0 0.353 0 0.687 0.084 0.958 0.211a0.81 0.81 0 0 1 0.368 0.227c0.063 0 0.132 0.068 0.256 0.199v60.665c0.192 0.452 0.354 0.576 0.413 0.404 0.014-0.11 0.022-0.22 0.024-0.33v-61.687c0-0.117-4e-3 -0.193-0.01-0.224a0.99 0.99 0 0 0-0.868-0.89 1.198 1.198 0 0 0-0.217-0.011h-61.905" stop-color="#000000" style="-inkscape-stroke:none;font-variation-settings:normal"/>
			<path transform="translate(-346.38,971.33)" d="m1 0a0.998 0.998 0 0 0-1 1.003v61.885c0-0.052 0.03 0.087 0.084 0.39 0.09 0.135 0.242 0.05 0.416-0.27v-60.911c0.038-0.063 0.07-0.097 0.099-0.097 0.154-0.127 0.251-0.257 0.566-0.352 0.217-0.089 0.463-0.148 0.711-0.148 19.418 2e-3 39.022 0 60.107 0 0.355 0 0.687 0.096 0.947 0.242 0.138 0.05 0.257 0.14 0.343 0.258 0.056 0 0.118 0.079 0.227 0.227v60.651c0.22 0.402 0.406 0.482 0.473 0.285 0.018-0.132 0.027-0.243 0.027-0.33v-61.721c0-0.113-4e-3 -0.188-0.012-0.224a0.99 0.99 0 0 0-0.879-0.877 1.273 1.273 0 0 0-0.218-0.011h-61.89" stop-color="#000000" style="-inkscape-stroke:none;font-variation-settings:normal"/>
			<path transform="translate(-346.38,971.33)" d="m1 0a0.998 0.998 0 0 0-1 1.003v61.899c0-0.02 0.035 0.126 0.094 0.41 0.101 0.152 0.273 0.1 0.468-0.18v-60.897c0.034-0.073 0.062-0.11 0.087-0.11 0.135-0.143 0.236-0.29 0.536-0.397 0.213-0.1 0.459-0.166 0.707-0.166 19.452 2e-3 38.969 0 60.093 0 0.356 0 0.687 0.108 0.936 0.272 0.134 0.06 0.246 0.162 0.317 0.29 0.05 0 0.103 0.089 0.2 0.256v60.64c0.246 0.352 0.455 0.386 0.531 0.165 0.02-0.128 0.03-0.239 0.03-0.33v-61.755c0-0.108-4e-3 -0.184-0.013-0.224a0.99 0.99 0 0 0-0.891-0.864 1.376 1.376 0 0 0-0.218-0.01h-61.877" stop-color="#000000" style="-inkscape-stroke:none;font-variation-settings:normal"/>
			<path transform="translate(-346.38,971.33)" d="m1 0a0.998 0.998 0 0 0-1 1.002v61.913c0 0.013 0.039 0.165 0.105 0.432 0.112 0.168 0.303 0.148 0.52-0.092v-60.882c0.029-0.081 0.053-0.123 0.074-0.123 0.116-0.159 0.222-0.321 0.507-0.44a1.52 1.52 0 0 1 0.701-0.185c19.486 2e-3 38.916 0 60.08 0 0.357 0 0.687 0.12 0.925 0.302a0.66 0.66 0 0 1 0.292 0.323c0.043 0 0.089 0.098 0.171 0.284v60.626c0.275 0.302 0.507 0.29 0.591 0.046 0.022-0.125 0.034-0.236 0.034-0.33v-61.791c0-0.104-5e-3 -0.18-0.016-0.224a0.99 0.99 0 0 0-0.903-0.852 1.514 1.514 0 0 0-0.218-8e-3h-61.863" stop-color="#000000" style="-inkscape-stroke:none;font-variation-settings:normal"/>
			<path transform="translate(-346.38,971.33)" d="m1 0a0.998 0.998 0 0 0-1 1.002v61.928c0 0.045 0.042 0.203 0.115 0.453 0.123 0.184 0.333 0.197 0.572-3e-3v-60.87c0.024-0.089 0.045-0.135 0.062-0.135 0.097-0.174 0.207-0.353 0.478-0.484 0.204-0.122 0.448-0.203 0.696-0.203 19.519 2e-3 38.863 0 60.067 0a1.4 1.4 0 0 1 0.914 0.332c0.15 0.103 0.224 0.225 0.267 0.355 0.035 0 0.073 0.108 0.142 0.313v60.612c0.302 0.251 0.557 0.196 0.65-0.074a1.7 1.7 0 0 0 0.037-0.33v-61.825c0-0.1-6e-3 -0.175-0.017-0.224a0.99 0.99 0 0 0-0.915-0.84 1.712 1.712 0 0 0-0.218-7e-3h-61.85" stop-color="#000000" style="-inkscape-stroke:none;font-variation-settings:normal"/>
			<path transform="translate(-346.38,971.33)" d="m1 0a0.998 0.998 0 0 0-1 1.002v61.942c0 0.077 0.046 0.242 0.126 0.473 0.134 0.201 0.363 0.246 0.624 0.086v-60.856c0.02-0.097 0.035-0.147 0.05-0.147a0.981 0.981 0 0 1 0.447-0.529c0.2-0.133 0.444-0.221 0.691-0.221 19.553 2e-3 38.811 0 60.053 0 0.36 0 0.686 0.144 0.903 0.362a0.688 0.688 0 0 1 0.242 0.388c0.028 0 0.059 0.118 0.114 0.341v60.598c0.33 0.2 0.608 0.1 0.709-0.194 0.026-0.117 0.04-0.228 0.04-0.329v-61.86c0-0.095-6e-3 -0.17-0.018-0.224a0.991 0.991 0 0 0-0.927-0.827 2.015 2.015 0 0 0-0.218-5e-3h-61.836" stop-color="#000000" style="-inkscape-stroke:none;font-variation-settings:normal"/>
			<path transform="translate(-346.38,971.33)" d="m1 0a0.998 0.998 0 0 0-1 1.001v61.956c0 0.11 0.05 0.281 0.136 0.494 0.146 0.218 0.394 0.296 0.677 0.176v-60.843c0.014-0.105 0.026-0.16 0.036-0.16a0.967 0.967 0 0 1 0.419-0.572c0.196-0.144 0.439-0.24 0.686-0.24 19.586 2e-3 38.758 0 60.04 0 0.36 0 0.685 0.156 0.892 0.392a0.73 0.73 0 0 1 0.216 0.42c0.021 0 0.044 0.128 0.086 0.37v60.585c0.356 0.15 0.658 5e-3 0.768-0.314 0.029-0.114 0.044-0.224 0.044-0.328v-61.895c0-0.09-7e-3 -0.166-0.02-0.224a0.992 0.992 0 0 0-0.94-0.814 2.524 2.524 0 0 0-0.217-5e-3h-61.823" stop-color="#000000" style="-inkscape-stroke:none;font-variation-settings:normal"/>
			<path transform="translate(-346.38,971.33)" d="m1 0a0.998 0.998 0 0 0-1 1v61.972c0 0.142 0.054 0.32 0.147 0.515 0.156 0.241 0.453 0.35 0.728 0.265v-60.83c0.01-0.114 0.018-0.172 0.025-0.172a0.97 0.97 0 0 1 0.389-0.617c0.192-0.155 0.434-0.258 0.68-0.258 19.62 2e-3 38.705 0 60.027 0 0.362 0 0.686 0.168 0.882 0.422 0.11 0.127 0.176 0.286 0.19 0.453 0.015 0 0.03 0.137 0.057 0.398v60.572c0.385 0.1 0.71-0.09 0.828-0.434 0.03-0.11 0.047-0.22 0.047-0.328v-61.93c0-0.086-7e-3 -0.161-0.021-0.224a0.994 0.994 0 0 0-0.951-0.802 3.563 3.563 0 0 0-0.219-2e-3h-61.809" stop-color="#000000" style="-inkscape-stroke:none;font-variation-settings:normal"/>
			<path transform="translate(-346.38,971.33)" d="m1 2e-3a0.998 0.998 0 0 0-1 1v61.986c0 0.174 0.058 0.358 0.157 0.535 0.17 0.259 0.473 0.397 0.78 0.355v-60.816c5e-3 -0.122 0.01-0.185 0.013-0.185a0.987 0.987 0 0 1 0.36-0.66c0.187-0.166 0.429-0.277 0.675-0.277 19.653 2e-3 38.652 0 60.013 0 0.363 0 0.685 0.18 0.87 0.452 0.102 0.141 0.16 0.31 0.166 0.485 7e-3 0 0.015 0.147 0.028 0.427v60.558c0.412 0.05 0.76-0.186 0.887-0.553a1.1 1.1 0 0 0 0.05-0.328v-61.965a0.996 0.996 0 0 0-0.985-1.014 6.67 6.67 0 0 0-0.22 0h-61.794" stop-color="#000000" style="-inkscape-stroke:none;font-variation-settings:normal"/>
		</g>
		<path transform="translate(-346.38,971.33)" d="m1 2e-3a0.998 0.998 0 0 0-1 1v1h64v-0.998a0.998 0.998 0 0 0-1-1h-62z" fill="url(#s-84)"/>
		<path d="m-346.38 972.27v2.5l2-2zm64 2.5-2-2 2-0.5z" fill="#a9a9ff" fill-opacity=".54717"/>
	</g>
	<g>
		<path d="M31.982 11.268c-1.234 0-2.16.098-2.633.26-.473.162-.473.161-.566.51-.47 1.962-.937 3.543-1.627 4.878-.687 1.329-1.644 2.405-2.903 3.143v.004c0 .008-.026.015-.037.023-1.269.723-2.684 1.013-4.18.944-1.51-.07-3.121-.463-5.072-1.043l.03.013c-.35-.093-.346-.096-.723.233-.377.328-.922 1.082-1.54 2.15-.616 1.069-1.002 1.916-1.099 2.406-.097.49-.085.495.17.75 1.462 1.387 2.6 2.587 3.41 3.85.808 1.26 1.259 2.625 1.268 4.086l.002.021v.024c0 1.46-.462 2.834-1.27 4.094-.81 1.265-1.952 2.456-3.417 3.845-.256.256-.25.252-.155.743.097.49.475 1.341 1.092 2.41.617 1.068 1.157 1.822 1.533 2.15.377.329.386.326.735.233 1.93-.573 3.538-.958 5.037-1.028 1.495-.07 2.91.22 4.18.942 0 .003-.001.015.027.017 0 .003.023.005.023.01v.006c1.26.738 2.22 1.814 2.906 3.143.69 1.334 1.157 2.913 1.627 4.877.095.348.094.347.567.51.473.161 1.399.263 2.633.263 1.233 0 2.157-.102 2.63-.264.473-.162.47-.161.563-.51.47-1.962.94-3.541 1.63-4.876.688-1.329 1.644-2.405 2.903-3.143v-.006c0-.005.028-.004.028-.01 0-.003-.001-.015.027-.017 1.27-.723 2.685-1.013 4.18-.944 1.51.07 3.118.46 5.068 1.04l-.03-.01c.35.093.347.096.723-.233.377-.328.926-1.082 1.543-2.15.617-1.069 1-1.92 1.096-2.41.097-.49.09-.495-.162-.75-1.462-1.386-2.6-2.583-3.41-3.846-.808-1.26-1.26-2.625-1.27-4.086v-.045c0-1.46.462-2.832 1.27-4.092.81-1.265 1.948-2.458 3.414-3.847.255-.256.252-.254.158-.745-.097-.49-.475-1.339-1.092-2.408-.617-1.068-1.16-1.822-1.537-2.15-.376-.329-.382-.326-.73-.233-1.93.573-3.539.954-5.037 1.024-1.495.07-2.91-.215-4.18-.938 0-.003 0-.007-.028-.01 0-.002-.027-.008-.027-.013v-.004c-1.259-.738-2.217-1.814-2.904-3.143-.69-1.335-1.155-2.916-1.625-4.879-.095-.348-.094-.347-.567-.51-.473-.161-1.399-.259-2.632-.26zM32 27.067a6.433 6.433 0 0 1 6.433 6.434A6.433 6.433 0 0 1 32 39.934a6.433 6.433 0 0 1-6.434-6.433A6.433 6.433 0 0 1 32 27.067z" fill="#afafc0" style="-inkscape-stroke:none;font-variation-settings:normal"/>
		<g fill="#130044" fill-opacity=".03" opacity=".594">
			<path d="M31.982 25.09c-1.234 0-2.16.098-2.633.26-.473.162-.473.161-.566.51-.47 1.962-.937 3.543-1.627 4.878-.687 1.329-1.643 2.405-2.902 3.143v.004c0 .008-.027.015-.038.023-1.269.723-2.684 1.013-4.18.944-1.51-.07-3.121-.464-5.072-1.043l.03.013c-.349-.093-.346-.096-.723.233-.376.328-.922 1.082-1.539 2.15-.617 1.069-1.003 1.916-1.1 2.406-.097.491-.085.495.17.75 1.462 1.387 2.6 2.587 3.41 3.85.808 1.26 1.259 2.625 1.268 4.086l.002.021v.024c0 1.46-.462 2.834-1.27 4.094-.81 1.265-1.952 2.456-3.417 3.845-.256.256-.25.252-.155.743.097.49.475 1.341 1.092 2.41.617 1.068 1.157 1.822 1.533 2.15.377.329.386.326.735.233 1.93-.573 3.538-.958 5.037-1.028 1.495-.07 2.91.22 4.18.942 0 .003-.001.014.027.017 0 .003.023.004.023.01v.006c1.26.738 2.22 1.814 2.906 3.142.69 1.335 1.157 2.914 1.627 4.877.095.349.094.348.567.51.473.162 1.399.264 2.633.264 1.233 0 2.157-.102 2.63-.264.473-.162.47-.161.563-.51.47-1.962.94-3.542 1.63-4.877.688-1.328 1.644-2.404 2.903-3.142v-.006c0-.005.028-.004.028-.01 0-.003-.001-.015.027-.017 1.27-.723 2.685-1.013 4.18-.944 1.51.07 3.118.46 5.068 1.04l-.03-.01c.35.093.346.096.723-.233s.926-1.082 1.543-2.15 1-1.92 1.096-2.41c.097-.49.09-.495-.162-.75-1.462-1.386-2.6-2.583-3.41-3.846-.808-1.26-1.26-2.625-1.27-4.086v-.045c0-1.46.462-2.832 1.27-4.092.81-1.265 1.948-2.458 3.414-3.847.255-.256.252-.254.158-.744-.097-.491-.475-1.34-1.092-2.409-.617-1.068-1.16-1.822-1.537-2.15s-.382-.326-.73-.233c-1.93.573-3.539.954-5.038 1.024-1.495.07-2.91-.215-4.18-.938 0-.003.001-.007-.027-.01 0-.002-.027-.008-.027-.013v-.004c-1.259-.738-2.217-1.814-2.904-3.143-.69-1.335-1.155-2.916-1.625-4.879-.095-.348-.094-.347-.567-.51-.473-.161-1.399-.259-2.632-.259zM32 40.889a6.433 6.433 0 0 1 6.433 6.434A6.433 6.433 0 0 1 32 53.756a6.433 6.433 0 0 1-6.433-6.434A6.433 6.433 0 0 1 32 40.889" style="-inkscape-stroke:none;font-variation-settings:normal"/>
			<path d="M31.982 21.634c-1.234 0-2.16.098-2.633.26-.473.162-.473.161-.566.51-.47 1.962-.937 3.543-1.627 4.878-.687 1.329-1.643 2.405-2.902 3.143v.004c0 .008-.027.015-.038.023-1.27.723-2.684 1.013-4.18.944-1.51-.07-3.121-.464-5.072-1.043l.03.013c-.349-.093-.346-.096-.723.233s-.922 1.082-1.539 2.15c-.617 1.069-1.003 1.916-1.1 2.406-.097.491-.085.495.17.75 1.462 1.387 2.6 2.587 3.41 3.85.808 1.26 1.259 2.625 1.268 4.086l.002.021v.024c0 1.46-.462 2.834-1.27 4.094-.81 1.266-1.952 2.456-3.417 3.845-.256.256-.25.252-.155.743.098.49.475 1.341 1.092 2.41.617 1.068 1.157 1.822 1.533 2.15.377.329.386.326.735.233 1.93-.573 3.538-.958 5.037-1.028 1.495-.07 2.91.22 4.18.942 0 .003 0 .015.027.017 0 .003.023.005.023.01v.006c1.26.738 2.22 1.814 2.906 3.143.69 1.335 1.157 2.913 1.627 4.876.095.349.094.348.567.51.473.162 1.399.264 2.633.264s2.157-.102 2.63-.264c.473-.162.47-.161.563-.51.47-1.962.94-3.541 1.63-4.876.688-1.33 1.644-2.405 2.903-3.143v-.006c0-.005.027-.004.027-.01 0-.003 0-.015.028-.017 1.27-.723 2.685-1.013 4.18-.944 1.51.07 3.118.46 5.068 1.04l-.03-.01c.35.093.346.096.723-.233s.926-1.082 1.543-2.15c.617-1.069 1-1.92 1.096-2.41.097-.49.09-.495-.162-.75-1.462-1.386-2.6-2.583-3.41-3.846-.808-1.26-1.26-2.625-1.27-4.086v-.045c0-1.46.462-2.832 1.27-4.092.81-1.266 1.948-2.458 3.414-3.847.255-.256.252-.254.158-.745-.097-.49-.475-1.34-1.092-2.408-.617-1.068-1.16-1.822-1.537-2.15-.377-.329-.382-.326-.73-.233-1.931.573-3.539.954-5.038 1.024-1.495.07-2.91-.215-4.18-.938 0-.003.001-.007-.027-.01 0-.003-.027-.008-.027-.013v-.004c-1.259-.738-2.217-1.814-2.904-3.143-.69-1.335-1.155-2.916-1.625-4.879-.095-.348-.094-.347-.567-.51-.473-.161-1.399-.259-2.632-.259h-.02M32 37.433c.426 0 .836.17 1.137.47 1.28 0 2.507.509 3.412 1.414.302.302.471.71.471 1.138a4.824 4.824 0 0 1 1.413 3.411c0 .427-.17.836-.47 1.138 0 1.28-.51 2.507-1.414 3.412a1.61 1.61 0 0 1-1.138.471A4.825 4.825 0 0 1 32 50.3a1.61 1.61 0 0 1-1.138-.471 4.825 4.825 0 0 1-3.412-1.413 1.61 1.61 0 0 1-.471-1.138 4.824 4.824 0 0 1-1.413-3.412c0-.426.17-.836.471-1.137 0-1.28.508-2.507 1.413-3.412a1.61 1.61 0 0 1 1.138-.471A4.825 4.825 0 0 1 32 37.433" style="-inkscape-stroke:none;font-variation-settings:normal"/>
			<path d="M31.982 20.203c-1.234 0-2.16.098-2.633.26-.473.162-.473.161-.566.51-.47 1.962-.937 3.543-1.627 4.878-.687 1.329-1.643 2.405-2.902 3.143v.004c-.001.008-.027.015-.038.023-1.27.723-2.684 1.013-4.18.944-1.51-.07-3.121-.464-5.072-1.043l.03.013c-.349-.093-.346-.096-.723.233s-.922 1.082-1.539 2.15c-.617 1.069-1.003 1.916-1.1 2.406-.097.491-.085.495.17.75 1.462 1.387 2.6 2.587 3.41 3.85.808 1.26 1.259 2.625 1.268 4.086l.002.022v.023c0 1.46-.462 2.834-1.27 4.094-.811 1.266-1.952 2.456-3.417 3.845-.256.256-.25.252-.155.743.098.49.475 1.341 1.092 2.41.617 1.068 1.157 1.822 1.533 2.15.377.329.386.326.735.233 1.93-.573 3.538-.958 5.037-1.028 1.495-.07 2.91.22 4.18.942 0 .003 0 .015.027.017 0 .003.023.005.023.01v.006c1.26.738 2.22 1.814 2.906 3.143.69 1.335 1.157 2.914 1.627 4.876.095.349.094.348.567.51.473.162 1.399.264 2.633.264s2.157-.102 2.63-.264c.473-.162.47-.161.563-.51.47-1.962.94-3.541 1.63-4.876h.001c.687-1.33 1.643-2.405 2.902-3.143v-.006c0-.005.028-.004.028-.01 0-.003 0-.015.027-.017 1.27-.723 2.685-1.013 4.18-.944 1.51.07 3.118.46 5.068 1.04l-.03-.01c.35.093.346.096.723-.233s.926-1.082 1.543-2.15c.617-1.069 1-1.92 1.096-2.41.097-.49.09-.495-.162-.75-1.462-1.387-2.6-2.583-3.41-3.846-.808-1.26-1.26-2.626-1.27-4.086v-.045c0-1.46.462-2.832 1.27-4.092.81-1.266 1.948-2.458 3.414-3.847.255-.256.252-.254.158-.745-.098-.49-.475-1.34-1.092-2.408-.617-1.068-1.16-1.822-1.537-2.15-.377-.329-.382-.326-.73-.233-1.931.573-3.539.954-5.038 1.024-1.495.07-2.91-.215-4.18-.938 0-.003 0-.007-.027-.01 0-.003-.027-.008-.027-.013v-.004c-1.259-.738-2.217-1.814-2.904-3.143-.69-1.335-1.155-2.916-1.625-4.878-.095-.35-.094-.348-.567-.51-.473-.162-1.399-.26-2.632-.26h-.02M32 36.002c.603 0 1.182.24 1.608.666 1.103 0 2.161.438 2.941 1.218.427.427.666 1.005.666 1.609a4.159 4.159 0 0 1 1.218 2.94c0 .604-.24 1.183-.666 1.61 0 1.102-.438 2.16-1.218 2.94a2.275 2.275 0 0 1-1.609.666A4.159 4.159 0 0 1 32 48.87c-.604 0-1.183-.24-1.61-.666a4.159 4.159 0 0 1-2.94-1.218 2.275 2.275 0 0 1-.666-1.609 4.159 4.159 0 0 1-1.218-2.94c0-.604.24-1.183.666-1.61 0-1.102.438-2.16 1.218-2.94a2.276 2.276 0 0 1 1.609-.667 4.159 4.159 0 0 1 2.94-1.217" style="-inkscape-stroke:none;font-variation-settings:normal"/>
			<path d="M31.982 19.104c-1.234 0-2.16.098-2.633.26-.473.162-.473.161-.566.51-.47 1.962-.937 3.543-1.627 4.878-.687 1.33-1.643 2.405-2.902 3.143v.004c-.001.008-.027.015-.038.023-1.27.723-2.684 1.013-4.18.944-1.51-.07-3.121-.464-5.072-1.043l.03.013c-.349-.093-.346-.096-.723.233s-.922 1.082-1.539 2.15c-.617 1.069-1.003 1.916-1.1 2.406-.097.491-.085.495.17.75 1.462 1.387 2.6 2.587 3.41 3.85.808 1.26 1.259 2.625 1.268 4.086l.002.021v.024c0 1.46-.462 2.834-1.27 4.094-.811 1.265-1.952 2.456-3.417 3.845-.256.256-.25.252-.155.743.098.49.475 1.341 1.092 2.41.617 1.068 1.157 1.821 1.533 2.15.377.329.386.326.735.233 1.93-.573 3.538-.958 5.037-1.028 1.495-.07 2.91.22 4.18.942 0 .003 0 .015.027.017 0 .003.023.005.023.01v.006c1.26.738 2.22 1.814 2.907 3.142.69 1.336 1.156 2.914 1.626 4.877.095.349.094.348.567.51.473.162 1.4.264 2.633.264 1.234 0 2.157-.102 2.63-.264.473-.162.47-.161.563-.51.47-1.963.94-3.542 1.63-4.877h.001c.687-1.328 1.643-2.404 2.902-3.142v-.006c.001-.006.028-.004.028-.01 0-.003 0-.015.027-.017 1.27-.723 2.685-1.013 4.18-.944 1.51.07 3.118.46 5.068 1.04l-.03-.01c.35.093.346.095.723-.233.377-.329.926-1.082 1.543-2.15.617-1.069 1-1.92 1.096-2.41.097-.49.09-.495-.162-.75-1.462-1.387-2.6-2.583-3.41-3.846-.808-1.26-1.26-2.626-1.27-4.086v-.045c0-1.46.462-2.832 1.27-4.092.81-1.266 1.948-2.458 3.414-3.847.255-.256.252-.254.158-.745-.097-.49-.475-1.34-1.092-2.408-.617-1.069-1.16-1.822-1.537-2.15-.376-.329-.382-.326-.73-.233-1.931.573-3.539.954-5.038 1.024-1.495.07-2.91-.215-4.18-.938 0-.003 0-.007-.027-.01 0-.003-.027-.008-.027-.013v-.004c-1.259-.738-2.217-1.814-2.904-3.143-.69-1.335-1.155-2.916-1.625-4.879-.095-.348-.094-.347-.567-.51-.473-.161-1.399-.259-2.632-.259h-.02M32 34.902c.739 0 1.447.294 1.97.817.967 0 1.895.384 2.58 1.068.522.522.815 1.231.815 1.97a3.648 3.648 0 0 1 1.068 2.58c0 .738-.293 1.447-.816 1.97 0 .967-.384 1.895-1.068 2.579a2.787 2.787 0 0 1-1.97.816 3.647 3.647 0 0 1-2.58 1.068 2.786 2.786 0 0 1-1.97-.816 3.648 3.648 0 0 1-2.579-1.068 2.787 2.787 0 0 1-.816-1.97 3.648 3.648 0 0 1-1.068-2.58c0-.739.293-1.447.816-1.97 0-.967.384-1.895 1.068-2.579a2.786 2.786 0 0 1 1.97-.816A3.647 3.647 0 0 1 32 34.903" style="-inkscape-stroke:none;font-variation-settings:normal"/>
			<path d="M31.982 18.179c-1.234 0-2.16.098-2.633.26-.473.162-.473.161-.566.51-.47 1.962-.937 3.543-1.627 4.878-.687 1.33-1.643 2.405-2.902 3.143v.004c-.001.008-.027.015-.038.023-1.27.723-2.684 1.013-4.18.944-1.51-.07-3.121-.464-5.072-1.043l.03.013c-.349-.093-.346-.096-.723.233s-.922 1.082-1.539 2.15c-.617 1.069-1.003 1.916-1.1 2.406-.097.491-.085.495.17.75 1.462 1.387 2.6 2.587 3.41 3.85.808 1.26 1.259 2.626 1.268 4.086l.002.021v.024c0 1.46-.462 2.834-1.27 4.094-.811 1.265-1.952 2.456-3.417 3.845-.256.256-.25.252-.155.743.098.49.475 1.341 1.092 2.41.617 1.068 1.157 1.821 1.533 2.15.377.329.386.326.735.233 1.93-.573 3.538-.958 5.037-1.028 1.495-.07 2.91.22 4.18.942 0 .003 0 .015.027.017.001.003.023.005.023.01v.006c1.26.738 2.22 1.814 2.907 3.143.69 1.335 1.156 2.913 1.626 4.876.095.349.094.348.567.51.473.162 1.4.264 2.633.264 1.234 0 2.157-.102 2.63-.264.473-.162.47-.161.563-.51.47-1.963.94-3.542 1.63-4.877h.001c.687-1.328 1.643-2.404 2.902-3.142v-.006c.001-.006.028-.004.028-.01 0-.004 0-.015.027-.017 1.27-.723 2.685-1.013 4.18-.944 1.51.07 3.118.46 5.068 1.04l-.03-.01c.35.093.347.095.723-.233.377-.329.926-1.082 1.543-2.15.617-1.069 1-1.92 1.096-2.41.097-.49.09-.495-.162-.75-1.462-1.387-2.6-2.583-3.41-3.846-.808-1.26-1.26-2.626-1.27-4.086v-.045c0-1.46.462-2.832 1.27-4.092.81-1.266 1.948-2.458 3.414-3.847.255-.256.252-.254.158-.745-.097-.49-.475-1.34-1.092-2.408-.617-1.069-1.16-1.822-1.537-2.15-.376-.329-.382-.326-.73-.233-1.931.573-3.539.954-5.038 1.024-1.495.07-2.91-.215-4.18-.938 0-.003 0-.007-.027-.01-.001-.003-.027-.008-.027-.013v-.004c-1.259-.738-2.217-1.814-2.904-3.143-.69-1.335-1.155-2.916-1.625-4.879-.095-.348-.094-.347-.567-.51-.473-.161-1.399-.259-2.632-.259h-.02M32 33.978c.853 0 1.671.339 2.275.942a3.216 3.216 0 0 1 3.216 3.217 3.217 3.217 0 0 1 0 4.55 3.216 3.216 0 0 1-3.217 3.216 3.217 3.217 0 0 1-4.55 0 3.217 3.217 0 0 1-3.216-3.217 3.216 3.216 0 0 1 0-4.55 3.216 3.216 0 0 1 3.217-3.216A3.216 3.216 0 0 1 32 33.978" style="-inkscape-stroke:none;font-variation-settings:normal"/>
			<path d="M31.982 17.363c-1.234 0-2.16.098-2.633.26-.473.162-.473.161-.566.51-.47 1.962-.937 3.543-1.627 4.878-.687 1.33-1.644 2.405-2.902 3.143v.004c-.001.008-.027.015-.038.023-1.27.723-2.684 1.013-4.18.944-1.51-.07-3.121-.464-5.072-1.043l.03.013c-.349-.093-.346-.096-.723.233s-.922 1.082-1.539 2.15c-.617 1.069-1.003 1.916-1.1 2.406-.097.491-.085.495.17.75 1.462 1.387 2.6 2.587 3.41 3.85.808 1.26 1.259 2.625 1.268 4.086l.002.021v.024c0 1.46-.462 2.834-1.27 4.094-.811 1.265-1.952 2.456-3.417 3.845-.256.256-.25.252-.155.743.098.49.475 1.341 1.092 2.41.617 1.068 1.157 1.821 1.533 2.15.377.329.386.326.735.232 1.93-.572 3.538-.957 5.037-1.027 1.495-.07 2.91.22 4.18.942 0 .003 0 .015.027.017.001.003.023.005.023.01v.006c1.26.738 2.22 1.814 2.906 3.142.69 1.336 1.157 2.915 1.627 4.877.095.349.094.348.567.51.473.162 1.4.264 2.633.264 1.234 0 2.157-.102 2.63-.264.473-.162.47-.161.563-.51.47-1.963.941-3.542 1.63-4.877h.001c.687-1.328 1.643-2.404 2.902-3.142v-.006c.001-.005.028-.004.028-.01 0-.004 0-.015.027-.017 1.27-.723 2.685-1.013 4.18-.944 1.51.07 3.118.46 5.068 1.04l-.03-.01c.35.093.347.096.723-.233.377-.329.926-1.082 1.543-2.15.617-1.069 1-1.92 1.096-2.41.097-.491.09-.495-.162-.75-1.462-1.387-2.6-2.583-3.41-3.846-.808-1.26-1.26-2.626-1.27-4.086v-.045c0-1.46.462-2.832 1.27-4.092.811-1.266 1.948-2.458 3.414-3.848.255-.255.252-.253.158-.744-.097-.49-.475-1.34-1.092-2.408-.617-1.069-1.16-1.822-1.537-2.15-.376-.329-.382-.326-.73-.233-1.931.573-3.539.954-5.038 1.024-1.495.07-2.91-.215-4.18-.938 0-.003 0-.007-.027-.01-.001-.003-.027-.008-.027-.013v-.004c-1.259-.738-2.217-1.814-2.904-3.143-.69-1.335-1.155-2.916-1.625-4.878-.095-.35-.094-.348-.567-.51-.473-.162-1.399-.26-2.632-.26h-.02M32 33.162c.954 0 1.868.379 2.543 1.053.752 0 1.474.299 2.006.83a3.597 3.597 0 0 1 1.053 2.544c.532.532.831 1.254.831 2.006 0 .954-.379 1.87-1.053 2.544 0 .752-.299 1.474-.83 2.006a3.597 3.597 0 0 1-2.544 1.053A2.836 2.836 0 0 1 32 46.03a3.597 3.597 0 0 1-2.544-1.053 2.837 2.837 0 0 1-2.006-.831 3.597 3.597 0 0 1-1.053-2.544 2.836 2.836 0 0 1-.831-2.006c0-.954.379-1.868 1.053-2.543 0-.752.3-1.474.831-2.006a3.597 3.597 0 0 1 2.544-1.053A2.836 2.836 0 0 1 32 33.162" style="-inkscape-stroke:none;font-variation-settings:normal"/>
			<path d="M31.982 16.625c-1.234 0-2.16.098-2.633.26-.473.162-.473.161-.566.51-.47 1.962-.937 3.543-1.627 4.878-.687 1.33-1.644 2.405-2.902 3.143v.004c-.001.008-.027.015-.038.023-1.27.723-2.684 1.013-4.18.944-1.51-.07-3.121-.464-5.072-1.043.003 0 .03.013.03.013-.349-.093-.346-.096-.723.233s-.922 1.082-1.539 2.15c-.617 1.069-1.003 1.916-1.1 2.406-.097.491-.085.495.17.75 1.462 1.387 2.6 2.587 3.41 3.85.808 1.26 1.259 2.626 1.268 4.086l.002.021v.024c0 1.46-.462 2.834-1.27 4.094-.811 1.266-1.952 2.456-3.417 3.845-.256.256-.25.252-.155.743.098.49.475 1.341 1.092 2.41.617 1.068 1.157 1.821 1.533 2.15.377.329.386.326.735.233 1.93-.573 3.538-.958 5.037-1.028 1.495-.07 2.91.22 4.18.942 0 .004 0 .015.027.017.001.003.023.005.023.01v.006c1.26.738 2.22 1.814 2.906 3.143.69 1.335 1.157 2.914 1.627 4.876.095.349.094.348.567.51.473.162 1.4.264 2.633.264 1.234 0 2.157-.102 2.63-.264.473-.162.47-.161.563-.51.47-1.963.941-3.542 1.63-4.876h.001c.687-1.33 1.643-2.405 2.902-3.143v-.006c.001-.005.028-.004.028-.01 0-.004 0-.015.027-.017 1.27-.723 2.685-1.013 4.18-.944 1.51.07 3.118.46 5.068 1.04l-.03-.01c.35.093.347.096.723-.233.377-.329.927-1.082 1.543-2.15.617-1.069 1-1.92 1.096-2.41.097-.49.09-.495-.162-.75-1.462-1.387-2.6-2.583-3.41-3.846-.808-1.26-1.26-2.626-1.27-4.086v-.045c0-1.46.462-2.832 1.27-4.092.811-1.266 1.948-2.458 3.414-3.847.255-.256.252-.254.158-.745-.098-.49-.475-1.34-1.092-2.408-.617-1.069-1.16-1.822-1.537-2.15-.376-.329-.382-.326-.73-.233-1.931.573-3.539.954-5.038 1.024-1.495.07-2.91-.215-4.18-.938 0-.003 0-.007-.027-.01-.001-.003-.027-.008-.027-.013v-.004c-1.259-.738-2.217-1.814-2.904-3.143-.69-1.335-1.155-2.916-1.625-4.878-.095-.35-.094-.348-.567-.51-.473-.162-1.399-.26-2.632-.26h-.02m.017 15.799a3.94 3.94 0 0 1 2.787 1.154c.661 0 1.295.262 1.763.73a3.94 3.94 0 0 1 1.154 2.786c.468.468.73 1.102.73 1.763a3.94 3.94 0 0 1-1.154 2.787c0 .661-.262 1.295-.73 1.763a3.94 3.94 0 0 1-2.786 1.154 2.493 2.493 0 0 1-1.763.73 3.94 3.94 0 0 1-2.787-1.154 2.494 2.494 0 0 1-1.763-.73 3.94 3.94 0 0 1-1.154-2.786 2.493 2.493 0 0 1-.73-1.764 3.94 3.94 0 0 1 1.154-2.786c0-.661.263-1.295.73-1.763a3.94 3.94 0 0 1 2.786-1.154 2.493 2.493 0 0 1 1.764-.73" style="-inkscape-stroke:none;font-variation-settings:normal"/>
			<path d="M31.982 15.947c-1.234 0-2.16.098-2.633.26-.473.162-.473.161-.566.51-.47 1.962-.937 3.543-1.627 4.878-.687 1.33-1.644 2.405-2.902 3.143v.004c-.001.008-.027.015-.038.023-1.27.723-2.684 1.013-4.18.944-1.51-.07-3.121-.464-5.072-1.043.003 0 .03.013.03.013-.349-.093-.346-.096-.723.233s-.922 1.082-1.539 2.15c-.617 1.07-1.003 1.916-1.1 2.406v.001c-.097.49-.085.494.17.75 1.462 1.386 2.6 2.586 3.41 3.85.808 1.26 1.259 2.625 1.268 4.085l.002.021v.024c0 1.46-.462 2.834-1.27 4.094-.811 1.266-1.952 2.456-3.417 3.845-.256.256-.25.252-.155.743.098.49.475 1.342 1.092 2.41.617 1.069 1.157 1.822 1.533 2.15.377.329.386.326.735.233 1.93-.573 3.538-.958 5.037-1.028 1.495-.07 2.91.22 4.18.942 0 .004 0 .015.027.017.002.003.023.005.023.01v.006c1.26.738 2.22 1.814 2.906 3.142.69 1.336 1.157 2.914 1.627 4.877.095.349.094.348.567.51.473.162 1.4.264 2.633.264 1.234 0 2.157-.102 2.63-.264h.001c.472-.162.469-.161.562-.51.47-1.963.941-3.542 1.63-4.877h.001c.687-1.328 1.643-2.404 2.902-3.142v-.006c.001-.006.028-.004.028-.01 0-.004 0-.015.027-.017 1.27-.723 2.685-1.013 4.18-.944 1.51.07 3.118.46 5.068 1.04-.002-.002-.03-.01-.03-.01.35.093.347.095.723-.233.377-.329.927-1.082 1.543-2.15.617-1.069 1-1.92 1.096-2.41.097-.49.09-.495-.162-.75-1.462-1.387-2.6-2.583-3.41-3.846-.808-1.26-1.26-2.626-1.27-4.086v-.045c0-1.46.462-2.832 1.27-4.092.811-1.266 1.948-2.458 3.414-3.847.255-.256.252-.254.158-.745-.098-.49-.475-1.34-1.092-2.408-.617-1.069-1.16-1.822-1.537-2.15-.376-.329-.382-.326-.73-.233-1.931.573-3.539.954-5.038 1.024-1.495.07-2.91-.215-4.18-.938 0-.003 0-.007-.027-.01-.002-.003-.027-.008-.027-.013v-.004c-1.259-.738-2.217-1.814-2.904-3.143-.69-1.335-1.155-2.916-1.625-4.878-.095-.35-.094-.348-.567-.51-.473-.162-1.399-.26-2.632-.26h-.02M32 31.746c1.128 0 2.21.448 3.009 1.246.578 0 1.132.23 1.54.638a4.255 4.255 0 0 1 1.246 3.01c.409.408.638.962.638 1.54a4.256 4.256 0 0 1-1.246 3.009c0 .578-.23 1.132-.638 1.54a4.256 4.256 0 0 1-3.01 1.246 2.178 2.178 0 0 1-1.54.638 4.255 4.255 0 0 1-3.009-1.246c-.577 0-1.131-.23-1.54-.638a4.255 4.255 0 0 1-1.246-3.01 2.177 2.177 0 0 1-.638-1.54c0-1.128.448-2.21 1.246-3.009 0-.577.23-1.131.638-1.54a4.255 4.255 0 0 1 3.01-1.246 2.178 2.178 0 0 1 1.54-.638" style="-inkscape-stroke:none;font-variation-settings:normal"/>
			<path d="M31.982 15.316c-1.234 0-2.16.098-2.633.26-.473.162-.473.161-.566.51-.47 1.962-.937 3.543-1.627 4.878-.687 1.33-1.644 2.405-2.902 3.143v.004c-.002.008-.027.015-.038.023-1.27.723-2.684 1.013-4.18.944-1.51-.07-3.121-.464-5.072-1.043.003 0 .03.013.03.013-.349-.093-.346-.096-.723.233s-.922 1.082-1.539 2.15c-.617 1.069-1.003 1.916-1.1 2.406v.001c-.097.49-.085.494.17.75 1.462 1.386 2.6 2.586 3.41 3.85.808 1.26 1.259 2.625 1.268 4.085l.002.021v.024c0 1.46-.462 2.834-1.27 4.094-.811 1.266-1.952 2.456-3.417 3.845-.256.256-.25.252-.155.743.098.49.475 1.342 1.092 2.41.617 1.069 1.157 1.822 1.533 2.15.377.329.386.326.735.232 1.93-.572 3.538-.957 5.037-1.027 1.495-.07 2.91.22 4.18.942 0 .004 0 .015.027.017.002.003.023.005.023.01v.006c1.26.738 2.22 1.814 2.906 3.142.69 1.336 1.157 2.915 1.627 4.877.095.349.094.348.567.51.473.162 1.4.264 2.633.264 1.234 0 2.157-.102 2.63-.264h.001c.472-.162.469-.161.562-.51.47-1.963.941-3.542 1.63-4.877h.001c.687-1.328 1.643-2.404 2.902-3.142v-.006c.002-.006.028-.005.028-.01 0-.004 0-.015.027-.017 1.27-.723 2.685-1.013 4.18-.944 1.51.07 3.118.46 5.068 1.04l-.03-.01H49c.348.093.346.095.722-.233.377-.33.927-1.082 1.543-2.15.617-1.07 1-1.92 1.096-2.41v-.001c.097-.49.09-.494-.162-.75-1.462-1.386-2.6-2.582-3.41-3.845-.808-1.26-1.26-2.626-1.27-4.086v-.045c0-1.46.462-2.832 1.27-4.092.811-1.266 1.948-2.458 3.414-3.848.255-.255.252-.253.158-.744-.098-.49-.475-1.34-1.092-2.408-.617-1.069-1.16-1.822-1.537-2.15-.376-.329-.382-.326-.73-.233-1.931.573-3.539.954-5.038 1.024-1.495.07-2.91-.215-4.18-.938 0-.003 0-.007-.027-.01-.002-.003-.027-.008-.027-.013v-.004c-1.259-.738-2.217-1.814-2.904-3.143-.69-1.335-1.155-2.916-1.625-4.879-.095-.348-.094-.347-.567-.51-.473-.161-1.399-.26-2.632-.26H32l-.019.001M32 31.115c1.206 0 2.364.48 3.217 1.333.5 0 .979.198 1.332.551a4.55 4.55 0 0 1 1.333 3.217c.353.354.551.833.551 1.333a4.55 4.55 0 0 1-1.332 3.217c0 .5-.199.979-.552 1.332a4.55 4.55 0 0 1-3.217 1.333 1.885 1.885 0 0 1-1.332.552 4.55 4.55 0 0 1-3.217-1.333c-.5 0-.98-.198-1.333-.552a4.549 4.549 0 0 1-1.332-3.217 1.884 1.884 0 0 1-.552-1.332 4.55 4.55 0 0 1 1.332-3.217c0-.5.199-.98.552-1.333a4.55 4.55 0 0 1 3.217-1.332A1.884 1.884 0 0 1 32 31.115" style="-inkscape-stroke:none;font-variation-settings:normal"/>
			<path d="M31.982 14.723c-1.234 0-2.16.098-2.633.26-.473.162-.473.161-.566.51-.47 1.963-.937 3.544-1.627 4.878-.687 1.33-1.644 2.405-2.902 3.143v.004c-.002.008-.027.015-.038.023-1.27.723-2.684 1.013-4.18.944-1.51-.07-3.121-.464-5.072-1.043l.03.013c-.349-.093-.346-.096-.723.233s-.922 1.082-1.539 2.15c-.617 1.07-1.003 1.916-1.1 2.406v.001c-.097.49-.085.494.17.75 1.462 1.386 2.6 2.586 3.41 3.85.808 1.26 1.259 2.625 1.268 4.085l.002.021v.024c0 1.46-.462 2.834-1.27 4.094-.811 1.266-1.952 2.456-3.417 3.845-.256.256-.25.252-.155.743.098.49.475 1.342 1.092 2.41.617 1.069 1.157 1.822 1.533 2.15.377.329.386.326.735.232 1.93-.572 3.538-.957 5.037-1.027 1.495-.07 2.91.22 4.18.942 0 .004 0 .015.027.017.002.003.023.005.023.01v.006c1.26.738 2.22 1.814 2.906 3.142.69 1.336 1.157 2.914 1.627 4.877.095.349.094.348.567.51.473.162 1.4.264 2.633.264 1.234 0 2.157-.102 2.63-.264h.001c.472-.162.469-.161.562-.51.47-1.963.941-3.542 1.63-4.877h.001c.687-1.328 1.643-2.404 2.902-3.142v-.006c.002-.006.028-.004.028-.01 0-.004 0-.015.027-.017 1.27-.723 2.685-1.013 4.18-.944 1.51.07 3.118.46 5.068 1.04l-.03-.01H49c.348.093.346.095.722-.233.378-.33.927-1.082 1.543-2.15.617-1.07 1-1.92 1.096-2.41v-.001c.097-.49.09-.494-.162-.75-1.462-1.386-2.6-2.582-3.41-3.845-.808-1.26-1.26-2.626-1.27-4.086v-.045c0-1.46.462-2.832 1.27-4.092.811-1.266 1.948-2.458 3.414-3.847.255-.256.252-.254.158-.745-.098-.49-.475-1.34-1.092-2.408-.617-1.069-1.16-1.822-1.537-2.15-.377-.329-.382-.326-.73-.233H49c-1.93.573-3.538.954-5.037 1.024-1.495.07-2.91-.215-4.18-.938 0-.003 0-.007-.027-.01-.002-.003-.027-.008-.027-.013v-.004c-1.259-.738-2.217-1.814-2.904-3.143-.69-1.335-1.155-2.916-1.625-4.879-.095-.348-.094-.347-.567-.51-.473-.161-1.4-.259-2.632-.259h-.02M32 30.522c1.28 0 2.507.508 3.412 1.413.426 0 .835.17 1.137.47a4.825 4.825 0 0 1 1.413 3.413c.302.302.471.71.471 1.137 0 1.28-.508 2.508-1.413 3.413 0 .426-.17.835-.47 1.137a4.825 4.825 0 0 1-3.413 1.413c-.302.302-.71.471-1.137.47a4.825 4.825 0 0 1-3.413-1.412c-.426 0-.835-.17-1.137-.471a4.825 4.825 0 0 1-1.413-3.412 1.609 1.609 0 0 1-.471-1.138c0-1.28.508-2.507 1.413-3.412 0-.427.17-.836.471-1.137a4.825 4.825 0 0 1 3.412-1.413c.302-.302.711-.471 1.138-.471" style="-inkscape-stroke:none;font-variation-settings:normal"/>
			<path d="M31.982 14.162c-1.234 0-2.16.098-2.633.26-.473.162-.473.161-.566.51-.47 1.963-.937 3.544-1.627 4.879-.687 1.328-1.644 2.404-2.902 3.142v.004c-.002.009-.027.015-.038.023-1.27.723-2.684 1.013-4.18.944-1.51-.07-3.121-.464-5.072-1.043l.03.013c-.349-.093-.346-.096-.723.233s-.922 1.082-1.539 2.15c-.617 1.07-1.003 1.916-1.1 2.406v.001c-.097.49-.085.494.17.75 1.462 1.386 2.6 2.586 3.41 3.85.808 1.26 1.259 2.625 1.268 4.085l.002.021v.024c0 1.461-.462 2.834-1.27 4.094-.811 1.266-1.952 2.456-3.417 3.845-.256.256-.25.252-.155.743.098.49.475 1.342 1.092 2.41.617 1.069 1.157 1.822 1.533 2.15.377.329.386.326.735.233 1.93-.573 3.538-.958 5.037-1.028 1.495-.07 2.91.22 4.18.942 0 .004 0 .015.027.017.002.003.023.005.023.01v.006c1.26.738 2.22 1.814 2.906 3.142.69 1.336 1.157 2.915 1.627 4.877.095.349.094.348.567.51.473.162 1.4.264 2.633.264 1.234 0 2.157-.102 2.63-.264h.001c.472-.162.469-.161.562-.51.47-1.963.941-3.542 1.63-4.877h.001c.687-1.328 1.643-2.404 2.902-3.142v-.006c.002-.005.028-.004.028-.01 0-.004 0-.015.027-.017 1.27-.723 2.685-1.013 4.18-.944 1.51.07 3.118.46 5.068 1.04l-.03-.01H49c.348.093.346.095.722-.233.377-.329.926-1.082 1.543-2.15.617-1.07 1-1.92 1.096-2.41.097-.49.09-.495-.162-.75-1.462-1.387-2.6-2.583-3.41-3.846-.808-1.26-1.26-2.626-1.27-4.086v-.045c0-1.46.462-2.832 1.27-4.092.811-1.266 1.948-2.458 3.414-3.847.255-.256.252-.254.158-.745-.098-.49-.475-1.34-1.092-2.408-.617-1.069-1.16-1.822-1.537-2.15-.377-.329-.382-.326-.73-.233H49c-1.93.573-3.538.954-5.037 1.024-1.495.07-2.91-.215-4.18-.938 0-.003 0-.007-.027-.01-.002-.003-.027-.008-.027-.013v-.004c-1.259-.738-2.218-1.814-2.904-3.143-.69-1.335-1.155-2.916-1.625-4.879-.095-.348-.094-.347-.567-.51-.473-.161-1.4-.259-2.632-.259h-.02M32 29.961c1.349 0 2.642.535 3.596 1.49.358 0 .7.141.953.394a5.086 5.086 0 0 1 1.49 3.597c.252.252.394.595.394.952a5.086 5.086 0 0 1-1.49 3.597c0 .357-.141.7-.394.953a5.086 5.086 0 0 1-3.597 1.49 1.348 1.348 0 0 1-.952.394 5.086 5.086 0 0 1-3.597-1.49c-.357 0-.7-.142-.953-.394a5.086 5.086 0 0 1-1.49-3.597 1.348 1.348 0 0 1-.394-.953c0-1.349.536-2.643 1.49-3.596 0-.358.141-.7.394-.953a5.086 5.086 0 0 1 3.597-1.49c.253-.252.595-.394.953-.394" style="-inkscape-stroke:none;font-variation-settings:normal"/>
			<path d="M31.982 13.629c-1.234 0-2.16.098-2.633.26-.473.162-.473.161-.566.51-.47 1.963-.937 3.543-1.627 4.878-.687 1.33-1.644 2.405-2.902 3.143v.004c-.002.009-.027.015-.038.023-1.27.723-2.684 1.013-4.18.944-1.51-.07-3.121-.464-5.072-1.043l.03.013c-.349-.093-.346-.096-.723.233s-.922 1.082-1.539 2.15c-.617 1.07-1.003 1.916-1.1 2.406v.001c-.097.49-.085.494.17.75 1.462 1.386 2.6 2.586 3.41 3.85.808 1.26 1.259 2.625 1.268 4.085l.002.021v.024c0 1.46-.462 2.834-1.27 4.094-.811 1.266-1.952 2.456-3.417 3.845-.256.256-.25.252-.155.743.098.49.475 1.342 1.092 2.41.617 1.069 1.157 1.822 1.533 2.15.377.329.386.326.735.233 1.93-.573 3.538-.958 5.037-1.028 1.495-.07 2.91.22 4.18.942 0 .004 0 .015.027.017.002.003.023.005.023.01v.006c1.26.738 2.22 1.814 2.906 3.142.69 1.336 1.157 2.915 1.627 4.877.095.349.094.348.567.51.473.162 1.4.264 2.633.264 1.234 0 2.157-.102 2.63-.264h.001c.472-.162.469-.161.562-.51.47-1.963.941-3.542 1.63-4.877h.001c.687-1.328 1.643-2.404 2.902-3.142v-.006c.002-.005.028-.004.028-.01 0-.004 0-.015.027-.017 1.27-.723 2.685-1.013 4.18-.944 1.51.07 3.118.46 5.068 1.04l-.03-.01H49c.348.093.346.095.722-.233.377-.33.926-1.082 1.543-2.15.617-1.07 1-1.92 1.096-2.41v-.001c.097-.49.09-.494-.162-.75-1.462-1.386-2.6-2.582-3.41-3.845-.808-1.26-1.26-2.626-1.27-4.086v-.045c0-1.46.462-2.832 1.27-4.092.811-1.266 1.948-2.458 3.414-3.847.255-.256.252-.254.158-.745-.098-.49-.475-1.34-1.092-2.408-.617-1.069-1.16-1.822-1.537-2.15-.377-.329-.382-.326-.73-.233H49c-1.93.573-3.538.954-5.037 1.024-1.495.07-2.91-.215-4.18-.938 0-.003 0-.007-.027-.01-.002-.003-.027-.008-.027-.013v-.004c-1.259-.738-2.218-1.814-2.904-3.143-.69-1.335-1.155-2.916-1.625-4.878-.095-.35-.094-.348-.567-.51-.473-.162-1.4-.26-2.632-.26h-.02m.018 15.8c1.414-.001 2.771.56 3.772 1.561.291 0 .571.116.777.322 1 1 1.562 2.358 1.562 3.773a1.1 1.1 0 0 1 .322.777 5.334 5.334 0 0 1-1.562 3.772 1.1 1.1 0 0 1-.322.777c-1 1-2.357 1.563-3.772 1.563a1.1 1.1 0 0 1-.777.321 5.334 5.334 0 0 1-3.773-1.562 1.1 1.1 0 0 1-.777-.322c-1-1-1.562-2.357-1.562-3.772a1.1 1.1 0 0 1-.322-.777c0-1.415.562-2.772 1.562-3.773a1.1 1.1 0 0 1 .322-.777c1-1 2.358-1.562 3.772-1.562a1.1 1.1 0 0 1 .778-.322" style="-inkscape-stroke:none;font-variation-settings:normal"/>
			<path d="M31.982 13.119c-1.234 0-2.16.098-2.633.26-.473.162-.473.161-.566.51-.47 1.963-.937 3.543-1.627 4.878-.687 1.33-1.644 2.405-2.902 3.143v.004c-.002.009-.027.015-.038.023-1.27.723-2.684 1.013-4.18.944-1.51-.07-3.121-.464-5.072-1.043l.03.013c-.349-.093-.346-.096-.723.233s-.922 1.082-1.539 2.15c-.617 1.07-1.003 1.916-1.1 2.406v.001c-.097.49-.085.494.17.75 1.462 1.386 2.6 2.586 3.41 3.85.808 1.26 1.259 2.625 1.268 4.085l.002.021v.024c0 1.46-.462 2.834-1.27 4.094-.811 1.266-1.952 2.456-3.417 3.845-.256.256-.25.252-.155.743.098.49.475 1.342 1.092 2.41.617 1.069 1.157 1.822 1.533 2.15.377.329.386.326.735.233 1.93-.573 3.538-.958 5.037-1.028 1.495-.07 2.91.22 4.18.942 0 .004 0 .015.027.017.002.003.023.005.023.01v.006c1.26.738 2.22 1.814 2.906 3.143.69 1.335 1.157 2.914 1.627 4.876.095.349.094.348.567.51.474.162 1.4.264 2.633.264 1.234 0 2.157-.102 2.63-.264h.001c.472-.162.469-.161.562-.51.47-1.963.941-3.542 1.63-4.876l.001-.001c.687-1.328 1.643-2.404 2.902-3.142v-.006c.002-.005.027-.004.027-.01 0-.004.001-.015.028-.017 1.27-.723 2.685-1.013 4.18-.944 1.51.07 3.118.46 5.068 1.04l-.03-.01H49c.348.093.346.095.722-.233.377-.33.926-1.082 1.543-2.15.617-1.07 1-1.92 1.096-2.41v-.001c.097-.49.09-.494-.162-.75-1.462-1.386-2.6-2.582-3.41-3.845-.808-1.26-1.26-2.626-1.27-4.086v-.045c0-1.46.462-2.832 1.27-4.092.811-1.266 1.948-2.458 3.414-3.847.255-.256.252-.254.158-.745-.098-.49-.475-1.34-1.092-2.408-.617-1.069-1.16-1.822-1.537-2.15-.377-.329-.382-.326-.73-.233H49c-1.93.573-3.538.954-5.037 1.024-1.495.07-2.91-.215-4.18-.938 0-.003 0-.007-.027-.01-.002-.003-.027-.008-.027-.013v-.004c-1.259-.738-2.218-1.814-2.904-3.143-.69-1.335-1.155-2.916-1.625-4.878v-.001c-.095-.348-.094-.347-.567-.51-.473-.161-1.4-.259-2.632-.259h-.02M32 28.918c1.477 0 2.895.586 3.94 1.631.228 0 .447.091.61.253a5.571 5.571 0 0 1 1.63 3.94c.162.161.253.38.253.61a5.571 5.571 0 0 1-1.632 3.94c0 .228-.09.447-.252.609a5.571 5.571 0 0 1-3.94 1.631.862.862 0 0 1-.61.253 5.571 5.571 0 0 1-3.94-1.632.862.862 0 0 1-.609-.252 5.571 5.571 0 0 1-1.632-3.94.862.862 0 0 1-.252-.61c0-1.478.587-2.895 1.632-3.94 0-.228.09-.448.252-.61a5.571 5.571 0 0 1 3.94-1.631.862.862 0 0 1 .61-.252" style="-inkscape-stroke:none;font-variation-settings:normal"/>
			<path d="M31.982 12.631c-1.234 0-2.16.098-2.633.26-.473.162-.473.161-.566.51-.47 1.963-.937 3.543-1.627 4.878-.687 1.33-1.644 2.405-2.902 3.143v.004c-.002.009-.027.015-.038.023-1.27.723-2.684 1.013-4.18.944-1.51-.07-3.121-.464-5.072-1.043l.03.013c-.349-.093-.346-.096-.723.233-.377.33-.922 1.082-1.539 2.15-.617 1.07-1.003 1.916-1.1 2.406v.001c-.097.49-.085.494.17.75 1.462 1.386 2.6 2.586 3.41 3.85.808 1.26 1.259 2.625 1.268 4.085l.002.021v.024c0 1.461-.462 2.834-1.27 4.094-.811 1.266-1.952 2.456-3.417 3.845-.256.256-.25.252-.155.743.098.49.475 1.342 1.092 2.41.617 1.069 1.157 1.822 1.533 2.15.377.329.386.326.735.233 1.93-.573 3.538-.958 5.037-1.028 1.495-.07 2.91.22 4.18.942 0 .004 0 .015.027.017.002.003.023.005.023.01v.006c1.26.738 2.22 1.814 2.906 3.143.69 1.335 1.157 2.914 1.627 4.876.095.349.094.348.567.51.474.162 1.4.264 2.633.264 1.234 0 2.157-.102 2.63-.264h.001c.472-.162.469-.161.562-.51.47-1.963.941-3.542 1.63-4.876l.001-.001c.687-1.328 1.643-2.404 2.902-3.142v-.006c.002-.005.027-.004.027-.01 0-.004.001-.015.028-.017 1.27-.723 2.685-1.013 4.18-.944 1.51.07 3.118.46 5.068 1.04a5.43 5.43 0 0 1-.03-.01H49c.348.093.346.095.722-.233.377-.33.927-1.082 1.543-2.15v-.001c.617-1.068 1-1.92 1.096-2.41.097-.49.09-.494-.162-.75-1.462-1.386-2.6-2.582-3.41-3.845-.808-1.26-1.26-2.626-1.27-4.086v-.045c0-1.46.462-2.832 1.27-4.092.811-1.266 1.948-2.458 3.414-3.847.255-.256.252-.254.158-.745-.098-.49-.475-1.34-1.092-2.408-.617-1.069-1.16-1.822-1.537-2.15-.377-.329-.382-.326-.73-.233H49c-1.93.573-3.538.954-5.037 1.024-1.495.07-2.91-.215-4.18-.938 0-.003 0-.007-.027-.01-.003-.003-.027-.008-.027-.013v-.004c-1.259-.738-2.218-1.814-2.904-3.143-.69-1.335-1.155-2.916-1.625-4.878V13.4c-.095-.348-.094-.347-.567-.51-.473-.161-1.4-.259-2.632-.259h-.02M32 28.43c1.538 0 3.013.61 4.1 1.698.169 0 .33.067.45.186a5.798 5.798 0 0 1 1.697 4.101c.12.119.186.28.186.449 0 1.538-.61 3.013-1.698 4.1 0 .169-.067.33-.186.45a5.799 5.799 0 0 1-4.1 1.698.635.635 0 0 1-.45.185 5.798 5.798 0 0 1-4.1-1.698.634.634 0 0 1-.449-.186 5.798 5.798 0 0 1-1.698-4.1.634.634 0 0 1-.186-.45c0-1.537.61-3.013 1.698-4.1 0-.168.067-.33.186-.449a5.798 5.798 0 0 1 4.101-1.698.634.634 0 0 1 .449-.186" style="-inkscape-stroke:none;font-variation-settings:normal"/>
			<path d="M31.982 12.16c-1.234 0-2.16.098-2.633.26-.473.162-.473.161-.566.51-.47 1.963-.937 3.543-1.627 4.878-.687 1.33-1.644 2.405-2.902 3.143v.004c-.002.009-.027.015-.038.023-1.27.723-2.684 1.013-4.18.944-1.51-.07-3.121-.464-5.072-1.043l.03.013c-.349-.093-.346-.096-.723.233-.377.33-.922 1.082-1.539 2.15-.617 1.07-1.003 1.916-1.1 2.406v.001c-.097.49-.085.494.17.75 1.462 1.386 2.6 2.586 3.41 3.85.808 1.26 1.259 2.625 1.268 4.085l.002.021v.024c0 1.461-.462 2.834-1.27 4.094-.811 1.266-1.952 2.456-3.417 3.845-.256.256-.25.252-.155.743.098.49.475 1.342 1.092 2.41.617 1.069 1.157 1.822 1.533 2.15.377.329.386.326.735.232 1.93-.572 3.538-.957 5.037-1.027 1.495-.07 2.91.22 4.18.942 0 .004 0 .015.027.017.002.003.023.005.023.01v.006c1.26.738 2.22 1.814 2.906 3.143.69 1.335 1.157 2.914 1.627 4.876.095.349.094.348.567.51.474.162 1.4.264 2.633.264 1.234 0 2.157-.102 2.63-.264h.001c.472-.162.469-.161.562-.51.47-1.963.941-3.542 1.63-4.876l.001-.001c.687-1.328 1.643-2.404 2.902-3.142v-.006c.002-.005.027-.004.027-.01 0-.004.002-.015.028-.017 1.27-.723 2.685-1.013 4.18-.944 1.51.07 3.118.46 5.068 1.04l-.03-.01H49c.348.093.346.095.722-.233.378-.33.927-1.082 1.543-2.15v-.001c.617-1.068 1-1.92 1.096-2.41.097-.49.09-.494-.162-.75-1.462-1.386-2.6-2.582-3.41-3.845-.808-1.26-1.26-2.626-1.27-4.086v-.045c0-1.46.462-2.832 1.27-4.092.811-1.266 1.948-2.458 3.414-3.847.255-.256.252-.254.158-.745-.098-.49-.475-1.34-1.092-2.408-.617-1.069-1.16-1.822-1.537-2.15-.377-.329-.382-.326-.73-.233H49c-1.93.573-3.538.954-5.037 1.024-1.495.07-2.91-.215-4.18-.938 0-.003 0-.007-.027-.01-.003-.003-.027-.008-.027-.013v-.004c-1.259-.738-2.218-1.814-2.904-3.143-.69-1.335-1.155-2.916-1.625-4.878v-.001c-.095-.348-.094-.347-.567-.51-.473-.161-1.4-.259-2.632-.259h-.02M32 27.958c1.596 0 3.127.634 4.255 1.763.11 0 .216.044.294.122a6.018 6.018 0 0 1 1.762 4.255.416.416 0 0 1 .122.294 6.018 6.018 0 0 1-1.762 4.256c0 .11-.044.216-.122.294a6.018 6.018 0 0 1-4.256 1.762.415.415 0 0 1-.293.122 6.018 6.018 0 0 1-4.256-1.763.416.416 0 0 1-.294-.121 6.018 6.018 0 0 1-1.762-4.256.416.416 0 0 1-.122-.294c0-1.596.634-3.127 1.762-4.256 0-.11.044-.215.122-.293a6.018 6.018 0 0 1 4.256-1.763.416.416 0 0 1 .294-.122" style="-inkscape-stroke:none;font-variation-settings:normal"/>
			<path d="M31.982 11.706c-1.234 0-2.16.098-2.633.26-.473.162-.473.161-.566.51-.47 1.963-.937 3.543-1.627 4.878-.687 1.33-1.644 2.405-2.902 3.143v.004c-.002.009-.027.015-.038.023-1.27.723-2.684 1.013-4.18.944-1.51-.07-3.121-.464-5.072-1.043l.03.013c-.349-.093-.346-.096-.723.233-.377.33-.922 1.082-1.539 2.15v.001c-.617 1.068-1.003 1.915-1.1 2.405v.001c-.097.49-.085.494.17.75 1.462 1.386 2.6 2.586 3.41 3.85.808 1.26 1.259 2.625 1.268 4.085l.002.021v.024c0 1.461-.462 2.834-1.27 4.094-.811 1.266-1.952 2.456-3.417 3.845-.256.256-.25.252-.155.743.098.49.476 1.342 1.092 2.41.617 1.069 1.157 1.822 1.533 2.15.377.329.386.326.735.232 1.93-.572 3.538-.957 5.037-1.027 1.495-.07 2.91.22 4.18.942 0 .004 0 .015.027.017.003.003.023.005.023.01v.006c1.26.738 2.22 1.814 2.906 3.143.69 1.335 1.157 2.914 1.627 4.876.095.349.094.348.567.51.474.162 1.4.264 2.633.264 1.234 0 2.157-.102 2.63-.264h.001c.472-.162.469-.161.562-.51.47-1.963.941-3.542 1.63-4.876l.001-.001c.687-1.328 1.643-2.404 2.902-3.142v-.006c.002-.005.027-.004.027-.01 0-.004.002-.015.028-.017 1.27-.723 2.685-1.013 4.18-.944 1.51.07 3.118.46 5.068 1.04l-.03-.01H49c.348.093.346.095.722-.233.378-.33.927-1.082 1.543-2.15v-.001c.617-1.068 1-1.92 1.096-2.41.097-.49.09-.494-.162-.75-1.462-1.386-2.6-2.582-3.41-3.845-.808-1.26-1.26-2.626-1.27-4.086v-.045c0-1.46.462-2.832 1.27-4.092.811-1.266 1.948-2.458 3.414-3.847.255-.256.252-.254.158-.745-.098-.49-.475-1.34-1.092-2.408-.617-1.069-1.16-1.822-1.537-2.15-.377-.329-.382-.326-.73-.233H49c-1.93.573-3.538.954-5.037 1.024-1.495.07-2.91-.215-4.18-.938 0-.003 0-.007-.027-.01-.003-.003-.027-.008-.027-.013v-.004c-1.259-.738-2.218-1.814-2.904-3.143-.69-1.335-1.155-2.916-1.625-4.878v-.001c-.095-.348-.094-.347-.567-.51-.474-.161-1.4-.259-2.632-.259h-.02M32 27.505c1.652 0 3.236.656 4.405 1.824.054 0 .106.022.144.06a6.23 6.23 0 0 1 1.824 4.405c.039.038.06.09.06.144a6.228 6.228 0 0 1-1.824 4.405.204.204 0 0 1-.06.145 6.229 6.229 0 0 1-4.405 1.824.205.205 0 0 1-.144.06 6.228 6.228 0 0 1-4.405-1.824.204.204 0 0 1-.145-.06 6.229 6.229 0 0 1-1.824-4.405.205.205 0 0 1-.06-.145c0-1.652.656-3.236 1.824-4.405 0-.054.022-.106.06-.144a6.229 6.229 0 0 1 4.405-1.824.205.205 0 0 1 .145-.06" style="-inkscape-stroke:none;font-variation-settings:normal"/>
			<path d="M31.982 11.268c-1.234 0-2.16.098-2.633.26-.473.162-.473.161-.566.51-.47 1.963-.937 3.543-1.627 4.878-.687 1.33-1.644 2.405-2.902 3.143v.004c-.002.009-.027.015-.038.023-1.27.723-2.684 1.013-4.18.944-1.51-.07-3.121-.464-5.072-1.043l.03.013c-.349-.093-.346-.096-.723.233-.377.33-.922 1.082-1.539 2.15v.001c-.617 1.068-1.003 1.915-1.1 2.405v.001c-.097.49-.085.494.17.75 1.462 1.386 2.6 2.586 3.41 3.85.808 1.26 1.259 2.625 1.268 4.085l.002.021v.024c0 1.461-.462 2.834-1.27 4.094-.811 1.266-1.952 2.456-3.417 3.845-.256.256-.25.252-.155.743.098.49.476 1.342 1.092 2.41.617 1.069 1.157 1.822 1.533 2.15.377.329.386.326.735.232 1.93-.572 3.538-.957 5.037-1.027 1.495-.07 2.91.22 4.18.942 0 .004 0 .015.027.017.003.003.023.005.023.01v.006c1.26.738 2.22 1.814 2.906 3.143.69 1.335 1.157 2.914 1.627 4.876.095.349.094.348.567.51.474.162 1.4.264 2.633.264 1.234 0 2.157-.102 2.63-.264h.001c.472-.162.469-.161.562-.51.47-1.963.941-3.542 1.63-4.876l.001-.001c.687-1.328 1.643-2.404 2.902-3.142v-.006c.002-.006.027-.005.027-.01 0-.004.002-.015.028-.017 1.27-.723 2.685-1.013 4.18-.944 1.51.07 3.118.46 5.068 1.04l-.03-.01H49c.348.093.346.095.722-.233.378-.33.927-1.082 1.543-2.15v-.001c.617-1.068 1-1.92 1.096-2.41.097-.49.09-.494-.162-.75-1.462-1.386-2.6-2.582-3.41-3.845-.808-1.26-1.26-2.626-1.27-4.086v-.045c0-1.46.462-2.832 1.27-4.092.811-1.266 1.948-2.458 3.414-3.847.255-.256.252-.254.158-.745-.098-.49-.475-1.34-1.092-2.408-.617-1.069-1.16-1.822-1.537-2.15-.377-.329-.382-.326-.73-.233H49c-1.93.573-3.538.954-5.037 1.024-1.495.07-2.91-.215-4.18-.938 0-.003 0-.007-.027-.01-.003-.003-.027-.008-.027-.013v-.004c-1.259-.738-2.218-1.814-2.904-3.143-.69-1.335-1.155-2.916-1.625-4.879-.095-.348-.094-.347-.567-.51-.474-.161-1.4-.259-2.632-.259h-.02M32 27.067A6.433 6.433 0 1 1 32 39.933 6.433 6.433 0 0 1 32 27.067z" style="-inkscape-stroke:none;font-variation-settings:normal"/>
		</g>
		<path d="M31.982 11.268c-1.234 0-2.16.098-2.633.26-.473.162-.473.161-.566.51-.47 1.962-.937 3.543-1.627 4.878-.687 1.329-1.644 2.405-2.903 3.143v.004c0 .008-.026.015-.037.023-1.269.723-2.684 1.013-4.18.944-1.51-.07-3.121-.463-5.072-1.043l.03.013c-.35-.093-.346-.096-.723.233-.377.328-.922 1.082-1.54 2.15-.616 1.069-1.002 1.916-1.099 2.406-.085.43-.076.494.096.672.165-.503.504-1.212 1.004-2.078.617-1.068 1.162-1.822 1.539-2.15.377-.329.374-.326.723-.233l-.03-.013c1.95.58 3.563.972 5.073 1.043 1.495.07 2.91-.221 4.18-.944.01-.008.037-.015.036-.023v-.004c1.26-.738 2.216-1.814 2.903-3.143.69-1.335 1.157-2.916 1.627-4.878.093-.349.093-.348.566-.51.473-.162 1.4-.26 2.633-.26h.02c1.233 0 2.16.098 2.632.26.473.162.472.16.567.51.47 1.962.935 3.544 1.625 4.878.687 1.33 1.645 2.405 2.904 3.143v.004c0 .005.027.01.027.014.028.002.028.006.028.01 1.269.722 2.684 1.006 4.18.937 1.498-.07 3.106-.451 5.037-1.024.348-.093.353-.096.73.233.376.329.92 1.082 1.537 2.15.502.87.835 1.58.998 2.084.179-.185.178-.24.094-.676-.097-.49-.475-1.339-1.092-2.408-.617-1.068-1.16-1.822-1.537-2.15-.377-.329-.382-.326-.73-.233-1.931.573-3.539.954-5.038 1.024-1.495.07-2.91-.215-4.18-.938 0-.003.001-.006-.027-.01 0-.002-.027-.008-.027-.013v-.004c-1.259-.738-2.217-1.814-2.904-3.143-.69-1.334-1.155-2.916-1.625-4.878-.095-.349-.094-.348-.567-.51-.473-.162-1.399-.26-2.632-.26h-.02zm15.557 22.709c-.012.165-.02.33-.02.498v.045c.01 1.46.462 2.826 1.27 4.086.81 1.263 1.948 2.46 3.41 3.846.03.03.045.05.069.074.037-.116.075-.233.093-.324.098-.49.091-.495-.162-.75-1.462-1.387-2.6-2.583-3.41-3.846-.723-1.128-1.16-2.34-1.25-3.629zM25.633 34a6.433 6.433 0 0 0-.066.5A6.433 6.433 0 0 0 32 40.934a6.433 6.433 0 0 0 6.434-6.434 6.433 6.433 0 0 0-.024-.5A6.433 6.433 0 0 1 32 39.934 6.433 6.433 0 0 1 25.633 34zm-9.172.041c-.096 1.267-.537 2.464-1.248 3.573-.811 1.265-1.953 2.456-3.418 3.845-.256.256-.249.252-.154.743.018.09.056.207.094.322.02-.022.033-.038.06-.065 1.465-1.39 2.607-2.58 3.418-3.845.808-1.26 1.27-2.633 1.27-4.094v-.023l-.002-.022c-.001-.146-.01-.29-.02-.434z" fill="#fff" fill-opacity=".61" style="-inkscape-stroke:none;font-variation-settings:normal"/>
		<g fill="#130044" fill-opacity=".02" opacity=".317">
			<path d="m26.54 27.513-.424 3.061h5.886c4.57 0 8.295 3.518 8.295 8.287s-3.724 8.287-8.294 8.287h-5.886l.424 3.062c1.328.356 9.28 2.2 10.819 1.52 3.914-1.728 9.337-10.014 11.556-10.014 3.065 0 15-.17 15-.17L64 38.955h.007l-.003-.095.003-.091h-.007l-.083-2.595s-11.935-.168-15-.168c-2.219 0-7.642-8.287-11.557-10.016-1.539-.68-9.491 1.167-10.82 1.523z" style="-inkscape-stroke:none;font-variation-settings:normal"/>
			<path d="m26.54 26.17-.424 3.061h5.886c4.57 0 8.295 3.518 8.295 8.287 0 4.77-3.724 8.287-8.294 8.287h-5.887l.424 3.062c1.33.356 9.28 2.2 10.82 1.52 3.914-1.728 9.337-10.014 11.556-10.014 3.065 0 15-.17 15-.17L64 37.612h.007l-.003-.095.003-.092h-.007l-.082-2.594s-11.935-.168-15-.168c-2.22 0-7.643-8.287-11.557-10.016-1.54-.68-9.492 1.167-10.82 1.523z" style="-inkscape-stroke:none;font-variation-settings:normal"/>
			<path d="m26.54 25.614-.424 3.061h5.886c4.57 0 8.295 3.518 8.295 8.287 0 4.77-3.724 8.287-8.294 8.287h-5.887l.424 3.062c1.33.356 9.28 2.2 10.82 1.52 3.914-1.728 9.337-10.015 11.556-10.015 3.065 0 15-.169 15-.169L64 37.056h.007l-.003-.096.003-.09h-.007l-.082-2.595s-11.935-.168-15-.168c-2.22 0-7.643-8.287-11.557-10.016-1.54-.68-9.492 1.167-10.82 1.523z" style="-inkscape-stroke:none;font-variation-settings:normal"/>
			<path d="m26.54 25.187-.424 3.061h5.886c4.57 0 8.295 3.518 8.295 8.287 0 4.77-3.724 8.287-8.294 8.287h-5.886l.424 3.062c1.329.356 9.28 2.2 10.819 1.52 3.915-1.728 9.337-10.015 11.556-10.015 3.066 0 15.001-.169 15.001-.169L64 36.628h.006l-.003-.095.003-.09H64l-.083-2.595s-11.935-.168-15-.168c-2.22 0-7.642-8.287-11.557-10.016-1.54-.68-9.492 1.166-10.82 1.522z" style="-inkscape-stroke:none;font-variation-settings:normal"/>
			<path d="m26.54 24.827-.424 3.061h5.886c4.57 0 8.295 3.518 8.295 8.287 0 4.77-3.724 8.287-8.294 8.287h-5.886l.424 3.062c1.329.356 9.28 2.2 10.819 1.52 3.915-1.728 9.337-10.015 11.556-10.015 3.066 0 15.001-.169 15.001-.169L64 36.268h.006l-.003-.095.003-.09H64l-.083-2.595s-11.935-.168-15-.168c-2.22 0-7.642-8.287-11.557-10.016-1.54-.68-9.492 1.167-10.82 1.523z" style="-inkscape-stroke:none;font-variation-settings:normal"/>
			<path d="m26.54 24.51-.424 3.061h5.886c4.57 0 8.295 3.518 8.295 8.287 0 4.77-3.724 8.287-8.294 8.287h-5.886l.424 3.062c1.329.356 9.28 2.2 10.819 1.52C41.275 47 46.697 38.712 48.916 38.712c3.066 0 15.001-.169 15.001-.169L64 35.951h.006l-.003-.095.003-.09H64l-.083-2.595s-11.935-.169-15-.169c-2.22 0-7.642-8.287-11.557-10.016-1.54-.68-9.492 1.167-10.82 1.523z" style="-inkscape-stroke:none;font-variation-settings:normal"/>
			<path d="m26.54 24.223-.424 3.061h5.886c4.57 0 8.295 3.518 8.295 8.287 0 4.77-3.724 8.287-8.294 8.287h-5.886l.424 3.062c1.33.356 9.28 2.2 10.819 1.52 3.915-1.729 9.337-10.015 11.556-10.015 3.066 0 15.001-.169 15.001-.169L64 35.665h.006v-.001l-.003-.095.003-.09H64l-.083-2.595s-11.935-.168-15-.168c-2.22 0-7.642-8.287-11.557-10.016-1.54-.68-9.492 1.167-10.82 1.523z" style="-inkscape-stroke:none;font-variation-settings:normal"/>
			<path d="m26.54 23.96-.424 3.061h5.886c4.57 0 8.295 3.518 8.295 8.287 0 4.77-3.724 8.287-8.294 8.287h-5.886l.424 3.062c1.33.356 9.28 2.2 10.819 1.52 3.915-1.729 9.337-10.015 11.556-10.015 3.066 0 15.001-.169 15.001-.169L64 35.401h.007l-.004-.095.003-.09H64l-.083-2.595s-11.935-.168-15-.168c-2.22 0-7.642-8.287-11.557-10.016-1.54-.68-9.492 1.166-10.82 1.522z" style="-inkscape-stroke:none;font-variation-settings:normal"/>
			<path d="m26.54 23.714-.424 3.061h5.886c4.57 0 8.295 3.518 8.295 8.287 0 4.77-3.724 8.287-8.294 8.287h-5.886l.424 3.062c1.33.356 9.28 2.2 10.819 1.52 3.915-1.729 9.337-10.015 11.556-10.015 3.066 0 15.001-.169 15.001-.169L64 35.156h.007v-.001l-.004-.095.003-.09H64l-.083-2.595s-11.935-.168-15-.168c-2.22 0-7.642-8.287-11.557-10.016-1.54-.68-9.492 1.167-10.82 1.523z" style="-inkscape-stroke:none;font-variation-settings:normal"/>
			<path d="m26.54 23.484-.424 3.061h5.886c4.57 0 8.295 3.518 8.295 8.287 0 4.77-3.724 8.287-8.294 8.287h-5.886l.424 3.062c1.33.356 9.28 2.2 10.819 1.52 3.915-1.729 9.337-10.015 11.556-10.015 3.066 0 15.001-.169 15.001-.169L64 34.925h.007a85.8 85.8 0 0 0-.004-.095l.003-.09H64l-.083-2.595s-11.935-.168-15-.168c-2.22 0-7.642-8.287-11.557-10.016-1.54-.68-9.492 1.166-10.82 1.522z" style="-inkscape-stroke:none;font-variation-settings:normal"/>
			<path d="m26.54 23.266-.424 3.061h5.886c4.57 0 8.295 3.518 8.295 8.287 0 4.77-3.724 8.287-8.294 8.287h-5.886l.424 3.062c1.33.356 9.28 2.2 10.819 1.52 3.915-1.729 9.337-10.015 11.556-10.015 3.066 0 15.001-.169 15.001-.169L64 34.707h.007a53.5 53.5 0 0 1-.004-.095l.004-.09H64c0-.032-.083-2.595-.083-2.595s-11.935-.169-15-.169c-2.22 0-7.642-8.287-11.557-10.016-1.54-.68-9.492 1.167-10.82 1.523z" style="-inkscape-stroke:none;font-variation-settings:normal"/>
			<path d="m26.54 23.059-.424 3.061h5.886c4.57 0 8.295 3.518 8.295 8.287 0 4.77-3.724 8.287-8.294 8.287h-5.887l.424 3.062c1.33.356 9.28 2.2 10.82 1.52 3.915-1.729 9.337-10.015 11.556-10.015 3.066 0 15.001-.169 15.001-.169L64 34.5h.007l-.003-.095.003-.09H64c0-.034-.083-2.595-.083-2.595s-11.935-.168-15-.168c-2.219 0-7.642-8.288-11.557-10.016-1.539-.68-9.491 1.166-10.82 1.522z" style="-inkscape-stroke:none;font-variation-settings:normal"/>
			<path d="m26.54 22.86-.424 3.061h5.886c4.57 0 8.295 3.518 8.295 8.287 0 4.77-3.724 8.287-8.294 8.287h-5.887l.424 3.062c1.33.356 9.28 2.2 10.82 1.52 3.915-1.729 9.337-10.015 11.556-10.015 3.066 0 15.001-.169 15.001-.169L64 34.301h.007l-.003-.095.003-.09H64c0-.035-.083-2.595-.083-2.595s-11.935-.169-15-.169c-2.219 0-7.642-8.287-11.557-10.016-1.539-.68-9.491 1.167-10.82 1.523z" style="-inkscape-stroke:none;font-variation-settings:normal"/>
			<path d="m26.54 22.67-.424 3.061h5.886c4.57 0 8.295 3.518 8.295 8.287 0 4.77-3.724 8.287-8.294 8.287h-5.887l.424 3.062c1.33.356 9.28 2.2 10.82 1.52 3.915-1.729 9.337-10.015 11.556-10.015 3.066 0 15.001-.169 15.001-.169L64 34.111h.007l-.003-.095.003-.09H64l-.083-2.595s-11.935-.168-15-.168c-2.219 0-7.642-8.287-11.557-10.016-1.539-.68-9.491 1.166-10.82 1.522z" style="-inkscape-stroke:none;font-variation-settings:normal"/>
			<path d="m26.54 22.488-.424 3.061h5.886c4.57 0 8.295 3.518 8.295 8.287 0 4.77-3.724 8.287-8.294 8.287h-5.887l.424 3.062c1.33.356 9.28 2.2 10.82 1.52 3.915-1.729 9.337-10.015 11.557-10.015 3.065 0 15-.169 15-.169L64 33.929h.007l-.003-.095.003-.09H64c0-.038-.083-2.595-.083-2.595s-11.935-.169-15-.169c-2.219 0-7.642-8.287-11.557-10.016-1.539-.68-9.491 1.167-10.82 1.523z" style="-inkscape-stroke:none;font-variation-settings:normal"/>
			<path d="m26.54 22.311-.424 3.061h5.886c4.57 0 8.295 3.518 8.295 8.287 0 4.77-3.724 8.287-8.294 8.287h-5.887l.424 3.062c1.33.356 9.28 2.2 10.82 1.52 3.915-1.729 9.337-10.015 11.557-10.015 3.065 0 15-.169 15-.169L64 33.752h.007l-.003-.095.003-.09H64v-.001c0-.039-.083-2.594-.083-2.594s-11.935-.169-15-.169c-2.219 0-7.642-8.287-11.557-10.016-1.539-.68-9.491 1.167-10.82 1.523z" style="-inkscape-stroke:none;font-variation-settings:normal"/>
			<path d="m26.54 22.141-.424 3.061h5.886c4.57 0 8.295 3.518 8.295 8.287 0 4.77-3.724 8.287-8.294 8.287h-5.887l.424 3.062c1.33.356 9.28 2.2 10.82 1.52 3.915-1.729 9.337-10.015 11.557-10.015 3.065 0 15-.169 15-.169L64 33.582h.007l-.003-.095.003-.09H64l-.083-2.595s-11.935-.169-15-.169c-2.219 0-7.642-8.287-11.557-10.016-1.539-.68-9.491 1.167-10.82 1.523z" style="-inkscape-stroke:none;font-variation-settings:normal"/>
		</g>
		<path d="m26.54 22.141-.424 3.061h5.886c4.57 0 8.295 3.518 8.295 8.287 0 4.769-3.724 8.287-8.294 8.287h-5.886l.424 3.062c1.328.356 9.28 2.2 10.819 1.52 3.914-1.728 9.337-10.014 11.556-10.014 3.065 0 15-.17 15-.17L64 33.583h.007l-.003-.095.003-.092h-.007l-.083-2.594s-11.935-.168-15-.168c-2.219 0-7.642-8.287-11.557-10.016-1.539-.68-9.491 1.167-10.82 1.523z" fill="#c8d6ea"/>
		<path d="M36.508 20.473c-2.571-.097-8.806 1.357-9.969 1.668l-.424 3.06h.139l.285-2.06c1.329-.356 9.281-2.203 10.82-1.523 3.915 1.728 9.338 10.016 11.557 10.016 3.066 0 15.002.17 15.002.17l.069 2.185.013-.406h.006l-.002-.096.002-.09H64l-.082-2.594s-11.936-.17-15.002-.17c-2.22 0-7.642-8.287-11.557-10.015-.192-.085-.484-.131-.851-.145zm3.764 13.516c-.252 4.51-3.862 7.787-8.27 7.787h-5.885l.14 1h5.745c4.57 0 8.295-3.518 8.295-8.287 0-.17-.016-.334-.025-.5z" fill="#fff" fill-opacity=".527"/>
	</g>
</svg>
