<svg width="64" height="64" xmlns="http://www.w3.org/2000/svg"><defs><radialGradient id="e" cx="46.762" cy="39.221" r="14.161" gradientTransform="rotate(45 149.154 82.37) scale(1.22042 3.34533)" gradientUnits="userSpaceOnUse"><stop stop-color="#700a36" stop-opacity=".302" offset="0"/><stop stop-color="#532240" stop-opacity=".152" offset="1"/></radialGradient><radialGradient id="a" cx="29.395" cy="43.53" r="32" gradientTransform="matrix(.18648 .69414 -2.0938 .5625 94.66 -10.89)" gradientUnits="userSpaceOnUse"><stop stop-color="#f90050" stop-opacity=".101" offset="0"/><stop stop-color="#f90050" stop-opacity="0" offset="1"/></radialGradient><radialGradient id="c" cx="29.405" cy="56.248" r="30" gradientTransform="matrix(1.8427 0 0 1.9042 -26.521 -39.268)" gradientUnits="userSpaceOnUse"><stop stop-color="#b0b7dd" offset="0"/><stop stop-color="#c5cfe8" offset="1"/></radialGradient><linearGradient id="d" x1="52" x2="40" y1="52" y2="40" gradientUnits="userSpaceOnUse"><stop stop-color="#ffffcb" stop-opacity=".303" offset="0"/><stop stop-color="#fff" stop-opacity="0" offset="1"/></linearGradient><linearGradient id="b" x1="62.456" x2="62.456" y1="10.772" y2=".522" gradientUnits="userSpaceOnUse"><stop stop-color="#1871c4" offset="0"/><stop stop-color="#1383e9" offset="1"/></linearGradient><linearGradient id="f" x1="86" x2="74" y1="85" y2="73" gradientTransform="translate(-34 -33)" gradientUnits="userSpaceOnUse"><stop stop-color="#9795c1" offset="0"/><stop stop-color="#a6a4d5" offset=".252"/><stop stop-color="#b7bbcc" offset="1"/></linearGradient></defs><path d="M0 2v61h64V2z" color="#000" fill="url(#a)"/><path d="M0 2v61h64V2z" color="#000" fill="url(#b)" style="-inkscape-stroke:none;font-variation-settings:normal"/><path d="M0 2v62h40l24-24V2z" color="#000" fill="url(#c)" style="-inkscape-stroke:none;font-variation-settings:normal"/><path d="M2 0 0 1v1h64V1l-2-1z" color="#000" fill="#dbedf7"/><path d="M0 1v3l2-2zM64 4l-2-2 2-1z" fill="#d0def0"/><path d="M0 2v62h40l24-24V2.5z" color="#000" fill="url(#d)"/><path class="ColorScheme-Text" d="M16 17v14h14V17zm18 0v14h14V17zm-14 4h6v6h-6zm20 0h2v2h2v2h-4v2h-2v-2h2zm-18 2v2h2v-2zm-6 12v14h14V35zm18 0v14h14V35zm-14 4h2v2h2v-2h2v2h-2v2h2v2h-2v-2h-2v2h-2v-2h2v-2h-2zm18 2h6v4h-2v-2h-2v2h-2z" color="#090d11" fill="#1d273e" fill-opacity=".819" style="-inkscape-stroke:none;font-variation-settings:normal"/><g><path d="M64 40 41 63h23z" color="#000" fill="url(#e)" style="-inkscape-stroke:none;font-variation-settings:normal"/><path d="m40 64 24-24H40z" fill="url(#f)" style="-inkscape-stroke:none;font-variation-settings:normal"/><path d="M2 0 0 1h64l-2-1z" fill="#4ab2f1"/></g><rect x="40" y="39.5" width="24" height="1" rx="0" ry="0" fill="#fff" fill-opacity=".252" paint-order="stroke fill markers"/></svg>