<svg width="64" height="64" xmlns="http://www.w3.org/2000/svg" xmlns:xlink="http://www.w3.org/1999/xlink"><defs><radialGradient id="Q" cx="32.519" cy="1.45" r="31.76" gradientTransform="matrix(0 .02013 -1.1971 0 34.255 -70.942)" gradientUnits="userSpaceOnUse"><stop stop-color="#ffcdf0" stop-opacity=".965" offset="0"/><stop stop-color="#ff6cf9" stop-opacity="0" offset="1"/></radialGradient><radialGradient id="P" cx="28.444" cy="-1.667" r="31.76" gradientTransform="matrix(0 .99123 -5.0671 -.00045 23.674 -98.443)" gradientUnits="userSpaceOnUse" xlink:href="#a"/><radialGradient id="O" cx="28.444" cy="-1.681" r="32" gradientTransform="matrix(0 .98378 -5.029 -.00044 23.665 -98.231)" gradientUnits="userSpaceOnUse" xlink:href="#a"/><radialGradient id="N" cx="28.444" cy="-1.678" r="31.971" gradientTransform="matrix(0 .98467 -5.0336 -.00044 23.674 -98.256)" gradientUnits="userSpaceOnUse" xlink:href="#a"/><radialGradient id="M" cx="28.444" cy="-1.675" r="31.944" gradientTransform="matrix(0 .98549 -5.0378 -.00044 23.682 -98.28)" gradientUnits="userSpaceOnUse" xlink:href="#a"/><radialGradient id="L" cx="28.444" cy="-1.672" r="31.92" gradientTransform="matrix(0 .98626 -5.0417 -.00044 23.69 -98.302)" gradientUnits="userSpaceOnUse" xlink:href="#a"/><radialGradient id="K" cx="28.444" cy="-1.678" r="31.897" gradientTransform="matrix(0 .98697 -5.0454 -.00044 23.654 -98.322)" gradientUnits="userSpaceOnUse" xlink:href="#a"/><radialGradient id="J" cx="28.444" cy="-1.675" r="31.875" gradientTransform="matrix(0 .98763 -5.0487 -.00044 23.661 -98.341)" gradientUnits="userSpaceOnUse" xlink:href="#a"/><radialGradient id="I" cx="28.444" cy="-1.678" r="31.856" gradientTransform="matrix(0 .98823 -5.0518 -.00044 23.643 -98.358)" gradientUnits="userSpaceOnUse" xlink:href="#a"/><radialGradient id="H" cx="28.444" cy="-1.676" r="31.839" gradientTransform="matrix(0 .98877 -5.0545 -.00044 23.649 -98.373)" gradientUnits="userSpaceOnUse" xlink:href="#a"/><radialGradient id="G" cx="28.444" cy="-1.674" r="31.823" gradientTransform="matrix(0 .98926 -5.057 -.00044 23.654 -98.387)" gradientUnits="userSpaceOnUse" xlink:href="#a"/><radialGradient id="F" cx="28.444" cy="-1.673" r="31.809" gradientTransform="matrix(0 .98969 -5.0592 -.00044 23.658 -98.399)" gradientUnits="userSpaceOnUse" xlink:href="#a"/><radialGradient id="E" cx="28.444" cy="-1.671" r="31.797" gradientTransform="matrix(0 .99006 -5.0612 -.00045 23.662 -98.41)" gradientUnits="userSpaceOnUse" xlink:href="#a"/><radialGradient id="D" cx="28.444" cy="-1.67" r="31.787" gradientTransform="matrix(0 .99038 -5.0628 -.00045 23.665 -98.419)" gradientUnits="userSpaceOnUse" xlink:href="#a"/><radialGradient id="C" cx="28.444" cy="-1.669" r="31.778" gradientTransform="matrix(0 .99065 -5.0642 -.00045 23.668 -98.427)" gradientUnits="userSpaceOnUse" xlink:href="#a"/><radialGradient id="B" cx="28.444" cy="-1.668" r="31.771" gradientTransform="matrix(0 .99087 -5.0653 -.00045 23.67 -98.433)" gradientUnits="userSpaceOnUse" xlink:href="#a"/><radialGradient id="A" cx="28.444" cy="-1.667" r="31.766" gradientTransform="matrix(0 .99103 -5.0661 -.00045 23.672 -98.437)" gradientUnits="userSpaceOnUse" xlink:href="#a"/><radialGradient id="z" cx="28.444" cy="-1.667" r="31.762" gradientTransform="matrix(0 .99114 -5.0667 -.00045 23.673 -98.441)" gradientUnits="userSpaceOnUse" xlink:href="#a"/><radialGradient id="y" cx="28.444" cy="-1.667" r="31.76" gradientTransform="matrix(0 .99121 -5.067 -.00045 23.674 -98.442)" gradientUnits="userSpaceOnUse" xlink:href="#a"/><radialGradient id="W" cx="6" cy="9" r="2" gradientTransform="translate(-2.146 -3.598) scale(1.5244)" gradientUnits="userSpaceOnUse"><stop stop-color="#220328" stop-opacity=".383" offset="0"/><stop stop-color="#220328" stop-opacity=".168" offset=".443"/><stop stop-color="#220328" stop-opacity="0" offset="1"/></radialGradient><radialGradient id="X" cx="6" cy="9.705" r="2" gradientTransform="translate(.287 .464) scale(.95216)" gradientUnits="userSpaceOnUse"><stop stop-color="#7a5f97" offset="0"/><stop stop-color="#a98bba" offset="1"/></radialGradient><radialGradient id="R" cx="31.787" cy="32.806" r="21.5" gradientTransform="matrix(1.251 0 0 1.2641 -8.284 -80.959)" gradientUnits="userSpaceOnUse"><stop stop-color="#201341" stop-opacity=".289" offset="0"/><stop stop-color="#201341" stop-opacity=".289" offset=".432"/><stop stop-color="#2a0d49" stop-opacity="0" offset="1"/></radialGradient><radialGradient id="V" cx="26.862" cy="37.393" r="6" gradientTransform="matrix(1.6494 0 0 .69546 -17.184 9.886)" gradientUnits="userSpaceOnUse"><stop stop-color="#d21e7c" offset="0"/><stop stop-color="#ef2e73" offset="1"/></radialGradient><radialGradient id="w" cx="32" cy="32" r="32" gradientTransform="matrix(1.4474 0 0 1.4021 -14.572 -85.395)" gradientUnits="userSpaceOnUse"><stop stop-color="#9a2ca7" offset="0"/><stop stop-color="#6142ad" offset="1"/></radialGradient><radialGradient id="aa" cx="35.574" cy="1.019" r="32" gradientTransform="matrix(0 1.1252 -5.1753 0 37.271 -39.029)" gradientUnits="userSpaceOnUse" xlink:href="#c"/><radialGradient id="ab" cx="35.574" cy="1.036" r="32" gradientTransform="matrix(0 1.1252 -5.1753 0 37.363 -39.029)" gradientUnits="userSpaceOnUse" xlink:href="#c"/><radialGradient id="ac" cx="35.574" cy="1.055" r="32" gradientTransform="matrix(0 1.1252 -5.1753 0 37.458 -39.029)" gradientUnits="userSpaceOnUse" xlink:href="#c"/><radialGradient id="ad" cx="35.574" cy="1.071" r="32" gradientTransform="matrix(0 1.1252 -5.1753 0 37.544 -39.029)" gradientUnits="userSpaceOnUse" xlink:href="#c"/><radialGradient id="ae" cx="35.574" cy="1.091" r="32" gradientTransform="matrix(0 1.1252 -5.1753 0 37.648 -39.029)" gradientUnits="userSpaceOnUse" xlink:href="#c"/><radialGradient id="af" cx="35.574" cy="1.113" r="32" gradientTransform="matrix(0 1.1252 -5.1753 0 37.758 -39.029)" gradientUnits="userSpaceOnUse" xlink:href="#c"/><radialGradient id="ag" cx="35.574" cy="1.135" r="32" gradientTransform="matrix(0 1.1252 -5.1753 0 37.875 -39.029)" gradientUnits="userSpaceOnUse" xlink:href="#c"/><radialGradient id="ah" cx="35.574" cy="1.159" r="32" gradientTransform="matrix(0 1.1252 -5.1753 0 38 -39.029)" gradientUnits="userSpaceOnUse" xlink:href="#c"/><radialGradient id="ai" cx="35.574" cy="1.18" r="32" gradientTransform="matrix(0 1.1252 -5.1753 0 38.107 -39.029)" gradientUnits="userSpaceOnUse" xlink:href="#c"/><radialGradient id="aj" cx="35.574" cy="1.208" r="32" gradientTransform="matrix(0 1.1252 -5.1753 0 38.252 -39.029)" gradientUnits="userSpaceOnUse" xlink:href="#c"/><radialGradient id="ak" cx="35.574" cy="1.239" r="32" gradientTransform="matrix(0 1.1252 -5.1753 0 38.411 -39.029)" gradientUnits="userSpaceOnUse" xlink:href="#c"/><radialGradient id="al" cx="35.574" cy="1.273" r="32" gradientTransform="matrix(0 1.1252 -5.1753 0 38.587 -39.029)" gradientUnits="userSpaceOnUse" xlink:href="#c"/><radialGradient id="am" cx="35.574" cy="1.304" r="32" gradientTransform="matrix(0 1.1252 -5.1753 0 38.75 -39.029)" gradientUnits="userSpaceOnUse" xlink:href="#c"/><radialGradient id="an" cx="35.574" cy="1.346" r="32" gradientTransform="matrix(0 1.1252 -5.1753 0 38.966 -39.029)" gradientUnits="userSpaceOnUse" xlink:href="#c"/><radialGradient id="ao" cx="35.574" cy="1.393" r="32" gradientTransform="matrix(0 1.1252 -5.1753 0 39.208 -39.029)" gradientUnits="userSpaceOnUse" xlink:href="#c"/><radialGradient id="ap" cx="35.574" cy="1.439" r="32" gradientTransform="matrix(0 1.1252 -5.1753 0 39.446 -39.029)" gradientUnits="userSpaceOnUse" xlink:href="#c"/><radialGradient id="aq" cx="32.519" cy="1.45" r="31.76" gradientTransform="matrix(0 .02013 -2.0902 0 35.55 1.303)" gradientUnits="userSpaceOnUse"><stop stop-color="#b0ecff" offset="0"/><stop stop-color="#8eaaff" stop-opacity="0" offset="1"/></radialGradient><radialGradient id="Z" cx="31.744" cy="30.855" r="32" gradientTransform="translate(-144.37 -5.529) scale(1.1553)" gradientUnits="userSpaceOnUse"><stop stop-color="#383849" offset="0"/><stop stop-color="#3f3e4f" offset="1"/></radialGradient><radialGradient id="e" cx="31.744" cy="30.855" r="32" gradientTransform="translate(277.45 965.74) scale(1.1553)" gradientUnits="userSpaceOnUse"><stop stop-color="#414460" offset="0"/><stop stop-color="#4f4e73" offset="1"/></radialGradient><radialGradient id="f" cx="35.574" cy="1.019" r="32" gradientTransform="matrix(0 1.1252 -5.1753 0 37.271 -39.029)" gradientUnits="userSpaceOnUse" xlink:href="#d"/><radialGradient id="g" cx="35.574" cy="1.036" r="32" gradientTransform="matrix(0 1.1252 -5.1753 0 37.363 -39.029)" gradientUnits="userSpaceOnUse" xlink:href="#d"/><radialGradient id="h" cx="35.574" cy="1.055" r="32" gradientTransform="matrix(0 1.1252 -5.1753 0 37.458 -39.029)" gradientUnits="userSpaceOnUse" xlink:href="#d"/><radialGradient id="i" cx="35.574" cy="1.071" r="32" gradientTransform="matrix(0 1.1252 -5.1753 0 37.544 -39.029)" gradientUnits="userSpaceOnUse" xlink:href="#d"/><radialGradient id="j" cx="35.574" cy="1.091" r="32" gradientTransform="matrix(0 1.1252 -5.1753 0 37.648 -39.029)" gradientUnits="userSpaceOnUse" xlink:href="#d"/><radialGradient id="k" cx="35.574" cy="1.113" r="32" gradientTransform="matrix(0 1.1252 -5.1753 0 37.758 -39.029)" gradientUnits="userSpaceOnUse" xlink:href="#d"/><radialGradient id="l" cx="35.574" cy="1.135" r="32" gradientTransform="matrix(0 1.1252 -5.1753 0 37.875 -39.029)" gradientUnits="userSpaceOnUse" xlink:href="#d"/><radialGradient id="m" cx="35.574" cy="1.159" r="32" gradientTransform="matrix(0 1.1252 -5.1753 0 38 -39.029)" gradientUnits="userSpaceOnUse" xlink:href="#d"/><radialGradient id="n" cx="35.574" cy="1.18" r="32" gradientTransform="matrix(0 1.1252 -5.1753 0 38.107 -39.029)" gradientUnits="userSpaceOnUse" xlink:href="#d"/><radialGradient id="o" cx="35.574" cy="1.208" r="32" gradientTransform="matrix(0 1.1252 -5.1753 0 38.252 -39.029)" gradientUnits="userSpaceOnUse" xlink:href="#d"/><radialGradient id="p" cx="35.574" cy="1.239" r="32" gradientTransform="matrix(0 1.1252 -5.1753 0 38.411 -39.029)" gradientUnits="userSpaceOnUse" xlink:href="#d"/><radialGradient id="q" cx="35.574" cy="1.273" r="32" gradientTransform="matrix(0 1.1252 -5.1753 0 38.587 -39.029)" gradientUnits="userSpaceOnUse" xlink:href="#d"/><radialGradient id="r" cx="35.574" cy="1.304" r="32" gradientTransform="matrix(0 1.1252 -5.1753 0 38.75 -39.029)" gradientUnits="userSpaceOnUse" xlink:href="#d"/><radialGradient id="s" cx="35.574" cy="1.346" r="32" gradientTransform="matrix(0 1.1252 -5.1753 0 38.966 -39.029)" gradientUnits="userSpaceOnUse" xlink:href="#d"/><radialGradient id="t" cx="35.574" cy="1.393" r="32" gradientTransform="matrix(0 1.1252 -5.1753 0 39.208 -39.029)" gradientUnits="userSpaceOnUse" xlink:href="#d"/><radialGradient id="u" cx="35.574" cy="1.439" r="32" gradientTransform="matrix(0 1.1252 -5.1753 0 39.446 -39.029)" gradientUnits="userSpaceOnUse" xlink:href="#d"/><radialGradient id="v" cx="36.463" cy="1.498" r="32" gradientTransform="matrix(0 .01804 -2.6986 0 36.042 1.341)" gradientUnits="userSpaceOnUse"><stop stop-color="#badcff" stop-opacity=".635" offset="0"/><stop stop-color="#c0d6f6" stop-opacity="0" offset="1"/></radialGradient><linearGradient id="b"><stop stop-color="#945faa" offset="0"/><stop stop-color="#eee8ee" offset="1"/></linearGradient><linearGradient id="a"><stop stop-color="#f5c1ff" stop-opacity=".055" offset="0"/><stop stop-color="#ec1bef" stop-opacity="0" offset="1"/></linearGradient><linearGradient id="T" x1="21.941" x2="21.941" y1="37.631" y2="30.304" gradientUnits="userSpaceOnUse" xlink:href="#b"/><linearGradient id="U" x1="21.781" x2="21.781" y1="30" y2="41.547" gradientUnits="userSpaceOnUse" xlink:href="#b"/><linearGradient id="S" x1="31.769" x2="20.784" y1="32.373" y2="21.498" gradientUnits="userSpaceOnUse" xlink:href="#b"/><linearGradient id="x" x1="46.942" x2="46.942" y1="-.026" y2="2.45" gradientTransform="matrix(-1 0 0 1 64 -72.245)" gradientUnits="userSpaceOnUse"><stop stop-color="#f6a8ff" offset="0"/><stop stop-color="#f25dff" stop-opacity="0" offset="1"/></linearGradient><linearGradient id="c"><stop stop-color="#cfc9e9" stop-opacity=".13" offset="0"/><stop stop-color="#cec9e9" stop-opacity=".02" offset="1"/></linearGradient><linearGradient id="d"><stop stop-color="#7e9abb" stop-opacity=".16" offset="0"/><stop stop-color="#7e9abb" stop-opacity=".05" offset="1"/></linearGradient></defs><g transform="translate(346.38 -971.27)"><rect transform="scale(-1 1)" x="282.38" y="971.27" width="64" height="64" rx="1" ry="1" fill="url(#e)" paint-order="fill markers stroke"/><path d="M1 0C.446 0 0 .446 0 1v62-.224V63 2h1.752c19.15.002 39.445 0 60.213 0H64v61-.334V63 1a.998.998 0 0 0-1-1z" fill="url(#f)" transform="translate(-346.38 971.27)"/><path d="M1 0a.998.998 0 0 0-1 1.006v61.98-.197c0-.277.004-.184.01.246.012.016.03-.297.052-.897v-60c.072-.009.133-.013.185-.013.29-.016.357-.032.774-.044.246-.011.496-.019.747-.019 19.183.002 39.392 0 60.2 0 .346 0 .689.012 1.023.03.268.01.389.02.52.033.106 0 .22.01.427.028v59.744c.027.754.05 1.148.059 1.123l.003-.334v.286V1.21c0-.143 0-.22-.002-.224A.996.996 0 0 0 62.986 0H1" fill="url(#g)" transform="translate(-346.38 971.27)"/><path d="M1 0a.998.998 0 0 0-1 1.006v61.966-.169c0-.245.008-.145.021.266.022.034.06-.247.104-.807V2.274a.744.744 0 0 1 .173-.025c.27-.031.341-.064.743-.088.242-.022.492-.037.742-.037 19.217.002 39.34 0 60.187 0 .347 0 .69.024 1.013.06.256.02.372.042.494.065.1 0 .206.02.398.057v59.731c.055.703.102 1.052.119 1.003.004-.154.006-.265.006-.333v.237V1.196c0-.139 0-.215-.003-.224A.994.994 0 0 0 63.19.02a1.025 1.025 0 0 0-.217-.02H1" fill="url(#h)" transform="translate(-346.38 971.27)"/><path d="M1 0a.998.998 0 0 0-1 1.005v61.953-.14c0-.213.012-.107.031.287.034.05.091-.198.156-.718V2.413a.45.45 0 0 1 .16-.037c.252-.048.327-.097.715-.132.238-.034.487-.056.737-.056 19.25.002 39.286 0 60.173 0 .348 0 .688.036 1.001.09.244.029.356.062.47.098.091 0 .19.03.37.085v59.718c.082.653.151.957.176.884.007-.152.01-.262.01-.333v.188V1.184c0-.135 0-.21-.004-.224a.992.992 0 0 0-.819-.94 1.041 1.041 0 0 0-.217-.018H.999" fill="url(#i)" transform="translate(-346.38 971.27)"/><path d="M1 0a.998.998 0 0 0-1 1.005v61.939-.113c0-.18.015-.068.042.308.045.067.121-.149.208-.629V2.55a.312.312 0 0 1 .148-.05c.232-.063.311-.128.684-.176.234-.044.483-.074.732-.074 19.284.002 39.234 0 60.16 0 .35 0 .689.048.991.12.232.039.34.083.444.13.085 0 .176.04.341.114v59.704c.11.603.203.862.236.764a5.23 5.23 0 0 0 .014-.333v.14V1.168c0-.13-.002-.206-.006-.224a.991.991 0 0 0-.83-.927 1.066 1.066 0 0 0-.22-.017H1" fill="url(#j)" transform="translate(-346.38 971.27)"/><path d="M1 0a.998.998 0 0 0-1 1.004V62.93v-.084c0-.148.02-.029.052.328.056.084.152-.099.26-.539V2.686c.053-.04.097-.061.136-.061.212-.08.297-.16.655-.22.23-.056.477-.093.727-.093 19.317.002 39.18 0 60.147 0 .35 0 .688.06.98.151.22.047.322.102.418.162.078 0 .162.049.313.142v59.69c.137.553.253.767.295.645A4.73 4.73 0 0 0 64 62.77v.09V1.155c0-.126-.002-.202-.007-.224a.99.99 0 0 0-.843-.914A1.099 1.099 0 0 0 62.932 0H1" fill="url(#k)" transform="translate(-346.38 971.27)"/><path d="M1 0a.998.998 0 0 0-1 1.004v61.912-.056c0-.117.023.01.063.349.067.1.182-.05.312-.45V2.824c.048-.049.088-.074.123-.074.193-.095.282-.192.626-.264.225-.067.472-.11.721-.11h60.133c.352 0 .688.071.97.18a.944.944 0 0 1 .393.194c.07 0 .147.059.284.17V62.6c.164.502.304.671.354.524.014-.14.02-.25.02-.331v.042V1.14c0-.121-.002-.197-.009-.224a.99.99 0 0 0-.854-.902A1.142 1.142 0 0 0 62.918 0H1" fill="url(#l)" transform="translate(-346.38 971.27)"/><path d="M1 0a.998.998 0 0 0-1 1.004v61.898-.029c0-.084.027.049.073.37.079.117.212 0 .365-.36V2.96c.043-.057.079-.086.11-.086.174-.112.267-.225.596-.309a2.19 2.19 0 0 1 .717-.129c19.385.002 39.075 0 60.12 0 .353 0 .687.084.958.211a.81.81 0 0 1 .368.227c.063 0 .132.068.256.199v59.665c.192.452.354.576.413.404a3.11 3.11 0 0 0 .024-.33V1.125c0-.117-.004-.193-.01-.224a.99.99 0 0 0-.868-.89A1.198 1.198 0 0 0 62.905 0H1" fill="url(#m)" transform="translate(-346.38 971.27)"/><path d="M1 0a.998.998 0 0 0-1 1.003v61.885c0-.052.03.087.084.39.09.135.242.05.416-.27V3.097C.538 3.034.57 3 .599 3c.154-.127.251-.257.566-.352.217-.089.463-.148.711-.148 19.418.002 39.022 0 60.107 0 .355 0 .687.096.947.242a.723.723 0 0 1 .343.258c.056 0 .118.079.227.227v59.651c.22.402.406.482.473.285.018-.132.027-.243.027-.33V1.112c0-.113-.004-.188-.012-.224a.99.99 0 0 0-.879-.877A1.273 1.273 0 0 0 62.891 0H1.001" fill="url(#n)" transform="translate(-346.38 971.27)"/><path d="M1 0a.998.998 0 0 0-1 1.003v61.899c0-.02.035.126.094.41.101.152.273.1.468-.18V3.235c.034-.073.062-.11.087-.11.135-.143.236-.29.536-.397.213-.1.459-.166.707-.166 19.452.002 38.969 0 60.093 0 .356 0 .687.108.936.272a.678.678 0 0 1 .317.29c.05 0 .103.089.2.256v59.64c.246.352.455.386.531.165.02-.128.03-.239.03-.33V1.1c0-.108-.004-.184-.013-.224a.99.99 0 0 0-.891-.864 1.376 1.376 0 0 0-.218-.01H1" fill="url(#o)" transform="translate(-346.38 971.27)"/><path d="M1 0a.998.998 0 0 0-1 1.002v61.913c0 .013.039.165.105.432.112.168.303.148.52-.092V3.373c.029-.081.053-.123.074-.123.116-.159.222-.321.507-.44a1.52 1.52 0 0 1 .701-.185c19.486.002 38.916 0 60.08 0 .357 0 .687.12.925.302a.66.66 0 0 1 .292.323c.043 0 .089.098.171.284V63.16c.275.302.507.29.591.046.022-.125.034-.236.034-.33V1.085c0-.104-.005-.18-.016-.224a.99.99 0 0 0-.903-.852 1.514 1.514 0 0 0-.218-.008H1" fill="url(#p)" transform="translate(-346.38 971.27)"/><path d="M1 0a.998.998 0 0 0-1 1.002V62.93c0 .045.042.203.115.453.123.184.333.197.572-.003V3.51c.024-.089.045-.135.062-.135.097-.174.207-.353.478-.484.204-.122.448-.203.696-.203 19.519.002 38.863 0 60.067 0a1.4 1.4 0 0 1 .914.332c.15.103.224.225.267.355.035 0 .073.108.142.313V63.3c.302.251.557.196.65-.074a1.7 1.7 0 0 0 .037-.33V1.071c0-.1-.006-.175-.017-.224a.99.99 0 0 0-.915-.84A1.712 1.712 0 0 0 62.85 0H1" fill="url(#q)" transform="translate(-346.38 971.27)"/><path d="M1 0a.998.998 0 0 0-1 1.002v61.942c0 .077.046.242.126.473.134.201.363.246.624.086V3.647C.77 3.55.785 3.5.8 3.5a.981.981 0 0 1 .447-.529c.2-.133.444-.221.691-.221 19.553.002 38.811 0 60.053 0 .36 0 .686.144.903.362a.688.688 0 0 1 .242.388c.028 0 .059.118.114.341v59.598c.33.2.608.1.709-.194.026-.117.04-.228.04-.329V1.056c0-.095-.006-.17-.018-.224a.991.991 0 0 0-.927-.827A2.015 2.015 0 0 0 62.836 0H1" fill="url(#r)" transform="translate(-346.38 971.27)"/><path d="M1 0a.998.998 0 0 0-1 1.001v61.956c0 .11.05.281.136.494.146.218.394.296.677.176V3.784c.014-.105.026-.16.036-.16a.967.967 0 0 1 .419-.572c.196-.144.439-.24.686-.24 19.586.002 38.758 0 60.04 0 .36 0 .685.156.892.392a.73.73 0 0 1 .216.42c.021 0 .044.128.086.37v59.585c.356.15.658.005.768-.314.029-.114.044-.224.044-.328V1.042c0-.09-.007-.166-.02-.224a.992.992 0 0 0-.94-.814 2.524 2.524 0 0 0-.217-.005H1" fill="url(#s)" transform="translate(-346.38 971.27)"/><path d="M1 0a.998.998 0 0 0-1 1v61.972c0 .142.054.32.147.515a.643.643 0 0 0 .728.265V3.922c.01-.114.018-.172.025-.172a.97.97 0 0 1 .389-.617c.192-.155.434-.258.68-.258 19.62.002 38.705 0 60.027 0 .362 0 .686.168.882.422a.794.794 0 0 1 .19.453c.015 0 .03.137.057.398V63.72c.385.1.71-.09.828-.434.03-.11.047-.22.047-.328V1.028c0-.086-.007-.161-.021-.224a.994.994 0 0 0-.951-.802A3.563 3.563 0 0 0 62.809 0H1" fill="url(#t)" transform="translate(-346.38 971.27)"/><path d="M1 0a.998.998 0 0 0-1 1v61.986c0 .174.058.358.157.535a.802.802 0 0 0 .78.355V4.06c.005-.122.01-.185.013-.185a.987.987 0 0 1 .36-.66c.187-.166.429-.277.675-.277 19.653.002 38.652 0 60.013 0 .363 0 .685.18.87.452a.876.876 0 0 1 .166.485c.007 0 .015.147.028.427V63.86c.412.05.76-.186.887-.553a1.1 1.1 0 0 0 .05-.328V1.014A.996.996 0 0 0 63.014 0a6.67 6.67 0 0 0-.219 0H1" fill="url(#u)" transform="translate(-346.38 971.27)"/><path d="M1 0a.998.998 0 0 0-1 1v2h64V1.002a.998.998 0 0 0-1-1H1z" fill="url(#v)" transform="translate(-346.38 971.27)"/></g><path d="M0 1v3l2-2zM64 4l-2-2 2-1z" fill="#fddcfd" fill-opacity=".45"/><rect y="-72.245" width="64" height="64" rx="1" ry="1" fill="url(#w)" paint-order="fill markers stroke"/><path d="M63-72.245H1c-.554 0-1 .446-1 1v7.194h64v-7.194c0-.554-.446-1-1-1z" fill="url(#x)" paint-order="fill markers stroke"/><path d="M.242-72.006c-.001 0-.002.571-.002 1.604v61.91c0 .003.511.004 1.442.004.443.001.981.003 1.605.003H63.75c.005 0 .007-1.052.007-2.885.002-.481.003-1.018.003-1.604v-59.018c0-.007-1.614-.011-4.326-.011-.498-.002-1.034-.003-1.604-.003H.257m.028 1.603h63.43c.001 0 .002.967.002 2.656v58.858c0 .002-.511.003-1.44.003h-2.595a21260188.307 21260188.307 0 0 1-59.4-.003v-1.365l.002-58.703v-1.446" fill="url(#y)" paint-order="fill markers stroke"/><path d="M.249-72.008c-.006 0-.011.57-.011 1.6V-8.51c0 .01.507.016 1.43.016.438.006.976.011 1.6.011h60.451c.02 0 .032-1.043.032-2.86.006-.477.011-1.013.011-1.599v-59.007c0-.03-1.6-.047-4.29-.047a126.35 126.35 0 0 0-1.598-.011H.311m-.008 1.62h63.393c.006 0 .01.962.01 2.641v58.847c0 .006-.51.01-1.435.01H.529a1.436 1.436 0 0 1-.236-.01v-1.848c0-7.696.005-49.867.01-58.206v-1.433" fill="url(#z)" paint-order="fill markers stroke"/><path d="M.26-72.011c-.014 0-.026.568-.026 1.59v61.88c0 .023.5.036 1.408.036.432.015.969.026 1.59.026h60.434c.047 0 .074-1.027.074-2.816.015-.47.026-1.005.026-1.59v-58.988c0-.07-1.576-.111-4.224-.111a52.981 52.981 0 0 0-1.59-.026H.408m-.071 1.652h63.327c.013 0 .308.977.024 2.614v58.828c0 .013-.51.023-1.428.023H.556c-.159-.003-.243-.012-.243-.023v-2.694c0-7.587.01-49.124.024-57.336v-1.412" fill="url(#A)" paint-order="fill markers stroke"/><path d="M.277-72.017c-.027 0-.048.565-.048 1.577v61.85c0 .044.488.068 1.377.068.422.026.956.048 1.577.048h60.405c.086 0 .136-1.004.136-2.754.026-.46.048-.992.048-1.577v-58.96c0-.128-1.541-.204-4.13-.204a28.16 28.16 0 0 0-1.577-.048H.548M.385-70.32h63.232c.024 0 .243.953.044 2.576v58.8c0 .023-.507.042-1.417.042H57.13L.594-8.903C.43-8.908.341-8.924.341-8.944v-3.92c0-7.428.02-48.047.044-56.076v-1.38" fill="url(#B)" paint-order="fill markers stroke"/><path d="M.298-72.023c-.042 0-.076.562-.076 1.56v61.811c0 .07.473.109 1.335.109.41.042.942.076 1.56.076h60.369c.137 0 .216-.973.216-2.67.043-.446.077-.976.077-1.56v-58.925c0-.204-1.495-.325-4.006-.325a17.01 17.01 0 0 0-1.56-.076H.733m-.285 1.756h63.107c.039 0 .212.93.07 2.525v58.764c0 .038-.503.068-1.401.068h-6.707c-10.774 0-51.599 0-54.872-.002-.171-.007-.267-.034-.267-.066v-5.533c0-7.22.032-46.629.07-54.417v-1.338" fill="url(#C)" paint-order="fill markers stroke"/><path d="M.326-72.032c-.063 0-.113.557-.113 1.538V-8.73c0 .102.455.159 1.284.159.394.062.922.112 1.539.112h60.32c.202 0 .318-.936.318-2.567.062-.429.113-.956.113-1.538v-58.88c0-.298-1.437-.476-3.851-.476a11.11 11.11 0 0 0-1.538-.112H.96m-.436 1.83h62.951c.057 0 .103.904.103 2.462v58.72c0 .054-.5.098-1.382.098h-8.693c-10.361 0-49.65 0-52.798-.002-.18-.011-.284-.05-.284-.097v-7.546c0-6.96.046-44.86.104-52.347v-1.287" fill="url(#D)" paint-order="fill markers stroke"/><path d="M.358-72.042c-.086 0-.155.552-.155 1.512v61.707c0 .142.433.22 1.222.22.375.085.899.155 1.512.155h60.266c.28 0 .44-.891.44-2.443.085-.409.155-.931.155-1.513v-58.825c0-.413-1.368-.658-3.665-.658a7.648 7.648 0 0 0-1.512-.155H1.236m-.617 1.92h62.763c.079 0 .218.88.142 2.385v58.664c0 .076-.495.137-1.36.137h-11.08C41.222-8.936 3.78-8.937.78-8.94c-.191-.015-.303-.069-.303-.133v-9.965c0-6.647.063-42.735.142-49.86v-1.224" fill="url(#E)" paint-order="fill markers stroke"/><path d="M.396-72.054c-.114 0-.205.546-.205 1.482v61.64c0 .188.407.291 1.149.291a5 5 0 0 0 1.482.206h60.2c.37 0 .581-.838.581-2.298.114-.384.206-.903.206-1.482v-58.761c0-.547-1.286-.872-3.447-.872a5.47 5.47 0 0 0-1.481-.205H1.558m-.83 2.024H63.27c.105 0 .19.85.19 2.296v58.6c0 .1-.491.182-1.335.182H48.253c-9.282 0-44.56-.002-47.388-.006-.203-.02-.327-.09-.327-.176v-12.796c0-6.281.085-40.247.19-46.949v-1.152" fill="url(#F)" paint-order="fill markers stroke"/><path d="M.44-72.068c-.146 0-.263.538-.263 1.447v61.564c0 .24.378.372 1.066.372.327.146.841.263 1.447.263h60.126c.473 0 .744-.777.744-2.131.146-.356.263-.87.263-1.447v-58.69c0-.7-1.192-1.116-3.197-1.116a4.032 4.032 0 0 0-1.446-.263H1.93M.854-69.924h62.29c.135 0 .243.817.243 2.193v58.528c0 .13-.485.233-1.304.233H45.006c-8.615 0-41.413-.002-44.04-.007-.218-.025-.354-.116-.354-.226v-16.045c0-5.86.108-37.392.242-43.608v-1.068" fill="url(#G)" paint-order="fill markers stroke"/><path d="M.49-72.084c-.182 0-.329.53-.329 1.407v61.478c0 .3.345.464.972.464.298.182.806.329 1.408.329h60.04c.59 0 .93-.709.93-1.943.181-.325.327-.832.327-1.408v-58.606c0-.873-1.087-1.392-2.914-1.392-.335-.182-.842-.329-1.407-.329H2.347m-1.35 2.28h62.006c.168 0 .336.78.302 2.078v58.444c0 .16-.478.29-1.27.29h-20.7c-7.86 0-37.855-.003-40.256-.008-.234-.032-.384-.146-.384-.282v-19.716c0-5.387.135-34.166.302-39.832v-.974" fill="url(#H)" paint-order="fill markers stroke"/><path d="M.545-72.101c-.222 0-.401.521-.401 1.363v61.381c0 .366.307.567.866.567.266.222.768.401 1.364.401H62.32c.72 0 1.134-.632 1.134-1.732.222-.29.401-.79.401-1.364v-58.514c0-1.066-.97-1.701-2.599-1.701-.299-.222-.799-.401-1.363-.401H2.814m-1.658 2.43h61.688c.204 0 .369.739.369 1.95V-9.37c0 .196-.471.354-1.233.354H37.236c-7.017 0-33.883-.003-36.03-.01-.253-.039-.418-.178-.418-.344v-23.815c0-4.857.164-30.564.368-35.617v-.869" fill="url(#I)" paint-order="fill markers stroke"/><path d="M.606-72.121c-.267 0-.481.511-.481 1.314v61.274c0 .44.266.681.75.681.23.267.724.482 1.315.482h59.843c.865 0 1.361-.548 1.361-1.5.267-.251.482-.744.482-1.315v-58.412c0-1.28-.84-2.043-2.25-2.043-.26-.266-.752-.481-1.315-.481H3.33m-1.998 2.598h61.336c.246 0 .463.692.443 1.806v58.25c0 .236-.463.426-1.19.426H32.706c-6.087 0-29.493-.005-31.363-.013C1.07-9.1.888-9.267.888-9.467v-28.346c0-4.271.197-26.583.442-30.958v-.752" fill="url(#J)" paint-order="fill markers stroke"/><path d="M.673-72.142c-.316 0-.57.5-.57 1.261v61.157c0 .52.221.806.623.806.191.315.677.569 1.262.569h59.728c1.023 0 1.61-.454 1.61-1.246.316-.208.57-.693.57-1.26v-58.302c0-1.515-.697-2.416-1.868-2.416-.215-.316-.7-.57-1.26-.57H3.893m-2.37 2.781h60.95c.29 0 .54.642.524 1.65v58.138c0 .28-.454.504-1.144.504H27.74c-5.067 0-24.681-.005-26.246-.015-.294-.055-.496-.252-.496-.49v-33.31c0-3.63.233-22.22.523-25.852v-.624" fill="url(#K)" paint-order="fill markers stroke"/><path d="M.746-72.165c-.369 0-.666.488-.666 1.203v61.03c0 .607.172.941.485.941.148.369.625.665 1.203.665h59.604c1.196 0 1.882-.353 1.882-.968.369-.162.665-.638.665-1.203v-58.179c0-1.77-.541-2.823-1.452-2.823-.167-.369-.643-.665-1.203-.665H4.51m-2.776 2.98h60.532c.339 0 .624.586.612 1.479V-9.69c0 .326-.444.588-1.095.588H22.338a10357 10357 0 0 1-20.676-.017c-.318-.063-.54-.294-.54-.571v-38.715c0-2.93.272-17.471.611-20.295v-.485" fill="url(#L)" paint-order="fill markers stroke"/><path d="M.824-72.19c-.426 0-.768.475-.768 1.14v60.892c0 .702.118 1.088.334 1.088.102.426.57.769 1.14.769H61c1.382 0 2.176-.244 2.176-.668.426-.112.769-.58.769-1.14v-58.049c0-2.046-.374-3.263-1.003-3.263-.115-.426-.582-.769-1.14-.769H5.176m-3.215 3.195h60.08c.391 0 .715.527.707 1.296v57.885c0 .377-.434.68-1.041.68H16.494c-2.755 0-12.78-.007-13.652-.02-.344-.074-1.589-.34-1.589-.66v-44.561c0-2.175.315-12.334.707-14.284v-.335" fill="url(#M)" paint-order="fill markers stroke"/><path d="M.91-72.217c-.489 0-.881.461-.881 1.072V-10.4c0 .805.061 1.246.173 1.246.053.488.51.88 1.072.88H60.6c1.583 0 2.492-.125 2.492-.345.488-.058.88-.514.88-1.072V-67.6c0-2.343-.193-3.738-.518-3.738-.06-.487-.517-.88-1.073-.88H5.892M2.205-68.79h59.59c.45 0 .817.463.81 1.097V-9.95c0 .432-.421.78-.982.78h-51.42c-1.461 0-6.682-.009-7.168-.024-.371-.084-1.64-.39-1.64-.756v-50.852c0-1.361.36-6.806.81-7.814v-.173" fill="url(#N)" paint-order="fill markers stroke"/><path d="M1-72.245c-.554 0-1 .446-1 1v62c0 .554.446 1 1 1h62c.554 0 1-.446 1-1v-62c0-.554-.446-1-1-1zm1.466 3.676h59.068c.51 0 .92.394.92.885v57.59c0 .49-.41.885-.92.885H2.466c-.51 0-.92-.394-.92-.884v-57.591c0-.49.41-.885.92-.885z" fill="url(#O)" paint-order="fill markers stroke"/><path d="M.24-72.005v63.52h63.52v-63.52zm.04 1.598h63.44v61.522H.28z" fill="url(#P)" paint-order="fill markers stroke"/><path d="M.24-70.966v62.481h63.52v-62.481zm.04 1.278h63.44v60.803H.28z" fill="url(#Q)" paint-order="fill markers stroke"/><path d="M41.812-44.245a11.01 11.01 0 0 0-9.813-6c-6.075 0-11 4.925-11 11s4.925 11 11 11a11.01 11.01 0 0 0 9.813-6H64v-10z" fill="url(#R)" fill-rule="evenodd"/><path d="m33-57.245-2 5-5.011 1.871-3.426-2.559-4.25 4.25.856 4.93L19-40.246l-2.5 1h-1.375c-1.182 0-1.035 1.668-2.125 2.125l-4.625 1.969 5.125 5.156c.388.46.97.75 1.625.75h4.281l1.031 2.5-2.125 4.938 4.25 4.25 4.938-2.126 3.5 1.438 2 5h6l2-5 3.5-1.438 4.937 2.125 4.25-4.25-2.125-4.937 1.438-3.5h-7.188a11.01 11.01 0 0 1-9.812 6c-3.862 0-5.326 2.01-7.29-1l8.29.5c1.18.071 7.346-6.193 6.2-5.901L24.223-25.81c-.605.154-4.609-9.174-2.28-8.976L19-40.245l-.825-2.085c.744-3 9.164-10.915 13.825-10.915 4.276 0 10.086 5.436 11.906 9h5.093l4.688-4.438-4.25-4.25-4.938 2.125-3.5-1.437-2-5z" color="#000" fill="#240500" fill-opacity=".116"/><path d="m29 12-2 5-3.5 1.438-4.938-2.125-4.25 4.25 2.126 4.937L15 29l-5 2v6l5 2 1.438 3.5-2.125 4.938 4.25 4.25 4.937-2.126L27 51l2 5h6l2-5 3.5-1.438 4.938 2.126 4.25-4.25-2.126-4.938L49 39h-7.188A11.01 11.01 0 0 1 32 45c-6.075 0-11-4.925-11-11s4.925-11 11-11a11.01 11.01 0 0 1 9.813 6H49l-1.438-3.5 2.126-4.938-4.25-4.25-4.938 2.125L37 17l-2-5z" color="#000" fill="url(#S)" transform="translate(0 -73.245)"/><g fill="#fff"><g opacity=".267" color="#000"><path d="M46-45.245v1h.5zm0 11v1l.5-1zM35-18.245h-6l-1-6-2-1h12l-2 1z"/></g><path d="M29-60.245h6l1 6 2 1H26l2-1zM11-36.245v-6l6-1 1-2v12l-1-2z" color="#000"/><g opacity=".886" color="#000"><path d="m26.343-53.387-2.828-1.414L27-56.245zM18-45.245l-3 1 1.444-3.485z"/></g><g opacity=".545" color="#000"><path d="m44.728-56.216 4.243 4.243-3.536 4.95.707 2.12-8.485-8.485 2.121.707zM19.272-22.274l-4.243-4.243 3.536-4.95-.707-2.12 8.485 8.485-2.121-.707z"/></g><path d="M26.188-53.245 18-45.058v11.625l8.188 8.188h11.625l8.188-8.188v-.812h-4.188a11.01 11.01 0 0 1-9.813 6c-6.075 0-11-4.925-11-11s4.925-11 11-11a11.01 11.01 0 0 1 9.813 6h4.188v-.813l-8.188-8.187z" color="#000" opacity=".668"/><g opacity=".806" color="#000"><path d="m14.322-52.68.707.707 3.536 4.95-.708 2.121-1.414-2.828zM19.272-56.216l-.707-.707 4.95 2.121 2.828 1.414-2.121.707z"/></g><g opacity=".556" color="#000"><path d="M10-36.245h1l6 1 1 2-3-1zM35-60.245v-1l2 5 1 3-2-1z"/></g><g opacity=".327" color="#000"><path d="m48.971-26.517-4.243 4.243-4.95-3.536-2.12.707 8.485-8.485-.707 2.121zM18.565-21.567l.707-.707 4.95-3.536 2.121.707-2.828 1.415zM48.971-51.973l.707-.707-2.121 4.95-1.414 2.828-.708-2.121z"/></g><g opacity=".157" color="#000"><path d="M35-17.245v-1l1-6 2-1-1 3zM46.5-34.245l-.5 1 3-1z"/></g><g opacity=".323" color="#000"><path d="m49.678-25.81-.707-.707-3.536-4.95.707-2.121 1.415 2.828zM44.728-22.274l.707.707-4.95-2.121-2.828-1.414 2.121-.708z"/></g><g opacity=".484" color="#000"><path d="m46-45.245.5 1H49zM29-18.245v1l-2-5-1-3 2 1z"/></g><path d="M29-61.245v1l-1 6-2 1 1-3zM11-42.245h-1l5-2 3-1-1 2zM45.435-56.923l-.707.707-4.95 3.536-2.121-.708 2.828-1.414zM15.029-26.517l-.707.707 2.121-4.95 1.414-2.828.708 2.121z" color="#000"/><path d="m15.029-51.973 4.243-4.243 4.95 3.536 2.12-.707-8.485 8.485.707-2.121z" color="#000"/><path d="m45.438-21.557 4.25-4.25-.717-.71-4.243 4.243z" color="#000" opacity=".135"/><path d="M28.995-17.236h6.01L35-18.245h-6z" color="#000" opacity=".241"/><g fill-opacity=".417" color="#000"><path d="m49.688-52.683-4.25-4.25-.71.717 4.243 4.243zM14.312-25.807l4.25 4.25.71-.717-4.243-4.243z"/></g><g opacity=".85" color="#000"><path d="M35.005-61.254h-6.01L29-60.245h6zM9.991-42.25v6.01L11-36.245v-6z"/></g><path d="m18.562-56.933-4.25 4.25.717.71 4.243-4.243z" color="#000"/></g><path d="m12.5-43.245-2.5 1v6l5 2 .406 1h7.375a10.953 10.953 0 0 1-1.78-6c0-1.414.295-2.759.78-4z" color="#000" fill-opacity=".18"/><path d="M13 29h17c2.77 0 5 2.23 5 5s-2.23 5-5 5H13c-2.77 0-5-2.23-5-5s2.23-5 5-5z" fill="url(#T)" transform="translate(0 -73.245)"/><path d="M13 30h17c2.216 0 4 1.784 4 4s-1.784 4-4 4H13c-2.216 0-4-1.784-4-4s1.784-4 4-4z" fill="url(#U)" transform="translate(0 -73.245)"/><path d="M24 31h6c1.662 0 3 1.338 3 3s-1.338 3-3 3h-6c-1.662 0-3-1.338-3-3s1.338-3 3-3z" fill="url(#V)" transform="translate(0 -73.245)"/><g id="Y" transform="translate(0 -74.245)" color="#000"><circle cx="7" cy="10.122" r="3.049" fill="url(#W)"/><circle cx="6" cy="9" r="2" fill="url(#X)"/></g><use transform="translate(52)" width="100%" height="100%" xlink:href="#Y"/><use transform="translate(0 52)" width="100%" height="100%" xlink:href="#Y"/><use transform="translate(52 52)" width="100%" height="100%" xlink:href="#Y"/><rect transform="scale(-1 1)" x="-139.44" width="64" height="64" rx="1" ry="1" fill="url(#Z)" paint-order="fill markers stroke"/><g><path d="M1 0C.446 0 0 .446 0 1v62-.224V63 2h1.752c19.15.002 39.445 0 60.213 0H64v61-.334V63 1a.998.998 0 0 0-1-1z" fill="url(#aa)" transform="translate(75.442 .002)"/><path d="M1 0a.998.998 0 0 0-1 1.006v61.98-.197c0-.277.004-.184.01.246.012.016.03-.297.052-.897v-60c.072-.009.133-.013.185-.013.29-.016.357-.032.774-.044.246-.011.496-.019.747-.019 19.183.002 39.392 0 60.2 0 .346 0 .689.012 1.023.03.268.01.389.02.52.033.106 0 .22.01.427.028v59.744c.027.754.05 1.148.059 1.123l.003-.334v.286V1.21c0-.143 0-.22-.002-.224A.996.996 0 0 0 62.986 0H1" fill="url(#ab)" transform="translate(75.442 .002)"/><path d="M1 0a.998.998 0 0 0-1 1.006v61.966-.169c0-.245.008-.145.021.266.022.034.06-.247.104-.807V2.274a.744.744 0 0 1 .173-.025c.27-.031.341-.064.743-.088.242-.022.492-.037.742-.037 19.217.002 39.34 0 60.187 0 .347 0 .69.024 1.013.06.256.02.372.042.494.065.1 0 .206.02.398.057v59.731c.055.703.102 1.052.119 1.003.004-.154.006-.265.006-.333v.237V1.196c0-.139 0-.215-.003-.224A.994.994 0 0 0 63.19.02a1.025 1.025 0 0 0-.217-.02H1" fill="url(#ac)" transform="translate(75.442 .002)"/><path d="M1 0a.998.998 0 0 0-1 1.005v61.953-.14c0-.213.012-.107.031.287.034.05.091-.198.156-.718V2.413a.45.45 0 0 1 .16-.037c.252-.048.327-.097.715-.132.238-.034.487-.056.737-.056 19.25.002 39.286 0 60.173 0 .348 0 .688.036 1.001.09.244.029.356.062.47.098.091 0 .19.03.37.085v59.718c.082.653.151.957.176.884.007-.152.01-.262.01-.333v.188V1.184c0-.135 0-.21-.004-.224a.992.992 0 0 0-.819-.94 1.041 1.041 0 0 0-.217-.018H.999" fill="url(#ad)" transform="translate(75.442 .002)"/><path d="M1 0a.998.998 0 0 0-1 1.005v61.939-.113c0-.18.015-.068.042.308.045.067.121-.149.208-.629V2.55a.312.312 0 0 1 .148-.05c.232-.063.311-.128.684-.176.234-.044.483-.074.732-.074 19.284.002 39.234 0 60.16 0 .35 0 .689.048.991.12.232.039.34.083.444.13.085 0 .176.04.341.114v59.704c.11.603.203.862.236.764a5.23 5.23 0 0 0 .014-.333v.14V1.168c0-.13-.002-.206-.006-.224a.991.991 0 0 0-.83-.927 1.066 1.066 0 0 0-.22-.017H1" fill="url(#ae)" transform="translate(75.442 .002)"/><path d="M1 0a.998.998 0 0 0-1 1.004V62.93v-.084c0-.148.02-.029.052.328.056.084.152-.099.26-.539V2.686c.053-.04.097-.061.136-.061.212-.08.297-.16.655-.22.23-.056.477-.093.727-.093 19.317.002 39.18 0 60.147 0 .35 0 .688.06.98.151.22.047.322.102.418.162.078 0 .162.049.313.142v59.69c.137.553.253.767.295.645A4.73 4.73 0 0 0 64 62.77v.09V1.155c0-.126-.002-.202-.007-.224a.99.99 0 0 0-.843-.914A1.099 1.099 0 0 0 62.932 0H1" fill="url(#af)" transform="translate(75.442 .002)"/><path d="M1 0a.998.998 0 0 0-1 1.004v61.912-.056c0-.117.023.01.063.349.067.1.182-.05.312-.45V2.824c.048-.049.088-.074.123-.074.193-.095.282-.192.626-.264.225-.067.472-.11.721-.11h60.133c.352 0 .688.071.97.18a.944.944 0 0 1 .393.194c.07 0 .147.059.284.17V62.6c.164.502.304.671.354.524.014-.14.02-.25.02-.331v.042V1.14c0-.121-.002-.197-.009-.224a.99.99 0 0 0-.854-.902A1.142 1.142 0 0 0 62.918 0H1" fill="url(#ag)" transform="translate(75.442 .002)"/><path d="M1 0a.998.998 0 0 0-1 1.004v61.898-.029c0-.084.027.049.073.37.079.117.212 0 .365-.36V2.96c.043-.057.079-.086.11-.086.174-.112.267-.225.596-.309a2.19 2.19 0 0 1 .717-.129c19.385.002 39.075 0 60.12 0 .353 0 .687.084.958.211a.81.81 0 0 1 .368.227c.063 0 .132.068.256.199v59.665c.192.452.354.576.413.404a3.11 3.11 0 0 0 .024-.33V1.125c0-.117-.004-.193-.01-.224a.99.99 0 0 0-.868-.89A1.198 1.198 0 0 0 62.905 0H1" fill="url(#ah)" transform="translate(75.442 .002)"/><path d="M1 0a.998.998 0 0 0-1 1.003v61.885c0-.052.03.087.084.39.09.135.242.05.416-.27V3.097C.538 3.034.57 3 .599 3c.154-.127.251-.257.566-.352.217-.089.463-.148.711-.148 19.418.002 39.022 0 60.107 0 .355 0 .687.096.947.242a.723.723 0 0 1 .343.258c.056 0 .118.079.227.227v59.651c.22.402.406.482.473.285.018-.132.027-.243.027-.33V1.112c0-.113-.004-.188-.012-.224a.99.99 0 0 0-.879-.877A1.273 1.273 0 0 0 62.891 0H1.001" fill="url(#ai)" transform="translate(75.442 .002)"/><path d="M1 0a.998.998 0 0 0-1 1.003v61.899c0-.02.035.126.094.41.101.152.273.1.468-.18V3.235c.034-.073.062-.11.087-.11.135-.143.236-.29.536-.397.213-.1.459-.166.707-.166 19.452.002 38.969 0 60.093 0 .356 0 .687.108.936.272a.678.678 0 0 1 .317.29c.05 0 .103.089.2.256v59.64c.246.352.455.386.531.165.02-.128.03-.239.03-.33V1.1c0-.108-.004-.184-.013-.224a.99.99 0 0 0-.891-.864 1.376 1.376 0 0 0-.218-.01H1" fill="url(#aj)" transform="translate(75.442 .002)"/><path d="M1 0a.998.998 0 0 0-1 1.002v61.913c0 .013.039.165.105.432.112.168.303.148.52-.092V3.373c.029-.081.053-.123.074-.123.116-.159.222-.321.507-.44a1.52 1.52 0 0 1 .701-.185c19.486.002 38.916 0 60.08 0 .357 0 .687.12.925.302a.66.66 0 0 1 .292.323c.043 0 .089.098.171.284V63.16c.275.302.507.29.591.046.022-.125.034-.236.034-.33V1.085c0-.104-.005-.18-.016-.224a.99.99 0 0 0-.903-.852 1.514 1.514 0 0 0-.218-.008H1" fill="url(#ak)" transform="translate(75.442 .002)"/><path d="M1 0a.998.998 0 0 0-1 1.002V62.93c0 .045.042.203.115.453.123.184.333.197.572-.003V3.51c.024-.089.045-.135.062-.135.097-.174.207-.353.478-.484.204-.122.448-.203.696-.203 19.519.002 38.863 0 60.067 0a1.4 1.4 0 0 1 .914.332c.15.103.224.225.267.355.035 0 .073.108.142.313V63.3c.302.251.557.196.65-.074a1.7 1.7 0 0 0 .037-.33V1.071c0-.1-.006-.175-.017-.224a.99.99 0 0 0-.915-.84A1.712 1.712 0 0 0 62.85 0H1" fill="url(#al)" transform="translate(75.442 .002)"/><path d="M1 0a.998.998 0 0 0-1 1.002v61.942c0 .077.046.242.126.473.134.201.363.246.624.086V3.647C.77 3.55.785 3.5.8 3.5a.981.981 0 0 1 .447-.529c.2-.133.444-.221.691-.221 19.553.002 38.811 0 60.053 0 .36 0 .686.144.903.362a.688.688 0 0 1 .242.388c.028 0 .059.118.114.341v59.598c.33.2.608.1.709-.194.026-.117.04-.228.04-.329V1.056c0-.095-.006-.17-.018-.224a.991.991 0 0 0-.927-.827A2.015 2.015 0 0 0 62.836 0H1" fill="url(#am)" transform="translate(75.442 .002)"/><path d="M1 0a.998.998 0 0 0-1 1.001v61.956c0 .11.05.281.136.494.146.218.394.296.677.176V3.784c.014-.105.026-.16.036-.16a.967.967 0 0 1 .419-.572c.196-.144.439-.24.686-.24 19.586.002 38.758 0 60.04 0 .36 0 .685.156.892.392a.73.73 0 0 1 .216.42c.021 0 .044.128.086.37v59.585c.356.15.658.005.768-.314.029-.114.044-.224.044-.328V1.042c0-.09-.007-.166-.02-.224a.992.992 0 0 0-.94-.814 2.524 2.524 0 0 0-.217-.005H1" fill="url(#an)" transform="translate(75.442 .002)"/><path d="M1 0a.998.998 0 0 0-1 1v61.972c0 .142.054.32.147.515a.643.643 0 0 0 .728.265V3.922c.01-.114.018-.172.025-.172a.97.97 0 0 1 .389-.617c.192-.155.434-.258.68-.258 19.62.002 38.705 0 60.027 0 .362 0 .686.168.882.422a.794.794 0 0 1 .19.453c.015 0 .03.137.057.398V63.72c.385.1.71-.09.828-.434.03-.11.047-.22.047-.328V1.028c0-.086-.007-.161-.021-.224a.994.994 0 0 0-.951-.802A3.563 3.563 0 0 0 62.809 0H1" fill="url(#ao)" transform="translate(75.442 .002)"/><path d="M1 0a.998.998 0 0 0-1 1v61.986c0 .174.058.358.157.535a.802.802 0 0 0 .78.355V4.06c.005-.122.01-.185.013-.185a.987.987 0 0 1 .36-.66c.187-.166.429-.277.675-.277 19.653.002 38.652 0 60.013 0 .363 0 .685.18.87.452a.876.876 0 0 1 .166.485c.007 0 .015.147.028.427V63.86c.412.05.76-.186.887-.553a1.1 1.1 0 0 0 .05-.328V1.014A.996.996 0 0 0 63.014 0a6.67 6.67 0 0 0-.219 0H1" fill="url(#ap)" transform="translate(75.442 .002)"/><path d="M1 0a.998.998 0 0 0-1 1v2h64V1.002a.998.998 0 0 0-1-1H1z" fill="url(#aq)" transform="translate(75.442 .002)"/></g><g><path d="M31.982 11.268c-1.234 0-2.16.098-2.633.26-.473.162-.473.161-.566.51-.47 1.962-.937 3.543-1.627 4.878-.687 1.329-1.644 2.405-2.903 3.143v.004c0 .008-.026.015-.037.023-1.269.723-2.684 1.013-4.18.944-1.51-.07-3.121-.463-5.072-1.043l.03.013c-.35-.093-.346-.096-.723.233-.377.328-.922 1.082-1.54 2.15-.616 1.069-1.002 1.916-1.099 2.406-.097.49-.085.495.17.75 1.462 1.387 2.6 2.587 3.41 3.85.808 1.26 1.259 2.625 1.268 4.086l.002.021v.024c0 1.46-.462 2.834-1.27 4.094-.81 1.265-1.952 2.456-3.417 3.845-.256.256-.25.252-.155.743.097.49.475 1.341 1.092 2.41.617 1.068 1.157 1.822 1.533 2.15.377.329.386.326.735.233 1.93-.573 3.538-.958 5.037-1.028 1.495-.07 2.91.22 4.18.942 0 .003-.001.015.027.017 0 .003.023.005.023.01v.006c1.26.738 2.22 1.814 2.906 3.143.69 1.334 1.157 2.913 1.627 4.877.095.348.094.347.567.51.473.161 1.399.263 2.633.263 1.233 0 2.157-.102 2.63-.264.473-.162.47-.161.563-.51.47-1.962.94-3.541 1.63-4.876.688-1.329 1.644-2.405 2.903-3.143v-.006c0-.005.028-.004.028-.01 0-.003-.001-.015.027-.017 1.27-.723 2.685-1.013 4.18-.944 1.51.07 3.118.46 5.068 1.04l-.03-.01c.35.093.347.096.723-.233.377-.328.926-1.082 1.543-2.15.617-1.069 1-1.92 1.096-2.41.097-.49.09-.495-.162-.75-1.462-1.386-2.6-2.583-3.41-3.846-.808-1.26-1.26-2.625-1.27-4.086v-.045c0-1.46.462-2.832 1.27-4.092.81-1.265 1.948-2.458 3.414-3.847.255-.256.252-.254.158-.745-.097-.49-.475-1.339-1.092-2.408-.617-1.068-1.16-1.822-1.537-2.15-.376-.329-.382-.326-.73-.233-1.93.573-3.539.954-5.037 1.024-1.495.07-2.91-.215-4.18-.938 0-.003 0-.007-.028-.01 0-.002-.027-.008-.027-.013v-.004c-1.259-.738-2.217-1.814-2.904-3.143-.69-1.335-1.155-2.916-1.625-4.879-.095-.348-.094-.347-.567-.51-.473-.161-1.399-.259-2.632-.26zM32 27.067a6.433 6.433 0 0 1 6.433 6.434A6.433 6.433 0 0 1 32 39.934a6.433 6.433 0 0 1-6.434-6.433A6.433 6.433 0 0 1 32 27.067z" fill="#afafc0" style="-inkscape-stroke:none;font-variation-settings:normal"/><g fill="#130044" fill-opacity=".03" opacity=".594"><path d="M31.982 25.09c-1.234 0-2.16.098-2.633.26-.473.162-.473.161-.566.51-.47 1.962-.937 3.543-1.627 4.878-.687 1.329-1.643 2.405-2.902 3.143v.004c0 .008-.027.015-.038.023-1.269.723-2.684 1.013-4.18.944-1.51-.07-3.121-.464-5.072-1.043l.03.013c-.349-.093-.346-.096-.723.233-.376.328-.922 1.082-1.539 2.15-.617 1.069-1.003 1.916-1.1 2.406-.097.491-.085.495.17.75 1.462 1.387 2.6 2.587 3.41 3.85.808 1.26 1.259 2.625 1.268 4.086l.002.021v.024c0 1.46-.462 2.834-1.27 4.094-.81 1.265-1.952 2.456-3.417 3.845-.256.256-.25.252-.155.743.097.49.475 1.341 1.092 2.41.617 1.068 1.157 1.822 1.533 2.15.377.329.386.326.735.233 1.93-.573 3.538-.958 5.037-1.028 1.495-.07 2.91.22 4.18.942 0 .003-.001.014.027.017 0 .003.023.004.023.01v.006c1.26.738 2.22 1.814 2.906 3.142.69 1.335 1.157 2.914 1.627 4.877.095.349.094.348.567.51.473.162 1.399.264 2.633.264 1.233 0 2.157-.102 2.63-.264.473-.162.47-.161.563-.51.47-1.962.94-3.542 1.63-4.877.688-1.328 1.644-2.404 2.903-3.142v-.006c0-.005.028-.004.028-.01 0-.003-.001-.015.027-.017 1.27-.723 2.685-1.013 4.18-.944 1.51.07 3.118.46 5.068 1.04l-.03-.01c.35.093.346.096.723-.233s.926-1.082 1.543-2.15 1-1.92 1.096-2.41c.097-.49.09-.495-.162-.75-1.462-1.386-2.6-2.583-3.41-3.846-.808-1.26-1.26-2.625-1.27-4.086v-.045c0-1.46.462-2.832 1.27-4.092.81-1.265 1.948-2.458 3.414-3.847.255-.256.252-.254.158-.744-.097-.491-.475-1.34-1.092-2.409-.617-1.068-1.16-1.822-1.537-2.15s-.382-.326-.73-.233c-1.93.573-3.539.954-5.038 1.024-1.495.07-2.91-.215-4.18-.938 0-.003.001-.007-.027-.01 0-.002-.027-.008-.027-.013v-.004c-1.259-.738-2.217-1.814-2.904-3.143-.69-1.335-1.155-2.916-1.625-4.879-.095-.348-.094-.347-.567-.51-.473-.161-1.399-.259-2.632-.259zM32 40.889a6.433 6.433 0 0 1 6.433 6.434A6.433 6.433 0 0 1 32 53.756a6.433 6.433 0 0 1-6.433-6.434A6.433 6.433 0 0 1 32 40.889" style="-inkscape-stroke:none;font-variation-settings:normal"/><path d="M31.982 21.634c-1.234 0-2.16.098-2.633.26-.473.162-.473.161-.566.51-.47 1.962-.937 3.543-1.627 4.878-.687 1.329-1.643 2.405-2.902 3.143v.004c0 .008-.027.015-.038.023-1.27.723-2.684 1.013-4.18.944-1.51-.07-3.121-.464-5.072-1.043l.03.013c-.349-.093-.346-.096-.723.233s-.922 1.082-1.539 2.15c-.617 1.069-1.003 1.916-1.1 2.406-.097.491-.085.495.17.75 1.462 1.387 2.6 2.587 3.41 3.85.808 1.26 1.259 2.625 1.268 4.086l.002.021v.024c0 1.46-.462 2.834-1.27 4.094-.81 1.266-1.952 2.456-3.417 3.845-.256.256-.25.252-.155.743.098.49.475 1.341 1.092 2.41.617 1.068 1.157 1.822 1.533 2.15.377.329.386.326.735.233 1.93-.573 3.538-.958 5.037-1.028 1.495-.07 2.91.22 4.18.942 0 .003 0 .015.027.017 0 .003.023.005.023.01v.006c1.26.738 2.22 1.814 2.906 3.143.69 1.335 1.157 2.913 1.627 4.876.095.349.094.348.567.51.473.162 1.399.264 2.633.264s2.157-.102 2.63-.264c.473-.162.47-.161.563-.51.47-1.962.94-3.541 1.63-4.876.688-1.33 1.644-2.405 2.903-3.143v-.006c0-.005.027-.004.027-.01 0-.003 0-.015.028-.017 1.27-.723 2.685-1.013 4.18-.944 1.51.07 3.118.46 5.068 1.04l-.03-.01c.35.093.346.096.723-.233s.926-1.082 1.543-2.15c.617-1.069 1-1.92 1.096-2.41.097-.49.09-.495-.162-.75-1.462-1.386-2.6-2.583-3.41-3.846-.808-1.26-1.26-2.625-1.27-4.086v-.045c0-1.46.462-2.832 1.27-4.092.81-1.266 1.948-2.458 3.414-3.847.255-.256.252-.254.158-.745-.097-.49-.475-1.34-1.092-2.408-.617-1.068-1.16-1.822-1.537-2.15-.377-.329-.382-.326-.73-.233-1.931.573-3.539.954-5.038 1.024-1.495.07-2.91-.215-4.18-.938 0-.003.001-.007-.027-.01 0-.003-.027-.008-.027-.013v-.004c-1.259-.738-2.217-1.814-2.904-3.143-.69-1.335-1.155-2.916-1.625-4.879-.095-.348-.094-.347-.567-.51-.473-.161-1.399-.259-2.632-.259h-.02M32 37.433c.426 0 .836.17 1.137.47 1.28 0 2.507.509 3.412 1.414.302.302.471.71.471 1.138a4.824 4.824 0 0 1 1.413 3.411c0 .427-.17.836-.47 1.138 0 1.28-.51 2.507-1.414 3.412a1.61 1.61 0 0 1-1.138.471A4.825 4.825 0 0 1 32 50.3a1.61 1.61 0 0 1-1.138-.471 4.825 4.825 0 0 1-3.412-1.413 1.61 1.61 0 0 1-.471-1.138 4.824 4.824 0 0 1-1.413-3.412c0-.426.17-.836.471-1.137 0-1.28.508-2.507 1.413-3.412a1.61 1.61 0 0 1 1.138-.471A4.825 4.825 0 0 1 32 37.433" style="-inkscape-stroke:none;font-variation-settings:normal"/><path d="M31.982 20.203c-1.234 0-2.16.098-2.633.26-.473.162-.473.161-.566.51-.47 1.962-.937 3.543-1.627 4.878-.687 1.329-1.643 2.405-2.902 3.143v.004c-.001.008-.027.015-.038.023-1.27.723-2.684 1.013-4.18.944-1.51-.07-3.121-.464-5.072-1.043l.03.013c-.349-.093-.346-.096-.723.233s-.922 1.082-1.539 2.15c-.617 1.069-1.003 1.916-1.1 2.406-.097.491-.085.495.17.75 1.462 1.387 2.6 2.587 3.41 3.85.808 1.26 1.259 2.625 1.268 4.086l.002.022v.023c0 1.46-.462 2.834-1.27 4.094-.811 1.266-1.952 2.456-3.417 3.845-.256.256-.25.252-.155.743.098.49.475 1.341 1.092 2.41.617 1.068 1.157 1.822 1.533 2.15.377.329.386.326.735.233 1.93-.573 3.538-.958 5.037-1.028 1.495-.07 2.91.22 4.18.942 0 .003 0 .015.027.017 0 .003.023.005.023.01v.006c1.26.738 2.22 1.814 2.906 3.143.69 1.335 1.157 2.914 1.627 4.876.095.349.094.348.567.51.473.162 1.399.264 2.633.264s2.157-.102 2.63-.264c.473-.162.47-.161.563-.51.47-1.962.94-3.541 1.63-4.876h.001c.687-1.33 1.643-2.405 2.902-3.143v-.006c0-.005.028-.004.028-.01 0-.003 0-.015.027-.017 1.27-.723 2.685-1.013 4.18-.944 1.51.07 3.118.46 5.068 1.04l-.03-.01c.35.093.346.096.723-.233s.926-1.082 1.543-2.15c.617-1.069 1-1.92 1.096-2.41.097-.49.09-.495-.162-.75-1.462-1.387-2.6-2.583-3.41-3.846-.808-1.26-1.26-2.626-1.27-4.086v-.045c0-1.46.462-2.832 1.27-4.092.81-1.266 1.948-2.458 3.414-3.847.255-.256.252-.254.158-.745-.098-.49-.475-1.34-1.092-2.408-.617-1.068-1.16-1.822-1.537-2.15-.377-.329-.382-.326-.73-.233-1.931.573-3.539.954-5.038 1.024-1.495.07-2.91-.215-4.18-.938 0-.003 0-.007-.027-.01 0-.003-.027-.008-.027-.013v-.004c-1.259-.738-2.217-1.814-2.904-3.143-.69-1.335-1.155-2.916-1.625-4.878-.095-.35-.094-.348-.567-.51-.473-.162-1.399-.26-2.632-.26h-.02M32 36.002c.603 0 1.182.24 1.608.666 1.103 0 2.161.438 2.941 1.218.427.427.666 1.005.666 1.609a4.159 4.159 0 0 1 1.218 2.94c0 .604-.24 1.183-.666 1.61 0 1.102-.438 2.16-1.218 2.94a2.275 2.275 0 0 1-1.609.666A4.159 4.159 0 0 1 32 48.87c-.604 0-1.183-.24-1.61-.666a4.159 4.159 0 0 1-2.94-1.218 2.275 2.275 0 0 1-.666-1.609 4.159 4.159 0 0 1-1.218-2.94c0-.604.24-1.183.666-1.61 0-1.102.438-2.16 1.218-2.94a2.276 2.276 0 0 1 1.609-.667 4.159 4.159 0 0 1 2.94-1.217" style="-inkscape-stroke:none;font-variation-settings:normal"/><path d="M31.982 19.104c-1.234 0-2.16.098-2.633.26-.473.162-.473.161-.566.51-.47 1.962-.937 3.543-1.627 4.878-.687 1.33-1.643 2.405-2.902 3.143v.004c-.001.008-.027.015-.038.023-1.27.723-2.684 1.013-4.18.944-1.51-.07-3.121-.464-5.072-1.043l.03.013c-.349-.093-.346-.096-.723.233s-.922 1.082-1.539 2.15c-.617 1.069-1.003 1.916-1.1 2.406-.097.491-.085.495.17.75 1.462 1.387 2.6 2.587 3.41 3.85.808 1.26 1.259 2.625 1.268 4.086l.002.021v.024c0 1.46-.462 2.834-1.27 4.094-.811 1.265-1.952 2.456-3.417 3.845-.256.256-.25.252-.155.743.098.49.475 1.341 1.092 2.41.617 1.068 1.157 1.821 1.533 2.15.377.329.386.326.735.233 1.93-.573 3.538-.958 5.037-1.028 1.495-.07 2.91.22 4.18.942 0 .003 0 .015.027.017 0 .003.023.005.023.01v.006c1.26.738 2.22 1.814 2.907 3.142.69 1.336 1.156 2.914 1.626 4.877.095.349.094.348.567.51.473.162 1.4.264 2.633.264 1.234 0 2.157-.102 2.63-.264.473-.162.47-.161.563-.51.47-1.963.94-3.542 1.63-4.877h.001c.687-1.328 1.643-2.404 2.902-3.142v-.006c.001-.006.028-.004.028-.01 0-.003 0-.015.027-.017 1.27-.723 2.685-1.013 4.18-.944 1.51.07 3.118.46 5.068 1.04l-.03-.01c.35.093.346.095.723-.233.377-.329.926-1.082 1.543-2.15.617-1.069 1-1.92 1.096-2.41.097-.49.09-.495-.162-.75-1.462-1.387-2.6-2.583-3.41-3.846-.808-1.26-1.26-2.626-1.27-4.086v-.045c0-1.46.462-2.832 1.27-4.092.81-1.266 1.948-2.458 3.414-3.847.255-.256.252-.254.158-.745-.097-.49-.475-1.34-1.092-2.408-.617-1.069-1.16-1.822-1.537-2.15-.376-.329-.382-.326-.73-.233-1.931.573-3.539.954-5.038 1.024-1.495.07-2.91-.215-4.18-.938 0-.003 0-.007-.027-.01 0-.003-.027-.008-.027-.013v-.004c-1.259-.738-2.217-1.814-2.904-3.143-.69-1.335-1.155-2.916-1.625-4.879-.095-.348-.094-.347-.567-.51-.473-.161-1.399-.259-2.632-.259h-.02M32 34.902c.739 0 1.447.294 1.97.817.967 0 1.895.384 2.58 1.068.522.522.815 1.231.815 1.97a3.648 3.648 0 0 1 1.068 2.58c0 .738-.293 1.447-.816 1.97 0 .967-.384 1.895-1.068 2.579a2.787 2.787 0 0 1-1.97.816 3.647 3.647 0 0 1-2.58 1.068 2.786 2.786 0 0 1-1.97-.816 3.648 3.648 0 0 1-2.579-1.068 2.787 2.787 0 0 1-.816-1.97 3.648 3.648 0 0 1-1.068-2.58c0-.739.293-1.447.816-1.97 0-.967.384-1.895 1.068-2.579a2.786 2.786 0 0 1 1.97-.816A3.647 3.647 0 0 1 32 34.903" style="-inkscape-stroke:none;font-variation-settings:normal"/><path d="M31.982 18.179c-1.234 0-2.16.098-2.633.26-.473.162-.473.161-.566.51-.47 1.962-.937 3.543-1.627 4.878-.687 1.33-1.643 2.405-2.902 3.143v.004c-.001.008-.027.015-.038.023-1.27.723-2.684 1.013-4.18.944-1.51-.07-3.121-.464-5.072-1.043l.03.013c-.349-.093-.346-.096-.723.233s-.922 1.082-1.539 2.15c-.617 1.069-1.003 1.916-1.1 2.406-.097.491-.085.495.17.75 1.462 1.387 2.6 2.587 3.41 3.85.808 1.26 1.259 2.626 1.268 4.086l.002.021v.024c0 1.46-.462 2.834-1.27 4.094-.811 1.265-1.952 2.456-3.417 3.845-.256.256-.25.252-.155.743.098.49.475 1.341 1.092 2.41.617 1.068 1.157 1.821 1.533 2.15.377.329.386.326.735.233 1.93-.573 3.538-.958 5.037-1.028 1.495-.07 2.91.22 4.18.942 0 .003 0 .015.027.017.001.003.023.005.023.01v.006c1.26.738 2.22 1.814 2.907 3.143.69 1.335 1.156 2.913 1.626 4.876.095.349.094.348.567.51.473.162 1.4.264 2.633.264 1.234 0 2.157-.102 2.63-.264.473-.162.47-.161.563-.51.47-1.963.94-3.542 1.63-4.877h.001c.687-1.328 1.643-2.404 2.902-3.142v-.006c.001-.006.028-.004.028-.01 0-.004 0-.015.027-.017 1.27-.723 2.685-1.013 4.18-.944 1.51.07 3.118.46 5.068 1.04l-.03-.01c.35.093.347.095.723-.233.377-.329.926-1.082 1.543-2.15.617-1.069 1-1.92 1.096-2.41.097-.49.09-.495-.162-.75-1.462-1.387-2.6-2.583-3.41-3.846-.808-1.26-1.26-2.626-1.27-4.086v-.045c0-1.46.462-2.832 1.27-4.092.81-1.266 1.948-2.458 3.414-3.847.255-.256.252-.254.158-.745-.097-.49-.475-1.34-1.092-2.408-.617-1.069-1.16-1.822-1.537-2.15-.376-.329-.382-.326-.73-.233-1.931.573-3.539.954-5.038 1.024-1.495.07-2.91-.215-4.18-.938 0-.003 0-.007-.027-.01-.001-.003-.027-.008-.027-.013v-.004c-1.259-.738-2.217-1.814-2.904-3.143-.69-1.335-1.155-2.916-1.625-4.879-.095-.348-.094-.347-.567-.51-.473-.161-1.399-.259-2.632-.259h-.02M32 33.978c.853 0 1.671.339 2.275.942a3.216 3.216 0 0 1 3.216 3.217 3.217 3.217 0 0 1 0 4.55 3.216 3.216 0 0 1-3.217 3.216 3.217 3.217 0 0 1-4.55 0 3.217 3.217 0 0 1-3.216-3.217 3.216 3.216 0 0 1 0-4.55 3.216 3.216 0 0 1 3.217-3.216A3.216 3.216 0 0 1 32 33.978" style="-inkscape-stroke:none;font-variation-settings:normal"/><path d="M31.982 17.363c-1.234 0-2.16.098-2.633.26-.473.162-.473.161-.566.51-.47 1.962-.937 3.543-1.627 4.878-.687 1.33-1.644 2.405-2.902 3.143v.004c-.001.008-.027.015-.038.023-1.27.723-2.684 1.013-4.18.944-1.51-.07-3.121-.464-5.072-1.043l.03.013c-.349-.093-.346-.096-.723.233s-.922 1.082-1.539 2.15c-.617 1.069-1.003 1.916-1.1 2.406-.097.491-.085.495.17.75 1.462 1.387 2.6 2.587 3.41 3.85.808 1.26 1.259 2.625 1.268 4.086l.002.021v.024c0 1.46-.462 2.834-1.27 4.094-.811 1.265-1.952 2.456-3.417 3.845-.256.256-.25.252-.155.743.098.49.475 1.341 1.092 2.41.617 1.068 1.157 1.821 1.533 2.15.377.329.386.326.735.232 1.93-.572 3.538-.957 5.037-1.027 1.495-.07 2.91.22 4.18.942 0 .003 0 .015.027.017.001.003.023.005.023.01v.006c1.26.738 2.22 1.814 2.906 3.142.69 1.336 1.157 2.915 1.627 4.877.095.349.094.348.567.51.473.162 1.4.264 2.633.264 1.234 0 2.157-.102 2.63-.264.473-.162.47-.161.563-.51.47-1.963.941-3.542 1.63-4.877h.001c.687-1.328 1.643-2.404 2.902-3.142v-.006c.001-.005.028-.004.028-.01 0-.004 0-.015.027-.017 1.27-.723 2.685-1.013 4.18-.944 1.51.07 3.118.46 5.068 1.04l-.03-.01c.35.093.347.096.723-.233.377-.329.926-1.082 1.543-2.15.617-1.069 1-1.92 1.096-2.41.097-.491.09-.495-.162-.75-1.462-1.387-2.6-2.583-3.41-3.846-.808-1.26-1.26-2.626-1.27-4.086v-.045c0-1.46.462-2.832 1.27-4.092.811-1.266 1.948-2.458 3.414-3.848.255-.255.252-.253.158-.744-.097-.49-.475-1.34-1.092-2.408-.617-1.069-1.16-1.822-1.537-2.15-.376-.329-.382-.326-.73-.233-1.931.573-3.539.954-5.038 1.024-1.495.07-2.91-.215-4.18-.938 0-.003 0-.007-.027-.01-.001-.003-.027-.008-.027-.013v-.004c-1.259-.738-2.217-1.814-2.904-3.143-.69-1.335-1.155-2.916-1.625-4.878-.095-.35-.094-.348-.567-.51-.473-.162-1.399-.26-2.632-.26h-.02M32 33.162c.954 0 1.868.379 2.543 1.053.752 0 1.474.299 2.006.83a3.597 3.597 0 0 1 1.053 2.544c.532.532.831 1.254.831 2.006 0 .954-.379 1.87-1.053 2.544 0 .752-.299 1.474-.83 2.006a3.597 3.597 0 0 1-2.544 1.053A2.836 2.836 0 0 1 32 46.03a3.597 3.597 0 0 1-2.544-1.053 2.837 2.837 0 0 1-2.006-.831 3.597 3.597 0 0 1-1.053-2.544 2.836 2.836 0 0 1-.831-2.006c0-.954.379-1.868 1.053-2.543 0-.752.3-1.474.831-2.006a3.597 3.597 0 0 1 2.544-1.053A2.836 2.836 0 0 1 32 33.162" style="-inkscape-stroke:none;font-variation-settings:normal"/><path d="M31.982 16.625c-1.234 0-2.16.098-2.633.26-.473.162-.473.161-.566.51-.47 1.962-.937 3.543-1.627 4.878-.687 1.33-1.644 2.405-2.902 3.143v.004c-.001.008-.027.015-.038.023-1.27.723-2.684 1.013-4.18.944-1.51-.07-3.121-.464-5.072-1.043.003 0 .03.013.03.013-.349-.093-.346-.096-.723.233s-.922 1.082-1.539 2.15c-.617 1.069-1.003 1.916-1.1 2.406-.097.491-.085.495.17.75 1.462 1.387 2.6 2.587 3.41 3.85.808 1.26 1.259 2.626 1.268 4.086l.002.021v.024c0 1.46-.462 2.834-1.27 4.094-.811 1.266-1.952 2.456-3.417 3.845-.256.256-.25.252-.155.743.098.49.475 1.341 1.092 2.41.617 1.068 1.157 1.821 1.533 2.15.377.329.386.326.735.233 1.93-.573 3.538-.958 5.037-1.028 1.495-.07 2.91.22 4.18.942 0 .004 0 .015.027.017.001.003.023.005.023.01v.006c1.26.738 2.22 1.814 2.906 3.143.69 1.335 1.157 2.914 1.627 4.876.095.349.094.348.567.51.473.162 1.4.264 2.633.264 1.234 0 2.157-.102 2.63-.264.473-.162.47-.161.563-.51.47-1.963.941-3.542 1.63-4.876h.001c.687-1.33 1.643-2.405 2.902-3.143v-.006c.001-.005.028-.004.028-.01 0-.004 0-.015.027-.017 1.27-.723 2.685-1.013 4.18-.944 1.51.07 3.118.46 5.068 1.04l-.03-.01c.35.093.347.096.723-.233.377-.329.927-1.082 1.543-2.15.617-1.069 1-1.92 1.096-2.41.097-.49.09-.495-.162-.75-1.462-1.387-2.6-2.583-3.41-3.846-.808-1.26-1.26-2.626-1.27-4.086v-.045c0-1.46.462-2.832 1.27-4.092.811-1.266 1.948-2.458 3.414-3.847.255-.256.252-.254.158-.745-.098-.49-.475-1.34-1.092-2.408-.617-1.069-1.16-1.822-1.537-2.15-.376-.329-.382-.326-.73-.233-1.931.573-3.539.954-5.038 1.024-1.495.07-2.91-.215-4.18-.938 0-.003 0-.007-.027-.01-.001-.003-.027-.008-.027-.013v-.004c-1.259-.738-2.217-1.814-2.904-3.143-.69-1.335-1.155-2.916-1.625-4.878-.095-.35-.094-.348-.567-.51-.473-.162-1.399-.26-2.632-.26h-.02m.017 15.799a3.94 3.94 0 0 1 2.787 1.154c.661 0 1.295.262 1.763.73a3.94 3.94 0 0 1 1.154 2.786c.468.468.73 1.102.73 1.763a3.94 3.94 0 0 1-1.154 2.787c0 .661-.262 1.295-.73 1.763a3.94 3.94 0 0 1-2.786 1.154 2.493 2.493 0 0 1-1.763.73 3.94 3.94 0 0 1-2.787-1.154 2.494 2.494 0 0 1-1.763-.73 3.94 3.94 0 0 1-1.154-2.786 2.493 2.493 0 0 1-.73-1.764 3.94 3.94 0 0 1 1.154-2.786c0-.661.263-1.295.73-1.763a3.94 3.94 0 0 1 2.786-1.154 2.493 2.493 0 0 1 1.764-.73" style="-inkscape-stroke:none;font-variation-settings:normal"/><path d="M31.982 15.947c-1.234 0-2.16.098-2.633.26-.473.162-.473.161-.566.51-.47 1.962-.937 3.543-1.627 4.878-.687 1.33-1.644 2.405-2.902 3.143v.004c-.001.008-.027.015-.038.023-1.27.723-2.684 1.013-4.18.944-1.51-.07-3.121-.464-5.072-1.043.003 0 .03.013.03.013-.349-.093-.346-.096-.723.233s-.922 1.082-1.539 2.15c-.617 1.07-1.003 1.916-1.1 2.406v.001c-.097.49-.085.494.17.75 1.462 1.386 2.6 2.586 3.41 3.85.808 1.26 1.259 2.625 1.268 4.085l.002.021v.024c0 1.46-.462 2.834-1.27 4.094-.811 1.266-1.952 2.456-3.417 3.845-.256.256-.25.252-.155.743.098.49.475 1.342 1.092 2.41.617 1.069 1.157 1.822 1.533 2.15.377.329.386.326.735.233 1.93-.573 3.538-.958 5.037-1.028 1.495-.07 2.91.22 4.18.942 0 .004 0 .015.027.017.002.003.023.005.023.01v.006c1.26.738 2.22 1.814 2.906 3.142.69 1.336 1.157 2.914 1.627 4.877.095.349.094.348.567.51.473.162 1.4.264 2.633.264 1.234 0 2.157-.102 2.63-.264h.001c.472-.162.469-.161.562-.51.47-1.963.941-3.542 1.63-4.877h.001c.687-1.328 1.643-2.404 2.902-3.142v-.006c.001-.006.028-.004.028-.01 0-.004 0-.015.027-.017 1.27-.723 2.685-1.013 4.18-.944 1.51.07 3.118.46 5.068 1.04-.002-.002-.03-.01-.03-.01.35.093.347.095.723-.233.377-.329.927-1.082 1.543-2.15.617-1.069 1-1.92 1.096-2.41.097-.49.09-.495-.162-.75-1.462-1.387-2.6-2.583-3.41-3.846-.808-1.26-1.26-2.626-1.27-4.086v-.045c0-1.46.462-2.832 1.27-4.092.811-1.266 1.948-2.458 3.414-3.847.255-.256.252-.254.158-.745-.098-.49-.475-1.34-1.092-2.408-.617-1.069-1.16-1.822-1.537-2.15-.376-.329-.382-.326-.73-.233-1.931.573-3.539.954-5.038 1.024-1.495.07-2.91-.215-4.18-.938 0-.003 0-.007-.027-.01-.002-.003-.027-.008-.027-.013v-.004c-1.259-.738-2.217-1.814-2.904-3.143-.69-1.335-1.155-2.916-1.625-4.878-.095-.35-.094-.348-.567-.51-.473-.162-1.399-.26-2.632-.26h-.02M32 31.746c1.128 0 2.21.448 3.009 1.246.578 0 1.132.23 1.54.638a4.255 4.255 0 0 1 1.246 3.01c.409.408.638.962.638 1.54a4.256 4.256 0 0 1-1.246 3.009c0 .578-.23 1.132-.638 1.54a4.256 4.256 0 0 1-3.01 1.246 2.178 2.178 0 0 1-1.54.638 4.255 4.255 0 0 1-3.009-1.246c-.577 0-1.131-.23-1.54-.638a4.255 4.255 0 0 1-1.246-3.01 2.177 2.177 0 0 1-.638-1.54c0-1.128.448-2.21 1.246-3.009 0-.577.23-1.131.638-1.54a4.255 4.255 0 0 1 3.01-1.246 2.178 2.178 0 0 1 1.54-.638" style="-inkscape-stroke:none;font-variation-settings:normal"/><path d="M31.982 15.316c-1.234 0-2.16.098-2.633.26-.473.162-.473.161-.566.51-.47 1.962-.937 3.543-1.627 4.878-.687 1.33-1.644 2.405-2.902 3.143v.004c-.002.008-.027.015-.038.023-1.27.723-2.684 1.013-4.18.944-1.51-.07-3.121-.464-5.072-1.043.003 0 .03.013.03.013-.349-.093-.346-.096-.723.233s-.922 1.082-1.539 2.15c-.617 1.069-1.003 1.916-1.1 2.406v.001c-.097.49-.085.494.17.75 1.462 1.386 2.6 2.586 3.41 3.85.808 1.26 1.259 2.625 1.268 4.085l.002.021v.024c0 1.46-.462 2.834-1.27 4.094-.811 1.266-1.952 2.456-3.417 3.845-.256.256-.25.252-.155.743.098.49.475 1.342 1.092 2.41.617 1.069 1.157 1.822 1.533 2.15.377.329.386.326.735.232 1.93-.572 3.538-.957 5.037-1.027 1.495-.07 2.91.22 4.18.942 0 .004 0 .015.027.017.002.003.023.005.023.01v.006c1.26.738 2.22 1.814 2.906 3.142.69 1.336 1.157 2.915 1.627 4.877.095.349.094.348.567.51.473.162 1.4.264 2.633.264 1.234 0 2.157-.102 2.63-.264h.001c.472-.162.469-.161.562-.51.47-1.963.941-3.542 1.63-4.877h.001c.687-1.328 1.643-2.404 2.902-3.142v-.006c.002-.006.028-.005.028-.01 0-.004 0-.015.027-.017 1.27-.723 2.685-1.013 4.18-.944 1.51.07 3.118.46 5.068 1.04l-.03-.01H49c.348.093.346.095.722-.233.377-.33.927-1.082 1.543-2.15.617-1.07 1-1.92 1.096-2.41v-.001c.097-.49.09-.494-.162-.75-1.462-1.386-2.6-2.582-3.41-3.845-.808-1.26-1.26-2.626-1.27-4.086v-.045c0-1.46.462-2.832 1.27-4.092.811-1.266 1.948-2.458 3.414-3.848.255-.255.252-.253.158-.744-.098-.49-.475-1.34-1.092-2.408-.617-1.069-1.16-1.822-1.537-2.15-.376-.329-.382-.326-.73-.233-1.931.573-3.539.954-5.038 1.024-1.495.07-2.91-.215-4.18-.938 0-.003 0-.007-.027-.01-.002-.003-.027-.008-.027-.013v-.004c-1.259-.738-2.217-1.814-2.904-3.143-.69-1.335-1.155-2.916-1.625-4.879-.095-.348-.094-.347-.567-.51-.473-.161-1.399-.26-2.632-.26H32l-.019.001M32 31.115c1.206 0 2.364.48 3.217 1.333.5 0 .979.198 1.332.551a4.55 4.55 0 0 1 1.333 3.217c.353.354.551.833.551 1.333a4.55 4.55 0 0 1-1.332 3.217c0 .5-.199.979-.552 1.332a4.55 4.55 0 0 1-3.217 1.333 1.885 1.885 0 0 1-1.332.552 4.55 4.55 0 0 1-3.217-1.333c-.5 0-.98-.198-1.333-.552a4.549 4.549 0 0 1-1.332-3.217 1.884 1.884 0 0 1-.552-1.332 4.55 4.55 0 0 1 1.332-3.217c0-.5.199-.98.552-1.333a4.55 4.55 0 0 1 3.217-1.332A1.884 1.884 0 0 1 32 31.115" style="-inkscape-stroke:none;font-variation-settings:normal"/><path d="M31.982 14.723c-1.234 0-2.16.098-2.633.26-.473.162-.473.161-.566.51-.47 1.963-.937 3.544-1.627 4.878-.687 1.33-1.644 2.405-2.902 3.143v.004c-.002.008-.027.015-.038.023-1.27.723-2.684 1.013-4.18.944-1.51-.07-3.121-.464-5.072-1.043l.03.013c-.349-.093-.346-.096-.723.233s-.922 1.082-1.539 2.15c-.617 1.07-1.003 1.916-1.1 2.406v.001c-.097.49-.085.494.17.75 1.462 1.386 2.6 2.586 3.41 3.85.808 1.26 1.259 2.625 1.268 4.085l.002.021v.024c0 1.46-.462 2.834-1.27 4.094-.811 1.266-1.952 2.456-3.417 3.845-.256.256-.25.252-.155.743.098.49.475 1.342 1.092 2.41.617 1.069 1.157 1.822 1.533 2.15.377.329.386.326.735.232 1.93-.572 3.538-.957 5.037-1.027 1.495-.07 2.91.22 4.18.942 0 .004 0 .015.027.017.002.003.023.005.023.01v.006c1.26.738 2.22 1.814 2.906 3.142.69 1.336 1.157 2.914 1.627 4.877.095.349.094.348.567.51.473.162 1.4.264 2.633.264 1.234 0 2.157-.102 2.63-.264h.001c.472-.162.469-.161.562-.51.47-1.963.941-3.542 1.63-4.877h.001c.687-1.328 1.643-2.404 2.902-3.142v-.006c.002-.006.028-.004.028-.01 0-.004 0-.015.027-.017 1.27-.723 2.685-1.013 4.18-.944 1.51.07 3.118.46 5.068 1.04l-.03-.01H49c.348.093.346.095.722-.233.378-.33.927-1.082 1.543-2.15.617-1.07 1-1.92 1.096-2.41v-.001c.097-.49.09-.494-.162-.75-1.462-1.386-2.6-2.582-3.41-3.845-.808-1.26-1.26-2.626-1.27-4.086v-.045c0-1.46.462-2.832 1.27-4.092.811-1.266 1.948-2.458 3.414-3.847.255-.256.252-.254.158-.745-.098-.49-.475-1.34-1.092-2.408-.617-1.069-1.16-1.822-1.537-2.15-.377-.329-.382-.326-.73-.233H49c-1.93.573-3.538.954-5.037 1.024-1.495.07-2.91-.215-4.18-.938 0-.003 0-.007-.027-.01-.002-.003-.027-.008-.027-.013v-.004c-1.259-.738-2.217-1.814-2.904-3.143-.69-1.335-1.155-2.916-1.625-4.879-.095-.348-.094-.347-.567-.51-.473-.161-1.4-.259-2.632-.259h-.02M32 30.522c1.28 0 2.507.508 3.412 1.413.426 0 .835.17 1.137.47a4.825 4.825 0 0 1 1.413 3.413c.302.302.471.71.471 1.137 0 1.28-.508 2.508-1.413 3.413 0 .426-.17.835-.47 1.137a4.825 4.825 0 0 1-3.413 1.413c-.302.302-.71.471-1.137.47a4.825 4.825 0 0 1-3.413-1.412c-.426 0-.835-.17-1.137-.471a4.825 4.825 0 0 1-1.413-3.412 1.609 1.609 0 0 1-.471-1.138c0-1.28.508-2.507 1.413-3.412 0-.427.17-.836.471-1.137a4.825 4.825 0 0 1 3.412-1.413c.302-.302.711-.471 1.138-.471" style="-inkscape-stroke:none;font-variation-settings:normal"/><path d="M31.982 14.162c-1.234 0-2.16.098-2.633.26-.473.162-.473.161-.566.51-.47 1.963-.937 3.544-1.627 4.879-.687 1.328-1.644 2.404-2.902 3.142v.004c-.002.009-.027.015-.038.023-1.27.723-2.684 1.013-4.18.944-1.51-.07-3.121-.464-5.072-1.043l.03.013c-.349-.093-.346-.096-.723.233s-.922 1.082-1.539 2.15c-.617 1.07-1.003 1.916-1.1 2.406v.001c-.097.49-.085.494.17.75 1.462 1.386 2.6 2.586 3.41 3.85.808 1.26 1.259 2.625 1.268 4.085l.002.021v.024c0 1.461-.462 2.834-1.27 4.094-.811 1.266-1.952 2.456-3.417 3.845-.256.256-.25.252-.155.743.098.49.475 1.342 1.092 2.41.617 1.069 1.157 1.822 1.533 2.15.377.329.386.326.735.233 1.93-.573 3.538-.958 5.037-1.028 1.495-.07 2.91.22 4.18.942 0 .004 0 .015.027.017.002.003.023.005.023.01v.006c1.26.738 2.22 1.814 2.906 3.142.69 1.336 1.157 2.915 1.627 4.877.095.349.094.348.567.51.473.162 1.4.264 2.633.264 1.234 0 2.157-.102 2.63-.264h.001c.472-.162.469-.161.562-.51.47-1.963.941-3.542 1.63-4.877h.001c.687-1.328 1.643-2.404 2.902-3.142v-.006c.002-.005.028-.004.028-.01 0-.004 0-.015.027-.017 1.27-.723 2.685-1.013 4.18-.944 1.51.07 3.118.46 5.068 1.04l-.03-.01H49c.348.093.346.095.722-.233.377-.329.926-1.082 1.543-2.15.617-1.07 1-1.92 1.096-2.41.097-.49.09-.495-.162-.75-1.462-1.387-2.6-2.583-3.41-3.846-.808-1.26-1.26-2.626-1.27-4.086v-.045c0-1.46.462-2.832 1.27-4.092.811-1.266 1.948-2.458 3.414-3.847.255-.256.252-.254.158-.745-.098-.49-.475-1.34-1.092-2.408-.617-1.069-1.16-1.822-1.537-2.15-.377-.329-.382-.326-.73-.233H49c-1.93.573-3.538.954-5.037 1.024-1.495.07-2.91-.215-4.18-.938 0-.003 0-.007-.027-.01-.002-.003-.027-.008-.027-.013v-.004c-1.259-.738-2.218-1.814-2.904-3.143-.69-1.335-1.155-2.916-1.625-4.879-.095-.348-.094-.347-.567-.51-.473-.161-1.4-.259-2.632-.259h-.02M32 29.961c1.349 0 2.642.535 3.596 1.49.358 0 .7.141.953.394a5.086 5.086 0 0 1 1.49 3.597c.252.252.394.595.394.952a5.086 5.086 0 0 1-1.49 3.597c0 .357-.141.7-.394.953a5.086 5.086 0 0 1-3.597 1.49 1.348 1.348 0 0 1-.952.394 5.086 5.086 0 0 1-3.597-1.49c-.357 0-.7-.142-.953-.394a5.086 5.086 0 0 1-1.49-3.597 1.348 1.348 0 0 1-.394-.953c0-1.349.536-2.643 1.49-3.596 0-.358.141-.7.394-.953a5.086 5.086 0 0 1 3.597-1.49c.253-.252.595-.394.953-.394" style="-inkscape-stroke:none;font-variation-settings:normal"/><path d="M31.982 13.629c-1.234 0-2.16.098-2.633.26-.473.162-.473.161-.566.51-.47 1.963-.937 3.543-1.627 4.878-.687 1.33-1.644 2.405-2.902 3.143v.004c-.002.009-.027.015-.038.023-1.27.723-2.684 1.013-4.18.944-1.51-.07-3.121-.464-5.072-1.043l.03.013c-.349-.093-.346-.096-.723.233s-.922 1.082-1.539 2.15c-.617 1.07-1.003 1.916-1.1 2.406v.001c-.097.49-.085.494.17.75 1.462 1.386 2.6 2.586 3.41 3.85.808 1.26 1.259 2.625 1.268 4.085l.002.021v.024c0 1.46-.462 2.834-1.27 4.094-.811 1.266-1.952 2.456-3.417 3.845-.256.256-.25.252-.155.743.098.49.475 1.342 1.092 2.41.617 1.069 1.157 1.822 1.533 2.15.377.329.386.326.735.233 1.93-.573 3.538-.958 5.037-1.028 1.495-.07 2.91.22 4.18.942 0 .004 0 .015.027.017.002.003.023.005.023.01v.006c1.26.738 2.22 1.814 2.906 3.142.69 1.336 1.157 2.915 1.627 4.877.095.349.094.348.567.51.473.162 1.4.264 2.633.264 1.234 0 2.157-.102 2.63-.264h.001c.472-.162.469-.161.562-.51.47-1.963.941-3.542 1.63-4.877h.001c.687-1.328 1.643-2.404 2.902-3.142v-.006c.002-.005.028-.004.028-.01 0-.004 0-.015.027-.017 1.27-.723 2.685-1.013 4.18-.944 1.51.07 3.118.46 5.068 1.04l-.03-.01H49c.348.093.346.095.722-.233.377-.33.926-1.082 1.543-2.15.617-1.07 1-1.92 1.096-2.41v-.001c.097-.49.09-.494-.162-.75-1.462-1.386-2.6-2.582-3.41-3.845-.808-1.26-1.26-2.626-1.27-4.086v-.045c0-1.46.462-2.832 1.27-4.092.811-1.266 1.948-2.458 3.414-3.847.255-.256.252-.254.158-.745-.098-.49-.475-1.34-1.092-2.408-.617-1.069-1.16-1.822-1.537-2.15-.377-.329-.382-.326-.73-.233H49c-1.93.573-3.538.954-5.037 1.024-1.495.07-2.91-.215-4.18-.938 0-.003 0-.007-.027-.01-.002-.003-.027-.008-.027-.013v-.004c-1.259-.738-2.218-1.814-2.904-3.143-.69-1.335-1.155-2.916-1.625-4.878-.095-.35-.094-.348-.567-.51-.473-.162-1.4-.26-2.632-.26h-.02m.018 15.8c1.414-.001 2.771.56 3.772 1.561.291 0 .571.116.777.322 1 1 1.562 2.358 1.562 3.773a1.1 1.1 0 0 1 .322.777 5.334 5.334 0 0 1-1.562 3.772 1.1 1.1 0 0 1-.322.777c-1 1-2.357 1.563-3.772 1.563a1.1 1.1 0 0 1-.777.321 5.334 5.334 0 0 1-3.773-1.562 1.1 1.1 0 0 1-.777-.322c-1-1-1.562-2.357-1.562-3.772a1.1 1.1 0 0 1-.322-.777c0-1.415.562-2.772 1.562-3.773a1.1 1.1 0 0 1 .322-.777c1-1 2.358-1.562 3.772-1.562a1.1 1.1 0 0 1 .778-.322" style="-inkscape-stroke:none;font-variation-settings:normal"/><path d="M31.982 13.119c-1.234 0-2.16.098-2.633.26-.473.162-.473.161-.566.51-.47 1.963-.937 3.543-1.627 4.878-.687 1.33-1.644 2.405-2.902 3.143v.004c-.002.009-.027.015-.038.023-1.27.723-2.684 1.013-4.18.944-1.51-.07-3.121-.464-5.072-1.043l.03.013c-.349-.093-.346-.096-.723.233s-.922 1.082-1.539 2.15c-.617 1.07-1.003 1.916-1.1 2.406v.001c-.097.49-.085.494.17.75 1.462 1.386 2.6 2.586 3.41 3.85.808 1.26 1.259 2.625 1.268 4.085l.002.021v.024c0 1.46-.462 2.834-1.27 4.094-.811 1.266-1.952 2.456-3.417 3.845-.256.256-.25.252-.155.743.098.49.475 1.342 1.092 2.41.617 1.069 1.157 1.822 1.533 2.15.377.329.386.326.735.233 1.93-.573 3.538-.958 5.037-1.028 1.495-.07 2.91.22 4.18.942 0 .004 0 .015.027.017.002.003.023.005.023.01v.006c1.26.738 2.22 1.814 2.906 3.143.69 1.335 1.157 2.914 1.627 4.876.095.349.094.348.567.51.474.162 1.4.264 2.633.264 1.234 0 2.157-.102 2.63-.264h.001c.472-.162.469-.161.562-.51.47-1.963.941-3.542 1.63-4.876l.001-.001c.687-1.328 1.643-2.404 2.902-3.142v-.006c.002-.005.027-.004.027-.01 0-.004.001-.015.028-.017 1.27-.723 2.685-1.013 4.18-.944 1.51.07 3.118.46 5.068 1.04l-.03-.01H49c.348.093.346.095.722-.233.377-.33.926-1.082 1.543-2.15.617-1.07 1-1.92 1.096-2.41v-.001c.097-.49.09-.494-.162-.75-1.462-1.386-2.6-2.582-3.41-3.845-.808-1.26-1.26-2.626-1.27-4.086v-.045c0-1.46.462-2.832 1.27-4.092.811-1.266 1.948-2.458 3.414-3.847.255-.256.252-.254.158-.745-.098-.49-.475-1.34-1.092-2.408-.617-1.069-1.16-1.822-1.537-2.15-.377-.329-.382-.326-.73-.233H49c-1.93.573-3.538.954-5.037 1.024-1.495.07-2.91-.215-4.18-.938 0-.003 0-.007-.027-.01-.002-.003-.027-.008-.027-.013v-.004c-1.259-.738-2.218-1.814-2.904-3.143-.69-1.335-1.155-2.916-1.625-4.878v-.001c-.095-.348-.094-.347-.567-.51-.473-.161-1.4-.259-2.632-.259h-.02M32 28.918c1.477 0 2.895.586 3.94 1.631.228 0 .447.091.61.253a5.571 5.571 0 0 1 1.63 3.94c.162.161.253.38.253.61a5.571 5.571 0 0 1-1.632 3.94c0 .228-.09.447-.252.609a5.571 5.571 0 0 1-3.94 1.631.862.862 0 0 1-.61.253 5.571 5.571 0 0 1-3.94-1.632.862.862 0 0 1-.609-.252 5.571 5.571 0 0 1-1.632-3.94.862.862 0 0 1-.252-.61c0-1.478.587-2.895 1.632-3.94 0-.228.09-.448.252-.61a5.571 5.571 0 0 1 3.94-1.631.862.862 0 0 1 .61-.252" style="-inkscape-stroke:none;font-variation-settings:normal"/><path d="M31.982 12.631c-1.234 0-2.16.098-2.633.26-.473.162-.473.161-.566.51-.47 1.963-.937 3.543-1.627 4.878-.687 1.33-1.644 2.405-2.902 3.143v.004c-.002.009-.027.015-.038.023-1.27.723-2.684 1.013-4.18.944-1.51-.07-3.121-.464-5.072-1.043l.03.013c-.349-.093-.346-.096-.723.233-.377.33-.922 1.082-1.539 2.15-.617 1.07-1.003 1.916-1.1 2.406v.001c-.097.49-.085.494.17.75 1.462 1.386 2.6 2.586 3.41 3.85.808 1.26 1.259 2.625 1.268 4.085l.002.021v.024c0 1.461-.462 2.834-1.27 4.094-.811 1.266-1.952 2.456-3.417 3.845-.256.256-.25.252-.155.743.098.49.475 1.342 1.092 2.41.617 1.069 1.157 1.822 1.533 2.15.377.329.386.326.735.233 1.93-.573 3.538-.958 5.037-1.028 1.495-.07 2.91.22 4.18.942 0 .004 0 .015.027.017.002.003.023.005.023.01v.006c1.26.738 2.22 1.814 2.906 3.143.69 1.335 1.157 2.914 1.627 4.876.095.349.094.348.567.51.474.162 1.4.264 2.633.264 1.234 0 2.157-.102 2.63-.264h.001c.472-.162.469-.161.562-.51.47-1.963.941-3.542 1.63-4.876l.001-.001c.687-1.328 1.643-2.404 2.902-3.142v-.006c.002-.005.027-.004.027-.01 0-.004.001-.015.028-.017 1.27-.723 2.685-1.013 4.18-.944 1.51.07 3.118.46 5.068 1.04a5.43 5.43 0 0 1-.03-.01H49c.348.093.346.095.722-.233.377-.33.927-1.082 1.543-2.15v-.001c.617-1.068 1-1.92 1.096-2.41.097-.49.09-.494-.162-.75-1.462-1.386-2.6-2.582-3.41-3.845-.808-1.26-1.26-2.626-1.27-4.086v-.045c0-1.46.462-2.832 1.27-4.092.811-1.266 1.948-2.458 3.414-3.847.255-.256.252-.254.158-.745-.098-.49-.475-1.34-1.092-2.408-.617-1.069-1.16-1.822-1.537-2.15-.377-.329-.382-.326-.73-.233H49c-1.93.573-3.538.954-5.037 1.024-1.495.07-2.91-.215-4.18-.938 0-.003 0-.007-.027-.01-.003-.003-.027-.008-.027-.013v-.004c-1.259-.738-2.218-1.814-2.904-3.143-.69-1.335-1.155-2.916-1.625-4.878V13.4c-.095-.348-.094-.347-.567-.51-.473-.161-1.4-.259-2.632-.259h-.02M32 28.43c1.538 0 3.013.61 4.1 1.698.169 0 .33.067.45.186a5.798 5.798 0 0 1 1.697 4.101c.12.119.186.28.186.449 0 1.538-.61 3.013-1.698 4.1 0 .169-.067.33-.186.45a5.799 5.799 0 0 1-4.1 1.698.635.635 0 0 1-.45.185 5.798 5.798 0 0 1-4.1-1.698.634.634 0 0 1-.449-.186 5.798 5.798 0 0 1-1.698-4.1.634.634 0 0 1-.186-.45c0-1.537.61-3.013 1.698-4.1 0-.168.067-.33.186-.449a5.798 5.798 0 0 1 4.101-1.698.634.634 0 0 1 .449-.186" style="-inkscape-stroke:none;font-variation-settings:normal"/><path d="M31.982 12.16c-1.234 0-2.16.098-2.633.26-.473.162-.473.161-.566.51-.47 1.963-.937 3.543-1.627 4.878-.687 1.33-1.644 2.405-2.902 3.143v.004c-.002.009-.027.015-.038.023-1.27.723-2.684 1.013-4.18.944-1.51-.07-3.121-.464-5.072-1.043l.03.013c-.349-.093-.346-.096-.723.233-.377.33-.922 1.082-1.539 2.15-.617 1.07-1.003 1.916-1.1 2.406v.001c-.097.49-.085.494.17.75 1.462 1.386 2.6 2.586 3.41 3.85.808 1.26 1.259 2.625 1.268 4.085l.002.021v.024c0 1.461-.462 2.834-1.27 4.094-.811 1.266-1.952 2.456-3.417 3.845-.256.256-.25.252-.155.743.098.49.475 1.342 1.092 2.41.617 1.069 1.157 1.822 1.533 2.15.377.329.386.326.735.232 1.93-.572 3.538-.957 5.037-1.027 1.495-.07 2.91.22 4.18.942 0 .004 0 .015.027.017.002.003.023.005.023.01v.006c1.26.738 2.22 1.814 2.906 3.143.69 1.335 1.157 2.914 1.627 4.876.095.349.094.348.567.51.474.162 1.4.264 2.633.264 1.234 0 2.157-.102 2.63-.264h.001c.472-.162.469-.161.562-.51.47-1.963.941-3.542 1.63-4.876l.001-.001c.687-1.328 1.643-2.404 2.902-3.142v-.006c.002-.005.027-.004.027-.01 0-.004.002-.015.028-.017 1.27-.723 2.685-1.013 4.18-.944 1.51.07 3.118.46 5.068 1.04l-.03-.01H49c.348.093.346.095.722-.233.378-.33.927-1.082 1.543-2.15v-.001c.617-1.068 1-1.92 1.096-2.41.097-.49.09-.494-.162-.75-1.462-1.386-2.6-2.582-3.41-3.845-.808-1.26-1.26-2.626-1.27-4.086v-.045c0-1.46.462-2.832 1.27-4.092.811-1.266 1.948-2.458 3.414-3.847.255-.256.252-.254.158-.745-.098-.49-.475-1.34-1.092-2.408-.617-1.069-1.16-1.822-1.537-2.15-.377-.329-.382-.326-.73-.233H49c-1.93.573-3.538.954-5.037 1.024-1.495.07-2.91-.215-4.18-.938 0-.003 0-.007-.027-.01-.003-.003-.027-.008-.027-.013v-.004c-1.259-.738-2.218-1.814-2.904-3.143-.69-1.335-1.155-2.916-1.625-4.878v-.001c-.095-.348-.094-.347-.567-.51-.473-.161-1.4-.259-2.632-.259h-.02M32 27.958c1.596 0 3.127.634 4.255 1.763.11 0 .216.044.294.122a6.018 6.018 0 0 1 1.762 4.255.416.416 0 0 1 .122.294 6.018 6.018 0 0 1-1.762 4.256c0 .11-.044.216-.122.294a6.018 6.018 0 0 1-4.256 1.762.415.415 0 0 1-.293.122 6.018 6.018 0 0 1-4.256-1.763.416.416 0 0 1-.294-.121 6.018 6.018 0 0 1-1.762-4.256.416.416 0 0 1-.122-.294c0-1.596.634-3.127 1.762-4.256 0-.11.044-.215.122-.293a6.018 6.018 0 0 1 4.256-1.763.416.416 0 0 1 .294-.122" style="-inkscape-stroke:none;font-variation-settings:normal"/><path d="M31.982 11.706c-1.234 0-2.16.098-2.633.26-.473.162-.473.161-.566.51-.47 1.963-.937 3.543-1.627 4.878-.687 1.33-1.644 2.405-2.902 3.143v.004c-.002.009-.027.015-.038.023-1.27.723-2.684 1.013-4.18.944-1.51-.07-3.121-.464-5.072-1.043l.03.013c-.349-.093-.346-.096-.723.233-.377.33-.922 1.082-1.539 2.15v.001c-.617 1.068-1.003 1.915-1.1 2.405v.001c-.097.49-.085.494.17.75 1.462 1.386 2.6 2.586 3.41 3.85.808 1.26 1.259 2.625 1.268 4.085l.002.021v.024c0 1.461-.462 2.834-1.27 4.094-.811 1.266-1.952 2.456-3.417 3.845-.256.256-.25.252-.155.743.098.49.476 1.342 1.092 2.41.617 1.069 1.157 1.822 1.533 2.15.377.329.386.326.735.232 1.93-.572 3.538-.957 5.037-1.027 1.495-.07 2.91.22 4.18.942 0 .004 0 .015.027.017.003.003.023.005.023.01v.006c1.26.738 2.22 1.814 2.906 3.143.69 1.335 1.157 2.914 1.627 4.876.095.349.094.348.567.51.474.162 1.4.264 2.633.264 1.234 0 2.157-.102 2.63-.264h.001c.472-.162.469-.161.562-.51.47-1.963.941-3.542 1.63-4.876l.001-.001c.687-1.328 1.643-2.404 2.902-3.142v-.006c.002-.005.027-.004.027-.01 0-.004.002-.015.028-.017 1.27-.723 2.685-1.013 4.18-.944 1.51.07 3.118.46 5.068 1.04l-.03-.01H49c.348.093.346.095.722-.233.378-.33.927-1.082 1.543-2.15v-.001c.617-1.068 1-1.92 1.096-2.41.097-.49.09-.494-.162-.75-1.462-1.386-2.6-2.582-3.41-3.845-.808-1.26-1.26-2.626-1.27-4.086v-.045c0-1.46.462-2.832 1.27-4.092.811-1.266 1.948-2.458 3.414-3.847.255-.256.252-.254.158-.745-.098-.49-.475-1.34-1.092-2.408-.617-1.069-1.16-1.822-1.537-2.15-.377-.329-.382-.326-.73-.233H49c-1.93.573-3.538.954-5.037 1.024-1.495.07-2.91-.215-4.18-.938 0-.003 0-.007-.027-.01-.003-.003-.027-.008-.027-.013v-.004c-1.259-.738-2.218-1.814-2.904-3.143-.69-1.335-1.155-2.916-1.625-4.878v-.001c-.095-.348-.094-.347-.567-.51-.474-.161-1.4-.259-2.632-.259h-.02M32 27.505c1.652 0 3.236.656 4.405 1.824.054 0 .106.022.144.06a6.23 6.23 0 0 1 1.824 4.405c.039.038.06.09.06.144a6.228 6.228 0 0 1-1.824 4.405.204.204 0 0 1-.06.145 6.229 6.229 0 0 1-4.405 1.824.205.205 0 0 1-.144.06 6.228 6.228 0 0 1-4.405-1.824.204.204 0 0 1-.145-.06 6.229 6.229 0 0 1-1.824-4.405.205.205 0 0 1-.06-.145c0-1.652.656-3.236 1.824-4.405 0-.054.022-.106.06-.144a6.229 6.229 0 0 1 4.405-1.824.205.205 0 0 1 .145-.06" style="-inkscape-stroke:none;font-variation-settings:normal"/><path d="M31.982 11.268c-1.234 0-2.16.098-2.633.26-.473.162-.473.161-.566.51-.47 1.963-.937 3.543-1.627 4.878-.687 1.33-1.644 2.405-2.902 3.143v.004c-.002.009-.027.015-.038.023-1.27.723-2.684 1.013-4.18.944-1.51-.07-3.121-.464-5.072-1.043l.03.013c-.349-.093-.346-.096-.723.233-.377.33-.922 1.082-1.539 2.15v.001c-.617 1.068-1.003 1.915-1.1 2.405v.001c-.097.49-.085.494.17.75 1.462 1.386 2.6 2.586 3.41 3.85.808 1.26 1.259 2.625 1.268 4.085l.002.021v.024c0 1.461-.462 2.834-1.27 4.094-.811 1.266-1.952 2.456-3.417 3.845-.256.256-.25.252-.155.743.098.49.476 1.342 1.092 2.41.617 1.069 1.157 1.822 1.533 2.15.377.329.386.326.735.232 1.93-.572 3.538-.957 5.037-1.027 1.495-.07 2.91.22 4.18.942 0 .004 0 .015.027.017.003.003.023.005.023.01v.006c1.26.738 2.22 1.814 2.906 3.143.69 1.335 1.157 2.914 1.627 4.876.095.349.094.348.567.51.474.162 1.4.264 2.633.264 1.234 0 2.157-.102 2.63-.264h.001c.472-.162.469-.161.562-.51.47-1.963.941-3.542 1.63-4.876l.001-.001c.687-1.328 1.643-2.404 2.902-3.142v-.006c.002-.006.027-.005.027-.01 0-.004.002-.015.028-.017 1.27-.723 2.685-1.013 4.18-.944 1.51.07 3.118.46 5.068 1.04l-.03-.01H49c.348.093.346.095.722-.233.378-.33.927-1.082 1.543-2.15v-.001c.617-1.068 1-1.92 1.096-2.41.097-.49.09-.494-.162-.75-1.462-1.386-2.6-2.582-3.41-3.845-.808-1.26-1.26-2.626-1.27-4.086v-.045c0-1.46.462-2.832 1.27-4.092.811-1.266 1.948-2.458 3.414-3.847.255-.256.252-.254.158-.745-.098-.49-.475-1.34-1.092-2.408-.617-1.069-1.16-1.822-1.537-2.15-.377-.329-.382-.326-.73-.233H49c-1.93.573-3.538.954-5.037 1.024-1.495.07-2.91-.215-4.18-.938 0-.003 0-.007-.027-.01-.003-.003-.027-.008-.027-.013v-.004c-1.259-.738-2.218-1.814-2.904-3.143-.69-1.335-1.155-2.916-1.625-4.879-.095-.348-.094-.347-.567-.51-.474-.161-1.4-.259-2.632-.259h-.02M32 27.067A6.433 6.433 0 1 1 32 39.933 6.433 6.433 0 0 1 32 27.067z" style="-inkscape-stroke:none;font-variation-settings:normal"/></g><path d="M31.982 11.268c-1.234 0-2.16.098-2.633.26-.473.162-.473.161-.566.51-.47 1.962-.937 3.543-1.627 4.878-.687 1.329-1.644 2.405-2.903 3.143v.004c0 .008-.026.015-.037.023-1.269.723-2.684 1.013-4.18.944-1.51-.07-3.121-.463-5.072-1.043l.03.013c-.35-.093-.346-.096-.723.233-.377.328-.922 1.082-1.54 2.15-.616 1.069-1.002 1.916-1.099 2.406-.085.43-.076.494.096.672.165-.503.504-1.212 1.004-2.078.617-1.068 1.162-1.822 1.539-2.15.377-.329.374-.326.723-.233l-.03-.013c1.95.58 3.563.972 5.073 1.043 1.495.07 2.91-.221 4.18-.944.01-.008.037-.015.036-.023v-.004c1.26-.738 2.216-1.814 2.903-3.143.69-1.335 1.157-2.916 1.627-4.878.093-.349.093-.348.566-.51.473-.162 1.4-.26 2.633-.26h.02c1.233 0 2.16.098 2.632.26.473.162.472.16.567.51.47 1.962.935 3.544 1.625 4.878.687 1.33 1.645 2.405 2.904 3.143v.004c0 .005.027.01.027.014.028.002.028.006.028.01 1.269.722 2.684 1.006 4.18.937 1.498-.07 3.106-.451 5.037-1.024.348-.093.353-.096.73.233.376.329.92 1.082 1.537 2.15.502.87.835 1.58.998 2.084.179-.185.178-.24.094-.676-.097-.49-.475-1.339-1.092-2.408-.617-1.068-1.16-1.822-1.537-2.15-.377-.329-.382-.326-.73-.233-1.931.573-3.539.954-5.038 1.024-1.495.07-2.91-.215-4.18-.938 0-.003.001-.006-.027-.01 0-.002-.027-.008-.027-.013v-.004c-1.259-.738-2.217-1.814-2.904-3.143-.69-1.334-1.155-2.916-1.625-4.878-.095-.349-.094-.348-.567-.51-.473-.162-1.399-.26-2.632-.26h-.02zm15.557 22.709c-.012.165-.02.33-.02.498v.045c.01 1.46.462 2.826 1.27 4.086.81 1.263 1.948 2.46 3.41 3.846.03.03.045.05.069.074.037-.116.075-.233.093-.324.098-.49.091-.495-.162-.75-1.462-1.387-2.6-2.583-3.41-3.846-.723-1.128-1.16-2.34-1.25-3.629zM25.633 34a6.433 6.433 0 0 0-.066.5A6.433 6.433 0 0 0 32 40.934a6.433 6.433 0 0 0 6.434-6.434 6.433 6.433 0 0 0-.024-.5A6.433 6.433 0 0 1 32 39.934 6.433 6.433 0 0 1 25.633 34zm-9.172.041c-.096 1.267-.537 2.464-1.248 3.573-.811 1.265-1.953 2.456-3.418 3.845-.256.256-.249.252-.154.743.018.09.056.207.094.322.02-.022.033-.038.06-.065 1.465-1.39 2.607-2.58 3.418-3.845.808-1.26 1.27-2.633 1.27-4.094v-.023l-.002-.022c-.001-.146-.01-.29-.02-.434z" fill="#fff" fill-opacity=".61" style="-inkscape-stroke:none;font-variation-settings:normal"/><g fill="#130044" fill-opacity=".02" opacity=".317"><path d="m26.54 27.513-.424 3.061h5.886c4.57 0 8.295 3.518 8.295 8.287s-3.724 8.287-8.294 8.287h-5.886l.424 3.062c1.328.356 9.28 2.2 10.819 1.52 3.914-1.728 9.337-10.014 11.556-10.014 3.065 0 15-.17 15-.17L64 38.955h.007l-.003-.095.003-.091h-.007l-.083-2.595s-11.935-.168-15-.168c-2.219 0-7.642-8.287-11.557-10.016-1.539-.68-9.491 1.167-10.82 1.523z" style="-inkscape-stroke:none;font-variation-settings:normal"/><path d="m26.54 26.17-.424 3.061h5.886c4.57 0 8.295 3.518 8.295 8.287 0 4.77-3.724 8.287-8.294 8.287h-5.887l.424 3.062c1.33.356 9.28 2.2 10.82 1.52 3.914-1.728 9.337-10.014 11.556-10.014 3.065 0 15-.17 15-.17L64 37.612h.007l-.003-.095.003-.092h-.007l-.082-2.594s-11.935-.168-15-.168c-2.22 0-7.643-8.287-11.557-10.016-1.54-.68-9.492 1.167-10.82 1.523z" style="-inkscape-stroke:none;font-variation-settings:normal"/><path d="m26.54 25.614-.424 3.061h5.886c4.57 0 8.295 3.518 8.295 8.287 0 4.77-3.724 8.287-8.294 8.287h-5.887l.424 3.062c1.33.356 9.28 2.2 10.82 1.52 3.914-1.728 9.337-10.015 11.556-10.015 3.065 0 15-.169 15-.169L64 37.056h.007l-.003-.096.003-.09h-.007l-.082-2.595s-11.935-.168-15-.168c-2.22 0-7.643-8.287-11.557-10.016-1.54-.68-9.492 1.167-10.82 1.523z" style="-inkscape-stroke:none;font-variation-settings:normal"/><path d="m26.54 25.187-.424 3.061h5.886c4.57 0 8.295 3.518 8.295 8.287 0 4.77-3.724 8.287-8.294 8.287h-5.886l.424 3.062c1.329.356 9.28 2.2 10.819 1.52 3.915-1.728 9.337-10.015 11.556-10.015 3.066 0 15.001-.169 15.001-.169L64 36.628h.006l-.003-.095.003-.09H64l-.083-2.595s-11.935-.168-15-.168c-2.22 0-7.642-8.287-11.557-10.016-1.54-.68-9.492 1.166-10.82 1.522z" style="-inkscape-stroke:none;font-variation-settings:normal"/><path d="m26.54 24.827-.424 3.061h5.886c4.57 0 8.295 3.518 8.295 8.287 0 4.77-3.724 8.287-8.294 8.287h-5.886l.424 3.062c1.329.356 9.28 2.2 10.819 1.52 3.915-1.728 9.337-10.015 11.556-10.015 3.066 0 15.001-.169 15.001-.169L64 36.268h.006l-.003-.095.003-.09H64l-.083-2.595s-11.935-.168-15-.168c-2.22 0-7.642-8.287-11.557-10.016-1.54-.68-9.492 1.167-10.82 1.523z" style="-inkscape-stroke:none;font-variation-settings:normal"/><path d="m26.54 24.51-.424 3.061h5.886c4.57 0 8.295 3.518 8.295 8.287 0 4.77-3.724 8.287-8.294 8.287h-5.886l.424 3.062c1.329.356 9.28 2.2 10.819 1.52C41.275 47 46.697 38.712 48.916 38.712c3.066 0 15.001-.169 15.001-.169L64 35.951h.006l-.003-.095.003-.09H64l-.083-2.595s-11.935-.169-15-.169c-2.22 0-7.642-8.287-11.557-10.016-1.54-.68-9.492 1.167-10.82 1.523z" style="-inkscape-stroke:none;font-variation-settings:normal"/><path d="m26.54 24.223-.424 3.061h5.886c4.57 0 8.295 3.518 8.295 8.287 0 4.77-3.724 8.287-8.294 8.287h-5.886l.424 3.062c1.33.356 9.28 2.2 10.819 1.52 3.915-1.729 9.337-10.015 11.556-10.015 3.066 0 15.001-.169 15.001-.169L64 35.665h.006v-.001l-.003-.095.003-.09H64l-.083-2.595s-11.935-.168-15-.168c-2.22 0-7.642-8.287-11.557-10.016-1.54-.68-9.492 1.167-10.82 1.523z" style="-inkscape-stroke:none;font-variation-settings:normal"/><path d="m26.54 23.96-.424 3.061h5.886c4.57 0 8.295 3.518 8.295 8.287 0 4.77-3.724 8.287-8.294 8.287h-5.886l.424 3.062c1.33.356 9.28 2.2 10.819 1.52 3.915-1.729 9.337-10.015 11.556-10.015 3.066 0 15.001-.169 15.001-.169L64 35.401h.007l-.004-.095.003-.09H64l-.083-2.595s-11.935-.168-15-.168c-2.22 0-7.642-8.287-11.557-10.016-1.54-.68-9.492 1.166-10.82 1.522z" style="-inkscape-stroke:none;font-variation-settings:normal"/><path d="m26.54 23.714-.424 3.061h5.886c4.57 0 8.295 3.518 8.295 8.287 0 4.77-3.724 8.287-8.294 8.287h-5.886l.424 3.062c1.33.356 9.28 2.2 10.819 1.52 3.915-1.729 9.337-10.015 11.556-10.015 3.066 0 15.001-.169 15.001-.169L64 35.156h.007v-.001l-.004-.095.003-.09H64l-.083-2.595s-11.935-.168-15-.168c-2.22 0-7.642-8.287-11.557-10.016-1.54-.68-9.492 1.167-10.82 1.523z" style="-inkscape-stroke:none;font-variation-settings:normal"/><path d="m26.54 23.484-.424 3.061h5.886c4.57 0 8.295 3.518 8.295 8.287 0 4.77-3.724 8.287-8.294 8.287h-5.886l.424 3.062c1.33.356 9.28 2.2 10.819 1.52 3.915-1.729 9.337-10.015 11.556-10.015 3.066 0 15.001-.169 15.001-.169L64 34.925h.007a85.8 85.8 0 0 0-.004-.095l.003-.09H64l-.083-2.595s-11.935-.168-15-.168c-2.22 0-7.642-8.287-11.557-10.016-1.54-.68-9.492 1.166-10.82 1.522z" style="-inkscape-stroke:none;font-variation-settings:normal"/><path d="m26.54 23.266-.424 3.061h5.886c4.57 0 8.295 3.518 8.295 8.287 0 4.77-3.724 8.287-8.294 8.287h-5.886l.424 3.062c1.33.356 9.28 2.2 10.819 1.52 3.915-1.729 9.337-10.015 11.556-10.015 3.066 0 15.001-.169 15.001-.169L64 34.707h.007a53.5 53.5 0 0 1-.004-.095l.004-.09H64c0-.032-.083-2.595-.083-2.595s-11.935-.169-15-.169c-2.22 0-7.642-8.287-11.557-10.016-1.54-.68-9.492 1.167-10.82 1.523z" style="-inkscape-stroke:none;font-variation-settings:normal"/><path d="m26.54 23.059-.424 3.061h5.886c4.57 0 8.295 3.518 8.295 8.287 0 4.77-3.724 8.287-8.294 8.287h-5.887l.424 3.062c1.33.356 9.28 2.2 10.82 1.52 3.915-1.729 9.337-10.015 11.556-10.015 3.066 0 15.001-.169 15.001-.169L64 34.5h.007l-.003-.095.003-.09H64c0-.034-.083-2.595-.083-2.595s-11.935-.168-15-.168c-2.219 0-7.642-8.288-11.557-10.016-1.539-.68-9.491 1.166-10.82 1.522z" style="-inkscape-stroke:none;font-variation-settings:normal"/><path d="m26.54 22.86-.424 3.061h5.886c4.57 0 8.295 3.518 8.295 8.287 0 4.77-3.724 8.287-8.294 8.287h-5.887l.424 3.062c1.33.356 9.28 2.2 10.82 1.52 3.915-1.729 9.337-10.015 11.556-10.015 3.066 0 15.001-.169 15.001-.169L64 34.301h.007l-.003-.095.003-.09H64c0-.035-.083-2.595-.083-2.595s-11.935-.169-15-.169c-2.219 0-7.642-8.287-11.557-10.016-1.539-.68-9.491 1.167-10.82 1.523z" style="-inkscape-stroke:none;font-variation-settings:normal"/><path d="m26.54 22.67-.424 3.061h5.886c4.57 0 8.295 3.518 8.295 8.287 0 4.77-3.724 8.287-8.294 8.287h-5.887l.424 3.062c1.33.356 9.28 2.2 10.82 1.52 3.915-1.729 9.337-10.015 11.556-10.015 3.066 0 15.001-.169 15.001-.169L64 34.111h.007l-.003-.095.003-.09H64l-.083-2.595s-11.935-.168-15-.168c-2.219 0-7.642-8.287-11.557-10.016-1.539-.68-9.491 1.166-10.82 1.522z" style="-inkscape-stroke:none;font-variation-settings:normal"/><path d="m26.54 22.488-.424 3.061h5.886c4.57 0 8.295 3.518 8.295 8.287 0 4.77-3.724 8.287-8.294 8.287h-5.887l.424 3.062c1.33.356 9.28 2.2 10.82 1.52 3.915-1.729 9.337-10.015 11.557-10.015 3.065 0 15-.169 15-.169L64 33.929h.007l-.003-.095.003-.09H64c0-.038-.083-2.595-.083-2.595s-11.935-.169-15-.169c-2.219 0-7.642-8.287-11.557-10.016-1.539-.68-9.491 1.167-10.82 1.523z" style="-inkscape-stroke:none;font-variation-settings:normal"/><path d="m26.54 22.311-.424 3.061h5.886c4.57 0 8.295 3.518 8.295 8.287 0 4.77-3.724 8.287-8.294 8.287h-5.887l.424 3.062c1.33.356 9.28 2.2 10.82 1.52 3.915-1.729 9.337-10.015 11.557-10.015 3.065 0 15-.169 15-.169L64 33.752h.007l-.003-.095.003-.09H64v-.001c0-.039-.083-2.594-.083-2.594s-11.935-.169-15-.169c-2.219 0-7.642-8.287-11.557-10.016-1.539-.68-9.491 1.167-10.82 1.523z" style="-inkscape-stroke:none;font-variation-settings:normal"/><path d="m26.54 22.141-.424 3.061h5.886c4.57 0 8.295 3.518 8.295 8.287 0 4.77-3.724 8.287-8.294 8.287h-5.887l.424 3.062c1.33.356 9.28 2.2 10.82 1.52 3.915-1.729 9.337-10.015 11.557-10.015 3.065 0 15-.169 15-.169L64 33.582h.007l-.003-.095.003-.09H64l-.083-2.595s-11.935-.169-15-.169c-2.219 0-7.642-8.287-11.557-10.016-1.539-.68-9.491 1.167-10.82 1.523z" style="-inkscape-stroke:none;font-variation-settings:normal"/></g><path d="m26.54 22.141-.424 3.061h5.886c4.57 0 8.295 3.518 8.295 8.287 0 4.769-3.724 8.287-8.294 8.287h-5.886l.424 3.062c1.328.356 9.28 2.2 10.819 1.52 3.914-1.728 9.337-10.014 11.556-10.014 3.065 0 15-.17 15-.17L64 33.583h.007l-.003-.095.003-.092h-.007l-.083-2.594s-11.935-.168-15-.168c-2.219 0-7.642-8.287-11.557-10.016-1.539-.68-9.491 1.167-10.82 1.523z" fill="#c8d6ea"/><path d="M36.508 20.473c-2.571-.097-8.806 1.357-9.969 1.668l-.424 3.06h.139l.285-2.06c1.329-.356 9.281-2.203 10.82-1.523 3.915 1.728 9.338 10.016 11.557 10.016 3.066 0 15.002.17 15.002.17l.069 2.185.013-.406h.006l-.002-.096.002-.09H64l-.082-2.594s-11.936-.17-15.002-.17c-2.22 0-7.642-8.287-11.557-10.015-.192-.085-.484-.131-.851-.145zm3.764 13.516c-.252 4.51-3.862 7.787-8.27 7.787h-5.885l.14 1h5.745c4.57 0 8.295-3.518 8.295-8.287 0-.17-.016-.334-.025-.5z" fill="#fff" fill-opacity=".527"/></g></svg>