<?xml version="1.0" encoding="UTF-8"?>
<svg id="y" width="64" height="64" version="1.1" xmlns="http://www.w3.org/2000/svg" xmlns:cc="http://creativecommons.org/ns#" xmlns:dc="http://purl.org/dc/elements/1.1/" xmlns:rdf="http://www.w3.org/1999/02/22-rdf-syntax-ns#" xmlns:xlink="http://www.w3.org/1999/xlink">
	<defs id="as">
		<linearGradient id="h" x1="9.5058" x2="9.5058" y1="25.303" y2="22.317" gradientUnits="userSpaceOnUse">
			<stop id="m" style="stop-color:#726945" offset="0"/>
			<stop id="p" style="stop-color:#a1a1a1" offset=".19801"/>
			<stop id="i" style="stop-color:#c6c6c6" offset=".36704"/>
			<stop id="al" style="stop-color:#7c7c7c" offset=".5817"/>
			<stop id="ak" style="stop-color:#b7b7b7" offset=".69823"/>
			<stop id="aq" style="stop-color:#f3f3f3" offset=".82089"/>
			<stop id="n" style="stop-color:#e2d0a5" offset="1"/>
		</linearGradient>
		<linearGradient id="g" x1="25" x2="25" y1="17.826" y2="30.763" gradientUnits="userSpaceOnUse">
			<stop id="an" style="stop-color:#4daaf6" offset="0"/>
			<stop id="ab" style="stop-color:#114a92" offset=".53019"/>
			<stop id="am" style="stop-color:#114a92" offset=".89792"/>
			<stop id="o" style="stop-color:#5a5b6e" offset="1"/>
		</linearGradient>
		<linearGradient id="f" x1="25" x2="25" y1="17.306" y2="27.055" gradientTransform="matrix(1 0 0 1.0394 0 -.95149)" gradientUnits="userSpaceOnUse">
			<stop id="ah" style="stop-color:#52b2ff" offset="0"/>
			<stop id="af" style="stop-color:#51b1fe" offset=".14144"/>
			<stop id="aa" style="stop-color:#e4f1fc" offset=".32457"/>
			<stop id="ae" style="stop-color:#2a72bc" offset=".53662"/>
			<stop id="ag" style="stop-color:#114a92" offset="1"/>
		</linearGradient>
		<linearGradient id="e" x1="33.927" x2="36.801" y1="41.7" y2="46.677" gradientUnits="userSpaceOnUse">
			<stop id="bc" style="stop-color:#a70a27;stop-opacity:.41337" offset="0"/>
			<stop id="bd" style="stop-color:#dc0029;stop-opacity:.11386" offset="1"/>
		</linearGradient>
		<linearGradient id="d" x1="33.073" x2="27.059" y1="48.291" y2="48.291" gradientUnits="userSpaceOnUse">
			<stop id="ao" style="stop-color:#9f813e" offset="0"/>
			<stop id="aw" style="stop-color:#744a3b" offset=".25672"/>
			<stop id="ap" style="stop-color:#ac6a50" offset=".49304"/>
			<stop id="az" style="stop-color:#744a3b" offset=".76985"/>
			<stop id="at" style="stop-color:#95773e" offset="1"/>
		</linearGradient>
		<radialGradient id="b" cx="32" cy="20.164" r="32" gradientTransform="matrix(1 0 0 .067707 0 .75587)" gradientUnits="userSpaceOnUse">
			<stop id="t" style="stop-color:#7fd7ff" offset="0"/>
			<stop id="s" style="stop-color:#64b6ff" offset="1"/>
		</radialGradient>
		<radialGradient id="a" cx="37.966" cy="26.576" r="32" gradientTransform="matrix(1.3133e-7 1.8438 -1.75 1.2466e-7 78.508 -59)" gradientUnits="userSpaceOnUse">
			<stop id="ax" style="stop-color:#dfc44d" offset="0"/>
			<stop id="ba" style="stop-color:#d6ae33" offset="1"/>
		</radialGradient>
		<radialGradient id="c" cx="37.966" cy="26.576" r="32" gradientTransform="matrix(0 1.8438 -1.75 0 78.508 -59)" gradientUnits="userSpaceOnUse">
			<stop id="be" style="stop-color:#127ee0" offset="0"/>
			<stop id="ar" style="stop-color:#2c6fc5" offset="1"/>
		</radialGradient>
	</defs>
	<metadata id="ay">
		<rdf:RDF>
			<cc:Work rdf:about="">
				<dc:format>image/svg+xml</dc:format>
				<dc:type rdf:resource="http://purl.org/dc/dcmitype/StillImage"/>
				<dc:title/>
			</cc:Work>
		</rdf:RDF>
	</metadata>
	<path id="av" d="m2 0-2 1v1h32 32v-1l-2-1h-30z" style="color:#000000;fill:#f1ff58"/>
	<path id="ai" d="m0 2v32 28l2 2h30 30l2-2v-28-32h-32z" style="color:#000000;fill:url(#a)"/>
	<path id="x" d="m0 2v1.168l0.17969 0.31445c-0.0053423 0.46236-0.056419 0.87959-0.17969 1.2246v4.8125 24.48 28l2 2h19.549l-19.99-51.82c0.22155 0.37051 0.66395 1.1473 0.74023 1.2617 2.2761 3.4142 7.5066 11.746 12.047 16.893l3.7734 6.6191 4.7285-1.7891c-0.22836-0.34123-0.4568-0.68247-0.68555-1.0234-2.0973-3.4021-6.0578-9.805-8.0977-13.195-1.1769-1.956-2.3309-3.926-3.4902-5.8926 0.31148 0.31448 0.63592 0.62459 0.97266 0.92383 0.18092 0.30291 0.35434 0.61032 0.53711 0.91211 3.0721 5.0728 4.5841 7.326 7.7812 12.262 1.2281 1.9245 2.4941 3.8239 3.7695 5.7168l4.9434-1.8711c-0.30983-0.55032-0.54701-0.96434-0.89844-1.584-1.1884-1.4845-2.3575-2.9842-3.5-4.5039-1.0492-1.3955-1.9013-2.5589-2.6992-3.666 0.0081-0.0079 9e-3 -0.02633 0.0098-0.04492 1.9696 2.7224 3.9969 5.4024 6.0859 8.0352-0.02898-0.05103-0.04294-0.07732-0.07227-0.12891-6.5981-11.882-0.73722-1.2517-7.3496-13.479-1.7443-3.2253-1.8748-3.4446-2.3789-4.3594-0.66548-0.71954-1.3106-1.3987-1.9512-2.0801-0.07796-0.20978-0.15899-0.41918-0.24024-0.62695 0.52105 0.56127 1.008 1.0882 1.4609 1.5859 0.79403 1.2042 1.6013 2.4184 2.4883 3.7051 0.29798 0.55158 0.59648 1.1029 0.89453 1.6543 1.2388 2.292 2.4676 4.5886 3.7168 6.875 1.2045 2.2045 2.4302 4.3986 3.6445 6.5977 0.42682 0.7308 0.72967 1.2456 1.1074 1.8984l1.5605-0.58984c-0.11428-0.418-0.22065-0.83814-0.33594-1.2559-0.47734-1.1204-0.96014-2.2388-1.418-3.3672-0.44987-1.1088-0.87636-2.2271-1.3066-3.3438-1.4022-1.741-2.9209-3.5106-4.8926-5.8164-0.11549-0.22763-0.2453-0.47126-0.38086-0.72461 1.6093 1.8423 3.2367 3.6689 4.7852 5.5625 0.07387 0.09034 0.13774 0.17378 0.21094 0.26367-0.20947-0.54183-0.42052-1.0831-0.63477-1.623-0.47114-1.1873-0.95324-2.3703-1.4316-3.5547 0.20398 0.261 0.4328 0.5408 0.58008 0.76172 0.22189 0.33284 0.3789 0.52532 0.50977 0.66016 0.64 1.6427 1.2766 3.2769 1.9316 4.9551 0.14458 0.18101 0.28939 0.36328 0.43164 0.54297-0.42117-1.4468-0.84554-2.8932-1.2871-4.334-0.03342-0.10906-0.06994-0.21716-0.10352-0.32617-0.19845-0.33965-0.44705-0.76384-0.6543-1.1191-0.02164-0.16112-0.05747-0.35425-0.11328-0.58398 0.15666 0.25626 0.31206 0.51322 0.46875 0.76953-0.60088-1.9246-1.2136-3.8459-1.8418-5.7617-0.48104-1.467-0.96225-2.9339-1.457-4.3965 0.24488 0.38284 0.53086 0.79224 0.80859 1.2012 1.1364 3.3642 2.2053 6.8316 3.2129 10.137 0.0063 0.0207 0.01127 0.0418 0.01758 0.0625 0.52266 0.8652 1.051 1.7272 1.5547 2.6035 1.4426 2.5097 2.7676 5.0841 4.1582 7.623l4.7227-1.7871c-1.4982-2.2194-2.9157-4.4955-4.3105-6.7812-1.6137-2.6444-3.1575-5.3325-4.6543-8.0449-0.48642-1.1517-1.1788-2.6549-1.832-4.082 2.0622 4.0979 4.2386 8.1368 6.5938 12.078 1.3736 2.2987 2.7703 4.5858 4.2637 6.8086l1.0137-0.38476c-0.91567-1.4323-1.8352-2.863-2.7422-4.3008-1.5884-2.5181-3.1795-5.0341-4.7324-7.5742-2.4791-4.0551-4.045-6.7268-5.6113-9.4375-0.03069-0.087434-0.07418-0.19938-0.0918-0.26367 0.27468 0.48634 0.54019 0.97793 0.82031 1.4609 1.6031 2.7641 3.2786 5.4857 4.9629 8.2012 2.6921 4.3404 5.0153 7.879 7.6504 11.816l3.5547-1.3438c-0.30325-0.55971-0.53328-0.99614-0.88672-1.6426-1.4073-2.5739-2.7996-5.1571-4.3066-7.6738-0.9477-1.5826-1.9422-3.1373-2.9492-4.6836 0.16105 0.11262 0.20491 0.13869 0.30664 0.20508 0.86815 1.4082 1.7487 2.8557 2.7051 4.4492 1.5128 2.5206 3.0153 5.0478 4.4609 7.6074 0.2275 0.4028 0.6264 1.1588 0.89844 1.6523l1.291-0.49023c-1.9012-4.5605-4.0458-9.0145-6.3809-13.369-0.66705-0.94745-1.3209-1.9034-1.9785-2.8574 0.20141-0.04609 0.46826 0.03447 0.80859 0.26953 0.68885 1.1262 1.453 2.3512 2.6191 4.1719 0.55521 0.76602 1.1104 1.5325 1.6758 2.291 1.3596 1.824 2.7835 3.599 4.1855 5.3906 1.4207 1.8155 1.7146 2.1788 2.2793 2.8906l2.0078-0.75977c-1.2133-2.0468-2.4014-4.1108-3.668-6.125-1.3424-2.1348-2.7799-4.2066-4.1582-6.3184-0.0412-0.06312-0.03378-0.05328-0.07422-0.11523-0.10646-0.40857-0.21888-0.80532-0.33789-1.1797 0.24731 0.3759 0.49487 0.74363 0.74219 1.1211 1.3823 2.1097 2.7729 4.2151 4.1289 6.3418 1.2899 2.0231 2.5539 4.0631 3.8066 6.1094l4.041-1.5293-10.898-21.342h-1.0039-10.191-21.389-1.1816c0.011509 0.020461 0.031349 0.05748 0.042969 0.078125 0.38813 0.40441 0.7771 0.80755 1.1621 1.2148 0.26734 0.28281 0.30278 0.32381 0.54492 0.58008 0.11714 0.30914 0.23951 0.61491 0.38476 0.9082-0.44684-0.45244-0.71571-0.73974-1.2344-1.2598-0.03382-0.033908-0.06962-0.065778-0.10352-0.099609 0.5853 1.0346 0.8505 1.5068 1.8262 3.252 0.13967 0.22445 0.21171 0.34277 0.3457 0.55859 0.04038 0.17981 0.07512 0.35065 0.10742 0.52148-0.20673-0.3345-0.42394-0.66249-0.62891-0.99805-0.85072-1.4117-1.7114-2.8174-2.5664-4.2266-0.18183-0.1763-0.36239-0.3537-0.54492-0.5293h-0.089844-1.3242-2.7852c0.44498 0.7951 0.73009 1.3048 1.0918 1.9512-0.468-0.701-1.1205-1.6827-1.2383-1.8789-0.013636-0.022727-0.029276-0.049326-0.042969-0.072266h-4.2754zm27.576 29.232c0.04067 0.07161 0.0635 0.10913 0.10352 0.17969 0.35962 0.4492 0.7324 0.88776 1.0957 1.334-0.40454-0.50082-0.79907-1.0094-1.1992-1.5137zm10.955-16.859c0.11164 0.20919 0.22876 0.41553 0.33984 0.625 2.926 5.5176 4.0717 8.0417 5.7402 11.932l1.4336-0.54297c-1.1605-1.868-2.3494-3.7176-3.5156-5.582-1.3388-2.1404-2.6646-4.2879-3.998-6.4316zm3.8379 5.3047c0.68921 1.0473 1.369 2.1008 2.0664 3.1426 0.74543 1.1135 1.5085 2.2141 2.2676 3.3184l0.42383-0.16016c-0.73306-0.94332-1.4705-1.8838-2.1895-2.8379-0.86503-1.1479-1.7166-2.305-2.5684-3.4629zm-14.543 2.2285c0.4137 1.3677 0.8113 2.7407 1.2148 4.1113 1.388 1.7731 2.6913 3.5247 3.9668 5.3027l0.04883-0.01953c-2.1826-4.0869-3.6617-6.6944-5.2305-9.3945zm0.54102 3.6348c0.22849 0.57925 0.45179 1.1508 0.70508 1.7734-0.1309-0.45891-0.25802-0.91853-0.39062-1.377-0.10946-0.14186-0.2076-0.25942-0.31445-0.39648zm0.85937 1.1074c0.33275 1.1338 0.67517 2.2654 1.0039 3.4004 0.28582 0.66579 0.5652 1.3344 0.85156 2l1.6367-0.61914c-0.2818-0.40014-0.55738-0.80406-0.84375-1.2012-1.034-1.4338-1.8697-2.5547-2.6484-3.5801z" style="color:#000000;fill:url(#c)"/>
	<path id="r" d="m20.08 2-10.232 0.46484h-0.0039062c0.15279 0.15907 0.30475 0.31897 0.45703 0.47852l20.438-0.92578 0.38672-0.017578h-11.045zm22.121 0 9.6602 16.969-6.7402-13.197-2.1465-3.7715h-0.77344zm-32.93 0.49023-0.60352 0.027344c0.012425 0.019918 0.034331 0.056074 0.046875 0.076172 0.14113 0.1343 0.28074 0.26812 0.42188 0.40234l0.23438-0.0097657 0.21094-0.0097656c-0.090578-0.14904-0.18102-0.29816-0.27148-0.44727-0.013221-0.01282-0.025854-0.026233-0.039062-0.039062zm-1.2676 0.056641-0.089844 0.0058594-1.3223 0.058594-1.6406 0.074219c0.090556 0.16184 0.18879 0.33699 0.27344 0.48828l0.89062-0.039062 1.3223-0.060547 0.089844-0.0039063c0.1903 0.16715 0.37873 0.33602 0.56836 0.50391 0.91797 1.369 1.842 2.7338 2.7559 4.1055 0.21996 0.32592 0.45216 0.64397 0.67383 0.96875-0.040009-0.1692-0.082374-0.33783-0.13086-0.51562-0.14364-0.20953-0.22139-0.32508-0.37109-0.54297-1.0537-1.6992-1.3411-2.159-1.9727-3.166 0.035398 0.03226 0.074058 0.063362 0.10938 0.095703 0.44583 0.40821 0.71878 0.67088 1.0605 0.99023-0.31051-0.4622-0.61895-0.92662-0.92969-1.3887-0.3499-0.33636-0.70106-0.6712-1.0527-1.0059-0.012544-0.020097-0.034451-0.056254-0.046875-0.076172l0.35156-0.015625c-0.17917-0.15884-0.35914-0.31853-0.53906-0.47656zm-3.1758 0.14453-1.0176 0.046875c0.12309 0.19829 0.19605 0.31759 0.30078 0.48633l1.0371-0.046875c-0.12888-0.19446-0.21884-0.33154-0.32031-0.48633zm-1.207 0.054688-3.6211 0.16406v0.25781l0.13672 0.23828 3.0078-0.13672c0.014717 0.022296 0.030271 0.048227 0.044922 0.070313 0.12652 0.1907 0.82298 1.1412 1.3223 1.8203-0.39062-0.62933-0.69914-1.1263-1.1797-1.9004l0.63477-0.029297c-0.078733-0.10993-0.272-0.37068-0.30078-0.41406-0.014652-0.022086-0.030204-0.048017-0.044922-0.070312zm21.26 4.9941c0.02051 0.063429 0.068892 0.17186 0.10352 0.25781 0.95555 1.4931 1.968 3.0528 3.0996 4.7715-0.062059-0.12348-0.12542-0.24659-0.18945-0.37305-0.71647-1.0738-1.4313-2.1482-2.1289-3.2344-0.30172-0.46982-0.58833-0.94848-0.88477-1.4219zm-2.2715 2.248c0.56055 1.4387 1.1073 2.8805 1.6543 4.3242 0.7144 1.8854 1.4141 3.7784 2.1016 5.6738-0.01619-0.02397-0.032658-0.048285-0.048828-0.072266 0.57768 1.3046 1.1582 2.6117 1.7461 3.9375-0.036019-0.12253-0.073232-0.24469-0.10938-0.36719-0.15957-0.46428-0.31916-0.92964-0.48242-1.3926 0.042503 0.066067 0.085772 0.1371 0.12891 0.20508-0.07912-0.26404-0.1543-0.52923-0.23438-0.79297-0.068245-0.1037-0.13614-0.2073-0.20508-0.31055-0.0072-0.02039-0.012301-0.04211-0.019531-0.0625-0.12186-0.34315-0.25008-0.69565-0.37695-1.0469-0.1045-0.17863-0.20688-0.35324-0.30273-0.51758-0.021641-0.16112-0.05747-0.35425-0.11328-0.58398 0.015084 0.024672 0.02986 0.049534 0.044922 0.074219-0.93688-2.6193-1.9029-5.2875-2.9219-7.9062-0.29598-0.39593-0.59936-0.79076-0.86133-1.1621zm12.561 0.61914c0.70019 0.92328 1.3962 1.8494 2.1055 2.7656 2.1758 3.6502 4.2014 7.3869 6.0684 11.203-0.61067-1.3902-1.2353-2.774-1.8887-4.1445-0.86864-1.6051-1.8685-3.3769-3.2637-5.7422-0.12046-0.20422-0.24618-0.4035-0.36719-0.60742 0.58866 0.85715 1.1759 1.7147 1.7637 2.5723-0.428-0.83897-0.86428-1.6742-1.3066-2.5059-0.90012-1.2829-1.6873-2.4133-2.291-3.3066-0.35063-0.2194-0.6212-0.28954-0.82031-0.23438zm-8.8457 0.14453c0.7172 1.396 1.4775 2.8656 2.0156 3.9941 1.6182 2.6418 3.2818 5.2576 5.0137 7.8262 0.93422 1.3856 1.8872 2.7588 2.8535 4.123-0.32285-0.50543-0.64512-1.0109-0.96289-1.5195-0.6007-0.88184-1.197-1.7682-1.7852-2.6582-2.5313-3.8305-4.889-7.7654-7.1348-11.766zm14.201 0.12891c0.13586 0.36859 0.26576 0.76074 0.39062 1.1641 0.04321 0.06005 0.036068 0.050135 0.080078 0.11133 1.4726 2.0471 3.0017 4.0513 4.4395 6.123 0.44091 0.63533 0.86667 1.2817 1.2949 1.9258-0.2623-0.4306-0.51679-0.8662-0.78516-1.293-1.2551-1.9959-2.5914-3.9382-3.8867-5.9082-0.24882-0.34412-0.49363-0.6909-0.74219-1.0352-0.26417-0.36587-0.52693-0.72359-0.79102-1.0879zm-25.799 0.42969c0.09057 0.20387 0.18215 0.4092 0.26953 0.61523 0.6708 0.65167 1.3456 1.3016 2.043 1.9902 0.54506 0.89099 0.6856 1.1032 2.5742 4.2461 5.04 8.3873 4.5358 7.5869 5.6055 9.3203 0.26203 0.3137 0.52742 0.62471 0.79297 0.93555-0.5151-0.92529-1.3521-2.436-1.4727-2.6562-0.21078-0.34481-0.42514-0.68774-0.63476-1.0332-1.3515-2.2274-2.682-4.4657-4.0234-6.6992-0.32273-0.53736-0.64609-1.0738-0.96875-1.6113-0.9444-1.2452-1.8065-2.4228-2.6543-3.5898-0.475-0.47672-0.9853-0.9805-1.5312-1.5176zm19.268 2.1562c1.076 1.499 2.1417 3.0069 3.1602 4.5449 1.3864 2.0938 2.6883 4.2411 3.9902 6.3887-0.51271-0.93853-1.0308-1.8733-1.5527-2.8066-0.787-1.2079-1.5798-2.412-2.377-3.6133-1.0276-1.5486-1.9732-2.9549-2.9043-4.3223-0.10464-0.06171-0.15042-0.086204-0.31641-0.19141zm-33.205 0.099609 10.793 24.598-5.1328-13.309-3.7266-8.4902c-0.37926-0.52549-0.84315-1.1724-1.1367-1.5723-0.081394-0.11086-0.55876-0.86647-0.79688-1.2266zm28.254 0.54688c0.018572 0.035323 0.038048 0.070157 0.05664 0.10547 0.14143 0.23865 0.28404 0.47636 0.42578 0.71484 0.50249 0.75323 0.90528 1.3694 1.4922 2.2383 1.6665 2.4672 3.3694 4.908 5.0703 7.3516 0.37871 0.54408 0.76308 1.0846 1.1445 1.627-0.30246-0.47482-0.60791-0.94777-0.9082-1.4238-0.28635-0.45396-0.56723-0.91126-0.85352-1.3652-1.4169-1.9733-2.8414-3.9931-4.375-6.2324-0.68735-1.0036-1.3714-2.0079-2.0527-3.0156zm9.8066 0.8457c0.007006 0.013103 0.014524 0.025937 0.021485 0.039063 0.50722 0.95646 0.90224 1.7281 1.3145 2.5273 0.4002 0.5835 0.80013 1.167 1.2012 1.75-0.5163-0.96405-1.0542-1.9167-1.5918-2.8691-0.2477-0.39929-0.49623-0.79807-0.74414-1.1973-0.067228-0.083324-0.13428-0.16641-0.20117-0.25zm-28.924 1.0684c1.2472 1.912 2.4896 3.8278 3.7539 5.7285 2.1914 3.2944 6.4382 9.5109 8.6875 12.814 0.14891 0.20158 0.29852 0.40374 0.44726 0.60547l0.033203-0.011719c-0.22836-0.34123-0.4568-0.68247-0.68555-1.0234-1.385-2.2466-3.441-5.5847-5.3613-8.7168-1.6392-2.2989-3.1779-4.4855-5.2832-7.6309-0.19625-0.2932-0.38367-0.59232-0.57812-0.88672-0.34995-0.28367-0.68826-0.57886-1.0137-0.87891zm11.66 2.1992c0.1469 0.24695 0.28838 0.48291 0.41406 0.70508 2.0741 2.2141 3.6708 3.9141 5.1504 5.5898 0.48043 1.096 0.95737 2.194 1.457 3.2812 0.43505 0.9467 0.89154 1.8835 1.3438 2.8223-0.42081-0.98562-0.84518-1.9699-1.248-2.9629-0.44987-1.1088-0.87636-2.2271-1.3066-3.3438-0.22639-0.2811-0.48682-0.58637-0.7207-0.87109 0.055066 0.1244 0.11126 0.24851 0.16602 0.37305-0.0772-0.08648-0.14477-0.16701-0.22266-0.25391-1.6326-1.8215-3.3421-3.5724-5.0332-5.3398zm2.957 0.51367c0.46522 1.0165 0.92948 2.0343 1.3906 3.0527 0.27466 0.29622 0.55137 0.59079 0.82422 0.88867-0.091458-0.23361-0.18092-0.468-0.27344-0.70117-0.12842-0.32364-0.26087-0.64565-0.39062-0.96875-0.13295-0.30007-0.26634-0.60207-0.39844-0.90039-0.13684-0.12876-0.30232-0.31428-0.53906-0.63672-0.15713-0.21401-0.39768-0.48289-0.61328-0.73438zm16.918 0.3457c0.28014 0.50563 0.64297 1.1257 0.88476 1.5801 0.34167 0.49333 0.68414 0.9863 1.0273 1.4785-0.28182-0.44625-0.56383-0.89234-0.84375-1.3398-0.35778-0.57198-0.71206-1.146-1.0684-1.7188zm0.9082 0.5918c0.1217 0.18492 0.24397 0.36947 0.36523 0.55469 0.17288 0.21194 0.34447 0.42498 0.51758 0.63672-0.29346-0.39771-0.58986-0.79316-0.88281-1.1914zm4.5781 0.20898c0.83907 1.3291 1.6708 2.6629 2.4941 4.002l0.19922-0.085938c-0.88799-1.3116-1.7917-2.6137-2.6934-3.916zm-3.3125 1.7168c0.26639 0.40596 0.53068 0.81332 0.80078 1.2168 0.55985 0.83628 1.1325 1.6634 1.7031 2.4922l0.20117-0.087891c-0.74827-0.98835-1.4987-1.9748-2.2344-2.9727-0.1585-0.215-0.3135-0.43248-0.4707-0.64844zm1.4414 0.78516c0.63708 0.85372 1.2772 1.7049 1.9199 2.5547l0.21289-0.089843c-0.49501-0.56822-0.8709-0.99538-2.1328-2.4648zm-18.834 0.083984c0.025021 0.055833 0.04923 0.11212 0.074218 0.16797 0.1956 0.2345 0.39847 0.46279 0.5918 0.69922 0.07387 0.09034 0.13774 0.17378 0.21094 0.26367-0.037535-0.097091-0.075636-0.19396-0.11328-0.29102-0.25082-0.2778-0.50769-0.55924-0.76367-0.83984zm2.2969 0.80664c0.12656 0.36713 0.25486 0.73425 0.38086 1.1016 0.54974 0.86986 1.1539 1.8393 1.7637 2.832 0.13976 0.16757 0.27763 0.33603 0.41797 0.50391-0.65062-1.1816-1.3-2.3481-1.875-3.3574-0.13256-0.21148-0.26045-0.42616-0.39453-0.63672-0.09518-0.14947-0.19648-0.29474-0.29297-0.44336zm-7.3398 0.38867c4.3e-5 0.01861-3.4e-5 0.038615-0.007813 0.046875 0.84724 1.0698 1.752 2.1925 2.8633 3.5391 1.2102 1.4663 2.4467 2.9108 3.7012 4.3398-0.04318-0.06867-0.067456-0.10413-0.11133-0.17383-2.2062-2.5354-4.3544-5.1216-6.4453-7.752zm6.4453 7.752c0.037889 0.043543 0.075455 0.087265 0.11328 0.13086-0.029094-0.051245-0.047409-0.084513-0.078124-0.13867-0.067564-0.084392-0.13178-0.17137-0.19922-0.25586 0.070451 0.11433 0.00902 0.013846 0.085937 0.13867 0.03164 0.05021 0.046855 0.075341 0.078125 0.125zm0.035157-0.007813c0.23704 0.29608 0.48067 0.58683 0.72266 0.87891 0.050234 0.057886 0.10004 0.11604 0.15039 0.17383-0.32681-0.40979-0.65074-0.8218-0.97656-1.2324 0.04067 0.07161 0.0635 0.10913 0.10352 0.17969zm-0.10352-0.17969c-0.02898-0.05103-0.042936-0.07732-0.072266-0.12891-1.2655-2.2789-0.88343-1.5924-1.4082-2.5352-0.25437-0.29715-0.51053-0.59275-0.76172-0.89258 0.42659 0.69102 0.58783 0.9506 2.0059 3.252 0.079718 0.10083 0.15643 0.20399 0.23633 0.30469zm0.17969 0.36133c0.10798 0.17177 0.18267 0.29228 0.27539 0.43945-0.065871-0.11584-0.13086-0.2322-0.20312-0.35938-0.023813-0.026932-0.048549-0.05306-0.072266-0.080078zm13.439-7.5c0.33736 0.58459 0.67979 1.1662 1.0117 1.7539 0.1294 0.22911 0.3263 0.5951 0.51172 0.93945l0.11719-0.050781c-0.27802-0.46085-0.61313-1.0285-0.82031-1.3594-0.26949-0.43036-0.54776-0.85478-0.82031-1.2832zm2.3281 0.33984c0.2399 0.54072 0.48807 1.1149 0.73633 1.6895l0.078125-0.035156c-0.28329-0.58455-0.5469-1.1131-0.81445-1.6543zm-6.1758 1.5078c0.53792 0.81386 1.0681 1.6255 1.625 2.459l0.125-0.052735c-0.60335-0.81929-1.168-1.6082-1.75-2.4062zm-1.0605 0.73242c0.27744 0.4406 0.56268 0.87553 0.8457 1.3125 0.22201 0.30618 0.43738 0.61778 0.66211 0.92188l0.058594-0.025391c-0.53455-0.72744-1.0491-1.4691-1.5664-2.209zm-7.4492 0.050781c0.078896 0.19793 0.15014 0.38278 0.23438 0.58984-0.016169-0.056686-0.032757-0.11322-0.048828-0.16992-0.063489-0.1393-0.12313-0.28013-0.18555-0.41992zm1.2793 1.1289c0.036583 0.10646 0.07445 0.21199 0.11133 0.31836 0.45362 0.55463 0.90128 1.1015 1.416 1.7441-0.57659-0.79584-1.0472-1.4203-1.5273-2.0625zm1.541 0.9707c0.16053 0.26514 0.32885 0.54479 0.48242 0.79688-0.11731-0.2167-0.22447-0.41075-0.33789-0.61914-0.046784-0.057362-0.093101-0.1137-0.14453-0.17773zm0.32812 1.0996c0.27622 0.37727 0.55525 0.75382 0.82812 1.1328l0.070313-0.03125c-0.29206-0.36924-0.60161-0.73398-0.89844-1.1016zm0.64844 0.11914c0.15908 0.29478 0.3162 0.59067 0.47656 0.88476l0.06836-0.029296c-0.1342-0.22148-0.26504-0.44406-0.39844-0.66602-0.048541-0.063219-0.098032-0.12617-0.14648-0.18945zm-2.2383 0.39453c0.19927 0.46807 0.39752 0.9366 0.59766 1.4043l0.052734-0.023438c-0.0085-0.0263-0.016971-0.051805-0.025391-0.078125-0.20885-0.43389-0.41617-0.86884-0.625-1.3027zm-2.0566 1.4844c0.15787 0.27014 0.33039 0.56363 0.49609 0.84961l0.041015-0.017578c-0.17537-0.27279-0.36342-0.56318-0.53711-0.83203zm0.24219 0.58984c0.064408 0.078164 0.12942 0.15584 0.19336 0.23438-0.046007-0.056956-0.090949-0.11474-0.13672-0.17188-0.018875-0.020836-0.037748-0.04168-0.056641-0.0625z" style="color:#000000;fill:#3ba5ec"/>
	<path id="bb" d="m55.137 21.598c-0.16415-4e-3 -0.32943 0.03471-0.48242 0.12305l-0.70508 0.40625c0.037 0.06601 0.0997 0.17983 0.13672 0.24609l-1.3281 0.76758c-0.04781-0.08093-0.0965-0.16139-0.14453-0.24219l-1.4531 0.83984c0.04718 0.08121 0.09329 0.16302 0.14062 0.24414l-0.12891 0.07422c-0.03196-0.05476-0.10612-0.18172-0.14258-0.24414l-0.54688 0.31641c0.04607 0.08019 0.0924 0.1654 0.13867 0.24609l-0.29492 0.16992c-0.03861-0.08647-0.07673-0.17325-0.11523-0.25977l-0.86914 0.50195c0.03025 0.05967 0.10222 0.18989 0.13281 0.25l-1.3418 0.77344c-0.04083-0.08138-0.08433-0.17332-0.125-0.25391l-0.93945 0.54297c0.05224 0.07821 0.10229 0.15796 0.1543 0.23633l-1.1797 0.68164c-0.0035-0.0065-0.0062-0.01301-0.0098-0.01953-0.05902-0.11283-0.06733-0.12794-0.12109-0.23047l-0.72653 0.41992c0.03213 0.05491 0.09186 0.15504 0.12109 0.20508 0.01084 0.02037 0.0089 0.019 0.01953 0.03906l-0.82227 0.47461c-0.03908-0.11268-0.07004-0.20204-0.09375-0.27148l-0.70117 0.4043c0.03079 0.08292 0.06415 0.1724 0.09961 0.26758l-0.2207 0.12891c-0.03411-0.06811-0.08093-0.15976-0.12695-0.25195l-0.92188 0.53125c0.03544 0.06096 0.10546 0.1804 0.14258 0.24414l-0.58789 0.33789c-0.03674-0.08666-0.07257-0.17527-0.10938-0.26172l-0.39844 0.23047c0.03682 0.08591 0.0577 0.13653 0.0957 0.22461 0.0045 0.01241 0.0092 0.0247 0.01367 0.03711l-1.5645 0.9043c-0.02062-0.04977-0.08848-0.21296-0.10938-0.26367l-0.66406 0.38476c0.04397 0.09778 0.07289 0.15974 0.11719 0.25781l-1.1113 0.64062c-0.04166-0.08433-0.08117-0.16969-0.12305-0.25391l-0.45117 0.25976c0.04191 0.08483 0.08133 0.17094 0.12305 0.25586l-0.44922 0.25781c-0.04887-0.08007-0.09764-0.16014-0.14648-0.24023l-0.49219 0.2832c0.05418 0.09127 0.09094 0.15697 0.14258 0.24414l-0.24805 0.14258c-0.02664-0.04767-0.0948-0.17104-0.13672-0.24609l-1.0508 0.60547c0.04639 0.09427 0.07806 0.1642 0.12305 0.25586l-2.7891 1.6094c-0.04521-0.08222-0.09151-0.16388-0.13672-0.24609l-0.97852 0.56445c0.04826 0.08096 0.09492 0.1628 0.14258 0.24414l-0.14844 0.08594c-0.02316-0.04253-0.11624-0.21031-0.13672-0.24805l-0.82227 0.47656c0.03857 0.06394 0.10439 0.17889 0.14258 0.24219l-1.2031 0.69531c-0.02318-0.04105-0.11556-0.20512-0.13867-0.24609l-1.4375 0.83008c0.04536 0.08215 0.09097 0.16415 0.13672 0.24609l-0.55078 0.31836c-0.05231-0.07821-0.10794-0.15415-0.16016-0.23242l-1.127 0.65039c0.05427 0.07697 0.11133 0.15188 0.16602 0.22852l-0.22266 0.12891c-0.03354-0.08869-0.06795-0.17695-0.10156-0.26562l-1.5215 0.87695c0.06135 0.11224 0.07543 0.14466 0.13281 0.25l-0.29688 0.17188c-0.03814-0.08671-0.07707-0.17307-0.11524-0.25976l-0.62695 0.36133c0.04173 0.08455 0.08306 0.16945 0.125 0.25391l-0.36914 0.21289c-0.47978 0.277-0.64224 0.88546-0.36524 1.3652l2 3.4648-1.7324 1 2 3.4629 1.7324-1 2 3.4648c0.15163 0.26263 0.40468 0.41806 0.67969 0.4707 0.03822 0.07714 0.06875 0.14482 0.10742 0.22266 0.20156 0.04755 0.40977 0.02652 0.60742-0.05859-0.04207-0.07891-0.08106-0.15932-0.12305-0.23828 0.03069-0.01384 0.06395-0.01405 0.09375-0.03125l0.57031-0.33008c0.04622 0.09224 0.07709 0.15197 0.12305 0.24414l1.1875-0.6875c-0.04544-0.07826-0.09137-0.15606-0.13672-0.23438l1.375-0.79297c0.04175 0.08066 0.08308 0.16162 0.125 0.24219l0.38672-0.22461c-0.03419-0.06276-0.09178-0.17544-0.12695-0.24024l0.9043-0.52148c0.04091 0.08085 0.08132 0.16175 0.12305 0.24219l1.5781-0.91016c-0.045-0.07873-0.08975-0.15762-0.13476-0.23633l1.1699-0.67578c0.04385 0.07787 0.08787 0.15625 0.13281 0.23633l0.92188-0.53125c-0.02981-0.05091-0.10752-0.18448-0.13672-0.23438l0.34375-0.19922c0.06221 0.12022 0.06005 0.11084 0.12695 0.24023l1.2207-0.70508c-0.05878-0.06988-0.10991-0.1463-0.16797-0.2168l1.3691-0.79102c0.03927 0.08198 0.07798 0.16408 0.11719 0.24609l0.69922-0.40234c-0.04111-0.07989-0.08041-0.1643-0.12109-0.24414l0.41797-0.24219c-6e-3 -0.01252 0.12489 0.24838 0.12305 0.24414l2.1113-1.2188c-0.04726-0.07777-0.09895-0.15286-0.14648-0.23047l0.40039-0.23047c0.03705 0.08331 0.07419 0.16677 0.11133 0.25l0.52539-0.30469c-0.03972-0.08142-0.07576-0.16456-0.11524-0.24609l0.28125-0.16211c0.02386 0.09051 0.04876 0.1809 0.07227 0.27148l0.75195-0.43359c-0.02324-0.0723-0.06134-0.19483-0.08398-0.26562l1.8613-1.0742c0.03059 0.08668 0.06118 0.17316 0.0918 0.25977l1.2441-0.71875c-0.04156-0.07895-0.08159-0.16254-0.12305-0.24219l0.09961-0.05664c0.0495 0.07564 0.0962 0.15336 0.14648 0.22852l0.35156-0.20312c-0.05043-0.07506-0.09641-0.15322-0.14648-0.22852l2.3711-1.3691c0.06273 0.07061 0.11346 0.13708 0.17969 0.20898l1.0879-0.62695c-0.03406-0.08506-0.06757-0.17077-0.10156-0.25586l0.78319-0.45117c0.04333 0.07089 0.09826 0.15699 0.14258 0.23047l0.67188-0.38867c-0.04819-0.07431-0.09779-0.15626-0.14453-0.22852l0.10742-0.0625c0.03503 0.08409 0.07039 0.16787 0.10547 0.25195l0.62305-0.35938c-0.03653-0.08498-0.07567-0.17192-0.10938-0.25l0.69922-0.40234c0.05859 0.07003 0.11653 0.13982 0.17383 0.21094l1.6367-0.94531c-0.03314-0.08419-0.07188-0.16784-0.10547-0.25195l0.57227-0.33008c0.0543 0.07292 0.10581 0.14778 0.16016 0.2207l0.98438-0.56836c-0.0676-0.08503-0.10065-0.12947-0.16797-0.21484l0.20312-0.11914c0.07548 0.07403 0.15385 0.14133 0.24024 0.17578l1.4746-0.85156c-0.05119-0.07668-0.09907-0.14844-0.15234-0.22656l0.11719-0.06641c0.29892-0.17258 0.45526-0.47606 0.47852-0.79492 0.04601 0.08142 0.07916 0.14227 0.12695 0.22656 0.01238-0.20053-0.01324-0.40747-0.12305-0.59766l-2.1172-3.6641 1.7324-1-0.5-0.86523 0.86719-0.5 1.7402 3.0156v-4l-0.50977-0.88281c-0.18812-0.32529-0.54271-0.51767-0.91797-0.49805-0.15748 0.0084-0.31073 0.0539-0.44727 0.13281l-1.7324 1-0.5-0.86523-1.7324 1-2-3.4648c-0.11637-0.20155-0.29669-0.33145-0.49609-0.41211-0.01786-0.06309-0.03494-0.12634-0.05273-0.18945-0.14847-0.07939-0.31046-0.12685-0.47461-0.13086zm8.8633 14.314-14.936 12.471c-0.373 0.31178-0.46777 0.84662-0.22461 1.2676l2 3.4648-0.86524 0.5c-0.11994 0.06925-0.22038 0.16011-0.29883 0.26367-0.07789 0.10322-0.13504 0.21891-0.16797 0.3418v2e-3c-0.06645 0.24671-0.03889 0.51792 0.09961 0.75781l5.207 9.0195h6.9297l-6.8711-11.9-0.06836-0.11914c-0.04404-0.07629-0.09894-0.14097-0.1582-0.19922-0.02612-0.02648-0.0535-0.04917-0.08203-0.07227-0.0202-0.01646-0.03927-0.03216-0.06055-0.04687-0.0059-0.0039-0.01353-4e-3 -0.01953-0.0078l-2e-3 -2e-3c-0.07022-0.04593-0.14404-0.0806-0.22266-0.10742-0.03502-0.01206-0.06739-0.02509-0.10352-0.0332-0.11177-0.02503-0.2264-0.0379-0.3418-0.02344-0.12891 0.01615-0.25701 0.0577-0.37695 0.12695l-0.86523 0.5-1.58-2.7363 13.008-10.863z" style="color:#000000;fill:url(#e)"/>
	<g id="aj" transform="rotate(-30 46.464 14.999)">
		<rect id="au" x="9" y="22" width="42" height="4" rx=".0001745" ry=".0001745" style="color:#000000;fill:url(#h)"/>
		<rect id="z" x="11" y="17" width="38" height="14" rx="1" ry="1" style="color:#000000;fill:url(#g)"/>
		<path id="u" d="m51 24h2v10l-23 4v6" style="color:#000000;fill:none;stroke-linejoin:round;stroke-width:2;stroke:#6d5f30"/>
		<path id="q" d="m53.545 23.45a1.0001 1.0001 0 0 0-0.45375-0.10861l-2.0003-1.86e-4 -2.92e-4 1.3169 0.18291-3.97e-4 3.99e-4 -0.6335 2.0003 1.85e-4a1.0001 1.0001 0 0 1 0.63297 0.22788l4.83e-4 -0.48912a1.0001 1.0001 0 0 0-0.36272-0.31316zm-1.2701 3.2585-0.18291 3.97e-4 -6.78e-4 6.7902-22.173 3.8581a1.0001 1.0001 0 0 0-0.82733 0.98376l-6.62e-4 5.3176 0.18291-3.97e-4 7.69e-4 -4.6341a1.0001 1.0001 0 0 1 0.82733-0.98376l22.173-3.8581 5.72e-4 -7.4736z" style="block-progression:tb;color-rendering:auto;color:#000000;fill-opacity:.84526;fill:#ffffff;image-rendering:auto;isolation:auto;mix-blend-mode:normal;shape-padding:0;shape-rendering:auto;solid-color:#000000;text-decoration-color:#000000;text-decoration-line:none;text-decoration-style:solid;text-indent:0;text-transform:none;white-space:normal"/>
		<rect id="ac" x="27" y="42" width="6" height="17" rx="1" ry="1" style="color:#000000;fill:url(#d)"/>
		<path id="w" transform="rotate(30 46.464 14.999)" d="m47.814 45.488c-0.12892 0.016151-0.25701 0.057703-0.37695 0.12695l-3.4629 2c-0.47978 0.277-0.64419 0.88546-0.36719 1.3652l0.125-0.12305c-0.050308-0.38808 0.13105-0.78368 0.49219-0.99219l3.4629-2c0.34559-0.19953 0.75512-0.16421 1.0625 0.046875-0.21702-0.30939-0.57686-0.46877-0.93555-0.42383z" style="color:#000000;fill:#aa694f"/>
		<path id="ad" transform="rotate(30 46.464 14.999)" d="m56.305 58.971-0.15234 0.041016c0.090171 0.41366-0.077631 0.85261-0.46484 1.0762l-3.4629 2c-0.34204 0.19747-0.74639 0.16223-1.0527-0.042969 0.29685 0.41325 0.85254 0.55289 1.3027 0.29297l3.4629-2c0.47978-0.277 0.64419-0.88741 0.36719-1.3672z" style="color:#000000;fill:#71481b"/>
		<path id="v" d="m12.443 16.719c-0.03235 0.49598-0.06013 0.9925-0.09766 1.4881-0.11244 1.4849-0.25141 2.9682-0.375 4.4521-0.25006 3.0025-0.45488 5.429-0.63672 8.3357 0.15078 0.14196 0.34291 0.22865 0.55664 0.25377 0.04422-1.3071 0.09748-2.614 0.19141-3.9181 0.1112-1.5441 0.28079-3.0827 0.4375-4.6226 0.2033-1.9975 0.43025-3.993 0.64844-5.9889h-0.72461zm1.0469 0c-0.07314 3.1276-0.13737 3.7699-0.33594 6.9836-0.01448 0.65546-0.02093 0.64548-0.0293 1.0415-0.03646 0.37398-0.06112 0.5479-0.10352 1.0171-0.09482 1.0495-0.16178 2.102-0.24219 3.1528-0.0353 0.55139-0.08244 1.4692-0.13672 2.357h1.373c-0.0014-0.58612 1.04e-4 -1.1724-0.0059-1.7581-9e-3 -0.88296-0.03582-1.7663-0.04102-2.6493-0.0015-0.25385 0.0019-0.50744 2e-3 -0.7613 0.1845-1.8506 0.37684-3.5167 0.74024-6.0153 0.16367-1.1254 0.3526-2.2457 0.53516-3.368h-1.7559zm1.9395 0c0.05345 0.58899 0.11846 1.1762 0.18164 1.7642 0.14127 1.3147 0.25905 2.3317 0.39453 3.4045-0.04569 1.3653-0.08888 2.73-0.14844 4.0948-0.07695 1.7631-0.19216 3.5255-0.26953 5.2885h0.44726c0.04685-1.889 0.15221-4.5814 0.26562-7.1785 0.1081 0.75176 0.22298 1.5021 0.33398 2.2534 0.03863 0.24907 0.29714 1.9406 0.50586 3.305-0.0036 0.16369-0.0029 0.32763-0.0078 0.49129-0.0114 0.37668-0.03966 0.75238-0.05664 1.1288h1.8203c0.0022-0.50558 0.0036-1.011 0.0098-1.5165 0.01661-1.369 0.05752-2.7379 0.07422-4.107 0.01824-1.4954 0.01582-2.9911 0.0293-4.4866 0.03425-3.0267 0.03741-3.702 0.04492-4.4419h-1.6602c-0.0094 0.49124-0.01072 0.98275-0.02539 1.4739-0.09941 6.1569-0.08499 5.3727-0.08008 4.6997-0.06863-0.58396-0.09038-0.78132-0.22852-1.9672-0.13546-1.3999-0.23923-2.8028-0.33013-4.2064h-1.3008zm5.0078 0c0.01056 0.55004 0.02192 1.0388 0.01758 2.0707-5e-3 1.19-0.04421 2.379-0.05859 3.569-0.08388 6.9403 0.03965 1.1893-0.14453 8.3763-2e-3 0.18343-0.0037 0.35437-0.0059 0.53595h1.0645c-0.0037-0.60095-0.0062-1.0739-0.0059-2.763 2.39e-4 -1.3819 0.0076-2.7637 0.01172-4.1455 0.0041-1.3984-0.0043-2.796 0.01367-4.1942 0.02609-2.0264 0.04476-2.9263 0.05859-3.4492h-0.95109zm1.1152 0c0.0027 0.19351 0.0018 0.38713 0.0059 0.58062 0.06205 2.9501 0.16568 4.7834 0.30078 7.749 0.02061 0.32404 0.03023 0.47057 0.04687 0.75521-0.04722 1.7722-0.07492 2.5373-0.21094 5.4671h1.4102c-0.27449-1.5458-0.40769-3.1196-0.5293-4.6916 4e-3 -0.62855 5e-3 -0.98445 0.01758-2.6716 0.01134-1.5195 0.01855-3.0382 0.03906-4.5576 0.01183-0.87689 0.03056-1.7543 0.04883-2.631h-1.1289zm4.3672 0c-0.16706 2.5173-0.30617 4.131-0.60547 7.2374-0.15324 1.5904-0.33569 3.1775-0.48047 4.7688-0.07713 0.84773-0.13902 1.697-0.20508 2.5458h0.80664c0.08363-1.7304 0.23364-3.3988 0.39648-5.5808 0.31943-2.7154 0.44712-3.9126 0.59766-5.0794-6.79e-4 0.55163-0.0011 0.78796-2e-3 1.5064-0.05299 1.4575-0.15354 2.9125-0.23047 4.3688-0.40012 6.6558-0.2864 4.8655-0.2773 4.785h2.4375c-0.0325-1.4509-0.10747-2.9011-0.17969-4.3506 0.18964-1.8396 0.35998-3.6803 0.51172-5.524 0.12824-1.5581 0.26034-3.1169 0.35742-4.6774h-0.52148c-0.116 1.7908-0.27134 3.5785-0.4707 5.3616 0.0023-0.73905 0.0015-1.478-0.0078-2.2169-0.01317-1.0486-0.04125-2.0963-0.06642-3.1447h-0.56836c0.03376 2.7915 0.01549 3.8338 0.01172 7.4343-0.0055 5.234-4e-3 3.3713 0 2.7244-0.11348 0.75346-0.25478 1.5022-0.38086 2.2534-0.0012-0.60382-0.0076-1.2071-0.0098-1.8109-0.01854-5.222-0.01897-3.6788 0.07227-8.827 0.02448-1.5236 0.01962-1.2324 0.02734-1.7743h-1.2129zm4.416 0c-0.11642 1.1486-0.22667 2.3477-0.29688 3.035-0.30221 3.0282-0.67585 6.0468-0.99805 9.0726-0.0867 0.81419-0.17675 1.6298-0.26172 2.4443h0.60742c0.2679-3.8331 0.77458-7.6449 1.3066-11.446 0.2762-2.0485 0.33045-2.5092 0.41016-3.1061h-0.76758zm2.5742 0c-0.01107 0.09281-0.01817 0.14631-0.0293 0.24158-0.28808 1.5979-0.53626 3.2034-0.86328 4.7931-0.51382 2.4979-1.3867 5.86-2.0449 8.3621-0.10143 0.38556-0.20432 0.77094-0.31055 1.1551h0.86719c0.28858-1.337 0.5296-2.3631 1.0742-4.9007 0.32242-1.5023 0.65781-3.0014 0.9375-4.513 0.29637-1.6017 0.52576-3.2157 0.78906-4.8236 0.01211-0.10437 0.0283-0.21019 0.04102-0.31467h-0.46094zm1.0996 0c0.0041 1.3598 0.02053 3.3355 0.0332 5.4509-0.1415 1.4869-0.30274 2.9709-0.51953 4.45-0.18244 1.2447-0.43684 2.476-0.66211 3.7131-0.05692 0.31261-0.11575 0.62546-0.17382 0.93792h1.4375c0.01778-0.45521 0.04077-0.91807 0.07422-1.3845 0.02118 0.4618 0.03787 0.92334 0.06836 1.3845h0.40625c-0.10826-1.5893-0.14871-3.1834-0.16406-4.7769 0.05286-0.4615 0.10318-0.92276 0.16797-1.3825 0.08627-0.61219 1.2064-6.8443 1.3379-7.5805 0.01484-0.07574 0.11538-0.60474 0.15625-0.81205h-0.81055c-0.03596 0.21197-0.08407 0.49795-0.11523 0.68415-0.12509 0.76662-0.24906 1.5337-0.37695 2.3001 0.03951-0.51372 0.08766-1.1117 0.12305-1.5632 0.04864-0.84996 0.05058-0.90235 0.08203-1.4211h-1.0645zm3.0566 0c3.74e-4 0.06362 0.0017 0.17958 2e-3 0.23752-0.11603 3.3608-0.13908 2.9806-0.10938 6.4172 0.0094 1.0898 0.02319 2.1792 0.05859 3.2685 0.06168 1.8978 0.0771 3.0486 0.43164 4.6287h1.2559c0.01333-0.09273 0.02766-0.18541 0.04102-0.27813 0.19016-1.1333 0.40431-2.2611 0.57031-3.3984 0.09237-0.63288 0.1639-1.2693 0.24219-1.9043-7.57e-4 0.17285-0.0075 0.17971 0.04687 3.5954 0.01319 0.82915 0.03879 1.3568 0.05078 1.9855h0.77734c-0.10513-2.0318-0.14785-3.3524-0.25981-6.2061-0.05076-1.2937-0.10606-2.588-0.16016-3.8816 0.11867-1.514 0.23234-3.0386 0.3125-4.4643h-1.0859c0.07681 1.1737 0.12994 2.3494 0.19141 3.5243-0.09193 1.0873-0.19431 2.1733-0.30469 3.2563-0.31743 2.0178-0.65992 4.2261-1.043 6.3035-0.15532-1.016-0.22264-2.0316-0.27344-3.1731-0.04807-1.0804-0.0467-2.1626-0.04687-3.2441-3.57e-4 -2.1782 0.07141-4.2326 0.13281-6.4071 0.0053-0.12722 0.0051-0.14418 0.0098-0.25986h-0.83984zm4.7988 0c-0.03758 0.6905-0.07059 1.367-0.10547 2.9234-0.0092 0.40864-0.0059 0.81747-0.0098 1.2262-0.24264 2.0919-0.52027 4.3918-0.61914 5.2154-0.16277 1.7348-0.3962 3.4598-0.61911 5.187h0.71875c0.04825-0.40838 0.0829-0.70981 0.13672-1.2059 0.12719-1.1724 0.24958-2.3454 0.37305-3.5182 0.01636 1.3075 0.07064 2.5883 0.28906 4.2166 0.02279 0.16987 0.05756 0.33804 0.08398 0.50753h1.8906c0.08729-0.58298 0.16658-1.1687 0.22266-1.7662 0.07995-0.85188 0.12018-1.7059 0.17383-2.56 0.02248-0.3579 0.03888-0.71607 0.0625-1.0739 0.0018 0.08801 0.0018 0.17592 0.0039 0.26392 0.01833 0.7645 0.05475 1.5278 0.08203 2.292 0.02734 0.64318 0.03661 1.2886 0.08203 1.9307 0.02161 0.30558 0.06 0.60932 0.0957 0.91356h1.1367c-0.07163-0.48024-0.14501-1.002-0.16797-1.2079 0.01082-0.05318 0.01818-0.10726 0.0293-0.16038 0.0043-0.02039 0.0094-0.04053 0.01367-0.0609 0.07215 0.29888 0.15123 0.59403 0.24805 0.88311 0.05937 0.17727 0.08527 0.40654 0.19531 0.5461h1.7031c-0.0248-0.38079-0.06347-0.79533-0.07813-1.1267-0.04744-1.0729-0.05713-2.1478-0.05859-3.2218 0.0189-0.28499 0.03158-0.57069 0.05273-0.85468 0.0522-0.70077 0.09266-1.4032 0.17188-2.1012 0.0987-0.86982 0.26752-1.7302 0.36133-2.6006 0.10677-0.99064 0.15984-1.9869 0.24024-2.9802 0.01076-0.14391 0.0096-0.12973 0.01953-0.25986 0.07731-0.30731 0.15442-0.61456 0.23242-0.92168-0.17777-0.28598-0.47284-0.4852-0.82615-0.4852h-0.81445c-9e-3 0.70594-0.02272 1.3915-0.04102 2.625-0.0079 0.46008-0.01361 0.92038-0.02148 1.3805-0.10824 0.53826-0.21868 1.076-0.32812 1.614-0.24956 1.1058-0.50736 2.2108-0.76367 3.3152-0.02354-0.21457-0.05643-0.42837-0.07422-0.64355-0.0789-0.95439-0.1097-1.9119-0.15625-2.8686-0.04691-0.96399-0.09533-1.9281-0.12305-2.8929-0.02424-0.84291-0.02247-1.6863-0.0332-2.5295h-1.6797c0.0031 1.1511 0.02193 2.3025-0.0059 3.4532-0.02405 0.99576-0.13978 2.9815-0.26172 4.7038 0.05983-2.0159 0.11606-4.2879 0.12695-5.7717-0.0064-1.5898-0.0067-1.7752-0.0098-2.3854h-0.63086c-0.0046 2.1768-0.03107 4.5139-0.12109 6.5187-0.05621 1.2518-0.15378 2.5-0.24414 3.7496-0.05775 0.79859-0.11285 1.5983-0.18555 2.3956-0.29382-2.0898-0.23248-3.1439-0.26953-5.8955 0.04159-1.0627 0.07771-2.1249 0.125-3.1873 0.14001-1.1922 0.25528-2.3872 0.38093-3.5811h-1.0039zm-23.355 0.43648c-0.01214 1.3317-0.03892 2.6619-0.06836 3.9933-0.03305 1.4948-0.07123 2.9903-0.12109 4.4846-0.0092 0.27553-0.02505 0.55078-0.03516 0.82626 0.01898-0.84024 0.03001-1.6812 0.04883-2.5214 0.03881-1.733 0.09241-3.4663 0.13672-5.1992 0.0135-0.52794 0.02705-1.0555 0.03906-1.5835zm-0.57031 7.209c0.0085 2.5924 0.0034 2.9825 2e-3 4.0765-0.0096-0.64274-0.02101-1.2858-0.02148-1.9286-9.8e-5 -0.12987 0.01267-1.3368 0.01953-2.1479zm31.061 1.0212c-0.02132 0.36324-0.02167 0.31828-0.05078 0.83235-0.09862 1.7417-0.1273 2.8901-0.14062 4.5922 0.11099-0.16747 0.1914-0.35897 0.1914-0.57859v-4.8459zm-2.2715 0.4649c-0.0059 0.04407-0.01387 0.08785-0.01953 0.13196-0.06912 0.53814-0.10688 1.0814-0.1543 1.6221-0.05366 0.61183-0.07138 0.80219-0.08203 0.99476-0.06359-0.30502-0.12705-0.61133-0.20508-0.98055 0.15192-0.58962 0.3056-1.1794 0.46094-1.7682z" style="color:#000000;fill:url(#f)"/>
	</g>
	<path id="k" d="m2 0-2 1v1h3.9902c-0.030551-1.0753-0.062849-0.48096-0.097656-1.8418l0.40625-0.1582zm2.627 0c-0.026954 1.7897-0.036292 0.36999-0.060547 2h4.1992c-0.39277-0.84478-0.78651 0.31199-1.1387-0.55859-0.18279-0.45187-0.3704-0.93936-0.55273-1.4414zm3.3496 0c0.11125 0.35334 0.22451 0.70642 0.3457 1.0723 0.20035 0.60484 0.42491-0.80372 0.64844-0.21289-0.011043-0.52436-0.032956 0.95599-0.035156 0.42773-3.94e-4 -0.094267 0.025743-0.94883 0.033203-1.2871zm1.5801 0c-0.074926 1.1834-0.11226 0.78058-0.12695 2h3.3203c0.05145-1.3309 0.11454-0.6659 0.17383-2zm3.9023 0c-0.08053 1.336-0.15091 0.66747-0.22266 2h3.4238c-0.089932-0.80936-0.16985 0.43105-0.29688-0.56055-0.062119-0.48491-0.14186-0.96007-0.21484-1.4395zm3.1211 0c0.05115 0.42946 0.10762 0.85548 0.15039 1.2891 0.096374 0.97695 0.16725-0.16242 0.23828 0.71094h1.9609c0.15194-1.3407 0.2991-0.67951 0.39648-2zm3.1465 0c-0.12982 1.2992-0.29554 0.86414-0.41992 2h2.1191c0.16829-1.035 0.32782-0.067344 0.50586-1.1055 0.02595-0.29672 0.060323-0.5964 0.089843-0.89453zm2.7617 0c-0.03206 0.2912-0.0507 0.43246-0.08594 0.76367-0.19638 1.0807-0.37737 0.15796-0.5664 1.2363h1.7051c0.09406-1.3503 0.20132-0.8852 0.29492-2zm1.9805 0c-0.16044 1.3386-0.30054 0.66922-0.43945 2h4.0078c-0.28788-1.3207-0.64391-0.6041-0.95898-1.9102l-0.025391-0.089844zm3.2344 0c0.26296 1.3322 0.55306 0.65074 0.7832 2h2.9941c-0.25147-3.9486-0.22168-1.6489-0.24414-2zm3.8359 0c0.08081 1.3327 0.15739 0.66738 0.23828 2h0.22266 0.11328c-0.037243-1.1112-0.078096-0.22162-0.11719-1.332-0.00597-0.21256-0.011678-0.45207-0.017578-0.66797zm0.68555 0c0.01917 0.19669 0.03996 0.3929 0.05859 0.58984-4.15e-4 -0.010416-0.0016-0.020802-2e-3 -0.03125-3.86e-4 -0.012226 3.82e-4 -0.024882 0-0.037109-0.011979-0.1748-0.027995-0.34713-0.040965-0.52148zm0.05664 0.52148c0.0051 0.074718 0.01453 0.14786 0.01953 0.22266-5.78e-4 -0.24933 3.64e-4 -0.49198 0-0.74414h-0.02539c0.0047 0.17282 4.79e-4 0.34898 0.0059 0.52148zm0.01953 0.22266c0 0.010906-2e-3 0.022303-2e-3 0.033203 0.0047 0.051079 0.01093 0.10124 0.01563 0.15234-4e-3 -0.062235-0.0096-0.12337-0.01367-0.18555zm-2e-3 0.033203c-0.0049-0.052729-0.0088-0.1055-0.01367-0.1582 0.0052 0.15627 0.01062 0.31238 0.01563 0.46875-3e-4 -0.10357-0.0017-0.20639-2e-3 -0.31055zm0.57817-0.77734c-0.05934 1.3086-0.13582 1.014-0.14453 1.2051 2.09e-4 0.42118 4.78e-4 0.42638 0 0.79492h3.4023c-0.085507-0.76095-0.081772 1.2437-0.37891-1.4336-0.02113-0.19392-0.039717-0.37422-0.060547-0.56641zm3.3203 0c0.03741 0.41508-0.01262-0.11678 0.03125 0.37109 0.10859 1.2161 0.20861 0.42281 0.31641 1.6289h6.6504v-2z" style="color:#000000;fill:url(#b)"/>
	<path id="l" d="m0 1v3l2-2z" style="fill:#67d9fe"/>
	<path id="j" d="m64 4-2-2 2-1z" style="fill:#edd359"/>
</svg>
