<?xml version="1.0" encoding="UTF-8" standalone="no"?>
<svg
   xmlns:dc="http://purl.org/dc/elements/1.1/"
   xmlns:cc="http://creativecommons.org/ns#"
   xmlns:rdf="http://www.w3.org/1999/02/22-rdf-syntax-ns#"
   xmlns:svg="http://www.w3.org/2000/svg"
   xmlns="http://www.w3.org/2000/svg"
   xmlns:xlink="http://www.w3.org/1999/xlink"
   id="svg80"
   version="1.1"
   height="64"
   width="64">
  <defs
     id="defs12">
    <radialGradient
       gradientUnits="userSpaceOnUse"
       gradientTransform="matrix(3.6255,3.6255,-1.2576,1.2576,-10.392,-123.26)"
       fy="53.332165"
       fx="32.34766"
       r="26"
       cy="53.332165"
       cx="32.34766"
       id="d">
      <stop
         style="stop-color:#fb1482;stop-opacity:1"
         id="stop18"
         offset="0" />
      <stop
         style="stop-color:#6027f8;stop-opacity:1"
         id="stop20"
         offset="0.4651354" />
      <stop
         style="stop-color:#3ed95e;stop-opacity:1"
         id="stop22"
         offset="1" />
    </radialGradient>
    <radialGradient
       r="32"
       fy="8.1887512"
       fx="23.340954"
       cy="8.1887512"
       cx="23.340954"
       gradientTransform="matrix(1.1998795e-8,3.2648446,-0.99968648,0,40.235958,-73.423021)"
       gradientUnits="userSpaceOnUse"
       id="radialGradient4745-3"
       xlink:href="#radialGradient2122-6" />
    <radialGradient
       spreadMethod="pad"
       fr="0"
       fy="21.075001"
       fx="18.160999"
       id="radialGradient2122-6"
       cx="18.160999"
       cy="21.075001"
       r="32"
       gradientTransform="matrix(1.8449,0,0,1.8449,-10.998,-11.484)"
       gradientUnits="userSpaceOnUse">
      <stop
         offset="0"
         id="stop2118-7"
         style="stop-color:#005075;stop-opacity:1" />
      <stop
         offset="1"
         id="stop2120-5"
         style="stop-color:#1c334f;stop-opacity:1" />
    </radialGradient>
    <radialGradient
       xlink:href="#linearGradient930-3"
       id="radialGradient2296"
       gradientUnits="userSpaceOnUse"
       gradientTransform="matrix(0,0.08891455,-2.797017,0,26.993229,-2.4976092)"
       cx="32"
       cy="-1.7900395"
       fx="32"
       fy="-1.7900395"
       r="31.746094" />
    <linearGradient
       id="linearGradient930-3">
      <stop
         id="stop926-5"
         offset="0"
         style="stop-color:#ffffff;stop-opacity:0.24267782" />
      <stop
         id="stop928-6"
         offset="1"
         style="stop-color:#24ffee;stop-opacity:0.0167364" />
    </linearGradient>
    <radialGradient
       xlink:href="#linearGradient930-3"
       id="radialGradient2294"
       gradientUnits="userSpaceOnUse"
       gradientTransform="matrix(0,0.08429842,-2.797017,0,26.993229,-2.3498931)"
       cx="32"
       cy="-1.7900395"
       fx="32"
       fy="-1.7900395"
       r="31.746094" />
    <radialGradient
       xlink:href="#linearGradient930-3"
       id="radialGradient848"
       gradientUnits="userSpaceOnUse"
       gradientTransform="matrix(0,0.68805745,-2.797017,0,26.993229,-21.670182)"
       cx="32.513203"
       cy="-1.7900395"
       fx="32.513203"
       fy="-1.7900395"
       r="31.746094" />
    <radialGradient
       r="31.746094"
       fy="-1.7900395"
       fx="32"
       cy="-1.7900395"
       cx="32"
       gradientTransform="matrix(0,0.68805745,-2.797017,0,26.993229,-21.670182)"
       gradientUnits="userSpaceOnUse"
       id="radialGradient4987-2"
       xlink:href="#linearGradient930-3" />
    <radialGradient
       xlink:href="#linearGradient930-3"
       id="radialGradient2290"
       gradientUnits="userSpaceOnUse"
       gradientTransform="matrix(0,0.68805745,-2.797017,0,26.993229,-21.670182)"
       cx="32"
       cy="-1.7900395"
       fx="32"
       fy="-1.7900395"
       r="31.746094" />
    <radialGradient
       xlink:href="#linearGradient930-3"
       id="radialGradient2292"
       gradientUnits="userSpaceOnUse"
       gradientTransform="matrix(0,0.09008463,-2.797017,0,26.993229,-2.5350518)"
       cx="32"
       cy="-1.7900395"
       fx="32"
       fy="-1.7900395"
       r="31.746094" />
    <radialGradient
       gradientUnits="userSpaceOnUse"
       gradientTransform="matrix(1.6892462,0,0,1.5268187,-27.311036,-12.061835)"
       r="26"
       fy="20.980156"
       fx="45.943237"
       cy="20.980156"
       cx="45.943237"
       id="radialGradient161"
       xlink:href="#d" />
    <radialGradient
       r="32"
       fy="8.1887512"
       fx="23.340954"
       cy="8.1887512"
       cx="23.340954"
       gradientTransform="matrix(1.1998795e-8,3.2648446,-0.99968648,0,40.235958,-73.423021)"
       gradientUnits="userSpaceOnUse"
       id="radialGradient1093"
       xlink:href="#radialGradient2122-6-2" />
    <radialGradient
       spreadMethod="pad"
       fr="0"
       fy="21.075001"
       fx="18.160999"
       id="radialGradient2122-6-2"
       cx="18.160999"
       cy="21.075001"
       r="32"
       gradientTransform="matrix(1.8449,0,0,1.8449,-10.998,-11.484)"
       gradientUnits="userSpaceOnUse">
      <stop
         offset="0"
         id="stop2118-7-6"
         style="stop-color:#005075;stop-opacity:1" />
      <stop
         offset="1"
         id="stop2120-5-3"
         style="stop-color:#1c334f;stop-opacity:1" />
    </radialGradient>
    <radialGradient
       r="30.457031"
       fy="89.864296"
       fx="32"
       cy="89.864296"
       cx="32"
       gradientTransform="matrix(0.57501373,0,0,0.17667003,13.59956,46.553167)"
       gradientUnits="userSpaceOnUse"
       id="radialGradient1126"
       xlink:href="#linearGradient1104" />
    <linearGradient
       id="linearGradient1104">
      <stop
         id="stop1100"
         offset="0"
         style="stop-color:#aeeeff;stop-opacity:1" />
      <stop
         style="stop-color:#34a3ff;stop-opacity:0.92920351"
         offset="0.21737182"
         id="stop1152" />
      <stop
         style="stop-color:#3d5fff;stop-opacity:0.6901961"
         offset="0.50562274"
         id="stop1108" />
      <stop
         id="stop1102"
         offset="1"
         style="stop-color:#153b5a;stop-opacity:0" />
    </linearGradient>
    <radialGradient
       r="30.457031"
       fy="89.864296"
       fx="32"
       cy="89.864296"
       cx="32"
       gradientTransform="matrix(0.57501373,0,0,0.17667003,13.59956,46.553167)"
       gradientUnits="userSpaceOnUse"
       id="radialGradient1134"
       xlink:href="#linearGradient1104" />
    <radialGradient
       r="30.457031"
       fy="89.864296"
       fx="32"
       cy="89.864296"
       cx="32"
       gradientTransform="matrix(0.57501373,0,0,0.17667003,13.59956,46.553167)"
       gradientUnits="userSpaceOnUse"
       id="radialGradient1138"
       xlink:href="#linearGradient1104" />
    <radialGradient
       gradientUnits="userSpaceOnUse"
       gradientTransform="matrix(0.57501373,0,0,0.17667003,13.59956,46.553167)"
       r="30.457031"
       fy="89.864296"
       fx="32"
       cy="89.864296"
       cx="32"
       id="radialGradient1106"
       xlink:href="#linearGradient1104" />
    <radialGradient
       r="30.457031"
       fy="89.864296"
       fx="32"
       cy="89.864296"
       cx="32"
       gradientTransform="matrix(0.8032471,0,0,0.17667003,6.2960922,46.553167)"
       gradientUnits="userSpaceOnUse"
       id="radialGradient1142"
       xlink:href="#linearGradient1104" />
    <radialGradient
       r="30.457031"
       fy="89.864296"
       fx="32"
       cy="89.864296"
       cx="32"
       gradientTransform="matrix(0.8263668,0,0,0.17667003,5.5562619,46.553167)"
       gradientUnits="userSpaceOnUse"
       id="radialGradient1130"
       xlink:href="#linearGradient1104" />
    <radialGradient
       r="30.457031"
       fy="89.864296"
       fx="32"
       cy="89.864296"
       cx="32"
       gradientTransform="matrix(0.9160521,0,0,0.17667003,2.6863322,46.553167)"
       gradientUnits="userSpaceOnUse"
       id="radialGradient1122"
       xlink:href="#linearGradient1104" />
    <radialGradient
       r="30.457031"
       fy="89.864296"
       fx="32"
       cy="89.864296"
       cx="32"
       gradientTransform="matrix(1.0445973,0,0,0.17667003,-1.4271152,46.553167)"
       gradientUnits="userSpaceOnUse"
       id="radialGradient1112"
       xlink:href="#linearGradient1104" />
    <radialGradient
       r="2.327091"
       fy="60.947365"
       fx="32"
       cy="60.947365"
       cx="32"
       gradientTransform="matrix(1.8011858,0,0,1.8011856,-25.637946,-48.374801)"
       gradientUnits="userSpaceOnUse"
       id="radialGradient1190"
       xlink:href="#linearGradient1166" />
    <linearGradient
       id="linearGradient1166">
      <stop
         id="stop1162"
         offset="0"
         style="stop-color:#ebffff;stop-opacity:0.757" />
      <stop
         style="stop-color:#a0ebff;stop-opacity:0.10619469"
         offset="0.59080499"
         id="stop1207" />
      <stop
         id="stop1164"
         offset="1"
         style="stop-color:#b197ff;stop-opacity:0" />
    </linearGradient>
    <radialGradient
       r="2.327091"
       fy="60.947365"
       fx="32"
       cy="60.947365"
       cx="32"
       gradientTransform="matrix(1.8011858,0,0,1.8011856,-25.637946,-48.374801)"
       gradientUnits="userSpaceOnUse"
       id="radialGradient1172"
       xlink:href="#linearGradient1166" />
    <radialGradient
       r="2.327091"
       fy="60.947365"
       fx="32"
       cy="60.947365"
       cx="32"
       gradientTransform="matrix(1.8011858,0,0,1.8011856,-25.637946,-48.374801)"
       gradientUnits="userSpaceOnUse"
       id="radialGradient1184"
       xlink:href="#linearGradient1166" />
    <radialGradient
       r="2.327091"
       fy="60.947365"
       fx="32"
       cy="60.947365"
       cx="32"
       gradientTransform="matrix(1.8011858,0,0,1.8011856,-25.637946,-48.374801)"
       gradientUnits="userSpaceOnUse"
       id="radialGradient1178"
       xlink:href="#linearGradient1166" />
    <radialGradient
       r="2.327091"
       fy="60.947365"
       fx="32"
       cy="60.947365"
       cx="32"
       gradientTransform="matrix(1.8011858,0,0,1.8011856,-25.637946,-48.374801)"
       gradientUnits="userSpaceOnUse"
       id="radialGradient1203"
       xlink:href="#linearGradient1166" />
    <radialGradient
       gradientTransform="matrix(1.8011858,0,0,1.8011856,-25.637946,-48.374801)"
       gradientUnits="userSpaceOnUse"
       r="2.327091"
       fy="60.947365"
       fx="32"
       cy="60.947365"
       cx="32"
       id="radialGradient1168"
       xlink:href="#linearGradient1166" />
    <radialGradient
       xlink:href="#linearGradient930-3"
       id="radialGradient2296-6"
       gradientUnits="userSpaceOnUse"
       gradientTransform="matrix(0,0.08891455,-2.797017,0,26.993229,-2.4976092)"
       cx="32"
       cy="-1.7900395"
       fx="32"
       fy="-1.7900395"
       r="31.746094" />
    <radialGradient
       xlink:href="#linearGradient930-3"
       id="radialGradient2294-5"
       gradientUnits="userSpaceOnUse"
       gradientTransform="matrix(0,0.08429842,-2.797017,0,26.993229,-2.3498931)"
       cx="32"
       cy="-1.7900395"
       fx="32"
       fy="-1.7900395"
       r="31.746094" />
    <radialGradient
       xlink:href="#linearGradient930-3"
       id="radialGradient848-9"
       gradientUnits="userSpaceOnUse"
       gradientTransform="matrix(0,0.68805745,-2.797017,0,26.993229,-21.670182)"
       cx="32.513203"
       cy="-1.7900395"
       fx="32.513203"
       fy="-1.7900395"
       r="31.746094" />
    <radialGradient
       r="31.746094"
       fy="-1.7900395"
       fx="32"
       cy="-1.7900395"
       cx="32"
       gradientTransform="matrix(0,0.68805745,-2.797017,0,26.993229,-21.670182)"
       gradientUnits="userSpaceOnUse"
       id="radialGradient4987-2-5"
       xlink:href="#linearGradient930-3" />
    <radialGradient
       xlink:href="#linearGradient930-3"
       id="radialGradient2290-2"
       gradientUnits="userSpaceOnUse"
       gradientTransform="matrix(0,0.68805745,-2.797017,0,26.993229,-21.670182)"
       cx="32"
       cy="-1.7900395"
       fx="32"
       fy="-1.7900395"
       r="31.746094" />
    <radialGradient
       xlink:href="#linearGradient930-3"
       id="radialGradient2292-9"
       gradientUnits="userSpaceOnUse"
       gradientTransform="matrix(0,0.09008463,-2.797017,0,26.993229,-2.5350518)"
       cx="32"
       cy="-1.7900395"
       fx="32"
       fy="-1.7900395"
       r="31.746094" />
  </defs>
  <metadata
     id="metadata14">
    <rdf:RDF>
      <cc:Work
         rdf:about="">
        <dc:format>image/svg+xml</dc:format>
        <dc:type
           rdf:resource="http://purl.org/dc/dcmitype/StillImage" />
        <dc:title></dc:title>
      </cc:Work>
    </rdf:RDF>
  </metadata>
  <g
     id="g885">
    <path
       id="path1091"
       d="M 32,0 C 15.364933,0 1.1816406,1.1015625 1.1816406,1.1015625 0.31175763,1.1714444 0,1.4145127 0,1.9316406 V 58.632812 c 0,0.842925 0.57606114,1.478594 1.3046875,1.673829 C 5.4311186,61.242596 18.715337,64 32,64 45.284663,64 58.568882,61.242596 62.695312,60.306641 63.423939,60.111406 64,59.475737 64,58.632812 V 1.9316406 C 64,1.4145127 63.688242,1.1714444 62.818359,1.1015625 62.818359,1.1015625 48.635067,0 32,0 Z"
       style="color:#000000;fill:url(#radialGradient1093)" />
    <g
       id="g1118">
      <path
         d="M 1.5429688,55.726562 A 1.2430375,1.2430375 0 0 0 0.30078125,56.96875 v 1.664062 c 0,0.217332 0.0806859,0.709206 0.43164063,1.03711 C 1.0833766,59.997826 1.3188375,59.994632 1.375,60.009766 a 1.2430375,1.2430375 0 0 0 0.048828,0.01367 C 5.5721199,60.963143 18.785463,63.699219 32,63.699219 c 13.214537,0 26.427882,-2.736076 30.576172,-3.675781 a 1.2430375,1.2430375 0 0 0 0.04883,-0.01367 c 0.05618,-0.01514 0.291633,-0.01194 0.642578,-0.339844 0.350945,-0.327903 0.431641,-0.819776 0.431641,-1.03711 V 56.96875 a 1.2430375,1.2430375 0 0 0 -1.242188,-1.242188 z"
         id="path1124"
         style="color:#000000;opacity:0.11799999;fill:url(#radialGradient1126);fill-opacity:1" />
      <path
         d="M 1.5429688,56.021484 A 0.94821666,0.94821666 0 0 0 0.59570312,56.96875 v 1.664062 c 0,0.181787 0.0640952,0.566453 0.33789063,0.822266 0.27379545,0.255813 0.46394785,0.256507 0.51953125,0.271484 a 0.94821666,0.94821666 0 0 0 0.037109,0.0078 C 5.6268216,60.671429 18.82642,63.404297 32,63.404297 c 13.17358,0 26.373181,-2.732868 30.509766,-3.669922 a 0.94821666,0.94821666 0 0 0 0.03711,-0.0078 c 0.05559,-0.01498 0.245743,-0.01567 0.519531,-0.271484 0.273789,-0.255811 0.337891,-0.640478 0.337891,-0.822266 V 56.96875 a 0.94821666,0.94821666 0 0 0 -0.947266,-0.947266 z"
         id="path1132"
         style="color:#000000;opacity:0.153;fill:url(#radialGradient1134);fill-opacity:1" />
      <path
         d="M 1.5429688,56.208984 A 0.75910911,0.75910911 0 0 0 0.78320312,56.96875 v 1.664062 c 0,0.158987 0.0549938,0.474023 0.27929688,0.683594 0.224303,0.209571 0.3842411,0.211685 0.4394531,0.226563 a 0.75910911,0.75910911 0 0 0 0.029297,0.0078 C 5.6603295,60.486134 18.852691,63.216797 32,63.216797 c 13.147309,0 26.339673,-2.730663 30.46875,-3.666016 a 0.75910911,0.75910911 0 0 0 0.0293,-0.0078 c 0.05522,-0.01488 0.215156,-0.01699 0.439453,-0.226563 0.224297,-0.20957 0.279297,-0.524607 0.279297,-0.683594 V 56.96875 a 0.75910911,0.75910911 0 0 0 -0.759766,-0.759766 z"
         id="path1136"
         style="color:#000000;opacity:0.203;fill:url(#radialGradient1138);fill-opacity:1" />
      <path
         style="color:#000000;opacity:0.203;fill:url(#radialGradient1106);fill-opacity:1"
         id="path16"
         d="M 1.5429688,56.337891 A 0.6300404,0.6300404 0 0 0 0.91210938,56.96875 v 1.664062 c -10e-9,0.143426 0.0477575,0.411834 0.23828122,0.589844 0.1905238,0.178011 0.3298072,0.180504 0.3847656,0.195313 a 0.6300404,0.6300404 0 0 0 0.025391,0.0078 C 5.6845023,60.359973 18.870621,63.087891 32,63.087891 c 13.129379,0 26.3155,-2.727918 30.439453,-3.66211 a 0.6300404,0.6300404 0 0 0 0.02539,-0.0078 c 0.05497,-0.01481 0.194246,-0.0173 0.384765,-0.195313 0.190519,-0.178009 0.238282,-0.446418 0.238282,-0.589844 V 56.96875 a 0.6300404,0.6300404 0 0 0 -0.63086,-0.630859 z" />
      <path
         d="M 1.5429688,56.490234 A 0.47944866,0.47944866 0 0 0 1.0644531,56.96875 v 1.664062 c 0,0.12527 0.038342,0.337329 0.1894531,0.478516 0.1511116,0.141187 0.2656499,0.14738 0.3203126,0.16211 a 0.47944866,0.47944866 0 0 0 0.019531,0.0039 C 5.7117268,60.210182 18.891541,62.935547 32,62.935547 c 13.108459,0 26.288275,-2.725365 30.40625,-3.658203 a 0.47944866,0.47944866 0 0 0 0.01953,-0.0039 c 0.05467,-0.01473 0.169205,-0.02092 0.320313,-0.16211 0.151108,-0.141186 0.189453,-0.353247 0.189453,-0.478516 V 56.96875 a 0.47944866,0.47944866 0 0 0 -0.478516,-0.478516 z"
         id="path1140"
         style="color:#000000;opacity:0.46799999;fill:url(#radialGradient1142);fill-opacity:1" />
      <path
         style="color:#000000;opacity:0.46799999;fill:url(#radialGradient1130);fill-opacity:1"
         id="path1128"
         d="M 1.5429688,56.574219 A 0.39380849,0.39380849 0 0 0 1.1484375,56.96875 v 1.664062 c 0,0.114944 0.035364,0.295771 0.1640625,0.416016 0.1286981,0.120245 0.2306618,0.127894 0.2851562,0.142578 a 0.39380849,0.39380849 0 0 0 0.013672,0.0039 C 5.725905,60.12738 18.903439,62.851563 32,62.851562 c 13.096561,10e-7 26.274097,-2.724182 30.388672,-3.65625 a 0.39380849,0.39380849 0 0 0 0.01367,-0.0039 c 0.0545,-0.01468 0.156461,-0.02233 0.285156,-0.142578 0.128695,-0.120245 0.164062,-0.301072 0.164062,-0.416016 V 56.96875 a 0.39380849,0.39380849 0 0 0 -0.394531,-0.394531 z" />
      <path
         d="M 1.5429688,56.744141 A 0.22429779,0.22429779 0 0 0 1.3183594,56.96875 v 1.664062 c 0,0.09451 0.025041,0.214174 0.109375,0.292969 0.084334,0.0788 0.1587291,0.08697 0.2128906,0.101563 a 0.22429779,0.22429779 0 0 0 0.00977,0.002 C 5.7582378,59.95984 18.926987,62.681641 32,62.681641 c 13.073013,0 26.241765,-2.721801 30.349609,-3.652344 a 0.22429779,0.22429779 0 0 0 0.0098,-0.002 c 0.05416,-0.01459 0.128558,-0.02277 0.212891,-0.101563 0.08433,-0.07879 0.109375,-0.198462 0.109375,-0.292969 V 56.96875 a 0.22429779,0.22429779 0 0 0 -0.22461,-0.224609 z"
         id="path1120"
         style="color:#000000;opacity:0.51499999;fill:url(#radialGradient1122);fill-opacity:1" />
      <path
         id="path1110"
         d="m 1.5429688,56.96875 v 1.664062 c 0,0.134929 0.048808,0.148784 0.15625,0.177735 C 5.7981612,59.739073 18.958147,62.457031 32,62.457031 c 13.041853,0 26.201841,-2.717958 30.300781,-3.646484 0.107442,-0.02895 0.15625,-0.04281 0.15625,-0.177735 V 56.96875 Z"
         style="color:#000000;opacity:0.51799999;fill:url(#radialGradient1112);fill-opacity:1" />
    </g>
    <g
       id="g1199">
      <path
         id="path1188"
         class="ColorScheme-Text"
         style="color:#090d11;opacity:0.653;fill:url(#radialGradient1190);fill-opacity:1;stroke-width:0.29088637"
         d="m 33.163545,57.747924 c -0.16118,0 -0.290886,0.129706 -0.290886,0.290886 v 0.87266 c 0,0.16118 0.129706,0.290886 0.290886,0.290886 h 0.87266 c 0.16118,0 0.290886,-0.129706 0.290886,-0.290886 v -0.87266 c 0,-0.16118 -0.129706,-0.290886 -0.290886,-0.290886 z m -2.908863,0.290886 c -0.16118,0 -0.290887,0.129707 -0.290887,0.290887 v 0.290886 c 0,0.16118 0.129707,0.290887 0.290887,0.290887 h 0.290886 c 0.16118,0 0.290887,-0.129707 0.290887,-0.290887 v -0.290886 c 0,-0.16118 -0.129707,-0.290887 -0.290887,-0.290887 z m 1.454431,0 c -0.16118,0 -0.290886,0.129707 -0.290886,0.290887 v 0.581773 c 0,0.16118 0.129706,0.290886 0.290886,0.290886 h 0.581774 c 0.16118,0 0.290886,-0.129706 0.290886,-0.290886 v -0.581773 c 0,-0.16118 -0.129706,-0.290887 -0.290886,-0.290887 z m -1.454431,1.454432 c -0.16118,0 -0.290887,0.129706 -0.290887,0.290886 v 0.581774 c 0,0.16118 0.129707,0.290886 0.290887,0.290886 h 0.581773 c 0.16118,0 0.290886,-0.129706 0.290886,-0.290886 v -0.581774 c 0,-0.16118 -0.129706,-0.290886 -0.290886,-0.290886 z m 1.454431,0 c -0.16118,0 -0.290886,0.129706 -0.290886,0.290886 v 0.581774 c 0,0.16118 0.129706,0.290886 0.290886,0.290886 h 0.581774 c 0.16118,0 0.290886,-0.129706 0.290886,-0.290886 v -0.581774 c 0,-0.16118 -0.129706,-0.290886 -0.290886,-0.290886 z m 1.454432,0 c -0.16118,0 -0.290886,0.129706 -0.290886,0.290886 v 0.581774 c 0,0.16118 0.129706,0.290886 0.290886,0.290886 h 0.581773 c 0.16118,0 0.290887,-0.129706 0.290887,-0.290886 v -0.581774 c 0,-0.16118 -0.129707,-0.290886 -0.290887,-0.290886 z m -3.19975,1.454432 c -0.16118,0 -0.290886,0.129706 -0.290886,0.290886 v 0.87266 c 0,0.16118 0.129706,0.290886 0.290886,0.290886 h 0.87266 c 0.16118,0 0.290886,-0.129706 0.290886,-0.290886 v -0.87266 c 0,-0.16118 -0.129706,-0.290886 -0.290886,-0.290886 z m 1.745318,0 c -0.16118,0 -0.290886,0.129706 -0.290886,0.290886 v 0.581773 c 0,0.16118 0.129706,0.290887 0.290886,0.290887 h 0.581774 c 0.16118,0 0.290886,-0.129707 0.290886,-0.290887 V 61.23856 c 0,-0.16118 -0.129706,-0.290886 -0.290886,-0.290886 z m 1.745319,0.290886 c -0.16118,0 -0.290887,0.129707 -0.290887,0.290887 v 0.290886 c 0,0.16118 0.129707,0.290887 0.290887,0.290887 h 0.290886 c 0.16118,0 0.290887,-0.129707 0.290887,-0.290887 v -0.290886 c 0,-0.16118 -0.129707,-0.290887 -0.290887,-0.290887 z" />
      <path
         style="color:#090d11;opacity:0.653;fill:url(#radialGradient1172);fill-opacity:1;stroke-width:0.29088637"
         id="path1170"
         d="m 33.164062,57.792969 c -0.137044,0 -0.246093,0.109049 -0.246093,0.246093 v 0.873047 c 0,0.137045 0.109049,0.246094 0.246093,0.246094 h 0.873047 c 0.137045,0 0.244141,-0.108686 0.244141,-0.246094 v -0.873047 c 0,-0.137407 -0.107096,-0.246093 -0.244141,-0.246093 z m -2.910156,0.291015 c -0.137044,0 -0.246093,0.10905 -0.246094,0.246094 v 0.291016 c 0,0.137044 0.10905,0.246093 0.246094,0.246094 h 0.291016 c 0.137044,0 0.246093,-0.10905 0.246094,-0.246094 v -0.291016 c 0,-0.137044 -0.10905,-0.246094 -0.246094,-0.246094 z m 1.455078,0 c -0.137044,0 -0.246093,0.10905 -0.246093,0.246094 v 0.582031 c 0,0.137045 0.109049,0.246094 0.246093,0.246094 h 0.582032 c 0.137044,0 0.246093,-0.109049 0.246093,-0.246094 v -0.582031 c 0,-0.137044 -0.109049,-0.246094 -0.246093,-0.246094 z m -1.455078,1.455078 c -0.137407,0 -0.246093,0.107097 -0.246094,0.244141 v 0.582031 c 0,0.137045 0.10905,0.246094 0.246094,0.246094 h 0.582032 c 0.137044,0 0.246093,-0.109049 0.246093,-0.246094 v -0.582031 c 0,-0.137044 -0.108686,-0.244141 -0.246093,-0.244141 z m 1.455078,0 c -0.137407,0 -0.246093,0.107097 -0.246093,0.244141 v 0.582031 c 0,0.137045 0.109049,0.246094 0.246093,0.246094 h 0.582032 c 0.137044,0 0.246093,-0.109049 0.246093,-0.246094 v -0.582031 c 0,-0.137044 -0.108686,-0.244141 -0.246093,-0.244141 z m 1.455078,0 c -0.137407,0 -0.246093,0.107097 -0.246093,0.244141 v 0.582031 c 0,0.137045 0.109049,0.246094 0.246093,0.246094 h 0.582032 c 0.137044,0 0.246094,-0.109049 0.246094,-0.246094 v -0.582031 c 0,-0.137044 -0.108687,-0.244141 -0.246094,-0.244141 z m -3.201171,1.453126 c -0.137045,0 -0.244141,0.108686 -0.244141,0.246093 v 0.873047 c 0,0.137407 0.107096,0.246094 0.244141,0.246094 h 0.873047 c 0.137044,0 0.246093,-0.109049 0.246093,-0.246094 v -0.873047 c 0,-0.137044 -0.109049,-0.246093 -0.246093,-0.246093 z m 1.746093,0 c -0.137044,0 -0.246093,0.109049 -0.246093,0.246093 v 0.582031 c 0,0.137046 0.109049,0.246094 0.246093,0.246094 h 0.582032 c 0.137044,0 0.246093,-0.109049 0.246093,-0.246094 v -0.582031 c 0,-0.137044 -0.109049,-0.246093 -0.246093,-0.246093 z m 1.746094,0.291015 c -0.137044,0 -0.246094,0.10905 -0.246094,0.246094 v 0.291015 c 0,0.137046 0.10905,0.246094 0.246094,0.246094 h 0.291016 c 0.137044,0 0.246094,-0.109049 0.246094,-0.246094 v -0.291015 c 0,-0.137045 -0.10905,-0.246094 -0.246094,-0.246094 z" />
      <path
         style="color:#090d11;opacity:0.653;fill:url(#radialGradient1184);fill-opacity:1;stroke-width:0.29088637"
         id="path1182"
         d="m 33.164062,57.851562 c -0.105098,0 -0.1875,0.0824 -0.1875,0.1875 v 0.873047 c 0,0.105099 0.0824,0.1875 0.1875,0.1875 h 0.873047 c 0.105099,0 0.185547,-0.08156 0.185547,-0.1875 v -0.873047 c 0,-0.105942 -0.08045,-0.1875 -0.185547,-0.1875 z m -2.910156,0.291016 c -0.105098,0 -0.1875,0.0824 -0.1875,0.1875 v 0.291016 c 0,0.105099 0.0824,0.1875 0.1875,0.1875 h 0.291016 c 0.105099,0 0.187499,-0.0824 0.1875,-0.1875 v -0.291016 c 0,-0.105098 -0.0824,-0.1875 -0.1875,-0.1875 z m 1.455078,0 c -0.105098,0 -0.1875,0.0824 -0.1875,0.1875 v 0.582031 c 0,0.105099 0.0824,0.1875 0.1875,0.1875 h 0.582032 c 0.105098,0 0.1875,-0.0824 0.1875,-0.1875 v -0.582031 c 0,-0.105099 -0.0824,-0.1875 -0.1875,-0.1875 z m -1.455078,1.455078 c -0.105942,0 -0.1875,0.08045 -0.1875,0.185547 v 0.582031 c 0,0.105099 0.0824,0.1875 0.1875,0.1875 h 0.582032 c 0.105098,0 0.1875,-0.0824 0.1875,-0.1875 v -0.582031 c 0,-0.105099 -0.08156,-0.185547 -0.1875,-0.185547 z m 1.455078,0 c -0.105942,0 -0.1875,0.08045 -0.1875,0.185547 v 0.582031 c 0,0.105099 0.0824,0.1875 0.1875,0.1875 h 0.582032 c 0.105098,0 0.1875,-0.0824 0.1875,-0.1875 v -0.582031 c 0,-0.105099 -0.08156,-0.185547 -0.1875,-0.185547 z m 1.455078,0 c -0.105942,0 -0.1875,0.08045 -0.1875,0.185547 v 0.582031 c 0,0.105099 0.0824,0.1875 0.1875,0.1875 h 0.582032 c 0.105098,0 0.1875,-0.0824 0.1875,-0.1875 v -0.582031 c 0,-0.105099 -0.08156,-0.185547 -0.1875,-0.185547 z m -3.201171,1.453125 c -0.105099,0 -0.185547,0.08156 -0.185547,0.1875 v 0.873047 c 0,0.105942 0.08045,0.1875 0.185547,0.1875 h 0.873047 c 0.105098,0 0.1875,-0.0824 0.1875,-0.1875 v -0.873047 c 0,-0.105099 -0.0824,-0.1875 -0.1875,-0.1875 z m 1.746093,0 c -0.105099,0 -0.1875,0.0824 -0.1875,0.1875 v 0.582031 c 0,0.105101 0.0824,0.187501 0.1875,0.1875 h 0.582032 c 0.105098,0 0.1875,-0.0824 0.1875,-0.1875 v -0.582031 c 0,-0.105099 -0.0824,-0.1875 -0.1875,-0.1875 z m 1.746094,0.291016 c -0.105098,0 -0.1875,0.0824 -0.1875,0.1875 v 0.291015 c 0,0.1051 0.0824,0.187501 0.1875,0.1875 h 0.291016 c 0.105098,0 0.1875,-0.0824 0.1875,-0.1875 v -0.291015 c 0,-0.105099 -0.0824,-0.1875 -0.1875,-0.1875 z" />
      <path
         style="color:#090d11;opacity:0.653;fill:url(#radialGradient1178);fill-opacity:1;stroke-width:0.29088637"
         id="path1176"
         d="m 33.164062,57.900391 c -0.07926,0 -0.138671,0.05942 -0.138671,0.138671 v 0.873047 c 0,0.07926 0.05941,0.138672 0.138671,0.138672 h 0.873047 c 0.07952,0 0.136719,-0.05776 0.136719,-0.138672 v -0.873047 c 0,-0.08091 -0.0572,-0.138671 -0.136719,-0.138671 z m -2.910156,0.291015 c -0.07926,0 -0.138672,0.05941 -0.138672,0.138672 v 0.291016 c 0,0.07926 0.05941,0.138672 0.138672,0.138672 h 0.291016 c 0.07926,0 0.138671,-0.05941 0.138672,-0.138672 v -0.291016 c 0,-0.07926 -0.05941,-0.138672 -0.138672,-0.138672 z m 1.455078,0 c -0.07926,0 -0.138672,0.05941 -0.138672,0.138672 v 0.582031 c 0,0.07926 0.05941,0.138672 0.138672,0.138672 h 0.582032 c 0.07926,0 0.138672,-0.05941 0.138672,-0.138672 v -0.582031 c 0,-0.07926 -0.05941,-0.138672 -0.138672,-0.138672 z m -1.455078,1.455078 c -0.08092,0 -0.138672,0.0572 -0.138672,0.136719 v 0.582031 c 0,0.07926 0.05941,0.138672 0.138672,0.138672 h 0.582032 c 0.07926,0 0.138671,-0.05941 0.138671,-0.138672 v -0.582031 c 0,-0.07952 -0.05776,-0.136719 -0.138671,-0.136719 z m 1.455078,0 c -0.08092,0 -0.138672,0.0572 -0.138672,0.136719 v 0.582031 c 0,0.07926 0.05941,0.138672 0.138672,0.138672 h 0.582032 c 0.07926,0 0.138672,-0.05941 0.138672,-0.138672 v -0.582031 c 0,-0.07952 -0.05776,-0.136719 -0.138672,-0.136719 z m 1.455078,0 c -0.08091,0 -0.138671,0.0572 -0.138671,0.136719 v 0.582031 c 0,0.07926 0.05941,0.138672 0.138671,0.138672 h 0.582032 c 0.07926,0 0.138672,-0.05941 0.138672,-0.138672 v -0.582031 c 0,-0.07952 -0.05776,-0.136719 -0.138672,-0.136719 z m -3.201171,1.453125 c -0.07953,0 -0.136719,0.05776 -0.136719,0.138672 v 0.873047 c 0,0.08092 0.05719,0.138672 0.136719,0.138672 h 0.873047 c 0.07926,0 0.138671,-0.05941 0.138671,-0.138672 v -0.873047 c 0,-0.07926 -0.05941,-0.138672 -0.138671,-0.138672 z m 1.746093,0 c -0.07926,0 -0.138672,0.05941 -0.138672,0.138672 v 0.582031 c 0,0.07926 0.05941,0.138674 0.138672,0.138672 h 0.582032 c 0.07926,0 0.138672,-0.05941 0.138672,-0.138672 v -0.582031 c 0,-0.07926 -0.05941,-0.138672 -0.138672,-0.138672 z m 1.746094,0.291016 c -0.07926,0 -0.138672,0.05941 -0.138672,0.138672 v 0.291015 c 0,0.07926 0.05941,0.138674 0.138672,0.138672 h 0.291016 c 0.07926,0 0.138672,-0.05941 0.138672,-0.138672 v -0.291015 c 0,-0.07926 -0.05941,-0.138672 -0.138672,-0.138672 z" />
      <path
         d="m 33.164062,57.955078 c -0.0534,0 -0.08398,0.03058 -0.08398,0.08398 v 0.873047 c 0,0.05341 0.03058,0.08398 0.08398,0.08398 h 0.873047 c 0.05398,0 0.08203,-0.02805 0.08203,-0.08398 v -0.873047 c 0,-0.05594 -0.02805,-0.08398 -0.08203,-0.08398 z m -2.910156,0.291016 c -0.05341,0 -0.08398,0.03058 -0.08398,0.08398 v 0.291016 c 0,0.05341 0.03058,0.08398 0.08398,0.08398 h 0.291016 c 0.05341,0 0.08399,-0.03058 0.08398,-0.08398 v -0.291016 c 0,-0.05341 -0.03058,-0.08398 -0.08398,-0.08398 z m 1.455078,0 c -0.0534,0 -0.08398,0.03058 -0.08398,0.08398 v 0.582031 c 0,0.05341 0.03058,0.08398 0.08398,0.08398 h 0.582032 c 0.0534,0 0.08398,-0.03058 0.08398,-0.08398 v -0.582031 c 0,-0.05341 -0.03058,-0.08398 -0.08398,-0.08398 z m -1.455078,1.455078 c -0.05594,0 -0.08398,0.02805 -0.08398,0.08203 v 0.582031 c 0,0.05341 0.03058,0.08398 0.08398,0.08398 h 0.582032 c 0.0534,0 0.08398,-0.03058 0.08398,-0.08398 v -0.582031 c 0,-0.05398 -0.02805,-0.08203 -0.08398,-0.08203 z m 1.455078,0 c -0.05594,0 -0.08398,0.02805 -0.08398,0.08203 v 0.582031 c 0,0.05341 0.03058,0.08398 0.08398,0.08398 h 0.582032 c 0.0534,0 0.08398,-0.03058 0.08398,-0.08398 v -0.582031 c 0,-0.05398 -0.02804,-0.08203 -0.08398,-0.08203 z m 1.455078,0 c -0.05594,0 -0.08398,0.02805 -0.08398,0.08203 v 0.582031 c 0,0.05341 0.03058,0.08398 0.08398,0.08398 h 0.582032 c 0.05341,0 0.08398,-0.03058 0.08398,-0.08398 v -0.582031 c 0,-0.05398 -0.02804,-0.08203 -0.08398,-0.08203 z m -3.201171,1.453125 c -0.05398,0 -0.08203,0.02805 -0.08203,0.08398 v 0.873047 c 0,0.05594 0.02805,0.08398 0.08203,0.08398 h 0.873047 c 0.0534,0 0.08398,-0.03058 0.08398,-0.08398 v -0.873047 c 0,-0.0534 -0.03058,-0.08398 -0.08398,-0.08398 z m 1.746093,0 c -0.05341,0 -0.08398,0.03058 -0.08398,0.08398 v 0.582031 c 0,0.05341 0.03058,0.08398 0.08398,0.08398 h 0.582032 c 0.0534,0 0.08398,-0.03058 0.08398,-0.08398 v -0.582031 c 0,-0.05341 -0.03058,-0.08398 -0.08398,-0.08398 z m 1.746094,0.291015 c -0.05341,0 -0.08398,0.03058 -0.08398,0.08398 v 0.291015 c 0,0.05341 0.03058,0.08398 0.08398,0.08398 h 0.291016 c 0.05341,0 0.08398,-0.03058 0.08398,-0.08398 v -0.291015 c 0,-0.05341 -0.03058,-0.08398 -0.08398,-0.08398 z"
         id="path1201"
         style="color:#090d11;opacity:0.653;fill:url(#radialGradient1203);fill-opacity:1;stroke-width:0.29088637" />
      <path
         d="m 33.164062,58.015625 c -0.01526,0 -0.01838,0.0028 -0.01953,0.0039 -0.0012,0.0012 -0.0039,0.0043 -0.0039,0.01953 v 0.873047 c 0,0.01527 0.0028,0.01838 0.0039,0.01953 0.0012,0.0012 0.0043,0.0039 0.01953,0.0039 h 0.873047 c 0.01661,0 0.01767,-0.002 0.01758,-0.002 -9.4e-5,9.4e-5 0.0039,-0.0035 0.0039,-0.02148 v -0.873047 c 0,-0.01795 -0.004,-0.02158 -0.0039,-0.02148 9.3e-5,9.5e-5 -9.66e-4,-0.002 -0.01758,-0.002 z m -2.910156,0.291016 c -0.01527,0 -0.01838,0.0028 -0.01953,0.0039 -0.0012,0.0012 -0.0039,0.0043 -0.0039,0.01953 v 0.291016 c 0,0.01527 0.0028,0.01838 0.0039,0.01953 0.0012,0.0012 0.0043,0.0039 0.01953,0.0039 h 0.291016 c 0.01527,0 0.01838,-0.0028 0.01953,-0.0039 0.0012,-0.0012 0.0039,-0.0043 0.0039,-0.01953 v -0.291016 c 0,-0.01527 -0.0028,-0.01838 -0.0039,-0.01953 -0.0012,-0.0012 -0.0043,-0.0039 -0.01953,-0.0039 z m 1.455078,0 c -0.01526,0 -0.01838,0.0028 -0.01953,0.0039 -0.0012,0.0012 -0.0039,0.0043 -0.0039,0.01953 v 0.582031 c 0,0.01527 0.0028,0.01838 0.0039,0.01953 0.0012,0.0012 0.0043,0.0039 0.01953,0.0039 h 0.582032 c 0.01526,0 0.01838,-0.0028 0.01953,-0.0039 0.0012,-0.0012 0.0039,-0.0043 0.0039,-0.01953 v -0.582031 c 0,-0.01526 -0.0028,-0.01838 -0.0039,-0.01953 -0.0012,-0.0012 -0.0043,-0.0039 -0.01953,-0.0039 z m -1.455078,1.455078 c -0.01795,0 -0.02158,0.004 -0.02148,0.0039 9.5e-5,-9.4e-5 -0.002,9.65e-4 -0.002,0.01758 v 0.582031 c 0,0.01527 0.0028,0.01838 0.0039,0.01953 0.0012,0.0012 0.0043,0.0039 0.01953,0.0039 h 0.582032 c 0.01526,0 0.01838,-0.0028 0.01953,-0.0039 0.0012,-0.0012 0.0039,-0.0043 0.0039,-0.01953 v -0.582031 c 0,-0.01661 -0.002,-0.01767 -0.002,-0.01758 9.5e-5,9.3e-5 -0.0035,-0.0039 -0.02148,-0.0039 z m 1.455078,0 c -0.01795,0 -0.02158,0.004 -0.02148,0.0039 9.5e-5,-9.4e-5 -0.002,9.65e-4 -0.002,0.01758 v 0.582031 c 0,0.01527 0.0028,0.01838 0.0039,0.01953 0.0012,0.0012 0.0043,0.0039 0.01953,0.0039 h 0.582032 c 0.01526,0 0.01838,-0.0028 0.01953,-0.0039 0.0012,-0.0012 0.0039,-0.0043 0.0039,-0.01953 v -0.582031 c 0,-0.01661 -0.002,-0.01767 -0.002,-0.01758 9.5e-5,9.4e-5 -0.0035,-0.0039 -0.02148,-0.0039 z m 1.455078,0 c -0.01795,0 -0.02158,0.004 -0.02148,0.0039 9.5e-5,-9.3e-5 -0.002,9.66e-4 -0.002,0.01758 v 0.582031 c 0,0.01527 0.0028,0.01838 0.0039,0.01953 0.0012,0.0012 0.0043,0.0039 0.01953,0.0039 h 0.582032 c 0.01527,0 0.01838,-0.0028 0.01953,-0.0039 0.0012,-0.0012 0.0039,-0.0043 0.0039,-0.01953 v -0.582031 c 0,-0.01661 -0.002,-0.01767 -0.002,-0.01758 9.5e-5,9.4e-5 -0.0035,-0.0039 -0.02148,-0.0039 z m -3.201171,1.453125 c -0.01661,0 -0.01767,0.002 -0.01758,0.002 9.4e-5,-9.5e-5 -0.0039,0.0035 -0.0039,0.02148 v 0.873047 c 0,0.01795 0.004,0.02158 0.0039,0.02148 -9.2e-5,-9.4e-5 9.67e-4,0.002 0.01758,0.002 h 0.873047 c 0.01527,0 0.01838,-0.0028 0.01953,-0.0039 0.0012,-0.0012 0.0039,-0.0043 0.0039,-0.01953 v -0.873047 c 0,-0.01526 -0.0028,-0.01838 -0.0039,-0.01953 -0.0012,-0.0012 -0.0043,-0.0039 -0.01953,-0.0039 z m 1.746093,0 c -0.01527,0 -0.01838,0.0028 -0.01953,0.0039 -0.0012,0.0012 -0.0039,0.0043 -0.0039,0.01953 v 0.582031 c 0,0.01527 0.0028,0.01838 0.0039,0.01953 0.0012,0.0012 0.0043,0.0039 0.01953,0.0039 h 0.582032 c 0.01526,0 0.01838,-0.0028 0.01953,-0.0039 0.0012,-0.0012 0.0039,-0.0043 0.0039,-0.01953 v -0.582031 c 0,-0.01527 -0.0028,-0.01838 -0.0039,-0.01953 -0.0012,-0.0012 -0.0043,-0.0039 -0.01953,-0.0039 z m 1.746094,0.291015 c -0.01527,0 -0.01838,0.0028 -0.01953,0.0039 -0.0012,0.0012 -0.0039,0.0043 -0.0039,0.01953 v 0.291015 c 0,0.01527 0.0028,0.01838 0.0039,0.01953 0.0012,0.0012 0.0043,0.0039 0.01953,0.0039 h 0.291016 c 0.01527,0 0.01838,-0.0028 0.01953,-0.0039 0.0012,-0.0012 0.0039,-0.0043 0.0039,-0.01953 v -0.291015 c 0,-0.01527 -0.0028,-0.01838 -0.0039,-0.01953 -0.0012,-0.0012 -0.0043,-0.0039 -0.01953,-0.0039 z"
         id="path888"
         style="color:#090d11;fill:url(#radialGradient1168);fill-opacity:1;stroke-width:0.29088637" />
    </g>
    <g
       id="g2308">
      <path
         id="path2269"
         style="opacity:1;vector-effect:none;fill:url(#radialGradient2296-6);fill-opacity:1;fill-rule:nonzero;stroke:none;stroke-width:1.90849996;stroke-linecap:butt;stroke-linejoin:miter;stroke-miterlimit:4;stroke-dasharray:none;stroke-dashoffset:0;stroke-opacity:1;marker:none;paint-order:fill markers stroke"
         d="m 32,0.10438319 c -8.764736,0 -19.154205,0.41873312 -24.3510697,0.71204742 C 3.6697078,1.0125654 1.167523,1.2106629 1.1347268,1.2153285 c -0.63932783,0.0515 -0.88381963,0.2257671 -0.90895417,0.592577 -0.015755,0.00319 -0.0281435,2.4843892 -0.0398767,6.2071145 -0.0100122,3.722511 -0.0188751,8.685394 -0.0275619,13.648263 -0.0104198,4.96331 -0.0322075,9.928451 -0.0340125,13.650022 -0.005269,3.725174 -0.008268,6.208209 -0.0129013,6.212392 -0.005308,0.341567 0.13104607,0.627493 0.33560787,0.843857 0.0875054,0.04967 0.1846244,0.0986 0.30144029,0.135139 0.0870427,0.02515 0.17465328,0.0078 0.24553301,-0.04387 0.0708798,-0.05649 0.1119854,-0.128256 0.1115593,-0.218892 -4.684e-4,0.0052 -0.019589,-2.49792 -0.044574,-6.247183 C 1.0362903,32.239023 1.0053278,27.23147 0.97230718,22.223849 0.9389938,17.216251 0.90568042,29.288792 0.88069539,25.533093 0.85571035,21.871506 0.86698001,19.454 1.0730362,19.5023 2.324036,19.437436 5.2830216,1.9927485 9.2112549,1.8760526 14.122138,1.7067866 23.252384,1.4254808 32,1.4254807 c 8.747616,1e-7 17.877862,0.2813059 22.788745,0.450572 3.928233,0.1166958 6.887219,17.5613833 8.138218,17.6262473 0.206058,-0.0483 0.217326,2.369206 0.192341,6.030793 -0.02499,3.755699 -0.0583,-8.316842 -0.09161,-3.309244 -0.03301,5.007621 -0.06398,10.015174 -0.08868,13.770896 -0.02499,3.749263 -0.04409,6.252392 -0.04457,6.247183 -4.26e-4,0.09064 0.04068,0.162402 0.111559,0.218892 0.07088,0.05169 0.158478,0.06902 0.245533,0.04387 0.116816,-0.03654 0.213936,-0.08547 0.301441,-0.135139 0.204563,-0.216364 0.340916,-0.50229 0.335608,-0.843857 -0.0046,-0.0042 -0.0076,-2.487218 -0.0129,-6.212392 -0.0018,-3.721571 -0.0236,-8.686712 -0.03401,-13.650022 -0.0087,-4.962866 -0.01756,-9.925749 -0.02757,-13.64826 C 63.80237,4.2922947 63.789981,1.8111004 63.774227,1.8079055 63.749093,1.4410956 63.504601,1.2668286 62.865273,1.2153285 62.832477,1.2106629 60.330292,1.0125654 56.35107,0.81643061 51.154205,0.52311631 40.764736,0.10438319 32,0.10438319 c 0,0 0,0 0,0" />
      <path
         id="path2267"
         style="opacity:1;vector-effect:none;fill:url(#radialGradient2294-5);fill-opacity:1;fill-rule:nonzero;stroke:none;stroke-width:1.90849996;stroke-linecap:butt;stroke-linejoin:miter;stroke-miterlimit:4;stroke-dasharray:none;stroke-dashoffset:0;stroke-opacity:1;marker:none;paint-order:fill markers stroke"
         d="m 32,0.19412668 c -9.149218,0 -21.847013,0.54197189 -26.6756112,0.85069612 -2.564087,0.1279945 -4.1690034,0.2596392 -4.2299961,0.268316 -0.44110804,0.035696 -0.62776799,0.1508115 -0.67451196,0.3883853 -0.0293003,0.00594 -0.0523398,1.5735404 -0.0741608,3.9266752 -0.0186201,2.352736 -0.035103,5.4888537 -0.0512582,8.6249437 -0.0193783,3.136911 -0.0598978,6.277227 -0.0632548,8.628215 -0.009799,2.357688 -0.0153766,3.928711 -0.0239932,3.936491 -0.009872,0.220482 0.0716935,0.406473 0.19595087,0.548409 0.0481867,0.03859 0.10498727,0.0837 0.17438771,0.116988 0.0534408,0.02142 0.10229806,0.01489 0.14703024,-0.01184 0.0447322,-0.03565 0.0706739,-0.06365 0.070405,-0.120851 -8.7109e-4,0.0097 -0.015965,-1.569211 -0.0317331,-3.927465 -0.0152316,-2.370262 -0.0318835,-5.530472 -0.0523632,-8.690808 -0.0210241,-3.160294 -0.0420481,25.444207 -0.0578162,23.073987 -0.0157681,-2.195197 0.0256559,-3.61486 0.40886904,-3.525034 C 1.85145,34.240302 3.5776455,1.9608392 6.0567526,1.8871925 10.363343,1.7157783 21.467249,1.3160744 32,1.3160743 c 10.532751,1e-7 21.636657,0.399704 25.943247,0.5711182 2.479108,0.073647 4.205303,32.3531095 4.994808,32.3940455 0.383216,-0.08983 0.424638,1.329837 0.408869,3.525034 -0.01577,2.37022 -0.03679,-26.234281 -0.05782,-23.073987 -0.02047,3.160336 -0.03713,6.320546 -0.05236,8.690808 -0.01577,2.358254 -0.03084,3.937153 -0.03173,3.927465 -2.69e-4,0.0572 0.02567,0.0852 0.0704,0.120851 0.04473,0.02672 0.09357,0.03325 0.147031,0.01184 0.0694,-0.03329 0.126202,-0.0784 0.174387,-0.116988 0.12426,-0.141936 0.205823,-0.327927 0.195951,-0.548409 -0.0086,-0.0078 -0.01419,-1.578803 -0.02399,-3.936491 -0.0034,-2.350988 -0.04388,-5.491304 -0.06326,-8.628215 -0.01615,-3.13609 -0.03264,-6.2722077 -0.05126,-8.6249437 C 63.632457,3.2750645 63.609418,1.7074659 63.580119,1.7015241 63.533375,1.4639503 63.346715,1.3488351 62.905607,1.3131388 62.844614,1.304462 61.239698,1.1728173 58.675611,1.0448228 53.847013,0.73609857 41.149218,0.19412668 32,0.19412668 c 0,0 0,0 0,0" />
      <path
         id="path1260-7"
         d="M 32,0 C 15.364933,0 1.1816406,1.1015625 1.1816406,1.1015625 0.31175766,1.1714444 0,1.4145127 0,1.9316406 V 58.632812 c 0,0.482403 0.20008079,0.884567 0.49804688,1.1875 0.13323797,0.06256 0.2772526,0.115941 0.44921874,0.15625 A 0.42318665,0.42318665 0 0 0 1.4667969,59.5625 L 1.0859375,2.3125 C 4.6614909,2.127109 18.657452,1.5527345 32,1.5527344 45.342548,1.5527346 59.338509,2.127109 62.914062,2.3125 l -0.380859,57.25 a 0.42318665,0.42318665 0 0 0 0.519531,0.414062 c 0.171968,-0.04031 0.315981,-0.09369 0.449219,-0.15625 C 63.799919,59.517379 64,59.115215 64,58.632812 V 1.9316406 C 64,1.4145127 63.688242,1.1714444 62.818359,1.1015625 62.818359,1.1015625 48.635067,0 32,0 Z"
         style="opacity:1;vector-effect:none;fill:url(#radialGradient848-9);fill-opacity:1;fill-rule:nonzero;stroke:none;stroke-width:1.90849996;stroke-linecap:butt;stroke-linejoin:miter;stroke-miterlimit:4;stroke-dasharray:none;stroke-dashoffset:0;stroke-opacity:1;marker:none;paint-order:fill markers stroke" />
      <path
         id="path1260"
         d="m 32,0.34765625 c -9.806975,0 -26.4537612,0.75280385 -30.6523438,1.08789065 -0.1431299,0.011423 -0.2130354,0.029383 -0.3222656,0.044922 -0.10200142,0.00866 -0.18972495,0.02258 -0.27343748,0.039062 -0.0524731,0.010641 -0.093734,0.015297 -0.1328125,0.025391 -0.0333463,0.00938 -0.062865,0.02034 -0.0917969,0.03125 -0.034704,0.01238 -0.10726944,0.030858 -0.11328125,0.037109 -0.0175493,0.018248 -0.0275376,0.029036 -0.0429687,0.042969 -0.0176787,0.013335 -0.0298446,0.028362 -0.0429687,0.042969 -0.019078,0.019636 -0.0312527,0.058198 -0.0429687,0.085937 -0.004044,0.015034 -0.0214844,0.026983 -0.0214844,0.042969 V 1.875 c -0.00156,0.017349 -0.009766,0.019584 -0.009766,0.041016 9.607e-4,-7.47e-5 0.008791,7.53e-5 0.009766,0 v 56.886718 c 0,0.313446 0.0930108,0.600852 0.77929693,0.761719 L 0.66015625,1.90625 C 3.9329473,1.7311609 18.41331,1.1289063 32,1.1289062 c 13.58669,10e-8 28.067053,0.6022547 31.339844,0.7773438 l -0.382813,57.658203 c 0.686291,-0.160867 0.779297,-0.448273 0.779297,-0.761719 V 1.9160156 c 10e-4,7.53e-5 0.0088,-7.47e-5 0.0098,0 0,-0.021432 -0.0082,-0.023667 -0.0098,-0.041016 V 1.828125 c 0,-0.015986 -0.01748,-0.027935 -0.02148,-0.042969 -0.01172,-0.027739 -0.02389,-0.066302 -0.04297,-0.085937 -0.01312,-0.014607 -0.02529,-0.029634 -0.04297,-0.042969 -0.01543,-0.013933 -0.02542,-0.024721 -0.04297,-0.042969 -0.006,-0.00625 -0.07858,-0.024729 -0.113282,-0.037109 -0.02893,-0.01091 -0.05845,-0.02187 -0.0918,-0.03125 C 63.341776,1.534828 63.300516,1.530172 63.248044,1.519531 63.164334,1.503049 63.076608,1.489128 62.974606,1.480469 62.865376,1.46493 62.795471,1.44697 62.652341,1.435547 58.453761,1.1004601 41.806975,0.34765625 32,0.34765625 Z"
         style="opacity:1;vector-effect:none;fill:url(#radialGradient4987-2-5);fill-opacity:1;fill-rule:nonzero;stroke:none;stroke-width:1.90849996;stroke-linecap:butt;stroke-linejoin:miter;stroke-miterlimit:4;stroke-dasharray:none;stroke-dashoffset:0;stroke-opacity:1;marker:none;paint-order:fill markers stroke" />
      <path
         id="path2263"
         style="opacity:1;vector-effect:none;fill:url(#radialGradient2290-2);fill-opacity:1;fill-rule:nonzero;stroke:none;stroke-width:1.90849996;stroke-linecap:butt;stroke-linejoin:miter;stroke-miterlimit:4;stroke-dasharray:none;stroke-dashoffset:0;stroke-opacity:1;marker:none;paint-order:fill markers stroke"
         d="m 32,0.32118356 c -9.69356,0 -25.6594321,0.71645064 -29.9666466,1.04699184 -0.560569,0.031523 -0.8951522,0.069085 -0.996065,0.083441 -0.16047261,0.013322 -0.26525548,0.044691 -0.34259362,0.099295 -0.0484775,0.00983 -0.0865965,0.2839805 -0.12269934,0.6980786 -0.0308071,0.4134385 -0.058078,0.963261 -0.0848069,1.5130373 -0.0320614,0.5511343 -0.0991013,1.1079026 -0.10465532,1.5184503 -0.016213,0.4216314 -0.0254407,0.7014461 -0.0396968,0.7143182 -0.0163325,0.049053 -0.0123367,0.093558 -0.001772,0.1301204 -0.00748,0.022905 -0.007761,0.062595 -0.005491,0.091291 0.005868,0.016135 -1.409e-4,0.024897 0.007572,0.033519 0.007713,-0.00615 0.0121861,0.027817 0.0121397,0.017954 -0.001441,0.016029 -0.0108345,-0.254367 -0.0135533,-0.6432576 -0.001831,-0.4087597 0.001777,-0.9535421 -9.4708e-4,-1.4985326 -0.003625,-0.5449209 -0.00725,51.465172 -0.009969,51.056481 -0.002719,-0.119112 0.081397,-0.126052 0.71542506,0.02257 C 1.182373,55.197879 1.163211,1.9156627 1.5906767,1.902964 5.041723,1.7285085 18.939892,1.1611792 32,1.1611791 c 13.060108,1e-7 26.958277,0.5673294 30.409324,0.7417849 0.427465,0.012699 0.408303,53.294915 0.544435,53.301973 0.634033,-0.148618 0.718144,-0.141678 0.715425,-0.02257 -0.0027,0.408691 -0.0063,-51.6014019 -0.01,-51.056481 -0.0027,0.5449905 8.84e-4,1.0897729 -9.47e-4,1.4985326 -0.0027,0.3888906 -0.01208,0.6592866 -0.01355,0.6432587 -4.7e-5,0.00986 0.0044,-0.024102 0.01214,-0.017954 0.0077,-0.00862 0.0017,-0.017384 0.0076,-0.033519 0.0023,-0.028696 0.002,-0.068387 -0.0055,-0.091291 0.01057,-0.036562 0.01456,-0.081068 -0.0018,-0.1301204 -0.01425,-0.012872 -0.02348,-0.2926868 -0.0397,-0.7143182 -0.0056,-0.4105477 -0.0726,-0.967316 -0.104656,-1.5184503 -0.02673,-0.5497763 -0.054,-1.0995988 -0.08481,-1.5130373 C 63.391898,1.8348922 63.35378,1.5607425 63.305305,1.5509117 63.227967,1.4963075 63.123184,1.4649383 62.962711,1.4516165 62.861799,1.4372607 62.527216,1.3996985 61.966647,1.3681754 57.659432,1.0376342 41.69356,0.32118356 32,0.32118356 c 0,0 0,0 0,0" />
      <path
         id="path2265"
         style="opacity:1;vector-effect:none;fill:url(#radialGradient2292-9);fill-opacity:1;fill-rule:nonzero;stroke:none;stroke-width:1.90849996;stroke-linecap:butt;stroke-linejoin:miter;stroke-miterlimit:4;stroke-dasharray:none;stroke-dashoffset:0;stroke-opacity:1;marker:none;paint-order:fill markers stroke"
         d="m 32,0.26740607 c -9.463164,0 -24.0458056,0.64260161 -28.5736986,0.96390863 -1.4085685,0.072355 -2.2808269,0.1497382 -2.3648433,0.1616904 -0.27925303,0.022792 -0.41869081,0.089607 -0.48307981,0.2216541 -0.0403606,0.00818 -0.0720972,0.8297935 -0.10215513,2.0645991 -0.0256489,1.2342564 -0.0483537,2.8787419 -0.0706072,4.523189 -0.0266932,1.6455777 -0.0825082,3.2958457 -0.0871323,4.5276957 -0.0134984,1.241078 -0.021181,2.067403 -0.0330502,2.07812 -0.0135979,0.121611 0.0232295,0.226001 0.081915,0.307163 0.0160814,0.02954 0.0399601,0.07153 0.0706439,0.102168 0.0260034,0.01837 0.0432169,0.02066 0.0665985,0.01432 0.0233816,-0.01863 0.0369414,-0.0109 0.0368008,-0.0408 -0.0012,0.01334 -0.0130061,-0.810883 -0.0212481,-2.033316 -0.007503,-1.23897 -0.0124698,-2.890746 -0.0227092,-4.5426957 C 0.48644503,6.9632109 0.47545571,49.066764 0.46721373,47.827846 0.45897174,46.83002 0.52501804,46.225138 1.0528874,46.348871 1.4655634,46.327474 2.1851331,1.9347839 3.4809668,1.8962886 7.2941267,1.7231204 20.009609,1.2267394 32,1.2267393 c 11.990391,1e-7 24.705874,0.4963811 28.519033,0.6695493 1.295834,0.038495 2.015403,44.4311854 2.428079,44.4525824 0.527873,-0.123733 0.593916,0.481149 0.585674,1.478975 -0.0082,1.238918 -0.01923,-40.8646351 -0.03022,-39.2127437 -0.01022,1.6519497 -0.01521,3.3037257 -0.02271,4.5427017 -0.0082,1.222433 -0.02002,2.04666 -0.02125,2.033316 -1.4e-4,0.0299 0.01342,0.02216 0.0368,0.0408 0.02338,0.0063 0.04056,0.004 0.0666,-0.01432 0.03068,-0.03064 0.05456,-0.07262 0.07064,-0.102168 0.05869,-0.08116 0.09551,-0.185552 0.08191,-0.307163 -0.01187,-0.01072 -0.01955,-0.837042 -0.03305,-2.07812 -0.0046,-1.23185 -0.06044,-2.882118 -0.08713,-4.5276957 -0.02225,-1.6444471 -0.04496,-3.2889326 -0.07061,-4.523189 C 63.493716,2.4444527 63.46198,1.6228439 63.421622,1.6146592 63.357232,1.4826121 63.217795,1.415797 62.938542,1.3930051 62.854525,1.3810529 61.982267,1.3036699 60.573699,1.2313147 56.045805,0.91000768 41.463164,0.26740607 32,0.26740607 c 0,0 0,0 0,0" />
    </g>
  </g>
  <path
     style="color:#000000;fill:url(#d)"
     d="M 2,3.125 V 56 h 3 54 3 V 3.125 Z"
     id="path37" />
  <g
     style="fill:url(#radialGradient161);fill-opacity:0.79856998;stroke-width:0.91325933"
     id="g78"
     transform="matrix(1.1538935,0,0,1.125046,-4.923382,-8.1249197)">
    <path
       style="color:#000000;stroke-width:0.86639565;fill:url(#radialGradient161)"
       id="path30"
       d="M 39.531,10 C 39.15578,16.2301 37.7293,22.177 39.62475,26.344 38.42495,21.8662 40.57442,16.033 41.71855,10 Z" />
    <path
       style="color:#000000;stroke-width:0.86639565;fill:url(#radialGradient161)"
       id="path32"
       d="m 35.188,10 c 1.3685,6.3106 1.4341,12.695 4.4375,16.344 C 37.3052,22.3252 37.8657,16.13 37.4067,10 Z" />
    <path
       style="color:#000000;stroke-width:0.86639565;fill:url(#radialGradient161)"
       id="path34"
       d="m 30.188,10 c 3.5614,6.181 5.2078,13.323 9.4375,16.344 C 36.1303,22.8488 35.1552,16.119 32.8443,10 Z" />
    <path
       style="color:#000000;stroke-width:0.86639565;fill:url(#radialGradient161)"
       id="path36"
       d="M 22.781,10 C 29.9093,15.043 33.71,24.128 39.625,26.344 34.7002,23.5007 31.8837,15.664 27.031,10 Z" />
    <path
       style="color:#000000;stroke-width:0.86639565;fill:url(#radialGradient161)"
       id="path38"
       d="m 13.844,10.438 c -2.378,-0.06284 -4.9713,0.47584 -7.8438,1.7812 v 2.8125 c 15.72,-5.8899 24.409,10.419 33.625,11.312 -7.9689,-2.1353 -14.385,-15.605 -25.781,-15.906 z" />
    <path
       style="color:#000000;stroke-width:0.86639565;fill:url(#radialGradient161)"
       id="path40"
       d="M 13.625,17.25 C 11.1641,17.323242 8.6074,18.01446 6,19.5938 v 3.375 c 12.975,-7.4682 24.888,4.8311 33.625,3.375 -7.5,0 -16.156,-9.3867 -26,-9.0938 z" />
    <path
       style="color:#000000;stroke-width:0.86639565;fill:url(#radialGradient161)"
       id="path42"
       d="M 16.469,23.625 C 12.801,23.75768 9.2252,24.8963 6,27.9688 v 4.0938 c 10.618,-10.98 25.497,-2.021 33.625,-5.7188 -6.1578,1.65 -14.883,-3.018 -23.156,-2.7188 z" />
    <path
       style="color:#000000;stroke-width:0.86639565;fill:url(#radialGradient161)"
       id="path44"
       d="M 39.625,26.344 C 31.0452,31.2976 12.534,23.1358 6,39.813 v 7.9062 c 4.895,-22.183 25.716,-14.864 33.625,-21.375 z" />
    <path
       style="color:#000000;stroke-width:0.86639565;fill:url(#radialGradient161)"
       id="path46"
       d="M 39.625,26.344 C 31.6233,34.3457 6.674,29.1562 10.969,57 h 1.8125 C 10.8672,32.953 33.5605,34.835 39.6255,26.344 Z" />
    <path
       style="color:#000000;stroke-width:0.86639565;fill:url(#radialGradient161)"
       id="path48"
       d="M 39.625,26.344 C 34.4755,35.2632 12.931,37.276 17.656,57 h 2.4375 C 17.5327,39.347 36.3045,35.206 39.6245,26.344 Z" />
    <path
       style="color:#000000;stroke-width:0.86639565;fill:url(#radialGradient161)"
       id="path50"
       d="M 39.625,26.344 C 37.2019,35.3871 20.218,42.405 24.406,57 h 3.0312 C 24.4755,43.123 38.7892,34.963 39.6252,26.344 Z" />
    <path
       style="color:#000000;stroke-width:0.86639565;fill:url(#radialGradient161)"
       id="path52"
       d="m 39.625,26.344 c 0,8.6566 -12.459,18.877 -8.1562,30.656 h 3.4062 c -4.2745,-11.819 6.0945,-22.589 4.75,-30.656 z" />
    <path
       style="color:#000000;stroke-width:0.86639565;fill:url(#radialGradient161)"
       id="path54"
       d="M 39.625,26.344 C 41.7892,34.4211 33.102,46.907 39,57 h 3.8125 C 35.8573,46.722 42.98944,33.739 39.625,26.344 Z" />
    <path
       style="color:#000000;stroke-width:0.86639565;fill:url(#radialGradient161)"
       id="path56"
       d="m 39.625,26.344 c 4.33,7.4998 -1.3813,22.609 8.25,30.656 h 5.3438 C 40.6118,49.4232 45.2135,33.132 39.6248,26.344 Z" />
    <path
       style="color:#000000;stroke-width:0.86639565;fill:url(#radialGradient161)"
       id="path58"
       d="M 39.625,26.344 C 46.1563,32.8753 43.9115,50.717 58,54.719 V 51.4378 C 46.557,46.1296 46.292,31.1068 39.625,26.3438 Z" />
    <path
       style="color:#000000;stroke-width:0.86639565;fill:url(#radialGradient161)"
       id="path60"
       d="M 39.625,26.344 C 46.212,30.147 49.0363,42.899 58,47.406 v -3.75 C 49.8743,38.9139 45.943,28.711 39.625,26.344 Z" />
    <path
       style="color:#000000;stroke-width:0.86639565;fill:url(#radialGradient161)"
       id="path62"
       d="m 39.625,26.344 c 6.0662,1.6254 11.23,9.8 18.375,13.75 V 36.8752 C 50.872,33.4305 45.351,26.8991 39.625,26.3442 Z" />
    <path
       style="color:#000000;stroke-width:0.86639565;fill:url(#radialGradient161)"
       id="path64"
       d="m 40.781,26.219 c -0.38655,0.01437 -0.78125,0.0625 -1.1562,0.125 5.4966,0 11.62,5.0189 18.375,7.5938 v -2.6562 c -6.4355,-1.7045 -12.287,-5.2459 -17.219,-5.0625 z" />
    <path
       style="color:#000000;stroke-width:0.86639565;fill:url(#radialGradient161)"
       id="path66"
       d="m 44.312,25.406 c -1.7212,0.05478 -3.3033,0.30779 -4.6875,0.9375 4.9784,-1.334 11.635,1.4432 18.375,2.4062 V 26.3435 C 53.1311,26.27061 48.3311,25.2781 44.3115,25.406 Z" />
    <path
       style="color:#000000;stroke-width:0.86639565;fill:url(#radialGradient161)"
       id="path68"
       d="M 58,21.406 C 51.0714,23.2835 43.663,23.0197 39.625,26.3435 44.0883,23.7666 51.241,24.7512 58,23.9373 Z" />
    <path
       style="color:#000000;stroke-width:0.86639565;fill:url(#radialGradient161)"
       id="path70"
       d="M 58,15.625 C 51.4406,20.1212 42.984,21.6418 39.625,26.344 43.5131,22.4559 51.401,21.6779 58,18.719 Z" />
    <path
       style="color:#000000;stroke-width:0.86639565;fill:url(#radialGradient161)"
       id="path72"
       d="M 55.594,10 C 50.4885,16.8054 41.788,20.571 39.625,26.344 42.8238,20.8036 52.369,17.9495 58,11.844 v -1.8438 z" />
    <path
       style="color:#000000;stroke-width:0.86639565;fill:url(#radialGradient161)"
       id="path74"
       d="M 49.062,10 C 45.4898,16.1768 40.1262,21.169 39.6245,26.344 41.0922,20.8664 47.907,16.128 52.1245,10 Z" />
    <path
       style="color:#000000;stroke-width:0.86639565;fill:url(#radialGradient161)"
       id="path76"
       d="m 43.938,10 c -1.9709,6.1341 -5.0877,11.692 -4.3125,16.344 0,-4.9418 4.0572,-10.384 6.75,-16.344 z" />
  </g>
</svg>
