<?xml version="1.0" encoding="UTF-8"?>
<!-- Created with Inkscape (http://www.inkscape.org/) -->
<svg width="64" height="64" version="1.1" xmlns="http://www.w3.org/2000/svg" xmlns:cc="http://creativecommons.org/ns#" xmlns:dc="http://purl.org/dc/elements/1.1/" xmlns:rdf="http://www.w3.org/1999/02/22-rdf-syntax-ns#" xmlns:xlink="http://www.w3.org/1999/xlink">
	<defs>
		<radialGradient id="a" cx="27.574" cy="35.147" r="5" gradientTransform="matrix(1.4596 0 0 .66364 -11.95 11.736)" gradientUnits="userSpaceOnUse">
			<stop stop-color="#c51653" offset="0"/>
			<stop stop-color="#ff1c6d" offset="1"/>
		</radialGradient>
		<linearGradient id="c" x1="14.954" x2="14.819" y1="33.608" y2="33.055" gradientUnits="userSpaceOnUse">
			<stop stop-color="#daadb2" offset="0"/>
			<stop stop-color="#f9f1f1" offset="1"/>
		</linearGradient>
		<radialGradient id="b" cx="43.656" cy="44.585" r="32" gradientTransform="matrix(1.4049 0 0 1.361 -16.907 -15.432)" gradientUnits="userSpaceOnUse">
			<stop stop-color="#931551" stop-opacity=".31917" offset="0"/>
			<stop stop-color="#931551" stop-opacity="0" offset="1"/>
		</radialGradient>
		<linearGradient id="d" x1="18.569" x2="18.569" y1="29.953" y2="37.953" gradientUnits="userSpaceOnUse">
			<stop stop-color="#f1e1e2" offset="0"/>
			<stop stop-color="#e9cbcb" offset="1"/>
		</linearGradient>
	</defs>
	<metadata>
		<rdf:RDF>
			<cc:Work rdf:about="">
				<dc:format>image/svg+xml</dc:format>
				<dc:type rdf:resource="http://purl.org/dc/dcmitype/StillImage"/>
				<dc:title/>
			</cc:Work>
		</rdf:RDF>
	</metadata>
	<path d="m0 2v60l2 2h60l2-2v-60h-32z" color="#000000" fill="#e80749"/>
	<path d="m0 2v60l2 2h60l2-2v-60h-32z" color="#000000" fill="url(#b)"/>
	<path d="m2 0-2 1v1h64v-1l-2-1h-30z" color="#000000" fill="#ff7ed8"/>
	<path d="m0 1v3l2-2z" fill="#ffa6e4"/>
	<path d="m64 4-2-2 2-1z" fill="#eb4b92" fill-opacity=".93235"/>
	<g transform="translate(0,-1)">
		<path d="m33 16-2 5-3.5 1.4375-4.9375-2.125-4.25 4.25 2.125 4.9375-1.4375 3.5-2.5 1h-1.375c-1.1818 0-1.035 1.6684-2.125 2.125l-4.625 1.9688 5.1245 5.1566c0.38845 0.45972 0.97029 0.7496 1.6255 0.7496h4.2812l1.0312 2.5-2.125 4.9375 4.25 4.25 4.9375-2.125 3.5 1.4375 2 5h6l2-5 3.5-1.4375 4.9375 2.125 4.25-4.25-2.125-4.9375 1.4375-3.5h-7.1875c-1.8199 3.564-5.5361 6-9.8125 6-3.8618 0-7.2561-1.9894-9.2188-5h9.0938c1.1818 0 2.125-0.94318 2.125-2.125v-5.75c0-0.6238-0.26278-1.1811-0.68472-1.5683l-5.0894-5.0701-6.4447 4.5135c1.6017-4.0942 5.5571-7 10.219-7 4.2764 0 7.9926 2.436 9.8125 6h7.1875l-1.4375-3.5 2.125-4.9375-4.25-4.25-4.9375 2.125-3.5-1.4375-2-5z" color="#000000" fill="#5e0e00" fill-opacity=".086608"/>
		<path d="m29 12-2 5-3.5 1.4375-4.9375-2.125-4.25 4.25 2.125 4.9375-1.4375 3.5-5 2v6l5 2 1.4375 3.5-2.125 4.9375 4.25 4.25 4.9375-2.125 3.5 1.4375 2 5h6l2-5 3.5-1.4375 4.9375 2.125 4.25-4.25-2.125-4.9375 1.4375-3.5h-7.1875c-1.8199 3.564-5.5361 6-9.8125 6-6.0751 0-11-4.9249-11-11s4.9249-11 11-11c4.2764 0 7.9926 2.436 9.8125 6h7.1875l-1.4375-3.5 2.125-4.9375-4.25-4.25-4.9375 2.125-3.5-1.4375-2-5z" color="#000000" fill="#b8b8b8" fill-opacity=".50472"/>
		<g fill="#ffffff" opacity=".26661">
			<path d="m46 28v1h0.5zm0 11v1l0.5-1z" color="#000000"/>
			<path d="m35 55h-6l-1-6-2-1h12l-2 1z" color="#000000"/>
		</g>
		<g fill="#ffffff">
			<path d="m29 13h6l1 6 2 1h-12l2-1z" color="#000000"/>
			<path d="m11 37v-6l6-1 1-2v12l-1-2z" color="#000000"/>
		</g>
		<g fill="#ffffff" opacity=".886">
			<path d="m26.343 19.858-2.8284-1.4142 3.4853-1.4436z" color="#000000"/>
			<path d="m18 28-3 1 1.4437-3.4853z" color="#000000"/>
		</g>
		<g color="#000000" fill="#ffa8a8" opacity=".44794">
			<path d="m17.858 39.657-1.4142 2.8284-1.4436-3.4853z" color="#000000"/>
			<path d="m38 20-1-3 3.4853 1.4437z" color="#000000"/>
		</g>
		<g color="#000000" fill="#ff2929" opacity=".16885">
			<path d="m37.657 48.142 2.8284 1.4142-3.4853 1.4436z" color="#000000"/>
			<path d="m46 40 3-1-1.4437 3.4853z" color="#000000"/>
		</g>
		<g fill="#ffffff" opacity=".545">
			<path d="m44.728 17.029 4.2426 4.2426-3.5355 4.9497 0.70711 2.1213-8.4853-8.4853 2.1213 0.70711z" color="#000000"/>
			<path d="m19.272 50.971-4.2426-4.2426 3.5355-4.9497-0.70711-2.1213 8.4853 8.4853-2.1213-0.70711z" color="#000000"/>
		</g>
		<g color="#000000" fill="#ff2929" opacity=".19773">
			<path d="m46.142 28.343 1.4142-2.8284 1.4436 3.4853z" color="#000000"/>
			<path d="m26 48 1 3-3.4853-1.4437z" color="#000000"/>
		</g>
		<path d="m26.188 20-8.1875 8.1875v11.625l8.1875 8.1875h11.625l8.1875-8.1875v-0.8125h-4.1875c-1.8199 3.564-5.5361 6-9.8125 6-6.0751 0-11-4.9249-11-11s4.9249-11 11-11c4.2764 0 7.9926 2.436 9.8125 6h4.1875v-0.8125l-8.1875-8.1875z" color="#000000" fill="#ffffff" opacity=".668"/>
		<g fill="#ffffff" opacity=".806">
			<path d="m14.322 20.565 0.70711 0.70711 3.5355 4.9497-0.70711 2.1213-1.4142-2.8284z" color="#000000"/>
			<path d="m19.272 17.029-0.70711-0.70711 4.9497 2.1213 2.8284 1.4142-2.1213 0.70711z" color="#000000"/>
		</g>
		<g fill="#ffffff" opacity=".556">
			<path d="m10 37h1l6 1 1 2-3-1z" color="#000000"/>
			<path d="m35 13v-1l2 5 1 3-2-1z" color="#000000"/>
		</g>
		<g fill="#ffffff" opacity=".327">
			<path d="m48.971 46.728-4.2426 4.2426-4.9497-3.5355-2.1213 0.70711 8.4853-8.4853-0.70711 2.1213z" color="#000000"/>
			<path d="m18.565 51.678 0.70711-0.70711 4.9497-3.5355 2.1213 0.70711-2.8284 1.4142z" color="#000000"/>
			<path d="m48.971 21.272 0.70711-0.70711-2.1213 4.9497-1.4142 2.8284-0.70711-2.1213z" color="#000000"/>
		</g>
		<g fill="#ffffff" opacity=".15703">
			<path d="m35 56v-1l1-6 2-1-1 3z" color="#000000"/>
			<path d="m46.5 39-0.5 1 3-1z" color="#000000"/>
		</g>
		<g fill="#ffffff" opacity=".32269">
			<path d="m49.678 47.435-0.70711-0.70711-3.5355-4.9497 0.70711-2.1213 1.4142 2.8284z" color="#000000"/>
			<path d="m44.728 50.971 0.70711 0.70711-4.9497-2.1213-2.8284-1.4142 2.1213-0.70711z" color="#000000"/>
		</g>
		<g fill="#ffffff" opacity=".48404">
			<path d="m46 28 0.5 1h2.5z" color="#000000"/>
			<path d="m29 55v1l-2-5-1-3 2 1z" color="#000000"/>
		</g>
		<g fill="#ffffff">
			<path d="m29 12v1l-1 6-2 1 1-3z" color="#000000"/>
			<path d="m11 31-1-1e-6 5-2 3-1-1 2z" color="#000000"/>
		</g>
		<g fill="#ffffff">
			<path d="m45.435 16.322-0.70711 0.70711-4.9497 3.5355-2.1213-0.70711 2.8284-1.4142z" color="#000000"/>
			<path d="m15.029 46.728-0.70711 0.7071 2.1213-4.9497 1.4142-2.8284 0.70711 2.1213z" color="#000000"/>
			<path d="m15.029 21.272 4.2426-4.2426 4.9497 3.5355 2.1213-0.70711-8.4853 8.4853 0.70711-2.1213z" color="#000000"/>
		</g>
		<path d="m45.438 51.688 4.25-4.25-0.71694-0.70958-4.2426 4.2426z" color="#000000" fill="#ffffff" opacity=".1346"/>
		<g fill="#ffffff" opacity=".24072">
			<path d="m28.995 56.009h6.0104l-0.0052-1.0087-6 1e-6z" color="#000000" fill="#ffffff"/>
		</g>
		<g fill="#ffffff" fill-opacity=".41682">
			<path d="m49.688 20.562-4.25-4.25-0.70958 0.71694 4.2426 4.2426z" color="#000000"/>
			<path d="m14.312 47.438 4.25 4.25 0.70958-0.71694-4.2426-4.2426z" color="#000000"/>
		</g>
		<g fill="#ffffff" opacity=".85">
			<path d="m35.005 11.991h-6.0104l0.0052 1.0087 6-1e-6z" color="#000000"/>
			<path d="m9.9913 30.995v6.0104l1.0087-0.0052-1e-6 -6z" color="#000000"/>
		</g>
		<path d="m18.562 16.312-4.25 4.25 0.71694 0.70958 4.2426-4.2426z" color="#000000" fill="#ffffff"/>
		<path d="m12.5 30-2.5 1v6l5 2 0.40625 1h7.375c-1.1248-1.7254-1.7812-3.7867-1.7812-6 0-1.4135 0.2956-2.7586 0.78125-4z" color="#000000" fill="#000000" fill-opacity=".18021"/>
		<path d="m13 29h17c2.77 0 5 2.23 5 5s-2.23 5-5 5h-17c-2.77 0-5-2.23-5-5s2.23-5 5-5z" color="#000000" fill="url(#c)"/>
		<path d="m13 30h17c2.216 0 4 1.784 4 4s-1.784 4-4 4h-17c-2.216 0-4-1.784-4-4s1.784-4 4-4z" color="#000000" fill="url(#d)"/>
		<path d="m24 31h6c1.662 0 3 1.338 3 3s-1.338 3-3 3h-6c-1.662 0-3-1.338-3-3s1.338-3 3-3z" color="#000000" fill="url(#a)"/>
	</g>
	<g>
		<g transform="translate(0,-2)">
			<circle cx="6" cy="9" r="2" color="#000000" fill="#ebcbd5"/>
		</g>
		<g transform="translate(52,-2)">
			<circle cx="6" cy="9" r="2" color="#000000" fill="#ebcbd5"/>
		</g>
		<g transform="translate(52,50)">
			<circle cx="6" cy="9" r="2" color="#000000" fill="#ebcbd5"/>
		</g>
		<g transform="translate(1.6362e-8 50)">
			<circle cx="6" cy="9" r="2" color="#000000" fill="#ebcbd5"/>
		</g>
	</g>
</svg>
