<?xml version="1.0" encoding="UTF-8"?>
<svg id="ah" width="64" height="64" version="1.1" xmlns="http://www.w3.org/2000/svg" xmlns:cc="http://creativecommons.org/ns#" xmlns:dc="http://purl.org/dc/elements/1.1/" xmlns:rdf="http://www.w3.org/1999/02/22-rdf-syntax-ns#">
	<metadata id="an">
		<rdf:RDF>
			<cc:Work rdf:about="">
				<dc:format>image/svg+xml</dc:format>
				<dc:type rdf:resource="http://purl.org/dc/dcmitype/StillImage"/>
				<dc:title/>
			</cc:Work>
		</rdf:RDF>
	</metadata>
	<path id="q" d="m0 2v60l2 2h60l2-2v-60h-32z" style="color:#000000;fill:#aeb4c3"/>
	<path id="r" d="m2 0-2 1v1h63.999v-1l-2-1h-42.437z" style="color:#000000;fill:#e7ecf0"/>
	<path id="z" d="m64 4-2-2 2-1z" style="fill:#ccd1db"/>
	<path id="b" d="m0 1v3l2-2z" style="fill:#f2f5f7"/>
	<g id="c">
		<rect id="m" x="4" y="15" width="56" height="45" style="color:#000000;fill-opacity:.53578;fill:#ffffff"/>
		<g id="active-center" transform="matrix(.5625 0 0 .5625 1.7324 4)">
			<rect id="v" width="16" height="16" style="fill-opacity:.44581;fill:#ffffff;opacity:.001"/>
			<path id="s" d="m5.4688 4.0312-1.4375 1.4375 2.5312 2.5312-2.5312 2.5312 1.4375 1.4375 2.5312-2.5312 2.5312 2.5312 1.4375-1.4375-2.5312-2.5312 2.5312-2.5312-1.4375-1.4375-2.5312 2.5312z" style="color:#000000;fill-opacity:.6586;fill:#00122b;text-indent:0;text-transform:none"/>
		</g>
		<g id="x" transform="matrix(.5625 0 0 .5625 19.732 4)">
			<rect id="t" width="16" height="16" style="fill-opacity:.44581;fill:#ffffff;opacity:.001"/>
			<path id="j" d="m5 5v6h6v-6zm2 2h2v2h-2z" style="color:#000000;fill-opacity:.6586;fill:#00122b;text-indent:0;text-transform:none"/>
		</g>
		<g id="w" transform="matrix(.5625 0 0 .5625 10.732 4)">
			<rect id="d" width="16" height="16" style="fill-opacity:.44581;fill:#ffffff;opacity:.001"/>
			<path id="i" d="m4 6.9671v2.0329h8v-2.0329z" style="color:#000000;fill-opacity:.6586;fill:#00122b;text-indent:0;text-transform:none"/>
		</g>
		<g id="h" transform="matrix(.5625 0 0 .5625 53 4)">
			<rect id="u" width="16" height="16" style="fill-opacity:.44581;fill:#ffffff;opacity:.001"/>
			<path id="k" d="M 6.5625,6.7344 4.0313,9.2656 5.4688,10.7031 8,8.1719 10.5312,10.7031 11.9687,9.2656 8,5.2969 Z" style="color:#000000;fill-opacity:.6586;fill:#00122b;text-indent:0;text-transform:none"/>
		</g>
	</g>
	<g id="ar" style="opacity:.386">
		<path id="ai" d="m40.001 27.203-3.3463 12.481 3.3463-0.28852 3.3441 0.28852zm-5.818 14.951-12.481 3.3463 12.481 3.3441-0.28852-3.3441zm11.632 0 0.28852 3.3463-0.28852 3.3441 12.483-3.3441zm-9.1598 9.1621 3.3463 12.481 3.3441-12.481-3.3441 0.28852z" style="fill-opacity:.0039216;fill:#00122b;opacity:1;paint-order:normal"/>
		<path id="ad" d="m32.001 19.203-3.3463 12.481 3.3463-0.28852 3.3441 0.28852zm-5.818 14.951-12.481 3.3463 12.481 3.3441-0.28852-3.3441zm11.632 0 0.28852 3.3463-0.28852 3.3441 12.483-3.3441zm-9.1598 9.1621 3.3463 12.481 3.3441-12.481-3.3441 0.28852z" style="fill-opacity:.049147;fill:#00122b;opacity:1;paint-order:normal"/>
		<g id="bc" style="">
			<path id="aq" d="m40.001 27.203-3.3463 12.481 3.3463-0.28852 3.3441 0.28852-3.3441-12.481m-5.818 14.951-12.481 3.3463s12.481 3.3441 12.481 3.3441-0.28852-3.3441-0.28852-3.3441 0.28852-3.3463 0.28852-3.3463m11.632 0 0.28852 3.3463-0.28852 3.3441 12.483-3.3441-12.483-3.3463m-9.1598 9.1621 3.3463 12.481 3.3441-12.481-3.3441 0.28852-3.3463-0.28852" style="fill-opacity:.0039216;fill:#00122b;opacity:1;paint-order:normal"/>
			<path id="ap" d="m38.564 25.766-3.3463 12.481 3.3463-0.28852 3.3441 0.28852-3.3441-12.481m-5.818 14.951-12.481 3.3463s12.481 3.3441 12.481 3.3441-0.28852-3.3441-0.28852-3.3441 0.28852-3.3463 0.28852-3.3463m11.632 0 0.28852 3.3463-0.28852 3.3441 12.483-3.3441-12.483-3.3463m-9.1598 9.1621 3.3463 12.481 3.3441-12.481-3.3441 0.28852-3.3463-0.28852" style="fill-opacity:.012044;fill:#00122b;opacity:1;paint-order:normal"/>
			<path id="as" d="m37.969 25.171-3.3463 12.481 3.3463-0.28852 3.3441 0.28852-3.3441-12.481m-5.818 14.951-12.481 3.3463s12.481 3.3441 12.481 3.3441-0.28852-3.3441-0.28852-3.3441 0.28852-3.3463 0.28852-3.3463m11.632 0 0.28852 3.3463-0.28852 3.3441 12.483-3.3441-12.483-3.3463m-9.1598 9.1621 3.3463 12.481 3.3441-12.481-3.3441 0.28852-3.3463-0.28852" style="fill-opacity:.015409;fill:#00122b;opacity:1;paint-order:normal"/>
			<path id="a" d="m37.512 24.714-3.3463 12.481 3.3463-0.28852 3.3441 0.28852-3.3441-12.481m-5.818 14.951-12.481 3.3463s12.481 3.3441 12.481 3.3441-0.28852-3.3441-0.28852-3.3441 0.28852-3.3463 0.28852-3.3463m11.632 0 0.28852 3.3463-0.28852 3.3441 12.483-3.3441-12.483-3.3463m-9.1598 9.1621 3.3463 12.481 3.3441-12.481-3.3441 0.28852-3.3463-0.28852" style="fill-opacity:.017991;fill:#00122b;opacity:1;paint-order:normal"/>
			<path id="e" d="m37.127 24.329-3.3463 12.481 3.3463-0.28852 3.3441 0.28852-3.3441-12.481m-5.818 14.951-12.481 3.3463s12.481 3.3441 12.481 3.3441-0.28852-3.3441-0.28852-3.3441 0.28852-3.3463 0.28852-3.3463m11.632 0 0.28852 3.3463-0.28852 3.3441 12.483-3.3441-12.483-3.3463m-9.1598 9.1621 3.3463 12.481 3.3441-12.481-3.3441 0.28852-3.3463-0.28852" style="fill-opacity:.020167;fill:#00122b;opacity:1;paint-order:normal"/>
			<path id="f" d="m36.788 23.99-3.3463 12.481 3.3463-0.28852 3.3441 0.28852-3.3441-12.481m-5.818 14.951-12.481 3.3463s12.481 3.3441 12.481 3.3441-0.28852-3.3441-0.28852-3.3441 0.28852-3.3463 0.28852-3.3463m11.632 0 0.28852 3.3463-0.28852 3.3441 12.483-3.3441-12.483-3.3463m-9.1598 9.1621 3.3463 12.481 3.3441-12.481-3.3441 0.28852-3.3463-0.28852" style="fill-opacity:.022085;fill:#00122b;opacity:1;paint-order:normal"/>
			<path id="g" d="m36.482 23.684-3.3463 12.481 3.3463-0.28852 3.3441 0.28852-3.3441-12.481m-5.818 14.951-12.481 3.3463s12.481 3.3441 12.481 3.3441-0.28852-3.3441-0.28852-3.3441 0.28852-3.3463 0.28852-3.3463m11.632 0 0.28852 3.3463-0.28852 3.3441 12.483-3.3441-12.483-3.3463m-9.1598 9.1621 3.3463 12.481 3.3441-12.481-3.3441 0.28852-3.3463-0.28852" style="fill-opacity:.023818;fill:#00122b;opacity:1;paint-order:normal"/>
			<path id="l" d="m36.2 23.402-3.3463 12.481 3.3463-0.28852 3.3441 0.28852-3.3441-12.481m-5.818 14.951-12.481 3.3463s12.481 3.3441 12.481 3.3441-0.28852-3.3441-0.28852-3.3441 0.28852-3.3463 0.28852-3.3463m11.632 0 0.28852 3.3463-0.28852 3.3441 12.483-3.3441-12.483-3.3463m-9.1598 9.1621 3.3463 12.481 3.3441-12.481-3.3441 0.28852-3.3463-0.28852" style="fill-opacity:.025412;fill:#00122b;opacity:1;paint-order:normal"/>
			<path id="az" d="m35.937 23.139-3.3463 12.481 3.3463-0.28852 3.3441 0.28852-3.3441-12.481m-5.818 14.951-12.481 3.3463s12.481 3.3441 12.481 3.3441-0.28852-3.3441-0.28852-3.3441 0.28852-3.3463 0.28852-3.3463m11.632 0 0.28852 3.3463-0.28852 3.3441 12.483-3.3441-12.483-3.3463m-9.1598 9.1621 3.3463 12.481 3.3441-12.481-3.3441 0.28852-3.3463-0.28852" style="fill-opacity:.026896;fill:#00122b;opacity:1;paint-order:normal"/>
			<path id="at" d="m35.691 22.893-3.3463 12.481 3.3463-0.28852 3.3441 0.28852-3.3441-12.481m-5.818 14.951-12.481 3.3463s12.481 3.3441 12.481 3.3441-0.28852-3.3441-0.28852-3.3441 0.28852-3.3463 0.28852-3.3463m11.632 0 0.28852 3.3463-0.28852 3.3441 12.483-3.3441-12.483-3.3463m-9.1598 9.1621 3.3463 12.481 3.3441-12.481-3.3441 0.28852-3.3463-0.28852" style="fill-opacity:.02829;fill:#00122b;opacity:1;paint-order:normal"/>
			<path id="ay" d="m35.457 22.659-3.3463 12.481 3.3463-0.28852 3.3441 0.28852-3.3441-12.481m-5.818 14.951-12.481 3.3463s12.481 3.3441 12.481 3.3441-0.28852-3.3441-0.28852-3.3441 0.28852-3.3463 0.28852-3.3463m11.632 0 0.28852 3.3463-0.28852 3.3441 12.483-3.3441-12.483-3.3463m-9.1598 9.1621 3.3463 12.481 3.3441-12.481-3.3441 0.28852-3.3463-0.28852" style="fill-opacity:.029608;fill:#00122b;opacity:1;paint-order:normal"/>
			<path id="bb" d="m35.236 22.438-3.3463 12.481 3.3463-0.28852 3.3441 0.28852-3.3441-12.481m-5.818 14.951-12.481 3.3463s12.481 3.3441 12.481 3.3441-0.28852-3.3441-0.28852-3.3441 0.28852-3.3463 0.28852-3.3463m11.632 0 0.28852 3.3463-0.28852 3.3441 12.483-3.3441-12.483-3.3463m-9.1598 9.1621 3.3463 12.481 3.3441-12.481-3.3441 0.28852-3.3463-0.28852" style="fill-opacity:.030862;fill:#00122b;opacity:1;paint-order:normal"/>
			<path id="aj" d="m35.024 22.226-3.3463 12.481 3.3463-0.28852 3.3441 0.28852-3.3441-12.481m-5.818 14.951-12.481 3.3463s12.481 3.3441 12.481 3.3441-0.28852-3.3441-0.28852-3.3441 0.28852-3.3463 0.28852-3.3463m11.632 0 0.28852 3.3463-0.28852 3.3441 12.483-3.3441-12.483-3.3463m-9.1598 9.1621 3.3463 12.481 3.3441-12.481-3.3441 0.28852-3.3463-0.28852" style="fill-opacity:.03206;fill:#00122b;opacity:1;paint-order:normal"/>
			<path id="am" d="m34.821 22.022-3.3463 12.481 3.3463-0.28852 3.3441 0.28852-3.3441-12.481m-5.818 14.951-12.481 3.3463s12.481 3.3441 12.481 3.3441-0.28852-3.3441-0.28852-3.3441 0.28852-3.3463 0.28852-3.3463m11.632 0 0.28852 3.3463-0.28852 3.3441 12.483-3.3441-12.483-3.3463m-9.1598 9.1621 3.3463 12.481 3.3441-12.481-3.3441 0.28852-3.3463-0.28852" style="fill-opacity:.033209;fill:#00122b;opacity:1;paint-order:normal"/>
			<path id="ak" d="m34.625 21.827-3.3463 12.481 3.3463-0.28852 3.3441 0.28852-3.3441-12.481m-5.818 14.951-12.481 3.3463s12.481 3.3441 12.481 3.3441-0.28852-3.3441-0.28852-3.3441 0.28852-3.3463 0.28852-3.3463m11.632 0 0.28852 3.3463-0.28852 3.3441 12.483-3.3441-12.483-3.3463m-9.1598 9.1621 3.3463 12.481 3.3441-12.481-3.3441 0.28852-3.3463-0.28852" style="fill-opacity:.034314;fill:#00122b;opacity:1;paint-order:normal"/>
			<path id="bd" d="m34.436 21.638-3.3463 12.481 3.3463-0.28852 3.3441 0.28852-3.3441-12.481m-5.818 14.951-12.481 3.3463s12.481 3.3441 12.481 3.3441-0.28852-3.3441-0.28852-3.3441 0.28852-3.3463 0.28852-3.3463m11.632 0 0.28852 3.3463-0.28852 3.3441 12.483-3.3441-12.483-3.3463m-9.1598 9.1621 3.3463 12.481 3.3441-12.481-3.3441 0.28852-3.3463-0.28852" style="fill-opacity:.035381;fill:#00122b;opacity:1;paint-order:normal"/>
			<path id="ag" d="m34.254 21.456-3.3463 12.481 3.3463-0.28852 3.3441 0.28852-3.3441-12.481m-5.818 14.951-12.481 3.3463s12.481 3.3441 12.481 3.3441-0.28852-3.3441-0.28852-3.3441 0.28852-3.3463 0.28852-3.3463m11.632 0 0.28852 3.3463-0.28852 3.3441 12.483-3.3441-12.483-3.3463m-9.1598 9.1621 3.3463 12.481 3.3441-12.481-3.3441 0.28852-3.3463-0.28852" style="fill-opacity:.036413;fill:#00122b;opacity:1;paint-order:normal"/>
			<path id="af" d="m34.077 21.279-3.3463 12.481 3.3463-0.28852 3.3441 0.28852-3.3441-12.481m-5.818 14.951-12.481 3.3463s12.481 3.3441 12.481 3.3441-0.28852-3.3441-0.28852-3.3441 0.28852-3.3463 0.28852-3.3463m11.632 0 0.28852 3.3463-0.28852 3.3441 12.483-3.3441-12.483-3.3463m-9.1598 9.1621 3.3463 12.481 3.3441-12.481-3.3441 0.28852-3.3463-0.28852" style="fill-opacity:.037413;fill:#00122b;opacity:1;paint-order:normal"/>
			<path id="p" d="m33.905 21.107-3.3463 12.481 3.3463-0.28852 3.3441 0.28852-3.3441-12.481m-5.818 14.951-12.481 3.3463s12.481 3.3441 12.481 3.3441-0.28852-3.3441-0.28852-3.3441 0.28852-3.3463 0.28852-3.3463m11.632 0 0.28852 3.3463-0.28852 3.3441 12.483-3.3441-12.483-3.3463m-9.1598 9.1621 3.3463 12.481 3.3441-12.481-3.3441 0.28852-3.3463-0.28852" style="fill-opacity:.038384;fill:#00122b;opacity:1;paint-order:normal"/>
			<path id="o" d="m33.738 20.94-3.3463 12.481 3.3463-0.28852 3.3441 0.28852-3.3441-12.481m-5.818 14.951-12.481 3.3463s12.481 3.3441 12.481 3.3441-0.28852-3.3441-0.28852-3.3441 0.28852-3.3463 0.28852-3.3463m11.632 0 0.28852 3.3463-0.28852 3.3441 12.483-3.3441-12.483-3.3463m-9.1598 9.1621 3.3463 12.481 3.3441-12.481-3.3441 0.28852-3.3463-0.28852" style="fill-opacity:.039328;fill:#00122b;opacity:1;paint-order:normal"/>
			<path id="aa" d="m33.575 20.777-3.3463 12.481 3.3463-0.28852 3.3441 0.28852-3.3441-12.481m-5.818 14.951-12.481 3.3463s12.481 3.3441 12.481 3.3441-0.28852-3.3441-0.28852-3.3441 0.28852-3.3463 0.28852-3.3463m11.632 0 0.28852 3.3463-0.28852 3.3441 12.483-3.3441-12.483-3.3463m-9.1598 9.1621 3.3463 12.481 3.3441-12.481-3.3441 0.28852-3.3463-0.28852" style="fill-opacity:.040248;fill:#00122b;opacity:1;paint-order:normal"/>
			<path id="y" d="m33.417 20.619-3.3463 12.481 3.3463-0.28852 3.3441 0.28852-3.3441-12.481m-5.818 14.951-12.481 3.3463s12.481 3.3441 12.481 3.3441-0.28852-3.3441-0.28852-3.3441 0.28852-3.3463 0.28852-3.3463m11.632 0 0.28852 3.3463-0.28852 3.3441 12.483-3.3441-12.483-3.3463m-9.1598 9.1621 3.3463 12.481 3.3441-12.481-3.3441 0.28852-3.3463-0.28852" style="fill-opacity:.041145;fill:#00122b;opacity:1;paint-order:normal"/>
			<path id="n" d="m33.262 20.464-3.3463 12.481 3.3463-0.28852 3.3441 0.28852-3.3441-12.481m-5.818 14.951-12.481 3.3463s12.481 3.3441 12.481 3.3441-0.28852-3.3441-0.28852-3.3441 0.28852-3.3463 0.28852-3.3463m11.632 0 0.28852 3.3463-0.28852 3.3441 12.483-3.3441-12.483-3.3463m-9.1598 9.1621 3.3463 12.481 3.3441-12.481-3.3441 0.28852-3.3463-0.28852" style="fill-opacity:.042021;fill:#00122b;opacity:1;paint-order:normal"/>
			<path id="ax" d="m33.11 20.312-3.3463 12.481 3.3463-0.28852 3.3441 0.28852-3.3441-12.481m-5.818 14.951-12.481 3.3463s12.481 3.3441 12.481 3.3441-0.28852-3.3441-0.28852-3.3441 0.28852-3.3463 0.28852-3.3463m11.632 0 0.28852 3.3463-0.28852 3.3441 12.483-3.3441-12.483-3.3463m-9.1598 9.1621 3.3463 12.481 3.3441-12.481-3.3441 0.28852-3.3463-0.28852" style="fill-opacity:.042877;fill:#00122b;opacity:1;paint-order:normal"/>
			<path id="ao" d="m32.962 20.164-3.3463 12.481 3.3463-0.28852 3.3441 0.28852-3.3441-12.481m-5.818 14.951-12.481 3.3463s12.481 3.3441 12.481 3.3441-0.28852-3.3441-0.28852-3.3441 0.28852-3.3463 0.28852-3.3463m11.632 0 0.28852 3.3463-0.28852 3.3441 12.483-3.3441-12.483-3.3463m-9.1598 9.1621 3.3463 12.481 3.3441-12.481-3.3441 0.28852-3.3463-0.28852" style="fill-opacity:.043715;fill:#00122b;opacity:1;paint-order:normal"/>
			<path id="av" d="m32.817 20.019-3.3463 12.481 3.3463-0.28852 3.3441 0.28852-3.3441-12.481m-5.818 14.951-12.481 3.3463s12.481 3.3441 12.481 3.3441-0.28852-3.3441-0.28852-3.3441 0.28852-3.3463 0.28852-3.3463m11.632 0 0.28852 3.3463-0.28852 3.3441 12.483-3.3441-12.483-3.3463m-9.1598 9.1621 3.3463 12.481 3.3441-12.481-3.3441 0.28852-3.3463-0.28852" style="fill-opacity:.044536;fill:#00122b;opacity:1;paint-order:normal"/>
			<path id="aw" d="m32.675 19.877-3.3463 12.481 3.3463-0.28852 3.3441 0.28852-3.3441-12.481m-5.818 14.951-12.481 3.3463s12.481 3.3441 12.481 3.3441-0.28852-3.3441-0.28852-3.3441 0.28852-3.3463 0.28852-3.3463m11.632 0 0.28852 3.3463-0.28852 3.3441 12.483-3.3441-12.483-3.3463m-9.1598 9.1621 3.3463 12.481 3.3441-12.481-3.3441 0.28852-3.3463-0.28852" style="fill-opacity:.04534;fill:#00122b;opacity:1;paint-order:normal"/>
			<path id="au" d="m32.535 19.737-3.3463 12.481 3.3463-0.28852 3.3441 0.28852-3.3441-12.481m-5.818 14.951-12.481 3.3463s12.481 3.3441 12.481 3.3441-0.28852-3.3441-0.28852-3.3441 0.28852-3.3463 0.28852-3.3463m11.632 0 0.28852 3.3463-0.28852 3.3441 12.483-3.3441-12.483-3.3463m-9.1598 9.1621 3.3463 12.481 3.3441-12.481-3.3441 0.28852-3.3463-0.28852" style="fill-opacity:.046129;fill:#00122b;opacity:1;paint-order:normal"/>
			<path id="ae" d="m32.398 19.6-3.3463 12.481 3.3463-0.28852 3.3441 0.28852-3.3441-12.481m-5.818 14.951-12.481 3.3463s12.481 3.3441 12.481 3.3441-0.28852-3.3441-0.28852-3.3441 0.28852-3.3463 0.28852-3.3463m11.632 0 0.28852 3.3463-0.28852 3.3441 12.483-3.3441-12.483-3.3463m-9.1598 9.1621 3.3463 12.481 3.3441-12.481-3.3441 0.28852-3.3463-0.28852" style="fill-opacity:.046903;fill:#00122b;opacity:1;paint-order:normal"/>
			<path id="ba" d="m32.264 19.465-3.3463 12.481 3.3463-0.28852 3.3441 0.28852-3.3441-12.481m-5.818 14.951-12.481 3.3463s12.481 3.3441 12.481 3.3441-0.28852-3.3441-0.28852-3.3441 0.28852-3.3463 0.28852-3.3463m11.632 0 0.28852 3.3463-0.28852 3.3441 12.483-3.3441-12.483-3.3463m-9.1598 9.1621 3.3463 12.481 3.3441-12.481-3.3441 0.28852-3.3463-0.28852" style="fill-opacity:.047664;fill:#00122b;opacity:1;paint-order:normal"/>
			<path id="ab" d="m32.131 19.333-3.3463 12.481 3.3463-0.28852 3.3441 0.28852-3.3441-12.481m-5.818 14.951-12.481 3.3463s12.481 3.3441 12.481 3.3441-0.28852-3.3441-0.28852-3.3441 0.28852-3.3463 0.28852-3.3463m11.632 0 0.28852 3.3463-0.28852 3.3441 12.483-3.3441-12.483-3.3463m-9.1598 9.1621 3.3463 12.481 3.3441-12.481-3.3441 0.28852-3.3463-0.28852" style="fill-opacity:.048412;fill:#00122b;opacity:1;paint-order:normal"/>
			<path id="ac" d="m32.001 19.203-3.3463 12.481 3.3463-0.28852 3.3441 0.28852-3.3441-12.481m-5.818 14.951-12.481 3.3463s12.481 3.3441 12.481 3.3441-0.28852-3.3441-0.28852-3.3441 0.28852-3.3463 0.28852-3.3463m11.632 0 0.28852 3.3463-0.28852 3.3441 12.483-3.3441-12.483-3.3463m-9.1598 9.1621 3.3463 12.481 3.3441-12.481-3.3441 0.28852-3.3463-0.28852" style="fill-opacity:.049147;fill:#00122b;opacity:1;paint-order:normal"/>
		</g>
	</g>
	<path id="al" d="m32.001 19.203-3.3463 12.481 3.3463-0.28852 3.3441 0.28852zm-5.818 14.951-12.481 3.3463 12.481 3.3441-0.28852-3.3441zm11.632 0 0.28852 3.3463-0.28852 3.3441 12.483-3.3441zm-9.1598 9.1621 3.3463 12.481 3.3441-12.481-3.3441 0.28852z" style="fill-opacity:.6586;fill:#00122b;paint-order:normal"/>
</svg>
