<svg width="64" height="64" xmlns="http://www.w3.org/2000/svg" xmlns:xlink="http://www.w3.org/1999/xlink"><defs><radialGradient id="d" cx="28.444" cy="-1.667" r="31.76" gradientTransform="matrix(0 .99121 -5.067 -.00045 23.674 -26.197)" gradientUnits="userSpaceOnUse" xlink:href="#a"/><radialGradient id="e" cx="28.444" cy="-1.667" r="31.762" gradientTransform="matrix(0 .99114 -5.0667 -.00045 23.673 -26.196)" gradientUnits="userSpaceOnUse" xlink:href="#a"/><radialGradient id="f" cx="28.444" cy="-1.667" r="31.766" gradientTransform="matrix(0 .99103 -5.0661 -.00045 23.672 -26.192)" gradientUnits="userSpaceOnUse" xlink:href="#a"/><radialGradient id="g" cx="28.444" cy="-1.668" r="31.771" gradientTransform="matrix(0 .99087 -5.0653 -.00045 23.67 -26.188)" gradientUnits="userSpaceOnUse" xlink:href="#a"/><radialGradient id="h" cx="28.444" cy="-1.669" r="31.778" gradientTransform="matrix(0 .99065 -5.0642 -.00045 23.668 -26.182)" gradientUnits="userSpaceOnUse" xlink:href="#a"/><radialGradient id="i" cx="28.444" cy="-1.67" r="31.787" gradientTransform="matrix(0 .99038 -5.0628 -.00045 23.665 -26.174)" gradientUnits="userSpaceOnUse" xlink:href="#a"/><radialGradient id="j" cx="28.444" cy="-1.671" r="31.797" gradientTransform="matrix(0 .99006 -5.0612 -.00045 23.662 -26.165)" gradientUnits="userSpaceOnUse" xlink:href="#a"/><radialGradient id="k" cx="28.444" cy="-1.673" r="31.809" gradientTransform="matrix(0 .98969 -5.0592 -.00044 23.658 -26.154)" gradientUnits="userSpaceOnUse" xlink:href="#a"/><radialGradient id="l" cx="28.444" cy="-1.674" r="31.823" gradientTransform="matrix(0 .98926 -5.057 -.00044 23.654 -26.142)" gradientUnits="userSpaceOnUse" xlink:href="#a"/><radialGradient id="m" cx="28.444" cy="-1.676" r="31.839" gradientTransform="matrix(0 .98877 -5.0545 -.00044 23.649 -26.128)" gradientUnits="userSpaceOnUse" xlink:href="#a"/><radialGradient id="n" cx="28.444" cy="-1.678" r="31.856" gradientTransform="matrix(0 .98823 -5.0518 -.00044 23.643 -26.113)" gradientUnits="userSpaceOnUse" xlink:href="#a"/><radialGradient id="o" cx="28.444" cy="-1.675" r="31.875" gradientTransform="matrix(0 .98763 -5.0487 -.00044 23.661 -26.096)" gradientUnits="userSpaceOnUse" xlink:href="#a"/><radialGradient id="p" cx="28.444" cy="-1.678" r="31.897" gradientTransform="matrix(0 .98697 -5.0454 -.00044 23.654 -26.077)" gradientUnits="userSpaceOnUse" xlink:href="#a"/><radialGradient id="q" cx="28.444" cy="-1.672" r="31.92" gradientTransform="matrix(0 .98626 -5.0417 -.00044 23.69 -26.057)" gradientUnits="userSpaceOnUse" xlink:href="#a"/><radialGradient id="r" cx="28.444" cy="-1.675" r="31.944" gradientTransform="matrix(0 .98549 -5.0378 -.00044 23.682 -26.035)" gradientUnits="userSpaceOnUse" xlink:href="#a"/><radialGradient id="s" cx="28.444" cy="-1.678" r="31.971" gradientTransform="matrix(0 .98467 -5.0336 -.00044 23.674 -26.011)" gradientUnits="userSpaceOnUse" xlink:href="#a"/><radialGradient id="t" cx="28.444" cy="-1.681" r="32" gradientTransform="matrix(0 .98378 -5.029 -.00044 23.665 -25.986)" gradientUnits="userSpaceOnUse" xlink:href="#a"/><radialGradient id="u" cx="28.444" cy="-1.667" r="31.76" gradientTransform="matrix(0 .99123 -5.0671 -.00045 23.674 -26.198)" gradientUnits="userSpaceOnUse" xlink:href="#a"/><radialGradient id="v" cx="32.519" cy="1.45" r="31.76" gradientTransform="matrix(0 .02013 -1.1971 0 34.255 1.303)" gradientUnits="userSpaceOnUse"><stop stop-color="#e2f9ff" stop-opacity=".996" offset="0"/><stop stop-color="#b7f5ff" stop-opacity="0" offset="1"/></radialGradient><radialGradient id="b" cx="38.452" cy="6.804" r="32" gradientTransform="matrix(0 1.875 -1.7127 0 43.654 -59.097)" gradientUnits="userSpaceOnUse"><stop stop-color="#0db6e5" offset="0"/><stop stop-color="#00a8e5" offset=".498"/><stop stop-color="#0e78c4" offset="1"/></radialGradient><radialGradient id="c" cx="32" cy="23" r="14.615" gradientUnits="userSpaceOnUse"><stop stop-color="#fff" stop-opacity=".997" offset="0"/><stop stop-color="#85fff5" offset="1"/></radialGradient><radialGradient id="w" cx="32" cy="23" r="14.587" fr="0" gradientTransform="matrix(1 0 0 .99999 0 0)" gradientUnits="userSpaceOnUse"><stop stop-color="#55f0ff" offset="0"/><stop stop-color="#8bffbc" stop-opacity=".243" offset=".705"/><stop stop-color="#80ecff" stop-opacity="0" offset="1"/></radialGradient><radialGradient id="x" cx="32" cy="32" r="18.165" gradientUnits="userSpaceOnUse"><stop stop-color="#fff" offset="0"/><stop stop-color="#89fff5" offset=".881"/><stop stop-color="#bafffb" stop-opacity=".694" offset="1"/></radialGradient><linearGradient id="a"><stop stop-color="#44fff6" stop-opacity=".141" offset="0"/><stop stop-color="#0fa2ff" stop-opacity="0" offset="1"/></linearGradient></defs><path d="M1 0h62c.554 0 1 .446 1 1v55a1 1 0 0 1-1 1H7l-7 7V1c0-.554.446-1 1-1z" fill="url(#b)" paint-order="fill markers stroke"/><path d="M32 14.385A14.616 14.616 0 0 0 17.385 29 14.616 14.616 0 0 0 32 43.615 14.616 14.616 0 0 0 46.615 29 14.616 14.616 0 0 0 32 14.385zm0 .03A14.587 14.587 0 0 1 46.586 29 14.587 14.587 0 0 1 32 43.586 14.587 14.587 0 0 1 17.414 29 14.587 14.587 0 0 1 32 14.414zm.174.97c-1.959-.02-3.914.38-5.729 1.111 1.19.476-.586 1.499-.795 2.217-.773.53.141.961.182 1.266.373.67 1.383-.971 1.643-1.276 1.038-.538 1.805-1.465 3.047-1.58.994.525 2.037.328 3.146.164 1.325-.523 2.048.77 3.068 1.317 1.203.062-1.055.426-.238.93.88.475 1.59 1.29 2.393 1.7 1.051-.32.065-1.032-.463-1.214-.03-1.389 1.536.24 1.459.986.34.973.962 1.757 1.242 2.738.899-.057.019 2.395 1.424 1.813.648-1.406-.064.736.351 1.193.42 1.3-.037 2.758.823 3.944.944 1.496 2.065-.454 1.95-1.51-.026-2.867-.826-5.767-2.554-8.084-.234.759.3 1.544.184 2.14-.871.016-.036 1.955-.838.926-.357-.604-.712-1.485.062-1.799-1.147-.377 1.065-.52.045-.966-.144-1.293-.995-2.358-2.06-3.043-2.356-1.87-5.342-2.9-8.342-2.973zm1.074 5.033c-.811.494-2.604.205-1.648 1.672.507.358.624-1.124 1.084-.084.818.608 1.609 1.213 1.91 2.303.355 1.02 2.509.349 1.117-.274-.096-1.04.965-2.456-.576-2.949-.57-.351-1.204-.657-1.887-.668zm-6.352.158c-1.05.043-1.861.838-2.554 1.303-.466.113 1.352.617 1.418 1.295-.32 1.244-.264 2.667-.76 3.883-.9 1.29-.82 3.003-.281 4.424-.013.55 1.072 1.74.496.67-.253-.622.133-1.193.275-.231.497.886.332 2.19 1.33 2.678.948 1.009 2.595.771 3.358 1.974.393.974 1.47.714 2.125 1.075.233 1.028-1.7 1.592-.334 2.486 1.059.513 1.744 1.477 2.066 2.306 1.884-.476 3.796-1.054 5.408-2.193 1.193-.563 1.503-1.791 1.993-2.893-.923-.378-2.266.817-3.11-.285-1.371-.347-3.095-.576-4.517-.367-.892-.122-2.462 1.467-2.598-.281-.051-1.03-1.754-.623-1.11-1.608-.544-.661-1.975.698-2.064-.855-.177-1.557 1.577-1.28 2.584-1.244.58.106 1.388 1.546 1.09.148-.17-1.14 1.414-1.512 1.453-2.736.063-1.175 1.827-.84 1.808-1.791-.523-.018-.661-.615-1.32-.154.47-.476 2.158-.878 1.09-1.834-.75-.389-2.187-1.682-2.74-.983.062.49.29 2.296-.364 1.781-.556-.77-2.213-1.461-.761-2.472.594-.335 1.161-1.375.011-1.24.159-.675-.563-.569-.543.002-.21-.533-1.04-2.185-1.388-1.166.237.37.747 1.362-.06.652-.988-.41-1.334-1.472-1.788-2.342a2.166 2.166 0 0 0-.213-.002zm12.186 1.112c-.55.772 1.417 2.523.616 1.125.418.32 1.326.301.662-.393-.35-.425-.976-.218-1.278-.732zm-1.85.193c-1.256-.108-.267 2.07.233.617.12-.221.063-.582-.232-.617zm-5.94.72c-.68.986 1.984.967.917 2.114 1.243.964 1.997-.76.57-1.266-.405-.41-.887-.801-1.488-.847zm3.968 4.483c-.686.826 1.674 1.402.547.479-.187-.154-.381-.3-.547-.479zm-4.095 7.207c-.224.409 1.25.352 1.464.748 1.23-.252-1.297-.713-1.464-.748zm2.738.543c-1.361-.05.396.954.379.344-.173-.061-.162-.362-.38-.344z" fill="url(#c)"/><g paint-order="fill markers stroke"><path d="M.242.24C.241.24.24.81.24 1.844v61.91c0 .002.511.004 1.442.004l1.605.002H63.75c.005 0 .007-1.051.007-2.884.002-.482.003-1.018.003-1.605V.253c0-.007-1.614-.01-4.326-.01C58.936.24 58.4.24 57.83.24H.257m.028 1.603h63.43s.002.966.002 2.656v58.858c0 .001-.512.002-1.44.002h-2.595a21260188.307 21260188.307 0 0 1-59.4-.002v-1.366c0-7.758 0-50.292.002-58.703V1.843" fill="url(#d)"/><path d="M.249.238c-.006 0-.011.57-.011 1.599v61.899c0 .01.507.015 1.43.015.438.007.976.012 1.6.012h60.451c.02 0 .032-1.043.032-2.86.006-.477.011-1.013.011-1.6V.298c0-.03-1.6-.048-4.29-.048-.493-.006-1.028-.01-1.598-.01H.311M.303 1.86h63.393c.005 0 .01.961.01 2.641v58.846c0 .005-.51.01-1.436.01H.53a1.436 1.436 0 0 1-.237-.01v-1.849c0-7.696.004-49.867.01-58.206V1.86" fill="url(#e)"/><path d="M.26.234c-.014 0-.026.568-.026 1.59v61.879c0 .024.5.037 1.408.037.432.015.969.026 1.59.026h60.434c.047 0 .074-1.027.074-2.816.015-.47.026-1.005.026-1.59V.372c0-.07-1.576-.111-4.224-.111a52.964 52.964 0 0 0-1.59-.026H.408M.337 1.887h63.327c.013 0 .308.977.024 2.614v58.828c0 .013-.509.023-1.428.023H.556c-.158-.003-.243-.012-.243-.023v-2.694c0-7.587.01-49.124.024-57.336V1.887" fill="url(#f)"/><path d="M.277.229C.25.229.229.794.229 1.806v61.85c0 .043.488.067 1.377.067.422.027.956.048 1.577.048h60.405c.086 0 .136-1.004.136-2.753.026-.46.048-.992.048-1.577V.48c0-.128-1.541-.203-4.13-.203a28.16 28.16 0 0 0-1.577-.048H.548M.385 1.926h63.231c.025 0 .244.952.044 2.576v58.8c0 .023-.506.042-1.416.042H57.13L.594 63.343c-.164-.005-.254-.021-.254-.041v-3.92c0-7.428.02-48.047.044-56.076v-1.38" fill="url(#g)"/><path d="M.298.222c-.042 0-.076.562-.076 1.56v61.811c0 .07.473.109 1.335.109.41.042.942.076 1.56.076h60.369c.137 0 .216-.974.216-2.67.043-.446.077-.976.077-1.56V.623c0-.204-1.495-.325-4.006-.325a17.01 17.01 0 0 0-1.56-.076H.733M.447 1.978h63.107c.039 0 .212.93.07 2.525v58.765c0 .037-.503.067-1.401.067h-6.707c-10.774 0-51.599 0-54.872-.002-.171-.007-.267-.034-.267-.065v-5.534c0-7.22.032-46.629.07-54.417V1.98" fill="url(#h)"/><path d="M.326.213C.263.213.213.771.213 1.751v61.764c0 .103.455.159 1.284.159.394.062.922.112 1.539.112h60.32c.202 0 .318-.936.318-2.567.062-.429.113-.956.113-1.538V.8c0-.298-1.437-.476-3.851-.476a11.11 11.11 0 0 0-1.538-.112H.96M.524 2.044h62.951c.057 0 .103.904.103 2.461v58.719c0 .055-.5.1-1.382.1h-8.693c-10.361 0-49.65-.002-52.798-.004-.18-.01-.284-.05-.284-.096v-7.546c0-6.96.046-44.86.104-52.347V2.044" fill="url(#i)"/><path d="M.358.203C.272.203.203.755.203 1.715v61.707c0 .142.433.22 1.222.22.375.085.899.155 1.512.155h60.266c.28 0 .44-.891.44-2.444.085-.408.155-.93.155-1.512V1.016c0-.413-1.368-.658-3.665-.658A7.648 7.648 0 0 0 58.62.203H1.236M.62 2.123h62.762c.079 0 .218.88.142 2.385v58.664c0 .076-.495.137-1.36.137h-11.08c-9.863 0-47.304-.001-50.304-.004-.19-.015-.303-.069-.303-.133v-9.965c0-6.647.063-42.735.142-49.86V2.122" fill="url(#j)"/><path d="M.396.19C.282.19.191.738.191 1.673v61.641c0 .188.407.291 1.149.291a5 5 0 0 0 1.482.205h60.2c.37 0 .581-.838.581-2.297.114-.384.206-.903.206-1.482V1.269c0-.547-1.286-.872-3.447-.872A5.47 5.47 0 0 0 58.88.192H1.558m-.83 2.024H63.27c.104 0 .188.85.188 2.296v58.6c0 .1-.49.182-1.334.182H48.253c-9.282 0-44.56-.002-47.388-.006-.203-.02-.327-.09-.327-.176V50.316c0-6.281.085-40.247.19-46.949V2.215" fill="url(#k)"/><path d="M.44.177C.294.177.177.715.177 1.624v61.564c0 .24.378.372 1.066.372.327.146.841.263 1.447.263h60.126c.473 0 .744-.777.744-2.131.146-.356.263-.87.263-1.447V1.555c0-.699-1.192-1.116-3.197-1.116A4.032 4.032 0 0 0 59.18.176H1.93M.854 2.321h62.291c.134 0 .242.817.242 2.193v58.528c0 .13-.485.233-1.304.233H45.006c-8.615 0-41.413-.002-44.04-.007-.218-.025-.354-.116-.354-.226V46.997c0-5.86.108-37.392.242-43.608V2.321" fill="url(#l)"/><path d="M.49.161c-.182 0-.33.53-.33 1.407v61.479c0 .3.345.464.972.464.298.182.806.328 1.408.328h60.04c.59 0 .93-.708.93-1.943.181-.324.327-.832.327-1.407V1.883c0-.873-1.087-1.393-2.914-1.393-.335-.182-.842-.328-1.407-.328H2.347m-1.35 2.28h62.006c.167 0 .335.78.301 2.077v58.444c0 .161-.478.29-1.27.29h-20.7c-7.86 0-37.855-.002-40.256-.008-.234-.031-.384-.145-.384-.282V43.247c0-5.386.135-34.166.302-39.832v-.973" fill="url(#m)"/><path d="M.545.144C.323.144.144.665.144 1.507v61.38c0 .367.307.568.866.568.266.222.768.401 1.364.401H62.32c.72 0 1.134-.632 1.134-1.733.222-.289.401-.79.401-1.363V2.246c0-1.066-.97-1.701-2.599-1.701-.299-.222-.799-.401-1.363-.401H2.814m-1.658 2.43h61.687c.205 0 .37.739.37 1.95v58.352c0 .196-.471.354-1.233.354H37.236c-7.017 0-33.883-.003-36.03-.01-.253-.039-.418-.178-.418-.344V39.06c0-4.857.164-30.564.368-35.617v-.869" fill="url(#n)"/><path d="M.606.125c-.267 0-.481.51-.481 1.314v61.274c0 .44.266.68.75.68.23.268.724.482 1.315.482h59.843c.865 0 1.361-.547 1.361-1.5.267-.25.482-.744.482-1.315V2.648c0-1.28-.84-2.042-2.25-2.042-.26-.267-.752-.481-1.315-.481H3.33M1.331 2.722h61.336c.246 0 .463.692.443 1.806v58.25c0 .236-.463.426-1.19.426H32.706c-6.087 0-29.493-.004-31.363-.012-.272-.046-.455-.213-.455-.414V34.432c0-4.27.197-26.583.442-30.958v-.751" fill="url(#o)"/><path d="M.673.103c-.316 0-.57.5-.57 1.261v61.157c0 .52.221.806.623.806.191.316.677.57 1.262.57h59.728c1.023 0 1.61-.455 1.61-1.246.316-.208.57-.693.57-1.261V3.089c0-1.515-.697-2.417-1.868-2.417-.215-.315-.7-.569-1.26-.569H3.893m-2.37 2.78h60.95c.29 0 .54.642.524 1.65v58.138c0 .28-.454.504-1.144.504H27.74c-5.067 0-24.681-.005-26.246-.015-.294-.054-.496-.252-.496-.489v-33.31c0-3.63.233-22.22.523-25.853v-.624" fill="url(#p)"/><path d="M.746.08C.377.08.08.568.08 1.283v61.03c0 .608.172.942.485.942.148.368.625.665 1.203.665h59.604c1.196 0 1.882-.353 1.882-.968.369-.162.665-.639.665-1.203V3.569c0-1.77-.541-2.823-1.452-2.823-.167-.368-.643-.665-1.203-.665H4.51m-2.776 2.98h60.532c.339 0 .624.586.612 1.48v58.015c0 .327-.444.589-1.095.589H22.338a10357 10357 0 0 1-20.676-.017c-.318-.064-.54-.295-.54-.572V23.841c0-2.93.272-17.47.611-20.295v-.485" fill="url(#q)"/><path d="M.824.056C.398.056.056.53.056 1.196v60.892c0 .702.118 1.088.334 1.088.102.426.57.768 1.14.768H61c1.382 0 2.176-.243 2.176-.668.426-.112.769-.579.769-1.14V4.088c0-2.046-.374-3.264-1.003-3.264-.115-.426-.582-.768-1.14-.768H5.176M1.961 3.25H62.04c.392 0 .716.527.708 1.295v57.886c0 .377-.434.68-1.041.68H16.494c-2.755 0-12.78-.006-13.652-.02-.344-.073-1.589-.34-1.589-.66v-44.56c0-2.176.315-12.335.707-14.285v-.335" fill="url(#r)"/><path d="M.91.029C.42.029.028.489.028 1.1v60.744c0 .804.061 1.246.173 1.246.053.488.51.88 1.072.88H60.6c1.583 0 2.492-.125 2.492-.345.488-.058.88-.515.88-1.073V4.646c0-2.343-.193-3.737-.518-3.737-.06-.488-.517-.88-1.073-.88H5.892M2.205 3.456h59.591c.449 0 .816.463.81 1.097v57.742c0 .432-.422.78-.983.78h-51.42c-1.461 0-6.682-.009-7.168-.024-.371-.084-1.64-.39-1.64-.756V11.443c0-1.361.36-6.806.81-7.814v-.173" fill="url(#s)"/><path d="M1 0C.446 0 0 .446 0 1v62c0 .554.446 1 1 1h62c.554 0 1-.446 1-1V1c0-.554-.446-1-1-1zm1.466 3.676h59.068c.51 0 .92.394.92.885v57.59c0 .49-.41.885-.92.885H2.466c-.51 0-.92-.394-.92-.884V4.56c0-.49.41-.885.92-.885z" fill="url(#t)"/><path d="M.24.24v63.52h63.52V.24zm.04 1.598h63.44V63.36H.28z" fill="url(#u)"/><path d="M.24 1.279v62.48h63.52V1.28zm.04 1.278h63.44V63.36H.28z" fill="url(#v)"/></g><path d="M32 14.413A14.587 14.587 0 0 0 17.413 29 14.587 14.587 0 0 0 32 43.587 14.587 14.587 0 0 0 46.587 29 14.587 14.587 0 0 0 32 14.413zm.174.971c3 .074 5.986 1.104 8.342 2.973 1.065.685 1.917 1.75 2.06 3.044 1.02.446-1.192.588-.045.966-.774.313-.418 1.195-.061 1.8.802 1.028-.034-.91.837-.927.115-.596-.418-1.383-.184-2.142 1.728 2.318 2.529 5.219 2.555 8.086.115 1.056-1.007 3.006-1.952 1.51-.86-1.186-.402-2.646-.821-3.945-.416-.457.296-2.599-.351-1.193-1.406.582-.526-1.87-1.424-1.812-.28-.981-.903-1.766-1.243-2.739.078-.746-1.49-2.375-1.46-.987.528.183 1.516.897.464 1.217-.804-.412-1.514-1.227-2.394-1.703-.817-.503 1.443-.866.24-.928-1.02-.547-1.744-1.84-3.07-1.317-1.108.163-2.15.36-3.145-.164-1.242.115-2.009 1.042-3.047 1.58-.26.305-1.27 1.945-1.643 1.275-.04-.305-.956-.735-.182-1.265.209-.719 1.985-1.74.796-2.217 1.815-.73 3.769-1.133 5.728-1.112zm1.074 5.033c.682.01 1.318.317 1.887.668 1.541.493.48 1.91.576 2.95 1.392.622-.762 1.292-1.117.273-.301-1.09-1.091-1.694-1.91-2.303-.46-1.04-.577.442-1.083.084-.956-1.467.836-1.178 1.647-1.672zm-6.35.159a2.17 2.17 0 0 1 .212.002c.454.87.8 1.932 1.787 2.341.808.71.298-.28.06-.652.347-1.019 1.179.633 1.39 1.166-.02-.57.7-.676.542-.002 1.15-.134.583.906-.011 1.241-1.452 1.011.204 1.702.761 2.472.653.514.425-1.292.363-1.781.553-.7 1.991.593 2.74.982 1.069.956-.62 1.358-1.09 1.834.658-.461.798.137 1.321.155.019.952-1.746.616-1.81 1.79-.039 1.225-1.622 1.597-1.452 2.738.298 1.397-.51-.042-1.09-.149-1.007-.035-2.76-.314-2.583 1.243.09 1.553 1.52.196 2.065.857-.645.984 1.057.577 1.108 1.607.136 1.748 1.707.159 2.599.28 1.422-.208 3.145.02 4.516.368.844 1.102 2.187-.092 3.11.286-.49 1.102-.8 2.33-1.992 2.893-1.612 1.138-3.526 1.714-5.41 2.191-.321-.829-1.006-1.793-2.065-2.306-1.366-.894.568-1.457.335-2.485-.655-.36-1.733-.102-2.126-1.075-.762-1.203-2.41-.965-3.357-1.975-.998-.487-.834-1.792-1.33-2.678-.143-.963-.528-.39-.275.231.576 1.07-.511-.12-.498-.67-.538-1.421-.618-3.134.282-4.424.496-1.216.44-2.639.76-3.883-.066-.677-1.884-1.182-1.418-1.295.693-.465 1.506-1.26 2.555-1.302zm12.184 1.112c.302.514.929.306 1.278.731.664.694-.243.713-.662.393.8 1.398-1.166-.352-.616-1.124zm-1.849.193c.295.035.351.395.232.617-.5 1.452-1.488-.725-.232-.617zm-5.943.72c.6.047 1.083.438 1.489.848 1.426.506.672 2.229-.57 1.265 1.066-1.147-1.599-1.127-.919-2.112zm3.969 4.483c.165.178.36.325.547.479 1.127.923-1.233.347-.547-.479zm-4.096 7.206c.167.034 2.695.498 1.466.75-.215-.397-1.689-.341-1.466-.75zm2.739.544c.217-.018.206.282.379.343.018.61-1.74-.392-.379-.343z" fill="url(#w)" style="-inkscape-stroke:none;font-variation-settings:normal"/><circle transform="translate(0 -3)" cx="32" cy="32" r="17.165" fill="none" stroke="url(#x)" stroke-linecap="round" stroke-linejoin="round" stroke-width="2"/></svg>