<?xml version="1.0" encoding="UTF-8"?>
<!-- Created with Inkscape (http://www.inkscape.org/) -->
<svg width="64" height="64" version="1.1" xmlns="http://www.w3.org/2000/svg" xmlns:cc="http://creativecommons.org/ns#" xmlns:dc="http://purl.org/dc/elements/1.1/" xmlns:rdf="http://www.w3.org/1999/02/22-rdf-syntax-ns#">
	<defs>
		<radialGradient id="c" cx="18.161" cy="21.075" r="32" gradientTransform="matrix(1.8449,0,0,1.8449,-10.998,-11.484)" gradientUnits="userSpaceOnUse">
			<stop stop-color="#294c79" offset="0"/>
			<stop stop-color="#27456a" offset="1"/>
		</radialGradient>
		<radialGradient id="b" cx="43.08" cy="51.852" r="26" gradientTransform="matrix(0 -1.8462 1.8758 0 -65.263 134.53)" gradientUnits="userSpaceOnUse">
			<stop stop-color="#fdff4d" stop-opacity=".41961" offset="0"/>
			<stop stop-color="#57ff1b" stop-opacity=".15686" offset=".49206"/>
			<stop stop-color="#ef81b4" stop-opacity=".0047506" offset="1"/>
		</radialGradient>
	</defs>
	<metadata>
		<rdf:RDF>
			<cc:Work rdf:about="">
				<dc:format>image/svg+xml</dc:format>
				<dc:type rdf:resource="http://purl.org/dc/dcmitype/StillImage"/>
				<dc:title/>
			</cc:Work>
		</rdf:RDF>
	</metadata>
	<g id="a">
		<path d="m0 1 2-1h60l2 1v59s-16 4-32 4-32-4-32-4z" color="#000000" fill="url(#c)"/>
		<path d="m0 1 2-1h60l2 1v1h-64z" color="#000000" fill="#9bb4d3"/>
		<path d="m64 4-2-2 2-1z" fill="#607794"/>
		<path d="m0 4 2-2-2-1z" fill="#c8d9ee"/>
		<path d="m6 8h52v47h-52z" color="#000000" fill="#1d8ee8"/>
		<path d="m6 8h52v47h-52z" color="#000000" fill="url(#b)"/>
		<path d="m29.508 57.008v1.0678h1.0678v-1.0678zm3.5593 0v1.4237h1.4237v-1.4237zm-1.7797 0.35593v1.0678h1.4237v-1.0678zm-1.4237 1.4237v1.4237h1.0678v-1.4237zm1.4237 0v1.4237h1.4237v-1.4237zm1.7797 0v1.4237h1.0678v-1.4237zm-3.5593 1.7797v1.4237h1.4237v-1.4237zm1.7797 0v1.0678h1.4237v-1.0678zm2.1356 0.35593v1.0678h1.0678v-1.0678z" color="#000000" fill="#edeff3" fill-opacity=".23183"/>
	</g>
	<g transform="matrix(-1,0,0,1,64,-2)" color="#000000" fill="#e3ecf0">
		<rect x="9" y="13" width="5" height="1" color="#000000"/>
		<rect x="9" y="21" width="5" height="1" color="#000000"/>
		<rect x="9" y="29" width="5" height="1" color="#000000"/>
		<rect x="9" y="37" width="5" height="1" color="#000000"/>
		<rect x="9" y="45" width="5" height="1" color="#000000"/>
		<rect x="9" y="17" width="5" height="1" color="#000000"/>
		<rect x="9" y="25" width="5" height="1" color="#000000"/>
		<rect x="9" y="33" width="5" height="1" color="#000000"/>
		<rect x="9" y="41" width="5" height="1" color="#000000"/>
		<rect x="9" y="49" width="5" height="1" color="#000000"/>
	</g>
	<g transform="matrix(0,-1,-1,0,64,61)" color="#000000" fill="#e3ecf0">
		<rect x="9" y="13" width="5" height="1" color="#000000"/>
		<rect x="9" y="21" width="5" height="1" color="#000000"/>
		<rect x="9" y="29" width="5" height="1" color="#000000"/>
		<rect x="9" y="37" width="5" height="1" color="#000000"/>
		<rect x="9" y="45" width="5" height="1" color="#000000"/>
		<rect x="9" y="17" width="5" height="1" color="#000000"/>
		<rect x="9" y="25" width="5" height="1" color="#000000"/>
		<rect x="9" y="33" width="5" height="1" color="#000000"/>
		<rect x="9" y="41" width="5" height="1" color="#000000"/>
		<rect x="9" y="49" width="5" height="1" color="#000000"/>
		<rect x="9" y="53" width="5" height="1" color="#000000"/>
	</g>
</svg>
