<?xml version="1.0" encoding="UTF-8" standalone="no"?>
<!-- Created with Inkscape (http://www.inkscape.org/) -->

<svg
   xmlns:dc="http://purl.org/dc/elements/1.1/"
   xmlns:cc="http://creativecommons.org/ns#"
   xmlns:rdf="http://www.w3.org/1999/02/22-rdf-syntax-ns#"
   xmlns:svg="http://www.w3.org/2000/svg"
   xmlns="http://www.w3.org/2000/svg"
   xmlns:sodipodi="http://sodipodi.sourceforge.net/DTD/sodipodi-0.dtd"
   xmlns:inkscape="http://www.inkscape.org/namespaces/inkscape"
   width="64"
   height="64"
   id="svg13094"
   version="1.1"
   inkscape:version="0.92.2 5c3e80d, 2017-08-06"
   sodipodi:docname="ps1.svg">
  <sodipodi:namedview
     id="base"
     pagecolor="#ffffff"
     bordercolor="#666666"
     borderopacity="1.0"
     inkscape:pageopacity="0"
     inkscape:pageshadow="2"
     inkscape:zoom="8.0000004"
     inkscape:cx="-28.115933"
     inkscape:cy="31.071012"
     inkscape:document-units="px"
     inkscape:current-layer="g965"
     showgrid="true"
     inkscape:snap-bbox="true"
     inkscape:bbox-paths="true"
     inkscape:bbox-nodes="true"
     inkscape:snap-bbox-edge-midpoints="true"
     inkscape:snap-bbox-midpoints="true"
     inkscape:object-paths="true"
     inkscape:snap-intersection-paths="true"
     inkscape:object-nodes="true"
     inkscape:snap-smooth-nodes="true"
     inkscape:snap-midpoints="true"
     inkscape:snap-object-midpoints="true"
     inkscape:snap-center="true"
     showguides="false"
     inkscape:guide-bbox="true"
     inkscape:window-width="1920"
     inkscape:window-height="1025"
     inkscape:window-x="-2"
     inkscape:window-y="32"
     inkscape:window-maximized="1"
     inkscape:snap-global="false"
     fit-margin-top="0"
     fit-margin-left="0"
     fit-margin-right="0"
     fit-margin-bottom="0"
     showborder="true"
     inkscape:showpageshadow="false"
     inkscape:snap-page="true">
    <inkscape:grid
       type="xygrid"
       id="grid3075"
       empspacing="5"
       visible="true"
       enabled="true"
       snapvisiblegridlinesonly="true"
       originx="1.6362304e-08"
       originy="18"
       spacingx="1"
       spacingy="1" />
    <sodipodi:guide
       orientation="0,1"
       position="-11,30"
       id="guide9148"
       inkscape:locked="false" />
    <sodipodi:guide
       orientation="1,0"
       position="32,70"
       id="guide9150"
       inkscape:locked="false" />
  </sodipodi:namedview>
  <defs
     id="defs13096" />
  <metadata
     id="metadata13099">
    <rdf:RDF>
      <cc:Work
         rdf:about="">
        <dc:format>image/svg+xml</dc:format>
        <dc:type
           rdf:resource="http://purl.org/dc/dcmitype/StillImage" />
        <dc:title />
      </cc:Work>
    </rdf:RDF>
  </metadata>
  <path
     id="path6538"
     d="m 0,3 v 31 28 l 2,2 h 30 30 l 2,-2 V 34 3 H 32 Z"
     style="color:#000000;display:inline;overflow:visible;visibility:visible;fill:#8827b2;fill-opacity:1;fill-rule:nonzero;stroke:none;stroke-width:2.28571415;marker:none;enable-background:accumulate"
     inkscape:connector-curvature="0"
     sodipodi:nodetypes="ccccccccccc" />
  <path
     style="opacity:1;vector-effect:none;fill:#60008b;fill-opacity:0.40000001;fill-rule:nonzero;stroke:none;stroke-width:1.00000012;stroke-linecap:butt;stroke-linejoin:miter;stroke-miterlimit:4;stroke-dasharray:none;stroke-dashoffset:0;stroke-opacity:1;marker:none;paint-order:normal"
     d="M 52.414062 13.884766 L 49.054688 18.392578 C 49.054687 18.392578 30.317478 22.45795 29.433594 22.988281 C 28.792875 23.372713 21.126524 36.029653 16.878906 43.169922 L 13.611328 40.3125 L 7.4238281 52.775391 L 18.648438 64 L 32 64 L 62 64 L 64 62 L 64 34 L 64 25.470703 L 52.414062 13.884766 z "
     id="path1119" />
  <path
     inkscape:connector-curvature="0"
     style="color:#000000;fill:#cd44e9;fill-opacity:1;fill-rule:nonzero;stroke:none;marker:none;visibility:visible;display:inline;overflow:visible;enable-background:accumulate"
     d="M 2,0 0,1 0,4 19.5625,4 39.125,4 64,4 64,1 62,0 39.125,0 19.5625,0 2,0 z"
     id="path6688" />
  <g
     id="g3043"
     inkscape:export-filename="folder.png"
     inkscape:export-xdpi="90"
     inkscape:export-ydpi="90"
     transform="translate(-0.62500009,0.082283)" />
  <g
     id="scalable"
     transform="matrix(1.0385892,0,0,1.0385892,1214.7222,1878.8121)"
     inkscape:label="#g3701"
     style="fill:#ffffff" />
  <path
     d="M 64,6 62,4 64,3 z"
     id="path3028"
     style="fill:#a048bb;fill-opacity:0.9933551"
     inkscape:connector-curvature="0" />
  <path
     inkscape:connector-curvature="0"
     style="fill:#da75ed;fill-opacity:1;fill-rule:nonzero"
     d="M 0,3 0,6 2,4 z"
     id="path4298"
     sodipodi:nodetypes="cccc" />
  <g
     id="g953"
     transform="matrix(0.10333851,0,0,0.10333851,5.5453414,6.0452898)"
     style="stroke-width:9.6769352">
    <path
       id="path826"
       d="m 135.724,79.449 -1.737,-7.147 c -0.747,-3.075 -3.308,-5.675 -6.809,-6.603 -9.612,-2.548 -19.689,-3.905 -30.074,-3.905 -10.385,0 -20.463,1.357 -30.075,3.906 -3.501,0.928 -6.062,3.528 -6.809,6.603 l -1.737,7.146 z"
       style="fill:#656d92;stroke-width:9.6769352;fill-opacity:1"
       inkscape:connector-curvature="0" />
    <path
       id="path828"
       d="M 35.31,141.242 H 158.896 L 141.369,81.149 c -0.899,-3.082 -3.628,-5.591 -7.211,-6.406 -11.825,-2.688 -24.244,-4.122 -37.055,-4.122 -12.811,0 -25.23,1.434 -37.055,4.122 -3.583,0.814 -6.312,3.324 -7.211,6.406 z"
       style="fill:#a9b7d8;stroke-width:9.6769352;fill-opacity:1"
       inkscape:connector-curvature="0" />
    <path
       id="path830"
       d="m 453.517,79.449 -1.737,-7.147 c -0.747,-3.075 -3.308,-5.675 -6.809,-6.603 -9.612,-2.548 -19.689,-3.905 -30.074,-3.905 -10.385,0 -20.462,1.357 -30.074,3.906 -3.501,0.928 -6.062,3.528 -6.809,6.603 l -1.737,7.146 z"
       style="fill:#656d92;stroke-width:9.6769352;fill-opacity:1"
       inkscape:connector-curvature="0" />
    <g
       id="g836"
       style="stroke-width:9.6769352">
      <path
         id="path832"
         d="M 353.103,141.242 H 476.69 L 459.163,81.149 c -0.899,-3.082 -3.628,-5.591 -7.211,-6.406 -11.825,-2.688 -24.244,-4.122 -37.055,-4.122 -12.811,0 -25.23,1.434 -37.055,4.122 -3.583,0.814 -6.312,3.324 -7.211,6.406 z"
         style="fill:#a9b7d8;stroke-width:9.6769352;fill-opacity:1"
         inkscape:connector-curvature="0" />
      <path
         inkscape:connector-curvature="0"
         style="fill:#d7deed;stroke-width:9.6769352"
         d="M 370.759,114.759 H 141.241 L 8.7671143,194.207 0,395.652 c -1.3100516,30.10151 24.425,54.555 54.554,54.555 h 0.004 c 20.664,0 39.554,-11.674 48.796,-30.157 l 68.318,-136.636 c 2.99,-5.982 9.103,-9.76 15.791,-9.76 h 137.074 c 6.687,0 12.801,3.778 15.791,9.76 l 68.318,136.636 c 9.241,18.483 28.131,30.157 48.796,30.157 h 0.004 c 30.13,0 54.554,-24.425 54.554,-54.555 l -9.40861,-201.445 z"
         id="path1062"
         sodipodi:nodetypes="cccsssccssccssscc" />
      <path
         style="fill:#e6eaf3;fill-opacity:1;stroke-width:1.00000012"
         d="M 21.171875,17.404297 20.625,20.8125 43,20.125 42.777344,17.404297 Z"
         transform="matrix(9.6769346,0,0,9.6769346,-53.661906,-53.661407)"
         id="path834"
         inkscape:connector-curvature="0" />
      <g
         style="overflow:visible;stroke-width:94.6809082"
         id="g1117"
         transform="matrix(0.17996859,0,0,0.17996859,216.80339,386.51959)">
        <g
           transform="translate(-61.68556,-312.8684)"
           id="g3"
           style="stroke-width:94.6809082" />
      </g>
    </g>
    <g
       id="g848"
       style="stroke-width:9.6769352">
      <path
         id="path844"
         d="m 158.897,167.725 h -35.31 v -35.31 c 0,-4.875 -3.953,-8.828 -8.828,-8.828 h -35.31 c -4.875,0 -8.828,3.953 -8.828,8.828 v 35.31 H 35.31 c -4.875,0 -8.828,3.953 -8.828,8.828 v 35.31 c 0,4.875 3.953,8.828 8.828,8.828 h 35.31 v 35.31 c 0,4.875 3.953,8.828 8.828,8.828 h 35.31 c 4.875,0 8.828,-3.953 8.828,-8.828 v -35.31 h 35.31 c 4.875,0 8.828,-3.953 8.828,-8.828 v -35.31 c 0,-4.876 -3.952,-8.828 -8.827,-8.828 z"
         style="fill:#d7deed;stroke-width:9.6769352"
         inkscape:connector-curvature="0" />
      <path
         id="path846"
         d="m 476.69,167.725 h -35.31 v -35.31 c 0,-4.875 -3.953,-8.828 -8.828,-8.828 h -35.31 c -4.875,0 -8.828,3.953 -8.828,8.828 v 35.31 h -35.31 c -4.875,0 -8.828,3.953 -8.828,8.828 v 35.31 c 0,4.875 3.953,8.828 8.828,8.828 h 35.31 v 35.31 c 0,4.875 3.953,8.828 8.828,8.828 h 35.31 c 4.875,0 8.828,-3.953 8.828,-8.828 v -35.31 h 35.31 c 4.875,0 8.828,-3.953 8.828,-8.828 v -35.31 c -10e-4,-4.876 -3.953,-8.828 -8.828,-8.828 z"
         style="fill:#d7deed;stroke-width:9.6769352"
         inkscape:connector-curvature="0" />
    </g>
    <g
       id="g876"
       style="stroke-width:9.6769352" />
    <g
       id="g878"
       style="stroke-width:9.6769352" />
    <g
       id="g880"
       style="stroke-width:9.6769352" />
    <g
       id="g882"
       style="stroke-width:9.6769352" />
    <g
       id="g884"
       style="stroke-width:9.6769352" />
    <g
       id="g886"
       style="stroke-width:9.6769352" />
    <g
       id="g888"
       style="stroke-width:9.6769352" />
    <g
       id="g890"
       style="stroke-width:9.6769352" />
    <g
       id="g892"
       style="stroke-width:9.6769352" />
    <g
       id="g894"
       style="stroke-width:9.6769352" />
    <g
       id="g896"
       style="stroke-width:9.6769352" />
    <g
       id="g898"
       style="stroke-width:9.6769352" />
    <g
       id="g900"
       style="stroke-width:9.6769352" />
    <g
       id="g902"
       style="stroke-width:9.6769352" />
    <g
       id="g904"
       style="stroke-width:9.6769352" />
  </g>
  <g
     style="stroke-width:9.6769352"
     transform="matrix(0.10333851,0,0,0.10333851,5.5453414,7.5452898)"
     id="g1035">
    <path
       inkscape:connector-curvature="0"
       style="fill:#656d92;stroke-width:9.6769352;fill-opacity:1"
       d="m 135.724,79.449 -1.737,-7.147 c -0.747,-3.075 -3.308,-5.675 -6.809,-6.603 -9.612,-2.548 -19.689,-3.905 -30.074,-3.905 -10.385,0 -20.463,1.357 -30.075,3.906 -3.501,0.928 -6.062,3.528 -6.809,6.603 l -1.737,7.146 z"
       id="path955" />
    <path
       inkscape:connector-curvature="0"
       style="fill:#d7deed;stroke-width:9.6769352"
       d="M 35.31,141.242 H 158.896 L 141.369,81.149 c -0.899,-3.082 -3.628,-5.591 -7.211,-6.406 -11.825,-2.688 -24.244,-4.122 -37.055,-4.122 -12.811,0 -25.23,1.434 -37.055,4.122 -3.583,0.814 -6.312,3.324 -7.211,6.406 z"
       id="path957" />
    <path
       inkscape:connector-curvature="0"
       style="fill:#656d92;stroke-width:9.6769352;fill-opacity:1"
       d="m 453.517,79.449 -1.737,-7.147 c -0.747,-3.075 -3.308,-5.675 -6.809,-6.603 -9.612,-2.548 -19.689,-3.905 -30.074,-3.905 -10.385,0 -20.462,1.357 -30.074,3.906 -3.501,0.928 -6.062,3.528 -6.809,6.603 l -1.737,7.146 z"
       id="path959" />
    <g
       style="stroke-width:9.6769352"
       id="g965">
      <path
         inkscape:connector-curvature="0"
         style="fill:#d7deed;stroke-width:9.6769352"
         d="M 353.103,141.242 H 476.69 L 459.163,81.149 c -0.899,-3.082 -3.628,-5.591 -7.211,-6.406 -11.825,-2.688 -24.244,-4.122 -37.055,-4.122 -12.811,0 -25.23,1.434 -37.055,4.122 -3.583,0.814 -6.312,3.324 -7.211,6.406 z"
         id="path961" />
      <path
         inkscape:connector-curvature="0"
         style="fill:#a9b7d8;stroke-width:9.6769352;fill-opacity:1"
         d="M 370.759,114.759 H 141.241 L 0,194.207 v 201.445 c 0,30.13 24.425,54.555 54.554,54.555 h 0.004 c 20.664,0 39.554,-11.674 48.796,-30.157 l 68.318,-136.636 c 2.99,-5.982 9.103,-9.76 15.791,-9.76 h 137.074 c 6.687,0 12.801,3.778 15.791,9.76 l 68.318,136.636 c 9.241,18.483 28.131,30.157 48.796,30.157 h 0.004 c 30.13,0 54.554,-24.425 54.554,-54.555 V 194.207 Z"
         id="path963" />
      <path
         inkscape:connector-curvature="0"
         style="fill:#cbd3e7;stroke-width:9.67693615;fill-opacity:1"
         d="M 141.2376,114.75884 -0.00405947,194.21554 50.799845,266.28225 174.31307,279.58803 c 3.30205,-3.70723 8.04592,-5.93468 13.15458,-5.93468 h 137.0647 c 5.10791,0 9.8523,2.22745 13.15459,5.93468 l 120.31907,-15.72502 c 5.31645,-0.69483 6.58196,-5.29875 9.67693,-9.67694 l 42.9414,-60.74544 -139.86194,-78.68179 z"
         id="path963-3"
         sodipodi:nodetypes="ccccsscssccc" />
    </g>
    <g
       style="stroke-width:9.6769352;fill:#d7deee;fill-opacity:1"
       id="g971">
      <circle
         style="fill:#d7deee;stroke-width:9.6769352;fill-opacity:1"
         cx="97.102997"
         cy="194.207"
         r="97.102997"
         id="circle967" />
      <circle
         style="fill:#d7deee;stroke-width:9.6769352;fill-opacity:1"
         cx="414.897"
         cy="194.207"
         r="97.102997"
         id="circle969" />
    </g>
    <g
       style="stroke-width:9.6769352"
       id="g977">
      <path
         inkscape:connector-curvature="0"
         style="fill:#00378e;stroke-width:9.6769352;fill-opacity:0.11690141"
         d="m 158.897,167.725 h -35.31 v -35.31 c 0,-4.875 -3.953,-8.828 -8.828,-8.828 h -35.31 c -4.875,0 -8.828,3.953 -8.828,8.828 v 35.31 H 35.31 c -4.875,0 -8.828,3.953 -8.828,8.828 v 35.31 c 0,4.875 3.953,8.828 8.828,8.828 h 35.31 v 35.31 c 0,4.875 3.953,8.828 8.828,8.828 h 35.31 c 4.875,0 8.828,-3.953 8.828,-8.828 v -35.31 h 35.31 c 4.875,0 8.828,-3.953 8.828,-8.828 v -35.31 c 0,-4.876 -3.952,-8.828 -8.827,-8.828 z"
         id="path973" />
      <path
         inkscape:connector-curvature="0"
         style="fill:#00378e;stroke-width:9.6769352;fill-opacity:0.11690141"
         d="m 476.69,167.725 h -35.31 v -35.31 c 0,-4.875 -3.953,-8.828 -8.828,-8.828 h -35.31 c -4.875,0 -8.828,3.953 -8.828,8.828 v 35.31 h -35.31 c -4.875,0 -8.828,3.953 -8.828,8.828 v 35.31 c 0,4.875 3.953,8.828 8.828,8.828 h 35.31 v 35.31 c 0,4.875 3.953,8.828 8.828,8.828 h 35.31 c 4.875,0 8.828,-3.953 8.828,-8.828 v -35.31 h 35.31 c 4.875,0 8.828,-3.953 8.828,-8.828 v -35.31 c -10e-4,-4.876 -3.953,-8.828 -8.828,-8.828 z"
         id="path975" />
    </g>
    <g
       style="stroke-width:9.6769352"
       id="g987">
      <path
         inkscape:connector-curvature="0"
         style="fill:#545b7a;stroke-width:9.67693515;font-variant-east_asian:normal;opacity:1;vector-effect:none;fill-opacity:1;stroke-linecap:butt;stroke-linejoin:miter;stroke-miterlimit:4;stroke-dasharray:none;stroke-dashoffset:0;stroke-opacity:1"
         d="M 76.641,207.449 H 59.094 c -3.384,0 -6.129,-2.744 -6.129,-6.129 v -14.226 c 0,-3.384 2.744,-6.129 6.129,-6.129 h 17.548 c 1.782,0 3.476,0.776 4.64,2.125 l 7.103,8.233 c 1.429,1.656 1.429,4.11 0,5.767 l -7.103,8.233 c -1.164,1.35 -2.859,2.126 -4.641,2.126 z"
         id="path979" />
      <path
         inkscape:connector-curvature="0"
         style="fill:#545b7a;stroke-width:9.67693515;font-variant-east_asian:normal;opacity:1;vector-effect:none;fill-opacity:1;stroke-linecap:butt;stroke-linejoin:miter;stroke-miterlimit:4;stroke-dasharray:none;stroke-dashoffset:0;stroke-opacity:1"
         d="m 120.162,180.966 h 17.548 c 3.384,0 6.129,2.744 6.129,6.129 v 14.226 c 0,3.384 -2.744,6.129 -6.129,6.129 h -17.548 c -1.782,0 -3.476,-0.776 -4.64,-2.125 l -7.103,-8.233 c -1.429,-1.656 -1.429,-4.11 0,-5.767 l 7.103,-8.233 c 1.163,-1.35 2.857,-2.126 4.64,-2.126 z"
         id="path981" />
      <path
         inkscape:connector-curvature="0"
         style="fill:#545b7a;stroke-width:9.67693515;font-variant-east_asian:normal;opacity:1;vector-effect:none;fill-opacity:1;stroke-linecap:butt;stroke-linejoin:miter;stroke-miterlimit:4;stroke-dasharray:none;stroke-dashoffset:0;stroke-opacity:1"
         d="m 111.642,215.967 v 17.547 c 0,3.384 -2.744,6.129 -6.129,6.129 H 91.288 c -3.384,0 -6.129,-2.744 -6.129,-6.129 v -17.547 c 0,-1.782 0.776,-3.476 2.125,-4.64 l 8.233,-7.103 c 1.656,-1.429 4.11,-1.429 5.767,0 l 8.233,7.103 c 1.35,1.165 2.125,2.858 2.125,4.64 z"
         id="path983" />
      <path
         inkscape:connector-curvature="0"
         style="fill:#545b7a;stroke-width:9.67693515;font-variant-east_asian:normal;opacity:1;vector-effect:none;fill-opacity:1;stroke-linecap:butt;stroke-linejoin:miter;stroke-miterlimit:4;stroke-dasharray:none;stroke-dashoffset:0;stroke-opacity:1"
         d="M 85.16,172.447 V 154.9 c 0,-3.384 2.744,-6.129 6.129,-6.129 h 14.226 c 3.384,0 6.129,2.744 6.129,6.129 v 17.547 c 0,1.782 -0.776,3.476 -2.125,4.64 l -8.233,7.103 c -1.656,1.429 -4.11,1.429 -5.767,0 l -8.233,-7.103 c -1.349,-1.164 -2.126,-2.857 -2.126,-4.64 z"
         id="path985" />
    </g>
    <circle
       style="fill:#f05b90;stroke-width:9.6769352;fill-opacity:1"
       cx="370.759"
       cy="194.207"
       r="17.655001"
       id="circle989" />
    <circle
       style="fill:#00103a;stroke-width:9.6769352;fill-opacity:0.11690141"
       cx="256"
       cy="185.38"
       r="26.483"
       id="circle991" />
    <circle
       style="fill:#ee4c4c;stroke-width:9.6769352;fill-opacity:1"
       cx="459.034"
       cy="194.207"
       r="17.655001"
       id="circle993" />
    <circle
       style="fill:#3e93ff;stroke-width:9.6769352;fill-opacity:1"
       cx="414.897"
       cy="238.345"
       r="17.655001"
       id="circle995" />
    <circle
       style="fill:#0fad9f;stroke-width:9.6769352;fill-opacity:1"
       cx="414.897"
       cy="150.07001"
       r="17.655001"
       id="circle997" />
    <g
       style="stroke-width:9.6769352"
       id="g1003">
      <path
         inkscape:connector-curvature="0"
         style="fill:#545b7a;stroke-width:9.67693515;font-variant-east_asian:normal;opacity:1;vector-effect:none;fill-opacity:1;stroke-linecap:butt;stroke-linejoin:miter;stroke-miterlimit:4;stroke-dasharray:none;stroke-dashoffset:0;stroke-opacity:1"
         d="m 229.517,247.173 h -17.655 c -4.875,0 -8.828,-3.953 -8.828,-8.828 v 0 c 0,-4.875 3.953,-8.828 8.828,-8.828 h 17.655 c 4.875,0 8.828,3.953 8.828,8.828 v 0 c 0,4.875 -3.953,8.828 -8.828,8.828 z"
         id="path999" />
      <path
         inkscape:connector-curvature="0"
         style="fill:#545b7a;stroke-width:9.67693515;font-variant-east_asian:normal;opacity:1;vector-effect:none;fill-opacity:1;stroke-linecap:butt;stroke-linejoin:miter;stroke-miterlimit:4;stroke-dasharray:none;stroke-dashoffset:0;stroke-opacity:1"
         d="m 307.054,241.03 -27.915,6.978 c -2.786,0.696 -5.484,-1.41 -5.484,-4.282 v -10.763 c 0,-2.871 2.699,-4.979 5.484,-4.282 l 27.915,6.978 c 2.795,0.7 2.795,4.673 0,5.371 z"
         id="path1001" />
    </g>
    <g
       style="stroke-width:9.6769352"
       id="g1005" />
    <g
       style="stroke-width:9.6769352"
       id="g1007" />
    <g
       style="stroke-width:9.6769352"
       id="g1009" />
    <g
       style="stroke-width:9.6769352"
       id="g1011" />
    <g
       style="stroke-width:9.6769352"
       id="g1013" />
    <g
       style="stroke-width:9.6769352"
       id="g1015" />
    <g
       style="stroke-width:9.6769352"
       id="g1017" />
    <g
       style="stroke-width:9.6769352"
       id="g1019" />
    <g
       style="stroke-width:9.6769352"
       id="g1021" />
    <g
       style="stroke-width:9.6769352"
       id="g1023" />
    <g
       style="stroke-width:9.6769352"
       id="g1025" />
    <g
       style="stroke-width:9.6769352"
       id="g1027" />
    <g
       style="stroke-width:9.6769352"
       id="g1029" />
    <g
       style="stroke-width:9.6769352"
       id="g1031" />
    <g
       style="stroke-width:9.6769352"
       id="g1033" />
  </g>
</svg>
