<?xml version="1.0" encoding="UTF-8"?>
<!-- Created with Inkscape (http://www.inkscape.org/) -->
<svg width="64" height="64" version="1.1" xmlns="http://www.w3.org/2000/svg" xmlns:cc="http://creativecommons.org/ns#" xmlns:dc="http://purl.org/dc/elements/1.1/" xmlns:rdf="http://www.w3.org/1999/02/22-rdf-syntax-ns#" xmlns:xlink="http://www.w3.org/1999/xlink">
	<defs>
		<radialGradient id="a" cx="38.159" cy="30.47" r="32" gradientTransform="matrix(.71812 .71812 -1.3322 1.3322 50.387 -32.087)" gradientUnits="userSpaceOnUse">
			<stop stop-color="#4f7cff" offset="0"/>
			<stop stop-color="#5d87f2" stop-opacity="0" offset="1"/>
		</radialGradient>
	</defs>
	<metadata>
		<rdf:RDF>
			<cc:Work rdf:about="">
				<dc:format>image/svg+xml</dc:format>
				<dc:type rdf:resource="http://purl.org/dc/dcmitype/StillImage"/>
				<dc:title/>
			</cc:Work>
		</rdf:RDF>
	</metadata>
	<path d="m2 0-2 1v1 31 29l2 2h30 30l2-2v-28-32-1l-2-1h-30z" color="#000000" fill="#1886df"/>
	<path d="m0 2v31 29l2 2h30 30l2-2v-28-32h-32z" color="#000000" fill="#0bb4da"/>
	<path d="m0 2v31 29l2 2h30 30l2-2v-28-32h-32z" color="#000000" fill="url(#a)"/>
	<path d="m2 0-2 1v1h32 32v-1l-2-1h-30z" color="#000000" fill="#71ffe5"/>
	<path d="m0 1v3l2-2z" fill="#96ffec"/>
	<path d="m64 4-2-2 2-1z" fill="#40c0d2"/>
	<path d="m27 23v3.0938c-1.4176-1.9118-3.4129-2.875-6-2.875-2.5159 2e-5 -4.4642 0.88103-5.875 2.6562-1.4108 1.7753-2.125 4.2437-2.125 7.4062-2e-6 3.139 0.69472 5.592 2.0938 7.3438 1.399 1.7517 3.3514 2.625 5.8438 2.625 2.6986 0 4.7105-0.96759 6.0625-2.9062v10.656h-3l4.5 5 4.5-5h-3v-28zm-5.6562 2.6875c1.9868 1.7e-5 3.4267 0.59385 4.3438 1.7812 0.68775 0.89057 1.1406 2.1939 1.3125 3.9375v3.4062c-0.14274 2.0137-0.56195 3.522-1.3438 4.4375-0.89351 1.0463-2.3297 1.5625-4.2812 1.5625-1.7635 2e-6 -3.0948-0.63654-4-1.9062-0.8935-1.2815-1.3438-3.1289-1.3438-5.5625-6e-6 -2.4336 0.46974-4.3277 1.375-5.6562 0.917-1.3402 2.221-2 3.9375-2z" fill="#2ff6ea"/>
	<path d="m37 43v-3.0938c1.4176 1.9118 3.4129 2.875 6 2.875 2.5159-2e-5 4.4642-0.88103 5.875-2.6562 1.4108-1.7753 2.125-4.2437 2.125-7.4062 2e-6 -3.139-0.69472-5.592-2.0938-7.3438-1.399-1.7517-3.3514-2.625-5.8438-2.625-2.6986 0-4.7105 0.96759-6.0625 2.9062v-10.656h3l-4.5-5-4.5 5h3v28zm5.6562-2.6875c-1.9868-1.7e-5 -3.4267-0.59385-4.3438-1.7812-0.68775-0.89057-1.1406-2.1939-1.3125-3.9375v-3.4062c0.14274-2.0137 0.56195-3.522 1.3438-4.4375 0.89351-1.0463 2.3297-1.5625 4.2812-1.5625 1.7635-2e-6 3.0948 0.63654 4 1.9062 0.8935 1.2815 1.3438 3.1289 1.3438 5.5625 6e-6 2.4336-0.46974 4.3277-1.375 5.6562-0.917 1.3402-2.221 2-3.9375 2z" fill="#e9eeef"/>
</svg>
