<?xml version="1.0" encoding="UTF-8"?>
<!-- Created with Inkscape (http://www.inkscape.org/) -->
<svg width="64" height="64" version="1.1" xmlns="http://www.w3.org/2000/svg" xmlns:cc="http://creativecommons.org/ns#" xmlns:dc="http://purl.org/dc/elements/1.1/" xmlns:rdf="http://www.w3.org/1999/02/22-rdf-syntax-ns#" xmlns:xlink="http://www.w3.org/1999/xlink">
	<defs>
		<linearGradient id="a">
			<stop stop-color="#757533" offset="0"/>
			<stop stop-color="#505032" offset=".58811"/>
			<stop stop-color="#343420" offset="1"/>
		</linearGradient>
		<radialGradient id="m" cx="23.168" cy="13.886" r="8.9742" fx="19.858" fy="10.239" gradientTransform="matrix(1.2299 -1.9344e-8 1.6289e-8 1.0357 -5.8088 -1.3274)" gradientUnits="userSpaceOnUse">
			<stop stop-color="#ffffff" stop-opacity=".78328" offset="0"/>
			<stop stop-color="#ffdeea" stop-opacity="0" offset="1"/>
		</radialGradient>
		<radialGradient id="l" cx="32" cy="27.862" r="32" gradientTransform="matrix(1.3411 0 0 1.3201 -10.914 -10.404)" gradientUnits="userSpaceOnUse">
			<stop stop-color="#8b5367" offset="0"/>
			<stop stop-color="#403d5f" offset=".50295"/>
			<stop stop-color="#40296c" offset="1"/>
		</radialGradient>
		<radialGradient id="k" cx="24" cy="18" r="13.528" gradientTransform="matrix(1 0 0 1.1462 0 -2.6324)" gradientUnits="userSpaceOnUse">
			<stop stop-color="#000000" stop-opacity="0" offset="0"/>
			<stop stop-color="#000000" stop-opacity="0" offset=".3394"/>
			<stop stop-color="#a60900" stop-opacity="0" offset=".6088"/>
			<stop stop-color="#f95b79" offset="1"/>
		</radialGradient>
		<radialGradient id="j" cx="23.933" cy="20.516" r="13.528" gradientTransform="matrix(1.0692 .0038995 -.004958 1.3594 -1.5544 -7.0995)" gradientUnits="userSpaceOnUse">
			<stop stop-color="#fffefe" offset="0"/>
			<stop stop-color="#ff3f81" stop-opacity=".75851" offset=".46421"/>
			<stop stop-color="#ff1e0f" stop-opacity=".035604" offset="1"/>
		</radialGradient>
		<linearGradient id="n" x1="29.549" x2="29.549" y1="39.687" y2="33.953" gradientTransform="matrix(1.0689 0 0 1.0689 -9.6114 -11.676)" gradientUnits="userSpaceOnUse">
			<stop stop-color="#ff3b65" offset="0"/>
			<stop stop-color="#ffeede" offset="1"/>
		</linearGradient>
		<radialGradient id="i" cx="25.273" cy="28.247" r="6.1466" gradientTransform="matrix(.94279 -.23613 .077265 .3159 -2.8683 29.146)" gradientUnits="userSpaceOnUse" xlink:href="#a"/>
		<radialGradient id="h" cx="23.151" cy="32.95" r="6.1687" fx="21.841" fy="30.564" gradientTransform="matrix(.75874 -.098698 .041758 .32875 4.8026 26.318)" gradientUnits="userSpaceOnUse" xlink:href="#a"/>
		<radialGradient id="g" cx="22.277" cy="40.792" r="6.1687" fx="20.968" fy="38.405" gradientTransform="matrix(.75874 -.098698 .041758 .32875 5.1296 26.318)" gradientUnits="userSpaceOnUse" xlink:href="#a"/>
		<radialGradient id="f" cx="22.351" cy="42.136" r="6.1687" fx="21.041" fy="39.749" gradientTransform="matrix(.75134 -.22892 .083704 .37669 3.1526 26.882)" gradientUnits="userSpaceOnUse" xlink:href="#a"/>
		<radialGradient id="e" cx="29.005" cy="40.981" r="4.946" gradientTransform="matrix(0 3.2305 -1.7673 0 104.07 -58.755)" gradientUnits="userSpaceOnUse">
			<stop stop-color="#ff0953" stop-opacity=".70511" offset="0"/>
			<stop stop-color="#ff0953" stop-opacity=".16099" offset="1"/>
		</radialGradient>
		<radialGradient id="d" cx="24.171" cy="40.373" r="3.3298" gradientTransform="matrix(1.6694 0 0 1.1125 -16.181 -4.258)" gradientUnits="userSpaceOnUse">
			<stop stop-color="#3f1f1b" offset="0"/>
			<stop stop-color="#763b32" offset="1"/>
		</radialGradient>
		<radialGradient id="c" cx="39.269" cy="37.047" r="10.165" gradientTransform="matrix(4.9383 0 0 4.9383 -162.42 -155.59)" gradientUnits="userSpaceOnUse">
			<stop stop-color="#f9006a" stop-opacity=".63922" offset="0"/>
			<stop stop-color="#fa005c" stop-opacity=".66873" offset=".25285"/>
			<stop stop-color="#fa0058" stop-opacity=".46207" offset=".34625"/>
			<stop stop-color="#fa0056" stop-opacity=".39009" offset=".39339"/>
			<stop stop-color="#fb0055" stop-opacity=".35294" offset=".442"/>
			<stop stop-color="#ff033c" stop-opacity="0" offset="1"/>
		</radialGradient>
		<radialGradient id="b" cx="32" cy="64.668" r="32" fy="34.837" gradientTransform="matrix(.28235 8.3478e-8 -2.4046e-7 .81331 22.965 13.787)" gradientUnits="userSpaceOnUse">
			<stop stop-color="#330b37" stop-opacity=".43189" offset="0"/>
			<stop stop-color="#5b1462" stop-opacity="0" offset="1"/>
		</radialGradient>
	</defs>
	<metadata>
		<rdf:RDF>
			<cc:Work rdf:about="">
				<dc:format>image/svg+xml</dc:format>
				<dc:type rdf:resource="http://purl.org/dc/dcmitype/StillImage"/>
				<dc:title/>
			</cc:Work>
		</rdf:RDF>
	</metadata>
	<path d="m0 1v61l2 2h60l2-2v-61h-32z" color="#000000" fill="url(#l)"/>
	<path d="m0 1v61l2 2h60l2-2v-61h-32z" color="#000000" fill="url(#c)" style="paint-order:normal"/>
	<path d="m0 1v61l2 2h60l2-2v-61h-32z" color="#000000" fill="url(#b)" style="font-variant-east_asian:normal;paint-order:normal"/>
	<path d="m2-7.0064e-8 -2 1v1h64v-1l-2-1h-30z" color="#000000" fill="#bca7d1"/>
	<path d="m0 1v3l2-2z" fill="#ddd2e7"/>
	<path d="m64 1v3l-2-2z" fill="#9e77a3"/>
	<g transform="matrix(.93552 0 0 .93552 8.9916 10.923)">
		<path d="m20.718 39.001v1.5362c0 1.5362 1.567 2.9016 3.3298 2.9016 1.7628 0 3.3298-1.3655 3.3298-2.9016v-1.5362z" fill="url(#d)"/>
		<path d="m29.275 39.091c-0.18557 1.2087-2.8118 1.8908-7.0152 1.6432-2.6621-0.1568-2.8145-1.0329-2.6289-2.2416 0.18557-1.2087 2.4964-2.0557 5.1582-1.8905s4.6714 1.2802 4.4859 2.4889z" fill="url(#f)"/>
		<path d="m29.497 37.664c-0.04932 1.1656-2.4563 2.3133-5.3762 2.5635s-5.2469-0.49197-5.1976-1.6576c0.04932-1.1656 2.4563-2.3133 5.3762-2.5635s5.2469 0.49197 5.1976 1.6576z" fill="url(#g)"/>
		<path d="m29.497 35.066c-0.04932 1.1656-2.4563 2.3133-5.3762 2.5635-2.9199 0.25016-5.2469-0.49197-5.1976-1.6576 0.04932-1.1656 2.4563-2.3133 5.3762-2.5635 2.9199-0.25016 5.2469 0.49197 5.1976 1.6576z" fill="url(#h)"/>
		<path d="m29.445 32.603c-0.14562 1.1568-2.406 2.1786-5.3244 2.4287-2.9184 0.25003-5.2469-0.49257-5.1976-1.6576 0.0493-1.165 2.1609-2.2591 5.023-2.0493 2.8848 0.21144 5.5741 0.68111 5.499 1.2782z" fill="url(#i)"/>
		<path transform="matrix(1.0689 0 0 1.0689 -9.6114 -11.676)" d="m30.426 40.209c-2.1725 0.079336-3.6901 0.98188-3.7305 1.9355-0.020069 0.47432 0.39736 0.86582 1.082 1.1465-0.65226 0.38721-1.0629 0.83193-1.082 1.2832-0.02008 0.47456 0.39755 0.8678 1.082 1.1484-0.65211 0.38718-1.0629 0.83199-1.082 1.2832-0.015822 0.37394 0.24384 0.69577 0.68359 0.95508 0.18269 0.57855 0.79467 0.97355 2.4375 1.0703 3.9324 0.23162 6.3889-0.40828 6.5625-1.5391 0.033226-0.21642-0.029611-0.42648-0.13672-0.63086 0.20332-0.22844 0.33365-0.46446 0.34375-0.70312 0.020079-0.47456-0.39755-0.86585-1.082-1.1465 0.65226-0.38721 1.0629-0.83388 1.082-1.2852 0.019667-0.46481-0.38011-0.85122-1.0391-1.1309 0.57512-0.34855 0.93705-0.74941 0.99023-1.1719 0.070325-0.55863-2.4438-0.99946-5.1426-1.1973-0.3347-0.024531-0.65839-0.028911-0.96875-0.017578z" fill="url(#e)"/>
		<path d="m24 2.4934c-7.4656 0-13.528 5.9144-13.528 13.198 0 7.4661 5.48 8.2931 5.48 11.045 0 3.233 3.2129 6.8991 8.4959 6.7667 5.6177-0.14072 7.936-3.3293 7.936-6.7667 0-2.9389 5.144-3.0172 5.144-11.045 0-7.2835-6.0624-13.198-13.528-13.198z" fill="url(#k)"/>
		<path d="m24 2.4934c-7.4656 0-13.528 5.9144-13.528 13.198 0 7.4661 5.48 8.2931 5.48 11.045 0 3.233 3.2129 6.8991 8.4959 6.7667 5.6177-0.14072 7.936-3.3293 7.936-6.7667 0-2.9389 5.144-3.0172 5.144-11.045 0-7.2835-6.0624-13.198-13.528-13.198z" fill="url(#j)"/>
		<path d="m24 3.5481c-6.9579 0-12.608 5.5122-12.608 12.3 0 6.9584 5.1073 7.729 5.1073 10.293 0 3.0131 2.9944 6.4299 7.9181 6.3065 5.2356-0.13115 7.3963-3.1028 7.3963-6.3065 0-2.739 4.7942-2.812 4.7942-10.293 0-6.7881-5.65-12.3-12.608-12.3z" fill="none" stroke="#ff77a0" stroke-width=".92034"/>
		<path d="m24 4.0681c-6.7075 0-12.154 5.3138-12.154 11.858 0 6.708 4.9235 7.4509 4.9235 9.9231 0 2.9047 2.8866 6.1985 7.6332 6.0796 5.0472-0.12643 7.1302-2.9912 7.1302-6.0796 0-2.6404 4.6217-2.7108 4.6217-9.9231 0-6.5439-5.4467-11.858-12.154-11.858z" fill="none" stroke="#ff5185" stroke-opacity=".54721" stroke-width=".88722"/>
		<path d="m24 4.8098c-6.3504 0-11.507 5.0309-11.507 11.226 0 6.3509 4.6614 7.0542 4.6614 9.3948 0 2.75 2.733 5.8685 7.2268 5.7559 4.7785-0.1197 6.7506-2.8319 6.7506-5.7559 0-2.4998 4.3756-2.5665 4.3756-9.3948 0-6.1955-5.1568-11.226-11.507-11.226z" fill="none" stroke="#ff769f" stroke-opacity=".24536" stroke-width=".83999"/>
		<path d="m23.971 4.8329c-5.9782 0-10.829 3.9848-10.829 8.8924 0 1.9601 0.93302 3.6763 2.2436 5.1465 1.4819 0.62546 3.096 1.0749 4.876 1.0749 5.9782 0 10.829-3.9848 10.829-8.8924 0-1.9719-0.94853-3.7042-2.2735-5.1791-1.475-0.61805-3.0774-1.0423-4.8461-1.0423z" fill="url(#m)"/>
		<g fill="#ffffff" shape-rendering="auto">
			<path d="m29.176 17.988-0.24023 0.03125c-0.12083 0.01587-0.21562 0.11146-0.23047 0.23242-0.01661 0.0093-0.03258 0.0194-0.04883 0.0293-0.09491-0.03352-0.2006-0.01087-0.27344 0.05859l-0.18945 0.18164c-1.4893 1.4327-3.4502 1.4509-5.3457 1.0273-0.9385-0.2097-1.7791-0.52646-2.3828-0.79102-0.30187-0.13228-0.54463-0.25049-0.71094-0.33594-0.08315-0.04272-0.14855-0.07815-0.19141-0.10156-0.01403-0.0077-0.02184-0.01039-0.03125-0.01562-5e-3 -0.0028-0.01198-0.0077-0.01563-0.0098-6.09e-4 -3.42e-4 -0.0014 3.21e-4 -2e-3 0-2e-3 -0.0019-4e-3 -0.0039-0.0059-0.0059-0.0013-6.77e-4 -0.0026-0.0013-0.0039-2e-3 -6.67e-4 2e-6 -0.0013 2e-6 -2e-3 0 0 0-0.26502 0.46297-0.26172 0.46484 0.0033 0.0019 0.0075 0.0044 0.01367 0.0078 0.0123 0.0069 0.02944 0.01657 0.05273 0.0293 0.0018 9.67e-4 6e-3 0.0029 0.0078 0.0039-0.07785-4.44e-4 -0.15202 0.03308-0.20312 0.0918l0.0918-0.125c-0.10086-0.02588-0.20758 0.0092-0.27344 0.08984l-0.09766 0.11914v-2e-3l-2e-3 -0.01563c-0.0043-0.03359-0.01487-0.06607-0.03125-0.0957l-0.0039-0.03125c-0.0093-0.05564-0.03596-0.10692-0.07617-0.14648-0.01024-0.01067-0.02134-0.02047-0.0332-0.0293-0.0026-2e-3 -0.0052-4e-3 -0.0078-0.0059-0.0045-0.0034-9e-3 -0.0067-0.01367-0.0098l-0.0039-0.0039c0.05837 0.01441 0.10254 0.02636 0.2207 0.05859 0.06986 0.01934 0.14458 0.0095 0.20703-0.02734l0.10547 0.06445-2e-3 -0.0039c0.0075 0.0056 0.01536 0.01084 0.02344 0.01563l0.0059 0.0039 0.28125-0.45312c-6.7e-4 -6.63e-4 -0.0013-0.0013-2e-3 -2e-3 -0.0013-6.77e-4 -0.0026-0.0013-0.0039-2e-3l-0.4082-0.24414c-0.11968-0.07192-0.27456-0.03958-0.35547 0.07422-0.01156-0.0029-0.02105-0.0033-0.0332-0.0059-0.04713-0.03772-0.10565-0.05837-0.16602-0.05859h-0.13086c-0.04211 9e-5 -0.0836 0.01013-0.12109 0.0293l-0.11914 0.06055c-0.05214 0.02684-0.094 0.07007-0.11914 0.12305-0.21037 0.09385-0.42171 0.1904-0.55664 0.34375-0.3649 0.36588-0.63153 0.96615-0.41797 1.5996l3.6172 8.7347c0.16353 0.79422 0.69926 1.3514 1.2418 1.0586 0.48667-0.26262 0.83656-1.1413 0.65251-2.0352l-1.3455-5.5843c0.28205 0.10593 0.53461 0.21882 0.91016 0.30274 1.3893 0.31042 2.972 0.22613 4.541-0.16602l-1.1106 5.3323c-0.16966 0.89485 0.15355 1.7743 0.60192 2.0371 0.50133 0.29379 0.99327-0.27049 1.1434-1.0625l3.6152-8.7327c0.30136-0.89387-0.27152-1.7725-1.0684-2.0352-0.23018-0.07585-0.46643-0.09463-0.6875-0.06641-6.23e-4 8e-5 -0.0013-8e-5 -2e-3 0-6.67e-4 -2e-6 -0.0013-2e-6 -2e-3 0zm-10.625 0.33984 0.07422 0.17578-0.10547 0.05273c0.04444-0.06753 0.05593-0.15154 0.03125-0.22852zm10.689 0.08789 0.0039 0.10352h2e-3c0.0056-7.27e-4 0.01191 0.0026 0.01758 2e-3 -0.01386 0.0015-0.02757 0.0041-0.04102 0.0078 0.0043-7.58e-4 0.0062 2.9e-4 0.0078 0-0.01798 0.0027-0.02554 0.0216-0.04297 0.02539 0.0041-0.0051 8e-3 -0.01028 0.01172-0.01563l0.01172-0.0059c-0.0033 0.0012-0.0066 0.0025-0.0098 0.0039 0.02258-0.03663 0.03598-0.07817 0.03906-0.12109zm-0.01758 0.11328c-4.56e-4 1.23e-4 -0.0014-1.54e-4 -2e-3 0v2e-3c0.0011-1.88e-4 7.84e-4 -0.0017 2e-3 -2e-3zm-10.969 0.20898c-0.0066 0.01064-0.01251 0.02173-0.01758 0.0332-0.01441 1.4e-4 -0.02877 0.0014-0.04297 0.0039 0.02353-0.01286 0.03522-0.02484 0.06055-0.03711zm10.213 0.07031c0.06317 0.05193 0.14665 0.07209 0.22656 0.05469-0.02948 0.03-0.08068 0.03472-0.10742 0.06641l-0.04688 0.05469c-0.04557-9.13e-4 -0.09062 0.0098-0.13086 0.03125 0.04952-0.04407 0.10764-0.06066 0.15625-0.10742v-2e-3zm0.86328 0.24414c0.0089-8.67e-4 0.01652 0.0024 0.02539 2e-3 -0.02642 4e-3 -0.05209 0.01186-0.07617 0.02344 0.0091-0.0022 0.01809-0.01807 0.02734-0.01953 8.7e-5 -1.2e-5 0.01296-0.0037 0.02344-0.0059zm0.14062 0.01172c0.01969 0.0034 0.04242-1.14e-4 0.06055 0.0059 0.0041 0.0014 0.0018 0.0083 0.0059 0.0098-0.02748-6e-3 -0.036-0.0089-0.06641-0.01563zm0.86719 0.01758c0.14108 0.24262 0.19066 0.5369 0.08984 0.83594 0.10079-0.29895 0.05066-0.59397-0.08984-0.83594zm-0.66211 0.03711 0.01953 0.01758c-0.0092 8.28e-4 -0.0183 0.0021-0.02734 0.0039-0.0045-0.0029-0.0094-0.0072-0.01367-0.0098zm-0.47461 0.01172c-0.01651 0.01568-0.03095 0.0334-0.04297 0.05273-0.01175-1.07e-4 -0.0235 5.61e-4 -0.03516 2e-3 0.02583-0.02043 0.05294-0.04189 0.07813-0.05469zm-9.8418 0.23047c0.27675 0.15692 1.4175 0.80711 3.2109 1.2188 0.0016 3.72e-4 0.0023 0.0016 0.0039 2e-3 -0.0034-3.38e-4 -0.05051-0.0067-0.0625-0.0078 0.01371 0.0012 0.05371 0.0056 0.05664 0.0059-1.0135-0.23334-1.9217-0.57718-2.5723-0.86328-0.43697-0.19217-0.53557-0.25601-0.69922-0.34375 0.02123-0.0014 0.04221-0.0053 0.0625-0.01172zm10.619 0.05859 0.0059 0.0078-0.01172 0.0332c3e-3 -0.0135 5e-3 -0.02722 0.0059-0.04102zm-11.924 0.13477c-0.0064 0.01385-0.01166 0.02823-0.01563 0.04297l-0.01172-0.0332 0.0059-0.0078c0.0072-3.77e-4 0.01435-1e-3 0.02148-2e-3zm10.457 0.01953c2e-3 6.9e-4 0.0039 0.0014 0.0059 2e-3 -0.28125 0.21219-0.55362 0.43601-0.86914 0.59766-0.13161 0.06687-0.18408 0.22778-0.11719 0.35938l0.24219 0.47656 0.0957-0.29492c0.03516 0.05443 0.11914 0.18359 0.11914 0.18359s-0.0015 0.19188-2e-3 0.23828c-0.05374-0.01594-0.11114-0.01457-0.16406 0.0039l-0.51953 0.18359c-0.47679 0.16979-0.95892 0.20263-1.4414 0.28711 0.0075-0.03066 0.0095-0.0624 0.0059-0.09375l-0.05273-0.53125c-0.0099-0.09383-0.06855-0.17549-0.1543-0.21484 1.0026-0.12852 1.9768-0.50204 2.8516-1.1973zm-9.9121 0.13476v2e-3c-4.59e-4 2.95e-4 -0.0078 0.0039-0.0078 0.0039zm2e-3 0.0059 0.0098 0.02539-0.0039 0.01172-0.0078-0.02539-0.05078 0.05664c0.01024-0.01598 0.01875-0.033 0.02539-0.05078 0.0031-0.0023 0.01953-0.01367 0.01953-0.01367-1e-6 -1e-6 0.0073-0.0036 0.0078-0.0039zm0.25781 0.03711c0.10229 0.05686 0.35324 0.20305 0.92188 0.45312 0.57682 0.25367 1.4114 0.53242 2.2852 0.76562-0.88462-0.2326-1.7325-0.51164-2.3145-0.76758l-0.55469-0.24414c-0.21278-0.09419-0.43594 0.10967-0.36133 0.33008l2.7573 7.9046c-0.01084-0.0032-0.01851-0.0063-0.02982-0.0098l-2.8818-8.2132c0.096-0.03321 0.16488-0.11798 0.17773-0.21875zm10.15 0.12891c0.07723 0.07224 0.18979 0.09214 0.28711 0.05078l-2.7445 7.9202c-0.0083-0.0039-0.01673-0.0065-0.02526-0.0078l2.4963-7.2366c0.07777-0.23028-0.16732-0.43641-0.38086-0.32031l-0.5 0.26953-0.0293-0.05859c0.30945-0.17003 0.60727-0.38011 0.89648-0.61719zm-6.3203 0.17774c0.01621 0.0037 0.02474 0.01004 0.04102 0.01367 0.9519 0.21269 1.9546 0.2991 2.9238 0.17578-0.96908 0.13444-1.9713 0.03902-2.9238-0.17383-0.02312-0.0052-0.01809-0.01037-0.04102-0.01563zm-3.1523 0.63281c0.09218 0.04054 0.26388 0.07908 0.36524 0.12109-0.1447 0.02381-0.24319 0.15978-0.2207 0.30469zm1.0078 0.33398c0.5613 0.20751 1.0688 0.42706 1.7695 0.58789 0.0023 5.33e-4 0.0035 0.0014 0.0059 2e-3 0.0069 0.0022 0.0061 0.0041 0.01367 0.0059 6.67e-4 2e-6 0.0013 2e-6 2e-3 0 1.33e-4 3e-5 0.03212 4e-3 0.05078 0.0059-0.01904-0.0018-0.04896-0.0039-0.04883-0.0039 0.01734 0.0037 0.035 0.0057 0.05273 0.0059 0.01207 0.0048 0.02447 0.0087 0.03711 0.01172-0.01517-0.0033-0.03372-5.31e-4 -0.04883-0.0039-0.01614-0.0036-0.02506-0.01001-0.04102-0.01367-0.0016-3.67e-4 -0.0023-0.0016-0.0039-2e-3 -0.6818-0.15711-1.202-0.36438-1.7559-0.58203zm7.7539 0.05273-0.12695 0.375c0.02708-0.11498-0.02454-0.2341-0.12695-0.29297 1.15e-4 -2.4e-5 0.0053-0.0018 0.0059-2e-3 -0.0034 7.12e-4 -0.0062 5.3e-5 -0.0059 0 0.0011-1.56e-4 0.02686-0.0092 0.03125-0.0098 0.0054-0.0017 0.0091-0.0036 0.01563-0.0059 0.03908-0.0059 0.10891-0.01132 0.20703-0.06445zm-7.916 0.45703c0.14734 0.0579 0.34152 0.1041 0.49219 0.16211-0.20652-0.05405-0.38992 0.1439-0.32031 0.3457zm2.1035 0.10938c0.8005 0.17071 1.664 0.17063 2.5273 0.13477-0.88617 0.0709-1.7433 0.03-2.5273-0.13477zm4.9961 0.18359-0.14648 0.43359c0.05867-0.17976-0.08279-0.36193-0.27148-0.34961 0.13941-0.04233 0.27936-0.03462 0.41797-0.08398zm-5.8725 6.6546c-0.0079 0.0059-0.01787 0.01365-0.0179 0.01367-3e-5 2.7e-5 0.01076-0.0098 0.01074-0.0098-4e-6 3e-6 0.0053-3e-3 0.0072-0.0039zm5.1391 0.04102c2.26e-4 0.24253 0.16739 0.35917 0.26032 0.18164-0.04031 0.17433-0.11574 0.30651-0.19664 0.4277 0.04079-0.23136-0.09883-0.43198-0.21748-0.3125-3.26e-4 3.42e-4 -7.88e-4 -3.4e-4 -0.0011 0-0.022 0.0231-0.04834 3e-3 -0.0714 0.01563v-2e-3c0.03224-0.03282 0.0565-0.0857 0.0681-0.14844 0.01273-0.0017 0.02527-0.0063 0.03735-0.01367l0.12082 0.03516zm0.29217 0.08984-0.0066 0.03711c-2e-3 0.01076-0.0099 0.01475-0.01208 0.02539 0.0078-0.01927 0.01403-0.04029 0.01867-0.0625zm-5.5768 0.01172c-3e-6 8e-5 0.0033 0.0576 0.0036 0.06445-7.2e-5 -2.66e-4 -0.0012-0.0039-0.0012-0.0039 8e-6 7.4e-5 -0.0024-0.06064-0.0024-0.06055zm0.02028 0.0625-0.01074 0.01172c0.0085 0.0027 0.01146 0.0028 0.02147 0.0059l0.0167 0.08203c1e-4 7.2e-4 -1.09e-4 0.0012 0 2e-3 -0.0085-0.0082-0.01582-0.0121-0.02386-0.02148 0.01167 0.01008 0.01662 0.01329 0.02386 0.01953-0.0074-0.0065-0.01186-0.01091-0.02386-0.02148-0.0083-0.03069-0.01658-0.06297-0.01909-0.07227 2.22e-4 -7.3e-5 0.01258-0.0049 0.01551-0.0059zm0.06919 0.07031-0.0072 0.01172c-0.0077 0.0087-0.01484 0.01855-0.02147 0.0293-4.09e-4 6.63e-4 -7.94e-4 0.0013-0.0012 2e-3 -0.0039-0.0034-0.0069-0.0061-0.01074-0.0098-1.85e-4 -1.77e-4 1.85e-4 -0.0018 0-2e-3 -1.4e-4 -1.2e-4 1.44e-4 -0.0018 0-2e-3l0.02505-0.02539c0.0044-1e-3 0.0094-0.0025 0.01551-0.0039zm4.3516 0.02148c0.04881 0.15473 0.12586 0.26304 0.2043 0.36328-0.08145-0.10913-0.15956-0.2012-0.2043-0.36328zm-3.6848 0.11719c-0.05006 0.16656-0.137 0.26312-0.22903 0.37305 0.08893-0.10131 0.17428-0.21327 0.22903-0.37305zm4.5228 0.38477c-0.10211 0.10603-0.22748 0.09227-0.35149 0.07227 0.04145 0.0064 0.0775-0.01618 0.11753-0.02539 0.07987-0.01838 0.16736 0.02209 0.23396-0.04687zm-4.8294 0.03711c0.0072 0.01197 0.01385 0.02279 0.0179 0.0293-0.0035 0.0033-6e-3 0.0085-0.0095 0.01172-0.01013 0.0092-0.01585 0.02682-0.02624 0.03516-5.54e-4 -0.0018-0.0016-0.0074-0.0024-0.0098 0.0066-0.01527 0.01219-0.03164 0.0167-0.04883-2.19e-4 -4.27e-4 2.23e-4 -0.0015 0-2e-3 0.0013-0.0051 0.0025-0.01036 0.0036-0.01563zm-0.60479 0.07227c0.11107 0.10483 0.24799 0.09657 0.38292 0.07617-0.13566 0.01989-0.27139 0.03134-0.38292-0.07617z" color="#000000" color-rendering="auto" dominant-baseline="auto" image-rendering="auto" opacity=".089" solid-color="#000000" style="font-feature-settings:normal;font-variant-alternates:normal;font-variant-caps:normal;font-variant-ligatures:normal;font-variant-numeric:normal;font-variant-position:normal;isolation:auto;mix-blend-mode:normal;shape-padding:0;text-decoration-color:#000000;text-decoration-line:none;text-decoration-style:solid;text-indent:0;text-orientation:mixed;text-transform:none;white-space:normal"/>
			<path d="m29.213 18.254-0.24414 0.03125 0.0039 0.11328c-0.12839 0.05472-0.23834 0.11896-0.33594 0.20312l-0.06836-0.06836-0.18945 0.18164c-1.5735 1.5137-3.6533 1.5284-5.5898 1.0957-1.9225-0.42958-3.4224-1.2933-3.4219-1.293l-0.0059-0.0039-2e-3 -2e-3 -0.4082-0.24414v0.16211c-0.13956-0.03807-0.2686-0.10465-0.41797-0.09375v-0.01953h-0.13086l-0.11914 0.06055 0.01367 0.0332c-0.26263 0.09219-0.49312 0.23112-0.61719 0.375-0.31118 0.30802-0.53427 0.80944-0.35742 1.334l3.5183 8.7347c0.1367 0.6639 0.58231 1.1351 1.0354 0.89062 0.40676-0.2195 0.70222-0.94989 0.54873-1.6953l-1.6161-6.0921c0.42452 0.16352 0.82817 0.33634 1.3945 0.46289 1.4781 0.33027 3.1972 0.25674 4.8789-0.24219l-1.3643 5.7562c-0.14145 0.74608 0.13161 1.4776 0.50636 1.6973 0.4186 0.24532 0.82784-0.23223 0.95341-0.89453l3.5042-8.7327c0.25131-0.74542-0.23244-1.4758-0.89844-1.6953-0.19167-0.06316-0.38693-0.07833-0.57031-0.05469zm0.08008 0.5332c0.10349-0.01147 0.21514-6e-3 0.32226 0.0293 0.40819 0.13453 0.70887 0.5699 0.55859 1.0156l-3.2743 8.6917v-0.04297l-0.29108-0.08594 3.1044-8.8616-0.0332-0.0332 0.03125-0.0957-0.08203 0.04492-0.0332-0.0332c-0.0078-0.0078-0.0075-0.0041-0.01367-0.0098-0.03646-0.0335-0.05492-0.04559-0.08008-0.05859-4e-3 -0.0028-0.01562-0.0098-0.01563-0.0098-4.9e-5 -2.1e-5 -0.08197-0.01953-0.08203-0.01953-2.5e-5 -2e-6 -0.01059 0.0016-0.01563 2e-3l-0.08008 0.30078-0.11719 0.06445-0.03906-0.16797-0.0332 0.0957c-0.0021-0.01478-0.0039-0.03128-0.0039-0.03125-1e-6 1.58e-4 0.01375-0.07838 0.01367-0.07813-8.2e-5 2.55e-4 0.0084-0.02436 0.01172-0.03125 0.0066-0.01379 0.01157-0.02003 0.01367-0.02344l-0.01367 0.01953-0.01563 0.01172-0.0039 0.0039c-0.41508 0.39931-0.87195 0.68202-1.3516 0.92773l0.24219 0.47656c-0.02536 0.01282-0.03351 0.0099-0.0059 0.0059 0.02765-4e-3 0.09096-0.01014 0.16602-0.05078l0.59766-0.32227-2.5071 7.8831 0.0659 0.11719c-0.01-0.01794 7e-3 0.0178 0.02526 0.04102 0.01414 0.01794 0.02987 0.02846 0.04504 0.03906-3e-5 1.3e-4 -0.0011 0.0039-0.0011 0.0039l0.0044 0.0039s0.0011-0.0038 0.0011-0.0039c3e-3 2e-3 0.0058 0.0061 0.0088 0.0078l0.04174-0.22656 0.0055-0.0293c0.0061-0.0028 0.06499-0.0291 0.10435-0.04687l0.01428 0.10938 0.02307-0.11914c1e-3 0.0097 0.0022 0.02734 0.0022 0.02734l0.0011 0.0098c0-3.2e-5 -0.0018 0.04841-0.0022 0.06055-0.02637 0.12749-0.09115 0.17076-0.15378 0.17578-2.31e-4 0.0091 1.11e-4 0.02492 0 0.0293-0.01129-3.41e-4 -0.02203 0.01644-0.03405 0.0098-3.16e-4 -1.73e-4 -7.87e-4 1.77e-4 -0.0011 0-3.81e-4 -2.17e-4 -7.32e-4 2.23e-4 -0.0011 0v2e-3l-0.05931 0.25586c0.0018-2.85e-4 0.01208-2e-3 0.01208-2e-3 1.4e-5 2.1e-5 -0.04165 0.22573-0.04504 0.24414-1.14e-4 6.19e-4 -0.0022 0.0077-0.0022 0.0078-0.0068-0.0041-0.0097-0.01885-0.01648-0.02344l-0.0022 0.0098c2.2e-5 1.9e-5 -0.04505-0.06057-0.04504-0.06055 5e-6 1.1e-5 -6e-3 -0.01681-0.01098-0.03125-0.18076-0.18318-0.31225-0.52615-0.23945-0.91016l1.9088-6.7132-0.51953 0.18359c-1.7314 0.61655-3.5478 0.66094-5.0723 0.32031-0.73163-0.16348-1.2744-0.38717-1.8398-0.60938l-0.53516-0.21094 2.1692 7.1448c0.07965 0.38681-0.0643 0.73061-0.26244 0.91211-0.0098 0.02292-0.01909 0.04689-0.01909 0.04687 1e-6 -1e-6 -0.0011 0.0019-0.0012 2e-3 0 0-0.0064-0.01029-0.0072-0.01172-0.02025 0.01575-0.02995 0.05489-0.05129 0.06641l-0.0501-0.25c-2.4e-5 -4.2e-5 -0.0012-2e-3 -0.0012-2e-3 -5e-6 8e-6 -0.0093-0.04674-0.0167-0.08398-0.01497-0.07528-0.03338-0.16993-0.0334-0.16992 2.5e-4 2.75e-4 -5.21e-4 -0.0023 0-2e-3 6.1e-4 4.24e-4 3.19e-4 -4.42e-4 0.0012 0 0.02177-0.01191 0.04478-0.0303 0.06561-0.05664 0.02113-0.02672 0.04038-0.06222 0.02266-0.0332l0.07157-0.11719-2.7432-8.3187 0.55469 0.24414c0.6892 0.30309 1.6546 0.66049 2.7363 0.9082 0.0056 0.0013 0.0081 0.0046 0.01367 0.0059 6.97e-4 1.59e-4 0.0013-1.58e-4 2e-3 0l0.11914-0.51953c-9.59e-4 -2.2e-4 -9.94e-4 2.2e-4 -2e-3 0-2.0769-0.47689-3.6898-1.4042-3.6934-1.4062l-0.01367-0.01367 0.33008-0.4043 0.14258 0.08789 0.0332-0.04492c0.19058 0.10795 1.4674 0.85068 3.3594 1.2734 1.9417 0.43385 4.1432 0.40542 5.8594-1.082l0.07227 0.07227 0.1875-0.22266c0.13907-0.16479 0.28934-0.28005 0.47852-0.30859 2.61e-4 -3.6e-5 0.01271-3e-3 0.02344-0.0059zm-10.773 0.07031 2e-3 0.01172 0.0098-0.0039 0.04102 0.26953-0.0078-0.1543 0.02148 0.19336-0.01172-0.03125-2e-3 -0.0059v-2e-3l-2e-3 -0.0039-0.04687-0.24023-0.0059-0.02148v-0.0098c1e-3 -1.87e-4 9.5e-4 -0.0018 2e-3 -2e-3zm-0.02539 0.01953 0.0059 0.05859-0.01953-0.05469 0.0039-2e-3zm-0.26172 0.16211 0.01953 0.01758-0.23438 0.23438c0.02871-0.03798 0.0057-0.10024 0.03906-0.13281l0.0078-0.0098 0.0078-0.0078c0.0394-0.04629 0.11222-0.06105 0.16016-0.10156zm-0.24023 0.3457h0.25586l0.08203 0.24219-0.0332 0.03711 3.1222 8.6585-0.12764-0.19141v0.72266l0.05249 0.08008c1.35e-4 2.04e-4 1e-3 -2.05e-4 0.0012 0 0.02864 0.04279 0.06722 0.12517 0.13122 0.20703 0.0611 0.07864 0.17578 0.14052 0.28391 0.09375-0.26776 0.12983-0.52718-0.15263-0.60956-0.55273l-3.3206-8.7347c-0.07214-0.21397 0.05845-0.3883 0.16211-0.5625zm0.55664 0.28906c9.18e-4 -1.72e-4 1e-3 1.71e-4 2e-3 0 0.0037-6.84e-4 0.0042 6.68e-4 0.0078 0 0.01234 0.01517 0.03022 0.03735 0.0332 0.04102 2.89e-4 2.87e-4 0.0017 0.0037 2e-3 0.0039-0.0047-0.0028-0.0386-0.02119-0.06836-0.03906 0.0118-0.0022 0.01192-0.0037 0.02344-0.0059zm4.0547 1.1836-0.11328 0.52344c0.97798 0.21438 2.0408 0.26985 3.1094 0.16406 6.7e-4 -6.6e-5 0.0013 6.6e-5 2e-3 0l-0.05273-0.53125c-6.68e-4 6.5e-5 -0.0013-6.5e-5 -2e-3 0-1.0159 0.10077-2.0248 0.0451-2.9434-0.15625zm3.9028 7.2503 0.0055 0.0039s-0.01762 0.07737-0.03405 0.14844l0.02417-0.13281zm-5.0013 0.33008c0.04339 0.01384 0.10903 0.03303 0.11571 0.03516l0.0048 0.02734 0.04175 0.20312c-0.0082-0.01205-0.02703-0.04157-0.03936-0.0625-1.88e-4 -3.15e-4 1.87e-4 -0.0016 0-2e-3 -0.01966-0.03334-0.03201-0.05446-0.06203-0.09961-2.96e-4 -4.43e-4 -9.16e-4 4.44e-4 -0.0012 0l-0.06084-0.0918zm5.1661 0.61328c-0.10255 0.10771-0.22654 0.14613-0.35258 0.07227 0.12593 0.07312 0.25059 0.03467 0.35258-0.07227z" color="#000000" color-rendering="auto" dominant-baseline="auto" image-rendering="auto" opacity=".127" solid-color="#000000" style="font-feature-settings:normal;font-variant-alternates:normal;font-variant-caps:normal;font-variant-ligatures:normal;font-variant-numeric:normal;font-variant-position:normal;isolation:auto;mix-blend-mode:normal;shape-padding:0;text-decoration-color:#000000;text-decoration-line:none;text-decoration-style:solid;text-indent:0;text-orientation:mixed;text-transform:none;white-space:normal"/>
			<path d="m29.246 18.52c-0.0058 7.44e-4 -0.0079 7e-3 -0.01367 0.0078-0.2773 0.04053-0.48444 0.21033-0.64648 0.40234l-0.02148-0.02148c-1.658 1.595-3.8554 1.6062-5.834 1.1641-1.9678-0.4397-3.486-1.3172-3.498-1.3242l-0.0039-2e-3 -0.0098-0.0059v2e-3l-0.0059 0.0078c-0.21394-0.13168-0.46369-0.19782-0.71478-0.164l0.03516-2e-3h-0.06641l-0.06055 0.03125 0.07422-0.02539c-0.2858 0.04833-0.48001 0.22266-0.61133 0.37695-0.25628 0.25029-0.43261 0.65221-0.29297 1.0664l3.4194 8.7347c0.11026 0.5355 0.46616 0.91848 0.82906 0.72266 0.32803-0.17701 0.56758-0.75989 0.44495-1.3555l-1.8868-6.5999c0.56222 0.22092 1.1236 0.45428 1.8789 0.62305 1.5732 0.35152 3.4378 0.30484 5.2207-0.33008l-1.622 6.1917c-0.11292 0.59558 0.10875 1.1804 0.4108 1.3574 0.33504 0.19634 0.66204-0.19203 0.76338-0.72656l3.3931-8.7327c0.20079-0.59558-0.19143-1.1785-0.72852-1.3555-0.15168-0.04998-0.30785-0.0617-0.45312-0.04297zm-10.637 0.58984-0.01758 0.0098c-0.0049 4.38e-4 -0.0088-0.0045-0.01367-0.0039zm-0.04102 0.0059c0.0013-1.75e-4 0.0026 1.66e-4 0.0039 0l-2e-3 2e-3h0.0039c0.0041-5e-4 0.0077 0.0024 0.01172 2e-3h-0.01953c9.06e-4 -1.64e-4 1e-3 -0.0018 2e-3 -2e-3l-0.0098 2e-3h-0.0078zm0.16797 0.03906c0.07143 0.01315 0.14737 0.0072 0.20898 0.04687l4e-3 4e-3c-0.06356-0.04198-0.14041-0.03745-0.21289-0.05078zm10.643 0.43164c0.01451 0.0075 0.02383 0.01405 0.02734 0.01758l-2.9406 8.7054c-0.0125 0.06594-0.015 0.04585-0.0066 0.05078-0.01765-0.01034-0.02129-0.02023-0.02416-0.02539l2.8053-8.3714-1.1953 0.64648c-0.04868 0.02636-0.10518 0.01619-0.1543 0.04102 0.49215-0.25213 0.97547-0.54885 1.416-0.97266l0.0332-0.0293 0.0332-0.04688c0.01551-0.022 0.0097-0.01646 0.0059-0.01562zm-10.719 0.06836 0.01367 0.0098 0.02344 0.01172-0.01367-0.0098s1.6466 0.94817 3.7715 1.4355c-1.0679-0.24295-2.0227-0.59922-2.7031-0.89844l-1.1094-0.48828 3.0032 8.7347c-0.0032 0.0052-6e-3 0.01512-0.02505 0.02539 0.0066-0.0036 0.0064 0.01697-0.0072-0.04883l-3.0139-8.6996c0.0033-0.0037-0.0022 0.0018 0.0039-0.0039l0.02929-0.02929 0.02539-0.0293 0.0039-0.0039c0.01372-0.01745-0.0017-0.0043-2e-3 -0.0059zm3.8867 1.4648c0.94463 0.20726 1.9906 0.26049 3.0273 0.16016-1.0426 0.10341-2.0788 0.04778-3.0273-0.16016zm4.2022 7.3616c-0.05381 0.2838-0.21879 0.48574-0.38444 0.38867-3.47e-4 -2.03e-4 3.45e-4 -0.0017 0-2e-3 0.16671 0.0977 0.33166-0.1128 0.38444-0.38672zm-5.2942 0.25586c0.0833 0.12447 0.1521 0.30821 0.26721 0.24609-3.75e-4 2.05e-4 3.75e-4 0.0018 0 2e-3 -0.11482 0.06196-0.18398-0.12288-0.26721-0.24805z" color="#000000" color-rendering="auto" dominant-baseline="auto" image-rendering="auto" opacity=".186" solid-color="#000000" style="font-feature-settings:normal;font-variant-alternates:normal;font-variant-caps:normal;font-variant-ligatures:normal;font-variant-numeric:normal;font-variant-position:normal;isolation:auto;mix-blend-mode:normal;shape-padding:0;text-decoration-color:#000000;text-decoration-line:none;text-decoration-style:solid;text-indent:0;text-orientation:mixed;text-transform:none;white-space:normal"/>
			<path d="m29.281 18.784c-0.23917 0.03084-0.4372 0.17252-0.56578 0.35492l0.0334-0.03758c-1.7429 1.6767-4.056 1.6834-6.0774 1.2318-2.0215-0.45169-3.5867-1.3612-3.5867-1.3612l0.01461 0.0084c-0.16611-0.10977-0.36723-0.15623-0.56577-0.12949h-0.0042l-0.0042 0.0021c-0.20956 0.03544-0.36139 0.1658-0.46974 0.29646-0.19989 0.19191-0.32761 0.49456-0.22548 0.79752l3.3199 8.735c0.08432 0.40954 0.35231 0.70169 0.62353 0.55534 0.25081-0.13535 0.43293-0.57379 0.34173-1.0167l-2.1557-7.1065c0.67431 0.27434 1.4186 0.57229 2.3612 0.7829 1.6791 0.37518 3.7013 0.37669 5.568-0.43425l-1.8855 6.643c-0.08398 0.44294 0.08371 0.88139 0.31466 1.0167 0.25034 0.14671 0.49656-0.14826 0.57414-0.55743l3.2828-8.7329c0.14933-0.44294-0.14885-0.88139-0.55952-1.0167-0.11176-0.03683-0.22602-0.04525-0.33404-0.03132zm0.06681 0.53029c0.03247-0.0042 0.06538-1e-3 0.10021 0.01044 0.17573 0.05792 0.26744 0.19928 0.2213 0.33613l-3.0617 8.7329c-0.03235 0.17062-0.11664 0.26576-0.19608 0.21921-0.09882-0.05792-0.1504-0.19928-0.12445-0.33613l2.4824-7.7558-0.5971 0.3236c-1.8427 0.99793-3.972 0.92422-5.735 0.53029-1.1103-0.24809-2.0908-0.61795-2.7934-0.92696l-0.55534-0.24427 2.7177 8.188c0.02817 0.13684-0.02783 0.27821-0.13516 0.33613-0.08693 0.04691-0.17789-0.04687-0.21294-0.21712l-3.1233-8.735c-0.03096-0.09183-0.0016-0.16834 0.08768-0.25053l0.01461-0.01461 0.01461-0.0167c0.05563-0.07073 0.10089-0.1022 0.15658-0.11274 0.06712-8e-3 0.13749 0.0085 0.19416 0.04593l0.0063 0.0042 0.0084 0.0042s1.6239 0.94749 3.7371 1.4197c2.109 0.47125 4.6529 0.47084 6.566-1.3696l0.01879-0.0167 0.01461-0.02088c0.05634-0.07992 0.12824-0.12511 0.19416-0.13362z" color="#000000" color-rendering="auto" dominant-baseline="auto" image-rendering="auto" opacity=".375" solid-color="#000000" style="font-feature-settings:normal;font-variant-alternates:normal;font-variant-caps:normal;font-variant-ligatures:normal;font-variant-numeric:normal;font-variant-position:normal;isolation:auto;mix-blend-mode:normal;shape-padding:0;text-decoration-color:#000000;text-decoration-line:none;text-decoration-style:solid;text-indent:0;text-orientation:mixed;text-transform:none;white-space:normal"/>
		</g>
		<path d="m29.315 19.05c-0.15255 0.01967-0.28751 0.11311-0.37997 0.24427-1.828 1.7585-4.2565 1.7621-6.3217 1.3007-2.0673-0.46193-3.6619-1.3904-3.6619-1.3904-0.11197-0.07396-0.24863-0.10565-0.38206-0.08769-0.13897 0.0235-0.24506 0.10778-0.32778 0.21295-0.1483 0.13656-0.22628 0.33184-0.15867 0.53238l3.616 10.727c0.09773 0.28989 0.39158 0.48286 0.68478 0.38623 0.29319-0.09663 0.48814-0.38654 0.39041-0.67643l-3.2381-9.6057c0.71447 0.3142 1.7107 0.69055 2.8435 0.94366 1.8005 0.4023 3.9979 0.48605 5.9208-0.55534l-3.069 9.1026c-0.09773 0.28989 0.09721 0.5798 0.39041 0.67643 0.2932 0.09663 0.58705-0.09843 0.68478-0.38832l3.616-10.725c0.09773-0.28989-0.09721-0.5798-0.39041-0.67643-0.0733-0.02416-0.14688-0.02994-0.21713-0.02088z" fill="url(#n)"/>
	</g>
</svg>
