<?xml version="1.0" encoding="UTF-8"?>
<svg id="ba" width="64" height="64" version="1.1" xmlns="http://www.w3.org/2000/svg" xmlns:cc="http://creativecommons.org/ns#" xmlns:dc="http://purl.org/dc/elements/1.1/" xmlns:rdf="http://www.w3.org/1999/02/22-rdf-syntax-ns#" xmlns:xlink="http://www.w3.org/1999/xlink">
	<defs id="e">
		<radialGradient id="a" cx="36.095" cy="47.745" r="32" gradientTransform="matrix(1.3226 0 0 1.2812 -10.74 -16.174)" gradientUnits="userSpaceOnUse">
			<stop id="bg" stop-color="#1f74e9" offset="0"/>
			<stop id="bd" stop-color="#1e92f8" offset="1"/>
		</radialGradient>
		<linearGradient id="c" x1="37.38" x2="36.961" y1="35.046" y2="32.808" gradientUnits="userSpaceOnUse">
			<stop id="an" style="stop-color:#1c1212" offset="0"/>
			<stop id="ap" style="stop-color:#3a3d52" offset="1"/>
		</linearGradient>
		<radialGradient id="b" cx="26.182" cy="21.963" r="22.038" gradientTransform="matrix(.8091 0 0 .65804 4.9982 8.4302)" gradientUnits="userSpaceOnUse">
			<stop id="ar" style="stop-color:#ff9f1a" offset="0"/>
			<stop id="bl" style="stop-color:#ff7f00;stop-opacity:.99839" offset="1"/>
		</radialGradient>
	</defs>
	<metadata id="ao">
		<rdf:RDF>
			<cc:Work rdf:about="">
				<dc:format>image/svg+xml</dc:format>
				<dc:type rdf:resource="http://purl.org/dc/dcmitype/StillImage"/>
				<dc:title/>
			</cc:Work>
		</rdf:RDF>
	</metadata>
	<path id="d" d="m0 2v60l2 2h60l2-2v-60h-32z" color="#000000" fill="url(#a)"/>
	<g id="ac" style="fill:#2d1650;opacity:.309">
		<path id="s" d="m40.207 60.418c11.831 0.2831 24.357-5.9604 23.503-14.006-0.47827-4.5094-5.3558-6.1844-5.8075-7.3107-2.1047-5.2471-4.5914-8.938-8.3355-12.025-0.7002-3.0693-1.9814-7.9939-2.3913-8.3355s-4.5094 6.0125-4.9193 6.0808c-3.1958-0.28232-8.8296-0.43488-13.05 1.5031 0 0-6.6274-4.9193-7.8572-5.3293-1.0249-0.2733 0.47827 12.572 0.06833 13.46-1.0932 1.5031-4.7465 7.2856-3.6212 11.888 2.5482 10.422 12.551 13.839 22.41 14.075z" style="fill-opacity:.0039216;fill:#2d1650;opacity:1;paint-order:normal"/>
		<path id="p" d="m32.191 51.124c11.038 0.26412 22.724-5.561 21.928-13.068-0.44622-4.2072-4.9968-5.7699-5.4183-6.8207-1.9636-4.8954-4.2837-8.339-7.7769-11.219-0.65327-2.8636-1.8486-7.4582-2.2311-7.7769s-4.2072 5.6096-4.5896 5.6733c-2.9816-0.2634-8.2379-0.40573-12.175 1.4024 0 0-6.1833-4.5896-7.3307-4.9721-0.95618-0.25498 0.44622 11.729 0.06375 12.558-1.0199 1.4024-4.4284 6.7974-3.3785 11.092 2.3774 9.7238 11.71 12.911 20.908 13.131z" style="fill-opacity:.070588;fill:#2d1650;opacity:1;paint-order:normal"/>
		<g id="k" style="fill:#2d1650">
			<path id="ae" d="m40.207 60.418c11.831 0.2831 24.357-5.9604 23.503-14.006-0.47827-4.5094-5.3558-6.1844-5.8075-7.3107-2.1047-5.2471-4.5914-8.938-8.3355-12.025-0.7002-3.0693-1.9814-7.9939-2.3913-8.3355s-4.5094 6.0125-4.9193 6.0808c-3.1958-0.28232-8.8296-0.43488-13.05 1.5031 0 0-6.6274-4.9193-7.8572-5.3293-1.0249-0.2733 0.47827 12.572 0.06833 13.46-1.0932 1.5031-4.7465 7.2856-3.6212 11.888 2.5482 10.422 12.551 13.839 22.41 14.075h-1e-6" style="fill-opacity:.0039216;fill:#2d1650;opacity:1;paint-order:normal"/>
			<path id="bf" d="m38.768 58.748c11.688 0.27969 24.064-5.8887 23.221-13.838-0.47251-4.4551-5.2913-6.1099-5.7376-7.2227-2.0793-5.1839-4.5361-8.8304-8.2352-11.88-0.69177-3.0324-1.9575-7.8977-2.3626-8.2352s-4.4551 5.9401-4.8601 6.0076c-3.1573-0.27893-8.7233-0.42964-12.893 1.485 0 0-6.5476-4.8601-7.7627-5.2651-1.0125-0.27001 0.47251 12.42 0.067507 13.298-1.08 1.485-4.6894 7.198-3.5776 11.745 2.5175 10.297 12.4 13.672 22.14 13.905h-8.204e-7" style="fill-opacity:.015895;fill:#2d1650;opacity:1;paint-order:normal"/>
			<path id="t" d="m38.171 58.057c11.629 0.27828 23.942-5.8589 23.103-13.768-0.47013-4.4326-5.2646-6.0791-5.7087-7.1862-2.0688-5.1578-4.5132-8.7858-8.1936-11.82-0.68828-3.0171-1.9477-7.8578-2.3506-8.1936-0.40296-0.3358-4.4326 5.9102-4.8356 5.9773-3.1414-0.27752-8.6793-0.42747-12.828 1.4775 0 0-6.5146-4.8356-7.7235-5.2385-1.0074-0.26864 0.47013 12.358 0.067167 13.231-1.0746 1.4775-4.6657 7.1616-3.5595 11.686 2.5048 10.245 12.337 13.603 22.029 13.835h-7.46e-7" style="fill-opacity:.020855;fill:#2d1650;opacity:1;paint-order:normal"/>
			<path id="bk" d="m37.714 57.526c11.584 0.27719 23.849-5.8361 23.013-13.714-0.4683-4.4154-5.2441-6.0554-5.6865-7.1582-2.0608-5.1377-4.4956-8.7516-8.1617-11.774-0.6856-3.0053-1.9401-7.8272-2.3415-8.1617-0.4014-0.3345-4.4154 5.8872-4.8168 5.9541-3.1291-0.27644-8.6455-0.42581-12.778 1.4718 0 0-6.4892-4.8168-7.6934-5.2182-1.0035-0.2676 0.4683 12.31 0.066905 13.179-1.0704 1.4718-4.6475 7.1338-3.5457 11.641 2.495 10.205 12.289 13.55 21.943 13.781h-6.889e-7" style="fill-opacity:.024661;fill:#2d1650;opacity:1;paint-order:normal"/>
			<path id="be" d="m37.328 57.079c11.546 0.27628 23.77-5.8169 22.938-13.669-0.46675-4.4008-5.2268-6.0355-5.6677-7.1347-2.054-5.1208-4.4808-8.7228-8.1349-11.736-0.68334-2.9954-1.9337-7.8015-2.3338-8.1349s-4.4008 5.8678-4.8009 5.9344c-3.1188-0.27553-8.617-0.42441-12.736 1.4669 0 0-6.4679-4.8009-7.6681-5.201-1.0002-0.26672 0.46675 12.269 0.066685 13.136-1.0669 1.4669-4.6322 7.1103-3.534 11.602 2.4868 10.171 12.249 13.506 21.871 13.736h-6.408e-7" style="fill-opacity:.027869;fill:#2d1650;opacity:1;paint-order:normal"/>
			<path id="bc" d="m36.988 56.685c11.512 0.27548 23.701-5.8 22.871-13.629-0.46539-4.388-5.2116-6.0179-5.6512-7.1139-2.048-5.1059-4.4678-8.6974-8.1112-11.701-0.68135-2.9867-1.9281-7.7787-2.327-8.1112-0.39891-0.33242-4.388 5.8507-4.7869 5.9172-3.1097-0.27473-8.592-0.42317-12.699 1.4627 0 0-6.449-4.7869-7.6458-5.1858-0.99727-0.26594 0.46539 12.233 0.066491 13.098-1.0638 1.4627-4.6187 7.0896-3.5237 11.568 2.4796 10.142 12.213 13.466 21.807 13.696h-5.983e-7" style="fill-opacity:.030696;fill:#2d1650;opacity:1;paint-order:normal"/>
			<path id="ab" d="m36.681 56.329c11.482 0.27475 23.639-5.7847 22.81-13.593-0.46417-4.3764-5.1979-6.002-5.6363-7.0951-2.0426-5.0924-4.456-8.6745-8.0898-11.67-0.67955-2.9788-1.923-7.7582-2.3208-8.0898-0.39786-0.33155-4.3764 5.8352-4.7743 5.9015-3.1015-0.274-8.5693-0.42205-12.665 1.4588 0 0-6.432-4.7743-7.6256-5.1721-0.99464-0.26524 0.46417 12.201 0.066315 13.063-1.061 1.4588-4.6066 7.0708-3.5144 11.538 2.473 10.115 12.181 13.431 21.749 13.66h-5.601e-7" style="fill-opacity:.033251;fill:#2d1650;opacity:1;paint-order:normal"/>
			<path id="aa" d="m36.398 56.001c11.454 0.27408 23.581-5.7706 22.755-13.56-0.46304-4.3658-5.1852-5.9874-5.6226-7.0778-2.0376-5.08-4.4451-8.6533-8.0701-11.642-0.6779-2.9716-1.9183-7.7393-2.3152-8.0701-0.39689-0.33074-4.3658 5.821-4.7627 5.8872-3.094-0.27333-8.5484-0.42103-12.634 1.4553 0 0-6.4164-4.7627-7.607-5.1595-0.99222-0.26459 0.46304 12.171 0.066154 13.031-1.0584 1.4553-4.5953 7.0536-3.5058 11.51 2.467 10.09 12.151 13.398 21.697 13.626h-5.248e-7" style="fill-opacity:.035601;fill:#2d1650;opacity:1;paint-order:normal"/>
			<path id="ad" d="m36.135 55.696c11.428 0.27346 23.528-5.7575 22.703-13.53-0.46198-4.3559-5.1734-5.9738-5.6098-7.0618-2.033-5.0684-4.435-8.6337-8.0517-11.616-0.67636-2.9648-1.9139-7.7217-2.3099-8.0517-0.39599-0.32999-4.3559 5.8078-4.7518 5.8738-3.087-0.27271-8.529-0.42007-12.606 1.452 0 0-6.4018-4.7518-7.5897-5.1478-0.98997-0.26399 0.46198 12.144 0.066003 13.002-1.056 1.452-4.5849 7.0376-3.4979 11.484 2.4614 10.067 12.124 13.368 21.647 13.596h-4.92e-7" style="fill-opacity:.037788;fill:#2d1650;opacity:1;paint-order:normal"/>
			<path id="i" d="m35.888 55.41c11.404 0.27287 23.477-5.7452 22.655-13.501-0.461-4.3465-5.1624-5.9611-5.5978-7.0467-2.0287-5.0576-4.4256-8.6152-8.0345-11.591-0.67491-2.9585-1.9098-7.7052-2.305-8.0345-0.39514-0.32928-4.3465 5.7954-4.7417 5.8612-3.0804-0.27213-8.5108-0.41917-12.579 1.4488 0 0-6.3881-4.7417-7.5735-5.1368-0.98785-0.26343 0.461 12.118 0.065862 12.974-1.0537 1.4488-4.5751 7.0226-3.4904 11.459 2.4562 10.046 12.098 13.339 21.601 13.566h-4.612e-7" style="fill-opacity:.039843;fill:#2d1650;opacity:1;paint-order:normal"/>
			<path id="w" d="m35.655 55.139c11.38 0.27232 23.43-5.7335 22.609-13.473-0.46006-4.3377-5.1519-5.949-5.5865-7.0324-2.0245-5.0474-4.4166-8.5978-8.0182-11.567-0.67354-2.9525-1.906-7.6896-2.3003-8.0182-0.39434-0.32862-4.3377 5.7836-4.7321 5.8494-3.0741-0.27158-8.4935-0.41832-12.553 1.4459 0 0-6.3752-4.7321-7.5582-5.1264-0.98585-0.26289 0.46006 12.093 0.065729 12.947-1.0516 1.4459-4.5658 7.0083-3.4833 11.436 2.4512 10.026 12.073 13.312 21.557 13.539h-4.321e-7" style="fill-opacity:.041786;fill:#2d1650;opacity:1;paint-order:normal"/>
			<path id="as" d="m35.432 54.881c11.358 0.27179 23.384-5.7225 22.565-13.447-0.45917-4.3294-5.142-5.9375-5.5757-7.0188-2.0206-5.0376-4.4081-8.5812-8.0028-11.545-0.67224-2.9468-1.9023-7.6748-2.2959-8.0028-0.39358-0.32798-4.3294 5.7725-4.7229 5.8381-3.0682-0.27105-8.4771-0.41751-12.529 1.4431 0 0-6.3628-4.7229-7.5436-5.1165-0.98394-0.26239 0.45917 12.07 0.065602 12.922-1.0495 1.4431-4.557 6.9948-3.4766 11.414 2.4464 10.006 12.05 13.286 21.516 13.513h-4.043e-7" style="fill-opacity:.043634;fill:#2d1650;opacity:1;paint-order:normal"/>
			<path id="bj" d="m35.22 54.635c11.337 0.27129 23.341-5.7119 22.523-13.422-0.45833-4.3214-5.1325-5.9265-5.5654-7.0058-2.0169-5.0283-4.3999-8.5653-7.988-11.524-0.671-2.9413-1.8988-7.6606-2.2916-7.988-0.39285-0.32738-4.3214 5.7618-4.7142 5.8273-3.0625-0.27055-8.4614-0.41674-12.506 1.4405 0 0-6.3511-4.7142-7.5296-5.1071-0.98213-0.2619 0.45833 12.047 0.06548 12.899-1.0476 1.4405-4.5486 6.9819-3.4702 11.393 2.4419 9.9877 12.028 13.262 21.476 13.488h-3.779e-7" style="fill-opacity:.0454;fill:#2d1650;opacity:1;paint-order:normal"/>
			<path id="bi" d="m35.016 54.399c11.317 0.27081 23.3-5.7017 22.483-13.399-0.45751-4.3137-5.1233-5.916-5.5555-6.9934-2.0133-5.0194-4.3921-8.5501-7.9738-11.503-0.66981-2.9361-1.8954-7.647-2.2876-7.9738-0.39215-0.32679-4.3137 5.7516-4.7058 5.8169-3.0571-0.27007-8.4464-0.416-12.484 1.4379 0 0-6.3398-4.7058-7.5163-5.098-0.98038-0.26143 0.45751 12.026 0.065364 12.876-1.0457 1.4379-4.5405 6.9695-3.464 11.372 2.4376 9.9699 12.006 13.238 21.438 13.464h-3.525e-7" style="fill-opacity:.047093;fill:#2d1650;opacity:1;paint-order:normal"/>
			<path id="bh" d="m34.82 54.172c11.298 0.27035 23.26-5.692 22.445-13.376-0.45673-4.3063-5.1146-5.9059-5.546-6.9814-2.0099-5.0108-4.3846-8.5354-7.9601-11.483-0.66866-2.9311-1.8922-7.6339-2.2836-7.9601-0.39148-0.32623-4.3063 5.7417-4.6978 5.807-3.0518-0.26961-8.4319-0.41529-12.462 1.4354 0 0-6.3289-4.6978-7.5034-5.0892-0.9787-0.26099 0.45673 12.005 0.065252 12.854-1.0439 1.4354-4.5327 6.9575-3.4581 11.353 2.4334 9.9529 11.986 13.216 21.401 13.441h-3.28e-7" style="fill-opacity:.048723;fill:#2d1650;opacity:1;paint-order:normal"/>
			<path id="bp" d="m34.631 53.953c11.279 0.2699 23.221-5.6825 22.408-13.353-0.45597-4.2992-5.1061-5.8961-5.5368-6.9699-2.0065-5.0025-4.3773-8.5213-7.9469-11.464-0.66755-2.9262-1.889-7.6212-2.2799-7.9469s-4.2992 5.7322-4.69 5.7974c-3.0468-0.26916-8.418-0.4146-12.442 1.4331 0 0-6.3185-4.69-7.491-5.0808-0.97708-0.26056 0.45597 11.986 0.065144 12.832-1.0422 1.4331-4.5252 6.946-3.4524 11.334 2.4294 9.9364 11.966 13.194 21.366 13.419h-3.044e-7" style="fill-opacity:.050295;fill:#2d1650;opacity:1;paint-order:normal"/>
			<path id="ah" d="m34.448 53.74c11.261 0.26947 23.184-5.6734 22.372-13.332-0.45524-4.2923-5.0979-5.8866-5.5279-6.9587-2.0033-4.9945-4.3703-8.5077-7.9342-11.446-0.66648-2.9215-1.886-7.609-2.2762-7.9342-0.39021-0.32517-4.2923 5.723-4.6825 5.7881-3.0419-0.26873-8.4045-0.41394-12.422 1.4308 0 0-6.3083-4.6825-7.4789-5.0727-0.97551-0.26014 0.45524 11.966 0.06504 12.812-1.0405 1.4308-4.518 6.9349-3.4468 11.316 2.4255 9.9205 11.947 13.173 21.331 13.397h-2.815e-7" style="fill-opacity:.051816;fill:#2d1650;opacity:1;paint-order:normal"/>
			<path id="ai" d="m34.271 53.535c11.244 0.26905 23.148-5.6646 22.337-13.311-0.45453-4.2856-5.09-5.8775-5.5193-6.9478-2.0002-4.9867-4.3635-8.4944-7.9218-11.428-0.66545-2.917-1.8831-7.5972-2.2727-7.9218-0.3896-0.32467-4.2856 5.7141-4.6752 5.779-3.0372-0.26831-8.3914-0.41329-12.402 1.4285 0 0-6.2985-4.6752-7.4673-5.0648-0.974-0.25973 0.45453 11.948 0.064938 12.792-1.0389 1.4285-4.5109 6.9241-3.4415 11.298 2.4217 9.905 11.928 13.152 21.298 13.376h-2.595e-7" style="fill-opacity:.05329;fill:#2d1650;opacity:1;paint-order:normal"/>
			<path id="v" d="m34.099 53.335c11.227 0.26864 23.113-5.656 22.303-13.291-0.45384-4.2791-5.0823-5.8686-5.511-6.9373-1.9972-4.9791-4.3569-8.4815-7.9098-11.411-0.66444-2.9126-1.8802-7.5857-2.2692-7.9098-0.38901-0.32417-4.2791 5.7055-4.6681 5.7703-3.0326-0.26791-8.3787-0.41267-12.383 1.4264 0 0-6.289-4.6681-7.456-5.0571-0.97252-0.25934 0.45384 11.93 0.06484 12.772-1.0374 1.4264-4.5041 6.9136-3.4362 11.281 2.418 9.89 11.91 13.132 21.266 13.356h-2.38e-7" style="fill-opacity:.054722;fill:#2d1650;opacity:1;paint-order:normal"/>
			<path id="ag" d="m33.932 53.141c11.21 0.26824 23.079-5.6477 22.27-13.272-0.45317-4.2728-5.0748-5.8599-5.5028-6.9271-1.9942-4.9718-4.3505-8.469-7.8982-11.394-0.66346-2.9083-1.8774-7.5745-2.2659-7.8982s-4.2728 5.697-4.6612 5.7618c-3.0281-0.26751-8.3663-0.41206-12.365 1.4243 0 0-6.2797-4.6612-7.445-5.0497-0.97109-0.25896 0.45317 11.912 0.064744 12.754-1.0358 1.4243-4.4975 6.9034-3.4312 11.265 2.4145 9.8754 11.893 13.113 21.234 13.336h-2.171e-7" style="fill-opacity:.056114;fill:#2d1650;opacity:1;paint-order:normal"/>
			<path id="al" d="m33.769 52.952c11.194 0.26786 23.046-5.6396 22.238-13.252-0.45252-4.2666-5.0675-5.8515-5.4949-6.9171-1.9914-4.9646-4.3442-8.4569-7.8868-11.378-0.6625-2.9041-1.8747-7.5636-2.2626-7.8868-0.38788-0.32323-4.2666 5.6889-4.6545 5.7535-3.0237-0.26713-8.3543-0.41147-12.347 1.4222 0 0-6.2707-4.6545-7.4343-5.0424-0.96969-0.25858 0.45252 11.895 0.064651 12.735-1.0343 1.4222-4.491 6.8935-3.4262 11.248 2.411 9.8612 11.875 13.094 21.204 13.317h-1.968e-7" style="fill-opacity:.05747;fill:#2d1650;opacity:1;paint-order:normal"/>
			<path id="aw" d="m33.61 52.768c11.178 0.26748 23.013-5.6316 22.207-13.234-0.45189-4.2606-5.0604-5.8433-5.4872-6.9074-1.9886-4.9577-4.3381-8.445-7.8757-11.362-0.66157-2.9-1.8721-7.553-2.2594-7.8757-0.38733-0.32278-4.2606 5.6809-4.648 5.7454-3.0195-0.26675-8.3426-0.41089-12.33 1.4202 0 0-6.2619-4.648-7.4239-5.0353-0.96833-0.25822 0.45189 11.878 0.06456 12.717-1.0329 1.4202-4.4847 6.8838-3.4214 11.233 2.4076 9.8474 11.859 13.075 21.174 13.298h-1.77e-7" style="fill-opacity:.058792;fill:#2d1650;opacity:1;paint-order:normal"/>
			<path id="ax" d="m33.454 52.588c11.163 0.26711 22.982-5.6239 22.176-13.216-0.45127-4.2548-5.0534-5.8352-5.4797-6.8979-1.9858-4.9509-4.3321-8.4334-7.8649-11.346-0.66067-2.896-1.8695-7.5426-2.2563-7.8649s-4.2548 5.6731-4.6416 5.7375c-3.0153-0.26639-8.3311-0.41032-12.313 1.4183 0 0-6.2533-4.6416-7.4137-5.0284-0.967-0.25787 0.45127 11.862 0.064472 12.7-1.0315 1.4183-4.4785 6.8743-3.4167 11.217 2.4043 9.8339 11.842 13.058 21.145 13.28h-1.576e-7" style="fill-opacity:.060083;fill:#2d1650;opacity:1;paint-order:normal"/>
			<path id="ay" d="m33.303 52.412c11.148 0.26675 22.951-5.6163 22.147-13.198-0.45066-4.2491-5.0466-5.8274-5.4723-6.8886-1.9832-4.9442-4.3263-8.422-7.8543-11.331-0.65978-2.8921-1.867-7.5324-2.2533-7.8543-0.38628-0.3219-4.2491 5.6654-4.6353 5.7298-3.0113-0.26603-8.3199-0.40977-12.297 1.4164 0 0-6.2448-4.6353-7.4037-5.0216-0.9657-0.25752 0.45066 11.846 0.064385 12.683-1.0301 1.4164-4.4725 6.8651-3.4121 11.202 2.4011 9.8206 11.826 13.04 21.117 13.262h-1.386e-7" style="fill-opacity:.061345;fill:#2d1650;opacity:1;paint-order:normal"/>
			<path id="az" d="m33.154 52.24c11.133 0.2664 22.921-5.6089 22.117-13.18-0.45006-4.2435-5.04-5.8197-5.4651-6.8796-1.9806-4.9377-4.3206-8.4109-7.844-11.316-0.65891-2.8883-1.8646-7.5225-2.2503-7.844-0.38577-0.32147-4.2435 5.658-4.6292 5.7223-3.0073-0.26568-8.3089-0.40923-12.28 1.4145 0 0-6.2366-4.6292-7.3939-5.015-0.96443-0.25718 0.45006 11.83 0.0643 12.666-1.0287 1.4145-4.4666 6.856-3.4076 11.187 2.3979 9.8077 11.811 13.023 21.089 13.245h-1.201e-7" style="fill-opacity:.06258;fill:#2d1650;opacity:1;paint-order:normal"/>
			<path id="av" d="m33.009 52.071c11.119 0.26606 22.891-5.6017 22.089-13.163-0.44948-4.238-5.0334-5.8122-5.458-6.8707-1.978-4.9313-4.315-8.4001-7.8339-11.301-0.65806-2.8846-1.8621-7.5128-2.2474-7.8339s-4.238 5.6507-4.6233 5.7149c-3.0034-0.26533-8.2982-0.4087-12.264 1.4127 0 0-6.2286-4.6233-7.3844-5.0085-0.96318-0.25685 0.44948 11.815 0.064217 12.65-1.0274 1.4127-4.4608 6.8472-3.4032 11.173 2.3948 9.795 11.796 13.006 21.062 13.228h-1.019e-7" style="fill-opacity:.06379;fill:#2d1650;opacity:1;paint-order:normal"/>
			<path id="y" d="m32.866 51.906c11.105 0.26572 22.862-5.5946 22.061-13.147-0.44891-4.2326-5.0271-5.8048-5.4511-6.862-1.9755-4.925-4.3096-8.3894-7.8239-11.287-0.65722-2.8809-1.8598-7.5033-2.2446-7.8239-0.38478-0.32065-4.2326 5.6435-4.6174 5.7076-2.9996-0.265-8.2877-0.40818-12.249 1.4109 0 0-6.2207-4.6174-7.375-5.0022-0.96196-0.25652 0.44891 11.8 0.064136 12.634-1.0261 1.4109-4.4552 6.8385-3.3989 11.159 2.3918 9.7826 11.781 12.989 21.035 13.211h-8.42e-8" style="fill-opacity:.064976;fill:#2d1650;opacity:1;paint-order:normal"/>
			<path id="x" d="m32.726 51.744c11.091 0.26539 22.833-5.5876 22.033-13.13-0.44835-4.2273-5.0208-5.7976-5.4443-6.8534-1.973-4.9189-4.3042-8.379-7.8142-11.273-0.6564-2.8773-1.8575-7.4939-2.2418-7.8142-0.3843-0.32025-4.2273 5.6365-4.6116 5.7005-2.9959-0.26467-8.2774-0.40768-12.234 1.4091 0 0-6.2129-4.6116-7.3658-4.9959-0.96076-0.2562 0.44835 11.785 0.064056 12.618-1.0248 1.4091-4.4496 6.83-3.3947 11.145 2.3888 9.7704 11.766 12.973 21.009 13.194h-6.67e-8" style="fill-opacity:.066139;fill:#2d1650;opacity:1;paint-order:normal"/>
			<path id="at" d="m32.589 51.585c11.077 0.26507 22.805-5.5808 22.006-13.114-0.44781-4.2222-5.0147-5.7905-5.4376-6.845-1.9706-4.9129-4.2989-8.3687-7.8046-11.259-0.6556-2.8738-1.8552-7.4847-2.239-7.8046-0.38383-0.31986-4.2222 5.6296-4.606 5.6935-2.9922-0.26434-8.2672-0.40718-12.219 1.4074 0 0-6.2053-4.606-7.3568-4.9898-0.95958-0.25589 0.44781 11.771 0.063977 12.603-1.0236 1.4074-4.4442 6.8216-3.3905 11.131 2.3859 9.7584 11.752 12.957 20.983 13.178h-4.97e-8" style="fill-opacity:.06728;fill:#2d1650;opacity:1;paint-order:normal"/>
			<path id="u" d="m32.454 51.428c11.064 0.26475 22.778-5.5741 21.98-13.099-0.44727-4.2171-5.0086-5.7835-5.4311-6.8368-1.9682-4.907-4.2937-8.3586-7.7952-11.246-0.65481-2.8704-1.853-7.4757-2.2363-7.7952-0.38337-0.31948-4.2171 5.6228-4.6005 5.6867-2.9886-0.26402-8.2573-0.40669-12.204 1.4057 0 0-6.1978-4.6005-7.3479-4.9838-0.95843-0.25558 0.44727 11.757 0.0639 12.587-1.0223 1.4057-4.4388 6.8134-3.3864 11.118 2.383 9.7467 11.737 12.942 20.958 13.162h-3.28e-8" style="fill-opacity:.068402;fill:#2d1650;opacity:1;paint-order:normal"/>
			<path id="q" d="m32.322 51.275c11.051 0.26443 22.751-5.5675 21.954-13.083-0.44674-4.2121-5.0027-5.7767-5.4247-6.8287-1.9659-4.9012-4.2887-8.3487-7.786-11.232-0.65403-2.867-1.8508-7.4669-2.2337-7.786s-4.2121 5.6161-4.595 5.6799c-2.9851-0.26371-8.2475-0.4062-12.19 1.404 0 0-6.1905-4.595-7.3392-4.9779-0.95729-0.25528 0.44674 11.743 0.063824 12.572-1.0211 1.404-4.4336 6.8053-3.3824 11.105 2.3802 9.7351 11.724 12.926 20.933 13.147h-1.63e-8" style="fill-opacity:.069504;fill:#2d1650;opacity:1;paint-order:normal"/>
			<path id="bb" d="m32.191 51.124c11.038 0.26412 22.724-5.561 21.928-13.068-0.44622-4.2072-4.9968-5.7699-5.4183-6.8207-1.9636-4.8954-4.2837-8.339-7.7769-11.219-0.65327-2.8636-1.8486-7.4582-2.2311-7.7769s-4.2072 5.6096-4.5896 5.6733c-2.9816-0.2634-8.2379-0.40573-12.175 1.4024 0 0-6.1833-4.5896-7.3307-4.9721-0.95618-0.25498 0.44622 11.729 0.06375 12.558-1.0199 1.4024-4.4284 6.7974-3.3785 11.092 2.3774 9.7238 11.71 12.911 20.908 13.131" style="fill-opacity:.070588;fill:#2d1650;opacity:1;paint-order:normal"/>
		</g>
	</g>
	<path id="bm" d="m2 0-2 1v1h64v-1l-2-1h-30z" color="#000000" fill="#65d6ff"/>
	<path id="bo" d="m0 1v3l2-2z" fill="#94e2ff"/>
	<path id="af" d="m64 4-2-2 2-1z" fill="#49b4f7" fill-opacity=".98627"/>
	<g id="bn">
		<path id="f" d="m32.191 51.124c11.038 0.26412 22.724-5.561 21.928-13.068-0.44622-4.2072-4.9968-5.7699-5.4183-6.8207-1.9636-4.8954-4.2837-8.339-7.7769-11.219-0.65327-2.8636-1.8486-7.4582-2.2311-7.7769s-4.2072 5.6096-4.5896 5.6733c-2.9816-0.2634-8.2379-0.40573-12.175 1.4024 0 0-6.1833-4.5896-7.3307-4.9721-0.95618-0.25498 0.44622 11.729 0.06375 12.558-1.0199 1.4024-4.4284 6.7974-3.3785 11.092 2.3774 9.7238 11.71 12.911 20.908 13.131z" style="fill:url(#b);paint-order:normal"/>
		<path id="j" d="m48.998 31.617c-6.6405-0.09658-9.2383 2.8457-11.771 2.9961-3.063 0.18183-16.262-1.8378-17.975 5.6094-0.89343 3.8842 5.6085 9.1245 13.221 10.898 6.16e-4 1.43e-4 0.001338-1.44e-4 0.001953 0 0.024711 3.59e-4 0.049503-0.002252 0.074219-0.001953 1.3448 0.016248 2.6971-0.054448 4.0332-0.20898 0.67446-0.078008 1.3446-0.17643 2.0078-0.29492 0.00581-0.001039 0.011769-9.1e-4 0.017578-0.001953 0.04822-0.008642 0.094435-0.022399 0.14258-0.03125 0.61962-0.11391 1.2338-0.24116 1.8379-0.38867 0.65108-0.15897 1.2928-0.33723 1.9199-0.5332 0.62051-0.19392 1.2274-0.40664 1.8184-0.63476 0.006387-0.00247 0.013148-0.003386 0.019531-0.00586 0.076599-0.029633 0.14661-0.065514 0.22266-0.095703 0.50711-0.20133 1.0062-0.40948 1.4863-0.63477 0.11631-0.054647 0.22331-0.11587 0.33789-0.17187 0.44008-0.21484 0.87645-0.43376 1.2891-0.66797 0.099089-0.056319 0.18776-0.11838 0.28516-0.17578 0.41179-0.24238 0.81785-0.489 1.1973-0.75 0.13692-0.094313 0.25626-0.19828 0.38867-0.29492 0.31579-0.23022 0.63324-0.45822 0.92188-0.70117 0.17064-0.14374 0.316-0.29732 0.47656-0.44531 0.23891-0.22004 0.48772-0.43696 0.70312-0.66602 0.16984-0.1806 0.3319-0.36289 0.48633-0.54883 0.07664-0.092327 0.14603-0.18765 0.21875-0.28125 0.079719-0.10256 0.16339-0.20454 0.23828-0.30859 0.052998-0.073668 0.099857-0.14826 0.15039-0.22266 0.088187-0.12978 0.1773-0.25868 0.25781-0.39063 0.001231-0.002017 0.002678-0.003841 0.003907-0.005859 0.022345-0.036682 0.040758-0.074482 0.0625-0.11133 0.098113-0.16627 0.19373-0.33438 0.2793-0.50391 6.62e-4 -0.001311 0.001293-0.002595 0.001954-0.003907 0.014987-0.02973 0.026422-0.060015 0.041015-0.089843 0.087443-0.17873 0.17111-0.35693 0.24414-0.53906 2.29e-4 -5.72e-4 -2.29e-4 -0.001381 0-0.001953 0.004929-0.0123 0.00881-0.024794 0.013672-0.037109 0.078835-0.19969 0.15003-0.40191 0.21094-0.60547 4.09e-4 -0.001367 0.001545-0.00254 0.001953-0.003906 0.012934-0.043319 0.0211-0.087371 0.033204-0.13086 0.04867-0.17487 0.093901-0.34982 0.12891-0.52734 0.026556-0.13468 0.042059-0.27206 0.060547-0.4082 0.011451-0.084272 0.028803-0.16714 0.037109-0.25195 0.019753-0.2017 0.027731-0.40672 0.029297-0.61133 1.94e-4 -0.026226 0.004016-0.051852 0.003906-0.078125-5e-6 -0.001291 6e-6 -0.002615 0-0.003906-0.001094-0.22921-0.014394-0.46078-0.039062-0.69336-0.033007-0.3112-0.091437-0.60488-0.16797-0.88672-0.006861-0.026068-0.016255-0.050334-0.023438-0.076172-0.076518-0.26711-0.16727-0.52518-0.27344-0.76953-0.96217-2.2146-3.0638-3.4713-4.2051-4.3398-0.005621-0.004278-0.01001-0.007442-0.015625-0.011719-0.16073-0.12283-0.32158-0.24674-0.43555-0.35547z" style="fill:#ffffff;paint-order:normal"/>
		<path id="aj" d="m21.996 24.154c-5.1213 2.5739 0.82942 13.281 6.1192 10.902 4.9596-2.2309-1.4844-13.231-6.1192-10.902z" style="fill:#ffffff;paint-order:normal;stroke:#3a3d52"/>
		<path id="g" d="m38.124 21.859c-4.8814 2.6739 1.6581 13.217 6.4379 10.647 4.7896-2.5758-2.5401-12.782-6.4379-10.647z" style="fill:#ffffff;paint-order:normal;stroke:#3a3d52"/>
		<circle id="aq" cx="25.775" cy="31.453" r="1.2112" style="fill:#3a3d52;paint-order:normal"/>
		<circle id="z" cx="42.476" cy="29.285" r="1.2112" style="fill:#3a3d52;paint-order:normal"/>
		<path id="am" d="m28.558 37.992c4.3639 3.4158 11.777 3.426 15.745 3.3785 2.4847-0.02976-4.9388 6.5834-11.665 5.6733-5.055-0.68393-5.7029-9.2923-4.0797-9.0518z" style="fill:none;paint-order:normal;stroke:#3a3d52"/>
		<path id="ak" d="m37.737 37.291c-1.0815 0.14456-4.6316-2.3684-4.5259-2.9323 0.19124-1.0199 6.3745-2.0398 6.8845-1.1474 0.31873 0.38247-1.1883 3.9233-2.3586 4.0797z" style="fill:url(#c);paint-order:normal"/>
		<path id="r" d="m13.068 36.271-8.988-4.2709" style="fill:none;paint-order:normal;stroke:#3a3d52"/>
		<path id="l" d="m13.195 38.502-8.4781 0.63745" style="fill:none;paint-order:normal;stroke:#3a3d52"/>
		<path id="n" d="m13.578 40.733-6.6295 1.0199" style="fill:none;paint-order:normal;stroke:#3a3d52"/>
		<path id="o" d="m52.717 34.359 6.4382-1.5936" style="fill:none;paint-order:normal;stroke:#3a3d52"/>
		<path id="h" d="m54.183 36.59 3.8884-0.50996" style="fill:none;paint-order:normal;stroke:#3a3d52"/>
		<path id="au" d="m54.311 40.096 3.251 0.19124" style="fill:none;paint-order:normal;stroke:#3a3d52"/>
		<path id="m" d="m32.191 51.124c11.038 0.26412 22.724-5.561 21.928-13.068-0.44622-4.2072-4.9968-5.7699-5.4183-6.8207-1.9636-4.8954-4.2837-8.339-7.7769-11.219-0.65327-2.8636-1.8486-7.4582-2.2311-7.7769s-4.2072 5.6096-4.5896 5.6733c-2.9816-0.2634-8.2379-0.40573-12.175 1.4024 0 0-6.1833-4.5896-7.3307-4.9721-0.95618-0.25498 0.44622 11.729 0.06375 12.558-1.0199 1.4024-4.4284 6.7974-3.3785 11.092 2.3774 9.7238 11.71 12.911 20.908 13.131z" style="fill:none;paint-order:normal;stroke:#3a3d52"/>
	</g>
</svg>
