<?xml version="1.0" encoding="UTF-8" standalone="no"?>
<svg
   xmlns:dc="http://purl.org/dc/elements/1.1/"
   xmlns:cc="http://creativecommons.org/ns#"
   xmlns:rdf="http://www.w3.org/1999/02/22-rdf-syntax-ns#"
   xmlns:svg="http://www.w3.org/2000/svg"
   xmlns="http://www.w3.org/2000/svg"
   xmlns:xlink="http://www.w3.org/1999/xlink"
   width="64"
   height="64"
   version="1.1"
   id="svg61">
  <defs
     id="defs29">
    <linearGradient
       id="c">
      <stop
         stop-color="#f4fd3f"
         offset="0"
         id="stop2" />
      <stop
         stop-color="#e1957e"
         offset=".1775"
         id="stop4" />
      <stop
         stop-color="#d03dc6"
         offset=".35373"
         id="stop6"
         style="stop-color:#ad49eb;stop-opacity:1" />
      <stop
         stop-color="#3d4380"
         offset=".63167"
         id="stop8"
         style="stop-color:#42447e;stop-opacity:1" />
      <stop
         stop-color="#284870"
         offset="1"
         id="stop10"
         style="stop-color:#5c37de;stop-opacity:1" />
    </linearGradient>
    <radialGradient
       id="a"
       cx="33.649933"
       cy="41.942272"
       r="26"
       gradientTransform="matrix(0.55605808,0,0,0.5521617,21.43537,11.520503)"
       gradientUnits="userSpaceOnUse"
       fx="33.649933"
       fy="41.942272">
      <stop
         stop-color="#27538f"
         offset="0"
         id="stop18"
         style="stop-color:#315d67;stop-opacity:1" />
      <stop
         stop-color="#923999"
         offset="1"
         id="stop20"
         style="stop-color:#1c334f;stop-opacity:1" />
    </radialGradient>
    <radialGradient
       id="i"
       cx="10.959"
       cy="27.763"
       r="15.31"
       fx="23.392"
       fy="27.995"
       gradientTransform="matrix(2,9.5928e-8,-1.0155e-6,1.6526,-15.917,-21.881)"
       gradientUnits="userSpaceOnUse"
       xlink:href="#c" />
    <radialGradient
       id="h"
       cx="-8.1684"
       cy="21.473"
       r="13"
       fx="-12.936"
       gradientTransform="matrix(0,1.9243,-3.0232,3.3538e-6,92.792,51.367)"
       gradientUnits="userSpaceOnUse"
       xlink:href="#c" />
    <radialGradient
       id="g"
       cx="-7.8381"
       cy="19.982"
       r="15.021"
       fx="-7.7844"
       fy="9.702"
       gradientTransform="matrix(1.2114,-0.69942,0.68716,1.1901,28.398,19.575)"
       gradientUnits="userSpaceOnUse"
       xlink:href="#c" />
    <radialGradient
       id="f"
       cx="40.561"
       cy="-15.179"
       r="26"
       gradientTransform="matrix(1.1776,3.0379e-6,0,0.84976,-4.0513,52.61)"
       gradientUnits="userSpaceOnUse"
       xlink:href="#c" />
    <radialGradient
       id="e"
       cx="25.954"
       cy="24.005"
       r="15.021"
       gradientTransform="matrix(1.4003,0.79255,-1.1902,2.103,35.283,-41.775)"
       gradientUnits="userSpaceOnUse"
       xlink:href="#c" />
    <radialGradient
       id="d"
       cx="22.08"
       cy="20.3"
       r="15.31"
       gradientTransform="matrix(1.1281,2.0769,-1.5268,0.82929,42.192,-40.939)"
       gradientUnits="userSpaceOnUse"
       xlink:href="#c" />
    <radialGradient
       xlink:href="#linearGradient4483"
       id="radialGradient4487"
       cx="32"
       cy="60.253944"
       fx="32"
       fy="60.253944"
       r="30"
       gradientTransform="matrix(2.1945173,1.5130023e-8,-1.3333333e-8,1.9339184,-38.224553,-59.916877)"
       gradientUnits="userSpaceOnUse"
       spreadMethod="pad" />
    <linearGradient
       id="linearGradient4483">
      <stop
         style="stop-color:#7645d3;stop-opacity:1"
         offset="0"
         id="stop4479" />
      <stop
         id="stop4491"
         offset="0.20931257"
         style="stop-color:#7348d2;stop-opacity:1" />
      <stop
         id="stop4489"
         offset="0.50827432"
         style="stop-color:#5c5ec8;stop-opacity:1" />
      <stop
         style="stop-color:#3f7abb;stop-opacity:1"
         offset="0.72988421"
         id="stop4493" />
      <stop
         style="stop-color:#199fab;stop-opacity:1"
         offset="1"
         id="stop4481" />
    </linearGradient>
    <radialGradient
       xlink:href="#radialGradient2122"
       id="radialGradient4745"
       gradientUnits="userSpaceOnUse"
       gradientTransform="matrix(1.1998795e-8,3.2648446,-0.99968648,0,40.235958,-73.423021)"
       cx="23.340954"
       cy="8.1887512"
       fx="23.340954"
       fy="8.1887512"
       r="32" />
    <radialGradient
       gradientUnits="userSpaceOnUse"
       gradientTransform="matrix(1.8449,0,0,1.8449,-10.998,-11.484)"
       r="32"
       cy="21.075001"
       cx="18.160999"
       id="radialGradient2122"
       fx="18.160999"
       fy="21.075001"
       fr="0"
       spreadMethod="pad">
      <stop
         id="stop2118"
         offset="0"
         stop-color="#294c79"
         style="stop-color:#005075;stop-opacity:1" />
      <stop
         id="stop2120"
         offset="1"
         stop-color="#27456a"
         style="stop-color:#1c334f;stop-opacity:1" />
    </radialGradient>
    <radialGradient
       xlink:href="#linearGradient930"
       id="radialGradient4987"
       gradientUnits="userSpaceOnUse"
       gradientTransform="matrix(0,1.8448501,-0.93266272,0,30.330497,-58.687547)"
       cx="32.709324"
       cy="32.12244"
       fx="32.709324"
       fy="32.12244"
       r="31.746094" />
    <linearGradient
       id="linearGradient930">
      <stop
         style="stop-color:#ffffff;stop-opacity:0.3761062"
         offset="0"
         id="stop926" />
      <stop
         style="stop-color:#24ffee;stop-opacity:0.16371681"
         offset="1"
         id="stop928" />
    </linearGradient>
    <radialGradient
       xlink:href="#radialGradient2122-6"
       id="radialGradient4745-3"
       gradientUnits="userSpaceOnUse"
       gradientTransform="matrix(1.1998795e-8,3.2648446,-0.99968648,0,40.235958,-73.423021)"
       cx="23.340954"
       cy="8.1887512"
       fx="23.340954"
       fy="8.1887512"
       r="32" />
    <radialGradient
       gradientUnits="userSpaceOnUse"
       gradientTransform="matrix(1.8449,0,0,1.8449,-10.998,-11.484)"
       r="32"
       cy="21.075001"
       cx="18.160999"
       id="radialGradient2122-6"
       fx="18.160999"
       fy="21.075001"
       fr="0"
       spreadMethod="pad">
      <stop
         id="stop2118-7"
         offset="0"
         stop-color="#294c79"
         style="stop-color:#005075;stop-opacity:1" />
      <stop
         id="stop2120-5"
         offset="1"
         stop-color="#27456a"
         style="stop-color:#1c334f;stop-opacity:1" />
    </radialGradient>
    <radialGradient
       r="31.746094"
       fy="-1.7900395"
       fx="32"
       cy="-1.7900395"
       cx="32"
       gradientTransform="matrix(0,0.08891455,-2.797017,0,26.993229,-2.4976092)"
       gradientUnits="userSpaceOnUse"
       id="radialGradient2296"
       xlink:href="#linearGradient930-3" />
    <linearGradient
       id="linearGradient930-3">
      <stop
         style="stop-color:#ffffff;stop-opacity:0.24267782"
         offset="0"
         id="stop926-5" />
      <stop
         style="stop-color:#24ffee;stop-opacity:0.0167364"
         offset="1"
         id="stop928-6" />
    </linearGradient>
    <radialGradient
       r="31.746094"
       fy="-1.7900395"
       fx="32"
       cy="-1.7900395"
       cx="32"
       gradientTransform="matrix(0,0.08429842,-2.797017,0,26.993229,-2.3498931)"
       gradientUnits="userSpaceOnUse"
       id="radialGradient2294"
       xlink:href="#linearGradient930-3" />
    <radialGradient
       r="31.746094"
       fy="-1.7900395"
       fx="32.513203"
       cy="-1.7900395"
       cx="32.513203"
       gradientTransform="matrix(0,0.68805745,-2.797017,0,26.993229,-21.670182)"
       gradientUnits="userSpaceOnUse"
       id="radialGradient848"
       xlink:href="#linearGradient930-3" />
    <radialGradient
       xlink:href="#linearGradient930-3"
       id="radialGradient4987-2"
       gradientUnits="userSpaceOnUse"
       gradientTransform="matrix(0,0.68805745,-2.797017,0,26.993229,-21.670182)"
       cx="32"
       cy="-1.7900395"
       fx="32"
       fy="-1.7900395"
       r="31.746094" />
    <radialGradient
       r="31.746094"
       fy="-1.7900395"
       fx="32"
       cy="-1.7900395"
       cx="32"
       gradientTransform="matrix(0,0.68805745,-2.797017,0,26.993229,-21.670182)"
       gradientUnits="userSpaceOnUse"
       id="radialGradient2290"
       xlink:href="#linearGradient930-3" />
    <radialGradient
       r="31.746094"
       fy="-1.7900395"
       fx="32"
       cy="-1.7900395"
       cx="32"
       gradientTransform="matrix(0,0.09008463,-2.797017,0,26.993229,-2.5350518)"
       gradientUnits="userSpaceOnUse"
       id="radialGradient2292"
       xlink:href="#linearGradient930-3" />
  </defs>
  <metadata
     id="metadata31">
    <rdf:RDF>
      <cc:Work
         rdf:about="">
        <dc:format>image/svg+xml</dc:format>
        <dc:type
           rdf:resource="http://purl.org/dc/dcmitype/StillImage" />
        <dc:title></dc:title>
      </cc:Work>
    </rdf:RDF>
  </metadata>
  <g
     id="g885">
    <path
       id="path16"
       d="M 32,0 C 15.364933,0 1.1816406,1.1015625 1.1816406,1.1015625 0.31175763,1.1714444 0,1.4145127 0,1.9316406 V 58.632812 c 0,0.842925 0.57606114,1.478594 1.3046875,1.673829 C 5.4311186,61.242596 18.715337,64 32,64 45.284663,64 58.568882,61.242596 62.695312,60.306641 63.423939,60.111406 64,59.475737 64,58.632812 V 1.9316406 C 64,1.4145127 63.688242,1.1714444 62.818359,1.1015625 62.818359,1.1015625 48.635067,0 32,0 Z"
       style="color:#000000;fill:url(#radialGradient4745-3)" />
    <path
       id="path888"
       class="ColorScheme-Text"
       style="color:#090d11;fill:#a3bee1;fill-opacity:0.26548671;stroke-width:0.29088637"
       d="m 33.163545,57.747924 c -0.16118,0 -0.290886,0.129706 -0.290886,0.290886 v 0.87266 c 0,0.16118 0.129706,0.290886 0.290886,0.290886 h 0.87266 c 0.16118,0 0.290886,-0.129706 0.290886,-0.290886 v -0.87266 c 0,-0.16118 -0.129706,-0.290886 -0.290886,-0.290886 z m -2.908863,0.290886 c -0.16118,0 -0.290887,0.129707 -0.290887,0.290887 v 0.290886 c 0,0.16118 0.129707,0.290887 0.290887,0.290887 h 0.290886 c 0.16118,0 0.290887,-0.129707 0.290887,-0.290887 v -0.290886 c 0,-0.16118 -0.129707,-0.290887 -0.290887,-0.290887 z m 1.454431,0 c -0.16118,0 -0.290886,0.129707 -0.290886,0.290887 v 0.581773 c 0,0.16118 0.129706,0.290886 0.290886,0.290886 h 0.581774 c 0.16118,0 0.290886,-0.129706 0.290886,-0.290886 v -0.581773 c 0,-0.16118 -0.129706,-0.290887 -0.290886,-0.290887 z m -1.454431,1.454432 c -0.16118,0 -0.290887,0.129706 -0.290887,0.290886 v 0.581774 c 0,0.16118 0.129707,0.290886 0.290887,0.290886 h 0.581773 c 0.16118,0 0.290886,-0.129706 0.290886,-0.290886 v -0.581774 c 0,-0.16118 -0.129706,-0.290886 -0.290886,-0.290886 z m 1.454431,0 c -0.16118,0 -0.290886,0.129706 -0.290886,0.290886 v 0.581774 c 0,0.16118 0.129706,0.290886 0.290886,0.290886 h 0.581774 c 0.16118,0 0.290886,-0.129706 0.290886,-0.290886 v -0.581774 c 0,-0.16118 -0.129706,-0.290886 -0.290886,-0.290886 z m 1.454432,0 c -0.16118,0 -0.290886,0.129706 -0.290886,0.290886 v 0.581774 c 0,0.16118 0.129706,0.290886 0.290886,0.290886 h 0.581773 c 0.16118,0 0.290887,-0.129706 0.290887,-0.290886 v -0.581774 c 0,-0.16118 -0.129707,-0.290886 -0.290887,-0.290886 z m -3.19975,1.454432 c -0.16118,0 -0.290886,0.129706 -0.290886,0.290886 v 0.87266 c 0,0.16118 0.129706,0.290886 0.290886,0.290886 h 0.87266 c 0.16118,0 0.290886,-0.129706 0.290886,-0.290886 v -0.87266 c 0,-0.16118 -0.129706,-0.290886 -0.290886,-0.290886 z m 1.745318,0 c -0.16118,0 -0.290886,0.129706 -0.290886,0.290886 v 0.581773 c 0,0.16118 0.129706,0.290887 0.290886,0.290887 h 0.581774 c 0.16118,0 0.290886,-0.129707 0.290886,-0.290887 V 61.23856 c 0,-0.16118 -0.129706,-0.290886 -0.290886,-0.290886 z m 1.745319,0.290886 c -0.16118,0 -0.290887,0.129707 -0.290887,0.290887 v 0.290886 c 0,0.16118 0.129707,0.290887 0.290887,0.290887 h 0.290886 c 0.16118,0 0.290887,-0.129707 0.290887,-0.290887 v -0.290886 c 0,-0.16118 -0.129707,-0.290887 -0.290887,-0.290887 z" />
    <g
       id="g2308">
      <path
         d="m 32,0.10438319 c -8.764736,0 -19.154205,0.41873312 -24.3510697,0.71204742 C 3.6697078,1.0125654 1.167523,1.2106629 1.1347268,1.2153285 c -0.63932783,0.0515 -0.88381963,0.2257671 -0.90895417,0.592577 -0.015755,0.00319 -0.0281435,2.4843892 -0.0398767,6.2071145 -0.0100122,3.722511 -0.0188751,8.685394 -0.0275619,13.648263 -0.0104198,4.96331 -0.0322075,9.928451 -0.0340125,13.650022 -0.005269,3.725174 -0.008268,6.208209 -0.0129013,6.212392 -0.005308,0.341567 0.13104607,0.627493 0.33560787,0.843857 0.0875054,0.04967 0.1846244,0.0986 0.30144029,0.135139 0.0870427,0.02515 0.17465328,0.0078 0.24553301,-0.04387 0.0708798,-0.05649 0.1119854,-0.128256 0.1115593,-0.218892 -4.684e-4,0.0052 -0.019589,-2.49792 -0.044574,-6.247183 C 1.0362903,32.239023 1.0053278,27.23147 0.97230718,22.223849 0.9389938,17.216251 0.90568042,29.288792 0.88069539,25.533093 0.85571035,21.871506 0.86698001,19.454 1.0730362,19.5023 2.324036,19.437436 5.2830216,1.9927485 9.2112549,1.8760526 14.122138,1.7067866 23.252384,1.4254808 32,1.4254807 c 8.747616,1e-7 17.877862,0.2813059 22.788745,0.450572 3.928233,0.1166958 6.887219,17.5613833 8.138218,17.6262473 0.206058,-0.0483 0.217326,2.369206 0.192341,6.030793 -0.02499,3.755699 -0.0583,-8.316842 -0.09161,-3.309244 -0.03301,5.007621 -0.06398,10.015174 -0.08868,13.770896 -0.02499,3.749263 -0.04409,6.252392 -0.04457,6.247183 -4.26e-4,0.09064 0.04068,0.162402 0.111559,0.218892 0.07088,0.05169 0.158478,0.06902 0.245533,0.04387 0.116816,-0.03654 0.213936,-0.08547 0.301441,-0.135139 0.204563,-0.216364 0.340916,-0.50229 0.335608,-0.843857 -0.0046,-0.0042 -0.0076,-2.487218 -0.0129,-6.212392 -0.0018,-3.721571 -0.0236,-8.686712 -0.03401,-13.650022 -0.0087,-4.962866 -0.01756,-9.925749 -0.02757,-13.64826 C 63.80237,4.2922947 63.789981,1.8111004 63.774227,1.8079055 63.749093,1.4410956 63.504601,1.2668286 62.865273,1.2153285 62.832477,1.2106629 60.330292,1.0125654 56.35107,0.81643061 51.154205,0.52311631 40.764736,0.10438319 32,0.10438319 c 0,0 0,0 0,0"
         style="opacity:1;vector-effect:none;fill:url(#radialGradient2296);fill-opacity:1;fill-rule:nonzero;stroke:none;stroke-width:1.90849996;stroke-linecap:butt;stroke-linejoin:miter;stroke-miterlimit:4;stroke-dasharray:none;stroke-dashoffset:0;stroke-opacity:1;marker:none;paint-order:fill markers stroke"
         id="path2269" />
      <path
         d="m 32,0.19412668 c -9.149218,0 -21.847013,0.54197189 -26.6756112,0.85069612 -2.564087,0.1279945 -4.1690034,0.2596392 -4.2299961,0.268316 -0.44110804,0.035696 -0.62776799,0.1508115 -0.67451196,0.3883853 -0.0293003,0.00594 -0.0523398,1.5735404 -0.0741608,3.9266752 -0.0186201,2.352736 -0.035103,5.4888537 -0.0512582,8.6249437 -0.0193783,3.136911 -0.0598978,6.277227 -0.0632548,8.628215 -0.009799,2.357688 -0.0153766,3.928711 -0.0239932,3.936491 -0.009872,0.220482 0.0716935,0.406473 0.19595087,0.548409 0.0481867,0.03859 0.10498727,0.0837 0.17438771,0.116988 0.0534408,0.02142 0.10229806,0.01489 0.14703024,-0.01184 0.0447322,-0.03565 0.0706739,-0.06365 0.070405,-0.120851 -8.7109e-4,0.0097 -0.015965,-1.569211 -0.0317331,-3.927465 -0.0152316,-2.370262 -0.0318835,-5.530472 -0.0523632,-8.690808 -0.0210241,-3.160294 -0.0420481,25.444207 -0.0578162,23.073987 -0.0157681,-2.195197 0.0256559,-3.61486 0.40886904,-3.525034 C 1.85145,34.240302 3.5776455,1.9608392 6.0567526,1.8871925 10.363343,1.7157783 21.467249,1.3160744 32,1.3160743 c 10.532751,1e-7 21.636657,0.399704 25.943247,0.5711182 2.479108,0.073647 4.205303,32.3531095 4.994808,32.3940455 0.383216,-0.08983 0.424638,1.329837 0.408869,3.525034 -0.01577,2.37022 -0.03679,-26.234281 -0.05782,-23.073987 -0.02047,3.160336 -0.03713,6.320546 -0.05236,8.690808 -0.01577,2.358254 -0.03084,3.937153 -0.03173,3.927465 -2.69e-4,0.0572 0.02567,0.0852 0.0704,0.120851 0.04473,0.02672 0.09357,0.03325 0.147031,0.01184 0.0694,-0.03329 0.126202,-0.0784 0.174387,-0.116988 0.12426,-0.141936 0.205823,-0.327927 0.195951,-0.548409 -0.0086,-0.0078 -0.01419,-1.578803 -0.02399,-3.936491 -0.0034,-2.350988 -0.04388,-5.491304 -0.06326,-8.628215 -0.01615,-3.13609 -0.03264,-6.2722077 -0.05126,-8.6249437 C 63.632457,3.2750645 63.609418,1.7074659 63.580119,1.7015241 63.533375,1.4639503 63.346715,1.3488351 62.905607,1.3131388 62.844614,1.304462 61.239698,1.1728173 58.675611,1.0448228 53.847013,0.73609857 41.149218,0.19412668 32,0.19412668 c 0,0 0,0 0,0"
         style="opacity:1;vector-effect:none;fill:url(#radialGradient2294);fill-opacity:1;fill-rule:nonzero;stroke:none;stroke-width:1.90849996;stroke-linecap:butt;stroke-linejoin:miter;stroke-miterlimit:4;stroke-dasharray:none;stroke-dashoffset:0;stroke-opacity:1;marker:none;paint-order:fill markers stroke"
         id="path2267" />
      <path
         style="opacity:1;vector-effect:none;fill:url(#radialGradient848);fill-opacity:1;fill-rule:nonzero;stroke:none;stroke-width:1.90849996;stroke-linecap:butt;stroke-linejoin:miter;stroke-miterlimit:4;stroke-dasharray:none;stroke-dashoffset:0;stroke-opacity:1;marker:none;paint-order:fill markers stroke"
         d="M 32,0 C 15.364933,0 1.1816406,1.1015625 1.1816406,1.1015625 0.31175766,1.1714444 0,1.4145127 0,1.9316406 V 58.632812 c 0,0.482403 0.20008079,0.884567 0.49804688,1.1875 0.13323797,0.06256 0.2772526,0.115941 0.44921874,0.15625 A 0.42318665,0.42318665 0 0 0 1.4667969,59.5625 L 1.0859375,2.3125 C 4.6614909,2.127109 18.657452,1.5527345 32,1.5527344 45.342548,1.5527346 59.338509,2.127109 62.914062,2.3125 l -0.380859,57.25 a 0.42318665,0.42318665 0 0 0 0.519531,0.414062 c 0.171968,-0.04031 0.315981,-0.09369 0.449219,-0.15625 C 63.799919,59.517379 64,59.115215 64,58.632812 V 1.9316406 C 64,1.4145127 63.688242,1.1714444 62.818359,1.1015625 62.818359,1.1015625 48.635067,0 32,0 Z"
         id="path1260-7" />
      <path
         style="opacity:1;vector-effect:none;fill:url(#radialGradient4987-2);fill-opacity:1;fill-rule:nonzero;stroke:none;stroke-width:1.90849996;stroke-linecap:butt;stroke-linejoin:miter;stroke-miterlimit:4;stroke-dasharray:none;stroke-dashoffset:0;stroke-opacity:1;marker:none;paint-order:fill markers stroke"
         d="m 32,0.34765625 c -9.806975,0 -26.4537612,0.75280385 -30.6523438,1.08789065 -0.1431299,0.011423 -0.2130354,0.029383 -0.3222656,0.044922 -0.10200142,0.00866 -0.18972495,0.02258 -0.27343748,0.039062 -0.0524731,0.010641 -0.093734,0.015297 -0.1328125,0.025391 -0.0333463,0.00938 -0.062865,0.02034 -0.0917969,0.03125 -0.034704,0.01238 -0.10726944,0.030858 -0.11328125,0.037109 -0.0175493,0.018248 -0.0275376,0.029036 -0.0429687,0.042969 -0.0176787,0.013335 -0.0298446,0.028362 -0.0429687,0.042969 -0.019078,0.019636 -0.0312527,0.058198 -0.0429687,0.085937 -0.004044,0.015034 -0.0214844,0.026983 -0.0214844,0.042969 V 1.875 c -0.00156,0.017349 -0.009766,0.019584 -0.009766,0.041016 9.607e-4,-7.47e-5 0.008791,7.53e-5 0.009766,0 v 56.886718 c 0,0.313446 0.0930108,0.600852 0.77929693,0.761719 L 0.66015625,1.90625 C 3.9329473,1.7311609 18.41331,1.1289063 32,1.1289062 c 13.58669,10e-8 28.067053,0.6022547 31.339844,0.7773438 l -0.382813,57.658203 c 0.686291,-0.160867 0.779297,-0.448273 0.779297,-0.761719 V 1.9160156 c 10e-4,7.53e-5 0.0088,-7.47e-5 0.0098,0 0,-0.021432 -0.0082,-0.023667 -0.0098,-0.041016 V 1.828125 c 0,-0.015986 -0.01748,-0.027935 -0.02148,-0.042969 -0.01172,-0.027739 -0.02389,-0.066302 -0.04297,-0.085937 -0.01312,-0.014607 -0.02529,-0.029634 -0.04297,-0.042969 -0.01543,-0.013933 -0.02542,-0.024721 -0.04297,-0.042969 -0.006,-0.00625 -0.07858,-0.024729 -0.113282,-0.037109 -0.02893,-0.01091 -0.05845,-0.02187 -0.0918,-0.03125 C 63.341776,1.534828 63.300516,1.530172 63.248044,1.519531 63.164334,1.503049 63.076608,1.489128 62.974606,1.480469 62.865376,1.46493 62.795471,1.44697 62.652341,1.435547 58.453761,1.1004601 41.806975,0.34765625 32,0.34765625 Z"
         id="path1260" />
      <path
         d="m 32,0.32118356 c -9.69356,0 -25.6594321,0.71645064 -29.9666466,1.04699184 -0.560569,0.031523 -0.8951522,0.069085 -0.996065,0.083441 -0.16047261,0.013322 -0.26525548,0.044691 -0.34259362,0.099295 -0.0484775,0.00983 -0.0865965,0.2839805 -0.12269934,0.6980786 -0.0308071,0.4134385 -0.058078,0.963261 -0.0848069,1.5130373 -0.0320614,0.5511343 -0.0991013,1.1079026 -0.10465532,1.5184503 -0.016213,0.4216314 -0.0254407,0.7014461 -0.0396968,0.7143182 -0.0163325,0.049053 -0.0123367,0.093558 -0.001772,0.1301204 -0.00748,0.022905 -0.007761,0.062595 -0.005491,0.091291 0.005868,0.016135 -1.409e-4,0.024897 0.007572,0.033519 0.007713,-0.00615 0.0121861,0.027817 0.0121397,0.017954 -0.001441,0.016029 -0.0108345,-0.254367 -0.0135533,-0.6432576 -0.001831,-0.4087597 0.001777,-0.9535421 -9.4708e-4,-1.4985326 -0.003625,-0.5449209 -0.00725,51.465172 -0.009969,51.056481 -0.002719,-0.119112 0.081397,-0.126052 0.71542506,0.02257 C 1.182373,55.197879 1.163211,1.9156627 1.5906767,1.902964 5.041723,1.7285085 18.939892,1.1611792 32,1.1611791 c 13.060108,1e-7 26.958277,0.5673294 30.409324,0.7417849 0.427465,0.012699 0.408303,53.294915 0.544435,53.301973 0.634033,-0.148618 0.718144,-0.141678 0.715425,-0.02257 -0.0027,0.408691 -0.0063,-51.6014019 -0.01,-51.056481 -0.0027,0.5449905 8.84e-4,1.0897729 -9.47e-4,1.4985326 -0.0027,0.3888906 -0.01208,0.6592866 -0.01355,0.6432587 -4.7e-5,0.00986 0.0044,-0.024102 0.01214,-0.017954 0.0077,-0.00862 0.0017,-0.017384 0.0076,-0.033519 0.0023,-0.028696 0.002,-0.068387 -0.0055,-0.091291 0.01057,-0.036562 0.01456,-0.081068 -0.0018,-0.1301204 -0.01425,-0.012872 -0.02348,-0.2926868 -0.0397,-0.7143182 -0.0056,-0.4105477 -0.0726,-0.967316 -0.104656,-1.5184503 -0.02673,-0.5497763 -0.054,-1.0995988 -0.08481,-1.5130373 C 63.391898,1.8348922 63.35378,1.5607425 63.305305,1.5509117 63.227967,1.4963075 63.123184,1.4649383 62.962711,1.4516165 62.861799,1.4372607 62.527216,1.3996985 61.966647,1.3681754 57.659432,1.0376342 41.69356,0.32118356 32,0.32118356 c 0,0 0,0 0,0"
         style="opacity:1;vector-effect:none;fill:url(#radialGradient2290);fill-opacity:1;fill-rule:nonzero;stroke:none;stroke-width:1.90849996;stroke-linecap:butt;stroke-linejoin:miter;stroke-miterlimit:4;stroke-dasharray:none;stroke-dashoffset:0;stroke-opacity:1;marker:none;paint-order:fill markers stroke"
         id="path2263" />
      <path
         d="m 32,0.26740607 c -9.463164,0 -24.0458056,0.64260161 -28.5736986,0.96390863 -1.4085685,0.072355 -2.2808269,0.1497382 -2.3648433,0.1616904 -0.27925303,0.022792 -0.41869081,0.089607 -0.48307981,0.2216541 -0.0403606,0.00818 -0.0720972,0.8297935 -0.10215513,2.0645991 -0.0256489,1.2342564 -0.0483537,2.8787419 -0.0706072,4.523189 -0.0266932,1.6455777 -0.0825082,3.2958457 -0.0871323,4.5276957 -0.0134984,1.241078 -0.021181,2.067403 -0.0330502,2.07812 -0.0135979,0.121611 0.0232295,0.226001 0.081915,0.307163 0.0160814,0.02954 0.0399601,0.07153 0.0706439,0.102168 0.0260034,0.01837 0.0432169,0.02066 0.0665985,0.01432 0.0233816,-0.01863 0.0369414,-0.0109 0.0368008,-0.0408 -0.0012,0.01334 -0.0130061,-0.810883 -0.0212481,-2.033316 -0.007503,-1.23897 -0.0124698,-2.890746 -0.0227092,-4.5426957 C 0.48644503,6.9632109 0.47545571,49.066764 0.46721373,47.827846 0.45897174,46.83002 0.52501804,46.225138 1.0528874,46.348871 1.4655634,46.327474 2.1851331,1.9347839 3.4809668,1.8962886 7.2941267,1.7231204 20.009609,1.2267394 32,1.2267393 c 11.990391,1e-7 24.705874,0.4963811 28.519033,0.6695493 1.295834,0.038495 2.015403,44.4311854 2.428079,44.4525824 0.527873,-0.123733 0.593916,0.481149 0.585674,1.478975 -0.0082,1.238918 -0.01923,-40.8646351 -0.03022,-39.2127437 -0.01022,1.6519497 -0.01521,3.3037257 -0.02271,4.5427017 -0.0082,1.222433 -0.02002,2.04666 -0.02125,2.033316 -1.4e-4,0.0299 0.01342,0.02216 0.0368,0.0408 0.02338,0.0063 0.04056,0.004 0.0666,-0.01432 0.03068,-0.03064 0.05456,-0.07262 0.07064,-0.102168 0.05869,-0.08116 0.09551,-0.185552 0.08191,-0.307163 -0.01187,-0.01072 -0.01955,-0.837042 -0.03305,-2.07812 -0.0046,-1.23185 -0.06044,-2.882118 -0.08713,-4.5276957 -0.02225,-1.6444471 -0.04496,-3.2889326 -0.07061,-4.523189 C 63.493716,2.4444527 63.46198,1.6228439 63.421622,1.6146592 63.357232,1.4826121 63.217795,1.415797 62.938542,1.3930051 62.854525,1.3810529 61.982267,1.3036699 60.573699,1.2313147 56.045805,0.91000768 41.463164,0.26740607 32,0.26740607 c 0,0 0,0 0,0"
         style="opacity:1;vector-effect:none;fill:url(#radialGradient2292);fill-opacity:1;fill-rule:nonzero;stroke:none;stroke-width:1.90849996;stroke-linecap:butt;stroke-linejoin:miter;stroke-miterlimit:4;stroke-dasharray:none;stroke-dashoffset:0;stroke-opacity:1;marker:none;paint-order:fill markers stroke"
         id="path2265" />
    </g>
  </g>
  <path
     d="M 62,3.125 H 2 V 56 h 60 z"
     id="path4473"
     style="color:#000000;fill:url(#radialGradient4487);fill-opacity:1;stroke-width:1.09497929" />
  <path
     d="m6 8h52v47h-52z"
     id="path41"
     fill="#1d8ee8"
     color="#000000" />
  <path
     d="M 2,3 H 62.00002 V 55.999999 H 2 Z"
     id="path43"
     style="color:#000000;fill:url(#a);stroke-width:1.14067805" />
  <g
     id="g59"
     transform="matrix(1.1538465,0,0,1.1276596,-4.9230792,-6.0212764)">
    <path
       d="M 27.381,8 40.949,31.5 54.515,8 Z"
       style="fill:url(#d);paint-order:normal"
       id="path47" />
    <path
       d="M 55.094,8 36.906,39.5 H 58 V 8 Z"
       style="fill:url(#e);paint-order:normal"
       id="path49" />
    <path
       d="m 27.959,40 8.6602,15 h 21.381 V 40 Z"
       style="fill:url(#f);paint-order:normal"
       id="path51" />
    <path
       d="M 23.051,32.498 10.063,55 h 25.98 z"
       style="fill:url(#g);paint-order:normal"
       id="path53" />
    <path
       d="M 6,24.5 V 55 h 3.4844 l 17.607,-30.5 z"
       style="fill:url(#h);paint-order:normal"
       id="path55" />
    <path
       d="M 6,8 V 24 H 36.041 L 26.9472,8.25 26.80267,8 h -20.803 z"
       style="fill:url(#i);paint-order:normal"
       id="path57" />
  </g>
</svg>
