<?xml version="1.0" encoding="UTF-8"?>
<svg width="64" height="64" version="1.1" xmlns="http://www.w3.org/2000/svg" xmlns:xlink="http://www.w3.org/1999/xlink">
	<defs>
		<radialGradient id="b" cx="32.161" cy="35.22" r="32" gradientTransform="matrix(.96875 0 0 1.0898 .844 -3.383)" gradientUnits="userSpaceOnUse">
			<stop stop-color="#a1b0d4" offset="0"/>
			<stop stop-color="#b7c4e3" offset="1"/>
		</radialGradient>
		<radialGradient id="s" cx="36.463" cy="1.498" r="32" gradientTransform="matrix(0 .02541 -1.2755 0 33.91 1.073)" gradientUnits="userSpaceOnUse">
			<stop stop-color="#fff" stop-opacity=".667" offset="0"/>
			<stop stop-color="#fff" stop-opacity=".001" offset="1"/>
		</radialGradient>
		<radialGradient id="r" cx="35.574" cy="1.439" r="32" gradientTransform="matrix(0,1.1252,-5.1753,0,39.446,-39.029)" gradientUnits="userSpaceOnUse" xlink:href="#a"/>
		<radialGradient id="q" cx="35.574" cy="1.393" r="32" gradientTransform="matrix(0,1.1252,-5.1753,0,39.208,-39.029)" gradientUnits="userSpaceOnUse" xlink:href="#a"/>
		<radialGradient id="p" cx="35.574" cy="1.346" r="32" gradientTransform="matrix(0,1.1252,-5.1753,0,38.966,-39.029)" gradientUnits="userSpaceOnUse" xlink:href="#a"/>
		<radialGradient id="o" cx="35.574" cy="1.304" r="32" gradientTransform="matrix(0,1.1252,-5.1753,0,38.75,-39.029)" gradientUnits="userSpaceOnUse" xlink:href="#a"/>
		<radialGradient id="n" cx="35.574" cy="1.273" r="32" gradientTransform="matrix(0,1.1252,-5.1753,0,38.587,-39.029)" gradientUnits="userSpaceOnUse" xlink:href="#a"/>
		<radialGradient id="m" cx="35.574" cy="1.239" r="32" gradientTransform="matrix(0,1.1252,-5.1753,0,38.411,-39.029)" gradientUnits="userSpaceOnUse" xlink:href="#a"/>
		<radialGradient id="l" cx="35.574" cy="1.208" r="32" gradientTransform="matrix(0,1.1252,-5.1753,0,38.252,-39.029)" gradientUnits="userSpaceOnUse" xlink:href="#a"/>
		<radialGradient id="k" cx="35.574" cy="1.18" r="32" gradientTransform="matrix(0,1.1252,-5.1753,0,38.107,-39.029)" gradientUnits="userSpaceOnUse" xlink:href="#a"/>
		<radialGradient id="j" cx="35.574" cy="1.159" r="32" gradientTransform="matrix(0,1.1252,-5.1753,0,38,-39.029)" gradientUnits="userSpaceOnUse" xlink:href="#a"/>
		<radialGradient id="i" cx="35.574" cy="1.135" r="32" gradientTransform="matrix(0,1.1252,-5.1753,0,37.875,-39.029)" gradientUnits="userSpaceOnUse" xlink:href="#a"/>
		<radialGradient id="h" cx="35.574" cy="1.113" r="32" gradientTransform="matrix(0,1.1252,-5.1753,0,37.758,-39.029)" gradientUnits="userSpaceOnUse" xlink:href="#a"/>
		<radialGradient id="g" cx="35.574" cy="1.091" r="32" gradientTransform="matrix(0,1.1252,-5.1753,0,37.648,-39.029)" gradientUnits="userSpaceOnUse" xlink:href="#a"/>
		<radialGradient id="f" cx="35.574" cy="1.071" r="32" gradientTransform="matrix(0,1.1252,-5.1753,0,37.544,-39.029)" gradientUnits="userSpaceOnUse" xlink:href="#a"/>
		<radialGradient id="e" cx="35.574" cy="1.055" r="32" gradientTransform="matrix(0,1.1252,-5.1753,0,37.458,-39.029)" gradientUnits="userSpaceOnUse" xlink:href="#a"/>
		<radialGradient id="d" cx="35.574" cy="1.036" r="32" gradientTransform="matrix(0,1.1252,-5.1753,0,37.363,-39.029)" gradientUnits="userSpaceOnUse" xlink:href="#a"/>
		<radialGradient id="c" cx="35.574" cy="1.019" r="32" gradientTransform="matrix(0,1.1252,-5.1753,0,37.271,-39.029)" gradientUnits="userSpaceOnUse" xlink:href="#a"/>
		<linearGradient id="a">
			<stop stop-color="#fff" stop-opacity=".07" offset="0"/>
			<stop stop-color="#fff" stop-opacity=".001" offset="1"/>
		</linearGradient>
		<linearGradient id="linearGradient52785" x1="32.614" x2="32.614" y1="50.689" y2="14.999" gradientUnits="userSpaceOnUse">
			<stop stop-color="#2c54b5" offset="0"/>
			<stop stop-color="#3c6bd7" offset="1"/>
		</linearGradient>
		<linearGradient id="linearGradient56796" x1="32.182" x2="32.182" y1="50.591" y2="15.758" gradientUnits="userSpaceOnUse">
			<stop stop-color="#9eb1dc" offset="0"/>
			<stop stop-color="#e2e6f3" offset="1"/>
		</linearGradient>
	</defs>
	<rect width="64" height="64" rx="1" ry="1" fill="url(#b)" paint-order="fill markers stroke"/>
	<g>
		<g fill="#000000" fill-opacity=".02" opacity=".777">
			<path d="m53.783 41.824c0 12.05-9.7623 21.818-21.805 21.818h-0.0011c-6.0202-3e-4 -11.47-2.4418-15.416-6.3892-3.946-3.9478-6.3869-9.4018-6.3875-15.426v-0.0022c0-5.7858 2.2967-11.334 6.385-15.426l0.0015-0.0015c4.0886-4.0911 9.6338-6.3897 15.416-6.3903h0.0021c12.042 0 21.805 9.7682 21.805 21.818z"/>
			<path d="m54.525 39.618c0 12.46-10.094 22.56-22.546 22.56h-0.0011c-6.1577-2e-4 -11.821-2.4842-15.941-6.6069-4.1209-4.1231-6.6041-9.7898-6.6046-15.952v-0.0023c1.6e-4 -5.9826 2.3752-11.72 6.6027-15.951 5e-4 -5e-4 1e-3 -1e-3 0.0015-0.0016 4.2279-4.2302 9.9619-6.6069 15.941-6.6073h0.0019c12.452 2e-4 22.546 10.101 22.546 22.56z"/>
			<path d="m54.832 38.705c0 12.63-10.232 22.868-22.854 22.868h-0.0011c-6.2147-2e-4 -11.966-2.5018-16.159-6.6971-4.1934-4.1956-6.6941-9.9505-6.6945-16.169v-0.0023c2.3e-4 -6.0642 2.4077-11.88 6.6929-16.168 5e-4 -6e-4 1e-3 -0.0011 0.0015-0.0016 4.2856-4.2879 10.098-6.6969 16.158-6.6973h0.0018c12.622 3e-4 22.854 10.238 22.854 22.868z"/>
			<path d="m55.068 38.004c0 12.76-10.337 23.104-23.089 23.104h-0.0011c-6.2584-1e-4 -12.077-2.5153-16.326-6.7663-4.2491-4.2513-6.7632-10.074-6.7635-16.336v-0.0023c2.8e-4 -6.1268 2.4326-12.002 6.762-16.335 5e-4 -6e-4 0.0011-0.0011 0.0016-0.0016 4.3298-4.3321 10.202-6.766 16.325-6.7663h0.0017c12.752 3e-4 23.089 10.344 23.089 23.104z"/>
			<path d="m55.267 37.413c0 12.87-10.426 23.302-23.288 23.303h-0.0012c-6.2951-2e-4 -12.171-2.5267-16.466-6.8248-4.2959-4.2982-6.8214-10.178-6.8217-16.477v-0.0023c3.2e-4 -6.1795 2.4537-12.106 6.8204-16.476l0.0016-0.0016c4.3672-4.3693 10.29-6.8241 16.466-6.8244h0.0017c12.862 3e-4 23.288 10.433 23.288 23.303z"/>
			<path d="m55.442 36.892c0 12.966-10.505 23.478-23.463 23.478h-0.0012c-6.3276-1e-4 -12.254-2.5367-16.591-6.8761-4.3372-4.3396-6.8726-10.269-6.8729-16.601v-0.0023c3.6e-4 -6.226 2.4722-12.197 6.8718-16.6 5e-4 -5e-4 0.0011-1e-3 0.0016-0.0016 4.4001-4.4022 10.367-6.8754 16.59-6.8756h0.0016c12.958 4e-4 23.463 10.512 23.463 23.478z"/>
			<path d="m55.6 36.421c0 13.054-10.576 23.636-23.622 23.637h-0.0012c-6.357-1e-4 -12.328-2.5458-16.703-6.9226-4.3746-4.377-6.919-10.352-6.9192-16.713v-0.0023c3.9e-4 -6.268 2.489-12.279 6.9182-16.712l0.0016-0.0016c4.4298-4.4319 10.437-6.9218 16.702-6.922h0.0016c13.046 4e-4 23.622 10.583 23.622 23.637z"/>
			<path d="m55.746 35.988c0 13.134-10.641 23.782-23.767 23.782h-0.0012c-6.384-1e-4 -12.397-2.5541-16.806-6.9653-4.4089-4.4114-6.9617-10.428-6.9619-16.816v-0.0023c4.2e-4 -6.3067 2.5043-12.355 6.961-16.815 5e-4 -6e-4 0.0011-0.0011 0.0016-0.0017 4.4571-4.4591 10.502-6.9643 16.805-6.9645h0.0015c13.126 4e-4 23.767 10.648 23.767 23.782z"/>
			<path d="m55.882 35.585c0 13.209-10.702 23.918-23.903 23.918h-0.0012c-6.4091 0-12.461-2.5618-16.902-7.0051-4.4408-4.4434-7.0013-10.499-7.0015-16.912v-0.0024c4.5e-4 -6.3426 2.5187-12.425 7.0008-16.91l0.0016-0.0016c4.4826-4.4846 10.562-7.0041 16.901-7.0042h0.0015c13.201 4e-4 23.903 10.709 23.903 23.918z"/>
			<path d="m56.009 35.207c0 13.28-10.758 24.045-24.03 24.046h-0.0012c-6.4327-1e-4 -12.521-2.5692-16.992-7.0425-4.4709-4.4734-7.0386-10.566-7.0388-17.002v-0.0024c4.8e-4 -6.3764 2.5321-12.492 7.0381-17 6e-4 -5e-4 0.0011-0.0011 0.0017-0.0016 4.5064-4.5085 10.618-7.0414 16.991-7.0415h0.0014c13.272 5e-4 24.03 10.766 24.03 24.045z"/>
			<path d="m56.129 34.849c0 13.346-10.812 24.165-24.15 24.166h-0.0012c-6.455 0-12.578-2.576-17.077-7.0778-4.4993-4.5019-7.0739-10.629-7.074-17.088v-0.0023c5.1e-4 -6.4084 2.5448-12.554 7.0734-17.086l0.0017-0.0017c4.529-4.531 10.671-7.0765 17.076-7.0767h0.0014c13.338 6e-4 24.15 10.82 24.15 24.166z"/>
			<path d="m56.244 34.508c0 13.409-10.864 24.28-24.265 24.281h-0.0012c-6.4762-1e-4 -12.632-2.5826-17.158-7.1115s-7.1074-10.688-7.1075-17.169v-0.0024c5.3e-4 -6.4387 2.557-12.614 7.1071-17.167 5e-4 -5e-4 0.0011-0.0011 0.0017-0.0016 4.5505-4.5526 10.722-7.1101 17.157-7.1102h0.0014c13.401 5e-4 24.265 10.871 24.265 24.28z"/>
			<path d="m56.353 34.183c0 13.47-10.913 24.39-24.374 24.39h-0.0012c-6.4966-1e-4 -12.684-2.5889-17.236-7.1436-4.5521-4.5547-7.1394-10.746-7.1395-17.246v-0.0024c5.5e-4 -6.4678 2.5685-12.671 7.1392-17.244l0.0016-0.0016c4.5711-4.5731 10.77-7.1422 17.234-7.1423h0.0014c13.462 5.9e-4 24.374 10.92 24.374 24.39z"/>
			<path d="m56.458 33.871c0 13.528-10.96 24.494-24.479 24.495h-0.0012c-6.516 0-12.733-2.5949-17.31-7.1744s-7.1701-10.8-7.1702-17.32v-0.0024c5.8e-4 -6.4956 2.5796-12.725 7.17-17.318 5e-4 -6e-4 0.0011-0.0011 0.0017-0.0017 4.5907-4.5927 10.817-7.1728 17.308-7.1729h0.0013c13.52 6.1e-4 24.479 10.967 24.479 24.495z"/>
			<path d="m56.559 33.571c0 13.584-11.005 24.596-24.58 24.596h-0.0013c-6.5347 0-12.781-2.6006-17.381-7.204-4.6007-4.6033-7.1997-10.853-7.1998-17.392v-0.0024c5.9e-4 -6.5224 2.5903-12.778 7.1996-17.39 6e-4 -5e-4 0.0011-0.0011 0.0017-0.0016 4.6097-4.6117 10.861-7.2025 17.38-7.2025h0.0013c13.575 6.3e-4 24.58 11.012 24.58 24.596z"/>
			<path d="m56.657 33.281c0 13.638-11.048 24.693-24.678 24.694h-0.0012c-6.5528 0-12.827-2.6062-17.45-7.2326-4.6236-4.6264-7.2282-10.904-7.2282-17.461v-0.0024c6.2e-4 -6.5483 2.6006-12.828 7.2281-17.459l0.0017-0.0017c4.628-4.63 10.904-7.231 17.449-7.231h0.0013c13.629 6.5e-4 24.678 11.056 24.678 24.694z"/>
			<path d="m56.751 33.001c0 13.69-11.091 24.787-24.772 24.788h-0.0013c-6.5702 0-12.871-2.6116-17.517-7.2602-4.6458-4.6487-7.2558-10.954-7.2558-17.528v-0.0024c6.4e-4 -6.5733 2.6106-12.877 7.2558-17.525 6e-4 -5e-4 0.0012-0.0011 0.0017-0.0017 4.6457-4.6476 10.946-7.2585 17.516-7.2585h0.0013c13.681 6.8e-4 24.772 11.098 24.772 24.788z"/>
		</g>
		<path d="m56.751 33.001a24.773 24.788 0 0 1-24.773 24.788 24.773 24.788 0 0 1-24.773-24.788 24.773 24.788 0 0 1 24.773-24.788 24.773 24.788 0 0 1 24.773 24.788z" fill="none" stroke="#112f79" stroke-opacity=".04" stroke-width="6"/>
		<path d="m56.751 33.001a24.773 24.788 0 0 1-24.773 24.788 24.773 24.788 0 0 1-24.773-24.788 24.773 24.788 0 0 1 24.773-24.788 24.773 24.788 0 0 1 24.773 24.788z" fill="url(#linearGradient56796)" stroke-opacity=".146" stroke-width="2.327"/>
		<path d="m19.12 20.376c-7e-3 0.0777-0.02119 0.15538-0.02825 0.23661-0.61094 6.9711 4.1389 12.879 12.099 15.058 3.0512 0.83342 8.0976 3.0406 7.6244 8.4366-0.1801 2.0447-1.1442 3.8952-2.7157 5.2124-1.5397 1.2925-3.4785 1.8258-5.4844 1.7587-8.9628-0.30724-16.718-8.4826-16.718-18.003 0-4.9511 1.9953-9.436 5.223-12.699zm9.5738-3.9023c1.3667-1.1477 3.0971-1.6245 4.8734-1.5468 8.9522 0.39906 16.492 8.5355 16.492 17.979 0 4.3013-1.5079 8.253-4.0188 11.354 0.50147-7.3949-4.4284-13.405-12.943-15.733-3.5209-0.96409-7.1547-3.4255-6.8016-7.4549 0.15892-1.801 1.01-3.4361 2.3979-4.598z" fill="url(#linearGradient52785)"/>
	</g>
	<g transform="translate(0 .0015035)">
		<path d="m1 0c-0.554 0-1 0.446-1 1v62-0.224 0.224-61h1.752c19.15 2e-3 39.445 0 60.213 0h2.035v61-0.334 0.334-62a0.998 0.998 0 0 0-1-1z" fill="url(#c)"/>
		<path d="m1 0a0.998 0.998 0 0 0-1 1.006v61.98-0.197c0-0.277 4e-3 -0.184 0.01 0.246 0.012 0.016 0.03-0.297 0.052-0.897v-60c0.072-9e-3 0.133-0.013 0.185-0.013 0.29-0.016 0.357-0.032 0.774-0.044 0.246-0.011 0.496-0.019 0.747-0.019 19.183 2e-3 39.392 0 60.2 0 0.346 0 0.689 0.012 1.023 0.03 0.268 0.01 0.389 0.02 0.52 0.033 0.106 0 0.22 0.01 0.427 0.028v59.744c0.027 0.754 0.05 1.148 0.059 1.123l3e-3 -0.334v0.286-61.762c0-0.143 0-0.22-2e-3 -0.224a0.996 0.996 0 0 0-1.012-0.986h-61.986" fill="url(#d)"/>
		<path d="m1 0a0.998 0.998 0 0 0-1 1.006v61.966-0.169c0-0.245 8e-3 -0.145 0.021 0.266 0.022 0.034 0.06-0.247 0.104-0.807v-59.988a0.744 0.744 0 0 1 0.173-0.025c0.27-0.031 0.341-0.064 0.743-0.088 0.242-0.022 0.492-0.037 0.742-0.037 19.217 2e-3 39.34 0 60.187 0 0.347 0 0.69 0.024 1.013 0.06 0.256 0.02 0.372 0.042 0.494 0.065 0.1 0 0.206 0.02 0.398 0.057v59.731c0.055 0.703 0.102 1.052 0.119 1.003 4e-3 -0.154 6e-3 -0.265 6e-3 -0.333v0.237-61.748c0-0.139 0-0.215-3e-3 -0.224a0.994 0.994 0 0 0-0.807-0.952 1.025 1.025 0 0 0-0.217-0.02h-61.973" fill="url(#e)"/>
		<path d="m1 0a0.998 0.998 0 0 0-1 1.005v61.953-0.14c0-0.213 0.012-0.107 0.031 0.287 0.034 0.05 0.091-0.198 0.156-0.718v-59.974a0.45 0.45 0 0 1 0.16-0.037c0.252-0.048 0.327-0.097 0.715-0.132 0.238-0.034 0.487-0.056 0.737-0.056 19.25 2e-3 39.286 0 60.173 0 0.348 0 0.688 0.036 1.001 0.09 0.244 0.029 0.356 0.062 0.47 0.098 0.091 0 0.19 0.03 0.37 0.085v59.718c0.082 0.653 0.151 0.957 0.176 0.884 7e-3 -0.152 0.01-0.262 0.01-0.333v0.188-61.734c0-0.135 0-0.21-4e-3 -0.224a0.992 0.992 0 0 0-0.819-0.94 1.041 1.041 0 0 0-0.217-0.018h-61.96" fill="url(#f)"/>
		<path d="m1 0a0.998 0.998 0 0 0-1 1.005v61.939-0.113c0-0.18 0.015-0.068 0.042 0.308 0.045 0.067 0.121-0.149 0.208-0.629v-59.96a0.312 0.312 0 0 1 0.148-0.05c0.232-0.063 0.311-0.128 0.684-0.176 0.234-0.044 0.483-0.074 0.732-0.074 19.284 2e-3 39.234 0 60.16 0 0.35 0 0.689 0.048 0.991 0.12 0.232 0.039 0.34 0.083 0.444 0.13 0.085 0 0.176 0.04 0.341 0.114v59.704c0.11 0.603 0.203 0.862 0.236 0.764 0.01-0.148 0.014-0.259 0.014-0.333v0.14-61.721c0-0.13-2e-3 -0.206-6e-3 -0.224a0.991 0.991 0 0 0-0.83-0.927 1.066 1.066 0 0 0-0.22-0.017h-61.944" fill="url(#g)"/>
		<path d="m1 0a0.998 0.998 0 0 0-1 1.004v61.926-0.084c0-0.148 0.02-0.029 0.052 0.328 0.056 0.084 0.152-0.099 0.26-0.539v-59.949c0.053-0.04 0.097-0.061 0.136-0.061 0.212-0.08 0.297-0.16 0.655-0.22 0.23-0.056 0.477-0.093 0.727-0.093 19.317 2e-3 39.18 0 60.147 0 0.35 0 0.688 0.06 0.98 0.151 0.22 0.047 0.322 0.102 0.418 0.162 0.078 0 0.162 0.049 0.313 0.142v59.69c0.137 0.553 0.253 0.767 0.295 0.645a4.73 4.73 0 0 0 0.017-0.332v0.09-61.705c0-0.126-2e-3 -0.202-7e-3 -0.224a0.99 0.99 0 0 0-0.843-0.914 1.099 1.099 0 0 0-0.218-0.017h-61.932" fill="url(#h)"/>
		<path d="m1 0a0.998 0.998 0 0 0-1 1.004v61.912-0.056c0-0.117 0.023 0.01 0.063 0.349 0.067 0.1 0.182-0.05 0.312-0.45v-59.935c0.048-0.049 0.088-0.074 0.123-0.074 0.193-0.095 0.282-0.192 0.626-0.264 0.225-0.067 0.472-0.11 0.721-0.11h60.133c0.352 0 0.688 0.071 0.97 0.18a0.944 0.944 0 0 1 0.393 0.194c0.07 0 0.147 0.059 0.284 0.17v59.68c0.164 0.502 0.304 0.671 0.354 0.524 0.014-0.14 0.02-0.25 0.02-0.331v0.042-61.695c0-0.121-2e-3 -0.197-9e-3 -0.224a0.99 0.99 0 0 0-0.854-0.902 1.142 1.142 0 0 0-0.218-0.014h-61.918" fill="url(#i)"/>
		<path d="m1 0a0.998 0.998 0 0 0-1 1.004v61.898-0.029c0-0.084 0.027 0.049 0.073 0.37 0.079 0.117 0.212 0 0.365-0.36v-59.923c0.043-0.057 0.079-0.086 0.11-0.086 0.174-0.112 0.267-0.225 0.596-0.309a2.19 2.19 0 0 1 0.717-0.129c19.385 2e-3 39.075 0 60.12 0 0.353 0 0.687 0.084 0.958 0.211 0.196 0.066 0.29 0.144 0.368 0.227 0.063 0 0.132 0.068 0.256 0.199v59.665c0.192 0.452 0.354 0.576 0.413 0.404a3.11 3.11 0 0 0 0.024-0.33v-61.687c0-0.117-4e-3 -0.193-0.01-0.224a0.99 0.99 0 0 0-0.868-0.89 1.198 1.198 0 0 0-0.217-0.011h-61.905" fill="url(#j)"/>
		<path d="m1 0a0.998 0.998 0 0 0-1 1.003v61.885c0-0.052 0.03 0.087 0.084 0.39 0.09 0.135 0.242 0.05 0.416-0.27v-59.911c0.038-0.063 0.07-0.097 0.099-0.097 0.154-0.127 0.251-0.257 0.566-0.352 0.217-0.089 0.463-0.148 0.711-0.148 19.418 2e-3 39.022 0 60.107 0 0.355 0 0.687 0.096 0.947 0.242a0.723 0.723 0 0 1 0.343 0.258c0.056 0 0.118 0.079 0.227 0.227v59.651c0.22 0.402 0.406 0.482 0.473 0.285 0.018-0.132 0.027-0.243 0.027-0.33v-61.721c0-0.113-4e-3 -0.188-0.012-0.224a0.99 0.99 0 0 0-0.879-0.877 1.273 1.273 0 0 0-0.218-0.011h-61.89" fill="url(#k)"/>
		<path d="m1 0a0.998 0.998 0 0 0-1 1.003v61.899c0-0.02 0.035 0.126 0.094 0.41 0.101 0.152 0.273 0.1 0.468-0.18v-59.897c0.034-0.073 0.062-0.11 0.087-0.11 0.135-0.143 0.236-0.29 0.536-0.397 0.213-0.1 0.459-0.166 0.707-0.166 19.452 2e-3 38.969 0 60.093 0 0.356 0 0.687 0.108 0.936 0.272a0.678 0.678 0 0 1 0.317 0.29c0.05 0 0.103 0.089 0.2 0.256v59.64c0.246 0.352 0.455 0.386 0.531 0.165 0.02-0.128 0.03-0.239 0.03-0.33v-61.755c0-0.108-4e-3 -0.184-0.013-0.224a0.99 0.99 0 0 0-0.891-0.864 1.376 1.376 0 0 0-0.218-0.01h-61.877" fill="url(#l)"/>
		<path d="m1 0a0.998 0.998 0 0 0-1 1.002v61.913c0 0.013 0.039 0.165 0.105 0.432 0.112 0.168 0.303 0.148 0.52-0.092v-59.882c0.029-0.081 0.053-0.123 0.074-0.123 0.116-0.159 0.222-0.321 0.507-0.44 0.209-0.111 0.454-0.185 0.701-0.185 19.486 2e-3 38.916 0 60.08 0 0.357 0 0.687 0.12 0.925 0.302a0.66 0.66 0 0 1 0.292 0.323c0.043 0 0.089 0.098 0.171 0.284v59.626c0.275 0.302 0.507 0.29 0.591 0.046 0.022-0.125 0.034-0.236 0.034-0.33v-61.791c0-0.104-5e-3 -0.18-0.016-0.224a0.99 0.99 0 0 0-0.903-0.852 1.514 1.514 0 0 0-0.218-8e-3h-61.863" fill="url(#m)"/>
		<path d="m1 0a0.998 0.998 0 0 0-1 1.002v61.928c0 0.045 0.042 0.203 0.115 0.453 0.123 0.184 0.333 0.197 0.572-3e-3v-59.87c0.024-0.089 0.045-0.135 0.062-0.135 0.097-0.174 0.207-0.353 0.478-0.484 0.204-0.122 0.448-0.203 0.696-0.203 19.519 2e-3 38.863 0 60.067 0a1.4 1.4 0 0 1 0.914 0.332c0.15 0.103 0.224 0.225 0.267 0.355 0.035 0 0.073 0.108 0.142 0.313v59.612c0.302 0.251 0.557 0.196 0.65-0.074a1.7 1.7 0 0 0 0.037-0.33v-61.825c0-0.1-6e-3 -0.175-0.017-0.224a0.99 0.99 0 0 0-0.915-0.84 1.712 1.712 0 0 0-0.218-7e-3h-61.85" fill="url(#n)"/>
		<path d="m1 0a0.998 0.998 0 0 0-1 1.002v61.942c0 0.077 0.046 0.242 0.126 0.473 0.134 0.201 0.363 0.246 0.624 0.086v-59.856c0.02-0.097 0.035-0.147 0.05-0.147a0.981 0.981 0 0 1 0.447-0.529c0.2-0.133 0.444-0.221 0.691-0.221 19.553 2e-3 38.811 0 60.053 0 0.36 0 0.686 0.144 0.903 0.362a0.688 0.688 0 0 1 0.242 0.388c0.028 0 0.059 0.118 0.114 0.341v59.598c0.33 0.2 0.608 0.1 0.709-0.194 0.026-0.117 0.04-0.228 0.04-0.329v-61.86c0-0.095-6e-3 -0.17-0.018-0.224a0.991 0.991 0 0 0-0.927-0.827 2.015 2.015 0 0 0-0.218-5e-3h-61.836" fill="url(#o)"/>
		<path d="m1 0a0.998 0.998 0 0 0-1 1.001v61.956c0 0.11 0.05 0.281 0.136 0.494 0.146 0.218 0.394 0.296 0.677 0.176v-59.843c0.014-0.105 0.026-0.16 0.036-0.16a0.967 0.967 0 0 1 0.419-0.572c0.196-0.144 0.439-0.24 0.686-0.24 19.586 2e-3 38.758 0 60.04 0 0.36 0 0.685 0.156 0.892 0.392a0.73 0.73 0 0 1 0.216 0.42c0.021 0 0.044 0.128 0.086 0.37v59.585c0.356 0.15 0.658 5e-3 0.768-0.314 0.029-0.114 0.044-0.224 0.044-0.328v-61.895c0-0.09-7e-3 -0.166-0.02-0.224a0.992 0.992 0 0 0-0.94-0.814 2.524 2.524 0 0 0-0.217-5e-3h-61.823" fill="url(#p)"/>
		<path d="m1 0a0.998 0.998 0 0 0-1 1v61.972c0 0.142 0.054 0.32 0.147 0.515a0.643 0.643 0 0 0 0.728 0.265v-59.83c0.01-0.114 0.018-0.172 0.025-0.172a0.97 0.97 0 0 1 0.389-0.617c0.192-0.155 0.434-0.258 0.68-0.258 19.62 2e-3 38.705 0 60.027 0 0.362 0 0.686 0.168 0.882 0.422a0.794 0.794 0 0 1 0.19 0.453c0.015 0 0.03 0.137 0.057 0.398v59.572c0.385 0.1 0.71-0.09 0.828-0.434 0.03-0.11 0.047-0.22 0.047-0.328v-61.93c0-0.086-7e-3 -0.161-0.021-0.224a0.994 0.994 0 0 0-0.951-0.802 3.563 3.563 0 0 0-0.219-2e-3h-61.809" fill="url(#q)"/>
		<path d="m1 0a0.998 0.998 0 0 0-1 1v61.986c0 0.174 0.058 0.358 0.157 0.535a0.802 0.802 0 0 0 0.78 0.355v-59.816c5e-3 -0.122 0.01-0.185 0.013-0.185a0.987 0.987 0 0 1 0.36-0.66c0.187-0.166 0.429-0.277 0.675-0.277 19.653 2e-3 38.652 0 60.013 0 0.363 0 0.685 0.18 0.87 0.452a0.876 0.876 0 0 1 0.166 0.485c7e-3 0 0.015 0.147 0.028 0.427v59.558c0.412 0.05 0.76-0.186 0.887-0.553a1.1 1.1 0 0 0 0.05-0.328v-61.965a0.996 0.996 0 0 0-0.985-1.014 6.67 6.67 0 0 0-0.219 0h-61.795" fill="url(#r)"/>
		<path d="m1 0a0.998 0.998 0 0 0-1 1v2h64v-1.998a0.998 0.998 0 0 0-1-1h-62z" fill="url(#s)"/>
	</g>
</svg>
