<?xml version="1.0" encoding="UTF-8"?>
<!--Created with Inkscape (http://www.inkscape.org/)-->
<svg width="64" height="64" version="1.1" xmlns="http://www.w3.org/2000/svg" xmlns:cc="http://creativecommons.org/ns#" xmlns:dc="http://purl.org/dc/elements/1.1/" xmlns:rdf="http://www.w3.org/1999/02/22-rdf-syntax-ns#" xmlns:xlink="http://www.w3.org/1999/xlink">
  <defs>
    <radialGradient id="radialGradient2432" cx="15" cy="32.556" r="15" gradientTransform="matrix(2.2667 0 0 .066303 -19 32.836)" gradientUnits="userSpaceOnUse">
      <stop stop-color="#ffb5ed" offset="0"/>
      <stop stop-color="#ff67e6" stop-opacity="0" offset="1"/>
    </radialGradient>
    <radialGradient id="radialGradient58863" cx="15" cy="32.556" r="15" gradientTransform="matrix(2.2667 0 0 .066303 15 -.164)" gradientUnits="userSpaceOnUse">
      <stop stop-color="#9cddff" offset="0"/>
      <stop stop-color="#9ca3ff" stop-opacity="0" offset="1"/>
    </radialGradient>
    <radialGradient id="radialGradient97030" cx="15" cy="32.556" r="15" gradientTransform="matrix(2.2667 0 0 .066303 -19 -.164)" gradientUnits="userSpaceOnUse">
      <stop stop-color="#6cf6ff" offset="0"/>
      <stop stop-color="#46d0ff" stop-opacity="0" offset="1"/>
    </radialGradient>
    <linearGradient id="linearGradient2239" x1="15" x2="15" y2="3" gradientTransform="translate(0,33)" gradientUnits="userSpaceOnUse">
      <stop stop-color="#ff93ed" offset="0"/>
      <stop stop-color="#d02654" offset="1"/>
    </linearGradient>
    <linearGradient id="linearGradient58859" x1="15" x2="15" y2="3" gradientTransform="translate(34)" gradientUnits="userSpaceOnUse">
      <stop stop-color="#80c8ff" offset="0"/>
      <stop stop-color="#5f4ae9" offset="1"/>
    </linearGradient>
    <linearGradient id="linearGradient97026" x1="15" x2="15" y2="3" gradientUnits="userSpaceOnUse">
      <stop stop-color="#50deff" offset="0"/>
      <stop stop-color="#3786dd" offset="1"/>
    </linearGradient>
    <radialGradient id="radialGradient3091" cx="15" cy="32.556" r="15" gradientTransform="matrix(2.2667 0 0 .066303 15 32.836)" gradientUnits="userSpaceOnUse">
      <stop stop-color="#91ff6c" offset="0"/>
      <stop stop-color="#64f3a6" stop-opacity="0" offset="1"/>
    </radialGradient>
    <linearGradient id="linearGradient3087" x1="15" x2="15" y2="3" gradientTransform="translate(34,33)" gradientUnits="userSpaceOnUse">
      <stop stop-color="#64f3a6" offset="0"/>
      <stop stop-color="#208d67" offset="1"/>
    </linearGradient>
    <radialGradient id="a" cx="32" cy="42.188" r="21.03" gradientTransform="matrix(1.0582 0 0 1.0066 -1.8618 -.3026)" gradientUnits="userSpaceOnUse">
      <stop stop-color="#ffb282" offset="0"/>
      <stop stop-color="#ffca76" offset=".50692"/>
      <stop stop-color="#fceb7a" offset="1"/>
    </radialGradient>
    <radialGradient id="radialGradient2303" cx="32" cy="36.847" r="21.246" gradientTransform="matrix(.84721 0 0 .88911 4.8892 3.7424)" gradientUnits="userSpaceOnUse" xlink:href="#a"/>
    <radialGradient id="radialGradient2595" cx="32" cy="36.847" r="21.246" gradientTransform="matrix(1.3241 0 0 1.3896 -10.371 -5.8989)" gradientUnits="userSpaceOnUse" xlink:href="#a"/>
    <linearGradient id="linearGradient2714" x1="33.134" x2="23.444" y1="29.874" y2="28.556" gradientTransform="matrix(3.7689 1.1895e-8 0 .82281 -88.606 6.8179)" gradientUnits="userSpaceOnUse" spreadMethod="reflect">
      <stop stop-color="#d2791c" offset="0"/>
      <stop stop-color="#ffb042" offset=".25531"/>
      <stop stop-color="#ffe28a" offset=".31602"/>
      <stop stop-color="#ffffc7" offset=".36982"/>
      <stop stop-color="#fcffed" offset="1"/>
    </linearGradient>
    <linearGradient id="linearGradient3310" x1="54.404" x2="41.371" y1="66.377" y2="53.344" gradientTransform="translate(0,1.5)" gradientUnits="userSpaceOnUse">
      <stop stop-color="#1bffb0" stop-opacity=".5173" offset="0"/>
      <stop stop-color="#208d67" stop-opacity=".0025316" offset="1"/>
    </linearGradient>
    <linearGradient id="linearGradient3680" x1="12.266" x2="15.55" y1="63.913" y2="60.628" gradientTransform="translate(0,1.5)" gradientUnits="userSpaceOnUse">
      <stop stop-color="#ff0d4e" stop-opacity=".26498" offset="0"/>
      <stop stop-color="#ff2c65" stop-opacity="0" offset="1"/>
    </linearGradient>
  </defs>
  <metadata>
    <rdf:RDF>
      <cc:Work rdf:about="">
        <dc:format>
          image/svg+xml
        </dc:format>
        <dc:type rdf:resource="http://purl.org/dc/dcmitype/StillImage"/>
      </cc:Work>
    </rdf:RDF>
  </metadata>
  <path d="m36 33h26c1.108 0 2 0.892 2 2v27c0 1.108-0.892 2-2 2h-26c-1.108 0-2-0.892-2-2v-27c0-1.108 0.892-2 2-2z" fill="url(#linearGradient3087)" stop-color="#000000"/>
  <path d="m36 33h26c1.108 0 2 0.892 2 2v1h-30v-1c0-1.108 0.892-2 2-2z" fill="url(#radialGradient3091)" stop-color="#000000"/>
  <path d="m2 0h26c1.108 0 2 0.892 2 2v27c0 1.108-0.892 2-2 2h-26c-1.108 0-2-0.892-2-2v-27c0-1.108 0.892-2 2-2z" fill="url(#linearGradient97026)" stop-color="#000000"/>
  <path d="m36 0h26c1.108 0 2 0.892 2 2v27c0 1.108-0.892 2-2 2h-26c-1.108 0-2-0.892-2-2v-27c0-1.108 0.892-2 2-2z" fill="url(#linearGradient58859)" stop-color="#000000"/>
  <path d="m2 33h26c1.108 0 2 0.892 2 2v27c0 1.108-0.892 2-2 2h-26c-1.108 0-2-0.892-2-2v-27c0-1.108 0.892-2 2-2z" fill="url(#linearGradient2239)" stop-color="#000000"/>
  <path d="m2 0h26c1.108 0 2 0.892 2 2v1h-30v-1c0-1.108 0.892-2 2-2z" fill="url(#radialGradient97030)" stop-color="#000000"/>
  <path d="m36 0h26c1.108 0 2 0.892 2 2v1h-30v-1c0-1.108 0.892-2 2-2z" fill="url(#radialGradient58863)" stop-color="#000000"/>
  <path d="m2 33h26c1.108 0 2 0.892 2 2v1h-30v-1c0-1.108 0.892-2 2-2z" fill="url(#radialGradient2432)" stop-color="#000000"/>
  <path d="m7 8v16h14v-16h-13zm1 1h12v14h-12zm2 2v1h8v-1zm0 2v2h2v-2zm3 0v2h2v-2zm3 0v2h2v-2zm-6 3v2h2v-2zm3 0v2h2v-2zm3 0v2h2v-2zm-6 3v2h2v-2zm3 0v2h2v-2zm3 0v2h2v-2z" color="#000000" fill="#afe9fb" style="text-decoration-line:none;text-indent:0;text-transform:none"/>
  <path d="m51 8v1.414l4 4v-1.414zm0 2.818v9.182c0 1.434-1.007 2.662-2.414 2.941-1.407 0.2798-2.809-0.4679-3.357-1.793-0.5489-1.325-0.08711-2.846 1.105-3.643 1.148-0.767 2.65-0.6428 3.666 0.2715v-1.223c-0.4993-0.2892-1.044-0.4777-1.607-0.5332-0.2241-0.02207-0.4505-0.02544-0.6758-0.0098-0.6759 0.04702-1.345 0.2652-1.939 0.6621-1.584 1.058-2.202 3.097-1.473 4.857 0.7291 1.76 2.608 2.764 4.477 2.393 1.869-0.3717 3.219-2.019 3.219-3.924v-8.182z" color="#000000" color-rendering="auto" dominant-baseline="auto" fill="#97dfff" image-rendering="auto" shape-rendering="auto" solid-color="#000000" style="font-feature-settings:normal;font-variant-alternates:normal;font-variant-caps:normal;font-variant-ligatures:normal;font-variant-numeric:normal;font-variant-position:normal;isolation:auto;mix-blend-mode:normal;shape-padding:0;text-decoration-color:#000000;text-decoration-line:none;text-decoration-style:solid;text-indent:0;text-orientation:mixed;text-transform:none;white-space:normal" paint-order="normal"/>
  <path d="m13.61 41.94c-0.4646 0.0083-0.6914 0.2145-0.8066 0.3027-0.06298 0.02888-0.08886 0.01832-0.1992 0.1211-0.0093 0.0089-0.0184 0.01805-0.02734 0.02734-0.2124 0.2133-0.257 0.3467-0.293 0.4121 0.0095-0.01735-0.1071 0.1139-0.1855 0.416-0.0051 0.01874-0.0097 0.03763-0.01367 0.05664l-0.2266 1.135c-0.3128 0.1421-0.61 0.3146-0.8984 0.5098l-1.07-0.3652c-0.0071-2e-3 -0.0143-4e-3 -0.02149-0.0059-0.2889-0.09161-0.5723-0.1149-0.9102-0.04297-0.3378 0.0719-0.7636 0.2919-1.008 0.7148-6.528e-4 0.0013-0.0013 0.0026-0.00195 0.0039l-0.875 1.531c-0.00264 0.0045-0.00524 0.0091-0.00781 0.01367-0.2011 0.3646-0.217 0.8183-0.1152 1.15s0.2826 0.5701 0.4766 0.7617c0.01879 0.01901 0.03834 0.03725 0.05859 0.05469l0.793 0.668c-0.01754 0.2001-0.05469 0.3992-0.05469 0.5977 0 0.2066 0.01333 0.4141 0.03516 0.6133l-0.7734 0.6523c-0.0106 0.0089-0.02102 0.01801-0.03125 0.02734-0.254 0.2317-0.606 0.6314-0.5742 1.287 1.965e-4 0.01037-6.026e-4 0.0088 0 0.02344 0.00121 0.0222 0.00317 0.04434 0.00586 0.06641 0.02395 0.2206 0.07798 0.3855 0.1875 0.5762l0.00195 2e-3v2e-3l0.873 1.527c0.00382 0.0072 0.00773 0.01437 0.01172 0.02148 0.02826 0.0468 0.1233 0.2577 0.4121 0.459 0.02504 0.01311 0.2379 0.1229 0.2383 0.123 3.692e-4 1.31e-4 0.0908 0.02411 0.1484 0.03711 0.03775 0.01249 0.08449 0.04035 0.1172 0.04883h0.00195c0.06998 0.01826 0.2803 0.07149 0.5176 0.06055 0.1412-5e-3 0.2816-0.02023 0.4355-0.0625 0.01971-0.0053 0.03924-0.01112 0.05859-0.01758l1.07-0.3652c0.2885 0.1951 0.5857 0.3677 0.8984 0.5098l0.2266 1.135c0.0012 0.0059 0.0025 0.01173 0.0039 0.01758 0.02434 0.1115 0.0571 0.2415 0.1445 0.418 0.0013 0.0033 0.0026 0.0065 0.0039 0.0098 0.2135 0.4204 0.6964 0.8906 1.393 0.8906h1.75c0.0059 5.2e-5 0.01172 5.2e-5 0.01758 0 0.4098-0.0073 0.8095-0.2267 1.035-0.4551h2e-3c0.2065-0.2093 0.2535-0.3435 0.2891-0.4082 0.0013-2e-3 0.0026-0.0039 0.0039-0.0059-0.01581 0.02939 0.1012-0.1012 0.1816-0.4102 0.0061-0.02453 0.01136-0.04929 0.01563-0.07422l0.1973-1.102c0.3223-0.1448 0.6287-0.3241 0.9277-0.5254l1.07 0.3652c0.0065 2e-3 0.013 4e-3 0.01953 0.0059 0.2368 0.07499 0.4973 0.123 0.8438 0.06445 0.3502-0.05938 0.4506-0.1525 0.5723-0.2266 0.0066-0.0038 0.01307-0.0077 0.01953-0.01172 0.3617-0.2327 0.4218-0.4489 0.4258-0.4551 0.0067-0.01094 0.01323-0.02201 0.01953-0.0332l0.9062-1.531c0.0054-9e-3 0.01056-0.01815 0.01563-0.02734 0.2054-0.3723 0.212-0.827 0.1074-1.158-0.09812-0.3139-0.2709-0.5585-0.4688-0.7539-0.1867-0.1847-0.4386-0.2886-0.7012-0.2892h0.3398l-0.4902-0.4238c0.01795-0.2034 0.05664-0.4069 0.05664-0.6074 0-0.2334-0.02022-0.4399-0.03711-0.623v-2e-3l0.752-0.6504c0.0072-0.0058 0.0144-0.01162 0.02148-0.01758 0.08892-0.0811 0.3423-0.2393 0.5137-0.707 0.0013-0.0033 0.0026-0.0065 0.0039-0.0098 0.05168-0.146 0.09708-0.3787 0.07813-0.627-0.01927-0.2388-0.1148-0.4907-0.1855-0.6132-0.0019-0.0033-0.0039-0.0065-0.0059-0.0098l-0.9062-1.531-0.0039-0.0078c-0.02492-0.04127-0.1025-0.2607-0.4395-0.4785-0.2795-0.1807-0.6476-0.2671-0.9688-0.25-0.14 0.0052-0.2792 0.02066-0.4316 0.0625-0.01905 0.0053-0.03794 0.01116-0.05664 0.01758l-1.07 0.3652c-0.299-0.2013-0.6054-0.3806-0.9277-0.5254l-0.1973-1.102c-0.0018-0.01175-0.0037-0.02348-0.0059-0.03516-0.06482-0.2976-0.1898-0.559-0.4238-0.8144-0.2339-0.2554-0.6362-0.5039-1.115-0.5039h-1.75c-0.0065-6.4e-5 -0.01302-6.4e-5 -0.01953 0zm0.01953 1h1.75c0.3116 0 0.5125 0.3022 0.5625 0.5312l0.2812 1.562c9e-3 0.0031 0.02225-0.0032 0.03125 0 0.632 0.2232 1.223 0.5377 1.719 0.9688l1.469-0.5c0.07003-0.01922 0.1466-0.02945 0.2188-0.03125 0.1431-0.0084 0.2658 0.02319 0.375 0.09375 0.05458 0.03528 0.08892 0.09651 0.125 0.1562l0.9062 1.531c0.03895 0.06748 0.0597 0.1201 0.0625 0.1875 0.0084 0.07689-6e-3 0.1473-0.03125 0.2188-0.04599 0.1255-0.1634 0.2334-0.25 0.3125l-1.156 1c0.0316 0.1638 0.04285 0.3295 0.0625 0.5 0.01643 0.1782 0.03125 0.3534 0.03125 0.5312 0 0.3462-0.02975 0.7036-0.09375 1.031l1.156 1h0.03125c0.1034 0.1021 0.1809 0.2201 0.2188 0.3438 0.03919 0.1229 0.03615 0.2528-0.03125 0.375l-0.9062 1.531c-0.03744 0.05795-0.07086 0.1214-0.125 0.1562-0.05954 0.03626-0.1495 0.0821-0.2188 0.09375-0.131 0.02211-0.2712 0.0016-0.375-0.03125l-1.469-0.5c-0.4956 0.4311-1.087 0.7456-1.719 0.9688-9e-3 0.0032-0.02225-0.0031-0.03125 0l-0.2812 1.562c-0.0183 0.07026-0.06049 0.1257-0.09375 0.1875-0.03436 0.06259-0.07669 0.139-0.125 0.1875-0.09365 0.09504-0.2042 0.1538-0.3438 0.1562h-1.75c-0.2337 0-0.4078-0.1621-0.5-0.3438-0.02963-0.05979-0.05-0.1302-0.0625-0.1875l-0.3125-1.562c-0.6424-0.2233-1.216-0.5316-1.719-0.9688l-1.469 0.5c-0.07003 0.01923-0.1466 0.02945-0.2188 0.03125-0.08229 0.0048-0.1439-0.01174-0.2188-0.03125-0.05714-0.01463-0.1074-0.03314-0.1562-0.0625-0.00546-0.0035-0.02595 0.0038-0.03125 0-0.05519-0.03772-0.08893-0.09651-0.125-0.1562l-0.875-1.531c-0.03381-0.05857-0.0561-0.1286-0.0625-0.1875-3.89e-4 -0.0094-2.04e-4 -0.02185 0-0.03125-0.00984-0.203 0.1199-0.3813 0.25-0.5l1.187-1c-0.03064-0.1594-0.04694-0.3313-0.0625-0.5-0.01965-0.1705-0.03125-0.3581-0.03125-0.5312 0-0.3462 0.03075-0.7036 0.09375-1.031l-1.187-1c-0.2067-0.2042-0.3223-0.4744-0.1875-0.7188l0.875-1.531c0.1559-0.27 0.5264-0.2896 0.75-0.2188l1.469 0.5c0.5027-0.4372 1.076-0.7454 1.719-0.9688l0.3125-1.562c0.01825-0.07026 0.05939-0.1249 0.09375-0.1875s0.07669-0.139 0.125-0.1875c0.01617-0.01506 0.04495-0.01831 0.0625-0.03125 0.08073-0.05954 0.1743-0.1231 0.2812-0.125zm-5.371 7.686c2.087e-4 0.0023 0.00174 0.0055 0.00195 0.0078 5.681e-4 5e-3 -5.802e-4 0.01058 0 0.01563zm0.2637 4.699c0.07005 0.03686 0.1319 0.05672 0.1973 0.08008-0.0138-0.0033-0.04504-0.0098-0.04492-0.0098 2.832e-4 8.8e-5 -0.08103-0.03717-0.1523-0.07031z" color="#000000" color-rendering="auto" dominant-baseline="auto" fill="#f2c753" image-rendering="auto" shape-rendering="auto" solid-color="#000000" style="font-feature-settings:normal;font-variant-alternates:normal;font-variant-caps:normal;font-variant-ligatures:normal;font-variant-numeric:normal;font-variant-position:normal;isolation:auto;mix-blend-mode:normal;shape-padding:0;text-decoration-color:#000000;text-decoration-line:none;text-decoration-style:solid;text-indent:0;text-orientation:mixed;text-transform:none;white-space:normal"/>
  <path d="m44.09 43-0.3125 0.2812-2 2-0.2812 0.3125v7.625l0.09375 0.2188 1 2 0.2812 0.5625h1.9375l0.25-0.1875c1.141-0.5104 1.993-2.136 2.719-2.812h3.438c0.6484 0.7147 1.489 2.347 2.719 2.812l0.25 0.1875h1.9375l0.2812-0.5625 1-2 0.09375-0.2188v-7.625l-0.2812-0.3125-2-2-0.3125-0.2812h-10.406zm0.4062 1h10l2 2v7l-1 2h-1l-3-3h-4l-3 3h-1l-1-2v-7zm9 1c-0.5523 0-1 0.4477-1 1s0.4477 1 1 1 1-0.4477 1-1-0.4477-1-1-1zm-8 1v2h-2v1h2v2h1v-2h2v-1h-2v-2zm5 0c-0.5523 0-1 0.4477-1 1s0.4477 1 1 1 1-0.4477 1-1-0.4477-1-1-1zm4 2c-0.5523 0-1 0.4477-1 1s0.4477 1 1 1 1-0.4477 1-1-0.4477-1-1-1zm-3 1c-0.5523 0-1 0.4477-1 1s0.4477 1 1 1 1-0.4477 1-1-0.4477-1-1-1z" color="#000000" fill="#aef972" style="text-decoration-line:none;text-indent:0;text-transform:none"/>
  <g transform="matrix(.92933 0 0 .92962 2.2614 2.3051)">
    <path d="m31.959 14.86v0.0017c-1.7699 0.0087-3.067 0.2872-4.1269 0.51131 0 3.0776-0.37055 5.0773-2.6575 6.5527-2.422 1.244-4.3401 0.56455-7.006-0.97462-0.72397 0.80578-1.6128 1.7912-2.5052 3.3194l-0.0017-0.0017c-0.0097 0.01679-0.01689 0.03291-0.02648 0.04964-0.0047 0.0082-0.01014 0.01493-0.01489 0.02316-0.87705 1.5368-1.2842 2.7992-1.62 3.829 2.6656 1.539 4.2146 2.8608 4.3486 5.5797-0.13391 2.7189-1.6829 4.0407-4.3486 5.5797 0.33581 1.0298 0.74291 2.2922 1.62 3.829 5e-3 0.0086 0.0099 0.01623 0.01489 0.02483 0.0093 0.0163 0.01703 0.03163 0.02648 0.04799l0.0017-0.0017c0.89248 1.5283 1.7812 2.5135 2.5052 3.3194 2.6659-1.5392 4.5841-2.2187 7.006-0.97462 2.2865 1.4751 2.6573 3.476 2.6575 6.5527 1.0599 0.22411 2.357 0.50256 4.1269 0.51131v0.0017c0.01427 0 0.02716 3.5e-5 0.04137 0 0.0142 3.5e-5 0.02709 0 0.04137 0v-0.0017c1.7699-0.0088 3.067-0.2872 4.1269-0.51131 1.38e-4 -3.0785 0.37233-5.0806 2.6624-6.556 2.4194-1.2403 4.3371-0.56009 7.0011 0.97794 0.724-0.8058 1.6128-1.7911 2.5052-3.3194l0.0017 0.0017c0.0094-0.01636 0.01714-0.03168 0.02648-0.04799 5e-3 -0.0086 0.0099-0.01619 0.0149-0.02483 0.87705-1.5368 1.2842-2.7992 1.62-3.829-2.6656-1.539-4.2147-2.8608-4.3486-5.5797 0.13394-2.7189 1.683-4.0407 4.3486-5.5797-0.33581-1.0298-0.74291-2.2922-1.62-3.829-0.0047-0.0082-0.01014-0.01497-0.0149-0.02316-0.0096-0.01673-0.01678-0.03285-0.02648-0.04964l-0.0017 0.0017c-0.89244-1.5282-1.7813-2.5136-2.5052-3.3194-2.6639 1.538-4.5817 2.2182-7.0011 0.97793-2.2905-1.4756-2.6624-3.4765-2.6624-6.556-1.0599-0.22411-2.357-0.50256-4.1269-0.51131v-0.0017c-0.01429 0-0.02714 0.0016-0.04137 0.0017-0.01422-3.5e-5 -0.02708-0.0017-0.04137-0.0017zm0.19506 12.177c3.6588 1.75e-4 6.6245 2.9665 6.624 6.6253-1.74e-4 3.6583-2.9657 6.6238-6.624 6.624-3.6588 5.2e-4 -6.6251-2.9653-6.6253-6.624-5.19e-4 -3.6592 2.966-6.6258 6.6253-6.6253z" fill="url(#radialGradient2303)" stroke-width=".68839"/>
    <path d="m31.959 14.86v0.0017c-1.7699 0.0087-3.067 0.2872-4.1269 0.51131 0 3.0776-0.37055 5.0773-2.6575 6.5527-2.422 1.244-4.3401 0.56455-7.006-0.97462-0.72397 0.80578-1.6128 1.7912-2.5052 3.3194l-0.0017-0.0017c-0.0097 0.01679-0.01689 0.03291-0.02648 0.04964-0.0047 0.0082-0.01014 0.01493-0.01489 0.02316-0.87705 1.5368-1.2842 2.7992-1.62 3.829 2.6656 1.539 4.2146 2.8608 4.3486 5.5797-0.13391 2.7189-1.6829 4.0407-4.3486 5.5797 0.33581 1.0298 0.74291 2.2922 1.62 3.829 5e-3 0.0086 0.0099 0.01623 0.01489 0.02483 0.0093 0.0163 0.01703 0.03163 0.02648 0.04799l0.0017-0.0017c0.89248 1.5283 1.7812 2.5135 2.5052 3.3194 2.6659-1.5392 4.5841-2.2187 7.006-0.97462 2.2865 1.4751 2.6573 3.476 2.6575 6.5527 1.0599 0.22411 2.357 0.50256 4.1269 0.51131v0.0017c0.01427 0 0.02716 3.5e-5 0.04137 0 0.0142 3.5e-5 0.02709 0 0.04137 0v-0.0017c1.7699-0.0088 3.067-0.2872 4.1269-0.51131 1.38e-4 -3.0785 0.37233-5.0806 2.6624-6.556 2.4194-1.2403 4.3371-0.56009 7.0011 0.97794 0.724-0.8058 1.6128-1.7911 2.5052-3.3194l0.0017 0.0017c0.0094-0.01636 0.01714-0.03168 0.02648-0.04799 5e-3 -0.0086 0.0099-0.01619 0.0149-0.02483 0.87705-1.5368 1.2842-2.7992 1.62-3.829-2.6656-1.539-4.2147-2.8608-4.3486-5.5797 0.13394-2.7189 1.683-4.0407 4.3486-5.5797-0.33581-1.0298-0.74291-2.2922-1.62-3.829-0.0047-0.0082-0.01014-0.01497-0.0149-0.02316-0.0096-0.01673-0.01678-0.03285-0.02648-0.04964l-0.0017 0.0017c-0.89244-1.5282-1.7813-2.5136-2.5052-3.3194-2.6639 1.538-4.5817 2.2182-7.0011 0.97793-2.2905-1.4756-2.6624-3.4765-2.6624-6.556-1.0599-0.22411-2.357-0.50256-4.1269-0.51131v-0.0017c-0.01429 0-0.02714 0.0016-0.04137 0.0017-0.01422-3.5e-5 -0.02708-0.0017-0.04137-0.0017zm0.19506 12.177c3.6588 1.75e-4 6.6245 2.9665 6.624 6.6253-1.74e-4 3.6583-2.9657 6.6238-6.624 6.624-3.6588 5.2e-4 -6.6251-2.9653-6.6253-6.624-5.19e-4 -3.6592 2.966-6.6258 6.6253-6.6253z" fill="url(#radialGradient2303)" stroke="#fff" stroke-width=".68839"/>
    <g fill="none" stroke-linejoin="round" stroke-width="6.7259">
      <path transform="matrix(.63984 0 0 .63984 11.525 6.5167)" d="m31.936 11.477v2e-3c-2.7661 0.01366-4.7927 0.44858-6.4492 0.79883 0 4.81-0.5801 7.9363-4.1543 10.242-3.7853 1.9443-6.7827 0.88212-10.949-1.5234-1.1315 1.2593-2.5212 2.7991-3.916 5.1875l-0.00195-2e-3c-0.015161 0.02624-0.02604 0.05003-0.041016 0.07617-0.00741 0.01284-0.016008 0.02425-0.023437 0.03711-1.3707 2.4018-2.0084 4.375-2.5332 5.9844 4.166 2.4053 6.5875 4.4714 6.7969 8.7207-0.20929 4.2494-2.6308 6.3154-6.7969 8.7207 0.52483 1.6094 1.1625 3.5826 2.5332 5.9844 0.00781 0.01349 0.015639 0.02367 0.023437 0.03711 0.014592 0.02548 0.026252 0.0506 0.041016 0.07617l0.00195-2e-3c1.3948 2.3885 2.7845 3.9281 3.916 5.1875 4.1665-2.4056 7.1639-3.4677 10.949-1.5234 3.5735 2.3054 4.1541 5.4318 4.1543 10.24 1.6565 0.35025 3.6831 0.78516 6.4492 0.79883v0.0039c0.02231 0 0.04223 5.4e-5 0.06445 0 0.0222 5.4e-5 0.04213 0 0.06445 0v-0.0039c2.7661-0.01368 4.7927-0.44858 6.4492-0.79883 2.16e-4 -4.8113 0.58295-7.9403 4.1621-10.246 3.7813-1.9384 6.778-0.87447 10.941 1.5293 1.1315-1.2594 2.5212-2.799 3.916-5.1875l2e-3 2e-3c0.01476-0.02557 0.02643-0.05069 0.04102-0.07617 0.0078-0.01344 0.01565-0.02361 0.02344-0.03711 1.3707-2.4018 2.0064-4.375 2.5312-5.9844-4.1661-2.4053-6.5857-4.4713-6.795-8.7207 0.20933-4.2493 2.6289-6.3154 6.7949-8.7207-0.52483-1.6094-1.1605-3.5826-2.5312-5.9844-0.0074-0.01284-0.01601-0.02431-0.02344-0.03711-0.01498-0.02615-0.02586-0.04993-0.04102-0.07617l-2e-3 2e-3c-1.3948-2.3884-2.7845-3.9282-3.916-5.1875-4.1634 2.4038-7.1601 3.4657-10.941 1.5273-3.5798-2.3062-4.1621-5.4333-4.1621-10.246-1.6565-0.35025-3.6831-0.78516-6.4492-0.79883v-2e-3c-0.02233 0-0.04221 0.0019-0.06445 2e-3 -0.02223-5.4e-5 -0.04212-2e-3 -0.06445-2e-3zm0.30469 19.031c5.7182 2.73e-4 10.352 4.6353 10.352 10.354-2.71e-4 5.7175-4.6341 10.353-10.352 10.354-5.7182 8.12e-4 -10.355-4.6353-10.355-10.354-8.11e-4 -5.719 4.6365-10.354 10.355-10.354z" stroke="url(#linearGradient2714)"/>
      <path transform="matrix(.63984 0 0 .63984 11.525 6.5167)" d="m31.936 11.477v2e-3c-2.7661 0.01366-4.7927 0.44858-6.4492 0.79883 0 4.81-0.5801 7.9363-4.1543 10.242-3.7853 1.9443-6.7827 0.88212-10.949-1.5234-1.1315 1.2593-2.5212 2.7991-3.916 5.1875l-0.00195-2e-3c-0.015161 0.02624-0.02604 0.05003-0.041016 0.07617-0.00741 0.01284-0.016008 0.02425-0.023437 0.03711-1.3707 2.4018-2.0084 4.375-2.5332 5.9844 4.166 2.4053 6.5875 4.4714 6.7969 8.7207-0.20929 4.2494-2.6308 6.3154-6.7969 8.7207 0.52483 1.6094 1.1625 3.5826 2.5332 5.9844 0.00781 0.01349 0.015639 0.02367 0.023437 0.03711 0.014592 0.02548 0.026252 0.0506 0.041016 0.07617l0.00195-2e-3c1.3948 2.3885 2.7845 3.9281 3.916 5.1875 4.1665-2.4056 7.1639-3.4677 10.949-1.5234 3.5735 2.3054 4.1541 5.4318 4.1543 10.24 1.6565 0.35025 3.6831 0.78516 6.4492 0.79883v0.0039c0.02231 0 0.04223 5.4e-5 0.06445 0 0.0222 5.4e-5 0.04213 0 0.06445 0v-0.0039c2.7661-0.01368 4.7927-0.44858 6.4492-0.79883 2.16e-4 -4.8113 0.58295-7.9403 4.1621-10.246 3.7813-1.9384 6.778-0.87447 10.941 1.5293 1.1315-1.2594 2.5212-2.799 3.916-5.1875l2e-3 2e-3c0.01476-0.02557 0.02643-0.05069 0.04102-0.07617 0.0078-0.01344 0.01565-0.02361 0.02344-0.03711 1.3707-2.4018 2.0064-4.375 2.5312-5.9844-4.1661-2.4053-6.5857-4.4713-6.795-8.7207 0.20933-4.2493 2.6289-6.3154 6.7949-8.7207-0.52483-1.6094-1.1605-3.5826-2.5312-5.9844-0.0074-0.01284-0.01601-0.02431-0.02344-0.03711-0.01498-0.02615-0.02586-0.04993-0.04102-0.07617l-2e-3 2e-3c-1.3948-2.3884-2.7845-3.9282-3.916-5.1875-4.1634 2.4038-7.1601 3.4657-10.941 1.5273-3.5798-2.3062-4.1621-5.4333-4.1621-10.246-1.6565-0.35025-3.6831-0.78516-6.4492-0.79883v-2e-3c-0.02233 0-0.04221 0.0019-0.06445 2e-3 -0.02223-5.4e-5 -0.04212-2e-3 -0.06445-2e-3zm0.30469 19.031c5.7182 2.73e-4 10.352 4.6353 10.352 10.354-2.71e-4 5.7175-4.6341 10.353-10.352 10.354-5.7182 8.12e-4 -10.355-4.6353-10.355-10.354-8.11e-4 -5.719 4.6365-10.354 10.355-10.354z" stroke="url(#linearGradient3680)"/>
      <path transform="matrix(.63984 0 0 .63984 11.525 6.5167)" d="m31.936 11.477v2e-3c-2.7661 0.01366-4.7927 0.44858-6.4492 0.79883 0 4.81-0.5801 7.9363-4.1543 10.242-3.7853 1.9443-6.7827 0.88212-10.949-1.5234-1.1315 1.2593-2.5212 2.7991-3.916 5.1875l-0.00195-2e-3c-0.015161 0.02624-0.02604 0.05003-0.041016 0.07617-0.00741 0.01284-0.016008 0.02425-0.023437 0.03711-1.3707 2.4018-2.0084 4.375-2.5332 5.9844 4.166 2.4053 6.5875 4.4714 6.7969 8.7207-0.20929 4.2494-2.6308 6.3154-6.7969 8.7207 0.52483 1.6094 1.1625 3.5826 2.5332 5.9844 0.00781 0.01349 0.015639 0.02367 0.023437 0.03711 0.014592 0.02548 0.026252 0.0506 0.041016 0.07617l0.00195-2e-3c1.3948 2.3885 2.7845 3.9281 3.916 5.1875 4.1665-2.4056 7.1639-3.4677 10.949-1.5234 3.5735 2.3054 4.1541 5.4318 4.1543 10.24 1.6565 0.35025 3.6831 0.78516 6.4492 0.79883v0.0039c0.02231 0 0.04223 5.4e-5 0.06445 0 0.0222 5.4e-5 0.04213 0 0.06445 0v-0.0039c2.7661-0.01368 4.7927-0.44858 6.4492-0.79883 2.16e-4 -4.8113 0.58295-7.9403 4.1621-10.246 3.7813-1.9384 6.778-0.87447 10.941 1.5293 1.1315-1.2594 2.5212-2.799 3.916-5.1875l2e-3 2e-3c0.01476-0.02557 0.02643-0.05069 0.04102-0.07617 0.0078-0.01344 0.01565-0.02361 0.02344-0.03711 1.3707-2.4018 2.0064-4.375 2.5312-5.9844-4.1661-2.4053-6.5857-4.4713-6.795-8.7207 0.20933-4.2493 2.6289-6.3154 6.7949-8.7207-0.52483-1.6094-1.1605-3.5826-2.5312-5.9844-0.0074-0.01284-0.01601-0.02431-0.02344-0.03711-0.01498-0.02615-0.02586-0.04993-0.04102-0.07617l-2e-3 2e-3c-1.3948-2.3884-2.7845-3.9282-3.916-5.1875-4.1634 2.4038-7.1601 3.4657-10.941 1.5273-3.5798-2.3062-4.1621-5.4333-4.1621-10.246-1.6565-0.35025-3.6831-0.78516-6.4492-0.79883v-2e-3c-0.02233 0-0.04221 0.0019-0.06445 2e-3 -0.02223-5.4e-5 -0.04212-2e-3 -0.06445-2e-3zm0.30469 19.031c5.7182 2.73e-4 10.352 4.6353 10.352 10.354-2.71e-4 5.7175-4.6341 10.353-10.352 10.354-5.7182 8.12e-4 -10.355-4.6353-10.355-10.354-8.11e-4 -5.719 4.6365-10.354 10.355-10.354z" stroke="url(#linearGradient3310)"/>
    </g>
    <path transform="matrix(.63984 0 0 .63984 11.525 7.5167)" d="m31.936 11.477v2e-3c-2.7661 0.01366-4.7927 0.44858-6.4492 0.79883 0 4.81-0.5801 7.9363-4.1543 10.242-3.7853 1.9443-6.7827 0.88212-10.949-1.5234-1.1315 1.2593-2.5212 2.7991-3.916 5.1875l-0.00195-2e-3c-0.015161 0.02624-0.02604 0.05003-0.041016 0.07617-0.00741 0.01284-0.016008 0.02425-0.023437 0.03711-1.3707 2.4018-2.0084 4.375-2.5332 5.9844 4.166 2.4053 6.5875 4.4714 6.7969 8.7207-0.20929 4.2494-2.6308 6.3154-6.7969 8.7207 0.52483 1.6094 1.1625 3.5826 2.5332 5.9844 0.00781 0.01349 0.015639 0.02367 0.023437 0.03711 0.014592 0.02548 0.026252 0.0506 0.041016 0.07617l0.00195-2e-3c1.3948 2.3885 2.7845 3.9281 3.916 5.1875 4.1665-2.4056 7.1639-3.4677 10.949-1.5234 3.5735 2.3054 4.1541 5.4318 4.1543 10.24 1.6565 0.35025 3.6831 0.78516 6.4492 0.79883v0.0039c0.02231 0 0.04223 5.4e-5 0.06445 0 0.0222 5.4e-5 0.04213 0 0.06445 0v-0.0039c2.7661-0.01368 4.7927-0.44858 6.4492-0.79883 2.16e-4 -4.8113 0.58295-7.9403 4.1621-10.246 3.7813-1.9384 6.778-0.87447 10.941 1.5293 1.1315-1.2594 2.5212-2.799 3.916-5.1875l2e-3 2e-3c0.01476-0.02557 0.02643-0.05069 0.04102-0.07617 0.0078-0.01344 0.01565-0.02361 0.02344-0.03711 1.3707-2.4018 2.0064-4.375 2.5312-5.9844-4.1661-2.4053-6.5857-4.4713-6.795-8.7207 0.20933-4.2493 2.6289-6.3154 6.7949-8.7207-0.52483-1.6094-1.1605-3.5826-2.5312-5.9844-0.0074-0.01284-0.01601-0.02431-0.02344-0.03711-0.01498-0.02615-0.02586-0.04993-0.04102-0.07617l-2e-3 2e-3c-1.3948-2.3884-2.7845-3.9282-3.916-5.1875-4.1634 2.4038-7.1601 3.4657-10.941 1.5273-3.5798-2.3062-4.1621-5.4333-4.1621-10.246-1.6565-0.35025-3.6831-0.78516-6.4492-0.79883v-2e-3c-0.02233 0-0.04221 0.0019-0.06445 2e-3 -0.02223-5.4e-5 -0.04212-2e-3 -0.06445-2e-3zm0.30469 19.031c5.7182 2.73e-4 10.352 4.6353 10.352 10.354-2.71e-4 5.7175-4.6341 10.353-10.352 10.354-5.7182 8.12e-4 -10.355-4.6353-10.355-10.354-8.11e-4 -5.719 4.6365-10.354 10.355-10.354z" fill="url(#radialGradient2595)" stroke-width="1.0759"/>
  </g>
</svg>
