<?xml version="1.0" encoding="UTF-8"?>
<!-- Created with Inkscape (http://www.inkscape.org/) -->
<svg width="64" height="64" version="1.1" xmlns="http://www.w3.org/2000/svg" xmlns:cc="http://creativecommons.org/ns#" xmlns:dc="http://purl.org/dc/elements/1.1/" xmlns:rdf="http://www.w3.org/1999/02/22-rdf-syntax-ns#" xmlns:xlink="http://www.w3.org/1999/xlink">
	<defs>
		<radialGradient id="a" cx="32" cy="32.5" r="32" gradientTransform="matrix(1.3672 0 0 1.3458 -11.75 -11.239)" gradientUnits="userSpaceOnUse">
			<stop stop-color="#b80e00" offset="0"/>
			<stop stop-color="#8c163c" offset="1"/>
		</radialGradient>
	</defs>
	<metadata>
		<rdf:RDF>
			<cc:Work rdf:about="">
				<dc:format>image/svg+xml</dc:format>
				<dc:type rdf:resource="http://purl.org/dc/dcmitype/StillImage"/>
				<dc:title/>
			</cc:Work>
		</rdf:RDF>
	</metadata>
	<path d="m0 1v61l2 2h60l2-2v-61z" color="#000000" fill="url(#a)"/>
	<path d="m2 0-2 1v1h32 32v-1l-2-1h-30z" color="#000000" fill="#ff805a"/>
	<path d="m0 1v3l2-2z" fill="#ff9c5a"/>
	<path d="m64 4-2-2 2-1z" fill="#c94a46"/>
	<path d="m100.72 34.084-1e-3 -7.3e-4 1.439-0.74559-1.4379 0.74631" color="#000000" fill="#ffffff" fill-opacity=".67845"/>
	<g>
		<path d="m32.005 4.826-7.897 11.5s-2.16e-4 -6.3e-5 -6.48e-4 -1.89e-4c-0.10995-0.03209-14.183-4.14-14.183-4.14l2.4436 14.107-12.257 3.0668s12.257 9.8137 12.257 9.8137v-9.92e-4c5.36e-4 -10.839 8.7885-19.626 19.627-19.626h9.92e-4c10.839 5.36e-4 19.626 8.7787 19.626 19.627 0 0 1.87e-4 -1.5e-4 5.6e-4 -4.48e-4 0.09509-0.07607 12.267-9.8133 12.267-9.8133s-1.87e-4 -4.7e-5 -5.6e-4 -1.4e-4c-0.09509-0.02377-12.267-3.0666-12.267-3.0666s3.7e-5 -2.15e-4 1.12e-4 -6.44e-4c0.01902-0.10935 2.4533-14.107 2.4533-14.107l-14.194 4.1402" fill="#ff0e2c" fill-opacity=".0039216"/>
		<path d="m32.005 5.3341-7.8117 11.376s-2.09e-4 -6.2e-5 -6.26e-4 -1.83e-4c-0.1064-0.03106-14.03-4.0953-14.03-4.0953s1e-6 5e-6 3e-6 1.4e-5c4.06e-4 0.0023 2.4172 13.955 2.4172 13.955l-1.2e-5 3e-6c-2e-3 5.1e-4 -12.125 3.0337-12.125 3.0337s4.01e-6 4e-6 1.201e-5 1e-5c0.002039 0.0016 12.125 9.7077 12.125 9.7077v-9.61e-4c5.19e-4 -10.722 8.6936-19.414 19.415-19.414h9.6e-4c10.722 5.19e-4 19.414 8.6839 19.414 19.415 0 0 1.81e-4 -1.45e-4 5.42e-4 -4.34e-4 0.09202-0.07362 12.134-9.7073 12.134-9.7073s-1.81e-4 -4.5e-5 -5.42e-4 -1.35e-4c-0.09202-0.02301-12.134-3.0335-12.134-3.0335s3.7e-5 -2.09e-4 1.09e-4 -6.24e-4c0.0184-0.10582 2.4268-13.954 2.4268-13.954s-5e-6 2e-6 -1.4e-5 4e-6c-0.0024 6.89e-4 -14.04 4.0954-14.04 4.0954" fill="#ff132b" fill-opacity=".0063251"/>
		<path d="m32.005 5.8421-7.7264 11.252s-2.03e-4 -5.9e-5 -6.06e-4 -1.77e-4c-0.10285-0.03002-13.877-4.0506-13.877-4.0506s1e-6 9e-6 4e-6 2.7e-5c8.13e-4 0.0047 2.3908 13.802 2.3908 13.802l-2.4e-5 6e-6c-0.0041 1e-3 -11.993 3.0005-11.993 3.0005s8.03e-6 6e-6 2.402e-5 1.9e-5c0.004078 0.0033 11.993 9.6017 11.993 9.6017v-9.28e-4c5.02e-4 -10.605 8.5987-19.203 19.203-19.203h9.28e-4c10.605 5.01e-4 19.203 8.5891 19.203 19.203 0 0 1.75e-4 -1.4e-4 5.24e-4 -4.19e-4 0.08895-0.07116 12.002-9.6013 12.002-9.6013s-1.75e-4 -4.4e-5 -5.24e-4 -1.31e-4c-0.08896-0.02224-12.002-3.0004-12.002-3.0004s3.5e-5 -2.01e-4 1.04e-4 -6.02e-4c0.01779-0.1023 2.4003-13.802 2.4003-13.802s-9e-6 2e-6 -2.8e-5 8e-6c-0.0047 0.0014-13.887 4.0507-13.887 4.0507" fill="#ff182a" fill-opacity=".0087286"/>
		<path d="m32.005 6.3502-7.6411 11.128s-1.95e-4 -5.8e-5 -5.85e-4 -1.71e-4c-0.09931-0.02899-13.724-4.0058-13.724-4.0058s2e-6 1.4e-5 7e-6 4.2e-5c0.0012 7e-3 2.3644 13.65 2.3644 13.65l-3.6e-5 9e-6c-0.0061 0.0015-11.86 2.9674-11.86 2.9674s1.21e-5 1e-5 3.61e-5 2.9e-5c0.00612 0.0049 11.86 9.4957 11.86 9.4957v-8.96e-4c4.84e-4 -10.488 8.5037-18.991 18.991-18.991h8.96e-4c10.488 4.84e-4 18.991 8.4942 18.991 18.991 0 0 1.69e-4 -1.35e-4 5.06e-4 -4.05e-4 0.08589-0.06871 11.869-9.4953 11.869-9.4953s-1.69e-4 -4.2e-5 -5.06e-4 -1.26e-4c-0.08589-0.02147-11.869-2.9673-11.869-2.9673s3.4e-5 -1.95e-4 1.01e-4 -5.82e-4c0.01718-0.09877 2.3738-13.65 2.3738-13.65l-4.2e-5 1.2e-5c-0.0071 0.0021-13.734 4.006-13.734 4.006" fill="#ff1d29" fill-opacity=".011132"/>
		<path d="m32.005 6.8583-7.5558 11.004s-1.89e-4 -5.5e-5 -5.64e-4 -1.65e-4c-0.09576-0.02795-13.571-3.9611-13.571-3.9611s3e-6 1.8e-5 1e-5 5.5e-5c0.0016 0.0094 2.338 13.498 2.338 13.498l-4.8e-5 1.2e-5c-0.0082 2e-3 -11.728 2.9343-11.728 2.9343s1.6e-5 1.3e-5 4.8e-5 3.8e-5c0.00816 0.0065 11.728 9.3897 11.728 9.3897v-8.64e-4c4.67e-4 -10.371 8.4088-18.779 18.779-18.779h8.64e-4c10.371 4.67e-4 18.779 8.3994 18.779 18.779 0 0 1.63e-4 -1.31e-4 4.88e-4 -3.9e-4 0.08282-0.06626 11.737-9.3894 11.737-9.3894s-1.63e-4 -4.1e-5 -4.87e-4 -1.22e-4c-0.08282-0.0207-11.737-2.9342-11.737-2.9342s3.3e-5 -1.87e-4 9.8e-5 -5.61e-4c0.01656-0.09524 2.3473-13.497 2.3473-13.497s-1.9e-5 5e-6 -5.6e-5 1.6e-5c-0.0094 0.0028-13.58 3.9613-13.58 3.9613" fill="#ff2328" fill-opacity=".013536"/>
		<path d="m32.005 7.3663-7.4705 10.879-5.43e-4 -1.59e-4c-0.09221-0.02692-13.417-3.9164-13.417-3.9164l1.2e-5 6.9e-5c2e-3 0.01173 2.3116 13.345 2.3116 13.345l-6e-5 1.5e-5c-0.01019 0.0026-11.595 2.9012-11.595 2.9012s2.01e-5 1.6e-5 6.01e-5 4.8e-5c0.010194 0.0082 11.595 9.2837 11.595 9.2837v-8.33e-4c4.5e-4 -10.254 8.3139-18.567 18.568-18.567h8.32e-4c10.254 4.5e-4 18.567 8.3046 18.567 18.568 0 0 1.57e-4 -1.26e-4 4.7e-4 -3.76e-4 0.07975-0.0638 11.604-9.2834 11.604-9.2834s-1.57e-4 -3.9e-5 -4.69e-4 -1.17e-4c-0.07975-0.01994-11.604-2.9011-11.604-2.9011s3.1e-5 -1.8e-4 9.4e-5 -5.4e-4c0.01595-0.09172 2.3208-13.345 2.3208-13.345s-2.3e-5 7e-6 -6.9e-5 2e-5c-0.01181 0.0034-13.427 3.9166-13.427 3.9166" fill="#ff2827" fill-opacity=".015939"/>
		<path d="m32.005 7.8744-7.3852 10.755s-1.75e-4 -5.1e-5 -5.23e-4 -1.52e-4c-0.08867-0.02588-13.264-3.8717-13.264-3.8717s5e-6 2.8e-5 1.4e-5 8.3e-5c0.0024 0.01408 2.2852 13.193 2.2852 13.193l-7.2e-5 1.8e-5c-0.01223 0.0031-11.463 2.868-11.463 2.868s2.4e-5 1.9e-5 7.2e-5 5.8e-5c0.012233 0.0098 11.463 9.1777 11.463 9.1777v-8e-4c4.33e-4 -10.136 8.219-18.355 18.356-18.355h8e-4c10.136 4.32e-4 18.355 8.2098 18.355 18.356 0 0 1.51e-4 -1.21e-4 4.52e-4 -3.61e-4 0.07668-0.06135 11.472-9.1774 11.472-9.1774s-1.51e-4 -3.8e-5 -4.51e-4 -1.13e-4c-0.07669-0.01917-11.472-2.8679-11.472-2.8679s3e-5 -1.74e-4 9e-5 -5.2e-4c0.01534-0.08819 2.2944-13.193 2.2944-13.193s-2.8e-5 8e-6 -8.4e-5 2.5e-5c-0.01416 0.0041-13.274 3.8718-13.274 3.8718" fill="#ff2d26" fill-opacity=".018343"/>
		<path d="m32.005 8.3825-7.2999 10.631s-1.68e-4 -4.9e-5 -5.01e-4 -1.47e-4c-0.08512-0.02485-13.111-3.827-13.111-3.827s6e-6 3.2e-5 1.7e-5 9.6e-5c0.0028 0.01643 2.2589 13.041 2.2589 13.041l-8.4e-5 2.1e-5c-0.01427 0.0036-11.331 2.8349-11.331 2.8349s2.81e-5 2.3e-5 8.41e-5 6.8e-5c0.014271 0.01143 11.331 9.0717 11.331 9.0717v-7.68e-4c4.15e-4 -10.019 8.124-18.143 18.144-18.143h7.68e-4c10.019 4.15e-4 18.143 8.115 18.143 18.144 0 0 1.45e-4 -1.16e-4 4.34e-4 -3.47e-4 0.07362-0.05889 11.339-9.0714 11.339-9.0714s-1.45e-4 -3.6e-5 -4.34e-4 -1.08e-4c-0.07362-0.0184-11.339-2.8348-11.339-2.8348l8.7e-5 -4.98e-4c0.01472-0.08466 2.2679-13.04 2.2679-13.04s-3.3e-5 9e-6 -9.8e-5 2.8e-5c-0.01653 0.0048-13.121 3.8271-13.121 3.8271" fill="#ff3325" fill-opacity=".020746"/>
		<path d="m32.004 8.8905-7.2147 10.507s-1.6e-4 -4.7e-5 -4.8e-4 -1.4e-4c-0.08157-0.02381-12.958-3.7823-12.958-3.7823s7e-6 3.7e-5 1.9e-5 1.11e-4c0.0033 0.01877 2.2325 12.888 2.2325 12.888l-9.6e-5 2.4e-5c-0.01631 0.0041-11.198 2.8018-11.198 2.8018s3.21e-5 2.6e-5 9.6e-5 7.7e-5c0.01631 0.01306 11.198 8.9657 11.198 8.9657v-7.37e-4c3.98e-4 -9.9024 8.0291-17.931 17.932-17.931h7.37e-4c9.9024 3.98e-4 17.931 8.0201 17.931 17.932 0 0 1.39e-4 -1.11e-4 4.15e-4 -3.33e-4 0.07055-0.05644 11.207-8.9654 11.207-8.9654s-1.39e-4 -3.5e-5 -4.16e-4 -1.04e-4c-0.07055-0.01764-11.207-2.8017-11.207-2.8017s2.8e-5 -1.6e-4 8.3e-5 -4.78e-4c0.01411-0.08113 2.2414-12.888 2.2414-12.888l-1.11e-4 3.3e-5c-0.01889 0.0055-12.967 3.7824-12.967 3.7824" fill="#ff3824" fill-opacity=".02315"/>
		<path d="m32.004 9.3986-7.1294 10.383s-1.54e-4 -4.5e-5 -4.6e-4 -1.35e-4c-0.07803-0.02277-12.805-3.7376-12.805-3.7376s8e-6 4.2e-5 2.2e-5 1.25e-4c0.0037 0.02112 2.2061 12.736 2.2061 12.736l-1.08e-4 2.7e-5c-0.01835 0.0046-11.066 2.7687-11.066 2.7687s3.61e-5 2.9e-5 1.081e-4 8.7e-5c0.018349 0.01469 11.066 8.8597 11.066 8.8597v-7.04e-4c3.81e-4 -9.7853 7.9342-17.719 17.72-17.719h7.05e-4c9.7853 3.8e-4 17.719 7.9253 17.719 17.72 0 0 1.33e-4 -1.06e-4 3.98e-4 -3.18e-4 0.06748-0.05399 11.074-8.8595 11.074-8.8595s-1.33e-4 -3.3e-5 -3.98e-4 -9.9e-5l-11.074-2.7686s2.7e-5 -1.53e-4 8e-5 -4.58e-4c0.0135-0.07761 2.2149-12.735 2.2149-12.735s-4.2e-5 1.3e-5 -1.25e-4 3.7e-5c-0.02125 0.0062-12.814 3.7377-12.814 3.7377" fill="#ff3d23" fill-opacity=".025553"/>
		<path d="m32.004 9.9067-7.0441 10.258s-1.46e-4 -4.3e-5 -4.39e-4 -1.28e-4c-0.07448-0.02174-12.652-3.6929-12.652-3.6929l2.4e-5 1.38e-4c0.0041 0.02347 2.1797 12.583 2.1797 12.583l-1.2e-4 3e-5c-0.02039 0.0051-10.933 2.7355-10.933 2.7355s4.02e-5 3.2e-5 1.201e-4 9.6e-5c0.020388 0.01632 10.933 8.7537 10.933 8.7537 0-2.24e-4 0-4.48e-4 1e-6 -6.72e-4 3.63e-4 -9.6683 7.8393-17.507 17.508-17.507h6.73e-4c9.6683 3.63e-4 17.507 7.8305 17.507 17.508 0 0 1.26e-4 -1.01e-4 3.79e-4 -3.03e-4 0.06442-0.05153 10.942-8.7535 10.942-8.7535s-1.27e-4 -3.2e-5 -3.8e-4 -9.5e-5c-0.06441-0.0161-10.942-2.7355-10.942-2.7355s2.5e-5 -1.46e-4 7.5e-5 -4.36e-4c0.01288-0.07408 2.1884-12.583 2.1884-12.583s-4.6e-5 1.3e-5 -1.39e-4 4e-5c-0.02361 0.0069-12.661 3.693-12.661 3.693" fill="#ff4322" fill-opacity=".027957"/>
		<path d="m32.004 10.415-6.9588 10.134s-1.4e-4 -4.1e-5 -4.18e-4 -1.22e-4c-0.07093-0.0207-12.498-3.6482-12.498-3.6482s9e-6 5.1e-5 2.6e-5 1.52e-4c0.0045 0.02581 2.1533 12.431 2.1533 12.431l-1.32e-4 3.3e-5c-0.02243 0.0056-10.801 2.7024-10.801 2.7024s4.41e-5 3.6e-5 1.321e-4 1.06e-4c0.022427 0.01796 10.801 8.6477 10.801 8.6477v-6.4e-4c3.46e-4 -9.5512 7.7443-17.295 17.296-17.295h6.41e-4c9.5512 3.46e-4 17.295 7.7357 17.295 17.296 0 0 1.21e-4 -9.7e-5 3.61e-4 -2.89e-4l10.809-8.6475s-1.21e-4 -3e-5 -3.62e-4 -9e-5c-0.06135-0.01534-10.809-2.7024-10.809-2.7024s2.4e-5 -1.39e-4 7.2e-5 -4.16e-4c0.01227-0.07055 2.1619-12.431 2.1619-12.431l-1.53e-4 4.5e-5c-0.02597 0.0076-12.507 3.6482-12.507 3.6482" fill="#ff4821" fill-opacity=".030361"/>
		<path d="m32.004 10.923-6.8735 10.01s-1.33e-4 -3.9e-5 -3.97e-4 -1.16e-4c-0.06739-0.01967-12.345-3.6035-12.345-3.6035s1e-5 5.5e-5 2.9e-5 1.65e-4c0.0049 0.02816 2.1269 12.279 2.1269 12.279s-4.9e-5 1.2e-5 -1.45e-4 3.6e-5c-0.02447 0.0061-10.669 2.6693-10.669 2.6693s4.82e-5 3.8e-5 1.441e-4 1.15e-4c0.024465 0.01959 10.669 8.5417 10.669 8.5417v-6.09e-4c3.28e-4 -9.4342 7.6494-17.083 17.084-17.083h6.08e-4c9.4342 3.29e-4 17.083 7.6409 17.083 17.084 0 0 1.15e-4 -9.2e-5 3.44e-4 -2.75e-4 0.05828-0.04663 10.677-8.5415 10.677-8.5415s-1.14e-4 -2.9e-5 -3.43e-4 -8.6e-5c-0.05828-0.01457-10.677-2.6692-10.677-2.6692s2.3e-5 -1.32e-4 6.9e-5 -3.94e-4c0.01166-0.06702 2.1354-12.278 2.1354-12.278s-5.6e-5 1.6e-5 -1.67e-4 4.8e-5c-0.02833 0.0083-12.354 3.6035-12.354 3.6035" fill="#ff4d20" fill-opacity=".032764"/>
		<path d="m32.004 11.431s-6.7882 9.8857-6.7882 9.8857-1.25e-4 -3.7e-5 -3.76e-4 -1.1e-4c-0.06384-0.01863-12.192-3.5588-12.192-3.5588s1.1e-5 6e-5 3.2e-5 1.8e-4c0.0053 0.0305 2.1005 12.126 2.1005 12.126l-1.56e-4 3.9e-5c-0.0265 0.0066-10.536 2.6362-10.536 2.6362s5.21e-5 4.2e-5 1.561e-4 1.25e-4c0.026504 0.02122 10.536 8.4357 10.536 8.4357v-5.76e-4c3.12e-4 -9.3171 7.5545-16.871 16.872-16.871h5.76e-4c9.3171 3.11e-4 16.871 7.546 16.871 16.872 0 0 1.08e-4 -8.7e-5 3.25e-4 -2.6e-4 0.05521-0.04417 10.544-8.4356 10.544-8.4356s-1.08e-4 -2.7e-5 -3.25e-4 -8.1e-5c-0.05521-0.0138-10.544-2.6361-10.544-2.6361s2.1e-5 -1.25e-4 6.5e-5 -3.74e-4c0.01104-0.06349 2.1089-12.126 2.1089-12.126s-6e-5 1.8e-5 -1.8e-4 5.3e-5c-0.03069 9e-3 -12.201 3.5588-12.201 3.5588" fill="#ff531f" fill-opacity=".035168"/>
		<path d="m32.004 11.939s-6.7029 9.7615-6.7029 9.7615-1.19e-4 -3.4e-5 -3.55e-4 -1.03e-4c-0.06029-0.0176-12.039-3.514-12.039-3.514s1.1e-5 6.5e-5 3.3e-5 1.94e-4c0.0057 0.03285 2.0741 11.974 2.0741 11.974s-5.7e-5 1.4e-5 -1.68e-4 4.2e-5c-0.02854 0.0071-10.404 2.603-10.404 2.603s5.62e-5 4.5e-5 1.681e-4 1.34e-4c0.028543 0.02285 10.404 8.3297 10.404 8.3297v-5.44e-4c2.94e-4 -9.2001 7.4596-16.659 16.66-16.659h5.44e-4c9.2001 2.94e-4 16.659 7.4512 16.659 16.66 0 0 1.03e-4 -8.2e-5 3.07e-4 -2.46e-4 0.05215-0.04172 10.412-8.3296 10.412-8.3296s-1.02e-4 -2.6e-5 -3.07e-4 -7.7e-5c-0.05215-0.01304-10.412-2.603-10.412-2.603s2e-5 -1.18e-4 6.1e-5 -3.54e-4c0.01043-0.05997 2.0824-11.974 2.0824-11.974l-1.95e-4 5.7e-5c-0.03305 0.0096-12.047 3.5141-12.047 3.5141" fill="#ff581e" fill-opacity=".037571"/>
		<path d="m32.004 12.447s-6.6176 9.6373-6.6176 9.6373-1.11e-4 -3.3e-5 -3.34e-4 -9.8e-5c-0.05675-0.01656-11.886-3.4693-11.886-3.4693l3.6e-5 2.07e-4c0.0061 0.0352 2.0477 11.822 2.0477 11.822l-1.8e-4 4.5e-5c-0.03058 0.0077-10.271 2.5699-10.271 2.5699s6.02e-5 4.8e-5 1.802e-4 1.44e-4c0.030582 0.02448 10.271 8.2237 10.271 8.2237v-5.13e-4c2.77e-4 -9.083 7.3646-16.447 16.448-16.447h5.12e-4c9.083 2.77e-4 16.447 7.3564 16.447 16.448 0 0 9.7e-5 -7.8e-5 2.89e-4 -2.32e-4 0.04908-0.03926 10.28-8.2236 10.28-8.2236s-9.7e-5 -2.4e-5 -2.89e-4 -7.2e-5c-0.04908-0.01227-10.28-2.5699-10.28-2.5699s2e-5 -1.11e-4 5.8e-5 -3.32e-4c0.0098-0.05644 2.0559-11.821 2.0559-11.821s-7e-5 2e-5 -2.09e-4 6.1e-5c-0.03541 0.01033-11.894 3.4694-11.894 3.4694" fill="#ff5d1d" fill-opacity=".039975"/>
		<path d="m32.004 12.955-6.5323 9.5131s-1.05e-4 -3e-5 -3.14e-4 -9.1e-5c-0.0532-0.01553-11.733-3.4246-11.733-3.4246s1.3e-5 7.4e-5 3.9e-5 2.21e-4c0.0065 0.03754 2.0213 11.669 2.0213 11.669l-1.92e-4 4.8e-5c-0.03262 0.0082-10.139 2.5368-10.139 2.5368s6.42e-5 5.1e-5 1.921e-4 1.54e-4c0.032621 0.02612 10.139 8.1177 10.139 8.1177v-4.8e-4c2.59e-4 -8.966 7.2697-16.235 16.236-16.235h4.8e-4c8.9659 2.59e-4 16.235 7.2616 16.235 16.236 0 0 9e-5 -7.2e-5 2.71e-4 -2.16e-4 0.04601-0.03681 10.147-8.1176 10.147-8.1176s-9.1e-5 -2.3e-5 -2.71e-4 -6.8e-5c-0.04601-0.0115-10.147-2.5368-10.147-2.5368l5.4e-5 -3.12e-4c0.0092-0.05291 2.0294-11.669 2.0294-11.669s-7.4e-5 2.2e-5 -2.22e-4 6.5e-5c-0.03777 0.01102-11.741 3.4247-11.741 3.4247" fill="#ff631c" fill-opacity=".042378"/>
		<path d="m32.004 13.463s-6.447 9.3889-6.447 9.3889-9.8e-5 -2.9e-5 -2.92e-4 -8.6e-5c-0.04965-0.01449-11.579-3.3799-11.579-3.3799s1.4e-5 7.8e-5 4.1e-5 2.35e-4c0.0069 0.03989 1.9949 11.517 1.9949 11.517l-2.04e-4 5.1e-5c-0.03466 0.0087-10.007 2.5037-10.007 2.5037s6.82e-5 5.5e-5 2.042e-4 1.64e-4c0.034659 0.02775 10.007 8.0117 10.007 8.0117v-4.48e-4c2.43e-4 -8.8489 7.1748-16.023 16.024-16.023h4.48e-4c8.8489 2.42e-4 16.023 7.1668 16.023 16.024 0 0 8.5e-5 -6.8e-5 2.53e-4 -2.02e-4 0.04294-0.03435 10.015-8.0117 10.015-8.0117s-8.5e-5 -2.1e-5 -2.53e-4 -6.3e-5c-0.04294-0.01074-10.015-2.5036-10.015-2.5036s1.7e-5 -9.7e-5 5.1e-5 -2.9e-4c0.0086-0.04939 2.0029-11.517 2.0029-11.517s-7.9e-5 2.3e-5 -2.36e-4 6.9e-5c-0.04013 0.01171-11.587 3.3799-11.587 3.3799" fill="#ff681b" fill-opacity=".044782"/>
		<path d="m32.004 13.971s-6.3618 9.2647-6.3618 9.2647-9.1e-5 -2.6e-5 -2.72e-4 -7.9e-5c-0.04611-0.01346-11.426-3.3352-11.426-3.3352s1.4e-5 8.3e-5 4.3e-5 2.49e-4c0.0073 0.04224 1.9685 11.364 1.9685 11.364l-2.16e-4 5.4e-5c-0.0367 0.0092-9.8742 2.4705-9.8742 2.4705s7.22e-5 5.8e-5 2.161e-4 1.73e-4c0.036698 0.02938 9.8742 7.9057 9.8742 7.9057v-4.16e-4c2.25e-4 -8.7318 7.0798-15.811 15.812-15.811h4.16e-4c8.7318 2.25e-4 15.811 7.0719 15.811 15.812 0 0 7.9e-5 -6.3e-5 2.35e-4 -1.88e-4 0.03988-0.0319 9.8821-7.9057 9.8821-7.9057s-7.9e-5 -2e-5 -2.35e-4 -5.9e-5c-0.03988-0.01-9.8821-2.4705-9.8821-2.4705s1.6e-5 -9e-5 4.7e-5 -2.7e-4c8e-3 -0.04586 1.9764-11.364 1.9764-11.364s-8.4e-5 2.4e-5 -2.51e-4 7.3e-5c-0.0425 0.01239-11.434 3.3352-11.434 3.3352" fill="#ff6d1a" fill-opacity=".047185"/>
		<path d="m32.004 14.479s-6.2765 9.1405-6.2765 9.1405-8.4e-5 -2.5e-5 -2.51e-4 -7.3e-5c-0.04256-0.01242-11.273-3.2905-11.273-3.2905s1.5e-5 8.8e-5 4.5e-5 2.63e-4c0.0077 0.04458 1.9421 11.212 1.9421 11.212l-2.28e-4 5.7e-5c-0.03874 0.0097-9.7418 2.4374-9.7418 2.4374s7.63e-5 6.1e-5 2.282e-4 1.83e-4c0.038737 0.03101 9.7418 7.7997 9.7418 7.7997v-3.84e-4c2.08e-4 -8.6148 6.9849-15.599 15.6-15.599h3.84e-4c8.6148 2.07e-4 15.599 6.9771 15.599 15.6 0 0 7.2e-5 -5.7e-5 2.17e-4 -1.73e-4 0.03681-0.02945 9.7496-7.7997 9.7496-7.7997s-7.3e-5 -1.8e-5 -2.17e-4 -5.4e-5c-0.03681-0.0092-9.7496-2.4374-9.7496-2.4374s1.4e-5 -8.4e-5 4.3e-5 -2.5e-4c0.0074-0.04233 1.9499-11.212 1.9499-11.212s-8.8e-5 2.6e-5 -2.64e-4 7.7e-5c-0.04486 0.01309-11.281 3.2905-11.281 3.2905" fill="#ff7319" fill-opacity=".049589"/>
		<path d="m32.004 14.987-6.1912 9.0163s-7.6e-5 -2.2e-5 -2.29e-4 -6.7e-5c-0.03901-0.01139-11.12-3.2458-11.12-3.2458l4.8e-5 2.76e-4c0.0081 0.04693 1.9157 11.06 1.9157 11.06l-2.4e-4 6e-5c-0.04078 0.0102-9.6094 2.4043-9.6094 2.4043s8.03e-5 6.4e-5 2.402e-4 1.92e-4c0.040776 0.03265 9.6094 7.6937 9.6094 7.6937v-3.52e-4c1.9e-4 -8.4977 6.89-15.387 15.388-15.387h3.52e-4c8.4977 1.9e-4 15.387 6.8823 15.387 15.388 0 0 6.7e-5 -5.3e-5 1.99e-4 -1.59e-4 0.03374-0.02699 9.6172-7.6937 9.6172-7.6937s-6.6e-5 -1.7e-5 -1.98e-4 -5e-5c-0.03374-0.0084-9.6172-2.4043-9.6172-2.4043s1.3e-5 -7.6e-5 4e-5 -2.28e-4c0.0067-0.0388 1.9234-11.06 1.9234-11.06s-9.3e-5 2.7e-5 -2.78e-4 8.1e-5c-0.04722 0.01377-11.127 3.2458-11.127 3.2458" fill="#ff7818" fill-opacity=".051992"/>
		<path d="m32.004 15.495s-6.1059 8.8921-6.1059 8.8921-7e-5 -2.1e-5 -2.09e-4 -6.1e-5c-0.03547-0.01035-10.967-3.2011-10.967-3.2011s1.7e-5 9.7e-5 5.1e-5 2.9e-4c0.0085 0.04928 1.8893 10.907 1.8893 10.907s-8.5e-5 2.1e-5 -2.53e-4 6.3e-5c-0.04281 0.01071-9.477 2.3712-9.477 2.3712s8.43e-5 6.8e-5 2.522e-4 2.02e-4c0.042814 0.03428 9.477 7.5877 9.477 7.5877v-3.2e-4c1.73e-4 -8.3807 6.7951-15.175 15.176-15.175h3.2e-4c8.3807 1.73e-4 15.175 6.7875 15.175 15.176 0 0 6.1e-5 -4.8e-5 1.81e-4 -1.45e-4 0.03067-0.02454 9.4847-7.5878 9.4847-7.5878l-1.8e-4 -4.5e-5c-0.03067-0.0077-9.4847-2.3712-9.4847-2.3712s1.3e-5 -7e-5 3.7e-5 -2.08e-4c0.0061-0.03527 1.8969-10.907 1.8969-10.907s-9.8e-5 2.9e-5 -2.92e-4 8.5e-5c-0.04958 0.01446-10.974 3.2011-10.974 3.2011" fill="#ff7d17" fill-opacity=".054396"/>
		<path d="m32.004 16.003s-6.0206 8.7679-6.0206 8.7679-6.3e-5 -1.8e-5 -1.88e-4 -5.5e-5c-0.03192-0.0093-10.814-3.1564-10.814-3.1564s1.7e-5 1.01e-4 5.2e-5 3.04e-4c0.0089 0.05162 1.8629 10.755 1.8629 10.755s-8.8e-5 2.3e-5 -2.64e-4 6.7e-5c-0.04485 0.01122-9.3446 2.338-9.3446 2.338s8.83e-5 7e-5 2.642e-4 2.11e-4c0.044853 0.03591 9.3446 7.4817 9.3446 7.4817v-2.88e-4c1.56e-4 -8.2636 6.7001-14.964 14.964-14.964h2.88e-4c8.2636 1.56e-4 14.964 6.6927 14.964 14.964 0 0 5.4e-5 -4.4e-5 1.62e-4 -1.3e-4 0.02761-0.02209 9.3522-7.4818 9.3522-7.4818s-5.4e-5 -1.4e-5 -1.62e-4 -4.1e-5c-0.02761-0.0069-9.3522-2.3381-9.3522-2.3381s1.1e-5 -6.2e-5 3.2e-5 -1.87e-4c0.0055-0.03175 1.8704-10.755 1.8704-10.755s-1.02e-4 2.9e-5 -3.06e-4 8.9e-5c-0.05194 0.01515-10.821 3.1563-10.821 3.1563" fill="#ff8316" fill-opacity=".0568"/>
		<path d="m32.004 16.511s-5.9353 8.6437-5.9353 8.6437-5.6e-5 -1.6e-5 -1.67e-4 -4.9e-5c-0.02837-0.0083-10.66-3.1117-10.66-3.1117s1.8e-5 1.06e-4 5.5e-5 3.18e-4c0.0093 0.05397 1.8366 10.603 1.8366 10.603s-9.3e-5 2.3e-5 -2.77e-4 6.9e-5c-0.04689 0.01173-9.2122 2.3049-9.2122 2.3049s9.23e-5 7.4e-5 2.762e-4 2.21e-4c0.046892 0.03754 9.2122 7.3757 9.2122 7.3757v-2.56e-4c1.38e-4 -8.1466 6.6052-14.752 14.752-14.752h2.56e-4c8.1466 1.38e-4 14.752 6.5978 14.752 14.752 0 0 4.8e-5 -3.8e-5 1.45e-4 -1.15e-4 0.02454-0.01963 9.2198-7.3758 9.2198-7.3758s-4.8e-5 -1.2e-5 -1.45e-4 -3.6e-5c-0.02454-0.0061-9.2198-2.3049-9.2198-2.3049s1e-5 -5.5e-5 2.9e-5 -1.66e-4c0.0049-0.02822 1.844-10.603 1.844-10.603s-1.07e-4 3.1e-5 -3.2e-4 9.3e-5c-0.0543 0.01584-10.668 3.1116-10.668 3.1116" fill="#ff8815" fill-opacity=".059203"/>
		<path d="m32.004 17.02s-5.85 8.5194-5.85 8.5194-4.9e-5 -1.4e-5 -1.46e-4 -4.2e-5c-0.02483-0.0072-10.507-3.067-10.507-3.067s1.9e-5 1.11e-4 5.8e-5 3.32e-4c0.0098 0.05631 1.8102 10.45 1.8102 10.45l-2.88e-4 7.2e-5c-0.04893 0.01224-9.0799 2.2718-9.0799 2.2718s9.63e-5 7.7e-5 2.882e-4 2.3e-4c0.048931 0.03918 9.0799 7.2697 9.0799 7.2697v-2.24e-4c1.21e-4 -8.0295 6.5103-14.54 14.54-14.54h2.25e-4c8.0295 1.21e-4 14.54 6.503 14.54 14.54 0 0 4.2e-5 -3.4e-5 1.26e-4 -1.01e-4 0.02147-0.01718 9.0873-7.2698 9.0873-7.2698s-4.2e-5 -1.1e-5 -1.27e-4 -3.2e-5c-0.02147-0.0054-9.0873-2.2718-9.0873-2.2718s8e-6 -4.9e-5 2.5e-5 -1.46e-4c0.0043-0.02469 1.8175-10.45 1.8175-10.45s-1.11e-4 3.3e-5 -3.33e-4 9.8e-5c-0.05666 0.01653-10.514 3.0669-10.514 3.0669" fill="#ff8d14" fill-opacity=".061607"/>
		<path d="m32.004 17.528s-5.7647 8.3952-5.7647 8.3952-4.1e-5 -1.2e-5 -1.25e-4 -3.7e-5c-0.02128-0.0062-10.354-3.0222-10.354-3.0222l6e-5 3.45e-4c0.01016 0.05866 1.7838 10.298 1.7838 10.298s-1.01e-4 2.5e-5 -3.01e-4 7.5e-5c-0.05097 0.01275-8.9475 2.2387-8.9475 2.2387s1.003e-4 8e-5 3.002e-4 2.4e-4c0.050969 0.04081 8.9475 7.1637 8.9475 7.1637v-1.92e-4c1.04e-4 -7.9125 6.4154-14.328 14.328-14.328h1.92e-4c7.9125 1.04e-4 14.328 6.4082 14.328 14.328l1.08e-4 -8.7e-5c0.01841-0.01472 8.9548-7.1639 8.9548-7.1639s-3.6e-5 -9e-6 -1.09e-4 -2.7e-5c-0.0184-0.0046-8.9548-2.2387-8.9548-2.2387s7e-6 -4.1e-5 2.2e-5 -1.24e-4c0.0037-0.02116 1.791-10.298 1.791-10.298s-1.16e-4 3.4e-5 -3.48e-4 1.01e-4c-0.05902 0.01722-10.361 3.0222-10.361 3.0222" fill="#ff9313" fill-opacity=".06401"/>
		<path d="m32.004 18.036s-5.6794 8.271-5.6794 8.271l-1.05e-4 -3e-5c-0.01773-0.0052-10.201-2.9775-10.201-2.9775s2.1e-5 1.2e-4 6.2e-5 3.59e-4c0.01057 0.06101 1.7574 10.145 1.7574 10.145l-3.12e-4 7.8e-5c-0.05301 0.01326-8.8151 2.2055-8.8151 2.2055s1.043e-4 8.3e-5 3.122e-4 2.5e-4c0.053008 0.04244 8.8151 7.0577 8.8151 7.0577v-1.6e-4c8.7e-5 -7.7954 6.3204-14.116 14.116-14.116h1.6e-4c7.7954 8.6e-5 14.116 6.3134 14.116 14.116 0 0 3e-5 -2.4e-5 9.1e-5 -7.2e-5 0.01534-0.01227 8.8223-7.0579 8.8223-7.0579s-3.1e-5 -8e-6 -9.1e-5 -2.3e-5c-0.01534-0.0038-8.8223-2.2056-8.8223-2.2056s6e-6 -3.5e-5 1.8e-5 -1.04e-4c0.0031-0.01764 1.7645-10.146 1.7645-10.146s-1.21e-4 3.5e-5 -3.62e-4 1.06e-4c-0.06138 0.0179-10.208 2.9775-10.208 2.9775" fill="#ff9812" fill-opacity=".066414"/>
		<path d="m32.003 18.544s-5.5942 8.1468-5.5942 8.1468-2.8e-5 -8e-6 -8.3e-5 -2.4e-5c-0.01419-0.0041-10.048-2.9328-10.048-2.9328s2.2e-5 1.25e-4 6.5e-5 3.74e-4c0.01097 0.06335 1.731 9.9931 1.731 9.9931s-1.09e-4 2.7e-5 -3.24e-4 8.1e-5c-0.05505 0.01377-8.6827 2.1724-8.6827 2.1724s1.084e-4 8.7e-5 3.243e-4 2.6e-4c0.055047 0.04407 8.6827 6.9517 8.6827 6.9517v-1.28e-4c6.9e-5 -7.6784 6.2255-13.904 13.904-13.904h1.28e-4c7.6784 6.9e-5 13.904 6.2186 13.904 13.904 0 0 2.4e-5 -1.9e-5 7.2e-5 -5.8e-5 0.01227-0.0098 8.6899-6.9519 8.6899-6.9519s-2.5e-5 -6e-6 -7.3e-5 -1.8e-5c-0.01227-0.0031-8.6899-2.1725-8.6899-2.1725s4e-6 -2.8e-5 1.4e-5 -8.4e-5c0.0025-0.01411 1.738-9.9934 1.738-9.9934s-1.25e-4 3.7e-5 -3.75e-4 1.1e-4c-0.06374 0.01859-10.054 2.9327-10.054 2.9327" fill="#ff9d11" fill-opacity=".068817"/>
		<path d="m32.003 19.052s-5.5089 8.0226-5.5089 8.0226l-6.3e-5 -1.8e-5c-0.01064-0.0031-9.8945-2.8881-9.8945-2.8881s2.3e-5 1.29e-4 6.7e-5 3.87e-4c0.01138 0.0657 1.7046 9.8407 1.7046 9.8407l-3.36e-4 8.4e-5c-0.05709 0.01428-8.5503 2.1393-8.5503 2.1393s1.123e-4 9e-5 3.362e-4 2.69e-4c0.057086 0.04571 8.5503 6.8457 8.5503 6.8457v-9.6e-5c5.2e-5 -7.5613 6.1306-13.692 13.692-13.692h9.6e-5c7.5613 5.2e-5 13.692 6.1237 13.692 13.692 0 0 1.8e-5 -1.5e-5 5.4e-5 -4.3e-5 0.0092-0.0074 8.5574-6.8459 8.5574-6.8459s-1.8e-5 -5e-6 -5.4e-5 -1.4e-5c-0.0092-0.0023-8.5574-2.1394-8.5574-2.1394s4e-6 -2.1e-5 1.1e-5 -6.2e-5c0.0018-0.01058 1.7115-9.841 1.7115-9.841s-1.3e-4 3.8e-5 -3.89e-4 1.13e-4c-0.0661 0.01928-9.901 2.888-9.901 2.888" fill="#ffa310" fill-opacity=".071221"/>
		<path d="m32.003 19.56s-5.4236 7.8984-5.4236 7.8984l-4.2e-5 -1.2e-5c-0.0071-0.0021-9.7413-2.8434-9.7413-2.8434s2.4e-5 1.34e-4 7e-5 4.01e-4c0.01179 0.06805 1.6782 9.6883 1.6782 9.6883l-3.48e-4 8.7e-5c-0.05912 0.01479-8.4179 2.1062-8.4179 2.1062s1.16e-4 9.3e-5 3.48e-4 2.79e-4c0.05912 0.04734 8.4179 6.7397 8.4179 6.7397v-6.4e-5c3.5e-5 -7.4443 6.0357-13.48 13.48-13.48h6.4e-5c7.4443 3.5e-5 13.48 6.0289 13.48 13.48 0 0 1.2e-5 -1e-5 3.6e-5 -2.9e-5 0.0061-0.0049 8.4249-6.7399 8.4249-6.7399l-3.6e-5 -9e-6c-0.0061-0.0015-8.4249-2.1062-8.4249-2.1062s3e-6 -1.4e-5 8e-6 -4.2e-5c0.0012-0.0071 1.685-9.6887 1.685-9.6887s-1.35e-4 4e-5 -4.04e-4 1.18e-4c-0.06847 0.01997-9.7477 2.8433-9.7477 2.8433" fill="#ffa80f" fill-opacity=".073624"/>
		<path d="m32.003 20.068s-5.3383 7.7742-5.3383 7.7742l-2.1e-5 -6e-6c-0.0035-1e-3 -9.5882-2.7987-9.5882-2.7987l7.2e-5 4.14e-4c0.01219 0.0704 1.6518 9.5359 1.6518 9.5359s-1.2e-4 3.1e-5 -3.6e-4 9.1e-5c-0.06116 0.0153-8.2855 2.073-8.2855 2.073l3.6e-4 2.88e-4c0.06116 0.04897 8.2855 6.6337 8.2855 6.6337v-3.2e-5c1.8e-5 -7.3272 5.9407-13.268 13.268-13.268h3.2e-5c7.3272 1.7e-5 13.268 5.9341 13.268 13.268 0 0 6e-6 -5e-6 1.8e-5 -1.4e-5 0.0031-0.0025 8.2925-6.634 8.2925-6.634s-6e-6 -2e-6 -1.8e-5 -5e-6c-0.0031-7.67e-4 -8.2925-2.0731-8.2925-2.0731s1e-6 -7e-6 3e-6 -2e-5c6.14e-4 -0.0035 1.6585-9.5363 1.6585-9.5363s-1.39e-4 4e-5 -4.17e-4 1.21e-4c-0.07083 0.02066-9.5944 2.7986-9.5944 2.7986" fill="#ffad0e" fill-opacity=".076028"/>
		<path d="m32.003 20.576s-5.253 7.65-5.253 7.65l-9.435-2.754s2.5e-5 1.43e-4 7.4e-5 4.28e-4c0.0126 0.07274 1.6254 9.3836 1.6254 9.3836l-3.72e-4 9.3e-5c-0.0632 0.01581-8.1531 2.0399-8.1531 2.0399s1.24e-4 1e-4 3.72e-4 2.98e-4c0.0632 0.0506 8.1531 6.5277 8.1531 6.5277 0-7.2102 5.8458-13.056 13.056-13.056 7.2102 0 13.056 5.8393 13.056 13.056l8.16-6.528-8.16-2.04 1.632-9.384s-1.44e-4 4.2e-5 -4.31e-4 1.26e-4c-0.07319 0.02135-9.4411 2.7539-9.4411 2.7539" fill="#ffb30e" fill-opacity=".078431"/>
	</g>
	<path d="m32.003 20.576-5.253 7.65-9.435-2.754 1.6255 9.384-8.1535 2.04 8.1535 6.528c0-7.2102 5.8458-13.056 13.056-13.056 7.2102 0 13.056 5.8393 13.056 13.056l8.16-6.528-8.16-2.04 1.632-9.384-9.4415 2.754" fill="#f9f9f9"/>
</svg>
