<svg width="64" height="64" xmlns="http://www.w3.org/2000/svg" xmlns:xlink="http://www.w3.org/1999/xlink"><defs><radialGradient id="c" cx="31.744" cy="35.593" r="32" gradientTransform="matrix(-1.1553 0 0 1.1553 68.931 -5.529)" gradientUnits="userSpaceOnUse"><stop stop-color="#7f474b" offset="0"/><stop stop-color="#70524d" offset="1"/></radialGradient><radialGradient id="d" cx="35.574" cy="1.019" r="32" gradientTransform="matrix(0 1.1252 -5.1753 0 37.271 -39.029)" gradientUnits="userSpaceOnUse" xlink:href="#a"/><radialGradient id="e" cx="35.574" cy="1.036" r="32" gradientTransform="matrix(0 1.1252 -5.1753 0 37.363 -39.029)" gradientUnits="userSpaceOnUse" xlink:href="#a"/><radialGradient id="f" cx="35.574" cy="1.055" r="32" gradientTransform="matrix(0 1.1252 -5.1753 0 37.458 -39.029)" gradientUnits="userSpaceOnUse" xlink:href="#a"/><radialGradient id="g" cx="35.574" cy="1.071" r="32" gradientTransform="matrix(0 1.1252 -5.1753 0 37.544 -39.029)" gradientUnits="userSpaceOnUse" xlink:href="#a"/><radialGradient id="h" cx="35.574" cy="1.091" r="32" gradientTransform="matrix(0 1.1252 -5.1753 0 37.648 -39.029)" gradientUnits="userSpaceOnUse" xlink:href="#a"/><radialGradient id="i" cx="35.574" cy="1.113" r="32" gradientTransform="matrix(0 1.1252 -5.1753 0 37.758 -39.029)" gradientUnits="userSpaceOnUse" xlink:href="#a"/><radialGradient id="j" cx="35.574" cy="1.135" r="32" gradientTransform="matrix(0 1.1252 -5.1753 0 37.875 -39.029)" gradientUnits="userSpaceOnUse" xlink:href="#a"/><radialGradient id="k" cx="35.574" cy="1.159" r="32" gradientTransform="matrix(0 1.1252 -5.1753 0 38 -39.029)" gradientUnits="userSpaceOnUse" xlink:href="#a"/><radialGradient id="l" cx="35.574" cy="1.18" r="32" gradientTransform="matrix(0 1.1252 -5.1753 0 38.107 -39.029)" gradientUnits="userSpaceOnUse" xlink:href="#a"/><radialGradient id="m" cx="35.574" cy="1.208" r="32" gradientTransform="matrix(0 1.1252 -5.1753 0 38.252 -39.029)" gradientUnits="userSpaceOnUse" xlink:href="#a"/><radialGradient id="n" cx="35.574" cy="1.239" r="32" gradientTransform="matrix(0 1.1252 -5.1753 0 38.411 -39.029)" gradientUnits="userSpaceOnUse" xlink:href="#a"/><radialGradient id="o" cx="35.574" cy="1.273" r="32" gradientTransform="matrix(0 1.1252 -5.1753 0 38.587 -39.029)" gradientUnits="userSpaceOnUse" xlink:href="#a"/><radialGradient id="p" cx="35.574" cy="1.304" r="32" gradientTransform="matrix(0 1.1252 -5.1753 0 38.75 -39.029)" gradientUnits="userSpaceOnUse" xlink:href="#a"/><radialGradient id="q" cx="35.574" cy="1.346" r="32" gradientTransform="matrix(0 1.1252 -5.1753 0 38.966 -39.029)" gradientUnits="userSpaceOnUse" xlink:href="#a"/><radialGradient id="r" cx="35.574" cy="1.393" r="32" gradientTransform="matrix(0 1.1252 -5.1753 0 39.208 -39.029)" gradientUnits="userSpaceOnUse" xlink:href="#a"/><radialGradient id="s" cx="35.574" cy="1.439" r="32" gradientTransform="matrix(0 1.1252 -5.1753 0 39.446 -39.029)" gradientUnits="userSpaceOnUse" xlink:href="#a"/><radialGradient id="t" cx="36.463" cy="1.498" r="32" gradientTransform="matrix(0 .01804 -1.2755 0 33.91 1.341)" gradientUnits="userSpaceOnUse"><stop stop-color="#ffc67d" offset="0"/><stop stop-color="#ff88ae" stop-opacity="0" offset="1"/></radialGradient><radialGradient id="y" cx="21" cy="31.091" r="6.363" gradientTransform="translate(-.101 -3.202) scale(1.1001)" gradientUnits="userSpaceOnUse"><stop stop-color="#385ec7" offset="0"/><stop stop-color="#3c53c4" offset=".857"/><stop stop-color="#373cad" offset="1"/></radialGradient><radialGradient id="z" cx="21" cy="32.909" r="6.363" gradientTransform="translate(-.101 -3.202) scale(1.1001)" gradientUnits="userSpaceOnUse"><stop stop-color="#385ec7" stop-opacity=".001" offset="0"/><stop stop-color="#33a6ff" stop-opacity=".001" offset=".631"/><stop stop-color="#6be0ff" stop-opacity=".42" offset="1"/></radialGradient><radialGradient id="A" cx="20.787" cy="26.621" r="5.851" gradientTransform="matrix(1.2997 0 0 1.3806 -4.21 -10.603)" gradientUnits="userSpaceOnUse"><stop stop-color="#bcf9ff" stop-opacity=".223" offset="0"/><stop stop-color="#80f4ff" stop-opacity="0" offset="1"/></radialGradient><linearGradient id="b"><stop stop-color="#fff" offset="0"/><stop stop-color="#fff" stop-opacity="0" offset="1"/></linearGradient><linearGradient id="a"><stop stop-color="#f3c4d3" stop-opacity=".098" offset="0"/><stop stop-color="#f3c4d3" stop-opacity=".001" offset="1"/></linearGradient><linearGradient id="x" x1="20.685" x2="20.685" y1="15.441" y2="27.433" gradientUnits="userSpaceOnUse" xlink:href="#b"/><linearGradient id="w" x1="20.685" x2="20.685" y1="15.01" y2="27.433" gradientUnits="userSpaceOnUse" xlink:href="#b"/><linearGradient id="v" x1="29.017" x2="29.017" y1="38.021" y2="26.135" gradientTransform="translate(2)" gradientUnits="userSpaceOnUse"><stop stop-color="#a5b3d3" offset="0"/><stop stop-color="#b7c4e3" offset="1"/></linearGradient><linearGradient id="u" x1="8.623" x2="8.623" y1="32.932" y2="31.01" gradientTransform="translate(2)" gradientUnits="userSpaceOnUse"><stop stop-color="#998c9e" offset="0"/><stop stop-color="#505970" offset=".44"/><stop stop-color="#b7c4e3" offset=".659"/><stop stop-color="#d6ddef" offset=".784"/><stop stop-color="#8e9ab5" offset=".93"/><stop stop-color="#998c9e" offset="1"/></linearGradient></defs><path d="M1 0C.446 0 0 .446 0 1v62c0 .554.446 1 1 1h62c.554 0 1-.446 1-1V1c0-.554-.446-1-1-1z" fill="url(#c)"/><path d="M1 0C.446 0 0 .446 0 1v62-.224V63 2h1.752c19.15.002 39.445 0 60.213 0H64v61-.334V63 1a.998.998 0 0 0-1-1z" fill="url(#d)" transform="translate(0 .002)"/><path d="M1 0a.998.998 0 0 0-1 1.006v61.98-.197c0-.277.004-.184.01.246.012.016.03-.297.052-.897v-60c.072-.009.133-.013.185-.013.29-.016.357-.032.774-.044.246-.011.496-.019.747-.019 19.183.002 39.392 0 60.2 0 .346 0 .689.012 1.023.03.268.01.389.02.52.033.106 0 .22.01.427.028v59.744c.027.754.05 1.148.059 1.123l.003-.334v.286V1.21c0-.143 0-.22-.002-.224A.996.996 0 0 0 62.986 0H1" fill="url(#e)" transform="translate(0 .002)"/><path d="M1 0a.998.998 0 0 0-1 1.006v61.966-.169c0-.245.008-.145.021.266.022.034.06-.247.104-.807V2.274a.744.744 0 0 1 .173-.025c.27-.031.341-.064.743-.088.242-.022.492-.037.742-.037 19.217.002 39.34 0 60.187 0 .347 0 .69.024 1.013.06.256.02.372.042.494.065.1 0 .206.02.398.057v59.731c.055.703.102 1.052.119 1.003.004-.154.006-.265.006-.333v.237V1.196c0-.139 0-.215-.003-.224A.994.994 0 0 0 63.19.02a1.025 1.025 0 0 0-.217-.02H1" fill="url(#f)" transform="translate(0 .002)"/><path d="M1 0a.998.998 0 0 0-1 1.005v61.953-.14c0-.213.012-.107.031.287.034.05.091-.198.156-.718V2.413a.45.45 0 0 1 .16-.037c.252-.048.327-.097.715-.132.238-.034.487-.056.737-.056 19.25.002 39.286 0 60.173 0 .348 0 .688.036 1.001.09.244.029.356.062.47.098.091 0 .19.03.37.085v59.718c.082.653.151.957.176.884.007-.152.01-.262.01-.333v.188V1.184c0-.135 0-.21-.004-.224a.992.992 0 0 0-.819-.94 1.041 1.041 0 0 0-.217-.018H.999" fill="url(#g)" transform="translate(0 .002)"/><path d="M1 0a.998.998 0 0 0-1 1.005v61.939-.113c0-.18.015-.068.042.308.045.067.121-.149.208-.629V2.55a.312.312 0 0 1 .148-.05c.232-.063.311-.128.684-.176.234-.044.483-.074.732-.074 19.284.002 39.234 0 60.16 0 .35 0 .689.048.991.12.232.039.34.083.444.13.085 0 .176.04.341.114v59.704c.11.603.203.862.236.764a5.23 5.23 0 0 0 .014-.333v.14V1.168c0-.13-.002-.206-.006-.224a.991.991 0 0 0-.83-.927 1.066 1.066 0 0 0-.22-.017H1" fill="url(#h)" transform="translate(0 .002)"/><path d="M1 0a.998.998 0 0 0-1 1.004V62.93v-.084c0-.148.02-.029.052.328.056.084.152-.099.26-.539V2.686c.053-.04.097-.061.136-.061.212-.08.297-.16.655-.22.23-.056.477-.093.727-.093 19.317.002 39.18 0 60.147 0 .35 0 .688.06.98.151.22.047.322.102.418.162.078 0 .162.049.313.142v59.69c.137.553.253.767.295.645A4.73 4.73 0 0 0 64 62.77v.09V1.155c0-.126-.002-.202-.007-.224a.99.99 0 0 0-.843-.914A1.099 1.099 0 0 0 62.932 0H1" fill="url(#i)" transform="translate(0 .002)"/><path d="M1 0a.998.998 0 0 0-1 1.004v61.912-.056c0-.117.023.01.063.349.067.1.182-.05.312-.45V2.824c.048-.049.088-.074.123-.074.193-.095.282-.192.626-.264.225-.067.472-.11.721-.11h60.133c.352 0 .688.071.97.18a.944.944 0 0 1 .393.194c.07 0 .147.059.284.17V62.6c.164.502.304.671.354.524.014-.14.02-.25.02-.331v.042V1.14c0-.121-.002-.197-.009-.224a.99.99 0 0 0-.854-.902A1.142 1.142 0 0 0 62.918 0H1" fill="url(#j)" transform="translate(0 .002)"/><path d="M1 0a.998.998 0 0 0-1 1.004v61.898-.029c0-.084.027.049.073.37.079.117.212 0 .365-.36V2.96c.043-.057.079-.086.11-.086.174-.112.267-.225.596-.309a2.19 2.19 0 0 1 .717-.129c19.385.002 39.075 0 60.12 0 .353 0 .687.084.958.211a.81.81 0 0 1 .368.227c.063 0 .132.068.256.199v59.665c.192.452.354.576.413.404a3.11 3.11 0 0 0 .024-.33V1.125c0-.117-.004-.193-.01-.224a.99.99 0 0 0-.868-.89A1.198 1.198 0 0 0 62.905 0H1" fill="url(#k)" transform="translate(0 .002)"/><path d="M1 0a.998.998 0 0 0-1 1.003v61.885c0-.052.03.087.084.39.09.135.242.05.416-.27V3.097C.538 3.034.57 3 .599 3c.154-.127.251-.257.566-.352.217-.089.463-.148.711-.148 19.418.002 39.022 0 60.107 0 .355 0 .687.096.947.242a.723.723 0 0 1 .343.258c.056 0 .118.079.227.227v59.651c.22.402.406.482.473.285.018-.132.027-.243.027-.33V1.112c0-.113-.004-.188-.012-.224a.99.99 0 0 0-.879-.877A1.273 1.273 0 0 0 62.891 0H1.001" fill="url(#l)" transform="translate(0 .002)"/><path d="M1 0a.998.998 0 0 0-1 1.003v61.899c0-.02.035.126.094.41.101.152.273.1.468-.18V3.235c.034-.073.062-.11.087-.11.135-.143.236-.29.536-.397.213-.1.459-.166.707-.166 19.452.002 38.969 0 60.093 0 .356 0 .687.108.936.272a.678.678 0 0 1 .317.29c.05 0 .103.089.2.256v59.64c.246.352.455.386.531.165.02-.128.03-.239.03-.33V1.1c0-.108-.004-.184-.013-.224a.99.99 0 0 0-.891-.864 1.376 1.376 0 0 0-.218-.01H1" fill="url(#m)" transform="translate(0 .002)"/><path d="M1 0a.998.998 0 0 0-1 1.002v61.913c0 .013.039.165.105.432.112.168.303.148.52-.092V3.373c.029-.081.053-.123.074-.123.116-.159.222-.321.507-.44a1.52 1.52 0 0 1 .701-.185c19.486.002 38.916 0 60.08 0 .357 0 .687.12.925.302a.66.66 0 0 1 .292.323c.043 0 .089.098.171.284V63.16c.275.302.507.29.591.046.022-.125.034-.236.034-.33V1.085c0-.104-.005-.18-.016-.224a.99.99 0 0 0-.903-.852 1.514 1.514 0 0 0-.218-.008H1" fill="url(#n)" transform="translate(0 .002)"/><path d="M1 0a.998.998 0 0 0-1 1.002V62.93c0 .045.042.203.115.453.123.184.333.197.572-.003V3.51c.024-.089.045-.135.062-.135.097-.174.207-.353.478-.484.204-.122.448-.203.696-.203 19.519.002 38.863 0 60.067 0a1.4 1.4 0 0 1 .914.332c.15.103.224.225.267.355.035 0 .073.108.142.313V63.3c.302.251.557.196.65-.074a1.7 1.7 0 0 0 .037-.33V1.071c0-.1-.006-.175-.017-.224a.99.99 0 0 0-.915-.84A1.712 1.712 0 0 0 62.85 0H1" fill="url(#o)" transform="translate(0 .002)"/><path d="M1 0a.998.998 0 0 0-1 1.002v61.942c0 .077.046.242.126.473.134.201.363.246.624.086V3.647C.77 3.55.785 3.5.8 3.5a.981.981 0 0 1 .447-.529c.2-.133.444-.221.691-.221 19.553.002 38.811 0 60.053 0 .36 0 .686.144.903.362a.688.688 0 0 1 .242.388c.028 0 .059.118.114.341v59.598c.33.2.608.1.709-.194.026-.117.04-.228.04-.329V1.056c0-.095-.006-.17-.018-.224a.991.991 0 0 0-.927-.827A2.015 2.015 0 0 0 62.836 0H1" fill="url(#p)" transform="translate(0 .002)"/><path d="M1 0a.998.998 0 0 0-1 1.001v61.956c0 .11.05.281.136.494.146.218.394.296.677.176V3.784c.014-.105.026-.16.036-.16a.967.967 0 0 1 .419-.572c.196-.144.439-.24.686-.24 19.586.002 38.758 0 60.04 0 .36 0 .685.156.892.392a.73.73 0 0 1 .216.42c.021 0 .044.128.086.37v59.585c.356.15.658.005.768-.314.029-.114.044-.224.044-.328V1.042c0-.09-.007-.166-.02-.224a.992.992 0 0 0-.94-.814 2.524 2.524 0 0 0-.217-.005H1" fill="url(#q)" transform="translate(0 .002)"/><path d="M1 0a.998.998 0 0 0-1 1v61.972c0 .142.054.32.147.515a.643.643 0 0 0 .728.265V3.922c.01-.114.018-.172.025-.172a.97.97 0 0 1 .389-.617c.192-.155.434-.258.68-.258 19.62.002 38.705 0 60.027 0 .362 0 .686.168.882.422a.794.794 0 0 1 .19.453c.015 0 .03.137.057.398V63.72c.385.1.71-.09.828-.434.03-.11.047-.22.047-.328V1.028c0-.086-.007-.161-.021-.224a.994.994 0 0 0-.951-.802A3.563 3.563 0 0 0 62.809 0H1" fill="url(#r)" transform="translate(0 .002)"/><path d="M1 0a.998.998 0 0 0-1 1v61.986c0 .174.058.358.157.535a.802.802 0 0 0 .78.355V4.06c.005-.122.01-.185.013-.185a.987.987 0 0 1 .36-.66c.187-.166.429-.277.675-.277 19.653.002 38.652 0 60.013 0 .363 0 .685.18.87.452a.876.876 0 0 1 .166.485c.007 0 .015.147.028.427V63.86c.412.05.76-.186.887-.553a1.1 1.1 0 0 0 .05-.328V1.014A.996.996 0 0 0 63.014 0a6.67 6.67 0 0 0-.219 0H1" fill="url(#s)" transform="translate(0 .002)"/><path d="M1 0a.998.998 0 0 0-1 1v2h64V1.002a.998.998 0 0 0-1-1H1z" fill="url(#t)" transform="translate(0 .002)"/><g><g fill="#502" color="#000"><g fill-opacity=".036"><path d="M2 0 0 1v21.5h2zm2 0v3.5h2V0zm4 0v17.5h2V0zm4 0v32.5h2V0zm8 0v27.5h2V0zm16 0v.5h2V0zm12 0v19.5h2V0zm4 0v33.5h2V0zm4 0v14.5h2V0zm4 0v30.5h2V0zM40 .5v37h2V.5zm-36 5v37h2v-37zm28 0v37h2v-37zm-8 1v37h2v-37zm-8 3v37h2v-37zm12 2v37h2v-37zm16 5v37h2v-37zm-36 3v37h2v-37zm28 0v37h2v-37zm12 2v37h2v-37zm-48 3v37h2v-37zm60 8V64h2V32.5zm-8 5V64h2V37.5zm4 14V64h2V51.5z"/><path d="M2 0 0 1v29h2zm2 0v14h2V0zm4 0v33h2V0zm4 0v19h2V0zm8 0v37h2V0zm20 0v27h2V0zm8 0v32h2V0zm4 0v17h2V0zm4 0v3h2V0zm4 0v22h2V0zM28 5v37h2V5zm28 0v37h2V5zM36 6v37h2V6zm8 3v37h2V9zm-12 2v37h2V11zm-16 5v37h2V16zm8 3v37h2V19zm28 0v37h2V19zm-40 2v37h2V21zm48 3v37h2V24zM0 32v30l2 2V32zm8 5v27h2V37zM4 51v13h2V51z"/><path d="M2 0 0 1v27.5h2zm2 0v12.5h2V0zm4 0v31.5h2V0zm4 0v17.5h2V0zm8 0v35.5h2V0zm20 0v25.5h2V0zm8 0v30.5h2V0zm4 0v15.5h2V0zm4 0v1.5h2V0zm4 0v20.5h2V0zM28 3.5v37h2v-37zm28 0v37h2v-37zm-20 1v37h2v-37zm8 3v37h2v-37zm-12 2v37h2v-37zm-16 5v37h2v-37zm8 3v37h2v-37zm28 0v37h2v-37zm-40 2v37h2v-37zm48 3v37h2v-37zm-60 8V62l2 2V30.5zm8 5V64h2V35.5zm-4 14V64h2V49.5z"/><path d="M2 0 0 1v19h2zm2 0v1h2V0zm4 0v15h2V0zm4 0v30h2V0zm8 0v25h2V0zm20 0v35h2V0zm8 0v17h2V0zm4 0v31h2V0zm4 0v12h2V0zm4 0v28h2V0zM4 3v37h2V3zm28 0v37h2V3zm-8 1v37h2V4zm-8 3v37h2V7zm12 2v37h2V9zm16 5v37h2V14zM8 17v37h2V17zm28 0v37h2V17zm12 2v37h2V19zM0 22v37h2V22zm60 8v34h2V30zm-8 5v29h2V35zm4 14v15h2V49z"/><path d="M2 0 0 1v32.5h2zm2 0v14.5h2V0zm4 0v28.5h2V0zm16 0v9.5h2V0zm8 0v6.5h2V0zm4 0v11.5h2V0zm12 0v30.5h2V0zm8 0v25.5h2V0zM20 1.5v37h2v-37zm40 3v37h2v-37zm-48 2v37h2v-37zm40 1v37h2v-37zm-12 4v37h2v-37zm-36 5v37h2v-37zm28 0v37h2v-37zm-8 1v37h2v-37zm-8 3v37h2v-37zm12 2v37h2v-37zm16 5V64h2V27.5zm-36 3V64h2V30.5zm28 0V64h2V30.5zm12 2V64h2V32.5zm-48 3V62l2 2V35.5zm60 8V64h2V43.5zm-8 5V64h2V48.5zm4 14V64h2v-1.5z"/><path d="M4 0v25h2V0zm8 0v30h2V0zm12 0v11h2V0zm4 0v6h2V0zm8 0v9h2V0zm16 0v28h2V0zm4 0v14h2V0zm4 0v33h2V0zM40 1v37h2V1zM0 4v37h2V4zm48 2v37h2V6zM8 7v37h2V7zm12 4v37h2V11zm8 5v37h2V16zm28 0v37h2V16zm-20 1v37h2V17zm8 3v37h2V20zm-12 2v37h2V22zm-16 5v37h2V27zm8 3v34h2V30zm28 0v34h2V30zm-40 2v32h2V32zm48 3v29h2V35zM0 43v19l2 2V43zm8 5v16h2V48zM4 62v2h2v-2z"/></g><g fill-opacity=".015"><path d="M4 0 2 1v21.5h2zm2 0v3.5h2V0zm4 0v17.5h2V0zm4 0v32.5h2V0zm8 0v27.5h2V0zm16 0v.5h2V0zm12 0v19.5h2V0zm4 0v33.5h2V0zm4 0v14.5h2V0zm4 0v30.5h2V0zM42 .5v37h2V.5zm-36 5v37h2v-37zm28 0v37h2v-37zm-8 1v37h2v-37zm-8 3v37h2v-37zm12 2v37h2v-37zm16 5v37h2v-37zm-36 3v37h2v-37zm28 0v37h2v-37zm12 2v37h2v-37zm-48 3v37h2v-37zm60 8V64h2V32.5zm-8 5V64h2V37.5zm4 14V64h2V51.5z"/><path d="M4 0 2 1v29h2zm2 0v14h2V0zm4 0v33h2V0zm4 0v19h2V0zm8 0v37h2V0zm20 0v27h2V0zm8 0v32h2V0zm4 0v17h2V0zm4 0v3h2V0zm4 0v22h2V0zM30 5v37h2V5zm28 0v37h2V5zM38 6v37h2V6zm8 3v37h2V9zm-12 2v37h2V11zm-16 5v37h2V16zm8 3v37h2V19zm28 0v37h2V19zm-40 2v37h2V21zm48 3v37h2V24zM2 32v30l2 2V32zm8 5v27h2V37zM6 51v13h2V51z"/><path d="M4 0 2 1v27.5h2zm2 0v12.5h2V0zm4 0v31.5h2V0zm4 0v17.5h2V0zm8 0v35.5h2V0zm20 0v25.5h2V0zm8 0v30.5h2V0zm4 0v15.5h2V0zm4 0v1.5h2V0zm4 0v20.5h2V0zM30 3.5v37h2v-37zm28 0v37h2v-37zm-20 1v37h2v-37zm8 3v37h2v-37zm-12 2v37h2v-37zm-16 5v37h2v-37zm8 3v37h2v-37zm28 0v37h2v-37zm-40 2v37h2v-37zm48 3v37h2v-37zm-60 8V62l2 2V30.5zm8 5V64h2V35.5zm-4 14V64h2V49.5z"/><path d="M4 0 2 1v19h2zm2 0v1h2V0zm4 0v15h2V0zm4 0v30h2V0zm8 0v25h2V0zm20 0v35h2V0zm8 0v17h2V0zm4 0v31h2V0zm4 0v12h2V0zm4 0v28h2V0zM6 3v37h2V3zm28 0v37h2V3zm-8 1v37h2V4zm-8 3v37h2V7zm12 2v37h2V9zm16 5v37h2V14zm-36 3v37h2V17zm28 0v37h2V17zm12 2v37h2V19zM2 22v37h2V22zm60 8v34h2V30zm-8 5v29h2V35zm4 14v15h2V49z"/><path d="M4 0 2 1v32.5h2zm2 0v14.5h2V0zm4 0v28.5h2V0zm16 0v9.5h2V0zm8 0v6.5h2V0zm4 0v11.5h2V0zm12 0v30.5h2V0zm8 0v25.5h2V0zM22 1.5v37h2v-37zm40 3v37h2v-37zm-48 2v37h2v-37zm40 1v37h2v-37zm-12 4v37h2v-37zm-36 5v37h2v-37zm28 0v37h2v-37zm-8 1v37h2v-37zm-8 3v37h2v-37zm12 2v37h2v-37zm16 5V64h2V27.5zm-36 3V64h2V30.5zm28 0V64h2V30.5zm12 2V64h2V32.5zm-48 3V62l2 2V35.5zm60 8V64h2V43.5zm-8 5V64h2V48.5zm4 14V64h2v-1.5z"/><path d="M6 0v25h2V0zm8 0v30h2V0zm12 0v11h2V0zm4 0v6h2V0zm8 0v9h2V0zm16 0v28h2V0zm4 0v14h2V0zm4 0v33h2V0zM42 1v37h2V1zM2 4v37h2V4zm48 2v37h2V6zM10 7v37h2V7zm12 4v37h2V11zm8 5v37h2V16zm28 0v37h2V16zm-20 1v37h2V17zm8 3v37h2V20zm-12 2v37h2V22zm-16 5v37h2V27zm8 3v34h2V30zm28 0v34h2V30zm-40 2v32h2V32zm48 3v29h2V35zM2 43v19l2 2V43zm8 5v16h2V48zM6 62v2h2v-2z"/></g></g></g><g transform="translate(0 1)"><g transform="translate(2)" paint-order="stroke fill markers"><path d="M5 36c2.203 0 4-1.797 4-4s-1.797-4-4-4-4 1.797-4 4 1.797 4 4 4zm0-1c-1.663 0-3-1.337-3-3s1.337-3 3-3 3 1.337 3 3-1.337 3-3 3z" color="#000" fill="#b7c4e3" style="-inkscape-stroke:none"/><path d="M5 28a4.008 4.008 0 0 0-3.99 4.25C1.14 30.163 2.88 28.5 5 28.5s3.86 1.663 3.99 3.75c.005-.083.01-.166.01-.25 0-2.203-1.797-4-4-4zm-2.988 4.25A2.992 2.992 0 0 0 5 35.5a2.992 2.992 0 0 0 2.988-3.25C7.862 33.795 6.578 35 5 35s-2.862-1.205-2.988-2.75z" color="#000" fill="#e3edff" fill-opacity=".348" style="-inkscape-stroke:none"/><path d="M5 28.5a2.992 2.992 0 0 0-2.988 3.25C2.138 30.205 3.422 29 5 29s2.862 1.205 2.988 2.75A2.992 2.992 0 0 0 5 28.5zm-3.99 3.25c-.005.083-.01.166-.01.25 0 2.203 1.797 4 4 4a4.008 4.008 0 0 0 3.99-4.25C8.86 33.837 7.12 35.5 5 35.5s-3.86-1.663-3.99-3.75z" color="#000" fill="#998c9e" style="-inkscape-stroke:none"/><circle cx="5" cy="32" r="3.5" fill="none" stroke="#545c73" stroke-linecap="round" stroke-linejoin="round" stroke-opacity=".548" stroke-width=".3"/></g><rect x="9" y="31" width="4" height="2" rx=".434" ry=".434" fill="url(#u)" paint-order="stroke fill markers"/><g fill="#250f17" fill-opacity=".02" opacity=".478" paint-order="stroke fill markers"><path d="M23 27.802a11 11 0 1 0 0 22 11 11 0 0 0 7.516-3H52c1.108 0 2-.892 2-2v-12c0-1.108-.892-2-2-2H30.545a11 11 0 0 0-7.545-3z"/><path d="M23 26.102a11 11 0 1 0 0 22 11 11 0 0 0 7.516-3H52c1.108 0 2-.892 2-2v-12c0-1.108-.892-2-2-2H30.545a11 11 0 0 0-7.545-3z"/><path d="M23 25.397a11 11 0 0 0 0 22 11 11 0 0 0 7.516-3H52c1.108 0 2-.892 2-2v-12c0-1.108-.892-2-2-2H30.545a11 11 0 0 0-7.545-3z"/><path d="M23 24.857a11 11 0 1 0 0 22 11 11 0 0 0 7.516-3H52c1.108 0 2-.892 2-2v-12c0-1.108-.892-2-2-2H30.545a11 11 0 0 0-7.545-3z"/><path d="M23 24.401a11 11 0 0 0 0 22 11 11 0 0 0 7.516-3H52c1.108 0 2-.892 2-2v-12c0-1.108-.892-2-2-2H30.545a11 11 0 0 0-7.545-3z"/><path d="M23 24a11 11 0 1 0 0 22 11 11 0 0 0 7.516-3H52c1.108 0 2-.892 2-2V29c0-1.108-.892-2-2-2H30.545A11 11 0 0 0 23 24z"/><path d="M23 23.637a11 11 0 0 0 0 22 11 11 0 0 0 7.516-3H52c1.108 0 2-.892 2-2v-12c0-1.108-.892-2-2-2H30.545a11 11 0 0 0-7.545-3z"/><path d="M23 23.303a11 11 0 1 0 0 22 11 11 0 0 0 7.516-3H52c1.108 0 2-.892 2-2v-12c0-1.108-.892-2-2-2H30.545a11 11 0 0 0-7.545-3z"/><path d="M23 22.992a11 11 0 1 0 0 22 11 11 0 0 0 7.516-3H52c1.108 0 2-.892 2-2v-12c0-1.108-.892-2-2-2H30.545a11 11 0 0 0-7.545-3z"/><path d="M23 22.701a11 11 0 1 0 0 22 11 11 0 0 0 7.516-3H52c1.108 0 2-.892 2-2v-12c0-1.108-.892-2-2-2H30.545a11 11 0 0 0-7.545-3z"/><path d="M23 22.425a11 11 0 0 0 0 22 11 11 0 0 0 7.516-3H52c1.108 0 2-.892 2-2v-12c0-1.108-.892-2-2-2H30.545a11 11 0 0 0-7.545-3z"/><path d="M23 22.162a11 11 0 1 0 0 22 11 11 0 0 0 7.516-3H52c1.108 0 2-.892 2-2v-12c0-1.108-.892-2-2-2H30.545a11 11 0 0 0-7.545-3z"/><path d="M23 21.911a11 11 0 1 0 0 22 11 11 0 0 0 7.516-3H52c1.108 0 2-.892 2-2v-12c0-1.108-.892-2-2-2H30.545a11 11 0 0 0-7.545-3z"/><path d="M23 21.671a11 11 0 1 0 0 22 11 11 0 0 0 7.516-3H52c1.108 0 2-.892 2-2v-12c0-1.108-.892-2-2-2H30.545a11 11 0 0 0-7.545-3z"/><path d="M23 21.439a11 11 0 0 0 0 22 11 11 0 0 0 7.516-3H52c1.108 0 2-.892 2-2v-12c0-1.108-.892-2-2-2H30.545a11 11 0 0 0-7.545-3z"/><path d="M23 21.216a11 11 0 1 0 0 22 11 11 0 0 0 7.516-3H52c1.108 0 2-.892 2-2v-12c0-1.108-.892-2-2-2H30.545a11 11 0 0 0-7.545-3z"/><path d="M23 21a11 11 0 1 0 0 22 11 11 0 0 0 7.516-3H52c1.108 0 2-.892 2-2V26c0-1.108-.892-2-2-2H30.545A11 11 0 0 0 23 21z"/></g><path d="M23 21c-6.075 0-11 4.925-11 11s4.925 11 11 11a11 11 0 0 0 7.516-3H52c1.108 0 2-.892 2-2V26c0-1.108-.892-2-2-2H30.545A11 11 0 0 0 23 21z" fill="url(#v)" paint-order="stroke fill markers"/><path transform="translate(2)" d="M21 22.039c-2.608 0-5.199 1.074-7.043 2.918S11.039 29.392 11.039 32s1.074 5.199 2.918 7.043 4.435 2.918 7.043 2.918c2.5-.009 4.984-1 6.803-2.717a1.04 1.04 0 0 1 .713-.283H50c.55 0 .96-.41.96-.96V26c0-.551-.41-.962-.96-.962H28.545a1.04 1.04 0 0 1-.713-.283A10.073 10.073 0 0 0 21 22.039z" fill="none" stroke="url(#w)" stroke-width="2" paint-order="stroke fill markers"/><path transform="translate(2)" d="M21 21.623c-2.722 0-5.413 1.114-7.338 3.04S10.623 29.277 10.623 32s1.114 5.413 3.04 7.338a10.485 10.485 0 0 0 7.339 3.039c2.61-.01 5.188-1.04 7.086-2.83.37-.381-.168-.952-.57-.606-.105.099.216-.178.103-.09-.113.089.234-.155.113-.078s.247-.133.12-.068.258-.11.125-.057.268-.085.13-.044.274-.06.133-.034.28-.033.137-.02c-.143.014.28-.005.137-.005-.535.02-.535.812 0 .832H50c.757 0 1.377-.62 1.377-1.377V26c0-.757-.62-1.377-1.377-1.377H28.545c-.535.02-.535.812 0 .832.143 0-.28-.02-.137-.006.143.014-.278-.046-.137-.02.141.028-.27-.073-.133-.033s-.264-.098-.13-.045-.253-.122-.125-.056-.24-.146-.12-.069c.121.078-.226-.166-.113-.078.113.088-.208-.188-.103-.09.402.346.94-.224.57-.605A10.475 10.475 0 0 0 21 21.623z" fill="none" stroke="url(#x)" stroke-linecap="round" stroke-linejoin="round" stroke-width=".5" paint-order="stroke fill markers"/><path d="M23 25a7 7 0 0 0-7 7 7 7 0 0 0 7 7 7 7 0 0 0 5.72-2.99A12 12 0 0 1 28 32a12 12 0 0 1 .727-4.023A7 7 0 0 0 23 25z" fill="url(#y)" paint-order="stroke fill markers"/><path d="M23 25a7 7 0 0 0-7 7 7 7 0 0 0 7 7 7 7 0 0 0 5.72-2.99A12 12 0 0 1 28 32a12 12 0 0 1 .727-4.023A7 7 0 0 0 23 25z" fill="url(#z)" paint-order="stroke fill markers"/><path d="M23 25.785c-1.633 0-3.24.666-4.394 1.82s-1.82 2.762-1.82 4.395.665 3.24 1.82 4.394 2.761 1.82 4.394 1.82h.002a6.293 6.293 0 0 0 5.074-2.654.793.793 0 0 1 .404-.308 12 12 0 0 1-.214-.873c-.368.087-.71.295-.955.646-.96 1.373-2.636 2.25-4.311 2.256-1.377 0-2.761-.574-3.734-1.547S17.719 33.376 17.719 32s.573-2.761 1.547-3.735 2.357-1.547 3.734-1.547c1.676 0 3.355.875 4.318 2.247a1.6 1.6 0 0 0 .952.644 12 12 0 0 1 .216-.875.79.79 0 0 1-.402-.305A6.296 6.296 0 0 0 23 25.785z" color="#000" fill="url(#A)" style="-inkscape-stroke:none" paint-order="stroke fill markers"/><path d="M34 29h15c.554 0 1 .446 1 1v4c0 .554-.446 1-1 1H34c-.554 0-1-.446-1-1v-4c0-.554.446-1 1-1z" fill="#6ea298" paint-order="stroke fill markers"/><g transform="translate(-.5)" fill="#001340" fill-opacity=".562" stroke-width="2" paint-order="stroke fill markers"><circle cx="38.5" cy="32" r="1"/><circle cx="42.5" cy="32" r="1"/><circle cx="46.5" cy="32" r="1"/></g><path d="M20.568 30a.276.276 0 0 0-.276.278c0 2.5 1.932 4.722 2.208 4.722s2.209-2.222 2.209-4.722a.276.276 0 0 0-.276-.278z" fill="none" stroke="#b7c4e3" color="#feab00"/></g></svg>