<?xml version="1.0" encoding="UTF-8"?>
<!-- Created with Inkscape (http://www.inkscape.org/) -->
<svg width="64" height="64" version="1.1" xmlns="http://www.w3.org/2000/svg" xmlns:cc="http://creativecommons.org/ns#" xmlns:dc="http://purl.org/dc/elements/1.1/" xmlns:rdf="http://www.w3.org/1999/02/22-rdf-syntax-ns#" xmlns:xlink="http://www.w3.org/1999/xlink">
	<defs>
		<linearGradient id="b" x1="35" x2="33.647" y1="39" y2="41.344" gradientUnits="userSpaceOnUse">
			<stop stop-color="#e38111" offset="0"/>
			<stop stop-color="#fd9621" offset="1"/>
		</linearGradient>
		<radialGradient id="a" cx="32" cy="32.5" r="32" gradientTransform="matrix(1 0 0 .98438 0 .50781)" gradientUnits="userSpaceOnUse">
			<stop stop-color="#4e3434" offset="0"/>
			<stop stop-color="#3b3b3b" stop-opacity=".99564" offset="1"/>
		</radialGradient>
	</defs>
	<metadata>
		<rdf:RDF>
			<cc:Work rdf:about="">
				<dc:format>image/svg+xml</dc:format>
				<dc:type rdf:resource="http://purl.org/dc/dcmitype/StillImage"/>
				<dc:title/>
			</cc:Work>
		</rdf:RDF>
	</metadata>
	<path d="m0 1v61l2 2h60l2-2v-61h-32z" color="#000000" fill="url(#a)"/>
	<path d="m2 0-2 1v1h64v-1l-2-1h-30z" color="#000000" fill="#aa9696"/>
	<path d="m0 1v3l2-2z" fill="#bcacac"/>
	<g fill="#501616" opacity=".3">
		<path d="m55.066 21.688-27.066 8.458v10.15l12.303 4.6128-12.303 3.8452v10.15l27.066-8.458v-10.15l-12.303-4.6128 12.303-3.8452z" fill-opacity=".0039216"/>
		<path d="m43.5 16.688-23 7.1875v8.625l10.455 3.9199-10.455 3.2676v8.625l23-7.1875v-8.625l-10.455-3.9199 10.455-3.2676z" fill-opacity=".031373"/>
		<g>
			<path d="m55.066 21.688-27.066 8.458v10.15s1.8773e-4 7.0386e-5 5.6173e-4 2.1061e-4c0.095369 0.035757 12.303 4.6126 12.303 4.6126s-1.8773e-4 5.8673e-5 -5.6173e-4 1.7556e-4c-0.095369 0.029806-12.303 3.845-12.303 3.845v4.634e-4 10.149s1.0325e-4 -3.2265e-5 3.0934e-4 -9.6668e-5c0.10531-0.03291 27.065-8.4579 27.065-8.4579v-4.634e-4 -10.149s-1.8773e-4 -7.0386e-5 -5.6173e-4 -2.1061e-4c-0.095369-0.035757-12.303-4.6126-12.303-4.6126s1.8773e-4 -5.8673e-5 5.6173e-4 -1.7556e-4c0.095369-0.029806 12.303-3.845 12.303-3.845v-4.634e-4 -10.149" fill-opacity=".0039216" opacity="1"/>
			<path d="m52.988 20.789s-26.335 8.2298-26.335 8.2298v7.0727e-5 9.8757s1.5401e-4 5.7745e-5 4.6084e-4 1.7278e-4c0.07824 0.029335 11.971 4.4882 11.971 4.4882s-1.5401e-4 4.8135e-5 -4.6084e-4 1.4403e-4c-0.07824 0.024453-11.971 3.7413-11.971 3.7413v3.8017e-4 9.8754s8.4704e-5 -2.647e-5 2.5378e-4 -7.9306e-5c0.086398-0.026999 26.335-8.2298 26.335-8.2298v-3.8017e-4 -9.8754s-1.5401e-4 -5.7745e-5 -4.6084e-4 -1.7278e-4c-0.07824-0.029335-11.971-4.4882-11.971-4.4882s1.5401e-4 -4.8135e-5 4.6084e-4 -1.4403e-4c0.07824-0.024453 11.971-3.7413 11.971-3.7413v-3.8017e-4 -9.8754" fill-opacity=".0088519" opacity="1"/>
			<path d="m52.128 20.417-26.033 8.1353v1.0002e-4 9.7623s1.4005e-4 5.2508e-5 4.1905e-4 1.5711e-4c0.071146 0.026675 11.833 4.4367 11.833 4.4367s-1.4005e-4 4.377e-5 -4.1905e-4 1.3097e-4c-0.071146 0.022235-11.833 3.6983-11.833 3.6983v3.457e-4 9.762s7.7022e-5 -2.407e-5 2.3077e-4 -7.2115e-5c0.078563-0.024551 26.033-8.1352 26.033-8.1352v-3.457e-4 -9.762s-1.4005e-4 -5.2508e-5 -4.1905e-4 -1.5711e-4c-0.071146-0.026675-11.833-4.4367-11.833-4.4367s1.4005e-4 -4.377e-5 4.1905e-4 -1.3097e-4c0.071146-0.022235 11.833-3.6983 11.833-3.6983v-3.457e-4 -9.762" fill-opacity=".010894" opacity="1"/>
			<path d="m51.468 20.132-25.801 8.0628v1.225e-4 9.6752s1.2933e-4 4.849e-5 3.8698e-4 1.4509e-4c0.065701 0.024633 11.728 4.3971 11.728 4.3971s-1.2933e-4 4.042e-5 -3.8698e-4 1.2095e-4c-0.065701 0.020534-11.728 3.6654-11.728 3.6654v3.1925e-4 9.675s7.1129e-5 -2.2228e-5 2.1311e-4 -6.6596e-5c0.072551-0.022672 25.801-8.0627 25.801-8.0627v-3.1925e-4 -9.675s-1.2933e-4 -4.849e-5 -3.8698e-4 -1.4509e-4c-0.065701-0.024633-11.728-4.3971-11.728-4.3971s1.2933e-4 -4.0421e-5 3.8698e-4 -1.2095e-4c0.065701-0.020534 11.728-3.6654 11.728-3.6654v-3.1925e-4 -9.675" fill-opacity=".012461" opacity="1"/>
			<path d="m50.911 19.891s-25.605 8.0016-25.605 8.0016v1.4145e-4 9.6018s1.203e-4 4.5103e-5 3.5995e-4 1.3496e-4c0.061112 0.022913 11.639 4.3638 11.639 4.3638s-1.203e-4 3.7597e-5 -3.5995e-4 1.125e-4c-0.061112 0.0191-11.639 3.6376-11.639 3.6376v2.9694e-4 9.6017s6.616e-5 -2.0675e-5 1.9822e-4 -6.1944e-5c0.067483-0.021089 25.605-8.0016 25.605-8.0016v-2.9694e-4 -9.6017s-1.203e-4 -4.5103e-5 -3.5995e-4 -1.3496e-4c-0.061112-0.022913-11.639-4.3638-11.639-4.3638s1.203e-4 -3.7597e-5 3.5995e-4 -1.125e-4c0.061112-0.0191 11.639-3.6376 11.639-3.6376v-2.9694e-4 -9.6017" fill-opacity=".013782" opacity="1"/>
			<path d="m50.421 19.679s-25.433 7.9478-25.433 7.9478v1.5815e-4 9.5372s1.1234e-4 4.2119e-5 3.3613e-4 1.2603e-4c0.057068 0.021397 11.561 4.3344 11.561 4.3344s-1.1234e-4 3.5109e-5 -3.3613e-4 1.0505e-4c-0.057068 0.017836-11.561 3.6131-11.561 3.6131v2.773e-4 9.537s6.1782e-5 -1.9307e-5 1.8511e-4 -5.7845e-5c0.063018-0.019693 25.433-7.9477 25.433-7.9477v-2.773e-4 -9.537s-1.1234e-4 -4.2118e-5 -3.3613e-4 -1.2603e-4c-0.057068-0.021397-11.561-4.3344-11.561-4.3344s1.1234e-4 -3.5109e-5 3.3613e-4 -1.0505e-4c0.057068-0.017836 11.561-3.6131 11.561-3.6131v-2.773e-4 -9.537" fill-opacity=".014946" opacity="1"/>
			<path d="m49.977 19.488s-25.277 7.8991-25.277 7.8991v1.7325e-4 9.4787s1.0514e-4 3.942e-5 3.146e-4 1.1795e-4c0.053412 0.020026 11.49 4.3079 11.49 4.3079s-1.0514e-4 3.286e-5 -3.146e-4 9.8324e-5c-0.053412 0.016693-11.49 3.591-11.49 3.591v2.5953e-4 9.4786s5.7825e-5 -1.807e-5 1.7325e-4 -5.414e-5c0.058981-0.018432 25.277-7.899 25.277-7.899v-2.5953e-4 -9.4786s-1.0514e-4 -3.942e-5 -3.146e-4 -1.1795e-4c-0.053412-0.020026-11.49-4.3079-11.49-4.3079s1.0514e-4 -3.286e-5 3.146e-4 -9.8324e-5c0.053412-0.016693 11.49-3.591 11.49-3.591v-2.5953e-4 -9.4786" fill-opacity=".015998" opacity="1"/>
			<path d="m49.57 19.312-25.134 7.8543v1.8713e-4 9.425s9.8523e-5 3.6939e-5 2.948e-4 1.1053e-4c0.050051 0.018766 11.425 4.2835 11.425 4.2835s-9.8523e-5 3.0792e-5 -2.948e-4 9.2136e-5c-0.050051 0.015643-11.425 3.5706-11.425 3.5706v2.432e-4 9.4249s5.4185e-5 -1.6933e-5 1.6234e-4 -5.0732e-5c0.055269-0.017272 25.134-7.8542 25.134-7.8542v-2.432e-4 -9.4249s-9.8524e-5 -3.6939e-5 -2.948e-4 -1.1053e-4c-0.050051-0.018766-11.425-4.2835-11.425-4.2835s9.8523e-5 -3.0792e-5 2.948e-4 -9.2136e-5c0.050051-0.015643 11.425-3.5706 11.425-3.5706v-2.432e-4 -9.4249" fill-opacity=".016966" opacity="1"/>
			<path d="m49.19 19.147s-25 7.8126-25 7.8126v2.0005e-4 9.3749s9.2364e-5 3.463e-5 2.7637e-4 1.0362e-4c0.046922 0.017592 11.364 4.2607 11.364 4.2607s-9.2364e-5 2.8867e-5 -2.7637e-4 8.6375e-5c-0.046922 0.014665-11.364 3.5517-11.364 3.5517v2.2799e-4 9.3749s5.0798e-5 -1.5874e-5 1.5219e-4 -4.7561e-5c0.051814-0.016192 25-7.8125 25-7.8125v-2.2799e-4 -9.3749s-9.2364e-5 -3.463e-5 -2.7637e-4 -1.0362e-4c-0.046922-0.017592-11.364-4.2607-11.364-4.2607s9.2364e-5 -2.8867e-5 2.7637e-4 -8.6376e-5c0.046922-0.014665 11.364-3.5517 11.364-3.5517v-2.2799e-4 -9.3749" fill-opacity=".017867" opacity="1"/>
			<path d="m48.834 18.993s-24.875 7.7734-24.875 7.7734v2.1218e-4 9.3279s8.6579e-5 3.2461e-5 2.5906e-4 9.713e-5c0.043983 0.01649 11.307 4.2394 11.307 4.2394s-8.6579e-5 2.7059e-5 -2.5906e-4 8.0966e-5c-0.043983 0.013746-11.307 3.5339-11.307 3.5339v2.1371e-4 9.3279s4.7616e-5 -1.488e-5 1.4266e-4 -4.4582e-5c0.048569-0.015178 24.875-7.7734 24.875-7.7734v-2.1371e-4 -9.3279s-8.6579e-5 -3.2461e-5 -2.5906e-4 -9.713e-5c-0.043983-0.01649-11.307-4.2394-11.307-4.2394s8.6579e-5 -2.7059e-5 2.5906e-4 -8.0966e-5c0.043983-0.013746 11.307-3.5339 11.307-3.5339v-2.1371e-4 -9.3279" fill-opacity=".018713" opacity="1"/>
			<path d="m48.497 18.848s-24.757 7.7364-24.757 7.7364v2.2366e-4 9.2835s8.1107e-5 3.041e-5 2.4269e-4 9.0991e-5c0.041203 0.015448 11.253 4.2192 11.253 4.2192s-8.1107e-5 2.5349e-5 -2.4269e-4 7.5849e-5c-0.041203 0.012877-11.253 3.517-11.253 3.517v2.0021e-4 9.2835s4.4607e-5 -1.394e-5 1.3365e-4 -4.1764e-5c0.045499-0.014218 24.756-7.7364 24.756-7.7364v-2.0021e-4 -9.2835s-8.1107e-5 -3.041e-5 -2.4269e-4 -9.0991e-5c-0.041203-0.015448-11.253-4.2192-11.253-4.2192s8.1107e-5 -2.5349e-5 2.4269e-4 -7.5849e-5c0.041203-0.012877 11.253-3.517 11.253-3.517v-2.0021e-4 -9.2835" fill-opacity=".019513" opacity="1"/>
			<path d="m48.176 18.709s-24.644 7.7012-24.644 7.7012v2.3458e-4 9.2412s7.5903e-5 2.8458e-5 2.2712e-4 8.5153e-5c0.038559 0.014457 11.202 4.2 11.202 4.2s-7.5903e-5 2.3722e-5 -2.2712e-4 7.0982e-5c-0.038559 0.012051-11.202 3.501-11.202 3.501v1.8736e-4 9.2412s4.1745e-5 -1.3045e-5 1.2507e-4 -3.9085e-5c0.04258-0.013306 24.644-7.7012 24.644-7.7012v-1.8736e-4 -9.2412s-7.5903e-5 -2.8458e-5 -2.2712e-4 -8.5153e-5c-0.038559-0.014457-11.202-4.2-11.202-4.2s7.5903e-5 -2.3722e-5 2.2712e-4 -7.0982e-5c0.038559-0.012051 11.202-3.501 11.202-3.501v-1.8736e-4 -9.2412" fill-opacity=".020274" opacity="1"/>
			<path d="m47.87 18.577-24.536 7.6675v2.4501e-4 9.2008s7.0931e-5 2.6594e-5 2.1224e-4 7.9574e-5c0.036033 0.01351 11.153 4.1816 11.153 4.1816s-7.0931e-5 2.2168e-5 -2.1224e-4 6.6332e-5c-0.036033 0.011262-11.153 3.4857-11.153 3.4857v1.7509e-4 9.2009s3.901e-5 -1.2191e-5 1.1688e-4 -3.6524e-5c0.03979-0.012434 24.536-7.6675 24.536-7.6675v-1.7509e-4 -9.2009s-7.0931e-5 -2.6594e-5 -2.1224e-4 -7.9574e-5c-0.036033-0.01351-11.153-4.1816-11.153-4.1816s7.0931e-5 -2.2168e-5 2.1224e-4 -6.6332e-5c0.036033-0.011262 11.153-3.4857 11.153-3.4857v-1.7509e-4 -9.2009" fill-opacity=".021001" opacity="1"/>
			<path d="m47.576 18.45-24.433 7.6353v2.5501e-4 9.1621s6.6161e-5 2.4806e-5 1.9797e-4 7.4224e-5c0.03361 0.012602 11.106 4.164 11.106 4.164s-6.6161e-5 2.0678e-5 -1.9797e-4 6.1872e-5c-0.03361 0.010504-11.106 3.4711-11.106 3.4711v1.6331e-4 9.1622s3.6387e-5 -1.1371e-5 1.0902e-4 -3.4068e-5c0.037115-0.011598 24.433-7.6352 24.433-7.6352v-1.6331e-4 -9.1622s-6.6161e-5 -2.4806e-5 -1.9797e-4 -7.4224e-5c-0.03361-0.012602-11.106-4.164-11.106-4.164s6.6161e-5 -2.0678e-5 1.9797e-4 -6.1872e-5c0.03361-0.010504 11.106-3.4711 11.106-3.4711v-1.6331e-4 -9.1622" fill-opacity=".021698" opacity="1"/>
			<path d="m47.293 18.327s-24.333 7.6042-24.333 7.6042v2.6464e-4 9.1248s6.1572e-5 2.3085e-5 1.8424e-4 6.9075e-5c0.031279 0.011727 11.061 4.1471 11.061 4.1471s-6.1572e-5 1.9243e-5 -1.8424e-4 5.758e-5c-0.031279 0.0097758-11.061 3.457-11.061 3.457v1.5199e-4 9.1249s3.3863e-5 -1.0582e-5 1.0146e-4 -3.1705e-5c0.03454-0.010794 24.333-7.6042 24.333-7.6042v-1.5199e-4 -9.1249s-6.1572e-5 -2.3085e-5 -1.8424e-4 -6.9075e-5c-0.031279-0.011727-11.061-4.1471-11.061-4.1471s6.1572e-5 -1.9243e-5 1.8424e-4 -5.758e-5c0.031279-0.0097758 11.061-3.457 11.061-3.457v-1.5199e-4 -9.1249" fill-opacity=".022369" opacity="1"/>
			<path d="m47.02 18.209s-24.238 7.5742-24.238 7.5742v2.7393e-4 9.0888s5.7144e-5 2.1425e-5 1.7099e-4 6.4108e-5c0.02903 0.010884 11.017 4.1308 11.017 4.1308s-5.7144e-5 1.786e-5 -1.7099e-4 5.3439e-5c-0.02903 0.0090728-11.017 3.4433-11.017 3.4433v1.4106e-4 9.0889s3.1428e-5 -9.8211e-6 9.416e-5 -2.9425e-5c0.032056-0.010018 24.237-7.5742 24.237-7.5742v-1.4106e-4 -9.0889s-5.7144e-5 -2.1425e-5 -1.7099e-4 -6.4108e-5c-0.02903-0.010884-11.017-4.1308-11.017-4.1308s5.7144e-5 -1.786e-5 1.7099e-4 -5.3439e-5c0.02903-0.0090728 11.017-3.4433 11.017-3.4433v-1.4106e-4 -9.0889" fill-opacity=".023017" opacity="1"/>
			<path d="m46.757 18.095s-24.145 7.5453-24.145 7.5453v2.8291e-4 9.054s5.2861e-5 1.9819e-5 1.5817e-4 5.9303e-5c0.026854 0.010068 10.975 4.115 10.975 4.115s-5.2861e-5 1.6521e-5 -1.5817e-4 4.9434e-5c-0.026854 0.0083928-10.975 3.4302-10.975 3.4302v1.3048e-4 9.0542s2.9072e-5 -9.0851e-6 8.7103e-5 -2.722e-5c0.029654-0.0092668 24.145-7.5452 24.145-7.5452v-1.3048e-4 -9.0542s-5.2861e-5 -1.9819e-5 -1.5817e-4 -5.9303e-5c-0.026854-0.010068-10.975-4.115-10.975-4.115s5.2861e-5 -1.6521e-5 1.5817e-4 -4.9434e-5c0.026854-0.0083928 10.975-3.4302 10.975-3.4302v-1.3048e-4 -9.0542" fill-opacity=".023643" opacity="1"/>
			<path d="m46.501 17.985-24.055 7.5172v2.9162e-4 9.0203s4.8711e-5 1.8263e-5 1.4575e-4 5.4646e-5c0.024745 0.0092778 10.934 4.0997 10.934 4.0997s-4.871e-5 1.5224e-5 -1.4575e-4 4.5552e-5c-0.024745 0.0077338-10.934 3.4174-10.934 3.4174v1.2024e-4 9.0205s2.679e-5 -8.3717e-6 8.0264e-5 -2.5082e-5c0.027325-0.0085392 24.055-7.5171 24.055-7.5171v-1.2024e-4 -9.0205s-4.8711e-5 -1.8263e-5 -1.4575e-4 -5.4646e-5c-0.024745-0.0092778-10.934-4.0997-10.934-4.0997s4.871e-5 -1.5224e-5 1.4575e-4 -4.5552e-5c0.024745-0.0077338 10.934-3.4174 10.934-3.4174v-1.2024e-4 -9.0205" fill-opacity=".02425" opacity="1"/>
			<path d="m46.253 17.877-23.968 7.4899v3.0007e-4 8.9876s4.468e-5 1.6752e-5 1.3369e-4 5.0125e-5c0.022698 0.0085101 10.895 4.0848 10.895 4.0848s-4.468e-5 1.3964e-5 -1.3369e-4 4.1783e-5c-0.022698 0.0070939-10.895 3.405-10.895 3.405v1.1029e-4 8.9878l7.3622e-5 -2.3007e-5c0.025064-0.0078326 23.968-7.4899 23.968-7.4899v-1.1029e-4 -8.9878s-4.468e-5 -1.6752e-5 -1.3369e-4 -5.0125e-5c-0.022698-0.0085101-10.895-4.0848-10.895-4.0848s4.468e-5 -1.3964e-5 1.3369e-4 -4.1783e-5c0.022698-0.0070939 10.895-3.405 10.895-3.405v-1.1029e-4 -8.9878" fill-opacity=".024839" opacity="1"/>
			<path d="m46.011 17.773s-23.883 7.4634-23.883 7.4634v3.0829e-4 8.9557s4.076e-5 1.5282e-5 1.2196e-4 4.5727e-5c0.020706 0.0077635 10.856 4.0703 10.856 4.0703s-4.076e-5 1.2739e-5 -1.2196e-4 3.8117e-5c-0.020706 0.0064715-10.856 3.3929-10.856 3.3929v1.0061e-4 8.9559s2.2417e-5 -7.0053e-6 6.7163e-5 -2.0988e-5c0.022865-0.0071454 23.883-7.4633 23.883-7.4633v-1.0061e-4 -8.9559s-4.076e-5 -1.5282e-5 -1.2196e-4 -4.5727e-5c-0.020706-0.0077635-10.856-4.0703-10.856-4.0703s4.076e-5 -1.2739e-5 1.2196e-4 -3.8117e-5c0.020706-0.0064715 10.856-3.3929 10.856-3.3929v-1.0061e-4 -8.9559" fill-opacity=".025412" opacity="1"/>
			<path d="m45.776 17.671-23.8 7.4375v3.163e-4 8.9247s3.6942e-5 1.3851e-5 1.1054e-4 4.1444e-5c0.018767 0.0070363 10.819 4.0562 10.819 4.0562s-3.6942e-5 1.1546e-5 -1.1054e-4 3.4547e-5c-0.018767 0.0058653-10.819 3.3812-10.819 3.3812v9.1189e-5 8.9249s2.0317e-5 -6.349e-6 6.0872e-5 -1.9022e-5c0.020724-0.0064761 23.8-7.4375 23.8-7.4375v-9.1189e-5 -8.9249s-3.6942e-5 -1.3851e-5 -1.1054e-4 -4.1444e-5c-0.018767-0.0070363-10.819-4.0562-10.819-4.0562s3.6942e-5 -1.1546e-5 1.1054e-4 -3.4547e-5c0.018767-0.0058653 10.819-3.3812 10.819-3.3812v-9.1189e-5 -8.9249" fill-opacity=".025971" opacity="1"/>
			<path d="m45.546 17.572s-23.719 7.4123-23.719 7.4123v3.2411e-4 8.8945s3.3218e-5 1.2455e-5 9.9395e-5 3.7266e-5c0.016875 0.006327 10.782 4.0425 10.782 4.0425s-3.3218e-5 1.0382e-5 -9.9395e-5 3.1064e-5c-0.016875 0.0052741-10.782 3.3698-10.782 3.3698v8.1997e-5 8.8947s1.8269e-5 -5.7091e-6 5.4736e-5 -1.7105e-5c0.018635-0.0058233 23.719-7.4123 23.719-7.4123v-8.1997e-5 -8.8947s-3.3218e-5 -1.2454e-5 -9.9395e-5 -3.7266e-5c-0.016875-0.006327-10.782-4.0425-10.782-4.0425s3.3218e-5 -1.0382e-5 9.9395e-5 -3.1064e-5c0.016875-0.0052741 10.782-3.3698 10.782-3.3698v-8.1997e-5 -8.8947" fill-opacity=".026515" opacity="1"/>
			<path d="m45.322 17.475s-23.641 7.3877-23.641 7.3877v3.3174e-4 8.8649s2.9582e-5 1.1091e-5 8.8515e-5 3.3187e-5c0.015028 0.0056344 10.746 4.0291 10.746 4.0291s-2.9582e-5 9.2455e-6 -8.8515e-5 2.7664e-5c-0.015028 0.0046968-10.746 3.3586-10.746 3.3586v7.3021e-5 8.8652s1.6269e-5 -5.0842e-6 4.8744e-5 -1.5233e-5c0.016595-0.0051859 23.641-7.3877 23.641-7.3877v-7.3022e-5 -8.8652s-2.9582e-5 -1.1091e-5 -8.8515e-5 -3.3187e-5c-0.015028-0.0056344-10.746-4.0291-10.746-4.0291s2.9582e-5 -9.2455e-6 8.8515e-5 -2.7664e-5c0.015028-0.0046968 10.746-3.3586 10.746-3.3586v-7.3021e-5 -8.8652" fill-opacity=".027047" opacity="1"/>
			<path d="m45.104 17.381s-23.564 7.3636-23.564 7.3636v3.392e-4 8.836s2.6028e-5 9.7586e-6 7.788e-5 2.92e-5c0.013222 0.0049574 10.711 4.016 10.711 4.016s-2.6028e-5 8.1346e-6 -7.788e-5 2.434e-5c-0.013222 0.0041324-10.711 3.3476-10.711 3.3476v6.4248e-5 8.8363s1.4315e-5 -4.4733e-6 4.2888e-5 -1.3402e-5c0.014601-0.0045628 23.564-7.3636 23.564-7.3636v-6.4248e-5 -8.8363s-2.6028e-5 -9.7585e-6 -7.788e-5 -2.92e-5c-0.013222-0.0049574-10.711-4.016-10.711-4.016s2.6028e-5 -8.1346e-6 7.788e-5 -2.434e-5c0.013222-0.0041324 10.711-3.3476 10.711-3.3476v-6.4248e-5 -8.8363" fill-opacity=".027567" opacity="1"/>
			<path d="m44.889 17.288s-23.488 7.3401-23.488 7.3401v3.4649e-4 8.8078s2.255e-5 8.4546e-6 6.7473e-5 2.5298e-5c0.011456 0.004295 10.677 4.0031 10.677 4.0031s-2.255e-5 7.0476e-6 -6.7473e-5 2.1088e-5c-0.011456 0.0035802-10.677 3.3369-10.677 3.3369v5.5663e-5 8.8081s1.2402e-5 -3.8756e-6 3.7157e-5 -1.1612e-5c0.01265-0.0039531 23.488-7.3401 23.488-7.3401v-5.5663e-5 -8.8081s-2.255e-5 -8.4546e-6 -6.7474e-5 -2.5298e-5c-0.011456-0.004295-10.677-4.0031-10.677-4.0031s2.255e-5 -7.0477e-6 6.7473e-5 -2.1088e-5c0.011456-0.0035802 10.677-3.3369 10.677-3.3369v-5.5663e-5 -8.8081" fill-opacity=".028075" opacity="1"/>
			<path d="m44.679 17.197s-23.415 7.3171-23.415 7.3171v3.5364e-4 8.7801s1.9144e-5 7.1775e-6 5.7282e-5 2.1476e-5c0.0097251 0.0036462 10.643 3.9906 10.643 3.9906s-1.9144e-5 5.9831e-6 -5.7282e-5 1.7902e-5c-0.0097251 0.0030394-10.643 3.3265-10.643 3.3265v4.7255e-5 8.7804s1.0528e-5 -3.2901e-6 3.1544e-5 -9.8576e-6c0.010739-0.003356 23.415-7.317 23.415-7.317v-4.7255e-5 -8.7804s-1.9144e-5 -7.1776e-6 -5.7282e-5 -2.1477e-5c-0.0097251-0.0036462-10.643-3.9906-10.643-3.9906s1.9144e-5 -5.983e-6 5.7282e-5 -1.7902e-5c0.0097251-0.0030394 10.643-3.3265 10.643-3.3265v-4.7255e-5 -8.7804" fill-opacity=".028573" opacity="1"/>
			<path d="m44.474 17.108s-23.342 7.2945-23.342 7.2945v3.6064e-4 8.753s1.5805e-5 5.9257e-6 4.7292e-5 1.7731e-5c0.0080291 0.0030103 10.611 3.9782 10.611 3.9782s-1.5805e-5 4.9396e-6 -4.7291e-5 1.478e-5c-0.0080291 0.0025094-10.611 3.3162-10.611 3.3162v3.9014e-5 8.7533s8.6923e-6 -2.7163e-6 2.6043e-5 -8.1384e-6c0.0088662-0.0027707 23.342-7.2945 23.342-7.2945v-3.9014e-5 -8.7533s-1.5805e-5 -5.9258e-6 -4.7292e-5 -1.7731e-5c-0.0080291-0.0030103-10.611-3.9782-10.611-3.9782s1.5805e-5 -4.9396e-6 4.7291e-5 -1.478e-5c0.0080291-0.0025094 10.611-3.3162 10.611-3.3162v-3.9014e-5 -8.7533" fill-opacity=".029061" opacity="1"/>
			<path d="m44.272 17.021s-23.271 7.2723-23.271 7.2723v3.6751e-4 8.7264s1.253e-5 4.6979e-6 3.7492e-5 1.4057e-5c0.0063653 0.0023865 10.578 3.9662 10.578 3.9662s-1.253e-5 3.916e-6 -3.7492e-5 1.1718e-5c-0.0063653 0.0019894-10.578 3.3061-10.578 3.3061v3.0929e-5 8.7267s6.8911e-6 -2.1534e-6 2.0646e-5 -6.4519e-6c0.0070289-0.0021965 23.271-7.2723 23.271-7.2723v-3.0929e-5 -8.7267s-1.253e-5 -4.6978e-6 -3.7492e-5 -1.4057e-5c-0.0063653-0.0023865-10.578-3.9662-10.578-3.9662s1.253e-5 -3.916e-6 3.7492e-5 -1.1718e-5c0.0063653-0.0019894 10.578-3.3061 10.578-3.3061v-3.0929e-5 -8.7267" fill-opacity=".02954" opacity="1"/>
			<path d="m44.074 16.936s-23.202 7.2505-23.202 7.2505v3.7425e-4 8.7003s9.3149e-6 3.4925e-6 2.7872e-5 1.045e-5c0.004732 0.0017742 10.547 3.9543 10.547 3.9543s-9.3149e-6 2.9112e-6 -2.7872e-5 8.711e-6c-0.004732 0.0014789-10.547 3.2962-10.547 3.2962v2.2993e-5 8.7006s5.123e-6 -1.601e-6 1.5349e-5 -4.7965e-6c0.0052254-0.0016329 23.202-7.2505 23.202-7.2505v-2.2993e-5 -8.7006s-9.3149e-6 -3.4924e-6 -2.7872e-5 -1.045e-5c-0.004732-0.0017742-10.547-3.9543-10.547-3.9543s9.3149e-6 -2.9113e-6 2.7872e-5 -8.711e-6c0.004732-0.0014789 10.547-3.2962 10.547-3.2962v-2.2993e-5 -8.7006" fill-opacity=".03001" opacity="1"/>
			<path d="m43.879 16.851-23.133 7.2292v3.8088e-4 8.6746s6.1569e-6 2.3083e-6 1.8422e-5 6.9071e-6c0.0031277 0.0011727 10.516 3.9426 10.516 3.9426s-6.1568e-6 1.9242e-6 -1.8422e-5 5.7576e-6c-0.0031277 9.7752e-4 -10.516 3.2865-10.516 3.2865v1.5198e-5 8.675s3.3861e-6 -1.0582e-6 1.0145e-5 -3.1703e-6c0.0034538-0.0010793 23.133-7.2292 23.133-7.2292v-1.5198e-5 -8.675s-6.1569e-6 -2.3084e-6 -1.8422e-5 -6.9071e-6c-0.0031277-0.0011727-10.516-3.9426-10.516-3.9426s6.1569e-6 -1.9242e-6 1.8422e-5 -5.7576e-6c0.0031277-9.7752e-4 10.516-3.2865 10.516-3.2865v-1.5198e-5 -8.675" fill-opacity=".030472" opacity="1"/>
			<path d="m43.688 16.769s-23.066 7.2082-23.066 7.2082v3.8739e-4 8.6494s3.0527e-6 1.1446e-6 9.1344e-6 3.4248e-6c0.0015508 5.8145e-4 10.485 3.9312 10.485 3.9312s-3.0527e-6 9.541e-7 -9.1344e-6 2.8549e-6c-0.0015508 4.8469e-4 -10.485 3.277-10.485 3.277v7.5355e-6 8.6498s1.6789e-6 -5.247e-7 5.0302e-6 -1.572e-6c0.0017125-5.3516e-4 23.066-7.2082 23.066-7.2082v-7.5355e-6 -8.6498s-3.0527e-6 -1.1446e-6 -9.1344e-6 -3.4248e-6c-0.0015508-5.8145e-4 -10.485-3.9312-10.485-3.9312s3.0528e-6 -9.541e-7 9.1344e-6 -2.8548e-6c0.0015508-4.8469e-4 10.485-3.277 10.485-3.277v-7.5355e-6 -8.6498" fill-opacity=".030926" opacity="1"/>
			<path d="m43.5 16.688-23 7.1875v3.9379e-4 8.6246l10.455 3.9199-10.455 3.2676v8.625l23-7.1875v-8.625l-10.455-3.9199 10.455-3.2676v-8.625" fill-opacity=".031373" opacity="1"/>
		</g>
	</g>
	<path d="m43.5 16.688-23 7.1875v8.625l23-7.1875z" fill="#fd971f"/>
	<path d="m43.5 32.5-23 7.1875v8.625l23-7.1875z" fill="url(#b)"/>
	<path d="m20.5 23.875 23 8.625v8.625l-23-8.625z" fill="#fd971f"/>
</svg>
