<?xml version="1.0" encoding="UTF-8"?>
<!--Created with Inkscape (http://www.inkscape.org/)-->
<svg width="64" height="64" version="1.1" xmlns="http://www.w3.org/2000/svg" xmlns:cc="http://creativecommons.org/ns#" xmlns:dc="http://purl.org/dc/elements/1.1/" xmlns:rdf="http://www.w3.org/1999/02/22-rdf-syntax-ns#" xmlns:xlink="http://www.w3.org/1999/xlink">
	<defs>
		<radialGradient id="radialGradient2432" cx="15" cy="32.556" r="15" gradientTransform="matrix(2.2667 0 0 .066303 -19 32.836)" gradientUnits="userSpaceOnUse">
			<stop stop-color="#ffb5ed" offset="0"/>
			<stop stop-color="#ff67e6" stop-opacity="0" offset="1"/>
		</radialGradient>
		<radialGradient id="radialGradient58863" cx="15" cy="32.556" r="15" gradientTransform="matrix(2.2667 0 0 .066303 15 -.164)" gradientUnits="userSpaceOnUse">
			<stop stop-color="#9cddff" offset="0"/>
			<stop stop-color="#9ca3ff" stop-opacity="0" offset="1"/>
		</radialGradient>
		<radialGradient id="radialGradient97030" cx="15" cy="32.556" r="15" gradientTransform="matrix(2.2667 0 0 .066303 -19 -.164)" gradientUnits="userSpaceOnUse">
			<stop stop-color="#6cf6ff" offset="0"/>
			<stop stop-color="#46d0ff" stop-opacity="0" offset="1"/>
		</radialGradient>
		<linearGradient id="linearGradient2239" x1="15" x2="15" y2="3" gradientTransform="translate(0,33)" gradientUnits="userSpaceOnUse">
			<stop stop-color="#ff93ed" offset="0"/>
			<stop stop-color="#d02654" offset="1"/>
		</linearGradient>
		<linearGradient id="linearGradient58859" x1="15" x2="15" y2="3" gradientTransform="translate(34)" gradientUnits="userSpaceOnUse">
			<stop stop-color="#80c8ff" offset="0"/>
			<stop stop-color="#5f4ae9" offset="1"/>
		</linearGradient>
		<linearGradient id="linearGradient97026" x1="15" x2="15" y2="3" gradientUnits="userSpaceOnUse">
			<stop stop-color="#50deff" offset="0"/>
			<stop stop-color="#3786dd" offset="1"/>
		</linearGradient>
		<radialGradient id="radialGradient3091" cx="15" cy="32.556" r="15" gradientTransform="matrix(2.2667 0 0 .066303 15 32.836)" gradientUnits="userSpaceOnUse">
			<stop stop-color="#91ff6c" offset="0"/>
			<stop stop-color="#64f3a6" stop-opacity="0" offset="1"/>
		</radialGradient>
		<linearGradient id="linearGradient3087" x1="15" x2="15" y2="3" gradientTransform="translate(34,33)" gradientUnits="userSpaceOnUse">
			<stop stop-color="#64f3a6" offset="0"/>
			<stop stop-color="#208d67" offset="1"/>
		</linearGradient>
		<radialGradient id="radialGradient2160630" cx="31.744" cy="35.593" r="32" gradientTransform="matrix(-1.3401,0,0,2.7279,74.798,-61.501)" gradientUnits="userSpaceOnUse">
			<stop stop-color="#744655" offset="0"/>
			<stop stop-color="#7b665e" offset="1"/>
		</radialGradient>
		<radialGradient id="radialGradient2160632-3-9" cx="35.574" cy="1.019" r="32" gradientTransform="matrix(0,1.1252,-5.1753,0,37.271,-39.029)" gradientUnits="userSpaceOnUse" xlink:href="#a-6-5"/>
		<linearGradient id="a-6-5">
			<stop stop-color="#ebbbd6" stop-opacity=".1098" offset="0"/>
			<stop stop-color="#ff9797" stop-opacity=".039216" offset="1"/>
		</linearGradient>
		<radialGradient id="radialGradient2160634-3-9" cx="35.574" cy="1.036" r="32" gradientTransform="matrix(0,1.1252,-5.1753,0,37.363,-39.029)" gradientUnits="userSpaceOnUse" xlink:href="#a-6-5"/>
		<radialGradient id="radialGradient2160636-5-4" cx="35.574" cy="1.055" r="32" gradientTransform="matrix(0,1.1252,-5.1753,0,37.458,-39.029)" gradientUnits="userSpaceOnUse" xlink:href="#a-6-5"/>
		<radialGradient id="radialGradient2160638-6-7" cx="35.574" cy="1.071" r="32" gradientTransform="matrix(0,1.1252,-5.1753,0,37.544,-39.029)" gradientUnits="userSpaceOnUse" xlink:href="#a-6-5"/>
		<radialGradient id="radialGradient2160640-2-8" cx="35.574" cy="1.091" r="32" gradientTransform="matrix(0,1.1252,-5.1753,0,37.648,-39.029)" gradientUnits="userSpaceOnUse" xlink:href="#a-6-5"/>
		<radialGradient id="radialGradient2160642-9-4" cx="35.574" cy="1.113" r="32" gradientTransform="matrix(0,1.1252,-5.1753,0,37.758,-39.029)" gradientUnits="userSpaceOnUse" xlink:href="#a-6-5"/>
		<radialGradient id="radialGradient2160644-1-5" cx="35.574" cy="1.135" r="32" gradientTransform="matrix(0,1.1252,-5.1753,0,37.875,-39.029)" gradientUnits="userSpaceOnUse" xlink:href="#a-6-5"/>
		<radialGradient id="radialGradient2160646-2-0" cx="35.574" cy="1.159" r="32" gradientTransform="matrix(0,1.1252,-5.1753,0,38,-39.029)" gradientUnits="userSpaceOnUse" xlink:href="#a-6-5"/>
		<radialGradient id="radialGradient2160648-7-3" cx="35.574" cy="1.18" r="32" gradientTransform="matrix(0,1.1252,-5.1753,0,38.107,-39.029)" gradientUnits="userSpaceOnUse" xlink:href="#a-6-5"/>
		<radialGradient id="radialGradient2160650-0-6" cx="35.574" cy="1.208" r="32" gradientTransform="matrix(0,1.1252,-5.1753,0,38.252,-39.029)" gradientUnits="userSpaceOnUse" xlink:href="#a-6-5"/>
		<radialGradient id="radialGradient2160652-9-1" cx="35.574" cy="1.239" r="32" gradientTransform="matrix(0,1.1252,-5.1753,0,38.411,-39.029)" gradientUnits="userSpaceOnUse" xlink:href="#a-6-5"/>
		<radialGradient id="radialGradient2160654-3-0" cx="35.574" cy="1.273" r="32" gradientTransform="matrix(0,1.1252,-5.1753,0,38.587,-39.029)" gradientUnits="userSpaceOnUse" xlink:href="#a-6-5"/>
		<radialGradient id="radialGradient2160656-6-6" cx="35.574" cy="1.304" r="32" gradientTransform="matrix(0,1.1252,-5.1753,0,38.75,-39.029)" gradientUnits="userSpaceOnUse" xlink:href="#a-6-5"/>
		<radialGradient id="radialGradient2160658-0-3" cx="35.574" cy="1.346" r="32" gradientTransform="matrix(0,1.1252,-5.1753,0,38.966,-39.029)" gradientUnits="userSpaceOnUse" xlink:href="#a-6-5"/>
		<radialGradient id="radialGradient2160660-6-2" cx="35.574" cy="1.393" r="32" gradientTransform="matrix(0,1.1252,-5.1753,0,39.208,-39.029)" gradientUnits="userSpaceOnUse" xlink:href="#a-6-5"/>
		<radialGradient id="radialGradient2160662-2-0" cx="35.574" cy="1.439" r="32" gradientTransform="matrix(0,1.1252,-5.1753,0,39.446,-39.029)" gradientUnits="userSpaceOnUse" xlink:href="#a-6-5"/>
		<radialGradient id="radialGradient2160664-6-6" cx="15.111" cy="1.3971" r="32" gradientTransform="matrix(0 .012817 -2.532 0 35.666 1.4205)" gradientUnits="userSpaceOnUse" xlink:href="#a-6-5">
			<stop stop-color="#ffc68a" stop-opacity=".75574" offset="0"/>
			<stop stop-color="#ff92bc" stop-opacity="0" offset="1"/>
		</radialGradient>
	</defs>
	<metadata>
		<rdf:RDF>
			<cc:Work rdf:about="">
				<dc:format>image/svg+xml</dc:format>
				<dc:type rdf:resource="http://purl.org/dc/dcmitype/StillImage"/>
			</cc:Work>
		</rdf:RDF>
	</metadata>
	<g transform="translate(3.2081e-5)">
		<path d="m1 0c-0.554 0-1 0.446-1 1v62c0 0.554 0.446 1 1 1h62c0.554 0 1-0.446 1-1v-62c0-0.554-0.446-1-1-1z" fill="url(#radialGradient2160630)"/>
		<g transform="translate(0 .001503)">
			<path d="m1 0c-0.554 0-1 0.446-1 1v62-0.224 0.224-62h1.752c19.15 2e-3 39.445 0 60.213 0h2.035v62-0.334 0.334-62c0.0011-0.55274-0.44726-1.0011-1-1z" fill="url(#radialGradient2160632-3-9)"/>
			<path d="m1 0c-0.5551-0.0011303-1.0045 0.45091-1 1.006v61.98-0.197c0-0.277 4e-3 -0.184 0.01 0.246 0.012 0.016 0.03-0.297 0.052-0.897v-61c0.072-9e-3 0.133-0.013 0.185-0.013 0.29-0.016 0.357-0.032 0.774-0.044 0.246-0.011 0.496-0.019 0.747-0.019 19.183 2e-3 39.392 0 60.2 0 0.346 0 0.689 0.012 1.023 0.03 0.268 0.01 0.389 0.02 0.52 0.033 0.106 0 0.22 0.01 0.427 0.028v60.744c0.027 0.754 0.05 1.148 0.059 1.123l3e-3 -0.334v0.286-61.762c0-0.143 0-0.22-2e-3 -0.224-0.005475-0.55246-0.45958-0.9949-1.012-0.986h-61.986" fill="url(#radialGradient2160634-3-9)"/>
			<path d="m1 0c-0.5551-0.0011303-1.0045 0.45091-1 1.006v61.966-0.169c0-0.245 8e-3 -0.145 0.021 0.266 0.022 0.034 0.06-0.247 0.104-0.807v-60.988c0.056484-0.015102 0.11455-0.023493 0.173-0.025 0.27-0.031 0.341-0.064 0.743-0.088 0.242-0.022 0.492-0.037 0.742-0.037 19.217 2e-3 39.34 0 60.187 0 0.347 0 0.69 0.024 1.013 0.06 0.256 0.02 0.372 0.042 0.494 0.065 0.1 0 0.206 0.02 0.398 0.057v60.731c0.055 0.703 0.102 1.052 0.119 1.003 4e-3 -0.154 6e-3 -0.265 6e-3 -0.333v0.237-61.748c0-0.139 0-0.215-3e-3 -0.224-0.011441-0.46771-0.34748-0.86412-0.807-0.952-0.071417-0.014359-0.14416-0.021063-0.217-0.02h-61.973" fill="url(#radialGradient2160636-5-4)"/>
			<path d="m1 0c-0.55471-0.0011253-1.0039 0.45031-1 1.005v61.953-0.14c0-0.213 0.012-0.107 0.031 0.287 0.034 0.05 0.091-0.198 0.156-0.718v-60.974c0.050612-0.022043 0.10485-0.034585 0.16-0.037 0.252-0.048 0.327-0.097 0.715-0.132 0.238-0.034 0.487-0.056 0.737-0.056 19.25 2e-3 39.286 0 60.173 0 0.348 0 0.688 0.036 1.001 0.09 0.244 0.029 0.356 0.062 0.47 0.098 0.091 0 0.19 0.03 0.37 0.085v60.718c0.082 0.653 0.151 0.957 0.176 0.884 7e-3 -0.152 0.01-0.262 0.01-0.333v0.188-61.734c0-0.135 0-0.21-4e-3 -0.224-0.017399-0.46717-0.35861-0.85879-0.819-0.94-0.071505-0.013569-0.14424-0.019602-0.217-0.018h-61.96" fill="url(#radialGradient2160638-6-7)"/>
			<path d="m1 0c-0.55471-0.0011253-1.0039 0.45031-1 1.005v61.939-0.113c0-0.18 0.015-0.068 0.042 0.308 0.045 0.067 0.121-0.149 0.208-0.629v-60.96c0.044295-0.028947 0.095225-0.046153 0.148-0.05 0.232-0.063 0.311-0.128 0.684-0.176 0.234-0.044 0.483-0.074 0.732-0.074 19.284 2e-3 39.234 0 60.16 0 0.35 0 0.689 0.048 0.991 0.12 0.232 0.039 0.34 0.083 0.444 0.13 0.085 0 0.176 0.04 0.341 0.114v60.704c0.11 0.603 0.203 0.862 0.236 0.764 0.01-0.148 0.014-0.259 0.014-0.333v0.14-61.721c0-0.13-2e-3 -0.206-6e-3 -0.224-0.024028-0.46583-0.36965-0.85184-0.83-0.927-0.072548-0.013262-0.14628-0.018959-0.22-0.017h-61.944" fill="url(#radialGradient2160640-2-8)"/>
			<path d="m1 0c-0.55431-0.0011209-1.0033 0.4497-1 1.004v61.926-0.084c0-0.148 0.02-0.029 0.052 0.328 0.056 0.084 0.152-0.099 0.26-0.539v-60.949c0.053-0.04 0.097-0.061 0.136-0.061 0.212-0.08 0.297-0.16 0.655-0.22 0.23-0.056 0.477-0.093 0.727-0.093 19.317 2e-3 39.18 0 60.147 0 0.35 0 0.688 0.06 0.98 0.151 0.22 0.047 0.322 0.102 0.418 0.162 0.078 0 0.162 0.049 0.313 0.142v60.69c0.137 0.553 0.253 0.767 0.295 0.645 0.0096-0.11043 0.01523-0.22117 0.017-0.332v0.09-61.705c0-0.126-2e-3 -0.202-7e-3 -0.224-0.03077-0.46514-0.38186-0.8458-0.843-0.914-0.071921-0.0129-0.14495-0.018594-0.218-0.017h-61.932" fill="url(#radialGradient2160642-9-4)"/>
			<path d="m1 0c-0.55431-0.0011209-1.0033 0.4497-1 1.004v61.912-0.056c0-0.117 0.023 0.01 0.063 0.349 0.067 0.1 0.182-0.05 0.312-0.45v-60.935c0.048-0.049 0.088-0.074 0.123-0.074 0.193-0.095 0.282-0.192 0.626-0.264 0.225-0.067 0.472-0.11 0.721-0.11h60.133c0.352 0 0.688 0.071 0.97 0.18 0.1444 0.03294 0.27903 0.099398 0.393 0.194 0.07 0 0.147 0.059 0.284 0.17v60.68c0.164 0.502 0.304 0.671 0.354 0.524 0.014-0.14 0.02-0.25 0.02-0.331v0.042-61.695c0-0.121-2e-3 -0.197-9e-3 -0.224-0.037172-0.46407-0.39266-0.83953-0.854-0.902-0.072052-0.011622-0.14505-0.01631-0.218-0.014h-61.918" fill="url(#radialGradient2160644-1-5)"/>
			<path d="m1 0c-0.55431-0.0011209-1.0033 0.4497-1 1.004v61.898-0.029c0-0.084 0.027 0.049 0.073 0.37 0.079 0.117 0.212 0 0.365-0.36v-60.923c0.043-0.057 0.079-0.086 0.11-0.086 0.174-0.112 0.267-0.225 0.596-0.309 0.23012-0.082729 0.47247-0.12633 0.717-0.129 19.385 2e-3 39.075 0 60.12 0 0.353 0 0.687 0.084 0.958 0.211 0.196 0.066 0.29 0.144 0.368 0.227 0.063 0 0.132 0.068 0.256 0.199v60.665c0.192 0.452 0.354 0.576 0.413 0.404 0.01385-0.1095 0.02186-0.21965 0.024-0.33v-61.687c0-0.117-4e-3 -0.193-0.01-0.224-0.043775-0.464-0.40524-0.83463-0.868-0.89-0.071851-0.010232-0.14448-0.013914-0.217-0.011h-61.905" fill="url(#radialGradient2160646-2-0)"/>
			<path d="m1 0c-0.55392-0.001117-1.0028 0.44909-1 1.003v61.885c0-0.052 0.03 0.087 0.084 0.39 0.09 0.135 0.242 0.05 0.416-0.27v-60.911c0.038-0.063 0.07-0.097 0.099-0.097 0.154-0.127 0.251-0.257 0.566-0.352 0.217-0.089 0.463-0.148 0.711-0.148 19.418 2e-3 39.022 0 60.107 0 0.355 0 0.687 0.096 0.947 0.242 0.13781 0.049299 0.25742 0.13926 0.343 0.258 0.056 0 0.118 0.079 0.227 0.227v60.651c0.22 0.402 0.406 0.482 0.473 0.285 0.018-0.132 0.027-0.243 0.027-0.33v-61.721c0-0.113-4e-3 -0.188-0.012-0.224-0.050481-0.46258-0.4163-0.82757-0.879-0.877-0.072218-0.0099014-0.14515-0.013582-0.218-0.011h-61.89" fill="url(#radialGradient2160648-7-3)"/>
			<path d="m1 0c-0.55392-0.001117-1.0028 0.44909-1 1.003v61.899c0-0.02 0.035 0.126 0.094 0.41 0.101 0.152 0.273 0.1 0.468-0.18v-60.897c0.034-0.073 0.062-0.11 0.087-0.11 0.135-0.143 0.236-0.29 0.536-0.397 0.213-0.1 0.459-0.166 0.707-0.166 19.452 2e-3 38.969 0 60.093 0 0.356 0 0.687 0.108 0.936 0.272 0.13431 0.059746 0.24556 0.16152 0.317 0.29 0.05 0 0.103 0.089 0.2 0.256v60.64c0.246 0.352 0.455 0.386 0.531 0.165 0.02-0.128 0.03-0.239 0.03-0.33v-61.755c0-0.108-4e-3 -0.184-0.013-0.224-0.0572-0.46153-0.42793-0.82103-0.891-0.864-0.07229-0.0090995-0.14518-0.012443-0.218-0.01h-61.877" fill="url(#radialGradient2160650-0-6)"/>
			<path d="m1 0c-0.55353-0.0011137-1.0022 0.44848-1 1.002v61.913c0 0.013 0.039 0.165 0.105 0.432 0.112 0.168 0.303 0.148 0.52-0.092v-60.882c0.029-0.081 0.053-0.123 0.074-0.123 0.116-0.159 0.222-0.321 0.507-0.44 0.209-0.111 0.454-0.185 0.701-0.185 19.486 2e-3 38.916 0 60.08 0 0.357 0 0.687 0.12 0.925 0.302 0.13107 0.071535 0.23401 0.1854 0.292 0.323 0.043 0 0.089 0.098 0.171 0.284v60.626c0.275 0.302 0.507 0.29 0.591 0.046 0.022-0.125 0.034-0.236 0.034-0.33v-61.791c0-0.104-5e-3 -0.18-0.016-0.224-0.063414-0.4609-0.4392-0.81546-0.903-0.852-0.07238-0.0079052-0.14524-0.010579-0.218-8e-3h-61.863" fill="url(#radialGradient2160652-9-1)"/>
			<path d="m1 0c-0.55353-0.0011137-1.0022 0.44848-1 1.002v61.928c0 0.045 0.042 0.203 0.115 0.453 0.123 0.184 0.333 0.197 0.572-3e-3v-60.87c0.024-0.089 0.045-0.135 0.062-0.135 0.097-0.174 0.207-0.353 0.478-0.484 0.204-0.122 0.448-0.203 0.696-0.203 19.519 2e-3 38.863 0 60.067 0 0.33455-0.0021 0.65879 0.11568 0.914 0.332 0.15 0.103 0.224 0.225 0.267 0.355 0.035 0 0.073 0.108 0.142 0.313v60.612c0.302 0.251 0.557 0.196 0.65-0.074 0.02307-0.10853 0.03547-0.21906 0.037-0.33v-61.825c0-0.1-6e-3 -0.175-0.017-0.224-0.069565-0.46031-0.45044-0.80996-0.915-0.84-0.072444-0.0069646-0.14526-0.0093027-0.218-7e-3h-61.85" fill="url(#radialGradient2160654-3-0)"/>
			<path d="m1 0c-0.55353-0.0011137-1.0022 0.44848-1 1.002v61.942c0 0.077 0.046 0.242 0.126 0.473 0.134 0.201 0.363 0.246 0.624 0.086v-60.856c0.02-0.097 0.035-0.147 0.05-0.147 0.079731-0.22481 0.23864-0.41288 0.447-0.529 0.2-0.133 0.444-0.221 0.691-0.221 19.553 2e-3 38.811 0 60.053 0 0.36 0 0.686 0.144 0.903 0.362 0.12254 0.097958 0.20793 0.23486 0.242 0.388 0.028 0 0.059 0.118 0.114 0.341v60.598c0.33 0.2 0.608 0.1 0.709-0.194 0.026-0.117 0.04-0.228 0.04-0.329v-61.86c0-0.095-6e-3 -0.17-0.018-0.224-0.076427-0.45917-0.46212-0.80326-0.927-0.827-0.072523-0.0056002-0.1453-0.0072693-0.218-5e-3h-61.836" fill="url(#radialGradient2160656-6-6)"/>
			<path d="m1 0c-0.55314-0.001111-1.0017 0.44787-1 1.001v61.956c0 0.11 0.05 0.281 0.136 0.494 0.146 0.218 0.394 0.296 0.677 0.176v-60.843c0.014-0.105 0.026-0.16 0.036-0.16 0.062205-0.23684 0.21195-0.44126 0.419-0.572 0.196-0.144 0.439-0.24 0.686-0.24 19.586 2e-3 38.758 0 60.04 0 0.36 0 0.685 0.156 0.892 0.392 0.11655 0.1122 0.19253 0.25993 0.216 0.42 0.021 0 0.044 0.128 0.086 0.37v60.585c0.356 0.15 0.658 5e-3 0.768-0.314 0.029-0.114 0.044-0.224 0.044-0.328v-61.895c0-0.09-7e-3 -0.166-0.02-0.224-0.083295-0.45841-0.47439-0.79708-0.94-0.814-0.072228-0.0047776-0.14463-0.0064458-0.217-5e-3h-61.823" fill="url(#radialGradient2160658-0-3)"/>
			<path d="m1 0c-0.55274-0.0011088-1.0011 0.44726-1 1v61.972c0 0.142 0.054 0.32 0.147 0.515 0.15624 0.24102 0.45338 0.34918 0.728 0.265v-60.83c0.01-0.114 0.018-0.172 0.025-0.172 0.044459-0.24844 0.184-0.46977 0.389-0.617 0.192-0.155 0.434-0.258 0.68-0.258 19.62 2e-3 38.705 0 60.027 0 0.362 0 0.686 0.168 0.882 0.422 0.10963 0.12712 0.17614 0.28571 0.19 0.453 0.015 0 0.03 0.137 0.057 0.398v60.572c0.385 0.1 0.71-0.09 0.828-0.434 0.03-0.11 0.047-0.22 0.047-0.328v-61.93c0-0.086-7e-3 -0.161-0.021-0.224-0.089858-0.45718-0.48521-0.79059-0.951-0.802-0.072962-0.0029106-0.146-0.0035776-0.219-2e-3h-61.809" fill="url(#radialGradient2160660-6-2)"/>
			<path d="m1 0c-0.55274-0.0011088-1.0011 0.44726-1 1v61.986c0 0.174 0.058 0.358 0.157 0.535 0.16968 0.25897 0.47327 0.39714 0.78 0.355v-60.816c5e-3 -0.122 0.01-0.185 0.013-0.185 0.028233-0.25888 0.15763-0.49611 0.36-0.66 0.187-0.166 0.429-0.277 0.675-0.277 19.653 2e-3 38.652 0 60.013 0 0.363 0 0.685 0.18 0.87 0.452 0.10246 0.1415 0.16026 0.3104 0.166 0.485 7e-3 0 0.015 0.147 0.028 0.427v60.558c0.412 0.05 0.76-0.186 0.887-0.553 0.03316-0.10618 0.05001-0.21677 0.05-0.328v-61.965c0.010025-0.55281-0.43213-1.008-0.985-1.014-0.073-0.0011985-0.146-0.0011985-0.219 0h-61.795" fill="url(#radialGradient2160662-2-0)"/>
			<path d="m1 0c-0.55274-0.0011088-1.0011 0.44726-1 1v1h64v-0.998c0.0011-0.55274-0.44726-1.0011-1-1h-62z" fill="url(#radialGradient2160664-6-6)"/>
			<path d="m-3.2081e-5 0.9985v2.5l2-2z" fill="#ffccf4" fill-opacity=".73414"/>
			<path d="m64 3.4985-2-2 2-0.5z" fill="#ffccf4" fill-opacity=".73414"/>
		</g>
		<g transform="translate(-3.2081e-5)">
			<g color="#000000">
				<g fill="#662f43" fill-opacity=".04">
					<path d="m2 0-2 1v21.5h2zm2 0v3.5h2v-3.5zm4 0v17.5h2v-17.5zm4 0v32.5h2v-32.5zm8 0v27.5h2v-27.5zm16 0v0.5h2v-0.5zm12 0v19.5h2v-19.5zm4 0v33.5h2v-33.5zm4 0v14.5h2v-14.5zm4 0v30.5h2v-30.5zm-20 0.5v37h2v-37zm-36 5v37h2v-37zm28 0v37h2v-37zm-8 1v37h2v-37zm-8 3v37h2v-37zm12 2v37h2v-37zm16 5v37h2v-37zm-36 3v37h2v-37zm28 0v37h2v-37zm12 2v37h2v-37zm-48 3v37h2v-37zm60 8v31.5h2v-31.5zm-8 5v26.5h2v-26.5zm4 14v12.5h2v-12.5z"/>
					<path d="m2 0-2 1v29h2zm2 0v14h2v-14zm4 0v33h2v-33zm4 0v19h2v-19zm8 0v37h2v-37zm20 0v27h2v-27zm8 0v32h2v-32zm4 0v17h2v-17zm4 0v3h2v-3zm4 0v22h2v-22zm-32 5v37h2v-37zm28 0v37h2v-37zm-20 1v37h2v-37zm8 3v37h2v-37zm-12 2v37h2v-37zm-16 5v37h2v-37zm8 3v37h2v-37zm28 0v37h2v-37zm-40 2v37h2v-37zm48 3v37h2v-37zm-60 8v30l2 2v-32zm8 5v27h2v-27zm-4 14v13h2v-13z"/>
					<path d="m2 0-2 1v27.5h2zm2 0v12.5h2v-12.5zm4 0v31.5h2v-31.5zm4 0v17.5h2v-17.5zm8 0v35.5h2v-35.5zm20 0v25.5h2v-25.5zm8 0v30.5h2v-30.5zm4 0v15.5h2v-15.5zm4 0v1.5h2v-1.5zm4 0v20.5h2v-20.5zm-32 3.5v37h2v-37zm28 0v37h2v-37zm-20 1v37h2v-37zm8 3v37h2v-37zm-12 2v37h2v-37zm-16 5v37h2v-37zm8 3v37h2v-37zm28 0v37h2v-37zm-40 2v37h2v-37zm48 3v37h2v-37zm-60 8v31.5l2 2v-33.5zm8 5v28.5h2v-28.5zm-4 14v14.5h2v-14.5z"/>
					<path d="m2 0-2 1v19h2zm2 0v1h2v-1zm4 0v15h2v-15zm4 0v30h2v-30zm8 0v25h2v-25zm20 0v35h2v-35zm8 0v17h2v-17zm4 0v31h2v-31zm4 0v12h2v-12zm4 0v28h2v-28zm-56 3v37h2v-37zm28 0v37h2v-37zm-8 1v37h2v-37zm-8 3v37h2v-37zm12 2v37h2v-37zm16 5v37h2v-37zm-36 3v37h2v-37zm28 0v37h2v-37zm12 2v37h2v-37zm-48 3v37h2v-37zm60 8v34h2v-34zm-8 5v29h2v-29zm4 14v15h2v-15z"/>
					<path d="m2 0-2 1v32.5h2zm2 0v14.5h2v-14.5zm4 0v28.5h2v-28.5zm16 0v9.5h2v-9.5zm8 0v6.5h2v-6.5zm4 0v11.5h2v-11.5zm12 0v30.5h2v-30.5zm8 0v25.5h2v-25.5zm-36 1.5v37h2v-37zm40 3v37h2v-37zm-48 2v37h2v-37zm40 1v37h2v-37zm-12 4v37h2v-37zm-36 5v37h2v-37zm28 0v37h2v-37zm-8 1v37h2v-37zm-8 3v37h2v-37zm12 2v37h2v-37zm16 5v36.5h2v-36.5zm-36 3v33.5h2v-33.5zm28 0v33.5h2v-33.5zm12 2v31.5h2v-31.5zm-48 3v26.5l2 2v-28.5zm60 8v20.5h2v-20.5zm-8 5v15.5h2v-15.5zm4 14v1.5h2v-1.5z"/>
					<path d="m4 0v25h2v-25zm8 0v30h2v-30zm12 0v11h2v-11zm4 0v6h2v-6zm8 0v9h2v-9zm16 0v28h2v-28zm4 0v14h2v-14zm4 0v33h2v-33zm-20 1v37h2v-37zm-40 3v37h2v-37zm48 2v37h2v-37zm-40 1v37h2v-37zm12 4v37h2v-37zm8 5v37h2v-37zm28 0v37h2v-37zm-20 1v37h2v-37zm8 3v37h2v-37zm-12 2v37h2v-37zm-16 5v37h2v-37zm8 3v34h2v-34zm28 0v34h2v-34zm-40 2v32h2v-32zm48 3v29h2v-29zm-60 8v19l2 2v-21zm8 5v16h2v-16zm-4 14v2h2v-2z"/>
				</g>
				<g fill="#ff953a" fill-opacity=".01">
					<path d="m4 0-2 1v21.5h2zm2 0v3.5h2v-3.5zm4 0v17.5h2v-17.5zm4 0v32.5h2v-32.5zm8 0v27.5h2v-27.5zm16 0v0.5h2v-0.5zm12 0v19.5h2v-19.5zm4 0v33.5h2v-33.5zm4 0v14.5h2v-14.5zm4 0v30.5h2v-30.5zm-20 0.5v37h2v-37zm-36 5v37h2v-37zm28 0v37h2v-37zm-8 1v37h2v-37zm-8 3v37h2v-37zm12 2v37h2v-37zm16 5v37h2v-37zm-36 3v37h2v-37zm28 0v37h2v-37zm12 2v37h2v-37zm-48 3v37h2v-37zm60 8v31.5h2v-31.5zm-8 5v26.5h2v-26.5zm4 14v12.5h2v-12.5z"/>
					<path d="m4 0-2 1v29h2zm2 0v14h2v-14zm4 0v33h2v-33zm4 0v19h2v-19zm8 0v37h2v-37zm20 0v27h2v-27zm8 0v32h2v-32zm4 0v17h2v-17zm4 0v3h2v-3zm4 0v22h2v-22zm-32 5v37h2v-37zm28 0v37h2v-37zm-20 1v37h2v-37zm8 3v37h2v-37zm-12 2v37h2v-37zm-16 5v37h2v-37zm8 3v37h2v-37zm28 0v37h2v-37zm-40 2v37h2v-37zm48 3v37h2v-37zm-60 8v30l2 2v-32zm8 5v27h2v-27zm-4 14v13h2v-13z"/>
					<path d="m4 0-2 1v27.5h2zm2 0v12.5h2v-12.5zm4 0v31.5h2v-31.5zm4 0v17.5h2v-17.5zm8 0v35.5h2v-35.5zm20 0v25.5h2v-25.5zm8 0v30.5h2v-30.5zm4 0v15.5h2v-15.5zm4 0v1.5h2v-1.5zm4 0v20.5h2v-20.5zm-32 3.5v37h2v-37zm28 0v37h2v-37zm-20 1v37h2v-37zm8 3v37h2v-37zm-12 2v37h2v-37zm-16 5v37h2v-37zm8 3v37h2v-37zm28 0v37h2v-37zm-40 2v37h2v-37zm48 3v37h2v-37zm-60 8v31.5l2 2v-33.5zm8 5v28.5h2v-28.5zm-4 14v14.5h2v-14.5z"/>
					<path d="m4 0-2 1v19h2zm2 0v1h2v-1zm4 0v15h2v-15zm4 0v30h2v-30zm8 0v25h2v-25zm20 0v35h2v-35zm8 0v17h2v-17zm4 0v31h2v-31zm4 0v12h2v-12zm4 0v28h2v-28zm-56 3v37h2v-37zm28 0v37h2v-37zm-8 1v37h2v-37zm-8 3v37h2v-37zm12 2v37h2v-37zm16 5v37h2v-37zm-36 3v37h2v-37zm28 0v37h2v-37zm12 2v37h2v-37zm-48 3v37h2v-37zm60 8v34h2v-34zm-8 5v29h2v-29zm4 14v15h2v-15z"/>
					<path d="m4 0-2 1v32.5h2zm2 0v14.5h2v-14.5zm4 0v28.5h2v-28.5zm16 0v9.5h2v-9.5zm8 0v6.5h2v-6.5zm4 0v11.5h2v-11.5zm12 0v30.5h2v-30.5zm8 0v25.5h2v-25.5zm-36 1.5v37h2v-37zm40 3v37h2v-37zm-48 2v37h2v-37zm40 1v37h2v-37zm-12 4v37h2v-37zm-36 5v37h2v-37zm28 0v37h2v-37zm-8 1v37h2v-37zm-8 3v37h2v-37zm12 2v37h2v-37zm16 5v36.5h2v-36.5zm-36 3v33.5h2v-33.5zm28 0v33.5h2v-33.5zm12 2v31.5h2v-31.5zm-48 3v26.5l2 2v-28.5zm60 8v20.5h2v-20.5zm-8 5v15.5h2v-15.5zm4 14v1.5h2v-1.5z"/>
					<path d="m6 0v25h2v-25zm8 0v30h2v-30zm12 0v11h2v-11zm4 0v6h2v-6zm8 0v9h2v-9zm16 0v28h2v-28zm4 0v14h2v-14zm4 0v33h2v-33zm-20 1v37h2v-37zm-40 3v37h2v-37zm48 2v37h2v-37zm-40 1v37h2v-37zm12 4v37h2v-37zm8 5v37h2v-37zm28 0v37h2v-37zm-20 1v37h2v-37zm8 3v37h2v-37zm-12 2v37h2v-37zm-16 5v37h2v-37zm8 3v34h2v-34zm28 0v34h2v-34zm-40 2v32h2v-32zm48 3v29h2v-29zm-60 8v19l2 2v-21zm8 5v16h2v-16zm-4 14v2h2v-2z"/>
				</g>
			</g>
		</g>
	</g>
	<g transform="translate(2,-1)">
		<path d="m2 33h26c1.108 0 2 0.892 2 2v27c0 1.108-0.892 2-2 2h-26c-1.108 0-2-0.892-2-2v-27c0-1.108 0.892-2 2-2z" fill="url(#linearGradient2239)" stop-color="#000000"/>
		<path d="m2 33h26c1.108 0 2 0.892 2 2v1h-30v-1c0-1.108 0.892-2 2-2z" fill="url(#radialGradient2432)" stop-color="#000000"/>
		<path d="m13.61 41.94c-0.4646 0.0083-0.6914 0.2145-0.8066 0.3027-0.06298 0.02888-0.08886 0.01832-0.1992 0.1211-0.0093 0.0089-0.0184 0.01805-0.02734 0.02734-0.2124 0.2133-0.257 0.3467-0.293 0.4121 0.0095-0.01735-0.1071 0.1139-0.1855 0.416-0.0051 0.01874-0.0097 0.03763-0.01367 0.05664l-0.2266 1.135c-0.3128 0.1421-0.61 0.3146-0.8984 0.5098l-1.07-0.3652c-0.0071-2e-3 -0.0143-4e-3 -0.02149-0.0059-0.2889-0.09161-0.5723-0.1149-0.9102-0.04297-0.3378 0.0719-0.7636 0.2919-1.008 0.7148-6.528e-4 0.0013-0.0013 0.0026-0.00195 0.0039l-0.875 1.531c-0.00264 0.0045-0.00524 0.0091-0.00781 0.01367-0.2011 0.3646-0.217 0.8183-0.1152 1.15s0.2826 0.5701 0.4766 0.7617c0.01879 0.01901 0.03834 0.03725 0.05859 0.05469l0.793 0.668c-0.01754 0.2001-0.05469 0.3992-0.05469 0.5977 0 0.2066 0.01333 0.4141 0.03516 0.6133l-0.7734 0.6523c-0.0106 0.0089-0.02102 0.01801-0.03125 0.02734-0.254 0.2317-0.606 0.6314-0.5742 1.287 1.965e-4 0.01037-6.026e-4 0.0088 0 0.02344 0.00121 0.0222 0.00317 0.04434 0.00586 0.06641 0.02395 0.2206 0.07798 0.3855 0.1875 0.5762l0.00195 2e-3v2e-3l0.873 1.527c0.00382 0.0072 0.00773 0.01437 0.01172 0.02148 0.02826 0.0468 0.1233 0.2577 0.4121 0.459 0.02504 0.01311 0.2379 0.1229 0.2383 0.123 3.692e-4 1.31e-4 0.0908 0.02411 0.1484 0.03711 0.03775 0.01249 0.08449 0.04035 0.1172 0.04883h0.00195c0.06998 0.01826 0.2803 0.07149 0.5176 0.06055 0.1412-5e-3 0.2816-0.02023 0.4355-0.0625 0.01971-0.0053 0.03924-0.01112 0.05859-0.01758l1.07-0.3652c0.2885 0.1951 0.5857 0.3677 0.8984 0.5098l0.2266 1.135c0.0012 0.0059 0.0025 0.01173 0.0039 0.01758 0.02434 0.1115 0.0571 0.2415 0.1445 0.418 0.0013 0.0033 0.0026 0.0065 0.0039 0.0098 0.2135 0.4204 0.6964 0.8906 1.393 0.8906h1.75c0.0059 5.2e-5 0.01172 5.2e-5 0.01758 0 0.4098-0.0073 0.8095-0.2267 1.035-0.4551h2e-3c0.2065-0.2093 0.2535-0.3435 0.2891-0.4082 0.0013-2e-3 0.0026-0.0039 0.0039-0.0059-0.01581 0.02939 0.1012-0.1012 0.1816-0.4102 0.0061-0.02453 0.01136-0.04929 0.01563-0.07422l0.1973-1.102c0.3223-0.1448 0.6287-0.3241 0.9277-0.5254l1.07 0.3652c0.0065 2e-3 0.013 4e-3 0.01953 0.0059 0.2368 0.07499 0.4973 0.123 0.8438 0.06445 0.3502-0.05938 0.4506-0.1525 0.5723-0.2266 0.0066-0.0038 0.01307-0.0077 0.01953-0.01172 0.3617-0.2327 0.4218-0.4489 0.4258-0.4551 0.0067-0.01094 0.01323-0.02201 0.01953-0.0332l0.9062-1.531c0.0054-9e-3 0.01056-0.01815 0.01563-0.02734 0.2054-0.3723 0.212-0.827 0.1074-1.158-0.09812-0.3139-0.2709-0.5585-0.4688-0.7539-0.1867-0.1847-0.4386-0.2886-0.7012-0.2892h0.3398l-0.4902-0.4238c0.01795-0.2034 0.05664-0.4069 0.05664-0.6074 0-0.2334-0.02022-0.4399-0.03711-0.623v-2e-3l0.752-0.6504c0.0072-0.0058 0.0144-0.01162 0.02148-0.01758 0.08892-0.0811 0.3423-0.2393 0.5137-0.707 0.0013-0.0033 0.0026-0.0065 0.0039-0.0098 0.05168-0.146 0.09708-0.3787 0.07813-0.627-0.01927-0.2388-0.1148-0.4907-0.1855-0.6132-0.0019-0.0033-0.0039-0.0065-0.0059-0.0098l-0.9062-1.531-0.0039-0.0078c-0.02492-0.04127-0.1025-0.2607-0.4395-0.4785-0.2795-0.1807-0.6476-0.2671-0.9688-0.25-0.14 0.0052-0.2792 0.02066-0.4316 0.0625-0.01905 0.0053-0.03794 0.01116-0.05664 0.01758l-1.07 0.3652c-0.299-0.2013-0.6054-0.3806-0.9277-0.5254l-0.1973-1.102c-0.0018-0.01175-0.0037-0.02348-0.0059-0.03516-0.06482-0.2976-0.1898-0.559-0.4238-0.8144-0.2339-0.2554-0.6362-0.5039-1.115-0.5039h-1.75c-0.0065-6.4e-5 -0.01302-6.4e-5 -0.01953 0zm0.01953 1h1.75c0.3116 0 0.5125 0.3022 0.5625 0.5312l0.2812 1.562c9e-3 0.0031 0.02225-0.0032 0.03125 0 0.632 0.2232 1.223 0.5377 1.719 0.9688l1.469-0.5c0.07003-0.01922 0.1466-0.02945 0.2188-0.03125 0.1431-0.0084 0.2658 0.02319 0.375 0.09375 0.05458 0.03528 0.08892 0.09651 0.125 0.1562l0.9062 1.531c0.03895 0.06748 0.0597 0.1201 0.0625 0.1875 0.0084 0.07689-6e-3 0.1473-0.03125 0.2188-0.04599 0.1255-0.1634 0.2334-0.25 0.3125l-1.156 1c0.0316 0.1638 0.04285 0.3295 0.0625 0.5 0.01643 0.1782 0.03125 0.3534 0.03125 0.5312 0 0.3462-0.02975 0.7036-0.09375 1.031l1.156 1h0.03125c0.1034 0.1021 0.1809 0.2201 0.2188 0.3438 0.03919 0.1229 0.03615 0.2528-0.03125 0.375l-0.9062 1.531c-0.03744 0.05795-0.07086 0.1214-0.125 0.1562-0.05954 0.03626-0.1495 0.0821-0.2188 0.09375-0.131 0.02211-0.2712 0.0016-0.375-0.03125l-1.469-0.5c-0.4956 0.4311-1.087 0.7456-1.719 0.9688-9e-3 0.0032-0.02225-0.0031-0.03125 0l-0.2812 1.562c-0.0183 0.07026-0.06049 0.1257-0.09375 0.1875-0.03436 0.06259-0.07669 0.139-0.125 0.1875-0.09365 0.09504-0.2042 0.1538-0.3438 0.1562h-1.75c-0.2337 0-0.4078-0.1621-0.5-0.3438-0.02963-0.05979-0.05-0.1302-0.0625-0.1875l-0.3125-1.562c-0.6424-0.2233-1.216-0.5316-1.719-0.9688l-1.469 0.5c-0.07003 0.01923-0.1466 0.02945-0.2188 0.03125-0.08229 0.0048-0.1439-0.01174-0.2188-0.03125-0.05714-0.01463-0.1074-0.03314-0.1562-0.0625-0.00546-0.0035-0.02595 0.0038-0.03125 0-0.05519-0.03772-0.08893-0.09651-0.125-0.1562l-0.875-1.531c-0.03381-0.05857-0.0561-0.1286-0.0625-0.1875-3.89e-4 -0.0094-2.04e-4 -0.02185 0-0.03125-0.00984-0.203 0.1199-0.3813 0.25-0.5l1.187-1c-0.03064-0.1594-0.04694-0.3313-0.0625-0.5-0.01965-0.1705-0.03125-0.3581-0.03125-0.5312 0-0.3462 0.03075-0.7036 0.09375-1.031l-1.187-1c-0.2067-0.2042-0.3223-0.4744-0.1875-0.7188l0.875-1.531c0.1559-0.27 0.5264-0.2896 0.75-0.2188l1.469 0.5c0.5027-0.4372 1.076-0.7454 1.719-0.9688l0.3125-1.562c0.01825-0.07026 0.05939-0.1249 0.09375-0.1875s0.07669-0.139 0.125-0.1875c0.01617-0.01506 0.04495-0.01831 0.0625-0.03125 0.08073-0.05954 0.1743-0.1231 0.2812-0.125zm-5.371 7.686c2.087e-4 0.0023 0.00174 0.0055 0.00195 0.0078 5.681e-4 5e-3 -5.802e-4 0.01058 0 0.01563zm0.2637 4.699c0.07005 0.03686 0.1319 0.05672 0.1973 0.08008-0.0138-0.0033-0.04504-0.0098-0.04492-0.0098 2.832e-4 8.8e-5 -0.08103-0.03717-0.1523-0.07031z" color="#000000" color-rendering="auto" dominant-baseline="auto" fill="#f2c753" fill-opacity=".7802" image-rendering="auto" shape-rendering="auto" solid-color="#000000" style="font-feature-settings:normal;font-variant-alternates:normal;font-variant-caps:normal;font-variant-ligatures:normal;font-variant-numeric:normal;font-variant-position:normal;isolation:auto;mix-blend-mode:normal;shape-padding:0;text-decoration-color:#000000;text-decoration-line:none;text-decoration-style:solid;text-indent:0;text-orientation:mixed;text-transform:none;white-space:normal"/>
	</g>
	<g transform="translate(2,3)">
		<path d="m2 0h26c1.108 0 2 0.892 2 2v27c0 1.108-0.892 2-2 2h-26c-1.108 0-2-0.892-2-2v-27c0-1.108 0.892-2 2-2z" fill="url(#linearGradient97026)" stop-color="#000000"/>
		<path d="m2 0h26c1.108 0 2 0.892 2 2v1h-30v-1c0-1.108 0.892-2 2-2z" fill="url(#radialGradient97030)" stop-color="#000000"/>
		<path d="m7 8v16h14v-16h-13zm1 1h12v14h-12zm2 2v1h8v-1zm0 2v2h2v-2zm3 0v2h2v-2zm3 0v2h2v-2zm-6 3v2h2v-2zm3 0v2h2v-2zm3 0v2h2v-2zm-6 3v2h2v-2zm3 0v2h2v-2zm3 0v2h2v-2z" color="#000000" fill="#d2f3fd" fill-opacity=".75532" style="text-decoration-line:none;text-indent:0;text-transform:none"/>
	</g>
	<g transform="translate(-2,-1)">
		<path d="m36 33h26c1.108 0 2 0.892 2 2v27c0 1.108-0.892 2-2 2h-26c-1.108 0-2-0.892-2-2v-27c0-1.108 0.892-2 2-2z" fill="url(#linearGradient3087)" stop-color="#000000"/>
		<path d="m36 33h26c1.108 0 2 0.892 2 2v1h-30v-1c0-1.108 0.892-2 2-2z" fill="url(#radialGradient3091)" stop-color="#000000"/>
		<path d="m44.09 43-0.3125 0.2812-2 2-0.2812 0.3125v7.625l0.09375 0.2188 1 2 0.2812 0.5625h1.9375l0.25-0.1875c1.141-0.5104 1.993-2.136 2.719-2.812h3.438c0.6484 0.7147 1.489 2.347 2.719 2.812l0.25 0.1875h1.9375l0.2812-0.5625 1-2 0.09375-0.2188v-7.625l-0.2812-0.3125-2-2-0.3125-0.2812h-10.406zm0.4062 1h10l2 2v7l-1 2h-1l-3-3h-4l-3 3h-1l-1-2v-7zm9 1c-0.5523 0-1 0.4477-1 1s0.4477 1 1 1 1-0.4477 1-1-0.4477-1-1-1zm-8 1v2h-2v1h2v2h1v-2h2v-1h-2v-2zm5 0c-0.5523 0-1 0.4477-1 1s0.4477 1 1 1 1-0.4477 1-1-0.4477-1-1-1zm4 2c-0.5523 0-1 0.4477-1 1s0.4477 1 1 1 1-0.4477 1-1-0.4477-1-1-1zm-3 1c-0.5523 0-1 0.4477-1 1s0.4477 1 1 1 1-0.4477 1-1-0.4477-1-1-1z" color="#000000" fill="#aef972" fill-opacity=".79575" style="text-decoration-line:none;text-indent:0;text-transform:none"/>
	</g>
	<g transform="translate(-2,3)">
		<path d="m36 0h26c1.108 0 2 0.892 2 2v27c0 1.108-0.892 2-2 2h-26c-1.108 0-2-0.892-2-2v-27c0-1.108 0.892-2 2-2z" fill="url(#linearGradient58859)" stop-color="#000000"/>
		<path d="m36 0h26c1.108 0 2 0.892 2 2v1h-30v-1c0-1.108 0.892-2 2-2z" fill="url(#radialGradient58863)" stop-color="#000000"/>
		<path d="m51 8v1.414l4 4v-1.414zm0 2.818v9.182c0 1.434-1.007 2.662-2.414 2.941-1.407 0.2798-2.809-0.4679-3.357-1.793-0.5489-1.325-0.08711-2.846 1.105-3.643 1.148-0.767 2.65-0.6428 3.666 0.2715v-1.223c-0.4993-0.2892-1.044-0.4777-1.607-0.5332-0.2241-0.02207-0.4505-0.02544-0.6758-0.0098-0.6759 0.04702-1.345 0.2652-1.939 0.6621-1.584 1.058-2.202 3.097-1.473 4.857 0.7291 1.76 2.608 2.764 4.477 2.393 1.869-0.3717 3.219-2.019 3.219-3.924v-8.182z" color="#000000" color-rendering="auto" dominant-baseline="auto" fill="#97dfff" fill-opacity=".78873" image-rendering="auto" shape-rendering="auto" solid-color="#000000" style="font-feature-settings:normal;font-variant-alternates:normal;font-variant-caps:normal;font-variant-ligatures:normal;font-variant-numeric:normal;font-variant-position:normal;isolation:auto;mix-blend-mode:normal;shape-padding:0;text-decoration-color:#000000;text-decoration-line:none;text-decoration-style:solid;text-indent:0;text-orientation:mixed;text-transform:none;white-space:normal" paint-order="normal"/>
	</g>
	<g>
		<g transform="translate(0,3)" fill="#1b1331" fill-opacity=".07" opacity=".23303" stop-color="#000000" style="-inkscape-stroke:none;font-variation-settings:normal">
			<path d="m27 5.5v27.5h-6l11 15 11-15h-6v-27.5z" stop-color="#000000" style="-inkscape-stroke:none;font-variation-settings:normal"/>
			<path d="m27 5.502v27.5h-6.0007l11.001 15.001 11.001-15.001h-6.0007v-27.5z" stop-color="#000000" style="-inkscape-stroke:none;font-variation-settings:normal"/>
			<path d="m27 5.5112v27.5h-6.0042l11.004 15.004 11.004-15.004h-6.0042v-27.5z" stop-color="#000000" style="-inkscape-stroke:none;font-variation-settings:normal"/>
			<path d="m27 5.531v27.5h-6.0117l11.012 15.012 11.012-15.012h-6.0117v-27.5z" stop-color="#000000" style="-inkscape-stroke:none;font-variation-settings:normal"/>
			<path d="m27 5.5636v27.5h-6.0239l11.024 15.024 11.024-15.024h-6.0239v-27.5z" stop-color="#000000" style="-inkscape-stroke:none;font-variation-settings:normal"/>
			<path d="m27 5.6112v27.5h-6.0418l11.042 15.042 11.042-15.042h-6.0418v-27.5z" stop-color="#000000" style="-inkscape-stroke:none;font-variation-settings:normal"/>
			<path d="m27 5.6754v27.5h-6.0659l11.066 15.066 11.066-15.066h-6.0659v-27.5z" stop-color="#000000" style="-inkscape-stroke:none;font-variation-settings:normal"/>
			<path d="m27 5.7578v27.5h-6.0969l11.097 15.097 11.097-15.097h-6.0969v-27.5z" stop-color="#000000" style="-inkscape-stroke:none;font-variation-settings:normal"/>
			<path d="m27 5.86v27.5h-6.1353l11.135 15.135 11.135-15.135h-6.1353v-27.5z" stop-color="#000000" style="-inkscape-stroke:none;font-variation-settings:normal"/>
			<path d="m27 5.9833v27.5h-6.1817l11.182 15.182 11.182-15.182h-6.1817v-27.5z" stop-color="#000000" style="-inkscape-stroke:none;font-variation-settings:normal"/>
			<path d="m27 6.1289v27.5h-6.2364l11.236 15.236 11.236-15.236h-6.2364v-27.5z" stop-color="#000000" style="-inkscape-stroke:none;font-variation-settings:normal"/>
			<path d="m27 6.2981v27.5h-6.3l11.3 15.3 11.3-15.3h-6.3v-27.5z" stop-color="#000000" style="-inkscape-stroke:none;font-variation-settings:normal"/>
			<path d="m27 6.492v27.5h-6.3729l11.373 15.373 11.373-15.373h-6.3729v-27.5z" stop-color="#000000" style="-inkscape-stroke:none;font-variation-settings:normal"/>
			<path d="m27 6.7118v27.5h-6.4555l11.456 15.456 11.456-15.456h-6.4555v-27.5z" stop-color="#000000" style="-inkscape-stroke:none;font-variation-settings:normal"/>
			<path d="m27 6.9585v27.5h-6.5482l11.548 15.548 11.548-15.548h-6.5482v-27.5z" stop-color="#000000" style="-inkscape-stroke:none;font-variation-settings:normal"/>
			<path d="m27 7.233v27.5h-6.6515l11.652 15.652 11.652-15.652h-6.6515v-27.5z" stop-color="#000000" style="-inkscape-stroke:none;font-variation-settings:normal"/>
			<path d="m27 7.5365v27.5h-6.7655l11.766 15.766 11.766-15.766h-6.7655v-27.5z" stop-color="#000000" style="-inkscape-stroke:none;font-variation-settings:normal"/>
			<path d="m27 7.8697v27.5h-6.8908l11.891 15.891 11.891-15.891h-6.8908v-27.5z" stop-color="#000000" style="-inkscape-stroke:none;font-variation-settings:normal"/>
			<path d="m27 8.2337v27.5h-7.0276l12.028 16.028 12.028-16.028h-7.0276v-27.5z" stop-color="#000000" style="-inkscape-stroke:none;font-variation-settings:normal"/>
			<path d="m27 8.6294v27.5h-7.1764l12.176 16.176 12.176-16.176h-7.1764v-27.5z" stop-color="#000000" style="-inkscape-stroke:none;font-variation-settings:normal"/>
			<path d="m27 9.0576v27.5h-7.3373l12.337 16.337 12.337-16.337h-7.3373v-27.5z" stop-color="#000000" style="-inkscape-stroke:none;font-variation-settings:normal"/>
			<path d="m27 9.5191v27.5h-7.5108l12.511 16.511 12.511-16.511h-7.5108v-27.5z" stop-color="#000000" style="-inkscape-stroke:none;font-variation-settings:normal"/>
			<path d="m27 10.015v27.5h-7.6971l12.697 16.697 12.697-16.697h-7.6971v-27.5z" stop-color="#000000" style="-inkscape-stroke:none;font-variation-settings:normal"/>
			<path d="m27 10.545v27.5h-7.8966l12.897 16.897 12.897-16.897h-7.8966v-27.5z" stop-color="#000000" style="-inkscape-stroke:none;font-variation-settings:normal"/>
			<path d="m27 11.112v27.5h-8.1095l13.11 17.11 13.11-17.11h-8.1095v-27.5z" stop-color="#000000" style="-inkscape-stroke:none;font-variation-settings:normal"/>
			<path d="m27 11.715v27.5h-8.3362l13.336 17.336 13.336-17.336h-8.3362v-27.5z" stop-color="#000000" style="-inkscape-stroke:none;font-variation-settings:normal"/>
			<path d="m27 12.355v27.5h-8.5768l13.577 17.577 13.577-17.577h-8.5768v-27.5z" stop-color="#000000" style="-inkscape-stroke:none;font-variation-settings:normal"/>
			<path d="m27 13.033v27.5h-8.8318l13.832 17.832 13.832-17.832h-8.8318v-27.5z" stop-color="#000000" style="-inkscape-stroke:none;font-variation-settings:normal"/>
			<path d="m27 13.75v27.5h-9.1014l14.101 18.101 14.101-18.101h-9.1014v-27.5z" stop-color="#000000" style="-inkscape-stroke:none;font-variation-settings:normal"/>
			<path d="m27 14.507v27.5h-9.3857l14.386 18.386 14.386-18.386h-9.3857v-27.5z" stop-color="#000000" style="-inkscape-stroke:none;font-variation-settings:normal"/>
			<path d="m27 15.304v27.5h-9.6852l14.685 18.685 14.685-18.685h-9.6852v-27.5z" stop-color="#000000" style="-inkscape-stroke:none;font-variation-settings:normal"/>
			<path d="m27 16.141v27.5h-10l15 19 15-19h-10v-27.5z" stop-color="#000000" style="-inkscape-stroke:none;font-variation-settings:normal"/>
		</g>
		<g>
			<path d="m27 5.5v27.5h-10l15 19 15-19h-10v-27.5z" color="#000000" fill="#f4de83" stop-color="#000000" style="-inkscape-stroke:none;font-variation-settings:normal"/>
			<path d="m27 5.5v1.5h10v-1.5zm-10 27.5 1.6367 1.5h8.3633v-1.5zm20 0v1.5h8.3633l1.6367-1.5z" fill="#fbffc2" stop-color="#000000" style="-inkscape-stroke:none;font-variation-settings:normal"/>
			<g transform="matrix(.67879 0 0 1 10.279 1.5)" fill="#e92200" fill-opacity=".026103" opacity=".22381" stop-color="#000000" stroke-width="1.2138" style="-inkscape-stroke:none;font-variation-settings:normal">
				<path d="m26.233 5.5-2.8141 27.296h-15.091l23.673 29.985 23.672-29.985h-15.091l-2.8141-27.296z" stop-color="#000000" style="-inkscape-stroke:none;font-variation-settings:normal"/>
				<path d="m26.463 5.5-1.9711 27.357h-13.566l21.075 26.695 21.075-26.695h-13.566l-1.9711-27.357z" stop-color="#000000" style="-inkscape-stroke:none;font-variation-settings:normal"/>
				<path d="m26.544 5.5-1.6746 27.378h-13.03l20.161 25.537 20.161-25.537h-13.03l-1.6746-27.378z" stop-color="#000000" style="-inkscape-stroke:none;font-variation-settings:normal"/>
				<path d="m26.603 5.5-1.455 27.394h-12.632l19.484 24.68 19.484-24.68h-12.632l-1.455-27.394z" stop-color="#000000" style="-inkscape-stroke:none;font-variation-settings:normal"/>
				<path d="m26.653 5.5-1.2739 27.408h-12.305l18.926 23.973 18.926-23.973h-12.305l-1.274-27.408z" stop-color="#000000" style="-inkscape-stroke:none;font-variation-settings:normal"/>
				<path d="m26.696 5.5-1.117 27.419h-12.021l18.442 23.36 18.442-23.36h-12.021l-1.117-27.419z" stop-color="#000000" style="-inkscape-stroke:none;font-variation-settings:normal"/>
				<path d="m26.734 5.5-0.977 27.429h-11.768l18.011 22.814 18.011-22.814h-11.768l-0.977-27.429z" stop-color="#000000" style="-inkscape-stroke:none;font-variation-settings:normal"/>
				<path d="m26.768 5.5-0.8496 27.438h-11.537l17.618 22.317 17.618-22.317h-11.537l-0.8496-27.438z" stop-color="#000000" style="-inkscape-stroke:none;font-variation-settings:normal"/>
				<path d="m26.8 5.5-0.7322 27.447h-11.325l17.256 21.858 17.256-21.858h-11.325l-0.7322-27.447z" stop-color="#000000" style="-inkscape-stroke:none;font-variation-settings:normal"/>
				<path d="m26.83 5.5-0.6228 27.455h-11.127l16.919 21.431 16.919-21.431h-11.127l-0.6228-27.455z" stop-color="#000000" style="-inkscape-stroke:none;font-variation-settings:normal"/>
				<path d="m26.858 5.5-0.5201 27.462h-10.941l16.603 21.03 16.603-21.03h-10.941l-0.5201-27.462z" stop-color="#000000" style="-inkscape-stroke:none;font-variation-settings:normal"/>
				<path d="m26.885 5.5-0.4231 27.469h-10.765l16.304 20.651 16.304-20.651h-10.765l-0.4231-27.469z" stop-color="#000000" style="-inkscape-stroke:none;font-variation-settings:normal"/>
				<path d="m26.91 5.5-0.3308 27.476h-10.599l16.02 20.292 16.02-20.292h-10.599l-0.3308-27.476z" stop-color="#000000" style="-inkscape-stroke:none;font-variation-settings:normal"/>
				<path d="m26.934 5.5-0.2429 27.482h-10.44l15.749 19.948 15.749-19.948h-10.44l-0.2429-27.482z" stop-color="#000000" style="-inkscape-stroke:none;font-variation-settings:normal"/>
				<path d="m26.957 5.5-0.1587 27.488h-10.287l15.489 19.62 15.489-19.62h-10.287l-0.1587-27.488z" stop-color="#000000" style="-inkscape-stroke:none;font-variation-settings:normal"/>
				<path d="m26.979 5.5-0.0779 27.494h-10.141l15.24 19.304 15.24-19.304h-10.141l-0.0779-27.494z" stop-color="#000000" style="-inkscape-stroke:none;font-variation-settings:normal"/>
				<path d="m27 5.5v27.5h-10l15 19 15-19h-10v-27.5z" stop-color="#000000" style="-inkscape-stroke:none;font-variation-settings:normal"/>
			</g>
		</g>
	</g>
</svg>
