<?xml version="1.0" encoding="UTF-8"?>
<svg id="r" width="64" height="64" version="1.1" xmlns="http://www.w3.org/2000/svg" xmlns:cc="http://creativecommons.org/ns#" xmlns:dc="http://purl.org/dc/elements/1.1/" xmlns:rdf="http://www.w3.org/1999/02/22-rdf-syntax-ns#" xmlns:xlink="http://www.w3.org/1999/xlink">
	<defs id="ai">
		<radialGradient id="a" cx="31.969" cy="33.185" r="32" gradientTransform="matrix(5.6735 -5.6735 .95312 .95312 -181 183.1)" gradientUnits="userSpaceOnUse">
			<stop id="y" style="stop-color:#0093e0" offset="0"/>
			<stop id="au" style="stop-color:#0084fd" offset="1"/>
		</radialGradient>
		<linearGradient id="b" x1="30.156" x2="25.406" y1="36.094" y2="31.344" gradientUnits="userSpaceOnUse">
			<stop id="av" style="stop-color:#8896b0" offset="0"/>
			<stop id="aw" style="stop-color:#c3cad7" offset="1"/>
		</linearGradient>
	</defs>
	<metadata id="ab">
		<rdf:RDF>
			<cc:Work rdf:about="">
				<dc:format>image/svg+xml</dc:format>
				<dc:type rdf:resource="http://purl.org/dc/dcmitype/StillImage"/>
				<dc:title/>
			</cc:Work>
		</rdf:RDF>
	</metadata>
	<path id="ao" d="m0 2v60l2 2h60l2-2v-60z" style="color:#000000;fill:url(#a)"/>
	<path id="ap" d="m2 0-2 1v1h64v-1l-2-1z" style="color:#000000;fill:#12ddff"/>
	<path id="d" d="m64 4-2-2 2-1z" style="fill:#09b6f4"/>
	<path id="i" d="m0 1v3l2-2z" style="fill:#6efbff"/>
	<g id="x" style="fill:#0000d4;opacity:.5">
		<path id="af" d="m63.276 24.841-43.026 17.602s11.734 3.9115 11.734 3.9115l4.8894 13.69 6.0811-7.0896 12.498 9.0453 7.823-37.159" style="color:#000000;fill-opacity:.0039216;fill:#0000d4;opacity:1"/>
		<path id="ae" d="m60.757 23.224-42.124 17.232 11.488 3.8294 4.7868 13.403s5.9535-6.9408 5.9535-6.9408l12.236 8.8555 7.6588-36.379" style="color:#000000;fill-opacity:.0088519;fill:#0000d4;opacity:1"/>
		<path id="ad" d="m59.714 22.555-41.75 17.079 11.386 3.7954 4.7443 13.284s5.9007-6.8792 5.9007-6.8792l12.128 8.7769 7.5908-36.056" style="color:#000000;fill-opacity:.010894;fill:#0000d4;opacity:1"/>
		<path id="ac" d="m58.913 22.041-41.463 16.962 11.308 3.7693 4.7117 13.193s5.8601-6.8319 5.8601-6.8319l12.044 8.7166 7.5387-35.809" style="color:#000000;fill-opacity:.012461;fill:#0000d4;opacity:1"/>
		<path id="ag" d="m58.238 21.608-41.221 16.863 11.242 3.7473 4.6842 13.116s5.826-6.7921 5.826-6.7921l11.974 8.6657 7.4947-35.6" style="color:#000000;fill-opacity:.013782;fill:#0000d4;opacity:1"/>
		<path id="m" d="m57.643 21.226-41.008 16.776 11.184 3.728 4.66 13.048 5.7958-6.7569 11.912 8.6209 7.4559-35.416" style="color:#000000;fill-opacity:.014946;fill:#0000d4;opacity:1"/>
		<path id="n" d="m57.106 20.881-40.815 16.697 11.131 3.7105 4.6381 12.987 5.7686-6.7252 11.856 8.5804 7.4209-35.249" style="color:#000000;fill-opacity:.015998;fill:#0000d4;opacity:1"/>
		<path id="o" d="m56.611 20.564-40.638 16.625 11.083 3.6944 4.6179 12.93 5.7436-6.696 11.805 8.5432 7.3887-35.096" style="color:#000000;fill-opacity:.016966;fill:#0000d4;opacity:1"/>
		<path id="p" d="m56.151 20.269-40.473 16.557 11.038 3.6794 4.5992 12.878s5.7203-6.6688 5.7203-6.6688l11.757 8.5085 7.3587-34.954" style="color:#000000;fill-opacity:.017867;fill:#0000d4;opacity:1"/>
		<path id="l" d="m55.719 19.992-40.318 16.494 10.996 3.6653 4.5816 12.828s5.6984-6.6433 5.6984-6.6433l11.712 8.476 7.3306-34.82" style="color:#000000;fill-opacity:.018713;fill:#0000d4;opacity:1"/>
		<path id="aq" d="m55.31 19.729-40.172 16.434s10.956 3.652 10.956 3.652l4.5649 12.782s5.6777-6.6192 5.6777-6.6192l11.669 8.4452 7.3039-34.694" style="color:#000000;fill-opacity:.019513;fill:#0000d4;opacity:1"/>
		<path id="ar" d="m54.921 19.48-40.032 16.377 10.918 3.6393 4.5491 12.738s5.658-6.5962 5.658-6.5962l11.629 8.4159 7.2786-34.573" style="color:#000000;fill-opacity:.020274;fill:#0000d4;opacity:1"/>
		<path id="as" d="m54.55 19.241-39.899 16.322 10.882 3.6272 4.534 12.695s5.6391-6.5743 5.6391-6.5743l11.59 8.3879 7.2544-34.458" style="color:#000000;fill-opacity:.021001;fill:#0000d4;opacity:1"/>
		<path id="at" d="m54.193 19.013-39.771 16.27 10.847 3.6156 4.5195 12.655s5.6211-6.5532 5.6211-6.5532l11.553 8.361 7.2312-34.348" style="color:#000000;fill-opacity:.021698;fill:#0000d4;opacity:1"/>
		<path id="an" d="m53.85 18.793-39.649 16.22 10.813 3.6044 4.5055 12.615s5.6037-6.533 5.6037-6.533l11.517 8.3352 7.2088-34.242" style="color:#000000;fill-opacity:.022369;fill:#0000d4;opacity:1"/>
		<path id="s" d="m53.519 18.58-39.53 16.171 10.781 3.5936 4.492 12.578s5.587-6.5135 5.587-6.5135l11.483 8.3103 7.1873-34.14" style="color:#000000;fill-opacity:.023017;fill:#0000d4;opacity:1"/>
		<path id="g" d="m53.2 18.375-39.415 16.124 10.75 3.5832 4.479 12.541s5.5708-6.4946 5.5708-6.4946l11.449 8.2862 7.1664-34.04" style="color:#000000;fill-opacity:.023643;fill:#0000d4;opacity:1"/>
		<path id="v" d="m52.889 18.176-39.304 16.079 10.719 3.5731 4.4664 12.506 5.5551-6.4763 11.417 8.2628 7.1462-33.944" style="color:#000000;fill-opacity:.02425;fill:#0000d4;opacity:1"/>
		<path id="t" d="m52.588 17.983-39.196 16.035 10.69 3.5633 4.4541 12.472 5.5398-6.4585 11.386 8.2401 7.1266-33.851" style="color:#000000;fill-opacity:.024839;fill:#0000d4;opacity:1"/>
		<path id="q" d="m52.295 17.795-39.091 15.992 10.661 3.5538 4.4422 12.438s5.525-6.4412 5.525-6.4412l11.355 8.2181 7.1075-33.761" style="color:#000000;fill-opacity:.025412;fill:#0000d4;opacity:1"/>
		<path id="aj" d="m52.01 17.612-38.989 15.95 10.633 3.5445 4.4306 12.406s5.5105-6.4243 5.5105-6.4243l11.326 8.1966 7.0889-33.672" style="color:#000000;fill-opacity:.025971;fill:#0000d4;opacity:1"/>
		<path id="ak" d="m51.732 17.433-38.889 15.909s10.606 3.5354 10.606 3.5354l4.4192 12.374s5.4964-6.4079 5.4964-6.4079l11.297 8.1756 7.0708-33.586" style="color:#000000;fill-opacity:.026515;fill:#0000d4;opacity:1"/>
		<path id="al" d="m51.46 17.259-38.792 15.869 10.58 3.5265 4.4082 12.343s5.4827-6.3919 5.4827-6.3919l11.268 8.1551 7.0531-33.502" style="color:#000000;fill-opacity:.027047;fill:#0000d4;opacity:1"/>
		<path id="am" d="m51.195 17.089-38.697 15.831 10.554 3.5179 4.3974 12.313s5.4692-6.3762 5.4692-6.3762l11.241 8.1351 7.0358-33.42" style="color:#000000;fill-opacity:.027567;fill:#0000d4;opacity:1"/>
		<path id="ah" d="m50.935 16.922-38.604 15.792 10.528 3.5094 4.3868 12.283s5.4561-6.3608 5.4561-6.3608l11.214 8.1156 7.0189-33.34" style="color:#000000;fill-opacity:.028075;fill:#0000d4;opacity:1"/>
		<path id="h" d="m50.68 16.759-38.513 15.755 10.503 3.5011 4.3764 12.254s5.4432-6.3458 5.4432-6.3458l11.187 8.0964 7.0023-33.261" style="color:#000000;fill-opacity:.028573;fill:#0000d4;opacity:1"/>
		<path id="f" d="m50.431 16.599-38.423 15.719 10.479 3.493 4.3663 12.226s5.4305-6.3311 5.4305-6.3311l11.161 8.0776 6.986-33.184" style="color:#000000;fill-opacity:.029061;fill:#0000d4;opacity:1"/>
		<path id="j" d="m50.186 16.442-38.335 15.683 10.455 3.485 4.3563 12.198s5.4182-6.3166 5.4182-6.3166l11.136 8.0592 6.9701-33.108" style="color:#000000;fill-opacity:.02954;fill:#0000d4;opacity:1"/>
		<path id="c" d="m49.946 16.287-38.249 15.647 10.432 3.4772 4.3465 12.17s5.406-6.3025 5.406-6.3025l11.111 8.0411 6.9544-33.034" style="color:#000000;fill-opacity:.030011;fill:#0000d4;opacity:1"/>
		<path id="k" d="m49.71 16.136-38.165 15.613 10.409 3.4695 4.3369 12.143s5.394-6.2885 5.394-6.2885l11.086 8.0233 6.9391-32.961" style="color:#000000;fill-opacity:.030472;fill:#0000d4;opacity:1"/>
		<path id="z" d="m49.478 15.987-38.082 15.579 10.386 3.462 4.3275 12.117s5.3823-6.2748 5.3823-6.2748l11.062 8.0058 6.9239-32.889" style="color:#000000;fill-opacity:.030926;fill:#0000d4;opacity:1"/>
		<path id="u" d="m49.25 15.841-38 15.545 10.364 3.4545 4.3182 12.091s5.3707-6.2614 5.3707-6.2614l11.038 7.9886 6.9091-32.818" style="color:#000000;fill-opacity:.031373;fill:#0000d4;opacity:1"/>
	</g>
	<path id="w" d="m49.25 15.841-38 15.545 10.364 3.4545 4.3182 12.091 5.3707-6.2614 11.038 7.9886z" style="color:#000000;fill:#eff0f4"/>
	<path id="aa" d="m26.795 37.432-0.86363 9.5 5.3707-6.2614z" style="color:#000000;fill:#5f83bd"/>
	<path id="e" d="m21.614 34.841 20.727-12.955-15.545 15.545-0.86363 9.5z" style="color:#000000;fill:url(#b)"/>
</svg>
