<?xml version="1.0" encoding="UTF-8"?>
<svg id="o" width="64" height="64" version="1.1" xmlns="http://www.w3.org/2000/svg" xmlns:cc="http://creativecommons.org/ns#" xmlns:dc="http://purl.org/dc/elements/1.1/" xmlns:rdf="http://www.w3.org/1999/02/22-rdf-syntax-ns#">
	<defs id="bf">
		<radialGradient id="c" cx="34.608" cy="29.589" r="32" gradientTransform="matrix(1.3662 .36608 -1.1814 4.4091 21.517 -116.32)" gradientUnits="userSpaceOnUse">
			<stop id="d" style="stop-color:#88aa36" offset="0"/>
			<stop id="e" style="stop-color:#7faa36;stop-opacity:.5157" offset="1"/>
		</radialGradient>
		<radialGradient id="b" cx="35.853" cy="37.994" r="20.612" gradientTransform="matrix(1.2236 0 0 1.2321 -8.017 -8.793)" gradientUnits="userSpaceOnUse">
			<stop id="af" style="stop-color:#003f2c;stop-opacity:.14272" offset="0"/>
			<stop id="be" style="stop-color:#003f2c;stop-opacity:0" offset="1"/>
		</radialGradient>
	</defs>
	<metadata id="aq">
		<rdf:RDF>
			<cc:Work rdf:about="">
				<dc:format>image/svg+xml</dc:format>
				<dc:type rdf:resource="http://purl.org/dc/dcmitype/StillImage"/>
				<dc:title/>
			</cc:Work>
		</rdf:RDF>
	</metadata>
	<path id="f" d="m0 2v60l2 2h60l2-2v-60z" style="color:#000000;fill:#33ac33"/>
	<path id="g" d="m0 2v60l2 2h60l2-2v-60z" style="color:#000000;fill:url(#c)"/>
	<path id="x" d="m2 0-2 1v1h64v-1l-2-1z" style="color:#000000;fill:#c2ee0f"/>
	<path id="m" d="m64 4-2-2 2-1z" style="fill:#a0c829"/>
	<path id="j" d="m0 1v3l2-2z" style="fill:#d7f55e"/>
	<g id="ab" style="fill:#220055;opacity:.402">
		<path id="ae" d="m48.138 15.642 14.127 8.3502-14.143 8.3502 0.01636-16.7zm-6.0772 4.2933c1.0361 0 2.0494 0.08255 3.0466 0.22099v3.0939c-0.99104-0.16002-2.0075-0.25276-3.0459-0.25276-8.0783 0-14.987 4.9508-17.821 11.996l-2.6203-1.5469c3.4023-7.9301 11.283-13.511 20.441-13.511zm0 7.561c1.0375 0 2.0515 0.12347 3.0308 0.33146v3.1411c-0.9674-0.2564-1.9821-0.39278-3.0313-0.39278-5.3052 0-9.7346 3.5254-11.128 8.366l-2.7149-1.6111c2.0094-5.7135 7.4646-9.834 13.844-9.834zm17.837 1.4048c2.7664 3.7087 4.404 8.3076 4.404 13.275 0 5.0448-1.7003 9.7109-4.5461 13.449l-2.6367-1.5638c2.5803-3.2641 4.1205-7.3864 4.1205-11.885 0-4.4144-1.4851-8.4768-3.9778-11.712zm-6.5823 3.8989c2.1312 2.5492 3.4254 5.8153 3.4254 9.3761 0 3.6414-1.3495 6.9915-3.5674 9.5656l-2.6985-1.5948c1.973-2.073 3.1877-4.8643 3.1877-7.972 0-3.0191-1.1419-5.7538-3.0149-7.8136zm-36.999 1.0256 14.127 8.3502-14.143 8.3502 0.01636-16.7zm14.617 11.586c1.3937 4.8368 5.8231 8.3502 11.128 8.3502 1.0492 0 2.0641-0.14074 3.0308-0.39463v3.157c-0.97831 0.2073-1.9912 0.33095-3.0295 0.33095-6.3841 0-11.839-4.1284-13.843-9.8498zm-6.6929 3.9462c2.834 7.0457 9.7427 11.996 17.821 11.996 1.0291 0 2.0319-0.08165 3.0149-0.23676v3.078c-0.98376 0.13638-1.9894 0.22003-3.0131 0.22003-9.1583 0-17.039-5.58-20.441-13.512zm23.883 2.9202 14.128 8.3344-14.143 8.3502 0.01636-16.685z" style="fill-opacity:.0039216;fill:#220055"/>
		<path id="at" d="m38.308 9.6417 12.428 7.3457-12.442 7.3457 0.01439-14.691zm-5.3461 3.7768c0.91148 0 1.8028 0.07262 2.6801 0.19441v2.7217c-0.87182-0.14077-1.766-0.22235-2.6795-0.22235-7.1066 0-13.184 4.3553-15.677 10.553l-2.3051-1.3608c2.993-6.9762 9.926-11.886 17.982-11.886zm0 6.6514c0.91268 0 1.8048 0.10862 2.6662 0.29159v2.7633c-0.85103-0.22555-1.7436-0.34553-2.6667-0.34553-4.667 0-8.5635 3.1013-9.7897 7.3596l-2.3883-1.4173c1.7676-5.0262 6.5667-8.651 12.178-8.651zm15.691 1.2358c2.4336 3.2625 3.8742 7.3083 3.8742 11.678 0 4.438-1.4957 8.5427-3.9992 11.831l-2.3195-1.3757c2.2699-2.8714 3.6249-6.4979 3.6249-10.455 0-3.8834-1.3065-7.457-3.4993-10.303zm-5.7905 3.4299c1.8748 2.2426 3.0133 5.1158 3.0133 8.2482 0 3.2033-1.1872 6.1504-3.1382 8.4149l-2.3739-1.4029c1.7356-1.8236 2.8042-4.2791 2.8042-7.013 0-2.6559-1.0046-5.0617-2.6523-6.8736zm-32.549 0.90222 12.428 7.3457-12.442 7.3457 0.01439-14.691zm12.858 10.192c1.2261 4.255 5.1226 7.3457 9.7897 7.3457 0.92298 0 1.8158-0.12381 2.6662-0.34716v2.7772c-0.86062 0.18236-1.7516 0.29114-2.6651 0.29114-5.6161 0-10.415-3.6317-12.178-8.665zm-5.8878 3.4715c2.4931 6.1981 8.5707 10.553 15.677 10.553 0.90527 0 1.7875-0.07183 2.6523-0.20828v2.7078c-0.86542 0.11998-1.75 0.19356-2.6507 0.19356-8.0566 0-14.989-4.9088-17.982-11.887zm21.01 2.5689 12.428 7.3318-12.442 7.3457 0.01439-14.678z" style="fill-opacity:.054902;fill:#220055"/>
		<g id="bd" style="fill:#220055">
			<path id="n" d="m48.138 15.642 14.127 8.3502s-14.143 8.3502-14.143 8.3502l0.01636-16.7h-3.58e-4m-6.0772 4.2933c1.0361 0 2.0494 0.08255 3.0466 0.22099v3.0939c-0.99104-0.16002-2.0075-0.25276-3.0459-0.25276-8.0783 0-14.987 4.9508-17.821 11.996l-2.6203-1.5469c3.4023-7.9301 11.283-13.511 20.441-13.511v-7.82e-4m0 7.561c1.0375 0 2.0515 0.12347 3.0308 0.33146v3.1411c-0.9674-0.2564-1.9821-0.39278-3.0313-0.39278-5.3052 0-9.7346 3.5254-11.128 8.366l-2.7149-1.6111c2.0094-5.7135 7.4646-9.834 13.844-9.834l1.82e-4 -6.92e-4m17.837 1.4048c2.7664 3.7087 4.404 8.3076 4.404 13.275 0 5.0448-1.7003 9.7109-4.5461 13.449l-2.6367-1.5638c2.5803-3.2641 4.1205-7.3864 4.1205-11.885 0-4.4144-1.4851-8.4768-3.9778-11.712l2.636-1.5624m-6.5823 3.8989c2.1312 2.5492 3.4254 5.8153 3.4254 9.3761 0 3.6414-1.3495 6.9915-3.5674 9.5656l-2.6985-1.5948c1.973-2.073 3.1877-4.8643 3.1877-7.972 0-3.0191-1.1419-5.7538-3.0149-7.8136l2.6678-1.5615m-36.999 1.0256 14.127 8.3502-14.143 8.3502s0.01636-16.7 0.01636-16.7h-3.58e-4m14.617 11.586c1.3937 4.8368 5.8231 8.3502 11.128 8.3502 1.0492 0 2.0641-0.14074 3.0308-0.39463v3.157c-0.97831 0.2073-1.9912 0.33095-3.0295 0.33095-6.3841 0-11.839-4.1284-13.843-9.8498l2.7136-1.5936m-6.6929 3.9462c2.834 7.0457 9.7427 11.996 17.821 11.996 1.0291 0 2.0319-0.08165 3.0149-0.23676v3.078c-0.98376 0.13638-1.9894 0.22003-3.0131 0.22003-9.1583 0-17.039-5.58-20.441-13.512l2.6178-1.5458m23.883 2.9202 14.128 8.3344-14.143 8.3502 0.01636-16.685-5.42e-4 1.82e-4" style="fill-opacity:.0039216;fill:#220055;opacity:1"/>
			<path id="an" d="m46.373 14.564 13.822 8.1698-13.838 8.1698s0.016006-16.34 0.016006-16.34h-3.4992e-4m-5.9459 4.2005c1.0137 0 2.0051 0.080767 2.9808 0.21622v3.027c-0.96963-0.15656-1.9642-0.2473-2.98-0.2473-7.9038 0-14.663 4.8439-17.436 11.737l-2.5637-1.5135c3.3288-7.7588 11.04-13.219 19.999-13.219v-7.6494e-4m0 7.3976c1.0151 0 2.0072 0.1208 2.9653 0.3243v3.0733c-0.9465-0.25086-1.9393-0.38429-2.9658-0.38429-5.1906 0-9.5242 3.4492-10.888 8.1853l-2.6562-1.5763c1.9659-5.59 7.3033-9.6216 13.545-9.6216l1.7805e-4 -6.7691e-4m17.452 1.3745c2.7066 3.6285 4.3089 8.1281 4.3089 12.988 0 4.9358-1.6635 9.5011-4.4478 13.158l-2.5797-1.5301c2.5246-3.1935 4.0315-7.2268 4.0315-11.628 0-4.319-1.453-8.2936-3.8919-11.459l2.579-1.5286m-6.4401 3.8146c2.0851 2.4942 3.3514 5.6897 3.3514 9.1736 0 3.5627-1.3203 6.8404-3.4903 9.359l-2.6402-1.5603c1.9304-2.0282 3.1188-4.7592 3.1188-7.7997 0-2.9539-1.1173-5.6295-2.9498-7.6448l2.6102-1.5277m-36.2 1.0034 13.822 8.1698-13.838 8.1698s0.016006-16.34 0.016006-16.34h-3.4992e-4m14.301 11.336c1.3636 4.7323 5.6973 8.1698 10.888 8.1698 1.0265 0 2.0195-0.1377 2.9653-0.38611v3.0888c-0.95717 0.20282-1.9482 0.3238-2.964 0.3238-6.2462 0-11.583-4.0392-13.544-9.637l2.655-1.5592m-6.5483 3.8609c2.7728 6.8934 9.5322 11.737 17.436 11.737 1.0068 0 1.988-0.079886 2.9498-0.23164v3.0115c-0.96251 0.13344-1.9464 0.21528-2.948 0.21528-8.9604 0-16.671-5.4594-19.999-13.22l2.5612-1.5124m23.367 2.8571 13.822 8.1543-13.838 8.1698 0.016006-16.324-5.2979e-4 1.7805e-4" style="fill-opacity:.013078;fill:#220055;opacity:1"/>
			<path id="ao" d="m45.641 14.118 13.696 8.0951s-13.711 8.0951-13.711 8.0951l0.01586-16.19h-3.4657e-4m-5.8915 4.1621c1.0045 0 1.9867 0.080028 2.9535 0.21424v2.9993c-0.96076-0.15513-1.9462-0.24504-2.9528-0.24504-7.8315 0-14.529 4.7996-17.277 11.63l-2.5403-1.4997c3.2983-7.6878 10.939-13.098 19.816-13.098v-7.5787e-4m0 7.33c1.0058 0 1.9889 0.1197 2.9382 0.32133v3.0452c-0.93784-0.24856-1.9215-0.38078-2.9387-0.38078-5.1431 0-9.4371 3.4177-10.788 8.1104l-2.6319-1.5619c1.948-5.5389 7.2365-9.5335 13.421-9.5335l1.7641e-4 -6.7066e-4m17.292 1.3619c2.6818 3.5954 4.2695 8.0538 4.2695 12.87 0 4.8907-1.6483 9.4142-4.4072 13.038l-2.5561-1.5161c2.5015-3.1643 3.9946-7.1607 3.9946-11.522 0-4.2795-1.4397-8.2177-3.8563-11.355l2.5554-1.5146m-6.3812 3.7797c2.0661 2.4714 3.3207 5.6376 3.3207 9.0897 0 3.5301-1.3083 6.7778-3.4584 9.2733l-2.6161-1.546c1.9127-2.0097 3.0903-4.7157 3.0903-7.7284 0-2.9269-1.107-5.578-2.9228-7.5748l2.5863-1.5138m-35.869 0.99425 13.696 8.0951-13.711 8.0951 0.01586-16.19h-3.4657e-4m14.17 11.232c1.3512 4.689 5.6452 8.0951 10.788 8.0951 1.0171 0 2.001-0.13644 2.9382-0.38258v3.0605c-0.94842 0.20096-1.9303 0.32084-2.9369 0.32084-6.189 0-11.477-4.0022-13.42-9.5489l2.6307-1.5449m-6.4884 3.8256c2.7474 6.8304 9.445 11.63 17.277 11.63 0.99762 0 1.9698-0.079156 2.9228-0.22952v2.984c-0.95371 0.13222-1.9286 0.21331-2.9211 0.21331-8.8785 0-16.518-5.4095-19.816-13.099l2.5378-1.4986m23.153 2.831s13.696 8.0797 13.696 8.0797l-13.711 8.0951s0.01586-16.175 0.01586-16.175l-5.2473e-4 1.7641e-4" style="fill-opacity:.016871;fill:#220055;opacity:1"/>
			<path id="al" d="m45.08 13.775 13.599 8.0377-13.614 8.0377 0.015747-16.075h-3.44e-4m-5.8497 4.1326c0.99734 0 1.9727 0.079461 2.9326 0.21272v2.9781c-0.95395-0.15403-1.9324-0.2433-2.9319-0.2433-7.776 0-14.426 4.7656-17.154 11.548l-2.5223-1.489c3.2749-7.6334 10.861-13.005 19.676-13.005v-7.5245e-4m0 7.278c0.99866 0 1.9748 0.11885 2.9173 0.31906v3.0236c-0.9312-0.2468-1.9079-0.37808-2.9179-0.37808-5.1067 0-9.3703 3.3934-10.712 8.0529l-2.6133-1.5508c1.9342-5.4997 7.1853-9.466 13.326-9.466l1.7516e-4 -6.6587e-4m17.169 1.3523c2.6628 3.5699 4.2392 7.9968 4.2392 12.778 0 4.8561-1.6367 9.3475-4.3759 12.945l-2.538-1.5053c2.4838-3.1419 3.9663-7.11 3.9663-11.44 0-4.2492-1.4295-8.1595-3.8289-11.274l2.5373-1.5039m-6.336 3.753c2.0514 2.4538 3.2972 5.5977 3.2972 9.0253 0 3.5051-1.299 6.7298-3.4339 9.2077l-2.5976-1.5351c1.8992-1.9954 3.0684-4.6822 3.0684-7.6736 0-2.9061-1.0992-5.5385-2.9021-7.5212l2.568-1.503m-35.615 0.98721s13.599 8.0377 13.599 8.0377l-13.614 8.0377 0.015747-16.075h-3.44e-4m14.07 11.152c1.3416 4.6558 5.6052 8.0377 10.712 8.0377 1.0099 0 1.9868-0.13548 2.9173-0.37987v3.0388c-0.9417 0.19954-1.9167 0.31857-2.9161 0.31857-6.1452 0-11.396-3.9739-13.325-9.4812l2.6121-1.534m-6.4424 3.7985c2.728 6.782 9.3781 11.548 17.154 11.548 0.99055 0 1.9559-0.078595 2.9021-0.2279v2.9629c-0.94695 0.13128-1.9149 0.21179-2.9004 0.21179-8.8156 0-16.401-5.3712-19.676-13.006l2.5198-1.488m22.989 2.8109 13.599 8.0225-13.614 8.0377s0.015747-16.06 0.015747-16.06l-5.2085e-4 1.7516e-4" style="fill-opacity:.019781;fill:#220055;opacity:1"/>
			<path id="am" d="m44.607 13.486s13.517 7.9894 13.517 7.9894l-13.532 7.9894s0.015652-15.979 0.015652-15.979h-3.4184e-4m-5.8146 4.1078c0.99135 0 1.9608 0.078983 2.9149 0.21144v2.9602c-0.94821-0.15311-1.9208-0.24184-2.9142-0.24184-7.7293 0-14.339 4.7369-17.051 11.478l-2.5071-1.4801c3.2553-7.5875 10.796-12.927 19.558-12.927v-7.4788e-4m0 7.2343c0.99265 0 1.9629 0.11814 2.8998 0.31714v3.0054c-0.9256-0.24532-1.8964-0.37581-2.9003-0.37581-5.076 0-9.3139 3.373-10.648 8.0045l-2.5976-1.5415c1.9225-5.4666 7.1421-9.4091 13.245-9.4091l1.741e-4 -6.6183e-4m17.066 1.3441c2.6468 3.5484 4.2137 7.9487 4.2137 12.702 0 4.8269-1.6268 9.2913-4.3496 12.868l-2.5228-1.4963c2.4688-3.123 3.9425-7.0673 3.9425-11.372 0-4.2236-1.4209-8.1105-3.8059-11.206l2.5221-1.4949m-6.2979 3.7304c2.0391 2.4391 3.2773 5.564 3.2773 8.971 0 3.484-1.2912 6.6894-3.4132 9.1523l-2.5819-1.5258c1.8877-1.9834 3.0499-4.6541 3.0499-7.6275 0-2.8887-1.0926-5.5052-2.8847-7.4759l2.5525-1.494m-35.401 0.98127 13.517 7.9894-13.532 7.9894s0.015652-15.979 0.015652-15.979h-3.4184e-4m13.985 11.085c1.3335 4.6278 5.5715 7.9894 10.648 7.9894 1.0039 0 1.9749-0.13466 2.8998-0.37758v3.0205c-0.93604 0.19834-1.9051 0.31665-2.8986 0.31665-6.1082 0-11.328-3.95-13.245-9.4242l2.5964-1.5248m-6.4037 3.7756c2.7115 6.7412 9.3217 11.478 17.051 11.478 0.9846 0 1.9441-0.078123 2.8847-0.22653v2.945c-0.94126 0.13049-1.9034 0.21052-2.8829 0.21052-8.7626 0-16.303-5.3389-19.558-12.928l2.5047-1.479m22.851 2.794s13.517 7.9742 13.517 7.9742-13.532 7.9894-13.532 7.9894 0.015652-15.964 0.015652-15.964l-5.1757e-4 1.741e-4" style="fill-opacity:.022234;fill:#220055;opacity:1"/>
			<path id="aj" d="m44.19 13.232 13.445 7.9468-13.46 7.9468 0.015569-15.894h-3.3993e-4m-5.7836 4.0859c0.98606 0 1.9504 0.078562 2.8994 0.21032v2.9444c-0.94316-0.15229-1.9105-0.24055-2.8987-0.24055-7.6881 0-14.263 4.7117-16.96 11.417l-2.4938-1.4722c3.2379-7.547 10.738-12.858 19.453-12.858v-7.4385e-4m0 7.1957c0.98736 0 1.9524 0.11751 2.8843 0.31545v2.9894c-0.92066-0.24401-1.8863-0.3738-2.8849-0.3738-5.0489 0-9.2643 3.3551-10.591 7.9618l-2.5837-1.5333c1.9123-5.4375 7.104-9.3589 13.175-9.3589l1.7316e-4 -6.5826e-4m16.975 1.337c2.6327 3.5295 4.1913 7.9063 4.1913 12.634 0 4.8011-1.6181 9.2418-4.3264 12.799l-2.5093-1.4883c2.4557-3.1064 3.9215-7.0296 3.9215-11.311 0-4.2011-1.4134-8.0672-3.7856-11.147l2.5086-1.4869m-6.2643 3.7105c2.0282 2.4261 3.2599 5.5344 3.2599 8.9232 0 3.4655-1.2843 6.6537-3.395 9.1035l-2.5682-1.5177c1.8777-1.9729 3.0337-4.6293 3.0337-7.5868 0-2.8733-1.0868-5.4759-2.8693-7.4361l2.5389-1.486m-35.212 0.97604s13.445 7.9468 13.445 7.9468l-13.46 7.9468 0.015569-15.894h-3.3993e-4m13.911 11.026c1.3264 4.6031 5.5418 7.9468 10.591 7.9468 0.99851 0 1.9644-0.13395 2.8843-0.37557v3.0044c-0.93105 0.19728-1.895 0.31496-2.8831 0.31496-6.0757 0-11.267-3.9289-13.174-9.374l2.5825-1.5166m-6.3695 3.7555c2.6971 6.7053 9.272 11.417 16.96 11.417 0.97935 0 1.9337-0.077706 2.8693-0.22532v2.9293c-0.93624 0.12979-1.8932 0.2094-2.8676 0.2094-8.7158 0-16.216-5.3104-19.453-12.859l2.4913-1.4712m22.729 2.7791s13.445 7.9317 13.445 7.9317l-13.46 7.9468 0.015569-15.879-5.1469e-4 1.7316e-4" style="fill-opacity:.024396;fill:#220055;opacity:1"/>
			<path id="i" d="m43.814 13.002s13.38 7.9083 13.38 7.9083-13.395 7.9083-13.395 7.9083l0.015493-15.817h-3.382e-4m-5.7555 4.0661c0.98128 0 1.9409 0.078181 2.8853 0.2093v2.9301c-0.93859-0.15155-1.9013-0.23938-2.8847-0.23938-7.6508 0-14.194 4.6888-16.878 11.362l-2.4817-1.4651c3.2222-7.5105 10.686-12.796 19.359-12.796v-7.4021e-4m0 7.1608c0.98258 0 1.943 0.11694 2.8704 0.31392v2.9749c-0.9162-0.24283-1.8772-0.37199-2.8709-0.37199-5.0245 0-9.2194 3.3388-10.539 7.9233l-2.5712-1.5259c1.903-5.4111 7.0696-9.3136 13.111-9.3136l1.7232e-4 -6.5504e-4m16.893 1.3305c2.62 3.5124 4.171 7.868 4.171 12.573 0 4.7779-1.6103 9.197-4.3055 12.737l-2.4972-1.4811c2.4438-3.0913 3.9025-6.9955 3.9025-11.256 0-4.1808-1.4065-8.0281-3.7673-11.093l2.4965-1.4797m-6.234 3.6925c2.0184 2.4143 3.2441 5.5075 3.2441 8.8799 0 3.4487-1.2781 6.6215-3.3786 9.0594l-2.5557-1.5104c1.8686-1.9633 3.019-4.6068 3.019-7.5501 0-2.8593-1.0815-5.4493-2.8554-7.4001l2.5266-1.4788m-35.041 0.97131 13.38 7.9083s-13.395 7.9083-13.395 7.9083l0.015493-15.817h-3.382e-4m13.843 10.973c1.32 4.5808 5.515 7.9083 10.539 7.9083 0.99367 0 1.9549-0.1333 2.8704-0.37375v2.9899c-0.92654 0.19633-1.8858 0.31344-2.8692 0.31344-6.0462 0-11.213-3.9099-13.111-9.3286l2.57-1.5093m-6.3387 3.7373c2.684 6.6728 9.2271 11.362 16.878 11.362 0.9746 0 1.9244-0.07733 2.8554-0.22423v2.9151c-0.9317 0.12916-1.8841 0.20838-2.8537 0.20838-8.6736 0-16.137-5.2847-19.359-12.797l2.4793-1.464m22.619 2.7657 13.38 7.8933s-13.395 7.9083-13.395 7.9083 0.015493-15.802 0.015493-15.802l-5.1208e-4 1.7232e-4" style="fill-opacity:.02635;fill:#220055;opacity:1"/>
			<path id="h" d="m43.467 12.791s13.32 7.8729 13.32 7.8729l-13.335 7.8729 0.015424-15.746h-3.3662e-4m-5.7298 4.0479c0.97689 0 1.9322 0.077831 2.8724 0.20836v2.917c-0.93439-0.15087-1.8928-0.23831-2.8717-0.23831-7.6166 0-14.13 4.6678-16.803 11.311l-2.4706-1.4585c3.2078-7.4768 10.638-12.739 19.272-12.739v-7.3686e-4m0 7.1288c0.97818 0 1.9343 0.11641 2.8575 0.31251v2.9616c-0.9121-0.24174-1.8688-0.37033-2.858-0.37033-5.002 0-9.1781 3.3239-10.492 7.8878l-2.5597-1.519c1.8945-5.3869 7.0379-9.2719 13.052-9.2719 0 0 1.7155e-4 -6.5208e-4 1.7155e-4 -6.5208e-4m16.817 1.3245c2.6082 3.4967 4.1523 7.8327 4.1523 12.516 0 4.7565-1.6031 9.1558-4.2862 12.68l-2.486-1.4744c2.4328-3.0775 3.885-6.9642 3.885-11.206 0-4.1621-1.4002-7.9922-3.7504-11.043l2.4853-1.4731m-6.2061 3.676c2.0094 2.4035 3.2296 5.4829 3.2296 8.8402 0 3.4332-1.2724 6.5918-3.3635 9.0188l-2.5443-1.5036c1.8602-1.9545 3.0055-4.5862 3.0055-7.5163 0-2.8465-1.0767-5.4249-2.8426-7.3669l2.5153-1.4722m-34.884 0.96696 13.32 7.8729-13.335 7.8729 0.015424-15.746h-3.3662e-4m13.781 10.924c1.3141 4.5603 5.4903 7.8729 10.492 7.8729 0.98922 0 1.9461-0.1327 2.8575-0.37207v2.9765c-0.92239 0.19545-1.8774 0.31203-2.8563 0.31203-6.0192 0-11.162-3.8924-13.052-9.2868l2.5585-1.5025m-6.3103 3.7206c2.672 6.6429 9.1858 11.311 16.803 11.311 0.97024 0 1.9158-0.076984 2.8426-0.22322v2.9021c-0.92753 0.12859-1.8756 0.20745-2.8409 0.20745-8.6348 0-16.065-5.261-19.272-12.74l2.4682-1.4575m22.518 2.7533 13.32 7.858-13.335 7.8729 0.015424-15.731-5.0969e-4 1.7155e-4" style="fill-opacity:.028147;fill:#220055;opacity:1"/>
			<path id="k" d="m43.145 12.594s13.264 7.8399 13.264 7.8399l-13.279 7.8399 0.015359-15.68h-3.3514e-4m-5.7058 4.0309c0.9728 0 1.9241 0.077506 2.8604 0.20749v2.9048c-0.93048-0.15024-1.8849-0.23731-2.8597-0.23731-7.5847 0-14.071 4.6483-16.732 11.263l-2.4602-1.4524c3.1944-7.4455 10.594-12.685 19.192-12.685v-7.3374e-4m0 7.0989c0.97408 0 1.9262 0.11593 2.8456 0.31121v2.9492c-0.90828-0.24073-1.861-0.36878-2.8461-0.36878-4.981 0-9.1397 3.3099-10.448 7.8548l-2.549-1.5127c1.8866-5.3643 7.0085-9.2331 12.998-9.2331l1.7082e-4 -6.4933e-4m16.747 1.319c2.5973 3.482 4.1349 7.8 4.1349 12.464 0 4.7366-1.5964 9.1175-4.2682 12.627l-2.4756-1.4683c2.4227-3.0646 3.8687-6.935 3.8687-11.159 0-4.1446-1.3944-7.9587-3.7347-10.997l2.4749-1.4669m-6.1801 3.6606c2.001 2.3935 3.216 5.4599 3.216 8.8032 0 3.4189-1.267 6.5642-3.3494 8.9811l-2.5336-1.4973c1.8524-1.9463 2.9929-4.567 2.9929-7.4848 0-2.8346-1.0721-5.4022-2.8307-7.3361l2.5048-1.4661m-34.738 0.96292s13.264 7.8399 13.264 7.8399l-13.279 7.8399s0.015359-15.68 0.015359-15.68h-3.3514e-4m13.724 10.878c1.3086 4.5412 5.4673 7.8399 10.448 7.8399 0.98508 0 1.938-0.13214 2.8456-0.37052v2.964c-0.91853 0.19463-1.8695 0.31073-2.8444 0.31073-5.994 0-11.116-3.8761-12.997-9.2479l2.5478-1.4962m-6.2839 3.705c2.6608 6.6151 9.1474 11.263 16.732 11.263 0.96618 0 1.9077-0.076661 2.8307-0.22229v2.8899c-0.92365 0.12805-1.8678 0.20658-2.829 0.20658-8.5986 0-15.998-5.239-19.192-12.686l2.4578-1.4514m22.424 2.7417 13.264 7.8251-13.279 7.8399s0.015359-15.665 0.015359-15.665l-5.0746e-4 1.7082e-4" style="fill-opacity:.02982;fill:#220055;opacity:1"/>
			<path id="ap" d="m42.842 12.409s13.212 7.809 13.212 7.809l-13.227 7.809s0.015299-15.618 0.015299-15.618h-3.3375e-4m-5.6833 4.015c0.96896 0 1.9165 0.0772 2.8491 0.20667v2.8933c-0.9268-0.14965-1.8774-0.23638-2.8484-0.23638-7.5547 0-14.016 4.6299-16.666 11.219l-2.4505-1.4467c3.1817-7.4161 10.552-12.635 19.116-12.635v-7.3081e-4m0 7.0709c0.97024 0 1.9186 0.11547 2.8343 0.30998v2.9375c-0.9047-0.23978-1.8536-0.36732-2.8348-0.36732-4.9614 0-9.1036 3.2969-10.407 7.8237l-2.5389-1.5067c1.8791-5.3432 6.9808-9.1966 12.946-9.1966l1.7015e-4 -6.4674e-4m16.681 1.3138c2.5871 3.4683 4.1186 7.7692 4.1186 12.415 0 4.7179-1.5901 9.0815-4.2514 12.577l-2.4658-1.4625c2.4131-3.0525 3.8535-6.9077 3.8535-11.115 0-4.1283-1.3888-7.9273-3.72-10.953l2.4651-1.4611m-6.1557 3.6462c1.9931 2.384 3.2033 5.4384 3.2033 8.7684 0 3.4054-1.262 6.5383-3.3362 8.9456l-2.5236-1.4914c1.8451-1.9386 2.9811-4.549 2.9811-7.4552 0-2.8234-1.0679-5.3809-2.8195-7.3071l2.4949-1.4603m-34.601 0.95911 13.212 7.809-13.227 7.809 0.015299-15.618h-3.3375e-4m13.669 10.835c1.3034 4.5233 5.4457 7.809 10.407 7.809 0.98119 0 1.9303-0.13162 2.8343-0.36905v2.9523c-0.9149 0.19386-1.8621 0.3095-2.8331 0.3095-5.9703 0-11.072-3.8608-12.946-9.2114l2.5377-1.4903m-6.2591 3.6904c2.6503 6.589 9.1112 11.219 16.666 11.219 0.96236 0 1.9002-0.076359 2.8195-0.22141v2.8785c-0.92 0.12754-1.8604 0.20577-2.8178 0.20577-8.5647 0-15.935-5.2183-19.116-12.636l2.4481-1.4456m22.335 2.7309 13.212 7.7942-13.227 7.809s0.015299-15.603 0.015299-15.603l-5.0536e-4 1.7015e-4" style="fill-opacity:.031391;fill:#220055;opacity:1"/>
			<path id="r" d="m42.555 12.234 13.162 7.7797-13.177 7.7797 0.015241-15.559h-3.3244e-4m-5.662 4c0.96533 0 1.9093 0.07691 2.8384 0.20589v2.8825c-0.92333-0.14909-1.8704-0.23549-2.8378-0.23549-7.5264 0-13.963 4.6126-16.604 11.177l-2.4413-1.4412c3.1698-7.3883 10.512-12.588 19.044-12.588v-7.2804e-4m0 7.0444c0.9666 0 1.9114 0.11504 2.8237 0.30882v2.9265c-0.9013-0.23888-1.8467-0.36594-2.8242-0.36594-4.9428 0-9.0695 3.2845-10.368 7.7944l-2.5294-1.501c1.8721-5.3231 6.9546-9.1621 12.898-9.1621l1.695e-4 -6.4429e-4m16.618 1.3089c2.5774 3.4553 4.1031 7.74 4.1031 12.368 0 4.7002-1.5841 9.0474-4.2355 12.53l-2.4566-1.457c2.404-3.0411 3.839-6.8818 3.839-11.073 0-4.1128-1.3836-7.8976-3.706-10.912l2.4559-1.4556m-6.1326 3.6325c1.9856 2.3751 3.1913 5.418 3.1913 8.7355 0 3.3926-1.2573 6.5138-3.3236 8.9121l-2.5142-1.4858c1.8382-1.9314 2.9699-4.5319 2.9699-7.4273 0-2.8128-1.0639-5.3607-2.809-7.2797l2.4855-1.4548m-34.472 0.95552 13.162 7.7797-13.177 7.7797 0.015241-15.559h-3.3244e-4m13.618 10.794c1.2985 4.5064 5.4253 7.7797 10.368 7.7797 0.97751 0 1.9231-0.13113 2.8237-0.36767v2.9413c-0.91147 0.19314-1.8551 0.30834-2.8225 0.30834-5.9479 0-11.03-3.8463-12.897-9.1769l2.5282-1.4847m-6.2356 3.6765c2.6404 6.5643 9.0771 11.177 16.604 11.177 0.95875 0 1.8931-0.076073 2.809-0.22058v2.8677c-0.91655 0.12706-1.8534 0.205-2.8073 0.205-8.5326 0-15.875-5.1988-19.044-12.589l2.4389-1.4402m22.251 2.7207 13.162 7.7649s-13.177 7.7797-13.177 7.7797l0.015241-15.545-5.0338e-4 1.695e-4" style="fill-opacity:.032876;fill:#220055;opacity:1"/>
			<path id="ai" d="m42.283 12.068 13.115 7.7518s-13.13 7.7518-13.13 7.7518l0.015187-15.504h-3.3119e-4m-5.6417 3.9856c0.96187 0 1.9025 0.076635 2.8283 0.20516v2.8722c-0.92002-0.14855-1.8637-0.23465-2.8276-0.23465-7.4995 0-13.913 4.5961-16.544 11.137l-2.4326-1.4361c3.1585-7.3619 10.475-12.543 18.976-12.543v-7.2541e-4m0 7.0192c0.96314 0 1.9045 0.11462 2.8136 0.30771v2.9161c-0.89808-0.23802-1.84-0.36463-2.8141-0.36463-4.9251 0-9.037 3.2728-10.331 7.7665l-2.5204-1.4957c1.8654-5.3041 6.9297-9.1293 12.852-9.1293l1.689e-4 -6.4196e-4m16.559 1.3042c2.5681 3.4429 4.0885 7.7123 4.0885 12.324 0 4.6833-1.5784 9.0151-4.2203 12.485l-2.4478-1.4518c2.3954-3.0302 3.8253-6.8571 3.8253-11.034 0-4.0981-1.3787-7.8693-3.6928-10.873l2.4471-1.4504m-6.1106 3.6195c1.9785 2.3666 3.1799 5.3986 3.1799 8.7043 0 3.3805-1.2528 6.4905-3.3117 8.8802l-2.5052-1.4805c1.8316-1.9245 2.9593-4.5157 2.9593-7.4007 0-2.8028-1.0601-5.3415-2.7989-7.2537l2.4766-1.4496m-34.348 0.9521 13.115 7.7518-13.13 7.7518 0.015187-15.504h-3.3119e-4m13.569 10.756c1.2939 4.4902 5.4059 7.7518 10.331 7.7518 0.97401 0 1.9162-0.13066 2.8136-0.36635v2.9307c-0.90821 0.19244-1.8485 0.30724-2.8124 0.30724-5.9266 0-10.991-3.8325-12.851-9.144l2.5192-1.4794m-6.2133 3.6634c2.6309 6.5408 9.0446 11.137 16.544 11.137 0.95532 0 1.8863-0.0758 2.7989-0.21979v2.8575c-0.91327 0.12661-1.8468 0.20426-2.7972 0.20426-8.502 0-15.818-5.1802-18.976-12.544l2.4302-1.4351m22.172 2.7109s13.115 7.7371 13.115 7.7371l-13.13 7.7518 0.015187-15.489-5.0149e-4 1.689e-4" style="fill-opacity:.03429;fill:#220055;opacity:1"/>
			<path id="ag" d="m42.022 11.909s13.07 7.7252 13.07 7.7252l-13.085 7.7252 0.015134-15.45h-3.3e-4m-5.6223 3.972c0.95857 0 1.896 0.076372 2.8186 0.20445v2.8623c-0.91687-0.14804-1.8573-0.23384-2.8179-0.23384-7.4737 0-13.865 4.5803-16.487 11.099l-2.4242-1.4312c3.1476-7.3366 10.439-12.5 18.911-12.5v-7.2289e-4m0 6.9951c0.95983 0 1.898 0.11423 2.8039 0.30665v2.906c-0.895-0.23721-1.8337-0.36338-2.8044-0.36338-4.9082 0-9.006 3.2615-10.295 7.7399l-2.5117-1.4905c1.859-5.2859 6.9059-9.098 12.808-9.098l1.6831e-4 -6.3974e-4m16.502 1.2997c2.5593 3.4311 4.0744 7.6859 4.0744 12.282 0 4.6673-1.573 8.9841-4.2058 12.442l-2.4394-1.4468c2.3872-3.0198 3.8121-6.8336 3.8121-10.996 0-4.084-1.374-7.8423-3.6801-10.836l2.4387-1.4455m-6.0897 3.6071c1.9717 2.3584 3.169 5.3801 3.169 8.6744 0 3.3689-1.2485 6.4682-3.3004 8.8497l-2.4966-1.4754c1.8253-1.9178 2.9491-4.5002 2.9491-7.3753 0-2.7932-1.0565-5.3232-2.7893-7.2288l2.4681-1.4446m-34.23 0.94883 13.07 7.7252-13.085 7.7252s0.015134-15.45 0.015134-15.45h-3.3e-4m13.523 10.719c1.2894 4.4748 5.3873 7.7252 10.295 7.7252 0.97067 0 1.9096-0.13021 2.8039-0.3651v2.9207c-0.90509 0.19178-1.8421 0.30618-2.8028 0.30618-5.9063 0-10.953-3.8194-12.807-9.1126l2.5105-1.4744m-6.192 3.6508c2.6219 6.5183 9.0135 11.099 16.487 11.099 0.95204 0 1.8798-0.07554 2.7893-0.21904v2.8477c-0.91014 0.12618-1.8405 0.20356-2.7876 0.20356-8.4729 0-15.764-5.1624-18.911-12.501l2.4219-1.4301m22.096 2.7016 13.07 7.7106-13.085 7.7252 0.015134-15.436-4.9969e-4 1.6831e-4" style="fill-opacity:.03564;fill:#220055;opacity:1"/>
			<path id="ak" d="m41.773 11.756 13.027 7.6997s-13.042 7.6997-13.042 7.6997l0.015084-15.399h-3.2886e-4m-5.6038 3.9588c0.9554 0 1.8897 0.07612 2.8093 0.20378v2.8528c-0.91384-0.14756-1.8511-0.23307-2.8086-0.23307-7.449 0-13.82 4.5652-16.433 11.062l-2.4162-1.4264c3.1372-7.3124 10.404-12.458 18.849-12.458v-7.2048e-4m0 6.972c0.95666 0 1.8917 0.11385 2.7947 0.30564v2.8964c-0.89204-0.23642-1.8277-0.36218-2.7952-0.36218-4.892 0-8.9762 3.2507-10.261 7.7143l-2.5034-1.4856c1.8528-5.2684 6.8831-9.0679 12.765-9.0679l1.6775e-4 -6.376e-4m16.447 1.2954c2.5509 3.4198 4.061 7.6605 4.061 12.241 0 4.6518-1.5678 8.9544-4.1919 12.401l-2.4313-1.442c2.3793-3.0098 3.7996-6.811 3.7996-10.959 0-4.0705-1.3694-7.8164-3.6679-10.8l2.4306-1.4407m-6.0696 3.5952c1.9652 2.3507 3.1585 5.3623 3.1585 8.6457 0 3.3577-1.2444 6.4468-3.2895 8.8205l-2.4883-1.4705c1.8193-1.9115 2.9394-4.4853 2.9394-7.3509 0-2.7839-1.053-5.3056-2.7801-7.2049l2.46-1.4398m-34.117 0.9457 13.027 7.6997-13.042 7.6997s0.015084-15.399 0.015084-15.399h-3.2886e-4m13.478 10.684c1.2852 4.46 5.3695 7.6997 10.261 7.6997 0.96746 0 1.9033-0.12978 2.7947-0.36389v2.911c-0.9021 0.19115-1.8361 0.30517-2.7935 0.30517-5.8868 0-10.917-3.8068-12.765-9.0825l2.5022-1.4695m-6.1715 3.6387c2.6132 6.4968 8.9838 11.062 16.433 11.062 0.9489 0 1.8736-0.075291 2.7801-0.21831v2.8383c-0.90713 0.12576-1.8344 0.20289-2.7784 0.20289-8.4449 0-15.712-5.1453-18.849-12.459l2.4139-1.4254m22.023 2.6927 13.027 7.6851s-13.042 7.6997-13.042 7.6997 0.015084-15.385 0.015084-15.385l-4.9796e-4 1.6775e-4" style="fill-opacity:.036935;fill:#220055;opacity:1"/>
			<path id="p" d="m41.532 11.61 12.985 7.6752-13 7.6752s0.015036-15.35 0.015036-15.35h-3.2776e-4m-5.5859 3.9462c0.95236 0 1.8837 0.075877 2.8003 0.20313v2.8438c-0.91092-0.14708-1.8452-0.23233-2.7996-0.23233-7.4253 0-13.775 4.5506-16.381 11.027l-2.4085-1.4219c3.1272-7.2891 10.371-12.419 18.788-12.419v-7.1816e-4m0 6.9498c0.95361 0 1.8857 0.11349 2.7858 0.30467v2.8872c-0.88919-0.23567-1.8218-0.36103-2.7863-0.36103-4.8764 0-8.9476 3.2404-10.229 7.6897l-2.4954-1.4809c1.8469-5.2516 6.8612-9.039 12.725-9.039l1.6722e-4 -6.3555e-4m16.395 1.2913c2.5427 3.4089 4.048 7.636 4.048 12.202 0 4.637-1.5628 8.9259-4.1785 12.361l-2.4236-1.4374c2.3717-3.0002 3.7874-6.7893 3.7874-10.924 0-4.0575-1.365-7.7915-3.6562-10.766l2.4229-1.4361m-6.0502 3.5837c1.9589 2.3432 3.1485 5.3452 3.1485 8.6182 0 3.347-1.2404 6.4263-3.279 8.7923l-2.4804-1.4658c1.8135-1.9054 2.93-4.471 2.93-7.3275 0-2.7751-1.0496-5.2887-2.7712-7.1819l2.4521-1.4352m-34.008 0.94268s12.985 7.6752 12.985 7.6752l-13 7.6752 0.015036-15.35h-3.2776e-4m13.435 10.649c1.2811 4.4458 5.3524 7.6752 10.229 7.6752 0.96438 0 1.8972-0.12937 2.7858-0.36273v2.9017c-0.89922 0.19054-1.8302 0.3042-2.7846 0.3042-5.868 0-10.882-3.7946-12.724-9.0536l2.4943-1.4648m-6.1518 3.6271c2.6049 6.4761 8.9551 11.027 16.381 11.027 0.94587 0 1.8676-0.075051 2.7712-0.21762v2.8292c-0.90424 0.12536-1.8285 0.20224-2.7695 0.20224-8.4179 0-15.662-5.1289-18.788-12.42l2.4062-1.4209m21.952 2.6841 12.985 7.6606-13 7.6752 0.015036-15.336-4.963e-4 1.6722e-4" style="fill-opacity:.038181;fill:#220055;opacity:1"/>
			<path id="bb" d="m41.3 11.468 12.945 7.6515-12.96 7.6515 0.01499-15.303h-3.267e-4m-5.5686 3.934c0.94942 0 1.8779 0.075643 2.7916 0.2025v2.835c-0.90811-0.14663-1.8395-0.23161-2.791-0.23161-7.4024 0-13.733 4.5366-16.33 10.993l-2.4011-1.4175c3.1176-7.2666 10.339-12.38 18.73-12.38v-7.1592e-4m0 6.9283c0.95067 0 1.8799 0.11314 2.7772 0.30373v2.8783c-0.88645-0.23494-1.8162-0.35991-2.7777-0.35991-4.8613 0-8.92 3.2304-10.197 7.666l-2.4877-1.4763c1.8412-5.2354 6.84-9.0111 12.685-9.0111l1.667e-4 -6.3357e-4m16.344 1.2873c2.5349 3.3983 4.0355 7.6125 4.0355 12.164 0 4.6227-1.558 8.8983-4.1656 12.323l-2.4161-1.433c2.3644-2.9909 3.7757-6.7683 3.7757-10.891 0-4.045-1.3608-7.7674-3.6449-10.732l2.4154-1.4317m-6.0315 3.5726c1.9529 2.3359 3.1387 5.3287 3.1387 8.5916 0 3.3367-1.2366 6.4064-3.2689 8.7652l-2.4727-1.4613c1.8079-1.8995 2.921-4.4572 2.921-7.3049 0-2.7665-1.0464-5.2724-2.7627-7.1597l2.4446-1.4308m-33.903 0.93977 12.945 7.6515-12.96 7.6515 0.01499-15.303h-3.267e-4m13.394 10.617c1.2771 4.4321 5.3359 7.6515 10.197 7.6515 0.9614 0 1.8914-0.12897 2.7772-0.36161v2.8928c-0.89645 0.18995-1.8246 0.30326-2.776 0.30326-5.8499 0-10.849-3.7829-12.685-9.0256l2.4866-1.4603m-6.1328 3.6159c2.5969 6.4561 8.9275 10.993 16.33 10.993 0.94295 0 1.8619-0.074819 2.7627-0.21695v2.8205c-0.90145 0.12497-1.8229 0.20162-2.761 0.20162-8.3919 0-15.613-5.1131-18.73-12.381l2.3987-1.4165m21.885 2.6758 12.945 7.637-12.96 7.6515 0.01499-15.289-4.947e-4 1.667e-4" style="fill-opacity:.039384;fill:#220055;opacity:1"/>
			<path id="aw" d="m41.076 11.331 12.906 7.6285-12.921 7.6285s0.014945-15.257 0.014945-15.257h-3.2567e-4m-5.552 3.9223c0.94657 0 1.8722 0.075416 2.7833 0.20189v2.8265c-0.90539-0.14619-1.834-0.23092-2.7826-0.23092-7.3802 0-13.692 4.523-16.281 10.96l-2.3939-1.4132c3.1082-7.2448 10.308-12.343 18.674-12.343v-7.1375e-4m0 6.9076c0.94782 0 1.8742 0.1128 2.7688 0.30282v2.8697c-0.88379-0.23424-1.8108-0.35883-2.7693-0.35883-4.8467 0-8.8933 3.2207-10.167 7.643l-2.4803-1.4719c1.8357-5.2197 6.8195-8.9841 12.647-8.9841l1.6619e-4 -6.3165e-4m16.295 1.2834c2.5273 3.3882 4.0234 7.5897 4.0234 12.128 0 4.6089-1.5533 8.8717-4.1532 12.286l-2.4088-1.4287c2.3573-2.982 3.7644-6.7481 3.7644-10.858 0-4.0329-1.3568-7.7442-3.634-10.7l2.4082-1.4274m-6.0135 3.5619c1.947 2.3289 3.1293 5.3127 3.1293 8.5658 0 3.3267-1.2329 6.3872-3.2591 8.7389l-2.4653-1.4569c1.8025-1.8938 2.9122-4.4439 2.9122-7.283 0-2.7582-1.0432-5.2566-2.7544-7.1383l2.4372-1.4265m-33.802 0.93696 12.906 7.6285-12.921 7.6285 0.014945-15.257h-3.2567e-4m13.354 10.585c1.2733 4.4188 5.3199 7.6285 10.167 7.6285 0.95852 0 1.8857-0.12858 2.7688-0.36053v2.8841c-0.89376 0.18938-1.8191 0.30235-2.7677 0.30235-5.8324 0-10.816-3.7716-12.647-8.9986l2.4791-1.4559m-6.1145 3.6051c2.5891 6.4368 8.9007 10.96 16.281 10.96 0.94013 0 1.8563-0.074595 2.7544-0.2163v2.812c-0.89875 0.1246-1.8174 0.20101-2.7527 0.20101-8.3668 0-15.566-5.0978-18.674-12.344l2.3916-1.4122m21.819 2.6678 12.907 7.6141-12.921 7.6285s0.014945-15.243 0.014945-15.243l-4.9315e-4 1.6619e-4" style="fill-opacity:.040547;fill:#220055;opacity:1"/>
			<path id="l" d="m40.859 11.199s12.869 7.6063 12.869 7.6063l-12.883 7.6063s0.014901-15.213 0.014901-15.213h-3.2468e-4m-5.5358 3.9108c0.94382 0 1.8668 0.075197 2.7752 0.20131v2.8183c-0.90276-0.14577-1.8287-0.23024-2.7745-0.23024-7.3587 0-13.652 4.5098-16.234 10.928l-2.3869-1.4091c3.0992-7.2237 10.278-12.307 18.62-12.307v-7.1165e-4m0 6.8874c0.94506 0 1.8688 0.11247 2.7608 0.30193v2.8613c-0.88122-0.23356-1.8055-0.35779-2.7613-0.35779-4.8326 0-8.8674 3.2113-10.137 7.6207l-2.4731-1.4676c1.8304-5.2045 6.7997-8.958 12.61-8.958l1.6571e-4 -6.298e-4m16.248 1.2797c2.5199 3.3783 4.0117 7.5676 4.0117 12.093 0 4.5954-1.5488 8.8458-4.1411 12.251l-2.4018-1.4245c2.3505-2.9733 3.7535-6.7284 3.7535-10.826 0-4.0212-1.3528-7.7216-3.6234-10.669l2.4012-1.4232m-5.996 3.5516c1.9413 2.3222 3.1202 5.2973 3.1202 8.5409 0 3.317-1.2293 6.3686-3.2496 8.7135l-2.4581-1.4527c1.7972-1.8883 2.9037-4.431 2.9037-7.2618 0-2.7502-1.0402-5.2413-2.7464-7.1175l2.4302-1.4224m-33.703 0.93423 12.869 7.6063-12.883 7.6063 0.014901-15.213h-3.2468e-4m13.315 10.554c1.2696 4.4059 5.3044 7.6063 10.137 7.6063 0.95573 0 1.8802-0.12821 2.7608-0.35948v2.8757c-0.89116 0.18883-1.8138 0.30147-2.7596 0.30147-5.8154 0-10.785-3.7606-12.61-8.9724l2.4719-1.4517m-6.0967 3.5946c2.5815 6.418 8.8748 10.928 16.234 10.928 0.93739 0 1.8509-0.074378 2.7464-0.21567v2.8038c-0.89613 0.12423-1.8121 0.20043-2.7447 0.20043-8.3425 0-15.521-5.0829-18.62-12.308l2.3846-1.4081m21.756 2.6601 12.869 7.5919-12.883 7.6063 0.014901-15.198-4.9164e-4 1.6571e-4" style="fill-opacity:.041674;fill:#220055;opacity:1"/>
			<path id="q" d="m40.648 11.07 12.832 7.5848-12.847 7.5848 0.014859-15.17h-3.2371e-4m-5.5201 3.8997c0.94114 0 1.8615 0.074983 2.7673 0.20074v2.8103c-0.9002-0.14535-1.8235-0.22959-2.7667-0.22959-7.3378 0-13.613 4.497-16.188 10.897l-2.3802-1.4051c3.0904-7.2032 10.249-12.272 18.567-12.272v-7.0961e-4m0 6.8679c0.94238 0 1.8635 0.11215 2.7529 0.30108v2.8532c-0.87872-0.23289-1.8004-0.35677-2.7534-0.35677-4.8189 0-8.8422 3.2022-10.108 7.5991l-2.466-1.4634c1.8252-5.1898 6.7804-8.9326 12.575-8.9326l1.6524e-4 -6.2799e-4m16.202 1.2761c2.5128 3.3687 4.0003 7.5461 4.0003 12.058 0 4.5824-1.5444 8.8208-4.1293 12.216l-2.395-1.4205c2.3438-2.9649 3.7428-6.7093 3.7428-10.796 0-4.0098-1.349-7.6997-3.6132-10.639l2.3944-1.4192m-5.979 3.5415c1.9358 2.3156 3.1114 5.2822 3.1114 8.5167 0 3.3076-1.2258 6.3506-3.2404 8.6888l-2.4512-1.4486c1.7921-1.883 2.8955-4.4184 2.8955-7.2412 0-2.7424-1.0373-5.2264-2.7386-7.0973l2.4233-1.4183m-33.608 0.93158 12.832 7.5848-12.847 7.5848 0.014859-15.17h-3.2371e-4m13.277 10.524c1.266 4.3935 5.2894 7.5848 10.108 7.5848 0.95302 0 1.8749-0.12784 2.7529-0.35846v2.8676c-0.88863 0.1883-1.8087 0.30062-2.7518 0.30062-5.7989 0-10.754-3.7499-12.574-8.947l2.4649-1.4475m-6.0794 3.5844c2.5742 6.3998 8.8497 10.897 16.188 10.897 0.93473 0 1.8457-0.074167 2.7386-0.21506v2.7959c-0.89359 0.12388-1.807 0.19986-2.7369 0.19986-8.3188 0-15.477-5.0685-18.567-12.273l2.3778-1.4041m21.694 2.6525 12.832 7.5704-12.847 7.5848 0.014859-15.155-4.9018e-4 1.6524e-4" style="fill-opacity:.042769;fill:#220055;opacity:1"/>
			<path id="v" d="m40.443 10.944s12.797 7.5638 12.797 7.5638l-12.811 7.5638 0.014818-15.128h-3.2277e-4m-5.5048 3.889c0.93854 0 1.8564 0.074776 2.7597 0.20018v2.8025c-0.89771-0.14495-1.8185-0.22896-2.759-0.22896-7.3175 0-13.576 4.4846-16.143 10.867l-2.3736-1.4012c3.0819-7.1833 10.221-12.238 18.516-12.238v-7.0763e-4m0 6.8489c0.93978 0 1.8583 0.11184 2.7453 0.30025v2.8453c-0.87629-0.23225-1.7954-0.35579-2.7458-0.35579-4.8056 0-8.8178 3.1934-10.08 7.5781l-2.4592-1.4594c1.8201-5.1754 6.7616-8.9079 12.54-8.9079l1.6478e-4 -6.2624e-4m16.157 1.2725c2.5058 3.3594 3.9893 7.5253 3.9893 12.025 0 4.5697-1.5402 8.7964-4.1179 12.182l-2.3884-1.4166c2.3373-2.9567 3.7325-6.6908 3.7325-10.766 0-3.9987-1.3452-7.6784-3.6032-10.609l2.3877-1.4152m-5.9624 3.5317c1.9305 2.3092 3.1028 5.2676 3.1028 8.4931 0 3.2985-1.2224 6.333-3.2314 8.6648l-2.4444-1.4446c1.7872-1.8778 2.8875-4.4062 2.8875-7.2212 0-2.7348-1.0344-5.212-2.731-7.0777l2.4166-1.4144m-33.515 0.929 12.797 7.5638s-12.811 7.5638-12.811 7.5638l0.014818-15.128h-3.2277e-4m13.24 10.495c1.2625 4.3813 5.2747 7.5638 10.08 7.5638 0.95038 0 1.8697-0.12749 2.7453-0.35747v2.8596c-0.88618 0.18778-1.8036 0.29978-2.7442 0.29978-5.7829 0-10.724-3.7396-12.54-8.9222l2.4581-1.4435m-6.0626 3.5745c2.5671 6.3821 8.8252 10.867 16.143 10.867 0.93215 0 1.8405-0.073962 2.731-0.21446v2.7882c-0.89112 0.12354-1.802 0.19931-2.7294 0.19931-8.2958 0-15.434-5.0545-18.516-12.239l2.3713-1.4003m21.634 2.6452s12.797 7.5495 12.797 7.5495l-12.811 7.5638 0.014818-15.113-4.8876e-4 1.6478e-4" style="fill-opacity:.043833;fill:#220055;opacity:1"/>
			<path id="ac" d="m40.243 10.822 12.762 7.5434-12.777 7.5434 0.014778-15.087h-3.2186e-4m-5.49 3.8785c0.936 0 1.8513 0.074574 2.7522 0.19964v2.7949c-0.89528-0.14456-1.8136-0.22834-2.7516-0.22834-7.2978 0-13.539 4.4725-16.099 10.837l-2.3672-1.3975c3.0735-7.1639 10.193-12.205 18.466-12.205v-7.0569e-4m0 6.8304c0.93724 0 1.8533 0.11154 2.7379 0.29943v2.8376c-0.87393-0.23162-1.7906-0.35483-2.7384-0.35483-4.7926 0-8.794 3.1847-10.053 7.5577l-2.4526-1.4554c1.8152-5.1614 6.7434-8.8838 12.506-8.8838l1.6433e-4 -6.2453e-4m16.113 1.2691c2.4991 3.3503 3.9785 7.5049 3.9785 11.993 0 4.5574-1.536 8.7726-4.1068 12.149l-2.3819-1.4127c2.331-2.9487 3.7224-6.6727 3.7224-10.737 0-3.9879-1.3416-7.6577-3.5934-10.581l2.3813-1.4114m-5.9463 3.5222c1.9253 2.3029 3.0944 5.2534 3.0944 8.4702 0 3.2895-1.2191 6.3159-3.2227 8.6414l-2.4378-1.4407c1.7824-1.8727 2.8797-4.3943 2.8797-7.2017 0-2.7274-1.0316-5.1979-2.7236-7.0586l2.41-1.4106m-33.424 0.92649 12.762 7.5434-12.777 7.5434 0.014778-15.087h-3.2186e-4m13.205 10.467c1.2591 4.3695 5.2605 7.5434 10.053 7.5434 0.94782 0 1.8647-0.12715 2.7379-0.3565v2.8519c-0.88378 0.18727-1.7988 0.29897-2.7368 0.29897-5.7673 0-10.695-3.7295-12.506-8.8981l2.4514-1.4396m-6.0462 3.5649c2.5602 6.3649 8.8014 10.837 16.099 10.837 0.92963 0 1.8356-0.073762 2.7236-0.21388v2.7806c-0.88871 0.1232-1.7971 0.19877-2.722 0.19877-8.2734 0-15.393-5.0408-18.466-12.206l2.3649-1.3965m21.575 2.638s12.762 7.5291 12.762 7.5291l-12.777 7.5434 0.014778-15.073-4.8738e-4 1.6433e-4" style="fill-opacity:.04487;fill:#220055;opacity:1"/>
			<path id="ah" d="m40.048 10.703 12.729 7.5234-12.743 7.5234 0.014739-15.047h-3.2096e-4m-5.4755 3.8682c0.93353 0 1.8465 0.074377 2.7449 0.19911v2.7875c-0.89292-0.14418-1.8088-0.22773-2.7443-0.22773-7.2785 0-13.503 4.4607-16.057 10.809l-2.3609-1.3938c3.0654-7.145 10.166-12.173 18.417-12.173v-7.0381e-4m0 6.8124c0.93476 0 1.8484 0.11125 2.7307 0.29864v2.8301c-0.87162-0.23101-1.7858-0.35389-2.7312-0.35389-4.78 0-8.7707 3.1763-10.027 7.5377l-2.4461-1.4516c1.8104-5.1478 6.7255-8.8604 12.473-8.8604 0 0 1.6389e-4 -6.2286e-4 1.6389e-4 -6.2286e-4m16.071 1.2657c2.4925 3.3415 3.968 7.4851 3.968 11.961 0 4.5454-1.5319 8.7494-4.096 12.117l-2.3757-1.409c2.3249-2.9409 3.7126-6.6551 3.7126-10.708 0-3.9773-1.3381-7.6375-3.584-10.553l2.375-1.4077m-5.9306 3.5129c1.9202 2.2968 3.0862 5.2395 3.0862 8.4478 0 3.2809-1.2159 6.2992-3.2142 8.6185l-2.4314-1.4369c1.7776-1.8678 2.8721-4.3827 2.8721-7.1827 0-2.7202-1.0289-5.1842-2.7164-7.04l2.4037-1.4069m-33.336 0.92405 12.729 7.5234-12.743 7.5234 0.014739-15.047h-3.2096e-4m13.17 10.439c1.2558 4.3579 5.2466 7.5234 10.027 7.5234 0.94531 0 1.8597-0.12681 2.7307-0.35556v2.8444c-0.88145 0.18677-1.794 0.29818-2.7295 0.29818-5.752 0-10.667-3.7196-12.473-8.8746l2.445-1.4358m-6.0302 3.5554c2.5534 6.3481 8.7781 10.809 16.057 10.809 0.92718 0 1.8307-0.073568 2.7164-0.21332v2.7733c-0.88636 0.12288-1.7924 0.19824-2.7148 0.19824-8.2515 0-15.352-5.0275-18.417-12.174l2.3586-1.3928m21.518 2.6311 12.729 7.5092-12.743 7.5234 0.014739-15.033-4.8603e-4 1.6389e-4" style="fill-opacity:.045881;fill:#220055;opacity:1"/>
			<path id="au" d="m39.857 10.587 12.696 7.504-12.71 7.504 0.0147-15.008h-3.2009e-4m-5.4613 3.8582c0.93112 0 1.8417 0.074185 2.7378 0.1986v2.7803c-0.89061-0.1438-1.8041-0.22715-2.7372-0.22715-7.2597 0-13.468 4.4491-16.015 10.781l-2.3548-1.3902c3.0575-7.1265 10.14-12.142 18.369-12.142v-7.0197e-4m0 6.7948c0.93234 0 1.8436 0.11096 2.7236 0.29787v2.8228c-0.86936-0.23041-1.7812-0.35297-2.7241-0.35297-4.7676 0-8.7481 3.1681-10.001 7.5182l-2.4398-1.4478c1.8057-5.1345 6.7082-8.8374 12.441-8.8374l1.6347e-4 -6.2124e-4m16.029 1.2625c2.486 3.3328 3.9577 7.4657 3.9577 11.93 0 4.5336-1.528 8.7268-4.0854 12.086l-2.3695-1.4054c2.3189-2.9333 3.703-6.6379 3.703-10.681 0-3.967-1.3346-7.6177-3.5747-10.526l2.3689-1.4041m-5.9153 3.5038c1.9152 2.2909 3.0782 5.226 3.0782 8.426 0 3.2724-1.2127 6.283-3.2059 8.5962l-2.4251-1.4331c1.773-1.8629 2.8647-4.3713 2.8647-7.1641 0-2.7132-1.0262-5.1708-2.7094-7.0217l2.3975-1.4032m-33.25 0.92166 12.696 7.504-12.71 7.504 0.0147-15.008h-3.2009e-4m13.136 10.412c1.2525 4.3467 5.233 7.504 10.001 7.504 0.94287 0 1.8549-0.12648 2.7236-0.35464v2.837c-0.87917 0.18629-1.7894 0.29741-2.7225 0.29741-5.7371 0-10.639-3.71-12.44-8.8517l2.4386-1.4321m-6.0146 3.5463c2.5468 6.3317 8.7554 10.781 16.015 10.781 0.92478 0 1.826-0.073377 2.7094-0.21276v2.7661c-0.88407 0.12256-1.7878 0.19773-2.7078 0.19773-8.2302 0-15.312-5.0145-18.369-12.143l2.3525-1.3892m21.463 2.6243 12.696 7.4898-12.71 7.504 0.0147-14.994-4.8472e-4 1.6347e-4" style="fill-opacity:.046869;fill:#220055;opacity:1"/>
			<path id="av" d="m39.671 10.474 12.663 7.485s-12.678 7.485-12.678 7.485l0.014663-14.97h-3.1924e-4m-5.4475 3.8484c0.92876 0 1.837 0.073997 2.7309 0.19809v2.7733c-0.88835-0.14344-1.7995-0.22657-2.7303-0.22657-7.2413 0-13.434 4.4378-15.975 10.753l-2.3488-1.3866c3.0497-7.1084 10.114-12.111 18.323-12.111v-7.0017e-4m0 6.7775c0.92998 0 1.839 0.11068 2.7167 0.29712v2.8157c-0.86716-0.22983-1.7767-0.35208-2.7172-0.35208-4.7555 0-8.7259 3.1601-9.9753 7.4991l-2.4336-1.4442c1.8012-5.1215 6.6912-8.815 12.409-8.815l1.6305e-4 -6.1965e-4m15.989 1.2593c2.4797 3.3244 3.9477 7.4468 3.9477 11.9 0 4.5221-1.5241 8.7047-4.075 12.055l-2.3635-1.4018c2.313-2.9259 3.6936-6.6211 3.6936-10.654 0-3.957-1.3312-7.5984-3.5656-10.499l2.3628-1.4005m-5.9003 3.4949c1.9104 2.2851 3.0704 5.2127 3.0704 8.4046 0 3.2641-1.2097 6.267-3.1977 8.5745l-2.4189-1.4295c1.7686-1.8582 2.8574-4.3603 2.8574-7.1459 0-2.7063-1.0236-5.1576-2.7025-7.004l2.3914-1.3997m-33.166 0.91932 12.663 7.485-12.678 7.485s0.014663-14.97 0.014663-14.97h-3.1924e-4m13.102 10.386c1.2493 4.3356 5.2198 7.485 9.9753 7.485 0.94048 0 1.8502-0.12616 2.7167-0.35374v2.8298c-0.87694 0.18582-1.7849 0.29666-2.7156 0.29666-5.7226 0-10.612-3.7006-12.409-8.8292l2.4325-1.4285m-5.9994 3.5373c2.5404 6.3156 8.7332 10.753 15.975 10.753 0.92243 0 1.8214-0.073191 2.7025-0.21223v2.7591c-0.88183 0.12225-1.7832 0.19723-2.7009 0.19723-8.2093 0-15.273-5.0018-18.323-12.112l2.3466-1.3857m21.408 2.6176 12.664 7.4708-12.678 7.485 0.014663-14.956-4.8343e-4 1.6305e-4" style="fill-opacity:.047834;fill:#220055;opacity:1"/>
			<path id="ax" d="m39.489 10.362 12.632 7.4664-12.646 7.4664s0.014627-14.933 0.014627-14.933h-3.1841e-4m-5.4339 3.8389c0.92645 0 1.8324 0.073813 2.7241 0.1976v2.7664c-0.88614-0.14308-1.795-0.22601-2.7235-0.22601-7.2233 0-13.401 4.4268-15.935 10.727l-2.343-1.3832c3.0422-7.0908 10.089-12.081 18.277-12.081v-6.9841e-4m0 6.7607c0.92767 0 1.8344 0.1104 2.71 0.29638v2.8087c-0.865-0.22926-1.7723-0.3512-2.7105-0.3512-4.7437 0-8.7042 3.1522-9.9505 7.4805l-2.4275-1.4406c1.7967-5.1087 6.6745-8.7931 12.378-8.7931l1.6264e-4 -6.1809e-4m15.949 1.2561c2.4736 3.3161 3.9379 7.4283 3.9379 11.87 0 4.5109-1.5203 8.6831-4.0649 12.025l-2.3576-1.3983c2.3072-2.9186 3.6844-6.6046 3.6844-10.627 0-3.9472-1.3279-7.5795-3.5568-10.473l2.357-1.397m-5.8856 3.4862c1.9056 2.2794 3.0628 5.1998 3.0628 8.3837 0 3.256-1.2067 6.2514-3.1898 8.5531l-2.4129-1.426c1.7642-1.8536 2.8503-4.3494 2.8503-7.1282 0-2.6996-1.0211-5.1448-2.6958-6.9865l2.3854-1.3962m-33.083 0.91704 12.632 7.4664-12.646 7.4664s0.014627-14.933 0.014627-14.933h-3.1841e-4m13.07 10.36c1.2462 4.3249 5.2068 7.4664 9.9505 7.4664 0.93814 0 1.8456-0.12585 2.71-0.35286v2.8228c-0.87476 0.18536-1.7804 0.29592-2.7088 0.29592-5.7084 0-10.586-3.6914-12.378-8.8073l2.4264-1.4249m-5.9845 3.5285c2.534 6.2999 8.7115 10.727 15.935 10.727 0.92014 0 1.8168-0.07301 2.6958-0.2117v2.7522c-0.87964 0.12195-1.7788 0.19674-2.6942 0.19674-8.1889 0-15.235-4.9894-18.277-12.082l2.3407-1.3822m21.355 2.6111 12.632 7.4522s-12.646 7.4664-12.646 7.4664 0.014627-14.919 0.014627-14.919l-4.8217e-4 1.6264e-4" style="fill-opacity:.048778;fill:#220055;opacity:1"/>
			<path id="ay" d="m39.311 10.254 12.601 7.4481-12.615 7.4481s0.014591-14.896 0.014591-14.896h-3.1759e-4m-5.4207 3.8295c0.92419 0 1.828 0.073633 2.7175 0.19712v2.7596c-0.88398-0.14273-1.7907-0.22545-2.7168-0.22545-7.2056 0-13.368 4.416-15.896 10.701l-2.3373-1.3798c3.0347-7.0735 10.064-12.051 18.233-12.051v-6.9669e-4m0 6.7442c0.9254 0 1.8299 0.11013 2.7034 0.29565v2.8018c-0.86289-0.2287-1.768-0.35035-2.7038-0.35035-4.7321 0-8.6829 3.1445-9.9262 7.4622l-2.4216-1.4371c1.7923-5.0963 6.6582-8.7717 12.348-8.7717l1.6224e-4 -6.1657e-4m15.91 1.2531c2.4675 3.308 3.9283 7.4102 3.9283 11.841 0 4.4999-1.5166 8.6619-4.055 11.996l-2.3519-1.3949c2.3016-2.9115 3.6754-6.5885 3.6754-10.601 0-3.9375-1.3247-7.561-3.5481-10.447l2.3512-1.3936m-5.8712 3.4777c1.901 2.2739 3.0553 5.1871 3.0553 8.3633 0 3.248-1.2037 6.2362-3.182 8.5323l-2.407-1.4225c1.7598-1.8491 2.8433-4.3388 2.8433-7.1108 0-2.693-1.0186-5.1323-2.6892-6.9695l2.3796-1.3928m-33.002 0.9148s12.601 7.4481 12.601 7.4481l-12.615 7.4481 0.014591-14.896h-3.1759e-4m13.038 10.334c1.2432 4.3143 5.1941 7.4481 9.9262 7.4481 0.93585 0 1.8411-0.12554 2.7034-0.352v2.8159c-0.87262 0.1849-1.7761 0.2952-2.7022 0.2952-5.6944 0-10.56-3.6824-12.348-8.7858l2.4205-1.4215m-5.9699 3.5199c2.5279 6.2845 8.6902 10.701 15.896 10.701 0.91789 0 1.8124-0.072831 2.6892-0.21118v2.7455c-0.87749 0.12165-1.7744 0.19626-2.6876 0.19626-8.1689 0-15.198-4.9772-18.233-12.052l2.335-1.3788m21.303 2.6047s12.601 7.434 12.601 7.434l-12.615 7.4481 0.014591-14.882-4.8093e-4 1.6224e-4" style="fill-opacity:.049703;fill:#220055;opacity:1"/>
			<path id="z" d="m39.136 10.147 12.571 7.4303s-12.585 7.4303-12.585 7.4303l0.014556-14.861h-3.1679e-4m-5.4077 3.8203c0.92197 0 1.8236 0.073456 2.7109 0.19665v2.753c-0.88186-0.14239-1.7864-0.22491-2.7103-0.22491-7.1884 0-13.336 4.4054-15.858 10.675l-2.3317-1.3765c3.0274-7.0565 10.04-12.022 18.189-12.022v-6.95e-4m0 6.728c0.92319 0 1.8255 0.10987 2.6969 0.29494v2.7951c-0.86082-0.22815-1.7637-0.34951-2.6974-0.34951-4.7208 0-8.6621 3.137-9.9024 7.4443l-2.4158-1.4336c1.788-5.084 6.6423-8.7506 12.319-8.7506l1.6185e-4 -6.1507e-4m15.872 1.2501c2.4616 3.3001 3.9189 7.3924 3.9189 11.813 0 4.4891-1.513 8.6411-4.0452 11.967l-2.3462-1.3916c2.2961-2.9045 3.6666-6.5727 3.6666-10.576 0-3.9281-1.3215-7.5429-3.5396-10.422l2.3456-1.3903m-5.8572 3.4693c1.8964 2.2684 3.048 5.1747 3.048 8.3432 0 3.2402-1.2008 6.2212-3.1744 8.5118l-2.4012-1.4191c1.7556-1.8446 2.8365-4.3284 2.8365-7.0937 0-2.6865-1.0161-5.12-2.6828-6.9528l2.3739-1.3895m-32.923 0.9126 12.571 7.4303-12.585 7.4303s0.014556-14.861 0.014556-14.861h-3.1679e-4m13.007 10.31c1.2402 4.304 5.1816 7.4303 9.9024 7.4303 0.93361 0 1.8367-0.12524 2.6969-0.35116v2.8092c-0.87053 0.18446-1.7718 0.29449-2.6957 0.29449-5.6808 0-10.535-3.6735-12.318-8.7647l2.4147-1.4181m-5.9555 3.5114c2.5218 6.2695 8.6694 10.675 15.858 10.675 0.91569 0 1.8081-0.072657 2.6828-0.21067v2.7389c-0.87539 0.12136-1.7702 0.19579-2.6812 0.19579-8.1493 0-15.162-4.9653-18.189-12.023l2.3294-1.3755m21.252 2.5985s12.571 7.4162 12.571 7.4162l-12.585 7.4303 0.014556-14.847-4.7972e-4 1.6185e-4" style="fill-opacity:.05061;fill:#220055;opacity:1"/>
			<path id="y" d="m38.964 10.042s12.541 7.4127 12.541 7.4127l-12.555 7.4127s0.014521-14.825 0.014521-14.825h-3.16e-4m-5.3949 3.8113c0.9198 0 1.8193 0.073283 2.7046 0.19618v2.7465c-0.87978-0.14206-1.7822-0.22438-2.7039-0.22438-7.1714 0-13.305 4.395-15.821 10.65l-2.3262-1.3733c3.0203-7.0398 10.017-11.994 18.146-11.994v-6.9334e-4m0 6.7121c0.92101 0 1.8212 0.10961 2.6905 0.29425v2.7885c-0.85879-0.22761-1.7596-0.34868-2.691-0.34868-4.7096 0-8.6417 3.1296-9.879 7.4268l-2.4101-1.4302c1.7838-5.072 6.6266-8.73 12.289-8.73l1.6147e-4 -6.1361e-4m15.834 1.2471c2.4558 3.2923 3.9096 7.375 3.9096 11.785 0 4.4785-1.5094 8.6207-4.0357 11.939l-2.3407-1.3883c2.2907-2.8976 3.6579-6.5572 3.6579-10.551 0-3.9188-1.3184-7.5251-3.5312-10.398l2.3401-1.387m-5.8433 3.4612c1.8919 2.263 3.0408 5.1624 3.0408 8.3235 0 3.2326-1.198 6.2066-3.1669 8.4917l-2.3956-1.4157c1.7515-1.8403 2.8298-4.3182 2.8298-7.077 0-2.6802-1.0137-5.1079-2.6765-6.9364l2.3683-1.3862m-32.846 0.91045 12.541 7.4127-12.555 7.4127 0.014521-14.825h-3.16e-4m12.976 10.285c1.2373 4.2938 5.1694 7.4127 9.879 7.4127 0.9314 0 1.8324-0.12494 2.6905-0.35033v2.8025c-0.86848 0.18403-1.7676 0.2938-2.6894 0.2938-5.6674 0-10.51-3.6649-12.289-8.744l2.409-1.4147m-5.9415 3.5031c2.5158 6.2547 8.649 10.65 15.821 10.65 0.91353 0 1.8038-0.072485 2.6765-0.21018v2.7325c-0.87332 0.12107-1.766 0.19533-2.6749 0.19533-8.1301 0-15.126-4.9536-18.146-11.995l2.3239-1.3723m21.202 2.5924 12.541 7.3987-12.555 7.4127 0.014521-14.812-4.7854e-4 1.6147e-4" style="fill-opacity:.051499;fill:#220055;opacity:1"/>
			<path id="bc" d="m38.796 9.9395s12.512 7.3955 12.512 7.3955l-12.526 7.3955 0.014488-14.791h-3.1523e-4m-5.3824 3.8025c0.91766 0 1.8151 0.073113 2.6983 0.19573v2.7402c-0.87774-0.14173-1.778-0.22386-2.6976-0.22386-7.1548 0-13.274 4.3848-15.784 10.625l-2.3208-1.3701c3.0133-7.0235 9.9933-11.966 18.104-11.966v-6.9171e-4m0 6.6966c0.91887 0 1.817 0.10935 2.6843 0.29357v2.782c-0.8568-0.22708-1.7555-0.34787-2.6847-0.34787-4.6987 0-8.6216 3.1223-9.8561 7.4096l-2.4045-1.4269c1.7796-5.0603 6.6112-8.7097 12.261-8.7097l1.6109e-4 -6.1217e-4m15.798 1.2442c2.4501 3.2847 3.9005 7.3579 3.9005 11.757 0 4.4681-1.5059 8.6007-4.0263 11.911l-2.3353-1.3851c2.2853-2.8909 3.6495-6.542 3.6495-10.526 0-3.9097-1.3153-7.5076-3.523-10.373l2.3346-1.3838m-5.8298 3.4531c1.8875 2.2578 3.0338 5.1505 3.0338 8.3042 0 3.2251-1.1952 6.1922-3.1595 8.472l-2.39-1.4124c1.7474-1.836 2.8233-4.3082 2.8233-7.0606 0-2.674-1.0114-5.096-2.6703-6.9203l2.3628-1.383m-32.769 0.90834 12.512 7.3955-12.526 7.3955 0.014488-14.791h-3.1523e-4m12.946 10.261c1.2344 4.2838 5.1574 7.3955 9.8561 7.3955 0.92924 0 1.8281-0.12465 2.6843-0.34952v2.796c-0.86646 0.1836-1.7635 0.29312-2.6831 0.29312-5.6542 0-10.486-3.6564-12.261-8.7237l2.4034-1.4114m-5.9277 3.495c2.51 6.2401 8.6289 10.625 15.784 10.625 0.91141 0 1.7996-0.072317 2.6703-0.20969v2.7261c-0.87129 0.12079-1.7619 0.19487-2.6686 0.19487-8.1113 0-15.091-4.9421-18.104-11.967l2.3185-1.3691m21.153 2.5863 12.512 7.3815-12.526 7.3955s0.014488-14.777 0.014488-14.777l-4.7737e-4 1.6109e-4" style="fill-opacity:.052372;fill:#220055;opacity:1"/>
			<path id="w" d="m38.631 9.8385 12.484 7.3786-12.498 7.3786 0.014455-14.757h-3.1448e-4m-5.3701 3.7938c0.91557 0 1.8109 0.072946 2.6921 0.19528v2.7339c-0.87573-0.1414-1.774-0.22335-2.6915-0.22335-7.1384 0-13.243 4.3748-15.748 10.601l-2.3155-1.3669c3.0064-7.0075 9.9705-11.939 18.063-11.939v-6.9012e-4m0 6.6813c0.91677 0 1.8128 0.10911 2.6781 0.2929v2.7757c-0.85484-0.22657-1.7515-0.34708-2.6786-0.34708-4.688 0-8.6019 3.1152-9.8336 7.3926l-2.399-1.4237c1.7756-5.0487 6.5961-8.6898 12.233-8.6898l1.6072e-4 -6.1075e-4m15.762 1.2414c2.4445 3.2772 3.8916 7.341 3.8916 11.731 0 4.4579-1.5025 8.581-4.0171 11.884l-2.3299-1.3819c2.2801-2.8843 3.6411-6.527 3.6411-10.502 0-3.9008-1.3123-7.4905-3.515-10.35l2.3293-1.3806m-5.8165 3.4452c1.8832 2.2526 3.0268 5.1387 3.0268 8.2852 0 3.2177-1.1925 6.178-3.1523 8.4527l-2.3846-1.4092c1.7434-1.8318 2.8168-4.2983 2.8168-7.0444 0-2.6678-1.0091-5.0844-2.6642-6.9045l2.3574-1.3798m-32.695 0.90626 12.484 7.3786-12.498 7.3786s0.014455-14.757 0.014455-14.757h-3.1448e-4m12.916 10.238c1.2316 4.2741 5.1456 7.3786 9.8336 7.3786 0.92712 0 1.8239-0.12437 2.6781-0.34872v2.7896c-0.86448 0.18318-1.7595 0.29245-2.677 0.29245-5.6413 0-10.462-3.648-12.233-8.7038l2.3979-1.4082m-5.9142 3.487c2.5043 6.2259 8.6092 10.601 15.748 10.601 0.90933 0 1.7955-0.072152 2.6642-0.20921v2.7199c-0.8693 0.12051-1.7579 0.19443-2.6625 0.19443-8.0927 0-15.056-4.9308-18.063-11.94l2.3132-1.366m21.104 2.5804 12.484 7.3647s-12.498 7.3786-12.498 7.3786 0.014455-14.743 0.014455-14.743l-4.7623e-4 1.6072e-4" style="fill-opacity:.05323;fill:#220055;opacity:1"/>
			<path id="u" d="m38.468 9.7393 12.455 7.362-12.47 7.362 0.014422-14.724h-3.1373e-4m-5.358 3.7852c0.9135 0 1.8068 0.072781 2.6861 0.19484v2.7277c-0.87376-0.14108-1.77-0.22285-2.6854-0.22285-7.1224 0-13.214 4.365-15.712 10.577l-2.3103-1.3639c2.9996-6.9917 9.948-11.912 18.022-11.912v-6.8854e-4m0 6.6662c0.91471 0 1.8088 0.10886 2.6721 0.29224v2.7694c-0.85292-0.22606-1.7475-0.3463-2.6726-0.3463-4.6774 0-8.5826 3.1082-9.8115 7.376l-2.3936-1.4205c1.7716-5.0374 6.5813-8.6703 12.205-8.6703l1.6036e-4 -6.0937e-4m15.726 1.2386c2.439 3.2698 3.8829 7.3245 3.8829 11.704 0 4.4478-1.4991 8.5617-4.0081 11.857l-2.3247-1.3788c2.275-2.8778 3.6329-6.5123 3.6329-10.479 0-3.892-1.3094-7.4736-3.5071-10.326l2.324-1.3775m-5.8034 3.4375c1.879 2.2476 3.02 5.1271 3.02 8.2666 0 3.2105-1.1898 6.1641-3.1452 8.4336l-2.3792-1.406c1.7395-1.8277 2.8105-4.2886 2.8105-7.0286 0-2.6618-1.0068-5.0729-2.6582-6.8889l2.3521-1.3767m-32.621 0.90422s12.455 7.362 12.455 7.362l-12.47 7.362 0.014422-14.724h-3.1373e-4m12.887 10.215c1.2288 4.2644 5.134 7.362 9.8115 7.362 0.92503 0 1.8198-0.12409 2.6721-0.34793v2.7834c-0.86254 0.18277-1.7555 0.29179-2.671 0.29179-5.6286 0-10.438-3.6398-12.205-8.6842l2.3925-1.405m-5.9009 3.4792c2.4986 6.2119 8.5898 10.577 15.712 10.577 0.90728 0 1.7915-0.07199 2.6582-0.20874v2.7138c-0.86735 0.12024-1.7539 0.19399-2.6566 0.19399-8.0745 0-15.023-4.9197-18.022-11.913l2.308-1.3629m21.057 2.5746 12.456 7.3481-12.47 7.362s0.014422-14.71 0.014422-14.71l-4.7511e-4 1.6036e-4" style="fill-opacity:.054073;fill:#220055;opacity:1"/>
			<path id="t" d="m38.308 9.6417 12.428 7.3457-12.442 7.3457s0.01439-14.691 0.01439-14.691h-3.13e-4m-5.3461 3.7768c0.91148 0 1.8028 0.07262 2.6801 0.19441v2.7217c-0.87182-0.14077-1.766-0.22235-2.6795-0.22235-7.1066 0-13.184 4.3553-15.677 10.553l-2.3051-1.3608c2.993-6.9762 9.926-11.886 17.982-11.886v-6.87e-4m0 6.6514c0.91268 0 1.8048 0.10862 2.6662 0.29159v2.7633c-0.85103-0.22555-1.7436-0.34553-2.6667-0.34553-4.667 0-8.5635 3.1013-9.7897 7.3596l-2.3883-1.4173c1.7676-5.0262 6.5667-8.651 12.178-8.651l1.6e-4 -6.08e-4m15.691 1.2358c2.4336 3.2625 3.8742 7.3083 3.8742 11.678 0 4.438-1.4957 8.5427-3.9992 11.831l-2.3195-1.3757c2.2699-2.8714 3.6249-6.4979 3.6249-10.455 0-3.8834-1.3065-7.457-3.4993-10.303l2.3189-1.3744m-5.7905 3.4299c1.8748 2.2426 3.0133 5.1158 3.0133 8.2482 0 3.2033-1.1872 6.1504-3.1382 8.4149l-2.3739-1.4029c1.7356-1.8236 2.8042-4.2791 2.8042-7.013 0-2.6559-1.0046-5.0617-2.6523-6.8736l2.3469-1.3736m-32.549 0.90222 12.428 7.3457s-12.442 7.3457-12.442 7.3457 0.01439-14.691 0.01439-14.691h-3.13e-4m12.858 10.192c1.2261 4.255 5.1226 7.3457 9.7897 7.3457 0.92298 0 1.8158-0.12381 2.6662-0.34716v2.7772c-0.86062 0.18236-1.7516 0.29114-2.6651 0.29114-5.6161 0-10.415-3.6317-12.178-8.665l2.3872-1.4019m-5.8878 3.4715c2.4931 6.1981 8.5707 10.553 15.677 10.553 0.90527 0 1.7875-0.07183 2.6523-0.20828v2.7078c-0.86542 0.11998-1.75 0.19356-2.6507 0.19356-8.0566 0-14.989-4.9088-17.982-11.887l2.3029-1.3599m21.01 2.5689s12.428 7.3318 12.428 7.3318l-12.442 7.3457s0.01439-14.678 0.01439-14.678l-4.74e-4 1.6e-4" style="fill-opacity:.054902;fill:#220055;opacity:1"/>
		</g>
	</g>
	<path id="ad" d="m38.308 9.1417 12.428 7.3457-12.442 7.3457 0.01439-14.691zm-5.3461 3.7768c0.91148 0 1.8028 0.07262 2.6801 0.19441v2.7217c-0.87182-0.14077-1.766-0.22235-2.6795-0.22235-7.1066 0-13.184 4.3553-15.677 10.553l-2.3051-1.3608c2.993-6.9762 9.926-11.886 17.982-11.886zm0 6.6514c0.91268 0 1.8048 0.10862 2.6662 0.29159v2.7633c-0.85103-0.22555-1.7436-0.34553-2.6667-0.34553-4.667 0-8.5635 3.1013-9.7897 7.3596l-2.3883-1.4173c1.7676-5.0262 6.5667-8.651 12.178-8.651zm15.691 1.2358c2.4336 3.2625 3.8742 7.3083 3.8742 11.678 0 4.438-1.4957 8.5427-3.9992 11.831l-2.3195-1.3757c2.2699-2.8714 3.6249-6.4979 3.6249-10.455 0-3.8834-1.3065-7.457-3.4993-10.303zm-5.7905 3.4299c1.8748 2.2426 3.0133 5.1158 3.0133 8.2482 0 3.2033-1.1872 6.1504-3.1382 8.4149l-2.3739-1.4029c1.7356-1.8236 2.8042-4.2791 2.8042-7.013 0-2.6559-1.0046-5.0617-2.6523-6.8736zm-32.549 0.90222 12.428 7.3457-12.442 7.3457 0.01439-14.691zm12.858 10.192c1.2261 4.255 5.1226 7.3457 9.7897 7.3457 0.92298 0 1.8158-0.12381 2.6662-0.34716v2.7772c-0.86062 0.18236-1.7516 0.29114-2.6651 0.29114-5.6161 0-10.415-3.6317-12.178-8.665zm-5.8878 3.4715c2.4931 6.1981 8.5707 10.553 15.677 10.553 0.90527 0 1.7875-0.07183 2.6523-0.20828v2.7078c-0.86542 0.11998-1.75 0.19356-2.6507 0.19356-8.0566 0-14.989-4.9088-17.982-11.887zm21.01 2.5689 12.428 7.3318-12.442 7.3457 0.01439-14.678z" style="fill:#c4ff7a"/>
	<path id="as" d="m38.308 9.6417 12.428 7.3457-12.442 7.3457 0.01439-14.691zm-5.3461 3.7768c0.91148 0 1.8028 0.07262 2.6801 0.19441v2.7217c-0.87182-0.14077-1.766-0.22235-2.6795-0.22235-7.1066 0-13.184 4.3553-15.677 10.553l-2.3051-1.3608c2.993-6.9762 9.926-11.886 17.982-11.886zm0 6.6514c0.91268 0 1.8048 0.10862 2.6662 0.29159v2.7633c-0.85103-0.22555-1.7436-0.34553-2.6667-0.34553-4.667 0-8.5635 3.1013-9.7897 7.3596l-2.3883-1.4173c1.7676-5.0262 6.5667-8.651 12.178-8.651zm15.691 1.2358c2.4336 3.2625 3.8742 7.3083 3.8742 11.678 0 4.438-1.4957 8.5427-3.9992 11.831l-2.3195-1.3757c2.2699-2.8714 3.6249-6.4979 3.6249-10.455 0-3.8834-1.3065-7.457-3.4993-10.303zm-5.7905 3.4299c1.8748 2.2426 3.0133 5.1158 3.0133 8.2482 0 3.2033-1.1872 6.1504-3.1382 8.4149l-2.3739-1.4029c1.7356-1.8236 2.8042-4.2791 2.8042-7.013 0-2.6559-1.0046-5.0617-2.6523-6.8736zm-32.549 0.90222 12.428 7.3457-12.442 7.3457 0.01439-14.691zm12.858 10.192c1.2261 4.255 5.1226 7.3457 9.7897 7.3457 0.92298 0 1.8158-0.12381 2.6662-0.34716v2.7772c-0.86062 0.18236-1.7516 0.29114-2.6651 0.29114-5.6161 0-10.415-3.6317-12.178-8.665zm-5.8878 3.4715c2.4931 6.1981 8.5707 10.553 15.677 10.553 0.90527 0 1.7875-0.07183 2.6523-0.20828v2.7078c-0.86542 0.11998-1.75 0.19356-2.6507 0.19356-8.0566 0-14.989-4.9088-17.982-11.887zm21.01 2.5689 12.428 7.3318-12.442 7.3457 0.01439-14.678z" style="fill:#e8fff8"/>
	<path id="s" d="m33.643 13.445v0.88867c-0.87182-0.14077-1.7663-0.2207-2.6797-0.2207-2.4788 0-4.8272 0.53915-6.9473 1.4922-3.7841 1.9606-6.8467 5.1187-8.6914 8.9707-0.012391 0.030286-0.026844 0.059469-0.039063 0.089844l-0.001953-0.001954c-0.050411 0.10662-0.10186 0.21266-0.15039 0.32031l1.1523 0.68164c2.4933-6.1981 8.5712-10.553 15.678-10.553 0.91341 0 1.8079 0.07993 2.6797 0.2207v-1.8281c-0.33067-0.030302-0.66449-0.04751-1-0.060547zm14.402 1.9512-9.7461 5.7539-0.001953 1.5918 11.094-6.5488-1.3457-0.79688zm-14.416 4.7109v1.0176c-0.85103-0.22555-1.745-0.3457-2.668-0.3457-1.5145 0-2.9452 0.33129-4.2324 0.91797-2.0899 1.1632-3.8256 2.8863-5.002 4.9688-0.2196 0.4726-0.40813 0.96367-0.55469 1.4727l-0.12695-0.076172c-0.045388 0.10932-0.088419 0.21929-0.13086 0.33008l1.2578 0.74609c1.2262-4.2583 5.122-7.3594 9.7891-7.3594 0.92301 0 1.8169 0.12015 2.668 0.3457v-1.9277c-0.32964-0.045322-0.66341-0.070646-1-0.089844zm14.803 1.3301-0.29883 0.17773c1.5257 2.785 2.3945 5.9791 2.3945 9.3691 0 3.2082-0.78935 6.237-2.168 8.9141-0.002026 0.004508-0.003829 0.009165-0.005859 0.013671-0.01227 0.023782-0.022793 0.048541-0.035157 0.072266-0.044527 0.085445-0.085117 0.17311-0.13086 0.25781-0.49327 1.0334-1.0871 2.0083-1.7715 2.9121l1.1133 0.66016c2.5034-3.2881 3.998-7.3921 3.998-11.83 0-3.8795-1.1384-7.4997-3.0957-10.547zm-5.748 3.4043-0.30469 0.17773c0.94757 1.787 1.498 3.8109 1.498 5.9648 0 2.3119-0.62541 4.4847-1.7031 6.3691-0.41359 0.8659-0.94595 1.6611-1.5762 2.3711l1.1406 0.67383c1.9511-2.2645 3.1387-5.2107 3.1387-8.4141 0-2.6408-0.81594-5.0929-2.1934-7.1426zm-22.633 6.5508-9.7461 5.7539-0.001954 1.5918 11.094-6.5488-1.3457-0.79688zm2.6094 4.7383-0.35742 0.21094c0.54376 0.88207 1.2091 1.6808 1.9883 2.3555-0.66586-0.76214-1.2127-1.6289-1.6309-2.5664zm-5.8027 3.4219-0.33398 0.19922c0.82539 1.3564 1.8324 2.5901 2.9961 3.6582-1.0586-1.1488-1.954-2.4472-2.6621-3.8574zm6.0273 1.4551c0.15361 0.19285 0.30852 0.38468 0.47266 0.56836 2.2859 2.0596 5.3019 3.3203 8.6055 3.3203 0.91341 0 1.8054-0.10865 2.666-0.29102v-1.5801c-0.32806 0.053476-0.66211 0.083422-1 0.10547v0.47461c-0.86062 0.18236-1.7526 0.29102-2.666 0.29102-3.0599 0-5.8631-1.0926-8.0781-2.8887zm-4.7734 4.668c0.12153 0.14216 0.24758 0.27937 0.37305 0.41797 3.512 3.3626 8.2492 5.4551 13.48 5.4551 0.90062 0 1.785-0.07338 2.6504-0.19336v-1.5898c-0.32994 0.032319-0.66424 0.051504-1 0.064453v0.52539c-0.86542 0.11998-1.7498 0.19336-2.6504 0.19336-4.9242 0-9.4124-1.8534-12.854-4.873zm29.916 1.9375-9.7422 5.752-0.001953 1.5918 11.092-6.5488-1.3477-0.79492z" style="fill-opacity:.99715;fill:url(#b)"/>
	<path id="aa" d="m38.809 10.143-0.013672 13.896 0.5-0.29687 0.013672-13.1 11.082 6.5508 0.17188-0.10352-11.754-6.9473zm-5.3457 3.7754v0.001953c-7.9931 0-14.876 4.8351-17.906 11.725l0.57617 0.3418c3.0663-6.8039 9.8993-11.566 17.83-11.566v-0.001953c0.56898 0 1.1259 0.041656 1.6797 0.095703v-0.45508c-0.71624-0.083328-1.4401-0.14062-2.1797-0.14062zm0 6.6523c-5.5496 0-10.301 3.5467-12.115 8.4863l0.56836 0.33594c1.859-4.8524 6.56-8.3223 12.047-8.3223 0.56644 0 1.1193 0.059483 1.666 0.13867v-0.42969c-0.70668-0.12412-1.4269-0.20898-2.166-0.20898zm15.58 1.3027-2.209 1.3066c2.1928 2.8465 3.5 6.4213 3.5 10.305 0 3.8941-1.3169 7.4634-3.5215 10.312l0.60156 0.35742c2.1405-2.8258 3.4199-6.3388 3.4199-10.17 0-3.8834-1.3072-7.4582-3.5-10.305l2.0996-1.2422c-0.12391-0.19294-0.26021-0.37622-0.39062-0.56445zm-5.7598 3.4102-2.2676 1.3262c1.6477 1.812 2.6523 4.2171 2.6523 6.873 0 2.6692-1.0239 5.0694-2.6875 6.8789l0.61523 0.36328c1.5928-1.7934 2.5723-4.1377 2.5723-6.7422 0-2.6559-1.0046-5.0611-2.6523-6.873l2.168-1.2676c-0.12805-0.19057-0.26272-0.37523-0.40039-0.55859zm-32.469 0.85547-0.013672 13.896 0.5-0.29688 0.013672-13.1 11.082 6.5508 0.17188-0.10352-11.754-6.9473zm12.58 10.355-2.1094 1.2383c0.64482 1.8409 1.7133 3.4778 3.0625 4.834 0.041445 0.03741 0.083074 0.07445 0.125 0.11133-1.1705-1.2782-2.1034-2.7778-2.6875-4.4453l1.8691-1.0977c-0.093254-0.21014-0.18051-0.42317-0.25977-0.64062zm-5.8281 3.4355-2.084 1.2324c0.98482 2.2962 2.4102 4.3532 4.1484 6.0996 0.016798 0.015718 0.031976 0.033168 0.048829 0.048828-1.5357-1.6466-2.7975-3.5505-3.6973-5.6484l1.8711-1.1074c-0.10257-0.2045-0.19274-0.41581-0.28711-0.625zm8.9297 1c1.8556 1.9975 4.5047 3.2461 7.4668 3.2461 0.57138 0 1.1227-0.069973 1.666-0.16406v-0.58398c-0.70035 0.1492-1.4197 0.24805-2.166 0.24805-2.7061 0-5.1492-1.0434-6.9668-2.7461zm12.299 1.4414-0.013672 13.883 0.5-0.29688 0.013672-13.086 11.08 6.5371 0.17383-0.10156-11.754-6.9355zm-17.215 3.1094c3.0833 3.3095 7.4895 5.375 12.383 5.375 0.5608 0 1.1087-0.041175 1.6523-0.097657v-0.55078c-0.70535 0.090424-1.4198 0.14844-2.1523 0.14844-4.6384 0-8.8317-1.863-11.883-4.875z" style="fill:#ffffff"/>
	<path id="ar" d="m38.309 9.6426v0.5l12.004 7.0957 0.42383-0.25zm-5.3457 3.7754v2e-3c-8.056 0-14.989 4.9086-17.982 11.885l0.18555 0.10937c3.0822-6.7652 9.8943-11.494 17.797-11.494v-2e-3c0.91148 0 1.8024 0.07352 2.6797 0.19531v-0.5c-0.87726-0.12179-1.7682-0.19531-2.6797-0.19531zm0 6.6523c-5.6117 0-10.412 3.6242-12.18 8.6504l0.16016 0.0957c1.8789-4.8126 6.5613-8.2461 12.02-8.2461 0.91268 0 1.8046 0.10805 2.666 0.29102v-0.5c-0.86142-0.18297-1.7533-0.29102-2.666-0.29102zm15.691 1.2363-2.3203 1.373c0.08756 0.11366 0.1653 0.23561 0.25 0.35156l2.0703-1.2246c2.3864 3.1992 3.8086 7.1531 3.8633 11.426 0.0011-0.08333 0.0098-0.16448 0.0098-0.24805 0-4.37-1.4395-8.4152-3.873-11.678zm-5.791 3.4297-2.3477 1.373c0.09786 0.10761 0.18605 0.22421 0.2793 0.33594l2.0684-1.209c1.824 2.1818 2.9422 4.9624 3.002 7.9961 0.0016-0.08329 0.01172-0.1644 0.01172-0.24805 0-3.1325-1.1389-6.0055-3.0137-8.248zm-32.549 0.90234v0.5l12.004 7.0957 0.42383-0.25zm32.842 7.5918c-0.06312 2.6332-1.1105 4.9979-2.793 6.7656l0.28711 0.16992c1.5611-1.7858 2.5176-4.1081 2.5176-6.6836 0-0.08514-0.0097-0.16734-0.01172-0.25195zm6.668 2e-3c-0.05587 3.8601-1.3933 7.3963-3.6152 10.207l0.25391 0.15039c2.1109-2.8149 3.3711-6.3035 3.3711-10.105 0-0.08484-0.0085-0.16742-0.0098-0.25195zm-26.65 2.5977-2.3887 1.4023c0.04835 0.13803 0.10729 0.27038 0.16016 0.40625l2.2285-1.3086c1.2261 4.255 5.122 7.3457 9.7891 7.3457 0.92298 0 1.8156-0.12431 2.666-0.34766v-0.5c-0.85039 0.22335-1.743 0.34766-2.666 0.34766-4.667 0-8.563-3.0907-9.7891-7.3457zm-5.8887 3.4707-2.3027 1.3613c0.0569 0.13266 0.12387 0.25948 0.18359 0.39062l2.1191-1.252c2.4931 6.1981 8.571 10.555 15.678 10.555 0.90527 0 1.7876-0.07254 2.6523-0.20898v-0.5c-0.86478 0.13645-1.7471 0.20898-2.6523 0.20898-7.1067 0-13.185-4.3566-15.678-10.555zm21.01 2.5703v0.5l12.004 7.082 0.42383-0.25z" style="fill:#f3fffc"/>
</svg>
