<?xml version="1.0" encoding="UTF-8" standalone="no"?>
<!-- Created with Inkscape (http://www.inkscape.org/) -->

<svg
   xmlns:dc="http://purl.org/dc/elements/1.1/"
   xmlns:cc="http://creativecommons.org/ns#"
   xmlns:rdf="http://www.w3.org/1999/02/22-rdf-syntax-ns#"
   xmlns:svg="http://www.w3.org/2000/svg"
   xmlns="http://www.w3.org/2000/svg"
   xmlns:xlink="http://www.w3.org/1999/xlink"
   xmlns:sodipodi="http://sodipodi.sourceforge.net/DTD/sodipodi-0.dtd"
   xmlns:inkscape="http://www.inkscape.org/namespaces/inkscape"
   width="64"
   height="64"
   id="svg13094"
   version="1.1"
   inkscape:version="0.92.2 5c3e80d, 2017-08-06"
   sodipodi:docname="ksysguard.svg">
  <sodipodi:namedview
     id="base"
     pagecolor="#ffffff"
     bordercolor="#666666"
     borderopacity="1.0"
     inkscape:pageopacity="0"
     inkscape:pageshadow="2"
     inkscape:zoom="8.0000004"
     inkscape:cx="25.430181"
     inkscape:cy="30.027154"
     inkscape:document-units="px"
     inkscape:current-layer="svg13094"
     showgrid="true"
     inkscape:snap-bbox="true"
     inkscape:bbox-paths="true"
     inkscape:bbox-nodes="true"
     inkscape:snap-bbox-edge-midpoints="true"
     inkscape:snap-bbox-midpoints="true"
     inkscape:object-paths="true"
     inkscape:snap-intersection-paths="true"
     inkscape:object-nodes="true"
     inkscape:snap-smooth-nodes="true"
     inkscape:snap-midpoints="true"
     inkscape:snap-object-midpoints="true"
     inkscape:snap-center="true"
     showguides="true"
     inkscape:guide-bbox="true"
     inkscape:window-width="1920"
     inkscape:window-height="1023"
     inkscape:window-x="-10"
     inkscape:window-y="35"
     inkscape:window-maximized="1"
     inkscape:snap-global="true"
     fit-margin-top="0"
     fit-margin-left="0"
     fit-margin-right="0"
     fit-margin-bottom="0"
     showborder="true"
     inkscape:showpageshadow="false"
     inkscape:snap-page="true">
    <inkscape:grid
       type="xygrid"
       id="grid3075"
       empspacing="5"
       visible="true"
       enabled="true"
       snapvisiblegridlinesonly="true"
       originx="1.6362304e-08"
       originy="18"
       spacingx="1"
       spacingy="1" />
  </sodipodi:namedview>
  <defs
     id="defs13096">
    <radialGradient
       inkscape:collect="always"
       xlink:href="#linearGradient832"
       id="radialGradient834"
       cx="32"
       cy="24.741936"
       fx="32"
       fy="24.741936"
       r="32"
       gradientTransform="matrix(1,0,0,0.96875,0,1.03125)"
       gradientUnits="userSpaceOnUse" />
    <linearGradient
       inkscape:collect="always"
       id="linearGradient832">
      <stop
         style="stop-color:#376198;stop-opacity:1"
         offset="0"
         id="stop828" />
      <stop
         style="stop-color:#2e3d4f;stop-opacity:1"
         offset="1"
         id="stop830" />
    </linearGradient>
    <radialGradient
       inkscape:collect="always"
       xlink:href="#linearGradient824"
       id="radialGradient826"
       cx="31.999998"
       cy="20.434425"
       fx="31.999998"
       fy="20.434425"
       r="32"
       gradientTransform="matrix(0,2.1586737,-1.5271933,0,63.207315,-51.054299)"
       gradientUnits="userSpaceOnUse" />
    <linearGradient
       inkscape:collect="always"
       id="linearGradient824">
      <stop
         style="stop-color:#298d75;stop-opacity:1"
         offset="0"
         id="stop820" />
      <stop
         style="stop-color:#416b8d;stop-opacity:1"
         offset="1"
         id="stop822" />
    </linearGradient>
  </defs>
  <metadata
     id="metadata13099">
    <rdf:RDF>
      <cc:Work
         rdf:about="">
        <dc:format>image/svg+xml</dc:format>
        <dc:type
           rdf:resource="http://purl.org/dc/dcmitype/StillImage" />
        <dc:title />
      </cc:Work>
    </rdf:RDF>
  </metadata>
  <path
     inkscape:connector-curvature="0"
     style="color:#000000;display:inline;overflow:visible;visibility:visible;opacity:1;fill:url(#radialGradient834);fill-opacity:1;fill-rule:nonzero;stroke:none;stroke-width:1;stroke-linecap:butt;stroke-linejoin:miter;stroke-miterlimit:4;stroke-dasharray:none;stroke-dashoffset:0;stroke-opacity:1;marker:none;enable-background:accumulate"
     d="m 0,2 v 32 28 l 2,2 h 30 30 l 2,-2 V 34 2 H 32 Z"
     id="path4095"
     sodipodi:nodetypes="ccccccccccc" />
  <path
     inkscape:connector-curvature="0"
     style="color:#000000;display:inline;overflow:visible;visibility:visible;opacity:1;fill:#7e9abb;fill-opacity:1;fill-rule:nonzero;stroke:none;stroke-width:2.28571415;stroke-linecap:butt;stroke-linejoin:miter;stroke-miterlimit:4;stroke-dasharray:none;stroke-dashoffset:0;stroke-opacity:1;marker:none;enable-background:accumulate"
     d="M 2,0 0,1 V 2 H 32 64 V 1 L 62,0 H 32 Z"
     id="path4090"
     sodipodi:nodetypes="ccccccccc" />
  <path
     inkscape:connector-curvature="0"
     style="opacity:1;fill:#c2e1e3;fill-opacity:1;fill-rule:nonzero;stroke-width:1;stroke-linecap:butt;stroke-linejoin:miter;stroke-miterlimit:4;stroke-dasharray:none;stroke-dashoffset:0;stroke-opacity:1"
     d="M 0,1 V 4 L 2,2 Z"
     id="path4298"
     sodipodi:nodetypes="cccc" />
  <path
     d="M 64,4 62,2 64,1 Z"
     id="path3028"
     style="opacity:1;fill:#5f8194;fill-opacity:0.98877007;stroke:none;stroke-width:0.62299293;stroke-linecap:butt;stroke-linejoin:miter;stroke-miterlimit:4;stroke-dasharray:none;stroke-dashoffset:0;stroke-opacity:1;marker:none"
     inkscape:connector-curvature="0"
     sodipodi:nodetypes="cccc" />
  <g
     id="g3043"
     inkscape:export-filename="folder.png"
     inkscape:export-xdpi="90"
     inkscape:export-ydpi="90"
     transform="translate(-0.62500009,0.082283)" />
  <g
     id="scalable"
     transform="matrix(1.0385892,0,0,1.0385892,1214.7222,1878.8121)"
     inkscape:label="#g3701"
     style="fill:#ffffff" />
  <rect
     y="5"
     x="3"
     height="56"
     width="58"
     id="rect3777-3"
     style="color:#000000;display:inline;overflow:visible;visibility:visible;fill:url(#radialGradient826);fill-opacity:1;fill-rule:nonzero;stroke:none;stroke-width:2.48316574;marker:none;enable-background:accumulate" />
  <path
     id="path3305"
     d="m 52.040494,32.832975 c 0.541075,0 1.029565,0.143447 1.383503,0.376164 0,0 0,0 0,0 0.18045,0.118618 0.325882,0.260452 0.425525,0.418286 0,0 0,0 0,0 0.04874,0.07724 0.08651,0.158273 0.112048,0.242307 0,0 0,0 0,0 0,2.4e-5 0,2.4e-5 0,2.4e-5 0.01267,0.09822 0.02236,0.156127 0.02877,0.192417 0,0 0,0 0,0 0,0 0,0 0,0 0.0032,0.0323 0.0058,0.04885 0.0074,0.0572 0,0.0041 0.0023,0.0062 0.0023,0.0074 0,0 0,0 0,0 0,0 0,0 0,0 0,0 -0.0023,0.0032 -0.0025,0.0074 -0.0023,0.0083 -0.004,0.02488 -0.0074,0.05718 0,0 0,0 0,0 0,0 0,0 0,0 -0.0065,0.0363 -0.01613,0.0942 -0.02877,0.19244 0,0 0,0 0,0 0,0 0,0 0,0 -0.02555,0.08404 -0.06331,0.165097 -0.112048,0.242307 0,0 0,0 0,0 -0.09965,0.157835 -0.245074,0.299668 -0.425525,0.418287 0,0 0,0 0,0 -0.353939,0.232716 -0.842429,0.376163 -1.383504,0.376163 -0.04417,0 -0.09146,0 -0.141187,-0.003 -0.635719,-0.02511 -1.674528,-0.198157 -1.790356,-0.198157 -0.915903,0 -1.88322,0 -2.897314,-0.0028 -2.274487,-0.0041 -4.784293,-0.01267 -7.477249,-0.02536 0.359564,-0.05224 0.576719,-0.13425 0.655199,-0.258976 0.09872,-0.114745 0.145867,-0.170653 0.134594,-0.175402 -0.008,-0.0055 -0.01844,0.06592 -0.05921,0.201592 0,0 0,0 0,0 -0.04376,0.177131 -0.07774,0.374298 -0.112094,0.58917 0,0 0,0 0,0 -0.04243,0.269603 -0.07813,0.548016 -0.111862,0.83452 -0.08216,0.69944 -0.147276,1.420092 -0.211553,2.159671 -0.0712,0.820618 -0.13879,1.658203 -0.211899,2.510959 -0.07114,0.830071 -0.146928,1.67545 -0.239286,2.533808 -0.07867,0.73377 -0.16904,1.485661 -0.29771,2.250186 0,2.2e-5 0,2.2e-5 0,2.2e-5 -0.0512,0.304811 -0.110478,0.617735 -0.185199,0.9367 -0.05676,0.246873 -0.129039,0.513019 -0.231263,0.79226 -0.05663,0.183149 -0.170585,0.424949 -0.371209,0.700409 0,0 0,0 -2.3e-5,0 -0.07114,0.10317 -0.196474,0.220497 -0.378953,0.343449 -0.16655,0.110549 -0.382989,0.17402 -0.643971,0.184257 -0.261051,-0.01129 -0.476085,-0.07467 -0.63989,-0.183863 -0.180498,-0.121316 -0.304786,-0.237168 -0.375819,-0.339209 -0.199402,-0.271748 -0.313778,-0.511889 -0.37153,-0.695936 -0.10227,-0.277098 -0.175356,-0.542784 -0.233108,-0.790969 -0.07504,-0.316683 -0.135379,-0.629423 -0.187875,-0.936123 -0.12913,-0.752584 -0.22331,-1.504059 -0.307299,-2.249149 0,0 0,0 0,0 -0.09526,-0.842864 -0.177155,-1.687736 -0.257179,-2.532492 -0.07931,-0.836779 -0.156059,-1.673904 -0.241061,-2.509555 0,0 0,0 0,0 -0.07412,-0.727174 -0.151632,-1.447942 -0.253998,-2.158726 0,0 0,0 0,0 -0.04109,-0.284751 -0.08505,-0.563438 -0.137937,-0.834726 0,0 0,0 0,0 -0.04247,-0.214365 -0.08484,-0.41303 -0.139506,-0.591912 0,0 0,0 0,0 -0.04837,-0.13326 -0.06601,-0.214942 -0.08235,-0.226125 -0.0076,0.0025 0.02829,0.03362 0.103032,0.101437 0.07209,0.07094 0.20625,0.111587 0.407243,0.131299 -1.393487,-0.0136 -2.79117,-0.0276 -4.189176,-0.04201 -0.169385,-0.0065 -0.309328,-0.04122 -0.418493,-0.102681 -0.120693,-0.06845 -0.20565,-0.133004 -0.255518,-0.191194 -0.131528,-0.149604 -0.20784,-0.269029 -0.237558,-0.349376 -0.123575,-0.267575 -0.190596,-0.504857 -0.232648,-0.697181 -0.07442,-0.306447 -0.12973,-0.605699 -0.177385,-0.89483 -0.06211,-0.37393 -0.114214,-0.745253 -0.161707,-1.113047 -0.118595,-0.917955 -0.212773,-1.8322 -0.301421,-2.739551 0,0 0,0 0,0 -0.102085,-1.044273 -0.195528,-2.084305 -0.2895,-3.117881 -0.09483,-1.042775 -0.189466,-2.07891 -0.293466,-3.106077 -0.09216,-0.909033 -0.189236,-1.807716 -0.311772,-2.692564 0,0 0,-2.2e-5 0,-2.2e-5 -0.04968,-0.358551 -0.102918,-0.712122 -0.16572,-1.05956 -0.04985,-0.273915 -0.102064,-0.537204 -0.169269,-0.786451 -0.05196,-0.176761 -0.08756,-0.318618 -0.140404,-0.408441 0,0 0,0 0,0 -0.02075,-0.02573 -0.01084,-0.02433 0.02145,0.0136 0,0 0,0 2.3e-5,2.3e-5 0.02619,0.04975 0.125835,0.08037 0.302919,0.108082 0.178492,-0.02866 0.279104,-0.06198 0.307692,-0.115412 0.03283,-0.04199 0.04228,-0.04551 0.02098,-0.02098 -0.05464,0.08694 -0.09144,0.22806 -0.14354,0.403255 -0.06854,0.249662 -0.121546,0.512556 -0.171806,0.784237 0,0 0,0 0,2.2e-5 -0.06423,0.349214 -0.118548,0.702439 -0.169154,1.058015 0,0 0,0 0,0 -0.127862,0.898912 -0.22905,1.797363 -0.325743,2.689913 -0.113362,1.046901 -0.217361,2.082437 -0.322953,3.102803 -0.10912,1.054716 -0.219137,2.093572 -0.341051,3.112278 -0.11062,0.924734 -0.229721,1.836465 -0.380961,2.727608 -0.06261,0.36911 -0.131436,0.736859 -0.213328,1.100873 -0.06469,0.288832 -0.138767,0.581239 -0.236636,0.870578 -0.06274,0.195277 -0.148219,0.412752 -0.289731,0.625042 0,0 0,0 0,0 -0.04574,0.07246 -0.116634,0.152717 -0.217454,0.229813 -2.3e-5,0 -2.3e-5,0 -2.3e-5,2.3e-5 -0.0838,0.06649 -0.201754,0.108264 -0.346816,0.114997 0,0 0,0 0,0 -7.058777,-0.119094 -12.719296,-0.241078 -15.9641407,-0.356076 3.2507697,-0.114421 8.9120947,-0.235668 15.9640947,-0.354171 0,0 0,0 0,0 -0.04705,0.0067 -0.07008,0.0088 -0.07467,0.01752 0,0 0,0 0,0 0.0028,0.0023 0.01383,-0.01983 0.03959,-0.05393 0,0 0,0 0,0 0.07625,-0.112414 0.125188,-0.270111 0.18361,-0.450585 0.07735,-0.253859 0.135217,-0.522103 0.18882,-0.800191 0.0666,-0.347876 0.121246,-0.703683 0.171044,-1.065991 0.120232,-0.875167 0.209316,-1.775831 0.291484,-2.697706 0.0903,-1.014163 0.169108,-2.050737 0.247679,-3.106883 0.07597,-1.021427 0.150825,-2.061044 0.235714,-3.116314 0.07218,-0.898429 0.150179,-1.81122 0.256464,-2.735192 0,0 0,0 0,-2.3e-5 0.04202,-0.365653 0.08911,-0.735523 0.147506,-1.108597 0,-2.3e-5 0,-2.3e-5 0,-2.3e-5 0.04466,-0.287312 0.09718,-0.583729 0.170835,-0.886071 0.04263,-0.192462 0.108175,-0.421767 0.231611,-0.671176 0.03318,-0.07822 0.104554,-0.182549 0.222456,-0.30338 0.08685,-0.107372 0.261075,-0.18329 0.518367,-0.21181 0.256624,0.0276 0.430574,0.101004 0.516292,0.204497 0,0 0,0 0,0 0.119286,0.116774 0.193732,0.218885 0.230366,0.296188 0,0 2.3e-5,0 2.3e-5,0 0.132934,0.244452 0.209824,0.473226 0.262434,0.666034 0.088,0.299299 0.15546,0.595463 0.214619,0.88388 0.07629,0.369733 0.141556,0.739326 0.201662,1.107075 0,0 0,0 0,0 0.148358,0.907189 0.269627,1.819843 0.384024,2.732542 0.129616,1.03353 0.249088,2.072294 0.367866,3.11304 0.11788,1.032537 0.234377,2.067291 0.35862,3.10128 0,0 0,0 0,0 0.108243,0.900435 0.220221,1.79718 0.354562,2.685786 0.05386,0.355946 0.11071,0.707672 0.175886,1.053842 0,0 0,0 0,0 0.05132,0.271033 0.104278,0.530909 0.170077,0.775984 0.05122,0.174549 0.08353,0.306261 0.127562,0.378561 0.02051,0.02144 0,0.0028 -0.05144,-0.06527 -0.02191,-0.02951 -0.07555,-0.06798 -0.160416,-0.117972 -0.07931,-0.04607 -0.186008,-0.0714 -0.321617,-0.07776 1.398374,-0.01453 2.796057,-0.02847 4.189176,-0.04207 0.27689,0.0196 0.484476,0.09243 0.617503,0.209223 0.155829,0.12883 0.255311,0.241593 0.303103,0.329593 0.155553,0.253374 0.242146,0.474241 0.288303,0.642196 0.08426,0.264026 0.145684,0.518344 0.196313,0.758231 0,0 0,0 0,0 0.06629,0.30995 0.120877,0.616052 0.169776,0.916687 0,0 0,0 0,0 0.122123,0.749886 0.216486,1.493662 0.30444,2.226809 0.101694,0.846116 0.193962,1.686168 0.287518,2.517853 0.09471,0.841251 0.189812,1.673766 0.296765,2.495029 0,0 0,0 0,0 0.09533,0.729874 0.196242,1.443977 0.32731,2.13664 0.05346,0.281916 0.110133,0.554494 0.176946,0.815614 0.05461,0.209615 0.107598,0.398275 0.172591,0.559775 0.05934,0.122974 0.07735,0.189188 0.0823,0.17388 0,-0.0136 -0.04436,-0.04742 -0.128369,-0.10965 -0.08487,-0.06082 -0.208854,-0.09367 -0.377226,-0.104922 -0.1686,0.01019 -0.294319,0.04322 -0.382527,0.105291 -0.08688,0.06385 -0.132935,0.099 -0.135148,0.113869 0,0 0,0 0,0 0,0.01775 0.0136,-0.04691 0.06831,-0.169409 0.05863,-0.161868 0.104255,-0.350088 0.151287,-0.558528 0.05789,-0.262688 0.104808,-0.53506 0.148128,-0.815039 0.108588,-0.703821 0.18338,-1.417556 0.250999,-2.135625 0.07839,-0.836364 0.141719,-1.66844 0.20187,-2.493715 0.06172,-0.847477 0.119078,-1.687045 0.181211,-2.516516 0.05575,-0.745666 0.11472,-1.488749 0.193062,-2.225932 0.0321,-0.302481 0.06833,-0.608511 0.113385,-0.917033 0,0 0,0 0,0 0.03451,-0.240417 0.07733,-0.495173 0.138329,-0.761182 0,0 0,0 0,0 0.02983,-0.162561 0.09552,-0.389998 0.223749,-0.667233 0.03039,-0.08775 0.125142,-0.225155 0.290445,-0.403992 0.123851,-0.168393 0.399219,-0.285005 0.821332,-0.337179 2.704322,-0.01291 5.21512,-0.0219 7.477249,-0.02617 1.031039,-0.0023 2.010392,-0.003 2.932888,-0.003 0.139161,0 1.04545,-0.176761 1.754781,-0.199217 0.04807,-0.0023 0.09521,-0.0023 0.141189,-0.0023 z"
     style="fill:#9effb4;fill-opacity:0.83999997;fill-rule:nonzero;stroke:none;stroke-width:0.87819636"
     inkscape:connector-curvature="0" />
</svg>
