<svg width="64" height="64" xmlns="http://www.w3.org/2000/svg" xmlns:xlink="http://www.w3.org/1999/xlink"><defs><radialGradient id="t" cx="32" cy="20.434" r="32" gradientTransform="matrix(0 2.1587 -1.5272 0 63.207 -51.054)" gradientUnits="userSpaceOnUse"><stop stop-color="#364f47" offset="0"/><stop stop-color="#3a313f" offset="1"/></radialGradient><radialGradient id="b" cx="31.744" cy="30.855" r="32" gradientTransform="translate(277.45 965.74) scale(1.1553)" gradientUnits="userSpaceOnUse"><stop stop-color="#2a3441" offset="0"/><stop stop-color="#4f4e73" offset="1"/></radialGradient><radialGradient id="c" cx="35.574" cy="1.019" r="32" gradientTransform="matrix(0 1.1252 -5.1753 0 37.271 -39.029)" gradientUnits="userSpaceOnUse" xlink:href="#a"/><radialGradient id="d" cx="35.574" cy="1.036" r="32" gradientTransform="matrix(0 1.1252 -5.1753 0 37.363 -39.029)" gradientUnits="userSpaceOnUse" xlink:href="#a"/><radialGradient id="e" cx="35.574" cy="1.055" r="32" gradientTransform="matrix(0 1.1252 -5.1753 0 37.458 -39.029)" gradientUnits="userSpaceOnUse" xlink:href="#a"/><radialGradient id="f" cx="35.574" cy="1.071" r="32" gradientTransform="matrix(0 1.1252 -5.1753 0 37.544 -39.029)" gradientUnits="userSpaceOnUse" xlink:href="#a"/><radialGradient id="g" cx="35.574" cy="1.091" r="32" gradientTransform="matrix(0 1.1252 -5.1753 0 37.648 -39.029)" gradientUnits="userSpaceOnUse" xlink:href="#a"/><radialGradient id="h" cx="35.574" cy="1.113" r="32" gradientTransform="matrix(0 1.1252 -5.1753 0 37.758 -39.029)" gradientUnits="userSpaceOnUse" xlink:href="#a"/><radialGradient id="i" cx="35.574" cy="1.135" r="32" gradientTransform="matrix(0 1.1252 -5.1753 0 37.875 -39.029)" gradientUnits="userSpaceOnUse" xlink:href="#a"/><radialGradient id="j" cx="35.574" cy="1.159" r="32" gradientTransform="matrix(0 1.1252 -5.1753 0 38 -39.029)" gradientUnits="userSpaceOnUse" xlink:href="#a"/><radialGradient id="k" cx="35.574" cy="1.18" r="32" gradientTransform="matrix(0 1.1252 -5.1753 0 38.107 -39.029)" gradientUnits="userSpaceOnUse" xlink:href="#a"/><radialGradient id="l" cx="35.574" cy="1.208" r="32" gradientTransform="matrix(0 1.1252 -5.1753 0 38.252 -39.029)" gradientUnits="userSpaceOnUse" xlink:href="#a"/><radialGradient id="m" cx="35.574" cy="1.239" r="32" gradientTransform="matrix(0 1.1252 -5.1753 0 38.411 -39.029)" gradientUnits="userSpaceOnUse" xlink:href="#a"/><radialGradient id="n" cx="35.574" cy="1.273" r="32" gradientTransform="matrix(0 1.1252 -5.1753 0 38.587 -39.029)" gradientUnits="userSpaceOnUse" xlink:href="#a"/><radialGradient id="o" cx="35.574" cy="1.304" r="32" gradientTransform="matrix(0 1.1252 -5.1753 0 38.75 -39.029)" gradientUnits="userSpaceOnUse" xlink:href="#a"/><radialGradient id="p" cx="35.574" cy="1.346" r="32" gradientTransform="matrix(0 1.1252 -5.1753 0 38.966 -39.029)" gradientUnits="userSpaceOnUse" xlink:href="#a"/><radialGradient id="q" cx="35.574" cy="1.393" r="32" gradientTransform="matrix(0 1.1252 -5.1753 0 39.208 -39.029)" gradientUnits="userSpaceOnUse" xlink:href="#a"/><radialGradient id="r" cx="35.574" cy="1.439" r="32" gradientTransform="matrix(0 1.1252 -5.1753 0 39.446 -39.029)" gradientUnits="userSpaceOnUse" xlink:href="#a"/><radialGradient id="s" cx="36.463" cy="1.498" r="32" gradientTransform="matrix(0 .01804 -2.6986 0 36.042 1.341)" gradientUnits="userSpaceOnUse"><stop stop-color="#badcff" stop-opacity=".635" offset="0"/><stop stop-color="#c0d6f6" stop-opacity="0" offset="1"/></radialGradient><linearGradient id="a"><stop stop-color="#d8e9ff" stop-opacity=".094" offset="0"/><stop stop-color="#7e9abb" stop-opacity=".05" offset="1"/></linearGradient></defs><g transform="translate(346.38 -971.27)"><rect transform="scale(-1 1)" x="282.38" y="971.27" width="64" height="64" rx="2.49" ry="2.49" fill="url(#b)" paint-order="fill markers stroke"/><path d="M2 0c-.554 0-2 1.446-2 2v61-.224V63 2h1.752c19.15.002 39.445 0 60.213 0H64v61-.334V63 2c.001-.553-1.447-2.001-2-2z" fill="url(#c)" transform="translate(-346.38 971.27)"/><path d="M2 0C1.445-.001-.005 1.45 0 2.006v60.98-.197c0-.277.004-.184.01.246.012.016.03-.297.052-.897v-60c.072-.009.133-.013.185-.013.29-.016.357-.032.774-.044.246-.011.496-.019.747-.019 19.183.002 39.392 0 60.2 0 .346 0 .689.012 1.023.03.268.01.389.02.52.033.106 0 .22.01.427.028v59.744c.027.754.05 1.148.059 1.123l.003-.334v.286V2.21c0-.143 0-.22-.002-.224-.005-.552-1.46-1.995-2.012-1.986H2" fill="url(#d)" transform="translate(-346.38 971.27)"/><path d="M2 0C1.445-.001-.005 1.45 0 2.006v60.966-.169c0-.245.008-.145.021.266.022.034.06-.247.104-.807V2.274a.744.744 0 0 1 .173-.025c.27-.031.341-.064.743-.088.242-.022.492-.037.742-.037 19.217.002 39.34 0 60.187 0 .347 0 .69.024 1.013.06.256.02.372.042.494.065.1 0 .206.02.398.057v59.731c.055.703.102 1.052.119 1.003.004-.154.006-.265.006-.333v.237V2.196c0-.139 0-.215-.003-.224C63.986 1.504 62.65.108 62.19.02a1.025 1.025 0 0 0-.217-.02H2" fill="url(#e)" transform="translate(-346.38 971.27)"/><path d="M2 0C1.445-.001-.004 1.45 0 2.005v60.953-.14c0-.213.012-.107.031.287.034.05.091-.198.156-.718V2.413a.45.45 0 0 1 .16-.037c.252-.048.327-.097.715-.132.238-.034.487-.056.737-.056 19.25.002 39.286 0 60.173 0 .348 0 .688.036 1.001.09.244.029.356.062.47.098.091 0 .19.03.37.085v59.718c.082.653.151.957.176.884.007-.152.01-.262.01-.333v.188V2.184c0-.135 0-.21-.004-.224-.017-.467-1.359-1.859-1.819-1.94a1.041 1.041 0 0 0-.217-.018H1.999" fill="url(#f)" transform="translate(-346.38 971.27)"/><path d="M2 0C1.445-.001-.004 1.45 0 2.005v60.939-.113c0-.18.015-.068.042.308.045.067.121-.149.208-.629V2.55a.312.312 0 0 1 .148-.05c.232-.063.311-.128.684-.176.234-.044.483-.074.732-.074 19.284.002 39.234 0 60.16 0 .35 0 .689.048.991.12.232.039.34.083.444.13.085 0 .176.04.341.114v59.704c.11.603.203.862.236.764a5.23 5.23 0 0 0 .014-.333v.14V2.168c0-.13-.002-.206-.006-.224-.024-.466-1.37-1.852-1.83-1.927a1.066 1.066 0 0 0-.22-.017H2" fill="url(#g)" transform="translate(-346.38 971.27)"/><path d="M2 0C1.446-.001-.003 1.45 0 2.004V62.93v-.084c0-.148.02-.029.052.328.056.084.152-.099.26-.539V2.686c.053-.04.097-.061.136-.061.212-.08.297-.16.655-.22.23-.056.477-.093.727-.093 19.317.002 39.18 0 60.147 0 .35 0 .688.06.98.151.22.047.322.102.418.162.078 0 .162.049.313.142v59.69c.137.553.253.767.295.645A4.7 4.7 0 0 0 64 62.77v.09V2.155c0-.126-.002-.202-.007-.224-.03-.465-1.382-1.846-1.843-1.914A1.099 1.099 0 0 0 61.932 0H2" fill="url(#h)" transform="translate(-346.38 971.27)"/><path d="M2 0C1.446-.001-.003 1.45 0 2.004v60.912-.056c0-.117.023.01.063.349.067.1.182-.05.312-.45V2.824c.048-.049.088-.074.123-.074.193-.095.282-.192.626-.264.225-.067.472-.11.721-.11h60.133c.352 0 .688.071.97.18.144.033.279.1.393.194.07 0 .147.059.284.17V62.6c.164.502.304.671.354.524.014-.14.02-.25.02-.331v.042V2.14c0-.121-.002-.197-.009-.224-.037-.464-1.393-1.84-1.854-1.902A1.142 1.142 0 0 0 61.918 0H2" fill="url(#i)" transform="translate(-346.38 971.27)"/><path d="M2 0C1.446-.001-.003 1.45 0 2.004v60.898-.029c0-.084.027.049.073.37.079.117.212 0 .365-.36V2.96c.043-.057.079-.086.11-.086.174-.112.267-.225.596-.309a2.19 2.19 0 0 1 .717-.129c19.385.002 39.075 0 60.12 0 .353 0 .687.084.958.211a.81.81 0 0 1 .368.227c.063 0 .132.068.256.199v59.665c.192.452.354.576.413.404.014-.11.022-.22.024-.33V2.125c0-.117-.004-.193-.01-.224-.044-.464-1.405-1.835-1.868-1.89A1.198 1.198 0 0 0 61.905 0H2" fill="url(#j)" transform="translate(-346.38 971.27)"/><path d="M2 0C1.446-.001-.003 1.45 0 2.003v60.885c0-.052.03.087.084.39.09.135.242.05.416-.27V3.097C.538 3.034.57 3 .599 3c.154-.127.251-.257.566-.352.217-.089.463-.148.711-.148 19.418.002 39.022 0 60.107 0 .355 0 .687.096.947.242.138.05.257.14.343.258.056 0 .118.079.227.227v59.651c.22.402.406.482.473.285.018-.132.027-.243.027-.33V2.112c0-.113-.004-.188-.012-.224-.05-.463-1.416-1.828-1.879-1.877A1.273 1.273 0 0 0 61.891 0H2.001" fill="url(#k)" transform="translate(-346.38 971.27)"/><path d="M2 0C1.446-.001-.003 1.45 0 2.003v60.899c0-.02.035.126.094.41.101.152.273.1.468-.18V3.235c.034-.073.062-.11.087-.11.135-.143.236-.29.536-.397.213-.1.459-.166.707-.166 19.452.002 38.969 0 60.093 0 .356 0 .687.108.936.272.134.06.246.162.317.29.05 0 .103.089.2.256v59.64c.246.352.455.386.531.165.02-.128.03-.239.03-.33V2.1c0-.108-.004-.184-.013-.224-.057-.462-1.428-1.821-1.891-1.864a1.376 1.376 0 0 0-.218-.01H2" fill="url(#l)" transform="translate(-346.38 971.27)"/><path d="M2 0C1.446-.001-.002 1.448 0 2.002v60.913c0 .013.039.165.105.432.112.168.303.148.52-.092V3.373c.029-.081.053-.123.074-.123.116-.159.222-.321.507-.44a1.52 1.52 0 0 1 .701-.185c19.486.002 38.916 0 60.08 0 .357 0 .687.12.925.302a.66.66 0 0 1 .292.323c.043 0 .089.098.171.284V63.16c.275.302.507.29.591.046.022-.125.034-.236.034-.33V2.085c0-.104-.005-.18-.016-.224-.063-.46-1.44-1.815-1.903-1.852a1.514 1.514 0 0 0-.218-.008H2" fill="url(#m)" transform="translate(-346.38 971.27)"/><path d="M2 0C1.446-.001-.002 1.448 0 2.002V62.93c0 .045.042.203.115.453.123.184.333.197.572-.003V3.51c.024-.089.045-.135.062-.135.097-.174.207-.353.478-.484.204-.122.448-.203.696-.203 19.519.002 38.863 0 60.067 0a1.4 1.4 0 0 1 .914.332c.15.103.224.225.267.355.035 0 .073.108.142.313V63.3c.302.251.557.196.65-.074a1.7 1.7 0 0 0 .037-.33V2.071c0-.1-.006-.175-.017-.224-.07-.46-1.45-1.81-1.915-1.84A1.712 1.712 0 0 0 61.85 0H2" fill="url(#n)" transform="translate(-346.38 971.27)"/><path d="M2 0C1.446-.001-.002 1.448 0 2.002v60.942c0 .077.046.242.126.473.134.201.363.246.624.086V3.647C.77 3.55.785 3.5.8 3.5a.981.981 0 0 1 .447-.529c.2-.133.444-.221.691-.221 19.553.002 38.811 0 60.053 0 .36 0 .686.144.903.362a.688.688 0 0 1 .242.388c.028 0 .059.118.114.341v59.598c.33.2.608.1.709-.194.026-.117.04-.228.04-.329V2.056c0-.095-.006-.17-.018-.224-.076-.46-1.462-1.803-1.927-1.827A2.015 2.015 0 0 0 61.836 0H2" fill="url(#o)" transform="translate(-346.38 971.27)"/><path d="M2 0C1.447-.001-.002 1.448 0 2.001v60.956c0 .11.05.281.136.494.146.218.394.296.677.176V3.784c.014-.105.026-.16.036-.16a.967.967 0 0 1 .419-.572c.196-.144.439-.24.686-.24 19.586.002 38.758 0 60.04 0 .36 0 .685.156.892.392a.73.73 0 0 1 .216.42c.021 0 .044.128.086.37v59.585c.356.15.658.005.768-.314.029-.114.044-.224.044-.328V2.042c0-.09-.007-.166-.02-.224-.083-.458-1.474-1.797-1.94-1.814a2.524 2.524 0 0 0-.217-.005H2" fill="url(#p)" transform="translate(-346.38 971.27)"/><path d="M2 0C1.447-.001-.001 1.447 0 2v60.972c0 .142.054.32.147.515.156.241.453.35.728.265V3.922c.01-.114.018-.172.025-.172a.97.97 0 0 1 .389-.617c.192-.155.434-.258.68-.258 19.62.002 38.705 0 60.027 0 .362 0 .686.168.882.422.11.127.176.286.19.453.015 0 .03.137.057.398V63.72c.385.1.71-.09.828-.434.03-.11.047-.22.047-.328V2.028c0-.086-.007-.161-.021-.224-.09-.457-1.485-1.79-1.951-1.802A3.563 3.563 0 0 0 61.809 0H2" fill="url(#q)" transform="translate(-346.38 971.27)"/><path d="M2 0C1.447-.001-.001 1.447 0 2v60.986c0 .174.058.358.157.535.17.259.473.397.78.355V4.06c.005-.122.01-.185.013-.185a.987.987 0 0 1 .36-.66c.187-.166.429-.277.675-.277 19.653.002 38.652 0 60.013 0 .363 0 .685.18.87.452.102.141.16.31.166.485.007 0 .015.147.028.427V63.86c.412.05.76-.186.887-.553a1.1 1.1 0 0 0 .05-.328V2.014c.01-.553-1.432-2.008-1.985-2.014a6.67 6.67 0 0 0-.219 0H2" fill="url(#r)" transform="translate(-346.38 971.27)"/><path d="M2 0C1.447-.001-.001 1.447 0 2v1h64v-.998c.001-.553-1.447-2.001-2-2H2z" fill="url(#s)" transform="translate(-346.38 971.27)"/></g><path color="#000" fill="url(#t)" d="M3 5h58v56H3z"/><g fill="#c7e573" fill-opacity=".536" aria-label=".~. /V\ // \\ /( )\ ^`~'^"><path d="M42.505 11.434q.396 0 .396.432t-.396.433q-.393 0-.393-.433t.393-.432zM44.5 10.692v-.422q.258-.281.643-.281.26 0 .646.164.339.146.523.146.282 0 .592-.315v.422q-.258.28-.646.28-.26 0-.643-.163-.342-.146-.524-.146-.281 0-.591.315zM48.901 11.434q.396 0 .396.432t-.396.433q-.393 0-.393-.433t.393-.432zM43.552 13.744l-1.633 3.807h-.463l1.632-3.807zM46.7 13.744h.518l-1.273 3.807h-.487l-1.268-3.807h.51l.768 2.414q.107.33.23.87.08-.378.242-.885zM48.315 13.744l1.633 3.807h-.464l-1.633-3.807zM40.354 19.078l-1.633 3.807h-.463l1.632-3.807zM43.552 19.078l-1.633 3.807h-.463l1.632-3.807zM48.315 19.078l1.633 3.807h-.464l-1.633-3.807zM51.513 19.078l1.633 3.807h-.464l-1.633-3.807zM37.156 24.411l-1.633 3.807h-.463l1.633-3.807zM39.633 24.411h.503q-1.17.98-1.17 2.326 0 1.356 1.164 2.325h-.497q-1.156-.92-1.156-2.32 0-1.386 1.156-2.33zM51.773 29.062h-.495q1.162-.966 1.162-2.325 0-1.35-1.167-2.326h.5q1.159.94 1.159 2.33 0 1.407-1.159 2.321zM54.711 24.411l1.633 3.807h-.464l-1.633-3.807zM37.997 32.122l1.104-2.406h.266l1.252 2.406h-.421l-.959-1.914-.828 1.914zM43.018 30.32h-.315q-.432-.37-.708-.8v-.054h.57q.224.463.453.784zM44.5 32.026v-.422q.258-.281.643-.281.26 0 .646.164.339.146.523.146.282 0 .592-.315v.422q-.258.28-.646.28-.26 0-.643-.163-.342-.146-.524-.146-.281 0-.591.315zM49.211 29.744l-.107 1.375h-.403l-.107-1.375zM50.789 32.122l1.104-2.406h.266l1.252 2.406h-.421l-.959-1.914-.828 1.914z"/></g><g fill="none" opacity=".654" stroke-linecap="round" stroke-linejoin="round"><g stroke="#56ff07" stroke-opacity=".02"><path stroke-width="9" d="M13 49h13v2H13z"/><path stroke-width="8" d="M13 49h13v2H13z"/><path stroke-width="4" d="M13 49h13v2H13z"/><path stroke-width="7" d="M13 49h13v2H13z"/><path stroke-width="6" d="M13 49h13v2H13z"/></g><path stroke="#b5ff24" stroke-opacity=".041" stroke-width="4" d="M13 49h13v2H13z"/></g><path fill="#d5de97" d="M13 49h13v2H13z"/><g fill="#080038" fill-opacity=".06"><path d="M3 5v56h58V5zm1.5 1.897h55v52.706h-55z"/><path d="M3 5v56h58V5zm2.5 2.897h53v50.706h-53z"/><path d="M3 5v56h58V5zm4.5 4.896h49v46.707h-49z"/></g><path d="M0 2v2.5l2-2zM64 4.5l-2-2 2-.5z" fill="#fffeff" fill-opacity=".45"/></svg>