<?xml version="1.0" encoding="UTF-8"?>
<svg width="64" height="64" version="1.1" xmlns="http://www.w3.org/2000/svg" xmlns:xlink="http://www.w3.org/1999/xlink">
	<defs>
		<radialGradient id="b" cx="32" cy="33" r="32" gradientTransform="matrix(1.2294 0 0 1.191 -7.34 -6.302)" gradientUnits="userSpaceOnUse">
			<stop stop-color="#3b7eed" offset="0"/>
			<stop stop-color="#2992db" offset="1"/>
		</radialGradient>
		<radialGradient id="c" cx="35.574" cy="1.019" r="32" gradientTransform="matrix(0 1.1252 -5.1753 0 37.271 -39.029)" gradientUnits="userSpaceOnUse" xlink:href="#a"/>
		<radialGradient id="d" cx="35.574" cy="1.036" r="32" gradientTransform="matrix(0 1.1252 -5.1753 0 37.363 -39.029)" gradientUnits="userSpaceOnUse" xlink:href="#a"/>
		<radialGradient id="e" cx="35.574" cy="1.055" r="32" gradientTransform="matrix(0 1.1252 -5.1753 0 37.458 -39.029)" gradientUnits="userSpaceOnUse" xlink:href="#a"/>
		<radialGradient id="f" cx="35.574" cy="1.071" r="32" gradientTransform="matrix(0 1.1252 -5.1753 0 37.544 -39.029)" gradientUnits="userSpaceOnUse" xlink:href="#a"/>
		<radialGradient id="g" cx="35.574" cy="1.091" r="32" gradientTransform="matrix(0 1.1252 -5.1753 0 37.648 -39.029)" gradientUnits="userSpaceOnUse" xlink:href="#a"/>
		<radialGradient id="h" cx="35.574" cy="1.113" r="32" gradientTransform="matrix(0 1.1252 -5.1753 0 37.758 -39.029)" gradientUnits="userSpaceOnUse" xlink:href="#a"/>
		<radialGradient id="i" cx="35.574" cy="1.135" r="32" gradientTransform="matrix(0 1.1252 -5.1753 0 37.875 -39.029)" gradientUnits="userSpaceOnUse" xlink:href="#a"/>
		<radialGradient id="j" cx="35.574" cy="1.159" r="32" gradientTransform="matrix(0 1.1252 -5.1753 0 38 -39.029)" gradientUnits="userSpaceOnUse" xlink:href="#a"/>
		<radialGradient id="k" cx="35.574" cy="1.18" r="32" gradientTransform="matrix(0 1.1252 -5.1753 0 38.107 -39.029)" gradientUnits="userSpaceOnUse" xlink:href="#a"/>
		<radialGradient id="l" cx="35.574" cy="1.208" r="32" gradientTransform="matrix(0 1.1252 -5.1753 0 38.252 -39.029)" gradientUnits="userSpaceOnUse" xlink:href="#a"/>
		<radialGradient id="m" cx="35.574" cy="1.239" r="32" gradientTransform="matrix(0 1.1252 -5.1753 0 38.411 -39.029)" gradientUnits="userSpaceOnUse" xlink:href="#a"/>
		<radialGradient id="n" cx="35.574" cy="1.273" r="32" gradientTransform="matrix(0 1.1252 -5.1753 0 38.587 -39.029)" gradientUnits="userSpaceOnUse" xlink:href="#a"/>
		<radialGradient id="o" cx="35.574" cy="1.304" r="32" gradientTransform="matrix(0 1.1252 -5.1753 0 38.75 -39.029)" gradientUnits="userSpaceOnUse" xlink:href="#a"/>
		<radialGradient id="p" cx="35.574" cy="1.346" r="32" gradientTransform="matrix(0 1.1252 -5.1753 0 38.966 -39.029)" gradientUnits="userSpaceOnUse" xlink:href="#a"/>
		<radialGradient id="q" cx="35.574" cy="1.393" r="32" gradientTransform="matrix(0 1.1252 -5.1753 0 39.208 -39.029)" gradientUnits="userSpaceOnUse" xlink:href="#a"/>
		<radialGradient id="r" cx="35.574" cy="1.439" r="32" gradientTransform="matrix(0 1.1252 -5.1753 0 39.446 -39.027)" gradientUnits="userSpaceOnUse" xlink:href="#a"/>
		<radialGradient id="s" cx="16.612" cy="1.481" r="32" gradientTransform="matrix(0 .01314 -1.2755 0 33.91 1.279)" gradientUnits="userSpaceOnUse">
			<stop stop-color="#9af2ff" stop-opacity=".477" offset="0"/>
			<stop stop-color="#fff" stop-opacity=".002" offset="1"/>
		</radialGradient>
		<radialGradient id="t" cx="32.576" cy="30.157" r="26.479" gradientTransform="translate(.31 -.245) scale(.99046)" gradientUnits="userSpaceOnUse">
			<stop stop-color="#5fc3ef" stop-opacity=".001" offset="0"/>
			<stop stop-color="#2864ff" stop-opacity="0" offset=".468"/>
			<stop stop-color="#679dff" stop-opacity=".40032" offset=".744"/>
			<stop stop-color="#95d9ff" stop-opacity=".489" offset="1"/>
		</radialGradient>
		<radialGradient id="u" cx="32.672" cy="5.636" r="26.479" gradientTransform="matrix(1.6174 0 0 1.4292 -20.17 -1.023)" gradientUnits="userSpaceOnUse">
			<stop stop-color="#aaf5ff" stop-opacity=".80305" offset="0"/>
			<stop stop-color="#6ed5ff" stop-opacity=".038841" offset=".624"/>
			<stop stop-color="#0bd2ff" stop-opacity="0" offset="1"/>
		</radialGradient>
		<radialGradient id="w" cx="32.726" cy="41.368" r="26.479" gradientTransform="matrix(.352 0 0 .33173 21.229 6.493)" gradientUnits="userSpaceOnUse">
			<stop stop-color="#cdffff" stop-opacity=".8" offset="0"/>
			<stop stop-color="#cdffff" stop-opacity=".8" offset=".187"/>
			<stop stop-color="#16daff" stop-opacity=".004" offset=".309"/>
			<stop stop-color="#6ff" stop-opacity="0" offset="1"/>
		</radialGradient>
		<radialGradient id="v" cx="32.576" cy="13.569" r="26.479" gradientTransform="matrix(.74498 0 0 .40428 8.3075 8.8218)" gradientUnits="userSpaceOnUse">
			<stop stop-color="#edffff" stop-opacity=".98431" offset="0"/>
			<stop stop-color="#cefeff" stop-opacity=".82994" offset=".187"/>
			<stop stop-color="#16daff" stop-opacity=".004" offset=".28537"/>
			<stop stop-color="#6ff" stop-opacity="0" offset="1"/>
		</radialGradient>
		<linearGradient id="a">
			<stop stop-color="#7ef6ff" stop-opacity=".1" offset="0"/>
			<stop stop-color="#96f4ff" stop-opacity=".047" offset="1"/>
		</linearGradient>
	</defs>
	<path d="M1 0C.446 0 0 .446 0 1v62c0 .554.446 1 1 1h62c.554 0 1-.446 1-1V1c0-.554-.446-1-1-1z" fill="url(#b)" style="-inkscape-stroke:none;font-variation-settings:normal"/>
	<path transform="translate(0 .059)" d="M1 0C.446 0 0 .446 0 1v62-.224V63 1h1.752c19.15.002 39.445 0 60.213 0H64v62-.334V63 1a.998.998 0 0 0-1-1z" fill="url(#c)"/>
	<path transform="translate(0 .059)" d="M1 0a.998.998 0 0 0-1 1.006v61.98-.197c0-.277.004-.184.01.246.012.016.03-.297.052-.897v-61c.072-.009.133-.013.185-.013.29-.016.357-.032.774-.044.246-.011.496-.019.747-.019 19.183.002 39.392 0 60.2 0 .346 0 .689.012 1.023.03.268.01.389.02.52.033.106 0 .22.01.427.028v60.744c.027.754.05 1.148.059 1.123l.003-.334v.286V1.21c0-.143 0-.22-.002-.224A.996.996 0 0 0 62.986 0H1" fill="url(#d)"/>
	<path transform="translate(0 .059)" d="M1 0a.998.998 0 0 0-1 1.006v61.966-.169c0-.245.008-.145.021.266.022.034.06-.247.104-.807V1.274a.744.744 0 0 1 .173-.025c.27-.031.341-.064.743-.088.242-.022.492-.037.742-.037 19.217.002 39.34 0 60.187 0 .347 0 .69.024 1.013.06.256.02.372.042.494.065.1 0 .206.02.398.057v60.731c.055.703.102 1.052.119 1.003.004-.154.006-.265.006-.333v.237V1.196c0-.139 0-.215-.003-.224A.994.994 0 0 0 63.19.02a1.025 1.025 0 0 0-.217-.02H1" fill="url(#e)"/>
	<path transform="translate(0 .059)" d="M1 0a.998.998 0 0 0-1 1.005v61.953-.14c0-.213.012-.107.031.287.034.05.091-.198.156-.718V1.413a.45.45 0 0 1 .16-.037c.252-.048.327-.097.715-.132.238-.034.487-.056.737-.056 19.25.002 39.286 0 60.173 0 .348 0 .688.036 1.001.09.244.029.356.062.47.098.091 0 .19.03.37.085v60.718c.082.653.151.957.176.884.007-.152.01-.262.01-.333v.188V1.184c0-.135 0-.21-.004-.224a.992.992 0 0 0-.819-.94 1.041 1.041 0 0 0-.217-.018H.999" fill="url(#f)"/>
	<path transform="translate(0 .059)" d="M1 0a.998.998 0 0 0-1 1.005v61.939-.113c0-.18.015-.068.042.308.045.067.121-.149.208-.629V1.55a.312.312 0 0 1 .148-.05c.232-.063.311-.128.684-.176.234-.044.483-.074.732-.074 19.284.002 39.234 0 60.16 0 .35 0 .689.048.991.12.232.039.34.083.444.13.085 0 .176.04.341.114v60.704c.11.603.203.862.236.764.008-.11.013-.222.014-.333v.14V1.168c0-.13-.002-.206-.006-.224a.991.991 0 0 0-.83-.927 1.066 1.066 0 0 0-.22-.017H1" fill="url(#g)"/>
	<path transform="translate(0 .059)" d="M1 0a.998.998 0 0 0-1 1.004V62.93v-.084c0-.148.02-.029.052.328.056.084.152-.099.26-.539V1.686c.053-.04.097-.061.136-.061.212-.08.297-.16.655-.22.23-.056.477-.093.727-.093 19.317.002 39.18 0 60.147 0 .35 0 .688.06.98.151.22.047.322.102.418.162.078 0 .162.049.313.142v60.69c.137.553.253.767.295.645A4.7 4.7 0 0 0 64 62.77v.09V1.155c0-.126-.002-.202-.007-.224a.99.99 0 0 0-.843-.914A1.099 1.099 0 0 0 62.932 0H1" fill="url(#h)"/>
	<path transform="translate(0 .059)" d="M1 0a.998.998 0 0 0-1 1.004v61.912-.056c0-.117.023.01.063.349.067.1.182-.05.312-.45V1.824c.048-.049.088-.074.123-.074.193-.095.282-.192.626-.264.225-.067.472-.11.721-.11h60.133c.352 0 .688.071.97.18.144.033.279.1.393.194.07 0 .147.059.284.17V62.6c.164.502.304.671.354.524.014-.14.02-.25.02-.331v.042V1.14c0-.121-.002-.197-.009-.224a.99.99 0 0 0-.854-.902A1.142 1.142 0 0 0 62.918 0H1" fill="url(#i)"/>
	<path transform="translate(0 .059)" d="M1 0a.998.998 0 0 0-1 1.004v61.898-.029c0-.084.027.049.073.37.079.117.212 0 .365-.36V1.96c.043-.057.079-.086.11-.086.174-.112.267-.225.596-.309a2.19 2.19 0 0 1 .717-.129c19.385.002 39.075 0 60.12 0 .353 0 .687.084.958.211a.81.81 0 0 1 .368.227c.063 0 .132.068.256.199v60.665c.192.452.354.576.413.404.014-.11.022-.22.024-.33V1.125c0-.117-.004-.193-.01-.224a.99.99 0 0 0-.868-.89A1.198 1.198 0 0 0 62.905 0H1" fill="url(#j)"/>
	<path transform="translate(0 .059)" d="M1 0a.998.998 0 0 0-1 1.003v61.885c0-.052.03.087.084.39.09.135.242.05.416-.27V2.097C.538 2.034.57 2 .599 2c.154-.127.251-.257.566-.352.217-.089.463-.148.711-.148 19.418.002 39.022 0 60.107 0 .355 0 .687.096.947.242.138.05.257.14.343.258.056 0 .118.079.227.227v60.651c.22.402.406.482.473.285.018-.132.027-.243.027-.33V1.112c0-.113-.004-.188-.012-.224a.99.99 0 0 0-.879-.877A1.273 1.273 0 0 0 62.891 0H1.001" fill="url(#k)"/>
	<path transform="translate(0 .059)" d="M1 0a.998.998 0 0 0-1 1.003v61.899c0-.02.035.126.094.41.101.152.273.1.468-.18V2.235c.034-.073.062-.11.087-.11.135-.143.236-.29.536-.397.213-.1.459-.166.707-.166 19.452.002 38.969 0 60.093 0 .356 0 .687.108.936.272.134.06.246.162.317.29.05 0 .103.089.2.256v60.64c.246.352.455.386.531.165.02-.128.03-.239.03-.33V1.1c0-.108-.004-.184-.013-.224a.99.99 0 0 0-.891-.864 1.376 1.376 0 0 0-.218-.01H1" fill="url(#l)"/>
	<path transform="translate(0 .059)" d="M1 0a.998.998 0 0 0-1 1.002v61.913c0 .013.039.165.105.432.112.168.303.148.52-.092V2.373c.029-.081.053-.123.074-.123.116-.159.222-.321.507-.44a1.52 1.52 0 0 1 .701-.185c19.486.002 38.916 0 60.08 0 .357 0 .687.12.925.302a.66.66 0 0 1 .292.323c.043 0 .089.098.171.284V63.16c.275.302.507.29.591.046.022-.125.034-.236.034-.33V1.085c0-.104-.005-.18-.016-.224a.99.99 0 0 0-.903-.852 1.514 1.514 0 0 0-.218-.008H1" fill="url(#m)"/>
	<path transform="translate(0 .059)" d="M1 0a.998.998 0 0 0-1 1.002V62.93c0 .045.042.203.115.453.123.184.333.197.572-.003V2.51c.024-.089.045-.135.062-.135.097-.174.207-.353.478-.484.204-.122.448-.203.696-.203 19.519.002 38.863 0 60.067 0a1.4 1.4 0 0 1 .914.332c.15.103.224.225.267.355.035 0 .073.108.142.313V63.3c.302.251.557.196.65-.074a1.7 1.7 0 0 0 .037-.33V1.071c0-.1-.006-.175-.017-.224a.99.99 0 0 0-.915-.84A1.712 1.712 0 0 0 62.85 0H1" fill="url(#n)"/>
	<path transform="translate(0 .059)" d="M1 0a.998.998 0 0 0-1 1.002v61.942c0 .077.046.242.126.473.134.201.363.246.624.086V2.647C.77 2.55.785 2.5.8 2.5a.981.981 0 0 1 .447-.529c.2-.133.444-.221.691-.221 19.553.002 38.811 0 60.053 0 .36 0 .686.144.903.362a.688.688 0 0 1 .242.388c.028 0 .059.118.114.341v60.598c.33.2.608.1.709-.194.026-.117.04-.228.04-.329V1.056c0-.095-.006-.17-.018-.224a.991.991 0 0 0-.927-.827A2.015 2.015 0 0 0 62.836 0H1" fill="url(#o)"/>
	<path transform="translate(0 .059)" d="M1 0a.998.998 0 0 0-1 1.001v61.956c0 .11.05.281.136.494.146.218.394.296.677.176V2.784c.014-.105.026-.16.036-.16a.967.967 0 0 1 .419-.572c.196-.144.439-.24.686-.24 19.586.002 38.758 0 60.04 0 .36 0 .685.156.892.392a.73.73 0 0 1 .216.42c.021 0 .044.128.086.37v60.585c.356.15.658.005.768-.314.029-.114.044-.224.044-.328V1.042c0-.09-.007-.166-.02-.224a.992.992 0 0 0-.94-.814 2.524 2.524 0 0 0-.217-.005H1" fill="url(#p)"/>
	<path transform="translate(0 .059)" d="M1 0a.998.998 0 0 0-1 1v61.972c0 .142.054.32.147.515.156.241.453.35.728.265V2.922c.01-.114.018-.172.025-.172a.97.97 0 0 1 .389-.617c.192-.155.434-.258.68-.258 19.62.002 38.705 0 60.027 0 .362 0 .686.168.882.422.11.127.176.286.19.453.015 0 .03.137.057.398V63.72c.385.1.71-.09.828-.434.03-.11.047-.22.047-.328V1.028c0-.086-.007-.161-.021-.224a.994.994 0 0 0-.951-.802A3.563 3.563 0 0 0 62.809 0H1" fill="url(#q)"/>
	<path transform="translate(0 .057)" d="M1 .002a.998.998 0 0 0-1 1v61.986c0 .174.058.358.157.535.17.259.473.397.78.355V3.062c.005-.122.01-.185.013-.185a.987.987 0 0 1 .36-.66c.187-.166.429-.277.675-.277 19.653.002 38.652 0 60.013 0 .363 0 .685.18.87.452a.88.88 0 0 1 .166.485c.007 0 .015.147.028.427v60.558c.412.05.76-.186.887-.553a1.1 1.1 0 0 0 .05-.328V1.016a.996.996 0 0 0-.985-1.014 6.67 6.67 0 0 0-.22 0H1" fill="url(#r)"/>
	<path transform="translate(0 .057)" d="M1 .002a.998.998 0 0 0-1 1v1h64v-.998a.998.998 0 0 0-1-1H1z" fill="url(#s)"/>
	<path d="M0 1v2.5l2-2zm64 2.5-2-2 2-.5z" fill="#fffeff" fill-opacity=".45"/>
	<g fill="#090b0f" fill-opacity=".05" opacity=".26662">
		<path d="m40.994 42.306-4.503 4.503-.448.45-.052.05-.499-.5-.5-.501a.707.707 0 0 0-1.002 0L20.486 59.814a.707.707 0 0 0 0 1.001l6.5 6.502a.707.707 0 0 0 1.003 0L41.492 53.81a.705.705 0 0 0 0-1l-1-1.001.501-.499 4.5-4.502-2.499-2.5-.5-.5-1.002-1.002z"/>
		<path d="m40.579 37.677-4.272 4.272-.426.428-.05.047-.472-.475-.475-.475a.671.671 0 0 0-.95 0L21.121 54.288a.671.671 0 0 0 0 .95l6.169 6.168a.67.67 0 0 0 .95 0l12.81-12.814a.668.668 0 0 0 0-.948l-.947-.95.475-.473 4.27-4.272L43.9 41l-.476-.475-.948-.949-.475-.475-.95-.95z"/>
		<path d="m40.446 36.198-4.198 4.198-.419.42-.048.047-.465-.467-.467-.467a.66.66 0 0 0-.934 0l-12.59 12.592a.66.66 0 0 0 0 .934l.465.465 5.597 5.596a.659.659 0 0 0 .934 0l12.59-12.592a.657.657 0 0 0 0-.931l-.932-.934.467-.465 4.196-4.198-3.731-3.731z"/>
		<path d="m40.35 35.122-4.144 4.144-.414.416-.048.045-.458-.46-.461-.462a.651.651 0 0 0-.922 0l-12.43 12.431a.651.651 0 0 0 0 .922l5.985 5.985a.65.65 0 0 0 .922 0L40.809 45.71a.648.648 0 0 0 0-.92l-.92-.922.461-.459 4.142-4.144-3.683-3.684z"/>
		<path d="m40.271 34.246-4.1 4.1-.41.412-.047.045-.454-.456-.456-.456a.644.644 0 0 0-.912 0l-12.298 12.3a.644.644 0 0 0 0 .912l5.92 5.921a.644.644 0 0 0 .913 0l12.298-12.3a.642.642 0 0 0 0-.91l-.91-.912.456-.454 4.099-4.101-.91-.91-.457-.456-.91-.91-.456-.457-.912-.912z"/>
		<path d="m40.203 33.493-4.063 4.063-.405.407-.047.045-.45-.452-.452-.452a.638.638 0 0 0-.904 0L21.696 49.292a.638.638 0 0 0 0 .904l5.867 5.867a.638.638 0 0 0 .904 0l12.186-12.188a.636.636 0 0 0 0-.902l-.902-.904.452-.45 4.061-4.063-2.255-2.255-.452-.452-.904-.904z"/>
		<path d="m40.144 32.826-4.03 4.03-.402.404-.046.044-.447-.448-.448-.448a.633.633 0 0 0-.896 0L21.789 48.496a.633.633 0 0 0 0 .896l.446.446 5.373 5.373a.632.632 0 0 0 .896 0L40.59 43.123a.63.63 0 0 0 0-.894l-.894-.897.448-.446 4.028-4.03-3.582-3.582z"/>
		<path d="m40.089 32.223-4 4-.399.4-.046.045-.443-.445-.445-.445a.628.628 0 0 0-.89 0L21.87 47.776a.628.628 0 0 0 0 .89l.443.442 5.333 5.333a.628.628 0 0 0 .89 0l11.996-11.998a.626.626 0 0 0 0-.888l-.888-.89.445-.442 3.998-4-2.22-2.22-.445-.446-.89-.89z"/>
		<path d="m40.04 31.67-3.973 3.972-.396.398-.045.044-.44-.442-.442-.442a.624.624 0 0 0-.884 0L21.947 47.115a.624.624 0 0 0 0 .884l5.736 5.736a.624.624 0 0 0 .884 0L40.48 41.82a.621.621 0 0 0 0-.882l-.882-.883.442-.44 3.97-3.973-3.53-3.53z"/>
		<path d="m39.994 31.157-3.947 3.947-.393.395-.046.044-.437-.44-.439-.438a.62.62 0 0 0-.878 0L22.017 46.504a.62.62 0 0 0 0 .878l5.699 5.699a.62.62 0 0 0 .878 0L40.43 41.24a.618.618 0 0 0 0-.875l-.876-.878.44-.437 3.944-3.947-1.315-1.315-.876-.876-.439-.44-.878-.877z"/>
		<path d="M39.95 30.677 36.027 34.6l-.391.393-.045.043-.435-.436-.436-.437a.616.616 0 0 0-.873 0L22.082 45.93a.616.616 0 0 0 0 .873l.435.434 5.23 5.23a.616.616 0 0 0 .872 0L40.384 40.7a.614.614 0 0 0 0-.87l-.87-.873.436-.434 3.92-3.923-.87-.87-.436-.437-.87-.87-.437-.437-.873-.873z"/>
		<path d="m39.91 30.225-3.9 3.9-.39.391-.044.043-.432-.434-.434-.434a.613.613 0 0 0-.868 0l-11.697 11.7a.613.613 0 0 0 0 .867l5.632 5.632a.612.612 0 0 0 .868 0l11.697-11.7a.61.61 0 0 0 0-.865l-.866-.868.434-.431 3.898-3.9-.865-.866-.434-.434-.866-.866-.434-.434-.867-.867z"/>
		<path d="m39.872 29.797-3.88 3.879-.386.389-.045.042-.429-.431-.431-.431a.61.61 0 0 0-.863 0L22.205 44.88a.61.61 0 0 0 0 .862l5.6 5.601a.61.61 0 0 0 .863 0l11.633-11.635a.607.607 0 0 0 0-.86l-.86-.863.431-.43 3.877-3.88-3.448-3.447z"/>
		<path d="m39.835 29.39-3.859 3.859-.385.386-.044.043-.427-.43-.43-.429a.606.606 0 0 0-.858 0L22.26 44.393a.606.606 0 0 0 0 .859l5.572 5.571a.606.606 0 0 0 .858 0L40.262 39.25a.604.604 0 0 0 0-.856l-.856-.858.429-.428 3.857-3.858-3.43-3.43z"/>
		<path d="m39.8 29.002-3.84 3.84-.382.384-.045.042-.425-.427-.427-.427a.603.603 0 0 0-.854 0L22.313 43.93a.603.603 0 0 0 0 .854l5.544 5.544a.603.603 0 0 0 .854 0l11.514-11.516a.6.6 0 0 0 0-.852l-.852-.854.427-.425 3.837-3.84-3.412-3.412z"/>
		<path d="m39.767 28.63-3.82 3.82-.382.384-.044.042-.423-.425-.425-.425a.6.6 0 0 0-.85 0l-11.459 11.46a.6.6 0 0 0 0 .85l5.517 5.518a.6.6 0 0 0 .85 0l11.46-11.461a.598.598 0 0 0 0-.848l-.849-.85.425-.423 3.819-3.821-1.273-1.273-.848-.848-.425-.425-.85-.85z"/>
		<path d="m39.735 28.272-3.803 3.803-.38.381-.043.042-.421-.423-.423-.423a.597.597 0 0 0-.846 0L22.414 43.059a.597.597 0 0 0 0 .846l.42.42 5.07 5.071a.597.597 0 0 0 .847 0l11.405-11.407a.595.595 0 0 0 0-.844l-.844-.846.423-.421 3.801-3.803-.844-.844-.423-.423-2.113-2.113z"/>
		<path d="m39.704 27.927-3.786 3.786-.377.38-.044.04-.42-.42-.42-.421a.595.595 0 0 0-.842 0L22.46 42.648a.595.595 0 0 0 0 .842l.419.419 5.047 5.047a.594.594 0 0 0 .842 0L40.123 37.6a.592.592 0 0 0 0-.84l-.84-.842.42-.42 3.785-3.785-3.365-3.365z"/>
		<path d="m39.674 27.595-3.77 3.77-.375.377-.044.041-.417-.419-.419-.42a.592.592 0 0 0-.839 0L22.506 42.252a.592.592 0 0 0 0 .838l.418.418 5.025 5.025a.591.591 0 0 0 .838 0l11.304-11.306a.59.59 0 0 0 0-.837l-.836-.838.42-.418 3.766-3.769-.836-.836-.42-.42-2.094-2.094z"/>
		<path d="m39.645 27.273-3.753 3.753-.374.376-.044.041-.415-.417-.418-.417a.59.59 0 0 0-.835 0L22.55 41.867a.59.59 0 0 0 0 .835l5.42 5.419a.59.59 0 0 0 .834 0L40.06 36.863a.587.587 0 0 0 0-.833l-.833-.835.418-.416 3.751-3.753-3.336-3.336z"/>
		<path d="M39.617 26.962 35.879 30.7l-.372.374-.043.041-.414-.415-.416-.416a.587.587 0 0 0-.832 0l-11.208 11.21a.587.587 0 0 0 0 .832l5.396 5.397a.587.587 0 0 0 .832 0L40.03 36.512c.23-.23.23-.6 0-.83l-.83-.831.416-.414 3.736-3.738-3.322-3.322z"/>
		<path d="m39.59 26.659-3.723 3.723-.37.373-.044.04-.826-.828a.585.585 0 0 0-.828 0L22.635 41.133c-.23.23-.23.6 0 .829l5.375 5.375a.585.585 0 0 0 .828 0L40.002 36.17a.582.582 0 0 0 0-.826l-.826-.829.414-.412 3.72-3.722-.826-.827-2.482-2.482z"/>
	</g>
	<g fill="#004a84" fill-opacity=".106" opacity=".184" stroke-width="1.549">
		<path transform="translate(6.582 20.458) scale(.79793)" d="M59.304 47.592a26.73 26.73 0 0 1-26.729 26.729C17.814 74.32 5.847 62.355 5.846 47.595v-.003a26.73 26.73 0 0 1 26.728-26.729h.001a26.73 26.73 0 0 1 26.729 26.729z" opacity="1" style="paint-order:stroke fill markers"/>
		<path transform="translate(6.582 20.458) scale(.79793)" d="m57.833 42.752c0 6.779-2.71 13.171-7.397 17.859a25.235 25.235 0 0 1-17.86 7.398c-13.949 0-25.256-11.307-25.257-25.255v-3e-3c0-6.779 2.71-13.171 7.398-17.859a25.235 25.235 0 0 1 17.858-7.397h1e-3c6.779 0 13.171 2.71 17.86 7.397a25.235 25.235 0 0 1 7.397 17.86z" opacity="1" style="paint-order:stroke fill markers"/>
		<path transform="translate(6.582 20.458) scale(.79793)" d="M57.362 41.206a24.76 24.76 0 0 1-7.26 17.527 24.758 24.758 0 0 1-17.526 7.26h-.001c-13.688 0-24.785-11.097-24.786-24.785v-.003c0-6.68 2.675-12.942 7.26-17.526a24.757 24.757 0 0 1 17.526-7.26h.001c6.68.001 12.942 2.676 17.526 7.26s7.26 10.848 7.26 17.528z" opacity="1" style="paint-order:stroke fill markers"/>
		<path transform="translate(6.582 20.458) scale(.79793)" d="m57.02 40.081a24.41 24.41 0 0 1-7.16 17.285 24.41 24.41 0 0 1-17.284 7.16c-13.5 0-24.444-10.944-24.445-24.443v-3e-3a24.41 24.41 0 0 1 7.16-17.284 24.411 24.411 0 0 1 17.284-7.16h1e-3a24.41 24.41 0 0 1 17.284 7.16 24.41 24.41 0 0 1 7.16 17.286z" opacity="1" style="paint-order:stroke fill markers"/>
		<path transform="translate(6.582 20.458) scale(.79793)" d="M56.742 39.165c0 6.549-2.63 12.64-7.078 17.088a24.128 24.128 0 0 1-17.087 7.078h-.001C19.23 63.331 8.41 52.512 8.41 39.166v-.002c0-6.55 2.63-12.64 7.078-17.087a24.127 24.127 0 0 1 17.087-7.078h.001c6.55 0 12.64 2.63 17.088 7.078a24.128 24.128 0 0 1 7.078 17.088z" opacity="1" style="paint-order:stroke fill markers"/>
		<path transform="translate(6.582 20.458) scale(.79793)" d="M56.503 38.379a23.885 23.885 0 0 1-7.008 16.919 23.885 23.885 0 0 1-16.918 7.008h-.001C19.362 62.306 8.65 51.594 8.65 38.38v-.002a23.885 23.885 0 0 1 7.008-16.918 23.885 23.885 0 0 1 16.918-7.008h.001c6.499 0 12.523 2.613 16.918 7.008s7.008 10.42 7.008 16.92z" opacity="1" style="paint-order:stroke fill markers"/>
		<path transform="translate(6.582 20.458) scale(.79793)" d="m56.291 37.682a23.67 23.67 0 0 1-6.946 16.769 23.668 23.668 0 0 1-16.768 6.946h-1e-3c-13.097 0-23.714-10.617-23.714-23.714v-2e-3a23.67 23.67 0 0 1 6.946-16.768 23.669 23.669 0 0 1 16.768-6.946h2e-3c6.453 0 12.42 2.598 16.767 6.946a23.67 23.67 0 0 1 6.946 16.77z" opacity="1" style="paint-order:stroke fill markers"/>
		<path transform="translate(6.582 20.458) scale(.79793)" d="m56.099 37.051a23.473 23.473 0 0 1-6.89 16.633 23.474 23.474 0 0 1-16.633 6.89c-12.992 0-23.523-10.531-23.524-23.522v-2e-3a23.474 23.474 0 0 1 6.89-16.632 23.474 23.474 0 0 1 16.632-6.89h2e-3a23.475 23.475 0 0 1 16.633 6.89 23.475 23.475 0 0 1 6.889 16.633z" opacity="1" style="paint-order:stroke fill markers"/>
		<path transform="translate(6.582 20.458) scale(.79793)" d="m55.923 36.473c0 6.376-2.57 12.241-6.838 16.509a23.296 23.296 0 0 1-16.508 6.838h-1e-3c-12.894 0-23.347-10.453-23.347-23.347v-2e-3a23.296 23.296 0 0 1 6.838-16.508 23.296 23.296 0 0 1 16.508-6.838h1e-3a23.294 23.294 0 0 1 16.508 6.839 23.295 23.295 0 0 1 6.838 16.509z" opacity="1" style="paint-order:stroke fill markers"/>
		<path transform="translate(6.582 20.458) scale(.79793)" d="m55.76 35.937a23.132 23.132 0 0 1-6.79 16.394 23.13 23.13 0 0 1-16.394 6.79c-12.805 0-23.185-10.38-23.185-23.184v-2e-3a23.13 23.13 0 0 1 6.791-16.392 23.13 23.13 0 0 1 16.393-6.79h1e-3a23.13 23.13 0 0 1 16.393 6.791 23.13 23.13 0 0 1 6.79 16.393z" opacity="1" style="paint-order:stroke fill markers"/>
		<path transform="translate(6.582 20.458) scale(.79793)" d="m55.608 35.435c0 6.31-2.548 12.088-6.746 16.286a22.975 22.975 0 0 1-16.285 6.746h-1e-3c-12.72 0-23.031-10.311-23.031-23.031v-2e-3c0-6.31 2.548-12.087 6.746-16.284a22.974 22.974 0 0 1 16.285-6.746h2e-3c6.31 0 12.087 2.548 16.285 6.746s6.745 9.976 6.745 16.285z" opacity="1" style="paint-order:stroke fill markers"/>
		<path transform="translate(6.582 20.458) scale(.79793)" d="m55.464 34.962c0 6.28-2.537 12.018-6.704 16.184a22.829 22.829 0 0 1-16.183 6.704c-12.64 0-22.888-10.247-22.889-22.888v-3e-3a22.83 22.83 0 0 1 6.705-16.183 22.829 22.829 0 0 1 16.183-6.703c6.28 0 12.018 2.538 16.185 6.704a22.829 22.829 0 0 1 6.703 16.184z" opacity="1" style="paint-order:stroke fill markers"/>
		<path transform="translate(6.582 20.458) scale(.79793)" d="m55.328 34.515a22.69 22.69 0 0 1-6.664 16.088 22.69 22.69 0 0 1-16.087 6.664h-1e-3c-12.565 0-22.752-10.186-22.752-22.752v-2e-3a22.686 22.686 0 0 1 6.665-16.087 22.69 22.69 0 0 1 16.087-6.664 22.69 22.69 0 0 1 16.088 6.665 22.69 22.69 0 0 1 6.663 16.088z" opacity="1" style="paint-order:stroke fill markers"/>
		<path transform="translate(6.582 20.458) scale(.79793)" d="m55.198 34.09a22.556 22.556 0 0 1-6.626 15.996 22.558 22.558 0 0 1-15.995 6.626h-1e-3c-12.494 0-22.622-10.128-22.622-22.622v-2e-3a22.558 22.558 0 0 1 6.627-15.995 22.559 22.559 0 0 1 15.996-6.625 22.56 22.56 0 0 1 15.997 6.626 22.559 22.559 0 0 1 6.625 15.996z" opacity="1" style="paint-order:stroke fill markers"/>
		<path transform="translate(6.582 20.458) scale(.79793)" d="m55.075 33.683c0 6.198-2.51 11.828-6.59 15.909a22.433 22.433 0 0 1-15.908 6.59h-1e-3c-12.426 0-22.499-10.073-22.499-22.5v-2e-3c0-6.197 2.51-11.826 6.59-15.907a22.433 22.433 0 0 1 15.909-6.59c6.198 0 11.829 2.51 15.909 6.59a22.433 22.433 0 0 1 6.59 15.91z" opacity="1" style="paint-order:stroke fill markers"/>
		<path transform="translate(6.582 20.458) scale(.79793)" d="m54.956 33.294c0 6.173-2.5 11.771-6.555 15.826a22.313 22.313 0 0 1-15.824 6.555h-1e-3c-12.36 0-22.38-10.02-22.381-22.38v-2e-3c0-6.172 2.501-11.77 6.556-15.824a22.313 22.313 0 0 1 15.825-6.555c6.173 0 11.77 2.501 15.826 6.556a22.313 22.313 0 0 1 6.555 15.825z" opacity="1" style="paint-order:stroke fill markers"/>
		<path transform="translate(6.582 20.458) scale(.79793)" d="m54.843 32.92a22.196 22.196 0 0 1-6.522 15.745 22.197 22.197 0 0 1-15.744 6.522c-12.299 0-22.268-9.97-22.268-22.267v-2e-3a22.2 22.2 0 0 1 6.523-15.744 22.197 22.197 0 0 1 15.744-6.521 22.196 22.196 0 0 1 15.745 6.522 22.198 22.198 0 0 1 6.521 15.745z" opacity="1" style="paint-order:stroke fill markers"/>
	</g>
	<g transform="matrix(.36371 .36371 -.36371 .36371 17.084 -9.5592)" stroke-width="1.71">
		<path d="m75.629 26.259h10.233v-12.507h-10.233z" fill="#abcadd"/>
		<path d="m75.629 25.122h10.233v-1.137h-10.233z" fill="#6b7b93" fill-opacity=".193"/>
		<path d="m75.629 26.259h1.137v-12.507h-1.137z" fill="#f7f9fb" fill-opacity=".647"/>
		<g stroke-width="0">
			<path d="m79.041 13.752h1.137v5.685h-1.137z" fill-opacity=".147"/>
			<path d="m79.041 21.711h1.137v-3.411h-1.137z" fill="#a88307"/>
			<path d="m83.589 13.752h-1.137v5.685h1.137z" fill-opacity=".147"/>
			<path d="m83.589 21.711h-1.137v-3.411h1.137z" fill="#a88307"/>
		</g>
		<rect transform="rotate(-90)" x="-58.095" y="72.218" width="32.973" height="17.055" rx="1.137" ry="1.137" fill="#f5f6f8" style="paint-order:stroke fill markers"/>
		<rect transform="rotate(-90)" x="-58.095" y="73.355" width="32.973" height="15.918" rx="1.137" ry="1.137" fill="#afb9d2" style="paint-order:stroke fill markers"/>
	</g>
	<g transform="translate(5.182 5.237) scale(.84091)" fill-opacity=".999" stroke-width="1.189">
		<circle cx="32.576" cy="32.92" r="26.479" fill="url(#t)" style="paint-order:stroke fill markers"/>
		<circle cx="32.576" cy="32.92" r="26.479" fill="url(#u)" style="paint-order:stroke fill markers"/>
		<circle cx="32.576" cy="32.92" r="26.479" fill="url(#v)" style="paint-order:stroke fill markers"/>
		<circle cx="32.576" cy="32.92" r="26.479" fill="url(#w)" style="paint-order:stroke fill markers"/>
		<circle cx="32.576" cy="32.92" r="25.679" fill="none" stroke="#8ef8ff" stroke-opacity=".45718" stroke-width="1.189" style="paint-order:stroke fill markers"/>
	</g>
</svg>
