<?xml version="1.0" encoding="UTF-8"?>
<!-- Created with Inkscape (http://www.inkscape.org/) -->
<svg width="64" height="64" version="1.1" xmlns="http://www.w3.org/2000/svg" xmlns:cc="http://creativecommons.org/ns#" xmlns:dc="http://purl.org/dc/elements/1.1/" xmlns:rdf="http://www.w3.org/1999/02/22-rdf-syntax-ns#" xmlns:xlink="http://www.w3.org/1999/xlink">
	<defs>
		<radialGradient id="b-05" cx="31.744" cy="30.855" r="32" gradientTransform="matrix(1.1553 0 0 1.1553 277.45 965.74)" gradientUnits="userSpaceOnUse">
			<stop stop-color="#2e3e66" offset="0"/>
			<stop stop-color="#3f425a" offset="1"/>
		</radialGradient>
		<linearGradient id="a-40">
			<stop stop-color="#bee4ff" stop-opacity=".058824" offset="0"/>
			<stop stop-color="#8ec1b4" stop-opacity=".004" offset="1"/>
		</linearGradient>
		<radialGradient id="e-5-6" cx="35.574" cy="1.019" r="32" gradientTransform="matrix(0,1.1252,-5.1753,0,37.271,-39.029)" gradientUnits="userSpaceOnUse" xlink:href="#a-40"/>
		<radialGradient id="f-6-9" cx="35.574" cy="1.036" r="32" gradientTransform="matrix(0,1.1252,-5.1753,0,37.363,-39.029)" gradientUnits="userSpaceOnUse" xlink:href="#a-40"/>
		<radialGradient id="g-2-1" cx="35.574" cy="1.055" r="32" gradientTransform="matrix(0,1.1252,-5.1753,0,37.458,-39.029)" gradientUnits="userSpaceOnUse" xlink:href="#a-40"/>
		<radialGradient id="h-2-3" cx="35.574" cy="1.071" r="32" gradientTransform="matrix(0,1.1252,-5.1753,0,37.544,-39.029)" gradientUnits="userSpaceOnUse" xlink:href="#a-40"/>
		<radialGradient id="i-7" cx="35.574" cy="1.091" r="32" gradientTransform="matrix(0,1.1252,-5.1753,0,37.648,-39.029)" gradientUnits="userSpaceOnUse" xlink:href="#a-40"/>
		<radialGradient id="j-0" cx="35.574" cy="1.113" r="32" gradientTransform="matrix(0,1.1252,-5.1753,0,37.758,-39.029)" gradientUnits="userSpaceOnUse" xlink:href="#a-40"/>
		<radialGradient id="k-9" cx="35.574" cy="1.135" r="32" gradientTransform="matrix(0,1.1252,-5.1753,0,37.875,-39.029)" gradientUnits="userSpaceOnUse" xlink:href="#a-40"/>
		<radialGradient id="l-3" cx="35.574" cy="1.159" r="32" gradientTransform="matrix(0,1.1252,-5.1753,0,38,-39.029)" gradientUnits="userSpaceOnUse" xlink:href="#a-40"/>
		<radialGradient id="m-6" cx="35.574" cy="1.18" r="32" gradientTransform="matrix(0,1.1252,-5.1753,0,38.107,-39.029)" gradientUnits="userSpaceOnUse" xlink:href="#a-40"/>
		<radialGradient id="n-0" cx="35.574" cy="1.208" r="32" gradientTransform="matrix(0,1.1252,-5.1753,0,38.252,-39.029)" gradientUnits="userSpaceOnUse" xlink:href="#a-40"/>
		<radialGradient id="o-6" cx="35.574" cy="1.239" r="32" gradientTransform="matrix(0,1.1252,-5.1753,0,38.411,-39.029)" gradientUnits="userSpaceOnUse" xlink:href="#a-40"/>
		<radialGradient id="p-2" cx="35.574" cy="1.273" r="32" gradientTransform="matrix(0,1.1252,-5.1753,0,38.587,-39.029)" gradientUnits="userSpaceOnUse" xlink:href="#a-40"/>
		<radialGradient id="q-6" cx="35.574" cy="1.304" r="32" gradientTransform="matrix(0,1.1252,-5.1753,0,38.75,-39.029)" gradientUnits="userSpaceOnUse" xlink:href="#a-40"/>
		<radialGradient id="r-1" cx="35.574" cy="1.346" r="32" gradientTransform="matrix(0,1.1252,-5.1753,0,38.966,-39.029)" gradientUnits="userSpaceOnUse" xlink:href="#a-40"/>
		<radialGradient id="s-8" cx="35.574" cy="1.393" r="32" gradientTransform="matrix(0,1.1252,-5.1753,0,39.208,-39.029)" gradientUnits="userSpaceOnUse" xlink:href="#a-40"/>
		<radialGradient id="t-7" cx="35.574" cy="1.439" r="32" gradientTransform="matrix(0,1.1252,-5.1753,0,39.446,-39.027)" gradientUnits="userSpaceOnUse" xlink:href="#a-40"/>
		<radialGradient id="radialGradient869" cx="32" cy="15.077" r="32" gradientTransform="matrix(2.0435 0 0 .014897 -33.393 1.2172)" gradientUnits="userSpaceOnUse">
			<stop stop-color="#74fff4" stop-opacity=".61299" offset="0"/>
			<stop stop-color="#fff" stop-opacity=".001" offset="1"/>
		</radialGradient>
		<linearGradient id="linearGradient174141" x1="47.043" x2="48.036" y1="18.583" y2="15.179" gradientUnits="userSpaceOnUse">
			<stop stop-color="#28b1f0" offset="0"/>
			<stop stop-color="#16d3f3" offset="1"/>
		</linearGradient>
		<linearGradient id="linearGradient182291" x1="41.273" x2="21.837" y1="47.561" y2="47.561" gradientUnits="userSpaceOnUse">
			<stop stop-color="#008ed4" stop-opacity=".83727" offset="0"/>
			<stop stop-color="#008ed4" offset="1"/>
		</linearGradient>
		<linearGradient id="linearGradient196640" x1="13.174" x2="44.787" y1="42.722" y2="16.92" gradientUnits="userSpaceOnUse">
			<stop stop-color="#0076b7" offset="0"/>
			<stop stop-color="#0076b7" offset=".10103"/>
			<stop stop-color="#0076b7" stop-opacity=".88" offset=".21481"/>
			<stop stop-color="#0076b7" stop-opacity=".88" offset=".45138"/>
			<stop stop-color="#0076b7" offset=".57303"/>
			<stop stop-color="#0078b9" stop-opacity=".69597" offset="1"/>
		</linearGradient>
	</defs>
	<metadata>
		<rdf:RDF>
			<cc:Work rdf:about="">
				<dc:format>image/svg+xml</dc:format>
				<dc:type rdf:resource="http://purl.org/dc/dcmitype/StillImage"/>
			</cc:Work>
		</rdf:RDF>
	</metadata>
	<g transform="translate(346.38 -971.27)">
		<rect transform="scale(-1,1)" x="282.38" y="971.27" width="64" height="64" rx="1" ry="1" fill="url(#b-05)" paint-order="fill markers stroke"/>
		<g transform="translate(-346.38,971.27)">
			<g transform="translate(8.0016e-5 .057009)">
				<path transform="translate(0 .002)" d="m1 0c-0.554 0-1 0.446-1 1v62-0.224 0.224-62h1.752c19.15 2e-3 39.445 0 60.213 0h2.035v62-0.334 0.334-62c0.0011-0.55274-0.44726-1.0011-1-1z" fill="url(#e-5-6)"/>
				<path transform="translate(0 .002)" d="m1 0c-0.5551-0.0011303-1.0045 0.45091-1 1.006v61.98-0.197c0-0.277 4e-3 -0.184 0.01 0.246 0.012 0.016 0.03-0.297 0.052-0.897v-61c0.072-9e-3 0.133-0.013 0.185-0.013 0.29-0.016 0.357-0.032 0.774-0.044 0.246-0.011 0.496-0.019 0.747-0.019 19.183 2e-3 39.392 0 60.2 0 0.346 0 0.689 0.012 1.023 0.03 0.268 0.01 0.389 0.02 0.52 0.033 0.106 0 0.22 0.01 0.427 0.028v60.744c0.027 0.754 0.05 1.148 0.059 1.123l3e-3 -0.334v0.286-61.762c0-0.143 0-0.22-2e-3 -0.224-0.005475-0.55246-0.45958-0.9949-1.012-0.986h-61.986" fill="url(#f-6-9)"/>
				<path transform="translate(0 .002)" d="m1 0c-0.5551-0.0011303-1.0045 0.45091-1 1.006v61.966-0.169c0-0.245 8e-3 -0.145 0.021 0.266 0.022 0.034 0.06-0.247 0.104-0.807v-60.988c0.056484-0.015102 0.11455-0.023493 0.173-0.025 0.27-0.031 0.341-0.064 0.743-0.088 0.242-0.022 0.492-0.037 0.742-0.037 19.217 2e-3 39.34 0 60.187 0 0.347 0 0.69 0.024 1.013 0.06 0.256 0.02 0.372 0.042 0.494 0.065 0.1 0 0.206 0.02 0.398 0.057v60.731c0.055 0.703 0.102 1.052 0.119 1.003 4e-3 -0.154 6e-3 -0.265 6e-3 -0.333v0.237-61.748c0-0.139 0-0.215-3e-3 -0.224-0.011441-0.46771-0.34748-0.86412-0.807-0.952-0.071417-0.014359-0.14416-0.021063-0.217-0.02h-61.973" fill="url(#g-2-1)"/>
				<path transform="translate(0 .002)" d="m1 0c-0.55471-0.0011253-1.0039 0.45031-1 1.005v61.953-0.14c0-0.213 0.012-0.107 0.031 0.287 0.034 0.05 0.091-0.198 0.156-0.718v-60.974c0.050612-0.022043 0.10485-0.034585 0.16-0.037 0.252-0.048 0.327-0.097 0.715-0.132 0.238-0.034 0.487-0.056 0.737-0.056 19.25 2e-3 39.286 0 60.173 0 0.348 0 0.688 0.036 1.001 0.09 0.244 0.029 0.356 0.062 0.47 0.098 0.091 0 0.19 0.03 0.37 0.085v60.718c0.082 0.653 0.151 0.957 0.176 0.884 7e-3 -0.152 0.01-0.262 0.01-0.333v0.188-61.734c0-0.135 0-0.21-4e-3 -0.224-0.017399-0.46717-0.35861-0.85879-0.819-0.94-0.071505-0.013569-0.14424-0.019602-0.217-0.018h-61.96" fill="url(#h-2-3)"/>
				<path transform="translate(0 .002)" d="m1 0c-0.55471-0.0011253-1.0039 0.45031-1 1.005v61.939-0.113c0-0.18 0.015-0.068 0.042 0.308 0.045 0.067 0.121-0.149 0.208-0.629v-60.96c0.044295-0.028947 0.095225-0.046153 0.148-0.05 0.232-0.063 0.311-0.128 0.684-0.176 0.234-0.044 0.483-0.074 0.732-0.074 19.284 2e-3 39.234 0 60.16 0 0.35 0 0.689 0.048 0.991 0.12 0.232 0.039 0.34 0.083 0.444 0.13 0.085 0 0.176 0.04 0.341 0.114v60.704c0.11 0.603 0.203 0.862 0.236 0.764 0.0082-0.11082 0.01287-0.22188 0.014-0.333v0.14-61.721c0-0.13-2e-3 -0.206-6e-3 -0.224-0.024028-0.46583-0.36965-0.85184-0.83-0.927-0.072548-0.013262-0.14628-0.018959-0.22-0.017h-61.944" fill="url(#i-7)"/>
				<path transform="translate(0 .002)" d="m1 0c-0.55431-0.0011209-1.0033 0.4497-1 1.004v61.926-0.084c0-0.148 0.02-0.029 0.052 0.328 0.056 0.084 0.152-0.099 0.26-0.539v-60.949c0.053-0.04 0.097-0.061 0.136-0.061 0.212-0.08 0.297-0.16 0.655-0.22 0.23-0.056 0.477-0.093 0.727-0.093 19.317 2e-3 39.18 0 60.147 0 0.35 0 0.688 0.06 0.98 0.151 0.22 0.047 0.322 0.102 0.418 0.162 0.078 0 0.162 0.049 0.313 0.142v60.69c0.137 0.553 0.253 0.767 0.295 0.645 0.0096-0.11043 0.01523-0.22117 0.017-0.332v0.09-61.705c0-0.126-2e-3 -0.202-7e-3 -0.224-0.03077-0.46514-0.38186-0.8458-0.843-0.914-0.071921-0.0129-0.14495-0.018594-0.218-0.017h-61.932" fill="url(#j-0)"/>
				<path transform="translate(0 .002)" d="m1 0c-0.55431-0.0011209-1.0033 0.4497-1 1.004v61.912-0.056c0-0.117 0.023 0.01 0.063 0.349 0.067 0.1 0.182-0.05 0.312-0.45v-60.935c0.048-0.049 0.088-0.074 0.123-0.074 0.193-0.095 0.282-0.192 0.626-0.264 0.225-0.067 0.472-0.11 0.721-0.11h60.133c0.352 0 0.688 0.071 0.97 0.18 0.1444 0.03294 0.27903 0.099398 0.393 0.194 0.07 0 0.147 0.059 0.284 0.17v60.68c0.164 0.502 0.304 0.671 0.354 0.524 0.014-0.14 0.02-0.25 0.02-0.331v0.042-61.695c0-0.121-2e-3 -0.197-9e-3 -0.224-0.037172-0.46407-0.39266-0.83953-0.854-0.902-0.072052-0.011622-0.14505-0.01631-0.218-0.014h-61.918" fill="url(#k-9)"/>
				<path transform="translate(0 .002)" d="m1 0c-0.55431-0.0011209-1.0033 0.4497-1 1.004v61.898-0.029c0-0.084 0.027 0.049 0.073 0.37 0.079 0.117 0.212 0 0.365-0.36v-60.923c0.043-0.057 0.079-0.086 0.11-0.086 0.174-0.112 0.267-0.225 0.596-0.309 0.23012-0.082729 0.47247-0.12633 0.717-0.129 19.385 2e-3 39.075 0 60.12 0 0.353 0 0.687 0.084 0.958 0.211 0.14097 0.040924 0.26817 0.11939 0.368 0.227 0.063 0 0.132 0.068 0.256 0.199v60.665c0.192 0.452 0.354 0.576 0.413 0.404 0.01385-0.1095 0.02186-0.21965 0.024-0.33v-61.687c0-0.117-4e-3 -0.193-0.01-0.224-0.043775-0.464-0.40524-0.83463-0.868-0.89-0.071851-0.010232-0.14448-0.013914-0.217-0.011h-61.905" fill="url(#l-3)"/>
				<path transform="translate(0 .002)" d="m1 0c-0.55392-0.001117-1.0028 0.44909-1 1.003v61.885c0-0.052 0.03 0.087 0.084 0.39 0.09 0.135 0.242 0.05 0.416-0.27v-60.911c0.038-0.063 0.07-0.097 0.099-0.097 0.154-0.127 0.251-0.257 0.566-0.352 0.217-0.089 0.463-0.148 0.711-0.148 19.418 2e-3 39.022 0 60.107 0 0.355 0 0.687 0.096 0.947 0.242 0.13781 0.049299 0.25742 0.13926 0.343 0.258 0.056 0 0.118 0.079 0.227 0.227v60.651c0.22 0.402 0.406 0.482 0.473 0.285 0.018-0.132 0.027-0.243 0.027-0.33v-61.721c0-0.113-4e-3 -0.188-0.012-0.224-0.050481-0.46258-0.4163-0.82757-0.879-0.877-0.072218-0.0099014-0.14515-0.013582-0.218-0.011h-61.89" fill="url(#m-6)"/>
				<path transform="translate(0 .002)" d="m1 0c-0.55392-0.001117-1.0028 0.44909-1 1.003v61.899c0-0.02 0.035 0.126 0.094 0.41 0.101 0.152 0.273 0.1 0.468-0.18v-60.897c0.034-0.073 0.062-0.11 0.087-0.11 0.135-0.143 0.236-0.29 0.536-0.397 0.213-0.1 0.459-0.166 0.707-0.166 19.452 2e-3 38.969 0 60.093 0 0.356 0 0.687 0.108 0.936 0.272 0.13431 0.059746 0.24556 0.16152 0.317 0.29 0.05 0 0.103 0.089 0.2 0.256v60.64c0.246 0.352 0.455 0.386 0.531 0.165 0.02-0.128 0.03-0.239 0.03-0.33v-61.755c0-0.108-4e-3 -0.184-0.013-0.224-0.0572-0.46153-0.42793-0.82103-0.891-0.864-0.07229-0.0090995-0.14518-0.012443-0.218-0.01h-61.877" fill="url(#n-0)"/>
				<path transform="translate(0 .002)" d="m1 0c-0.55353-0.0011137-1.0022 0.44848-1 1.002v61.913c0 0.013 0.039 0.165 0.105 0.432 0.112 0.168 0.303 0.148 0.52-0.092v-60.882c0.029-0.081 0.053-0.123 0.074-0.123 0.116-0.159 0.222-0.321 0.507-0.44 0.21532-0.11731 0.45583-0.18078 0.701-0.185 19.486 2e-3 38.916 0 60.08 0 0.357 0 0.687 0.12 0.925 0.302 0.13107 0.071535 0.23401 0.1854 0.292 0.323 0.043 0 0.089 0.098 0.171 0.284v60.626c0.275 0.302 0.507 0.29 0.591 0.046 0.022-0.125 0.034-0.236 0.034-0.33v-61.791c0-0.104-5e-3 -0.18-0.016-0.224-0.063414-0.4609-0.4392-0.81546-0.903-0.852-0.07238-0.0079052-0.14524-0.010579-0.218-8e-3h-61.863" fill="url(#o-6)"/>
				<path transform="translate(0 .002)" d="m1 0c-0.55353-0.0011137-1.0022 0.44848-1 1.002v61.928c0 0.045 0.042 0.203 0.115 0.453 0.123 0.184 0.333 0.197 0.572-3e-3v-60.87c0.024-0.089 0.045-0.135 0.062-0.135 0.097-0.174 0.207-0.353 0.478-0.484 0.204-0.122 0.448-0.203 0.696-0.203 19.519 2e-3 38.863 0 60.067 0 0.33455-0.0021 0.65879 0.11568 0.914 0.332 0.15 0.103 0.224 0.225 0.267 0.355 0.035 0 0.073 0.108 0.142 0.313v60.612c0.302 0.251 0.557 0.196 0.65-0.074 0.02307-0.10853 0.03547-0.21906 0.037-0.33v-61.825c0-0.1-6e-3 -0.175-0.017-0.224-0.069565-0.46031-0.45044-0.80996-0.915-0.84-0.072444-0.0069646-0.14526-0.0093027-0.218-7e-3h-61.85" fill="url(#p-2)"/>
				<path transform="translate(0 .002)" d="m1 0c-0.55353-0.0011137-1.0022 0.44848-1 1.002v61.942c0 0.077 0.046 0.242 0.126 0.473 0.134 0.201 0.363 0.246 0.624 0.086v-60.856c0.02-0.097 0.035-0.147 0.05-0.147 0.079731-0.22481 0.23864-0.41288 0.447-0.529 0.2-0.133 0.444-0.221 0.691-0.221 19.553 2e-3 38.811 0 60.053 0 0.36 0 0.686 0.144 0.903 0.362 0.12254 0.097958 0.20793 0.23486 0.242 0.388 0.028 0 0.059 0.118 0.114 0.341v60.598c0.33 0.2 0.608 0.1 0.709-0.194 0.026-0.117 0.04-0.228 0.04-0.329v-61.86c0-0.095-6e-3 -0.17-0.018-0.224-0.076427-0.45917-0.46212-0.80326-0.927-0.827-0.072523-0.0056002-0.1453-0.0072693-0.218-5e-3h-61.836" fill="url(#q-6)"/>
				<path transform="translate(0 .002)" d="m1 0c-0.55314-0.001111-1.0017 0.44787-1 1.001v61.956c0 0.11 0.05 0.281 0.136 0.494 0.146 0.218 0.394 0.296 0.677 0.176v-60.843c0.014-0.105 0.026-0.16 0.036-0.16 0.062205-0.23684 0.21195-0.44126 0.419-0.572 0.196-0.144 0.439-0.24 0.686-0.24 19.586 2e-3 38.758 0 60.04 0 0.36 0 0.685 0.156 0.892 0.392 0.11655 0.1122 0.19253 0.25993 0.216 0.42 0.021 0 0.044 0.128 0.086 0.37v60.585c0.356 0.15 0.658 5e-3 0.768-0.314 0.029-0.114 0.044-0.224 0.044-0.328v-61.895c0-0.09-7e-3 -0.166-0.02-0.224-0.083295-0.45841-0.47439-0.79708-0.94-0.814-0.072228-0.0047776-0.14463-0.0064458-0.217-5e-3h-61.823" fill="url(#r-1)"/>
				<path transform="translate(0 .002)" d="m1 0c-0.55274-0.0011088-1.0011 0.44726-1 1v61.972c0 0.142 0.054 0.32 0.147 0.515 0.15624 0.24102 0.45338 0.34918 0.728 0.265v-60.83c0.01-0.114 0.018-0.172 0.025-0.172 0.044459-0.24844 0.184-0.46977 0.389-0.617 0.192-0.155 0.434-0.258 0.68-0.258 19.62 2e-3 38.705 0 60.027 0 0.362 0 0.686 0.168 0.882 0.422 0.10963 0.12712 0.17614 0.28571 0.19 0.453 0.015 0 0.03 0.137 0.057 0.398v60.572c0.385 0.1 0.71-0.09 0.828-0.434 0.03-0.11 0.047-0.22 0.047-0.328v-61.93c0-0.086-7e-3 -0.161-0.021-0.224-0.089858-0.45718-0.48521-0.79059-0.951-0.802-0.072962-0.0029106-0.146-0.0035776-0.219-2e-3h-61.809" fill="url(#s-8)"/>
				<path d="m0.99984 2e-3c-0.55274-0.0011088-1.0011 0.44726-1 1v61.986c0 0.174 0.058 0.358 0.157 0.535 0.16968 0.25897 0.47327 0.39714 0.78 0.355v-60.816c5e-3 -0.122 0.01-0.185 0.013-0.185 0.028233-0.25888 0.15763-0.49611 0.36-0.66 0.187-0.166 0.429-0.277 0.675-0.277 19.653 2e-3 38.652 0 60.013 0 0.363 0 0.685 0.18 0.87 0.452 0.10246 0.1415 0.16026 0.3104 0.166 0.485 7e-3 0 0.015 0.147 0.028 0.427v60.558c0.412 0.05 0.76-0.186 0.887-0.553 0.03316-0.10618 0.05001-0.21677 0.05-0.328v-61.965c0.01002-0.55281-0.43213-1.008-0.985-1.014-0.07299-0.0011985-0.146-0.0011985-0.219 0h-61.795" fill="url(#t-7)"/>
				<path d="m1 0.0019531c-0.55274-0.0011088-1.0011 0.44726-1 1v1h64v-0.998c0.0011-0.55274-0.44726-1.0011-1-1h-62z" fill="url(#radialGradient869)"/>
			</g>
			<path d="m0 1v2.5l2-2z" fill="#ccfbff" fill-opacity=".4499"/>
			<path d="m64 3.5-2-2 2-0.5z" fill="#ccfbff" fill-opacity=".4499"/>
		</g>
	</g>
	<path d="m40.072 15.107c-0.46895 0.007864-0.93042 0.1576-1.3184 0.43945-0.033684 0.024471-0.063177 0.055587-0.095703 0.082031-0.001805 0.001468-0.004058 0.002433-0.005859 0.003906-0.05919 0.048421-0.11892 0.095481-0.17383 0.15039l-14.613 13.322-6.3652-4.8281c-0.59252-0.4495-1.4204-0.41241-1.9707 0.08789l-2.043 1.8555c-0.67329 0.61194-0.67421 1.6703-0.001953 2.2832l5.5195 5.0332-5.5195 5.0332c-0.67226 0.61291-0.67134 1.6713 0.001953 2.2832l2.043 1.8555c0.55033 0.5003 1.3782 0.53739 1.9707 0.087891l6.3652-4.8281 14.613 13.324c0.054137 0.054138 0.11357 0.098653 0.17188 0.14648 0.68864 0.56501 1.6459 0.69285 2.4609 0.30078l7.6348-3.6699c0.70187-0.33751 1.1785-1.001 1.2871-1.7578 0.016082-0.11003 0.025391-0.22264 0.025391-0.33594v-0.08789c0 0.008727-0.001816 0.016716-0.001953 0.02539v-24.754c1.37e-4 0.008675 0.001953 0.016664 0.001953 0.025391v-0.087891c0-0.11266-0.009488-0.22455-0.025391-0.33398-0.007045-0.049098-0.021133-0.096283-0.03125-0.14453-0.14583-0.69546-0.59955-1.2977-1.2559-1.6133l-7.6348-3.6719c-0.1105-0.053139-0.22306-0.096443-0.33789-0.13086-0.22967-0.068831-0.4667-0.099635-0.70117-0.095703zm0.72266 10.018v16.824l-11.088-8.4121 11.088-8.4121z" fill="none" stroke="#2c2c32" stroke-linecap="round" stroke-linejoin="round" stroke-opacity=".12" stroke-width="6"/>
	<g transform="matrix(.89398 0 0 .89398 3.3416 3.5556)" stroke-width="1.1186">
		<path d="m50.789 17.288-8.5401-4.1119c-0.98853-0.47595-2.1699-0.27519-2.9457 0.5006l-27.957 25.49c-0.75198 0.68559-0.75112 1.8695 2e-3 2.554l2.2836 2.076c0.61559 0.55963 1.5427 0.60083 2.2055 0.09802l33.667-25.54c1.1295-0.85685 2.7518-0.05127 2.7518 1.3665v-0.09914c0-0.99516-0.57007-1.9023-1.4667-2.3341z" fill="url(#linearGradient196640)"/>
		<path d="m50.789 49.787-8.5401 4.1119c-0.98853 0.47603-2.1699 0.27517-2.9457-0.50061l-27.957-25.49c-0.75198-0.68563-0.75112-1.8696 2e-3 -2.5541l2.2836-2.076c0.61559-0.55963 1.5427-0.60083 2.2055-0.09802l33.667 25.54c1.1295 0.85685 2.7518 0.05127 2.7518-1.3664v0.09914c0 0.99512-0.57007 1.9023-1.4667 2.334z" fill="url(#linearGradient182291)"/>
		<path d="m42.25 53.899c-0.98883 0.4757-2.1702 0.27447-2.946-0.5014 0.95595 0.95595 2.5905 0.2789 2.5905-1.073v-37.575c0-1.3519-1.6345-2.029-2.5905-1.073 0.77586-0.77586 1.9572-0.97691 2.946-0.50138l8.5386 4.1063c0.89722 0.43147 1.4678 1.339 1.4678 2.3346v27.842c0 0.99558-0.57057 1.9031-1.4678 2.3346z" fill="url(#linearGradient174141)"/>
	</g>
</svg>
