<?xml version="1.0" encoding="UTF-8"?>
<!-- Created with Inkscape (http://www.inkscape.org/) -->
<svg width="64" height="64" version="1.1" xmlns="http://www.w3.org/2000/svg" xmlns:cc="http://creativecommons.org/ns#" xmlns:dc="http://purl.org/dc/elements/1.1/" xmlns:rdf="http://www.w3.org/1999/02/22-rdf-syntax-ns#" xmlns:xlink="http://www.w3.org/1999/xlink">
	<defs>
		<radialGradient id="b-05" cx="31.744" cy="30.855" r="32" gradientTransform="matrix(1.1553 0 0 1.1553 277.45 965.74)" gradientUnits="userSpaceOnUse">
			<stop stop-color="#2e3e66" style="stop-color:#384971" offset="0"/>
			<stop stop-color="#3f425a" style="stop-color:#4f565e" offset="1"/>
		</radialGradient>
		<linearGradient id="a-40">
			<stop stop-color="#bee4ff" stop-opacity=".058824" style="stop-color:#a6c7ce;stop-opacity:.13" offset="0"/>
			<stop stop-color="#8ec1b4" stop-opacity=".004" style="stop-color:#8eb8c1;stop-opacity:.03" offset="1"/>
		</linearGradient>
		<radialGradient id="e-5-6" cx="35.574" cy="1.019" r="32" gradientTransform="matrix(0,1.1252,-5.1753,0,37.271,-39.029)" gradientUnits="userSpaceOnUse" xlink:href="#a-40"/>
		<radialGradient id="f-6-9" cx="35.574" cy="1.036" r="32" gradientTransform="matrix(0,1.1252,-5.1753,0,37.363,-39.029)" gradientUnits="userSpaceOnUse" xlink:href="#a-40"/>
		<radialGradient id="g-2-1" cx="35.574" cy="1.055" r="32" gradientTransform="matrix(0,1.1252,-5.1753,0,37.458,-39.029)" gradientUnits="userSpaceOnUse" xlink:href="#a-40"/>
		<radialGradient id="h-2-3" cx="35.574" cy="1.071" r="32" gradientTransform="matrix(0,1.1252,-5.1753,0,37.544,-39.029)" gradientUnits="userSpaceOnUse" xlink:href="#a-40"/>
		<radialGradient id="i-7" cx="35.574" cy="1.091" r="32" gradientTransform="matrix(0,1.1252,-5.1753,0,37.648,-39.029)" gradientUnits="userSpaceOnUse" xlink:href="#a-40"/>
		<radialGradient id="j-0" cx="35.574" cy="1.113" r="32" gradientTransform="matrix(0,1.1252,-5.1753,0,37.758,-39.029)" gradientUnits="userSpaceOnUse" xlink:href="#a-40"/>
		<radialGradient id="k-9" cx="35.574" cy="1.135" r="32" gradientTransform="matrix(0,1.1252,-5.1753,0,37.875,-39.029)" gradientUnits="userSpaceOnUse" xlink:href="#a-40"/>
		<radialGradient id="l-3" cx="35.574" cy="1.159" r="32" gradientTransform="matrix(0,1.1252,-5.1753,0,38,-39.029)" gradientUnits="userSpaceOnUse" xlink:href="#a-40"/>
		<radialGradient id="m-6" cx="35.574" cy="1.18" r="32" gradientTransform="matrix(0,1.1252,-5.1753,0,38.107,-39.029)" gradientUnits="userSpaceOnUse" xlink:href="#a-40"/>
		<radialGradient id="n-0" cx="35.574" cy="1.208" r="32" gradientTransform="matrix(0,1.1252,-5.1753,0,38.252,-39.029)" gradientUnits="userSpaceOnUse" xlink:href="#a-40"/>
		<radialGradient id="o-6" cx="35.574" cy="1.239" r="32" gradientTransform="matrix(0,1.1252,-5.1753,0,38.411,-39.029)" gradientUnits="userSpaceOnUse" xlink:href="#a-40"/>
		<radialGradient id="p-2" cx="35.574" cy="1.273" r="32" gradientTransform="matrix(0,1.1252,-5.1753,0,38.587,-39.029)" gradientUnits="userSpaceOnUse" xlink:href="#a-40"/>
		<radialGradient id="q-6" cx="35.574" cy="1.304" r="32" gradientTransform="matrix(0,1.1252,-5.1753,0,38.75,-39.029)" gradientUnits="userSpaceOnUse" xlink:href="#a-40"/>
		<radialGradient id="r-1" cx="35.574" cy="1.346" r="32" gradientTransform="matrix(0,1.1252,-5.1753,0,38.966,-39.029)" gradientUnits="userSpaceOnUse" xlink:href="#a-40"/>
		<radialGradient id="s-8" cx="35.574" cy="1.393" r="32" gradientTransform="matrix(0,1.1252,-5.1753,0,39.208,-39.029)" gradientUnits="userSpaceOnUse" xlink:href="#a-40"/>
		<radialGradient id="t-7" cx="35.574" cy="1.439" r="32" gradientTransform="matrix(0,1.1252,-5.1753,0,39.446,-39.027)" gradientUnits="userSpaceOnUse" xlink:href="#a-40"/>
		<radialGradient id="radialGradient869" cx="32" cy="15.077" r="32" gradientTransform="matrix(2.0435 0 0 .014897 -33.393 1.2172)" gradientUnits="userSpaceOnUse">
			<stop stop-color="#74fff4" stop-opacity=".61299" style="stop-color:#ffffff;stop-opacity:.12606" offset="0"/>
			<stop stop-color="#fff" stop-opacity=".001" offset="1"/>
		</radialGradient>
		<linearGradient id="linearGradient174141" x1="42.25" x2="48.036" y1="53.899" y2="13.76" gradientUnits="userSpaceOnUse">
			<stop stop-color="#28b1f0" style="stop-color:#0f94e8" offset="0"/>
			<stop stop-color="#28b1f0" style="stop-color:#22a1f1" offset=".16736"/>
			<stop stop-color="#28b1f0" style="stop-color:#22a1f1" offset=".8368"/>
			<stop stop-color="#16d3f3" style="stop-color:#32b3f0" offset="1"/>
		</linearGradient>
		<linearGradient id="linearGradient182291" x1="46.184" x2="29.573" y1="51.248" y2="36.338" gradientUnits="userSpaceOnUse">
			<stop stop-color="#008ed4" stop-opacity=".83727" style="stop-color:#1c85e6;stop-opacity:.77037" offset="0"/>
			<stop stop-color="#008ed4" style="stop-color:#009be8" offset="1"/>
		</linearGradient>
		<linearGradient id="linearGradient196640" x1="13.174" x2="44.787" y1="42.722" y2="16.92" gradientUnits="userSpaceOnUse">
			<stop stop-color="#0076b7" style="stop-color:#1d86e7" offset="0"/>
			<stop stop-color="#0076b7" stop-opacity=".88" style="stop-color:#21608c;stop-opacity:1" offset=".21481"/>
			<stop stop-color="#0076b7" stop-opacity=".88" style="stop-color:#1981e1;stop-opacity:1" offset=".3259"/>
			<stop stop-color="#0076b7" style="stop-color:#009be8" offset=".54493"/>
			<stop stop-color="#0078b9" stop-opacity=".69597" style="stop-color:#1e84e1;stop-opacity:.64596" offset="1"/>
		</linearGradient>
		<linearGradient id="linearGradient628135" x1="13.174" x2="44.787" y1="42.722" y2="16.92" gradientUnits="userSpaceOnUse" xlink:href="#linearGradient196640"/>
		<linearGradient id="linearGradient628137" x1="46.184" x2="29.573" y1="51.248" y2="36.338" gradientUnits="userSpaceOnUse" xlink:href="#linearGradient182291"/>
		<linearGradient id="linearGradient628139" x1="42.25" x2="48.036" y1="53.899" y2="13.76" gradientUnits="userSpaceOnUse" xlink:href="#linearGradient174141"/>
	</defs>
	<metadata>
		<rdf:RDF>
			<cc:Work rdf:about="">
				<dc:format>image/svg+xml</dc:format>
				<dc:type rdf:resource="http://purl.org/dc/dcmitype/StillImage"/>
			</cc:Work>
		</rdf:RDF>
	</metadata>
	<g transform="translate(346.38 -971.27)">
		<rect transform="scale(-1,1)" x="282.38" y="971.27" width="64" height="64" rx="1" ry="1" fill="url(#b-05)" paint-order="fill markers stroke"/>
		<g transform="translate(-346.38,971.27)">
			<g transform="translate(8.0016e-5 .057009)">
				<path transform="translate(0 .002)" d="m1 0c-0.554 0-1 0.446-1 1v62-0.224 0.224-62h1.752c19.15 2e-3 39.445 0 60.213 0h2.035v62-0.334 0.334-62c0.0011-0.55274-0.44726-1.0011-1-1z" fill="url(#e-5-6)"/>
				<path transform="translate(0 .002)" d="m1 0c-0.5551-0.0011303-1.0045 0.45091-1 1.006v61.98-0.197c0-0.277 4e-3 -0.184 0.01 0.246 0.012 0.016 0.03-0.297 0.052-0.897v-61c0.072-9e-3 0.133-0.013 0.185-0.013 0.29-0.016 0.357-0.032 0.774-0.044 0.246-0.011 0.496-0.019 0.747-0.019 19.183 2e-3 39.392 0 60.2 0 0.346 0 0.689 0.012 1.023 0.03 0.268 0.01 0.389 0.02 0.52 0.033 0.106 0 0.22 0.01 0.427 0.028v60.744c0.027 0.754 0.05 1.148 0.059 1.123l3e-3 -0.334v0.286-61.762c0-0.143 0-0.22-2e-3 -0.224-0.005475-0.55246-0.45958-0.9949-1.012-0.986h-61.986" fill="url(#f-6-9)"/>
				<path transform="translate(0 .002)" d="m1 0c-0.5551-0.0011303-1.0045 0.45091-1 1.006v61.966-0.169c0-0.245 8e-3 -0.145 0.021 0.266 0.022 0.034 0.06-0.247 0.104-0.807v-60.988c0.056484-0.015102 0.11455-0.023493 0.173-0.025 0.27-0.031 0.341-0.064 0.743-0.088 0.242-0.022 0.492-0.037 0.742-0.037 19.217 2e-3 39.34 0 60.187 0 0.347 0 0.69 0.024 1.013 0.06 0.256 0.02 0.372 0.042 0.494 0.065 0.1 0 0.206 0.02 0.398 0.057v60.731c0.055 0.703 0.102 1.052 0.119 1.003 4e-3 -0.154 6e-3 -0.265 6e-3 -0.333v0.237-61.748c0-0.139 0-0.215-3e-3 -0.224-0.011441-0.46771-0.34748-0.86412-0.807-0.952-0.071417-0.014359-0.14416-0.021063-0.217-0.02h-61.973" fill="url(#g-2-1)"/>
				<path transform="translate(0 .002)" d="m1 0c-0.55471-0.0011253-1.0039 0.45031-1 1.005v61.953-0.14c0-0.213 0.012-0.107 0.031 0.287 0.034 0.05 0.091-0.198 0.156-0.718v-60.974c0.050612-0.022043 0.10485-0.034585 0.16-0.037 0.252-0.048 0.327-0.097 0.715-0.132 0.238-0.034 0.487-0.056 0.737-0.056 19.25 2e-3 39.286 0 60.173 0 0.348 0 0.688 0.036 1.001 0.09 0.244 0.029 0.356 0.062 0.47 0.098 0.091 0 0.19 0.03 0.37 0.085v60.718c0.082 0.653 0.151 0.957 0.176 0.884 7e-3 -0.152 0.01-0.262 0.01-0.333v0.188-61.734c0-0.135 0-0.21-4e-3 -0.224-0.017399-0.46717-0.35861-0.85879-0.819-0.94-0.071505-0.013569-0.14424-0.019602-0.217-0.018h-61.96" fill="url(#h-2-3)"/>
				<path transform="translate(0 .002)" d="m1 0c-0.55471-0.0011253-1.0039 0.45031-1 1.005v61.939-0.113c0-0.18 0.015-0.068 0.042 0.308 0.045 0.067 0.121-0.149 0.208-0.629v-60.96c0.044295-0.028947 0.095225-0.046153 0.148-0.05 0.232-0.063 0.311-0.128 0.684-0.176 0.234-0.044 0.483-0.074 0.732-0.074 19.284 2e-3 39.234 0 60.16 0 0.35 0 0.689 0.048 0.991 0.12 0.232 0.039 0.34 0.083 0.444 0.13 0.085 0 0.176 0.04 0.341 0.114v60.704c0.11 0.603 0.203 0.862 0.236 0.764 0.0082-0.11082 0.01287-0.22188 0.014-0.333v0.14-61.721c0-0.13-2e-3 -0.206-6e-3 -0.224-0.024028-0.46583-0.36965-0.85184-0.83-0.927-0.072548-0.013262-0.14628-0.018959-0.22-0.017h-61.944" fill="url(#i-7)"/>
				<path transform="translate(0 .002)" d="m1 0c-0.55431-0.0011209-1.0033 0.4497-1 1.004v61.926-0.084c0-0.148 0.02-0.029 0.052 0.328 0.056 0.084 0.152-0.099 0.26-0.539v-60.949c0.053-0.04 0.097-0.061 0.136-0.061 0.212-0.08 0.297-0.16 0.655-0.22 0.23-0.056 0.477-0.093 0.727-0.093 19.317 2e-3 39.18 0 60.147 0 0.35 0 0.688 0.06 0.98 0.151 0.22 0.047 0.322 0.102 0.418 0.162 0.078 0 0.162 0.049 0.313 0.142v60.69c0.137 0.553 0.253 0.767 0.295 0.645 0.0096-0.11043 0.01523-0.22117 0.017-0.332v0.09-61.705c0-0.126-2e-3 -0.202-7e-3 -0.224-0.03077-0.46514-0.38186-0.8458-0.843-0.914-0.071921-0.0129-0.14495-0.018594-0.218-0.017h-61.932" fill="url(#j-0)"/>
				<path transform="translate(0 .002)" d="m1 0c-0.55431-0.0011209-1.0033 0.4497-1 1.004v61.912-0.056c0-0.117 0.023 0.01 0.063 0.349 0.067 0.1 0.182-0.05 0.312-0.45v-60.935c0.048-0.049 0.088-0.074 0.123-0.074 0.193-0.095 0.282-0.192 0.626-0.264 0.225-0.067 0.472-0.11 0.721-0.11h60.133c0.352 0 0.688 0.071 0.97 0.18 0.1444 0.03294 0.27903 0.099398 0.393 0.194 0.07 0 0.147 0.059 0.284 0.17v60.68c0.164 0.502 0.304 0.671 0.354 0.524 0.014-0.14 0.02-0.25 0.02-0.331v0.042-61.695c0-0.121-2e-3 -0.197-9e-3 -0.224-0.037172-0.46407-0.39266-0.83953-0.854-0.902-0.072052-0.011622-0.14505-0.01631-0.218-0.014h-61.918" fill="url(#k-9)"/>
				<path transform="translate(0 .002)" d="m1 0c-0.55431-0.0011209-1.0033 0.4497-1 1.004v61.898-0.029c0-0.084 0.027 0.049 0.073 0.37 0.079 0.117 0.212 0 0.365-0.36v-60.923c0.043-0.057 0.079-0.086 0.11-0.086 0.174-0.112 0.267-0.225 0.596-0.309 0.23012-0.082729 0.47247-0.12633 0.717-0.129 19.385 2e-3 39.075 0 60.12 0 0.353 0 0.687 0.084 0.958 0.211 0.14097 0.040924 0.26817 0.11939 0.368 0.227 0.063 0 0.132 0.068 0.256 0.199v60.665c0.192 0.452 0.354 0.576 0.413 0.404 0.01385-0.1095 0.02186-0.21965 0.024-0.33v-61.687c0-0.117-4e-3 -0.193-0.01-0.224-0.043775-0.464-0.40524-0.83463-0.868-0.89-0.071851-0.010232-0.14448-0.013914-0.217-0.011h-61.905" fill="url(#l-3)"/>
				<path transform="translate(0 .002)" d="m1 0c-0.55392-0.001117-1.0028 0.44909-1 1.003v61.885c0-0.052 0.03 0.087 0.084 0.39 0.09 0.135 0.242 0.05 0.416-0.27v-60.911c0.038-0.063 0.07-0.097 0.099-0.097 0.154-0.127 0.251-0.257 0.566-0.352 0.217-0.089 0.463-0.148 0.711-0.148 19.418 2e-3 39.022 0 60.107 0 0.355 0 0.687 0.096 0.947 0.242 0.13781 0.049299 0.25742 0.13926 0.343 0.258 0.056 0 0.118 0.079 0.227 0.227v60.651c0.22 0.402 0.406 0.482 0.473 0.285 0.018-0.132 0.027-0.243 0.027-0.33v-61.721c0-0.113-4e-3 -0.188-0.012-0.224-0.050481-0.46258-0.4163-0.82757-0.879-0.877-0.072218-0.0099014-0.14515-0.013582-0.218-0.011h-61.89" fill="url(#m-6)"/>
				<path transform="translate(0 .002)" d="m1 0c-0.55392-0.001117-1.0028 0.44909-1 1.003v61.899c0-0.02 0.035 0.126 0.094 0.41 0.101 0.152 0.273 0.1 0.468-0.18v-60.897c0.034-0.073 0.062-0.11 0.087-0.11 0.135-0.143 0.236-0.29 0.536-0.397 0.213-0.1 0.459-0.166 0.707-0.166 19.452 2e-3 38.969 0 60.093 0 0.356 0 0.687 0.108 0.936 0.272 0.13431 0.059746 0.24556 0.16152 0.317 0.29 0.05 0 0.103 0.089 0.2 0.256v60.64c0.246 0.352 0.455 0.386 0.531 0.165 0.02-0.128 0.03-0.239 0.03-0.33v-61.755c0-0.108-4e-3 -0.184-0.013-0.224-0.0572-0.46153-0.42793-0.82103-0.891-0.864-0.07229-0.0090995-0.14518-0.012443-0.218-0.01h-61.877" fill="url(#n-0)"/>
				<path transform="translate(0 .002)" d="m1 0c-0.55353-0.0011137-1.0022 0.44848-1 1.002v61.913c0 0.013 0.039 0.165 0.105 0.432 0.112 0.168 0.303 0.148 0.52-0.092v-60.882c0.029-0.081 0.053-0.123 0.074-0.123 0.116-0.159 0.222-0.321 0.507-0.44 0.21532-0.11731 0.45583-0.18078 0.701-0.185 19.486 2e-3 38.916 0 60.08 0 0.357 0 0.687 0.12 0.925 0.302 0.13107 0.071535 0.23401 0.1854 0.292 0.323 0.043 0 0.089 0.098 0.171 0.284v60.626c0.275 0.302 0.507 0.29 0.591 0.046 0.022-0.125 0.034-0.236 0.034-0.33v-61.791c0-0.104-5e-3 -0.18-0.016-0.224-0.063414-0.4609-0.4392-0.81546-0.903-0.852-0.07238-0.0079052-0.14524-0.010579-0.218-8e-3h-61.863" fill="url(#o-6)"/>
				<path transform="translate(0 .002)" d="m1 0c-0.55353-0.0011137-1.0022 0.44848-1 1.002v61.928c0 0.045 0.042 0.203 0.115 0.453 0.123 0.184 0.333 0.197 0.572-3e-3v-60.87c0.024-0.089 0.045-0.135 0.062-0.135 0.097-0.174 0.207-0.353 0.478-0.484 0.204-0.122 0.448-0.203 0.696-0.203 19.519 2e-3 38.863 0 60.067 0 0.33455-0.0021 0.65879 0.11568 0.914 0.332 0.15 0.103 0.224 0.225 0.267 0.355 0.035 0 0.073 0.108 0.142 0.313v60.612c0.302 0.251 0.557 0.196 0.65-0.074 0.02307-0.10853 0.03547-0.21906 0.037-0.33v-61.825c0-0.1-6e-3 -0.175-0.017-0.224-0.069565-0.46031-0.45044-0.80996-0.915-0.84-0.072444-0.0069646-0.14526-0.0093027-0.218-7e-3h-61.85" fill="url(#p-2)"/>
				<path transform="translate(0 .002)" d="m1 0c-0.55353-0.0011137-1.0022 0.44848-1 1.002v61.942c0 0.077 0.046 0.242 0.126 0.473 0.134 0.201 0.363 0.246 0.624 0.086v-60.856c0.02-0.097 0.035-0.147 0.05-0.147 0.079731-0.22481 0.23864-0.41288 0.447-0.529 0.2-0.133 0.444-0.221 0.691-0.221 19.553 2e-3 38.811 0 60.053 0 0.36 0 0.686 0.144 0.903 0.362 0.12254 0.097958 0.20793 0.23486 0.242 0.388 0.028 0 0.059 0.118 0.114 0.341v60.598c0.33 0.2 0.608 0.1 0.709-0.194 0.026-0.117 0.04-0.228 0.04-0.329v-61.86c0-0.095-6e-3 -0.17-0.018-0.224-0.076427-0.45917-0.46212-0.80326-0.927-0.827-0.072523-0.0056002-0.1453-0.0072693-0.218-5e-3h-61.836" fill="url(#q-6)"/>
				<path transform="translate(0 .002)" d="m1 0c-0.55314-0.001111-1.0017 0.44787-1 1.001v61.956c0 0.11 0.05 0.281 0.136 0.494 0.146 0.218 0.394 0.296 0.677 0.176v-60.843c0.014-0.105 0.026-0.16 0.036-0.16 0.062205-0.23684 0.21195-0.44126 0.419-0.572 0.196-0.144 0.439-0.24 0.686-0.24 19.586 2e-3 38.758 0 60.04 0 0.36 0 0.685 0.156 0.892 0.392 0.11655 0.1122 0.19253 0.25993 0.216 0.42 0.021 0 0.044 0.128 0.086 0.37v60.585c0.356 0.15 0.658 5e-3 0.768-0.314 0.029-0.114 0.044-0.224 0.044-0.328v-61.895c0-0.09-7e-3 -0.166-0.02-0.224-0.083295-0.45841-0.47439-0.79708-0.94-0.814-0.072228-0.0047776-0.14463-0.0064458-0.217-5e-3h-61.823" fill="url(#r-1)"/>
				<path transform="translate(0 .002)" d="m1 0c-0.55274-0.0011088-1.0011 0.44726-1 1v61.972c0 0.142 0.054 0.32 0.147 0.515 0.15624 0.24102 0.45338 0.34918 0.728 0.265v-60.83c0.01-0.114 0.018-0.172 0.025-0.172 0.044459-0.24844 0.184-0.46977 0.389-0.617 0.192-0.155 0.434-0.258 0.68-0.258 19.62 2e-3 38.705 0 60.027 0 0.362 0 0.686 0.168 0.882 0.422 0.10963 0.12712 0.17614 0.28571 0.19 0.453 0.015 0 0.03 0.137 0.057 0.398v60.572c0.385 0.1 0.71-0.09 0.828-0.434 0.03-0.11 0.047-0.22 0.047-0.328v-61.93c0-0.086-7e-3 -0.161-0.021-0.224-0.089858-0.45718-0.48521-0.79059-0.951-0.802-0.072962-0.0029106-0.146-0.0035776-0.219-2e-3h-61.809" fill="url(#s-8)"/>
				<path d="m0.99984 2e-3c-0.55274-0.0011088-1.0011 0.44726-1 1v61.986c0 0.174 0.058 0.358 0.157 0.535 0.16968 0.25897 0.47327 0.39714 0.78 0.355v-60.816c5e-3 -0.122 0.01-0.185 0.013-0.185 0.028233-0.25888 0.15763-0.49611 0.36-0.66 0.187-0.166 0.429-0.277 0.675-0.277 19.653 2e-3 38.652 0 60.013 0 0.363 0 0.685 0.18 0.87 0.452 0.10246 0.1415 0.16026 0.3104 0.166 0.485 7e-3 0 0.015 0.147 0.028 0.427v60.558c0.412 0.05 0.76-0.186 0.887-0.553 0.03316-0.10618 0.05001-0.21677 0.05-0.328v-61.965c0.01002-0.55281-0.43213-1.008-0.985-1.014-0.07299-0.0011985-0.146-0.0011985-0.219 0h-61.795" fill="url(#t-7)"/>
				<path d="m1 0.0019531c-0.55274-0.0011088-1.0011 0.44726-1 1v1h64v-0.998c0.0011-0.55274-0.44726-1.0011-1-1h-62z" fill="url(#radialGradient869)"/>
			</g>
			<path d="m0 1v2.5l2-2z" fill="#ccfbff" fill-opacity=".4499"/>
			<path d="m64 3.5-2-2 2-0.5z" fill="#ccfbff" fill-opacity=".4499"/>
		</g>
	</g>
	<g style="fill-opacity:.01;fill:#000000">
		<path d="m38.8 31.738c-0.0908 0.0015-0.1814 0.0109-0.2709 0.0249l-7e-4 1e-4c-0.0284 0.0044-0.0559 0.0125-0.0841 0.0182-0.1756 0.0354-0.3475 0.0904-0.5086 0.1729-0.0895 0.0458-0.1767 0.0996-0.2593 0.1595l-7e-4 5e-4c-0.0296 0.0217-0.0554 0.0493-0.084 0.0727-1e-3 7e-4 -0.0024 9e-4 -0.0033 0.0017l-6e-4 4e-4c-0.0496 0.0406-0.0997 0.0799-0.1457 0.1259 0 0-2e-4 2e-4 -6e-4 5e-4 -0.0964 0.0879-12.435 11.337-12.435 11.337l-2e-4 -2e-4c-0.042-0.0318-5.4166-4.1085-5.4166-4.1085l-7e-4 -6e-4c-0.5042-0.3819-1.2099-0.3502-1.678 0.0754l-3e-4 3e-4c-0.0268 0.0243-1.7366 1.5803-1.7366 1.5803l-5e-4 4e-4c-0.5725 0.5208-0.5731 1.4212-0.0012 1.9426l2e-4 2e-4c0.0364 0.0332 4.6969 4.2831 4.6969 4.2831l-2e-4 2e-4c-0.0364 0.0332-4.6969 4.2814-4.6969 4.2814l-4e-4 4e-4c-0.5717 0.5216-0.5708 1.422 0.0021 1.9426l3e-4 3e-4c0.0267 0.0243 1.7366 1.5787 1.7366 1.5787l7e-4 7e-4c0.4683 0.4251 1.174 0.4565 1.678 0.0741l3e-4 -2e-4c0.0419-0.0318 5.4149-4.1085 5.4149-4.1085l5e-4 5e-4c0.0965 0.0879 12.437 11.338 12.437 11.338l5e-4 5e-4c0.0418 0.0417 0.0877 0.0768 0.1324 0.1142l6e-4 4e-4c0.0026 0.0019 0.0051 0.0043 0.0078 0.0063h0.0017c0.0018 0.0013 0.0031 0.0036 5e-3 5e-3l7e-4 5e-4c0.1087 0.089 0.2227 0.1695 0.3451 0.2322l5e-4 3e-4c0.0893 0.0457 0.1809 0.0847 0.2754 0.1161l5e-4 1e-4c0.0946 0.0313 0.1908 0.0547 0.2887 0.0713h0.0017l6e-4 1e-4c0.0974 0.0166 0.1979 0.0264 0.2969 0.0282h6e-4c0.099 0.0015 0.1997-0.0047 0.2986-0.0183l6e-4 -1e-4c0.0989-0.0137 0.1982-0.0356 0.2952-0.0647l6e-4 -2e-4c0.0975-0.0293 0.1931-0.066 0.287-0.1112l3e-4 -1e-4c0.0503-0.0242 6.4969-3.1247 6.4969-3.1247l5e-4 -2e-4c0.6823-0.3284 1.1164-1.0177 1.1164-1.7749v-1e-3 -21.181c0-0.7575-0.4343-1.4469-1.1169-1.7752l-3e-4 -1e-4c-0.0504-0.0242-6.4968-3.1246-6.4968-3.1246l-6e-4 -3e-4c-0.1884-0.0906-0.3849-0.1487-0.5845-0.1759l-6e-4 -1e-4c-0.0989-0.0135-0.1979-0.0199-0.2969-0.0182zm0.6133 8.5266v14.319l-9.4374-7.1603z" style="fill-opacity:.01;fill:#000000"/>
		<path d="m39.118 27.58c-0.0948 0.0016-0.1894 0.0115-0.2828 0.0261h-5e-4c-0.0297 0.0047-0.0585 0.0131-0.088 0.019l-1e-4 1e-4c-0.1833 0.0369-0.3627 0.0943-0.5308 0.1804h-1e-4c-0.0934 0.0479-0.1844 0.104-0.2705 0.1665l-5e-4 4e-4c-0.031 0.0226-0.058 0.0515-0.088 0.0759l-1e-4 1e-4c-1e-3 8e-4 -0.0024 1e-3 -0.0033 0.0017l-5e-4 4e-4c-0.0517 0.0424-0.1041 0.0834-0.1522 0.1315l-4e-4 4e-4c-0.0723 0.0659-12.98 11.833-12.98 11.833l-2e-4 -2e-4c-0.0315-0.0239-5.6537-4.2884-5.6537-4.2884l-6e-4 -5e-4c-0.5262-0.3988-1.263-0.3657-1.7516 0.0785l-3e-4 2e-4c-0.02 0.0183-1.8127 1.6497-1.8127 1.6497l-3e-4 3e-4c-0.5977 0.5436-0.5984 1.4834-0.0014 2.0277l1e-4 2e-4c0.0273 0.0249 4.9026 4.4706 4.9026 4.4706l-2e-4 1e-4c-0.0273 0.0249-4.9025 4.4689-4.9025 4.4689l-4e-4 3e-4c-0.5968 0.5445-0.5958 1.4843 0.0021 2.0278l3e-4 2e-4c0.02 0.0182 1.8127 1.6479 1.8127 1.6479l5e-4 5e-4c0.4888 0.4439 1.2256 0.4767 1.7517 0.0776l2e-4 -2e-4c0.0315-0.0239 5.652-4.2884 5.652-4.2884l4e-4 4e-4c0.0723 0.0659 12.982 11.835 12.982 11.835l4e-4 4e-4c0.0436 0.0436 0.0916 0.0803 0.1384 0.1193l4e-4 3e-4c0.0028 0.0021 0.0055 0.0046 0.0083 0.0067h0.0018l2e-4 2e-4c0.0018 0.0013 0.0031 0.0036 5e-3 5e-3l5e-4 4e-4c0.1135 0.093 0.2326 0.1771 0.3604 0.2425l4e-4 2e-4c0.0933 0.0478 0.1889 0.0885 0.2876 0.1213l4e-4 1e-4c0.0987 0.0327 0.1992 0.0571 0.3014 0.0745h0.0022c0.1018 0.0173 0.2067 0.0276 0.3101 0.0295h5e-4c0.1034 0.0015 0.2086-5e-3 0.3118-0.0191l5e-4 -1e-4c0.1032-0.0143 0.207-0.0372 0.3083-0.0676l5e-4 -1e-4c0.1018-0.0306 0.2016-0.069 0.2997-0.1161l2e-4 -1e-4c0.0378-0.0182 6.7814-3.2615 6.7814-3.2615l3e-4 -1e-4c0.7123-0.3428 1.1655-1.0623 1.1655-1.8527v-7e-4 -22.108-2e-4c-1e-4 -0.7905-0.4534-1.51-1.1658-1.8526l-3e-4 -1e-4c-0.0377-0.0182-6.7813-3.2615-6.7813-3.2615l-4e-4 -2e-4c-0.1967-0.0945-0.4018-0.1553-0.6103-0.1837h-4e-4c-0.1033-0.0141-0.2067-0.0208-0.3101-0.0191zm0.1801 2.5049m0.46 6.395v10.74 4.2064l-7.0782-5.3704c-0.0215-0.0163-2.7723-2.1034-2.7723-2.1034l7.0782-5.3692" style="fill-opacity:.01;fill:#000000"/>
		<path d="m39.25 25.858c-0.0965 0.0016-0.1927 0.0116-0.2877 0.0264l-5e-4 1e-4c-0.0302 0.0047-0.0595 0.0133-0.0896 0.0194h-2e-4c-0.1864 0.0376-0.3689 0.0959-0.5398 0.1835l-3e-4 1e-4c-0.0949 0.0487-0.1875 0.1057-0.2751 0.1694l-4e-4 3e-4c-0.0316 0.023-0.0591 0.0524-0.0896 0.0773l-2e-4 1e-4c-9e-4 8e-4 -0.0024 1e-3 -0.0033 0.0017l-4e-4 3e-4c-0.0527 0.0432-0.106 0.085-0.1549 0.1339l-4e-4 3e-4c-0.0623 0.0568-13.205 12.039-13.205 12.039l-1e-4 -1e-4c-0.0272-0.0206-5.752-4.363-5.752-4.363l-5e-4 -3e-4c-0.5354-0.4059-1.285-0.3722-1.7822 0.0797l-2e-4 2e-4c-0.0173 0.0157-1.8442 1.6784-1.8442 1.6784l-3e-4 2e-4c-0.6081 0.553-0.6089 1.5092-0.0015 2.063l1e-4 2e-4c0.0236 0.0214 4.9878 4.5483 4.9878 4.5483l-2e-4 1e-4c-0.0235 0.0214-4.9877 4.5465-4.9877 4.5465l-3e-4 2e-4c-0.6072 0.554-0.6063 1.5102 0.0021 2.0631l2e-4 2e-4c0.0173 0.0157 1.8442 1.6765 1.8442 1.6765l5e-4 4e-4c0.4973 0.4518 1.2469 0.4851 1.7822 0.0791l1e-4 -2e-4c0.0272-0.0206 5.7502-4.3629 5.7502-4.3629l4e-4 3e-4c0.0623 0.0568 13.207 12.04 13.207 12.04l3e-4 3e-4c0.0444 0.0444 0.0933 0.0818 0.1409 0.1215l3e-4 2e-4c0.0029 0.0021 0.0056 0.0048 0.0085 0.0069h0.0019l2e-4 2e-4c0.0018 0.0014 0.0031 0.0037 0.0051 0.0051l4e-4 3e-4c0.1155 0.0946 0.2366 0.1802 0.3667 0.2468l3e-4 2e-4c0.095 0.0486 0.1922 0.09 0.2927 0.1234l3e-4 1e-4c0.1005 0.0333 0.2027 0.0581 0.3068 0.0758h0.0022c0.1035 0.0176 0.2103 0.0281 0.3155 0.03h4e-4c0.1052 0.0015 0.2123-5e-3 0.3173-0.0195h4e-4c0.1051-0.0146 0.2107-0.0378 0.3138-0.0688l4e-4 -1e-4c0.1036-0.0311 0.2052-0.0702 0.305-0.1181l1e-4 -1e-4c0.0326-0.0157 6.8992-3.3181 6.8992-3.3181l4e-4 -2e-4c0.7246-0.3487 1.1857-1.0807 1.1857-1.8849v-6e-4 -22.493-2e-4c-1e-4 -0.8043-0.4613-1.5363-1.1861-1.8848l-1e-4 -1e-4c-0.0326-0.0157-6.8992-3.3181-6.8992-3.3181l-4e-4 -2e-4c-0.2001-0.0962-0.4088-0.158-0.6209-0.1869l-4e-4 -1e-4c-0.1051-0.0143-0.2103-0.0211-0.3155-0.0193zm0.2548 3.5424m0.3964 5.512v9.2568 5.9487l-6.101-4.6289c-0.0304-0.0231-3.9206-2.9747-3.9206-2.9747l6.101-4.6279" style="fill-opacity:.01;fill:#000000"/>
		<path d="m39.352 24.536c-0.0977 0.0016-0.1951 0.0117-0.2914 0.0268h-4e-4c-0.0307 0.0048-0.0604 0.0135-0.0908 0.0196l-3e-4 1e-4c-0.1888 0.0381-0.3737 0.0972-0.5469 0.1859l-3e-4 1e-4c-0.0962 0.0493-0.1899 0.1071-0.2786 0.1716l-4e-4 3e-4c-0.0321 0.0233-0.0599 0.0531-0.0908 0.0783l-2e-4 2e-4c-1e-3 7e-4 -0.0025 9e-4 -0.0034 0.0017l-3e-4 2e-4c-0.0534 0.0438-0.1075 0.0861-0.157 0.1357l-4e-4 3e-4c-0.0546 0.0498-13.378 12.196-13.378 12.196l-2e-4 -1e-4c-0.0238-0.018-5.8273-4.4201-5.8273-4.4201l-4e-4 -3e-4c-0.5425-0.4112-1.3019-0.3772-1.8056 0.0808l-2e-4 1e-4c-0.0151 0.0138-1.8684 1.7004-1.8684 1.7004l-2e-4 2e-4c-0.6162 0.5602-0.617 1.529-0.0016 2.0901l1e-4 1e-4c0.0206 0.0188 5.0531 4.6079 5.0531 4.6079l-1e-4 1e-4c-0.0207 0.0188-5.0531 4.6061-5.0531 4.6061l-3e-4 2e-4c-0.6152 0.5612-0.6143 1.5299 0.0021 2.0901l2e-4 2e-4c0.0151 0.0137 1.8684 1.6985 1.8684 1.6985l4e-4 4e-4c0.5038 0.4577 1.2633 0.4915 1.8056 0.0801l1e-4 -1e-4c0.0238-0.0181 5.8256-4.4202 5.8256-4.4202l3e-4 3e-4c0.0547 0.0499 13.38 12.198 13.38 12.198l3e-4 3e-4c0.0451 0.045 0.0946 0.0829 0.1428 0.1231l3e-4 2e-4c0.0029 0.0022 0.0057 0.0048 0.0087 7e-3h0.0018l4e-4 3e-4c0.0018 0.0014 0.0031 0.0036 5e-3 0.0051l4e-4 3e-4c0.117 0.0958 0.2398 0.1825 0.3715 0.25l3e-4 2e-4c0.0962 0.0492 0.1948 0.0912 0.2966 0.125l3e-4 1e-4c0.1018 0.0337 0.2054 0.0589 0.3108 0.0768h0.0022c0.1048 0.0179 0.2131 0.0285 0.3197 0.0304h3e-4c0.1067 0.0016 0.2151-0.0051 0.3216-0.0197h3e-4c0.1065-0.0148 0.2135-0.0384 0.318-0.0697l3e-4 -1e-4c0.105-0.0315 0.2079-0.0711 0.309-0.1197l2e-4 -1e-4c0.0285-0.0137 6.9896-3.3616 6.9896-3.3616l3e-4 -1e-4c0.7342-0.3533 1.2013-1.0949 1.2013-1.9096v-6e-4 -22.787-3e-4c-1e-4 -0.8148-0.4674-1.5564-1.2016-1.9095h-2e-4c-0.0285-0.0138-6.9896-3.3616-6.9896-3.3616l-3e-4 -2e-4c-0.2028-0.0975-0.4142-0.1601-0.6291-0.1894h-3e-4c-0.1065-0.0145-0.2131-0.0214-0.3197-0.0196h-2e-4zm0.3121 4.3385m0.3478 4.8345v8.1191 7.2856l-5.3512-4.06c-0.0372-0.0282-4.8018-3.6432-4.8018-3.6432l5.3511-4.0591" style="fill-opacity:.01;fill:#000000"/>
		<path d="m39.437 23.422c-0.0988 0.0016-0.1973 0.0119-0.2946 0.0271h-4e-4c-0.031 0.0049-0.061 0.0137-0.0918 0.0199h-3e-4c-0.1909 0.0385-0.3778 0.0983-0.5528 0.188l-4e-4 1e-4c-0.0972 0.0498-0.192 0.1083-0.2816 0.1734l-4e-4 3e-4c-0.0324 0.0235-0.0606 0.0537-0.0918 0.0792l-2e-4 2e-4c-1e-3 7e-4 -0.0025 9e-4 -0.0034 0.0017l-3e-4 2e-4c-0.054 0.0443-0.1087 0.087-0.1588 0.1372l-3e-4 2e-4c-0.0482 0.044-13.524 12.33-13.524 12.33l-1e-4 -1e-4c-0.021-0.0159-5.8909-4.4683-5.8909-4.4683l-4e-4 -3e-4c-0.5484-0.4157-1.3161-0.3813-1.8253 0.0816l-2e-4 1e-4c-0.0134 0.0122-1.8888 1.7189-1.8888 1.7189l-2e-4 2e-4c-0.6229 0.5664-0.6237 1.5457-0.0017 2.113h2e-4c0.0182 0.0167 5.1082 4.6582 5.1082 4.6582l-1e-4 1e-4c-0.0182 0.0166-5.1083 4.6563-5.1083 4.6563l-2e-4 2e-4c-0.6219 0.5673-0.621 1.5466 0.0021 2.1129l2e-4 2e-4c0.0133 0.0121 1.8888 1.7171 1.8888 1.7171l3e-4 3e-4c0.5093 0.4627 1.2771 0.4969 1.8254 0.081l1e-4 -1e-4c0.021-0.0159 5.8891-4.4683 5.8891-4.4683l3e-4 2e-4c0.0482 0.044 13.526 12.331 13.526 12.331l2e-4 3e-4c0.0456 0.0455 0.0957 0.0838 0.1444 0.1245l3e-4 2e-4c0.0029 0.0021 0.0058 0.0048 0.0088 7e-3h0.0019l4e-4 3e-4c0.0017 0.0015 3e-3 0.0037 5e-3 0.0052l3e-4 2e-4c0.1184 0.0969 0.2424 0.1846 0.3757 0.2528l3e-4 2e-4c0.0972 0.0498 0.1969 0.0922 0.2998 0.1264l2e-4 1e-4c0.1029 0.0341 0.2077 0.0595 0.3143 0.0776h0.0021c0.1061 0.0181 0.2155 0.0288 0.3233 0.0307h3e-4c0.1078 0.0017 0.2174-0.0051 0.3251-0.0199h3e-4c0.1076-0.0149 0.2158-0.0388 0.3214-0.0704l3e-4 -1e-4c0.1062-0.0319 0.2103-0.0719 0.3124-0.1211h2e-4c0.0252-0.0121 7.0658-3.3983 7.0658-3.3983l3e-4 -1e-4c0.7422-0.3571 1.2144-1.1068 1.2144-1.9304v-5e-4 -23.036-3e-4c-1e-4 -0.8236-0.4724-1.5733-1.2147-1.9302l-1e-4 -1e-4c-0.0252-0.0121-7.0658-3.3982-7.0658-3.3982l-3e-4 -2e-4c-0.205-0.0985-0.4188-0.1619-0.636-0.1914l-3e-4 -1e-4c-0.1077-0.0146-0.2155-0.0216-0.3233-0.0198h-1e-4zm0.3604 5.0097m0.3066 4.2634v7.1599 8.4127l-4.719-3.5804c-0.0429-0.0326-5.5446-4.2068-5.5446-4.2068l4.719-3.5796" style="fill-opacity:.01;fill:#000000"/>
		<path d="m39.512 22.44c-0.0997 0.0016-0.1991 0.012-0.2974 0.0273l-3e-4 1e-4c-0.0313 0.0048-0.0617 0.0138-0.0928 0.02l-3e-4 1e-4c-0.1927 0.0389-0.3813 0.0992-0.558 0.1897l-4e-4 2e-4c-0.0981 0.0503-0.1938 0.1092-0.2843 0.175l-3e-4 2e-4c-0.0327 0.0238-0.0612 0.0543-0.0928 0.0801l-2e-4 1e-4c-1e-3 7e-4 -0.0025 1e-3 -0.0034 0.0017l-3e-4 2e-4c-0.0545 0.0447-0.1097 0.0879-0.1603 0.1385l-3e-4 2e-4c-0.0425 0.0388-13.653 12.447-13.653 12.447l-1e-4 -1e-4c-0.0185-0.014-5.9469-4.5108-5.9469-4.5108l-4e-4 -2e-4c-0.5535-0.4197-1.3286-0.385-1.8427 0.0823l-1e-4 1e-4c-0.0118 0.0108-1.9068 1.7353-1.9068 1.7353l-2e-4 2e-4c-0.6288 0.5717-0.6296 1.5604-0.0016 2.133l1e-4 1e-4c0.016 0.0146 5.1567 4.7024 5.1567 4.7024l-1e-4 1e-4c-0.016 0.0146-5.1567 4.7005-5.1567 4.7005l-2e-4 2e-4c-0.6279 0.5727-0.627 1.5614 2e-3 2.133l2e-4 2e-4c0.0117 0.0107 1.9067 1.7334 1.9067 1.7334l3e-4 3e-4c0.5142 0.4671 1.2893 0.5017 1.8428 0.0818l1e-4 -1e-4c0.0185-0.014 5.9451-4.5108 5.9451-4.5108l2e-4 2e-4c0.0425 0.0388 13.655 12.448 13.655 12.448l2e-4 3e-4c0.046 0.0459 0.0965 0.0846 0.1458 0.1257l2e-4 1e-4c3e-3 0.0022 0.0059 5e-3 9e-3 0.0072h0.0018l5e-4 3e-4c0.0017 0.0015 0.0031 0.0037 5e-3 0.0052l3e-4 2e-4c0.1195 0.0978 0.2448 0.1864 0.3793 0.2552l2e-4 2e-4c0.0982 0.0503 0.1988 0.0931 0.3027 0.1276l2e-4 1e-4c0.1039 0.0344 0.2097 0.0601 0.3173 0.0783h0.0019l2e-4 1e-4c0.1071 0.0182 0.2176 0.0291 0.3264 0.031h3e-4c0.1088 0.0016 0.2195-0.0052 0.3282-0.0201h2e-4c0.1087-0.0151 0.218-0.0392 0.3246-0.0712h2e-4c0.1072-0.0322 0.2123-0.0726 0.3155-0.1222l1e-4 -1e-4c0.0222-0.0107 7.133-3.4305 7.133-3.4305l2e-4 -1e-4c0.7493-0.3605 1.2261-1.1174 1.2261-1.9488v-4e-4 -23.255-4e-4c-2e-4 -0.8314-0.477-1.5882-1.2263-1.9485l-1e-4 -1e-4c-0.0222-0.0107-7.133-3.4305-7.133-3.4305l-2e-4 -1e-4c-0.207-0.0996-0.4228-0.1635-0.6421-0.1934h-3e-4c-0.1087-0.0148-0.2175-0.0219-0.3264-0.02h-1e-4zm0.4029 5.6011m0.2705 3.7601v6.3149 9.4057l-4.1621-3.1579c-0.048-0.0364-6.1991-4.7033-6.1991-4.7033l4.1621-3.1571" style="fill-opacity:.01;fill:#000000"/>
		<path d="m39.58 21.553c-0.1006 0.0017-0.2009 0.0121-0.3 0.0276l-3e-4 1e-4c-0.0316 0.0049-0.0622 0.0139-0.0936 0.0202l-3e-4 1e-4c-0.1943 0.0392-0.3846 0.1-0.5628 0.1913l-4e-4 2e-4c-0.099 0.0507-0.1954 0.1101-0.2867 0.1764l-3e-4 2e-4c-0.033 0.0241-0.0617 0.0548-0.0936 0.0808l-2e-4 2e-4c-0.0011 7e-4 -0.0025 9e-4 -0.0034 0.0017l-3e-4 2e-4c-0.0549 0.0451-0.1106 0.0886-0.1617 0.1397l-2e-4 2e-4c-0.0374 0.034-13.769 12.553-13.769 12.553l-1e-4 -1e-4c-0.0162-0.0124-5.9975-4.5492-5.9975-4.5492l-3e-4 -2e-4c-0.5583-0.4233-1.34-0.3883-1.8584 0.083l-1e-4 1e-4c-0.0104 0.0094-1.923 1.75-1.923 1.75l-2e-4 2e-4c-0.6342 0.5766-0.6351 1.5737-0.0017 2.1512h1e-4c0.0141 0.0129 5.2006 4.7425 5.2006 4.7425l-1e-4 1e-4c-0.0141 0.0128-5.2006 4.7405-5.2006 4.7405l-2e-4 2e-4c-0.6333 0.5775-0.6323 1.5746 0.0021 2.1512l1e-4 1e-4c0.0103 0.0094 1.923 1.7482 1.923 1.7482l3e-4 2e-4c0.5185 0.4712 1.3002 0.5061 1.8584 0.0826l1e-4 -1e-4c0.0163-0.0123 5.9957-4.5492 5.9957-4.5492l2e-4 2e-4c0.0374 0.0341 13.771 12.554 13.771 12.554l2e-4 2e-4c0.0464 0.0463 0.0974 0.0853 0.147 0.1268l2e-4 1e-4c0.0031 0.0022 6e-3 5e-3 0.0091 0.0072h0.0019l5e-4 4e-4c0.0017 0.0015 0.0031 0.0037 5e-3 0.0052l3e-4 2e-4c0.1205 0.0987 0.2468 0.188 0.3825 0.2574l2e-4 1e-4c0.0991 0.0508 0.2005 0.094 0.3053 0.1288h2e-4c0.1048 0.0348 0.2115 0.0607 0.32 0.0791h0.0021c0.108 0.0184 0.2194 0.0294 0.3292 0.0313h2e-4c0.1098 0.0017 0.2215-0.0052 0.3311-0.0203h2e-4c0.1096-0.0152 0.2198-0.0394 0.3274-0.0717l2e-4 -1e-4c0.1081-0.0324 0.2141-0.0732 0.3181-0.1232l1e-4 -1e-4c0.0196-0.0094 7.1937-3.4597 7.1937-3.4597l2e-4 -1e-4c0.7557-0.3635 1.2365-1.1268 1.2365-1.9654v-4e-4 -23.453-4e-4c-1e-4 -0.8385-0.481-1.6017-1.2367-1.965l-1e-4 -1e-4c-0.0195-0.0094-7.1936-3.4598-7.1936-3.4598l-3e-4 -1e-4c-0.2087-0.1003-0.4264-0.1648-0.6475-0.1949l-3e-4 -1e-4c-0.1096-0.0149-0.2194-0.022-0.3292-0.0202zm0.4413 6.1357m0.2377 3.3052v5.5509 10.303l-3.6585-2.7758c-0.0527-0.0399-6.7908-5.1523-6.7908-5.1523l3.6585-2.7751" style="fill-opacity:.01;fill:#000000"/>
		<path d="m39.643 20.737c-0.1014 0.0017-0.2024 0.0123-0.3023 0.0279h-2e-4c-0.0319 0.0049-0.0628 0.014-0.0944 0.0204h-4e-4c-0.1958 0.0396-0.3875 0.1008-0.5671 0.1928l-4e-4 2e-4c-0.0997 0.0512-0.197 0.1111-0.2889 0.1779l-3e-4 2e-4c-0.0332 0.0242-0.0622 0.0552-0.0943 0.0814l-3e-4 2e-4c-1e-3 7e-4 -0.0025 9e-4 -0.0034 0.0017l-2e-4 1e-4c-0.0554 0.0455-0.1116 0.0894-0.163 0.1408l-2e-4 2e-4c-0.0326 0.0298-13.876 12.65-13.876 12.65h-1e-4c-0.0142-0.0108-6.0441-4.5846-6.0441-4.5846l-2e-4 -1e-4c-0.5626-0.4267-1.3504-0.3914-1.8729 0.0836l-1e-4 1e-4c-0.0091 0.0082-1.938 1.7636-1.938 1.7636l-1e-4 2e-4c-0.6392 0.581-0.64 1.5859-0.0018 2.1678l1e-4 1e-4c0.0123 0.0113 5.241 4.7793 5.241 4.7793-0.0124 0.0113-5.2411 4.7774-5.2411 4.7774l-1e-4 1e-4c-0.6382 0.582-0.6373 1.5869 2e-3 2.1679l1e-4 1e-4c0.0091 0.0083 1.938 1.7618 1.938 1.7618l2e-4 2e-4c0.5226 0.4749 1.3104 0.51 1.8729 0.0833l1e-4 -1e-4c0.0142-0.0108 6.0422-4.5845 6.0422-4.5845l2e-4 2e-4c0.0326 0.0297 13.878 12.652 13.878 12.652l1e-4 1e-4c0.0468 0.0468 0.0982 0.086 0.1482 0.1278l2e-4 2e-4c0.0031 0.0022 0.0061 5e-3 0.0092 0.0073h0.0019l5e-4 4e-4c0.0018 0.0015 0.0031 0.0037 0.0051 0.0052l2e-4 1e-4c0.1215 0.0995 0.2488 0.1895 0.3855 0.2595l2e-4 1e-4c0.0998 0.0511 0.2021 0.0947 0.3077 0.1297l2e-4 1e-4c0.1056 0.035 0.2131 0.0611 0.3225 0.0797h0.0021c0.1088 0.0185 0.2211 0.0295 0.3318 0.0315h2e-4c0.1106 0.0017 0.2231-0.0052 0.3336-0.0204h2e-4c0.1105-0.0153 0.2215-0.0398 0.3299-0.0723l2e-4 -1e-4c0.109-0.0327 0.2158-0.0737 0.3207-0.1242h1e-4c0.017-0.0082 7.2495-3.4866 7.2495-3.4866l2e-4 -1e-4c0.7615-0.3663 1.2461-1.1356 1.2461-1.9807v-3e-4 -23.635-4e-4c-2e-4 -0.845-0.4848-1.6141-1.2463-1.9803l-1e-4 -1e-4c-0.0171-0.0082-7.2495-3.4866-7.2495-3.4866l-2e-4 -1e-4c-0.2104-0.1011-0.4297-0.1661-0.6526-0.1965h-2e-4c-0.1105-0.015-0.2212-0.0222-0.3318-0.0204h-1e-4zm0.4767 6.6273m0.2076 2.8868v4.8485 11.129l-3.1955-2.4245c-0.0568-0.0431-7.3349-5.5651-7.3349-5.5651l3.1955-2.4239" style="fill-opacity:.01;fill:#000000"/>
		<path d="m39.701 19.977c-0.1021 0.0017-0.2039 0.0123-0.3045 0.028h-2e-4c-0.0321 5e-3 -0.0632 0.0141-0.095 0.0205l-5e-4 1e-4c-0.1971 0.0398-0.3902 0.1015-0.5711 0.1942l-4e-4 2e-4c-0.1005 0.0515-0.1984 0.1118-0.291 0.1791l-2e-4 1e-4c-0.0335 0.0244-0.0627 0.0557-0.0951 0.0821l-3e-4 2e-4c-1e-3 7e-4 -0.0024 9e-4 -0.0034 0.0017l-2e-4 1e-4c-0.0558 0.0458-0.1123 0.09-0.1642 0.1419l-1e-4 1e-4c-0.0283 0.0257-13.975 12.741-13.975 12.741l-1e-4 -1e-4c-0.0123-0.0093-6.0874-4.6173-6.0874-4.6173l-2e-4 -2e-4c-0.5666-0.4297-1.3601-0.3942-1.8863 0.0842l-1e-4 1e-4c-0.0079 0.0071-1.9519 1.7763-1.9519 1.7763l-1e-4 1e-4c-0.6438 0.5852-0.6446 1.5973-0.0018 2.1834l1e-4 1e-4c0.0106 0.0097 5.2786 4.8135 5.2786 4.8135h-1e-4c-0.0107 0.0098-5.2786 4.8117-5.2786 4.8117l-1e-4 1e-4c-0.6428 0.5862-0.6419 1.5983 2e-3 2.1834l1e-4 1e-4c0.0078 0.0071 1.9519 1.7744 1.9519 1.7744l2e-4 2e-4c0.5263 0.4783 1.3197 0.5137 1.8863 0.0839l1e-4 -1e-4c0.0123-0.0093 6.0855-4.6173 6.0855-4.6173l2e-4 1e-4c0.0282 0.0258 13.977 12.743 13.977 12.743l2e-4 2e-4c0.0471 0.047 0.0989 0.0866 0.1493 0.1287l1e-4 1e-4c0.0031 0.0023 0.0061 0.0051 0.0093 0.0074h0.0019l5e-4 4e-4c0.0018 0.0015 0.0031 0.0037 0.0051 0.0052l2e-4 2e-4c0.1223 0.1001 0.2506 0.1908 0.3883 0.2613l2e-4 1e-4c0.1005 0.0515 0.2035 0.0954 0.3099 0.1307h2e-4c0.1063 0.0353 0.2146 0.0616 0.3248 0.0803h0.0021c0.1096 0.0187 0.2227 0.0298 0.3342 0.0317h1e-4c0.1115 0.0017 0.2248-0.0052 0.3361-0.0205h2e-4c0.1113-0.0154 0.2231-0.0401 0.3323-0.0729h1e-4c0.1098-0.0329 0.2174-0.0743 0.323-0.1251h1e-4c0.0148-0.0071 7.3015-3.5116 7.3015-3.5116l1e-4 -1e-4c0.7671-0.369 1.2551-1.1437 1.2551-1.9948v-3e-4 -23.804-4e-4c-2e-4 -0.8511-0.4882-1.6256-1.2552-1.9945h-1e-4c-0.0147-0.0071-7.3015-3.5116-7.3015-3.5116l-1e-4 -1e-4c-0.2119-0.1019-0.4328-0.1673-0.6574-0.1979h-1e-4c-0.1113-0.0152-0.2228-0.0224-0.3342-0.0205h-1e-4zm0.5096 7.0848m0.1796 2.4974v4.1945 11.897l-2.7645-2.0975c-0.0608-0.0461-7.8413-5.9494-7.8413-5.9494l2.7645-2.097" style="fill-opacity:.01;fill:#000000"/>
		<path d="m39.756 19.264c-0.1028 0.0017-0.2052 0.0124-0.3065 0.0282l-2e-4 1e-4c-0.0323 5e-3 -0.0636 0.0142-0.0957 0.0206l-5e-4 1e-4c-0.1985 0.0401-0.3928 0.1022-0.5749 0.1955l-5e-4 2e-4c-0.1011 0.0518-0.1996 0.1126-0.2929 0.1803l-1e-4 1e-4c-0.0338 0.0246-0.0632 0.056-0.0958 0.0826l-3e-4 3e-4c-1e-3 6e-4 -0.0025 9e-4 -0.0034 0.0017l-2e-4 1e-4c-0.0562 0.0461-0.1131 0.0906-0.1653 0.1428l-1e-4 1e-4c-0.0241 0.022-14.069 12.826-14.069 12.826h-1e-4c-0.0105-8e-3 -6.1281-4.6482-6.1281-4.6482l-2e-4 -2e-4c-0.5704-0.4326-1.3692-0.3968-1.8989 0.0848h-1e-4c-0.0067 0.0061-1.9649 1.7882-1.9649 1.7882l-1e-4 1e-4c-0.6481 0.5891-0.649 1.608-0.0019 2.1981h1e-4c0.0091 0.0083 5.3139 4.8457 5.3139 4.8457h-1e-4c-0.0091 0.0083-5.3139 4.8438-5.3139 4.8438l-1e-4 1e-4c-0.6471 0.5901-0.6462 1.609 0.0021 2.1981 0.0067 0.0061 1.965 1.7863 1.965 1.7863l1e-4 2e-4c0.5299 0.4815 1.3286 0.5171 1.899 0.0844h1e-4c0.0105-8e-3 6.1262-4.6482 6.1262-4.6482l1e-4 1e-4c0.0241 0.022 14.071 12.828 14.071 12.828l1e-4 1e-4c0.0475 0.0474 0.0996 0.0872 0.1503 0.1296l2e-4 1e-4c0.0031 0.0023 0.0061 0.0051 0.0093 0.0074h0.0019l6e-4 5e-4c0.0018 0.0015 0.0031 0.0037 0.0051 0.0052l1e-4 1e-4c0.1232 0.1009 0.2523 0.1921 0.391 0.2632h1e-4c0.1013 0.0519 0.205 0.096 0.312 0.1316h2e-4c0.1071 0.0355 0.2161 0.062 0.327 0.0808h2e-3l1e-4 1e-4c0.1103 0.0187 0.2242 0.0299 0.3364 0.0319h2e-4c0.1122 0.0017 0.2263-0.0053 0.3383-0.0207h2e-4c0.112-0.0155 0.2246-0.0403 0.3345-0.0733l2e-4 -1e-4c0.1105-0.0331 0.2188-0.0747 0.3251-0.1259h1e-4c0.0126-0.0061 7.3503-3.5351 7.3503-3.5351l1e-4 -1e-4c0.7722-0.3714 1.2635-1.1513 1.2635-2.0081v-3e-4 -23.963-5e-4c-2e-4 -0.8567-0.4915-1.6365-1.2636-2.0078h-1e-4c-0.0126-0.0061-7.3503-3.5351-7.3503-3.5351h-1e-4c-0.2133-0.1026-0.4357-0.1685-0.6618-0.1993h-1e-4c-0.1121-0.0153-0.2242-0.0226-0.3364-0.0207h-1e-4zm0.5405 7.5147m0.1533 2.1316v3.5804 12.619l-2.3597-1.7903c-0.0645-0.049-8.317-6.3103-8.317-6.3103l2.3597-1.79" style="fill-opacity:.01;fill:#000000"/>
		<path d="m39.807 18.589c-0.1034 0.0018-0.2065 0.0125-0.3084 0.0284l-2e-4 1e-4c-0.0325 5e-3 -0.064 0.0143-0.0963 0.0207l-5e-4 1e-4c-0.1998 0.0404-0.3953 0.1029-0.5786 0.1967l-4e-4 3e-4c-0.1018 0.0521-0.2009 0.1132-0.2947 0.1814l-2e-4 1e-4c-0.034 0.0247-0.0635 0.0563-0.0963 0.0831l-4e-4 3e-4c-1e-3 7e-4 -0.0025 9e-4 -0.0034 0.0017l-1e-4 1e-4c-0.0566 0.0464-0.1139 0.0912-0.1664 0.1437l-1e-4 1e-4c-0.0202 0.0184-14.157 12.906-14.157 12.906l-1e-4 -1e-4c-0.0088-0.0066-6.1665-4.6774-6.1665-4.6774l-2e-4 -1e-4c-0.574-0.4353-1.3778-0.3994-1.9109 0.0853h-1e-4c-0.0056 0.0051-1.9772 1.7994-1.9772 1.7994l-1e-4 1e-4c-0.6522 0.5929-0.6531 1.6181-0.0019 2.2119h1e-4c0.0076 7e-3 5.3472 4.8761 5.3472 4.8761v1e-4c-0.0077 0.0069-5.3473 4.8742-5.3473 4.8742l-1e-4 1e-4c-0.6512 0.5937-0.6502 1.619 0.0021 2.2118v1e-4c0.0056 0.0051 1.9773 1.7975 1.9773 1.7975l1e-4 1e-4c0.5332 0.4846 1.337 0.5205 1.911 0.085 0.0088-0.0067 6.1647-4.6774 6.1647-4.6774l1e-4 1e-4c0.0202 0.0184 14.159 12.908 14.159 12.908l1e-4 1e-4c0.0477 0.0477 0.1002 0.0878 0.1512 0.1305l2e-4 1e-4c0.0031 0.0023 0.0062 0.0051 0.0094 0.0075h0.0019l6e-4 5e-4c0.0018 0.0015 0.0031 0.0037 0.0051 0.0052l1e-4 1e-4c0.124 0.1015 0.2539 0.1933 0.3935 0.2648h1e-4c0.1018 0.0522 0.2062 0.0967 0.314 0.1324l1e-4 1e-4c0.1078 0.0357 0.2175 0.0623 0.3291 0.0813h0.0021c0.111 0.0189 0.2256 0.0302 0.3386 0.0321l1e-4 1e-4c0.1129 0.0017 0.2277-0.0054 0.3404-0.0209h2e-4c0.1127-0.0156 0.2261-0.0406 0.3367-0.0738h1e-4c0.1112-0.0333 0.2202-0.0752 0.3272-0.1267l1e-4 -1e-4c0.0105-5e-3 7.3964-3.5572 7.3964-3.5572l1e-4 -1e-4c0.777-0.3737 1.2715-1.1586 1.2715-2.0208v-2e-4 -24.114-5e-4c-2e-4 -0.8621-0.4947-1.6468-1.2716-2.0204-0.0106-0.0051-7.3965-3.5573-7.3965-3.5573h-1e-4c-0.2147-0.1032-0.4385-0.1696-0.6659-0.2005l-2e-4 -1e-4c-0.1127-0.0153-0.2256-0.0226-0.3385-0.0207h-1e-4zm0.5697 7.9212m0.1285 1.7857v2.9995 13.302l-1.9769-1.4999c-0.068-0.0515-8.7669-6.6516-8.7669-6.6516l1.9769-1.4995" style="fill-opacity:.01;fill:#000000"/>
		<path d="m39.856 17.947c-0.104 0.0018-0.2078 0.0126-0.3103 0.0286h-1e-4c-0.0328 0.0051-0.0645 0.0144-0.097 0.0209l-5e-4 1e-4c-0.2009 0.0406-0.3976 0.1035-0.5819 0.1979l-5e-4 3e-4c-0.1023 0.0524-0.2021 0.1139-0.2964 0.1824l-2e-4 1e-4c-0.0342 0.0249-0.0639 0.0567-0.0969 0.0837l-4e-4 2e-4c-1e-3 7e-4 -0.0025 9e-4 -0.0034 0.0017l-1e-4 1e-4c-0.0569 0.0467-0.1146 0.0917-0.1674 0.1446l-1e-4 1e-4c-0.0165 0.015-14.241 12.983-14.241 12.983l-1e-4 -1e-4c-0.0071-0.0054-6.2031-4.7051-6.2031-4.7051l-1e-4 -1e-4c-0.5775-0.438-1.3861-0.4018-1.9224 0.0857v1e-4c-0.0046 0.0041-1.989 1.81-1.989 1.81l-1e-4 1e-4c-0.6561 0.5964-0.6569 1.6277-0.0019 2.225l1e-4 1e-4c0.0062 0.0056 5.379 4.905 5.379 4.905h-1e-4c-0.0062 0.0057-5.379 4.9032-5.379 4.9032v1e-4c-0.6551 0.5973-0.6542 1.6286 2e-3 2.225 0.0046 0.0042 1.989 1.8082 1.989 1.8082l2e-4 1e-4c0.5363 0.4875 1.3449 0.5236 1.9223 0.0856v-1e-4c0.0072-0.0054 6.2013-4.7052 6.2013-4.7052l1e-4 1e-4c0.0164 0.015 14.243 12.985 14.243 12.985l1e-4 1e-4c0.048 0.048 0.1008 0.0883 0.1522 0.1312v1e-4c0.0032 0.0023 0.0063 0.0052 0.0095 0.0075h2e-3l6e-4 6e-4c0.0018 0.0015 0.0031 0.0037 0.0051 0.0052l1e-4 1e-4c0.1247 0.1021 0.2554 0.1945 0.3958 0.2664h1e-4c0.1025 0.0525 0.2075 0.0972 0.3159 0.1332h1e-4c0.1084 0.036 0.2187 0.0627 0.3311 0.0818h2e-3c0.1117 0.0191 0.2271 0.0304 0.3406 0.0324h1e-4c0.1136 0.0017 0.2291-0.0054 0.3425-0.0209l1e-4 -1e-4c0.1135-0.0156 0.2275-0.0408 0.3388-0.0742h1e-4c0.1118-0.0336 0.2215-0.0757 0.3291-0.1275h1e-4c0.0086-0.0042 7.4404-3.5784 7.4404-3.5784v-1e-4c0.7817-0.3759 1.2791-1.1654 1.2791-2.0327v-2e-4 -24.257-5e-4c-3e-4 -0.8672-0.4976-1.6565-1.2791-2.0323l-1e-4 -1e-4c-0.0086-0.0041-7.4403-3.5784-7.4403-3.5784h-1e-4c-0.216-0.1038-0.4411-0.1706-0.6699-0.2017h-1e-4c-0.1135-0.0155-0.2271-0.0229-0.3407-0.0209zm0.5975 8.3078m0.1048 1.4567v2.447 13.951l-1.6127-1.2236c-0.0713-0.0541-9.1948-6.9763-9.1948-6.9763l1.6127-1.2233" style="fill-opacity:.01;fill:#000000"/>
		<path d="m39.904 17.334c-0.1046 0.0018-0.2089 0.0126-0.312 0.0287h-1e-4c-0.033 0.0051-0.0649 0.0145-0.0976 0.0211l-5e-4 1e-4c-0.202 0.0408-0.3999 0.104-0.5852 0.199l-5e-4 2e-4c-0.1029 0.0528-0.2032 0.1146-0.2981 0.1835l-1e-4 1e-4c-0.0344 0.025-0.0643 0.057-0.0975 0.0841l-4e-4 3e-4c-0.0011 7e-4 -0.0025 9e-4 -0.0034 0.0017l-1e-4 1e-4c-0.0573 0.0469-0.1152 0.0922-0.1684 0.1454h-1e-4c-0.0129 0.0118-14.322 13.056-14.322 13.056v-1e-4c-0.0056-0.0042-6.2381-4.7317-6.2381-4.7317l-1e-4 -1e-4c-0.5807-0.4404-1.3939-0.404-1.9332 0.0862l-1e-4 1e-4c-0.0035 0.0032-2.0002 1.8203-2.0002 1.8203-0.6598 0.5998-0.6607 1.6369-0.0019 2.2376 0.0049 0.0045 5.4093 4.9327 5.4093 4.9327v1e-4c-0.0049 0.0044-5.4093 4.9308-5.4093 4.9308h-1e-4c-0.6588 0.6007-0.6579 1.6379 2e-3 2.2376h1e-4c0.0035 0.0033 2.0002 1.8184 2.0002 1.8184l1e-4 1e-4c0.5393 0.4902 1.3525 0.5266 1.9332 0.086 0.0056-0.0042 6.2362-4.7317 6.2362-4.7317l1e-4 1e-4c0.0129 0.0117 14.323 13.058 14.323 13.058l1e-4 1e-4c0.0483 0.0483 0.1013 0.0889 0.153 0.132l1e-4 1e-4c0.0032 0.0023 0.0063 0.0052 0.0095 0.0076h2e-3l7e-4 5e-4c0.0018 0.0016 0.0031 0.0038 0.0051 0.0053h1e-4c0.1254 0.1027 0.2568 0.1956 0.398 0.2679l1e-4 1e-4c0.1031 0.0528 0.2086 0.0977 0.3177 0.1339s0.2201 0.0631 0.333 0.0823h0.0021c0.1123 0.0192 0.2283 0.0306 0.3425 0.0326h1e-4c0.1142 0.0017 0.2304-0.0054 0.3445-0.0211 0.1141-0.0158 0.2288-0.0411 0.3407-0.0746l1e-4 -1e-4c0.1125-0.0337 0.2228-0.0761 0.331-0.1282h1e-4c0.0067-0.0033 7.4823-3.5986 7.4823-3.5986h1e-4c0.786-0.3781 1.2862-1.172 1.2862-2.0443v-1e-4 -24.394-5e-4c-2e-4 -0.8721-0.5004-1.6658-1.2863-2.0438-0.0068-0.0032-7.4824-3.5985-7.4824-3.5985v-1e-4c-0.2172-0.1044-0.4436-0.1715-0.6737-0.2028h-1e-4c-0.1141-0.0156-0.2283-0.023-0.3426-0.0211zm0.6241 8.6772m0.0822 1.1423v1.9191 14.571l-1.2648-0.9596c-0.0745-0.0565-9.6037-7.2865-9.6037-7.2865l1.2648-0.9594" style="fill-opacity:.01;fill:#000000"/>
		<path d="m39.948 16.746c-0.1051 0.0018-0.21 0.0127-0.3137 0.0289-0.0332 0.0052-0.0652 0.0146-0.0981 0.0212l-5e-4 1e-4c-0.2032 0.041-0.4021 0.1046-0.5884 0.2l-5e-4 3e-4c-0.1035 0.053-0.2043 0.1152-0.2997 0.1845h-1e-4c-0.0346 0.0252-0.0647 0.0574-0.098 0.0846l-4e-4 3e-4c-0.0011 7e-4 -0.0025 9e-4 -0.0035 0.0017v1e-4c-0.0576 0.0472-0.1159 0.0927-0.1693 0.1462h-1e-4c-0.0095 0.0087-14.398 13.126-14.398 13.126-0.0042-0.0031-6.2717-4.7571-6.2717-4.7571l-1e-4 -1e-4c-0.5838-0.4428-1.4014-0.4063-1.9436 0.0867-0.0026 0.0024-2.011 1.8301-2.011 1.8301-0.6634 0.603-0.6643 1.6457-2e-3 2.2496v1e-4c0.0036 0.0032 5.4385 4.9592 5.4385 4.9592h-1e-4c-0.0036 0.0033-5.4384 4.9573-5.4384 4.9573v1e-4c-0.6624 0.6039-0.6614 1.6467 2e-3 2.2496 0.0027 0.0024 2.011 1.8282 2.011 1.8282h1e-4c0.5422 0.4929 1.3598 0.5295 1.9436 0.0866 0.0042-0.0032 6.2698-4.7572 6.2698-4.7572 0.0095 0.0087 14.4 13.128 14.4 13.128v1e-4c0.0486 0.0485 0.102 0.0893 0.1539 0.1327l1e-4 1e-4c0.0032 0.0023 0.0063 0.0053 0.0096 0.0076h2e-3l7e-4 6e-4c0.0017 0.0016 0.0031 0.0038 0.0051 0.0052v1e-4c0.1261 0.1032 0.2583 0.1967 0.4002 0.2694h1e-4c0.1036 0.0531 0.2098 0.0983 0.3194 0.1347h1e-4c0.1096 0.0363 0.2212 0.0634 0.3348 0.0827h2e-3c0.1129 0.0192 0.2295 0.0307 0.3444 0.0327h1e-4c0.1148 0.0018 0.2316-0.0054 0.3463-0.0211l1e-4 -1e-4c0.1147-0.0158 0.2299-0.0412 0.3424-0.075h1e-4c0.1131-0.0339 0.224-0.0766 0.3329-0.1289 5e-3 -0.0024 7.5226-3.618 7.5226-3.618 0.7903-0.3801 1.2932-1.1783 1.2932-2.0552v-1e-4 -24.525-6e-4c-3e-4 -0.8767-0.5031-1.6747-1.2932-2.0547h-1e-4c-0.0049-0.0024-7.5225-3.6179-7.5225-3.6179h-1e-4c-0.2183-0.105-0.446-0.1725-0.6773-0.204h-1e-4c-0.1147-0.0156-0.2295-0.0231-0.3444-0.0211zm0.6497 9.0315m0.0604 0.8409v1.4127 15.166l-0.9311-0.7064c-0.0775-0.0588-9.9958-7.584-9.9958-7.584l0.9311-0.7063" style="fill-opacity:.01;fill:#000000"/>
		<path d="m39.992 16.18c-0.1057 0.0018-0.2111 0.0127-0.3153 0.029-0.0334 0.0052-0.0656 0.0147-0.0986 0.0213l-6e-4 1e-4c-0.2042 0.0412-0.4041 0.1051-0.5914 0.2011l-5e-4 3e-4c-0.104 0.0532-0.2053 0.1157-0.3012 0.1854h-1e-4c-0.0348 0.0253-0.065 0.0577-0.0986 0.0851l-4e-4 3e-4c-1e-3 6e-4 -0.0025 9e-4 -0.0034 0.0016l-1e-4 1e-4c-0.0578 0.0474-0.1164 0.0932-0.1701 0.147h-1e-4c-0.0062 0.0057-14.473 13.194-14.473 13.194-0.0027-0.0021-6.304-4.7817-6.304-4.7817-0.5869-0.4452-1.4086-0.4084-1.9537 0.0871-0.0017 0.0015-2.0213 1.8395-2.0213 1.8395h-1e-4c-0.6667 0.6061-0.6676 1.6542-0.0019 2.2612 0.0024 0.0022 5.4664 4.9848 5.4664 4.9848-0.0024 0.0022-5.4664 4.9828-5.4664 4.9828v1e-4c-0.6658 0.607-0.6649 1.6551 2e-3 2.2612 0.0017 0.0016 2.0213 1.8376 2.0213 1.8376h1e-4c0.545 0.4955 1.3668 0.5322 1.9536 0.087 0.0027-2e-3 6.3021-4.7816 6.3021-4.7816 0.0062 0.0057 14.475 13.196 14.475 13.196 0.0488 0.0488 0.1025 0.0898 0.1547 0.1334v1e-4c0.0033 0.0023 0.0064 0.0053 0.0097 0.0077h2e-3l7e-4 6e-4c0.0018 0.0015 0.0031 0.0037 0.0051 0.0052h1e-4c0.1267 0.1038 0.2596 0.1977 0.4023 0.2708 0.1042 0.0534 0.2109 0.0988 0.3211 0.1354s0.2224 0.0638 0.3365 0.0832h0.0021c0.1135 0.0193 0.2307 0.0308 0.3462 0.0329 0.1155 0.0017 0.2329-0.0055 0.3481-0.0213h1e-4c0.1153-0.016 0.2312-0.0415 0.3443-0.0754v-1e-4c0.1137-0.0341 0.2252-0.0769 0.3346-0.1296 0.0033-0.0015 7.5613-3.6365 7.5613-3.6365 0.7944-0.3821 1.2999-1.1844 1.2999-2.0659v-24.651-6e-4c-3e-4 -0.8812-0.5057-1.6833-1.2999-2.0652v-1e-4c-0.0033-0.0015-7.5613-3.6365-7.5613-3.6365-0.2195-0.1055-0.4483-0.1734-0.6809-0.205-0.1153-0.0157-0.2308-0.0232-0.3462-0.0213zm0.6742 9.3724m0.0396 0.5507v0.9255 15.739l-0.61-0.4629c-0.0804-0.061-10.373-7.8702-10.373-7.8702l0.61-0.4627" style="fill-opacity:.01;fill:#000000"/>
		<path d="m40.034 15.634c-0.1062 0.0018-0.2121 0.0128-0.3168 0.0292-0.0335 0.0052-0.0659 0.0147-0.0991 0.0214l-6e-4 1e-4c-0.2052 0.0414-0.4061 0.1056-0.5943 0.202l-6e-4 3e-4c-0.1044 0.0536-0.2063 0.1163-0.3026 0.1863v1e-4c-0.035 0.0254-0.0654 0.0579-0.0992 0.0855l-4e-4 3e-4c-0.0011 6e-4 -0.0025 9e-4 -0.0034 0.0017h-1e-4c-0.0581 0.0477-0.117 0.0937-0.171 0.1477-0.0031 0.0028-14.544 13.259-14.544 13.259-0.0013-1e-3 -6.3351-4.8053-6.3351-4.8053-0.5897-0.4474-1.4156-0.4104-1.9633 0.0875-8e-4 8e-4 -2.0314 1.8486-2.0314 1.8486-0.6701 0.6091-0.671 1.6624-0.0019 2.2724 0.0011 0.0011 5.4934 5.0094 5.4934 5.0094-0.0012 0.0011-5.4934 5.0074-5.4934 5.0074l-1e-4 1e-4c-0.669 0.61-0.6681 1.6633 2e-3 2.2723l1e-4 1e-4c8e-4 7e-4 2.0313 1.8466 2.0313 1.8466v1e-4c0.5478 0.4979 1.3736 0.5348 1.9633 0.0874 0.0014-1e-3 6.3332-4.8053 6.3332-4.8053 0.0031 0.0028 14.546 13.261 14.546 13.261 0.0491 0.0491 0.103 0.0903 0.1555 0.1341 0.0033 0.0024 0.0065 0.0054 0.0098 0.0078h0.0019l8e-4 6e-4c0.0018 0.0016 0.0031 0.0038 0.0051 0.0053 0.1274 0.1043 0.2609 0.1987 0.4043 0.2721h1e-4c0.1046 0.0536 0.2119 0.0993 0.3226 0.1361 0.1108 0.0367 0.2235 0.0641 0.3383 0.0836h2e-3c0.1141 0.0194 0.2319 0.031 0.3479 0.033 0.1161 0.0018 0.2341-0.0055 0.3499-0.0214 0.1159-0.016 0.2324-0.0417 0.346-0.0758 0.1143-0.0342 0.2263-0.0773 0.3363-0.1302 0.0016-8e-4 7.5987-3.6545 7.5987-3.6545 0.7983-0.384 1.3063-1.1903 1.3063-2.0761v-24.773-6e-4c-3e-4 -0.8856-0.5082-1.6916-1.3063-2.0754-0.0016-8e-4 -7.5987-3.6545-7.5987-3.6545v-1e-4c-0.2205-0.106-0.4505-0.1742-0.6842-0.206-0.1159-0.0158-0.232-0.0233-0.348-0.0214zm0.6979 9.7014m0.0194 0.2707v0.4555 16.291l-0.3001-0.2277c-0.0833-0.0632-10.737-8.1465-10.737-8.1465l0.3001-0.2277" style="fill-opacity:.01;fill:#000000"/>
		<path d="m40.074 15.106c-0.1067 0.0018-0.2131 0.0128-0.3183 0.0293-0.0337 0.0052-0.0663 0.0147-0.0997 0.0214l-6e-4 2e-4c-0.2061 0.0416-0.4079 0.1061-0.597 0.203l-6e-4 3e-4c-0.105 0.0538-0.2073 0.1168-0.3041 0.1872-0.0352 0.0255-0.0657 0.0582-0.0996 0.0859l-4e-4 3e-4c-0.0011 7e-4 -0.0025 9e-4 -0.0035 0.0017-0.0584 0.0479-0.1176 0.0942-0.1719 0.1485l-14.613 13.322-6.3652-4.8282c-0.5925-0.4495-1.4223-0.4124-1.9727 0.0879l-2.041 1.8575c-0.6733 0.6119-0.6742 1.6702-2e-3 2.2832l5.5196 5.0332-5.5196 5.0312c-0.6722 0.6129-0.6713 1.6713 2e-3 2.2832l2.041 1.8555c0.5504 0.5003 1.3802 0.5374 1.9727 0.0879l6.3633-4.8282 14.615 13.324c0.0493 0.0493 0.1035 0.0907 0.1563 0.1347 0.0033 0.0024 0.0065 0.0054 0.0098 0.0078h2e-3l8e-4 7e-4c0.0017 0.0016 0.0031 0.0037 0.0051 0.0052 0.128 0.1049 0.2621 0.1997 0.4062 0.2735 0.1052 0.0539 0.2129 0.0998 0.3242 0.1367s0.2246 0.0644 0.3399 0.084h2e-3c0.1146 0.0195 0.233 0.0311 0.3496 0.0332 0.1166 0.0018 0.2351-0.0055 0.3516-0.0215 0.1164-0.0161 0.2334-0.0419 0.3476-0.0762 0.1148-0.0344 0.2274-0.0777 0.3379-0.1308l7.6348-3.6719c0.8021-0.3858 1.3125-1.1959 1.3125-2.086v-24.891c-3e-4 -0.8897-0.5106-1.6996-1.3125-2.0852l-7.6348-3.6719c-0.2216-0.1066-0.4527-0.1751-0.6875-0.207-0.1164-0.0159-0.233-0.0235-0.3496-0.0215zm0.7207 10.02v8e-4 16.825l-5e-4 -4e-4c-0.0859-0.0652-11.089-8.4137-11.089-8.4137l5e-4 -4e-4" style="fill-opacity:.01;fill:#000000"/>
	</g>
	<g transform="matrix(.89398 0 0 .89398 3.3416 3.0556)" stroke-width="1.1186">
		<path d="m50.789 17.288-8.5401-4.1119c-0.98853-0.47595-2.1699-0.27519-2.9457 0.5006l-27.957 25.49c-0.75198 0.68559-0.75112 1.8695 2e-3 2.554l2.2836 2.076c0.61559 0.55963 1.5427 0.60083 2.2055 0.09802l33.667-25.54c1.1295-0.85685 2.7518-0.05127 2.7518 1.3665v-0.09914c0-0.99516-0.57007-1.9023-1.4667-2.3341z" fill="url(#linearGradient196640)" style="fill:url(#linearGradient628135)"/>
		<path d="m50.789 49.787-8.5401 4.1119c-0.98853 0.47603-2.1699 0.27517-2.9457-0.50061l-27.957-25.49c-0.75198-0.68563-0.75112-1.8696 2e-3 -2.5541l2.2836-2.076c0.61559-0.55963 1.5427-0.60083 2.2055-0.09802l33.667 25.54c1.1295 0.85685 2.7518 0.05127 2.7518-1.3664v0.09914c0 0.99512-0.57007 1.9023-1.4667 2.334z" fill="url(#linearGradient182291)" style="fill:url(#linearGradient628137)"/>
		<path d="m42.25 53.899c-0.98883 0.4757-2.1702 0.27447-2.946-0.5014 0.95595 0.95595 2.5905 0.2789 2.5905-1.073v-37.575c0-1.3519-1.6345-2.029-2.5905-1.073 0.77586-0.77586 1.9572-0.97691 2.946-0.50138l8.5386 4.1063c0.89722 0.43147 1.4678 1.339 1.4678 2.3346v27.842c0 0.99558-0.57057 1.9031-1.4678 2.3346z" fill="url(#linearGradient174141)" style="fill:url(#linearGradient628139)"/>
	</g>
</svg>
