<svg width="64" height="64" xmlns="http://www.w3.org/2000/svg" xmlns:xlink="http://www.w3.org/1999/xlink"><defs><radialGradient id="b" cx="32.161" cy="35.22" r="32" gradientTransform="matrix(.96875 0 0 1.0898 .844 -3.383)" gradientUnits="userSpaceOnUse"><stop stop-color="#a7a4d5" offset="0"/><stop stop-color="#b7c4e3" offset="1"/></radialGradient><radialGradient id="s" cx="36.463" cy="1.498" r="32" gradientTransform="matrix(0 .02541 -1.2755 0 33.91 1.073)" gradientUnits="userSpaceOnUse"><stop stop-color="#fff" stop-opacity=".667" offset="0"/><stop stop-color="#fff" stop-opacity=".001" offset="1"/></radialGradient><radialGradient id="r" cx="35.574" cy="1.439" r="32" gradientTransform="matrix(0 1.1252 -5.1753 0 39.446 -39.029)" gradientUnits="userSpaceOnUse" xlink:href="#a"/><radialGradient id="q" cx="35.574" cy="1.393" r="32" gradientTransform="matrix(0 1.1252 -5.1753 0 39.208 -39.029)" gradientUnits="userSpaceOnUse" xlink:href="#a"/><radialGradient id="p" cx="35.574" cy="1.346" r="32" gradientTransform="matrix(0 1.1252 -5.1753 0 38.966 -39.029)" gradientUnits="userSpaceOnUse" xlink:href="#a"/><radialGradient id="o" cx="35.574" cy="1.304" r="32" gradientTransform="matrix(0 1.1252 -5.1753 0 38.75 -39.029)" gradientUnits="userSpaceOnUse" xlink:href="#a"/><radialGradient id="n" cx="35.574" cy="1.273" r="32" gradientTransform="matrix(0 1.1252 -5.1753 0 38.587 -39.029)" gradientUnits="userSpaceOnUse" xlink:href="#a"/><radialGradient id="m" cx="35.574" cy="1.239" r="32" gradientTransform="matrix(0 1.1252 -5.1753 0 38.411 -39.029)" gradientUnits="userSpaceOnUse" xlink:href="#a"/><radialGradient id="l" cx="35.574" cy="1.208" r="32" gradientTransform="matrix(0 1.1252 -5.1753 0 38.252 -39.029)" gradientUnits="userSpaceOnUse" xlink:href="#a"/><radialGradient id="k" cx="35.574" cy="1.18" r="32" gradientTransform="matrix(0 1.1252 -5.1753 0 38.107 -39.029)" gradientUnits="userSpaceOnUse" xlink:href="#a"/><radialGradient id="j" cx="35.574" cy="1.159" r="32" gradientTransform="matrix(0 1.1252 -5.1753 0 38 -39.029)" gradientUnits="userSpaceOnUse" xlink:href="#a"/><radialGradient id="i" cx="35.574" cy="1.135" r="32" gradientTransform="matrix(0 1.1252 -5.1753 0 37.875 -39.029)" gradientUnits="userSpaceOnUse" xlink:href="#a"/><radialGradient id="h" cx="35.574" cy="1.113" r="32" gradientTransform="matrix(0 1.1252 -5.1753 0 37.758 -39.029)" gradientUnits="userSpaceOnUse" xlink:href="#a"/><radialGradient id="g" cx="35.574" cy="1.091" r="32" gradientTransform="matrix(0 1.1252 -5.1753 0 37.648 -39.029)" gradientUnits="userSpaceOnUse" xlink:href="#a"/><radialGradient id="f" cx="35.574" cy="1.071" r="32" gradientTransform="matrix(0 1.1252 -5.1753 0 37.544 -39.029)" gradientUnits="userSpaceOnUse" xlink:href="#a"/><radialGradient id="e" cx="35.574" cy="1.055" r="32" gradientTransform="matrix(0 1.1252 -5.1753 0 37.458 -39.029)" gradientUnits="userSpaceOnUse" xlink:href="#a"/><radialGradient id="d" cx="35.574" cy="1.036" r="32" gradientTransform="matrix(0 1.1252 -5.1753 0 37.363 -39.029)" gradientUnits="userSpaceOnUse" xlink:href="#a"/><radialGradient id="c" cx="35.574" cy="1.019" r="32" gradientTransform="matrix(0 1.1252 -5.1753 0 37.271 -39.029)" gradientUnits="userSpaceOnUse" xlink:href="#a"/><linearGradient id="a"><stop stop-color="#fff" stop-opacity=".07" offset="0"/><stop stop-color="#fff" stop-opacity=".001" offset="1"/></linearGradient></defs><rect width="64" height="64" rx="1" ry="1" fill="url(#b)" paint-order="fill markers stroke"/><ellipse cx="31.978" cy="33.001" rx="24.773" ry="24.788" fill="none" stroke="#1f2739" stroke-opacity=".146" stroke-width="2.327"/><path d="M31.978 9.475c-12.999 0-23.511 10.518-23.511 23.526 0 .182.009.362.013.543.288-12.756 10.68-22.984 23.498-22.984 12.817 0 23.21 10.227 23.498 22.984.004-.181.012-.36.012-.543 0-13.008-10.512-23.526-23.51-23.526zM5.956 33.543c-.004.181-.013.36-.013.543 0 14.372 11.67 26.049 26.034 26.049s26.034-11.678 26.034-26.05c0-.181-.009-.36-.012-.542-.29 14.121-11.84 25.507-26.022 25.507-14.182 0-25.731-11.386-26.022-25.507z" fill="#fff" fill-opacity=".177" style="-inkscape-stroke:none"/><g fill="#22004a" fill-opacity=".01" opacity=".835"><path d="m16.618 24.24 11.137 11.138 1.271 1.271v14.752h6.004V36.633L47.423 24.24 47 23l-2.321-1.741-1.68-1.26-8.319 7.564L32 30l-7.193-6.54-3.32-3.017L21 20l-4 3z"/><path d="m16.618 24.255 11.14 11.141c.781.781 1.268 1.27 1.268 1.273v11.446c0 1.918.005 3.302.008 3.302h2.08c1.73 0 3.916-.005 3.916-.01v-9.332c0-2.934.005-5.43.01-5.436l7.28-7.28c2.24-2.24 4.282-4.3 4.907-4.926l.195-.195-.425-1.24-2.322-1.74c-.88-.66-1.677-1.256-1.679-1.253l-8.322 7.565a390.16 390.16 0 0 1-2.68 2.425l-7.196-6.541c-1.411-1.283-2.667-2.41-3.321-3.004a63.88 63.88 0 0 0-.486-.44c0 .002-3.991 3.002-3.992 3.005l-.38 1.24"/><path d="m16.618 24.299 11.148 11.149c.776.776 1.26 1.267 1.26 1.278V48.18c0 1.905.018 3.28.033 3.28h2.081c1.719 0 3.89-.018 3.89-.04v-9.34c0-2.914.017-5.406.038-5.428l7.286-7.286c2.224-2.223 4.25-4.324 4.871-4.944a4.28 4.28 0 0 0 .191-.196c-.002-.002-.425-1.233-.43-1.236l-2.323-1.743c-.874-.656-1.67-1.242-1.68-1.233l-8.328 7.57c-1.529 1.39-2.667 2.405-2.683 2.39l-7.2-6.545c-1.402-1.275-2.676-2.373-3.326-2.964a17.105 17.105 0 0 0-.483-.432c0 .012-3.966 3.008-3.966 3.023 0 .008-.38 1.242-.38 1.242"/><path d="m16.618 24.373 11.163 11.164c.767.767 1.245 1.261 1.245 1.286v11.469c0 1.884.04 3.242.075 3.242h2.084c1.7 0 3.845-.04 3.845-.09v-9.35c0-2.881.04-5.368.088-5.416l7.295-7.295c2.198-2.198 4.196-4.363 4.81-4.977a2.35 2.35 0 0 0 .187-.195c-.006-.004-.43-1.225-.439-1.232l-2.326-1.745c-.865-.648-1.66-1.22-1.68-1.202l-8.34 7.581c-1.511 1.375-2.651 2.363-2.686 2.332l-7.21-6.555c-1.386-1.26-2.691-2.31-3.333-2.895-.304-.275-.478-.428-.478-.418-.002.025-3.923 3.018-3.924 3.052-.001.017-.376 1.244-.376 1.244"/><path d="M16.618 24.476 27.801 35.66c.754.754 1.225 1.254 1.225 1.298v11.49c0 1.853.072 3.19.134 3.19h2.087c1.672 0 3.783-.07 3.783-.16v-9.367c0-2.835.07-5.312.155-5.397l7.31-7.309c2.162-2.163 4.12-4.418 4.724-5.021.123-.123.185-.191.18-.195-.01-.007-.433-1.214-.45-1.227l-2.331-1.748c-.85-.638-1.643-1.19-1.681-1.157l-8.354 7.595c-1.487 1.352-2.63 2.306-2.691 2.25l-7.224-6.567c-1.363-1.239-2.712-2.224-3.344-2.799-.298-.271-.47-.417-.47-.4-.003.046-3.862 3.033-3.865 3.093-.002.03-.371 1.247-.371 1.247"/><path d="m16.618 24.608 11.209 11.21c.738.739 1.199 1.244 1.199 1.313v11.517c0 1.813.113 3.121.209 3.121h2.092c1.637 0 3.703-.108 3.703-.247v-9.39c0-2.774.11-5.24.243-5.373l7.325-7.326c2.117-2.117 4.026-4.488 4.617-5.079.12-.12.179-.188.17-.195-.014-.01-.438-1.199-.465-1.22-.066-.048-1.304-.977-2.336-1.751-.833-.624-1.623-1.152-1.682-1.099l-8.374 7.613c-1.455 1.323-2.601 2.232-2.697 2.144l-7.24-6.581c-1.335-1.214-2.74-2.115-3.358-2.677-.292-.266-.46-.402-.462-.376-.004.072-3.784 3.051-3.789 3.145-.002.048-.364 1.251-.364 1.251"/><path d="m16.618 24.77 11.241 11.242c.719.719 1.167 1.232 1.167 1.33v11.55c0 1.766.163 3.04.301 3.04h2.099c1.593 0 3.604-.158 3.604-.358v-9.416c0-2.701.159-5.153.35-5.345l7.346-7.346c2.061-2.06 3.908-4.574 4.483-5.15.117-.116.172-.184.16-.194-.021-.016-.445-1.18-.484-1.21l-2.343-1.757c-.81-.608-1.598-1.105-1.683-1.028l-8.397 7.634c-1.417 1.288-2.567 2.142-2.706 2.016l-7.26-6.6c-1.299-1.181-2.773-1.98-3.375-2.527-.284-.258-.449-.384-.45-.347-.005.104-3.69 3.075-3.696 3.21-.004.07-.357 1.256-.357 1.256"/><path d="m16.618 24.962 11.278 11.279c.696.696 1.13 1.218 1.13 1.353V49.18c0 1.71.222 2.942.41 2.942h2.105c1.542 0 3.489-.213 3.489-.486V42.19c0-2.615.215-5.05.476-5.31l7.37-7.372c1.995-1.994 3.77-4.675 4.326-5.232.113-.113.164-.181.146-.194-.028-.022-.452-1.16-.506-1.2l-2.35-1.763c-.784-.588-1.57-1.049-1.685-.944l-8.425 7.66c-1.371 1.246-2.526 2.035-2.714 1.863l-7.285-6.622c-1.257-1.143-2.812-1.819-3.395-2.349-.275-.25-.434-.363-.437-.312-.007.141-3.577 3.101-3.586 3.285-.005.094-.347 1.262-.347 1.262"/><path d="m16.618 25.183 11.321 11.322c.67.67 1.087 1.201 1.087 1.377v11.632c0 1.644.29 2.83.535 2.83h2.113c1.483 0 3.356-.279 3.356-.635v-9.484c0-2.514.281-4.931.621-5.271l7.4-7.4c1.918-1.918 3.608-4.792 4.143-5.328.109-.108.154-.177.131-.194-.037-.028-.461-1.135-.53-1.187l-2.36-1.77c-.754-.565-1.536-.984-1.687-.847l-8.457 7.688c-1.32 1.2-2.479 1.913-2.725 1.69l-7.312-6.648c-1.21-1.1-2.858-1.635-3.419-2.145-.264-.24-.418-.338-.421-.272-.01.184-3.448 3.132-3.46 3.372-.006.124-.336 1.27-.336 1.27"/><path d="m16.618 25.434 11.37 11.371c.639.64 1.038 1.183 1.038 1.406v11.682c0 1.57.366 2.701.677 2.701h2.122c1.417 0 3.205-.352 3.205-.803v-9.525c0-2.4.356-4.796.787-5.227l7.43-7.43c1.832-1.833 3.427-4.926 3.938-5.438.104-.104.143-.172.115-.194-.048-.035-.472-1.106-.56-1.173l-2.37-1.777c-.72-.54-1.498-.912-1.688-.739l-8.495 7.722c-1.26 1.145-2.424 1.774-2.736 1.49l-7.344-6.676c-1.155-1.05-2.91-1.425-3.445-1.912-.252-.23-.4-.31-.404-.227-.011.233-3.3 3.167-3.316 3.47-.007.158-.324 1.278-.324 1.278"/><path d="M16.618 25.714 28.043 37.14c.605.605.983 1.162.983 1.437v11.74c0 1.486.453 2.558.836 2.558h2.133c1.341 0 3.035-.435 3.035-.992v-9.57c0-2.274.44-4.646.971-5.177l7.467-7.467c1.735-1.735 3.223-5.074 3.708-5.559.098-.098.13-.166.095-.193-.058-.044-.483-1.076-.592-1.157l-2.381-1.786c-.682-.512-1.455-.83-1.69-.617l-8.536 7.76c-1.193 1.084-2.365 1.617-2.75 1.268l-7.379-6.709c-1.094-.994-2.967-1.192-3.474-1.653-.24-.218-.38-.28-.385-.176-.014.288-3.136 3.206-3.155 3.58-.01.195-.311 1.287-.311 1.287"/><path d="M16.618 26.023 28.104 37.51c.568.568.922 1.139.922 1.472v11.8c0 1.396.548 2.402 1.012 2.402h2.144c1.259 0 2.848-.526 2.848-1.2v-9.621c0-2.134.533-4.479 1.176-5.122l7.506-7.506c1.628-1.629 2.999-5.239 3.453-5.693.093-.093.117-.161.075-.193-.071-.053-.496-1.041-.628-1.14l-2.393-1.795c-.64-.48-1.409-.741-1.694-.482l-8.58 7.8c-1.12 1.018-2.299 1.446-2.764 1.023l-7.418-6.744c-1.027-.933-3.03-.934-3.507-1.367-.225-.204-.357-.244-.363-.12-.017.349-2.956 3.25-2.978 3.703-.012.235-.297 1.296-.297 1.296"/><path d="M16.618 26.362 28.17 37.915c.527.527.856 1.114.856 1.51v11.87c0 1.294.652 2.228 1.204 2.228h2.157c1.168 0 2.643-.627 2.643-1.428v-9.677c0-1.98.634-4.296 1.4-5.062l7.549-7.55c1.51-1.51 2.752-5.418 3.174-5.84.086-.085.102-.154.051-.192-.084-.063-.51-1.003-.666-1.121l-2.407-1.805c-.594-.446-1.357-.643-1.696-.335l-8.63 7.846c-1.04.944-2.226 1.258-2.78.754l-7.461-6.783c-.953-.866-3.1-.651-3.542-1.052-.209-.19-.333-.208-.34-.06-.02.415-2.757 3.298-2.783 3.837-.014.28-.281 1.307-.281 1.307"/><path d="m16.618 26.731 11.624 11.625c.483.483.784 1.087.784 1.552V51.85c0 1.186.765 2.04 1.413 2.04h2.17c1.07 0 2.421-.735 2.421-1.675v-9.738c0-1.814.743-4.097 1.642-4.996l7.596-7.597c1.384-1.384 2.486-5.613 2.872-6 .078-.078.086-.147.026-.191-.098-.074-.525-.963-.709-1.1l-2.422-1.817c-.544-.408-1.3-.536-1.699-.174l-8.683 7.894c-.952.865-2.147 1.054-2.797.463l-7.508-6.825c-.873-.794-3.176-.344-3.58-.712-.192-.174-.306-.166-.315.007-.024.487-2.541 3.35-2.572 3.983-.016.327-.263 1.318-.263 1.318"/><path d="M16.618 27.129 28.32 38.832c.435.435.706 1.057.706 1.596v12.023c0 1.069.887 1.839 1.639 1.839h2.185c.963 0 2.18-.853 2.18-1.944v-9.802c0-1.634.862-3.884 1.904-4.926l7.648-7.648c1.246-1.246 2.196-5.824 2.545-6.172.07-.07.067-.14-.002-.191-.114-.086-.54-.918-.754-1.078l-2.438-1.83c-.49-.367-1.24-.419-1.702 0l-8.742 7.948c-.857.779-2.062.832-2.816.147l-7.558-6.871c-.786-.715-3.258-.012-3.622-.343-.172-.157-.277-.122-.287.079-.028.565-2.308 3.405-2.344 4.14-.019.379-.244 1.33-.244 1.33"/><path d="m16.618 27.556 11.786 11.786c.383.384.622 1.025.622 1.645v12.108c0 .942 1.02 1.621 1.882 1.621h2.2c.85 0 1.923-.979 1.923-2.23v-9.874c0-1.44.99-3.653 2.186-4.85l7.702-7.701c1.099-1.1 1.886-6.052 2.193-6.359.062-.062.049-.13-.03-.19-.131-.098-.559-.87-.804-1.054l-2.455-1.842c-.432-.324-1.176-.295-1.706.186l-8.804 8.004c-.756.687-1.97.595-2.836-.192l-7.612-6.92c-.693-.63-3.346.345-3.667.053-.151-.138-.245-.075-.257.156-.032.649-2.057 3.466-2.1 4.308-.02.436-.222 1.344-.222 1.344"/><path d="m16.618 28.013 11.875 11.876c.328.328.533.992.533 1.696v12.201c0 .807 1.16 1.388 2.14 1.388h2.218c.727 0 1.646-1.114 1.646-2.538v-9.948c0-1.234 1.126-3.408 2.487-4.769l7.76-7.76c.942-.941 1.556-6.294 1.819-6.557.053-.053.028-.122-.062-.19-.149-.111-.577-.819-.855-1.028l-2.475-1.856c-.37-.277-1.106-.162-1.709.386l-8.87 8.064c-.648.589-1.874.342-2.858-.553l-7.67-6.973c-.593-.54-3.44.726-3.715.476-.13-.119-.212-.024-.225.238-.036.739-1.79 3.53-1.837 4.489-.025.496-.202 1.358-.202 1.358"/><path d="m16.618 28.5 11.97 11.971c.27.27.438.955.438 1.75v12.3c0 .662 1.308 1.14 2.416 1.14h2.235c.598 0 1.353-1.257 1.353-2.866V42.768c0-1.013 1.271-3.145 2.808-4.682l7.822-7.822c.774-.774 1.203-6.552 1.419-6.768.043-.044.007-.112-.095-.189-.168-.126-.597-.765-.911-1.001l-2.494-1.87c-.304-.229-1.033-.022-1.713.596l-8.942 8.13c-.532.483-1.77.07-2.88-.94l-7.732-7.028c-.487-.443-3.54 1.131-3.765.926-.107-.097-.177.03-.192.327-.041.833-1.505 3.597-1.559 4.68-.027.56-.178 1.374-.178 1.374"/><path d="m16.618 29.015 12.071 12.072c.208.208.337.917.337 1.809v12.402c0 .51 1.467.878 2.71.878h2.253c.46 0 1.041-1.41 1.041-3.213V42.85c0-.78 1.426-2.868 3.148-4.591l7.888-7.888c.596-.596.828-6.826.994-6.992.034-.033-.015-.102-.13-.188-.188-.141-.617-.708-.97-.972l-2.514-1.886c-.234-.176-.955.128-1.717.821l-9.018 8.198c-.41.372-1.658-.215-2.905-1.348l-7.796-7.087c-.375-.342-3.645 1.561-3.82 1.403-.082-.075-.139.088-.155.42-.046.934-1.203 3.67-1.263 4.884-.031.627-.154 1.39-.154 1.39"/><path d="m16.618 29.561 12.177 12.178c.142.142.23.877.23 1.87v12.512c0 .349 1.635.6 3.019.6h2.274c.314 0 .712-1.57.712-3.58v-10.2c0-.534 1.588-2.575 3.507-4.494l7.958-7.958c.407-.407.432-7.115.546-7.228.023-.023-.04-.092-.167-.188-.21-.157-.64-.647-1.033-.942l-2.537-1.903c-.16-.12-.872.288-1.721 1.06l-9.097 8.27c-.28.255-1.542-.518-2.93-1.78l-7.866-7.15c-.257-.233-3.757 2.016-3.876 1.908-.057-.05-.1.148-.118.519-.052 1.04-.884 3.746-.95 5.099-.035.699-.128 1.407-.128 1.407"/><path d="m16.618 30.136 12.29 12.291c.073.073.118.834.118 1.935V56.99c0 .179 1.811.308 3.344.308h2.295c.162 0 .365-1.741.365-3.967V43.035c0-.274 1.76-2.265 3.886-4.392l8.032-8.031c.208-.209.015-7.42.073-7.478.012-.012-.065-.08-.206-.186-.233-.175-.663-.583-1.098-.91l-2.56-1.92c-.083-.062-.785.454-1.727 1.31-2.81 2.554-8.878 8.07-9.18 8.346-.144.13-1.42-.837-2.958-2.235l-7.938-7.217c-.131-.12-3.876 2.496-3.937 2.44-.028-.025-.057.213-.078.623-.057 1.154-.547 3.828-.62 5.326a36.97 36.97 0 0 1-.1 1.425"/><path d="m16.618 30.74 12.408 12.409v14.752h6.004V43.133L47.423 30.74 47 23l-.247-.186-1.168-.876L43 20l-1.731 1.573L31.999 30l-2.985-2.715L21 20l-4 3-.036.731-.275 5.565-.071 1.444" opacity="1"/></g><path d="m20.863 18.495-4.245 4.245 12.408 12.409V49.9h6.004V35.133L47.423 22.74l-4.245-4.245L32.02 29.654 20.861 18.495" fill="#c03c3c"/><path d="M43.178 18.494 32.02 29.654 20.862 18.496l-4.244 4.244.5.5 3.744-3.744L32.02 30.654l11.158-11.16 3.746 3.746.5-.5z" fill="#fd9bff" fill-opacity=".278"/><path d="M1 0C.446 0 0 .446 0 1v62-.224V63 2h1.752c19.15.002 39.445 0 60.213 0H64v61-.334V63 1a.998.998 0 0 0-1-1z" fill="url(#c)"/><path d="M1 0a.998.998 0 0 0-1 1.006v61.98-.197c0-.277.004-.184.01.246.012.016.03-.297.052-.897v-60c.072-.009.133-.013.185-.013.29-.016.357-.032.774-.044.246-.011.496-.019.747-.019 19.183.002 39.392 0 60.2 0 .346 0 .689.012 1.023.03.268.01.389.02.52.033.106 0 .22.01.427.028v59.744c.027.754.05 1.148.059 1.123l.003-.334v.286V1.21c0-.143 0-.22-.002-.224A.996.996 0 0 0 62.986 0H1" fill="url(#d)"/><path d="M1 0a.998.998 0 0 0-1 1.006v61.966-.169c0-.245.008-.145.021.266.022.034.06-.247.104-.807V2.274a.744.744 0 0 1 .173-.025c.27-.031.341-.064.743-.088.242-.022.492-.037.742-.037 19.217.002 39.34 0 60.187 0 .347 0 .69.024 1.013.06.256.02.372.042.494.065.1 0 .206.02.398.057v59.731c.055.703.102 1.052.119 1.003.004-.154.006-.265.006-.333v.237V1.196c0-.139 0-.215-.003-.224A.994.994 0 0 0 63.19.02a1.025 1.025 0 0 0-.217-.02H1" fill="url(#e)"/><path d="M1 0a.998.998 0 0 0-1 1.005v61.953-.14c0-.213.012-.107.031.287.034.05.091-.198.156-.718V2.413a.45.45 0 0 1 .16-.037c.252-.048.327-.097.715-.132.238-.034.487-.056.737-.056 19.25.002 39.286 0 60.173 0 .348 0 .688.036 1.001.09.244.029.356.062.47.098.091 0 .19.03.37.085v59.718c.082.653.151.957.176.884.007-.152.01-.262.01-.333v.188V1.184c0-.135 0-.21-.004-.224a.992.992 0 0 0-.819-.94 1.041 1.041 0 0 0-.217-.018H.999" fill="url(#f)"/><path d="M1 0a.998.998 0 0 0-1 1.005v61.939-.113c0-.18.015-.068.042.308.045.067.121-.149.208-.629V2.55a.312.312 0 0 1 .148-.05c.232-.063.311-.128.684-.176.234-.044.483-.074.732-.074 19.284.002 39.234 0 60.16 0 .35 0 .689.048.991.12.232.039.34.083.444.13.085 0 .176.04.341.114v59.704c.11.603.203.862.236.764.01-.148.014-.259.014-.333v.14V1.168c0-.13-.002-.206-.006-.224a.991.991 0 0 0-.83-.927A1.066 1.066 0 0 0 62.944 0H1" fill="url(#g)"/><path d="M1 0a.998.998 0 0 0-1 1.004V62.93v-.084c0-.148.02-.029.052.328.056.084.152-.099.26-.539V2.686c.053-.04.097-.061.136-.061.212-.08.297-.16.655-.22.23-.056.477-.093.727-.093 19.317.002 39.18 0 60.147 0 .35 0 .688.06.98.151.22.047.322.102.418.162.078 0 .162.049.313.142v59.69c.137.553.253.767.295.645A4.73 4.73 0 0 0 64 62.77v.09V1.155c0-.126-.002-.202-.007-.224a.99.99 0 0 0-.843-.914A1.099 1.099 0 0 0 62.932 0H1" fill="url(#h)"/><path d="M1 0a.998.998 0 0 0-1 1.004v61.912-.056c0-.117.023.01.063.349.067.1.182-.05.312-.45V2.824c.048-.049.088-.074.123-.074.193-.095.282-.192.626-.264.225-.067.472-.11.721-.11h60.133c.352 0 .688.071.97.18a.944.944 0 0 1 .393.194c.07 0 .147.059.284.17V62.6c.164.502.304.671.354.524.014-.14.02-.25.02-.331v.042V1.14c0-.121-.002-.197-.009-.224a.99.99 0 0 0-.854-.902 1.142 1.142 0 0 0-.218-.014H1" fill="url(#i)"/><path d="M1 0a.998.998 0 0 0-1 1.004v61.898-.029c0-.084.027.049.073.37.079.117.212 0 .365-.36V2.96c.043-.057.079-.086.11-.086.174-.112.267-.225.596-.309a2.19 2.19 0 0 1 .717-.129c19.385.002 39.075 0 60.12 0 .353 0 .687.084.958.211.196.066.29.144.368.227.063 0 .132.068.256.199v59.665c.192.452.354.576.413.404a3.11 3.11 0 0 0 .024-.33V1.125c0-.117-.004-.193-.01-.224a.99.99 0 0 0-.868-.89A1.198 1.198 0 0 0 62.905 0H1" fill="url(#j)"/><path d="M1 0a.998.998 0 0 0-1 1.003v61.885c0-.052.03.087.084.39.09.135.242.05.416-.27V3.097C.538 3.034.57 3 .599 3c.154-.127.251-.257.566-.352.217-.089.463-.148.711-.148 19.418.002 39.022 0 60.107 0 .355 0 .687.096.947.242a.723.723 0 0 1 .343.258c.056 0 .118.079.227.227v59.651c.22.402.406.482.473.285.018-.132.027-.243.027-.33V1.112c0-.113-.004-.188-.012-.224a.99.99 0 0 0-.879-.877A1.273 1.273 0 0 0 62.891 0H1.001" fill="url(#k)"/><path d="M1 0a.998.998 0 0 0-1 1.003v61.899c0-.02.035.126.094.41.101.152.273.1.468-.18V3.235c.034-.073.062-.11.087-.11.135-.143.236-.29.536-.397.213-.1.459-.166.707-.166 19.452.002 38.969 0 60.093 0 .356 0 .687.108.936.272a.678.678 0 0 1 .317.29c.05 0 .103.089.2.256V63.02c.246.352.455.386.531.165.02-.128.03-.239.03-.33V1.1c0-.108-.004-.184-.013-.224a.99.99 0 0 0-.891-.864 1.376 1.376 0 0 0-.218-.01H1" fill="url(#l)"/><path d="M1 0a.998.998 0 0 0-1 1.002v61.913c0 .013.039.165.105.432.112.168.303.148.52-.092V3.373c.029-.081.053-.123.074-.123.116-.159.222-.321.507-.44.209-.111.454-.185.701-.185 19.486.002 38.916 0 60.08 0 .357 0 .687.12.925.302a.66.66 0 0 1 .292.323c.043 0 .089.098.171.284V63.16c.275.302.507.29.591.046.022-.125.034-.236.034-.33V1.085c0-.104-.005-.18-.016-.224a.99.99 0 0 0-.903-.852 1.514 1.514 0 0 0-.218-.008H1" fill="url(#m)"/><path d="M1 0a.998.998 0 0 0-1 1.002V62.93c0 .045.042.203.115.453.123.184.333.197.572-.003V3.51c.024-.089.045-.135.062-.135.097-.174.207-.353.478-.484.204-.122.448-.203.696-.203 19.519.002 38.863 0 60.067 0a1.4 1.4 0 0 1 .914.332c.15.103.224.225.267.355.035 0 .073.108.142.313V63.3c.302.251.557.196.65-.074a1.7 1.7 0 0 0 .037-.33V1.071c0-.1-.006-.175-.017-.224a.99.99 0 0 0-.915-.84A1.712 1.712 0 0 0 62.85 0H1" fill="url(#n)"/><path d="M1 0a.998.998 0 0 0-1 1.002v61.942c0 .077.046.242.126.473.134.201.363.246.624.086V3.647C.77 3.55.785 3.5.8 3.5a.981.981 0 0 1 .447-.529c.2-.133.444-.221.691-.221 19.553.002 38.811 0 60.053 0 .36 0 .686.144.903.362a.688.688 0 0 1 .242.388c.028 0 .059.118.114.341v59.598c.33.2.608.1.709-.194.026-.117.04-.228.04-.329V1.056c0-.095-.006-.17-.018-.224a.991.991 0 0 0-.927-.827A2.015 2.015 0 0 0 62.836 0H1" fill="url(#o)"/><path d="M1 0a.998.998 0 0 0-1 1.001v61.956c0 .11.05.281.136.494.146.218.394.296.677.176V3.784c.014-.105.026-.16.036-.16a.967.967 0 0 1 .419-.572c.196-.144.439-.24.686-.24 19.586.002 38.758 0 60.04 0 .36 0 .685.156.892.392a.73.73 0 0 1 .216.42c.021 0 .044.128.086.37v59.585c.356.15.658.005.768-.314.029-.114.044-.224.044-.328V1.042c0-.09-.007-.166-.02-.224a.992.992 0 0 0-.94-.814 2.524 2.524 0 0 0-.217-.005H1" fill="url(#p)"/><path d="M1 0a.998.998 0 0 0-1 1v61.972c0 .142.054.32.147.515a.643.643 0 0 0 .728.265V3.922c.01-.114.018-.172.025-.172a.97.97 0 0 1 .389-.617c.192-.155.434-.258.68-.258 19.62.002 38.705 0 60.027 0 .362 0 .686.168.882.422a.794.794 0 0 1 .19.453c.015 0 .03.137.057.398V63.72c.385.1.71-.09.828-.434.03-.11.047-.22.047-.328V1.028c0-.086-.007-.161-.021-.224a.994.994 0 0 0-.951-.802A3.563 3.563 0 0 0 62.809 0H1" fill="url(#q)"/><path d="M1 0a.998.998 0 0 0-1 1v61.986c0 .174.058.358.157.535a.802.802 0 0 0 .78.355V4.06c.005-.122.01-.185.013-.185a.987.987 0 0 1 .36-.66c.187-.166.429-.277.675-.277 19.653.002 38.652 0 60.013 0 .363 0 .685.18.87.452a.876.876 0 0 1 .166.485c.007 0 .015.147.028.427V63.86c.412.05.76-.186.887-.553a1.1 1.1 0 0 0 .05-.328V1.014A.996.996 0 0 0 63.014 0 6.67 6.67 0 0 0 62.795 0H1" fill="url(#r)"/><path d="M1 0a.998.998 0 0 0-1 1v62a.997.997 0 0 0 1 1V4.001c0-.254.132-.514.33-.705A.99.99 0 0 1 2 3.001c19.687.002 38.599 0 60 0a1 1 0 0 1 .86.483A.98.98 0 0 1 63 4V64a.998.998 0 0 0 1-1V1.001a.998.998 0 0 0-1-1H1" fill="url(#s)"/></svg>