<?xml version="1.0" encoding="UTF-8"?>
<svg id="l" width="64" height="64" version="1.1" xmlns="http://www.w3.org/2000/svg" xmlns:cc="http://creativecommons.org/ns#" xmlns:dc="http://purl.org/dc/elements/1.1/" xmlns:rdf="http://www.w3.org/1999/02/22-rdf-syntax-ns#" xmlns:xlink="http://www.w3.org/1999/xlink">
	<defs id="x">
		<radialGradient id="radialGradient831589-6" cx="45.001" cy="178.28" r="30.5" gradientTransform="matrix(1.7836 8.4847e-8 -9.6551e-8 1.6722 -35.263 -247.11)" gradientUnits="userSpaceOnUse" xlink:href="#a-8-2"/>
		<radialGradient id="a-8-2" cx="39.688" cy="60.633" r="32" gradientTransform="matrix(1.7,0,0,1.5938,-22.469,-45.634)" gradientUnits="userSpaceOnUse">
			<stop stop-color="#bd2e32" offset="0"/>
			<stop stop-color="#da472b" offset="1"/>
		</radialGradient>
		<linearGradient id="b-61" x1="4" x2="10" y1="2.3923" y2="4" gradientUnits="userSpaceOnUse">
			<stop stop-color="#001e3b" stop-opacity=".5476" offset="0"/>
			<stop stop-color="#001e3b" stop-opacity=".068103" offset="1"/>
		</linearGradient>
		<radialGradient id="radialGradient832037-9" cx="39.688" cy="60.633" r="32" gradientTransform="matrix(1.7 0 0 1.5938 -22.469 -45.634)" gradientUnits="userSpaceOnUse" xlink:href="#a-8-2"/>
		<linearGradient id="e-2-1" x1="1.6362e-8" x2="7" y1="31" y2="31" gradientUnits="userSpaceOnUse">
			<stop stop-color="#3c4856" offset="0"/>
			<stop stop-color="#1b202b" offset="1"/>
		</linearGradient>
		<linearGradient id="d-49-2" x1="7" x2="-3.3307e-16" y1="26" y2="26" gradientUnits="userSpaceOnUse">
			<stop stop-color="#1b202b" stop-opacity=".90924" offset="0"/>
			<stop stop-color="#000000" stop-opacity="0" offset="1"/>
		</linearGradient>
		<linearGradient id="c-7-7" x1="62.5" x2="56" y1="24.07" y2="7" gradientUnits="userSpaceOnUse">
			<stop stop-color="#fe6248" offset="0"/>
			<stop stop-color="#ff8b35" offset="1"/>
		</linearGradient>
	</defs>
	<metadata id="t">
		<rdf:RDF>
			<cc:Work rdf:about="">
				<dc:format>image/svg+xml</dc:format>
				<dc:type rdf:resource="http://purl.org/dc/dcmitype/StillImage"/>
			</cc:Work>
		</rdf:RDF>
	</metadata>
	<circle id="o" cx="75.437" cy="-.5" r="0" fill="#ff00ff" style="paint-order:normal"/>
	<circle id="af" cx="75.437" cy="-.5" r="0" fill="#ff00ff" style="paint-order:normal"/>
	<g transform="translate(0,4e-5)">
		<path d="m3 2v2c0.00156 0.35131 0.18815 0.69621 0.54102 1 0.71362-0.61801 2.0318-0.99909 3.459-1h47l5 4 5 9v-9c0-2.1158-1.9891-4.0438-3-6h-54z" color="#000000" fill="url(#radialGradient831589-6)"/>
		<path d="m3 4v2.5h44l8.043 0.083984c3.0414 0.45647 5.4393 2.3673 5.877 5.416 0.05058-0.33099 0.07734-0.66518 0.08008-1 0-3.866-3.134-7-7-7h-22z" color="#000000" fill="#eceff4"/>
		<path d="m4 4h5c-1.3735 0.48916-2.1332 1.1334-2 2h-4z" color="#000000" fill="url(#b-61)"/>
		<circle cx="8.5" cy="-.5" r="0" fill="#ff00ff" style="paint-order:normal"/>
		<circle cx="8.5" cy="-.5" r="0" fill="#ff00ff" style="paint-order:normal"/>
		<path d="m0 4v56c0 2.2091 3.134 4 7 4h50c3.866 0 7-3.134 7-7v-42c0-3.866-3.134-8-7-8h-50z" color="#000000" fill="url(#radialGradient832037-9)"/>
		<path d="m7.5 10.5h-0.5v1h1v-1h-0.37695v-0.5h-0.12305zm1.123 0.5h2v-1h-2zm3 0h2v-1h-2zm3 0h2v-1h-2zm3 0h2v-1h-2zm3 0h2v-1h-2zm3 0h2v-1h-2zm3 0h2v-1h-2zm3 0h2v-1h-2zm3 0h2v-1h-2zm3 0h2v-1h-2zm3 0h2v-1h-2zm3 0h2v-1h-2zm3 0h2v-1h-2zm3 0h2v-1h-2zm3 0h2v-1h-2zm3 0h2v-1h-2zm3 0h0.30469l0.85547 0.0957 0.6543 0.20312 0.29492-0.95508-0.70117-0.2168-0.04492-0.01367-0.04687-0.0059-0.9336-0.10347-0.0293-0.00391h-0.35351zm2.7441 0.47266-0.16211 0.19922 0.03906 0.03125 0.5957 0.48242 0.48047 0.57812 0.0918 0.16602 0.87891-0.47852-0.11328-0.20508-0.02344-0.04297-0.03125-0.03906-0.54883-0.6582-0.03125-0.03711-0.03711-0.03125-0.66992-0.54297-0.03711-0.0293-0.04297-0.02344-0.04102-0.02149zm-52.367 3.0273h1v-2h-1zm53.781-0.75586 0.13672 0.44336 0.08203 0.8418v0.54102h1v-0.5957l-2e-3 -0.02344-0.08984-0.91406-0.0059-0.04883-0.01367-0.04883-0.15039-0.48828zm-53.781 3.7559h1v-2h-1zm54 1.0703h1v-2h-1zm-54 1.9297h1v-2h-1zm54 1.0703h1v-2h-1zm-54 1.9297h1v-2h-1zm54 1.0703h1v-2h-1zm-54 1.9297h1v-2h-1zm54 1.0703h1v-2h-1zm-54 1.9297h1v-2h-1zm54 1.0703h1v-2h-1zm-54 1.9297h1v-2h-1zm54 1.0703h1v-2h-1zm-54 1.9297h1v-2h-1zm54 1.0703h1v-2h-1zm-54 1.9297h1v-2h-1zm54 1.0703h1v-2h-1zm-54 1.9297h1v-2h-1zm54 1.0703h1v-2h-1zm-54 1.9297h1v-2h-1zm54 1.0703h1v-2h-1zm-54 1.9297h1v-2h-1zm54 1.0703h1v-2h-1zm-54 1.9297h1v-2h-1zm54 1.0703h1v-2h-1zm-54 1.9297h1v-2h-1zm54 1.0703h1v-2h-1zm-54 1.9297h1v-2h-1zm54 0.4707-0.05273 0.54883 0.99414 0.09766 0.05664-0.56836 2e-3 -0.02344v-1.4551h-1zm-54 2.5293h1v-2h-1zm53.686-0.92383-0.36328 0.67188-0.51562 0.62695 0.24219 0.19922 0.43359 0.52734 0.02734-0.02148 0.03906-0.03125 0.03125-0.03906 0.54492-0.66406 0.03125-0.03711 0.02344-0.04297 0.41211-0.76563 0.02344-0.04297 0.01367-0.04687 0.06836-0.22656-0.95508-0.29102zm-2.1094 2.1074-0.75977 0.23438-0.36719 0.03516 0.09766 0.99609 0.41797-0.04102 0.04883-0.0059 0.04687-0.01367 0.84961-0.25977 0.04687-0.01367 0.04297-0.0234 0.61133-0.32812-0.47461-0.88086zm-51.576 0.81641v0.5h1.5v-1h-0.5v-0.5h-1zm2.5 0.5h2v-1h-2zm3 0h2v-1h-2zm3 0h2v-1h-2zm3 0h2v-1h-2zm3 0h2v-1h-2zm3 0h2v-1h-2zm3 0h2v-1h-2zm3 0h2v-1h-2zm3 0h2v-1h-2zm3 0h2v-1h-2zm3 0h2v-1h-2zm3 0h2v-1h-2zm3 0h2v-1h-2zm3 0h2v-1h-2zm3 0h2v-1h-2zm3 0h2v-1h-2z" color="#000000" color-rendering="auto" dominant-baseline="auto" fill="#7d2609" fill-opacity=".62994" image-rendering="auto" shape-rendering="auto" solid-color="#000000" style="font-feature-settings:normal;font-variant-alternates:normal;font-variant-caps:normal;font-variant-ligatures:normal;font-variant-numeric:normal;font-variant-position:normal;isolation:auto;mix-blend-mode:normal;shape-padding:0;text-decoration-color:#000000;text-decoration-line:none;text-decoration-style:solid;text-indent:0;text-orientation:mixed;text-transform:none;white-space:normal"/>
		<path d="m8 10.5v1h-0.5v0.5h1v-1h-0.37695v-0.5zm2.623 0v0.5h-1.5v0.5h2v-1zm3 0v0.5h-1.5v0.5h2v-1zm3 0v0.5h-1.5v0.5h2v-1zm3 0v0.5h-1.5v0.5h2v-1zm3 0v0.5h-1.5v0.5h2v-1zm3 0v0.5h-1.5v0.5h2v-1zm3 0v0.5h-1.5v0.5h2v-1zm3 0v0.5h-1.5v0.5h2v-1zm3 0v0.5h-1.5v0.5h2v-1zm3 0v0.5h-1.5v0.5h2v-1zm3 0v0.5h-1.5v0.5h2v-1zm3 0v0.5h-1.5v0.5h2v-1zm3 0v0.5h-1.5v0.5h2v-1zm3 0v0.5h-1.5v0.5h2v-1zm3 0v0.5h-1.5v0.5h2v-1zm3 0v0.5h-1.5v0.5h2v-1zm3.0117 0.1582-0.19727 0.64062-0.6543-0.20312-0.66016-0.07422v0.47852h0.30469l0.85547 0.0957 0.6543 0.20312 0.29492-0.95508-0.59766-0.18555zm2.1504 1.0996 0.33789 0.40625 0.03125 0.03906 0.02344 0.04297 0.11328 0.20508-0.78906 0.42969 0.31836 0.38281 0.0918 0.16602 0.87891-0.47852-0.11328-0.20508-0.02344-0.04297-0.03125-0.03906-0.54883-0.6582-0.03125-0.03711-0.03711-0.03125-0.2207-0.17969zm-1.0332 0.35742-0.04687 0.05664 0.03906 0.03125 0.33789 0.27344-0.24219-0.29102zm-51.752 0.88477v1.5h-0.5v0.5h1v-2zm54.238 0.95117-0.32812 0.10156 0.08789 0.89844 2e-3 0.02344v0.5957h-0.5v0.5h1v-0.5957l-2e-3 -0.02344-0.08984-0.91406-0.0059-0.04883-0.01367-0.04883-0.15039-0.48828zm-54.238 2.0488v1.5h-0.5v0.5h1v-2zm54 1.0703v1.5h-0.5v0.5h1v-2zm-54 1.9297v1.5h-0.5v0.5h1v-2zm54 1.0703v1.5h-0.5v0.5h1v-2zm-54 1.9297v1.5h-0.5v0.5h1v-2zm54 1.0703v1.5h-0.5v0.5h1v-2zm-54 1.9297v1.5h-0.5v0.5h1v-2zm54 1.0703v1.5h-0.5v0.5h1v-2zm-54 1.9297v1.5h-0.5v0.5h1v-2zm54 1.0703v1.5h-0.5v0.5h1v-2zm-54 1.9297v1.5h-0.5v0.5h1v-2zm54 1.0703v1.5h-0.5v0.5h1v-2zm-54 1.9297v1.5h-0.5v0.5h1v-2zm54 1.0703v1.5h-0.5v0.5h1v-2zm-54 1.9297v1.5h-0.5v0.5h1v-2zm54 1.0703v1.5h-0.5v0.5h1v-2zm-54 1.9297v1.5h-0.5v0.5h1v-2zm54 1.0703v1.5h-0.5v0.5h1v-2zm-54 1.9297v1.5h-0.5v0.5h1v-2zm54 1.0703v1.5h-0.5v0.5h1v-2zm-54 1.9297v1.5h-0.5v0.5h1v-2zm54 1.0703v1.5h-0.5v0.5h1v-2zm-54 1.9297v1.5h-0.5v0.5h1v-2zm54 1.0703v1.5h-0.5v0.5h1v-2zm-54 1.9297v1.5h-0.5v0.5h1v-2zm54 1.0703v1.5h-0.5v0.5h1v-2zm-54 1.9297v1.5h-0.5v0.5h1v-2zm54 1.0703v0.95508l-2e-3 0.02344-0.05664 0.56836-0.45117-0.04492-0.04297 0.44726 0.99414 0.09766 0.05664-0.56836 2e-3 -0.02344v-1.4551h-0.5zm-54 1.9297v1.5h-0.5v0.5h1v-2zm53.592 1-0.41211 0.76562-0.02344 0.04297-0.03125 0.03711-0.54492 0.66406-0.03125 0.03906-0.01563 0.01172 0.01563 0.01367 0.43359 0.52734 0.02734-0.02148 0.03906-0.03125 0.03125-0.03906 0.54492-0.66406 0.03125-0.03711 0.02344-0.04297 0.41211-0.76562 0.02344-0.04297 0.01367-0.04687 0.06836-0.22656-0.60547-0.18359zm-1.9551 1.8828-0.17969 0.0957 0.1543 0.28516-0.61133 0.32812-0.04297 0.02344-0.04687 0.01367-0.84961 0.25977-0.04687 0.01367-0.01953 2e-3 0.05273 0.54492 0.41797-0.04102 0.04883-0.0059 0.04687-0.01367 0.84961-0.25977 0.04687-0.01367 0.04297-0.02344 0.61133-0.32812zm-51.137 0.61719v0.5h-1v0.5h1.5v-1zm3 0v0.5h-1.5v0.5h2v-1zm3 0v0.5h-1.5v0.5h2v-1zm3 0v0.5h-1.5v0.5h2v-1zm3 0v0.5h-1.5v0.5h2v-1zm3 0v0.5h-1.5v0.5h2v-1zm3 0v0.5h-1.5v0.5h2v-1zm3 0v0.5h-1.5v0.5h2v-1zm3 0v0.5h-1.5v0.5h2v-1zm3 0v0.5h-1.5v0.5h2v-1zm3 0v0.5h-1.5v0.5h2v-1zm3 0v0.5h-1.5v0.5h2v-1zm3 0v0.5h-1.5v0.5h2v-1zm3 0v0.5h-1.5v0.5h2v-1zm3 0v0.5h-1.5v0.5h2v-1zm3 0v0.5h-1.5v0.5h2v-1zm3 0v0.5h-1.5v0.5h2v-1z" color="#000000" color-rendering="auto" dominant-baseline="auto" fill="#ff8d3c" image-rendering="auto" shape-rendering="auto" solid-color="#000000" style="font-feature-settings:normal;font-variant-alternates:normal;font-variant-caps:normal;font-variant-ligatures:normal;font-variant-numeric:normal;font-variant-position:normal;isolation:auto;mix-blend-mode:normal;shape-padding:0;text-decoration-color:#000000;text-decoration-line:none;text-decoration-style:solid;text-indent:0;text-orientation:mixed;text-transform:none;white-space:normal"/>
		<path d="m3 2v2c0.00156 0.35131 0.18815 0.69621 0.54102 1 0.71362-0.61801 2.0318-0.99909 3.459-1v-2h-4z" fill="#34243f" style="paint-order:normal"/>
		<path d="m0 4v56c0 2.2091 3.134 4 7 4v-57z" fill="url(#e-2-1)" style="paint-order:normal"/>
		<path d="m7 0c-3.866 0-7 1.7909-7 4s3.134 4 7 4v-2c-2.2091 0-4-0.89543-4-2s1.7909-2 4-2z" color="#000000" fill="#495265"/>
		<path d="m0 20.822v1.6211c0.40692 0.64205 1.0336 1.2011 1.8027 1.6406 1.3619 0.77821 3.1871 1.2383 5.1973 1.2383v-1c-1.8558 0-3.5295-0.43597-4.7012-1.1055-1.1716-0.6695-1.7988-1.5264-1.7988-2.3945zm0 21.678v1.6211c0.40692 0.64205 1.0336 1.2011 1.8027 1.6406 1.3619 0.77821 3.1871 1.2383 5.1973 1.2383v-1c-1.8558 0-3.5295-0.43597-4.7012-1.1055-1.1716-0.6695-1.7988-1.5264-1.7988-2.3945z" color="#000000" color-rendering="auto" dominant-baseline="auto" fill="url(#d-49-2)" image-rendering="auto" shape-rendering="auto" solid-color="#000000" style="font-feature-settings:normal;font-variant-alternates:normal;font-variant-caps:normal;font-variant-ligatures:normal;font-variant-numeric:normal;font-variant-position:normal;isolation:auto;mix-blend-mode:normal;shape-padding:0;text-decoration-color:#000000;text-decoration-line:none;text-decoration-style:solid;text-indent:0;text-orientation:mixed;text-transform:none;white-space:normal"/>
		<path d="m7 0v2h50a7 7 0 0 1 6.9199 5.9941 7 7 0 0 0 0.08008-0.99414 7 7 0 0 0-7-7h-25zm0 6v2h50c3.5253 0 6.4332 2.6094 6.9199 6 0.05058-0.33099 0.07734-0.66518 0.08008-1 0-3.866-3.134-7-7-7h-25z" fill="url(#c-7-7)" style="paint-order:normal"/>
		<path d="m21.219 24.059c0.55187-1.1579 0.97253-2.2899 2.7897-2.9905l27.757-0.46991-32.704 24.053-0.07613 0.53098c8.8136 1.1866 23.736 4.4095 30.269 2.6589 4.6923-1.2573 6.9471-4.4891 7.7833-6.8368-0.06684 3.6982-3.1996 8.7252-8.1203 9.1352-7.4695 0.62243-31.065-3.9117-38.477-3.8852 1.7172-0.72703 2.8213-1.844 4.6499-3.1281l26.326-18.888c1.1694-0.91402 2.2296-1.983 2.3971-2.5058l-13.557 0.06646c-6.4922 0.2564-7.7239 2.3148-9.0379 2.2595z" fill="#c7d1e5" style="paint-order:normal"/>
	</g>
</svg>
