<?xml version="1.0" encoding="UTF-8"?>
<svg id="a" width="32" height="32" version="1.1" xmlns="http://www.w3.org/2000/svg" xmlns:cc="http://creativecommons.org/ns#" xmlns:dc="http://purl.org/dc/elements/1.1/" xmlns:rdf="http://www.w3.org/1999/02/22-rdf-syntax-ns#">
	<metadata id="e">
		<rdf:RDF>
			<cc:Work rdf:about="">
				<dc:format>image/svg+xml</dc:format>
				<dc:type rdf:resource="http://purl.org/dc/dcmitype/StillImage"/>
				<dc:title/>
			</cc:Work>
		</rdf:RDF>
	</metadata>
	<defs id="d">
		<style id="current-color-scheme" type="text/css">.ColorScheme-Text {color:#090d11;}.ColorScheme-Background{color:#ffffff;}</style>
	</defs>
	<path id="c" d="m8.5 14.5h16.037v16h-16.037zm0.502 5.1673c-3.5507-0.43547-6.4691-3.0075-7.3473-6.4754-0.87821-3.4678 0.4642-7.1189 3.3796-9.1919s6.8048-2.142 9.7919-0.17374c2.9871 1.9683 4.4582 5.5695 3.7035 9.0662m-0.5379-8.3532 1.3121-2.2722l10.529 18.233-2.9965 1e-6" style="fill:none;stroke-opacity:.75;stroke:currentColor" class="ColorScheme-Text" />
	<path id="b" d="m7.5 13.5h18.037v18h-18.037zm0.5147 6.9863c-3.5652-0.76772-6.426-3.4937-7.3335-7.0771-0.97958-3.8679 0.51772-7.9402 3.7694-10.253 3.2517-2.3121 7.59-2.3891 10.922-0.19378 2.9598 1.9503 4.5851 5.338 4.321 8.8045m-1.8734-8.9375 1.4709-2.5471l12.251 21.216-3.1259 1e-6" style="fill:none;stroke-opacity:.5;stroke:currentColor" class="ColorScheme-Background" />
</svg>
