<?xml version="1.0" encoding="UTF-8"?>
<svg id="b" width="18" height="18" version="1.1" xmlns="http://www.w3.org/2000/svg" xmlns:cc="http://creativecommons.org/ns#" xmlns:dc="http://purl.org/dc/elements/1.1/" xmlns:rdf="http://www.w3.org/1999/02/22-rdf-syntax-ns#">
	<defs id="a">
		<style id="current-color-scheme" type="text/css">.ColorScheme-Text {color:#090d11;}.ColorScheme-Background{color:#ffffff;}</style>
	</defs>
	<metadata id="f">
		<rdf:RDF>
			<cc:Work rdf:about="">
				<dc:format>image/svg+xml</dc:format>
				<dc:type rdf:resource="http://purl.org/dc/dcmitype/StillImage"/>
				<dc:title/>
			</cc:Work>
		</rdf:RDF>
	</metadata>
	<path id="e" class="ColorScheme-Text" d="m10 2.1v1.0133c2.9616 0.3656 5.0002 2.8863 5.0002 5.9563s-2.0386 5.5907-5.0002 5.9563v1.0133c3.3709-0.3854 6.0002-3.4944 6.0002-6.9695 0-3.4752-2.6293-6.5842-6.0002-6.9696zm-1.5466 1.5249c-2 0-2.8265 2.5089-3.9998 2.8241-1.9678 0.5741-2.4534 0.4424-2.4534 1.5311v2.1784c0 1.089 0.4856 0.9572 2.4534 1.5313 1.1732 0.3151 1.9997 2.8241 3.9998 2.8241 0.3804 0 0.5468-3e-4 0.5468-0.5105v-9.8687c0-0.5102-0.1664-0.5105-0.5468-0.5105zm1.5466 0.4772v1.0035c1.8205 0.3479 3.0002 1.9811 3.0002 3.9643 0 1.9831-1.1797 3.6164-3.0002 3.9643v1.005c2.265-0.3735 4.0002-2.5605 4.0002-4.9692 0-2.4088-1.7351-4.5941-4.0002-4.9677zm0 2.0125v1.0938c0.5898 0.3488 1 1.049 1 1.8612 0 0.8126-0.4098 1.5146-1 1.8632v1.0918c1.2048-0.4062 1.9999-1.6109 1.9999-2.955 0-1.3442-0.7952-2.5488-1.9999-2.955z" style="fill-opacity:.75;fill:currentColor"/>
	<path id="c" class="ColorScheme-Background" d="m9 2.7207c-0.1881-0.031-0.44092-0.13672-0.54492-0.13672-0.19503 5.2e-6 -0.3858 0.057032-0.54883 0.16406-1.0927 0.2102-1.9485 0.84528-2.5039 1.459-0.6546 0.7233-1.2055 1.234-1.207 1.2344-0.00655 0.00318-0.013057 0.00644-0.019531 0.00977-0.943 0.2751-1.5036 0.34056-2.1133 0.63086-0.3049 0.1452-0.65605 0.42056-0.84375 0.78906s-0.21484 0.72567-0.21484 1.0723v2.1777c0 0.3466 0.027044 0.70367 0.21484 1.0723 0.1877 0.3685 0.53885 0.64386 0.84375 0.78906 0.6097 0.2904 1.1703 0.35576 2.1133 0.63086 0.00647 0.0033 0.012986 0.0066 0.019531 0.0098 0 4e-4 0.55243 0.51108 1.207 1.2344 0.6545 0.7233 1.6345 1.623 3.0527 1.623 0.104 0 0.35682-0.10602 0.54492-0.13672l1-0.35746v-11.912zm2-1.4316v0.97656c2.8759 0.82146 5 3.6432 5 6.7656 0 3.1223-2.1241 5.9425-5 6.7637v1.043c3.4687-0.83776 6.002-4.1278 6.002-7.8008 0-3.6665-2.5409-6.9079-6.002-7.748zm0 2.002v1.082c1.7528 0.75711 3 2.6212 3 4.6582 0 2.0369-1.2472 3.9011-3 4.6582v1.0801c2.4097-0.74912 4-3.0282 4-5.7383s-1.5903-4.9908-4-5.7402zm-2.5469 0.29492c0.3804 0 0.54688-4.344e-4 0.54688 0.50977v9.8691c0 0.5102-0.16648 0.50976-0.54688 0.50976-2.0001 0-2.8268-2.5091-4-2.8242-1.9678-0.5741-2.4531-0.44225-2.4531-1.5313v-2.1777c0-1.0887 0.48532-0.95715 2.4531-1.5312 1.1733-0.3152 2-2.8242 4-2.8242zm2.5469 1.8477v1.252c0.62124 0.57802 1 1.4258 1 2.3457 0 0.91983-0.37876 1.7677-1 2.3457v1.252c1.2357-0.65929 2-2.01 2-3.5977s-0.76431-2.9384-2-3.5977z" style="fill-opacity:.5;fill:currentColor"/>
</svg>
