<?xml version="1.0" encoding="UTF-8"?>
<!-- Created with Inkscape (http://www.inkscape.org/) -->
<svg width="18" height="18" version="1.1" xmlns="http://www.w3.org/2000/svg" xmlns:cc="http://creativecommons.org/ns#" xmlns:dc="http://purl.org/dc/elements/1.1/" xmlns:rdf="http://www.w3.org/1999/02/22-rdf-syntax-ns#">
	<metadata>
		<rdf:RDF>
			<cc:Work rdf:about="">
				<dc:format>image/svg+xml</dc:format>
				<dc:type rdf:resource="http://purl.org/dc/dcmitype/StillImage"/>
			</cc:Work>
		</rdf:RDF>
	</metadata>
	<defs id="e">
		<style id="current-color-scheme" type="text/css">.ColorScheme-Text {color:#090d11;}
			.ColorScheme-Background{color:#ffffff;}</style>
	</defs>
	<path class="ColorScheme-Background" d="m8 1c-0.7507 0-1.2835 0.5009-1.625 1.125-1.8921 0.3123-3.375 1.9003-3.375 3.875v7c0 2.194 1.8059 4 4 4h3c2.194 0 3.9999-1.806 4-4v-7c0-1.9704-1.489-3.5576-3.375-3.875-0.3416-0.6241-0.8744-1.125-1.625-1.125zm0 1h1c0.06925 0 0.13596 0.00625 0.20117 0.019531 0.06522 0.013278 0.12959 0.03336 0.18945 0.058594 0.23944 0.10094 0.43031 0.29181 0.53125 0.53125 0.02523 0.059859 0.045324 0.12424 0.058594 0.18945 0.01328 0.065214 0.019531 0.13192 0.019531 0.20117 0.82235 0 1.5728 0.3384 2.1172 0.88281 0.47636 0.47636 0.79489 1.1106 0.86719 1.8125 0.01033 0.10027 0.01563 0.20189 0.01563 0.30469v7c0 1.6447-1.3553 3-3 3h-3c-1.6447 0-3-1.3553-3-3v-7c0-0.10279 0.0053-0.20441 0.015625-0.30469 0.15492-1.5041 1.4425-2.6953 2.9844-2.6953 0-0.069251 0.0063-0.13596 0.019531-0.20117 0.013275-0.065214 0.033359-0.12959 0.058589-0.18945 0.10094-0.23944 0.29181-0.43031 0.53125-0.53125 0.05986-0.025234 0.12424-0.045316 0.18945-0.058594 0.06522-0.013278 0.13192-0.019531 0.20117-0.019531zm-2.7324 3c-0.16963 0.29408-0.26758 0.63478-0.26758 1h2.0879a1.5 1.5 0 0 0-0.011719 0.025391l-1 3a1.5002 1.5002 0 0 0 1.4238 1.9746h0.011719l-0.45312 1.5879a1.5 1.5 0 0 0 1.0293 1.8535 1.5 1.5 0 0 0 1.8535-1.0293l1-3.5a1.5002 1.5002 0 0 0-1.3672-1.8887l0.34961-1.0488a1.5 1.5 0 0 0-0.00977-0.97461h2.0859c0-0.36522-0.09795-0.70592-0.26758-1h-6.4648zm3.2246 0.85156a0.65 0.65 0 0 1 0.21289 0.03125 0.65 0.65 0 0 1 0.20898 0.11719 0.65 0.65 0 0 1 0.20312 0.70508l-0.71484 2.1445h1.0977a0.65006 0.65006 0 0 1 0.625 0.82812l-1 3.5a0.65 0.65 0 0 1-0.80273 0.44727 0.65 0.65 0 0 1-0.44727-0.80273l0.76367-2.6719h-1.1387a0.65006 0.65006 0 0 1-0.61719-0.85547l1-3a0.65 0.65 0 0 1 0.20898-0.29492 0.65 0.65 0 0 1 0.1875-0.10742 0.65 0.65 0 0 1 0.21289-0.041016z" style="fill-opacity:.5;fill:currentColor"/>
	<path class="ColorScheme-Text" d="m8 2c-0.554 0-1 0.446-1 1-1.6447 0-3 1.3553-3 3v7c0 1.6447 1.3553 3 3 3h3c1.6447 0 3-1.3553 3-3v-7c0-1.6447-1.3553-3-3-3 0-0.554-0.446-1-1-1zm-1 2h3c1.108 0 2 0.892 2 2h-2.0859a1.5 1.5 0 0 1 0.00977 0.97461l-0.34961 1.0488a1.5002 1.5002 0 0 1 1.3672 1.8887l-1 3.5a1.5 1.5 0 0 1-1.8535 1.0293 1.5 1.5 0 0 1-1.0293-1.8535l0.45312-1.5879h-0.011719a1.5002 1.5002 0 0 1-1.4238-1.9746l1-3a1.5 1.5 0 0 1 0.011719-0.025391h-2.0879c0-1.108 0.892-2 2-2zm1.4922 1.8516a0.65 0.65 0 0 0-0.21289 0.041016 0.65 0.65 0 0 0-0.1875 0.10742 0.65 0.65 0 0 0-0.20898 0.29492l-1 3a0.65006 0.65006 0 0 0 0.61719 0.85547h1.1387l-0.76367 2.6719a0.65 0.65 0 0 0 0.44727 0.80273 0.65 0.65 0 0 0 0.80273-0.44727l1-3.5a0.65006 0.65006 0 0 0-0.625-0.82812h-1.0977l0.71484-2.1445a0.65 0.65 0 0 0-0.20312-0.70508 0.65 0.65 0 0 0-0.20898-0.11719 0.65 0.65 0 0 0-0.21289-0.03125z" style="fill-opacity:.75;fill:currentColor"/>
</svg>
