<?xml version="1.0" encoding="UTF-8"?>
<!-- Created with Inkscape (http://www.inkscape.org/) -->
<svg width="18" height="18" version="1.1" xmlns="http://www.w3.org/2000/svg" xmlns:cc="http://creativecommons.org/ns#" xmlns:dc="http://purl.org/dc/elements/1.1/" xmlns:rdf="http://www.w3.org/1999/02/22-rdf-syntax-ns#">
	<metadata>
		<rdf:RDF>
			<cc:Work rdf:about="">
				<dc:format>image/svg+xml</dc:format>
				<dc:type rdf:resource="http://purl.org/dc/dcmitype/StillImage"/>
			</cc:Work>
		</rdf:RDF>
	</metadata>
	<defs id="e">
		<style id="current-color-scheme" type="text/css">.ColorScheme-NegativeText { color:#fa0473; }
			.ColorScheme-Text { color:#090d11; }
			.ColorScheme-Background { color:#ffffff; }</style>
	</defs>
	<path class="ColorScheme-Text" d="m8 2c-0.554 0-1 0.446-1 1-1.6447 0-3 1.3553-3 3v7c0 1.6447 1.3553 3 3 3h3c1.6447 0 3-1.3553 3-3v-7c0-1.6447-1.3553-3-3-3 0-0.554-0.446-1-1-1zm-1 2h3c1.108 0 2 0.892 2 2v7c0 0.36522-0.09795 0.70592-0.26758 1h-2.1172a1.5 1.5 0 0 1-1.5273 0.44141 1.5 1.5 0 0 1-0.69141-0.44141h-2.129c-0.16963-0.29408-0.26758-0.63478-0.26758-1v-7c0-1.108 0.892-2 2-2zm1.5039 1.8496a0.65 0.65 0 0 0-0.23633 0.048828 0.65 0.65 0 0 0-0.066406 0.033203 0.65 0.65 0 0 0-0.14648 0.10547 0.65 0.65 0 0 0-0.048828 0.048828 0.65 0.65 0 0 0-0.12305 0.20898l-1 3a0.65006 0.65006 0 0 0-0.029297 0.2207 0.65006 0.65006 0 0 0 0.011719 0.083984 0.65006 0.65006 0 0 0 0.035156 0.13867 0.65006 0.65006 0 0 0 0.041016 0.080078 0.65006 0.65006 0 0 0 0.080078 0.11133 0.65006 0.65006 0 0 0 0.064453 0.064453 0.65006 0.65006 0 0 0 0.12109 0.078125 0.65006 0.65006 0 0 0 0.072266 0.03711 0.65006 0.65006 0 0 0 0.2207 0.04102h1.1387l-0.76367 2.6719a0.65 0.65 0 0 0-0.017578 0.23047 0.65 0.65 0 0 0 0.013672 0.07227 0.65 0.65 0 0 0 0.046875 0.14648 0.65 0.65 0 0 0 0.042969 0.08008 0.65 0.65 0 0 0 0.09375 0.11133 0.65 0.65 0 0 0 0.066406 0.06055 0.65 0.65 0 0 0 0.20117 0.10156 0.65 0.65 0 0 0 0.23047 0.01758 0.65 0.65 0 0 0 0.072266-0.01367 0.65 0.65 0 0 0 0.14648-0.04687 0.65 0.65 0 0 0 0.080078-0.04297 0.65 0.65 0 0 0 0.11133-0.09375 0.65 0.65 0 0 0 0.060547-0.06641 0.65 0.65 0 0 0 0.10156-0.20117l1-3.5a0.65006 0.65006 0 0 0 0.02148-0.11523 0.65006 0.65006 0 0 0 0-0.00195 0.65006 0.65006 0 0 0 0-0.00391 0.65006 0.65006 0 0 0 0-0.10742 0.65006 0.65006 0 0 0 0-0.00977 0.65006 0.65006 0 0 0-2e-3 -0.00782 0.65006 0.65006 0 0 0-0.01953-0.10938 0.65006 0.65006 0 0 0-0.04102-0.10547 0.65006 0.65006 0 0 0-2e-3 -0.00586 0.65006 0.65006 0 0 0-0.013571-0.021489 0.65006 0.65006 0 0 0-0.033203-0.056641 0.65006 0.65006 0 0 0-0.03125-0.042969 0.65006 0.65006 0 0 0-0.050781-0.054688 0.65006 0.65006 0 0 0-0.015625-0.015625 0.65006 0.65006 0 0 0-0.013672-0.011719 0.65006 0.65006 0 0 0-0.082031-0.060547 0.65006 0.65006 0 0 0-0.10352-0.050781 0.65006 0.65006 0 0 0-0.00391-0.00195 0.65006 0.65006 0 0 0-0.00391-0.00195 0.65006 0.65006 0 0 0-0.10938-0.03125 0.65006 0.65006 0 0 0-0.00195 0 0.65006 0.65006 0 0 0-0.11914-0.011719h-1.0977l0.71484-2.1445a0.65 0.65 0 0 0 0.019531-0.076172 0.65 0.65 0 0 0 0.00781-0.056641 0.65 0.65 0 0 0 0.00391-0.021484 0.65 0.65 0 0 0 0-0.011719 0.65 0.65 0 0 0 0.00195-0.035156 0.65 0.65 0 0 0-0.00391-0.068359 0.65 0.65 0 0 0 0-0.00586 0.65 0.65 0 0 0 0-0.00586 0.65 0.65 0 0 0-0.011719-0.064453 0.65 0.65 0 0 0-0.00781-0.035156 0.65 0.65 0 0 0-0.00195-0.00586 0.65 0.65 0 0 0-0.00781-0.017578 0.65 0.65 0 0 0-0.019531-0.056641 0.65 0.65 0 0 0-0.017578-0.035156 0.65 0.65 0 0 0-0.017578-0.035156 0.65 0.65 0 0 0-0.00391-0.00586 0.65 0.65 0 0 0-0.039063-0.058594 0.65 0.65 0 0 0-0.013672-0.017578 0.65 0.65 0 0 0-0.013672-0.013672 0.65 0.65 0 0 0-0.035156-0.041016 0.65 0.65 0 0 0-0.042969-0.037109 0.65 0.65 0 0 0-0.00391-0.00391 0.65 0.65 0 0 0-0.00781-0.00586 0.65 0.65 0 0 0-0.042969-0.033203 0.65 0.65 0 0 0-0.044922-0.025391 0.65 0.65 0 0 0-0.023438-0.013672 0.65 0.65 0 0 0-0.013672-0.00586 0.65 0.65 0 0 0-0.072266-0.029297 0.65 0.65 0 0 0-0.20117-0.033203z" style="fill-opacity:.75;fill:currentColor"/>
</svg>
