<?xml version="1.0" encoding="UTF-8"?>
<svg id="d" width="18" height="18" version="1.1" xmlns="http://www.w3.org/2000/svg" xmlns:cc="http://creativecommons.org/ns#" xmlns:dc="http://purl.org/dc/elements/1.1/" xmlns:rdf="http://www.w3.org/1999/02/22-rdf-syntax-ns#">
	<metadata id="a">
		<rdf:RDF>
			<cc:Work rdf:about="">
				<dc:format>image/svg+xml</dc:format>
				<dc:type rdf:resource="http://purl.org/dc/dcmitype/StillImage"/>
			</cc:Work>
		</rdf:RDF>
	</metadata>
	<defs id="e">
		<style id="current-color-scheme" type="text/css">.ColorScheme-Text {color:#090d11;}.ColorScheme-Background{color:#ffffff;}</style>
		<style type="text/css">.ColorScheme-Background{color:#ffffff;}
			.ColorScheme-Text{color:#090d11;}
			.ColorScheme-Highlight{color:#2598e4;}
			.ColorScheme-NegativeText {color:#f03489;}
			.ColorScheme-PositiveText {color:#42a53b;}
            .ColorScheme-NeutralText{color:#f2712c;}</style>
	</defs>
	<path id="b" class="ColorScheme-Text" d="m9 2c-2.216 0-4 1.784-4 4v4c0 1.1046-0.89543 2-2 2v1h12v-1c-1.1046 0-2-0.89543-2-2v-4c0-2.216-1.784-4-4-4zm0 1c1.6793 0 3 1.3207 3 3v4c0 0.35428 0.07331 0.68883 0.19727 1h-6.3945c0.12396-0.31117 0.19727-0.64572 0.19727-1v-4c0-1.6793 1.3207-3 3-3zm-2 11c0 1.1046 0.89543 2 2 2s2-0.89543 2-2z" style="fill-opacity:.75;fill:currentColor"/>
	<path id="c" class="ColorScheme-Background" d="m9 1c-2.7527 0-5 2.2473-5 5v4c0 0.56413-0.43587 1-1 1-0.55226 5.5e-5 -0.99994 0.44774-1 1v1c5.52e-5 0.55226 0.44774 0.99994 1 1h3c0 1.645 1.355 3 3 3s3-1.355 3-3h3c0.55226-5.5e-5 0.99994-0.44774 1-1v-1c-5.5e-5 -0.55226-0.44774-0.99994-1-1-0.56413 0-1-0.43587-1-1v-4c0-2.7527-2.2473-5-5-5zm0 1c0.1385 0 0.27536 0.00788 0.41016 0.021484 0.1348 0.013607 0.26801 0.032039 0.39844 0.058594s0.25741 0.060768 0.38281 0.099609c0.1254 0.038842 0.24942 0.082344 0.36914 0.13281 0.11972 0.050469 0.23624 0.10653 0.34961 0.16797 0.11337 0.061435 0.22371 0.12943 0.33008 0.20117 0.10637 0.071742 0.20794 0.14908 0.30664 0.23047 0.1974 0.16278 0.37824 0.34361 0.54102 0.54102 0.08139 0.098701 0.15873 0.20027 0.23047 0.30664s0.13974 0.21671 0.20117 0.33008c0.06144 0.11337 0.1175 0.22989 0.16797 0.34961s0.09397 0.24374 0.13281 0.36914 0.07306 0.25238 0.09961 0.38281c0.02656 0.13043 0.04499 0.26364 0.05859 0.39844 0.01361 0.1348 0.02149 0.27166 0.02149 0.41016v4c0 1.1046 0.89543 2 2 2v1h-12v-1c0.069036 0 0.13784-0.0029 0.20508-0.0098 0.94128-0.09559 1.6896-0.84388 1.7852-1.7852 0.00683-0.0672 0.00977-0.13601 0.00977-0.20504v-4c0-0.1385 0.00788-0.27536 0.021484-0.41016 0.013607-0.1348 0.032039-0.26801 0.058594-0.39844s0.060768-0.25741 0.099609-0.38281c0.038842-0.1254 0.082344-0.24942 0.13281-0.36914 0.050469-0.11972 0.10653-0.23624 0.16797-0.34961 0.061435-0.11337 0.12943-0.22371 0.20117-0.33008s0.14908-0.20794 0.23047-0.30664c0.16278-0.1974 0.34361-0.37824 0.54102-0.54102 0.098701-0.081389 0.20027-0.15873 0.30664-0.23047s0.2167-0.13974 0.33008-0.20117c0.11337-0.061436 0.22989-0.1175 0.34961-0.16797 0.11972-0.050469 0.24374-0.093971 0.36914-0.13281 0.1254-0.038842 0.25238-0.073055 0.38281-0.099609 0.13043-0.026555 0.26364-0.044986 0.39844-0.058594 0.13479-0.013607 0.27166-0.021484 0.41016-0.021484zm-2 12h4c0 1.1046-0.89543 2-2 2s-2-0.89543-2-2z" style="fill-opacity:.5;fill:currentColor"/>
	<path class="ColorScheme-NeutralText warning" d="M 6.9999,3.5 A 2.4999,2.4999 0 0 1 4.5,5.9999 2.4999,2.4999 0 0 1 2.0001,3.5 2.4999,2.4999 0 0 1 4.5,1.0001 2.4999,2.4999 0 0 1 6.9999,3.5 Z" style="fill:currentColor"/>
</svg>
