<?xml version="1.0" encoding="UTF-8"?>
<!-- Created with Inkscape (http://www.inkscape.org/) -->
<svg width="18" height="18" version="1.0" xmlns="http://www.w3.org/2000/svg" xmlns:cc="http://creativecommons.org/ns#" xmlns:dc="http://purl.org/dc/elements/1.1/" xmlns:rdf="http://www.w3.org/1999/02/22-rdf-syntax-ns#">
	<metadata>
		<rdf:RDF>
			<cc:Work rdf:about="">
				<dc:format>image/svg+xml</dc:format>
				<dc:type rdf:resource="http://purl.org/dc/dcmitype/StillImage"/>
				<dc:title/>
			</cc:Work>
		</rdf:RDF>
	</metadata>
	<defs>
		<radialGradient id="a" cx="8.2565" cy="7.8337" r="5.8618" gradientTransform="matrix(2.3883,0,0,3.2595,-10.719,-18.534)" gradientUnits="userSpaceOnUse">
			<stop stop-color="#ffffff" stop-opacity=".74858" offset="0"/>
			<stop stop-color="#ffffff" stop-opacity=".60511" offset="1"/>
		</radialGradient>
		<radialGradient id="b" cx="301.24" cy="-101.82" r="7.254" gradientTransform="matrix(1.4907,0,0,1.4427,-440.06,155.9)" gradientUnits="userSpaceOnUse">
			<stop stop-color="#213851" stop-opacity=".9059" offset="0"/>
			<stop stop-color="#27303a" stop-opacity="0" offset="1"/>
		</radialGradient>
	</defs>
	<path d="m7.5 1c-0.25066-2.387e-4 -0.46278 0.18515-0.49609 0.43359l-0.19531 1.4629c-0.76428 0.25461-1.4138 0.61986-2.0078 1.1504l-1.3555-0.55859c-0.23169-0.095068-0.49798-0.0040801-0.62305 0.21289l-1.5 2.5977c-0.12568 0.21686-0.071404 0.49326 0.12695 0.64648l1.1699 0.90039c-0.16168 0.78927-0.17027 1.5347-0.00781 2.3145l-1.1621 0.89453c-0.19836 0.15322-0.25263 0.42962-0.12695 0.64648l1.5 2.5977c0.12507 0.21697 0.39136 0.30796 0.62305 0.21289l1.3652-0.5625c0.60266 0.53462 1.2435 0.91485 2 1.1641l0.19336 1.4531c0.033315 0.24844 0.24543 0.43383 0.49609 0.43359h3c0.25066 2.39e-4 0.46278-0.18515 0.49609-0.43359l0.19531-1.4629c0.76428-0.25461 1.4138-0.61987 2.0078-1.1504l1.3555 0.55859c0.23169 0.09507 0.49798 0.0041 0.62305-0.21289l1.5-2.5977c0.12568-0.21686 0.07141-0.49326-0.12695-0.64648l-1.1699-0.90039c0.1617-0.78927 0.17028-1.5347 0.0078-2.3145l1.1621-0.89453c0.19836-0.15322 0.25264-0.42962 0.12695-0.64648l-1.5-2.5977c-0.12506-0.21697-0.39136-0.30796-0.62305-0.21289l-1.3652 0.5625c-0.60266-0.53462-1.2435-0.91485-2-1.1641l-0.19335-1.4531c-0.033315-0.24844-0.24543-0.43383-0.49609-0.43359zm-0.019531 1c0.0065096-1.272e-4 0.013021-1.272e-4 0.019531 0h3c0.25066-2.387e-4 0.46278 0.18515 0.49609 0.43359l0.13477 1.0176 0.06836 0.50781c0.27308 0.11931 0.53129 0.26795 0.78125 0.42969 0.04408 0.028382 0.0876 0.056296 0.13086 0.085937 0.04928 0.033916 0.1022 0.062127 0.15039 0.097656l0.47656-0.19336 2e-3 0.00195 0.42188-0.17383 0.14258-0.058594 0.38476-0.16016c0.23169-0.095068 0.49798-0.00408 0.62305 0.21289l0.21875 0.37891 1.0625 1.8398 0.21875 0.37891c0.12568 0.21686 0.07141 0.49326-0.12695 0.64648l-0.81445 0.625-0.40625 0.31445c0.03322 0.29615 0.03461 0.5933 0.01953 0.89062-0.0025 0.052365-0.0058 0.10397-0.0098 0.15625-0.0047 0.059636-0.0031 0.12019-0.0098 0.17969l0.4082 0.31641-2e-3 0.00195 0.21484 0.16602 0.26758 0.20703v-2e-3l0.33203 0.25391c0.19836 0.15322 0.25263 0.42962 0.12695 0.64648l-0.21875 0.37891-1.0625 1.8398-0.21875 0.37891c-0.12507 0.21697-0.39136 0.30796-0.62305 0.21289l-0.94922-0.39258-0.47461-0.19336c-0.23986 0.17684-0.49668 0.32533-0.76172 0.46094-0.04662 0.02398-0.09333 0.04767-0.14062 0.07031-0.05401 0.02572-0.10529 0.05807-0.16016 0.08203l-0.07031 0.50977h-2e-3l-0.03906 0.29297-0.04297 0.3125h2e-3l-0.05469 0.41211c-0.03325 0.24845-0.24537 0.43384-0.49603 0.4336h-3c-0.25066 2.39e-4 -0.46278-0.18515-0.49609-0.43359l-0.13477-1.0176-0.068359-0.50781c-0.27308-0.11931-0.53129-0.26796-0.78125-0.42969-0.04408-0.02838-0.087599-0.0563-0.13086-0.08594-0.04928-0.03392-0.1022-0.06213-0.15039-0.09766l-0.47656 0.19336-0.00195-2e-3 -0.42188 0.17383-0.14258 0.05859-0.38477 0.16016c-0.23169 0.09513-0.49798 0.0042-0.62305-0.21284l-0.21875-0.37891-1.0625-1.8398-0.21875-0.37891c-0.12562-0.21679-0.071401-0.49325 0.12695-0.64648l0.81445-0.625 0.40625-0.31445c-0.033216-0.2961-0.034616-0.59325-0.019531-0.89057 0.00254-0.052365 0.00573-0.10397 0.00977-0.15625 0.00473-0.059636 0.00309-0.12019 0.00977-0.17969l-0.40821-0.31641 0.00195-0.00195-0.21484-0.16602-0.26758-0.20703v0.00195l-0.33203-0.2539c-0.19836-0.15322-0.25263-0.42962-0.12695-0.64648l0.21875-0.37891 1.0625-1.8398 0.21875-0.37891c0.12507-0.21697 0.39136-0.30796 0.62305-0.21289l0.94922 0.39258 0.47461 0.19336c0.23986-0.17684 0.49667-0.32533 0.76172-0.46094 0.04662-0.023983 0.09333-0.04767 0.14062-0.070312 0.054012-0.02572 0.10529-0.058066 0.16016-0.082031l0.070312-0.50977h0.00195l0.039063-0.29297 0.042969-0.3125h-0.00195l0.054687-0.41211c0.032169-0.24125 0.23336-0.42429 0.47656-0.43359zm0.51953 3c-0.554 0-1 0.446-1 1v2h-1c-0.8906 3.783e-4 -1.3365 1.077-0.70703 1.707l3 3.5c0.39053 0.39039 1.0236 0.39039 1.4141 0l3-3.5c0.6295-0.63 0.18357-1.7066-0.70703-1.707h-1v-2c0-0.554-0.46254-0.86564-1-1z" fill="url(#a)" style="font-feature-settings:normal;font-variant-alternates:normal;font-variant-caps:normal;font-variant-ligatures:normal;font-variant-numeric:normal;font-variant-position:normal;isolation:auto;mix-blend-mode:normal;paint-order:normal;shape-padding:0;text-decoration-color:#000000;text-decoration-line:none;text-decoration-style:solid;text-indent:0;text-orientation:mixed;text-transform:none;white-space:normal"/>
	<path d="m7.5 2c-0.25066-2.387e-4 -0.46278 0.18515-0.49609 0.43359l-0.20508 1.5449c-0.3735 0.16444-0.73397 0.35518-1.0625 0.59766l-1.4258-0.58789c-0.23169-0.095068-0.49798-0.0040801-0.62305 0.21289l-1.5 2.5977c-0.12568 0.21686-0.071404 0.49326 0.12695 0.64648l1.2363 0.95117c-0.044311 0.40559-0.05939 0.81304-0.013672 1.2188l-1.2227 0.93945c-0.19836 0.15322-0.25263 0.42962-0.12695 0.64648l1.5 2.5977c0.12507 0.21697 0.39136 0.30796 0.62305 0.21289l1.4414-0.5957c0.32932 0.24142 0.67438 0.45968 1.0488 0.62305l0.20312 1.5273c0.033315 0.24844 0.24543 0.43383 0.49609 0.43359h3c0.25066 2.39e-4 0.46278-0.18515 0.49609-0.43359l0.20508-1.5449c0.3735-0.16444 0.73397-0.35518 1.0625-0.59766l1.4258 0.58789c0.23169 0.09507 0.49798 0.0041 0.62305-0.21289l1.5-2.5977c0.12568-0.21686 0.07141-0.49326-0.12695-0.64648l-1.2344-0.94922c0.04452-0.40619 0.05751-0.81443 0.01172-1.2207l1.2227-0.93945c0.19836-0.15322 0.25263-0.42962 0.12695-0.64648l-1.5-2.5977c-0.12507-0.21697-0.39136-0.30796-0.62305-0.21289l-1.4414 0.5957c-0.32932-0.24143-0.67438-0.45968-1.0488-0.62305l-0.20313-1.5273c-0.033315-0.24844-0.24543-0.43383-0.49609-0.43359zm0.5 4h2v3h2l-3 3.5-3-3.5h2z" fill="#000000" fill-opacity=".76471" style="font-feature-settings:normal;font-variant-alternates:normal;font-variant-caps:normal;font-variant-ligatures:normal;font-variant-numeric:normal;font-variant-position:normal;isolation:auto;mix-blend-mode:normal;paint-order:normal;shape-padding:0;text-decoration-color:#000000;text-decoration-line:none;text-decoration-style:solid;text-indent:0;text-orientation:mixed;text-transform:none;white-space:normal"/>
	<path d="m7.5 2c-0.25066-2.387e-4 -0.46278 0.18515-0.49609 0.43359l-0.20508 1.5449c-0.3735 0.16444-0.73397 0.35518-1.0625 0.59766l-1.4258-0.58789c-0.23169-0.095068-0.49798-0.0040801-0.62305 0.21289l-1.5 2.5977c-0.12568 0.21686-0.071404 0.49326 0.12695 0.64648l1.2363 0.95117c-0.044311 0.40559-0.05939 0.81304-0.013672 1.2188l-1.2227 0.93945c-0.19836 0.15322-0.25263 0.42962-0.12695 0.64648l1.5 2.5977c0.12507 0.21697 0.39136 0.30796 0.62305 0.21289l1.4414-0.5957c0.32932 0.24142 0.67438 0.45968 1.0488 0.62305l0.20312 1.5273c0.033315 0.24844 0.24543 0.43383 0.49609 0.43359h3c0.25066 2.39e-4 0.46278-0.18515 0.49609-0.43359l0.20508-1.5449c0.3735-0.16444 0.73397-0.35518 1.0625-0.59766l1.4258 0.58789c0.23169 0.09507 0.49798 0.0041 0.62305-0.21289l1.5-2.5977c0.12568-0.21686 0.07141-0.49326-0.12695-0.64648l-1.2344-0.94922c0.04452-0.40619 0.05751-0.81443 0.01172-1.2207l1.2227-0.93945c0.19836-0.15322 0.25263-0.42962 0.12695-0.64648l-1.5-2.5977c-0.12507-0.21697-0.39136-0.30796-0.62305-0.21289l-1.4414 0.5957c-0.32932-0.24143-0.67438-0.45968-1.0488-0.62305l-0.20313-1.5273c-0.033315-0.24844-0.24543-0.43383-0.49609-0.43359zm0.5 4h2v3h2l-3 3.5-3-3.5h2z" fill="url(#b)" fill-opacity=".7533" style="font-feature-settings:normal;font-variant-alternates:normal;font-variant-caps:normal;font-variant-ligatures:normal;font-variant-numeric:normal;font-variant-position:normal;isolation:auto;mix-blend-mode:normal;paint-order:normal;shape-padding:0;text-decoration-color:#000000;text-decoration-line:none;text-decoration-style:solid;text-indent:0;text-orientation:mixed;text-transform:none;white-space:normal"/>
</svg>
