<?xml version="1.0" encoding="UTF-8" standalone="no"?>
<svg
   xmlns:dc="http://purl.org/dc/elements/1.1/"
   xmlns:cc="http://creativecommons.org/ns#"
   xmlns:rdf="http://www.w3.org/1999/02/22-rdf-syntax-ns#"
   xmlns:svg="http://www.w3.org/2000/svg"
   xmlns="http://www.w3.org/2000/svg"
   version="1.1"
   id="svg13094"
   height="16"
   width="16">
  <defs
     id="defs4">
    <style
       id="current-color-scheme"
       type="text/css">.ColorScheme-Text {color:#090d11;}.ColorScheme-Background{color:#ffffff;}</style>
  </defs>
  <metadata
     id="metadata13099">
    <rdf:RDF>
      <cc:Work
         rdf:about="">
        <dc:format>image/svg+xml</dc:format>
        <dc:type
           rdf:resource="http://purl.org/dc/dcmitype/StillImage" />
        <dc:title></dc:title>
      </cc:Work>
    </rdf:RDF>
  </metadata>
  <path
     id="path3001"
     d="M 8.4688,2.03125 C 2.2183,1.93135 0.0929,6.9973 1.3125,9.59375 c 0.9101,1.93753 2.6273,-0.47094 3.875,0.4375 0.9744,0.70942 -1.9401,2.0625 -1.0625,2.8125 2.3565,2.01385 6.0028,1.05011 7.6875,-0.125 C 16.9719,9.11999 16.0227,2.15201 8.4688,2.03125 Z m 0.6562,1.625 c 0.1414,0.009 0.2636,0.0434 0.375,0.125 C 9.9455,4.10769 9.9272,4.92552 9.438,5.59375 8.9483,6.26198 8.196,6.54519 7.7505,6.21875 7.305,5.89231 7.3233,5.07448 7.8125,4.40625 8.1797,3.90508 8.7009,3.62778 9.125,3.65625 Z M 5.0938,4.0625 c 0.067,-0.01 0.1193,-0.0108 0.1875,0 0.5455,0.0861 0.9104,0.80671 0.7812,1.625 C 5.9333,6.50579 5.3893,7.08614 4.8438,7 4.2982,6.9139 3.9333,6.19329 4.0625,5.375 4.1756,4.65899 4.6218,4.12958 5.0938,4.0625 Z M 12.5,5.03125 c 0.3256,0.021 0.6119,0.1671 0.75,0.40625 0.2761,0.47829 -0.095,1.21078 -0.8125,1.625 C 11.7201,7.47672 10.9011,7.41579 10.625,6.9375 10.3489,6.45921 10.72,5.72672 11.4375,5.3125 11.7962,5.10539 12.1744,5.01025 12.5,5.03125 Z M 8.9063,9.375 C 9.6471,9.3607 10.3058,9.70471 10.5,10.28125 10.759,11.04997 10.1242,11.96538 9.0938,12.3125 8.0633,12.65962 7.009,12.3 6.75,11.53125 6.491,10.76253 7.1258,9.84712 8.1563,9.5 8.4139,9.4132 8.6593,9.37976 8.9063,9.375 Z"
     style="fill:currentColor;fill-opacity:0.75"
     class="ColorScheme-Text" />
  <path
     style="fill:currentColor;fill-opacity:0.5"
     class="ColorScheme-Background"
     d="m 8.5,0.84375 c -6.903,-0.11035 -9.98425,5.6243 -8.28125,9.25 0.3299,0.70242 0.9923,1.30032 1.6875,1.4375 0.5353,0.10564 0.8929,-0.044 1.25,-0.15625 C 3.09825,11.4588 3.0551,11.49402 3,11.59375 c -0.1324,0.23946 -0.2744,0.56717 -0.25,1 0.024,0.43283 0.29155,0.89806 0.59375,1.15625 1.4825,1.26693 3.3567,1.5641 5,1.40625 C 9.98695,14.9984 11.4507,14.41939 12.5,13.6875 15.4061,11.66046 16.7362,8.55185 16.0625,5.78125 15.3888,3.01065 12.645,0.91001 8.5,0.84375 Z m -0.03125,1.1875 c 7.5539,0.12076 8.50315,7.08874 3.34375,10.6875 -1.6847,1.17511 -5.331,2.13885 -7.6875,0.125 -0.8776,-0.75 2.0369,-2.10308 1.0625,-2.8125 C 3.9398,9.12281 2.2226,11.53128 1.3125,9.59375 0.0929,6.9973 2.21825,1.93135 8.46875,2.03125 Z M 9.125,3.65625 C 8.7009,3.62778 8.1797,3.90508 7.8125,4.40625 7.3233,5.07448 7.3045,5.89231 7.75,6.21875 8.1955,6.54519 8.9478,6.26198 9.4375,5.59375 9.9267,4.92552 9.9455,4.10769 9.5,3.78125 9.3886,3.69965 9.2664,3.66525 9.125,3.65625 Z M 5.09375,4.0625 C 4.62175,4.12958 4.1756,4.65899 4.0625,5.375 3.9333,6.19329 4.29815,6.9139 4.84375,7 5.38925,7.08614 5.9333,6.50579 6.0625,5.6875 6.1917,4.86921 5.82675,4.1486 5.28125,4.0625 c -0.0682,-0.0108 -0.1205,-0.01 -0.1875,0 z M 12.5,5.03125 C 12.1744,5.01025 11.7962,5.10539 11.4375,5.3125 10.72,5.72672 10.3489,6.45921 10.625,6.9375 10.9011,7.41579 11.7201,7.47672 12.4375,7.0625 13.155,6.64828 13.5261,5.91579 13.25,5.4375 13.1119,5.19835 12.8256,5.05225 12.5,5.03125 Z M 8.90625,9.375 C 8.65925,9.3798 8.41385,9.4132 8.15625,9.5 7.12575,9.84712 6.491,10.76253 6.75,11.53125 7.009,12.3 8.06325,12.65962 9.09375,12.3125 10.12415,11.96538 10.759,11.04997 10.5,10.28125 10.3058,9.70471 9.64705,9.3607 8.90625,9.375 Z"
     id="path3011" />
</svg>
