<?xml version="1.0" encoding="UTF-8"?>
<svg id="g" width="24" height="24" version="1.1" xmlns="http://www.w3.org/2000/svg" xmlns:cc="http://creativecommons.org/ns#" xmlns:dc="http://purl.org/dc/elements/1.1/" xmlns:rdf="http://www.w3.org/1999/02/22-rdf-syntax-ns#">
	<metadata id="a">
		<rdf:RDF>
			<cc:Work rdf:about="">
				<dc:format>image/svg+xml</dc:format>
				<dc:type rdf:resource="http://purl.org/dc/dcmitype/StillImage"/>
			</cc:Work>
		</rdf:RDF>
	</metadata>
	<defs>
		<style id="current-color-scheme" type="text/css">.ColorScheme-Text {color:#090d11;}.ColorScheme-Background{color:#ffffff;}</style>
	</defs>
	<path id="f" class="ColorScheme-Text" d="m12 2-6.6152 5.6699 4.666 4 1.9492-1.6699 1.9492 1.6699 4.666-4zm-7 6.6582v7.3418l7 6 7-6v-7.3418l-7 6z" style="fill-opacity:.75;fill:currentColor"/>
	<path id="h" class="ColorScheme-Background" d="m12 1c-0.23851-3.743e-5 -0.46918 0.085164-0.65039 0.24023l-6.6152 5.6699c-0.25547 0.25946-0.34973 0.63727-0.24609 0.98633-0.27488 0.16156-0.45625 0.4445-0.48828 0.76172v7.3418c-3.51e-5 0.29216 0.12769 0.56974 0.34961 0.75977l7 6c0.37437 0.32049 0.92641 0.32049 1.3008 0l7-6c0.22192-0.19003 0.34964-0.4676 0.34961-0.75977v-7.3418c-0.04261-0.28051-0.20236-0.52971-0.43945-0.68555 0.12345-0.38127 0.0074-0.79941-0.29492-1.0625l-6.6152-5.6699c-0.18122-0.15507-0.41188-0.24027-0.65039-0.24023zm0 1 6.6152 5.6699-4.666 4-1.9492-1.6699-1.9492 1.6699-4.666-4zm-7 6.6582 7 6 7-6v7.3418l-7 6-7-6zm7 2.6582 1.1816 1.0117-1.1816 1.0137-1.1816-1.0137z" style="fill-opacity:.5;fill:currentColor"/>
</svg>
