<?xml version="1.0" encoding="UTF-8"?>
<!-- Created with Inkscape (http://www.inkscape.org/) -->
<svg width="24" height="24" version="1.1" xmlns="http://www.w3.org/2000/svg" xmlns:cc="http://creativecommons.org/ns#" xmlns:dc="http://purl.org/dc/elements/1.1/" xmlns:rdf="http://www.w3.org/1999/02/22-rdf-syntax-ns#">
	<defs>
		<style id="current-color-scheme" type="text/css">.ColorScheme-Background{color:#ffffff;}
			.ColorScheme-Text{color:#090d11;}</style>
	</defs>
	<metadata>
		<rdf:RDF>
			<cc:Work rdf:about="">
				<dc:format>image/svg+xml</dc:format>
				<dc:type rdf:resource="http://purl.org/dc/dcmitype/StillImage"/>
			</cc:Work>
		</rdf:RDF>
	</metadata>
	<path class="ColorScheme-Text" d="m14.111 3.293c-0.3843 0.024-2.5284 1.6518-2.8047 1.6934-0.2852 0.043-2.9707-0.9417-3.209-0.7793-0.2383 0.1625-0.30307 3.0217-0.44727 3.2715s-2.5878 1.7357-2.6094 2.0234c-0.021 0.2876 2.1739 2.1202 2.2793 2.3887s-0.25818 3.1065-0.046875 3.3027c0.2115 0.1961 3.0153-0.37797 3.291-0.29297 0.2756 0.085 2.2675 2.1387 2.5527 2.0957s1.584-2.5934 1.8223-2.7559c0.2383-0.1624 3.0843-0.43965 3.2285-0.68945s-1.0371-2.855-1.0156-3.1426c0.022-0.2876 1.5781-2.6866 1.4727-2.9551s-2.8784-0.96591-3.0898-1.1621c-0.2115-0.1962-1.117-2.9111-1.3926-2.9961h-0.03125zm-2.1133 2.707c2.2033 0 4.0039 1.7967 4.0039 4s-1.8006 4-4.0039 4-4-1.7967-4-4 1.7967-4 4-4zm0 1c-1.6629 0-3 1.3371-3 3s1.3371 3 3 3 3.0039-1.3371 3.0039-3-1.341-3-3.0039-3zm5.0098 8.002-1.6211 0.19727-1.3594 2.6406-1.0859 0.32617 1.0957 3.834 2-2 3 1zm-6.9375 0.90234-3.4551 0.32617-1.6152 4.7695 3-1 2 2 1.4141-4.9531-0.05469-0.13672z" style="fill-opacity:.75;fill:currentColor"/>
</svg>
