<?xml version="1.0" encoding="UTF-8"?>
<!-- Created with Inkscape (http://www.inkscape.org/) -->
<svg width="24" height="24" version="1.0" xmlns="http://www.w3.org/2000/svg" xmlns:cc="http://creativecommons.org/ns#" xmlns:dc="http://purl.org/dc/elements/1.1/" xmlns:rdf="http://www.w3.org/1999/02/22-rdf-syntax-ns#">
	<defs>
		<style id="current-color-scheme" type="text/css">.ColorScheme-Text {color:#090d11;}.ColorScheme-Background{color:#ffffff;}</style>
	</defs>
	<metadata>
		<rdf:RDF>
			<cc:Work rdf:about="">
				<dc:format>image/svg+xml</dc:format>
				<dc:type rdf:resource="http://purl.org/dc/dcmitype/StillImage"/>
			</cc:Work>
		</rdf:RDF>
	</metadata>
	<path id="f" class="ColorScheme-Text" d="m5.5 3c-0.82235 0-1.5 0.67765-1.5 1.5v15c0 0.82235 0.67765 1.5 1.5 1.5h6.5v-1h-6.5c-0.28565 0-0.5-0.21435-0.5-0.5v-15c0-0.28565 0.21435-0.5 0.5-0.5h13c0.28565 0 0.5 0.21435 0.5 0.5v8.5h1v-8.5c0-0.82235-0.67765-1.5-1.5-1.5zm3 2.5c-0.55228 0-1 0.44772-1 1s0.44772 1 1 1 1-0.44772 1-1-0.44772-1-1-1zm0 3.5c-0.27614 0-0.5 0.22386-0.5 0.5v3c0 0.27614 0.22386 0.5 0.5 0.5s0.5-0.22386 0.5-0.5v-3c0-0.27614-0.22386-0.5-0.5-0.5zm4.5 5v7l7-7z" style="fill-opacity:.75;fill:currentColor"/>
	<path id="h" class="ColorScheme-Background" d="m4.5 2c-0.82235 0-1.5 0.67765-1.5 1.5v17c0 0.82235 0.67765 1.5 1.5 1.5h8.5v-0.007812c0.24808 0.001899 0.5012-0.079457 0.70703-0.28516l7-7c0.62956-0.63 0.18361-1.7067-0.70703-1.707h-7c-0.55226 5.5e-5 -0.99994 0.44774-1 1v6h1v-6h7l-7 7h-8.5c-0.28565 0-0.5-0.21435-0.5-0.5v-17c0-0.28565 0.21435-0.5 0.5-0.5h15c0.28565 0 0.5 0.21435 0.5 0.5v8.5h1v-8.5c0-0.82235-0.67765-1.5-1.5-1.5h-15zm3 3.75a1 1 0 0 0-1 1 1 1 0 0 0 1 1 1 1 0 0 0 1-1 1 1 0 0 0-1-1zm0 3.5a0.5 0.5 0 0 0-0.5 0.5v3a0.5 0.5 0 0 0 0.5 0.5 0.5 0.5 0 0 0 0.5-0.5v-3a0.5 0.5 0 0 0-0.5-0.5z" style="fill-opacity:.5;fill:currentColor"/>
</svg>
