<?xml version="1.0" encoding="UTF-8"?>
<svg id="b" width="18" height="18" version="1.1" xmlns="http://www.w3.org/2000/svg" xmlns:cc="http://creativecommons.org/ns#" xmlns:dc="http://purl.org/dc/elements/1.1/" xmlns:rdf="http://www.w3.org/1999/02/22-rdf-syntax-ns#">
	<metadata id="a">
		<rdf:RDF>
			<cc:Work rdf:about="">
				<dc:format>image/svg+xml</dc:format>
				<dc:type rdf:resource="http://purl.org/dc/dcmitype/StillImage"/>
			</cc:Work>
		</rdf:RDF>
	</metadata>
	<defs id="f">
		<style id="current-color-scheme" type="text/css">.ColorScheme-Text {color:#090d11;}.ColorScheme-Background{color:#ffffff;}</style>
	</defs>
	<path id="d" class="ColorScheme-Text" d="m6 1v2h1v-2zm2 0v2h1v-2zm2 0v2h1v-2zm-5 3c-0.5538 0-1 0.4462-1 1v8c0 0.5538 0.4462 1 1 1h8c0.5538 0 1-0.4462 1-1v-8c0-0.5538-0.4462-1-1-1zm10 2v1h2v-1zm-5.998 0.064453 2.2754 1.5195h2e-3l-0.55469 0.83203h-2e-3l-0.7207-0.48047v2.5645c0 0.20654-0.04406 0.4022-0.12109 0.58203-0.076536 0.17867-0.1863 0.34086-0.32227 0.47656-0.27176 0.27176-0.6462 0.44086-1.0566 0.44141-0.10345 0-0.20498-0.01086-0.30273-0.03125-0.096006-0.01988-0.18878-0.0504-0.27734-0.08789-0.090301-0.03823-0.1754-0.08424-0.25586-0.13867-4.17e-4 -2.84e-4 -0.00154 2.83e-4 -0.00195 0-0.3993-0.27079-0.66406-0.72817-0.66406-1.2422 0-0.51402 0.26477-0.9714 0.66406-1.2422 4.732e-4 -3.209e-4 0.00148 3.204e-4 0.00195 0 0.080511-0.054434 0.16561-0.10045 0.25591-0.13867 0.04249-0.017987 0.088489-0.028916 0.13281-0.042969 0.13264-0.042399 0.27073-0.069149 0.41602-0.072266 0.01-2.011e-4 0.019253-0.00391 0.029297-0.00391 6.628e-4 0 0.00129-1.1e-6 0.00195 0 0.17547 0 0.341 0.036515 0.49805 0.09375v-3.0273l0.00195 0.00195v-0.00391zm-8.002 0.93555v1h2v-1zm14 1v1h2v-1zm-14 1v1h2v-1zm7.5 1c-0.14099 0-0.26572 0.05478-0.35547 0.14453-0.08925 0.08975-0.14258 0.21447-0.14258 0.35547s0.053328 0.26572 0.14258 0.35547c0.089752 0.08975 0.21448 0.14453 0.35547 0.14453 0.28199 0 0.5-0.21801 0.5-0.5 0-0.14099-0.05478-0.26572-0.14453-0.35547-0.089752-0.089752-0.21448-0.14453-0.35547-0.14453zm6.5 0v1h2v-1zm-14 1v1h2v-1zm6 4v2h1v-2zm2 0v2h1v-2zm2 0v2h1v-2z" style="fill-opacity:.75;fill:currentColor"/>
</svg>
