<?xml version="1.0" encoding="UTF-8"?>
<!-- Created with Inkscape (http://www.inkscape.org/) -->
<svg width="24" height="24" version="1.1" xmlns="http://www.w3.org/2000/svg" xmlns:cc="http://creativecommons.org/ns#" xmlns:dc="http://purl.org/dc/elements/1.1/" xmlns:rdf="http://www.w3.org/1999/02/22-rdf-syntax-ns#" xmlns:xlink="http://www.w3.org/1999/xlink">
	<defs>
		<linearGradient id="linearGradient2867" x1="18.011" x2="72.499" y1="65.76" y2="65.76" gradientTransform="matrix(1.0177 0 0 .96017 5.5242 -18.775)" gradientUnits="userSpaceOnUse">
			<stop style="stop-color:#ffffff" offset="0"/>
			<stop style="stop-color:#ffffff" offset="1"/>
		</linearGradient>
		<radialGradient id="radialGradient9168" cx="68" cy="-117.35" r="28" gradientTransform="matrix(.99036 0 0 1.6642 16.252 75.515)" gradientUnits="userSpaceOnUse">
			<stop style="stop-color:#ffffff" offset="0"/>
			<stop style="stop-color:#ffffff;stop-opacity:0" offset="1"/>
		</radialGradient>
		<linearGradient id="linearGradient6243" x1="38.875" x2="90.41" y1="67.528" y2="67.528" gradientTransform="matrix(.5115 0 0 .77135 67.773 6.6291)" gradientUnits="userSpaceOnUse" xlink:href="#linearGradient2916"/>
		<linearGradient id="linearGradient6238" x1="11.543" x2="10.883" y1="3.4375" y2="5.9006" gradientTransform="matrix(5.4675,0,0,5.8206,24.29,-2.0656)" gradientUnits="userSpaceOnUse">
			<stop style="stop-color:#ffffff" offset="0"/>
			<stop style="stop-color:#ffffff;stop-opacity:0" offset="1"/>
		</linearGradient>
		<linearGradient id="linearGradient6233" x1="38.875" x2="90.41" y1="67.528" y2="67.528" gradientTransform="matrix(.5115 0 0 .96108 67.773 4.8321)" gradientUnits="userSpaceOnUse" xlink:href="#linearGradient2916"/>
		<linearGradient id="linearGradient6228" x1="38.875" x2="90.41" y1="67.528" y2="67.528" gradientTransform="matrix(.5115 0 0 1.8065 68.03 -6.0982)" gradientUnits="userSpaceOnUse" xlink:href="#linearGradient2916"/>
		<linearGradient id="linearGradient2916">
			<stop style="stop-color:#ffffff" offset="0"/>
			<stop style="stop-color:#ffffff;stop-opacity:0" offset="1"/>
		</linearGradient>
		<style id="current-color-scheme" type="text/css">.ColorScheme-Text {color:#090d11;}.ColorScheme-Background{color:#ffffff;}</style>
	</defs>
	<metadata>
		<rdf:RDF>
			<cc:Work rdf:about="">
				<dc:format>image/svg+xml</dc:format>
				<dc:type rdf:resource="http://purl.org/dc/dcmitype/StillImage"/>
			</cc:Work>
		</rdf:RDF>
	</metadata>
	<path class="ColorScheme-Text" d="m15.816 2.0801-0.0039 0.00195c2.2871 10.896 0.88761 12.923-1.1211 13.492l-0.17188 1.4258h0.76172c1.0074 1.1971 1.2754 2.5597 1.5488 3.9199 1.6709-0.44771 3.743-1.0215 3.9336-1.7949 1.2842-5.2122-3.5336-14.877-4.9473-17.045zm-7.7031 0.00195c-1.4138 2.1685-6.2313 11.831-4.9473 17.043 0.19053 0.77332 2.2627 1.3471 3.9336 1.7949 0.27333-1.3602 0.53757-2.7228 1.5449-3.9199h0.76367l-0.16992-1.4258c-2.0087-0.56917-3.4121-2.5962-1.125-13.492zm3.8496 8.8574c-1.512 0-2.2891 3.5491-2.2891 6.0781 0 2.5291 1.2721 3.0801 2.2891 3.0801 1.017 1e-6 2.291-0.5509 2.291-3.0801 0-2.5291-0.779-6.0781-2.291-6.0781zm0 0.84766c0.75973 0 1.1504 0.9939 1.1504 1.7031 0 0.70918-0.63944 0.84766-1.1504 0.84766-0.51103 0-1.1504-0.13845-1.1504-0.84766 0-0.70918 0.3907-1.7031 1.1504-1.7031z" style="fill-opacity:.75;fill:currentColor"/>
	<g id="WhiteBackgroundLayer" transform="translate(504.14,-1869.6)" style="display:none">
		<rect id="Background" x="3.8542" y="-7.9516" width="55.454" height="104.64" rx="2.1938" ry="1.9589" style="fill:url(#linearGradient2867);opacity:.69898"/>
	</g>
	<g id="Overlay" transform="translate(472.32,-1892.6)" style="display:none">
		<rect id="spacerover" x="1.0394e-6" y="-.054732" width="128.05" height="127.79" style="fill:none"/>
		<rect x="70.721" y="16.672" width="13.171" height="102.85" rx="0" ry="0" style="fill:url(#linearGradient6233);opacity:.22541"/>
		<rect x="70.721" y="16.132" width="13.171" height="31.864" rx="0" ry="0" style="fill:url(#linearGradient6243);opacity:.22541"/>
		<path d="m60.854 17.943c-0.52061 0-0.8543 0.53713-0.8543 1.0914v3.0922c10.886 18.631 33.206 8.3692 48.524 5.093v-8.1852c0-0.55423-0.33368-1.0914-0.85429-1.0914h-46.816z" style="fill:url(#linearGradient6238);opacity:.48361"/>
		<rect x="70.978" y="16.158" width="13.171" height="71.838" rx="0" ry="0" style="fill:url(#linearGradient6228);opacity:.22541"/>
		<rect transform="scale(1,-1)" x="40.867" y="-119.74" width="55.46" height="61.206" rx="2.0961" ry="1.9391" style="fill:url(#radialGradient9168);opacity:.41"/>
	</g>
</svg>
