<?xml version="1.0" encoding="UTF-8"?>
<!-- Created with Inkscape (http://www.inkscape.org/) -->
<svg width="24" height="24" version="1.1" xml:space="preserve" xmlns="http://www.w3.org/2000/svg" xmlns:cc="http://creativecommons.org/ns#" xmlns:dc="http://purl.org/dc/elements/1.1/" xmlns:rdf="http://www.w3.org/1999/02/22-rdf-syntax-ns#"><defs><style id="current-color-scheme" type="text/css">.ColorScheme-Text {color:#090d11;}.ColorScheme-Background{color:#ffffff;}</style></defs><metadata><rdf:RDF><cc:Work rdf:about=""><dc:format>image/svg+xml</dc:format><dc:type rdf:resource="http://purl.org/dc/dcmitype/StillImage"/></cc:Work></rdf:RDF></metadata><path id="h" class="ColorScheme-Background" d="m12 4c-1.5132 0-2.8399 0.8529-3.5196 2.1016l-2.707-1.7696c-0.2313-0.1521-0.5421-0.087-0.6934 0.1446-0.1507 0.2309-0.086 0.5402 0.1446 0.6914l2.8886 1.8886c-0.074 0.303-0.1152 0.6185-0.1152 0.9434v2h-4c-0.2761 0-0.5 0.2239-0.5 0.5s0.2239 0.5 0.5 0.5h4v3.4238l-2.9316 5.0762c-0.1387 0.2389-0.057 0.545 0.1816 0.6836 0.2394 0.1384 0.5457 0.056 0.6836-0.1836l2.2324-3.8652c0.4932 1.6511 2.031 2.8652 3.836 2.8652 1.8047 0 3.3392-1.2144 3.832-2.8652l2.2344 3.8652c0.1379 0.2397 0.4442 0.322 0.6836 0.1836 0.239-0.1386 0.3203-0.4447 0.1816-0.6836l-2.9316-5.0742v-3.4258h3.998c0.2761 0 0.5-0.2239 0.5-0.5s-0.2239-0.5-0.5-0.5h-3.998v-2c0-0.3249-0.041-0.6404-0.1153-0.9434l2.8887-1.8886c0.2306-0.1512 0.2952-0.4605 0.1445-0.6914-0.1513-0.2318-0.462-0.2966-0.6933-0.1446l-2.7071 1.7696c-0.6791-1.2487-2.0044-2.1016-3.5175-2.1016zm0 1c0.065 0 0.1293 0 0.1934 0.01 0.01 5e-4 0.017-6e-4 0.025 0 0.01 7e-4 0.02 0 0.029 0 0.056 0 0.1114 0.01 0.1661 0.018h0.025 0.02c0.06 0.01 0.1186 0.021 0.1777 0.033v0c0 5e-4 0.01 0 0.01 0 0.053 0.012 0.1063 0.025 0.1582 0.039 0.024 0.01 0.048 0.014 0.072 0.021h0.016c0.05 0.015 0.1 0.033 0.1485 0.051 0.056 0.021 0.1113 0.044 0.166 0.068 0.071 0.031 0.1427 0.065 0.2109 0.1016 0 0 0.01 0 0.012 0.01 0.011 0.01 0.02 0.014 0.031 0.02 0.063 0.035 0.1251 0.072 0.1855 0.1113 0.022 0.014 0.043 0.03 0.064 0.045 0.053 0.037 0.1041 0.075 0.1543 0.1152 0.014 0.011 0.029 0.02 0.043 0.031 0 0 0.01 0.01 0.012 0.01 0.055 0.046 0.1067 0.095 0.1582 0.1445 0.032 0.031 0.065 0.063 0.096 0.096 0.029 0.03 0.056 0.062 0.084 0.094 0.031 0.035 0.061 0.071 0.09 0.1075 0.042 0.053 0.083 0.108 0.1211 0.164 0.024 0.036 0.047 0.073 0.07 0.1094 0.021 0.034 0.043 0.068 0.062 0.1035 0.022 0.039 0.044 0.077 0.064 0.1172 0 0.01 0.01 0.014 0.012 0.022 0.1545 0.3072 0.2578 0.6428 0.2988 1 0.013 0.1144 0.021 0.2315 0.021 0.3496v7c0 0.1039-0.01 0.2055-0.016 0.3066-0.01 0.1011-0.025 0.201-0.045 0.2989-0.02 0.098-0.045 0.195-0.074 0.289s-0.062 0.1856-0.1 0.2754c-0.3028 0.7183-0.8774 1.2929-1.5957 1.5957-0.09 0.038-0.1813 0.071-0.2754 0.1-0.094 0.029-0.1912 0.054-0.289 0.074-0.098 0.02-0.1958 0.035-0.2969 0.045-0.1004 0.01-0.2034 0.016-0.3066 0.016-0.1039 0-0.2055-0.01-0.3066-0.016-0.1011-0.01-0.201-0.025-0.2989-0.045-0.098-0.02-0.195-0.045-0.289-0.074s-0.1856-0.062-0.2754-0.1c-0.7183-0.3028-1.2929-0.8774-1.5957-1.5957-0.038-0.09-0.071-0.1813-0.1-0.2754-0.029-0.094-0.054-0.1912-0.074-0.289-0.02-0.098-0.035-0.1978-0.045-0.2989s-0.016-0.2027-0.016-0.3066v-7c0-0.1181 0.01-0.2352 0.022-0.3496 0.041-0.3575 0.1461-0.6926 0.3008-1 0.029-0.058 0.059-0.1145 0.092-0.1699 0.01-0.01 0.011-0.017 0.016-0.025 0.098-0.1627 0.2101-0.3146 0.3359-0.4551 0.012-0.014 0.025-0.028 0.037-0.041 0.04-0.043 0.081-0.084 0.1231-0.125 0.049-0.047 0.098-0.093 0.1504-0.1367 0.032-0.027 0.066-0.052 0.1-0.078 0.031-0.024 0.063-0.047 0.096-0.07 0.028-0.02 0.057-0.04 0.086-0.059 0.051-0.033 0.1017-0.065 0.1543-0.096 0.023-0.013 0.047-0.026 0.07-0.039 0.017-0.01 0.034-0.017 0.051-0.025 0.052-0.027 0.1044-0.052 0.1582-0.076 0.055-0.024 0.1096-0.048 0.166-0.068h0.01c0.062-0.023 0.1239-0.042 0.1875-0.061 0.065-0.019 0.1322-0.036 0.1992-0.051 0-4e-4 0 0 0.01 0v0c0.059-0.013 0.1192-0.024 0.1797-0.033h0.025 0.031c0.05-0.01 0.1-0.011 0.1504-0.016h0.057c0.064 0 0.1281-0.01 0.1934-0.01z" style="fill-opacity:.5;fill:currentColor"/><path id="f" class="ColorScheme-Text" d="m6.25 2.75c-0.1326 0-0.2598 0.053-0.3535 0.1465-0.1952 0.1952-0.1952 0.5118 0 0.707l3.3066 3.3067c-0.131 0.3376-0.2031 0.7048-0.2031 1.0898v1h-4.5c-0.2761 0-0.5 0.2239-0.5 0.5s0.2239 0.5 0.5 0.5h4.5v4.0781l-2.957 6.7207c-0.1107 0.2524 0 0.5468 0.2558 0.6582 0.2529 0.1121 0.5488 0 0.6602-0.2558l2.2461-5.1055c0.436 1.1168 1.5201 1.9043 2.7949 1.9043 1.2754 0 2.3594-0.7887 2.7949-1.9062l2.2481 5.1074c0.1114 0.2532 0.4072 0.3678 0.6601 0.2558 0.2521-0.1114 0.3666-0.4058 0.2559-0.6582l-2.959-6.7246v-4.0742h4.5c0.2761 0 0.5-0.2239 0.5-0.5s-0.2239-0.5-0.5-0.5h-4.5v-1c0-0.385-0.072-0.7522-0.2031-1.0898l3.3066-3.3067c0.1952-0.1952 0.1952-0.5118 0-0.707s-0.5118-0.1952-0.707 0l-3.1348 3.1348c-0.5492-0.6309-1.3558-1.0313-2.2617-1.0313s-1.7125 0.4004-2.2617 1.0313l-3.1348-3.1348c-0.094-0.094-0.2209-0.1465-0.3535-0.1465z" style="fill-opacity:.75;fill:currentColor"/></svg>
