<?xml version="1.0" encoding="UTF-8"?>
<svg id="d" width="24" height="24" version="1.1" xmlns="http://www.w3.org/2000/svg" xmlns:cc="http://creativecommons.org/ns#" xmlns:dc="http://purl.org/dc/elements/1.1/" xmlns:rdf="http://www.w3.org/1999/02/22-rdf-syntax-ns#">
	<metadata id="f">
		<rdf:RDF>
			<cc:Work rdf:about="">
				<dc:format>image/svg+xml</dc:format>
				<dc:type rdf:resource="http://purl.org/dc/dcmitype/StillImage"/>
			</cc:Work>
		</rdf:RDF>
	</metadata>
	<defs id="a">
		<style id="current-color-scheme" type="text/css">.ColorScheme-Text {color:#090d11;}.ColorScheme-Background{color:#ffffff;}</style>
	</defs>
	<path id="c" class="ColorScheme-Text" d="m7.0508 7.0508c-2.2403 2.24-2.6969 5.7054-1.1133 8.4492 1.5842 2.7443 4.8143 4.0822 7.875 3.2617 3.0601-0.82031 5.1877-3.5936 5.1875-6.7617h-7z" style="fill-opacity:.75;fill:currentColor;stroke-width:.03606"/>
	<path id="e" class="ColorScheme-Background" d="m5.7715 7.3984c-1.8294 2.4808-2.1494 5.7923-0.57031 8.5273 1.7793 3.0818 5.3928 4.5773 8.8301 3.6562 3.0506-0.81741 5.1664-3.3838 5.627-6.4316h-2e-3l0.035203-0.15039h-0.76953c-0.39876 2.769-2.4079 5.0347-5.1094 5.7617-3.0607 0.82051-6.2908-0.51738-7.875-3.2617-1.366-2.3763-1.2194-5.3311 0.375-7.5605z" style="fill-opacity:.5;fill:currentColor;stroke-width:.03606"/>
</svg>
