<?xml version="1.0" encoding="UTF-8" standalone="no"?>
<svg
   xmlns:dc="http://purl.org/dc/elements/1.1/"
   xmlns:cc="http://creativecommons.org/ns#"
   xmlns:rdf="http://www.w3.org/1999/02/22-rdf-syntax-ns#"
   xmlns:svg="http://www.w3.org/2000/svg"
   xmlns="http://www.w3.org/2000/svg"
   id="svg2"
   height="24"
   width="24"
   version="1.1">
  <defs
     id="defs4">
    <style
       id="current-color-scheme"
       type="text/css">.ColorScheme-Text {color:#090d11;}.ColorScheme-Background{color:#ffffff;}</style>
  </defs>
  <metadata
     id="metadata7">
    <rdf:RDF>
      <cc:Work
         rdf:about="">
        <dc:format>image/svg+xml</dc:format>
        <dc:type
           rdf:resource="http://purl.org/dc/dcmitype/StillImage" />
        <dc:title></dc:title>
      </cc:Work>
    </rdf:RDF>
  </metadata>
  <path
     class="ColorScheme-Background"
     id="rect3801"
     d="M 6,2 C 3.8012972,2 2,3.8012972 2,6 v 12 c 0,2.198703 1.8012972,4 4,4 H 7 12.533203 16 c 0.52164,-4.91e-4 0.955293,-0.401833 0.996094,-0.921875 L 21,23 16,19 v 2 H 12.533203 7 6 C 4.338,21 3,19.662 3,18 V 6 C 3,5.79225 3.0207148,5.5901758 3.0605469,5.3945312 3.3393711,4.0250195 4.54575,3 6,3 h 1 9 2 c 1.662,0 3,1.338 3,3 V 7 9.4824219 23 L 22,21 22,7 V 6 C 22,3.8012972 20.198703,2 18,2 H 16 7 Z m 4.335938,5.8339844 c -2e-6,0 -1.4032755,-0.029513 -2.8886724,1.0742187 0,0 -1.484375,2.6703729 -1.484375,5.9609379 0,0 0.8648595,1.486383 3.1445313,1.558593 0,0 -0.1043842,-0.0085 -0.1699219,-0.06641 C 8.8719623,16.303392 8.8452709,16.195989 9,16 7.6899634,15.60802 7.9941406,14.375 7.9941406,14.375 c 0,0 0.1033851,0.07264 0.2890625,0.175781 0.010326,0 0.020378,0.0092 0.041016,0.01953 0.03095,0.02063 0.0628,0.03212 0.09375,0.05274 0.2578808,0.144414 0.5147034,0.256769 0.7519531,0.349609 0.4229261,0.175359 0.9276571,0.329892 1.5156251,0.44336 0.773644,0.144414 1.681612,0.197408 2.671875,0.01172 0.484817,-0.09284 0.98033,-0.228693 1.496094,-0.445312 0.361034,-0.1341 0.764576,-0.32891 1.1875,-0.607422 0,0 0.310282,1.243336 -1.041016,1.625 0.309458,0.381669 -0.146484,0.417969 -0.146484,0.417969 C 17.133187,16.34576 18,14.858821 18,14.869141 18,11.578576 16.513672,8.9082031 16.513672,8.9082031 15.03859,7.8044814 13.626953,7.8339844 13.626953,7.8339844 L 13.482422,8 c 1.753593,0.5260779 2.568359,1.2988281 2.568359,1.2988281 -1.072786,-0.5776539 -2.125515,-0.8650476 -3.105469,-0.9785156 -0.742694,-0.082525 -1.454753,-0.06298 -2.083984,0.019531 -0.06188,-1e-7 -0.113881,0.011186 -0.175781,0.021484 -0.361034,0.041262 -1.2361122,0.1655735 -2.3398439,0.6503907 -0.381665,0.1650437 -0.609375,0.2871093 -0.609375,0.2871093 0,0 0.8463798,-0.8137655 2.7031249,-1.3398437 z M 10,12 c 0.558812,0 1.0098,0.445455 1,1 0,0.554546 -0.441188,1 -1,1 -0.5490096,0 -1,-0.445454 -1,-1 0,-0.554545 0.4411871,-1 1,-1 z m 4,0 c 0.549009,0 1,0.445455 1,1 0,0.554546 -0.441186,1 -1,1 -0.549008,0 -1,-0.445454 -1,-1 0,-0.554545 0.441188,-1 1,-1 z"
     style="fill:currentColor;fill-opacity:0.5" />
  <path
     class="ColorScheme-Text"
     style="fill:currentColor;fill-opacity:0.75"
     d="M 6,3 C 4.338,3 3,4.338 3,6 v 12 c 0,1.662 1.338,3 3,3 H 7 12.533203 16 v -2 l 5,4 V 9.4824219 7 6 C 21,4.338 19.662,3 18,3 H 16 7 Z m 4.335938,4.8339844 0.103515,0.125 C 8.5827078,8.4850626 7.7363281,9.2988281 7.7363281,9.2988281 c 0,0 0.22771,-0.1220655 0.609375,-0.2871093 1.1037317,-0.4848171 1.9788099,-0.6091287 2.3398439,-0.6503907 0.0619,-0.010298 0.113901,-0.021484 0.175781,-0.021484 0.629231,-0.082511 1.341289,-0.1020563 2.083984,-0.019531 0.979953,0.113468 2.032683,0.4008617 3.105469,0.9785156 0,0 -0.814766,-0.7727502 -2.568359,-1.2988281 L 13.626953,7.833985 c 0,0 1.411637,-0.029503 2.886719,1.0742187 0,0 1.486328,2.6703733 1.486328,5.9609383 0,-0.01032 -0.866813,1.476619 -3.146484,1.548828 0,0 0.455942,-0.0363 0.146484,-0.417969 1.351298,-0.381664 1.041016,-1.625 1.041016,-1.625 -0.422924,0.278512 -0.826466,0.473322 -1.1875,0.607422 -0.515764,0.216619 -1.011277,0.352472 -1.496094,0.445312 -0.990263,0.18569 -1.898231,0.132694 -2.671875,-0.01172 -0.587968,-0.113468 -1.092699,-0.268001 -1.5156251,-0.44336 -0.2372497,-0.09284 -0.4940723,-0.205195 -0.7519531,-0.349609 -0.03095,-0.02062 -0.0628,-0.03211 -0.09375,-0.05274 -0.020638,-0.01036 -0.03069,-0.01953 -0.041016,-0.01953 C 8.0975254,14.447632 7.9941406,14.375 7.9941406,14.375 c 0,0 -0.3041772,1.23302 1.0058594,1.625 -0.3094581,0.391978 0.1074219,0.427734 0.1074219,0.427734 -2.2796718,-0.07221 -3.1445313,-1.558593 -3.1445313,-1.558593 0,-3.290565 1.484375,-5.9609379 1.484375,-5.9609379 C 8.9326625,7.8044717 10.335937,7.8339844 10.335938,7.8339844 Z M 10,12 c -0.5588129,0 -1,0.445455 -1,1 0,0.554546 0.4509904,1 1,1 0.558812,0 1,-0.445454 1,-1 0.0098,-0.554545 -0.441188,-1 -1,-1 z m 4,0 c -0.558812,0 -1,0.445455 -1,1 0,0.554546 0.450992,1 1,1 0.558814,0 1,-0.445454 1,-1 0,-0.554545 -0.450991,-1 -1,-1 z"
     id="path19" />
</svg>
