<?xml version="1.0" encoding="UTF-8"?>
<!-- Created with Inkscape (http://www.inkscape.org/) -->
<svg width="24" height="24" version="1.1" xmlns="http://www.w3.org/2000/svg" xmlns:cc="http://creativecommons.org/ns#" xmlns:dc="http://purl.org/dc/elements/1.1/" xmlns:rdf="http://www.w3.org/1999/02/22-rdf-syntax-ns#">
	<defs>
		<radialGradient id="b" cx="350.73" cy="-98.603" r="7.254" gradientTransform="matrix(-2.0354 0 0 -1.9697 719.04 -187.59)" gradientUnits="userSpaceOnUse">
			<stop stop-color="#213851" stop-opacity=".9059" offset="0"/>
			<stop stop-color="#27303a" stop-opacity="0" offset="1"/>
		</radialGradient>
		<radialGradient id="a" cx="24.132" cy="5.9669" r="8" gradientTransform="matrix(-1.8841 0 0 -1.8841 60.788 18.156)" gradientUnits="userSpaceOnUse">
			<stop stop-color="#ffffff" stop-opacity=".74858" offset="0"/>
			<stop stop-color="#ffffff" stop-opacity=".60511" offset="1"/>
		</radialGradient>
	</defs>
	<metadata>
		<rdf:RDF>
			<cc:Work rdf:about="">
				<dc:format>image/svg+xml</dc:format>
				<dc:type rdf:resource="http://purl.org/dc/dcmitype/StillImage"/>
				<dc:title/>
			</cc:Work>
		</rdf:RDF>
	</metadata>
	<path d="m19.455 16.092-0.0034-3.4656-0.55411 1.9361-0.55339-1.9273-0.0033 2.6308-1.8068-1.3551 0.13696-0.10269-0.0062-6.7454 1.7174 0.00447 0.51481 1.8033 0.51556-1.8057 2.5407 0.00826-0.83371 0.62295-0.0014 9.6497zm-16.564-8.3976-0.84357-0.63188 4.7548 0.00644 0.54421 0.41573 4.49e-4 6.3212 0.14417 0.10443-4.599 3.4509zm2.7905 4.9316-0.0018-3.6481-0.12746-0.10409-0.98873 0.00483-0.00216 4.5874zm1.8057 0.98083-8.498e-4 -6.1228 0.55775-0.41797 3.3377-1.849e-4 0.55664 0.41969 2e-3 7.0849-1.5785 1.1872zm2.6437-4.7366-0.84181 0.00588-0.1315 0.10104 0.00188 3.6506 1.1057 0.82932 3e-3 -4.4779zm1.9527 5.7069-0.0041-7.0948 0.55592-0.41753 3.3421 0.00319 0.55947 0.418-0.0039 6.1086-2.8595 2.1618zm2.7803-1.9519-3.55e-4 -3.6496-0.14067-0.1075-0.84049 0.00271-0.13513 0.10405 0.0083 4.4707z" fill="url(#a)" fill-opacity=".99858" style="font-variant-east_asian:normal;paint-order:normal"/>
	<path d="m2.0488 6.0625a1.0001 1.0001 0 0 0-0.60156 1.8008l0.44336 0.33203 0.00195 9.166a1.0001 1.0001 0 0 0 1.5996 0.79883l4.2012-3.1504 2.0684 1.5488a1.0001 1.0001 0 0 0 1.2012-2e-3l1.0488-0.78906 1.0664 0.79102a1.0001 1.0001 0 0 0 1.1992-0.0039l2.0488-1.5488 1.4141 1.0605a1.0001 1.0001 0 0 0 0.72852 0.18945 1.0001 1.0001 0 0 0 0.38477 0.63477l1.6621 1.2539a1.0001 1.0001 0 0 0 1.6016-0.79883l2e-3 -9.1484 0.43164-0.32422a1.0001 1.0001 0 0 0-0.59375-1.8008l-2.541-0.00781a1.0001 1.0001 0 0 0-0.52153 0.14652 1.0001 1.0001 0 0 0-0.50976-0.14453l-1.7188-0.0039062a1.0001 1.0001 0 0 0-0.34961 0.064453 1.0001 1.0001 0 0 0-0.33789-0.058594l-3.3418-0.00391a1.0001 1.0001 0 0 0-0.60156 0.20118l-0.02734 0.019531-0.02344-0.017578a1.0001 1.0001 0 0 0-0.60352-0.20117h-3.3379a1.0001 1.0001 0 0 0-0.59961 0.19922l-0.023437 0.017578-0.011719-0.00977a1.0001 1.0001 0 0 0-0.60547-0.20507zm-0.00195 1 4.7559 0.00586 0.54297 0.41602v6.3223l0.14453 0.10352-4.5977 3.4512-0.00195-9.668zm14.617 0 1.7168 0.00391 0.51562 1.8047 0.51562-1.8066 2.541 0.00781-0.83398 0.62305-2e-3 9.6504-1.6621-1.2539-0.0039-3.4648-0.55469 1.9355-0.55273-1.9277-0.0039 2.6309-1.8066-1.3555 0.13672-0.10156zm-4.0293 0.00195 3.3418 0.00391 0.56055 0.41797-0.0039 6.1074-2.8594 2.1621-1.5898-1.1797-0.0039-7.0938zm-4.5918 0.00195h3.3379l0.55664 0.41992 2e-3 7.084-1.5781 1.1875-2.875-2.1504v-6.123zm6.6797 1.8008-0.83984 0.00391-0.13672 0.10352 0.0098 4.4707 1.1074-0.82031v-3.6504zm-4.5918 0.00195-0.8418 0.00781-0.13086 0.099609 0.00195 3.6504 1.1055 0.83008 2e-3 -4.4785zm-4.5781 0.0039156-0.99023 0.0058593-0.0019531 4.5879 1.1211-0.8418-0.0019531-3.6465z" color="#000000" color-rendering="auto" dominant-baseline="auto" fill="#090d11" fill-opacity=".76621" image-rendering="auto" shape-rendering="auto" solid-color="#000000" style="font-feature-settings:normal;font-variant-alternates:normal;font-variant-caps:normal;font-variant-ligatures:normal;font-variant-numeric:normal;font-variant-position:normal;isolation:auto;mix-blend-mode:normal;paint-order:normal;shape-padding:0;text-decoration-color:#000000;text-decoration-line:none;text-decoration-style:solid;text-indent:0;text-orientation:mixed;text-transform:none;white-space:normal"/>
	<path d="m2.0488 6.0625a1.0001 1.0001 0 0 0-0.60156 1.8008l0.44336 0.33203 0.0019531 9.166a1.0001 1.0001 0 0 0 1.5996 0.79883l4.2012-3.1504 2.0684 1.5488a1.0001 1.0001 0 0 0 1.2012-0.001953l1.0488-0.78906 1.0664 0.79102a1.0001 1.0001 0 0 0 1.1992-0.003906l2.0488-1.5488 1.4141 1.0605a1.0001 1.0001 0 0 0 0.72852 0.18945 1.0001 1.0001 0 0 0 0.38477 0.63477l1.6621 1.2539a1.0001 1.0001 0 0 0 1.6016-0.79883l0.001953-9.1484 0.43164-0.32422a1.0001 1.0001 0 0 0-0.59375-1.8008l-2.541-0.0078125a1.0001 1.0001 0 0 0-0.52148 0.14648 1.0001 1.0001 0 0 0-0.50976-0.14453l-1.7188-0.0039062a1.0001 1.0001 0 0 0-0.34961 0.064453 1.0001 1.0001 0 0 0-0.33789-0.058594l-3.3418-0.0039063a1.0001 1.0001 0 0 0-0.60156 0.20117l-0.027344 0.019531-0.023437-0.017578a1.0001 1.0001 0 0 0-0.60352-0.20117h-3.3379a1.0001 1.0001 0 0 0-0.59961 0.19922l-0.023438 0.017578-0.011719-0.0097656a1.0001 1.0001 0 0 0-0.60547-0.20508l-4.7539-0.0058594zm-0.0019531 1 4.7559 0.0058594 0.54297 0.41602v6.3223l0.14453 0.10352-4.5977 3.4512-0.0019531-9.668-0.84375-0.63086zm14.617 0 1.7168 0.0039062 0.51562 1.8047 0.51562-1.8066 2.541 0.0078125-0.83398 0.62305-0.001953 9.6504-1.6621-1.2539-0.003906-3.4648-0.55469 1.9355-0.55273-1.9277-0.003906 2.6309-1.8066-1.3555 0.13672-0.10156-0.00586-6.7461zm-4.0293 0.0019531 3.3418 0.0039063 0.56055 0.41797-0.003906 6.1074-2.8594 2.1621-1.5898-1.1797-0.003906-7.0938 0.55469-0.41797zm-4.5918 0.0019531h3.3379l0.55664 0.41992 0.001953 7.084-1.5781 1.1875-2.875-2.1504v-6.123l0.55664-0.41797zm6.6797 1.8008-0.83984 0.0039063-0.13672 0.10352 0.009765 4.4707 1.1074-0.82031v-3.6504l-0.14062-0.10742zm-4.5918 0.0019531-0.8418 0.0078125-0.13086 0.099609 0.0019531 3.6504 1.1055 0.83008 0.001953-4.4785-0.13672-0.10938zm-4.5781 0.0039063-0.99023 0.0058593-0.0019531 4.5879 1.1211-0.8418-0.0019531-3.6465-0.12695-0.10547z" color="#000000" color-rendering="auto" dominant-baseline="auto" fill="url(#b)" fill-opacity=".7533" image-rendering="auto" shape-rendering="auto" solid-color="#000000" style="font-feature-settings:normal;font-variant-alternates:normal;font-variant-caps:normal;font-variant-east_asian:normal;font-variant-ligatures:normal;font-variant-numeric:normal;font-variant-position:normal;isolation:auto;mix-blend-mode:normal;paint-order:normal;shape-padding:0;text-decoration-color:#000000;text-decoration-line:none;text-decoration-style:solid;text-indent:0;text-orientation:mixed;text-transform:none;white-space:normal"/>
</svg>
