<?xml version="1.0" encoding="UTF-8"?>
<!-- Created with Inkscape (http://www.inkscape.org/) -->
<svg width="24" height="24" version="1.1" xmlns="http://www.w3.org/2000/svg" xmlns:cc="http://creativecommons.org/ns#" xmlns:dc="http://purl.org/dc/elements/1.1/" xmlns:rdf="http://www.w3.org/1999/02/22-rdf-syntax-ns#">
	<defs>
		<radialGradient id="b" cx="-9383.3" cy="5038.9" r="9" gradientTransform="matrix(2.1552 0 0 2.0806 20235 -10479)" gradientUnits="userSpaceOnUse">
			<stop stop-color="#213851" stop-opacity=".9059" offset="0"/>
			<stop stop-color="#27303a" stop-opacity="0" offset="1"/>
		</radialGradient>
		<radialGradient id="a" cx="7.0463" cy="4.0196" r="9.0713" gradientTransform="matrix(1.7826 0 0 1.7808 -.6704 -3.955)" gradientUnits="userSpaceOnUse">
			<stop stop-color="#ffffff" stop-opacity=".8252" offset="0"/>
			<stop stop-color="#ffffff" stop-opacity=".6051" offset="1"/>
		</radialGradient>
	</defs>
	<metadata>
		<rdf:RDF>
			<cc:Work rdf:about="">
				<dc:format>image/svg+xml</dc:format>
				<dc:type rdf:resource="http://purl.org/dc/dcmitype/StillImage"/>
				<dc:title/>
			</cc:Work>
		</rdf:RDF>
	</metadata>
	<path d="m5 3c-0.554 0-1 0.446-1 1v16c0 0.554 0.446 1 1 1h14c0.554 0 1-0.446 1-1v-16c0-0.554-0.446-1-1-1zm0.5 1h1c0.277 0 0.5 0.223 0.5 0.5s-0.223 0.5-0.5 0.5h-1c-0.277 0-0.5-0.223-0.5-0.5s0.223-0.5 0.5-0.5zm12 0h1c0.277 0 0.5 0.223 0.5 0.5s-0.223 0.5-0.5 0.5h-1c-0.277 0-0.5-0.223-0.5-0.5s0.223-0.5 0.5-0.5zm-12 3h1c0.277 0 0.5 0.223 0.5 0.5s-0.223 0.5-0.5 0.5h-1c-0.277 0-0.5-0.223-0.5-0.5s0.223-0.5 0.5-0.5zm7.5 0h3.8555s-2.5268 0.47751-2.9062 1.3086c-0.2861 0.62661 1.1156 1.1447 0.89258 1.7871-0.26748 0.77036-2.1186 0.77625-2.3848 1.5469-0.25194 0.72943 1.6404 1.289 1.416 2.0234-0.23642 0.77398-2.2908 0.88243-2.3984 1.668-0.10385 0.758 2.0078 1.666 2.0078 1.666h-5.5098zm4.5 0h1c0.277 0 0.5 0.223 0.5 0.5s-0.223 0.5-0.5 0.5h-1c-0.277 0-0.5-0.223-0.5-0.5s0.223-0.5 0.5-0.5zm-12 3h1c0.277 0 0.5 0.223 0.5 0.5s-0.223 0.5-0.5 0.5h-1c-0.277 0-0.5-0.223-0.5-0.5s0.223-0.5 0.5-0.5zm12 0h1c0.277 0 0.5 0.223 0.5 0.5s-0.223 0.5-0.5 0.5h-1c-0.277 0-0.5-0.223-0.5-0.5s0.223-0.5 0.5-0.5zm-12 3h1c0.277 0 0.5 0.223 0.5 0.5s-0.223 0.5-0.5 0.5h-1c-0.277 0-0.5-0.223-0.5-0.5s0.223-0.5 0.5-0.5zm12 0h1c0.277 0 0.5 0.223 0.5 0.5s-0.223 0.5-0.5 0.5h-1c-0.277 0-0.5-0.223-0.5-0.5s0.223-0.5 0.5-0.5zm-12 3h1c0.277 0 0.5 0.223 0.5 0.5s-0.223 0.5-0.5 0.5h-1c-0.277 0-0.5-0.223-0.5-0.5s0.223-0.5 0.5-0.5zm12 0h1c0.277 0 0.5 0.223 0.5 0.5s-0.223 0.5-0.5 0.5h-1c-0.277 0-0.5-0.223-0.5-0.5s0.223-0.5 0.5-0.5zm-12 3h1c0.277 0 0.5 0.223 0.5 0.5s-0.223 0.5-0.5 0.5h-1c-0.277 0-0.5-0.223-0.5-0.5s0.223-0.5 0.5-0.5zm12 0h1c0.277 0 0.5 0.223 0.5 0.5s-0.223 0.5-0.5 0.5h-1c-0.277 0-0.5-0.223-0.5-0.5s0.223-0.5 0.5-0.5z" fill="#090d11" fill-opacity=".76621" style="paint-order:normal"/>
	<path d="m5 3c-0.554 0-1 0.446-1 1v16c0 0.554 0.446 1 1 1h14c0.554 0 1-0.446 1-1v-16c0-0.554-0.446-1-1-1zm0.5 1h1c0.277 0 0.5 0.223 0.5 0.5s-0.223 0.5-0.5 0.5h-1c-0.277 0-0.5-0.223-0.5-0.5s0.223-0.5 0.5-0.5zm12 0h1c0.277 0 0.5 0.223 0.5 0.5s-0.223 0.5-0.5 0.5h-1c-0.277 0-0.5-0.223-0.5-0.5s0.223-0.5 0.5-0.5zm-12 3h1c0.277 0 0.5 0.223 0.5 0.5s-0.223 0.5-0.5 0.5h-1c-0.277 0-0.5-0.223-0.5-0.5s0.223-0.5 0.5-0.5zm7.5 0h3.8555s-2.5268 0.47751-2.9062 1.3086c-0.2861 0.62661 1.1156 1.1447 0.89258 1.7871-0.26748 0.77036-2.1186 0.77625-2.3848 1.5469-0.25194 0.72943 1.6404 1.289 1.416 2.0234-0.23642 0.77398-2.2908 0.88243-2.3984 1.668-0.10385 0.758 2.0078 1.666 2.0078 1.666h-5.5098zm4.5 0h1c0.277 0 0.5 0.223 0.5 0.5s-0.223 0.5-0.5 0.5h-1c-0.277 0-0.5-0.223-0.5-0.5s0.223-0.5 0.5-0.5zm-12 3h1c0.277 0 0.5 0.223 0.5 0.5s-0.223 0.5-0.5 0.5h-1c-0.277 0-0.5-0.223-0.5-0.5s0.223-0.5 0.5-0.5zm12 0h1c0.277 0 0.5 0.223 0.5 0.5s-0.223 0.5-0.5 0.5h-1c-0.277 0-0.5-0.223-0.5-0.5s0.223-0.5 0.5-0.5zm-12 3h1c0.277 0 0.5 0.223 0.5 0.5s-0.223 0.5-0.5 0.5h-1c-0.277 0-0.5-0.223-0.5-0.5s0.223-0.5 0.5-0.5zm12 0h1c0.277 0 0.5 0.223 0.5 0.5s-0.223 0.5-0.5 0.5h-1c-0.277 0-0.5-0.223-0.5-0.5s0.223-0.5 0.5-0.5zm-12 3h1c0.277 0 0.5 0.223 0.5 0.5s-0.223 0.5-0.5 0.5h-1c-0.277 0-0.5-0.223-0.5-0.5s0.223-0.5 0.5-0.5zm12 0h1c0.277 0 0.5 0.223 0.5 0.5s-0.223 0.5-0.5 0.5h-1c-0.277 0-0.5-0.223-0.5-0.5s0.223-0.5 0.5-0.5zm-12 3h1c0.277 0 0.5 0.223 0.5 0.5s-0.223 0.5-0.5 0.5h-1c-0.277 0-0.5-0.223-0.5-0.5s0.223-0.5 0.5-0.5zm12 0h1c0.277 0 0.5 0.223 0.5 0.5s-0.223 0.5-0.5 0.5h-1c-0.277 0-0.5-0.223-0.5-0.5s0.223-0.5 0.5-0.5z" fill="url(#b)" style="font-variant-east_asian:normal;paint-order:normal"/>
	<path d="m5 2c-1.0907 0-2 0.9093-2 2v16c0 1.0907 0.9093 2 2 2h14c1.0907 0 2-0.9093 2-2v-16c0-1.0907-0.9093-2-2-2h-14zm0 1h14c0.554 0 1 0.446 1 1v16c0 0.554-0.446 1-1 1h-14c-0.554 0-1-0.446-1-1v-16c0-0.554 0.446-1 1-1zm0.5 1c-0.277 0-0.5 0.223-0.5 0.5s0.223 0.5 0.5 0.5h1c0.277 0 0.5-0.223 0.5-0.5s-0.223-0.5-0.5-0.5h-1zm12 0c-0.277 0-0.5 0.223-0.5 0.5s0.223 0.5 0.5 0.5h1c0.277 0 0.5-0.223 0.5-0.5s-0.223-0.5-0.5-0.5h-1zm-12 3c-0.277 0-0.5 0.223-0.5 0.5s0.223 0.5 0.5 0.5h1c0.277 0 0.5-0.223 0.5-0.5s-0.223-0.5-0.5-0.5h-1zm7.5 0-5.0273 10h5.5098s-2.1117-0.90801-2.0078-1.666c0.10763-0.78554 2.162-0.89399 2.3984-1.668 0.22435-0.73447-1.668-1.294-1.416-2.0234 0.26617-0.77063 2.1173-0.77651 2.3848-1.5469 0.22306-0.64243-1.1787-1.1605-0.89258-1.7871 0.37947-0.83108 2.9062-1.3086 2.9062-1.3086h-3.8555zm4.5 0c-0.277 0-0.5 0.223-0.5 0.5s0.223 0.5 0.5 0.5h1c0.277 0 0.5-0.223 0.5-0.5s-0.223-0.5-0.5-0.5h-1zm-12 3c-0.277 0-0.5 0.223-0.5 0.5s0.223 0.5 0.5 0.5h1c0.277 0 0.5-0.223 0.5-0.5s-0.223-0.5-0.5-0.5h-1zm12 0c-0.277 0-0.5 0.223-0.5 0.5s0.223 0.5 0.5 0.5h1c0.277 0 0.5-0.223 0.5-0.5s-0.223-0.5-0.5-0.5h-1zm-12 3c-0.277 0-0.5 0.223-0.5 0.5s0.223 0.5 0.5 0.5h1c0.277 0 0.5-0.223 0.5-0.5s-0.223-0.5-0.5-0.5h-1zm12 0c-0.277 0-0.5 0.223-0.5 0.5s0.223 0.5 0.5 0.5h1c0.277 0 0.5-0.223 0.5-0.5s-0.223-0.5-0.5-0.5h-1zm-12 3c-0.277 0-0.5 0.223-0.5 0.5s0.223 0.5 0.5 0.5h1c0.277 0 0.5-0.223 0.5-0.5s-0.223-0.5-0.5-0.5h-1zm12 0c-0.277 0-0.5 0.223-0.5 0.5s0.223 0.5 0.5 0.5h1c0.277 0 0.5-0.223 0.5-0.5s-0.223-0.5-0.5-0.5h-1zm-12 3c-0.277 0-0.5 0.223-0.5 0.5s0.223 0.5 0.5 0.5h1c0.277 0 0.5-0.223 0.5-0.5s-0.223-0.5-0.5-0.5h-1zm12 0c-0.277 0-0.5 0.223-0.5 0.5s0.223 0.5 0.5 0.5h1c0.277 0 0.5-0.223 0.5-0.5s-0.223-0.5-0.5-0.5h-1z" color="#000000" color-rendering="auto" dominant-baseline="auto" fill="url(#a)" image-rendering="auto" shape-rendering="auto" solid-color="#000000" style="font-feature-settings:normal;font-variant-alternates:normal;font-variant-caps:normal;font-variant-east_asian:normal;font-variant-ligatures:normal;font-variant-numeric:normal;font-variant-position:normal;isolation:auto;mix-blend-mode:normal;paint-order:normal;shape-padding:0;text-decoration-color:#000000;text-decoration-line:none;text-decoration-style:solid;text-indent:0;text-orientation:mixed;text-transform:none;white-space:normal"/>
</svg>
