<?xml version="1.0" encoding="UTF-8" standalone="no"?>
<svg
   xmlns:dc="http://purl.org/dc/elements/1.1/"
   xmlns:cc="http://creativecommons.org/ns#"
   xmlns:rdf="http://www.w3.org/1999/02/22-rdf-syntax-ns#"
   xmlns:svg="http://www.w3.org/2000/svg"
   xmlns="http://www.w3.org/2000/svg"
   id="a"
   width="24"
   height="24"
   version="1.1">
  <metadata
     id="d">
    <rdf:RDF>
      <cc:Work
         rdf:about="">
        <dc:format>image/svg+xml</dc:format>
        <dc:type
           rdf:resource="http://purl.org/dc/dcmitype/StillImage" />
        <dc:title></dc:title>
      </cc:Work>
    </rdf:RDF>
  </metadata>
  <defs
     id="defs4">
    <style
       id="current-color-scheme"
       type="text/css">.ColorScheme-Text {color:#090d11;}.ColorScheme-Background{color:#ffffff;}</style>
  </defs>
  <path
     style="fill:currentColor;fill-opacity:0.75"
     class="ColorScheme-Text"
     d="M 12,2 10.714844,6.2851562 11.0625,5.1464844 C 10.493472,7.5336701 11.608292,8.7885312 11.294922,11.830078 11.425889,8.8144054 10.423781,7.5748491 10.714844,6.2851562 L 6.1835938,4.4003906 8.1601562,7.1679688 C 8.7688079,7.3763045 9.834251,7.8150059 10.119141,9.1269531 9.839318,8.4360503 8.9774964,7.6519737 8.1425781,7.7148438 L 3,8.25 C 5.7373765,8.6911543 9.3444096,9.6991158 10.714844,12 H 11 c -1.662,0 -3,1.338 -3,3 v 3 c 0,1.662 1.338,3 3,3 h 2 c 1.662,0 3,-1.338 3,-3 v -3 c 0,-1.662 -1.338,-3 -3,-3 h 0.285156 C 14.655588,9.6991158 18.262623,8.6911543 21,8.25 L 15.857422,7.7148438 c -0.834918,-0.062871 -1.69674,0.7212065 -1.976563,1.4121093 0.28489,-1.3119472 1.350334,-1.7506486 1.958985,-1.9589843 l 1.976562,-2.7675782 -4.53125,1.8847656 c 0.291062,1.289693 -0.711045,2.5292492 -0.580078,5.5449218 -0.31337,-3.0415468 0.801449,-4.2964079 0.232422,-6.6835936 l 0.347656,1.1386718 z M 11.5,13 A 0.5,0.5 0 0 1 12,13.5 0.5,0.5 0 0 1 11.5,14 0.5,0.5 0 0 1 11,13.5 0.5,0.5 0 0 1 11.5,13 Z m 2,0 A 0.5,0.5 0 0 1 14,13.5 0.5,0.5 0 0 1 13.5,14 0.5,0.5 0 0 1 13,13.5 0.5,0.5 0 0 1 13.5,13 Z m -3,1 A 0.5,0.5 0 0 1 11,14.5 0.5,0.5 0 0 1 10.5,15 0.5,0.5 0 0 1 10,14.5 0.5,0.5 0 0 1 10.5,14 Z m 2,0 A 0.5,0.5 0 0 1 13,14.5 0.5,0.5 0 0 1 12.5,15 0.5,0.5 0 0 1 12,14.5 0.5,0.5 0 0 1 12.5,14 Z m 2,0 A 0.5,0.5 0 0 1 15,14.5 0.5,0.5 0 0 1 14.5,15 0.5,0.5 0 0 1 14,14.5 0.5,0.5 0 0 1 14.5,14 Z m -5,1 A 0.5,0.5 0 0 1 10,15.5 0.5,0.5 0 0 1 9.5,16 0.5,0.5 0 0 1 9,15.5 0.5,0.5 0 0 1 9.5,15 Z m 2,0 A 0.5,0.5 0 0 1 12,15.5 0.5,0.5 0 0 1 11.5,16 0.5,0.5 0 0 1 11,15.5 0.5,0.5 0 0 1 11.5,15 Z m 2,0 A 0.5,0.5 0 0 1 14,15.5 0.5,0.5 0 0 1 13.5,16 0.5,0.5 0 0 1 13,15.5 0.5,0.5 0 0 1 13.5,15 Z m -3,1 A 0.5,0.5 0 0 1 11,16.5 0.5,0.5 0 0 1 10.5,17 0.5,0.5 0 0 1 10,16.5 0.5,0.5 0 0 1 10.5,16 Z m 2,0 A 0.5,0.5 0 0 1 13,16.5 0.5,0.5 0 0 1 12.5,17 0.5,0.5 0 0 1 12,16.5 0.5,0.5 0 0 1 12.5,16 Z m 2,0 A 0.5,0.5 0 0 1 15,16.5 0.5,0.5 0 0 1 14.5,17 0.5,0.5 0 0 1 14,16.5 0.5,0.5 0 0 1 14.5,16 Z m -5,1 A 0.5,0.5 0 0 1 10,17.5 0.5,0.5 0 0 1 9.5,18 0.5,0.5 0 0 1 9,17.5 0.5,0.5 0 0 1 9.5,17 Z m 2,0 A 0.5,0.5 0 0 1 12,17.5 0.5,0.5 0 0 1 11.5,18 0.5,0.5 0 0 1 11,17.5 0.5,0.5 0 0 1 11.5,17 Z m 2,0 A 0.5,0.5 0 0 1 14,17.5 0.5,0.5 0 0 1 13.5,18 0.5,0.5 0 0 1 13,17.5 0.5,0.5 0 0 1 13.5,17 Z m -3,1 A 0.5,0.5 0 0 1 11,18.5 0.5,0.5 0 0 1 10.5,19 0.5,0.5 0 0 1 10,18.5 0.5,0.5 0 0 1 10.5,18 Z m 2,0 A 0.5,0.5 0 0 1 13,18.5 0.5,0.5 0 0 1 12.5,19 0.5,0.5 0 0 1 12,18.5 0.5,0.5 0 0 1 12.5,18 Z m 2,0 A 0.5,0.5 0 0 1 15,18.5 0.5,0.5 0 0 1 14.5,19 0.5,0.5 0 0 1 14,18.5 0.5,0.5 0 0 1 14.5,18 Z m -3,1 A 0.5,0.5 0 0 1 12,19.5 0.5,0.5 0 0 1 11.5,20 0.5,0.5 0 0 1 11,19.5 0.5,0.5 0 0 1 11.5,19 Z m 2,0 A 0.5,0.5 0 0 1 14,19.5 0.5,0.5 0 0 1 13.5,20 0.5,0.5 0 0 1 13,19.5 0.5,0.5 0 0 1 13.5,19 Z"
     id="path68" />
  <path
     id="c"
     style="fill:currentColor;fill-opacity:0.5"
     class="ColorScheme-Background"
     d="M 11.978516 1 A 1.0001 1.0001 0 0 0 11.042969 1.7128906 L 10.076172 4.9355469 L 6.5683594 3.4765625 A 1.0001 1.0001 0 0 0 5.3691406 4.9824219 L 6.7089844 6.859375 L 2.8964844 7.2558594 A 1.0001 1.0001 0 0 0 2.8417969 9.2363281 C 4.9883728 9.5822693 7.529954 10.400841 8.9882812 11.626953 C 7.8234096 12.328453 7 13.549462 7 15 L 7 18 C 7 20.198703 8.8012972 22 11 22 L 13 22 C 15.198703 22 17 20.198703 17 18 L 17 15 C 17 13.549462 16.176591 12.328453 15.011719 11.626953 C 16.470045 10.400842 19.011627 9.5822693 21.158203 9.2363281 A 1.0001 1.0001 0 0 0 21.103516 7.2558594 L 17.291016 6.859375 L 18.630859 4.9824219 A 1.0001 1.0001 0 0 0 17.431641 3.4765625 L 13.923828 4.9355469 L 12.957031 1.7128906 A 1.0001 1.0001 0 0 0 11.978516 1 z M 12 2 L 13.285156 6.2851562 L 17.816406 4.4003906 L 15.839844 7.1679688 C 15.231193 7.3763044 14.165749 7.8150059 13.880859 9.1269531 C 13.950815 8.9542274 14.056262 8.7751519 14.189453 8.6054688 C 14.589028 8.0964194 15.231233 7.6676905 15.857422 7.7148438 L 21 8.25 C 18.433709 8.6635822 15.103866 9.5757607 13.568359 11.583984 C 13.465992 11.717866 13.370808 11.856195 13.285156 12 L 13 12 C 14.662 12 16 13.338 16 15 L 16 15.654297 L 16 17.599609 L 16 18 C 16 19.662 14.662 21 13 21 L 11 21 C 9.338 21 8 19.662 8 18 L 8 17.599609 L 8 15.654297 L 8 15 C 8 14.79225 8.0207148 14.590176 8.0605469 14.394531 C 8.3393711 13.02502 9.54575 12 11 12 L 10.714844 12 C 9.3444094 9.6991158 5.7373765 8.6911543 3 8.25 L 8.1425781 7.7148438 C 8.9774964 7.6519737 9.8393176 8.4360503 10.119141 9.1269531 C 9.9054731 8.1429927 9.2533788 7.649727 8.6835938 7.3769531 C 8.4936655 7.2860285 8.3123192 7.2200527 8.1601562 7.1679688 L 6.1835938 4.4003906 L 10.714844 6.2851562 L 12 2 z M 10.714844 6.2851562 C 10.423781 7.5748491 11.425889 8.8144055 11.294922 11.830078 C 11.334093 11.449885 11.350944 11.097639 11.351562 10.767578 C 11.354655 9.1172751 10.95134 8.0216947 10.902344 6.7695312 C 10.892545 6.5190985 10.897289 6.2628549 10.921875 5.9941406 C 10.946461 5.7254264 10.991371 5.4448826 11.0625 5.1464844 L 10.714844 6.2851562 z M 13.285156 6.2851562 L 12.9375 5.1464844 C 13.222013 6.3400772 13.086374 7.2498807 12.917969 8.2421875 C 12.749564 9.2344944 12.548393 10.309305 12.705078 11.830078 C 12.574111 8.8144055 13.576218 7.5748492 13.285156 6.2851562 z M 11.5 13 A 0.5 0.5 0 0 0 11 13.5 A 0.5 0.5 0 0 0 11.5 14 A 0.5 0.5 0 0 0 12 13.5 A 0.5 0.5 0 0 0 11.5 13 z M 13.5 13 A 0.5 0.5 0 0 0 13 13.5 A 0.5 0.5 0 0 0 13.5 14 A 0.5 0.5 0 0 0 14 13.5 A 0.5 0.5 0 0 0 13.5 13 z M 10.5 14 A 0.5 0.5 0 0 0 10 14.5 A 0.5 0.5 0 0 0 10.5 15 A 0.5 0.5 0 0 0 11 14.5 A 0.5 0.5 0 0 0 10.5 14 z M 12.5 14 A 0.5 0.5 0 0 0 12 14.5 A 0.5 0.5 0 0 0 12.5 15 A 0.5 0.5 0 0 0 13 14.5 A 0.5 0.5 0 0 0 12.5 14 z M 14.5 14 A 0.5 0.5 0 0 0 14 14.5 A 0.5 0.5 0 0 0 14.5 15 A 0.5 0.5 0 0 0 15 14.5 A 0.5 0.5 0 0 0 14.5 14 z M 9.5 15 A 0.5 0.5 0 0 0 9 15.5 A 0.5 0.5 0 0 0 9.5 16 A 0.5 0.5 0 0 0 10 15.5 A 0.5 0.5 0 0 0 9.5 15 z M 11.5 15 A 0.5 0.5 0 0 0 11 15.5 A 0.5 0.5 0 0 0 11.5 16 A 0.5 0.5 0 0 0 12 15.5 A 0.5 0.5 0 0 0 11.5 15 z M 13.5 15 A 0.5 0.5 0 0 0 13 15.5 A 0.5 0.5 0 0 0 13.5 16 A 0.5 0.5 0 0 0 14 15.5 A 0.5 0.5 0 0 0 13.5 15 z M 10.5 16 A 0.5 0.5 0 0 0 10 16.5 A 0.5 0.5 0 0 0 10.5 17 A 0.5 0.5 0 0 0 11 16.5 A 0.5 0.5 0 0 0 10.5 16 z M 12.5 16 A 0.5 0.5 0 0 0 12 16.5 A 0.5 0.5 0 0 0 12.5 17 A 0.5 0.5 0 0 0 13 16.5 A 0.5 0.5 0 0 0 12.5 16 z M 14.5 16 A 0.5 0.5 0 0 0 14 16.5 A 0.5 0.5 0 0 0 14.5 17 A 0.5 0.5 0 0 0 15 16.5 A 0.5 0.5 0 0 0 14.5 16 z M 9.5 17 A 0.5 0.5 0 0 0 9 17.5 A 0.5 0.5 0 0 0 9.5 18 A 0.5 0.5 0 0 0 10 17.5 A 0.5 0.5 0 0 0 9.5 17 z M 11.5 17 A 0.5 0.5 0 0 0 11 17.5 A 0.5 0.5 0 0 0 11.5 18 A 0.5 0.5 0 0 0 12 17.5 A 0.5 0.5 0 0 0 11.5 17 z M 13.5 17 A 0.5 0.5 0 0 0 13 17.5 A 0.5 0.5 0 0 0 13.5 18 A 0.5 0.5 0 0 0 14 17.5 A 0.5 0.5 0 0 0 13.5 17 z M 10.5 18 A 0.5 0.5 0 0 0 10 18.5 A 0.5 0.5 0 0 0 10.5 19 A 0.5 0.5 0 0 0 11 18.5 A 0.5 0.5 0 0 0 10.5 18 z M 12.5 18 A 0.5 0.5 0 0 0 12 18.5 A 0.5 0.5 0 0 0 12.5 19 A 0.5 0.5 0 0 0 13 18.5 A 0.5 0.5 0 0 0 12.5 18 z M 14.5 18 A 0.5 0.5 0 0 0 14 18.5 A 0.5 0.5 0 0 0 14.5 19 A 0.5 0.5 0 0 0 15 18.5 A 0.5 0.5 0 0 0 14.5 18 z M 11.5 19 A 0.5 0.5 0 0 0 11 19.5 A 0.5 0.5 0 0 0 11.5 20 A 0.5 0.5 0 0 0 12 19.5 A 0.5 0.5 0 0 0 11.5 19 z M 13.5 19 A 0.5 0.5 0 0 0 13 19.5 A 0.5 0.5 0 0 0 13.5 20 A 0.5 0.5 0 0 0 14 19.5 A 0.5 0.5 0 0 0 13.5 19 z "
      />
</svg>
