<?xml version="1.0" encoding="UTF-8"?>
<svg id="g" width="24" height="24" version="1.1" xmlns="http://www.w3.org/2000/svg" xmlns:cc="http://creativecommons.org/ns#" xmlns:dc="http://purl.org/dc/elements/1.1/" xmlns:rdf="http://www.w3.org/1999/02/22-rdf-syntax-ns#">
	<metadata id="a">
		<rdf:RDF>
			<cc:Work rdf:about="">
				<dc:format>image/svg+xml</dc:format>
				<dc:type rdf:resource="http://purl.org/dc/dcmitype/StillImage"/>
			</cc:Work>
		</rdf:RDF>
	</metadata>
	<defs>
		<style id="current-color-scheme" type="text/css">.ColorScheme-Text {color:#090d11;}.ColorScheme-Background{color:#ffffff;}</style>
	</defs>
	<path class="ColorScheme-Text" d="m11.369 1.9941c-0.61452 0.85265-1.1847 1.6244-1.6254 2.3802l0.012376-0.21706c0.016026-0.25187-0.067298-0.49446-0.23432-0.68323-0.1668-0.18876-0.39573-0.30294-0.64627-0.31818l-1.1321-0.069064c-0.01869-0.00126-0.038171-0.00246-0.05673-0.00246-0.4967 0-0.909 0.38985-0.93975 0.88548l-0.071529 1.1321c-0.03009 0.51737 0.36618 0.9648 0.88302 0.99648l1.3196 0.081393 0.13566-0.10113c-0.041942 0.16935-0.077083 0.33963-0.098661 0.51304-0.083422 0.67091 0.029123 1.274 0.29351 1.7858 0.34192-0.11719 0.68647-0.22555 1.0409-0.29845 0.44652-0.091863 0.89894-0.14669 1.3542-0.16526 0.80443-0.032815 1.6156 0.06859 2.4196 0.26145 0.10554 0.025315 0.20822 0.072043 0.31325 0.10113 0.02002-0.044469 0.04647-0.084724 0.06413-0.13073 0.57066-1.487-0.21939-3.1346-1.7142-3.6307-0.54866-0.182-0.93468-0.22506-1.1987-0.21459-0.26723 0.010608-1.1128-0.18939-0.11839-2.3062zm2.982 6.2675c-0.24319 0.55196-0.66225 0.98717-1.1642 1.2752l1.7315 2.1311c0.24895 0.30502 0.20208 0.75661-0.10359 1.0064-0.08431 0.06893-0.18474 0.11853-0.29105 0.14306-0.05276 0.01225-0.10857 0.01974-0.1628 0.01974-0.18637 0-0.36061-0.07266-0.4933-0.19978l-0.48838 0.39958c-0.11757 0.09597-0.2652 0.148-0.41685 0.148-0.19923 0-0.3871-0.08742-0.51304-0.24172l-0.38231-0.47112c-0.2219-0.27174-0.1899-0.66918 0.06659-0.90275-0.08284-0.04056-0.15687-0.09896-0.21706-0.17266l-0.08879-0.10606c-0.22985-0.28142-0.18756-0.6977 0.09373-0.92742l0.05673-0.0444-0.33544-0.40945c-0.19359-0.010866-0.38735-0.037133-0.57963-0.09126-0.88115-0.24813-1.5223-0.76028-1.8721-1.4479-1.2896 0.44444-2.4799 1.1971-3.4853 2.2125-2.6705 2.6979-2.6688 5.6535-2.6688 8.0285v1.4331l1.0927-1.1593c0.20773 0.76146 0.47952 1.4966 0.88056 2.1557h1.3739c-0.67791-0.90696-1.1228-1.9848-1.3245-3.1448l1.5144-1.6057-0.79423 2.4962 1.4034-1.0236c2.4815-1.8059 5.4457-2.2206 8.808-1.2333 1.4578 0.4279 2.8747 0.02901 3.611-1.0162 0.02669-0.03787 0.03225-0.08445 0.05673-0.12333 0.08287 0.39818 0.1406 0.79711 0.1406 1.1987 0 1.2616-0.20663 2.9782-1.1124 4.4521h1.2999c0.62686-1.2618 0.95209-2.7727 0.95209-4.4521 0-1.6768-0.57988-3.3626-1.5934-4.8072-0.03142-0.04636-0.04549-0.09461-0.07893-0.1406-0.24138-0.3318-0.50917-0.64292-0.79422-0.93975-0.01599-0.01671-0.0258-0.03768-0.04193-0.05427-0.0531-0.05461-0.11608-0.09249-0.1702-0.14552-0.30228-0.2955-0.62466-0.56693-0.96195-0.81641-0.1244-0.092169-0.24688-0.18397-0.37492-0.26885-0.39856-0.26436-0.80847-0.50574-1.2357-0.69556-0.0066-0.0029-0.0132-0.00452-0.01974-0.0074-0.0971-0.043076-0.20001-0.066817-0.29844-0.10606-0.33741-0.13623-0.67626-0.25003-1.0187-0.34532zm-4.4767 9.9845c-0.77204 0-1.3985 0.62648-1.3985 1.3985 0 0.77202 0.62648 1.3985 1.3985 1.3985 0.77204 0 1.3961-0.62648 1.3961-1.3985 0-0.77201-0.62401-1.3985-1.3961-1.3985zm5.0761 0c-0.75403 0-1.364 0.61243-1.364 1.3664 0 0.75403 0.60996 1.364 1.364 1.364 0.75403 0 1.3664-0.60996 1.3664-1.364 0-0.75406-0.61243-1.3664-1.3664-1.3664z" style="fill-opacity:.75;fill:currentColor"/>
	<path class="ColorScheme-Background" d="m11.219 1.0059c-0.2654 0.040684-0.5033 0.18638-0.66016 0.4043-0.28675 0.39786-0.52121 0.774-0.78906 1.1562-0.2687-0.16632-0.51202-0.38861-0.83398-0.4082l-1.1309-0.070312 0.00586 0.00195c-0.022705-0.00153-0.061382-0.00586-0.12305-0.00586-1.0199 0-1.8765 0.80954-1.9395 1.8242l-0.070312 1.1309c-2.5e-6 0.0013-2.5e-6 0.0026 0 0.00391-0.061541 1.0581 0.75967 1.9868 1.8184 2.0527l0.53711 0.033203c0.008467 0.22537 0.064065 0.42976 0.10742 0.64453-1.1495 0.5064-2.2305 1.1823-3.1445 2.1055-2.9275 2.9575-2.959 6.3578-2.959 8.7324v1.4336c-2.405e-4 0.90591 1.1078 1.3454 1.7285 0.68555l0.035156-0.03711c0.12903 0.28806 0.18711 0.5905 0.35547 0.86719 0.18124 0.29805 0.50469 0.48012 0.85352 0.48047h1.375c0.092606-9.46e-4 0.18463-0.01475 0.27344-0.041016h2.7734c0.14389 0.02749 0.29212 0.04297 0.44336 0.04297 0.15124 0 0.29952-0.01543 0.44336-0.04297h8.1816c0.06104 0.01965 0.12383 0.03339 0.1875 0.04102h1.2988c0.37993 3.97e-4 0.72728-0.21452 0.89648-0.55469 0.70706-1.4233 1.0566-3.09 1.0566-4.8984 0-1.9019-0.65098-3.773-1.7656-5.3672 0.07158 0.10561 0.053 0.0392-0.09766-0.16797-0.27288-0.37509-0.57142-0.7206-0.88086-1.043 0.11289 0.11681 0.11358 0.10448-0.04687-0.060547-0.16749-0.17226-0.2404-0.21395-0.1875-0.16211h-2e-3c-0.33719-0.32963-0.69373-0.63196-1.0645-0.90625h-2e-3c-0.12095-0.089674-0.25636-0.19306-0.41592-0.29883-0.42809-0.28394-0.88496-0.55421-1.3828-0.77539-0.0013-6.539e-4 -0.0026-0.0013-0.0039-0.00195-0.0864-0.037963-0.06211-0.026629-0.01563-0.00586-0.20942-0.092906-0.32288-0.11679-0.33008-0.11914l-0.0039-0.00195c-0.086287-0.0348-0.17336-0.055725-0.25977-0.087896 0.20006-1.7347-0.75897-3.4527-2.4785-4.0234-0.42897-0.1423-0.72595-0.14886-1.0469-0.17969 0.014282-0.028548-0.051114-0.18033 0.31836-0.9668 0.20172-0.4284 0.075358-0.93955-0.30274-1.2246-0.21497-0.16171-0.48602-0.23-0.75195-0.18945zm0.15039 0.98828c-0.24861 0.52921-0.38306 0.93764-0.43945 1.2539v0.0019531c-0.09798 0.55207 0.03941 0.82158 0.21094 0.94727h2e-3c0.12233 0.088998 0.26251 0.10682 0.3457 0.10352 0.13203-0.00523 0.29409 0.00295 0.49219 0.035156 0.19809 0.032205 0.43075 0.088686 0.70508 0.17969 0.09039 0.030004 0.17861 0.063436 0.26367 0.10156 0.0032 0.00141 0.0066 0.00248 0.0098 0.00391 0.08165 0.03697 0.15988 0.079103 0.23633 0.12305 0.07288 0.041856 0.14298 0.087033 0.21094 0.13477 0.0062 0.00434 0.0134 0.00733 0.01953 0.011719l2e-3 0.00195c0.07269 0.052065 0.14232 0.10772 0.20898 0.16602 0.05053 0.044187 0.0976 0.091186 0.14453 0.13867 0.0158 0.016017 0.03345 0.030502 0.04883 0.046875 0.0038 0.00402 6e-3 0.00963 0.0098 0.013672 0.03786 0.040723 0.07413 0.082206 0.10938 0.125 0.02176 0.026475 0.04372 0.052855 0.06445 0.080078 0.04096 0.05366 0.07836 0.10964 0.11523 0.16602 0.0079 0.012107 0.01769 0.022931 0.02539 0.035156 0.0013 0.00198 0.0027 0.00387 0.0039 0.00586 0.04561 0.072541 0.08629 0.14825 0.125 0.22461 0.04015 0.079196 0.07692 0.15946 0.10938 0.24219 0.03228 0.082287 0.05962 0.16676 0.08398 0.25195 0.0243 0.084936 0.0444 0.17056 0.06055 0.25781 0.0162 0.087551 0.02745 0.17632 0.03516 0.26562 0.0077 0.089325 0.01085 0.17903 0.0098 0.26953-0.003448 0.2717-0.047222 0.54657-0.13496 0.81836-0.01569 0.048608-0.02833 0.09817-0.04687 0.14648-0.01766 0.046008-0.04443 0.08639-0.06445 0.13086-0.10504-0.029085-0.20697-0.076247-0.31251-0.10156-0.80407-0.19286-1.6155-0.29453-2.4199-0.26172-0.45522 0.018564-0.90699 0.0722-1.3535 0.16406-0.08427 0.017334-0.16675 0.041515-0.25 0.0625-0.010569 0.00267-0.020692 0.00706-0.03125 0.00977-0.11879 0.030446-0.23799 0.060662-0.35547 0.095703-0.00394 0.00117-0.00778 0.00273-0.011719 0.00391-0.13138 0.04059-0.26236 0.082315-0.39258 0.12695-0.1322-0.25592-0.22659-0.53342-0.27734-0.83203-0.025555-0.14922-0.039886-0.30407-0.042969-0.46289-0.002951-0.15888 0.004535-0.32251 0.025391-0.49023 0.021578-0.1734 0.057667-0.34432 0.099609-0.51367l-0.13477 0.10156-1.3203-0.082031c-0.12858-0.0078792-0.25043-0.041686-0.35938-0.095703h-0.00195c-0.10984-0.054721-0.20501-0.12994-0.28516-0.2207-0.039618-0.044707-0.076783-0.093023-0.10742-0.14453v-0.00195c-0.030823-0.052016-0.055684-0.10649-0.076172-0.16407-0.040994-0.1152-0.060257-0.2398-0.052734-0.36914l0.070313-1.1309c0.0038-0.061305 0.014381-0.12216 0.029297-0.17969v-0.00195c0.015186-0.058097 0.035177-0.1129 0.060546-0.16602 0.050894-0.10636 0.12232-0.20139 0.20703-0.28125 0.16901-0.15942 0.39618-0.25781 0.64453-0.25781 0.018559 0 0.037951 6.931e-4 0.056641 0.00195l1.1309 0.070316c0.25054 0.015243 0.47969 0.1296 0.64648 0.31836 0.041757 0.047193 0.078326 0.097166 0.10938 0.15039 0.062108 0.10652 0.1028 0.22537 0.11914 0.34766 0.00796 0.060502 0.00982 0.12324 0.00586 0.18555l-0.011719 0.2168c0.10992-0.18849 0.22882-0.37883 0.35352-0.57031v-0.00195c0.37511-0.57589 0.81059-1.1691 1.2715-1.8086zm2.9824 6.2676c0.34241 0.095283 0.68017 0.20948 1.0176 0.3457 0.09843 0.039247 0.20173 0.062393 0.29883 0.10547 0.0065 0.00288 0.01293 0.00491 0.01953 0.00781 0.10496 0.046631 0.20954 0.09796 0.3125 0.15039 0.0018 9.265e-4 4e-3 0.00102 0.0059 0.00195 0.1302 0.066446 0.25745 0.13872 0.38477 0.21289 0.17996 0.10435 0.35851 0.21421 0.5332 0.33008 0.12804 0.084877 0.2506 0.17736 0.375 0.26953 0.33728 0.24948 0.65866 0.5209 0.96094 0.81641 0.05411 0.05303 0.11878 0.08992 0.17188 0.14453 0.01613 0.01659 0.02502 0.03798 0.04102 0.05469 0.28504 0.29682 0.55354 0.60765 0.79492 0.93945 0.03344 0.04598 0.0467 0.09427 0.07813 0.14062 0.25337 0.36115 0.4789 0.73761 0.67578 1.125 0.09846 0.19367 0.18995 0.38914 0.27344 0.58789 0.16724 0.3981 0.30448 0.80414 0.4082 1.2168 0.05182 0.20601 0.09379 0.41291 0.12891 0.62109 0.03526 0.20883 0.06219 0.41693 0.08008 0.62695 0.01784 0.2094 0.02734 0.4193 0.02734 0.62891 0 0.20832-0.0056 0.41419-0.01563 0.61719-9.4e-5 0.0019 9.5e-5 0.0039 0 0.0059-0.01001 0.20098-0.0252 0.3983-0.04492 0.59375-0.01731 0.17231-0.03967 0.34198-0.06445 0.50976-0.0036 0.02444-6e-3 0.04988-0.0098 0.07422-6.96e-4 0.0045-0.0013 0.0092-2e-3 0.01367-0.05909 0.37864-0.13746 0.74418-0.23438 1.0977-0.03885 0.14172-0.0821 0.28057-0.12695 0.41797-0.01158 0.03544-0.02123 0.07227-0.0332 0.10742-0.0026 0.0077-0.0052 0.01574-0.0078 0.02344-0.11262 0.32779-0.24369 0.64243-0.39062 0.94336-0.0032 0.0065-0.0066 0.01305-0.0098 0.01953-0.0047 0.0096-0.0089 0.01973-0.01367 0.0293h-1.2988c0.90578-1.4739 1.1113-3.1916 1.1113-4.4531 0-0.40163-0.05776-0.79908-0.14062-1.1973-0.02448 0.03888-0.02995 0.08518-0.05664 0.12305-0.73638 1.0452-2.1515 1.4435-3.6094 1.0156-3.3623-0.98736-6.3271-0.57152-8.8086 1.2344l-1.1836 0.86324-0.2207 0.16016 0.2207-0.69336 0.57422-1.8027-0.57422 0.60938-0.93945 0.99609c0.020622 0.11859 0.044552 0.2368 0.070312 0.35352 0.015477 0.07013 0.031508 0.13958 0.048828 0.20898 0.015409 0.06195 0.03197 0.1242 0.048828 0.18555 0.023799 0.08623 0.0495 0.17089 0.076172 0.25586 0.00247 0.0079 0.00532 0.01558 0.00781 0.02344 0.031989 0.10077 0.063597 0.20192 0.099609 0.30078 0.00982 0.02695 0.021134 0.05327 0.03125 0.08008 0.069619 0.18449 0.14491 0.36592 0.22852 0.54297 0.00286 6e-3 0.00689 0.01154 0.00977 0.01758 0.048276 0.10151 0.099511 0.20195 0.15234 0.30078 0.053245 0.0996 0.10818 0.1982 0.16602 0.29492 0.11924 0.19941 0.24587 0.39425 0.38477 0.58008h-1.375c-0.10026-0.16478-0.19222-0.33432-0.27734-0.50782-0.25545-0.52066-0.44772-1.0773-0.60352-1.6484l-1.0918 1.1602v-1.4336c0-0.29688 7.116e-4 -0.60261 0.00586-0.91602 0.00517-0.31339 0.01437-0.63432 0.035156-0.96094 0.020746-0.32665 0.052813-0.65948 0.099609-0.99609 0.023423-0.16829 0.050135-0.33765 0.082031-0.50781 0.06374-0.34037 0.14649-0.68388 0.25195-1.0293 0.052759-0.17268 0.11063-0.3462 0.17578-0.51953 0.13025-0.34671 0.28696-0.69419 0.47461-1.041 0.18741-0.34638 0.40703-0.69192 0.66211-1.0352v-2e-3c0.2555-0.34362 0.54705-0.68421 0.88086-1.0214 0.25134-0.25386 0.51389-0.4906 0.78711-0.71094 0.13661-0.11017 0.2764-0.21684 0.41797-0.31836 0.1415-0.1015 0.28553-0.19835 0.43164-0.29102 0.29235-0.18537 0.59359-0.35299 0.90234-0.50195 0.30865-0.14893 0.62486-0.27952 0.94727-0.39062 0.045617 0.089665 0.096933 0.17626 0.15234 0.25977 0.012206 0.018284 0.026386 0.034764 0.039063 0.052734 0.04839 0.068596 0.09723 0.13529 0.15234 0.19922 0.067649 0.078468 0.14133 0.15342 0.21875 0.22461 0.077417 0.07119 0.15931 0.13948 0.24609 0.20313v0.00195c0.30014 0.21957 0.65416 0.39283 1.0625 0.50781 0.19228 0.054126 0.38649 0.080931 0.58008 0.091797l0.33594 0.4082-0.05664 0.04492c-0.28129 0.22973-0.3236 0.64632-0.09375 0.92774l0.08789 0.10547c0.06019 0.0737 0.13396 0.13132 0.2168 0.17188-0.25649 0.23357-0.2883 0.63255-0.06641 0.9043l0.38281 0.4707c0.12593 0.1543 0.31444 0.24219 0.51367 0.24219 0.15164 0 0.29844-0.05247 0.41602-0.14844l0.48828-0.40039c0.13269 0.12712 0.30777 0.20117 0.49414 0.20117 0.05423 0 0.10935-0.0092 0.16211-0.02149 0.10631-0.02453 0.2067-0.07365 0.29102-0.14258 0.30568-0.24974 0.35246-0.70084 0.10352-1.0059l-1.7305-2.1308c0.50196-0.28807 0.92087-0.72343 1.1641-1.2754zm-4.4766 9.9844c0.77209 0 1.3965 0.62642 1.3965 1.3984 0 0.77202-0.62444 1.3984-1.3965 1.3984-0.77201 0-1.3984-0.62642-1.3984-1.3984 0-0.77201 0.6264-1.3984 1.3984-1.3984zm5.0762 0c0.75399 0 1.3652 0.61313 1.3652 1.3672 0 0.75406-0.6112 1.3633-1.3652 1.3633-0.75406 0-1.3652-0.60925-1.3652-1.3633-2e-6 -0.75399 0.6112-1.3672 1.3652-1.3672z" style="fill-opacity:.5;fill:currentColor"/>
</svg>
