<?xml version="1.0" encoding="UTF-8"?>
<svg id="d" width="24" height="24" version="1.1" xmlns="http://www.w3.org/2000/svg" xmlns:cc="http://creativecommons.org/ns#" xmlns:dc="http://purl.org/dc/elements/1.1/" xmlns:rdf="http://www.w3.org/1999/02/22-rdf-syntax-ns#">
	<metadata id="a">
		<rdf:RDF>
			<cc:Work rdf:about="">
				<dc:format>image/svg+xml</dc:format>
				<dc:type rdf:resource="http://purl.org/dc/dcmitype/StillImage"/>
				<dc:title/>
			</cc:Work>
		</rdf:RDF>
	</metadata>
	<defs>
		<style id="current-color-scheme" type="text/css">.ColorScheme-Text {color:#090d11;}.ColorScheme-Background{color:#ffffff;}</style>
	</defs>
	<g id="c" transform="translate(3364.4 -2092.7)">
		<path id="e" d="m-3346.4 2097.7-7 5h-5-1c-0.5541 0-1 0.4459-1 1v2c0 0.5541 0.4459 1 1 1h1 1v4h2v-4h2l7 5zm1 5v4h1v-4z" style="fill-opacity:.75;fill:currentColor" class="ColorScheme-Text"/>
		<path id="b" transform="translate(-3364.4 2092.7)" d="m19 3.0566-1.582 1.1289-6.7383 4.8145h-4.6797-1c-1.0906 0-2 0.9094-2 2v2c0 1.0906 0.9094 2 2 2h1v4h4v-4h0.67969l8.3203 5.9434v-5.9434h2v-6h-2zm-1 1.9434v14l-7-5h-2v4h-2v-4h-1-1c-0.5541 0-1-0.4459-1-1v-2c0-0.5541 0.4459-1 1-1h1 5zm4.3e-5 5 2-2.7e-5v4h-1z" style="fill-opacity:.5;fill:currentColor"  class="ColorScheme-Background"/>
	</g>
</svg>
