<?xml version="1.0" encoding="UTF-8"?>
<svg id="g" width="24" height="24" version="1.1" xmlns="http://www.w3.org/2000/svg" xmlns:cc="http://creativecommons.org/ns#" xmlns:dc="http://purl.org/dc/elements/1.1/" xmlns:rdf="http://www.w3.org/1999/02/22-rdf-syntax-ns#">
	<metadata id="a">
		<rdf:RDF>
			<cc:Work rdf:about="">
				<dc:format>image/svg+xml</dc:format>
				<dc:type rdf:resource="http://purl.org/dc/dcmitype/StillImage"/>
				<dc:title/>
			</cc:Work>
		</rdf:RDF>
	</metadata>
	<defs id="e">
		<style id="current-color-scheme" type="text/css">.ColorScheme-Text{color:#090d11;}.ColorScheme-Background{color:#ffffff;}</style>
	</defs>
	<path id="e" d="m6 4c-0.554 0-1 0.446-1 1v12h14v-12c0-0.554-0.446-1-1-1zm0 1h12v11h-12zm6 2.8926c-0.98321 0-1.9677 0.22595-2.8555 0.67383l-0.00391 0.00195-0.00195 0.00195c-0.40872 0.21525-0.55711 0.75969-0.30469 1.1504l0.00195 2e-3 2.4844 3.7734h2e-3c0.31435 0.47239 1.0411 0.47239 1.3555 0h2e-3l2.4844-3.7734 2e-3 -2e-3c0.25238-0.3907 0.10403-0.93515-0.30469-1.1504l-2e-3 -0.00195-0.0039-0.00195c-0.88778-0.44789-1.8724-0.67383-2.8556-0.67383zm0 1c0.75051 0 1.489 0.2041 2.1758 0.51172l-2.1758 3.3047-2.1758-3.3047c0.6868-0.30762 1.4253-0.51172 2.1758-0.51172zm-9 9.1074v1.5176c0 0.26686 0.892 0.48242 2 0.48242h14c1.108 0 2-0.23948 2-0.48242v-1.5176h-16v1h-1v-1z" style="fill:currentColor;fill-opacity:0.75;" class="ColorScheme-Text"/>
	<path id="h" d="m6 3c-1.0907 0-2 0.9093-2 2v12h-2v2.5176c0 0.62381 0.42263 0.92081 0.66016 1.0566s0.45214 0.19858 0.68945 0.25586c0.47463 0.11455 1.0315 0.16992 1.6504 0.16992h14c0.62605 0 1.1873-0.06215 1.6582-0.17969 0.23544-0.05877 0.44472-0.12345 0.67383-0.25195 0.11455-0.06425 0.23996-0.14339 0.375-0.29492s0.29297-0.41952 0.29297-0.75586v-2.5176h-2v-12c0-1.0907-0.91025-2.0454-2-2h-12zm0 1h12c0.554 0 1 0.446 1 1v12h-14v-12c0-0.554 0.446-1 1-1zm0 1v11h12v-11zm1 1h10v9h-10zm5 2.8926c-0.75051 0-1.489 0.2041-2.1758 0.51172l2.1758 3.3047 2.1758-3.3047c-0.6868-0.30762-1.4253-0.51172-2.1758-0.51172zm-9 9.1074h1v1h1v-1h16v1.5176c0 0.24294-0.892 0.48242-2 0.48242h-14c-1.108 0-2-0.21556-2-0.48242z" style="fill:currentColor;fill-opacity:0.5;" class="ColorScheme-Background"/>
</svg>
