<?xml version="1.0" encoding="UTF-8"?>
<svg id="d" width="24" height="24" version="1.1" xmlns="http://www.w3.org/2000/svg" xmlns:cc="http://creativecommons.org/ns#" xmlns:dc="http://purl.org/dc/elements/1.1/" xmlns:rdf="http://www.w3.org/1999/02/22-rdf-syntax-ns#">
	<metadata id="a">
		<rdf:RDF>
			<cc:Work rdf:about="">
				<dc:format>image/svg+xml</dc:format>
				<dc:type rdf:resource="http://purl.org/dc/dcmitype/StillImage"/>
				<dc:title/>
			</cc:Work>
		</rdf:RDF>
	</metadata>
	<defs>
		<style id="current-color-scheme" type="text/css">.ColorScheme-Text {color:#090d11;}.ColorScheme-Background{color:#ffffff;}</style>
	</defs>
	<path id="b" d="m6 4c-0.554 0-1 0.446-1 1v14c0 0.554 0.446 1 1 1h12c0.554 0 1-0.446 1-1v-8.3437l-6.6563-6.6563zm7.75 0 5.25 5.25v-4.25c0-0.554-0.446-1-1-1zm-3.625 5.9063h0.125c0.2999 0 0.575 0.2631 0.5937 0.5625l0.4375 4.0937 0.9688-1.625c0.1907-0.3268 0.7187-0.3777 0.9687-0.094l3.25 3.6875-0.875 0.8125-2.75-3.0625-1.4687 2.4375c-0.2679 0.4022-1.0273 0.2287-1.0938-0.25l-0.4062-3.6875-1.25 2.7812-1.0938-0.5 2.1875-4.7812c0.065-0.1801 0.2215-0.3245 0.4063-0.375z" style="fill-opacity:.75;fill:currentColor" class="ColorScheme-Text" />
	<path id="e" d="m6 3c-1.0907 0-2 0.9093-2 2v14c0 1.0907 0.9093 2 2 2h12c1.0907 0 2-0.9093 2-2v-14c0-1.0907-0.9093-2-2-2h-6.6641zm0 1h6.3438l6.6562 6.6562v8.3438c0 0.554-0.446 1-1 1h-12c-0.554 0-1-0.446-1-1v-14c0-0.554 0.446-1 1-1zm7.75 0h4.25c0.554 0 1 0.446 1 1v4.25zm-3.625 5.9062c-0.1848 0.0505-0.34125 0.1949-0.40625 0.375l-2.1875 4.7812 1.0938 0.5 1.25-2.7812 0.40625 3.6875c0.0665 0.4787 0.82585 0.6522 1.0938 0.25l1.4688-2.4375 2.75 3.0625 0.875-0.8125-3.25-3.6875c-0.25-0.2837-0.77805-0.23305-0.96875 0.09375l-0.96875 1.625-0.4375-4.0938c-0.0187-0.2994-0.29385-0.5625-0.59375-0.5625h-0.125z" style="fill-opacity:.5;fill:currentColor"  class="ColorScheme-Background"/>
</svg>
