<?xml version="1.0" encoding="UTF-8"?>
<!-- Created with Inkscape (http://www.inkscape.org/) -->
<svg width="24" height="24" version="1.1" xmlns="http://www.w3.org/2000/svg" xmlns:cc="http://creativecommons.org/ns#" xmlns:dc="http://purl.org/dc/elements/1.1/" xmlns:rdf="http://www.w3.org/1999/02/22-rdf-syntax-ns#">
	<metadata>
		<rdf:RDF>
			<cc:Work rdf:about="">
				<dc:format>image/svg+xml</dc:format>
				<dc:type rdf:resource="http://purl.org/dc/dcmitype/StillImage"/>
			</cc:Work>
		</rdf:RDF>
	</metadata>
	<defs>
		<style id="current-color-scheme" type="text/css">.ColorScheme-Text {
				color:#090d11;
			}
			.ColorScheme-Background{
				color:#ffffff;
			}</style>
	</defs>
	<path class="ColorScheme-Background" d="m11.836 2.0449c-5.4367 0-9.8555 4.4695-9.8555 9.9453 0 5.4748 4.4114 10.074 9.8457 10.08 3.5032 0.09869 6.8636-1.5165 8.0391-4.4629 0.06716-0.21106 0.06235-0.43845-0.01367-0.64648l0.01953-0.0078c0.25757-0.10076 0.4619-0.30369 0.56445-0.56055 0.77308-1.9361 0.78785-3.7659 0.35938-5.582-0.0045-0.0059-9e-3 -0.01177-0.01367-0.01758 0.65243-0.4016 1.1432-0.98776 1.1934-1.8398 0.0048-0.034648 0.03615-0.054475 0.03906-0.089844h-0.01953c7.74e-4 -0.03862 0.0225-0.068178 0.02148-0.10742-0.02108-0.023163-0.04324-0.045323-0.06641-0.066406 0.02089-0.039108 0.03916-0.079562 0.05469-0.12109-0.0023-0.0242-0.02054-0.049906-0.02344-0.074219l0.01367-0.00195c-4e-3 -0.023168-0.02265-0.018768-0.02734-0.041016-0.050488-0.37692-0.15057-0.76422-0.35351-1.1504-0.035543-0.032642-0.073403-0.062668-0.11328-0.089844 0.04814-0.068379 0.08751-0.14253 0.11719-0.2207 0.0093-0.20171 0.01755-0.48738-0.0039-0.79883-0.021477-0.31145-0.036391-0.63296-0.2461-1.0449-0.13304-0.26134-0.35324-0.60553-0.67383-0.87891-0.32059-0.27338-0.7001-0.49903-1.3066-0.83203-0.98876-0.54287-1.7954-0.52707-2.3613-0.45117-0.058474-0.067862-0.12062-0.15259-0.28516-0.26758-0.20002-0.13979-0.55059-0.26308-0.86719-0.24023-0.42192 0.030443-0.61546 0.16623-0.74414 0.3125-0.96194-0.35242-1.951-0.65223-3.0254-0.68359-0.013353-0.012086-0.02703-0.023809-0.041016-0.035156l-2e-3 0.025391c-0.07985-0.00196-0.14431-0.050781-0.22461-0.050781zm0 1c1.3489 0 2.6251 0.30666 3.7695 0.85156 0.05879-0.12951 0.20139-0.41188 0.33984-0.42188 0.17871-0.012897 0.28172 0.10146 0.39648 0.23047 0.11489 0.12896 0.34375 0.32227 0.34375 0.32227s1.0444-0.35962 2.2188 0.28516c1.1744 0.64477 1.3405 0.83772 1.5703 1.2891 0.15276 0.30008 0.15931 0.88355 0.14648 1.252 0.0016 4.347e-4 2e-3 0.00172 0.0039 0.00195-0.0013-2.5e-6 -0.0026-2.5e-6 -0.0039 0-9.93e-4 0.028326-7.87e-4 0.064428-2e-3 0.089844-0.01412-0.00363-0.0286-0.00642-0.04297-0.00781-0.19159-3.737e-4 -0.34749 0.19478-0.34766 0.43555-9.4e-4 0.24174 0.15528 0.43788 0.34766 0.4375 0.04588-5.4e-4 0.09064-0.01244 0.13281-0.035156 0.0016-8.2e-4 0.0042-0.0011 0.0059-0.00195 0.0042-0.00241 0.0076-0.00518 0.01172-0.00781 0.1702 0.32389 0.25759 0.62187 0.2832 0.89453-0.06621-0.385-0.60938-0.64649-0.60938-0.64648 0 0-0.02546 0.033049-0.04883 0.0625-0.04128 0.052006-0.107 0.12168-0.22656 0.17969-0.07688 0.037305-0.2131-0.053909-0.33984 0.076172-0.26913 0.54572 0.38896 0.99922 0.69531 0.98633 0.28453-0.011983 0.5161-0.28197 0.53711-0.53711 0.02629 1.0123-0.84891 1.6053-1.6875 1.5078-0.95782-0.11134-1.6476-0.67126-2.8926-1.0723-1.0726-0.34553-1.7718-0.52887-2.6211-0.6582-1.6746-0.25502-2.8807 0.13327-3.4492 0.47656-0.16868 0.10186-0.32762 0.21285-0.48242 0.32617 0.87121 0.16763 1.3933 1.4917 1.4102 1.8535 3e-3 0.03752 0.0045 0.0177 0.0039 0.06055-0.024 0.54627-0.2777 0.95138-0.81641 0.93555-0.2521-0.0117-0.50283-0.08293-0.73438-0.36914-0.047016-0.05813-0.076932-0.12995-0.11914-0.19141-0.28459-0.46184-0.66589-0.72545-1.0859-0.89258-0.51718 0.79458-0.80859 1.7427-0.80859 2.8477 0 3.2655 2.6444 5.6953 5.877 5.6953 1.034-1.29e-4 3.2207-0.35736 4.5508-1.4805l0.0039-2e-3c0.2464-0.22536 0.51045-0.46125 0.76953-0.58203-0.972 2.4363-3.9207 3.9314-7.0996 3.8359-4.8726-5.15e-4 -8.8555-4.1411-8.8555-9.082-2e-7 -4.9409 3.9647-8.9453 8.8555-8.9453zm6.2637 3.1777c-0.15452 0.00111-0.30303 0.056466-0.42188 0.15625-0.15425 0.12812-0.24383 0.31779-0.24414 0.51953 7.08e-4 0.37189 0.2979 0.67467 0.66602 0.67578 0.25502-9.535e-4 0.48801-0.14921 0.59961-0.38086 0.04523-0.091492 0.06921-0.19266 0.07031-0.29492 6.7e-4 -0.37387-0.29984-0.67607-0.66992-0.67578zm-0.0039 0.35156h0.0078c0.17611 5.31e-4 0.32977 0.16092 0.33008 0.32227v0.00391c-1.42e-4 0.091645-0.04218 0.18169-0.11524 0.24414-0.05813 0.04824-0.13291 0.077565-0.21094 0.078125h-0.0059c-0.17671 1.294e-4 -0.33227-0.16222-0.33198-0.32422v-0.00977c4.87e-4 -0.045246 0.01222-0.089794 0.03125-0.13086 0.052519-0.10644 0.16792-0.18311 0.29492-0.18359zm-5.418 2.9082c0.12587-0.0038 0.25771-0.00281 0.39648 0.00391 0.18503 0.00896 0.38175 0.028559 0.5918 0.060547 0.78997 0.1203 1.4138 0.28252 2.4648 0.62109 0.39586 0.12751 0.77946 0.24234 1.1211 0.4043-0.0703 0.09287-0.12384 0.1973-0.1582 0.30859 2.11e-4 0.09046 0.0127 0.18048 0.03711 0.26758 0.47894 1.7222 0.27878 3.7904-0.38476 5.166-0.14441 0.3444-0.08491 0.74056 0.1543 1.0273-1.084 0.60062-2.6072 0.9589-3.2891 0.95898-2.7316 0-4.877-1.9694-4.877-4.6953 0-0.44315 0.20833-0.7316 0.30859-1.0977 0.40482 0.44714 1.0017 0.68499 1.3926 0.70313 0.0059 5.1e-5 0.01172 5.1e-5 0.01758 0 0.52464 0.01542 1.0964-0.23612 1.4121-0.63281 0.31573-0.39669 0.41336-0.84182 0.43164-1.2578 8.14e-4 -0.01041 0.0015-0.02082 2e-3 -0.03125 4.7e-4 -0.0333-0.0022-0.0893-0.0039-0.12109v-0.0039c-0.01451-0.29972-0.07948-0.47455-0.16602-0.71094-0.08699-0.23762-0.2056-0.49551-0.36523-0.75781-0.01618-0.026585-0.04735-0.05306-0.06445-0.080078 0.27895-0.067446 0.60091-0.12141 0.97852-0.13281zm5.416 1.3984c0.30196 0.10063 0.52734 0.18206 0.91016 0.22656 0.28583 0.03323 0.55774 0.0053 0.81641-0.06836 0.3958 1.6777 0.38446 3.2321-0.31445 4.9824l-1.8594 0.72852c0.79022-1.6382 0.99615-3.8955 0.44727-5.8691z" style="fill-opacity:.5;fill:currentColor"/>
	<path class="ColorScheme-Text" d="m11.837 3.0441c-4.8908 0-8.8554 4.0052-8.8554 8.9461 0 4.9409 3.9828 9.0814 8.8554 9.0819 3.179 0.09546 6.127-1.3989 7.099-3.8352-0.25908 0.12078-0.52365 0.35594-0.77005 0.5813l-0.0026 0.0026c-1.3301 1.1231-3.5183 1.4795-4.5523 1.4796-3.2326 0-5.8759-2.4292-5.8759-5.6948 0-1.1049 0.29061-2.054 0.80778-2.8486 0.42004 0.16712 0.80253 0.43151 1.0871 0.89335 0.042209 0.06146 0.071263 0.13312 0.11828 0.19126 0.23154 0.28621 0.48271 0.35822 0.73481 0.36992 0.53871 0.01583 0.79133-0.38986 0.81534-0.93613 6.05e-4 -0.04285 3.84e-4 -0.02287-0.0026-0.06039-0.01682-0.36185-0.54048-1.6871-1.4117-1.8547 0.15481-0.11332 0.31448-0.22276 0.48316-0.32462 0.56847-0.34329 1.7755-0.73315 3.45-0.47813 0.84927 0.12933 1.547 0.31379 2.6196 0.65932 1.2449 0.40101 1.9361 0.96068 2.894 1.072 0.83859 0.09748 1.7123-0.49506 1.686-1.5073-0.02101 0.25514-0.25149 0.52403-0.53602 0.53602-0.30635 0.012893-0.96367-0.44074-0.69454-0.98645 0.12674-0.13008 0.26284-0.03819 0.33972-0.075495 0.11957-0.058005 0.1852-0.12666 0.22648-0.17867 0.02337-0.029451 0.04781-0.062912 0.04781-0.062912 0-8e-7 0.54278 0.26173 0.60899 0.64673-0.02561-0.27266-0.11164-0.57198-0.28184-0.89586-0.0041 0.00263-0.0084 0.00514-0.01263 0.00755-0.0017 8.553e-4 -0.0034 0.00169-5e-3 0.00251-0.04217 0.022716-0.0875 0.034691-0.13338 0.035231-0.19238 3.812e-4 -0.34821-0.19613-0.34727-0.43786 1.65e-4 -0.24077 0.15568-0.43572 0.34727-0.43535 0.01437 0.00139 0.02866 0.00392 0.04278 0.00755 0.01633-0.35584 0.02134-1.0201-0.14344-1.3438-0.22977-0.45134-0.39592-0.64366-1.5703-1.2884-1.1744-0.64477-2.2196-0.28436-2.2196-0.28436s-0.22987-0.19315-0.34476-0.32211c-0.11477-0.12901-0.21631-0.24446-0.39502-0.23157-0.13846 0.00999-0.28093 0.29325-0.33972 0.42276-1.1445-0.54491-2.4208-0.85309-3.7697-0.85309zm6.2635 3.1783c0.37008-2.867e-4 0.67005 0.30307 0.66938 0.67693-0.0011 0.10226-0.02523 0.20294-0.07046 0.29443-0.1116 0.23165-0.3439 0.37903-0.59892 0.37999-0.36812-0.00111-0.66616-0.30252-0.66687-0.67442 3.12e-4 -0.20174 0.08984-0.39279 0.24409-0.52091 0.11884-0.099784 0.26824-0.15491 0.42276-0.15602zm-0.0066 4.6586c0.54888 1.9737 0.3437 4.2299-0.44651 5.8681l1.8594-0.7279c0.69891-1.7503 0.71043-3.3041 0.31463-4.9817-0.25867 0.07362-0.53202 0.10117-0.81785 0.06794-0.38282-0.0445-0.60776-0.12586-0.90972-0.22648z" style="fill-opacity:.75;fill:currentColor"/>
</svg>
