<?xml version="1.0" encoding="UTF-8"?>
<!-- Created with Inkscape (http://www.inkscape.org/) -->
<svg width="24" height="24" version="1.1" xml:space="preserve" xmlns="http://www.w3.org/2000/svg" xmlns:cc="http://creativecommons.org/ns#" xmlns:dc="http://purl.org/dc/elements/1.1/" xmlns:rdf="http://www.w3.org/1999/02/22-rdf-syntax-ns#"><defs><style id="current-color-scheme" type="text/css">.ColorScheme-Text {
			color:#090d11;
			}
			.ColorScheme-Background{
			color:#ffffff;
			}</style></defs><metadata><rdf:RDF><cc:Work rdf:about=""><dc:format>image/svg+xml</dc:format><dc:type rdf:resource="http://purl.org/dc/dcmitype/StillImage"/></cc:Work></rdf:RDF></metadata><path class="ColorScheme-Text" d="m3 5v14h18v-14zm13.469 3.125 0.8125 2.2187 1.5313-1.625 1.0937 1.0625-2.0625 2.1563 1.0313 2.8437-1.4063 0.5313-0.7812-2.1563-1.7188 1.7813-1.0937-1.0625 2.2187-2.3125-1.0625-2.9063zm-10.25 0.4375 0.5313 3.9375 1.75-0.3125 0.25 1.4687-2.5313 0.4688-0.7812 0.1562-0.094-0.7812-0.625-4.75zm4.7813 0.9062 0.625 2.6875 1.9687-2.0312 1.0625 1.0312-2.7812 2.875-0.7813 2.75-1.4375-0.4062 0.7813-2.7188-0.875-3.875z" style="fill-opacity:.75;fill:currentColor"/></svg>
