<?xml version="1.0" encoding="UTF-8"?>
<svg id="a" width="24" height="24" version="1.1" xmlns="http://www.w3.org/2000/svg" xmlns:cc="http://creativecommons.org/ns#" xmlns:dc="http://purl.org/dc/elements/1.1/" xmlns:rdf="http://www.w3.org/1999/02/22-rdf-syntax-ns#">
	<metadata id="d">
		<rdf:RDF>
			<cc:Work rdf:about="">
				<dc:format>image/svg+xml</dc:format>
				<dc:type rdf:resource="http://purl.org/dc/dcmitype/StillImage"/>
				<dc:title/>
			</cc:Work>
		</rdf:RDF>
	</metadata>
	<defs>
		<style id="current-color-scheme" type="text/css">.ColorScheme-Text {color:#090d11;}.ColorScheme-Background{color:#ffffff;}</style>
	</defs>
	<path id="b" d="m5 3c-0.5541 0-1 0.4459-1 1v15c0 0.5541 0.4459 1 1 1h4v-12h6v-5zm11 0v17h4c0.5541 0 1-0.4459 1-1v-15c0-0.5541-0.4459-1-1-1zm-6 6v11h5v-11z" style="fill-opacity:.75;fill:currentColor" class="ColorScheme-Text"/>
	<path id="c" d="m5 2c-1.0906 0-2 0.90941-2 2v15c0 1.0906 0.90941 2 2 2h4 1 5 1 4c1.0906 0 2-0.90941 2-2v-15c0-1.0906-0.90941-2-2-2h-4-1-10zm0 1h10v5h-6v12h-4c-0.5541 0-1-0.4459-1-1v-15c0-0.5541 0.4459-1 1-1zm11 0h4c0.5541 0 1 0.4459 1 1v15c0 0.5541-0.4459 1-1 1h-4v-17zm-6 6h5v11h-5v-11z" style="fill-opacity:.5;fill:currentColor" class="ColorScheme-Background"/>
</svg>
