<?xml version="1.0" encoding="UTF-8"?>
<svg id="c" width="24" height="24" version="1.1" xmlns="http://www.w3.org/2000/svg" xmlns:cc="http://creativecommons.org/ns#" xmlns:dc="http://purl.org/dc/elements/1.1/" xmlns:rdf="http://www.w3.org/1999/02/22-rdf-syntax-ns#">
	<metadata id="a">
		<rdf:RDF>
			<cc:Work rdf:about="">
				<dc:format>image/svg+xml</dc:format>
				<dc:type rdf:resource="http://purl.org/dc/dcmitype/StillImage"/>
			</cc:Work>
		</rdf:RDF>
	</metadata>
	<defs>
		<style id="current-color-scheme" type="text/css">.ColorScheme-Text {color:#090d11;}.ColorScheme-Background{color:#ffffff;}</style>
	</defs>
	<path id="b" class="ColorScheme-Text" d="m20.012 2.9961-0.60352 1.0039h-0.01758l-1.8535 3.0918c2e-3 0.00258 0.0039 0.00519 0.0059 0.00781l-0.54105 0.90039h-0.0078l-1.1992 2h0.0039l-0.60156 1h-2e-3l-0.88863 1.4824-0.31055 0.51758-3.0605 5.0879 0.074219-1.0879h-1.5098c-0.27614 0-0.5-0.22386-0.5-0.5s0.22386-0.5 0.5-0.5h1.5801l0.044922-0.64844 0.7793-1.3516h-2.4043c-0.27614 0-0.5-0.22386-0.5-0.5s0.22386-0.5 0.5-0.5h2.9805l1.1523-2h-4.1328c-0.27614 0-0.5-0.22386-0.5-0.5s0.22386-0.5 0.5-0.5h4.7109l1.1523-2h-5.8633c-0.27614 0-0.5-0.22386-0.5-0.5s0.22386-0.5 0.5-0.5h6.4395l1.7305-3h-13.67c-0.554 0-1 0.446-1 1v14c0 0.554 0.446 1 1 1h6l2 2 2-2h6c0.554 0 1-0.446 1-1v-14c0-0.20524-0.060781-0.39628-0.16602-0.55469l0.14258-0.24805zm-13.512 4.0039h1c0.27614 0 0.5 0.22386 0.5 0.5s-0.22386 0.5-0.5 0.5h-1c-0.27614 0-0.5-0.22386-0.5-0.5s0.22386-0.5 0.5-0.5zm0 3h1c0.27614 0 0.5 0.22386 0.5 0.5s-0.22386 0.5-0.5 0.5h-1c-0.27614 0-0.5-0.22386-0.5-0.5s0.22386-0.5 0.5-0.5zm11.07 0.11914c0.11304 0.094309 0.17878 0.23364 0.17969 0.38086 0 0.27614-0.22386 0.5-0.5 0.5h-0.18555zm-11.07 2.8809h1c0.27614 0 0.5 0.22386 0.5 0.5s-0.22386 0.5-0.5 0.5h-1c-0.27614 0-0.5-0.22386-0.5-0.5s0.22386-0.5 0.5-0.5zm9.4141 0h1.3359c0.27614 0 0.5 0.22386 0.5 0.5s-0.22386 0.5-0.5 0.5h-1.9102zm-9.4141 3h1c0.27614 0 0.5 0.22386 0.5 0.5s-0.22386 0.5-0.5 0.5h-1c-0.27614 0-0.5-0.22386-0.5-0.5s0.22386-0.5 0.5-0.5zm7.6895 0h3.0605c0.27614 0 0.5 0.22386 0.5 0.5s-0.22386 0.5-0.5 0.5h-3.6348z" style="fill-opacity:.75;fill:currentColor"/>
</svg>
