<?xml version="1.0" encoding="UTF-8"?>
<!-- Created with Inkscape (http://www.inkscape.org/) -->
<svg width="24" height="24" version="1.1" xmlns="http://www.w3.org/2000/svg" xmlns:cc="http://creativecommons.org/ns#" xmlns:dc="http://purl.org/dc/elements/1.1/" xmlns:rdf="http://www.w3.org/1999/02/22-rdf-syntax-ns#">
	<defs>
		<radialGradient id="b" cx="-9389.2" cy="5042.5" r="9" gradientTransform="matrix(2.0221 0 0 1.7975 18995 -9053.4)" gradientUnits="userSpaceOnUse">
			<stop stop-color="#213851" stop-opacity=".9059" offset="0"/>
			<stop stop-color="#27303a" stop-opacity="0" offset="1"/>
		</radialGradient>
		<radialGradient id="a" cx="9.9746" cy="5.9293" r="9.0713" gradientTransform="matrix(1 0 0 .99903 1.7649 -2.4108)" gradientUnits="userSpaceOnUse">
			<stop stop-color="#ffffff" stop-opacity=".8252" offset="0"/>
			<stop stop-color="#ffffff" stop-opacity=".6051" offset="1"/>
		</radialGradient>
	</defs>
	<metadata>
		<rdf:RDF>
			<cc:Work rdf:about="">
				<dc:format>image/svg+xml</dc:format>
				<dc:type rdf:resource="http://purl.org/dc/dcmitype/StillImage"/>
				<dc:title/>
			</cc:Work>
		</rdf:RDF>
	</metadata>
	<path d="m18.055 1.3184-0.35352 0.35156-7.1387 7.125-0.35352 0.35352 0.70508 0.70898 0.35352-0.35352 3.2695-3.2637c3.728 1.0298 6.0813 4.7135 5.4121 8.5469-0.68156 3.9043-4.2593 6.6055-8.2012 6.1934-3.6808-0.38487-6.4891-3.363-6.7305-6.9805h3.4746a0.50005 0.50005 0 1 0 0-1h-6.084a0.50005 0.50005 0 1 0 0 1h1.6074c0.24333 4.1214 3.4436 7.5372 7.627 7.9746 4.4552 0.46585 8.5207-2.6028 9.291-7.0156 0.72371-4.1458-1.6902-8.1622-5.5918-9.5215l3.0664-3.0586 0.35352-0.35352z" color="#000000" color-rendering="auto" dominant-baseline="auto" fill="url(#a)" image-rendering="auto" shape-rendering="auto" solid-color="#000000" style="font-feature-settings:normal;font-variant-alternates:normal;font-variant-caps:normal;font-variant-east_asian:normal;font-variant-ligatures:normal;font-variant-numeric:normal;font-variant-position:normal;isolation:auto;mix-blend-mode:normal;paint-order:normal;shape-padding:0;text-decoration-color:#000000;text-decoration-line:none;text-decoration-style:solid;text-indent:0;text-orientation:mixed;text-transform:none;white-space:normal"/>
	<path d="m16.295 1.5742-0.35352 0.35352-2.2949 2.291-0.84766-0.85156-0.70898 0.70508-2.6406 2.625-0.70898 0.70508 0.85352 0.85938-0.79297 0.79102-0.35352 0.35156 0.70703 0.70898 0.35352-0.35352 0.79492-0.79297 0.042969 0.044922 0.2168-0.2168 3.8359-3.8281-0.042969-0.042969 2.293-2.2891 0.35352-0.35352-0.70703-0.70703zm-1.7578 4.666-3.2695 3.2637-0.21484 0.21484 0.59766 0.60156 0.70898-0.70508 2.2461-2.2324c1.7199 0.58452 3.1616 1.8635 3.8926 3.6094 1.0518 2.512 0.42013 5.4098-1.582 7.2559s-4.9408 2.2401-7.3594 0.98828c-2.0131-1.042-3.2854-3.0389-3.4551-5.2363h-0.99609c0.17277 2.5667 1.6469 4.9111 3.9922 6.125 2.7891 1.4436 6.1872 0.98625 8.4961-1.1426s3.0391-5.4801 1.8262-8.377c-0.77668-1.855-2.2478-3.2657-4.0273-4.0059l0.042969-0.042969c-0.29072-0.12129-0.58766-0.23056-0.89844-0.31641zm-12.037 5.7598a0.50005 0.50005 0 0 0-0.035156 1h2.6328 1 2.3945 0.035156 0.048828a0.50005 0.50005 0 1 0 0-1h-6.0762z" color="#000000" color-rendering="auto" dominant-baseline="auto" fill="#090d11" fill-opacity=".76621" image-rendering="auto" shape-rendering="auto" solid-color="#000000" style="font-feature-settings:normal;font-variant-alternates:normal;font-variant-caps:normal;font-variant-east_asian:normal;font-variant-ligatures:normal;font-variant-numeric:normal;font-variant-position:normal;isolation:auto;mix-blend-mode:normal;paint-order:normal;shape-padding:0;text-decoration-color:#000000;text-decoration-line:none;text-decoration-style:solid;text-indent:0;text-orientation:mixed;text-transform:none;white-space:normal"/>
	<path d="m16.295 1.5742-0.35352 0.35352-2.2949 2.291-0.84766-0.85156-0.70898 0.70508-2.6406 2.625-0.70898 0.70508 0.85352 0.85938-0.79297 0.79102-0.35352 0.35156 0.70703 0.70898 0.35352-0.35352 0.79492-0.79297 0.042969 0.044922 0.2168-0.2168 3.8359-3.8281-0.042969-0.042969 2.293-2.2891 0.35352-0.35352zm-1.7578 4.666-3.2695 3.2637-0.21484 0.21484 0.59766 0.60156 0.70898-0.70508 2.2461-2.2324c1.7199 0.58452 3.1616 1.8635 3.8926 3.6094 1.0518 2.512 0.42013 5.4098-1.582 7.2559s-4.9408 2.2401-7.3594 0.98828c-2.0131-1.042-3.2854-3.0389-3.4551-5.2363h-0.99609c0.17277 2.5667 1.6469 4.9111 3.9922 6.125 2.7891 1.4436 6.1872 0.98625 8.4961-1.1426s3.0391-5.4801 1.8262-8.377c-0.77668-1.855-2.2478-3.2657-4.0273-4.0059l0.04297-0.042969c-0.29072-0.12128-0.58766-0.23055-0.89844-0.31641zm-12.037 5.7598a0.50031 0.50031 0 0 0-0.035156 1h2.6328 1 2.3945 0.035156 0.048828a0.50005 0.50005 0 1 0 0-1z" color="#000000" color-rendering="auto" dominant-baseline="auto" fill="url(#b)" image-rendering="auto" shape-rendering="auto" solid-color="#000000" style="font-feature-settings:normal;font-variant-alternates:normal;font-variant-caps:normal;font-variant-east_asian:normal;font-variant-ligatures:normal;font-variant-numeric:normal;font-variant-position:normal;isolation:auto;mix-blend-mode:normal;paint-order:normal;shape-padding:0;text-decoration-color:#000000;text-decoration-line:none;text-decoration-style:solid;text-indent:0;text-orientation:mixed;text-transform:none;white-space:normal"/>
</svg>
