<?xml version="1.0" encoding="UTF-8"?>
<!-- Created with Inkscape (http://www.inkscape.org/) -->
<svg width="24" height="24" version="1.1" xml:space="preserve" xmlns="http://www.w3.org/2000/svg" xmlns:cc="http://creativecommons.org/ns#" xmlns:dc="http://purl.org/dc/elements/1.1/" xmlns:rdf="http://www.w3.org/1999/02/22-rdf-syntax-ns#"><defs><style id="current-color-scheme" type="text/css">.ColorScheme-Text {color:#090d11;}.ColorScheme-Background{color:#ffffff;}</style></defs><metadata><rdf:RDF><cc:Work rdf:about=""><dc:format>image/svg+xml</dc:format><dc:type rdf:resource="http://purl.org/dc/dcmitype/StillImage"/></cc:Work></rdf:RDF></metadata><path id="h" class="ColorScheme-Background" d="m12 2.8438c-5.0566 0-9.1562 4.0997-9.1562 9.1562 0 5.0566 4.0997 9.1562 9.1562 9.1562 5.0566 0 9.1562-4.0997 9.1562-9.1562 0-5.0566-4.0997-9.1562-9.1562-9.1562zm0 1.1562c4.4262 0 8 3.5738 8 8 0 4.4262-3.5738 8-8 8-4.4262 0-8-3.5738-8-8 0-4.4262 3.5738-8 8-8zm-3 3.1562v9.6875l1.5312-0.78125 7.5-3.75c0.0053-0.1036 0.03125-0.20759 0.03125-0.3125s-0.02598-0.2089-0.03125-0.3125l-7.5-3.75zm1 1.8438 6 3-6 3z" style="fill-opacity:.5;fill:currentColor"/><path id="e" class="ColorScheme-Text" d="m12 4c-4.4262 0-8 3.5738-8 8 0 4.4262 3.5738 8 8 8 4.4262 0 8-3.5738 8-8 0-4.4262-3.5738-8-8-8zm0 1.9375c3.3488 0 6.0625 2.7137 6.0625 6.0625 0 3.3488-2.7137 6.0625-6.0625 6.0625-3.3488 0-6.0625-2.7137-6.0625-6.0625 0-3.3488 2.7137-6.0625 6.0625-6.0625zm-2 3.0625v6l6-3z" style="fill-opacity:.75;fill:currentColor"/></svg>
