<?xml version="1.0" encoding="UTF-8"?>
<!-- Created with Inkscape (http://www.inkscape.org/) -->
<svg width="24" height="24" version="1.1" xmlns="http://www.w3.org/2000/svg" xmlns:cc="http://creativecommons.org/ns#" xmlns:dc="http://purl.org/dc/elements/1.1/" xmlns:rdf="http://www.w3.org/1999/02/22-rdf-syntax-ns#" xmlns:xlink="http://www.w3.org/1999/xlink">
	<defs>
		<radialGradient id="b" cx="12.398" cy="26.282" r="10" gradientTransform="matrix(0 1.8 -1.5 0 42.424 -19.316)" gradientUnits="userSpaceOnUse">
			<stop stop-color="#ffffff" stop-opacity=".74858" offset="0"/>
			<stop stop-color="#ffffff" stop-opacity=".60511" offset="1"/>
		</radialGradient>
		<radialGradient id="a" cx="22.567" cy="13" r="9" fx="9.0284" gradientUnits="userSpaceOnUse">
			<stop stop-color="#213851" stop-opacity=".9059" offset="0"/>
			<stop stop-color="#27303a" stop-opacity="0" offset="1"/>
		</radialGradient>
	</defs>
	<metadata>
		<rdf:RDF>
			<cc:Work rdf:about="">
				<dc:format>image/svg+xml</dc:format>
				<dc:type rdf:resource="http://purl.org/dc/dcmitype/StillImage"/>
				<dc:title/>
			</cc:Work>
		</rdf:RDF>
	</metadata>
	<path d="m13 3-10 2v14l10 2zm1 3v1h4v1h-4v1h4v1h-4v1h4v1h-4v1h4v1h-4v1h4v1h-4v1h4v1h-4v1h4c0.554 0 1-0.446 1-1v-8h1 1v-3h-1c0-0.554-0.446-1-1-1zm-8 3h1.7l1.3 4v-4h1v6h-1l-2-5v5h-1zm14 2v3h1v-3zm0 4v3h1v-3z" fill="#090d11" fill-opacity=".76621" style="paint-order:normal"/>
	<path d="m13 3-10 2v14l10 2zm1 3v1h4v1h-4v1h4v1h-4v1h4v1h-4v1h4v1h-4v1h4v1h-4v1h4v1h-4v1h4c0.554 0 1-0.446 1-1v-8h1 1v-3h-1c0-0.554-0.446-1-1-1zm-8 3h1.7l1.3 4v-4h1v6h-1l-2-5v5h-1zm14 2v3h1v-3zm0 4v3h1v-3z" fill="url(#a)" fill-opacity=".75328" style="paint-order:normal"/>
	<path d="m12.971 2a1.0001 1.0001 0 0 0-0.16602 0.019531l-10 2a1.0001 1.0001 0 0 0-0.80469 0.98047v14a1.0001 1.0001 0 0 0 0.80469 0.98047l10 2a1.0001 1.0001 0 0 0 1.1953-0.98047v-1h4c0.73443 0 1.2656-0.47774 1.6133-1.0801a1.0001 1.0001 0 0 0 0.38672 0.080078h1a1.0001 1.0001 0 0 0 1-1v-3a1.0001 1.0001 0 0 0-0.13477-0.5 1.0001 1.0001 0 0 0 0.13477-0.5v-3a1.0001 1.0001 0 0 0-0.13477-0.5 1.0001 1.0001 0 0 0 0.13477-0.5v-3a1.0001 1.0001 0 0 0-1-1h-0.41992c-0.35725-0.56123-0.8766-1-1.5801-1h-5v-2a1.0001 1.0001 0 0 0-1.0293-1zm0.029297 1v18l-10-2v-14l10-2zm1 3h5c0.554 0 1 0.446 1 1h1v3h-1-1v8c0 0.554-0.446 1-1 1h-4v-1h4v-1h-4v-1h4v-1h-4v-1h4v-1h-4v-1h4v-1h-4v-1h4v-1h-4v-1h4v-1h-4v-1zm-8 3v6h1v-5l2 5h1v-6h-1v4l-1.3008-4h-1.6992zm14 2h1v3h-1v-3zm0 4h1v3h-1v-3z" color="#000000" color-rendering="auto" dominant-baseline="auto" fill="url(#b)" fill-opacity=".99858" image-rendering="auto" shape-rendering="auto" solid-color="#000000" style="font-feature-settings:normal;font-variant-alternates:normal;font-variant-caps:normal;font-variant-east_asian:normal;font-variant-ligatures:normal;font-variant-numeric:normal;font-variant-position:normal;isolation:auto;mix-blend-mode:normal;paint-order:normal;shape-padding:0;text-decoration-color:#000000;text-decoration-line:none;text-decoration-style:solid;text-indent:0;text-orientation:mixed;text-transform:none;white-space:normal"/>
</svg>
