<?xml version="1.0" encoding="UTF-8"?>
<svg id="g" width="24" height="24" version="1.1" xmlns="http://www.w3.org/2000/svg" xmlns:cc="http://creativecommons.org/ns#" xmlns:dc="http://purl.org/dc/elements/1.1/" xmlns:rdf="http://www.w3.org/1999/02/22-rdf-syntax-ns#">
	<metadata id="a">
		<rdf:RDF>
			<cc:Work rdf:about="">
				<dc:format>image/svg+xml</dc:format>
				<dc:type rdf:resource="http://purl.org/dc/dcmitype/StillImage"/>
			</cc:Work>
		</rdf:RDF>
	</metadata>
	<defs>
		<style id="current-color-scheme" type="text/css">.ColorScheme-Text {color:#090d11;}.ColorScheme-Background{color:#ffffff;}</style>
	</defs>
	<path id="f" class="ColorScheme-Text" d="m12 3c-4.4124 0-8 3.5876-8 8 0 4.4124 3.5876 8 8 8 4.4124 0 8-3.5876 8-8 0-4.4124-3.5876-8-8-8zm0 1c3.8719 0 7 3.1281 7 7 0 3.8719-3.1281 7-7 7-3.8719 0-7-3.1281-7-7 0-3.8719 3.1281-7 7-7zm-2.3418 1.8613c-0.13682 0.062771-0.26782 0.13196-0.39844 0.20508l-2.4492 7.1074c0.32769 0.78379 0.8257 1.4773 1.4492 2.0332l0.48828 0.38477 2.6953-6.8438 0.05274 7.8594c0.17202 0.01589 0.3452 0.02539 0.52148 0.02539 1.0299 0 1.9927-0.27722 2.8223-0.75586v-5.0957c0-2.2842 0.2637-3.1418 1.5-3.4238-0.53221-0.6327-1.2017-1.1469-1.9629-1.4961zm1.3418 14.139v2h2v-2z" style="fill-opacity:.75;fill:currentColor"/>
	<path class="ColorScheme-Background" d="m12 2c-4.9646 0-9 4.0354-9 9 0 4.2773 2.9957 7.862 7 8.7734v2.2266h1v-2.0566c0.32834 0.036414 0.66207 0.056641 1 0.056641s0.67166-0.02023 1-0.05664v2.0566h1v-2.2266c4.0043-0.91142 7-4.4962 7-8.7734 0-4.9646-4.0354-9-9-9zm0 1c4.4242 0 8 3.5758 8 8 0 4.4242-3.5758 8-8 8-4.4242 0-8-3.5758-8-8 0-4.4242 3.5758-8 8-8zm-2.3418 1.8613c-0.14351-2.476e-4 -0.2854 0.030394-0.41602 0.089844-0.16912 0.077586-0.32471 0.16046-0.4707 0.24219-0.21433 0.11998-0.37701 0.31464-0.45703 0.54688l-2.4492 7.1074c-0.079575 0.23184-0.071235 0.48484 0.023437 0.71094 0.38586 0.92291 0.97282 1.7399 1.707 2.3945 0.01461 0.0128 0.029591 0.02518 0.044922 0.03711l0.48633 0.38476c0.52627 0.41609 1.3049 0.20624 1.5508-0.41797l0.80078-2.0312 0.01758 2.6895c0.0038 0.51314 0.39536 0.94014 0.90625 0.98828 0.20233 0.01869 0.40801 0.0293 0.61523 0.0293 1.2087 0 2.3468-0.32781 3.3223-0.89062 0.30914-0.17851 0.4997-0.50826 0.5-0.86524v-5.0957c0-1.1038 0.09508-1.8002 0.21094-2.082 0.11586-0.2818 0.09116-0.27169 0.50977-0.36719 0.73001-0.16632 1.0251-1.0463 0.54297-1.6191-0.62612-0.74435-1.4131-1.35-2.3105-1.7617-0.13062-0.05945-0.2725-0.090091-0.41602-0.089844zm0 1h4.7187c0.76116 0.3492 1.4307 0.8634 1.9629 1.4961-1.2363 0.28204-1.5 1.1396-1.5 3.4238v5.0957c-0.8296 0.47864-1.7924 0.75586-2.8223 0.75586-0.17629 1e-6 -0.34946-0.0095-0.52148-0.02539l-0.052735-7.8594-2.6953 6.8438-0.48828-0.38477c-0.62351-0.55591-1.1215-1.2494-1.4492-2.0332l2.4492-7.1074c0.13061-0.073122 0.26161-0.14231 0.39844-0.20508z" style="fill-opacity:.5;fill:currentColor"/>
</svg>
