<?xml version="1.0" encoding="UTF-8"?>
<!-- Created with Inkscape (http://www.inkscape.org/) -->
<svg width="24" height="24" version="1.0" xmlns="http://www.w3.org/2000/svg" xmlns:cc="http://creativecommons.org/ns#" xmlns:dc="http://purl.org/dc/elements/1.1/" xmlns:rdf="http://www.w3.org/1999/02/22-rdf-syntax-ns#">
	<metadata>
		<rdf:RDF>
			<cc:Work rdf:about="">
				<dc:format>image/svg+xml</dc:format>
				<dc:type rdf:resource="http://purl.org/dc/dcmitype/StillImage"/>
			</cc:Work>
		</rdf:RDF>
	</metadata>
	<defs>
		<style id="current-color-scheme" type="text/css">.ColorScheme-Text {color:#090d11;}.ColorScheme-Background{color:#ffffff;}</style>
	</defs>
	<path class="ColorScheme-Text" d="m12 5.2949-6.0137 3.3652v6.6797l6.0137 3.3652 0.24414-0.13672 5.7695-3.2285v-6.6797zm0 1.1445 5.0137 2.8066v5.5078l-5.0137 2.8066-5.0137-2.8066v-5.5078z" style="fill-opacity:.75;fill:currentColor"/>
	<path class="ColorScheme-Text" d="m16.998 9.2383-4.998 2.7617v5.5605l5.0137-2.8066v-5.5078l-0.015625-0.0078126z" style="fill-opacity:.75;fill:currentColor;opacity:.27427"/>
	<path class="ColorScheme-Text" d="m7.002 9.2383-0.015625 0.0078126v5.5078l5.0137 2.8066v-5.5605l-4.998-2.7617z" style="fill-opacity:.75;fill:currentColor;opacity:.061448"/>
	<path class="ColorScheme-Text" d="m12 6.4395-4.998 2.7988 4.998 2.7617 4.998-2.7617-4.998-2.7988z" style="fill-opacity:.75;fill:currentColor;opacity:.17262"/>
	<path class="ColorScheme-Text" d="m12 2-9 5 2.9863 1.6738v-0.013672l6.0137-3.3652v-3.2949z" style="fill-opacity:.75;fill:currentColor;opacity:.68937"/>
	<path class="ColorScheme-Text" d="m12 2v3.2949l6.0137 3.3652v0.013672l2.9863-1.6738-9-5z" style="fill-opacity:.75;fill:currentColor;opacity:.60612"/>
	<path class="ColorScheme-Text" d="m5.9863 15.326-2.9863 1.6738 9 5v-3.2949l-6.0137-3.3652v-0.013672z" style="fill-opacity:.75;fill:currentColor;opacity:.68387"/>
	<path class="ColorScheme-Text" d="m18.014 15.326v0.013672l-5.7695 3.2285-0.24414 0.13672v3.2949l9-5-2.9863-1.6738z" style="fill-opacity:.75;fill:currentColor;opacity:.62327"/>
	<path class="ColorScheme-Text" d="m21 7-2.9863 1.6738v6.6523l2.9863 1.6738v-10z" style="fill-opacity:.75;fill:currentColor;opacity:.75485"/>
	<path class="ColorScheme-Text" d="m3 7v10l2.9863-1.6738v-6.6523l-2.9863-1.6738z" style="fill-opacity:.75;fill:currentColor;opacity:.93343"/>
</svg>
