<?xml version="1.0" encoding="UTF-8"?>
<!-- Created with Inkscape (http://www.inkscape.org/) -->
<svg width="24" height="24" version="1.1" xmlns="http://www.w3.org/2000/svg" xmlns:cc="http://creativecommons.org/ns#" xmlns:dc="http://purl.org/dc/elements/1.1/" xmlns:rdf="http://www.w3.org/1999/02/22-rdf-syntax-ns#">
	<defs>
		<style id="current-color-scheme" type="text/css">.ColorScheme-Text {color:#090d11;}.ColorScheme-Background{color:#ffffff;}</style>
	</defs>
	<metadata>
		<rdf:RDF>
			<cc:Work rdf:about="">
				<dc:format>image/svg+xml</dc:format>
				<dc:type rdf:resource="http://purl.org/dc/dcmitype/StillImage"/>
			</cc:Work>
		</rdf:RDF>
	</metadata>
	<path class="ColorScheme-Background" d="m13.695 2.0488-0.05273 0.00781-0.07227 0.011719-0.03125 0.00391-0.05859 0.029297-0.04297 0.015625-6.3418 3.6855-0.099609 0.082031-0.00781 0.00586-0.099609 0.14258-0.00391 0.00781-0.00195 0.00977-0.00391 0.00586-2.1133 5.2969 0.00195 0.37695 3.2949 7.9512v2e-3l0.00195 0.0039 0.041016 0.09961 0.71484 0.6582 4.9375 1.5195h2e-3l0.80273-0.0625 0.04687-0.02734 0.18359-0.20117 1.1836-2.3809 0.04688-0.14062 1.8261-11.193 0.0078-0.044922 0.0059-0.080078v-0.03321l-0.02344-0.11719-0.0098-0.025391-0.04687-0.095703-0.0078-0.013672-3.6758-5.2851-0.0039-0.00586-0.1582-0.14258-0.03906-0.013672-0.09375-0.033203-0.06445-0.011719-0.04492-0.00781zm-0.50586 1.3691 0.40325 2.4699-4.9521 2.7039-0.69727-2.125zm1.002 0.73047 1.2695 1.8242-1.2656-0.83984zm-0.47852 1.8652 3.1074 2.0605-1.7715 10.842-0.70312 1.4121-5.332-10.766zm-6.416 1.6953 1.6557 2.4476-0.73067 7.6695-2.4524-6.291zm1.573 3.6834 4.6106 9.4396-4.3652-1.3418h-0.00195l-0.083984-0.08398-0.00586-0.01758z" style="fill-opacity:.5;fill:currentColor"/>
	<path class="ColorScheme-Text" d="m13.189 3.418-5.2461 3.0488 0.69727 2.125 4.952-2.7039zm1.002 0.73047 0.0039 0.98438 1.2656 0.83984zm-0.47852 1.8652-4.6992 3.5488 5.332 10.766 0.70312-1.4121 1.7715-10.842zm-6.416 1.6953-1.5273 3.8262 2.4524 6.291 0.73067-7.6695zm1.573 3.6834 0.15355 7.9963 0.00586 0.01758 0.083984 0.08398h0.00195l4.3652 1.3418z" style="fill-opacity:.75;fill:currentColor"/>
</svg>
