<?xml version="1.0" encoding="UTF-8"?>
<!-- Created with Inkscape (http://www.inkscape.org/) -->
<svg width="24" height="24" version="1.1" xmlns="http://www.w3.org/2000/svg" xmlns:cc="http://creativecommons.org/ns#" xmlns:dc="http://purl.org/dc/elements/1.1/" xmlns:rdf="http://www.w3.org/1999/02/22-rdf-syntax-ns#">
	<defs>
		<style id="current-color-scheme" type="text/css">.ColorScheme-Text {color:#090d11;}.ColorScheme-Background{color:#ffffff;}</style>
	</defs>
	<metadata>
		<rdf:RDF>
			<cc:Work rdf:about="">
				<dc:format>image/svg+xml</dc:format>
				<dc:type rdf:resource="http://purl.org/dc/dcmitype/StillImage"/>
			</cc:Work>
		</rdf:RDF>
	</metadata>
	<path class="ColorScheme-Text" d="m12 3.0039c-2.3043 0-4.608 0.87755-6.3633 2.6328-0.19521 0.19525-0.19521 0.51178 0 0.70703 0.19525 0.19521 0.51178 0.19521 0.70703 0 3.1284-3.1284 8.1841-3.1284 11.312 0 0.19525 0.19521 0.51178 0.19521 0.70703 0 0.19521-0.19525 0.19521-0.51178 0-0.70703-1.7553-1.7553-4.0589-2.6328-6.3633-2.6328zm-5.457 4.9961c-0.57011 4.22e-5 -1.0924 0.10233-1.5664 0.30664-0.47406 0.20439-0.87987 0.48784-1.2207 0.84961-0.34083 0.36183-0.60869 0.78574-0.80078 1.2715-0.19209 0.48578-0.28711 1.0095-0.28711 1.5723 0 0.56284 0.095018 1.0865 0.28711 1.5723 0.19209 0.48578 0.45995 0.90972 0.80078 1.2715 0.34083 0.36185 0.74665 0.6453 1.2207 0.84961 0.47404 0.20439 0.99629 0.30668 1.5664 0.30664 0.56391 4.3e-5 1.0854-0.10225 1.5625-0.30664 0.47715-0.20431 0.88653-0.48776 1.2305-0.84961 0.24748-0.26034 0.45613-0.5524 0.625-0.87695 0.17653 0.33696 0.38978 0.63817 0.63867 0.90234 0.33772 0.35847 0.72685 0.63636 1.1699 0.83398 0.44307 0.19767 0.90726 0.29688 1.3906 0.29688 0.23546 0 0.47316-0.02591 0.71484-0.07617 0.24166-0.05024 0.5024-0.12911 0.78125-0.23633l0.18555-0.07031v-2.3301c-0.46476 0.53604-0.98782 0.80276-1.5703 0.80274-0.26647 2e-5 -0.51486-0.05294-0.74414-0.16016-0.22928-0.10718-0.42919-0.25379-0.59961-0.44141-0.17042-0.1876-0.30435-0.40945-0.40039-0.66406-0.09606-0.25459-0.14258-0.53246-0.14258-0.83398 0-0.2948 0.04652-0.56961 0.14258-0.82422 0.09604-0.25459 0.22916-0.47392 0.39648-0.6582 0.1673-0.18423 0.36722-0.33028 0.59961-0.4375 0.23237-0.10718 0.48516-0.16013 0.75781-0.16016 0.61969 2.15e-5 1.1392 0.27789 1.5605 0.83398v-2.3516c-0.29746-0.13398-0.58005-0.23321-0.84961-0.29688-0.26956-0.063647-0.54536-0.095703-0.82422-0.095703-0.48955 0-0.95618 0.099228-1.4023 0.29688-0.44618 0.19767-0.83806 0.47248-1.1758 0.82422-0.25075 0.26117-0.46308 0.55949-0.63867 0.89453-0.16719-0.31744-0.37229-0.60377-0.61523-0.85938-0.34394-0.36177-0.75332-0.64521-1.2305-0.84961-0.47715-0.20431-0.99859-0.3066-1.5625-0.30664zm8.2988 5.3086c0.06179 0.78101 0.32637 1.425 0.79492 1.9316 0.46854 0.5066 1.3124 0.75979 2.5293 0.75977 0.69303 2.1e-5 1.2671-0.10783 1.7227-0.32422 0.45551-0.21635 0.81066-0.53448 1.0645-0.95312 0.2538-0.41863 0.38086-0.87503 0.38086-1.3711 0-0.42216-0.09678-0.80523-0.28711-1.1465-0.19035-0.34123-0.494-0.62697-0.91211-0.85742-0.41811-0.23041-1.1098-0.45843-2.0762-0.68359-0.39046-0.08793-0.63809-0.18116-0.74219-0.2832-0.1074-0.09851-0.16018-0.21086-0.16016-0.33398-1.9e-5 -0.16886 0.06514-0.31183 0.19531-0.42969 0.13014-0.11784 0.32304-0.17576 0.58008-0.17578 0.31237 2.15e-5 0.55705 0.078046 0.73438 0.23633 0.17732 0.15833 0.29428 0.41147 0.34961 0.75977l2.084-0.13086c-0.091125-0.8021-0.3775-1.3882-0.85742-1.7559-0.47993-0.36761-1.1775-0.55076-2.0918-0.55078-0.74512 2.11e-5 -1.3319 0.10045-1.7598 0.30273-0.42787 0.20228-0.74782 0.48042-0.96094 0.83398-0.21312 0.35356-0.31836 0.72942-0.31836 1.127 0 0.6051 0.20656 1.1036 0.62305 1.4941 0.41322 0.39052 1.1046 0.70375 2.0742 0.93945 0.59216 0.14073 0.97012 0.28896 1.1328 0.44726 0.16269 0.15833 0.24414 0.33856 0.24414 0.53906 0 0.2111-0.08505 0.39658-0.25586 0.55664-0.17085 0.16008-0.41487 0.24026-0.73047 0.24024-0.423 2.1e-5 -0.74685-0.15758-0.97461-0.4707-0.13992-0.19348-0.23375-0.47435-0.2793-0.84375zm-8.2988-3.3984c0.26647 2.15e-5 0.51924 0.05046 0.75781 0.1543 0.23857 0.10388 0.45001 0.24992 0.63281 0.4375 0.18282 0.18762 0.32629 0.40947 0.43164 0.66406 0.10533 0.25463 0.1582 0.53252 0.1582 0.83398 0 0.30155-0.052874 0.57942-0.1582 0.83398-0.10535 0.25463-0.24882 0.47648-0.43164 0.66406-0.1828 0.18764-0.39424 0.33368-0.63281 0.4375-0.23857 0.10388-0.49134 0.15432-0.75781 0.1543-0.26645 2e-5 -0.51924-0.05042-0.75781-0.1543-0.23859-0.10382-0.44726-0.24986-0.62695-0.4375-0.17973-0.18758-0.32241-0.40943-0.42773-0.66406-0.10535-0.25457-0.1582-0.53244-0.1582-0.83398 0-0.30146 0.052855-0.57935 0.1582-0.83398 0.10533-0.25459 0.24801-0.47644 0.42773-0.66406 0.17969-0.18758 0.38836-0.33362 0.62695-0.4375 0.23857-0.10384 0.49136-0.15428 0.75781-0.1543zm-0.55273 7.5996c-0.1326 2e-5 -0.25976 0.05271-0.35352 0.14648-0.19521 0.19525-0.19521 0.51178 0 0.70703 1.6877 1.6877 3.9765 2.6367 6.3633 2.6367 2.3868 0 4.6756-0.94903 6.3633-2.6367 0.19521-0.19525 0.19521-0.51178 0-0.70703-0.19525-0.19521-0.51178-0.19521-0.70703 0-1.5004 1.5004-3.5343 2.3438-5.6562 2.3438-2.1219 0-4.1558-0.84332-5.6562-2.3438-0.093753-0.093773-0.22092-0.14646-0.35352-0.14648z" style="fill-opacity:.75;fill:currentColor"/>
	<path class="ColorScheme-Background" d="m12 2.0039c-2.5603 0-5.1198 0.97526-7.0703 2.9258-0.19521 0.19525-0.19521 0.51178 0 0.70703 0.19525 0.19521 0.51178 0.19521 0.70703 0 3.5189-3.5189 9.2077-3.5189 12.727 0 0.19525 0.19521 0.51178 0.19521 0.70703 0 0.19521-0.19525 0.19521-0.51178 0-0.70703-1.9505-1.9505-4.51-2.9258-7.0703-2.9258zm-5.457 4.9961c-0.68968 5.11e-5 -1.3551 0.12671-1.9629 0.38867-0.59218 0.25532-1.119 0.62166-1.5527 1.082-0.42882 0.45524-0.76612 0.99349-1.002 1.5898-0.241 0.60947-0.35742 1.2641-0.35742 1.9395 1e-7 0.67539 0.11641 1.33 0.35742 1.9395 0.23583 0.59639 0.57306 1.1346 1.002 1.5898 0.43376 0.46052 0.96045 0.82677 1.5527 1.082 0.60787 0.2621 1.2731 0.38872 1.9629 0.38867 0.68489 5.2e-5 1.3485-0.12604 1.957-0.38672 0.55228-0.23648 1.0309-0.58914 1.4492-1.0039 0.40954 0.4175 0.87879 0.76993 1.4121 1.0078 0.5667 0.25282 1.1786 0.38281 1.7988 0.38281 0.30883 0 0.6154-0.03474 0.91797-0.09766 0.3036-0.06312 0.61337-0.15723 0.93164-0.2793l0.18555-0.07031c0.09474-0.0917 0.17041-0.20122 0.22266-0.32226 0.73267 0.51239 1.6402 0.76955 2.748 0.76953 0.79679 2.4e-5 1.519-0.12102 2.1523-0.42188 0.61673-0.29292 1.1385-0.75764 1.4902-1.3379 0.34413-0.56763 0.52539-1.2218 0.52539-1.8887 0-0.57499-0.1389-1.1395-0.41406-1.6328-0.11758-0.21077-0.35412-0.32122-0.51953-0.49609 0.44179-0.14087 0.72881-0.56695 0.69336-1.0293-0.11148-0.98128-0.50936-1.8727-1.2441-2.4355-0.72399-0.55455-1.6514-0.75779-2.6992-0.75781-0.83497 2.36e-5 -1.5559 0.099818-2.1875 0.39844-0.20091 0.094983-0.30894 0.29836-0.48633 0.42773-0.050048-0.12958-0.12654-0.24732-0.22461-0.3457-0.34512-0.15544-0.68568-0.27626-1.0293-0.35742-0.34494-0.081446-0.6992-0.12305-1.0547-0.12305-0.62468 0-1.2377 0.13078-1.8066 0.38281-0.53668 0.23776-1.0128 0.58257-1.4258 0.99805-0.41574-0.40913-0.88862-0.75986-1.4355-0.99414-0.60847-0.26054-1.2722-0.38667-1.957-0.38672zm0 1c0.56391 4.22e-5 1.0854 0.10233 1.5625 0.30664 0.47715 0.20439 0.88653 0.48784 1.2305 0.84961 0.24294 0.25561 0.44804 0.54193 0.61523 0.85938 0.17559-0.33504 0.38793-0.63336 0.63867-0.89453 0.33772-0.35174 0.7296-0.62655 1.1758-0.82422 0.44616-0.19765 0.91279-0.29688 1.4023-0.29688 0.27885 0 0.55466 0.032056 0.82422 0.095703 0.26956 0.063668 0.55215 0.1629 0.84961 0.29688v2.3516c-0.42139-0.55609-0.94086-0.83396-1.5605-0.83398-0.27265 2.16e-5 -0.52544 0.052979-0.75781 0.16016-0.2324 0.10722-0.4323 0.25327-0.59961 0.4375-0.16732 0.18428-0.30044 0.40361-0.39648 0.6582-0.09606 0.25461-0.14258 0.52942-0.14258 0.82422 0 0.30153 0.04652 0.5794 0.14258 0.83398 0.09604 0.25461 0.22998 0.47646 0.40039 0.66406 0.17042 0.18762 0.37033 0.33423 0.59961 0.44141 0.22928 0.10722 0.47767 0.16018 0.74414 0.16016 0.5825 2e-5 1.1055-0.26669 1.5703-0.80274v0.02149l2.1035-0.14258c0.04554 0.3694 0.13938 0.65027 0.2793 0.84375 0.22776 0.31312 0.55161 0.47072 0.97461 0.4707 0.3156 2.1e-5 0.55962-0.08015 0.73047-0.24024 0.17081-0.16006 0.25586-0.34554 0.25586-0.55664 0-0.2005-0.08145-0.38074-0.24414-0.53906-0.16269-0.1583-0.54065-0.30654-1.1328-0.44726-0.96964-0.2357-1.661-0.54894-2.0742-0.93945-0.41648-0.39049-0.62305-0.88904-0.62305-1.4941 0-0.39754 0.10524-0.77339 0.31836-1.127 0.21312-0.35356 0.53307-0.6317 0.96094-0.83398 0.42785-0.20228 1.0146-0.30272 1.7598-0.30274 0.91429 2.11e-5 1.6119 0.18318 2.0918 0.55078 0.47992 0.36765 0.7663 0.95376 0.85742 1.7559l-2.084 0.13086c-0.055325-0.34829-0.17229-0.60144-0.34961-0.75977-0.17732-0.15828-0.42201-0.23631-0.73438-0.23633-0.25704 2.17e-5 -0.44994 0.057942-0.58008 0.17578-0.13017 0.11786-0.19533 0.26083-0.19531 0.42969-1.9e-5 0.12313 0.05275 0.23547 0.16016 0.33398 0.1041 0.10204 0.35172 0.19527 0.74219 0.2832 0.96635 0.22517 1.6581 0.45318 2.0762 0.68359 0.4181 0.23046 0.72176 0.51619 0.91211 0.85742 0.19033 0.34125 0.28711 0.72433 0.28711 1.1465 0 0.49606-0.12706 0.95247-0.38086 1.3711-0.25379 0.41865-0.60894 0.73678-1.0645 0.95312-0.45553 0.21639-1.0296 0.32424-1.7227 0.32422-1.2169 2.1e-5 -2.0608-0.25317-2.5293-0.75977-0.46855-0.5066-0.73313-1.1506-0.79492-1.9316v2.3086l-0.18555 0.070312c-0.27886 0.10722-0.53958 0.18609-0.78125 0.23633-0.24168 0.05026-0.47938 0.076172-0.71484 0.076172-0.48337 0-0.94756-0.099208-1.3906-0.29688-0.44307-0.19763-0.8322-0.47552-1.1699-0.83398-0.2489-0.26417-0.46214-0.56538-0.63867-0.90234-0.16887 0.32456-0.37752 0.61662-0.625 0.87695-0.34394 0.36185-0.75332 0.6453-1.2305 0.84961-0.47715 0.20439-0.99859 0.30668-1.5625 0.30664-0.57011 4.3e-5 -1.0924-0.10225-1.5664-0.30664-0.47406-0.20431-0.87987-0.48776-1.2207-0.84961-0.34083-0.36177-0.60869-0.7857-0.80078-1.2715-0.19209-0.48574-0.28711-1.0094-0.28711-1.5723 0-0.56278 0.095018-1.0865 0.28711-1.5723 0.19209-0.48574 0.45995-0.90965 0.80078-1.2715 0.34083-0.36177 0.74665-0.64521 1.2207-0.84961 0.47404-0.20431 0.99629-0.3066 1.5664-0.30664zm0 1.9102c-0.26645 2.17e-5 -0.51924 0.05046-0.75781 0.1543-0.23859 0.10388-0.44726 0.24992-0.62695 0.4375-0.17973 0.18762-0.32241 0.40947-0.42773 0.66406-0.10535 0.25463-0.1582 0.53252-0.1582 0.83398 0 0.30155 0.052855 0.57942 0.1582 0.83398 0.10533 0.25463 0.24801 0.47648 0.42773 0.66406 0.17969 0.18764 0.38836 0.33368 0.62695 0.4375 0.23857 0.10388 0.49136 0.15432 0.75781 0.1543 0.26647 2e-5 0.51924-0.05042 0.75781-0.1543 0.23857-0.10382 0.45001-0.24986 0.63281-0.4375 0.18282-0.18758 0.32629-0.40943 0.43164-0.66406 0.10533-0.25457 0.1582-0.53244 0.1582-0.83398 0-0.30146-0.052874-0.57935-0.1582-0.83398-0.10535-0.25459-0.24882-0.47644-0.43164-0.66406-0.1828-0.18758-0.39424-0.33362-0.63281-0.4375-0.23857-0.10384-0.49134-0.15428-0.75781-0.1543zm0 1c0.14033 1.2e-5 0.24914 0.02233 0.35938 0.07031 0.12232 0.05326 0.21959 0.1214 0.31445 0.21875 0.090343 0.09272 0.16343 0.20177 0.22461 0.34961 0.052282 0.12639 0.082031 0.26664 0.082031 0.45117 0 0.18465-0.029787 0.3249-0.082031 0.45117-0.061174 0.14786-0.13434 0.25699-0.22461 0.34961-0.09482 0.09733-0.19229 0.16559-0.31445 0.21875-0.11017 0.04797-0.21914 0.07032-0.35938 0.07031-0.14021 1e-5 -0.24923-0.02235-0.35938-0.07031-0.11957-0.052022-0.21126-0.11736-0.30273-0.21289-0.090135-0.094072-0.16474-0.20601-0.22656-0.35547-0.052224-0.1262-0.082031-0.26648-0.082031-0.45117 0-0.18458 0.02977-0.32485 0.082031-0.45117 0.061826-0.14944 0.13636-0.2613 0.22656-0.35547 0.091518-0.09554 0.183-0.16076 0.30273-0.21289 0.11022-0.04797 0.21907-0.0703 0.35938-0.07031zm6.7383 0c0.32077 1.1e-5 0.48436 0.0689 0.76367 0.4375 0.09529 0.04714 0.19748 0.07879 0.30273 0.09375 0.13047 0.32228 0.34048 0.60114 0.57422 0.85938l-0.14844 0.0098c-0.22992 0.02737-0.44323 0.13368-0.60352 0.30078-0.02829 0.0059-0.05631 0.01311-0.08398 0.02148-0.32905 0.37952-0.53723 0.45704-0.81445 0.45703-0.13394 1e-5 -0.22762-0.02306-0.32031-0.06641-0.11437-0.05347-0.20017-0.11561-0.2832-0.20703-0.08193-0.09019-0.1497-0.19889-0.20508-0.3457-0.04887-0.12951-0.07813-0.2818-0.07813-0.48047 0-0.18959 0.0283-0.33866 0.07813-0.4707 0.05527-0.14652 0.12186-0.2525 0.20117-0.33984 0.07759-0.08545 0.16051-0.14727 0.27734-0.20117 0.09566-0.04412 0.19663-0.06835 0.33984-0.06836zm-7.998 7.3066c-0.1326 2e-5 -0.25976 0.05271-0.35352 0.14648-0.19521 0.19525-0.19521 0.51178 0 0.70703 1.8752 1.8752 4.4183 2.9297 7.0703 2.9297 2.652 0 5.1951-1.0545 7.0703-2.9297 0.19521-0.19525 0.19521-0.51178 0-0.70703-0.19525-0.19521-0.51178-0.19521-0.70703 0-1.688 1.688-3.9761 2.6367-6.3633 2.6367-2.3871 0-4.6753-0.94876-6.3633-2.6367-0.093753-0.093773-0.22092-0.14646-0.35352-0.14648z" style="fill-opacity:.5;fill:currentColor"/>
</svg>
