<?xml version="1.0" encoding="UTF-8"?>
<svg id="g" width="24" height="24" version="1.1" xmlns="http://www.w3.org/2000/svg" xmlns:cc="http://creativecommons.org/ns#" xmlns:dc="http://purl.org/dc/elements/1.1/" xmlns:rdf="http://www.w3.org/1999/02/22-rdf-syntax-ns#">
	<metadata id="a">
		<rdf:RDF>
			<cc:Work rdf:about="">
				<dc:format>image/svg+xml</dc:format>
				<dc:type rdf:resource="http://purl.org/dc/dcmitype/StillImage"/>
			</cc:Work>
		</rdf:RDF>
	</metadata>
	<defs>
		<style id="current-color-scheme" type="text/css">.ColorScheme-Text {color:#090d11;}.ColorScheme-Background{color:#ffffff;}</style>
	</defs>
	<path id="f" class="ColorScheme-Text" d="m10.906 4.1552-8.209 2.2012c-0.26697 0.070656-0.42612 0.34435-0.35547 0.61133l3.3662 12.558c0.071526 0.26618 0.34495 0.42429 0.61133 0.35352l8.2109-2.2012c0.26618-0.07153 0.42429-0.34495 0.35352-0.61133l-3.3643-12.558c-0.0715-0.26715-0.34627-0.42554-0.61328-0.35352zm1.8628 0.90594 3.4076 12.939c0.0459 0.16872 0.14175 0.3166 0.31661 0.31661 0.17486 6e-6 0.5-0.04046 0.5-0.31661l4e-6 -12.5c-2.9e-5 -0.27613-0.22387-0.49997-0.5-0.5zm-2.154 0.38013 3.0202 11.269-7.0247 1.8826-3.0202-11.269zm7.3838 0.12951-0.03535 12.817c-0.0424 0.15952 0.05229 0.32327 0.2117 0.36608 0.1599 0.04315 0.32446-0.0517 0.36726-0.2117l3.1255-11.571c0.07078-0.26638-0.08734-0.5398-0.35352-0.61133z" fill="currentColor" fill-opacity=".75"/>
	<path id="h" class="ColorScheme-Background" d="m11.609 2.9071-10.162 2.7227c-0.26618 0.071525-0.42429 0.34495-0.35352 0.61133l3.8877 14.509c0.071525 0.26618 0.34495 0.42429 0.61133 0.35352l10.162-2.7227c0.26716-0.0715 0.42554-0.34627 0.35352-0.61328l-3.8877-14.507c-0.071525-0.26618-0.34495-0.42429-0.61133-0.35352zm-0.22461 1.0938 3.628 13.544-9.1953 2.4648-3.6299-13.544zm2.835-8.713e-4c-0.27614 1e-7 -0.5 0.22386-0.5 0.5-1e-6 0.27614 0.22386 0.5 0.5 0.5l2.7734 3e-7v13.5c-1e-6 0.27614 0.22386 0.5 0.5 0.5 0.27614 1e-6 0.5-0.22386 0.5-0.5l-1e-6 -14c-2.9e-5 -0.27613-0.22387-0.49997-0.5-0.5zm5.5454 0.92224c-0.20084 0.026426-0.36589 0.17142-0.41797 0.36719-0.07206 0.26702 0.08634 0.54181 0.35352 0.61328l2.106 0.563-3.2608 12.171c-0.07081 0.26638 0.08732 0.53982 0.35352 0.61133 0.26638 0.07081 0.53983-0.08732 0.61133-0.35352l3.3897-12.653c0.07078-0.26638-0.08734-0.5398-0.35352-0.61133l-2.5865-0.69386c-0.06357-0.017383-0.12994-0.02203-0.19531-0.013672z" fill="currentColor" fill-opacity=".5"/>
</svg>
