<?xml version="1.0" encoding="UTF-8"?>
<svg id="d" width="24" height="24" version="1.1" xmlns="http://www.w3.org/2000/svg" xmlns:cc="http://creativecommons.org/ns#" xmlns:dc="http://purl.org/dc/elements/1.1/" xmlns:rdf="http://www.w3.org/1999/02/22-rdf-syntax-ns#">
	<metadata id="a">
		<rdf:RDF>
			<cc:Work rdf:about="">
				<dc:format>image/svg+xml</dc:format>
				<dc:type rdf:resource="http://purl.org/dc/dcmitype/StillImage"/>
			</cc:Work>
		</rdf:RDF>
	</metadata>
	<defs id="e">
		<style id="current-color-scheme" type="text/css">.ColorScheme-Text {color:#090d11;}.ColorScheme-Background{color:#ffffff;}</style>
	</defs>
	<path class="ColorScheme-Text" d="m12 3c-2.216 0-5 1.784-5 4v7c0 1.1046-1.8954 2-3 2v1h3 2.1797 5.6484 3.1719 2v-1c-1.1046 0-3-0.89543-3-2v-7c0-2.216-2.784-4-5-4zm0 1c1.6793 0 4 1.3207 4 3v7c0 0.35428 0.07331 0.68883 0.19727 1h-4.1973-4.1973c0.12396-0.31117 0.19727-0.64572 0.19727-1v-7c0-1.6793 2.3207-3 4-3zm-3 14a3 3 0 0 0 3 3 3 3 0 0 0 3-3h-6z" style="fill-opacity:.75;fill:currentColor"/>
	<path id="c" class="ColorScheme-Background" d="m12 2c-2.7527 0-6 2.2473-6 5v7c0 0.56413-1.4359 1-2 1-0.55226 5.5e-5 -0.99994 0.44774-1 1v1c5.52e-5 0.55226 0.44774 0.99994 1 1h3 1c0 1.4275 0.76379 2.7511 2 3.4648 1.2362 0.71373 2.7638 0.71373 4 0s2-2.0374 2-3.4648h1 3c0.55226-5.5e-5 0.99994-0.44774 1-1v-1c-5.5e-5 -0.55226-0.44774-0.99994-1-1-0.56413 0-2-0.43587-2-1v-7c0-2.7527-3.2473-5-6-5zm0 1c0.1385 0 0.27536 0.0078804 0.41016 0.021484 0.003936 3.668e-4 0.007781-3.77e-4 0.011719 0 4.21e-4 3.81e-5 0.00347-3.82e-5 0.003906 0 0.15503 0.013562 1.2538 0.032334 1.3828 0.058594 0.13043 0.026555 0.25741 0.060768 0.38281 0.099609 0.1254 0.038842 0.24942 0.082346 0.36914 0.13281 0.11972 0.050469 0.23624 0.10653 0.34961 0.16797 0.11337 0.061435 0.22371 0.12943 0.33008 0.20117 0.10637 0.071742 0.20794 0.14908 0.30664 0.23047 0.1974 0.16278 0.37824 0.34361 0.54102 0.54102 0.08139 0.098701 0.15873 0.20027 0.23047 0.30664s0.13974 0.21671 0.20117 0.33008c0.06144 0.11337 0.1175 0.22989 0.16797 0.34961s0.093972 0.24374 0.13281 0.36914c0.038841 0.1254 0.07306 0.25238 0.09961 0.38281 0.02656 0.13043 0.044994 0.26364 0.058594 0.39844 0.005119 0.050706 0.00443 0.10303 0.007812 0.1543 0.008172 0.084528 0.013672 0.16995 0.013672 0.25586v7c0 0.48325 0.36264 0.92577 0.86328 1.2715 0.64368 0.44449 1.5154 0.72852 2.1367 0.72852v1h-5.1719a3 3 0 0 1 0.17188 1 3 3 0 0 1-3 3 3 3 0 0 1-3-3 3 3 0 0 1 0.17969-1h-5.1797v-1c0.069036 0 0.13784-0.002866 0.20508-0.009766 0.47064-0.047795 1.1423-0.2595 1.709-0.57617 0.61193-0.36192 1.0859-0.86176 1.0859-1.4141v-7c0-0.085905 0.0054996-0.17133 0.013672-0.25586 0.0033827-0.051266 0.0026952-0.10359 0.0078125-0.1543 0.013607-0.1348 0.032039-0.26801 0.058594-0.39844 0.026555-0.13043 0.060768-0.25741 0.099609-0.38281 0.038842-0.1254 0.082346-0.24942 0.13281-0.36914 0.050469-0.11972 0.10653-0.23624 0.16797-0.34961 0.061435-0.11337 0.12943-0.22371 0.20117-0.33008s0.14908-0.20794 0.23047-0.30664c0.16278-0.1974 0.34361-0.37824 0.54102-0.54102 0.098701-0.081389 0.20027-0.15873 0.30664-0.23047s0.2167-0.13974 0.33008-0.20117c0.11337-0.061436 0.22989-0.1175 0.34961-0.16797 0.11972-0.050469 0.24374-0.093974 0.36914-0.13281 0.1254-0.038842 0.25238-0.073055 0.38281-0.099609 0.12898-0.02626 1.2278-0.045031 1.3828-0.058594 0.14341-0.013848 0.28604-0.021484 0.42578-0.021484z" style="fill-opacity:.5;fill:currentColor"/>
</svg>
