<?xml version="1.0" encoding="UTF-8"?>
<svg id="a" width="24" height="24" version="1.1" xmlns="http://www.w3.org/2000/svg" xmlns:cc="http://creativecommons.org/ns#" xmlns:dc="http://purl.org/dc/elements/1.1/" xmlns:rdf="http://www.w3.org/1999/02/22-rdf-syntax-ns#">
	<metadata id="c">
		<rdf:RDF>
			<cc:Work rdf:about="">
				<dc:format>image/svg+xml</dc:format>
				<dc:type rdf:resource="http://purl.org/dc/dcmitype/StillImage"/>
				<dc:title/>
			</cc:Work>
		</rdf:RDF>
	</metadata>
	<defs>
		<style id="current-color-scheme" type="text/css">.ColorScheme-Text {color:#090d11;}.ColorScheme-Background{color:#ffffff;}</style>
	</defs>
	<path id="d" d="m6 4c-1.0907 0-2 0.9093-2 2v9c0 1.0907 0.9093 2 2 2h4c0.55228 0 1 0.4477 1 1h2c0-0.5523 0.44772-1 1-1h4c1.0907 0 2-0.9093 2-2v-9c0-1.0907-0.9093-2-2-2zm-1 1h14v11h-14zm11 1v1h1v-1zm1 1v1h1v-1zm-11 6v1h1v-1zm1 1v1h1v-1zm0 5v1h10v-1z" style="fill-opacity:.75;fill:currentColor" class="ColorScheme-Text"/>
	<path id="b" d="m4.5 3c-0.82235 0-1.5 0.6776-1.5 1.5v12c0 0.8224 0.67765 1.5 1.5 1.5h6.5c0-0.5523-0.44772-1-1-1h-4-1.5c-0.28565 0-0.5-0.2144-0.5-0.5v-1.5-9-1.5c0-0.2856 0.21435-0.5 0.5-0.5h1.5 12 1.5c0.28565 0 0.5 0.2144 0.5 0.5v1.5 9 1.5c0 0.2856-0.21435 0.5-0.5 0.5h-1.5-4c-0.55228 0-1 0.4477-1 1h6.5c0.82235 0 1.5-0.6776 1.5-1.5v-12c0-0.8224-0.67765-1.5-1.5-1.5zm8.5 15h-2v1h2zm3-13v1h1v-1zm1 1v1h1v-1zm1 1v1h1v-1zm-13 6v1h1v-1zm1 1v1h1v-1zm1 1v1h1v-1zm0 5v1h10v-1z" style="fill-opacity:.5;fill:currentColor" class="ColorScheme-Background"/>
</svg>
