<?xml version="1.0" encoding="UTF-8"?>
<svg id="d" width="24" height="24" version="1.1" xmlns="http://www.w3.org/2000/svg" xmlns:cc="http://creativecommons.org/ns#" xmlns:dc="http://purl.org/dc/elements/1.1/" xmlns:rdf="http://www.w3.org/1999/02/22-rdf-syntax-ns#">
	<metadata id="a">
		<rdf:RDF>
			<cc:Work rdf:about="">
				<dc:format>image/svg+xml</dc:format>
				<dc:type rdf:resource="http://purl.org/dc/dcmitype/StillImage"/>
				<dc:title/>
			</cc:Work>
		</rdf:RDF>
	</metadata>
	<defs>
		<style id="current-color-scheme" type="text/css">.ColorScheme-Text {color:#090d11;}.ColorScheme-Background{color:#ffffff;}</style>
	</defs>
	<path id="b" d="m13.5 3-1.5 2h1v7 4h1v-1.1875-2.8125-2.8125-2.4375-1.75h1zm-6 5c-1.933 0-3.5 1.7909-3.5 4s1.567 4 3.5 4c0.5448 0 1.041-0.15705 1.5-0.40625v-1c-0.2937 0.2541-0.6365 0.40625-1 0.40625-1.1046 0-2-1.3431-2-3s0.8954-3 2-3c0.3635 0 0.7063 0.15205 1 0.40625v-1c-0.459-0.2493-0.9552-0.40625-1.5-0.40625zm2.5 0v1.1875 2.8125 2.8125 2.4375 1.75h-1l1.5 2 1.5-2h-1v-7-4zm6.5 0c-0.5448 0-1.041 0.15705-1.5 0.40625v1c0.2937-0.2541 0.6365-0.40625 1-0.40625 1.1046 0 2 1.3431 2 3s-0.8954 3-2 3c-0.3635 0-0.7063-0.15205-1-0.40625v1c0.459 0.2493 0.9552 0.40625 1.5 0.40625 1.933 0 3.5-1.7909 3.5-4s-1.567-4-3.5-4z" style="fill-opacity:.75;fill:currentColor" class="ColorScheme-Text"/>
	<path id="c" d="m14.5 1-2.5 2h2v0.65625l1 1.3438v-2h2zm0.5 4h-1v1.75 2.125 0.3125 0.03125 2.7812 2.7812 0.03125 0.3125 0.875 1h1v-0.875c0.7123 0.5387 1.5706 0.875 2.5 0.875 2.4853 0 4.5-2.2386 4.5-5s-2.0147-5-4.5-5c-0.9294 0-1.7877 0.3363-2.5 0.875zm-8.5 2c-2.4853 0-4.5 2.2386-4.5 5s2.0147 5 4.5 5c0.9294 0 1.7877-0.3363 2.5-0.875v2.875h1v-1.75-2.125-0.3125-0.03125-2.7812-2.7812-0.03125-0.3125-0.875-1h-1v0.875c-0.7123-0.5387-1.5706-0.875-2.5-0.875zm2.5 12v2h-2l2.5 2 2.5-2h-2v-0.65625zm-1.5-11c0.5448 0 1.041 0.15695 1.5 0.40625v1 5.1875 1c-0.459 0.2492-0.9552 0.40625-1.5 0.40625-1.933 0-3.5-1.7909-3.5-4 0-0.2761 0.0165-0.5521 0.0625-0.8125 0.3264-1.8227 1.7461-3.1875 3.4375-3.1875zm9 0c1.933 0 3.5 1.7909 3.5 4 0 0.2761-0.0165 0.5521-0.0625 0.8125-0.3264 1.8227-1.7461 3.1875-3.4375 3.1875-0.5448 0-1.041-0.15705-1.5-0.40625v-1-5.1875-1c0.459-0.2493 0.9552-0.40625 1.5-0.40625z" style="fill-opacity:.5;fill:currentColor"  class="ColorScheme-Background"/>
</svg>
