<?xml version="1.0" encoding="UTF-8"?>
<svg id="d" width="24" height="24" version="1.1" xmlns="http://www.w3.org/2000/svg" xmlns:cc="http://creativecommons.org/ns#" xmlns:dc="http://purl.org/dc/elements/1.1/" xmlns:rdf="http://www.w3.org/1999/02/22-rdf-syntax-ns#">
	<metadata id="a">
		<rdf:RDF>
			<cc:Work rdf:about="">
				<dc:format>image/svg+xml</dc:format>
				<dc:type rdf:resource="http://purl.org/dc/dcmitype/StillImage"/>
			</cc:Work>
		</rdf:RDF>
	</metadata>
	<defs>
		<style id="current-color-scheme" type="text/css">.ColorScheme-Text {color:#090d11;}.ColorScheme-Background{color:#ffffff;}</style>
	</defs>
	<path class="ColorScheme-Text" d="m11.987 2.9638c-0.90838-2.166e-4 -1.8169 0.075555-2.7172 0.22918-1.7716 0.30216-3.5091 0.90328-5.1567 1.8004l-0.066209 0.033105v3.5601c0 2.0649 0.00271 3.1464 0.028011 3.7841 0.025302 0.63781 0.062371 0.7941 0.15788 1.1841 0.61355 2.5032 3.5198 6.4897 7.4842 8.3543v0.0026c8.48e-4 1e-6 0.0017 1e-6 0.0026 0 0.15487 0.07281 0.25495 0.11677 0.28775 0.12733 0.0205-4e-3 0.29204-0.11054 0.85817-0.39216 3.7955-1.8899 6.2839-5.5342 6.9036-8.059 0.09461-0.3858 0.13017-0.54093 0.15534-1.1816 0.02514-0.64066 0.02801-1.7294 0.02801-3.8019v-3.5702c-2.5143-1.3784-5.2403-2.0697-7.9655-2.0703zm-1.0408 3.3434 0.22859 0.00994 0.45469 0.00994 0.31058 0.042239 0.24846 0.094417 0.27828-0.062116 0.40748-0.00497 0.52426 0.054663 0.20871 0.054663 0.11429 0.062116 0.08199 0.12423-0.07205 0.072055-0.79757 0.30064-0.08199 0.032301-0.33294 0.2584-0.2261 0.34288-0.10435 0.18634s0.08167 0.42535 0.09194 0.46712c0.01056 0.041079 0.16647 0.34288 0.16647 0.34288l0.7454 0.51682 0.59134 0.41493-0.08199 0.042239 0.2261 0.18386-0.06212 0.034785 0.18884 0.3081-0.10683 0.05714 0.25096 0.40748-0.14163 0.04473 0.21866 0.37767-0.13169 0.02236 0.35531 0.79509 0.08199 0.46712-0.10435 0.32052 0.17641 0.32301 0.15654 0.405-0.0099 0.38263 0.16647 0.56154 0.70067 0.71558 0.33294 0.43482-0.06212 0.15654 0.15404 0.46712-0.20623 0.34288s-0.32169 0.04224-0.36276 0.04224c-0.04211 0-0.50687-0.16647-0.50687-0.16647l-0.68328-0.53917-0.51929-0.61371-0.0099 0.67582 0.09442 0.17641-0.02236 0.06212 0.12672 0.07454 0.08696 0.23853v0.2112l-0.09194-0.18634-0.05466 0.04969-0.06957 0.01988-0.20376-0.02236-0.13915-0.02236-0.16895 0.05714-0.25096 5e-3 -0.02733-0.11181-0.08199 0.01247-0.16647 0.07703-0.07951-0.05218-5e-3 -0.10435-0.05962 0.01988-0.06212 0.08199-0.04473 0.12174-0.02733-0.12174 0.03478-0.11926 0.08944-0.09939 0.21616-0.02982 0.11678 0.01491 0.1938 0.03478 0.18884-0.05962 0.0323-0.07703 0.04473-0.11678 0.05218-0.08448 0.07205-0.13417 0.01988-0.16647-0.05217-0.73548-0.14411-0.18634-1.0262-0.73794h-0.0721l-1.2001-0.29071 0.06212 0.22859 0.13417 0.28076s-0.01988 0.43598-0.01988 0.47705c0 0.04142-0.10435 0.19629-0.10435 0.19629l-0.08448 0.10435-0.21616 0.26089-0.24846 0.41245-0.18634 0.26089-0.08199 0.2112 0.07703 0.02485 0.05218 0.0969 0.10684 0.04223 0.11926-0.06709 0.11926 0.04969 0.10933-0.04223s0.16018 0.03453 0.20125 0.02982c0.04108-0.0041 0.10435 0.08199 0.10435 0.08199l0.08944 0.15902 5e-3 0.13417-0.07454-0.10683-0.11429-0.09194-0.14163-0.04721 0.0075 0.07205-0.02485 0.13915-0.20623 0.02236-0.14411-0.06708-0.13169 0.03478-0.0969-0.04224-0.18634 0.01988s-0.25211-0.02459-0.29319-0.01988c-0.041421 0.0041-0.27828 0.01988-0.27828 0.01988l-0.2758-0.0323-0.15404 0.0075-0.27083 0.09194-0.019877-0.16647-0.17145 0.04969-0.10187 0.11678 0.022362-0.18138 0.15404-0.11926 0.19877 0.0099 0.20125 0.02982 0.094417-0.09442 0.15404-0.0075 0.1292-0.0646 0.23107 5e-3 0.13169-0.10685 0.17889-0.13915 0.57146-1.0386-0.16647-0.8398-0.0323-0.0323-0.46465-0.55912-0.39506-0.87212-0.10187-0.42487-0.23853-0.21866-0.18639-0.33295-0.091932-0.36276-0.054663-1.0063v-0.48699l0.16647-0.34288 0.30064-0.45718v-0.091931l0.062119-0.4373 0.12424-0.405 0.19629-0.42487 0.042235-0.22859 0.072054-0.2584 0.58141-0.67582z" style="fill-opacity:.75;fill:currentColor"/>
	<path class="ColorScheme-Text" d="m12 2.9638-1e-6 3.4278 0.18884 0.072055 0.27828-0.062116 0.40748-0.00497 0.52426 0.054663 0.20871 0.054663 0.11429 0.062116 0.08199 0.12423-0.07205 0.072055-0.79757 0.30064-0.08199 0.032301-0.33294 0.2584-0.2261 0.34288-0.10435 0.18634s0.08167 0.42535 0.09194 0.46712c0.01056 0.041079 0.16647 0.34288 0.16647 0.34288l0.7454 0.51681 0.59134 0.41493-0.08199 0.042239 0.2261 0.18386-0.06212 0.034785 0.18884 0.3081-0.10683 0.05714 0.25096 0.40748-0.14163 0.04473 0.21866 0.37767-0.13169 0.02236 0.35531 0.79509 0.08199 0.46712-0.10435 0.32052 0.17641 0.32301 0.15654 0.405-0.0099 0.38263 0.16647 0.56154 0.70067 0.71558 0.33294 0.43482-0.06212 0.15654 0.15404 0.46712-0.20623 0.34288s-0.32169 0.04224-0.36276 0.04224c-0.04211 0-0.50687-0.16647-0.50687-0.16647l-0.68328-0.53917-0.51929-0.61371-0.0099 0.67582 0.09442 0.17641-0.02236 0.06212 0.12672 0.07453 0.08696 0.23853v0.2112l-0.09194-0.18634-0.05466 0.04969-0.06957 0.01988-0.20376-0.02236-0.13915-0.02236-0.16895 0.05714-0.25096 5e-3 -0.02733-0.11181-0.08199 0.01247-0.16647 0.07703-0.07951-0.05218-5e-3 -0.10435-0.05963 0.01988-0.06212 0.08199-0.04473 0.12174-0.02733-0.12174 0.03478-0.11926 0.08944-0.09939 0.21616-0.02982 0.11678 0.01491 0.1938 0.03478 0.18884-0.05963 0.0323-0.07703 0.04473-0.11678 0.05218-0.08448 0.07205-0.13417 0.01988-0.16647-0.05217-0.73548-0.14411-0.18634-1.0262-0.73794h-0.07211l-0.32301-0.07701v8.1485c9.23e-4 3.09e-4 0.0068 0.0022 0.0077 0.0026 0.0205-4e-3 0.29204-0.11054 0.85817-0.39216 3.7955-1.8899 6.2839-5.5342 6.9036-8.059 0.0946-0.3858 0.13017-0.54093 0.15534-1.1816 0.02514-0.64066 0.02801-1.7294 0.02801-3.8019v-3.5703c-2.5104-1.3763-5.2318-2.0675-7.9528-2.0703z" style="fill-opacity:.75;fill:currentColor"/>
	<path class="ColorScheme-Background" d="m12 1.9112c-0.96241-3.482e-4 -1.9241 0.080834-2.8772 0.2435-1.8674 0.31851-3.6975 0.94941-5.4264 1.8908l-0.39506 0.21368c-0.20509 0.1112-0.33287 0.32574-0.33294 0.55904v3.8512c0 2.0155 0.00305 3.0674 0.029816 3.7419 0.026758 0.67452 0.090908 1.0089 0.18884 1.4088 0.7543 3.0776 3.8817 7.0904 7.9957 9.0254 0.14739 0.06933 0.26988 0.13342 0.43482 0.18634 0.16492 0.05292 0.38491 0.0781 0.58141 0.04721 0.393-0.06178 0.66001-0.22953 1.2125-0.50438 3.924-1.9539 6.6651-5.7115 7.4042-8.7223 0.09727-0.39663 0.15976-0.72954 0.18634-1.4064 0.02659-0.67678 0.02982-1.7363 0.02982-3.7593v-3.8686c1.9e-5 -0.23136-0.12557-0.44449-0.32797-0.55656l-0.28077-0.15404c-2.6467-1.4616-5.5357-2.1953-8.423-2.1965zm-0.01278 1.0526c2.7251 6.494e-4 5.4513 0.69191 7.9655 2.0703v3.5702c0 2.0725-0.0029 3.1612-0.02801 3.8019-0.02516 0.64066-0.06073 0.79578-0.15534 1.1816-0.61977 2.5247-3.1082 6.1691-6.9036 8.059-0.56613 0.28162-0.83768 0.38816-0.85817 0.39216-0.0328-0.01056-0.1329-0.05453-0.28775-0.12733-8.49e-4 -1e-6 -0.0017-1e-6 -0.0025 0v-0.0026c-3.9644-1.8646-6.8707-5.851-7.4841-8.3543-0.09554-0.39002-0.13261-0.54632-0.15791-1.1841-0.025294-0.6378-0.14547-1.7227-0.028011-3.7841v-3.5601l0.066209-0.033105c1.6476-0.8971 3.3851-1.4982 5.1567-1.8004 0.90022-0.15363 1.8088-0.22941 2.7172-0.22918zm-1.0407 3.3434-0.38263 0.14411-0.58141 0.67582-0.072054 0.2584-0.042235 0.22859-0.19629 0.42487-0.12424 0.405-0.062119 0.4373v0.091932l-0.30064 0.45717-0.16647 0.34288v0.48699l0.054663 1.0063 0.091933 0.36276 0.18634 0.33294 0.23853 0.21866 0.10187 0.42487 0.39506 0.87212 0.46462 0.55904 0.0323 0.0323 0.16647 0.83982-0.57147 1.0386-0.17889 0.13915-0.13169 0.10685-0.23107-5e-3 -0.1292 0.0646-0.15404 0.0075-0.094417 0.09442-0.20125-0.02982-0.19877-0.0099-0.15404 0.11926-0.022362 0.18138 0.10187-0.11678 0.17145-0.04969 0.019877 0.16647 0.27083-0.09194 0.15404-0.0075 0.2758 0.0323s0.23686-0.01578 0.27828-0.01988c0.041078-0.0047 0.29319 0.01988 0.29319 0.01988l0.18634-0.01988 0.0969 0.04224 0.13169-0.03478 0.14411 0.06708 0.20623-0.02236 0.02484-0.13915-0.0075-0.07205 0.14163 0.04721 0.11429 0.09194 0.07453 0.10683-5e-3 -0.13417-0.08944-0.15902s-0.06328-0.08609-0.10435-0.08199c-0.04108 0.0047-0.20125-0.02982-0.20125-0.02982l-0.10933 0.04224-0.11926-0.04969-0.11926 0.06709-0.10684-0.04223-0.05218-0.0969-0.07703-0.02485 0.08199-0.2112 0.18634-0.26089 0.24846-0.41245 0.21616-0.26089 0.08448-0.10435s0.10435-0.15487 0.10435-0.19629c0-0.04108 0.01988-0.47705 0.01988-0.47705l-0.13416-0.28079-0.06212-0.22859 1.2001 0.29071h0.07205l1.0262 0.73794 0.14411 0.18634 0.05218 0.73545-0.01988 0.16647-0.07205 0.13417-0.05218 0.08448-0.04473 0.11678-0.0323 0.07703-0.18884 0.05962-0.1938-0.03478-0.11678-0.01491-0.21616 0.02982-0.08944 0.09939-0.03478 0.11926 0.02733 0.12174 0.04473-0.12174 0.06212-0.08199 0.05962-0.01988 5e-3 0.10435 0.07951 0.05218 0.16647-0.07703 0.08199-0.01247 0.02733 0.11181 0.25096-5e-3 0.16895-0.05715 0.13915 0.02237 0.20375 0.02236 0.06957-0.01988 0.05466-0.04969 0.09194 0.18634v-0.2112l-0.08696-0.23853-0.12672-0.07453 0.02236-0.06212-0.09442-0.17641 0.0099-0.67582 0.51929 0.61371 0.68328 0.53917s0.46476 0.16647 0.50687 0.16647c0.04108 0 0.36276-0.04223 0.36276-0.04223l0.20623-0.34288-0.15404-0.46712 0.06212-0.15654-0.33294-0.4348-0.70067-0.71558-0.16647-0.56154 0.0099-0.38263-0.15654-0.405-0.17641-0.32301 0.10435-0.32052-0.08199-0.46712-0.35531-0.79509 0.13177-0.02236-0.21866-0.37767 0.14163-0.04473-0.25096-0.40747 0.10683-0.05715-0.18884-0.3081 0.06212-0.034785-0.2261-0.18386 0.08199-0.042239-0.59134-0.41493-0.7454-0.51681s-0.15586-0.3018-0.16647-0.34288c-0.01031-0.041763-0.09194-0.46712-0.09194-0.46712l0.10435-0.18634 0.2261-0.34288 0.33294-0.2584 0.08199-0.032301 0.79757-0.30064 0.07205-0.072058-0.08199-0.12423-0.11429-0.062116-0.20871-0.054663-0.52426-0.054663-0.40748 0.00497-0.27828 0.062116-0.24846-0.094417-0.31058-0.042239-0.45469-0.00994z" style="fill-opacity:.5;fill:currentColor"/>
</svg>
