<?xml version="1.0" encoding="UTF-8"?>
<svg id="g" width="24" height="24" version="1.1" xmlns="http://www.w3.org/2000/svg" xmlns:cc="http://creativecommons.org/ns#" xmlns:dc="http://purl.org/dc/elements/1.1/" xmlns:rdf="http://www.w3.org/1999/02/22-rdf-syntax-ns#">
	<defs id="b">
		<style id="current-color-scheme" type="text/css">.ColorScheme-Text{color:#090d11;}.ColorScheme-Background{color:#ffffff;}</style>
	</defs>
	<metadata id="a">
		<rdf:RDF>
			<cc:Work rdf:about="">
				<dc:format>image/svg+xml</dc:format>
				<dc:type rdf:resource="http://purl.org/dc/dcmitype/StillImage"/>
			</cc:Work>
		</rdf:RDF>
	</metadata>
	<path id="f" class="ColorScheme-Text" d="m7 3c-1.108 0-2 0.892-2 2h2c1.0907 0 2 0.9093 2 2s-0.9093 2-2 2h-2v1h2c1.0907 0 2 0.9093 2 2s-0.9093 2-2 2h-2v1h2c1.0907 0 2 0.9093 2 2s-0.9093 2-2 2h-2c0 1.108 0.892 2 2 2h10c1.108 0 2-0.89201 2-2v-14c0-1.108-0.892-2-2-2h-10zm-2 3c-0.554 0-1 0.446-1 1s0.446 1 1 1h2c0.554 0 1-0.446 1-1s-0.446-1-1-1h-2zm0 5c-0.554 0-1 0.446-1 1s0.446 1 1 1h2c0.554 0 1-0.446 1-1s-0.446-1-1-1h-2zm0 5c-0.554 0-1 0.446-1 1s0.446 1 1 1h2c0.554 0 1-0.446 1-1s-0.446-1-1-1h-2z" style="fill-opacity:.75;fill:currentColor"/>
</svg>
