<?xml version="1.0" encoding="UTF-8"?>
<svg id="d" width="24" height="24" version="1.1" xmlns="http://www.w3.org/2000/svg" xmlns:cc="http://creativecommons.org/ns#" xmlns:dc="http://purl.org/dc/elements/1.1/" xmlns:rdf="http://www.w3.org/1999/02/22-rdf-syntax-ns#">
	<metadata id="a">
		<rdf:RDF>
			<cc:Work rdf:about="">
				<dc:format>image/svg+xml</dc:format>
				<dc:type rdf:resource="http://purl.org/dc/dcmitype/StillImage"/>
			</cc:Work>
		</rdf:RDF>
	</metadata>
	<defs id="e">
		<style id="current-color-scheme" type="text/css">.ColorScheme-Text {color:#090d11;}.ColorScheme-Background{color:#ffffff;}</style>
	</defs>
	<path id="b" class="ColorScheme-Text" d="m9.9727 2c-0.06191 3.807e-4 -0.12327 0.0029094-0.18555 0.0058594-1.9927 0.094453-3.6896 1.4949-4.1602 3.4336-0.47056 1.9387 0.39539 3.9595 2.123 4.957 0.00647 0.0021 0.012982 0.00396 0.019531 0.00586 0.0082801 0.0061 0.016748 0.011978 0.025391 0.017578l1.3926 0.62891c-3.4789 0.40396-6.1875 3.3655-6.1875 6.9512v2.2129c-2.8e-6 0.55229 0.44771 1 1 1 0.55229 3e-6 1-0.44771 1-1v-2.2129c0-2.7873 2.2127-5 5-5s5 2.2127 5 5v2.2129c-3e-6 0.55229 0.44771 1 1 1 0.55229 3e-6 1-0.44771 1-1v-2.2129c0-2.7484-1.5908-5.1305-3.9004-6.2754-0.02179-0.01413-0.044639-0.026529-0.068359-0.037109l-4.7988-2.168c-1.3348-0.7814-1.9981-2.3409-1.6328-3.8457 0.36692-1.5117 1.6805-2.5963 3.2344-2.6699 1.5538-0.07365 2.9664 0.88132 3.4746 2.3516 0.50826 1.4702-0.011737 3.0944-1.2793 3.9961-0.22488 0.1602-0.27735 0.47235-0.11719 0.69727 0.1602 0.22488 0.47236 0.27735 0.69727 0.11719 1.6256-1.1564 2.2964-3.2512 1.6445-5.1367-0.63146-1.8266-2.3622-3.0411-4.2812-3.0293zm4.0547 0c-0.26638-0.00164-0.52848 0.024386-0.78516 0.068359 0.37233 0.27321 0.7128 0.58717 1.0059 0.94336 1.5175 0.10758 2.792 1.1774 3.1523 2.6621 0.3653 1.5048-0.29801 3.0643-1.6328 3.8457l-1.8516 0.83594c-0.14684 0.14906-0.30197 0.29018-0.46484 0.42188 1.4205 0.679 2.6049 1.7668 3.4102 3.1094 1.2972 0.89789 2.1387 2.3957 2.1387 4.1133v2.2129c0 0.55229 0.44771 1 1 1s1-0.44771 1-1v-2.2129c0-3.5857-2.7086-6.5472-6.1875-6.9512l1.3926-0.62891c0.0086-0.0056 0.017091-0.011478 0.025391-0.017578 0.0066-0.0019 0.013031-0.00376 0.019531-0.00586 1.7277-0.9975 2.5936-3.0183 2.123-4.957s-2.1675-3.3391-4.1602-3.4336c-0.062278-0.002908-0.12364-0.0054787-0.18555-0.0058594z" style="fill-opacity:.75;fill:currentColor"/>
	<path id="c" class="ColorScheme-Background" d="m10 1c-3.0316 0-5.5 2.4684-5.5 5.5 0 1.7258 0.80056 3.2681 2.0488 4.2773-2.6924 1.2869-4.5488 4.0356-4.5488 7.2227v3.5c0 0.27614 0.22386 0.5 0.5 0.5s0.5-0.22386 0.5-0.5v-3.5c0-0.16309 0.0065501-0.32404 0.017578-0.48438 0.00298-0.04434 0.0059656-0.088712 0.0097657-0.13281 0.011929-0.13583 0.029222-0.27079 0.048828-0.4043 0.010415-0.07219 0.022583-0.14341 0.035156-0.21484 0.012086-0.06756 0.025046-0.13429 0.039062-0.20117 0.034757-0.16848 0.076535-0.33435 0.12305-0.49805v-0.001953c0.61144-2.1499 2.2119-3.8693 4.291-4.6328 0.00391 0.001899 0.0077998 0.003859 0.011719 0.005859 0.51203-0.18952 1.0513-0.32169 1.6113-0.38672l-1.3926-0.62891c-0.00864-0.0056-0.01711-0.011458-0.025391-0.017578-0.0065499-0.0018-0.013061-0.00376-0.019531-0.00586-0.027506-0.01588-0.053011-0.034391-0.080078-0.050781-0.00316 9.58e-4 -0.0066057 9.44e-4 -0.0097657 0.001953-0.79642-0.48421-1.427-1.2107-1.7969-2.0762-0.13553-0.31713-0.23688-0.65186-0.29688-1.002-0.0026-0.01492-0.0053624-0.029968-0.0078124-0.044922-0.016133-0.1002-0.027672-0.20235-0.037109-0.30469-0.00141-0.014961-0.0026363-0.029936-0.0039063-0.044922-0.00771-0.093787-0.01176-0.18785-0.013672-0.2832-5.31e-4 -0.025493-0.0038062-0.050634-0.0039062-0.076172-1.79e-5 -0.00526 0-0.010362 0-0.015625 0-0.018459 0.0017331-0.036282 0.0019531-0.054688 0.00141-0.11817 0.0086503-0.23674 0.019531-0.35547 0.00449-0.049975 0.011474-0.098952 0.017578-0.14844 0.010203-0.081438 0.022327-0.16274 0.037109-0.24414 0.011783-0.065687 0.024474-0.13066 0.039062-0.19531 0.00474-0.020818 0.0066697-0.041699 0.011719-0.0625 0.00915-0.037707 0.021177-0.074032 0.03125-0.11133 0.020618-0.076892 0.041889-0.15333 0.066406-0.22852 0.014024-0.042816 0.029684-0.08476 0.044922-0.12695 0.10836-0.30119 0.24728-0.58823 0.41406-0.85547 0.0060399-0.00965 0.011471-0.019694 0.017578-0.029297 0.055823-0.087951 0.11611-0.17222 0.17773-0.25586 0.013013-0.017626 0.025804-0.035313 0.039063-0.052734 0.065172-0.085802 0.13208-0.1692 0.20312-0.25 0.0039499-0.00449 0.0077497-0.0091999 0.011719-0.013672 0.076169-0.085923 0.15581-0.16821 0.23828-0.24805 0.25536-0.24719 0.53927-0.46316 0.84766-0.64453 0.094732-0.055716 0.19197-0.10744 0.29102-0.15625 0.02009-0.00993 0.040287-0.01966 0.060547-0.029297 0.09591-0.045488 0.19345-0.088189 0.29297-0.12695 0.11142-0.043401 0.22427-0.084548 0.33984-0.11914 0.11557-0.034826 0.23255-0.064284 0.35156-0.089844 0.07009-0.014916 0.14162-0.025483 0.21289-0.037109 0.06469-0.010683 0.12981-0.021415 0.19531-0.029297 0.06529-0.00773 0.13115-0.012655 0.19727-0.017578 0.04256-0.00323 0.084113-0.0096897 0.12695-0.011719 0.06227-0.00295 0.12364-0.0054794 0.18555-0.0058594 0.0059001-3.62e-5 0.011688 1.31e-5 0.017578 0 0.01965-4.38e-5 0.038984 0.0017431 0.058594 0.0019531 0.12009 0.0013 0.23914 0.0087903 0.35742 0.019531 0.05127 0.00457 0.10159 0.011317 0.15234 0.017578 0.066918 0.0083948 0.13315 0.018015 0.19922 0.029297 0.01106 0.0018885 0.022154 0.0038793 0.033204 0.0058594 0.093567 0.016725 0.18551 0.03631 0.27734 0.058594 0.003846 9.333e-4 0.007876 0.0010102 0.011719 0.0019531 0.006572 0.0017284 0.012968 0.0041123 0.019531 0.0058594 0.20126 0.050336 0.39906 0.1126 0.58984 0.18945 0.1054 0.042456 0.20899 0.090171 0.31055 0.14062 0.0013 6.449e-4 0.002607 0.0013073 0.003906 0.0019531 0.09833 0.04887 0.19501 0.10056 0.28906 0.15625 0.0045 0.00268 0.009202 0.0051225 0.013672 0.0078126 0.0068 0.0040599 0.012751 0.0095798 0.019531 0.013672 0.29028 0.17533 0.55844 0.38093 0.80078 0.61523 0.0726 0.07019 0.14124 0.14383 0.20898 0.21875 0.0099 0.010922 0.021459 0.020226 0.03125 0.03125 0.004899 0.00554 0.008801 0.012012 0.013671 0.017578 0.06205 0.0707 0.12212 0.14226 0.17969 0.2168 0.023 0.029723 0.046079 0.059496 0.068359 0.089844 0.05066 0.069116 0.099765 0.13888 0.14648 0.21094 0.01825 0.028092 0.035084 0.057382 0.052734 0.085938 0.08982 0.14555 0.17107 0.29711 0.24414 0.45312 0.01935 0.041246 0.040433 0.081044 0.058593 0.12305 0.02367 0.054829 0.042933 0.11203 0.064453 0.16797 0.019131 0.049582 0.041124 0.097904 0.058594 0.14844 0.0056 0.016267 0.010195 0.032531 0.015625 0.048828 0.02089 0.063013 0.038481 0.12718 0.056641 0.19141 0.02366 0.083156 0.045773 0.16632 0.064453 0.25 0.0091 0.040902 0.017461 0.081726 0.025391 0.12305 0.02389 0.12309 0.04323 0.24565 0.05664 0.36914 9.91e-4 0.0092299 0.003006 0.018092 0.003906 0.027344 2.64e-4 0.00257-2.58e-4 0.0052425 0 0.0078125 0.014731 0.14641 0.023108 0.29348 0.023438 0.43945 1.4e-5 0.0046 0 0.0090699 0 0.013672 0 0.10875-0.004199 0.21548-0.011719 0.32227-8e-3 0.11373-0.020849 0.22669-0.037109 0.33789-8.69e-4 0.00582-0.001053 0.011764-0.001953 0.017578-0.0017 0.011111-0.00406 0.022119-0.00586 0.033203-0.01685 0.10673-0.03833 0.21234-0.0625 0.31641-0.0271 0.11666-0.059763 0.2308-0.095703 0.34375-0.14634 0.46017-0.36366 0.88742-0.64062 1.2695-0.14229 0.19633-0.29919 0.38026-0.4707 0.55078-0.25084 0.24939-0.52995 0.47141-0.83398 0.65625-0.73996-0.22545-1.5254-0.34766-2.3398-0.34766-0.21636 0-0.43061 0.010454-0.64258 0.027344l3.3672 1.5215c1.775 0.74409 3.1665 2.1943 3.8359 4.0078 0.05635 0.15266 0.10844 0.30727 0.1543 0.46484 0.04432 0.1523 0.085 0.30637 0.11914 0.46289 1e-3 0.0047 0.002907 0.009002 0.003907 0.013672 0.0042 0.01942 0.007698 0.039114 0.011718 0.058594 0.02756 0.13304 0.052286 0.26657 0.072266 0.40234 0.01354 0.09047 0.023173 0.18188 0.033203 0.27344 0.0082 0.07628 0.017668 0.15148 0.023438 0.22852 0.01358 0.17778 0.021484 0.35786 0.021484 0.53906v3.5c0 0.27614 0.22386 0.5 0.5 0.5s0.5-0.22386 0.5-0.5v-3.5c0-3.187-1.8565-5.9358-4.5488-7.2227 1.2483-1.0093 2.0488-2.5516 2.0488-4.2773 0-1.8182-0.8911-3.4296-2.2559-4.4316 0.065437-0.011144 0.13099-0.020983 0.19726-0.029297 0.05075-0.00626 0.10107-0.013008 0.15234-0.017578 0.11828-0.010741 0.23733-0.018231 0.35742-0.019531 0.01961-2.1e-4 0.038944-0.0020031 0.058594-0.0019531 0.0059 1.31e-5 0.011678-3.62e-5 0.017578 0 0.06191 3.8e-4 0.12328 0.0029094 0.18555 0.0058594 0.04284 0.00203 0.08439 0.0084897 0.12695 0.011719 0.06612 0.00492 0.13198 0.0098502 0.19726 0.017578 0.0655 0.0078801 0.13062 0.018614 0.19531 0.029297 0.07127 0.011626 0.1428 0.022193 0.21289 0.037109 0.11901 0.02556 0.23599 0.055018 0.35156 0.089844 0.11557 0.034593 0.22842 0.07574 0.33984 0.11914 0.09952 0.038764 0.19706 0.081465 0.29297 0.12695 0.02026 0.00964 0.040456 0.019367 0.060546 0.029297 0.09905 0.04881 0.19629 0.10053 0.29102 0.15625 0.30839 0.18137 0.5923 0.39734 0.84766 0.64453 0.08247 0.07984 0.16211 0.16212 0.23828 0.24805 4e-3 0.00447 0.007798 0.0091799 0.011718 0.013672 0.07104 0.0808 0.13796 0.1642 0.20312 0.25 0.01326 0.017421 0.026053 0.035108 0.039063 0.052734 0.06162 0.08364 0.12191 0.16791 0.17773 0.25586 0.0061 0.0096 0.011578 0.019647 0.017578 0.029297 0.16678 0.26724 0.3057 0.55428 0.41406 0.85547 0.01524 0.042193 0.030902 0.084137 0.044922 0.12695 0.02452 0.07519 0.045786 0.15162 0.066406 0.22852 0.01007 0.037296 0.02205 0.073621 0.03125 0.11133 5e-3 0.020801 0.006999 0.041682 0.011719 0.0625 0.01459 0.06465 0.027282 0.12963 0.039062 0.19531 0.01478 0.0814 0.02691 0.1627 0.03711 0.24414 0.006099 0.049486 0.013078 0.098463 0.017578 0.14844 0.01093 0.11873 0.018131 0.2373 0.019531 0.35547 3e-4 0.018405 0.001953 0.03623 0.001953 0.054688 0 0.00526 1.8e-5 0.010365 0 0.015625-1e-4 0.025538-0.003406 0.050679-0.003906 0.076172-0.0019 0.09535-0.006002 0.18942-0.013672 0.2832-0.0013 0.014986-0.002506 0.029961-0.003906 0.044922-0.0094 0.10234-0.02098 0.20449-0.03711 0.30469-0.0024 0.014954-0.005212 0.030002-0.007812 0.044922-0.05999 0.35009-0.16134 0.68482-0.29688 1.002-0.3699 0.8655-1.0005 1.592-1.7969 2.0762-0.0032-1e-3 -0.006566-9.48e-4 -0.009766-0.001953-0.02707 0.01639-0.052568 0.034901-0.080078 0.050781-0.0065 0.0021-0.012931 0.00406-0.019531 0.00586-0.0083 0.0061-0.016791 0.011978-0.025391 0.017578l-1.3926 0.62891c0.56 0.06503 1.0993 0.1972 1.6113 0.38672 0.0039-2e-3 0.007799-0.003959 0.011719-0.005859 2.0791 0.7635 3.6796 2.4829 4.291 4.6328v0.001953c0.046511 0.1637 0.08829 0.32957 0.12305 0.49805 0.01401 0.06688 0.026973 0.13361 0.039063 0.20117 0.01258 0.07143 0.024746 0.14265 0.035156 0.21484 0.01961 0.13351 0.036898 0.26847 0.048828 0.4043 0.0038 0.044101 0.006766 0.08847 0.009766 0.13281 0.010942 0.16032 0.017578 0.32128 0.017578 0.48438v3.5c0 0.27614 0.22386 0.5 0.5 0.5s0.5-0.22386 0.5-0.5v-3.5c0-3.1871-1.8564-5.9358-4.5488-7.2227 1.2483-1.0092 2.0488-2.5515 2.0488-4.2773 0-3.0316-2.4684-5.5-5.5-5.5-0.70341 0-1.3743 0.13743-1.9922 0.38086-0.62247-0.24514-1.2996-0.38086-2.0078-0.38086z" style="fill-opacity:.5;fill:currentColor"/>
</svg>
