<?xml version="1.0" encoding="UTF-8"?>
<!-- Created with Inkscape (http://www.inkscape.org/) -->
<svg width="24" height="24" version="1.1" xmlns="http://www.w3.org/2000/svg" xmlns:cc="http://creativecommons.org/ns#" xmlns:dc="http://purl.org/dc/elements/1.1/" xmlns:rdf="http://www.w3.org/1999/02/22-rdf-syntax-ns#">
	<defs>
		<style id="current-color-scheme" type="text/css">.ColorScheme-Text {color:#090d11;}.ColorScheme-Background{color:#ffffff;}</style>
	</defs>
	<metadata>
		<rdf:RDF>
			<cc:Work rdf:about="">
				<dc:format>image/svg+xml</dc:format>
				<dc:type rdf:resource="http://purl.org/dc/dcmitype/StillImage"/>
			</cc:Work>
		</rdf:RDF>
	</metadata>
	<path id="d" class="ColorScheme-Text" d="m3.0508 2.9922v8.4141c0 0.31676 0.11342 0.81236 0.25391 1.1035l0.97266 2.0176h2.6445c0.023682-0.21236 1.1621-1.6777 1.1621-1.6777h0.75586l1.1836 1.6777h2.6543l0.94531-2.0176c0.13692-0.29241 0.25028-0.78534 0.25391-1.1035l0.09766-8.4141h-1.8223l-0.26367 8.7148-0.89063 1.7891-1.1602-1.7891-0.09375-8.7148h-2.5371v8.7148l-1.3047 1.7891-0.90234-1.7891v-8.7148zm12.627 0v1.4746h3.2246l-3.3828 8.5938v1.4668h5.4551v-1.5586h-3.1602l3.2324-8.502v-1.4746zm-2.3809 12.799v2e-3c-0.27109 0-0.5152 0.04192-0.73438 0.125-0.21919 0.08308-0.3906 0.19712-0.51172 0.34375-0.12112 0.14662-0.19885 0.32063-0.23633 0.52344-0.03747 0.20282-0.05859 0.47235-0.05859 0.80469v1.7676c0 0.3128 0.01813 0.55208 0.05274 0.7207 0.03461 0.16861 0.12738 0.33579 0.27734 0.50195 0.14996 0.16615 0.32548 0.28366 0.52734 0.34961 0.20188 0.06598 0.46205 0.09766 0.7793 0.09766 0.53061 0 0.92798-0.14914 1.1934-0.44727 0.1788-0.20039 0.28364-0.44409 0.3125-0.73242 0.0058-0.05865 0.0078-0.24873 0.0078-0.56641v-1.6914c0-0.33234-0.01019-0.58334-0.0332-0.75195-0.02306-0.16862-0.09363-0.32897-0.20898-0.48047-0.12117-0.17596-0.30164-0.31584-0.54102-0.41602s-0.51469-0.15039-0.82617-0.15039zm4.2812 0v2e-3c-0.27108 0-0.5152 0.04192-0.73438 0.125-0.21919 0.08308-0.3906 0.19712-0.51172 0.34375-0.12112 0.14662-0.19882 0.32062-0.23633 0.52344-0.03749 0.20282-0.05469 0.47235-0.05469 0.80469v1.7676c0 0.3128 0.01617 0.55208 0.05078 0.7207 0.0346 0.16861 0.12738 0.33579 0.27734 0.50195 0.14996 0.16615 0.32547 0.28366 0.52734 0.34961 0.20188 0.06598 0.46205 0.09766 0.7793 0.09766 0.53061 0 0.92602-0.14914 1.1914-0.44727 0.1788-0.20039 0.2838-0.44409 0.3125-0.73242 0.0056-0.05865 0.0078-0.24873 0.0078-0.56641v-1.6914c0-0.33234-0.01019-0.58334-0.0332-0.75195-0.02305-0.16862-0.09168-0.32897-0.20703-0.48047-0.12112-0.17594-0.30358-0.31584-0.54297-0.41602-0.23938-0.10018-0.51469-0.15039-0.82617-0.15039zm-12.234 2e-3c-0.40376 0-0.7305 0.09067-0.97852 0.27148-0.24802 0.18083-0.39935 0.44402-0.45703 0.79102-0.017292 0.09773-0.028296 0.19229-0.03125 0.28516-0.00292 0.09285-0.00391 0.18739-0.00391 0.28516v0.17188h1.2109v-0.4707c0.00766-0.17579 0.02213-0.31437 0.0625-0.41211 0.040373-0.09777 0.11706-0.14453 0.23242-0.14453 0.20188 0 0.30273 0.12964 0.30273 0.38867 0 0.1222-0.020174 0.24062-0.060547 0.35547-0.040372 0.11486-0.13519 0.30738-0.28516 0.57617-0.23072 0.39099-0.43642 0.72528-0.61523 1.0039-0.14997 0.23952-0.43238 0.6781-0.84766 1.3184v0.71875h2.9434v-0.86333h-1.4648c0.27685-0.39098 0.55313-0.78283 0.82422-1.1738 0.27109-0.39098 0.45876-0.70778 0.56836-0.94726 0.13267-0.29323 0.20117-0.573 0.20117-0.8418-2e-7 -0.46432-0.19967-0.82394-0.59766-1.0781-0.13843-0.08311-0.28772-0.14303-0.44922-0.17969-0.16151-0.03661-0.34704-0.05469-0.55469-0.05469zm3.9492 0.0957c-0.20188 0.21504-0.40758 0.38368-0.61523 0.50586-0.24225 0.14172-0.52864 0.24211-0.85742 0.30078v0.58594h0.2168c0.25379 0 0.42622 0.03751 0.51562 0.11328 0.089408 0.07575 0.13679 0.20397 0.13477 0.38477v3.1523h1.4805v-5.041zm4.0469 0.68164c0.10382 0 0.16937 0.03804 0.19531 0.11133 0.02595 0.07332 0.03906 0.19125 0.03906 0.35742v2.6328c0 0.23457-0.01304 0.39104-0.03906 0.4668-0.02596 0.07572-0.09354 0.11133-0.20312 0.11133-0.1442 0-0.22683-0.08381-0.24414-0.25v-3.0195c0-0.13196 0.02111-0.23382 0.05859-0.30469 0.03748-0.07088 0.10106-0.10547 0.19336-0.10547zm4.2812 0c0.10381 0 0.17122 0.03804 0.19726 0.11133 0.02586 0.07332 0.03711 0.19125 0.03711 0.35742v2.6328c0 0.23457-0.01108 0.39104-0.03711 0.4668-0.02596 0.07572-0.09548 0.11133-0.20508 0.11133-0.14421 0-0.22308-0.08381-0.24023-0.25v-3.0195c0-0.13196 0.01718-0.23382 0.05469-0.30469 0.03749-0.07088 0.1011-0.10547 0.19336-0.10547z" style="fill-opacity:.75;fill:currentColor"/>
</svg>
