<?xml version="1.0" encoding="UTF-8"?>
<!-- Created with Inkscape (http://www.inkscape.org/) -->
<svg width="24" height="24" version="1.1" xmlns="http://www.w3.org/2000/svg" xmlns:cc="http://creativecommons.org/ns#" xmlns:dc="http://purl.org/dc/elements/1.1/" xmlns:rdf="http://www.w3.org/1999/02/22-rdf-syntax-ns#">
	<defs>
		<style id="current-color-scheme" type="text/css">.ColorScheme-Text {color:#090d11;}.ColorScheme-Background{color:#ffffff;}</style>
	</defs>
	<metadata>
		<rdf:RDF>
			<cc:Work rdf:about="">
				<dc:format>image/svg+xml</dc:format>
				<dc:type rdf:resource="http://purl.org/dc/dcmitype/StillImage"/>
			</cc:Work>
		</rdf:RDF>
	</metadata>
	<path id="d" class="ColorScheme-Text" d="m8.0938 6.5742c-0.161-0.00584-0.60047 0.072672-2.3086 0.37305-2.4811 0.4365-2.5744 0.46007-2.7324 0.70117-0.071 0.1067-0.069 0.14562 0 0.44922 0.2259 0.9251 0.80124 1.6836 1.7773 2.3418 0.3942 0.2659 1.1281 0.60788 2.125 0.98828 1.0834 0.4134 1.4111 0.58118 1.4961 0.76758 0.053 0.1145 0.041347 0.1378-0.12695 0.2832-0.1118 0.096-0.49381 0.28753-0.97461 0.48633-1.7097 0.7068-2.4882 1.1501-3.1094 1.7734-0.6278 0.6302-0.87305 1.2035-0.87305 2.0391 0 0.645 0.091628 0.72016 0.73633 0.59766l0.00391 2e-3c0.1444-0.027 0.99317-0.1819 1.8848-0.3418 0.8917-0.1598 1.6971-0.32193 1.791-0.36133 0.2153-0.09 0.24305-0.16668 0.31055-0.85938 0.091-0.9419 0.28277-1.4044 0.76367-1.8438 0.4888-0.4469 1.0968-0.64498 1.9707-0.64648 1.4021 0 2.7102 0.53984 3.5996 1.4941 0.4021 0.4315 0.68119 0.91393 0.93359 1.6113 0.218 0.6023 0.34369 0.75195 0.62109 0.75195 0.1713 0 4.0822-0.67497 4.5938-0.79297 0.1801-0.041 0.29247-0.10115 0.35547-0.18555 0.089-0.1195 0.08967-0.13773 0.01367-0.48633-0.09-0.4034-0.36982-1.0396-0.60742-1.3848-0.2478-0.3603-0.71481-0.83539-1.1328-1.1504-0.5936-0.4473-1.2287-0.79984-2.4082-1.3398-1.2106-0.5543-1.3828-0.65787-1.3828-0.82617 0-0.1862 0.19288-0.28746 0.95898-0.50586 1.4901-0.4248 2.121-0.8762 2.4062-1.7168 0.093-0.2736 0.10293-0.38684 0.08203-0.89844-0.028-0.7038-0.11016-0.95376-0.35156-1.0684-0.2232-0.1054-0.48078-0.096078-1.2969 0.044922-0.3861 0.068-1.2174 0.21151-1.8457 0.32031-1.1768 0.2037-1.3872 0.26664-1.4395 0.43164-0.017 0.053 0.03499 0.34754 0.11719 0.65234 0.1716 0.6388 0.18149 0.81153 0.05859 1.082-0.2429 0.5347-1.0136 0.85352-2.0664 0.85352-0.5513 0-0.91068-0.08654-1.4258-0.33984-0.9298-0.4583-1.5864-1.2711-2.0176-2.5-0.1876-0.53445-0.27333-0.70273-0.39453-0.76763-0.028275-0.01525-0.051803-0.027352-0.10547-0.029297z" style="fill-opacity:.75;fill:currentColor"/>
</svg>
