<?xml version="1.0" encoding="UTF-8"?>
<!-- Created with Inkscape (http://www.inkscape.org/) -->
<svg width="24" height="24" version="1.1" xmlns="http://www.w3.org/2000/svg" xmlns:cc="http://creativecommons.org/ns#" xmlns:dc="http://purl.org/dc/elements/1.1/" xmlns:rdf="http://www.w3.org/1999/02/22-rdf-syntax-ns#">
	<defs>
		<style id="current-color-scheme" type="text/css">.ColorScheme-Text {color:#090d11;}
			.ColorScheme-Background{color:#ffffff;}</style>
	</defs>
	<metadata>
		<rdf:RDF>
			<cc:Work rdf:about="">
				<dc:format>image/svg+xml</dc:format>
				<dc:type rdf:resource="http://purl.org/dc/dcmitype/StillImage"/>
			</cc:Work>
		</rdf:RDF>
	</metadata>
	<path class="ColorScheme-Text" d="m8.1113 3.3359c-3.0781 1.4594-5.2109 4.5955-5.2109 8.2266 0 5.0229 4.0789 9.0996 9.1016 9.0996 5.0228 0 9.0977-4.0765 9.0977-9.0996 0-3.6311-2.1329-6.7672-5.2109-8.2266 2.4294 1.3639 4.0723 3.9647 4.0723 6.9473 0 3.8776-2.7771 7.111-6.4492 7.8184-0.48995 0.09441-1.0833 2.2754-1.5098 2.2754-0.42653 0-1.0237-2.1809-1.5137-2.2754-3.672-0.70744-6.4492-3.9408-6.4492-7.8184 0-2.9826 1.6429-5.5834 4.0723-6.9473zm5.9102 3.0879c-2.1124 0.34075-4.8193 2.9798-7.4531 5.0996l3.2383-1.4961-1.8691 1.9902 1.6172-0.75781c-0.53088 1.0465-0.47561 2.8579-2.2227 3.2148 0.90967 0.90034 2.0794 1.5405 3.3867 1.791 0.62322 0.11846 1.0577 1.8574 1.2441 1.8574 0.18639 0 0.62096-1.7389 1.2441-1.8574 1.3574-0.2601 2.5666-0.9428 3.4902-1.8984-4.6219 0.05778-4.3313-4.6302-0.24805-5.6563-0.31494-0.29345-1.3626-0.23907-2.2207-0.10352 0.14953-0.99996 1.5695-1.4771 2.6172-1.3477-0.59882-0.60752-1.3295-1.0458-2.5391-0.54102zm-0.58203 0.84375 0.3125 0.31055c-0.41066 0.34778-0.7744 0.37127-1.1211 0.060547z" style="fill:currentColor;opacity:.75"/>
</svg>
