<?xml version="1.0" encoding="UTF-8"?>
<!-- Created with Inkscape (http://www.inkscape.org/) -->
<svg width="18" height="18" version="1.1" xmlns="http://www.w3.org/2000/svg" xmlns:cc="http://creativecommons.org/ns#" xmlns:dc="http://purl.org/dc/elements/1.1/" xmlns:rdf="http://www.w3.org/1999/02/22-rdf-syntax-ns#">
	<metadata>
		<rdf:RDF>
			<cc:Work rdf:about="">
				<dc:format>image/svg+xml</dc:format>
				<dc:type rdf:resource="http://purl.org/dc/dcmitype/StillImage"/>
			</cc:Work>
		</rdf:RDF>
	</metadata>
	<defs id="e">
		<style id="current-color-scheme" type="text/css">.ColorScheme-Text {color:#090d11;}
			.ColorScheme-Background{color:#ffffff;}</style>
		<style type="text/css">.ColorScheme-Text {color:#090d11;}
			.ColorScheme-Background{color:#ffffff;}</style>
	</defs>
	<path class="ColorScheme-Background" d="m8 1c-0.7507 0-1.2835 0.5009-1.625 1.125-1.8921 0.3123-3.375 1.9003-3.375 3.875v7c0 2.194 1.8059 4 4 4h3c2.194 0 3.9999-1.806 4-4v-7c0-1.9704-1.489-3.5576-3.375-3.875-0.3416-0.6241-0.8744-1.125-1.625-1.125zm0 1h1c0.554 0 1 0.446 1 1 1.6447 0 3 1.3553 3 3v7c0 1.6447-1.3553 3-3 3h-3c-1.6447 0-3-1.3553-3-3v-7c0-1.6447 1.3553-3 3-3 0-0.554 0.446-1 1-1zm-3 10v1h7v-1z" style="fill-opacity:.5;fill:currentColor"/>
	<path class="ColorScheme-Text" d="m8 2c-0.554 0-1 0.446-1 1-1.6447 0-3 1.3553-3 3v7c0 1.6447 1.3553 3 3 3h3c1.6447 0 3-1.3553 3-3v-7c0-1.6447-1.3553-3-3-3 0-0.554-0.446-1-1-1zm-1 2h3c1.108 0 2 0.892 2 2v7h-7v-7c0-1.108 0.892-2 2-2z" style="fill-opacity:.75;fill:currentColor"/>
</svg>
