<?xml version="1.0" encoding="UTF-8"?>
<svg id="a" width="18" height="18" version="1.1" xmlns="http://www.w3.org/2000/svg" xmlns:cc="http://creativecommons.org/ns#" xmlns:dc="http://purl.org/dc/elements/1.1/" xmlns:rdf="http://www.w3.org/1999/02/22-rdf-syntax-ns#">
	<metadata id="d">
		<rdf:RDF>
			<cc:Work rdf:about="">
				<dc:format>image/svg+xml</dc:format>
				<dc:type rdf:resource="http://purl.org/dc/dcmitype/StillImage"/>
				<dc:title/>
			</cc:Work>
		</rdf:RDF>
	</metadata>
	<defs id="e">
		<style id="current-color-scheme" type="text/css">.ColorScheme-Text {color:#090d11;}.ColorScheme-Background{color:#ffffff;}</style>
	</defs>
	<path id="c" class="ColorScheme-Text" d="m3 3c-0.554 0-1 0.446-1 1v8l5 5v-5h8c0.554 0 1-0.446 1-1v-7c0-0.554-0.446-1-1-1z" style="fill-opacity:.75;fill:currentColor"/>
	<path id="b" class="ColorScheme-Background" d="m3 2c-1.0907 0-2 0.9093-2 2v8c5.11e-5 0.2652 0.10543 0.51952 0.29297 0.70703l5.707 4.293 1-4h7c1.0907 0 2-0.9093 2-2v-7c0-1.0907-0.9093-2-2-2zm0 1h12c0.554 0 1 0.446 1 1v7c0 0.554-0.446 1-1 1h-8v5l-5-5v-8c0-0.554 0.446-1 1-1z" style="fill-opacity:.5;fill:currentColor"/>
</svg>
