<?xml version="1.0" encoding="UTF-8"?>
<svg id="g" width="16" height="16" version="1.1" xmlns="http://www.w3.org/2000/svg" xmlns:cc="http://creativecommons.org/ns#" xmlns:dc="http://purl.org/dc/elements/1.1/" xmlns:rdf="http://www.w3.org/1999/02/22-rdf-syntax-ns#">
	<metadata id="a">
		<rdf:RDF>
			<cc:Work rdf:about="">
				<dc:format>image/svg+xml</dc:format>
				<dc:type rdf:resource="http://purl.org/dc/dcmitype/StillImage"/>
			</cc:Work>
		</rdf:RDF>
	</metadata>
	<defs>
		<style id="current-color-scheme" type="text/css">.ColorScheme-Text {color:#090d11;}.ColorScheme-Background{color:#ffffff;}</style>
	</defs>
	<path id="h" class="ColorScheme-Background" d="m12.908 0.83008c-0.59934-3.4864e-4 -1.1753 0.23675-1.5996 0.66016l-1.8184 1.8184c-0.19521 0.19525-0.19521 0.51178 0 0.70703 0.19525 0.19521 0.51178 0.19521 0.70703 0l1.8184-1.8184c0.23715-0.23667 0.55753-0.36766 0.89258-0.36719h2e-3c0.33505-4.73e-4 0.65543 0.13051 0.89258 0.36719 0.4982 0.4972 0.4982 1.2899 0 1.7871l-1.8184 1.8184c-0.19521 0.19525-0.19521 0.51178 0 0.70703 0.19525 0.19521 0.51178 0.19521 0.70703 0l1.8184-1.8184c0.88124-0.87946 0.88124-2.3217 0-3.2012-0.42426-0.42341-1.0003-0.66051-1.5996-0.66016zm-6.4473 1.5879c-0.14593 3.326e-4 -0.28575 0.058649-0.38867 0.16211-0.21447 0.21473-0.21447 0.56261 0 0.77734l1.1875 1.1875-6.127 6.6152c-0.085495 0.09251-0.13293 0.21388-0.13281 0.33984v3c2.76e-5 0.27613 0.22387 0.49997 0.5 0.5-0.27614 0-0.5 0.22386-0.5 0.5s0.22386 0.5 0.5 0.5 0.5-0.22386 0.5-0.5c3.439e-4 -0.26652-0.20843-0.48647-0.47461-0.5h2.9746c0.12597 1.14e-4 0.24733-0.04732 0.33984-0.13281l6.6152-6.127 1.1172 1.1172c0.21496 0.21578 0.56434 0.21578 0.7793 0 0.21447-0.21473 0.21447-0.56261 0-0.77734l-6.5-6.5c-0.1034-0.10394-0.24401-0.1623-0.39062-0.16211zm1.5059 2.834 2.7813 2.7812-6.4434 5.9668h-2.3047v-2.3047zm-4.4668 6.748c-0.27614 0-0.5 0.22386-0.5 0.5s0.22386 0.5 0.5 0.5 0.5-0.22386 0.5-0.5-0.22386-0.5-0.5-0.5z" style="fill-opacity:.5;fill:currentColor"/>
	<path id="f" class="ColorScheme-Text" d="m13 1.75c-0.3317-4.682e-4 -0.64998 0.13092-0.88477 0.36523l-2.1504 2.1504-1.1152-1.1133c-0.11308-0.11326-0.27355-0.16553-0.43164-0.14062-0.10435 0.016599-0.20076 0.065829-0.27539 0.14062-0.19521 0.19525-0.19521 0.51178 0 0.70703l4 4c0.19525 0.19521 0.51178 0.19521 0.70703 0 0.19521-0.19525 0.19521-0.51178 0-0.70703l-1.1152-1.1172 2.1504-2.1504c0.48933-0.48836 0.48933-1.2812 0-1.7695-0.23478-0.23431-0.55307-0.3657-0.88477-0.36523zm-5.0039 3.7559c-0.1326 2e-5 -0.25976 0.052712-0.35352 0.14648l-5.4961 5.4941c-0.093768 0.093756-0.14646 0.22092-0.14648 0.35352v2c2.76e-5 0.27613 0.22387 0.49997 0.5 0.5h2c0.1326-2.5e-5 0.25976-0.05272 0.35352-0.14648l5.4961-5.4941c0.19521-0.19525 0.19521-0.51178 0-0.70703-0.19525-0.19521-0.51178-0.19521-0.70703 0l-2.3477 2.3477h-2.5879l3.6426-3.6406c0.19521-0.19525 0.19521-0.51178 0-0.70703-0.093753-0.093773-0.22092-0.14646-0.35352-0.14648zm-4.4961 6.4941c0.27614 0 0.5 0.22386 0.5 0.5s-0.22386 0.5-0.5 0.5-0.5-0.22386-0.5-0.5 0.22386-0.5 0.5-0.5zm-1 3c-0.27614 0-0.5 0.22386-0.5 0.5s0.22386 0.5 0.5 0.5 0.5-0.22386 0.5-0.5-0.22386-0.5-0.5-0.5z" style="fill-opacity:.75;fill:currentColor"/>
</svg>
