<?xml version="1.0" encoding="UTF-8"?>
<svg id="a" width="16" height="16" version="1.0" xmlns="http://www.w3.org/2000/svg" xmlns:cc="http://creativecommons.org/ns#" xmlns:dc="http://purl.org/dc/elements/1.1/" xmlns:rdf="http://www.w3.org/1999/02/22-rdf-syntax-ns#">
	<metadata id="d">
		<rdf:RDF>
			<cc:Work rdf:about="">
				<dc:format>image/svg+xml</dc:format>
				<dc:type rdf:resource="http://purl.org/dc/dcmitype/StillImage"/>
			</cc:Work>
		</rdf:RDF>
	</metadata>
	<defs id="e">
		<style id="current-color-scheme" type="text/css">.ColorScheme-Text{color:#090d11;}.ColorScheme-Background{color:#ffffff;}</style>
	</defs>
	<path id="b" d="m14.465 3.8125-7.6582 7.666-3.7559-3.7598a0.5 0.5 0 0 0-0.70703 0 0.5 0.5 0 0 0 0 0.70703l4.1094 4.1133a0.50005 0.50005 0 0 0 0.70703 0l8.0137-8.0195a0.5 0.5 0 0 0-2e-3 -0.70703 0.5 0.5 0 0 0-0.70703 0z" style="-inkscape-stroke:none;color:#090d11;fill-opacity:.75;fill:currentColor;stroke-linecap:round;stroke-linejoin:round"/>
	<path id="c" d="m14.139 6.1445-7.3242 7.2539-4.2891-4.248a0.5 0.5 0 0 0-0.70703 0.00195 0.5 0.5 0 0 0 0.00195 0.70703l4.6426 4.5977a0.50005 0.50005 0 0 0 0.70312 0l7.6758-7.6035a0.5 0.5 0 0 0 0.0039-0.70703 0.5 0.5 0 0 0-0.70703-0.00195z" style="-inkscape-stroke:none;color:#ffffff;fill-opacity:.5;fill:currentColor;stroke-linecap:round;stroke-linejoin:round"/>
</svg>
