<?xml version="1.0" encoding="UTF-8"?>
<svg id="i" width="16" height="16" version="1.1" xmlns="http://www.w3.org/2000/svg" xmlns:cc="http://creativecommons.org/ns#" xmlns:dc="http://purl.org/dc/elements/1.1/" xmlns:rdf="http://www.w3.org/1999/02/22-rdf-syntax-ns#">
	<metadata id="l">
		<rdf:RDF>
			<cc:Work rdf:about="">
				<dc:format>image/svg+xml</dc:format>
				<dc:type rdf:resource="http://purl.org/dc/dcmitype/StillImage"/>
			</cc:Work>
		</rdf:RDF>
	</metadata>
	<defs>
		<style id="current-color-scheme" type="text/css">.ColorScheme-Text {color:#090d11;}.ColorScheme-Background{color:#ffffff;}</style>
	</defs>
	<path id="f" class="ColorScheme-Text" d="m7.998 1.002c-0.52519 1.236e-4 -0.78795 0.037185-0.84766 0.060547-0.06 0.0234-0.051047 0.00803-0.18555 0.24023-0.4906 0.84972-0.8417 1.6234-1.625 2.0781v0.00195c0 2e-3 -0.00977 0.00291-0.00977 0.00391-0.7859 0.45153-1.6297 0.36914-2.6113 0.36914-0.2684 0-0.25253-6.375e-4 -0.30273 0.039062-0.05 0.0401-0.21316 0.24882-0.47656 0.70508-0.2634 0.45625-0.3654 0.70214-0.375 0.76562-0.01 0.0635-0.016912 0.050823 0.11719 0.2832 0.4919 0.85191 0.98553 1.5416 0.98633 2.4512-8e-4 0.90945-0.49443 1.5992-0.98633 2.4512-0.1341 0.2324-0.12689 0.21776-0.11719 0.28125 0.01 0.0635 0.1116 0.30936 0.375 0.76562 0.2634 0.45625 0.42636 0.6669 0.47656 0.70703 0.05 0.0401 0.034734 0.03906 0.30273 0.03906 0.9854 0 1.8313-0.08494 2.6211 0.37109 0.7832 0.45468 1.1344 1.2322 1.625 2.082 0.1342 0.23239 0.12379 0.21489 0.18359 0.23828 0.06 0.0234 0.32281 0.0625 0.84961 0.0625 0.5269 0 0.78971-0.0391 0.84961-0.0625 0.06-0.0234 0.051047-0.0061 0.18555-0.23828 0.4906-0.84973 0.8417-1.6234 1.625-2.0781v-2e-3c0.7898-0.456 1.6358-0.37305 2.6211-0.37305 0.2683 0 0.25253 6.37e-4 0.30273-0.03906 0.05-0.0401 0.21316-0.25077 0.47656-0.70703 0.2634-0.45625 0.36335-0.70017 0.37305-0.76367 0.01-0.0635 0.01897-0.05082-0.11524-0.2832-0.491-0.85044-0.98658-1.5403-0.98828-2.4473v-0.00781c0-0.90692 0.49728-1.5968 0.98828-2.4473 0.1342-0.2324 0.12494-0.21971 0.11524-0.2832-0.01-0.0635-0.10965-0.30938-0.37305-0.76562s-0.42646-0.66495-0.47656-0.70508c-0.05-0.0401-0.03473-0.039062-0.30273-0.039062-0.9854 0-1.8313 0.082983-2.6211-0.37305v-0.00195c-0.7833-0.45467-1.1344-1.2284-1.625-2.0781-0.1342-0.2324-0.12575-0.21684-0.18555-0.24023-0.059902-0.023362-0.32247-0.060423-0.84766-0.060547h-0.00195zm-0.99805 3.998h2v2h-2zm0 3h2v3h-2z" style="fill-opacity:.75;fill:currentColor"/>
</svg>
