<?xml version="1.0" encoding="UTF-8"?>
<!-- Created with Inkscape (http://www.inkscape.org/) -->
<svg width="16" height="16" version="1.1" xmlns="http://www.w3.org/2000/svg" xmlns:cc="http://creativecommons.org/ns#" xmlns:dc="http://purl.org/dc/elements/1.1/" xmlns:rdf="http://www.w3.org/1999/02/22-rdf-syntax-ns#">
	<metadata>
		<rdf:RDF>
			<cc:Work rdf:about="">
				<dc:format>image/svg+xml</dc:format>
				<dc:type rdf:resource="http://purl.org/dc/dcmitype/StillImage"/>
				<dc:title/>
			</cc:Work>
		</rdf:RDF>
	</metadata>
	<defs>
		<style id="current-color-scheme" type="text/css">.ColorScheme-Text {color:#090d11;}</style>
	</defs>
	<path d="m10 1c-0.4155 0-0.77046 0.25022-0.92188 0.60938-0.050469 0.11972-0.078125 0.25212-0.078125 0.39062h-6c-0.4155 0-0.77046 0.25022-0.92188 0.60938-0.050469 0.11972-0.078125 0.25212-0.078125 0.39062v5h11c0.554 0 1 0.446 1 1v5h-1v-4.5c0-0.277-0.223-0.5-0.5-0.5s-0.5 0.223-0.5 0.5v4.5h-10v-5c-0.4155 0-0.77046 0.25022-0.92188 0.60938-0.050469 0.11972-0.078125 0.25212-0.078125 0.39062v4c0 0.554 0.446 1 1 1h12c0.554 0 1-0.446 1-1v-12c-4.1e-5 -0.554-0.44604-1-1-1zm-7 3h9v3h-9z" style="fill-opacity:.75;fill:currentColor" class="ColorScheme-Text"/>
</svg>
