<?xml version="1.0" encoding="UTF-8"?>
<!-- Created with Inkscape (http://www.inkscape.org/) -->
<svg width="16" height="16" version="1.1" xmlns="http://www.w3.org/2000/svg" xmlns:cc="http://creativecommons.org/ns#" xmlns:dc="http://purl.org/dc/elements/1.1/" xmlns:rdf="http://www.w3.org/1999/02/22-rdf-syntax-ns#">
	<metadata>
		<rdf:RDF>
			<cc:Work rdf:about="">
				<dc:format>image/svg+xml</dc:format>
				<dc:type rdf:resource="http://purl.org/dc/dcmitype/StillImage"/>
				<dc:title/>
			</cc:Work>
		</rdf:RDF>
	</metadata>
	<defs>
		<style id="current-color-scheme" type="text/css">.ColorScheme-Text {color:#090d11;}</style>
	</defs>
	<g transform="translate(9379.3 -4843.2)">
		<path transform="translate(-9379.3 4843.2)" d="m11.811 0.29883c-1.1692 1.8483-2.4852 3.7804-3.8555 5.7773-1.3738-1.9998-2.6741-3.9079-3.8555-5.7754-1.1866 0.4494 3.1604 7.6734 6.2109 11.645-0.1988 0.3068-0.31836 0.66985-0.31836 1.0605 0 1.0798 0.88504 1.9648 1.9648 1.9648s1.9629-0.88504 1.9629-1.9648c0-1.0799-0.88309-1.9648-1.9629-1.9648-0.1909 0-0.37393 0.03689-0.54883 0.08789-0.9308-1.3829-1.7666-2.5933-2.6211-3.8359 2.1116-3.3603 3.8166-6.6937 3.0234-6.9941zm-5.4902 8.1973c-0.5455 0.7965-1.2435 1.7807-1.8184 2.6348-0.1749-0.051-0.35598-0.08789-0.54688-0.08789-1.0798 0-1.9648 0.88299-1.9648 1.9629 0 1.0798 0.88504 1.9648 1.9648 1.9648s1.9648-0.88504 1.9648-1.9648c0-0.3907-0.11956-0.75179-0.31836-1.0586 0.4731-0.6161 1.1775-1.5891 1.6875-2.3242-0.3151-0.3213-0.63705-0.69435-0.96875-1.127z" style="fill-opacity:.75;fill:currentColor" class="ColorScheme-Text"/>
	</g>
</svg>
