<?xml version="1.0" encoding="UTF-8"?>
<!-- Created with Inkscape (http://www.inkscape.org/) -->
<svg width="16" height="16" version="1.1" xmlns="http://www.w3.org/2000/svg" xmlns:cc="http://creativecommons.org/ns#" xmlns:dc="http://purl.org/dc/elements/1.1/" xmlns:rdf="http://www.w3.org/1999/02/22-rdf-syntax-ns#">
	<metadata>
		<rdf:RDF>
			<cc:Work rdf:about="">
				<dc:format>image/svg+xml</dc:format>
				<dc:type rdf:resource="http://purl.org/dc/dcmitype/StillImage"/>
			</cc:Work>
		</rdf:RDF>
	</metadata>
	<defs>
		<style id="current-color-scheme" type="text/css">.ColorScheme-Text {color:#090d11;}.ColorScheme-Background{color:#ffffff;}</style>
	</defs>
	<path class="ColorScheme-Text" d="m2.4336 1c-0.78542 0-1.4336 0.64818-1.4336 1.4336v8.133c0 0.78542 0.64818 1.4336 1.4336 1.4336h1.5664v1.5664c0 0.78542 0.64818 1.4336 1.4336 1.4336h8.133c0.78542 0 1.4336-0.64818 1.4336-1.4336v-8.133c0-0.78542-0.64818-1.4336-1.4336-1.4336h-1.5664v-1.5664c0-0.78542-0.64818-1.4336-1.4336-1.4336zm0 1h8.133c0.24872 0 0.43359 0.18488 0.43359 0.43359v8.133c0 0.24872-0.18488 0.43359-0.43359 0.43359h-8.133c-0.24872 0-0.43359-0.18488-0.43359-0.43359v-8.133c0-0.24872 0.18488-0.43359 0.43359-0.43359zm9.566 3h1.5664c0.24872 0 0.43359 0.18488 0.43359 0.43359v8.133c0 0.24872-0.18488 0.43359-0.43359 0.43359h-8.133c-0.24872 0-0.43359-0.18488-0.43359-0.43359v-1.5664h5.5664c0.78542 0 1.4336-0.64818 1.4336-1.4336z" style="fill-opacity:.75;fill:currentColor"/>
</svg>
