<?xml version="1.0" encoding="UTF-8"?>
<!-- Created with Inkscape (http://www.inkscape.org/) -->
<svg width="16" height="16" version="1.1" xmlns="http://www.w3.org/2000/svg" xmlns:cc="http://creativecommons.org/ns#" xmlns:dc="http://purl.org/dc/elements/1.1/" xmlns:rdf="http://www.w3.org/1999/02/22-rdf-syntax-ns#">
	<metadata>
		<rdf:RDF>
			<cc:Work rdf:about="">
				<dc:format>image/svg+xml</dc:format>
				<dc:type rdf:resource="http://purl.org/dc/dcmitype/StillImage"/>
			</cc:Work>
		</rdf:RDF>
	</metadata>
	<defs>
		<style id="current-color-scheme" type="text/css">.ColorScheme-Text {color:#090d11;}.ColorScheme-Background{color:#ffffff;}</style>
	</defs>
	<path class="ColorScheme-Background" d="m10.295 0.0097656c-1.4521-0.077836-2.9326 0.36507-4.1348 1.3477-2.4044 1.9652-2.9188 5.4495-1.1875 8.0273a0.50045 0.50045 0 1 0 0.83008-0.55859c-1.4485-2.1568-1.0214-5.0492 0.99023-6.6934 2.0117-1.6442 4.9325-1.4875 6.7578 0.36133 1.8253 1.8488 1.9451 4.7693 0.27539 6.7598-1.6581 1.9766-4.5285 2.3734-6.6621 0.93359a0.50005 0.50005 0 0 0-0.16602-0.0918 0.50005 0.50005 0 0 0-0.011719-0.0059 0.50005 0.50005 0 0 0-0.00977-2e-3 0.50005 0.50005 0 0 0-0.59961 0.23438l-1.9531 1.9297a1.0001 1.0001 0 0 0-0.16406 0.13477l-3.0352 3.0352a1.0006 1.0006 0 1 0 1.4141 1.416l3.0352-3.0371a1.0001 1.0001 0 0 0 0.027344-1.4062l1.2051-1.1895c2.5157 1.4917 5.7801 0.96477 7.6855-1.3066 1.9957-2.3791 1.8516-5.8976-0.33008-8.1074-1.0909-1.1049-2.5147-1.7034-3.9668-1.7812z" style="fill-opacity:.5;fill:currentColor"/>
	<path class="ColorScheme-Text" d="m10.068 1.0273c-1.4992-0.026423-2.9886 0.62017-3.9883 1.8613-1.4924 1.8529-1.437 4.476 0.039062 6.2852l-1.7305 1.7305a1.0001 1.0001 0 0 0-0.73633-0.29297 1.0001 1.0001 0 0 0-0.6875 0.30273l-2.5352 2.5352a1.0001 1.0001 0 1 0 1.4141 1.4141l2.5059-2.5059a0.50005 0.50005 0 0 0 0.029297-0.0293l2.7012-2.7031a0.50005 0.50005 0 0 0 0.00586-0.0039 0.50005 0.50005 0 0 0 0.20898-0.46875 0.50005 0.50005 0 0 0 0-0.0039 0.50005 0.50005 0 0 0-0.00195-0.01368 0.50005 0.50005 0 0 0-0.021488-0.08398 0.50005 0.50005 0 0 0-0.15039-0.22852c-1.4205-1.4493-1.5394-3.7228-0.26367-5.3066 1.2843-1.5945 3.5544-1.9634 5.2773-0.85742 1.723 1.106 2.333 3.3227 1.418 5.1543-0.91502 1.8316-3.0536 2.6744-4.9727 1.9609a0.50036 0.50036 0 1 0-0.34961 0.9375c2.39 0.88858 5.0772-0.17013 6.2168-2.4512 0.85468-1.7108 0.63749-3.7029-0.42969-5.1738-0.35573-0.49032-0.80535-0.92322-1.3418-1.2676-0.80468-0.51654-1.7079-0.77516-2.6074-0.79102z" style="fill-opacity:.75;fill:currentColor"/>
</svg>
