<?xml version="1.0" encoding="UTF-8"?>
<svg id="b" width="16" height="16" version="1.1" xmlns="http://www.w3.org/2000/svg" xmlns:cc="http://creativecommons.org/ns#" xmlns:dc="http://purl.org/dc/elements/1.1/" xmlns:rdf="http://www.w3.org/1999/02/22-rdf-syntax-ns#">
	<metadata id="d">
		<rdf:RDF>
			<cc:Work rdf:about="">
				<dc:format>image/svg+xml</dc:format>
				<dc:type rdf:resource="http://purl.org/dc/dcmitype/StillImage"/>
				<dc:title/>
			</cc:Work>
		</rdf:RDF>
	</metadata>
	<defs>
		<style id="current-color-scheme" type="text/css">.ColorScheme-Text {color:#090d11;}.ColorScheme-Background{color:#ffffff;}</style>
	</defs>
	<g>
		<path id="a" class="ColorScheme-Text" d="m8 1c-0.4155 0-0.77046 0.25022-0.92188 0.60938-0.050469 0.11972-0.078125 0.25212-0.078125 0.39062h-4c-0.4155 0-0.77046 0.25022-0.92188 0.60938-0.050469 0.11972-0.016186 0.26675-0.078125 0.39062v1h1.2832c0.35035-0.59206 0.99007-1 1.7168-1h3.4199c0.3573-0.56123 0.8766-1 1.5801-1h3c-4.1e-5 -0.554-0.44604-1-1-1zm-6 4c-0.4155 0-0.77046 0.25022-0.92188 0.60938-0.050469 0.11972-0.078125 0.25212-0.078125 0.39062v6c0 0.554 0.446 1 1 1v-5z" style="fill-opacity:.75;fill:currentColor"/>
		<path id="h" class="ColorScheme-Background" d="m8 0c-0.70348 0-1.2228 0.43877-1.5801 1h-3.4199c-1.0907 0-2 0.9093-2 2v1.4199c-0.56123 0.35725-1 0.87658-1 1.5801v6c0 1.0907 0.9093 2 2 2v-1c-0.554 0-1-0.446-1-1v-6c0-0.554 0.446-1 1-1h1c0-0.36397 0.10774-0.70348 0.2832-1h-1.2832v-1c0-0.554 0.446-1 1-1h4c0-0.554 0.446-1 1-1h4c0.55396 0 0.99996 0.446 1 1h1c-8.1e-5 -1.0907-0.9093-2-2-2h-4zm-3.3516 4.0703c-0.032436 0.012195-0.061084 0.027608-0.091797 0.042969 0.030318-0.015098 0.059804-0.030948 0.091797-0.042969zm-0.30859 0.19141c-0.022826 0.020384-0.045548 0.038162-0.066406 0.060547 0.020545-0.021993 0.043956-0.040493 0.066406-0.060547zm-0.26172 0.34766c-0.050469 0.11972-0.078125 0.25212-0.078125 0.39062 0.061939-0.12388 0.027656-0.2709 0.078125-0.39062z" style="fill-opacity:.5;fill:currentColor"/>
		<path id="f" class="ColorScheme-Text" d="m10 3c-0.4155 0-0.77047 0.25022-0.92188 0.60938-0.050469 0.11972-0.078125 0.25212-0.078125 0.39062h-4c-0.4155 0-0.77047 0.25022-0.92188 0.60938-0.050469 0.11972-0.016186 0.26674-0.078125 0.39062v1h9c0.554 0 1 0.446 1 1v7h-1v-6.5c0-0.277-0.223-0.5-0.5-0.5s-0.5 0.223-0.5 0.5v6.5h-8v-7c-0.4155 0-0.77047 0.25022-0.92188 0.60938-0.050469 0.11972-0.078125 0.25212-0.078125 0.39062v6c0 0.554 0.446 1 1 1h10c0.554 0 1-0.446 1-1v-10c-4.1e-5 -0.554-0.44604-1-1-1z" style="fill-opacity:.75;fill:currentColor"/>
		<path id="c" class="ColorScheme-Background" d="m10 2c-0.70348 0-1.2228 0.43877-1.5801 1h-3.4199c-1.0907 0-2 0.9093-2 2v1.4199c-0.56123 0.35725-1 0.8766-1 1.5801v6c0 1.0907 0.9093 2 2 2h10c1.0907 0 2-0.9093 2-2v-10c-8.1e-5 -1.0907-0.9093-2-2-2zm0 1h4c0.55396 0 0.99996 0.446 1 1v10c0 0.554-0.446 1-1 1h-10c-0.554 0-1-0.446-1-1v-6c0-0.554 0.446-1 1-1h9v7h1v-7c0-0.554-0.446-1-1-1h-9v-1c0-0.554 0.446-1 1-1h4c0-0.554 0.446-1 1-1z" style="fill-opacity:.5;fill:currentColor"/>
	</g>
</svg>
