<?xml version="1.0" encoding="UTF-8"?>
<svg id="c" width="16" height="16" version="1.1" xmlns="http://www.w3.org/2000/svg" xmlns:cc="http://creativecommons.org/ns#" xmlns:dc="http://purl.org/dc/elements/1.1/" xmlns:rdf="http://www.w3.org/1999/02/22-rdf-syntax-ns#">
	<metadata id="b">
		<rdf:RDF>
			<cc:Work rdf:about="">
				<dc:format>image/svg+xml</dc:format>
				<dc:type rdf:resource="http://purl.org/dc/dcmitype/StillImage"/>
				<dc:title/>
			</cc:Work>
		</rdf:RDF>
	</metadata>
	<defs id="e">
		<style id="current-color-scheme" type="text/css">.ColorScheme-Text {color:#090d11;}.ColorScheme-Background{color:#ffffff;}</style>
	</defs>
	<path id="d" d="m3 2v3.8984l0.49414-0.81641 0.50586 0.83594v-0.91797a1 1 0 0 1 1 -1h3v8a1 1 0 0 1 -1 1h-0.0625c-0.051251 0.35325-0.15092 0.68828-0.30078 1h6.3633v-1h-2a1 1 0 0 1 -1 -1v-8h3a1 1 0 0 1 1 1v1h1v-4h-11-1zm0.49414 5.0117c0-1e-7 -2.4941 4.1167-2.4941 5.4941s1.1167 2.4941 2.4941 2.4941c0.81446 0 1.5312-0.39611 1.9863-1 0.11013-0.14611 0.20697-0.3021 0.2832-0.4707 0.075957-0.168 0.13649-0.34394 0.17383-0.5293 0.032232-0.16003 0.050781-0.32462 0.050781-0.49414 0-1.3774-2.4941-5.4941-2.4941-5.4941z" style="fill-opacity:.75;fill:currentColor" class="ColorScheme-Text"/>
	<path id="a" d="m2 1v5h0.9375l-0.29883 0.49414s-0.63779 1.0511-1.2793 2.2871c-0.32075 0.618-0.64339 1.2827-0.89648 1.9102-0.25309 0.62742-0.46289 1.1683-0.46289 1.8145 0 1.9179 1.5763 3.4941 3.4941 3.4941 0.94357 0 1.8024-0.38394 2.4336-1h7.0723v-1h-6.3633c0.088602-0.1843 0.15172-0.38114 0.20898-0.58008 0.029112-0.10803 0.053161-0.21806 0.072266-0.33008 0.034971-0.19122 0.070312-0.38283 0.070312-0.58398 0-0.64613-0.2098-1.187-0.46289-1.8145s-0.57573-1.2922-0.89648-1.9102c-0.6415-1.236-1.2793-2.2871-1.2793-2.2871l-0.34961-0.57617-0.50586-0.83594-0.49414 0.81641v-3.8984h1 11v4h1v-5h-13-1zm5 3v9a1 1 0 0 0 0.099609 -0.005859 1 1 0 0 0 0.087891 -0.011719 1 1 0 0 0 0.011719 -0.001953 1 1 0 0 0 0.068359 -0.017578 1 1 0 0 0 0.027344 -0.007813 1 1 0 0 0 0.068359 -0.023437 1 1 0 0 0 0.0078126 -0.003907 1 1 0 0 0 0.058594 -0.027343 1 1 0 0 0 0.023438 -0.009766 1 1 0 0 0 0.025391 -0.013672 1 1 0 0 0 0.011719 -0.007812 1 1 0 0 0 0.0625 -0.03711 1 1 0 0 0 0.011719 -0.005859 1 1 0 0 0 0.056641 -0.042969 1 1 0 0 0 0.0625 -0.054687 1 1 0 0 0 0.013672 -0.011719 1 1 0 0 0 0.019531 -0.019531 1 1 0 0 0 0.011719 -0.013672 1 1 0 0 0 0.054688 -0.0625 1 1 0 0 0 0.042969 -0.056641 1 1 0 0 0 0.0058593 -0.011719 1 1 0 0 0 0.037109 -0.0625 1 1 0 0 0 0.0078125 -0.011718 1 1 0 0 0 0.013672 -0.025391 1 1 0 0 0 0.0097656 -0.023437 1 1 0 0 0 0.027344 -0.058594 1 1 0 0 0 0.0039062 -0.007813 1 1 0 0 0 0.023438 -0.068359 1 1 0 0 0 0.0078125 -0.027344 1 1 0 0 0 0.017578 -0.068359 1 1 0 0 0 0.0019531 -0.011719 1 1 0 0 0 0.011719 -0.087891 1 1 0 0 0 0.0058594 -0.099609v-8h-1zm3 0v8a1 1 0 0 0 0.005859 0.099609 1 1 0 0 0 0.011719 0.087891 1 1 0 0 0 0.013672 0.058594 1 1 0 0 0 0.009766 0.03125 1 1 0 0 0 0.017578 0.058594 1 1 0 0 0 0.013672 0.035156 1 1 0 0 0 0.027343 0.058594 1 1 0 0 0 0.019532 0.041015 1 1 0 0 0 0.011718 0.019531 1 1 0 0 0 0.03711 0.0625 1 1 0 0 0 0.048828 0.06836 1 1 0 0 0 0.054687 0.0625 1 1 0 0 0 0.021485 0.023437 1 1 0 0 0 0.023437 0.021485 1 1 0 0 0 0.0625 0.054687 1 1 0 0 0 0.06836 0.048828 1 1 0 0 0 0.0625 0.03711 1 1 0 0 0 0.019531 0.011718 1 1 0 0 0 0.041015 0.019532 1 1 0 0 0 0.058594 0.027343 1 1 0 0 0 0.035156 0.013672 1 1 0 0 0 0.058594 0.017578 1 1 0 0 0 0.03125 0.009766 1 1 0 0 0 0.058594 0.013672 1 1 0 0 0 0.087891 0.011719 1 1 0 0 0 0.099609 0.005859v-9h-1zm-6.5059 3.0117c-2e-7 0 2.4941 4.1167 2.4941 5.4941 0 0.157-0.018379 0.3087-0.046875 0.45703-0.0022647 0.012072-0.001485 0.025088-0.0039062 0.037109-0.006084 0.030207-0.022014 0.056225-0.029297 0.085938-0.030654 0.12377-0.068635 0.24367-0.11719 0.35937-0.011236 0.02704-0.015302 0.057351-0.027344 0.083985-0.0088782 0.019636-0.023777 0.035389-0.033203 0.054687-0.071921 0.14602-0.15276 0.28701-0.25 0.41602-0.13607 0.18053-0.30203 0.33429-0.48047 0.47266v0.009766c-0.10992 0.083906-0.22703 0.15891-0.34961 0.22461-0.039648 0.021202-0.082158 0.035619-0.12305 0.054688-0.11724 0.055029-0.239 0.10036-0.36523 0.13672-0.046838 0.013291-0.092684 0.026569-0.14062 0.037109-0.17042 0.038183-0.34494 0.064453-0.52734 0.064453-1.3774 0-2.4941-1.1167-2.4941-2.4941 0-0.17218 0.039223-0.38647 0.10742-0.63086 0.47739-1.7107 2.3867-4.8633 2.3867-4.8633z" style="fill-opacity:.5;fill:currentColor" class="ColorScheme-Background"/>
</svg>
