<?xml version="1.0" encoding="UTF-8"?>
<!-- Created with Inkscape (http://www.inkscape.org/) -->
<svg width="16" height="16" version="1.1" xmlns="http://www.w3.org/2000/svg" xmlns:cc="http://creativecommons.org/ns#" xmlns:dc="http://purl.org/dc/elements/1.1/" xmlns:rdf="http://www.w3.org/1999/02/22-rdf-syntax-ns#">
	<defs>
		<style id="current-color-scheme" type="text/css">.ColorScheme-Text {color:#090d11;}
			.ColorScheme-Background{color:#ffffff;}</style>
	</defs>
	<metadata>
		<rdf:RDF>
			<cc:Work rdf:about="">
				<dc:format>image/svg+xml</dc:format>
				<dc:type rdf:resource="http://purl.org/dc/dcmitype/StillImage"/>
			</cc:Work>
		</rdf:RDF>
	</metadata>
	<path class="ColorScheme-Background" d="m2 1c-1.0907 0-2 0.9093-2 2v10c0 1.0907 0.9093 2 2 2h12c1.0907 0 2-0.9093 2-2v-10c0-1.0907-0.9093-2-2-2zm0 1h12c0.554 0 1 0.446 1 1v10c0 0.554-0.446 1-1 1h-12c-0.554 0-1-0.446-1-1v-10c0-0.554 0.446-1 1-1zm2.5 2c-0.27613 2.76e-5 -0.49997 0.22387-0.5 0.5v5c2.76e-5 0.27613 0.22387 0.49997 0.5 0.5h7c0.27613-2.76e-5 0.49997-0.22387 0.5-0.5v-5c-2.8e-5 -0.27613-0.22387-0.49997-0.5-0.5zm0.5 1h6v4h-6zm-0.5 6c-0.277 0-0.5 0.223-0.5 0.5s0.223 0.5 0.5 0.5h7c0.277 0 0.5-0.223 0.5-0.5s-0.223-0.5-0.5-0.5z" style="fill:currentColor;opacity:.5"/>
	<path class="ColorScheme-Text" d="m2 2c-0.554 0-1 0.446-1 1v10c0 0.554 0.446 1 1 1h12c0.554 0 1-0.446 1-1v-10c0-0.554-0.446-1-1-1zm2.5 2h7c0.27613 2.76e-5 0.49997 0.22387 0.5 0.5v5c-2.8e-5 0.27613-0.22387 0.49997-0.5 0.5h-7c-0.27613-2.76e-5 -0.49997-0.22387-0.5-0.5v-5c2.76e-5 -0.27613 0.22387-0.49997 0.5-0.5zm0.5 1v4h6v-4zm-0.5 6h7c0.277 0 0.5 0.223 0.5 0.5s-0.223 0.5-0.5 0.5h-7c-0.277 0-0.5-0.223-0.5-0.5s0.223-0.5 0.5-0.5z" style="fill:currentColor;opacity:.75"/>
</svg>
