<?xml version="1.0" encoding="UTF-8"?>
<svg id="d" width="16" height="16" version="1.1" xmlns="http://www.w3.org/2000/svg" xmlns:cc="http://creativecommons.org/ns#" xmlns:dc="http://purl.org/dc/elements/1.1/" xmlns:rdf="http://www.w3.org/1999/02/22-rdf-syntax-ns#">
	<metadata id="a">
		<rdf:RDF>
			<cc:Work rdf:about="">
				<dc:format>image/svg+xml</dc:format>
				<dc:type rdf:resource="http://purl.org/dc/dcmitype/StillImage"/>
				<dc:title/>
			</cc:Work>
		</rdf:RDF>
	</metadata>
	<defs id="b">
		<style id="current-color-scheme" type="text/css">.ColorScheme-Text {color:#090d11;}.ColorScheme-Background{color:#ffffff;}</style>
	</defs>
	<path id="c" class="ColorScheme-Text" d="m10.956 5 4 3-4 3v-2h-6v-2h6zm-7 2v2h-1v-2zm-2 0v2h-1v-2z" style="fill-opacity:.75;fill:currentColor"/>
	<path id="e" class="ColorScheme-Background" d="m16.656 8-0.8125-1.0625-4-3-0.8439-0.6875v1.75l4 3-4 3v1.75l0.8439-0.6875 4-3zm-5.6564-2h-7v4h7v-1h-6v-2h6zm-8 0h-1v4h1v-3zm-2 0h-1v4h1v-3z" style="fill-opacity:.5;fill:currentColor"/>
</svg>
