<?xml version="1.0" encoding="UTF-8"?>
<svg id="c" width="16" height="16" version="1.1" xmlns="http://www.w3.org/2000/svg" xmlns:cc="http://creativecommons.org/ns#" xmlns:dc="http://purl.org/dc/elements/1.1/" xmlns:rdf="http://www.w3.org/1999/02/22-rdf-syntax-ns#">
	<metadata id="a">
		<rdf:RDF>
			<cc:Work rdf:about="">
				<dc:format>image/svg+xml</dc:format>
				<dc:type rdf:resource="http://purl.org/dc/dcmitype/StillImage"/>
				<dc:title/>
			</cc:Work>
		</rdf:RDF>
	</metadata>
	<defs>
		<style id="current-color-scheme" type="text/css">.ColorScheme-Text {color:#090d11;}.ColorScheme-Background{color:#ffffff;}</style>
	</defs>
	<path id="b" d="m5.0007 4.9999 3-4 3 4h-2v6h-2v-6zm2 7h2v1h-2zm0 2h2v1h-2z" style="fill-opacity:.75;fill:currentColor" class="ColorScheme-Text"/>
	<path id="d" d="m8.0004-0.6561-1.0625 0.8125-3 4-0.6875 0.8439h1.75l3-4 3 4h1.75l-0.6875-0.8439-3-4zm-2 5.6564v6 1h1 2 1v-1-6h-1v6h-2v-6zm0 8v1h1 2 1v-1h-1-2zm0 2v1h1 2 1v-1h-1-2z" style="fill-opacity:.5;fill:currentColor" class="ColorScheme-Background"/>
</svg>
