<?xml version="1.0" encoding="UTF-8"?>
<!-- Created with Inkscape (http://www.inkscape.org/) -->
<svg width="16" height="16" version="1.1" xmlns="http://www.w3.org/2000/svg" xmlns:cc="http://creativecommons.org/ns#" xmlns:dc="http://purl.org/dc/elements/1.1/" xmlns:rdf="http://www.w3.org/1999/02/22-rdf-syntax-ns#">
	<metadata>
		<rdf:RDF>
			<cc:Work rdf:about="">
				<dc:format>image/svg+xml</dc:format>
				<dc:type rdf:resource="http://purl.org/dc/dcmitype/StillImage"/>
				<dc:title/>
			</cc:Work>
		</rdf:RDF>
	</metadata>
	<path d="m8.0703 1.6445c-0.33019-0.0036454-0.66402 0.019085-0.99805 0.068359-2.6722 0.39422-4.8062 2.4405-5.3125 5.0938-0.50631 2.6532 0.72517 5.3409 3.0645 6.6914l0.5-0.86719c-1.9739-1.1396-3.0093-3.3979-2.582-5.6367 0.42725-2.2388 2.2217-3.9603 4.4766-4.293 2.2549-0.33263 4.4698 0.79634 5.5254 2.8164 1.0262 1.9639 0.72456 4.3389-0.72656 5.9961-0.40516-0.3998-1.2955-1.2657-1.457-1.2461-0.18914 0.026573-0.42066 1.6253-0.44727 1.8145-0.02662 0.18905-0.2465 1.7906-0.083984 1.9531 0.16258 0.16252 1.764-0.057374 1.9531-0.083984 0.18915-0.026621 1.7878-0.25619 1.8145-0.44531 0.019871-0.14108-0.63444-0.82699-1.0742-1.2773 1.7616-1.9664 2.1337-4.8247 0.90625-7.1738-1.0946-2.0947-3.2472-3.3846-5.5586-3.4102z" color="#000000" color-rendering="auto" dominant-baseline="auto" fill="#bebebe" image-rendering="auto" shape-rendering="auto" solid-color="#000000" style="font-feature-settings:normal;font-variant-alternates:normal;font-variant-caps:normal;font-variant-east_asian:normal;font-variant-ligatures:normal;font-variant-numeric:normal;font-variant-position:normal;isolation:auto;mix-blend-mode:normal;paint-order:normal;shape-padding:0;text-decoration-color:#000000;text-decoration-line:none;text-decoration-style:solid;text-indent:0;text-orientation:mixed;text-transform:none;white-space:normal"/>
</svg>
