<?xml version="1.0" encoding="UTF-8"?>
<svg id="c" width="16" height="16" version="1.1" xmlns="http://www.w3.org/2000/svg" xmlns:cc="http://creativecommons.org/ns#" xmlns:dc="http://purl.org/dc/elements/1.1/" xmlns:rdf="http://www.w3.org/1999/02/22-rdf-syntax-ns#">
	<metadata id="a">
		<rdf:RDF>
			<cc:Work rdf:about="">
				<dc:format>image/svg+xml</dc:format>
				<dc:type rdf:resource="http://purl.org/dc/dcmitype/StillImage"/>
				<dc:title/>
			</cc:Work>
		</rdf:RDF>
	</metadata>
	<defs id="e">
		<style id="current-color-scheme" type="text/css">.ColorScheme-Text {color:#090d11;}.ColorScheme-Background{color:#ffffff;}</style>
	</defs>
	<path id="b" class="ColorScheme-Text" d="m0 0v3h3v-3zm3 3v3h3v-3zm3 0h3v-3h-3zm3 0v3h3v-3zm3 0h3v-3h-3zm0 3v3h3v-3zm0 3h-3v3h3zm0 3v3h3v-3zm-3 0h-3v3h3zm-3 0v-3h-3v3zm-3 0h-3v3h3zm0-3v-3h-3v3zm3 0h3v-3h-3z" style="fill-opacity:.75;fill:currentColor"/>
	<path id="d" class="ColorScheme-Background" d="m3 0v3h3v-3zm3 3v3h3v-3zm3 0h3v-3h-3zm3 0v3h3v-3zm0 3h-3v3h3zm0 3v3h3v-3zm0 3h-3v3h3zm-3 0v-3h-3v3zm-3 0h-3v3h3zm-3 0v-3h-3v3zm0-3h3v-3h-3zm0-3v-3h-3v3z" style="fill-opacity:.5;fill:currentColor"/>
</svg>
