<?xml version="1.0" encoding="UTF-8"?>
<!-- Created with Inkscape (http://www.inkscape.org/) -->
<svg width="16" height="16" version="1.1" xmlns="http://www.w3.org/2000/svg" xmlns:cc="http://creativecommons.org/ns#" xmlns:dc="http://purl.org/dc/elements/1.1/" xmlns:rdf="http://www.w3.org/1999/02/22-rdf-syntax-ns#">
	<defs>
		<style id="current-color-scheme" type="text/css">.ColorScheme-Text {
			color:#090d11;
			}
			.ColorScheme-Background{
			color:#ffffff;
			}</style>
	</defs>
	<metadata>
		<rdf:RDF>
			<cc:Work rdf:about="">
				<dc:format>image/svg+xml</dc:format>
				<dc:type rdf:resource="http://purl.org/dc/dcmitype/StillImage"/>
			</cc:Work>
		</rdf:RDF>
	</metadata>
	<path class="ColorScheme-Background" d="m8.332 0.166c2.0821-0.017839 4.217 0.84527 5.7148 2.7363l-0.64844 0.69922c-1.3553-1.6659-3.3674-2.5969-5.4473-2.5859-0.72457 0.00383-1.4565 0.12086-2.1699 0.35938-2.8539 0.95406-4.7812 3.6358-4.7812 6.6523 0-3.2616 1.4514-5.5594 3.791-6.9102 1.0612-0.61268 2.2918-0.94047 3.541-0.95117zm7.668 1.4199v5.4141h-5.377l0.98633-1h3.3906v-3.4141l1-1zm-7.834 0.43359c1.8077 0.080007 3.543 0.96677 4.5215 2.293l-0.34766 0.34766c-1.8051-2.86-5.3908-3.0322-7.3574-1.834 0.98779-0.6123 2.099-0.85464 3.1836-0.80664zm6.834 5.9531c0 3.2616-1.4514 5.5594-3.791 6.9102-2.8298 1.6338-6.8594 1.2405-9.2559-1.7852l0.64844-0.69922c1.3553 1.6659 3.3674 2.5969 5.4473 2.5859 0.72457-0.0038 1.4565-0.12086 2.1699-0.35938 2.8539-0.95406 4.7812-3.6358 4.7812-6.6523zm-9.623 1.0273-0.98633 1h-3.3906v3.4141l-1 1v-5.4141h5.377zm-1.7168 2.3398c1.8051 2.86 5.3908 3.0322 7.3574 1.834-2.6341 1.6328-6.1396 0.63559-7.7051-1.4863l0.34766-0.34766z" style="fill-opacity:.5;fill:currentColor"/>
	<path class="ColorScheme-Text" d="m7.9512 1.0156c2.0799-0.01099 4.092 0.92004 5.4473 2.5859l1.6016-1.6016v4h-4l1.6875-1.6875c-1.5608-1.9877-4.1883-2.7931-6.5898-1.9902-2.4481 0.81841-4.0977 3.1137-4.0977 5.7051h-1c0-3.0166 1.9274-5.6983 4.7812-6.6523 0.71347-0.23852 1.4454-0.35554 2.1699-0.35938zm7.0488 6.957c0 3.0166-1.9274 5.6983-4.7812 6.6523-0.71347 0.23852-1.4454 0.35554-2.1699 0.35938-2.0799 0.01099-4.092-0.92004-5.4473-2.5859l-1.6016 1.6016v-4h4l-1.6875 1.6875c1.5608 1.9877 4.1883 2.7931 6.5898 1.9902 2.4481-0.81841 4.0977-3.1137 4.0977-5.7051h1z" style="fill-opacity:.75;fill:currentColor"/>
</svg>
