<?xml version="1.0" encoding="UTF-8"?>
<!-- Created with Inkscape (http://www.inkscape.org/) -->
<svg width="16" height="16" version="1.1" xmlns="http://www.w3.org/2000/svg" xmlns:cc="http://creativecommons.org/ns#" xmlns:dc="http://purl.org/dc/elements/1.1/" xmlns:rdf="http://www.w3.org/1999/02/22-rdf-syntax-ns#">
	<defs>
		<style id="current-color-scheme" type="text/css">.ColorScheme-Text {color:#090d11;}.ColorScheme-Background{color:#ffffff;}</style>
	</defs>
	<metadata>
		<rdf:RDF>
			<cc:Work rdf:about="">
				<dc:format>image/svg+xml</dc:format>
				<dc:type rdf:resource="http://purl.org/dc/dcmitype/StillImage"/>
			</cc:Work>
		</rdf:RDF>
	</metadata>
	<path id="b" class="ColorScheme-Background" d="m12.5-0.25c-0.14558 2.287e-5 -0.28393 0.063489-0.37891 0.17383l-3 3.5c-0.18012 0.20927-0.15651 0.52493 0.052734 0.70508 0.20927 0.18012 0.52493 0.15651 0.70508-0.052734l1.1211-1.3086v0.033203l0.64648-0.77539c-0.0019-0.00132-0.003859-0.0026162-0.005859-0.0039062l0.30664-0.35938 0.55273-0.66211 0.50977 0.61133 0.35156 0.41016c-0.0026 0.00128-0.005212 0.0025762-0.007812 0.0039062l0.64648 0.77539v-0.033203l1.1211 1.3086c0.18015 0.20924 0.49581 0.23285 0.70508 0.052734 0.20924-0.18015 0.23285-0.49581 0.052734-0.70508l-3-3.5c-0.09497-0.11034-0.23333-0.17381-0.37891-0.17383zm-7.7344 0.25a0.50005 0.50005 0 0 0-0.45117 0.25586l-3.5 6.25a0.5 0.5 0 0 0 0.19141 0.67969 0.5 0.5 0 0 0 0.67969-0.19141l0.55664-0.99414h4.5918l0.46484 0.9668a0.5 0.5 0 0 0 0.66797 0.23438 0.5 0.5 0 0 0 0.23438-0.66797l-3-6.25a0.50005 0.50005 0 0 0-0.43555-0.2832zm-0.050781 1.584 1.6406 3.416h-3.5527l1.9121-3.416zm6.2852 2.416v2.5c0 0.27614 0.22386 0.5 0.5 0.5s0.5-0.22386 0.5-0.5v-2.5h-1zm2 0v2.5c0 0.27614 0.22386 0.5 0.5 0.5s0.5-0.22386 0.5-0.5v-2.5h-1zm-10.75 4a0.5 0.5 0 0 0-0.5 0.5 0.5 0.5 0 0 0 0.5 0.5h3.043l-5.1465 5.1465a0.50005 0.50005 0 0 0 0.35352 0.85352h6.75a0.5 0.5 0 0 0 0.5-0.5 0.5 0.5 0 0 0-0.5-0.5h-5.543l5.1465-5.1465a0.50005 0.50005 0 0 0-0.35352-0.85352h-4.25zm9.25 1c-0.27614 0-0.5 0.22386-0.5 0.5v2.5h1v-2.5c0-0.27614-0.22386-0.5-0.5-0.5zm2 0c-0.27614 0-0.5 0.22386-0.5 0.5v2.5h1v-2.5c0-0.27614-0.22386-0.5-0.5-0.5zm-3.9609 2.752c-0.13275-0.01051-0.26421 0.032371-0.36523 0.11914-0.20924 0.18015-0.23285 0.49581-0.052734 0.70508l3 3.5c0.1995 0.23165 0.55832 0.23165 0.75781 0l3-3.5c0.18012-0.20927 0.15651-0.52493-0.052734-0.70508-0.20927-0.18012-0.52493-0.15651-0.70508 0.052734l-1.1211 1.3086v-0.033203l-0.64648 0.77539 0.007812 0.003907-0.35156 0.41016-0.50977 0.61133-0.50977-0.61133-0.35156-0.41016 0.007812-0.003907-0.64648-0.77539v0.033203l-1.1211-1.3086c-0.086173-0.09988-0.20832-0.16166-0.33984-0.17188z" style="fill-opacity:.5;fill:currentColor"/>
	<path id="d" class="ColorScheme-Text" d="m12.5 1-2.5 3h2v2.5c0 0.27614 0.22386 0.5 0.5 0.5s0.5-0.22386 0.5-0.5v-2.5h2l-2.5-3zm-7.5 1a0.50005 0.50005 0 0 0-0.46484 0.31445l-2 5a0.5 0.5 0 0 0 0.2793 0.65039 0.5 0.5 0 0 0 0.65039-0.2793l0.27539-0.6875a0.5 0.5 0 0 0 0.0097656 0.0019531h2.5a0.5 0.5 0 0 0 0.0097656-0.0019531l0.27539 0.6875a0.5 0.5 0 0 0 0.65039 0.2793 0.5 0.5 0 0 0 0.2793-0.65039l-2-5a0.50005 0.50005 0 0 0-0.46484-0.31445zm0 1.8477 0.86133 2.1523h-1.7227l0.86133-2.1523zm-2 5.1523a0.5 0.5 0 0 0-0.5 0.5 0.5 0.5 0 0 0 0.5 0.5h2.793l-3.1465 3.1465a0.50005 0.50005 0 0 0 0.35352 0.85352h4a0.5 0.5 0 0 0 0.5-0.5 0.5 0.5 0 0 0-0.5-0.5h-2.793l3.1465-3.1465a0.50005 0.50005 0 0 0-0.35352-0.85352h-4zm9.5 0c-0.27614 0-0.5 0.22386-0.5 0.5v2.5h-2l2.5 3 2.5-3h-2v-2.5c0-0.27614-0.22386-0.5-0.5-0.5z" style="fill-opacity:.75;fill:currentColor"/>
</svg>
