<?xml version="1.0" encoding="UTF-8"?>
<svg id="a" width="16" height="16" version="1.1" xmlns="http://www.w3.org/2000/svg" xmlns:cc="http://creativecommons.org/ns#" xmlns:dc="http://purl.org/dc/elements/1.1/" xmlns:rdf="http://www.w3.org/1999/02/22-rdf-syntax-ns#">
	<metadata id="c">
		<rdf:RDF>
			<cc:Work rdf:about="">
				<dc:format>image/svg+xml</dc:format>
				<dc:type rdf:resource="http://purl.org/dc/dcmitype/StillImage"/>
			</cc:Work>
		</rdf:RDF>
	</metadata>
	<defs>
		<style id="current-color-scheme" type="text/css">.ColorScheme-Text {color:#090d11;}.ColorScheme-Background{color:#ffffff;}</style>
	</defs>
	<path id="d" class="ColorScheme-Text" d="m8 1c-3.5248 0-6.419 2.61-6.9062 6h0.99414c0.30242-1.782 1.3989-3.3682 3.0293-4.2617 0.909-0.49816 1.9114-0.74241 2.9082-0.73828 0.1424 5.897e-4 0.28386 0.0068976 0.42578 0.017578 1.0074 0.075813 1.9935 0.4074 2.8613 0.98242h1.5625c-1.2616-1.2309-2.9731-2-4.875-2zm1 4v2h6v-2h-6zm-8 4v2h6v-2h-6zm12.912 0c-0.31452 1.8573-1.4886 3.4859-3.2031 4.3535-1.9288 0.97606-4.2293 0.83194-6.0195-0.35352h-1.5645c1.2616 1.2309 2.9731 2 4.875 2 3.5248 0 6.419-2.61 6.9062-6h-0.99414z" style="fill-opacity:.75;fill:currentColor"/>
	<path id="b" class="ColorScheme-Background" d="m8 0c-3.7445 0-6.8863 2.5859-7.7578 6.0605l1.0703-0.060547c0.86143-2.885 3.5217-5 6.6875-5 2.791 0 5.1883 1.637 6.3125 4l1.1426 0.091797c-1.1612-2.985-4.0594-5.0918-7.4551-5.0918zm1 7v1h7v-1h-7zm-9 1v1h7v-1h-7zm15.758 1.9395-1.0703 0.060547c-0.86144 2.885-3.5217 5-6.6875 5-2.791 0-5.1883-1.637-6.3125-4l-1.1426-0.091797c1.1612 2.985 4.0594 5.0918 7.4551 5.0918 3.7445 0 6.8863-2.5859 7.7578-6.0605z" style="fill-opacity:.5;fill:currentColor"/>
</svg>
