<?xml version="1.0" encoding="UTF-8"?>
<svg id="b" width="16" height="16" version="1.1" xmlns="http://www.w3.org/2000/svg" xmlns:cc="http://creativecommons.org/ns#" xmlns:dc="http://purl.org/dc/elements/1.1/" xmlns:rdf="http://www.w3.org/1999/02/22-rdf-syntax-ns#">
	<metadata id="f">
		<rdf:RDF>
			<cc:Work rdf:about="">
				<dc:format>image/svg+xml</dc:format>
				<dc:type rdf:resource="http://purl.org/dc/dcmitype/StillImage"/>
				<dc:title/>
			</cc:Work>
		</rdf:RDF>
	</metadata>
	<defs>
		<style id="current-color-scheme" type="text/css">.ColorScheme-Text {color:#090d11;}.ColorScheme-Background{color:#ffffff;}</style>
	</defs>
	<path id="e" d="m8-0.75-4.25 5.75h1.25l3-4 3 4h1.25l-4.25-5.75zm6 3.2188v1.7812l0.5625 1c0.1558 0.26992-0.0142 0.56049-0.1875 0.71875l-1.1875 1c0.0632 0.32768 0.09375 0.68506 0.09375 1.0312s-0.02975 0.70362-0.09375 1.0312l1.1875 1c0.2067 0.20415 0.3223 0.4744 0.1875 0.71875l-0.875 1.5312c-0.1559 0.26995-0.5264 0.28955-0.75 0.21875l-1.4688-0.5c-0.5027 0.43719-1.0762 0.74543-1.7188 0.96875l-0.3125 1.5625c-0.0732 0.28106-0.2835 0.52625-0.5625 0.53125h-1.75c-0.3116 0-0.5125-0.30217-0.5625-0.53125l-0.3125-1.5625c-0.6424-0.22332-1.216-0.53156-1.7188-0.96875l-1.4688 0.5c-0.2801 0.07693-0.6057 0.0202-0.75-0.21875l-0.875-1.5312c-0.1558-0.26993 0.0142-0.56049 0.1875-0.71875l1.1875-1c-0.0632-0.32768-0.09375-0.68506-0.09375-1.0312s0.03075-0.70362 0.09375-1.0312l-1.1875-1c-0.2067-0.20415-0.3223-0.4744-0.1875-0.71875l0.5625-1v-1.75c-0.2679 0.13416-0.54285 0.32028-0.71875 0.625l-0.8125 1.4375-0.03125 0.03125c-0.011533 0.00921-0.022036 0.019717-0.03125 0.03125-8.1917e-4 0.010395-8.1917e-4 0.020855 0 0.03125-0.010395-8.192e-4 -0.020855-8.192e-4 -0.03125 0-0.23955 0.43411-0.21566 0.96042-0.09375 1.3438 0.11643 0.36536 0.32648 0.6416 0.53125 0.84375 0.010395 8.192e-4 0.020855 8.192e-4 0.03125 0 0.009214 0.011533 0.019717 0.022036 0.03125 0.03125 0.010395 8.192e-4 0.020855 8.192e-4 0.03125 0l0.6875 0.625c-0.021592 0.15181-0.0625 0.30928-0.0625 0.5s0.040908 0.34819 0.0625 0.5l-0.65625 0.59375h-0.03125c-0.011533 0.00921-0.022036 0.019717-0.03125 0.03125-0.010395-8.192e-4 -0.020855-8.192e-4 -0.03125 0-8.1917e-4 0.010395-8.1917e-4 0.020855 0 0.03125-0.010395-8.192e-4 -0.020855-8.192e-4 -0.03125 0-8.1917e-4 0.010395-8.1917e-4 0.020855 0 0.03125-0.011533 0.00921-0.022036 0.019717-0.03125 0.03125-8.1917e-4 0.010395-8.1917e-4 0.020855 0 0.03125-0.17221 0.16341-0.38124 0.36337-0.5 0.6875-0.14476 0.39477-0.14581 0.93723 0.125 1.4062l0.875 1.5v0.03125c0.00921 0.01153 0.019717 0.02204 0.03125 0.03125 0.26517 0.43934 0.70292 0.69905 1.0938 0.78125 0.35679 0.07502 0.67063 0.0073 0.9375-0.0625h0.03125 0.03125c0.010395 8.19e-4 0.020855 8.19e-4 0.03125 0 0.010395 8.19e-4 0.020855 8.19e-4 0.03125 0l0.9375-0.34375c0.26033 0.17306 0.53279 0.33609 0.8125 0.46875l0.1875 0.96875v0.03125c-8.192e-4 0.01039-8.192e-4 0.02085 0 0.03125 0.067561 0.30858 0.18382 0.59466 0.4375 0.875 0.26646 0.29446 0.7339 0.59375 1.2812 0.59375h1.75 0.03125c0.47169-9e-3 0.87489-0.19342 1.1562-0.46875 0.28141-0.27533 0.44724-0.61482 0.53125-0.9375 8.19e-4 -0.0104 8.19e-4 -0.02086 0-0.03125 8.19e-4 -0.0104 8.19e-4 -0.02086 0-0.03125v-0.03125-0.03125l0.1875-0.96875c0.27971-0.13267 0.55217-0.29569 0.8125-0.46875l0.9375 0.34375c0.0104 8.19e-4 0.02085 8.19e-4 0.03125 0 0.0104 8.19e-4 0.02085 8.19e-4 0.03125 0 0.0095 0.0029 0.02166-0.0028 0.03125 0 0.26169 0.07547 0.55762 0.1212 0.90625 0.0625 0.40019-0.06734 0.9037-0.32107 1.1875-0.8125l0.8125-1.4375c0.01153-0.0092 0.02204-0.01972 0.03125-0.03125 0.01153-0.0092 0.02204-0.01972 0.03125-0.03125 8.19e-4 -0.0104 8.19e-4 -0.02086 0-0.03125 0.0104 8.19e-4 0.02085 8.19e-4 0.03125 0 0.23944-0.43402 0.21566-0.96034 0.09375-1.3438-0.1165-0.3653-0.32621-0.64147-0.53125-0.84375-0.0104-8.192e-4 -0.02085-8.192e-4 -0.03125 0-0.0092-0.011533-0.01972-0.022036-0.03125-0.03125h-0.03125l-0.6875-0.625c0.02159-0.15181 0.0625-0.30928 0.0625-0.5s-0.04091-0.34819-0.0625-0.5l0.65625-0.59375 0.0625-0.03125c0.0104 8.192e-4 0.02085 8.192e-4 0.03125 0 8.19e-4 -0.010395 8.19e-4 -0.020855 0-0.03125 0.0095-0.00863 0.02162-0.022353 0.03125-0.03125 0.0104 8.192e-4 0.02085 8.192e-4 0.03125 0 0.0049-0.00452-0.0049-0.026658 0-0.03125 8.19e-4 -0.010395 8.19e-4 -0.020855 0-0.03125 0.17212-0.16339 0.38115-0.36339 0.5-0.6875 0.14462-0.39474 0.14569-0.93724-0.125-1.4062l-0.875-1.5c8.19e-4 -0.010395 8.19e-4 -0.020855 0-0.03125-0.0092-0.011533-0.01972-0.022036-0.03125-0.03125-0.17579-0.29113-0.42407-0.491-0.6875-0.625zm-8 2.5312v4 1h4v-1-4h-1v4h-2v-4h-1z" style="fill-opacity:.5;fill:currentColor" class="ColorScheme-Background"/>
	<path id="d" d="m8 1-3 4h2v4h2v-4h2l-3-4zm-6.2812 5 1.1562 1c-0.06256 0.32539-0.125 0.65618-0.125 1s0.062241 0.67461 0.125 1l-1.1875 1.0312c-0.17209 0.15715-0.34221 0.45071-0.1875 0.71875l0.875 1.5312c0.14329 0.23728 0.44061 0.26389 0.71875 0.1875l1.4688-0.5c0.49919 0.43414 1.0808 0.74699 1.7188 0.96875l0.28125 1.5312c0.049651 0.22748 0.25308 0.53125 0.5625 0.53125h1.75c0.27705-5e-3 0.48981-0.25216 0.5625-0.53125l0.28125-1.5312c0.63801-0.22176 1.2196-0.53462 1.7188-0.96875l1.4688 0.5c0.22204 0.07031 0.56394 0.080563 0.71875-0.1875l0.875-1.5312c0.13386-0.24264 0.017753-0.51603-0.1875-0.71875l-1.1875-1.0312c0.06355-0.32539 0.125-0.65618 0.125-1s-0.06224-0.67461-0.125-1l1.1562-1h-3.5938c0.41474 0.55692 0.65625 1.2493 0.65625 2 0 1.8521-1.4916 3.3438-3.3438 3.3438s-3.3438-1.4916-3.3438-3.3438c0-0.75065 0.24151-1.4431 0.65625-2h-3.5938z" style="fill-opacity:.75;fill:currentColor" class="ColorScheme-Text"/>
</svg>
