<?xml version="1.0" encoding="UTF-8"?>
<!-- Created with Inkscape (http://www.inkscape.org/) -->
<svg width="16" height="16" version="1.0" xmlns="http://www.w3.org/2000/svg" xmlns:cc="http://creativecommons.org/ns#" xmlns:dc="http://purl.org/dc/elements/1.1/" xmlns:rdf="http://www.w3.org/1999/02/22-rdf-syntax-ns#">
	<metadata>
		<rdf:RDF>
			<cc:Work rdf:about="">
				<dc:format>image/svg+xml</dc:format>
				<dc:type rdf:resource="http://purl.org/dc/dcmitype/StillImage"/>
			</cc:Work>
		</rdf:RDF>
	</metadata>
	<defs>
		<style id="current-color-scheme" type="text/css">.ColorScheme-Text {color:#090d11;}.ColorScheme-Background{color:#ffffff;}</style>
	</defs>
	<path class="ColorScheme-Text" d="m3.5 1c-0.27613 2.76e-5 -0.49997 0.22387-0.5 0.5v13c2.76e-5 0.27613 0.22387 0.49997 0.5 0.5h9c0.03463 0 0.06896-0.0031 0.10156-0.0098 0.03261-0.0066 0.06382-0.01668 0.09375-0.0293s0.05739-0.02894 0.08399-0.04688c0.02659-0.01793 0.05162-0.03795 0.07422-0.06055 0.02259-0.02259 0.04261-0.04763 0.06055-0.07422s0.03426-0.05405 0.04688-0.08399c0.01262-0.02993 0.02266-0.06114 0.0293-0.09375 0.006603-0.032503 0.009748-0.066885 0.009748-0.10151v-13c0-0.277-0.223-0.5-0.5-0.5h-2zm0.5 1h6v12h-6v-3h2.5c0.277 0 0.5-0.20523 0.5-0.46094v-0.07812c0-0.25572-0.223-0.46094-0.5-0.46094h-2.5v-2h2.5c0.277 0 0.5-0.21287 0.5-0.47656v-0.046875c0-0.26369-0.223-0.47656-0.5-0.47656h-2.5v-2h2.5c0.277 0 0.5-0.18053 0.5-0.4043v-0.19141c0-0.22376-0.223-0.4043-0.5-0.4043h-2.5zm7 0h1v12h-1z" style="fill-opacity:.75;fill:currentColor"/>
</svg>
