<?xml version="1.0" encoding="UTF-8"?>
<svg id="a" width="16" height="16" version="1.1" xmlns="http://www.w3.org/2000/svg" xmlns:cc="http://creativecommons.org/ns#" xmlns:dc="http://purl.org/dc/elements/1.1/" xmlns:rdf="http://www.w3.org/1999/02/22-rdf-syntax-ns#">
	<metadata id="d">
		<rdf:RDF>
			<cc:Work rdf:about="">
				<dc:format>image/svg+xml</dc:format>
				<dc:type rdf:resource="http://purl.org/dc/dcmitype/StillImage"/>
			</cc:Work>
		</rdf:RDF>
	</metadata>
	<defs id="f">
		<style id="current-color-scheme" type="text/css">.ColorScheme-Text {color:#090d11;}.ColorScheme-Background{color:#ffffff;}</style>
	</defs>
	<path id="c" class="ColorScheme-Text" d="m1.5 1c-0.44142 8.54e-5 -0.66622 0.53033-0.35938 0.84766l5.8594 6.084v6.0684h2v-6.0684l5.8594-6.084c0.30685-0.31732 0.082041-0.84757-0.35938-0.84766zm1.1758 1h10.648l-5.3242 5.5293z" style="fill-opacity:.75;fill:currentColor"/>
	<path id="b" class="ColorScheme-Background" d="m0.5 0c-0.27613 2.76e-5 -0.49997 0.22387-0.5 0.5v1.5c-2.0406e-5 0.12879 0.049653 0.25263 0.13867 0.3457l5.8613 6.1055v5.5488c0 0.27614 0.22386 0.5 0.5 0.5s0.5-0.22386 0.5-0.5v-5.75c2.04e-5 -0.12879-0.049653-0.25263-0.13867-0.3457l-5.8613-6.1055v-0.79883h14v0.79883l-5.8613 6.1055c-0.089019 0.093076-0.13869 0.21691-0.13867 0.3457v5.75c0 0.27614 0.22386 0.5 0.5 0.5s0.5-0.22386 0.5-0.5v-5.5488l5.8613-6.1055c0.089019-0.093076 0.13869-0.21691 0.13867-0.3457v-1.5c-2.8e-5 -0.27613-0.22387-0.49997-0.5-0.5zm3.5 2c-0.27614 0-0.5 0.22386-0.5 0.5s0.22386 0.5 0.5 0.5h8c0.27614 0 0.5-0.22386 0.5-0.5s-0.22386-0.5-0.5-0.5z" style="fill-opacity:.5;fill:currentColor"/>
</svg>
