<?xml version="1.0" encoding="UTF-8"?>
<svg id="d" width="16" height="16" version="1.1" xmlns="http://www.w3.org/2000/svg" xmlns:cc="http://creativecommons.org/ns#" xmlns:dc="http://purl.org/dc/elements/1.1/" xmlns:rdf="http://www.w3.org/1999/02/22-rdf-syntax-ns#">
	<metadata id="f">
		<rdf:RDF>
			<cc:Work rdf:about="">
				<dc:format>image/svg+xml</dc:format>
				<dc:type rdf:resource="http://purl.org/dc/dcmitype/StillImage"/>
				<dc:title/>
			</cc:Work>
		</rdf:RDF>
	</metadata>
	<defs id="f">
		<style id="current-color-scheme" type="text/css">.ColorScheme-Text {color:#090d11;}.ColorScheme-Background{color:#ffffff;}</style>
	</defs>
	<path id="e" d="m2.5 2c-0.8224 0-1.5 0.6776-1.5 1.5v9c0 0.8223 0.6776 1.5 1.5 1.5h11c0.8223 0 1.5-0.6777 1.5-1.5v-9c0-0.8224-0.6777-1.5-1.5-1.5h-11zm0 1h11c0.2856 0 0.5 0.2143 0.5 0.5v9c0 0.2856-0.2144 0.5-0.5 0.5h-11c-0.2857 0-0.5-0.2144-0.5-0.5v-9c0-0.2857 0.2143-0.5 0.5-0.5zm5.5 1v8h5v-8h-5zm3.8711 1.6172a0.50005 0.50005 0 0 1 0.35742 0.86133l-1.0215 1.0215 1.0215 1.0215a0.50005 0.50005 0 1 1-0.70703 0.70703l-1.0215-1.0215-1.0215 1.0215a0.50005 0.50005 0 1 1-0.70703-0.70703l1.0215-1.0215-1.0215-1.0215a0.50005 0.50005 0 0 1 0.34961-0.85742 0.50005 0.50005 0 0 1 0.35742 0.15039l1.0215 1.0215 1.0215-1.0215a0.50005 0.50005 0 0 1 0.34961-0.1543z" style="fill-opacity:.75;fill:currentColor" class="ColorScheme-Text"/>
	<path id="c" d="m1.5 1c-0.8224 0-1.5 0.6776-1.5 1.5v11c0 0.8223 0.6776 1.5 1.5 1.5h13c0.8223 0 1.5-0.6777 1.5-1.5v-11c0-0.8224-0.6777-1.5-1.5-1.5h-13zm0 1h13c0.2856 0 0.5 0.2143 0.5 0.5v11c0 0.2856-0.2144 0.5-0.5 0.5h-13c-0.2857 0-0.5-0.2144-0.5-0.5v-11c0-0.2857 0.2143-0.5 0.5-0.5zm6 1a0.50005 0.50005 0 0 0-0.5 0.5v9a0.50005 0.50005 0 0 0 0.5 0.5h6a0.50005 0.50005 0 0 0 0.5-0.5v-9a0.50005 0.50005 0 0 0-0.5-0.5h-6zm0.5 1h5v8h-5v-8zm3.8711 1.6172a0.50005 0.50005 0 0 0-0.34961 0.1543l-1.0215 1.0215-1.0215-1.0215a0.50005 0.50005 0 0 0-0.35742-0.15039 0.50005 0.50005 0 0 0-0.34961 0.85742l1.0215 1.0215-1.0215 1.0215a0.50005 0.50005 0 1 0 0.70703 0.70703l1.0215-1.0215 1.0215 1.0215a0.50005 0.50005 0 1 0 0.70703-0.70703l-1.0215-1.0215 1.0215-1.0215a0.50005 0.50005 0 0 0-0.35742-0.86133z" style="fill-opacity:.5;fill:currentColor" class="ColorScheme-Background"/>
</svg>
