<?xml version="1.0" encoding="UTF-8"?>
<svg id="d" width="16" height="16" version="1.1" xmlns="http://www.w3.org/2000/svg" xmlns:cc="http://creativecommons.org/ns#" xmlns:dc="http://purl.org/dc/elements/1.1/" xmlns:rdf="http://www.w3.org/1999/02/22-rdf-syntax-ns#">
	<metadata id="f">
		<rdf:RDF>
			<cc:Work rdf:about="">
				<dc:format>image/svg+xml</dc:format>
				<dc:type rdf:resource="http://purl.org/dc/dcmitype/StillImage"/>
				<dc:title/>
			</cc:Work>
		</rdf:RDF>
	</metadata>
	<defs>
		<style id="current-color-scheme" type="text/css">.ColorScheme-Text {color:#090d11;}.ColorScheme-Background{color:#ffffff;}</style>
	</defs>
	<path id="e" d="m2.5 2c-0.8223 0-1.5 0.6776-1.5 1.5v9c0 0.95051 0.6777 1.5 1.5 1.5h11c0.8224 0 1.5-0.54949 1.5-1.5v-9c0-0.8224-0.6776-1.5-1.5-1.5h-11zm5.5 1h5.5c0.2857 0 0.5 0.17952 0.5 0.5v9c0 0.2856-0.2143 0.5-0.5 0.5h-5.5v-10zm-5 1h2v2h-2v-2zm0 3h2v2h-2v-2z" style="fill-opacity:.75;fill:currentColor" class="ColorScheme-Text" />
	<path id="c" d="m1.5 1c-0.8223 0-1.5 0.6776-1.5 1.5v11c0 0.9376 0.6777 1.5 1.5 1.5h13c0.8224 0 1.5-0.5624 1.5-1.5v-11c0-0.8224-0.6776-1.5-1.5-1.5h-13zm0 1h13c0.2857 0 0.5 0.18211 0.5 0.5v11c0 0.2856-0.2143 0.5-0.5 0.5h-13c-0.2856 0-0.5-0.2144-0.5-0.5v-11c0-0.31789 0.2144-0.5 0.5-0.5zm7 1c-0.277 0-0.5 0.223-0.5 0.5v9c0 0.277 0.223 0.5 0.5 0.5s0.5-0.223 0.5-0.5v-9c0-0.277-0.223-0.5-0.5-0.5zm-5.5 1v2h2v-2h-2zm0 3v2h2v-2h-2z" style="fill-opacity:.5;fill:currentColor" class="ColorScheme-Background" />
</svg>
