<?xml version="1.0" encoding="UTF-8"?>
<!-- Created with Inkscape (http://www.inkscape.org/) -->
<svg width="18" height="18" version="1.1" xmlns="http://www.w3.org/2000/svg" xmlns:cc="http://creativecommons.org/ns#" xmlns:dc="http://purl.org/dc/elements/1.1/" xmlns:rdf="http://www.w3.org/1999/02/22-rdf-syntax-ns#">
	<defs>
		<linearGradient id="d" x1="8.567" x2="8.567" y1="5.0117" y2="14.339" gradientTransform="translate(1,-1)" gradientUnits="userSpaceOnUse">
			<stop stop-color="#000000" stop-opacity=".25064" offset="0"/>
			<stop stop-color="#000000" stop-opacity="0" offset="1"/>
		</linearGradient>
		<radialGradient id="a" cx="-9416.6" cy="5035.4" r="9" gradientTransform="matrix(0,-1.3333,-1.1851,0,5979.7,-12541)" gradientUnits="userSpaceOnUse">
			<stop stop-color="#213851" stop-opacity=".9059" offset="0"/>
			<stop stop-color="#27303a" stop-opacity="0" offset="1"/>
		</radialGradient>
		<radialGradient id="c" cx=".76419" cy="12.636" r="9.3438" gradientTransform="matrix(0,-1.8883,-1.5567,0,28.671,17.443)" gradientUnits="userSpaceOnUse">
			<stop stop-color="#ffffff" stop-opacity=".74858" offset="0"/>
			<stop stop-color="#ffffff" stop-opacity=".60511" offset="1"/>
		</radialGradient>
		<radialGradient id="b" cx="12" cy="18.5" r="7" gradientTransform="matrix(1.9439,5.3015e-8,-4.2857e-8,1.5714,-13.327,-16.071)" gradientUnits="userSpaceOnUse">
			<stop stop-color="#ffffff" stop-opacity=".57917" offset="0"/>
			<stop stop-color="#ffffff" stop-opacity="0" offset="1"/>
		</radialGradient>
	</defs>
	<metadata>
		<rdf:RDF>
			<cc:Work rdf:about="">
				<dc:format>image/svg+xml</dc:format>
				<dc:type rdf:resource="http://purl.org/dc/dcmitype/StillImage"/>
				<dc:title/>
			</cc:Work>
		</rdf:RDF>
	</metadata>
	<path d="m3 3c-0.554 0-1 0.446-1 1v10c0 0.554 0.446 1 1 1h12c0.554 0 1-0.446 1-1v-10c0-0.554-0.446-1-1-1zm1 2h10v8h-10z" fill="#090d11" fill-opacity=".76621" style="paint-order:normal"/>
	<path d="m3 3c-0.554 0-1 0.446-1 1v10c0 0.554 0.446 1 1 1h12c0.554 0 1-0.446 1-1v-10c0-0.554-0.446-1-1-1zm1 2h10v8h-10z" fill="url(#a)" fill-opacity=".75328" style="paint-order:normal"/>
	<path d="m2 2c-0.554 0-1 0.446-1 1v13c0 0.554 0.446 1 1 1h14c0.554 0 1-0.446 1-1v-13c0-0.554-0.446-1-1-1zm0 1h14v12h-14z" fill="url(#c)" fill-opacity=".99858" style="paint-order:normal"/>
	<path d="m4 5h10v8h-10z" fill="url(#b)" fill-opacity=".99858" style="paint-order:normal"/>
	<path d="m14 6.5117c-2.0396 0.011672-3.84 0.11181-5.7598 1.0254-2.6184 1.5058-2.2559 1.5574-4.2402 3.4941v1.9688h10z" fill="url(#d)" style="paint-order:normal"/>
</svg>
