<?xml version="1.0" encoding="UTF-8"?>
<svg id="a" width="18" height="18" version="1.1" xmlns="http://www.w3.org/2000/svg" xmlns:cc="http://creativecommons.org/ns#" xmlns:dc="http://purl.org/dc/elements/1.1/" xmlns:rdf="http://www.w3.org/1999/02/22-rdf-syntax-ns#">
	<metadata id="d">
		<rdf:RDF>
			<cc:Work rdf:about="">
				<dc:format>image/svg+xml</dc:format>
				<dc:type rdf:resource="http://purl.org/dc/dcmitype/StillImage"/>
			</cc:Work>
		</rdf:RDF>
	</metadata>
	<defs>
		<style id="current-color-scheme" type="text/css">.ColorScheme-Text {color:#090d11;}.ColorScheme-Background{color:#ffffff;}</style>
	</defs>
	<path id="c" class="ColorScheme-Text" d="m6 2v3.2227c-0.59736 0.27933-1.0646 0.80273-1.2461 1.4629-0.23001 0.83656 0.052102 1.7172 0.68359 2.2812l-2.877 5.2949c-0.13154 0.24271-0.041483 0.5461 0.20117 0.67773 0.24271 0.13154 0.5461 0.04148 0.67773-0.20117l3.084-5.6738c0.00132-0.0019 0.00262-0.0039 0.00391-0.0059 0.00713-0.01337 0.013646-0.02706 0.019531-0.04102 0.00134-0.0032 0.00264-0.0065 0.00391-0.0098 0.00509-0.012827 0.00966-0.025859 0.013672-0.039063 0.00137-0.00454 0.00267-0.0091 0.00391-0.013672 0.00373-0.01224 0.00699-0.024619 0.00977-0.037109 1.3e-6 -6.511e-4 1.3e-6 -0.0013 0-0.00195 1.3e-6 -6.51e-4 1.3e-6 -0.0013 0-0.00195 0.00592-0.032859 0.00854-0.066229 0.00781-0.099609 1.3e-6 -6.51e-4 1.3e-6 -0.0013 0-0.00195 1.3e-6 -6.51e-4 1.3e-6 -0.0013 0-0.00195 1.3e-6 -6.51e-4 1.3e-6 -0.0013 0-0.00195 1.3e-6 -6.511e-4 1.3e-6 -0.0013 0-0.00195 1.3e-6 -6.51e-4 1.3e-6 -0.0013 0-0.00195 1.14e-5 -0.00195 1.14e-5 -0.00391 0-0.00586 1.3e-6 -6.51e-4 1.3e-6 -0.0013 0-0.00195 1.3e-6 -6.51e-4 1.3e-6 -0.0013 0-0.00195 1.3e-6 -6.51e-4 1.3e-6 -0.0013 0-0.00195 1.3e-6 -6.511e-4 1.3e-6 -0.0013 0-0.00195 1.3e-6 -6.51e-4 1.3e-6 -0.0013 0-0.00195-4.01e-4 -0.009056-0.00105-0.018175-0.00195-0.02727-6.186e-4 -0.00326-0.00127-0.00652-0.00195-0.00977-0.00203-0.013775-0.00464-0.027458-0.00781-0.041016-0.00223-0.011153-0.00483-0.022227-0.00781-0.033203-0.00688-0.02271-0.015362-0.044901-0.025391-0.066406-0.00535-0.012605-0.011213-0.024985-0.017578-0.037109-0.00192-0.00328-0.00387-0.00653-0.00586-0.00977-6.453e-4 -0.0013-0.0013-0.00261-0.00195-0.00391-0.00849-0.013448-0.017613-0.026484-0.027344-0.039063-0.00981-0.012868-0.020239-0.025253-0.03125-0.037109-6.492e-4 -6.528e-4 -0.0013-0.0013-0.00195-0.00195-0.02462-0.027014-0.052128-0.051248-0.082031-0.072266-0.00831-0.00546-0.016774-0.01067-0.025391-0.015625-0.00515-0.00335-0.010357-0.00661-0.015625-0.00977-0.00205-0.00115-0.00382-0.00274-0.00586-0.00391-6.51e-4 -1.3e-6 -0.0013-1.3e-6 -0.00195 0-0.51776-0.29556-0.7579-0.8754-0.6055-1.4297 0.15315-0.557 0.67324-0.95117 1.2812-0.95117s1.1281 0.39417 1.2812 0.95117c0.1524 0.5543-0.087768 1.1341-0.60547 1.4297h-0.00195c-6.528e-4 6.492e-4 -0.0013 0.0013-0.00195 0.00195-0.00126 7.164e-4 -0.00264 0.00124-0.00391 0.00195-0.0073 0.00502-0.014463 0.010227-0.021484 0.015625-0.037294 0.022788-0.071439 0.050366-0.10156 0.082031-0.035169 0.038243-0.064163 0.081733-0.085937 0.12891-0.00134 0.00324-0.00264 0.0065-0.00391 0.00977-0.019829 0.044712-0.03299 0.092092-0.039063 0.14062-8.14e-5 0.00521-8.14e-5 0.010417 0 0.015625-0.0045 0.046272-0.00253 0.092945 0.00586 0.13867 0.00507 0.015909 0.01094 0.031553 0.017578 0.046875 0.0078 0.032943 0.018924 0.065008 0.033203 0.095703l0.00391 0.0059 3.084 5.6738c0.01932 0.03243 0.04225 0.06257 0.06836 0.08984 0.0068 0.01002 0.01397 0.0198 0.02148 0.0293 0.04267 0.04096 0.09226 0.07402 0.14648 0.09766 0.01792 0.0062 0.03618 0.01146 0.05469 0.01563 0.03987 0.01294 0.08121 0.02081 0.12305 0.02344 0.0084 0.0022 0.01688 0.0041 0.02539 0.0059h4.5c0.27614-4.9e-5 0.5-0.22391 0.5-0.50005s-0.22386-0.5-0.5-0.5h-4.2031l-2.7344-5.0332c0.63149-0.56403 0.91361-1.4447 0.68359-2.2812-0.18151-0.66016-0.64873-1.1836-1.2461-1.4629v-3.2227zm5.5 0c-0.27614 0-0.5 0.22386-0.5 0.5s0.22386 0.5 0.5 0.5h4c0.27614 0 0.5-0.22386 0.5-0.5s-0.22386-0.5-0.5-0.5zm2 2c-0.27614 0-0.5 0.22386-0.5 0.5s0.22386 0.5 0.5 0.5h2c0.27614 0 0.5-0.22386 0.5-0.5s-0.22386-0.5-0.5-0.5zm-2 2c-0.27614 0-0.5 0.22386-0.5 0.5s0.22386 0.5 0.5 0.5h4c0.27614 0 0.5-0.22386 0.5-0.5s-0.22386-0.5-0.5-0.5zm2 2c-0.27614 0-0.5 0.22386-0.5 0.5s0.22386 0.5 0.5 0.5h2c0.27614 0 0.5-0.22386 0.5-0.5s-0.22386-0.5-0.5-0.5zm-2 2c-0.27614 0-0.5 0.22386-0.5 0.5s0.22386 0.5 0.5 0.5h4c0.27614 0 0.5-0.22386 0.5-0.5s-0.22386-0.5-0.5-0.5zm2 2c-0.27614 0-0.5 0.22386-0.5 0.5s0.22386 0.5 0.5 0.5h2c0.27614 0 0.5-0.22386 0.5-0.5s-0.22386-0.5-0.5-0.5z" style="fill-opacity:.75;fill:currentColor"/>
</svg>
