<?xml version="1.0" encoding="UTF-8"?>
<!-- Created with Inkscape (http://www.inkscape.org/) -->
<svg width="18" height="18" version="1.1" xmlns="http://www.w3.org/2000/svg" xmlns:cc="http://creativecommons.org/ns#" xmlns:dc="http://purl.org/dc/elements/1.1/" xmlns:rdf="http://www.w3.org/1999/02/22-rdf-syntax-ns#">
	<defs>
		<radialGradient id="a" cx="-9409" cy="5037.3" r="9" gradientTransform="matrix(1.375,0,0,-1.2222,12946,6161.4)" gradientUnits="userSpaceOnUse">
			<stop stop-color="#213851" stop-opacity=".9059" offset="0"/>
			<stop stop-color="#27303a" stop-opacity="0" offset="1"/>
		</radialGradient>
		<radialGradient id="b" cx="9.1627" cy="1.3971" r="7" gradientTransform="matrix(0,1.8698,-2.1368,0,12.006,-14.959)" gradientUnits="userSpaceOnUse">
			<stop stop-color="#ffffff" stop-opacity=".74858" offset="0"/>
			<stop stop-color="#ffffff" stop-opacity=".60511" offset="1"/>
		</radialGradient>
	</defs>
	<metadata>
		<rdf:RDF>
			<cc:Work rdf:about="">
				<dc:format>image/svg+xml</dc:format>
				<dc:type rdf:resource="http://purl.org/dc/dcmitype/StillImage"/>
				<dc:title/>
			</cc:Work>
		</rdf:RDF>
	</metadata>
	<path d="m9 2.5312c-1.5674 0.0019924-2.77 1.4688-4 1.4688h-2.5c-0.277 0-0.5 0.223-0.5 0.5s0.223 0.5 0.5 0.5h13c0.277 0 0.5-0.223 0.5-0.5s-0.223-0.5-0.5-0.5h-2.5c-1.23 0-2.4326-1.4668-4-1.4688zm-5.5 3.4688 0.5 8c0.069121 1.1059 0.8919 2 2 2h6c1.1081 0 2-0.8919 2-2l0.5-8h-1l-1.5 8s0 1-3 1-3-1-3-1l-1.4688-8z" color="#bebebe" fill="#090d11" fill-opacity=".76621" style="paint-order:normal"/>
	<path d="m9 2.5312c-1.5674 0.0019924-2.77 1.4688-4 1.4688h-2.5c-0.277 0-0.5 0.223-0.5 0.5s0.223 0.5 0.5 0.5h13c0.277 0 0.5-0.223 0.5-0.5s-0.223-0.5-0.5-0.5h-2.5c-1.23 0-2.4326-1.4668-4-1.4688zm-5.5 3.4688 0.5 8c0.069121 1.1059 0.8919 2 2 2h6c1.1081 0 2-0.8919 2-2l0.5-8h-1l-1.5 8s0 1-3 1-3-1-3-1l-1.4688-8z" color="#bebebe" fill="url(#a)" fill-opacity=".75328" style="paint-order:normal"/>
	<path d="m8.998 1.0312c-2.0621 0-4.2333 2.3438-6 2.3438-1.5263 0-1.998 0.45438-1.998 1.125 0.20828-0.36075 0.66424-0.5 1.5-0.5h2.5c1.23 0 2.4326-1.4668 4-1.4688zm0.00195 1.5c1.5674 0.00199 2.77 1.4688 4 1.4688h2.5c0.83576 0 1.2917 0.13925 1.5 0.5 0-0.67062-0.47177-1.125-1.998-1.125-1.7667 0-3.9379-2.3438-6-2.3438zm-6 3.4688c-6e-7 0.020849 6.539e-4 0.041692 0.00195 0.0625v8c3.1e-6 1.5686 1.3521 2.9375 2.998 2.9375h6c1.638 0 2.9871-1.3448 2.998-2.9805v-7.957c0.0013-0.020808 2e-3 -0.041651 2e-3 -0.0625h-0.5l-0.5 8c0 1.1081-0.8919 2-2 2h-6c-1.1081 0-1.9309-0.89406-2-2l-0.5-8zm11.998 8.0195v0.04297l2e-3 -0.0625c0 0.0067-0.0019 0.01287-2e-3 0.01953z" color="#bebebe" color-rendering="auto" dominant-baseline="auto" fill="url(#b)" fill-opacity=".99858" image-rendering="auto" shape-rendering="auto" solid-color="#000000" style="font-feature-settings:normal;font-variant-alternates:normal;font-variant-caps:normal;font-variant-ligatures:normal;font-variant-numeric:normal;font-variant-position:normal;isolation:auto;mix-blend-mode:normal;paint-order:normal;shape-padding:0;text-decoration-color:#000000;text-decoration-line:none;text-decoration-style:solid;text-indent:0;text-orientation:mixed;text-transform:none;white-space:normal"/>
</svg>
