<?xml version="1.0" encoding="UTF-8"?>
<svg id="g" width="16" height="16" version="1.1" xmlns="http://www.w3.org/2000/svg" xmlns:cc="http://creativecommons.org/ns#" xmlns:dc="http://purl.org/dc/elements/1.1/" xmlns:rdf="http://www.w3.org/1999/02/22-rdf-syntax-ns#">
	<metadata id="a">
		<rdf:RDF>
			<cc:Work rdf:about="">
				<dc:format>image/svg+xml</dc:format>
				<dc:type rdf:resource="http://purl.org/dc/dcmitype/StillImage"/>
			</cc:Work>
		</rdf:RDF>
	</metadata>
	<defs>
		<style id="current-color-scheme" type="text/css">.ColorScheme-Text{color:#090d11;}.ColorScheme-Background{color:#ffffff;}</style>
	</defs>
	<path id="f" class="ColorScheme-Text" d="m7 1c-0.554 0-1 0.446-1 1h-4c-0.554 0-1 0.446-1 1s0.446 1 1 1h3c0-0.554 0.446-1 1-1h4c0.554 0 1 0.446 1 1h3c0.554 0 1-0.446 1-1s-0.446-1-1-1h-4c0-0.554-0.446-1-1-1zm-3.5 4c-0.27614 0-0.5 0.22386-0.5 0.5v7.5c0 1.0994 0.90065 2 2 2h6c1.0994 0 2-0.90065 2-2v-7.5c0-0.27614-0.22386-0.5-0.5-0.5z" style="fill-opacity:.75;fill:currentColor"/>
</svg>
