<?xml version="1.0" encoding="UTF-8"?>
<!-- Created with Inkscape (http://www.inkscape.org/) -->
<svg width="64" height="64" version="1.1" xmlns="http://www.w3.org/2000/svg" xmlns:cc="http://creativecommons.org/ns#" xmlns:dc="http://purl.org/dc/elements/1.1/" xmlns:rdf="http://www.w3.org/1999/02/22-rdf-syntax-ns#">
	<defs>
		<radialGradient id="f" cx="48.503" cy="50.398" r="32" fx="30.289" fy="36.92" gradientTransform="matrix(1 0 0 .96875 0 1.0312)" gradientUnits="userSpaceOnUse">
			<stop stop-color="#76ffb6" stop-opacity=".51373" offset="0"/>
			<stop stop-color="#2bca76" stop-opacity=".1482" offset=".40987"/>
			<stop stop-color="#00ca5f" stop-opacity="0" offset="1"/>
		</radialGradient>
		<linearGradient id="h" x1="44.655" x2="40.201" y1="26.587" y2="22.133" gradientUnits="userSpaceOnUse">
			<stop stop-color="#98ebf1" offset="0"/>
			<stop stop-color="#9cd9de" offset=".3305"/>
			<stop stop-color="#f6f6f6" offset="1"/>
		</linearGradient>
		<linearGradient id="g" x1="29.313" x2="24.499" y1="40.443" y2="35.629" gradientUnits="userSpaceOnUse">
			<stop stop-color="#41faff" stop-opacity=".33529" offset="0"/>
			<stop stop-color="#333333" stop-opacity=".16288" offset=".21294"/>
			<stop stop-color="#dcdcdc" stop-opacity=".38518" offset=".40598"/>
			<stop stop-color="#ffffff" stop-opacity=".95598" offset=".71368"/>
			<stop stop-color="#ffffff" stop-opacity=".18431" offset=".89316"/>
			<stop stop-color="#ffffff" stop-opacity="0" offset="1"/>
		</linearGradient>
		<linearGradient id="a" x1="26.37" x2="28.117" y1="63.316" y2="54.565" gradientUnits="userSpaceOnUse">
			<stop stop-color="#ed2c48" offset="0"/>
			<stop stop-color="#ac0d2f" offset="1"/>
		</linearGradient>
		<linearGradient id="b" x1="26.273" x2="32.894" y1="49.757" y2="32.016" gradientUnits="userSpaceOnUse">
			<stop stop-color="#f69422" offset="0"/>
			<stop stop-color="#f62248" offset="1"/>
		</linearGradient>
		<linearGradient id="c" x1="21.082" x2="32.251" y1="34.259" y2="21.71" gradientUnits="userSpaceOnUse">
			<stop stop-color="#e9c332" offset="0"/>
			<stop stop-color="#ef5a84" offset="1"/>
		</linearGradient>
		<linearGradient id="d" x1="36.869" x2="55.574" y1="30.503" y2="18.886" gradientUnits="userSpaceOnUse">
			<stop stop-color="#70cc21" offset="0"/>
			<stop stop-color="#70cc21" stop-opacity="0" offset="1"/>
		</linearGradient>
		<linearGradient id="e" x1="45.779" x2="62.454" y1="21.618" y2="17.4" gradientUnits="userSpaceOnUse">
			<stop stop-color="#21de94" offset="0"/>
			<stop stop-color="#21de94" stop-opacity="0" offset="1"/>
		</linearGradient>
	</defs>
	<metadata>
		<rdf:RDF>
			<cc:Work rdf:about="">
				<dc:format>image/svg+xml</dc:format>
				<dc:type rdf:resource="http://purl.org/dc/dcmitype/StillImage"/>
				<dc:title/>
			</cc:Work>
		</rdf:RDF>
	</metadata>
	<path d="m0 2v60l2 2h60l2-2v-60h-32z" color="#000000" fill="#6c7177"/>
	<path d="m2 0-2 1v1h64v-1l-2-1h-30z" color="#000000" fill="#608ec1"/>
	<path d="m2 0-2 1v1h64v-1l-2-1h-30z" color="#000000" fill="#6c7177"/>
	<path d="m0 2v60l2 2h60l2-2v-60h-32z" color="#000000" fill="#2c6bb7"/>
	<path d="m0 44.125v17.875l2 2h60l2-2v-15.844c-1.7989-1.2777-3.9909-2.0312-6.375-2.0312z" color="#000000" fill="url(#a)"/>
	<path d="m0 25.344v22.812l55.156 14.781c3.1507 0.84423 6.3196 0.23512 8.8438-1.4062v-18.469c-0.94264-0.60781-2.0119-1.0996-3.1562-1.4062z" color="#000000" fill="url(#b)"/>
	<path d="m0 2v26.25l53.594 30.938c3.3242 1.9192 7.2193 1.9229 10.406 0.34375v-19.781l-61.906-37.75z" color="#000000" fill="url(#c)"/>
	<path d="m1.9062 2 51.156 53.156c2.9161 3.0301 7.1866 3.9063 10.938 2.7812v-23l-30.938-32.938h-1.0625z" color="#000000" fill="url(#d)"/>
	<path d="m26.406 2 27.188 49.125c2.1985 3.8079 6.3102 5.7912 10.406 5.4688v-31.5l-12.188-23.094h-19.812z" color="#000000" fill="url(#e)"/>
	<path d="m43.531 2 11.625 45.375c1.1583 4.3228 4.7108 7.3196 8.8438 8v-53.375z" color="#000000" fill="#2484e8"/>
	<path d="m57.625 2v42.125c0 4.4428 2.6037 8.2553 6.375 10v-52.125z" color="#000000" fill="#8344e3"/>
	<path d="m57.625 0v2h6.375v-1l-2-1z" color="#000000" fill="#d4baff"/>
	<path d="m57.625 0h-5.8125v2h5.8125z" color="#000000" fill="#8bd2ff"/>
	<path d="m43.531 0h8.2812v2h-8.2812z" color="#000000" fill="#96e0ff"/>
	<path d="m43.531 0h-10.469v2h10.469z" color="#000000" fill="#90f9e4"/>
	<path d="m26.406 0h6.6562v2h-6.6562z" color="#000000" fill="#9dffba"/>
	<path d="m26.406 0h-24.406v2h24.406z" color="#000000" fill="#b0ff8a"/>
	<path d="m2 0-2 1v1h2z" color="#000000" fill="#fcf29a"/>
	<path d="m0 1v3l2-2z" fill="#f8ee9a"/>
	<path d="m64 4-2-2 2-1z" fill="#947de5"/>
	<g>
		<path d="m47.893 17.861c-0.25561 0-0.51114 0.09903-0.70703 0.29492l-9.6133 9.6133c-0.39178 0.39178-0.39178 1.0223 0 1.4141l26.428 26.428v-22.055l-15.4-15.4c-0.19589-0.19589-0.45142-0.29492-0.70703-0.29492zm-12.324 12.324c-0.25561 0-0.51114 0.09903-0.70703 0.29492l-18.049 18.047c-0.39178 0.39178-0.39178 1.0223 0 1.4141l14.059 14.059h31.129l2-2v-3.7969l-27.725-27.723c-0.19589-0.19589-0.45142-0.29492-0.70703-0.29492z" fill="#000000" fill-opacity=".10457" style="paint-order:normal"/>
		<path d="m0 2v60l2 2h60l2-2v-60h-32z" color="#000000" fill="url(#f)"/>
		<g>
			<path d="m47.894 17.448c-1.797-1.797-4.6903-1.797-6.4872 0l-5.1898 5.1898-1.2974-1.2974-2.5949 2.5949 9.0821 9.0821 2.5949-2.5949-1.2974-1.2974 5.1898-5.1898c1.797-1.797 1.797-4.6903 1e-6 -6.4872z" fill="url(#h)"/>
			<path d="m32.973 27.179-16.867 16.867s-1.9462 3.2436 0 5.1898 5.1898 0 5.1898 0l16.867-16.867z" fill="url(#g)"/>
		</g>
	</g>
</svg>
