<?xml version="1.0" encoding="UTF-8"?>
<svg id="fl" width="64" height="64" version="1.1" xmlns="http://www.w3.org/2000/svg" xmlns:cc="http://creativecommons.org/ns#" xmlns:dc="http://purl.org/dc/elements/1.1/" xmlns:rdf="http://www.w3.org/1999/02/22-rdf-syntax-ns#">
	<metadata id="fr">
		<rdf:RDF>
			<cc:Work rdf:about="">
				<dc:format>image/svg+xml</dc:format>
				<dc:type rdf:resource="http://purl.org/dc/dcmitype/StillImage"/>
				<dc:title/>
			</cc:Work>
		</rdf:RDF>
	</metadata>
	<path id="ji" d="m0 2v60l2 2h60l2-2v-60h-32z" style="color:#000000;fill:#aeb4c3"/>
	<path id="go" d="m2 0-2 1v1h63.999v-1l-2-1h-42.437z" style="color:#000000;fill:#e7ecf0"/>
	<path id="b" d="m64 4-2-2 2-1z" style="fill:#ccd1db"/>
	<path id="hh" d="m0 1v3l2-2z" style="fill:#f2f5f7"/>
	<g id="hc">
		<rect id="ge" x="4" y="15" width="56" height="45" style="color:#000000;fill-opacity:.53578;fill:#ffffff"/>
		<rect id="ic" x="56" y="19" width="3" height="22" rx="1.5" ry="1.5" style="color:#000000;fill-opacity:.6586;fill:#00122b"/>
		<rect id="jk" transform="rotate(-90)" x="-59" y="25" width="3" height="22" rx="1.5" ry="1.5" style="color:#000000;fill-opacity:.6586;fill:#00122b"/>
		<g id="active-center" transform="matrix(.5625 0 0 .5625 1.7324 4)">
			<rect id="br" width="16" height="16" style="fill-opacity:.44581;fill:#ffffff;opacity:.001"/>
			<path id="jj" d="m5.4688 4.0312-1.4375 1.4375 2.5312 2.5312-2.5312 2.5312 1.4375 1.4375 2.5312-2.5312 2.5312 2.5312 1.4375-1.4375-2.5312-2.5312 2.5312-2.5312-1.4375-1.4375-2.5312 2.5312z" style="block-progression:tb;color:#000000;fill-opacity:.6586;fill:#00122b;text-indent:0;text-transform:none"/>
		</g>
		<g id="eg" transform="matrix(.5625 0 0 .5625 19.732 4)">
			<rect id="gq" width="16" height="16" style="fill-opacity:.44581;fill:#ffffff;opacity:.001"/>
			<path id="ga" d="m5 5v6h6v-6zm2 2h2v2h-2z" style="block-progression:tb;color:#000000;fill-opacity:.6586;fill:#00122b;text-indent:0;text-transform:none"/>
		</g>
		<g id="ec" transform="matrix(.5625 0 0 .5625 10.732 4)">
			<rect id="gp" width="16" height="16" style="fill-opacity:.44581;fill:#ffffff;opacity:.001"/>
			<path id="in" d="m4 6.9671v2.0329h8v-2.0329z" style="block-progression:tb;color:#000000;fill-opacity:.6586;fill:#00122b;text-indent:0;text-transform:none"/>
		</g>
		<g id="ih" transform="matrix(.5625 0 0 .5625 53 4)">
			<rect id="gr" width="16" height="16" style="fill-opacity:.44581;fill:#ffffff;opacity:.001"/>
			<path id="cz" d="m6.5625 6.7344-2.5312 2.5312 1.4375 1.4375 2.5312-2.5312 2.5312 2.5312 1.4375-1.4375-3.9687-3.9687z" style="block-progression:tb;color:#000000;fill-opacity:.6586;fill:#00122b;text-indent:0;text-transform:none"/>
		</g>
		<path id="d" d="m7 19v5h5v-5z" style="color:#000000;fill:#ef9a25"/>
		<path id="n" d="m7 35v5h5v-5z" style="color:#000000;fill:#ef9a25"/>
		<path id="a" d="m29 19v5h5v-5z" style="color:#000000;fill:#ef9a25"/>
		<path id="iu" d="m29 35v5h5v-5z" style="color:#000000;fill:#ef9a25"/>
		<path id="e" d="m7 27v5h5v-5z" style="color:#000000;fill:#ef9a25"/>
		<path id="bw" d="m7 43v5h5v-5z" style="color:#000000;fill:#ef9a25"/>
		<path id="ck" d="m29 27v5h5v-5z" style="color:#000000;fill:#ef9a25"/>
		<path id="gd" d="m29 43v5h5v-5z" style="color:#000000;fill:#ef9a25"/>
		<g id="dh" style="fill:#4a566a" aria-label="Interdum et malesuada fames ac ante ipsum primis in faucibus. Suspendisse ">
			<path id="cl" d="m14.596 20.82h-0.51562v-0.10352l0.16797-0.03809v-1.1426l-0.16797-0.04004v-0.10352h0.51562v0.10352l-0.16797 0.04004v1.1426l0.16797 0.03809z"/>
			<path id="cn" d="m15.58 20.82v-0.68555q0-0.13086-0.05859-0.19434-0.05762-0.06445-0.18164-0.06445-0.16504 0-0.24024 0.0918-0.07422 0.09082-0.07422 0.29688v0.55566h-0.17578v-1.0723h0.1416l0.02637 0.14648h0.0098q0.0498-0.0791 0.13965-0.12207 0.08984-0.04395 0.19824-0.04395 0.19727 0 0.29297 0.0957t0.0957 0.29785v0.69824z"/>
			<path id="co" d="m16.446 20.696q0.03418 0 0.08008-0.0068t0.06934-0.01563v0.13477q-0.02441 0.01074-0.07617 0.02051-0.05078 0.01074-0.10352 0.01074-0.31445 0-0.31445-0.33106v-0.62402h-0.15137v-0.08398l0.15332-0.07031 0.07031-0.22852h0.10449v0.24609h0.30957v0.13672h-0.30958v0.61914q0 0.09277 0.04395 0.14258 0.04492 0.0498 0.12402 0.0498z"/>
			<path id="cp" d="m17.267 20.839q-0.24121 0-0.37891-0.14551-0.13672-0.14648-0.13672-0.40234 0-0.25781 0.12793-0.41016 0.12793-0.15332 0.3457-0.15332 0.20215 0 0.32227 0.13086 0.12012 0.12988 0.12012 0.35254v0.10644h-0.73438q0.0049 0.18262 0.09277 0.27734 0.08789 0.09473 0.24902 0.09473 0.08594 0 0.16309-0.01465 0.07715-0.01563 0.18066-0.05957v0.1543q-0.08887 0.03809-0.16699 0.05371-0.07813 0.01563-0.18457 0.01563zm-0.04395-0.96777q-0.12598 0-0.19922 0.08105t-0.08691 0.22559h0.5459q-2e-3 -0.15039-0.06934-0.22852-0.06738-0.07813-0.19043-0.07813z"/>
			<path id="ah" d="m18.439 19.728q0.07129 0 0.12598 0.01172l-0.02148 0.16211q-0.05957-0.01367-0.11621-0.01367-0.08496 0-0.1582 0.04687-0.07227 0.04687-0.11328 0.12988-0.04102 0.08203-0.04102 0.18262v0.57226h-0.17578v-1.0723h0.14453l0.01953 0.19629h0.0078q0.06152-0.10645 0.14551-0.16113 0.08398-0.05469 0.18262-0.05469z"/>
			<path id="aj" d="m19.128 20.839q-0.20898 0-0.32422-0.14453-0.11523-0.14453-0.11523-0.40918 0-0.2627 0.11523-0.41016 0.11621-0.14746 0.32617-0.14746 0.21582 0 0.33203 0.1582h0.0127q-0.0029-0.01953-0.0078-0.07813-0.0049-0.05957-0.0049-0.08008v-0.42773h0.17578v1.5195h-0.1416l-0.02637-0.14355h-0.0078q-0.11232 0.16309-0.33399 0.16309zm0.02832-0.14551q0.16016 0 0.2334-0.08691 0.07422-0.08789 0.07422-0.28711v-0.03223q0-0.22363-0.0752-0.31836-0.07422-0.0957-0.23438-0.0957-0.13574 0-0.20996 0.1084-0.07422 0.10742-0.07422 0.30762 0 0.19922 0.07324 0.30176 0.07422 0.10254 0.21289 0.10254z"/>
			<path id="ak" d="m20.145 19.747v0.69043q0 0.12988 0.05762 0.19336 0.05859 0.0625 0.18066 0.0625 0.16504 0 0.24024-0.0918t0.0752-0.2959v-0.55859h0.17675v1.0723h-0.14453l-0.02539-0.1416h-0.0088q-0.04785 0.07715-0.13574 0.11914t-0.2041 0.04199q-0.19336 0-0.29199-0.09277-0.09766-0.09277-0.09766-0.29688v-0.70215z"/>
			<path id="am" d="m22.581 20.82v-0.69043q0-0.25391-0.21777-0.25391-0.14941 0-0.21973 0.08691-0.07031 0.08691-0.07031 0.26562v0.5918h-0.1748v-0.69043q0-0.12695-0.05371-0.19043-0.05273-0.06348-0.16602-0.06348-0.14844 0-0.21777 0.09082-0.06836 0.09082-0.06836 0.29785v0.55566h-0.17578v-1.0723h0.1416l0.02637 0.14648h0.0098q0.0459-0.07813 0.12891-0.12207 0.08398-0.04395 0.1875-0.04395 0.25195 0 0.32812 0.17969h0.0098q0.05176-0.08594 0.14062-0.13281 0.08984-0.04687 0.20312-0.04687 0.18164 0 0.27148 0.09375 0.09082 0.09375 0.09082 0.2998v0.69824z"/>
			<path id="ag" d="m24.063 20.839q-0.24121 0-0.37891-0.14551-0.13672-0.14648-0.13672-0.40234 0-0.25781 0.12793-0.41016 0.12793-0.15332 0.3457-0.15332 0.20215 0 0.32227 0.13086 0.12012 0.12988 0.12012 0.35254v0.10644h-0.73438q0.0049 0.18262 0.09277 0.27734 0.08789 0.09473 0.24902 0.09473 0.08594 0 0.16309-0.01465 0.07715-0.01563 0.18066-0.05957v0.1543q-0.08887 0.03809-0.16699 0.05371-0.07813 0.01563-0.18457 0.01563zm-0.04395-0.96777q-0.12598 0-0.19922 0.08105t-0.08691 0.22559h0.5459q-2e-3 -0.15039-0.06934-0.22852-0.06738-0.07813-0.19043-0.07813z"/>
			<path id="z" d="m14.346 23.32h-0.17578v-1.0723h0.17578zm-0.18945-1.3623q0-0.05859 0.0293-0.08496 0.03027-0.02637 0.07422-0.02637 0.04101 0 0.07129 0.02637 0.03125 0.02637 0.03125 0.08496 0 0.05762-0.03125 0.08496-0.03027 0.02734-0.07129 0.02734-0.04395 0-0.07422-0.02734-0.0293-0.02734-0.0293-0.08496z"/>
			<path id="x" d="m15.193 23.339q-0.21582 0-0.33203-0.15527h-0.01172l0.0039 0.04004q0.0078 0.07617 0.0078 0.13574v0.44043h-0.17578v-1.5527h0.14453l0.02344 0.14648h0.0078q0.0625-0.08789 0.14453-0.12695t0.18945-0.03906q0.20898 0 0.32422 0.14551 0.11621 0.14453 0.11621 0.4082 0 0.2627-0.11621 0.41016t-0.32617 0.14746zm-0.0293-0.96387q-0.15918 0-0.23047 0.08984-0.07031 0.08984-0.07227 0.28223v0.03418q0 0.21777 0.07227 0.31543 0.07226 0.09668 0.23438 0.09668 0.13476 0 0.20996-0.10938 0.07617-0.10938 0.07617-0.30469 0-0.19629-0.07617-0.2998-0.0752-0.10449-0.21387-0.10449z"/>
			<path id="u" d="m16.614 23.024q0 0.15039-0.1123 0.2334-0.1123 0.08203-0.31543 0.08203-0.21191 0-0.33691-0.06738v-0.16016q0.17676 0.08594 0.34082 0.08594 0.13281 0 0.19336-0.04297t0.06055-0.11523q0-0.06348-0.05859-0.10742-0.05762-0.04395-0.20606-0.10059-0.15137-0.05859-0.21289-0.09961-0.06152-0.04199-0.09082-0.09375-0.02832-0.05176-0.02832-0.12598 0-0.13184 0.10742-0.20801t0.29492-0.07617q0.18262 0 0.3418 0.07227l-0.05957 0.13965q-0.16309-0.06836-0.29395-0.06836-0.10938 0-0.16602 0.03516-0.05664 0.03418-0.05664 0.09473 0 0.05859 0.04883 0.09766 0.04883 0.03809 0.22754 0.10644 0.13379 0.0498 0.19727 0.09277 0.06445 0.04297 0.09473 0.09668 0.03027 0.05371 0.03027 0.12891z"/>
			<path id="s" d="m17.039 22.247v0.69043q0 0.12988 0.05762 0.19336 0.05859 0.0625 0.18066 0.0625 0.16504 0 0.24023-0.0918 0.0752-0.0918 0.0752-0.2959v-0.55859h0.17676v1.0723h-0.14454l-0.02539-0.1416h-0.0088q-0.04785 0.07715-0.13574 0.11914t-0.2041 0.04199q-0.19336 0-0.29199-0.09277-0.09766-0.09277-0.09766-0.29688v-0.70215z"/>
			<path id="aa" d="m19.476 23.32v-0.69043q0-0.25391-0.21777-0.25391-0.14941 0-0.21973 0.08691-0.07031 0.08691-0.07031 0.26562v0.5918h-0.1748v-0.69043q0-0.12695-0.05371-0.19043-0.05273-0.06348-0.16602-0.06348-0.14844 0-0.21777 0.09082-0.06836 0.09082-0.06836 0.29785v0.55566h-0.17578v-1.0723h0.1416l0.02637 0.14648h0.0098q0.0459-0.07813 0.12891-0.12207 0.08398-0.04395 0.1875-0.04395 0.25195 0 0.32812 0.17969h0.0098q0.05176-0.08594 0.14062-0.13281 0.08984-0.04687 0.20312-0.04687 0.18164 0 0.27148 0.09375 0.09082 0.09375 0.09082 0.2998v0.69824z"/>
			<path id="bj" d="m21.01 23.339q-0.21582 0-0.33203-0.15527h-0.01172l0.0039 0.04004q0.0078 0.07617 0.0078 0.13574v0.44043h-0.17578v-1.5527h0.14453l0.02344 0.14648h0.0078q0.0625-0.08789 0.14453-0.12695t0.18945-0.03906q0.20898 0 0.32422 0.14551 0.11621 0.14453 0.11621 0.4082 0 0.2627-0.11621 0.41016t-0.32617 0.14746zm-0.0293-0.96387q-0.15918 0-0.23047 0.08984-0.07031 0.08984-0.07227 0.28223v0.03418q0 0.21777 0.07227 0.31543 0.07227 0.09668 0.23438 0.09668 0.13477 0 0.20996-0.10938 0.07617-0.10938 0.07617-0.30469 0-0.19629-0.07617-0.2998-0.0752-0.10449-0.21387-0.10449z"/>
			<path id="bi" d="m22.232 22.228q0.07129 0 0.12598 0.01172l-0.02148 0.16211q-0.05957-0.01367-0.11621-0.01367-0.08496 0-0.1582 0.04687-0.07227 0.04687-0.11328 0.12988-0.04102 0.08203-0.04102 0.18262v0.57226h-0.17578v-1.0723h0.14453l0.01953 0.19629h0.0078q0.06152-0.10645 0.14551-0.16113 0.08398-0.05469 0.18262-0.05469z"/>
			<path id="bh" d="m22.736 23.32h-0.17578v-1.0723h0.17578zm-0.18945-1.3623q0-0.05859 0.0293-0.08496 0.03027-0.02637 0.07422-0.02637 0.04102 0 0.07129 0.02637 0.03125 0.02637 0.03125 0.08496 0 0.05762-0.03125 0.08496-0.03027 0.02734-0.07129 0.02734-0.04395 0-0.07422-0.02734-0.0293-0.02734-0.0293-0.08496z"/>
			<path id="bf" d="m24.44 23.32v-0.69043q0-0.25391-0.21777-0.25391-0.14941 0-0.21973 0.08691-0.07031 0.08691-0.07031 0.26562v0.5918h-0.1748v-0.69043q0-0.12695-0.05371-0.19043-0.05273-0.06348-0.16602-0.06348-0.14844 0-0.21777 0.09082-0.06836 0.09082-0.06836 0.29785v0.55566h-0.17578v-1.0723h0.1416l0.02637 0.14648h0.0098q0.0459-0.07813 0.12891-0.12207 0.08398-0.04395 0.1875-0.04395 0.25195 0 0.32812 0.17969h0.0098q0.05176-0.08594 0.14062-0.13281 0.08984-0.04687 0.20312-0.04687 0.18164 0 0.27148 0.09375 0.09082 0.09375 0.09082 0.2998v0.69824z"/>
		</g>
		<g id="r" transform="translate(0,16)" style="fill:#4a566a" aria-label="Interdum et malesuada fames ac ante ipsum primis in faucibus. Suspendisse ">
			<path id="dk" d="m14.596 20.82h-0.51562v-0.10352l0.16797-0.03809v-1.1426l-0.16797-0.04004v-0.10352h0.51562v0.10352l-0.16797 0.04004v1.1426l0.16797 0.03809z"/>
			<path id="di" d="m15.58 20.82v-0.68555q0-0.13086-0.05859-0.19434-0.05762-0.06445-0.18164-0.06445-0.16504 0-0.24024 0.0918-0.07422 0.09082-0.07422 0.29688v0.55566h-0.17578v-1.0723h0.1416l0.02637 0.14648h0.0098q0.0498-0.0791 0.13965-0.12207 0.08984-0.04395 0.19824-0.04395 0.19727 0 0.29297 0.0957t0.0957 0.29785v0.69824z"/>
			<path id="dn" d="m16.446 20.696q0.03418 0 0.08008-0.0068t0.06934-0.01563v0.13477q-0.02441 0.01074-0.07617 0.02051-0.05078 0.01074-0.10352 0.01074-0.31445 0-0.31445-0.33106v-0.62402h-0.15137v-0.08398l0.15332-0.07031 0.07031-0.22852h0.10449v0.24609h0.30957v0.13672h-0.30958v0.61914q0 0.09277 0.04395 0.14258 0.04492 0.0498 0.12402 0.0498z"/>
			<path id="dl" d="m17.267 20.839q-0.24121 0-0.37891-0.14551-0.13672-0.14648-0.13672-0.40234 0-0.25781 0.12793-0.41016 0.12793-0.15332 0.3457-0.15332 0.20215 0 0.32227 0.13086 0.12012 0.12988 0.12012 0.35254v0.10644h-0.73438q0.0049 0.18262 0.09277 0.27734 0.08789 0.09473 0.24902 0.09473 0.08594 0 0.16309-0.01465 0.07715-0.01563 0.18066-0.05957v0.1543q-0.08887 0.03809-0.16699 0.05371-0.07813 0.01563-0.18457 0.01563zm-0.04395-0.96777q-0.12598 0-0.19922 0.08105t-0.08691 0.22559h0.5459q-2e-3 -0.15039-0.06934-0.22852-0.06738-0.07813-0.19043-0.07813z"/>
			<path id="dd" d="m18.439 19.728q0.07129 0 0.12598 0.01172l-0.02148 0.16211q-0.05957-0.01367-0.11621-0.01367-0.08496 0-0.1582 0.04687-0.07227 0.04687-0.11328 0.12988-0.04102 0.08203-0.04102 0.18262v0.57226h-0.17578v-1.0723h0.14453l0.01953 0.19629h0.0078q0.06152-0.10645 0.14551-0.16113 0.08398-0.05469 0.18262-0.05469z"/>
			<path id="ce" d="m19.128 20.839q-0.20898 0-0.32422-0.14453-0.11523-0.14453-0.11523-0.40918 0-0.2627 0.11523-0.41016 0.11621-0.14746 0.32617-0.14746 0.21582 0 0.33203 0.1582h0.0127q-0.0029-0.01953-0.0078-0.07813-0.0049-0.05957-0.0049-0.08008v-0.42773h0.17578v1.5195h-0.1416l-0.02637-0.14355h-0.0078q-0.11232 0.16309-0.33399 0.16309zm0.02832-0.14551q0.16016 0 0.2334-0.08691 0.07422-0.08789 0.07422-0.28711v-0.03223q0-0.22363-0.0752-0.31836-0.07422-0.0957-0.23438-0.0957-0.13574 0-0.20996 0.1084-0.07422 0.10742-0.07422 0.30762 0 0.19922 0.07324 0.30176 0.07422 0.10254 0.21289 0.10254z"/>
			<path id="cf" d="m20.145 19.747v0.69043q0 0.12988 0.05762 0.19336 0.05859 0.0625 0.18066 0.0625 0.16504 0 0.24024-0.0918t0.0752-0.2959v-0.55859h0.17675v1.0723h-0.14453l-0.02539-0.1416h-0.0088q-0.04785 0.07715-0.13574 0.11914t-0.2041 0.04199q-0.19336 0-0.29199-0.09277-0.09766-0.09277-0.09766-0.29688v-0.70215z"/>
			<path id="cg" d="m22.581 20.82v-0.69043q0-0.25391-0.21777-0.25391-0.14941 0-0.21973 0.08691-0.07031 0.08691-0.07031 0.26562v0.5918h-0.1748v-0.69043q0-0.12695-0.05371-0.19043-0.05273-0.06348-0.16602-0.06348-0.14844 0-0.21777 0.09082-0.06836 0.09082-0.06836 0.29785v0.55566h-0.17578v-1.0723h0.1416l0.02637 0.14648h0.0098q0.0459-0.07813 0.12891-0.12207 0.08398-0.04395 0.1875-0.04395 0.25195 0 0.32812 0.17969h0.0098q0.05176-0.08594 0.14062-0.13281 0.08984-0.04687 0.20312-0.04687 0.18164 0 0.27148 0.09375 0.09082 0.09375 0.09082 0.2998v0.69824z"/>
			<path id="ch" d="m24.063 20.839q-0.24121 0-0.37891-0.14551-0.13672-0.14648-0.13672-0.40234 0-0.25781 0.12793-0.41016 0.12793-0.15332 0.3457-0.15332 0.20215 0 0.32227 0.13086 0.12012 0.12988 0.12012 0.35254v0.10644h-0.73438q0.0049 0.18262 0.09277 0.27734 0.08789 0.09473 0.24902 0.09473 0.08594 0 0.16309-0.01465 0.07715-0.01563 0.18066-0.05957v0.1543q-0.08887 0.03809-0.16699 0.05371-0.07813 0.01563-0.18457 0.01563zm-0.04395-0.96777q-0.12598 0-0.19922 0.08105t-0.08691 0.22559h0.5459q-2e-3 -0.15039-0.06934-0.22852-0.06738-0.07813-0.19043-0.07813z"/>
			<path id="hj" d="m14.346 23.32h-0.17578v-1.0723h0.17578zm-0.18945-1.3623q0-0.05859 0.0293-0.08496 0.03027-0.02637 0.07422-0.02637 0.04101 0 0.07129 0.02637 0.03125 0.02637 0.03125 0.08496 0 0.05762-0.03125 0.08496-0.03027 0.02734-0.07129 0.02734-0.04395 0-0.07422-0.02734-0.0293-0.02734-0.0293-0.08496z"/>
			<path id="hk" d="m15.193 23.339q-0.21582 0-0.33203-0.15527h-0.01172l0.0039 0.04004q0.0078 0.07617 0.0078 0.13574v0.44043h-0.17578v-1.5527h0.14453l0.02344 0.14648h0.0078q0.0625-0.08789 0.14453-0.12695t0.18945-0.03906q0.20898 0 0.32422 0.14551 0.11621 0.14453 0.11621 0.4082 0 0.2627-0.11621 0.41016t-0.32617 0.14746zm-0.0293-0.96387q-0.15918 0-0.23047 0.08984-0.07031 0.08984-0.07227 0.28223v0.03418q0 0.21777 0.07227 0.31543 0.07226 0.09668 0.23438 0.09668 0.13476 0 0.20996-0.10938 0.07617-0.10938 0.07617-0.30469 0-0.19629-0.07617-0.2998-0.0752-0.10449-0.21387-0.10449z"/>
			<path id="fn" d="m16.614 23.024q0 0.15039-0.1123 0.2334-0.1123 0.08203-0.31543 0.08203-0.21191 0-0.33691-0.06738v-0.16016q0.17676 0.08594 0.34082 0.08594 0.13281 0 0.19336-0.04297t0.06055-0.11523q0-0.06348-0.05859-0.10742-0.05762-0.04395-0.20606-0.10059-0.15137-0.05859-0.21289-0.09961-0.06152-0.04199-0.09082-0.09375-0.02832-0.05176-0.02832-0.12598 0-0.13184 0.10742-0.20801t0.29492-0.07617q0.18262 0 0.3418 0.07227l-0.05957 0.13965q-0.16309-0.06836-0.29395-0.06836-0.10938 0-0.16602 0.03516-0.05664 0.03418-0.05664 0.09473 0 0.05859 0.04883 0.09766 0.04883 0.03809 0.22754 0.10644 0.13379 0.0498 0.19727 0.09277 0.06445 0.04297 0.09473 0.09668 0.03027 0.05371 0.03027 0.12891z"/>
			<path id="hi" d="m17.039 22.247v0.69043q0 0.12988 0.05762 0.19336 0.05859 0.0625 0.18066 0.0625 0.16504 0 0.24023-0.0918 0.0752-0.0918 0.0752-0.2959v-0.55859h0.17676v1.0723h-0.14454l-0.02539-0.1416h-0.0088q-0.04785 0.07715-0.13574 0.11914t-0.2041 0.04199q-0.19336 0-0.29199-0.09277-0.09766-0.09277-0.09766-0.29688v-0.70215z"/>
			<path id="hd" d="m19.476 23.32v-0.69043q0-0.25391-0.21777-0.25391-0.14941 0-0.21973 0.08691-0.07031 0.08691-0.07031 0.26562v0.5918h-0.1748v-0.69043q0-0.12695-0.05371-0.19043-0.05273-0.06348-0.16602-0.06348-0.14844 0-0.21777 0.09082-0.06836 0.09082-0.06836 0.29785v0.55566h-0.17578v-1.0723h0.1416l0.02637 0.14648h0.0098q0.0459-0.07813 0.12891-0.12207 0.08398-0.04395 0.1875-0.04395 0.25195 0 0.32812 0.17969h0.0098q0.05176-0.08594 0.14062-0.13281 0.08984-0.04687 0.20312-0.04687 0.18164 0 0.27148 0.09375 0.09082 0.09375 0.09082 0.2998v0.69824z"/>
			<path id="ip" d="m21.01 23.339q-0.21582 0-0.33203-0.15527h-0.01172l0.0039 0.04004q0.0078 0.07617 0.0078 0.13574v0.44043h-0.17578v-1.5527h0.14453l0.02344 0.14648h0.0078q0.0625-0.08789 0.14453-0.12695t0.18945-0.03906q0.20898 0 0.32422 0.14551 0.11621 0.14453 0.11621 0.4082 0 0.2627-0.11621 0.41016t-0.32617 0.14746zm-0.0293-0.96387q-0.15918 0-0.23047 0.08984-0.07031 0.08984-0.07227 0.28223v0.03418q0 0.21777 0.07227 0.31543 0.07227 0.09668 0.23438 0.09668 0.13477 0 0.20996-0.10938 0.07617-0.10938 0.07617-0.30469 0-0.19629-0.07617-0.2998-0.0752-0.10449-0.21387-0.10449z"/>
			<path id="io" d="m22.232 22.228q0.07129 0 0.12598 0.01172l-0.02148 0.16211q-0.05957-0.01367-0.11621-0.01367-0.08496 0-0.1582 0.04687-0.07227 0.04687-0.11328 0.12988-0.04102 0.08203-0.04102 0.18262v0.57226h-0.17578v-1.0723h0.14453l0.01953 0.19629h0.0078q0.06152-0.10645 0.14551-0.16113 0.08398-0.05469 0.18262-0.05469z"/>
			<path id="im" d="m22.736 23.32h-0.17578v-1.0723h0.17578zm-0.18945-1.3623q0-0.05859 0.0293-0.08496 0.03027-0.02637 0.07422-0.02637 0.04102 0 0.07129 0.02637 0.03125 0.02637 0.03125 0.08496 0 0.05762-0.03125 0.08496-0.03027 0.02734-0.07129 0.02734-0.04395 0-0.07422-0.02734-0.0293-0.02734-0.0293-0.08496z"/>
			<path id="il" d="m24.44 23.32v-0.69043q0-0.25391-0.21777-0.25391-0.14941 0-0.21973 0.08691-0.07031 0.08691-0.07031 0.26562v0.5918h-0.1748v-0.69043q0-0.12695-0.05371-0.19043-0.05273-0.06348-0.16602-0.06348-0.14844 0-0.21777 0.09082-0.06836 0.09082-0.06836 0.29785v0.55566h-0.17578v-1.0723h0.1416l0.02637 0.14648h0.0098q0.0459-0.07813 0.12891-0.12207 0.08398-0.04395 0.1875-0.04395 0.25195 0 0.32812 0.17969h0.0098q0.05176-0.08594 0.14062-0.13281 0.08984-0.04687 0.20312-0.04687 0.18164 0 0.27148 0.09375 0.09082 0.09375 0.09082 0.2998v0.69824z"/>
		</g>
		<g id="ax" transform="translate(22)" style="fill:#4a566a" aria-label="Aenean vel nulla vitae quam viverra congue dignissim vitae velit. Vivamus ">
			<path id="av" d="m15.09 20.82-0.17188-0.44238h-0.56641l-0.16992 0.44238h-0.18164l0.55762-1.4336h0.16211l0.55664 1.4336zm-0.22559-0.60156-0.16016-0.43262-0.06836-0.21387q-0.0293 0.11719-0.06152 0.21387l-0.16211 0.43262z"/>
			<path id="aw" d="m15.903 20.839q-0.24121 0-0.37891-0.14551-0.13672-0.14648-0.13672-0.40234 0-0.25781 0.12793-0.41016 0.12793-0.15332 0.3457-0.15332 0.20215 0 0.32227 0.13086 0.12012 0.12988 0.12012 0.35254v0.10644h-0.73438q0.0049 0.18262 0.09277 0.27734 0.08789 0.09473 0.24902 0.09473 0.08594 0 0.16309-0.01465 0.07715-0.01563 0.18066-0.05957v0.1543q-0.08887 0.03809-0.16699 0.05371-0.07813 0.01563-0.18457 0.01563zm-0.04395-0.96777q-0.12598 0-0.19922 0.08105t-0.08691 0.22559h0.5459q-2e-3 -0.15039-0.06934-0.22852-0.06738-0.07813-0.19043-0.07813z"/>
			<path id="at" d="m17.307 20.82v-0.68555q0-0.13086-0.05859-0.19434-0.05762-0.06445-0.18164-0.06445-0.16504 0-0.24023 0.0918-0.07422 0.09082-0.07422 0.29688v0.55566h-0.17578v-1.0723h0.1416l0.02637 0.14648h0.0098q0.0498-0.0791 0.13965-0.12207 0.08984-0.04395 0.19824-0.04395 0.19726 0 0.29297 0.0957 0.0957 0.0957 0.0957 0.29785v0.69824z"/>
			<path id="au" d="m18.271 20.839q-0.24121 0-0.37891-0.14551-0.13672-0.14648-0.13672-0.40234 0-0.25781 0.12793-0.41016 0.12793-0.15332 0.3457-0.15332 0.20215 0 0.32226 0.13086 0.12012 0.12988 0.12012 0.35254v0.10644h-0.73438q0.0049 0.18262 0.09277 0.27734 0.08789 0.09473 0.24902 0.09473 0.08594 0 0.16309-0.01465 0.07715-0.01563 0.18066-0.05957v0.1543q-0.08887 0.03809-0.16699 0.05371-0.07813 0.01563-0.18457 0.01563zm-0.04395-0.96777q-0.12598 0-0.19922 0.08105t-0.08691 0.22559h0.5459q-2e-3 -0.15039-0.06934-0.22852-0.06738-0.07813-0.19043-0.07813z"/>
			<path id="as" d="m19.605 20.82-0.03418-0.15234h-0.0078q-0.08008 0.10058-0.16016 0.13672-0.0791 0.03516-0.2002 0.03516-0.1582 0-0.24805-0.08301-0.08984-0.08301-0.08984-0.23438 0-0.32617 0.51465-0.3418l0.18164-0.0068v-0.06348q0-0.12207-0.05273-0.17969-0.05273-0.05859-0.16894-0.05859-0.08496 0-0.16113 0.02539-0.0752 0.02539-0.1416 0.05664l-0.05371-0.13184q0.08105-0.04297 0.17676-0.06738 0.0957-0.02441 0.18945-0.02441 0.19434 0 0.28906 0.08594 0.09473 0.08594 0.09473 0.27344v0.73047zm-0.3623-0.12207q0.14746 0 0.23144-0.0791 0.08496-0.08008 0.08496-0.22656v-0.09668l-0.1582 0.0068q-0.18457 0.0068-0.26953 0.05859-0.08398 0.05176-0.08398 0.16309 0 0.08398 0.05078 0.12891 0.05176 0.04492 0.14453 0.04492z"/>
			<path id="by" d="m20.795 20.82v-0.68555q0-0.13086-0.05859-0.19434-0.05762-0.06445-0.18164-0.06445-0.16504 0-0.24023 0.0918-0.07422 0.09082-0.07422 0.29688v0.55566h-0.17578v-1.0723h0.1416l0.02637 0.14648h0.0098q0.0498-0.0791 0.13965-0.12207 0.08984-0.04395 0.19824-0.04395 0.19727 0 0.29297 0.0957t0.0957 0.29785v0.69824z"/>
			<path id="bz" d="m22.059 20.82-0.40625-1.0723h0.18848l0.22754 0.63184q0.06738 0.19043 0.08594 0.28418h0.0078q0.0029-0.0127 0.0068-0.02832 0.0049-0.0166 0.01074-0.03516 0.0059-0.01953 0.07227-0.2207l0.22852-0.63184h0.1875l-0.40723 1.0723z"/>
			<path id="bv" d="m23.294 20.839q-0.24121 0-0.37891-0.14551-0.13672-0.14648-0.13672-0.40234 0-0.25781 0.12793-0.41016 0.12793-0.15332 0.3457-0.15332 0.20215 0 0.32227 0.13086 0.12012 0.12988 0.12012 0.35254v0.10644h-0.73438q0.0049 0.18262 0.09277 0.27734 0.08789 0.09473 0.24902 0.09473 0.08594 0 0.16309-0.01465 0.07715-0.01563 0.18066-0.05957v0.1543q-0.08887 0.03809-0.16699 0.05371-0.07813 0.01563-0.18457 0.01563zm-0.04395-0.96777q-0.12598 0-0.19922 0.08105t-0.08691 0.22559h0.5459q-2e-3 -0.15039-0.06934-0.22852-0.06738-0.07813-0.19043-0.07813z"/>
			<path id="bx" d="m24.143 20.82h-0.17578v-1.5195h0.17578z"/>
			<path id="ca" d="m14.6 23.339q-0.23144 0-0.36035-0.1416-0.12891-0.14258-0.12891-0.4082 0-0.26953 0.12988-0.41504 0.13086-0.14648 0.37207-0.14648 0.07813 0 0.1543 0.0166 0.07715 0.01563 0.12695 0.04102l-0.05371 0.14648q-0.13574-0.05078-0.23145-0.05078-0.16211 0-0.23926 0.10254-0.07715 0.10156-0.07715 0.30371 0 0.19434 0.07715 0.29785 0.07715 0.10254 0.22852 0.10254 0.1416 0 0.27832-0.0625v0.15625q-0.11133 0.05762-0.27637 0.05762z"/>
			<path id="bn" d="m16.062 22.782q0 0.2627-0.13281 0.41016t-0.36719 0.14746q-0.14551 0-0.25781-0.06738-0.1123-0.06836-0.17285-0.19531t-0.06055-0.29492q0-0.26172 0.13086-0.40723 0.13086-0.14648 0.36719-0.14648 0.22656 0 0.35938 0.14941 0.13379 0.14844 0.13379 0.4043zm-0.80957 0q0 0.20215 0.0791 0.30762 0.08008 0.10449 0.23535 0.10449 0.15332 0 0.2334-0.10449 0.08008-0.10547 0.08008-0.30762t-0.08105-0.30371q-0.08008-0.10254-0.23535-0.10254-0.31152 0-0.31152 0.40625z"/>
			<path id="bm" d="m17.072 23.32v-0.68555q0-0.13086-0.05859-0.19434-0.05762-0.06445-0.18164-0.06445-0.16504 0-0.24023 0.0918-0.07422 0.09082-0.07422 0.29688v0.55566h-0.17578v-1.0723h0.1416l0.02637 0.14648h0.0098q0.0498-0.0791 0.13965-0.12207 0.08984-0.04395 0.19824-0.04395 0.19726 0 0.29297 0.0957 0.0957 0.0957 0.0957 0.29785v0.69824z"/>
			<path id="bs" d="m17.988 23.196q0.16211 0 0.23535-0.08691 0.07422-0.08789 0.07422-0.28125v-0.04199q0-0.21484-0.07422-0.3125t-0.23926-0.09766q-0.13477 0-0.20898 0.10742-0.07324 0.10645-0.07324 0.30469 0 0.19922 0.07129 0.30371 0.07227 0.10449 0.21484 0.10449zm0.30762 0.11426 0.0059-0.13184h-0.0078q-0.1084 0.16113-0.33203 0.16113-0.20801 0-0.3252-0.14453-0.11621-0.14551-0.11621-0.40918 0-0.25879 0.11719-0.4082 0.11816-0.14941 0.32227-0.14941 0.21777 0 0.33594 0.16211h0.01074l0.02344-0.14258h0.13965v1.0898q0 0.23047-0.11719 0.34668-0.11621 0.11621-0.3623 0.11621-0.23438 0-0.38574-0.06836v-0.16211q0.15625 0.08398 0.39551 0.08398 0.13672 0 0.21582-0.08008 0.08008-0.08008 0.08008-0.22168z"/>
			<path id="bq" d="m18.977 22.247v0.69043q0 0.12988 0.05762 0.19336 0.05859 0.0625 0.18066 0.0625 0.16504 0 0.24023-0.0918 0.0752-0.0918 0.0752-0.2959v-0.55859h0.17676v1.0723h-0.14454l-0.02539-0.1416h-0.0088q-0.04785 0.07715-0.13574 0.11914t-0.2041 0.04199q-0.19336 0-0.29199-0.09277-0.09766-0.09277-0.09766-0.29688v-0.70215z"/>
			<path id="bu" d="m20.505 23.339q-0.24121 0-0.37891-0.14551-0.13672-0.14648-0.13672-0.40234 0-0.25781 0.12793-0.41016 0.12793-0.15332 0.3457-0.15332 0.20215 0 0.32226 0.13086 0.12012 0.12988 0.12012 0.35254v0.10644h-0.73438q0.0049 0.18262 0.09277 0.27734 0.08789 0.09473 0.24902 0.09473 0.08594 0 0.16309-0.01465 0.07715-0.01563 0.18066-0.05957v0.1543q-0.08887 0.03809-0.16699 0.05371-0.07813 0.01563-0.18457 0.01563zm-0.04395-0.96777q-0.12598 0-0.19922 0.08105t-0.08691 0.22559h0.5459q-2e-3 -0.15039-0.06934-0.22852-0.06738-0.07813-0.19043-0.07813z"/>
			<path id="j" d="m22.077 23.339q-0.20898 0-0.32422-0.14453t-0.11524-0.40918q0-0.2627 0.11524-0.41016 0.11621-0.14746 0.32617-0.14746 0.21582 0 0.33203 0.1582h0.0127q-0.0029-0.01953-0.0078-0.07813-0.0049-0.05957-0.0049-0.08008v-0.42773h0.17578v1.5195h-0.1416l-0.02637-0.14355h-0.0078q-0.1123 0.16309-0.33398 0.16309zm0.02832-0.14551q0.16016 0 0.2334-0.08691 0.07422-0.08789 0.07422-0.28711v-0.03223q0-0.22363-0.0752-0.31836-0.07422-0.0957-0.23438-0.0957-0.13574 0-0.20996 0.1084-0.07422 0.10742-0.07422 0.30762 0 0.19922 0.07324 0.30176 0.07422 0.10254 0.21289 0.10254z"/>
			<path id="h" d="m23.104 23.32h-0.17578v-1.0723h0.17578zm-0.18945-1.3623q0-0.05859 0.0293-0.08496 0.03027-0.02637 0.07422-0.02637 0.04102 0 0.07129 0.02637 0.03125 0.02637 0.03125 0.08496 0 0.05762-0.03125 0.08496-0.03027 0.02734-0.07129 0.02734-0.04395 0-0.07422-0.02734-0.0293-0.02734-0.0293-0.08496z"/>
			<path id="q" d="m23.852 23.196q0.16211 0 0.23535-0.08691 0.07422-0.08789 0.07422-0.28125v-0.04199q0-0.21484-0.07422-0.3125t-0.23926-0.09766q-0.13476 0-0.20898 0.10742-0.07324 0.10645-0.07324 0.30469 0 0.19922 0.07129 0.30371 0.07227 0.10449 0.21484 0.10449zm0.30762 0.11426 0.0059-0.13184h-0.0078q-0.1084 0.16113-0.33203 0.16113-0.20801 0-0.3252-0.14453-0.11621-0.14551-0.11621-0.40918 0-0.25879 0.11719-0.4082 0.11816-0.14941 0.32226-0.14941 0.21777 0 0.33594 0.16211h0.01074l0.02344-0.14258h0.13965v1.0898q0 0.23047-0.11719 0.34668-0.11621 0.11621-0.3623 0.11621-0.23438 0-0.38574-0.06836v-0.16211q0.15625 0.08398 0.39551 0.08398 0.13672 0 0.21582-0.08008 0.08008-0.08008 0.08008-0.22168z"/>
		</g>
		<g id="gm" transform="translate(22,16)" style="fill:#4a566a" aria-label="Aenean vel nulla vitae quam viverra congue dignissim vitae velit. Vivamus ">
			<path id="gu" d="m15.09 20.82-0.17188-0.44238h-0.56641l-0.16992 0.44238h-0.18164l0.55762-1.4336h0.16211l0.55664 1.4336zm-0.22559-0.60156-0.16016-0.43262-0.06836-0.21387q-0.0293 0.11719-0.06152 0.21387l-0.16211 0.43262z"/>
			<path id="gz" d="m15.903 20.839q-0.24121 0-0.37891-0.14551-0.13672-0.14648-0.13672-0.40234 0-0.25781 0.12793-0.41016 0.12793-0.15332 0.3457-0.15332 0.20215 0 0.32227 0.13086 0.12012 0.12988 0.12012 0.35254v0.10644h-0.73438q0.0049 0.18262 0.09277 0.27734 0.08789 0.09473 0.24902 0.09473 0.08594 0 0.16309-0.01465 0.07715-0.01563 0.18066-0.05957v0.1543q-0.08887 0.03809-0.16699 0.05371-0.07813 0.01563-0.18457 0.01563zm-0.04395-0.96777q-0.12598 0-0.19922 0.08105t-0.08691 0.22559h0.5459q-2e-3 -0.15039-0.06934-0.22852-0.06738-0.07813-0.19043-0.07813z"/>
			<path id="he" d="m17.307 20.82v-0.68555q0-0.13086-0.05859-0.19434-0.05762-0.06445-0.18164-0.06445-0.16504 0-0.24023 0.0918-0.07422 0.09082-0.07422 0.29688v0.55566h-0.17578v-1.0723h0.1416l0.02637 0.14648h0.0098q0.0498-0.0791 0.13965-0.12207 0.08984-0.04395 0.19824-0.04395 0.19726 0 0.29297 0.0957 0.0957 0.0957 0.0957 0.29785v0.69824z"/>
			<path id="dj" d="m18.271 20.839q-0.24121 0-0.37891-0.14551-0.13672-0.14648-0.13672-0.40234 0-0.25781 0.12793-0.41016 0.12793-0.15332 0.3457-0.15332 0.20215 0 0.32226 0.13086 0.12012 0.12988 0.12012 0.35254v0.10644h-0.73438q0.0049 0.18262 0.09277 0.27734 0.08789 0.09473 0.24902 0.09473 0.08594 0 0.16309-0.01465 0.07715-0.01563 0.18066-0.05957v0.1543q-0.08887 0.03809-0.16699 0.05371-0.07813 0.01563-0.18457 0.01563zm-0.04395-0.96777q-0.12598 0-0.19922 0.08105t-0.08691 0.22559h0.5459q-2e-3 -0.15039-0.06934-0.22852-0.06738-0.07813-0.19043-0.07813z"/>
			<path id="iz" d="m19.605 20.82-0.03418-0.15234h-0.0078q-0.08008 0.10058-0.16016 0.13672-0.0791 0.03516-0.2002 0.03516-0.1582 0-0.24805-0.08301-0.08984-0.08301-0.08984-0.23438 0-0.32617 0.51465-0.3418l0.18164-0.0068v-0.06348q0-0.12207-0.05273-0.17969-0.05273-0.05859-0.16894-0.05859-0.08496 0-0.16113 0.02539-0.0752 0.02539-0.1416 0.05664l-0.05371-0.13184q0.08105-0.04297 0.17676-0.06738 0.0957-0.02441 0.18945-0.02441 0.19434 0 0.28906 0.08594 0.09473 0.08594 0.09473 0.27344v0.73047zm-0.3623-0.12207q0.14746 0 0.23144-0.0791 0.08496-0.08008 0.08496-0.22656v-0.09668l-0.1582 0.0068q-0.18457 0.0068-0.26953 0.05859-0.08398 0.05176-0.08398 0.16309 0 0.08398 0.05078 0.12891 0.05176 0.04492 0.14453 0.04492z"/>
			<path id="jb" d="m20.795 20.82v-0.68555q0-0.13086-0.05859-0.19434-0.05762-0.06445-0.18164-0.06445-0.16504 0-0.24023 0.0918-0.07422 0.09082-0.07422 0.29688v0.55566h-0.17578v-1.0723h0.1416l0.02637 0.14648h0.0098q0.0498-0.0791 0.13965-0.12207 0.08984-0.04395 0.19824-0.04395 0.19727 0 0.29297 0.0957t0.0957 0.29785v0.69824z"/>
			<path id="jd" d="m22.059 20.82-0.40625-1.0723h0.18848l0.22754 0.63184q0.06738 0.19043 0.08594 0.28418h0.0078q0.0029-0.0127 0.0068-0.02832 0.0049-0.0166 0.01074-0.03516 0.0059-0.01953 0.07227-0.2207l0.22852-0.63184h0.1875l-0.40723 1.0723z"/>
			<path id="jf" d="m23.294 20.839q-0.24121 0-0.37891-0.14551-0.13672-0.14648-0.13672-0.40234 0-0.25781 0.12793-0.41016 0.12793-0.15332 0.3457-0.15332 0.20215 0 0.32227 0.13086 0.12012 0.12988 0.12012 0.35254v0.10644h-0.73438q0.0049 0.18262 0.09277 0.27734 0.08789 0.09473 0.24902 0.09473 0.08594 0 0.16309-0.01465 0.07715-0.01563 0.18066-0.05957v0.1543q-0.08887 0.03809-0.16699 0.05371-0.07813 0.01563-0.18457 0.01563zm-0.04395-0.96777q-0.12598 0-0.19922 0.08105t-0.08691 0.22559h0.5459q-2e-3 -0.15039-0.06934-0.22852-0.06738-0.07813-0.19043-0.07813z"/>
			<path id="ir" d="m24.143 20.82h-0.17578v-1.5195h0.17578z"/>
			<path id="bt" d="m14.6 23.339q-0.23144 0-0.36035-0.1416-0.12891-0.14258-0.12891-0.4082 0-0.26953 0.12988-0.41504 0.13086-0.14648 0.37207-0.14648 0.07813 0 0.1543 0.0166 0.07715 0.01563 0.12695 0.04102l-0.05371 0.14648q-0.13574-0.05078-0.23145-0.05078-0.16211 0-0.23926 0.10254-0.07715 0.10156-0.07715 0.30371 0 0.19434 0.07715 0.29785 0.07715 0.10254 0.22852 0.10254 0.1416 0 0.27832-0.0625v0.15625q-0.11133 0.05762-0.27637 0.05762z"/>
			<path id="bo" d="m16.062 22.782q0 0.2627-0.13281 0.41016t-0.36719 0.14746q-0.14551 0-0.25781-0.06738-0.1123-0.06836-0.17285-0.19531t-0.06055-0.29492q0-0.26172 0.13086-0.40723 0.13086-0.14648 0.36719-0.14648 0.22656 0 0.35938 0.14941 0.13379 0.14844 0.13379 0.4043zm-0.80957 0q0 0.20215 0.0791 0.30762 0.08008 0.10449 0.23535 0.10449 0.15332 0 0.2334-0.10449 0.08008-0.10547 0.08008-0.30762t-0.08105-0.30371q-0.08008-0.10254-0.23535-0.10254-0.31152 0-0.31152 0.40625z"/>
			<path id="ev" d="m17.072 23.32v-0.68555q0-0.13086-0.05859-0.19434-0.05762-0.06445-0.18164-0.06445-0.16504 0-0.24023 0.0918-0.07422 0.09082-0.07422 0.29688v0.55566h-0.17578v-1.0723h0.1416l0.02637 0.14648h0.0098q0.0498-0.0791 0.13965-0.12207 0.08984-0.04395 0.19824-0.04395 0.19726 0 0.29297 0.0957 0.0957 0.0957 0.0957 0.29785v0.69824z"/>
			<path id="cr" d="m17.988 23.196q0.16211 0 0.23535-0.08691 0.07422-0.08789 0.07422-0.28125v-0.04199q0-0.21484-0.07422-0.3125t-0.23926-0.09766q-0.13477 0-0.20898 0.10742-0.07324 0.10645-0.07324 0.30469 0 0.19922 0.07129 0.30371 0.07227 0.10449 0.21484 0.10449zm0.30762 0.11426 0.0059-0.13184h-0.0078q-0.1084 0.16113-0.33203 0.16113-0.20801 0-0.3252-0.14453-0.11621-0.14551-0.11621-0.40918 0-0.25879 0.11719-0.4082 0.11816-0.14941 0.32227-0.14941 0.21777 0 0.33594 0.16211h0.01074l0.02344-0.14258h0.13965v1.0898q0 0.23047-0.11719 0.34668-0.11621 0.11621-0.3623 0.11621-0.23438 0-0.38574-0.06836v-0.16211q0.15625 0.08398 0.39551 0.08398 0.13672 0 0.21582-0.08008 0.08008-0.08008 0.08008-0.22168z"/>
			<path id="ib" d="m18.977 22.247v0.69043q0 0.12988 0.05762 0.19336 0.05859 0.0625 0.18066 0.0625 0.16504 0 0.24023-0.0918 0.0752-0.0918 0.0752-0.2959v-0.55859h0.17676v1.0723h-0.14454l-0.02539-0.1416h-0.0088q-0.04785 0.07715-0.13574 0.11914t-0.2041 0.04199q-0.19336 0-0.29199-0.09277-0.09766-0.09277-0.09766-0.29688v-0.70215z"/>
			<path id="hv" d="m20.505 23.339q-0.24121 0-0.37891-0.14551-0.13672-0.14648-0.13672-0.40234 0-0.25781 0.12793-0.41016 0.12793-0.15332 0.3457-0.15332 0.20215 0 0.32226 0.13086 0.12012 0.12988 0.12012 0.35254v0.10644h-0.73438q0.0049 0.18262 0.09277 0.27734 0.08789 0.09473 0.24902 0.09473 0.08594 0 0.16309-0.01465 0.07715-0.01563 0.18066-0.05957v0.1543q-0.08887 0.03809-0.16699 0.05371-0.07813 0.01563-0.18457 0.01563zm-0.04395-0.96777q-0.12598 0-0.19922 0.08105t-0.08691 0.22559h0.5459q-2e-3 -0.15039-0.06934-0.22852-0.06738-0.07813-0.19043-0.07813z"/>
			<path id="ho" d="m22.077 23.339q-0.20898 0-0.32422-0.14453t-0.11524-0.40918q0-0.2627 0.11524-0.41016 0.11621-0.14746 0.32617-0.14746 0.21582 0 0.33203 0.1582h0.0127q-0.0029-0.01953-0.0078-0.07813-0.0049-0.05957-0.0049-0.08008v-0.42773h0.17578v1.5195h-0.1416l-0.02637-0.14355h-0.0078q-0.1123 0.16309-0.33398 0.16309zm0.02832-0.14551q0.16016 0 0.2334-0.08691 0.07422-0.08789 0.07422-0.28711v-0.03223q0-0.22363-0.0752-0.31836-0.07422-0.0957-0.23438-0.0957-0.13574 0-0.20996 0.1084-0.07422 0.10742-0.07422 0.30762 0 0.19922 0.07324 0.30176 0.07422 0.10254 0.21289 0.10254z"/>
			<path id="hg" d="m23.104 23.32h-0.17578v-1.0723h0.17578zm-0.18945-1.3623q0-0.05859 0.0293-0.08496 0.03027-0.02637 0.07422-0.02637 0.04102 0 0.07129 0.02637 0.03125 0.02637 0.03125 0.08496 0 0.05762-0.03125 0.08496-0.03027 0.02734-0.07129 0.02734-0.04395 0-0.07422-0.02734-0.0293-0.02734-0.0293-0.08496z"/>
			<path id="ba" d="m23.852 23.196q0.16211 0 0.23535-0.08691 0.07422-0.08789 0.07422-0.28125v-0.04199q0-0.21484-0.07422-0.3125t-0.23926-0.09766q-0.13476 0-0.20898 0.10742-0.07324 0.10645-0.07324 0.30469 0 0.19922 0.07129 0.30371 0.07227 0.10449 0.21484 0.10449zm0.30762 0.11426 0.0059-0.13184h-0.0078q-0.1084 0.16113-0.33203 0.16113-0.20801 0-0.3252-0.14453-0.11621-0.14551-0.11621-0.40918 0-0.25879 0.11719-0.4082 0.11816-0.14941 0.32226-0.14941 0.21777 0 0.33594 0.16211h0.01074l0.02344-0.14258h0.13965v1.0898q0 0.23047-0.11719 0.34668-0.11621 0.11621-0.3623 0.11621-0.23438 0-0.38574-0.06836v-0.16211q0.15625 0.08398 0.39551 0.08398 0.13672 0 0.21582-0.08008 0.08008-0.08008 0.08008-0.22168z"/>
		</g>
		<g id="cu" transform="translate(0,8)" style="fill:#4a566a" aria-label="Hendrerit, metus dui pellentesque odio, vel faucibus elit arcu sed tortor. Phasellus ">
			<path id="f" d="m15.286 20.82h-0.17969v-0.66602h-0.73242v0.66602h-0.17969v-1.4277h0.17969v0.60352h0.73242v-0.60352h0.17969z"/>
			<path id="cv" d="m16.11 20.839q-0.24121 0-0.37891-0.14551-0.13672-0.14648-0.13672-0.40234 0-0.25781 0.12793-0.41016 0.12793-0.15332 0.3457-0.15332 0.20215 0 0.32227 0.13086 0.12012 0.12988 0.12012 0.35254v0.10644h-0.73438q0.0049 0.18262 0.09277 0.27734 0.08789 0.09473 0.24902 0.09473 0.08594 0 0.16309-0.01465 0.07715-0.01563 0.18066-0.05957v0.1543q-0.08887 0.03809-0.16699 0.05371-0.07813 0.01563-0.18457 0.01563zm-0.04395-0.96777q-0.12598 0-0.19922 0.08105t-0.08692 0.22559h0.5459q-2e-3 -0.15039-0.06934-0.22852-0.06738-0.07813-0.19043-0.07813z"/>
			<path id="da" d="m17.514 20.82v-0.68555q0-0.13086-0.05859-0.19434-0.05762-0.06445-0.18164-0.06445-0.16504 0-0.24023 0.0918-0.07422 0.09082-0.07422 0.29688v0.55566h-0.17578v-1.0723h0.1416l0.02637 0.14648h0.0098q0.0498-0.0791 0.13965-0.12207 0.08984-0.04395 0.19824-0.04395 0.19727 0 0.29297 0.0957t0.0957 0.29785v0.69824z"/>
			<path id="dc" d="m18.401 20.839q-0.20898 0-0.32422-0.14453-0.11523-0.14453-0.11523-0.40918 0-0.2627 0.11523-0.41016 0.11621-0.14746 0.32617-0.14746 0.21582 0 0.33203 0.1582h0.0127q-0.0029-0.01953-0.0078-0.07813-0.0049-0.05957-0.0049-0.08008v-0.42773h0.17578v1.5195h-0.1416l-0.02637-0.14355h-0.0078q-0.1123 0.16309-0.33398 0.16309zm0.02832-0.14551q0.16016 0 0.2334-0.08691 0.07422-0.08789 0.07422-0.28711v-0.03223q0-0.22363-0.0752-0.31836-0.07422-0.0957-0.23438-0.0957-0.13574 0-0.20996 0.1084-0.07422 0.10742-0.07422 0.30762 0 0.19922 0.07324 0.30176 0.07422 0.10254 0.21289 0.10254z"/>
			<path id="df" d="m19.752 19.728q0.07129 0 0.12598 0.01172l-0.02148 0.16211q-0.05957-0.01367-0.11621-0.01367-0.08496 0-0.1582 0.04687-0.07227 0.04687-0.11328 0.12988-0.04102 0.08203-0.04102 0.18262v0.57226h-0.17578v-1.0723h0.14453l0.01953 0.19629h0.0078q0.06152-0.10645 0.14551-0.16113 0.08398-0.05469 0.18262-0.05469z"/>
			<path id="cq" d="m20.517 20.839q-0.24121 0-0.37891-0.14551-0.13672-0.14648-0.13672-0.40234 0-0.25781 0.12793-0.41016 0.12793-0.15332 0.3457-0.15332 0.20215 0 0.32227 0.13086 0.12012 0.12988 0.12012 0.35254v0.10644h-0.73438q0.0049 0.18262 0.09277 0.27734 0.08789 0.09473 0.24902 0.09473 0.08594 0 0.16309-0.01465 0.07715-0.01563 0.18066-0.05957v0.1543q-0.08887 0.03809-0.16699 0.05371-0.07813 0.01563-0.18457 0.01563zm-0.04395-0.96777q-0.12598 0-0.19922 0.08105t-0.08691 0.22559h0.5459q-2e-3 -0.15039-0.06934-0.22852-0.06738-0.07813-0.19043-0.07813z"/>
			<path id="cc" d="m21.689 19.728q0.07129 0 0.12598 0.01172l-0.02148 0.16211q-0.05957-0.01367-0.11621-0.01367-0.08496 0-0.1582 0.04687-0.07227 0.04687-0.11328 0.12988-0.04102 0.08203-0.04102 0.18262v0.57226h-0.17578v-1.0723h0.14453l0.01953 0.19629h0.0078q0.06152-0.10645 0.14551-0.16113 0.08398-0.05469 0.18262-0.05469z"/>
			<path id="cd" d="m22.193 20.82h-0.17578v-1.0723h0.17578zm-0.18945-1.3623q0-0.05859 0.0293-0.08496 0.03027-0.02637 0.07422-0.02637 0.04102 0 0.07129 0.02637 0.03125 0.02637 0.03125 0.08496 0 0.05762-0.03125 0.08496-0.03027 0.02734-0.07129 0.02734-0.04395 0-0.07422-0.02734-0.0293-0.02734-0.0293-0.08496z"/>
			<path id="ci" d="m22.892 20.696q0.03418 0 0.08008-0.0068t0.06934-0.01563v0.13477q-0.02441 0.01074-0.07617 0.02051-0.05078 0.01074-0.10352 0.01074-0.31445 0-0.31445-0.33106v-0.62402h-0.15137v-0.08398l0.15332-0.07031 0.07031-0.22852h0.10449v0.24609h0.30957v0.13672h-0.30957v0.61914q0 0.09277 0.04395 0.14258 0.04492 0.0498 0.12402 0.0498z"/>
			<path id="cj" d="m23.456 20.587 0.01367 0.02246q-0.05371 0.20898-0.17188 0.46777h-0.12988q0.06348-0.24414 0.09961-0.49024z"/>
			<path id="cb" d="m14.406 23.32-0.40625-1.0723h0.18848l0.22754 0.63184q0.06738 0.19043 0.08594 0.28418h0.0078q0.0029-0.0127 0.0068-0.02832 0.0049-0.0166 0.01074-0.03516 0.0059-0.01953 0.07226-0.2207l0.22852-0.63184h0.1875l-0.40723 1.0723z"/>
			<path id="db" d="m15.642 23.339q-0.24121 0-0.37891-0.14551-0.13672-0.14648-0.13672-0.40234 0-0.25781 0.12793-0.41016 0.12793-0.15332 0.3457-0.15332 0.20215 0 0.32227 0.13086 0.12012 0.12988 0.12012 0.35254v0.10644h-0.73438q0.0049 0.18262 0.09277 0.27734 0.08789 0.09473 0.24902 0.09473 0.08594 0 0.16309-0.01465 0.07715-0.01563 0.18066-0.05957v0.1543q-0.08887 0.03809-0.16699 0.05371-0.07813 0.01563-0.18457 0.01563zm-0.04395-0.96777q-0.12598 0-0.19922 0.08105t-0.08692 0.22559h0.5459q-2e-3 -0.15039-0.06934-0.22852-0.06738-0.07813-0.19043-0.07813z"/>
			<path id="cx" d="m16.49 23.32h-0.17578v-1.5195h0.17578z"/>
			<path id="dg" d="m17.844 22.384h-0.27051v0.93555h-0.17578v-0.93555h-0.1875v-0.08203l0.1875-0.06055v-0.06152q0-0.19531 0.08496-0.29297 0.08594-0.09766 0.26367-0.09766 0.10254 0 0.20801 0.03613l-0.04687 0.1377q-0.09082-0.0293-0.15918-0.0293-0.08887 0-0.13184 0.05859t-0.04297 0.18555v0.06934h0.27051z"/>
			<path id="de" d="m18.699 23.32-0.03418-0.15234h-0.0078q-0.08008 0.10058-0.16016 0.13672-0.0791 0.03516-0.2002 0.03516-0.1582 0-0.24805-0.08301-0.08984-0.08301-0.08984-0.23438 0-0.32617 0.51465-0.3418l0.18164-0.0068v-0.06348q0-0.12207-0.05273-0.17969-0.05273-0.05859-0.16894-0.05859-0.08496 0-0.16113 0.02539-0.0752 0.02539-0.1416 0.05664l-0.05371-0.13184q0.08105-0.04297 0.17676-0.06738 0.0957-0.02441 0.18945-0.02441 0.19434 0 0.28906 0.08594 0.09473 0.08594 0.09473 0.27344v0.73047zm-0.3623-0.12207q0.14746 0 0.23144-0.0791 0.08496-0.08008 0.08496-0.22656v-0.09668l-0.1582 0.0068q-0.18457 0.0068-0.26953 0.05859-0.08398 0.05176-0.08398 0.16309 0 0.08398 0.05078 0.12891 0.05176 0.04492 0.14453 0.04492z"/>
			<path id="cs" d="m19.324 22.247v0.69043q0 0.12988 0.05762 0.19336 0.05859 0.0625 0.18066 0.0625 0.16504 0 0.24023-0.0918 0.0752-0.0918 0.0752-0.2959v-0.55859h0.17676v1.0723h-0.14453l-0.02539-0.1416h-0.0088q-0.04785 0.07715-0.13574 0.11914t-0.2041 0.04199q-0.19336 0-0.29199-0.09277-0.09766-0.09277-0.09766-0.29688v-0.70215z"/>
			<path id="o" d="m20.826 23.339q-0.23144 0-0.36035-0.1416-0.12891-0.14258-0.12891-0.4082 0-0.26953 0.12988-0.41504 0.13086-0.14648 0.37207-0.14648 0.07813 0 0.1543 0.0166 0.07715 0.01563 0.12695 0.04102l-0.05371 0.14648q-0.13574-0.05078-0.23144-0.05078-0.16211 0-0.23926 0.10254-0.07715 0.10156-0.07715 0.30371 0 0.19434 0.07715 0.29785 0.07715 0.10254 0.22852 0.10254 0.1416 0 0.27832-0.0625v0.15625q-0.11133 0.05762-0.27637 0.05762z"/>
			<path id="l" d="m21.533 23.32h-0.17578v-1.0723h0.17578zm-0.18945-1.3623q0-0.05859 0.0293-0.08496 0.03027-0.02637 0.07422-0.02637 0.04102 0 0.07129 0.02637 0.03125 0.02637 0.03125 0.08496 0 0.05762-0.03125 0.08496-0.03027 0.02734-0.07129 0.02734-0.04395 0-0.07422-0.02734-0.0293-0.02734-0.0293-0.08496z"/>
			<path id="i" d="m22.381 22.23q0.21191 0 0.32715 0.14648 0.11523 0.14551 0.11523 0.40723 0 0.26562-0.11719 0.41113-0.11719 0.14453-0.3252 0.14453-0.1084 0-0.19336-0.03906t-0.13867-0.11621h-0.01367q-0.03027 0.11719-0.03613 0.13574h-0.12598v-1.5195h0.17578v0.36914q0 0.11035-0.0098 0.2207h0.0098q0.1084-0.16016 0.33203-0.16016zm-0.0293 0.14551q-0.16211 0-0.23242 0.0918t-0.07031 0.31055v0.0078q0 0.21973 0.07129 0.31445 0.07227 0.09375 0.23535 0.09375 0.14453 0 0.21484-0.10547 0.07129-0.10644 0.07129-0.30664 0-0.20312-0.07129-0.30469-0.07129-0.10156-0.21875-0.10156z"/>
			<path id="g" d="m23.27 22.247v0.69043q0 0.12988 0.05762 0.19336 0.05859 0.0625 0.18066 0.0625 0.16504 0 0.24024-0.0918t0.0752-0.2959v-0.55859h0.17675v1.0723h-0.14453l-0.02539-0.1416h-0.0088q-0.04785 0.07715-0.13574 0.11914t-0.2041 0.04199q-0.19336 0-0.29199-0.09277-0.09766-0.09277-0.09766-0.29688v-0.70215z"/>
		</g>
		<g id="hw" transform="translate(0,24)" style="fill:#4a566a" aria-label="Hendrerit, metus dui pellentesque odio, vel faucibus elit arcu sed tortor. Phasellus ">
			<path id="cm" d="m15.286 20.82h-0.17969v-0.66602h-0.73242v0.66602h-0.17969v-1.4277h0.17969v0.60352h0.73242v-0.60352h0.17969z"/>
			<path id="al" d="m16.11 20.839q-0.24121 0-0.37891-0.14551-0.13672-0.14648-0.13672-0.40234 0-0.25781 0.12793-0.41016 0.12793-0.15332 0.3457-0.15332 0.20215 0 0.32227 0.13086 0.12012 0.12988 0.12012 0.35254v0.10644h-0.73438q0.0049 0.18262 0.09277 0.27734 0.08789 0.09473 0.24902 0.09473 0.08594 0 0.16309-0.01465 0.07715-0.01563 0.18066-0.05957v0.1543q-0.08887 0.03809-0.16699 0.05371-0.07813 0.01563-0.18457 0.01563zm-0.04395-0.96777q-0.12598 0-0.19922 0.08105t-0.08692 0.22559h0.5459q-2e-3 -0.15039-0.06934-0.22852-0.06738-0.07813-0.19043-0.07813z"/>
			<path id="gi" d="m17.514 20.82v-0.68555q0-0.13086-0.05859-0.19434-0.05762-0.06445-0.18164-0.06445-0.16504 0-0.24023 0.0918-0.07422 0.09082-0.07422 0.29688v0.55566h-0.17578v-1.0723h0.1416l0.02637 0.14648h0.0098q0.0498-0.0791 0.13965-0.12207 0.08984-0.04395 0.19824-0.04395 0.19727 0 0.29297 0.0957t0.0957 0.29785v0.69824z"/>
			<path id="gj" d="m18.401 20.839q-0.20898 0-0.32422-0.14453-0.11523-0.14453-0.11523-0.40918 0-0.2627 0.11523-0.41016 0.11621-0.14746 0.32617-0.14746 0.21582 0 0.33203 0.1582h0.0127q-0.0029-0.01953-0.0078-0.07813-0.0049-0.05957-0.0049-0.08008v-0.42773h0.17578v1.5195h-0.1416l-0.02637-0.14355h-0.0078q-0.1123 0.16309-0.33398 0.16309zm0.02832-0.14551q0.16016 0 0.2334-0.08691 0.07422-0.08789 0.07422-0.28711v-0.03223q0-0.22363-0.0752-0.31836-0.07422-0.0957-0.23438-0.0957-0.13574 0-0.20996 0.1084-0.07422 0.10742-0.07422 0.30762 0 0.19922 0.07324 0.30176 0.07422 0.10254 0.21289 0.10254z"/>
			<path id="w" d="m19.752 19.728q0.07129 0 0.12598 0.01172l-0.02148 0.16211q-0.05957-0.01367-0.11621-0.01367-0.08496 0-0.1582 0.04687-0.07227 0.04687-0.11328 0.12988-0.04102 0.08203-0.04102 0.18262v0.57226h-0.17578v-1.0723h0.14453l0.01953 0.19629h0.0078q0.06152-0.10645 0.14551-0.16113 0.08398-0.05469 0.18262-0.05469z"/>
			<path id="gh" d="m20.517 20.839q-0.24121 0-0.37891-0.14551-0.13672-0.14648-0.13672-0.40234 0-0.25781 0.12793-0.41016 0.12793-0.15332 0.3457-0.15332 0.20215 0 0.32227 0.13086 0.12012 0.12988 0.12012 0.35254v0.10644h-0.73438q0.0049 0.18262 0.09277 0.27734 0.08789 0.09473 0.24902 0.09473 0.08594 0 0.16309-0.01465 0.07715-0.01563 0.18066-0.05957v0.1543q-0.08887 0.03809-0.16699 0.05371-0.07813 0.01563-0.18457 0.01563zm-0.04395-0.96777q-0.12598 0-0.19922 0.08105t-0.08691 0.22559h0.5459q-2e-3 -0.15039-0.06934-0.22852-0.06738-0.07813-0.19043-0.07813z"/>
			<path id="y" d="m21.689 19.728q0.07129 0 0.12598 0.01172l-0.02148 0.16211q-0.05957-0.01367-0.11621-0.01367-0.08496 0-0.1582 0.04687-0.07227 0.04687-0.11328 0.12988-0.04102 0.08203-0.04102 0.18262v0.57226h-0.17578v-1.0723h0.14453l0.01953 0.19629h0.0078q0.06152-0.10645 0.14551-0.16113 0.08398-0.05469 0.18262-0.05469z"/>
			<path id="hl" d="m22.193 20.82h-0.17578v-1.0723h0.17578zm-0.18945-1.3623q0-0.05859 0.0293-0.08496 0.03027-0.02637 0.07422-0.02637 0.04102 0 0.07129 0.02637 0.03125 0.02637 0.03125 0.08496 0 0.05762-0.03125 0.08496-0.03027 0.02734-0.07129 0.02734-0.04395 0-0.07422-0.02734-0.0293-0.02734-0.0293-0.08496z"/>
			<path id="hn" d="m22.892 20.696q0.03418 0 0.08008-0.0068t0.06934-0.01563v0.13477q-0.02441 0.01074-0.07617 0.02051-0.05078 0.01074-0.10352 0.01074-0.31445 0-0.31445-0.33106v-0.62402h-0.15137v-0.08398l0.15332-0.07031 0.07031-0.22852h0.10449v0.24609h0.30957v0.13672h-0.30957v0.61914q0 0.09277 0.04395 0.14258 0.04492 0.0498 0.12402 0.0498z"/>
			<path id="hp" d="m23.456 20.587 0.01367 0.02246q-0.05371 0.20898-0.17188 0.46777h-0.12988q0.06348-0.24414 0.09961-0.49024z"/>
			<path id="bp" d="m14.406 23.32-0.40625-1.0723h0.18848l0.22754 0.63184q0.06738 0.19043 0.08594 0.28418h0.0078q0.0029-0.0127 0.0068-0.02832 0.0049-0.0166 0.01074-0.03516 0.0059-0.01953 0.07226-0.2207l0.22852-0.63184h0.1875l-0.40723 1.0723z"/>
			<path id="bg" d="m15.642 23.339q-0.24121 0-0.37891-0.14551-0.13672-0.14648-0.13672-0.40234 0-0.25781 0.12793-0.41016 0.12793-0.15332 0.3457-0.15332 0.20215 0 0.32227 0.13086 0.12012 0.12988 0.12012 0.35254v0.10644h-0.73438q0.0049 0.18262 0.09277 0.27734 0.08789 0.09473 0.24902 0.09473 0.08594 0 0.16309-0.01465 0.07715-0.01563 0.18066-0.05957v0.1543q-0.08887 0.03809-0.16699 0.05371-0.07813 0.01563-0.18457 0.01563zm-0.04395-0.96777q-0.12598 0-0.19922 0.08105t-0.08692 0.22559h0.5459q-2e-3 -0.15039-0.06934-0.22852-0.06738-0.07813-0.19043-0.07813z"/>
			<path id="t" d="m16.49 23.32h-0.17578v-1.5195h0.17578z"/>
			<path id="v" d="m17.844 22.384h-0.27051v0.93555h-0.17578v-0.93555h-0.1875v-0.08203l0.1875-0.06055v-0.06152q0-0.19531 0.08496-0.29297 0.08594-0.09766 0.26367-0.09766 0.10254 0 0.20801 0.03613l-0.04687 0.1377q-0.09082-0.0293-0.15918-0.0293-0.08887 0-0.13184 0.05859t-0.04297 0.18555v0.06934h0.27051z"/>
			<path id="p" d="m18.699 23.32-0.03418-0.15234h-0.0078q-0.08008 0.10058-0.16016 0.13672-0.0791 0.03516-0.2002 0.03516-0.1582 0-0.24805-0.08301-0.08984-0.08301-0.08984-0.23438 0-0.32617 0.51465-0.3418l0.18164-0.0068v-0.06348q0-0.12207-0.05273-0.17969-0.05273-0.05859-0.16894-0.05859-0.08496 0-0.16113 0.02539-0.0752 0.02539-0.1416 0.05664l-0.05371-0.13184q0.08105-0.04297 0.17676-0.06738 0.0957-0.02441 0.18945-0.02441 0.19434 0 0.28906 0.08594 0.09473 0.08594 0.09473 0.27344v0.73047zm-0.3623-0.12207q0.14746 0 0.23144-0.0791 0.08496-0.08008 0.08496-0.22656v-0.09668l-0.1582 0.0068q-0.18457 0.0068-0.26953 0.05859-0.08398 0.05176-0.08398 0.16309 0 0.08398 0.05078 0.12891 0.05176 0.04492 0.14453 0.04492z"/>
			<path id="k" d="m19.324 22.247v0.69043q0 0.12988 0.05762 0.19336 0.05859 0.0625 0.18066 0.0625 0.16504 0 0.24023-0.0918 0.0752-0.0918 0.0752-0.2959v-0.55859h0.17676v1.0723h-0.14453l-0.02539-0.1416h-0.0088q-0.04785 0.07715-0.13574 0.11914t-0.2041 0.04199q-0.19336 0-0.29199-0.09277-0.09766-0.09277-0.09766-0.29688v-0.70215z"/>
			<path id="m" d="m20.826 23.339q-0.23144 0-0.36035-0.1416-0.12891-0.14258-0.12891-0.4082 0-0.26953 0.12988-0.41504 0.13086-0.14648 0.37207-0.14648 0.07813 0 0.1543 0.0166 0.07715 0.01563 0.12695 0.04102l-0.05371 0.14648q-0.13574-0.05078-0.23144-0.05078-0.16211 0-0.23926 0.10254-0.07715 0.10156-0.07715 0.30371 0 0.19434 0.07715 0.29785 0.07715 0.10254 0.22852 0.10254 0.1416 0 0.27832-0.0625v0.15625q-0.11133 0.05762-0.27637 0.05762z"/>
			<path id="ja" d="m21.533 23.32h-0.17578v-1.0723h0.17578zm-0.18945-1.3623q0-0.05859 0.0293-0.08496 0.03027-0.02637 0.07422-0.02637 0.04102 0 0.07129 0.02637 0.03125 0.02637 0.03125 0.08496 0 0.05762-0.03125 0.08496-0.03027 0.02734-0.07129 0.02734-0.04395 0-0.07422-0.02734-0.0293-0.02734-0.0293-0.08496z"/>
			<path id="iy" d="m22.381 22.23q0.21191 0 0.32715 0.14648 0.11523 0.14551 0.11523 0.40723 0 0.26562-0.11719 0.41113-0.11719 0.14453-0.3252 0.14453-0.1084 0-0.19336-0.03906t-0.13867-0.11621h-0.01367q-0.03027 0.11719-0.03613 0.13574h-0.12598v-1.5195h0.17578v0.36914q0 0.11035-0.0098 0.2207h0.0098q0.1084-0.16016 0.33203-0.16016zm-0.0293 0.14551q-0.16211 0-0.23242 0.0918t-0.07031 0.31055v0.0078q0 0.21973 0.07129 0.31445 0.07227 0.09375 0.23535 0.09375 0.14453 0 0.21484-0.10547 0.07129-0.10644 0.07129-0.30664 0-0.20312-0.07129-0.30469-0.07129-0.10156-0.21875-0.10156z"/>
			<path id="fp" d="m23.27 22.247v0.69043q0 0.12988 0.05762 0.19336 0.05859 0.0625 0.18066 0.0625 0.16504 0 0.24024-0.0918t0.0752-0.2959v-0.55859h0.17675v1.0723h-0.14453l-0.02539-0.1416h-0.0088q-0.04785 0.07715-0.13574 0.11914t-0.2041 0.04199q-0.19336 0-0.29199-0.09277-0.09766-0.09277-0.09766-0.29688v-0.70215z"/>
		</g>
		<g id="be" transform="translate(22,8)" style="fill:#4a566a" aria-label="Donec rutrum turpis sapien, sit amet venenatis risus laoreet eget. Donec ">
			<path id="ab" d="m15.338 20.092q0 0.35352-0.19336 0.54102-0.19238 0.18652-0.55273 0.18652h-0.39746v-1.4277h0.43945q0.33301 0 0.51856 0.18359 0.18555 0.18262 0.18555 0.5166zm-0.18945 0.0059q0-0.27246-0.13477-0.41211-0.13379-0.14062-0.40527-0.14062h-0.23438v1.1201h0.19434q0.58008 0 0.58008-0.56738z"/>
			<path id="ac" d="m16.562 20.282q0 0.2627-0.13281 0.41016t-0.36719 0.14746q-0.14551 0-0.25781-0.06738-0.1123-0.06836-0.17285-0.19531t-0.06055-0.29492q0-0.26172 0.13086-0.40723 0.13086-0.14648 0.36719-0.14648 0.22656 0 0.35938 0.14941 0.13379 0.14844 0.13379 0.4043zm-0.80957 0q0 0.20215 0.0791 0.30762 0.08008 0.10449 0.23535 0.10449 0.15332 0 0.2334-0.10449 0.08008-0.10547 0.08008-0.30762t-0.08105-0.30371q-0.08008-0.10254-0.23535-0.10254-0.31152 0-0.31152 0.40625z"/>
			<path id="ad" d="m17.572 20.82v-0.68555q0-0.13086-0.05859-0.19434-0.05762-0.06445-0.18164-0.06445-0.16504 0-0.24023 0.0918-0.07422 0.09082-0.07422 0.29688v0.55566h-0.17578v-1.0723h0.1416l0.02637 0.14648h0.0098q0.0498-0.0791 0.13965-0.12207 0.08984-0.04395 0.19824-0.04395 0.19726 0 0.29297 0.0957 0.0957 0.0957 0.0957 0.29785v0.69824z"/>
			<path id="ae" d="m18.536 20.839q-0.24121 0-0.37891-0.14551-0.13672-0.14648-0.13672-0.40234 0-0.25781 0.12793-0.41016 0.12793-0.15332 0.3457-0.15332 0.20215 0 0.32226 0.13086 0.12012 0.12988 0.12012 0.35254v0.10644h-0.73438q0.0049 0.18262 0.09277 0.27734 0.08789 0.09473 0.24902 0.09473 0.08594 0 0.16309-0.01465 0.07715-0.01563 0.18066-0.05957v0.1543q-0.08887 0.03809-0.16699 0.05371-0.07813 0.01563-0.18457 0.01563zm-0.04395-0.96777q-0.12598 0-0.19922 0.08105t-0.08691 0.22559h0.5459q-2e-3 -0.15039-0.06934-0.22852-0.06738-0.07813-0.19043-0.07813z"/>
			<path id="af" d="m19.639 20.839q-0.23144 0-0.36035-0.1416-0.12891-0.14258-0.12891-0.4082 0-0.26953 0.12988-0.41504 0.13086-0.14648 0.37207-0.14648 0.07813 0 0.1543 0.0166 0.07715 0.01563 0.12695 0.04102l-0.05371 0.14648q-0.13574-0.05078-0.23144-0.05078-0.16211 0-0.23926 0.10254-0.07715 0.10156-0.07715 0.30371 0 0.19434 0.07715 0.29785 0.07715 0.10254 0.22852 0.10254 0.1416 0 0.27832-0.0625v0.15625q-0.11133 0.05762-0.27637 0.05762z"/>
			<path id="ap" d="m21.189 19.728q0.07129 0 0.12598 0.01172l-0.02148 0.16211q-0.05957-0.01367-0.11621-0.01367-0.08496 0-0.1582 0.04687-0.07227 0.04687-0.11328 0.12988-0.04102 0.08203-0.04102 0.18262v0.57226h-0.17578v-1.0723h0.14453l0.01953 0.19629h0.0078q0.06152-0.10645 0.14551-0.16113 0.08398-0.05469 0.18262-0.05469z"/>
			<path id="aq" d="m21.684 19.747v0.69043q0 0.12988 0.05762 0.19336 0.05859 0.0625 0.18066 0.0625 0.16504 0 0.24023-0.0918 0.0752-0.0918 0.0752-0.2959v-0.55859h0.17676v1.0723h-0.14453l-0.02539-0.1416h-0.0088q-0.04785 0.07715-0.13574 0.11914t-0.2041 0.04199q-0.19336 0-0.29199-0.09277-0.09766-0.09277-0.09766-0.29688v-0.70215z"/>
			<path id="an" d="m23.114 20.696q0.03418 0 0.08008-0.0068t0.06934-0.01563v0.13477q-0.02441 0.01074-0.07617 0.02051-0.05078 0.01074-0.10352 0.01074-0.31445 0-0.31445-0.33106v-0.62402h-0.15137v-0.08398l0.15332-0.07031 0.07031-0.22852h0.10449v0.24609h0.30957v0.13672h-0.30957v0.61914q0 0.09277 0.04395 0.14258 0.04492 0.0498 0.12402 0.0498z"/>
			<path id="ao" d="m14.406 23.32-0.40625-1.0723h0.18848l0.22754 0.63184q0.06738 0.19043 0.08594 0.28418h0.0078q0.0029-0.0127 0.0068-0.02832 0.0049-0.0166 0.01074-0.03516 0.0059-0.01953 0.07226-0.2207l0.22852-0.63184h0.1875l-0.40723 1.0723z"/>
			<path id="ar" d="m15.642 23.339q-0.24121 0-0.37891-0.14551-0.13672-0.14648-0.13672-0.40234 0-0.25781 0.12793-0.41016 0.12793-0.15332 0.3457-0.15332 0.20215 0 0.32227 0.13086 0.12012 0.12988 0.12012 0.35254v0.10644h-0.73438q0.0049 0.18262 0.09277 0.27734 0.08789 0.09473 0.24902 0.09473 0.08594 0 0.16309-0.01465 0.07715-0.01563 0.18066-0.05957v0.1543q-0.08887 0.03809-0.16699 0.05371-0.07813 0.01563-0.18457 0.01563zm-0.04395-0.96777q-0.12598 0-0.19922 0.08105t-0.08692 0.22559h0.5459q-2e-3 -0.15039-0.06934-0.22852-0.06738-0.07813-0.19043-0.07813z"/>
			<path id="bc" d="m17.045 23.32v-0.68555q0-0.13086-0.05859-0.19434-0.05762-0.06445-0.18164-0.06445-0.16504 0-0.24023 0.0918-0.07422 0.09082-0.07422 0.29688v0.55566h-0.17578v-1.0723h0.1416l0.02637 0.14648h0.0098q0.0498-0.0791 0.13965-0.12207 0.08984-0.04395 0.19824-0.04395 0.19727 0 0.29297 0.0957t0.0957 0.29785v0.69824z"/>
			<path id="bb" d="m18.009 23.339q-0.24121 0-0.37891-0.14551-0.13672-0.14648-0.13672-0.40234 0-0.25781 0.12793-0.41016 0.12793-0.15332 0.3457-0.15332 0.20215 0 0.32226 0.13086 0.12012 0.12988 0.12012 0.35254v0.10644h-0.73438q0.0049 0.18262 0.09277 0.27734 0.08789 0.09473 0.24902 0.09473 0.08594 0 0.16308-0.01465 0.07715-0.01563 0.18066-0.05957v0.1543q-0.08887 0.03809-0.16699 0.05371-0.07813 0.01563-0.18457 0.01563zm-0.04395-0.96777q-0.12598 0-0.19922 0.08105t-0.08691 0.22559h0.5459q-2e-3 -0.15039-0.06934-0.22852-0.06738-0.07813-0.19043-0.07813z"/>
			<path id="az" d="m19.412 23.32v-0.68555q0-0.13086-0.05859-0.19434-0.05762-0.06445-0.18164-0.06445-0.16504 0-0.24023 0.0918-0.07422 0.09082-0.07422 0.29688v0.55566h-0.17578v-1.0723h0.1416l0.02637 0.14648h0.0098q0.0498-0.0791 0.13965-0.12207 0.08984-0.04395 0.19824-0.04395 0.19726 0 0.29297 0.0957 0.0957 0.0957 0.0957 0.29785v0.69824z"/>
			<path id="ay" d="m20.582 23.32-0.03418-0.15234h-0.0078q-0.08008 0.10058-0.16016 0.13672-0.0791 0.03516-0.2002 0.03516-0.1582 0-0.24805-0.08301-0.08984-0.08301-0.08984-0.23438 0-0.32617 0.51465-0.3418l0.18164-0.0068v-0.06348q0-0.12207-0.05273-0.17969-0.05273-0.05859-0.16895-0.05859-0.08496 0-0.16113 0.02539-0.0752 0.02539-0.1416 0.05664l-0.05371-0.13184q0.08105-0.04297 0.17676-0.06738 0.0957-0.02441 0.18945-0.02441 0.19434 0 0.28906 0.08594 0.09473 0.08594 0.09473 0.27344v0.73047zm-0.3623-0.12207q0.14746 0 0.23144-0.0791 0.08496-0.08008 0.08496-0.22656v-0.09668l-0.1582 0.0068q-0.18457 0.0068-0.26953 0.05859-0.08398 0.05176-0.08398 0.16309 0 0.08398 0.05078 0.12891 0.05176 0.04492 0.14453 0.04492z"/>
			<path id="bd" d="m21.399 23.196q0.03418 0 0.08008-0.0068t0.06934-0.01563v0.13477q-0.02441 0.01074-0.07617 0.02051-0.05078 0.01074-0.10352 0.01074-0.31445 0-0.31445-0.33106v-0.62406h-0.15138v-0.08398l0.15332-0.07031 0.07031-0.22852h0.10449v0.24609h0.30957v0.13672h-0.30957v0.61914q0 0.09277 0.04395 0.14258 0.04492 0.0498 0.12402 0.0498z"/>
			<path id="bl" d="m21.939 23.32h-0.17578v-1.0723h0.17578zm-0.18945-1.3623q0-0.05859 0.0293-0.08496 0.03027-0.02637 0.07422-0.02637 0.04102 0 0.07129 0.02637 0.03125 0.02637 0.03125 0.08496 0 0.05762-0.03125 0.08496-0.03027 0.02734-0.07129 0.02734-0.04395 0-0.07422-0.02734-0.0293-0.02734-0.0293-0.08496z"/>
			<path id="bk" d="m22.978 23.024q0 0.15039-0.1123 0.2334-0.1123 0.08203-0.31543 0.08203-0.21191 0-0.33691-0.06738v-0.16016q0.17676 0.08594 0.34082 0.08594 0.13281 0 0.19336-0.04297t0.06055-0.11523q0-0.06348-0.05859-0.10742-0.05762-0.04395-0.20605-0.10059-0.15137-0.05859-0.21289-0.09961-0.06152-0.04199-0.09082-0.09375-0.02832-0.05176-0.02832-0.12598 0-0.13184 0.10742-0.20801t0.29492-0.07617q0.18262 0 0.3418 0.07227l-0.05957 0.13965q-0.16309-0.06836-0.29395-0.06836-0.10938 0-0.16602 0.03516-0.05664 0.03418-0.05664 0.09473 0 0.05859 0.04883 0.09766 0.04883 0.03809 0.22754 0.10644 0.13379 0.0498 0.19727 0.09277 0.06445 0.04297 0.09473 0.09668 0.03027 0.05371 0.03027 0.12891z"/>
		</g>
		<g id="fo" transform="translate(22,24)" style="fill:#4a566a" aria-label="Donec rutrum turpis sapien, sit amet venenatis risus laoreet eget. Donec ">
			<path id="et" d="m15.338 20.092q0 0.35352-0.19336 0.54102-0.19238 0.18652-0.55273 0.18652h-0.39746v-1.4277h0.43945q0.33301 0 0.51856 0.18359 0.18555 0.18262 0.18555 0.5166zm-0.18945 0.0059q0-0.27246-0.13477-0.41211-0.13379-0.14062-0.40527-0.14062h-0.23438v1.1201h0.19434q0.58008 0 0.58008-0.56738z"/>
			<path id="er" d="m16.562 20.282q0 0.2627-0.13281 0.41016t-0.36719 0.14746q-0.14551 0-0.25781-0.06738-0.1123-0.06836-0.17285-0.19531t-0.06055-0.29492q0-0.26172 0.13086-0.40723 0.13086-0.14648 0.36719-0.14648 0.22656 0 0.35938 0.14941 0.13379 0.14844 0.13379 0.4043zm-0.80957 0q0 0.20215 0.0791 0.30762 0.08008 0.10449 0.23535 0.10449 0.15332 0 0.2334-0.10449 0.08008-0.10547 0.08008-0.30762t-0.08105-0.30371q-0.08008-0.10254-0.23535-0.10254-0.31152 0-0.31152 0.40625z"/>
			<path id="ep" d="m17.572 20.82v-0.68555q0-0.13086-0.05859-0.19434-0.05762-0.06445-0.18164-0.06445-0.16504 0-0.24023 0.0918-0.07422 0.09082-0.07422 0.29688v0.55566h-0.17578v-1.0723h0.1416l0.02637 0.14648h0.0098q0.0498-0.0791 0.13965-0.12207 0.08984-0.04395 0.19824-0.04395 0.19726 0 0.29297 0.0957 0.0957 0.0957 0.0957 0.29785v0.69824z"/>
			<path id="en" d="m18.536 20.839q-0.24121 0-0.37891-0.14551-0.13672-0.14648-0.13672-0.40234 0-0.25781 0.12793-0.41016 0.12793-0.15332 0.3457-0.15332 0.20215 0 0.32226 0.13086 0.12012 0.12988 0.12012 0.35254v0.10644h-0.73438q0.0049 0.18262 0.09277 0.27734 0.08789 0.09473 0.24902 0.09473 0.08594 0 0.16309-0.01465 0.07715-0.01563 0.18066-0.05957v0.1543q-0.08887 0.03809-0.16699 0.05371-0.07813 0.01563-0.18457 0.01563zm-0.04395-0.96777q-0.12598 0-0.19922 0.08105t-0.08691 0.22559h0.5459q-2e-3 -0.15039-0.06934-0.22852-0.06738-0.07813-0.19043-0.07813z"/>
			<path id="em" d="m19.639 20.839q-0.23144 0-0.36035-0.1416-0.12891-0.14258-0.12891-0.4082 0-0.26953 0.12988-0.41504 0.13086-0.14648 0.37207-0.14648 0.07813 0 0.1543 0.0166 0.07715 0.01563 0.12695 0.04102l-0.05371 0.14648q-0.13574-0.05078-0.23144-0.05078-0.16211 0-0.23926 0.10254-0.07715 0.10156-0.07715 0.30371 0 0.19434 0.07715 0.29785 0.07715 0.10254 0.22852 0.10254 0.1416 0 0.27832-0.0625v0.15625q-0.11133 0.05762-0.27637 0.05762z"/>
			<path id="cy" d="m21.189 19.728q0.07129 0 0.12598 0.01172l-0.02148 0.16211q-0.05957-0.01367-0.11621-0.01367-0.08496 0-0.1582 0.04687-0.07227 0.04687-0.11328 0.12988-0.04102 0.08203-0.04102 0.18262v0.57226h-0.17578v-1.0723h0.14453l0.01953 0.19629h0.0078q0.06152-0.10645 0.14551-0.16113 0.08398-0.05469 0.18262-0.05469z"/>
			<path id="ct" d="m21.684 19.747v0.69043q0 0.12988 0.05762 0.19336 0.05859 0.0625 0.18066 0.0625 0.16504 0 0.24023-0.0918 0.0752-0.0918 0.0752-0.2959v-0.55859h0.17676v1.0723h-0.14453l-0.02539-0.1416h-0.0088q-0.04785 0.07715-0.13574 0.11914t-0.2041 0.04199q-0.19336 0-0.29199-0.09277-0.09766-0.09277-0.09766-0.29688v-0.70215z"/>
			<path id="cw" d="m23.114 20.696q0.03418 0 0.08008-0.0068t0.06934-0.01563v0.13477q-0.02441 0.01074-0.07617 0.02051-0.05078 0.01074-0.10352 0.01074-0.31445 0-0.31445-0.33106v-0.62402h-0.15137v-0.08398l0.15332-0.07031 0.07031-0.22852h0.10449v0.24609h0.30957v0.13672h-0.30957v0.61914q0 0.09277 0.04395 0.14258 0.04492 0.0498 0.12402 0.0498z"/>
			<path id="c" d="m14.406 23.32-0.40625-1.0723h0.18848l0.22754 0.63184q0.06738 0.19043 0.08594 0.28418h0.0078q0.0029-0.0127 0.0068-0.02832 0.0049-0.0166 0.01074-0.03516 0.0059-0.01953 0.07226-0.2207l0.22852-0.63184h0.1875l-0.40723 1.0723z"/>
			<path id="jz" d="m15.642 23.339q-0.24121 0-0.37891-0.14551-0.13672-0.14648-0.13672-0.40234 0-0.25781 0.12793-0.41016 0.12793-0.15332 0.3457-0.15332 0.20215 0 0.32227 0.13086 0.12012 0.12988 0.12012 0.35254v0.10644h-0.73438q0.0049 0.18262 0.09277 0.27734 0.08789 0.09473 0.24902 0.09473 0.08594 0 0.16309-0.01465 0.07715-0.01563 0.18066-0.05957v0.1543q-0.08887 0.03809-0.16699 0.05371-0.07813 0.01563-0.18457 0.01563zm-0.04395-0.96777q-0.12598 0-0.19922 0.08105t-0.08692 0.22559h0.5459q-2e-3 -0.15039-0.06934-0.22852-0.06738-0.07813-0.19043-0.07813z"/>
			<path id="ai" d="m17.045 23.32v-0.68555q0-0.13086-0.05859-0.19434-0.05762-0.06445-0.18164-0.06445-0.16504 0-0.24023 0.0918-0.07422 0.09082-0.07422 0.29688v0.55566h-0.17578v-1.0723h0.1416l0.02637 0.14648h0.0098q0.0498-0.0791 0.13965-0.12207 0.08984-0.04395 0.19824-0.04395 0.19727 0 0.29297 0.0957t0.0957 0.29785v0.69824z"/>
			<path id="ek" d="m18.009 23.339q-0.24121 0-0.37891-0.14551-0.13672-0.14648-0.13672-0.40234 0-0.25781 0.12793-0.41016 0.12793-0.15332 0.3457-0.15332 0.20215 0 0.32226 0.13086 0.12012 0.12988 0.12012 0.35254v0.10644h-0.73438q0.0049 0.18262 0.09277 0.27734 0.08789 0.09473 0.24902 0.09473 0.08594 0 0.16308-0.01465 0.07715-0.01563 0.18066-0.05957v0.1543q-0.08887 0.03809-0.16699 0.05371-0.07813 0.01563-0.18457 0.01563zm-0.04395-0.96777q-0.12598 0-0.19922 0.08105t-0.08691 0.22559h0.5459q-2e-3 -0.15039-0.06934-0.22852-0.06738-0.07813-0.19043-0.07813z"/>
			<path id="jn" d="m19.412 23.32v-0.68555q0-0.13086-0.05859-0.19434-0.05762-0.06445-0.18164-0.06445-0.16504 0-0.24023 0.0918-0.07422 0.09082-0.07422 0.29688v0.55566h-0.17578v-1.0723h0.1416l0.02637 0.14648h0.0098q0.0498-0.0791 0.13965-0.12207 0.08984-0.04395 0.19824-0.04395 0.19726 0 0.29297 0.0957 0.0957 0.0957 0.0957 0.29785v0.69824z"/>
			<path id="jl" d="m20.582 23.32-0.03418-0.15234h-0.0078q-0.08008 0.10058-0.16016 0.13672-0.0791 0.03516-0.2002 0.03516-0.1582 0-0.24805-0.08301-0.08984-0.08301-0.08984-0.23438 0-0.32617 0.51465-0.3418l0.18164-0.0068v-0.06348q0-0.12207-0.05273-0.17969-0.05273-0.05859-0.16895-0.05859-0.08496 0-0.16113 0.02539-0.0752 0.02539-0.1416 0.05664l-0.05371-0.13184q0.08105-0.04297 0.17676-0.06738 0.0957-0.02441 0.18945-0.02441 0.19434 0 0.28906 0.08594 0.09473 0.08594 0.09473 0.27344v0.73047zm-0.3623-0.12207q0.14746 0 0.23144-0.0791 0.08496-0.08008 0.08496-0.22656v-0.09668l-0.1582 0.0068q-0.18457 0.0068-0.26953 0.05859-0.08398 0.05176-0.08398 0.16309 0 0.08398 0.05078 0.12891 0.05176 0.04492 0.14453 0.04492z"/>
			<path id="jr" d="m21.399 23.196q0.03418 0 0.08008-0.0068t0.06934-0.01563v0.13477q-0.02441 0.01074-0.07617 0.02051-0.05078 0.01074-0.10352 0.01074-0.31445 0-0.31445-0.33106v-0.62406h-0.15138v-0.08398l0.15332-0.07031 0.07031-0.22852h0.10449v0.24609h0.30957v0.13672h-0.30957v0.61914q0 0.09277 0.04395 0.14258 0.04492 0.0498 0.12402 0.0498z"/>
			<path id="jp" d="m21.939 23.32h-0.17578v-1.0723h0.17578zm-0.18945-1.3623q0-0.05859 0.0293-0.08496 0.03027-0.02637 0.07422-0.02637 0.04102 0 0.07129 0.02637 0.03125 0.02637 0.03125 0.08496 0 0.05762-0.03125 0.08496-0.03027 0.02734-0.07129 0.02734-0.04395 0-0.07422-0.02734-0.0293-0.02734-0.0293-0.08496z"/>
			<path id="jh" d="m22.978 23.024q0 0.15039-0.1123 0.2334-0.1123 0.08203-0.31543 0.08203-0.21191 0-0.33691-0.06738v-0.16016q0.17676 0.08594 0.34082 0.08594 0.13281 0 0.19336-0.04297t0.06055-0.11523q0-0.06348-0.05859-0.10742-0.05762-0.04395-0.20605-0.10059-0.15137-0.05859-0.21289-0.09961-0.06152-0.04199-0.09082-0.09375-0.02832-0.05176-0.02832-0.12598 0-0.13184 0.10742-0.20801t0.29492-0.07617q0.18262 0 0.3418 0.07227l-0.05957 0.13965q-0.16309-0.06836-0.29395-0.06836-0.10938 0-0.16602 0.03516-0.05664 0.03418-0.05664 0.09473 0 0.05859 0.04883 0.09766 0.04883 0.03809 0.22754 0.10644 0.13379 0.0498 0.19727 0.09277 0.06445 0.04297 0.09473 0.09668 0.03027 0.05371 0.03027 0.12891z"/>
		</g>
	</g>
</svg>
