<?xml version="1.0" encoding="UTF-8"?>
<svg id="g" width="22" height="22" version="1.1" xmlns="http://www.w3.org/2000/svg" xmlns:cc="http://creativecommons.org/ns#" xmlns:dc="http://purl.org/dc/elements/1.1/" xmlns:rdf="http://www.w3.org/1999/02/22-rdf-syntax-ns#">
	<metadata id="a">
		<rdf:RDF>
			<cc:Work rdf:about="">
				<dc:format>image/svg+xml</dc:format>
				<dc:type rdf:resource="http://purl.org/dc/dcmitype/StillImage"/>
			</cc:Work>
		</rdf:RDF>
	</metadata>
	<defs>
		<style id="current-color-scheme" type="text/css">.ColorScheme-Text {color:#090d11;}.ColorScheme-Background{color:#ffffff;}</style>
	</defs>
	<path id="h" class="ColorScheme-Background" d="m11.012 3.8438c-0.34332 0-0.68759 0.085458-0.99414 0.25781l-4.168 2.4141c-0.22071 0.12311-0.39281 0.2952-0.56445 0.49219l4.5605 2.6602c0.37701 0.24089 0.67018 0.48066 0.89648 0.73828l0.25586 0.15234 0.25195-0.14844c0.22704-0.26653 0.5212-0.51604 0.90234-0.74219l4.5859-2.6602c-0.14714-0.19697-0.34483-0.36906-0.54102-0.49219l-4.1934-2.4141c-0.30654-0.17235-0.64887-0.25781-0.99219-0.25781zm6.0801 4.5078-4.9707 2.9375c-0.24356 0.22263-0.41003 0.44314-0.52148 0.66797v5.4141c0.13974-0.03857 0.274-0.08693 0.40625-0.16992l4.1914-2.4121c0.61306-0.34471 0.98242-1.0106 0.98242-1.7246v-4.1777c0-0.18548-0.02391-0.37024-0.08789-0.53516zm-12.16 0.013672c-0.041145 0.1613-0.0625 0.33827-0.0625 0.49609v4.2031c0 0.71403 0.36738 1.3799 0.98047 1.7246l4.168 2.4121c0.12476 0.06264 0.25175 0.11345 0.38281 0.15625v-5.4062c-0.10733-0.21305-0.26125-0.42457-0.48242-0.63867l-2e-3 -2e-3z" style="fill-opacity:.3;fill:currentColor"/>
	<path class="ColorScheme-Text" d="m11.012 3.8438c-0.34332 0-0.68759 0.085458-0.99414 0.25781l-4.168 2.4141c-0.22071 0.12311-0.39281 0.2952-0.56445 0.49219l4.5605 2.6602c0.37701 0.24089 0.67018 0.48066 0.89648 0.73828l0.25586 0.15234 0.25195-0.14844c0.22704-0.26653 0.5212-0.51604 0.90234-0.74219l4.5859-2.6602c-0.14714-0.19697-0.34483-0.36906-0.54102-0.49219l-4.1934-2.4141c-0.30654-0.17235-0.64887-0.25781-0.99219-0.25781zm6.0801 4.5078-4.9707 2.9375c-0.24356 0.22263-0.41003 0.44314-0.52148 0.66797v5.4141c0.13974-0.03857 0.274-0.08693 0.40625-0.16992l4.1914-2.4121c0.61306-0.34471 0.98242-1.0106 0.98242-1.7246v-4.1777c0-0.18548-0.02391-0.37024-0.08789-0.53516zm-12.16 0.013672c-0.041145 0.1613-0.0625 0.33827-0.0625 0.49609v4.2031c0 0.71403 0.36738 1.3799 0.98047 1.7246l4.168 2.4121c0.12476 0.06264 0.25175 0.11345 0.38281 0.15625v-5.4062c-0.10733-0.21305-0.26125-0.42457-0.48242-0.63867l-2e-3 -2e-3z" style="fill-opacity:.3;fill:currentColor"/>
	<path id="f" class="ColorScheme-Text" d="m11 1.9238c-0.42302 0-0.84644 0.11044-1.2266 0.33203l-5.3945 3.1504c-0.29428 0.17235-0.54011 0.39519-0.73633 0.66602l1.668 0.96094c0.12262-0.19697 0.31835-0.36906 0.53906-0.49219l4.1699-2.4141c0.61306-0.34471 1.3733-0.34471 1.9863 0l4.1934 2.4141c0.22071 0.12311 0.39192 0.29519 0.53906 0.49219l1.668-0.96094c-0.19618-0.27084-0.44204-0.49289-0.73633-0.64062l-5.4434-3.1758c-0.38011-0.2216-0.80356-0.33203-1.2266-0.33203zm7.7578 5.4434-1.6621 0.98242c0.04371 0.15929 0.08398 0.33447 0.08398 0.51172v4.2031c0 0.71403-0.39386 1.3799-0.98242 1.7246l-4.1914 2.4121c-0.13154 0.06603-0.26733 0.11617-0.40625 0.16016v1.9375c0.22258-0.05549 0.4398-0.13724 0.62695-0.25l5.4434-3.127c0.7602-0.4432 1.2266-1.2562 1.2266-2.1426v-5.6328c0-0.25985-0.04837-0.51944-0.13867-0.7793zm-15.49 0.015625c-0.092401 0.26149-0.13867 0.50083-0.13867 0.76367v5.6562c0 0.8864 0.46441 1.7006 1.2246 2.1191l5.4199 3.127c0.18767 0.11305 0.40375 0.19452 0.62695 0.25v-1.9219c-0.12707-0.03851-0.25377-0.09603-0.38086-0.17578l-4.1699-2.4121c-0.61306-0.3447-0.98047-1.0106-0.98047-1.7246v-4.2031c0-0.17937 0.023774-0.33705 0.064453-0.49414z" style="fill-opacity:.75;fill:currentColor"/>
	<path class="ColorScheme-Background" d="m11 0.9238c-0.59707 0-1.1961 0.15723-1.7305 0.46875l-5.3945 3.1504h-0.00195c-0.40907 0.23958-0.76488 0.56223-1.041 0.94336-0.19185 0.32148-0.18808 0.72319 0.00977 1.041-0.23244 0.10186-0.41747 0.28828-0.51758 0.52148-0.12133 0.34334-0.19531 0.71745-0.19531 1.0977v5.6562c0 1.2338 0.65188 2.3916 1.7383 2.9922l5.3906 3.1113c0.0024 0.0015 0.0054 4.48e-4 0.0078 2e-3 0.29414 0.176 0.59608 0.28762 0.89258 0.36133 0.29334 0.0701 0.60265 0.0041 0.8418-0.17969 0.23915 0.18376 0.54846 0.24978 0.8418 0.17969 0.29755-0.07418 0.60186-0.18487 0.89844-0.36328h2e-3l5.4258-3.1172c2e-3 -0.0013 0.0039-0.0026 0.0059-0.0039 1.0661-0.62157 1.7227-1.7687 1.7227-3.0059v-5.6329c0-0.38394-0.07161-0.75709-0.19336-1.1074-0.09578-0.19853-0.25439-0.35988-0.45125-0.45898 0.20648-0.33923 0.19268-0.76848-0.03516-1.0938-0.27678-0.382-0.64389-0.72142-1.0977-0.94922l-5.3887-3.1445c-0.53439-0.31154-1.1334-0.46875-1.7305-0.46875zm0 1c0.423 0 0.84646 0.11044 1.2266 0.33203l5.4434 3.1758c0.29428 0.14773 0.54015 0.36979 0.73633 0.64062l-1.668 0.96094c-0.0045-0.00598-0.0092-0.011648-0.01367-0.017578l-4.5723 2.6523c-0.38114 0.22615-0.6753 0.47566-0.90235 0.74219l-0.25195 0.14844-0.25586-0.15234c-0.22631-0.25762-0.51948-0.49739-0.89648-0.73828l-4.5293-2.6426c-0.00172 0.0027-0.00417 0.0051-0.00586 0.00781l-1.668-0.96094c0.19622-0.27082 0.44205-0.49366 0.73633-0.66602l5.3945-3.1504c0.38012-0.22159 0.80354-0.33203 1.2266-0.33203zm7.7578 5.4434c0.0903 0.25986 0.13867 0.51945 0.13867 0.7793v5.6328c0 0.8864-0.46636 1.6994-1.2266 2.1426l-5.4434 3.127c-0.18715 0.11276-0.40437 0.19451-0.62695 0.25v-7.3418c0.11146-0.22482 0.27792-0.44533 0.52148-0.66797l4.9707-2.9375c0.0061 0.015843 0.01023 0.032636 0.01563 0.048828-0.0043-0.016477-0.0073-0.034616-0.01172-0.050781zm-15.49 0.015625 1.6641 0.98242 0.00195 0.00195 4.9824 2.9434 2e-3 2e-3c0.22117 0.2141 0.37509 0.42562 0.48242 0.63867v5.4062c-0.12694-0.04145-0.25012-0.09044-0.37109-0.15039 0.12374 0.07653 0.24734 0.13242 0.37109 0.16992v1.9219c-0.2232-0.05548-0.43929-0.13695-0.62695-0.25l-5.42-3.127c-0.7602-0.41856-1.2246-1.2327-1.2246-2.1191v-5.6562c0-0.26284 0.046271-0.50218 0.13867-0.76367z" style="fill-opacity:.5;fill:currentColor"/>
</svg>
