<?xml version="1.0" encoding="UTF-8"?>
<svg width="22" height="22" version="1.1" xmlns="http://www.w3.org/2000/svg" xmlns:cc="http://creativecommons.org/ns#" xmlns:dc="http://purl.org/dc/elements/1.1/" xmlns:rdf="http://www.w3.org/1999/02/22-rdf-syntax-ns#">
	<defs id="e">
		<style id="current-color-scheme" type="text/css">.ColorScheme-Text {color:#090d11;}.ColorScheme-Background{color:#ffffff;}</style>
	</defs>
	<metadata>
		<rdf:RDF>
			<cc:Work rdf:about="">
				<dc:format>image/svg+xml</dc:format>
				<dc:type rdf:resource="http://purl.org/dc/dcmitype/StillImage"/>
			</cc:Work>
		</rdf:RDF>
	</metadata>
	<path class="ColorScheme-Text" d="m6.9766 2c-0.54069 0-0.97656 0.446-0.97656 1v2h3v-2c0-0.554-0.43587-1-0.97656-1zm6.9746 0c-0.52738 0-0.95117 0.446-0.95117 1v9h3v-9c0-0.554-0.42379-1-0.95117-1zm-10.951 4c-0.554 0-1 0.41074-1 0.92188v1.1562c0 0.51113 0.446 0.92188 1 0.92188h9v-3zm14 0v3h2c0.554 0 1-0.41074 1-0.92188v-1.1562c0-0.51113-0.446-0.92188-1-0.92188zm-11 4v9c0 0.554 0.43587 1 0.97656 1h1.0469c0.54069 0 0.97656-0.446 0.97656-1v-9zm-3 3c-0.554 0-1 0.414-1 0.92773v1.1445c0 0.51374 0.446 0.92773 1 0.92773h2v-3zm7 0v3h9c0.554 0 1-0.414 1-0.92773v-1.1445c0-0.51374-0.446-0.92773-1-0.92773zm3 4v2c0 0.554 0.42379 1 0.95117 1h1.0977c0.52738 0 0.95117-0.446 0.95117-1v-2z" style="fill-opacity:.75;fill:currentColor"/>
	<path id="b" class="ColorScheme-Background" d="m6.9766 1c-1.0906 0-1.9766 0.92149-1.9766 2v2h-2c-1.0483 0-2 0.82903-2 1.9219v1.1562c0 1.0928 0.95172 1.9219 2 1.9219h2v2h-2c-1.0522 0-2 0.83523-2 1.9277v1.1445c0 1.0925 0.94781 1.9277 2 1.9277h2v2c0 1.0785 0.88596 2 1.9766 2h1.0469c1.0906 0 1.9766-0.92149 1.9766-2v-2h2v2c0 1.064 0.86 2 1.9512 2h1.0977c1.0912 0 1.9512-0.93602 1.9512-2v-2h2c1.0522 0 2-0.83523 2-1.9277v-1.1445c0-1.0925-0.94781-1.9277-2-1.9277h-2v-2h2c1.0483 0 2-0.82903 2-1.9219v-1.1562c0-1.0928-0.95172-1.9219-2-1.9219h-2v-2c0-1.064-0.86-2-1.9512-2h-1.0977c-1.0912 0-1.9512 0.93603-1.9512 2v2h-2v-2c0-1.0785-0.88596-2-1.9766-2zm0 1h1.0469c0.54069 0 0.97656 0.446 0.97656 1v2h-3v-2c0-0.554 0.43587-1 0.97656-1zm6.9746 0h1.0977c0.52738 0 0.95117 0.446 0.95117 1v9h-3v-9c0-0.554 0.42379-1 0.95117-1zm-10.951 4h9v3h-9c-0.554 0-1-0.41074-1-0.92188v-1.1562c0-0.51113 0.446-0.92188 1-0.92188zm14 0h2c0.554 0 1 0.41074 1 0.92188v1.1562c0 0.51113-0.446 0.92188-1 0.92188h-2zm-11 4h3v9c0 0.554-0.43587 1-0.97656 1h-1.0469c-0.54069 0-0.97656-0.446-0.97656-1zm4 0h2v2h-2zm-7 3h2v3h-2c-0.554 0-1-0.414-1-0.92773v-1.1445c0-0.51374 0.446-0.92773 1-0.92773zm7 0h9c0.554 0 1 0.414 1 0.92773v1.1445c0 0.51374-0.446 0.92773-1 0.92773h-9zm3 4h3v2c0 0.554-0.42379 1-0.95117 1h-1.0977c-0.52738 0-0.95117-0.446-0.95117-1z" style="fill-opacity:.5;fill:currentColor"/>
</svg>
