<?xml version="1.0" encoding="UTF-8"?>
<svg id="d" width="22" height="22" version="1.1" xmlns="http://www.w3.org/2000/svg" xmlns:cc="http://creativecommons.org/ns#" xmlns:dc="http://purl.org/dc/elements/1.1/" xmlns:rdf="http://www.w3.org/1999/02/22-rdf-syntax-ns#">
	<metadata id="f">
		<rdf:RDF>
			<cc:Work rdf:about="">
				<dc:format>image/svg+xml</dc:format>
				<dc:type rdf:resource="http://purl.org/dc/dcmitype/StillImage"/>
				<dc:title/>
			</cc:Work>
		</rdf:RDF>
	</metadata>
	<defs id="a">
		<style id="current-color-scheme" type="text/css">.ColorScheme-Text {color:#090d11;}.ColorScheme-Background{color:#ffffff;}</style>
	</defs>
	<path id="c" class="ColorScheme-Text" d="m5.8402 3.2421c-1.2286 0.99309-2.1826 2.2756-2.75 3.7499-1.7811 4.6279 0.55969 9.875 5.1876 11.656 4.6279 1.7811 9.875-0.55969 11.656-5.1876l-2.0313-0.78124-6.4061-2.4375 4.2861 4.4664c-0.41382 0.33431-1.492 0.97672-1.9751 1.1913l-2.3109-5.6578-0.30932 6.0631c-0.51079-0.05513-1.5976-0.33967-2.0994-0.53282l2.4088-5.5302-4.7192 3.6864c-0.33235-0.41238-0.66199-0.98905-0.87564-1.47l5.5947-2.2165-6-0.65626c0.055125-0.51079 0.2134-1.4081 0.40658-1.9101l5.5933 2.5663-3.7813-4.7188-0.50001-0.59376z" style="fill-opacity:.75;fill:currentColor;stroke-width:.03606"/>
	<path id="e" class="ColorScheme-Background" d="m5.732 1.6856c-7.212e-4 0.010199-7.212e-4 0.020448 0 0.030648-0.010201-7.108e-4 -0.02045-7.108e-4 -0.030647 0l-0.89656 0.23276c-1.4441 1.1673-2.5612 2.7027-3.234 4.4509-2.1018 5.4609 0.65723 11.668 6.1158 13.769 5.4609 2.1018 11.668-0.65723 13.769-6.1158l-0.24619-1.0887c7.21e-4 -0.0102 7.21e-4 -0.02045 0-0.03065 7.21e-4 -0.0102 7.21e-4 -0.02045 0-0.03065 7.21e-4 -0.0102 7.21e-4 -0.02045 0-0.03065 7.21e-4 -0.0102 7.21e-4 -0.02045 0-0.03065 7.21e-4 -0.0102 7.21e-4 -0.02045 0-0.03065-0.0069-0.02186-0.01733-0.04262-0.03065-0.06129-0.0092-0.01119-0.01946-0.02147-0.03064-0.03065-0.0092-0.01119-0.01946-0.02147-0.03065-0.03065-0.0092-0.01119-0.01946-0.02147-0.03065-0.03065l-1.0727-0.39843-7.9683-3.0648h-0.03065l-3.4019-4.2601c7.212e-4 -0.010199 7.212e-4 -0.020448 0-0.030648-0.010198-7.107e-4 -0.020446-7.107e-4 -0.030644 0 7.212e-4 -0.010199 7.212e-4 -0.020448 0-0.030648 7.212e-4 -0.010199 7.212e-4 -0.020448 0-0.030648l-0.45973-0.55165-1.3485-1.655-0.73555-0.88877c-0.040708-0.039017-0.09685-0.061475-0.15324-0.061295-0.010201-7.107e-4 -0.02045-7.107e-4 -0.030647 0-0.020298-0.00285-0.040997-0.00285-0.061295 0-0.010198-7.107e-4 -0.02045-7.107e-4 -0.030647 0-0.010201-7.111e-4 -0.02045-7.111e-4 -0.030651 0zm-0.18994 1.1878 1.4474 1.7764 0.52633 0.62503 3.9803 4.9673 6.7436 2.5659 2.1382 0.82242c-1.8749 4.8717-7.3988 7.3357-12.27 5.4609-4.8717-1.8749-7.3357-7.3988-5.4609-12.27 0.59733-1.552 1.6016-2.9021 2.8949-3.9475zm5.9535 7.3685 2.3125 5.6564c0.48306-0.21456 1.5549-0.85318 1.9687-1.1875zm0 0-2.4062 5.5312c0.50188 0.19316 1.583 0.47614 2.0938 0.53124zm0 0-5.5936 2.2187c0.21363 0.48093 0.54263 1.0563 0.875 1.4688zm0 0-5.5936-2.5625c-0.19316 0.50188-0.35112 1.3954-0.40625 1.9062z" style="fill-opacity:.5;fill:currentColor;stroke-width:.03606"/>
</svg>
