<?xml version="1.0" encoding="UTF-8"?>
<svg id="a" width="22" height="22" version="1.1" xmlns="http://www.w3.org/2000/svg" xmlns:cc="http://creativecommons.org/ns#" xmlns:dc="http://purl.org/dc/elements/1.1/" xmlns:rdf="http://www.w3.org/1999/02/22-rdf-syntax-ns#">
	<metadata id="b">
		<rdf:RDF>
			<cc:Work rdf:about="">
				<dc:format>image/svg+xml</dc:format>
				<dc:type rdf:resource="http://purl.org/dc/dcmitype/StillImage"/>
			</cc:Work>
		</rdf:RDF>
	</metadata>
	<defs>
		<style id="current-color-scheme" type="text/css">.ColorScheme-Text {color:#090d11;}.ColorScheme-Background{color:#ffffff;}</style>
	</defs>
	<path id="d" class="ColorScheme-Text" d="m2.5 2c-0.034625 0-0.068955 0.00313-0.10156 0.00977-0.032607 0.00664-0.06382 0.01668-0.09375 0.029297s-0.057393 0.028939-0.083984 0.046875c-0.026592 0.017936-0.051625 0.037953-0.074219 0.060547s-0.042611 0.047627-0.060547 0.074219-0.034258 0.054055-0.046875 0.083984c-0.012617 0.02993-0.022658 0.061143-0.029297 0.09375-0.00664 0.032594-0.00977 0.066938-0.00977 0.10156v17c0 0.03462 0.00313 0.06895 0.00977 0.10156s0.01668 0.06382 0.029297 0.09375 0.028939 0.05739 0.046875 0.08398 0.037953 0.05163 0.060547 0.07422 0.047627 0.04261 0.074219 0.06055 0.054055 0.03423 0.083984 0.04688c0.02993 0.01262 0.061143 0.02266 0.09375 0.0293 0.032594 0.0066 0.066938 0.0098 0.10156 0.0098h3c0.277 0 0.5-0.223 0.5-0.5s-0.223-0.5-0.5-0.5h-2.5v-16h2.5c0.277 0 0.5-0.223 0.5-0.5s-0.223-0.5-0.5-0.5h-3zm8.5 0c-1.662 0-3 1.338-3 3v7c0 1.662 1.338 3 3 3s3-1.338 3-3v-7c0-1.662-1.338-3-3-3zm5.5 0c-0.277 0-0.5 0.223-0.5 0.5s0.223 0.5 0.5 0.5h2.5v16h-2.5c-0.277 0-0.5 0.223-0.5 0.5s0.223 0.5 0.5 0.5h3c0.03462 0 0.06899-0.0031 0.10156-0.0098 0.03261-0.0066 0.06382-0.01668 0.09375-0.0293s0.05739-0.02892 0.08399-0.04688c0.02659-0.01794 0.05163-0.03796 0.07422-0.06055 0.0226-0.02259 0.04261-0.04763 0.06055-0.07422 0.01793-0.02659 0.03425-0.05405 0.04688-0.08398 0.01262-0.02993 0.0227-0.06114 0.0293-0.09375 0.0067-0.03253 0.0098-0.06694 0.0098-0.10156v-17c0-0.034625-0.0031-0.06896-0.0098-0.10156-0.0066-0.032607-0.01668-0.06382-0.0293-0.09375-0.012624-0.029887-0.02896-0.05735-0.04689-0.083942-0.017939-0.026592-0.037956-0.051625-0.060546-0.074219-0.0226-0.022594-0.047629-0.042611-0.074219-0.060547s-0.054055-0.034258-0.083985-0.046875-0.06114-0.022657-0.09375-0.029297c-0.032517-0.0066398-0.066932-0.0097656-0.10156-0.0097656h-3zm-10.025 7c-0.26491 0.01334-0.47461 0.23166-0.47461 0.5v2.5c0 2.77 2.23 5 5 5s5-2.23 5-5v-2.5c0-0.277-0.223-0.5-0.5-0.5-0.0087 0-0.01685-4.304e-4 -0.02539 0-0.26491 0.01334-0.47461 0.23166-0.47461 0.5v2.5c0 2.216-1.784 4-4 4s-4-1.784-4-4v-2.5c0-0.277-0.223-0.5-0.5-0.5-0.00866 0-0.016845-4.304e-4 -0.025391 0zm3.5254 9v1h-1.5c-0.277 0-0.5 0.1965-0.5 0.44141v0.11719c0 0.2449 0.223 0.44141 0.5 0.44141h5c0.277 0 0.5-0.1965 0.5-0.44141v-0.11719c0-0.2449-0.223-0.44141-0.5-0.44141h-1.5v-1z" style="fill-opacity:.75;fill:currentColor"/>
	<path id="c" class="ColorScheme-Background" d="m1.5 1c-0.034625 0-0.068955 0.00313-0.10156 0.00977-0.032607 0.00664-0.06382 0.01668-0.09375 0.029297s-0.057393 0.028939-0.083984 0.046875c-0.026592 0.017936-0.051625 0.037953-0.074219 0.060547s-0.042611 0.047627-0.060547 0.074219-0.034258 0.054055-0.046875 0.083984c-0.012617 0.02993-0.022658 0.061143-0.029297 0.09375-0.00664 0.032594-0.00977 0.066938-0.00977 0.10156v19c0 0.03462 0.00313 0.06895 0.00977 0.10156s0.01668 0.06382 0.029297 0.09375 0.028939 0.05739 0.046875 0.08398 0.037953 0.05163 0.060547 0.07422 0.047627 0.04261 0.074219 0.06055 0.054055 0.03424 0.083984 0.04688c0.02993 0.01262 0.061143 0.02266 0.09375 0.0293 0.032594 0.0066 0.066938 0.0098 0.10156 0.0098h4c0.277 0 0.5-0.223 0.5-0.5s-0.223-0.5-0.5-0.5h-3.5v-18h3.5c0.277 0 0.5-0.223 0.5-0.5s-0.223-0.5-0.5-0.5h-4zm9.5 0c-2.1987 0-4 1.8013-4 4v7c0 2.216 1.784 4 4 4s4-1.784 4-4v-7c0-2.1987-1.8013-4-4-4zm5.5 0c-0.277 0-0.5 0.223-0.5 0.5s0.22838 0.44568 0.5 0.5h3.5v18h-3.5c-0.277 0-0.5 0.223-0.5 0.5s0.223 0.5 0.5 0.5h4c0.03462 0 0.06899-0.0031 0.10156-0.0098 0.03261-0.0066 0.06382-0.01668 0.09375-0.0293s0.05739-0.02894 0.08399-0.04688c0.02659-0.01794 0.05163-0.03796 0.07422-0.06055 0.0226-0.02259 0.04261-0.04763 0.06055-0.07422 0.01793-0.02659 0.03425-0.05405 0.04688-0.08398 0.01262-0.02993 0.0227-0.06114 0.0293-0.09375 0.0067-0.03253 0.0098-0.06694 0.0098-0.10156v-19c0-0.034625-0.0031-0.06896-0.0098-0.10156-0.0066-0.032607-0.01668-0.06382-0.0293-0.09375-0.012624-0.029887-0.02896-0.05735-0.04689-0.083942-0.017939-0.026592-0.037956-0.051625-0.060546-0.074219-0.0226-0.022594-0.047629-0.042611-0.074219-0.060547s-0.054055-0.034258-0.083985-0.046875-0.061139-0.022657-0.09375-0.029297c-0.032517-0.0066398-0.066932-0.0097656-0.10156-0.0097656h-4zm-5.5 1c1.662 0 3 1.338 3 3v7c0 1.662-1.338 3-3 3s-3-1.338-3-3v-7c0-1.662 1.338-3 3-3zm-5.5254 7c-0.26491 0.01334-0.47461 0.23166-0.47461 0.5v2.5c0 3.3067 2.6933 6 6 6s6-2.6933 6-6v-2.5c0-0.277-0.223-0.5-0.5-0.5-0.0087 0-0.01685-4.304e-4 -0.02539 0-0.26491 0.01334-0.47461 0.23166-0.47461 0.5v2.5c0 2.77-2.23 5-5 5s-5-2.23-5-5v-2.5c0-0.277-0.223-0.5-0.5-0.5-0.00866 0-0.016845-4.304e-4 -0.02539 0zm3.0254 11c-0.277 0-0.5 0.1965-0.5 0.44141v0.11719c0 0.2449 0.223 0.44141 0.5 0.44141h5c0.277 0 0.5-0.1965 0.5-0.44141v-0.11719c0-0.2449-0.223-0.44141-0.5-0.44141h-4.5z" style="fill-opacity:.5;fill:currentColor"/>
</svg>
