<?xml version="1.0" encoding="UTF-8"?>
<svg id="d" width="22" height="22" version="1.1" xmlns="http://www.w3.org/2000/svg" xmlns:cc="http://creativecommons.org/ns#" xmlns:dc="http://purl.org/dc/elements/1.1/" xmlns:rdf="http://www.w3.org/1999/02/22-rdf-syntax-ns#">
	<metadata id="a">
		<rdf:RDF>
			<cc:Work rdf:about="">
				<dc:format>image/svg+xml</dc:format>
				<dc:type rdf:resource="http://purl.org/dc/dcmitype/StillImage"/>
				<dc:title/>
			</cc:Work>
		</rdf:RDF>
	</metadata>
	<defs id="f">
		<style id="current-color-scheme" type="text/css">.ColorScheme-Text {color:#090d11;}.ColorScheme-Background{color:#ffffff;}</style>
	</defs>
	<path id="b" class="ColorScheme-Text" d="m11 3c-1.2514 0-5.7143 6.4986-5.7143 10.286s2.9271 5.7143 5.7143 5.7143c2.7871 0 5.7143-1.9272 5.7143-5.7143s-4.4629-10.286-5.7143-10.286zm-1.2857 4.7143c0.1143 8e-4 0.2449 0.034 0.3571 0.071 0.898 0.2943 1.3637 1.6646 1.0357 3.0715-0.3279 1.4068-1.352 2.2943-2.25 2-0.8979-0.2943-1.3636-1.6646-1.0357-3.0715 0.2871-1.2309 1.0967-2.0766 1.8929-2.0714z" style="fill-opacity:.75;fill:currentColor"/>
	<path id="e" class="ColorScheme-Background" d="m10.156 2c-0.19035 0.097816-0.34344 0.2239-0.5 0.34375-0.3356 0.2569-0.669 0.5652-1 0.9375-0.6621 0.7445-1.3632 1.7106-2.0312 2.8125-1.3363 2.2038-2.5624 4.8226-2.5625 7.1875 0 2.2027 0.89525 4.0172 2.2188 5.1875 0.89336 0.78995 1.9748 1.2854 3.0938 1.5312h3.25c1.1097-0.24587 2.1692-0.7413 3.0625-1.5312 1.3235-1.1703 2.2188-2.9848 2.2188-5.1875 0-2.3649-1.2262-4.9837-2.5625-7.1875-0.6681-1.1019-1.3692-2.068-2.0312-2.8125-0.331-0.3723-0.6644-0.6806-1-0.9375-0.15652-0.11985-0.31689-0.24593-0.5-0.34375zm0.84375 1c1.2514 0 5.7188 6.4942 5.7188 10.281s-2.9316 5.7188-5.7188 5.7188-5.7188-1.9316-5.7188-5.7188 4.4674-10.281 5.7188-10.281zm-1.2812 4.7188c-0.7962-0.0052-1.6192 0.8316-1.9062 2.0625-0.3279 1.4069 0.13335 2.7682 1.0312 3.0625 0.898 0.2943 1.9221-0.5932 2.25-2 0.328-1.4069-0.13325-2.7682-1.0312-3.0625-0.1122-0.037-0.22945-0.0617-0.34375-0.0625z" style="fill-opacity:.5;fill:currentColor"/>
</svg>
