<?xml version="1.0" encoding="UTF-8"?>
<!-- Created with Inkscape (http://www.inkscape.org/) -->
<svg width="22" height="22" version="1.1" xmlns="http://www.w3.org/2000/svg" xmlns:cc="http://creativecommons.org/ns#" xmlns:dc="http://purl.org/dc/elements/1.1/" xmlns:rdf="http://www.w3.org/1999/02/22-rdf-syntax-ns#">
	<metadata>
		<rdf:RDF>
			<cc:Work rdf:about="">
				<dc:format>image/svg+xml</dc:format>
				<dc:type rdf:resource="http://purl.org/dc/dcmitype/StillImage"/>
				<dc:title/>
			</cc:Work>
		</rdf:RDF>
	</metadata>
	<g transform="matrix(.96872 0 0 .96872 9075 -1489.6)" clip-rule="evenodd" fill-rule="evenodd" stroke-width="1.0323">
		<path d="m-9359.2 1539.6c-2.0004 0.2285-2.3723 0.5074-4.1229 1.993-0.5868 0.4979-1.6525 1.7094-1.8715 3.1466-0.083 0.5473 0.069 1.0198 0.4506 1.3513 1.2223 1.0612 3.2242 1.9222 4.8727 2.7544 0.4827 0.2438 0.192 0.6859-0.5336 1.3946-1.8311 1.7885-4.3186 3.9655-4.4198 5.6244-0.047 0.7816 0.2516 1.8438 1.1582 2.3874 1.059 0.635 3.1742 0.2206 4.5723-0.3515 2.0432-0.836 4.6911-2.6811 6.7768-4.4948 2.1688-1.8859 4.1544-4.2814 4.2397-4.6718 0.1044-0.4798 0.071-0.9231-0.2002-1.4325-0.4252-0.8-0.9708-1.3945-1.5578-2.06-1.5707-1.6922-3.218-3.179-5.1582-4.3184-1.401-0.8229-2.6317-1.5023-4.2062-1.3226zm3.1367 3.7938c1.4893 0.7569 3.077 2.7454 0.1738 3.89-0.7896 0.3112-3.3923-0.7644-3.3847-2.2321 0.01-2.1683 1.3922-2.5823 3.2109-1.6579z" fill="#27303a" fill-opacity=".75328" stroke-miterlimit="1.4142"/>
		<path transform="translate(-9368.7,1536.6)" d="m9.502 2.0293a1.0001 1.0001 0 0 0-0.099609 0.00977c-2.0777 0.2373-2.8995 0.73381-4.6562 2.2246-0.7416 0.6292-1.9338 1.9277-2.2129 3.7598-0.123 0.8106 0.1457 1.7021 0.7832 2.2559 1.2429 1.0792 2.9216 1.8409 4.4023 2.5586-0.058 0.063-0.036022 0.05099-0.10742 0.12109-0.8987 0.8778-1.9935 1.879-2.9082 2.9121s-1.7312 2.0652-1.8105 3.3652c-0.066 1.0891 0.32628 2.5155 1.6426 3.3047 0.8636 0.5179 1.837 0.52091 2.7871 0.41211 0.9502-0.1088 1.8934-0.37441 2.6777-0.69531 2.2402-0.9166 4.9061-2.7977 7.0547-4.666 1.1285-0.9814 2.189-2.0763 2.9941-2.9902 0.4025-0.457 0.74139-0.86793 0.99609-1.207 0.1273-0.1695 0.23217-0.31899 0.32227-0.46289 0.09-0.1439 0.17385-0.21294 0.24805-0.55274 0.141-0.6481 0.07298-1.4216-0.29492-2.1133-0.4952-0.9318-1.1123-1.5955-1.6914-2.252a1.0001 1.0001 0 0 0-0.01563-0.019531c-1.6092-1.7337-3.3302-3.2934-5.3848-4.5-1.2862-0.7555-2.6803-1.4247-4.3555-1.3926a1.0001 1.0001 0 0 0-0.37305-0.068359l0.00195-0.00391zm0.58984 0.9707c1.3095 0.020907 2.405 0.63152 3.6309 1.3516 1.9402 1.1394 3.5875 2.6262 5.1582 4.3184 0.587 0.6655 1.1334 1.2605 1.5586 2.0605 0.2712 0.5094 0.30362 0.95184 0.19922 1.4316-0.0853 0.3904-2.0714 2.786-4.2402 4.6719-2.0857 1.8137-4.7322 3.6581-6.7754 4.4941-1.3981 0.5721-3.5133 0.98656-4.5723 0.35156-0.9066-0.5436-1.2052-1.6051-1.1582-2.3867 0.1012-1.6589 2.5888-3.8365 4.4199-5.625 0.7256-0.7087 1.0159-1.1507 0.5332-1.3945-1.6485-0.8322-3.6507-1.6927-4.873-2.7539-0.3816-0.3315-0.53417-0.80426-0.45117-1.3516 0.219-1.4372 1.2862-2.6486 1.873-3.1465 1.7506-1.4856 2.1207-1.7637 4.1211-1.9922h0.00195c0.19681-0.022462 0.38715-0.032284 0.57422-0.029297zm0.74805 3.3691c-0.84984 0.086179-1.3902 0.75614-1.3965 2.1113-0.0076 1.4677 2.5932 2.5436 3.3828 2.2324 2.9032-1.1446 1.3155-3.1337-0.17383-3.8906-0.68201-0.34665-1.3026-0.50483-1.8125-0.45312zm0.11523 1c0.2405-0.012862 0.67279 0.054253 1.2461 0.3457 0.5573 0.2832 1.143 0.90991 1.2285 1.1953 0.043 0.1427 0.04675 0.15113-0.03125 0.26953-0.07507 0.11404-0.32186 0.34616-0.87891 0.57617 0.0032-0.011695-0.14768 0.010975-0.33398-0.03125-0.2483-0.056-0.57383-0.17689-0.86524-0.33789-0.5827-0.3219-0.87775-0.76084-0.87695-0.90234 0-0.872 0.19339-1.0168 0.33789-1.082v0.00195c0.0361-0.01625 0.09366-0.030869 0.17383-0.035156z" color="#000000" color-rendering="auto" dominant-baseline="auto" fill="#f1f3f5" fill-opacity=".90289" image-rendering="auto" shape-rendering="auto" solid-color="#000000" style="font-feature-settings:normal;font-variant-alternates:normal;font-variant-caps:normal;font-variant-ligatures:normal;font-variant-numeric:normal;font-variant-position:normal;isolation:auto;mix-blend-mode:normal;shape-padding:0;text-decoration-color:#000000;text-decoration-line:none;text-decoration-style:solid;text-indent:0;text-orientation:mixed;text-transform:none;white-space:normal"/>
	</g>
</svg>
