<?xml version="1.0" encoding="UTF-8"?>
<svg id="a" width="22" height="22" version="1.1" xmlns="http://www.w3.org/2000/svg" xmlns:cc="http://creativecommons.org/ns#" xmlns:dc="http://purl.org/dc/elements/1.1/" xmlns:rdf="http://www.w3.org/1999/02/22-rdf-syntax-ns#">
	<metadata id="c">
		<rdf:RDF>
			<cc:Work rdf:about="">
				<dc:format>image/svg+xml</dc:format>
				<dc:type rdf:resource="http://purl.org/dc/dcmitype/StillImage"/>
				<dc:title/>
			</cc:Work>
		</rdf:RDF>
	</metadata>
	<defs id="e">
		<style id="current-color-scheme" type="text/css">.ColorScheme-Text {color:#090d11;}.ColorScheme-Background{color:#ffffff;}</style>
	</defs>
	<path id="d" class="ColorScheme-Text" d="m9.582 1.9902c-1.4591 0.065996-2.8868 0.4838-4.1621 1.2383-3.1044 1.8365-4.8131 5.3144-4.3691 8.8926 0.30226 2.4361 1.5898 4.642 3.5703 6.1191 1.3766 1.0267 3.0596 1.6476 4.7695 1.7598 0.33475 0.02196 0.668 0.01545 1 0-1.7099-0.1122-3.3929-0.73307-4.7695-1.7598-1.9805-1.4771-3.2681-3.683-3.5703-6.1191-0.444-3.5782 1.2647-7.0561 4.3691-8.8926 1.214-0.71819 2.5673-1.1218 3.9531-1.2168-0.26376-0.011035-0.52837-0.033364-0.79102-0.021484zm2 0c-1.4591 0.065996-2.8868 0.4838-4.1621 1.2383-1.8694 1.1059-3.2202 2.8117-3.9121 4.7715h16.98c-0.99244-2.8149-3.3509-5.0131-6.2734-5.7441-0.87222-0.21819-1.7573-0.30522-2.6328-0.26562zm-8.3535 7.0098c-0.074965 0.32911-0.13021 0.66172-0.16797 1h17.896c-0.03716-0.3333-0.10094-0.66724-0.17578-1zm-0.22852 1.623c-0.018985 0.45524-0.0062 0.91444 0.044922 1.377h17.896c0.03683-0.33152 0.05881-0.66351 0.05859-1h-18zm0.20508 2.377c0.47237 2.0838 1.6767 3.943 3.416 5.2402 1.3766 1.0267 3.0596 1.6476 4.7695 1.7598 2.2543 0.1479 4.4811-0.54761 6.2285-1.9453 1.6387-1.3107 2.714-3.1011 3.1582-5.0547z" style="fill-opacity:.75;fill:currentColor"/>
	<path id="b" class="ColorScheme-Background" d="m12.268 0.9863c-0.24384-0.00653-0.48748-0.00513-0.73047 0.00586-0.24634 0.011142-0.48217 0.091912-0.72656 0.12109a1.0001 1.0001 0 0 0-0.39648-0.10156c-0.23538-0.00985-0.52752-0.035337-0.87695-0.019531-1.62 0.073273-3.2094 0.53636-4.627 1.375-3.4422 2.0363-5.3439 5.909-4.8516 9.877 0.3359 2.7073 1.7684 5.1587 3.9648 6.7969 1.5348 1.1447 3.3932 1.8319 5.3008 1.957 0.35112 0.02304 0.68177 0.01293 1 0 0.03605-0.0015 0.07767 0.0017 0.11328 0a1.0001 1.0001 0 0 0 0.39844-0.10352c0.16601 0.01948 0.32135 0.09256 0.48828 0.10352 2.5016 0.16412 4.9753-0.60663 6.9199-2.1621 1.8189-1.4549 3.0155-3.4482 3.5078-5.6133a1.0001 1.0001 0 0 0-0.04297-0.58398 1.0001 1.0001 0 0 0 0.22656-0.52734c0.0401-0.36093 0.0647-0.73086 0.06445-1.1113a1.0001 1.0001 0 0 0-0.1582-0.53711 1.0001 1.0001 0 0 0 0.10938-0.57422c-0.04297-0.38544-0.11378-0.75359-0.19336-1.1074a1.0001 1.0001 0 0 0-0.30469-0.52148 1.0001 1.0001 0 0 0-0.02148-0.5918c-1.1034-3.1295-3.7171-5.568-6.9746-6.3828-0.72449-0.18124-1.4579-0.27925-2.1895-0.29883zm-2.6855 1.0039c0.26264-0.01188 0.52726 0.010449 0.79102 0.021484-1.3858 0.095003-2.7392 0.4986-3.9531 1.2168-3.1044 1.8365-4.8131 5.3144-4.3691 8.8926 0.30226 2.4361 1.5898 4.642 3.5703 6.1191 1.3766 1.0267 3.0596 1.6476 4.7695 1.7598-0.332 0.01545-0.66525 0.02196-1 0-1.7099-0.1122-3.3929-0.73307-4.7695-1.7598-1.9805-1.4771-3.2681-3.683-3.5703-6.1191-0.444-3.5782 1.2647-7.0561 4.3691-8.8926 1.2753-0.75448 2.703-1.1723 4.1621-1.2383zm2 0c0.8755-0.0396 1.7606 0.047435 2.6328 0.26562 2.9225 0.73105 5.281 2.9293 6.2734 5.7441h-16.98c0.6919-1.9598 2.0427-3.6656 3.9121-4.7715 1.2753-0.75448 2.703-1.1723 4.1621-1.2383zm-8.3535 7.0098h17.553c0.07484 0.33276 0.13862 0.6667 0.17578 1h-17.896c0.037762-0.33828 0.093004-0.67089 0.16797-1zm-0.22852 1.623v0.37695h18c2.16e-4 0.33649-0.02177 0.66848-0.05859 1h-17.896c-0.051128-0.46251-0.06391-0.92172-0.044926-1.377zm0.20508 2.377h17.572c-0.44421 1.9536-1.5195 3.744-3.1582 5.0547-1.7474 1.3977-3.9742 2.0932-6.2285 1.9453-1.7099-0.1122-3.3929-0.73307-4.7695-1.7598-1.7394-1.2973-2.9436-3.1565-3.416-5.2402z" style="fill-opacity:.5;fill:currentColor"/>
</svg>
