<?xml version="1.0" encoding="UTF-8"?>
<!-- Created with Inkscape (http://www.inkscape.org/) -->
<svg width="22" height="22" version="1.1" xmlns="http://www.w3.org/2000/svg" xmlns:cc="http://creativecommons.org/ns#" xmlns:dc="http://purl.org/dc/elements/1.1/" xmlns:rdf="http://www.w3.org/1999/02/22-rdf-syntax-ns#">
	<metadata>
		<rdf:RDF>
			<cc:Work rdf:about="">
				<dc:format>image/svg+xml</dc:format>
				<dc:type rdf:resource="http://purl.org/dc/dcmitype/StillImage"/>
				<dc:title/>
			</cc:Work>
		</rdf:RDF>
	</metadata>
	<defs>
		<style id="current-color-scheme" type="text/css">.ColorScheme-Text {
			color:#090d11;
			}
			.ColorScheme-Background{
			color:#ffffff;
			}</style>
	</defs>
	<g transform="translate(3360.4 -2090.7)">
		<path style="fill-opacity:.75;fill:currentColor" class="ColorScheme-Text" d="m-3349.4 2093.7c-1.8199 0-3.4995 0.6014-4.8438 1.625 0.035 0.1171 0.078 0.2387 0.094 0.3438 0.031 0.2359 0.021 0.2015 0.031 0.3437l0.625 0.031c1.1551-0.8407 2.5559-1.3438 4.0938-1.3438 1.1343 0 2.2087 0.2711 3.1562 0.75a1.0001 1.0001 0 0 1 0.9688-0.5625c-1.2083-0.7332-2.6084-1.1875-4.125-1.1875zm-6.75 1.0625c-0.6951 1.1743 0.091 2.4538-0.2188 3-0.6573 1.157-1.0312 2.5113-1.0312 3.9375 0 4.4199 3.5801 8 8 8s8-3.5801 8-8c0-2.2837-0.9665-4.324-2.5-5.7812l-0.4375-0.25 0.5312 1.0625-1.5625-0.8438 0.8125 1.5625-1.375-0.4375c1.124 0.9032 1.8438 2.2891 1.8438 3.8438 0 2.7226-2.1838 4.9062-4.9063 4.9062-1.1216 0-2.1406-0.4006-2.9687-1.0312l0.5312 0.2187 0.094-0.2187 1.4687-0.25 2.1875-1 0.031-0.625-2.8125 0.062-1.75-0.625-0.1875-0.625 1.3437-0.3125-0.1562-1.0938 1.75-0.9062-0.1875-0.9375-2-0.4063 0.8437-1.7812c0.1637-0.1086 0.3043-0.2212 0.4375-0.2813-0.7067 0.075-1.4628 0.081-2.8125 1.0938l-1.7812-0.031c-0.3433-0.7622 0.349-1.6713-1.1875-2.25z"  />
		<path style="fill-opacity:.5;fill:currentColor" class="ColorScheme-Background" transform="translate(-3360.4 2090.7)" d="m10.881 1.8867c-0.03816-3.761e-4 -0.07723 0.00234-0.11523 0.00586-0.05832 0.014467-0.11663 0.033012-0.17188 0.056641a0.08075 0.08075 0 0 1-0.02734 0.00586c-1.8092 0.087316-3.5107 0.64781-4.8945 1.6426a0.08075 0.08075 0 0 1-0.099609-0.0039062c-0.27747-0.23354-0.57437-0.44075-0.94336-0.58008h-0.00195c-0.24011-0.087729-0.51051-0.091793-0.75196-0.0078125-0.23637 0.082214-0.44201 0.24973-0.57617 0.46094a0.08075 0.08075 0 0 1-0.015625 0.050781c-0.024976 0.032469-0.036273 0.042093-0.025391 0.023437-0.00997 0.018638-0.020398 0.035515-0.029297 0.054687h0.00195c-0.044856 0.10174-0.074883 0.20989-0.087891 0.32031a0.08075 0.08075 0 0 1-0.00195 0.013672c-0.011794 0.038304-0.021678 0.07784-0.029297 0.11719a0.08075 0.08075 0 0 1-0.00391 0.00977c-0.24399 0.71286-0.30837 1.4325-0.24609 1.9023 0.040027 0.30274 0.11204 0.51288 0.125 0.6582a0.08075 0.08075 0 0 1-0.00977 0.046875c-0.70276 1.2925-1.1152 2.7733-1.1152 4.3359 0 5.0237 4.1145 9.1074 9.1387 9.1074 5.024 0 9.1074-4.0834 9.1074-9.1074 0-2.5988-1.1089-4.9411-2.8496-6.5957-0.06227-0.056008-0.12995-0.10574-0.20312-0.14648a0.08075 0.08075 0 0 1-2e-3 0l-0.43355-0.24805c-0.11805-0.060937-0.24702-0.10122-0.37891-0.11719a0.08075 0.08075 0 0 1-0.06641-0.056641c-0.077284-0.24968-0.24482-0.47025-0.46484-0.61133h-2e-3c-1.36-0.82484-2.9671-1.332-4.707-1.332a0.08075 0.08075 0 0 1-0.0078 0c-0.03692-0.00366-0.07423-0.00588-0.11133-0.00586zm0.11914 1.0332c1.5327 0 2.9467 0.45934 4.166 1.1992a0.08075 0.08075 0 0 1-0.04687 0.14844c-0.18175-0.012447-0.3659 0.031573-0.52344 0.12305s-0.2879 0.23052-0.36719 0.39453a0.08075 0.08075 0 0 1-0.10938 0.037109c-0.93652-0.47335-1.9977-0.74219-3.1191-0.74219-1.5203 0-2.9045 0.49668-4.0469 1.3281a0.08075 0.08075 0 0 1-0.050781 0.015625l-0.625-0.03125a0.08075 0.08075 0 0 1-0.076172-0.074219c-0.010136-0.14413-0.0010429-0.1076-0.03125-0.33789v-0.00195c-0.01439-0.092888-0.056217-0.21104-0.091797-0.33008a0.08075 0.08075 0 0 1 0.029297-0.087891c1.358-1.034 3.0549-1.6406 4.8926-1.6406zm-6.7617 1.0625a0.08075 0.08075 0 0 1 0.041016 0.00391c0.39252 0.14784 0.64865 0.3204 0.81641 0.51172s0.24287 0.39994 0.27539 0.60742c0.062367 0.39787-0.00644 0.78751 0.12695 1.1289l1.6953 0.029297c1.3463-1.0034 2.1331-1.0198 2.8301-1.0938a0.08075 0.08075 0 0 1 0.04101 0.1543c-0.11323 0.051089-0.24996 0.15545-0.4082 0.26171l-0.78906 1.668 1.8984 0.38477a0.08075 0.08075 0 0 1 0.06445 0.064453l0.1875 0.9375a0.08075 0.08075 0 0 1-0.04297 0.087891l-1.6992 0.87891 0.14844 1.0371a0.08075 0.08075 0 0 1-0.0625 0.08984l-1.2578 0.29297 0.15039 0.50391 1.6973 0.60742 2.7969-0.0625a0.08075 0.08075 0 0 1 0.08203 0.08398l-0.03125 0.625a0.08075 0.08075 0 0 1-0.04687 0.07031l-2.1875 1a0.08075 0.08075 0 0 1-0.01953 0.0059l-1.4258 0.24219-0.076172 0.17773a0.08075 0.08075 0 0 1-0.023438 0.0332c0.70514 0.41237 1.5124 0.66797 2.3867 0.66797 2.6793 0 4.8262-2.1467 4.8262-4.8262 0-1.5298-0.70877-2.8928-1.8145-3.7812a0.08075 0.08075 0 0 1 0.07617-0.13867l1.1875 0.37695-0.72266-1.3887a0.08075 0.08075 0 0 1 0.11133-0.10742l1.3379 0.72266-0.41797-0.83594a0.08075 0.08075 0 0 1 0.11328-0.10547l0.4375 0.25a0.08075 0.08075 0 0 1 0.01367 0.011719c1.5485 1.4714 2.5254 3.5333 2.5254 5.8398 0 4.4635-3.6166 8.0801-8.0801 8.0801-4.4635 0-8.0801-3.6166-8.0801-8.0801 0-1.4403 0.37685-2.8075 1.041-3.9766 0.063546-0.11204 0.075355-0.27942 0.056641-0.48828-0.018715-0.20886-0.065719-0.45622-0.10156-0.72656-0.071686-0.54068-0.097222-1.1774 0.26367-1.7871a0.08075 0.08075 0 0 1 0.058594-0.039063zm6.9668 1.1875a0.08075 0.08075 0 0 1 0.01758 0c0.79355 0.032353 1.5337 0.189 2.2168 0.50586a0.08075 0.08075 0 0 1 0.03906 0.11133c-0.12089 0.22831-0.16011 0.49905-0.10742 0.75195 0.05269 0.25291 0.19644 0.4874 0.39844 0.64844 0.87028 0.69924 1.4043 1.7607 1.4043 2.9688 0 1.1141-0.47306 2.0606-1.2129 2.7461a0.08075 0.08075 0 0 1-0.13477-0.0625l0.03125-0.625c0.01267-0.30363-0.10621-0.61054-0.31836-0.82812-0.21215-0.21759-0.51451-0.34287-0.81836-0.33789l-2.25 0.0625a0.08075 0.08075 0 0 1-0.07813-0.10742c0.05601-0.1574 0.07625-0.32801 0.05859-0.49414l-0.03125-0.28125a0.08075 0.08075 0 0 1 0.04297-0.08203l0.96875-0.5c0.21579-0.11119 0.39368-0.2945 0.49805-0.51367 0.10437-0.21917 0.13563-0.47333 0.08594-0.71094a0.08075 0.08075 0 0 1-2e-3 0l-0.1875-0.9375c-0.043369-0.214-0.15023-0.41396-0.30464-0.56836s-0.35436-0.26127-0.56836-0.30469l-0.5-0.09375a0.08075 0.08075 0 0 1-0.06055-0.10547l0.03125-0.09375a0.08075 0.08075 0 0 1 0.04297-0.048828c0.19712-0.086309 0.37011-0.23032 0.48828-0.41016s0.18259-0.39419 0.18359-0.60938a0.08075 0.08075 0 0 1 0.06641-0.080078z" />
	</g>
</svg>
