<?xml version="1.0" encoding="UTF-8"?>
<!-- Created with Inkscape (http://www.inkscape.org/) -->
<svg width="22" height="22" version="1.1" xmlns="http://www.w3.org/2000/svg" xmlns:cc="http://creativecommons.org/ns#" xmlns:dc="http://purl.org/dc/elements/1.1/" xmlns:rdf="http://www.w3.org/1999/02/22-rdf-syntax-ns#">
	<metadata>
		<rdf:RDF>
			<cc:Work rdf:about="">
				<dc:format>image/svg+xml</dc:format>
				<dc:type rdf:resource="http://purl.org/dc/dcmitype/StillImage"/>
			</cc:Work>
		</rdf:RDF>
	</metadata>
	<defs>
		<style id="current-color-scheme" type="text/css">.ColorScheme-Background{color:#ffffff;}
			.ColorScheme-Text{color:#090d11;}</style>
	</defs>
	<path class="ColorScheme-Text" d="m3 3c-0.554 0-1 0.446-1 1v14c0 0.554 0.446 1 1 1h16c0.554 0 1-0.446 1-1v-14c0-0.554-0.446-1-1-1zm13.156 3.3887c0.08782 0.00522 0.17271 0.033514 0.24609 0.082031 0.2311 0.15191 0.29499 0.46258 0.14258 0.69336l-5.2715 8.0039c-0.19773 0.29875-0.63626 0.29875-0.83398 0l-0.89258-1.3555-0.89258 1.3555c-0.19751 0.30073-0.63843 0.30073-0.83594 0l-2.6914-4.0879c-0.15241-0.23078-0.088526-0.54145 0.14258-0.69336 0.23078-0.15241 0.54145-0.08853 0.69336 0.14258l2.2734 3.4531 0.71094-1.0801-1.1992-1.8223c-0.15241-0.23078-0.088526-0.54145 0.14258-0.69336 0.23039-0.15108 0.53958-0.08732 0.69141 0.14258l0.96289 1.4648 3.5449-5.3809c0.07283-0.11072 0.18663-0.18799 0.31641-0.21484 0.06434-0.013485 0.13071-0.014148 0.19531-0.00195 0.06418 0.012745 0.12522 0.037961 0.17969 0.074219 0.2311 0.15191 0.29499 0.46258 0.14258 0.69336l-3.7793 5.7402 0.71094 1.0801 4.8535-7.3711c0.098191-0.14947 0.26874-0.23512 0.44727-0.22461z" style="fill-opacity:.75;fill:currentColor"/>
	<path class="ColorScheme-Background" d="m3 2c-1.0907 0-2 0.9093-2 2v14c0 1.0907 0.9093 2 2 2h16c1.0907 0 2-0.9093 2-2v-14c0-1.0907-0.9093-2-2-2zm0 1h16c0.554 0 1 0.446 1 1v14c0 0.554-0.446 1-1 1h-16c-0.554 0-1-0.446-1-1v-14c0-0.554 0.446-1 1-1zm13.156 3.3887c-0.17853-0.010506-0.34908 0.075139-0.44727 0.22461l-4.8535 7.3711-0.71094-1.0801 3.7793-5.7402c0.15241-0.23078 0.08853-0.54145-0.14258-0.69336-0.05446-0.036258-0.11551-0.061474-0.17969-0.074219-0.0646-0.012195-0.13097-0.011532-0.19531 0.00195-0.12977 0.026854-0.24358 0.10413-0.31641 0.21484l-3.5449 5.3809-0.96289-1.4648c-0.15183-0.2299-0.46102-0.29366-0.69141-0.14258-0.2311 0.15191-0.29499 0.46258-0.14258 0.69336l1.1992 1.8223-0.71094 1.0801-2.2734-3.4531c-0.15191-0.2311-0.46258-0.29499-0.69336-0.14258-0.2311 0.15191-0.29499 0.46258-0.14258 0.69336l2.6914 4.0879c0.19751 0.30073 0.63843 0.30073 0.83594 0l0.89258-1.3555 0.89258 1.3555c0.19773 0.29875 0.63626 0.29875 0.83398 0l5.2715-8.0039c0.15241-0.23078 0.08853-0.54145-0.14258-0.69336-0.07339-0.048517-0.15828-0.076814-0.24609-0.082031z" style="fill-opacity:.5;fill:currentColor"/>
</svg>
