<?xml version="1.0" encoding="UTF-8"?>
<svg id="a" width="22" height="22" version="1.1" xmlns="http://www.w3.org/2000/svg" xmlns:cc="http://creativecommons.org/ns#" xmlns:dc="http://purl.org/dc/elements/1.1/" xmlns:rdf="http://www.w3.org/1999/02/22-rdf-syntax-ns#">
	<metadata id="c">
		<rdf:RDF>
			<cc:Work rdf:about="">
				<dc:format>image/svg+xml</dc:format>
				<dc:type rdf:resource="http://purl.org/dc/dcmitype/StillImage"/>
			</cc:Work>
		</rdf:RDF>
	</metadata>
	<defs>
		<style id="current-color-scheme" type="text/css">.ColorScheme-Text {color:#090d11;}.ColorScheme-Background{color:#ffffff;}</style>
	</defs>
	<path id="b" class="ColorScheme-Text" d="m3 2c-0.554 0-1 0.446-1 1v16c0 0.554 0.446 1 1 1h16c0.554 0 1-0.446 1-1v-16c0-0.554-0.446-1-1-1zm0 2h1v2h-1zm15 0h1v2h-1zm-7 1c2.2091 0 4 1.7909 4 4s-1.7909 4-4 4c-1.864 0-3.4311-1.2746-3.875-3-0.016442-0.0639-0.029648-0.12826-0.042969-0.19336-0.053283-0.26039-0.082031-0.5305-0.082031-0.80664 0-0.34518 0.042792-0.68048 0.125-1 0.016442-0.063904 0.035209-0.12683 0.054688-0.18945 0.50645-1.6283 2.0254-2.8105 3.8203-2.8105zm-1 2v4l3-2zm-7 1h1v2h-1zm15 0h1v2h-1zm-15 4h1v2h-1zm15 0h1v2h-1zm-8.5 3c0.63562 6.4e-5 1.2022 0.40073 1.4141 1h4.0859v1h-4.0898c-0.21139 0.59792-0.77597 0.99828-1.4102 1-0.12321-5.66e-4 -0.24588-0.01631-0.36523-0.04687-0.48563-0.12326-0.87765-0.48084-1.0449-0.95312h-1.0898v-1h1.0898c0.041056-0.11568 0.096156-0.22588 0.16406-0.32812 0.27691-0.41821 0.74452-0.67034 1.2461-0.67188zm-6.5 1h1v2h-1zm15 0h1v2h-1z" style="fill-opacity:.75;fill:currentColor"/>
	<path id="d" class="ColorScheme-Background" d="m2.5547 1c-0.85313 0-1.5547 0.70156-1.5547 1.5547v16.891c0 0.85313 0.70156 1.5547 1.5547 1.5547h16.891c0.85313 0 1.5547-0.70156 1.5547-1.5547v-16.891c0-0.85313-0.70156-1.5547-1.5547-1.5547zm0 1h16.891c0.31643 0 0.55469 0.23826 0.55469 0.55469v16.891c0 0.31643-0.23826 0.55469-0.55469 0.55469h-16.891c-0.31643 0-0.55469-0.23826-0.55469-0.55469v-16.891c0-0.31643 0.23826-0.55469 0.55469-0.55469zm0.44531 2v2h1v-2zm15 0v2h1v-2zm-7 1c-1.7949 0-3.3139 1.1823-3.8203 2.8105-0.019479 0.062626-0.038246 0.12555-0.054688 0.18945-0.082208 0.31952-0.125 0.65482-0.125 1 0 0.27614 0.028748 0.54625 0.082031 0.80664 0.013321 0.0651 0.026527 0.12946 0.042969 0.19336 0.44393 1.7254 2.011 3 3.875 3 2.2091 0 4-1.7909 4-4s-1.7909-4-4-4zm-1 2 3 2-3 2zm-7 1v2h1v-2zm15 0v2h1v-2zm-15 4v2h1v-2zm15 0v2h1v-2zm-8.5 3c-0.50157 0.0015-0.96919 0.25367-1.2461 0.67188-0.067907 0.10225-0.12301 0.21245-0.16406 0.32812h-1.0898v1h1.0898c0.16727 0.47228 0.55929 0.82987 1.0449 0.95312 0.11936 0.03057 0.24203 0.04631 0.36523 0.04687 0.63418-0.0017 1.1988-0.40208 1.4102-1h4.0898v-1h-4.0859c-0.21187-0.59927-0.77844-0.99994-1.4141-1zm-6.5 1v2h1v-2zm15 0v2h1v-2z" style="fill-opacity:.5;fill:currentColor"/>
</svg>
