<?xml version="1.0" encoding="UTF-8"?>
<svg id="d" width="22" height="22" version="1.1" xmlns="http://www.w3.org/2000/svg" xmlns:cc="http://creativecommons.org/ns#" xmlns:dc="http://purl.org/dc/elements/1.1/" xmlns:rdf="http://www.w3.org/1999/02/22-rdf-syntax-ns#">
	<metadata id="a">
		<rdf:RDF>
			<cc:Work rdf:about="">
				<dc:format>image/svg+xml</dc:format>
				<dc:type rdf:resource="http://purl.org/dc/dcmitype/StillImage"/>
				<dc:title/>
			</cc:Work>
		</rdf:RDF>
	</metadata>
	<defs id="c">
		<style id="current-color-scheme" type="text/css">.ColorScheme-Text {color:#090d11;}.ColorScheme-Background{color:#ffffff;}</style>
	</defs>
	<path id="e" class="ColorScheme-Text" d="m17 4-7 5h-6c-0.5541 0-1 0.4459-1 1v2c0 0.5541 0.4459 1 1 1h2v4h2v-4h2l7 5zm1 5v4h1v-4z" style="fill-opacity:.75;fill:currentColor"/>
	<path id="b" class="ColorScheme-Background" d="m18 2.0566-1.582 1.1289-6.7383 4.8145h-5.6797c-1.0906 0-2 0.9094-2 2v2c0 1.0906 0.9094 2 2 2h1v4h4v-4h0.67969l8.3203 5.9434v-5.9434h2v-6h-2zm-1 1.9434v14l-7-5h-2v4h-2v-4h-2c-0.5541 0-1-0.4459-1-1v-2c0-0.5541 0.4459-1 1-1h6zm4.3e-5 5 2-2.7e-5v4h-1z" style="fill-opacity:.5;fill:currentColor"/>
</svg>
