<?xml version="1.0" encoding="UTF-8"?>
<svg width="22" height="22" version="1.1" xmlns="http://www.w3.org/2000/svg" xmlns:cc="http://creativecommons.org/ns#" xmlns:dc="http://purl.org/dc/elements/1.1/" xmlns:rdf="http://www.w3.org/1999/02/22-rdf-syntax-ns#">
	<defs>
		<style id="current-color-scheme" type="text/css">.ColorScheme-Text {color:#090d11;}.ColorScheme-Background{color:#ffffff;}</style>
	</defs>
	<metadata>
		<rdf:RDF>
			<cc:Work rdf:about="">
				<dc:format>image/svg+xml</dc:format>
				<dc:type rdf:resource="http://purl.org/dc/dcmitype/StillImage"/>
			</cc:Work>
		</rdf:RDF>
	</metadata>
	<path class="ColorScheme-Text" d="m10.984 4c-0.09098 0.00291-0.17945 0.030594-0.25586 0.080078l-8.5 5.5c-0.14248 0.09214-0.22852 0.25024-0.22852 0.41992v3c1.071e-4 0.18493 0.10227 0.35471 0.26562 0.44141l8.5 4.5c0.16451 0.08741 0.36398 0.07612 0.51758-0.0293l7.6504-5.2598-0.02148 0.20898-0.05273 0.49805 0.99414 0.10352 0.05273-0.49609 0.1582-1.4922c0.02842-0.27447-0.17087-0.52009-0.44531-0.54883l-1.4922-0.1582-0.49609-0.05273-0.10547 0.99414 0.49609 0.05274 0.38281 0.04101-7.4375 5.1133-7.9668-4.2168v-2.4277l8.0176-5.1875 7.0371 3.959-7.0879 4.873-5.793-3.1074-0.44141-0.23633-0.47266 0.88281 0.44141 0.23633 6.0625 3.25c0.16502 0.0882 0.36548 0.0769 0.51953-0.0293l8-5.5c0.30491-0.20933 0.28493-0.66577-0.03711-0.84766l-8-4.5c-0.0797-0.045032-0.17022-0.067326-0.26172-0.06445z" style="fill-opacity:.75;fill:currentColor"/>
	<path class="ColorScheme-Background" d="m10.953 3c-0.27288 0.00872-0.53842 0.091825-0.76758 0.24023l-8.5 5.5c-0.42637 0.27571-0.68557 0.75202-0.68555 1.2598v3c3.201e-4 0.55288 0.30852 1.065 0.79688 1.3242l8.5 4.5c0.49178 0.26129 1.0936 0.22722 1.5527-0.08789l6.6094-4.543c0.08918 0.06981 0.18956 0.12396 0.29688 0.16016l0.99414 0.10351c0.54826 0.05688 1.0392-0.34058 1.0977-0.88867l0.05273-0.49609 0.1582-1.4922v-2e-3c0.07495-0.72396-0.43952-1.3297-1.1191-1.5273 0.69319-0.66072 0.66273-1.8695-0.20117-2.3574h-2e-3l-7.998-4.5h-2e-3c-0.23841-0.13433-0.50934-0.20192-0.7831-0.19331zm0.03125 1c0.0915-0.00288 0.18202 0.019418 0.26172 0.064453l8 4.5c0.32204 0.18188 0.34202 0.63833 0.03711 0.84766l-8 5.5c-0.15406 0.1062-0.35451 0.1175-0.51953 0.0293l-6.0625-3.25-0.44141-0.23633 0.47266-0.88281 0.44141 0.23633 5.793 3.1074 7.0879-4.873-7.0371-3.959-8.0176 5.1875v2.4277l7.9668 4.2168 7.4375-5.1133-0.38281-0.04101-0.49609-0.05274 0.10547-0.99414 0.49609 0.05273 1.4922 0.1582c0.27444 0.02874 0.47373 0.27435 0.44531 0.54883l-0.1582 1.4922-0.05273 0.49609-0.99414-0.10352 0.05273-0.49805 0.02148-0.20898-7.6504 5.2598c-0.1536 0.10542-0.35306 0.1167-0.51758 0.0293l-8.5-4.5c-0.16335-0.0867-0.26551-0.25647-0.26562-0.4414v-3c-6.2e-6 -0.16968 0.086032-0.32778 0.22852-0.41992l8.5-5.5c0.07641-0.049484 0.16487-0.077172 0.25586-0.080078z" style="fill-opacity:.5;fill:currentColor"/>
</svg>
