<?xml version="1.0" encoding="UTF-8"?>
<svg id="h" width="22" height="22" version="1.1" xmlns="http://www.w3.org/2000/svg" xmlns:cc="http://creativecommons.org/ns#" xmlns:dc="http://purl.org/dc/elements/1.1/" xmlns:rdf="http://www.w3.org/1999/02/22-rdf-syntax-ns#">
	<metadata id="b">
		<rdf:RDF>
			<cc:Work rdf:about="">
				<dc:format>image/svg+xml</dc:format>
				<dc:type rdf:resource="http://purl.org/dc/dcmitype/StillImage"/>
				<dc:title/>
			</cc:Work>
		</rdf:RDF>
	</metadata>
	<defs id="a">
		<style id="current-color-scheme" type="text/css">.ColorScheme-Text{color:#090d11;}.ColorScheme-Background{color:#ffffff;}</style>
	</defs>
	<path id="f" class="ColorScheme-Text" d="m1 1v2h2v-2zm10 1c-4.9587 0-9 4.0413-9 9s4.0413 9 9 9c4.2707 0 7.8535-3.0003 8.7676-7h0.23242v-4h-0.23242c-0.91403-3.9997-4.4969-7-8.7676-7zm8-1v2h2v-2zm-8 3c3.1817 0 5.8499 2.1035 6.707 5h-11.707v-1h-1.3223c1.1204-2.3668 3.5207-4 6.3223-4zm-5 9h11.707c-0.85716 2.8965-3.5253 5-6.707 5-2.8016 0-5.2019-1.6332-6.3223-4h1.3223zm-5 6v2h2v-2zm18 0v2h2v-2z" style="fill-opacity:.75;fill:currentColor"/>
	<path id="e" class="ColorScheme-Background" d="m1 0c-0.55226 5.52e-5 -0.99994 0.44774-1 1v2c5.52e-5 0.55226 0.44774 0.99994 1 1h2c0.55226-5.52e-5 0.99994-0.44774 1-1v-2c-5.52e-5 -0.55226-0.44774-0.99994-1-1zm18 0c-0.55226 5.52e-5 -0.99994 0.44774-1 1v2c5.5e-5 0.55226 0.44774 0.99994 1 1h2c0.55226-5.52e-5 0.99994-0.44774 1-1v-2c-5.5e-5 -0.55226-0.44774-0.99994-1-1zm-18 1h2v2h-2zm10 0c-5.502 0-10 4.498-10 10s4.498 10 10 10c5.5419 0 10-4.6101 10-10 0-5.3541-4.4483-10-10-10zm8 0h2v2h-2zm-8 1c4.2707 0 7.8535 3.0003 8.7676 7l0.23242 2-0.23242 2c-0.91403 3.9997-4.4969 7-8.7676 7-4.9587 0-9-4.0413-9-9s4.0413-9 9-9zm-5.7305 5-0.5918 1h1.3223v1h11.707l-0.38672-1h-10.32v-1zm0.73047 6v1h-1.3223l0.5918 1h1.7305v-1h10.32l0.38672-1zm-5 5c-0.55226 5.5e-5 -0.99994 0.44774-1 1v2c5.52e-5 0.55226 0.44774 0.99994 1 1h2c0.55226-5.5e-5 0.99994-0.44774 1-1v-2c-5.52e-5 -0.55226-0.44774-0.99994-1-1zm18 0c-0.55226 5.5e-5 -0.99994 0.44774-1 1v2c5.5e-5 0.55226 0.44774 0.99994 1 1h2c0.55226-5.5e-5 0.99994-0.44774 1-1v-2c-5.5e-5 -0.55226-0.44774-0.99994-1-1zm-18 1h2v2h-2zm18 0h2v2h-2z" style="fill-opacity:.5;fill:currentColor"/>
</svg>
