<?xml version="1.0" encoding="UTF-8"?>
<svg width="22" height="22" version="1.1" xmlns="http://www.w3.org/2000/svg" xmlns:cc="http://creativecommons.org/ns#" xmlns:dc="http://purl.org/dc/elements/1.1/" xmlns:rdf="http://www.w3.org/1999/02/22-rdf-syntax-ns#">
	<defs>
		<style id="current-color-scheme" type="text/css">.ColorScheme-Text {color:#090d11;}.ColorScheme-Background{color:#ffffff;}</style>
	</defs>
	<metadata>
		<rdf:RDF>
			<cc:Work rdf:about="">
				<dc:format>image/svg+xml</dc:format>
				<dc:type rdf:resource="http://purl.org/dc/dcmitype/StillImage"/>
			</cc:Work>
		</rdf:RDF>
	</metadata>
	<path class="ColorScheme-Text" d="m2 4c-0.554 0-1 0.446-1 1v12c0 0.554 0.446 1 1 1h18c0.554 0 1-0.446 1-1v-12c0-0.554-0.446-1-1-1zm9.045 3.8242c1.2129 0 1.9762 0.74604 1.9941 1.8691h-1.0254c-0.03599-0.52129-0.42167-0.83594-0.96875-0.83594-0.53628 0-0.89648 0.29685-0.89648 0.74609-2e-6 0.37719 0.25142 0.61176 0.86328 0.75586l0.55078 0.13086c1.0978 0.25853 1.5762 0.77888 1.5762 1.707 0 1.1952-0.79444 1.9492-2.0938 1.9492-1.2381 0-2.0633-0.69489-2.0957-1.8477h1.0273c0.06839 0.51281 0.50739 0.81836 1.0977 0.81836 0.57947 0 0.97461-0.33006 0.97461-0.7793 0-0.40262-0.24503-0.63225-0.89648-0.78906l-0.54688-0.12695c-1.0366-0.24157-1.543-0.82513-1.543-1.7363 0-1.1189 0.82708-1.8613 1.9824-1.8613zm-6.1445 0.10547h1.0859v5.0566h2.2715v1.0586h-3.3574zm9.1699 0h2.1133c1.0654 0 1.7988 0.83503 1.7988 2.0938 0 1.2545-0.75936 2.0938-1.8535 2.0938h-0.9707v1.9277h-1.0879zm1.0879 1.0137v2.1738h0.73438c0.62266 0 0.98438-0.39055 0.98438-1.0898 0-0.69505-0.35976-1.084-0.98242-1.084z" fill="currentColor" fill-opacity=".75"/>
	<path class="ColorScheme-Background" d="m2 3c-1.108 0-2 0.892-2 2v12c0 1.108 0.892 2 2 2h18c1.108 0 2-0.892 2-2v-12c0-1.108-0.892-2-2-2zm0 1h18c0.554 0 1 0.446 1 1v12c0 0.554-0.446 1-1 1h-18c-0.554 0-1-0.446-1-1v-12c0-0.554 0.446-1 1-1zm9.045 3.8242c-1.1553 0-1.9824 0.74246-1.9824 1.8613 0 0.9112 0.5064 1.4948 1.543 1.7363l0.54688 0.12695c0.65146 0.15681 0.89648 0.38644 0.89648 0.78906 0 0.44924-0.39514 0.7793-0.97461 0.7793-0.59027 0-1.0293-0.30555-1.0977-0.81836h-1.0273c0.032386 1.1528 0.85758 1.8477 2.0957 1.8477 1.2993 0 2.0938-0.75406 2.0938-1.9492 0-0.92815-0.47841-1.4485-1.5762-1.707l-0.55078-0.13086c-0.61186-0.1441-0.86328-0.37867-0.86328-0.75586 0-0.44924 0.3602-0.74609 0.89648-0.74609 0.54708 0 0.93276 0.31465 0.96875 0.83594h1.0254c-0.01799-1.1231-0.78121-1.8691-1.9941-1.8691zm-6.1445 0.10547v6.1152h3.3574v-1.0586h-2.2715v-5.0566zm9.1699 0v6.1152h1.0879v-1.9277h0.9707c1.0942 0 1.8535-0.83927 1.8535-2.0938 0-1.2587-0.73346-2.0938-1.7988-2.0938zm1.0879 1.0137h0.73633c0.62266 0 0.98242 0.38893 0.98242 1.084 0 0.69929-0.36171 1.0898-0.98438 1.0898h-0.73438z" fill="currentColor" fill-opacity=".5"/>
</svg>
