<?xml version="1.0" encoding="UTF-8"?>
<svg id="a" width="22" height="22" version="1.1" xmlns="http://www.w3.org/2000/svg" xmlns:cc="http://creativecommons.org/ns#" xmlns:dc="http://purl.org/dc/elements/1.1/" xmlns:rdf="http://www.w3.org/1999/02/22-rdf-syntax-ns#">
	<metadata id="c">
		<rdf:RDF>
			<cc:Work rdf:about="">
				<dc:format>image/svg+xml</dc:format>
				<dc:type rdf:resource="http://purl.org/dc/dcmitype/StillImage"/>
				<dc:title/>
			</cc:Work>
		</rdf:RDF>
	</metadata>
	<defs id="g">
		<style id="current-color-scheme" type="text/css">.ColorScheme-Text {color:#090d11;}.ColorScheme-Background{color:#ffffff;}</style>
	</defs>
	<path id="e" class="ColorScheme-Background" d="m6.1855 9.814-5.1992 2.0547 3.5371 2.623c0.084965-0.11476 0.19352-0.20999 0.31836-0.2793 1.5451-0.86238 2.283-1.4659 3.4707-3.2266l-2.127-1.1719z" style="fill-opacity:.55;fill:currentColor"/>
	<path id="ee" class="ColorScheme-Text" d="m6.1855 9.814-5.1992 2.0547 3.5371 2.623c0.084965-0.11476 0.19352-0.20999 0.31836-0.2793 1.5451-0.86238 2.283-1.4659 3.4707-3.2266l-2.127-1.1719z" style="fill-opacity:.55;fill:currentColor"/>
	<path id="b" class="ColorScheme-Background" d="m11.627 4.2734c-0.69841 1.1869-1.5314 2.7393-2.9707 3.3281-1.7438 0.71335-2.0253 1.5338-2.4707 2.2129l1.8906 1.5098c0.49307-0.70012 1.0479-1.5804 1.7852-2.8066 0.75492-1.2557 1.2599-2.8508 1.7656-4.2441z" style="fill-opacity:.2;fill:currentColor"/>
	<path id="bb" class="ColorScheme-Text" d="m11.627 4.2734c-0.69841 1.1869-1.5314 2.7393-2.9707 3.3281-1.7438 0.71335-2.0253 1.5338-2.4707 2.2129l1.8906 1.5098c0.49307-0.70012 1.0479-1.5804 1.7852-2.8066 0.75492-1.2557 1.2599-2.8508 1.7656-4.2441z" style="fill-opacity:.2;fill:currentColor"/>
	<path id="f" class="ColorScheme-Text" d="m5.33 15.086c2.2067-1.2316 3.0587-2.178 5.3885-6.0534 1.7442-2.9013 2.0894-6.9462 3.709-6.9981 1.9866-0.063718 4.1954 10.301 6.6482 15.046-0.98798-0.27992-2.661-3.0124-4.5138-2.7293-2.0454 0.31253-3.8487 5.0152-6.8931 5.5985-1.3179-2.4611-1.8121-5.8652-4.3388-4.8637z" style="fill-opacity:.75;fill:currentColor"/>
	<path id="d" class="ColorScheme-Background" d="m14.395 1.0352c-0.81936 0.02628-1.4398 0.58641-1.8164 1.1523s-0.63465 1.2204-0.89648 1.9336c-0.52367 1.4264-1.0389 3.0968-1.8203 4.3965-2.3114 3.8447-2.9076 4.5166-5.0195 5.6953a1.0001 1.0001 0 0 0 0.85742 1.8027c0.44092-0.17477 0.5704-0.13199 0.73242-0.04883 0.16202 0.08317 0.40517 0.32495 0.6582 0.75781 0.50607 0.86573 0.97228 2.3434 1.6973 3.6973a1.0001 1.0001 0 0 0 1.0703 0.50977c1.9742-0.37821 3.2906-1.9284 4.3965-3.2383 0.55292-0.65495 1.0562-1.2722 1.4961-1.7031s0.8-0.6255 0.96289-0.65039c0.40713-0.06221 1.0545 0.28452 1.7676 0.91406 0.35656 0.31477 0.71071 0.66746 1.0664 0.98633s0.66955 0.63662 1.2559 0.80274a1.0001 1.0001 0 0 0 1.1621-1.4219c-1.1462-2.2173-2.3269-5.9922-3.4434-9.1953-0.55822-1.6015-1.1015-3.0625-1.6699-4.1855-0.28419-0.56154-0.56845-1.0408-0.92187-1.4375-0.35342-0.39672-0.84975-0.78956-1.5352-0.76758zm0.0332 1c1.9866-0.063718 4.1956 10.3 6.6484 15.045-0.98798-0.27992-2.6608-3.0116-4.5137-2.7285-2.0454 0.31253-3.8501 5.0144-6.8945 5.5977-1.3179-2.4611-1.8111-5.8648-4.3379-4.8633 2.2067-1.2316 3.0588-2.1773 5.3887-6.0527 1.7442-2.9013 2.0894-6.9461 3.709-6.998z" style="fill-opacity:.5;fill:currentColor"/>
</svg>
