<?xml version="1.0" encoding="UTF-8" standalone="no"?>
<svg
   xmlns:dc="http://purl.org/dc/elements/1.1/"
   xmlns:cc="http://creativecommons.org/ns#"
   xmlns:rdf="http://www.w3.org/1999/02/22-rdf-syntax-ns#"
   xmlns:svg="http://www.w3.org/2000/svg"
   xmlns="http://www.w3.org/2000/svg"
   version="1.1"
   width="22"
   height="22"
   id="svg2">
  <defs
     id="defs4">
    <style
       type="text/css"
       id="current-color-scheme">.ColorScheme-Text {color:#090d11;}.ColorScheme-Background{color:#ffffff;}</style>
  </defs>
  <metadata
     id="metadata7">
    <rdf:RDF>
      <cc:Work
         rdf:about="">
        <dc:format>image/svg+xml</dc:format>
        <dc:type
           rdf:resource="http://purl.org/dc/dcmitype/StillImage" />
        <dc:title></dc:title>
      </cc:Work>
    </rdf:RDF>
  </metadata>
  <path
     style="fill:currentColor;fill-opacity:0.5"
     d="M 1,1 V 21 H 21 V 1 Z M 2,2 H 20 V 20 H 15 V 13 H 13 V 11 H 9 v 2 H 7 v 7 H 2 Z m 7,9 V 7 H 5 v 4 z m 4,0 h 4 V 7 h -4 z m -4,6 h 4 v 3 H 9 Z"
     class="ColorScheme-Background"
     id="rect3801" />
  <path
     id="path3198"
     d="M 2,2 V 20 H 7 V 13 H 9 V 11 H 5 V 7 h 4 v 4 h 4 V 7 h 4 v 4 h -4 v 2 h 2 v 7 h 5 V 2 Z m 7,15 v 3 h 4 v -3 z"
     style="fill:currentColor;fill-opacity:0.75"
     class="ColorScheme-Text" />
</svg>
