<?xml version="1.0" encoding="UTF-8"?>
<!-- Created with Inkscape (http://www.inkscape.org/) -->
<svg width="22" height="22" version="1.1" xmlns="http://www.w3.org/2000/svg" xmlns:cc="http://creativecommons.org/ns#" xmlns:dc="http://purl.org/dc/elements/1.1/" xmlns:rdf="http://www.w3.org/1999/02/22-rdf-syntax-ns#">
	<defs>
		<radialGradient id="b" cx="-9386.7" cy="5050.6" r="9" gradientTransform="matrix(2.3621,0,0,2.586,22184,-13042)" gradientUnits="userSpaceOnUse">
			<stop stop-color="#213851" stop-opacity=".9059" offset="0"/>
			<stop stop-color="#27303a" stop-opacity="0" offset="1"/>
		</radialGradient>
		<radialGradient id="a" cx="9.9746" cy="21.557" r="9.0713" gradientTransform="matrix(2.3904,0,0,2.3881,-12.886,-34.445)" gradientUnits="userSpaceOnUse">
			<stop stop-color="#ffffff" stop-opacity=".8252" offset="0"/>
			<stop stop-color="#ffffff" stop-opacity=".6051" offset="1"/>
		</radialGradient>
	</defs>
	<metadata>
		<rdf:RDF>
			<cc:Work rdf:about="">
				<dc:format>image/svg+xml</dc:format>
				<dc:type rdf:resource="http://purl.org/dc/dcmitype/StillImage"/>
				<dc:title/>
			</cc:Work>
		</rdf:RDF>
	</metadata>
	<path d="m6.2793 1.9824a0.49127 0.50899 0 0 0-0.42383 0.25195l-4.7324 8.4941a0.49127 0.50899 0 0 0 0 0.50976l4.7324 8.4902a0.49127 0.50899 0 0 0 0.42383 0.25391h9.4648a0.49127 0.50899 0 0 0 0.42578-0.25391l4.7324-8.4902a0.49127 0.50899 0 0 0 0-0.50976l-4.7324-8.4941a0.49127 0.50899 0 0 0-0.42578-0.25195zm0.28516 1.0176h8.8965l4.4473 7.9824-4.4453 7.9824h-8.8984l-4.4492-7.9824zm0.76953 1.0215-3.6797 6.9785 3.1523 5.9766v-6.3027l4.043 7.3027h3.8438l3.6777-6.9766-3.252-6.166v5.8398l-4.0488-6.6523z" fill="#090d11" fill-opacity=".76621" fill-rule="evenodd" style="paint-order:normal"/>
	<path d="m6.2793 1.9824a0.49127 0.50899 0 0 0-0.42383 0.25195l-4.7324 8.4941a0.49127 0.50899 0 0 0 0 0.50976l4.7324 8.4902a0.49127 0.50899 0 0 0 0.42383 0.25391h9.4648a0.49127 0.50899 0 0 0 0.42578-0.25391l4.7324-8.4902a0.49127 0.50899 0 0 0 0-0.50976l-4.7324-8.4941a0.49127 0.50899 0 0 0-0.42578-0.25195zm0.28516 1.0176h8.8965l4.4473 7.9824-4.4453 7.9824h-8.8984l-4.4492-7.9824zm0.76953 1.0215-3.6797 6.9785 3.1523 5.9766v-6.3027l4.043 7.3027h3.8438l3.6777-6.9766-3.252-6.166v5.8398l-4.0488-6.6523z" fill="url(#b)" fill-rule="evenodd" style="paint-order:normal"/>
	<path d="m6.2793 0.9824c-0.54068 2.243e-4 -1.0361 0.30141-1.2949 0.75977a1.0001 1.0001 0 0 0-0.00195 0.00586l-4.7324 8.4941c-0.2576 0.4628-0.25828 1.0218 0 1.4844l4.7324 8.4883a1.0001 1.0001 0 0 0 0 2e-3c0.25736 0.46043 0.75305 0.76414 1.2949 0.76562a1.0001 1.0001 0 0 0 0.00195 0h9.4629c0.54401 7.56e-4 1.0424-0.30338 1.3008-0.76562a1.0001 1.0001 0 0 0 0-2e-3l4.7324-8.4883v-2e-3c0.25726-0.46219 0.25726-1.0202 0-1.4824v-2e-3l-4.7324-8.4921a1.0001 1.0001 0 0 0-2e-3 -0.00586c-0.25981-0.46017-0.75796-0.76177-1.3008-0.75977h-9.4609zm0 1h9.4648a0.49127 0.50899 0 0 1 0.42578 0.25195l4.7324 8.4941a0.49127 0.50899 0 0 1 0 0.50976l-4.7324 8.4902a0.49127 0.50899 0 0 1-0.42578 0.25391h-9.4648a0.49127 0.50899 0 0 1-0.42383-0.25391l-4.7324-8.4902a0.49127 0.50899 0 0 1 0-0.50976l4.7324-8.4941a0.49127 0.50899 0 0 1 0.42383-0.25195zm0.28516 1.0176-4.4492 7.9824 4.4492 7.9824h8.8984l4.4453-7.9824-4.4473-7.9824h-8.8965zm5.6621 1h2.3438a1.0001 1.0001 0 0 0-0.45117 0.83398v2.2754l-1.8926-3.1094zm-4.8926 0.021484h3.7363l4.0488 6.6523v-5.8398l3.252 6.166-3.6777 6.9766h-3.8438l-4.043-7.3027v6.3027l-3.1523-5.9766zm0.47266 10.523 1.8926 3.4199h-2.5469l-0.023438-0.04102a1.0001 1.0001 0 0 0 0.67773-0.94727v-2.4316z" color="#000000" color-rendering="auto" dominant-baseline="auto" fill="url(#a)" fill-rule="evenodd" image-rendering="auto" shape-rendering="auto" solid-color="#000000" style="font-feature-settings:normal;font-variant-alternates:normal;font-variant-caps:normal;font-variant-ligatures:normal;font-variant-numeric:normal;font-variant-position:normal;isolation:auto;mix-blend-mode:normal;paint-order:normal;shape-padding:0;text-decoration-color:#000000;text-decoration-line:none;text-decoration-style:solid;text-indent:0;text-orientation:mixed;text-transform:none;white-space:normal"/>
</svg>
