<?xml version="1.0" encoding="UTF-8"?>
<svg id="g" width="22" height="22" version="1.1" xmlns="http://www.w3.org/2000/svg" xmlns:cc="http://creativecommons.org/ns#" xmlns:dc="http://purl.org/dc/elements/1.1/" xmlns:rdf="http://www.w3.org/1999/02/22-rdf-syntax-ns#">
	<metadata id="e">
		<rdf:RDF>
			<cc:Work rdf:about="">
				<dc:format>image/svg+xml</dc:format>
				<dc:type rdf:resource="http://purl.org/dc/dcmitype/StillImage"/>
			</cc:Work>
		</rdf:RDF>
	</metadata>
	<defs>
		<style id="current-color-scheme" type="text/css">.ColorScheme-Text {color:#090d11;}.ColorScheme-Background{color:#ffffff;}</style>
	</defs>
	<path class="ColorScheme-Text" d="m11 2c-4.9706 0-9 4.0294-9 9s4.0294 9 9 9 9-4.0294 9-9-4.0294-9-9-9zm-1.8628 1.7636c-0.7737 0.60725-1.4321 1.4418-1.6089 2.4316-0.36102 1.9226 1.2529 3.7959 3.1225 4.06 1.3919 0.24632 2.769-0.58158 3.4741-1.7554 0.79094 0.05443 1.5885 0.29 2.2631 0.72021 1.3121 0.7934 1.8798 2.3862 1.8238 3.8622-0.1393-0.97575-0.53248-1.9635-1.3012-2.6122-1.485-1.2744-3.9166-0.8179-5.083 0.66895-0.90995 1.0812-0.88152 2.6871-0.21729 3.8842-0.42222 0.66824-1.0417 1.2337-1.7456 1.6065-1.3441 0.74296-3.0118 0.44056-4.2628-0.34668 0.91486 0.36749 1.9679 0.51926 2.915 0.17822 1.846-0.64671 2.672-2.978 1.9703-4.7339-0.4785-1.3285-1.8839-2.108-3.2495-2.1314-0.38901-0.68576-0.5547-1.5252-0.52979-2.3217 0.031366-1.5342 1.1232-2.8216 2.4292-3.5108z" style="fill-opacity:.75;fill:currentColor"/>
	<path class="ColorScheme-Background" d="m11 1c-5.5155 0-10 4.4845-10 10s4.4845 10 10 10 10-4.4845 10-10-4.4845-10-10-10zm0 1c4.9782 0 9 4.0218 9 9s-4.0218 9-9 9-9-4.0218-9-9 4.0218-9 9-9zm-1.8628 1.7636c-1.306 0.68915-2.3979 1.9765-2.4292 3.5108-0.024909 0.79648 0.14078 1.636 0.52979 2.3218 1.3656 0.02337 2.771 0.80288 3.2495 2.1314 0.70175 1.7559-0.12419 4.0871-1.9703 4.7339-0.94715 0.34104-2.0001 0.18926-2.915-0.17822 1.251 0.78725 2.9185 1.0896 4.2628 0.34668 0.70391-0.37271 1.3234-0.93821 1.7456-1.6065-0.66424-1.1972-0.69266-2.803 0.21729-3.8842 1.1664-1.4869 3.598-1.9432 5.083-0.66895 0.7688 0.64886 1.162 1.6365 1.3012 2.6122 0.05596-1.4761-0.51155-3.0689-1.8238-3.8622-0.6747-0.43021-1.4722-0.66579-2.2631-0.72021-0.70514 1.1738-2.0822 2.0018-3.4741 1.7554-1.8698-0.26416-3.4836-2.1375-3.1225-4.06 0.17671-0.98989 0.83519-1.8244 1.6089-2.4316z" style="fill-opacity:.5;fill:currentColor"/>
	<path class="ColorScheme-Background" d="m9.137 3.7636c-1.306 0.68915-2.3979 1.9765-2.4292 3.5108-0.024909 0.79648 0.14078 1.636 0.52979 2.3218 1.3656 0.02337 2.771 0.80288 3.2495 2.1314 0.70175 1.7559-0.12419 4.0871-1.9703 4.7339-0.94715 0.34104-2.0001 0.18926-2.915-0.17822 1.251 0.78725 2.9185 1.0896 4.2628 0.34668 0.70391-0.37271 1.3234-0.93821 1.7456-1.6065-0.66424-1.1972-0.69266-2.803 0.21729-3.8842 1.1664-1.4869 3.598-1.9432 5.083-0.66895 0.7688 0.64886 1.162 1.6365 1.3012 2.6122 0.05596-1.4761-0.51155-3.0689-1.8238-3.8622-0.6747-0.43021-1.4722-0.66579-2.2631-0.72021-0.70514 1.1738-2.0822 2.0018-3.4741 1.7554-1.8698-0.26416-3.4836-2.1375-3.1225-4.06 0.17671-0.98989 0.83519-1.8244 1.6089-2.4316z" style="fill-opacity:.5;fill:currentColor"/>
</svg>
