<?xml version="1.0" encoding="UTF-8"?>
<!-- Created with Inkscape (http://www.inkscape.org/) -->
<svg width="22" height="22" version="1.1" xmlns="http://www.w3.org/2000/svg" xmlns:cc="http://creativecommons.org/ns#" xmlns:dc="http://purl.org/dc/elements/1.1/" xmlns:rdf="http://www.w3.org/1999/02/22-rdf-syntax-ns#">
	<metadata>
		<rdf:RDF>
			<cc:Work rdf:about="">
				<dc:format>image/svg+xml</dc:format>
				<dc:type rdf:resource="http://purl.org/dc/dcmitype/StillImage"/>
			</cc:Work>
		</rdf:RDF>
	</metadata>
	<defs>
		<style id="current-color-scheme" type="text/css">.ColorScheme-Text {
			color:#090d11;
			}
			.ColorScheme-Background{
			color:#ffffff;
			}</style>
	</defs>
	<path class="ColorScheme-Text" d="m11 2c-0.49953-1e-7 -0.8749 0.03989-1.0664 0.10547-0.19143 0.06558-0.19072 0.065913-0.22852 0.20703-0.19039 0.79464-0.37878 1.4342-0.6582 1.9746-0.27808 0.53785-0.66608 0.97453-1.1758 1.2734v0.00195c-0.0028 0.0017-0.00687 0.00221-0.00977 0.00391-0.0024 0.0014-0.00356 0.00251-0.00586 0.00391-0.32122 0.18281-0.66467 0.29817-1.0254 0.35156-0.14429 0.021357-0.29223 0.032947-0.44141 0.035156-0.074588 0.0011-0.14895-3.868e-4 -0.22461-0.00391-0.15221-0.00707-0.30812-0.022529-0.4668-0.044922h-0.00195c-0.47476-0.06717-0.98524-0.19883-1.5723-0.37305l-0.011719-0.00391c-0.12668-0.033758-0.13417-0.028638-0.28125 0.099609-0.15252 0.13304-0.37328 0.43653-0.62305 0.86914s-0.40638 0.77798-0.44531 0.97656c-0.00973 0.049646-0.016022 0.08557-0.019531 0.11523-0.00351 0.029665-0.00254 0.051278 0.00195 0.070312 0.00862 0.038915 0.033586 0.064835 0.085938 0.11719 0.59167 0.56115 1.0529 1.0451 1.3809 1.5566 0.11128 0.17361 0.19683 0.35568 0.27344 0.53906h0.00781c0.14772 0.35456 0.23 0.72817 0.23242 1.1172h0.00195c0 0.0029 9.1e-6 0.0049 0 0.0078 9.1e-6 0.0029 0 0.0069 0 0.0098h-0.00195c-0.00241 0.38883-0.084816 0.76013-0.23242 1.1152h-0.00391c-0.0768 0.18465-0.16553 0.36655-0.27734 0.54102-0.24635 0.38431-0.56774 0.75126-0.96289 1.1484-0.13172 0.13239-0.2716 0.26756-0.41992 0.4082v2e-3c-0.10329 0.10335-0.10144 0.1022-0.0625 0.30078 0.038925 0.19858 0.19163 0.542 0.44141 0.97461 0.24977 0.43261 0.46862 0.73809 0.62109 0.87109 0.1525 0.13301 0.15576 0.13157 0.29688 0.09375 0.78158-0.23175 1.4324-0.38782 2.0391-0.41602 0.60527-0.02812 1.1775 0.08837 1.6914 0.38086 0.00243 0.0013 0.00548 0.0025 0.00781 0.0039 0.00277 0.0016 0.00495 0.0042 0.00781 0.0059v2e-3c0.31857 0.18676 0.59012 0.42575 0.81641 0.71094 0.090513 0.11407 0.17358 0.23533 0.25 0.36328 0.03821 0.06397 0.074617 0.13002 0.10938 0.19727 0.27943 0.54045 0.4678 1.1799 0.6582 1.9746 0.0284 0.10584 0.03487 0.13373 0.11719 0.16797h2e-3c0.02727 0.01126 0.06227 0.02292 0.10938 0.03906 0.1914 0.06544 0.56687 0.10547 1.0664 0.10547 0.12488 0 0.24124-3e-3 0.34961-0.0078 0.32508-0.01429 0.57317-0.04847 0.7168-0.09766 0.19143-0.06558 0.19072-0.06591 0.22852-0.20703 0.19039-0.79464 0.37878-1.4342 0.6582-1.9746 0.27808-0.53785 0.66608-0.97257 1.1758-1.2715v-2e-3c0.0027-0.0016 0.0051-0.0043 0.0078-0.0059 0.0024-0.0014 0.0054-0.0025 0.0078-0.0039 0.19273-0.10969 0.39369-0.19572 0.60156-0.25781 0.34645-0.10349 0.71156-0.14258 1.0898-0.125 0.61136 0.02841 1.2631 0.18717 2.0527 0.42188 0.12668 0.03376 0.13418 0.03056 0.28125-0.09766 0.07625-0.0665 0.16967-0.17739 0.27539-0.32422 0.10572-0.14682 0.22277-0.33057 0.34766-0.54688 0.24977-0.43261 0.40638-0.77602 0.44531-0.97461 0.01946-0.09929 0.02656-0.14943 0.01758-0.1875-9e-3 -0.03807-0.03429-0.06553-0.08594-0.11719-0.59167-0.56115-1.0529-1.0451-1.3809-1.5566-0.11128-0.17361-0.19682-0.35568-0.27344-0.53906h-0.0078c-0.01711-0.04107-0.02959-0.08347-0.04492-0.125h-3.6465c-0.415 1.1606-1.5172 2-2.8164 2h-1v-1h1c1.1105 0 2-0.8895 2-2s-0.8895-2-2-2h-1v-1h1c1.2992 0 2.4014 0.8394 2.8164 2h3.6465c0.01533-0.04162 0.02781-0.08385 0.04492-0.125h0.0059c0.0768-0.18465 0.16358-0.36655 0.27539-0.54102 0.32847-0.51241 0.78953-0.99407 1.3828-1.5566 0.07746-0.077515 0.09575-0.09718 0.08398-0.18555-0.0039-0.029456-0.0098-0.065588-0.01953-0.11523-0.0097-0.049646-0.02707-0.10881-0.05078-0.17578-0.07117-0.20082-0.20525-0.47633-0.39258-0.80078-0.06244-0.10815-0.1216-0.20737-0.17969-0.29883-0.11618-0.18292-0.22259-0.33143-0.31445-0.43945-0.04593-0.054011-0.08883-0.097608-0.12695-0.13086-0.1525-0.13301-0.15576-0.13356-0.29688-0.095703-0.78158 0.23175-1.4324 0.38782-2.0391 0.41602-0.45395 0.02109-0.88867-0.038726-1.2949-0.19336-0.13542-0.051544-0.26801-0.11438-0.39648-0.1875-0.0023-0.00131-0.0055-0.00252-0.0078-0.00391-0.0029-0.0017-0.0049-0.00221-0.0078-0.00391v-0.00195c-0.50974-0.29882-0.89772-0.7355-1.1758-1.2734-0.20957-0.40534-0.36894-0.86559-0.51562-1.4062-0.04889-0.18022-0.09498-0.36968-0.14258-0.56836-0.03787-0.14112-0.03707-0.14146-0.22852-0.20703-0.19144-0.06556-0.56687-0.10547-1.0664-0.10547zm0 7.875c0.61668-5.6e-5 1.125 0.50834 1.125 1.125 2.8e-5 0.30834-0.12786 0.5888-0.33203 0.79297-0.05104 0.05104-0.10612 0.09805-0.16602 0.13867-0.1198 0.08125-0.25651 0.13972-0.40234 0.16992-0.07292 0.01511-0.14753 0.02344-0.22461 0.02344-0.07709 7e-6 -0.15169-0.0083-0.22461-0.02344-0.14584-0.0302-0.28255-0.08867-0.40234-0.16992-0.0599-0.04063-0.11498-0.08763-0.16602-0.13867s-0.09805-0.10612-0.13867-0.16602c-0.08159-0.12031-0.13983-0.2558-0.16992-0.40234-0.01511-0.07292-0.02344-0.14753-0.02344-0.22461-7e-6 -0.07709 0.0083-0.15169 0.02344-0.22461 0.1057-0.51042 0.56199-0.90039 1.1016-0.90039z" style="fill-opacity:.75;fill:currentColor"/>
</svg>
