<?xml version="1.0" encoding="UTF-8" standalone="no"?>
<svg
   xmlns:dc="http://purl.org/dc/elements/1.1/"
   xmlns:cc="http://creativecommons.org/ns#"
   xmlns:rdf="http://www.w3.org/1999/02/22-rdf-syntax-ns#"
   xmlns:svg="http://www.w3.org/2000/svg"
   xmlns="http://www.w3.org/2000/svg"
   version="1.1"
   height="22"
   width="22"
   id="a">
  <metadata
     id="c">
    <rdf:RDF>
      <cc:Work
         rdf:about="">
        <dc:format>image/svg+xml</dc:format>
        <dc:type
           rdf:resource="http://purl.org/dc/dcmitype/StillImage" />
        <dc:title></dc:title>
      </cc:Work>
    </rdf:RDF>
  </metadata>
  <defs
     id="e">
    <style
       type="text/css"
       id="current-color-scheme">.ColorScheme-Text {color:#090d11;}.ColorScheme-Background{color:#ffffff;}</style>
  </defs>
  <path
     id="d" class="ColorScheme-Text" 
     d="M 5 3 C 3.9093 3 3 3.9093 3 5 L 3 14 C 3 15.0907 3.9093 16 5 16 L 9 16 C 9.55228 16 10 16.4477 10 17 L 12 17 C 12 16.4477 12.44772 16 13 16 L 17 16 C 18.0907 16 19 15.0907 19 14 L 19 5 C 19 3.9093 18.0907 3 17 3 L 5 3 z M 4 4 L 18 4 L 18 15 L 4 15 L 4 4 z M 7 5 C 7 6.1104918 6.1104918 7 5 7 L 5 8 C 6.6509319 8 8 6.6509319 8 5 L 7 5 z M 14 5 C 14 6.6509319 15.349068 8 17 8 L 17 7 C 15.889508 7 15 6.1104918 15 5 L 14 5 z M 5 11 L 5 12 C 6.1104918 12 7 12.889508 7 14 L 8 14 C 8 12.349068 6.6509319 11 5 11 z M 17 11 C 15.349068 11 14 12.349068 14 14 L 15 14 C 15 12.889508 15.889508 12 17 12 L 17 11 z M 6 18 L 6 19 L 16 19 L 16 18 L 6 18 z "
     style="fill:currentColor;fill-opacity:0.75" />
  <path
     id="b" class="ColorScheme-Background" 
     d="M 3.5 2 C 2.67765 2 2 2.6776 2 3.5 L 2 15.5 C 2 16.3224 2.67765 17 3.5 17 L 10 17 C 10 16.4477 9.55228 16 9 16 L 3.5 16 C 3.21435 16 3 15.7856 3 15.5 L 3 3.5 C 3 3.2144 3.21435 3 3.5 3 L 18.5 3 C 18.78565 3 19 3.2144 19 3.5 L 19 15.5 C 19 15.7856 18.78565 16 18.5 16 L 13 16 C 12.44772 16 12 16.4477 12 17 L 18.5 17 C 19.32235 17 20 16.3224 20 15.5 L 20 3.5 C 20 2.6776 19.32235 2 18.5 2 L 3.5 2 z M 12 17 L 10 17 L 10 18 L 12 18 L 12 17 z M 6 4 C 6 5.1104918 5.1104918 6 4 6 L 4 7 C 5.6509319 7 7 5.6509319 7 4 L 6 4 z M 15 4 C 15 5.6509319 16.349068 7 18 7 L 18 6 C 16.889508 6 16 5.1104918 16 4 L 15 4 z M 4 12 L 4 13 C 5.1104918 13 6 13.889508 6 15 L 7 15 C 7 13.349068 5.6509319 12 4 12 z M 18 12 C 16.349068 12 15 13.349068 15 15 L 16 15 C 16 13.889508 16.889508 13 18 13 L 18 12 z M 6 19 L 6 20 L 16 20 L 16 19 L 6 19 z "
     style="fill:currentColor;fill-opacity:0.5" />
</svg>
