<?xml version="1.0" encoding="UTF-8" standalone="no"?>
<svg
   xmlns:dc="http://purl.org/dc/elements/1.1/"
   xmlns:cc="http://creativecommons.org/ns#"
   xmlns:rdf="http://www.w3.org/1999/02/22-rdf-syntax-ns#"
   xmlns:svg="http://www.w3.org/2000/svg"
   xmlns="http://www.w3.org/2000/svg"
   id="a"
   width="22"
   height="22"
   version="1.1">
  <metadata
     id="c">
    <rdf:RDF>
      <cc:Work
         rdf:about="">
        <dc:format>image/svg+xml</dc:format>
        <dc:type
           rdf:resource="http://purl.org/dc/dcmitype/StillImage" />
        <dc:title></dc:title>
      </cc:Work>
    </rdf:RDF>
  </metadata>
  <defs
     id="e">
    <style
       id="current-color-scheme"
       type="text/css">.ColorScheme-Text {color:#090d11;}.ColorScheme-Background{color:#ffffff;}</style>
  </defs>
  <path
     id="b"
     d="M 9,0 C 7.3598335,0 6.0097656,1.3500679 6.0097656,2.9902344 V 9.378906 C 6.0080647,9.395756 6,9.410422 6,9.427734 v 0.652344 c -1.6833238,-0.347529 -3.4705924,0.302101 -4.34375,1.814453 -6.571e-4,0.002 -0.00131,0.0039 -0.00195,0.0059 l -0.1816407,0.314453 c -0.4756982,0.826911 -0.5597417,1.826915 -0.1660156,2.685547 0.3889829,0.84829 1.1701812,1.432638 2.0703125,1.673828 l 2.6328125,0.705078 v -0.269531 c 0,1.359976 1.0173499,2.332648 2.2695313,2.689453 0.3389825,1.284237 1.336158,2.328085 2.7207,2.328085 h 5 c 1.281614,0 2.221834,-0.8992 2.625,-2.050782 0.181875,-0.04465 0.318834,-0.182502 0.361328,-0.365234 C 20.117476,19.201308 21,18.274927 21,17.009766 V 10.990234 C 21,9.350068 19.649932,8 18.009766,8 17.700932,8 17.46784,8.19643 17.185547,8.285156 16.688358,7.5863354 16.008546,7 15.03125,7 14.674728,7 14.477636,7.2175445 14.1875,7.3339844 13.687168,6.6047705 12.995576,6 12,6 V 3.5 3 h 0.5 4 C 16.777,3 17,2.777 17,2.5 17,2.223 16.777,2 16.5,2 H 13.605469 12.5 11.806641 10.714844 l 0.002,0.00195 c 0.0779,0.1343206 0.1386,0.2782014 0.183594,0.4296875 0.0065,0.020992 0.01373,0.041229 0.01953,0.0625 0.04159,0.1594763 0.07031,0.3241426 0.07031,0.4960938 V 3 H 11 v 1 h -0.0098 v 2.5175781 c -0.0065,0.032607 -0.01953,0.063031 -0.01953,0.097656 v 1.8046879 2.15039 c 0,0.04635 0.01389,0.08833 0.02539,0.13086 6.42e-4,0.0024 0.0032,0.0035 0.0039,0.0059 V 11 h 0.226562 c 0.07007,0.04155 0.147982,0.07032 0.236329,0.07031 0.0879,0 0.165081,-0.02968 0.236328,-0.07031 H 12 V 8 7 c 0.681451,0 1.216573,0.3804917 1.541016,0.9238281 0.108147,0.1811119 0.193065,0.3807479 0.251953,0.5898439 0.04212,-0.0351 0.08871,-0.0647 0.132812,-0.09766 v 1.08789 1.314453 0.173829 c 0,0.276994 0.219338,0.499996 0.492188,0.5 0.27285,0 0.492187,-0.223003 0.492187,-0.5 V 9.029293 9.023393 8.013627 C 14.95103,8.010354 14.98932,8 15.03125,8 c 0.655264,0 1.165769,0.357948 1.492188,0.869141 0.108805,0.1704 0.19727,0.357799 0.263671,0.554687 0.02954,-0.02325 0.06289,-0.04092 0.09375,-0.0625 v 1.056641 0.589843 0.40625 c 0,0.277004 0.219338,0.500003 0.492188,0.5 0.27285,0 0.492187,-0.222999 0.492187,-0.5 V 10.023438 9.011719 C 17.913596,9.008199 17.960536,9 18.009766,9 19.103627,9 20,9.896373 20,10.990234 v 6.019532 C 20,18.103627 19.103491,18.99996 18.009766,19 c -0.0036,0 -0.0062,-0.0019 -0.0098,-0.002 V 19 h -1 c 0,0 -0.5,0.223 -0.5,0.5 0,0.212544 0.13212,0.39028 0.318359,0.462891 l 0.0059,0.002 C 16.879145,19.985457 16.93767,20 17,20 h 0.734375 C 17.390261,20.608497 16.7448,21.027344 16,21.027344 h -5 c -1.099358,0 -2,-0.900644 -2,-2 V 19 C 8.5898022,19 8.2064711,18.873468 7.8886719,18.658203 7.7823198,18.586166 7.6842454,18.504697 7.59375,18.414062 7.232924,18.053225 7.0097656,17.556602 7.0097656,17.009766 V 16.511719 L 3.6367188,15.607422 C 2.980703,15.431643 2.4634329,15.026496 2.2148438,14.484375 c -0.2483171,-0.541526 -0.2055889,-1.197613 0.125,-1.771484 l 0.1816406,-0.316407 v -0.002 c 0.2486616,-0.430694 0.6110352,-0.779141 1.0371094,-1.027343 0.2130369,-0.124103 0.4416697,-0.222845 0.6796874,-0.294922 0.2380178,-0.07208 0.4862445,-0.117028 0.7363282,-0.132813 0.3334448,-0.02103 0.6718992,0.0097 1,0.09766 L 6,11.042969 v 0.96875 c 0,0.0249 0.010192,0.04645 0.013672,0.07031 v 0.002 c 0.036062,0.241075 0.2348973,0.427735 0.4863281,0.427735 0.1637877,0 0.3014874,-0.08213 0.3925781,-0.203125 0.030744,-0.0406 0.057323,-0.08475 0.076172,-0.132813 C 6.988315,12.124745 7,12.06988 7,12.011719 V 11.3125 l 0.00977,0.002 V 2.9902344 C 7.0097695,2.8535017 7.024139,2.7190398 7.050786,2.5898438 7.2373079,1.6854707 8.0428715,1 9,1 H 11.208984 12.5 13.605469 16.5 C 16.777,1 17,0.777 17,0.5 17,0.223 16.777,0 16.5,0 H 9.046875 C 9.041275,0 9.036795,0.00373 9.031245,0.00391 9.020564,0.0037914 9.010711,0 9,0 Z"
     class="ColorScheme-Background"
     style="fill:currentColor;fill-opacity:0.5" />
  <path
     id="d"
     d="M 9 1 C 8.8705957 1 8.7438133 1.0151301 8.6210938 1.0390625 C 8.5821255 1.0466653 8.5459514 1.0604518 8.5078125 1.0703125 C 8.4271027 1.0911931 8.3479688 1.1120965 8.2714844 1.1425781 C 8.2285318 1.1596774 8.1879304 1.1812185 8.1464844 1.2011719 C 8.0752439 1.2355094 8.0037921 1.2721801 7.9375 1.3144531 C 7.9004309 1.338119 7.8654418 1.3646302 7.8300781 1.390625 C 7.7720269 1.4332621 7.7171349 1.4788289 7.6640625 1.5273438 C 7.6232399 1.5647046 7.5825348 1.6019904 7.5449219 1.6425781 C 7.4985401 1.6926132 7.4571453 1.7462236 7.4160156 1.8007812 C 7.3882662 1.8376035 7.3591808 1.8733838 7.3339844 1.9121094 C 7.2865423 1.9850343 7.2447693 2.0635718 7.2070312 2.1425781 C 7.1917456 2.1746553 7.1737435 2.2053005 7.1601562 2.2382812 C 7.1133711 2.3515448 7.0760296 2.4674271 7.0507812 2.5898438 C 7.0241346 2.7190399 7.0097656 2.8535017 7.0097656 2.9902344 L 7.0097656 11.314453 L 7 11.3125 L 7 12.011719 C 7 12.06988 6.988315 12.124701 6.96875 12.175781 C 6.949901 12.223844 6.9233221 12.267994 6.8925781 12.308594 C 6.8908268 12.310905 6.8904541 12.314122 6.8886719 12.316406 L 7.3808594 12.447266 C 7.6980211 12.531846 8.0092796 12.293091 8.0097656 11.964844 L 8.0097656 2.9902344 C 8.0097656 2.4335075 8.4432731 2 9 2 C 9.556727 2 9.9902334 2.4335066 9.9902344 2.9902344 L 9.9902344 10.59375 C 9.9898174 10.94321 10.338846 11.185311 10.666016 11.0625 C 10.619306 11.08007 10.620245 11.078547 10.671875 11.060547 C 10.834586 11.004527 10.957057 10.868771 10.996094 10.701172 C 10.984594 10.658642 10.970703 10.616663 10.970703 10.570312 L 10.970703 8.4199219 L 10.970703 6.6152344 C 10.970703 6.5806094 10.983734 6.5501851 10.990234 6.5175781 L 10.990234 4 L 11 4 L 11 3 L 10.990234 3 L 10.990234 2.9902344 C 10.990298 2.8183427 10.963156 2.6525897 10.919922 2.4941406 C 10.919757 2.493535 10.920089 2.4927914 10.919922 2.4921875 C 10.914377 2.4721818 10.906558 2.4533513 10.900391 2.4335938 C 10.900212 2.4330151 10.90057 2.432219 10.900391 2.4316406 C 10.855397 2.2801545 10.794697 2.1362737 10.716797 2.0019531 L 10.714844 2 L 10.724609 2 C 10.378943 1.4042011 9.7410699 1 9 1 z M 12 1 C 11.723 1 11.5 1.223 11.5 1.5 C 11.5 1.777 11.723 2 12 2 L 12.5 2 L 13.5 2 L 13.605469 2 L 16.5 2 C 16.777 2 17 1.777 17 1.5 C 17 1.223 16.777 1 16.5 1 L 13.605469 1 L 13.5 1 L 12.5 1 L 12 1 z M 12.5 3 C 12.223 3 12 3.223 12 3.5 C 12 3.777 12.223 4 12.5 4 L 13 4 L 13.5 4 L 14.5 4 C 14.777 4 15 3.777 15 3.5 C 15 3.223 14.777 3 14.5 3 L 12.5 3 z M 12 7 L 12 8 C 12.556727 8 12.990233 8.4335074 12.990234 8.9902344 L 12.990234 10.5 C 12.990262 10.776131 13.214103 10.999972 13.490234 11 L 13.541016 11 C 13.689918 10.99976 13.830967 10.93317 13.925781 10.818359 L 13.925781 9.5039062 L 13.925781 8.4160156 C 13.881679 8.4489756 13.835089 8.4785719 13.792969 8.5136719 C 13.734081 8.3045759 13.649163 8.10494 13.541016 7.9238281 C 13.443767 7.7609676 13.320898 7.6199857 13.1875 7.4921875 C 13.098669 7.407233 13.007849 7.3228685 12.904297 7.2578125 C 12.789506 7.1856957 12.662807 7.1330299 12.53125 7.0898438 C 12.498585 7.079128 12.465285 7.0692973 12.431641 7.0605469 C 12.294598 7.0249209 12.1524 7 12 7 z M 15.03125 8 C 14.98932 8 14.951052 8.0103989 14.910156 8.0136719 L 14.910156 9.0234375 C 14.951856 9.0183375 14.987906 9 15.03125 9 C 15.587977 9 16.021481 9.4335064 16.021484 9.9902344 L 16.021484 10.597656 C 16.021524 10.806729 16.15163 10.993707 16.347656 11.066406 C 16.438696 11.099986 16.451269 11.102739 16.382812 11.074219 C 16.548704 11.143149 16.738824 11.117802 16.880859 11.007812 L 16.880859 10.417969 L 16.880859 9.3613281 C 16.849999 9.3829081 16.816649 9.4005781 16.787109 9.4238281 C 16.720708 9.2269401 16.632243 9.0395406 16.523438 8.8691406 C 16.426278 8.7169818 16.306491 8.5844468 16.177734 8.4648438 C 16.090388 8.3837678 16.001462 8.3041156 15.900391 8.2421875 C 15.788544 8.173657 15.664928 8.1247222 15.537109 8.0839844 C 15.507657 8.0746064 15.477536 8.0663475 15.447266 8.0585938 C 15.315075 8.0247609 15.178509 8 15.03125 8 z M 18.009766 9 C 17.960536 9 17.913596 9.0081988 17.865234 9.0117188 L 17.865234 10.023438 C 17.913861 10.016203 17.958657 10 18.009766 10 C 18.566493 10 19 10.433507 19 10.990234 L 19 17.009766 C 19 17.566493 18.566493 18 18.009766 18 C 17.898548 18 17.789521 17.97648 17.671875 17.933594 C 17.345152 17.814047 16.999234 18.056391 17 18.404297 L 17 19 L 18 19 L 18 18.998047 C 18.0036 18.998147 18.006166 19 18.009766 19 C 18.419307 18.999985 18.801616 18.872871 19.119141 18.658203 C 19.225074 18.586454 19.323851 18.506221 19.414062 18.416016 C 19.774905 18.055195 20 17.556696 20 17.009766 L 20 10.990234 C 20 9.8963734 19.103627 9 18.009766 9 z M 17 19 L 10 19 L 10 18.408203 C 9.999786 18.062653 9.6575152 17.821463 9.3320312 17.9375 C 9.2166356 17.978646 9.109181 18 9 18 C 8.4432729 18 8.0097656 17.566493 8.0097656 17.009766 L 8.0097656 16.128906 C 8.0094426 15.902667 7.8572591 15.704828 7.6386719 15.646484 L 3.8945312 14.642578 C 3.4747893 14.530109 3.2331261 14.308419 3.1230469 14.068359 C 3.0129677 13.8283 3.0125583 13.547764 3.2070312 13.210938 L 3.2070312 13.208984 L 3.3886719 12.894531 C 3.7776868 12.220738 4.8776851 11.777114 5.7167969 12.001953 L 6.0136719 12.082031 C 6.0101919 12.058171 6 12.036619 6 12.011719 L 6 11.042969 L 5.9746094 11.037109 C 5.6465086 10.949149 5.3080542 10.918423 4.9746094 10.939453 C 4.7245257 10.955238 4.476299 11.000186 4.2382812 11.072266 C 4.0002635 11.144343 3.7716308 11.243086 3.5585938 11.367188 C 3.3460068 11.491026 3.1492686 11.640986 2.9746094 11.8125 C 2.8870387 11.898429 2.8041908 11.990823 2.7285156 12.087891 C 2.6529177 12.185002 2.5836498 12.286858 2.5214844 12.394531 L 2.5214844 12.396484 L 2.3398438 12.712891 C 2.0092548 13.286762 1.9665267 13.942849 2.2148438 14.484375 C 2.4634328 15.026496 2.9807029 15.431643 3.6367188 15.607422 L 7.0097656 16.511719 L 7.0097656 17.009766 C 7.0097656 17.146475 7.0242222 17.279108 7.0507812 17.408203 C 7.0509093 17.408827 7.0506526 17.409533 7.0507812 17.410156 C 7.0773333 17.538592 7.1158103 17.66301 7.1660156 17.78125 C 7.2671423 18.019096 7.413337 18.233632 7.59375 18.414062 C 7.6842454 18.504697 7.7823198 18.586166 7.8886719 18.658203 C 8.0298328 18.75382 8.1879313 18.825522 8.3515625 18.882812 C 8.3915368 18.896805 8.4315899 18.908469 8.4726562 18.919922 C 8.6418211 18.967108 8.8166462 19 9 19 L 9 19.027344 C 9 20.1267 9.9006424 21.027344 11 21.027344 L 16 21.027344 C 16.7448 21.027344 17.390261 20.608497 17.734375 20 L 17 20 C 16.93767 20 16.879139 19.98541 16.824219 19.964844 L 16.818359 19.962891 C 16.63212 19.89028 16.5 19.712544 16.5 19.5 C 16.5 19.223 17 19 17 19 z "
     style="fill:currentColor;fill-opacity:0.75"
     class="ColorScheme-Text" />
</svg>
