<?xml version="1.0" encoding="UTF-8"?>
<svg id="c" width="22" height="22" version="1.1" xmlns="http://www.w3.org/2000/svg" xmlns:cc="http://creativecommons.org/ns#" xmlns:dc="http://purl.org/dc/elements/1.1/" xmlns:rdf="http://www.w3.org/1999/02/22-rdf-syntax-ns#">
	<metadata id="a">
		<rdf:RDF>
			<cc:Work rdf:about="">
				<dc:format>image/svg+xml</dc:format>
				<dc:type rdf:resource="http://purl.org/dc/dcmitype/StillImage"/>
			</cc:Work>
		</rdf:RDF>
	</metadata>
	<defs id="e">
		<style id="current-color-scheme" type="text/css">.ColorScheme-Text {color:#090d11;}.ColorScheme-Background{color:#ffffff;}</style>
	</defs>
	<path class="ColorScheme-Background" d="m11 10v7l7-7z" style="fill-opacity:.5;fill:currentColor"/>
	<path class="ColorScheme-Text" d="m11 10v7l7-7z" style="fill-opacity:.5;fill:currentColor"/>
	<path class="ColorScheme-Text" d="m3 3c-0.554 0-1 0.446-1 1v14c0 0.554 0.446 1 1 1h16c0.554 0 1-0.446 1-1v-14c0-0.554-0.446-1-1-1zm1 2h14v12h-14z" style="color:#090d11;fill-opacity:.75;fill:currentColor"/>
	<path class="ColorScheme-Background" d="m2 2c-0.554 0-1 0.446-1 1v17c0 0.554 0.446 1 1 1h18c0.554 0 1-0.446 1-1v-17c0-0.554-0.446-1-1-1zm0 1h18v16h-18zm16 7.293-6.707 6.707h1.4141l5.293-5.293v-1.4141z" style="color:#ffffff;fill-opacity:.5;fill:currentColor"/>
</svg>
