<?xml version="1.0" encoding="UTF-8"?>
<svg id="d" width="22" height="22" version="1.1" xmlns="http://www.w3.org/2000/svg" xmlns:cc="http://creativecommons.org/ns#" xmlns:dc="http://purl.org/dc/elements/1.1/" xmlns:rdf="http://www.w3.org/1999/02/22-rdf-syntax-ns#">
	<metadata id="a">
		<rdf:RDF>
			<cc:Work rdf:about="">
				<dc:format>image/svg+xml</dc:format>
				<dc:type rdf:resource="http://purl.org/dc/dcmitype/StillImage"/>
				<dc:title/>
			</cc:Work>
		</rdf:RDF>
	</metadata>
	<defs id="f">
		<style id="current-color-scheme" type="text/css">.ColorScheme-Text {color:#090d11;}.ColorScheme-Background{color:#ffffff;}</style>
	</defs>
	<g id="c" transform="translate(3363.4,-2093.7)">
		<path id="e" class="ColorScheme-Text" transform="translate(-3364.4,2092.7)" d="m19.021 4.0059-1.416 1.4121c2.1421 2.1368 2.8761 5.2974 1.8926 8.1563-0.9834 2.859-3.5104 4.9064-6.5176 5.2812l0.25195 1.9824c3.7607-0.4687 6.9301-3.0371 8.1602-6.6133 0.9227-2.6822 0.63493-5.5857-0.69727-7.998-0.4441-0.804-1.0035-1.5523-1.6738-2.2207zm-14.043 0.00586c-0.6701 0.6684-1.2298 1.4168-1.6738 2.2207-1.332 2.4118-1.6199 5.3157-0.69727 7.998 1.2303 3.5763 4.399 6.1445 8.1602 6.6133l0.25-1.9824c-3.0067-0.3748-5.5322-2.4205-6.5156-5.2793-0.9834-2.8589-0.25198-6.023 1.8906-8.1602l-1.4141-1.4102zm7.0215 0.87891c-3.361 0-6.1074 2.7455-6.1074 6.1074 0 3.362 2.7464 6.1094 6.1074 6.1094 3.3611 0 6.1074-2.7474 6.1074-6.1094 0-3.3619-2.7463-6.1074-6.1074-6.1074zm0 1.998c0.46694 0 0.90706 0.094847 1.3242 0.23633 0.16468 0.21141 0.47312 0.7208 0.53906 0.75391 0.2836 0.1418 0.485 0.44584 0.6875 0.64844 0.064 0.064 0.18834 0.10611 0.24414 0.16211 0.046 0.045 0.44248 0.082016 0.48438 0.041016 0.01934-0.018713 0.0491-0.062826 0.07617-0.10156 0.47138 0.66892 0.75195 1.4827 0.75195 2.3691 0 1.1099-0.4375 2.1087-1.1445 2.8457-0.05412-0.12767-0.14566-0.28945-0.16797-0.33398-0.082-0.1623-0.3265-0.24414-0.4043-0.24414-0.02 0-0.24414 0.04202-0.24414 0.04102 0-0.03 0.06108-0.02402 0.08008-0.04102 0.075-0.074 0.24414-0.38959 0.24414-0.52539 0-0.084 0.07999-0.28516-0.04101-0.28516-0.1098 0-0.2229 0.10021-0.2832 0.16211-0.1859 0.1863-0.78996 0.41644-1.1348 0.24414-0.033-0.018-0.04808-0.06408-0.08008-0.08008-0.097-0.05-0.13048-0.1362-0.08008-0.2832 0.063-0.1912 0.1268-0.2312 0.2832-0.2832 0.079-0.026 0.20184-0.08085 0.24414-0.12305 0.064-0.064 0.37963 0.31 0.48633 0.2832 0.1699-0.043 0.42329-0.17132 0.52539-0.32422 0.03-0.045 0.04308-0.12371 0.08008-0.16211 0.099-0.1001 0.46611 0.05898 0.56641-0.04102 0.2632-0.2633-0.58179-0.5097-0.12109-0.9707 0.049-0.05-0.01298-0.2352 0.04102-0.2832 0.1073-0.106 0.40839-0.01405 0.52539-0.12305 0.054-0.055 0.32422 0.23518 0.32422-0.32422 0-0.075-0.04102-0.13147-0.04102-0.20117 0-0.158-0.33221-1.0858-0.44531-0.97266-0.2038 0.2039 0.5179 0.97266-0.4043 0.97266-0.076 0-0.10501-0.022016-0.16211-0.041016-0.2011-0.065-0.37894-0.41213-0.52734-0.48633-0.019-0.013-0.31102-0.055078-0.32422-0.080078-0.013-0.018-0.16779-0.19735-0.24219-0.12305-0.1668 0.1667 0.32632 0.78986 0.20312 0.85156-0.1248 0.062-0.37751-0.2153-0.44531-0.2832-0.041-0.041-0.37803-0.35264-0.48633-0.24414-0.018 0.018-0.06795 0.066016-0.12305 0.041016-0.045-0.022-0.2272-0.17591-0.2832-0.16211-0.2114 0.053-0.29339 0.1877-0.52539 0.2832-0.1627-0.1284-0.32023-0.2804-0.48633-0.4043-0.1283-0.095-0.33055 0.28662-0.40625 0.32422-0.1416 0.07-0.30001 0.089109-0.44531 0.16211-0.2004 0.1001-0.2981-0.10981-0.4043-0.16211-0.1794-0.089-0.3298 0.12882-0.4043 0.20312-0.096 0.096-0.58545-0.052791-0.68945 0.16211-0.15 0.3002-0.44531 0.86341-0.44531 1.2539 0 0.091-0.041016 0.15944-0.041016 0.24414 0 0.02 0.013 0.15631 0 0.16211-0.1466 0.074-0.34721-0.31252-0.56641-0.20312-0.064691 0.03335-0.11162 0.08583-0.16211 0.13477-0.026844-0.19098-0.056641-0.38131-0.056641-0.58008 0-2.2809 1.8271-4.1094 4.1074-4.1094zm-0.33984 3.2598c0.34114-0.06595 0.75255 0.12906 0.98633 0.36328 0.027 0.027 0.09875 0.05289 0.12305 0.12109 0.021 0.065 0.02502 0.13732 0.04102 0.20313 0.032 0.095 0.14228 0.24333 0.08008 0.36523-0.1074 0.2136-0.46511 0.36431-0.56641 0.56641-0.082 0.163-0.04941 0.49502-0.16211 0.60742-0.025 0.025-0.31082 0.05308-0.32422 0.08008-0.1147 0.2269 0.23199 0.46715 0.12109 0.68945-0.09 0.1821-0.50178 0.19498-0.64648 0.48438-0.055 0.1123-0.24414 0.02305-0.24414 0.40625 0 0.3993 0.46475 0.1708 0.68945 0.2832 0.2108 0.105 0.4826 0.13989 0.6875 0.24219 0.05 0.024 0.47463 0.30042 0.48633 0.32422 0.01302 0.02605 0.01548 0.06662 0.02148 0.10156-0.30666 0.07229-0.62336 0.12109-0.95312 0.12109-0.94226 0-1.7976-0.32434-2.4883-0.85156 0.028838-0.0152 0.05925-0.04166 0.097656-0.09961 0.038-0.055 0.071016-0.29898 0.041016-0.36328-0.062-0.1247-0.27352-0.05901-0.32422-0.16211-0.089-0.1794-0.054009-0.86606-0.16211-0.97266-0.044-0.045-0.030078-0.19249-0.080078-0.24219-0.062-0.061-0.062694-0.22566-0.12109-0.28516-0.3464-0.3463-0.070891-1.2219 0.16211-1.457 0.1858-0.1856 0.39298 0.5048 0.48438 0.6875 0.111 0.2207 0.40326 0.1194 0.56836 0.2832 0.1084 0.1099 0.25198 0.25374 0.36328 0.36524 0.013 0.013 0.15501 0.013 0.16211 0 0.1404-0.1403 0.18-0.31919 0.2832-0.52539 0.016-0.031 0-0.16211 0-0.16211 0.059 0 0.10241 0.1208 0.16211 0 0.049-0.096-0.12078-0.40591-0.08008-0.44531 0.048-0.048 0.3777 0.053 0.4043 0 0.077-0.1558-0.17889-0.51016-0.12109-0.56836 0.0884-0.08837 0.19488-0.13817 0.30859-0.16016zm2.9746 3.7246c0.04584-0.02662 0.16339 0.0195 0.25 0.05469-0.04392 0.04328-0.09674 0.07592-0.14258 0.11719-0.046-0.01937-0.08606-0.04566-0.10938-0.0918-0.022-0.04373-0.01741-0.06883 2e-3 -0.08008z" style="fill-opacity:.75;fill:currentColor"/>
		<path id="b" class="ColorScheme-Background" transform="translate(-3364.4,2092.7)" d="m19.842 3.1172-0.84766 0.85156c0.17812 0.17848 0.34738 0.36332 0.50976 0.55273 0.04428 0.05093 0.08383 0.10456 0.12695 0.15625 0.40572 0.48633 0.76338 1.0038 1.0645 1.5488 1.3322 2.4123 1.62 5.3157 0.69727 7.998-1.2301 3.5762-4.3995 6.1446-8.1602 6.6133l-0.0039-0.03125c-0.02164 0.0027-0.04278 0.0072-0.06445 0.0098l0.14258 1.1934c4.2169-0.5008 7.7789-3.3761 9.1699-7.3965 1.0432-3.0153 0.72788-6.2799-0.76172-8.9941-0.4966-0.9047-1.1224-1.7498-1.873-2.502zm-15.684 0.00586c-0.7506 0.7522-1.3764 1.5973-1.873 2.502-1.4896 2.7142-1.8049 5.9788-0.76172 8.9941 1.391 4.0204 4.953 6.8957 9.1699 7.3965l0.14258-1.1953c-0.02168-0.0026-0.04282-0.0071-0.06445-0.0098l-0.0039 0.03711c-3.7612-0.4688-6.9299-3.037-8.1602-6.6133-0.9226-2.6823-0.63473-5.5862 0.69727-7.998 0.2264-0.40992 0.48364-0.80383 0.76953-1.1816 0.28191-0.37819 0.5922-0.73995 0.93164-1.0801l-0.84766-0.85156zm7.8418 0.59961c-4.0202 0-7.293 3.2696-7.293 7.2852s3.2728 7.2832 7.293 7.2832c4.0201 0 7.293-3.2676 7.293-7.2832s-3.2729-7.2852-7.293-7.2852zm0 1.1719c3.3611 0 6.1074 2.7455 6.1074 6.1074 0 3.362-2.7463 6.1094-6.1074 6.1094-3.361 0-6.1074-2.7474-6.1074-6.1094 0-3.3619 2.7464-6.1074 6.1074-6.1074zm0 1.998c-2.2803 0-4.1074 1.8285-4.1074 4.1094 0 0.1988 0.029641 0.38908 0.056641 0.58008 0.0505-0.0488 0.097109-0.10176 0.16211-0.13476 0.020721-0.01034 0.040188 3.33e-4 0.060547-2e-3 0.00383-2e-3 0.00588-0.0059 0.00977-0.0078 0.18751-0.09345 0.35916 0.16663 0.49609 0.19141 0.00589-0.03128 0-0.12328 0-0.14062 0-0.0847 0.041016-0.15314 0.041016-0.24414 0-0.3905 0.29531-0.95371 0.44531-1.2539 0.104-0.2151 0.59345-0.066109 0.68945-0.16211 0.0745-0.0743 0.2249-0.29212 0.4043-0.20312 0.0079 0.00387 0.01758 0.014126 0.02539 0.019531 0.0027 0.00123 0.0051 5.801e-4 0.0078 0.00195 0.053 0.025 0.0972 0.073741 0.1582 0.11914 0.0132 0.010221 0.03325 0.01948 0.05078 0.033203 0.04669 0.016064 0.09807 0.020268 0.16211-0.011719 0.1453-0.0731 0.30371-0.092109 0.44531-0.16211 0.0757-0.0376 0.27795-0.41922 0.40625-0.32422 0.1661 0.1239 0.32363 0.2759 0.48633 0.4043 0.232-0.0955 0.31409-0.2302 0.52539-0.2832 0.056-0.0138 0.2382 0.14011 0.2832 0.16211 0.0551 0.025 0.10505-0.023016 0.12305-0.041016 0.1083-0.1085 0.44533 0.20314 0.48633 0.24414 0.06283 0.062928 0.28064 0.29538 0.41211 0.28125 0.02029-0.01913 0.02218-0.04754 0-0.10742-0.076-0.205-0.32017-0.59224-0.19727-0.71484 0.0038-4e-3 0.01081 0.00201 0.01563 0 0.0047-0.00846 0.0048-0.020398 0.01172-0.027344 0.07365-0.07355 0.22455 0.10009 0.24024 0.12109 1.6e-4 2.142e-4 0.0018 0.00177 2e-3 0.00195 3.93e-4 7.448e-4 0.0089 0.00118 0.0098 0.00195 0.02845 0.025198 0.29602 0.065512 0.31445 0.078125 0.1484 0.0742 0.32624 0.42133 0.52734 0.48633 0.0571 0.019 0.08611 0.041016 0.16211 0.041016 0.09713 0 0.16681-0.011848 0.23047-0.027344 0.06143-0.020381 0.08479-0.041268 0.11524-0.076172 0.1283-0.1476 0.048-0.3979 0-0.5957-0.013-0.05-0.04102-0.12056-0.04102-0.16016 0-0.041 0.01502-0.054125 0.04102-0.078125 0.0123-0.012276 0.02809-0.00833 0.04492 0.00195 0.0057-0.011468 0.0044-0.027847 0.01367-0.037109 0.1131-0.1131 0.44531 0.81466 0.44531 0.97266 0 0.0697 0.04102 0.12617 0.04102 0.20117 0 0.30999-0.07893 0.35614-0.16211 0.34766-0.0096 0.0042-0.01471 0.02282-0.02539 0.02344-0.06064 0-0.12634-0.03532-0.16602-0.03516-0.03876 0.02405-0.08687 0.03786-0.14258 0.04297-0.07653 0.01504-0.16493 0.01475-0.24609 0.02148-0.04309 0.0081-0.08156 0.02133-0.10742 0.04687-0.054 0.048 8e-3 0.2332-0.04101 0.2832-0.4607 0.461 0.38429 0.7074 0.12109 0.9707-0.1003 0.1-0.46741-0.05908-0.56641 0.04102-0.037 0.0384-0.05008 0.11711-0.08008 0.16211-0.1021 0.1529-0.35549 0.28122-0.52539 0.32422-0.03304 0.0083-0.08706-0.02471-0.14648-0.06836-0.03486-0.02326-0.0748-0.05452-0.11328-0.08594-0.0115-0.0094-0.01998-0.01624-0.03125-0.02539-0.03846-0.03165-0.07398-0.05795-0.10742-0.08203-0.04026-0.02564-0.07189-0.03749-0.08789-0.02149-0.0423 0.0421-0.16514 0.09705-0.24414 0.12305-0.1564 0.052-0.2202 0.092-0.2832 0.2832-0.01914 0.05573-0.0156 0.09517-0.01172 0.13477 0.01356 0.04238 0.02848 0.0885 0.07226 0.11133 0.034 0.018 0.04708 0.06508 0.08008 0.08008 0.1693 0.084 0.3824 0.058 0.5957 0 0.106-0.03 0.23176-0.07649 0.31836-0.12109 0.086-0.044 0.15372-0.07164 0.19922-0.11914 0.059-0.058 0.16934-0.1582 0.27734-0.1582 0.0311 0 0.04761 0.01385 0.05664 0.03516 0.09958 0.01612 0.03125 0.19894 0.03125 0.2793 0 0.12797-0.14647 0.40337-0.22656 0.49805 0.04848-0.0086 0.09402-0.01758 0.10156-0.01758 0.076 0 0.31814 0.07868 0.39844 0.23828 6.36e-4 0.0012 0.0032 0.0084 0.0039 0.0098 0.01305 0.01637 0.03755 0.02256 0.04687 0.04102 0.02178 0.04346 0.10966 0.19998 0.16406 0.32617 0.14613-0.15206 0.27721-0.31831 0.40039-0.49024 0.02429-0.03468 0.05489-0.06415 0.07813-0.09961 4.92e-4 -7.31e-4 0.0015-0.0012 2e-3 -2e-3 0.0065-0.0099 0.01115-0.02124 0.01758-0.03125 0.4095-0.63773 0.65039-1.3953 0.65039-2.2148 0-0.788-0.23098-1.5123-0.61133-2.1348-0.04803-0.077179-0.09021-0.15836-0.14258-0.23242-0.02654 0.037982-0.05563 0.081019-0.07422 0.099609-0.0027 0.00267-0.02571-7.38e-5 -0.03125 0.00195-0.0081 0.010663-0.02032 0.02824-0.02734 0.035156-0.042 0.042-0.43482-1.56e-5 -0.47852-0.041016-0.054-0.054-0.17478-0.097056-0.23828-0.16016-0.1988-0.199-0.39738-0.49742-0.67578-0.63672-0.07055-0.035772-0.45679-0.68979-0.5918-0.82812-0.39161-0.12553-0.80135-0.21289-1.2363-0.21289zm-0.35938 3.2715c-0.0985 0.02518-0.19966 0.08157-0.27734 0.16016-0.043 0.043 0.08164 0.23168 0.11914 0.39648 0.013 0.055 0.02 0.12176 0 0.16016-6.89e-4 0.0013-0.0087-0.0011-0.0098 0-0.01249 0.02489-0.09601 0.01361-0.18164 2e-3 -0.09003-0.01225-0.18223-0.02495-0.20508-2e-3 -0.039 0.039 0.12562 0.3421 0.07812 0.4375-0.01743 0.0337-0.03228 0.04268-0.04687 0.04492-0.03803 0.03104-0.07274-0.0085-0.11133-0.02539 0.0028 0.02462 0.01403 0.11185 0 0.13867-0.1013 0.2026-0.13934 0.37958-0.27734 0.51758-9.52e-4 9.51e-4 -0.0096-8.12e-4 -0.01172 0-0.0055 6e-3 -0.0078 0.01366-0.01367 0.01953-0.0071 0.013-0.14911 0.013-0.16211 0-0.1113-0.1115-0.25488-0.25534-0.36328-0.36523-0.1651-0.1638-0.45736-0.0625-0.56836-0.2832-0.075278-0.15047-0.22906-0.63887-0.38477-0.70508-0.015882 0.0038-0.031225 0.0058-0.046875 0.02149-0.231 0.2307-0.50026 1.0913-0.16016 1.4316 0.058 0.058 0.058494 0.21594 0.12109 0.27734 0.048 0.05 0.036125 0.19693 0.078125 0.24023 0.1048 0.1048 0.070103 0.77692 0.1582 0.95312 0.05 0.1 0.25736 0.03816 0.31836 0.16016 0.032 0.064-1.56e-5 0.30272-0.041016 0.35742-0.014341 0.02175-0.026282 0.02511-0.039063 0.03906-0.00202 4e-3 -0.00184 0.01655-0.00391 0.01953-0.032822 0.04881-0.057189 0.06776-0.082031 0.08399 0.30447 0.23353 0.63944 0.42697 0.99609 0.57812 0.45733 0.18014 0.95191 0.28906 1.4766 0.28906 0.32771 0 0.6423-0.0498 0.94727-0.12109-0.0057-0.03832-0.0141-0.07122-0.02149-0.10547-0.02127-0.02946-0.43107-0.2966-0.48047-0.32031-0.2049-0.1023-0.4767-0.13719-0.6875-0.24219-0.2247-0.1124-0.68945 0.1161-0.68945-0.2832 0-0.09801 0.01192-0.16346 0.03125-0.21094 0.01252-0.08071 0.03089-0.14091 0.06445-0.16602 0.053-0.039 0.1308-0.02508 0.1582-0.08008 0.037-0.07 0.0992-0.1137 0.1582-0.1582 0.052-0.038 0.10466-0.09064 0.16016-0.11914 0.064-0.03 0.14642-0.05108 0.19922-0.08008 0.052-0.031 0.09764-0.07364 0.11914-0.11914 0.02196-0.04367 0.01662-0.08805 0.0098-0.13281-0.03444-0.1233-0.12343-0.2489-0.14258-0.37305-0.01235-0.04741-0.0037-0.0939 0.01172-0.14062 0.0032-0.0097-0.0029-0.0196 2e-3 -0.0293 0.014-0.027 0.29416-0.05508 0.31836-0.08008 0.1097-0.1098 0.0782-0.4355 0.1582-0.5957 0.099-0.1985 0.45174-0.34674 0.55664-0.55664 0.059-0.1196-0.04713-0.26332-0.07813-0.35742-0.015-0.064-0.01902-0.13422-0.04102-0.19922s-0.09264-0.09274-0.11914-0.11914c-0.1147-0.1148-0.30032-0.2105-0.47852-0.2793-0.05525-0.02139-0.08906-0.05321-0.14062-0.07031-0.01047-0.0024-0.02076-0.0057-0.03125-0.0078-0.02276-0.0044-0.04236 0-0.06641 0-0.08937-0.01291-0.19257-0.01562-0.27539 0h-2e-3zm2.9922 3.7129c-0.01534 0.0099-0.01523 0.03586 0 0.07227 0.0112 0.0091 0.01782 0.02414 0.03125 0.03125 0.03329 0.01902 0.07142 0.02944 0.11328 0.03906 0.0138-0.01094 0.02705-0.02244 0.04101-0.0332 0.01949-0.01932 0.03928-0.03869 0.05859-0.05859-0.08574-0.03459-0.19752-0.077-0.24219-0.05078h-2e-3z" style="fill-opacity:.5;fill:currentColor"/>
	</g>
</svg>
