<?xml version="1.0" encoding="UTF-8" standalone="no"?>
<!-- Created with Inkscape (http://www.inkscape.org/) -->

<svg
   xmlns:dc="http://purl.org/dc/elements/1.1/"
   xmlns:cc="http://creativecommons.org/ns#"
   xmlns:rdf="http://www.w3.org/1999/02/22-rdf-syntax-ns#"
   xmlns:svg="http://www.w3.org/2000/svg"
   xmlns="http://www.w3.org/2000/svg"
   xmlns:sodipodi="http://sodipodi.sourceforge.net/DTD/sodipodi-0.dtd"
   xmlns:inkscape="http://www.inkscape.org/namespaces/inkscape"
   version="1.1"
   width="22"
   height="22"
   id="svg2"
   inkscape:version="0.92.2 5c3e80d, 2017-08-06"
   sodipodi:docname="ps1.svg">
  <sodipodi:namedview
     pagecolor="#ffffff"
     bordercolor="#666666"
     borderopacity="1"
     objecttolerance="10"
     gridtolerance="10"
     guidetolerance="10"
     inkscape:pageopacity="0"
     inkscape:pageshadow="2"
     inkscape:window-width="1920"
     inkscape:window-height="1033"
     id="namedview6"
     showgrid="true"
     inkscape:zoom="20.85965"
     inkscape:cx="3.272346"
     inkscape:cy="10.126454"
     inkscape:window-x="-10"
     inkscape:window-y="25"
     inkscape:window-maximized="1"
     inkscape:current-layer="svg2"
     inkscape:snap-global="true">
    <inkscape:grid
       type="xygrid"
       id="grid2982"
       empspacing="5"
       visible="true"
       enabled="true"
       snapvisiblegridlinesonly="true" />
  </sodipodi:namedview>
  <defs
     id="defs4" />
  <metadata
     id="metadata7">
    <rdf:RDF>
      <cc:Work
         rdf:about="">
        <dc:format>image/svg+xml</dc:format>
        <dc:type
           rdf:resource="http://purl.org/dc/dcmitype/StillImage" />
        <dc:title></dc:title>
      </cc:Work>
    </rdf:RDF>
  </metadata>
  <path
     id="path1296"
     d="M 4.6464844,5 C 4.2913006,5 4,5.0432327 4,6.9355469 3.2778136,7.3490569 3.0000001,8.004587 3.0000001,9.060547 V 16 C 3.4006397,17.016179 5.0809901,17.591772 6,16 L 7.9999999,13 H 11 14 l 2,3 c 0.91901,1.591772 2.59936,1.016179 3,0 V 9.060547 C 19,8.004587 18.722186,7.3490569 18,6.9355469 18,5.0432327 17.7087,5 17.353516,5 H 14.423828 C 14.112292,5 14,5.3362949 14,6.0000001 H 11 7.9999999 C 7.9999999,5.3362949 7.8877077,5 7.5761719,5 Z M 6.4999999,7.0000001 C 6.7769999,7.0000001 7,7.2230002 7,7.5000002 V 8.5 C 7,8.777 6.7769999,9 6.4999999,9 6.2229999,9 6,8.777 6,8.5 V 7.5000002 c 0,-0.277 0.2229999,-0.5000001 0.4999999,-0.5000001 z M 15.5,8 C 15.777,8 16,8.223 16,8.5 16,8.777 15.777,9 15.5,9 15.223,9 15,8.777 15,8.5 15,8.223 15.223,8 15.5,8 Z m -11,1 h 1 C 5.777,9 6,9.223 6,9.5 6,9.777 5.777,10 5.5,10 h -1 C 4.223,10 4,9.777 4,9.5 4,9.223 4.223,9 4.5,9 Z M 7.5000001,9 H 8.5 C 8.777,9 9,9.223 9,9.5 9,9.777 8.777,10 8.5,10 H 7.5000001 C 7.2230001,10 7,9.777 7,9.5 7,9.223 7.2230001,9 7.5000001,9 Z M 14.5,9 C 14.777,9 15,9.223 15,9.5 15,9.777 14.777,10 14.5,10 14.223,10 14,9.777 14,9.5 14,9.223 14.223,9 14.5,9 Z m 2,0 C 16.777,9 17,9.223 17,9.5 17,9.777 16.777,10 16.5,10 16.223,10 16,9.777 16,9.5 16,9.223 16.223,9 16.5,9 Z M 6.4999999,10 C 6.7769999,10 7,10.223 7,10.5 v 1 C 7,11.777 6.7769999,12 6.4999999,12 6.2229999,12 6,11.777 6,11.5 v -1 C 6,10.223 6.2229999,10 6.4999999,10 Z M 15.5,10 C 15.777,10 16,10.223 16,10.5 16,10.777 15.777,11 15.5,11 15.223,11 15,10.777 15,10.5 15,10.223 15.223,10 15.5,10 Z m -6,1 C 9.777,11 10,11.223 10,11.5 10,11.777 9.777,12 9.5,12 9.223,12 9,11.777 9,11.5 9,11.223 9.223,11 9.5,11 Z m 3,0 C 12.777,11 13,11.223 13,11.5 13,11.777 12.777,12 12.5,12 12.223,12 12,11.777 12,11.5 12,11.223 12.223,11 12.5,11 Z"
     style="opacity:1;vector-effect:none;fill:#27303a;fill-opacity:0.75328082;fill-rule:nonzero;stroke:none;stroke-width:1;stroke-linecap:butt;stroke-linejoin:miter;stroke-miterlimit:4;stroke-dasharray:none;stroke-dashoffset:0;stroke-opacity:1;marker:none;paint-order:normal"
     inkscape:connector-curvature="0" />
  <path
     style="color:#000000;font-style:normal;font-variant:normal;font-weight:normal;font-stretch:normal;font-size:medium;line-height:normal;font-family:sans-serif;font-variant-ligatures:normal;font-variant-position:normal;font-variant-caps:normal;font-variant-numeric:normal;font-variant-alternates:normal;font-feature-settings:normal;text-indent:0;text-align:start;text-decoration:none;text-decoration-line:none;text-decoration-style:solid;text-decoration-color:#000000;letter-spacing:normal;word-spacing:normal;text-transform:none;writing-mode:lr-tb;direction:ltr;text-orientation:mixed;dominant-baseline:auto;baseline-shift:baseline;text-anchor:start;white-space:normal;shape-padding:0;clip-rule:nonzero;display:inline;overflow:visible;visibility:visible;opacity:1;isolation:auto;mix-blend-mode:normal;color-interpolation:sRGB;color-interpolation-filters:linearRGB;solid-color:#000000;solid-opacity:1;vector-effect:none;fill:#f1f3f5;fill-opacity:0.90288714;fill-rule:nonzero;stroke:none;stroke-width:2;stroke-linecap:butt;stroke-linejoin:miter;stroke-miterlimit:4;stroke-dasharray:none;stroke-dashoffset:0;stroke-opacity:1;marker:none;paint-order:normal;color-rendering:auto;image-rendering:auto;shape-rendering:auto;text-rendering:auto;enable-background:accumulate"
     d="M 4.6464844,4 C 4.5374019,4 4.3008845,3.986503 3.9960938,4.1191406 3.6913029,4.2517783 3.4194768,4.5507754 3.2871094,4.8300781 3.070276,5.2876088 3.0650915,5.8582053 3.0527344,6.5546875 2.7852486,6.8025413 2.4710266,7.0118889 2.3203125,7.3398438 2.076484,7.8704157 2,8.444869 2,9.060547 V 16 a 1.0001,1.0001 0 0 0 0.070312,0.367188 c 0.3516626,0.891951 1.1561549,1.485807 2.1132813,1.603515 C 5.1407201,18.088411 6.2476769,17.569641 6.8652344,16.5 L 6.8320312,16.554688 8.5351562,14 H 11 13.464844 l 1.703125,2.554688 -0.0332,-0.05469 c 0.617557,1.069641 1.724514,1.588411 2.68164,1.470703 0.957127,-0.117708 1.761619,-0.711564 2.113282,-1.603515 A 1.0001,1.0001 0 0 0 20,16 V 9.060547 C 20,8.444869 19.923516,7.8704157 19.679688,7.3398438 19.528973,7.0118889 19.214751,6.8025412 18.947266,6.5546875 18.934909,5.8582054 18.929724,5.2876088 18.712891,4.8300781 18.580523,4.5507754 18.308697,4.2517784 18.003906,4.1191406 17.699115,3.9865029 17.462598,4 17.353516,4 H 14.423828 C 14.166032,4 13.848921,4.091294 13.615234,4.2714844 13.381547,4.4516748 13.247703,4.6801653 13.167969,4.8789062 13.150759,4.9218102 13.164269,4.9583952 13.150389,5 H 11 8.8496094 C 8.8357552,4.9583956 8.8492445,4.9218105 8.8320312,4.8789062 8.7522966,4.6801651 8.6184526,4.4516748 8.3847656,4.2714844 8.1510786,4.091294 7.8339682,4 7.5761719,4 Z m 0,1 H 7.5761719 C 7.8877077,5 8,5.3362948 8,6 h 3 3 C 14,5.5022211 14.06355,5.1881941 14.226562,5.0625 14.2809,5.020602 14.345944,5 14.423828,5 h 2.929688 C 17.7087,5 18,5.0432327 18,6.9355469 c 0.722186,0.41351 1,1.0690401 1,2.1250001 V 16 c -0.40064,1.016179 -2.08099,1.591772 -3,0 L 14,13 H 11 8 L 6,16 C 5.0809901,17.591772 3.4006396,17.016179 3,16 V 9.060547 C 3,8.796557 3.017358,8.558208 3.054687,8.341797 3.166675,7.6925626 3.4583602,7.2456794 4,6.9355469 4,5.0432327 4.2913006,5 4.6464844,5 Z M 6.5,7 C 6.223,7 6,7.223 6,7.5 V 7.6347656 8.5 C 6,8.777 6.223,9 6.5,9 6.777,9 7,8.777 7,8.5 V 7.6347656 7.5 C 7,7.223 6.777,7 6.5,7 Z m 9,1 C 15.223,8 15,8.223 15,8.5 15,8.777 15.223,9 15.5,9 15.777,9 16,8.777 16,8.5 16,8.223 15.777,8 15.5,8 Z M 4.5,9 C 4.223,9 4,9.223 4,9.5 4,9.777 4.223,10 4.5,10 H 5.4472656 5.5 C 5.777,10 6,9.777 6,9.5 6,9.223 5.777,9 5.5,9 H 5.447266 Z m 3,0 C 7.223,9 7,9.223 7,9.5 7,9.777 7.223,10 7.5,10 h 1 C 8.777,10 9,9.777 9,9.5 9,9.223 8.777,9 8.5,9 Z m 7,0 C 14.223,9 14,9.223 14,9.5 14,9.777 14.223,10 14.5,10 14.777,10 15,9.777 15,9.5 15,9.223 14.777,9 14.5,9 Z m 2,0 C 16.223,9 16,9.223 16,9.5 16,9.777 16.223,10 16.5,10 16.777,10 17,9.777 17,9.5 17,9.223 16.777,9 16.5,9 Z m -10,1 C 6.223,10 6,10.223 6,10.5 v 1 C 6,11.777 6.223,12 6.5,12 6.777,12 7,11.777 7,11.5 v -1 C 7,10.223 6.777,10 6.5,10 Z m 9,0 C 15.223,10 15,10.223 15,10.5 15,10.777 15.223,11 15.5,11 15.777,11 16,10.777 16,10.5 16,10.223 15.777,10 15.5,10 Z m -6,1 C 9.223,11 9,11.223 9,11.5 9,11.777 9.223,12 9.5,12 9.777,12 10,11.777 10,11.5 10,11.223 9.777,11 9.5,11 Z m 3,0 C 12.223,11 12,11.223 12,11.5 12,11.777 12.223,12 12.5,12 12.777,12 13,11.777 13,11.5 13,11.223 12.777,11 12.5,11 Z"
     id="path1272"
     inkscape:connector-curvature="0" />
</svg>
