<?xml version="1.0" encoding="UTF-8"?>
<svg id="a" width="22" height="22" version="1.1" xmlns="http://www.w3.org/2000/svg" xmlns:cc="http://creativecommons.org/ns#" xmlns:dc="http://purl.org/dc/elements/1.1/" xmlns:rdf="http://www.w3.org/1999/02/22-rdf-syntax-ns#">
	<metadata id="b">
		<rdf:RDF>
			<cc:Work rdf:about="">
				<dc:format>image/svg+xml</dc:format>
				<dc:type rdf:resource="http://purl.org/dc/dcmitype/StillImage"/>
				<dc:title/>
			</cc:Work>
		</rdf:RDF>
	</metadata>
	<defs id="e">
		<style id="current-color-scheme" type="text/css">.ColorScheme-Text {color:#090d11;}.ColorScheme-Background{color:#ffffff;}</style>
	</defs>
	<path id="c" class="ColorScheme-Text" d="m10.905 2.1c-0.7203 0-1.4201 0.069-2.0243 0.1777h-0.00193c-0.88535 0.158-1.3638 0.3974-1.6221 0.7032s-0.33641 0.7188-0.33641 1.3252v1.4261h4.2883v1.0013h-6.1309c-1.1581 0-2.1484 0.6911-2.469 2.0442h-0.00193c-0.38978 1.6349-0.40678 2.5883 0 4.2939 0.14581 0.6141 0.39355 1.1252 0.7347 1.4755 0.34115 0.3505 0.77277 0.551 1.3437 0.551h1.249v-1.7578c0-1.566 1.3249-2.9251 2.9079-2.9251h4.2883c1.0741 0 1.9199-0.882 1.9199-1.9732v-4.1359c0-1.048-0.87637-1.8464-1.9566-2.0284-0.7255-0.1222-1.4671-0.1777-2.1886-0.1777zm-2.324 1.0961c0.4437 0 0.80043 0.3876 0.80043 0.8453 0 0.4562-0.35674 0.8098-0.80043 0.8098-0.44529 0-0.81977-0.3536-0.81977-0.8098 0-0.4577 0.37446-0.8453 0.81977-0.8453zm7.4572 3.5374v1.7085c0 1.6253-1.3508 2.9745-2.9079 2.9745h-4.2883c-1.0481 0-1.9218 0.9272-1.9218 1.9909v4.136c1e-7 0.522 0.21396 0.9163 0.57229 1.2443s0.86551 0.5744 1.4114 0.7367c1.3301 0.3953 2.5738 0.4666 4.1646 0 0.52165-0.1526 1.0283-0.382 1.3921-0.703 0.36373-0.3212 0.58969-0.7172 0.58969-1.278v-1.428h-4.2883v-1.0173h6.6741c0.57303 0 0.9183-0.1846 1.2084-0.5273 0.29008-0.3428 0.50884-0.8669 0.7231-1.5188 0.4342-1.317 0.41954-2.5534-0.0039-4.2743-0.14942-0.6084-0.36564-1.13-0.6709-1.4851-0.30525-0.3553-0.68751-0.5591-1.2567-0.5591zm-2.6294 10.247c0.44529 0 0.80237 0.3716 0.80237 0.8277 0 0.4578-0.35708 0.8276-0.80237 0.8276-0.4437 0-0.80237-0.3698-0.80237-0.8276 0-0.4561 0.35867-0.8277 0.80237-0.8277z" style="fill-opacity:.75;fill:currentColor"/>
	<path id="d" class="ColorScheme-Background" d="m10.904 1.127c-0.72153 0-1.4016 0.075034-2.0254 0.17773-0.05894 1.84e-5 -0.11776 0.00525-0.17578 0.015625-0.99599 0.1778-1.7258 0.46672-2.2109 1.041-0.48057 0.569-0.57227 1.2785-0.57227 1.9707v1.4258h-0.84375c-1.348 0-2.5091 0.92402-3.0957 2.2656-0.17337 0.13865-0.29568 0.33105-0.34766 0.54688-0.40859 1.7138-0.42774 2.9643 0 4.7578 0.17588 0.7398 0.48106 1.4166 0.99219 1.9414 0.50225 0.516 1.2535 0.85352 2.0586 0.85352h1.2363v1.4453c1e-7 0.7953 0.38997 1.5169 0.89648 1.9805 0.521 0.4769 1.154 0.76608 1.8027 0.95898 1.4612 0.4343 2.9771 0.5133 4.7285 0 0.61338-0.1795 1.2415-0.44271 1.7734-0.91211 0.51537-0.4551 0.92773-1.1979 0.92773-2.0273v-1.4277c5.1e-5 -0.0059 5.1e-5 -0.01172 0-0.01758h1.3867c0.7878 0 1.5422-0.37476 1.9707-0.88086 0.45461-0.5372 0.6825-1.1589 0.91016-1.8516 0.49438-1.4995 0.4658-3.0015 0.01758-4.8242-0.17112-0.6962-0.41456-1.3518-0.88281-1.8965-0.45099-0.525-1.2077-0.9082-2.0156-0.9082h-1.3867v-1.4277c0-1.6054-1.3237-2.7668-2.7891-3.0137-0.78666-0.1325-1.5827-0.19141-2.3555-0.19141zm0 1c0.7215 0 1.464 0.055534 2.1895 0.17773 1.0802 0.182 1.957 0.97934 1.957 2.0273v4.1367c0 1.0912-0.8458 1.9727-1.9199 1.9727h-4.2891c-1.5829 0-2.9082 1.3598-2.9082 2.9258v1.7578h-1.248c-0.57095 0-1.0026-0.20028-1.3438-0.55078-0.34115-0.3503-0.58856-0.86246-0.73438-1.4766-0.40678-1.7056-0.38978-2.6581 0-4.293h0.00195c0.32059-1.3531 1.3106-2.0449 2.4688-2.0449h6.1309v-1h-4.2891v-1.4277c0-0.6064 0.079592-1.0184 0.33789-1.3242 0.2583-0.3058 0.73575-0.54512 1.6211-0.70312h0.00195c0.60418-0.1087 1.3031-0.17773 2.0234-0.17773zm-2.3223 1.0957c-0.44531 0-0.82031 0.388-0.82031 0.8457 0 0.4562 0.37502 0.81055 0.82031 0.81055 0.4437 0 0.79883-0.35435 0.79883-0.81055 0-0.4577-0.35513-0.8457-0.79883-0.8457zm7.457 3.5371h1.3965c0.56921 0 0.95256 0.20525 1.2578 0.56055 0.30525 0.3551 0.5205 0.87598 0.66992 1.4844 0.42344 1.7209 0.4381 2.9564 0.0039 4.2734-0.21426 0.6519-0.43257 1.1767-0.72266 1.5195-0.29008 0.3427-0.63595 0.52734-1.209 0.52734h-6.6738v1.0176h4.2891v1.4277c0 0.5608-0.22612 0.95614-0.58984 1.2773-0.36373 0.321-0.87093 0.55052-1.3926 0.70312-1.5908 0.4666-2.834 0.3953-4.1641 0-0.54588-0.1623-1.0538-0.40833-1.4121-0.73633-0.35833-0.328-0.57227-0.72214-0.57227-1.2441v-4.1367c0-1.0637 0.87382-1.9902 1.9219-1.9902h4.2891c1.557 0 2.9082-1.3493 2.9082-2.9746zm-2.6309 10.248c-0.4437 0-0.80078 0.37007-0.80078 0.82617 0 0.4578 0.35708 0.82812 0.80078 0.82812 0.44528 0 0.80274-0.37032 0.80274-0.82812 0-0.4561-0.35744-0.82617-0.80274-0.82617z" style="fill-opacity:.5;fill:currentColor"/>
</svg>
