<?xml version="1.0" encoding="UTF-8"?>
<svg id="d" width="22" height="22" version="1.1" xmlns="http://www.w3.org/2000/svg" xmlns:cc="http://creativecommons.org/ns#" xmlns:dc="http://purl.org/dc/elements/1.1/" xmlns:rdf="http://www.w3.org/1999/02/22-rdf-syntax-ns#">
	<metadata id="a">
		<rdf:RDF>
			<cc:Work rdf:about="">
				<dc:format>image/svg+xml</dc:format>
				<dc:type rdf:resource="http://purl.org/dc/dcmitype/StillImage"/>
				<dc:title/>
			</cc:Work>
		</rdf:RDF>
	</metadata>
	<defs id="c">
		<style id="current-color-scheme" type="text/css">.ColorScheme-Text {color:#090d11;}.ColorScheme-Background{color:#ffffff;}</style>
	</defs>
	<path id="e" class="ColorScheme-Text" d="m12.006 1.0059-2.0156 0.011719c-0.5501 0-0.99414 0.4499-0.99414 1v0.98242h-3.9961c-1.1081 0-2 0.8919-2 2v9.3066l-1.6602 0.95898c-0.4791 0.2758-0.64339 0.88829-0.36719 1.3672l0.99805 1.7305c0.2767 0.4778 0.88733 0.64154 1.3652 0.36524l0.38281-0.2207c0.34685 0.29857 0.7845 0.49219 1.2812 0.49219h12c0.49518 0 0.93246-0.19333 1.2793-0.49023l0.36523 0.21094c0.4763 0.275 1.0854 0.11522 1.3633-0.35938l1.0176-1.7363c0.28-0.4787 0.11702-1.0938-0.36328-1.3711l-1.6602-0.95898v-9.2949c0-1.1081-0.8919-2-2-2h-3.9902v-0.99414c0-0.5546-0.45136-1.0031-1.0059-1zm0.0078 1v8.2695c8.01e-4 4.72e-4 0.0012 0.0015 2e-3 2e-3 0.01186 0.0074 0.02081 0.01725 0.03125 0.02539 0.0035 0.0031 8e-3 0.0049 0.01172 0.0078-0.15253-0.09588-0.31891-0.17314-0.49414-0.22656-0.17805-0.05428-0.36525-0.08398-0.56055-0.08398-0.0013-3e-6 -0.0026 0-0.0039 0-0.05706 0-0.10827 0.02041-0.16406 0.02539-0.13414 0.01225-0.26938 0.02024-0.39453 0.05859-0.01324 0.0041-0.02398 0.01325-0.03711 0.01758-0.15911 0.05206-0.31138 0.11976-0.45117 0.20703 0.01701-0.01193 0.02995-0.02827 0.04883-0.03906v-7.2695h-0.0039v-0.98438l2.0156-0.00977zm-2.7051 8.9395c-0.02882 0.04687-0.05271 0.09708-0.07813 0.14648 0.01391-0.03004 0.02053-0.06292 0.03711-0.0918 0.01179-0.01995 0.02772-0.03551 0.04102-0.05469zm1.6914 0.05469c0.5582 0 1 0.4418 1 1 0 0.5581-0.4418 0.9999-1 1-0.5581 0-0.99805-0.4419-0.99805-1 0-0.13888 0.02861-0.27117 0.07813-0.39062 2.13e-4 -5.11e-4 -2.14e-4 -0.0014 0-2e-3 0.04997-0.11992 0.12106-0.22629 0.21094-0.31641 0.17974-0.18022 0.42993-0.29102 0.70898-0.29102zm2 0.98438 7.1621 4.1348-1.0156 1.7402-7.1504-4.127h-2e-3c-0.024 0.014-0.05217 0.01825-0.07617 0.03125 0.03787-0.01991 0.06706-0.05205 0.10352-0.07422 0.11735-0.07134 0.23364-0.14366 0.33398-0.23633 0.10514-0.09702 0.1928-0.21118 0.27539-0.32812 0.02053-0.02908 0.04938-0.05185 0.06836-0.08203 0.09505-0.1511 0.16913-0.31582 0.2207-0.49024 1.79e-4 -6.07e-4 -1.79e-4 -0.0013 0-2e-3 0.05159-0.17506 0.08008-0.35921 0.08008-0.55078v-0.01563zm-3.998 0.01563c0 0.19267 0.02818 0.37872 0.08008 0.55469 0.03064 0.10419 0.08422 0.19659 0.13086 0.29297 0.03284 0.06768 0.05369 0.14188 0.09375 0.20508 0.05042 0.07973 0.12074 0.14315 0.18164 0.21484 0.05513 0.0648 0.10124 0.13788 0.16406 0.19531 0.08726 0.07981 0.19079 0.1393 0.29102 0.20312 0.05113 0.03256 0.09438 0.0755 0.14844 0.10352-0.0297-0.01517-0.0627-0.02036-0.0918-0.03711-5.27e-4 -3e-4 -0.0014 3.06e-4 -2e-3 0l-2.3164 1.3379-4.8438 2.7949-0.99805-1.7305 1.1602-0.66992z" style="fill-opacity:.75;fill:currentColor"/>
	<path id="b" class="ColorScheme-Background" d="m5 2c-1.6447 0-3 1.3553-3 3v9.8848l1-0.57812v-9.3066c0-1.1081 0.8919-2 2-2h3.9961v-0.98242c0-0.00558 0.00382-0.010065 0.00391-0.015625l-4-0.00195zm8.0098 0c1.3e-5 0.00213 2e-3 0.00373 2e-3 0.00586v0.99414h3.9902c1.1081 0 2 0.8919 2 2v9.2949l1.002 0.57812v-9.873c0-1.6447-1.3553-3-3-3h-3.9941zm-0.99414 0.00586-0.99805 0.00391v0.00195h-0.01172l-1.0039 0.00391v8.2539c-0.01766 0.01009-0.03139 0.02544-0.04687 0.03711 0.15116-0.09432 0.31478-0.16992 0.48828-0.22266 0.05882-0.01788 0.12462-0.01501 0.18555-0.02734 0.1213-0.02498 0.24078-0.05664 0.36914-0.05664 2e-3 0 0.0039-6e-6 0.0059 0 0.03185 3.3e-5 0.06033 0.01209 0.0918 0.01367 0.34848 0.01754 0.67464 0.11955 0.95508 0.29492 0.0025 8.7e-4 0.0056 5.51e-4 0.0078 2e-3 -0.016-9e-3 -0.02697-0.0232-0.04297-0.0332v-8.2715zm-2.7031 8.9355c-9.28e-4 0.0015-3e-3 0.0024-0.0039 0.0039-0.01266 0.01743-0.02865 0.03256-0.03906 0.05078-4.34e-4 7.48e-4 -0.0015 0.0012-2e-3 2e-3 -2.73e-4 4.52e-4 2.69e-4 0.0015 0 2e-3 -0.01626 0.03002-0.02177 0.06307-0.03711 0.09375 0.02633-0.05131 0.05115-0.1034 0.08203-0.15234zm1.6875 0.05859c-0.12698 2.42e-4 -0.24456 0.03011-0.35547 0.07227-0.02705 0.01023-0.05232 0.02271-0.07813 0.03516-0.08562 0.04156-0.16307 0.09497-0.23242 0.1582-0.01806 0.01645-0.0379 0.03108-0.05469 0.04883-0.16816 0.17849-0.27539 0.41671-0.27539 0.68555 0 0.26775 0.10644 0.5053 0.27344 0.68359 0.01873 0.01989 0.04023 0.03642 0.06055 0.05469 0.06701 0.06044 0.14255 0.10999 0.22461 0.15039 0.02799 0.01369 0.05453 0.02994 0.08398 0.04102 0.11033 0.04165 0.22734 0.07007 0.35352 0.07031 6.7e-4 1e-6 0.0013 0 2e-3 0 0.27829-5.77e-4 0.52724-0.11122 0.70703-0.29102 0.18022-0.18022 0.29102-0.42993 0.29102-0.70898 0-0.13955-0.02798-0.27266-0.07813-0.39258-0.05014-0.11992-0.12278-0.22629-0.21289-0.31641-0.08973-0.08973-0.19515-0.16277-0.31445-0.21289-5.74e-4 -2.4e-4 -0.0014 2.39e-4 -2e-3 0-0.11992-0.05014-0.25303-0.07813-0.39258-0.07813zm2.002 0.98438v0.01563c0 0.76431-0.4426 1.4235-1.0781 1.7598 0.02271-0.01014 0.0469-0.01483 0.06836-0.02734h4e-3c5.35e-4 -2.98e-4 0.0014 3.07e-4 2e-3 0l7.1504 4.127 0.50195-0.86133-2e-3 -2e-3 0.0098-0.01563 2e-3 2e-3 0.34375-0.58789v-0.0078l0.15625-0.26758-0.15625-0.08984v-2e-3l-1.002-0.58008-6-3.4629zm-4 0.01758-7.1602 4.1348 0.99805 1.7305 0.29297-0.16992 6.8652-3.9648c0.0013 7.38e-4 0.0026 0.0013 0.0039 2e-3 0.029 0.017 0.0618 0.02211 0.0918 0.03711-0.05184-0.02687-0.09342-0.06855-0.14258-0.09961-0.10366-0.06531-0.20886-0.1286-0.29883-0.21094-0.13136-0.12023-0.24815-0.25574-0.34375-0.40625v-2e-3c-3.16e-4 -4.97e-4 3.15e-4 -0.0015 0-2e-3 -0.09613-0.15187-0.17437-0.31655-0.22656-0.49219v-2e-3c-0.0522-0.17625-0.07989-0.36171-0.08008-0.55469zm-5.2832 6.5059-0.38281 0.2207c-0.22188 0.12828-0.47073 0.15235-0.70312 0.10352 0.5481 0.70852 1.4074 1.168 2.3672 1.168h12c0.96316 0 1.8245-0.46285 2.373-1.1758-0.23934 0.05606-0.49892 0.02905-0.72852-0.10352l-0.36523-0.21094c-0.34683 0.29692-0.78411 0.49023-1.2793 0.49023h-12c-0.4966 0-0.93444-0.19378-1.2812-0.49219z" style="fill-opacity:.5;fill:currentColor"/>
</svg>
