<?xml version="1.0" encoding="UTF-8"?>
<!-- Created with Inkscape (http://www.inkscape.org/) -->
<svg width="22" height="22" version="1.1" xmlns="http://www.w3.org/2000/svg" xmlns:cc="http://creativecommons.org/ns#" xmlns:dc="http://purl.org/dc/elements/1.1/" xmlns:rdf="http://www.w3.org/1999/02/22-rdf-syntax-ns#" xmlns:xlink="http://www.w3.org/1999/xlink">
	<defs>
		<radialGradient id="a" cx="-9385.6" cy="5043.2" r="9" gradientTransform="matrix(1 0 0 .88889 0 560.11)" gradientUnits="userSpaceOnUse">
			<stop stop-color="#213851" stop-opacity=".9059" offset="0"/>
			<stop stop-color="#27303a" stop-opacity="0" offset="1"/>
		</radialGradient>
		<radialGradient id="b" cx="21" cy="1" r="10" gradientTransform="matrix(0 1.8 -1.5 0 12.5 -17.8)" gradientUnits="userSpaceOnUse">
			<stop stop-color="#ffffff" stop-opacity=".74858" offset="0"/>
			<stop stop-color="#ffffff" stop-opacity=".60511" offset="1"/>
		</radialGradient>
	</defs>
	<metadata>
		<rdf:RDF>
			<cc:Work rdf:about="">
				<dc:format>image/svg+xml</dc:format>
				<dc:type rdf:resource="http://purl.org/dc/dcmitype/StillImage"/>
				<dc:title/>
			</cc:Work>
		</rdf:RDF>
	</metadata>
	<g transform="translate(9398.6 -5030)">
		<path d="m-9395.6 5033c-0.5541 0-1 0.4459-1 1v14c0 0.5541 0.4459 1 1 1h16c0.5541 0 1-0.4459 1-1v-14c0-0.5541-0.4459-1-1-1zm1 1h2v1h-2zm4 0h2v1h-2zm4 0h2v1h-2zm4 0h2v1h-2zm-5 5a2 2 0 0 1 2 2 2 2 0 0 1-2 2 2 2 0 0 1-2-2 2 2 0 0 1 2-2zm-7 8h2v1h-2zm4 0h2v1h-2zm4 0h2v1h-2zm4 0h2v1h-2z" fill="#090d11" fill-opacity=".76621" style="font-variant-east_asian:normal;paint-order:normal"/>
		<path d="m-9395.6 5033c-0.5541 0-1 0.4459-1 1v14c0 0.5541 0.4459 1 1 1h16c0.5541 0 1-0.4459 1-1v-14c0-0.5541-0.4459-1-1-1zm1 1h2v1h-2zm4 0h2v1h-2zm4 0h2v1h-2zm4 0h2v1h-2zm-5 5a2 2 0 0 1 2 2 2 2 0 0 1-2 2 2 2 0 0 1-2-2 2 2 0 0 1 2-2zm-7 8h2v1h-2zm4 0h2v1h-2zm4 0h2v1h-2zm4 0h2v1h-2z" fill="url(#a)" fill-opacity=".75328" style="paint-order:normal"/>
		<path transform="translate(-9398.6 5030)" d="m1 2v1h20v-1h-20zm3 2v1h2v-1h-2zm4 0v1h2v-1h-2zm4 0v1h2v-1h-2zm4 0v1h2v-1h-2zm-5 5c-1.1046 0-2 0.89543-2 2 0 1.1046 0.89543 2 2 2 1.1046 0 2-0.89543 2-2 0-1.1046-0.89543-2-2-2zm0 1c0.5641 0 1 0.4359 1 1s-0.4359 1-1 1-1-0.4359-1-1 0.4359-1 1-1zm-7 7v1h2v-1h-2zm4 0v1h2v-1h-2zm4 0v1h2v-1h-2zm4 0v1h2v-1h-2zm-15 2v1h20v-1h-20z" color="#000000" color-rendering="auto" dominant-baseline="auto" fill="url(#b)" fill-opacity=".99858" image-rendering="auto" shape-rendering="auto" solid-color="#000000" style="font-feature-settings:normal;font-variant-alternates:normal;font-variant-caps:normal;font-variant-ligatures:normal;font-variant-numeric:normal;font-variant-position:normal;isolation:auto;mix-blend-mode:normal;paint-order:normal;shape-padding:0;text-decoration-color:#000000;text-decoration-line:none;text-decoration-style:solid;text-indent:0;text-orientation:mixed;text-transform:none;white-space:normal"/>
	</g>
</svg>
