<?xml version="1.0" encoding="UTF-8"?>
<svg id="d" width="22" height="22" version="1.1" xmlns="http://www.w3.org/2000/svg" xmlns:cc="http://creativecommons.org/ns#" xmlns:dc="http://purl.org/dc/elements/1.1/" xmlns:rdf="http://www.w3.org/1999/02/22-rdf-syntax-ns#">
	<metadata id="b">
		<rdf:RDF>
			<cc:Work rdf:about="">
				<dc:format>image/svg+xml</dc:format>
				<dc:type rdf:resource="http://purl.org/dc/dcmitype/StillImage"/>
				<dc:title/>
			</cc:Work>
		</rdf:RDF>
	</metadata>
	<defs>
		<style id="current-color-scheme" type="text/css">.ColorScheme-Text{color:#090d11;}.ColorScheme-Background{color:#ffffff;}</style>
	</defs>
	<path id="c" d="m3 3c-0.5541 0-1 0.4459-1 1v14c0 0.5541 0.4459 1 1 1h16c0.5541 0 1-0.4459 1-1v-14c0-0.5541-0.4459-1-1-1zm1 1h2v1h-2zm4 0h2v1h-2zm4 0h2v1h-2zm4 0h2v1h-2zm-8 4h2v6h-2zm4 0h2v6h-2zm-8 9h2v1h-2zm4 0h2v1h-2zm4 0h2v1h-2zm4 0h2v1h-2z" style="fill:currentColor;fill-opacity:0.75;" class="ColorScheme-Text"/>
	<path id="a" d="m1 2v1h20v-1zm3 2v1h2v-1zm4 0v1h2v-1zm4 0v1h2v-1zm4 0v1h2v-1zm-8 4v6h2v-6zm4 0v6h2v-6zm-8 9v1h2v-1zm4 0v1h2v-1zm4 0v1h2v-1zm4 0v1h2v-1zm-15 2v1h20v-1z" style="fill:currentColor;fill-opacity:0.5;" class="ColorScheme-Background"/>
</svg>
