<?xml version="1.0" encoding="UTF-8"?>
<!-- Created with Inkscape (http://www.inkscape.org/) -->
<svg width="22" height="22" version="1.1" xmlns="http://www.w3.org/2000/svg" xmlns:cc="http://creativecommons.org/ns#" xmlns:dc="http://purl.org/dc/elements/1.1/" xmlns:rdf="http://www.w3.org/1999/02/22-rdf-syntax-ns#">
	<metadata>
		<rdf:RDF>
			<cc:Work rdf:about="">
				<dc:format>image/svg+xml</dc:format>
				<dc:type rdf:resource="http://purl.org/dc/dcmitype/StillImage"/>
			</cc:Work>
		</rdf:RDF>
	</metadata>
	<defs>
		<style id="current-color-scheme" type="text/css">.ColorScheme-Text {color:#090d11;}.ColorScheme-Background{color:#ffffff;}</style>
	</defs>
	<path class="ColorScheme-Text" d="m2.5 2c-0.27613 2.59e-5 -0.49997 0.22387-0.5 0.5v3c2.59e-5 0.27613 0.22387 0.49997 0.5 0.5h3c0.27613-2.59e-5 0.49997-0.22387 0.5-0.5v-3c-2.59e-5 -0.27613-0.22387-0.49997-0.5-0.5zm13.5 0c-0.55226 5.52e-5 -0.99994 0.44774-1 1v3c5.5e-5 0.55226 0.44774 0.99994 1 1h3c0.55226-5.52e-5 0.99994-0.44774 1-1v-3c-5.5e-5 -0.55226-0.44774-0.99994-1-1zm-13 1h2v2h-2zm5.5 0c-0.27613 2.68e-5 -0.49997 0.22387-0.5 0.5v3c2.68e-5 0.27613 0.22387 0.49997 0.5 0.5h5c0.27613-2.68e-5 0.49997-0.22387 0.5-0.5v-3c-2.7e-5 -0.27613-0.22387-0.49997-0.5-0.5zm0.5 1h4v2h-4zm8 0h1v1h-1zm-13.5 4c-0.27613 2.68e-5 -0.49997 0.22387-0.5 0.5v5c2.68e-5 0.27613 0.22387 0.49997 0.5 0.5h3c0.27613-2.7e-5 0.49997-0.22387 0.5-0.5v-5c-2.68e-5 -0.27613-0.22387-0.49997-0.5-0.5zm5 0c-0.27613 2.68e-5 -0.49997 0.22387-0.5 0.5v5c2.68e-5 0.27613 0.22387 0.49997 0.5 0.5h5c0.27613-2.7e-5 0.49997-0.22387 0.5-0.5v-5c-2.7e-5 -0.27613-0.22387-0.49997-0.5-0.5zm7 0c-0.27613 2.68e-5 -0.49997 0.22387-0.5 0.5v5c2.7e-5 0.27613 0.22387 0.49997 0.5 0.5h3c0.27613-2.7e-5 0.49997-0.22387 0.5-0.5v-5c-2.7e-5 -0.27613-0.22387-0.49997-0.5-0.5zm-11.5 1h2v4h-2zm12 0h2v4h-2zm-13 6c-0.55226 5.5e-5 -0.99994 0.44774-1 1v3c5.52e-5 0.55226 0.44774 0.99994 1 1h3c0.55226-5.5e-5 0.99994-0.44774 1-1v-3c-5.52e-5 -0.55226-0.44774-0.99994-1-1zm5.5 0c-0.27613 2.7e-5 -0.49997 0.22387-0.5 0.5v3c2.68e-5 0.27613 0.22387 0.49997 0.5 0.5h5c0.27613-2.7e-5 0.49997-0.22387 0.5-0.5v-3c-2.7e-5 -0.27613-0.22387-0.49997-0.5-0.5zm0.5 1h4v2h-4zm7.5 0c-0.27613 2.6e-5 -0.49997 0.22387-0.5 0.5v3c2.6e-5 0.27613 0.22387 0.49997 0.5 0.5h3c0.27613-2.6e-5 0.49997-0.22387 0.5-0.5v-3c-2.6e-5 -0.27613-0.22387-0.49997-0.5-0.5zm-12.5 1h1v1h-1zm13 0h2v2h-2z" style="fill-opacity:.75;fill:currentColor"/>
</svg>
