<?xml version="1.0" encoding="UTF-8"?>
<svg id="a" width="22" height="22" version="1.1" xmlns="http://www.w3.org/2000/svg" xmlns:cc="http://creativecommons.org/ns#" xmlns:dc="http://purl.org/dc/elements/1.1/" xmlns:rdf="http://www.w3.org/1999/02/22-rdf-syntax-ns#">
	<metadata id="e">
		<rdf:RDF>
			<cc:Work rdf:about="">
				<dc:format>image/svg+xml</dc:format>
				<dc:type rdf:resource="http://purl.org/dc/dcmitype/StillImage"/>
				<dc:title/>
			</cc:Work>
		</rdf:RDF>
	</metadata>
	<defs id="d">
		<style id="current-color-scheme" type="text/css">.ColorScheme-Text {color:#090d11;}.ColorScheme-Background{color:#ffffff;}</style>
	</defs>
	<path id="b" class="ColorScheme-Background" d="m15 2c-0.9 0-1.549 0.67841-1.793 1.5078-0.3435-0.2768-0.73953-0.50781-1.207-0.50781h-2c-1.0906 0-2 0.9094-2 2 0-1.0906-0.9094-2-2-2h-1c-1.0906 0-2 0.9094-2 2v1c0 1.0906 0.9094 2 2 2-1.0906 0-2 0.9094-2 2v2c0 0.4675 0.23101 0.86353 0.50781 1.207-0.8294 0.244-1.5078 0.89297-1.5078 1.793v3c0 1.0906 0.9094 2 2 2h3c0.9 0 1.549-0.67841 1.793-1.5078 0.3435 0.2768 0.73953 0.50781 1.207 0.50781h2c1.0906 0 2-0.9094 2-2 0 1.0906 0.9094 2 2 2h1c1.0906 0 2-0.9094 2-2v-1c0-1.0906-0.9094-2-2-2 1.0906 0 2-0.9094 2-2v-2c0-0.4675-0.23101-0.86353-0.50781-1.207 0.8294-0.244 1.5078-0.89297 1.5078-1.793v-3c0-1.0906-0.9094-2-2-2zm0 1h3c0.5541 0 1 0.4459 1 1v3c0 0.5541-0.4459 1-1 1h-3c-0.5541 0-1-0.4459-1-1v-3c0-0.5541 0.4459-1 1-1zm-10 1h1c0.5541 0 1 0.4459 1 1v1c0 0.5541-0.4459 1-1 1h-1c-0.5541 0-1-0.4459-1-1v-1c0-0.5541 0.4459-1 1-1zm5 0h2c0.5541 0 1 0.4459 1 1v2c0 0.5541-0.4459 1-1 1h-2c-0.5541 0-1-0.4459-1-1v-2c0-0.5541 0.4459-1 1-1zm-2 2v1c0 0.63 0.34405 1.1313 0.81055 1.5-0.1254 0.099-0.21145 0.18515-0.31055 0.31055-0.3687-0.4665-0.87-0.81055-1.5-0.81055h-1c1.0906 0 2-0.9094 2-2zm5.5 2.1895c0.099 0.1254 0.18515 0.21145 0.31055 0.31055-0.1254 0.099-0.21145 0.18515-0.31055 0.31055-0.099-0.1254-0.18515-0.21145-0.31055-0.31055 0.1254-0.099 0.21145-0.18515 0.31055-0.31055zm-8.5 0.81055h2c0.5541 0 1 0.4459 1 1v2c0 0.5541-0.4459 1-1 1h-2c-0.5541 0-1-0.4459-1-1v-2c0-0.5541 0.4459-1 1-1zm5 0h2c0.5541 0 1 0.4459 1 1v2c0 0.5541-0.4459 1-1 1h-2c-0.5541 0-1-0.4459-1-1v-2c0-0.5541 0.4459-1 1-1zm5 0h2c0.5541 0 1 0.4459 1 1v2c0 0.5541-0.4459 1-1 1h-2c-0.5541 0-1-0.4459-1-1v-2c0-0.5541 0.4459-1 1-1zm-6.5 4.1895c0.099 0.1254 0.18515 0.21145 0.31055 0.31055-0.1254 0.099-0.21145 0.18515-0.31055 0.31055-0.099-0.1254-0.18515-0.21145-0.31055-0.31055 0.1254-0.099 0.21145-0.18515 0.31055-0.31055zm5 0c0.3687 0.4665 0.87 0.81055 1.5 0.81055h1c-1.0906 0-2 0.9094-2 2v-1c0-0.63-0.34405-1.1313-0.81055-1.5 0.1254-0.099 0.21145-0.18515 0.31055-0.31055zm-9.5 0.81055h3c0.5541 0 1 0.4459 1 1v3c0 0.5541-0.4459 1-1 1h-3c-0.5541 0-1-0.4459-1-1v-3c0-0.5541 0.4459-1 1-1zm6 0h2c0.5541 0 1 0.4459 1 1v2c0 0.5541-0.4459 1-1 1h-2c-0.5541 0-1-0.4459-1-1v-2c0-0.5541 0.4459-1 1-1zm6 1h1c0.5541 0 1 0.4459 1 1v1c0 0.5541-0.4459 1-1 1h-1c-0.5541 0-1-0.4459-1-1v-1c0-0.5541 0.4459-1 1-1z" style="fill-opacity:.5;fill:currentColor"/>
	<path id="c" class="ColorScheme-Text" d="m15 3c-0.5541 0-1 0.4459-1 1v3c0 0.5541 0.4459 1 1 1h3c0.5541 0 1-0.4459 1-1v-3c0-0.5541-0.4459-1-1-1zm-10 1c-0.5541 0-1 0.4459-1 1v1c0 0.5541 0.4459 1 1 1h1c0.5541 0 1-0.4459 1-1v-1c0-0.5541-0.4459-1-1-1zm5 0c-0.5541 0-1 0.4459-1 1v2c0 0.5541 0.4459 1 1 1h2c0.5541 0 1-0.4459 1-1v-2c0-0.5541-0.4459-1-1-1zm-5 5c-0.5541 0-1 0.4459-1 1v2c0 0.5541 0.4459 1 1 1h2c0.5541 0 1-0.4459 1-1v-2c0-0.5541-0.4459-1-1-1zm5 0c-0.5541 0-1 0.4459-1 1v2c0 0.5541 0.4459 1 1 1h2c0.5541 0 1-0.4459 1-1v-2c0-0.5541-0.4459-1-1-1zm5 0c-0.5541 0-1 0.4459-1 1v2c0 0.5541 0.4459 1 1 1h2c0.5541 0 1-0.4459 1-1v-2c0-0.5541-0.4459-1-1-1zm-11 5c-0.5541 0-1 0.4459-1 1v3c0 0.5541 0.4459 1 1 1h3c0.5541 0 1-0.4459 1-1v-3c0-0.5541-0.4459-1-1-1zm6 0c-0.5541 0-1 0.4459-1 1v2c0 0.5541 0.4459 1 1 1h2c0.5541 0 1-0.4459 1-1v-2c0-0.5541-0.4459-1-1-1zm6 1c-0.5541 0-1 0.4459-1 1v1c0 0.5541 0.4459 1 1 1h1c0.5541 0 1-0.4459 1-1v-1c0-0.5541-0.4459-1-1-1z" style="fill-opacity:.75;fill:currentColor"/>
</svg>
