<?xml version="1.0" encoding="UTF-8"?>
<!-- Created with Inkscape (http://www.inkscape.org/) -->
<svg width="22" height="22" version="1.1" xmlns="http://www.w3.org/2000/svg" xmlns:cc="http://creativecommons.org/ns#" xmlns:dc="http://purl.org/dc/elements/1.1/" xmlns:rdf="http://www.w3.org/1999/02/22-rdf-syntax-ns#">
	<defs>
		<style id="current-color-scheme" type="text/css">.ColorScheme-Text {color:#090d11;}.ColorScheme-Background{color:#ffffff;}</style>
	</defs>
	<metadata>
		<rdf:RDF>
			<cc:Work rdf:about="">
				<dc:format>image/svg+xml</dc:format>
				<dc:type rdf:resource="http://purl.org/dc/dcmitype/StillImage"/>
				<dc:title/>
			</cc:Work>
		</rdf:RDF>
	</metadata>
	<path d="m5 3c-1.1081 0-2 0.89193-2 2h16c0-1.1081-0.89193-2-2-2zm-2 3v11c0 1.1081 0.89193 2 2 2h12c1.1081 0 2-0.89193 2-2v-11zm6 4h4c1.3523-0.019125 1.3523 2.0191 0 2h-4c-1.3523 0.019125-1.3523-2.0191 0-2z" style="fill:currentColor;fill-opacity:.75;" class="ColorScheme-Text"/>
	<g transform="translate(3363.4,-2093.7)" style="fill:none;stroke-opacity:.5;stroke:currentColor" class="ColorScheme-Background" >
		<path d="m-3354.4 2104.7h4" style="stroke-linecap:round;stroke-linejoin:round;stroke-width:2"/>
		<path d="m-3360.4 2099.2h16m-14-3.0001h12c1.3851 0 2.5001 1.1151 2.5001 2.5001v12c0 1.3851-1.115 2.5001-2.5001 2.5001h-12c-1.385 0-2.5001-1.115-2.5001-2.5001v-12c0-1.385 1.1151-2.5001 2.5001-2.5001z" style="stroke-linecap:round;stroke-linejoin:round"/>
	</g>
</svg>
