<?xml version="1.0" encoding="UTF-8"?>
<svg id="c" width="22" height="22" version="1.1" xmlns="http://www.w3.org/2000/svg" xmlns:cc="http://creativecommons.org/ns#" xmlns:dc="http://purl.org/dc/elements/1.1/" xmlns:rdf="http://www.w3.org/1999/02/22-rdf-syntax-ns#">
	<metadata id="g">
		<rdf:RDF>
			<cc:Work rdf:about="">
				<dc:format>image/svg+xml</dc:format>
				<dc:type rdf:resource="http://purl.org/dc/dcmitype/StillImage"/>
			</cc:Work>
		</rdf:RDF>
	</metadata>
	<defs>
		<style id="current-color-scheme" type="text/css">.ColorScheme-Text {color:#090d11;}.ColorScheme-Background{color:#ffffff;}</style>
	</defs>
	<path class="ColorScheme-Background" d="m2.5 1c-0.277 0-0.5 0.19023-0.5 0.42578v0.14844c0 0.23556 0.223 0.42578 0.5 0.42578h17c0.277 0 0.5-0.19023 0.5-0.42578v-0.14844c0-0.23556-0.223-0.42578-0.5-0.42578zm3 3c-0.277 0-0.5 0.223-0.5 0.5s0.223 0.5 0.5 0.5h3.5v5h-3.6035c-0.42244 7.5e-4 -0.65367 0.49256-0.38477 0.81836l5.6016 6.7949c0.20006 0.24405 0.57338 0.24405 0.77344 0l5.6016-6.7949c0.26891-0.3258 0.03768-0.81761-0.38476-0.81836h-3.6035v-5h3.5c0.277 0 0.5-0.223 0.5-0.5s-0.223-0.5-0.5-0.5h-4.0195c-0.21602 0-0.3984 0.14778-0.45899 0.35156-0.01457 0.047027-0.02148 0.0965-0.02148 0.14844v6c0 0.06795 0.01374 0.13245 0.03711 0.19141 0.07188 0.18138 0.24271 0.30859 0.44336 0.30859h3.0605l-4.541 5.5078-4.541-5.5078h3.0625c0.19992 0 0.36978-0.12722 0.44141-0.30859 0.02329-0.05896 0.03711-0.12345 0.03711-0.19141v-6c0-0.051938-0.0069-0.10141-0.02148-0.14844-0.05757-0.19437-0.22562-0.33682-0.42774-0.34961-0.0097-9.823e-4 -0.01941-0.00153-0.0293-0.00195h-0.02148zm-4 1c-0.27614 0-0.5 0.22386-0.5 0.5v13.5c0 1.0994 0.90065 2 2 2h16c1.0994 0 2-0.90065 2-2v-13.5c0-0.27614-0.22386-0.5-0.5-0.5s-0.5 0.22386-0.5 0.5v13.5c0 0.56265-0.43735 1-1 1h-16c-0.56265 0-1-0.43735-1-1v-13.5c0-0.27614-0.22386-0.5-0.5-0.5z" style="fill-opacity:.5;fill:currentColor"/>
	<path class="ColorScheme-Text" d="m4 2c-0.55228 0-1 0.44772-1 1s0.44772 1 1 1h5.5215c0.0099 4.208e-4 0.01957 9.708e-4 0.0293 0.00195 0.20211 0.012791 0.37016 0.15524 0.42774 0.34961 0.01457 0.04703 0.02149 0.096503 0.02149 0.14844v6.5h-3.5l4.5 5 4.5-5h-3.5v-6.5c0-0.051938 0.0069-0.10141 0.02148-0.14844 0.060582-0.20378 0.24296-0.35156 0.45898-0.35156h5.5195c0.55228 0 1-0.44772 1-1s-0.44772-1-1-1zm-1.5 4c-0.27614 0-0.5 0.22386-0.5 0.5v11.5c0 1.0994 0.90065 2 2 2h14c1.0994 0 2-0.90065 2-2v-11.5c0-0.27614-0.22386-0.5-0.5-0.5s-0.5 0.22386-0.5 0.5v11.5c0 0.56265-0.43735 1-1 1h-14c-0.56265 0-1-0.43735-1-1v-11.5c0-0.27614-0.22386-0.5-0.5-0.5z" style="fill-opacity:.75;fill:currentColor"/>
</svg>
