<?xml version="1.0" encoding="UTF-8"?>
<!-- Created with Inkscape (http://www.inkscape.org/) -->
<svg width="22" height="22" version="1.1" xmlns="http://www.w3.org/2000/svg" xmlns:cc="http://creativecommons.org/ns#" xmlns:dc="http://purl.org/dc/elements/1.1/" xmlns:rdf="http://www.w3.org/1999/02/22-rdf-syntax-ns#">
	<defs>
		<style
			id="current-color-scheme"
			type="text/css">
			.ColorScheme-Text {
			color:#090d11;
			}
			.ColorScheme-Background{
			color:#ffffff;
			}
		</style>
	</defs>
	<metadata>
		<rdf:RDF>
			<cc:Work rdf:about="">
				<dc:format>image/svg+xml</dc:format>
				<dc:type rdf:resource="http://purl.org/dc/dcmitype/StillImage"/>
				<dc:title/>
			</cc:Work>
		</rdf:RDF>
	</metadata>
	<path d="m3.502 1c-0.8224 0-1.502 0.6775-1.502 1.5v17c0 0.8224 0.67955 1.5 1.502 1.5h14.998c0.8225 0 1.5-0.6776 1.5-1.5v-17c0-0.8224-0.6775-1.5-1.5-1.5zm15.5 0.98047 0.97461 1.2168-0.97656 1.6953v14.607c0 0.2857-0.2142 0.5-0.5 0.5h-14.998c-0.2856 0-0.50195-0.2143-0.50195-0.5v-17c0-0.2856 0.21635-0.5 0.50195-0.5h13.734l-7.1113 12.352-0.19141 2.7578 9.0781-15.113-0.01563-0.00586 0.0059-0.00977zm-3.5078 0.019531a0.50005 0.50005 0 0 0-0.49414 0.50781v0.98242a0.50005 0.50005 0 1 0 1 0v-0.98242a0.50005 0.50005 0 0 0-0.50586-0.50781zm-2 0a0.50005 0.50005 0 0 0-0.49414 0.50781v0.98242a0.50005 0.50005 0 1 0 1 0v-0.98242a0.50005 0.50005 0 0 0-0.50586-0.50781zm-2 0a0.50005 0.50005 0 0 0-0.49414 0.50781v0.98242a0.50005 0.50005 0 1 0 1 0v-0.98242a0.50005 0.50005 0 0 0-0.50586-0.50781zm-2 0a0.50005 0.50005 0 0 0-0.49414 0.50781v0.98242a0.50005 0.50005 0 1 0 1 0v-0.98242a0.50005 0.50005 0 0 0-0.50586-0.50781zm-2 0a0.50005 0.50005 0 0 0-0.49414 0.50781v0.98242a0.50005 0.50005 0 1 0 1 0v-0.98242a0.50005 0.50005 0 0 0-0.50586-0.50781zm-2 0a0.50005 0.50005 0 0 0-0.49414 0.50781v0.98242a0.50005 0.50005 0 1 0 1 0v-0.98242a0.50005 0.50005 0 0 0-0.50586-0.50781z" style="fill:currentColor;fill-opacity:0.5;" class="ColorScheme-Background"/>
	<path d="m19 2-9.0801 15.113 2.6601-1.0528 5.42-9.414v11.873c0 0.2857-0.2163 0.5-0.502 0.5h-12.998c-0.2857 0-0.502-0.2143-0.502-0.5v-15c0-0.2856 0.2164-0.5 0.502-0.5h0.498v-0.4922a0.50005 0.50005 0 0 1 0.4941-0.5078h-0.9921c-0.8224 0-1.502 0.6775-1.502 1.5v15c0 0.8224 0.6796 1.5 1.502 1.5h12.998c0.8157 0 1.4891-0.6671 1.5-1.4805v-13.627l0.9766-1.6953zm-13.508 0.02a0.50005 0.50005 0 0 1 0.5059 0.5078v0.4922h1v-0.4922a0.50005 0.50005 0 0 1 0.4941-0.5078zm2 0a0.50005 0.50005 0 0 1 0.5059 0.5078v0.4922h1v-0.4922a0.50005 0.50005 0 0 1 0.4941-0.5078zm2 0a0.50005 0.50005 0 0 1 0.5059 0.5078v0.4922h1v-0.4922a0.50005 0.50005 0 0 1 0.4941-0.5078zm2 0a0.50005 0.50005 0 0 1 0.5059 0.5078v0.4922h1v-0.4922a0.50005 0.50005 0 0 1 0.4941-0.5078zm2 0a0.50005 0.50005 0 0 1 0.5059 0.5078v0.4922h1v-0.4922a0.50005 0.50005 0 0 1 0.4941-0.5078zm2 0a0.50005 0.50005 0 0 1 0.5059 0.5078v0.4922h0.6602l0.3632-0.6289 0.2129-0.3711zm-9.4941 1.5254a0.5001 0.5001 0 0 1-1 0.01v0.9707a0.50005 0.50005 0 1 0 1 0zm2 0a0.5001 0.5001 0 0 1-1 0.01v0.9707a0.50005 0.50005 0 1 0 1 0zm2 0a0.5001 0.5001 0 0 1-1 0.01v0.9707a0.50005 0.50005 0 1 0 1 0zm2 0a0.5001 0.5001 0 0 1-1 0.01v0.9707a0.50005 0.50005 0 1 0 1 0zm2 0a0.5001 0.5001 0 0 1-1 0.01v0.9707a0.50005 0.50005 0 1 0 1 0zm2 0a0.5001 0.5001 0 0 1-1 0.01v0.9707a0.50005 0.50005 0 0 0 0.5039 0.5078l0.2969-0.5176 0.1992-0.3457z" style="fill:currentColor;fill-opacity:0.75;" class="ColorScheme-Text"/>
</svg>
