<?xml version="1.0" encoding="UTF-8"?>
<svg id="c" width="22" height="22" version="1.1" xmlns="http://www.w3.org/2000/svg" xmlns:cc="http://creativecommons.org/ns#" xmlns:dc="http://purl.org/dc/elements/1.1/" xmlns:rdf="http://www.w3.org/1999/02/22-rdf-syntax-ns#">
	<metadata id="f">
		<rdf:RDF>
			<cc:Work rdf:about="">
				<dc:format>image/svg+xml</dc:format>
				<dc:type rdf:resource="http://purl.org/dc/dcmitype/StillImage"/>
				<dc:title/>
			</cc:Work>
		</rdf:RDF>
	</metadata>
	<defs>
		<style id="current-color-scheme" type="text/css">.ColorScheme-Text {color:#090d11;}.ColorScheme-Background{color:#ffffff;}</style>
	</defs>
	<g id="a" transform="translate(3363.4 -1852.5)">
		<g id="b" transform="matrix(.03606 0 0 .03606 -3237.7 1855.2)">
			<path id="e" d="m-3430.5-19.631v55.463h55.463v443.7h110.93l332.78-443.7v-55.463h-166.39v55.463h55.463l-221.85 305.05v-305.05h55.463v-55.463z" style="fill-opacity:.75;fill:currentColor" class="ColorScheme-Text"/>
			<path id="d" transform="matrix(27.731 0 0 27.731 -3485.9 -75.094)" d="m1 1v1 3h2v16h5.5l12.5-16.666v-3.334h-8v4h1.0371l-5.0371 6.9258v-6.9258h2v-4h-10zm1 1h8v2h-2v11l8-11h-2v-2h6v2l-12 16h-4v-16h-2v-2z" style="fill-opacity:.5;fill:currentColor" class="ColorScheme-Background"/>
		</g>
	</g>
</svg>
