<?xml version="1.0" encoding="UTF-8"?>
<!-- Created with Inkscape (http://www.inkscape.org/) -->
<svg width="22" height="22" version="1.1" xmlns="http://www.w3.org/2000/svg" xmlns:cc="http://creativecommons.org/ns#" xmlns:dc="http://purl.org/dc/elements/1.1/" xmlns:rdf="http://www.w3.org/1999/02/22-rdf-syntax-ns#">
	<defs>
		<style id="current-color-scheme" type="text/css">.ColorScheme-Text {
			color:#090d11;
			}
			.ColorScheme-Background{
			color:#ffffff;
			}</style>
	</defs>
	<metadata>
		<rdf:RDF>
			<cc:Work rdf:about="">
				<dc:format>image/svg+xml</dc:format>
				<dc:type rdf:resource="http://purl.org/dc/dcmitype/StillImage"/>
			</cc:Work>
		</rdf:RDF>
	</metadata>
	<path class="ColorScheme-Text" d="m2.5 2c-0.1326 2e-5 -0.25976 0.052712-0.35352 0.14648-0.093773 0.093753-0.14646 0.22092-0.14648 0.35352v5c0 0.27614 0.22386 0.5 0.5 0.5s0.5-0.22386 0.5-0.5v-3.793l4 4v1.793c0 0.27614 0.22386 0.5 0.5 0.5s0.5-0.22386 0.5-0.5v-1.5h1.5c0.27614 0 0.5-0.22386 0.5-0.5s-0.22386-0.5-0.5-0.5h-1.793l-4-4h3.793c0.27614 0 0.5-0.22386 0.5-0.5s-0.22386-0.5-0.5-0.5zm12 0c-0.27614 0-0.5 0.22386-0.5 0.5s0.22386 0.5 0.5 0.5h3.793l-4 4h-1.793c-0.27614 0-0.5 0.22386-0.5 0.5s0.22386 0.5 0.5 0.5h1.5v1.5c0 0.27614 0.22386 0.5 0.5 0.5s0.5-0.22386 0.5-0.5v-1.793l4-4v3.793c0 0.27614 0.22386 0.5 0.5 0.5s0.5-0.22386 0.5-0.5v-5c-2e-5 -0.1326-0.052711-0.25976-0.14648-0.35352-0.093753-0.093773-0.22092-0.14646-0.35352-0.14648zm0 10c-0.27614 0-0.5 0.22386-0.5 0.5v1.5h-1.5c-0.27614 0-0.5 0.22386-0.5 0.5s0.22386 0.5 0.5 0.5h1.793l4 4h-3.793c-0.27614 0-0.5 0.22386-0.5 0.5s0.22386 0.5 0.5 0.5h5c0.1326-2e-5 0.25976-0.05271 0.35352-0.14648 0.09377-0.09375 0.14646-0.22092 0.14648-0.35352v-5c0-0.27614-0.22386-0.5-0.5-0.5s-0.5 0.22386-0.5 0.5v3.793l-4-4v-1.793c0-0.27614-0.22386-0.5-0.5-0.5z" style="fill-opacity:.75;fill:currentColor;stroke-linecap:round;stroke-linejoin:round"/>
</svg>
