<?xml version="1.0" encoding="UTF-8"?>
<!-- Created with Inkscape (http://www.inkscape.org/) -->
<svg width="22" height="22" version="1.1" xmlns="http://www.w3.org/2000/svg" xmlns:cc="http://creativecommons.org/ns#" xmlns:dc="http://purl.org/dc/elements/1.1/" xmlns:rdf="http://www.w3.org/1999/02/22-rdf-syntax-ns#" xmlns:xlink="http://www.w3.org/1999/xlink">
	<defs>
		<radialGradient id="b" cx="5.7369" cy="6.822" r="7.1556" gradientTransform="matrix(1.9441,0,0,2.1703,-7.3629,-12.565)" gradientUnits="userSpaceOnUse">
			<stop stop-color="#ffffff" stop-opacity=".74858" offset="0"/>
			<stop stop-color="#ffffff" stop-opacity=".60511" offset="1"/>
		</radialGradient>
		<radialGradient id="a" cx="290.93" cy="-99.205" r="7.254" gradientTransform="matrix(1.4907,0,0,1.4427,-3762.2,2013.7)" gradientUnits="userSpaceOnUse">
			<stop stop-color="#213851" stop-opacity=".9059" offset="0"/>
			<stop stop-color="#27303a" stop-opacity="0" offset="1"/>
		</radialGradient>
		<radialGradient id="c" cx="-3356.1" cy="1869.9" r="4.2518" gradientTransform="matrix(1.4237,0,0,1.2974,4789.2,-2413)" gradientUnits="userSpaceOnUse" xlink:href="#a"/>
		<radialGradient id="f" cx="7.071" cy="-1.2081" r="4.2518" fx="10.444" fy="2.4984" gradientTransform="matrix(.98298 .045513 -.022273 .48106 3.6 5.5)" gradientUnits="userSpaceOnUse" xlink:href="#a"/>
		<radialGradient id="e" cx="8.0947" cy="13.492" r="6.1541" gradientTransform="matrix(1,0,0,1.0941,3,2.2)" gradientUnits="userSpaceOnUse" xlink:href="#a"/>
		<radialGradient id="d" cx="7.0684" cy="8.0874" r="7.1556" gradientTransform="matrix(1.9441,0,0,2.1703,-4.3629,-9.565)" gradientUnits="userSpaceOnUse" xlink:href="#b"/>
		<radialGradient id="g" cx="5.7369" cy="6.822" r="7.1556" gradientTransform="matrix(1.9441,0,0,2.1703,-4.3629,-9.565)" gradientUnits="userSpaceOnUse" xlink:href="#b"/>
	</defs>
	<metadata>
		<rdf:RDF>
			<cc:Work rdf:about="">
				<dc:format>image/svg+xml</dc:format>
				<dc:type rdf:resource="http://purl.org/dc/dcmitype/StillImage"/>
				<dc:title/>
			</cc:Work>
		</rdf:RDF>
	</metadata>
	<path d="m6.4969 0.9996c-1.1875 2.3904-3.2151 7.6279-2.4735 10.008 0.88166 2.83 3.0756 3.3432 5.6172 3.752 0.14784-0.1994 0.67441 3.8357 0.69141 3.8965-1.0157 0.01-2.0201 0.27468-2.6074 0.55078-1.0535 0.6158-1.2246 0.64172-1.2246 1.7676h9c0.11775-1.2404-0.38234-1.2196-1.2559-1.9258-0.5873-0.276-1.7499-0.41543-2.7656-0.42383 0.017-0.061 0.76191-3.841 0.75391-3.834 2.7917-0.46864 4.8935-1.0442 5.7441-3.6563 0.82118-2.5215-1.0746-7.6649-2.4577-10.135l-0.53573-0.00195c1.0125 1.7639 2.5878 7.357 2.0579 9.3422-0.265 0.9925-0.8601 1.8465-1.7793 2.459-0.8079 0.5382-1.9593 0.80847-3.2617 1.0137-0.3048 0.048-0.87695 3.0368-0.87695 4.7285 0 0.3028 0.02265 0.49023 0.87695 0.49023 2.1865 0 2.5 0.37896 2.5 0.94336h-7c0-0.5644 0.3135-0.94336 2.5-0.94336 0.854 0 0.87695-0.18743 0.87695-0.49023 0-1.6915-0.57215-4.6805-0.87695-4.7285-1.0797-0.17011-2.0422-0.3944-2.8047-0.76953l-0.45703-0.24414c-0.9192-0.6125-1.5143-1.4665-1.7793-2.459-0.5299-1.9852 1.1243-7.5309 2.1368-9.2948l0.054687 0.00195v-0.035156z" color="#000000" color-rendering="auto" dominant-baseline="auto" fill="url(#g)" image-rendering="auto" shape-rendering="auto" solid-color="#000000" style="font-feature-settings:normal;font-variant-alternates:normal;font-variant-caps:normal;font-variant-ligatures:normal;font-variant-numeric:normal;font-variant-position:normal;isolation:auto;mix-blend-mode:normal;paint-order:normal;shape-padding:0;text-decoration-color:#000000;text-decoration-line:none;text-decoration-style:solid;text-indent:0;text-orientation:mixed;text-transform:none;white-space:normal"/>
	<path d="m11.137 2.7051c-0.15102-1e-7 -0.27344 0.12242-0.27344 0.27344s0.12242 0.27344 0.27344 0.27344 0.27344-0.12242 0.27344-0.27344-0.12242-0.27344-0.27344-0.27344zm-1.5039 0.033203c-0.15779-0.00273-0.33016 0.015803-0.51172 0.064453-1.0017 0.2684-1.5184 1.477-1.7168 1.959-1.6309 3.9634-0.89336 7.1934 3.5312 7.1934 4.8824 0 4.8749-3.6816 3.9922-6.5215-1.1982-1.1982-5.0944 2.4612-6.291 0.38867-0.4151-0.7189 0.11654-1.9453 1.0898-1.9453 1.4468 0 1.0108-1.1196-0.09375-1.1387zm1.7956 0.6113c-0.3592 0.025318-0.6375 0.32436-0.63699 0.68445 3.94e-4 0.37784 0.3066 0.68405 0.68445 0.68445 0.37784-3.933e-4 0.68405-0.30661 0.68445-0.68445-3.94e-4 -0.37784-0.3066-0.68405-0.68445-0.68445-0.01582-5.482e-4 -0.03164-5.482e-4 -0.04746 0z" fill="#090d11" fill-opacity=".76621" style="paint-order:normal"/>
	<path d="m11.1 2.6992c-0.151 0-0.27344 0.12244-0.27344 0.27344s0.12244 0.27344 0.27344 0.27344c0.0044 0 0.0073-0.0037 0.01172-0.00391 0.0095 0.00101 0.01558 0.00977 0.02539 0.00977 0.15102 0 0.27344-0.12242 0.27344-0.27344s-0.12242-0.27344-0.27344-0.27344c-0.0044 0-0.0073 0.0037-0.01172 0.00391-0.0095-0.00101-0.01558-0.00977-0.02539-0.00977zm-1.5039 0.033203c-0.1578 0-0.33012 0.016453-0.51172 0.064453-1.0017 0.2684-1.5184 1.477-1.7168 1.959-0.21251 0.51644-0.3671 1.0198-0.47266 1.5059-0.86493 3.2468 0.19069 5.6934 4.041 5.6934 4.8824 0 4.8749-3.6816 3.9922-6.5215-0.15181-0.15181-0.34677-0.22479-0.57422-0.24219-1.2184-0.12992-3.4123 1.4439-4.8125 1.2559-0.37036-0.058778-0.68366-0.24285-0.9043-0.625-0.4151-0.7189 0.11658-1.9453 1.0898-1.9453 1.2827 0 1.0829-0.8769 0.25195-1.0898-5.89e-4 -1.509e-4 -0.0014 1.502e-4 -2e-3 0-0.10362-0.029275-0.22099-0.043681-0.34375-0.048828-0.01328-5.568e-4 -0.02363-0.00563-0.03711-0.00586zm1.7853 0.60966c-0.35926 0.025579-0.63749 0.32429-0.63698 0.68444 3.83e-4 0.37793 0.30651 0.68406 0.68444 0.68444 0.0017-1.7e-6 0.0033 1.41e-5 5e-3 0 0.01468 9.551e-4 0.02754 0.00748 0.04246 0.00749 0.37784-3.932e-4 0.68405-0.3066 0.68444-0.68444-3.94e-4 -0.37784-0.3066-0.68405-0.68444-0.68444-0.0033-1.155e-4 -0.0067 6.68e-5 -0.01 0-0.01304-7.529e-4 -0.02424-0.00748-0.03747-0.00749-0.01535-5.116e-4 -0.03211-5.116e-4 -0.04746 0z" fill="url(#f)" fill-opacity=".7533" style="paint-order:normal"/>
	<path d="m11.1 2.6992c-0.151 0-0.27344 0.12244-0.27344 0.27344s0.12244 0.27344 0.27344 0.27344c0.0044 0 0.0073-0.0037 0.01172-0.00391 0.0095 0.00101 0.01558 0.00977 0.02539 0.00977 0.15102 0 0.27344-0.12242 0.27344-0.27344s-0.12242-0.27344-0.27344-0.27344c-0.0044 0-0.0073 0.0037-0.01172 0.00391-0.0095-0.00101-0.01558-0.00977-0.02539-0.00977zm-1.5039 0.033203c-0.1578 0-0.33012 0.016453-0.51172 0.064453-1.0017 0.2684-1.5184 1.477-1.7168 1.959-0.21251 0.51644-0.3671 1.0198-0.47266 1.5059-0.86493 3.2468 0.19069 5.6934 4.041 5.6934 4.8824 0 4.8749-3.6816 3.9922-6.5215-0.15181-0.15181-0.34677-0.22479-0.57422-0.24219-1.2184-0.12992-3.4123 1.4439-4.8125 1.2559-0.37036-0.058778-0.68366-0.24285-0.9043-0.625-0.4151-0.7189 0.11658-1.9453 1.0898-1.9453 1.2827 0 1.0829-0.8769 0.25195-1.0898-5.89e-4 -1.509e-4 -0.0014 1.502e-4 -2e-3 0-0.10362-0.029275-0.22099-0.043681-0.34375-0.048828-0.01328-5.568e-4 -0.02363-0.00563-0.03711-0.00586zm1.7853 0.60966c-0.35926 0.025579-0.63749 0.32429-0.63698 0.68444 3.83e-4 0.37793 0.30651 0.68406 0.68444 0.68444 0.0017-1.7e-6 0.0033 1.41e-5 5e-3 0 0.01468 9.551e-4 0.02754 0.00748 0.04246 0.00749 0.37784-3.932e-4 0.68405-0.3066 0.68444-0.68444-3.94e-4 -0.37784-0.3066-0.68405-0.68444-0.68444-0.0033-1.155e-4 -0.0067 6.68e-5 -0.01 0-0.01304-7.529e-4 -0.02424-0.00748-0.03747-0.00749-0.01535-5.116e-4 -0.03211-5.116e-4 -0.04746 0z" fill="url(#c)" fill-opacity=".7533" style="paint-order:normal"/>
	<path d="m6.7378 2c-1.0125 1.7639-2.2993 6.3468-1.7694 8.332 0.265 0.9925 0.8601 1.8465 1.7793 2.459 0.8079 0.5382 1.9593 0.8085 3.2617 1.0137 0.3048 0.048 0.877 3.037 0.877 4.7285 0 0.3028-0.023 0.4903-0.877 0.4903-2.1865 0-2.5 0.3789-2.5 0.9433h7c0-0.5644-0.3135-0.9433-2.5-0.9433-0.8543 0-0.877-0.1875-0.877-0.4903 0-1.6917 0.5722-4.6805 0.877-4.7285 1.3024-0.2052 2.4538-0.4755 3.2617-1.0137 0.9192-0.6125 1.5143-1.4665 1.7793-2.459 0.5299-1.9852-0.83175-6.5681-1.8443-8.332l-0.55415 0.021c1.3872 2.8733 1.9383 6.5342 1.5215 8.0957-0.2084 0.7807-0.7216 1.3518-1.4571 1.8418-0.7355 0.4901-1.8002 0.8439-3.2578 0.9922l-0.4492 0.045-0.4492-0.045c-1.4576-0.1483-2.5223-0.5021-3.2578-0.9922-0.7355-0.49-1.2487-1.0611-1.4571-1.8418-0.4168-1.5615 0.1343-5.2224 1.5215-8.0957z" color="#000000" color-rendering="auto" dominant-baseline="auto" fill="#090d11" fill-opacity=".76621" image-rendering="auto" shape-rendering="auto" solid-color="#000000" style="font-feature-settings:normal;font-variant-alternates:normal;font-variant-caps:normal;font-variant-ligatures:normal;font-variant-numeric:normal;font-variant-position:normal;isolation:auto;mix-blend-mode:normal;paint-order:normal;shape-padding:0;text-decoration-color:#000000;text-decoration-line:none;text-decoration-style:solid;text-indent:0;text-orientation:mixed;text-transform:none;white-space:normal"/>
	<path d="m6.7378 2c-1.0125 1.7639-2.2993 6.3468-1.7694 8.332 0.265 0.9925 0.8601 1.8465 1.7793 2.459 0.8079 0.5382 1.9593 0.8085 3.2617 1.0137 0.3048 0.048 0.877 3.037 0.877 4.7285 0 0.3028-0.023 0.4903-0.877 0.4903-2.1865 0-2.5 0.3789-2.5 0.9433h7c0-0.5644-0.3135-0.9433-2.5-0.9433-0.8543 0-0.877-0.1875-0.877-0.4903 0-1.6917 0.5722-4.6805 0.877-4.7285 1.3024-0.2052 2.4538-0.4755 3.2617-1.0137 0.9192-0.6125 1.5143-1.4665 1.7793-2.459 0.5299-1.9852-0.83175-6.5681-1.8443-8.332l-0.55415 0.021c1.3872 2.8733 1.9383 6.5342 1.5215 8.0957-0.2084 0.7807-0.7216 1.3518-1.4571 1.8418-0.7355 0.4901-1.8002 0.8439-3.2578 0.9922l-0.4492 0.045-0.4492-0.045c-1.4576-0.1483-2.5223-0.5021-3.2578-0.9922-0.7355-0.49-1.2487-1.0611-1.4571-1.8418-0.4168-1.5615 0.1343-5.2224 1.5215-8.0957z" color="#000000" color-rendering="auto" dominant-baseline="auto" fill="url(#e)" fill-opacity=".76621" image-rendering="auto" shape-rendering="auto" solid-color="#000000" style="font-feature-settings:normal;font-variant-alternates:normal;font-variant-caps:normal;font-variant-ligatures:normal;font-variant-numeric:normal;font-variant-position:normal;isolation:auto;mix-blend-mode:normal;paint-order:normal;shape-padding:0;text-decoration-color:#000000;text-decoration-line:none;text-decoration-style:solid;text-indent:0;text-orientation:mixed;text-transform:none;white-space:normal"/>
	<path d="m10.305 2.5039c-0.15765-0.00494-0.32848 0.00143-0.51172 0.023438-0.27699 0.033272-0.54528 0.15645-0.80859 0.30859 0.034021-0.011686 0.064397-0.029628 0.099609-0.039063 0.1816-0.048 0.35392-0.064453 0.51172-0.064453 0.01348 2.3e-4 0.02383 0.0053 0.03711 0.00586 0.12304 0.00213 0.23508 0.022401 0.33984 0.048828 0.0012 3.224e-4 0.0028-3.261e-4 0.0039 0 0.0083 0.00211 0.01529 0.00557 0.02344 0.00781 0.08593 0.023653 0.16354 0.053605 0.23438 0.089844 0.01944 0.00989 0.03647 0.020589 0.05469 0.03125 0.05833 0.034297 0.10944 0.07068 0.1543 0.11133 0.01407 0.012628 0.02834 0.024016 0.04102 0.037109 0.01401 0.01459 0.03268 0.027904 0.04492 0.042969 0.01231 0.015151 0.01151 0.031433 0.02148 0.046875 0.03715 0.054402 0.05948 0.10971 0.07227 0.16602 0.0017 0.00868 0.01042 0.016693 0.01172 0.025391 9.02e-4 0.00605-0.0026 0.011564-2e-3 0.017578 0.0042 0.037684 2.2e-4 0.073009-0.0078 0.10938-0.0025 0.012153 0.0023 0.02511-2e-3 0.037109-0.0038 0.010911-0.0106 0.020588-0.01563 0.03125-9.2e-4 0.00196-0.0029 0.00391-0.0039 0.00586-0.0197 0.040394-0.05374 0.07596-0.0918 0.11133-8e-3 0.00741-0.0107 0.016274-0.01953 0.023437-0.01041 0.00842-0.01772 0.017389-0.0293 0.025391-0.0031 0.00214-0.0085 0.00377-0.01172 0.00586-0.05076 0.033737-0.12008 0.057575-0.19336 0.082031-0.01141 0.00366-0.01746 0.010153-0.0293 0.013672-0.0026 7.827e-4 -0.0071 0.00118-0.0098 0.00195-0.13257 0.038315-0.28774 0.066406-0.49219 0.066406-0.12166 0-0.23688 0.019749-0.34375 0.054687-0.10695 0.034944-0.20666 0.085326-0.29687 0.14844-0.17968 0.12615-0.32466 0.3022-0.42578 0.5-0.013016 0.025461-0.017728 0.053933-0.029297 0.080078 0.18531-0.49291 0.90924-0.49391 1.3555-0.52539 0.33793-0.023841 0.45779-0.012636 0.76758-0.056641-0.0014-0.017663-0.0097-0.032767-0.0098-0.050781-5.12e-4 -0.36016 0.27746-0.65997 0.63672-0.68555 0.01535-5.116e-4 0.03153-5.116e-4 0.04687 0 0.01323 1e-5 0.02602 0.00706 0.03906 0.00781 0.0032 6.57e-5 0.0066-1.096e-4 0.0098 0 0.09363 9.51e-5 0.18241 0.018658 0.26367 0.052734 0.08602-0.3211-0.10808-0.3927-0.40234-0.59961 0.04169 0.047996 0.07226 0.10721 0.07226 0.17578 0 0.15102-0.12242 0.27344-0.27344 0.27344-0.0098 0-0.01585-0.00876-0.02539-0.00977-0.0044 2.1e-4 -0.0073 0.00391-0.01172 0.00391-0.151-1e-7 -0.27344-0.12244-0.27344-0.27344s0.12244-0.27344 0.27344-0.27344c0.0098 0 0.01589 0.00876 0.02539 0.00977 0.0044-2.1e-4 0.0073-0.00391 0.01172-0.00391-0.21797-0.10799-0.48324-0.19023-0.8319-0.20116zm-2.2949 1.082c-0.57066 0.58687-1.0628 1.3287-1.4023 2.041-0.39854 0.83612-1.1084 3.8066-0.23828 5.2344 0.87 1.4277 2.5775 2.0898 4.5664 2.0898 2.3181 0 3.6443-0.61218 4.4297-1.9961 0.7854-1.3839 0.54053-4.0207 0.02734-5.5859-0.22463-0.68513-0.60099-1.5644-1.9336-1.3613-0.42304 0.06448-0.94462 0.26151-1.4883 0.49219-0.12482 0.13274-0.29759 0.21855-0.49414 0.21875-0.0034-2.3e-6 -0.0065-0.00142-0.0098-0.00195-1.4463 0.63783-2.8828 1.3052-2.8828 0.20508 0-0.090253 0.01407-0.16833 0.037109-0.23828-0.052484 0.12412-0.086175 0.25433-0.10547 0.38477-9.11e-5 6.16e-4 9.05e-5 0.00134 0 0.00195-0.00271 0.020178-0.00596 0.040366-0.00781 0.060547-0.013951 0.13566-0.01175 0.2715 0.017578 0.40039 0.02326 0.10301 0.059125 0.20061 0.11133 0.29102 0.061161 0.10593 0.13249 0.18823 0.20703 0.26562 0.057718 0.056671 0.1195 0.10867 0.18555 0.15039 0.0059 0.00374 0.0116 0.0081 0.01758 0.011719 0.3426 0.20754 0.78976 0.22325 1.2832 0.14258 0.10576-0.020586 0.21088-0.036856 0.32031-0.066406 0.02415-0.00565 0.04796-0.011571 0.07226-0.017578 1.1967-0.34011 2.5586-1.1109 3.4746-1.1094 0.02726-5.165e-4 0.05746-0.00659 0.08398-0.00586 0.0037 1.02e-4 8e-3 -1.289e-4 0.01172 0 0.0024 1.543e-4 0.0054-1.669e-4 0.0078 0 0.01639 0.00113 0.03668-0.00367 0.05274-0.00195 0.02743 0.0021 0.04971 0.013823 0.07617 0.017578 0.0019 2.795e-4 4e-3 -2.789e-4 0.0059 0 0.05808 0.00854 0.11486 0.019886 0.16797 0.037109 0.01798 0.00552 0.03975 0.00668 0.05664 0.013672 0.01176 0.00467 0.02172 0.012412 0.0332 0.017578 0.0033 0.00189 0.0063 0.00423 0.0098 0.00586 0.05064 0.02633 0.10144 0.052218 0.14062 0.09375 0.02707 0.020704 0.05917 0.031826 0.08398 0.056641 0.01395 0.044893 0.02166 0.093376 0.03516 0.13867 2.72e-4 4.934e-4 -2.88e-4 0.00148 0 0.00195 0.0036 0.00597 0.0092 0.010047 0.01172 0.017578 0.01246 0.037282 0.02147 0.10743 0.0332 0.15234 8.97e-4 0.00318 0.0011 0.00658 2e-3 0.00977 0.10226 0.36399 0.18412 0.73299 0.24609 1.1094 0.02567 0.15489 0.04559 0.30812 0.0625 0.46289 0.12089 1.1141 0.0079 2.2067-0.55859 3.0527-0.01825 0.02874-0.03926 0.05585-0.05859 0.08399-5.31e-4 7.38e-4 -0.0014 0.0012-2e-3 2e-3 -0.08451 0.11716-0.17798 0.22783-0.28125 0.33398-0.06243 0.06576-0.12315 0.13239-0.19336 0.19336-0.08943 0.07651-0.19316 0.14418-0.29492 0.21289-0.14385 0.09714-0.3009 0.18556-0.4707 0.26562-0.0014 6.44e-4 -0.0025 0.0013-0.0039 2e-3 -0.0026 0.0012-0.0052 0.0027-0.0078 0.0039-0.11118 0.05196-0.22292 0.10242-0.3457 0.14648-0.11249 0.04003-0.23289 0.07441-0.35547 0.10742-0.1534 0.04182-0.31654 0.07725-0.48633 0.10742-0.0074 0.0013-0.01403 0.0026-0.02149 0.0039-0.10153 0.01739-0.19919 0.03573-0.30664 0.04883-2e-3 2.47e-4 -0.0039-2.46e-4 -0.0059 0-0.3073 0.03789-0.63182 0.06445-0.99023 0.06445-0.24064 0-0.47043-0.0086-0.68945-0.02734-0.0025-2.18e-4 -0.0053 2.21e-4 -0.0078 0-0.11467-0.01017-0.22107-0.02907-0.33008-0.04492-0.12999-0.01785-0.25913-0.03774-0.38086-0.0625-0.01672-0.0036-0.03615-0.0041-0.05274-0.0078-0.02223-0.0047-0.03859-0.01456-0.06055-0.01953-0.29395-0.0665-0.56753-0.14971-0.8125-0.25586-0.00863-0.0037-0.018778-6e-3 -0.027344-0.0098-0.052871-0.02336-0.099786-0.05103-0.15039-0.07617-0.084288-0.04189-0.16803-0.08414-0.24609-0.13086-0.070632-0.04225-0.13558-0.08867-0.20117-0.13476-0.054857-0.03856-0.11074-0.076-0.16211-0.11719-0.05817-0.0467-0.11227-0.09666-0.16601-0.14656-0.051574-0.04791-0.1009-0.09759-0.14844-0.14844-0.049359-0.05279-0.097524-0.10624-0.14258-0.16211-0.023411-0.02903-0.044148-0.06-0.066406-0.08984-0.28678-0.38455-0.4791-0.83423-0.58203-1.3398-0.00454-0.02232-0.00947-0.04387-0.013672-0.06641-0.042466-0.22781-0.062341-0.46889-0.070313-0.7168-0.00733-0.22695 0.00676-0.46511 0.027344-0.70703 0.00865-0.10154 0.00608-0.19683 0.019531-0.30078 0.043057-0.33319 0.10839-0.67809 0.19922-1.0332 0.0078-0.03215 0.015978-0.063826 0.023437-0.095703 0.00409-0.017476 0.0071-0.034977 0.011719-0.052734v-0.00195c0.00616-0.023693 0.015112-0.048499 0.021484-0.072266 0.10426-0.44716 0.24511-0.90662 0.43945-1.3789 0.1086-0.26384 0.3159-0.74404 0.64258-1.1699z" color="#000000" color-rendering="auto" dominant-baseline="auto" fill="url(#d)" image-rendering="auto" shape-rendering="auto" solid-color="#000000" style="font-feature-settings:normal;font-variant-alternates:normal;font-variant-caps:normal;font-variant-ligatures:normal;font-variant-numeric:normal;font-variant-position:normal;isolation:auto;mix-blend-mode:normal;paint-order:normal;shape-padding:0;text-decoration-color:#000000;text-decoration-line:none;text-decoration-style:solid;text-indent:0;text-orientation:mixed;text-transform:none;white-space:normal"/>
</svg>
