<?xml version="1.0" encoding="UTF-8"?>
<svg id="g" width="22" height="22" version="1.1" xmlns="http://www.w3.org/2000/svg" xmlns:cc="http://creativecommons.org/ns#" xmlns:dc="http://purl.org/dc/elements/1.1/" xmlns:rdf="http://www.w3.org/1999/02/22-rdf-syntax-ns#">
	<metadata id="e">
		<rdf:RDF>
			<cc:Work rdf:about="">
				<dc:format>image/svg+xml</dc:format>
				<dc:type rdf:resource="http://purl.org/dc/dcmitype/StillImage"/>
				<dc:title/>
			</cc:Work>
		</rdf:RDF>
	</metadata>
	<defs id="a">
		<style id="current-color-scheme" type="text/css">.ColorScheme-Text {color:#090d11;}.ColorScheme-Background{color:#ffffff;}</style>
	</defs>
	<path id="d" class="ColorScheme-Text" d="m11 5c-1.5091 0-7.0344 0.13534-8.0469 0.93164-0.90563 0.71228-0.95312 2.3859-0.95312 5.5684 0 3.1824 0.047494 4.8561 0.95312 5.5684 1.0125 0.7963 6.5378 0.93164 8.0469 0.93164s7.0344-0.13534 8.0469-0.93164c0.90564-0.71228 0.95312-2.3859 0.95312-5.5684 0-3.1824-0.04749-4.8561-0.95312-5.5684-1.0125-0.7963-6.5378-0.93164-8.0469-0.93164zm-2 4 5 2.5-5 2.5z" style="fill-opacity:.75;fill:currentColor"/>
	<path id="h" class="ColorScheme-Background" d="m11 3.9004c-0.78743 0-2.5537 0.033034-4.2949 0.16992-0.87062 0.068444-1.7311 0.161-2.4766 0.29688-0.74543 0.13587-1.3317 0.20895-1.9551 0.69922-0.77453 0.60917-1.0845 1.5443-1.2266 2.5723s-0.14648 2.2646-0.14648 3.8613 0.00445 2.8333 0.14648 3.8613c0.14204 1.028 0.45203 1.9631 1.2266 2.5723 0.62335 0.49027 1.2096 0.56334 1.9551 0.69922 0.74543 0.13588 1.6059 0.22843 2.4766 0.29688 1.7412 0.13689 3.5075 0.16992 4.2949 0.16992s2.5537-0.03303 4.2949-0.16992c0.87062-0.06844 1.7311-0.161 2.4766-0.29688 0.74543-0.13587 1.3317-0.20895 1.9551-0.69922 0.77454-0.60917 1.0845-1.5443 1.2266-2.5723s0.14648-2.2646 0.14648-3.8613-0.0044-2.8333-0.14648-3.8613c-0.14204-1.028-0.45203-1.9631-1.2266-2.5723-0.62335-0.49027-1.2096-0.56335-1.9551-0.69922s-1.6059-0.22843-2.4766-0.29688c-1.7412-0.13689-3.5075-0.16992-4.2949-0.16992zm0 1.0996c1.5091 0 7.0344 0.13534 8.0469 0.93164 0.90563 0.71228 0.95312 2.3859 0.95312 5.5684 0 3.1824-0.04749 4.8561-0.95312 5.5684-1.0125 0.7963-6.5378 0.93164-8.0469 0.93164s-7.0344-0.13534-8.0469-0.93164c-0.90563-0.71228-0.95312-2.3859-0.95312-5.5684 0-3.1824 0.047494-4.8561 0.95312-5.5684 1.0125-0.7963 6.5378-0.93164 8.0469-0.93164zm-2 4v5l5-2.5z" style="fill-opacity:.5;fill:currentColor"/>
</svg>
