<?xml version="1.0" encoding="UTF-8"?>
<!-- Created with Inkscape (http://www.inkscape.org/) -->
<svg width="18" height="18" version="1.1" xmlns="http://www.w3.org/2000/svg" xmlns:cc="http://creativecommons.org/ns#" xmlns:dc="http://purl.org/dc/elements/1.1/" xmlns:rdf="http://www.w3.org/1999/02/22-rdf-syntax-ns#">
	<defs>
		<style id="current-color-scheme" type="text/css">.ColorScheme-Text {color:#090d11;}.ColorScheme-Background{color:#ffffff;}</style>
	</defs>
	<metadata>
		<rdf:RDF>
			<cc:Work rdf:about="">
				<dc:format>image/svg+xml</dc:format>
				<dc:type rdf:resource="http://purl.org/dc/dcmitype/StillImage"/>
			</cc:Work>
		</rdf:RDF>
	</metadata>
	<path id="c" class="ColorScheme-Text" d="m4.5 2c-0.82235 0-1.5 0.67765-1.5 1.5v11c0 0.82235 0.67765 1.5 1.5 1.5h4.5v-1h-4.5c-0.28565 0-0.5-0.21435-0.5-0.5v-4.5h3v-1h-3v-1h3v-1h-3v-1h3v-1h-3v-1.5c0-0.28565 0.21435-0.5 0.5-0.5h9c0.28565 0 0.5 0.21435 0.5 0.5v6.5h1v-6.5c0-0.82235-0.67765-1.5-1.5-1.5zm5.5 9v5l5-5z" style="fill-opacity:.75;fill:currentColor"/>
	<path class="ColorScheme-Background" d="m3.5 1c-0.82235 0-1.5 0.67765-1.5 1.5v13c0 0.82235 0.67765 1.5 1.5 1.5h6.5v-0.0078c0.24808 0.0019 0.5012-0.07945 0.70703-0.28516l5-5c0.62956-0.63001 0.18361-1.7067-0.70703-1.707h-5c-0.55226 5.5e-5 -0.99994 0.44774-1 1v4h1v-4h5l-5 5h-6.5c-0.28565 0-0.5-0.21435-0.5-0.5v-13c0-0.28565 0.21435-0.5 0.5-0.5h11c0.28565 0 0.47809 0.21519 0.5 0.5v6.5h1v-6.5c0-0.82235-0.67765-1.5-1.5-1.5zm0.5 3v1h3v1h-3v1h3v1h-3v1h3v1h-3v1h4v-7z" style="fill-opacity:.5;fill:currentColor"/>
</svg>
