<?xml version="1.0" encoding="UTF-8"?>
<svg id="e" width="16" height="16" version="1.1" xmlns="http://www.w3.org/2000/svg" xmlns:cc="http://creativecommons.org/ns#" xmlns:dc="http://purl.org/dc/elements/1.1/" xmlns:rdf="http://www.w3.org/1999/02/22-rdf-syntax-ns#">
	<metadata id="d">
		<rdf:RDF>
			<cc:Work rdf:about="">
				<dc:format>image/svg+xml</dc:format>
				<dc:type rdf:resource="http://purl.org/dc/dcmitype/StillImage"/>
			</cc:Work>
		</rdf:RDF>
	</metadata>
	<defs>
		<style id="current-color-scheme" type="text/css">.ColorScheme-Background{color:#ffffff;}
			.ColorScheme-Text{color:#090d11;}
			.ColorScheme-Highlight{color:#2598e4;}
			.ColorScheme-NegativeText {color:#f03489;}
			.ColorScheme-PositiveText {color:#42a53b;}
            .ColorScheme-NeutralText{color:#f2712c;}</style>
	</defs>
	<path class="ColorScheme-Text" d="m10 1c-0.4155 0-0.77047 0.25022-0.92188 0.60938-0.050469 0.11972-0.078125 0.25212-0.078125 0.39062h-6c-0.4155 0-0.77047 0.25022-0.92188 0.60938-0.050469 0.11972-0.078125 0.25212-0.078125 0.39062v1h11c0.554 0 1 0.446 1 1v9h-1v-8.5c0-0.277-0.223-0.5-0.5-0.5s-0.5 0.223-0.5 0.5v8.5h-10v-9c-0.4155 0-0.77047 0.25022-0.92188 0.60938-0.050469 0.11972-0.078125 0.25212-0.078125 0.39062v8c0 0.554 0.446 1 1 1h12c0.554 0 1-0.446 1-1v-12c-4.1e-5 -0.554-0.44604-1-1-1z" style="fill-opacity:.75;fill:currentColor"/>
	<path class="ColorScheme-Background" d="m10 0c-0.70348 0-1.2228 0.43877-1.5801 1h-5.4199c-1.0907 0-2 0.9093-2 2v1.4199c-0.56123 0.35725-1 0.8766-1 1.5801v8c0 1.0907 0.9093 2 2 2h12c1.0907 0 2-0.9093 2-2v-12c-8.1e-5 -1.0907-0.9093-2-2-2zm0 1h4c0.55396 0 0.99996 0.446 1 1v12c0 0.554-0.446 1-1 1h-12c-0.554 0-1-0.446-1-1v-8c0-0.554 0.446-1 1-1h11v9h1v-9c0-0.554-0.446-1-1-1h-11v-1c0-0.554 0.446-1 1-1h6c0-0.554 0.446-1 1-1z" style="fill-opacity:.5;fill:currentColor"/>
	<circle id="b" class="ColorScheme-NeutralText warning" cx="3.5001" cy="2.5001" r="2.4999" style="fill:currentColor"/>
</svg>
