<?xml version="1.0" encoding="UTF-8"?>
<!-- Created with Inkscape (http://www.inkscape.org/) -->
<svg width="16" height="16" version="1.1" xmlns="http://www.w3.org/2000/svg" xmlns:cc="http://creativecommons.org/ns#" xmlns:dc="http://purl.org/dc/elements/1.1/" xmlns:rdf="http://www.w3.org/1999/02/22-rdf-syntax-ns#">
	<defs>
		<radialGradient id="b" cx="-9356.4" cy="5054" r="9" gradientTransform="matrix(1.1111,0,0,2.421,10404,-12231)" gradientUnits="userSpaceOnUse">
			<stop stop-color="#213851" stop-opacity=".9059" offset="0"/>
			<stop stop-color="#27303a" stop-opacity="0" offset="1"/>
		</radialGradient>
		<radialGradient id="a" cx="34.118" cy="13.139" r="9.0713" gradientTransform="matrix(1.6537 0 0 1.4274 -3411.8 2087)" gradientUnits="userSpaceOnUse">
			<stop stop-color="#ffffff" stop-opacity=".8252" offset="0"/>
			<stop stop-color="#ffffff" stop-opacity=".6051" offset="1"/>
		</radialGradient>
	</defs>
	<metadata>
		<rdf:RDF>
			<cc:Work rdf:about="">
				<dc:format>image/svg+xml</dc:format>
				<dc:type rdf:resource="http://purl.org/dc/dcmitype/StillImage"/>
				<dc:title/>
			</cc:Work>
		</rdf:RDF>
	</metadata>
	<path d="m1.8125 0a1.0001 1.0001 0 0 0-0.8125 1v10a1.0001 1.0001 0 0 0 1 1h4.2812a0.50607 0.50607 0 0 1 0-1h-3.2812a1.0001 1.0001 0 0 1-1-1v-8a1.0001 1.0001 0 0 1 0.8125-1 1.0001 1.0001 0 0 1 0.09375 0 1.0001 1.0001 0 0 1 0.09375 0h10.031a1.0001 1.0001 0 0 1 1 1v8a1.0001 1.0001 0 0 1-1 1h-3.375a0.50219 0.50219 0 0 1 0 1h4.3438a1.0001 1.0001 0 0 0 1-1v-10a1.0001 1.0001 0 0 0-1-1h-12a1.0001 1.0001 0 0 0-0.09375 0 1.0001 1.0001 0 0 0-0.09375 0zm7.8438 12a0.50219 0.50219 0 0 1-0.15625 0h-3a0.50607 0.50607 0 0 1-0.21875 0 0.50607 0.50607 0 0 0 0 1 0.50219 0.50219 0 0 1 0.0625 0 0.50607 0.50607 0 0 0 0.03125 0 0.50219 0.50219 0 0 1 0.03125 0 0.50607 0.50607 0 0 0 0.03125 0 0.50005 0.50005 0 0 1 0.0625 0h3a0.50219 0.50219 0 0 1 0.03125 0 0.50219 0.50219 0 0 0 0.03125 0 0.50219 0.50219 0 0 1 0.0625 0 0.50219 0.50219 0 0 0 0.03125 0 0.50219 0.50219 0 0 0 0-1zm-9.375 3a0.50607 0.50607 0 0 0 0.21875 1h6.5v-1h-6.5a0.50005 0.50005 0 0 0-0.03125 0 0.50219 0.50219 0 0 1-0.0625 0 0.50219 0.50219 0 0 0-0.03125 0 0.50219 0.50219 0 0 1-0.03125 0 0.50607 0.50607 0 0 0-0.0625 0zm8.7188 0v1h6.5a0.50005 0.50005 0 0 0 0.09375-1 0.50005 0.50005 0 0 0-0.03125 0 0.50005 0.50005 0 0 1-0.0625 0h-6.5z" color="#000000" fill="url(#a)" style="block-progression:tb;font-variant-east_asian:normal;paint-order:normal;text-indent:0;text-transform:none"/>
	<path d="m2.8125 1a1.0001 1.0001 0 0 0-0.8125 1v8a1.0001 1.0001 0 0 0 1 1h3.3438a0.50607 0.50607 0 1 0 0.15625 1h3a0.50219 0.50219 0 1 0 0.09375-1h3.4375a1.0001 1.0001 0 0 0 1-1v-8a1.0001 1.0001 0 0 0-1-1h-10.031a1.0001 1.0001 0 0 0-0.09375 0 1.0001 1.0001 0 0 0-0.09375 0zm1.1875 2h8.0312v6h-8.0312zm2.3438 10a0.50219 0.50219 0 0 0 0 1h-5.8438a0.50005 0.50005 0 0 0-0.09375 0 0.50219 0.50219 0 1 0 0.09375 1h6.5v1h0.5 1 0.5v-1h6.5a0.50005 0.50005 0 1 0 0-1h-5.9062a0.50219 0.50219 0 1 0-0.09375-1h-3a0.50005 0.50005 0 0 0-0.09375 0 0.50219 0.50219 0 0 0-0.0625 0z" color="#000000" fill="#090d11" fill-opacity=".76621" style="paint-order:normal;text-decoration-line:none;text-indent:0;text-transform:none"/>
	<path d="m2.8125 1a1.0001 1.0001 0 0 0-0.8125 1v8a1.0001 1.0001 0 0 0 1 1h3.3438a0.50607 0.50607 0 1 0 0.15625 1h3a0.50219 0.50219 0 1 0 0.09375-1h3.4375a1.0001 1.0001 0 0 0 1-1v-8a1.0001 1.0001 0 0 0-1-1h-10.031a1.0001 1.0001 0 0 0-0.09375 0 1.0001 1.0001 0 0 0-0.09375 0zm1.1875 2h8.0312v6h-8.0312v-6zm2.3438 10a0.50219 0.50219 0 0 0 0 1h-5.8438a0.50005 0.50005 0 0 0-0.09375 0 0.50219 0.50219 0 1 0 0.09375 1h6.5v1h0.5 1 0.5v-1h6.5a0.50005 0.50005 0 1 0 0-1h-5.9062a0.50219 0.50219 0 1 0-0.09375-1h-3a0.50005 0.50005 0 0 0-0.09375 0 0.50219 0.50219 0 0 0-0.0625 0z" color="#000000" fill="url(#b)" style="block-progression:tb;font-variant-east_asian:normal;paint-order:normal;text-indent:0;text-transform:none"/>
</svg>
