<?xml version="1.0" encoding="UTF-8"?>
<!-- Created with Inkscape (http://www.inkscape.org/) -->
<svg width="16" height="16" version="1.1" xmlns="http://www.w3.org/2000/svg" xmlns:cc="http://creativecommons.org/ns#" xmlns:dc="http://purl.org/dc/elements/1.1/" xmlns:rdf="http://www.w3.org/1999/02/22-rdf-syntax-ns#">
	<defs>
		<radialGradient id="a" cx="-9400.8" cy="5092.7" r="9" gradientTransform="matrix(2.2808 -1.551e-5 0 1.6667 21449 -8473.1)" gradientUnits="userSpaceOnUse">
			<stop stop-color="#213851" stop-opacity=".9059" offset="0"/>
			<stop stop-color="#27303a" stop-opacity="0" offset="1"/>
		</radialGradient>
		<radialGradient id="b" cx="7.5991" cy="7.6272" r="8" gradientTransform="matrix(1.3186 0 0 1.3186 -7.5181 -7.1244)" gradientUnits="userSpaceOnUse">
			<stop stop-color="#ffffff" stop-opacity=".8252" offset="0"/>
			<stop stop-color="#ffffff" stop-opacity=".6051" offset="1"/>
		</radialGradient>
	</defs>
	<metadata>
		<rdf:RDF>
			<cc:Work rdf:about="">
				<dc:format>image/svg+xml</dc:format>
				<dc:type rdf:resource="http://purl.org/dc/dcmitype/StillImage"/>
				<dc:title/>
			</cc:Work>
		</rdf:RDF>
	</metadata>
	<path d="m10.5 0c-0.70348 0-1.2228 0.43877-1.5801 1h-5.9199c-1.0907 0-2 0.9093-2 2v1.4199c-0.56123 0.35725-1 0.8766-1 1.5801v8c0 1.0907 0.9093 2 2 2h12.5c0.8137 0 1.5-0.6863 1.5-1.5v-12.5c0-1.0907-0.9093-2-2-2zm-0.5 1h4c0.554 0 1 0.446 1 1v12.5c0 0.277-0.22328 0.51244-0.5 0.5l-0.04598-0.0021c-0.25607-0.011477-0.45402-0.23641-0.45402-0.4979v-7.5c0-1.0907-0.9093-2-2-2h-3.9199c-0.35725-0.56123-0.8766-1-1.5801-1h-5v-1c0-0.554 0.446-1 1-1h6.5c0-0.554 0.446-1 1-1zm-8 4h5c0.554 0 1 0.446 1 1h4c0.554 0 0.96053 0.44741 1 1l0.5 7c0.03947 0.55259-0.446 1-1 1h-10.5c-0.554 0-1-0.446-1-1v-8c0-0.554 0.446-1 1-1z" color="#000000" color-rendering="auto" dominant-baseline="auto" fill="url(#b)" image-rendering="auto" shape-rendering="auto" solid-color="#000000" style="font-feature-settings:normal;font-variant-alternates:normal;font-variant-caps:normal;font-variant-ligatures:normal;font-variant-numeric:normal;font-variant-position:normal;isolation:auto;mix-blend-mode:normal;paint-order:normal;shape-padding:0;text-decoration-color:#000000;text-decoration-line:none;text-decoration-style:solid;text-indent:0;text-orientation:mixed;text-transform:none;white-space:normal"/>
	<path d="m10 1c-0.554 0-1 0.446-1 1h-6c-0.554 0-1 0.446-1 1v1h5c0.70348 0 1.2228 0.43877 1.5801 1h3.4199c1.0907 0 2 0.9093 2 2v7h-1v-7c0-0.554-0.446-1-1-1v8h-10v-9c-0.554 0-1 0.446-1 1v8c0 0.554 0.446 1 1 1h12.494c2e-3 2.3e-5 0.0039 0 0.0059 0 0.277 0 0.5-0.223 0.5-0.5v-12.5c-4.1e-5 -0.554-0.44604-1-1-1z" fill="#090d11" fill-opacity=".76621" style="paint-order:normal"/>
	<path d="m10 1c-0.554 0-1 0.446-1 1h-6c-0.554 0-1 0.446-1 1v1h5c0.70348 0 1.2228 0.43877 1.5801 1h3.4199c1.0907 0 2 0.9093 2 2v7h-1v-7c0-0.554-0.446-1-1-1v1 1 6h-2-8v-6-2-1c-0.554 0-1 0.446-1 1v8c0 0.554 0.446 1 1 1h8 2 2.4941c0.001992 2.3e-5 0.003861 0 0.005859 0 0.277 0 0.5-0.223 0.5-0.5v-12.5c0-0.554-0.446-1-1-1h-4z" fill="url(#a)" style="font-variant-east_asian:normal;paint-order:normal"/>
</svg>
