<?xml version="1.0" encoding="UTF-8"?>
<!-- Created with Inkscape (http://www.inkscape.org/) -->
<svg width="16" height="16" version="1.1" xmlns="http://www.w3.org/2000/svg" xmlns:cc="http://creativecommons.org/ns#" xmlns:dc="http://purl.org/dc/elements/1.1/" xmlns:rdf="http://www.w3.org/1999/02/22-rdf-syntax-ns#">
	<defs>
		<radialGradient id="a" cx="-9417.8" cy="5038.4" r="9" gradientTransform="matrix(2.5699 0 0 2.5639 24211 -12903)" gradientUnits="userSpaceOnUse">
			<stop stop-color="#213851" stop-opacity=".9059" offset="0"/>
			<stop stop-color="#27303a" stop-opacity="0" offset="1"/>
		</radialGradient>
		<radialGradient id="b" cx="12" cy="18.056" r="10" gradientTransform="matrix(2.4912 0 0 2.3666 -21.996 -24.926)" gradientUnits="userSpaceOnUse">
			<stop stop-color="#ffffff" stop-opacity=".74858" offset="0"/>
			<stop stop-color="#ffffff" stop-opacity=".60511" offset="1"/>
		</radialGradient>
	</defs>
	<metadata>
		<rdf:RDF>
			<cc:Work rdf:about="">
				<dc:format>image/svg+xml</dc:format>
				<dc:type rdf:resource="http://purl.org/dc/dcmitype/StillImage"/>
				<dc:title/>
			</cc:Work>
		</rdf:RDF>
	</metadata>
	<path d="m8 1c-3.8601 0-7 3.1399-7 7 0 0.30102 0.025458 0.59561 0.0625 0.88672a0.50005 0.50005 0 0 0-0.099609 0.21289 0.50005 0.50005 0 0 1 0.14258 0.0625c0.55636 3.3074 3.4314 5.8379 6.8945 5.8379 3.4088 0 6.252-2.4507 6.8711-5.6816a0.50005 0.50005 0 0 1 0.07226-0.025391 0.50005 0.50005 0 0 0 0-0.00195 0.50005 0.50005 0 0 0-0.04687-0.14453c0.062069-0.37415 0.10352-0.755 0.10352-1.1465 0-3.8601-3.1399-7-7-7zm0 1c1.9568 0 3.6848 0.9363 4.7793 2.3809-0.88996-0.1198-1.7549-0.20149-2.5723-0.20703-1.9237-0.013044-3.655 0.27912-5.2695 0.77539-0.024283-0.81895 0.05999-1.5884 0.25586-2.2539 0.83712-0.44281 1.7917-0.69531 2.8066-0.69531zm-3.998 1.5312c-0.072591 0.56359-0.093781 1.1508-0.058594 1.7539-0.5383 0.19944-1.0615 0.42635-1.5781 0.66602 0.34072-0.93966 0.90697-1.7669 1.6367-2.4199zm6.0703 1.6406c1.0516-1.533e-4 2.1712 0.099099 3.3691 0.30664 0.35512 0.76691 0.55859 1.6191 0.55859 2.5215 0 0.334-0.03375 0.65954-0.085938 0.97852-1.8372 0.46838-4.8285 0.87687-7.6934 0.71875-0.15304-0.2847-0.29664-0.57601-0.42383-0.875-0.3939-0.92601-0.64715-1.9033-0.77344-2.8535 1.5467-0.50121 3.1983-0.79661 5.0488-0.79688zm-6.0215 1.1406c0.15021 0.97364 0.4255 1.9585 0.82617 2.9004 0.055529 0.13054 0.1233 0.25597 0.18359 0.38477-1.0758-0.12507-2.093-0.34571-2.9844-0.68945-0.044959-0.29678-0.076172-0.59865-0.076172-0.9082 0-0.26874 0.024544-0.53174 0.058594-0.79102 0.65158-0.33292 1.3141-0.6323 1.9922-0.89648zm9.6855 3.4512c-0.51113 1.671-1.7312 3.0251-3.3105 3.7227a0.50005 0.50005 0 0 0-0.03906-0.01367c-1.0324-0.33316-1.9326-0.95615-2.6953-1.752-0.44955 8e-3 -0.8969 0.0022-1.3418-0.01758 0.70892 0.90583 1.569 1.6759 2.5742 2.2188-0.30172 0.046519-0.60885 0.078127-0.92383 0.078127-2.6699 0-4.9221-1.7349-5.7031-4.1406 1.4962 0.65562 3.5696 0.92252 5.6621 0.85938 2.1217-0.06402 4.2511-0.451 5.7773-0.95508z" color="#000000" color-rendering="auto" dominant-baseline="auto" fill="#090d11" fill-opacity=".76621" image-rendering="auto" shape-rendering="auto" solid-color="#000000" style="font-feature-settings:normal;font-variant-alternates:normal;font-variant-caps:normal;font-variant-ligatures:normal;font-variant-numeric:normal;font-variant-position:normal;isolation:auto;mix-blend-mode:normal;paint-order:normal;shape-padding:0;text-decoration-color:#000000;text-decoration-line:none;text-decoration-style:solid;text-indent:0;text-orientation:mixed;text-transform:none;white-space:normal"/>
	<path d="m8 1c-3.8601 0-7 3.1399-7 7 0 0.30102 0.025458 0.59561 0.0625 0.88672a0.50005 0.50005 0 0 0-0.099609 0.21289 0.50005 0.50005 0 0 1 0.14258 0.0625c0.55636 3.3074 3.4314 5.8379 6.8945 5.8379 3.4088 0 6.252-2.4507 6.8711-5.6816a0.50005 0.50005 0 0 1 0.072265-0.025391 0.50005 0.50005 0 0 0 0-0.0019532 0.50005 0.50005 0 0 0-0.046875-0.14453c0.062069-0.37414 0.10352-0.755 0.10352-1.1465 0-3.8601-3.1399-7-7-7zm0 1c1.9568 0 3.6848 0.9363 4.7793 2.3809-0.88996-0.1198-1.7549-0.20149-2.5723-0.20703-1.9237-0.013044-3.655 0.27912-5.2695 0.77539-0.024283-0.81895 0.05999-1.5884 0.25586-2.2539 0.83712-0.44281 1.7917-0.69531 2.8066-0.69531zm-3.998 1.5312c-0.072591 0.56359-0.093781 1.1508-0.058594 1.7539-0.5383 0.19944-1.0615 0.42635-1.5781 0.66602 0.34072-0.93966 0.90697-1.7669 1.6367-2.4199zm6.0703 1.6406c1.0516-1.533e-4 2.1712 0.099099 3.3691 0.30664 0.35512 0.76691 0.55859 1.6191 0.55859 2.5215 0 0.334-0.03375 0.65954-0.085938 0.97852-1.8372 0.46838-4.8285 0.87687-7.6934 0.71875-0.15304-0.2847-0.29664-0.57601-0.42383-0.875-0.3939-0.92601-0.64715-1.9033-0.77344-2.8535 1.5467-0.50121 3.1983-0.79661 5.0488-0.79688zm-6.0215 1.1406c0.15021 0.97364 0.4255 1.9585 0.82617 2.9004 0.055529 0.13054 0.1233 0.25597 0.18359 0.38477-1.0758-0.12507-2.093-0.34571-2.9844-0.68945-0.044959-0.29678-0.076172-0.59865-0.076172-0.9082 0-0.26874 0.024544-0.53174 0.058594-0.79102 0.65158-0.33292 1.3141-0.6323 1.9922-0.89648zm9.6855 3.4512c-0.51113 1.671-1.7312 3.0251-3.3105 3.7227a0.50005 0.50005 0 0 0-0.039062-0.013672c-1.0324-0.33316-1.9326-0.95615-2.6953-1.752-0.44955 0.008005-0.8969 0.002158-1.3418-0.017578 0.70892 0.90583 1.569 1.6759 2.5742 2.2188-0.30172 0.046517-0.60885 0.078125-0.92383 0.078125-2.6699 0-4.9221-1.7349-5.7031-4.1406 1.4962 0.65562 3.5696 0.92252 5.6621 0.85938 2.1217-0.064023 4.2511-0.451 5.7773-0.95508z" color="#000000" color-rendering="auto" dominant-baseline="auto" fill="url(#a)" fill-opacity=".75328" image-rendering="auto" shape-rendering="auto" solid-color="#000000" style="font-feature-settings:normal;font-variant-alternates:normal;font-variant-caps:normal;font-variant-east_asian:normal;font-variant-ligatures:normal;font-variant-numeric:normal;font-variant-position:normal;isolation:auto;mix-blend-mode:normal;paint-order:normal;shape-padding:0;text-decoration-color:#000000;text-decoration-line:none;text-decoration-style:solid;text-indent:0;text-orientation:mixed;text-transform:none;white-space:normal"/>
	<path d="m8 0.019531c-4.4021 0-7.9805 3.5784-7.9805 7.9805 0 4.4021 3.5784 7.9805 7.9805 7.9805 4.4021 0 7.9805-3.5784 7.9805-7.9805 0-4.4021-3.5784-7.9805-7.9805-7.9805zm0 0.98047c3.8601 0 7 3.1399 7 7 0 0.39148-0.041447 0.77234-0.10352 1.1465a0.50005 0.50005 0 0 1 0.046875 0.14453 0.50005 0.50005 0 0 0 0 0.0019532 0.50005 0.50005 0 0 0-0.072265 0.025391c-0.25946 1.3541-0.9251 2.5547-1.8438 3.5117-0.080224 0.083407-0.16182 0.16481-0.24609 0.24414-1.2529 1.183-2.9255 1.9258-4.7812 1.9258-3.4632 0-6.3382-2.5305-6.8945-5.8379a0.50005 0.50005 0 0 0-0.14258-0.0625 0.50005 0.50005 0 0 1 0.099609-0.21289c-0.037042-0.29111-0.0625-0.5857-0.0625-0.88672 0-3.8601 3.1399-7 7-7zm2.4336 2.1406c-1.3286-0.030066-2.6548 0.10435-3.9063 0.35547-0.53906 0.10817-1.0513 0.24874-1.5508 0.40234-0.032265 0.33925-0.049841 0.68727-0.039062 1.0508 0.0083832-0.0025769 0.017001-0.0052468 0.025391-0.0078126 0.10541-0.032451 0.21064-0.063954 0.31836-0.095703 0.26612-0.07597 0.53742-0.14299 0.81055-0.20703 0.0013949-3.371e-4 0.0025124-0.0016148 0.0039062-0.0019531 0.03076-0.0072592 0.060946-0.01438 0.091797-0.021484 0.17858-0.046928 0.35138-0.1014 0.53711-0.13867 0.31852-0.063914 0.65138-0.095934 0.97852-0.14258 0.026867-0.0036375 0.053138-0.0082012 0.080078-0.011719 0.68379-0.094245 1.3805-0.15309 2.0781-0.16602 0.69763-0.012928 1.3962 0.020057 2.0859 0.10938 0.004009 3.83e-4 0.007707-3.855e-4 0.011718 0 0.012393 0.0016156 0.024725 0.0042099 0.03711 0.0058594 0.12659 0.016859 0.25323 0.03229 0.37891 0.052734 0.13252 0.015335 0.27114 0.040381 0.4043 0.056641-0.33318-0.43974-0.73074-0.82473-1.1699-1.1582-0.39133-0.039044-0.78309-0.073145-1.1758-0.082031zm-6.4316 0.39062c-0.72975 0.65307-1.296 1.4803-1.6367 2.4199 0.075497-0.035022 0.15467-0.063225 0.23047-0.097656 0.11581-0.051714 0.22705-0.112 0.34375-0.16211 3.249e-4 0.0058398 0.001618 0.011738 0.0019531 0.017578 0.33189-0.14506 0.66006-0.29716 1.002-0.42383-0.035187-0.60312-0.013998-1.1903 0.058594-1.7539zm0.037109 2.7871c-0.33025 0.12891-0.65704 0.26473-0.98047 0.41016 0.14169 0.89907 0.39769 1.7953 0.76953 2.6602 0.40243 0.080895 0.80758 0.15959 1.2324 0.20898-0.06029-0.12879-0.12807-0.25422-0.18359-0.38477-0.064534-0.15171-0.10603-0.30918-0.16406-0.46289-0.32243-0.79846-0.56002-1.6164-0.67383-2.4316zm9.6973 3.4453c-0.20354 0.067224-0.43829 0.12499-0.66211 0.1875-0.29533 0.082739-0.59549 0.16174-0.91992 0.23438-0.21172 0.047219-0.42274 0.088727-0.64453 0.13086-0.37049 0.070829-0.74897 0.13127-1.1406 0.18555-0.1951 0.026891-0.38141 0.055855-0.58008 0.078125-0.60224 0.067974-1.2142 0.12009-1.8301 0.13867-0.44887 0.013545-0.89467 0.005074-1.3359-0.013672-0.18973-0.007482-0.37361-0.021807-0.56055-0.035156-0.12714-0.009205-0.25713-0.011791-0.38281-0.023438-0.002896-0.004424-0.0049233-0.009243-0.0078125-0.013672-0.45859-0.043647-0.90006-0.10619-1.3281-0.1875 0.0035658 0.006401 0.0061869 0.013136 0.0097656 0.019532-0.23531-0.043792-0.45833-0.099135-0.68164-0.1543-0.067173-0.01682-0.13915-0.028984-0.20508-0.046875-0.071338-0.01909-0.13721-0.042165-0.20703-0.0625-0.1834-0.054161-0.3613-0.11086-0.5332-0.17383-0.10774-0.038986-0.2117-0.080535-0.31445-0.12305-0.037358-0.015604-0.078561-0.028852-0.11523-0.044922 0.15071 0.46422 0.37034 0.89416 0.62305 1.3008 0.68073 0.20679 1.4076 0.35653 2.168 0.44531 0.63966 0.88331 1.4227 1.6714 2.3125 2.3457 0.19874 0.019801 0.39552 0.048828 0.59961 0.048828 0.31497 0 0.62211-0.031606 0.92383-0.078125-1.0052-0.54289-1.8653-1.3129-2.5742-2.2188 0.17939 0.007975 0.36085 0.004371 0.54102 0.007813 0.3659 0.008805 0.7318 0.018911 1.0996 0.007812 1.867-0.056338 3.7029-0.33742 5.2266-0.75391 0.21412-0.37638 0.39034-0.77882 0.51953-1.2012z" color="#000000" color-rendering="auto" dominant-baseline="auto" fill="url(#b)" fill-opacity=".99858" image-rendering="auto" shape-rendering="auto" solid-color="#000000" style="font-feature-settings:normal;font-variant-alternates:normal;font-variant-caps:normal;font-variant-east_asian:normal;font-variant-ligatures:normal;font-variant-numeric:normal;font-variant-position:normal;isolation:auto;mix-blend-mode:normal;paint-order:normal;shape-padding:0;text-decoration-color:#000000;text-decoration-line:none;text-decoration-style:solid;text-indent:0;text-orientation:mixed;text-transform:none;white-space:normal"/>
</svg>
