<?xml version="1.0" encoding="UTF-8"?>
<!-- Created with Inkscape (http://www.inkscape.org/) -->
<svg width="16" height="16" version="1.1" xmlns="http://www.w3.org/2000/svg" xmlns:cc="http://creativecommons.org/ns#" xmlns:dc="http://purl.org/dc/elements/1.1/" xmlns:rdf="http://www.w3.org/1999/02/22-rdf-syntax-ns#">
	<metadata>
		<rdf:RDF>
			<cc:Work rdf:about="">
				<dc:format>image/svg+xml</dc:format>
				<dc:type rdf:resource="http://purl.org/dc/dcmitype/StillImage"/>
				<dc:title/>
			</cc:Work>
		</rdf:RDF>
	</metadata>
	<path d="m11.059-0.13281-2.207 8.2363c-0.48169-0.4882-1.0813-0.87142-1.7871-1.0605-2.1224-0.5687-4.3297 0.70768-4.8984 2.8301-0.5687 2.1224 0.70572 4.3297 2.8281 4.8984s4.3297-0.70572 4.8984-2.8281l2.1641-8.0723 1.9863 2.1309 1.4609-1.3652zm-4.9141 9.043c0.13336 0.00847 0.26754 0.030281 0.40234 0.066406 1.0784 0.28895 1.7031 1.3708 1.4141 2.4492-0.28895 1.0784-1.3708 1.7031-2.4492 1.4141-1.0784-0.28895-1.7031-1.3708-1.4141-2.4492 0.25283-0.9436 1.1134-1.5397 2.0469-1.4805z" color="#bebebe" fill="#bebebe"/>
</svg>
