<?xml version="1.0" encoding="UTF-8"?>
<svg id="a" width="16" height="16" version="1.1" xmlns="http://www.w3.org/2000/svg" xmlns:cc="http://creativecommons.org/ns#" xmlns:dc="http://purl.org/dc/elements/1.1/" xmlns:rdf="http://www.w3.org/1999/02/22-rdf-syntax-ns#">
	<metadata id="d">
		<rdf:RDF>
			<cc:Work rdf:about="">
				<dc:format>image/svg+xml</dc:format>
				<dc:type rdf:resource="http://purl.org/dc/dcmitype/StillImage"/>
				<dc:title/>
			</cc:Work>
		</rdf:RDF>
	</metadata>
	<defs>
		<style id="current-color-scheme" type="text/css">.ColorScheme-Text {color:#090d11;}.ColorScheme-Background{color:#ffffff;}</style>
	</defs>
	<path id="b" d="m8 1-3 4h2v4h2v-4h2l-3-4zm-7 6v7h1 12 1v-7h-2v5h-10v-5h-2zm6 3v1h2v-1h-2z" style="fill-opacity:.75;fill:currentColor" class="ColorScheme-Text"/>
	<path id="c" d="m8-0.65625-1.0625 0.8125-3 4-0.6875 0.84375h1.75l3-4 3 4h1.75l-0.6875-0.84375-3-4-1.0625-0.8125zm-2 5.6562v4 1h1 2 1v-1-4h-1v4h-2v-4h-1zm-6 1v1 7 1h1 1 12 1 1v-1-7-1h-1-2-1v1 4 1h1v-5h2v7h-1-12-1v-7h2v5h1v-1-4-1h-1-2-1zm6 5v1h4v-1h-1-2-1z" style="fill-opacity:.5;fill:currentColor" class="ColorScheme-Background"/>
</svg>
