<?xml version="1.0" encoding="UTF-8"?>
<!-- Created with Inkscape (http://www.inkscape.org/) -->
<svg width="16" height="16" version="1.1" xmlns="http://www.w3.org/2000/svg" xmlns:cc="http://creativecommons.org/ns#" xmlns:dc="http://purl.org/dc/elements/1.1/" xmlns:rdf="http://www.w3.org/1999/02/22-rdf-syntax-ns#">
	<defs>
		<radialGradient id="b" cx="-9356.4" cy="5054" r="9" gradientTransform="matrix(1.1111 0 0 2.421 10404 -12231)" gradientUnits="userSpaceOnUse">
			<stop stop-color="#213851" stop-opacity=".9059" offset="0"/>
			<stop stop-color="#27303a" stop-opacity="0" offset="1"/>
		</radialGradient>
		<radialGradient id="a" cx="34.118" cy="13.139" r="9.0713" gradientTransform="matrix(1.6537,0,0,1.4274,-3412.8,2087)" gradientUnits="userSpaceOnUse">
			<stop stop-color="#ffffff" stop-opacity=".8252" offset="0"/>
			<stop stop-color="#ffffff" stop-opacity=".6051" offset="1"/>
		</radialGradient>
	</defs>
	<metadata>
		<rdf:RDF>
			<cc:Work rdf:about="">
				<dc:format>image/svg+xml</dc:format>
				<dc:type rdf:resource="http://purl.org/dc/dcmitype/StillImage"/>
				<dc:title/>
			</cc:Work>
		</rdf:RDF>
	</metadata>
	<path d="m2 1c-0.554 0-1 0.446-1 1v4c0 0.5541 0.4459 1 1 1h4v-1.8125a3.9999 1.3735 0 0 1-2-1.1875 3.9999 1.3735 0 0 1 4-1.373 3.9999 1.3735 0 0 1 4 1.373 3.9999 1.3735 0 0 1-2 1.1875v1.8125h4c0.5541 0 1-0.4459 1-1v-4c0-0.554-0.4459-1-1-1zm5 4.3281v1.6719h2v-1.6699a3.9999 1.3735 0 0 1-1 0.043 3.9999 1.3735 0 0 1-1-0.045zm-6 1.6719v1c0 0.5541 0.4459 1 1 1h4v-1h-4c-0.5541 0-1-0.4459-1-1zm14 0c0 0.5541-0.4459 1-1 1h-4v1h4c0.5541 0 1-0.4459 1-1zm-8 1v1h2v-1zm-6 1v1c0 0.5541 0.4459 1 1 1h4v-1h-4c-0.5541 0-1-0.4459-1-1zm14 0c0 0.5541-0.4459 1-1 1h-4v1h4c0.5541 0 1-0.4459 1-1zm-8 1v1h2v-1zm-6 1v1c0 0.5541 0.4459 1 1 1h4v-1h-4c-0.5541 0-1-0.4459-1-1zm14 0c0 0.5541-0.4459 1-1 1h-4v1h4c0.5541 0 1-0.4459 1-1zm-8 1v1h2v-1zm-6 1v1c0 0.5541 0.4459 1 1 1h4v-1h-4c-0.5541 0-1-0.4459-1-1zm14 0c0 0.5541-0.4459 1-1 1h-4v1h4c0.5541 0 1-0.4459 1-1zm-8 1v1h2v-1z" fill="#090d11" fill-opacity=".76621" style="paint-order:normal"/>
	<path d="m2 1c-0.554 0-1 0.446-1 1v4c0 0.5541 0.4459 1 1 1h4v-1.8125a3.9999 1.3735 0 0 1-2-1.1875 3.9999 1.3735 0 0 1 4-1.373 3.9999 1.3735 0 0 1 4 1.373 3.9999 1.3735 0 0 1-2 1.1875v1.8125h4c0.5541 0 1-0.4459 1-1v-4c0-0.554-0.4459-1-1-1zm5 4.3281v1.6719h2v-1.6699a3.9999 1.3735 0 0 1-1 0.043 3.9999 1.3735 0 0 1-1-0.045zm-6 1.6719v1c0 0.5541 0.4459 1 1 1h4v-1h-4c-0.5541 0-1-0.4459-1-1zm14 0c0 0.5541-0.4459 1-1 1h-4v1h4c0.5541 0 1-0.4459 1-1zm-8 1v1h2v-1zm-6 1v1c0 0.5541 0.4459 1 1 1h4v-1h-4c-0.5541 0-1-0.4459-1-1zm14 0c0 0.5541-0.4459 1-1 1h-4v1h4c0.5541 0 1-0.4459 1-1zm-8 1v1h2v-1zm-6 1v1c0 0.5541 0.4459 1 1 1h4v-1h-4c-0.5541 0-1-0.4459-1-1zm14 0c0 0.5541-0.4459 1-1 1h-4v1h4c0.5541 0 1-0.4459 1-1zm-8 1v1h2v-1zm-6 1v1c0 0.5541 0.4459 1 1 1h4v-1h-4c-0.5541 0-1-0.4459-1-1zm14 0c0 0.5541-0.4459 1-1 1h-4v1h4c0.5541 0 1-0.4459 1-1zm-8 1v1h2v-1z" fill="url(#b)" style="paint-order:normal"/>
	<path d="m2 0c-1.0907 0-2 0.9093-2 2l-0.0039062 12.002c0 1.0906 0.9094 2 2 2h12c1.0906 0 2-0.9094 2-2v-12c0-1.0906-0.9093-2-2-2zm0 1h12c0.5541 0 1 0.446 1 1v4c0 0.5541-0.4459 1-1 1h-4v-1.8125c1.2358-0.24499 1.9979-0.6975 2-1.1875-7.43e-4 -0.7584-1.7914-1.3731-4-1.373-2.2086-1.23e-5 -3.9993 0.61465-4 1.373 0.002079 0.49 0.7642 0.94251 2 1.1875v1.8125h-4c-0.5541 0-1-0.4459-1-1v-4c0-0.554 0.446-1 1-1zm5 4.3281c0.32648 0.029402 0.66248 0.044496 1 0.044922 0.33728 2.115e-4 0.67328-0.014226 1-0.042969v1.6699h-2zm-6 1.6719c0 0.5541 0.4459 1 1 1h4v1h-4c-0.5541 0-1-0.4459-1-1zm14 0v1c0 0.5541-0.4459 1-1 1h-4v-1h4c0.5541 0 1-0.4459 1-1zm-8 1h2v1h-2zm-6 1c0 0.5541 0.4459 1 1 1h4v1h-4c-0.5541 0-1-0.4459-1-1zm14 0v1c0 0.5541-0.4459 1-1 1h-4v-1h4c0.5541 0 1-0.4459 1-1zm-8 1h2v1h-2zm-6 1c0 0.5541 0.4459 1 1 1h4v1h-4c-0.5541 0-1-0.4459-1-1zm14 0v1c0 0.5541-0.4459 1-1 1h-4v-1h4c0.5541 0 1-0.4459 1-1zm-8 1h2v1h-2zm-6 1c0 0.5541 0.4459 1 1 1h4v1h-4c-0.5541 0-1-0.4459-1-1zm14 0v1c0 0.5541-0.4459 1-1 1h-4v-1h4c0.5541 0 1-0.4459 1-1zm-8 1h2v1h-2z" color="#000000" color-rendering="auto" dominant-baseline="auto" fill="url(#a)" image-rendering="auto" shape-rendering="auto" solid-color="#000000" style="font-feature-settings:normal;font-variant-alternates:normal;font-variant-caps:normal;font-variant-ligatures:normal;font-variant-numeric:normal;font-variant-position:normal;isolation:auto;mix-blend-mode:normal;paint-order:normal;shape-padding:0;text-decoration-color:#000000;text-decoration-line:none;text-decoration-style:solid;text-indent:0;text-orientation:mixed;text-transform:none;white-space:normal"/>
</svg>
