<?xml version="1.0" encoding="UTF-8"?>
<!-- Created with Inkscape (http://www.inkscape.org/) -->
<svg width="16" height="16" version="1.1" xmlns="http://www.w3.org/2000/svg" xmlns:cc="http://creativecommons.org/ns#" xmlns:dc="http://purl.org/dc/elements/1.1/" xmlns:rdf="http://www.w3.org/1999/02/22-rdf-syntax-ns#">
	<defs>
		<radialGradient id="b" cx="4.2034" cy="7.8254" r="8" gradientTransform="matrix(1.5339,0,0,1.438,-9381.6,4838.8)" gradientUnits="userSpaceOnUse">
			<stop stop-color="#ffffff" stop-opacity=".8252" offset="0"/>
			<stop stop-color="#ffffff" stop-opacity=".6051" offset="1"/>
		</radialGradient>
		<radialGradient id="a" cx="-9371.3" cy="4850.4" r="7" gradientTransform="matrix(2,0,0,1.8571,18750,-9002.7)" gradientUnits="userSpaceOnUse">
			<stop stop-color="#213851" stop-opacity=".9059" offset="0"/>
			<stop stop-color="#27303a" stop-opacity="0" offset="1"/>
		</radialGradient>
	</defs>
	<metadata>
		<rdf:RDF>
			<cc:Work rdf:about="">
				<dc:format>image/svg+xml</dc:format>
				<dc:type rdf:resource="http://purl.org/dc/dcmitype/StillImage"/>
				<dc:title/>
			</cc:Work>
		</rdf:RDF>
	</metadata>
	<path d="m8-0.41406-8.4141 8.4141h1.4141l7-7 7 7h1.4141zm-5 8.4141-1 1v6h3.5c0.8333 0 1.457-0.54297 1.707-0.79297s0.12627-0.20703 0.29297-0.20703h1c0.1667 0 0.042969-0.04297 0.29297 0.20703 0.25 0.25 0.87373 0.79297 1.707 0.79297h3.5v-6l-1-1v6h-2.5c-1 0-1-1-2-1h-1c-1 0-1 1-2 1h-2.5v-6z" color="#000000" color-rendering="auto" dominant-baseline="auto" fill="url(#b)" image-rendering="auto" shape-rendering="auto" solid-color="#000000" style="font-feature-settings:normal;font-variant-alternates:normal;font-variant-caps:normal;font-variant-ligatures:normal;font-variant-numeric:normal;font-variant-position:normal;isolation:auto;mix-blend-mode:normal;paint-order:normal;shape-padding:0;text-decoration-color:#000000;text-decoration-line:none;text-decoration-style:solid;text-indent:0;text-orientation:mixed;text-transform:none;white-space:normal"/>
	<path d="m8 1-7 7 1 1 1-1v6h2.5c1 0 1-1 2-1h1c1 0 1 1 2 1l2.5001 1e-4 -1e-4 -6.0001 1 1 1-1zm0 2.25 4 3.75v6h-1c-1 0-1-1-2-1h-2c-1 0-1 1-2 1h-1v-6z" fill="#090d11" fill-opacity=".76621" style="paint-order:normal"/>
	<path d="m8 1-7 7 1 1 1-1v6h2.5c1 0 1-1 2-1h1c1 0 1 1 2 1l2.5001 1e-4 -1e-4 -6.0001 1 1 1-1zm0 2.25 4 3.75v6h-1c-1 0-1-1-2-1h-2c-1 0-1 1-2 1h-1v-6z" fill="url(#a)" style="paint-order:normal"/>
</svg>
