<?xml version="1.0" encoding="UTF-8" standalone="no"?>
<svg
   xmlns:dc="http://purl.org/dc/elements/1.1/"
   xmlns:cc="http://creativecommons.org/ns#"
   xmlns:rdf="http://www.w3.org/1999/02/22-rdf-syntax-ns#"
   xmlns:svg="http://www.w3.org/2000/svg"
   xmlns="http://www.w3.org/2000/svg"
   version="1.1"
   id="svg13094"
   height="22"
   width="22">
  <defs
     id="defs4">
    <style
       id="current-color-scheme"
       type="text/css">.ColorScheme-Text {color:#090d11;}.ColorScheme-Background{color:#ffffff;}</style>
  </defs>
  <metadata
     id="metadata13099">
    <rdf:RDF>
      <cc:Work
         rdf:about="">
        <dc:format>image/svg+xml</dc:format>
        <dc:type
           rdf:resource="http://purl.org/dc/dcmitype/StillImage" />
        <dc:title></dc:title>
      </cc:Work>
    </rdf:RDF>
  </metadata>
  <path
     id="path3769"
     d="M 11.5938,3 C 3.593,2.86637 0.8763,9.65246 2.4375,13.125 c 1.1649,2.59129 3.3717,-0.62122 4.9688,0.59375 1.2473,0.94878 -2.4983,2.74695 -1.375,3.75 3.0164,2.69337 7.6873,1.41536 9.8437,-0.15625 C 22.4793,12.49946 21.2632,3.1615 11.5938,3 Z m -0.5313,1.4375 c 0.1461,-0.014 0.2827,9.3e-4 0.4063,0.0625 0.4943,0.24632 0.5881,1.03977 0.2187,1.78125 C 11.3181,7.02272 10.5881,7.43381 10.0938,7.1875 9.5995,6.94119 9.5056,6.11647 9.875,5.375 10.0597,5.00423 10.342,4.72478 10.625,4.5625 10.7666,4.4814 10.9164,4.45147 11.0625,4.4375 Z M 15.0938,5.5 c 0.2287,0.007 0.4188,0.10081 0.5625,0.25 0.383,0.39785 0.1904,1.1754 -0.4063,1.75 -0.5969,0.57463 -1.3982,0.71035 -1.7812,0.3125 -0.3831,-0.39782 -0.1906,-1.17537 0.4062,-1.75 0.2984,-0.28734 0.6477,-0.47335 0.9688,-0.53125 0.08,-0.0145 0.1737,-0.0335 0.25,-0.0312 z M 6.9375,5.90625 C 7.489,5.87575 7.954,6.51663 8,7.34375 8.046,8.17088 7.6452,8.87575 7.0938,8.90625 6.5423,8.93675 6.046,8.29588 6,7.46875 5.977,7.05517 6.053,6.65607 6.2188,6.375 6.3845,6.09393 6.6618,5.92155 6.9375,5.90625 Z m 10.6563,2.0625 c 0.3255,0.021 0.6119,0.1671 0.75,0.40625 C 18.6199,8.85329 18.2488,9.58578 17.5313,10 16.8138,10.41422 15.9949,10.35329 15.7188,9.875 15.4426,9.39671 15.8138,8.66422 16.5313,8.25 16.89,8.04285 17.2682,7.94775 17.5938,7.96875 Z m -5.75,4.90625 c 0.7408,-0.0143 1.3995,0.32971 1.5937,0.90625 0.259,0.76872 -0.3758,1.68413 -1.4062,2.03125 C 11.0008,16.15962 9.9465,15.8 9.6875,15.03125 9.4285,14.26253 10.0633,13.34712 11.0938,13 c 0.2576,-0.0868 0.503,-0.12 0.75,-0.125 z"
     style="fill:currentColor;fill-opacity:0.75"
     class="ColorScheme-Text" />
  <path
     style="fill:currentColor;fill-opacity:0.5"
     class="ColorScheme-Background"
     d="M 11.625,1.8125 C 2.9414,1.66747 -0.67075,9.14434 1.34375,13.625 c 0.3873,0.86162 1.11005,1.52207 1.90625,1.6875 0.7962,0.16543 1.40145,-0.0658 1.90625,-0.25 0.2782,-0.10154 0.44215,-0.14196 0.65625,-0.21875 -0.3032,0.32432 -0.6602,0.66943 -0.9375,1.1875 -0.149,0.27827 -0.2734,0.63622 -0.25,1.09375 0.023,0.45752 0.26325,0.95496 0.59375,1.25 1.808,1.61445 4.1368,2.01513 6.1875,1.8125 2.0506,-0.20263 3.9011,-0.96873 5.1875,-1.90625 C 20.22275,15.63653 21.8133,11.6238 21,8.125 20.1867,4.6262 16.845,1.89969 11.625,1.8125 Z M 11.59375,3 c 9.6694,0.1615 10.88555,9.49946 4.28125,14.3125 -2.1564,1.57161 -6.82735,2.84962 -9.84375,0.15625 -1.1233,-1.00305 2.6223,-2.80122 1.375,-3.75 C 5.80915,12.50378 3.6024,15.71629 2.4375,13.125 0.8763,9.65246 3.59295,2.86637 11.59375,3 Z M 11.0625,4.4375 C 10.9164,4.45147 10.7666,4.4814 10.625,4.5625 10.342,4.72478 10.0597,5.00423 9.875,5.375 9.5056,6.11647 9.59945,6.94119 10.09375,7.1875 10.58805,7.43381 11.3181,7.02272 11.6875,6.28125 12.0569,5.53977 11.96305,4.74632 11.46875,4.5 11.34515,4.43843 11.2086,4.4235 11.0625,4.4375 Z M 15.09375,5.5 c -0.0763,-0.0023 -0.17,0.01675 -0.25,0.03125 C 14.52265,5.58915 14.1734,5.77516 13.875,6.0625 13.2782,6.63713 13.08565,7.41468 13.46875,7.8125 13.85175,8.21035 14.6531,8.07463 15.25,7.5 15.8467,6.9254 16.03925,6.14785 15.65625,5.75 15.51255,5.60081 15.32245,5.507 15.09375,5.5 Z M 6.9375,5.90625 C 6.6618,5.92155 6.38445,6.09393 6.21875,6.375 6.05295,6.65607 5.977,7.05517 6,7.46875 6.046,8.29588 6.54225,8.93675 7.09375,8.90625 7.64515,8.87575 8.046,8.17088 8,7.34375 7.954,6.51663 7.489,5.87575 6.9375,5.90625 Z m 10.65625,2.0625 c -0.3256,-0.021 -0.7038,0.0741 -1.0625,0.28125 -0.7175,0.41422 -1.0887,1.14671 -0.8125,1.625 0.2761,0.47829 1.095,0.53922 1.8125,0.125 0.7175,-0.41422 1.0886,-1.14671 0.8125,-1.625 -0.1381,-0.23915 -0.4245,-0.38525 -0.75,-0.40625 z m -5.75,4.90625 c -0.247,0.005 -0.4924,0.0382 -0.75,0.125 -1.0305,0.34712 -1.66525,1.26253 -1.40625,2.03125 0.259,0.76875 1.31325,1.12837 2.34375,0.78125 1.0304,-0.34712 1.66525,-1.26253 1.40625,-2.03125 C 13.2433,13.20471 12.58455,12.8607 11.84375,12.875 Z"
     id="path3011" />
</svg>
