<?xml version="1.0" encoding="UTF-8" standalone="no"?>
<svg
   xmlns:dc="http://purl.org/dc/elements/1.1/"
   xmlns:cc="http://creativecommons.org/ns#"
   xmlns:rdf="http://www.w3.org/1999/02/22-rdf-syntax-ns#"
   xmlns:svg="http://www.w3.org/2000/svg"
   xmlns="http://www.w3.org/2000/svg"
   version="1.1"
   id="svg13094"
   height="22"
   width="22">
  <defs
     id="defs4">
    <style
       id="current-color-scheme"
       type="text/css">.ColorScheme-Text {color:#090d11;}.ColorScheme-Background{color:#ffffff;}</style>
  </defs>
  <metadata
     id="metadata13099">
    <rdf:RDF>
      <cc:Work
         rdf:about="">
        <dc:format>image/svg+xml</dc:format>
        <dc:type
           rdf:resource="http://purl.org/dc/dcmitype/StillImage" />
        <dc:title></dc:title>
      </cc:Work>
    </rdf:RDF>
  </metadata>
  <path
     class="ColorScheme-Text"
     id="path41"
     d="m 8,3 v 1 l 1,1 v 4 l -4,7 v 2 l 1,1 h 10 l 1,-1 V 16 L 13,9 V 5 L 14,4 V 3 Z m 1.414062,1 h 3.171876 L 12.292969,4.2929688 C 12.105433,4.4804805 12.000051,4.734801 12,5 v 4 c -2.61e-4,0.17393 0.04484,0.344922 0.130859,0.496094 l 1.425306,2.493745 -5.1067995,-0.0097 L 9.869141,9.49607 C 9.955157,9.344922 10.000261,9.17393 10,9 V 5 C 9.999949,4.734801 9.894567,4.4804805 9.707031,4.2929688 Z"
     style="fill:currentColor;fill-opacity:0.75" />
  <path
     class="ColorScheme-Background"
     style="fill:currentColor;fill-opacity:0.5"
     d="M 7,2 V 4.6875 L 7.15625,4.84375 7.8125,5.5 V 8.6875 L 4,15.34375 v 3.34375 l 0.15625,0.15625 1,1 L 5.3125,20 h 11.375 l 0.15625,-0.15625 1,-1 L 18,18.6875 V 15.34375 L 14.1875,8.6875 V 5.5 L 14.84375,4.84375 15,4.6875 V 2 Z m 1,1 h 6 v 1 l -1,1 v 4 l 4,7 v 2 l -1,1 H 6 L 5,18 V 16 L 9,9 V 5 L 8,4 Z m 1.009766,8 -0.5605472,0.980469 5.1074222,0.0098 L 12.990234,11 Z"
     id="rect3000" />
</svg>
