<?xml version="1.0" encoding="UTF-8"?>
<!-- Created with Inkscape (http://www.inkscape.org/) -->
<svg width="64" height="64" version="1.1" xmlns="http://www.w3.org/2000/svg" xmlns:cc="http://creativecommons.org/ns#" xmlns:dc="http://purl.org/dc/elements/1.1/" xmlns:rdf="http://www.w3.org/1999/02/22-rdf-syntax-ns#" xmlns:xlink="http://www.w3.org/1999/xlink">
	<defs>
		<radialGradient id="g" cx="52.109" cy="61.044" r="27" gradientTransform="matrix(.89152 0 0 .72643 4.3706 11.571)" gradientUnits="userSpaceOnUse">
			<stop stop-color="#ffffff" stop-opacity=".56776" offset="0"/>
			<stop stop-color="#ffffff" stop-opacity="0" offset="1"/>
		</radialGradient>
		<radialGradient id="f" cx="9.7286" cy="38.707" r="27" gradientTransform="matrix(2.709 -.3155 .066445 .57051 -22.748 19.584)" gradientUnits="userSpaceOnUse">
			<stop stop-color="#2d4458" stop-opacity=".2494" offset="0"/>
			<stop stop-color="#2d4458" stop-opacity="0" offset="1"/>
		</radialGradient>
		<radialGradient id="h" cx="57.773" cy="22.556" r="32" fx="93.147" fy="22.527" gradientTransform="matrix(-.19817 -.19817 .14168 -.14168 29.335 25.201)" gradientUnits="userSpaceOnUse" xlink:href="#a"/>
		<linearGradient id="a">
			<stop stop-color="#7e0b26" stop-opacity=".44908" offset="0"/>
			<stop stop-color="#7e0b26" stop-opacity="0" offset="1"/>
		</linearGradient>
		<radialGradient id="i" cx="-28.201" cy="142.81" r="32" fx="7.1729" fy="142.78" gradientTransform="matrix(-.19817 -.19817 .14168 -.14168 29.335 25.201)" gradientUnits="userSpaceOnUse" xlink:href="#a"/>
		<linearGradient id="d" x1="11.351" x2="11.351" y1="10.67" y2=".11082" gradientUnits="userSpaceOnUse" xlink:href="#c"/>
		<linearGradient id="c">
			<stop stop-color="#e3afc8" offset="0"/>
			<stop stop-color="#ddd3d9" offset=".18215"/>
			<stop stop-color="#e3e8ea" offset=".44303"/>
			<stop stop-color="#ffffff" offset=".6718"/>
			<stop stop-color="#f4f6f8" offset=".96296"/>
			<stop stop-color="#f1f4f6" offset="1"/>
		</linearGradient>
		<linearGradient id="e" x1="-22.649" x2="-22.649" y1="10.67" y2=".11082" gradientUnits="userSpaceOnUse" xlink:href="#c"/>
		<linearGradient id="b" x1="47.75" x2="47.189" y1="55.438" y2="53.345" gradientUnits="userSpaceOnUse">
			<stop stop-color="#969696" offset="0"/>
			<stop stop-color="#b3b3b3" offset="1"/>
		</linearGradient>
	</defs>
	<metadata>
		<rdf:RDF>
			<cc:Work rdf:about="">
				<dc:format>image/svg+xml</dc:format>
				<dc:type rdf:resource="http://purl.org/dc/dcmitype/StillImage"/>
				<dc:title/>
			</cc:Work>
		</rdf:RDF>
	</metadata>
	<path d="m1.6362e-8 15h64v46l-3 3h-58l-3-3z" color="#000000" fill="#d12f54"/>
	<path d="m6 15v44h24l33.088 2.6187c-1.3283-1.239-2.7369-3.1236-3.0884-7.6187v-39z" color="#000000" fill="#550000" fill-opacity=".074579"/>
	<path d="m5 14v44h54v-44z" color="#000000" fill="#bebebe"/>
	<path d="m5 15v44h25l29-6v-38z" color="#000000" fill="#e7e7e7"/>
	<path d="m5 15v44h25l29-6v-38z" color="#000000" fill="url(#g)"/>
	<path d="m5 15v44h25l29-6v-38z" color="#000000" fill="url(#f)"/>
	<path d="m0 3v12h64v-12h-32z" color="#000000" fill="#d12f54"/>
	<path d="m0 3v12h64v-12h-32z" color="#000000" fill="url(#h)"/>
	<path d="m0 3v12h64v-12h-32z" color="#000000" fill="url(#i)"/>
	<path d="m1.6362e-8 18v-3h64v3h-32z" color="#000000" fill="#550000" fill-opacity=".074579"/>
	<path d="m2 1-2 1v1h63.999v-1l-2-1h-42.437z" color="#000000" fill="#ff66a3"/>
	<path d="m0 2v3l2-2z" fill="#ff83b5"/>
	<g transform="translate(4)">
		<rect x="9" width="4" height="11" color="#000000" fill="url(#d)"/>
		<path d="m13 1v3.7812c0.44717 0.72485 0.71875 1.5221 0.71875 2.2188 0 0.69561-0.27272 1.1672-0.71875 1.375v2.625h-3.7812c0.60482 0.52089 1.2469 0.99433 1.9062 1.375 3.8019 2.195 6.875 0.89566 6.875-2.9062 0-1.7067-0.62919-3.6154-1.6641-5.4017-0.90012-1.1495-2.0191-2.1676-3.3359-3.0671z" color="#000000" fill="#550000" fill-opacity=".074579"/>
	</g>
	<g transform="translate(38)">
		<rect x="9" width="4" height="11" color="#000000" fill="url(#e)"/>
		<path d="m13 1v3.7812c0.44717 0.72485 0.71875 1.5221 0.71875 2.2188 0 0.69561-0.27272 1.1672-0.71875 1.375v2.625h-3.7812c0.60482 0.52089 1.2469 0.99433 1.9062 1.375 3.8019 2.195 6.875 0.89566 6.875-2.9062 0-1.7067-0.62919-3.6154-1.6641-5.4017-0.90012-1.1495-2.0191-2.1676-3.3359-3.0671z" color="#000000" fill="#550000" fill-opacity=".074579"/>
	</g>
	<path d="m64 5-2-2 2-1z" fill="#d7577e" fill-opacity=".99563"/>
	<path d="m59 52.633-0.0023 0.38009-28.998 5.9871 27.205-8.9445c0.31725 1.7207 1.7955 3.9019 1.7955 2.5774z" color="#000000" fill="url(#b)"/>
	<g>
		<g id="j" transform="translate(3,-1)">
			<rect x="9" y="22" width="4" height="4" rx="1" ry="1" color="#000000" fill="#000000" fill-opacity=".19589"/>
		</g>
		<use transform="translate(12)" width="64" height="64" xlink:href="#j"/>
		<path d="m10 28h44l1 1v6l-1 1h-44l-1-1v-6z" color="#000000" fill="#3650d5" fill-opacity=".48479"/>
		<use transform="translate(12,9)" width="64" height="64" xlink:href="#j"/>
		<use transform="translate(0,9)" width="64" height="64" xlink:href="#j"/>
		<use transform="translate(12,18)" width="64" height="64" xlink:href="#j"/>
		<use transform="translate(0,18)" width="64" height="64" xlink:href="#j"/>
		<use transform="translate(12,27)" width="64" height="64" xlink:href="#j"/>
		<use transform="translate(0,27)" width="64" height="64" xlink:href="#j"/>
		<use transform="translate(24)" width="64" height="64" xlink:href="#j"/>
		<use transform="translate(24,9)" width="64" height="64" xlink:href="#j"/>
		<use transform="translate(24,18)" width="64" height="64" xlink:href="#j"/>
		<use transform="translate(24,27)" width="64" height="64" xlink:href="#j"/>
		<use transform="translate(36)" width="64" height="64" xlink:href="#j"/>
		<use transform="translate(36,9)" width="64" height="64" xlink:href="#j"/>
		<use transform="translate(36,18)" width="64" height="64" xlink:href="#j"/>
		<use transform="translate(36,27)" width="64" height="64" xlink:href="#j"/>
	</g>
</svg>
