<?xml version="1.0" encoding="UTF-8"?>
<svg id="g" width="22" height="22" version="1.1" xmlns="http://www.w3.org/2000/svg" xmlns:cc="http://creativecommons.org/ns#" xmlns:dc="http://purl.org/dc/elements/1.1/" xmlns:rdf="http://www.w3.org/1999/02/22-rdf-syntax-ns#">
	<metadata id="a">
		<rdf:RDF>
			<cc:Work rdf:about="">
				<dc:format>image/svg+xml</dc:format>
				<dc:type rdf:resource="http://purl.org/dc/dcmitype/StillImage"/>
				<dc:title/>
			</cc:Work>
		</rdf:RDF>
	</metadata>
	<defs>
		<style id="current-color-scheme" type="text/css">.ColorScheme-Text {color:#090d11;}.ColorScheme-Background{color:#ffffff;}</style>
	</defs>
	<path id="f" d="m4 3v4h1v-1a1 1 0 0 1 1-1h4v12a1 1 0 0 1-1 1h-2v1h8v-1h-2a1 1 0 0 1-1-1v-12h4a1 1 0 0 1 1 1v1h1v-4h-13z" style="fill-opacity:.75;fill:currentColor" class="ColorScheme-Text"/>
	<path id="h" d="m3 2v5h1v-4h14v4h1v-5h-15zm6 3 1e-4 13h1l-1e-4 -13zm3 0 1e-4 13h1l-1e-4 -13zm-4.9999 14v1h8v-1z" style="fill-opacity:.5;fill:currentColor" class="ColorScheme-Background"/>
</svg>
