<?xml version="1.0" encoding="UTF-8"?>
<!-- Created with Inkscape (http://www.inkscape.org/) -->
<svg width="22" height="22" version="1.1" xmlns="http://www.w3.org/2000/svg" xmlns:cc="http://creativecommons.org/ns#" xmlns:dc="http://purl.org/dc/elements/1.1/" xmlns:rdf="http://www.w3.org/1999/02/22-rdf-syntax-ns#">
	<metadata>
		<rdf:RDF>
			<cc:Work rdf:about="">
				<dc:format>image/svg+xml</dc:format>
				<dc:type rdf:resource="http://purl.org/dc/dcmitype/StillImage"/>
			</cc:Work>
		</rdf:RDF>
	</metadata>
	<defs>
		<style id="current-color-scheme" type="text/css">.ColorScheme-Text {color:#090d11;}.ColorScheme-Background{color:#ffffff;}</style>
	</defs>
	<path class="ColorScheme-Background" d="m8 2-1 2h-0.09375c-0.162 0.7651-0.25 1.5627-0.25 2.375 0 6.2736 5.0702 11.344 11.344 11.344l0.625-0.0625 1.2812-2.7188 0.09375-0.1875v-12.75l-0.99995 5e-5 -4.9e-5 -1h-3l4.9e-5 1-1-5e-5v12.75l0.09375 0.1875 0.64995 1.4576-0.27495-0.17639c-4.4652-1.1468-7.8125-5.0084-7.8125-9.8438 0-0.7401 0.07095-1.457 0.21875-2.1562l0.25-1.2188zm8 0h3v12.5l-1 2.5h-1l-1-2.5zm-12.5 15v1h2v-1zm-1.5 1.5v2h1v-2zm4 0v2h1v-2zm2 0.5v1h1v-1zm2 0v1h1v-1zm2 0v1h1v-1zm2 0v1h1v-1zm2 0v1h1v-1zm2 0v1h1v-1zm-14.5 2v1h2v-1z" style="fill-opacity:.5;fill:currentColor"/>
	<path class="ColorScheme-Text" d="m6.4 4c-0.246 0.9551-0.375 1.9676-0.375 3 0 6.6274 5.3726 12 12 12v-1.2813c-6.2736 0-11.344-5.0701-11.344-11.344 0-0.8123 0.088-1.6099 0.25-2.375zm11.625 15h-1v1h1zm-2-17v12.5l1 2.5h1l1-2.5v-12.5zm-13 16v3h3v-3h-2.5zm1 1h1v1h-1zm3 0v1h1v-1zm2 0v1h1v-1zm2 0v1h1v-1zm2 0v1h1v-1zm2 0v1h1v-1z" style="fill-opacity:.75;fill:currentColor"/>
</svg>
