<?xml version="1.0" encoding="UTF-8"?>
<svg id="b" width="22" height="22" version="1.1" xmlns="http://www.w3.org/2000/svg" xmlns:cc="http://creativecommons.org/ns#" xmlns:dc="http://purl.org/dc/elements/1.1/" xmlns:rdf="http://www.w3.org/1999/02/22-rdf-syntax-ns#">
	<metadata id="f">
		<rdf:RDF>
			<cc:Work rdf:about="">
				<dc:format>image/svg+xml</dc:format>
				<dc:type rdf:resource="http://purl.org/dc/dcmitype/StillImage"/>
				<dc:title/>
			</cc:Work>
		</rdf:RDF>
	</metadata>
	<defs id="g">
		<style id="current-color-scheme" type="text/css">.ColorScheme-Text {color:#090d11;}.ColorScheme-Background{color:#ffffff;}</style>
	</defs>
	<path id="e" class="ColorScheme-Text" d="m11.012 1.0059a0.50005 0.50005 0 0 0-0.26172 0.068359l-8.1582 4.7051a0.50005 0.50005 0 0 0-0.00391 0.00195 0.50005 0.50005 0 0 0-0.31641 0.54688v9.418a0.50005 0.50005 0 0 0 0.25 0.43359l8.1621 4.707a0.50005 0.50005 0 0 0 0.0059 0.0039 0.50005 0.50005 0 0 0 0.62109 0l8.168-4.7109a0.50005 0.50005 0 0 0 0.25-0.43359v-9.416a0.50005 0.50005 0 0 0-0.31445-0.54688l-8.1641-4.709a0.50005 0.50005 0 0 0-0.23828-0.068359zm-0.01172 1.0781 7.2285 4.168-7.2285 4.1719-7.2285-4.1719zm7.7285 5.0352v8.3379l-7.2285 4.1699v-8.3379z" style="fill-opacity:.75;fill:currentColor"/>
	<path id="a" class="ColorScheme-Text" d="m18.729 7.1191-7.2285 4.1699v8.3379l7.2285-4.1699z" style="fill-opacity:.75;fill:currentColor;opacity:.35"/>
	<path id="c" class="ColorScheme-Background" d="m11.029 0.0059c-0.27551-0.00507-0.54732 0.065926-0.78516 0.20508l-8.1523 4.7012 0.044922-0.023438c0.0013-6.557e-4 0.0026-0.0013 0.00391-0.00195l0.00781-0.00391 0.083984-0.037109c-0.65993 0.25026-1.0612 0.94377-0.94922 1.6406l-0.011719-0.1582v9.418c5.8e-5 0.53418 0.28733 1.0317 0.75 1.2988v2e-3l8.1621 4.707-0.03906-0.02539c-0.0012-7.92e-4 -0.0027-0.0012-0.0039-2e-3l-0.01367-0.0098-0.05859-0.04297c0.54152 0.42908 1.3218 0.42908 1.8633 0l-0.12109 0.08398 8.168-4.7109v-2e-3c0.46267-0.26716 0.74994-0.76465 0.75-1.2988v-9.4161l-0.01367 0.16016c0.11267-0.69511-0.28565-1.3883-0.94336-1.6406l0.14258 0.066406-8.1582-4.7051c-0.21724-0.12724-0.46318-0.1978-0.71484-0.20508-0.0039-2.29e-5 -0.0078-2.29e-5 -0.01172 0zm-0.01758 1c0.08391 0.00243 0.16585 0.025935 0.23828 0.068359l8.1641 4.709c0.22108 0.08484 0.35235 0.31312 0.31445 0.54688v9.416c1.98e-4 0.17884-0.09513 0.34417-0.25 0.43359l-8.168 4.7109c-0.18194 0.14416-0.43916 0.14416-0.62109 0-2e-3 -0.0013-0.0039-0.0026-0.0059-0.0039l-8.1621-4.707c-0.15487-0.08943-0.2502-0.25476-0.25-0.43359v-9.418c-0.037637-0.23427 0.094547-0.46274 0.31641-0.54688 0.0013-6.567e-4 0.0026-0.00131 0.00391-0.00195l8.1582-4.7051c0.0793-0.046398 0.16986-0.07005 0.26172-0.068359z" style="fill-opacity:.5;fill:currentColor"/>
	<path id="d" class="ColorScheme-Background" d="m18.729 7.1191-7.2285 4.1699v8.3379l7.2285-4.1699z" style="fill-opacity:.5;fill:currentColor;opacity:.35"/>
</svg>
