<?xml version="1.0" encoding="UTF-8"?>
<!-- Created with Inkscape (http://www.inkscape.org/) -->
<svg width="22" height="22" version="1.1" xmlns="http://www.w3.org/2000/svg" xmlns:cc="http://creativecommons.org/ns#" xmlns:dc="http://purl.org/dc/elements/1.1/" xmlns:rdf="http://www.w3.org/1999/02/22-rdf-syntax-ns#">
	<defs>
		<style
			id="current-color-scheme"
			type="text/css">
			.ColorScheme-Text {
			color:#090d11;
			}
			.ColorScheme-Background{
			color:#ffffff;
			}
		</style>
	</defs>
	<metadata>
		<rdf:RDF>
			<cc:Work rdf:about="">
				<dc:format>image/svg+xml</dc:format>
				<dc:type rdf:resource="http://purl.org/dc/dcmitype/StillImage"/>
				<dc:title/>
			</cc:Work>
		</rdf:RDF>
	</metadata>
	<path d="m9 2c-0.554 0-1 0.446-1 1s-0.446 1-1 1h-2c-0.554 0-1 0.446-1 1v13c0 0.554 0.446 1 1 1h3.0937c0.2081 0.579 0.7577 1 1.4043 1h8.004c0.8223 0 1.496-0.6776 1.496-1.5v-10c0-0.6467-0.4195-1.1977-0.998-1.4063v-2.0937c0-0.554-0.446-1-1-1h-2c-0.554 0-1-0.446-1-1s-0.446-1-1-1zm1.5 2h1c0.277 0 0.5 0.223 0.5 0.5s-0.223 0.5-0.5 0.5h-1c-0.277 0-0.5-0.223-0.5-0.5s0.223-0.5 0.5-0.5zm-1.002 4h8.004c0.071 0 0.137 0.015 0.1972 0.039 0.058 0.024 0.1126 0.058 0.1563 0.1015 6e-4 7e-4 0 0 0 0 0.043 0.043 0.077 0.094 0.1016 0.1523 2e-4 5e-4 -2e-4 0 0 0 0.024 0.059 0.04 0.1239 0.041 0.1933 1e-4 0 0 0.01 0 0.01v10c0 0.2857-0.2144 0.5-0.5 0.5h-8.004c-0.071 0-0.1374-0.013-0.1972-0.037-5e-4 -2e-4 0 2e-4 0 0-0.06-0.024-0.1118-0.061-0.1562-0.1055-0.089-0.089-0.1446-0.2146-0.1446-0.3574v-10c0-0.1428 0.055-0.2681 0.1446-0.3574 0.089-0.089 0.2126-0.1426 0.3554-0.1426z" style="fill:currentColor;fill-opacity:0.75;" class="ColorScheme-Text"/>
	<path d="m9.002 1c-1.0907 0-2 0.9093-2 2h-2c-1.0907 0-2 0.9093-2 2v13c0 1.0907 0.9093 2 2 2h3.6504c0.4567 0.5651 1.0652 1 1.8457 1h7.0039c1.3717 0 2.4961-1.1315 2.4961-2.5v-9c0-0.7791-0.43209-1.39-0.99609-1.8477v-2.6523c0-1.0907-0.9093-2-2-2h-2c0-1.0907-0.9093-2-2-2zm-2e-3 1h4c0.554 0 1 0.446 1 1s0.446 1 1 1h2c0.554 0 1 0.446 1 1v2.0938c0.57855 0.2086 0.9981 0.75955 0.9981 1.4062v10c0 0.8224-0.67379 1.5-1.4961 1.5h-8.0039c-0.6466 0-1.1962-0.421-1.4043-1h-3.0938c-0.554 0-1-0.446-1-1v-13c0-0.554 0.446-1 1-1h2c0.554 0 1-0.446 1-1s0.446-1 1-1zm1.5 2c-0.277 0-0.5 0.223-0.5 0.5s0.223 0.5 0.5 0.5h1c0.277 0 0.5-0.223 0.5-0.5s-0.223-0.5-0.5-0.5zm-1.0039 3.9961c-0.1428 0-0.26647 0.053578-0.35547 0.14258-0.0896 0.0893-0.14453 0.21462-0.14453 0.35742v10c0 0.1428 0.05553 0.26842 0.14453 0.35742 0.0444 0.0445 0.09625 0.08147 0.15625 0.10547 0.0598 0.024 0.12627 0.03711 0.19727 0.03711h0.50586v-1h-0.0019v-8.9961h8v-0.50391s1e-4 -0.0098 0-0.0098c-1e-3 -0.0694-0.01702-0.13436-0.04102-0.19336-0.0246-0.0583-0.05856-0.10934-0.10156-0.15234-0.0437-0.0435-0.09825-0.07756-0.15625-0.10156-0.0602-0.024-0.12626-0.03906-0.19726-0.03906h-8.0039z" style="fill:currentColor;fill-opacity:0.5;" class="ColorScheme-Background"/>
</svg>
