<?xml version="1.0" encoding="UTF-8"?>
<svg id="b" width="22" height="22" version="1.1" xmlns="http://www.w3.org/2000/svg" xmlns:cc="http://creativecommons.org/ns#" xmlns:dc="http://purl.org/dc/elements/1.1/" xmlns:rdf="http://www.w3.org/1999/02/22-rdf-syntax-ns#">
	<metadata id="d">
		<rdf:RDF>
			<cc:Work rdf:about="">
				<dc:format>image/svg+xml</dc:format>
				<dc:type rdf:resource="http://purl.org/dc/dcmitype/StillImage"/>
			</cc:Work>
		</rdf:RDF>
	</metadata>
	<defs id="f">
		<style id="current-color-scheme" type="text/css">.ColorScheme-Text {color:#090d11;}.ColorScheme-Background{color:#ffffff;}</style>
	</defs>
	<path id="c" class="ColorScheme-Text" d="m10.881 2.0156c-0.07896 0.019258-0.15203 0.05747-0.21289 0.11133l-9 8c-0.22274 0.19882-0.22274 0.54727 0 0.74609l9 8c0.1894 0.16819 0.47466 0.16819 0.66406 0l9-8c0.22274-0.19882 0.22274-0.54727 0-0.74609l-9-8c-0.12297-0.10898-0.29162-0.1506-0.45117-0.11133zm0.11914 1.1543 8.248 7.3301-8.248 7.3301-8.248-7.3301zm0 3.8301c-1.933 0-3.5 1.567-3.5 3.5s1.567 3.5 3.5 3.5 3.5-1.567 3.5-3.5-1.567-3.5-3.5-3.5zm-1.2715 1c0.67856-1.585e-4 1.2287 0.54996 1.2285 1.2285 1.58e-4 0.67856-0.54996 1.2287-1.2285 1.2285-0.67856 1.59e-4 -1.2287-0.54996-1.2285-1.2285-1.59e-4 -0.67856 0.54996-1.2287 1.2285-1.2285z" style="fill-opacity:.75;fill:currentColor"/>
	<path id="a" class="ColorScheme-Background" d="m10.881 0.7656c-0.07808 0.018981-0.15043 0.056498-0.21094 0.10938l-10.5 9.25c-0.22567 0.19907-0.22567 0.55093 0 0.75l10.5 9.25c0.18879 0.16589 0.47137 0.16589 0.66016 0l10.5-9.25c0.22567-0.19907 0.22567-0.55093 0-0.75l-10.5-9.25c-0.12288-0.10765-0.2906-0.14849-0.44922-0.10938zm0.11914 1.1504 9.7441 8.584-9.7441 8.584-9.7441-8.584zm0 4.084c-2.4794 0-4.5 2.0206-4.5 4.5s2.0206 4.5 4.5 4.5 4.5-2.0206 4.5-4.5-2.0206-4.5-4.5-4.5zm0 1c1.9389 0 3.5 1.5611 3.5 3.5s-1.5611 3.5-3.5 3.5-3.5-1.5611-3.5-3.5 1.5611-3.5 3.5-3.5zm-1.2715 1c-0.67856-1.59e-4 -1.2287 0.54996-1.2285 1.2285-1.585e-4 0.67856 0.54996 1.2287 1.2285 1.2285 0.67856 1.58e-4 1.2287-0.54996 1.2285-1.2285 1.59e-4 -0.67856-0.54996-1.2287-1.2285-1.2285z" style="fill-opacity:.5;fill:currentColor"/>
</svg>
