<?xml version="1.0" encoding="UTF-8"?>
<svg id="d" width="22" height="22" version="1.1" xmlns="http://www.w3.org/2000/svg" xmlns:cc="http://creativecommons.org/ns#" xmlns:dc="http://purl.org/dc/elements/1.1/" xmlns:rdf="http://www.w3.org/1999/02/22-rdf-syntax-ns#">
	<metadata id="c">
		<rdf:RDF>
			<cc:Work rdf:about="">
				<dc:format>image/svg+xml</dc:format>
				<dc:type rdf:resource="http://purl.org/dc/dcmitype/StillImage"/>
				<dc:title/>
			</cc:Work>
		</rdf:RDF>
	</metadata>
	<defs id="e">
		<style id="current-color-scheme" type="text/css">.ColorScheme-Text {color:#090d11;}.ColorScheme-Background{color:#ffffff;}</style>
	</defs>
	<path id="b" class="ColorScheme-Text" d="m14.443 2.5625a0.50005 0.50005 0 0 0-0.40625 0.24805l-1.752 3.0352a0.50005 0.50005 0 1 0 0.86524 0.5l1.3184-2.2852 5.1699 8.9434h-2.1406a0.50005 0.50005 0 1 0 0 1h3.0098a0.50005 0.50005 0 0 0 0.43359-0.75l-6.0391-10.443a0.50005 0.50005 0 0 0-0.45898-0.24805zm-8.041 0.4375c-1.0855 0.01926-2.1655 0.36033-3.0898 1.0176-1.8487 1.3145-2.7014 3.6331-2.1445 5.832 0.55688 2.1989 2.4106 3.8333 4.6621 4.1094a0.50005 0.50005 0 1 0 0.12305-0.99219c-1.845-0.22627-3.3581-1.5614-3.8145-3.3633-0.45634-1.8019 0.23903-3.6943 1.7539-4.7715 1.5149-1.0772 3.5319-1.1126 5.084-0.089844 1.5521 1.0227 2.314 2.8901 1.9219 4.707a0.5005 0.5005 0 1 0 0.97852 0.21094c0.47853-2.2173-0.45744-4.5058-2.3516-5.7539-0.94706-0.62404-2.0375-0.92551-3.123-0.90625zm1.0977 8a0.50005 0.50005 0 0 0-0.5 0.5v8a0.50005 0.50005 0 0 0 0.5 0.5h8a0.50005 0.50005 0 0 0 0.5-0.5v-8a0.50005 0.50005 0 0 0-0.5-0.5zm0.5 1h7v7h-7z" style="fill-opacity:.75;fill:currentColor"/>
	<path id="a" class="ColorScheme-Background" d="m14.459 0.6309a0.50005 0.50005 0 0 0-0.4043 0.24805l-1.5664 2.6973a0.50005 0.50005 0 1 0 0.86328 0.50195l1.1348-1.9531 6.9023 11.875h-2.916a0.50005 0.50005 0 1 0 0 1h3.7852a0.50005 0.50005 0 0 0 0.43359-0.75195l-7.7715-13.369a0.50005 0.50005 0 0 0-0.46094-0.24805zm-7.7949 1.3711c-3.059-0.079152-5.8056 2.0101-6.502 5.0469-0.74283 3.2392 1.0834 6.5266 4.2266 7.6055a0.50005 0.50005 0 1 0 0.32422-0.94531c-2.6672-0.91552-4.2065-3.6868-3.5762-6.4355 0.63036-2.7488 3.2239-4.5726 6.0234-4.2344 2.7996 0.33827 4.8842 2.7271 4.8418 5.5469a0.50006 0.50006 0 1 0 1 0.01563c0.04999-3.3229-2.4235-6.156-5.7227-6.5547-0.2062-0.02492-0.4113-0.03965-0.61523-0.044927zm-0.16406 7.998a0.50005 0.50005 0 0 0-0.5 0.5v10a0.50005 0.50005 0 0 0 0.5 0.5h10a0.50005 0.50005 0 0 0 0.5-0.5v-10a0.50005 0.50005 0 0 0-0.5-0.5zm0.5 1h9v9h-9z" style="fill-opacity:.5;fill:currentColor"/>
</svg>
