<?xml version="1.0" encoding="UTF-8"?>
<!-- Created with Inkscape (http://www.inkscape.org/) -->
<svg width="18" height="18" version="1.1" xmlns="http://www.w3.org/2000/svg" xmlns:cc="http://creativecommons.org/ns#" xmlns:dc="http://purl.org/dc/elements/1.1/" xmlns:rdf="http://www.w3.org/1999/02/22-rdf-syntax-ns#">
	<defs>
		<style id="current-color-scheme" type="text/css">.ColorScheme-Text {
				color:#090d11;
			}
			.ColorScheme-Background{
				color:#ffffff;
			}</style>
	</defs>
	<metadata>
		<rdf:RDF>
			<cc:Work rdf:about="">
				<dc:format>image/svg+xml</dc:format>
				<dc:type rdf:resource="http://purl.org/dc/dcmitype/StillImage"/>
			</cc:Work>
		</rdf:RDF>
	</metadata>
	<path class="ColorScheme-Background" d="m1.5 1c-0.27613 2.76e-5 -0.49997 0.22387-0.5 0.5v13c2.76e-5 0.27613 0.22387 0.49997 0.5 0.5h5c0.27613-2.8e-5 0.49997-0.22387 0.5-0.5 0-0.75595 0.25559-1.2606 0.62305-1.6035 0.36746-0.34296 0.86862-0.52148 1.377-0.52148s1.0095 0.17853 1.377 0.52148c0.36746 0.34296 0.62305 0.84756 0.62305 1.6035 2.8e-5 0.27613 0.22387 0.49997 0.5 0.5h3c0.27614 0 0.5-0.22386 0.5-0.5s-0.22386-0.5-0.5-0.5h-2.5957c-0.10752-0.74958-0.38008-1.4012-0.84375-1.834-0.57004-0.53204-1.3189-0.79102-2.0605-0.79102s-1.4905 0.25898-2.0605 0.79102c-0.46367 0.43276-0.73623 1.0844-0.84375 1.834h-4.0957v-12h14v14h-14.5c-0.27614 0-0.5 0.22386-0.5 0.5s0.22386 0.5 0.5 0.5h15c0.27613-2.8e-5 0.49997-0.22387 0.5-0.5v-15c-2.8e-5 -0.27613-0.22387-0.49997-0.5-0.5zm7.5 5c-1.0986 0-2 0.90135-2 2s0.90135 2 2 2 2-0.90135 2-2-0.90135-2-2-2z" style="fill-opacity:.5;fill:currentColor"/>
	<path class="ColorScheme-Text" d="m2.5 2c-0.27613 2.76e-5 -0.49997 0.22387-0.5 0.5v11c2.76e-5 0.27613 0.22387 0.49997 0.5 0.5h3c0.27613-2.8e-5 0.49997-0.22387 0.5-0.5 0-2.8333 6-2.8333 6 0 2.8e-5 0.27613 0.22387 0.49997 0.5 0.5h1c0.27614 0 0.5-0.22386 0.5-0.5s-0.22386-0.5-0.5-0.5h-0.625c-0.22882-1.2415-1.2213-2.0316-2.4238-2.377 0.92195-0.51318 1.5488-1.4977 1.5488-2.623 0-1.6509-1.3491-3-3-3s-3 1.3491-3 3c0 1.1253 0.62688 2.1099 1.5488 2.623-1.2025 0.34533-2.195 1.1354-2.4238 2.377h-2.125v-10h12v12h-12.5c-0.27614 0-0.5 0.22386-0.5 0.5s0.22386 0.5 0.5 0.5h13c0.27613-2.8e-5 0.49997-0.22387 0.5-0.5v-13c-2.8e-5 -0.27613-0.22387-0.49997-0.5-0.5zm6.5 4c1.1105 0 2 0.88951 2 2s-0.88951 2-2 2-2-0.88951-2-2 0.88951-2 2-2z" style="fill-opacity:.75;fill:currentColor"/>
</svg>
