<?xml version="1.0" encoding="UTF-8"?>
<svg id="a" width="18" height="18" version="1.1" xmlns="http://www.w3.org/2000/svg" xmlns:cc="http://creativecommons.org/ns#" xmlns:dc="http://purl.org/dc/elements/1.1/" xmlns:rdf="http://www.w3.org/1999/02/22-rdf-syntax-ns#">
	<metadata id="d">
		<rdf:RDF>
			<cc:Work rdf:about="">
				<dc:format>image/svg+xml</dc:format>
				<dc:type rdf:resource="http://purl.org/dc/dcmitype/StillImage"/>
				<dc:title/>
			</cc:Work>
		</rdf:RDF>
	</metadata>
	<defs id="e">
		<style id="current-color-scheme" type="text/css">.ColorScheme-Text {color:#090d11;}.ColorScheme-Background{color:#ffffff;}</style>
	</defs>
	<path id="b" class="ColorScheme-Text" d="m15.281 1.9277-6.2812 6.2813-2.5312-2.5312-0.73828 0.73828 3.2695 3.2695 7.0195-7.0195-0.73828-0.73828zm-13.281 6.0723v7h14v-7h-2v5h-10v-5z" style="fill-opacity:.75;fill:currentColor"/>
	<path id="c" class="ColorScheme-Background" d="m15.281 0.52148-0.71875 0.6875-5.5625 5.5625-1.8125-1.8125-0.71875-0.6875-0.71875 0.6875 3.25 3.25 6.2812-6.2813 0.71875-0.71875-0.71875-0.6875zm-14.281 6.4785v9h16v-9h-4v5h-8v-5h-3zm1 1h2v5h10v-5h2v7h-14z" style="fill-opacity:.5;fill:currentColor"/>
</svg>
