<?xml version="1.0" encoding="UTF-8" standalone="no"?>
<svg
   xmlns:dc="http://purl.org/dc/elements/1.1/"
   xmlns:cc="http://creativecommons.org/ns#"
   xmlns:rdf="http://www.w3.org/1999/02/22-rdf-syntax-ns#"
   xmlns:svg="http://www.w3.org/2000/svg"
   xmlns="http://www.w3.org/2000/svg"
   version="1.1"
   width="24"
   height="24"
   id="svg13094">
  <metadata
     id="metadata13099">
    <rdf:RDF>
      <cc:Work
         rdf:about="">
        <dc:format>image/svg+xml</dc:format>
        <dc:type
           rdf:resource="http://purl.org/dc/dcmitype/StillImage" />
        <dc:title></dc:title>
      </cc:Work>
    </rdf:RDF>
  </metadata>
  <defs
     id="defs4">
    <style
       id="current-color-scheme"
       type="text/css">.ColorScheme-Text {color:#090d11;}.ColorScheme-Background{color:#ffffff;}.ColorScheme-Highlight{color:#0079c1;}.ColorScheme-PositiveText {color:#31ad39;}</style>
  </defs>
  <path
     style="fill:currentColor;fill-opacity:1"
     class="ColorScheme-Background"
     d="m 19.778176,19.778171 a 11.000001,11.000001 0 0 1 -15.5563501,0 11.000001,11.000001 0 0 1 0,-15.5563502 11.000001,11.000001 0 0 1 15.5563501,0 11.000001,11.000001 0 0 1 0,15.5563502 z"
     id="path3000" />
  <path
     id="path3778"
     d="M 12.130859 3 C 9.6987857 2.96525 7.3561983 3.9163752 5.6367188 5.6367188 C 2.1229066 9.1512819 2.1229066 14.848718 5.6367188 18.363281 C 9.1512819 21.877093 14.848718 21.877093 18.363281 18.363281 C 21.877093 14.848718 21.877093 9.1512819 18.363281 5.6367188 C 16.707927 3.9804978 14.47224 3.0346574 12.130859 3 z M 16.441406 8.3613281 A 1.0001 1.0001 0 0 1 17.167969 10.078125 L 11.167969 16.078125 A 1.0001 1.0001 0 0 1 9.75 16.074219 L 6.9003906 13.193359 A 1.0001 1.0001 0 1 1 8.3203125 11.787109 L 10.464844 13.953125 L 15.753906 8.6640625 A 1.0001 1.0001 0 0 1 16.441406 8.3613281 z "
     
     style="fill:currentColor;fill-opacity:1"
     class="ColorScheme-PositiveText" />
</svg>
