<?xml version="1.0" encoding="UTF-8" standalone="no"?>
<svg
   xmlns:dc="http://purl.org/dc/elements/1.1/"
   xmlns:cc="http://creativecommons.org/ns#"
   xmlns:rdf="http://www.w3.org/1999/02/22-rdf-syntax-ns#"
   xmlns:svg="http://www.w3.org/2000/svg"
   xmlns="http://www.w3.org/2000/svg"
   version="1.1"
   width="24"
   height="24"
   id="svg13094">
  <metadata
     id="metadata13099">
    <rdf:RDF>
      <cc:Work
         rdf:about="">
        <dc:format>image/svg+xml</dc:format>
        <dc:type
           rdf:resource="http://purl.org/dc/dcmitype/StillImage" />
        <dc:title></dc:title>
      </cc:Work>
    </rdf:RDF>
  </metadata>
  <defs
     id="defs4">
    <style
       id="current-color-scheme"
       type="text/css">.ColorScheme-Text {color:#090d11;}.ColorScheme-Background{color:#ffffff;}.ColorScheme-NegativeText {color:#df0278;}</style>
  </defs>
  <path
     style="fill:currentColor;fill-opacity:1;stroke-width:0.46808514"
     class="ColorScheme-Background"
     d="m 19.778176,19.778171 c -4.295768,4.295767 -11.2605826,4.295767 -15.5563501,0 -4.2957673,-4.295768 -4.2957673,-11.2605826 0,-15.5563502 4.2957675,-4.2957673 11.2605821,-4.2957673 15.5563501,0 4.295767,4.2957676 4.295767,11.2605822 0,15.5563502 z"
     id="path3000" />
  <path
     class="ColorScheme-NegativeText"
     style="fill:currentColor;fill-opacity:1"
     d="M 12.130859,3 C 9.6987853,2.96525 7.3561984,3.9163752 5.6367188,5.6367188 c -3.5138121,3.5145632 -3.5138121,9.2119992 0,12.7265622 3.5145631,3.513812 9.2119992,3.513812 12.7265622,0 3.513812,-3.514563 3.513812,-9.211999 0,-12.7265622 C 16.707927,3.9804979 14.47224,3.0346574 12.130859,3 Z M 16,11 c 0.554,0 1,0.446 1,1 0,0.554 -0.446,1 -1,1 H 8 C 7.446,13 7,12.554 7,12 7,11.446 7.446,11 8,11 Z"
     id="path3778" />
</svg>
