<?xml version="1.0" encoding="UTF-8"?>
<svg id="g" width="18" height="18" version="1.1" xmlns="http://www.w3.org/2000/svg" xmlns:cc="http://creativecommons.org/ns#" xmlns:dc="http://purl.org/dc/elements/1.1/" xmlns:rdf="http://www.w3.org/1999/02/22-rdf-syntax-ns#">
	
	<defs>
		<style id="current-color-scheme" type="text/css">.ColorScheme-Text {color:#090d11;}.ColorScheme-Background{color:#ffffff;}</style>
	</defs>
	<metadata id="b">
		<rdf:RDF>
			<cc:Work rdf:about="">
				<dc:format>image/svg+xml</dc:format>
				<dc:type rdf:resource="http://purl.org/dc/dcmitype/StillImage"/>
				<dc:title/>
			</cc:Work>
		</rdf:RDF>
	</metadata>
	<path id="f" d="m11.068 2.0273c-1.4992-0.026423-2.9886 0.62023-3.9883 1.8613-1.4924 1.8529-1.437 4.476 0.039062 6.2852l-1.7305 1.7305c-0.19463-0.19488-0.46101-0.30087-0.73633-0.29297-0.2598 0.0077-0.50638 0.11632-0.6875 0.30273l-2.5352 2.5352c-0.98166 0.94251 0.47151 2.3957 1.4141 1.4141l2.5059-2.5059c0.010166-0.0094 0.01994-0.01913 0.029297-0.0293l2.7012-2.7031c0.00196-0.0013 0.00392-0.0026 0.00586-0.0039 0.15065-0.10586 0.23093-0.28594 0.20898-0.46875 5.1e-6 -0.0013 5.1e-6 -0.0026 0-0.0039-5.881e-4 -0.0046-0.00124-0.0091-0.00195-0.01367-0.00472-0.02856-0.011905-0.05666-0.021484-0.08398-0.027915-0.08867-0.079995-0.1678-0.15039-0.22852-1.4205-1.4493-1.5394-3.7228-0.26367-5.3066 0.24864-0.3087 0.5421-0.55647 0.85352-0.77148-0.14729 0.78183-0.30273 1.8673-0.30273 3.3184 0 2.3137 0.42614 3.967 0.48438 4.1875 1.5e-4 5.68e-4 0.00181 0.0053 0.00195 0.0059-7.95e-5 0.06763 0.014932 0.13288 0.042969 0.19531a0.50005 0.50005 0 0 0 0.58398 0.33789c0.69726 0.21213 1.4077 0.26506 2.0977 0.17383a0.50005 0.50005 0 0 0 0.36523-0.04687c1.4555-0.30241 2.7568-1.2429 3.4629-2.6563 0.85468-1.7108 0.63749-3.7029-0.42969-5.1738-0.35573-0.49032-0.80535-0.92318-1.3418-1.2676-0.52919-0.3397-1.1022-0.55682-1.6875-0.67773a0.50005 0.50005 0 0 0-0.26562-0.066406 0.50005 0.50005 0 0 0-0.05664 0.00586c-0.19873-0.02756-0.39818-0.049217-0.59766-0.052734zm-0.02148 0.99609c0.02546 4.629e-4 0.05071 0.00686 0.07617 0.00781-0.15438 0.72684-0.38672 2.1005-0.38672 3.9863 0 1.8949 0.23633 3.2745 0.39062 3.998-0.4318 0.01636-0.86871-0.04568-1.3008-0.17578-0.094874-0.37981-0.41797-1.7483-0.41797-3.7773 0-2.115 0.36153-3.5754 0.43555-3.8633 0.39079-0.11527 0.79506-0.1832 1.2031-0.17578zm1.0586 0.18164c0.35444 0.10535 0.70361 0.24406 1.0293 0.45312 0.04496 0.028859 0.07961 0.067311 0.12305 0.097656-0.04097 0.16607-0.42578 1.7505-0.42578 3.3789 0 1.4794 0.29483 2.7965 0.38672 3.1875-0.34203 0.23282-0.71448 0.40621-1.1094 0.52344-0.14128-0.6492-0.37305-1.967-0.37305-3.8281 0-1.8488 0.22758-3.1583 0.36914-3.8125zm2.0098 1.3594c0.92968 1.1857 1.1462 2.8293 0.4375 4.248-0.13142 0.26307-0.29503 0.49816-0.47266 0.71875-0.12032-0.64022-0.24805-1.4835-0.24805-2.3965 0-1.0392 0.15886-1.9546 0.2832-2.5703z" style="fill-opacity:.75;fill:currentColor" class="ColorScheme-Text"/>
	<path id="h" d="m11.295 1.0098c-1.4521-0.077836-2.9326 0.36499-4.1348 1.3477-2.4044 1.9652-2.9188 5.4495-1.1875 8.0273 0.36718 0.57911 1.2283-3.53e-4 0.83008-0.55859-1.4485-2.1568-1.0214-5.0492 0.99023-6.6934 1.1373-0.92951 2.561-1.2627 3.916-1.0566a0.50005 0.50005 0 0 1 0.01367-0.00195 0.50005 0.50005 0 0 1 0.16406 0.023437 0.50005 0.50005 0 0 1 0.0098 0.00195c0.0014 2.653e-4 0.0025 0.00169 0.0039 0.00195 0.19628 0.037501 0.3905 0.085979 0.58203 0.14648a0.50005 0.50005 0 0 0-0.02539 0.03125c0.30744 0.09332 0.60569 0.21886 0.89648 0.375a0.50005 0.50005 0 0 0 0.0059-0.03125c0.10252 0.055655 0.19911 0.12369 0.29883 0.18555 0.0058 0.00367 0.01182 0.00607 0.01758 0.00977 0.0044 0.0028 0.0074 0.00696 0.01172 0.00977 0.28485 0.1792 0.5616 0.37577 0.81055 0.62109a0.50005 0.50005 0 0 0-0.01758 0.025391c0.19474 0.19262 0.37889 0.39325 0.53711 0.61133 0.089 0.12267 0.16319 0.25336 0.24023 0.38281 0.0018-0.00846 0.0041-0.02493 0.0059-0.033203 0.76701 1.267 0.91732 2.7916 0.45508 4.1719-0.07444 0.22227-0.16465 0.43934-0.27148 0.65234-0.06893 0.13743-0.13433 0.27579-0.2168 0.4082-0.0013-0.00652-0.0026-0.016856-0.0039-0.023438-0.23166 0.37588-0.50347 0.71663-0.81445 1.0098a0.50047 0.50047 0 0 0 2e-3 0.0059c-0.3256 0.30818-0.67284 0.58143-1.0547 0.78711a0.50035 0.50035 0 0 0-0.0039-0.04102c-0.27949 0.15103-0.57042 0.28102-0.87305 0.37695a0.50035 0.50035 0 0 0 0.02344 0.02539c-0.20924 0.06671-0.42316 0.11541-0.63867 0.1543-0.0013 2.29e-4 -0.0026-2.29e-4 -0.0039 0a0.50005 0.50005 0 0 1-0.10547 0.01563c-0.76756 0.12117-1.56 0.06503-2.3164-0.17774a0.50005 0.50005 0 0 1-0.36328-0.13089c-0.31447-0.12859-0.62217-0.28545-0.91406-0.48242-0.048974-0.04091-0.10533-0.07207-0.16602-0.0918-0.00388-2e-3 -0.00779-4e-3 -0.011719-0.0059-0.00325-6.83e-4 -0.0065-0.0012-0.00977-0.0019-0.14038-0.04757-0.28508-0.02295-0.40625 0.04687l-2.1914 2.1934c-0.00936 0.01017-0.019131 0.0199-0.029297 0.0293l-2.5059 2.5059c-0.063841 0.06649-0.13356 0.09556-0.20117 0.14062l-0.41797 0.41797c-0.9547 0.94268 0.47002 2.3694 1.4141 1.416l3.0352-3.0371c0.39287-0.38199 0.40507-1.0092 0.027344-1.4062l1.2051-1.1895c2.5157 1.4917 5.7801 0.96469 7.6855-1.3066 1.9957-2.3791 1.8516-5.8976-0.33008-8.1074-1.0909-1.1049-2.5147-1.7034-3.9668-1.7812zm-0.29297 2.0176c-0.35597-0.00164-0.70758 0.055445-1.0508 0.14844-0.12737 0.53119-0.42188 1.8727-0.42188 3.8867 0 1.93 0.2659 3.2064 0.4043 3.8008 0.34962 0.09596 0.70116 0.14396 1.0508 0.14453-0.05008-0.18899-0.45508-1.7481-0.45508-3.9453 0-2.287 0.45403-3.9667 0.47266-4.0352zm1.2031 0.21289c-0.15187 0.77252-0.3457 2.0494-0.3457 3.7773 0 1.7382 0.19548 3.0208 0.34766 3.791 0.32863-0.10657 0.64041-0.25316 0.93164-0.44141-0.08091-0.45198-0.15891-1.0407-0.21484-1.7871-0.05118-0.44648-0.0918-0.92567-0.0918-1.4453 0-0.45643 0.03175-0.89911 0.07617-1.3184 0.05276-0.90566 0.13925-1.6352 0.23242-2.1543-2e-3 -0.00133-0.0039-0.00262-0.0059-0.00391-0.29485-0.18927-0.60986-0.31658-0.92969-0.41797zm-3.4941 0.50391c-0.31142 0.21501-0.60487 0.46279-0.85352 0.77148-0.10392 0.12902-0.18407 0.26889-0.26953 0.40625-0.1033 0.63621-0.20117 1.4226-0.20117 2.2129 0 0.67806 0.07684 1.3365 0.16211 1.9199 0.16118 0.27088 0.3427 0.53336 0.57227 0.76758 0.070396 0.06072 0.12247 0.13985 0.15039 0.22852 0.00958 0.02732 0.016764 0.05543 0.021484 0.08398 7.1e-4 0.0046 0.00136 0.0091 0.00195 0.01367 5.1e-6 0.0013 5.1e-6 0.0026 0 0.0039 0.02195 0.18281-0.058334 0.36289-0.20898 0.46875-0.00194 0.0013-0.0039 0.0026-0.00586 0.0039l-0.16602 0.16602a0.50047 0.50047 0 0 0 0.86719-0.08984c-0.1041-0.46155-0.23381-1.1531-0.31641-2.332-0.044565-0.4014-0.078125-0.82141-0.078125-1.2344 0-0.21155 0.023318-0.42346 0.037109-0.63672 0.034325-1.1645 0.16017-2.0801 0.28711-2.7539zm5.4824 0.93555c-0.11916 0.66954-0.24023 1.5457-0.24023 2.4551 0 0.81642 0.10381 1.6356 0.21094 2.2812 0.14368-0.18813 0.27918-0.38434 0.38867-0.60352 0.2506-0.50163 0.37959-1.0309 0.4082-1.5586-5.29e-4 -0.042318-0.0078-0.076394-0.0078-0.11914 0-0.074899 0.0062-0.14316 0.0078-0.2168-0.02486-0.80252-0.28951-1.583-0.76758-2.2383z" style="fill-opacity:.5;fill:currentColor"  class="ColorScheme-Background"/>
</svg>
