<?xml version="1.0" encoding="UTF-8"?>
<!-- Created with Inkscape (http://www.inkscape.org/) -->
<svg width="18" height="18" version="1.1" xmlns="http://www.w3.org/2000/svg" xmlns:cc="http://creativecommons.org/ns#" xmlns:dc="http://purl.org/dc/elements/1.1/" xmlns:rdf="http://www.w3.org/1999/02/22-rdf-syntax-ns#">
	<defs>
		<style id="current-color-scheme" type="text/css">.ColorScheme-Text {color:#090d11;}.ColorScheme-Background{color:#ffffff;}</style>
	</defs>
	<metadata>
		<rdf:RDF>
			<cc:Work rdf:about="">
				<dc:format>image/svg+xml</dc:format>
				<dc:type rdf:resource="http://purl.org/dc/dcmitype/StillImage"/>
			</cc:Work>
		</rdf:RDF>
	</metadata>
	<path id="c" class="ColorScheme-Text" d="m6.4902 3.7129c-0.22819 0.055929-0.38667 0.26317-0.38086 0.49805l0.09375 3.6914-3.2441 1.7656c-0.38988 0.21341-0.32839 0.79136 0.097656 0.91797l3.5391 1.0527 0.67578 3.6289c0.079948 0.43925 0.65171 0.5615 0.9043 0.19336l2.0938-3.043 3.6621 0.47852c0.43984 0.05582 0.72938-0.44596 0.46094-0.79883l-2.2441-2.9316 1.5859-3.334c0.19226-0.40176-0.19709-0.83547-0.61719-0.6875l-3.4824 1.2305-2.6816-2.5391c-0.12334-0.11705-0.29771-0.1634-0.46289-0.12305zm0.65039 1.6758 2.0293 1.9219c0.13638 0.12848 0.33314 0.16995 0.50977 0.10742l2.6348-0.92773-1.2012 2.5234c-0.08007 0.16917-0.05896 0.36888 0.05469 0.51758l1.6992 2.2188-2.7695-0.36133c-0.18649-0.02534-0.37142 0.05618-0.47852 0.21094l-1.584 2.3008-0.51172-2.7461c-0.034808-0.18426-0.16978-0.33356-0.34961-0.38672l-2.6777-0.79883 2.4551-1.334c0.16486-0.090227 0.26521-0.26527 0.25977-0.45312z" style="fill-opacity:.75;fill:currentColor"/>
</svg>
