<?xml version="1.0" encoding="UTF-8"?>
<!-- Created with Inkscape (http://www.inkscape.org/) -->
<svg width="18" height="18" version="1.1" xmlns="http://www.w3.org/2000/svg" xmlns:cc="http://creativecommons.org/ns#" xmlns:dc="http://purl.org/dc/elements/1.1/" xmlns:rdf="http://www.w3.org/1999/02/22-rdf-syntax-ns#">
	<defs>
		<style id="current-color-scheme" type="text/css">.ColorScheme-Text {color:#090d11;}.ColorScheme-Background{color:#ffffff;}</style>
	</defs>
	<metadata>
		<rdf:RDF>
			<cc:Work rdf:about="">
				<dc:format>image/svg+xml</dc:format>
				<dc:type rdf:resource="http://purl.org/dc/dcmitype/StillImage"/>
			</cc:Work>
		</rdf:RDF>
	</metadata>
	<path id="c" class="ColorScheme-Text" d="m11.818 2.0664-2e-3 0.00195c1.6813 8.0098 0.6524 9.4998-0.82422 9.918l-0.12695 1.0488h0.56055c0.74053 0.88002 0.93771 1.881 1.1387 2.8809 1.2283-0.32912 2.7505-0.74984 2.8906-1.3184 0.944-3.8316-2.5974-10.937-3.6367-12.531zm-5.6621 0.00195c-1.0393 1.5941-4.5806 8.698-3.6367 12.529 0.14006 0.56848 1.6623 0.98921 2.8906 1.3184 0.20093-0.99993 0.39621-2.0009 1.1367-2.8809h0.56055l-0.125-1.0488c-1.4766-0.41841-2.5075-1.9084-0.82617-9.918zm2.8301 6.5117c-1.1115 0-1.6836 2.6096-1.6836 4.4687 0 1.8592 0.93592 2.2637 1.6836 2.2637 0.74762 1e-6 1.6836-0.40445 1.6836-2.2637s-0.57205-4.4687-1.6836-4.4687zm0 0.62305c0.55849 0 0.8457 0.73057 0.8457 1.252 0 0.52133-0.47007 0.62305-0.8457 0.62305-0.37567 0-0.8457-0.1017-0.8457-0.62305 0-0.52133 0.28722-1.252 0.8457-1.252z" style="fill-opacity:.75;fill:currentColor"/>
</svg>
