<?xml version="1.0" encoding="UTF-8"?>
<svg id="a" width="18" height="18" version="1.0" xmlns="http://www.w3.org/2000/svg" xmlns:cc="http://creativecommons.org/ns#" xmlns:dc="http://purl.org/dc/elements/1.1/" xmlns:rdf="http://www.w3.org/1999/02/22-rdf-syntax-ns#">
	<metadata id="d">
		<rdf:RDF>
			<cc:Work rdf:about="">
				<dc:format>image/svg+xml</dc:format>
				<dc:type rdf:resource="http://purl.org/dc/dcmitype/StillImage"/>
			</cc:Work>
		</rdf:RDF>
	</metadata>
	<defs>
		<style id="current-color-scheme" type="text/css">.ColorScheme-Text {color:#090d11;}.ColorScheme-Background{color:#ffffff;}</style>
	</defs>
	<path id="c" class="ColorScheme-Background" d="m9 1c-4.4064 0-8 3.5936-8 8s3.5936 8 8 8 8-3.5936 8-8-3.5936-8-8-8zm0 1c3.866 0 7 3.134 7 7s-3.134 7-7 7-7-3.134-7-7 3.134-7 7-7zm1.8867 3.2852c-0.12499 0.019782-0.24052 0.078573-0.33008 0.16797-0.23504 0.23444-0.23504 0.61517 0 0.84961l1.2109 1.2109c0.69093 0.69093 0.68592 1.8004-0.0332 2.5195-0.71913 0.71912-1.8286 0.72413-2.5195 0.0332l-1.2109-1.2109c-0.23444-0.23504-0.61517-0.23504-0.84961 0-0.23504 0.23444-0.23504 0.61517 0 0.84961l1.2129 1.2109c1.1557 1.1557 3.0495 1.1302 4.2148-0.03516 1.1654-1.1654 1.1908-3.0592 0.03516-4.2148l-1.2129-1.2129c-0.13576-0.1355-0.32812-0.19793-0.51758-0.16797zm-3.3574 0.94531c-0.76385 0.0073383-1.5286 0.30599-2.1113 0.88867-1.1654 1.1654-1.1908 3.0592-0.035156 4.2148l1.2129 1.2129c0.23421 0.23373 0.61344 0.23373 0.84766 0 0.23504-0.23444 0.23504-0.61517 0-0.84961l-1.2109-1.2109c-0.69092-0.69092-0.68592-1.8004 0.033203-2.5195 0.71913-0.71913 1.8286-0.72413 2.5195-0.033203l1.2109 1.2109c0.23444 0.23504 0.61517 0.23504 0.84961 0 0.23504-0.23444 0.23504-0.61517 0-0.84961l-1.2129-1.2109c-0.57784-0.57784-1.3397-0.86086-2.1035-0.85352z" style="fill-opacity:.5;fill:currentColor"/>
	<path id="b" class="ColorScheme-Text" d="m9 2c-3.866 0-7 3.134-7 7s3.134 7 7 7 7-3.134 7-7-3.134-7-7-7zm1.8867 3.2852c0.18946-0.02996 0.38182 0.032467 0.51758 0.16797l1.2129 1.2129c1.1557 1.1557 1.1302 3.0495-0.03516 4.2148-1.1654 1.1654-3.0592 1.1908-4.2148 0.03516l-1.2129-1.2109c-0.23504-0.23444-0.23504-0.61517 0-0.84961 0.23444-0.23504 0.61517-0.23504 0.84961 0l1.2109 1.2109c0.69092 0.69092 1.8004 0.68592 2.5195-0.0332 0.71912-0.71913 0.72413-1.8286 0.0332-2.5195l-1.2109-1.2109c-0.23504-0.23444-0.23504-0.61517 0-0.84961 0.08956-0.089396 0.20509-0.14819 0.33008-0.16797zm-3.3574 0.94531c0.76386-0.00734 1.5257 0.27568 2.1035 0.85352l1.2129 1.2109c0.23504 0.23444 0.23504 0.61517 0 0.84961-0.23444 0.23504-0.61517 0.23504-0.84961 0l-1.2109-1.2109c-0.69093-0.69093-1.8004-0.68592-2.5195 0.033203-0.71912 0.71913-0.72413 1.8286-0.033203 2.5195l1.2109 1.2109c0.23504 0.23444 0.23504 0.61517 0 0.84961-0.23421 0.23373-0.61344 0.23373-0.84766 0l-1.2129-1.2129c-1.1557-1.1557-1.1302-3.0495 0.035156-4.2148 0.58269-0.58269 1.3475-0.88133 2.1113-0.88867z" style="fill-opacity:.75;fill:currentColor"/>
</svg>
