<?xml version="1.0" encoding="UTF-8"?>
<svg width="18" height="18" version="1.1" xmlns="http://www.w3.org/2000/svg" xmlns:cc="http://creativecommons.org/ns#" xmlns:dc="http://purl.org/dc/elements/1.1/" xmlns:rdf="http://www.w3.org/1999/02/22-rdf-syntax-ns#">
	<defs id="e">
		<style id="current-color-scheme" type="text/css">.ColorScheme-Text {color:#090d11;}.ColorScheme-Background{color:#ffffff;}</style>
	</defs>
	<metadata>
		<rdf:RDF>
			<cc:Work rdf:about="">
				<dc:format>image/svg+xml</dc:format>
				<dc:type rdf:resource="http://purl.org/dc/dcmitype/StillImage"/>
			</cc:Work>
		</rdf:RDF>
	</metadata>
	<path class="ColorScheme-Text" d="m5.9766 2c-0.54069 0-0.97656 0.446-0.97656 1v1h2v-1c0-0.554-0.43587-1-0.97656-1zm5.9746 0c-0.52738 0-0.95117 0.446-0.95117 1v7h2v-7c0-0.554-0.42379-1-0.95117-1zm-8.9512 3c-0.554 0-1 0.41961-1 0.94141v0.11719c0 0.52179 0.446 0.94141 1 0.94141h7v-2zm11 0v2h1c0.554 0 1-0.41961 1-0.94141v-0.11719c0-0.52179-0.446-0.94141-1-0.94141zm-9 3v7c0 0.554 0.43587 1 0.97656 1h0.046875c0.54069 0 0.97656-0.446 0.97656-1v-7zm-2 3c-0.554 0-1 0.414-1 0.92773v0.14453c0 0.51374 0.446 0.92773 1 0.92773h1v-2zm5 0v2h7c0.554 0 1-0.414 1-0.92773v-0.14453c0-0.51374-0.446-0.92773-1-0.92773zm3 3v1c0 0.554 0.42379 1 0.95117 1h0.09766c0.52737 0 0.95117-0.446 0.95117-1v-1z" style="fill-opacity:.75;fill:currentColor"/>
	<path id="b" class="ColorScheme-Background" d="m5.9766 1c-1.0906 0-1.9766 0.92149-1.9766 2v1h-1c-1.059 0-2 0.84978-2 1.9414v0.11719c0 1.0916 0.94105 1.9414 2 1.9414h1v2h-1c-1.0522 0-2 0.83523-2 1.9277v0.14453c0 1.0925 0.94781 1.9277 2 1.9277h1v1c0 1.0785 0.88596 2 1.9766 2h0.046875c1.0906 0 1.9766-0.92149 1.9766-2v-1h2v1c0 1.064 0.86 2 1.9512 2h0.09766c1.0912 0 1.9512-0.93602 1.9512-2v-1h1c1.0522 0 2-0.83523 2-1.9277v-0.14453c0-1.0925-0.94781-1.9277-2-1.9277h-1v-2h1c1.059 0 2-0.84978 2-1.9414v-0.11719c0-1.0916-0.94105-1.9414-2-1.9414h-1v-1c0-1.064-0.86-2-1.9512-2h-0.09766c-1.0912 0-1.9512 0.93603-1.9512 2v1h-2v-1c0-1.0785-0.88596-2-1.9766-2zm0 1h0.046875c0.54069 0 0.97656 0.446 0.97656 1v1h-2v-1c0-0.554 0.43587-1 0.97656-1zm5.9746 0h0.09766c0.52738 0 0.95117 0.446 0.95117 1v7h-2v-7c0-0.554 0.42379-1 0.95117-1zm-8.9512 3h7v2h-7c-0.554 0-1-0.41961-1-0.94141v-0.11719c0-0.52179 0.446-0.94141 1-0.94141zm11 0h1c0.554 0 1 0.41961 1 0.94141v0.11719c0 0.52179-0.446 0.94141-1 0.94141h-1zm-9 3h2v7c0 0.554-0.43587 1-0.97656 1h-0.046875c-0.54069 0-0.97656-0.446-0.97656-1zm3 0h2v2h-2zm-5 3h1v2h-1c-0.554 0-1-0.414-1-0.92773v-0.14453c0-0.51374 0.446-0.92773 1-0.92773zm5 0h7c0.554 0 1 0.414 1 0.92773v0.14453c0 0.51374-0.446 0.92773-1 0.92773h-7zm3 3h2v1c0 0.554-0.42379 1-0.95117 1h-0.09766c-0.52738 0-0.95117-0.446-0.95117-1z" style="fill-opacity:.5;fill:currentColor"/>
</svg>
