<?xml version="1.0" encoding="UTF-8"?>
<!-- Created with Inkscape (http://www.inkscape.org/) -->
<svg width="18" height="18" version="1.1" xml:space="preserve" xmlns="http://www.w3.org/2000/svg" xmlns:cc="http://creativecommons.org/ns#" xmlns:dc="http://purl.org/dc/elements/1.1/" xmlns:rdf="http://www.w3.org/1999/02/22-rdf-syntax-ns#"><defs><style id="current-color-scheme" type="text/css">.ColorScheme-Text {color:#090d11;}.ColorScheme-Background{color:#ffffff;}</style></defs><metadata><rdf:RDF><cc:Work rdf:about=""><dc:format>image/svg+xml</dc:format><dc:type rdf:resource="http://purl.org/dc/dcmitype/StillImage"/></cc:Work></rdf:RDF></metadata><path id="h" class="ColorScheme-Background" d="m9 3c-0.9642 0-1.8284 0.4668-2.3789 1.1836l-2.1367-1.127c-0.1173-0.062-0.2543-0.074-0.3809-0.035-0.1271 0.039-0.2333 0.1281-0.2949 0.2461-0.1277 0.2438-0.034 0.545 0.209 0.6738l2.1347 1.125c-0.098 0.2946-0.1523 0.6081-0.1523 0.9336v1h-2.5c-0.2761 0-0.5 0.2239-0.5 0.5s0.2239 0.5 0.5 0.5h2.5v1.4863l-2.4258 4.0039c-0.1437 0.2362-0.068 0.5442 0.168 0.6875 0.2357 0.1424 0.5422 0.067 0.6855-0.1679l1.5977-2.6348c0.1875 1.4703 1.4571 2.6249 2.9746 2.625 1.5182 0 2.788-1.1557 2.9746-2.627l1.5996 2.6368c0.1433 0.2353 0.4498 0.3103 0.6856 0.1679 0.2364-0.1433 0.3116-0.4513 0.1679-0.6875l-2.4277-4.0058v-1.4844h2.5c0.2761 0 0.5-0.2239 0.5-0.5s-0.2239-0.5-0.5-0.5h-2.5v-1c0-0.3255-0.054-0.639-0.1523-0.9336l2.1367-1.125c0.2432-0.1288 0.3367-0.43 0.209-0.6738-0.1281-0.2452-0.431-0.3397-0.6758-0.211l-2.1387 1.127c-0.5505-0.7168-1.4147-1.1836-2.3789-1.1836zm0 1c0.073 0 0.1455 0 0.2168 0.012 0.071 0.01 0.142 0.02 0.2109 0.035 0.066 0.014 0.1285 0.032 0.1914 0.053 0.014 0 0.029 0.01 0.043 0.014 0.055 0.019 0.1092 0.041 0.1621 0.064 0.062 0.028 0.123 0.06 0.1817 0.094 0.06 0.035 0.1163 0.073 0.1718 0.1133 0.055 0.04 0.108 0.082 0.1582 0.1269 0.051 0.045 0.099 0.094 0.1446 0.1446 0.2723 0.2999 0.4561 0.6821 0.5058 1.1074 0.01 0.076 0.014 0.1536 0.014 0.2324v5c0 0.069 0 0.1377-0.01 0.2051-0.01 0.067-0.018 0.134-0.031 0.1992-0.013 0.065-0.029 0.1287-0.049 0.1914-0.1943 0.627-0.6875 1.1202-1.3145 1.3145-0.063 0.019-0.1262 0.035-0.1914 0.049-0.065 0.013-0.1318 0.024-0.1992 0.031-0.067 0.01-0.1359 0.01-0.2051 0.01-0.069 0-0.1377 0-0.2051-0.01-0.067-0.01-0.134-0.018-0.1992-0.031-0.065-0.013-0.1287-0.029-0.1914-0.049-0.627-0.1942-1.1203-0.6875-1.3145-1.3145-0.019-0.063-0.035-0.1262-0.049-0.1914-0.013-0.065-0.024-0.1318-0.031-0.1992-0.01-0.067-0.01-0.1359-0.01-0.2051v-5c0-0.079 0-0.1561 0.014-0.2324 1e-4 0-2e-4 0 0 0 0.05-0.4253 0.2335-0.8075 0.5058-1.1074 0.046-0.05 0.094-0.099 0.1446-0.1446 0.05-0.045 0.1035-0.087 0.1582-0.1269 0.055-0.041 0.1122-0.079 0.1718-0.1133 0.059-0.034 0.1194-0.066 0.1817-0.094 0.053-0.024 0.1069-0.045 0.1621-0.064 0.014-0.01 0.029-0.01 0.043-0.014 0.063-0.02 0.126-0.039 0.1914-0.053 0.069-0.015 0.1393-0.028 0.2109-0.035 0.071-0.01 0.1435-0.012 0.2168-0.012z" style="fill-opacity:.5;fill:currentColor"/><path id="f" class="ColorScheme-Text" d="m5 1.5c-0.1326 0-0.2598 0.053-0.3535 0.1465-0.1952 0.1952-0.1952 0.5118 0 0.707l2.6308 2.6309c-0.1754 0.2976-0.2773 0.6437-0.2773 1.0156h-3c-0.2761 0-0.5 0.2239-0.5 0.5s0.2239 0.5 0.5 0.5h3v1.9629l-2.459 5.8437c-0.1069 0.254 0.012 0.5467 0.2656 0.6543 0.2545 0.1067 0.5474-0.013 0.6543-0.2675l1.586-3.7657c0.195 0.901 0.9921 1.5723 1.9531 1.5723 0.9618 0 1.761-0.6721 1.9551-1.5742l1.5859 3.7676c0.1069 0.2545 0.3998 0.3742 0.6543 0.2675 0.2537-0.1076 0.3725-0.4003 0.2656-0.6543l-2.4609-5.8437v-1.9629h3c0.2761 0 0.5-0.2239 0.5-0.5s-0.2239-0.5-0.5-0.5h-3c0-0.3719-0.1019-0.718-0.2773-1.0156l2.6308-2.6309c0.1952-0.1952 0.1952-0.5118 0-0.707s-0.5118-0.1952-0.707 0l-2.6309 2.6308c-0.2976-0.1754-0.6437-0.2773-1.0156-0.2773s-0.718 0.1019-1.0156 0.2773l-2.6309-2.6308c-0.094-0.094-0.2209-0.1465-0.3535-0.1465z" style="fill-opacity:.75;fill:currentColor"/></svg>
