<?xml version="1.0" encoding="UTF-8"?>
<!-- Created with Inkscape (http://www.inkscape.org/) -->
<svg width="18" height="18" version="1.1" xmlns="http://www.w3.org/2000/svg" xmlns:cc="http://creativecommons.org/ns#" xmlns:dc="http://purl.org/dc/elements/1.1/" xmlns:rdf="http://www.w3.org/1999/02/22-rdf-syntax-ns#">
	<metadata>
		<rdf:RDF>
			<cc:Work rdf:about="">
				<dc:format>image/svg+xml</dc:format>
				<dc:type rdf:resource="http://purl.org/dc/dcmitype/StillImage"/>
			</cc:Work>
		</rdf:RDF>
	</metadata>
	<defs>
		<style id="current-color-scheme" type="text/css">.ColorScheme-Text {
				color:#090d11;
			}
			.ColorScheme-Background{
				color:#ffffff;
			}</style>
	</defs>
	<path class="ColorScheme-Text" d="m9.1387 2.7402c-2.9263-0.039812-1.7049 2.745-0.066406 4.9551 1.6981-2.1647 2.9928-4.9153 0.066406-4.9551zm-0.066406 4.9551c-0.52089 0.664-1.078 1.2682-1.5645 1.7266-0.17141 0.64582-0.4398 1.4236-0.77539 2.1973 0.83598 0.11908 1.6388 0.29803 2.2793 0.49023 0.64532-0.17461 1.4525-0.33146 2.291-0.42773-0.31479-0.78339-0.56104-1.568-0.71484-2.2188-0.47362-0.47133-1.0133-1.09-1.5156-1.7676zm1.5156 1.7676c1.1119 1.1065 1.8506 1.3794 0.82227-0.45898-1.0281-1.838-1.1829-1.067-0.82227 0.45898zm0.71484 2.2188c1.0257 2.5525 2.7584 5.0491 4.2559 2.5352 1.4975-2.5141-1.5229-2.8489-4.2559-2.5352zm-2.291 0.42773c-1.5139 0.40964-2.1197 0.91275-0.013672 0.94141 2.1057 0.02865 1.5155-0.49077 0.013672-0.94141zm-2.2793-0.49023c-2.7233-0.38792-5.7507-0.13379-4.3223 2.4199 1.4286 2.5541 3.2276 0.10397 4.3223-2.4199zm0.77539-2.1973c0.40251-1.5165 0.26946-2.2923-0.80859-0.48242-1.0776 1.8092-0.33242 1.5575 0.80859 0.48242z" style="fill-opacity:.75;fill:currentColor"/>
	<path class="ColorScheme-Background" d="m9.1523 1.7402c-0.90095-0.012257-1.7061 0.19674-2.2402 0.78516-0.53413 0.58842-0.60872 1.3799-0.5 2.0469 0.13102 0.80372 0.49379 1.5922 0.94531 2.3516-0.10449 0.021865-0.20736 0.046024-0.2793 0.080078-0.37173 0.17598-0.50324 0.36712-0.67969 0.58984-0.17645 0.22273-0.35433 0.49105-0.55859 0.83398s-0.35499 0.62744-0.4668 0.88867-0.21761 0.46628-0.19531 0.87695c0.00432 0.07948 0.031956 0.18285 0.0625 0.28516-0.88275-0.03536-1.7485 0.02149-2.5176 0.28906-0.63823 0.22204-1.2995 0.66416-1.5625 1.4141-0.26302 0.7499-0.062908 1.5574 0.37695 2.3438 0.43986 0.78638 1.0241 1.3805 1.8008 1.5488s1.5002-0.16417 2.0234-0.5918c0.63055-0.51534 1.1306-1.2234 1.5625-1.9941 0.071187 0.07957 0.14547 0.15785 0.21094 0.20312 0.33826 0.23394 0.56654 0.25152 0.84766 0.29297 0.28111 0.04145 0.60283 0.06098 1.002 0.06641 0.39912 0.0054 0.72177-0.0053 1.0039-0.03906 0.28214-0.03378 0.51292-0.04488 0.85742-0.26953 0.06666-0.04347 0.14348-0.11968 0.2168-0.19727 0.41075 0.78217 0.89153 1.5029 1.5078 2.0352 0.5114 0.4417 1.2249 0.79365 2.0059 0.64648 0.78094-0.14717 1.3807-0.72393 1.8418-1.498 0.46109-0.77412 0.68198-1.5753 0.43945-2.332-0.24252-0.75678-0.89149-1.2177-1.5234-1.457-0.76159-0.28841-1.6244-0.36877-2.5078-0.35742 0.0333-0.10141 0.06383-0.20389 0.07031-0.2832 0.03346-0.40991-0.06721-0.61668-0.17188-0.88086-0.10466-0.26418-0.2485-0.55398-0.44336-0.90234s-0.36483-0.62216-0.53516-0.84961c-0.17033-0.22744-0.29531-0.4214-0.66211-0.60742-0.07102-0.036016-0.17342-0.06319-0.27734-0.087891 0.47205-0.74685 0.85497-1.5243 1.0078-2.3242 0.12682-0.66374 0.07456-1.4578-0.44336-2.0605-0.51792-0.60273-1.3178-0.83345-2.2188-0.8457zm-0.013672 1c2.9264 0.039814 1.6317 2.7904-0.066406 4.9551 0.50234 0.67755 1.042 1.2962 1.5156 1.7676-0.36067-1.526-0.20582-2.297 0.82227-0.45898 1.0283 1.8384 0.28963 1.5655-0.82227 0.45898 0.1538 0.65074 0.40005 1.4354 0.71484 2.2188 2.7329-0.31379 5.7533 0.0211 4.2559 2.5352-1.4974 2.514-3.2302 0.01731-4.2559-2.5352-0.83848 0.09627-1.6457 0.25312-2.291 0.42773 1.5018 0.45063 2.0921 0.97006-0.013672 0.94141-2.106-0.02865-1.5002-0.53177 0.013672-0.94141-0.64055-0.19221-1.4433-0.37115-2.2793-0.49023-1.0947 2.5239-2.8937 4.974-4.3223 2.4199-1.4284-2.5537 1.599-2.8078 4.3223-2.4199 0.33559-0.77372 0.60398-1.5514 0.77539-2.1973-1.141 1.0751-1.8862 1.3268-0.80859-0.48242 1.078-1.8099 1.2111-1.0341 0.80859 0.48242 0.48644-0.45833 1.0436-1.0626 1.5645-1.7266-1.6385-2.21-2.8599-4.9949 0.066406-4.9551z" style="fill-opacity:.5;fill:currentColor"/>
</svg>
