<?xml version="1.0" encoding="UTF-8"?>
<svg id="i" width="18" height="18" version="1.1" xmlns="http://www.w3.org/2000/svg" xmlns:cc="http://creativecommons.org/ns#" xmlns:dc="http://purl.org/dc/elements/1.1/" xmlns:rdf="http://www.w3.org/1999/02/22-rdf-syntax-ns#">
	<metadata id="a">
		<rdf:RDF>
			<cc:Work rdf:about="">
				<dc:format>image/svg+xml</dc:format>
				<dc:type rdf:resource="http://purl.org/dc/dcmitype/StillImage"/>
				<dc:title/>
			</cc:Work>
		</rdf:RDF>
	</metadata>
	<defs id="c">
		<style id="current-color-scheme" type="text/css">.ColorScheme-Text {color:#090d11;}.ColorScheme-Background{color:#ffffff;}</style>
	</defs>
	<path id="at" class="ColorScheme-Text" d="m9 2.0098c-1.3777 0-2.6418 0.48688-3.6621 1.3008-0.085192-0.00761-0.15522-0.023438-0.24414-0.023438-0.43684 0-0.875 0.11595-0.875 0.58203 0 0.02859 0.01114 0.080398 0.017578 0.12305-0.01341-0.0052569-0.020738-0.015099-0.035156-0.019531-2.765 2.5654-2.2708 4.717-1.293 6.3027-0.15284-0.956-0.046074-1.9749 0.21875-2.9434 0.21635-0.23436 0.40834-0.4528 0.70312-0.39844 0.56374 0.1039-0.011214-0.53136-0.39062-0.54688 0.2517-0.63782 0.56718-1.2286 0.91602-1.7402 0.1165 0.58179 0.27226 1.2952 0.29102 1.9141a1.7545 6.4975 13.956 0 1 -0.19531 0.85156 1.7545 6.4975 13.956 0 1 -0.38477 1.3496l-0.00195 0.00195c-0.42927 0.56166-0.98004 1.1149-1.125 1.3828-0.024332 0.04497-0.02127 0.08594-0.03125 0.12891a1.7542 3.2493 13.34 0 1 -0.011719 -0.0098c-0.1039 0.3922 0.34887 0.68765 0.72852 0.86719 0.042856 0.37558 0.047388 0.75139-0.30469 1.127-0.87371 0.93183-1.3105 0.4659-1.3105 0.93164 0 0.46609 1.3118 1.3987 2.1855 0.4668 0.20043-0.21377 0.34388-0.3958 0.46289-0.56055 0.014543 0.11817 0.0072 0.26721-0.050781 0.49805-0.22611 0.90022-1.4205 0.82386-0.84766 1.4629 0.44426 0.4956 1.7667 0.5085 2.5-0.13672-0.29242 0.66542-0.73696 1.0684 0.11914 1.0684 1.3106 0 2.6211-0.93207 2.6211-2.3301 0 1.398 1.3105 2.3301 2.6211 2.3301 0.85846 0 0.40954-0.40548 0.11719-1.0742 0.73192 0.65082 2.0603 0.63958 2.5059 0.14258 0.57281-0.63901-0.6235-0.56264-0.84961-1.4629-0.05764-0.22949-0.06302-0.37825-0.04883-0.49609 0.11876 0.16411 0.25966 0.34601 0.45898 0.55859 0.87375 0.93186 2.1855-7.04e-4 2.1855-0.4668 0-0.46573-0.43686 1.9e-4 -1.3105-0.93164-0.35208-0.3755-0.34754-0.75132-0.30469-1.127 0.38086-0.17948 0.83669-0.47497 0.73047-0.86914a3.2493 1.7542 76.66 0 1 -0.0098 0.0098c-0.0046-0.0195-0.01062-0.03939-0.01367-0.05859 0.41868-0.69347 0.72258-1.4958 0.7207-2.3887 0.0059-8.284e-4 0.01173-0.00171 0.01953-0.00195a3.2493 1.7542 76.66 0 0 -0.01758 -0.17383c-0.01738-0.3461-0.08197-0.70557-0.21094-1.0781a3.2493 1.7542 76.66 0 0 -0.01367 -0.046875c-0.0033 4.675e-4 -0.0045-4.529e-4 -0.0078 0-0.28311-0.7885-0.83098-1.6327-1.791-2.5293 0.0066-0.044832 0.01758-0.10081 0.01758-0.13086 0-0.46608-0.43815-0.58203-0.875-0.58203-0.09604 0-0.17233 0.016553-0.26367 0.025391-1.02-0.81282-2.2834-1.2988-3.6602-1.2988zm4.6484 2.709c0.33028 0.49591 0.63075 1.0605 0.87109 1.6699-0.37749 0.05713-0.89094 0.64505-0.34766 0.54492 0.26918-0.049642 0.45224 0.1361 0.64648 0.3457 0.26325 0.93992 0.36844 1.9281 0.24219 2.8633-0.14741-0.26903-0.69475-0.81933-1.123-1.3789l-2e-3 -0.00195a6.4975 1.7545 76.044 0 1 -0.38477 -1.3496 6.4975 1.7545 76.044 0 1 -0.18555 -0.79883c0.0087-0.60128 0.16242-1.3049 0.2832-1.8945z" style="fill-opacity:.75;fill:currentColor"/>
	<path id="b" class="ColorScheme-Background" d="m9 1.0098c-1.4407 0-2.7482 0.51115-3.8613 1.2812-0.024532-8.139e-4 -0.016989-0.00391-0.044922-0.00391-0.30689 0-0.66212 0.015449-1.0703 0.23242-0.34496 0.18335-0.58373 0.67701-0.67969 1.1406-0.97049 0.60569-1.6486 1.6188-1.9727 2.9043h-0.00195c-0.21638 0.86255-0.26297 1.7144-0.13867 2.4863 0.11878 0.73766 0.4031 1.431 0.99219 1.9277 0.086202 0.16049 0.056304 0.4153 0.15625 0.51367 0.059893 0.05895 0.11042 0.06522 0.16992 0.11328-0.25673 0.26244-0.34212 0.2944-0.46875 0.32812-0.069068 0.01841-0.2067-0.0091-0.54297 0.21484-0.16813 0.112-0.35034 0.32601-0.43359 0.53125-0.083254 0.20524-0.09375 0.37534-0.09375 0.51172 0 0.58558 0.26525 0.85782 0.50781 1.1035 0.24257 0.24573 0.53483 0.44123 0.88672 0.58203 0.077267 0.03092 0.18968 0.0049 0.27539 0.02734 0.0108 0.09586-0.026688 0.20104 0.00195 0.28125 0.08533 0.23896 0.20805 0.40052 0.33398 0.54102 0.54843 0.61181 1.2431 0.71327 1.918 0.69141 0.059761-0.0019 0.11545-0.06156 0.17578-0.06641 0.097204 0.14994 0.1793 0.32283 0.30469 0.4043 0.39784 0.25848 0.67238 0.23438 0.96484 0.23438 0.89236 0 1.7579-0.30395 2.4414-0.87109 0.072775-0.06038 0.11152-0.1593 0.17969-0.22656 0.068171 0.06726 0.10691 0.16618 0.17969 0.22656 0.68353 0.56715 1.549 0.87109 2.4414 0.87109 0.29334 0 0.56972 0.02476 0.96875-0.23633 0.12449-0.08146 0.20442-0.25349 0.30078-0.40234 0.05974 0.0049 0.11465 0.06438 0.17383 0.06641 0.6768 0.02318 1.3738-0.07786 1.9238-0.69141 0.12604-0.1406 0.25067-0.30164 0.33594-0.54102 0.02856-0.08016-0.01071-0.18549 0-0.28125 0.08441-0.02227 0.1953 0.0031 0.27148-0.02734 0.35189-0.1408 0.64414-0.33629 0.88672-0.58203s0.50781-0.51798 0.50781-1.1035c0-0.13638-0.01049-0.30648-0.09375-0.51172-0.08325-0.20524-0.26547-0.41925-0.43359-0.53125-0.33627-0.224-0.4739-0.19644-0.54297-0.21484-0.12663-0.03375-0.21202-0.06569-0.46875-0.32812 0.06004-0.04829 0.1114-0.05392 0.17188-0.11328 0.10001-0.09818 0.06807-0.35316 0.1543-0.51367 0.59023-0.4975 0.87358-1.1909 0.99219-1.9297 0.12382-0.77126 0.07738-1.6228-0.13867-2.4844h-2e-3c-0.32073-1.2733-0.98847-2.2785-1.9434-2.8906-0.08966-0.47153-0.34096-0.97195-0.69141-1.1582-0.40821-0.21698-0.76345-0.23242-1.0703-0.23242-0.039 0-0.03344 0.00431-0.06641 0.00586-1.1125-0.76863-2.4184-1.2793-3.8574-1.2793zm0 1c1.0326 0 2.0014 0.27431 2.8516 0.75391 0.28339 0.15986 0.5536 0.34172 0.80859 0.54492 0.09134-0.00884 0.16763-0.025391 0.26367-0.025391 0.10921 0 0.2178 0.00724 0.32031 0.025391 0.1025 0.018152 0.19727 0.048055 0.2793 0.091797 0.165 0.087155 0.27539 0.23107 0.27539 0.46484 0 0.030045-0.01098 0.086026-0.01758 0.13086 0.96003 0.89657 1.5079 1.7408 1.791 2.5293 0.0033-4.529e-4 0.0045 4.675e-4 0.0078 0a3.2493 1.7542 76.66 0 1 0.01367 0.046875 3.2493 1.7542 76.66 0 1 0.0078 0.025391 3.2493 1.7542 76.66 0 1 0.05859 0.21094 3.2493 1.7542 76.66 0 1 0.01563 0.074219c0.04156 0.16153 0.07401 0.32021 0.09375 0.47656a3.2493 1.7542 76.66 0 1 0.05274 0.46484c-0.0078 2.4e-4 -0.01363 0.00112-0.01953 0.00195 0.0019 0.89292-0.30202 1.6952-0.7207 2.3887 3e-3 0.0192 0.0091 0.0391 0.01367 0.05859a3.2493 1.7542 76.66 0 0 0.0098 -0.0098c0.10622 0.39417-0.34961 0.68966-0.73047 0.86914-0.01072 0.09389-0.01858 0.18733-0.01953 0.28125-0.0019 0.18785 0.02427 0.37663 0.12109 0.56445 0.04842 0.09392 0.1151 0.18736 0.20313 0.28125 0.1753 0.18696 0.32675 0.30709 0.4668 0.40039 0.02464 0.01642 0.05262 0.03658 0.07617 0.05078 0.05992 0.03595 0.10538 0.05024 0.1582 0.07422 0.09844 0.04454 0.19955 0.0934 0.27344 0.11328 0.0028 7.47e-4 5e-3 0.0012 0.0078 2e-3 0.07501 0.01967 0.14344 0.0429 0.19141 0.0625 0.08154 0.0348 0.13672 0.08624 0.13672 0.22852 0 0.23305-0.32846 0.58289-0.76562 0.75781-0.10929 0.04373-0.22423 0.07642-0.34375 0.09375-0.10936 0.01586-0.22144 0.01354-0.33398 0-0.02556-0.0031-0.05062-0.0089-0.07617-0.01367-0.08564-0.0161-0.16983-0.04443-0.25391-0.08203-0.03348-0.01498-0.06663-0.02813-0.09961-0.04687-0.10786-0.06112-0.21344-0.13654-0.3125-0.24219-0.19932-0.21258-0.34022-0.39448-0.45898-0.55859-0.0071 0.05892-0.0087 0.12642-2e-3 0.20703 0.0068 0.0806 0.02197 0.17432 0.05078 0.28906 0.22611 0.90025 1.4224 0.82388 0.84961 1.4629-0.22249 0.24816-0.66602 0.37537-1.1445 0.35938-0.12043-0.0041-0.24322-0.01647-0.36523-0.03906-0.12079-0.02227-0.24077-0.05466-0.35742-0.0957-5.58e-4 -1.97e-4 -0.0014 1.98e-4 -2e-3 0-0.23442-0.0827-0.45374-0.20448-0.63672-0.36719 0.29235 0.66874 0.74127 1.0742-0.11719 1.0742-0.32765 0-0.65573-0.05874-0.96289-0.16797-0.17419-0.06194-0.33881-0.14488-0.49609-0.23828-0.05058-0.03002-0.09621-0.06457-0.14453-0.09766-0.10746-0.07358-0.20841-0.15218-0.30273-0.24023-0.044851-0.04181-0.085525-0.08594-0.12695-0.13086-0.084767-0.09198-0.15995-0.19058-0.22852-0.29492-0.033066-0.05027-0.068786-0.0974-0.097656-0.15039-0.086808-0.15922-0.15927-0.32586-0.20312-0.50781-0.038394-0.15928-0.058594-0.3272-0.058594-0.50195 0 1.398-1.3105 2.3301-2.6211 2.3301-0.21284 0-0.34554-0.02656-0.41992-0.07422-0.037808-0.02422-0.059581-0.0522-0.070312-0.08789-0.053072-0.17653 0.18833-0.49036 0.37109-0.90625-0.10657 0.09377-0.22656 0.16982-0.35352 0.23633-0.034287 0.01795-0.070111 0.03086-0.10547 0.04687-0.097114 0.04407-0.19614 0.0816-0.29883 0.11133-0.041318 0.01193-0.081244 0.02354-0.12305 0.0332-0.10623 0.0247-0.21172 0.04042-0.31836 0.05078-0.032889 0.0032-0.064973 0.0099-0.097656 0.01172-0.14023 8e-3 -0.27933 0.0061-0.41016-0.0098-0.22414-0.02723-0.42767-0.08859-0.58789-0.18164-0.08011-0.04652-0.14955-0.10016-0.20508-0.16211-0.57285-0.63903 0.62155-0.56267 0.84766-1.4629 0.057981-0.23084 0.065324-0.37988 0.050781-0.49805-0.11901 0.16475-0.26246 0.34678-0.46289 0.56055-0.10921 0.11649-0.22427 0.20285-0.34375 0.26562-0.23964 0.12656-0.49262 0.15392-0.73242 0.11914-0.59764-0.08668-1.1094-0.56026-1.1094-0.85156 0-0.11644 0.027426-0.17456 0.082031-0.21094 0.054605-0.03637 0.13688-0.05097 0.24609-0.08008 0.085608-0.02282 0.20115-0.07261 0.32031-0.13086 0.052021-0.02554 0.10176-0.05079 0.16016-0.08789 0.031586-0.02014 0.066166-0.04224 0.099609-0.06641 0.12302-0.08899 0.25419-0.19746 0.40234-0.35547 0.17664-0.18842 0.26347-0.37596 0.30078-0.56445 0.01876-0.09393 0.024387-0.18733 0.023437-0.28125-9.503e-4 -0.09392-0.00882-0.18736-0.019531-0.28125-0.37956-0.17954-0.83232-0.47499-0.72842-0.86719a1.7542 3.2493 13.34 0 0 0.011719 0.0098c-0.97788-1.5857-1.472-3.7373 1.293-6.3027 0.014418 0.00443 0.021746 0.014271 0.035156 0.019531-0.00644-0.042649-0.017578-0.094458-0.017578-0.12305 0-0.46608 0.43816-0.58203 0.875-0.58203 0.08892 0 0.15895 0.015828 0.24414 0.023438 1.0203-0.8139 2.2844-1.3008 3.6621-1.3008zm-6.0918 8.2656c0.00998-0.04296 0.00692-0.08393 0.03125-0.12891 0.14496-0.2679 0.69573-0.82115 1.125-1.3828l0.00195-0.00195a1.7545 6.4975 13.956 0 0 0.11523 -0.37695 1.7545 6.4975 13.956 0 0 0.089844 -0.30469 1.7545 6.4975 13.956 0 0 0.011719 -0.041016 1.7545 6.4975 13.956 0 0 0.13867 -0.51367 1.7545 6.4975 13.956 0 0 0.029297 -0.11328 1.7545 6.4975 13.956 0 0 0.072266 -0.30664 1.7545 6.4975 13.956 0 0 0.12305 -0.54492c-0.00821-0.27083-0.049792-0.56152-0.095703-0.84961-0.023107-0.14124-0.045552-0.28309-0.072266-0.42188-1e-3 -0.00528-9.462e-4 -0.010356-0.00195-0.015625-0.046339-0.23983-0.079446-0.41709-0.12109-0.625-0.34847 0.51135-0.66453 1.101-0.91602 1.7383 0.00134 5.46e-5 0.00257 0.00188 0.00391 0.00195 0.091262 0.00477 0.18428 0.042256 0.2793 0.099609 0.043394 0.025332 0.072498 0.05523 0.11133 0.085938 0.052469 0.042209 0.10809 0.078753 0.14453 0.12305 0.014513 0.017193 0.023987 0.032213 0.035156 0.048828 0.011502 0.017462 0.025925 0.034568 0.033203 0.050781 0.010839 0.023567 0.011476 0.043136 0.011719 0.0625-7.4e-6 0.00825 0.00411 0.018157 0.00195 0.025391-0.00536 0.018779-0.025239 0.030772-0.046875 0.041016-0.00787 0.00373-0.00931 0.0113-0.019531 0.013672-0.037781 0.00879-0.089982 0.00779-0.16406-0.00586-0.075059-0.01384-0.14314-0.00939-0.20703 0.00781-0.062031 0.016905-0.12044 0.047536-0.17578 0.085938-0.086113 0.059578-0.16624 0.14881-0.24805 0.23633-0.023758 0.025446-0.048076 0.042156-0.072266 0.068359-0.26482 0.96845-0.37159 1.9874-0.21875 2.9434zm10.74-5.5566c-0.04277 0.20879-0.08773 0.44018-0.13086 0.66797-0.02443 0.12854-0.04373 0.25709-0.06445 0.38672-0.04506 0.28673-0.08405 0.57439-0.08789 0.83984a6.4975 1.7545 76.044 0 0 0.08984 0.39062 6.4975 1.7545 76.044 0 0 0.0957 0.4082 6.4975 1.7545 76.044 0 0 0.10156 0.37891 6.4975 1.7545 76.044 0 0 0.07813 0.28906 6.4975 1.7545 76.044 0 0 0.08984 0.30469 6.4975 1.7545 76.044 0 0 0.11524 0.37695l2e-3 0.00195c0.42828 0.55956 0.9756 1.1099 1.123 1.3789 0.12625-0.93518 0.02106-1.9234-0.24219-2.8633-0.09511-0.10263-0.18789-0.19731-0.28906-0.26367-0.01762-0.011231-0.03648-0.01808-0.05469-0.027344-0.03489-0.018371-0.06971-0.037193-0.10742-0.046875-0.06072-0.014789-0.1245-0.02087-0.19531-0.00781-0.07143 0.013164-0.12255 0.013712-0.16016 0.00586-0.01263-0.00272-0.01619-0.01093-0.02539-0.015625-0.01939-0.00968-0.03726-0.020223-0.04297-0.037109-0.0025-0.00741 1.92e-4 -0.016864 0-0.025391-3.24e-4 -0.018902 0.0017-0.037457 0.01172-0.060547 0.0059-0.013832 0.01437-0.028142 0.02344-0.042969 0.01039-0.01673 0.02117-0.031361 0.03516-0.048828 0.03152-0.040306 0.0791-0.073736 0.125-0.11328 0.04265-0.036483 0.07736-0.069396 0.12695-0.099609 0.0847-0.052878 0.1674-0.094212 0.25195-0.10742 6.78e-4 -1.059e-4 0.0013 1.024e-4 2e-3 0-0.24034-0.60941-0.54081-1.174-0.87109-1.6699z" style="fill-opacity:.5;fill:currentColor"/>
</svg>
