<?xml version="1.0" encoding="UTF-8" standalone="no"?>
<svg
   xmlns:dc="http://purl.org/dc/elements/1.1/"
   xmlns:cc="http://creativecommons.org/ns#"
   xmlns:rdf="http://www.w3.org/1999/02/22-rdf-syntax-ns#"
   xmlns:svg="http://www.w3.org/2000/svg"
   xmlns="http://www.w3.org/2000/svg"
   version="1.1"
   width="18"
   height="18"
   id="svg2">
  <defs
     id="defs4">
    <style
       type="text/css"
       id="current-color-scheme">.ColorScheme-Text {color:#090d11;}.ColorScheme-Background{color:#ffffff;}</style>
  </defs>
  <metadata
     id="metadata7">
    <rdf:RDF>
      <cc:Work
         rdf:about="">
        <dc:format>image/svg+xml</dc:format>
        <dc:type
           rdf:resource="http://purl.org/dc/dcmitype/StillImage" />
        <dc:title></dc:title>
      </cc:Work>
    </rdf:RDF>
  </metadata>
  <path
     style="fill:currentColor;fill-opacity:0.5"
     d="M 4.5,1 C 2.3012972,1 1,2.3012972 1,4.5 v 8 C 1,14.698703 2.3012972,16 4.5,16 H 6 7.533203 11 c 0.52164,-4.91e-4 0.955293,-0.401833 0.996094,-0.921875 L 16,17 11,13 v 2 H 7.533203 6 4.5 C 2.838,15 2,14.162 2,12.5 v -8 C 2,4.29225 2.020715,4.0901758 2.060547,3.8945312 2.3114315,2.6622514 2.8418286,2 4.5,2 H 6 11 13.5 C 15.162,2 16,2.838 16,4.5 V 5.5 3.482422 17 l 1,-2 V 5.5 4.5 C 17,2.3012972 15.747191,1 13.5,1 H 11 6 Z m 3.1329714,3.5611693 c -1.7e-6,0 -1.1657911,-0.024518 -2.3998058,0.8924224 0,0 -1.2331656,2.2184504 -1.2331656,4.9521343 0,0 0.2472953,1.589455 2.1411651,1.649444 0,0 0.054448,0.04807 7e-7,0 C 6.0867198,12.00704 5.871456,11.162821 6,11 4.9116682,10.674356 5.6874898,9.9952111 5.6874898,9.9952111 6.3809072,10.453541 7,11 7,11 h 4 c 0,0 0.700036,-0.64019 1.372547,-1.0047814 0,0 0.750063,0.6877084 -0.372547,1.0047814 0.257087,0.317076 0,1 0,1 1.893868,-0.06 2,-1.602848 2,-1.594274 C 14,7.6720421 12.765212,5.4535917 12.765212,5.4535917 11.539766,4.5366593 10.367029,4.5611693 10.367029,4.5611693 l -0.120071,0.1379198 c 1.456822,0.4370467 2.1337,1.0790198 2.1337,1.0790198 C 11.489426,5.2982148 10.614857,5.0594585 9.800746,4.9651933 9.1837424,4.8966345 8.5921892,4.9128717 8.0694466,4.9814189 c -0.051408,-1e-7 -0.094608,0.00929 -0.1460326,0.017848 C 7.6234799,5.0335461 6.8964963,5.1368197 5.9795554,5.5395882 5.6624818,5.6767009 5.4733085,5.7781089 5.4733085,5.7781089 c 0,0 0.703142,-0.6760476 2.2456594,-1.1130946 z M 7.0597067,8.022146 c 0.5464365,0 0.9874369,0.4355899 0.977854,0.977854 0,0.542265 -0.4314175,0.977854 -0.977854,0.977854 C 6.5228555,9.977854 6.0818529,9.4609648 6.0818529,9 c 0,-0.4609648 0.4314165,-0.977854 0.9778538,-0.977854 z m 3.9114163,0 c 0.53685,0 0.977853,0.4355899 0.977853,0.977854 0,0.542265 -0.431415,0.977854 -0.977853,0.977854 -0.53685,0 -0.9778545,-0.435589 -0.9778545,-0.977854 0,-0.5422641 0.4314175,-0.977854 0.9778545,-0.977854 z"
     id="rect3801"
     class="ColorScheme-Background" />
  <path
     id="path19"
     d="M 4.5,2 C 2.838,2 2,2.838 2,4.5 v 8 C 2,14.162 2.838,15 4.5,15 H 6 7.533203 11 v -2 l 5,4 V 3.482422 5.5 4.5 C 16,2.838 15.141489,2 13.5,2 H 11 6 Z m 3.1329714,2.5611693 0.085996,0.1038455 C 6.1764505,5.1020617 5.4733085,5.7781089 5.4733085,5.7781089 c 0,0 0.1891733,-0.1014072 0.5062469,-0.2385198 0.9169409,-0.4027689 1.6439245,-0.5060425 1.9438586,-0.5403215 0.051425,-0.00855 0.094625,-0.017848 0.1460326,-0.017848 0.5227426,-0.068547 1.1142949,-0.084785 1.7312994,-0.016226 0.81411,0.094265 1.68868,0.3330216 2.579912,0.812916 0,0 -0.676878,-0.6419734 -2.1337,-1.0790201 l 0.120071,-0.1379198 c 0,0 1.172737,-0.02451 2.398183,0.8924226 0,0 1.234788,2.2184506 1.234788,4.9521347 0,-0.0086 -0.106132,1.534277 -2.000001,1.594265 0,0 0.257087,-0.682916 0,-0.999999 1.12261,-0.317073 0.372547,-1.0047811 0.372547,-1.0047811 -0.68361,0.4693351 -1.372547,1.0047811 -1.372547,1.0047811 l -4.0000002,4e-6 c 0,0 -0.6690971,-0.653327 -1.312509,-1.0047859 0,0 -0.7758216,0.6791449 0.31251,1.0047879 -0.2570867,0.325641 0.141166,1.055171 0.141166,1.055171 C 4.2472953,11.995181 4,10.405726 4,10.405726 4,7.6720421 5.2331656,5.4535917 5.2331656,5.4535917 6.4671803,4.5366512 7.6329705,4.5611693 7.6329714,4.5611693 Z M 7.0597067,8.022146 C 6.5132694,8.022146 6.0818529,8.4577359 6.0818529,9 c 0,0.542265 0.4410026,0.977854 0.9778538,0.977854 0.5464365,0 0.977854,-0.435589 0.977854,-0.977854 0.00958,-0.5422641 -0.4314175,-0.977854 -0.977854,-0.977854 z m 3.9114163,0 c -0.546437,0 -0.9778545,0.4355899 -0.9778545,0.977854 0,0.542265 0.4410045,0.977854 0.9778545,0.977854 0.546438,0 0.977853,-0.435589 0.977853,-0.977854 0,-0.5422641 -0.441003,-0.977854 -0.977853,-0.977854 z"
     style="fill:currentColor;fill-opacity:0.75"
     class="ColorScheme-Text" />
</svg>
