<?xml version="1.0" encoding="UTF-8"?>
<svg id="a" width="18" height="18" version="1.1" xmlns="http://www.w3.org/2000/svg" xmlns:cc="http://creativecommons.org/ns#" xmlns:dc="http://purl.org/dc/elements/1.1/" xmlns:rdf="http://www.w3.org/1999/02/22-rdf-syntax-ns#">
	<metadata id="c">
		<rdf:RDF>
			<cc:Work rdf:about="">
				<dc:format>image/svg+xml</dc:format>
				<dc:type rdf:resource="http://purl.org/dc/dcmitype/StillImage"/>
				<dc:title/>
			</cc:Work>
		</rdf:RDF>
	</metadata>
	<defs id="e">
		<style id="current-color-scheme" type="text/css">.ColorScheme-Text {color:#090d11;}.ColorScheme-Background{color:#ffffff;}</style>
	</defs>
	<path id="d" class="ColorScheme-Text" d="m8 3a6 6 0 0 0-6 6 6 6 0 0 0 6 6 6 6 0 0 0 0.49805-0.02539 6 6 0 0 1-5.498-5.9746 6 6 0 0 1 5.502-5.9746 6 6 0 0 0-0.50195-0.025392zm2 0a6 6 0 0 0-5.1875 3h10.377a6 6 0 0 0-5.1895-3zm-5.6504 4a6 6 0 0 0-0.26367 1h11.824a6 6 0 0 0-0.26172-1zm-0.34961 2a6 6 0 0 0 0.089844 1h11.824a6 6 0 0 0 0.08594-1zm0.35156 2a6 6 0 0 0 5.6484 4 6 6 0 0 0 5.6504-4z" style="fill-opacity:.75;fill:currentColor"/>
	<path id="b" class="ColorScheme-Background" d="m8 2c-3.8541 0-7 3.1459-7 7s3.1459 7 7 7a1.0001 1.0001 0 0 0 0.00977 0c0.19401-0.0018 0.38689-0.01137 0.58008-0.0293a1.0001 1.0001 0 0 0 0.4043-0.12891c0.33641 0.0504 0.65665 0.15772 1.0039 0.1582a1.0001 1.0001 0 0 0 0.00391 0c2.9602-0.0032 5.6051-1.8751 6.5918-4.666a1.0001 1.0001 0 0 0 0.01563-0.61523 1.0001 1.0001 0 0 0 0.29102-0.55078c0.06594-0.38541 0.09883-0.77501 0.09961-1.166a1.0001 1.0001 0 0 0-0.18555-0.58008 1.0001 1.0001 0 0 0 0.08203-0.58984c-0.06803-0.39695-0.17149-0.78859-0.30664-1.168a1.0001 1.0001 0 0 0-0.41211-0.51172 1.0001 1.0001 0 0 0-0.12305-0.65234c-1.2482-2.162-3.5563-3.4972-6.0527-3.5a1.0001 1.0001 0 0 0-0.00391 0c-0.31531 4.549e-4 -0.57524 0.19634-0.88281 0.23828a1.0001 1.0001 0 0 0-0.52148-0.20898c-0.1947-0.018049-0.39041-0.027606-0.58594-0.029297a1.0001 1.0001 0 0 0-0.00781 0zm0 1a6 6 0 0 1 0.50195 0.025391 6 6 0 0 0-5.502 5.9746 6 6 0 0 0 5.498 5.9746 6 6 0 0 1-0.49805 0.02539 6 6 0 0 1-6-6 6 6 0 0 1 6-6zm2 0a6 6 0 0 1 5.1895 3h-10.377a6 6 0 0 1 5.1875-3zm-5.6504 4h11.299a6 6 0 0 1 0.26172 1h-11.824a6 6 0 0 1 0.26367-1zm-0.34961 2h12a6 6 0 0 1-0.08594 1h-11.824a6 6 0 0 1-0.089842-1zm0.35156 2h11.299a6 6 0 0 1-5.6504 4 6 6 0 0 1-5.6484-4z" style="fill-opacity:.5;fill:currentColor"/>
</svg>
