<?xml version="1.0" encoding="UTF-8" standalone="no"?>
<!-- Created with Inkscape (http://www.inkscape.org/) -->

<svg
   xmlns:dc="http://purl.org/dc/elements/1.1/"
   xmlns:cc="http://creativecommons.org/ns#"
   xmlns:rdf="http://www.w3.org/1999/02/22-rdf-syntax-ns#"
   xmlns:svg="http://www.w3.org/2000/svg"
   xmlns="http://www.w3.org/2000/svg"
   xmlns:sodipodi="http://sodipodi.sourceforge.net/DTD/sodipodi-0.dtd"
   xmlns:inkscape="http://www.inkscape.org/namespaces/inkscape"
   version="1.1"
   width="18"
   height="18"
   id="svg13094"
   inkscape:version="0.92.2 5c3e80d, 2017-08-06"
   sodipodi:docname="facebook-messenger.svg">
  <sodipodi:namedview
     pagecolor="#ffffff"
     bordercolor="#666666"
     borderopacity="1"
     objecttolerance="10"
     gridtolerance="10"
     guidetolerance="10"
     inkscape:pageopacity="0"
     inkscape:pageshadow="2"
     inkscape:window-width="1920"
     inkscape:window-height="1033"
     id="namedview6"
     showgrid="true"
     inkscape:snap-bbox="true"
     inkscape:bbox-paths="true"
     inkscape:bbox-nodes="true"
     inkscape:snap-bbox-edge-midpoints="true"
     inkscape:snap-bbox-midpoints="true"
     inkscape:object-paths="true"
     inkscape:snap-intersection-paths="true"
     inkscape:object-nodes="true"
     inkscape:snap-smooth-nodes="true"
     inkscape:snap-midpoints="true"
     inkscape:snap-object-midpoints="true"
     inkscape:snap-center="true"
     inkscape:zoom="20.85965"
     inkscape:cx="3.0727737"
     inkscape:cy="2.7452916"
     inkscape:window-x="-10"
     inkscape:window-y="25"
     inkscape:window-maximized="1"
     inkscape:current-layer="svg13094"
     inkscape:snap-global="false">
    <inkscape:grid
       type="xygrid"
       id="grid2983"
       empspacing="5"
       visible="true"
       enabled="true"
       snapvisiblegridlinesonly="true" />
  </sodipodi:namedview>
  <defs
     id="defs7" />
  <metadata
     id="metadata13099">
    <rdf:RDF>
      <cc:Work
         rdf:about="">
        <dc:format>image/svg+xml</dc:format>
        <dc:type
           rdf:resource="http://purl.org/dc/dcmitype/StillImage" />
        <dc:title></dc:title>
      </cc:Work>
    </rdf:RDF>
  </metadata>
  <path
     style="color:#000000;font-style:normal;font-variant:normal;font-weight:normal;font-stretch:normal;font-size:medium;line-height:normal;font-family:sans-serif;font-variant-ligatures:normal;font-variant-position:normal;font-variant-caps:normal;font-variant-numeric:normal;font-variant-alternates:normal;font-feature-settings:normal;text-indent:0;text-align:start;text-decoration:none;text-decoration-line:none;text-decoration-style:solid;text-decoration-color:#000000;letter-spacing:normal;word-spacing:normal;text-transform:none;writing-mode:lr-tb;direction:ltr;text-orientation:mixed;dominant-baseline:auto;baseline-shift:baseline;text-anchor:start;white-space:normal;shape-padding:0;clip-rule:nonzero;display:inline;overflow:visible;visibility:visible;opacity:1;isolation:auto;mix-blend-mode:normal;color-interpolation:sRGB;color-interpolation-filters:linearRGB;solid-color:#000000;solid-opacity:1;vector-effect:none;fill:#f1f3f5;fill-opacity:0.90288714;fill-rule:nonzero;stroke:none;stroke-width:2;stroke-linecap:butt;stroke-linejoin:miter;stroke-miterlimit:4;stroke-dasharray:none;stroke-dashoffset:0;stroke-opacity:1;marker:none;color-rendering:auto;image-rendering:auto;shape-rendering:auto;text-rendering:auto;enable-background:accumulate"
     d="M 9,1 C 4.6194364,1 1,4.4169691 1,8.6660156 1,10.892629 2.0743431,12.834906 3.6484375,14.230469 L 3.9921875,17 H 5 L 4.609375,13.857422 C 3.0185963,12.634659 2,10.764064 2,8.6660156 2,4.9845343 5.1342208,2 9,2 c 3.865779,0 7,2.9845343 7,6.6660156 0,3.6814814 -3.134221,6.6679684 -7,6.6679684 -0.6985658,0 -1.3723612,-0.09896 -2.0078125,-0.279296 L 5,17 H 6.4316406 L 7.3496094,16.103516 C 7.8888756,16.213437 8.4267876,16.333984 9,16.333984 c 4.380563,0 8,-3.418922 8,-7.6679684 C 17,4.4169692 13.380563,1 9,1 Z m 4.5,6 -3.5,1.6694915 -2.5,-2 L 4.5,11 8,9.262712 l 2.5,2 z"
     id="path846"
     inkscape:connector-curvature="0"
     sodipodi:nodetypes="ssccccssssccccsssccccccc" />
  <path
     inkscape:connector-curvature="0"
     style="opacity:1;vector-effect:none;fill:#27303a;fill-opacity:0.75328082;stroke:none;stroke-width:1.99999988;stroke-linecap:butt;stroke-linejoin:miter;stroke-miterlimit:4;stroke-dasharray:none;stroke-dashoffset:0;stroke-opacity:1;marker:none"
     d="M 9.0000004,2 C 5.1342212,2 2,4.9850641 2,8.6665454 2,10.764594 3.0184426,12.63539 4.6092213,13.858153 L 5,17 6.9918032,15.054523 c 0.6354513,0.180336 1.3096314,0.278568 2.0081972,0.278568 C 12.865779,15.333091 16,12.348027 16,8.6665454 16,4.9850641 12.865779,2 9.0000004,2 Z M 10.5,11.262712 8,9.262712 4.5,11 l 3,-4.3305085 2.5,2 L 13.5,7 Z"
     id="path818"
     sodipodi:nodetypes="sscccsssccccccc" />
</svg>
