<?xml version="1.0" encoding="UTF-8"?>
<!-- Created with Inkscape (http://www.inkscape.org/) -->
<svg width="18" height="18" version="1.1" xmlns="http://www.w3.org/2000/svg" xmlns:cc="http://creativecommons.org/ns#" xmlns:dc="http://purl.org/dc/elements/1.1/" xmlns:rdf="http://www.w3.org/1999/02/22-rdf-syntax-ns#">
	<metadata>
		<rdf:RDF>
			<cc:Work rdf:about="">
				<dc:format>image/svg+xml</dc:format>
				<dc:type rdf:resource="http://purl.org/dc/dcmitype/StillImage"/>
			</cc:Work>
		</rdf:RDF>
	</metadata>
	<defs>
		<style id="current-color-scheme" type="text/css">.ColorScheme-Background{color:#ffffff;}
			.ColorScheme-Text{color:#090d11;}</style>
	</defs>
	<path class="ColorScheme-Text" d="m1 1v2.2715a1.9999 1.9999 0 0 1 1 1.7285 1.9999 1.9999 0 0 1-1 1.7285v2.543a1.9999 1.9999 0 0 1 1 1.7285 1.9999 1.9999 0 0 1-1 1.7285v2.2715h2.293a1.9999 1.9999 0 0 1 1.707-1 1.9999 1.9999 0 0 1 1.7285 1h2.5645a1.9999 1.9999 0 0 1 1.707-1 1.9999 1.9999 0 0 1 1.7285 1h2.2715v-2.293a1.9999 1.9999 0 0 1-1-1.707 1.9999 1.9999 0 0 1 1-1.707v-2.586a1.9999 1.9999 0 0 1-1-1.707 1.9999 1.9999 0 0 1 1-1.707v-2.293h-2.2715a1.9999 1.9999 0 0 1-1.7285 1 1.9999 1.9999 0 0 1-1.707-1h-2.5645a1.9999 1.9999 0 0 1-1.7285 1 1.9999 1.9999 0 0 1-1.707-1h-1.293zm4 3h6v2h-4.25l-0.125 1h5.375v2l-2 1h2v2h-4v-2l2-1h-3.625l-0.375 3h-2z" style="fill-opacity:.75;fill:currentColor"/>
	<path class="ColorScheme-Background" d="m1 0c-0.55226 5.5218e-5 -0.99994 0.44774-1 1v2.2715c3.0302e-4 0.35698 0.19086 0.68673 0.5 0.86523 0.3094 0.1786 0.49645 0.50618 0.49805 0.86328 0 0.3571-0.18865 0.68468-0.49805 0.86328-0.30914 0.17851-0.4997 0.50826-0.5 0.86523v2.543c3.0295e-4 0.35698 0.19086 0.68673 0.5 0.86523 0.3094 0.1786 0.49645 0.50618 0.49805 0.86328 0 0.3571-0.18865 0.68468-0.49805 0.86328-0.30914 0.17851-0.4997 0.50826-0.5 0.86524v2.2715c5.5218e-5 0.55226 0.44774 0.99994 1 1h2.293c0.35698-3.03e-4 0.68673-0.19086 0.86523-0.5 0.1759-0.3047 0.49626-0.48909 0.84766-0.49609 0.3545 0 0.67982 0.18859 0.85742 0.49609 0.17851 0.30914 0.50826 0.4997 0.86523 0.5h2.5645c0.35698-3.03e-4 0.68673-0.19086 0.86523-0.5 0.1759-0.3047 0.49626-0.48909 0.84766-0.49609 0.3545 0 0.67982 0.18859 0.85742 0.49609 0.17851 0.30914 0.50826 0.4997 0.86524 0.5h2.2715c0.55226-5.5e-5 0.99994-0.44774 1-1v-2.293c-3.03e-4 -0.35698-0.19086-0.68673-0.5-0.86523-0.3025-0.1746-0.48269-0.4935-0.49219-0.8418 0.01-0.3483 0.18969-0.6672 0.49219-0.8418 0.30914-0.17851 0.4997-0.50826 0.5-0.86523v-2.5859c-3.03e-4 -0.35698-0.19086-0.68673-0.5-0.86523-0.3025-0.1746-0.48269-0.4935-0.49219-0.8418 0.01-0.3483 0.18969-0.6672 0.49219-0.8418 0.30914-0.17851 0.4997-0.50826 0.5-0.86523v-2.293c-5.5e-5 -0.55226-0.44774-0.99994-1-1h-2.2715c-0.35698 3.0281e-4 -0.68673 0.19086-0.86524 0.5-0.1776 0.3075-0.50292 0.49219-0.85742 0.49609-0.3514-0.01-0.67176-0.19139-0.84766-0.49609-0.17851-0.30914-0.50826-0.4997-0.86523-0.5h-2.5645c-0.35698 3.0302e-4 -0.68673 0.19086-0.86523 0.5-0.1776 0.3075-0.50292 0.49219-0.85742 0.49609-0.3514-0.01-0.67176-0.19139-0.84766-0.49609-0.17851-0.30914-0.50826-0.4997-0.86523-0.5h-1.293zm0 1h2.293c0.35275 0.61114 1.0015 0.99115 1.707 1 0.71327-0.0012476 1.3719-0.38228 1.7285-1h2.5645c0.35275 0.61114 1.0015 0.99115 1.707 1 0.71327-0.0012475 1.3719-0.38228 1.7285-1h2.2715v2.293c-0.61114 0.35275-0.99115 1.0015-1 1.707 0.0088 0.70558 0.38886 1.3543 1 1.707v2.5859c-0.61114 0.35275-0.99115 1.0015-1 1.707 0.0088 0.70558 0.38886 1.3543 1 1.707v2.293h-2.2715c-0.35662-0.61772-1.0152-0.99875-1.7285-1-0.70558 0.0088-1.3543 0.38886-1.707 1h-2.5645c-0.35662-0.61772-1.0152-0.99875-1.7285-1-0.70558 0.0088-1.3543 0.38886-1.707 1h-2.293v-2.2715c0.61772-0.35662 0.99875-1.0152 1-1.7285-0.0012476-0.71327-0.38228-1.3719-1-1.7285v-2.543c0.61772-0.35662 0.99875-1.0152 1-1.7285-0.0012476-0.71327-0.38228-1.3719-1-1.7285v-1.2715zm4 3-1 8h2l0.375-3h3.625l-2 1v2h4v-2h-2l2-1v-2h-5.375l0.125-1h4.25v-2h-5z" style="fill-opacity:.5;fill:currentColor"/>
</svg>
