<?xml version="1.0" encoding="UTF-8"?>
<!-- Created with Inkscape (http://www.inkscape.org/) -->
<svg width="18" height="18" version="1.1" xmlns="http://www.w3.org/2000/svg" xmlns:cc="http://creativecommons.org/ns#" xmlns:dc="http://purl.org/dc/elements/1.1/" xmlns:rdf="http://www.w3.org/1999/02/22-rdf-syntax-ns#">
	<defs>
		<style id="current-color-scheme" type="text/css">.ColorScheme-Text {color:#090d11;}
			.ColorScheme-Background{color:#ffffff;}</style>
	</defs>
	<metadata>
		<rdf:RDF>
			<cc:Work rdf:about="">
				<dc:format>image/svg+xml</dc:format>
				<dc:type rdf:resource="http://purl.org/dc/dcmitype/StillImage"/>
			</cc:Work>
		</rdf:RDF>
	</metadata>
	<path class="ColorScheme-Text" d="m2.5 2c-0.27613 2.76e-5 -0.49997 0.22387-0.5 0.5v11c2.76e-5 0.27613 0.22387 0.49997 0.5 0.5h2c0.27614 0 0.5-0.22386 0.5-0.5s-0.22386-0.5-0.5-0.5h-1.5v-10h12v10h-5.0625c-0.27614 0-0.5 0.22386-0.5 0.5s0.22386 0.5 0.5 0.5h5.5625c0.27613-2.8e-5 0.49997-0.22387 0.5-0.5v-11c-2.8e-5 -0.27613-0.22387-0.49997-0.5-0.5zm3.5 2c-1.108 0-2 0.892-2 2v4c0 1.108 0.892 2 2 2v4l3.1992-4h2.8008c1.108 0 2-0.892 2-2v-4c0-1.108-0.892-2-2-2zm0 3c0.55228 0 1 0.44772 1 1s-0.44772 1-1 1-1-0.44772-1-1 0.44772-1 1-1zm3 0c0.55228 0 1 0.44772 1 1s-0.44772 1-1 1-1-0.44772-1-1 0.44772-1 1-1zm3 0c0.55228 0 1 0.44772 1 1s-0.44772 1-1 1-1-0.44772-1-1 0.44772-1 1-1z" style="fill:currentColor;opacity:.75"/>
</svg>
