<?xml version="1.0" encoding="UTF-8"?>
<!-- Created with Inkscape (http://www.inkscape.org/) -->
<svg width="18" height="18" version="1.1" xmlns="http://www.w3.org/2000/svg" xmlns:cc="http://creativecommons.org/ns#" xmlns:dc="http://purl.org/dc/elements/1.1/" xmlns:rdf="http://www.w3.org/1999/02/22-rdf-syntax-ns#">
	<defs>
		<style id="current-color-scheme" type="text/css">.ColorScheme-Text {
			color:#090d11;
			}
			.ColorScheme-Background{
			color:#ffffff;
			}</style>
	</defs>
	<metadata>
		<rdf:RDF>
			<cc:Work rdf:about="">
				<dc:format>image/svg+xml</dc:format>
				<dc:type rdf:resource="http://purl.org/dc/dcmitype/StillImage"/>
			</cc:Work>
		</rdf:RDF>
	</metadata>
	<path class="ColorScheme-Text" d="m9 2c-2.7358 0-5.0988 1.5746-6.248 3.8613-0.4783 0.945-0.75195 2.007-0.75195 3.1387s0.27365 2.1937 0.75195 3.1387c1.1492 2.2867 3.5122 3.8614 6.248 3.8613 1.89 0 3.472-0.62977 4.627-1.6973 1.3184-1.2192 2.0762-3.0153 2.0762-5.1445 0-0.4609-0.04103-0.89842-0.11133-1.3242h-6.5918v2.6309h3.7754c-0.1692 0.8633-0.66539 1.5921-1.4004 2.0879-0.63 0.42-1.43 0.67578-2.375 0.67578-1.8258 0-3.3717-1.2302-3.9258-2.8926-0.1459-0.42-0.2207-0.86914-0.2207-1.3359 0-0.4667 0.081003-0.91584 0.2207-1.3359 0.5541-1.6625 2.1-2.8925 3.9258-2.8926 1.0325 0 1.9545 0.35473 2.6836 1.0488l1.9941-1.9941c-1.2075-1.1316-2.7877-1.8262-4.6777-1.8262z" style="fill-opacity:.75;fill:currentColor"/>
	<path class="ColorScheme-Background" d="m9 1c-3.1195 0-5.8272 1.7985-7.1406 4.4121-0.5447 1.0768-0.85938 2.2957-0.85938 3.5879 0 1.2929 0.31418 2.5126 0.85938 3.5898 1.3137 2.6128 4.0216 4.4103 7.1406 4.4102 2.1121 0 3.9614-0.71949 5.3066-1.9629 1.5376-1.4219 2.3965-3.5124 2.3965-5.8789 0-0.5195-0.046-1.0141-0.125-1.4883-0.08025-0.48228-0.49742-0.83584-0.98633-0.83594h-6.5918c-0.55226 5.52e-5 -0.99994 0.44774-1 1v2.6309c5.51e-5 0.55226 0.44774 0.99995 1 1h1.9922c-0.081 0.071-0.07897 0.19256-0.17188 0.25586-0.4607 0.3067-1.0546 0.50781-1.8184 0.50781-1.3766 0-2.5521-0.93548-2.9766-2.209v-0.0117c-0.1081-0.31132-0.16602-0.64783-0.16602-1.0078 0-0.351 0.061022-0.69213 0.16992-1.0195 0.4245-1.2736 1.5999-2.2089 2.9766-2.209 0.8035 0 1.4467 0.25234 1.9941 0.77344 0.39318 0.37395 1.0128 0.36615 1.3965-0.017578l1.9941-1.9941c0.39992-0.39965 0.3893-1.0511-0.02344-1.4375-1.3761-1.2897-3.2263-2.0957-5.3613-2.0957zm0 1c1.89 0 3.4702 0.69457 4.6777 1.8262l-1.9941 1.9941c-0.7291-0.6941-1.6511-1.0488-2.6836-1.0488-1.8258 1e-4 -3.3717 1.2301-3.9258 2.8926-0.1397 0.4201-0.2207 0.86924-0.2207 1.3359 0 0.4668 0.074803 0.91594 0.2207 1.3359 0.5541 1.6624 2.1 2.8926 3.9258 2.8926 0.945 0 1.745-0.25578 2.375-0.67578 0.735-0.4958 1.2312-1.2246 1.4004-2.0879h-3.7754v-2.6309h6.5918c0.0703 0.4258 0.11133 0.86332 0.11133 1.3242 0 2.1292-0.75777 3.9253-2.0762 5.1445-1.155 1.0675-2.737 1.6973-4.627 1.6973-2.7358 1e-4 -5.0988-1.5746-6.248-3.8613-0.4783-0.945-0.75195-2.007-0.75195-3.1387s0.27365-2.1937 0.75195-3.1387c1.1492-2.2867 3.5122-3.8613 6.248-3.8613z" style="fill-opacity:.5;fill:currentColor"/>
</svg>
