<?xml version="1.0" encoding="UTF-8"?>
<!-- Created with Inkscape (http://www.inkscape.org/) -->
<svg width="18" height="18" version="1.1" xmlns="http://www.w3.org/2000/svg" xmlns:cc="http://creativecommons.org/ns#" xmlns:dc="http://purl.org/dc/elements/1.1/" xmlns:rdf="http://www.w3.org/1999/02/22-rdf-syntax-ns#">
	<defs>
		<style id="current-color-scheme" type="text/css">.ColorScheme-Text {color:#090d11;}.ColorScheme-Background{color:#ffffff;}</style>
	</defs>
	<metadata>
		<rdf:RDF>
			<cc:Work rdf:about="">
				<dc:format>image/svg+xml</dc:format>
				<dc:type rdf:resource="http://purl.org/dc/dcmitype/StillImage"/>
			</cc:Work>
		</rdf:RDF>
	</metadata>
	<path id="e" class="ColorScheme-Text" d="m8.9922 2c-3.868 0-6.9922 3.1244-6.9922 6.9922 0 3.8684 3.1242 6.9922 6.9922 6.9922s6.9922-3.1239 6.9922-6.9922c0-3.8678-3.1243-6.9922-6.9922-6.9922zm-1.6016 2.9082h1.4023c0.23063 4.362e-4 0.4365 0.1447 0.51562 0.36133l2.0195 5.5449 0.83594-0.78125c0.22221-0.20711 0.57024-0.19487 0.77734 0.02734 0.20762 0.22168 0.19626 0.56969-0.02539 0.77734l-1.4434 1.3496c-0.28845 0.2693-0.75826 0.15622-0.89258-0.21484l-1.3438-3.6895-2.2422 3.7422c-0.15665 0.25964-0.49388 0.34352-0.75391 0.1875-0.26034-0.15599-0.34513-0.49338-0.18945-0.75391l2.6992-4.5059-0.34375-0.94531h-1.0156c-0.3036 4.359e-4 -0.55013-0.24522-0.55078-0.54883-4.327e-4 -0.30437 0.24641-0.55121 0.55078-0.55078z" style="fill-opacity:.75;fill:currentColor"/>
</svg>
