<?xml version="1.0" encoding="UTF-8"?>
<!-- Created with Inkscape (http://www.inkscape.org/) -->
<svg width="18" height="18" version="1.1" xmlns="http://www.w3.org/2000/svg" xmlns:cc="http://creativecommons.org/ns#" xmlns:dc="http://purl.org/dc/elements/1.1/" xmlns:rdf="http://www.w3.org/1999/02/22-rdf-syntax-ns#">
	<defs>
		<style id="current-color-scheme" type="text/css">.ColorScheme-Text {
			color:#090d11;
			}
			.ColorScheme-Background{
			color:#ffffff;
			}</style>
	</defs>
	<metadata>
		<rdf:RDF>
			<cc:Work rdf:about="">
				<dc:format>image/svg+xml</dc:format>
				<dc:type rdf:resource="http://purl.org/dc/dcmitype/StillImage"/>
			</cc:Work>
		</rdf:RDF>
	</metadata>
	<path class="ColorScheme-Text" d="m11.691 3.3145c-1.5853 0-2.873 1.2857-2.873 2.8711 0 0.2255 0.026172 0.4455 0.076172 0.6543-2.3873-0.119-4.5036-1.2641-5.9199-3.002-0.2464 0.4241-0.38867 0.91706-0.38867 1.4434 0 0.9963 0.5085 1.8749 1.2793 2.3887-0.47-0.014-0.91228-0.14242-1.3008-0.35742v0.035156c0 1.391 0.98893 2.5532 2.3027 2.8164-0.2402 0.065-0.49486 0.09766-0.75586 0.09766-0.1859 0-0.36552-0.01778-0.54102-0.05078 0.3655 1.1403 1.4264 1.9712 2.6816 1.9941-0.9836 0.7707-2.2193 1.2305-3.5664 1.2305-0.2317 0-0.45985-0.01502-0.68555-0.04102 1.2699 0.8146 2.7795 1.291 4.4023 1.291 5.2822 0 8.1719-4.3746 8.1719-8.1699 0-0.1253 2.34e-4 -0.24985-0.0098-0.37305 0.55926-0.40339 1.0424-0.90539 1.4258-1.4785-0.51317 0.2252-1.0635 0.37879-1.6406 0.44727 0.5932-0.3549 1.0487-0.91739 1.2617-1.5879-0.5556 0.33-1.1705 0.56757-1.8242 0.69727-0.5243-0.5578-1.2686-0.90625-2.0957-0.90625zm4.2988 1.3496c0.0032-0.0014 0.0066-0.0025 0.0098-0.00391l-0.0039-0.00391c-0.0018 0.00271-4e-3 0.00511-0.0059 0.00781z" style="fill-opacity:.75;fill:currentColor"/>
</svg>
