<?xml version="1.0" encoding="UTF-8"?>
<svg id="a" width="18" height="18" version="1.1" xmlns="http://www.w3.org/2000/svg" xmlns:cc="http://creativecommons.org/ns#" xmlns:dc="http://purl.org/dc/elements/1.1/" xmlns:rdf="http://www.w3.org/1999/02/22-rdf-syntax-ns#">
	<metadata id="c">
		<rdf:RDF>
			<cc:Work rdf:about="">
				<dc:format>image/svg+xml</dc:format>
				<dc:type rdf:resource="http://purl.org/dc/dcmitype/StillImage"/>
			</cc:Work>
		</rdf:RDF>
	</metadata>
	<defs>
		<style id="current-color-scheme" type="text/css">.ColorScheme-Text {color:#090d11;}.ColorScheme-Background{color:#ffffff;}</style>
	</defs>
	<path id="b" class="ColorScheme-Text" d="m3 2c-0.554 0-1 0.446-1 1v12c0 0.554 0.446 1 1 1h12c0.554 0 1-0.446 1-1v-12c0-0.554-0.446-1-1-1zm0 2h1v2h-1zm11 0h1v2h-1zm-5 1c1.3807 0 2.5 1.1193 2.5 2.5s-1.1193 2.5-2.5 2.5-2.5-1.1193-2.5-2.5 1.1193-2.5 2.5-2.5zm-1 1.5v2l2.3535-1zm-5 1.5h1v2h-1zm11 0h1v2h-1zm-11 4h1v2h-1zm3 0h6v1h-6zm8 0h1v2h-1z" style="fill-opacity:.75;fill:currentColor"/>
	<path id="d" class="ColorScheme-Background" d="m2.5723 1c-0.86192 0-1.5723 0.71034-1.5723 1.5723v12.855c0 0.86192 0.71034 1.5723 1.5723 1.5723h12.855c0.86192 0 1.5723-0.71034 1.5723-1.5723v-12.855c0-0.86192-0.71034-1.5723-1.5723-1.5723zm0 1h12.855c0.32522 0 0.57227 0.24705 0.57227 0.57227v12.855c0 0.32522-0.24705 0.57227-0.57227 0.57227h-12.855c-0.32522 0-0.57227-0.24705-0.57227-0.57227v-12.855c0-0.32522 0.24705-0.57227 0.57227-0.57227zm0.42773 2v2h1v-2zm11 0v2h1v-2zm-5 1c-1.3807 0-2.5 1.1193-2.5 2.5s1.1193 2.5 2.5 2.5 2.5-1.1193 2.5-2.5-1.1193-2.5-2.5-2.5zm-1 1.5 2.3535 1-2.3535 1zm-5 1.5v2h1v-2zm11 0v2h1v-2zm-11 4v2h1v-2zm3 0v1h6v-1zm8 0v2h1v-2z" style="fill-opacity:.5;fill:currentColor"/>
</svg>
