<?xml version="1.0" encoding="UTF-8"?>
<svg id="a" width="18" height="18" version="1.1" xmlns="http://www.w3.org/2000/svg" xmlns:cc="http://creativecommons.org/ns#" xmlns:dc="http://purl.org/dc/elements/1.1/" xmlns:rdf="http://www.w3.org/1999/02/22-rdf-syntax-ns#">
	<metadata id="d">
		<rdf:RDF>
			<cc:Work rdf:about="">
				<dc:format>image/svg+xml</dc:format>
				<dc:type rdf:resource="http://purl.org/dc/dcmitype/StillImage"/>
				<dc:title/>
			</cc:Work>
		</rdf:RDF>
	</metadata>
	<defs id="b">
		<style id="current-color-scheme" type="text/css">.ColorScheme-Text {color:#090d11;}.ColorScheme-Background{color:#ffffff;}</style>
	</defs>
	<path id="e" class="ColorScheme-Background" d="m9 1c-0.5263 0-1.0093 0.1968-1.375 0.5625l-1.3438 1.3438-0.28125 0.3125-1.7188 1.6875-2.7188 2.7188c-0.7515 0.7515-0.7515 1.9985 0 2.75l2.7188 2.7188 1.7188 1.6875 0.28125 0.3125 1.3438 1.3438c0.7515 0.7515 1.9985 0.7515 2.75 0l2.5312-2.5312 0.6875-0.71875 0.71875-0.6875 2.125-2.125c0.7515-0.7515 0.7515-1.9985 0-2.75l-2.625-2.625-0.71875-0.6875-0.6875-0.71875-1.9688-1.9375-0.0625-0.09375c-0.3657-0.3657-0.8487-0.5625-1.375-0.5625zm0 1c0.2332 0 0.47755 0.10255 0.65625 0.28125l2.0312 2.0312-4.6875 4.6875v-5.375l1.3438-1.3438c0.1788-0.1787 0.42305-0.28125 0.65625-0.28125zm-4 3.625v6.75l-2.7188-2.7188c-0.3574-0.3574-0.3574-0.955 0-1.3125l2.7188-2.7188zm8.0938 0.09375 2.625 2.625c0.3575 0.3575 0.3575 0.9551 0 1.3125l-2.125 2.125-3.2812-3.2812 2.7812-2.7812zm-4.1875 4.1875 3.2812 3.2812-2.5312 2.5312c-0.3574 0.3575-0.955 0.3575-1.3125 0l-1.3438-1.3438v-2.5312l1.9062-1.9375z" style="fill-opacity:.5;fill:currentColor"/>
	<path id="c" class="ColorScheme-Text" d="m9 2c-0.2332 0-0.4775 0.1025-0.6563 0.2812l-1.3437 1.3438v5.375l4.6875-4.6875-2.0313-2.0313c-0.1787-0.1787-0.423-0.2812-0.6562-0.2812zm-4 3.625-2.7188 2.7187c-0.3574 0.3575-0.3574 0.9551 0 1.3125l2.7188 2.7188zm8.0937 0.094-2.7812 2.7813 3.2812 3.2812 2.125-2.125c0.3575-0.3574 0.3575-0.955 0-1.3125zm-4.1875 4.1875-1.9062 1.9375v2.5313l1.3437 1.3437c0.3575 0.3575 0.9551 0.3575 1.3125 0l2.5313-2.5312z" style="fill-opacity:.75;fill:currentColor"/>
</svg>
