<?xml version="1.0" encoding="UTF-8"?>
<svg id="a" width="18" height="18" version="1.1" xmlns="http://www.w3.org/2000/svg" xmlns:cc="http://creativecommons.org/ns#" xmlns:dc="http://purl.org/dc/elements/1.1/" xmlns:rdf="http://www.w3.org/1999/02/22-rdf-syntax-ns#">
	<metadata id="d">
		<rdf:RDF>
			<cc:Work rdf:about="">
				<dc:format>image/svg+xml</dc:format>
				<dc:type rdf:resource="http://purl.org/dc/dcmitype/StillImage"/>
			</cc:Work>
		</rdf:RDF>
	</metadata>
	<defs id="b">
		<style id="current-color-scheme" type="text/css">.ColorScheme-Text {color:#090d11;}.ColorScheme-Background{color:#ffffff;}</style>
	</defs>
	<path id="c" class="ColorScheme-Text" d="m9 2c-0.2332 0-0.4775 0.1025-0.6563 0.2812l-1.3437 1.3438v5.375l4.6875-4.6875-2.0313-2.0313c-0.1787-0.1787-0.423-0.2812-0.6562-0.2812zm-4 3.625-2.7188 2.7187c-0.3574 0.3575-0.3574 0.9551 0 1.3125l2.7188 2.7188zm8.0937 0.094-2.7812 2.7813 3.2812 3.2812 2.125-2.125c0.3575-0.3574 0.3575-0.955 0-1.3125zm-4.1875 4.1875-1.9062 1.9375v2.5313l1.3437 1.3437c0.3575 0.3575 0.9551 0.3575 1.3125 0l2.5313-2.5312z" style="fill-opacity:.75;fill:currentColor"/>
</svg>
