<?xml version="1.0" encoding="UTF-8"?>
<svg id="d" width="18" height="18" version="1.1" xmlns="http://www.w3.org/2000/svg" xmlns:cc="http://creativecommons.org/ns#" xmlns:dc="http://purl.org/dc/elements/1.1/" xmlns:rdf="http://www.w3.org/1999/02/22-rdf-syntax-ns#">
	<metadata id="a">
		<rdf:RDF>
			<cc:Work rdf:about="">
				<dc:format>image/svg+xml</dc:format>
				<dc:type rdf:resource="http://purl.org/dc/dcmitype/StillImage"/>
				<dc:title/>
			</cc:Work>
		</rdf:RDF>
	</metadata>
	<defs id="c">
		<style id="current-color-scheme" type="text/css">.ColorScheme-ViewText {color:#090d11;}.ColorScheme-Background{color:#ffffff;}</style>
	</defs>
	<path id="b" class="ColorScheme-Text" d="m3.1 2.0467v1.0812h1.0667l-1.0667 10.813h-1.0666v1.0813h4.2666v-1.0813h-1.0666l0.5333-5.271-0.5333-1.2164 0.7333-1.0137 0.3333-3.3113h1.0667v-1.0812h-1.0667zm6.4 0v1.0812l-3.2 4.325 3.2 7.5687h2.1334l-0.9-2.1625h-0.1667v-0.37161l-2.1333-5.0345 3.2-4.325h2.1333v-1.0812h-1.0667zm2.1334 12.975h1.0666l5.3334-7.5687h-2.1334l-3.7333 5.4062h-0.5333zm0-7.5687v4.3925l2.1333-3.0747v-1.3178z" style="fill-opacity:.75;fill:currentColor"/>
	<path id="e" class="ColorScheme-Background" d="m2 1.033v2.1624h1.0666v-1.0812h3.2v-1.0813zm1.0666 2.1624-1.0666 10.813h1.0666l1.0667-10.813zm-1.0666 10.813h-1.0667v2.1624h4.2667v-1.0812h-3.2zm6.4-12.975v2.1624l-3.2 4.325 3.2 7.5687v1.0812h4.2666v-1.0812h-3.2l-3.2-7.5687 3.2-4.325v-1.0812h3.2v-1.0813zm2.1333 6.4874v5.4062h1.6l3.7333-5.4062h-1.2334l-3.0332 4.3925v-4.3925z" style="fill-opacity:.5;fill:currentColor"/>
</svg>
