<?xml version="1.0" encoding="UTF-8"?>
<svg id="g" width="18" height="18" version="1.1" xmlns="http://www.w3.org/2000/svg" xmlns:cc="http://creativecommons.org/ns#" xmlns:dc="http://purl.org/dc/elements/1.1/" xmlns:rdf="http://www.w3.org/1999/02/22-rdf-syntax-ns#">
	<metadata id="a">
		<rdf:RDF>
			<cc:Work rdf:about="">
				<dc:format>image/svg+xml</dc:format>
				<dc:type rdf:resource="http://purl.org/dc/dcmitype/StillImage"/>
			</cc:Work>
		</rdf:RDF>
	</metadata>
	<defs>
		<style id="current-color-scheme" type="text/css">.ColorScheme-Text {color:#090d11;}.ColorScheme-Background{color:#ffffff;}</style>
	</defs>
	<path id="f" class="ColorScheme-Text" d="m9.0215 2c-1.1465 0-2.0488 0.19854-3.0352 0.66602-2.1206 1.0052-3.597 3.0168-3.9355 5.3633-0.067704 0.46936-0.067323 1.4142 0 1.9277 0.15726 1.1996 0.63378 2.3339 1.4004 3.334 0.27377 0.35714 0.90015 0.98936 1.2344 1.2441 1.0247 0.78115 2.2001 1.2702 3.4277 1.4277 0.39528 0.05072 1.4113 0.04277 1.8418-0.01367 1.2458-0.16331 2.5013-0.71009 3.4863-1.5176 0.35909-0.29435 0.90071-0.86163 1.1777-1.2363 0.93221-1.2609 1.3809-2.6176 1.3809-4.1719 0-1.1806-0.20207-2.0749-0.70117-3.1035-0.36897-0.76047-0.80081-1.3488-1.4434-1.9688-1.3338-1.2869-2.9796-1.9512-4.834-1.9512zm-0.021484 1.0605c1.0179 0.00104 1.7928 0.18325 2.6973 0.63672 0.59604 0.29885 1.0595 0.64356 1.5684 1.166 0.81624 0.83802 1.3337 1.8171 1.5742 2.9766 0.0908 0.43767 0.12587 1.4472 0.06641 1.9238-0.12346 0.98955-0.54341 2.0139-1.1602 2.832-0.22738 0.30165-0.77022 0.84905-1.084 1.0938-0.59006 0.46021-1.2011 0.77724-1.9512 1.0137-0.25737 0.08111-0.30048 0.08215-0.27734 0.0059 0.05255-0.17325 0.08879-0.40647 0.10156-0.64648 0.02024-0.38024 0.26083-0.98319 0.50195-1.2578 0.21209-0.24157 0.25361-0.43424 0.25781-1.2188 0.0035-0.64944 0.01029-0.72638 0.09375-1.0176 0.14206-0.4957 0.28904-0.84476 0.46094-1.0957 0.08736-0.12752 0.22735-0.35523 0.31055-0.50586 0.08319-0.15063 0.20317-0.35386 0.26758-0.45117 0.16824-0.25419 0.52747-0.60597 0.70508-0.68945 0.1985-0.093312 0.41786-0.34268 0.49024-0.56055 0.07438-0.22398 0.05227-0.57735-0.04492-0.70703-0.05727-0.076412-0.09349-0.091797-0.24023-0.091797-0.1344 0-0.19295-0.017409-0.25977-0.080078-0.09191-0.086206-0.1582-0.074705-0.1582 0.027344 0 0.080038-0.12255 0.23278-0.1582 0.19727-0.01484-0.014795-8.27e-4 -0.098738 0.0332-0.1875 0.12467-0.32533 0.16638-0.53399 0.14648-0.74418-0.03279-0.34656-0.24954-0.87577-0.36719-0.89844-0.02828-0.00545-0.18231 0.10018-0.3418 0.23438-0.83172 0.69983-1.4622 1.1793-1.9023 1.4453-0.21001 0.12694-0.21028 0.12682-0.56445 0.11914-0.41936-0.0091-0.48024 0.013456-1.1797 0.4375-0.24227 0.14686-0.51412 0.29537-0.60547 0.33008-0.091802 0.034889-0.38383 0.085684-0.65234 0.11328-0.55147 0.056677-0.69796 0.0898-0.9043 0.20898-0.20405 0.11788-0.2563 0.20605-0.21289 0.36328 0.042518 0.15393 0.26939 0.45764 0.54102 0.72461l0.20312 0.19922-0.1582 0.24414c-0.086936 0.13423-0.21618 0.38193-0.28906 0.55078-0.14486 0.33558-0.18586 0.40045-0.47461 0.75586-0.25017 0.30788-0.52622 0.75053-0.78516 1.2578-0.22143 0.43383-0.32789 0.54674-0.73438 0.7793-0.22723 0.13002-0.21898 0.13442-0.47656-0.25391-0.47169-0.71109-0.7973-1.5602-0.92773-2.418-0.06516-0.42864-0.064517-1.316 0.00195-1.7637 0.1014-0.68277 0.3618-1.431 0.7168-2.0605 0.48198-0.85485 1.3616-1.7349 2.2129-2.2148 0.93514-0.52723 1.8814-0.77448 2.959-0.77344z" style="fill-opacity:.75;fill:currentColor"/>
</svg>
