<?xml version="1.0" encoding="UTF-8"?>
<svg id="c" width="18" height="18" version="1.1" xmlns="http://www.w3.org/2000/svg" xmlns:cc="http://creativecommons.org/ns#" xmlns:dc="http://purl.org/dc/elements/1.1/" xmlns:rdf="http://www.w3.org/1999/02/22-rdf-syntax-ns#">
	<metadata id="a">
		<rdf:RDF>
			<cc:Work rdf:about="">
				<dc:format>image/svg+xml</dc:format>
				<dc:type rdf:resource="http://purl.org/dc/dcmitype/StillImage"/>
			</cc:Work>
		</rdf:RDF>
	</metadata>
	<defs>
		<style id="current-color-scheme" type="text/css">.ColorScheme-Text {color:#090d11;}.ColorScheme-Background{color:#ffffff;}</style>
	</defs>
	<path id="b" class="ColorScheme-Text" d="m3 2c-0.554 0-1 0.446-1 1v9c0 0.554 0.446 1 1 1h4l2 2 2-2h4c0.554 0 1-0.446 1-1v-9c0-0.554-0.446-1-1-1zm1.5 2h1c0.27614 0 0.5 0.22386 0.5 0.5s-0.22386 0.5-0.5 0.5h-1c-0.27614 0-0.5-0.22386-0.5-0.5s0.22386-0.5 0.5-0.5zm3 0h5.75c0.27614 0 0.5 0.22386 0.5 0.5s-0.22386 0.5-0.5 0.5h-5.75c-0.27614 0-0.5-0.22386-0.5-0.5s0.22386-0.5 0.5-0.5zm-3 3h1c0.27614 0 0.5 0.22386 0.5 0.5s-0.22386 0.5-0.5 0.5h-1c-0.27614 0-0.5-0.22386-0.5-0.5s0.22386-0.5 0.5-0.5zm3 0h5.75c0.27614 0 0.5 0.22386 0.5 0.5s-0.22386 0.5-0.5 0.5h-5.75c-0.27614 0-0.5-0.22386-0.5-0.5s0.22386-0.5 0.5-0.5zm-3 3h1c0.27614 0 0.5 0.22386 0.5 0.5s-0.22386 0.5-0.5 0.5h-1c-0.27614 0-0.5-0.22386-0.5-0.5s0.22386-0.5 0.5-0.5zm3 0h5.75c0.27614 0 0.5 0.22386 0.5 0.5s-0.22386 0.5-0.5 0.5h-5.75c-0.27614 0-0.5-0.22386-0.5-0.5s0.22386-0.5 0.5-0.5z" style="fill-opacity:.75;fill:currentColor"/>
</svg>
