<?xml version="1.0" encoding="UTF-8"?>
<!-- Created with Inkscape (http://www.inkscape.org/) -->
<svg width="18" height="18" version="1.1" xml:space="preserve" xmlns="http://www.w3.org/2000/svg" xmlns:cc="http://creativecommons.org/ns#" xmlns:dc="http://purl.org/dc/elements/1.1/" xmlns:rdf="http://www.w3.org/1999/02/22-rdf-syntax-ns#"><defs><style id="current-color-scheme" type="text/css">.ColorScheme-Text {color:#090d11;}.ColorScheme-Background{color:#ffffff;}</style></defs><metadata><rdf:RDF><cc:Work rdf:about=""><dc:format>image/svg+xml</dc:format><dc:type rdf:resource="http://purl.org/dc/dcmitype/StillImage"/></cc:Work></rdf:RDF></metadata><path id="h" class="ColorScheme-Background" d="m9 0.8125c-4.5145 0-8.1875 3.673-8.1875 8.1875s3.673 8.1875 8.1875 8.1875 8.1875-3.673 8.1875-8.1875-3.673-8.1875-8.1875-8.1875zm0 1.1875c3.866 0 7 3.134 7 7s-3.134 7-7 7-7-3.134-7-7 3.134-7 7-7zm-2.2188 2.5625c-0.28086 0.14134-0.53388 0.31376-0.78125 0.5v7.875c0.24737 0.18624 0.50039 0.35866 0.78125 0.5l6.75-3.375 0.40625-0.1875c0.05109-0.28668 0.0625-0.57363 0.0625-0.875s-0.01141-0.58832-0.0625-0.875l-0.40625-0.1875-6-3zm0.21875 1.4375 6 3-6 3z" style="fill-opacity:.5;fill:currentColor"/><path id="e" class="ColorScheme-Text" d="m9 2c-3.866 0-7 3.134-7 7s3.134 7 7 7 7-3.134 7-7-3.134-7-7-7zm0 2c2.7614 0 5 2.2386 5 5s-2.2386 5-5 5-5-2.2386-5-5 2.2386-5 5-5zm-2 2v6l6-3z" style="fill-opacity:.75;fill:currentColor"/></svg>
