<?xml version="1.0" encoding="UTF-8"?>
<!-- Created with Inkscape (http://www.inkscape.org/) -->
<svg width="18" height="18" version="1.1" xmlns="http://www.w3.org/2000/svg" xmlns:cc="http://creativecommons.org/ns#" xmlns:dc="http://purl.org/dc/elements/1.1/" xmlns:rdf="http://www.w3.org/1999/02/22-rdf-syntax-ns#">
	<defs>
		<style id="current-color-scheme" type="text/css">.ColorScheme-Text {color:#090d11;}.ColorScheme-Background{color:#ffffff;}</style>
	</defs>
	<metadata>
		<rdf:RDF>
			<cc:Work rdf:about="">
				<dc:format>image/svg+xml</dc:format>
				<dc:type rdf:resource="http://purl.org/dc/dcmitype/StillImage"/>
			</cc:Work>
		</rdf:RDF>
	</metadata>
	<path id="c" class="ColorScheme-Background" d="m9.9707 1c-0.07181 0.002091-0.14319 0.011913-0.21289 0.029297l-8 2c-0.44549 0.11124-0.75799 0.51154-0.75781 0.9707v10c-1.8154e-4 0.45917 0.31233 0.85946 0.75781 0.9707l8 2c0.63123 0.15748 1.2424-0.32012 1.2422-0.9707v-1h2c0.73443 0 1.2656-0.47772 1.6133-1.0801 0.1223 0.05213 0.25377 0.07935 0.38672 0.08008h1c0.55226-5.5e-5 0.99994-0.44774 1-1v-2c-2.45e-4 -0.17561-0.04672-0.34806-0.13477-0.5 0.08804-0.15194 0.13452-0.32439 0.13477-0.5v-2c-2.45e-4 -0.17561-0.04672-0.34806-0.13477-0.5 0.08804-0.15194 0.13452-0.32439 0.13477-0.5v-2c-5.5e-5 -0.55226-0.44774-0.99994-1-1h-0.41992c-0.35725-0.56123-0.87658-1-1.5801-1h-3v-1c1.84e-4 -0.56391-0.46563-1.0165-1.0293-1zm0.029297 1v14l-8-2v-10zm1 2h3c0.554 0 1 0.446 1 1h1v2h-2v6c0 0.554-0.446 1-1 1h-2v-1h2v-1h-2v-1h2v-1h-2v-1h2v-1h-2v-1h2v-1h-2zm-7 3v4h1v-3l2 3h1v-4h-1v2.5l-1.5-2.5zm11 1h1v2h-1zm0 3h1v2h-1z" style="fill-opacity:.5;fill:currentColor"/>
	<path id="d" class="ColorScheme-Text" d="m10 2-8 2v10l8 2zm1 2v2h2v1h-2v1h2v1h-2v1h2v1h-2v1h2v1h-2v1h2c0.554 0 1-0.446 1-1v-6h2v-2h-1c0-0.554-0.446-1-1-1zm-7 3h1.5l1.5 2.5v-2.5h1v4h-1l-2-3v3h-1zm11 1v2h1v-2zm0 3v2h1v-2z" style="fill-opacity:.75;fill:currentColor"/>
</svg>
