<?xml version="1.0" encoding="UTF-8"?>
<svg id="d" width="18" height="18" version="1.1" xmlns="http://www.w3.org/2000/svg" xmlns:cc="http://creativecommons.org/ns#" xmlns:dc="http://purl.org/dc/elements/1.1/" xmlns:rdf="http://www.w3.org/1999/02/22-rdf-syntax-ns#">
	<metadata id="a">
		<rdf:RDF>
			<cc:Work rdf:about="">
				<dc:format>image/svg+xml</dc:format>
				<dc:type rdf:resource="http://purl.org/dc/dcmitype/StillImage"/>
			</cc:Work>
		</rdf:RDF>
	</metadata>
	<defs id="c">
		<style id="current-color-scheme" type="text/css">.ColorScheme-Text {color:#090d11;}.ColorScheme-Background{color:#ffffff;}</style>
	</defs>
	<path id="e" class="ColorScheme-Text" d="m3 2c-0.554 0-1 0.446-1 1v8c0 0.554 0.446 1 1 1h1v4l5-4h6c0.554 0 1-0.446 1-1v-8c0-0.554-0.446-1-1-1zm2.5 3h6c0.277 0 0.5 0.223 0.5 0.5s-0.223 0.5-0.5 0.5h-6c-0.277 0-0.5-0.223-0.5-0.5s0.223-0.5 0.5-0.5zm0 3h4c0.277 0 0.5 0.20661 0.5 0.46289v0.074219c0 0.25628-0.223 0.46289-0.5 0.46289h-4c-0.277 0-0.5-0.20661-0.5-0.46289v-0.074219c0-0.25628 0.223-0.46289 0.5-0.46289zm4.5 4.8008 4 3.1992v-3.1992z" style="fill:currentColor;opacity:.75"/>
	<path id="b" class="ColorScheme-Background" d="m3 1c-1.0907 0-2 0.9093-2 2v8c0 1.0907 0.9093 2 2 2v3c-3.499e-4 0.83887 0.97005 1.3054 1.625 0.78125l4.6094-3.6875c0.00406 0.17215 0.052495 0.34034 0.14062 0.48828l4 3.1992c0.65495 0.52416 1.6254 0.05762 1.625-0.78125v-3c1.0907 0 2-0.9093 2-2v-8c0-1.0907-0.9093-2-2-2zm0 1h12c0.554 0 1 0.446 1 1v8c0 0.554-0.446 1-1 1h-6l-5 4v-4h-1c-0.554 0-1-0.446-1-1v-8c0-0.554 0.446-1 1-1zm2.5 3c-0.277 0-0.5 0.223-0.5 0.5s0.223 0.5 0.5 0.5h6c0.277 0 0.5-0.223 0.5-0.5s-0.223-0.5-0.5-0.5zm0 3c-0.277 0-0.5 0.20661-0.5 0.46289v0.074219c0 0.25628 0.223 0.46289 0.5 0.46289h4c0.277 0 0.5-0.20661 0.5-0.46289v-0.074219c0-0.25628-0.223-0.46289-0.5-0.46289zm4.5 4.8008h4v3.1992z" style="fill:currentColor;opacity:.5"/>
</svg>
