<?xml version="1.0" encoding="UTF-8"?>
<svg id="a" width="18" height="18" version="1.1" xmlns="http://www.w3.org/2000/svg" xmlns:cc="http://creativecommons.org/ns#" xmlns:dc="http://purl.org/dc/elements/1.1/" xmlns:rdf="http://www.w3.org/1999/02/22-rdf-syntax-ns#">
	<metadata id="c">
		<rdf:RDF>
			<cc:Work rdf:about="">
				<dc:format>image/svg+xml</dc:format>
				<dc:type rdf:resource="http://purl.org/dc/dcmitype/StillImage"/>
				<dc:title/>
			</cc:Work>
		</rdf:RDF>
	</metadata>
	<defs id="j">
		<style id="current-color-scheme" type="text/css">.ColorScheme-Text {color:#090d11;}.ColorScheme-Background{color:#ffffff;}</style>
	</defs>
	<path id="b" class="ColorScheme-Text" d="m8.9621 4.0175c-2.6105 0.020581-4.6436 1.9013-4.8837 4.4329-0.042908 0.45255 0.0030696 0.98761 0.11671 1.4043-0.22729-0.53034-0.34084-0.88952-0.34084-1.4956 0-0.56821 0.055845-1.1218 0.24525-1.6143-1.6668 0.22729-2.0806 2.3411-2.0806 3.9506 0 1.7495 1.3999 3.2188 3.1494 3.2888h8.6426c1.1897-0.03499 2.2044-1.0849 2.2044-2.2746 0-0.83978-0.03672-1.7279-0.54941-2.2405-0.11364 0.68186-0.63202 0.79893-1.1623 1.0262 0.56821-0.37882 0.90856-1.0231 0.90856-1.7428 0-1.0228-0.5392-1.8942-1.5241-2.0457 0.16534 0.61707 0.17242 0.74347 0.04729 1.2447-0.22204-2.0663-2.295-3.9342-4.7732-3.9342zm0.073275 0.93768c2.2608 0 4.1007 1.8442 4.1007 4.1079s-1.8401 4.1073-4.1007 4.1073c-2.2608 0-4.1007-1.8436-4.1007-4.1073s1.8401-4.1079 4.1007-4.1079zm1e-7 1.0784c-1.6733 0-3.023 1.3523-3.023 3.0295s1.3498 3.0289 3.023 3.0289c1.6733 0 3.023-1.3517 3.023-3.0289s-1.3498-3.0295-3.023-3.0295zm-0.5777 1h1.17c0.7348 0 1.3652 0.59487 1.3652 1.3646 0 1.1042-0.59538 1.5973-1.3652 1.5973h-0.70629v0.60708c0 0.24493-0.21883 0.41962-0.46376 0.41962s-0.52141-0.17468-0.52141-0.41962v-3.1488c0-0.24493 0.27647-0.42013 0.52141-0.42013zm0.46376 0.98211v0.98013h0.66015c0.24493-0.034991 0.41962-0.2166 0.41962-0.56303 0-0.27997-0.17468-0.3821-0.41962-0.4171z" style="fill-opacity:.75;fill:currentColor"/>
	<path id="ao" class="ColorScheme-Background" d="m8.9531 3.0176a1.0001 1.0001 0 0 0-0.35352 0.068359c-1.925 0.13146-3.5425 1.1482-4.5273 2.6602a1.0001 1.0001 0 0 0-0.10742 0.00781c-1.2336 0.16822-2.0633 1.1159-2.4551 2.0684-0.39176 0.95243-0.49023 1.9826-0.49023 2.873 0 2.283 1.8226 4.1976 4.1094 4.2891a1.0001 1.0001 0 0 0 0.039063 0h8.6426a1.0001 1.0001 0 0 0 0.0293 0c1.7606-0.05178 3.1758-1.5171 3.1758-3.2754 0-0.85462 0.04179-2.0006-0.81641-2.8984 4e-4 -0.020616 0.01367-0.037925 0.01367-0.058594 0-0.68712-0.1774-1.362-0.57617-1.9258-0.36232-0.51222-0.96953-0.85045-1.6328-1.0059-0.99442-1.6432-2.8776-2.8027-5.041-2.8027a1.0001 1.0001 0 0 0-0.00781 0h-0.00195zm0.00977 1c2.4782 0 4.5494 1.8673 4.7715 3.9336 0.12513-0.50126 0.11847-0.62707-0.04687-1.2441 0.98493 0.15152 1.5254 1.0221 1.5254 2.0449 0 0.71976-0.34195 1.3653-0.91016 1.7441 0.53032-0.22728 1.0504-0.34548 1.1641-1.0273 0.51269 0.51269 0.54883 1.4005 0.54883 2.2402 0 1.1897-1.0154 2.2404-2.2051 2.2754h-8.6426c-1.7494-0.07-3.1484-1.5396-3.1484-3.2891 1e-7 -1.6095 0.41329-3.7239 2.0801-3.9512-0.1894 0.49248-0.24609 1.047-0.24609 1.6152 0 0.6061 0.11451 0.96575 0.3418 1.4961-0.11364-0.41669-0.1601-0.95174-0.11719-1.4043 0.24003-2.5316 2.2742-4.413 4.8848-4.4336zm0.072266 0.9375c-2.2607 0-4.0996 1.8437-4.0996 4.1074s1.8388 4.1074 4.0996 4.1074c2.2607 0 4.1016-1.8437 4.1016-4.1074s-1.8407-4.1074-4.1016-4.1074zm0 1.0781c1.6732 0 3.0234 1.3521 3.0234 3.0293s-1.3501 3.0293-3.0234 3.0293c-1.6732 0-3.0234-1.3521-3.0234-3.0293s1.3501-3.0293 3.0234-3.0293zm-0.57812 1c-0.24494 0-0.52148 0.17499-0.52148 0.41992v3.1504c0 0.24494 0.27655 0.41797 0.52148 0.41797s0.46484-0.17304 0.46484-0.41797v-0.60742h0.70508c0.76977-1e-7 1.3652-0.49342 1.3652-1.5977 0-0.76977-0.63044-1.3652-1.3652-1.3652h-1.1699zm0.46484 0.98242h0.66016c0.24494 0.035002 0.41992 0.138 0.41992 0.41797 0 0.34643-0.17499 0.52751-0.41992 0.5625h-0.66016z" style="fill-opacity:.5;fill:currentColor"/>
</svg>
