<?xml version="1.0" encoding="UTF-8"?>
<svg id="g" width="18" height="18" version="1.1" xmlns="http://www.w3.org/2000/svg" xmlns:cc="http://creativecommons.org/ns#" xmlns:dc="http://purl.org/dc/elements/1.1/" xmlns:rdf="http://www.w3.org/1999/02/22-rdf-syntax-ns#">
	<metadata id="a">
		<rdf:RDF>
			<cc:Work rdf:about="">
				<dc:format>image/svg+xml</dc:format>
				<dc:type rdf:resource="http://purl.org/dc/dcmitype/StillImage"/>
			</cc:Work>
		</rdf:RDF>
	</metadata>
	<defs>
		<style id="current-color-scheme" type="text/css">.ColorScheme-Text {color:#090d11;}.ColorScheme-Background{color:#ffffff;}</style>
	</defs>
	<path id="f" class="ColorScheme-Text" d="m11.865 2 3.1351 12c0 0.27614 0.22386 0.5 0.5 0.5s0.5-0.22386 0.5-0.5v-11.5c-2.8e-5 -0.27613-0.22387-0.49997-0.5-0.5zm-1.3513 0.2207c-0.06537-0.00836-0.13175-0.00371-0.19531 0.013672l-7.2441 1.9414c-0.26618 0.071525-0.42429 0.34495-0.35352 0.61133l2.8477 10.625c0.071525 0.26618 0.34495 0.42429 0.61133 0.35352l7.2441-1.9414c0.26618-0.07152 0.42429-0.34495 0.35352-0.61133l-2.8457-10.625c-0.05209-0.19576-0.21713-0.34075-0.41797-0.36719zm-0.50609 1.3723 2.467 9.2089-5.9841 1.6031-2.467-9.2071z" style="fill-opacity:.75;fill:currentColor"/>
	<path id="h" class="ColorScheme-Background" d="m11.021 0.98633-9.1953 2.4629c-0.26715 0.071498-0.42554 0.34627-0.35352 0.61328l3.3691 12.576c0.071498 0.26715 0.34627 0.42554 0.61328 0.35352l9.1953-2.4648c0.26618-0.07153 0.42429-0.34495 0.35352-0.61133l-3.3711-12.576c-0.07152-0.26618-0.34495-0.42429-0.61133-0.35352zm2.2051 0.013672c-0.27614 0-0.5 0.22386-0.5 0.5s0.22386 0.5 0.5 0.5h2.7734v12.5c0 0.27614 0.22386 0.5 0.5 0.5s0.5-0.22386 0.5-0.5v-13c-2.8e-5 -0.27613-0.22387-0.49997-0.5-0.5zm-2.4297 1.082 3.1113 11.609-8.2285 2.2051-3.1113-11.609z" style="fill-opacity:.5;fill:currentColor"/>
</svg>
