<?xml version="1.0" encoding="UTF-8"?>
<svg id="i" width="18" height="18" version="1.1" xmlns="http://www.w3.org/2000/svg" xmlns:cc="http://creativecommons.org/ns#" xmlns:dc="http://purl.org/dc/elements/1.1/" xmlns:rdf="http://www.w3.org/1999/02/22-rdf-syntax-ns#">
	<metadata id="a">
		<rdf:RDF>
			<cc:Work rdf:about="">
				<dc:format>image/svg+xml</dc:format>
				<dc:type rdf:resource="http://purl.org/dc/dcmitype/StillImage"/>
				<dc:title/>
			</cc:Work>
		</rdf:RDF>
	</metadata>
	<defs id="d">
		<style id="current-color-scheme" type="text/css">.ColorScheme-Text {color:#090d11;}.ColorScheme-Background{color:#ffffff;}</style>
	</defs>
	<path id="b" class="ColorScheme-Text" d="m12.536 1.9522c-0.4053 0.00362-0.74936 0.05184-1.0426 0.10508 0.80232 0.36681 1.4179 0.90403 1.8544 1.4423 0.37672 0.46459 0.62785 0.9255 0.78093 1.2796 0.07653 0.17704 0.12856 0.3273 0.15866 0.44507 0.01505 0.058885 0.02514 0.10668 0.02884 0.16278 0.0018 0.028053 0.0056 0.057843-0.0062 0.10921-7.39e-4 0.0032-0.0053 0.00893-0.0062 0.012363 0.01315 0.5793-0.12811 0.97387-0.14836 1.5145-0.01172 0.39098 0.09285 0.86096 0.11951 1.3805 0.02461 0.47981-0.04247 1.0122-0.35647 1.533 0.0077 0.013343 0.01582 0.026535 0.02473 0.039149 0.84955-1.2976 1.4719-2.7248 1.7988-3.9438 0.17693-0.65968 0.27092-1.2571 0.2782-1.7267 0.0073-0.46957-0.08703-0.8048-0.19369-0.93546-0.9419-1.1587-2.2313-1.4271-3.2907-1.4176zm-3.1052 0.17514c-0.84825-0.013366-1.4462 0.2247-1.8957 0.58518-0.44948 0.36048-0.75082 0.85445-0.94989 1.362-0.23086 0.58862-0.30782 1.1134-0.34204 1.5103 0.2428-0.12651 0.54699-0.25193 0.87777-0.32556 0.17384-0.038693 0.3554-0.064242 0.53573-0.063875 0.18033 3.668e-4 0.35942 0.026649 0.53161 0.090662 0.34437 0.12803 0.634 0.43729 0.73766 0.89838 0.48543 2.1626-0.15764 2.9944-0.38531 3.5853-0.089903 0.23332-0.16193 0.4363-0.21017 0.60991 0.014969-0.0038 0.030407-0.0152 0.045331-0.01648 0.17127-0.01471 0.30466 0.04046 0.38119 0.07006a0.26356 0.26356 0 0 0 0.00206 0.0021c0.2425 0.09796 0.4101 0.30202 0.5007 0.53779 0.016409 0.0427 0.010276 0.09399 0.020605 0.14011a0.26356 0.26356 0 0 1 0.039149 0.15042c-0.025184 0.87643-0.021498 1.7565 0.010307 2.4664 0.0159 0.35495 0.038778 0.66738 0.067997 0.9128 0.0291 0.24442 0.071719 0.42931 0.094783 0.48628v0.0021c0.086495 0.2092 0.21268 0.47416 0.43682 0.65524 0.22464 0.18148 0.5488 0.30679 1.1518 0.18545 0.52089-0.10792 0.84047-0.25901 1.0509-0.46979 0.21072-0.21114 0.33712-0.5027 0.41828-0.95813 0.1218-0.6825 0.36748-2.6459 0.4018-3.0516v-0.0021c-1.37e-4 -0.0024 1.29e-4 -0.0039 0-0.0062-0.01694-0.29973 0.02793-0.53487 0.12981-0.71499 0.10323-0.18251 0.26264-0.29195 0.39768-0.35028 0.05486-0.0237 0.07409-0.02558 0.11951-0.03915-0.03864-0.05368-0.04768-0.0725-0.12363-0.16484-0.14007-0.17026-0.32007-0.40451-0.46156-0.73352-0.0121-0.028266-0.08177-0.15739-0.17308-0.31526-0.09131-0.15786-0.20662-0.35724-0.32762-0.58106-0.24201-0.44764-0.50682-0.99113-0.64494-1.5248-0.13812-0.53363-0.16017-1.0985 0.20193-1.498 0.30056-0.33163 0.93738-0.35785 1.6711-0.30907-0.02399-0.076263-0.0459-0.15069-0.09478-0.26374-0.13504-0.31233-0.36711-0.73659-0.70881-1.158-0.68341-0.84281-1.7879-1.6779-3.5049-1.704zm-4.8937 0.035028c-0.68939 0.038087-1.3369 0.23111-1.7968 0.70057-0.45989 0.46946-0.76391 1.2386-0.69645 2.5282 0.012672 0.23697 0.123 0.92841 0.3132 1.7452s0.45935 1.7771 0.78299 2.6251c0.32364 0.84795 0.71645 1.5847 1.0818 1.9266 0.18266 0.17094 0.33794 0.23668 0.47803 0.23078 0.1401-0.0059 0.3112-0.08319 0.52543-0.33174 0.65522-0.76163 1.1467-1.2579 1.2466-1.3599-0.58928-0.45703-0.94909-1.1972-0.82626-2.044 0.071171-0.48745 0.082322-0.94121 0.074178-1.3002-0.0074049-0.32649-0.026825-0.53095-0.030908-0.68408-6.963e-4 -0.00137-0.00138-0.00274-0.00206-0.00412-0.0025-0.017741-0.00319-0.035692-0.00206-0.053573v-0.00412c-3.6e-6 -0.00126 0-0.00494 0-0.00618-4.29e-5 -0.00274-4.29e-5 -0.00549 0-0.00824 8.44e-5 -0.00295 0.00193-0.00334 0.00206-0.00618-0.00105-0.038533-0.029225-1.1209 0.40798-2.2356 0.18659-0.47574 0.46838-0.95358 0.87159-1.3537-0.45448-0.15116-1.3662-0.42344-2.4293-0.36471zm8.8601 3.4925c-0.5214-0.00893-0.80166 0.11177-0.93753 0.26168-0.18116 0.19988-0.20085 0.55413-0.08243 1.0117 0.11843 0.45757 0.3668 0.97669 0.5996 1.4073 0.1164 0.21531 0.22775 0.40823 0.31938 0.56664 0.09163 0.1584 0.15826 0.26885 0.20193 0.37089 0.02919 0.067871 0.06288 0.11714 0.09478 0.17514 0.1492-0.33655 0.17452-0.66869 0.15661-1.0179-0.02354-0.45895-0.13622-0.93461-0.12157-1.4238a0.26356 0.26356 0 0 0 0 -0.00206c0.02008-0.54593 0.11376-0.909 0.13393-1.3167-0.12475-0.013081-0.26009-0.031175-0.36471-0.032968zm-5.7426 0.070057c-0.1314 1.647e-4 -0.27436 0.017417-0.41828 0.049451-0.28785 0.064069-0.57732 0.1832-0.78505 0.29465-0.10387 0.055725-0.18876 0.11068-0.23696 0.14836 0.00495 0.10348 0.025383 0.31875 0.032968 0.65318 0.00858 0.37873-0.00348 0.86221-0.08036 1.3888-0.16283 1.1225 0.71798 2.0187 1.7288 1.9822 0.060485-0.21744 0.064858-0.43402 0.15248-0.66142 0.28339-0.73546 0.82433-1.2327 0.36471-3.2803-0.0036397-0.01617-0.012528-0.019837-0.016484-0.035028-0.020477 0.068704-0.04773 0.11789-0.08036 0.1566-0.038268 0.045396-0.081947 0.085814-0.13599 0.12157-0.10809 0.071511-0.26009 0.12873-0.43476 0.10509-0.1735-0.023253-0.3026-0.11145-0.39562-0.20605-0.046508-0.047299-0.085451-0.095891-0.11539-0.15454-0.026989-0.052868-0.049167-0.12395-0.035028-0.22665l-0.00824-0.00206c6.751e-4 -0.00487 0.0053-0.00557 0.00618-0.010307 0.00106-0.00588-0.00343-0.0062-0.00206-0.012363l0.00824 0.00206c0.022789-0.096149 0.081938-0.17353 0.13599-0.21017 0.059237-0.040153 0.11398-0.057304 0.16896-0.070056 0.095643-0.022183 0.19715-0.018602 0.30289-0.00824-0.053407-0.00705-0.09781-0.0248-0.1566-0.024726zm5.3078 0.00412c0.11079-0.015007 0.21442-0.012279 0.30289 0.00824 0.04423 0.010265 0.08394 0.024608 0.12363 0.051512 0.03723 0.02524 0.07427 0.070851 0.08654 0.12981l0.0062-0.00206c7.39e-4 0.00372-0.0028 0.00466-0.0021 0.00824v0.00206c0.01068 0.06493-0.0056 0.11149-0.02679 0.15248-0.02264 0.043772-0.05429 0.084866-0.09272 0.12363-0.07687 0.077524-0.1853 0.14865-0.32144 0.1669h-0.0042c-0.13563 0.013984-0.2538-0.031474-0.33998-0.088601-0.04309-0.028563-0.07825-0.059307-0.10714-0.092723-0.02888-0.033416-0.05296-0.063918-0.06593-0.11745l-0.0021-0.00618v-0.00412c-0.01086-0.065126 0.01616-0.12563 0.04738-0.16278 0.03124-0.037154 0.06933-0.060957 0.10921-0.082419 0.07977-0.042924 0.17601-0.07159 0.28641-0.086541zm-5.0523 0.035026c0.048005 0.00868 0.090028 0.026909 0.13393 0.04121-0.014813-0.00648-0.023582-0.020995-0.039149-0.026787-0.026795-0.00996-0.06509-0.0073-0.094784-0.014424zm6.0434 5.0523c-0.0036 0.0012-0.0089 0.0071-0.01237 0.0082-0.1049 0.03538-0.18514 0.04968-0.25138 0.0783-0.06625 0.02862-0.10924 0.05653-0.14836 0.12569-0.03559 0.06289-0.0606 0.19565-0.05564 0.39355 0.01479 0.0084 0.02747 0.0166 0.06799 0.02884 0.11341 0.03429 0.30772 0.05732 0.52543 0.05563 0.43541-0.0033 0.97463-0.10174 1.2528-0.22666h0.0021c0.24186-0.10821 0.33794-0.21594 0.47804-0.32968-0.79042 0.13039-1.3538 0.12867-1.6587 0.0062-0.09537-0.03831-0.13711-0.0912-0.19987-0.14011zm-5.5345 0.07212c-0.029505 0.0025-0.07303 0.0076-0.17102 0.11333a0.26356 0.26356 0 0 1 -0.032968 0.03091c-0.00167 0.0019-0.00248 0.0022-0.00412 0.0041-0.20705 0.23217-0.30036 0.39558-0.49246 0.54191-0.20435 0.15566-0.46407 0.23355-0.97667 0.33586-0.13147 0.02599-0.14771 0.04538-0.21017 0.07006 0.063632 0.02876 0.13415 0.0561 0.19369 0.07006a0.26356 0.26356 0 0 0 0.00206 0c0.21944 0.05274 0.57637 0.11456 0.94783 0.05357 0.37145-0.06099 0.75368-0.23148 1.0818-0.67584 0.021726-0.02935 0.032945-0.06635 0.037088-0.10715 2.927e-4 -0.01095-3.012e-4 -0.01995 0-0.03091-4.598e-4 -0.04109-0.00599-0.08517-0.024726-0.13392-0.042849-0.11149-0.14021-0.20803-0.20399-0.23488-0.07557-0.02922-0.11679-0.03962-0.1463-0.03709z" style="fill-opacity:.75;fill:currentColor"/>
	<path id="c" class="ColorScheme-Background" d="m12.527 0.95312a1.0001 1.0001 0 0 0 -0.15234 0.015625c-0.40354 0.014817-0.77716 0.054017-1.0605 0.10547a1.0001 1.0001 0 0 0 -0.61523 0.37695c-0.41919-0.11026-0.75943-0.31676-1.25-0.32422a1.0001 1.0001 0 0 0 -0.00195 0c-0.77457-0.012205-1.3313 0.30268-1.8848 0.59766a1.0001 1.0001 0 0 0 -0.2793 -0.14648c-0.4933-0.16408-1.5363-0.48392-2.8008-0.41406-0.84077 0.04645-1.7627 0.29326-2.4551 1-0.6878 0.70212-1.0592 1.8124-0.98242 3.2793a1.0001 1.0001 0 0 0 0 0.00195c0.02366 0.44245 0.1388 1.0629 0.33789 1.918 0.19819 0.85119 0.47676 1.8435 0.82422 2.7539 0.35095 0.91952 0.70452 1.7135 1.332 2.3008 0.2957 0.27673 0.71992 0.52038 1.2031 0.5 0.34175-0.01439 0.61963-0.26586 0.89648-0.49024a1.0001 1.0001 0 0 0 0.48242 0.46875c0.098468 0.04451 0.20507 0.091 0.37305 0.13086 0.00184 4.37e-4 0.00205 0.0015 0.00391 2e-3a1.0001 1.0001 0 0 0 0.12305 0.01953c0.29144 0.06379 0.703 0.13124 1.2168 0.04687 0.15826-0.02599 0.31838-0.23623 0.49023-0.30273 0.00398 0.32474-0.00897 0.69502 0.00391 0.98242 0.016645 0.37158 0.038512 0.70282 0.072266 0.98633 0.017826 0.14973 0.041094 0.28043 0.064453 0.39453 0.00956 0.04671 0.030328 0.10318 0.039062 0.14258a1.0001 1.0001 0 0 0 0.060547 0.21484c0.10379 0.25104 0.28006 0.68534 0.73242 1.0508 0.41542 0.3356 1.177 0.54995 1.9785 0.38867a1.0001 1.0001 0 0 0 0.0059 -2e-3c0.62288-0.12905 1.1554-0.34211 1.5547-0.74219 0.39465-0.39542 0.59562-0.93083 0.69531-1.4902 0.09941-0.55705 0.20345-1.4708 0.29492-2.2441 0.0838 0.0039 0.16597 0.03196 0.25781 0.03125 0.53914-0.0041 1.0397-0.06843 1.541-0.27148a1.0001 1.0001 0 0 0 0.11328 -0.04102c0.37758-0.16894 0.62729-0.40682 0.70117-0.4668a1.0001 1.0001 0 0 0 -0.79297 -1.7637c-0.40216 0.066343-0.43409 0.042562-0.63281 0.037109 0.74301-1.2401 1.3772-2.5372 1.6914-3.709 0.19311-0.72001 0.3014-1.3809 0.31055-1.9707 0.0095-0.61084 0.03587-1.026-0.41797-1.582-1.0817-1.3298-2.5502-1.6829-3.7441-1.7305a1.0001 1.0001 0 0 0 -0.31641 -0.054688v0.00195c-0.0041 2.85e-5 -0.0096-0.00199-0.01367-0.00195zm0.0098 1c1.0594-0.00945 2.3472 0.25729 3.2891 1.416 0.10666 0.13066 0.20261 0.46598 0.19531 0.93555s-0.10236 1.0669-0.2793 1.7266c-0.32687 1.219-0.94928 2.6477-1.7988 3.9453-0.0089-0.012614-0.01769-0.02572-0.02539-0.039062 0.314-0.52078 0.38203-1.0534 0.35742-1.5332-0.02666-0.51957-0.13086-0.98988-0.11914-1.3809 0.02025-0.54059 0.16159-0.93632 0.14844-1.5156 9e-4 -0.00343 0.0051-0.00852 0.0059-0.011719 0.0118-0.051363 0.0077-0.081322 0.0059-0.10938-0.0037-0.056097-0.01425-0.10322-0.0293-0.16211-0.0301-0.11777-0.08167-0.26828-0.1582-0.44531-0.15308-0.35407-0.40452-0.8147-0.78125-1.2793-0.43651-0.53832-1.0512-1.0766-1.8535-1.4434 0.29326-0.053244 0.63766-0.099897 1.043-0.10352zm-3.1055 0.17383h0.00195c1.717 0.026088 2.8205 0.86227 3.5039 1.7051 0.3417 0.4214 0.57395 0.84587 0.70898 1.1582 0.04888 0.11306 0.07171 0.18741 0.0957 0.26367-0.73368-0.048778-1.3713-0.023035-1.6719 0.30859-0.3621 0.39953-0.33929 0.96442-0.20117 1.498 0.13812 0.53363 0.40252 1.0777 0.64453 1.5254 0.121 0.22382 0.23681 0.42222 0.32812 0.58008s0.15978 0.28619 0.17188 0.31445c0.14148 0.32901 0.32282 0.56411 0.46289 0.73438 0.07595 0.09234 0.08441 0.11038 0.12305 0.16406-0.04542 0.01357-0.06428 0.01536-0.11914 0.03906-0.13504 0.05833-0.29521 0.16906-0.39844 0.35156-0.10188 0.18012-0.14585 0.41512-0.12891 0.71484 1.29e-4 0.0023-1.37e-4 0.0035 0 0.0059v2e-3c-0.03432 0.40572-0.28054 2.3702-0.40234 3.0527-0.08116 0.45543-0.20725 0.7459-0.41797 0.95703-0.21038 0.21079-0.5299 0.36278-1.0508 0.4707-0.60301 0.12134-0.92771-0.0041-1.1523-0.18555-0.22415-0.18108-0.351-0.44705-0.4375-0.65625v-2e-3c-0.023064-0.05697-0.06465-0.2419-0.09375-0.48633-0.029219-0.24542-0.052459-0.55716-0.068359-0.91211-0.031805-0.70989-0.03495-1.5904-0.00977-2.4668a0.26356 0.26356 0 0 0 -0.039062 -0.15039c-0.010329-0.04613-0.00508-0.09792-0.021484-0.14062-0.090601-0.23577-0.2575-0.43915-0.5-0.53711a0.26356 0.26356 0 0 0 -0.00195 -2e-3c-0.076532-0.029538-0.20959-0.084965-0.38086-0.07026-0.014924 0.00128-0.031906 0.011815-0.046875 0.015625 0.048242-0.17361 0.12103-0.37606 0.21094-0.60938 0.22767-0.59087 0.8702-1.4233 0.38477-3.5859-0.10365-0.46109-0.39196-0.77041-0.73633-0.89844-0.17218-0.064013-0.35288-0.089477-0.5332-0.089844-0.18033-3.67e-4 -0.36131 0.02576-0.53516 0.064453-0.33078 0.073624-0.63416 0.1977-0.87695 0.32422 0.034217-0.39693 0.11093-0.92115 0.3418-1.5098 0.19907-0.50754 0.49974-1.0008 0.94922-1.3613 0.44948-0.36048 1.0482-0.5993 1.8965-0.58594zm-4.8945 0.035156c1.0631-0.058733 1.9752 0.21407 2.4297 0.36523-0.4032 0.40016-0.6845 0.87777-0.87109 1.3535-0.4372 1.1147-0.40926 2.1978-0.4082 2.2363-1.3e-4 0.00284-0.00187 0.00291-0.00195 0.00586-4.29e-5 0.00275-4.29e-5 0.00507 0 0.00781 0 0.00124-3.6e-6 0.0046 0 0.00586v0.00391c-0.00113 0.017881-5.469e-4 0.036946 0.00195 0.054688 6.8e-4 0.00138 0.00126 0.00254 0.00195 0.00391 0.00408 0.15314 0.023845 0.3571 0.03125 0.68359 0.00814 0.35897-0.00305 0.81333-0.074219 1.3008-0.12283 0.84677 0.23689 1.5859 0.82617 2.043-0.099863 0.102-0.59087 0.5997-1.2461 1.3613-0.21422 0.24855-0.38529 0.32418-0.52539 0.33008s-0.29586-0.05953-0.47852-0.23047c-0.36531-0.34188-0.75839-1.0778-1.082-1.9258-0.32364-0.84795-0.59301-1.8082-0.7832-2.625-0.19019-0.81683-0.29983-1.5091-0.3125-1.7461-0.067463-1.2896 0.23542-2.0579 0.69531-2.5273 0.45989-0.46946 1.1075-0.66308 1.7969-0.70117zm8.8613 3.4922c0.10462 0.00179 0.23853 0.020122 0.36328 0.033203-0.02017 0.40766-0.11273 0.77047-0.13281 1.3164a0.26356 0.26356 0 0 0 0 0.00195c-0.01465 0.48919 0.09755 0.96487 0.12109 1.4238 0.01791 0.34919-0.0071 0.68298-0.15625 1.0195-0.0319-0.058-0.06651-0.10791-0.0957-0.17578-0.04367-0.10203-0.10954-0.21269-0.20117-0.37109-0.09162-0.1584-0.20391-0.35109-0.32031-0.56641-0.2328-0.43062-0.48118-0.95063-0.59961-1.4082-0.11842-0.45757-0.09717-0.81184 0.08398-1.0117 0.13587-0.14991 0.4161-0.27065 0.9375-0.26172zm-5.7441 0.070312c0.058788-7.4e-5 0.1048 0.018341 0.1582 0.025391-0.10574-0.010362-0.20904-0.01437-0.30469 0.00781-0.054982 0.012752-0.10873 0.03016-0.16797 0.070312-0.054051 0.036637-0.11393 0.11479-0.13672 0.21094l-0.00781-0.00391c-0.00137 0.00616 0.00301 0.00779 0.00195 0.013672-8.8e-4 0.00474-0.00518 0.0049-0.00586 0.00977l0.00781 0.00195c-0.014139 0.1027 0.00817 0.17369 0.035156 0.22656 0.029937 0.058646 0.068727 0.107 0.11523 0.1543 0.093014 0.094598 0.22298 0.18378 0.39648 0.20703 0.17467 0.023648 0.3255-0.033957 0.43359-0.10547 0.054045-0.035756 0.098451-0.075698 0.13672-0.12109 0.03263-0.038705 0.059601-0.087546 0.080078-0.15625 0.00396 0.015192 0.013938 0.018987 0.017578 0.035156 0.45963 2.0476-0.081845 2.5438-0.36523 3.2793-0.087619 0.22739-0.091858 0.44467-0.15234 0.66211-1.0108 0.03653-1.8913-0.8599-1.7285-1.9824 0.07688-0.52657 0.088658-1.0099 0.080078-1.3887-0.00759-0.33443-0.028253-0.55082-0.033203-0.6543 0.048198-0.03768 0.13246-0.092713 0.23633-0.14844 0.20773-0.11145 0.49731-0.2289 0.78516-0.29297 0.14392-0.032034 0.28657-0.050616 0.41797-0.050781zm5.3086 0.00391c-0.11039 0.014951-0.20734 0.044967-0.28711 0.087891-0.03988 0.021462-0.07813 0.044877-0.10938 0.082031-0.03122 0.037154-0.05773 0.096983-0.04687 0.16211v0.00391l2e-3 0.00586c0.01297 0.05353 0.03753 0.085725 0.06641 0.11914 0.02889 0.033416 0.06433 0.063234 0.10742 0.091797 0.08618 0.057127 0.20421 0.10187 0.33984 0.087891h4e-3c0.13614-0.018246 0.2454-0.088492 0.32227-0.16602 0.03843-0.038764 0.06916-0.079275 0.0918-0.12305 0.02119-0.040991 0.03802-0.087414 0.02734-0.15234v-0.00195c-7e-4 -0.00358 0.0027-0.00605 2e-3 -0.00977l-0.0059 0.00195c-0.01227-0.05896-0.05066-0.10367-0.08789-0.12891-0.03969-0.026904-0.07882-0.040516-0.12305-0.050781-0.08847-0.020519-0.19195-0.024773-0.30273-0.00977zm-5.0527 0.035156c0.029694 0.00712 0.068908 0.00566 0.095703 0.015625 0.015567 0.00579 0.02425 0.018911 0.039062 0.025391-0.043939-0.014305-0.086796-0.03234-0.1348-0.04102zm6.043 5.0527c0.06276 0.04892 0.1058 0.10231 0.20117 0.14062 0.3049 0.12249 0.86778 0.12453 1.6582-0.0059-0.1401 0.11373-0.23666 0.21991-0.47852 0.32813h-2e-3c-0.27815 0.12492-0.81654 0.22326-1.252 0.22656-0.2177 0.0017-0.41198-0.0204-0.52539-0.05469-0.04052-0.01224-0.05357-0.0209-0.06836-0.0293-5e-3 -0.1979 0.0191-0.32969 0.05469-0.39258 0.03912-0.06916 0.08219-0.09834 0.14844-0.12695 0.06624-0.02862 0.14706-0.04274 0.25195-0.07813 0.0035-0.0012 0.0081-0.0066 0.01172-0.0078zm-5.5332 0.07227c0.029506-0.0025 0.070914 0.0079 0.14648 0.03711 0.063782 0.02685 0.16028 0.12288 0.20312 0.23437 0.018736 0.04875 0.024931 0.09368 0.025391 0.13477-3.012e-4 0.01096 2.927e-4 0.0203 0 0.03125-0.00414 0.0408-0.015383 0.07612-0.037109 0.10547-0.32808 0.44436-0.71058 0.61479-1.082 0.67578-0.37145 0.06099-0.72782 6e-6 -0.94727-0.05273a0.26356 0.26356 0 0 0 -0.00195 0c-0.059541-0.01396-0.13168-0.04155-0.19531-0.07031 0.062458-0.02468 0.079463-0.04432 0.21094-0.07031 0.5126-0.10231 0.77221-0.18028 0.97656-0.33594 0.19209-0.14633 0.28514-0.30884 0.49219-0.54102 0.00164-0.0019 0.00224-2e-3 0.00391-0.0039a0.26356 0.26356 0 0 0 0.033203 -0.03125c0.097991-0.10572 0.14237-0.11075 0.17188-0.11328z" style="fill-opacity:.5;fill:currentColor"/>
</svg>
