<?xml version="1.0" encoding="UTF-8" standalone="no"?>
<svg
   xmlns:dc="http://purl.org/dc/elements/1.1/"
   xmlns:cc="http://creativecommons.org/ns#"
   xmlns:rdf="http://www.w3.org/1999/02/22-rdf-syntax-ns#"
   xmlns:svg="http://www.w3.org/2000/svg"
   xmlns="http://www.w3.org/2000/svg"
   width="18"
   height="18"
   version="1.1"
   id="svg22">
  <defs
     id="defs4">
    <style
       id="current-color-scheme"
       type="text/css">.ColorScheme-Text {color:#090d11;}.ColorScheme-Background{color:#ffffff;}</style>
  </defs>
  <metadata
     id="metadata14">
    <rdf:RDF>
      <cc:Work
         rdf:about="">
        <dc:format>image/svg+xml</dc:format>
        <dc:type
           rdf:resource="http://purl.org/dc/dcmitype/StillImage" />
        <dc:title></dc:title>
      </cc:Work>
    </rdf:RDF>
  </metadata>
  <path
     d="M 9.7266,2.002 C 9.642442,2.01609 9.5753,2.05308 9.54496,2.11723 c 0,0 -2.4627,4.2154 -3.3984,6.459 l 2.2148,0.96094 c 1.2921,-2.216 2.084,-7.1406 2.084,-7.1406 C 10.38876,2.12639 9.97909,1.95977 9.72661,2.00204 Z M 11,4 v 2 h 3 V 4 Z m -0.56055,3 -0.81641,7.3145 h 5.7539 L 14.56053,7 Z m -4.7207,2.373 0.24609,0.28906 -0.16602,0.10938 -0.3418,2.0156 1.1914,0.48242 1.3223,-1.5879 -0.039062,-0.18945 0.39062,-0.01953 c -0.46689,-0.40836 -1.9283,-1.124 -2.6035,-1.0996 z m -0.49023,3.0703 c -0.62499,-0.02456 -1.2732,0.29287 -1.502,0.98828 -0.44068,1.3398 -1.0332,2.584 -1.0332,2.584 2.3372,-0.61682 4.2188,-0.82455 3.8926,-2.5039 -0.13142,-0.67666 -0.73243,-1.0438 -1.3574,-1.0684 z m 3.7715,2.5566 v 1 h 7 v -1 z"
     id="path16"
     style="fill:currentColor;fill-opacity:0.75"
     class="ColorScheme-Text" />
  <path
     d="m 9.8594,0.9902344 c -0.093244,-5.514e-4 -0.19279,0.00764 -0.29883,0.025391 -0.27918,0.04674 -0.70684,0.22895 -0.91797,0.67188 0,0 -0.00195,0.00195 -0.00195,0.00195 -0.055934,0.095158 -2.4253,4.1217 -3.418,6.502 a 1.0001,1.0001 0 0 0 -0.074219,0.36133 1.0001,1.0001 0 0 0 -0.35938,1.1875 l -0.31836,1.8788996 a 1.0001,1.0001 0 0 0 -0.00391,0.03906 c -0.72755,0.21089 -1.4156,0.62847 -1.6895,1.4609 -0.41496,1.2616 -0.98633,2.4668 -0.98633,2.4668 a 1.0001,1.0001 0 0 0 1.1582,1.3965 c 1.1314,-0.29858 2.1954,-0.48404 3.1152,-0.91602 0.45992,-0.215989 0.91566,-0.51604 1.2266,-1.0098 0.31091,-0.49372 0.39394,-1.1361 0.27734,-1.7363 -0.028519,-0.146839 -0.16324,-0.21104 -0.2168,-0.341799 a 1.0001,1.0001 0 0 0 0.064453,-0.06836 l 1.2461,-1.496101 a 1.0001,1.0001 0 0 0 0.29688,-0.17187 l -0.31445,2.8242 a 1.0001,1.0001 0 0 0 -0.64453,0.93359 v 1 a 1.0001,1.0001 0 0 0 1,1 h 7 a 1.0001,1.0001 0 0 0 1,-1 v -1 a 1.0001,1.0001 0 0 0 -0.64453,-0.93359 l -0.80078,-7.1776996 a 1.0001,1.0001 0 0 0 -0.56055,-0.78906 1.0001,1.0001 0 0 0 0.0059,-0.099609 v -2 a 1.0001,1.0001 0 0 0 -1,-1 h -2.6562 c 0.01004,-0.059502 0.08984,-0.44531 0.08984,-0.44531 a 1.0001,1.0001 0 0 0 -0.0098,-0.36328 c -0.11908,-0.5686 -0.50348,-0.84732 -0.81836,-1.0039 -0.23616,-0.11744 -0.46636,-0.19561 -0.74609,-0.19727 z m -0.13281,1.0117 c 0.25248,-0.042269 0.66215,0.12435 0.71875,0.39453 0,0 -0.79188,4.9246 -2.084,7.1406 l -2.2148,-0.96094 c 0.93571,-2.2436 3.3984,-6.459 3.3984,-6.459 0.030343,-0.064154 0.097483,-0.10114 0.18164,-0.11523 z m 1.2734,1.998 h 3 v 2 h -3 z m -0.56055,3 h 4.1211 l 0.81641,7.3144996 h -5.7539 l 0.81641,-7.3144996 z m -4.7207,2.373 c 0.67526,-0.024391 2.1366,0.6912496 2.6035,1.0995996 l -0.39062,0.01953 0.039062,0.18945 -1.3223,1.5879 -1.1914,-0.48242 0.3418,-2.0155996 0.16602,-0.10938 -0.24609,-0.28906 z M 5.22851,12.443234 c 0.62499,0.02456 1.226,0.3917 1.3574,1.0684 0.32618,1.6794 -1.5554,1.8871 -3.8926,2.5039 0,0 0.59252,-1.2442 1.0332,-2.584 0.22873,-0.69541 0.87696,-1.0128 1.502,-0.98828 z m 3.7715,2.5566 h 7 v 1 h -7 z"
     id="path20"
     style="fill:currentColor;fill-opacity:0.5"
     class="ColorScheme-Background" />
</svg>
