<?xml version="1.0" encoding="UTF-8" standalone="no"?>
<!-- Created with Inkscape (http://www.inkscape.org/) -->

<svg
   xmlns:dc="http://purl.org/dc/elements/1.1/"
   xmlns:cc="http://creativecommons.org/ns#"
   xmlns:rdf="http://www.w3.org/1999/02/22-rdf-syntax-ns#"
   xmlns:svg="http://www.w3.org/2000/svg"
   xmlns="http://www.w3.org/2000/svg"
   xmlns:sodipodi="http://sodipodi.sourceforge.net/DTD/sodipodi-0.dtd"
   xmlns:inkscape="http://www.inkscape.org/namespaces/inkscape"
   version="1.1"
   width="18"
   height="18"
   id="svg2"
   inkscape:version="0.92.2 5c3e80d, 2017-08-06"
   sodipodi:docname="playonlinux.svg">
  <sodipodi:namedview
     pagecolor="#ffffff"
     bordercolor="#666666"
     borderopacity="1"
     objecttolerance="10"
     gridtolerance="10"
     guidetolerance="10"
     inkscape:pageopacity="0"
     inkscape:pageshadow="2"
     inkscape:window-width="1920"
     inkscape:window-height="1033"
     id="namedview6"
     showgrid="true"
     inkscape:zoom="29.5"
     inkscape:cx="4.8432557"
     inkscape:cy="8.4163609"
     inkscape:window-x="-10"
     inkscape:window-y="25"
     inkscape:window-maximized="1"
     inkscape:current-layer="svg2"
     inkscape:snap-global="true">
    <inkscape:grid
       type="xygrid"
       id="grid2982"
       empspacing="5"
       visible="true"
       enabled="true"
       snapvisiblegridlinesonly="true" />
  </sodipodi:namedview>
  <defs
     id="defs4" />
  <metadata
     id="metadata7">
    <rdf:RDF>
      <cc:Work
         rdf:about="">
        <dc:format>image/svg+xml</dc:format>
        <dc:type
           rdf:resource="http://purl.org/dc/dcmitype/StillImage" />
        <dc:title></dc:title>
      </cc:Work>
    </rdf:RDF>
  </metadata>
  <path
     id="path842"
     d="M 3.4955151,3.5037289 C 2.1810364,4.8182075 1.1350118,6.7361989 2.5747422,7.8838538 4.0144725,9.0315088 6.6619876,8.1192432 9.0029415,9.0111557 8.1110291,6.6702011 9.0232956,4.0226862 7.8756406,2.5829559 6.7279854,1.1432256 4.8099938,2.1892501 3.4955151,3.5037289 Z"
     style="color:#000000;display:inline;overflow:visible;visibility:visible;opacity:1;vector-effect:none;fill:#27303a;fill-opacity:0.44285715;fill-rule:evenodd;stroke:none;stroke-width:0.99999994;stroke-linecap:butt;stroke-linejoin:miter;stroke-miterlimit:4;stroke-dasharray:none;stroke-dashoffset:0;stroke-opacity:1;marker:none;enable-background:accumulate"
     inkscape:connector-curvature="0" />
  <path
     id="path844"
     d="M 10.353982,2.3420061 C 10.27656,2.4131483 10.20197,2.4929715 10.130243,2.5829559 8.9825884,4.0226862 9.894854,6.6702011 9.0029415,9.0111557 11.343896,8.1192432 13.991411,9.0315097 15.431141,7.8838538 16.870871,6.7361989 15.824847,4.8182075 14.510369,3.5037289 13.278044,2.2714049 11.515314,1.2748958 10.353982,2.3420061 Z"
     style="color:#000000;display:inline;overflow:visible;visibility:visible;opacity:1;vector-effect:none;fill:#27303a;fill-opacity:0.65857143;fill-rule:evenodd;stroke:none;stroke-width:0.99999994;stroke-linecap:butt;stroke-linejoin:miter;stroke-miterlimit:4;stroke-dasharray:none;stroke-dashoffset:0;stroke-opacity:1;marker:none;enable-background:accumulate"
     inkscape:connector-curvature="0" />
  <path
     id="path846"
     d="m 9.0029415,9.0111557 c 0.8919125,2.3409533 -0.020354,4.9884693 1.1273015,6.4281993 1.147655,1.43973 3.065647,0.393706 4.380126,-0.920773 1.314478,-1.314479 2.360502,-3.23247 0.920772,-4.380125 C 13.991411,8.9908016 11.343896,9.9030672 9.0029415,9.0111557 Z"
     style="color:#000000;display:inline;overflow:visible;visibility:visible;opacity:1;vector-effect:none;fill:#27303a;fill-opacity:0.55428569;fill-rule:evenodd;stroke:none;stroke-width:0.99999994;stroke-linecap:butt;stroke-linejoin:miter;stroke-miterlimit:4;stroke-dasharray:none;stroke-dashoffset:0;stroke-opacity:1;marker:none;enable-background:accumulate"
     inkscape:connector-curvature="0" />
  <path
     style="color:#000000;font-style:normal;font-variant:normal;font-weight:normal;font-stretch:normal;font-size:medium;line-height:normal;font-family:sans-serif;font-variant-ligatures:normal;font-variant-position:normal;font-variant-caps:normal;font-variant-numeric:normal;font-variant-alternates:normal;font-feature-settings:normal;text-indent:0;text-align:start;text-decoration:none;text-decoration-line:none;text-decoration-style:solid;text-decoration-color:#000000;letter-spacing:normal;word-spacing:normal;text-transform:none;writing-mode:lr-tb;direction:ltr;text-orientation:mixed;dominant-baseline:auto;baseline-shift:baseline;text-anchor:start;white-space:normal;shape-padding:0;clip-rule:nonzero;display:inline;overflow:visible;visibility:visible;opacity:1;isolation:auto;mix-blend-mode:normal;color-interpolation:sRGB;color-interpolation-filters:linearRGB;solid-color:#000000;solid-opacity:1;vector-effect:none;fill:#f1f3f5;fill-opacity:0.90288714;fill-rule:evenodd;stroke:none;stroke-width:1.99999988;stroke-linecap:butt;stroke-linejoin:miter;stroke-miterlimit:4;stroke-dasharray:none;stroke-dashoffset:0;stroke-opacity:1;marker:none;color-rendering:auto;image-rendering:auto;shape-rendering:auto;text-rendering:auto;enable-background:accumulate;font-variant-east_asian:normal"
     d="M 6.2578125 0.89648438 C 4.8585395 0.9994775 3.7079904 1.877947 2.7890625 2.796875 C 2.0536789 3.5322586 1.3726684 4.4228963 1.0488281 5.4589844 C 0.7249879 6.4950725 0.92649811 7.8492157 1.9511719 8.6660156 C 2.1963339 8.8614422 2.4781652 8.8954855 2.7421875 9.0117188 C 2.4781652 9.1279519 2.1963339 9.1619953 1.9511719 9.3574219 C 1.8241168 9.4586886 1.7053009 9.5684018 1.5976562 9.6855469 C 0.78840022 10.566257 0.76604062 11.803282 1.1132812 12.755859 C 1.4605219 13.708437 2.0994875 14.536988 2.7890625 15.226562 C 3.5244461 15.961946 4.4133674 16.643473 5.4492188 16.966797 C 6.4850699 17.290121 7.8397596 17.086785 8.65625 16.0625 C 8.8519704 15.816969 8.8875554 15.535922 9.0039062 15.271484 C 9.120178 15.535718 9.1540263 15.817142 9.3496094 16.0625 C 10.1661 17.086785 11.520789 17.290121 12.556641 16.966797 C 13.592492 16.643473 14.481413 15.961947 15.216797 15.226562 C 15.95218 14.491179 16.633191 13.600541 16.957031 12.564453 C 17.280872 11.528365 17.07936 10.174222 16.054688 9.3574219 C 15.809837 9.1622441 15.52928 9.1278915 15.265625 9.0117188 C 15.52928 8.8955459 15.809838 8.8611935 16.054688 8.6660156 C 17.07936 7.8492155 17.280871 6.4950723 16.957031 5.4589844 C 16.633191 4.4228964 15.95218 3.5322585 15.216797 2.796875 C 14.527408 2.107487 13.700225 1.468418 12.748047 1.1210938 C 11.795868 0.77376939 10.558239 0.79640189 9.6777344 1.6054688 C 9.5605648 1.7131346 9.4508473 1.8319773 9.3496094 1.9589844 C 9.1537779 2.2046546 9.1202381 2.4873529 9.0039062 2.7519531 C 8.8874495 2.4868796 8.8524077 2.2050637 8.65625 1.9589844 C 8.043909 1.1908044 7.0965166 0.8347518 6.2578125 0.89648438 z M 6.3320312 1.8945312 C 6.90661 1.8522396 7.4446293 2.0421324 7.875 2.5820312 C 9.022655 4.0217616 8.1119939 6.6707641 9.0039062 9.0117188 C 9.8958188 6.6707641 8.9832052 4.0217615 10.130859 2.5820312 C 10.202586 2.4920468 10.276094 2.4129391 10.353516 2.3417969 C 11.514848 1.2746866 13.277441 2.2715823 14.509766 3.5039062 C 15.824244 4.8183848 16.871371 6.7371107 15.431641 7.8847656 C 13.991911 9.0324215 11.344861 8.1198061 9.0039062 9.0117188 C 11.344861 9.9036303 13.991911 8.9910164 15.431641 10.138672 C 16.871371 11.286327 15.824244 13.205052 14.509766 14.519531 C 13.195287 15.83401 11.278514 16.879183 10.130859 15.439453 C 8.9832046 13.999723 9.8958188 11.352672 9.0039062 9.0117188 C 8.1119939 11.352672 9.022655 13.999723 7.875 15.439453 C 6.7273448 16.879183 4.8105724 15.83401 3.4960938 14.519531 C 2.2637693 13.287207 1.2668744 11.522659 2.3339844 10.361328 C 2.4051266 10.283907 2.4842348 10.210392 2.5742188 10.138672 C 4.0139491 8.9910165 6.6629524 9.9036301 9.0039062 9.0117188 C 6.6629523 8.1198061 4.013949 9.0324206 2.5742188 7.8847656 C 1.1344883 6.7371107 2.1816151 4.8183848 3.4960938 3.5039062 C 4.3176429 2.682357 5.3744 1.9650174 6.3320312 1.8945312 z "
     id="path952" />
  <path
     id="path848"
     d="m 2.3337923,10.362196 c -1.06711,1.161331 -0.070601,2.924062 1.1617228,4.156386 1.3144787,1.314479 3.2324703,2.360503 4.3801255,0.920773 1.147655,-1.43973 0.2353885,-4.087246 1.1273009,-6.4281993 -2.3409539,0.8919115 -4.988469,-0.020354 -6.4281993,1.1273013 -0.089984,0.07172 -0.1698077,0.146318 -0.2409499,0.223739 z"
     style="color:#000000;display:inline;overflow:visible;visibility:visible;opacity:1;vector-effect:none;fill:#27303a;fill-opacity:0.75328082;fill-rule:evenodd;stroke:none;stroke-width:0.99999994;stroke-linecap:butt;stroke-linejoin:miter;stroke-miterlimit:4;stroke-dasharray:none;stroke-dashoffset:0;stroke-opacity:1;marker:none;enable-background:accumulate"
     inkscape:connector-curvature="0" />
</svg>
