<?xml version="1.0" encoding="UTF-8"?>
<svg id="d" width="18" height="18" version="1.1" xmlns="http://www.w3.org/2000/svg" xmlns:cc="http://creativecommons.org/ns#" xmlns:dc="http://purl.org/dc/elements/1.1/" xmlns:rdf="http://www.w3.org/1999/02/22-rdf-syntax-ns#">
	<metadata id="a">
		<rdf:RDF>
			<cc:Work rdf:about="">
				<dc:format>image/svg+xml</dc:format>
				<dc:type rdf:resource="http://purl.org/dc/dcmitype/StillImage"/>
			</cc:Work>
		</rdf:RDF>
	</metadata>
	<defs id="c">
		<style id="current-color-scheme" type="text/css">.ColorScheme-Text {color:#090d11;}.ColorScheme-Background{color:#ffffff;}</style>
	</defs>
	<path id="e" class="ColorScheme-Text" d="m3 3c-0.554 0-1 0.446-1 1v10c0 0.554 0.446 1 1 1h2v-1h-2v-7h12v7h-2v1h2c0.554 0 1-0.446 1-1v-10c0-0.554-0.446-1-1-1zm1 1c0.5523 0 1 0.4477 1 1s-0.4477 1-1 1-1-0.4477-1-1 0.4477-1 1-1zm3 0c0.5523 0 1 0.4477 1 1s-0.4477 1-1 1-1-0.4477-1-1 0.4477-1 1-1zm3 0c0.5523 0 1 0.4477 1 1s-0.4477 1-1 1-1-0.4477-1-1 0.4477-1 1-1zm-1.002 4c-0.26909 6.37e-5 -0.4029 0.01928-0.43359 0.03125-0.015029 0.00588-0.020299 0.0078698-0.03125 0.021484-0.011378 0.014143-0.029419 0.040894-0.064453 0.10156-0.062844 0.10884-0.11925 0.21438-0.17773 0.31641-0.029243 0.051015-0.058021 0.10181-0.087891 0.15039h-0.00195c-0.08961 0.14575-0.18493 0.27944-0.30078 0.39453-0.052524 0.052183-0.10934 0.10061-0.17188 0.14453-0.00609 0.00426-0.011376 0.00752-0.017578 0.011719v0.00195c-0.00867 0.00583-0.018452 0.011915-0.027344 0.017578-0.014849 0.00949-0.029429 0.018338-0.044922 0.027344h-0.00195c-0.00131 7.584e-4 -0.0026 0.0012-0.00391 0.00195-0.049383 0.028373-0.098084 0.053492-0.14844 0.074219-9.691e-4 3.994e-4 -0.00296-3.95e-4 -0.00391 0-0.024813 0.010125-0.04915 0.020802-0.074219 0.029297-9.845e-4 3.346e-4 -0.00293-3.286e-4 -0.00391 0-0.02506 0.00843-0.048884 0.016498-0.074219 0.023437-0.00102 2.792e-4 -0.00288 0.00168-0.00391 0.00195-0.023051 0.00626-0.04702 0.00853-0.070313 0.013672-0.18862 0.041687-0.3849 0.051366-0.59375 0.050781-0.11796-3.351e-4 -0.23901-0.00391-0.36523-0.00391-0.067576-1.1e-6 -0.10092-4.875e-4 -0.11914 0.00195-0.018431 0.00238-0.022816 0.00959-0.035156 0.019531h-0.00195c-0.01926 0.015428-0.070712 0.079329-0.15234 0.20898-0.027212 0.04322-0.058056 0.093908-0.091797 0.15234-0.06748 0.11688-0.11426 0.20475-0.14453 0.26953-0.030274 0.06478-0.044314 0.10483-0.046875 0.12109-0.00249 0.01627-0.00485 0.02369 0.00195 0.04102 0.00678 0.01733 0.022262 0.04593 0.056641 0.10547 0.15218 0.26362 0.29924 0.49797 0.39648 0.74414h0.00586c0.06324 0.16088 0.10531 0.32776 0.10547 0.51172-1.626e-4 0.18471-0.041736 0.35215-0.10547 0.51367h-0.00781c-0.097242 0.24522-0.24287 0.47951-0.39453 0.74219-0.034381 0.05954-0.049836 0.08814-0.056641 0.10547-0.0068 0.01733-0.0045 0.0228-0.00195 0.03906 0.00124 0.0082 0.00607 0.02293 0.013672 0.04297 0.00771 0.01993 0.017943 0.04392 0.033203 0.07617v2e-3c0.030294 0.06478 0.077053 0.1546 0.14453 0.27148 0.033578 0.05816 0.064678 0.10731 0.091797 0.15039v2e-3c0.081649 0.12967 0.13313 0.19358 0.15234 0.20898h0.00195c0.00602 0.0048 0.00886 0.0092 0.013672 0.01172h0.00195c0.00484 0.0027 0.010757 0.0046 0.019531 0.0059 0.01819 0.0027 0.04891 2e-3 0.11914 2e-3 0.18893-2.3e-5 0.36789-0.0048 0.53906 0h0.00195c0.056815 0.0016 0.11278 0.0032 0.16797 0.0078 0.055172 0.0046 0.11036 0.0106 0.16406 0.01953 0.053701 0.0089 0.10775 0.02081 0.16016 0.03516 0.026047 0.0072 0.052371 0.01668 0.078125 0.02539 0.025763 0.0088 0.052631 0.01883 0.078125 0.0293 0.025501 0.01051 0.050922 0.02081 0.076172 0.0332h0.00195c0.025263 0.01239 0.049185 0.02657 0.074219 0.04102 0.30101 0.17473 0.47884 0.44196 0.6543 0.74805 0.058485 0.10203 0.11489 0.20952 0.17773 0.31836 0.034458 0.05951 0.05119 0.08716 0.0625 0.10156 0.011306 0.0144 0.017831 0.01547 0.033203 0.02148 0.030692 0.01195 0.16558 0.03125 0.43555 0.03125 0.067101 0 0.12687-0.0019 0.17773-0.0039 0.051068-2e-3 0.093279-0.0046 0.12891-0.0078 0.071248-0.0062 0.11354-0.01348 0.12891-0.01953 0.01532-6e-3 0.022112-0.0071 0.033203-0.02148 0.011306-0.0144 0.02804-0.04205 0.0625-0.10156 0.25137-0.43538 0.43069-0.83344 0.83203-1.0664 0.30327-0.17483 0.62299-0.19436 0.97656-0.19336 0.11795 3.35e-4 0.23902 2e-3 0.36523 2e-3 0.13554 3e-6 0.12878 9.32e-4 0.1543-0.01953h2e-3c0.02562-0.02055 0.10918-0.12756 0.24414-0.36133 0.06748-0.11689 0.11423-0.2067 0.14453-0.27148v-2e-3c0.03053-0.06454 0.04432-0.10287 0.04687-0.11914 0.0023-0.01626 5e-3 -0.02174-2e-3 -0.03906-0.0068-0.01733-0.0242-0.04593-0.05859-0.10547-0.15167-0.26278-0.29534-0.49893-0.39258-0.74414h-0.0078c-0.06365-0.16151-0.10531-0.32701-0.10547-0.51172 1.62e-4 -0.18395 0.04221-0.35083 0.10547-0.51172h0.0059c0.09726-0.24617 0.2443-0.48053 0.39648-0.74414 0.03438-0.05954 0.04987-0.08814 0.05664-0.10547 0.0071-0.01733 0.0046-0.02475 2e-3 -0.04102-0.0023-0.01626-0.01633-0.05632-0.04687-0.12109-0.03034-0.064676-0.07706-0.15265-0.14453-0.26953-0.13496-0.23376-0.21847-0.34077-0.24414-0.36133h-2e-3c-0.0061-0.00488-0.0089-0.01088-0.01367-0.013672h-2e-3c-0.01501-0.0085-0.03552-0.00781-0.13867-0.00781-0.06287 0-0.1209 0.00126-0.18164 0.00195-0.06063 7.02e-4 -0.12493 0.00179-0.18359 0.00195-0.05912 1.725e-4 -0.11653-3.357e-4 -0.17383-0.00195-0.05649-0.00158-0.11309-0.00521-0.16797-0.00977h-0.0019c-0.05451-0.00472-0.10708-0.01104-0.16016-0.019706-0.03525-0.00578-0.07075-0.01344-0.10547-0.021484-0.04469-0.010355-0.089-0.02235-0.13281-0.037109-0.0258-0.00867-0.0526-0.018898-0.07813-0.029297-0.05134-0.020987-0.10201-0.045302-0.15234-0.074219 0-4.24e-4 -0.0027-0.00123-0.0039-0.00195h-2e-3c-0.0096-0.00552-0.01807-0.011874-0.02734-0.017578-0.0396-0.024372-0.07583-0.05059-0.11133-0.078125-0.02171-0.016834-0.0441-0.032845-0.06445-0.050781-0.02031-0.017958-0.03945-0.037638-0.05859-0.056641-0.11576-0.11509-0.21117-0.24879-0.30078-0.39453h-0.001965c-0.089346-0.14543-0.17162-0.30396-0.26562-0.4668-0.035034-0.06067-0.053075-0.087414-0.064453-0.10156-0.00544-0.00693-0.00892-0.010892-0.013672-0.013672-0.00474-0.00266-0.010446-0.00504-0.017578-0.00781h-0.00195c-0.00747-0.0029197-0.020657-0.0063897-0.041016-0.0097697h-0.00195c-0.042098-0.00691-0.11164-0.015571-0.21289-0.019531-0.050947-0.00199-0.11046-0.00193-0.17773-0.00195h-0.00195zm-0.091797 1.6152h0.1875c0.043945 0.078216 0.087963 0.15574 0.13867 0.23828 7.5e-6 1.22e-5 0.00657 0.00972 0.00977 0.013672 0.063072 0.10147 0.13361 0.20448 0.23047 0.30078 0.013603 0.0135 0.032857 0.03227 0.056641 0.05273 0.016985 0.01461 0.033862 0.03029 0.052734 0.04492 0.035931 0.02787 0.073536 0.05153 0.11719 0.07813 0.055249 0.03366 0.1088 0.05837 0.15234 0.07617 0.020032 0.0082 0.042405 0.01666 0.068359 0.02539 0.045622 0.01537 0.085858 0.02594 0.11719 0.0332 0.02192 0.0051 0.05066 0.01148 0.08789 0.01758 0.04186 0.0068 0.08473 0.01193 0.12891 0.01563 2.3e-5 2e-6 3e-3 -1.9e-5 0.0039 0 0.04131 0.0034 0.08266 0.0067 0.12305 0.0078 0.04099 0.0012 0.08239 1.2e-4 0.12305 0 0.03747-1.07e-4 0.07805 4.73e-4 0.11914 0 0.01313-1.51e-4 0.02488 1.75e-4 0.03711 0l0.0957 0.16797c-0.08219 0.14005-0.16784 0.27812-0.23438 0.44531-0.0021 0.0015-0.0057 0.0024-0.0078 0.0039-0.05134 0.13056-0.0897 0.28283-0.08984 0.44922 1.48e-4 0.1673 0.0402 0.31845 0.0918 0.44922 0.0021 0.0015 0.0037 0.0045 0.0059 0.0059 0.06638 0.16619 0.15244 0.30369 0.23438 0.44336l-0.0957 0.16797c-0.05174-5.17e-4 -0.10467-0.0019-0.1582-2e-3 -0.24015-7.17e-4 -0.51917 0.01125-0.79102 0.16797l-0.00195 2e-3c-0.33201 0.19276-0.47356 0.48514-0.61328 0.73633l-0.18945-2e-3c-0.024869-0.0443-0.04964-0.08847-0.076172-0.13477-0.1191-0.20783-0.2705-0.44258-0.54102-0.59961-0.016819-0.0097-0.037654-0.02297-0.066406-0.03711v-2e-3h-0.00195c-0.023758-0.01169-0.047563-0.02073-0.068359-0.0293-0.021896-0.0091-0.044391-0.01921-0.068359-0.02734h-0.00391c-0.019297-0.0065-0.041135-0.0126-0.066406-0.01953l-0.00195-2e-3c-0.043508-0.01187-0.087048-0.02172-0.13281-0.0293-2.6e-6 0-0.00359 2.4e-5 -0.00391 0-0.043488-0.0071-0.086624-0.01204-0.12891-0.01563-0.042952-0.0036-0.086059-0.0046-0.12695-0.0059-0.097155-0.0027-0.18835-9.88e-4 -0.2793 0l-0.095763-0.1678c0.081915-0.13966 0.168-0.27717 0.23438-0.44336 0.00215-0.0014 0.00375-0.0045 0.00586-0.0059 0.05159-0.13068 0.091649-0.28192 0.091797-0.44922-1.466e-4 -0.16641-0.038509-0.31866-0.089844-0.44922-0.00213-0.0016-0.00566-0.0024-0.00781-0.0039-0.066516-0.16727-0.15218-0.30526-0.23438-0.44531l0.095703-0.16797c0.052156 5.22e-4 0.10426-1.59e-4 0.1582 0 0.14404 4.02e-4 0.29263-4e-3 0.45117-0.03906 7.289e-4 -1.61e-4 0.021584-0.0031 0.060547-0.01367 0.00203-5.49e-4 0.00225 4.47e-4 0.00391 0 0.0082-0.0022 0.014724-0.0056 0.015625-0.0059 0.017442-0.0051 0.034766-0.01024 0.050781-0.01563h0.00195c0.012427-0.0042 0.024697-9e-3 0.037109-0.01367-3.402e-4 1.2e-4 0.010201-0.0048 0.017578-0.0078 0.00541-0.0022 0.00576-0.0018 0.015625-0.0059 0.04457-0.01835 0.088585-0.03909 0.13281-0.06445h0.00195l0.00391-0.0039c0.018619-0.01079 0.032691-0.01808 0.041012-0.0234v-0.0019c-0.00137 9.09e-4 0.00599-0.0019 0.023438-0.01367v-0.0019c0.00409-0.0028 0.00113-1.7e-5 0.00391-2e-3 0.00942-0.0066 0.018955-0.01347 0.013672-0.0098 0.055388-0.0389 0.10762-0.08253 0.1543-0.12891 0.099885-0.09924 0.17394-0.20618 0.23828-0.31055l0.00195-0.00195v-0.00195c0.021741-0.035347 0.042809-0.069163 0.0625-0.10352 0.026533-0.046286 0.051339-0.090538 0.076172-0.13477zm0.09375 1.3848a0.61593 0.62132 0 0 0-0.61523 0.62109 0.61593 0.62132 0 0 0 0.61523 0.62109 0.61593 0.62132 0 0 0 0.61523-0.62109 0.61593 0.62132 0 0 0-0.61523-0.62109z" style="fill:currentColor;opacity:.75"/>
</svg>
