<?xml version="1.0" encoding="UTF-8"?>
<!-- Created with Inkscape (http://www.inkscape.org/) -->
<svg width="18" height="18" version="1.1" xmlns="http://www.w3.org/2000/svg" xmlns:cc="http://creativecommons.org/ns#" xmlns:dc="http://purl.org/dc/elements/1.1/" xmlns:rdf="http://www.w3.org/1999/02/22-rdf-syntax-ns#">
	<defs>
		<style id="current-color-scheme" type="text/css">.ColorScheme-Text {color:#090d11;}.ColorScheme-Background{color:#ffffff;}</style>
	</defs>
	<metadata>
		<rdf:RDF>
			<cc:Work rdf:about="">
				<dc:format>image/svg+xml</dc:format>
				<dc:type rdf:resource="http://purl.org/dc/dcmitype/StillImage"/>
			</cc:Work>
		</rdf:RDF>
	</metadata>
	<path class="ColorScheme-Text" d="m8.5 2a6.5 6.5 0 0 0-6.4609 6h2.9609c0-1.0994 0.90065-2 2-2h3c1.0994 0 2 0.90065 2 2h2.9785a6.5 6.5 0 0 0-6.4785-6zm-1.5 5c-0.56265 0-1 0.43735-1 1h1a0.5 0.5 0 0 1 0.5 0.5 0.5 0.5 0 0 1-0.5 0.5h-1c0 0.56265 0.43735 1 1 1h3c0.56265 0 1-0.43735 1-1h-1a0.5 0.5 0 0 1-0.5-0.5 0.5 0.5 0 0 1 0.5-0.5h1c0-0.56265-0.43735-1-1-1zm-4.9609 2a6.5 6.5 0 0 0 6.4609 6 6.5 6.5 0 0 0 6.4609-6h-2.9609c0 1.0994-0.90065 2-2 2h-3c-1.0994 0-2-0.90065-2-2z" style="fill-opacity:.75;fill:currentColor"/>
	<path class="ColorScheme-Background" d="m8.5 1c-4.1441 0-7.5 3.3562-7.5 7.5 1.3e-6 4.1441 3.3562 7.5 7.5 7.5 4.1441-2e-6 7.5-3.3562 7.5-7.5 7.14e-4 -4.0915-3.4088-7.5014-7.5-7.5zm0 1a6.5 6.5 0 0 1 6.4785 6h-2.9785c0-1.0994-0.90065-2-2-2h-3c-1.0994 0-2 0.90065-2 2h-2.9609a6.5 6.5 0 0 1 6.4609-6zm-1.5 5h3c0.56265 0 1 0.43735 1 1h-1a0.5 0.5 0 0 0-0.5 0.5 0.5 0.5 0 0 0 0.5 0.5h1c0 0.56265-0.43735 1-1 1h-3c-0.56265 0-1-0.43735-1-1h1a0.5 0.5 0 0 0 0.5-0.5 0.5 0.5 0 0 0-0.5-0.5h-1c0-0.56265 0.43735-1 1-1zm-4.9609 2h2.9609c0 1.0994 0.90065 2 2 2h3c1.0994 0 2-0.90065 2-2h2.9609a6.5 6.5 0 0 1-6.4609 6 6.5 6.5 0 0 1-6.4609-6z" style="fill-opacity:.5;fill:currentColor"/>
</svg>
