<?xml version="1.0" encoding="UTF-8"?>
<!-- Created with Inkscape (http://www.inkscape.org/) -->
<svg width="18" height="18" version="1.1" xmlns="http://www.w3.org/2000/svg" xmlns:cc="http://creativecommons.org/ns#" xmlns:dc="http://purl.org/dc/elements/1.1/" xmlns:rdf="http://www.w3.org/1999/02/22-rdf-syntax-ns#" xmlns:xlink="http://www.w3.org/1999/xlink">
	<defs>
		<radialGradient id="b" cx="-3384.1" cy="2107.7" r="6.9883" gradientTransform="matrix(0,1.3195,-1.3268,-1.6104e-5,2805.2,4475.7)" gradientUnits="userSpaceOnUse">
			<stop stop-color="#213851" stop-opacity=".9059" offset="0"/>
			<stop stop-color="#27303a" stop-opacity="0" offset="1"/>
		</radialGradient>
		<radialGradient id="a" cx="13.06" cy="17.68" r="10" gradientTransform="matrix(0,1.8,-1.5,0,34.577,-19.734)" gradientUnits="userSpaceOnUse">
			<stop stop-color="#ffffff" stop-opacity=".74858" offset="0"/>
			<stop stop-color="#ffffff" stop-opacity=".60511" offset="1"/>
		</radialGradient>
		<radialGradient id="e" cx="5.2172" cy="9.2172" r=".81785" gradientTransform="translate(1,1)" gradientUnits="userSpaceOnUse" xlink:href="#a"/>
		<radialGradient id="d" cx="-10.206" cy="9.1506" r=".81785" gradientTransform="translate(-1,1)" gradientUnits="userSpaceOnUse" xlink:href="#a"/>
		<radialGradient id="c" cx="13.06" cy="17.68" r="10" gradientTransform="matrix(0,1.8,-1.5,0,35.577,-18.734)" gradientUnits="userSpaceOnUse" xlink:href="#a"/>
	</defs>
	<metadata>
		<rdf:RDF>
			<cc:Work rdf:about="">
				<dc:format>image/svg+xml</dc:format>
				<dc:type rdf:resource="http://purl.org/dc/dcmitype/StillImage"/>
				<dc:title/>
			</cc:Work>
		</rdf:RDF>
	</metadata>
	<path d="m3.9336 4c-0.71473 0-0.93359 0.59454-0.93359 1.9355-0.54164 0.31013-0.83332 0.75702-0.94531 1.4062-0.037328 0.21641-0.054688 0.45476-0.054688 0.71875v3.7031c0 2.7962 2.0295 2.6921 3 1.2363l1.3125-1.9668c0.56205-0.84307 0.76419-1.0332 1.4238-1.0332h2.5274c0.65964 0 0.86178 0.19013 1.4238 1.0332l1.3125 1.9668c0.9705 1.4557 3 1.5598 3-1.2363v-3.7031c0-0.26399-0.01736-0.50234-0.05469-0.71875-0.11198-0.64923-0.40367-1.0961-0.94531-1.4062 0-1.341-0.21886-1.9355-0.93359-1.9355h-2.6426c-0.31154 0-0.42383 0.33629-0.42383 1h-4c0-0.66371-0.11229-1-0.42383-1zm1.5664 1.6582c0.277 0 0.5-0.00552 0.5 0.27148v0.83398l-0.5 0.5-0.5-0.5v-0.83398c0-0.277 0.223-0.27148 0.5-0.27148zm7 0.3418a0.5 0.5 0 0 1 0.5 0.5 0.5 0.5 0 0 1-0.5 0.5 0.5 0.5 0 0 1-0.5-0.5 0.5 0.5 0 0 1 0.5-0.5zm-8.5703 1h0.83398l0.5 0.5-0.5 0.5h-0.83398c-0.277 0-0.27148-0.223-0.27148-0.5s-0.00552-0.5 0.27148-0.5zm2.3066 0h0.83398c0.277 0 0.27148 0.223 0.27148 0.5s0.00552 0.5-0.27148 0.5h-0.83398l-0.5-0.5zm5.2637 0a0.5 0.5 0 0 1 0.5 0.5 0.5 0.5 0 0 1-0.5 0.5 0.5 0.5 0 0 1-0.5-0.5 0.5 0.5 0 0 1 0.5-0.5zm2.0391 0a0.5 0.5 0 0 1 0.5 0.5 0.5 0.5 0 0 1-0.5 0.5 0.5 0.5 0 0 1-0.5-0.5 0.5 0.5 0 0 1 0.5-0.5zm-8.0391 0.73633 0.5 0.5v0.83398c0 0.277-0.223 0.27148-0.5 0.27148s-0.5 0.00552-0.5-0.27148v-0.83398zm7 0.26367a0.5 0.5 0 0 1 0.5 0.5 0.5 0.5 0 0 1-0.5 0.5 0.5 0.5 0 0 1-0.5-0.5 0.5 0.5 0 0 1 0.5-0.5z" fill="#090d11" fill-opacity=".76621" style="paint-order:normal"/>
	<path d="m3.9336 4c-0.71473 0-0.93359 0.59454-0.93359 1.9355-0.54164 0.31013-0.83332 0.75702-0.94531 1.4062-0.037328 0.21641-0.054688 0.45476-0.054688 0.71875v3.7031c0 2.7962 2.0295 2.6921 3 1.2363l1.3125-1.9668c0.56205-0.84307 0.76419-1.0332 1.4238-1.0332h2.5274c0.65964 0 0.86178 0.19013 1.4238 1.0332l1.3125 1.9668c0.9705 1.4557 3 1.5598 3-1.2363v-3.7031c0-0.26399-0.01736-0.50234-0.05469-0.71875-0.11198-0.64923-0.40367-1.0961-0.94531-1.4062 0-1.341-0.21886-1.9355-0.93359-1.9355h-2.6426c-0.31154 0-0.42383 0.33629-0.42383 1h-4c0-0.66371-0.11229-1-0.42383-1h-2.6426zm1.5664 1.6582c0.277 0 0.5-0.00552 0.5 0.27148v0.83398l-0.5 0.5-0.5-0.5v-0.83398c0-0.277 0.223-0.27148 0.5-0.27148zm7 0.3418a0.5 0.5 0 0 1 0.5 0.5 0.5 0.5 0 0 1-0.5 0.5 0.5 0.5 0 0 1-0.5-0.5 0.5 0.5 0 0 1 0.5-0.5zm-8.5703 1h0.83398l0.5 0.5-0.5 0.5h-0.83398c-0.277 0-0.27148-0.223-0.27148-0.5s-0.00552-0.5 0.27148-0.5zm2.3066 0h0.83398c0.277 0 0.27148 0.223 0.27148 0.5s0.00552 0.5-0.27148 0.5h-0.83398l-0.5-0.5zm5.2637 0a0.5 0.5 0 0 1 0.5 0.5 0.5 0.5 0 0 1-0.5 0.5 0.5 0.5 0 0 1-0.5-0.5 0.5 0.5 0 0 1 0.5-0.5zm2.0391 0a0.5 0.5 0 0 1 0.5 0.5 0.5 0.5 0 0 1-0.5 0.5 0.5 0.5 0 0 1-0.5-0.5 0.5 0.5 0 0 1 0.5-0.5zm-8.0391 0.73633 0.5 0.5v0.83398c0 0.277-0.223 0.27148-0.5 0.27148s-0.5 0.00552-0.5-0.27148v-0.83398zm7 0.26367a0.5 0.5 0 0 1 0.5 0.5 0.5 0.5 0 0 1-0.5 0.5 0.5 0.5 0 0 1-0.5-0.5 0.5 0.5 0 0 1 0.5-0.5z" fill="url(#b)" style="paint-order:normal"/>
	<path d="m4.2402 3c-0.10908 0-0.38076-0.013496-0.68555 0.11914-0.30479 0.13264-0.57662 0.43163-0.70898 0.71094-0.21683 0.45753-0.22202 1.0281-0.23438 1.7246-0.83761 0.48359-1.6113 1.3-1.6113 2.3145v3.5547c0 2.5989 1.4021 3.5469 2.4043 3.5469 1.1775 0 1.4646-0.6808 2.0371-1.4707 0.13143-0.18134 0.32807-0.49506 0.43945-0.66992 0.26317 0.10877 0.54983 0.16958 0.84961 0.16992h0.00195c1.1493 4.6e-4 2.1043-0.88401 2.2402-2 0.00917 2e-6 0.018178 0 0.027344 0 0.00917 0 0.018174 2e-6 0.027344 0 0.13593 1.116 1.0909 2.0005 2.2402 2h2e-3c0.29978-3.39e-4 0.58644-0.06116 0.84961-0.16992 0.11138 0.17486 0.30802 0.48861 0.43945 0.66992 0.57251 0.7899 0.85965 1.4707 2.0371 1.4707 1.0022 0 2.4043-0.94794 2.4043-3.5469v-3.5547c0-1.0145-0.77375-1.8309-1.6113-2.3145-0.01236-0.69648-0.01754-1.2671-0.23438-1.7246-0.13237-0.2793-0.40419-0.5783-0.70898-0.71094-0.30483-0.13264-0.5765-0.11914-0.68559-0.11914h-1.8047c-0.61102 0-1.4316 0.27985-1.4316 1 0 0.50342 0.05706 0.34766-1.5234 0.34766-1.5805 0-1.5234 0.15576-1.5234-0.34766 0-0.72015-0.82064-1-1.4316-1h-1.8047zm-0.30664 1h2.6426c0.31154 0 0.42383 0.33629 0.42383 1h4c0-0.33186 0.02869-0.58101 0.0957-0.74805 0.067018-0.16704 0.17236-0.25195 0.32812-0.25195h2.6426c0.35736 0 0.59032 0.14859 0.73438 0.46484 0.07203 0.15813 0.12261 0.3592 0.1543 0.60352 0.03153 0.24396 0.04492 0.53269 0.04492 0.86719 0.13541 0.077525 0.25606 0.16412 0.36133 0.25977 0.21053 0.19129 0.36173 0.42119 0.46484 0.69727 0.05156 0.13804 0.09114 0.28691 0.11914 0.44922 0.03733 0.21641 0.05469 0.45476 0.05469 0.71875v3.7031c0 2.0971-1.1409 2.5631-2.1211 2.0508-0.16376-0.08559-0.32203-0.19879-0.4707-0.33594-0.14837-0.1367-0.28689-0.29655-0.4082-0.47852l-0.33398-0.50195-0.55274-0.82617a1.2671 1.2671 0 0 1-0.5625 0.29492 1.2671 1.2671 0 0 1-2e-3 0 1.2671 1.2671 0 0 1-0.0918 0.01758 1.2671 1.2671 0 0 1-0.03125 0.0059 1.2671 1.2671 0 0 1-0.01172 2e-3 1.2671 1.2671 0 0 1-0.06445 0.0039 1.2671 1.2671 0 0 1-0.08203 0.0039 1.2671 1.2671 0 0 1-0.09375-0.0039 1.2671 1.2671 0 0 1-0.07617-0.0078 1.2671 1.2671 0 0 1-0.07617-0.01172 1.2671 1.2671 0 0 1-0.04102-0.01172 1.2671 1.2671 0 0 1-0.06445-0.01563 1.2671 1.2671 0 0 1-0.06445-0.02149 1.2671 1.2671 0 0 1-0.0625-0.02148 1.2671 1.2671 0 0 1-0.05078-0.02344 1.2671 1.2671 0 0 1-0.07422-0.03711 1.2671 1.2671 0 0 1-0.01367-0.0078 1.2671 1.2671 0 0 1-0.08594-0.05078 1.2671 1.2671 0 0 1-0.03906-0.0293 1.2671 1.2671 0 0 1-0.06641-0.05078 1.2671 1.2671 0 0 1-0.0332-0.03125 1.2671 1.2671 0 0 1-0.05664-0.05078 1.2671 1.2671 0 0 1-0.02148-0.02344 1.2671 1.2671 0 0 1-0.07227-0.08203 1.2671 1.2671 0 0 1-0.06445-0.08984 1.2671 1.2671 0 0 1-0.02344-0.03711 1.2671 1.2671 0 0 1-0.04883-0.08594 1.2671 1.2671 0 0 1-0.05078-0.11524 1.2671 1.2671 0 0 1-0.03711-0.10938 1.2671 1.2671 0 0 1-0.01172-0.04101 1.2671 1.2671 0 0 1-0.039062-0.30859 1.2671 1.2671 0 0 1 0.23633-0.73242h-2.4726a1.2671 1.2671 0 0 1 0.23633 0.73242 1.2671 1.2671 0 0 1-0.039062 0.30859 1.2671 1.2671 0 0 1-0.00195 0.0059 1.2671 1.2671 0 0 1-0.035156 0.11523 1.2671 1.2671 0 0 1-0.046875 0.11133 1.2671 1.2671 0 0 1-0.00195 0.0059 1.2671 1.2671 0 0 1-0.00195 0.0039 1.2671 1.2671 0 0 1-0.058594 0.10742 1.2671 1.2671 0 0 1-0.052734 0.07813 1.2671 1.2671 0 0 1-0.017578 0.02734 1.2671 1.2671 0 0 1-0.00781 0.0098 1.2671 1.2671 0 0 1-0.0625 0.07422 1.2671 1.2671 0 0 1-0.011719 0.01172 1.2671 1.2671 0 0 1-0.021484 0.02344 1.2671 1.2671 0 0 1-0.068359 0.06641 1.2671 1.2671 0 0 1-0.00586 0.0039 1.2671 1.2671 0 0 1-0.09375 0.07422 1.2671 1.2671 0 0 1-0.078125 0.05273 1.2671 1.2671 0 0 1-0.027344 0.01758 1.2671 1.2671 0 0 1-0.011719 0.0059 1.2671 1.2671 0 0 1-0.10156 0.05078 1.2671 1.2671 0 0 1-0.097656 0.03906 1.2671 1.2671 0 0 1-0.019531 0.0078 1.2671 1.2671 0 0 1-0.029297 0.0098 1.2671 1.2671 0 0 1-0.035156 0.0098 1.2671 1.2671 0 0 1-0.082031 0.01953 1.2671 1.2671 0 0 1-0.099609 0.01758 1.2671 1.2671 0 0 1-0.011719 0 1.2671 1.2671 0 0 1-0.068359 0.0059 1.2671 1.2671 0 0 1-0.078125 0.0039 1.2671 1.2671 0 0 1-0.089844-0.0039 1.2671 1.2671 0 0 1-0.083984-0.0098 1.2671 1.2671 0 0 1-0.066406-0.0098 1.2671 1.2671 0 0 1-0.044922-0.0098 1.2671 1.2671 0 0 1-0.5625-0.29492l-0.55078 0.82617-0.33398 0.50195c-0.12131 0.18198-0.25983 0.34181-0.4082 0.47852-0.14867 0.13714-0.30695 0.25035-0.4707 0.33594-0.98023 0.51237-2.1211 0.04637-2.1211-2.0508v-3.7031c0-0.26399 0.01736-0.50234 0.054688-0.71875 0.11199-0.64918 0.40367-1.0961 0.94531-1.4062 0-0.33449 0.013388-0.62323 0.044922-0.86719 9.62e-5 -7.422e-4 -9.66e-5 -0.00121 0-0.00195 0.095057-0.73293 0.35262-1.0664 0.88867-1.0664zm1.5664 1.6582c-0.277 0-0.5-0.00552-0.5 0.27148v0.83398l0.5 0.5 0.5-0.5v-0.83398c0-0.277-0.223-0.27148-0.5-0.27148zm7 0.3418c-0.06837 0-0.134 0.01422-0.19336 0.039062a0.5 0.5 0 0 0-2e-3 0c-0.0014 5.728e-4 -0.0026 0.00137-0.0039 0.00195-0.0582 0.025228-0.11008 0.061252-0.1543 0.10547-3.82e-4 3.823e-4 3.81e-4 0.00157 0 0.00195-0.04471 0.045003-0.08233 0.096936-0.10742 0.15625-0.0253 0.059819-0.03906 0.12628-0.03906 0.19531 0 0.068371 0.01422 0.134 0.03906 0.19336 8.1e-4 0.00193 0.0011 0.00394 2e-3 0.00586 0.02523 0.0582 0.06125 0.11008 0.10547 0.1543a0.5 0.5 0 0 0 2e-3 0c0.045 0.044714 0.09694 0.082334 0.15625 0.10742 0.05982 0.025302 0.12628 0.039062 0.19531 0.039062 0.06837 0 0.134-0.01422 0.19336-0.039062a0.5 0.5 0 0 0 0.0059-0.00195c0.0582-0.025228 0.11008-0.061252 0.1543-0.10547a0.5 0.5 0 0 0 0-0.00195c0.04471-0.045003 0.08233-0.096936 0.10742-0.15625 0.0253-0.059819 0.03906-0.12628 0.03906-0.19531 0-0.068371-0.01422-0.134-0.03906-0.19336a0.5 0.5 0 0 0-2e-3 -0.00586c-0.02523-0.0582-0.06125-0.11008-0.10547-0.1543-3.83e-4 -3.823e-4 -0.0016 3.81e-4 -2e-3 0-0.045-0.044714-0.09694-0.082334-0.15625-0.10742-0.059819-0.025302-0.12628-0.039062-0.19531-0.039062zm-8.5703 1c-0.277 0-0.27148 0.223-0.27148 0.5s-0.00552 0.5 0.27148 0.5h0.83398l0.5-0.5-0.5-0.5h-0.052734zm2.3066 0-0.5 0.5 0.5 0.5h0.83398c0.1385 0 0.20699-0.056109 0.24023-0.14648 0.033246-0.090375 0.03125-0.21502 0.03125-0.35352s0.00199-0.26314-0.03125-0.35352c-0.033247-0.090375-0.10174-0.14648-0.24023-0.14648h-0.78125zm5.2637 0c-0.06837 0-0.134 0.01422-0.19336 0.039062a0.5 0.5 0 0 0-2e-3 0c-0.0014 5.728e-4 -0.0026 0.00137-0.0039 0.00195-0.0582 0.025228-0.11008 0.061252-0.1543 0.10547-3.82e-4 3.823e-4 3.81e-4 0.00157 0 0.00195-0.04471 0.045003-0.08233 0.096936-0.10742 0.15625-0.0253 0.059819-0.03906 0.12628-0.03906 0.19531 0 0.068371 0.01422 0.134 0.03906 0.19336 8.1e-4 0.00193 0.0011 0.00394 2e-3 0.00586 0.02523 0.0582 0.06125 0.11008 0.10547 0.1543a0.5 0.5 0 0 0 2e-3 0c0.045 0.044714 0.09694 0.082334 0.15625 0.10742 0.05982 0.025302 0.12628 0.039062 0.19531 0.039062 0.06837 0 0.134-0.01422 0.19336-0.039062a0.5 0.5 0 0 0 0.0059-0.00195c0.0582-0.025228 0.11008-0.061252 0.1543-0.10547a0.5 0.5 0 0 0 0-0.00195c0.04471-0.045003 0.08233-0.096936 0.10742-0.15625 0.0253-0.059819 0.03906-0.12628 0.03906-0.19531 0-0.068371-0.01422-0.134-0.03906-0.19336a0.5 0.5 0 0 0-2e-3 -0.00586c-0.02523-0.0582-0.06125-0.11008-0.10547-0.1543-3.83e-4 -3.823e-4 -0.0016 3.81e-4 -2e-3 0-0.045-0.044714-0.09694-0.082334-0.15625-0.10742-0.059819-0.025302-0.12628-0.039062-0.19531-0.039062zm2.0391 0c-0.06837 0-0.134 0.01422-0.19336 0.039062a0.5 0.5 0 0 0-2e-3 0c-0.0014 5.728e-4 -0.0026 0.00137-0.0039 0.00195-0.0582 0.025228-0.11008 0.061252-0.1543 0.10547-3.82e-4 3.823e-4 3.81e-4 0.00157 0 0.00195-0.04471 0.045003-0.08233 0.096936-0.10742 0.15625-0.0253 0.059819-0.03906 0.12628-0.03906 0.19531 0 0.068371 0.01422 0.134 0.03906 0.19336a0.5 0.5 0 0 0 0 0.00195c5.73e-4 0.00135 0.0014 0.00256 2e-3 0.00391 0.02523 0.0582 0.06125 0.11008 0.10547 0.1543a0.5 0.5 0 0 0 2e-3 0c0.045 0.044714 0.09694 0.082334 0.15625 0.10742 0.05982 0.025302 0.12628 0.039062 0.19531 0.039062 0.06837 0 0.134-0.01422 0.19336-0.039062 5.76e-4 -2.412e-4 0.0014 2.433e-4 2e-3 0a0.5 0.5 0 0 0 0.0039-0.00195c0.0582-0.025228 0.11008-0.061252 0.1543-0.10547a0.5 0.5 0 0 0 0-0.00195c0.04471-0.045003 0.08233-0.096936 0.10742-0.15625 0.0253-0.059819 0.03906-0.12628 0.03906-0.19531 0-0.068371-0.01422-0.134-0.03906-0.19336a0.5 0.5 0 0 0-2e-3 -0.00586c-0.02523-0.0582-0.06125-0.11008-0.10547-0.1543a0.5 0.5 0 0 0-2e-3 0c-0.045003-0.044714-0.096936-0.082334-0.15625-0.10742-0.059819-0.025302-0.12628-0.039062-0.19531-0.039062zm-8.0391 0.73633-0.5 0.5v0.83398c0 0.07571 0.018961 0.12859 0.048828 0.16797 0.079409 0.1047 0.24988 0.10352 0.45117 0.10352 0.277 0 0.5 0.00552 0.5-0.27148v-0.83398l-0.5-0.5zm7 0.26367c-0.06837 0-0.134 0.01422-0.19336 0.039062a0.5 0.5 0 0 0-2e-3 0c-0.0014 5.728e-4 -0.0026 0.00137-0.0039 0.00195-0.0582 0.025228-0.11008 0.061252-0.1543 0.10547-3.82e-4 3.823e-4 3.81e-4 0.00157 0 0.00195-0.04471 0.045003-0.08233 0.096936-0.10742 0.15625-0.0253 0.059819-0.03906 0.12628-0.03906 0.19531 0 0.037969 0.01347 0.071876 0.02148 0.10742-0.0031-0.00112-0.0067-8.416e-4 -0.0098-0.00195a0.5 0.5 0 0 0 0.48828 0.39453 0.5 0.5 0 0 0 0.16602-0.029297c-0.0014-0.00115-0.0025-0.00276-0.0039-0.00391 0.14679-0.050858 0.26334-0.16439 0.3125-0.31055 0.01639-0.04872 0.02539-0.10155 0.02539-0.15625 0-0.068371-0.01422-0.134-0.03906-0.19336a0.5 0.5 0 0 0-2e-3 -0.00586c-0.02523-0.0582-0.06125-0.11008-0.10547-0.1543-3.83e-4 -3.823e-4 -0.0016 3.81e-4 -2e-3 0-0.045-0.044714-0.09694-0.082334-0.15625-0.10742-0.05982-0.025302-0.12628-0.039062-0.19531-0.039062z" fill="url(#c)" style="font-feature-settings:normal;font-variant-alternates:normal;font-variant-caps:normal;font-variant-ligatures:normal;font-variant-numeric:normal;font-variant-position:normal;isolation:auto;mix-blend-mode:normal;paint-order:normal;shape-padding:0;text-decoration-color:#000000;text-decoration-line:none;text-decoration-style:solid;text-indent:0;text-orientation:mixed;text-transform:none;white-space:normal"/>
	<path d="M 6.7324,9.4668 A 1.2671,1.2671 0 0 0 5.4668,10.7324 1.2671,1.2671 0 0 0 6.7324,12 1.2671,1.2671 0 0 0 8,10.7324 1.2671,1.2671 0 0 0 6.7324,9.4668 Z m 4.5352,0 A 1.2671,1.2671 0 0 0 10,10.7324 1.2671,1.2671 0 0 0 11.2676,12 1.2671,1.2671 0 0 0 12.5332,10.7324 1.2671,1.2671 0 0 0 11.2676,9.4668 Z" fill="#090d11" fill-opacity=".76621" style="paint-order:normal"/>
	<circle cx="6.4612" cy="10.461" r=".81785" fill="url(#e)" fill-opacity=".99858" style="paint-order:normal"/>
	<circle transform="scale(-1,1)" cx="-11.539" cy="10.461" r=".81785" fill="url(#d)" fill-opacity=".99858" style="paint-order:normal"/>
</svg>
