<?xml version="1.0" encoding="UTF-8"?>
<svg id="i" width="18" height="18" version="1.1" xmlns="http://www.w3.org/2000/svg" xmlns:cc="http://creativecommons.org/ns#" xmlns:dc="http://purl.org/dc/elements/1.1/" xmlns:rdf="http://www.w3.org/1999/02/22-rdf-syntax-ns#">
	<metadata id="a">
		<rdf:RDF>
			<cc:Work rdf:about="">
				<dc:format>image/svg+xml</dc:format>
				<dc:type rdf:resource="http://purl.org/dc/dcmitype/StillImage"/>
				<dc:title/>
			</cc:Work>
		</rdf:RDF>
	</metadata>
	<defs id="d">
		<style id="current-color-scheme" type="text/css">.ColorScheme-Text {color:#090d11;}.ColorScheme-Background{color:#ffffff;}</style>
	</defs>
	<path id="c" class="ColorScheme-Text" d="m5 2c-1.662 0-3 1.338-3 3v5c0-0.30039 0.13307-0.60078 0.40039-0.80078l1.3418-1.0059c-0.15984-0.22572-0.28055-0.48462-0.36133-0.78125-0.080128-0.30313-0.12305-0.63374-0.12305-0.99414 0-0.40577 0.051838-0.77809 0.15625-1.1074 0.10441-0.33177 0.26384-0.61376 0.47266-0.84766 0.21126-0.2339 0.47144-0.41256 0.78711-0.53906 0.31809-0.12889 0.69181-0.19335 1.1191-0.19336 0.40307 6.2e-6 0.7614 0.064468 1.0723 0.19336 0.31322 0.12653 0.5773 0.30861 0.79102 0.54492 0.21367 0.23392 0.3751 0.5159 0.48438 0.84766 0.11169 0.32938 0.16797 0.69729 0.16797 1.1055-4.4e-6 0.34372-0.040972 0.65995-0.12109 0.95117-0.04721 0.17548-0.11315 0.33553-0.1875 0.48828v0.13867h0.97461c-1.632e-4 -0.014399-0.0059357-0.022385-0.0058594-0.037109v-2.3438h-0.56055v-0.37695c0.16026 4.8e-6 0.30538-0.029736 0.43164-0.091797 0.12626-0.06205 0.22941-0.13564 0.30469-0.2168 0.15297-0.15752 0.26262-0.40151 0.33789-0.72852h0.62109v0.91016h0.94922v0.50391h-0.94922v2.2695c0 0.042722 0.0071 0.072946 0.0098 0.11133h0.88672c0.55226 5.52e-5 0.99994 0.44774 1 1v0.00195c0.21592-6.978e-4 0.42628 0.068459 0.59961 0.19727l3.4004 2.5508v-8.75c0-0.13908-0.02725-0.2705-0.07813-0.39062-0.05047-0.11972-0.12447-0.22603-0.21484-0.31641-0.08999-0.089994-0.19747-0.16422-0.31641-0.21484h-2e-3c-0.11957-0.050648-0.2502-0.078125-0.3887-0.078125h-10zm-3 8v5c0 0.554 0.446 1 1 1h8v-1h-3c-0.55226-5.5e-5 -0.99994-0.44774-1-1v-2e-3c-0.21592 6.98e-4 -0.42628-0.06851-0.59961-0.19727l-4-3c-0.26732-0.19995-0.40039-0.50034-0.40039-0.80073zm3.793-5.7949c-0.2331 4e-6 -0.43302 0.054045-0.5957 0.1543-0.16269 0.097868-0.2945 0.23873-0.39648 0.42969-0.10197 0.18855-0.17457 0.41888-0.2207 0.69336-0.046137 0.2745-0.070314 0.58854-0.070312 0.93945-2e-6 0.35088 0.024176 0.66497 0.070312 0.93945 0.010414 0.061976 0.027869 0.11408 0.041016 0.17188l1.7793-1.334c0.16502-0.12361 0.36422-0.19319 0.57031-0.19922 0.019348-5.651e-4 0.035585 0.00924 0.054688 0.00977-0.011666-0.17852-0.013167-0.37325-0.039062-0.52734-0.043715-0.27448-0.11529-0.50479-0.21484-0.69336-0.09956-0.19094-0.23038-0.33182-0.39062-0.42969-0.16026-0.10024-0.35722-0.15429-0.58789-0.1543zm1.207 2.7949-4 3 4 3v-2h4v-2h-4.0001v-2zm5 3v2h-4v2h4v2l4-3z" style="fill-opacity:.75;fill:currentColor"/>
	<path id="b" class="ColorScheme-Background" d="m5 1c-2.1987 0-4 1.8013-4 4v10c0 1.0907 0.9093 2 2 2h10c2.1987 0 4-1.8013 4-4v-10c0-1.0907-0.9093-2-2-2h-10zm0 1h10c0.554 0 1 0.446 1 1v8.75l-3.4004-2.5508c-0.17333-0.12876-0.38368-0.19796-0.59961-0.19727v-0.00195c-5.5e-5 -0.55226-0.44774-0.99994-1-1h-0.88672c-0.00269-0.038382-0.00977-0.068606-0.00977-0.11133v-2.2695h0.94922v-0.50391h-0.94922v-0.91016h-0.62109c-0.075266 0.32701-0.18491 0.571-0.33789 0.72852-0.075273 0.081158-0.17843 0.15475-0.30469 0.2168-0.12626 0.062064-0.27138 0.091805-0.43164 0.091797v0.37695h0.56055v2.3438c0 0.014724 0.00564 0.02271 0.00586 0.037109h-0.97461v-0.13867c0.074345-0.15275 0.14029-0.3128 0.1875-0.48828 0.08012-0.29121 0.12109-0.60744 0.12109-0.95117-5.3e-6 -0.40815-0.056282-0.77605-0.16797-1.1055-0.10927-0.33177-0.2707-0.61376-0.48438-0.84766-0.21368-0.2363-0.47777-0.41839-0.79102-0.54492-0.31082-0.12889-0.66915-0.19335-1.0723-0.19336-0.42736 5.4e-6 -0.80111 0.064468-1.1191 0.19336-0.31566 0.12651-0.57585 0.30516-0.78711 0.53906-0.20881 0.23392-0.36825 0.5159-0.47266 0.84766-0.10441 0.32939-0.15625 0.69971-0.15625 1.1055-4e-7 0.36042 0.042914 0.69298 0.12305 0.99609 0.08079 0.29663 0.20149 0.55554 0.36133 0.78125l-1.3418 1.0059c-0.26732 0.2-0.40039 0.50039-0.40039 0.80078s0.13307 0.60078 0.40039 0.80078l4 3c0.17333 0.12876 0.38369 0.19796 0.59961 0.19727v2e-3c5.52e-5 0.55226 0.44774 0.99994 1 1h3v1h-8c-0.554 0-1-0.446-1-1v-10c0-0.20775 0.020715-0.40982 0.060547-0.60547 0.27882-1.3695 1.4852-2.3945 2.9395-2.3945zm0.79297 2.2051c0.23067 4.4e-6 0.42763 0.054046 0.58789 0.1543 0.16026 0.097868 0.29108 0.23874 0.39062 0.42969 0.099552 0.18857 0.17113 0.41888 0.21484 0.69336 0.025896 0.15408 0.027396 0.34882 0.039062 0.52734-0.019103-5.257e-4 -0.035339-0.010331-0.054688-0.00977-0.20609 0.00603-0.40529 0.075612-0.57031 0.19922l-1.7793 1.334c-0.013146-0.0578-0.030603-0.1099-0.041016-0.17188-0.046137-0.2745-0.070314-0.58858-0.070312-0.93945-1.6e-6 -0.35088 0.024176-0.66492 0.070312-0.93945 0.046133-0.27448 0.11873-0.50481 0.2207-0.69336 0.10198-0.19095 0.2338-0.33181 0.39648-0.42969 0.16269-0.10024 0.36261-0.15429 0.5957-0.1543zm1.207 2.7949v2h4.0001v2h-4v2l-4-3 4-3zm5 3 4 3-4 3v-2h-4v-2h4z" style="fill-opacity:.5;fill:currentColor"/>
</svg>
