<?xml version="1.0" encoding="UTF-8"?>
<!-- Created with Inkscape (http://www.inkscape.org/) -->
<svg width="18" height="18" version="1.1" xmlns="http://www.w3.org/2000/svg" xmlns:cc="http://creativecommons.org/ns#" xmlns:dc="http://purl.org/dc/elements/1.1/" xmlns:rdf="http://www.w3.org/1999/02/22-rdf-syntax-ns#">
	<defs>
		<style id="current-color-scheme" type="text/css">.ColorScheme-Text {color:#090d11;}.ColorScheme-Background{color:#ffffff;}</style>
	</defs>
	<metadata>
		<rdf:RDF>
			<cc:Work rdf:about="">
				<dc:format>image/svg+xml</dc:format>
				<dc:type rdf:resource="http://purl.org/dc/dcmitype/StillImage"/>
			</cc:Work>
		</rdf:RDF>
	</metadata>
	<path class="ColorScheme-Text" d="m9.002 2c-3.8661 0-7.002 3.1333-7.002 7s3.1361 7 7.002 7c1.265 0 2.4484-0.33482 3.4727-0.92188l0.36524 0.92188h2.8242l-1.1055-2.7441c0.9042-1.1795 1.4414-2.6547 1.4414-4.2559 0-3.8667-3.1319-7-6.998-7zm-1.6641 1.7012c0.21104 0.18055 0.17161 0.10601 0.45508 0.072266 0.32339-0.21167 0.47294 0.5016 0.60742 0.10352 0.39628 0.051691 0.8167 0.18052 1.1914 0.31055 0.3775 0.083311 0.73389 0.30205 0.98633 0.60156l-0.0078 0.00391 0.18555 0.24609c0.02431 0.042925 0.04447 0.088091 0.06445 0.13281 0.07516 0.64188 0.7849 0.63313 1.2598 0.86523 0.40645 0.14468 0.89511 0.36645 0.94531 0.85938-0.10245-0.022484-0.49833-0.49144-0.81056-0.53711-0.18916-0.011876-0.39098-0.065816-0.58008-0.13672l-1.0957-0.20312v-0.00391c-0.054838-0.00645-0.10941-0.017051-0.16406-0.029297v0.00781l-1.5508-0.19336c0.025406 0.017528 0.052841 0.041304 0.078125 0.064453l1.5898 0.31055v-0.00195l0.11133 0.027344 0.44336 0.10156c0.08831 0.00824 0.17821 0.022034 0.25 0.035156 0.4535 0.12536 0.99076 0.10298 1.3633 0.42188-0.09739 0.18734-0.64214 0.080829-0.91211 0.056641-0.03328-0.00655-0.06999-0.011918-0.10352-0.017578-0.0055-8.4e-4 -0.01208-0.00306-0.01758-0.00391-0.36873-0.060314-0.7467-0.063389-1.1016 0.046875-1e-3 3.437e-4 -0.0029-3.436e-4 -0.0039 0-0.12246 0.038286-0.2414 0.094451-0.35546 0.16211-0.51302 0.30001-1.1465 0.40813-1.5723 0.83984-0.41701 0.45104-0.39152 1.0713-0.32031 1.6484h0.017578v0.14648c0.00676 0.050407 0.014806 0.10114 0.021484 0.15039 0.21739 1.1668 0.79457 2.2382 0.97461 3.416 0.034765 0.44913 0.1081 1.0292 0.16406 1.3945-0.16186-0.04839-0.25214-0.77947-0.28906-0.53711-0.55375-0.98142-1.1807-1.9209-1.8887-2.7969-0.45186-0.53485-0.89934-1.0966-1.4375-1.541-0.36307-0.28154-0.24867-0.82579-0.28516-1.2266-0.12153-0.49308-0.048532-0.9841 0.033203-1.4766 0.16597-0.51334 0.22018-1.0503 0.44727-1.543 0.34619-0.30946 0.35362-0.86773 0.68945-1.1367 0.049831 0.030863 0.084206 0.046353 0.10742 0.054687l0.035156 0.00195h0.00391c0.0481-0.050418-0.46915-0.59413 0.011715-0.3789 0.018844-0.28592 0.45251-0.06825 0.45898-0.31836zm2.0371 1.1621c-0.17111 0.0045421-0.30407 0.069904-0.3418 0.17969-0.060357 0.17566 0.14448 0.40248 0.45898 0.51172s0.61932 0.056513 0.67969-0.11914c0.060357-0.17566-0.14448-0.40443-0.45898-0.51367-0.11794-0.040967-0.23522-0.061288-0.33789-0.058594z" style="fill-opacity:.75;fill:currentColor"/>
</svg>
