<?xml version="1.0" encoding="UTF-8"?>
<!-- Created with Inkscape (http://www.inkscape.org/) -->
<svg width="18" height="18" version="1.1" xmlns="http://www.w3.org/2000/svg" xmlns:cc="http://creativecommons.org/ns#" xmlns:dc="http://purl.org/dc/elements/1.1/" xmlns:rdf="http://www.w3.org/1999/02/22-rdf-syntax-ns#">
	<defs>
		<style id="current-color-scheme" type="text/css">.ColorScheme-Text {color:#090d11;}.ColorScheme-Background{color:#ffffff;}</style>
	</defs>
	<metadata>
		<rdf:RDF>
			<cc:Work rdf:about="">
				<dc:format>image/svg+xml</dc:format>
				<dc:type rdf:resource="http://purl.org/dc/dcmitype/StillImage"/>
			</cc:Work>
		</rdf:RDF>
	</metadata>
	<path class="ColorScheme-Text" d="m9.002 2c-3.8661 0-7.002 3.1333-7.002 7s3.1361 7 7.002 7c1.265 0 2.4484-0.33482 3.4727-0.92188l0.36524 0.92188h2.8242l-1.1055-2.7441c0.9042-1.1795 1.4414-2.6547 1.4414-4.2559 0-3.8667-3.1319-7-6.998-7zm-1.6641 1.7012c0.21104 0.18055 0.17161 0.10601 0.45508 0.072266 0.32339-0.21167 0.47294 0.5016 0.60742 0.10352 0.39628 0.051691 0.8167 0.18052 1.1914 0.31055 0.3775 0.083311 0.73389 0.30205 0.98633 0.60156l-0.0078 0.00391 0.18555 0.24609c0.02431 0.042925 0.04447 0.088091 0.06445 0.13281 0.07516 0.64188 0.7849 0.63313 1.2598 0.86523 0.40645 0.14468 0.89511 0.36645 0.94531 0.85938-0.10245-0.022484-0.49833-0.49144-0.81056-0.53711-0.18916-0.011876-0.39098-0.065816-0.58008-0.13672l-1.0957-0.20312v-0.00391c-0.054838-0.00645-0.10941-0.017051-0.16406-0.029297v0.00781l-1.5508-0.19336c0.025406 0.017528 0.052841 0.041304 0.078125 0.064453l1.5898 0.31055v-0.00195l0.11133 0.027344 0.44336 0.10156c0.08831 0.00824 0.17821 0.022034 0.25 0.035156 0.4535 0.12536 0.99076 0.10298 1.3633 0.42188-0.09739 0.18734-0.64214 0.080829-0.91211 0.056641-0.03328-0.00655-0.06999-0.011918-0.10352-0.017578-0.0055-8.4e-4 -0.01208-0.00306-0.01758-0.00391-0.36873-0.060314-0.7467-0.063389-1.1016 0.046875-1e-3 3.437e-4 -0.0029-3.436e-4 -0.0039 0-0.12246 0.038286-0.2414 0.094451-0.35546 0.16211-0.51302 0.30001-1.1465 0.40813-1.5723 0.83984-0.41701 0.45104-0.39152 1.0713-0.32031 1.6484h0.017578v0.14648c0.00676 0.050407 0.014806 0.10114 0.021484 0.15039 0.21739 1.1668 0.79457 2.2382 0.97461 3.416 0.034765 0.44913 0.1081 1.0292 0.16406 1.3945-0.16186-0.04839-0.25214-0.77947-0.28906-0.53711-0.55375-0.98142-1.1807-1.9209-1.8887-2.7969-0.45186-0.53485-0.89934-1.0966-1.4375-1.541-0.36307-0.28154-0.24867-0.82579-0.28516-1.2266-0.12153-0.49308-0.048532-0.9841 0.033203-1.4766 0.16597-0.51334 0.22018-1.0503 0.44727-1.543 0.34619-0.30946 0.35362-0.86773 0.68945-1.1367 0.049831 0.030863 0.084206 0.046353 0.10742 0.054687l0.035156 0.00195h0.00391c0.0481-0.050418-0.46915-0.59413 0.011715-0.3789 0.018844-0.28592 0.45251-0.06825 0.45898-0.31836zm2.0371 1.1621c-0.17111 0.0045421-0.30407 0.069904-0.3418 0.17969-0.060357 0.17566 0.14448 0.40248 0.45898 0.51172s0.61932 0.056513 0.67969-0.11914c0.060357-0.17566-0.14448-0.40443-0.45898-0.51367-0.11794-0.040967-0.23522-0.061288-0.33789-0.058594z" style="fill-opacity:.75;fill:currentColor"/>
	<path id="e" class="ColorScheme-Background" d="m9.002 1c-4.4064 0-8.002 3.5926-8.002 8s3.5958 8 8.002 8c1.0404 0 2.0076-0.25771 2.9219-0.62109 0.15253 0.37251 0.51351 0.61727 0.91602 0.62109h2.8242c0.70814-1.6e-4 1.1918-0.71599 0.92774-1.373l-0.9375-2.3262c0.80932-1.2512 1.3457-2.7044 1.3457-4.3008 0-4.4067-3.5916-8-7.998-8zm0 1c3.8661 0 6.998 3.1333 6.998 7 0 1.6012-0.5372 3.0764-1.4414 4.2559l1.1055 2.7441h-2.8242l-0.36524-0.92188c-1.0243 0.58706-2.2076 0.92188-3.4727 0.92188-3.8658 0-7.002-3.1333-7.002-7s3.1358-7 7.002-7zm-1.6641 1.7012c-0.00647 0.25011-0.44014 0.03244-0.45898 0.31836-0.48086-0.21523 0.036385 0.32848-0.011719 0.37891h-0.00391l-0.035152-0.00195c-0.023216-0.00833-0.057591-0.023824-0.10742-0.054688-0.33583 0.26899-0.34326 0.82726-0.68945 1.1367-0.22708 0.49271-0.2813 1.0296-0.44727 1.543-0.081735 0.49246-0.15473 0.98348-0.033203 1.4766 0.036488 0.40077-0.077915 0.94502 0.28516 1.2266 0.53817 0.44441 0.98565 1.0062 1.4375 1.541 0.70802 0.87594 1.3349 1.8155 1.8887 2.7969 0.036917-0.24236 0.12721 0.48872 0.28906 0.53711-0.055963-0.36535-0.1293-0.9454-0.16406-1.3945-0.18003-1.1778-0.75722-2.2492-0.97461-3.416-0.00668-0.049249-0.014724-0.099984-0.021484-0.15039v-0.14648h-0.017578c-0.07121-0.57718-0.096693-1.1974 0.32031-1.6484 0.42573-0.43172 1.0592-0.53983 1.5723-0.83984 0.11406-0.067659 0.233-0.12382 0.35547-0.16211 0.0011-3.436e-4 0.0029 3.437e-4 0.0039 0 0.35486-0.11026 0.73283-0.10719 1.1016-0.046875 0.0055 8.5e-4 0.01208 0.00307 0.01758 0.00391 0.03353 0.00566 0.07024 0.011028 0.10352 0.017578 0.26997 0.024188 0.81472 0.1307 0.91211-0.056641-0.37253-0.3189-0.90978-0.29652-1.3633-0.42188-0.07179-0.013122-0.16169-0.026916-0.25-0.035156l-0.44337-0.10157-0.11133-0.027344v0.00195l-1.5898-0.31054c-0.025274-0.023152-0.052709-0.046928-0.078115-0.064456l1.5508 0.19336v-0.00781c0.05465 0.012246 0.10922 0.022842 0.16406 0.029297v0.00391l1.0957 0.20312c0.1891 0.070903 0.39092 0.12484 0.58008 0.13672 0.31223 0.045677 0.70812 0.51463 0.81055 0.53711-0.0502-0.49293-0.53886-0.7147-0.94531-0.85938-0.47486-0.23212-1.1846-0.22336-1.2598-0.86524-0.01999-0.044722-0.04015-0.089888-0.06445-0.13281l-0.18555-0.24609 0.0078-0.00391c-0.25244-0.29952-0.60883-0.51825-0.98633-0.60156-0.3747-0.13003-0.79512-0.25886-1.1914-0.31055-0.13449 0.39808-0.28403-0.31519-0.60742-0.10352-0.28347 0.033748-0.24404 0.10829-0.45508-0.072266zm2.0371 1.1621c0.10267-0.00269 0.21995 0.017627 0.33789 0.058594 0.3145 0.10924 0.51934 0.33801 0.45898 0.51367-0.06037 0.17565-0.36519 0.22838-0.67969 0.11914s-0.51934-0.33606-0.45898-0.51172c0.037726-0.10978 0.17069-0.17515 0.3418-0.17969zm-2.6992 0.056641c-0.022192-0.00291-0.093313 0.039595-0.10742 0.037109-0.05575-0.00982-0.084809-0.020437-0.097656-0.025391 0.06858 0.00314 0.1373-7.837e-4 0.20508-0.011719z" style="fill-opacity:.5;fill:currentColor"/>
</svg>
