<?xml version="1.0" encoding="UTF-8"?>
<svg id="g" width="18" height="18" version="1.1" xmlns="http://www.w3.org/2000/svg" xmlns:cc="http://creativecommons.org/ns#" xmlns:dc="http://purl.org/dc/elements/1.1/" xmlns:rdf="http://www.w3.org/1999/02/22-rdf-syntax-ns#">
	<metadata id="a">
		<rdf:RDF>
			<cc:Work rdf:about="">
				<dc:format>image/svg+xml</dc:format>
				<dc:type rdf:resource="http://purl.org/dc/dcmitype/StillImage"/>
			</cc:Work>
		</rdf:RDF>
	</metadata>
	<defs>
		<style id="current-color-scheme" type="text/css">.ColorScheme-Text {color:#090d11;}.ColorScheme-Background{color:#ffffff;}</style>
	</defs>
	<path id="f" class="ColorScheme-Text" d="m8.9746 3v8.6914c0.81922 0.04894 1.7507-0.14065 2.334-0.41797v-1.8711h0.65625c0.37907 0 0.68043 0.098467 0.90625 0.28711 0.83041 1.0696 0.66406 3.6191 0.66406 3.6191h2.4785c0.09461-1.4498-0.32428-3.7217-0.91602-4.2578-0.25004-0.29447-0.53886-0.47771-0.85742-0.56055 0.5807-0.20705 1.0145-0.53163 1.3008-0.96875 0.29037-0.43709 0.43356-1.0007 0.43359-1.6816-3.1e-5 -0.98468-0.27162-1.7027-0.82812-2.1582-0.33849-0.27906-0.84032-0.44266-1.418-0.55078l-0.77148 1.7832c0.14284 0.094988 0.26729 0.21253 0.37695 0.31836 0.21372 0.20248 0.31836 0.5346 0.31836 1.0039 0 0.47393-0.10464 0.81445-0.31836 1.0215-0.20974 0.20709-0.56478 0.30863-1.0527 0.30859h-0.97266l2e-3 -4.5664zm-1.5 2.873c-3.0374-2.138e-4 -5.4997 2.042-5.5 4.5625-2.785e-4 2.5208 2.4623 4.5646 5.5 4.5645 2.0354-3.2e-5 3.8107-0.91751 4.7617-2.2812h-1.3066c-0.56687 0.32431-1.2471 0.5117-1.9805 0.51172-1.9707-5.8e-5 -3.5689-1.3643-3.5684-3.0488 1.295e-4 -1.3955 1.0969-2.5693 2.5938-2.9316v-1.3574c-0.16472-0.012322-0.33141-0.019528-0.5-0.019531z" style="fill-opacity:.75;fill:currentColor"/>
	<path class="ColorScheme-Background" d="m8.9746 2c-0.55226 5.52e-5 -0.99994 0.44774-1 1v1.8926c-0.16178-0.010858-0.32658-0.019528-0.5-0.019531-3.486-2.454e-4 -6.4996 2.3908-6.5 5.5625-3.5038e-4 3.1721 3.0139 5.5647 6.5 5.5645 2.1439-3.4e-5 3.9922-0.94798 5.1953-2.3828 0.12282 0.38371 0.46389 0.65625 0.86523 0.69141h2.4785c0.52654-1e-3 0.96211-0.41011 0.99609-0.93555 0.05576-0.85447-0.03476-1.8361-0.21875-2.7363-0.092-0.4501-0.2056-0.8764-0.35547-1.2617-0.12864-0.33074-0.30722-0.62717-0.57227-0.91602 0.15112-0.1512 0.39199-0.20567 0.50977-0.38477v-0.00195c0.42531-0.64106 0.60152-1.412 0.60156-2.2324-3.6e-5 -1.1675-0.36382-2.2493-1.1934-2.9297-0.56512-0.46589-1.2155-0.63938-1.8691-0.76172-0.45894-0.085758-0.91616 0.15744-1.1016 0.58594l-0.5 1.1562v-0.89062c-5.5e-5 -0.55226-0.44774-0.99994-1-1zm0 1h2.3359l-2e-3 4.5664h0.97266c0.48796 3.46e-5 0.84299-0.10151 1.0527-0.30859 0.21372-0.20704 0.31836-0.54755 0.31836-1.0215 0-0.46931-0.10464-0.80143-0.31836-1.0039-0.10962-0.10583-0.23407-0.22337-0.37691-0.31836l0.77148-1.7832c0.57765 0.10812 1.0795 0.27172 1.418 0.55078 0.55651 0.45551 0.82809 1.1735 0.82812 2.1582-3.1e-5 0.68097-0.14322 1.2446-0.43359 1.6816-0.28633 0.43712-0.72008 0.7617-1.3008 0.96875 0.31856 0.082836 0.60738 0.26608 0.85742 0.56055 0.59174 0.53614 1.0106 2.808 0.91602 4.2578h-2.4785s0.16635-2.5495-0.66406-3.6191c-0.22582-0.18864-0.52718-0.28711-0.90625-0.28711h-0.65625v1.8711c-0.5833 0.27732-1.5148 0.46691-2.334 0.41797zm3.334 2.4316c0.01372 0.10926 0.0454 0.21551 0.09375 0.31445 0.04513 0.030009 0.12369 0.098526 0.21875 0.18945-0.0014 0.00338 0.03125 0.074427 0.03125 0.30078 0 0.15286-0.01727 0.23888-0.0293 0.28516-0.04264 0.00746-0.14254 0.03561-0.31445 0.042969zm-4.834 0.44141c0.16859 2.7e-6 0.33528 0.00721 0.5 0.019531v1.3574c-1.4968 0.36237-2.5936 1.5361-2.5938 2.9316-5.809e-4 1.6845 1.5976 3.0488 3.5684 3.0488 0.73333-1.8e-5 1.4136-0.18741 1.9805-0.51172h1.3066c-0.95105 1.3637-2.7263 2.2812-4.7617 2.2812-3.0377 1.84e-4 -5.5003-2.0436-5.5-4.5645 2.904e-4 -2.5205 2.4626-4.5627 5.5-4.5625zm8.293 2.4355 0.0918 0.09375c-0.01456-0.017146-0.03976-0.018378-0.05469-0.035156-0.01886-0.018346-0.017-0.04037-0.03711-0.058594zm-7.793 0.044922v3.3379c0.072915 0.12139 0.17078 0.22591 0.28711 0.30664-1.0762-0.27478-1.8812-0.95978-1.8809-1.8164 7.38e-5 -0.79509 0.63686-1.4959 1.5938-1.8281zm4.334 2.8262c0.06074 0.23444 0.13132 0.36546 0.16406 0.62891-0.07466-0.03982-0.15407-0.07001-0.23633-0.08984h-0.20898c0.13186-0.12064 0.22897-0.27441 0.28125-0.44531z" style="fill-opacity:.5;fill:currentColor"/>
</svg>
