<?xml version="1.0" encoding="UTF-8"?>
<svg id="g" width="18" height="18" version="1.1" xmlns="http://www.w3.org/2000/svg" xmlns:cc="http://creativecommons.org/ns#" xmlns:dc="http://purl.org/dc/elements/1.1/" xmlns:rdf="http://www.w3.org/1999/02/22-rdf-syntax-ns#">
	<metadata id="a">
		<rdf:RDF>
			<cc:Work rdf:about="">
				<dc:format>image/svg+xml</dc:format>
				<dc:type rdf:resource="http://purl.org/dc/dcmitype/StillImage"/>
			</cc:Work>
		</rdf:RDF>
	</metadata>
	<defs>
		<style id="current-color-scheme" type="text/css">.ColorScheme-Text {color:#090d11;}.ColorScheme-Background{color:#ffffff;}</style>
	</defs>
	<path class="ColorScheme-Background" d="m4 1c-1.6447 0-3 1.3553-3 3v10c0 1.6447 1.3553 3 3 3h10c1.6447 0 3-1.3553 3-3v-10c0-1.6447-1.3553-3-3-3zm0 1h10c1.108 0 2 0.892 2 2v10c0 1.108-0.892 2-2 2h-10c-1.108 0-2-0.892-2-2v-10c0-1.108 0.892-2 2-2zm5.207 1.4043c-0.59484 1.634e-4 -1.0764 0.48479-1.0762 1.082-2.094e-4 0.59724 0.48134 1.0819 1.0762 1.082 0.59549 7.674e-4 1.0783-0.48413 1.0781-1.082 2.1e-4 -0.5979-0.48263-1.0828-1.0781-1.082zm-2.752 2.2832c-0.59484 1.634e-4 -1.0764 0.48479-1.0762 1.082-2.093e-4 0.59724 0.48134 1.0819 1.0762 1.082 0.59484-1.634e-4 1.0764-0.48479 1.0762-1.082 2.094e-4 -0.59724-0.48134-1.0819-1.0762-1.082zm4.9102 0.16602c-0.59483 1.632e-4 -1.0764 0.48479-1.0762 1.082 7.12e-4 0.59659 0.48199 1.0799 1.0762 1.0801 0.59418-1.63e-4 1.0755-0.48349 1.0762-1.0801 2.09e-4 -0.59724-0.48134-1.0819-1.0762-1.082zm-2.4004 2.0547c-0.59549-7.675e-4 -1.0783 0.48413-1.0781 1.082-2.102e-4 0.5979 0.48263 1.0808 1.0781 1.0801 0.59484-1.63e-4 1.0764-0.48284 1.0762-1.0801 2.09e-4 -0.59724-0.48134-1.0819-1.0762-1.082zm4.5137 0.69336c-0.59549-7.673e-4 -1.0783 0.48413-1.0781 1.082-2.11e-4 0.5979 0.48264 1.0828 1.0781 1.082 0.59484-1.63e-4 1.0764-0.48479 1.0762-1.082 2.08e-4 -0.59724-0.48134-1.0819-1.0762-1.082zm-9.418 0.76562c-0.59484 1.634e-4 -1.0764 0.48479-1.0762 1.082-2.096e-4 0.59724 0.48134 1.0799 1.0762 1.0801 0.59549 7.67e-4 1.0803-0.48218 1.0801-1.0801 2.101e-4 -0.5979-0.48459-1.0828-1.0801-1.082zm6.9941 1.0879c-0.59418 0.0011-1.0744 0.48545-1.0742 1.082-2.105e-4 0.59658 0.48004 1.0809 1.0742 1.082 0.59549 7.68e-4 1.0783-0.48413 1.0781-1.082 2.12e-4 -0.5979-0.48264-1.0828-1.0781-1.082zm-4.5352 1.5801c-0.59484 1.64e-4 -1.0764 0.48479-1.0762 1.082-2.092e-4 0.59724 0.48134 1.0819 1.0762 1.082 0.59484-1.64e-4 1.0783-0.48479 1.0781-1.082 2.096e-4 -0.59724-0.48329-1.0819-1.0781-1.082zm7.3555 0.20117c-0.59484 1.63e-4 -1.0783 0.48479-1.0781 1.082 7.13e-4 0.59659 0.48394 1.0799 1.0781 1.0801 0.59418-1.64e-4 1.0755-0.48349 1.0762-1.0801 2.1e-4 -0.59724-0.48134-1.0819-1.0762-1.082z" style="fill-opacity:.5;fill:currentColor"/>
	<path class="ColorScheme-Text" d="m4 2c-1.108 0-2 0.892-2 2v10c0 1.108 0.892 2 2 2h10c1.108 0 2-0.892 2-2v-10c0-1.108-0.892-2-2-2zm5.207 1.4043c0.59549-7.675e-4 1.0783 0.48413 1.0781 1.082 2.1e-4 0.5979-0.48263 1.0828-1.0781 1.082-0.59484-1.634e-4 -1.0764-0.48479-1.0762-1.082-2.094e-4 -0.59724 0.48134-1.0819 1.0762-1.082zm-2.752 2.2832c0.59484 1.634e-4 1.0764 0.48479 1.0762 1.082 2.094e-4 0.59724-0.48134 1.0819-1.0762 1.082-0.59484-1.634e-4 -1.0764-0.48479-1.0762-1.082-2.093e-4 -0.59724 0.48134-1.0819 1.0762-1.082zm4.9102 0.16602c0.59484 1.635e-4 1.0764 0.48479 1.0762 1.082-7.13e-4 0.59659-0.48199 1.0799-1.0762 1.0801-0.59418-1.626e-4 -1.0755-0.48349-1.0762-1.0801-2.09e-4 -0.59724 0.48134-1.0819 1.0762-1.082zm-2.4004 2.0547c0.59484 1.634e-4 1.0764 0.48479 1.0762 1.082 2.09e-4 0.59724-0.48134 1.0799-1.0762 1.0801-0.59549 7.68e-4 -1.0783-0.48218-1.0781-1.0801-2.101e-4 -0.5979 0.48263-1.0828 1.0781-1.082zm4.5137 0.69336c0.59484 1.635e-4 1.0764 0.48479 1.0762 1.082 2.09e-4 0.59724-0.48134 1.0819-1.0762 1.082-0.59549 7.67e-4 -1.0783-0.48413-1.0781-1.082-2.11e-4 -0.5979 0.48264-1.0828 1.0781-1.082zm-9.418 0.76562c0.59549-7.674e-4 1.0803 0.48413 1.0801 1.082 2.103e-4 0.5979-0.48459 1.0808-1.0801 1.0801-0.59484-1.64e-4 -1.0764-0.48284-1.0762-1.0801-2.094e-4 -0.59724 0.48134-1.0819 1.0762-1.082zm6.9941 1.0879c0.59549-7.67e-4 1.0783 0.48413 1.0781 1.082 2.12e-4 0.5979-0.48264 1.0828-1.0781 1.082-0.59418-0.0011-1.0744-0.48545-1.0742-1.082-2.102e-4 -0.59658 0.48004-1.0809 1.0742-1.082zm-4.5352 1.5801c0.59484 1.64e-4 1.0783 0.48479 1.0781 1.082 2.091e-4 0.59724-0.48329 1.0819-1.0781 1.082-0.59484-1.64e-4 -1.0764-0.48479-1.0762-1.082-2.096e-4 -0.59724 0.48134-1.0819 1.0762-1.082zm7.3555 0.20117c0.59484 1.63e-4 1.0764 0.48479 1.0762 1.082-7.12e-4 0.59659-0.48199 1.0799-1.0762 1.0801-0.59418-1.63e-4 -1.0774-0.48349-1.0781-1.0801-2.09e-4 -0.59724 0.48329-1.0819 1.0781-1.082z" style="fill-opacity:.75;fill:currentColor"/>
</svg>
