<?xml version="1.0" encoding="UTF-8"?>
<svg id="a" width="18" height="18" version="1.1" xmlns="http://www.w3.org/2000/svg" xmlns:cc="http://creativecommons.org/ns#" xmlns:dc="http://purl.org/dc/elements/1.1/" xmlns:rdf="http://www.w3.org/1999/02/22-rdf-syntax-ns#">
	<metadata id="e">
		<rdf:RDF>
			<cc:Work rdf:about="">
				<dc:format>image/svg+xml</dc:format>
				<dc:type rdf:resource="http://purl.org/dc/dcmitype/StillImage"/>
			</cc:Work>
		</rdf:RDF>
	</metadata>
	<defs>
		<style id="current-color-scheme" type="text/css">.ColorScheme-Text{color:#090d11;}.ColorScheme-Background{color:#ffffff;}</style>
		<style type="text/css">.ColorScheme-Text{color:#090d11;}.ColorScheme-Background{color:#ffffff;}</style>
	</defs>
	<path id="f" class="ColorScheme-Text" d="m2.9531 3c-0.54708 0-0.95312 0.47949-0.95312 1v10c0 0.52051 0.40604 1 0.95312 1h12.094c0.54708 0 0.95312-0.47949 0.95312-1v-10c0-0.52051-0.40604-1-0.95312-1h-12.094zm0.046875 1h4.2929l1 1-1 1h-4.293v-2zm5.707 0h2.293v2.293l-2.293-2.293zm3.293 0h3v2.293l-2 2-1-1v-3.293zm-3 2.4902a2.5102 2.5102 0 0 1 2.5098 2.5098 2.5102 2.5102 0 0 1-2.5098 2.5098 2.5102 2.5102 0 0 1-2.5098-2.5098 2.5102 2.5102 0 0 1 2.5098-2.5098zm-6 0.50977h3.293l-3.293 3.293v-3.293zm12 0.70703v3.293h-3.293l3.293-3.293zm-10 2 1 1v3.293h-3v-2.293l2-2zm2 2 2.293 2.293h-2.293v-2.293zm3.707 0.29297h4.293v2h-4.2929l-1-1 1-1z" style="fill-opacity:.75;fill:currentColor"/>
	<path id="h" class="ColorScheme-Background" d="m1.9531 2c-0.54708 0-0.95312 0.47949-0.95312 1v12c0 0.52051 0.40604 1 0.95312 1h14.094c0.54708 0 0.95312-0.47949 0.95312-1v-12c0-0.52051-0.40604-1-0.95312-1h-9.2539zm0.046875 1h5.793l2.3535 2.3535c0.19525 0.19521 0.51178 0.19521 0.70703 0 0.19521-0.19525 0.19521-0.51178 0-0.70703l-1.6465-1.6465h6.793v3.793l-3.3535 3.3535c-0.19521 0.19525-0.19521 0.51178 0 0.70703 0.19525 0.19521 0.51178 0.19521 0.70703 0l2.6465-2.6465v6.793h-5.793l-2.3535-2.3535c-0.093753-0.09377-0.22092-0.14646-0.35352-0.14648-0.1326 2e-5 -0.25976 0.05271-0.35352 0.14648-0.19521 0.19525-0.19521 0.51178 0 0.70703l1.6465 1.6465h-6.793v-3.793l3.3535-3.3535c0.19521-0.19525 0.19521-0.51178 0-0.70703-0.093753-0.093773-0.22092-0.14646-0.35352-0.14648-0.1326 2e-5 -0.25976 0.052712-0.35352 0.14648l-2.6465 2.6465v-4.793zm10 1v3.5c0 0.27614 0.22386 0.5 0.5 0.5s0.5-0.22386 0.5-0.5v-3.5zm-9 1v1h4.5c0.27614 0 0.5-0.22386 0.5-0.5s-0.22386-0.5-0.5-0.5zm2.5 5c-0.27614 0-0.5 0.22386-0.5 0.5v3.5h1v-3.5c0-0.27614-0.22386-0.5-0.5-0.5zm5 2c-0.27614 0-0.5 0.22386-0.5 0.5s0.22386 0.5 0.5 0.5h4.5v-1z" style="fill-opacity:.5;fill:currentColor"/>
</svg>
