<?xml version="1.0" encoding="UTF-8"?>
<svg id="c" width="18" height="18" version="1.1" xmlns="http://www.w3.org/2000/svg" xmlns:cc="http://creativecommons.org/ns#" xmlns:dc="http://purl.org/dc/elements/1.1/" xmlns:rdf="http://www.w3.org/1999/02/22-rdf-syntax-ns#">
	<metadata id="a">
		<rdf:RDF>
			<cc:Work rdf:about="">
				<dc:format>image/svg+xml</dc:format>
				<dc:type rdf:resource="http://purl.org/dc/dcmitype/StillImage"/>
				<dc:title/>
			</cc:Work>
		</rdf:RDF>
	</metadata>
	<defs id="k">
		<style id="current-color-scheme" type="text/css">.ColorScheme-Text {color:#090d11;}.ColorScheme-Background{color:#ffffff;}</style>
	</defs>
	<path id="d" class="ColorScheme-Text" d="m9 2c-3.866 0-7 3.134-7 7s3.134 7 7 7 7-3.134 7-7-3.134-7-7-7zm-0.875 3.8919c0.36021-0.00665 0.72135 0.00365 1.0816 0.030382 1.4411 0.10694 2.8807 0.49282 4.299 1.2518a0.5835 0.5835 0 1 1-0.55143 1.0285c-2.5523-1.3657-5.1059-1.3949-7.7732-0.72613a0.58343 0.58343 0 1 1-0.28407-1.1317c1.0691-0.26808 2.1474-0.43273 3.2281-0.45269zm-0.21115 2.3759c0.31119-0.0035 0.62507 0.00806 0.94181 0.033421 1.267 0.10145 2.5791 0.44185 3.9451 1.0953a0.5834 0.5834 0 1 1-0.50282 1.0527c-2.4985-1.1951-4.6593-1.2361-6.8207-0.676a0.5834 0.5834 0 1 1-0.29318-1.1287c0.88729-0.22996 1.7963-0.3663 2.7298-0.37674zm-0.027347 2.344c0.25083-0.0045 0.50218 0.0017 0.75499 0.01975 1.0113 0.07219 2.0456 0.34087 3.1628 0.94033a0.5835 0.5835 0 1 1-0.55143 1.0285c-1.9755-1.06-3.4428-0.94352-5.4293-0.58182a0.5834 0.5834 0 1 1-0.20812-1.1469c0.77053-0.1403 1.5185-0.24625 2.271-0.25976z" style="fill-opacity:.75;fill:currentColor"/>
	<path id="b" class="ColorScheme-Background" d="m9.207 1.0039c-0.19485-0.005595-0.38977-0.00293-0.58398 0.00586-1.2947 0.058584-2.5643 0.42742-3.6973 1.0977-2.751 1.6275-4.2724 4.7232-3.8789 7.8945 0.26846 2.1637 1.4145 4.1224 3.1699 5.4316 1.2267 0.91487 2.7116 1.4645 4.2363 1.5645 1.9993 0.13117 3.9771-0.48534 5.5312-1.7285 2.461-1.9685 3.539-5.1662 2.7734-8.2266-0.71067-2.8407-2.9604-5.0882-5.8008-5.7988-0.57904-0.14485-1.1654-0.22459-1.75-0.24023zm-0.54102 0.99609c0.68104-0.030807 1.3704 0.037274 2.0488 0.20703 2.482 0.62089 4.4571 2.5942 5.0781 5.0762 0.67274 2.6896-0.26956 5.4816-2.4316 7.2109-1.3591 1.0871-3.0903 1.6287-4.8437 1.5137-1.3299-0.08726-2.6402-0.57053-3.7109-1.3691-1.5404-1.1489-2.5423-2.8631-2.7773-4.7578-0.3453-2.7831 0.98585-5.4895 3.4004-6.918 0.99194-0.58683 2.1015-0.91155 3.2363-0.96289zm-0.54102 3.8926c-1.0806 0.019958-2.1594 0.1831-3.2285 0.45117a0.58408 0.58408 0 0 0 0.28516 1.1328c2.6673-0.66882 5.2212-0.63914 7.7734 0.72656a0.5837 0.5837 0 1 0 0.55078-1.0293c-1.4183-0.75894-2.8578-1.145-4.2988-1.252-0.36023-0.026732-0.72182-0.035947-1.082-0.029297zm-0.21094 2.375c-0.93357 0.010438-1.8432 0.147-2.7305 0.37695a0.5834 0.5834 0 1 0 0.29297 1.1289c2.1614-0.56012 4.3238-0.51935 6.8223 0.67578a0.5834 0.5834 0 1 0 0.50195-1.0527c-1.366-0.65342-2.6783-0.99425-3.9453-1.0957-0.31674-0.025361-0.63022-0.036703-0.94141-0.033203zm-0.027344 2.3438c-0.7525 0.01351-1.501 0.11947-2.2715 0.25977a0.5834 0.5834 0 1 0 0.20898 1.1465c1.9865-0.36171 3.4523-0.478 5.4277 0.58203a0.58348 0.58348 0 1 0 0.55274-1.0273c-1.1172-0.59947-2.1528-0.86921-3.1641-0.94141-0.25281-0.01804-0.50307-0.02404-0.75391-0.01953z" style="fill-opacity:.5;fill:currentColor"/>
</svg>
