<?xml version="1.0" encoding="UTF-8"?>
<svg id="d" width="18" height="18" version="1.1" xmlns="http://www.w3.org/2000/svg" xmlns:cc="http://creativecommons.org/ns#" xmlns:dc="http://purl.org/dc/elements/1.1/" xmlns:rdf="http://www.w3.org/1999/02/22-rdf-syntax-ns#">
	<metadata id="a">
		<rdf:RDF>
			<cc:Work rdf:about="">
				<dc:format>image/svg+xml</dc:format>
				<dc:type rdf:resource="http://purl.org/dc/dcmitype/StillImage"/>
				<dc:title/>
			</cc:Work>
		</rdf:RDF>
	</metadata>
	<defs id="e">
		<style id="current-color-scheme" type="text/css">.ColorScheme-Text {color:#090d11;}.ColorScheme-Background{color:#ffffff;}</style>
	</defs>
	<path id="c" class="ColorScheme-Text" d="m12.5 2c-1.933 0-3.5 1.567-3.5 3.5l-3.25 4.5312c-0.084-9e-3 -0.1637-0.0312-0.25-0.0312-0.5934 0-1.1344 0.21848-1.5625 0.5625l-2.9375-1.75v2.125l2.0313 1.2813c-0.01 0.0917-0.031 0.18581-0.031 0.28125 0 1.3807 1.1193 2.5 2.5 2.5s2.5-1.1193 2.5-2.5c0-0.0863-0.023-0.16596-0.031-0.25l4.5625-3.25c1.9186-0.0168 3.4687-1.5774 3.4687-3.5 0-1.933-1.567-3.5-3.5-3.5z" style="fill-opacity:.75;fill:currentColor"/>
	<path id="b" class="ColorScheme-Background" d="m12.5 0.84375c-2.3677 0-4.2554 1.8275-4.5312 4.125l-2.875 4.0312c-0.3581 0.0474-0.65415 0.2017-0.96875 0.34375l-2.5312-1.5312-0.59375-0.34375v1.3438l2.9375 1.75c0.4281-0.34402 0.9691-0.5625 1.5625-0.5625 0.086 0 0.166 0.02235 0.25 0.03125l3.25-4.5312c0-1.933 1.567-3.5 3.5-3.5s3.5 1.567 3.5 3.5c0 1.9226-1.5502 3.4832-3.4688 3.5l-4.5625 3.25c0.01 0.084 0.03125 0.1637 0.03125 0.25 0 1.3807-1.1193 2.5-2.5 2.5s-2.5-1.1193-2.5-2.5c0-0.0954 0.02125-0.18955 0.03125-0.28125l-2.0312-1.2813v1.3438l0.9375 0.59375c0.1985 1.8204 1.693 3.2812 3.5625 3.2812 1.8696 0 3.3952-1.4608 3.5938-3.2812l3.9688-2.8125c2.2918-0.28166 4.0938-2.1993 4.0938-4.5625 0-2.5101-2.0372-4.5539-4.5312-4.625v-0.03125h-0.0625c-0.021-2.9e-4 -0.0405 0-0.0625 0z" style="fill-opacity:.5;fill:currentColor"/>
</svg>
