<?xml version="1.0" encoding="UTF-8"?>
<svg id="e" width="18" height="18" version="1.1" xmlns="http://www.w3.org/2000/svg" xmlns:cc="http://creativecommons.org/ns#" xmlns:dc="http://purl.org/dc/elements/1.1/" xmlns:rdf="http://www.w3.org/1999/02/22-rdf-syntax-ns#">
	<metadata id="a">
		<rdf:RDF>
			<cc:Work rdf:about="">
				<dc:format>image/svg+xml</dc:format>
				<dc:type rdf:resource="http://purl.org/dc/dcmitype/StillImage"/>
				<dc:title/>
			</cc:Work>
		</rdf:RDF>
	</metadata>
	<defs id="c">
		<style id="current-color-scheme" type="text/css">.ColorScheme-Text {color:#090d11;}.ColorScheme-Background{color:#ffffff;}</style>
	</defs>
	<path id="b" class="ColorScheme-Text" d="m8.5 2c-1.385 0-2.5 1.115-2.5 2.5v5.5547c-0.64 0.6532-0.9989 1.5309-1 2.4453-1e-4 1.933 1.567 3.5001 3.5 3.5 1.933 1e-4 3.5-1.567 3.5-3.5 4e-4 -0.9165-0.3586-1.7966-1-2.4512v-5.5488c0-1.385-1.115-2.5-2.5-2.5zm0 2c0.2943 0 0.5 0.2057 0.5 0.5v6.5039l0.4004 0.3008c0.3777 0.2833 0.5989 0.7252 0.5996 1.1973-1e-3 0.8393-0.6604 1.498-1.5 1.498-0.8402 0-1.5-0.6598-1.5-1.5 4e-4 -0.4726 0.2235-0.9138 0.6016-1.1973l0.3984-0.3007v-6.502c0-0.2943 0.2057-0.5 0.5-0.5zm3.5 0v1h3v-1zm0 2v1h3v-1zm0 2v1h3v-1z" style="color:#090d11;fill-opacity:.75;fill:currentColor"/>
	<path id="d" class="ColorScheme-Background" d="m8.5 0.94336v0.00195c-1.9485 0-3.5508 1.6023-3.5508 3.5508v5.2773c-0.6032 0.7883-0.9988 1.7183-1 2.7207 0 2.5005 2.0503 4.5508 4.5508 4.5508s4.5508-2.0503 4.5508-4.5508c5e-4 -1.0052-0.3952-1.9382-1-2.7285v-5.2715c0-1.9485-1.6023-3.5508-3.5508-3.5508zm0 1.0566c1.385 0 2.5 1.115 2.5 2.5v5.5488c0.6414 0.6546 1.0004 1.5347 1 2.4512 0 1.933-1.567 3.5001-3.5 3.5-1.933 1e-4 -3.5001-1.567-3.5-3.5 0-0.9144 0.36-1.7921 1-2.4453v-5.5547c0-1.385 1.115-2.5 2.5-2.5zm4.5 1v1h3v-1zm0 2v1h3v-1zm0 2v1h3v-1zm-4.5-3c-0.2943 0-0.5 0.2057-0.5 0.5v6.5019l-0.39844 0.30078c-0.3781 0.2835-0.60116 0.72467-0.60156 1.1973 0 0.8402 0.6598 1.5 1.5 1.5 0.8396 0 1.499-0.65875 1.5-1.498-7e-4 -0.4721-0.22191-0.91397-0.59961-1.1973l-0.40039-0.30078v-6.5039c0-0.2943-0.2057-0.5-0.5-0.5zm4.5 5v1h3v-1z" style="color:#ffffff;fill-opacity:.5;fill:currentColor"/>
</svg>
