<?xml version="1.0" encoding="UTF-8"?>
<svg id="g" width="18" height="18" version="1.1" xmlns="http://www.w3.org/2000/svg" xmlns:cc="http://creativecommons.org/ns#" xmlns:dc="http://purl.org/dc/elements/1.1/" xmlns:rdf="http://www.w3.org/1999/02/22-rdf-syntax-ns#">
	<metadata id="a">
		<rdf:RDF>
			<cc:Work rdf:about="">
				<dc:format>image/svg+xml</dc:format>
				<dc:type rdf:resource="http://purl.org/dc/dcmitype/StillImage"/>
			</cc:Work>
		</rdf:RDF>
	</metadata>
	<defs>
		<style id="current-color-scheme" type="text/css">.ColorScheme-Text {color:#090d11;}.ColorScheme-Background{color:#ffffff;}</style>
	</defs>
	<path id="f" class="ColorScheme-Text" d="m9 2c-3.8813 0-7.0273 3.146-7.0273 7.0273 0 0.33021 0.024296 0.65457 0.068359 0.97266h6.7324c-0.44252-0.1031-0.77344-0.49873-0.77344-0.97266 0-0.5523 0.4477-1 1-1s1 0.4477 1 1c0 0.47393-0.33091 0.86955-0.77344 0.97266h1.6699c0.09321-0.19197 0.15997-0.3988 0.19727-0.61523l3.6484 0.61523h1.2168c0.04406-0.31809 0.06836-0.64244 0.06836-0.97266 0-3.8813-3.146-7.0273-7.0273-7.0273zm-2.0781 1.5547 1.3438 3.4902c-0.1216 0.046-0.24742 0.09025-0.35742 0.15625l-2.1484-3.0645c0.3619-0.2406 0.74961-0.42563 1.1621-0.58203zm-1.6523 0.94922 2.2812 2.9414c-0.3416 0.3131-0.56243 0.75006-0.64453 1.2266l-3.6836-0.62305c0.2373-1.4255 0.97898-2.6636 2.0469-3.5449zm-1.2695 6.4961c-0.554 0-1 0.446-1 1v3c0 0.554 0.446 1 1 1h6c0.554 0 1-0.446 1-1h3.5a0.50005 0.50005 0 0 0 0.5-0.5v-2a0.50005 0.50005 0 0 0-0.5-0.5h-3.5c0-0.554-0.446-1-1-1zm7 2h3v1h-3z" style="fill-opacity:.75;fill:currentColor"/>
</svg>
