<?xml version="1.0" encoding="UTF-8"?>
<svg id="a" width="18" height="18" version="1.1" xmlns="http://www.w3.org/2000/svg" xmlns:cc="http://creativecommons.org/ns#" xmlns:dc="http://purl.org/dc/elements/1.1/" xmlns:rdf="http://www.w3.org/1999/02/22-rdf-syntax-ns#">
	<metadata id="c">
		<rdf:RDF>
			<cc:Work rdf:about="">
				<dc:format>image/svg+xml</dc:format>
				<dc:type rdf:resource="http://purl.org/dc/dcmitype/StillImage"/>
			</cc:Work>
		</rdf:RDF>
	</metadata>
	<defs>
		<style id="current-color-scheme" type="text/css">.ColorScheme-Text {color:#090d11;}.ColorScheme-Background{color:#ffffff;}</style>
	</defs>
	<path id="b" class="ColorScheme-Text" d="m3 2c-0.554 0-1 0.446-1 1v12c0 0.554 0.446 1 1 1h12c0.554 0 1-0.446 1-1v-12c0-0.54803-0.43674-0.99053-0.98242-1l-1.8516 2.7773c-0.15318 0.22975-0.4636 0.29184-0.69336 0.13867-0.22975-0.15318-0.29184-0.4636-0.13867-0.69336l1.4824-2.2227h-1.7988l-1.8516 2.7773c-0.15318 0.22975-0.4636 0.29184-0.69336 0.13867-0.22975-0.15318-0.29184-0.4636-0.13867-0.69336l1.4824-2.2227h-1.7988l-1.8516 2.7773c-0.15318 0.22975-0.4636 0.29184-0.69336 0.13867-0.22975-0.15318-0.29184-0.4636-0.13867-0.69336l1.4824-2.2227h-1.7988l-1.8516 2.7773c-0.15318 0.22975-0.4636 0.29184-0.69336 0.13867-0.22975-0.15318-0.29184-0.4636-0.13867-0.69336l1.4824-2.2227zm4.5254 4.502c0.073777 0.00371 0.14582 0.023722 0.21094 0.058594l3.25 1.75c0.3486 0.18927 0.3486 0.68963 0 0.87891l-3.25 1.75c-0.33264 0.17834-0.73538-0.06203-0.73633-0.43945v-3.5c8.016e-4 -0.25664 0.19576-0.47101 0.45117-0.49609 0.024657-0.00249 0.049465-0.00314 0.074219-0.00195zm0.47461 1.334v1.8281l1.6973-0.91406zm2.9531 4.4141c0.01571-6.01e-4 0.03103 0 0.04687 0 0.50713 0 0.94768 0.31071 1.1426 0.75h1.3574c0.27614 0 0.5 0.22386 0.5 0.5s-0.22386 0.5-0.5 0.5h-1.3574c-0.1949 0.43929-0.63545 0.75-1.1426 0.75-0.50713 0-0.94768-0.31071-1.1426-0.75h-5.3574c-0.27614 0-0.5-0.22386-0.5-0.5s0.22386-0.5 0.5-0.5h5.3574c0.18881-0.42556 0.60862-0.73136 1.0957-0.75zm0.04687 0.75c-0.27614 0-0.5 0.22386-0.5 0.5s0.22386 0.5 0.5 0.5 0.5-0.22386 0.5-0.5-0.22386-0.5-0.5-0.5z" style="fill-opacity:.75;fill:currentColor"/>
</svg>
