<?xml version="1.0" encoding="UTF-8"?>
<!-- Created with Inkscape (http://www.inkscape.org/) -->
<svg width="18" height="18" version="1.1" xmlns="http://www.w3.org/2000/svg" xmlns:cc="http://creativecommons.org/ns#" xmlns:dc="http://purl.org/dc/elements/1.1/" xmlns:rdf="http://www.w3.org/1999/02/22-rdf-syntax-ns#">
	<metadata>
		<rdf:RDF>
			<cc:Work rdf:about="">
				<dc:format>image/svg+xml</dc:format>
				<dc:type rdf:resource="http://purl.org/dc/dcmitype/StillImage"/>
			</cc:Work>
		</rdf:RDF>
	</metadata>
	<defs>
		<style id="current-color-scheme" type="text/css">.ColorScheme-Background{color:#ffffff;}
			.ColorScheme-Text{color:#090d11;}</style>
	</defs>
	<path class="ColorScheme-Text" d="m3 3c-0.554 0-1 0.446-1 1v10c0 0.554 0.446 1 1 1h12c0.554 0 1-0.446 1-1v-10c0-0.554-0.446-1-1-1zm1 2h10v3h-10zm1 4h2v1h-2zm3 0h1v1h-1zm2 0h1v1h-1zm2 0h1v3h-2v-1h1zm-7 2h1v1h-1zm2 0h3v1h-3z" style="fill-opacity:.75;fill:currentColor"/>
	<path class="ColorScheme-Background" d="m2 2c-0.554 0-1 0.446-1 1v13c0 0.554 0.446 1 1 1h14c0.554 0 1-0.446 1-1v-13c0-0.554-0.446-1-1-1zm0 1h14v12h-14zm2 4v1h10v-1zm1 2v1h2v-1zm3 0v1h1v-1zm2 0v1h1v-1zm2 0v2h-1v1h2v-3zm-7 2v1h1v-1zm2 0v1h3v-1z" style="fill-opacity:.5;fill:currentColor"/>
</svg>
