<?xml version="1.0" encoding="UTF-8"?>
<!-- Created with Inkscape (http://www.inkscape.org/) -->
<svg width="18" height="18" version="1.1" xmlns="http://www.w3.org/2000/svg" xmlns:cc="http://creativecommons.org/ns#" xmlns:dc="http://purl.org/dc/elements/1.1/" xmlns:rdf="http://www.w3.org/1999/02/22-rdf-syntax-ns#">
	<metadata>
		<rdf:RDF>
			<cc:Work rdf:about="">
				<dc:format>image/svg+xml</dc:format>
				<dc:type rdf:resource="http://purl.org/dc/dcmitype/StillImage"/>
			</cc:Work>
		</rdf:RDF>
	</metadata>
	<defs>
		<style id="current-color-scheme" type="text/css">.ColorScheme-Background{color:#ffffff;}
			.ColorScheme-Text{color:#090d11;}</style>
	</defs>
	<path class="ColorScheme-Text" d="m3.7953 3.0002c-1.2713-0.016816-2.174 1.257-1.6376 2.3442 0.028714 0.058218 1.5672 2.6257 1.7729 2.9586 0.026628 0.043094 0.064139 0.1066 0.083234 0.14151 0.019096 0.034917 0.052875 0.092051 0.075604 0.12697 0.057354 0.088108 0.060144 0.092471 0.8802 1.4475 0.40285 0.66568 0.75439 1.2458 0.78102 1.2888 0.026628 0.04308 0.064161 0.1066 0.083234 0.14152 0.019076 0.03491 0.059363 0.10157 0.090171 0.14813s0.06645 0.10369 0.079072 0.12697c0.012627 0.02327 0.045295 0.0773 0.072136 0.12035 0.02684 0.04304 0.18839 0.30803 0.3593 0.58854s0.33228 0.54549 0.3586 0.58854c0.026323 0.04305 0.062305 0.10184 0.079767 0.13093 0.017459 0.0291 0.054831 0.09099 0.083234 0.13755 0.028399 0.04655 0.065773 0.10845 0.083234 0.13755 0.017459 0.0291 0.053444 0.08787 0.079766 0.13093 0.026323 0.04305 0.12202 0.20018 0.21294 0.34916 0.56107 0.91926 1.0593 1.1867 1.9844 1.064 0.33183-0.04401 0.65362-0.20341 0.91488-0.45298 0.1836-0.17538 0.27453-0.30382 0.59929-0.8438 0.09676-0.16088 0.19192-0.318 0.21155-0.34916 0.01964-0.03117 0.05709-0.09258 0.08323-0.13622s0.06931-0.11506 0.09572-0.15871 0.06231-0.10316 0.07977-0.13226c0.01747-0.0291 0.05345-0.08834 0.07976-0.1316 0.02633-0.04326 0.4374-0.72182 0.9135-1.5077 0.4761-0.7859 0.88561-1.4615 0.91003-1.5018 0.96979-1.6003 1.6957-2.8003 1.7264-2.8534 0.02177-0.037609 0.06173-0.10374 0.08878-0.14747 0.21235-0.34316 0.74433-1.2268 0.79142-1.3146 0.40298-0.75124 0.14154-1.7064-0.59027-2.1578-1.5028-0.92683-3.8256 0.64852-3.069 2.1953 0.92896 1.899-0.64504 3.5492-2.1356 3.549-1.2153-1.778e-4 -1.6774-0.17273-2.4273-1.4102-0.024415-0.040286-0.38839-0.64227-0.80876-1.3378-0.87695-1.4509-1.1273-1.8639-1.1868-1.9587-0.023252-0.037052-0.053642-0.086496-0.067281-0.10977-0.51761-0.88338-0.92116-1.1762-1.6695-1.2101-0.02036-9.158e-4 -0.04086-0.00171-0.061039-0.00198z" style="fill-opacity:.75;fill:currentColor"/>
</svg>
