<?xml version="1.0" encoding="UTF-8"?>
<!-- Created with Inkscape (http://www.inkscape.org/) -->
<svg width="18" height="18" version="1.1" xmlns="http://www.w3.org/2000/svg" xmlns:cc="http://creativecommons.org/ns#" xmlns:dc="http://purl.org/dc/elements/1.1/" xmlns:rdf="http://www.w3.org/1999/02/22-rdf-syntax-ns#">
	<defs>
		<style id="current-color-scheme" type="text/css">.ColorScheme-Text {color:#090d11;}.ColorScheme-Background{color:#ffffff;}</style>
	</defs>
	<metadata>
		<rdf:RDF>
			<cc:Work rdf:about="">
				<dc:format>image/svg+xml</dc:format>
				<dc:type rdf:resource="http://purl.org/dc/dcmitype/StillImage"/>
			</cc:Work>
		</rdf:RDF>
	</metadata>
	<path id="d" class="ColorScheme-Text" d="m14.043 2.1191c-0.3373 0.00744-0.66197 0.1871-0.84375 0.50195-0.277 0.47978-0.11454 1.0882 0.36523 1.3652l0.86719 0.5c0.47978 0.277 1.0882 0.11454 1.3652-0.36523 0.277-0.47978 0.11454-1.0902-0.36523-1.3672l-0.86719-0.5c-0.11994-0.06925-0.24804-0.1108-0.37695-0.12695-0.04834-0.00606-0.09635-0.00888-0.14453-0.00781zm-11.695 0.38086 4.2441 11.732 0.14453-2.4023 1.2207-2.1152-2.6094-7.2148zm9.8516 1.8535-4.5 7.793-0.20117 3.3496 2.7988-1.8496 4.5-7.793z" style="fill-opacity:.75;fill:currentColor"/>
</svg>
