<?xml version="1.0" encoding="UTF-8"?>
<!-- Created with Inkscape (http://www.inkscape.org/) -->
<svg width="18" height="18" version="1.1" xmlns="http://www.w3.org/2000/svg" xmlns:cc="http://creativecommons.org/ns#" xmlns:dc="http://purl.org/dc/elements/1.1/" xmlns:rdf="http://www.w3.org/1999/02/22-rdf-syntax-ns#">
	<defs>
		<style id="current-color-scheme" type="text/css">.ColorScheme-Text {color:#090d11;}
			.ColorScheme-Background{color:#ffffff;}</style>
	</defs>
	<metadata>
		<rdf:RDF>
			<cc:Work rdf:about="">
				<dc:format>image/svg+xml</dc:format>
				<dc:type rdf:resource="http://purl.org/dc/dcmitype/StillImage"/>
			</cc:Work>
		</rdf:RDF>
	</metadata>
	<path class="ColorScheme-Text" d="m16 2-8 6-6 8 8-6zm-7.1855 0.00195c-1.7518 0.046849-3.4655 0.75029-4.7617 2.0449-2.1069 2.1043-2.6508 5.3168-1.3555 7.998 0.12023 0.24868 0.41934 0.35276 0.66797 0.23242 0.24868-0.12023 0.35276-0.41934 0.23242-0.66797-0.40249-0.83312-0.59749-1.725-0.59766-2.6094h2v-1h-1.916c0.2029-1.2018 0.77066-2.3421 1.6758-3.2461 0.70088-0.7 1.5427-1.198 2.4453-1.4805-0.48233 0.79222-0.80588 1.8809-1.0098 3.1621-0.044503 0.27364 0.14213 0.53125 0.41602 0.57422 0.27295 0.043309 0.52926-0.14302 0.57227-0.41602 0.27394-1.7215 0.87806-3.0002 1.3887-3.4121 0.13314-0.10741 0.23701-0.16298 0.33398-0.18164 0.052162-8.077e-4 0.10403 0.0014 0.15625 0.00195 0.035954 0.00657 0.072579 0.015307 0.11133 0.029297 0.19948 0.072019 0.4844 0.30957 0.75977 0.77539 0.14055 0.23688 0.44621 0.31548 0.68359 0.17578 0.23806-0.14061 0.31681-0.44773 0.17578-0.68555-0.0052-0.00874-0.01043-0.016725-0.01563-0.025391 0.28463 0.088494 0.56563 0.19718 0.83984 0.33008 0.24863 0.12033 0.54774 0.016259 0.66797-0.23242 0.12033-0.24863 0.01626-0.54774-0.23242-0.66797-0.66992-0.32467-1.373-0.53571-2.084-0.63476-0.26661-0.037146-0.53529-0.05822-0.80273-0.064453-0.11701-0.00273-0.23477-0.00312-0.35156 0zm5.9668 3.5977c-0.06522 0.00451-0.12892 0.021759-0.1875 0.050781-0.24798 0.12314-0.34868 0.42436-0.22461 0.67188 0.42508 0.85222 0.63085 1.7689 0.63086 2.6777h-2v1h1.916c-0.20356 1.203-0.77316 2.3451-1.6816 3.25-0.69938 0.69664-1.539 1.1923-2.4375 1.4746 0.47538-0.78296 0.79522-1.8574 1-3.1211 0.04464-0.27234-0.13981-0.52934-0.41211-0.57422-0.27299-0.04457-0.53029 0.14097-0.57422 0.41406-0.28229 1.742-0.90772 3.0179-1.416 3.4004-0.12085 0.09095-0.21589 0.13895-0.30469 0.15625-0.05266 8.06e-4 -0.10549 5.83e-4 -0.1582 0-0.044757-0.0091-0.090205-0.02526-0.14062-0.04687-0.21058-0.09027-0.50652-0.36011-0.7832-0.86133-0.13301-0.24122-0.43605-0.32942-0.67773-0.19727-0.24237 0.13305-0.33075 0.43755-0.19727 0.67969 0.030106 0.05454 0.060678 0.10623 0.091797 0.1582-0.31378-0.09738-0.62316-0.2216-0.92383-0.37305-0.24648-0.12462-0.54731-0.0258-0.67188 0.2207-0.12434 0.247-0.024586 0.54802 0.22266 0.67188 2.6915 1.3557 5.9527 0.83382 8.0879-1.293 2.1351-2.1268 2.6694-5.3872 1.3242-8.084-0.05945-0.11832-0.16341-0.20823-0.28906-0.25-0.06216-0.021073-0.12786-0.0297-0.19336-0.025391zm-5.7812 2.4004c0.55228 0 1 0.44772 1 1s-0.44772 1-1 1-1-0.44772-1-1 0.44772-1 1-1z" style="fill:currentColor;opacity:.75"/>
</svg>
