<?xml version="1.0" encoding="UTF-8"?>
<svg id="d" width="18" height="18" version="1.1" xmlns="http://www.w3.org/2000/svg" xmlns:cc="http://creativecommons.org/ns#" xmlns:dc="http://purl.org/dc/elements/1.1/" xmlns:rdf="http://www.w3.org/1999/02/22-rdf-syntax-ns#">
	<metadata id="b">
		<rdf:RDF>
			<cc:Work rdf:about="">
				<dc:format>image/svg+xml</dc:format>
				<dc:type rdf:resource="http://purl.org/dc/dcmitype/StillImage"/>
				<dc:title/>
			</cc:Work>
		</rdf:RDF>
	</metadata>
	<defs>
		<style id="current-color-scheme" type="text/css">.ColorScheme-Text {color:#090d11;}.ColorScheme-Background{color:#ffffff;}</style>
	</defs>
	<path id="a"  d="m9 1.8457-5.1035 2.9453v4.3398h2v-3.1855l3.1035-1.791 3.1035 1.791v0.10938l-8.207 4.7344v2.4199l5.1035 2.9453 5.1035-2.9453v-4.3398h-2v3.1855l-3.1035 1.791-3.1035-1.791v-0.10938l8.207-4.7363v-2.418z" style="fill-opacity:.75;fill:currentColor" class="ColorScheme-Text"/>
	<path id="c"  d="m9 0.69141-0.5 0.28906-5.6035 3.2324v5.918h0.13867l-0.13867 0.08008v3.5762l6.1035 3.5215 6.1035-3.5215v-5.918h-0.14258l0.14258-0.082033v-3.5742l-6.1035-3.5215zm0 1.1543 5.1035 2.9453v2.418l-8.207 4.7363v0.10938l3.1035 1.791 3.1035-1.791v-3.1855h2v4.3398l-5.1035 2.9453-5.1035-2.9453v-2.4199l8.207-4.7344v-0.10938l-3.1035-1.791-3.1035 1.791v3.1855h-2v-4.3398zm0 3.4629 1.1973 0.69141-3.3008 1.9043v-1.3809l2.1035-1.2148zm2.1035 4.7871v1.3809l-2.1035 1.2148-1.1973-0.69141 3.3008-1.9043z" style="fill-opacity:.5;fill:currentColor" class="ColorScheme-Background"/>
</svg>
