<?xml version="1.0" encoding="UTF-8"?>
<!-- Created with Inkscape (http://www.inkscape.org/) -->
<svg width="16" height="16" version="1.1" xmlns="http://www.w3.org/2000/svg" xmlns:cc="http://creativecommons.org/ns#" xmlns:dc="http://purl.org/dc/elements/1.1/" xmlns:rdf="http://www.w3.org/1999/02/22-rdf-syntax-ns#" xmlns:xlink="http://www.w3.org/1999/xlink">
	<defs>
		<radialGradient id="a" cx="-9.5" cy="11.9" r="6.5" gradientTransform="matrix(1.2 0 0 1.2308 19.4 -3.6461)" gradientUnits="userSpaceOnUse">
			<stop stop-color="#ffffff" stop-opacity=".74858" offset="0"/>
			<stop stop-color="#ffffff" stop-opacity=".60511" offset="1"/>
		</radialGradient>
		<radialGradient id="b" cx="321.62" cy="-95.751" r="7.254" gradientTransform="matrix(1.179,0,0,1.141,-370.69,124.25)" gradientUnits="userSpaceOnUse">
			<stop stop-color="#213851" stop-opacity=".9059" offset="0"/>
			<stop stop-color="#27303a" stop-opacity="0" offset="1"/>
		</radialGradient>
	</defs>
	<metadata>
		<rdf:RDF>
			<cc:Work rdf:about="">
				<dc:format>image/svg+xml</dc:format>
				<dc:type rdf:resource="http://purl.org/dc/dcmitype/StillImage"/>
				<dc:title/>
			</cc:Work>
		</rdf:RDF>
	</metadata>
	<path d="m3 1c-1.0907 0-2 0.9093-2 2v10c0 1.0907 0.9093 2 2 2h3v1h4v-1h3c1.0907 0 2-0.9093 2-2v-10c0-1.0907-0.9093-2-2-2zm0 2h10v10h-3v-1h0.5c0.82235 0 1.5-0.67765 1.5-1.5v-5c0-0.82235-0.67765-1.5-1.5-1.5h-5c-0.82235 0-1.5 0.67765-1.5 1.5v5c0 0.82235 0.67765 1.5 1.5 1.5h0.5v1h-3zm2.5 2h5c0.28565 0 0.5 0.21435 0.5 0.5v5c0 0.28565-0.21435 0.5-0.5 0.5h-5c-0.28565 0-0.5-0.21435-0.5-0.5v-5c0-0.28565 0.21435-0.5 0.5-0.5zm0.5 1v2 1c0 0.554 0.446 1 1 1h2c0.554 0 1-0.446 1-1v-1-1-1h-3zm1 1h2v1h-2z" color="#000000" color-rendering="auto" dominant-baseline="auto" fill="#090d11" fill-opacity=".76621" image-rendering="auto" shape-rendering="auto" solid-color="#000000" style="font-feature-settings:normal;font-variant-alternates:normal;font-variant-caps:normal;font-variant-ligatures:normal;font-variant-numeric:normal;font-variant-position:normal;isolation:auto;mix-blend-mode:normal;paint-order:normal;shape-padding:0;text-decoration-color:#000000;text-decoration-line:none;text-decoration-style:solid;text-indent:0;text-orientation:mixed;text-transform:none;white-space:normal"/>
	<path d="m3 1c-1.0907 0-2 0.9093-2 2v10c0 1.0907 0.9093 2 2 2h3v1h4v-1h3c1.0907 0 2-0.9093 2-2v-10c0-1.0907-0.9093-2-2-2zm0 2h10v10h-3v-1h0.5c0.82235 0 1.5-0.67765 1.5-1.5v-5c0-0.82235-0.67765-1.5-1.5-1.5h-5c-0.82235 0-1.5 0.67765-1.5 1.5v5c0 0.82235 0.67765 1.5 1.5 1.5h0.5v1h-3zm2.5 2h5c0.28565 0 0.5 0.21435 0.5 0.5v5c0 0.28565-0.21435 0.5-0.5 0.5h-5c-0.28565 0-0.5-0.21435-0.5-0.5v-5c0-0.28565 0.21435-0.5 0.5-0.5zm0.5 1v2 1c0 0.554 0.446 1 1 1h2c0.554 0 1-0.446 1-1v-1-1-1h-3zm1 1h2v1h-2z" color="#000000" color-rendering="auto" dominant-baseline="auto" fill="url(#b)" fill-opacity=".7533" image-rendering="auto" shape-rendering="auto" solid-color="#000000" style="font-feature-settings:normal;font-variant-alternates:normal;font-variant-caps:normal;font-variant-ligatures:normal;font-variant-numeric:normal;font-variant-position:normal;isolation:auto;mix-blend-mode:normal;paint-order:normal;shape-padding:0;text-decoration-color:#000000;text-decoration-line:none;text-decoration-style:solid;text-indent:0;text-orientation:mixed;text-transform:none;white-space:normal"/>
	<path d="m3 0c-1.6465 0-3 1.3535-3 3v10c0 1.6465 1.3535 3 3 3h2 1v-1h-3c-1.0907 0-2-0.9093-2-2v-10c0-1.0907 0.9093-2 2-2h10c1.0907 0 2 0.9093 2 2v10c0 1.0907-0.9093 2-2 2h-3v1h1 2c1.6465 0 3-1.3535 3-3v-10c0-1.6465-1.3535-3-3-3h-10zm0 3v10h3v-1h-0.5c-0.82235 0-1.5-0.67765-1.5-1.5v-5c0-0.82235 0.67765-1.5 1.5-1.5h5c0.82235 0 1.5 0.67765 1.5 1.5v5c0 0.82235-0.67765 1.5-1.5 1.5h-0.5v1h3v-10h-10zm2.5 2c-0.28565 0-0.5 0.21435-0.5 0.5v5c0 0.28565 0.21435 0.5 0.5 0.5h5c0.28565 0 0.5-0.21435 0.5-0.5v-5c0-0.28565-0.21435-0.5-0.5-0.5h-5zm0.5 1h1 3v1 1 1c0 0.554-0.446 1-1 1h-2c-0.554 0-1-0.446-1-1v-1-2zm1 1v1h2v-1h-2z" color="#000000" color-rendering="auto" dominant-baseline="auto" fill="url(#a)" fill-opacity=".99858" image-rendering="auto" shape-rendering="auto" solid-color="#000000" style="font-feature-settings:normal;font-variant-alternates:normal;font-variant-caps:normal;font-variant-east_asian:normal;font-variant-ligatures:normal;font-variant-numeric:normal;font-variant-position:normal;isolation:auto;mix-blend-mode:normal;paint-order:normal;shape-padding:0;text-decoration-color:#000000;text-decoration-line:none;text-decoration-style:solid;text-indent:0;text-orientation:mixed;text-transform:none;white-space:normal"/>
</svg>
