<?xml version="1.0" encoding="UTF-8"?>
<!-- Created with Inkscape (http://www.inkscape.org/) -->
<svg width="22" height="22" version="1.1" xmlns="http://www.w3.org/2000/svg" xmlns:cc="http://creativecommons.org/ns#" xmlns:dc="http://purl.org/dc/elements/1.1/" xmlns:rdf="http://www.w3.org/1999/02/22-rdf-syntax-ns#">
	<defs>
		<radialGradient id="a" cx="-9436.8" cy="5045.2" r="9" fx="-9432.2" fy="5037.9" gradientTransform="matrix(1.0156 0 0 .90278 9590.5 -4536.6)" gradientUnits="userSpaceOnUse">
			<stop stop-color="#213851" stop-opacity=".9059" offset="0"/>
			<stop stop-color="#27303a" stop-opacity="0" offset="1"/>
		</radialGradient>
		<radialGradient id="c" cx="-16.031" cy="22.561" r="10" gradientTransform="matrix(1.5577,0,0,1.402,30.431,-20.18)" gradientUnits="userSpaceOnUse">
			<stop stop-color="#ffffff" stop-opacity=".74858" offset="0"/>
			<stop stop-color="#ffffff" stop-opacity=".60511" offset="1"/>
		</radialGradient>
		<radialGradient id="b" cx="-6.3178" cy="16.621" r="10" gradientTransform="matrix(1.1022 .29533 -.21693 .80959 21.204 .6275)" gradientUnits="userSpaceOnUse">
			<stop stop-color="#ffffff" stop-opacity=".74858" offset="0"/>
			<stop stop-color="#ffffff" stop-opacity=".0092593" offset="1"/>
		</radialGradient>
	</defs>
	<metadata>
		<rdf:RDF>
			<cc:Work rdf:about="">
				<dc:format>image/svg+xml</dc:format>
				<dc:type rdf:resource="http://purl.org/dc/dcmitype/StillImage"/>
				<dc:title/>
			</cc:Work>
		</rdf:RDF>
	</metadata>
	<path d="m4 6v4.0488h-2v2.5449s3.1085-1.8988 5.7773-1.4453c2.6688 0.45347 4.1953 1.8456 5.8691 2.8457 1.6739 1 2.3535 1.0059 2.3535 1.0059v-9h-12z" fill="url(#b)" fill-opacity=".99858" style="paint-order:normal"/>
	<path d="m4 2v1h15v14h1v-15zm-2 2v6.0488h2v-4.0488h12v9s-0.67964-0.0058-2.3535-1.0059c-0.79219-0.47329-1.5571-1.0333-2.4199-1.541-0.84814-1.4133-0.74153-1.9261-0.30078-2.4434a0.30799 0.30799 0 0 0 0.01367 0.13867 0.30799 0.30799 0 0 0 0.0078 0.02148 0.30799 0.30799 0 0 0 0.36133 0.17383 0.25821 0.25821 0 0 1-2e-3 -0.0059 0.25821 0.25821 0 0 1 0.1582-0.32812 0.25821 0.25821 0 0 1 0.06836-0.01367 0.30799 0.30799 0 0 0-0.01172-0.04883 0.30799 0.30799 0 0 0-0.35742-0.19922c0.08029-0.08527 0.14701-0.15999 0.23438-0.25781l1.7207 2.4844s0.11843-1.63-0.02539-1.8457c-0.12571-0.18857-1.3462-0.71343-1.6895-0.85938 5e-3 -4e-3 0.02932-0.02266 0.03516-0.02734l2.9941-0.08984s-0.16696-0.89648-0.52734-0.95117c-0.27058-0.04107-1.4419 0.46993-2.1289 0.77734 0.24399-0.19328 0.36099-0.29215 0.68945-0.53711l-0.33197-0.20699 0.5957 0.01172c0.29198-0.20849 0.54696-0.37599 0.63086-0.37891 0.26783-0.00932-0.67677-0.51561-0.98633-0.47266-0.25108 0.034836-0.76155 1.1505-0.98047 1.6426l-2e-3 -0.27539-0.07031 0.41602c-0.0077 0.0035-0.05971 0.02711-0.06445 0.0293-7e-3 -3e-3 -0.08203-0.03711-0.08203-0.03711l0.03906 0.05664c-0.0023 1e-3 -0.05469 0.02344-0.05469 0.02344l0.07031-2e-3 0.03906 0.05859c-0.0036 0.0082-0.02497 0.05595-0.03711 0.08203-1.5944 0.73296-1.4675 1.2879-1.4609 2.3359-0.5959-0.24446-1.2476-0.44928-1.9941-0.57612-2.6688-0.45347-5.7773 1.4453-5.7773 1.4453v6.4062h16v-15zm9.5391 6.0625a0.18977 0.18977 0 0 0-0.04883 0.01172 0.18977 0.18977 0 0 0-0.11914 0.24023 0.18977 0.18977 0 0 0 0.24219 0.11719 0.18977 0.18977 0 0 0 0.11719-0.24024 0.18977 0.18977 0 0 0-0.17188-0.12891 0.18977 0.18977 0 0 0-0.01953-1e-6zm-0.63086 0.26367a0.22458 0.22458 0 0 0-0.03125 0.20312 0.22458 0.22458 0 0 0 0.0039 0.01367 0.22458 0.22458 0 0 0 0.28125 0.125 0.22458 0.22458 0 0 0 0.13867-0.28516 0.22458 0.22458 0 0 0-0.0098-0.01953 0.35169 0.35169 0 0 0 0.01172 0.05469 0.35169 0.35169 0 0 0 0.0039 0.0098 0.41949 0.41949 0 0 1-0.39844-0.10156z" color="#000000" fill="#090d11" fill-opacity=".76621" style="paint-order:normal;text-decoration-line:none;text-indent:0;text-transform:none"/>
	<path d="m4 2v1h15v14h1v-15zm-2 2v6.0488h2v-4.0488h12v9s-0.67964-0.0058-2.3535-1.0059c-0.79219-0.47329-1.5571-1.0333-2.4199-1.541-0.84814-1.4133-0.74153-1.9261-0.30078-2.4434a0.30799 0.30799 0 0 0 0.01367 0.13867 0.30799 0.30799 0 0 0 0.0078 0.02148 0.30799 0.30799 0 0 0 0.36133 0.17383 0.25821 0.25821 0 0 1-2e-3 -0.0059 0.25821 0.25821 0 0 1 0.1582-0.32812 0.25821 0.25821 0 0 1 0.06836-0.01367 0.30799 0.30799 0 0 0-0.01172-0.04883 0.30799 0.30799 0 0 0-0.35742-0.19922c0.08029-0.08527 0.14701-0.15999 0.23438-0.25781l1.7207 2.4844s0.11843-1.63-0.02539-1.8457c-0.12571-0.18857-1.3462-0.71343-1.6895-0.85938 5e-3 -4e-3 0.02932-0.02266 0.03516-0.02734l2.9941-0.08984s-0.16696-0.89648-0.52734-0.95117c-0.27058-0.04107-1.4419 0.46993-2.1289 0.77734 0.24399-0.19328 0.36099-0.29215 0.68945-0.53711l-0.33197-0.20699 0.5957 0.01172c0.29198-0.20849 0.54696-0.37599 0.63086-0.37891 0.26783-0.00932-0.67677-0.51561-0.98633-0.47266-0.25108 0.034836-0.76155 1.1505-0.98047 1.6426l-2e-3 -0.27539-0.07031 0.41602c-0.0077 0.0035-0.05971 0.02711-0.06445 0.0293-7e-3 -3e-3 -0.08203-0.03711-0.08203-0.03711l0.03906 0.05664c-0.0023 1e-3 -0.05469 0.02344-0.05469 0.02344l0.07031-2e-3 0.03906 0.05859c-0.0036 0.0082-0.02497 0.05595-0.03711 0.08203-1.5944 0.73296-1.4675 1.2879-1.4609 2.3359-0.5959-0.24446-1.2476-0.44928-1.9941-0.57612-2.6688-0.45347-5.7773 1.4453-5.7773 1.4453v6.4062h16v-15zm9.5391 6.0625a0.18977 0.18977 0 0 0-0.04883 0.01172 0.18977 0.18977 0 0 0-0.11914 0.24023 0.18977 0.18977 0 0 0 0.24219 0.11719 0.18977 0.18977 0 0 0 0.11719-0.24024 0.18977 0.18977 0 0 0-0.17188-0.12891 0.18977 0.18977 0 0 0-0.01953 0zm-0.63086 0.26367a0.22458 0.22458 0 0 0-0.03125 0.20312 0.22458 0.22458 0 0 0 0.0039 0.01367 0.22458 0.22458 0 0 0 0.28125 0.125 0.22458 0.22458 0 0 0 0.13867-0.28516 0.22458 0.22458 0 0 0-0.0098-0.01953 0.35169 0.35169 0 0 0 0.01172 0.05469 0.35169 0.35169 0 0 0 0.0039 0.0098 0.41949 0.41949 0 0 1-0.39844-0.10156z" color="#000000" fill="url(#a)" style="paint-order:normal;text-decoration-line:none;text-indent:0;text-transform:none"/>
	<path d="m4 1v1h16v15h1v-16zm-3 2v17h18v-17h-15zm1 1h16v15h-16v-6.4063s3.1085-1.8988 5.7773-1.4453c0.7465 0.12684 1.3982 0.33171 1.9941 0.57617-8.33e-4 -0.13248-0.0012-0.2474-2e-3 -0.36523l0.0039 2e-3c-1.27e-4 -0.01678 3.9e-5 -0.03426 0-0.05078-0.0011 5e-3 -0.0048 0.0087-0.0059 0.01367-8e-5 -0.02807 0.0056-0.05052 0.0059-0.07813 0.0011-0.17096 0.0057-0.34204 0.0332-0.49024 5.5e-4 -3e-3 -5.66e-4 -0.0068 0-0.0098-0.9462-0.37142-2.0036-0.60736-3.1934-0.57617-1.3552 0.03553-2.8924 0.44968-4.6133 1.3652v-7.5351zm9.4863 6.0039a0.25821 0.25821 0 0 0-0.02148 0.0059 0.25821 0.25821 0 0 0-0.1582 0.32812 0.25821 0.25821 0 0 0 2e-3 0.0059 0.30799 0.30799 0 0 1-0.36133-0.17383 0.30799 0.30799 0 0 1-0.0078-0.02148 0.30799 0.30799 0 0 1-0.01563-0.08008c-0.01419 0.0042-0.02894 0.0071-0.04297 0.01172-0.39231 0.49587-0.46529 1.0217 0.3457 2.373 0.86283 0.50768 1.6277 1.0677 2.4199 1.541 0.46588 0.27833 0.83215 0.46549 1.1426 0.60742 0.11095 0.05099 0.18682 0.07676 0.28125 0.11524 0.19861 0.07962 0.40238 0.16124 0.53125 0.19726 0.0013 3.74e-4 0.0026-3.69e-4 0.0039 0 0.13094 0.02022 0.26007 0.04974 0.39453 0.05469v-1.0059c-0.70034-0.03775-1.4569-0.40914-2.3184-0.95898-0.2631-0.16792-0.55598-0.36439-0.83789-0.55273 0.10111-0.18391 0.15871-0.39058 0.18555-0.60742l-1.248-1.7988c-0.09553-0.02299-0.19374-0.03536-0.29492-0.04102zm0.05273 0.05859a0.18977 0.18977 0 0 1 0.01953 0 0.18977 0.18977 0 0 1 0.17188 0.12891 0.18977 0.18977 0 0 1-0.11719 0.24024 0.18977 0.18977 0 0 1-0.24219-0.11719 0.18977 0.18977 0 0 1 0.11914-0.24023 0.18977 0.18977 0 0 1 0.04883-0.01172zm-0.63086 0.26367a0.41949 0.41949 0 0 0 0.39844 0.10156 0.35169 0.35169 0 0 1-0.0039-0.0098 0.35169 0.35169 0 0 1-0.01172-0.05469 0.22458 0.22458 0 0 1 0.0098 0.01953 0.22458 0.22458 0 0 1-0.13867 0.28516 0.22458 0.22458 0 0 1-0.28125-0.125 0.22458 0.22458 0 0 1-0.0039-0.01367 0.22458 0.22458 0 0 1 0.03125-0.20312z" color="#000000" color-rendering="auto" dominant-baseline="auto" fill="url(#c)" fill-opacity=".99858" image-rendering="auto" shape-rendering="auto" solid-color="#000000" style="font-feature-settings:normal;font-variant-alternates:normal;font-variant-caps:normal;font-variant-ligatures:normal;font-variant-numeric:normal;font-variant-position:normal;isolation:auto;mix-blend-mode:normal;paint-order:normal;shape-padding:0;text-decoration-color:#000000;text-decoration-line:none;text-decoration-style:solid;text-indent:0;text-orientation:mixed;text-transform:none;white-space:normal"/>
</svg>
