<?xml version="1.0" encoding="UTF-8"?>
<svg id="g" width="22" height="22" version="1.1" xmlns="http://www.w3.org/2000/svg" xmlns:cc="http://creativecommons.org/ns#" xmlns:dc="http://purl.org/dc/elements/1.1/" xmlns:rdf="http://www.w3.org/1999/02/22-rdf-syntax-ns#">
	<metadata id="a">
		<rdf:RDF>
			<cc:Work rdf:about="">
				<dc:format>image/svg+xml</dc:format>
				<dc:type rdf:resource="http://purl.org/dc/dcmitype/StillImage"/>
				<dc:title/>
			</cc:Work>
		</rdf:RDF>
	</metadata>
	<defs>
		<style id="current-color-scheme" type="text/css">.ColorScheme-Text{color:#090d11;}.ColorScheme-Background{color:#ffffff;}</style>
	</defs>
	<path id="f" d="m11 2.0312c-1.5674 0.0019924-4.77 1.9688-6 1.9688h-1.5c-0.277 0-0.5 0.223-0.5 0.5s0.223 0.5 0.5 0.5h15c0.277 0 0.5-0.223 0.5-0.5s-0.223-0.5-0.5-0.5h-1.5c-1.23 0-4.4326-1.9668-6-1.9688zm-6.5 3.9688 0.5 12c0.069121 1.1059 0.8919 2 2 2h8c1.1081 0 2-0.8919 2-2l0.5-12h-1l-1.5 10.5s0 1-4 1-4-1-4-1l-1.4688-10.5z" style="fill:currentColor;fill-opacity:0.75;" class="ColorScheme-Text"/>
	<path id="h" d="m10.998 0.5312c-2.0621 0-5.2333 2.8438-7 2.8438-1.5263 0-1.998 0.45438-1.998 1.125 0.20828-0.36075 0.66424-0.5 1.5-0.5h1.5c1.23 0 4.4326-1.9668 6-1.9688zm2e-3 1.5c1.5674 0.00199 4.77 1.9688 6 1.9688h1.5c0.83576 0 1.2917 0.13925 1.5 0.5 0-0.67062-0.47177-1.125-1.998-1.125-1.7667 0-4.9379-2.8438-7-2.8438zm-7 3.9688c-6e-7 0.02085 6.539e-4 0.04169 0.00195 0.0625v12c-4.69e-5 1.5686 1.352 2.9375 2.998 2.9375h8c1.638 0 2.9871-1.3448 2.998-2.9805v-11.957c0.0013-0.02081 2e-3 -0.04165 2e-3 -0.0625h-0.5l-0.5 12c0 1.1081-0.8919 2-2 2h-8c-1.1081 0-1.9309-0.89406-2-2l-0.5-12zm13.998 12.02v0.04297l2e-3 -0.0625c0 0.0067-0.0019 0.01287-2e-3 0.01953z" style="fill:currentColor;fill-opacity:0.5;" class="ColorScheme-Background"/>
</svg>
