<?xml version="1.0" encoding="UTF-8"?>
<svg id="f" width="22" height="22" version="1.1" viewBox="0 0 22 22" xmlns="http://www.w3.org/2000/svg" xmlns:cc="http://creativecommons.org/ns#" xmlns:dc="http://purl.org/dc/elements/1.1/" xmlns:rdf="http://www.w3.org/1999/02/22-rdf-syntax-ns#">
	<metadata id="h">
		<rdf:RDF>
			<cc:Work rdf:about="">
				<dc:format>image/svg+xml</dc:format>
				<dc:type rdf:resource="http://purl.org/dc/dcmitype/StillImage"/>
				<dc:title/>
			</cc:Work>
		</rdf:RDF>
	</metadata>
	<defs id="b">
		<style id="current-color-scheme" type="text/css">.ColorScheme-Text{color:#090d11;}.ColorScheme-Background{color:#ffffff;}</style>
	</defs>
	<path id="a" class="ColorScheme-Text" d="m11 2.0312c-1.5674 0.0019924-4.77 1.9688-6 1.9688h-1.5c-0.277 0-0.5 0.223-0.5 0.5s0.223 0.5 0.5 0.5h15c0.277 0 0.5-0.223 0.5-0.5s-0.223-0.5-0.5-0.5h-1.5c-1.23 0-4.4326-1.9668-6-1.9688zm-6.5 3.9688 0.5 12c0.069121 1.1059 0.8919 2 2 2h8c1.1081 0 2-0.8919 2-2l0.5-12h-1l-0.23633 1.8164a3.3898 3.3898 0 0 0-2.4492-1.0527 3.3898 3.3898 0 0 0-3.3906 3.3887 3.3898 3.3898 0 0 0 0.06641 0.65039 4.2034 4.2034 0 0 0-0.99023 0.62695 3.3898 3.3898 0 0 0-0.65039 0.21875 1.9153 1.9153 0 0 0-1.832-1.3594 1.9153 1.9153 0 0 0-0.9082 0.23047l-0.57812-4.5195h-1.0312z" style="fill-opacity:.75;fill:currentColor"/>
	<path id="g" class="ColorScheme-Background" d="m10.998 0.5312c-2.0621 0-5.2333 2.8438-7 2.8438-1.5263 0-1.998 0.45438-1.998 1.125 0.20828-0.36075 0.66424-0.5 1.5-0.5h1.5c0.15375 0 0.33853-0.030202 0.54688-0.083984 1.4584-0.37648 4.0816-1.883 5.4531-1.8848l-2e-3 -1.5zm2e-3 1.5c1.1756 0.0015 3.2706 1.1089 4.7637 1.6621 0.4977 0.18441 0.92883 0.30664 1.2363 0.30664h1.5c0.83576 0 1.2917 0.13925 1.5 0.5 0-0.67062-0.47182-1.125-1.998-1.125-1.7667 0-4.9379-2.8438-7-2.8438l-2e-3 1.5zm2.8145 3.7324c-2.1422-5.023e-4 -3.8899 1.7465-3.8906 3.8887v2e-3c6.89e-4 0.13322 0.0267 0.26419 0.04102 0.39648-0.23092 0.12779-0.46151 0.25704-0.66797 0.42188-0.09478 0.024-0.18471 0.0627-0.27734 0.09375-0.42456-0.73409-1.1281-1.277-2.002-1.2773-0.37204-1.47e-4 -0.72098 0.09145-1.0352 0.24414l0.12695 0.98633a1.9153 1.9153 0 0 1 0.16211-0.07813 1.9153 1.9153 0 0 1 0.13672-0.05078 1.9153 1.9153 0 0 1 0.072266-0.02344 1.9153 1.9153 0 0 1 0.10156-0.02539 1.9153 1.9153 0 0 1 0.072266-0.01563 1.9153 1.9153 0 0 1 0.13477-0.02148 1.9153 1.9153 0 0 1 0.052734-0.0059 1.9153 1.9153 0 0 1 0.17578-0.0098 1.9153 1.9153 0 0 1 0.16602 0.0078 1.9153 1.9153 0 0 1 0.082031 0.01172 1.9153 1.9153 0 0 1 0.125 0.01758 1.9153 1.9153 0 0 1 0.00781 2e-3 1.9153 1.9153 0 0 1 0.03125 0.0078 1.9153 1.9153 0 0 1 0.13477 0.0332 1.9153 1.9153 0 0 1 0.089844 0.03125 1.9153 1.9153 0 0 1 0.087891 0.0332 1.9153 1.9153 0 0 1 0.083984 0.03711 1.9153 1.9153 0 0 1 0.087891 0.04297 1.9153 1.9153 0 0 1 0.072266 0.04102 1.9153 1.9153 0 0 1 0.10156 0.0625 1.9153 1.9153 0 0 1 0.011719 0.0078 1.9153 1.9153 0 0 1 0.11523 0.08594 1.9153 1.9153 0 0 1 0.00977 0.0098 1.9153 1.9153 0 0 1 0.078125 0.06641 1.9153 1.9153 0 0 1 0.082031 0.07813 1.9153 1.9153 0 0 1 0.00586 0.0059 1.9153 1.9153 0 0 1 0.027344 0.03125 1.9153 1.9153 0 0 1 0.082031 0.0918 1.9153 1.9153 0 0 1 0.060547 0.08203 1.9153 1.9153 0 0 1 0.056641 0.07813 1.9153 1.9153 0 0 1 0.042969 0.07031 1.9153 1.9153 0 0 1 0.052734 0.0918 1.9153 1.9153 0 0 1 0.046875 0.09766 1.9153 1.9153 0 0 1 0.03125 0.07227 1.9153 1.9153 0 0 1 0.058594 0.16211 3.3898 3.3898 0 0 1 0.10156-0.03906 3.3898 3.3898 0 0 1 0.22266-0.08789 3.3898 3.3898 0 0 1 0.31641-0.08984 3.3898 3.3898 0 0 1 0.0098-2e-3 4.2034 4.2034 0 0 1 0.30664-0.23438 4.2034 4.2034 0 0 1 0.14453-0.09375 4.2034 4.2034 0 0 1 0.21289-0.13086 4.2034 4.2034 0 0 1 0.32617-0.16797 3.3898 3.3898 0 0 1-0.04687-0.3125 3.3898 3.3898 0 0 1-0.01953-0.33789 3.3898 3.3898 0 0 1 0.01563-0.30664 3.3898 3.3898 0 0 1 0.01367-0.10547 3.3898 3.3898 0 0 1 0.0332-0.22852 3.3898 3.3898 0 0 1 0.02539-0.11133 3.3898 3.3898 0 0 1 0.05664-0.2168 3.3898 3.3898 0 0 1 0.04102-0.125 3.3898 3.3898 0 0 1 0.06445-0.17969 3.3898 3.3898 0 0 1 0.07031-0.15625 3.3898 3.3898 0 0 1 0.07617-0.1543 3.3898 3.3898 0 0 1 0.08008-0.14258 3.3898 3.3898 0 0 1 0.08594-0.13867 3.3898 3.3898 0 0 1 0.09766-0.13672 3.3898 3.3898 0 0 1 0.11914-0.15625 3.3898 3.3898 0 0 1 0.08008-0.091797 3.3898 3.3898 0 0 1 0.13672-0.14453 3.3898 3.3898 0 0 1 0.12891-0.12109 3.3898 3.3898 0 0 1 0.11914-0.10352 3.3898 3.3898 0 0 1 0.14062-0.10742 3.3898 3.3898 0 0 1 0.13281-0.095703 3.3898 3.3898 0 0 1 0.13477-0.082031 3.3898 3.3898 0 0 1 0.17188-0.097656 3.3898 3.3898 0 0 1 0.11328-0.056641 3.3898 3.3898 0 0 1 0.18359-0.082031 3.3898 3.3898 0 0 1 0.13672-0.048828 3.3898 3.3898 0 0 1 0.18555-0.0625 3.3898 3.3898 0 0 1 0.17773-0.044922 3.3898 3.3898 0 0 1 0.12891-0.029297 3.3898 3.3898 0 0 1 0.22852-0.033203 3.3898 3.3898 0 0 1 0.10547-0.013672 3.3898 3.3898 0 0 1 0.30664-0.015625 3.3898 3.3898 0 0 1 0.1543 0.00781 3.3898 3.3898 0 0 1 0.20703 0.013672 3.3898 3.3898 0 0 1 0.0059 0 3.3898 3.3898 0 0 1 0.07813 0.011719 3.3898 3.3898 0 0 1 0.24414 0.039062 3.3898 3.3898 0 0 1 0.01172 0.00195 3.3898 3.3898 0 0 1 0.08398 0.023438 3.3898 3.3898 0 0 1 0.24219 0.064453 3.3898 3.3898 0 0 1 0.31836 0.11914 3.3898 3.3898 0 0 1 0.30274 0.15039 3.3898 3.3898 0 0 1 0.55469 0.38672 3.3898 3.3898 0 0 1 0.24609 0.23047l0.13672-1.0508c-0.68737-0.61758-1.5923-0.99771-2.5859-0.99805zm-9.8145 0.23633c-6e-7 0.02085 6.57e-4 0.04169 0.00195 0.0625v12c-4.69e-5 1.5686 1.352 2.9375 2.998 2.9375h8c1.638 0 2.9871-1.3448 2.998-2.9805v-11.957c0.0013-0.02081 2e-3 -0.04165 2e-3 -0.0625h-0.5l-0.0918 2.1816-0.12891 3.123-0.2793 6.6953c0 1.1081-0.8919 2-2 2h-8.0001c-1.1081 0-1.9309-0.8941-2-2l-0.23047-5.5234-0.060547-1.4453c1.731e-4 -5.87e-4 -1.735e-4 -0.0014 0-2e-3l-0.20898-5.0293h-0.5zm13.998 12.02v0.04297l2e-3 -0.0625c0 0.0067-0.0019 0.01287-2e-3 0.01953z" style="fill-opacity:.5;fill:currentColor"/>
</svg>
