<?xml version="1.0" encoding="UTF-8"?>
<!-- Created with Inkscape (http://www.inkscape.org/) -->
<svg width="64" height="64" version="1.1" xmlns="http://www.w3.org/2000/svg" xmlns:cc="http://creativecommons.org/ns#" xmlns:dc="http://purl.org/dc/elements/1.1/" xmlns:rdf="http://www.w3.org/1999/02/22-rdf-syntax-ns#">
	<defs>
		<linearGradient id="c" x1="31" x2="31" y1="64" y2="63" gradientUnits="userSpaceOnUse">
			<stop stop-color="#000000" stop-opacity=".10206" offset="0"/>
			<stop stop-color="#000000" stop-opacity="0" offset="1"/>
		</linearGradient>
		<linearGradient id="b" x1="1.6362e-8" x2="64" y1="13" y2="13" gradientUnits="userSpaceOnUse">
			<stop stop-color="#f2f4f7" offset="0"/>
			<stop stop-color="#bcc8d4" offset=".0625"/>
			<stop stop-color="#bac6d3" offset=".9375"/>
			<stop stop-color="#c3ced8" offset="1"/>
		</linearGradient>
		<linearGradient id="d" x1="1.6362e-8" x2="64" y1="37" y2="37" gradientUnits="userSpaceOnUse">
			<stop stop-color="#4beafb" offset="0"/>
			<stop stop-color="#37bdeb" offset=".0625"/>
			<stop stop-color="#21b6e9" offset=".9375"/>
			<stop stop-color="#30c6ea" offset="1"/>
		</linearGradient>
		<radialGradient id="a" cx="31.042" cy="31.097" r="32" gradientTransform="matrix(6.5003e-8 2.6627 -1.1922 2.9105e-8 67.825 -59.84)" gradientUnits="userSpaceOnUse">
			<stop stop-color="#b539ec" stop-opacity=".34644" offset="0"/>
			<stop stop-color="#8737ef" stop-opacity="0" offset="1"/>
		</radialGradient>
	</defs>
	<metadata>
		<rdf:RDF>
			<cc:Work rdf:about="">
				<dc:format>image/svg+xml</dc:format>
				<dc:type rdf:resource="http://purl.org/dc/dcmitype/StillImage"/>
				<dc:title/>
			</cc:Work>
		</rdf:RDF>
	</metadata>
	<path d="m0 5.9062v51.594l0.09375 0.09375c-0.053527 0.15967-0.09375 0.33298-0.09375 0.5v2.8125c0 1.7057 2.899 3.0938 6.5 3.0938h51c3.601 0 6.5-1.388 6.5-3.0938v-2.8125c0-0.16702-0.04022-0.34033-0.09375-0.5l0.09375-0.09375v-51.594z" color="#000000" fill="url(#d)"/>
	<path d="m0 5.9062v51.594l0.09375 0.09375c-0.053527 0.15967-0.09375 0.33298-0.09375 0.5v2.8125c0 1.7057 2.899 3.0938 6.5 3.0938h51c3.601 0 6.5-1.388 6.5-3.0938v-2.8125c0-0.16702-0.04022-0.34033-0.09375-0.5l0.09375-0.09375v-51.594z" color="#000000" fill="url(#a)"/>
	<path d="m64 5.5789v10.342c0 1.7057-2.899 3.0789-6.5 3.0789h-51c-3.601 0-6.5-1.3732-6.5-3.0789v-10.342z" color="#000000" fill="url(#b)"/>
	<path d="m64 15.922c0 1.7057-2.899 3.0781-6.5 3.0781h-51c-2.4357 0-4.5252-0.63584-5.6387-1.5703 0.87902 1.2065 3.2856 2.0703 6.1387 2.0703h51c2.7103 0 5.0218-1.2768 6-2.3887z" color="#000000" fill="#000000" fill-opacity=".10019"/>
	<path d="m0 58.922v2c0 1.7057 2.899 3.0781 6.5 3.0781h51c3.601 0 6.5-1.3724 6.5-3.0781v-2c0 1.7057-2.899 3.0781-6.5 3.0781h-51c-3.601 0-6.5-1.3724-6.5-3.0781z" color="#000000" fill="url(#c)"/>
	<path d="m6.5 0c-1.9027 0-3.5946 0.38675-4.7812 1h60.562c-1.1866-0.61325-2.8785-1-4.7812-1h-25.5z" fill="#1f0700" fill-opacity=".069788"/>
	<path d="m6.5 0h51c3.601 0 6.5 1.3732 6.5 3.0789v2.8421c0 1.7057-2.899 3.0789-6.5 3.0789h-51c-3.601 0-6.5-1.3732-6.5-3.0789v-2.8421c0-1.7057 2.899-3.0789 6.5-3.0789z" color="#000000" fill="#ebeef2"/>
	<path d="m7 3h50c1.108 0 2 0.42253 2 0.94737v1.1053c0 0.52484-0.892 0.94737-2 0.94737h-50c-1.108 0-2-0.42253-2-0.94737v-1.1053c0-0.52484 0.892-0.94737 2-0.94737z" color="#000000" fill="#d7dee5"/>
	<path d="m7 4h50c1.108 0 2 0.42253 2 0.94737v0.10526c0 0.52484-0.892 0.94737-2 0.94737h-50c-1.108 0-2-0.42253-2-0.94737v-0.10526c0-0.52484 0.892-0.94737 2-0.94737z" color="#000000" fill="#e4e8ed"/>
	<path d="m51.25 4-1 1.3691v0.63086h6.5v-0.63086l-1-1.3691z" color="#000000" fill="#44e8fa"/>
	<path d="m31.418 27.758c-0.55322 0.08332-1.1141 0.28109-1.5623 0.62032-0.35177 0.25339-0.60846 0.61835-0.8271 0.98792-0.25564 0.4303-0.41889 0.90835-0.50545 1.4015-0.10928 0.65305-0.07622 1.3185-0.04595 1.9759 0.03498 0.6312 0.09137 1.2515 0.06893 1.884-0.03025 0.48696-0.15603 0.97497-0.34463 1.4244-0.30834 0.78408-0.73757 1.5185-1.1488 2.2516-0.59587 1.0374-1.2079 2.0575-1.792 3.1016-0.25127 0.44936-0.49715 0.91376-0.66627 1.4015-0.13001 0.36876-0.20861 0.7377-0.25273 1.1258-0.034 0.34176-0.02119 0.69531 0.04595 1.0339-0.04701 0.04505-0.09149 0.09057-0.13785 0.13785-0.0155 0.01581-0.03 0.02714-0.04595 0.04595-0.01565 0.01834-0.02982 0.04818-0.04595 0.06893-0.23066 0.29694-0.51349 0.80349-0.89603 1.0798-0.43774 0.31619-1.5329 0.29664-1.815 0.66628-0.27728 0.36977 0.0049 0.91464 0 1.9069 0 0.42328-0.06623 0.73018-0.11488 0.98793-0.0037 0.01606-0.0195 0.03046-0.02298 0.04595-0.0012 0.0055 0.0012 0.01754 0 0.02299-2.15e-4 7.78e-4 2.05e-4 0.02215 0 0.02298-6.93e-4 0.0027 6.79e-4 0.0203 0 0.02298-6.09e-4 0.0027-0.02241-0.0026-0.02298 0-1.29e-4 6.1e-4 1.29e-4 0.02237 0 0.02299-0.0031 0.01272 0.0029 0.03376 0 0.04595-0.0058 0.0242-0.01826 0.0467-0.02298 0.06892-0.02823 0.12747-0.04331 0.21501-0.02297 0.29868 3e-3 0.01209 0.01871 0.03423 0.02297 0.04595 0.0018 0.0052-2e-3 0.01787 0 0.02298 3.44e-4 7.77e-4 -3.68e-4 0.02216 0 0.02299 1.29e-4 2.57e-4 0.02283-2.59e-4 0.02298 0 6.1e-4 0.0014-6.13e-4 0.02153 0 0.02298 4.72e-4 0.0014-4.97e-4 0.02153 0 0.02298 3.86e-4 7.76e-4 0.02258-7.79e-4 0.02298 0 2.57e-4 6.09e-4 -2.57e-4 0.02234 0 0.02299 0.0034 0.0077 0.01931 0.01526 0.02298 0.02298 1e-3 0.0019-1e-3 0.02099 0 0.02298 0.0073 0.01516 0.01412 0.03078 0.02298 0.04595 0.24809 0.41355 0.63632 0.51127 2.9178 0.98792 1.221 0.25295 2.3741 0.90178 3.1476 0.96495 0.77345 0.05845 0.9526-0.20191 1.4244-0.62033 0.44581-0.39937 0.59715-0.31394 0.59735-1.1028 0.09948 0.03635 0.19853 0.08117 0.29868 0.11488 0.64604 0.20938 1.32 0.31786 1.9988 0.29868 0.42644-0.01511 0.84357-0.06255 1.2636-0.13785 0.62202-0.10307 1.236-0.26638 1.838-0.4595-0.01172 0.11521-0.0207 0.22918-0.02299 0.34462-0.0061 0.14649-0.01214 0.29326 0.02299 0.43652 0.03096 0.15045 0.07132 0.2983 0.13785 0.43653 0.12193 0.20924 0.27961 0.41452 0.48248 0.5514 0.11712 0.08305 0.25124 0.14917 0.39057 0.1838 0.16184 0.04605 0.33917 0.06934 0.50545 0.0919 0.26042 0.02242 0.52615-0.01062 0.78115-0.06893 0.29656-0.07156 0.57718-0.20783 0.80412-0.41355 0.45786-0.37632 0.90681-0.74387 1.3785-1.1028 0.40032-0.30394 0.82346-0.59303 1.2406-0.87305 0.37228-0.24725 0.73621-0.47959 1.1028-0.7352 0.16039-0.11772 0.33268-0.23473 0.4595-0.39058 0.1004-0.12263 0.14604-0.30703 0.0919-0.4595-0.03959-0.13628-0.1251-0.23049-0.22975-0.32165-0.25723-0.24346-0.53124-0.48413-0.78115-0.7352-0.20885-0.21805-0.41724-0.45031-0.52843-0.7352-0.08933-0.20716-0.11498-0.42027-0.13785-0.6433-0.01901-0.15438-0.05988-0.3131-0.11488-0.4595-0.04546-0.12624-0.15574-0.18957-0.2757-0.22975-0.11286-0.04283-0.24835-0.07478-0.3676-0.0919 0.01634-0.06611 0.02894-0.13848 0.02298-0.20677 0.0029-0.0064-0.0029-0.01656 0-0.02299 0.10646-0.23343 0.21605-0.46718 0.29867-0.71223 0.08645-0.26992 0.15274-0.54304 0.16082-0.8271 0.01628-0.40252-0.04308-0.82692-0.13785-1.2177-0.12557-0.49378-0.33844-0.95112-0.57438-1.4015-0.40322-0.75866-0.86432-1.4715-1.3096-2.2056-0.33856-0.52455-0.68394-1.0614-1.0569-1.5623-0.26706-0.36912-0.54752-0.73415-0.78115-1.1258-0.1696-0.28402-0.3294-0.57978-0.48247-0.87305-0.16285-0.31963-0.28069-0.65739-0.34462-1.0109-0.12148-0.66798-0.10178-1.3461-0.0919-2.0218 7e-3 -0.55693 0.03252-1.1266-0.06893-1.6772-0.09752-0.55752-0.3192-1.0887-0.66628-1.5393-0.37384-0.49429-0.8947-0.85898-1.4704-1.0798-0.59558-0.22011-1.2314-0.2646-1.861-0.25273zm1.3555 3.5382c0.07093-0.0026 0.13619-0.0088 0.20678 0 0.2164 0.01589 0.42828 0.11723 0.57437 0.2757 0.17038 0.18411 0.25549 0.42083 0.29868 0.66628 0.05085 0.28999 0.01145 0.59219-0.06893 0.87305-0.04801 0.18496-0.14381 0.35026-0.25273 0.50545-0.07505 0.10356-0.1455 0.20254-0.22975 0.29868 0.15266 0.06602 0.3113 0.11588 0.43653 0.22975 0.10628 0.10016 0.14104 0.2518 0.13785 0.39058-0.0042 0.23852-0.07017 0.48419-0.22975 0.66628 0.02347 0.38045 0.07305 0.76147 0.1838 1.1258 0.19241 0.61904 0.46736 1.2139 0.75817 1.7921 0.26206 0.51485 0.53606 1.0276 0.80412 1.5393 0.28369 0.5461 0.57708 1.0811 0.80413 1.6542 0.23682 0.59236 0.37811 1.2261 0.43653 1.861 0.02825 0.32983 0.03299 0.65834 0 0.98792-0.02708 0.33578-0.11002 0.66718-0.20678 0.98793-0.0049 0.01641-0.01801 0.0296-0.02298 0.04595 0.0073 0.0014 0.01544-0.0012 0.02298 0-0.80229-0.08378-0.99554-0.14883-1.1908 0.32019 0.05945-0.33642 0.04315 1.3065 0.05852 0.96614 0.0088-0.18934 0.02547 0.82469-0.03946 1.0801-0.07624 0.10226-0.14625 0.20569-0.22975 0.29868-0.43633 0.49006-0.94091 0.91029-1.4934 1.2636-0.40662 0.26502-0.87837 0.44271-1.3555 0.52843-0.50639 0.08982-1.0286 0.10362-1.5393 0.04595-0.59306-0.06631-1.1613-0.24879-1.6772-0.5514-0.2202-0.12871-0.42855-0.27046-0.62033-0.43652 0.07881-0.05081 0.15426-0.10403 0.22975-0.16083 0.15838-0.12148 0.2892-0.28237 0.41355-0.43652 0.09624-0.12874 0.1731-0.29345 0.13785-0.4595-0.03246-0.13007-0.12016-0.24616-0.20678-0.34462-0.09536-0.09751-0.18058-0.201-0.2757-0.29867-0.59245-0.58072-1.2021-1.1399-1.792-1.7231-0.20584-0.20588-0.41082-0.42492-0.57438-0.66628-0.02601-0.04072-0.02522-0.09406-0.04595-0.13785-0.06436-0.32665-0.12005-0.65401-0.11488-0.98793 0.0066-0.74142 0.19203-1.4678 0.50545-2.1367 0.26948-0.56812 0.62632-1.1027 0.96495-1.6312 0.23605-0.35999 0.46542-0.72156 0.66628-1.1028 0.24145-0.44703 0.4544-0.92106 0.62032-1.4015 0.14369-0.38677 0.22262-0.7863 0.2757-1.1947 0.1752 0.1732 0.83074 0.78889 1.5393 0.80413 0.79326 0.01706 1.7332-0.63301 2.1367-1.0109-0.31316 0.18815-0.61393 0.38895-0.94198 0.5514-0.19673 0.10668-0.42052 0.16457-0.6433 0.1838-0.21496 0.01635-0.43188-2e-3 -0.6433-0.04595-0.20908-0.04119-0.37738-0.16023-0.55139-0.2757-0.23642-0.14235-0.4552-0.32889-0.66627-0.50545-0.15235-0.14229-0.2959-0.28649-0.41355-0.4595-0.16264-0.21601-0.24114-0.51806-0.16082-0.78115 0.0308-0.11509 0.09876-0.21674 0.1838-0.29868 0.1316-0.11238 0.27722-0.19933 0.41355-0.29868-0.13402-0.09948-0.22241-0.24173-0.29868-0.39058-0.15124-0.3047-0.2593-0.64594-0.2757-0.98792-0.01355-0.18423 0.02047-0.35105 0.06893-0.52842 0.06382-0.2424 0.27969-0.45033 0.52842-0.48248 0.04224-0.0035 0.0961 0.01597 0.13785 0.02298 0.20376 0.02522 0.37549 0.14534 0.50545 0.29867 0.10475 0.11707 0.15972 0.26532 0.20677 0.41355 0.06637 0.17932 0.09833 0.3623 0.11487 0.5514 0.01969 0.17954-0.02658 0.35885-0.0919 0.52842 0.15755-0.06457 0.31554-0.11306 0.48248-0.13785 0.11007-0.0115 0.21255 0.0085 0.32165 0.02298 0.16275 0.02536 0.32524 0.06751 0.48248 0.11488-0.05551-0.32462-0.01935-0.64466 0.04595-0.96495 0.03758-0.14119 0.1103-0.2877 0.1838-0.41355 0.11734-0.19253 0.25982-0.37028 0.4595-0.48248 0.15606-0.07633 0.33454-0.12822 0.50545-0.16082zm-0.16082 0.8271c-0.10259 0.01649-0.21102 0.0608-0.29868 0.11488-0.0839 0.06101-0.13768 0.153-0.20678 0.22975-0.03876 0.0521-0.08789 0.10142-0.11488 0.16083-0.07424 0.16477-0.12701 0.34796-0.13785 0.52842-0.0031 0.08392 0.0065 0.1727 0.02298 0.25272 0.14768 0.05158 0.28944 0.10928 0.43653 0.16083 0.1294 0.04675 0.25938 0.09408 0.39058 0.13785 0.03385-0.02038 0.07115-0.03468 0.0919-0.06893 0.06782-0.09085 0.11581-0.19388 0.16083-0.29867 0.04409-0.09226 0.09943-0.17412 0.11488-0.2757 0.03414-0.15993 0.04607-0.34207 0.02298-0.50545-0.01678-0.09317-0.03189-0.17818-0.0919-0.25272-0.06922-0.08364-0.17022-0.13638-0.2757-0.16083-0.03713-0.0049-0.07714-0.03064-0.11487-0.02298zm-3.0787 0.06893c-0.07129 0.01335-0.12908 0.04463-0.1838 0.0919-0.07165 0.08628-0.14408 0.18681-0.16082 0.29868-0.02438 0.13116-0.0049 0.26118 0.02298 0.39058 0.03161 0.14471 0.10776 0.28772 0.1838 0.41355 0.06287 0.09343 0.13433 0.19022 0.22975 0.25273 0.01385 0.0088 0.03142 0.01598 0.04595 0.02298 0.01395-0.0099 0.03194-0.01308 0.04595-0.02298 0.11102-0.08196 0.24381-0.14162 0.3676-0.20678 0.02574-0.06398 0.01384-0.11638 0.02298-0.1838 9e-3 -0.10766 0.01424-0.23718 0-0.34462-0.0084-0.07396-0.0158-0.13776-0.04595-0.20677-0.01795-0.08158-0.05437-0.15632-0.0919-0.22975-0.0486-0.08385-0.09639-0.1586-0.1838-0.20677-0.07209-0.04975-0.16545-0.07998-0.25273-0.06893zm0.34463 0.89603c0.03769 0 0.06893 0.04949 0.06893 0.0919s-0.03124 0.06893-0.06893 0.06893-0.06893-0.02651-0.06893-0.06893c0-0.04241 0.03124-0.0919 0.06893-0.0919zm2.734 0.06893c0.03769 0 0.06893 0.02651 0.06893 0.06893 0 0.04241-0.03124 0.0919-0.06893 0.0919s-0.06893-0.04949-0.06893-0.0919 0.03124-0.06893 0.06893-0.06893zm-1.5164 0.2757c-0.02567 0.0073-0.02978 0.02977-0.02298 0.04595 0.04772 0.09885 0.17092 0.11651 0.25273 0.16082 0.07836 0.04431 0.13019 0.06299 0.16082 0.04595 0.06817-0.0375 0.02217-0.16246-0.04595-0.20677-0.03238-0.02213-0.14581-0.04595-0.22975-0.04595-0.04198 0-0.0892-0.0073-0.11487 0zm-0.66628 0.02298c-0.18076 0.03213-0.19074 0.12065-0.20678 0.16082-0.01605 0.0401 0.10462 0.09816 0.16082 0.04595 0.06031-0.05217 0.13669-0.09878 0.16082-0.11487 0.09478-0.06327 0.08127-0.10244-0.04595-0.0919-0.01818 0.0014-0.04633-4e-3 -0.06893 0zm3.1016 1.1258c-1.5953 1.0915-3.1298 1.3636-4.5491 0.4595 0.66232 0.6396 2.3262 1.4557 4.5491-0.4595zm-4.2274 15.623c0.03554 0.086 0.07186 0.178 0.0919 0.2757 0.02066 0.1007 0.04404 0.20228 0.04595 0.32165-0.0017-0.11712-0.02359-0.21935-0.04595-0.32165-0.0208-0.09511-0.05663-0.19023-0.0919-0.2757z" color="#000000" fill="#293d6f"/>
</svg>
