<?xml version="1.0" encoding="UTF-8"?>
<svg id="a" width="24" height="24" version="1.1" xmlns="http://www.w3.org/2000/svg" xmlns:cc="http://creativecommons.org/ns#" xmlns:dc="http://purl.org/dc/elements/1.1/" xmlns:rdf="http://www.w3.org/1999/02/22-rdf-syntax-ns#">
	<metadata id="d">
		<rdf:RDF>
			<cc:Work rdf:about="">
				<dc:format>image/svg+xml</dc:format>
				<dc:type rdf:resource="http://purl.org/dc/dcmitype/StillImage"/>
				<dc:title/>
			</cc:Work>
		</rdf:RDF>
	</metadata>
	<defs id="e">
		<style id="current-color-scheme" type="text/css">.ColorScheme-Text {color:#090d11;}.ColorScheme-Background{color:#ffffff;}</style>
	</defs>
	<path id="c" class="ColorScheme-Text" d="m7 3-0.625 2.4688c-0.83017 0.53359-1.375 1.4711-1.375 2.5312 0 0.52275 0.13992 1.0095 0.375 1.4375l-2.375 11.562h1l4-9 4 9h1l-2.375-11.562c0.23508-0.42796 0.375-0.91475 0.375-1.4375 0-1.0602-0.54483-1.9977-1.375-2.5312l-0.625-2.4688zm8 0v18h6v-1h-2v-1h2v-2h-3v-1h3v-2h-2v-1h2v-2h-3v-1h3v-2h-2v-1h2v-2h-3v-1h3v-1zm-7 4c0.55228 0 1 0.44772 1 1s-0.44772 1-1 1-1-0.44772-1-1 0.44772-1 1-1z" style="fill-opacity:.75;fill:currentColor"/>
	<path id="b" class="ColorScheme-Background" d="m6.2188 2-0.1875 0.75-0.59375 2.2812c-0.84615 0.73767-1.4375 1.7706-1.4375 2.9688 0 0.51783-0.053454 0.95749 0.125 1.4062l-2.3438 11.406v1.1875h2.875l0.5-0.59375 2.8438-6.7188 2.8438 6.7188 0.5 0.59375h1.6562v-1h-1l-4-9-4 9h-1l2.375-11.562c-0.23508-0.42796-0.375-0.91475-0.375-1.4375 0-1.0602 0.54483-1.9977 1.375-2.5312l0.625-2.4688h2l0.625 2.4688c0.83017 0.53359 1.375 1.4711 1.375 2.5312 0 0.52275-0.13992 1.0095-0.375 1.4375l2.375 11.562v-6.125l-1.125-5.4688c0.17845-0.44876 0.125-0.88842 0.125-1.4062 0-1.1981-0.59135-2.2311-1.4375-2.9688l-0.59375-2.2812-0.1875-0.75h-2.7812zm7.7812 0v20h8v-20h-7zm1 1h6v1h-3v1h3v2h-2v1h2v2h-3v1h3v2h-2v1h2v2h-3v1h3v2h-2v1h2v1h-6zm-7 4c-0.55228 0-1 0.44772-1 1s0.44772 1 1 1 1-0.44772 1-1-0.44772-1-1-1z" style="fill-opacity:.5;fill:currentColor"/>
</svg>
