<?xml version="1.0" encoding="UTF-8"?>
<!-- Created with Inkscape (http://www.inkscape.org/) -->
<svg width="24" height="24" version="1.1" xmlns="http://www.w3.org/2000/svg" xmlns:cc="http://creativecommons.org/ns#" xmlns:dc="http://purl.org/dc/elements/1.1/" xmlns:rdf="http://www.w3.org/1999/02/22-rdf-syntax-ns#">
	<defs>
		<radialGradient id="b" cx="8.1442" cy="9.5942" r="8" gradientTransform="matrix(1.3186,0,0,1.3186,-3.5181,-3.1244)" gradientUnits="userSpaceOnUse">
			<stop stop-color="#ffffff" stop-opacity=".8252" offset="0"/>
			<stop stop-color="#ffffff" stop-opacity=".6051" offset="1"/>
		</radialGradient>
		<radialGradient id="a" cx="-9393" cy="5093.5" r="9" gradientTransform="matrix(2.0308,-1.381e-5,0,1.484,19086,-7538.9)" gradientUnits="userSpaceOnUse">
			<stop stop-color="#213851" stop-opacity=".9059" offset="0"/>
			<stop stop-color="#27303a" stop-opacity="0" offset="1"/>
		</radialGradient>
	</defs>
	<metadata>
		<rdf:RDF>
			<cc:Work rdf:about="">
				<dc:format>image/svg+xml</dc:format>
				<dc:type rdf:resource="http://purl.org/dc/dcmitype/StillImage"/>
				<dc:title/>
			</cc:Work>
		</rdf:RDF>
	</metadata>
	<path d="m14.5 3c-0.70348 0-1.2228 0.43877-1.5801 1h-7.9199c-1.0907 0-2 0.9093-2 2v1.4199c-0.56123 0.35725-1 0.8766-1 1.5801v10c0 1.0907 0.9093 2 2 2h16.5c0.8137 0 1.5-0.6863 1.5-1.5v-14.5c0-1.0907-0.9093-2-2-2zm-0.5 1h6c0.554 0 1 0.446 1 1v14.5c0 0.277-0.22328 0.51244-0.5 0.5l-0.04598-0.0021c-0.25607-0.011477-0.45402-0.23641-0.45402-0.4979v-9.5c0-1.0907-0.9093-2-2-2h-5.9199c-0.35725-0.56123-0.8766-1-1.5801-1h-7v-1c0-0.554 0.446-1 1-1h8.5c0-0.00921 1.23e-4 -0.018393 3.68e-4 -0.027543 0.014493-0.54117 0.45484-0.97246 0.99963-0.97246zm-10 4h7c0.554 0 1 0.446 1 1h6c0.554 0 0.96053 0.44741 1 1l0.5 9c0.03947 0.55259-0.446 1-1 1h-14.5c-0.554 0-1-0.446-1-1v-10c0-0.554 0.446-1 1-1z" color="#000000" color-rendering="auto" dominant-baseline="auto" fill="url(#b)" image-rendering="auto" shape-rendering="auto" solid-color="#000000" style="font-feature-settings:normal;font-variant-alternates:normal;font-variant-caps:normal;font-variant-ligatures:normal;font-variant-numeric:normal;font-variant-position:normal;isolation:auto;mix-blend-mode:normal;paint-order:normal;shape-padding:0;text-decoration-color:#000000;text-decoration-line:none;text-decoration-style:solid;text-indent:0;text-orientation:mixed;text-transform:none;white-space:normal"/>
	<path d="m14 4c-0.554 0-1 0.446-1 1h-8c-0.554 0-1 0.446-1 1v1h7c0.70348 0 1.2228 0.43877 1.5801 1h5.4199c1.0907 0 2 0.9093 2 2v9h-1v-9c0-0.554-0.446-1-1-1v10h-14v-11c-0.554 0-1 0.446-1 1v10c0 0.554 0.446 1 1 1h14 2.498c6.65e-4 3e-6 0.001287 0 0.001953 0 0.277 0 0.5-0.223 0.5-0.5v-14.5c0-0.554-0.446-1-1-1h-6z" fill="#090d11" fill-opacity=".76471" style="paint-order:normal"/>
	<path d="m14 4c-0.554 0-1 0.446-1 1h-8c-0.554 0-1 0.446-1 1v1h7c0.70348 0 1.2228 0.43877 1.5801 1h5.4199c1.0907 0 2 0.9093 2 2v9h-1v-9c0-0.554-0.446-1-1-1v10h-14v-11c-0.554 0-1 0.446-1 1v10c0 0.554 0.446 1 1 1h14 2.498c6.65e-4 3e-6 0.001287 0 0.001953 0 0.277 0 0.5-0.223 0.5-0.5v-14.5c0-0.554-0.446-1-1-1h-6z" fill="url(#a)" style="paint-order:normal"/>
</svg>
