<?xml version="1.0" encoding="UTF-8"?>
<svg id="a" width="24" height="24" version="1.1" xmlns="http://www.w3.org/2000/svg" xmlns:cc="http://creativecommons.org/ns#" xmlns:dc="http://purl.org/dc/elements/1.1/" xmlns:rdf="http://www.w3.org/1999/02/22-rdf-syntax-ns#">
	<metadata id="d">
		<rdf:RDF>
			<cc:Work rdf:about="">
				<dc:format>image/svg+xml</dc:format>
				<dc:type rdf:resource="http://purl.org/dc/dcmitype/StillImage"/>
				<dc:title/>
			</cc:Work>
		</rdf:RDF>
	</metadata>
	<defs>
		<style id="current-color-scheme" type="text/css">.ColorScheme-Text {color:#090d11;}.ColorScheme-Background{color:#ffffff;}</style>
	</defs>
	<path id="b" d="m19 3-7 1.5v6.5h7v-8zm-8 1.7188-6 1.2812v5h6v-6.2812zm-6 7.2812v5l6 1.7188v-6.7188h-6zm7 0v7l7 2v-9h-7z" style="fill:currentColor;fill-opacity:0.75;" class="ColorScheme-Text"/>
	<path id="c" d="m20 1.5312-1.25 0.28125-7 1.5-0.625 0.15625-0.3125 0.0625h-0.0625l-6 1.2812-0.75 0.1875v12.969l0.65625 0.1875 6 1.7188 0.15625 0.03125 0.84375 0.25 0.53125 0.15625 6.4688 1.8438 1.3438 0.375v-21zm-1 1.4688v8h-7v-6.5l7-1.5zm-8 1.7188v6.2812h-6v-5l6-1.2812zm-6 7.2812h6v6.7188l-6-1.7188v-5zm7 0h7v9l-7-2v-7z" style="fill:currentColor;fill-opacity:0.5;" class="ColorScheme-Background"/>
</svg>
