<?xml version="1.0" encoding="UTF-8"?>
<svg id="a" width="24" height="24" version="1.1" xmlns="http://www.w3.org/2000/svg" xmlns:cc="http://creativecommons.org/ns#" xmlns:dc="http://purl.org/dc/elements/1.1/" xmlns:rdf="http://www.w3.org/1999/02/22-rdf-syntax-ns#">
	<metadata id="d">
		<rdf:RDF>
			<cc:Work rdf:about="">
				<dc:format>image/svg+xml</dc:format>
				<dc:type rdf:resource="http://purl.org/dc/dcmitype/StillImage"/>
				<dc:title/>
			</cc:Work>
		</rdf:RDF>
	</metadata>
	<defs id="e">
		<style id="current-color-scheme" type="text/css">.ColorScheme-Text {color:#090d11;}.ColorScheme-Background{color:#ffffff;}</style>
	</defs>
	<path id="b" class="ColorScheme-Text" d="m12 3-4 5h2v4h4v-4h2zm-9 9v8h18v-8h-3v5h-12v-5zm7 1v1h4v-1zm0 2v1h4v-1z" style="fill-opacity:.75;fill:currentColor"/>
	<path id="c" class="ColorScheme-Background" d="m12 1.4062-0.78125 0.96875-4.5 5.625h1.2812l4-5 4 5h1.2812l-4.5-5.625-0.78125-0.96875zm-3 6.5938v5h6v-5h-1v4h-4v-4zm-7 3v10h20v-10h-5v6h1v-5h3v8h-18v-8h3v5h1v-6zm7 3v1h6v-1zm0 2v1h6v-1z" style="fill-opacity:.5;fill:currentColor"/>
</svg>
