<?xml version="1.0" encoding="UTF-8"?>
<!-- Created with Inkscape (http://www.inkscape.org/) -->
<svg width="24" height="24" version="1.1" xmlns="http://www.w3.org/2000/svg" xmlns:cc="http://creativecommons.org/ns#" xmlns:dc="http://purl.org/dc/elements/1.1/" xmlns:rdf="http://www.w3.org/1999/02/22-rdf-syntax-ns#">
	<defs>
		<radialGradient id="b" cx="4.2034" cy="7.8254" r="8" gradientTransform="matrix(1.5339,0,0,1.438,-9377.6,4843.8)" gradientUnits="userSpaceOnUse">
			<stop stop-color="#ffffff" stop-opacity=".8252" offset="0"/>
			<stop stop-color="#ffffff" stop-opacity=".6051" offset="1"/>
		</radialGradient>
		<radialGradient id="a" cx="-9371.3" cy="4850.4" r="7" gradientTransform="matrix(2,0,0,1.8571,18754,-8997.7)" gradientUnits="userSpaceOnUse">
			<stop stop-color="#213851" stop-opacity=".9059" offset="0"/>
			<stop stop-color="#27303a" stop-opacity="0" offset="1"/>
		</radialGradient>
	</defs>
	<metadata>
		<rdf:RDF>
			<cc:Work rdf:about="">
				<dc:format>image/svg+xml</dc:format>
				<dc:type rdf:resource="http://purl.org/dc/dcmitype/StillImage"/>
				<dc:title/>
			</cc:Work>
		</rdf:RDF>
	</metadata>
	<path d="m12 1.5859-10.414 10.414h1.4141l9-9 9 9h1.4141zm-7 11.414-1 1v7h5.5c0.8333 0 1.457-0.54297 1.707-0.79297s0.12627-0.20703 0.29297-0.20703h1c0.1667 0 0.04297-0.04297 0.29297 0.20703s0.87883 0.88499 1.707 0.79297h5.5v-7l-1-1v7h-4.5c-1 0-1-1-2-1h-1c-1 0-1 1-2 1h-4.5v-7z" color="#000000" color-rendering="auto" dominant-baseline="auto" fill="url(#b)" image-rendering="auto" shape-rendering="auto" solid-color="#000000" style="font-feature-settings:normal;font-variant-alternates:normal;font-variant-caps:normal;font-variant-ligatures:normal;font-variant-numeric:normal;font-variant-position:normal;isolation:auto;mix-blend-mode:normal;paint-order:normal;shape-padding:0;text-decoration-color:#000000;text-decoration-line:none;text-decoration-style:solid;text-indent:0;text-orientation:mixed;text-transform:none;white-space:normal"/>
	<path d="m12 3-9 9 1.5 1.5 0.5-0.5v7h4.5c1 0 1-1 2-1h1c1 0 1 1 2 1l4.5001 1e-4 -1e-4 -7.0001 0.5 0.5 1.5-1.5zm0 3.25 6 5.75v7h-3c-1 0-1-1-2-1h-2c-1 0-1.0299 1.2425-2 1h-3v-7z" fill="#090d11" fill-opacity=".76621" style="paint-order:normal"/>
	<path d="m12 3-9 9 1.5 1.5 0.5-0.5v7h4.5c1 0 1-1 2-1h1c1 0 1 1 2 1l4.5001 1e-4 -1e-4 -7.0001 0.5 0.5 1.5-1.5zm0 3.25 6 5.75v7h-3c-1 0-1-1-2-1h-2c-1 0-1 1-2 1h-3v-7z" fill="url(#a)" style="paint-order:normal"/>
</svg>
