<?xml version="1.0" encoding="UTF-8"?>
<!-- Created with Inkscape (http://www.inkscape.org/) -->
<svg width="18" height="18" version="1.0" xmlns="http://www.w3.org/2000/svg" xmlns:cc="http://creativecommons.org/ns#" xmlns:dc="http://purl.org/dc/elements/1.1/" xmlns:rdf="http://www.w3.org/1999/02/22-rdf-syntax-ns#">
	<metadata>
		<rdf:RDF>
			<cc:Work rdf:about="">
				<dc:format>image/svg+xml</dc:format>
				<dc:type rdf:resource="http://purl.org/dc/dcmitype/StillImage"/>
			</cc:Work>
		</rdf:RDF>
	</metadata>
	<defs>
		<style id="current-color-scheme" type="text/css">.ColorScheme-Text {color:#090d11;}.ColorScheme-Background{color:#ffffff;}</style>
	</defs>
	<path class="ColorScheme-Background" d="m15.5 16c0.27613-2.8e-5 0.49997-0.22387 0.5-0.5v-13c-2.8e-5 -0.27613-0.22387-0.49997-0.5-0.5h-13c-0.27613 2.76e-5 -0.49997 0.22387-0.5 0.5v13c2.76e-5 0.27613 0.22387 0.49997 0.5 0.5zm-0.5-1h-12v-12h12z" style="fill-opacity:.5;fill:currentColor;opacity:.5"/>
	<path class="ColorScheme-Text" d="m14.5 15c0.27613-2.8e-5 0.49997-0.22387 0.5-0.5v-11c-2.8e-5 -0.27613-0.22387-0.49997-0.5-0.5h-11c-0.27613 2.76e-5 -0.49997 0.22387-0.5 0.5v11c2.76e-5 0.27613 0.22387 0.49997 0.5 0.5zm-0.5-1h-10v-10h10z" style="fill-opacity:.75;fill:currentColor;opacity:.5"/>
	<path class="ColorScheme-Text" d="m2 8c-0.554 0-1 0.41664-1 0.93359v0.13281c0 0.51695 0.446 0.93359 1 0.93359h14c0.554 0 1-0.41664 1-0.93359v-0.13281c0-0.51695-0.446-0.93359-1-0.93359z" style="fill-opacity:.75;fill:currentColor"/>
	<path class="ColorScheme-Background" d="m1.5508 7c-0.3047 0-0.55078 0.223-0.55078 0.5s0.24608 0.5 0.55078 0.5h14.898c0.3047 0 0.55078-0.223 0.55078-0.5s-0.24608-0.5-0.55078-0.5zm0 3c-0.3047 0-0.55078 0.223-0.55078 0.5s0.24608 0.5 0.55078 0.5h14.898c0.3047 0 0.55078-0.223 0.55078-0.5s-0.24608-0.5-0.55078-0.5z" style="fill-opacity:.5;fill:currentColor"/>
</svg>
