<?xml version="1.0" encoding="UTF-8"?>
<!-- Created with Inkscape (http://www.inkscape.org/) -->
<svg width="18" height="18" version="1.0" xmlns="http://www.w3.org/2000/svg" xmlns:cc="http://creativecommons.org/ns#" xmlns:dc="http://purl.org/dc/elements/1.1/" xmlns:rdf="http://www.w3.org/1999/02/22-rdf-syntax-ns#">
	<metadata>
		<rdf:RDF>
			<cc:Work rdf:about="">
				<dc:format>image/svg+xml</dc:format>
				<dc:type rdf:resource="http://purl.org/dc/dcmitype/StillImage"/>
				<dc:title/>
			</cc:Work>
		</rdf:RDF>
	</metadata>
	<defs>
		<radialGradient id="a" cx="-9447.1" cy="5037.9" r="9" gradientTransform="matrix(1.5555,0,0,1.3826,14704,-6956.5)" gradientUnits="userSpaceOnUse">
			<stop stop-color="#213851" stop-opacity=".9059" offset="0"/>
			<stop stop-color="#27303a" stop-opacity="0" offset="1"/>
		</radialGradient>
		<radialGradient id="b" cx="-9.6312" cy="9.2605" r="8.7344" gradientTransform="matrix(1.1449,0,0,1.1449,20.027,-1.6023)" gradientUnits="userSpaceOnUse">
			<stop stop-color="#ffffff" stop-opacity=".74858" offset="0"/>
			<stop stop-color="#ffffff" stop-opacity=".60511" offset="1"/>
		</radialGradient>
	</defs>
	<path d="m14 4v2h-2.4688l-4.0938 6.75-0.15625 0.25h-3.2812v-2h-1v5h1v-2h4.0312l0.15625-0.25 4.0938-6.75h1.7188v2h1v-5z" color="#000000" fill="url(#b)" fill-opacity=".99858" style="paint-order:normal;text-indent:0;text-transform:none"/>
	<path d="m16 3v1h-1v3h1v1h1v-5zm-5.2812 2-0.15625 0.25-4.0938 6.75h-2.4688v1h3.2812l0.15625-0.25 4.0938-6.75h2.4688v-1h-3zm-9.7188 5v5h1v-1h1v-3h-1v-1z" color="#000000" fill="#090d11" fill-opacity=".76621" style="paint-order:normal"/>
	<path d="m16 3v1h-1v3h1v1h1v-5zm-5.2812 2-0.15625 0.25-4.0938 6.75h-2.4688v1h3.2812l0.15625-0.25 4.0938-6.75h2.4688v-1h-3zm-9.7188 5v5h1v-1h1v-3h-1v-1z" color="#000000" fill="url(#a)" fill-opacity=".75328" style="paint-order:normal"/>
</svg>
