<?xml version="1.0" encoding="UTF-8"?>
<svg id="g" width="18" height="18" version="1.1" xmlns="http://www.w3.org/2000/svg" xmlns:cc="http://creativecommons.org/ns#" xmlns:dc="http://purl.org/dc/elements/1.1/" xmlns:rdf="http://www.w3.org/1999/02/22-rdf-syntax-ns#">
	<metadata id="a">
		<rdf:RDF>
			<cc:Work rdf:about="">
				<dc:format>image/svg+xml</dc:format>
				<dc:type rdf:resource="http://purl.org/dc/dcmitype/StillImage"/>
				<dc:title/>
			</cc:Work>
		</rdf:RDF>
	</metadata>
	<defs id="b">
		<style id="current-color-scheme" type="text/css">.ColorScheme-Text {color:#090d11;}.ColorScheme-Background{color:#ffffff;}</style>
	</defs>
	<path id="f" class="ColorScheme-Text" d="m9.8008 2.0039c-0.30248 0.0075617-0.54301 0.084022-0.68945 0.23047l-5.6582 5.6562c-0.58579 0.58579 0.20743 2.3266 1.7695 3.8887 0.59128 0.59128 1.2071 1.0706 1.7773 1.4082v2.8125h-2c-0.554 0-1 0.446-1 1h8c0-0.554-0.446-1-1-1h-3v-2.3555c0.48975 0.14661 0.88651 0.12716 1.1113-0.09766l5.6562-5.6562c0.58579-0.58579 0.03984-2.6828-1.4668-4.1895-1.13-1.13-2.5926-1.72-3.5-1.6973zm-4.656 6.4543c0.54259 0.031496 1.3762 0.53269 2.1157 1.2721 1.0164 1.0163 1.5307 2.1491 1.1483 2.5289-0.38189 0.37887-1.5127-0.13583-2.527-1.1502-1.0144-1.0143-1.5291-2.1451-1.1502-2.527 0.092094-0.092369 0.23261-0.13446 0.41323-0.12378z" style="fill-opacity:.75;fill:currentColor"/>
	<path id="h" class="ColorScheme-Background" d="m9.7188 1.3223c-0.43844 0.010961-0.92114 0.10864-1.3145 0.50195l-5.6582 5.3594c-0.40135 0.40135-0.50783 0.95178-0.48047 1.4023 0.3551 2.1435 2.2589 4.0003 3.7344 5.0742v1.3398h-2c-0.72673 0-1.3664 0.40794-1.7168 1h11.434c-0.35035-0.59206-0.99006-1-1.7168-1h-3v-0.36719c0.28585-0.06355 0.58065-0.12806 0.81836-0.37891l5.3594-5.6562c0.38429-0.40551 0.49091-0.87775 0.50195-1.3145 0.01105-0.4367-0.07101-0.87669-0.2168-1.332-0.29157-0.91068-0.85143-1.8846-1.6895-2.7227-1.2571-1.2571-2.7446-1.939-4.0547-1.9062zm0.082031 0.68164c0.90744-0.022685 2.37 0.56729 3.5 1.6973 1.5066 1.5066 2.0526 3.6037 1.4668 4.1895l-5.6563 5.6562c-0.22482 0.22482-0.62158 0.24426-1.1113 0.09766v1.777h-1v-2.234c-0.00562-0.0033-0.011946-0.0084-0.017578-0.01172 0.0054-0.05911 8.48e-5 -0.11596 0.017578-0.17578l0.24414-0.83789c0.52239 0.26281 0.93571 0.3009 1.1328 0.10547 0.37997-0.3774-0.13078-1.5019-1.1406-2.5117-0.73478-0.73465-1.5644-1.2324-2.1035-1.2637-0.17946-0.010612-0.31865 0.03127-0.41016 0.12305-0.37644 0.37944 0.1347 1.5019 1.1426 2.5098 0.13809 0.13775 0.28166 0.27005 0.42773 0.39258-0.0049 0.05549-0.29297 0.42215-0.29297 0.48242v0.47266c-0.25998-0.21191-0.52088-0.43689-0.77734-0.69336-1.5621-1.5621-2.3553-3.3029-1.7695-3.8887l5.6582-5.6562c0.14645-0.14645 0.38697-0.22291 0.68945-0.23047z" style="fill-opacity:.5;fill:currentColor"/>
</svg>
