<?xml version="1.0" encoding="UTF-8"?>
<!-- Created with Inkscape (http://www.inkscape.org/) -->
<svg width="18" height="18" version="1.1" xmlns="http://www.w3.org/2000/svg" xmlns:cc="http://creativecommons.org/ns#" xmlns:dc="http://purl.org/dc/elements/1.1/" xmlns:rdf="http://www.w3.org/1999/02/22-rdf-syntax-ns#">
	<defs>
		<radialGradient id="a" cx="-9387.9" cy="5047.2" r="9" gradientTransform="matrix(1 0 0 .88889 9394.6 -4474.4)" gradientUnits="userSpaceOnUse">
			<stop stop-color="#213851" stop-opacity=".9059" offset="0"/>
			<stop stop-color="#27303a" stop-opacity="0" offset="1"/>
		</radialGradient>
		<radialGradient id="b" cx="9.9746" cy="5.9293" r="9.0713" gradientTransform="matrix(1 0 0 .99903 -2.3005 -2.7883)" gradientUnits="userSpaceOnUse">
			<stop stop-color="#ffffff" stop-opacity=".8252" offset="0"/>
			<stop stop-color="#ffffff" stop-opacity=".6051" offset="1"/>
		</radialGradient>
	</defs>
	<metadata>
		<rdf:RDF>
			<cc:Work rdf:about="">
				<dc:format>image/svg+xml</dc:format>
				<dc:type rdf:resource="http://purl.org/dc/dcmitype/StillImage"/>
				<dc:title/>
			</cc:Work>
		</rdf:RDF>
	</metadata>
	<path d="m10.463 1.9629c-0.2395 0-0.48344 0.026641-0.71484 0.056641-0.04 0.01-0.07854 0.00877-0.11914 0.00977-0.086 0.013-0.17291 0.022063-0.25781 0.039063-0.01 0-0.01448 0.00172-0.02148 0.011719-0.1389 0.029-0.29479 0.074081-0.42969 0.11328-0.029 0.01-0.05594 0.019297-0.08594 0.029297-0.1509 0.047-0.28274 0.083778-0.42774 0.14258-0.06 0.024-0.11708 0.049172-0.17578 0.076172-0.1856 0.085-0.36612 0.17785-0.54102 0.28125-0.073 0.043-0.14765 0.086913-0.21875 0.13281-0.019 0.017-0.038547 0.034828-0.060547 0.048828-0.029 0.019-0.059891 0.036641-0.087891 0.056641-0.1161 0.082-0.2325 0.16731-0.3418 0.25781-0.043 0.035-0.084 0.071322-0.125 0.10742-0.036 0.031-0.070169 0.063703-0.10547 0.095703-0.1825 0.1687-0.35537 0.34726-0.51367 0.53906-0.053 0.064-0.10099 0.12961-0.15039 0.19531-0.022 0.029-0.043453 0.056938-0.064453 0.085937-0.075 0.1018-0.13798 0.21-0.20898 0.3125-0.1742 0.2799-0.32517 0.57612-0.44727 0.88672-0.046 0.123-0.086 0.2493-0.125 0.375-0.036 0.1138-0.058891 0.22705-0.087891 0.34375-0.014 0.06-0.044641 0.11158-0.056641 0.17188v0.029297c-0.027 0.136-0.049359 0.27331-0.068359 0.41211 0 0.038-0.013578 0.072928-0.017578 0.11133-0.018 0.1815-0.029297 0.37475-0.029297 0.56055 0 1.1869 0.3885 2.2744 1.0293 3.1719 0.3528 0.5138 0.801 0.93201 1.3125 1.2871 0.8941 0.6327 1.9652 1.0293 3.1445 1.0293 0.9459 0 1.8346-0.23876 2.6113-0.66016 0.3101-0.1685 0.60265-0.36499 0.87305-0.58789 0.1348-0.1112 0.26507-0.23012 0.38867-0.35352 0.1237-0.1238 0.24202-0.25357 0.35352-0.38867 0.083-0.101 0.15828-0.20755 0.23438-0.31445 0.026-0.037 0.05508-0.06827 0.08008-0.10547 0.098-0.1452 0.18934-0.29842 0.27344-0.45313 0.084-0.155 0.16127-0.31306 0.23047-0.47656 0.069-0.1636 0.13029-0.33075 0.18359-0.50195 0.053-0.1712 0.10002-0.34544 0.13672-0.52344 0.01-0.027 0.0087-0.055031 0.01172-0.082031 0.062-0.3314 0.09961-0.67198 0.09961-1.0215 0-0.3787-0.03863-0.74847-0.11133-1.1055-0.036-0.178-0.08402-0.35419-0.13672-0.52539-0.053-0.1713-0.11439-0.33835-0.18359-0.50195-0.2081-0.4916-0.48531-0.94576-0.82031-1.3516-1.0063-1.2178-2.5308-1.9941-4.2344-1.9941zm0 1.9453h2e-3c1.9521 0.00107 3.5351 1.5847 3.5351 3.5371 0 1.9531-1.584 3.5371-3.5371 3.5371-1.9531 0-3.5352-1.584-3.5352-3.5371 0-0.3795 0.075047-0.73728 0.18555-1.0801 0.022-0.072 0.0355-0.14855 0.0625-0.21875 0.01-0.026 0.016344-0.056031 0.027344-0.082031 0.045-0.1057 0.11122-0.20439 0.16602-0.30469 0.038-0.071 0.067828-0.1526 0.11133-0.2207 0.013-0.02 0.030922-0.037641 0.044922-0.056641 0.02-0.029 0.044453-0.054984 0.064453-0.083984 0.029-0.035 0.054984-0.070722 0.083984-0.10742 0.057-0.075 0.10322-0.15276 0.16602-0.22266 0.027-0.03 0.061797-0.053984 0.091797-0.083984 0.042-0.043 0.086559-0.080294 0.13086-0.12109 0.047-0.041 0.090319-0.087853 0.13672-0.12695 0.019-0.016 0.03469-0.038687 0.05469-0.054687 0.046-0.037 0.09838-0.063703 0.14648-0.095703 0.1538-0.1113 0.31924-0.20532 0.49024-0.29102 0.47575-0.23862 1.004-0.38638 1.5723-0.38672zm-5.3594 7.4824-4.123 4.1211 1.4375 1.4062 4.1367-4.1348c-0.5529-0.4179-1.0385-0.88108-1.4512-1.3926z" fill="#090d11" fill-opacity=".76621" style="paint-order:normal"/>
	<path d="m10.463 1.9629c-0.2395 0-0.48344 0.026641-0.71484 0.056641-0.04 0.01-0.07854 0.00877-0.11914 0.00977-0.086 0.013-0.17341 0.022063-0.25781 0.039063-0.01 0-0.01253 0.00172-0.01953 0.011719-0.1389 0.029-0.29489 0.074081-0.42969 0.11328-0.029 0.01-0.05594 0.019297-0.08594 0.029297-0.1509 0.047-0.28273 0.083778-0.42773 0.14258-0.06 0.024-0.11903 0.049172-0.17773 0.076172-0.059 0.027-0.11408 0.060844-0.17188 0.089844-0.124 0.061-0.25024 0.12111-0.36914 0.19141 0 0-0.00967 0.00977-0.013672 0.00977h-0.00977c-0.066 0.039-0.13111 0.078694-0.19531 0.12109-0.019 0.017-0.0405 0.034828-0.0625 0.048828-0.029 0.019-0.058891 0.036641-0.087891 0.056641-0.116 0.082-0.2325 0.16536-0.3418 0.25586-0.043 0.035-0.0841 0.071322-0.125 0.10742-0.036 0.031-0.070069 0.064656-0.10547 0.097656-0.1824 0.1686-0.35547 0.34726-0.51367 0.53906-0.053 0.064-0.10099 0.12961-0.15039 0.19531 0 0 2.344e-4 0.00977-0.00977 0.00977-0.019 0.026-0.039594 0.051125-0.058594 0.078125-0.075 0.1019-0.13798 0.21-0.20898 0.3125-0.1732 0.2783-0.32351 0.57216-0.44531 0.88086-6e-4 0 0-2.344e-4 0 0.00977-0.047 0.123-0.086 0.25125-0.125 0.37695-0.036 0.1138-0.056938 0.2251-0.085937 0.3418-0.014 0.06-0.044641 0.11148-0.056641 0.17188v0.029297c-0.027 0.1361-0.049359 0.27331-0.068359 0.41211 0 0.038-0.013578 0.072828-0.017578 0.11133-0.018 0.1814-0.029297 0.37475-0.029297 0.56055 0 1.1869 0.3885 2.2744 1.0293 3.1719 0.088 0.1285 0.18145 0.25019 0.28125 0.36719 0.1 0.1171 0.20621 0.22934 0.31641 0.33594 0.2198 0.2129 0.45944 0.40668 0.71484 0.58398 0.8941 0.6327 1.9652 1.0293 3.1445 1.0293 0.2244 0 0.44481-0.01697 0.66211-0.04297 0.04 0 0.07729-0.01353 0.11719-0.01953 0.1699-0.024 0.33735-0.05375 0.50195-0.09375 0.059-0.014 0.11798-0.02892 0.17578-0.04492 0.1652-0.046 0.32588-0.10026 0.48438-0.16016 0.03-0.012 0.0618-0.0212 0.0918-0.0332 0.1982-0.079 0.39212-0.16658 0.57812-0.26758 0.1551-0.084 0.30537-0.17544 0.45117-0.27344 0.1466-0.099 0.28783-0.20401 0.42383-0.31641 0.1348-0.1113 0.26322-0.23012 0.38672-0.35352 0.1237-0.1238 0.24202-0.25162 0.35352-0.38672 0.083-0.101 0.16023-0.20755 0.23633-0.31445 0.025-0.036 0.05508-0.06917 0.08008-0.10547 0.098-0.1452 0.18728-0.29657 0.27148-0.45117 0.084-0.155 0.16127-0.31296 0.23047-0.47656 0.069-0.1635 0.13225-0.33075 0.18555-0.50195 0.053-0.1712 0.09807-0.34749 0.13477-0.52539 0.01-0.027 0.01067-0.055031 0.01367-0.082031 0.03-0.161 0.05431-0.32298 0.07031-0.48828 0.017-0.1752 0.02734-0.3535 0.02734-0.5332 0-0.3792-0.03763-0.74982-0.11133-1.1074-0.036-0.1779-0.08107-0.35224-0.13477-0.52344-0.053-0.1712-0.11449-0.33845-0.18359-0.50195 0-0.011-0.01258-0.022203-0.01758-0.033203-0.086-0.1992-0.18487-0.38822-0.29297-0.57422-0.037-0.063-0.07603-0.1258-0.11523-0.1875-0.1225-0.1925-0.25178-0.38124-0.39648-0.55664-0.051-0.061-0.10881-0.11668-0.16211-0.17578-0.068-0.075-0.13348-0.15146-0.20508-0.22266-0.061-0.061-0.12575-0.11818-0.18945-0.17578-0.079-0.072-0.15909-0.14023-0.24219-0.20703-0.062-0.05-0.12515-0.097631-0.18945-0.14453-0.084-0.062-0.16981-0.12249-0.25781-0.17969-0.075-0.049-0.15277-0.095525-0.23047-0.14062-0.088-0.051-0.17678-0.10018-0.26758-0.14648-0.071-0.036-0.1437-0.072169-0.2168-0.10547-0.1023-0.047-0.2069-0.090459-0.3125-0.13086-0.076-0.029-0.15257-0.057984-0.23047-0.083984-0.1155-0.038-0.23276-0.070762-0.35156-0.10156-0.062-0.016-0.1243-0.034828-0.1875-0.048828-0.1341-0.03-0.2707-0.048359-0.4082-0.068359-0.063-0.01-0.1241-0.022297-0.1875-0.029297-0.1953-0.021-0.3949-0.035156-0.5957-0.035156zm0 1.9453c1.9531 0 3.5371 1.584 3.5371 3.5371s-1.584 3.5371-3.5371 3.5371c-1.9531 0-3.5352-1.584-3.5352-3.5371 0-0.2209 0.031219-0.43292 0.074219-0.64062 0-0.025-2.344e-4 -0.053125 0.00977-0.078125 0.026-0.1257 0.066916-0.24368 0.10352-0.36328 0.022-0.072 0.033547-0.1466 0.060547-0.2168 0.01-0.026 0.018297-0.056031 0.029297-0.082031 0.045-0.1057 0.11122-0.20449 0.16602-0.30469 0.038-0.071 0.065875-0.1527 0.10938-0.2207 0.013-0.021 0.030922-0.037641 0.044922-0.056641 0.02-0.029 0.044453-0.054984 0.064453-0.083984 0.029-0.035 0.056938-0.072575 0.085937-0.10938 0.057-0.075 0.10126-0.1509 0.16406-0.2207 0.027-0.03 0.06375-0.053984 0.09375-0.083984 0.021-0.021 0.041453-0.041547 0.064453-0.060547 0.022-0.02 0.043406-0.041547 0.066406-0.060547 0.047-0.041 0.090319-0.086 0.13672-0.125 0.019-0.016 0.03469-0.038687 0.05469-0.054687 0.046-0.037 0.09643-0.065656 0.14453-0.097656 0.062-0.041 0.1234-0.0847 0.1875-0.125 0.099-0.062 0.19784-0.11186 0.30274-0.16406 0.099-0.05 0.20009-0.097572 0.30469-0.13867 0.013 0 0.02802-0.00972 0.04102-0.011719 0.1623-0.063 0.32965-0.11149 0.50195-0.15039 0-7.001e-4 0.0098 0 0.0098 0s0.01163-7.001e-4 0.01563 0c0.227-0.049 0.45877-0.082031 0.70117-0.082031zm-5.3594 7.4824-4.123 4.1211 1.4375 1.4062 4.1367-4.1348c-0.2765-0.209-0.53524-0.43011-0.77734-0.66211-0.2425-0.2319-0.46733-0.47457-0.67383-0.73047z" fill="url(#a)" style="paint-order:normal"/>
	<path d="m10.463 0.73242c-3.6963 0-6.7129 3.0167-6.7129 6.7129 0 1.0642 0.2894 2.209 0.7168 3.0684l-6.3926 6.498 2.4375-1.0625 0.46875-0.4375 4.123-4.1211c0.413 0.5118 0.89972 0.97438 1.4531 1.3926l-4.1387 4.1367-0.4375 0.46875-1.0312 2.4375 6.5234-6.4316c0.8491 0.4249 1.9267 0.76562 2.9902 0.76562 3.6963 0 6.7422-3.0165 6.7422-6.7129 0-3.6962-3.0459-6.7129-6.7422-6.7129zm2e-3 1.2285-2e-3 0.00195c3.0293 0 5.4844 2.4551 5.4844 5.4844 0 3.0293-2.4551 5.4844-5.4844 5.4844-1.1787 0-2.2484-0.39454-3.1426-1.0273-0.5121-0.3552-0.96145-0.77291-1.3145-1.2871-0.6408-0.8975-1.0273-1.9849-1.0273-3.1719 0-0.1893 0.010297-0.38787 0.029297-0.57227 0.017-0.1748 0.051938-0.34397 0.085937-0.51367v-0.029297c0.012-0.06 0.042641-0.11022 0.056641-0.16992 0.028-0.1167 0.049938-0.22995 0.085937-0.34375 0.045-0.1431 0.086678-0.28993 0.14258-0.42773 0.011-0.028 0.018297-0.056938 0.029297-0.085937 0.037-0.086 0.072981-0.17421 0.11328-0.25781 0.022-0.046 0.031687-0.097678 0.054687-0.14258 0.1288-0.2477 0.29528-0.46155 0.45898-0.68555 0.064-0.089 0.12982-0.17351 0.19922-0.25781 0.1677-0.2032 0.34807-0.39321 0.54297-0.57031 0.066-0.059 0.13082-0.11568 0.19922-0.17188 0.1092-0.09 0.22765-0.17621 0.34375-0.25781 0.028-0.02 0.056938-0.037641 0.085937-0.056641 0.051-0.035 0.089778-0.079981 0.14258-0.11328 0.035-0.022 0.079934-0.035641 0.11523-0.056641 0.2125-0.1262 0.42655-0.2446 0.65625-0.3418 0.027-0.012 0.05794-0.018297 0.08594-0.029297 0.145-0.059 0.27879-0.095778 0.42969-0.14258 0.029-0.01 0.05594-0.020297 0.08594-0.029297 0.1348-0.039 0.28883-0.084081 0.42773-0.11328 0.029-0.01 0.05594-0.023297 0.08594-0.029297 0.1025-0.019 0.20995-0.015297 0.31445-0.029297 0.2314-0.03 0.47534-0.056641 0.71484-0.056641z" color="#000000" fill="url(#b)" style="paint-order:normal;text-decoration-line:none;text-indent:0;text-transform:none"/>
</svg>
