<?xml version="1.0" encoding="UTF-8"?>
<!-- Created with Inkscape (http://www.inkscape.org/) -->
<svg width="18" height="18" version="1.0" xmlns="http://www.w3.org/2000/svg" xmlns:cc="http://creativecommons.org/ns#" xmlns:dc="http://purl.org/dc/elements/1.1/" xmlns:rdf="http://www.w3.org/1999/02/22-rdf-syntax-ns#">
	<metadata>
		<rdf:RDF>
			<cc:Work rdf:about="">
				<dc:format>image/svg+xml</dc:format>
				<dc:type rdf:resource="http://purl.org/dc/dcmitype/StillImage"/>
				<dc:title/>
			</cc:Work>
		</rdf:RDF>
	</metadata>
	<defs>
		<radialGradient id="c" cx=".15379" cy="7.7694" r="6" gradientTransform="matrix(2.8333,0,0,2.8333,8.5643,-8.0133)" gradientUnits="userSpaceOnUse">
			<stop stop-color="#213851" stop-opacity=".9059" offset="0"/>
			<stop stop-color="#27303a" stop-opacity="0" offset="1"/>
		</radialGradient>
		<radialGradient id="a" cx="-2.8581" cy="5.0171" r="7" gradientTransform="matrix(1.9419,0,0,1.9419,14.55,-5.7428)" gradientUnits="userSpaceOnUse">
			<stop stop-color="#ffffff" stop-opacity=".74858" offset="0"/>
			<stop stop-color="#ffffff" stop-opacity=".60511" offset="1"/>
		</radialGradient>
	</defs>
	<path d="m3 3c-0.554 0-1 0.446-1 1v9c0 0.554 0.446 1 1 1h6v2l3-2h3c0.554 0 1-0.446 1-1v-9c0-0.554-0.446-1-1-1zm5.9668 2c0.25744-0.0034 0.51337 0.03327 0.75781 0.10742 0.48889 0.1483 0.9343 0.44694 1.2598 0.87109 0.65092 0.8483 0.6878 2.0211 0.09375 2.9102-0.59405 0.88906-1.6918 1.3021-2.7246 1.0254-0.68796-0.1452-0.41088-1.1821 0.25781-0.96484 0.62264 0.16684 1.2786-0.079268 1.6367-0.61523 0.35812-0.53597 0.33381-1.2366-0.05859-1.748-0.3924-0.5114-1.0615-0.71306-1.6719-0.50586-0.61039 0.2072-1.0176 0.77532-1.0176 1.4199 0.00956 0.67616-1.0096 0.67616-1 0 0-1.0693 0.68475-2.0235 1.6973-2.3672 0.25313-0.085925 0.51209-0.12941 0.76953-0.13281zm-0.4668 6h1c0.277 0 0.5 0.223 0.5 0.5s-0.223 0.5-0.5 0.5h-1c-0.277 0-0.5-0.223-0.5-0.5s0.223-0.5 0.5-0.5z" fill="#090d11" fill-opacity=".76621" style="paint-order:normal"/>
	<path d="m3 3c-0.554 0-1 0.446-1 1v9c0 0.554 0.446 1 1 1h6v2l3-2h3c0.554 0 1-0.446 1-1v-9c0-0.554-0.446-1-1-1zm5.9668 2c0.25744-0.0034 0.51337 0.03327 0.75781 0.10742 0.48889 0.1483 0.9343 0.44694 1.2598 0.87109 0.65092 0.8483 0.6878 2.0211 0.09375 2.9102-0.59405 0.88906-1.6918 1.3021-2.7246 1.0254-0.68796-0.1452-0.41088-1.1821 0.25781-0.96484 0.62264 0.16684 1.2786-0.079268 1.6367-0.61523 0.35812-0.53597 0.33381-1.2366-0.05859-1.748-0.3924-0.5114-1.0615-0.71306-1.6719-0.50586-0.61039 0.2072-1.0176 0.77532-1.0176 1.4199 0.00956 0.67616-1.0096 0.67616-1 0 0-1.0693 0.68475-2.0235 1.6973-2.3672 0.25313-0.085925 0.51209-0.12941 0.76953-0.13281zm-0.4668 6h1c0.277 0 0.5 0.223 0.5 0.5s-0.223 0.5-0.5 0.5h-1c-0.277 0-0.5-0.223-0.5-0.5s0.223-0.5 0.5-0.5z" fill="url(#c)" fill-opacity=".75328" style="paint-order:normal"/>
	<path d="m3 2c-1.0907 0-2 0.9093-2 2v9c0 1.0907 0.9093 2 2 2h6v2.8691l3.3027-2.8691h2.6973c1.0907 0 2-0.9093 2-2v-9c0-1.0907-0.9093-2-2-2zm0 1h12c0.554 0 1 0.446 1 1v9c0 0.554-0.446 1-1 1h-3l-3 2v-2h-6c-0.554 0-1-0.446-1-1v-9c0-0.554 0.446-1 1-1zm5.9668 2c-0.25744 0.0034-0.5164 0.046887-0.76953 0.13281-1.0125 0.3437-1.6973 1.2979-1.6973 2.3672-0.00956 0.67616 1.0096 0.67616 1 0 0-0.6446 0.40719-1.2127 1.0176-1.4199 0.61039-0.2072 1.2795-0.00554 1.6719 0.50586s0.41671 1.2121 0.05859 1.748c-0.35812 0.53597-1.0141 0.78207-1.6367 0.61523-0.66869-0.21731-0.94577 0.81964-0.25781 0.96484 1.0328 0.27674 2.1306-0.13634 2.7246-1.0254 0.59405-0.88906 0.55717-2.0619-0.09375-2.9102-0.32546-0.42415-0.77088-0.72279-1.2598-0.87109-0.24445-0.074152-0.50037-0.11082-0.75781-0.10742zm-0.4668 6c-0.277 0-0.5 0.223-0.5 0.5s0.223 0.5 0.5 0.5h1c0.277 0 0.5-0.223 0.5-0.5s-0.223-0.5-0.5-0.5z" color="#000000" color-rendering="auto" dominant-baseline="auto" fill="url(#a)" image-rendering="auto" shape-rendering="auto" solid-color="#000000" style="font-feature-settings:normal;font-variant-alternates:normal;font-variant-caps:normal;font-variant-ligatures:normal;font-variant-numeric:normal;font-variant-position:normal;isolation:auto;mix-blend-mode:normal;paint-order:normal;shape-padding:0;text-decoration-color:#000000;text-decoration-line:none;text-decoration-style:solid;text-indent:0;text-orientation:mixed;text-transform:none;white-space:normal"/>
</svg>
