<?xml version="1.0" encoding="UTF-8"?>
<svg id="b" width="18" height="18" version="1.1" xmlns="http://www.w3.org/2000/svg" xmlns:cc="http://creativecommons.org/ns#" xmlns:dc="http://purl.org/dc/elements/1.1/" xmlns:rdf="http://www.w3.org/1999/02/22-rdf-syntax-ns#">
	<metadata id="d">
		<rdf:RDF>
			<cc:Work rdf:about="">
				<dc:format>image/svg+xml</dc:format>
				<dc:type rdf:resource="http://purl.org/dc/dcmitype/StillImage"/>
				<dc:title/>
			</cc:Work>
		</rdf:RDF>
	</metadata>
	<defs id="g">
		<style id="current-color-scheme" type="text/css">.ColorScheme-Text {color:#090d11;}.ColorScheme-Background{color:#ffffff;}</style>
	</defs>
	<path id="c" class="ColorScheme-Text" d="m6 6-4 3 4 3v-2h6v-2h-6zm7 2v2h1v-2zm2 0v2h1v-2z" style="fill-opacity:.75;fill:currentColor"/>
	<path id="e" class="ColorScheme-Background" d="m0.344 9.0003 0.8125-1.0625 4-3 0.8439-0.6875v1.75l-4 3 4 3v1.75l-0.8439-0.6875-4-3zm5.6564-2h7v4h-7v-1h6v-2h-6zm8 0h1v4h-1v-3zm2 0h1v4h-1v-3z" style="fill-opacity:.5;fill:currentColor"/>
	<path id="a" class="ColorScheme-Text" d="m10 14c-0.554 0-1 0.446-1 1s0.446 1 1 1 1-0.446 1-1-0.446-1-1-1zm3 0c-0.554 0-1 0.446-1 1s0.446 1 1 1 1-0.446 1-1-0.446-1-1-1zm3 0c-0.554 0-1 0.446-1 1s0.446 1 1 1 1-0.446 1-1-0.446-1-1-1z" style="fill-opacity:.75;fill:currentColor"/>
	<path id="f" class="ColorScheme-Background" d="m9 16v1h2v-1zm3 0v1h2v-1zm3 0v1h2v-1z" style="fill-opacity:.5;fill:currentColor"/>
</svg>
