<?xml version="1.0" encoding="UTF-8"?>
<svg id="g" width="18" height="18" version="1.1" xmlns="http://www.w3.org/2000/svg" xmlns:cc="http://creativecommons.org/ns#" xmlns:dc="http://purl.org/dc/elements/1.1/" xmlns:rdf="http://www.w3.org/1999/02/22-rdf-syntax-ns#">
	<metadata id="a">
		<rdf:RDF>
			<cc:Work rdf:about="">
				<dc:format>image/svg+xml</dc:format>
				<dc:type rdf:resource="http://purl.org/dc/dcmitype/StillImage"/>
				<dc:title/>
			</cc:Work>
		</rdf:RDF>
	</metadata>
	<defs id="b">
		<style id="current-color-scheme" type="text/css">.ColorScheme-Text {color:#090d11;}.ColorScheme-Background{color:#ffffff;}</style>
	</defs>
	<path id="f" class="ColorScheme-Text" d="m9 2c-0.875 0-5.25 5.8505-5.25 8.75 1e-7 0.60138 0.11728 1.1703 0.30859 1.7051l7.5859-7.5781c-1.1129-1.6154-2.243-2.877-2.6445-2.877zm6.6074 0.32422-0.2207 0.2207 0.0039 0.00391-13.436 13.422 0.70312 0.70508 2.4414-2.4395c0.96135 1.0749 2.3448 1.7637 3.9004 1.7637 2.8995 0 5.25-2.3505 5.25-5.25 0-1.1164-0.65238-2.6673-1.5-4.1562l3.5645-3.5605z" style="fill-opacity:.75;fill:currentColor"/>
	<path id="h" class="ColorScheme-Background" d="m9 1c-0.66657 0-0.83955 0.26425-1.1074 0.48242-0.26787 0.21817-0.53691 0.48646-0.82617 0.80859-0.57853 0.64427-1.2275 1.4958-1.8535 2.4453-1.2519 1.8991-2.4629 4.061-2.4629 6.0137 1e-7 0.88426 0.1941 1.7212 0.5293 2.4844l-2.25 2.248 0.70508 0.70703 13.656-13.641-0.70703-0.70898-2.3105 2.3086c-0.49296-0.70345-0.9879-1.3546-1.4395-1.8574-0.28927-0.32213-0.5583-0.59042-0.82617-0.80859s-0.44086-0.48242-1.1074-0.48242zm0 1c0.40152 0 1.5316 1.2616 2.6445 2.877l-7.5859 7.5781c-0.19131-0.53476-0.30859-1.1037-0.30859-1.7051 0-2.8995 4.375-8.75 5.25-8.75zm4.4863 3.8594-0.73633 0.73438c0.84762 1.4889 1.5 3.0399 1.5 4.1562 0 2.8995-2.3505 5.25-5.25 5.25-1.5556 0-2.939-0.68878-3.9004-1.7637l-0.71094 0.71094c1.1449 1.2563 2.7863 2.0527 4.6113 2.0527 3.4399 0 6.25-2.8101 6.25-6.25 0-1.5788-0.79882-3.2878-1.7637-4.8906z" style="fill-opacity:.5;fill:currentColor"/>
</svg>
