<?xml version="1.0" encoding="UTF-8"?>
<!-- Created with Inkscape (http://www.inkscape.org/) -->
<svg width="18" height="18" version="1.1" xmlns="http://www.w3.org/2000/svg" xmlns:cc="http://creativecommons.org/ns#" xmlns:dc="http://purl.org/dc/elements/1.1/" xmlns:rdf="http://www.w3.org/1999/02/22-rdf-syntax-ns#">
	<metadata>
		<rdf:RDF>
			<cc:Work rdf:about="">
				<dc:format>image/svg+xml</dc:format>
				<dc:type rdf:resource="http://purl.org/dc/dcmitype/StillImage"/>
			</cc:Work>
		</rdf:RDF>
	</metadata>
	<defs>
		<style id="current-color-scheme" type="text/css">.ColorScheme-Background{color:#ffffff;}
			.ColorScheme-Text{color:#090d11;}</style>
	</defs>
	<g transform="translate(9385.3,-4845.2)">
		<path class="ColorScheme-Text" d="m-9369.3 4853.2-2.3125-2.3125 2-2-1.4063-1.4063-2 2-2.2812-2.2812v6zm-8 8v-6h-6l2.2812 2.2812-2 2 1.4063 1.4063 2-2z" style="fill-opacity:.75;fill:currentColor"/>
		<path class="ColorScheme-Background" d="m-9376.3 4854.2 8.9943 0.01-0.9896-1h-7.0104v-7.0104l-1-0.9896 0.01 7.9779v1.0164zm5.6568-2.3422 2.0109-2.0109 0.9282-0.972-0.9282-0.9721-2.9831 2.9831 0.9722 0.9723zm-2.3423-2.3423 2.0109-2.0109 0.9723-0.9722-0.9722-0.9283-0.972 0.9282-2.0109 2.0109 0.9723 0.9722z" style="fill-opacity:.5;fill:currentColor"/>
		<path class="ColorScheme-Background" d="m-9376.3 4854.2-8.9943-0.01 0.9896 1h7.0104v7.0104l1 0.9896-0.01-7.9779v-1.0164zm-5.6568 2.3422-2.0109 2.0109-0.9282 0.972 0.9282 0.9721 2.9831-2.9831-0.9722-0.9723zm2.3423 2.3423-2.0109 2.0109-0.9723 0.9722 0.9722 0.9283 0.972-0.9282 2.0109-2.0109-0.9723-0.9722z" style="fill-opacity:.5;fill:currentColor"/>
	</g>
</svg>
