<?xml version="1.0" encoding="UTF-8"?>
<!-- Created with Inkscape (http://www.inkscape.org/) -->
<svg width="18" height="18" version="1.1" xmlns="http://www.w3.org/2000/svg" xmlns:cc="http://creativecommons.org/ns#" xmlns:dc="http://purl.org/dc/elements/1.1/" xmlns:rdf="http://www.w3.org/1999/02/22-rdf-syntax-ns#">
	<metadata>
		<rdf:RDF>
			<cc:Work rdf:about="">
				<dc:format>image/svg+xml</dc:format>
				<dc:type rdf:resource="http://purl.org/dc/dcmitype/StillImage"/>
			</cc:Work>
		</rdf:RDF>
	</metadata>
	<defs>
		<style id="current-color-scheme" type="text/css">.ColorScheme-Text {color:#090d11;}.ColorScheme-Background{color:#ffffff;}</style>
	</defs>
	<path class="ColorScheme-Text" d="m8.5 1.502c-0.52684 0-0.78979 0.037168-0.84961 0.060547s-0.051377 0.00783-0.18555 0.24023c-0.49059 0.84972-0.84174 1.6234-1.625 2.0781v0.00195c-3e-3 0.00173-0.00481 0.00414-0.00781 0.00586-0.78584 0.45153-1.6317 0.36719-2.6133 0.36719-0.26835 2.2e-6 -0.25256-0.00105-0.30273 0.039062-0.05016 0.040116-0.21314 0.24882-0.47656 0.70508-0.26341 0.45625-0.36339 0.70214-0.37305 0.76562-0.0097 0.063498-0.016982 0.050804 0.11719 0.2832 0.49185 0.85191 0.9855 1.5416 0.98633 2.4512-8.41e-4 0.90945-0.49448 1.5992-0.98633 2.4512-0.13418 0.2324-0.12685 0.21971-0.11719 0.2832 0.0097 0.0635 0.10964 0.30936 0.37305 0.76562 0.26342 0.45625 0.4264 0.66495 0.47656 0.70508 0.05016 0.04012 0.034374 0.03905 0.30273 0.03906 0.98538 1e-6 1.8313-0.08294 2.6211 0.37305 0.78327 0.45468 1.1344 1.2303 1.625 2.0801 0.13418 0.23239 0.12574 0.21684 0.18555 0.24023 0.05982 0.02338 0.32277 0.06055 0.84961 0.06055s0.78979-0.03717 0.84961-0.06055 0.051377-0.0078 0.18555-0.24023c0.49059-0.84973 0.84174-1.6234 1.625-2.0781v-2e-3c0.78981-0.456 1.6358-0.37305 2.6211-0.37305 0.26836 0 0.25257 0.0011 0.30273-0.03906 0.05016-0.04012 0.21314-0.24882 0.47656-0.70508 0.26342-0.45625 0.36337-0.70212 0.37305-0.76562 0.0097-0.0635 0.01698-0.0508-0.11719-0.2832-0.49101-0.85044-0.98466-1.5403-0.98633-2.4473v-0.00781c0.0017-0.90692 0.49532-1.5968 0.98633-2.4473 0.13418-0.2324 0.12687-0.21971 0.11719-0.2832-0.0097-0.063503-0.10963-0.30938-0.37305-0.76562s-0.4264-0.66495-0.47656-0.70508c-0.05016-0.040115-0.03438-0.03906-0.30273-0.039062-0.98538-1.4e-6 -1.8313 0.082949-2.6211-0.37305v-0.00195c-0.78327-0.45467-1.1344-1.2284-1.625-2.0781-0.13418-0.2324-0.12574-0.21684-0.18555-0.24023-0.05982-0.023379-0.32277-0.060547-0.84961-0.060547zm-2 4.3477a0.65 0.65 0 0 1 0.45898 0.19141l1.541 1.541 1.541-1.541a0.65 0.65 0 0 1 0.45898-0.19141 0.65 0.65 0 0 1 0.45898 0.19141 0.65 0.65 0 0 1 0 0.91797l-1.541 1.541 1.541 1.541a0.65 0.65 0 0 1 0 0.91797 0.65 0.65 0 0 1-0.91797 0l-1.541-1.541-1.541 1.541a0.65 0.65 0 0 1-0.91797 0 0.65 0.65 0 0 1 0-0.91797l1.541-1.541-1.541-1.541a0.65 0.65 0 0 1 0-0.91797 0.65 0.65 0 0 1 0.45898-0.19141z" style="fill-opacity:.75;fill:currentColor"/>
	<path class="ColorScheme-Background" d="m8.5 0.5c-0.47365 0-0.77873-0.001257-1.0918 0.12109-0.31306 0.12235-0.5187 0.38833-0.66211 0.63672-0.39992 0.69259-0.9533 1.4739-1.418 1.7422l0.5 0.86719c0.81917-0.47295 1.3633-1.3788 1.7852-2.1094 0.11504-0.19925 0.10692-0.18503 0.1582-0.20508s0.27683-0.052734 0.72852-0.052734 0.67723 0.03269 0.72852 0.052734c0.051288 0.020044 0.043165 0.00583 0.1582 0.20508 0.42188 0.73061 0.96598 1.6364 1.7852 2.1094l0.5-0.86719c-0.46466-0.26827-1.018-1.0496-1.418-1.7422-0.14341-0.24839-0.34904-0.51437-0.66211-0.63672-0.31306-0.12235-0.61815-0.12109-1.0918-0.12109zm-3.1758 2.502c-0.46466 0.26828-1.419 0.35933-2.2188 0.35938-0.28682 2.4e-6 -0.62032 0.04396-0.88281 0.25391s-0.41356 0.47457-0.65039 0.88477c-0.23683 0.41019-0.39083 0.67356-0.44141 1.0059-0.050573 0.3323 0.077296 0.64418 0.2207 0.89258 0.39984 0.69263 0.79883 1.5631 0.79883 2.0996h1c3e-6 -0.9459-0.50985-1.8689-0.93164-2.5996-0.11503-0.19925-0.10789-0.18775-0.099609-0.24219s0.092515-0.26508 0.31836-0.65625 0.36715-0.57107 0.41016-0.60547c0.043003-0.034394 0.02774-0.033201 0.25781-0.033203 0.84367-5.12e-5 1.8996-0.019236 2.7188-0.49219l-0.5-0.86719zm6.3516 0-0.5 0.86719c0.81917 0.47295 1.8751 0.49214 2.7188 0.49219 0.23007 1.9e-6 0.21481-0.00119 0.25781 0.033203 0.043 0.034394 0.18431 0.2143 0.41016 0.60547s0.31007 0.60181 0.31836 0.65625c0.0083 0.054439 0.01543 0.042938-0.09961 0.24219-0.42179 0.73066-0.93164 1.6537-0.93164 2.5996h1c-1e-6 -0.53655 0.39899-1.407 0.79883-2.0996 0.14341-0.24839 0.27128-0.56028 0.2207-0.89258-0.05057-0.3323-0.20458-0.59567-0.44141-1.0059-0.23682-0.41019-0.3879-0.67482-0.65039-0.88477s-0.59599-0.2539-0.88281-0.25391c-0.79976-4.84e-5 -1.7541-0.0911-2.2188-0.35938zm-5.1758 2.8477a0.65 0.65 0 0 0-0.45898 0.19141 0.65 0.65 0 0 0 0 0.91797l1.541 1.541-1.541 1.541a0.65 0.65 0 0 0 0 0.91797 0.65 0.65 0 0 0 0.91797 0l1.541-1.541 1.541 1.541a0.65 0.65 0 0 0 0.91797 0 0.65 0.65 0 0 0 0-0.91797l-1.541-1.541 1.541-1.541a0.65 0.65 0 0 0 0-0.91797 0.65 0.65 0 0 0-0.45898-0.19141 0.65 0.65 0 0 0-0.45898 0.19141l-1.541 1.541-1.541-1.541a0.65 0.65 0 0 0-0.45898-0.19141zm-4.3496 2.6523c1.7e-6 0.53655-0.39899 1.407-0.79883 2.0996-0.14341 0.2484-0.27128 0.56028-0.2207 0.89258 0.050573 0.3323 0.20458 0.59566 0.44141 1.0059 0.23683 0.41019 0.3879 0.67482 0.65039 0.88477s0.59599 0.2539 0.88281 0.25391c0.79976 4.9e-5 1.7541 0.0911 2.2188 0.35938l0.5-0.86719c-0.81917-0.47295-1.8751-0.49214-2.7188-0.49219-0.23007-2e-6 -0.21481 0.0012-0.25781-0.0332-0.043002-0.0344-0.18431-0.2143-0.41016-0.60547s-0.31007-0.60181-0.31836-0.65625-0.015425-0.04294 0.099609-0.24219c0.42179-0.73066 0.93164-1.6537 0.93164-2.5996h-1zm11.699 0c-2e-6 0.9459 0.50985 1.8689 0.93164 2.5996 0.11504 0.19925 0.10789 0.18775 0.09961 0.24219-0.0083 0.05444-0.09251 0.26508-0.31836 0.65625-0.22584 0.39117-0.36715 0.57107-0.41016 0.60547-0.043 0.03439-0.02774 0.0332-0.25781 0.0332-0.84367 5.1e-5 -1.8996 0.01924-2.7188 0.49219l0.5 0.86719c0.46466-0.26828 1.419-0.35933 2.2188-0.35938 0.28682-2e-6 0.62032-0.04396 0.88281-0.25391 0.26249-0.20994 0.41356-0.47457 0.65039-0.88477 0.23683-0.41019 0.39083-0.67356 0.44141-1.0059 0.05057-0.3323-0.0773-0.64418-0.2207-0.89258-0.39984-0.69263-0.79883-1.5631-0.79883-2.0996h-1zm-8.0215 4.6309-0.5 0.86719c0.46467 0.26827 1.018 1.0496 1.418 1.7422 0.14341 0.24839 0.34904 0.51437 0.66211 0.63672 0.31306 0.12235 0.61815 0.12109 1.0918 0.12109s0.77873 0.0013 1.0918-0.12109c0.31306-0.12235 0.5187-0.38833 0.66211-0.63672 0.39992-0.69259 0.9533-1.4739 1.418-1.7422l-0.5-0.86719c-0.81917 0.47295-1.3633 1.3788-1.7852 2.1094-0.11504 0.19925-0.10692 0.18503-0.1582 0.20508s-0.27683 0.05273-0.72852 0.05273-0.67723-0.03269-0.72852-0.05273c-0.05129-0.020044-0.043165-0.005831-0.1582-0.20508-0.42188-0.73062-0.96598-1.6364-1.7852-2.1094z" style="fill-opacity:.5;fill:currentColor"/>
</svg>
