<?xml version="1.0" encoding="UTF-8"?>
<svg id="b" width="18" height="18" version="1.1" xmlns="http://www.w3.org/2000/svg" xmlns:cc="http://creativecommons.org/ns#" xmlns:dc="http://purl.org/dc/elements/1.1/" xmlns:rdf="http://www.w3.org/1999/02/22-rdf-syntax-ns#">
	<defs>
		<style id="current-color-scheme" type="text/css">.ColorScheme-Text {color:#090d11;}.ColorScheme-Background{color:#ffffff;}</style>
	</defs>
	<metadata id="f">
		<rdf:RDF>
			<cc:Work rdf:about="">
				<dc:format>image/svg+xml</dc:format>
				<dc:type rdf:resource="http://purl.org/dc/dcmitype/StillImage"/>
			</cc:Work>
		</rdf:RDF>
	</metadata>
	<path id="c" class="ColorScheme-Background" d="m14.725 2.1523c-0.0878-0.00506-0.17538 0.013132-0.25391 0.052734l-3.8008 1.9004c-0.24798 0.12314-0.34868 0.42436-0.22461 0.67188 0.12385 0.24724 0.42488 0.347 0.67188 0.22266l3.8008-1.9004c0.24685-0.12312 0.34735-0.42289 0.22461-0.66992-0.05904-0.11906-0.16305-0.20972-0.28906-0.25195-0.041665-0.014097-0.085008-0.022634-0.12891-0.025391zm-6.2598 2.4785c-0.065219 0.00451-0.12892 0.021759-0.1875 0.050781l-5.207 2.5938c-0.70269 0.34991-1.082 1.0452-1.082 1.7285 0 0.68331 0.37925 1.3789 1.082 1.7285l5.207 2.5918c0.24703 0.12274 0.5468 0.02224 0.66992-0.22461 0.12407-0.24752 0.02337-0.54873-0.22461-0.67188l-5.207-2.5898c-0.36896-0.18355-0.52734-0.50282-0.52734-0.83398s0.15829-0.65021 0.52734-0.83398l5.207-2.5918c0.24685-0.12312 0.34735-0.42289 0.22461-0.66992-0.059041-0.11906-0.16305-0.20972-0.28906-0.25195-0.062162-0.021073-0.12786-0.0297-0.19336-0.025391zm7.4609 0.98633c-0.04386-0.00251-0.08786 7.758e-4 -0.13086 0.00977l-4.1621 0.86328c-0.27017 0.056686-0.44328 0.3216-0.38672 0.5918 0.0558 0.27004 0.31969 0.44393 0.58984 0.38867l4.1621-0.86523c0.27097-0.055772 0.44514-0.32098 0.38867-0.5918-0.046413-0.22113-0.23536-0.38365-0.46094-0.39648zm-6.4258 1.3828c-0.27614 0-0.5 0.22386-0.5 0.5v3c0 0.27614 0.22386 0.5 0.5 0.5s0.5-0.22386 0.5-0.5v-3c0-0.27614-0.22386-0.5-0.5-0.5zm2.207 3.5176c-0.22617 0.01305-0.4153 0.17654-0.46094 0.39844-0.05525 0.27015 0.11863 0.53404 0.38867 0.58984l4.1641 0.85938c0.27015 0.05525 0.53404-0.11863 0.58984-0.38867 0.05525-0.27015-0.11863-0.53404-0.38867-0.58984l-4.1621-0.85938c-0.043-9e-3 -0.087-0.01227-0.13086-0.0098zm-0.84375 2.4336c-0.04324 0.0029-0.08591 0.01146-0.12695 0.02539-0.12566 0.04177-0.22961 0.13168-0.28906 0.25-0.12302 0.24651-0.02346 0.5461 0.22266 0.66992l3.8047 1.9004c0.24703 0.12274 0.5468 0.02224 0.66992-0.22461 0.12407-0.24752 0.02337-0.54873-0.22461-0.67188l-3.8027-1.8984c-0.07871-0.03893-0.16628-0.05644-0.25391-0.05078z" style="fill-opacity:.5;fill:currentColor"/>
	<path id="e" class="ColorScheme-Text" d="m15.049 3.0742c-0.04359 0.00544-0.08628 0.016606-0.12695 0.033203l-3.9277 1.627c-0.25527 0.10609-0.37601 0.39919-0.26953 0.6543 0.10609 0.25419 0.39777 0.3747 0.65234 0.26953l3.9277-1.627c0.25495-0.10533 0.37643-0.39724 0.27148-0.65234-0.08651-0.20925-0.30285-0.33425-0.52734-0.30469zm-6.0488 2.4238-5.2812 2.6406c-0.73518 0.36759-0.73518 1.3551 0 1.7227l5.2812 2.6406zm7.0059 1.1543-4.2129 0.55664c-0.27406 0.03546-0.46739 0.28652-0.43164 0.56055 0.03643 0.27327 0.28719 0.46549 0.56055 0.42969l4.2148-0.55469c0.27406-0.03546 0.46739-0.28652 0.43164-0.56055-0.03543-0.27493-0.28776-0.46856-0.5625-0.43164zm-4.2148 3.1523c-0.22382 0.02978-0.39991 0.20587-0.42969 0.42969-0.03692 0.27474 0.15671 0.52707 0.43164 0.5625l4.2148 0.55273c0.27403 0.03575 0.52509-0.15758 0.56055-0.43164 0.03575-0.27403-0.15758-0.52509-0.43164-0.56055l-4.2148-0.55273c-0.04343-0.00573-0.08743-0.00573-0.13086 0zm-0.66992 2.5078c-0.1771 0.02344-0.32824 0.13959-0.39648 0.30469-0.10495 0.25511 0.01653 0.54701 0.27148 0.65234l3.9277 1.625c0.25511 0.10495 0.54702-0.01653 0.65234-0.27148 0.10517-0.25457-0.01534-0.54625-0.26953-0.65234l-3.9297-1.625c-0.08091-0.03326-0.16914-0.04471-0.25586-0.0332z" style="fill-opacity:.75;fill:currentColor"/>
</svg>
