<?xml version="1.0" encoding="UTF-8"?>
<svg id="b" width="18" height="18" version="1.1" xmlns="http://www.w3.org/2000/svg" xmlns:cc="http://creativecommons.org/ns#" xmlns:dc="http://purl.org/dc/elements/1.1/" xmlns:rdf="http://www.w3.org/1999/02/22-rdf-syntax-ns#">
	<defs>
		<style id="current-color-scheme" type="text/css">.ColorScheme-Text {color:#090d11;}.ColorScheme-Background{color:#ffffff;}</style>
	</defs>
	<metadata id="f">
		<rdf:RDF>
			<cc:Work rdf:about="">
				<dc:format>image/svg+xml</dc:format>
				<dc:type rdf:resource="http://purl.org/dc/dcmitype/StillImage"/>
			</cc:Work>
		</rdf:RDF>
	</metadata>
	<path id="e" class="ColorScheme-Text" d="m15.049 3.0742c-0.04359 0.00544-0.08628 0.016606-0.12695 0.033203l-3.9277 1.627c-0.25527 0.10609-0.37601 0.39919-0.26953 0.6543 0.10609 0.25419 0.39777 0.3747 0.65234 0.26953l3.9277-1.627c0.25495-0.10533 0.37643-0.39724 0.27148-0.65234-0.08651-0.20925-0.30285-0.33425-0.52734-0.30469zm-6.0488 2.4238-5.2812 2.6406c-0.73518 0.36759-0.73518 1.3551 0 1.7227l5.2812 2.6406zm7.0059 1.1543-4.2129 0.55664c-0.27406 0.03546-0.46739 0.28652-0.43164 0.56055 0.03643 0.27327 0.28719 0.46549 0.56055 0.42969l4.2148-0.55469c0.27406-0.03546 0.46739-0.28652 0.43164-0.56055-0.03543-0.27493-0.28776-0.46856-0.5625-0.43164zm-4.2148 3.1523c-0.22382 0.02978-0.39991 0.20587-0.42969 0.42969-0.03692 0.27474 0.15671 0.52707 0.43164 0.5625l4.2148 0.55273c0.27403 0.03575 0.52509-0.15758 0.56055-0.43164 0.03575-0.27403-0.15758-0.52509-0.43164-0.56055l-4.2148-0.55273c-0.04343-0.00573-0.08743-0.00573-0.13086 0zm-0.66992 2.5078c-0.1771 0.02344-0.32824 0.13959-0.39648 0.30469-0.10495 0.25511 0.01653 0.54701 0.27148 0.65234l3.9277 1.625c0.25511 0.10495 0.54702-0.01653 0.65234-0.27148 0.10517-0.25457-0.01534-0.54625-0.26953-0.65234l-3.9297-1.625c-0.08091-0.03326-0.16914-0.04471-0.25586-0.0332z" style="fill-opacity:.75;fill:currentColor"/>
</svg>
