<?xml version="1.0" encoding="UTF-8"?>
<svg id="a" width="18" height="18" version="1.1" xmlns="http://www.w3.org/2000/svg" xmlns:cc="http://creativecommons.org/ns#" xmlns:dc="http://purl.org/dc/elements/1.1/" xmlns:rdf="http://www.w3.org/1999/02/22-rdf-syntax-ns#">
	<metadata id="e">
		<rdf:RDF>
			<cc:Work rdf:about="">
				<dc:format>image/svg+xml</dc:format>
				<dc:type rdf:resource="http://purl.org/dc/dcmitype/StillImage"/>
				<dc:title/>
			</cc:Work>
		</rdf:RDF>
	</metadata>
	<defs id="b">
		<style id="current-color-scheme" type="text/css">.ColorScheme-Text {color:#090d11;}.ColorScheme-Background{color:#ffffff;}</style>
	</defs>
	<path id="d" class="ColorScheme-Text" d="m10 2v4.5l1.7812-1.5938c1.3238 0.8963 2.2188 2.3746 2.2188 4.0938 0 2.3811-1.6772 4.3712-3.9062 4.875-0.033 0.01-0.06075 0.02525-0.09375 0.03125-2.5756 0.5323-5.1544-1.052-5.8438-3.625-0.7148-2.6673 0.8951-5.4102 3.5625-6.125 0.095-0.026 0.18565-0.0445 0.28125-0.0625v-2c-0.2702 0.042-0.5484 0.08495-0.8125 0.15625-3.7343 1.0006-5.9381 4.8282-4.9375 8.5625 0.9273 3.4606 4.2913 5.5942 7.75 5.0938 0.2107-0.03 0.414-0.075 0.625-0.125 0.063-0.015 0.1249-0.01525 0.1875-0.03125v-0.03125c2.9804-0.8005 5.1875-3.485 5.1875-6.7188 0-2.2352-1.0595-4.2168-2.6875-5.5l1.6875-1.5zm-2 5v4h2v-4z" style="fill-opacity:.75;fill:currentColor"/>
	<path id="c" class="ColorScheme-Background" d="m9 1v5h1v-4h4v-1zm-2.0742 0.28516c-4.2535 1.1412-6.7822 5.5341-5.6426 9.7871 1.0572 3.9454 4.9112 6.3954 8.8594 5.8242 0.2592-0.037 0.49329-0.09098 0.71289-0.14258-0.081 0.019-0.01307 0.01984 0.20313-0.03516l0.75195-0.19141v-0.17578c2.9996-1.1464 5.1875-3.9518 5.1875-7.3516 0-2.1257-0.97002-3.9419-2.3242-5.373l-0.79883-0.62695-0.5625 0.5c1.628 1.2832 2.6875 3.2648 2.6875 5.5 0 3.2337-2.2071 5.9182-5.1875 6.7188v0.03125c-0.0626 0.016-0.1245 0.01625-0.1875 0.03125-0.211 0.05-0.4143 0.095-0.625 0.125-3.4587 0.5004-6.8227-1.6332-7.75-5.0938-1.0006-3.7343 1.2032-7.5619 4.9375-8.5625l-0.26172-0.96484zm4.8867 3.5898-0.8125 0.63672c1.1985 0.69059 2 1.9897 2 3.4766 0 0.73323-0.1873 1.4096-0.52539 2-0.09679 0.16902-0.20568 0.33989-0.32617 0.49219-0.77429 0.9728-1.9512 1.5033-3.1484 1.5078v1.0117c1.0774-0.0035 2.1284-0.34827 3-1 0.10566-0.07934 0.21362-0.16284 0.3125-0.25 0.04373-0.03848 0.08249-0.08485 0.125-0.125 0.11017-0.10409 0.21222-0.19896 0.3125-0.3125 0.02534-0.02857 0.03774-0.06451 0.0625-0.09375 0.19098-0.22558 0.37847-0.45412 0.53125-0.71875 0.42371-0.7341 0.65625-1.5904 0.65625-2.5 0-1.7167-0.8672-3.2224-2.1875-4.125zm-4.8125 2.125v4h1v-4z" style="fill-opacity:.5;fill:currentColor"/>
</svg>
