<?xml version="1.0" encoding="UTF-8"?>
<svg id="a" width="18" height="18" version="1.1" xmlns="http://www.w3.org/2000/svg" xmlns:cc="http://creativecommons.org/ns#" xmlns:dc="http://purl.org/dc/elements/1.1/" xmlns:rdf="http://www.w3.org/1999/02/22-rdf-syntax-ns#">
	<metadata id="d">
		<rdf:RDF>
			<cc:Work rdf:about="">
				<dc:format>image/svg+xml</dc:format>
				<dc:type rdf:resource="http://purl.org/dc/dcmitype/StillImage"/>
			</cc:Work>
		</rdf:RDF>
	</metadata>
	<defs>
		<style id="current-color-scheme" type="text/css">.ColorScheme-Background{color:#ffffff;}
			.ColorScheme-Text{color:#090d11;}
			.ColorScheme-Highlight{color:#2598e4;}
			.ColorScheme-NegativeText {color:#f03489;}
			.ColorScheme-PositiveText {color:#42a53b;}
            .ColorScheme-NeutralText{color:#f2712c;}</style>
	</defs>
	<path id="h" class="ColorScheme-Text" d="m6.5 4c-1.9303 0-3.5 1.5697-3.5 3.5v4.5h1v-4.5c0-1.3936 1.1064-2.5 2.5-2.5h5c1.3936 0 2.5 1.1064 2.5 2.5v4.5h1v-4.5c0-1.9303-1.5697-3.5-3.5-3.5zm-4.5 9a1 1 0 0 0-1 1 1 1 0 0 0 1 1h14a1 1 0 0 0 1-1 1 1 0 0 0-1-1z" style="fill-opacity:.75;fill:currentColor"/>
	<circle id="c" class="ColorScheme-NeutralText warning" cx="14" cy="4" r="3" style="fill:currentColor"/>
</svg>
