<?xml version="1.0" encoding="UTF-8"?>
<svg id="d" width="18" height="18" version="1.1" xmlns="http://www.w3.org/2000/svg" xmlns:cc="http://creativecommons.org/ns#" xmlns:dc="http://purl.org/dc/elements/1.1/" xmlns:rdf="http://www.w3.org/1999/02/22-rdf-syntax-ns#">
	<metadata id="f">
		<rdf:RDF>
			<cc:Work rdf:about="">
				<dc:format>image/svg+xml</dc:format>
				<dc:type rdf:resource="http://purl.org/dc/dcmitype/StillImage"/>
				<dc:title/>
			</cc:Work>
		</rdf:RDF>
	</metadata>
	<defs id="a">
		<style id="current-color-scheme" type="text/css">.ColorScheme-Text {color:#090d11;}.ColorScheme-Background{color:#ffffff;}</style>
	</defs>
	<path id="e" class="ColorScheme-Text" d="m3.5 3c-0.8224 0-1.5 0.6776-1.5 1.5v9c0 0.8223 0.6776 1.5 1.5 1.5h11c0.8223 0 1.5-0.6777 1.5-1.5v-9c0-0.8224-0.6777-1.5-1.5-1.5zm0 1h11c0.2856 0 0.5 0.2143 0.5 0.5v9c0 0.2856-0.2144 0.5-0.5 0.5h-11c-0.2857 0-0.5-0.2144-0.5-0.5v-9c0-0.2857 0.2143-0.5 0.5-0.5zm5.5 1v8h5v-8z" style="fill-opacity:.75;fill:currentColor"/>
	<path id="c" class="ColorScheme-Background" d="m2.5 2c-0.8224 0-1.5 0.6776-1.5 1.5v11c0 0.8223 0.6776 1.5 1.5 1.5h13c0.8223 0 1.5-0.6777 1.5-1.5v-11c0-0.8224-0.6777-1.5-1.5-1.5zm0 1h13c0.2856 0 0.5 0.2143 0.5 0.5v11c0 0.2856-0.2144 0.5-0.5 0.5h-13c-0.2857 0-0.5-0.2144-0.5-0.5v-11c0-0.2857 0.2143-0.5 0.5-0.5zm6 1c-0.27613 2.76e-5 -0.49997 0.22387-0.5 0.5v9c2.76e-5 0.27613 0.22387 0.49997 0.5 0.5h6c0.27613-2.8e-5 0.49997-0.22387 0.5-0.5v-9c-2.8e-5 -0.27613-0.22387-0.49997-0.5-0.5zm0.5 1h5v8h-5z" style="fill-opacity:.5;fill:currentColor"/>
</svg>
