<?xml version="1.0" encoding="UTF-8"?>
<svg id="a" width="18" height="18" version="1.1" xmlns="http://www.w3.org/2000/svg" xmlns:cc="http://creativecommons.org/ns#" xmlns:dc="http://purl.org/dc/elements/1.1/" xmlns:rdf="http://www.w3.org/1999/02/22-rdf-syntax-ns#">
	<metadata id="d">
		<rdf:RDF>
			<cc:Work rdf:about="">
				<dc:format>image/svg+xml</dc:format>
				<dc:type rdf:resource="http://purl.org/dc/dcmitype/StillImage"/>
			</cc:Work>
		</rdf:RDF>
	</metadata>
	<defs>
		<style id="current-color-scheme" type="text/css">.ColorScheme-Background{color:#ffffff;}
			.ColorScheme-Text{color:#090d11;}
            .ColorScheme-NeutralText{color:#f2712c;}</style>
	</defs>
	<path class="ColorScheme-Text" d="m3 3c-0.554 0-1 0.446-1 1v10c0 0.554 0.446 1 1 1h12c0.554 0 1-0.446 1-1v-10c0-0.554-0.446-1-1-1zm1 1c0.5523 0 1 0.4477 1 1s-0.4477 1-1 1-1-0.4477-1-1 0.4477-1 1-1zm3 0c0.5523 0 1 0.4477 1 1s-0.4477 1-1 1-1-0.4477-1-1 0.4477-1 1-1zm3 0c0.5523 0 1 0.4477 1 1s-0.4477 1-1 1-1-0.4477-1-1 0.4477-1 1-1zm-7 3h12v7h-12zm10.5 1c-0.277 0-0.5 0.223-0.5 0.5v4c0 0.277 0.223 0.5 0.5 0.5s0.5-0.223 0.5-0.5v-4c0-0.277-0.223-0.5-0.5-0.5zm-9 4c-0.277 0-0.5 0.223-0.5 0.5s0.223 0.5 0.5 0.5h3c0.277 0 0.5-0.223 0.5-0.5s-0.223-0.5-0.5-0.5z" style="fill:currentColor;opacity:.75"/>
	<path class="ColorScheme-Background" d="m2 2c-0.554 0-1 0.446-1 1v12c0 0.554 0.446 1 1 1h14c0.554 0 1-0.446 1-1v-12c0-0.554-0.446-1-1-1zm0 1h14v12h-14zm2 1c-0.5523 0-1 0.4477-1 1s0.4477 1 1 1 1-0.4477 1-1-0.4477-1-1-1zm3 0c-0.5523 0-1 0.4477-1 1s0.4477 1 1 1 1-0.4477 1-1-0.4477-1-1-1zm3 0c-0.5523 0-1 0.4477-1 1s0.4477 1 1 1 1-0.4477 1-1-0.4477-1-1-1zm4.5 3c-0.277 0-0.5 0.223-0.5 0.5v6c0 0.277 0.223 0.5 0.5 0.5s0.5-0.223 0.5-0.5v-6c0-0.277-0.223-0.5-0.5-0.5zm-11 6c-0.277 0-0.5 0.21447-0.5 0.48047v0.03906c0 0.266 0.223 0.48047 0.5 0.48047h4c0.277 0 0.5-0.21447 0.5-0.48047v-0.03906c0-0.266-0.223-0.48047-0.5-0.48047z" style="fill:currentColor;opacity:.5"/>
</svg>
