<?xml version="1.0" encoding="UTF-8"?>
<!-- Created with Inkscape (http://www.inkscape.org/) -->
<svg width="22" height="22" version="1.1" xmlns="http://www.w3.org/2000/svg" xmlns:cc="http://creativecommons.org/ns#" xmlns:dc="http://purl.org/dc/elements/1.1/" xmlns:rdf="http://www.w3.org/1999/02/22-rdf-syntax-ns#">
	<metadata>
		<rdf:RDF>
			<cc:Work rdf:about="">
				<dc:format>image/svg+xml</dc:format>
				<dc:type rdf:resource="http://purl.org/dc/dcmitype/StillImage"/>
			</cc:Work>
		</rdf:RDF>
	</metadata>
	<defs id="e">
		<style id="current-color-scheme" type="text/css">.ColorScheme-NegativeText { color:#fa0473; }
			.ColorScheme-Text { color:#090d11; }
			.ColorScheme-Background { color:#ffffff; }</style>
	</defs>
	<path class="ColorScheme-Background" d="m10 1c-0.7507 0-1.2835 0.5009-1.625 1.125-1.8921 0.3123-3.375 1.9003-3.375 3.875v10c0 2.194 1.8059 4 4 4h4c2.194 0 3.9999-1.806 4-4v-10c0-1.9704-1.489-3.5576-3.375-3.875-0.3416-0.6241-0.8744-1.125-1.625-1.125zm0 1h2c0.554 0 1 0.446 1 1 1.6447 0 3 1.3553 3 3v10c0 1.6447-1.3553 3-3 3h-4c-1.6447 0-3-1.3553-3-3v-10c0-1.6447 1.3553-3 3-3 0-0.554 0.446-1 1-1zm1.3652 3.0059a1.5 1.5 0 0 0-1.2695 0.9668l-1.5 4a1.5002 1.5002 0 0 0 1.334 1.9902l-0.85352 2.5625a1.5 1.5 0 0 0 0.94922 1.8984 1.5 1.5 0 0 0 1.8984-0.94922l1.5-4.5a1.5002 1.5002 0 0 0-1.2773-1.9258l0.75781-2.0215a1.5 1.5 0 0 0-0.87695-1.9316 1.5 1.5 0 0 0-0.66211-0.089844zm0.16406 0.84375a0.65 0.65 0 0 1 0.19922 0.041016 0.65 0.65 0 0 1 0.38086 0.83789l-1.1699 3.1211h1.0605a0.65006 0.65006 0 0 1 0.61719 0.85547l-1.5 4.5a0.65 0.65 0 0 1-0.82227 0.41211 0.65 0.65 0 0 1-0.41211-0.82227l1.2148-3.6445h-1.0977a0.65006 0.65006 0 0 1-0.60938-0.87891l1.5-4a0.65 0.65 0 0 1 0.63867-0.42188z" style="fill-opacity:.5;fill:currentColor"/>
	<path class="ColorScheme-Text" d="m10 2c-0.554 0-1 0.446-1 1-1.6447 0-3 1.3553-3 3v10c0 1.6447 1.3553 3 3 3h4c1.6447 0 3-1.3553 3-3v-10c0-1.6447-1.3553-3-3-3 0-0.554-0.446-1-1-1zm-1 2h4c1.108 0 2 0.892 2 2v10c0 0.15803-0.02228 0.30983-0.05664 0.45703-0.0024 0.01028-0.0033 0.02103-0.0059 0.03125-0.13309 0.5311-0.47555 0.97775-0.9375 1.2441-0.29408 0.16962-0.63478 0.26758-1 0.26758h-4c-0.36522 0-0.70592-0.09795-1-0.26758-0.46195-0.26642-0.80441-0.71308-0.9375-1.2441-0.00256-0.01024-0.00344-0.02097-0.00586-0.03125-0.0099-0.04199-0.020214-0.08395-0.027344-0.12695-0.017737-0.10768-0.029256-0.21715-0.029256-0.33008v-10c0-1.108 0.892-2 2-2zm2.4727 1.8496c-0.25349 0.010344-0.48764 0.16921-0.58203 0.42188l-1.5 4c-0.16001 0.42544 0.15484 0.87955 0.60938 0.87891h1.0977l-1.2148 3.6445c-0.11348 0.34088 0.0711 0.70917 0.41211 0.82227 0.34088 0.11348 0.70917-0.0711 0.82227-0.41211l1.5-4.5c0.14023-0.42108-0.17337-0.85576-0.61719-0.85547h-1.0605l1.1699-3.1211c0.12669-0.33656-0.043979-0.71204-0.38086-0.83789-0.084142-0.031673-0.17136-0.044464-0.25586-0.041016z" style="fill-opacity:.75;fill:currentColor"/>
</svg>
