<?xml version="1.0" encoding="UTF-8"?>
<!-- Created with Inkscape (http://www.inkscape.org/) -->
<svg width="22" height="22" version="1.1" xmlns="http://www.w3.org/2000/svg" xmlns:cc="http://creativecommons.org/ns#" xmlns:dc="http://purl.org/dc/elements/1.1/" xmlns:rdf="http://www.w3.org/1999/02/22-rdf-syntax-ns#">
	<metadata>
		<rdf:RDF>
			<cc:Work rdf:about="">
				<dc:format>image/svg+xml</dc:format>
				<dc:type rdf:resource="http://purl.org/dc/dcmitype/StillImage"/>
			</cc:Work>
		</rdf:RDF>
	</metadata>
	<defs id="e">
		<style id="current-color-scheme" type="text/css">.ColorScheme-Text {color:#090d11;}
			.ColorScheme-Background{color:#ffffff;}</style>
	</defs>
	<path class="ColorScheme-Text" d="m10 2c-0.554 0-1 0.446-1 1-1.6447 0-3 1.3553-3 3v10c0 1.6447 1.3553 3 3 3h4c1.6447 0 3-1.3553 3-3v-10c0-1.6447-1.3553-3-3-3 0-0.554-0.446-1-1-1zm-1 2h4c1.108 0 2 0.892 2 2v9h-2.918l-0.1582 0.47461a1.5 1.5 0 0 1-1.8984 0.94922 1.5 1.5 0 0 1-1.0176-1.4238h-2.0078v-9c0-1.108 0.892-2 2-2zm2.5293 1.8496a0.65 0.65 0 0 0-0.63867 0.42188l-1.5 4a0.65006 0.65006 0 0 0 0.60938 0.87891h1.0977l-1.2148 3.6445a0.65 0.65 0 0 0 0.0293 0.46484 0.65 0.65 0 0 0 2e-3 0.0059 0.65 0.65 0 0 0 0.14063 0.19922 0.65 0.65 0 0 0 0.02344 0.02148 0.65 0.65 0 0 0 0.2168 0.13086 0.65 0.65 0 0 0 0.23047 0.0293 0.65 0.65 0 0 0 0.07226-0.01172 0.65 0.65 0 0 0 0.15234-0.04102 0.65 0.65 0 0 0 0.07422-0.03711 0.65 0.65 0 0 0 0.12891-0.09961 0.65 0.65 0 0 0 0.04883-0.05078 0.65 0.65 0 0 0 0.11524-0.20117l1.5-4.5a0.65006 0.65006 0 0 0-0.61719-0.85547h-1.0605l1.1699-3.1211a0.65 0.65 0 0 0-0.38086-0.83789 0.65 0.65 0 0 0-0.19922-0.041016z" style="fill-opacity:.75;fill:currentColor"/>
</svg>
