<?xml version="1.0" encoding="UTF-8"?>
<!-- Created with Inkscape (http://www.inkscape.org/) -->
<svg width="22" height="22" version="1.1" xmlns="http://www.w3.org/2000/svg" xmlns:cc="http://creativecommons.org/ns#" xmlns:dc="http://purl.org/dc/elements/1.1/" xmlns:rdf="http://www.w3.org/1999/02/22-rdf-syntax-ns#">
	<metadata>
		<rdf:RDF>
			<cc:Work rdf:about="">
				<dc:format>image/svg+xml</dc:format>
				<dc:type rdf:resource="http://purl.org/dc/dcmitype/StillImage"/>
			</cc:Work>
		</rdf:RDF>
	</metadata>
	<defs id="e">
		<style id="current-color-scheme" type="text/css">.ColorScheme-Text {color:#090d11;}
			.ColorScheme-Background{color:#ffffff;}</style>
	</defs>
	<path class="ColorScheme-Text" d="m1.9479 7.8816c2.1782-2.7699 5.5047-4.39 9.0285-4.3973 3.5238-0.00719 6.8569 1.5993 9.0465 4.3603m-11.789 5.0053c0.6605-0.8497 1.6749-1.3487 2.7511-1.3533s2.0948 0.48577 2.7625 1.3298m-8.6448-2.4659c1.4195-1.8042 3.5867-2.8594 5.8824-2.8639 2.2956-0.00454 4.467 1.042 5.8936 2.8406" style="fill:none;stroke-linecap:round;stroke-opacity:.75;stroke:currentColor"/>
	<path class="ColorScheme-Text" d="m11 15.5c-1.0986 0-2 0.90135-2 2-7.32e-5 1.0987 0.9013 2 2 2s2.0001-0.9013 2-2c0-1.0986-0.90135-2-2-2z" style="fill-opacity:.75;fill:currentColor"/>
</svg>
