<?xml version="1.0" encoding="UTF-8" standalone="no"?>
<svg
   xmlns:dc="http://purl.org/dc/elements/1.1/"
   xmlns:cc="http://creativecommons.org/ns#"
   xmlns:rdf="http://www.w3.org/1999/02/22-rdf-syntax-ns#"
   xmlns:svg="http://www.w3.org/2000/svg"
   xmlns="http://www.w3.org/2000/svg"
   version="1.1"
   id="svg13094"
   height="18"
   width="18">
  <defs
     id="defs4">
    <style
       id="current-color-scheme"
       type="text/css">.ColorScheme-Text {color:#090d11;}.ColorScheme-Background{color:#ffffff;}</style>
  </defs>
  <metadata
     id="metadata13099">
    <rdf:RDF>
      <cc:Work
         rdf:about="">
        <dc:format>image/svg+xml</dc:format>
        <dc:type
           rdf:resource="http://purl.org/dc/dcmitype/StillImage" />
        <dc:title></dc:title>
      </cc:Work>
    </rdf:RDF>
  </metadata>
  <path
     class="ColorScheme-Text"
     id="path41"
     d="m 6,2 v 1 l 1,1 v 3 l -4,6 v 2 l 1,1 h 10 l 1,-1 V 13 L 11,7 V 4 L 12,3 V 2 Z m 1.414062,1 h 3.171876 L 10.292969,3.2929688 C 10.105433,3.4804805 10.000051,3.734801 10,4 v 3 c -2.61e-4,0.17393 0.04484,0.344922 0.130859,0.496094 L 11.556165,9.989839 6.4493655,9.980139 7.869141,7.49607 C 7.955157,7.344922 8.000261,7.17393 8,7 V 4 C 7.999949,3.734801 7.894567,3.4804805 7.707031,3.2929688 Z"
     style="fill:currentColor;fill-opacity:0.75" />
  <path
     class="ColorScheme-Background"
     style="fill:currentColor;fill-opacity:0.5"
     d="M 5,1 V 3.6875 L 5.15625,3.84375 5.8125,4.5 V 6.6875 L 2,12.34375 v 3.34375 l 0.15625,0.15625 1,1 L 3.3125,17 h 11.375 l 0.15625,-0.15625 1,-1 L 16,15.6875 V 12.34375 L 12.1875,6.6875 V 4.5 L 12.84375,3.84375 13,3.6875 V 1 Z m 1,1 h 6 v 1 l -1,1 v 3 l 4,6 v 2 l -1,1 H 4 L 3,15 V 13 L 7,7 V 4 L 6,3 Z M 7.009766,9 6.4492188,9.980469 11.556641,9.990269 10.990234,9 Z"
     id="rect3000" />
</svg>
