<?xml version="1.0" encoding="UTF-8"?>
<svg width="64" height="64" version="1.1" xmlns="http://www.w3.org/2000/svg" xmlns:xlink="http://www.w3.org/1999/xlink">
	<defs>
		<radialGradient id="e-3" cx="35.574" cy="1.019" r="32" gradientTransform="matrix(0,1.1252,-5.1753,0,37.271,-39.029)" gradientUnits="userSpaceOnUse" xlink:href="#a-6"/>
		<linearGradient id="a-6">
			<stop stop-color="#fff" stop-opacity=".07" offset="0"/>
			<stop stop-color="#fff" stop-opacity=".001" offset="1"/>
		</linearGradient>
		<radialGradient id="f-3" cx="35.574" cy="1.036" r="32" gradientTransform="matrix(0,1.1252,-5.1753,0,37.363,-39.029)" gradientUnits="userSpaceOnUse" xlink:href="#a-6"/>
		<radialGradient id="g-5" cx="35.574" cy="1.055" r="32" gradientTransform="matrix(0,1.1252,-5.1753,0,37.458,-39.029)" gradientUnits="userSpaceOnUse" xlink:href="#a-6"/>
		<radialGradient id="h-6" cx="35.574" cy="1.071" r="32" gradientTransform="matrix(0,1.1252,-5.1753,0,37.544,-39.029)" gradientUnits="userSpaceOnUse" xlink:href="#a-6"/>
		<radialGradient id="i-2" cx="35.574" cy="1.091" r="32" gradientTransform="matrix(0,1.1252,-5.1753,0,37.648,-39.029)" gradientUnits="userSpaceOnUse" xlink:href="#a-6"/>
		<radialGradient id="j-9" cx="35.574" cy="1.113" r="32" gradientTransform="matrix(0,1.1252,-5.1753,0,37.758,-39.029)" gradientUnits="userSpaceOnUse" xlink:href="#a-6"/>
		<radialGradient id="k-1" cx="35.574" cy="1.135" r="32" gradientTransform="matrix(0,1.1252,-5.1753,0,37.875,-39.029)" gradientUnits="userSpaceOnUse" xlink:href="#a-6"/>
		<radialGradient id="l-2" cx="35.574" cy="1.159" r="32" gradientTransform="matrix(0,1.1252,-5.1753,0,38,-39.029)" gradientUnits="userSpaceOnUse" xlink:href="#a-6"/>
		<radialGradient id="m-7" cx="35.574" cy="1.18" r="32" gradientTransform="matrix(0,1.1252,-5.1753,0,38.107,-39.029)" gradientUnits="userSpaceOnUse" xlink:href="#a-6"/>
		<radialGradient id="n-0" cx="35.574" cy="1.208" r="32" gradientTransform="matrix(0,1.1252,-5.1753,0,38.252,-39.029)" gradientUnits="userSpaceOnUse" xlink:href="#a-6"/>
		<radialGradient id="o-9" cx="35.574" cy="1.239" r="32" gradientTransform="matrix(0,1.1252,-5.1753,0,38.411,-39.029)" gradientUnits="userSpaceOnUse" xlink:href="#a-6"/>
		<radialGradient id="p-3" cx="35.574" cy="1.273" r="32" gradientTransform="matrix(0,1.1252,-5.1753,0,38.587,-39.029)" gradientUnits="userSpaceOnUse" xlink:href="#a-6"/>
		<radialGradient id="q-6" cx="35.574" cy="1.304" r="32" gradientTransform="matrix(0,1.1252,-5.1753,0,38.75,-39.029)" gradientUnits="userSpaceOnUse" xlink:href="#a-6"/>
		<radialGradient id="r-0" cx="35.574" cy="1.346" r="32" gradientTransform="matrix(0,1.1252,-5.1753,0,38.966,-39.029)" gradientUnits="userSpaceOnUse" xlink:href="#a-6"/>
		<radialGradient id="s-6" cx="35.574" cy="1.393" r="32" gradientTransform="matrix(0,1.1252,-5.1753,0,39.208,-39.029)" gradientUnits="userSpaceOnUse" xlink:href="#a-6"/>
		<radialGradient id="t" cx="35.574" cy="1.439" r="32" gradientTransform="matrix(0,1.1252,-5.1753,0,39.446,-39.029)" gradientUnits="userSpaceOnUse" xlink:href="#a-6"/>
		<radialGradient id="u" cx="36.463" cy="1.498" r="32" gradientTransform="matrix(0 .02541 -1.2755 0 33.91 1.073)" gradientUnits="userSpaceOnUse">
			<stop stop-color="#fff" stop-opacity=".667" offset="0"/>
			<stop stop-color="#fff" stop-opacity=".001" offset="1"/>
		</radialGradient>
		<radialGradient id="b-2" cx="32.161" cy="35.22" r="32" gradientTransform="matrix(.96875 0 0 1.0898 .844 -3.383)" gradientUnits="userSpaceOnUse">
			<stop stop-color="#a1b0d4" offset="0"/>
			<stop stop-color="#b7c4e3" offset="1"/>
		</radialGradient>
	</defs>
	<rect width="64" height="64" rx="1" ry="1" fill="url(#b-2)" paint-order="fill markers stroke"/>
	<g>
		<path transform="translate(0 .002)" d="m1 0c-0.554 0-1 0.446-1 1v62-0.224 0.224-61h1.752c19.15 2e-3 39.445 0 60.213 0h2.035v61-0.334 0.334-62a0.998 0.998 0 0 0-1-1z" fill="url(#e-3)"/>
		<path transform="translate(0 .002)" d="m1 0a0.998 0.998 0 0 0-1 1.006v61.98-0.197c0-0.277 4e-3 -0.184 0.01 0.246 0.012 0.016 0.03-0.297 0.052-0.897v-60c0.072-9e-3 0.133-0.013 0.185-0.013 0.29-0.016 0.357-0.032 0.774-0.044 0.246-0.011 0.496-0.019 0.747-0.019 19.183 2e-3 39.392 0 60.2 0 0.346 0 0.689 0.012 1.023 0.03 0.268 0.01 0.389 0.02 0.52 0.033 0.106 0 0.22 0.01 0.427 0.028v59.744c0.027 0.754 0.05 1.148 0.059 1.123l3e-3 -0.334v0.286-61.762c0-0.143 0-0.22-2e-3 -0.224a0.996 0.996 0 0 0-1.012-0.986h-61.986" fill="url(#f-3)"/>
		<path transform="translate(0 .002)" d="m1 0a0.998 0.998 0 0 0-1 1.006v61.966-0.169c0-0.245 8e-3 -0.145 0.021 0.266 0.022 0.034 0.06-0.247 0.104-0.807v-59.988a0.744 0.744 0 0 1 0.173-0.025c0.27-0.031 0.341-0.064 0.743-0.088 0.242-0.022 0.492-0.037 0.742-0.037 19.217 2e-3 39.34 0 60.187 0 0.347 0 0.69 0.024 1.013 0.06 0.256 0.02 0.372 0.042 0.494 0.065 0.1 0 0.206 0.02 0.398 0.057v59.731c0.055 0.703 0.102 1.052 0.119 1.003 4e-3 -0.154 6e-3 -0.265 6e-3 -0.333v0.237-61.748c0-0.139 0-0.215-3e-3 -0.224a0.994 0.994 0 0 0-0.807-0.952 1.025 1.025 0 0 0-0.217-0.02h-61.973" fill="url(#g-5)"/>
		<path transform="translate(0 .002)" d="m1 0a0.998 0.998 0 0 0-1 1.005v61.953-0.14c0-0.213 0.012-0.107 0.031 0.287 0.034 0.05 0.091-0.198 0.156-0.718v-59.974a0.45 0.45 0 0 1 0.16-0.037c0.252-0.048 0.327-0.097 0.715-0.132 0.238-0.034 0.487-0.056 0.737-0.056 19.25 2e-3 39.286 0 60.173 0 0.348 0 0.688 0.036 1.001 0.09 0.244 0.029 0.356 0.062 0.47 0.098 0.091 0 0.19 0.03 0.37 0.085v59.718c0.082 0.653 0.151 0.957 0.176 0.884 7e-3 -0.152 0.01-0.262 0.01-0.333v0.188-61.734c0-0.135 0-0.21-4e-3 -0.224a0.992 0.992 0 0 0-0.819-0.94 1.041 1.041 0 0 0-0.217-0.018h-61.96" fill="url(#h-6)"/>
		<path transform="translate(0 .002)" d="m1 0a0.998 0.998 0 0 0-1 1.005v61.939-0.113c0-0.18 0.015-0.068 0.042 0.308 0.045 0.067 0.121-0.149 0.208-0.629v-59.96a0.312 0.312 0 0 1 0.148-0.05c0.232-0.063 0.311-0.128 0.684-0.176 0.234-0.044 0.483-0.074 0.732-0.074 19.284 2e-3 39.234 0 60.16 0 0.35 0 0.689 0.048 0.991 0.12 0.232 0.039 0.34 0.083 0.444 0.13 0.085 0 0.176 0.04 0.341 0.114v59.704c0.11 0.603 0.203 0.862 0.236 0.764a5.23 5.23 0 0 0 0.014-0.333v0.14-61.721c0-0.13-2e-3 -0.206-6e-3 -0.224a0.991 0.991 0 0 0-0.83-0.927 1.066 1.066 0 0 0-0.22-0.017h-61.944" fill="url(#i-2)"/>
		<path transform="translate(0 .002)" d="m1 0a0.998 0.998 0 0 0-1 1.004v61.926-0.084c0-0.148 0.02-0.029 0.052 0.328 0.056 0.084 0.152-0.099 0.26-0.539v-59.949c0.053-0.04 0.097-0.061 0.136-0.061 0.212-0.08 0.297-0.16 0.655-0.22 0.23-0.056 0.477-0.093 0.727-0.093 19.317 2e-3 39.18 0 60.147 0 0.35 0 0.688 0.06 0.98 0.151 0.22 0.047 0.322 0.102 0.418 0.162 0.078 0 0.162 0.049 0.313 0.142v59.69c0.137 0.553 0.253 0.767 0.295 0.645a4.73 4.73 0 0 0 0.017-0.332v0.09-61.705c0-0.126-2e-3 -0.202-7e-3 -0.224a0.99 0.99 0 0 0-0.843-0.914 1.099 1.099 0 0 0-0.218-0.017h-61.932" fill="url(#j-9)"/>
		<path transform="translate(0 .002)" d="m1 0a0.998 0.998 0 0 0-1 1.004v61.912-0.056c0-0.117 0.023 0.01 0.063 0.349 0.067 0.1 0.182-0.05 0.312-0.45v-59.935c0.048-0.049 0.088-0.074 0.123-0.074 0.193-0.095 0.282-0.192 0.626-0.264 0.225-0.067 0.472-0.11 0.721-0.11h60.133c0.352 0 0.688 0.071 0.97 0.18a0.944 0.944 0 0 1 0.393 0.194c0.07 0 0.147 0.059 0.284 0.17v59.68c0.164 0.502 0.304 0.671 0.354 0.524 0.014-0.14 0.02-0.25 0.02-0.331v0.042-61.695c0-0.121-2e-3 -0.197-9e-3 -0.224a0.99 0.99 0 0 0-0.854-0.902 1.142 1.142 0 0 0-0.218-0.014h-61.918" fill="url(#k-1)"/>
		<path transform="translate(0 .002)" d="m1 0a0.998 0.998 0 0 0-1 1.004v61.898-0.029c0-0.084 0.027 0.049 0.073 0.37 0.079 0.117 0.212 0 0.365-0.36v-59.923c0.043-0.057 0.079-0.086 0.11-0.086 0.174-0.112 0.267-0.225 0.596-0.309a2.19 2.19 0 0 1 0.717-0.129c19.385 2e-3 39.075 0 60.12 0 0.353 0 0.687 0.084 0.958 0.211a0.81 0.81 0 0 1 0.368 0.227c0.063 0 0.132 0.068 0.256 0.199v59.665c0.192 0.452 0.354 0.576 0.413 0.404a3.11 3.11 0 0 0 0.024-0.33v-61.687c0-0.117-4e-3 -0.193-0.01-0.224a0.99 0.99 0 0 0-0.868-0.89 1.198 1.198 0 0 0-0.217-0.011h-61.905" fill="url(#l-2)"/>
		<path transform="translate(0 .002)" d="m1 0a0.998 0.998 0 0 0-1 1.003v61.885c0-0.052 0.03 0.087 0.084 0.39 0.09 0.135 0.242 0.05 0.416-0.27v-59.911c0.038-0.063 0.07-0.097 0.099-0.097 0.154-0.127 0.251-0.257 0.566-0.352 0.217-0.089 0.463-0.148 0.711-0.148 19.418 2e-3 39.022 0 60.107 0 0.355 0 0.687 0.096 0.947 0.242a0.723 0.723 0 0 1 0.343 0.258c0.056 0 0.118 0.079 0.227 0.227v59.651c0.22 0.402 0.406 0.482 0.473 0.285 0.018-0.132 0.027-0.243 0.027-0.33v-61.721c0-0.113-4e-3 -0.188-0.012-0.224a0.99 0.99 0 0 0-0.879-0.877 1.273 1.273 0 0 0-0.218-0.011h-61.89" fill="url(#m-7)"/>
		<path transform="translate(0 .002)" d="m1 0a0.998 0.998 0 0 0-1 1.003v61.899c0-0.02 0.035 0.126 0.094 0.41 0.101 0.152 0.273 0.1 0.468-0.18v-59.897c0.034-0.073 0.062-0.11 0.087-0.11 0.135-0.143 0.236-0.29 0.536-0.397 0.213-0.1 0.459-0.166 0.707-0.166 19.452 2e-3 38.969 0 60.093 0 0.356 0 0.687 0.108 0.936 0.272a0.678 0.678 0 0 1 0.317 0.29c0.05 0 0.103 0.089 0.2 0.256v59.64c0.246 0.352 0.455 0.386 0.531 0.165 0.02-0.128 0.03-0.239 0.03-0.33v-61.755c0-0.108-4e-3 -0.184-0.013-0.224a0.99 0.99 0 0 0-0.891-0.864 1.376 1.376 0 0 0-0.218-0.01h-61.877" fill="url(#n-0)"/>
		<path transform="translate(0 .002)" d="m1 0a0.998 0.998 0 0 0-1 1.002v61.913c0 0.013 0.039 0.165 0.105 0.432 0.112 0.168 0.303 0.148 0.52-0.092v-59.882c0.029-0.081 0.053-0.123 0.074-0.123 0.116-0.159 0.222-0.321 0.507-0.44a1.52 1.52 0 0 1 0.701-0.185c19.486 2e-3 38.916 0 60.08 0 0.357 0 0.687 0.12 0.925 0.302a0.66 0.66 0 0 1 0.292 0.323c0.043 0 0.089 0.098 0.171 0.284v59.626c0.275 0.302 0.507 0.29 0.591 0.046 0.022-0.125 0.034-0.236 0.034-0.33v-61.791c0-0.104-5e-3 -0.18-0.016-0.224a0.99 0.99 0 0 0-0.903-0.852 1.514 1.514 0 0 0-0.218-8e-3h-61.863" fill="url(#o-9)"/>
		<path transform="translate(0 .002)" d="m1 0a0.998 0.998 0 0 0-1 1.002v61.928c0 0.045 0.042 0.203 0.115 0.453 0.123 0.184 0.333 0.197 0.572-3e-3v-59.87c0.024-0.089 0.045-0.135 0.062-0.135 0.097-0.174 0.207-0.353 0.478-0.484 0.204-0.122 0.448-0.203 0.696-0.203 19.519 2e-3 38.863 0 60.067 0a1.4 1.4 0 0 1 0.914 0.332c0.15 0.103 0.224 0.225 0.267 0.355 0.035 0 0.073 0.108 0.142 0.313v59.612c0.302 0.251 0.557 0.196 0.65-0.074a1.7 1.7 0 0 0 0.037-0.33v-61.825c0-0.1-6e-3 -0.175-0.017-0.224a0.99 0.99 0 0 0-0.915-0.84 1.712 1.712 0 0 0-0.218-7e-3h-61.85" fill="url(#p-3)"/>
		<path transform="translate(0 .002)" d="m1 0a0.998 0.998 0 0 0-1 1.002v61.942c0 0.077 0.046 0.242 0.126 0.473 0.134 0.201 0.363 0.246 0.624 0.086v-59.856c0.02-0.097 0.035-0.147 0.05-0.147a0.981 0.981 0 0 1 0.447-0.529c0.2-0.133 0.444-0.221 0.691-0.221 19.553 2e-3 38.811 0 60.053 0 0.36 0 0.686 0.144 0.903 0.362a0.688 0.688 0 0 1 0.242 0.388c0.028 0 0.059 0.118 0.114 0.341v59.598c0.33 0.2 0.608 0.1 0.709-0.194 0.026-0.117 0.04-0.228 0.04-0.329v-61.86c0-0.095-6e-3 -0.17-0.018-0.224a0.991 0.991 0 0 0-0.927-0.827 2.015 2.015 0 0 0-0.218-5e-3h-61.836" fill="url(#q-6)"/>
		<path transform="translate(0 .002)" d="m1 0a0.998 0.998 0 0 0-1 1.001v61.956c0 0.11 0.05 0.281 0.136 0.494 0.146 0.218 0.394 0.296 0.677 0.176v-59.843c0.014-0.105 0.026-0.16 0.036-0.16a0.967 0.967 0 0 1 0.419-0.572c0.196-0.144 0.439-0.24 0.686-0.24 19.586 2e-3 38.758 0 60.04 0 0.36 0 0.685 0.156 0.892 0.392a0.73 0.73 0 0 1 0.216 0.42c0.021 0 0.044 0.128 0.086 0.37v59.585c0.356 0.15 0.658 5e-3 0.768-0.314 0.029-0.114 0.044-0.224 0.044-0.328v-61.895c0-0.09-7e-3 -0.166-0.02-0.224a0.992 0.992 0 0 0-0.94-0.814 2.524 2.524 0 0 0-0.217-5e-3h-61.823" fill="url(#r-0)"/>
		<path transform="translate(0 .002)" d="m1 0a0.998 0.998 0 0 0-1 1v61.972c0 0.142 0.054 0.32 0.147 0.515a0.643 0.643 0 0 0 0.728 0.265v-59.83c0.01-0.114 0.018-0.172 0.025-0.172a0.97 0.97 0 0 1 0.389-0.617c0.192-0.155 0.434-0.258 0.68-0.258 19.62 2e-3 38.705 0 60.027 0 0.362 0 0.686 0.168 0.882 0.422a0.794 0.794 0 0 1 0.19 0.453c0.015 0 0.03 0.137 0.057 0.398v59.572c0.385 0.1 0.71-0.09 0.828-0.434 0.03-0.11 0.047-0.22 0.047-0.328v-61.93c0-0.086-7e-3 -0.161-0.021-0.224a0.994 0.994 0 0 0-0.951-0.802 3.563 3.563 0 0 0-0.219-2e-3h-61.809" fill="url(#s-6)"/>
		<path transform="translate(0 .002)" d="m1 0a0.998 0.998 0 0 0-1 1v61.986c0 0.174 0.058 0.358 0.157 0.535a0.802 0.802 0 0 0 0.78 0.355v-59.816c5e-3 -0.122 0.01-0.185 0.013-0.185a0.987 0.987 0 0 1 0.36-0.66c0.187-0.166 0.429-0.277 0.675-0.277 19.653 2e-3 38.652 0 60.013 0 0.363 0 0.685 0.18 0.87 0.452a0.876 0.876 0 0 1 0.166 0.485c7e-3 0 0.015 0.147 0.028 0.427v59.558c0.412 0.05 0.76-0.186 0.887-0.553a1.1 1.1 0 0 0 0.05-0.328v-61.965a0.996 0.996 0 0 0-0.985-1.014 6.67 6.67 0 0 0-0.219 0h-61.795" fill="url(#t)"/>
		<path transform="translate(0 .002)" d="m1 0a0.998 0.998 0 0 0-1 1v2h64v-1.998a0.998 0.998 0 0 0-1-1h-62z" fill="url(#u)"/>
	</g>
	<g>
		<circle cx="32" cy="33" r="25.114" fill="#d0d7e7"/>
		<path d="m32 7.8867a25.114 25.114 0 0 0-25.113 25.113 25.114 25.114 0 0 0 0.017578 0.25 25.114 25.114 0 0 1 25.096-24.863 25.114 25.114 0 0 1 25.104 24.738 25.114 25.114 0 0 0 0.009765-0.125 25.114 25.114 0 0 0-25.113-25.113z" fill="#ffffff" fill-opacity=".3694"/>
		<g stroke-width="6.906">
			<path class="st2" d="M21.822 30.152V47.47a2.568 2.568 0 0 0 2.56 2.565h1.201c1.404 0 2.561-1.16 2.561-2.565V30.152zM28.144 21.79v-3.26a2.577 2.577 0 0 0-2.56-2.565h-1.201a2.577 2.577 0 0 0-2.561 2.565v3.26zM42.177 35.847V18.53a2.568 2.568 0 0 0-2.56-2.565h-1.201a2.577 2.577 0 0 0-2.561 2.565v17.317zM35.855 44.208v3.26a2.577 2.577 0 0 0 2.56 2.566h1.201c1.404 0 2.561-1.16 2.561-2.565v-3.26z" fill="#558820"/>
			<path class="st4" d="m20.81 36.861h-3.256a2.568 2.568 0 0 0-2.56 2.565v1.203a2.568 2.568 0 0 0 2.56 2.565h3.255zm25.635 0h-17.288v6.333h17.288c1.403 0 2.56-1.16 2.56-2.565v-1.203c-0.014-1.405-1.157-2.565-2.56-2.565zm-11.603-14.056h-17.288a2.568 2.568 0 0 0-2.56 2.565v1.203a2.568 2.568 0 0 0 2.56 2.565h17.288zm11.603 0h-3.255v6.333h3.255a2.568 2.568 0 0 0 2.56-2.565v-1.203c-0.014-1.406-1.157-2.565-2.56-2.565z" fill="#639219"/>
		</g>
		<path class="st2" d="M24.383 15.965a2.578 2.578 0 0 0-2.56 2.566v.5a2.578 2.578 0 0 1 2.56-2.566h1.201c1.403 0 2.56 1.16 2.56 2.566v-.5a2.578 2.578 0 0 0-2.56-2.566h-1.201zm14.033 0a2.578 2.578 0 0 0-2.56 2.566v.5a2.578 2.578 0 0 1 2.56-2.566h1.201c1.418 0 2.56 1.16 2.56 2.566v-.5a2.569 2.569 0 0 0-2.56-2.566h-1.201zm-20.861 6.84a2.569 2.569 0 0 0-2.56 2.566v.5a2.569 2.569 0 0 1 2.56-2.566h17.289v-.5H17.555zm25.637 0v.5h3.254c1.403 0 2.546 1.16 2.56 2.566v-.5c-.014-1.405-1.157-2.566-2.56-2.566h-3.254zm-21.369 7.348v.5h6.322v-.5h-6.322zm-4.268 6.709a2.569 2.569 0 0 0-2.56 2.566v.5a2.569 2.569 0 0 1 2.56-2.566h3.254v-.5h-3.254zm11.602 0v.5h17.29c1.403 0 2.545 1.16 2.56 2.566v-.5c-.015-1.406-1.157-2.566-2.56-2.566h-17.29zm6.7 7.347v.5h6.322v-.5h-6.322z" fill="#f0ffcf" fill-opacity=".74202"/>
	</g>
</svg>
