<?xml version="1.0" encoding="UTF-8"?>
<svg id="v" width="64" height="64" version="1.1" xmlns="http://www.w3.org/2000/svg" xmlns:cc="http://creativecommons.org/ns#" xmlns:dc="http://purl.org/dc/elements/1.1/" xmlns:rdf="http://www.w3.org/1999/02/22-rdf-syntax-ns#" xmlns:xlink="http://www.w3.org/1999/xlink">
	<defs id="ai">
		<radialGradient id="a" cx="27.637" cy="27.21" r="23" gradientTransform="matrix(2.1068 0 0 2.1068 -35.417 -36.524)" gradientUnits="userSpaceOnUse">
			<stop id="g" style="stop-color:#c9e2f6" offset="0"/>
			<stop id="i" style="stop-color:#81bbeb" offset="1"/>
		</radialGradient>
		<radialGradient id="b" cx="28.028" cy="32.337" r="32" gradientTransform="matrix(1.7126 0 0 1.6975 -26.419 -33.755)" gradientUnits="userSpaceOnUse">
			<stop id="ad" style="stop-color:#007fb7" offset="0"/>
			<stop id="av" style="stop-color:#5730e5" offset="1"/>
		</radialGradient>
	</defs>
	<metadata id="ac">
		<rdf:RDF>
			<cc:Work rdf:about="">
				<dc:format>image/svg+xml</dc:format>
				<dc:type rdf:resource="http://purl.org/dc/dcmitype/StillImage"/>
				<dc:title/>
			</cc:Work>
		</rdf:RDF>
	</metadata>
	<path id="e" d="m0 2v32 28l2 2h30 30l2-2v-28-32h-32z" style="color:#000000;fill:url(#b)"/>
	<path id="at" d="m2 0-2 1v1h32 32v-1l-2-1h-30z" style="color:#000000;fill:#5fa2ff"/>
	<path id="h" d="m0 1v3l2-2z" style="fill:#8dc9ff"/>
	<path id="d" d="m64 4-2-2 2-1z" style="fill:#4b7ce9"/>
	<circle id="aq" cx="32" cy="33" r="23" style="color:#000000;fill:url(#a)"/>
	<g id="aw" style="fill:#0000ff;opacity:.424">
		<path id="p" d="m38.164 23v23.561c-1.2538-0.53245-2.6702-0.82276-4.1886-0.82276-4.957 0-8.9755 3.2148-8.9755 7.1804 0 3.9656 4.0185 7.1804 8.9755 7.1804 4.957 0 8.9755-3.2148 8.9755-7.1804v-24.907c6.7829 1.1471 11.967 7.0271 11.967 14.136 0 3.8087-1.4954 7.4791-4.1886 10.172l3.3658 3.3658c3.5909-3.5909 5.6097-8.4598 5.6097-13.538 0-10.575-8.5727-19.148-19.148-19.148h-2.3935" style="color:#000000;fill-opacity:.031373;fill:#0000ff;opacity:1"/>
		<path id="q" d="m36.698 21.922v22.865c-1.2167-0.51673-2.5913-0.79846-4.0649-0.79846-4.8107 0-8.7105 3.1199-8.7105 6.9684 0 3.8485 3.8998 6.9684 8.7105 6.9684 4.8107 0 8.7105-3.1199 8.7105-6.9684v-24.172c6.5826 1.1132 11.614 6.8196 11.614 13.719 0 3.6963-1.4512 7.2582-4.0649 9.8719l3.2664 3.2664c3.4849-3.4849 5.4441-8.21 5.4441-13.138 0-10.263-8.3196-18.582-18.582-18.582h-2.3228" style="color:#000000;fill-opacity:.031373;fill:#0000ff;opacity:1"/>
		<path id="s" d="m36.09 21.476v22.577c-1.2014-0.51022-2.5587-0.7884-4.0137-0.7884-4.7501 0-8.6007 3.0805-8.6007 6.8806 0 3.8 3.8507 6.8806 8.6007 6.8806 4.7501 0 8.6007-3.0805 8.6007-6.8806v-23.867c6.4997 1.0992 11.468 6.7337 11.468 13.546 0 3.6497-1.433 7.1668-4.0137 9.7475l3.2253 3.2253c3.441-3.441 5.3755-8.1065 5.3755-12.973 0-10.133-8.2148-18.348-18.348-18.348h-2.2935" style="color:#000000;fill-opacity:.031373;fill:#0000ff;opacity:1"/>
		<path id="k" d="m35.624 21.133v22.356c-1.1896-0.50522-2.5336-0.78068-3.9744-0.78068-4.7035 0-8.5165 3.0504-8.5165 6.8132 0 3.7628 3.813 6.8132 8.5165 6.8132 4.7035 0 8.5165-3.0504 8.5165-6.8132v-23.633c6.436 1.0884 11.355 6.6677 11.355 13.413 0 3.6139-1.4189 7.0966-3.9744 9.652l3.1937 3.1937c3.4073-3.4073 5.3228-8.0271 5.3228-12.846 0-10.034-8.1343-18.169-18.169-18.169h-2.2711" style="color:#000000;fill-opacity:.031373;fill:#0000ff;opacity:1"/>
		<path id="ap" d="m35.231 20.845v22.169c-1.1797-0.50101-2.5125-0.77417-3.9412-0.77417-4.6643 0-8.4455 3.0249-8.4455 6.7564s3.7812 6.7564 8.4455 6.7564 8.4455-3.0249 8.4455-6.7564v-23.436c6.3824 1.0793 11.261 6.6121 11.261 13.302 0 3.5838-1.4071 7.0374-3.9412 9.5716l3.1671 3.1671c3.3789-3.3789 5.2784-7.9602 5.2784-12.739 0-9.9505-8.0665-18.017-18.017-18.017h-2.2521" style="color:#000000;fill-opacity:.031373;fill:#0000ff;opacity:1"/>
		<path id="ar" d="m34.885 20.59v22.005c-1.171-0.4973-2.4939-0.76844-3.912-0.76844-4.6298 0-8.3829 3.0025-8.3829 6.7063s3.7532 6.7063 8.3829 6.7063 8.3829-3.0025 8.3829-6.7063v-23.263c6.3351 1.0713 11.177 6.5632 11.177 13.203 0 3.5573-1.3967 6.9853-3.912 9.5007l3.1436 3.1436c3.3538-3.3538 5.2393-7.9012 5.2393-12.644 0-9.8768-8.0068-17.884-17.884-17.884h-2.2354" style="color:#000000;fill-opacity:.031373;fill:#0000ff;opacity:1"/>
		<path id="as" d="m34.572 20.36v21.857c-1.1631-0.49394-2.4771-0.76325-3.8856-0.76325-4.5985 0-8.3264 2.9823-8.3264 6.6611s3.7278 6.6611 8.3264 6.6611 8.3264-2.9823 8.3264-6.6611v-23.106c6.2923 1.0641 11.102 6.5189 11.102 13.114 0 3.5333-1.3872 6.9382-3.8856 9.4366 0 0 3.1224 3.1224 3.1224 3.1224 3.3312-3.3312 5.204-7.8479 5.204-12.559 0-9.8102-7.9527-17.763-17.763-17.763h-2.2204" style="color:#000000;fill-opacity:.031373;fill:#0000ff;opacity:1"/>
		<path id="au" d="m34.285 20.149v21.72c-1.1558-0.49086-2.4616-0.75848-3.8614-0.75848-4.5698 0-8.2744 2.9636-8.2744 6.6195 0 3.6558 3.7046 6.6195 8.2744 6.6195s8.2744-2.9636 8.2744-6.6195v-22.961c6.253 1.0575 11.032 6.4782 11.032 13.032 0 3.5112-1.3786 6.8948-3.8614 9.3776l3.1029 3.1029c3.3104-3.3104 5.1715-7.7989 5.1715-12.48 0-9.7489-7.9031-17.652-17.652-17.652h-2.2065" style="color:#000000;fill-opacity:.031373;fill:#0000ff;opacity:1"/>
		<path id="am" d="m34.017 19.952v21.593c-1.1491-0.48799-2.4472-0.75405-3.8388-0.75405-4.5431 0-8.226 2.9463-8.226 6.5808s3.6829 6.5808 8.226 6.5808c4.5431 0 8.226-2.9463 8.226-6.5808v-22.827c6.2164 1.0513 10.968 6.4403 10.968 12.956 0 3.4907-1.3705 6.8545-3.8388 9.3227l3.0847 3.0847c3.291-3.291 5.1412-7.7533 5.1412-12.407 0-9.6919-7.8568-17.549-17.549-17.549h-2.1936" style="color:#000000;fill-opacity:.031373;fill:#0000ff;opacity:1"/>
		<path id="w" d="m33.765 19.767v21.474c-1.1427-0.48529-2.4337-0.74988-3.8176-0.74988-4.518 0-8.1805 2.93-8.1805 6.5444s3.6625 6.5444 8.1805 6.5444 8.1805-2.93 8.1805-6.5444v-22.701c6.1821 1.0455 10.907 6.4047 10.907 12.884 0 3.4714-1.3629 6.8166-3.8176 9.2712 0 0 3.0677 3.0677 3.0677 3.0677 3.2728-3.2728 5.1128-7.7104 5.1128-12.339 0-9.6383-7.8134-17.452-17.452-17.452h-2.1815" style="color:#000000;fill-opacity:.031373;fill:#0000ff;opacity:1"/>
		<path id="u" d="m33.527 19.592v21.361c-1.1367-0.48274-2.4209-0.74594-3.7975-0.74594-4.4942 0-8.1375 2.9146-8.1375 6.51 0 3.5954 3.6433 6.51 8.1375 6.51s8.1375-2.9146 8.1375-6.51v-22.582c6.1496 1.04 10.85 6.371 10.85 12.817 0 3.4531-1.3558 6.7808-3.7975 9.2225l3.0516 3.0516c3.2556-3.2556 5.0859-7.6699 5.0859-12.274 0-9.5876-7.7723-17.36-17.36-17.36h-2.17" style="color:#000000;fill-opacity:.031373;fill:#0000ff;opacity:1"/>
		<path id="z" d="m33.301 19.426v21.254c-1.131-0.48031-2.4087-0.74219-3.7784-0.74219-4.4716 0-8.0966 2.9-8.0966 6.4773 0 3.5773 3.625 6.4773 8.0966 6.4773 4.4716 0 8.0966-2.9 8.0966-6.4773v-22.468c6.1187 1.0347 10.795 6.339 10.795 12.752 0 3.4358-1.349 6.7467-3.7784 9.1761l3.0362 3.0362c3.2393-3.2393 5.0604-7.6313 5.0604-12.212 0-9.5394-7.7332-17.273-17.273-17.273h-2.1591" style="color:#000000;fill-opacity:.031373;fill:#0000ff;opacity:1"/>
		<path id="y" d="m33.085 19.267v21.151c-1.1255-0.47799-2.3971-0.7386-3.7602-0.7386-4.45 0-8.0575 2.886-8.0575 6.446s3.6075 6.446 8.0575 6.446c4.45 0 8.0575-2.886 8.0575-6.446v-22.36c6.0891 1.0298 10.743 6.3084 10.743 12.691 0 3.4192-1.3424 6.7141-3.7602 9.1318l3.0216 3.0216c3.2236-3.2236 5.0359-7.5945 5.0359-12.153 0-9.4934-7.6959-17.189-17.189-17.189h-2.1487" style="color:#000000;fill-opacity:.031373;fill:#0000ff;opacity:1"/>
		<path id="af" d="m32.877 19.115v21.053c-1.1203-0.47577-2.3859-0.73517-3.7427-0.73517-4.4293 0-8.02 2.8725-8.02 6.416 0 3.5435 3.5907 6.416 8.02 6.416 4.4293 0 8.02-2.8725 8.02-6.416v-22.256c6.0608 1.025 10.693 6.279 10.693 12.632 0 3.4033-1.3362 6.6829-3.7427 9.0893 0 0 3.0075 3.0075 3.0075 3.0075 3.2086-3.2086 5.0125-7.5592 5.0125-12.097 0-9.4492-7.6601-17.109-17.109-17.109h-2.1387" style="color:#000000;fill-opacity:.031373;fill:#0000ff;opacity:1"/>
		<path id="l" d="m32.678 18.968v20.958c-1.1152-0.47363-2.3752-0.73186-3.7258-0.73186-4.4094 0-7.9839 2.8596-7.9839 6.3871s3.5745 6.3872 7.9839 6.3872 7.9839-2.8596 7.9839-6.3872v-22.155c6.0336 1.0203 10.645 6.2508 10.645 12.575 0 3.388-1.3302 6.6528-3.7258 9.0485l2.994 2.994c3.1942-3.1942 4.99-7.5252 4.99-12.042 0-9.4067-7.6257-17.032-17.032-17.032h-2.129" style="color:#000000;fill-opacity:.031373;fill:#0000ff;opacity:1"/>
		<path id="aj" d="m32.485 18.826v20.866c-1.1104-0.47156-2.3648-0.72867-3.7096-0.72867-4.3902 0-7.9491 2.8472-7.9491 6.3593s3.5589 6.3593 7.9491 6.3593 7.9491-2.8472 7.9491-6.3593v-22.059c6.0073 1.0159 10.599 6.2235 10.599 12.52 0 3.3732-1.3244 6.6238-3.7096 9.009l2.9809 2.9809c3.1803-3.1803 4.9682-7.4924 4.9682-11.99 0-9.3657-7.5924-16.958-16.958-16.958h-2.1198" style="color:#000000;fill-opacity:.031373;fill:#0000ff;opacity:1"/>
		<path id="ak" d="m32.299 18.689v20.778c-1.1057-0.46957-2.3548-0.72558-3.6939-0.72558-4.3716 0-7.9155 2.8351-7.9155 6.3324s3.5439 6.3324 7.9155 6.3324 7.9155-2.8351 7.9155-6.3324v-21.965c5.9818 1.0116 10.554 6.1972 10.554 12.467 0 3.3589-1.3188 6.5958-3.6939 8.9709l2.9683 2.9683c3.1668-3.1668 4.9472-7.4606 4.9472-11.939 0-9.3261-7.5603-16.886-16.886-16.886h-2.1108" style="color:#000000;fill-opacity:.031373;fill:#0000ff;opacity:1"/>
		<path id="al" d="m32.118 18.557v20.692c-1.1011-0.46763-2.3451-0.7226-3.6787-0.7226-4.3536 0-7.8828 2.8234-7.8828 6.3063 0 3.4829 3.5293 6.3063 7.8828 6.3063s7.8828-2.8234 7.8828-6.3063v-21.875c5.9572 1.0074 10.51 6.1716 10.51 12.415 0 3.3451-1.3133 6.5686-3.6787 8.9339 0 0 2.9561 2.9561 2.9561 2.9561 3.1538-3.1538 4.9268-7.4299 4.9268-11.89 0-9.2876-7.5291-16.817-16.817-16.817h-2.1021" style="color:#000000;fill-opacity:.031373;fill:#0000ff;opacity:1"/>
		<path id="ag" d="m31.943 18.428v20.609c-1.0967-0.46575-2.3357-0.71969-3.6639-0.71969-4.3361 0-7.8512 2.8121-7.8512 6.2809 0 3.4689 3.5151 6.2809 7.8512 6.2809 4.3361 0 7.8512-2.8121 7.8512-6.2809v-21.787c5.9332 1.0034 10.468 6.1468 10.468 12.366 0 3.3316-1.3081 6.5422-3.6639 8.898l2.9442 2.9442c3.1411-3.1411 4.907-7.4 4.907-11.842 0-9.2503-7.4989-16.749-16.749-16.749h-2.0936" style="color:#000000;fill-opacity:.031373;fill:#0000ff;opacity:1"/>
		<path id="x" d="m31.773 18.303v20.528c-1.0924-0.46392-2.3265-0.71687-3.6495-0.71687-4.3191 0-7.8204 2.801-7.8204 6.2563s3.5013 6.2563 7.8204 6.2563 7.8204-2.801 7.8204-6.2563v-21.702c5.9099 0.99944 10.427 6.1227 10.427 12.317 0 3.3185-1.3029 6.5165-3.6495 8.8631l2.9326 2.9326c3.1288-3.1288 4.8877-7.371 4.8877-11.796 0-9.214-7.4694-16.683-16.683-16.683h-2.0854" style="color:#000000;fill-opacity:.031373;fill:#0000ff;opacity:1"/>
		<path id="f" d="m31.607 18.181v20.45c-1.0882-0.46214-2.3176-0.71412-3.6355-0.71412-4.3025 0-7.7904 2.7903-7.7904 6.2323s3.4879 6.2323 7.7904 6.2323c4.3025 0 7.7904-2.7903 7.7904-6.2323v-21.618c5.8873 0.99561 10.387 6.0992 10.387 12.27 0 3.3058-1.2979 6.4915-3.6355 8.8291l2.9214 2.9214c3.1167-3.1167 4.869-7.3427 4.869-11.75 0-9.1787-7.4408-16.619-16.619-16.619h-2.0774" style="color:#000000;fill-opacity:.031373;fill:#0000ff;opacity:1"/>
		<path id="m" d="m31.445 18.062v20.373c-1.0841-0.46041-2.3089-0.71143-3.6218-0.71143-4.2863 0-7.7611 2.7798-7.7611 6.2089 0 3.4291 3.4748 6.2089 7.7611 6.2089 4.2863 0 7.7611-2.7798 7.7611-6.2089v-21.537c5.8651 0.99187 10.348 6.0763 10.348 12.224 0 3.2934-1.2931 6.4671-3.6218 8.7959l2.9104 2.9104c3.105-3.105 4.8507-7.3151 4.8507-11.706 0-9.1442-7.4128-16.557-16.557-16.557h-2.0696" style="color:#000000;fill-opacity:.031373;fill:#0000ff;opacity:1"/>
		<path id="c" d="m31.286 17.945v20.298c-1.0801-0.45871-2.3004-0.70881-3.6085-0.70881-4.2705 0-7.7325 2.7696-7.7325 6.186s3.462 6.186 7.7325 6.186 7.7325-2.7696 7.7325-6.186v-21.458c5.8435 0.98822 10.31 6.0539 10.31 12.179 0 3.2813-1.2883 6.4433-3.6085 8.7635l2.8997 2.8997c3.0936-3.0936 4.8328-7.2882 4.8328-11.663 0-9.1105-7.3855-16.496-16.496-16.496h-2.062" style="color:#000000;fill-opacity:.031373;fill:#0000ff;opacity:1"/>
		<path id="j" d="m31.132 17.832v20.224c-1.0762-0.45706-2.2921-0.70625-3.5955-0.70625-4.2551 0-7.7046 2.7596-7.7046 6.1637 0 3.4041 3.4495 6.1637 7.7046 6.1637s7.7046-2.7596 7.7046-6.1637v-21.38c5.8224 0.98465 10.273 6.0321 10.273 12.135 0 3.2694-1.2836 6.42-3.5955 8.7318l2.8892 2.8892c3.0824-3.0824 4.8154-7.2619 4.8154-11.621 0-9.0776-7.3588-16.436-16.436-16.436h-2.0546" style="color:#000000;fill-opacity:.031373;fill:#0000ff;opacity:1"/>
		<path id="ab" d="m30.981 17.721v20.153c-1.0724-0.45543-2.2839-0.70375-3.5827-0.70375-4.24 0-7.6772 2.7498-7.6772 6.1418 0 3.392 3.4372 6.1418 7.6772 6.1418 4.24 0 7.6772-2.7498 7.6772-6.1418v-21.304c5.8018 0.98115 10.236 6.0107 10.236 12.092 0 3.2578-1.2791 6.3972-3.5827 8.7009l2.879 2.879c3.0715-3.0715 4.7983-7.2361 4.7983-11.58 0-9.0454-7.3327-16.378-16.378-16.378h-2.0473" style="color:#000000;fill-opacity:.031373;fill:#0000ff;opacity:1"/>
		<path id="an" d="m30.833 17.612v20.082c-1.0687-0.45385-2.276-0.70129-3.5702-0.70129-4.2252 0-7.6505 2.7402-7.6505 6.1204 0 3.3802 3.4252 6.1204 7.6505 6.1204 4.2252 0 7.6505-2.7402 7.6505-6.1204v-21.23c5.7815 0.97773 10.201 5.9897 10.201 12.049 0 3.2464-1.2746 6.3749-3.5702 8.6705l2.8689 2.8689c3.0608-3.0608 4.7815-7.2109 4.7815-11.539 0-9.0138-7.3072-16.321-16.321-16.321h-2.0401" style="color:#000000;fill-opacity:.031373;fill:#0000ff;opacity:1"/>
		<path id="r" d="m30.687 17.505v20.014c-1.065-0.45229-2.2682-0.69889-3.558-0.69889-4.2107 0-7.6242 2.7308-7.6242 6.0994s3.4135 6.0994 7.6242 6.0994c4.2107 0 7.6242-2.7308 7.6242-6.0994v-21.157c5.7617 0.97438 10.166 5.9692 10.166 12.008 0 3.2353-1.2703 6.3531-3.558 8.6408l2.8591 2.8591c3.0503-3.0503 4.7651-7.1861 4.7651-11.5 0-8.9829-7.2821-16.265-16.265-16.265h-2.0331" style="color:#000000;fill-opacity:.031373;fill:#0000ff;opacity:1"/>
		<path id="n" d="m30.545 17.4v19.946c-1.0614-0.45076-2.2605-0.69653-3.546-0.69653-4.1965 0-7.5985 2.7216-7.5985 6.0788 0 3.3572 3.402 6.0788 7.5985 6.0788 4.1965 0 7.5985-2.7216 7.5985-6.0788v-21.086c5.7423 0.97109 10.131 5.949 10.131 11.968 0 3.2244-1.266 6.3316-3.546 8.6116l2.8494 2.8494c3.04-3.04 4.7491-7.1619 4.7491-11.461 0-8.9526-7.2575-16.21-16.21-16.21h-2.0263" style="color:#000000;fill-opacity:.031373;fill:#0000ff;opacity:1"/>
		<path id="ah" d="m30.405 17.298v19.88c-1.0579-0.44926-2.253-0.69421-3.5342-0.69421-4.1826 0-7.5732 2.7125-7.5732 6.0586s3.3906 6.0586 7.5732 6.0586 7.5732-2.7125 7.5732-6.0586v-21.016c5.7232 0.96786 10.098 5.9292 10.098 11.928 0 3.2137-1.2618 6.3106-3.5342 8.583l2.84 2.84c3.0299-3.0299 4.7333-7.138 4.7333-11.423 0-8.9228-7.2334-16.156-16.156-16.156h-2.0195" style="color:#000000;fill-opacity:.031373;fill:#0000ff;opacity:1"/>
		<path id="aa" d="m30.268 17.197v19.815c-1.0544-0.44779-2.2456-0.69194-3.5226-0.69194-4.1689 0-7.5484 2.7036-7.5484 6.0387 0 3.3351 3.3795 6.0387 7.5484 6.0387 4.1689 0 7.5484-2.7036 7.5484-6.0387v-20.947c5.7044 0.96469 10.065 5.9098 10.065 11.889 0 3.2031-1.2576 6.2899-3.5226 8.5548l2.8306 2.8306c3.0199-3.0199 4.7177-7.1146 4.7177-11.385 0-8.8936-7.2097-16.103-16.103-16.103h-2.0129" style="color:#000000;fill-opacity:.031373;fill:#0000ff;opacity:1"/>
		<path id="t" d="m30.133 17.098v19.75c-1.051-0.44634-2.2384-0.6897-3.5112-0.6897-4.1554 0-7.524 2.6949-7.524 6.0192 0 3.3243 3.3686 6.0192 7.524 6.0192 4.1554 0 7.524-2.6949 7.524-6.0192v-20.879c5.686 0.96157 10.032 5.8907 10.032 11.85 0 3.1928-1.2536 6.2696-3.5112 8.5272l2.8215 2.8215c3.0102-3.0102 4.7025-7.0917 4.7025-11.349 0-8.8648-7.1864-16.051-16.051-16.051h-2.0064" style="color:#000000;fill-opacity:.031373;fill:#0000ff;opacity:1"/>
		<path id="o" d="m30 17v19.688c-1.0476-0.44492-2.2312-0.6875-3.5-0.6875-4.1421 0-7.5 2.6863-7.5 6s3.3579 6 7.5 6 7.5-2.6863 7.5-6v-20.812c5.6678 0.9585 10 5.8719 10 11.812 0 3.1826-1.2496 6.2496-3.5 8.5l2.8125 2.8125c3.0006-3.0006 4.6875-7.069 4.6875-11.312 0-8.8366-7.1634-16-16-16h-2" style="color:#000000;fill-opacity:.031373;fill:#0000ff;opacity:1"/>
	</g>
	<path id="ae" d="m30 17v19.688c-1.0476-0.44492-2.2312-0.6875-3.5-0.6875-4.1421 0-7.5 2.6863-7.5 6s3.3579 6 7.5 6 7.5-2.6863 7.5-6v-20.812c5.6678 0.9585 10 5.8719 10 11.812 0 3.1826-1.2496 6.2496-3.5 8.5l2.8125 2.8125c3.0006-3.0006 4.6875-7.069 4.6875-11.312 0-8.8366-7.1634-16-16-16z" style="color:#000000;fill:#232e47"/>
	<path id="ao" d="m30 17v0.5h2c8.7529 0 15.854 7.031 15.988 15.752 0.001334-0.084319 0.011719-0.16749 0.011719-0.25195 0-8.8366-7.1634-16-16-16zm13.988 16.242c-0.061926 3.0953-1.2952 6.0647-3.4883 8.2578l0.23828 0.23828c2.0945-2.2242 3.2617-5.1742 3.2617-8.2383 0-0.08689-0.0099-0.17137-0.01172-0.25781zm-17.488 2.7578c-4.1421 0-7.5 2.6863-7.5 6 0 0.08442 0.01131 0.16643 0.01563 0.25 0.1651-3.1968 3.4478-5.75 7.4844-5.75 1.2688 0 2.4524 0.24258 3.5 0.6875v-0.5c-1.0477-0.44492-2.2312-0.6875-3.5-0.6875z" style="color:#000000;fill:#546fab"/>
</svg>
