<?xml version="1.0" encoding="UTF-8"?>
<svg width="64" height="64" version="1.1" xmlns="http://www.w3.org/2000/svg" xmlns:cc="http://creativecommons.org/ns#" xmlns:dc="http://purl.org/dc/elements/1.1/" xmlns:rdf="http://www.w3.org/1999/02/22-rdf-syntax-ns#" xmlns:xlink="http://www.w3.org/1999/xlink">
	<defs>
		<radialGradient id="radialGradient2160630" cx="31.744" cy="35.593" r="32" gradientTransform="matrix(-1.1553,0,0,1.1553,68.931,-5.529)" gradientUnits="userSpaceOnUse">
			<stop stop-color="#cb2d4a" offset="0"/>
			<stop stop-color="#e0313c" offset="1"/>
		</radialGradient>
		<radialGradient id="radialGradient2160632-3-9" cx="35.574" cy="1.019" r="32" gradientTransform="matrix(0,1.1252,-5.1753,0,37.271,-39.029)" gradientUnits="userSpaceOnUse" xlink:href="#a-6-5"/>
		<linearGradient id="a-6-5">
			<stop stop-color="#ff87a0" stop-opacity=".2" offset="0"/>
			<stop stop-color="#ff8bbe" stop-opacity=".039216" offset="1"/>
		</linearGradient>
		<radialGradient id="radialGradient2160634-3-9" cx="35.574" cy="1.036" r="32" gradientTransform="matrix(0,1.1252,-5.1753,0,37.363,-39.029)" gradientUnits="userSpaceOnUse" xlink:href="#a-6-5"/>
		<radialGradient id="radialGradient2160636-5-4" cx="35.574" cy="1.055" r="32" gradientTransform="matrix(0,1.1252,-5.1753,0,37.458,-39.029)" gradientUnits="userSpaceOnUse" xlink:href="#a-6-5"/>
		<radialGradient id="radialGradient2160638-6-7" cx="35.574" cy="1.071" r="32" gradientTransform="matrix(0,1.1252,-5.1753,0,37.544,-39.029)" gradientUnits="userSpaceOnUse" xlink:href="#a-6-5"/>
		<radialGradient id="radialGradient2160640-2-8" cx="35.574" cy="1.091" r="32" gradientTransform="matrix(0,1.1252,-5.1753,0,37.648,-39.029)" gradientUnits="userSpaceOnUse" xlink:href="#a-6-5"/>
		<radialGradient id="radialGradient2160642-9-4" cx="35.574" cy="1.113" r="32" gradientTransform="matrix(0,1.1252,-5.1753,0,37.758,-39.029)" gradientUnits="userSpaceOnUse" xlink:href="#a-6-5"/>
		<radialGradient id="radialGradient2160644-1-5" cx="35.574" cy="1.135" r="32" gradientTransform="matrix(0,1.1252,-5.1753,0,37.875,-39.029)" gradientUnits="userSpaceOnUse" xlink:href="#a-6-5"/>
		<radialGradient id="radialGradient2160646-2-0" cx="35.574" cy="1.159" r="32" gradientTransform="matrix(0,1.1252,-5.1753,0,38,-39.029)" gradientUnits="userSpaceOnUse" xlink:href="#a-6-5"/>
		<radialGradient id="radialGradient2160648-7-3" cx="35.574" cy="1.18" r="32" gradientTransform="matrix(0,1.1252,-5.1753,0,38.107,-39.029)" gradientUnits="userSpaceOnUse" xlink:href="#a-6-5"/>
		<radialGradient id="radialGradient2160650-0-6" cx="35.574" cy="1.208" r="32" gradientTransform="matrix(0,1.1252,-5.1753,0,38.252,-39.029)" gradientUnits="userSpaceOnUse" xlink:href="#a-6-5"/>
		<radialGradient id="radialGradient2160652-9-1" cx="35.574" cy="1.239" r="32" gradientTransform="matrix(0,1.1252,-5.1753,0,38.411,-39.029)" gradientUnits="userSpaceOnUse" xlink:href="#a-6-5"/>
		<radialGradient id="radialGradient2160654-3-0" cx="35.574" cy="1.273" r="32" gradientTransform="matrix(0,1.1252,-5.1753,0,38.587,-39.029)" gradientUnits="userSpaceOnUse" xlink:href="#a-6-5"/>
		<radialGradient id="radialGradient2160656-6-6" cx="35.574" cy="1.304" r="32" gradientTransform="matrix(0,1.1252,-5.1753,0,38.75,-39.029)" gradientUnits="userSpaceOnUse" xlink:href="#a-6-5"/>
		<radialGradient id="radialGradient2160658-0-3" cx="35.574" cy="1.346" r="32" gradientTransform="matrix(0,1.1252,-5.1753,0,38.966,-39.029)" gradientUnits="userSpaceOnUse" xlink:href="#a-6-5"/>
		<radialGradient id="radialGradient2160660-6-2" cx="35.574" cy="1.393" r="32" gradientTransform="matrix(0,1.1252,-5.1753,0,39.208,-39.029)" gradientUnits="userSpaceOnUse" xlink:href="#a-6-5"/>
		<radialGradient id="radialGradient2160662-2-0" cx="35.574" cy="1.439" r="32" gradientTransform="matrix(0,1.1252,-5.1753,0,39.446,-39.029)" gradientUnits="userSpaceOnUse" xlink:href="#a-6-5"/>
		<radialGradient id="radialGradient2160664-6-6" cx="5.9927" cy="1.4073" r="32" gradientTransform="matrix(0 .012817 -1.2755 0 33.91 1.4205)" gradientUnits="userSpaceOnUse" xlink:href="#a-6-5">
			<stop stop-color="#ffd2e9" stop-opacity=".3231" offset="0"/>
			<stop stop-color="#ffc0b2" stop-opacity="0" offset="1"/>
		</radialGradient>
	</defs>
	<metadata>
		<rdf:RDF>
			<cc:Work rdf:about="">
				<dc:format>image/svg+xml</dc:format>
				<dc:type rdf:resource="http://purl.org/dc/dcmitype/StillImage"/>
			</cc:Work>
		</rdf:RDF>
	</metadata>
	<g transform="translate(3.2081e-5)">
		<path d="m1 0c-0.554 0-1 0.446-1 1v62c0 0.554 0.446 1 1 1h62c0.554 0 1-0.446 1-1v-62c0-0.554-0.446-1-1-1z" fill="url(#radialGradient2160630)"/>
		<g transform="translate(0 .001503)">
			<path d="m1 0c-0.554 0-1 0.446-1 1v62-0.224 0.224-62h1.752c19.15 2e-3 39.445 0 60.213 0h2.035v62-0.334 0.334-62c0.0011-0.55274-0.44726-1.0011-1-1z" fill="url(#radialGradient2160632-3-9)"/>
			<path d="m1 0c-0.5551-0.0011303-1.0045 0.45091-1 1.006v61.98-0.197c0-0.277 4e-3 -0.184 0.01 0.246 0.012 0.016 0.03-0.297 0.052-0.897v-61c0.072-9e-3 0.133-0.013 0.185-0.013 0.29-0.016 0.357-0.032 0.774-0.044 0.246-0.011 0.496-0.019 0.747-0.019 19.183 2e-3 39.392 0 60.2 0 0.346 0 0.689 0.012 1.023 0.03 0.268 0.01 0.389 0.02 0.52 0.033 0.106 0 0.22 0.01 0.427 0.028v60.744c0.027 0.754 0.05 1.148 0.059 1.123l3e-3 -0.334v0.286-61.762c0-0.143 0-0.22-2e-3 -0.224-0.005475-0.55246-0.45958-0.9949-1.012-0.986h-61.986" fill="url(#radialGradient2160634-3-9)"/>
			<path d="m1 0c-0.5551-0.0011303-1.0045 0.45091-1 1.006v61.966-0.169c0-0.245 8e-3 -0.145 0.021 0.266 0.022 0.034 0.06-0.247 0.104-0.807v-60.988c0.056484-0.015102 0.11455-0.023493 0.173-0.025 0.27-0.031 0.341-0.064 0.743-0.088 0.242-0.022 0.492-0.037 0.742-0.037 19.217 2e-3 39.34 0 60.187 0 0.347 0 0.69 0.024 1.013 0.06 0.256 0.02 0.372 0.042 0.494 0.065 0.1 0 0.206 0.02 0.398 0.057v60.731c0.055 0.703 0.102 1.052 0.119 1.003 4e-3 -0.154 6e-3 -0.265 6e-3 -0.333v0.237-61.748c0-0.139 0-0.215-3e-3 -0.224-0.011441-0.46771-0.34748-0.86412-0.807-0.952-0.071417-0.014359-0.14416-0.021063-0.217-0.02h-61.973" fill="url(#radialGradient2160636-5-4)"/>
			<path d="m1 0c-0.55471-0.0011253-1.0039 0.45031-1 1.005v61.953-0.14c0-0.213 0.012-0.107 0.031 0.287 0.034 0.05 0.091-0.198 0.156-0.718v-60.974c0.050612-0.022043 0.10485-0.034585 0.16-0.037 0.252-0.048 0.327-0.097 0.715-0.132 0.238-0.034 0.487-0.056 0.737-0.056 19.25 2e-3 39.286 0 60.173 0 0.348 0 0.688 0.036 1.001 0.09 0.244 0.029 0.356 0.062 0.47 0.098 0.091 0 0.19 0.03 0.37 0.085v60.718c0.082 0.653 0.151 0.957 0.176 0.884 7e-3 -0.152 0.01-0.262 0.01-0.333v0.188-61.734c0-0.135 0-0.21-4e-3 -0.224-0.017399-0.46717-0.35861-0.85879-0.819-0.94-0.071505-0.013569-0.14424-0.019602-0.217-0.018h-61.96" fill="url(#radialGradient2160638-6-7)"/>
			<path d="m1 0c-0.55471-0.0011253-1.0039 0.45031-1 1.005v61.939-0.113c0-0.18 0.015-0.068 0.042 0.308 0.045 0.067 0.121-0.149 0.208-0.629v-60.96c0.044295-0.028947 0.095225-0.046153 0.148-0.05 0.232-0.063 0.311-0.128 0.684-0.176 0.234-0.044 0.483-0.074 0.732-0.074 19.284 2e-3 39.234 0 60.16 0 0.35 0 0.689 0.048 0.991 0.12 0.232 0.039 0.34 0.083 0.444 0.13 0.085 0 0.176 0.04 0.341 0.114v60.704c0.11 0.603 0.203 0.862 0.236 0.764 0.01-0.148 0.014-0.259 0.014-0.333v0.14-61.721c0-0.13-2e-3 -0.206-6e-3 -0.224-0.024028-0.46583-0.36965-0.85184-0.83-0.927-0.072548-0.013262-0.14628-0.018959-0.22-0.017h-61.944" fill="url(#radialGradient2160640-2-8)"/>
			<path d="m1 0c-0.55431-0.0011209-1.0033 0.4497-1 1.004v61.926-0.084c0-0.148 0.02-0.029 0.052 0.328 0.056 0.084 0.152-0.099 0.26-0.539v-60.949c0.053-0.04 0.097-0.061 0.136-0.061 0.212-0.08 0.297-0.16 0.655-0.22 0.23-0.056 0.477-0.093 0.727-0.093 19.317 2e-3 39.18 0 60.147 0 0.35 0 0.688 0.06 0.98 0.151 0.22 0.047 0.322 0.102 0.418 0.162 0.078 0 0.162 0.049 0.313 0.142v60.69c0.137 0.553 0.253 0.767 0.295 0.645 0.0096-0.11043 0.01523-0.22117 0.017-0.332v0.09-61.705c0-0.126-2e-3 -0.202-7e-3 -0.224-0.03077-0.46514-0.38186-0.8458-0.843-0.914-0.071921-0.0129-0.14495-0.018594-0.218-0.017h-61.932" fill="url(#radialGradient2160642-9-4)"/>
			<path d="m1 0c-0.55431-0.0011209-1.0033 0.4497-1 1.004v61.912-0.056c0-0.117 0.023 0.01 0.063 0.349 0.067 0.1 0.182-0.05 0.312-0.45v-60.935c0.048-0.049 0.088-0.074 0.123-0.074 0.193-0.095 0.282-0.192 0.626-0.264 0.225-0.067 0.472-0.11 0.721-0.11h60.133c0.352 0 0.688 0.071 0.97 0.18 0.1444 0.03294 0.27903 0.099398 0.393 0.194 0.07 0 0.147 0.059 0.284 0.17v60.68c0.164 0.502 0.304 0.671 0.354 0.524 0.014-0.14 0.02-0.25 0.02-0.331v0.042-61.695c0-0.121-2e-3 -0.197-9e-3 -0.224-0.037172-0.46407-0.39266-0.83953-0.854-0.902-0.072052-0.011622-0.14505-0.01631-0.218-0.014h-61.918" fill="url(#radialGradient2160644-1-5)"/>
			<path d="m1 0c-0.55431-0.0011209-1.0033 0.4497-1 1.004v61.898-0.029c0-0.084 0.027 0.049 0.073 0.37 0.079 0.117 0.212 0 0.365-0.36v-60.923c0.043-0.057 0.079-0.086 0.11-0.086 0.174-0.112 0.267-0.225 0.596-0.309 0.23012-0.082729 0.47247-0.12633 0.717-0.129 19.385 2e-3 39.075 0 60.12 0 0.353 0 0.687 0.084 0.958 0.211 0.196 0.066 0.29 0.144 0.368 0.227 0.063 0 0.132 0.068 0.256 0.199v60.665c0.192 0.452 0.354 0.576 0.413 0.404 0.01385-0.1095 0.02186-0.21965 0.024-0.33v-61.687c0-0.117-4e-3 -0.193-0.01-0.224-0.043775-0.464-0.40524-0.83463-0.868-0.89-0.071851-0.010232-0.14448-0.013914-0.217-0.011h-61.905" fill="url(#radialGradient2160646-2-0)"/>
			<path d="m1 0c-0.55392-0.001117-1.0028 0.44909-1 1.003v61.885c0-0.052 0.03 0.087 0.084 0.39 0.09 0.135 0.242 0.05 0.416-0.27v-60.911c0.038-0.063 0.07-0.097 0.099-0.097 0.154-0.127 0.251-0.257 0.566-0.352 0.217-0.089 0.463-0.148 0.711-0.148 19.418 2e-3 39.022 0 60.107 0 0.355 0 0.687 0.096 0.947 0.242 0.13781 0.049299 0.25742 0.13926 0.343 0.258 0.056 0 0.118 0.079 0.227 0.227v60.651c0.22 0.402 0.406 0.482 0.473 0.285 0.018-0.132 0.027-0.243 0.027-0.33v-61.721c0-0.113-4e-3 -0.188-0.012-0.224-0.050481-0.46258-0.4163-0.82757-0.879-0.877-0.072218-0.0099014-0.14515-0.013582-0.218-0.011h-61.89" fill="url(#radialGradient2160648-7-3)"/>
			<path d="m1 0c-0.55392-0.001117-1.0028 0.44909-1 1.003v61.899c0-0.02 0.035 0.126 0.094 0.41 0.101 0.152 0.273 0.1 0.468-0.18v-60.897c0.034-0.073 0.062-0.11 0.087-0.11 0.135-0.143 0.236-0.29 0.536-0.397 0.213-0.1 0.459-0.166 0.707-0.166 19.452 2e-3 38.969 0 60.093 0 0.356 0 0.687 0.108 0.936 0.272 0.13431 0.059746 0.24556 0.16152 0.317 0.29 0.05 0 0.103 0.089 0.2 0.256v60.64c0.246 0.352 0.455 0.386 0.531 0.165 0.02-0.128 0.03-0.239 0.03-0.33v-61.755c0-0.108-4e-3 -0.184-0.013-0.224-0.0572-0.46153-0.42793-0.82103-0.891-0.864-0.07229-0.0090995-0.14518-0.012443-0.218-0.01h-61.877" fill="url(#radialGradient2160650-0-6)"/>
			<path d="m1 0c-0.55353-0.0011137-1.0022 0.44848-1 1.002v61.913c0 0.013 0.039 0.165 0.105 0.432 0.112 0.168 0.303 0.148 0.52-0.092v-60.882c0.029-0.081 0.053-0.123 0.074-0.123 0.116-0.159 0.222-0.321 0.507-0.44 0.209-0.111 0.454-0.185 0.701-0.185 19.486 2e-3 38.916 0 60.08 0 0.357 0 0.687 0.12 0.925 0.302 0.13107 0.071535 0.23401 0.1854 0.292 0.323 0.043 0 0.089 0.098 0.171 0.284v60.626c0.275 0.302 0.507 0.29 0.591 0.046 0.022-0.125 0.034-0.236 0.034-0.33v-61.791c0-0.104-5e-3 -0.18-0.016-0.224-0.063414-0.4609-0.4392-0.81546-0.903-0.852-0.07238-0.0079052-0.14524-0.010579-0.218-8e-3h-61.863" fill="url(#radialGradient2160652-9-1)"/>
			<path d="m1 0c-0.55353-0.0011137-1.0022 0.44848-1 1.002v61.928c0 0.045 0.042 0.203 0.115 0.453 0.123 0.184 0.333 0.197 0.572-3e-3v-60.87c0.024-0.089 0.045-0.135 0.062-0.135 0.097-0.174 0.207-0.353 0.478-0.484 0.204-0.122 0.448-0.203 0.696-0.203 19.519 2e-3 38.863 0 60.067 0 0.33455-0.0021 0.65879 0.11568 0.914 0.332 0.15 0.103 0.224 0.225 0.267 0.355 0.035 0 0.073 0.108 0.142 0.313v60.612c0.302 0.251 0.557 0.196 0.65-0.074 0.02307-0.10853 0.03547-0.21906 0.037-0.33v-61.825c0-0.1-6e-3 -0.175-0.017-0.224-0.069565-0.46031-0.45044-0.80996-0.915-0.84-0.072444-0.0069646-0.14526-0.0093027-0.218-7e-3h-61.85" fill="url(#radialGradient2160654-3-0)"/>
			<path d="m1 0c-0.55353-0.0011137-1.0022 0.44848-1 1.002v61.942c0 0.077 0.046 0.242 0.126 0.473 0.134 0.201 0.363 0.246 0.624 0.086v-60.856c0.02-0.097 0.035-0.147 0.05-0.147 0.079731-0.22481 0.23864-0.41288 0.447-0.529 0.2-0.133 0.444-0.221 0.691-0.221 19.553 2e-3 38.811 0 60.053 0 0.36 0 0.686 0.144 0.903 0.362 0.12254 0.097958 0.20793 0.23486 0.242 0.388 0.028 0 0.059 0.118 0.114 0.341v60.598c0.33 0.2 0.608 0.1 0.709-0.194 0.026-0.117 0.04-0.228 0.04-0.329v-61.86c0-0.095-6e-3 -0.17-0.018-0.224-0.076427-0.45917-0.46212-0.80326-0.927-0.827-0.072523-0.0056002-0.1453-0.0072693-0.218-5e-3h-61.836" fill="url(#radialGradient2160656-6-6)"/>
			<path d="m1 0c-0.55314-0.001111-1.0017 0.44787-1 1.001v61.956c0 0.11 0.05 0.281 0.136 0.494 0.146 0.218 0.394 0.296 0.677 0.176v-60.843c0.014-0.105 0.026-0.16 0.036-0.16 0.062205-0.23684 0.21195-0.44126 0.419-0.572 0.196-0.144 0.439-0.24 0.686-0.24 19.586 2e-3 38.758 0 60.04 0 0.36 0 0.685 0.156 0.892 0.392 0.11655 0.1122 0.19253 0.25993 0.216 0.42 0.021 0 0.044 0.128 0.086 0.37v60.585c0.356 0.15 0.658 5e-3 0.768-0.314 0.029-0.114 0.044-0.224 0.044-0.328v-61.895c0-0.09-7e-3 -0.166-0.02-0.224-0.083295-0.45841-0.47439-0.79708-0.94-0.814-0.072228-0.0047776-0.14463-0.0064458-0.217-5e-3h-61.823" fill="url(#radialGradient2160658-0-3)"/>
			<path d="m1 0c-0.55274-0.0011088-1.0011 0.44726-1 1v61.972c0 0.142 0.054 0.32 0.147 0.515 0.15624 0.24102 0.45338 0.34918 0.728 0.265v-60.83c0.01-0.114 0.018-0.172 0.025-0.172 0.044459-0.24844 0.184-0.46977 0.389-0.617 0.192-0.155 0.434-0.258 0.68-0.258 19.62 2e-3 38.705 0 60.027 0 0.362 0 0.686 0.168 0.882 0.422 0.10963 0.12712 0.17614 0.28571 0.19 0.453 0.015 0 0.03 0.137 0.057 0.398v60.572c0.385 0.1 0.71-0.09 0.828-0.434 0.03-0.11 0.047-0.22 0.047-0.328v-61.93c0-0.086-7e-3 -0.161-0.021-0.224-0.089858-0.45718-0.48521-0.79059-0.951-0.802-0.072962-0.0029106-0.146-0.0035776-0.219-2e-3h-61.809" fill="url(#radialGradient2160660-6-2)"/>
			<path d="m1 0c-0.55274-0.0011088-1.0011 0.44726-1 1v61.986c0 0.174 0.058 0.358 0.157 0.535 0.16968 0.25897 0.47327 0.39714 0.78 0.355v-60.816c5e-3 -0.122 0.01-0.185 0.013-0.185 0.028233-0.25888 0.15763-0.49611 0.36-0.66 0.187-0.166 0.429-0.277 0.675-0.277 19.653 2e-3 38.652 0 60.013 0 0.363 0 0.685 0.18 0.87 0.452 0.10246 0.1415 0.16026 0.3104 0.166 0.485 7e-3 0 0.015 0.147 0.028 0.427v60.558c0.412 0.05 0.76-0.186 0.887-0.553 0.03316-0.10618 0.05001-0.21677 0.05-0.328v-61.965c0.010025-0.55281-0.43213-1.008-0.985-1.014-0.073-0.0011985-0.146-0.0011985-0.219 0h-61.795" fill="url(#radialGradient2160662-2-0)"/>
			<path d="m1 0c-0.55274-0.0011088-1.0011 0.44726-1 1v1h64v-0.998c0.0011-0.55274-0.44726-1.0011-1-1h-62z" fill="url(#radialGradient2160664-6-6)"/>
			<path d="m-3.2081e-5 0.9985v2.5l2-2z" fill="#ffbbe5" fill-opacity=".70005"/>
			<path d="m64 3.4985-2-2 2-0.5z" fill="#ffbbe5" fill-opacity=".70005"/>
		</g>
	</g>
	<g transform="translate(0,-1)" fill="#550000" fill-opacity=".04" opacity=".49392">
		<path d="m15 28.726 10 10h6e-4 13.999v6e-4 13.999l5e-4 4e-4c0.0775 0.0768 9.9995 9.9022 9.9995 9.9022v-4e-4 -33.902zm10 10-5e-4 4e-4c-0.0775 0.0775-9.9995 9.9996-9.9995 9.9996v6e-4 13.999h6e-4 13.999l5e-4 -5e-4 9.9995-9.9995h-6e-4 -13.999v-7e-4 -13.999" color="#000000" opacity=".59169" stop-color="#000000" style="-inkscape-stroke:none;font-variation-settings:normal"/>
		<path d="m15 24.858 10 10h4e-4 14v4e-4 14l3e-4 3e-4c0.052 0.0515 9.9997 9.9023 9.9997 9.9023v-2e-4 -33.902zm6.7012 6.7012m3.2988 3.2988-3.2991 3.2991-6.7009 6.7009v4.6187 9.3813h4.6187 9.3813l3.2991-3.2991 6.7009-6.7009h-4.6187-9.3813v-4.6187-9.3813" color="#000000" opacity=".59169" stop-color="#000000" style="-inkscape-stroke:none;font-variation-settings:normal"/>
		<path d="m15 23.622 10 10h4e-4 14v4e-4 14l3e-4 3e-4c0.0437 0.0433 9.9997 9.9023 9.9997 9.9023v-2e-4 -33.902zm5.6472 5.6473m4.3528 4.3527-4.353 4.353-5.647 5.647v6.0942 7.9058h6.0942 7.9058l4.353-4.353 5.647-5.647h-6.0942-7.9058v-6.0942-7.9058" color="#000000" opacity=".59169" stop-color="#000000" style="-inkscape-stroke:none;font-variation-settings:normal"/>
		<path d="m15 22.723 10 10h3e-4 14v3e-4 14l2e-4 2e-4c0.0379 0.0375 9.9998 9.9024 9.9998 9.9024v-2e-4 -33.902zm4.8808 4.8808m5.1192 5.1192-5.1194 5.1194-4.8806 4.8806v7.1672 6.8328h7.1672 6.8328l5.1194-5.1194c0.0378-0.0379 4.8806-4.8806 4.8806-4.8806h-7.1672-6.8328v-7.1672-6.8328" color="#000000" opacity=".59169" stop-color="#000000" style="-inkscape-stroke:none;font-variation-settings:normal"/>
		<path d="m15 21.991 10 10h3e-4 14v3e-4 14l2e-4 2e-4c0.033 0.0327 9.9998 9.9024 9.9998 9.9024v-1e-4 -33.902zm4.2565 4.2565m5.7435 5.7435-5.7437 5.7437-4.2563 4.2563v8.0412 5.9588h8.0412 5.9588l5.7437-5.7437 4.2563-4.2563h-8.0412-5.9588v-8.0411-5.9589" color="#000000" opacity=".59169" stop-color="#000000" style="-inkscape-stroke:none;font-variation-settings:normal"/>
		<path d="m15 21.362 10 10h2e-4 14v3e-4 14l2e-4 2e-4c0.0288 0.0286 9.9998 9.9024 9.9998 9.9024v-1e-4 -33.902zm3.7203 3.7203m6.2797 6.2797-6.2799 6.2799c-0.0288 0.0289-3.7201 3.7201-3.7201 3.7201v8.7919 5.2081h8.7918 5.2082l6.2799-6.2799 3.7201-3.7201h-8.7918-5.2082v-8.7918-5.2082" color="#000000" opacity=".59169" stop-color="#000000" style="-inkscape-stroke:none;font-variation-settings:normal"/>
		<path d="m15 20.805 10 10h2e-4 14v3e-4 14l1e-4 2e-4c0.0252 0.0249 9.9999 9.9024 9.9999 9.9024v-1e-4 -33.902zm3.2452 3.2452m6.7548 6.7548-6.7549 6.755c-0.0252 0.0251-3.2451 3.245-3.2451 3.245v9.457 4.543h9.4569 4.5431l6.7549-6.7549 3.2451-3.2451h-9.4569-4.5431v-9.4569-4.5431" color="#000000" opacity=".59169" stop-color="#000000" style="-inkscape-stroke:none;font-variation-settings:normal"/>
		<path d="m15 20.302 10 10h2e-4 14v2e-4 14l1e-4 1e-4c0.0219 0.0216 9.9999 9.9025 9.9999 9.9025v-1e-4 -33.902zm2.8156 2.8156m7.1844 7.1844-7.1845 7.1845c-0.0219 0.0218-2.8155 2.8155-2.8155 2.8155v10.058 3.9417h10.058 3.9416l7.1845-7.1846c0.0219-0.0218 2.8155-2.8154 2.8155-2.8154h-10.058-3.9416v-10.058-3.9416" color="#000000" opacity=".59169" stop-color="#000000" style="-inkscape-stroke:none;font-variation-settings:normal"/>
		<path d="m15 19.839 10 10h2e-4 14v1e-4 14l1e-4 1e-4c0.0188 0.0186 9.9999 9.9025 9.9999 9.9025v-1e-4 -33.902zm2.4214 2.4214m7.5786 7.5786-7.5787 7.5787c-0.0188 0.0187-2.4213 2.4213-2.4213 2.4213v10.61 3.3899h10.61 3.3898l7.5787-7.5787 2.4213-2.4213h-10.61-3.3898v-10.61-3.3898" color="#000000" opacity=".59169" stop-color="#000000" style="-inkscape-stroke:none;font-variation-settings:normal"/>
		<path d="m15 19.411 10 10h1e-4 14v1e-4 14l1e-4 1e-4c0.0159 0.0157 9.9999 9.9025 9.9999 9.9025v-1e-4 -33.902zm2.0558 2.0558m7.9442 7.9442-7.9443 7.9442c-0.0159 0.016-2.0557 2.0558-2.0557 2.0558v11.122 2.878h11.122 2.878l7.9443-7.9443 2.0557-2.0557h-11.122-2.878v-11.122-2.878" color="#000000" opacity=".59169" stop-color="#000000" style="-inkscape-stroke:none;font-variation-settings:normal"/>
		<path d="m15 19.01 10 10h1e-4 14v1e-4 14l1e-4 1e-4c0.0133 0.0131 9.9999 9.9025 9.9999 9.9025v-1e-4 -33.902zm1.7139 1.7139m8.2861 8.2861-8.2862 8.2862-1.7138 1.7138v11.601 2.3993h11.601 2.3993l8.2862-8.2862 1.7138-1.7138h-11.601-2.3993v-11.601-2.3993" color="#000000" opacity=".59169" stop-color="#000000" style="-inkscape-stroke:none;font-variation-settings:normal"/>
		<path d="m15 18.632 10 10h1e-4 14v1e-4 14l1e-4 1e-4c0.0108 0.0107 9.9999 9.9025 9.9999 9.9025v-33.903zm1.3919 1.3919m8.6081 8.6081-8.6082 8.6082-1.3918 1.3918v12.052 1.9485h12.052 1.9485l8.6082-8.6082 1.3918-1.3918h-12.052-1.9485v-12.052-1.9485" color="#000000" opacity=".59169" stop-color="#000000" style="-inkscape-stroke:none;font-variation-settings:normal"/>
		<path d="m15 18.275 10 10h1e-4 14v1e-4 14 1e-4c0.0085 0.0083 10 9.9025 10 9.9025v-33.903zm1.087 1.087m8.913 8.913-8.9131 8.9131-1.0869 1.0869v12.478 1.5217h12.478 1.5217l8.9131-8.9131 1.0869-1.0869h-12.478-1.5217v-12.478-1.5217" color="#000000" opacity=".59169" stop-color="#000000" style="-inkscape-stroke:none;font-variation-settings:normal"/>
		<path d="m15 17.935 10 10h1e-4 14v14c0.0062 0.0061 10 9.9026 10 9.9026v-1e-4 -33.902zm0.797 0.797m9.203 9.203-9.203 9.203-0.797 0.797v12.884 1.1158h12.884 1.1158l9.203-9.2031c0.0062-0.0061 0.797-0.7969 0.797-0.7969h-12.884-1.1158v-12.884-1.1157" color="#000000" opacity=".59169" stop-color="#000000" style="-inkscape-stroke:none;font-variation-settings:normal"/>
		<path d="m15 17.61 10 10h14v14c0.0041 4e-3 10 9.9026 10 9.9026v-33.903zm0.5201 0.5201m9.4799 9.4799-9.4799 9.4799-0.5201 0.5201v13.272 0.7281h13.272 0.7281l9.4799-9.4799c4e-3 -0.0041 0.5201-0.5201 0.5201-0.5201h-13.272-0.7281v-13.272-0.7281" color="#000000" opacity=".59169" stop-color="#000000" style="-inkscape-stroke:none;font-variation-settings:normal"/>
		<path d="m15 17.299 10 10h14v1e-4 14 1e-4c2e-3 0.0019 10 9.9025 10 9.9025v-33.903zm0.2549 0.2549m9.7451 9.7451-9.7452 9.7452c-0.0019 2e-3 -0.2548 0.2548-0.2548 0.2548v13.643 0.3567h13.643 0.3568l9.7452-9.7451c0.0019-2e-3 0.2548-0.2549 0.2548-0.2549h-13.643-0.3568v-13.643-0.3568" color="#000000" opacity=".59169" stop-color="#000000" style="-inkscape-stroke:none;font-variation-settings:normal"/>
		<path d="m15 17 10 10h14v14l10 9.9026v-33.903zm10 10-10 10v14h14l10-10h-14z" color="#000000" opacity=".59169" stop-color="#000000" style="-inkscape-stroke:none;font-variation-settings:normal"/>
	</g>
	<path d="m15 16 10 10h14v14l10 9.9026v-33.903zm10 10-10 10v14h14l10-10h-14z" color="#000000" fill="#e1d0e2" stop-color="#000000" style="-inkscape-stroke:none;font-variation-settings:normal"/>
	<path d="m15 16 1 1h33v-1zm9.5 10.5-9.5 9.5v1l10-10zm0.5 13.5v1h13l1-1z" color="#000000" fill="#ffffff" fill-opacity=".63712" stop-color="#000000" style="-inkscape-stroke:none;font-variation-settings:normal"/>
</svg>
