<?xml version="1.0" encoding="UTF-8"?>
<!-- Created with Inkscape (http://www.inkscape.org/) -->
<svg width="64" height="64" version="1.1" xmlns="http://www.w3.org/2000/svg" xmlns:cc="http://creativecommons.org/ns#" xmlns:dc="http://purl.org/dc/elements/1.1/" xmlns:rdf="http://www.w3.org/1999/02/22-rdf-syntax-ns#" xmlns:xlink="http://www.w3.org/1999/xlink">
	<defs>
		<radialGradient id="b" cx="29.395" cy="43.53" r="32" gradientTransform="matrix(.18648 .69414 -2.0938 .5625 94.66 -10.89)" gradientUnits="userSpaceOnUse">
			<stop stop-color="#f90050" stop-opacity=".10056" offset="0"/>
			<stop stop-color="#f90050" stop-opacity="0" offset="1"/>
		</radialGradient>
		<linearGradient id="linearGradient29917" x1="87.273" x2="75.581" y1="84.499" y2="72.808" gradientTransform="translate(-34,-33)" gradientUnits="userSpaceOnUse">
			<stop stop-color="#c79c60" offset="0"/>
			<stop stop-color="#caaa72" offset=".25231"/>
			<stop stop-color="#d5c095" offset="1"/>
		</linearGradient>
		<radialGradient id="radialGradient13114" cx="18.073" cy="52.994" r="30" gradientTransform="matrix(2.1226,0,0,2.1933,-28.813,-47.808)" gradientUnits="userSpaceOnUse">
			<stop stop-color="#e6c4a8" offset="0"/>
			<stop stop-color="#e1d4ad" offset="1"/>
		</radialGradient>
		<linearGradient id="linearGradient76950" x1="63.086" x2="63.086" y1="11.788" y2="-2.7756e-17" gradientUnits="userSpaceOnUse">
			<stop stop-color="#cdb174" offset="0"/>
			<stop stop-color="#d8c48d" offset="1"/>
		</linearGradient>
		<radialGradient id="a-2" cx="46.762" cy="39.221" r="14.161" gradientTransform="matrix(.86297 .86297 -2.3655 2.3655 101.93 -81.343)" gradientUnits="userSpaceOnUse">
			<stop stop-color="#700a36" stop-opacity=".30196" offset="0"/>
			<stop stop-color="#532240" stop-opacity=".15195" offset="1"/>
		</radialGradient>
		<linearGradient id="linearGradient61270" x1="52" x2="40" y1="52" y2="40" gradientUnits="userSpaceOnUse">
			<stop stop-color="#ffffcb" stop-opacity=".30325" offset="0"/>
			<stop stop-color="#ffffff" stop-opacity="0" offset="1"/>
		</linearGradient>
		<radialGradient id="radialGradient74327" cx="32" cy="38.352" r="32" gradientTransform="matrix(.875 0 0 .84766 4 5.4903)" gradientUnits="userSpaceOnUse">
			<stop stop-color="#991f1a" stop-opacity=".80949" offset="0"/>
			<stop stop-color="#d7403a" stop-opacity=".21" offset=".57143"/>
			<stop stop-color="#c94d48" stop-opacity="0" offset="1"/>
		</radialGradient>
	</defs>
	<metadata>
		<rdf:RDF>
			<cc:Work rdf:about="">
				<dc:format>image/svg+xml</dc:format>
				<dc:type rdf:resource="http://purl.org/dc/dcmitype/StillImage"/>
			</cc:Work>
		</rdf:RDF>
	</metadata>
	<path d="m0 2v60l1.6362e-8 2h64v-62z" color="#000000" fill="#fbc82a"/>
	<path d="m0 2v60l1.6362e-8 2h64v-62z" color="#000000" fill="url(#b)"/>
	<g>
		<path d="m0 2v60l1.6362e-8 2h64v-62z" color="#000000" fill="url(#linearGradient76950)" stop-color="#000000" style="-inkscape-stroke:none;font-variation-settings:normal"/>
		<path d="m0 2v60l1.6362e-8 2h40l24-24v-38z" color="#000000" fill="url(#radialGradient13114)" stop-color="#000000" style="-inkscape-stroke:none;font-variation-settings:normal"/>
		<path d="m2 0-2 1v1h64v-1l-2-1z" color="#000000" fill="#f4e8d0"/>
		<path d="m0 1v3l2-2z" fill="#f8f2d1"/>
		<path d="m64 4-2-2 2-1z" fill="#f8f2d1"/>
	</g>
	<path d="m0 2v62h40l24-24v-37.5z" color="#000000" fill="url(#linearGradient61270)"/>
	<path d="m0 8v1h64v-1zm0 6v1h64v-1zm0 6v1h64v-1zm0 6v1h64v-1zm0 6v1h64v-1zm0 6v1h63.969l-0.15625-1zm0 6v1h64v-1zm0 6v1h64v-1zm0 6v1h64v-1z" fill="#2d7dd3" fill-opacity=".22239" stop-color="#000000" style="-inkscape-stroke:none;font-variation-settings:normal"/>
	<path d="m0 2v62h40l24-24v-37.5z" color="#000000" fill="url(#radialGradient74327)"/>
	<g transform="translate(.48048 5.6126)">
		<circle cx="31.52" cy="27.387" r="15.244" fill="#c94d48"/>
		<path d="m27.303 27.732v0.97302c0 0.58111 0.10811 1.125 0.32434 1.6318 0.21623 0.50678 0.51691 0.95275 0.90207 1.3379 0.38516 0.38515 0.83112 0.68584 1.3379 0.90207 0.50678 0.21623 1.0507 0.32434 1.6318 0.32434 0.58111 0 1.1284-0.10811 1.642-0.32434 0.51354-0.21623 0.96288-0.51691 1.348-0.90207 0.38515-0.38515 0.68922-0.83112 0.9122-1.3379 0.22298-0.50678 0.33447-1.0507 0.33447-1.6318v-0.97302h0.64868v0.97302c0 0.62165-0.11149 1.2061-0.33448 1.7535-0.22298 0.54732-0.52705 1.0338-0.9122 1.4595-0.38516 0.4257-0.83787 0.77706-1.3582 1.0541-0.5203 0.27704-1.0777 0.44935-1.6724 0.51691v1.946c0.97302 0.05405 1.7906 0.21622 2.4528 0.48651s0.99329 0.55408 0.99329 0.85139c0 0.01351-0.41556 0.02027-1.2467 0.02027h-5.4732c-0.83112 0-1.2467-0.0067-1.2467-0.02027 0-0.2838 0.30744-0.55746 0.92234-0.82098 0.6149-0.26353 1.3818-0.43583 2.3008-0.51692v-1.946c-0.58111-0.08108-1.125-0.26352-1.6318-0.54732-0.50678-0.2838-0.94599-0.63516-1.3176-1.0541-0.37164-0.41894-0.66557-0.90206-0.8818-1.4494-0.21623-0.54732-0.32434-1.125-0.32434-1.7332v-0.97302zm7.7841 0v0.93248c0 0.98654-0.35136 1.8244-1.0541 2.5136-0.70274 0.68922-1.5474 1.0338-2.5339 1.0338-0.98654 0-1.8244-0.34461-2.5136-1.0338-0.68922-0.68923-1.0338-1.5271-1.0338-2.5136v-0.93248zm-3.588-9.7504c0.98654 0 1.8312 0.34798 2.5339 1.044 0.68425 0.67766 1.0354 1.4866 1.0534 2.427l7.28e-4 0.07653v2.9393h-2.5947v0.64868h2.5947v0.64868h-2.5947v0.64868h2.5947v0.68922h-7.1355v-0.68922h2.5947v-0.64868h-2.5947v-0.64868h2.5947v-0.64868h-2.5947v-2.9393c0-0.97302 0.34461-1.8075 1.0338-2.5035 0.68922-0.69598 1.5271-1.044 2.5136-1.044zm3.1015 5.6759h-0.32434v0.32434h0.32434zm-0.64868 0h-0.32434v0.32434h0.32434zm-0.64868 0h-0.32434v0.32434h0.32434zm-0.64868 0h-0.32434v0.32434h0.32434zm-0.64868 0h-0.32434v0.32434h0.32434zm-0.64868 0h-0.32434v0.32434h0.32434zm-0.64868 0h-0.32434v0.32434h0.32434zm-0.64868 0h-0.32434v0.32434h0.32434zm-0.64868 0h-0.32434v0.32434h0.32434zm-0.64868 0h-0.32434v0.32434h0.32434zm5.8381-0.64868h-0.32434v0.32434h0.32434zm-0.64868 0h-0.32434v0.32434h0.32434zm-0.64868 0h-0.32434v0.32434h0.32434zm-0.64868 0h-0.32434v0.32434h0.32434zm-0.64868 0h-0.32434v0.32434h0.32434zm-0.64868 0h-0.32434v0.32434h0.32434zm-0.64868 0h-0.32434v0.32434h0.32434zm-0.64868 0h-0.32434v0.32434h0.32434zm-0.64868 0h-0.32434v0.32434h0.32434zm-0.64868 0h-0.32434v0.32434h0.32434zm5.8381-0.64868h-0.32434v0.32434h0.32434zm-0.64868 0h-0.32434v0.32434h0.32434zm-0.64868 0h-0.32434v0.32434h0.32434zm-0.64868 0h-0.32434v0.32434h0.32434zm-0.64868 0h-0.32434v0.32434h0.32434zm-0.64868 0h-0.32434v0.32434h0.32434zm-0.64868 0h-0.32434v0.32434h0.32434zm-0.64868 0h-0.32434v0.32434h0.32434zm-0.64868 0h-0.32434v0.32434h0.32434zm-0.64868 0h-0.32434v0.32434h0.32434zm5.8381-0.64868h-0.32434v0.32434h0.32434zm-0.64868 0h-0.32434v0.32434h0.32434zm-0.64868 0h-0.32434v0.32434h0.32434zm-0.64868 0h-0.32434v0.32434h0.32434zm-0.64868 0h-0.32434v0.32434h0.32434zm-0.64868 0h-0.32434v0.32434h0.32434zm-0.64868 0h-0.32434v0.32434h0.32434zm-0.64868 0h-0.32434v0.32434h0.32434zm-0.64868 0h-0.32434v0.32434h0.32434zm-0.64868 0h-0.32434v0.32434h0.32434zm5.8381-0.64868h-0.32434v0.32434h0.32434zm-0.64868 0h-0.32434v0.32434h0.32434zm-0.64868 0h-0.32434v0.32434h0.32434zm-0.64868 0h-0.32434v0.32434h0.32434zm-0.64868 0h-0.32434v0.32434h0.32434zm-0.64868 0h-0.32434v0.32434h0.32434zm-0.64868 0h-0.32434v0.32434h0.32434zm-0.64868 0h-0.32434v0.32434h0.32434zm-0.64868 0h-0.32434v0.32434h0.32434zm-0.64868 0h-0.32434v0.32434h0.32434zm5.8381-0.64868h-0.32434v0.32434h0.32434zm-0.64868 0h-0.32434v0.32434h0.32434zm-0.64868 0h-0.32434v0.32434h0.32434zm-0.64868 0h-0.32434v0.32434h0.32434zm-0.64868 0h-0.32434v0.32434h0.32434zm-0.64868 0h-0.32434v0.32434h0.32434zm-0.64868 0h-0.32434v0.32434h0.32434zm-0.64868 0h-0.32434v0.32434h0.32434zm-0.64868 0h-0.32434v0.32434h0.32434zm-0.64868 0h-0.32434v0.32434h0.32434zm5.5138-0.64868h-0.32434v0.32434h0.32434zm-0.64868 0h-0.32434v0.32434h0.32434zm-0.64868 0h-0.32434v0.32434h0.32434zm-0.64868 0h-0.32434v0.32434h0.32434zm-0.64868 0h-0.32434v0.32434h0.32434zm-0.64868 0h-0.32434v0.32434h0.32434zm-0.64868 0h-0.32434v0.32434h0.32434zm-0.64868 0h-0.32434v0.32434h0.32434zm-0.64868 0h-0.32434v0.32434h0.32434zm4.8651-0.64868h-0.32434v0.32434h0.32434zm-0.64868 0h-0.32434v0.32434h0.32434zm-0.64868 0h-0.32434v0.32434h0.32434zm-0.64868 0h-0.32434v0.32434h0.32434zm-0.64868 0h-0.32434v0.32434h0.32434zm-0.64868 0h-0.32434v0.32434h0.32434zm-0.64868 0h-0.32434v0.32434h0.32434zm-0.64868 0h-0.32434v0.32434h0.32434zm3.8921-0.64868h-0.32434v0.32434h0.32434zm-0.64868 0h-0.32434v0.32434h0.32434zm-0.64868 0h-0.32434v0.32434h0.32434zm-0.64868 0h-0.32434v0.32434h0.32434zm-0.64868 0h-0.32434v0.32434h0.32434zm-0.64868 0h-0.32434v0.32434h0.32434z" fill="#f5e8cc"/>
	</g>
	<g>
		<path d="m64 40-24 24h24z" color="#000000" fill="url(#a-2)" stop-color="#000000" style="-inkscape-stroke:none;font-variation-settings:normal"/>
		<path d="m40 64 24-24h-24z" fill="url(#linearGradient29917)" stop-color="#000000" style="-inkscape-stroke:none;font-variation-settings:normal"/>
		<path d="m2 0-2 1h64l-2-1z" fill="#eee0c1"/>
	</g>
	<g>
		<path d="m9 1.8125v62.188h1v-62c-0.35553 0-0.68353-0.07398-1-0.1875z" color="#000000" fill="#cb0000" fill-opacity=".2182"/>
		<path d="m59.938 40.189c-0.31363 0.1196-0.64042 0.22813-1 0.3125v4.6507l1-1.1934v-3.7699zm-6 0.02648c-0.31144 0.0042-0.66336 0.0041-1 0.0059v10.838l1-1.1934zm-7 0.01367v16.92l1-1.1914v-15.729h-1z" color="#000000" fill="#2d7dd3" fill-opacity=".22239"/>
	</g>
</svg>
