<?xml version="1.0" encoding="UTF-8"?>
<!-- Created with Inkscape (http://www.inkscape.org/) -->
<svg width="64" height="64" version="1.1" xmlns="http://www.w3.org/2000/svg" xmlns:cc="http://creativecommons.org/ns#" xmlns:dc="http://purl.org/dc/elements/1.1/" xmlns:rdf="http://www.w3.org/1999/02/22-rdf-syntax-ns#">
	<defs>
		<radialGradient id="a" cx="36" cy="39.194" r="32" gradientTransform="matrix(1 0 0 .96875 0 1.0312)" gradientUnits="userSpaceOnUse">
			<stop stop-color="#ec751a" offset="0"/>
			<stop stop-color="#e48a0f" offset="1"/>
		</radialGradient>
	</defs>
	<metadata>
		<rdf:RDF>
			<cc:Work rdf:about="">
				<dc:format>image/svg+xml</dc:format>
				<dc:type rdf:resource="http://purl.org/dc/dcmitype/StillImage"/>
				<dc:title/>
			</cc:Work>
		</rdf:RDF>
	</metadata>
	<path d="m1.6362e-8 1-1.6362e-8 30v6l25 25h37l2-2v-35l-25-25h-37z" color="#000000" fill="#ed9d0a" fill-opacity=".99427"/>
	<path d="m1 38v23l2 2h23z" color="#000000" fill="#b06c0e"/>
	<path d="m0 2v37l25 25h37l2-2v-35l-25-25h-7z" color="#000000" fill="url(#a)"/>
	<path d="m2 0-2 1v1h39v-2z" color="#000000" fill="#ffc400"/>
	<path d="m0 1v3l2-2z" fill="#ffd64d"/>
	<path d="m40 2 23 23v-21l-2-3z" fill="#b06c0e" style="paint-order:normal"/>
	<path d="m40 1h21v1h-21z" fill="#ffa222" style="paint-order:normal"/>
	<path d="m61 1 2 2v1l-2-2z" fill="#c67b14" style="paint-order:normal"/>
	<path d="m44.342 47.4c0.43032 0.67862 0.80273 1.1917 1.1172 1.5393 0.31445 0.33104 0.64549 0.57104 0.9931 0.72 0.34756 0.14897 0.7779 0.24 1.291 0.2731v1.0676c-2.3173-0.13241-3.7738-0.19862-4.3697-0.19862-1.1421 0-3.5338 0.06621-7.1752 0.19862v-1.0676c1.3241 1e-6 2.2593-0.05793 2.8055-0.17379 0.54618-0.11586 0.81929-0.33103 0.81931-0.64552-2.4e-5 -0.24827-0.12416-0.55448-0.37241-0.91862l-8.6897-13.308-5.4869 8.1931c-1.291 1.92-1.9366 3.4097-1.9366 4.469-8e-6 0.86069 0.38068 1.4731 1.1421 1.8372 0.77792 0.36414 1.9034 0.56276 3.3766 0.59586v1.0179c-1.92-0.09931-4.2041-0.14897-6.8524-0.14897-1.8703 0-3.3103 0.04966-4.32 0.14897v-1.0179c1.0097-0.14896 1.9697-0.60414 2.88-1.3655 0.92689-0.76138 1.8786-1.8621 2.8552-3.3021l7.6717-11.446-9.9559-15.269c-0.43035-0.67859-0.80276-1.1834-1.1172-1.5145-0.31448-0.34755-0.64552-0.59583-0.9931-0.74483-0.34759-0.14893-0.77793-0.23996-1.291-0.2731v-1.0676c2.3172 0.13245 3.7738 0.19866 4.3697 0.19862 2.2676 3.6e-5 4.6593-0.06617 7.1752-0.19862v1.0676c-2.2676 3.5e-5 -3.4014 0.37245-3.4014 1.1172-9e-6 0.26486 0.14896 0.63728 0.4469 1.1172l7.92 12.116 4.9903-7.4731c1.4731-2.2013 2.2096-3.8317 2.2097-4.891-2.5e-5 -0.71169-0.33106-1.2165-0.9931-1.5145-0.64554-0.31445-1.6304-0.48824-2.9545-0.52138v-1.0179c1.9365 0.09935 3.8896 0.149 5.8593 0.14896 1.8538 3.6e-5 3.2938-0.04962 4.32-0.14896v1.0179c-1.0262 0.149-2.0028 0.61245-2.9297 1.3903-0.91037 0.76141-1.8455 1.8538-2.8055 3.2772l-7.1255 10.626 10.527 16.088" color="#000000" fill="#fffde8"/>
	<path d="m44.342 48.4c0.43032 0.67862 0.80273 1.1917 1.1172 1.5393 0.31445 0.33104 0.64549 0.57104 0.9931 0.72 0.34756 0.14897 0.7779 0.24 1.291 0.2731v1.0676c-2.3173-0.13241-3.7738-0.19862-4.3697-0.19862-1.1421 0-3.5338 0.06621-7.1752 0.19862v-1.0676c1.3241 1e-6 2.2593-0.05793 2.8055-0.17379 0.54618-0.11586 0.81929-0.33103 0.81931-0.64552-2.4e-5 -0.24827-0.12416-0.55448-0.37241-0.91862l-8.6897-13.308-5.4869 8.1931c-1.291 1.92-1.9366 3.4097-1.9366 4.469-8e-6 0.86069 0.38068 1.4731 1.1421 1.8372 0.77792 0.36414 1.9034 0.56276 3.3766 0.59586v1.0179c-1.92-0.09931-4.2041-0.14897-6.8524-0.14897-1.8703 0-3.3103 0.04966-4.32 0.14897v-1.0179c1.0097-0.14896 1.9697-0.60414 2.88-1.3655 0.92689-0.76138 1.8786-1.8621 2.8552-3.3021l7.6717-11.446-9.9559-15.269c-0.43035-0.67859-0.80276-1.1834-1.1172-1.5145-0.31448-0.34755-0.64552-0.59583-0.9931-0.74483-0.34759-0.14893-0.77793-0.23996-1.291-0.2731v-1.0676c2.3172 0.13245 3.7738 0.19866 4.3697 0.19862 2.2676 3.6e-5 4.6593-0.06617 7.1752-0.19862v1.0676c-2.2676 3.5e-5 -3.4014 0.37245-3.4014 1.1172-9e-6 0.26486 0.14896 0.63728 0.4469 1.1172l7.92 12.116 4.9903-7.4731c1.4731-2.2013 2.2096-3.8317 2.2097-4.891-2.5e-5 -0.71169-0.33106-1.2165-0.9931-1.5145-0.64554-0.31445-1.6304-0.48824-2.9545-0.52138v-1.0179c1.9365 0.09935 3.8896 0.149 5.8593 0.14896 1.8538 3.6e-5 3.2938-0.04962 4.32-0.14896v1.0179c-1.0262 0.149-2.0028 0.61245-2.9297 1.3903-0.91037 0.76141-1.8455 1.8538-2.8055 3.2772l-7.1255 10.626 10.527 16.088" color="#000000" fill="#e8e4ba"/>
</svg>
