<?xml version="1.0" encoding="UTF-8"?>
<svg width="64" height="64" version="1.1" xmlns="http://www.w3.org/2000/svg" xmlns:xlink="http://www.w3.org/1999/xlink">
	<defs>
		<radialGradient id="v" cx="27.323" cy="42.771" r="18" gradientTransform="matrix(1.7438 -.46724 .20939 .78146 -30.876 23.42)" gradientUnits="userSpaceOnUse">
			<stop stop-color="#9ddcff" stop-opacity=".884" offset="0"/>
			<stop stop-color="#e1bfff" stop-opacity=".836" offset=".558"/>
			<stop stop-color="#eaf7ff" offset="1"/>
		</radialGradient>
		<radialGradient id="b-3" cx="32.752" cy="45.446" r="32" gradientTransform="matrix(.9052 0 0 1.0571 3.276 -1.7719)" gradientUnits="userSpaceOnUse">
			<stop stop-color="#374dbd" offset="0"/>
			<stop stop-color="#325cd0" offset="1"/>
		</radialGradient>
		<radialGradient id="e-5-6" cx="35.574" cy="1.019" r="32" gradientTransform="matrix(0,1.1252,-5.1753,0,37.271,-39.029)" gradientUnits="userSpaceOnUse" xlink:href="#a-3-2"/>
		<linearGradient id="a-3-2">
			<stop stop-color="#8dd4fc" stop-opacity=".07" offset="0"/>
			<stop stop-color="#6bf0ff" stop-opacity=".03" offset="1"/>
		</linearGradient>
		<radialGradient id="f-6-9" cx="35.574" cy="1.036" r="32" gradientTransform="matrix(0,1.1252,-5.1753,0,37.363,-39.029)" gradientUnits="userSpaceOnUse" xlink:href="#a-3-2"/>
		<radialGradient id="g-2-1" cx="35.574" cy="1.055" r="32" gradientTransform="matrix(0,1.1252,-5.1753,0,37.458,-39.029)" gradientUnits="userSpaceOnUse" xlink:href="#a-3-2"/>
		<radialGradient id="h-2" cx="35.574" cy="1.071" r="32" gradientTransform="matrix(0,1.1252,-5.1753,0,37.544,-39.029)" gradientUnits="userSpaceOnUse" xlink:href="#a-3-2"/>
		<radialGradient id="i-7" cx="35.574" cy="1.091" r="32" gradientTransform="matrix(0,1.1252,-5.1753,0,37.648,-39.029)" gradientUnits="userSpaceOnUse" xlink:href="#a-3-2"/>
		<radialGradient id="j-0" cx="35.574" cy="1.113" r="32" gradientTransform="matrix(0,1.1252,-5.1753,0,37.758,-39.029)" gradientUnits="userSpaceOnUse" xlink:href="#a-3-2"/>
		<radialGradient id="k-9" cx="35.574" cy="1.135" r="32" gradientTransform="matrix(0,1.1252,-5.1753,0,37.875,-39.029)" gradientUnits="userSpaceOnUse" xlink:href="#a-3-2"/>
		<radialGradient id="l-3" cx="35.574" cy="1.159" r="32" gradientTransform="matrix(0,1.1252,-5.1753,0,38,-39.029)" gradientUnits="userSpaceOnUse" xlink:href="#a-3-2"/>
		<radialGradient id="m-6" cx="35.574" cy="1.18" r="32" gradientTransform="matrix(0,1.1252,-5.1753,0,38.107,-39.029)" gradientUnits="userSpaceOnUse" xlink:href="#a-3-2"/>
		<radialGradient id="n-0" cx="35.574" cy="1.208" r="32" gradientTransform="matrix(0,1.1252,-5.1753,0,38.252,-39.029)" gradientUnits="userSpaceOnUse" xlink:href="#a-3-2"/>
		<radialGradient id="o-6" cx="35.574" cy="1.239" r="32" gradientTransform="matrix(0,1.1252,-5.1753,0,38.411,-39.029)" gradientUnits="userSpaceOnUse" xlink:href="#a-3-2"/>
		<radialGradient id="p-2" cx="35.574" cy="1.273" r="32" gradientTransform="matrix(0,1.1252,-5.1753,0,38.587,-39.029)" gradientUnits="userSpaceOnUse" xlink:href="#a-3-2"/>
		<radialGradient id="q-6" cx="35.574" cy="1.304" r="32" gradientTransform="matrix(0,1.1252,-5.1753,0,38.75,-39.029)" gradientUnits="userSpaceOnUse" xlink:href="#a-3-2"/>
		<radialGradient id="r-1" cx="35.574" cy="1.346" r="32" gradientTransform="matrix(0,1.1252,-5.1753,0,38.966,-39.029)" gradientUnits="userSpaceOnUse" xlink:href="#a-3-2"/>
		<radialGradient id="s-8" cx="35.574" cy="1.393" r="32" gradientTransform="matrix(0,1.1252,-5.1753,0,39.208,-39.029)" gradientUnits="userSpaceOnUse" xlink:href="#a-3-2"/>
		<radialGradient id="t-7" cx="35.574" cy="1.439" r="32" gradientTransform="matrix(0,1.1252,-5.1753,0,39.446,-39.027)" gradientUnits="userSpaceOnUse" xlink:href="#a-3-2"/>
		<radialGradient id="u-9" cx="16.612" cy="1.4814" r="32" gradientTransform="matrix(0 .013135 -1.2755 0 33.91 1.2789)" gradientUnits="userSpaceOnUse">
			<stop stop-color="#9eeaff" stop-opacity=".7491" offset="0"/>
			<stop stop-color="#d0fffa" stop-opacity=".0039216" offset="1"/>
		</radialGradient>
	</defs>
	<g>
		<path d="m1 0c-0.554 0-1 0.446-1 1v62c0 0.554 0.446 1 1 1h62c0.554 0 1-0.446 1-1v-62c0-0.554-0.446-1-1-1z" fill="url(#b-3)" style="-inkscape-stroke:none;font-variation-settings:normal"/>
		<g transform="translate(8.0016e-5 .057009)">
			<path transform="translate(0 .002)" d="m1 0c-0.554 0-1 0.446-1 1v62-0.224 0.224-62h1.752c19.15 2e-3 39.445 0 60.213 0h2.035v62-0.334 0.334-62c0.0011-0.55274-0.44726-1.0011-1-1z" fill="url(#e-5-6)"/>
			<path transform="translate(0 .002)" d="m1 0c-0.5551-0.0011303-1.0045 0.45091-1 1.006v61.98-0.197c0-0.277 4e-3 -0.184 0.01 0.246 0.012 0.016 0.03-0.297 0.052-0.897v-61c0.072-9e-3 0.133-0.013 0.185-0.013 0.29-0.016 0.357-0.032 0.774-0.044 0.246-0.011 0.496-0.019 0.747-0.019 19.183 2e-3 39.392 0 60.2 0 0.346 0 0.689 0.012 1.023 0.03 0.268 0.01 0.389 0.02 0.52 0.033 0.106 0 0.22 0.01 0.427 0.028v60.744c0.027 0.754 0.05 1.148 0.059 1.123l3e-3 -0.334v0.286-61.762c0-0.143 0-0.22-2e-3 -0.224-0.005475-0.55246-0.45958-0.9949-1.012-0.986h-61.986" fill="url(#f-6-9)"/>
			<path transform="translate(0 .002)" d="m1 0c-0.5551-0.0011303-1.0045 0.45091-1 1.006v61.966-0.169c0-0.245 8e-3 -0.145 0.021 0.266 0.022 0.034 0.06-0.247 0.104-0.807v-60.988c0.056484-0.015102 0.11455-0.023493 0.173-0.025 0.27-0.031 0.341-0.064 0.743-0.088 0.242-0.022 0.492-0.037 0.742-0.037 19.217 2e-3 39.34 0 60.187 0 0.347 0 0.69 0.024 1.013 0.06 0.256 0.02 0.372 0.042 0.494 0.065 0.1 0 0.206 0.02 0.398 0.057v60.731c0.055 0.703 0.102 1.052 0.119 1.003 4e-3 -0.154 6e-3 -0.265 6e-3 -0.333v0.237-61.748c0-0.139 0-0.215-3e-3 -0.224-0.011441-0.46771-0.34748-0.86412-0.807-0.952-0.071417-0.014359-0.14416-0.021063-0.217-0.02h-61.973" fill="url(#g-2-1)"/>
			<path transform="translate(0 .002)" d="m1 0c-0.55471-0.0011253-1.0039 0.45031-1 1.005v61.953-0.14c0-0.213 0.012-0.107 0.031 0.287 0.034 0.05 0.091-0.198 0.156-0.718v-60.974c0.050612-0.022043 0.10485-0.034585 0.16-0.037 0.252-0.048 0.327-0.097 0.715-0.132 0.238-0.034 0.487-0.056 0.737-0.056 19.25 2e-3 39.286 0 60.173 0 0.348 0 0.688 0.036 1.001 0.09 0.244 0.029 0.356 0.062 0.47 0.098 0.091 0 0.19 0.03 0.37 0.085v60.718c0.082 0.653 0.151 0.957 0.176 0.884 7e-3 -0.152 0.01-0.262 0.01-0.333v0.188-61.734c0-0.135 0-0.21-4e-3 -0.224-0.017399-0.46717-0.35861-0.85879-0.819-0.94-0.071505-0.013569-0.14424-0.019602-0.217-0.018h-61.96" fill="url(#h-2)"/>
			<path transform="translate(0 .002)" d="m1 0c-0.55471-0.0011253-1.0039 0.45031-1 1.005v61.939-0.113c0-0.18 0.015-0.068 0.042 0.308 0.045 0.067 0.121-0.149 0.208-0.629v-60.96c0.044295-0.028947 0.095225-0.046153 0.148-0.05 0.232-0.063 0.311-0.128 0.684-0.176 0.234-0.044 0.483-0.074 0.732-0.074 19.284 2e-3 39.234 0 60.16 0 0.35 0 0.689 0.048 0.991 0.12 0.232 0.039 0.34 0.083 0.444 0.13 0.085 0 0.176 0.04 0.341 0.114v60.704c0.11 0.603 0.203 0.862 0.236 0.764 0.0082-0.11082 0.01287-0.22188 0.014-0.333v0.14-61.721c0-0.13-2e-3 -0.206-6e-3 -0.224-0.024028-0.46583-0.36965-0.85184-0.83-0.927-0.072548-0.013262-0.14628-0.018959-0.22-0.017h-61.944" fill="url(#i-7)"/>
			<path transform="translate(0 .002)" d="m1 0c-0.55431-0.0011209-1.0033 0.4497-1 1.004v61.926-0.084c0-0.148 0.02-0.029 0.052 0.328 0.056 0.084 0.152-0.099 0.26-0.539v-60.949c0.053-0.04 0.097-0.061 0.136-0.061 0.212-0.08 0.297-0.16 0.655-0.22 0.23-0.056 0.477-0.093 0.727-0.093 19.317 2e-3 39.18 0 60.147 0 0.35 0 0.688 0.06 0.98 0.151 0.22 0.047 0.322 0.102 0.418 0.162 0.078 0 0.162 0.049 0.313 0.142v60.69c0.137 0.553 0.253 0.767 0.295 0.645 0.0096-0.11043 0.01523-0.22117 0.017-0.332v0.09-61.705c0-0.126-2e-3 -0.202-7e-3 -0.224-0.03077-0.46514-0.38186-0.8458-0.843-0.914-0.071921-0.0129-0.14495-0.018594-0.218-0.017h-61.932" fill="url(#j-0)"/>
			<path transform="translate(0 .002)" d="m1 0c-0.55431-0.0011209-1.0033 0.4497-1 1.004v61.912-0.056c0-0.117 0.023 0.01 0.063 0.349 0.067 0.1 0.182-0.05 0.312-0.45v-60.935c0.048-0.049 0.088-0.074 0.123-0.074 0.193-0.095 0.282-0.192 0.626-0.264 0.225-0.067 0.472-0.11 0.721-0.11h60.133c0.352 0 0.688 0.071 0.97 0.18 0.1444 0.03294 0.27903 0.099398 0.393 0.194 0.07 0 0.147 0.059 0.284 0.17v60.68c0.164 0.502 0.304 0.671 0.354 0.524 0.014-0.14 0.02-0.25 0.02-0.331v0.042-61.695c0-0.121-2e-3 -0.197-9e-3 -0.224-0.037172-0.46407-0.39266-0.83953-0.854-0.902-0.072052-0.011622-0.14505-0.01631-0.218-0.014h-61.918" fill="url(#k-9)"/>
			<path transform="translate(0 .002)" d="m1 0c-0.55431-0.0011209-1.0033 0.4497-1 1.004v61.898-0.029c0-0.084 0.027 0.049 0.073 0.37 0.079 0.117 0.212 0 0.365-0.36v-60.923c0.043-0.057 0.079-0.086 0.11-0.086 0.174-0.112 0.267-0.225 0.596-0.309 0.23012-0.082729 0.47247-0.12633 0.717-0.129 19.385 2e-3 39.075 0 60.12 0 0.353 0 0.687 0.084 0.958 0.211 0.14097 0.040924 0.26817 0.11939 0.368 0.227 0.063 0 0.132 0.068 0.256 0.199v60.665c0.192 0.452 0.354 0.576 0.413 0.404 0.01385-0.1095 0.02186-0.21965 0.024-0.33v-61.687c0-0.117-4e-3 -0.193-0.01-0.224-0.043775-0.464-0.40524-0.83463-0.868-0.89-0.071851-0.010232-0.14448-0.013914-0.217-0.011h-61.905" fill="url(#l-3)"/>
			<path transform="translate(0 .002)" d="m1 0c-0.55392-0.001117-1.0028 0.44909-1 1.003v61.885c0-0.052 0.03 0.087 0.084 0.39 0.09 0.135 0.242 0.05 0.416-0.27v-60.911c0.038-0.063 0.07-0.097 0.099-0.097 0.154-0.127 0.251-0.257 0.566-0.352 0.217-0.089 0.463-0.148 0.711-0.148 19.418 2e-3 39.022 0 60.107 0 0.355 0 0.687 0.096 0.947 0.242 0.13781 0.049299 0.25742 0.13926 0.343 0.258 0.056 0 0.118 0.079 0.227 0.227v60.651c0.22 0.402 0.406 0.482 0.473 0.285 0.018-0.132 0.027-0.243 0.027-0.33v-61.721c0-0.113-4e-3 -0.188-0.012-0.224-0.050481-0.46258-0.4163-0.82757-0.879-0.877-0.072218-0.0099014-0.14515-0.013582-0.218-0.011h-61.89" fill="url(#m-6)"/>
			<path transform="translate(0 .002)" d="m1 0c-0.55392-0.001117-1.0028 0.44909-1 1.003v61.899c0-0.02 0.035 0.126 0.094 0.41 0.101 0.152 0.273 0.1 0.468-0.18v-60.897c0.034-0.073 0.062-0.11 0.087-0.11 0.135-0.143 0.236-0.29 0.536-0.397 0.213-0.1 0.459-0.166 0.707-0.166 19.452 2e-3 38.969 0 60.093 0 0.356 0 0.687 0.108 0.936 0.272 0.13431 0.059746 0.24556 0.16152 0.317 0.29 0.05 0 0.103 0.089 0.2 0.256v60.64c0.246 0.352 0.455 0.386 0.531 0.165 0.02-0.128 0.03-0.239 0.03-0.33v-61.755c0-0.108-4e-3 -0.184-0.013-0.224-0.0572-0.46153-0.42793-0.82103-0.891-0.864-0.07229-0.0090995-0.14518-0.012443-0.218-0.01h-61.877" fill="url(#n-0)"/>
			<path transform="translate(0 .002)" d="m1 0c-0.55353-0.0011137-1.0022 0.44848-1 1.002v61.913c0 0.013 0.039 0.165 0.105 0.432 0.112 0.168 0.303 0.148 0.52-0.092v-60.882c0.029-0.081 0.053-0.123 0.074-0.123 0.116-0.159 0.222-0.321 0.507-0.44 0.21532-0.11731 0.45583-0.18078 0.701-0.185 19.486 2e-3 38.916 0 60.08 0 0.357 0 0.687 0.12 0.925 0.302 0.13107 0.071535 0.23401 0.1854 0.292 0.323 0.043 0 0.089 0.098 0.171 0.284v60.626c0.275 0.302 0.507 0.29 0.591 0.046 0.022-0.125 0.034-0.236 0.034-0.33v-61.791c0-0.104-5e-3 -0.18-0.016-0.224-0.063414-0.4609-0.4392-0.81546-0.903-0.852-0.07238-0.0079052-0.14524-0.010579-0.218-8e-3h-61.863" fill="url(#o-6)"/>
			<path transform="translate(0 .002)" d="m1 0c-0.55353-0.0011137-1.0022 0.44848-1 1.002v61.928c0 0.045 0.042 0.203 0.115 0.453 0.123 0.184 0.333 0.197 0.572-3e-3v-60.87c0.024-0.089 0.045-0.135 0.062-0.135 0.097-0.174 0.207-0.353 0.478-0.484 0.204-0.122 0.448-0.203 0.696-0.203 19.519 2e-3 38.863 0 60.067 0 0.33455-0.0021 0.65879 0.11568 0.914 0.332 0.15 0.103 0.224 0.225 0.267 0.355 0.035 0 0.073 0.108 0.142 0.313v60.612c0.302 0.251 0.557 0.196 0.65-0.074 0.02307-0.10853 0.03547-0.21906 0.037-0.33v-61.825c0-0.1-6e-3 -0.175-0.017-0.224-0.069565-0.46031-0.45044-0.80996-0.915-0.84-0.072444-0.0069646-0.14526-0.0093027-0.218-7e-3h-61.85" fill="url(#p-2)"/>
			<path transform="translate(0 .002)" d="m1 0c-0.55353-0.0011137-1.0022 0.44848-1 1.002v61.942c0 0.077 0.046 0.242 0.126 0.473 0.134 0.201 0.363 0.246 0.624 0.086v-60.856c0.02-0.097 0.035-0.147 0.05-0.147 0.079731-0.22481 0.23864-0.41288 0.447-0.529 0.2-0.133 0.444-0.221 0.691-0.221 19.553 2e-3 38.811 0 60.053 0 0.36 0 0.686 0.144 0.903 0.362 0.12254 0.097958 0.20793 0.23486 0.242 0.388 0.028 0 0.059 0.118 0.114 0.341v60.598c0.33 0.2 0.608 0.1 0.709-0.194 0.026-0.117 0.04-0.228 0.04-0.329v-61.86c0-0.095-6e-3 -0.17-0.018-0.224-0.076427-0.45917-0.46212-0.80326-0.927-0.827-0.072523-0.0056002-0.1453-0.0072693-0.218-5e-3h-61.836" fill="url(#q-6)"/>
			<path transform="translate(0 .002)" d="m1 0c-0.55314-0.001111-1.0017 0.44787-1 1.001v61.956c0 0.11 0.05 0.281 0.136 0.494 0.146 0.218 0.394 0.296 0.677 0.176v-60.843c0.014-0.105 0.026-0.16 0.036-0.16 0.062205-0.23684 0.21195-0.44126 0.419-0.572 0.196-0.144 0.439-0.24 0.686-0.24 19.586 2e-3 38.758 0 60.04 0 0.36 0 0.685 0.156 0.892 0.392 0.11655 0.1122 0.19253 0.25993 0.216 0.42 0.021 0 0.044 0.128 0.086 0.37v60.585c0.356 0.15 0.658 5e-3 0.768-0.314 0.029-0.114 0.044-0.224 0.044-0.328v-61.895c0-0.09-7e-3 -0.166-0.02-0.224-0.083295-0.45841-0.47439-0.79708-0.94-0.814-0.072228-0.0047776-0.14463-0.0064458-0.217-5e-3h-61.823" fill="url(#r-1)"/>
			<path transform="translate(0 .002)" d="m1 0c-0.55274-0.0011088-1.0011 0.44726-1 1v61.972c0 0.142 0.054 0.32 0.147 0.515 0.15624 0.24102 0.45338 0.34918 0.728 0.265v-60.83c0.01-0.114 0.018-0.172 0.025-0.172 0.044459-0.24844 0.184-0.46977 0.389-0.617 0.192-0.155 0.434-0.258 0.68-0.258 19.62 2e-3 38.705 0 60.027 0 0.362 0 0.686 0.168 0.882 0.422 0.10963 0.12712 0.17614 0.28571 0.19 0.453 0.015 0 0.03 0.137 0.057 0.398v60.572c0.385 0.1 0.71-0.09 0.828-0.434 0.03-0.11 0.047-0.22 0.047-0.328v-61.93c0-0.086-7e-3 -0.161-0.021-0.224-0.089858-0.45718-0.48521-0.79059-0.951-0.802-0.072962-0.0029106-0.146-0.0035776-0.219-2e-3h-61.809" fill="url(#s-8)"/>
			<path d="m0.99984 2e-3c-0.55274-0.0011088-1.0011 0.44726-1 1v61.986c0 0.174 0.058 0.358 0.157 0.535 0.16968 0.25897 0.47327 0.39714 0.78 0.355v-60.816c5e-3 -0.122 0.01-0.185 0.013-0.185 0.028233-0.25888 0.15763-0.49611 0.36-0.66 0.187-0.166 0.429-0.277 0.675-0.277 19.653 2e-3 38.652 0 60.013 0 0.363 0 0.685 0.18 0.87 0.452 0.10246 0.1415 0.16026 0.3104 0.166 0.485 7e-3 0 0.015 0.147 0.028 0.427v60.558c0.412 0.05 0.76-0.186 0.887-0.553 0.03316-0.10618 0.05001-0.21677 0.05-0.328v-61.965c0.01002-0.55281-0.43213-1.008-0.985-1.014-0.07299-0.0011985-0.146-0.0011985-0.219 0h-61.795" fill="url(#t-7)"/>
			<path d="m1 0.0019531c-0.55274-0.0011088-1.0011 0.44726-1 1v1h64v-0.998c0.0011-0.55274-0.44726-1.0011-1-1h-62z" fill="url(#u-9)"/>
		</g>
		<path d="m0 1v2.5l2-2z" fill="#8fe8ff" fill-opacity=".69006"/>
		<path d="m64 3.5-2-2 2-0.5z" fill="#8fe8ff" fill-opacity=".69006"/>
	</g>
	<g fill-opacity=".888">
		<path d="M43.449 13.941c-.1.058-.112.1-.085.056-.98 1.653-1 3.838-1.438 5.784a.72.72 0 0 1 0 .028c-.007.028.006.056 0 .085-.213 2.089-.919 4.225-.424 6.234a.72.72 0 0 1 .057.142c.004.014-.004.041 0 .056.006.011-.007.017 0 .028.008.013.048-.012.056 0 .106.145.23.266.31.282.059.012.165 0 .367-.14.219-.153.331-.446.395-.847a.72.72 0 0 1 .085-.141.72.72 0 0 1 0-.057.72.72 0 0 1 .056-.14.72.72 0 0 1 .029-.029c.864-3.448 1.471-7.066 1.24-10.608a.915.915 0 0 0-.225-.508 1.418 1.418 0 0 0-.226-.225c-.027-.02-.012-.006-.112 0a.72.72 0 0 1-.029 0c-.037.004-.034-.001-.056 0zm7.956 1.693c-1.497.727-2.27 2.474-3.301 3.893a.674.674 0 0 1-.028.141.674.674 0 0 1-.057.085c-1.308 2.318-2.977 4.627-3.16 7.307v.056c.02.404.263.624.508.677.241.052.674-.091.847-.367a.674.674 0 0 1 .056-.056.674.674 0 0 1 0-.028.674.674 0 0 1 0-.057c2.378-3.267 4.166-7.125 5.643-10.89a.674.674 0 0 1 0-.028c.102-.247.119-.322.028-.508-.027-.055-.307-.244-.452-.226-.023.011-.061-.01-.084 0zm-22.936 1.044a1.843 1.843 0 0 0-.367.028c-.242.045-.59.267-.846.366-.908.345-1.42 1.123-1.637 2.032-.22.93-.147 1.96 0 3.018.147 1.057.363 2.159.593 2.99.197.72.355 1.06.423 1.299v.197c0 .079-.06.078-.113.141-.029.016.029.085 0 .085a.38.38 0 0 1-.226.084c-.16.01-.285-.042-.451-.084-.113-.026-.26-.111-.226-.085-.052-.031-.135-.058-.169-.113-.001-.009.008-.012 0-.028-.037-.068-.083-.246-.141-.367-.129-.273-.219-.585-.395-.987a36.603 36.603 0 0 0-1.326-2.708c-.506-.927-1.09-1.762-1.75-2.342-.329-.29-.736-.58-1.128-.677-.378-.095-.821-.026-1.213.17-1.01.56-1.583 1.467-1.805 2.425-.224.973-.135 2.099.028 3.075.165.975.427 1.795.592 2.455.071.278.174.538.198.677 0 .138-.079.487-.113.62-.17.592-.563 1.58-.564 1.58 0 0-7.877 20.932 9.028 19.467.139-.01.432-.113.564-.113a52.775 52.775 0 0 0 9.253-2.793c.549-.263 1.28-.524 2.088-.903 1.616-.757 3.635-1.722 5.586-2.793 1.951-1.072 3.779-2.226 5.163-3.442 1.386-1.218 2.386-2.536 2.2-3.865-.294-2.143-1.717-3.735-3.61-4.965-1.902-1.235-4.267-2.087-6.63-2.709-2.364-.62-4.652-1.138-6.405-1.41-.876-.137-1.714-.16-2.229-.254-.152-.026-.228-.087-.31-.113-.044-.006-.042-.002-.084-.028-.053-.032-.138-.03-.17-.085-.029-.052 0-.137 0-.197v-1.383c-.029-1.08-.115-2.506-.338-3.836-.226-1.336-.563-2.636-1.298-3.499a2.56 2.56 0 0 0-1.806-.902 3.923 3.923 0 0 0-.366-.029z" fill="url(#v)"/>
		<path d="M43.617 13.932c-.012.002-.034.007-.084.01a.72.72 0 0 1-.027 0c-.037.004-.035-.001-.057 0a.427.427 0 0 0-.09.066c-.975 1.651-.996 3.832-1.433 5.774a.72.72 0 0 1 0 .006.72.72 0 0 1 0 .017.72.72 0 0 1 0 .004c-.007.028.006.058 0 .086-.213 2.089-.92 4.224-.424 6.234a.72.72 0 0 1 .056.141c.004.015-.004.042 0 .057.007.011-.007.016 0 .027.008.012.048-.012.057 0 .106.145.23.266.31.283.018.004.05-.004.077-.008-.495-2.01.21-4.145.424-6.234.006-.028-.007-.058 0-.086a.72.72 0 0 0 0-.004.72.72 0 0 0 0-.017.72.72 0 0 0 0-.006c.437-1.942.458-4.123 1.433-5.774a.428.428 0 0 1 .09-.066c.022-.001.02.004.057 0a.72.72 0 0 0 .027 0h.004a.95.95 0 0 0-.164-.276 1.38 1.38 0 0 0-.227-.224c-.014-.01-.017-.012-.029-.01zm7.787 1.701c-1.497.728-2.269 2.476-3.3 3.895a.674.674 0 0 1-.028.14.674.674 0 0 1-.057.084c-1.308 2.319-2.977 4.627-3.16 7.307v.057c.02.404.263.624.508.677.008.002.019-.001.027 0-.014-.056-.032-.11-.035-.177v-.057c.182-2.68 1.852-4.988 3.16-7.307a.674.674 0 0 0 .057-.084.674.674 0 0 0 .027-.14c1.032-1.419 1.804-3.167 3.301-3.895.022-.01.057.006.08 0a.41.41 0 0 0-.043-.273c-.027-.055-.306-.245-.451-.227-.023.01-.063-.011-.086 0zm-22.936 1.045a1.845 1.845 0 0 0-.367.027c-.242.045-.59.268-.846.368-.907.344-1.42 1.122-1.636 2.03-.221.93-.148 1.962 0 3.02.147 1.057.362 2.159.591 2.99.197.72.356 1.058.424 1.297v.198c0 .078-.06.08-.113.142-.029.016.029.084 0 .084a.376.376 0 0 1-.225.084c-.16.01-.285-.042-.45-.084h-.003c.04.104.078.223.106.274.007.016-.002.02 0 .029.034.055.117.082.17.113-.035-.026.113.058.226.084.166.042.29.094.451.084.082 0 .16-.034.225-.084.029 0-.03-.068 0-.084.052-.063.113-.064.113-.142v-.198c-.068-.239-.227-.577-.424-1.296-.229-.832-.444-1.934-.592-2.99-.147-1.06-.22-2.09 0-3.02.217-.91.73-1.687 1.637-2.031.257-.1.604-.323.846-.368.122-.022.245-.03.367-.027s.254.014.367.027c.54.038 1.006.228 1.39.52-.029-.038-.054-.079-.085-.115a2.56 2.56 0 0 0-1.805-.905 3.937 3.937 0 0 0-.367-.027zm-8.053 2.809a1.925 1.925 0 0 0-.918.209c-1.01.56-1.584 1.47-1.806 2.427-.223.973-.134 2.098.03 3.075.165.974.426 1.795.59 2.455.072.278.175.536.198.675 0 .138-.079.488-.113.622-.17.59-.564 1.58-.565 1.58 0 0-4.668 12.413.907 17.45-4.784-5.311-.407-16.95-.407-16.95.001 0 .394-.99.565-1.58.034-.134.113-.484.113-.622-.023-.139-.126-.397-.197-.675-.165-.66-.426-1.481-.592-2.455-.163-.977-.252-2.102-.03-3.075.223-.958.796-1.866 1.807-2.427.392-.195.835-.263 1.213-.168.388.096.788.38 1.116.666a5.633 5.633 0 0 0-.489-.49c-.33-.29-.735-.58-1.127-.676a1.443 1.443 0 0 0-.295-.041zm12.361 7.244v.096c0 .06-.028.144 0 .197.032.055.118.052.17.084.042.026.04.023.084.029.083.026.159.087.31.113.516.095 1.353.118 2.23.254 1.752.273 4.04.789 6.404 1.41 2.363.622 4.727 1.473 6.629 2.707.544.354 1.044.742 1.496 1.16a10.234 10.234 0 0 0-1.996-1.66c-1.902-1.234-4.266-2.085-6.63-2.707-2.362-.62-4.651-1.137-6.404-1.41-.876-.136-1.713-.16-2.228-.254-.027-.004-.042-.013-.065-.02z" fill="#fff"/>
	</g>
</svg>
