<?xml version="1.0" encoding="UTF-8"?>
<!-- Created with Inkscape (http://www.inkscape.org/) -->
<svg width="64" height="64" version="1.1" xmlns="http://www.w3.org/2000/svg" xmlns:cc="http://creativecommons.org/ns#" xmlns:dc="http://purl.org/dc/elements/1.1/" xmlns:rdf="http://www.w3.org/1999/02/22-rdf-syntax-ns#" xmlns:xlink="http://www.w3.org/1999/xlink">
	<defs>
		<radialGradient id="a" cx="38.779" cy="52.047" r="32" gradientTransform="matrix(1.4506 0 0 1.4018 -24.078 -22.986)" gradientUnits="userSpaceOnUse">
			<stop stop-color="#67dac6" offset="0"/>
			<stop stop-color="#33e4c4" stop-opacity=".015686" offset="1"/>
		</radialGradient>
	</defs>
	<metadata>
		<rdf:RDF>
			<cc:Work rdf:about="">
				<dc:format>image/svg+xml</dc:format>
				<dc:type rdf:resource="http://purl.org/dc/dcmitype/StillImage"/>
				<dc:title/>
			</cc:Work>
		</rdf:RDF>
	</metadata>
	<path d="m1.6362e-8 39.802v23.198l2 1h60l2-1v-23.198z" fill="#234c53"/>
	<path d="m0 1v49h64v-49z" color="#000000" fill="#23a5df"/>
	<path d="m0 1v49h64v-49z" color="#000000" fill="url(#a)"/>
	<path d="m1.6362e-8 2h64v-1l-2-1h-60l-2 1z" color="#000000" fill="#82fff6"/>
	<path d="m0 1 1.6362e-8 3 2-2z" color="#000000" fill="#b4fffa"/>
	<path d="m64 1v3l-2-2z" color="#000000" fill="#59c4d8"/>
	<path d="m33.901 19.482 9.3867 14.701-10.332 16.004h-1l1.293-2.002c-1.5246-0.12192-2.6579-0.6587-3.4004-1.6133-0.85116-1.1054-1.2773-2.9348-1.2773-5.4883 0-2.5535 0.41509-4.3672 1.2441-5.4395 0.82905-1.0833 2.1833-1.625 4.0625-1.625 1.7355 0 3.0167 0.58152 3.8457 1.7422 0.6286 0.88004 1.016 2.1089 1.168 3.6816l2.1055-3.2598c-0.30506-0.75732-0.69046-1.4311-1.166-2.0137-1.3154-1.636-3.167-2.4551-5.5547-2.4551-2.5203 0-4.4228 0.90785-5.7051 2.7207h-0.13281c0.08843-1.1165 0.13281-2.3774 0.13281-3.7812v-6.2676h-2.752v25.801h1.9727l0.58008-2.3379h0.19922c0.66324 0.90643 1.4823 1.5793 2.4551 2.0215 0.9838 0.4311 2.0672 0.64648 3.25 0.64648 2.3656 0 4.2106-0.82366 5.5371-2.4707 1.3375-1.6581 2.0059-3.9783 2.0059-6.9629 0-0.3135-0.01396-0.61247-0.0293-0.91016l2.7793-4.3105 9.0723 14.324h2.459l-10.291-16.045 9.5137-14.66h-2.2891l-8.4219 13.146-8.2949-13.146zm-12.771 4.9043v7.3945l0.06641 1.2773 0.11719 1.3105h-0.2168c-1.3154-1.7907-3.2049-2.6875-5.6699-2.6875-2.3656 0-4.2106 0.83019-5.5371 2.4883-1.3265 1.6581-1.9902 3.9848-1.9902 6.9805s0.65723 5.3048 1.9727 6.9297c1.3265 1.6249 3.1781 2.4375 5.5547 2.4375 2.5314 0 4.4319-0.92156 5.7031-2.7676h0.15039l0.36524 2.4375h2.2383v-25.801zm-5.3887 9.5996c1.8792 0 3.2445 0.55281 4.0957 1.6582 0.86221 1.0943 1.293 2.9303 1.293 5.5059v0.58008c0 2.2771-0.42424 3.929-1.2754 4.957-0.8401 1.017-2.2009 1.5254-4.0801 1.5254-1.647 0-2.8949-0.59066-3.7461-1.7734-0.85116-1.1828-1.2773-2.9345-1.2773-5.2559 0-2.2882 0.42619-4.0575 1.2773-5.3066 0.86221-1.2602 2.099-1.8906 3.7129-1.8906z" fill="#234c53"/>
	<path d="m22.5 54c-0.82235 0-1.5 0.67765-1.5 1.5v3c0 0.82235 0.67765 1.5 1.5 1.5h3c0.82235 0 1.5-0.67765 1.5-1.5v-3c0-0.82235-0.67765-1.5-1.5-1.5zm8 0c-0.82235 0-1.5 0.67765-1.5 1.5v3c0 0.82235 0.67765 1.5 1.5 1.5h3c0.82235 0 1.5-0.67765 1.5-1.5v-3c0-0.82235-0.67765-1.5-1.5-1.5zm8 0c-0.82235 0-1.5 0.67765-1.5 1.5v3c0 0.82235 0.67765 1.5 1.5 1.5h3c0.82235 0 1.5-0.67765 1.5-1.5v-3c0-0.82235-0.67765-1.5-1.5-1.5zm-16 1h3c0.28565 0 0.5 0.21435 0.5 0.5v3c0 0.28565-0.21435 0.5-0.5 0.5h-3c-0.28565 0-0.5-0.21435-0.5-0.5v-3c0-0.28565 0.21435-0.5 0.5-0.5zm8 0h3c0.28565 0 0.5 0.21435 0.5 0.5v3c0 0.28565-0.21435 0.5-0.5 0.5h-3c-0.28565 0-0.5-0.21435-0.5-0.5v-3c0-0.28565 0.21435-0.5 0.5-0.5zm8 0h3c0.28565 0 0.5 0.21435 0.5 0.5v3c0 0.28565-0.21435 0.5-0.5 0.5h-3c-0.28565 0-0.5-0.21435-0.5-0.5v-3c0-0.28565 0.21435-0.5 0.5-0.5z" color="#000000" color-rendering="auto" dominant-baseline="auto" fill="#34bfd3" image-rendering="auto" shape-rendering="auto" solid-color="#000000" style="font-feature-settings:normal;font-variant-alternates:normal;font-variant-caps:normal;font-variant-ligatures:normal;font-variant-numeric:normal;font-variant-position:normal;isolation:auto;mix-blend-mode:normal;paint-order:normal;shape-padding:0;text-decoration-color:#000000;text-decoration-line:none;text-decoration-style:solid;text-indent:0;text-orientation:mixed;text-transform:none;white-space:normal"/>
</svg>
