<?xml version="1.0" encoding="UTF-8"?>
<!-- Created with Inkscape (http://www.inkscape.org/) -->
<svg width="64" height="64" version="1.1" xmlns="http://www.w3.org/2000/svg" xmlns:cc="http://creativecommons.org/ns#" xmlns:dc="http://purl.org/dc/elements/1.1/" xmlns:rdf="http://www.w3.org/1999/02/22-rdf-syntax-ns#" xmlns:xlink="http://www.w3.org/1999/xlink">
	<defs>
		<radialGradient id="a" cx="46.073" cy="4.8046" r="32" gradientTransform="matrix(0 .99806 -.91822 0 52.412 -5.9839)" gradientUnits="userSpaceOnUse">
			<stop stop-color="#b9a0c6" offset="0"/>
			<stop stop-color="#b3bbcf" offset="1"/>
		</radialGradient>
	</defs>
	<metadata>
		<rdf:RDF>
			<cc:Work rdf:about="">
				<dc:format>image/svg+xml</dc:format>
				<dc:type rdf:resource="http://purl.org/dc/dcmitype/StillImage"/>
				<dc:title/>
			</cc:Work>
		</rdf:RDF>
	</metadata>
	<path d="m0 2v32 28l2 2h30 30l2-2v-28-32h-32z" color="#000000" fill="url(#a)"/>
	<path d="m2 0-2 1v1h19.562 19.562 24.875v-1l-2-1h-22.875-19.562z" color="#000000" fill="#e7ecf0"/>
	<path d="m64 4-2-2 2-1z" fill="#cbd1de" fill-opacity=".99228"/>
	<path d="m0 1v3l2-2z" fill="#f2f4f7"/>
	<path transform="matrix(1.0526 0 0 1.0526 -.52632 -1.2632)" d="m29 33.5a9.5 9.5 0 1 1-19 0 9.5 9.5 0 1 1 19 0z" color="#000000" fill="#2c76d4"/>
	<path transform="matrix(1.0526 0 0 1.0526 23.474 -1.2632)" d="m29 33.5a9.5 9.5 0 1 1-19 0 9.5 9.5 0 1 1 19 0z" color="#000000" fill="#d22ea3"/>
</svg>
