<?xml version="1.0" encoding="UTF-8"?>
<svg width="64" height="64" version="1.1" xmlns="http://www.w3.org/2000/svg" xmlns:cc="http://creativecommons.org/ns#" xmlns:dc="http://purl.org/dc/elements/1.1/" xmlns:rdf="http://www.w3.org/1999/02/22-rdf-syntax-ns#" xmlns:xlink="http://www.w3.org/1999/xlink">
	<defs>
		<radialGradient id="b-2" cx="31.744" cy="30.855" r="32" gradientTransform="matrix(1.1553,0,0,1.1553,277.45,965.74)" gradientUnits="userSpaceOnUse">
			<stop stop-color="#44516e" offset="0"/>
			<stop stop-color="#44516e" offset="1"/>
		</radialGradient>
		<radialGradient id="c-3" cx="35.574" cy="1.019" r="32" gradientTransform="matrix(0,1.1252,-5.1753,0,37.271,-39.029)" gradientUnits="userSpaceOnUse" xlink:href="#a-7"/>
		<linearGradient id="a-7">
			<stop stop-color="#a6c7ce" stop-opacity=".04" offset="0"/>
			<stop stop-color="#b8d2d8" stop-opacity=".031373" offset="1"/>
		</linearGradient>
		<radialGradient id="d-2" cx="35.574" cy="1.036" r="32" gradientTransform="matrix(0,1.1252,-5.1753,0,37.363,-39.029)" gradientUnits="userSpaceOnUse" xlink:href="#a-7"/>
		<radialGradient id="e-2" cx="35.574" cy="1.055" r="32" gradientTransform="matrix(0,1.1252,-5.1753,0,37.458,-39.029)" gradientUnits="userSpaceOnUse" xlink:href="#a-7"/>
		<radialGradient id="f-8" cx="35.574" cy="1.071" r="32" gradientTransform="matrix(0,1.1252,-5.1753,0,37.544,-39.029)" gradientUnits="userSpaceOnUse" xlink:href="#a-7"/>
		<radialGradient id="g-9" cx="35.574" cy="1.091" r="32" gradientTransform="matrix(0,1.1252,-5.1753,0,37.648,-39.029)" gradientUnits="userSpaceOnUse" xlink:href="#a-7"/>
		<radialGradient id="h-7" cx="35.574" cy="1.113" r="32" gradientTransform="matrix(0,1.1252,-5.1753,0,37.758,-39.029)" gradientUnits="userSpaceOnUse" xlink:href="#a-7"/>
		<radialGradient id="i-3" cx="35.574" cy="1.135" r="32" gradientTransform="matrix(0,1.1252,-5.1753,0,37.875,-39.029)" gradientUnits="userSpaceOnUse" xlink:href="#a-7"/>
		<radialGradient id="j-6" cx="35.574" cy="1.159" r="32" gradientTransform="matrix(0,1.1252,-5.1753,0,38,-39.029)" gradientUnits="userSpaceOnUse" xlink:href="#a-7"/>
		<radialGradient id="k-1" cx="35.574" cy="1.18" r="32" gradientTransform="matrix(0,1.1252,-5.1753,0,38.107,-39.029)" gradientUnits="userSpaceOnUse" xlink:href="#a-7"/>
		<radialGradient id="l-2" cx="35.574" cy="1.208" r="32" gradientTransform="matrix(0,1.1252,-5.1753,0,38.252,-39.029)" gradientUnits="userSpaceOnUse" xlink:href="#a-7"/>
		<radialGradient id="m-9" cx="35.574" cy="1.239" r="32" gradientTransform="matrix(0,1.1252,-5.1753,0,38.411,-39.029)" gradientUnits="userSpaceOnUse" xlink:href="#a-7"/>
		<radialGradient id="n-3" cx="35.574" cy="1.273" r="32" gradientTransform="matrix(0,1.1252,-5.1753,0,38.587,-39.029)" gradientUnits="userSpaceOnUse" xlink:href="#a-7"/>
		<radialGradient id="o-1" cx="35.574" cy="1.304" r="32" gradientTransform="matrix(0,1.1252,-5.1753,0,38.75,-39.029)" gradientUnits="userSpaceOnUse" xlink:href="#a-7"/>
		<radialGradient id="p-9" cx="35.574" cy="1.346" r="32" gradientTransform="matrix(0,1.1252,-5.1753,0,38.966,-39.029)" gradientUnits="userSpaceOnUse" xlink:href="#a-7"/>
		<radialGradient id="q-4" cx="35.574" cy="1.393" r="32" gradientTransform="matrix(0,1.1252,-5.1753,0,39.208,-39.029)" gradientUnits="userSpaceOnUse" xlink:href="#a-7"/>
		<radialGradient id="r-7" cx="35.574" cy="1.439" r="32" gradientTransform="matrix(0,1.1252,-5.1753,0,39.446,-39.027)" gradientUnits="userSpaceOnUse" xlink:href="#a-7"/>
		<radialGradient id="s-84" cx="32" cy="15.077" r="32" gradientTransform="matrix(2.0435 0 0 .0149 -33.393 1.217)" gradientUnits="userSpaceOnUse">
			<stop stop-color="#fff" stop-opacity=".126" offset="0"/>
			<stop stop-color="#fff" stop-opacity=".001" offset="1"/>
		</radialGradient>
	</defs>
	<metadata>
		<rdf:RDF>
			<cc:Work rdf:about="">
				<dc:format>image/svg+xml</dc:format>
				<dc:type rdf:resource="http://purl.org/dc/dcmitype/StillImage"/>
			</cc:Work>
		</rdf:RDF>
	</metadata>
	<g transform="translate(346.38,-971.27)">
		<path transform="scale(-1,1)" d="m283.38 971.27h62c0.554 0 1 0.446 1 1v53c0 0.554-0.446 1-1 1h-62c-0.554 0-1-0.446-1-1v-53c0-0.554 0.446-1 1-1z" fill="url(#b-2)" style="paint-order:fill markers stroke"/>
		<path transform="translate(-346.38,971.33)" d="m1 0c-0.554 0-1 0.446-1 1v53-0.224 0.224-53h1.752c19.15 2e-3 39.445 0 60.213 0h2.035v53-0.334 0.334-53c0.0011-0.55274-0.44726-1.0011-1-1z" fill="url(#c-3)"/>
		<path transform="translate(-346.38,971.33)" d="m1 0c-0.5551-0.0011303-1.0045 0.45091-1 1.006v52.98-0.197c0-0.277 4e-3 -0.184 0.01 0.246 0.012 0.016 0.03-0.297 0.052-0.897v-52c0.072-9e-3 0.133-0.013 0.185-0.013 0.29-0.016 0.357-0.032 0.774-0.044 0.246-0.011 0.496-0.019 0.747-0.019 19.183 2e-3 39.392 0 60.2 0 0.346 0 0.689 0.012 1.023 0.03 0.268 0.01 0.389 0.02 0.52 0.033 0.106 0 0.22 0.01 0.427 0.028v51.744c0.027 0.754 0.05 1.148 0.059 1.123l3e-3 -0.334v0.286-52.762c0-0.143 0-0.22-2e-3 -0.224-0.005475-0.55246-0.45958-0.9949-1.012-0.986h-61.986" fill="url(#d-2)"/>
		<path transform="translate(-346.38,971.33)" d="m1 0c-0.5551-0.0011303-1.0045 0.45091-1 1.006v52.966-0.169c0-0.245 8e-3 -0.145 0.021 0.266 0.022 0.034 0.06-0.247 0.104-0.807v-51.988c0.056484-0.015102 0.11455-0.023493 0.173-0.025 0.27-0.031 0.341-0.064 0.743-0.088 0.242-0.022 0.492-0.037 0.742-0.037 19.217 2e-3 39.34 0 60.187 0 0.347 0 0.69 0.024 1.013 0.06 0.256 0.02 0.372 0.042 0.494 0.065 0.1 0 0.206 0.02 0.398 0.057v51.731c0.055 0.703 0.102 1.052 0.119 1.003 4e-3 -0.154 6e-3 -0.265 6e-3 -0.333v0.237-52.748c0-0.139 0-0.215-3e-3 -0.224-0.011441-0.46771-0.34748-0.86412-0.807-0.952-0.071417-0.014359-0.14416-0.021063-0.217-0.02h-61.973" fill="url(#e-2)"/>
		<path transform="translate(-346.38,971.33)" d="m1 0c-0.55471-0.0011253-1.0039 0.45031-1 1.005v52.953-0.14c0-0.213 0.012-0.107 0.031 0.287 0.034 0.05 0.091-0.198 0.156-0.718v-51.974c0.050612-0.022043 0.10485-0.034585 0.16-0.037 0.252-0.048 0.327-0.097 0.715-0.132 0.238-0.034 0.487-0.056 0.737-0.056 19.25 2e-3 39.286 0 60.173 0 0.348 0 0.688 0.036 1.001 0.09 0.244 0.029 0.356 0.062 0.47 0.098 0.091 0 0.19 0.03 0.37 0.085v51.718c0.082 0.653 0.151 0.957 0.176 0.884 7e-3 -0.152 0.01-0.262 0.01-0.333v0.188-52.734c0-0.135 0-0.21-4e-3 -0.224-0.017399-0.46717-0.35861-0.85879-0.819-0.94-0.071505-0.013569-0.14424-0.019602-0.217-0.018h-61.96" fill="url(#f-8)"/>
		<path transform="translate(-346.38,971.33)" d="m1 0c-0.55471-0.0011253-1.0039 0.45031-1 1.005v52.939-0.113c0-0.18 0.015-0.068 0.042 0.308 0.045 0.067 0.121-0.149 0.208-0.629v-51.96c0.044295-0.028947 0.095225-0.046153 0.148-0.05 0.232-0.063 0.311-0.128 0.684-0.176 0.234-0.044 0.483-0.074 0.732-0.074 19.284 2e-3 39.234 0 60.16 0 0.35 0 0.689 0.048 0.991 0.12 0.232 0.039 0.34 0.083 0.444 0.13 0.085 0 0.176 0.04 0.341 0.114v51.704c0.11 0.603 0.203 0.862 0.236 0.764 8e-3 -0.11 0.013-0.222 0.014-0.333v0.14-52.721c0-0.13-2e-3 -0.206-6e-3 -0.224-0.024028-0.46583-0.36965-0.85184-0.83-0.927-0.072548-0.013262-0.14628-0.018959-0.22-0.017h-61.944" fill="url(#g-9)"/>
		<path transform="translate(-346.38,971.33)" d="m1 0c-0.55431-0.0011209-1.0033 0.4497-1 1.004v52.926-0.084c0-0.148 0.02-0.029 0.052 0.328 0.056 0.084 0.152-0.099 0.26-0.539v-51.949c0.053-0.04 0.097-0.061 0.136-0.061 0.212-0.08 0.297-0.16 0.655-0.22 0.23-0.056 0.477-0.093 0.727-0.093 19.317 2e-3 39.18 0 60.147 0 0.35 0 0.688 0.06 0.98 0.151 0.22 0.047 0.322 0.102 0.418 0.162 0.078 0 0.162 0.049 0.313 0.142v51.69c0.137 0.553 0.253 0.767 0.295 0.645 0.0096-0.11043 0.01525-0.22117 0.017-0.332v0.09-52.705c0-0.126-2e-3 -0.202-7e-3 -0.224-0.03077-0.46514-0.38186-0.8458-0.843-0.914-0.071921-0.0129-0.14495-0.018594-0.218-0.017h-61.932" fill="url(#h-7)"/>
		<path transform="translate(-346.38,971.33)" d="m1 0c-0.55431-0.0011209-1.0033 0.4497-1 1.004v52.912-0.056c0-0.117 0.023 0.01 0.063 0.349 0.067 0.1 0.182-0.05 0.312-0.45v-51.935c0.048-0.049 0.088-0.074 0.123-0.074 0.193-0.095 0.282-0.192 0.626-0.264 0.225-0.067 0.472-0.11 0.721-0.11h60.133c0.352 0 0.688 0.071 0.97 0.18 0.144 0.033 0.279 0.1 0.393 0.194 0.07 0 0.147 0.059 0.284 0.17v51.68c0.164 0.502 0.304 0.671 0.354 0.524 0.014-0.14 0.02-0.25 0.02-0.331v0.042-52.695c0-0.121-2e-3 -0.197-9e-3 -0.224-0.037172-0.46407-0.39266-0.83953-0.854-0.902-0.072052-0.011622-0.14505-0.01631-0.218-0.014h-61.918" fill="url(#i-3)"/>
		<path transform="translate(-346.38,971.33)" d="m1 0c-0.55431-0.0011209-1.0033 0.4497-1 1.004v52.898-0.029c0-0.084 0.027 0.049 0.073 0.37 0.079 0.117 0.212 0 0.365-0.36v-51.923c0.043-0.057 0.079-0.086 0.11-0.086 0.174-0.112 0.267-0.225 0.596-0.309 0.23012-0.082729 0.47247-0.12633 0.717-0.129 19.385 2e-3 39.075 0 60.12 0 0.353 0 0.687 0.084 0.958 0.211 0.14097 0.040924 0.26817 0.11939 0.368 0.227 0.063 0 0.132 0.068 0.256 0.199v51.665c0.192 0.452 0.354 0.576 0.413 0.404 0.014-0.11 0.022-0.22 0.024-0.33v-52.687c0-0.117-4e-3 -0.193-0.01-0.224-0.043775-0.464-0.40524-0.83463-0.868-0.89-0.071851-0.010232-0.14448-0.013914-0.217-0.011h-61.905" fill="url(#j-6)"/>
		<path transform="translate(-346.38,971.33)" d="m1 0c-0.55392-0.001117-1.0028 0.44909-1 1.003v52.885c0-0.052 0.03 0.087 0.084 0.39 0.09 0.135 0.242 0.05 0.416-0.27v-51.911c0.038-0.063 0.07-0.097 0.099-0.097 0.154-0.127 0.251-0.257 0.566-0.352 0.217-0.089 0.463-0.148 0.711-0.148 19.418 2e-3 39.022 0 60.107 0 0.355 0 0.687 0.096 0.947 0.242 0.138 0.05 0.257 0.14 0.343 0.258 0.056 0 0.118 0.079 0.227 0.227v51.651c0.22 0.402 0.406 0.482 0.473 0.285 0.018-0.132 0.027-0.243 0.027-0.33v-52.721c0-0.113-4e-3 -0.188-0.012-0.224-0.050481-0.46258-0.4163-0.82757-0.879-0.877-0.072218-0.0099014-0.14515-0.013582-0.218-0.011h-61.89" fill="url(#k-1)"/>
		<path transform="translate(-346.38,971.33)" d="m1 0c-0.55392-0.001117-1.0028 0.44909-1 1.003v52.899c0-0.02 0.035 0.126 0.094 0.41 0.101 0.152 0.273 0.1 0.468-0.18v-51.897c0.034-0.073 0.062-0.11 0.087-0.11 0.135-0.143 0.236-0.29 0.536-0.397 0.213-0.1 0.459-0.166 0.707-0.166 19.452 2e-3 38.969 0 60.093 0 0.356 0 0.687 0.108 0.936 0.272 0.134 0.06 0.246 0.162 0.317 0.29 0.05 0 0.103 0.089 0.2 0.256v51.64c0.246 0.352 0.455 0.386 0.531 0.165 0.02-0.128 0.03-0.239 0.03-0.33v-52.755c0-0.108-4e-3 -0.184-0.013-0.224-0.0572-0.46153-0.42793-0.82103-0.891-0.864-0.07229-0.0090995-0.14518-0.012443-0.218-0.01h-61.877" fill="url(#l-2)"/>
		<path transform="translate(-346.38,971.33)" d="m1 0c-0.55353-0.0011137-1.0022 0.44848-1 1.002v52.913c0 0.013 0.039 0.165 0.105 0.432 0.112 0.168 0.303 0.148 0.52-0.092v-51.882c0.029-0.081 0.053-0.123 0.074-0.123 0.116-0.159 0.222-0.321 0.507-0.44 0.21532-0.11731 0.45583-0.18078 0.701-0.185 19.486 2e-3 38.916 0 60.08 0 0.357 0 0.687 0.12 0.925 0.302 0.13107 0.071535 0.23401 0.1854 0.292 0.323 0.043 0 0.089 0.098 0.171 0.284v51.626c0.275 0.302 0.507 0.29 0.591 0.046 0.022-0.125 0.034-0.236 0.034-0.33v-52.791c0-0.104-5e-3 -0.18-0.016-0.224-0.063414-0.4609-0.4392-0.81546-0.903-0.852-0.07238-0.0079052-0.14524-0.010579-0.218-8e-3h-61.863" fill="url(#m-9)"/>
		<path transform="translate(-346.38,971.33)" d="m1 0c-0.55353-0.0011137-1.0022 0.44848-1 1.002v52.928c0 0.045 0.042 0.203 0.115 0.453 0.123 0.184 0.333 0.197 0.572-3e-3v-51.87c0.024-0.089 0.045-0.135 0.062-0.135 0.097-0.174 0.207-0.353 0.478-0.484 0.204-0.122 0.448-0.203 0.696-0.203 19.519 2e-3 38.863 0 60.067 0 0.33455-0.0021 0.65879 0.11568 0.914 0.332 0.15 0.103 0.224 0.225 0.267 0.355 0.035 0 0.073 0.108 0.142 0.313v51.612c0.302 0.251 0.557 0.196 0.65-0.074 0.02307-0.10853 0.03547-0.21906 0.037-0.33v-52.825c0-0.1-6e-3 -0.175-0.017-0.224-0.069565-0.46031-0.45044-0.80996-0.915-0.84-0.072444-0.0069646-0.14526-0.0093027-0.218-7e-3h-61.85" fill="url(#n-3)"/>
		<path transform="translate(-346.38,971.33)" d="m1 0c-0.55353-0.0011137-1.0022 0.44848-1 1.002v52.942c0 0.077 0.046 0.242 0.126 0.473 0.134 0.201 0.363 0.246 0.624 0.086v-51.856c0.02-0.097 0.035-0.147 0.05-0.147 0.079731-0.22481 0.23864-0.41288 0.447-0.529 0.2-0.133 0.444-0.221 0.691-0.221 19.553 2e-3 38.811 0 60.053 0 0.36 0 0.686 0.144 0.903 0.362 0.12254 0.097958 0.20793 0.23486 0.242 0.388 0.028 0 0.059 0.118 0.114 0.341v51.598c0.33 0.2 0.608 0.1 0.709-0.194 0.026-0.117 0.04-0.228 0.04-0.329v-52.86c0-0.095-6e-3 -0.17-0.018-0.224-0.076427-0.45917-0.46212-0.80326-0.927-0.827-0.072523-0.0056002-0.1453-0.0072693-0.218-5e-3h-61.836" fill="url(#o-1)"/>
		<path transform="translate(-346.38,971.33)" d="m1 0c-0.55314-0.001111-1.0017 0.44787-1 1.001v52.956c0 0.11 0.05 0.281 0.136 0.494 0.146 0.218 0.394 0.296 0.677 0.176v-51.843c0.014-0.105 0.026-0.16 0.036-0.16 0.062205-0.23684 0.21195-0.44126 0.419-0.572 0.196-0.144 0.439-0.24 0.686-0.24 19.586 2e-3 38.758 0 60.04 0 0.36 0 0.685 0.156 0.892 0.392 0.11655 0.1122 0.19253 0.25993 0.216 0.42 0.021 0 0.044 0.128 0.086 0.37v51.585c0.356 0.15 0.658 5e-3 0.768-0.314 0.029-0.114 0.044-0.224 0.044-0.328v-52.895c0-0.09-7e-3 -0.166-0.02-0.224-0.083295-0.45841-0.47439-0.79708-0.94-0.814-0.072228-0.0047776-0.14463-0.0064458-0.217-5e-3h-61.823" fill="url(#p-9)"/>
		<path transform="translate(-346.38,971.33)" d="m1 0c-0.55274-0.0011088-1.0011 0.44726-1 1v52.972c0 0.142 0.054 0.32 0.147 0.515 0.156 0.241 0.453 0.35 0.728 0.265v-51.83c0.01-0.114 0.018-0.172 0.025-0.172 0.044459-0.24844 0.184-0.46977 0.389-0.617 0.192-0.155 0.434-0.258 0.68-0.258 19.62 2e-3 38.705 0 60.027 0 0.362 0 0.686 0.168 0.882 0.422 0.11 0.127 0.176 0.286 0.19 0.453 0.015 0 0.03 0.137 0.057 0.398v51.572c0.385 0.1 0.71-0.09 0.828-0.434 0.03-0.11 0.047-0.22 0.047-0.328v-52.93c0-0.086-7e-3 -0.161-0.021-0.224-0.089858-0.45718-0.48521-0.79059-0.951-0.802-0.072962-0.0029106-0.146-0.0035776-0.219-2e-3h-61.809" fill="url(#q-4)"/>
		<path transform="translate(-346.38,971.33)" d="m1 2e-3c-0.55274-0.0011088-1.0011 0.44726-1 1v52.986c0 0.174 0.058 0.358 0.157 0.535 0.17 0.259 0.473 0.397 0.78 0.355v-51.816c5e-3 -0.122 0.01-0.185 0.013-0.185 0.028233-0.25888 0.15763-0.49611 0.36-0.66 0.187-0.166 0.429-0.277 0.675-0.277 19.653 2e-3 38.652 0 60.013 0 0.363 0 0.685 0.18 0.87 0.452 0.102 0.141 0.16 0.31 0.166 0.485 7e-3 0 0.015 0.147 0.028 0.427v51.558c0.412 0.05 0.76-0.186 0.887-0.553 0.03316-0.10618 0.05001-0.21677 0.05-0.328v-52.965c0.01002-0.55281-0.43213-1.008-0.985-1.014-0.07333-0.0012095-0.14667-0.0012095-0.22 0h-61.794" fill="url(#r-7)"/>
		<path transform="translate(-346.38,971.33)" d="m1 2e-3c-0.55274-0.0011088-1.0011 0.44726-1 1v1h64v-0.998c0.0011-0.55274-0.44726-1.0011-1-1h-62z" fill="url(#s-84)"/>
		<path d="m-346.38 972.27v2.5l2-2zm64 2.5-2-2 2-0.5z" fill="#d6f2f5" fill-opacity=".37295"/>
	</g>
	<g transform="matrix(.96644 0 0 .96644 335.83 -936.52)" stroke-width="1.0347">
		<path d="m-314.37 977.32c-27.963 0-27.963 2.4309-27.963 21.275 0 13.224 0.0141 18.36 9.6777 20.25l-3.5996 16.47 21.885-15.444c27.963 0 27.963-2.4308 27.963-21.275 0-18.844-3e-5 -21.275-27.963-21.275zm-12.158 19.148c1.5167 0 2.7363 1.2515 2.7363 2.7383 0 1.4832-1.2196 2.7324-2.7363 2.7324-1.5167 0-2.7344-1.2492-2.7344-2.7324 0-1.4868 1.2177-2.7383 2.7344-2.7383zm12.158 0c1.5167 0 2.7344 1.2515 2.7344 2.7383 0 1.4832-1.2177 2.7324-2.7344 2.7324-1.5167 0-2.7363-1.2492-2.7363-2.7324 0-1.4868 1.2197-2.7383 2.7363-2.7383zm12.156 0c1.5167 0 2.7363 1.2515 2.7363 2.7383 0 1.4832-1.2197 2.7324-2.7363 2.7324-1.5167 0-2.7344-1.2492-2.7344-2.7324 0-1.4868 1.2177-2.7383 2.7344-2.7383z" fill="#dee3ee" fill-rule="evenodd" style="font-variation-settings:normal"/>
		<g opacity=".31301">
			<g fill="#090b10" fill-opacity=".045831" fill-rule="evenodd" opacity=".48498">
				<path d="m-314.37 977.32c-27.963 0-27.963 2.43-27.963 21.275 0 13.221 0.014 18.361 9.678 20.251l-3.6 16.47 21.885-15.45c27.963 0 27.963-2.43 27.963-21.271 0-18.845 0-21.275-27.963-21.275zm-12.158 19.148c1.516 0 2.736 1.252 2.736 2.738 0 1.48-1.22 2.73-2.736 2.73-1.517 0-2.735-1.25-2.735-2.73 0-1.486 1.218-2.738 2.735-2.738zm12.158 0c1.517 0 2.734 1.252 2.734 2.738 0 1.48-1.217 2.73-2.734 2.73s-2.736-1.25-2.736-2.73c0-1.486 1.219-2.738 2.736-2.738zm12.156 0c1.517 0 2.736 1.252 2.736 2.738 0 1.48-1.219 2.73-2.736 2.73s-2.734-1.25-2.734-2.73c0-1.486 1.217-2.738 2.734-2.738z" stop-color="#000000" style="-inkscape-stroke:none;font-variation-settings:normal"/>
				<path d="m-314.37 978.87c-26.622 0-26.622 2.314-26.622 20.255v1e-3c0 12.587 0.013 17.477 9.213 19.277-7e-3 0.03-3.427 15.68-3.427 15.68h1e-3c0.042-0.03 20.835-14.7 20.835-14.7 26.622 0 26.622-2.32 26.622-20.258 0-17.941 0-20.255-26.622-20.255zm-3.015 4.748m-8.56 13.482c1.444 1e-3 2.605 1.192 2.605 2.607v1e-3c0 1.415-1.162 2.605-2.605 2.605h-1e-3c-1.443 0-2.603-1.19-2.603-2.606 1e-3 -1.415 1.16-2.607 2.604-2.607zm3.014 0m8.561 0c1.444 1e-3 2.603 1.192 2.603 2.607v1e-3c0 1.415-1.159 2.605-2.603 2.605s-2.605-1.19-2.605-2.606c0-1.415 1.161-2.607 2.605-2.607zm3.014 0m8.56 0c1.443 1e-3 2.604 1.192 2.604 2.607v1e-3c0 1.415-1.161 2.605-2.605 2.605s-2.603-1.19-2.603-2.606c0-1.415 1.159-2.607 2.603-2.607z" stop-color="#000000" style="-inkscape-stroke:none;font-variation-settings:normal"/>
				<path d="m-314.37 979.36c-26.194 0-26.194 2.277-26.194 19.93 0 12.39 0.013 17.2 9.066 18.97-0.01 0.04-3.372 15.43-3.372 15.43 0.056-0.04 20.5-14.47 20.5-14.47 26.194 0 26.194-2.28 26.194-19.93v-1e-3c0-17.652-1e-3 -19.929-26.194-19.929zm-3.978 6.265m-7.411 11.672c1.421 0 2.563 1.173 2.563 2.565v1e-3c0 1.387-1.143 2.557-2.563 2.557-1.421 0-2.561-1.17-2.561-2.558 0-1.393 1.14-2.565 2.561-2.565zm3.977 0m7.412 0c1.421 0 2.561 1.173 2.561 2.565v1e-3c0 1.387-1.141 2.557-2.561 2.557h-1e-3c-1.42 0-2.562-1.17-2.562-2.558 0-1.393 1.142-2.565 2.563-2.565zm3.977 0m7.41 0c1.421 0 2.563 1.173 2.563 2.565v1e-3c0 1.387-1.142 2.557-2.563 2.557s-2.561-1.17-2.561-2.558c0-1.393 1.14-2.565 2.561-2.565z" stop-color="#000000" style="-inkscape-stroke:none;font-variation-settings:normal"/>
				<path d="m-314.37 979.72c-25.882 0-25.882 2.25-25.882 19.692v1e-3c0 12.238 0.013 16.988 8.957 18.738-0.011 0.05-3.331 15.25-3.331 15.25 0.065-0.05 20.256-14.3 20.256-14.3 25.882 0 25.882-2.25 25.882-19.689 0-17.442 0-19.692-25.882-19.692zm-4.678 7.367m-6.575 10.356c1.403 1e-3 2.532 1.159 2.532 2.535 0 1.373-1.129 2.533-2.533 2.533s-2.531-1.16-2.531-2.533c1e-3 -1.376 1.128-2.535 2.531-2.535zm4.677 0m6.576 0c1.404 1e-3 2.531 1.159 2.531 2.535 0 1.373-1.127 2.533-2.531 2.533h-1e-3c-1.403 0-2.532-1.16-2.532-2.533 0-1.376 1.129-2.535 2.533-2.535zm4.677 0m6.575 0c1.404 1e-3 2.532 1.159 2.532 2.535 0 1.373-1.129 2.533-2.532 2.533h-1e-3c-1.403 0-2.53-1.16-2.53-2.533 0-1.376 1.127-2.535 2.531-2.535z" stop-color="#000000" style="-inkscape-stroke:none;font-variation-settings:normal"/>
				<path d="m-314.37 980.01c-25.629 0-25.629 2.228-25.629 19.499v1e-3c0 12.119 0.013 16.829 8.87 18.559-0.012 0.06-3.299 15.09-3.299 15.09h1e-3c0.073-0.05 20.057-14.15 20.057-14.15 25.628 0 25.628-2.23 25.628-19.5 0-17.271 0-19.499-25.628-19.499zm-5.248 8.266m-5.895 9.284c1.39 0 2.508 1.147 2.508 2.509-1e-3 1.36-1.118 2.5-2.508 2.5h-1e-3c-1.39 0-2.505-1.14-2.505-2.5 0-1.362 1.116-2.509 2.506-2.509zm5.248 0m5.895 0c1.39 0 2.506 1.147 2.506 2.509 0 1.36-1.116 2.5-2.506 2.5h-1e-3c-1.389 0-2.507-1.14-2.507-2.5 0-1.362 1.118-2.509 2.508-2.509zm5.247 0m5.895 0c1.39 0 2.507 1.147 2.507 2.509 0 1.36-1.118 2.5-2.508 2.5s-2.506-1.14-2.506-2.5c0-1.362 1.116-2.509 2.506-2.509z" stop-color="#000000" style="-inkscape-stroke:none;font-variation-settings:normal"/>
				<path d="m-314.37 980.26c-25.411 0-25.411 2.209-25.411 19.333v1e-3c0 12.014 0.013 16.684 8.795 18.404-0.014 0.06-3.271 14.96-3.271 14.96 0.08-0.05 19.887-14.03 19.887-14.03 25.41 0 25.41-2.21 25.41-19.335 0-17.124 0-19.333-25.41-19.333zm-5.738 9.037m-5.31 8.363c1.378 1e-3 2.486 1.138 2.486 2.488s-1.109 2.48-2.487 2.48-2.484-1.13-2.484-2.48c0-1.351 1.106-2.488 2.484-2.488zm5.738 0m5.31 0c1.378 1e-3 2.485 1.138 2.485 2.488-1e-3 1.35-1.107 2.48-2.485 2.48h-1e-3c-1.378 0-2.486-1.13-2.486-2.48 1e-3 -1.351 1.109-2.488 2.487-2.488zm5.737 0m5.31 0c1.378 1e-3 2.486 1.138 2.486 2.488s-1.108 2.48-2.486 2.48h-1e-3c-1.378 0-2.484-1.13-2.484-2.48 0-1.351 1.106-2.488 2.485-2.488z" stop-color="#000000" style="-inkscape-stroke:none;font-variation-settings:normal"/>
				<path d="m-314.37 980.48c-25.218 0-25.218 2.192-25.218 19.187 0 11.929 0.013 16.559 8.728 18.259-0.014 0.07-3.246 14.86-3.246 14.86v-0.01c0.086-0.06 19.736-13.92 19.736-13.92h1e-3c25.216 0 25.216-2.2 25.216-19.189v-1e-3c0-16.994 0-19.186-25.217-19.186zm-6.173 9.721m-4.791 7.547c1.367 1e-3 2.467 1.129 2.467 2.468 0 1.34-1.1 2.47-2.468 2.47s-2.466-1.13-2.466-2.47c1e-3 -1.339 1.099-2.468 2.466-2.468zm6.172 0m4.792 0c1.368 1e-3 2.466 1.129 2.466 2.468-1e-3 1.34-1.099 2.47-2.466 2.47h-1e-3c-1.367 0-2.467-1.13-2.467-2.47 0-1.339 1.1-2.468 2.468-2.468zm6.171 0m4.792 0c1.368 1e-3 2.467 1.129 2.467 2.468 0 1.34-1.1 2.47-2.467 2.47h-1e-3c-1.368 0-2.465-1.13-2.465-2.47 0-1.339 1.098-2.468 2.466-2.468z" stop-color="#000000" style="-inkscape-stroke:none;font-variation-settings:normal"/>
				<path d="m-314.37 980.68c-25.043 0-25.043 2.177-25.043 19.054 0 11.841 0.013 16.441 8.667 18.131-0.015 0.07-3.224 14.75-3.224 14.75h1e-3c0.092-0.06 19.599-13.83 19.599-13.83h1e-3c25.042 0 25.042-2.17 25.042-19.051v-1e-3c0-16.876-1e-3 -19.053-25.043-19.053zm-6.565 10.34m-4.323 6.809c1.358 0 2.45 1.121 2.45 2.456 0 1.32-1.093 2.44-2.451 2.44s-2.449-1.12-2.449-2.44c1e-3 -1.336 1.091-2.456 2.449-2.456zm6.564 0m4.324 0c1.358 0 2.449 1.121 2.449 2.456-1e-3 1.32-1.091 2.44-2.449 2.44h-1e-3c-1.358 0-2.45-1.12-2.45-2.44 1e-3 -1.336 1.093-2.456 2.451-2.456zm6.564 0m4.323 0c1.358 0 2.45 1.121 2.45 2.456 0 1.32-1.092 2.44-2.45 2.44h-1e-3c-1.358 0-2.448-1.12-2.448-2.44 0-1.336 1.091-2.456 2.449-2.456z" stop-color="#000000" style="-inkscape-stroke:none;font-variation-settings:normal"/>
				<path d="m-314.37 980.87c-24.883 0-24.883 2.163-24.883 18.931v1e-3c0 11.768 0.013 16.338 8.612 18.018-0.016 0.07-3.203 14.66-3.203 14.66 0.097-0.07 19.474-13.75 19.474-13.75h1e-3c24.881 0 24.881-2.16 24.881-18.929 0-16.768 0-18.931-24.882-18.931zm-6.925 10.906m-3.893 6.133c1.349 0 2.434 1.113 2.434 2.441 0 1.32-1.086 2.43-2.435 2.43h-1e-3c-1.349 0-2.432-1.12-2.432-2.43v-0.01c0-1.318 1.084-2.431 2.433-2.431zm6.924 0m3.894 0c1.35 0 2.433 1.113 2.433 2.441 0 1.32-1.084 2.43-2.433 2.43h-1e-3c-1.349 0-2.434-1.12-2.434-2.43v-0.01c0-1.318 1.085-2.431 2.435-2.431zm6.924 0m3.894 0c1.349 0 2.434 1.113 2.434 2.441 0 1.32-1.086 2.43-2.435 2.43h-1e-3c-1.349 0-2.432-1.12-2.432-2.43v-0.01c0-1.318 1.084-2.431 2.433-2.431z" stop-color="#000000" style="-inkscape-stroke:none;font-variation-settings:normal"/>
				<path d="m-314.37 981.04c-24.734 0-24.734 2.15-24.734 18.818v1e-3c0 11.7 0.013 16.24 8.56 17.91-0.017 0.08-3.184 14.57-3.184 14.57h1e-3c0.101-0.07 19.357-13.66 19.357-13.66h1e-3c24.733 0 24.733-2.15 24.733-18.821 0-16.668 0-18.818-24.734-18.818zm-7.259 11.433m-3.495 5.504c1.341 0 2.42 1.107 2.42 2.422 0 1.31-1.079 2.42-2.42 2.42h-1e-3c-1.341 0-2.418-1.11-2.418-2.42 0-1.315 1.077-2.422 2.419-2.422zm7.259 0m3.496 0c1.341 0 2.417 1.107 2.417 2.422 0 1.31-1.077 2.42-2.418 2.42h-1e-3c-1.341 0-2.42-1.11-2.42-2.42 1e-3 -1.315 1.08-2.422 2.421-2.422zm7.257 0m3.495 0c1.341 0 2.42 1.107 2.42 2.422-1e-3 1.31-1.079 2.42-2.421 2.42-1.341 0-2.418-1.11-2.418-2.42 0-1.315 1.077-2.422 2.418-2.422z" stop-color="#000000" style="-inkscape-stroke:none;font-variation-settings:normal"/>
				<path d="m-314.37 981.2c-24.595 0-24.595 2.138-24.595 18.713 0 11.636 0.012 16.146 8.512 17.806v0.01c-0.017 0.07-3.166 14.48-3.166 14.48h1e-3c0.105-0.07 19.248-13.58 19.248-13.58h1e-3c24.594 0 24.594-2.14 24.594-18.716v-1e-3c0-16.574 0-18.712-24.595-18.712zm-7.572 11.925m-3.121 4.917c1.333 0 2.406 1.101 2.406 2.407-1e-3 1.31-1.073 2.4-2.407 2.4h-1e-3c-1.333 0-2.404-1.09-2.404-2.4 0-1.307 1.071-2.407 2.405-2.407zm7.571 0m3.123 0c1.333 0 2.404 1.101 2.404 2.407 0 1.31-1.071 2.4-2.405 2.4h-1e-3c-1.334 0-2.406-1.09-2.406-2.4 0-1.307 1.073-2.407 2.407-2.407zm7.569 0m3.123 0c1.333 0 2.406 1.101 2.406 2.407-1e-3 1.31-1.073 2.4-2.407 2.4h-1e-3c-1.333 0-2.404-1.09-2.404-2.4 0-1.307 1.071-2.407 2.405-2.407z" stop-color="#000000" style="-inkscape-stroke:none;font-variation-settings:normal"/>
				<path d="m-314.37 981.35c-24.464 0-24.464 2.127-24.464 18.614 0 11.565 0.012 16.065 8.467 17.715h-1e-3c-0.018 0.08-3.149 14.41-3.149 14.41h1e-3c0.11-0.08 19.146-13.51 19.146-13.51h1e-3c24.463 0 24.463-2.13 24.463-18.615v-1e-3c0-16.486 0-18.613-24.464-18.613zm-7.866 12.389m-2.77 4.364c1.326 0 2.393 1.095 2.393 2.396-1e-3 1.3-1.067 2.39-2.394 2.39h-1e-3c-1.326 0-2.391-1.09-2.391-2.39 0-1.302 1.065-2.396 2.392-2.396zm7.865 0m2.772 0c1.326 0 2.391 1.095 2.391 2.396 0 1.3-1.065 2.39-2.392 2.39h-1e-3c-1.326 0-2.393-1.09-2.393-2.39 0-1.302 1.067-2.396 2.394-2.396zm7.864 0m2.771 0c1.326 0 2.393 1.095 2.393 2.396 0 1.3-1.067 2.39-2.394 2.39h-1e-3c-1.326 0-2.391-1.09-2.391-2.39 0-1.302 1.065-2.396 2.392-2.396z" stop-color="#000000" style="-inkscape-stroke:none;font-variation-settings:normal"/>
				<path d="m-314.37 981.49c-24.34 0-24.34 2.116-24.34 18.516 0 11.51 0.012 15.98 8.424 17.63h-1e-3c-0.018 0.09-3.133 14.34-3.133 14.34h1e-3c0.114-0.08 19.049-13.45 19.049-13.45h1e-3c24.339 0 24.339-2.11 24.339-18.52 0-16.4 0-18.516-24.34-18.516zm-8.145 12.827m-2.437 3.841c1.319 0 2.381 1.089 2.381 2.388-1e-3 1.29-1.062 2.37-2.382 2.37h-1e-3c-1.32 0-2.379-1.08-2.379-2.37v-0.01c0-1.289 1.06-2.378 2.38-2.378zm8.143 0m2.44 0c1.319 0 2.379 1.089 2.379 2.388 0 1.29-1.06 2.37-2.38 2.37h-1e-3c-1.32 0-2.381-1.08-2.381-2.37v-0.01c0-1.289 1.062-2.378 2.382-2.378zm8.142 0m2.439 0c1.32 0 2.381 1.089 2.381 2.388 0 1.29-1.062 2.37-2.382 2.37h-1e-3c-1.319 0-2.379-1.08-2.379-2.37v-0.01c0-1.289 1.06-2.378 2.38-2.378z" stop-color="#000000" style="-inkscape-stroke:none;font-variation-settings:normal"/>
				<path d="m-314.37 981.63c-24.222 0-24.222 2.105-24.222 18.43 0 11.45 0.012 15.9 8.383 17.54-0.02 0.09-3.118 14.27-3.118 14.27 0.118-0.09 18.957-13.38 18.957-13.38h1e-3c24.221 0 24.221-2.11 24.221-18.43 0-16.325 0-18.43-24.222-18.43zm-8.41 13.244m-2.121 3.343c1.313 0 2.369 1.084 2.369 2.373 0 1.28-1.056 2.37-2.37 2.37h-1e-3c-1.313 0-2.368-1.09-2.368-2.37 1e-3 -1.29 1.055-2.373 2.369-2.373zm8.409 0m2.123 0c1.313 0 2.367 1.084 2.367 2.373 0 1.28-1.055 2.37-2.368 2.37h-1e-3c-1.313 0-2.369-1.09-2.369-2.37 0-1.29 1.056-2.373 2.37-2.373zm8.407 0m2.123 0c1.313 0 2.369 1.084 2.369 2.373 0 1.28-1.056 2.37-2.37 2.37h-1e-3c-1.313 0-2.368-1.09-2.368-2.37 1e-3 -1.29 1.055-2.373 2.369-2.373z" stop-color="#000000" style="-inkscape-stroke:none;font-variation-settings:normal"/>
				<path d="m-314.37 981.76c-24.11 0-24.11 2.096-24.11 18.341 0 11.41 0.012 15.83 8.344 17.46-0.02 0.09-3.103 14.2-3.103 14.2 0.121-0.08 18.869-13.31 18.869-13.31h1e-3c24.109 0 24.109-2.1 24.109-18.35 0-16.245-1e-3 -18.341-24.11-18.341zm-8.663 13.643m-1.819 2.867c1.307 1e-3 2.358 1.079 2.358 2.361 0 1.28-1.052 2.36-2.359 2.36h-1e-3c-1.307 0-2.357-1.08-2.357-2.36 1e-3 -1.282 1.051-2.361 2.358-2.361zm8.662 0m1.821 0c1.307 1e-3 2.356 1.079 2.356 2.361 0 1.28-1.05 2.36-2.357 2.36h-1e-3c-1.307 0-2.358-1.08-2.358-2.36 0-1.282 1.051-2.361 2.359-2.361zm8.66 0m1.821 0c1.307 1e-3 2.358 1.079 2.358 2.361 0 1.28-1.052 2.36-2.359 2.36h-1e-3c-1.307 0-2.357-1.08-2.357-2.36 1e-3 -1.282 1.051-2.361 2.358-2.361z" stop-color="#000000" style="-inkscape-stroke:none;font-variation-settings:normal"/>
				<path d="m-314.37 981.88c-24.002 0-24.002 2.087-24.002 18.267 0 11.35 0.012 15.75 8.307 17.38-0.021 0.09-3.09 14.13-3.09 14.13h1e-3c0.124-0.08 18.784-13.25 18.784-13.25h1e-3c24.001 0 24.001-2.09 24.001-18.26v-0.01c0-16.17 0-18.257-24.002-18.257zm-8.905 14.025m-1.53 2.411c1.301 1e-3 2.348 1.075 2.348 2.351-1e-3 1.27-1.048 2.35-2.349 2.35h-1e-3c-1.301-0.01-2.346-1.08-2.346-2.35 0-1.277 1.045-2.351 2.347-2.351zm8.904 0m1.532 0c1.301 1e-3 2.346 1.075 2.346 2.351-1e-3 1.27-1.046 2.35-2.347 2.35h-1e-3c-1.301-0.01-2.348-1.08-2.348-2.35 1e-3 -1.277 1.047-2.351 2.349-2.351zm8.902 0m1.532 0c1.301 1e-3 2.348 1.075 2.348 2.351-1e-3 1.27-1.047 2.35-2.349 2.35h-1e-3c-1.301-0.01-2.346-1.08-2.346-2.35 1e-3 -1.277 1.046-2.351 2.347-2.351z" stop-color="#000000" style="-inkscape-stroke:none;font-variation-settings:normal"/>
				<path d="m-314.37 982c-23.899 0-23.899 2.077-23.899 18.187 0 11.3 0.013 15.69 8.272 17.3h-1e-3c-0.021 0.1-3.076 14.08-3.076 14.08h1e-3c0.127-0.09 18.703-13.2 18.703-13.2h1e-3c23.897 0 23.897-2.08 23.897-18.18v-0.01c0-16.1 0-18.177-23.898-18.177zm-9.138 14.391m-1.252 1.974c1.296 0 2.337 1.07 2.337 2.342 0 1.27-1.042 2.33-2.338 2.33h-1e-3c-1.296 0-2.336-1.06-2.336-2.33 0-1.273 1.041-2.342 2.337-2.342zm9.137 0m1.254 0c1.296 0 2.336 1.07 2.336 2.342-1e-3 1.27-1.041 2.33-2.337 2.33h-1e-3c-1.296 0-2.338-1.06-2.338-2.33 1e-3 -1.273 1.043-2.342 2.339-2.342zm9.135 0m1.254 0c1.296 0 2.338 1.07 2.338 2.342-1e-3 1.27-1.043 2.33-2.339 2.33h-1e-3c-1.296 0-2.336-1.06-2.336-2.33 1e-3 -1.273 1.041-2.342 2.337-2.342z" stop-color="#000000" style="-inkscape-stroke:none;font-variation-settings:normal"/>
				<path d="m-314.37 982.12c-23.799 0-23.799 2.069-23.799 18.103v0.01c0 11.25 0.012 15.62 8.237 17.23-0.022 0.1-3.064 14.02-3.064 14.02h1e-3c0.131-0.1 18.625-13.15 18.625-13.15h1e-3c23.797 0 23.798-2.07 23.798-18.11 0-16.034-1e-3 -18.103-23.799-18.103zm-9.362 14.745m-0.985 1.552c1.291 1e-3 2.328 1.066 2.328 2.326v0.01c0 1.26-1.038 2.32-2.329 2.32h-1e-3c-1.29 0-2.326-1.06-2.326-2.33 1e-3 -1.261 1.037-2.326 2.327-2.326zm9.361 0m0.987 0c1.29 1e-3 2.326 1.066 2.326 2.326v0.01c0 1.26-1.037 2.32-2.327 2.32h-1e-3c-1.29 0-2.328-1.06-2.328-2.33 0-1.261 1.038-2.326 2.329-2.326zm9.36 0m0.986 0c1.29 1e-3 2.328 1.066 2.328 2.326v0.01c-1e-3 1.26-1.039 2.32-2.329 2.32h-1e-3c-1.29 0-2.326-1.06-2.326-2.33 0-1.261 1.036-2.326 2.327-2.326z" stop-color="#000000" style="-inkscape-stroke:none;font-variation-settings:normal"/>
				<path d="m-314.37 982.23c-23.702 0-23.702 2.061-23.702 18.032 0 11.21 0.012 15.56 8.203 17.17-0.022 0.1-3.051 13.96-3.051 13.96 0.134-0.1 18.55-13.09 18.55-13.09h1e-3c23.701 0 23.701-2.06 23.701-18.04 0-15.971 0-18.032-23.702-18.032zm-9.579 15.086m-0.726 1.145c1.285 1e-3 2.319 1.061 2.319 2.321-1e-3 1.26-1.035 2.32-2.32 2.32h-1e-3c-1.285 0-2.317-1.06-2.317-2.32 1e-3 -1.261 1.033-2.321 2.318-2.321zm9.578 0m0.728 0c1.285 1e-3 2.317 1.061 2.317 2.321-1e-3 1.26-1.033 2.32-2.318 2.32h-1e-3c-1.285 0-2.319-1.06-2.319-2.32 1e-3 -1.261 1.035-2.321 2.32-2.321zm9.576 0m0.728 0c1.285 1e-3 2.318 1.061 2.318 2.321s-1.034 2.32-2.319 2.32h-1e-3c-1.285 0-2.317-1.06-2.317-2.32 1e-3 -1.261 1.033-2.321 2.318-2.321z" stop-color="#000000" style="-inkscape-stroke:none;font-variation-settings:normal"/>
				<path d="m-314.37 982.34c-23.609 0-23.609 2.053-23.609 17.965 0 11.16 0.012 15.5 8.171 17.1h-1e-3c-0.022 0.1-3.039 13.9-3.039 13.9h1e-3c0.137-0.1 18.477-13.04 18.477-13.04h1e-3c23.608 0 23.608-2.05 23.608-17.96 0-15.912 0-17.965-23.609-17.965zm-9.788 15.416m-0.476 0.752c1.28 0 2.309 1.056 2.309 2.307v0.01c-1e-3 1.25-1.03 2.3-2.31 2.3h-1e-3c-1.28 0-2.308-1.05-2.308-2.31 0-1.251 1.028-2.307 2.309-2.307zm9.787 0m0.478 0c1.28 0 2.307 1.056 2.307 2.307v0.01c0 1.25-1.028 2.3-2.308 2.3h-1e-3c-1.28 0-2.309-1.05-2.309-2.31 0-1.251 1.03-2.307 2.31-2.307zm9.785 0m0.478 0c1.28 0 2.31 1.056 2.31 2.307v0.01c-1e-3 1.25-1.03 2.3-2.311 2.3s-2.308-1.05-2.308-2.31c0-1.251 1.028-2.307 2.308-2.307z" stop-color="#000000" style="-inkscape-stroke:none;font-variation-settings:normal"/>
				<path d="m-314.37 982.44c-23.519 0-23.519 2.045-23.519 17.891 0 11.13 0.012 15.45 8.14 17.04-0.023 0.1-3.028 13.85-3.028 13.85h1e-3c0.139-0.1 18.406-12.99 18.406-12.99h1e-3c23.518 0 23.518-2.05 23.518-17.9 0-15.846-1e-3 -17.891-23.519-17.891zm-9.991 15.736m-0.234 0.37c1.275 0 2.3 1.053 2.3 2.305 0 1.25-1.026 2.3-2.301 2.3h-1e-3c-1.275 0-2.299-1.06-2.299-2.3 1e-3 -1.253 1.025-2.305 2.3-2.305zm9.99 0m0.236 0c1.275 0 2.299 1.053 2.299 2.305-1e-3 1.25-1.025 2.3-2.3 2.3h-1e-3c-1.275 0-2.301-1.06-2.301-2.3 1e-3 -1.253 1.027-2.305 2.302-2.305zm9.988 0m0.236 0c1.275 0 2.301 1.053 2.301 2.305-1e-3 1.25-1.026 2.3-2.302 2.3h-1e-3c-1.275 0-2.299-1.06-2.299-2.3 1e-3 -1.253 1.025-2.305 2.3-2.305z" stop-color="#000000" style="-inkscape-stroke:none;font-variation-settings:normal"/>
				<path d="m-314.37 982.54c-23.431 0-23.431 2.037-23.431 17.83 0 11.08 0.012 15.38 8.109 16.97-0.024 0.1-3.016 13.8-3.016 13.8 0.143-0.1 18.338-12.94 18.338-12.94h1e-3c23.43 0 23.43-2.04 23.43-17.83 0-15.793 0-17.83-23.431-17.83zm-10.188 16.046m1e-3 0c1.27 0 2.292 1.048 2.292 2.294-1e-3 1.24-1.022 2.29-2.293 2.29h-1e-3c-1.27 0-2.29-1.05-2.29-2.29 0-1.246 1.02-2.294 2.291-2.294zm10.187 0m1e-3 0c1.27 0 2.29 1.048 2.29 2.294 0 1.24-1.021 2.29-2.291 2.29h-1e-3c-1.271 0-2.292-1.05-2.292-2.29 0-1.246 1.022-2.294 2.293-2.294zm10.185 0m1e-3 0c1.271 0 2.292 1.048 2.292 2.294 0 1.24-1.022 2.29-2.293 2.29h-1e-3c-1.27 0-2.29-1.05-2.29-2.29 0-1.246 1.021-2.294 2.291-2.294z" stop-color="#000000" style="-inkscape-stroke:none;font-variation-settings:normal"/>
			</g>
		</g>
	</g>
</svg>
