<?xml version="1.0" encoding="UTF-8"?>
<!-- Created with Inkscape (http://www.inkscape.org/) -->
<svg width="64" height="64" version="1.1" xmlns="http://www.w3.org/2000/svg" xmlns:cc="http://creativecommons.org/ns#" xmlns:dc="http://purl.org/dc/elements/1.1/" xmlns:rdf="http://www.w3.org/1999/02/22-rdf-syntax-ns#" xmlns:xlink="http://www.w3.org/1999/xlink">
	<defs>
		<radialGradient id="b-2" cx="31.744" cy="30.855" r="32" gradientTransform="matrix(1.1553,0,0,1.1553,277.45,965.74)" gradientUnits="userSpaceOnUse">
			<stop stop-color="#465267" offset="0"/>
			<stop stop-color="#4f565e" offset="1"/>
		</radialGradient>
		<radialGradient id="c-3" cx="35.574" cy="1.019" r="32" gradientTransform="matrix(0,1.1252,-5.1753,0,37.271,-39.029)" gradientUnits="userSpaceOnUse" xlink:href="#a-7-7"/>
		<linearGradient id="a-7-7">
			<stop stop-color="#a6c7ce" stop-opacity=".04" offset="0"/>
			<stop stop-color="#b8d2d8" stop-opacity=".031373" offset="1"/>
		</linearGradient>
		<radialGradient id="d-2" cx="35.574" cy="1.036" r="32" gradientTransform="matrix(0,1.1252,-5.1753,0,37.363,-39.029)" gradientUnits="userSpaceOnUse" xlink:href="#a-7-7"/>
		<radialGradient id="e-2" cx="35.574" cy="1.055" r="32" gradientTransform="matrix(0,1.1252,-5.1753,0,37.458,-39.029)" gradientUnits="userSpaceOnUse" xlink:href="#a-7-7"/>
		<radialGradient id="f-8" cx="35.574" cy="1.071" r="32" gradientTransform="matrix(0,1.1252,-5.1753,0,37.544,-39.029)" gradientUnits="userSpaceOnUse" xlink:href="#a-7-7"/>
		<radialGradient id="g-9" cx="35.574" cy="1.091" r="32" gradientTransform="matrix(0,1.1252,-5.1753,0,37.648,-39.029)" gradientUnits="userSpaceOnUse" xlink:href="#a-7-7"/>
		<radialGradient id="h-7" cx="35.574" cy="1.113" r="32" gradientTransform="matrix(0,1.1252,-5.1753,0,37.758,-39.029)" gradientUnits="userSpaceOnUse" xlink:href="#a-7-7"/>
		<radialGradient id="i-3" cx="35.574" cy="1.135" r="32" gradientTransform="matrix(0,1.1252,-5.1753,0,37.875,-39.029)" gradientUnits="userSpaceOnUse" xlink:href="#a-7-7"/>
		<radialGradient id="j-6" cx="35.574" cy="1.159" r="32" gradientTransform="matrix(0,1.1252,-5.1753,0,38,-39.029)" gradientUnits="userSpaceOnUse" xlink:href="#a-7-7"/>
		<radialGradient id="k-1" cx="35.574" cy="1.18" r="32" gradientTransform="matrix(0,1.1252,-5.1753,0,38.107,-39.029)" gradientUnits="userSpaceOnUse" xlink:href="#a-7-7"/>
		<radialGradient id="l-2" cx="35.574" cy="1.208" r="32" gradientTransform="matrix(0,1.1252,-5.1753,0,38.252,-39.029)" gradientUnits="userSpaceOnUse" xlink:href="#a-7-7"/>
		<radialGradient id="m-9" cx="35.574" cy="1.239" r="32" gradientTransform="matrix(0,1.1252,-5.1753,0,38.411,-39.029)" gradientUnits="userSpaceOnUse" xlink:href="#a-7-7"/>
		<radialGradient id="n-3" cx="35.574" cy="1.273" r="32" gradientTransform="matrix(0,1.1252,-5.1753,0,38.587,-39.029)" gradientUnits="userSpaceOnUse" xlink:href="#a-7-7"/>
		<radialGradient id="o-1" cx="35.574" cy="1.304" r="32" gradientTransform="matrix(0,1.1252,-5.1753,0,38.75,-39.029)" gradientUnits="userSpaceOnUse" xlink:href="#a-7-7"/>
		<radialGradient id="p-9" cx="35.574" cy="1.346" r="32" gradientTransform="matrix(0,1.1252,-5.1753,0,38.966,-39.029)" gradientUnits="userSpaceOnUse" xlink:href="#a-7-7"/>
		<radialGradient id="q-4" cx="35.574" cy="1.393" r="32" gradientTransform="matrix(0,1.1252,-5.1753,0,39.208,-39.029)" gradientUnits="userSpaceOnUse" xlink:href="#a-7-7"/>
		<radialGradient id="r-7" cx="35.574" cy="1.439" r="32" gradientTransform="matrix(0,1.1252,-5.1753,0,39.446,-39.027)" gradientUnits="userSpaceOnUse" xlink:href="#a-7-7"/>
		<radialGradient id="s-84" cx="32" cy="15.077" r="32" gradientTransform="matrix(2.0435 0 0 .0149 -33.393 1.217)" gradientUnits="userSpaceOnUse">
			<stop stop-color="#fff" stop-opacity=".126" offset="0"/>
			<stop stop-color="#fff" stop-opacity=".001" offset="1"/>
		</radialGradient>
	</defs>
	<metadata>
		<rdf:RDF>
			<cc:Work rdf:about="">
				<dc:format>image/svg+xml</dc:format>
				<dc:type rdf:resource="http://purl.org/dc/dcmitype/StillImage"/>
			</cc:Work>
		</rdf:RDF>
	</metadata>
	<g>
		<g transform="translate(346.38,-971.27)">
			<rect transform="scale(-1,1)" x="282.38" y="971.27" width="64" height="64" rx="1" ry="1" fill="url(#b-2)" paint-order="fill markers stroke"/>
			<path transform="translate(-346.38,971.33)" d="m1 0c-0.554 0-1 0.446-1 1v62-0.224 0.224-62h1.752c19.15 2e-3 39.445 0 60.213 0h2.035v62-0.334 0.334-62a0.998 0.998 0 0 0-1-1z" fill="url(#c-3)"/>
			<path transform="translate(-346.38,971.33)" d="m1 0a0.998 0.998 0 0 0-1 1.006v61.98-0.197c0-0.277 4e-3 -0.184 0.01 0.246 0.012 0.016 0.03-0.297 0.052-0.897v-61c0.072-9e-3 0.133-0.013 0.185-0.013 0.29-0.016 0.357-0.032 0.774-0.044 0.246-0.011 0.496-0.019 0.747-0.019 19.183 2e-3 39.392 0 60.2 0 0.346 0 0.689 0.012 1.023 0.03 0.268 0.01 0.389 0.02 0.52 0.033 0.106 0 0.22 0.01 0.427 0.028v60.744c0.027 0.754 0.05 1.148 0.059 1.123l3e-3 -0.334v0.286-61.762c0-0.143 0-0.22-2e-3 -0.224a0.996 0.996 0 0 0-1.012-0.986h-61.986" fill="url(#d-2)"/>
			<path transform="translate(-346.38,971.33)" d="m1 0a0.998 0.998 0 0 0-1 1.006v61.966-0.169c0-0.245 8e-3 -0.145 0.021 0.266 0.022 0.034 0.06-0.247 0.104-0.807v-60.988a0.744 0.744 0 0 1 0.173-0.025c0.27-0.031 0.341-0.064 0.743-0.088 0.242-0.022 0.492-0.037 0.742-0.037 19.217 2e-3 39.34 0 60.187 0 0.347 0 0.69 0.024 1.013 0.06 0.256 0.02 0.372 0.042 0.494 0.065 0.1 0 0.206 0.02 0.398 0.057v60.731c0.055 0.703 0.102 1.052 0.119 1.003 4e-3 -0.154 6e-3 -0.265 6e-3 -0.333v0.237-61.748c0-0.139 0-0.215-3e-3 -0.224a0.994 0.994 0 0 0-0.807-0.952 1.025 1.025 0 0 0-0.217-0.02h-61.973" fill="url(#e-2)"/>
			<path transform="translate(-346.38,971.33)" d="m1 0a0.998 0.998 0 0 0-1 1.005v61.953-0.14c0-0.213 0.012-0.107 0.031 0.287 0.034 0.05 0.091-0.198 0.156-0.718v-60.974a0.45 0.45 0 0 1 0.16-0.037c0.252-0.048 0.327-0.097 0.715-0.132 0.238-0.034 0.487-0.056 0.737-0.056 19.25 2e-3 39.286 0 60.173 0 0.348 0 0.688 0.036 1.001 0.09 0.244 0.029 0.356 0.062 0.47 0.098 0.091 0 0.19 0.03 0.37 0.085v60.718c0.082 0.653 0.151 0.957 0.176 0.884 7e-3 -0.152 0.01-0.262 0.01-0.333v0.188-61.734c0-0.135 0-0.21-4e-3 -0.224a0.992 0.992 0 0 0-0.819-0.94 1.041 1.041 0 0 0-0.217-0.018h-61.96" fill="url(#f-8)"/>
			<path transform="translate(-346.38,971.33)" d="m1 0a0.998 0.998 0 0 0-1 1.005v61.939-0.113c0-0.18 0.015-0.068 0.042 0.308 0.045 0.067 0.121-0.149 0.208-0.629v-60.96a0.312 0.312 0 0 1 0.148-0.05c0.232-0.063 0.311-0.128 0.684-0.176 0.234-0.044 0.483-0.074 0.732-0.074 19.284 2e-3 39.234 0 60.16 0 0.35 0 0.689 0.048 0.991 0.12 0.232 0.039 0.34 0.083 0.444 0.13 0.085 0 0.176 0.04 0.341 0.114v60.704c0.11 0.603 0.203 0.862 0.236 0.764 8e-3 -0.11 0.013-0.222 0.014-0.333v0.14-61.721c0-0.13-2e-3 -0.206-6e-3 -0.224a0.991 0.991 0 0 0-0.83-0.927 1.066 1.066 0 0 0-0.22-0.017h-61.944" fill="url(#g-9)"/>
			<path transform="translate(-346.38,971.33)" d="m1 0a0.998 0.998 0 0 0-1 1.004v61.926-0.084c0-0.148 0.02-0.029 0.052 0.328 0.056 0.084 0.152-0.099 0.26-0.539v-60.949c0.053-0.04 0.097-0.061 0.136-0.061 0.212-0.08 0.297-0.16 0.655-0.22 0.23-0.056 0.477-0.093 0.727-0.093 19.317 2e-3 39.18 0 60.147 0 0.35 0 0.688 0.06 0.98 0.151 0.22 0.047 0.322 0.102 0.418 0.162 0.078 0 0.162 0.049 0.313 0.142v60.69c0.137 0.553 0.253 0.767 0.295 0.645a4.7 4.7 0 0 0 0.017-0.332v0.09-61.705c0-0.126-2e-3 -0.202-7e-3 -0.224a0.99 0.99 0 0 0-0.843-0.914 1.099 1.099 0 0 0-0.218-0.017h-61.932" fill="url(#h-7)"/>
			<path transform="translate(-346.38,971.33)" d="m1 0a0.998 0.998 0 0 0-1 1.004v61.912-0.056c0-0.117 0.023 0.01 0.063 0.349 0.067 0.1 0.182-0.05 0.312-0.45v-60.935c0.048-0.049 0.088-0.074 0.123-0.074 0.193-0.095 0.282-0.192 0.626-0.264 0.225-0.067 0.472-0.11 0.721-0.11h60.133c0.352 0 0.688 0.071 0.97 0.18 0.144 0.033 0.279 0.1 0.393 0.194 0.07 0 0.147 0.059 0.284 0.17v60.68c0.164 0.502 0.304 0.671 0.354 0.524 0.014-0.14 0.02-0.25 0.02-0.331v0.042-61.695c0-0.121-2e-3 -0.197-9e-3 -0.224a0.99 0.99 0 0 0-0.854-0.902 1.142 1.142 0 0 0-0.218-0.014h-61.918" fill="url(#i-3)"/>
			<path transform="translate(-346.38,971.33)" d="m1 0a0.998 0.998 0 0 0-1 1.004v61.898-0.029c0-0.084 0.027 0.049 0.073 0.37 0.079 0.117 0.212 0 0.365-0.36v-60.923c0.043-0.057 0.079-0.086 0.11-0.086 0.174-0.112 0.267-0.225 0.596-0.309a2.19 2.19 0 0 1 0.717-0.129c19.385 2e-3 39.075 0 60.12 0 0.353 0 0.687 0.084 0.958 0.211a0.81 0.81 0 0 1 0.368 0.227c0.063 0 0.132 0.068 0.256 0.199v60.665c0.192 0.452 0.354 0.576 0.413 0.404 0.014-0.11 0.022-0.22 0.024-0.33v-61.687c0-0.117-4e-3 -0.193-0.01-0.224a0.99 0.99 0 0 0-0.868-0.89 1.198 1.198 0 0 0-0.217-0.011h-61.905" fill="url(#j-6)"/>
			<path transform="translate(-346.38,971.33)" d="m1 0a0.998 0.998 0 0 0-1 1.003v61.885c0-0.052 0.03 0.087 0.084 0.39 0.09 0.135 0.242 0.05 0.416-0.27v-60.911c0.038-0.063 0.07-0.097 0.099-0.097 0.154-0.127 0.251-0.257 0.566-0.352 0.217-0.089 0.463-0.148 0.711-0.148 19.418 2e-3 39.022 0 60.107 0 0.355 0 0.687 0.096 0.947 0.242 0.138 0.05 0.257 0.14 0.343 0.258 0.056 0 0.118 0.079 0.227 0.227v60.651c0.22 0.402 0.406 0.482 0.473 0.285 0.018-0.132 0.027-0.243 0.027-0.33v-61.721c0-0.113-4e-3 -0.188-0.012-0.224a0.99 0.99 0 0 0-0.879-0.877 1.273 1.273 0 0 0-0.218-0.011h-61.89" fill="url(#k-1)"/>
			<path transform="translate(-346.38,971.33)" d="m1 0a0.998 0.998 0 0 0-1 1.003v61.899c0-0.02 0.035 0.126 0.094 0.41 0.101 0.152 0.273 0.1 0.468-0.18v-60.897c0.034-0.073 0.062-0.11 0.087-0.11 0.135-0.143 0.236-0.29 0.536-0.397 0.213-0.1 0.459-0.166 0.707-0.166 19.452 2e-3 38.969 0 60.093 0 0.356 0 0.687 0.108 0.936 0.272 0.134 0.06 0.246 0.162 0.317 0.29 0.05 0 0.103 0.089 0.2 0.256v60.64c0.246 0.352 0.455 0.386 0.531 0.165 0.02-0.128 0.03-0.239 0.03-0.33v-61.755c0-0.108-4e-3 -0.184-0.013-0.224a0.99 0.99 0 0 0-0.891-0.864 1.376 1.376 0 0 0-0.218-0.01h-61.877" fill="url(#l-2)"/>
			<path transform="translate(-346.38,971.33)" d="m1 0a0.998 0.998 0 0 0-1 1.002v61.913c0 0.013 0.039 0.165 0.105 0.432 0.112 0.168 0.303 0.148 0.52-0.092v-60.882c0.029-0.081 0.053-0.123 0.074-0.123 0.116-0.159 0.222-0.321 0.507-0.44a1.52 1.52 0 0 1 0.701-0.185c19.486 2e-3 38.916 0 60.08 0 0.357 0 0.687 0.12 0.925 0.302a0.66 0.66 0 0 1 0.292 0.323c0.043 0 0.089 0.098 0.171 0.284v60.626c0.275 0.302 0.507 0.29 0.591 0.046 0.022-0.125 0.034-0.236 0.034-0.33v-61.791c0-0.104-5e-3 -0.18-0.016-0.224a0.99 0.99 0 0 0-0.903-0.852 1.514 1.514 0 0 0-0.218-8e-3h-61.863" fill="url(#m-9)"/>
			<path transform="translate(-346.38,971.33)" d="m1 0a0.998 0.998 0 0 0-1 1.002v61.928c0 0.045 0.042 0.203 0.115 0.453 0.123 0.184 0.333 0.197 0.572-3e-3v-60.87c0.024-0.089 0.045-0.135 0.062-0.135 0.097-0.174 0.207-0.353 0.478-0.484 0.204-0.122 0.448-0.203 0.696-0.203 19.519 2e-3 38.863 0 60.067 0a1.4 1.4 0 0 1 0.914 0.332c0.15 0.103 0.224 0.225 0.267 0.355 0.035 0 0.073 0.108 0.142 0.313v60.612c0.302 0.251 0.557 0.196 0.65-0.074a1.7 1.7 0 0 0 0.037-0.33v-61.825c0-0.1-6e-3 -0.175-0.017-0.224a0.99 0.99 0 0 0-0.915-0.84 1.712 1.712 0 0 0-0.218-7e-3h-61.85" fill="url(#n-3)"/>
			<path transform="translate(-346.38,971.33)" d="m1 0a0.998 0.998 0 0 0-1 1.002v61.942c0 0.077 0.046 0.242 0.126 0.473 0.134 0.201 0.363 0.246 0.624 0.086v-60.856c0.02-0.097 0.035-0.147 0.05-0.147a0.981 0.981 0 0 1 0.447-0.529c0.2-0.133 0.444-0.221 0.691-0.221 19.553 2e-3 38.811 0 60.053 0 0.36 0 0.686 0.144 0.903 0.362a0.688 0.688 0 0 1 0.242 0.388c0.028 0 0.059 0.118 0.114 0.341v60.598c0.33 0.2 0.608 0.1 0.709-0.194 0.026-0.117 0.04-0.228 0.04-0.329v-61.86c0-0.095-6e-3 -0.17-0.018-0.224a0.991 0.991 0 0 0-0.927-0.827 2.015 2.015 0 0 0-0.218-5e-3h-61.836" fill="url(#o-1)"/>
			<path transform="translate(-346.38,971.33)" d="m1 0a0.998 0.998 0 0 0-1 1.001v61.956c0 0.11 0.05 0.281 0.136 0.494 0.146 0.218 0.394 0.296 0.677 0.176v-60.843c0.014-0.105 0.026-0.16 0.036-0.16a0.967 0.967 0 0 1 0.419-0.572c0.196-0.144 0.439-0.24 0.686-0.24 19.586 2e-3 38.758 0 60.04 0 0.36 0 0.685 0.156 0.892 0.392a0.73 0.73 0 0 1 0.216 0.42c0.021 0 0.044 0.128 0.086 0.37v60.585c0.356 0.15 0.658 5e-3 0.768-0.314 0.029-0.114 0.044-0.224 0.044-0.328v-61.895c0-0.09-7e-3 -0.166-0.02-0.224a0.992 0.992 0 0 0-0.94-0.814 2.524 2.524 0 0 0-0.217-5e-3h-61.823" fill="url(#p-9)"/>
			<path transform="translate(-346.38,971.33)" d="m1 0a0.998 0.998 0 0 0-1 1v61.972c0 0.142 0.054 0.32 0.147 0.515 0.156 0.241 0.453 0.35 0.728 0.265v-60.83c0.01-0.114 0.018-0.172 0.025-0.172a0.97 0.97 0 0 1 0.389-0.617c0.192-0.155 0.434-0.258 0.68-0.258 19.62 2e-3 38.705 0 60.027 0 0.362 0 0.686 0.168 0.882 0.422 0.11 0.127 0.176 0.286 0.19 0.453 0.015 0 0.03 0.137 0.057 0.398v60.572c0.385 0.1 0.71-0.09 0.828-0.434 0.03-0.11 0.047-0.22 0.047-0.328v-61.93c0-0.086-7e-3 -0.161-0.021-0.224a0.994 0.994 0 0 0-0.951-0.802 3.563 3.563 0 0 0-0.219-2e-3h-61.809" fill="url(#q-4)"/>
			<path transform="translate(-346.38,971.33)" d="m1 2e-3a0.998 0.998 0 0 0-1 1v61.986c0 0.174 0.058 0.358 0.157 0.535 0.17 0.259 0.473 0.397 0.78 0.355v-60.816c5e-3 -0.122 0.01-0.185 0.013-0.185a0.987 0.987 0 0 1 0.36-0.66c0.187-0.166 0.429-0.277 0.675-0.277 19.653 2e-3 38.652 0 60.013 0 0.363 0 0.685 0.18 0.87 0.452 0.102 0.141 0.16 0.31 0.166 0.485 7e-3 0 0.015 0.147 0.028 0.427v60.558c0.412 0.05 0.76-0.186 0.887-0.553a1.1 1.1 0 0 0 0.05-0.328v-61.965a0.996 0.996 0 0 0-0.985-1.014 6.67 6.67 0 0 0-0.22 0h-61.794" fill="url(#r-7)"/>
			<path transform="translate(-346.38,971.33)" d="m1 2e-3a0.998 0.998 0 0 0-1 1v1h64v-0.998a0.998 0.998 0 0 0-1-1h-62z" fill="url(#s-84)"/>
		</g>
	</g>
	<path d="m2.7188 0-0.8125 0.23437h3.8125l-0.8125-0.23437zm3 0.23437h3.8125l-0.8125-0.23437h-2.1875zl-1.9062 0.53125h3.8125zm1.9062 0.53125h3.8125l-1.9062-0.53125zl-1.9062 0.54687h3.8125zm1.9062 0.54687h3.8125l-1.9062-0.54687zl-1.9062 0.54688h3.8125zm1.9062 0.54688h3.8125l-1.9062-0.54688zl-0.5 0.14062h1zm1.9062-0.54688h3.8125l-1.9062-0.54687zm1.9062-0.54687-1.9062-0.53125-1.9062 0.53125zh3.8125l-1.9062-0.53125zm1.9062-0.53125-0.8125-0.23437h-2.1875l-0.8125 0.23437zh3.8125l-0.8125-0.23437h-2.1875zm3.8125 0h3.8125l-0.8125-0.23437h-2.1562zl-1.9062 0.53125h3.8438zm1.9375 0.53125h3.8125l-1.9375-0.53125zl-1.9375 0.54687h3.8125zm1.875 0.54687h3.8438l-1.9062-0.54687zl-1.875 0.54688h3.8125zm1.9375 0.54688h3.8125l-1.9062-0.54688zl-0.5 0.14062h1zm1.9062-0.54688h3.8125l-1.9062-0.54687zm1.9062-0.54687-1.9062-0.53125-1.9062 0.53125zh3.8125l-1.9062-0.53125zm1.9062-0.53125-0.8125-0.23437h-2.1875l-0.8125 0.23437zh3.8125l-0.8125-0.23437h-2.1875zm3.8125 0h3.8125l-0.8125-0.23437h-2.1875zl-1.9062 0.53125h3.8125zm1.9062 0.53125h3.8438l-1.9375-0.53125zl-1.9062 0.54687h3.8125zm1.9062 0.54687h3.8438l-1.9062-0.54687zl-1.9062 0.54688h3.8438zm1.9375 0.54688h3.8125l-1.9062-0.54688zl-0.5 0.14062h1zm1.9062-0.54688h3.8125l-1.9062-0.54687zm1.9062-0.54687-1.9062-0.53125-1.9062 0.53125zh3.8125l-1.9062-0.53125zm1.9062-0.53125-0.8125-0.23437h-2.1875l-0.8125 0.23437zh3.8125l-0.8125-0.23437h-2.1875zm3.8125 0h3.8125l-0.8125-0.23437h-2.1875zl-1.9062 0.53125h3.8125zm1.9062 0.53125h3.8438l-1.9375-0.53125zl-1.9062 0.54687h3.8125zm1.9062 0.54687h3.8438l-1.9062-0.54687zl-1.9062 0.54688h3.8438zm1.9375 0.54688h3.7812l-1.875-0.54688zl-0.5 0.14062h1zm1.9062-0.54688h3.8125l-1.9375-0.54687zm1.875-0.54687-1.875-0.53125-1.9062 0.53125zh2.9375v-0.25l-0.46875-0.125-0.5625-0.14062zm-1.875-0.53125-0.8125-0.23437h-2.1875l-0.84375 0.23437zh3.75l-0.9375-0.23437h-2zm3.8125 1.0781h1v-0.28125zl-1.9375 0.54688h2.9375v-0.26562zm-1.9375 0.54688-0.46875 0.14062h0.96875zm-7.625 0-0.5 0.14062h1zl-1.9062-0.54688-1.9062 0.54688zm-3.8125 0-0.5 0.14062h1zl-1.9062-0.54688-1.9062 0.54688zm-3.8125 0-0.5 0.14062h1zm1.9062-0.54688h3.8125l-1.9062-0.54687zm-3.8125-1.0781-0.8125-0.23437h-2.1875l-0.84375 0.23437zm-5.75 1.625-0.5 0.14062h1zl-1.9062-0.54688-1.9062 0.54688zm-3.8125 0-0.5 0.14062h1zl-1.9062-0.54688-1.9062 0.54688zm-3.8125 0-0.5 0.14062h1zm1.9062-0.54688h3.8125l-1.9062-0.54687zm-3.8125-1.0781-0.8125-0.23437h-2.1875l-0.84375 0.23437zm-5.7188 1.625-0.5 0.14062h0.96875zl-1.9375-0.54688-1.9062 0.54688zm-3.8438 0-0.5 0.14062h1zl-1.9062-0.54688-1.9062 0.54688zm-3.8125 0-0.5 0.14062h1zm1.9062-0.54688h3.8125l-1.9062-0.54687zm-3.8125-1.0781-0.8125-0.23437h-2.1875l-0.8125 0.23437zm-5.7188 1.625-0.5 0.14062h1zl-1.9062-0.54688-1.9062 0.54688zm-3.8125 0-0.5 0.14062h1zl-1.9062-0.54688-1.9062 0.53125v0.015625zm-1.9062-0.54688-1.9062-0.53125v0.53125zh3.8125l-1.9062-0.54687zm1.9062-0.54687-1.9062-0.53125-1.9062 0.51562v0.015625zm-1.9062-0.53125-0.40625-0.10938-0.4375 0.10938zm-1.9062 1.6406v0.125h0.46875z" fill="#84caff" fill-opacity=".34258"/>
	<path d="m0 2v2.3573h1.9062l-1.3438-2.3573zm1.9062 2.3573h3.8125l-1.3125-2.3573h-1.1875zl-1.9062 3.326v0.064583h3.8125zm1.9062 3.3906h3.8125l-1.9062-3.3906zl-1.9062 3.4229h3.8125zm1.9062 3.4229h3.8125l-1.9062-3.4229zl-1.9062 3.4229h3.8125zm1.9062 3.4229h3.8125l-1.9062-3.4229zl-1.9062 3.4229h3.8125zm1.9062 3.4229h3.8125l-1.9062-3.4229zl-1.9062 3.4229h3.8125zm1.9062 3.4229h3.8125l-1.9062-3.4229zl-1.9062 3.3906h3.8125zm1.9062 3.3906h0.53125c0.49023-1.0009 1.0802-1.9189 1.7188-2.7771l-0.34375-0.61354zl-1.9062 3.4229h1.25c0.24745-1.0288 0.57062-1.9822 0.96875-2.874zm-1.9062 3.4229-1.9062 3.4229h2.6562c0.01065-0.19591 0.01566-0.3822 0.03125-0.58125 0.03137-0.40058 0.10278-0.78137 0.15625-1.1625zl-1.9062-3.4229-1.9062 3.4229zm-3.8125 0-1.9062 3.4229h3.8125zl-1.9062-3.4229-1.9062 3.4229zm-3.8125 0-1.9062 3.4229h3.8125zl-1.9062-3.4229-1.9062 3.3583v0.06458zm-1.9062-3.4229-1.9062-3.326v3.326zh3.8125l-1.9062-3.3906zm1.9062-3.3906-1.9062-3.4229-1.9062 3.3583v0.06458zh3.8125l-1.9062-3.4229zm1.9062-3.4229-1.9062-3.4229-1.9062 3.4229zm-3.8125 0-1.9062-3.3583v3.3583zm1.9062-3.4229-1.9062-3.4229-1.9062 3.3583v0.06458zm-1.9062-3.4229-1.9062-3.3583v3.3583zm5.7188 10.269-1.9062 3.3906h3.8125zm-1.9062 10.236-1.9062 3.4229h3.8125zm1.9062 3.4229h3.8125l-1.9062-3.4229zl-1.9062 3.4229h3.8125zm1.9062 3.4229h3.3438c-0.1259-0.44659-0.21797-0.91681-0.3125-1.3885l-1.125-2.0344zl-1.9062 3.4229h3.8125zm1.9062 3.4229h2.8125c-0.46546-0.89573-0.89384-1.8443-1.2188-2.874zl-1.9062 3.3906h3.8125zm1.9062 3.3906h3.1875c-0.64885-0.75845-1.2426-1.5815-1.7812-2.4865zl-1.9062 3.4229h3.8125zm1.9062 3.4229h3.8125l-1.0312-1.8406c-0.38429-0.355-0.76248-0.73297-1.125-1.1302zl-1.9062 3.4229h3.8125zm1.9062 3.4229h3.8125l-1.9062-3.4229zl-1.9062 3.4229h3.8125zm1.9062 3.4229h3.8438l-1.9375-3.4229zl-1.9062 3.4229h3.8125zm1.9062 3.4229h3.8125l-1.875-3.4229zl-1.9062 3.3906h3.8438zm1.9375 3.3906h3.8125l-1.9375-3.3906zl-0.90625 1.5823h1.7812zm1.875-3.3906h3.8438l-1.9062-3.4229zm1.9375-3.4229-1.9375-3.4229-1.875 3.4229zh3.8125l-1.9062-3.4229zm1.9062-3.4229-0.3125-0.58125c-0.98912-0.10629-1.9594-0.25497-2.9062-0.51667l-0.625 1.0979zh3.8125l-0.3125-0.58125c-1.0725 0.10991-2.1539 0.14417-3.2188 0.06458zm3.8125 0h3.8125l-0.71875-1.2594c-0.89814 0.28038-1.7964 0.4826-2.7188 0.61354h-0.03125zl-1.9062 3.4229h3.8125zm1.9062 3.4229h3.8125l-1.9062-3.4229zl-1.9062 3.4229h3.8125zm1.9062 3.4229h3.8125l-1.9062-3.4229zl-1.9062 3.3906h3.8125zm1.9062 3.3906h3.8438l-1.9375-3.3906zl-0.875 1.5823h1.75zm1.9062-3.3906h3.8438l-1.9062-3.4229zm1.9375-3.4229-1.9375-3.4229-1.9062 3.4229zh3.8125l-1.9062-3.4229zm1.9062-3.4229-1.9062-3.4229-1.9375 3.4229zh3.8125l-1.9062-3.4229zm1.9062-3.4229-1.9062-3.4229-1.9062 3.4229zh3.8125l-1.9062-3.4229zm1.9062-3.4229-1.7188-3.0354c-0.58697 1.0887-1.293 2.0948-2.0938 3.0354zh3.8125l-1.9062-3.3906zm1.9062-3.3906-1.9062-3.4229-0.46875 0.83958c-0.29848 0.90073-0.64162 1.759-1.0625 2.5833zh3.8125l-1.9062-3.4229zm1.9062-3.4229-1.9062-3.4229-1.9062 3.4229zh3.8125l-1.9062-3.4229zm1.9062-3.4229-1.9062-3.4229-1.9062 3.4229zh3.8438l-1.9375-3.4229zm1.9062-3.4229-1.9062-3.4229-1.9062 3.4229zh3.8438l-1.9062-3.4229zm1.9375-3.4229-1.9375-3.4229-1.9062 3.4229zh3.7812l-1.875-3.4229zm1.9062-3.4229-1.9062-3.3906-1.9375 3.3906zh3.8125l-1.9375-3.3906zm1.875-3.3906-1.875-3.4229-1.9062 3.4229zh2.9375v-1.6146l-1-1.8083zm1.9375-3.4229-1.9375-3.4229-1.875 3.4229zh1v-1.8083zm-3.8125 0-1.9062-3.4229-1.9375 3.4229zm-3.8438 0-1.9062 3.4229h3.8438zl-1.9062-3.4229-1.9062 3.4229zm-3.8125 0-1.9062 3.4229h3.8125zl-1.9062-3.4229-1.9062 3.4229zm-3.8125 0-1.9062 3.4229h3.8125zl-1.9062-3.4229-1.9062 3.4229zm-3.8125 0-0.9375 1.7115c0.5016 0.50821 0.96681 1.0742 1.4375 1.7115h1.4062zl-1.9062-3.4229-1.6562 2.9385c0.22058 0.15174 0.41523 0.32642 0.625 0.48438zm-1.9062-3.4229-1.9375-3.4229-1.9062 3.4229zh3.8125l-1.9062-3.4229zm1.9062-3.4229-1.9062-3.4229-1.9375 3.4229zh3.8125l-1.9062-3.4229zm1.9062-3.4229-1.9062-3.3906-1.9062 3.3906zh3.8125l-1.9062-3.3906zm1.9062-3.3906-1.3125-2.3573h-1.1875l-1.3125 2.3573zh3.8125l-1.3125-2.3573h-1.1875zm3.8125 0h3.8125l-1.3125-2.3573h-1.1875zl-1.9062 3.3906h3.8125zm1.9062 3.3906h3.8438l-1.9375-3.3906zl-1.9062 3.4229h3.8125zm1.9062 3.4229h3.8438l-1.9062-3.4229zl-1.9062 3.4229h3.8438zm1.9375 3.4229h3.7812l-1.875-3.4229zm1.9062-3.4229h3.8125l-1.9375-3.4229zm1.875-3.4229-1.875-3.3906-1.9062 3.3906zh2.9375v-1.6146l-1-1.776zm1.9375-3.3906-1.3438-2.3573h-1.1875l-1.2812 2.3573zh1v-1.8083zm-3.8125 0-1.3125-2.3573h-1.1875l-1.3438 2.3573zm3.8125 6.8135h1v-1.8083zl-1.9375 3.4229h2.9375v-1.6146zm-9.5625 3.4229-1.9062-3.4229-1.9062 3.4229zm-3.8125 0-1.9062-3.4229-1.9062 3.4229zm-1.9062-3.4229h3.8125l-1.9062-3.4229zm-3.8125-6.8135-1.3125-2.3573h-1.1875l-1.3438 2.3573zm-3.8438 0-1.875 3.3906h3.8125zl-1.2812-2.3573h-1.1875l-1.3438 2.3573zm-3.8125 0-1.9062 3.3906h3.8125v0.032292l-1.9062 3.3906h3.8125l-1.875-3.4229zl-1.3125-2.3573h-1.1875l-1.3125 2.3573zm-3.8125 0-1.9062 3.3906h3.8125zl-1.3125-2.3573h-1.1875l-1.3125 2.3573zm-3.8125 0-1.9062 3.3906h3.8125zl-1.3125-2.3573h-1.1875l-1.3438 2.3573zm-3.8438 0-1.875 3.3906h3.8125zl-1.2812-2.3573h-1.1875l-1.3438 2.3573zm-3.8125 0-1.9062 3.3906h3.8438zl-1.3125-2.3573h-1.1875l-1.3125 2.3573zm-3.8125 0-1.9062 3.3906h3.8125zl-1.3125-2.3573h-1.1875l-1.3125 2.3573zm-3.8125 0-1.9062 3.3906h3.8125zl-1.3125-2.3573h-1.1875l-1.3125 2.3573zm-3.8125 0-1.9062 3.3906h3.8125zl-1.3125-2.3573h-1.1875l-1.3125 2.3573zm1.9062 3.3906-1.9062 3.4229h3.8125zm1.9062 3.4229h3.8125l-1.9062-3.4229zl-1.9062 3.4229h3.8125zm1.9062 3.4229h3.8125l-1.9062-3.4229zl-1.9062 3.4229h3.8125zm1.9062 3.4229h2.375c0.33419-0.25699 0.66985-0.50502 1.0312-0.74271l-1.5-2.6802zl-1.9062 3.4229h0.8125c0.39696-0.49336 0.81798-0.96478 1.25-1.4208 0.19626-0.20719 0.41609-0.41119 0.625-0.61354zm1.9062-3.4229h3.8438l-1.9375-3.4229zm1.9062-3.4229-1.9062-3.4229-1.9062 3.4229zh3.8125l-1.875-3.4229zm3.8125 0h3.8438l-1.9062-3.4229zl-1.875 3.4229h3.8125zm1.9375 3.4229h1.6875c0.69728-0.06328 1.382-0.09912 2.0312-0.09688 0.01059 3.7e-5 0.02067-5.3e-5 0.03125 0l-1.8438-3.326zl-0.15625 0.25833c0.0902-0.01739 0.18999-0.01618 0.28125-0.03229zm1.9062-3.4229h3.8125l-1.9062-3.4229zm3.8125 0h3.8125l-1.9062-3.4229zl-1.8438 3.326c0.62196 0.0071 1.2301 0.03417 1.8125 0.09688h1.9375zm1.9062 3.4229h3.8125l-1.9062-3.4229zl-0.15625 0.29062c0.12734 0.02718 0.24975 0.06717 0.375 0.09688zm3.8125 0-0.75 1.324c0.74958 0.32501 1.4349 0.69622 2.0938 1.0979zm-15.25 0-1.125 1.9698c0.55073-0.29894 1.1406-0.56394 1.75-0.80729zm22.906 6.8458-0.625 1.1302c0.44033 0.69985 0.84901 1.4585 1.2188 2.2604h1.3125zm1.9062 3.3906h3.8125l-1.9062-3.3906zl-0.75 1.3562c0.252 0.66788 0.47037 1.3506 0.65625 2.0667h2zm1.9062 3.4229h3.8125l-1.9062-3.4229zl-1.4688 2.6479c0.03058 0.2558 0.04193 0.51547 0.0625 0.775h3.3125zm1.9062-3.4229h3.8125l-1.9062-3.3906zm11.469 0h1v-1.776zl-1.9375 3.4229h2.9375v-1.6146zm-1.9375 3.4229-1.875 3.4229h3.8125zm1.9375 3.4229h1v-1.8083zl-1.9375 3.4229h2.9375v-1.6146zm-1.9375 3.4229-1.875 3.4229h3.8125zl-1.875-3.4229-1.9062 3.4229zm-3.7812 0-1.9375 3.4229h3.8438zm1.9062 3.4229-1.9062 3.4229h3.7812zm1.875 3.4229h2.9375v-1.6146l-1-1.8083zl-1.875 3.3906h3.8125zm1.9375 3.3906h1v-1.776zl-1.9375 3.4229h2.9375v-1.6146zm-1.9375 3.4229-1.875 3.4229h3.8125zl-1.875-3.4229-1.9062 3.4229zm-3.7812 0-1.9375 3.4229h3.8438zl-1.9375-3.4229-1.9062 3.4229zm-3.8438 0-1.9062 3.4229h3.8125zl-1.9062-3.4229-1.9062 3.4229zm-3.8125 0-1.9062 3.4229h3.8125zm1.9062 3.4229-1.9062 3.4229h3.8125zm1.9062 3.4229h3.8438l-1.9375-3.4229zl-1.9062 3.4229h3.8125zm1.9062 3.4229h3.8438l-1.9062-3.4229zl-1.9062 3.3906h3.8438zm1.9375 3.3906h3.7812l-1.875-3.3906zl-0.90625 1.5823h1.7812zm1.9062-3.3906h3.8125l-1.9375-3.4229zm1.875-3.4229-1.875-3.4229-1.9062 3.4229zh2.9375v-1.6146l-1-1.8083zm1.9375-3.4229h1v-1.8083zm0 6.8458h1v-1.8083zl-1.9375 3.3906h2.4688l0.46875-0.48438v-1.1302zm-1.9375 3.3906-0.875 1.5823h1.7812zm-7.625 0-0.875 1.5823h1.75zl-1.9062-3.3906-1.9062 3.3906zm-3.8125 0-0.875 1.5823h1.75zl-1.9062-3.3906-1.9062 3.3906zm-3.8125 0-0.875 1.5823h1.75zl-1.9062-3.3906-1.9062 3.3906zm-3.8125 0-0.90625 1.5823h1.7812zm1.9062-3.3906h3.8125l-1.9062-3.4229zm1.9062-3.4229h3.8125l-1.9062-3.4229zm3.8125 0-1.9062 3.4229h3.8125zm1.9062-10.269h3.8125l-1.9062-3.3906zm1.9062-3.3906h3.8438l-1.9375-3.4229zm3.8438 0-1.9375 3.3906h3.8438zm5.7188-3.4229h1v-1.8083zm-13.375-3.4229-1.375-2.4542c0.02294 0.80334-0.0097 1.6254-0.09375 2.4542zm-1.9062 3.4229-0.15625-0.25833c-0.02286 0.08513-0.0386 0.17382-0.0625 0.25833zm-5.7188 10.236-0.5625-1.001c-0.44364 0.35514-0.9218 0.67916-1.4062 1.001zm-1.9375 3.4229-1.4375-2.5833c-0.42135 0.23307-0.84552 0.45276-1.2812 0.64583h-0.03125l-1.0625 1.9375zm-5.7188 10.236-0.875 1.5823h1.75zl-1.9062-3.3906-1.9062 3.3906zm-3.8125 0-0.875 1.5823h1.75zl-1.9062-3.3906-1.9062 3.3906zm-3.8125 0-0.90625 1.5823h1.7812zm1.9062-3.3906h3.8125l-1.9062-3.4229zm-3.8438-6.8458-0.875-1.5823c-0.55717-0.20847-1.098-0.48023-1.625-0.74271l-1.3125 2.325zm-5.7188 10.236-0.875 1.5823h1.75zl-1.9062-3.3906-1.9062 3.3906zm-3.8125 0-0.875 1.5823h1.75zl-1.9062-3.3906-1.9062 3.3906zm-3.8125 0-1.9062-3.3906-1.9062 3.3906-1.9062-3.3906-1.9062 3.4229h3.7812l-0.84375 1.55h1.75l-0.875-1.55h3.7812l-0.84375 1.55h1.75l-0.875-1.55zm-7.625 0.03229-0.875 1.55h1.75zl-1.9062-3.4229-1.75 3.0677 0.34375 0.35521zm-1.9062-3.4229-1.9062-3.3583v3.3583zh3.8125l-1.9062-3.4229zm1.9062-3.4229-1.9062-3.3906-1.9062 3.326v0.06458zh3.8125l-1.9062-3.3906zm1.9062-3.3906-1.9062-3.4552-1.9062 3.4552zh3.8125v-0.03229l-1.9062-3.4229zm1.9062-3.4552-1.9062-3.4229-1.9062 3.4229zh3.8125l-1.9062-3.4229zm1.9062-3.4229-1.9062-3.3906-1.9062 3.3906zm-3.8125 0-1.9062-3.3906-1.9062 3.3906zm-3.8125 0-1.9062 3.3583v0.06458h3.8125zl-1.9062-3.326v3.326zm1.9062-3.3906-1.9062-3.4229-1.9062 3.3583v0.06458zh3.8125l-1.9062-3.4229zm1.9062-3.4229-1.9062-3.4229-1.9062 3.4229zm-3.8125 0-1.9062-3.3583v3.3583zm1.9062-3.4229-1.9062-3.4229-1.9062 3.3583v0.06458zm-1.9062-3.4229-1.9062-3.3583v3.3583zm9.5312 17.082-1.9062 3.4229h3.8125zm1.9062 3.4229-1.9062 3.4229h3.8125zm1.9062 3.4229-1.9062 3.4229h3.8125zm-1.9062 3.4229-1.9062-3.4229-1.9062 3.4229zm-3.8125 0-1.9062-3.4229-1.9062 3.4229zm-1.9062-3.4229h3.8125l-1.9062-3.3906zm-5.7188-3.3906-1.9062-3.3906v3.3906zm17.156-3.4552h1.3438c-0.32356-0.2163-0.65089-0.43627-0.96875-0.67812zm-7.625-13.659h0.8125c-0.04237-0.43273-0.04633-0.8728-0.0625-1.324z" fill="#001942" fill-opacity=".12701"/>
	<path d="m0 1v2.5l2-2zm64 2.5-2-2 2-0.5z" fill="#d7faff" fill-opacity=".52146"/>
	<path d="m49.562 11.688c-2.3552 0.0077-4.8588 0.15625-7.0312 0.15625-4.8484 0-9.6048-0.15488-13.812 0.15625-6.5008 0.48067-11.324 3.3198-14.656 6.9062-3.4038 3.6638-6.0625 8.8541-6.0625 15.219 0 6.6347 2.5818 11.595 6.0625 15.219 3.3113 3.4468 8.2136 6.4929 14.375 6.9062 11.364 0.76161 18.916-5.6205 22.25-13.688 2.1651-5.2386 4.7994-11.52 7.0625-17.031 0.68383-1.6651 2.0242-3.7857 2.25-5.7812 0.44974-3.9772-1.6839-6.2533-4.375-7.3125-1.5107-0.5946-3.7073-0.75773-6.0625-0.75zm2.3125 2.5312c1.5015 0.0633 2.94 1.1442 2.75 3.125-0.22948 2.3928-2.6143 4.0856-3.6562 5.6562h3.6562c0.22011 0.32318 0.22011 1.3645 0 1.6875-1.8387-0.18085-3.8803-0.16245-5.9062-0.15625-0.86244-3.1629 4.4775-5.2723 3.9375-7.875-0.25476-1.2276-2.005-1.2672-1.6875 0.5625h-2.0938c-0.03904-2.0931 1.4985-3.0633 3-3zm-21.438 1.875c5.4263 0.01811 9.3401 2.1854 12.094 4.6562 3.4556 3.1007 6.6594 9.4159 5.5 16.344-0.94662 5.6556-4.1365 10.127-9.3125 12.938-5.6324 3.0589-12.702 2.6185-17.75-0.40625-4.8717-2.919-9.47-8.5708-8.75-17.469 0.38281-4.7312 2.4585-8.0267 5.0938-10.719 2.4554-2.5085 5.8851-4.7054 10.688-5.2188 0.83796-0.08961 1.6623-0.12759 2.4375-0.125zm-6.2188 4.7812v3.8125h3.2188c0.31098 1.098 0.88139 1.9282 1.125 3.0938-2.7799 4.7447-5.951 9.9067-8.7188 14.5-0.35812 0.5943-0.88792 1.331-0.84375 2h4.7812c2.4395-3.4785 4.5232-7.3088 7.0312-10.719 1.3931 3.9612 3.0598 7.6482 4.375 11.688 2.6673-0.66702 5.3782-1.3183 7.625-2.4062-0.63371-1.0573-0.73209-2.6397-1.4062-3.6562-1.0631 0.43977-2.1878 0.84064-3.4062 1.125-2.2774-6.6464-5.035-12.791-7.3125-19.438z" fill="#f2b42e"/>
	<g opacity=".42142">
		<g transform="translate(0,1)" fill="#810015" fill-opacity=".093446" opacity=".25354">
			<path d="m49.562 17.469c-2.3552 0.0077-4.8588 0.1563-7.0312 0.1563-4.8484 0-9.6048-0.1549-13.812 0.1562-6.5008 0.4807-11.324 3.3198-14.656 6.9063-3.4038 3.6638-6.0625 8.8541-6.0625 15.219 0 6.6347 2.5818 11.595 6.0625 15.219 3.3113 3.4468 8.2136 6.4929 14.375 6.9062 11.364 0.7616 18.916-5.6205 22.25-13.688 2.1651-5.2385 4.7994-11.52 7.0625-17.031 0.6838-1.6651 2.0242-3.7857 2.25-5.7812 0.4497-3.9772-1.6839-6.2533-4.375-7.3125-1.5107-0.5946-3.7073-0.7578-6.0625-0.75zm2.3125 2.5313c1.5015 0.0633 2.94 1.1442 2.75 3.125-0.2295 2.3928-2.6143 4.0856-3.6562 5.6561h3.6562c0.2201 0.3232 0.2201 1.3645 0 1.6875-1.8387-0.1808-3.8803-0.1624-5.9062-0.1562-0.8624-3.1629 4.4775-5.2723 3.9375-7.875-0.2548-1.2276-2.005-1.2672-1.6875 0.5625h-2.0938c-0.039-2.0931 1.4985-3.0633 3-3zm-21.438 1.875c5.4263 0.0181 9.3401 2.1854 12.094 4.6561 3.4556 3.1007 6.6594 9.4159 5.5 16.344-0.9466 5.6555-4.1365 10.127-9.3125 12.938-5.6324 3.0589-12.702 2.6185-17.75-0.4063-4.8717-2.919-9.47-8.5708-8.75-17.469 0.3828-4.7312 2.4585-8.0267 5.0938-10.719 2.4554-2.5085 5.8851-4.7054 10.688-5.2188 0.838-0.0896 1.6623-0.1276 2.4375-0.125zm-6.2188 4.7811v3.8125h3.2188c0.311 1.098 0.8814 1.9282 1.125 3.0939-2.7799 4.7447-5.951 9.9067-8.7188 14.5-0.3581 0.5942-0.8879 1.331-0.8437 2h4.7811c2.4395-3.4785 4.5232-7.3088 7.0312-10.719 1.3931 3.9612 3.0599 7.6483 4.375 11.688 2.6673-0.6671 5.3782-1.3183 7.625-2.4062-0.6337-1.0573-0.732-2.6397-1.4062-3.6562-1.063 0.4397-2.1878 0.8406-3.4061 1.125-2.2774-6.6464-5.0351-12.791-7.3125-19.438z"/>
			<path d="m49.562 15.562c-2.3552 0.0077-4.8588 0.1563-7.0312 0.1563-4.8484 0-9.6048-0.1549-13.812 0.1562-6.5008 0.4807-11.324 3.3198-14.656 6.9062-3.4038 3.6638-6.0625 8.8541-6.0625 15.219 0 6.6347 2.5818 11.595 6.0625 15.219 3.3113 3.4468 8.2136 6.4929 14.375 6.9062 11.364 0.7617 18.916-5.6205 22.25-13.688 2.1651-5.2386 4.7994-11.52 7.0625-17.031 0.6838-1.6651 2.0242-3.7857 2.25-5.7812 0.4497-3.9772-1.6839-6.2533-4.375-7.3125-1.5107-0.5946-3.7073-0.7577-6.0625-0.75zm2.3125 2.5312c1.5015 0.0633 2.94 1.1442 2.75 3.125-0.2295 2.3928-2.6143 4.0856-3.6562 5.6562h3.6562c0.2201 0.3232 0.2201 1.3645 0 1.6875-1.8387-0.1808-3.8803-0.1624-5.9062-0.1562-0.8624-3.1629 4.4775-5.2723 3.9375-7.875-0.2548-1.2276-2.005-1.2672-1.6875 0.5625h-2.0938c-0.039-2.0931 1.4985-3.0633 3-3zm-21.438 1.875c5.4263 0.0182 9.3401 2.1854 12.094 4.6562 3.4556 3.1007 6.6594 9.4159 5.5 16.344-0.9466 5.6556-4.1365 10.127-9.3125 12.938-5.6324 3.0589-12.702 2.6185-17.75-0.4062-4.8717-2.919-9.47-8.5708-8.75-17.469 0.3828-4.7312 2.4585-8.0267 5.0938-10.719 2.4554-2.5085 5.8851-4.7054 10.688-5.2188 0.838-0.0896 1.6623-0.1276 2.4375-0.125zm-6.2188 4.7812v3.8125h3.2188c0.311 1.098 0.8814 1.9282 1.125 3.0938-2.7799 4.7447-5.951 9.9067-8.7188 14.5-0.3581 0.5943-0.8879 1.331-0.8437 2h4.7811c2.4395-3.4785 4.5232-7.3088 7.0312-10.719 1.3931 3.9612 3.0599 7.6482 4.375 11.688 2.6673-0.667 5.3782-1.3183 7.625-2.4062-0.6337-1.0573-0.732-2.6397-1.4062-3.6562-1.063 0.4398-2.1878 0.8407-3.4061 1.125-2.2774-6.6464-5.0351-12.791-7.3125-19.438z"/>
			<path d="m49.562 14.953c-2.3552 0.0077-4.8588 0.1563-7.0312 0.1563-4.8484 0-9.6048-0.1549-13.812 0.1562-6.5008 0.4807-11.324 3.3198-14.656 6.9062-3.4038 3.6638-6.0625 8.8541-6.0625 15.219 0 6.6347 2.5818 11.595 6.0625 15.219 3.3113 3.4468 8.2136 6.4929 14.375 6.9062 11.364 0.7616 18.916-5.6205 22.25-13.688 2.1651-5.2386 4.7994-11.52 7.0625-17.031 0.6838-1.6651 2.0242-3.7857 2.25-5.7812 0.4497-3.9772-1.6839-6.2533-4.375-7.3125-1.5107-0.5946-3.7073-0.7577-6.0625-0.75zm2.3125 2.5312c1.5015 0.0633 2.94 1.1442 2.75 3.125-0.2295 2.3928-2.6143 4.0856-3.6562 5.6562h3.6562c0.2201 0.3232 0.2201 1.3645 0 1.6875-1.8387-0.1808-3.8803-0.1624-5.9062-0.1562-0.8624-3.1629 4.4775-5.2723 3.9375-7.875-0.2548-1.2276-2.005-1.2672-1.6875 0.5625h-2.0938c-0.039-2.0931 1.4985-3.0633 3-3zm-21.438 1.875c5.4263 0.0181 9.3401 2.1854 12.094 4.6562 3.4556 3.1007 6.6594 9.4159 5.5 16.344-0.9466 5.6556-4.1365 10.127-9.3125 12.938-5.6324 3.0589-12.702 2.6185-17.75-0.4062-4.8717-2.919-9.47-8.5708-8.75-17.469 0.3828-4.7312 2.4585-8.0267 5.0938-10.719 2.4554-2.5085 5.8851-4.7054 10.688-5.2188 0.838-0.0896 1.6623-0.1276 2.4375-0.125zm-6.2188 4.7812v3.8125h3.2188c0.311 1.098 0.8814 1.9282 1.125 3.0938-2.7799 4.7447-5.951 9.9067-8.7188 14.5-0.3581 0.5943-0.8879 1.331-0.8437 2h4.7811c2.4395-3.4785 4.5232-7.3088 7.0312-10.719 1.3931 3.9612 3.0599 7.6482 4.375 11.688 2.6673-0.667 5.3782-1.3183 7.625-2.4062-0.6337-1.0573-0.732-2.6397-1.4062-3.6562-1.063 0.4398-2.1878 0.8407-3.4061 1.125-2.2774-6.6464-5.0351-12.791-7.3125-19.438z"/>
			<path d="m49.562 14.51c-2.3552 0.0077-4.8588 0.1563-7.0312 0.1563-4.8484 0-9.6048-0.1549-13.812 0.1562-6.5008 0.4807-11.324 3.3198-14.656 6.9062-3.4038 3.6638-6.0625 8.8541-6.0625 15.219 0 6.6347 2.5818 11.595 6.0625 15.219 3.3113 3.4468 8.2136 6.4929 14.375 6.9062 11.364 0.7616 18.916-5.6205 22.25-13.688 2.1651-5.2386 4.7994-11.52 7.0625-17.031 0.6838-1.6651 2.0242-3.7857 2.25-5.7812 0.4497-3.9772-1.6839-6.2533-4.375-7.3125-1.5107-0.5946-3.7073-0.7577-6.0625-0.75zm2.3125 2.5312c1.5015 0.0633 2.94 1.1442 2.75 3.125-0.2295 2.3928-2.6143 4.0856-3.6562 5.6562h3.6562c0.2201 0.3232 0.2201 1.3645 0 1.6875-1.8387-0.1808-3.8803-0.1624-5.9062-0.1562-0.8624-3.1629 4.4775-5.2723 3.9375-7.875-0.2548-1.2276-2.005-1.2672-1.6875 0.5625h-2.0938c-0.039-2.0931 1.4985-3.0633 3-3zm-21.438 1.875c5.4263 0.0181 9.3401 2.1854 12.094 4.6562 3.4556 3.1007 6.6594 9.4159 5.5 16.344-0.9466 5.6556-4.1365 10.127-9.3125 12.938-5.6324 3.0589-12.702 2.6185-17.75-0.4062-4.8717-2.919-9.47-8.5708-8.75-17.469 0.3828-4.7312 2.4585-8.0267 5.0938-10.719 2.4554-2.5085 5.8851-4.7054 10.688-5.2188 0.838-0.0896 1.6623-0.1276 2.4375-0.125zm-6.2188 4.7812v3.8125h3.2188c0.311 1.098 0.8814 1.9282 1.125 3.0938-2.7799 4.7447-5.951 9.9067-8.7188 14.5-0.3581 0.5943-0.8879 1.331-0.8437 2h4.7811c2.4395-3.4785 4.5232-7.3088 7.0312-10.719 1.3931 3.9612 3.0599 7.6482 4.375 11.688 2.6673-0.667 5.3782-1.3183 7.625-2.4062-0.6337-1.0573-0.732-2.6397-1.4062-3.6562-1.063 0.4398-2.1878 0.8407-3.4061 1.125-2.2774-6.6464-5.0351-12.791-7.3125-19.438z"/>
			<path d="m49.562 14.149c-2.3552 0.0077-4.8588 0.1562-7.0312 0.1562-4.8484 0-9.6048-0.1548-13.812 0.1563-6.5008 0.4807-11.324 3.3198-14.656 6.9062-3.4038 3.6638-6.0625 8.8541-6.0625 15.219 0 6.6347 2.5818 11.595 6.0625 15.219 3.3113 3.4468 8.2136 6.4929 14.375 6.9062 11.364 0.7616 18.916-5.6205 22.25-13.688 2.1651-5.2386 4.7994-11.52 7.0625-17.031 0.6838-1.6651 2.0242-3.7857 2.25-5.7812 0.4497-3.9772-1.6839-6.2533-4.375-7.3125-1.5107-0.5946-3.7073-0.7577-6.0625-0.75zm2.3125 2.5312c1.5015 0.0633 2.94 1.1442 2.75 3.125-0.2295 2.3928-2.6143 4.0856-3.6562 5.6562h3.6562c0.2201 0.3232 0.2201 1.3645 0 1.6875-1.8387-0.1809-3.8803-0.1625-5.9062-0.1563-0.8624-3.1629 4.4775-5.2723 3.9375-7.875-0.2548-1.2276-2.005-1.2672-1.6875 0.5625h-2.0938c-0.039-2.0931 1.4985-3.0633 3-3zm-21.438 1.875c5.4263 0.0181 9.3401 2.1854 12.094 4.6562 3.4556 3.1007 6.6594 9.4159 5.5 16.344-0.9466 5.6556-4.1365 10.127-9.3125 12.938-5.6324 3.0589-12.702 2.6185-17.75-0.4063-4.8717-2.919-9.47-8.5708-8.75-17.469 0.3828-4.7312 2.4585-8.0267 5.0938-10.719 2.4554-2.5085 5.8851-4.7054 10.688-5.2188 0.838-0.0896 1.6623-0.1275 2.4375-0.125zm-6.2188 4.7812v3.8125h3.2188c0.311 1.098 0.8814 1.9282 1.125 3.0938-2.7799 4.7447-5.951 9.9067-8.7188 14.5-0.3581 0.5943-0.8879 1.331-0.8437 2h4.7811c2.4395-3.4785 4.5232-7.3088 7.0312-10.719 1.3931 3.9612 3.0599 7.6482 4.375 11.688 2.6673-0.667 5.3782-1.3183 7.625-2.4062-0.6337-1.0573-0.732-2.6397-1.4062-3.6562-1.063 0.4398-2.1878 0.8406-3.4061 1.125-2.2774-6.6464-5.0351-12.791-7.3125-19.438z"/>
			<path d="m49.562 13.839c-2.3552 0.0077-4.8588 0.1562-7.0312 0.1562-4.8484 0-9.6048-0.1548-13.812 0.1563-6.5008 0.4807-11.324 3.3198-14.656 6.9062-3.4038 3.6638-6.0625 8.8541-6.0625 15.219 0 6.6347 2.5818 11.595 6.0625 15.219 3.3113 3.4468 8.2136 6.4929 14.375 6.9062 11.364 0.7616 18.916-5.6205 22.25-13.688 2.1651-5.2386 4.7994-11.52 7.0625-17.031 0.6838-1.6651 2.0242-3.7857 2.25-5.7812 0.4497-3.9772-1.6839-6.2533-4.375-7.3125-1.5107-0.5946-3.7073-0.7577-6.0625-0.75zm2.3125 2.5312c1.5015 0.0633 2.94 1.1442 2.75 3.125-0.2295 2.3928-2.6143 4.0856-3.6562 5.6562h3.6562c0.2201 0.3232 0.2201 1.3645 0 1.6875-1.8387-0.1809-3.8803-0.1625-5.9062-0.1563-0.8624-3.1629 4.4775-5.2723 3.9375-7.875-0.2548-1.2276-2.005-1.2672-1.6875 0.5625h-2.0938c-0.039-2.0931 1.4985-3.0633 3-3zm-21.438 1.875c5.4263 0.0181 9.3401 2.1854 12.094 4.6562 3.4556 3.1007 6.6594 9.4159 5.5 16.344-0.9466 5.6556-4.1365 10.127-9.3125 12.938-5.6324 3.0589-12.702 2.6185-17.75-0.4063-4.8717-2.919-9.47-8.5708-8.75-17.469 0.3828-4.7312 2.4585-8.0267 5.0938-10.719 2.4554-2.5085 5.8851-4.7054 10.688-5.2188 0.838-0.0896 1.6623-0.1276 2.4375-0.125zm-6.2188 4.7812v3.8125h3.2188c0.311 1.098 0.8814 1.9282 1.125 3.0938-2.7799 4.7447-5.951 9.9067-8.7188 14.5-0.3581 0.5943-0.8879 1.331-0.8437 2h4.7811c2.4395-3.4785 4.5232-7.3088 7.0312-10.719 1.3931 3.9612 3.0599 7.6482 4.375 11.688 2.6673-0.667 5.3782-1.3183 7.625-2.4062-0.6337-1.0573-0.732-2.6397-1.4062-3.6562-1.063 0.4398-2.1878 0.8406-3.4061 1.125-2.2774-6.6464-5.0351-12.791-7.3125-19.438z"/>
			<path d="m49.562 13.564c-2.3552 0.0077-4.8588 0.1563-7.0312 0.1563-4.8484 0-9.6048-0.1549-13.812 0.1562-6.5008 0.4807-11.324 3.3198-14.656 6.9062-3.4038 3.6638-6.0625 8.8541-6.0625 15.219 0 6.6347 2.5818 11.595 6.0625 15.219 3.3113 3.4468 8.2136 6.4929 14.375 6.9062 11.364 0.7616 18.916-5.6205 22.25-13.688 2.1651-5.2386 4.7994-11.52 7.0625-17.031 0.6838-1.6651 2.0242-3.7857 2.25-5.7812 0.4497-3.9772-1.6839-6.2533-4.375-7.3125-1.5107-0.5946-3.7073-0.7577-6.0625-0.75zm2.3125 2.5312c1.5015 0.0633 2.94 1.1442 2.75 3.125-0.2295 2.3928-2.6143 4.0856-3.6562 5.6562h3.6562c0.2201 0.3232 0.2201 1.3645 0 1.6875-1.8387-0.1808-3.8803-0.1624-5.9062-0.1562-0.8624-3.1629 4.4775-5.2723 3.9375-7.875-0.2548-1.2276-2.005-1.2672-1.6875 0.5625h-2.0938c-0.039-2.0931 1.4985-3.0633 3-3zm-21.438 1.875c5.4263 0.0181 9.3401 2.1854 12.094 4.6562 3.4556 3.1007 6.6594 9.4159 5.5 16.344-0.9466 5.6556-4.1365 10.127-9.3125 12.938-5.6324 3.0589-12.702 2.6185-17.75-0.4062-4.8717-2.919-9.47-8.5708-8.75-17.469 0.3828-4.7312 2.4585-8.0267 5.0938-10.719 2.4554-2.5085 5.8851-4.7054 10.688-5.2188 0.838-0.0896 1.6623-0.1276 2.4375-0.125zm-6.2188 4.7812v3.8125h3.2188c0.311 1.098 0.8814 1.9282 1.125 3.0938-2.7799 4.7447-5.951 9.9067-8.7188 14.5-0.3581 0.5943-0.8879 1.331-0.8437 2h4.7811c2.4395-3.4785 4.5232-7.3088 7.0312-10.719 1.3931 3.9612 3.0599 7.6482 4.375 11.688 2.6673-0.667 5.3782-1.3183 7.625-2.4062-0.6337-1.0573-0.732-2.6397-1.4062-3.6562-1.063 0.4398-2.1878 0.8407-3.4061 1.125-2.2774-6.6464-5.0351-12.791-7.3125-19.438z"/>
			<path d="m49.562 13.316c-2.3552 0.0077-4.8588 0.1562-7.0312 0.1562-4.8484 0-9.6048-0.1549-13.812 0.1563-6.5008 0.4806-11.324 3.3198-14.656 6.9062-3.4038 3.6638-6.0625 8.8541-6.0625 15.219 0 6.6347 2.5818 11.595 6.0625 15.219 3.3113 3.4468 8.2136 6.4929 14.375 6.9062 11.364 0.7616 18.916-5.6205 22.25-13.688 2.1651-5.2386 4.7994-11.52 7.0625-17.031 0.6838-1.6651 2.0242-3.7857 2.25-5.7812 0.4497-3.9772-1.6839-6.2533-4.375-7.3125-1.5107-0.5946-3.7073-0.7578-6.0625-0.75zm2.3125 2.5312c1.5015 0.0633 2.94 1.1442 2.75 3.125-0.2295 2.3928-2.6143 4.0856-3.6562 5.6562h3.6562c0.2201 0.3231 0.2201 1.3645 0 1.6875-1.8387-0.1809-3.8803-0.1625-5.9062-0.1563-0.8624-3.1629 4.4775-5.2723 3.9375-7.875-0.2548-1.2276-2.005-1.2672-1.6875 0.5625h-2.0938c-0.039-2.0931 1.4985-3.0633 3-3zm-21.438 1.875c5.4263 0.0181 9.3401 2.1854 12.094 4.6562 3.4556 3.1007 6.6594 9.4159 5.5 16.344-0.9466 5.6556-4.1365 10.127-9.3125 12.938-5.6324 3.0589-12.702 2.6185-17.75-0.4063-4.8717-2.919-9.47-8.5708-8.75-17.469 0.3828-4.7312 2.4585-8.0267 5.0938-10.719 2.4554-2.5085 5.8851-4.7054 10.688-5.2188 0.838-0.0896 1.6623-0.1276 2.4375-0.125zm-6.2188 4.7812v3.8125h3.2188c0.311 1.098 0.8814 1.9282 1.125 3.0938-2.7799 4.7447-5.951 9.9067-8.7188 14.5-0.3581 0.5943-0.8879 1.331-0.8437 2h4.7811c2.4395-3.4785 4.5232-7.3088 7.0312-10.719 1.3931 3.9612 3.0599 7.6482 4.375 11.688 2.6673-0.6671 5.3782-1.3183 7.625-2.4062-0.6337-1.0573-0.732-2.6397-1.4062-3.6562-1.063 0.4397-2.1878 0.8406-3.4061 1.125-2.2774-6.6464-5.0351-12.791-7.3125-19.438z"/>
			<path d="m49.562 13.088c-2.3552 0.0077-4.8588 0.1562-7.0312 0.1562-4.8484 0-9.6048-0.1548-13.812 0.1563-6.5008 0.4807-11.324 3.3198-14.656 6.9062-3.4038 3.6638-6.0625 8.8541-6.0625 15.219 0 6.6347 2.5818 11.595 6.0625 15.219 3.3113 3.4468 8.2136 6.4929 14.375 6.9062 11.364 0.7616 18.916-5.6205 22.25-13.688 2.1651-5.2386 4.7994-11.52 7.0625-17.031 0.6838-1.6651 2.0242-3.7857 2.25-5.7812 0.4497-3.9772-1.6839-6.2533-4.375-7.3125-1.5107-0.5946-3.7073-0.7577-6.0625-0.75zm2.3125 2.5312c1.5015 0.0633 2.94 1.1442 2.75 3.125-0.2295 2.3928-2.6143 4.0856-3.6562 5.6562h3.6562c0.2201 0.3232 0.2201 1.3645 0 1.6875-1.8387-0.1809-3.8803-0.1625-5.9062-0.1563-0.8624-3.1629 4.4775-5.2723 3.9375-7.875-0.2548-1.2276-2.005-1.2672-1.6875 0.5625h-2.0938c-0.039-2.0931 1.4985-3.0633 3-3zm-21.438 1.875c5.4263 0.0181 9.3401 2.1854 12.094 4.6562 3.4556 3.1007 6.6594 9.4159 5.5 16.344-0.9466 5.6556-4.1365 10.127-9.3125 12.938-5.6324 3.0589-12.702 2.6185-17.75-0.4063-4.8717-2.919-9.47-8.5708-8.75-17.469 0.3828-4.7312 2.4585-8.0267 5.0938-10.719 2.4554-2.5085 5.8851-4.7054 10.688-5.2188 0.838-0.0896 1.6623-0.1276 2.4375-0.125zm-6.2188 4.7812v3.8125h3.2188c0.311 1.098 0.8814 1.9282 1.125 3.0938-2.7799 4.7447-5.951 9.9067-8.7188 14.5-0.3581 0.5943-0.8879 1.331-0.8437 2h4.7811c2.4395-3.4785 4.5232-7.3088 7.0312-10.719 1.3931 3.9612 3.0599 7.6482 4.375 11.688 2.6673-0.667 5.3782-1.3183 7.625-2.4062-0.6337-1.0573-0.732-2.6397-1.4062-3.6562-1.063 0.4398-2.1878 0.8406-3.4061 1.125-2.2774-6.6464-5.0351-12.791-7.3125-19.438z"/>
			<path d="m49.562 12.876c-2.3552 0.0077-4.8588 0.1563-7.0312 0.1563-4.8484 0-9.6048-0.1549-13.812 0.1562-6.5008 0.4807-11.324 3.3198-14.656 6.9062-3.4038 3.6638-6.0625 8.8541-6.0625 15.219 0 6.6347 2.5818 11.595 6.0625 15.219 3.3113 3.4468 8.2136 6.4929 14.375 6.9062 11.364 0.7616 18.916-5.6205 22.25-13.688 2.1651-5.2386 4.7994-11.52 7.0625-17.031 0.6838-1.6651 2.0242-3.7857 2.25-5.7812 0.4497-3.9772-1.6839-6.2533-4.375-7.3125-1.5107-0.5946-3.7073-0.7577-6.0625-0.75zm2.3125 2.5312c1.5015 0.0633 2.94 1.1442 2.75 3.125-0.2295 2.3928-2.6143 4.0856-3.6562 5.6562h3.6562c0.2201 0.3232 0.2201 1.3645 0 1.6875-1.8387-0.1808-3.8803-0.1624-5.9062-0.1562-0.8624-3.1629 4.4775-5.2723 3.9375-7.875-0.2548-1.2276-2.005-1.2672-1.6875 0.5625h-2.0938c-0.039-2.0931 1.4985-3.0633 3-3zm-21.438 1.875c5.4263 0.0181 9.3401 2.1854 12.094 4.6562 3.4556 3.1007 6.6594 9.4159 5.5 16.344-0.9466 5.6556-4.1365 10.127-9.3125 12.938-5.6324 3.0589-12.702 2.6185-17.75-0.4062-4.8717-2.919-9.47-8.5708-8.75-17.469 0.3828-4.7312 2.4585-8.0267 5.0938-10.719 2.4554-2.5085 5.8851-4.7054 10.688-5.2188 0.838-0.0896 1.6623-0.1276 2.4375-0.125zm-6.2188 4.7812v3.8125h3.2188c0.311 1.098 0.8814 1.9282 1.125 3.0938-2.7799 4.7447-5.951 9.9067-8.7188 14.5-0.3581 0.5943-0.8879 1.331-0.8437 2h4.7811c2.4395-3.4785 4.5232-7.3088 7.0312-10.719 1.3931 3.9612 3.0599 7.6482 4.375 11.688 2.6673-0.667 5.3782-1.3183 7.625-2.4062-0.6337-1.0573-0.732-2.6397-1.4062-3.6562-1.063 0.4398-2.1878 0.8407-3.4061 1.125-2.2774-6.6464-5.0351-12.791-7.3125-19.438z"/>
			<path d="m49.562 12.679c-2.3552 0.0077-4.8588 0.1563-7.0312 0.1563-4.8484 0-9.6048-0.1549-13.812 0.1562-6.5008 0.4807-11.324 3.3198-14.656 6.9062-3.4038 3.6638-6.0625 8.8541-6.0625 15.219 0 6.6347 2.5818 11.595 6.0625 15.219 3.3113 3.4468 8.2136 6.4929 14.375 6.9062 11.364 0.7616 18.916-5.6205 22.25-13.688 2.1651-5.2386 4.7994-11.52 7.0625-17.031 0.6838-1.6651 2.0242-3.7857 2.25-5.7812 0.4497-3.9772-1.6839-6.2533-4.375-7.3125-1.5107-0.5946-3.7073-0.7577-6.0625-0.75zm2.3125 2.5312c1.5015 0.0633 2.94 1.1442 2.75 3.125-0.2295 2.3928-2.6143 4.0856-3.6562 5.6562h3.6562c0.2201 0.3232 0.2201 1.3645 0 1.6875-1.8387-0.1808-3.8803-0.1624-5.9062-0.1562-0.8624-3.1629 4.4775-5.2723 3.9375-7.875-0.2548-1.2276-2.005-1.2672-1.6875 0.5625h-2.0938c-0.039-2.0931 1.4985-3.0633 3-3zm-21.438 1.875c5.4263 0.0181 9.3401 2.1854 12.094 4.6562 3.4556 3.1007 6.6594 9.4159 5.5 16.344-0.9466 5.6556-4.1365 10.127-9.3125 12.938-5.6324 3.0589-12.702 2.6185-17.75-0.4062-4.8717-2.919-9.47-8.5708-8.75-17.469 0.3828-4.7312 2.4585-8.0267 5.0938-10.719 2.4554-2.5085 5.8851-4.7054 10.688-5.2188 0.838-0.0896 1.6623-0.1276 2.4375-0.125zm-6.2188 4.7812v3.8125h3.2188c0.311 1.098 0.8814 1.9282 1.125 3.0938-2.7799 4.7447-5.951 9.9067-8.7188 14.5-0.3581 0.5943-0.8879 1.331-0.8437 2h4.7811c2.4395-3.4785 4.5232-7.3088 7.0312-10.719 1.3931 3.9612 3.0599 7.6482 4.375 11.688 2.6673-0.667 5.3782-1.3183 7.625-2.4062-0.6337-1.0573-0.732-2.6397-1.4062-3.6562-1.063 0.4398-2.1878 0.8407-3.4061 1.125-2.2774-6.6464-5.0351-12.791-7.3125-19.438z"/>
			<path d="m49.562 12.493c-2.3552 0.0077-4.8588 0.1562-7.0312 0.1562-4.8484 0-9.6048-0.1549-13.812 0.1563-6.5008 0.4806-11.324 3.3198-14.656 6.9062-3.4038 3.6638-6.0625 8.8541-6.0625 15.219 0 6.6347 2.5818 11.595 6.0625 15.219 3.3113 3.4468 8.2136 6.4929 14.375 6.9062 11.364 0.7616 18.916-5.6205 22.25-13.688 2.1651-5.2386 4.7994-11.52 7.0625-17.031 0.6838-1.6651 2.0242-3.7857 2.25-5.7812 0.4497-3.9772-1.6839-6.2533-4.375-7.3125-1.5107-0.5946-3.7073-0.7578-6.0625-0.75zm2.3125 2.5312c1.5015 0.0633 2.94 1.1442 2.75 3.125-0.2295 2.3928-2.6143 4.0856-3.6562 5.6562h3.6562c0.2201 0.3232 0.2201 1.3645 0 1.6875-1.8387-0.1809-3.8803-0.1625-5.9062-0.1563-0.8624-3.1629 4.4775-5.2723 3.9375-7.875-0.2548-1.2276-2.005-1.2672-1.6875 0.5625h-2.0938c-0.039-2.0931 1.4985-3.0633 3-3zm-21.438 1.875c5.4263 0.0181 9.3401 2.1854 12.094 4.6562 3.4556 3.1007 6.6594 9.4159 5.5 16.344-0.9466 5.6556-4.1365 10.127-9.3125 12.938-5.6324 3.0589-12.702 2.6185-17.75-0.4063-4.8717-2.919-9.47-8.5708-8.75-17.469 0.3828-4.7312 2.4585-8.0267 5.0938-10.719 2.4554-2.5085 5.8851-4.7054 10.688-5.2188 0.838-0.0896 1.6623-0.1276 2.4375-0.125zm-6.2188 4.7812v3.8125h3.2188c0.311 1.098 0.8814 1.9282 1.125 3.0938-2.7799 4.7447-5.951 9.9067-8.7188 14.5-0.3581 0.5943-0.8879 1.331-0.8437 2h4.7811c2.4395-3.4785 4.5232-7.3088 7.0312-10.719 1.3931 3.9612 3.0599 7.6482 4.375 11.688 2.6673-0.667 5.3782-1.3183 7.625-2.4062-0.6337-1.0573-0.732-2.6397-1.4062-3.6562-1.063 0.4397-2.1878 0.8406-3.4061 1.125-2.2774-6.6464-5.0351-12.791-7.3125-19.438z"/>
			<path d="m49.562 12.316c-2.3552 0.0077-4.8588 0.1563-7.0312 0.1563-4.8484 0-9.6048-0.1549-13.812 0.1562-6.5008 0.4807-11.324 3.3198-14.656 6.9062-3.4038 3.6638-6.0625 8.8541-6.0625 15.219 0 6.6347 2.5818 11.595 6.0625 15.219 3.3113 3.4468 8.2136 6.4929 14.375 6.9062 11.364 0.7616 18.916-5.6205 22.25-13.688 2.1651-5.2386 4.7994-11.52 7.0625-17.031 0.6838-1.6651 2.0242-3.7857 2.25-5.7812 0.4497-3.9772-1.6839-6.2533-4.375-7.3125-1.5107-0.5946-3.7073-0.7577-6.0625-0.75zm2.3125 2.5312c1.5015 0.0633 2.94 1.1442 2.75 3.125-0.2295 2.3928-2.6143 4.0856-3.6562 5.6562h3.6562c0.2201 0.3232 0.2201 1.3645 0 1.6875-1.8387-0.1808-3.8803-0.1624-5.9062-0.1562-0.8624-3.1629 4.4775-5.2723 3.9375-7.875-0.2548-1.2276-2.005-1.2672-1.6875 0.5625h-2.0938c-0.039-2.0931 1.4985-3.0633 3-3zm-21.438 1.875c5.4263 0.0181 9.3401 2.1854 12.094 4.6562 3.4556 3.1007 6.6594 9.4159 5.5 16.344-0.9466 5.6556-4.1365 10.127-9.3125 12.938-5.6324 3.0589-12.702 2.6185-17.75-0.4062-4.8717-2.919-9.47-8.5708-8.75-17.469 0.3828-4.7312 2.4585-8.0267 5.0938-10.719 2.4554-2.5085 5.8851-4.7054 10.688-5.2188 0.838-0.0896 1.6623-0.1276 2.4375-0.125zm-6.2188 4.7812v3.8125h3.2188c0.311 1.098 0.8814 1.9282 1.125 3.0938-2.7799 4.7447-5.951 9.9067-8.7188 14.5-0.3581 0.5943-0.8879 1.331-0.8437 2h4.7811c2.4395-3.4785 4.5232-7.3088 7.0312-10.719 1.3931 3.9612 3.0599 7.6482 4.375 11.688 2.6673-0.667 5.3782-1.3183 7.625-2.4062-0.6337-1.0573-0.732-2.6397-1.4062-3.6562-1.063 0.4398-2.1878 0.8407-3.4061 1.125-2.2774-6.6464-5.0351-12.791-7.3125-19.438z"/>
			<path d="m49.562 12.149c-2.3552 0.0077-4.8588 0.1562-7.0312 0.1562-4.8484 0-9.6048-0.1549-13.812 0.1563-6.5008 0.4806-11.324 3.3198-14.656 6.9062-3.4038 3.6638-6.0625 8.8541-6.0625 15.219 0 6.6347 2.5818 11.595 6.0625 15.219 3.3113 3.4468 8.2136 6.4929 14.375 6.9062 11.364 0.7616 18.916-5.6205 22.25-13.688 2.1651-5.2386 4.7994-11.52 7.0625-17.031 0.6838-1.6651 2.0242-3.7857 2.25-5.7812 0.4497-3.9772-1.6839-6.2533-4.375-7.3125-1.5107-0.5946-3.7073-0.7578-6.0625-0.75zm2.3125 2.5312c1.5015 0.0633 2.94 1.1442 2.75 3.125-0.2295 2.3928-2.6143 4.0856-3.6562 5.6562h3.6562c0.2201 0.3231 0.2201 1.3645 0 1.6875-1.8387-0.1809-3.8803-0.1625-5.9062-0.1563-0.8624-3.1629 4.4775-5.2723 3.9375-7.875-0.2548-1.2276-2.005-1.2672-1.6875 0.5625h-2.0938c-0.039-2.0931 1.4985-3.0633 3-3zm-21.438 1.875c5.4263 0.0181 9.3401 2.1854 12.094 4.6562 3.4556 3.1007 6.6594 9.4159 5.5 16.344-0.9466 5.6556-4.1365 10.127-9.3125 12.938-5.6324 3.0589-12.702 2.6185-17.75-0.4063-4.8717-2.919-9.47-8.5708-8.75-17.469 0.3828-4.7312 2.4585-8.0267 5.0938-10.719 2.4554-2.5085 5.8851-4.7054 10.688-5.2188 0.838-0.0896 1.6623-0.1276 2.4375-0.125zm-6.2188 4.7812v3.8125h3.2188c0.311 1.098 0.8814 1.9282 1.125 3.0938-2.7799 4.7447-5.951 9.9067-8.7188 14.5-0.3581 0.5943-0.8879 1.331-0.8437 2h4.7811c2.4395-3.4785 4.5232-7.3088 7.0312-10.719 1.3931 3.9612 3.0599 7.6482 4.375 11.688 2.6673-0.6671 5.3782-1.3183 7.625-2.4062-0.6337-1.0573-0.732-2.6397-1.4062-3.6562-1.063 0.4397-2.1878 0.8406-3.4061 1.125-2.2774-6.6464-5.0351-12.791-7.3125-19.438z"/>
			<path d="m49.562 11.989c-2.3552 0.0077-4.8588 0.1562-7.0312 0.1562-4.8484 0-9.6048-0.1548-13.812 0.1563-6.5008 0.4807-11.324 3.3198-14.656 6.9062-3.4038 3.6638-6.0625 8.8541-6.0625 15.219 0 6.6347 2.5818 11.595 6.0625 15.219 3.3113 3.4468 8.2136 6.4929 14.375 6.9062 11.364 0.7616 18.916-5.6205 22.25-13.688 2.1651-5.2386 4.7994-11.52 7.0625-17.031 0.6838-1.6651 2.0242-3.7857 2.25-5.7812 0.4497-3.9772-1.6839-6.2533-4.375-7.3125-1.5107-0.5946-3.7073-0.7577-6.0625-0.75zm2.3125 2.5312c1.5015 0.0633 2.94 1.1442 2.75 3.125-0.2295 2.3928-2.6143 4.0856-3.6562 5.6562h3.6562c0.2201 0.3232 0.2201 1.3645 0 1.6875-1.8387-0.1809-3.8803-0.1625-5.9062-0.1563-0.8624-3.1629 4.4775-5.2723 3.9375-7.875-0.2548-1.2276-2.005-1.2672-1.6875 0.5625h-2.0938c-0.039-2.0931 1.4985-3.0633 3-3zm-21.438 1.875c5.4263 0.0181 9.3401 2.1854 12.094 4.6562 3.4556 3.1007 6.6594 9.4159 5.5 16.344-0.9466 5.6556-4.1365 10.127-9.3125 12.938-5.6324 3.0589-12.702 2.6185-17.75-0.4063-4.8717-2.919-9.47-8.5708-8.75-17.469 0.3828-4.7312 2.4585-8.0267 5.0938-10.719 2.4554-2.5085 5.8851-4.7054 10.688-5.2188 0.838-0.0896 1.6623-0.1276 2.4375-0.125zm-6.2188 4.7812v3.8125h3.2188c0.311 1.098 0.8814 1.9282 1.125 3.0938-2.7799 4.7447-5.951 9.9067-8.7188 14.5-0.3581 0.5943-0.8879 1.331-0.8437 2h4.7811c2.4395-3.4785 4.5232-7.3088 7.0312-10.719 1.3931 3.9612 3.0599 7.6482 4.375 11.688 2.6673-0.667 5.3782-1.3183 7.625-2.4062-0.6337-1.0573-0.732-2.6397-1.4062-3.6562-1.063 0.4398-2.1878 0.8406-3.4061 1.125-2.2774-6.6464-5.0351-12.791-7.3125-19.438z"/>
			<path d="m49.562 11.835c-2.3552 0.0077-4.8588 0.1563-7.0312 0.1563-4.8484 0-9.6048-0.1549-13.812 0.1562-6.5008 0.4807-11.324 3.3198-14.656 6.9062-3.4038 3.6638-6.0625 8.8541-6.0625 15.219 0 6.6347 2.5818 11.595 6.0625 15.219 3.3113 3.4468 8.2136 6.4929 14.375 6.9062 11.364 0.7616 18.916-5.6205 22.25-13.688 2.1651-5.2386 4.7994-11.52 7.0625-17.031 0.6838-1.6651 2.0242-3.7857 2.25-5.7812 0.4497-3.9772-1.6839-6.2533-4.375-7.3125-1.5107-0.5946-3.7073-0.7577-6.0625-0.75zm2.3125 2.5312c1.5015 0.0633 2.94 1.1442 2.75 3.125-0.2295 2.3928-2.6143 4.0856-3.6562 5.6562h3.6562c0.2201 0.3232 0.2201 1.3645 0 1.6875-1.8387-0.1808-3.8803-0.1624-5.9062-0.1562-0.8624-3.1629 4.4775-5.2723 3.9375-7.875-0.2548-1.2276-2.005-1.2672-1.6875 0.5625h-2.0938c-0.039-2.0931 1.4985-3.0633 3-3zm-21.438 1.875c5.4263 0.0181 9.3401 2.1854 12.094 4.6562 3.4556 3.1007 6.6594 9.4159 5.5 16.344-0.9466 5.6556-4.1365 10.127-9.3125 12.938-5.6324 3.0589-12.702 2.6185-17.75-0.4062-4.8717-2.919-9.47-8.5708-8.75-17.469 0.3828-4.7312 2.4585-8.0267 5.0938-10.719 2.4554-2.5085 5.8851-4.7054 10.688-5.2188 0.838-0.0896 1.6623-0.1276 2.4375-0.125zm-6.2188 4.7812v3.8125h3.2188c0.311 1.098 0.8814 1.9282 1.125 3.0938-2.7799 4.7447-5.951 9.9067-8.7188 14.5-0.3581 0.5943-0.8879 1.331-0.8437 2h4.7811c2.4395-3.4785 4.5232-7.3088 7.0312-10.719 1.3931 3.9612 3.0599 7.6482 4.375 11.688 2.6673-0.667 5.3782-1.3183 7.625-2.4062-0.6337-1.0573-0.732-2.6397-1.4062-3.6562-1.063 0.4398-2.1878 0.8407-3.4061 1.125-2.2774-6.6464-5.0351-12.791-7.3125-19.438z"/>
			<path d="m49.562 11.688c-2.3552 0.0077-4.8588 0.1563-7.0312 0.1563-4.8484 0-9.6048-0.1549-13.812 0.1562-6.5008 0.4807-11.324 3.3198-14.656 6.9062-3.4038 3.6638-6.0625 8.8541-6.0625 15.219 0 6.6347 2.5818 11.595 6.0625 15.219 3.3113 3.4468 8.2136 6.4929 14.375 6.9062 11.364 0.7616 18.916-5.6205 22.25-13.688 2.1651-5.2386 4.7994-11.52 7.0625-17.031 0.6838-1.6651 2.0242-3.7857 2.25-5.7812 0.4497-3.9772-1.6839-6.2533-4.375-7.3125-1.5107-0.5946-3.7073-0.7577-6.0625-0.75zm2.3125 2.5312c1.5015 0.0633 2.94 1.1442 2.75 3.125-0.2295 2.3928-2.6143 4.0856-3.6562 5.6562h3.6562c0.2201 0.3232 0.2201 1.3645 0 1.6875-1.8387-0.1809-3.8803-0.1625-5.9062-0.1563-0.8624-3.1629 4.4775-5.2723 3.9375-7.875-0.2548-1.2276-2.005-1.2672-1.6875 0.5625h-2.0938c-0.039-2.0931 1.4985-3.0633 3-3zm-21.438 1.875c5.4263 0.0181 9.3401 2.1854 12.094 4.6562 3.4556 3.1007 6.6594 9.4159 5.5 16.344-0.9466 5.6556-4.1365 10.127-9.3125 12.938-5.6324 3.0589-12.702 2.6185-17.75-0.4062-4.8717-2.919-9.47-8.5708-8.75-17.469 0.3828-4.7312 2.4585-8.0267 5.0938-10.719 2.4554-2.5086 5.8851-4.7055 10.688-5.2189 0.838-0.0896 1.6623-0.1275 2.4375-0.125zm-6.2188 4.7812v3.8125h3.2188c0.311 1.098 0.8814 1.9282 1.125 3.0938-2.7799 4.7447-5.951 9.9067-8.7188 14.5-0.3581 0.5943-0.8879 1.331-0.8437 2h4.7811c2.4395-3.4785 4.5232-7.3088 7.0312-10.719 1.3931 3.9612 3.0599 7.6482 4.375 11.688 2.6673-0.667 5.3782-1.3183 7.625-2.4062-0.6337-1.0573-0.732-2.6397-1.4062-3.6562-1.063 0.4398-2.1878 0.8406-3.4061 1.125-2.2774-6.6464-5.0351-12.791-7.3125-19.438z"/>
		</g>
	</g>
	<path d="m49.562 11.688c-2.3552 0.0077-4.8588 0.15625-7.0312 0.15625-4.8484 0-9.6053-0.15488-13.812 0.15625-6.5008 0.48067-11.324 3.3198-14.656 6.9062-3.4038 3.6638-6.0625 8.8538-6.0625 15.219 0 0.089279 0.0049285 0.175 0.0058594 0.26367 0.065445-6.2561 2.6955-11.364 6.0566-14.982 3.332-3.5864 8.1554-6.4256 14.656-6.9062 4.2072-0.31113 8.9641-0.15625 13.812-0.15625 2.1724 0 4.676-0.14855 7.0312-0.15625 2.3552-0.00773 4.5518 0.1554 6.0625 0.75 2.4049 0.94655 4.359 2.8697 4.4277 6.1055 0.13353-3.5415-1.9007-5.6109-4.4277-6.6055-1.5107-0.5946-3.7073-0.75773-6.0625-0.75zm2.1992 4.0977c-0.46853-0.030673-0.91332 0.36361-0.81055 1.2754 0.16611-1.1326 1.4861-0.95939 1.7051 0.095703 0.008748 0.042165 0.004052 0.083087 0.009766 0.125 0.027296-0.20582 0.034118-0.41349-0.009766-0.625-0.11146-0.53708-0.50897-0.84585-0.89453-0.87109zm-2.8613 1.4336c-0.017975 0.15988-0.028667 0.32436-0.025391 0.5h2.0938c-0.032612-0.18794-0.038407-0.35077-0.03125-0.5h-2.0371zm5.7285 0.037109c-0.002141 0.029699-0.001017 0.057776-0.003906 0.087891-0.22948 2.3928-2.6144 4.0856-3.6562 5.6562h0.375c1.1503-1.4345 3.0758-3.0144 3.2812-5.1562 0.019837-0.20681 0.017791-0.40084 0.003906-0.58789zm-30.412 3.6191v0.5h6.4688c2.2775 6.647 5.0351 12.791 7.3125 19.438 1.2184-0.28436 2.3432-0.68523 3.4062-1.125 0.5922 0.89298 0.74044 2.2232 1.1973 3.25 0.068782-0.032114 0.14104-0.06085 0.20898-0.09375-0.63371-1.0573-0.73214-2.6398-1.4062-3.6562-1.0631 0.43977-2.1878 0.84064-3.4062 1.125-2.2774-6.6464-5.035-12.79-7.3125-19.438h-6.4688zm24.434 3.2188c-0.028914 0.30372-0.020039 0.61331 0.068359 0.9375 2.0259-0.0062 4.0676-0.0246 5.9062 0.15625 0.13823-0.20285 0.17797-0.68008 0.14258-1.0938-0.020909 0.2454-0.06059 0.47344-0.14258 0.59375-1.8387-0.18085-3.8804-0.16245-5.9062-0.15625-0.040641-0.14905-0.054-0.29297-0.068359-0.4375zm-20.186 3.8496c-2.7574 4.7007-5.8862 9.796-8.623 14.338-0.35812 0.5943-0.88792 1.331-0.84375 2h0.0625c0.1453-0.52046 0.51096-1.0514 0.78125-1.5 2.7678-4.5933 5.9388-9.7553 8.7188-14.5-0.02507-0.11995-0.064351-0.22439-0.095703-0.33789zm-16.312 6.1543c-0.13965 8.0693 4.2138 13.272 8.8164 16.029 5.048 3.0248 12.118 3.4652 17.75 0.40625 5.176-2.811 8.3659-7.2839 9.3125-12.939 0.16768-1.002 0.23484-1.9885 0.23242-2.957-0.020778 0.80745-0.093609 1.6275-0.23242 2.457-0.94662 5.6556-4.1365 10.128-9.3125 12.939-5.6324 3.0589-12.702 2.6185-17.75-0.40625-4.5065-2.7002-8.771-7.7458-8.8164-15.529z" fill="#fff59c" fill-opacity=".54904"/>
</svg>
