<?xml version="1.0" encoding="UTF-8"?>
<!-- Created with Inkscape (http://www.inkscape.org/) -->
<svg width="64" height="64" version="1.1" xmlns="http://www.w3.org/2000/svg" xmlns:cc="http://creativecommons.org/ns#" xmlns:dc="http://purl.org/dc/elements/1.1/" xmlns:rdf="http://www.w3.org/1999/02/22-rdf-syntax-ns#" xmlns:xlink="http://www.w3.org/1999/xlink">
	<defs>
		<radialGradient id="a" cx="50.158" cy="20.333" r="32" gradientTransform="matrix(2.3308 0 0 2.2944 -66.409 -26.718)" gradientUnits="userSpaceOnUse">
			<stop stop-color="#f62968" stop-opacity=".67675" offset="0"/>
			<stop stop-color="#ef2b67" stop-opacity=".22353" offset=".58845"/>
			<stop stop-color="#ef2b67" stop-opacity="0" offset="1"/>
		</radialGradient>
	</defs>
	<metadata>
		<rdf:RDF>
			<cc:Work rdf:about="">
				<dc:format>image/svg+xml</dc:format>
				<dc:type rdf:resource="http://purl.org/dc/dcmitype/StillImage"/>
				<dc:title/>
			</cc:Work>
		</rdf:RDF>
	</metadata>
	<path d="m0 1v61l2 2h60l2-2v-61h-32z" color="#000000" fill="#374d71"/>
	<path d="m2 0-2 1v1h64v-1l-2-1h-30z" color="#000000" fill="#dc9e87"/>
	<path d="m2.7188 0-0.8125 0.23437h3.8125l-0.8125-0.23437zm3 0.23437h3.8125l-0.8125-0.23437h-2.1875zl-1.9062 0.53125h3.8125zm1.9062 0.53125h3.8125l-1.9062-0.53125zl-1.9062 0.54687h3.8125zm1.9062 0.54687h3.8125l-1.9062-0.54687zl-1.9062 0.54688h3.8125zm1.9062 0.54688h3.8125l-1.9062-0.54688zl-0.5 0.14062h1zm1.9062-0.54688h3.8125l-1.9062-0.54687zm1.9062-0.54687-1.9062-0.53125-1.9062 0.53125zh3.8125l-1.9062-0.53125zm1.9062-0.53125-0.8125-0.23437h-2.1875l-0.8125 0.23437zh3.8125l-0.8125-0.23437h-2.1875zm3.8125 0h3.8125l-0.8125-0.23437h-2.1562zl-1.9062 0.53125h3.8438zm1.9375 0.53125h3.8125l-1.9375-0.53125zl-1.9375 0.54687h3.8125zm1.875 0.54687h3.8438l-1.9062-0.54687zl-1.875 0.54688h3.8125zm1.9375 0.54688h3.8125l-1.9062-0.54688zl-0.5 0.14062h1zm1.9062-0.54688h3.8125l-1.9062-0.54687zm1.9062-0.54687-1.9062-0.53125-1.9062 0.53125zh3.8125l-1.9062-0.53125zm1.9062-0.53125-0.8125-0.23437h-2.1875l-0.8125 0.23437zh3.8125l-0.8125-0.23437h-2.1875zm3.8125 0h3.8125l-0.8125-0.23437h-2.1875zl-1.9062 0.53125h3.8125zm1.9062 0.53125h3.8438l-1.9375-0.53125zl-1.9062 0.54687h3.8125zm1.9062 0.54687h3.8438l-1.9062-0.54687zl-1.9062 0.54688h3.8438zm1.9375 0.54688h3.8125l-1.9062-0.54688zl-0.5 0.14062h1zm1.9062-0.54688h3.8125l-1.9062-0.54687zm1.9062-0.54687-1.9062-0.53125-1.9062 0.53125zh3.8125l-1.9062-0.53125zm1.9062-0.53125-0.8125-0.23437h-2.1875l-0.8125 0.23437zh3.8125l-0.8125-0.23437h-2.1875zm3.8125 0h3.8125l-0.8125-0.23437h-2.1875zl-1.9062 0.53125h3.8125zm1.9062 0.53125h3.8438l-1.9375-0.53125zl-1.9062 0.54687h3.8125zm1.9062 0.54687h3.8438l-1.9062-0.54687zl-1.9062 0.54688h3.8438zm1.9375 0.54688h3.7812l-1.875-0.54688zl-0.5 0.14062h1zm1.9062-0.54688h3.8125l-1.9375-0.54687zm1.875-0.54687-1.875-0.53125-1.9062 0.53125zh2.9375v-0.25l-0.46875-0.125-0.5625-0.14062zm-1.875-0.53125-0.8125-0.23437h-2.1875l-0.84375 0.23437zh3.75l-0.9375-0.23437h-2zm3.8125 1.0781h1v-0.28125zl-1.9375 0.54688h2.9375v-0.26562zm-1.9375 0.54688-0.46875 0.14062h0.96875zm-7.625 0-0.5 0.14062h1zl-1.9062-0.54688-1.9062 0.54688zm-3.8125 0-0.5 0.14062h1zl-1.9062-0.54688-1.9062 0.54688zm-3.8125 0-0.5 0.14062h1zm1.9062-0.54688h3.8125l-1.9062-0.54687zm-3.8125-1.0781-0.8125-0.23437h-2.1875l-0.84375 0.23437zm-5.75 1.625-0.5 0.14062h1zl-1.9062-0.54688-1.9062 0.54688zm-3.8125 0-0.5 0.14062h1zl-1.9062-0.54688-1.9062 0.54688zm-3.8125 0-0.5 0.14062h1zm1.9062-0.54688h3.8125l-1.9062-0.54687zm-3.8125-1.0781-0.8125-0.23437h-2.1875l-0.84375 0.23437zm-5.7188 1.625-0.5 0.14062h0.96875zl-1.9375-0.54688-1.9062 0.54688zm-3.8438 0-0.5 0.14062h1zl-1.9062-0.54688-1.9062 0.54688zm-3.8125 0-0.5 0.14062h1zm1.9062-0.54688h3.8125l-1.9062-0.54687zm-3.8125-1.0781-0.8125-0.23437h-2.1875l-0.8125 0.23437zm-5.7188 1.625-0.5 0.14062h1zl-1.9062-0.54688-1.9062 0.54688zm-3.8125 0-0.5 0.14062h1zl-1.9062-0.54688-1.9062 0.53125v0.015625zm-1.9062-0.54688-1.9062-0.53125v0.53125zh3.8125l-1.9062-0.54687zm1.9062-0.54687-1.9062-0.53125-1.9062 0.51562v0.015625zm-1.9062-0.53125-0.40625-0.10938-0.4375 0.10938zm-1.9062 1.6406v0.125h0.46875z" fill="#84caff" fill-opacity=".34258"/>
	<path d="m0 2v2.3573h1.9062l-1.3438-2.3573zm1.9062 2.3573h3.8125l-1.3125-2.3573h-1.1875zl-1.9062 3.326v0.064583h3.8125zm1.9062 3.3906h3.8125l-1.9062-3.3906zl-1.9062 3.4229h3.8125zm1.9062 3.4229h3.8125l-1.9062-3.4229zl-1.9062 3.4229h3.8125zm1.9062 3.4229h3.8125l-1.9062-3.4229zl-1.9062 3.4229h3.8125zm1.9062 3.4229h3.8125l-1.9062-3.4229zl-1.9062 3.4229h3.8125zm1.9062 3.4229h3.8125l-1.9062-3.4229zl-1.9062 3.3906h3.8125zm1.9062 3.3906h0.53125c0.49023-1.0009 1.0802-1.9189 1.7188-2.7771l-0.34375-0.61354zl-1.9062 3.4229h1.25c0.24745-1.0288 0.57062-1.9822 0.96875-2.874zm-1.9062 3.4229-1.9062 3.4229h2.6562c0.01065-0.19591 0.01566-0.3822 0.03125-0.58125 0.03137-0.40058 0.10278-0.78137 0.15625-1.1625zl-1.9062-3.4229-1.9062 3.4229zm-3.8125 0-1.9062 3.4229h3.8125zl-1.9062-3.4229-1.9062 3.4229zm-3.8125 0-1.9062 3.4229h3.8125zl-1.9062-3.4229-1.9062 3.3583v0.06458zm-1.9062-3.4229-1.9062-3.326v3.326zh3.8125l-1.9062-3.3906zm1.9062-3.3906-1.9062-3.4229-1.9062 3.3583v0.06458zh3.8125l-1.9062-3.4229zm1.9062-3.4229-1.9062-3.4229-1.9062 3.4229zm-3.8125 0-1.9062-3.3583v3.3583zm1.9062-3.4229-1.9062-3.4229-1.9062 3.3583v0.06458zm-1.9062-3.4229-1.9062-3.3583v3.3583zm5.7188 10.269-1.9062 3.3906h3.8125zm-1.9062 10.236-1.9062 3.4229h3.8125zm1.9062 3.4229h3.8125l-1.9062-3.4229zl-1.9062 3.4229h3.8125zm1.9062 3.4229h3.3438c-0.1259-0.44659-0.21797-0.91681-0.3125-1.3885l-1.125-2.0344zl-1.9062 3.4229h3.8125zm1.9062 3.4229h2.8125c-0.46546-0.89573-0.89384-1.8443-1.2188-2.874zl-1.9062 3.3906h3.8125zm1.9062 3.3906h3.1875c-0.64885-0.75845-1.2426-1.5815-1.7812-2.4865zl-1.9062 3.4229h3.8125zm1.9062 3.4229h3.8125l-1.0312-1.8406c-0.38429-0.355-0.76248-0.73297-1.125-1.1302zl-1.9062 3.4229h3.8125zm1.9062 3.4229h3.8125l-1.9062-3.4229zl-1.9062 3.4229h3.8125zm1.9062 3.4229h3.8438l-1.9375-3.4229zl-1.9062 3.4229h3.8125zm1.9062 3.4229h3.8125l-1.875-3.4229zl-1.9062 3.3906h3.8438zm1.9375 3.3906h3.8125l-1.9375-3.3906zl-0.90625 1.5823h1.7812zm1.875-3.3906h3.8438l-1.9062-3.4229zm1.9375-3.4229-1.9375-3.4229-1.875 3.4229zh3.8125l-1.9062-3.4229zm1.9062-3.4229-0.3125-0.58125c-0.98912-0.10629-1.9594-0.25497-2.9062-0.51667l-0.625 1.0979zh3.8125l-0.3125-0.58125c-1.0725 0.10991-2.1539 0.14417-3.2188 0.06458zm3.8125 0h3.8125l-0.71875-1.2594c-0.89814 0.28038-1.7964 0.4826-2.7188 0.61354h-0.03125zl-1.9062 3.4229h3.8125zm1.9062 3.4229h3.8125l-1.9062-3.4229zl-1.9062 3.4229h3.8125zm1.9062 3.4229h3.8125l-1.9062-3.4229zl-1.9062 3.3906h3.8125zm1.9062 3.3906h3.8438l-1.9375-3.3906zl-0.875 1.5823h1.75zm1.9062-3.3906h3.8438l-1.9062-3.4229zm1.9375-3.4229-1.9375-3.4229-1.9062 3.4229zh3.8125l-1.9062-3.4229zm1.9062-3.4229-1.9062-3.4229-1.9375 3.4229zh3.8125l-1.9062-3.4229zm1.9062-3.4229-1.9062-3.4229-1.9062 3.4229zh3.8125l-1.9062-3.4229zm1.9062-3.4229-1.7188-3.0354c-0.58697 1.0887-1.293 2.0948-2.0938 3.0354zh3.8125l-1.9062-3.3906zm1.9062-3.3906-1.9062-3.4229-0.46875 0.83958c-0.29848 0.90073-0.64162 1.759-1.0625 2.5833zh3.8125l-1.9062-3.4229zm1.9062-3.4229-1.9062-3.4229-1.9062 3.4229zh3.8125l-1.9062-3.4229zm1.9062-3.4229-1.9062-3.4229-1.9062 3.4229zh3.8438l-1.9375-3.4229zm1.9062-3.4229-1.9062-3.4229-1.9062 3.4229zh3.8438l-1.9062-3.4229zm1.9375-3.4229-1.9375-3.4229-1.9062 3.4229zh3.7812l-1.875-3.4229zm1.9062-3.4229-1.9062-3.3906-1.9375 3.3906zh3.8125l-1.9375-3.3906zm1.875-3.3906-1.875-3.4229-1.9062 3.4229zh2.9375v-1.6146l-1-1.8083zm1.9375-3.4229-1.9375-3.4229-1.875 3.4229zh1v-1.8083zm-3.8125 0-1.9062-3.4229-1.9375 3.4229zm-3.8438 0-1.9062 3.4229h3.8438zl-1.9062-3.4229-1.9062 3.4229zm-3.8125 0-1.9062 3.4229h3.8125zl-1.9062-3.4229-1.9062 3.4229zm-3.8125 0-1.9062 3.4229h3.8125zl-1.9062-3.4229-1.9062 3.4229zm-3.8125 0-0.9375 1.7115c0.5016 0.50821 0.96681 1.0742 1.4375 1.7115h1.4062zl-1.9062-3.4229-1.6562 2.9385c0.22058 0.15174 0.41523 0.32642 0.625 0.48438zm-1.9062-3.4229-1.9375-3.4229-1.9062 3.4229zh3.8125l-1.9062-3.4229zm1.9062-3.4229-1.9062-3.4229-1.9375 3.4229zh3.8125l-1.9062-3.4229zm1.9062-3.4229-1.9062-3.3906-1.9062 3.3906zh3.8125l-1.9062-3.3906zm1.9062-3.3906-1.3125-2.3573h-1.1875l-1.3125 2.3573zh3.8125l-1.3125-2.3573h-1.1875zm3.8125 0h3.8125l-1.3125-2.3573h-1.1875zl-1.9062 3.3906h3.8125zm1.9062 3.3906h3.8438l-1.9375-3.3906zl-1.9062 3.4229h3.8125zm1.9062 3.4229h3.8438l-1.9062-3.4229zl-1.9062 3.4229h3.8438zm1.9375 3.4229h3.7812l-1.875-3.4229zm1.9062-3.4229h3.8125l-1.9375-3.4229zm1.875-3.4229-1.875-3.3906-1.9062 3.3906zh2.9375v-1.6146l-1-1.776zm1.9375-3.3906-1.3438-2.3573h-1.1875l-1.2812 2.3573zh1v-1.8083zm-3.8125 0-1.3125-2.3573h-1.1875l-1.3438 2.3573zm3.8125 6.8135h1v-1.8083zl-1.9375 3.4229h2.9375v-1.6146zm-9.5625 3.4229-1.9062-3.4229-1.9062 3.4229zm-3.8125 0-1.9062-3.4229-1.9062 3.4229zm-1.9062-3.4229h3.8125l-1.9062-3.4229zm-3.8125-6.8135-1.3125-2.3573h-1.1875l-1.3438 2.3573zm-3.8438 0-1.875 3.3906h3.8125zl-1.2812-2.3573h-1.1875l-1.3438 2.3573zm-3.8125 0-1.9062 3.3906h3.8125v0.032292l-1.9062 3.3906h3.8125l-1.875-3.4229zl-1.3125-2.3573h-1.1875l-1.3125 2.3573zm-3.8125 0-1.9062 3.3906h3.8125zl-1.3125-2.3573h-1.1875l-1.3125 2.3573zm-3.8125 0-1.9062 3.3906h3.8125zl-1.3125-2.3573h-1.1875l-1.3438 2.3573zm-3.8438 0-1.875 3.3906h3.8125zl-1.2812-2.3573h-1.1875l-1.3438 2.3573zm-3.8125 0-1.9062 3.3906h3.8438zl-1.3125-2.3573h-1.1875l-1.3125 2.3573zm-3.8125 0-1.9062 3.3906h3.8125zl-1.3125-2.3573h-1.1875l-1.3125 2.3573zm-3.8125 0-1.9062 3.3906h3.8125zl-1.3125-2.3573h-1.1875l-1.3125 2.3573zm-3.8125 0-1.9062 3.3906h3.8125zl-1.3125-2.3573h-1.1875l-1.3125 2.3573zm1.9062 3.3906-1.9062 3.4229h3.8125zm1.9062 3.4229h3.8125l-1.9062-3.4229zl-1.9062 3.4229h3.8125zm1.9062 3.4229h3.8125l-1.9062-3.4229zl-1.9062 3.4229h3.8125zm1.9062 3.4229h2.375c0.33419-0.25699 0.66985-0.50502 1.0312-0.74271l-1.5-2.6802zl-1.9062 3.4229h0.8125c0.39696-0.49336 0.81798-0.96478 1.25-1.4208 0.19626-0.20719 0.41609-0.41119 0.625-0.61354zm1.9062-3.4229h3.8438l-1.9375-3.4229zm1.9062-3.4229-1.9062-3.4229-1.9062 3.4229zh3.8125l-1.875-3.4229zm3.8125 0h3.8438l-1.9062-3.4229zl-1.875 3.4229h3.8125zm1.9375 3.4229h1.6875c0.69728-0.06328 1.382-0.09912 2.0312-0.09688 0.01059 3.7e-5 0.02067-5.3e-5 0.03125 0l-1.8438-3.326zl-0.15625 0.25833c0.0902-0.01739 0.18999-0.01618 0.28125-0.03229zm1.9062-3.4229h3.8125l-1.9062-3.4229zm3.8125 0h3.8125l-1.9062-3.4229zl-1.8438 3.326c0.62196 0.0071 1.2301 0.03417 1.8125 0.09688h1.9375zm1.9062 3.4229h3.8125l-1.9062-3.4229zl-0.15625 0.29062c0.12734 0.02718 0.24975 0.06717 0.375 0.09688zm3.8125 0-0.75 1.324c0.74958 0.32501 1.4349 0.69622 2.0938 1.0979zm-15.25 0-1.125 1.9698c0.55073-0.29894 1.1406-0.56394 1.75-0.80729zm22.906 6.8458-0.625 1.1302c0.44033 0.69985 0.84901 1.4585 1.2188 2.2604h1.3125zm1.9062 3.3906h3.8125l-1.9062-3.3906zl-0.75 1.3562c0.252 0.66788 0.47037 1.3506 0.65625 2.0667h2zm1.9062 3.4229h3.8125l-1.9062-3.4229zl-1.4688 2.6479c0.03058 0.2558 0.04193 0.51547 0.0625 0.775h3.3125zm1.9062-3.4229h3.8125l-1.9062-3.3906zm11.469 0h1v-1.776zl-1.9375 3.4229h2.9375v-1.6146zm-1.9375 3.4229-1.875 3.4229h3.8125zm1.9375 3.4229h1v-1.8083zl-1.9375 3.4229h2.9375v-1.6146zm-1.9375 3.4229-1.875 3.4229h3.8125zl-1.875-3.4229-1.9062 3.4229zm-3.7812 0-1.9375 3.4229h3.8438zm1.9062 3.4229-1.9062 3.4229h3.7812zm1.875 3.4229h2.9375v-1.6146l-1-1.8083zl-1.875 3.3906h3.8125zm1.9375 3.3906h1v-1.776zl-1.9375 3.4229h2.9375v-1.6146zm-1.9375 3.4229-1.875 3.4229h3.8125zl-1.875-3.4229-1.9062 3.4229zm-3.7812 0-1.9375 3.4229h3.8438zl-1.9375-3.4229-1.9062 3.4229zm-3.8438 0-1.9062 3.4229h3.8125zl-1.9062-3.4229-1.9062 3.4229zm-3.8125 0-1.9062 3.4229h3.8125zm1.9062 3.4229-1.9062 3.4229h3.8125zm1.9062 3.4229h3.8438l-1.9375-3.4229zl-1.9062 3.4229h3.8125zm1.9062 3.4229h3.8438l-1.9062-3.4229zl-1.9062 3.3906h3.8438zm1.9375 3.3906h3.7812l-1.875-3.3906zl-0.90625 1.5823h1.7812zm1.9062-3.3906h3.8125l-1.9375-3.4229zm1.875-3.4229-1.875-3.4229-1.9062 3.4229zh2.9375v-1.6146l-1-1.8083zm1.9375-3.4229h1v-1.8083zm0 6.8458h1v-1.8083zl-1.9375 3.3906h2.4688l0.46875-0.48438v-1.1302zm-1.9375 3.3906-0.875 1.5823h1.7812zm-7.625 0-0.875 1.5823h1.75zl-1.9062-3.3906-1.9062 3.3906zm-3.8125 0-0.875 1.5823h1.75zl-1.9062-3.3906-1.9062 3.3906zm-3.8125 0-0.875 1.5823h1.75zl-1.9062-3.3906-1.9062 3.3906zm-3.8125 0-0.90625 1.5823h1.7812zm1.9062-3.3906h3.8125l-1.9062-3.4229zm1.9062-3.4229h3.8125l-1.9062-3.4229zm3.8125 0-1.9062 3.4229h3.8125zm1.9062-10.269h3.8125l-1.9062-3.3906zm1.9062-3.3906h3.8438l-1.9375-3.4229zm3.8438 0-1.9375 3.3906h3.8438zm5.7188-3.4229h1v-1.8083zm-13.375-3.4229-1.375-2.4542c0.02294 0.80334-0.0097 1.6254-0.09375 2.4542zm-1.9062 3.4229-0.15625-0.25833c-0.02286 0.08513-0.0386 0.17382-0.0625 0.25833zm-5.7188 10.236-0.5625-1.001c-0.44364 0.35514-0.9218 0.67916-1.4062 1.001zm-1.9375 3.4229-1.4375-2.5833c-0.42135 0.23307-0.84552 0.45276-1.2812 0.64583h-0.03125l-1.0625 1.9375zm-5.7188 10.236-0.875 1.5823h1.75zl-1.9062-3.3906-1.9062 3.3906zm-3.8125 0-0.875 1.5823h1.75zl-1.9062-3.3906-1.9062 3.3906zm-3.8125 0-0.90625 1.5823h1.7812zm1.9062-3.3906h3.8125l-1.9062-3.4229zm-3.8438-6.8458-0.875-1.5823c-0.55717-0.20847-1.098-0.48023-1.625-0.74271l-1.3125 2.325zm-5.7188 10.236-0.875 1.5823h1.75zl-1.9062-3.3906-1.9062 3.3906zm-3.8125 0-0.875 1.5823h1.75zl-1.9062-3.3906-1.9062 3.3906zm-3.8125 0-1.9062-3.3906-1.9062 3.3906-1.9062-3.3906-1.9062 3.4229h3.7812l-0.84375 1.55h1.75l-0.875-1.55h3.7812l-0.84375 1.55h1.75l-0.875-1.55zm-7.625 0.03229-0.875 1.55h1.75zl-1.9062-3.4229-1.75 3.0677 0.34375 0.35521zm-1.9062-3.4229-1.9062-3.3583v3.3583zh3.8125l-1.9062-3.4229zm1.9062-3.4229-1.9062-3.3906-1.9062 3.326v0.06458zh3.8125l-1.9062-3.3906zm1.9062-3.3906-1.9062-3.4552-1.9062 3.4552zh3.8125v-0.03229l-1.9062-3.4229zm1.9062-3.4552-1.9062-3.4229-1.9062 3.4229zh3.8125l-1.9062-3.4229zm1.9062-3.4229-1.9062-3.3906-1.9062 3.3906zm-3.8125 0-1.9062-3.3906-1.9062 3.3906zm-3.8125 0-1.9062 3.3583v0.06458h3.8125zl-1.9062-3.326v3.326zm1.9062-3.3906-1.9062-3.4229-1.9062 3.3583v0.06458zh3.8125l-1.9062-3.4229zm1.9062-3.4229-1.9062-3.4229-1.9062 3.4229zm-3.8125 0-1.9062-3.3583v3.3583zm1.9062-3.4229-1.9062-3.4229-1.9062 3.3583v0.06458zm-1.9062-3.4229-1.9062-3.3583v3.3583zm9.5312 17.082-1.9062 3.4229h3.8125zm1.9062 3.4229-1.9062 3.4229h3.8125zm1.9062 3.4229-1.9062 3.4229h3.8125zm-1.9062 3.4229-1.9062-3.4229-1.9062 3.4229zm-3.8125 0-1.9062-3.4229-1.9062 3.4229zm-1.9062-3.4229h3.8125l-1.9062-3.3906zm-5.7188-3.3906-1.9062-3.3906v3.3906zm17.156-3.4552h1.3438c-0.32356-0.2163-0.65089-0.43627-0.96875-0.67812zm-7.625-13.659h0.8125c-0.04237-0.43273-0.04633-0.8728-0.0625-1.324z" fill="#001942" fill-opacity=".12701"/>
	<path d="m0 2v60l2 2h60l2-2v-60h-32z" color="#000000" fill="url(#a)"/>
	<path d="m49.562 11.688c-2.3552 0.0077-4.8588 0.15625-7.0312 0.15625-4.8484 0-9.6048-0.15488-13.812 0.15625-6.5008 0.48067-11.324 3.3198-14.656 6.9062-3.4038 3.6638-6.0625 8.8541-6.0625 15.219 0 6.6347 2.5818 11.595 6.0625 15.219 3.3113 3.4468 8.2136 6.4929 14.375 6.9062 11.364 0.76161 18.916-5.6205 22.25-13.688 2.1651-5.2386 4.7994-11.52 7.0625-17.031 0.68383-1.6651 2.0242-3.7857 2.25-5.7812 0.44974-3.9772-1.6839-6.2533-4.375-7.3125-1.5107-0.5946-3.7073-0.75773-6.0625-0.75zm2.3125 2.5312c1.5015 0.0633 2.94 1.1442 2.75 3.125-0.22948 2.3928-2.6143 4.0856-3.6562 5.6562h3.6562c0.22011 0.32318 0.22011 1.3645 0 1.6875-1.8387-0.18085-3.8803-0.16245-5.9062-0.15625-0.86244-3.1629 4.4775-5.2723 3.9375-7.875-0.25476-1.2276-2.005-1.2672-1.6875 0.5625h-2.0938c-0.03904-2.0931 1.4985-3.0633 3-3zm-21.438 1.875c5.4263 0.01811 9.3401 2.1854 12.094 4.6562 3.4556 3.1007 6.6594 9.4159 5.5 16.344-0.94662 5.6556-4.1365 10.127-9.3125 12.938-5.6324 3.0589-12.702 2.6185-17.75-0.40625-4.8717-2.919-9.47-8.5708-8.75-17.469 0.38281-4.7312 2.4585-8.0267 5.0938-10.719 2.4554-2.5085 5.8851-4.7054 10.688-5.2188 0.83796-0.08961 1.6623-0.12759 2.4375-0.125zm-6.2188 4.7812v3.8125h3.2188c0.31098 1.098 0.88139 1.9282 1.125 3.0938-2.7799 4.7447-5.951 9.9067-8.7188 14.5-0.35812 0.5943-0.88792 1.331-0.84375 2h4.7812c2.4395-3.4785 4.5232-7.3088 7.0312-10.719 1.3931 3.9612 3.0598 7.6482 4.375 11.688 2.6673-0.66702 5.3782-1.3183 7.625-2.4062-0.63371-1.0573-0.73209-2.6397-1.4062-3.6562-1.0631 0.43977-2.1878 0.84064-3.4062 1.125-2.2774-6.6464-5.035-12.791-7.3125-19.438z" fill="#f8b322"/>
	<path d="m0 1v3l2-2z" fill="#dfbeb4"/>
	<path d="m64 4-2-2 2-1z" fill="#ae6d82"/>
</svg>
