<?xml version="1.0" encoding="UTF-8"?>
<!-- Created with Inkscape (http://www.inkscape.org/) -->
<svg width="64" height="64" version="1.1" xmlns="http://www.w3.org/2000/svg" xmlns:cc="http://creativecommons.org/ns#" xmlns:dc="http://purl.org/dc/elements/1.1/" xmlns:rdf="http://www.w3.org/1999/02/22-rdf-syntax-ns#" xmlns:xlink="http://www.w3.org/1999/xlink">
	<defs>
		<linearGradient id="linearGradient23203" x1="32.712" x2="32.712" y1="10" y2="7.0266" gradientUnits="userSpaceOnUse">
			<stop stop-color="#93e4ff" stop-opacity=".74141" offset="0"/>
			<stop stop-color="#98e3ff" stop-opacity=".58279" offset="1"/>
		</linearGradient>
		<radialGradient id="radialGradient58" cx="31.821" cy="13.638" r="25" gradientTransform="matrix(1.6473,0,0,1.5814,-20.599,-7.1152)" gradientUnits="userSpaceOnUse">
			<stop stop-color="#4d77ce" offset="0"/>
			<stop stop-color="#3981d6" offset="1"/>
		</radialGradient>
		<linearGradient id="linearGradient20088" x1="32.712" x2="32.712" y1="3" y2="64" gradientUnits="userSpaceOnUse">
			<stop stop-color="#a6f2ff" stop-opacity=".17611" offset="0"/>
			<stop stop-color="#a6f2ff" stop-opacity=".054943" offset="1"/>
		</linearGradient>
	</defs>
	<metadata>
		<rdf:RDF>
			<cc:Work rdf:about="">
				<dc:format>image/svg+xml</dc:format>
				<dc:type rdf:resource="http://purl.org/dc/dcmitype/StillImage"/>
			</cc:Work>
		</rdf:RDF>
	</metadata>
	<path d="m1.6362e-8 1-1.6362e-8 33v28l2 2h60l2-2v-61l-2-1h-60z" color="#000000" fill="#4182d9" stop-color="#000000" style="-inkscape-stroke:none;font-variation-settings:normal;paint-order:stroke fill markers"/>
	<path d="m7 56v-44l2-2h46l2 2v44l-2 2h-46z" color="#000000" fill="url(#radialGradient58)"/>
	<path d="m2 0-2 1 7 11 2-2h46l2 2 7-11-2-1z" color="#000000" fill="url(#linearGradient23203)"/>
	<path d="m0 1 1.6362e-8 61 7-6v-44z" color="#000000" fill="url(#linearGradient20088)" stop-color="#000000" style="-inkscape-stroke:none;font-variation-settings:normal"/>
	<path d="m64 1v61l-7-6v-44z" color="#000000" fill="url(#linearGradient20088)" stop-color="#000000" style="-inkscape-stroke:none;font-variation-settings:normal"/>
	<g>
		<path d="m64 62-2 2h-60l-2-2 7-6 2 2h46l2-2z" color="#000000" fill="#333c51" fill-opacity=".46029"/>
		<path d="m64 62-2 2-7-6 2-2z" color="#000000" fill="#3d7fce"/>
		<path d="m2 64-2-2 7-6 2 2z" color="#000000" fill="#3d7fce" stop-color="#000000" style="-inkscape-stroke:none;font-variation-settings:normal"/>
		<path d="m2 0-2 1 7 11 2-2z" color="#000000" fill="#8bd2ff" fill-opacity=".66723"/>
		<path d="m62 0 2 1-7 11-2-2z" color="#000000" fill="#8bd2ff" fill-opacity=".66723" stop-color="#000000" style="-inkscape-stroke:none;font-variation-settings:normal"/>
	</g>
	<path d="m32.5 20c-1.3807 0-2.5 1.1193-2.5 2.5s1.1193 2.5 2.5 2.5 2.5-1.1193 2.5-2.5-1.1193-2.5-2.5-2.5zm-5.5 8v2h3v12h-3v2h11v-2h-3v-14h-5z" color="#000000" fill="#d2eaea"/>
</svg>
