<?xml version="1.0" encoding="UTF-8"?>
<svg id="h" width="64" height="64" version="1.1" xmlns="http://www.w3.org/2000/svg" xmlns:cc="http://creativecommons.org/ns#" xmlns:dc="http://purl.org/dc/elements/1.1/" xmlns:rdf="http://www.w3.org/1999/02/22-rdf-syntax-ns#">
	<defs id="q">
		<radialGradient id="a" cx="32" cy="26.394" r="32" gradientTransform="matrix(1.4062 0 0 1.3623 -13 -11.956)" gradientUnits="userSpaceOnUse">
			<stop id="l" style="stop-color:#c09f68" offset="0"/>
			<stop id="n" style="stop-color:#dab679" offset="1"/>
		</radialGradient>
	</defs>
	<metadata id="k">
		<rdf:RDF>
			<cc:Work rdf:about="">
				<dc:format>image/svg+xml</dc:format>
				<dc:type rdf:resource="http://purl.org/dc/dcmitype/StillImage"/>
				<dc:title/>
			</cc:Work>
		</rdf:RDF>
	</metadata>
	<path id="d" d="m0 2v28.467l1.5299 0.5332-1.5299 1v30l2 2h60l2-2v-60h-32z" style="color:#000000;fill:#624f2d"/>
	<path id="e" d="m0 2v28.467c0.89232-0.53826 0.60028-0.51431 2.3438 0.35742 0.86978 0.43489 2.4976 0.63281 3.5156 0.63281 0.10238 0 0.24241 0.023379 0.38086 0.046875 0.38386-0.045451 0.71924-0.028807 0.88086 0.13281 0.059542 0.059541 0.16774 0.13713 0.25586 0.21094 0.23244 0.10302 0.44101 0.21444 0.55664 0.33008 0.067193 0.06719 0.36456 0.089844 0.26953 0.089844-0.27903 0-0.58028-0.21396-0.82617-0.41992-0.35992-0.15952-0.7792-0.28308-1.1367-0.34375-0.77629 0.091917-1.7638 0.46393-2.0039 0.58398-0.26923 0.13461-0.88654-0.21866-1.1719-0.36133-0.38244-0.19122-1.3657 0-1.8027 0-0.34673 0-0.81255 0.066742-1.2617 0.16797v30.106l2 2h60l2-2v-60h-64z" style="fill:url(#a)"/>
	<path id="b" d="m2 0-2 1v1h64v-1l-2-1h-30z" style="color:#000000;fill:#ffe6bd"/>
	<path id="c" d="m0 1v3l2-2z" style="fill:#ffefd5"/>
	<path id="g" d="m64 4-2-2 2-1z" style="fill:#ecd3aa"/>
	<path id="i" d="m4.6562 3.8535c-0.24664-0.015207-0.47057 0.021857-0.65625 0.14648 0.1391-0.013094 0.27928-0.055968 0.41797-0.039062 0.3141 0.038287-0.56517 0.9265-0.63086 0.99219-0.33149 0.33149-2.2275 1.4785-2.2539 1.5312-0.039844 0.079688 0.64533 0.84921 0.35938 0.99219-0.52451 0.26226-1.3517 0.18072-1.8926 0.45117v0.019531c0.86694 0.045454 2.7166 0.33345 3.2461-0.019531 0.38884-0.25923 0.17969-1.1441 0.17969-1.082 0 0.36661 1.3922 1.4028 1.7129 1.082 0.64278-0.64278 0.11042-1.7335 0.63086-2.2539 0.50665-0.50665 2.788-0.71569 3.1543-1.082 0.063484-0.063484-1.5831-0.17969-1.8926-0.17969-0.69491 0-1.6351-0.51297-2.375-0.55859zm15.945 3.0508c-0.34611-0.10341-0.85472 0.71408-2.6016 4.0957 2.4865 1.183 0.9169-0.27095 2.7344-1.1797 3.5481-1.774 10.698-1.5874 15.348-1.543-2.0271-0.05984-5.7145-1.2902-7.5957-0.34961-1.2101 0.60505-2.3357-0.54502-2.5234-0.45117-4.6586 2.3293-4.7845-0.39992-5.3613-0.57227zm15.48 1.373c0.0497 0.00147 0.11057 0.00977 0.1582 0.00977h1.1719c-0.37756 0-0.9035-0.00569-1.3301-0.00977zm-21.658-0.98047c-0.27662 0.13831-0.76577 2.2323-1.9648 2.9277 1.045 0.01141 2.0062-0.26404 2.8672-1.125 0.65564-0.65564 3.5109 2.0144 1.6738-1.0996-0.72636 2.2045-2.2821-0.85018-2.5762-0.70312zm-1.9648 2.9277c-0.7117-0.0078-1.4823-0.15974-2.2695-0.34961 0.95485 0.67814 1.6956 0.68251 2.2695 0.34961zm-2.2695-0.34961c-0.25695-0.18249-0.52488-0.39597-0.81445-0.68555-1.1231-1.1231-4.4842-0.27148-4.416-0.27148 1.8776 0 3.6184 0.56822 5.2305 0.95703zm46.828-1.6152c-5.1898-0.071373-14.77 0.85245-17.018 0.74023 4.0489 0.75329 8.135 0.18945 12.287 0.18945 0.58231 0 8.7763 0.30169 8.0234-0.45117-0.31992-0.31991-1.563-0.45472-3.293-0.47852zm-44.018 2.7402c-0.07641 2.7108-4.1218 6.0478 0.25195 4.5898 4.8565-1.6188 3.4439-4.6189-0.25195-4.5898zm41.189 4.0781c-0.0064 0.0032-0.0098 0.02283-0.0098 0.06055-1e-6 0.27716 0.18669 1.5262 0 1.7129-0.30478 0.30477-1.9515 2.1231-2.0742 2.1641-0.6996 0.23321-1.4147-0.33082-2.1054-0.015628-0.72835 0.23495-1.6291-0.50476-2.3105-0.16406-0.55297 0.27648-1.0808 0.54102-1.8027 0.54102h1.5312c0.6895 0 1.6242 0.13437 2.0742 0.35938 0.2478 0.1239-0.36803 0.45341-0.63086 0.54102-0.16623 0.05541 0.14563 0.32727 0.26953 0.45117 0.25439 0.25439-0.20745 1.2274-0.26953 1.3516-0.07818 0.15636-0.92329 1.0821-1.2324 1.7832-1.729-0.03422-3.4568-0.07031-5.168-0.07031-1.1652 0-5.5984 0.4162-6.4922-0.17969-0.74138-0.49425-4.5908-0.27148-5.5879-0.27148-0.77721 0-1.2966 0.28892-1.9844 0.63281-0.11082 0.05541-0.48327 0.08984-0.35938 0.08984 0.82831 0 1.4651 0.46202 2.1621 0.81055 0.7497 0.37485 2.0144-0.0093 2.7051 0.45117 0.17386 0.11591 7.5914 0.3664 8.3848 0.63086 2.1631 0.72103 8.5957-0.7086 10.816 0.17969 0.72999 0.292 2.1766 0 2.9766 0 0.15455 0 1.5647 0.11272 1.6211 0 0.23887-0.47774-0.07868-0.8217 0.27148-1.1719 0.14146-0.14146 3.648 1.4907 4.2363 0.90234 0.6468-0.64679 2.9678-1.3916 0.78906-1.8672-2.1551-0.05015-4.3129-0.02539-6.4688-0.02539-2.3451 0-4.6961-0.04949-7.041-0.09766 0.03334-0.02754 0.07477-0.07156 0.09961-0.08398 1.3328-0.66639 2.7674-1.7811 3.877-2.6133 0.43559-0.3267 1.076-1.3535 1.623-1.3535 0.81 0 6.9325-0.09878 7.0312 0 0.39274 0.39274 1.1866-0.02375 1.8027 0.18164 0.32004 0.10668 0.69053 0.18694 1.0762 0.24609v-1.8672c-0.1402 0.0041-1.0825 0.44094-1.3457 0.17773-0.33718-0.33718-5.3142-0.72486-5.7695-0.26953-0.13983 0.13983-1.6946 0.46753-1.8027 0.35938-0.03247-0.03247-0.79722-3.6246-0.89258-3.5762zm-39.045 3.4863c-0.41397-0.20698 0.61369 1.5141-0.26953 0.63086-0.15891-0.15891-0.78517 0.10351-0.99219 0-2.0106-1.0053-5.3909 0.31821-7.2109 0.72266-0.70077 0.15573-1.6186 0-2.3438 0-1.552 0-2.7384-0.22604-4.3281-0.25977v0.32422c2.3888-0.01732 4.5904 0.05225 6.9414 0.83594 1.7747 0.59157 3.3379-0.54102 4.959-0.54102 0.44561 0 2.5156-0.27737 2.793 0 0.77686 0.77686 9.7695 0.20898 10.367-0.08984 0.29814-0.14907-0.13614-0.22599-0.17969-0.26953-0.13548-0.13548 0.076104-0.81439 0.11914-0.91797-0.50724 0.7108-1.5217 0.43958-2.1016 0.82617-0.81606 0.54404-4.2209-0.37154-4.8691-0.63086-0.9402-0.37608-1.9944-0.18565-2.8848-0.63086zm7.5527 3.248c-0.18536 0.01217-0.33432 0.04021-0.42969 0.08789-1.2729 0.63646-2.5412 1.7129-4.1484 1.7129-0.87427 1e-6 -3.0259-0.62526-3.1191-1.6133-0.20554 0.5755 0.12834 0.42326 0.41602 0.71094 0.24045 0.24045 0.37834 0.73967 0.7207 1.082 0.25316 0.25316 2.533 0.62705 2.8848 0.45117 0.4528-0.2264 0.57355-0.51138 0.99219-0.7207 0.51566-0.25783 5.4047 0.03166 6.1289-0.45117 0.93776-0.62517-2.1478-1.345-3.4453-1.2598zm-10.166 0.44922c-0.03795-0.03795-0.40382 0.56128-0.90234 0.81055-1.5998 0.79991-0.9239-0.67564-1.8926 1.2617-0.017245 0.03449-0.19804 0.39707-0.089844 0.45117 0.35655 0.17828 1.8037-0.27243 1.9824-0.45117 0.3517-0.3517 1.1264 0.67826 1.5332 0.27148 0.23349-0.23349-0.016107-0.41166-0.16211-0.60547-0.52747-0.30862-0.17556-1.4451-0.46875-1.7383zm18.57 5.5879v1.5332c0 2.2251 0.0099 4.5047-0.10156 6.6172 0.59568-0.07688 1.8187-0.49255 2.084-0.75781 0.51825-0.51825 2.8314-0.17969 3.6074-0.17969 0.67375 0 2.3802 7e-3 3.0527-0.33008-2.3251 0.03486-4.6578-0.0113-5.0371-0.39062-0.27808-0.27808-0.33444 0.30952-0.35938 0.35938-0.09668 0.19335-1.0903-0.13888-1.1719-0.17969-0.65251-0.32626-2.0742-5.5995-2.0742-6.6719zm8.6426 6.8828c0.44855-0.0067 0.85502-0.01992 1.2871-0.03125-0.48516-0.03982-1.0947-0.09085-1.0957-0.08984-0.04588 0.04588-0.11754 0.08407-0.19141 0.12109zm1.2871-0.03125c0.97633 0.08013 2.2743 0.18164 2.8711 0.18164h3.4258c0.75289 1e-6 1.5744-0.0506 1.5332-0.0918-0.07672-0.07672-0.19966-0.13409-0.34961-0.17969h2.9629c0.56279 0 1.1949-0.62701 1.6895-0.91992-2.3545 0.14151-6.1099 0.47322-6.377 0.74024-0.0206 0.0206-0.01562 0.03648-0.0098 0.05273-0.9268 0.02673-1.8942 0.12695-2.334 0.12695-0.52098 0-1.9034 0.05028-3.4121 0.08984zm12.133-1.0098c0.49755-0.0299 0.82229-0.04059 1.1445-0.05078-0.41271-0.06755-0.81711-0.12856-1.0312-0.02148-0.03501 0.01751-0.0766 0.05054-0.11328 0.07227zm1.1445-0.05078c0.54029 0.08844 1.0994 0.19158 1.3125-0.02148 0.01569-0.01569 0.03432-0.05077 0.05078-0.07031-0.35628 0.02501-0.7221 0.07031-0.86133 0.07031-0.09464 0-0.36064 0.01701-0.50195 0.02148zm1.3633-0.0918c0.38049-0.0267 0.75103-0.03022 0.85156 0.07031 1.0312 1.0312-1.8761 1.2637 0.45117 1.2637 0.58772 0 1.259-0.02447 1.9023 0.01953-0.66899-0.5099-1.6328-3.2697-1.6328-4.168 0-0.42341-0.08984-0.78476-0.08984-1.1719 0-0.1202 0.08499-0.44437 0-0.35938-0.71056 0.71056-0.23367 2.0005-0.63086 2.7949-0.20947 0.41894-0.57861 1.2267-0.85156 1.5508zm3.2051 1.3535c0.04107 0.0313 0.08452 0.0845 0.12305 0.09766 0.01287-0.0011 0.65417 0.11228 1.293 0.19922-0.41056-0.18089-0.90305-0.26179-1.416-0.29688zm-58.031-6.2422c-0.29639 0.011156-0.61554 0.12966-0.8457 0.25391v1.0859c0.08546 0 0.38013 0.05925 0.66797 0.11523 0.09024-0.0162 0.21033 0.02043 0.32617 0.05859 1.333 0.26797 3.5217 0.71849 3.873 0.36719 0.58383-0.58383 0.66223-1.4208 0.00195-1.4902-0.56361 0.81494-2.8759 0.05325-3.6074-0.3125-0.12261-0.0613-0.26602-0.08377-0.41602-0.07813zm11.668 0.57812c-0.04503-0.0082-0.0873-5.92e-4 -0.12109 0.0332-0.46372 0.46372 0.0056 2.357 0.17969 2.7051 0.15672 0.31344 0.69774 1.2138 0.54102 0.90039-0.13264-0.26529-0.47759-0.17969-0.7207-0.17969-1.5197 0-2.6063-0.7207-4.0566-0.7207-0.093391 0-0.16075 0.11645-0.21484 0.26953 0.075102 0.01528 0.13138 0.02148 0.082031 0.02148-0.027465 0-0.056162-0.0097-0.083984-0.01367-0.13307 0.38421-0.1527 1.0409-0.052734 1.0742 0.52555 0.17518 0.81676 1.0882 1.1719 1.4434 0.13184 0.13184 0.43131-0.21663 0.54102-0.27148 0.38821-0.1941 0.83395-0.1386 0.99023-0.45117 0.09539-0.19077 0.67848-0.22109 1.2285-0.24805 0.0055 0.08509 0.02831 0.15282 0.08203 0.17969 0.0082 0.0041 0.0397 0.03764 0.05859 0.05078-0.04365-0.08113-0.07321-0.1555-0.10547-0.23242 0.38586-0.01891 0.75531-0.03684 0.90039-0.10938 0.92491-0.46246 4.6378-3.9598 4.666-4.0801-0.83079 0.21044-4.3184 0.13342-4.7559-0.1582-0.03424-0.02282-0.195-0.18832-0.33008-0.21289zm-0.375 4.793c0.06141 0.11414 0.09822 0.18028 0.16797 0.29102 0.02403-0.13369-0.08888-0.236-0.16797-0.29102zm0.16797 0.29102c-0.0065 0.03632-0.01077 0.07327-0.04687 0.10938-0.24251 0.24251-0.69428 0.3349-0.99024 0.63086-0.75408 0.75408-2.387 1.0767-2.8848 2.0723-0.086178 0.17236-0.21673 0.12689-0.36133 0.27148-0.21223 0.21223 0.50766 0.42195 0.089844 0.63086-0.31139 0.15569-6.5129 0.36133-6.9414 0.36133-0.36219-1e-6 -0.76186-5.28e-4 -1.1719 0.003906v1.4512c1.2647 0.07704 3.1091 0.14469 3.2461 0.07617 0.1999-0.09995 1.145-0.35938 1.2617-0.35938 0.35928 0 2.0253-0.22863 2.2539 0 0.22573 0.22573 1.608 0.863 2.0723 0.63086 0.41498-0.20749 0.38335-1.094 0.90234-1.3535 0.94959-0.47479 12.194-0.70379 12.98-0.17969 1.046 0.6973 8.1635-0.7207 9.377-0.7207h-4.3281c-1.1766 0-3.2115 0.06122-4.2363-0.45117-0.66902-0.33451-3.7993 0-4.7773 0-3.9295 0-4.0394 1.4798-6.041-2.5234-0.05778-0.11555-0.24176-0.39234-0.4043-0.65039zm50.898-3.4297c-1.0493-0.01859-1.9164 0.03557-2.1738 0.29297-0.02493 0.02493 1.1434 1.3842 1.4414 1.5332 0.29014 0.14507 0.37888-0.54102 0.8125-0.54102 0.05615 0 0.4968-0.03151 0.71484-0.04297v-1.207c-0.2672-0.01114-0.54288-0.03069-0.79492-0.03516zm-55.205 0.10742c-0.43156 0.01495 0.208 0.37206 0.29297 0.45703 0.20524 0.20524 2.0688-0.0578 2.5703 0.94531 0.03639 0.07279 0.75745-0.09533 1.166-0.12305-0.37004-0.28987-0.96479-1.0507-0.98633-1.0938-0.26742-0.53484-0.25083 0.69644-0.58594 0.36133-0.070793-0.070793-0.15472-0.30392-0.26953-0.36133-0.22546-0.11273-2.0303-0.080408-2.1875-0.18555zm4.0293 1.2793c0.1329 0.1041 0.23809 0.15272 0.27539 0.07813 0.04098-0.08196-0.09357-0.09046-0.27539-0.07813zm48.266 2.9199c0.03434 0.01516 0.07231 0.02639 0.10547 0.04297 0.02031 0.01016 0.20148 0.0046 0.32617 0.0039-0.14735-0.01618-0.27452-0.02551-0.43164-0.04687zm0.43164 0.04687c0.4526 0.0497 0.8457 0.07483 0.8457-0.0039 0-0.01864-0.5015 0.0021-0.8457 0.0039zm-16.104 3.0605c-0.44712 0.44711-0.91019 1.2715-1.3516 1.7129-0.38396 0.38396-1.3704-0.61206-1.8027-0.17969-0.24581 0.24581-0.61972 0.36133-0.99219 0.36133-0.8164 0-5.2145 0.34734-5.498 0.63086-0.138 0.138-1.2109 0.27111-1.7832 0.32031 1.0387-0.06973 4.1034-0.34387 4.3066-0.14062 0.10957 0.10957 0.82717 0.36133 1.082 0.36133 0.27524 0 1.2841 0.60845 1.623 0.26953 0.6705-0.6705 2.3029-1.4618 3.4258-0.90039 1.2561 0.62803 3.0039 0.10026 4.3262 0.54102 0.6212 0.20707 0.9863 1.2676 1.082 1.1719 0.51242-0.51242-0.34707-1.4505 0.54102-1.8945 0.36486-0.18243 6.3958 0.18164 7.4824 0.18164 0.17519 0 1.5697 0.10664 1.623 0 0.1694-0.33879 1.7554-0.86014 2.3125-0.74218-2.2129-0.90061-6.3435-0.42969-8.8945-0.42969-1.7863 0-7.3304-1.4157-7.4824-1.2637zm-11.428 2.8457c-0.13103 0.0088-0.51419 0.03906-0.56055 0.03906h0.17969c0.05074 0 0.26524-0.02912 0.38086-0.03906zm-26.434 1.6621c-0.088243-0.08824-2.2166 0.63086-2.5254 0.63086-0.49106 0-2.1835 0.09355-3.5996 0.11524 0.88686 0.23535 2.0693 0.42578 2.5176 0.42578 1.0143 0 4.0099-0.29484 4.7793 0.08984 0.39573 0.19786 1.0672 0.25668 1.3516 0.54102 0.93149 0.93149 1.4744 2.4665 2.2539 3.2461 0.26877 0.26877 0.09255 1.3508 0.36133 1.082 0.88057-0.88057-0.52081-3.5378 0.44922-4.5078 0.6504-0.6504 3.0664 1.3587 3.0664-0.17969 0-0.07094 0.03449-0.41668 0-0.45117-0.43396-0.43395-0.3034-0.076584-0.41602-0.80664 0.0183 0.20877 0.09583 0.42146 0.05469 0.62695-0.0038 0.0191-1.3211 0.21018-1.4414 0.08984-1.0926-1.0926-5.5019 0.44727-6.8516-0.90234zm-6.125 0.74609c-0.23904-0.063435-0.45866-0.12868-0.63672-0.19531v0.19141c0.21557 9.02e-4 0.39995 0.0075 0.63672 0.0039zm56.066-0.023438c-0.23647 0.23647 0.2737 1.2596-0.08984 1.4414-1.5186 0.75928-5.7736 0.17969-7.4824 0.17969h-7.6621c2.4678 0 4.9859 0.73163 7.1211 1.4434 0.45914 0.15305 1.626-0.62795 2.0742-0.17969 0.25977 0.25977 1.4829 0.65407 1.8926 0.44922 0.15221-0.07611 0.25849-0.44467 0.45117-0.54102 1.3226-0.66131 4.904 0.65836 6.2207 0 1.1769-0.58844 3.0796 0.39869 4.2363-0.17969 0.074121-0.037061 0.33886-0.11628 0.53516-0.18164v-0.14844c-1.6656 0.02199-3.7056-0.12109-4.502-0.12109-1.1778 0-1.5499-0.25059-2.1641-1.1719-0.1292-0.1938-0.47675-0.52792-0.54102-0.7207-0.03005-0.09015-0.02265-0.33672-0.08984-0.26953zm-24.703 2.4629c-1.1708 0.04672-0.12421 1.089-0.44727 1.4121-0.7608 0.7608-3.2035 0.36133-4.418 0.36133-1.117 0-2.5394 0.30646-2.4336 0.35937 0.49447 0.24724 1.5305 0.36057 1.9824 0.8125 0.58164 0.58164 2.8588-1.2896 3.6973-0.45117 0.18924 0.18924 2.1535 0.91286 2.2539 0.8125 0.44028-0.44028 1.0102-0.59688 1.6211-0.90234 0.08343-0.04171 0.61059-0.09328 0.78906-0.08594-0.19101-0.17295-0.4026-0.36523-0.60742-0.36523-0.98142 0-1.0744-0.9826-1.623-1.5312-0.07314-0.07314-1.2617 0.05486-1.2617 0 0-0.0806 0.09865-0.16437 0.44727-0.42188zm3.0449 2.3184c0.06888 0.06237 0.14539 0.13248 0.20312 0.17578 0.0062 0.0046 0.04652 0.0094 0.06055 0.01367-0.05083-0.07064-0.10435-0.14732-0.15039-0.19336-0.0048-0.0048-0.08604 5e-3 -0.11328 0.0039zm0.26367 0.18945c0.13238 0.18395 0.27072 0.37772 0.39062 0.25781 0.1828-0.1828-0.25306-0.21592-0.39062-0.25781zm-31.309 0.49219c-0.38869 1.4629-0.58118 1.1172-1.7461 1.1172-0.81945 0-1.524 0.27182-2.2539 0.42969v0.94336c1.5015 0.37559 3.5692 0.26811 4.6875-0.29102 0.74122-0.37061 1.9844 1.2523 1.9844 0.90039 0-0.46294-0.7768-0.77484-0.99219-0.99023-0.20706-0.20706-0.031146-1.0233-0.27148-1.2637-0.3401-0.3401-1.3303-0.42577-1.4082-0.8457zm55 2c-0.55447 0.35228-1.5121 0.1371-2.0254 0.65039-0.25937 0.25937 0.55241 0.51486 0.90039 0.63086 1.2023 0.40078 4.0063 0.24457 6.125 0.19922v-0.69922c-0.92617-0.09497-1.8503-0.22266-2.248-0.22266-0.45736 0-0.81582 0.44951-1.1719 0.27148-0.47584-0.23792-1.2473-0.75992-1.5801-0.83008zm-24.562 2.8125c-0.72603 0.36301-1.5186 0.95928-2.1641 1.4434-0.66185 0.49639-2.1339-0.08666-2.7949 0.35938-0.16956 0.11441-0.31893 0.25681-0.47852 0.38477 0.59956 0.49657 1.659 0.34646 2.1914 0.87891 0.53465 0.53466 0.73411 1.5447 1.3516 2.1621 0.23096 0.23096 0.43839-1.7065 1.5332-2.2539 0.79797-0.39898 0.61263 0.16341 1.082 0.63281 0.13058 0.13058 0.53836-0.54164 0.7207-0.63281 0.52404-0.26202 1.1391-0.48792 1.623-0.81055 0.54899-0.36599 10.028 0.99219 10.908 0.99219 1.7453 0 4.2107 0.47106 5.8594 0 1.0112-0.28891 2.4164-0.90234 3.5156-0.90234 0.19468 0 2.2539-0.58608 2.2539-0.81055 1e-6 -0.15025-0.30092 0-0.45117 0h-2.1621c-1.6742 0-3.1051-0.17969-4.7793-0.17969-1.3754 0-9.838-1.0302-10.816-0.54102-0.5338 0.2669-2.8329 0.99748-3.5176 0.54102-0.75238-0.50158-1.7168-0.2295-2.5234-0.63281-0.17542-0.08771-1.3174-0.64796-1.3516-0.63086zm-23.373 0.70703c-0.1791 0.0042-0.32605 0.03768-0.42773 0.10547-0.58118 0.38745-1.2451 1.0396-1.873 1.4414h5.2988c0.18676 0 1.053-0.11885 1.1719 0 0.30298 0.30298 1.2796 0.8125 1.8047 0.8125 0.44685 0 3.828 1.4964 4.1465 0.54102 0.3973-1.1919-2.7136-1.6435-3.1855-2.4199 0.38577 0.71423-0.12117 1.1562-0.78125 1.1562-0.35879 0-1.3749 0.18608-1.623 0-0.41628-0.31221-3.2775-1.6663-4.5312-1.6367zm-2.3008 1.5469h-2.3633c-1.4945 0-2.721 0.27148-4.1465 0.27148h2.4336c0.84953 0 3.0259 0.29075 3.7871-0.08984 0.094497-0.04725 0.19224-0.11969 0.28906-0.18164zm-8.7637 0.21289v0.0918c0.058444-0.01 0.13097-0.0332 0.17969-0.0332h0.18164c-0.1007-6e-6 -0.2612-0.059144-0.36133-0.0586zm4 2.7207c-0.70513 0.77527-2.0352 0.49219-3.0977 0.49219h-0.90234v0.74219c1.8692-0.12217 5.5671 0.16016 6.5801 0.16016 0.5268 0 2.7693 1.0415 2.7949 0.99024 0.84863-1.6973-2.8251-1.6512-3.4258-2.252-0.2334-0.2334-1.9824 0.39207-1.9824 0.17969 0-0.03005 0.059794 0 0.089844 0zm50.402 0.66797c-0.10454 0.049907-0.17239 0.48314-0.40234 0.33203-0.38368 0.64417-0.23272 1.5512-0.16602 2.0957 0.33874-0.31344 1.2278-0.25977 1.6973-0.25976 1.242 0 3.5318 0.44308 4.5977-0.08984 0.05477-0.02739-0.44487-0.26643-0.45117-0.26953-0.41237-0.20618-0.62915-0.81164-0.99023-0.99219-0.23138-0.11569-0.51077-0.43605-0.7207-0.54102-0.24014-0.12007-1.54 1.0469-3.5176-0.27148-0.01701-0.01134-0.03194-0.01104-0.04687-0.0039zm-0.56836 2.4277c-0.0046 0.0043-0.01123 0.0073-0.01563 0.01172-0.10624 0.10624-0.13439 0.51641 0 0.44922 0.05981-0.0299 0.04531-0.21858 0.01563-0.46094zm-31.838-1.8828c0-0.20592 0.05373 0.4117 0.19922 0.99805 0.02532-0.03242 0.03766-0.06109 0.07227-0.0957 1.98e-4 -1.97e-4 0.07179 0.0021 0.07422 2e-3 -0.19996-0.34891-0.3457-0.7582-0.3457-0.9043zm0.3457 0.9043c0.23323 0.40697 0.54306 0.73233 0.82617 0.44922 0.13092-0.13092 0.24333-0.28157 0.35938-0.42773-0.45613-0.0058-1.1468-0.02399-1.1855-0.02148zm1.1855 0.02148c1.3534 0.01725 3.4731 0.04418 3.5176 0.06641 0.94468 0.47234 2.1583 0.46978 2.9746 1.082 0.12427 0.0932 5.6759-0.07035 5.9492-0.17969 0.29704-0.11882 1.9667-0.99219 2.2539-0.99219h-6.6699c-1.9939 0-4.3063 0.15635-5.8594-0.36133-0.27934-0.09311-1.0331-0.61038-1.1719-0.54102-0.43869 0.21934-0.71623 0.57574-0.99414 0.92578zm-1.332 0.07227c-0.38891 0.4979 0.25117 0.74978 0.51758 1.0254 0.02655-0.04134 0.07358-0.08528 0.13476-0.13086-0.31497 0.13201-0.5214-0.3668-0.65234-0.89453zm0.51758 1.0254c-0.10875 0.16933 0.01941 0.29938 0.17188 0.4082-0.03626-0.11451-0.06715-0.24052-0.07617-0.26758-0.01606-0.04819-0.05176-0.09517-0.0957-0.14062zm0.17188 0.4082c0.0506 0.15979 0.11589 0.31217 0.19336 0.27344 0.13383-0.06691-0.03318-0.15912-0.19336-0.27344zm25.248-2.1328c-0.02683-0.02745-0.1409 0.71931-0.26367 0.96484-0.26145 0.5229-1.6511 0.17969-1.9824 0.17969-0.37019 0-1.3592 0.44616-1.6875 0.06641 0.10712 0.29866 0.26053 0.6136 0.33398 0.83398 0.13316 0.39948-0.41566-0.05968-0.45117 0-0.0767 0.12893-0.054401 0.29589-0.082031 0.44336 0.59903 0.01129 5.4374-0.7479 5.6719-0.98242 0.06741-0.06741 2.1086-0.23712 1.9844-0.36133-0.88445-0.88445-3.5176 0.9193-3.5176-1.082 0-0.03922-2e-3 -0.05858-0.0059-0.0625zm-3.9336 1.2109c-0.0085-0.02363-0.01759-0.04299-0.02539-0.06641-0.03005-0.09015-0.0918-0.36651-0.0918-0.27148 0 0.15879 0.05008 0.26025 0.11719 0.33789z" style="fill-opacity:.5;fill:#ffe1a9;paint-order:normal"/>
	<path id="o" d="m4.2645 3.7954c-0.24682-0.011918-0.47023 0.028127-0.65424 0.15522 0.13891-0.014947 0.27851-0.059686 0.41741-0.04463 0.31458 0.034097-0.55277 0.93395-0.61758 1.0005-0.32704 0.33587-2.2076 1.5081-2.2333 1.5612-0.038778 0.080212 0.65659 0.84053 0.37257 0.98731-0.52097 0.26922-1.3491 0.19872-1.8864 0.47636l2.6031e-4 0.019529c0.86747 0.033895 2.7208 0.29721 3.2455-0.062794 0.38535-0.26439 0.16442-1.1463 0.16525-1.0843 0.0048862 0.36658 1.4107 1.3841 1.7272 1.0591 0.63416-0.65129 0.087309-1.7348 0.60076-2.2621 0.49985-0.51336 2.7782-0.75278 3.1396-1.124 0.062632-0.064325-1.5853-0.15857-1.8948-0.15445-0.69485 0.009262-1.6418-0.49113-2.3822-0.52689zm15.985 2.838c-0.34746-0.098785-0.84512 0.72541-2.5467 4.13 2.502 1.1497 0.91321-0.28315 2.7184-1.216 3.5241-1.8212 10.676-1.7299 15.326-1.7474-2.0278-0.032817-5.7312-1.2139-7.5997-0.24834-1.2019 0.62113-2.3428-0.51384-2.5292-0.4175-4.6271 2.3912-4.7894-0.33612-5.3685-0.50076zm15.497 1.1666c0.04971 8.075e-4 0.11069 0.0083 0.15832 0.00766l1.1718-0.015619c-0.37753 0.00503-0.90349 0.00635-1.3301 0.00796zm-21.669-0.69172c-0.27475 0.14199-0.73595 2.2423-1.9256 2.9537 1.045-0.0025 2.0025-0.29075 2.8519-1.1631 0.64684-0.66432 3.5374 1.9674 1.659-1.1218-0.69691 2.214-2.2932-0.81969-2.5853-0.66873zm-1.9256 2.9537c-0.71174 0.0017-1.4843-0.13997-2.274-0.31933 0.9638 0.66535 1.7045 0.65985 2.274 0.31933zm-2.274-0.31933c-0.25936-0.17904-0.53011-0.38894-0.82352-0.67463-1.138-1.108-4.4874-0.21169-4.4192-0.2126 1.8774-0.025025 3.6257 0.51994 5.2428 0.88723zm46.802-2.2392c-5.1903-0.0022-14.758 1.0492-17.006 0.96698 4.0586 0.69926 8.1368 0.081011 12.289 0.025671 0.58226-0.007761 8.7795 0.18469 8.0167-0.55807-0.32415-0.31562-1.5689-0.43385-3.2991-0.43458zm-43.977 3.3267c-0.04027 2.7116-4.0408 6.1022 0.3131 4.5861 4.8345-1.6834 3.382-4.6644-0.3131-4.5861zm41.24 3.5288c-0.0064 0.0033-0.0095 0.02296-9e-3 0.06068 0.0037 0.27713 0.20701 1.5236 0.02283 1.7127-0.30069 0.30881-1.923 2.149-2.0452 2.1915-0.69643 0.24252-1.419-0.31193-2.1055 0.01243-0.72515 0.24464-1.6357-0.483-2.3125-0.13325-0.54923 0.28383-1.0735 0.55537-1.7954 0.56499l0.35934-0.0048 1.1718-0.01562c0.68944-0.0092 1.6259 0.11271 2.0788 0.3317 0.24942 0.12058-0.36196 0.45827-0.62359 0.54938-0.16547 0.05762 0.14998 0.3253 0.27552 0.44754 0.25776 0.25098-0.19107 1.2301-0.25149 1.355-0.07609 0.15739-0.90878 1.0943-1.2085 1.7995-1.7293-0.01117-3.4575-0.02423-5.1684-0.0014-1.1651 0.01553-5.5923 0.49078-6.494-0.09314-0.7479-0.48433-4.5941-0.21027-5.591-0.19698-0.77714 0.01036-1.2926 0.30618-1.9758 0.6592-0.11007 0.05688-0.48203 0.09627-0.35815 0.09462 0.82823-0.01104 1.4711 0.44246 2.1727 0.78166 0.75463 0.36482 2.0141-0.03615 2.7109 0.41508 0.17539 0.11358 7.5956 0.26519 8.3924 0.51905 2.1725 0.69214 8.5855-0.8231 10.818 0.03551 0.73382 0.28224 2.1764-0.02901 2.9763-0.03967 0.15453-0.0021 1.5661 0.09185 1.621-0.02161 0.23248-0.48088-0.08962-0.82058 0.25584-1.1754 0.13956-0.14333 3.6675 1.442 4.248 0.8458 0.63812-0.65536 2.949-1.431 0.76411-1.8775-2.1555-0.02142-4.3128 0.0321-6.4685 0.06083-2.3449 0.03126-4.6964 0.01311-7.0417-0.0038 0.03297-0.02798 0.07381-0.07255 0.09848-0.0853 1.3238-0.6841 2.7434-1.8179 3.8418-2.6647 0.4312-0.33247 1.0579-1.3677 1.6049-1.375 0.80993-0.0108 6.9305-0.19117 7.0306-0.09371 0.39794 0.38747 1.1862-0.03956 1.805 0.1576 0.32143 0.1024 0.69296 0.17772 1.0794 0.23173l-0.02489-1.867c-0.14013 6e-3 -1.0765 0.45533-1.3432 0.19565-0.34164-0.33265-5.3234-0.65396-5.7726-0.19261-0.13795 0.14168-1.6882 0.49008-1.7978 0.38337-0.0329-0.03203-0.84545-3.6136-0.94016-3.564zm-38.995 4.0064c-0.41669-0.20145 0.63382 1.5058-0.2611 0.6344-0.16102-0.15678-0.78372 0.11396-0.9921 0.01322-2.0238-0.97839-5.3862 0.39004-7.2007 0.8187-0.69863 0.16505-1.6185 0.02157-2.3435 0.03124-1.5519 0.02069-2.7411-0.18952-4.3312-0.20206l0.004321 0.32419c2.3883-0.04916 4.5906-0.0089 6.9519 0.74335 1.7824 0.56786 3.3304-0.58546 4.9513-0.60706 0.44557-0.0059 2.5117-0.31087 2.7927-0.03722 0.78714 0.76643 9.7715 0.07875 10.365-0.22801 0.29612-0.15303-0.13914-0.22416-0.18326-0.26712-0.13727-0.13366 0.06524-0.81533 0.1069-0.91948-0.49772 0.7175-1.5157 0.45982-2.0904 0.85411-0.80874 0.55487-4.2254-0.31525-4.8771-0.56591-0.94513-0.36352-1.9966-0.15905-2.8929-0.59235zm7.5954 3.1471c-0.18518 0.01464-0.33376 0.04466-0.42848 0.09361-1.2643 0.65337-2.5181 1.7466-4.1252 1.768-0.87419 0.01165-3.034-0.58488-3.1404-1.5716-0.19785 0.57819 0.13396 0.42151 0.42546 0.70533 0.24363 0.23722 0.38817 0.73456 0.73506 1.0723 0.25652 0.24977 2.5411 0.59324 2.8905 0.41268 0.44974-0.23241 0.56668-0.51898 0.98249-0.73386 0.51218-0.26468 5.4046-0.04038 6.1223-0.53282 0.92934-0.63762-2.1655-1.3162-3.4618-1.2137zm-10.159 0.58467c-0.03845-0.03744-0.3963 0.56662-0.89146 0.8225-1.589 0.82116-0.93282-0.66326-1.8756 1.2868-0.016784 0.03472-0.19273 0.39968-0.083823 0.45233 0.3589 0.17351 1.7999-0.29645 1.9762-0.47755 0.34699-0.35636 1.1354 0.66318 1.5367 0.25103 0.23036-0.23658-0.02159-0.4114-0.17016-0.60326-0.53154-0.30156-0.19481-1.4426-0.49188-1.7319zm18.643 5.3399 0.0048 0.3613 0.01562 1.1718c0.02966 2.2249 0.06994 4.5041-0.01336 6.618 0.5946-0.08481 1.812-0.51674 2.0737-0.78552 0.5113-0.52511 2.8287-0.21741 3.6047-0.22775 0.67369-9e-3 2.38-0.02472 3.0481-0.37074-2.3244 0.06585-4.6575 0.05078-5.0419-0.32345-0.28176-0.27435-0.33029 0.31396-0.35455 0.36413-0.0941 0.19462-1.092-0.12434-1.1742-0.16405-0.6568-0.31753-2.1487-5.5713-2.163-6.6436zm8.7335 6.767c0.44842-0.01268 0.85468-0.03131 1.2866-0.0484-0.48565-0.03335-1.0958-0.07625-1.0968-0.07523-0.04526 0.04649-0.11641 0.08563-0.18978 0.12363zm1.2866-0.0484c0.97731 0.06711 2.2765 0.15131 2.8733 0.14336l3.4255-0.04566c0.75283-0.01003 1.5736-0.07158 1.5318-0.11223-0.07774-0.07569-0.20143-0.13142-0.35197-0.17501l2.9626-0.03949c0.56274-0.0075 1.1864-0.64288 1.677-0.94236-2.3524 0.17288-6.1031 0.55461-6.3665 0.82516-0.02032 0.02087-0.01513 0.03668-0.0091 0.05286-0.92636 0.03908-1.8923 0.15219-2.3321 0.15805-0.52093 0.0069-1.9026 0.07564-3.4106 0.13531zm12.118-1.1714c0.49711-0.03653 0.82168-0.05155 1.1438-0.06603-0.41358-0.06204-0.81875-0.11765-1.0314-0.0077-0.03477 0.01797-0.07592 0.05156-0.11231 0.07377zm1.1438-0.06603c0.54142 0.08123 1.1019 0.1769 1.3121-0.03897 0.01548-0.0159 0.03364-0.05122 0.04984-0.07098-0.35592 0.02976-0.7211 0.07993-0.86031 0.08178-0.09463 0.0013-0.36038 0.02181-0.50162 0.02817zm1.3619-0.10996c0.3801-0.03177 0.75056-0.04023 0.85242 0.05895 1.0448 1.0174-1.8591 1.2886 0.46797 1.2575 0.58766-0.0078 1.2585-0.04125 1.9024-0.0058-0.67573-0.50094-1.6762-3.2477-1.6882-4.1458-0.0056-0.42337-0.10029-0.7835-0.10545-1.1706-0.0016-0.12019 0.07906-0.44546-0.0048-0.35934-0.70102 0.71996-0.20698 2.0035-0.59355 2.8031-0.20387 0.4217-0.56221 1.2343-0.83082 1.562zm3.2228 1.3107c0.04148 0.03075 0.08564 0.08337 0.12434 0.09601 0.01285-0.0013 0.65561 0.10355 1.2955 0.18197-0.41293-0.1754-0.90646-0.24973-1.4198-0.27798zm-58.109-5.4682c-0.29622 0.01511-0.61375 0.13785-0.84224 0.26516l0.014474 1.0858c0.085453-0.0011 0.38089 0.05418 0.66945 0.10632 0.090016-0.0174 0.21059 0.01762 0.32692 0.05424 1.3364 0.25017 3.531 0.67149 3.8776 0.31553 0.576-0.59156 0.64324-1.4295-0.017912-1.4901-0.5527 0.82238-2.875 0.091576-3.6113-0.26439-0.12342-0.05966-0.26711-0.080217-0.41702-0.072578zm11.675 0.42256c-0.04514-0.0076-0.0873 5.71e-4 -0.12064 0.03481-0.4575 0.46986 0.03701 2.3567 0.21573 2.7024 0.16088 0.31132 0.71385 1.2044 0.55297 0.8931-0.13617-0.2635-0.47994-0.17331-0.72303-0.17007-1.5196 0.02025-2.6157-0.6859-4.0659-0.66657-0.093383 0.0012-0.15919 0.11858-0.21123 0.27237 0.075299 0.01428 0.13165 0.01973 0.08231 0.02038-0.027462 3.66e-4 -0.056286-0.0089-0.084159-0.01255-0.12794 0.38595-0.13882 1.0428-0.038412 1.0748 0.52783 0.16816 0.83119 1.0773 1.191 1.4276 0.13358 0.13007 0.42838-0.22236 0.53735-0.27867 0.38559-0.19926 0.83203-0.1497 0.98413-0.46433 0.09284-0.19203 0.67548-0.23011 1.2251-0.2644 0.0066 0.08501 0.03034 0.15243 0.08442 0.17858 0.0083 4e-3 0.0402 0.03711 0.05926 0.05-0.04473-0.08054-0.07528-0.15451-0.10856-0.231 0.38557-0.02405 0.75476-0.04689 0.89885-0.12137 0.91867-0.47474 4.5846-4.0213 4.6112-4.1419-0.82791 0.2215-4.3163 0.19096-4.7575-0.0948-0.03454-0.02236-0.19749-0.18571-0.33289-0.20847zm-0.31108 4.7975c0.06292 0.11331 0.10061 0.17896 0.17183 0.28875 0.02225-0.134-0.09202-0.2348-0.17183-0.28875zm0.17183 0.28875c-6e-3 0.0364-0.0098 0.07341-0.04541 0.10999-0.23925 0.24572-0.68975 0.34413-0.98174 0.644-0.74396 0.76406-2.3724 1.1084-2.8569 2.1105-0.083873 0.17349-0.21502 0.12976-0.35768 0.27628-0.20938 0.21504 0.51324 0.41515 0.098244 0.6296-0.30928 0.15983-6.5075 0.4481-6.936 0.45381-0.36216 0.0048-0.7618 0.0096-1.1717 0.01952l0.019342 1.451c1.2656 0.06018 3.1107 0.10324 3.2468 0.0329 0.19855-0.1026 1.1401-0.3746 1.2568-0.37616 0.35925-0.0048 2.022-0.25561 2.2537-0.03004 0.22872 0.2227 1.6194 0.84149 2.0805 0.60318 0.41218-0.213 0.36873-1.099 0.88422-1.3654 0.94318-0.48741 12.184-0.86626 12.977-0.35268 1.0552 0.6833 8.1532-0.82944 9.3665-0.84562l-0.18162 0.0024-1.1718 0.01562-2.9743 0.03965c-1.1765 0.01568-3.2104 0.10402-4.242-0.39467-0.67342-0.32557-3.7989 0.05064-4.7769 0.06367-3.9292 0.05237-4.0193 1.5335-6.0741-2.4427-0.05931-0.11477-0.24697-0.38908-0.41293-0.64494zm50.848-4.1078c-1.0495-0.0046-1.9158 0.06111-2.1697 0.32192-0.0246 0.02526 1.1617 1.3688 1.4617 1.5139 0.29205 0.14119 0.37163-0.54602 0.80522-0.5518 0.05615-7.48e-4 0.49634-0.03812 0.71421-0.05249l-0.01609-1.2069c-0.26732-0.0076-0.54324-0.02345-0.79532-0.02456zm-55.199 0.8432c-0.43132 0.0207 0.21294 0.36925 0.29903 0.45309 0.20796 0.20249 2.0678-0.08537 2.5827 0.91097 0.03736 0.0723 0.75612-0.10542 1.1643-0.13858-0.37387-0.28491-0.97871-1.0377-1.0008-1.0805-0.27453-0.53123-0.24152 0.69972-0.58107 0.36911-0.07173-0.06984-0.15876-0.30183-0.27432-0.3577-0.22694-0.10971-2.0312-0.05334-2.1898-0.15638zm4.046 1.2255c0.13428 0.10232 0.2401 0.14954 0.27641 0.07445 0.03988-0.0825-0.09477-0.08921-0.27641-0.07445zm48.3 2.2764c0.03454 0.0147 0.07266 0.02542 0.10603 0.04156 0.02044 0.0099 0.20152 0.0019 0.32619-4.48e-4 -0.14755-0.01422-0.27483-0.02185-0.43223-0.04111zm0.43223 0.04111c0.45322 0.04366 0.84663 0.06355 0.84558-0.01517-2.48e-4 -0.01864-0.50143 0.0088-0.84558 0.01517zm-16.061 3.2749c-0.44112 0.45303-0.89316 1.2835-1.3286 1.7308-0.37881 0.38905-1.3784-0.59374-1.805-0.15564-0.24251 0.24907-0.61485 0.36956-0.98728 0.37452-0.81632 0.01088-5.2094 0.41681-5.4891 0.70408-0.13614 0.13982-1.2072 0.28723-1.7788 0.34405 1.0377-0.08357 4.0984-0.39853 4.3044-0.19801 0.11102 0.1081 0.83191 0.35027 1.0868 0.34687 0.27522-0.0037 1.2921 0.59128 1.6265 0.24788 0.66151-0.67938 2.2832-1.4924 3.4135-0.94597 1.2643 0.61123 3.005 0.06021 4.333 0.48331 0.62391 0.19877 1.0031 1.2543 1.0976 1.1574 0.50555-0.51921-0.36637-1.4457 0.51572-1.9016 0.3624-0.18728 6.3976 0.09638 7.4842 0.0819 0.17518-0.0023 1.571 0.08571 1.6229-0.02163 0.16487-0.34102 1.7438-0.88346 2.3024-0.77294-2.2247-0.87104-6.3486-0.3451-8.8995-0.3111-1.7861 0.02381-7.3486-1.3178-7.4986-1.1638zm-11.389 2.9978c-0.1309 0.01055-0.51362 0.04591-0.55998 0.04653l0.17967-0.0024c0.05074-6.76e-4 0.26482-0.03265 0.3803-0.04413zm-26.409 2.0143c-0.089411-0.08706-2.208 0.66035-2.5168 0.66446-0.49101 0.0065-2.182 0.12264-3.5978 0.1632 0.88992 0.22351 2.0748 0.39816 2.523 0.39219 1.0142-0.01352 4.0056-0.34826 4.7801 0.02613 0.39833 0.19257 1.0706 0.24244 1.3587 0.52295 0.94382 0.91899 1.5071 2.4467 2.297 3.2158 0.27233 0.26517 0.11054 1.3495 0.37572 1.0771 0.86876-0.89222-0.56792-3.5305 0.3891-4.5134 0.64168-0.65902 3.0842 1.3177 3.0637-0.22054-9.45e-4 -0.07093 0.02893-0.4171-6e-3 -0.45113-0.4397-0.42813-0.30439-0.07253-0.42673-0.80102 0.02108 0.20851 0.10144 0.42015 0.06304 0.62617-0.0035 0.01915-1.3182 0.22776-1.4401 0.10904-1.1071-1.078-5.4955 0.52056-6.863-0.81094zm-6.1145 0.82766c-0.23987-0.060244-0.46033-0.12256-0.63927-0.18681l0.002551 0.19139c0.21556-2e-3 0.40002 0.0022 0.63671-0.0046zm56.061-0.7707c-0.2333 0.2396 0.29046 1.2559-0.07062 1.4425-1.5083 0.77945-5.7707 0.25662-7.4794 0.2794l-5.3179 0.07088-1.8924 0.02522-0.45113 6e-3c2.4676-0.03289 4.9952 0.66511 7.1397 1.3483 0.46114 0.14692 1.6174-0.64957 2.0716-0.20732 0.26321 0.25629 1.4915 0.63425 1.8984 0.42396 0.15119-0.07813 0.25254-0.44808 0.44392-0.54698 1.3137-0.67888 4.9123 0.59294 6.2202-0.08291 1.1689-0.60407 3.0846 0.35761 4.2336-0.23613 0.07362-0.03804 0.33728-0.12079 0.53269-0.18876l-2e-3 -0.14842c-1.6651 0.04419-3.7069-0.07169-4.5032-0.06108-1.1776 0.0157-1.5531-0.22991-2.1795-1.1429-0.13177-0.19206-0.48375-0.52152-0.55057-0.71343-0.03125-0.08974-0.02714-0.33639-0.09343-0.26831zm-24.668 2.7919c-1.1701 0.06232-0.10968 1.0906-0.4284 1.4179-0.75059 0.77087-3.1984 0.40399-4.4128 0.42018-1.1169 0.01489-2.5351 0.34028-2.4286 0.39178 0.49772 0.24062 1.5352 0.34014 1.9931 0.78601 0.58934 0.57383 2.8414-1.3276 3.6909-0.50041 0.19174 0.1867 2.1655 0.88408 2.2645 0.78239 0.43437-0.44611 1.0021-0.61029 1.6089-0.92387 0.08287-0.04282 0.6093-0.10141 0.78785-0.09645-0.1933-0.17039-0.40743-0.35984-0.61224-0.35711-0.98133 0.01308-1.0874-0.9682-1.6433-1.5095-0.07411-0.07216-1.2609 0.07167-1.2616 0.01682-0.0011-0.08059 0.09645-0.16567 0.4416-0.4278zm3.0756 2.2776c0.06971 0.06145 0.14714 0.13053 0.20545 0.17306 0.0063 0.0045 0.04664 0.0088 0.06073 0.01286-0.05177-0.06996-0.1063-0.14591-0.15296-0.19134-0.0049-0.0047-0.08597 0.0061-0.11322 0.0054zm0.26617 0.18592c0.13482 0.18217 0.27572 0.37408 0.39403 0.25258 0.18035-0.18522-0.25591-0.21253-0.39403-0.25258zm-31.299 0.90943c-0.36916 1.4679-0.56624 1.1248-1.731 1.1404-0.81938 0.01092-1.5202 0.29211-2.248 0.45969l0.012573 0.94328c1.5063 0.35554 3.5725 0.22052 4.6832-0.35346 0.73622-0.38046 2.0009 1.2257 1.9962 0.87386-0.0061702-0.4629-0.78705-0.76442-1.0053-0.97692-0.2098-0.20428-0.044783-1.0228-0.2883-1.2599-0.34461-0.33554-1.3359-0.408-1.4193-0.82686zm55.022 1.2668c-0.54973 0.35963-1.5101 0.15724-2.0165 0.67733-0.25589 0.2628 0.55922 0.50746 0.90872 0.6188 1.2076 0.38472 4.0092 0.19115 6.1271 0.11757l-0.0093-0.69916c-0.92736-0.08262-1.8531-0.19798-2.2508-0.19267-0.45732 0.0061-0.80975 0.46035-1.1682 0.28708-0.47897-0.23156-1.2574-0.74322-1.591-0.80894zm-24.523 3.1396c-0.72112 0.37266-1.5057 0.97944-2.1446 1.4721-0.65518 0.50517-2.1349-0.05821-2.7899 0.3966-0.16802 0.11666-0.31548 0.26104-0.47334 0.39111 0.60613 0.48853 1.6634 0.32432 2.2029 0.84962 0.54173 0.52748 0.75464 1.5347 1.3803 2.1439 0.23402 0.22786 0.41561-1.7122 1.503-2.2741 0.79258-0.40958 0.61475 0.15523 1.0904 0.61834 0.1323 0.12882 0.5311-0.54877 0.7122-0.64236 0.5205-0.26898 1.1325-0.50306 1.6121-0.83211 0.54406-0.37328 10.041 0.85844 10.92 0.84671 1.7452-0.02326 4.2166 0.4149 5.8589-0.0781 1.0073-0.30236 2.4042-0.93447 3.5033-0.94912 0.19467-0.0026 2.2459-0.61607 2.2429-0.84052-2e-3 -0.15024-0.3009 4e-3 -0.45113 6e-3l-2.1619 0.02882c-1.6741 0.02231-3.1072-0.13829-4.7813-0.11597-1.3752 0.01833-9.8509-0.89899-10.823-0.3968-0.5302 0.27399-2.8193 1.0351-3.5101 0.58785-0.759-0.49151-1.7197-0.2066-2.5316-0.59912-0.17657-0.08536-1.3259-0.63034-1.3598-0.61279zm-23.362 1.0185c-0.17903 0.0066-0.32552 0.04202-0.42629 0.11116-0.57596 0.39516-1.2311 1.0561-1.8537 1.4662l5.2984-0.07062c0.18674-0.0025 1.0513-0.13287 1.1718-0.01562 0.30699 0.29892 1.2903 0.79537 1.8154 0.78837 0.44681-6e-3 3.8476 1.4452 4.1533 0.4857 0.38138-1.1971-2.7353-1.6072-3.2175-2.3772 0.39526 0.70903-0.10575 1.1578-0.76577 1.1666-0.35876 0.0048-1.3723 0.20439-1.6229 0.02163-0.42041-0.30664-3.2994-1.6225-4.5527-1.5762zm-2.28 1.5774-2.3631 0.0315c-1.4943 0.01992-2.7172 0.30773-4.1425 0.32673l2.4334-0.03244c0.84946-0.01132 3.0295 0.25039 3.7856-0.14031 0.093859-0.0485 0.19063-0.12225 0.28662-0.18548zm-8.7601 0.32968 0.001224 0.09179c0.058306-0.01078 0.13051-0.03494 0.17923-0.03559l0.18162-0.0024c-0.10069 0.0013-0.26196-0.05566-0.36208-0.05378zm4.0359 2.6671c-0.69474 0.7846-2.0284 0.51927-3.0908 0.53343l-0.90226 0.01203 0.009892 0.74212c1.8674-0.14707 5.5688 0.08594 6.5816 0.07244 0.52675-7e-3 2.7829 1.0045 2.8079 0.9529 0.82594-1.7084-2.8468-1.6134-3.4555-2.2061-0.2365-0.23027-1.977 0.41846-1.9799 0.20609-4.005e-4 -0.03005 0.059789-7.97e-4 0.089836-0.0012zm50.407-0.0039c-0.10387 0.0513-0.16594 0.4854-0.39788 0.33736-0.37506 0.64922-0.21202 1.5542-0.13807 2.0977 0.33453-0.31792 1.2242-0.27611 1.6937-0.28236 1.2419-0.01655 3.5374 0.39597 4.596-0.15111 0.0544-0.02812-0.44838-0.26048-0.45472-0.2635-0.41508-0.20067-0.63991-0.80318-1.0034-0.9789-0.2329-0.1126-0.51653-0.4292-0.72785-0.53136-0.24172-0.11686-1.5259 1.0673-3.5209-0.22458-0.01716-0.01111-0.03209-0.01061-0.04692-0.0033zm-0.53595 2.4351c-0.0045 0.0044-0.01113 0.0074-0.01547 0.01193-0.10482 0.10765-0.12749 0.51816 6e-3 0.44918 0.05941-0.03069 0.04239-0.21916 0.0095-0.46111zm-31.86-1.4583c-0.0027-0.2059 0.05921 0.41094 0.2125 0.9953 0.02488-0.03275 0.03684-0.06159 0.07099-0.09665 1.95e-4 -2e-4 0.07181 0.0011 0.07424 1e-3 -0.20459-0.34621-0.35578-0.75352-0.35772-0.89961zm0.35772 0.89961c0.23863 0.40383 0.55277 0.72503 0.83209 0.43817 0.12916-0.13265 0.23955-0.28479 0.35364-0.43248-0.45617 2.8e-4 -1.147-0.0087-1.1857-0.0057zm1.1857 0.0057c1.3535-7.9e-4 3.4734-0.0021 3.5182 0.01952 0.95089 0.4597 2.1643 0.44097 2.9888 1.0423 0.1255 0.09154 5.6744-0.14599 5.9463-0.25896 0.29543-0.12276 1.9533-1.0183 2.2405-1.0221l-0.44918 6e-3 -1.6229 0.02163-4.5972 0.06128c-1.9937 0.02658-4.3039 0.21373-5.8637-0.2832-0.28055-0.08938-1.0412-0.59655-1.179-0.52535-0.43572 0.22517-0.70849 0.58524-0.98171 0.93895zm-1.331 0.09002c-0.38224 0.50304 0.26114 0.74637 0.5312 1.0184 0.026-0.04169 0.07244-0.08625 0.13301-0.13264-0.31318 0.13619-0.52624-0.35982-0.66421-0.88576zm0.5312 1.0184c-0.10648 0.17076 0.0234 0.2991 0.1773 0.40588-0.03778-0.11402-0.07035-0.2396-0.07973-0.26654-0.0167-0.04797-0.05302-0.09447-0.09757-0.13934zm0.1773 0.40588c0.05273 0.1591 0.12004 0.3106 0.19699 0.27084 0.13292-0.06869-0.0353-0.15866-0.19699-0.27084zm25.217-2.4692c-0.02719-0.02709-0.1313 0.72113-0.25079 0.96827-0.25446 0.52633-1.6486 0.20168-1.9799 0.20609-0.37016 0.0049-1.3532 0.46423-1.6865 0.0889 0.1111 0.29721 0.26868 0.61008 0.34507 0.82946 0.13847 0.39767-0.41642-0.05413-0.45113 6e-3 -0.07497 0.12995-0.05045 0.2966-0.07611 0.44441 0.59913 0.0033 5.4269-0.82031 5.6583-1.0579 0.06651-0.0683 2.1052-0.2652 1.9794-0.38774-0.89616-0.87259-3.505 0.9661-3.5317-1.0351-5.23e-4 -0.03922-0.0028-0.05855-0.0067-0.06242zm-3.9171 1.2633c-0.0088-0.02351-0.01816-0.04275-0.02627-0.06607-0.03125-0.08974-0.09668-0.36525-0.09541-0.27024 0.0021 0.15878 0.05354 0.25956 0.12168 0.3363z" style="fill-opacity:.3096;fill:#5f4928;paint-order:normal"/>
	<path id="p" d="m44.559 36.717c-0.064937 0-0.13565 0.024486-0.20312 0.035156 0.17803-0.018786 0.35582-0.035156 0.52148-0.035156h-0.31836zm-0.20312 0.035156c-0.28988 0.030589-0.58438 0.081861-0.875 0.1543 0.27109-0.00173 0.5798-0.10762 0.875-0.1543zm-2.1973 0.15234c-0.51516 0.025491-1.0176 0.1055-1.2344 0.32226-0.22193 0.22193-0.64581 0.47267-1.1543 0.72461 0.20196-0.048434 0.40179-0.09906 0.51758-0.21484 0.40672-0.40672 1.5045-0.14579 2.1035-0.44531 0.30924-0.15462 0.6889-0.28395 1.084-0.38281-0.27241 0-0.80125-0.029397-1.3164-0.003906zm-2.3887 1.0469c-0.2168 0.051993-0.43665 0.10267-0.56641 0.23242-0.011972 0.011971-0.033745 0.025061-0.046875 0.037109 0.20527-0.090616 0.42886-0.17816 0.61328-0.26953zm-0.61328 0.26953c-1.3383 0.5908-2.9854 1.1424-3.7773 1.3008-1.4036 0.28072-2.7904 1.1725-4.0156 1.7852-0.603 0.3015-1.9041 0.37281-2.3594 0.82812-0.15916 0.15916-0.92302 0.017175-1.1465 0.12891-1.2827 0.64133-2.8749 0.9368-4.2715 1.4023-0.4379 0.14597-3.7336 0.41916-3.8242 0.50976-0.25986 0.25986-1.0246 0.22423-1.4668 0.44531-2.3312 1.1656-5.1006 1.2109-7.9688 1.2109-0.94983 0-2.4592 0.039079-3.8223 0.1582 0.3574 0.005647 0.80451 0.033204 0.89062 0.033204 1.3238-1e-6 3.5132 1.0362 4.0156 2.041 0.10362 0.20724 0.49416 0.36644 0.69922 0.57422-0.11853-0.24869-0.31097-0.63324-0.63477-0.95703-0.399-0.399-2.0177-1.2287-2.2324-1.6582-0.10624-0.21248 0.48869 0.022665 0.70117 0.12891 0.45671 0.22836 1.3755 0.033719 1.7227 0.38086 0.29294 0.29294 3.7071-0.38772 3.9512-0.50976 1.0683-0.53413 4.295-1.3614 4.8457-1.9121 0.18754-0.18754 1.553 0 1.8477 0 3.6802 0 7.284 0.12695 10.965 0.12695 0.8837 0 1.7529 0.12891 2.6133 0.12891 0.71683 0 3.1629 0.051176 3.6973 0.31836 0.40833 0.20416 0.86413 0.31836 1.4023 0.31836 0.17522 0-0.34354-0.071543-0.50976-0.12695-0.39912-0.13304-0.91786-0.38281-1.3398-0.38281-1.4021 0-2.6745-0.57422-4.0781-0.57422-1.8952 0-7.5557 0.47754-8.7344-0.70117-0.10149-0.10149 0.99343-0.25391 1.1484-0.25391 0.53758 0 1.2925-0.23315 1.7207-0.44727 1.2914-0.64568 2.9-1.2908 4.2715-1.9766 0.47212-0.23606 1.0463-0.13937 1.5293-0.38086 1.0118-0.50588 3.4395-1.2782 4.1602-1.9395zm-27.047 10.418c0.054575 0.11451 0.12891 0.27566 0.12891 0.25391 0-0.094686-0.053296-0.17729-0.12891-0.25391zm-5.6055-2.6484c-0.23015-0.003636-0.4302-9.3e-4 -0.44727 0.033204-0.0020762 0.004152-0.012799 0.009445-0.015625 0.013671 0.15342-0.016557 0.30354-0.032948 0.46289-0.046875zm-0.46289 0.046875c-0.795 0.085798-1.5263 0.19528-1.9609 0.36914-1.1509 0.46036-2.926-0.43012-4.0801 0.023438v0.99023c0.87243-0.20186 1.8627 0.094058 2.8047-0.37695 0.13599-0.06799 0.37378 0.06799 0.50977 0 0.4286-0.2143 2.524-0.70294 2.7266-1.0059z" style="fill:#624f2d;paint-order:normal"/>
	<path id="f" d="m32 8c-2.0762 0-4 1.7239-4 4v1.7188c-3.5909 0.72348-6.7856 2.41-9.3613 4.7715-0.18213 0.1478-0.36819 0.29249-0.56445 0.39062-0.28538 0.14269-1.558-0.68237-1.668-0.90234-0.06456-0.12912-0.54421-0.13796-0.67578-0.26953-0.14236-0.14237-0.31473-0.45033-0.49609-0.54102-0.20696-0.10348-0.98208-0.86558-1.0801-0.76758-0.30398 0.30398-0.14892 0.96142-0.45117 1.2637-0.27085 0.27085-2.1761 0.77065-2.7051 1.0352-0.26388 0.13194-0.84427 0.45128-1.4082 0.71875 0.36521-0.02437 0.74156-0.04102 1.1387-0.04102 0.05452 0 0.95517-0.2967 1.0352-0.13672 0.20723 0.41445 2.2524 1.3086 2.8398 1.3086 0.24056 0 1.23 0.1846 1.873 0.25977-1.232 1.5563-2.2437 3.3011-2.9863 5.1914h-0.49023c-0.55226 5.5e-5 -0.99994 0.44774-1 1v5c1.14e-4 0.1222 0.02262 0.24334 0.06641 0.35742-0.032764 0.46371-0.06641 0.92774-0.06641 1.4121v21.23c5.5e-5 0.55226 0.44774 0.99994 1 1h3.3711c0.06625 0.05172 0.13211 0.08914 0.20312 0.16016 0.38539 0.38539 0.74949 1.1968 1.1465 1.5938 0.32352 0.32352 1.8193 0.89645 1.9766 1.2109 0.26068 0.52138 0.0027 1.1545 0.19141 1.7207 0.20845 0.62535 0.4725 1.0075 0.76562 1.5938 0.0332 0.06639 0.23699 0.71809 0.31836 0.63672 0.12276-0.12276-0.04256-0.41663 0.0625-0.57422 0.65392-0.98088-1.5309-4.1121-2.3574-4.5254-0.48244-0.24122 1.1197-1.4737 1.2109-1.6562 0.0204-0.04079 0.0146-0.10648 0.02148-0.16016h0.089848c0.32929-3.3e-5 0.60685-0.17042 0.78906-0.41602 0.69828 0.66832 1.6884 1.1884 2.2871 1.7871 0.19065 0.19065 0.58333 0.19596 0.82812 0.31836 0.44416 0.22208 2.0189 0.74348 2.2949 1.0195 0.3028 0.3028 1.5134 0.31043 1.9121 0.50977 1.0612 0.53062 3.1498 1.9389 3.8887 2.6777 0.07622 0.07622 0.42399 0.04117 0.50977 0.12695 0.71499 0.71499 3.9543 1.358 5.709 1.9766h0.66602c-0.36851-0.18426-3.494-1.3379-3.6328-1.3379-0.79991 0-3.2777-2.2324-4.0176-2.2324-0.9583-1e-6 -3.652-2.367-4.3984-2.7402-0.20536-0.10268-0.26786-0.26981-0.38086-0.38281-0.41325-0.41325-1.7351 0.20463-2.2324-0.12695-0.53073-0.35382-1.2659-0.34779-1.8477-0.63867-0.62168-0.31084-1.0854-0.62984-1.5723-0.97656 0.11488-0.1628 0.19724-0.35005 0.19727-0.56445v-8.7969c2.1991 3.528 6.0267 5.875 10.559 5.875h0.88281c4.5319 0 8.3595-2.347 10.559-5.875v8.7969c5.5e-5 0.55226 0.44774 0.99994 1 1h2.5254c0.11495 0.24498 0.22201 0.49936 0.32812 0.60547 0.05376 0.05376 0.07319 0.32905 0.12695 0.38281 0.41983 0.41983 0.92948 0.73807 1.4023 1.2109l0.63672 0.63672c0.21977 0.21977 0.78829 3.0379 0.44727 3.3789-0.23817 0.23817-0.44727 1.0014-0.44727 1.4023 0 0.24227 0.08306-0.48448 0.19141-0.70117 0.20915-0.4183 0.41815-1.3107 0.70117-1.5938 0.15189-0.15189 0.43157-1.6719 0.12695-1.9766-0.47537-0.47538-0.92459-1.1804-1.4648-1.7207-0.19175-0.19176 0.065862-0.7589-0.064453-1.0195-0.082868-0.16574-0.13702-0.38414-0.16406-0.60547h0.1582c0.67364 0.20238 1.3527 0.41757 1.9824 0.73242 0.15578 0.07789 1.7065 1.1343 1.8477 1.2754 0.31013 0.31013 2.9132-0.42687 3.0605-0.57422 0.23993-0.23993 2.2818 0.08914 2.4863 0.19141 0.92859 0.46429 1.7761 0.91878 2.7188 1.3906-0.09882-0.08137-0.2127-0.15801-0.29688-0.24219-0.80803-0.80803-1.9755-1.0522-3.1875-1.6582-0.53948-0.26974-1.4265 0.14806-1.9766-0.12695-0.29025-0.14513-0.79478-0.44726-1.082-0.44726-0.10786 0-0.36001-0.2311-0.44727-0.31836-0.27987-0.27987-0.75175-0.30644-1.0195-0.57422-0.14021-0.14022-0.33206-0.74694-0.58984-1.3457v-20.533c0-0.44684-0.03039-0.8748-0.06055-1.3027 0.07148-0.09894 0.16445-0.19688 0.30274-0.28906 0.37183-0.24788 3.2884 0.40562 3.9199 0.08984 0.1498-0.0749 0.3467-0.01514 0.49609-0.08984 0.20132-0.10066 0.28948-0.37033 0.45117-0.45117 0.16431-0.08215 0.8121 0.09025 0.94727-0.04492 0.44656-0.44656 1.8925-8.8e-5 2.2539 0.36133 0.02376 0.02376-0.04492-0.0582-0.04492-0.0918 0-0.08455-0.27488-0.50288-0.31641-0.58594-0.17764-0.35527-0.58628-0.42756-0.99219-0.22461-0.66587 0.33293-1.7343 0.24601-2.2539 0.76562-0.1287 0.1287-3.7172 0.23689-4.7031-0.51758v-4.3887c-2.3e-5 -0.22862-0.08965-0.42922-0.21875-0.59766-0.01629-0.44448-0.0346-0.98744 0.09961-1.2559 0.39286-0.78573 0.64443-2.2226 1.3066-2.8848 0.13109-0.13109 0.04333-0.58435 0.22656-0.76758 0.33656-0.33656 0.98632-0.35546 1.3516-0.7207-0.03426 0.06853 0.148-0.04492 0.22461-0.04492 0.04855 0 0.09507-0.02564 0.14062-0.06055 0.32324-0.01122 0.73342 0.07469 0.94141-0.0293 0.45638-0.22819 5.9949-0.74473 6.582-0.45117 0.29322 0.14661 0.72351 0.36133 1.082 0.36133 0.05453 0 0.15437-0.0633 0.26367-0.14844v-0.60938c-0.22875 0.01313-0.66328-0.0098-0.71484-0.0098-0.17218 0-0.02561 0.02896-0.13476-0.13477-0.03767-0.05651-0.72412 0-0.8125 0-0.15808 0-0.89159-0.1006-0.99219 0-0.36214 0.36214-1.6864 0.17969-2.2988 0.17969-0.50614 0-1.6201-0.22608-2.0723 0-0.23366 0.11683-0.64674 0.33034-0.8125 0.49609-0.18157 0.18157-0.57478 0.1689-0.9082 0.21484 0.17348-0.21914 0.34144-0.56232 0.54883-0.66602 0.55672-0.27836 0.46662-0.69122 0.81055-1.0352 0.10175-0.10175 0.40306-0.06774 0.54102-0.13672 0.501-0.2505 1.0715-0.41289 1.5332-0.7207 0.06549-0.04366 1.306-0.17838 1.5781-0.31445 0.08514-0.04257 1.5656-1.3429 1.6211-1.3984 0.30031-0.30031 1.8154-0.68652 1.9844-0.85547 0.0488-0.0488 0.09003-0.12034 0.12891-0.19531v-2.4707c-0.01207-0.01525-0.02058-0.03906-0.03906-0.03906-0.0097 0 0.0128 0.21181 0 0.22461-0.1154 0.11539-0.17256 0.21748-0.31641 0.36133-0.23325 0.23325-2.3217 2.3552-2.4785 2.4336-0.30107 0.15054-0.79652 1.1129-1.082 1.3984-0.05721 0.05721-0.1437-0.08984-0.22461-0.08984-0.2892 0-0.602-0.01233-0.85742 0.08984-0.74708 0.29883-1.5061 0.75303-2.2539 1.127-0.61861 0.30931-0.8021 1.2064-1.2168 1.6211-0.33512 0.33513-1.7457 0.71057-1.9824 0.94726-0.25724 0.25724-0.23427 0.84652-0.45117 1.1719-0.37892 0.56838-0.50376 1.4491-0.94726 1.8926-0.08745 0.08744-0.02287 0.35072-0.08984 0.45117-0.19662 0.29493-0.42607 0.67245-0.58594 0.99219-0.09392 0.18784-0.01523 0.42148-0.17969 0.58594-0.12568 0.1257-0.64284-0.046865-0.53907 0.087926h-0.24609c-2.4509-6.2388-7.7999-10.929-14.51-12.281v-1.7188c0-2.2761-1.9238-4-4-4zm28.6 51.016c0.20489 0.1687 0.39491 0.33624 0.60742 0.49805-0.18158-0.19386-0.36686-0.37679-0.58594-0.48633-0.0076-0.0038-0.01393-0.0079-0.02148-0.01172zm0.60742 0.49805c0.32949 0.35177 0.64676 0.75335 1.1348 0.91602 0.01086 0.0036-0.37081-0.24386-0.63672-0.50977-0.13527-0.13527-0.31996-0.27065-0.49805-0.40625zm-51.617-40.096c-1.1307 0.07545-2.1604 0.22852-3.4141 0.22852h0.76562c0.58871 0 0.95174 0.17969 1.4883 0.17969 0.23948 0 0.69482-0.1875 1.1602-0.4082zm22.41-9.418c0.8617 0 2 0.95214 2 2v14h-4v-14c0-1.0479 1.1383-2 2-2zm-4 5.7539v10.246h-12.184c2.2848-5.1084 6.6457-8.9774 12.184-10.246zm8 0c5.5379 1.2687 9.8987 5.1377 12.184 10.246h-12.184zm-22 12.246h14v3h-14zm16 0h4v3h-4zm6 0h14v3h-14zm-21.963 5h4.9629v21h-5v-20.23c0-0.25518 0.025208-0.5134 0.037109-0.76953zm6.9629 0h22v6.1367c0 6.1175-4.4855 10.941-10.559 10.941h-0.88281c-6.0731 0-10.559-4.8239-10.559-10.941v-4.041zm24 0h4.9629c0.011901 0.25613 0.037109 0.51435 0.037109 0.76953v20.23h-5v-14.863z" style="color-rendering:auto;color:#000000;dominant-baseline:auto;fill:#352f25;font-feature-settings:normal;font-variant-alternates:normal;font-variant-caps:normal;font-variant-ligatures:normal;font-variant-numeric:normal;font-variant-position:normal;image-rendering:auto;isolation:auto;mix-blend-mode:normal;paint-order:normal;shape-padding:0;shape-rendering:auto;solid-color:#000000;text-decoration-color:#000000;text-decoration-line:none;text-decoration-style:solid;text-indent:0;text-orientation:mixed;text-transform:none;white-space:normal"/>
	<path id="j" d="m32 10c-0.8617 0-2 0.95214-2 2v0.5c0-1.0479 1.1383-2 2-2s2 0.95214 2 2v-0.5c0-1.0479-1.1383-2-2-2zm32 5.2148c-0.03888 0.07497-0.08011 0.14651-0.12891 0.19531-0.16895 0.16895-1.6841 0.55516-1.9844 0.85547-0.05551 0.05551-1.536 1.3559-1.6211 1.3984-0.27214 0.13607-1.5126 0.27079-1.5781 0.31445-0.46172 0.30781-1.0322 0.4702-1.5332 0.7207-0.13542 0.06771-0.4243 0.03969-0.53125 0.13476-0.0043 3e-3 -0.0094 0.0047-0.01367 0.0078-0.30612 0.31092-0.28884 0.67136-0.69141 0.94336-0.1198 0.22306-0.23823 0.43745-0.38672 0.58594-0.05412 0.05412-0.16879 0.11055-0.26953 0.16602 0.12696-0.01712 0.25992-0.02836 0.38867-0.04297 0.04902-0.05238 0.09885-0.0963 0.15234-0.12305 0.55672-0.27836 0.46662-0.69122 0.81055-1.0352 0.10175-0.10175 0.40306-0.06774 0.54102-0.13672 0.501-0.2505 1.0715-0.41289 1.5332-0.7207 0.06549-0.04366 1.306-0.17838 1.5781-0.31445 0.08514-0.04257 1.5656-1.3429 1.6211-1.3984 0.30031-0.30031 1.8154-0.68652 1.9844-0.85547 0.0488-0.0488 0.09003-0.12034 0.12891-0.19531zm-36 0.53906c-5.5379 1.2687-9.8987 5.1377-12.184 10.246h0.24024c2.3412-4.8583 6.5889-8.5194 11.943-9.7461zm8 0v0.5c5.3545 1.2266 9.6022 4.8878 11.943 9.7461h0.24024c-2.2848-5.1084-6.6457-8.9774-12.184-10.246zm-24.424 3.4395c-0.28961 0.01596-0.80677 0.18359-0.84766 0.18359-0.0293 0-0.05491 0.0037-0.08399 0.0039-0.30092 0.15799-0.63252 0.33687-1.0547 0.53711 0.36521-0.02437 0.74156-0.04102 1.1387-0.04102 0.05452 0 0.95517-0.2967 1.0352-0.13672 0.20723 0.41445 2.2524 1.3086 2.8398 1.3086 0.19766 0 0.93782 0.12674 1.5391 0.21289 0.11234-0.15024 0.21768-0.30621 0.33398-0.45312-0.64302-0.07517-1.6325-0.25977-1.873-0.25977-0.58744 0-2.6326-0.89414-2.8398-1.3086-0.02-0.03999-0.09096-0.05219-0.1875-0.04687zm-1.9863 0.72461c-1.1307 0.07545-2.1604 0.22852-3.4141 0.22852h0.76562c0.58871 0 0.95174 0.17969 1.4883 0.17969 0.23948 0 0.69482-0.1875 1.1602-0.4082zm51.932 0.18555c-0.08538 0.0047-0.15063 0.01782-0.17578 0.04297-0.36214 0.36214-1.6864 0.17969-2.2988 0.17969-0.10901 0-0.30236-0.02291-0.45508-0.03711-0.77642 0.07346-1.5129 0.15203-1.9766 0.22852-0.18049 0.1006-0.35633 0.20789-0.45312 0.30469-0.18157 0.18157-0.57478 0.1689-0.9082 0.21484 0.08172-0.10323 0.16212-0.23519 0.24609-0.35547-0.12518-0.0077-0.253-0.0177-0.36914-0.01367-0.04556 0.03491-0.09208 0.06055-0.14062 0.06055-0.07661 0-0.25887 0.11345-0.22461 0.04492-0.35046 0.35046-0.95641 0.38821-1.3027 0.6875-0.09439 0.17208-0.14822 0.39263-0.20508 0.61328-4e-3 0.024-0.01205 0.04322-0.01758 0.06445-0.036 0.12946-0.07731 0.25366-0.14258 0.35156-0.35675 0.53512-0.49656 1.3355-0.88086 1.7988-0.03866 0.11335-0.08234 0.21389-0.12109 0.32031-3e-3 0.08703-0.0025 0.17569-0.03516 0.22461-0.05693 0.08539-0.10998 0.19128-0.16992 0.28711-0.0036 0.0073-0.0062 0.0182-0.0098 0.02539-0.11172 0.22344-0.11207 0.6347-0.10156 1.0234 0.01178-0.20825 0.0386-0.39751 0.10156-0.52344 0.39286-0.78573 0.64443-2.2226 1.3066-2.8848 0.13109-0.13109 0.04333-0.58435 0.22656-0.76758 0.33656-0.33656 0.98632-0.35546 1.3516-0.7207-0.03426 0.06853 0.148-0.04492 0.22461-0.04492 0.04855 0 0.09507-0.02564 0.14062-0.06055 0.32324-0.01122 0.73342 0.07469 0.94141-0.0293 0.45638-0.22819 5.9949-0.74473 6.582-0.45117 0.29322 0.14661 0.72351 0.36133 1.082 0.36133 0.05453 0 0.15437-0.0633 0.26367-0.14844v-0.5c-0.1093 0.08514-0.20914 0.14844-0.26367 0.14844-0.35852 0-0.78881-0.21472-1.082-0.36133-0.04366-0.02183-0.16352-0.0316-0.25781-0.04492-0.01135 4.81e-4 -0.05251 0.0039-0.05859 0.0039-0.11856 0-0.56026-0.05711-0.81641-0.04297zm-47.521 7.8965v0.5h14v-0.5zm16 0v0.5h4v-0.5zm6 0v0.5h14v-0.5zm23.209 3.5566c-0.08315 0.01829-0.16689 0.04146-0.25195 0.08398-0.66587 0.33293-1.7343 0.24601-2.2539 0.76562-0.11295 0.11295-2.8878 0.20863-4.2324-0.2793-0.10183 0.0076-0.186 0.02244-0.22852 0.05078-0.13828 0.09219-0.23126 0.19012-0.30274 0.28906 0.01108 0.15718 0.01186 0.3204 0.02148 0.47852 0.0693-0.0916 0.153-0.18208 0.28125-0.26758 0.37183-0.24788 3.2884 0.40563 3.9199 0.08984 0.1498-0.0749 0.3467-0.01514 0.49609-0.08984 0.20132-0.10066 0.28948-0.37033 0.45117-0.45117 0.16431-0.08215 0.8121 0.09025 0.94727-0.04492 0.44656-0.44656 1.8925-8.8e-5 2.2539 0.36133 0.02376 0.02376-0.04492-0.0582-0.04492-0.0918 0-0.08455-0.27488-0.50288-0.31641-0.58594-0.01863-0.03726-0.04882-0.0588-0.07227-0.08984-0.19707-0.08823-0.43078-0.16743-0.66797-0.21875zm-47.209 0.44336v0.5c8.2e-5 0.08743 0.02427 0.1717 0.04687 0.25586 0.0086-0.13135 0.01029-0.26759 0.01953-0.39844-0.043784-0.11408-0.066286-0.23522-0.0664-0.35742zm2.0371 1c-0.011901 0.25613-0.037109 0.51435-0.037109 0.76953v0.5c0-0.25518 0.025208-0.5134 0.037109-0.76953h4.9629v-0.5zm6.9629 0v0.5h22v-0.5h-14zm24 0v0.5h4.9629c0.011901 0.25613 0.037109 0.51435 0.037109 0.76953v-0.5c0-0.25518-0.025208-0.5134-0.037109-0.76953zm-24 13.203v0.5c2.1991 3.528 6.0267 5.875 10.559 5.875h0.88281c4.5319 0 8.3595-2.347 10.559-5.875v-0.5c-2.1991 3.528-6.0267 5.875-10.559 5.875h-0.88281c-4.5319 0-8.3595-2.347-10.559-5.875zm-9 8.7969v0.5c5.5e-5 0.55226 0.44774 0.99994 1 1h3.3711c0.06625 0.05172 0.13211 0.08914 0.20312 0.16016 0.38539 0.38539 0.74949 1.1968 1.1465 1.5938 0.32352 0.32352 1.8193 0.89645 1.9766 1.2109 0.1092 0.21841 0.12101 0.45863 0.11914 0.70312-0.0033-0.2306 0.0082-0.4614-0.0039-0.68555-0.42552-0.56852-0.85685-1.0271-1.1348-1.166-0.0016-8.14e-4 -3.72e-4 -0.0031-2e-3 -0.0039-0.40206-0.20573-0.8057-0.40921-0.95508-0.55859-0.39699-0.39699-0.7611-1.2084-1.1465-1.5938-0.070978-0.071022-0.13683-0.10844-0.20308-0.16016h-3.3711c-0.55226-5.5e-5 -0.99994-0.44774-1-1zm9 0c-2.1e-5 0.2144-0.08239 0.40165-0.19727 0.56445 0.0549 0.0391 0.11144 0.07486 0.16602 0.11328 0.013071-0.058618 0.031244-0.11446 0.03125-0.17773zm22 0v0.5c5.5e-5 0.55226 0.44774 0.99994 1 1h2.5254c0.11495 0.24498 0.22201 0.49936 0.32812 0.60547 0.05376 0.05376 0.07319 0.32905 0.12695 0.38281 0.41983 0.41983 0.92948 0.73807 1.4023 1.2109l0.63672 0.63672c0.15767 0.15766 0.48506 1.6374 0.53711 2.5957 0.09544-0.80426-0.34811-2.9067-0.53711-3.0957l-0.63672-0.63672c-0.47287-0.47287-0.98251-0.79111-1.4023-1.2109-0.053763-0.05376-0.073193-0.32905-0.12695-0.38281-0.10612-0.10611-0.21317-0.36049-0.32812-0.60547h-2.5254c-0.55226-5.5e-5 -0.99994-0.44774-1-1zm-22.211 0.58398c-0.18221 0.2456-0.45977 0.41598-0.78906 0.41602h-0.08984c-0.0069 0.05367-0.0011 0.11937-0.02148 0.16016-0.09127 0.18254-1.6934 1.415-1.2109 1.6562 0.01893 0.0095 0.0461 0.03852 0.06641 0.05078 0.31687-0.45579 1.0812-1.0803 1.1445-1.207 0.0204-0.04079 0.0146-0.10648 0.02148-0.16016h0.089837c0.32929-3.3e-5 0.60685-0.17042 0.78906-0.41602 0.69828 0.66832 1.6884 1.1884 2.2871 1.7871 0.19065 0.19065 0.58333 0.19596 0.82812 0.31836 0.44416 0.22208 2.0189 0.74348 2.2949 1.0195 0.3028 0.3028 1.5134 0.31043 1.9121 0.50977 1.0612 0.53062 3.1498 1.9389 3.8887 2.6777 0.07622 0.07622 0.42399 0.04117 0.50977 0.12695 0.71499 0.71499 3.9543 1.358 5.709 1.9766h0.66602c-0.36851-0.18426-3.494-1.3379-3.6328-1.3379-0.15299 0-0.37901-0.09838-0.63086-0.23047-0.95546-0.29184-1.7955-0.59235-2.1113-0.9082-0.08578-0.085784-0.43355-0.050734-0.50977-0.12695-0.33962-0.33962-0.97519-0.82073-1.6543-1.293-0.42818-0.23424-0.91718-0.56289-1.4043-0.91406-0.3047-0.18328-0.59851-0.35492-0.83008-0.4707-0.39867-0.19934-1.6093-0.20697-1.9121-0.50977-0.27605-0.27605-1.8508-0.79745-2.2949-1.0195-0.2448-0.1224-0.63748-0.12771-0.82812-0.31836-0.04681-0.04682-0.10888-0.09076-0.16016-0.13672-0.1874-0.0507-0.3709-0.1083-0.54102-0.19336-0.62168-0.31084-1.0854-0.62984-1.5723-0.97656 0.07162-0.1015 0.12198-0.21674 0.15625-0.33789-0.05518-0.0484-0.11772-0.09261-0.16992-0.14258zm27.557 0.41602c0.02197 0.1798 0.06639 0.35073 0.125 0.5h0.0332c0.67364 0.20238 1.3527 0.41757 1.9824 0.73242 0.15578 0.07789 1.7065 1.1343 1.8477 1.2754 0.31013 0.31013 2.9132-0.42687 3.0605-0.57422 0.23993-0.23993 2.2818 0.08914 2.4863 0.19141 0.92859 0.46429 1.7761 0.91878 2.7188 1.3906-0.09882-0.08137-0.2127-0.15801-0.29688-0.24219-0.80803-0.80803-1.9755-1.0522-3.1875-1.6582-0.52034-0.26017-1.3613 0.11404-1.9141-0.10547-0.52426 0.22268-2.5873 0.77796-2.8672 0.49805-0.14113-0.14113-1.6919-1.1975-1.8477-1.2754-0.6297-0.31485-1.3088-0.53004-1.9824-0.73242zm12.254 3.5156c0.20489 0.1687 0.39491 0.33624 0.60742 0.49805-0.18158-0.19386-0.36686-0.37679-0.58594-0.48633-0.0076-0.0038-0.01393-0.0079-0.02148-0.01172zm0.60742 0.49805c0.32949 0.35177 0.64676 0.75335 1.1348 0.91602 0.01086 0.0036-0.37081-0.24386-0.63672-0.50977-0.13527-0.13527-0.31996-0.27065-0.49805-0.40625zm-12.689-2.8535c-0.01577 0.1327-0.01246 0.24924 0.01367 0.3457 0.01456-0.13003 0.01566-0.24939-0.01367-0.3457zm1.6367 3.0117c-0.03321 0.50942-0.15304 1.0612-0.24219 1.1504-0.12942 0.12942-0.2421 0.39121-0.34766 0.67188 0.01514 0.35006-0.0062 0.62921-0.09766 0.7207-0.23817 0.23817-0.44727 1.0014-0.44727 1.4023 0 0.24227 0.08306-0.48448 0.19141-0.70117 0.20915-0.4183 0.41815-1.3107 0.70117-1.5938 0.12074-0.12075 0.31765-1.0983 0.24219-1.6504zm-30.334 0.09766c-0.0076 0.3069-0.03024 0.62015 0.06836 0.91602 0.20845 0.62535 0.4725 1.0075 0.76562 1.5938 0.0332 0.06639 0.23699 0.71809 0.31836 0.63672 0.12276-0.12276-0.04256-0.41663 0.0625-0.57422 0.11321-0.16981 0.11916-0.41795 0.08398-0.69141-0.01964 0.07024-0.04613 0.13463-0.08398 0.19141-0.10506 0.15759 0.06026 0.45146-0.0625 0.57422-0.08137 0.08137-0.28516-0.57033-0.31836-0.63672-0.29312-0.58624-0.55718-0.9684-0.76562-1.5938-0.04525-0.13577-0.06117-0.27502-0.06836-0.41602z" style="color-rendering:auto;color:#000000;dominant-baseline:auto;fill-opacity:.45861;fill:#ffe9c0;font-feature-settings:normal;font-variant-alternates:normal;font-variant-caps:normal;font-variant-ligatures:normal;font-variant-numeric:normal;font-variant-position:normal;image-rendering:auto;isolation:auto;mix-blend-mode:normal;paint-order:normal;shape-padding:0;shape-rendering:auto;solid-color:#000000;text-decoration-color:#000000;text-decoration-line:none;text-decoration-style:solid;text-indent:0;text-orientation:mixed;text-transform:none;white-space:normal"/>
	<path id="m" d="m36 14c0.36684-0.43417 1.0953 0.26849 1.4119 0.05741 0.3161-0.21073 0.46965-0.84915 0.63104-1.1719 0.10833-0.21666 0.16252-0.46025 0.27045-0.67612 0.0277-0.05541 0.0013-0.2241 0.04507-0.1803 0.28663 0.28663 0.14371 1.4509 0.58597 1.8931 0.10715 0.10715 0.57069 0.04507 0.76627 0.04507 0.80266 0 4.4169 0.31567 5.0934 0.04508 0.80696-0.32278 1.3232-0.60197 1.9382-1.217 0.13405-0.13405 0.42646-0.74431 0.63104-0.67612 0.02816 0.0094 0.08105 0.25246 0.04507 0.27045-0.76653 0.38327-1.7982 1.2573-2.434 1.8931-0.33061 0.33061-1.6869-0.04508-2.0734-0.04508-1.3572 0-2.4242 0.39587-3.2003 1.1719-0.12666 0.12666-0.36573-0.21377-0.45074-0.27045-0.36839-0.24559-0.85352-0.0887-1.3072-0.31552-0.65424-0.32711-1.2282-0.54593-1.9528-0.82367z" style="fill:#3e321c;paint-order:normal"/>
</svg>
