<?xml version="1.0" encoding="UTF-8"?>
<!-- Created with Inkscape (http://www.inkscape.org/) -->
<svg width="64" height="64" version="1.1" xmlns="http://www.w3.org/2000/svg" xmlns:cc="http://creativecommons.org/ns#" xmlns:dc="http://purl.org/dc/elements/1.1/" xmlns:rdf="http://www.w3.org/1999/02/22-rdf-syntax-ns#" xmlns:xlink="http://www.w3.org/1999/xlink">
	<defs>
		<linearGradient id="linearGradient1546">
			<stop stop-color="#f5d458" offset="0"/>
			<stop stop-color="#f5d458" stop-opacity="0" offset="1"/>
		</linearGradient>
		<linearGradient id="linearGradient1474">
			<stop stop-color="#00346a" stop-opacity=".31979" offset="0"/>
			<stop stop-color="#00346a" stop-opacity="0" offset="1"/>
		</linearGradient>
		<radialGradient id="p" cx="30.023" cy="35.112" r="26" gradientTransform="matrix(4.7269 0 0 3.3327 -109.91 -114.79)" gradientUnits="userSpaceOnUse">
			<stop stop-color="#31b1ad" offset="0"/>
			<stop stop-color="#4a6ad5" offset="1"/>
		</radialGradient>
		<linearGradient id="linearGradient930-3-2">
			<stop stop-color="#ffffff" stop-opacity=".14" offset="0"/>
			<stop stop-color="#24ffee" stop-opacity=".016736" offset="1"/>
		</linearGradient>
		<linearGradient id="linearGradient1476" x1="34" x2="34" y1="-27" y2="-29.903" gradientTransform="translate(0,43)" gradientUnits="userSpaceOnUse" xlink:href="#linearGradient1474"/>
		<linearGradient id="linearGradient1548" x1="31.076" x2="31.076" y1="16.114" y2="17.543" gradientTransform="matrix(0 -.19643 1 0 -12 27.786)" gradientUnits="userSpaceOnUse" xlink:href="#linearGradient1546"/>
		<linearGradient id="linearGradient43214" x1="34" x2="34" y1="-27" y2="-29.903" gradientUnits="userSpaceOnUse" xlink:href="#linearGradient1474"/>
		<linearGradient id="linearGradient43216" x1="31.076" x2="31.076" y1="16.114" y2="17.543" gradientUnits="userSpaceOnUse" xlink:href="#linearGradient1546"/>
		<linearGradient id="linearGradient43862" x1="34" x2="34" y1="-27" y2="-29.903" gradientTransform="matrix(1,0,0,-1,0,-1)" gradientUnits="userSpaceOnUse" xlink:href="#linearGradient1474"/>
		<radialGradient id="radialGradient1093-3-3" cx="23.341" cy="8.1888" r="32" gradientTransform="matrix(1.1999e-8 3.2648 -.99969 0 40.236 -73.423)" gradientUnits="userSpaceOnUse">
			<stop stop-color="#28495a" offset="0"/>
			<stop stop-color="#3e4456" offset="1"/>
		</radialGradient>
		<radialGradient id="radialGradient1126-3-7" cx="32" cy="77.978" r="30.457" gradientTransform="matrix(.57502 0 0 .1388 13.599 49.506)" gradientUnits="userSpaceOnUse" xlink:href="#linearGradient1104-5"/>
		<linearGradient id="linearGradient1104-5">
			<stop stop-color="#ffffff" offset="0"/>
			<stop stop-color="#34a3ff" stop-opacity=".44906" offset=".21737"/>
			<stop stop-color="#0c36ff" stop-opacity=".13924" offset=".50562"/>
			<stop stop-color="#153b5a" stop-opacity="0" offset="1"/>
		</linearGradient>
		<radialGradient id="radialGradient1142-0-6" cx="32" cy="77.978" r="30.457" gradientTransform="matrix(.80325 0 0 .1388 6.2961 49.506)" gradientUnits="userSpaceOnUse" xlink:href="#linearGradient1104-5"/>
		<radialGradient id="radialGradient1130-9-2" cx="32" cy="77.978" r="30.457" gradientTransform="matrix(.82637 0 0 .1388 5.5563 49.506)" gradientUnits="userSpaceOnUse" xlink:href="#linearGradient1104-5"/>
		<radialGradient id="radialGradient1122-3-9" cx="32" cy="77.978" r="30.457" gradientTransform="matrix(.91605 0 0 .1388 2.6863 49.506)" gradientUnits="userSpaceOnUse" xlink:href="#linearGradient1104-5"/>
		<radialGradient id="radialGradient1112-6-1" cx="32" cy="77.978" r="30.457" gradientTransform="matrix(1.0446 0 0 .1388 -1.4271 49.506)" gradientUnits="userSpaceOnUse" xlink:href="#linearGradient1104-5"/>
		<radialGradient id="radialGradient7668" cx="32" cy="60.947" r="2.3271" gradientTransform="matrix(1.8012,0,0,1.8012,-25.638,-48.375)" gradientUnits="userSpaceOnUse" xlink:href="#radialGradient1190-0-2"/>
		<radialGradient id="radialGradient1190-0-2" cx="32" cy="60.947" r="2.3271" gradientTransform="matrix(1.8012,0,0,1.8012,-25.638,-48.375)" gradientUnits="userSpaceOnUse">
			<stop stop-color="#ebffff" stop-opacity=".757" offset="0"/>
			<stop stop-color="#a0ebff" stop-opacity=".10619" offset=".5908"/>
			<stop stop-color="#b197ff" stop-opacity="0" offset="1"/>
		</radialGradient>
		<radialGradient id="radialGradient2296-0-7" cx="32" cy="-1.79" r="31.746" gradientTransform="matrix(0 .088915 -2.797 0 26.993 -2.4976)" gradientUnits="userSpaceOnUse" xlink:href="#linearGradient930-3-2"/>
		<radialGradient id="radialGradient2294-7-0" cx="32" cy="-1.79" r="31.746" gradientTransform="matrix(0 .084298 -2.797 0 26.993 -2.3499)" gradientUnits="userSpaceOnUse" xlink:href="#linearGradient930-3-2"/>
		<radialGradient id="radialGradient848-5-9" cx="32.513" cy="-1.79" r="31.746" gradientTransform="matrix(0 .68806 -2.797 0 26.993 -21.67)" gradientUnits="userSpaceOnUse" xlink:href="#linearGradient930-3-2"/>
		<radialGradient id="radialGradient7670" cx="32" cy="-1.79" r="31.746" gradientTransform="matrix(0 .68806 -2.797 0 26.993 -21.67)" gradientUnits="userSpaceOnUse" xlink:href="#linearGradient930-3-2"/>
		<radialGradient id="radialGradient2292-8-6" cx="32" cy="-1.79" r="31.746" gradientTransform="matrix(0 .090085 -2.797 0 26.993 -2.5351)" gradientUnits="userSpaceOnUse" xlink:href="#linearGradient930-3-2"/>
	</defs>
	<metadata>
		<rdf:RDF>
			<cc:Work rdf:about="">
				<dc:format>image/svg+xml</dc:format>
				<dc:type rdf:resource="http://purl.org/dc/dcmitype/StillImage"/>
			</cc:Work>
		</rdf:RDF>
	</metadata>
	<g>
		<path d="m32 0c-16.635 0-30.818 1.1016-30.818 1.1016-0.86988 0.069882-1.1816 0.31295-1.1816 0.83008v56.701c0 0.84292 0.57606 1.4786 1.3047 1.6738 4.1264 0.93596 17.411 3.6934 30.695 3.6934s26.569-2.7574 30.695-3.6934c0.72863-0.19524 1.3047-0.8309 1.3047-1.6738v-56.701c0-0.51713-0.31176-0.7602-1.1816-0.83008 0 0-14.183-1.1016-30.818-1.1016z" color="#000000" fill="url(#radialGradient1093-3-3)"/>
		<g opacity=".23362">
			<g fill="url(#radialGradient1126-3-7)">
				<path d="m1.543 55.727a1.243 1.243 0 0 0-1.2422 1.2422v1.6641c0 0.21733 0.080686 0.70921 0.43164 1.0371 0.35095 0.3279 0.58642 0.32471 0.64258 0.33984a1.243 1.243 0 0 0 0.048828 0.01367c4.1483 0.93971 17.362 3.6758 30.576 3.6758s26.428-2.7361 30.576-3.6758a1.243 1.243 0 0 0 0.04883-0.01367c0.05618-0.01514 0.29163-0.01194 0.64258-0.33984 0.35094-0.3279 0.43164-0.81978 0.43164-1.0371v-1.6641a1.243 1.243 0 0 0-1.2422-1.2422z" color="#000000" opacity=".13841"/>
				<path d="m1.543 56.021a0.94822 0.94822 0 0 0-0.94727 0.94727v1.6641c0 0.18179 0.064095 0.56645 0.33789 0.82227 0.2738 0.25581 0.46395 0.25651 0.51953 0.27148a0.94822 0.94822 0 0 0 0.037109 0.0078c4.1366 0.93707 17.336 3.6699 30.51 3.6699s26.373-2.7329 30.51-3.6699a0.94822 0.94822 0 0 0 0.03711-0.0078c0.05559-0.01498 0.24574-0.01567 0.51953-0.27148s0.33789-0.64048 0.33789-0.82227v-1.6641a0.94822 0.94822 0 0 0-0.94727-0.94727z" color="#000000" opacity=".13841"/>
				<path d="m1.543 56.209a0.75911 0.75911 0 0 0-0.75977 0.75977v1.6641c0 0.15899 0.054994 0.47402 0.2793 0.68359 0.2243 0.20957 0.38424 0.21168 0.43945 0.22656a0.75911 0.75911 0 0 0 0.029297 0.0078c4.1291 0.93536 17.321 3.666 30.469 3.666s26.34-2.7307 30.469-3.666a0.75911 0.75911 0 0 0 0.0293-0.0078c0.05522-0.01488 0.21516-0.01699 0.43945-0.22656 0.2243-0.20957 0.2793-0.52461 0.2793-0.68359v-1.6641a0.75911 0.75911 0 0 0-0.75977-0.75977z" color="#000000" opacity=".13841"/>
				<path d="m1.543 56.338a0.63004 0.63004 0 0 0-0.63086 0.63086v1.6641c-1e-8 0.14343 0.047758 0.41183 0.23828 0.58984 0.19052 0.17801 0.32981 0.1805 0.38477 0.19531a0.63004 0.63004 0 0 0 0.025391 0.0078c4.124 0.9342 17.31 3.6621 30.439 3.6621s26.316-2.7279 30.439-3.6621a0.63004 0.63004 0 0 0 0.02539-0.0078c0.05497-0.01481 0.19425-0.0173 0.38476-0.19531 0.19052-0.17801 0.23828-0.44642 0.23828-0.58984v-1.6641a0.63004 0.63004 0 0 0-0.63086-0.63086z" color="#000000" opacity=".13841"/>
			</g>
			<path d="m1.543 56.49a0.47945 0.47945 0 0 0-0.47852 0.47852v1.6641c0 0.12527 0.038342 0.33733 0.18945 0.47852 0.15111 0.14119 0.26565 0.14738 0.32031 0.16211a0.47945 0.47945 0 0 0 0.019531 0.0039c4.118 0.93284 17.298 3.6582 30.406 3.6582s26.288-2.7254 30.406-3.6582a0.47945 0.47945 0 0 0 0.01953-0.0039c0.05467-0.01473 0.1692-0.02092 0.32031-0.16211s0.18945-0.35325 0.18945-0.47852v-1.6641a0.47945 0.47945 0 0 0-0.47852-0.47852z" color="#000000" fill="url(#radialGradient1142-0-6)" opacity=".13841"/>
			<path d="m1.543 56.574a0.39381 0.39381 0 0 0-0.39453 0.39453v1.6641c0 0.11494 0.035364 0.29577 0.16406 0.41602 0.1287 0.12024 0.23066 0.12789 0.28516 0.14258a0.39381 0.39381 0 0 0 0.013672 0.0039c4.1146 0.93207 17.292 3.6563 30.389 3.6563 13.097 1e-6 26.274-2.7242 30.389-3.6562a0.39381 0.39381 0 0 0 0.01367-0.0039c0.0545-0.01468 0.15646-0.02233 0.28516-0.14258 0.1287-0.12024 0.16406-0.30107 0.16406-0.41602v-1.6641a0.39381 0.39381 0 0 0-0.39453-0.39453z" color="#000000" fill="url(#radialGradient1130-9-2)" opacity=".13841"/>
			<path d="m1.543 56.744a0.2243 0.2243 0 0 0-0.22461 0.22461v1.6641c0 0.09451 0.025041 0.21417 0.10938 0.29297 0.084334 0.0788 0.15873 0.08697 0.21289 0.10156a0.2243 0.2243 0 0 0 0.00977 2e-3c4.1078 0.9305 17.277 3.6523 30.35 3.6523s26.242-2.7218 30.35-3.6523a0.2243 0.2243 0 0 0 0.0098-2e-3c0.05416-0.01459 0.12856-0.02277 0.21289-0.10156s0.10938-0.19846 0.10938-0.29297v-1.664a0.2243 0.2243 0 0 0-0.22461-0.22461z" color="#000000" fill="url(#radialGradient1122-3-9)" opacity=".13841"/>
			<path d="m1.543 56.969v1.6641c0 0.13493 0.048808 0.14878 0.15625 0.17774 4.0989 0.92853 17.259 3.6465 30.301 3.6465s26.202-2.718 30.301-3.6465c0.10744-0.02895 0.15625-0.04281 0.15625-0.17774v-1.6641z" color="#000000" fill="url(#radialGradient1112-6-1)" opacity=".13841"/>
		</g>
		<g fill="url(#radialGradient7668)" stroke-width=".29089">
			<path class="ColorScheme-Text" d="m33.164 57.748c-0.16118 0-0.29089 0.12971-0.29089 0.29089v0.87266c0 0.16118 0.12971 0.29089 0.29089 0.29089h0.87266c0.16118 0 0.29089-0.12971 0.29089-0.29089v-0.87266c0-0.16118-0.12971-0.29089-0.29089-0.29089zm-2.9089 0.29089c-0.16118 0-0.29089 0.12971-0.29089 0.29089v0.29089c0 0.16118 0.12971 0.29089 0.29089 0.29089h0.29089c0.16118 0 0.29089-0.12971 0.29089-0.29089v-0.29089c0-0.16118-0.12971-0.29089-0.29089-0.29089zm1.4544 0c-0.16118 0-0.29089 0.12971-0.29089 0.29089v0.58177c0 0.16118 0.12971 0.29089 0.29089 0.29089h0.58177c0.16118 0 0.29089-0.12971 0.29089-0.29089v-0.58177c0-0.16118-0.12971-0.29089-0.29089-0.29089zm-1.4544 1.4544c-0.16118 0-0.29089 0.12971-0.29089 0.29089v0.58177c0 0.16118 0.12971 0.29089 0.29089 0.29089h0.58177c0.16118 0 0.29089-0.12971 0.29089-0.29089v-0.58177c0-0.16118-0.12971-0.29089-0.29089-0.29089zm1.4544 0c-0.16118 0-0.29089 0.12971-0.29089 0.29089v0.58177c0 0.16118 0.12971 0.29089 0.29089 0.29089h0.58177c0.16118 0 0.29089-0.12971 0.29089-0.29089v-0.58177c0-0.16118-0.12971-0.29089-0.29089-0.29089zm1.4544 0c-0.16118 0-0.29089 0.12971-0.29089 0.29089v0.58177c0 0.16118 0.12971 0.29089 0.29089 0.29089h0.58177c0.16118 0 0.29089-0.12971 0.29089-0.29089v-0.58177c0-0.16118-0.12971-0.29089-0.29089-0.29089zm-3.1998 1.4544c-0.16118 0-0.29089 0.12971-0.29089 0.29089v0.87266c0 0.16118 0.12971 0.29089 0.29089 0.29089h0.87266c0.16118 0 0.29089-0.12971 0.29089-0.29089v-0.87266c0-0.16118-0.12971-0.29089-0.29089-0.29089zm1.7453 0c-0.16118 0-0.29089 0.12971-0.29089 0.29089v0.58177c0 0.16118 0.12971 0.29089 0.29089 0.29089h0.58177c0.16118 0 0.29089-0.12971 0.29089-0.29089v-0.58177c0-0.16118-0.12971-0.29089-0.29089-0.29089zm1.7453 0.29089c-0.16118 0-0.29089 0.12971-0.29089 0.29089v0.29089c0 0.16118 0.12971 0.29089 0.29089 0.29089h0.29089c0.16118 0 0.29089-0.12971 0.29089-0.29089v-0.29089c0-0.16118-0.12971-0.29089-0.29089-0.29089z" color="#090d11" opacity=".653"/>
			<path d="m33.164 57.793c-0.13704 0-0.24609 0.10905-0.24609 0.24609v0.87305c0 0.13704 0.10905 0.24609 0.24609 0.24609h0.87305c0.13704 0 0.24414-0.10869 0.24414-0.24609v-0.87305c0-0.13741-0.1071-0.24609-0.24414-0.24609zm-2.9102 0.29102c-0.13704 0-0.24609 0.10905-0.24609 0.24609v0.29102c0 0.13704 0.10905 0.24609 0.24609 0.24609h0.29102c0.13704 0 0.24609-0.10905 0.24609-0.24609v-0.29102c0-0.13704-0.10905-0.24609-0.24609-0.24609zm1.4551 0c-0.13704 0-0.24609 0.10905-0.24609 0.24609v0.58203c0 0.13704 0.10905 0.24609 0.24609 0.24609h0.58203c0.13704 0 0.24609-0.10905 0.24609-0.24609v-0.58203c0-0.13704-0.10905-0.24609-0.24609-0.24609zm-1.4551 1.4551c-0.13741 0-0.24609 0.1071-0.24609 0.24414v0.58203c0 0.13704 0.10905 0.24609 0.24609 0.24609h0.58203c0.13704 0 0.24609-0.10905 0.24609-0.24609v-0.58203c0-0.13704-0.10869-0.24414-0.24609-0.24414zm1.4551 0c-0.13741 0-0.24609 0.1071-0.24609 0.24414v0.58203c0 0.13704 0.10905 0.24609 0.24609 0.24609h0.58203c0.13704 0 0.24609-0.10905 0.24609-0.24609v-0.58203c0-0.13704-0.10869-0.24414-0.24609-0.24414zm1.4551 0c-0.13741 0-0.24609 0.1071-0.24609 0.24414v0.58203c0 0.13704 0.10905 0.24609 0.24609 0.24609h0.58203c0.13704 0 0.24609-0.10905 0.24609-0.24609v-0.58203c0-0.13704-0.10869-0.24414-0.24609-0.24414zm-3.2012 1.4531c-0.13704 0-0.24414 0.10869-0.24414 0.24609v0.87305c0 0.13741 0.1071 0.24609 0.24414 0.24609h0.87305c0.13704 0 0.24609-0.10905 0.24609-0.24609v-0.87305c0-0.13704-0.10905-0.24609-0.24609-0.24609zm1.7461 0c-0.13704 0-0.24609 0.10905-0.24609 0.24609v0.58203c0 0.13705 0.10905 0.24609 0.24609 0.24609h0.58203c0.13704 0 0.24609-0.10905 0.24609-0.24609v-0.58203c0-0.13704-0.10905-0.24609-0.24609-0.24609zm1.7461 0.29102c-0.13704 0-0.24609 0.10905-0.24609 0.24609v0.29102c0 0.13705 0.10905 0.24609 0.24609 0.24609h0.29102c0.13704 0 0.24609-0.10905 0.24609-0.24609v-0.29102c0-0.13704-0.10905-0.24609-0.24609-0.24609z" color="#090d11" opacity=".653"/>
			<path d="m33.164 57.852c-0.1051 0-0.1875 0.0824-0.1875 0.1875v0.87305c0 0.1051 0.0824 0.1875 0.1875 0.1875h0.87305c0.1051 0 0.18555-0.08156 0.18555-0.1875v-0.87305c0-0.10594-0.08045-0.1875-0.18555-0.1875zm-2.9102 0.29102c-0.1051 0-0.1875 0.0824-0.1875 0.1875v0.29102c0 0.1051 0.0824 0.1875 0.1875 0.1875h0.29102c0.1051 0 0.1875-0.0824 0.1875-0.1875v-0.29102c0-0.1051-0.0824-0.1875-0.1875-0.1875zm1.4551 0c-0.1051 0-0.1875 0.0824-0.1875 0.1875v0.58203c0 0.1051 0.0824 0.1875 0.1875 0.1875h0.58203c0.1051 0 0.1875-0.0824 0.1875-0.1875v-0.58203c0-0.1051-0.0824-0.1875-0.1875-0.1875zm-1.4551 1.4551c-0.10594 0-0.1875 0.08045-0.1875 0.18555v0.58203c0 0.1051 0.0824 0.1875 0.1875 0.1875h0.58203c0.1051 0 0.1875-0.0824 0.1875-0.1875v-0.58203c0-0.1051-0.08156-0.18555-0.1875-0.18555zm1.4551 0c-0.10594 0-0.1875 0.08045-0.1875 0.18555v0.58203c0 0.1051 0.0824 0.1875 0.1875 0.1875h0.58203c0.1051 0 0.1875-0.0824 0.1875-0.1875v-0.58203c0-0.1051-0.08156-0.18555-0.1875-0.18555zm1.4551 0c-0.10594 0-0.1875 0.08045-0.1875 0.18555v0.58203c0 0.1051 0.0824 0.1875 0.1875 0.1875h0.58203c0.1051 0 0.1875-0.0824 0.1875-0.1875v-0.58203c0-0.1051-0.08156-0.18555-0.1875-0.18555zm-3.2012 1.4531c-0.1051 0-0.18555 0.08156-0.18555 0.1875v0.87305c0 0.10594 0.08045 0.1875 0.18555 0.1875h0.87305c0.1051 0 0.1875-0.0824 0.1875-0.1875v-0.87305c0-0.1051-0.0824-0.1875-0.1875-0.1875zm1.7461 0c-0.1051 0-0.1875 0.0824-0.1875 0.1875v0.58203c0 0.1051 0.0824 0.1875 0.1875 0.1875h0.58203c0.1051 0 0.1875-0.0824 0.1875-0.1875v-0.58203c0-0.1051-0.0824-0.1875-0.1875-0.1875zm1.7461 0.29102c-0.1051 0-0.1875 0.0824-0.1875 0.1875v0.29102c0 0.1051 0.0824 0.1875 0.1875 0.1875h0.29102c0.1051 0 0.1875-0.0824 0.1875-0.1875v-0.29102c0-0.1051-0.0824-0.1875-0.1875-0.1875z" color="#090d11" opacity=".653"/>
			<path d="m33.164 57.9c-0.07926 0-0.13867 0.05942-0.13867 0.13867v0.87305c0 0.07926 0.05941 0.13867 0.13867 0.13867h0.87305c0.07952 0 0.13672-0.05776 0.13672-0.13867v-0.87305c0-0.08091-0.0572-0.13867-0.13672-0.13867zm-2.9102 0.29102c-0.07926 0-0.13867 0.05941-0.13867 0.13867v0.29102c0 0.07926 0.05941 0.13867 0.13867 0.13867h0.29102c0.07926 0 0.13867-0.05941 0.13867-0.13867v-0.29102c0-0.07926-0.05941-0.13867-0.13867-0.13867zm1.4551 0c-0.07926 0-0.13867 0.05941-0.13867 0.13867v0.58203c0 0.07926 0.05941 0.13867 0.13867 0.13867h0.58203c0.07926 0 0.13867-0.05941 0.13867-0.13867v-0.58203c0-0.07926-0.05941-0.13867-0.13867-0.13867zm-1.4551 1.4551c-0.08092 0-0.13867 0.0572-0.13867 0.13672v0.58203c0 0.07926 0.05941 0.13867 0.13867 0.13867h0.58203c0.07926 0 0.13867-0.05941 0.13867-0.13867v-0.58203c0-0.07952-0.05776-0.13672-0.13867-0.13672zm1.4551 0c-0.08092 0-0.13867 0.0572-0.13867 0.13672v0.58203c0 0.07926 0.05941 0.13867 0.13867 0.13867h0.58203c0.07926 0 0.13867-0.05941 0.13867-0.13867v-0.58203c0-0.07952-0.05776-0.13672-0.13867-0.13672zm1.4551 0c-0.08091 0-0.13867 0.0572-0.13867 0.13672v0.58203c0 0.07926 0.05941 0.13867 0.13867 0.13867h0.58203c0.07926 0 0.13867-0.05941 0.13867-0.13867v-0.58203c0-0.07952-0.05776-0.13672-0.13867-0.13672zm-3.2012 1.4531c-0.07953 0-0.13672 0.05776-0.13672 0.13867v0.87305c0 0.08092 0.05719 0.13867 0.13672 0.13867h0.87305c0.07926 0 0.13867-0.05941 0.13867-0.13867v-0.87305c0-0.07926-0.05941-0.13867-0.13867-0.13867zm1.7461 0c-0.07926 0-0.13867 0.05941-0.13867 0.13867v0.58203c0 0.07926 0.05941 0.13867 0.13867 0.13867h0.58203c0.07926 0 0.13867-0.05941 0.13867-0.13867v-0.58203c0-0.07926-0.05941-0.13867-0.13867-0.13867zm1.7461 0.29102c-0.07926 0-0.13867 0.05941-0.13867 0.13867v0.29102c0 0.07926 0.05941 0.13867 0.13867 0.13867h0.29102c0.07926 0 0.13867-0.05941 0.13867-0.13867v-0.29102c0-0.07926-0.05941-0.13867-0.13867-0.13867z" color="#090d11" opacity=".653"/>
			<path d="m33.164 57.955c-0.0534 0-0.08398 0.03058-0.08398 0.08398v0.87305c0 0.05341 0.03058 0.08398 0.08398 0.08398h0.87305c0.05398 0 0.08203-0.02805 0.08203-0.08398v-0.87305c0-0.05594-0.02805-0.08398-0.08203-0.08398zm-2.9102 0.29102c-0.05341 0-0.08398 0.03058-0.08398 0.08398v0.29102c0 0.05341 0.03058 0.08398 0.08398 0.08398h0.29102c0.05341 0 0.08399-0.03058 0.08398-0.08398v-0.29102c0-0.05341-0.03058-0.08398-0.08398-0.08398zm1.4551 0c-0.0534 0-0.08398 0.03058-0.08398 0.08398v0.58203c0 0.05341 0.03058 0.08398 0.08398 0.08398h0.58203c0.0534 0 0.08398-0.03058 0.08398-0.08398v-0.58203c0-0.05341-0.03058-0.08398-0.08398-0.08398zm-1.4551 1.4551c-0.05594 0-0.08398 0.02805-0.08398 0.08203v0.58203c0 0.05341 0.03058 0.08398 0.08398 0.08398h0.58203c0.0534 0 0.08398-0.03058 0.08398-0.08398v-0.58203c0-0.05398-0.02805-0.08203-0.08398-0.08203zm1.4551 0c-0.05594 0-0.08398 0.02805-0.08398 0.08203v0.58203c0 0.05341 0.03058 0.08398 0.08398 0.08398h0.58203c0.0534 0 0.08398-0.03058 0.08398-0.08398v-0.58203c0-0.05398-0.02804-0.08203-0.08398-0.08203zm1.4551 0c-0.05594 0-0.08398 0.02805-0.08398 0.08203v0.58203c0 0.05341 0.03058 0.08398 0.08398 0.08398h0.58203c0.05341 0 0.08398-0.03058 0.08398-0.08398v-0.58203c0-0.05398-0.02804-0.08203-0.08398-0.08203zm-3.2012 1.4531c-0.05398 0-0.08203 0.02805-0.08203 0.08398v0.87305c0 0.05594 0.02805 0.08398 0.08203 0.08398h0.87305c0.0534 0 0.08398-0.03058 0.08398-0.08398v-0.87305c0-0.0534-0.03058-0.08398-0.08398-0.08398zm1.7461 0c-0.05341 0-0.08398 0.03058-0.08398 0.08398v0.58203c0 0.05341 0.03058 0.08398 0.08398 0.08398h0.58203c0.0534 0 0.08398-0.03058 0.08398-0.08398v-0.58203c0-0.05341-0.03058-0.08398-0.08398-0.08398zm1.7461 0.29102c-0.05341 0-0.08398 0.03058-0.08398 0.08398v0.29102c0 0.05341 0.03058 0.08398 0.08398 0.08398h0.29102c0.05341 0 0.08398-0.03058 0.08398-0.08398v-0.29102c0-0.05341-0.03058-0.08398-0.08398-0.08398z" color="#090d11" opacity=".653"/>
			<path d="m33.164 58.016c-0.01526 0-0.01838 0.0028-0.01953 0.0039-0.0012 0.0012-0.0039 0.0043-0.0039 0.01953v0.87305c0 0.01527 0.0028 0.01838 0.0039 0.01953 0.0012 0.0012 0.0043 0.0039 0.01953 0.0039h0.87305c0.01661 0 0.01767-2e-3 0.01758-2e-3 -9.4e-5 9.4e-5 0.0039-0.0035 0.0039-0.02148v-0.87305c0-0.01795-4e-3 -0.02158-0.0039-0.02148 9.3e-5 9.5e-5 -9.66e-4 -2e-3 -0.01758-2e-3zm-2.9102 0.29102c-0.01527 0-0.01838 0.0028-0.01953 0.0039-0.0012 0.0012-0.0039 0.0043-0.0039 0.01953v0.29102c0 0.01527 0.0028 0.01838 0.0039 0.01953 0.0012 0.0012 0.0043 0.0039 0.01953 0.0039h0.29102c0.01527 0 0.01838-0.0028 0.01953-0.0039 0.0012-0.0012 0.0039-0.0043 0.0039-0.01953v-0.29102c0-0.01527-0.0028-0.01838-0.0039-0.01953-0.0012-0.0012-0.0043-0.0039-0.01953-0.0039zm1.4551 0c-0.01526 0-0.01838 0.0028-0.01953 0.0039-0.0012 0.0012-0.0039 0.0043-0.0039 0.01953v0.58203c0 0.01527 0.0028 0.01838 0.0039 0.01953 0.0012 0.0012 0.0043 0.0039 0.01953 0.0039h0.58203c0.01526 0 0.01838-0.0028 0.01953-0.0039 0.0012-0.0012 0.0039-0.0043 0.0039-0.01953v-0.58203c0-0.01526-0.0028-0.01838-0.0039-0.01953-0.0012-0.0012-0.0043-0.0039-0.01953-0.0039zm-1.4551 1.4551c-0.01795 0-0.02158 4e-3 -0.02148 0.0039 9.5e-5 -9.4e-5 -2e-3 9.65e-4 -2e-3 0.01758v0.58203c0 0.01527 0.0028 0.01838 0.0039 0.01953 0.0012 0.0012 0.0043 0.0039 0.01953 0.0039h0.58203c0.01526 0 0.01838-0.0028 0.01953-0.0039 0.0012-0.0012 0.0039-0.0043 0.0039-0.01953v-0.58203c0-0.01661-2e-3 -0.01767-2e-3 -0.01758 9.5e-5 9.3e-5 -0.0035-0.0039-0.02148-0.0039zm1.4551 0c-0.01795 0-0.02158 4e-3 -0.02148 0.0039 9.5e-5 -9.4e-5 -2e-3 9.65e-4 -2e-3 0.01758v0.58203c0 0.01527 0.0028 0.01838 0.0039 0.01953 0.0012 0.0012 0.0043 0.0039 0.01953 0.0039h0.58203c0.01526 0 0.01838-0.0028 0.01953-0.0039 0.0012-0.0012 0.0039-0.0043 0.0039-0.01953v-0.58203c0-0.01661-2e-3 -0.01767-2e-3 -0.01758 9.5e-5 9.4e-5 -0.0035-0.0039-0.02148-0.0039zm1.4551 0c-0.01795 0-0.02158 4e-3 -0.02148 0.0039 9.5e-5 -9.3e-5 -2e-3 9.66e-4 -2e-3 0.01758v0.58203c0 0.01527 0.0028 0.01838 0.0039 0.01953 0.0012 0.0012 0.0043 0.0039 0.01953 0.0039h0.58203c0.01527 0 0.01838-0.0028 0.01953-0.0039 0.0012-0.0012 0.0039-0.0043 0.0039-0.01953v-0.58203c0-0.01661-2e-3 -0.01767-2e-3 -0.01758 9.5e-5 9.4e-5 -0.0035-0.0039-0.02148-0.0039zm-3.2012 1.4531c-0.01661 0-0.01767 2e-3 -0.01758 2e-3 9.4e-5 -9.5e-5 -0.0039 0.0035-0.0039 0.02148v0.87305c0 0.01795 4e-3 0.02158 0.0039 0.02148-9.2e-5 -9.4e-5 9.67e-4 2e-3 0.01758 2e-3h0.87305c0.01527 0 0.01838-0.0028 0.01953-0.0039 0.0012-0.0012 0.0039-0.0043 0.0039-0.01953v-0.87305c0-0.01526-0.0028-0.01838-0.0039-0.01953-0.0012-0.0012-0.0043-0.0039-0.01953-0.0039zm1.7461 0c-0.01527 0-0.01838 0.0028-0.01953 0.0039-0.0012 0.0012-0.0039 0.0043-0.0039 0.01953v0.58203c0 0.01527 0.0028 0.01838 0.0039 0.01953 0.0012 0.0012 0.0043 0.0039 0.01953 0.0039h0.58203c0.01526 0 0.01838-0.0028 0.01953-0.0039 0.0012-0.0012 0.0039-0.0043 0.0039-0.01953v-0.58203c0-0.01527-0.0028-0.01838-0.0039-0.01953-0.0012-0.0012-0.0043-0.0039-0.01953-0.0039zm1.7461 0.29102c-0.01527 0-0.01838 0.0028-0.01953 0.0039-0.0012 0.0012-0.0039 0.0043-0.0039 0.01953v0.29102c0 0.01527 0.0028 0.01838 0.0039 0.01953 0.0012 0.0012 0.0043 0.0039 0.01953 0.0039h0.29102c0.01527 0 0.01838-0.0028 0.01953-0.0039 0.0012-0.0012 0.0039-0.0043 0.0039-0.01953v-0.29102c0-0.01527-0.0028-0.01838-0.0039-0.01953-0.0012-0.0012-0.0043-0.0039-0.01953-0.0039z" color="#090d11"/>
		</g>
		<g>
			<path d="m32 0.10438c-8.7647 0-19.154 0.41873-24.351 0.71205-3.9792 0.19613-6.4814 0.39423-6.5142 0.3989-0.63933 0.0515-0.88382 0.22577-0.90895 0.59258-0.015755 0.00319-0.028144 2.4844-0.039877 6.2071-0.010012 3.7225-0.018875 8.6854-0.027562 13.648-0.01042 4.9633-0.032208 9.9285-0.034012 13.65-0.005269 3.7252-0.008268 6.2082-0.012901 6.2124-0.005308 0.34157 0.13105 0.62749 0.33561 0.84386 0.087505 0.04967 0.18462 0.0986 0.30144 0.13514 0.087043 0.02515 0.17465 0.0078 0.24553-0.04387 0.07088-0.05649 0.11199-0.12826 0.11156-0.21889-4.684e-4 0.0052-0.019589-2.4979-0.044574-6.2472-0.024696-3.7557-0.055659-8.7633-0.08868-13.771-0.033313-5.0076-0.066627 7.0649-0.091612 3.3092-0.024985-3.6616-0.013715-6.0791 0.19234-6.0308 1.251-0.06486 4.21-17.51 8.1382-17.626 4.9109-0.16927 14.041-0.45057 22.789-0.45057 8.7476 1e-7 17.878 0.28131 22.789 0.45057 3.9282 0.1167 6.8872 17.561 8.1382 17.626 0.20606-0.0483 0.21733 2.3692 0.19234 6.0308-0.02499 3.7557-0.0583-8.3168-0.09161-3.3092-0.03301 5.0076-0.06398 10.015-0.08868 13.771-0.02499 3.7493-0.04409 6.2524-0.04457 6.2472-4.26e-4 0.09064 0.04068 0.1624 0.11156 0.21889 0.07088 0.05169 0.15848 0.06902 0.24553 0.04387 0.11682-0.03654 0.21394-0.08547 0.30144-0.13514 0.20456-0.21636 0.34092-0.50229 0.33561-0.84386-0.0046-0.0042-0.0076-2.4872-0.0129-6.2124-0.0018-3.7216-0.0236-8.6867-0.03401-13.65-0.0087-4.9629-0.01756-9.9257-0.02757-13.648-0.01174-3.7227-0.02412-6.2039-0.03988-6.2071-0.02513-0.36681-0.26963-0.54108-0.90895-0.59258-0.0328-0.00467-2.535-0.20276-6.5142-0.3989-5.1969-0.29331-15.586-0.71205-24.351-0.71205" fill="url(#radialGradient2296-0-7)" style="paint-order:fill markers stroke"/>
			<path d="m32 0.19413c-9.1492 0-21.847 0.54197-26.676 0.8507-2.5641 0.12799-4.169 0.25964-4.23 0.26832-0.44111 0.035696-0.62777 0.15081-0.67451 0.38839-0.0293 0.00594-0.05234 1.5735-0.074161 3.9267-0.01862 2.3527-0.035103 5.4889-0.051258 8.6249-0.019378 3.1369-0.059898 6.2772-0.063255 8.6282-0.009799 2.3577-0.015377 3.9287-0.023993 3.9365-0.009872 0.22048 0.071694 0.40647 0.19595 0.54841 0.048187 0.03859 0.10499 0.0837 0.17439 0.11699 0.053441 0.02142 0.1023 0.01489 0.14703-0.01184 0.044732-0.03565 0.070674-0.06365 0.070405-0.12085-8.7109e-4 0.0097-0.015965-1.5692-0.031733-3.9275-0.015232-2.3703-0.031884-5.5305-0.052363-8.6908-0.021024-3.1603-0.042048 25.444-0.057816 23.074-0.015768-2.1952 0.025656-3.6149 0.40887-3.525 0.78951-0.04093 2.5157-32.32 4.9948-32.394 4.3066-0.17141 15.41-0.57112 25.943-0.57112 10.533 1e-7 21.637 0.3997 25.943 0.57112 2.4791 0.073647 4.2053 32.353 4.9948 32.394 0.38322-0.08983 0.42464 1.3298 0.40887 3.525-0.01577 2.3702-0.03679-26.234-0.05782-23.074-0.02047 3.1603-0.03713 6.3205-0.05236 8.6908-0.01577 2.3583-0.03084 3.9372-0.03173 3.9275-2.69e-4 0.0572 0.02567 0.0852 0.0704 0.12085 0.04473 0.02672 0.09357 0.03325 0.14703 0.01184 0.0694-0.03329 0.1262-0.0784 0.17439-0.11699 0.12426-0.14194 0.20582-0.32793 0.19595-0.54841-0.0086-0.0078-0.01419-1.5788-0.02399-3.9365-0.0034-2.351-0.04388-5.4913-0.06326-8.6282-0.01615-3.1361-0.03264-6.2722-0.05126-8.6249-0.02182-2.3531-0.04485-3.9207-0.07415-3.9267-0.04674-0.23757-0.2334-0.35269-0.67451-0.38839-0.06099-0.00868-1.6659-0.14032-4.23-0.26832-4.8286-0.30872-17.526-0.8507-26.676-0.8507" fill="url(#radialGradient2294-7-0)" style="paint-order:fill markers stroke"/>
			<path d="m32 0c-16.635 0-30.818 1.1016-30.818 1.1016-0.86988 0.069882-1.1816 0.31295-1.1816 0.83008v56.701c0 0.4824 0.20008 0.88457 0.49805 1.1875 0.13324 0.06256 0.27725 0.11594 0.44922 0.15625a0.42319 0.42319 0 0 0 0.51953-0.41406l-0.38086-57.25c3.5756-0.18539 17.572-0.75977 30.914-0.75977 13.343 2e-7 27.339 0.57437 30.914 0.75977l-0.38086 57.25a0.42319 0.42319 0 0 0 0.51953 0.41406c0.17197-0.04031 0.31598-0.09369 0.44922-0.15625 0.29797-0.30293 0.49805-0.7051 0.49805-1.1875v-56.701c0-0.51713-0.31176-0.7602-1.1816-0.83008 0 0-14.183-1.1016-30.818-1.1016z" fill="url(#radialGradient848-5-9)" style="paint-order:fill markers stroke"/>
			<path d="m32 0.34766c-9.807 0-26.454 0.7528-30.652 1.0879-0.14313 0.011423-0.21304 0.029383-0.32227 0.044922-0.102 0.00866-0.18972 0.02258-0.27344 0.039062-0.052473 0.010641-0.093734 0.015297-0.13281 0.025391-0.033346 0.00938-0.062865 0.02034-0.091797 0.03125-0.034704 0.01238-0.10727 0.030858-0.11328 0.037109-0.017549 0.018248-0.027538 0.029036-0.042969 0.042969-0.017679 0.013335-0.029845 0.028362-0.042969 0.042969-0.019078 0.019636-0.031253 0.058198-0.042969 0.085937-0.004044 0.015034-0.021484 0.026983-0.021484 0.042969v0.046875c-0.00156 0.017349-0.009766 0.019584-0.009766 0.041016 9.607e-4 -7.47e-5 0.008791 7.53e-5 0.009766 0v56.887c0 0.31345 0.093011 0.60085 0.7793 0.76172l-0.38281-57.658c3.2728-0.17509 17.753-0.77734 31.34-0.77734 13.587 1e-7 28.067 0.60225 31.34 0.77734l-0.38281 57.658c0.68629-0.16087 0.7793-0.44827 0.7793-0.76172v-56.887c1e-3 7.53e-5 0.0088-7.47e-5 0.0098 0 0-0.021432-0.0082-0.023667-0.0098-0.041016v-0.046875c0-0.015986-0.01748-0.027935-0.02148-0.042969-0.01172-0.027739-0.02389-0.066302-0.04297-0.085937-0.01312-0.014607-0.02529-0.029634-0.04297-0.042969-0.01543-0.013933-0.02542-0.024721-0.04297-0.042969-6e-3 -0.00625-0.07858-0.024729-0.11328-0.037109-0.02893-0.01091-0.05845-0.02187-0.0918-0.03125-0.03908-0.010094-0.08034-0.01475-0.13281-0.025391-0.08371-0.016482-0.17144-0.030403-0.27344-0.039062-0.10923-0.015539-0.17914-0.033499-0.32226-0.044922-4.1986-0.33509-20.845-1.0879-30.652-1.0879z" fill="url(#radialGradient7670)" style="paint-order:fill markers stroke"/>
			<path d="m32 0.32118c-9.6936 0-25.659 0.71645-29.967 1.047-0.56057 0.031523-0.89515 0.069085-0.99606 0.083441-0.16047 0.013322-0.26526 0.044691-0.34259 0.099295-0.048478 0.00983-0.086596 0.28398-0.1227 0.69808-0.030807 0.41344-0.058078 0.96326-0.084807 1.513-0.032061 0.55113-0.099101 1.1079-0.10466 1.5185-0.016213 0.42163-0.025441 0.70145-0.039697 0.71432-0.016332 0.049053-0.012337 0.093558-0.001772 0.13012-0.00748 0.022905-0.007761 0.062595-0.005491 0.091291 0.005868 0.016135-1.409e-4 0.024897 0.007572 0.033519 0.007713-0.00615 0.012186 0.027817 0.01214 0.017954-0.001441 0.016029-0.010834-0.25437-0.013553-0.64326-0.001831-0.40876 0.001777-0.95354-9.4708e-4 -1.4985-0.003625-0.54492-0.00725 51.465-0.009969 51.056-0.002719-0.11911 0.081397-0.12605 0.71543 0.02257 0.13613-0.0071 0.11697-53.289 0.54444-53.302 3.451-0.17446 17.349-0.74178 30.409-0.74178 13.06 1e-7 26.958 0.56733 30.409 0.74178 0.42746 0.012699 0.4083 53.295 0.54444 53.302 0.63403-0.14862 0.71814-0.14168 0.71542-0.02257-0.0027 0.40869-0.0063-51.601-0.01-51.056-0.0027 0.54499 8.84e-4 1.0898-9.47e-4 1.4985-0.0027 0.38889-0.01208 0.65929-0.01355 0.64326-4.7e-5 0.00986 0.0044-0.024102 0.01214-0.017954 0.0077-0.00862 0.0017-0.017384 0.0076-0.033519 0.0023-0.028696 2e-3 -0.068387-0.0055-0.091291 0.01057-0.036562 0.01456-0.081068-0.0018-0.13012-0.01425-0.012872-0.02348-0.29269-0.0397-0.71432-0.0056-0.41055-0.0726-0.96732-0.10466-1.5185-0.02673-0.54978-0.054-1.0996-0.08481-1.513-0.03606-0.41409-0.07418-0.68824-0.12266-0.69808-0.07734-0.054604-0.18212-0.085973-0.34259-0.099295-0.10091-0.014356-0.4355-0.051918-0.99606-0.083441-4.3072-0.33054-20.273-1.047-29.967-1.047" fill="url(#radialGradient7670)" style="paint-order:fill markers stroke"/>
			<path d="m32 0.26741c-9.4632 0-24.046 0.6426-28.574 0.96391-1.4086 0.072355-2.2808 0.14974-2.3648 0.16169-0.27925 0.022792-0.41869 0.089607-0.48308 0.22165-0.040361 0.00818-0.072097 0.82979-0.10216 2.0646-0.025649 1.2343-0.048354 2.8787-0.070607 4.5232-0.026693 1.6456-0.082508 3.2958-0.087132 4.5277-0.013498 1.2411-0.021181 2.0674-0.03305 2.0781-0.013598 0.12161 0.02323 0.226 0.081915 0.30716 0.016081 0.02954 0.03996 0.07153 0.070644 0.10217 0.026003 0.01837 0.043217 0.02066 0.066598 0.01432 0.023382-0.01863 0.036941-0.0109 0.036801-0.0408-0.0012 0.01334-0.013006-0.81088-0.021248-2.0333-0.007503-1.239-0.01247-2.8907-0.022709-4.5427-0.010989-1.6519-0.021979 40.452-0.030221 39.213-0.008242-0.99783 0.057804-1.6027 0.58567-1.479 0.41268-0.0214 1.1322-44.414 2.4281-44.453 3.8132-0.17317 16.529-0.66955 28.519-0.66955 11.99 1e-7 24.706 0.49638 28.519 0.66955 1.2958 0.038495 2.0154 44.431 2.4281 44.453 0.52787-0.12373 0.59392 0.48115 0.58567 1.479-0.0082 1.2389-0.01923-40.865-0.03022-39.213-0.01022 1.6519-0.01521 3.3037-0.02271 4.5427-0.0082 1.2224-0.02002 2.0467-0.02125 2.0333-1.4e-4 0.0299 0.01342 0.02216 0.0368 0.0408 0.02338 0.0063 0.04056 4e-3 0.0666-0.01432 0.03068-0.03064 0.05456-0.07262 0.07064-0.10217 0.05869-0.08116 0.09551-0.18555 0.08191-0.30716-0.01187-0.01072-0.01955-0.83704-0.03305-2.0781-0.0046-1.2318-0.06044-2.8821-0.08713-4.5277-0.02225-1.6444-0.04496-3.2889-0.07061-4.5232-0.03005-1.2348-0.06179-2.0564-0.10214-2.0646-0.06439-0.13205-0.20383-0.19886-0.48308-0.22165-0.08402-0.011952-0.95628-0.089335-2.3648-0.16169-4.5279-0.32131-19.111-0.96391-28.574-0.96391" fill="url(#radialGradient2292-8-6)" style="paint-order:fill markers stroke"/>
		</g>
	</g>
	<path d="m2 3.125v52.875h60v-52.875z" color="#000000" fill="url(#p)"/>
	<g transform="translate(2,25)">
		<path d="m4 16h56v11h-56z" fill="#e9b55c"/>
		<path transform="scale(1,-1)" d="m4-30h56v3h-56z" color="#000000" fill="url(#linearGradient43214)"/>
		<path d="m4 16h56v1.9948h-56z" fill="url(#linearGradient43216)"/>
		<path d="m9.0001 16v5h1v-5zm5 0v5h1v-5zm5 0v5h1v-5zm5 0v5h1v-5zm5 0v5h1v-5zm5 0v5h1v-5zm5 0v5h1v-5zm5 0v5h1v-5zm5 0.03125v5h1v-5zm5 0v5h1v-5z" color="#000000" fill="#392315" fill-opacity=".39893"/>
	</g>
	<g transform="rotate(90,35,36)">
		<g>
			<path d="m4 29h56v-3h-56z" color="#000000" fill="url(#linearGradient43862)"/>
			<path d="m4 16h56v11h-56z" fill="#e9b55c"/>
			<path d="m4 13h56v3h-56z" color="#000000" fill="url(#linearGradient1476)"/>
		</g>
		<path d="m4 27v-11h1.9948v11z" fill="url(#linearGradient1548)"/>
		<path d="m9.0001 22v5h1v-5zm5 0v5h1v-5zm5 0v5h1v-5zm5 0v5h1v-5zm5 0v5h1v-5zm5 0v5h1v-5zm5 0v5h1v-5zm5 0v5h1v-5zm5 0.03125v5h1v-5zm5 0v5h1v-5z" color="#000000" fill="#392315" fill-opacity=".39893"/>
	</g>
</svg>
