<?xml version="1.0" encoding="UTF-8"?>
<svg width="64" height="64" version="1.1" xmlns="http://www.w3.org/2000/svg" xmlns:xlink="http://www.w3.org/1999/xlink">
	<defs>
		<radialGradient id="d" cx="35.574" cy="1.019" r="32" gradientTransform="matrix(0 1.1252 -5.1753 0 37.271 -39.029)" gradientUnits="userSpaceOnUse" xlink:href="#a"/>
		<radialGradient id="e" cx="35.574" cy="1.036" r="32" gradientTransform="matrix(0 1.1252 -5.1753 0 37.363 -39.029)" gradientUnits="userSpaceOnUse" xlink:href="#a"/>
		<radialGradient id="f" cx="35.574" cy="1.055" r="32" gradientTransform="matrix(0 1.1252 -5.1753 0 37.458 -39.029)" gradientUnits="userSpaceOnUse" xlink:href="#a"/>
		<radialGradient id="g" cx="35.574" cy="1.071" r="32" gradientTransform="matrix(0 1.1252 -5.1753 0 37.544 -39.029)" gradientUnits="userSpaceOnUse" xlink:href="#a"/>
		<radialGradient id="h" cx="35.574" cy="1.091" r="32" gradientTransform="matrix(0 1.1252 -5.1753 0 37.648 -39.029)" gradientUnits="userSpaceOnUse" xlink:href="#a"/>
		<radialGradient id="i" cx="35.574" cy="1.113" r="32" gradientTransform="matrix(0 1.1252 -5.1753 0 37.758 -39.029)" gradientUnits="userSpaceOnUse" xlink:href="#a"/>
		<radialGradient id="j" cx="35.574" cy="1.135" r="32" gradientTransform="matrix(0 1.1252 -5.1753 0 37.875 -39.029)" gradientUnits="userSpaceOnUse" xlink:href="#a"/>
		<radialGradient id="k" cx="35.574" cy="1.159" r="32" gradientTransform="matrix(0 1.1252 -5.1753 0 38 -39.029)" gradientUnits="userSpaceOnUse" xlink:href="#a"/>
		<radialGradient id="l" cx="35.574" cy="1.18" r="32" gradientTransform="matrix(0 1.1252 -5.1753 0 38.107 -39.029)" gradientUnits="userSpaceOnUse" xlink:href="#a"/>
		<radialGradient id="m" cx="35.574" cy="1.208" r="32" gradientTransform="matrix(0 1.1252 -5.1753 0 38.252 -39.029)" gradientUnits="userSpaceOnUse" xlink:href="#a"/>
		<radialGradient id="n" cx="35.574" cy="1.239" r="32" gradientTransform="matrix(0 1.1252 -5.1753 0 38.411 -39.029)" gradientUnits="userSpaceOnUse" xlink:href="#a"/>
		<radialGradient id="o" cx="35.574" cy="1.273" r="32" gradientTransform="matrix(0 1.1252 -5.1753 0 38.587 -39.029)" gradientUnits="userSpaceOnUse" xlink:href="#a"/>
		<radialGradient id="p" cx="35.574" cy="1.304" r="32" gradientTransform="matrix(0 1.1252 -5.1753 0 38.75 -39.029)" gradientUnits="userSpaceOnUse" xlink:href="#a"/>
		<radialGradient id="q" cx="35.574" cy="1.346" r="32" gradientTransform="matrix(0 1.1252 -5.1753 0 38.966 -39.029)" gradientUnits="userSpaceOnUse" xlink:href="#a"/>
		<radialGradient id="r" cx="35.574" cy="1.393" r="32" gradientTransform="matrix(0 1.1252 -5.1753 0 39.208 -39.029)" gradientUnits="userSpaceOnUse" xlink:href="#a"/>
		<radialGradient id="s" cx="35.574" cy="1.439" r="32" gradientTransform="matrix(0 1.1252 -5.1753 0 39.446 -39.029)" gradientUnits="userSpaceOnUse" xlink:href="#a"/>
		<radialGradient id="t" cx="36.463" cy="1.498" r="32" gradientTransform="matrix(0 .01804 -1.2755 0 33.91 1.341)" gradientUnits="userSpaceOnUse">
			<stop stop-color="#ffbffd" offset="0"/>
			<stop stop-color="#ff8ff3" stop-opacity="0" offset="1"/>
		</radialGradient>
		<linearGradient id="a">
			<stop stop-color="#ebc3ff" stop-opacity=".09" offset="0"/>
			<stop stop-color="#ff95fe" stop-opacity=".019608" offset="1"/>
		</linearGradient>
		<linearGradient id="linearGradient4520">
			<stop stop-color="#714059" offset="0"/>
			<stop stop-color="#583e34" offset="1"/>
		</linearGradient>
		<linearGradient id="linearGradient365" x1="332.25" x2="332.25" y1="369.86" y2="522.88" gradientUnits="userSpaceOnUse" xlink:href="#linearGradient4520"/>
		<radialGradient id="radialGradient20947" cx="385.9" cy="413.98" r="77.057" gradientTransform="matrix(1.5637 0 0 1.6215 -216.38 -262.94)" gradientUnits="userSpaceOnUse">
			<stop stop-color="#ec8700" offset="0"/>
			<stop stop-color="#d87009" stop-opacity=".98039" offset="1"/>
		</radialGradient>
		<radialGradient id="radialGradient38592" cx="32" cy="32" r="32" gradientTransform="matrix(1.28 0 0 1.28 -8.9611 -8.9611)" gradientUnits="userSpaceOnUse">
			<stop stop-color="#cf408b" offset="0"/>
			<stop stop-color="#9372d7" stop-opacity=".97466" offset="1"/>
		</radialGradient>
	</defs>
	<g>
		<rect width="64" height="64" rx="1" ry="1" fill="url(#radialGradient38592)" paint-order="fill markers stroke"/>
		<path transform="translate(0 .002)" d="M1 0C.446 0 0 .446 0 1v62-.224V63 2h1.752c19.15.002 39.445 0 60.213 0H64v61-.334V63 1a.998.998 0 0 0-1-1z" fill="url(#d)"/>
		<path transform="translate(0 .002)" d="M1 0a.998.998 0 0 0-1 1.006v61.98-.197c0-.277.004-.184.01.246.012.016.03-.297.052-.897v-60c.072-.009.133-.013.185-.013.29-.016.357-.032.774-.044.246-.011.496-.019.747-.019 19.183.002 39.392 0 60.2 0 .346 0 .689.012 1.023.03.268.01.389.02.52.033.106 0 .22.01.427.028v59.744c.027.754.05 1.148.059 1.123l.003-.334v.286V1.21c0-.143 0-.22-.002-.224A.996.996 0 0 0 62.986 0H1" fill="url(#e)"/>
		<path transform="translate(0 .002)" d="M1 0a.998.998 0 0 0-1 1.006v61.966-.169c0-.245.008-.145.021.266.022.034.06-.247.104-.807V2.274a.744.744 0 0 1 .173-.025c.27-.031.341-.064.743-.088.242-.022.492-.037.742-.037 19.217.002 39.34 0 60.187 0 .347 0 .69.024 1.013.06.256.02.372.042.494.065.1 0 .206.02.398.057v59.731c.055.703.102 1.052.119 1.003.004-.154.006-.265.006-.333v.237V1.196c0-.139 0-.215-.003-.224A.994.994 0 0 0 63.19.02a1.025 1.025 0 0 0-.217-.02H1" fill="url(#f)"/>
		<path transform="translate(0 .002)" d="M1 0a.998.998 0 0 0-1 1.005v61.953-.14c0-.213.012-.107.031.287.034.05.091-.198.156-.718V2.413a.45.45 0 0 1 .16-.037c.252-.048.327-.097.715-.132.238-.034.487-.056.737-.056 19.25.002 39.286 0 60.173 0 .348 0 .688.036 1.001.09.244.029.356.062.47.098.091 0 .19.03.37.085v59.718c.082.653.151.957.176.884.007-.152.01-.262.01-.333v.188V1.184c0-.135 0-.21-.004-.224a.992.992 0 0 0-.819-.94 1.041 1.041 0 0 0-.217-.018H.999" fill="url(#g)"/>
		<path transform="translate(0 .002)" d="M1 0a.998.998 0 0 0-1 1.005v61.939-.113c0-.18.015-.068.042.308.045.067.121-.149.208-.629V2.55a.312.312 0 0 1 .148-.05c.232-.063.311-.128.684-.176.234-.044.483-.074.732-.074 19.284.002 39.234 0 60.16 0 .35 0 .689.048.991.12.232.039.34.083.444.13.085 0 .176.04.341.114v59.704c.11.603.203.862.236.764a5.23 5.23 0 0 0 .014-.333v.14V1.168c0-.13-.002-.206-.006-.224a.991.991 0 0 0-.83-.927 1.066 1.066 0 0 0-.22-.017H1" fill="url(#h)"/>
		<path transform="translate(0 .002)" d="M1 0a.998.998 0 0 0-1 1.004V62.93v-.084c0-.148.02-.029.052.328.056.084.152-.099.26-.539V2.686c.053-.04.097-.061.136-.061.212-.08.297-.16.655-.22.23-.056.477-.093.727-.093 19.317.002 39.18 0 60.147 0 .35 0 .688.06.98.151.22.047.322.102.418.162.078 0 .162.049.313.142v59.69c.137.553.253.767.295.645A4.73 4.73 0 0 0 64 62.77v.09V1.155c0-.126-.002-.202-.007-.224a.99.99 0 0 0-.843-.914A1.099 1.099 0 0 0 62.932 0H1" fill="url(#i)"/>
		<path transform="translate(0 .002)" d="M1 0a.998.998 0 0 0-1 1.004v61.912-.056c0-.117.023.01.063.349.067.1.182-.05.312-.45V2.824c.048-.049.088-.074.123-.074.193-.095.282-.192.626-.264.225-.067.472-.11.721-.11h60.133c.352 0 .688.071.97.18a.944.944 0 0 1 .393.194c.07 0 .147.059.284.17V62.6c.164.502.304.671.354.524.014-.14.02-.25.02-.331v.042V1.14c0-.121-.002-.197-.009-.224a.99.99 0 0 0-.854-.902A1.142 1.142 0 0 0 62.918 0H1" fill="url(#j)"/>
		<path transform="translate(0 .002)" d="M1 0a.998.998 0 0 0-1 1.004v61.898-.029c0-.084.027.049.073.37.079.117.212 0 .365-.36V2.96c.043-.057.079-.086.11-.086.174-.112.267-.225.596-.309a2.19 2.19 0 0 1 .717-.129c19.385.002 39.075 0 60.12 0 .353 0 .687.084.958.211a.81.81 0 0 1 .368.227c.063 0 .132.068.256.199v59.665c.192.452.354.576.413.404a3.11 3.11 0 0 0 .024-.33V1.125c0-.117-.004-.193-.01-.224a.99.99 0 0 0-.868-.89A1.198 1.198 0 0 0 62.905 0H1" fill="url(#k)"/>
		<path transform="translate(0 .002)" d="M1 0a.998.998 0 0 0-1 1.003v61.885c0-.052.03.087.084.39.09.135.242.05.416-.27V3.097C.538 3.034.57 3 .599 3c.154-.127.251-.257.566-.352.217-.089.463-.148.711-.148 19.418.002 39.022 0 60.107 0 .355 0 .687.096.947.242a.723.723 0 0 1 .343.258c.056 0 .118.079.227.227v59.651c.22.402.406.482.473.285.018-.132.027-.243.027-.33V1.112c0-.113-.004-.188-.012-.224a.99.99 0 0 0-.879-.877A1.273 1.273 0 0 0 62.891 0H1.001" fill="url(#l)"/>
		<path transform="translate(0 .002)" d="M1 0a.998.998 0 0 0-1 1.003v61.899c0-.02.035.126.094.41.101.152.273.1.468-.18V3.235c.034-.073.062-.11.087-.11.135-.143.236-.29.536-.397.213-.1.459-.166.707-.166 19.452.002 38.969 0 60.093 0 .356 0 .687.108.936.272a.678.678 0 0 1 .317.29c.05 0 .103.089.2.256v59.64c.246.352.455.386.531.165.02-.128.03-.239.03-.33V1.1c0-.108-.004-.184-.013-.224a.99.99 0 0 0-.891-.864 1.376 1.376 0 0 0-.218-.01H1" fill="url(#m)"/>
		<path transform="translate(0 .002)" d="M1 0a.998.998 0 0 0-1 1.002v61.913c0 .013.039.165.105.432.112.168.303.148.52-.092V3.373c.029-.081.053-.123.074-.123.116-.159.222-.321.507-.44a1.52 1.52 0 0 1 .701-.185c19.486.002 38.916 0 60.08 0 .357 0 .687.12.925.302a.66.66 0 0 1 .292.323c.043 0 .089.098.171.284V63.16c.275.302.507.29.591.046.022-.125.034-.236.034-.33V1.085c0-.104-.005-.18-.016-.224a.99.99 0 0 0-.903-.852 1.514 1.514 0 0 0-.218-.008H1" fill="url(#n)"/>
		<path transform="translate(0 .002)" d="M1 0a.998.998 0 0 0-1 1.002V62.93c0 .045.042.203.115.453.123.184.333.197.572-.003V3.51c.024-.089.045-.135.062-.135.097-.174.207-.353.478-.484.204-.122.448-.203.696-.203 19.519.002 38.863 0 60.067 0a1.4 1.4 0 0 1 .914.332c.15.103.224.225.267.355.035 0 .073.108.142.313V63.3c.302.251.557.196.65-.074a1.7 1.7 0 0 0 .037-.33V1.071c0-.1-.006-.175-.017-.224a.99.99 0 0 0-.915-.84A1.712 1.712 0 0 0 62.85 0H1" fill="url(#o)"/>
		<path transform="translate(0 .002)" d="M1 0a.998.998 0 0 0-1 1.002v61.942c0 .077.046.242.126.473.134.201.363.246.624.086V3.647C.77 3.55.785 3.5.8 3.5a.981.981 0 0 1 .447-.529c.2-.133.444-.221.691-.221 19.553.002 38.811 0 60.053 0 .36 0 .686.144.903.362a.688.688 0 0 1 .242.388c.028 0 .059.118.114.341v59.598c.33.2.608.1.709-.194.026-.117.04-.228.04-.329V1.056c0-.095-.006-.17-.018-.224a.991.991 0 0 0-.927-.827A2.015 2.015 0 0 0 62.836 0H1" fill="url(#p)"/>
		<path transform="translate(0 .002)" d="M1 0a.998.998 0 0 0-1 1.001v61.956c0 .11.05.281.136.494.146.218.394.296.677.176V3.784c.014-.105.026-.16.036-.16a.967.967 0 0 1 .419-.572c.196-.144.439-.24.686-.24 19.586.002 38.758 0 60.04 0 .36 0 .685.156.892.392a.73.73 0 0 1 .216.42c.021 0 .044.128.086.37v59.585c.356.15.658.005.768-.314.029-.114.044-.224.044-.328V1.042c0-.09-.007-.166-.02-.224a.992.992 0 0 0-.94-.814 2.524 2.524 0 0 0-.217-.005H1" fill="url(#q)"/>
		<path transform="translate(0 .002)" d="M1 0a.998.998 0 0 0-1 1v61.972c0 .142.054.32.147.515a.643.643 0 0 0 .728.265V3.922c.01-.114.018-.172.025-.172a.97.97 0 0 1 .389-.617c.192-.155.434-.258.68-.258 19.62.002 38.705 0 60.027 0 .362 0 .686.168.882.422a.794.794 0 0 1 .19.453c.015 0 .03.137.057.398V63.72c.385.1.71-.09.828-.434.03-.11.047-.22.047-.328V1.028c0-.086-.007-.161-.021-.224a.994.994 0 0 0-.951-.802A3.563 3.563 0 0 0 62.809 0H1" fill="url(#r)"/>
		<path transform="translate(0 .002)" d="M1 0a.998.998 0 0 0-1 1v61.986c0 .174.058.358.157.535a.802.802 0 0 0 .78.355V4.06c.005-.122.01-.185.013-.185a.987.987 0 0 1 .36-.66c.187-.166.429-.277.675-.277 19.653.002 38.652 0 60.013 0 .363 0 .685.18.87.452a.876.876 0 0 1 .166.485c.007 0 .015.147.028.427V63.86c.412.05.76-.186.887-.553a1.1 1.1 0 0 0 .05-.328V1.014A.996.996 0 0 0 63.014 0a6.67 6.67 0 0 0-.219 0H1" fill="url(#s)"/>
		<path transform="translate(0 .002)" d="M1 0a.998.998 0 0 0-1 1v2h64V1.002a.998.998 0 0 0-1-1H1z" fill="url(#t)"/>
	</g>
	<g fill="#000080" fill-opacity=".027297" opacity=".36613">
		<path d="m31.096 8.498c-13.237 0-23.967 10.839-23.967 24.211 0 0.2089 0.00449 0.4152 0.00977 0.623 6.6e-4 -0.0262 0.00316-0.0519 0.00391-0.0781 0.28861 13.13 10.946 24.038 23.953 24.039 8.6034 0.2583 16.584-3.7894 19.215-10.383-2e-3 9e-4 -0.0038 0.0029-0.0059 0.0039 2.0764-3.3063 3.2812-7.2263 3.2812-11.432 0-2.1537-0.3236-4.2293-0.9102-6.1894 0.0025-5e-4 0.0053 4e-4 0.0078 0-0.0225-0.0755-0.0488-0.1495-0.0722-0.2247-0.0375-0.1203-0.0758-0.2399-0.1153-0.3593-0.0665-0.2015-0.1366-0.4009-0.2089-0.5996 1.9488-0.191 3.7082-1.703 3.6484-4.0743 0.0049-0.0556 0.0065-0.1112 0.0039-0.166-0.0022-0.0709-0.0096-0.1389-0.0234-0.207-0.0749-0.7268-0.3118-1.5229-0.7637-2.3828 0.3248-0.1966 0.5312-0.6095 0.5312-1.0625-7e-4 -0.5932-0.352-1.0933-0.8203-1.168 0.0133-0.2921 0.0256-0.6453 0.0215-1.041-5e-4 -0.0582-0.0047-0.1165-0.0059-0.1758-0.0052-0.2449-0.0154-0.493-0.0352-0.7422-0.0035-0.0448-0.0057-0.0882-0.0098-0.1328-0.0109-0.1185-0.0236-0.2366-0.039-0.3515-0.0077-0.0577-0.0184-0.1117-0.0274-0.168-0.0114-0.0721-0.0215-0.1437-0.0351-0.2129-0.0122-0.0619-0.027-0.1205-0.041-0.1797-0.0152-0.064-0.0315-0.1252-0.0489-0.1855-0.0141-0.0489-0.0272-0.0985-0.0429-0.1446-0.0269-0.0788-0.0582-0.1513-0.0899-0.2207-0.0107-0.0233-0.018-0.052-0.0293-0.0742-0.087-0.171-0.1714-0.3277-0.2597-0.4766-0.4634-0.7822-1.0533-1.3315-2.9219-2.4121-0.3173-0.1834-0.6718-0.3838-1.0684-0.6015h-2e-3c-0.794-0.4358-1.5672-0.7018-2.2793-0.8555-0.3562-0.0769-0.6965-0.1263-1.0176-0.1543-0.9623-0.0837-1.7476 0.0208-2.2207 0.1172-0.313 0.0639-0.4877 0.1241-0.4902 0.125h-2e-3c-4e-4 -4e-4 -0.1064-0.0946-0.1621-0.1426-0.0716-0.0616-0.1072-0.0932-0.2266-0.2012-0.1859-0.1679-0.4-0.3666-0.5449-0.5293-0.0777-0.0872-0.1535-0.1719-0.2305-0.25-0.0654-0.0661-0.133-0.12473-0.2031-0.17768-0.0205-0.01558-0.0413-0.03083-0.0625-0.04493-0.0765-0.05068-0.1556-0.09401-0.2441-0.12109h-2e-3c-0.0981-0.02971-0.206-0.04383-0.3262-0.03516h-2e-3c-0.0393 0.00284-0.0796 0.01706-0.1191 0.03516-0.0125 0.00577-0.0247 0.01244-0.0371 0.01953-0.039 0.02208-0.077 0.0486-0.1153 0.08203l-2e-3 0.00195c-0.2723 0.23899-0.5206 0.72389-0.6445 0.99419-0.4474-0.213-0.9051-0.4066-1.3672-0.5918-0.1305-0.0524-0.2629-0.1004-0.3945-0.1504-0.3681-0.14015-0.74-0.27249-1.1168-0.39455-0.1489-0.04825-0.2972-0.0972-0.4473-0.14258-0.4639-0.14013-0.9329-0.26687-1.4082-0.3789-0.0525-0.01239-0.1036-0.02898-0.1563-0.04102-0.0258-0.0059-0.0522-0.00981-0.0781-0.01563-0.3499-0.07877-0.703-0.14782-1.0586-0.21093-0.1027-0.01822-0.2054-0.03585-0.3086-0.05274-0.3766-0.06173-0.7543-0.11834-1.1367-0.16211h-2e-3c-0.0485-0.00555-0.0978-0.00841-0.1465-0.01367-0.3522-0.0381-0.7078-0.06734-1.0644-0.08984-0.0969-0.00611-0.1938-0.01263-0.291-0.01758-0.4059-0.02065-0.8137-0.0332-1.2246-0.0332z" opacity="1"/>
		<path d="m31.096 8.5243c-13.237 0-23.967 10.839-23.967 24.211 0 0.209 0.00449 0.4152 0.00977 0.6231 6.6e-4 -0.0263 0.00316-0.0519 0.00391-0.0781 0.28861 13.13 10.946 24.038 23.953 24.039 8.6035 0.2583 16.584-3.7894 19.215-10.383-2e-3 1e-3 -0.0038 0.0029-0.0059 0.0039 2.0764-3.3063 3.2812-7.2263 3.2812-11.432 0-2.1537-0.3236-4.2294-0.9102-6.1895h1e-4c0.0025-5e-4 0.0052 5e-4 0.0077 0-0.0225-0.0755-0.0488-0.1495-0.0722-0.2246-0.0375-0.1203-0.0758-0.24-0.1153-0.3594-0.0665-0.2014-0.1366-0.4009-0.2089-0.5996 1.9488-0.1909 3.7082-1.7029 3.6484-4.0742 0.0049-0.0556 0.0065-0.1113 0.0039-0.166-0.0022-0.0709-0.0096-0.139-0.0234-0.2071-0.0749-0.7267-0.3118-1.5229-0.7637-2.3828 0.3248-0.1965 0.5312-0.6095 0.5312-1.0625-7e-4 -0.5931-0.352-1.0933-0.8203-1.1679 0.0133-0.2922 0.0256-0.6453 0.0215-1.041v-1e-4c-5e-4 -0.0582-0.0047-0.1165-0.0059-0.1757-0.0052-0.245-0.0154-0.493-0.0352-0.7422-0.0035-0.0448-0.0057-0.0883-0.0098-0.1328-0.0109-0.1186-0.0236-0.2367-0.039-0.3516-0.0077-0.0577-0.0184-0.1116-0.0274-0.168-0.0114-0.072-0.0215-0.1436-0.0351-0.2129-0.0122-0.0618-0.027-0.1205-0.041-0.1796-0.0152-0.0641-0.0315-0.1253-0.0489-0.1856-0.0141-0.0489-0.0272-0.0984-0.0429-0.1445-0.0269-0.0788-0.0582-0.1513-0.0899-0.2207-0.0107-0.0234-0.018-0.0521-0.0293-0.0742-0.087-0.1711-0.1714-0.3277-0.2597-0.4766-0.4634-0.7823-1.0533-1.3315-2.9219-2.4121-0.3173-0.1834-0.6718-0.3838-1.0684-0.6016h-2e-3c-0.794-0.4357-1.5672-0.7018-2.2793-0.8554-0.3562-0.0769-0.6965-0.1264-1.0176-0.1543-0.9623-0.0838-1.7476 0.0207-2.2207 0.1171-0.313 0.0639-0.4877 0.1242-0.4902 0.125h-2e-3c-5e-4 -4e-4 -0.1064-0.0946-0.1621-0.1425-0.0716-0.0617-0.1072-0.0933-0.2266-0.2012-0.1859-0.1679-0.4-0.3666-0.5449-0.5293-0.0777-0.0873-0.1535-0.1719-0.2305-0.25-0.0654-0.06616-0.133-0.12478-0.2031-0.17773v-1e-5c-0.0205-0.01557-0.0413-0.03082-0.0625-0.04492-0.0765-0.05069-0.1556-0.09401-0.2441-0.12109h-2e-3c-0.0981-0.02971-0.206-0.04383-0.3262-0.03516h-2e-3c-0.0393 0.00284-0.0796 0.01706-0.1191 0.03516-0.0125 0.00577-0.0247 0.01244-0.0371 0.01953-0.039 0.02208-0.077 0.0486-0.1153 0.08203v1e-5l-2e-3 0.00194c-0.2723 0.23904-0.5206 0.72394-0.6445 0.99414-0.4475-0.213-0.9051-0.4065-1.3672-0.5918-0.1305-0.0523-0.2629-0.1003-0.3945-0.1504-0.3681-0.1401-0.74-0.27244-1.1168-0.3945-0.1489-0.04826-0.2972-0.0972-0.4473-0.14258-0.4639-0.14013-0.9329-0.26687-1.4082-0.37891-0.0525-0.01239-0.1036-0.02897-0.1563-0.04101-0.0258-0.0059-0.0522-0.00981-0.0781-0.01563-0.35-0.07877-0.703-0.14782-1.0586-0.21093-0.1027-0.01822-0.2054-0.03585-0.3086-0.05274-0.3766-0.06173-0.7544-0.11834-1.1367-0.16211h-2e-3c-0.0485-0.00555-0.0978-0.00841-0.1465-0.01367-0.3522-0.0381-0.7078-0.06734-1.0644-0.08984-0.0969-0.00611-0.1938-0.01263-0.291-0.01758-0.4059-0.02065-0.8137-0.0332-1.2246-0.0332z" opacity="1"/>
		<path d="m31.096 8.603c-13.237 0-23.967 10.839-23.967 24.211 0 0.2089 0.00449 0.4152 0.00977 0.623 6.6e-4 -0.0262 0.00316-0.0519 0.00391-0.0781 0.28862 13.13 10.946 24.038 23.953 24.039 8.6035 0.2583 16.584-3.7894 19.215-10.383l-1e-4 1e-4c-2e-3 9e-4 -0.0037 0.0028-0.0058 0.0038 2.0764-3.3062 3.2812-7.2262 3.2812-11.432 0-2.1537-0.3236-4.2294-0.9102-6.1894h1e-4c0.0025-5e-4 0.0053 4e-4 0.0077 0v-1e-4c-0.0225-0.0754-0.0488-0.1494-0.0722-0.2246-0.0375-0.1203-0.0758-0.24-0.1153-0.3593-0.0666-0.2015-0.1366-0.4009-0.2089-0.5996 1.9488-0.191 3.7082-1.703 3.6484-4.0743 0.0049-0.0556 0.0065-0.1112 0.0039-0.166-0.0022-0.0709-0.0096-0.139-0.0234-0.207-0.0749-0.7268-0.3118-1.5229-0.7637-2.3828 0.3248-0.1966 0.5312-0.6095 0.5312-1.0625-7e-4 -0.5932-0.352-1.0933-0.8203-1.168 0.0133-0.2921 0.0256-0.6453 0.0215-1.041-5e-4 -0.0582-0.0047-0.1166-0.0059-0.1758-0.0052-0.245-0.0154-0.493-0.0352-0.7422-0.0035-0.0448-0.0057-0.0882-0.0098-0.1328-0.0109-0.1186-0.0236-0.2366-0.039-0.3515v-1e-4c-0.0077-0.0576-0.0184-0.1116-0.0274-0.1679-0.0114-0.0721-0.0215-0.1437-0.0351-0.2129-0.0122-0.0619-0.027-0.1205-0.041-0.1797-0.0152-0.0641-0.0315-0.1252-0.0489-0.1855v-1e-4c-0.0141-0.0488-0.0272-0.0984-0.0429-0.1445-0.0269-0.0788-0.0582-0.1513-0.0899-0.2207-0.0107-0.0233-0.018-0.052-0.0293-0.0742-0.087-0.171-0.1715-0.3277-0.2597-0.4766h-1e-4c-0.4633-0.7823-1.0532-1.3315-2.9218-2.4121-0.3173-0.1834-0.6718-0.3838-1.0684-0.6015h-2e-3c-0.794-0.4358-1.5672-0.7018-2.2793-0.8555-0.3562-0.0769-0.6965-0.1263-1.0176-0.1543-0.9623-0.0837-1.7476 0.0208-2.2207 0.1172-0.313 0.0639-0.4877 0.1241-0.4902 0.125h-2e-3c-7e-4 -6e-4 -0.1064-0.0947-0.1621-0.1426-0.0716-0.0616-0.1072-0.0933-0.2266-0.2012-0.1859-0.1679-0.4-0.3666-0.5449-0.5293-0.0777-0.0872-0.1535-0.1719-0.2305-0.25-0.0654-0.0661-0.133-0.1247-0.2031-0.17769v-1e-5c-0.0205-0.01557-0.0413-0.03081-0.0625-0.04491v-1e-5c-0.0765-0.05068-0.1556-0.09401-0.2441-0.12108h-2e-3v-1e-5c-0.0981-0.02971-0.206-0.04382-0.3262-0.03515h-2e-3c-0.0394 0.00284-0.0796 0.01706-0.1191 0.03516l-1e-4 1e-5c-0.0124 0.00576-0.0246 0.01243-0.037 0.01952l-1e-4 1e-5c-0.0389 0.02207-0.0769 0.04859-0.1152 0.08202v1e-5l-2e-3 0.00194v1e-5c-0.2723 0.23908-0.5206 0.72388-0.6445 0.99418v-1e-4c-0.4475-0.2129-0.9051-0.4065-1.3672-0.5917v-1e-4c-0.1305-0.0523-0.2629-0.1003-0.3945-0.1503-0.3681-0.1402-0.74-0.27249-1.1168-0.39455l-1e-4 -1e-5c-0.1488-0.04825-0.2971-0.0972-0.4472-0.14257-0.4639-0.14014-0.9329-0.26687-1.4082-0.37891-0.0525-0.01239-0.1036-0.02898-0.1563-0.04101v-1e-5c-0.0258-0.00589-0.0523-0.00981-0.0781-0.01562-0.35-0.07877-0.703-0.14782-1.0586-0.21094-0.1027-0.01821-0.2054-0.03584-0.3086-0.05273-0.3766-0.06173-0.7544-0.11834-1.1367-0.16211h-2e-3c-0.0485-0.00555-0.0978-0.00841-0.1465-0.01367-0.3522-0.0381-0.7078-0.06734-1.0644-0.08985-0.097-0.00611-0.1938-0.01263-0.291-0.01757h-1e-4c-0.4058-0.02066-0.8136-0.03321-1.2246-0.03321z" opacity="1"/>
		<path d="m31.096 8.7343c-13.237 0-23.967 10.839-23.967 24.211 0 0.209 0.00449 0.4152 0.00977 0.6231 6.7e-4 -0.0263 0.00316-0.0519 0.00391-0.0782v1e-4c0.28862 13.13 10.946 24.038 23.953 24.039 8.6035 0.2583 16.584-3.7894 19.215-10.383h-1e-4c-2e-3 1e-3 -0.0038 0.0029-0.0058 0.0039 2.0764-3.3063 3.2812-7.2263 3.2812-11.432v-1e-4c0-2.1536-0.3236-4.2293-0.9102-6.1894h1e-4c0.0025-5e-4 0.0053 5e-4 0.0077 0-0.0225-0.0755-0.0488-0.1495-0.0722-0.2246v-1e-4c-0.0375-0.1203-0.0758-0.2399-0.1153-0.3593-0.0666-0.2014-0.1366-0.4009-0.2089-0.5996 1.9489-0.191 3.7082-1.703 3.6484-4.0742v-1e-4c0.0049-0.0555 0.0065-0.1112 0.0039-0.1659v-1e-4c-0.0022-0.0708-0.0096-0.1389-0.0234-0.207-0.0749-0.7268-0.3118-1.5229-0.7637-2.3828 0.3248-0.1965 0.5312-0.6095 0.5312-1.0625-7e-4 -0.5932-0.352-1.0933-0.8203-1.1679v-1e-4c0.0133-0.2921 0.0256-0.6452 0.0215-1.041-5e-4 -0.0582-0.0047-0.1165-0.0059-0.1757v-1e-4c-0.0052-0.2449-0.0154-0.493-0.0352-0.7421v-1e-4c-0.0035-0.0448-0.0057-0.0882-0.0098-0.1327v-1e-4c-0.0109-0.1185-0.0236-0.2366-0.039-0.3515-0.0077-0.0577-0.0184-0.1117-0.0274-0.168-0.0114-0.072-0.0215-0.1436-0.0351-0.2129-0.0122-0.0619-0.027-0.1205-0.041-0.1796l-1e-4 -1e-4c-0.0151-0.064-0.0314-0.1252-0.0488-0.1855-0.0141-0.0489-0.0272-0.0984-0.0429-0.1445v-1e-4c-0.0269-0.0788-0.0582-0.1513-0.0899-0.2206v-1e-4c-0.0107-0.0233-0.018-0.052-0.0293-0.0741v-1e-4c-0.087-0.171-0.1715-0.3276-0.2597-0.4765l-1e-4 -1e-4c-0.4634-0.7822-1.0532-1.3314-2.9218-2.412h-1e-4c-0.3172-0.1835-0.6717-0.3838-1.0683-0.6016h-2e-3c-0.794-0.4357-1.5672-0.7018-2.2793-0.8555-0.3562-0.0769-0.6965-0.1263-1.0176-0.1542v-1e-4c-0.9624-0.0837-1.7476 0.0208-2.2207 0.1172-0.313 0.0639-0.4877 0.1242-0.4902 0.125h-2e-3c-9e-4 -8e-4 -0.1065-0.0947-0.1621-0.1425v-1e-4c-0.0716-0.0616-0.1072-0.0932-0.2266-0.2011-0.1859-0.168-0.4-0.3666-0.5449-0.5293-0.0777-0.0873-0.1535-0.1719-0.2305-0.25-0.0655-0.0662-0.133-0.1248-0.2031-0.1777v-1e-4c-0.0205-0.0155-0.0413-0.0308-0.0625-0.0449-0.0765-0.0507-0.1556-0.09398-0.2441-0.12106h-2e-3l-1e-4 -1e-5c-0.098-0.0297-0.2059-0.04382-0.3261-0.03514h-2e-3c-0.0394 0.00284-0.0796 0.01706-0.1191 0.03515l-1e-4 2e-5c-0.0124 0.00577-0.0246 0.01243-0.037 0.01951l-1e-4 2e-5c-0.0389 0.02208-0.0769 0.04859-0.1152 0.08201l-2e-3 2e-3c-0.2723 0.239-0.5206 0.7239-0.6445 0.9941h-1e-4c-0.4474-0.213-0.905-0.4065-1.3671-0.5918-0.1305-0.0524-0.2629-0.1003-0.3945-0.1504h-1e-4c-0.368-0.1401-0.7399-0.2725-1.1167-0.39451l-1e-4 -1e-5c-0.1489-0.04825-0.2971-0.09719-0.4472-0.14256v-1e-5c-0.464-0.14013-0.9329-0.26687-1.4082-0.3789l-1e-4 -1e-5c-0.0525-0.01239-0.1035-0.02897-0.1562-0.04101v-1e-5c-0.0258-0.00589-0.0523-0.0098-0.0781-0.01561v-1e-5c-0.35-0.07877-0.703-0.14781-1.0586-0.21093v-1e-5c-0.1027-0.01821-0.2055-0.03583-0.3086-0.05272v-1e-5c-0.3767-0.06173-0.7544-0.11834-1.1367-0.1621h-2e-3v-1e-5c-0.0486-0.00555-0.0978-0.0084-0.1465-0.01366v-1e-5c-0.3522-0.03809-0.7078-0.06734-1.0644-0.08984h-1e-4c-0.0969-0.00611-0.1937-0.01263-0.2909-0.01758h-1e-4c-0.4058-0.02065-0.8137-0.0332-1.2246-0.0332z" opacity="1"/>
		<path d="m31.096 8.918c-13.237 0-23.967 10.839-23.967 24.211 0 0.2089 0.00449 0.4152 0.00977 0.623 6.7e-4 -0.0262 0.00316-0.0519 0.00391-0.0781 0.28863 13.13 10.946 24.038 23.953 24.039l1e-4 1e-4c8.6034 0.2583 16.584-3.7895 19.215-10.383l-1e-4 1e-4c-2e-3 9e-4 -0.0038 0.0028-0.0058 0.0038 2.0764-3.3063 3.2812-7.2263 3.2812-11.432v-1e-4c0-2.1536-0.3236-4.2293-0.9102-6.1894h1e-4c0.0025-4e-4 0.0053 5e-4 0.0077 0-0.0225-0.0755-0.0488-0.1495-0.0722-0.2246v-1e-4c-0.0375-0.1202-0.0758-0.2399-0.1153-0.3592v-1e-4c-0.0666-0.2014-0.1366-0.4009-0.2089-0.5996 1.9489-0.1909 3.7082-1.7029 3.6484-4.0742v-1e-4c0.0049-0.0555 0.0065-0.1112 0.0039-0.1659-0.0022-0.0709-0.0096-0.139-0.0234-0.207v-1e-4c-0.0749-0.7267-0.3118-1.5229-0.7637-2.3827v-1e-4c0.3248-0.1965 0.5312-0.6095 0.5312-1.0624v-1e-4c-8e-4 -0.5931-0.352-1.0933-0.8203-1.1679v-1e-4c0.0133-0.2921 0.0256-0.6452 0.0215-1.0409v-1e-4c-5e-4 -0.0582-0.0047-0.1165-0.0059-0.1757v-1e-4c-0.0052-0.2449-0.0154-0.4929-0.0352-0.7421-0.0035-0.0448-0.0057-0.0883-0.0098-0.1328v-1e-4c-0.0109-0.1185-0.0236-0.2366-0.039-0.3515-0.0077-0.0577-0.0184-0.1116-0.0274-0.1679v-1e-4c-0.0114-0.072-0.0215-0.1436-0.0351-0.2128v-1e-4c-0.0122-0.0619-0.027-0.1205-0.041-0.1796l-1e-4 -1e-4c-0.0151-0.064-0.0314-0.1252-0.0488-0.1855-0.0141-0.0489-0.0272-0.0984-0.0429-0.1445h-1e-4c-0.0268-0.0788-0.0581-0.1513-0.0898-0.2207v-1e-4c-0.0107-0.0233-0.018-0.0519-0.0293-0.0741v-1e-4c-0.0871-0.171-0.1715-0.3276-0.2597-0.4765h-1e-4c-0.4634-0.7823-1.0533-1.3315-2.9218-2.4121h-1e-4c-0.3172-0.1834-0.6717-0.3838-1.0683-0.6015h-2e-3l-1e-4 -1e-4c-0.794-0.4357-1.5671-0.7017-2.2792-0.8554-0.3562-0.0769-0.6965-0.1263-1.0176-0.1543-0.9624-0.0837-1.7476 0.0208-2.2207 0.1172-0.313 0.0639-0.4877 0.1241-0.4902 0.125h-2e-3l-1e-4 -1e-4c-0.0012-1e-3 -0.1065-0.0947-0.162-0.1425h-1e-4c-0.0715-0.0617-0.1071-0.0933-0.2265-0.2012-0.186-0.1679-0.4-0.3666-0.5449-0.5293-0.0778-0.0873-0.1535-0.1719-0.2305-0.25-0.0655-0.0661-0.133-0.1248-0.2031-0.1777-0.0206-0.0156-0.0413-0.0308-0.0625-0.0449v-1e-4c-0.0765-0.0506-0.1556-0.0939-0.2441-0.121h-0.0021c-0.0981-0.0297-0.2059-0.0438-0.3261-0.0352h-2e-3c-0.0394 0.0029-0.0796 0.0171-0.1191 0.0352h-1e-4c-0.0124 0.0058-0.0247 0.0124-0.037 0.0195h-1e-4c-0.0389 0.0221-0.0769 0.0486-0.1152 0.082v1e-4l-2e-3 0.0019c-0.2723 0.2391-0.5206 0.7239-0.6445 0.9941h-1e-4c-0.4474-0.2129-0.905-0.4065-1.3671-0.5918h-1e-4c-0.1305-0.0523-0.2628-0.1003-0.3944-0.1503l-1e-4 -1e-4c-0.3681-0.1401-0.7399-0.2724-1.1168-0.3945-0.1489-0.0482-0.2971-0.09717-0.4472-0.14254l-1e-4 -1e-5c-0.4639-0.14013-0.9329-0.26687-1.4081-0.3789l-1e-4 -1e-5c-0.0525-0.01239-0.1035-0.02897-0.1562-0.041v-2e-5c-0.0258-0.00589-0.0523-0.0098-0.0781-0.01561l-1e-4 -1e-5c-0.3499-0.07877-0.703-0.14781-1.0585-0.21092l-1e-4 -2e-5c-0.1026-0.01821-0.2054-0.03583-0.3085-0.05272l-1e-4 -1e-5c-0.3766-0.06173-0.7543-0.11833-1.1366-0.1621h-2e-3l-1e-4 -1e-5c-0.0485-0.00554-0.0978-0.0084-0.1464-0.01366l-1e-4 -1e-5c-0.3522-0.03809-0.7077-0.06733-1.0643-0.08983l-1e-4 -1e-5c-0.0969-0.00611-0.1938-0.01263-0.291-0.01757v-1e-5c-0.4058-0.02065-0.8137-0.03319-1.2246-0.03319z" opacity="1"/>
		<path d="m31.096 9.1543c-13.237 0-23.967 10.839-23.967 24.211v1e-4c0 0.2089 0.00449 0.4151 0.00977 0.623v-1e-4c6.7e-4 -0.0262 0.00316-0.0519 0.00391-0.0781v1e-4c0.28864 13.13 10.946 24.038 23.953 24.039h1e-4c8.6034 0.2583 16.584-3.7894 19.215-10.383h-1e-4c-2e-3 1e-3 -0.0038 0.0029-0.0058 0.0039v-1e-4c2.0764-3.3063 3.2812-7.2263 3.2812-11.432 0-2.1537-0.3236-4.2293-0.9102-6.1894h1e-4c0.0025-5e-4 0.0053 5e-4 0.0077 0v-1e-4c-0.0225-0.0755-0.0489-0.1494-0.0722-0.2245l-1e-4 -2e-4c-0.0374-0.1202-0.0757-0.2399-0.1152-0.3592v-1e-4c-0.0666-0.2014-0.1366-0.4008-0.2089-0.5995h1e-4c1.9488-0.191 3.7081-1.703 3.6483-4.0742v-2e-4c0.0049-0.0555 0.0065-0.1111 0.0039-0.1658v-1e-4c-0.0022-0.0709-0.0096-0.1389-0.0234-0.207l-1e-4 -1e-4c-0.0748-0.7267-0.3117-1.5228-0.7636-2.3827h1e-4c0.3247-0.1966 0.5311-0.6095 0.5311-1.0625v-1e-4c-8e-4 -0.5931-0.352-1.0932-0.8203-1.1679 0.0133-0.2922 0.0256-0.6453 0.0215-1.041v-1e-4c-5e-4 -0.0582-0.0047-0.1165-0.0059-0.1757v-1e-4c-0.0052-0.2449-0.0154-0.4929-0.0352-0.742v-1e-4c-0.0035-0.0448-0.0057-0.0882-0.0098-0.1328v-1e-4c-0.0109-0.1185-0.0236-0.2365-0.039-0.3514v-1e-4c-0.0077-0.0577-0.0184-0.1116-0.0274-0.1679v-1e-4c-0.0114-0.072-0.0215-0.1436-0.0351-0.2128v-1e-4c-0.0122-0.0619-0.027-0.1204-0.041-0.1796l-1e-4 -1e-4c-0.0151-0.064-0.0314-0.1251-0.0488-0.1854v-1e-4c-0.0141-0.0489-0.0272-0.0984-0.0429-0.1444l-1e-4 -1e-4c-0.0268-0.0788-0.0581-0.1513-0.0898-0.2206v-1e-4c-0.0107-0.0234-0.018-0.052-0.0293-0.0742v-1e-4c-0.0871-0.1709-0.1715-0.3276-0.2597-0.4764l-1e-4 -1e-4c-0.4634-0.7823-1.0533-1.3315-2.9218-2.412l-1e-4 -1e-4c-0.3172-0.1834-0.6717-0.3837-1.0683-0.6015h-2e-3l-1e-4 -1e-4c-0.794-0.4357-1.5671-0.7017-2.2792-0.8554h-1e-4c-0.3561-0.0769-0.6964-0.1263-1.0175-0.1543h-1e-4c-0.9623-0.0837-1.7475 0.0208-2.2206 0.1172-0.313 0.0639-0.4877 0.1242-0.4902 0.125h-2e-3l-1e-4 -1e-4c-0.0016-0.0014-0.1066-0.0948-0.162-0.1425h-1e-4c-0.0715-0.0616-0.1071-0.0933-0.2265-0.2011l-1e-4 -1e-4c-0.1859-0.1679-0.3999-0.3666-0.5448-0.5292l-1e-4 -1e-4c-0.0777-0.0872-0.1534-0.1719-0.2304-0.2499v-1e-4c-0.0655-0.0661-0.133-0.1247-0.2031-0.1777h-1e-4c-0.0205-0.0156-0.0412-0.0308-0.0624-0.0449h-1e-4c-0.0764-0.0507-0.1556-0.094-0.244-0.1211h-0.0021c-0.0981-0.0297-0.2059-0.0438-0.3261-0.0351h-0.0021c-0.0393 0.0028-0.0796 0.017-0.119 0.0351l-1e-4 1e-4c-0.0124 0.0057-0.0247 0.0124-0.037 0.0195h-1e-4c-0.0389 0.0221-0.0769 0.0486-0.1152 0.082l-1e-4 1e-4 -0.0019 0.0018-1e-4 1e-4c-0.2723 0.2391-0.5205 0.7239-0.6444 0.9941l-1e-4 -1e-4c-0.4474-0.2129-0.905-0.4064-1.3671-0.5917l-1e-4 -1e-4c-0.1305-0.0523-0.2629-0.1002-0.3944-0.1503h-1e-4c-0.3681-0.1401-0.74-0.2725-1.1168-0.3945h-1e-4c-0.1488-0.0483-0.297-0.0972-0.4471-0.1426h-1e-4c-0.4639-0.1401-0.9329-0.26687-1.4081-0.3789l-2e-4 -3e-5c-0.0524-0.01239-0.1035-0.02896-0.1561-0.04099l-1e-4 -3e-5c-0.0258-0.00588-0.0522-0.00979-0.078-0.01559l-1e-4 -3e-5c-0.35-0.07876-0.703-0.1478-1.0585-0.21091l-1e-4 -2e-5c-0.1027-0.01821-0.2054-0.03583-0.3085-0.05272l-1e-4 -1e-5c-0.3766-0.06173-0.7543-0.11833-1.1366-0.16209h-2e-3l-1e-4 -2e-5c-0.0485-0.00554-0.0978-0.0084-0.1464-0.01366l-1e-4 -1e-5c-0.3522-0.03809-0.7077-0.06733-1.0644-0.08983l-1e-4 -1e-5c-0.0969-0.0061-0.1937-0.01262-0.2909-0.01757h-1e-4c-0.4058-0.02065-0.8136-0.0332-1.2245-0.0332z" opacity="1"/>
		<path d="m31.096 9.443c-13.237 0-23.967 10.839-23.967 24.211 0 0.2089 0.00449 0.4152 0.00977 0.623v-1e-4c6.7e-4 -0.0262 0.00316-0.0518 0.00391-0.078v1e-4c0.28866 13.13 10.946 24.038 23.953 24.039h1e-4c8.6034 0.2583 16.584-3.7894 19.215-10.383l-1e-4 1e-4c-2e-3 9e-4 -0.0038 0.0028-0.0058 0.0038l1e-4 -2e-4c2.0763-3.3062 3.2811-7.2261 3.2811-11.431v-1e-4c0-2.1537-0.3236-4.2293-0.9102-6.1894h2e-4c0.0024-4e-4 0.0052 5e-4 0.0076 0v-1e-4c-0.0226-0.0754-0.0489-0.1494-0.0722-0.2245l-1e-4 -2e-4c-0.0374-0.1202-0.0757-0.2398-0.1152-0.3592v-1e-4c-0.0666-0.2014-0.1367-0.4008-0.2089-0.5995h2e-4c1.9488-0.191 3.708-1.703 3.6482-4.0742v-2e-4c0.0049-0.0555 0.0065-0.1111 0.0039-0.1658v-1e-4c-0.0022-0.0709-0.0096-0.1389-0.0234-0.2069l-1e-4 -2e-4c-0.0748-0.7267-0.3117-1.5228-0.7636-2.3826l1e-4 -1e-4c0.3247-0.1966 0.5311-0.6095 0.5311-1.0624v-2e-4c-8e-4 -0.5931-0.352-1.0932-0.8203-1.1678v-1e-4c0.0133-0.2921 0.0256-0.6452 0.0215-1.0409v-2e-4c-5e-4 -0.0582-0.0047-0.1164-0.0059-0.1756v-2e-4c-0.0052-0.2449-0.0154-0.4929-0.0352-0.742v-1e-4c-0.0035-0.0448-0.0057-0.0882-0.0098-0.1327v-2e-4c-0.0109-0.1185-0.0236-0.2365-0.039-0.3514v-2e-4c-0.0077-0.0576-0.0184-0.1115-0.0274-0.1677v-2e-4c-0.0114-0.072-0.0215-0.1435-0.0351-0.2127l-1e-4 -2e-4c-0.0121-0.0619-0.027-0.1204-0.0409-0.1795l-1e-4 -2e-4c-0.0151-0.064-0.0314-0.1251-0.0488-0.1854v-1e-4c-0.0141-0.0489-0.0272-0.0983-0.0429-0.1444l-1e-4 -1e-4c-0.0268-0.0788-0.0581-0.1513-0.0898-0.2206v-2e-4c-0.0107-0.0233-0.018-0.0519-0.0293-0.074v-2e-4c-0.0871-0.1709-0.1715-0.3275-0.2597-0.4764l-1e-4 -1e-4c-0.4634-0.7823-1.0533-1.3315-2.9218-2.412l-1e-4 -1e-4c-0.3173-0.1834-0.6717-0.3837-1.0683-0.6015h-0.0021c-0.794-0.4357-1.5672-0.7018-2.2792-0.8554l-1e-4 -1e-4c-0.3561-0.0768-0.6964-0.1263-1.0175-0.1542h-2e-4c-0.9622-0.0837-1.7475 0.0208-2.2205 0.1172h-1e-4c-0.3129 0.0639-0.4876 0.1241-0.4901 0.125h-2e-3l-2e-4 -2e-4c-0.0021-0.0019-0.1067-0.0949-0.1619-0.1424l-1e-4 -1e-4c-0.0715-0.0616-0.1072-0.0932-0.2265-0.2011l-1e-4 -1e-4c-0.1859-0.1679-0.3999-0.3666-0.5448-0.5292l-1e-4 -1e-4c-0.0777-0.0872-0.1534-0.1718-0.2304-0.2499l-1e-4 -1e-4c-0.0654-0.0661-0.1329-0.1247-0.203-0.1776l-1e-4 -1e-4c-0.0205-0.0156-0.0412-0.0308-0.0624-0.0448l-1e-4 -1e-4c-0.0765-0.0507-0.1556-0.094-0.244-0.121h-2e-3l-2e-4 -1e-4c-0.098-0.0297-0.2059-0.0438-0.326-0.0351h-0.0021c-0.0393 0.0029-0.0796 0.0171-0.119 0.0352h-2e-4c-0.0124 0.0058-0.0246 0.0124-0.0369 0.0195l-2e-4 1e-4c-0.0388 0.022-0.0768 0.0485-0.1151 0.0819l-1e-4 2e-4 -0.0019 0.0018-1e-4 1e-4c-0.2723 0.2391-0.5205 0.7238-0.6444 0.994l-2e-4 -1e-4c-0.4474-0.2129-0.9049-0.4064-1.367-0.5917l-2e-4 -1e-4c-0.1304-0.0523-0.2628-0.1002-0.3943-0.1503h-2e-4c-0.368-0.1401-0.7399-0.2724-1.1167-0.3945h-1e-4c-0.1489-0.0483-0.297-0.0972-0.4472-0.1426-0.4639-0.1401-0.9329-0.2668-1.4082-0.3789h-1e-4c-0.0525-0.0124-0.1035-0.029-0.1561-0.041h-2e-4c-0.0257-0.0059-0.0521-0.0098-0.0779-0.0156h-2e-4c-0.3499-0.07879-0.7029-0.14783-1.0584-0.21094l-2e-4 -3e-5c-0.1026-0.01821-0.2053-0.03582-0.3084-0.0527l-2e-4 -3e-5c-0.3766-0.06172-0.7543-0.11832-1.1365-0.16208h-2e-3l-2e-4 -2e-5c-0.0485-0.00555-0.0977-0.0084-0.1463-0.01365l-2e-4 -2e-5c-0.3522-0.03809-0.7077-0.06733-1.0643-0.08983l-1e-4 -1e-5c-0.0969-0.0061-0.1937-0.01262-0.2909-0.01757l-2e-4 -1e-5c-0.4057-0.02064-0.8135-0.03319-1.2244-0.03319z" opacity="1"/>
		<path d="m31.096 9.7842c-13.237 0-23.967 10.839-23.967 24.211v1e-4c0 0.2089 0.00449 0.4151 0.00977 0.6229v-1e-4c6.7e-4 -0.0262 0.00316-0.0518 0.00391-0.078v1e-4c0.28867 13.13 10.946 24.038 23.953 24.039h2e-4c8.6033 0.2583 16.584-3.7895 19.215-10.383h-2e-4c-0.0019 1e-3 -0.0037 0.0029-0.0057 0.0039l1e-4 -3e-4c2.0763-3.3062 3.2811-7.2261 3.2811-11.431v-1e-4c0-2.1537-0.3236-4.2293-0.9102-6.1893l2e-4 -1e-4c0.0025-4e-4 0.0052 5e-4 0.0076 1e-4v-2e-4c-0.0226-0.0754-0.0489-0.1494-0.0722-0.2244l-1e-4 -3e-4c-0.0374-0.1202-0.0757-0.2398-0.1152-0.3591v-2e-4c-0.0666-0.2014-0.1367-0.4008-0.2089-0.5994l2e-4 -1e-4c1.9488-0.191 3.708-1.703 3.6482-4.0741v-3e-4c0.0049-0.0555 0.0065-0.1111 0.0039-0.1658v-1e-4c-0.0022-0.0709-0.0096-0.1389-0.0234-0.2069l-1e-4 -2e-4c-0.0748-0.7267-0.3117-1.5228-0.7636-2.3826l2e-4 -1e-4c0.3246-0.1966 0.531-0.6095 0.531-1.0624v-2e-4c-8e-4 -0.5931-0.352-1.0931-0.8203-1.1678v-1e-4c0.0133-0.2921 0.0256-0.6452 0.0215-1.0409v-3e-4c-5e-4 -0.0581-0.0047-0.1163-0.0059-0.1755v-2e-4c-0.0052-0.2449-0.0154-0.4929-0.0352-0.742v-2e-4c-0.0035-0.0447-0.0057-0.0881-0.0098-0.1326v-2e-4c-0.0109-0.1185-0.0236-0.2365-0.039-0.3513l-1e-4 -3e-4c-0.0076-0.0576-0.0183-0.1115-0.0273-0.1677v-2e-4c-0.0114-0.072-0.0215-0.1435-0.0351-0.2127l-1e-4 -3e-4c-0.0121-0.0618-0.027-0.1203-0.0409-0.1794l-1e-4 -3e-4c-0.0151-0.0639-0.0314-0.125-0.0488-0.1852v-2e-4c-0.0141-0.0489-0.0273-0.0983-0.0429-0.1444l-1e-4 -1e-4c-0.0268-0.0788-0.0581-0.1512-0.0898-0.2206l-1e-4 -2e-4c-0.0106-0.0233-0.0179-0.0519-0.0292-0.074l-1e-4 -2e-4c-0.087-0.1709-0.1714-0.3275-0.2596-0.4763l-2e-4 -3e-4c-0.4633-0.7821-1.0533-1.3314-2.9217-2.4119l-2e-4 -1e-4c-0.3172-0.1833-0.6716-0.3837-1.0682-0.6014h-2e-3l-2e-4 -1e-4c-0.794-0.4357-1.5671-0.7017-2.2791-0.8554h-2e-4c-0.3561-0.0769-0.6963-0.1263-1.0174-0.1543h-2e-4c-0.9623-0.0837-1.7475 0.0208-2.2205 0.1172h-1e-4c-0.3129 0.0639-0.4876 0.1242-0.4901 0.125h-2e-3l-2e-4 -2e-4c-0.0027-0.0024-0.1068-0.095-0.1619-0.1424l-2e-4 -1e-4c-0.0714-0.0616-0.1071-0.0932-0.2264-0.201l-2e-4 -2e-4c-0.1859-0.1679-0.3998-0.3665-0.5447-0.5291l-2e-4 -2e-4c-0.0776-0.0872-0.1533-0.1718-0.2303-0.2498l-1e-4 -2e-4c-0.0654-0.0661-0.1329-0.1247-0.203-0.1776l-2e-4 -1e-4c-0.0204-0.0155-0.0411-0.0307-0.0623-0.0448l-2e-4 -1e-4c-0.0764-0.0507-0.1555-0.0939-0.2439-0.121h-2e-3l-2e-4 -1e-4c-0.0981-0.0296-0.2059-0.0437-0.326-0.035h-0.0022c-0.0393 0.0028-0.0795 0.017-0.1189 0.0351l-3e-4 1e-4c-0.0123 0.0058-0.0245 0.0124-0.0368 0.0194l-2e-4 1e-4c-0.0389 0.0221-0.0768 0.0486-0.1151 0.082l-2e-4 2e-4 -0.0018 0.0017-1e-4 2e-4c-0.2723 0.239-0.5205 0.7238-0.6444 0.994l-3e-4 -2e-4c-0.4473-0.2129-0.9048-0.4064-1.3669-0.5916l-3e-4 -1e-4c-0.1304-0.0523-0.2627-0.1003-0.3942-0.1503l-2e-4 -1e-4c-0.3681-0.1401-0.7399-0.2724-1.1167-0.3944l-2e-4 -1e-4c-0.1488-0.0482-0.297-0.0972-0.4471-0.1425l-1e-4 -1e-4c-0.4639-0.1401-0.9328-0.2668-1.4081-0.3788l-2e-4 -1e-4c-0.0525-0.0124-0.1034-0.0289-0.156-0.0409l-3e-4 -1e-4c-0.0257-0.0059-0.0521-0.0098-0.0778-0.0156h-2e-4c-0.35-0.0788-0.703-0.1478-1.0584-0.2109h-3e-4c-0.1026-0.0182-0.2053-0.0359-0.3083-0.0527l-2e-4 -1e-4c-0.3766-0.0617-0.7543-0.11828-1.1366-0.16204h-2e-3l-2e-4 -3e-5c-0.0485-0.00554-0.0977-0.00839-0.1462-0.01364l-2e-4 -3e-5c-0.3522-0.03808-0.7077-0.06732-1.0643-0.08982l-2e-4 -1e-5c-0.0969-0.00611-0.1937-0.01262-0.2908-0.01757l-2e-4 -1e-5c-0.4058-0.02064-0.8136-0.03319-1.2244-0.03319z" opacity="1"/>
		<path d="m31.096 10.178c-13.237 0-23.967 10.839-23.967 24.211v2e-4c0 0.2089 0.00449 0.4151 0.00977 0.6229v-2e-4c6.7e-4 -0.0262 0.00316-0.0518 0.00391-0.078v2e-4c0.28869 13.13 10.946 24.037 23.953 24.039h2e-4c8.6034 0.2583 16.584-3.7894 19.215-10.383l-2e-4 1e-4c-2e-3 1e-3 -0.0037 0.0028-0.0057 0.0038l1e-4 -3e-4c2.0763-3.3062 3.2811-7.2261 3.2811-11.431v-2e-4c0-2.1537-0.3236-4.2293-0.9102-6.1893h3e-4c0.0024-4e-4 0.0051 5e-4 0.0075 0v-2e-4c-0.0226-0.0754-0.0489-0.1494-0.0722-0.2244l-1e-4 -4e-4c-0.0374-0.1202-0.0757-0.2397-0.1152-0.359l-1e-4 -3e-4c-0.0665-0.2013-0.1366-0.4007-0.2088-0.5993h3e-4c1.9488-0.1911 3.7079-1.7031 3.6481-4.0742v-3e-4c0.0049-0.0555 0.0065-0.1111 0.0039-0.1657v-2e-4c-0.0022-0.0709-0.0096-0.1389-0.0234-0.2069l-1e-4 -2e-4c-0.0748-0.7267-0.3117-1.5228-0.7636-2.3826l2e-4 -1e-4c0.3247-0.1966 0.531-0.6095 0.531-1.0624v-2e-4c-8e-4 -0.5931-0.3521-1.0931-0.8203-1.1677v-3e-4c0.0133-0.292 0.0256-0.6451 0.0215-1.0408v-3e-4c-5e-4 -0.0581-0.0047-0.1163-0.0059-0.1754v-4e-4c-0.0052-0.2448-0.0154-0.4928-0.0352-0.7418v-3e-4c-0.0035-0.0447-0.0057-0.0881-0.0098-0.1325v-4e-4c-0.0109-0.1184-0.0237-0.2364-0.039-0.3512l-1e-4 -3e-4c-0.0077-0.0576-0.0183-0.1115-0.0273-0.1677v-2e-4c-0.0114-0.072-0.0215-0.1435-0.0351-0.2127l-1e-4 -3e-4c-0.0121-0.0618-0.027-0.1203-0.0409-0.1793l-1e-4 -4e-4c-0.0151-0.0639-0.0314-0.125-0.0488-0.1852l-1e-4 -3e-4c-0.014-0.0488-0.0272-0.0982-0.0428-0.1442l-1e-4 -3e-4c-0.0268-0.0787-0.0581-0.1511-0.0898-0.2204l-1e-4 -3e-4c-0.0106-0.0233-0.0179-0.0518-0.0292-0.0739l-1e-4 -3e-4c-0.087-0.1709-0.1714-0.3275-0.2596-0.4763l-2e-4 -3e-4c-0.4634-0.7821-1.0533-1.3314-2.9217-2.4118l-3e-4 -2e-4c-0.3172-0.1833-0.6716-0.3837-1.0681-0.6014h-2e-3l-3e-4 -1e-4c-0.7939-0.4357-1.567-0.7017-2.279-0.8554h-2e-4c-0.3561-0.0769-0.6964-0.1263-1.0174-0.1542l-3e-4 -1e-4c-0.9622-0.0837-1.7474 0.0208-2.2204 0.1172l-2e-4 1e-4c-0.3129 0.0639-0.4875 0.1241-0.49 0.1249h-2e-3l-3e-4 -2e-4c-0.0034-3e-3 -0.1069-0.0951-0.1618-0.1423l-2e-4 -2e-4c-0.0714-0.0616-0.1071-0.0932-0.2264-0.201l-2e-4 -3e-4c-0.1859-0.1678-0.3998-0.3664-0.5447-0.529l-2e-4 -3e-4c-0.0777-0.0871-0.1533-0.1717-0.2303-0.2497l-1e-4 -2e-4c-0.0655-0.0661-0.1329-0.1246-0.203-0.1775l-2e-4 -2e-4c-0.0205-0.0155-0.0412-0.0307-0.0623-0.0448l-2e-4 -1e-4c-0.0764-0.0506-0.1555-0.0939-0.2439-0.121h-0.0023c-0.098-0.0297-0.2058-0.0438-0.3259-0.0351h-0.0022c-0.0393 0.0029-0.0795 0.0171-0.1189 0.0351l-3e-4 2e-4c-0.0124 0.0057-0.0245 0.0123-0.0368 0.0194l-3e-4 1e-4c-0.0388 0.0221-0.0767 0.0485-0.115 0.0819l-2e-4 3e-4 -0.0018 0.0017-2e-4 1e-4c-0.2722 0.2391-0.5204 0.7238-0.6443 0.994l-3e-4 -1e-4c-0.4474-0.213-0.9049-0.4064-1.3669-0.5917l-4e-4 -1e-4c-0.1304-0.0523-0.2626-0.1002-0.3941-0.1503l-3e-4 -1e-4c-0.3681-0.1401-0.7399-0.2724-1.1166-0.3944l-2e-4 -1e-4c-0.1489-0.0482-0.297-0.0971-0.4471-0.1425h-2e-4c-0.4638-0.1401-0.9328-0.2669-1.408-0.3789l-3e-4 -1e-4c-0.0524-0.0123-0.1034-0.0289-0.1559-0.0409l-3e-4 -1e-4c-0.0258-0.0058-0.0521-0.0097-0.0779-0.0155l-2e-4 -1e-4c-0.3499-0.0787-0.7029-0.1478-1.0584-0.2109h-3e-4c-0.1026-0.0182-0.2052-0.0358-0.3083-0.0527h-2e-4c-0.3766-0.0618-0.7542-0.1183-1.1365-0.1621h-0.0023c-0.0484-0.0056-0.0976-0.0084-0.1462-0.0137h-2e-4c-0.3522-0.0381-0.7077-0.0673-1.0642-0.0898h-3e-4c-0.0968-0.0061-0.1936-0.0127-0.2907-0.0176h-3e-4c-0.4058-0.0207-0.8135-0.0332-1.2243-0.0332z" opacity="1"/>
		<path d="m31.096 10.624c-13.237 0-23.967 10.839-23.967 24.211v2e-4c0 0.2088 0.00449 0.415 0.00977 0.6228v-2e-4c6.8e-4 -0.0262 0.00316-0.0518 0.00391-0.0779v2e-4c0.28872 13.13 10.946 24.037 23.953 24.039h3e-4c8.6033 0.2583 16.584-3.7894 19.215-10.383l-3e-4 2e-4c-0.0019 9e-4 -0.0036 0.0028-0.0056 0.0037l2e-4 -4e-4c2.0763-3.3062 3.281-7.226 3.281-11.431v-3e-4c0-2.1535-0.3236-4.2291-0.9102-6.1892h3e-4c0.0025-4e-4 0.0051 5e-4 0.0075 0v-2e-4c-0.0226-0.0754-0.0489-0.1493-0.0722-0.2244l-2e-4 -4e-4c-0.0374-0.1202-0.0756-0.2397-0.1151-0.3589l-1e-4 -4e-4c-0.0665-0.2013-0.1366-0.4007-0.2088-0.5993h4e-4c1.9487-0.1911 3.7077-1.7031 3.648-4.0742v-4e-4c0.0049-0.0555 0.0065-0.111 0.0039-0.1656v-3e-4c-0.0022-0.0708-0.0096-0.1388-0.0234-0.2067l-1e-4 -4e-4c-0.0749-0.7266-0.3118-1.5227-0.7636-2.3824l3e-4 -2e-4c0.3246-0.1966 0.5309-0.6095 0.5309-1.0623v-3e-4c-8e-4 -0.5931-0.3521-1.0931-0.8203-1.1677v-3e-4c0.0133-0.2921 0.0256-0.6451 0.0215-1.0407v-5e-4c-5e-4 -0.058-0.0047-0.1162-0.0059-0.1753v-5e-4c-0.0052-0.2448-0.0154-0.4927-0.0352-0.7417v-3e-4c-0.0035-0.0447-0.0057-0.0881-0.0098-0.1325v-4e-4c-0.0109-0.1185-0.0237-0.2364-0.039-0.3512l-1e-4 -4e-4c-0.0077-0.0575-0.0183-0.1114-0.0273-0.1675v-3e-4c-0.0114-0.072-0.0215-0.1435-0.0351-0.2126l-1e-4 -5e-4c-0.0121-0.0617-0.027-0.1202-0.0409-0.1792l-2e-4 -5e-4c-0.015-0.0639-0.0313-0.1249-0.0487-0.1851l-1e-4 -3e-4c-0.0141-0.0488-0.0272-0.0982-0.0428-0.1442l-1e-4 -3e-4c-0.0268-0.0787-0.0581-0.1511-0.0898-0.2204l-1e-4 -3e-4c-0.0107-0.0233-0.0179-0.0518-0.0292-0.0739l-1e-4 -3e-4c-0.087-0.1709-0.1714-0.3275-0.2596-0.4763l-3e-4 -3e-4c-0.4633-0.7821-1.0533-1.3314-2.9216-2.4118l-3e-4 -2e-4c-0.3172-0.1833-0.6716-0.3836-1.0681-0.6013h-2e-3l-3e-4 -2e-4c-0.794-0.4357-1.567-0.7017-2.279-0.8553l-3e-4 -1e-4c-0.3561-0.0768-0.6963-0.1263-1.0173-0.1542l-4e-4 -1e-4c-0.9622-0.0836-1.7473 0.0209-2.2203 0.1173h-2e-4c-0.3129 0.0639-0.4875 0.1241-0.49 0.125h-2e-3l-4e-4 -4e-4c-0.0042-0.0037-0.1071-0.0952-0.1617-0.1422l-3e-4 -2e-4c-0.0713-0.0615-0.107-0.0932-0.2263-0.201l-3e-4 -3e-4c-0.1859-0.1678-0.3997-0.3664-0.5446-0.529l-3e-4 -3e-4c-0.0776-0.0871-0.1533-0.1717-0.2302-0.2497l-2e-4 -2e-4c-0.0654-0.0661-0.1328-0.1246-0.2029-0.1775l-3e-4 -2e-4c-0.0204-0.0155-0.0411-0.0307-0.0622-0.0447l-3e-4 -2e-4c-0.0764-0.0506-0.1554-0.0939-0.2438-0.1209h-2e-3l-4e-4 -1e-4c-0.098-0.0297-0.2058-0.0437-0.3258-0.0351h-0.0023c-0.0392 0.0029-0.0794 0.0171-0.1188 0.0352l-4e-4 2e-4c-0.0123 0.0057-0.0245 0.0123-0.0367 0.0193l-3e-4 2e-4c-0.0388 0.022-0.0768 0.0485-0.115 0.0818l-3e-4 4e-4 -0.0017 0.0016-2e-4 2e-4c-0.2723 0.2391-0.5204 0.7238-0.6443 0.9939l-4e-4 -2e-4c-0.4473-0.2128-0.9048-0.4063-1.3668-0.5916l-5e-4 -1e-4c-0.1303-0.0523-0.2626-0.1002-0.394-0.1502l-4e-4 -2e-4c-0.368-0.14-0.7398-0.2723-1.1166-0.3944l-2e-4 -1e-4c-0.1488-0.0482-0.297-0.0971-0.447-0.1424l-2e-4 -1e-4c-0.4639-0.1401-0.9328-0.2668-1.408-0.3788l-4e-4 -1e-4c-0.0524-0.0124-0.1033-0.029-0.1559-0.041h-4e-4c-0.0256-0.0059-0.052-0.0098-0.0777-0.0156l-3e-4 -1e-4c-0.3499-0.0787-0.7028-0.1477-1.0583-0.2108l-4e-4 -1e-4c-0.1025-0.0182-0.2052-0.0358-0.3082-0.0527h-3e-4c-0.3766-0.0617-0.7542-0.1183-1.1364-0.1621h-0.0024c-0.0484-0.0055-0.0976-0.0084-0.1461-0.0136l-3e-4 -1e-4c-0.3522-0.0381-0.7076-0.0673-1.0641-0.0898h-4e-4c-0.0968-0.0061-0.1936-0.0126-0.2907-0.0176h-3e-4c-0.4057-0.0206-0.8135-0.0332-1.2243-0.0332z" opacity="1"/>
		<path d="m31.096 11.123c-13.237 0-23.967 10.839-23.967 24.211v2e-4c0 0.2089 0.00449 0.4151 0.00977 0.6228v-2e-4c6.8e-4 -0.0262 0.00316-0.0517 0.00391-0.0779v2e-4c0.28874 13.13 10.946 24.037 23.953 24.039h3e-4c8.6033 0.2582 16.584-3.7895 19.215-10.383l-3e-4 1e-4c-0.0019 1e-3 -0.0036 0.0028-0.0056 0.0038l3e-4 -5e-4c2.0762-3.3062 3.2809-7.226 3.2809-11.431v-3e-4c0-2.1536-0.3236-4.2291-0.9102-6.1891l4e-4 -1e-4c0.0024-3e-4 0.0051 5e-4 0.0074 1e-4l-1e-4 -4e-4c-0.0225-0.0753-0.0488-0.1492-0.0721-0.2242l-2e-4 -6e-4c-0.0374-0.1201-0.0756-0.2396-0.1151-0.3588l-1e-4 -5e-4c-0.0666-0.2013-0.1366-0.4006-0.2088-0.5991l5e-4 -1e-4c1.9487-0.1912 3.7076-1.7031 3.6479-4.0741v-6e-4c0.0049-0.0554 0.0065-0.1109 0.0039-0.1655v-3e-4c-0.0022-0.0708-0.0096-0.1387-0.0234-0.2067l-1e-4 -4e-4c-0.0749-0.7267-0.3118-1.5227-0.7636-2.3824l4e-4 -2e-4c0.3245-0.1967 0.5308-0.6095 0.5308-1.0623v-3e-4c-9e-4 -0.5931-0.3521-1.093-0.8203-1.1677v-3e-4c0.0133-0.2921 0.0256-0.6451 0.0215-1.0407v-5e-4c-5e-4 -0.058-0.0047-0.1162-0.0059-0.1753v-5e-4c-0.0052-0.2448-0.0154-0.4927-0.0352-0.7417v-4e-4c-0.0035-0.0446-0.0057-0.088-0.0098-0.1324v-5e-4c-0.0109-0.1184-0.0237-0.2363-0.039-0.351l-1e-4 -6e-4c-0.0077-0.0574-0.0184-0.1113-0.0273-0.1674v-3e-4c-0.0114-0.072-0.0215-0.1434-0.0351-0.2126l-1e-4 -6e-4c-0.0122-0.0616-0.027-0.1201-0.0409-0.1791l-2e-4 -6e-4c-0.0151-0.0638-0.0313-0.1248-0.0487-0.1849l-1e-4 -5e-4c-0.0141-0.0487-0.0272-0.0981-0.0428-0.1441l-2e-4 -3e-4c-0.0268-0.0787-0.058-0.1511-0.0897-0.2204l-2e-4 -4e-4c-0.0106-0.0233-0.0178-0.0517-0.0291-0.0738l-2e-4 -4e-4c-0.087-0.1708-0.1713-0.3274-0.2595-0.4761l-3e-4 -5e-4c-0.4634-0.782-1.0534-1.3313-2.9216-2.4117l-4e-4 -2e-4c-0.3172-0.1833-0.6715-0.3836-1.068-0.6013h-2e-3l-4e-4 -3e-4c-0.7939-0.4356-1.5669-0.7015-2.2789-0.8552l-4e-4 -1e-4c-0.356-0.0768-0.6962-0.1262-1.0172-0.1542h-5e-4c-0.9621-0.0837-1.7472 0.0208-2.2202 0.1172l-3e-4 1e-4c-0.3128 0.0639-0.4874 0.1241-0.4899 0.1249h-2e-3l-5e-4 -4e-4c-5e-3 -0.0045-0.1072-0.0954-0.1616-0.1422l-3e-4 -3e-4c-0.0714-0.0614-0.1071-0.0931-0.2263-0.2008l-4e-4 -4e-4c-0.1858-0.1679-0.3997-0.3664-0.5445-0.5289l-3e-4 -4e-4c-0.0776-0.0871-0.1533-0.1717-0.2302-0.2496l-3e-4 -3e-4c-0.0653-0.0661-0.1328-0.1246-0.2028-0.1775l-4e-4 -3e-4c-0.0204-0.0154-0.041-0.0306-0.0621-0.0446l-3e-4 -2e-4c-0.0764-0.0506-0.1555-0.0938-0.2438-0.1209h-2e-3l-5e-4 -1e-4c-0.0979-0.0296-0.2057-0.0437-0.3257-0.035h-0.0024c-0.0392 0.0029-0.0793 0.0171-0.1187 0.0351l-5e-4 2e-4c-0.0123 0.0058-0.0244 0.0123-0.0366 0.0193l-4e-4 2e-4c-0.0388 0.0221-0.0767 0.0485-0.1149 0.0819l-4e-4 4e-4 -0.0016 0.0015-3e-4 3e-4c-0.2722 0.2391-0.5203 0.7238-0.6442 0.9939l-5e-4 -3e-4c-0.4473-0.2128-0.9047-0.4063-1.3667-0.5915l-6e-4 -3e-4c-0.1303-0.0522-0.2625-0.1001-0.3939-0.1501l-4e-4 -2e-4c-0.3681-0.14-0.7399-0.2723-1.1166-0.3943l-3e-4 -1e-4c-0.1488-0.0483-0.2969-0.0972-0.4469-0.1425l-3e-4 -1e-4c-0.4639-0.1401-0.9328-0.2668-1.4079-0.3788l-5e-4 -1e-4c-0.0524-0.0124-0.1033-0.0289-0.1558-0.0409l-5e-4 -1e-4c-0.0256-0.0059-0.0519-0.0098-0.0776-0.0156h-4e-4c-0.3499-0.0788-0.7028-0.1478-1.0582-0.2109l-5e-4 -1e-4c-0.1025-0.0182-0.2051-0.0358-0.3081-0.0526l-4e-4 -1e-4c-0.3766-0.0617-0.7541-0.1183-1.1363-0.162h-2e-3l-5e-4 -1e-4c-0.0484-0.0055-0.0975-0.0084-0.146-0.0136h-4e-4c-0.3521-0.0381-0.7076-0.0674-1.0641-0.0898l-4e-4 -1e-4c-0.0968-0.0061-0.1935-0.0126-0.2906-0.0175h-5e-4c-0.4056-0.0207-0.8133-0.0332-1.2241-0.0332z" opacity="1"/>
		<path d="m31.096 11.674c-13.237 0-23.967 10.839-23.967 24.211v3e-4c0 0.2089 0.00449 0.415 0.00977 0.6228v-3e-4c6.8e-4 -0.0262 0.00316-0.0517 0.00391-0.0779v3e-4c0.28877 13.13 10.946 24.037 23.953 24.039h4e-4c8.6033 0.2582 16.584-3.7895 19.214-10.383l-4e-4 2e-4c-0.0019 1e-3 -0.0036 0.0028-0.0055 0.0037l3e-4 -6e-4c2.0762-3.3061 3.2809-7.2259 3.2809-11.431v-4e-4c0-2.1536-0.3236-4.2291-0.9102-6.1891l5e-4 -1e-4c0.0024-3e-4 5e-3 6e-4 0.0073 1e-4l-1e-4 -4e-4c-0.0225-0.0754-0.0488-0.1492-0.0721-0.2242l-2e-4 -7e-4c-0.0374-0.1201-0.0756-0.2395-0.1151-0.3587l-1e-4 -5e-4c-0.0666-0.2013-0.1366-0.4006-0.2088-0.5991l6e-4 -1e-4c1.9486-0.1912 3.7075-1.7031 3.6478-4.0741l1e-4 -6e-4c0.0048-0.0554 0.0064-0.1109 0.0038-0.1654v-4e-4c-0.0022-0.0708-0.0096-0.1387-0.0234-0.2067l-1e-4 -5e-4c-0.0749-0.7266-0.3118-1.5226-0.7636-2.3823l4e-4 -2e-4c0.3246-0.1967 0.5308-0.6095 0.5308-1.0623v-4e-4c-9e-4 -0.593-0.3521-1.0929-0.8203-1.1675v-4e-4c0.0133-0.2921 0.0256-0.6451 0.0215-1.0407v-6e-4c-6e-4 -0.058-0.0047-0.1161-0.0059-0.1751v-7e-4c-0.0052-0.2448-0.0154-0.4926-0.0352-0.7415v-5e-4c-0.0035-0.0447-0.0057-0.088-0.0098-0.1323v-7e-4c-0.011-0.1183-0.0237-0.2362-0.039-0.3509l-1e-4 -6e-4c-0.0077-0.0575-0.0184-0.1113-0.0273-0.1674v-4e-4c-0.0114-0.0719-0.0216-0.1433-0.0351-0.2125l-2e-4 -6e-4c-0.0121-0.0617-0.0269-0.1201-0.0408-0.179l-2e-4 -8e-4c-0.0151-0.0638-0.0313-0.1247-0.0487-0.1848l-1e-4 -5e-4c-0.0141-0.0487-0.0272-0.0981-0.0428-0.144l-2e-4 -5e-4c-0.0268-0.0786-0.058-0.151-0.0897-0.2202l-2e-4 -5e-4c-0.0106-0.0233-0.0179-0.0517-0.0291-0.0737l-2e-4 -5e-4c-0.087-0.1709-0.1713-0.3274-0.2595-0.4761l-4e-4 -6e-4c-0.4633-0.782-1.0533-1.3312-2.9215-2.4115l-5e-4 -3e-4c-0.3171-0.1833-0.6714-0.3836-1.0679-0.6013h-2e-3l-5e-4 -3e-4c-0.7939-0.4356-1.5669-0.7015-2.2788-0.8552l-5e-4 -1e-4c-0.356-0.0768-0.6961-0.1262-1.0171-0.1541l-6e-4 -1e-4c-0.9621-0.0836-1.7471 0.0208-2.2201 0.1172l-4e-4 1e-4c-0.3127 0.0639-0.4873 0.1241-0.4898 0.1249h-2e-3s-2e-4 -2e-4 -6e-4 -5e-4c-6e-3 -0.0053-0.1074-0.0955-0.1615-0.142l-4e-4 -4e-4c-0.0713-0.0614-0.107-0.0931-0.2262-0.2008l-5e-4 -5e-4c-0.1858-0.1678-0.3996-0.3663-0.5444-0.5288l-4e-4 -5e-4c-0.0776-0.0871-0.1532-0.1716-0.2301-0.2495l-3e-4 -4e-4c-0.0654-0.066-0.1328-0.1245-0.2028-0.1773l-4e-4 -4e-4c-0.0204-0.0154-0.041-0.0306-0.0621-0.0446l-4e-4 -2e-4c-0.0764-0.0506-0.1554-0.0938-0.2437-0.1209h-2e-3l-6e-4 -1e-4c-0.0979-0.0296-0.2056-0.0437-0.3256-0.035h-0.0024c-0.0392 0.0029-0.0794 0.0171-0.1187 0.0351l-6e-4 3e-4c-0.0122 0.0057-0.0243 0.0123-0.0365 0.0193l-5e-4 2e-4c-0.0387 0.022-0.0766 0.0485-0.1148 0.0818l-4e-4 5e-4 -0.0016 0.0015-4e-4 3e-4c-0.2721 0.2392-0.5203 0.7237-0.6441 0.9938l-6e-4 -3e-4c-0.4473-0.2128-0.9047-0.4063-1.3666-0.5915l-7e-4 -3e-4c-0.1303-0.0522-0.2625-0.1001-0.3938-0.1501l-5e-4 -2e-4c-0.3681-0.14-0.7398-0.2723-1.1165-0.3943l-4e-4 -1e-4c-0.1488-0.0482-0.2969-0.0971-0.4469-0.1425l-3e-4 -1e-4c-0.4638-0.1401-0.9327-0.2668-1.4079-0.3788l-6e-4 -1e-4c-0.0523-0.0124-0.1032-0.0289-0.1556-0.0409l-6e-4 -1e-4c-0.0256-0.0058-0.0519-0.0097-0.0776-0.0155l-4e-4 -1e-4c-0.3499-0.0788-0.7028-0.1478-1.0582-0.2109l-5e-4 -1e-4c-0.1025-0.0181-0.2051-0.0357-0.308-0.0526l-6e-4 -1e-4c-0.3765-0.0617-0.754-0.1182-1.1362-0.162h-2e-3l-5e-4 -1e-4c-0.0484-0.0055-0.0975-0.0083-0.1459-0.0136h-5e-4c-0.3521-0.0381-0.7075-0.0673-1.064-0.0898h-5e-4c-0.0968-0.0061-0.1935-0.0126-0.2905-0.0176h-6e-4c-0.4056-0.0207-0.8133-0.0332-1.224-0.0332z" opacity="1"/>
		<path d="m31.096 12.278c-13.237 0-23.967 10.839-23.967 24.211v3e-4c0 0.2088 0.00449 0.415 0.00977 0.6227l1e-5 -3e-4c6.8e-4 -0.0262 0.00315-0.0517 0.0039-0.0778v3e-4c0.2888 13.13 10.946 24.037 23.953 24.039h5e-4c8.6032 0.2582 16.584-3.7895 19.214-10.383l-5e-4 2e-4c-0.0018 1e-3 -0.0035 0.0028-0.0054 0.0037l4e-4 -7e-4c2.0761-3.3061 3.2808-7.2259 3.2808-11.431v-5e-4c0-2.1535-0.3236-4.229-0.9102-6.189h6e-4c0.0023-3e-4 0.0049 5e-4 0.0072 0l-1e-4 -5e-4c-0.0225-0.0753-0.0488-0.1491-0.0721-0.2241l-3e-4 -8e-4c-0.0373-0.12-0.0756-0.2394-0.115-0.3586l-2e-4 -6e-4c-0.0665-0.2012-0.1365-0.4005-0.2087-0.599h8e-4c1.9485-0.1913 3.7073-1.7032 3.6476-4.0742l1e-4 -7e-4c0.0048-0.0554 0.0064-0.1108 0.0038-0.1653v-5e-4c-0.0022-0.0707-0.0096-0.1386-0.0234-0.2065l-1e-4 -6e-4c-0.0749-0.7266-0.3118-1.5226-0.7636-2.3822l5e-4 -4e-4c0.3245-0.1966 0.5307-0.6094 0.5307-1.0621v-5e-4c-9e-4 -0.593-0.3521-1.0929-0.8203-1.1675v-5e-4c0.0133-0.292 0.0256-0.645 0.0215-1.0405v-8e-4c-6e-4 -0.0579-0.0047-0.116-0.0059-0.175v-8e-4c-0.0052-0.2447-0.0154-0.4925-0.0352-0.7414v-6e-4c-0.0035-0.0446-0.0057-0.0879-0.0098-0.1322v-8e-4c-0.011-0.1183-0.0237-0.2361-0.039-0.3508l-1e-4 -7e-4c-0.0077-0.0574-0.0184-0.1112-0.0273-0.1672v-5e-4c-0.0114-0.0719-0.0216-0.1433-0.0351-0.2124l-2e-4 -8e-4c-0.0121-0.0616-0.0269-0.12-0.0408-0.1789l-2e-4 -9e-4c-0.0151-0.0637-0.0314-0.1246-0.0487-0.1847l-2e-4 -6e-4c-0.014-0.0487-0.0271-0.098-0.0427-0.1439l-2e-4 -5e-4c-0.0268-0.0786-0.058-0.151-0.0897-0.2202l-3e-4 -6e-4c-0.0105-0.0233-0.0178-0.0516-0.029-0.0736l-3e-4 -6e-4c-0.0869-0.1708-0.1712-0.3273-0.2594-0.476l-4e-4 -6e-4c-0.4634-0.782-1.0534-1.3312-2.9215-2.4115l-5e-4 -3e-4c-0.3172-0.1833-0.6715-0.3836-1.0679-0.6013h-2e-3l-6e-4 -3e-4c-0.7938-0.4356-1.5668-0.7015-2.2787-0.8551l-6e-4 -1e-4c-0.3559-0.0769-0.6961-0.1263-1.017-0.1542l-7e-4 -1e-4c-0.9621-0.0836-1.747 0.0209-2.22 0.1173l-5e-4 1e-4c-0.3127 0.0638-0.4872 0.124-0.4897 0.1249h-2e-3l-7e-4 -7e-4c-0.0071-0.0062-0.1076-0.0956-0.1614-0.1419l-5e-4 -4e-4c-0.0712-0.0614-0.107-0.0931-0.2261-0.2008l-6e-4 -5e-4c-0.1858-0.1678-0.3995-0.3663-0.5443-0.5288l-5e-4 -6e-4c-0.0775-0.087-0.1531-0.1715-0.23-0.2494l-4e-4 -4e-4c-0.0653-0.066-0.1327-0.1245-0.2027-0.1773l-5e-4 -4e-4c-0.0204-0.0155-0.041-0.0306-0.062-0.0445l-5e-4 -4e-4c-0.0763-0.0505-0.1553-0.0937-0.2436-0.1207h-2e-3l-7e-4 -2e-4c-0.0979-0.0296-0.2056-0.0436-0.3255-0.035h-2e-3l-5e-4 1e-4c-0.0392 0.0029-0.0793 0.0171-0.1186 0.0351l-7e-4 3e-4c-0.0122 0.0057-0.0243 0.0122-0.0364 0.0192l-6e-4 3e-4c-0.0387 0.022-0.0765 0.0484-0.1147 0.0817l-5e-4 6e-4 -0.0015 0.0014-4e-4 4e-4c-0.2722 0.2392-0.5203 0.7237-0.6441 0.9938l-7e-4 -4e-4c-0.4473-0.2128-0.9046-0.4063-1.3665-0.5914l-9e-4 -4e-4c-0.1302-0.0522-0.2623-0.1001-0.3936-0.15l-6e-4 -3e-4c-0.3681-0.14-0.7398-0.2723-1.1164-0.3943l-5e-4 -1e-4c-0.1488-0.0482-0.2968-0.0971-0.4468-0.1424l-4e-4 -2e-4c-0.4638-0.14-0.9327-0.2667-1.4078-0.3787l-7e-4 -2e-4c-0.0523-0.0124-0.1031-0.0289-0.1556-0.0409l-6e-4 -1e-4c-0.0256-0.0058-0.0519-0.0097-0.0775-0.0155l-6e-4 -1e-4c-0.3498-0.0787-0.7026-0.1477-1.058-0.2108l-7e-4 -1e-4c-0.1024-0.0182-0.205-0.0358-0.3079-0.0527l-6e-4 -1e-4c-0.3765-0.0616-0.754-0.1182-1.1361-0.162h-0.0026c-0.0484-0.0056-0.0975-0.0084-0.1459-0.0136l-6e-4 -1e-4c-0.352-0.0381-0.7074-0.0673-1.0638-0.0898h-7e-4c-0.0967-0.0061-0.1933-0.0126-0.2904-0.0176h-6e-4c-0.4056-0.0206-0.8133-0.0332-1.224-0.0332z" opacity="1"/>
		<path d="m31.096 12.934c-13.237 0-23.967 10.839-23.967 24.211v4e-4c0 0.2088 0.00449 0.4149 0.00977 0.6226l1e-5 -4e-4c6.8e-4 -0.0261 0.00315-0.0516 0.0039-0.0777v4e-4c0.28883 13.13 10.946 24.037 23.953 24.039h5e-4c8.6033 0.2581 16.584-3.7896 19.214-10.383l-5e-4 3e-4c-0.0018 1e-3 -0.0035 0.0027-0.0054 0.0036l5e-4 -7e-4c2.0761-3.3062 3.2807-7.2259 3.2807-11.431v-5e-4c0-2.1535-0.3236-4.229-0.9102-6.1889l7e-4 -1e-4c0.0023-3e-4 0.0049 5e-4 0.0071 1e-4l-1e-4 -6e-4c-0.0226-0.0753-0.0488-0.1491-0.0721-0.2241l-3e-4 -9e-4c-0.0374-0.12-0.0756-0.2394-0.115-0.3584l-2e-4 -8e-4c-0.0665-0.2012-0.1365-0.4004-0.2087-0.5988l9e-4 -1e-4c1.9485-0.1914 3.7072-1.7033 3.6475-4.0742l1e-4 -8e-4c0.0048-0.0553 0.0064-0.1107 0.0038-0.1652v-5e-4c-0.0022-0.0707-0.0096-0.1386-0.0234-0.2065l-1e-4 -7e-4c-0.0749-0.7266-0.3118-1.5225-0.7636-2.3821l6e-4 -4e-4c0.3244-0.1967 0.5306-0.6094 0.5306-1.0621v-6e-4c-1e-3 -0.5929-0.3522-1.0928-0.8203-1.1674v-5e-4c0.0133-0.2921 0.0256-0.645 0.0215-1.0405v-9e-4c-6e-4 -0.0579-0.0047-0.1159-0.0059-0.1749v-9e-4c-0.0052-0.2447-0.0155-0.4924-0.0352-0.7413v-7e-4c-0.0035-0.0445-0.0057-0.0878-0.0098-0.1321v-9e-4c-0.011-0.1183-0.0237-0.236-0.039-0.3506l-1e-4 -9e-4c-0.0077-0.0574-0.0184-0.1111-0.0273-0.1671v-6e-4c-0.0115-0.0718-0.0216-0.1432-0.0351-0.2123l-2e-4 -1e-3c-0.0121-0.0615-0.0269-0.1198-0.0408-0.1787l-3e-4 -1e-3c-0.015-0.0637-0.0313-0.1245-0.0486-0.1845l-2e-4 -8e-4c-0.014-0.0486-0.0271-0.0979-0.0427-0.1438l-2e-4 -6e-4c-0.0268-0.0786-0.058-0.1509-0.0897-0.2201l-3e-4 -7e-4c-0.0105-0.0232-0.0178-0.0515-0.029-0.0735l-3e-4 -7e-4c-0.087-0.1707-0.1713-0.3272-0.2594-0.4759l-5e-4 -7e-4c-0.4633-0.7819-1.0534-1.3311-2.9214-2.4114l-6e-4 -3e-4c-0.3171-0.1833-0.6714-0.3836-1.0678-0.6012h-2e-3l-7e-4 -4e-4c-0.7938-0.4356-1.5667-0.7015-2.2786-0.8551l-7e-4 -1e-4c-0.3559-0.0769-0.696-0.1262-1.0169-0.1542l-9e-4 -1e-4c-0.9619-0.0836-1.7469 0.0209-2.2198 0.1173l-6e-4 1e-4c-0.3126 0.0639-0.4871 0.124-0.4896 0.1249h-2e-3l-8e-4 -8e-4c-0.0083-0.0072-0.1079-0.0958-0.1613-0.1418l-6e-4 -5e-4c-0.0711-0.0613-0.1069-0.093-0.226-0.2007l-7e-4 -6e-4c-0.1858-0.1678-0.3994-0.3662-0.5442-0.5287l-6e-4 -6e-4c-0.0775-0.087-0.1531-0.1715-0.2299-0.2494l-5e-4 -5e-4c-0.0653-0.0659-0.1326-0.1244-0.2026-0.1772l-6e-4 -5e-4c-0.0203-0.0154-0.0409-0.0305-0.0619-0.0444l-6e-4 -4e-4c-0.0763-0.0505-0.1553-0.0937-0.2435-0.1207h-2e-3l-8e-4 -2e-4c-0.0979-0.0296-0.2055-0.0436-0.3254-0.035h-2e-3l-6e-4 1e-4c-0.0392 0.0029-0.0792 0.0171-0.1185 0.0351l-8e-4 4e-4c-0.0122 0.0057-0.0242 0.0122-0.0363 0.0191l-6e-4 4e-4c-0.0388 0.022-0.0766 0.0484-0.1147 0.0817l-6e-4 6e-4c-4e-4 4e-4 -0.0014 0.0013-0.0014 0.0013l-5e-4 5e-4c-0.2721 0.2392-0.5202 0.7236-0.644 0.9937l-9e-4 -4e-4c-0.4471-0.2128-0.9045-0.4062-1.3663-0.5914l-1e-3 -4e-4c-0.1302-0.0522-0.2623-0.1001-0.3935-0.15l-7e-4 -3e-4c-0.3681-0.14-0.7398-0.2722-1.1164-0.3942l-6e-4 -2e-4c-0.1487-0.0482-0.2967-0.0971-0.4466-0.1424l-5e-4 -1e-4c-0.4638-0.1401-0.9326-0.2668-1.4078-0.3788l-8e-4 -2e-4c-0.0522-0.0124-0.103-0.0289-0.1554-0.0408l-8e-4 -2e-4c-0.0256-0.0058-0.0518-0.0097-0.0773-0.0155l-7e-4 -1e-4c-0.3498-0.0787-0.7026-0.1477-1.0579-0.2108l-8e-4 -1e-4c-0.1024-0.0182-0.205-0.0358-0.3078-0.0526l-7e-4 -1e-4c-0.3765-0.0617-0.754-0.1183-1.136-0.162h-2e-3l-8e-4 -1e-4c-0.0483-0.0055-0.0973-0.0084-0.1457-0.0136l-7e-4 -1e-4c-0.352-0.038-0.7074-0.0673-1.0638-0.0897l-7e-4 -1e-4c-0.0967-0.0061-0.1933-0.0126-0.2903-0.0175l-8e-4 -1e-4c-0.4055-0.0206-0.8131-0.0331-1.2238-0.0331z" opacity="1"/>
		<path d="m31.096 13.643c-13.237 0-23.967 10.839-23.967 24.211v5e-4c0 0.2088 0.00449 0.4149 0.00977 0.6226l1e-5 -5e-4c6.8e-4 -0.0261 0.00315-0.0516 0.0039-0.0777l1e-5 5e-4c0.28885 13.13 10.946 24.037 23.953 24.039h6e-4c8.6032 0.2581 16.584-3.7896 19.214-10.383l-6e-4 3e-4c-0.0018 1e-3 -0.0034 0.0027-0.0053 0.0036l5e-4 -1e-3c2.0761-3.306 3.2807-7.2257 3.2807-11.431v-6e-4c-1e-4 -2.1534-0.3236-4.2289-0.9102-6.1888l8e-4 -1e-4c0.0023-2e-4 0.0048 5e-4 7e-3 1e-4l-2e-4 -7e-4c-0.0225-0.0752-0.0487-0.149-0.072-0.2239l-4e-4 -0.0011c-0.0373-0.12-0.0755-0.2393-0.1149-0.3583l-3e-4 -9e-4c-0.0665-0.2011-0.1364-0.4003-0.2086-0.5987l0.0011-1e-4c1.9484-0.1914 3.707-1.7033 3.6473-4.0741l1e-4 -1e-3c0.0048-0.0553 0.0064-0.1106 0.0038-0.165v-7e-4c-0.0022-0.0706-0.0096-0.1385-0.0234-0.2064l-1e-4 -8e-4c-0.075-0.7265-0.3119-1.5224-0.7636-2.382l7e-4 -4e-4c0.3244-0.1968 0.5305-0.6094 0.5305-1.0621v-7e-4c-1e-3 -0.5928-0.3522-1.0926-0.8203-1.1673l1e-4 -6e-4c0.0132-0.292 0.0255-0.6449 0.0214-1.0404v-1e-3c-6e-4 -0.0579-0.0047-0.1159-0.0059-0.1748v-0.0011c-0.0052-0.2446-0.0155-0.4922-0.0352-0.741v-8e-4c-0.0035-0.0446-0.0057-0.0878-0.0098-0.1321l-1e-4 -1e-3c-0.0109-0.1182-0.0236-0.2359-0.0389-0.3505l-2e-4 -0.0011c-0.0076-0.0572-0.0183-0.1109-0.0272-0.1669l-1e-4 -6e-4c-0.0114-0.0719-0.0215-0.1432-0.035-0.2123l-2e-4 -0.0011c-0.0121-0.0615-0.0269-0.1197-0.0408-0.1786l-3e-4 -0.0011c-0.0151-0.0637-0.0313-0.1245-0.0486-0.1844l-2e-4 -9e-4c-0.014-0.0486-0.0271-0.0978-0.0427-0.1436l-3e-4 -7e-4c-0.0267-0.0786-0.058-0.1509-0.0896-0.22l-4e-4 -9e-4c-0.0105-0.0232-0.0177-0.0514-0.0289-0.0734l-4e-4 -7e-4c-0.0869-0.1707-0.1712-0.3272-0.2593-0.4758l-6e-4 -9e-4c-0.4633-0.7818-1.0534-1.331-2.9213-2.4112l-7e-4 -4e-4c-0.3171-0.1834-0.6714-0.3836-1.0677-0.6012h-2e-3l-9e-4 -5e-4c-0.7937-0.4355-1.5666-0.7013-2.2784-0.855l-8e-4 -1e-4c-0.3559-0.0768-0.6959-0.1262-1.0168-0.1542l-1e-3 -1e-4c-0.9619-0.0835-1.7468 0.0209-2.2197 0.1173l-7e-4 2e-4c-0.3125 0.0638-0.487 0.124-0.4895 0.1248h-2e-3s-4e-4 -3e-4 -1e-3 -8e-4c-0.0094-0.0084-0.108-0.0961-0.1611-0.1418l-6e-4 -5e-4c-0.0712-0.0613-0.1069-0.093-0.226-0.2006l-8e-4 -8e-4c-0.1857-0.1677-0.3994-0.3661-0.5441-0.5285l-7e-4 -8e-4c-0.0775-0.087-0.153-0.1714-0.2298-0.2492l-5e-4 -6e-4c-0.0653-0.0659-0.1327-0.1244-0.2026-0.1772l-7e-4 -5e-4c-0.0203-0.0154-0.0408-0.0304-0.0618-0.0444l-7e-4 -4e-4c-0.0763-0.0505-0.1552-0.0937-0.2434-0.1207h-2e-3l-9e-4 -2e-4c-0.0979-0.0296-0.2055-0.0436-0.3253-0.0349h-0.0027c-0.0391 0.0029-0.0792 0.0171-0.1184 0.0351l-9e-4 4e-4c-0.0122 0.0057-0.0241 0.0122-0.0362 0.0192l-7e-4 4e-4c-0.0387 0.022-0.0765 0.0483-0.1146 0.0816 0 0-4e-4 4e-4 -7e-4 8e-4 -4e-4 3e-4 -0.0013 0.0012-0.0013 0.0012l-6e-4 5e-4c-0.2721 0.2392-0.5201 0.7236-0.6439 0.9936l-1e-3 -5e-4c-0.4471-0.2127-0.9044-0.4061-1.3662-0.5913l-0.0012-5e-4c-0.1301-0.0521-0.2621-0.0999-0.3933-0.1499l-9e-4 -3e-4c-0.368-0.14-0.7397-0.2722-1.1162-0.3942l-7e-4 -2e-4c-0.1487-0.0482-0.2967-0.0971-0.4466-0.1424l-5e-4 -1e-4c-0.4638-0.1401-0.9326-0.2668-1.4077-0.3788l-9e-4 -2e-4c-0.0522-0.0124-0.103-0.0288-0.1553-0.0408l-1e-3 -2e-4c-0.0255-0.0058-0.0516-0.0097-0.0772-0.0154l-8e-4 -2e-4c-0.3497-0.0787-0.7025-0.1477-1.0578-0.2108l-9e-4 -1e-4c-0.1024-0.0182-0.2048-0.0358-0.3077-0.0526l-8e-4 -1e-4c-0.3764-0.0617-0.7538-0.1183-1.1359-0.162h-7e-4 -0.0013l-8e-4 -1e-4c-0.0483-0.0055-0.0973-0.0083-0.1457-0.0136l-8e-4 -1e-4c-0.3519-0.038-0.7072-0.0672-1.0636-0.0897l-9e-4 -1e-4c-0.0966-0.0061-0.1932-0.0126-0.2901-0.0175h-9e-4c-0.4056-0.0207-0.8131-0.0332-1.2237-0.0332z" opacity="1"/>
		<path d="m31.096 14.404c-13.237 0-23.967 10.839-23.967 24.211v6e-4c0 0.2087 0.00449 0.4148 0.00977 0.6225l1e-5 -6e-4c6.9e-4 -0.026 0.00315-0.0515 0.0039-0.0776l1e-5 6e-4c0.28889 13.13 10.946 24.037 23.953 24.038h7e-4c8.6032 0.2581 16.584-3.7896 19.214-10.383l-7e-4 4e-4c-0.0017 1e-3 -0.0034 0.0026-0.0052 0.0035l6e-4 -0.0011c2.076-3.306 3.2806-7.2256 3.2806-11.43v-7e-4c-1e-4 -2.1535-0.3236-4.2289-0.9102-6.1888l9e-4 -1e-4c0.0023-2e-4 0.0047 5e-4 0.0069 1e-4l-2e-4 -8e-4c-0.0225-0.0752-0.0487-0.1489-0.072-0.2238l-4e-4 -0.0012c-0.0373-0.1199-0.0755-0.2392-0.1149-0.3582l-3e-4 -1e-3c-0.0665-0.2011-0.1365-0.4002-0.2086-0.5986l0.0012-1e-4c1.9484-0.1915 3.7069-1.7034 3.6472-4.0741l1e-4 -0.0012c0.0048-0.0552 0.0064-0.1105 0.0038-0.1648v-8e-4c-0.0023-0.0706-0.0097-0.1384-0.0234-0.2063l-1e-4 -9e-4c-0.075-0.7265-0.3119-1.5223-0.7636-2.3819l8e-4 -5e-4c0.3243-0.1967 0.5304-0.6094 0.5304-1.062v-7e-4c-1e-3 -0.5929-0.3522-1.0926-0.8203-1.1672l1e-4 -8e-4c0.0132-0.292 0.0255-0.6448 0.0214-1.0403v-0.0011c-6e-4 -0.0579-0.0047-0.1158-0.0059-0.1746v-0.0013c-0.0052-0.2445-0.0155-0.4922-0.0352-0.7409v-9e-4c-0.0035-0.0445-0.0057-0.0877-0.0098-0.1319l-1e-4 -0.0013c-0.0109-0.1181-0.0236-0.2358-0.0389-0.3503l-2e-4 -0.0012c-0.0077-0.0572-0.0183-0.1108-0.0272-0.1668l-1e-4 -7e-4c-0.0114-0.0718-0.0215-0.1431-0.035-0.2122l-3e-4 -0.0012c-0.0121-0.0614-0.0268-0.1197-0.0407-0.1784l-3e-4 -0.0014c-0.0151-0.0635-0.0313-0.1243-0.0486-0.1842l-3e-4 -1e-3c-0.014-0.0485-0.027-0.0977-0.0426-0.1435l-3e-4 -8e-4c-0.0268-0.0785-0.058-0.1508-0.0896-0.2199l-4e-4 -1e-3c-0.0105-0.0232-0.0177-0.0514-0.0289-0.0732l-4e-4 -9e-4c-0.0869-0.1707-0.1712-0.3271-0.2593-0.4757l-6e-4 -1e-3c-0.4633-0.7818-1.0535-1.331-2.9213-2.4111l-8e-4 -5e-4c-0.3171-0.1833-0.6713-0.3835-1.0676-0.6011h-2e-3l-1e-3 -5e-4c-0.7937-0.4355-1.5665-0.7013-2.2783-0.8549l-9e-4 -2e-4c-0.3558-0.0768-0.6959-0.1262-1.0167-0.1541l-0.0012-1e-4c-0.9618-0.0836-1.7466 0.0209-2.2195 0.1172l-8e-4 2e-4c-0.3125 0.0638-0.4869 0.124-0.4894 0.1248h-2e-3s-4e-4 -3e-4 -0.0011-1e-3c-0.0108-0.0095-0.1083-0.0962-0.161-0.1415l-7e-4 -7e-4c-0.0711-0.0612-0.1069-0.093-0.2259-0.2005l-9e-4 -9e-4c-0.1857-0.1677-0.3993-0.366-0.544-0.5284l-8e-4 -9e-4c-0.0774-0.0869-0.1529-0.1713-0.2297-0.2491l-6e-4 -7e-4c-0.0653-0.0659-0.1326-0.1243-0.2025-0.177l-8e-4 -7e-4c-0.0203-0.0153-0.0408-0.0303-0.0617-0.0443l-8e-4 -5e-4c-0.0762-0.0504-0.1551-0.0936-0.2433-0.1205h-2e-3l-1e-3 -4e-4c-0.0979-0.0295-0.2054-0.0434-0.3252-0.0348h-2e-3l-8e-4 1e-4c-0.0391 0.0029-0.0791 0.0171-0.1183 0.0351l-0.0011 4e-4c-0.012 0.0057-0.024 0.0122-0.036 0.0191l-8e-4 4e-4c-0.0387 0.022-0.0764 0.0484-0.1145 0.0816 0 0-4e-4 5e-4 -9e-4 9e-4l-0.0011 0.0011-7e-4 6e-4c-0.272 0.2393-0.52 0.7236-0.6438 0.9935l-0.0012-5e-4c-0.447-0.2128-0.9043-0.4061-1.366-0.5913-4e-4 -1e-4 -9e-4 -3e-4 -0.0013-5e-4 -0.1301-0.0521-0.2621-0.0999-0.3932-0.1498l-1e-3 -4e-4c-0.3681-0.14-0.7396-0.2722-1.1162-0.3942l-7e-4 -2e-4c-0.1487-0.0482-0.2966-0.097-0.4465-0.1424l-6e-4 -1e-4c-0.4638-0.1401-0.9326-0.2668-1.4076-0.3788l-0.0011-2e-4c-0.0522-0.0124-0.1029-0.0288-0.1552-0.0408l-0.0011-2e-4c-0.0254-0.0058-0.0515-0.0096-0.077-0.0154l-9e-4 -2e-4c-0.3497-0.0787-0.7025-0.1477-1.0577-0.2107l-0.0011-2e-4c-0.1023-0.0182-0.2047-0.0357-0.3075-0.0526l-1e-3 -1e-4c-0.3763-0.0617-0.7537-0.1182-1.1357-0.162h-9e-4 -0.0011l-1e-3 -1e-4c-0.0482-0.0055-0.0972-0.0083-0.1455-0.0135l-9e-4 -1e-4c-0.352-0.0381-0.7072-0.0673-1.0636-0.0898h-1e-3c-0.0965-0.0061-0.1931-0.0126-0.29-0.0176h-1e-3c-0.4055-0.0206-0.813-0.0332-1.2236-0.0332z" opacity="1"/>
		<path d="m31.096 15.218c-13.237 0-23.967 10.839-23.967 24.211v6e-4c0 0.2087 0.00449 0.4148 0.00977 0.6224l1e-5 -6e-4c6.9e-4 -0.026 0.00315-0.0515 0.0039-0.0775l1e-5 6e-4c0.28893 13.129 10.946 24.037 23.953 24.038l8e-4 1e-4c8.6031 0.258 16.584-3.7897 19.214-10.383l-8e-4 4e-4c-0.0017 1e-3 -0.0033 0.0026-0.0051 0.0035l7e-4 -0.0012c2.076-3.306 3.2805-7.2256 3.2805-11.43v-8e-4c-1e-4 -2.1534-0.3237-4.2288-0.9102-6.1887l1e-3 -1e-4c0.0022-1e-4 0.0047 6e-4 0.0068 1e-4l-2e-4 -9e-4c-0.0225-0.0751-0.0487-0.1489-0.072-0.2237l-5e-4 -0.0014c-0.0373-0.1198-0.0754-0.239-0.1148-0.358l-3e-4 -0.0011c-0.0665-0.2011-0.1365-0.4001-0.2086-0.5985l0.0014-1e-4c1.9483-0.1915 3.7067-1.7034 3.647-4.0741l1e-4 -0.0013c0.0048-0.0552 0.0064-0.1104 0.0038-0.1647v-8e-4c-0.0023-0.0706-0.0097-0.1384-0.0234-0.2062l-2e-4 -0.0011c-0.0749-0.7265-0.3118-1.5223-0.7635-2.3817l9e-4 -6e-4c0.3243-0.1968 0.5303-0.6094 0.5303-1.0619v-9e-4c-0.0011-0.5928-0.3522-1.0925-0.8203-1.1671l1e-4 -9e-4c0.0132-0.2919 0.0255-0.6448 0.0214-1.0401v-0.0014c-6e-4 -0.0577-0.0047-0.1156-0.0059-0.1744v-0.0014c-0.0052-0.2445-0.0155-0.4921-0.0352-0.7408v-1e-3c-0.0035-0.0445-0.0057-0.0876-0.0098-0.1318l-1e-4 -0.0014c-0.0109-0.1181-0.0236-0.2357-0.0389-0.3502l-2e-4 -0.0013c-0.0077-0.0572-0.0183-0.1108-0.0272-0.1666l-1e-4 -9e-4c-0.0114-0.0718-0.0215-0.1431-0.035-0.212l-3e-4 -0.0015c-0.0121-0.0613-0.0268-0.1195-0.0407-0.1782l-4e-4 -0.0015c-0.015-0.0635-0.0312-0.1242-0.0485-0.1841l-3e-4 -0.0011c-0.014-0.0485-0.0271-0.0977-0.0426-0.1434l-4e-4 -9e-4c-0.0267-0.0785-0.0579-0.1507-0.0895-0.2198l-5e-4 -0.0011c-0.0104-0.0232-0.0177-0.0513-0.0288-0.0731l-5e-4 -1e-3c-0.0869-0.1706-0.1711-0.327-0.2592-0.4756l-7e-4 -0.0011c-0.4633-0.7817-1.0535-1.3309-2.9212-2.411l-9e-4 -5e-4c-0.3171-0.1833-0.6712-0.3835-1.0675-0.6011h-2e-3l-0.0011-6e-4c-0.7937-0.4354-1.5665-0.7012-2.2782-0.8548l-1e-3 -2e-4c-0.3558-0.0768-0.6958-0.1262-1.0166-0.1541l-0.0014-1e-4c-0.9617-0.0836-1.7464 0.0209-2.2193 0.1173l-9e-4 2e-4c-0.3124 0.0638-0.4868 0.1239-0.4893 0.1248h-1e-3 -1e-3c0-1e-4 -5e-4 -4e-4 -0.0013-0.0012-0.0122-0.0108-0.1085-0.0965-0.1608-0.1414l-8e-4 -7e-4c-0.071-0.0612-0.1069-0.093-0.2258-0.2005-3e-4 -3e-4 -7e-4 -6e-4 -0.0011-1e-3 -0.1856-0.1677-0.3991-0.3659-0.5438-0.5283l-9e-4 -1e-3c-0.0774-0.0869-0.1529-0.1712-0.2296-0.249l-7e-4 -8e-4c-0.0653-0.0658-0.1325-0.1242-0.2024-0.1769l-9e-4 -7e-4c-0.0203-0.0154-0.0407-0.0304-0.0616-0.0442l-9e-4 -6e-4c-0.0762-0.0505-0.1551-0.0935-0.2432-0.1205h-1e-3 -1e-3l-0.0012-4e-4c-0.0978-0.0294-0.2053-0.0434-0.325-0.0348h-1e-3 -1e-3l-9e-4 1e-4c-0.0391 0.0029-0.079 0.0171-0.1182 0.0351l-0.0012 5e-4c-0.012 0.0057-0.0239 0.0121-0.0359 0.019l-1e-3 5e-4c-0.0386 0.022-0.0763 0.0484-0.1143 0.0815l-2e-3 2e-3 -8e-4 7e-4c-0.272 0.2393-0.5199 0.7235-0.6437 0.9935-4e-4 -2e-4 -9e-4 -4e-4 -0.0013-6e-4 -0.447-0.2128-0.9042-0.4061-1.3659-0.5912l-0.0015-6e-4c-0.13-0.0521-0.2619-0.0999-0.393-0.1498l-0.0011-4e-4c-0.3681-0.14-0.7396-0.2722-1.1161-0.3941l-9e-4 -3e-4c-0.1486-0.0482-0.2965-0.097-0.4464-0.1423l-7e-4 -2e-4c-0.4637-0.1401-0.9324-0.2668-1.4075-0.3787l-0.0012-3e-4c-0.0521-0.0124-0.1028-0.0288-0.155-0.0407l-0.0012-3e-4c-0.0255-0.0058-0.0515-0.0096-0.077-0.0154l-1e-3 -2e-4c-0.3496-0.0787-0.7023-0.1477-1.0576-0.2107-4e-4 -1e-4 -8e-4 -2e-4 -0.0012-2e-4 -0.1022-0.0182-0.2046-0.0357-0.3073-0.0525l-0.0012-2e-4c-0.3762-0.0617-0.7536-0.1182-1.1356-0.1619h-1e-3 -1e-3c-3e-4 -1e-4 -7e-4 -1e-4 -0.0011-2e-4 -0.0482-0.0055-0.0971-0.0083-0.1454-0.0135l-1e-3 -1e-4c-0.3519-0.0381-0.7071-0.0673-1.0634-0.0898h-0.0011c-0.0966-0.0061-0.1931-0.0126-0.2899-0.0175-4e-4 -1e-4 -8e-4 -1e-4 -0.0012-1e-4 -0.4055-0.0206-0.8129-0.0331-1.2234-0.0331z" opacity="1"/>
	</g>
	<g transform="matrix(.23276 0 0 .23515 -55.061 -90.829)" stroke-width="5.0341">
		<g transform="translate(5.8771 91.426)" stroke-width="5.0341">
			<path d="m421.13 370.6-0.22191 7.9368-59.069 4.6472-44.514 28.901-10.548 48.313s7.1704 31.227 13.289 37.556c6.1185 6.3295 18.771 24.483 34.384 27.648s28.905 6.7415 41.564 3.5768c12.659-3.1648 21.108-6.9578 21.108-6.9578l5.2738-2.5325s-1.2979 1.1368-3.381 2.5977c25.191-16.15 41.877-44.403 41.877-76.548 0-31.236-15.756-58.786-39.762-75.138z" fill="url(#radialGradient20947)"/>
			<path d="m407.74 341.56s2.2263-5.4915 4.3042-5.6399 3.2652 1.1874 4.601 2.6716c1.3358 1.4842 4.0073 3.7105 4.0073 3.7105s12.17-4.1557 25.825 3.2652 15.584 9.6473 18.256 14.842 1.4842 18.256 1.4842 18.256l1.5955 7.792-3.3766 4.3784-23.747-4.0073-28.348-20.927z" fill="url(#linearGradient365)"/>
			<path d="m421.14 370.6-4.7188 6.4375-54.562 6.125-44.531 28.906-10.531 48.312s7.1627 31.233 13.281 37.562c6.1185 6.3295 18.762 24.492 34.375 27.656s28.904 6.7272 41.562 3.5625c12.659-3.1648 21.125-6.9375 21.125-6.9375l5.2812-2.5312s-1.3232 1.1328-3.4062 2.5938c2.8528-1.829 5.596-3.8413 8.2188-5.9688-14.618 9.149-32.447 13.748-42.562 13.75-37.585 0-68.062-30.446-68.062-68.031 0-13.269 3.2036-26.229 9.7188-36.781 4.5882 1.9701 9.419 5.3197 12.469 10.219 0.49071 0.70737 0.82821 1.5184 1.375 2.1875 2.6922 3.2942 5.6 4.1465 8.5312 4.2812 6.2637 0.18237 9.221-4.494 9.5-10.781 8e-3 -0.4932 0.0453-0.24655 0.0107-0.67835-0.19809-4.1901-6.3732-19.672-16.636-21.447 1.7962-1.3822 3.668-2.6739 5.625-3.8438 6.6097-3.9511 20.654-8.4351 40.125-5.5 9.8747 1.4885 17.965 3.6168 30.438 7.5938 14.475 4.6156 22.519 11.062 33.656 12.344 1.8741 0.21564 3.7659 0.12973 5.5938-0.21875-6.0727-20.1-18.904-37.252-35.875-48.812z" fill="#000000" fill-opacity=".05"/>
			<g>
				<path d="m364.27 330.98c-56.867 0-102.97 46.101-102.97 102.97 0 56.867 46.312 104.54 102.97 104.54 36.962 1.0986 71.25-16.112 82.552-44.152-4.1701 1.9244-8.7572 6.5597-12.216 9.5936-6.5212 5.7205-13.596 6.8798-22.59 11.564-17.433 9.0804-36.288 7.8744-53.877 4.0099-14.297-3.1411-29.978-10.133-38.393-21.316s-13.355-37.742-13.355-37.742l10.6-48.552 44.734-29.044 59.361-4.6702 0.22301-7.9761c8.9613 6.1042 16.776 13.767 23.062 22.59h14.299c-15.883-36.38-52.168-61.815-94.401-61.815z" fill="url(#linearGradient365)"/>
				<path d="m402.89 361.82c-19.941 0.10177-31.554 2.4131-52.246 11.247-26.251 12.212-52.607 35.077-52.755 72.449-0.17297 43.553 35.315 78.856 78.869 78.856 22.506 0 46.742-8.2215 61.108-23.342-15.462 12.947-40.943 17.048-52.974 17.051-37.585 0-68.309-27.961-68.309-65.546 0-23.748 11.64-41.243 30.606-52.58 6.6097-3.9511 20.645-8.4449 40.117-5.5098 9.8747 1.4885 17.963 3.6187 30.435 7.5956 14.475 4.6156 22.538 11.063 33.675 12.345 12.684 1.4594 26.083-10.493 16.188-29.084 0 0-1.7935 1.7897-3.2928 2.6893s-3.5926-0.28861-9.5897-2.3876c-5.9971-2.099-6.9004-4.509-15.296-10.206-8.3959-5.6972-8.3921-11.987-32.98-13.486-1.1526-0.0703-2.3448-0.10399-3.5551-0.0918z" fill="#ced3da"/>
				<circle transform="matrix(.43552 0 0 .43552 200.99 207.89)" cx="542.14" cy="384.5" r="17.857" fill="#363b49"/>
				<circle transform="matrix(.22577 0 0 .28084 343.48 272.83)" cx="542.14" cy="384.5" r="17.857" fill="#363b49"/>
				<path d="m334.29 381.21c-5.0673 1.234-17.416 4.2329-24.752 14.19-7.0462 9.5628-6.4744 20.712-6.6314 23.681 2.0405-3.2847 7.6266-2.8188 11.478-2.223 9.0808 1.4048 18.393 3.8222 24.215 13.174 0.49071 0.70737 0.83913 1.5244 1.3859 2.1935 2.6922 3.2942 5.6018 4.1391 8.5331 4.2738 6.2637 0.18237 9.2212-4.4931 9.5003-10.78 8e-3 -0.4932 2e-3 -0.25694-0.0327-0.68874-0.20697-4.378-6.9274-21.079-18.013-21.593-0.12354-4e-3 -0.24871-3e-3 -0.37117-0.0108-6.149-0.3757-10.928-5.6133-10.749-11.865 0.61735-4.0502 2.5082-7.2531 6.2185-9.8523z" fill="url(#linearGradient365)"/>
				<path d="m463.83 388.19s-1.0096 1.7448-3.187 2.7905c-0.89408 0.42937-2.4642-0.6477-3.9379 0.84949-3.1291 6.281 4.5148 11.525 8.0769 11.377 3.5621-0.14842 6.3723-3.7375 6.2239-6.8543-0.14844-4.8236-7.1759-8.1623-7.1759-8.1623z" fill="#363b49"/>
			</g>
			<path d="m364.27 330.98c-56.867 0-102.97 46.101-102.97 102.97 0 0.88855 0.0168 1.766 0.0395 2.65 1.4302-55.62 46.963-100.27 102.93-100.27 15.678 0 30.543 3.5046 43.842 9.7733 0.70651-1.5265 2.3542-4.7147 3.9356-4.8276 2.0778-0.14841 3.2557 1.192 4.5915 2.6762 1.3358 1.4842 4.0143 3.7126 4.0143 3.7126s12.163-4.1545 25.817 3.2665c13.655 7.421 15.589 9.6424 18.261 14.837 1.1117 2.1616 1.5538 5.6859 1.6923 9.0649 0.14458-4.2719 0.0599-11.01-1.6923-14.417-2.6716-5.1947-4.6064-7.4161-18.261-14.837-13.655-7.421-25.817-3.2665-25.817-3.2665s-2.6785-2.2284-4.0143-3.7126c-1.3358-1.4842-2.5136-2.8246-4.5915-2.6762-1.5814 0.11296-3.2291 3.3012-3.9356 4.8276-13.299-6.2687-28.164-9.7733-43.842-9.7733z" fill="#ffbf1e" fill-opacity=".12239"/>
		</g>
	</g>
</svg>
