<?xml version="1.0" encoding="UTF-8"?>
<!-- Created with Inkscape (http://www.inkscape.org/) -->
<svg width="64" height="64" version="1.1" xmlns="http://www.w3.org/2000/svg" xmlns:cc="http://creativecommons.org/ns#" xmlns:dc="http://purl.org/dc/elements/1.1/" xmlns:rdf="http://www.w3.org/1999/02/22-rdf-syntax-ns#">
	<defs>
		<radialGradient id="c" cx="69.201" cy="56.485" r="32" fx="69.001" fy="20.88" gradientTransform="matrix(.62865 -.62865 .91944 .91944 -40.088 50.549)" gradientUnits="userSpaceOnUse">
			<stop stop-color="#b00036" stop-opacity=".37637" offset="0"/>
			<stop stop-color="#ef0052" stop-opacity="0" offset="1"/>
		</radialGradient>
		<radialGradient id="b" cx="194.96" cy="224.28" r="114" fx="102.46" fy="94.263" gradientTransform="matrix(1 0 0 .95761 0 5.4477)" gradientUnits="userSpaceOnUse">
			<stop stop-color="#99132d" offset="0"/>
			<stop stop-color="#d9112b" offset="1"/>
		</radialGradient>
		<radialGradient id="a" cx="46.066" cy="49.931" r="14.652" fx="35.24" fy="38.569" gradientTransform="matrix(1.3016 0 0 1.2808 -13.501 -14.49)" gradientUnits="userSpaceOnUse">
			<stop stop-color="#ff5b86" offset="0"/>
			<stop stop-color="#ff9921" offset=".52689"/>
			<stop stop-color="#ffde3f" offset="1"/>
		</radialGradient>
	</defs>
	<metadata>
		<rdf:RDF>
			<cc:Work rdf:about="">
				<dc:format>image/svg+xml</dc:format>
				<dc:type rdf:resource="http://purl.org/dc/dcmitype/StillImage"/>
				<dc:title/>
			</cc:Work>
		</rdf:RDF>
	</metadata>
	<path d="m0 2v60l2 2h60l2-2v-60h-32z" color="#000000" fill="#f48a12" style="font-variant-east_asian:normal"/>
	<path d="m0 2v60l2 2h60l2-2v-60h-32z" color="#000000" fill="url(#c)"/>
	<path d="m2 0-2 1v1h64v-1l-2-1h-30z" color="#000000" fill="#fff424"/>
	<path d="m0 1v3l2-2z" fill="#f9ff3f"/>
	<path d="m64 4-2-2 2-1z" fill="#f9bf1c"/>
	<polygon transform="matrix(.22735 0 0 .22735 2.6724 2.7861)" points="158 100.33 243 102.67 175.82 154.68 199.67 237.67 129.5 188.33 57.667 237.67 82.667 154 15 102.33 100.33 100.33 130.5 19.333" fill="url(#b)"/>
	<path transform="translate(.71692 -1.3995)" d="m31.855 17.65c0.63504 0.60757 1.1351 1.0753 1.877 1.8242 1.6647 1.6807 3.1446 3.6793 4.1504 5.0273 3.7263 4.9947 3.3628 9.7631 1.7832 12.289a0.81677 0.81677 0 0 1-1.291 0.12305s-4.0549-4.3535-7.7324-8.3379a0.81677 0.81677 0 0 1 0.02539-1.1348s0.83654-0.82771 1.6445-1.6777c0.40399-0.42501 0.80197-0.85838 1.0703-1.1777 0.0219-0.02606 0.0248-0.03401 0.04492-0.05859-0.04566-0.05715-0.14944-0.18955-0.17969-0.22266-0.05085-0.05565-0.18332-0.14445-0.26758-0.20898-0.2899 0.0768-0.73429 0.22763-1.7891 0.26758-0.90517 0.03432-1.9397 0.01889-2.7598 0.01367-0.41004-0.0026-0.76857-0.0017-1.0117 0.0059-0.06079 0.0019-0.08322 0.0051-0.12695 0.0078-0.22764 0.21264-0.53543 0.48612-1.1035 0.99414-0.67281 0.60167-1.5274 1.3678-2.3691 2.1348-0.84176 0.76695-1.6722 1.537-2.2891 2.1406-0.28242 0.27637-0.50276 0.50528-0.66992 0.6875 0.07106 0.09225 0.1216 0.16499 0.2207 0.2832 0.34723 0.41418 0.83891 0.95152 1.3418 1.4727 0.50289 0.52113 1.0208 1.0298 1.418 1.3867 0.0984 0.08843 0.15447 0.12858 0.23438 0.19531 0.03376-0.02879 0.05319-0.0426 0.08984-0.07422 0.29917-0.25814 0.68704-0.60619 1.0703-0.95117 0.76654-0.68996 1.5117-1.375 1.5117-1.375a0.81677 0.81677 0 0 1 1.1504 0.04687l7.8066 8.4121a0.81677 0.81677 0 0 1-0.19336 1.2637s-2.2734 1.3488-4.8828 1.0879c-1.2305-0.12305-2.3034-0.46547-3.3496-1.1504-1.044-0.68348-2.064-1.6792-3.377-3.123-0.01933 0.0042-0.09551 0.02266-0.20312 0.08984-0.2356 0.14708-0.46875 0.4082-0.46875 0.4082a0.81677 0.81677 0 0 1-0.67188 0.29102l-1.1445-0.06445c-0.08662 0.03776-0.25467 0.10372-0.42773 0.24414-0.10743 0.08717-0.16518 0.17255-0.17188 0.18945s-0.02459-0.04138 0.01758 0.04297c0.1001 0.20021 0.11083 0.45396 0.06836 0.62695s-0.11298 0.28206-0.17578 0.36719c-0.12561 0.17026-0.24149 0.26069-0.36523 0.35547-0.2475 0.18956-0.53821 0.36477-0.87891 0.56836-0.6814 0.40719-1.5446 0.90529-2.293 1.4688s-1.354 1.1994-1.5742 1.7344c-0.22019 0.53496-0.22924 0.94608 0.4082 1.6816 0.59225 0.68336 0.9684 0.73152 1.4883 0.60547 0.51988-0.12605 1.1942-0.59549 1.8223-1.2324 0.62806-0.63693 1.2129-1.4138 1.6719-2.0605 0.22946-0.32339 0.42786-0.61433 0.59375-0.84766 0.08294-0.11666 0.15613-0.21726 0.23047-0.31055s0.11568-0.16858 0.30078-0.30078c0.22571-0.16121 0.546-0.182 0.72656-0.13867s0.27584 0.1092 0.35547 0.16406c0.15925 0.10973 0.25448 0.20927 0.36523 0.32422 0.22151 0.2299 0.47054 0.52008 0.79102 0.85938 0.64095 0.6786 1.5452 1.5358 2.7734 2.2422 2.4565 1.4128 6.1882 2.2956 12.025-0.34766a0.81677 0.81677 0 0 1 0.92578 0.17969s0.40996 0.4264 0.83594 0.85156c0.15805 0.15774 0.30067 0.29388 0.43945 0.42578 0.07324-0.05824 0.12231-0.0926 0.20898-0.16406 0.40204-0.33149 0.92738-0.78924 1.4453-1.2559 0.51793-0.46662 1.0302-0.9451 1.4004-1.3145 0.08175-0.08157 0.12155-0.12829 0.1875-0.19726-0.1898-0.21022-0.43118-0.4627-0.68555-0.71875-0.55685-0.56053-1.1172-1.0918-1.1172-1.0918a0.81677 0.81677 0 0 1-0.0625-1.1211s1.2285-1.4405 1.7812-4.0273c0.55272-2.5868 0.42193-6.2552-2.5547-10.746-0.36471-0.55027-2.7097-3.6436-5.6875-5.5742-1.1688-0.75772-2.6771-1.5741-4.4277-2.3789z" fill="url(#a)"/>
</svg>
