<?xml version="1.0" encoding="UTF-8"?>
<!-- Created with Inkscape (http://www.inkscape.org/) -->
<svg width="64" height="64" version="1.1" xmlns="http://www.w3.org/2000/svg" xmlns:cc="http://creativecommons.org/ns#" xmlns:dc="http://purl.org/dc/elements/1.1/" xmlns:rdf="http://www.w3.org/1999/02/22-rdf-syntax-ns#">
	<defs>
		<radialGradient id="a" cx="39.876" cy="43.845" r="32" gradientTransform="matrix(1.3226 0 0 1.2812 -10.74 -16.174)" gradientUnits="userSpaceOnUse">
			<stop stop-color="#acb5c3" offset="0"/>
			<stop stop-color="#bfccd6" offset="1"/>
		</radialGradient>
	</defs>
	<metadata>
		<rdf:RDF>
			<cc:Work rdf:about="">
				<dc:format>image/svg+xml</dc:format>
				<dc:type rdf:resource="http://purl.org/dc/dcmitype/StillImage"/>
				<dc:title/>
			</cc:Work>
		</rdf:RDF>
	</metadata>
	<path d="m0 2v60l2 2h60l2-2v-60h-32z" color="#000000" fill="url(#a)"/>
	<path d="m2 0-2 1v1h64v-1l-2-1h-30z" color="#000000" fill="#eceef0"/>
	<path d="m0 1v3l2-2z" fill="#f5f7f8"/>
	<path d="m64 4-2-2 2-1z" fill="#d6dde3"/>
	<g transform="translate(0,-1)" fill="#003380" opacity=".344" shape-rendering="auto">
		<path d="m22.514 28.088a1.1567 1.1567 0 0 0-1.0007 1.7348l19.248 33.337a1.1567 1.1567 0 0 0 2.0014 0l19.248-33.337a1.1567 1.1567 0 0 0-1.0007-1.7348zm5.8979 4.5245h29.318l-14.658 25.388z" color="#000000" color-rendering="auto" dominant-baseline="auto" fill-opacity=".0039216" image-rendering="auto" opacity="1" solid-color="#000000" style="font-feature-settings:normal;font-variant-alternates:normal;font-variant-caps:normal;font-variant-ligatures:normal;font-variant-numeric:normal;font-variant-position:normal;isolation:auto;mix-blend-mode:normal;paint-order:normal;shape-padding:0;text-decoration-color:#000000;text-decoration-line:none;text-decoration-style:solid;text-indent:0;text-orientation:mixed;text-transform:none;white-space:normal"/>
		<path d="m15.357 21.088a1.0001 1.0001 0 0 0-0.86523 1.5l16.643 28.824a1.0001 1.0001 0 0 0 1.7305 0l16.643-28.824a1.0001 1.0001 0 0 0-0.86523-1.5zm5.0996 3.9121h25.35l-12.674 21.951z" color="#000000" color-rendering="auto" dominant-baseline="auto" fill-opacity=".05098" image-rendering="auto" opacity="1" solid-color="#000000" style="font-feature-settings:normal;font-variant-alternates:normal;font-variant-caps:normal;font-variant-ligatures:normal;font-variant-numeric:normal;font-variant-position:normal;isolation:auto;mix-blend-mode:normal;paint-order:normal;shape-padding:0;text-decoration-color:#000000;text-decoration-line:none;text-decoration-style:solid;text-indent:0;text-orientation:mixed;text-transform:none;white-space:normal"/>
		<g>
			<path d="m22.514 28.088c-0.413 3.98e-4 -0.79445 0.22098-1.0008 0.57873-0.20636 0.35775-0.20631 0.79839 1.29e-4 1.1561 0 0 19.248 33.337 19.248 33.337 0.20688 0.35688 0.58817 0.57658 1.0007 0.57658s0.7938-0.21969 1.0007-0.57658l19.248-33.337c0.20644-0.3577 0.20649-0.79834 1.29e-4 -1.1561-0.20636-0.35775-0.58781-0.57833-1.0008-0.57873h-38.496m5.8979 4.5245h29.318l-14.658 25.388-14.66-25.388" color="#000000" color-rendering="auto" dominant-baseline="auto" fill-opacity=".0039216" image-rendering="auto" opacity="1" solid-color="#000000" style="font-feature-settings:normal;font-variant-alternates:normal;font-variant-caps:normal;font-variant-ligatures:normal;font-variant-numeric:normal;font-variant-position:normal;isolation:auto;mix-blend-mode:normal;paint-order:normal;shape-padding:0;text-decoration-color:#000000;text-decoration-line:none;text-decoration-style:solid;text-indent:0;text-orientation:mixed;text-transform:none;white-space:normal"/>
			<path d="m21.229 26.831c-0.40296 3.89e-4 -0.77514 0.2156-0.97648 0.56466s-0.20129 0.77898 1.26e-4 1.128l18.78 32.526c0.20185 0.34821 0.57387 0.56256 0.97636 0.56256s0.7745-0.21435 0.97636-0.56256l18.78-32.526c0.20142-0.34901 0.20147-0.77893 1.25e-4 -1.128-0.20134-0.34905-0.57352-0.56427-0.97648-0.56466h-37.56m5.7546 4.4145h28.605l-14.302 24.77-14.304-24.77" color="#000000" color-rendering="auto" dominant-baseline="auto" fill-opacity=".012374" image-rendering="auto" opacity="1" solid-color="#000000" style="font-feature-settings:normal;font-variant-alternates:normal;font-variant-caps:normal;font-variant-ligatures:normal;font-variant-numeric:normal;font-variant-position:normal;isolation:auto;mix-blend-mode:normal;paint-order:normal;shape-padding:0;text-decoration-color:#000000;text-decoration-line:none;text-decoration-style:solid;text-indent:0;text-orientation:mixed;text-transform:none;white-space:normal"/>
			<path d="m20.696 26.31c-0.3988 3.85e-4 -0.76714 0.21338-0.9664 0.55883-0.19926 0.34545-0.19922 0.77094 1.24e-4 1.1163l18.586 32.19c0.19977 0.34461 0.56795 0.55675 0.96628 0.55675s0.76651-0.21214 0.96628-0.55675l18.586-32.19c0.19934-0.34541 0.19939-0.7709 1.25e-4 -1.1163s-0.5676-0.55845-0.9664-0.55883h-37.172m5.6952 4.369h28.31s-14.154 24.515-14.154 24.515l-14.156-24.515" color="#000000" color-rendering="auto" dominant-baseline="auto" fill-opacity=".015875" image-rendering="auto" opacity="1" solid-color="#000000" style="font-feature-settings:normal;font-variant-alternates:normal;font-variant-caps:normal;font-variant-ligatures:normal;font-variant-numeric:normal;font-variant-position:normal;isolation:auto;mix-blend-mode:normal;paint-order:normal;shape-padding:0;text-decoration-color:#000000;text-decoration-line:none;text-decoration-style:solid;text-indent:0;text-orientation:mixed;text-transform:none;white-space:normal"/>
			<path d="m20.288 25.91c-0.39561 3.81e-4 -0.761 0.21167-0.95867 0.55436-0.19767 0.34269-0.19762 0.76477 1.24e-4 1.1074l18.437 31.933c0.19817 0.34186 0.56341 0.5523 0.95855 0.5523 0.39514 0 0.76038-0.21044 0.95855-0.5523l18.437-31.933c0.19775-0.34264 0.19779-0.76473 1.24e-4 -1.1074-0.19767-0.34269-0.56306-0.55398-0.95867-0.55436h-36.875m5.6496 4.334h28.084l-14.041 24.319s-14.043-24.319-14.043-24.319" color="#000000" color-rendering="auto" dominant-baseline="auto" fill-opacity=".018561" image-rendering="auto" opacity="1" solid-color="#000000" style="font-feature-settings:normal;font-variant-alternates:normal;font-variant-caps:normal;font-variant-ligatures:normal;font-variant-numeric:normal;font-variant-position:normal;isolation:auto;mix-blend-mode:normal;paint-order:normal;shape-padding:0;text-decoration-color:#000000;text-decoration-line:none;text-decoration-style:solid;text-indent:0;text-orientation:mixed;text-transform:none;white-space:normal"/>
			<path d="m19.943 25.573c-0.39292 3.79e-4 -0.75583 0.21023-0.95215 0.55059-0.19633 0.34036-0.19628 0.75957 1.22e-4 1.0999l18.312 31.716c0.19682 0.33953 0.55957 0.54854 0.95203 0.54854 0.39245 0 0.75521-0.20901 0.95203-0.54854l18.312-31.716c0.1964-0.34031 0.19645-0.75953 1.23e-4 -1.0999-0.19632-0.34036-0.55923-0.55021-0.95215-0.55059h-36.624m5.6112 4.3045h27.893l-13.945 24.153s-13.947-24.153-13.947-24.153" color="#000000" color-rendering="auto" dominant-baseline="auto" fill-opacity=".020826" image-rendering="auto" opacity="1" solid-color="#000000" style="font-feature-settings:normal;font-variant-alternates:normal;font-variant-caps:normal;font-variant-ligatures:normal;font-variant-numeric:normal;font-variant-position:normal;isolation:auto;mix-blend-mode:normal;paint-order:normal;shape-padding:0;text-decoration-color:#000000;text-decoration-line:none;text-decoration-style:solid;text-indent:0;text-orientation:mixed;text-transform:none;white-space:normal"/>
			<path d="m19.64 25.277c-0.39055 3.76e-4 -0.75127 0.20896-0.94641 0.54727-0.19514 0.3383-0.19509 0.75499 1.22e-4 1.0932l18.202 31.524c0.19564 0.33748 0.5562 0.54523 0.94629 0.54523s0.75065-0.20775 0.94629-0.54523c0 0 18.202-31.524 18.202-31.524 0.19522-0.33826 0.19526-0.75494 1.22e-4 -1.0932-0.19514-0.3383-0.55586-0.54689-0.94641-0.54727h-36.403m5.5773 4.2786h27.724l-13.861 24.007s-13.863-24.007-13.863-24.007" color="#000000" color-rendering="auto" dominant-baseline="auto" fill-opacity=".022821" image-rendering="auto" opacity="1" solid-color="#000000" style="font-feature-settings:normal;font-variant-alternates:normal;font-variant-caps:normal;font-variant-ligatures:normal;font-variant-numeric:normal;font-variant-position:normal;isolation:auto;mix-blend-mode:normal;paint-order:normal;shape-padding:0;text-decoration-color:#000000;text-decoration-line:none;text-decoration-style:solid;text-indent:0;text-orientation:mixed;text-transform:none;white-space:normal"/>
			<path d="m19.365 25.008c-0.38841 3.75e-4 -0.74714 0.20782-0.94122 0.54426-0.19407 0.33645-0.19402 0.75084 1.21e-4 1.0872l18.102 31.351c0.19456 0.33563 0.55315 0.54224 0.94109 0.54224 0.38795 0 0.74653-0.20661 0.94109-0.54224l18.102-31.351c0.19415-0.3364 0.19419-0.7508 1.21e-4 -1.0872-0.19407-0.33645-0.55281-0.54389-0.94122-0.54426h-36.203m5.5467 4.2551h27.572l-13.785 23.876s-13.787-23.876-13.787-23.876" color="#000000" color-rendering="auto" dominant-baseline="auto" fill-opacity=".024625" image-rendering="auto" opacity="1" solid-color="#000000" style="font-feature-settings:normal;font-variant-alternates:normal;font-variant-caps:normal;font-variant-ligatures:normal;font-variant-numeric:normal;font-variant-position:normal;isolation:auto;mix-blend-mode:normal;paint-order:normal;shape-padding:0;text-decoration-color:#000000;text-decoration-line:none;text-decoration-style:solid;text-indent:0;text-orientation:mixed;text-transform:none;white-space:normal"/>
			<path d="m19.113 24.762c-0.38644 3.72e-4 -0.74335 0.20676-0.93644 0.5415s-0.19304 0.74704 1.21e-4 1.0817c0 0 18.01 31.192 18.01 31.192 0.19358 0.33393 0.55034 0.53949 0.93632 0.53949 0.38598 0 0.74274-0.20556 0.93632-0.53949 0 0 18.01-31.192 18.01-31.192 0.19316-0.3347 0.19321-0.74699 1.2e-4 -1.0817s-0.55-0.54113-0.93644-0.5415h-36.02m5.5186 4.2335h27.432l-13.715 23.755-13.717-23.755" color="#000000" color-rendering="auto" dominant-baseline="auto" fill-opacity=".026283" image-rendering="auto" opacity="1" solid-color="#000000" style="font-feature-settings:normal;font-variant-alternates:normal;font-variant-caps:normal;font-variant-ligatures:normal;font-variant-numeric:normal;font-variant-position:normal;isolation:auto;mix-blend-mode:normal;paint-order:normal;shape-padding:0;text-decoration-color:#000000;text-decoration-line:none;text-decoration-style:solid;text-indent:0;text-orientation:mixed;text-transform:none;white-space:normal"/>
			<path d="m18.878 24.532c-0.3846 3.71e-4 -0.73983 0.20578-0.932 0.53893-0.19217 0.33315-0.19212 0.74349 1.2e-4 1.0766 0 0 17.924 31.044 17.924 31.044 0.19266 0.33234 0.54773 0.53693 0.93188 0.53693 0.38415 0 0.73922-0.20459 0.93188-0.53693 0 0 17.924-31.044 17.924-31.044 0.19224-0.33311 0.19229-0.74345 1.2e-4 -1.0766-0.19217-0.33315-0.54739-0.53856-0.932-0.53893h-35.849m5.4924 4.2134h27.302l-13.65 23.642s-13.652-23.642-13.652-23.642" color="#000000" color-rendering="auto" dominant-baseline="auto" fill-opacity=".027827" image-rendering="auto" opacity="1" solid-color="#000000" style="font-feature-settings:normal;font-variant-alternates:normal;font-variant-caps:normal;font-variant-ligatures:normal;font-variant-numeric:normal;font-variant-position:normal;isolation:auto;mix-blend-mode:normal;paint-order:normal;shape-padding:0;text-decoration-color:#000000;text-decoration-line:none;text-decoration-style:solid;text-indent:0;text-orientation:mixed;text-transform:none;white-space:normal"/>
			<path d="m18.658 24.316c-0.38288 3.69e-4 -0.73651 0.20486-0.92782 0.53652-0.19131 0.33166-0.19126 0.74016 1.2e-4 1.0718 0 0 17.844 30.905 17.844 30.905 0.19179 0.33086 0.54528 0.53452 0.9277 0.53452s0.73591-0.20367 0.9277-0.53452c0 0 17.844-30.905 17.844-30.905 0.19138-0.33162 0.19143-0.74012 1.19e-4 -1.0718-0.19131-0.33166-0.54494-0.53615-0.92782-0.53652h-35.688m5.4678 4.1946h27.18s-13.589 23.536-13.589 23.536-13.591-23.536-13.591-23.536" color="#000000" color-rendering="auto" dominant-baseline="auto" fill-opacity=".029278" image-rendering="auto" opacity="1" solid-color="#000000" style="font-feature-settings:normal;font-variant-alternates:normal;font-variant-caps:normal;font-variant-ligatures:normal;font-variant-numeric:normal;font-variant-position:normal;isolation:auto;mix-blend-mode:normal;paint-order:normal;shape-padding:0;text-decoration-color:#000000;text-decoration-line:none;text-decoration-style:solid;text-indent:0;text-orientation:mixed;text-transform:none;white-space:normal"/>
			<path d="m18.449 24.112c-0.38125 3.67e-4 -0.73338 0.20399-0.92387 0.53424-0.19049 0.33025-0.19045 0.73701 1.19e-4 1.0672l17.768 30.774c0.19098 0.32945 0.54296 0.53225 0.92375 0.53225 0.3808 0 0.73278-0.2028 0.92375-0.53225l17.768-30.774c0.19057-0.3302 0.19061-0.73697 1.19e-4 -1.0672-0.19049-0.33025-0.54262-0.53387-0.92387-0.53424h-35.536m5.4445 4.1767h27.064l-13.531 23.436-13.533-23.436" color="#000000" color-rendering="auto" dominant-baseline="auto" fill-opacity=".030649" image-rendering="auto" opacity="1" solid-color="#000000" style="font-feature-settings:normal;font-variant-alternates:normal;font-variant-caps:normal;font-variant-ligatures:normal;font-variant-numeric:normal;font-variant-position:normal;isolation:auto;mix-blend-mode:normal;paint-order:normal;shape-padding:0;text-decoration-color:#000000;text-decoration-line:none;text-decoration-style:solid;text-indent:0;text-orientation:mixed;text-transform:none;white-space:normal"/>
			<path d="m18.251 23.918c-0.3797 3.66e-4 -0.7304 0.20316-0.92012 0.53206-0.18972 0.32891-0.18968 0.73402 1.18e-4 1.0629l17.696 30.649c0.1902 0.32811 0.54075 0.53009 0.92 0.53009 0.37925 0 0.7298-0.20198 0.92-0.53009l17.696-30.649c0.18979-0.32886 0.18984-0.73397 1.19e-4 -1.0629-0.18972-0.3289-0.54042-0.5317-0.92012-0.53206h-35.392m5.4224 4.1597h26.954l-13.476 23.341s-13.478-23.341-13.478-23.341" color="#000000" color-rendering="auto" dominant-baseline="auto" fill-opacity=".031954" image-rendering="auto" opacity="1" solid-color="#000000" style="font-feature-settings:normal;font-variant-alternates:normal;font-variant-caps:normal;font-variant-ligatures:normal;font-variant-numeric:normal;font-variant-position:normal;isolation:auto;mix-blend-mode:normal;paint-order:normal;shape-padding:0;text-decoration-color:#000000;text-decoration-line:none;text-decoration-style:solid;text-indent:0;text-orientation:mixed;text-transform:none;white-space:normal"/>
			<path d="m18.061 23.733c-0.37822 3.64e-4 -0.72755 0.20237-0.91653 0.52999-0.18898 0.32762-0.18894 0.73115 1.19e-4 1.0587 0 0 17.627 30.529 17.627 30.529 0.18946 0.32683 0.53864 0.52802 0.91641 0.52802 0.37777 0 0.72695-0.20119 0.91641-0.52802 0 0 17.627-30.529 17.627-30.529 0.18905-0.32758 0.1891-0.73111 1.18e-4 -1.0587-0.18898-0.32762-0.53831-0.52962-0.91653-0.52999h-35.254m5.4012 4.1435h26.849l-13.423 23.25s-13.426-23.25-13.426-23.25" color="#000000" color-rendering="auto" dominant-baseline="auto" fill-opacity=".0332" image-rendering="auto" opacity="1" solid-color="#000000" style="font-feature-settings:normal;font-variant-alternates:normal;font-variant-caps:normal;font-variant-ligatures:normal;font-variant-numeric:normal;font-variant-position:normal;isolation:auto;mix-blend-mode:normal;paint-order:normal;shape-padding:0;text-decoration-color:#000000;text-decoration-line:none;text-decoration-style:solid;text-indent:0;text-orientation:mixed;text-transform:none;white-space:normal"/>
			<path d="m17.88 23.555c-0.3768 3.63e-4 -0.72482 0.20161-0.91309 0.528-0.18827 0.32639-0.18823 0.72841 1.17e-4 1.0548l17.561 30.414c0.18875 0.3256 0.53662 0.52604 0.91297 0.52604s0.72422-0.20044 0.91297-0.52604l17.561-30.414c0.18834-0.32635 0.18839-0.72836 1.18e-4 -1.0548-0.18827-0.32639-0.53629-0.52764-0.91309-0.528h-35.122m5.381 4.1279h26.748l-13.373 23.162-13.375-23.162" color="#000000" color-rendering="auto" dominant-baseline="auto" fill-opacity=".034396" image-rendering="auto" opacity="1" solid-color="#000000" style="font-feature-settings:normal;font-variant-alternates:normal;font-variant-caps:normal;font-variant-ligatures:normal;font-variant-numeric:normal;font-variant-position:normal;isolation:auto;mix-blend-mode:normal;paint-order:normal;shape-padding:0;text-decoration-color:#000000;text-decoration-line:none;text-decoration-style:solid;text-indent:0;text-orientation:mixed;text-transform:none;white-space:normal"/>
			<path d="m17.705 23.384c-0.37543 3.62e-4 -0.72219 0.20088-0.90978 0.52608s-0.18754 0.72576 1.17e-4 1.0509c0 0 17.497 30.304 17.497 30.304 0.18806 0.32442 0.53467 0.52413 0.90966 0.52413s0.7216-0.19971 0.90966-0.52413l17.497-30.304c0.18766-0.32517 0.18771-0.72572 1.18e-4 -1.0509s-0.53434-0.52572-0.90978-0.52608h-34.994m5.3614 4.113h26.651l-13.325 23.078-13.327-23.078" color="#000000" color-rendering="auto" dominant-baseline="auto" fill-opacity=".035546" image-rendering="auto" opacity="1" solid-color="#000000" style="font-feature-settings:normal;font-variant-alternates:normal;font-variant-caps:normal;font-variant-ligatures:normal;font-variant-numeric:normal;font-variant-position:normal;isolation:auto;mix-blend-mode:normal;paint-order:normal;shape-padding:0;text-decoration-color:#000000;text-decoration-line:none;text-decoration-style:solid;text-indent:0;text-orientation:mixed;text-transform:none;white-space:normal"/>
			<path d="m17.536 23.219c-0.37412 3.61e-4 -0.71965 0.20017-0.90658 0.52424-0.18693 0.32407-0.18688 0.72322 1.17e-4 1.0472 0 0 17.436 30.198 17.436 30.198 0.1874 0.32328 0.53279 0.52229 0.90646 0.52229s0.71906-0.19901 0.90646-0.52229c0 0 17.436-30.198 17.436-30.198 0.187-0.32402 0.18704-0.72317 1.16e-4 -1.0472-0.18693-0.32407-0.53247-0.52388-0.90658-0.52424h-34.871m5.3426 4.0985h26.558l-13.278 22.997-13.28-22.997" color="#000000" color-rendering="auto" dominant-baseline="auto" fill-opacity=".036656" image-rendering="auto" opacity="1" solid-color="#000000" style="font-feature-settings:normal;font-variant-alternates:normal;font-variant-caps:normal;font-variant-ligatures:normal;font-variant-numeric:normal;font-variant-position:normal;isolation:auto;mix-blend-mode:normal;paint-order:normal;shape-padding:0;text-decoration-color:#000000;text-decoration-line:none;text-decoration-style:solid;text-indent:0;text-orientation:mixed;text-transform:none;white-space:normal"/>
			<path d="m17.373 23.059c-0.37284 3.6e-4 -0.7172 0.19949-0.90349 0.52245s-0.18625 0.72075 1.17e-4 1.0437l17.376 30.095c0.18676 0.32218 0.53098 0.52051 0.90337 0.52051s0.71661-0.19833 0.90337-0.52051l17.376-30.095c0.18636-0.32292 0.18641-0.72071 1.17e-4 -1.0437s-0.53065-0.52209-0.90349-0.52245h-34.752m5.3244 4.0846h26.467l-13.232 22.919-13.235-22.919" color="#000000" color-rendering="auto" dominant-baseline="auto" fill-opacity=".03773" image-rendering="auto" opacity="1" solid-color="#000000" style="font-feature-settings:normal;font-variant-alternates:normal;font-variant-caps:normal;font-variant-ligatures:normal;font-variant-numeric:normal;font-variant-position:normal;isolation:auto;mix-blend-mode:normal;paint-order:normal;shape-padding:0;text-decoration-color:#000000;text-decoration-line:none;text-decoration-style:solid;text-indent:0;text-orientation:mixed;text-transform:none;white-space:normal"/>
			<path d="m17.214 22.904c-0.3716 3.59e-4 -0.71482 0.19883-0.9005 0.52072-0.18567 0.32189-0.18563 0.71836 1.16e-4 1.0402l17.319 29.995c0.18614 0.32111 0.52922 0.51878 0.90038 0.51878 0.37116 0 0.71424-0.19767 0.90038-0.51878l17.319-29.995c0.18575-0.32185 0.18579-0.71832 1.16e-4 -1.0402-0.18567-0.32189-0.52889-0.52036-0.9005-0.52072h-34.637m5.3068 4.071h26.379s-13.189 22.843-13.189 22.843l-13.191-22.843" color="#000000" color-rendering="auto" dominant-baseline="auto" fill-opacity=".03877" image-rendering="auto" opacity="1" solid-color="#000000" style="font-feature-settings:normal;font-variant-alternates:normal;font-variant-caps:normal;font-variant-ligatures:normal;font-variant-numeric:normal;font-variant-position:normal;isolation:auto;mix-blend-mode:normal;paint-order:normal;shape-padding:0;text-decoration-color:#000000;text-decoration-line:none;text-decoration-style:solid;text-indent:0;text-orientation:mixed;text-transform:none;white-space:normal"/>
			<path d="m17.061 22.754c-0.3704 3.58e-4 -0.71251 0.19818-0.89759 0.51904-0.18508 0.32085-0.18503 0.71604 1.15e-4 1.0369 0 0 17.263 29.898 17.263 29.898 0.18554 0.32007 0.52751 0.51711 0.89747 0.51711s0.71193-0.19703 0.89747-0.51711c0 0 17.263-29.898 17.263-29.898 0.18515-0.32081 0.18519-0.716 1.16e-4 -1.0369-0.18508-0.32085-0.52718-0.51868-0.89759-0.51904h-34.525m5.2896 4.0579h26.294l-13.146 22.769-13.148-22.769" color="#000000" color-rendering="auto" dominant-baseline="auto" fill-opacity=".03978" image-rendering="auto" opacity="1" solid-color="#000000" style="font-feature-settings:normal;font-variant-alternates:normal;font-variant-caps:normal;font-variant-ligatures:normal;font-variant-numeric:normal;font-variant-position:normal;isolation:auto;mix-blend-mode:normal;paint-order:normal;shape-padding:0;text-decoration-color:#000000;text-decoration-line:none;text-decoration-style:solid;text-indent:0;text-orientation:mixed;text-transform:none;white-space:normal"/>
			<path d="m16.911 22.608c-0.36924 3.56e-4 -0.71027 0.19756-0.89476 0.5174-0.18449 0.31984-0.18445 0.71378 1.15e-4 1.0336l17.208 29.804c0.18496 0.31906 0.52584 0.51548 0.89464 0.51548 0.3688 0 0.70968-0.19641 0.89464-0.51548l17.208-29.804c0.18456-0.3198 0.18461-0.71374 1.16e-4 -1.0336-0.18449-0.31984-0.52552-0.51704-0.89476-0.5174h-34.416m5.2729 4.0451h26.211l-13.105 22.697-13.107-22.697" color="#000000" color-rendering="auto" dominant-baseline="auto" fill-opacity=".040763" image-rendering="auto" opacity="1" solid-color="#000000" style="font-feature-settings:normal;font-variant-alternates:normal;font-variant-caps:normal;font-variant-ligatures:normal;font-variant-numeric:normal;font-variant-position:normal;isolation:auto;mix-blend-mode:normal;paint-order:normal;shape-padding:0;text-decoration-color:#000000;text-decoration-line:none;text-decoration-style:solid;text-indent:0;text-orientation:mixed;text-transform:none;white-space:normal"/>
			<path d="m16.766 22.465c-0.3681 3.54e-4 -0.70808 0.19695-0.892 0.51581-0.18392 0.31886-0.18388 0.71159 1.15e-4 1.0304l17.155 29.712c0.18439 0.31808 0.52423 0.51389 0.89189 0.51389 0.36766 0 0.7075-0.19581 0.89189-0.51389l17.155-29.712c0.18399-0.31882 0.18404-0.71155 1.15e-4 -1.0304-0.18392-0.31886-0.5239-0.51545-0.892-0.51581h-34.311m5.2567 4.0326h26.131s-13.064 22.627-13.064 22.627-13.066-22.627-13.066-22.627" color="#000000" color-rendering="auto" dominant-baseline="auto" fill-opacity=".04172" image-rendering="auto" opacity="1" solid-color="#000000" style="font-feature-settings:normal;font-variant-alternates:normal;font-variant-caps:normal;font-variant-ligatures:normal;font-variant-numeric:normal;font-variant-position:normal;isolation:auto;mix-blend-mode:normal;paint-order:normal;shape-padding:0;text-decoration-color:#000000;text-decoration-line:none;text-decoration-style:solid;text-indent:0;text-orientation:mixed;text-transform:none;white-space:normal"/>
			<path d="m16.624 22.327c-0.36699 3.53e-4 -0.70595 0.19636-0.88932 0.51425s-0.18332 0.70944 1.15e-4 1.0273c0 0 17.104 29.623 17.104 29.623 0.18383 0.31712 0.52265 0.51234 0.8892 0.51234s0.70537-0.19522 0.8892-0.51234c0 0 17.104-29.623 17.104-29.623 0.18344-0.31785 0.18348-0.7094 1.15e-4 -1.0273s-0.52233-0.5139-0.88932-0.51425h-34.207m5.2409 4.0205h26.052l-13.025 22.559-13.027-22.559" color="#000000" color-rendering="auto" dominant-baseline="auto" fill-opacity=".042654" image-rendering="auto" opacity="1" solid-color="#000000" style="font-feature-settings:normal;font-variant-alternates:normal;font-variant-caps:normal;font-variant-ligatures:normal;font-variant-numeric:normal;font-variant-position:normal;isolation:auto;mix-blend-mode:normal;paint-order:normal;shape-padding:0;text-decoration-color:#000000;text-decoration-line:none;text-decoration-style:solid;text-indent:0;text-orientation:mixed;text-transform:none;white-space:normal"/>
			<path d="m16.485 22.191c-0.36591 3.53e-4 -0.70386 0.19578-0.88669 0.51274-0.18283 0.31696-0.18278 0.70735 1.14e-4 1.0243 0 0 17.053 29.535 17.053 29.535 0.18329 0.31619 0.5211 0.51083 0.88658 0.51083 0.36547 0 0.70329-0.19464 0.88658-0.51083 0 0 17.053-29.535 17.053-29.535 0.1829-0.31692 0.18294-0.70731 1.15e-4 -1.0243-0.18283-0.31696-0.52078-0.51238-0.88669-0.51274h-34.106m5.2254 4.0086h25.975l-12.986 22.493-12.988-22.493" color="#000000" color-rendering="auto" dominant-baseline="auto" fill-opacity=".043565" image-rendering="auto" opacity="1" solid-color="#000000" style="font-feature-settings:normal;font-variant-alternates:normal;font-variant-caps:normal;font-variant-ligatures:normal;font-variant-numeric:normal;font-variant-position:normal;isolation:auto;mix-blend-mode:normal;paint-order:normal;shape-padding:0;text-decoration-color:#000000;text-decoration-line:none;text-decoration-style:solid;text-indent:0;text-orientation:mixed;text-transform:none;white-space:normal"/>
			<path d="m16.35 22.058c-0.36485 3.52e-4 -0.70183 0.19521-0.88413 0.51125-0.1823 0.31604-0.18226 0.7053 1.14e-4 1.0213 0 0 17.004 29.45 17.004 29.45 0.18276 0.31527 0.5196 0.50935 0.88401 0.50935 0.36442 0 0.70125-0.19408 0.88401-0.50935 0 0 17.004-29.45 17.004-29.45 0.18237-0.316 0.18241-0.70526 1.14e-4 -1.0213-0.1823-0.31604-0.51928-0.5109-0.88413-0.51125h-34.008m5.2103 3.997h25.9l-12.949 22.428s-12.951-22.428-12.951-22.428" color="#000000" color-rendering="auto" dominant-baseline="auto" fill-opacity=".044456" image-rendering="auto" opacity="1" solid-color="#000000" style="font-feature-settings:normal;font-variant-alternates:normal;font-variant-caps:normal;font-variant-ligatures:normal;font-variant-numeric:normal;font-variant-position:normal;isolation:auto;mix-blend-mode:normal;paint-order:normal;shape-padding:0;text-decoration-color:#000000;text-decoration-line:none;text-decoration-style:solid;text-indent:0;text-orientation:mixed;text-transform:none;white-space:normal"/>
			<path d="m16.217 21.929c-0.36381 3.51e-4 -0.69984 0.19466-0.88162 0.5098-0.18178 0.31514-0.18174 0.7033 1.14e-4 1.0184l16.956 29.366c0.18224 0.31438 0.51812 0.50791 0.8815 0.50791 0.36338 0 0.69926-0.19353 0.8815-0.50791l16.956-29.366c0.18185-0.3151 0.1819-0.70326 1.14e-4 -1.0184-0.18178-0.31514-0.5178-0.50945-0.88162-0.5098h-33.911m5.1955 3.9857h25.826s-12.912 22.364-12.912 22.364l-12.914-22.364" color="#000000" color-rendering="auto" dominant-baseline="auto" fill-opacity=".045328" image-rendering="auto" opacity="1" solid-color="#000000" style="font-feature-settings:normal;font-variant-alternates:normal;font-variant-caps:normal;font-variant-ligatures:normal;font-variant-numeric:normal;font-variant-position:normal;isolation:auto;mix-blend-mode:normal;paint-order:normal;shape-padding:0;text-decoration-color:#000000;text-decoration-line:none;text-decoration-style:solid;text-indent:0;text-orientation:mixed;text-transform:none;white-space:normal"/>
			<path d="m16.087 21.802c-0.3628 3.5e-4 -0.69788 0.19412-0.87916 0.50838s-0.18123 0.70134 1.13e-4 1.0156c0 0 16.908 29.284 16.908 29.284 0.18173 0.3135 0.51668 0.50649 0.87905 0.50649s0.69731-0.19299 0.87905-0.50649c0 0 16.908-29.284 16.908-29.284 0.18134-0.31422 0.18139-0.7013 1.13e-4 -1.0156s-0.51636-0.50803-0.87916-0.50838h-33.817m5.181 3.9746h25.754s-12.876 22.302-12.876 22.302l-12.878-22.302" color="#000000" color-rendering="auto" dominant-baseline="auto" fill-opacity=".046182" image-rendering="auto" opacity="1" solid-color="#000000" style="font-feature-settings:normal;font-variant-alternates:normal;font-variant-caps:normal;font-variant-ligatures:normal;font-variant-numeric:normal;font-variant-position:normal;isolation:auto;mix-blend-mode:normal;paint-order:normal;shape-padding:0;text-decoration-color:#000000;text-decoration-line:none;text-decoration-style:solid;text-indent:0;text-orientation:mixed;text-transform:none;white-space:normal"/>
			<path d="m15.96 21.677c-0.3618 3.49e-4 -0.69597 0.19358-0.87675 0.50699-0.18078 0.3134-0.18074 0.69942 1.13e-4 1.0128 0 0 16.862 29.204 16.862 29.204 0.18124 0.31264 0.51526 0.5051 0.87664 0.5051 0.36138 0 0.6954-0.19246 0.87664-0.5051 0 0 16.862-29.204 16.862-29.204 0.18085-0.31336 0.18089-0.69938 1.13e-4 -1.0128-0.18078-0.3134-0.51495-0.50664-0.87675-0.50699h-33.724m5.1668 3.9637h25.684l-12.841 22.24-12.843-22.24" color="#000000" color-rendering="auto" dominant-baseline="auto" fill-opacity=".047019" image-rendering="auto" opacity="1" solid-color="#000000" style="font-feature-settings:normal;font-variant-alternates:normal;font-variant-caps:normal;font-variant-ligatures:normal;font-variant-numeric:normal;font-variant-position:normal;isolation:auto;mix-blend-mode:normal;paint-order:normal;shape-padding:0;text-decoration-color:#000000;text-decoration-line:none;text-decoration-style:solid;text-indent:0;text-orientation:mixed;text-transform:none;white-space:normal"/>
			<path d="m15.835 21.555c-0.36083 3.48e-4 -0.6941 0.19306-0.87439 0.50562s-0.18025 0.69753 1.12e-4 1.0101l16.816 29.125c0.18075 0.3118 0.51387 0.50374 0.87427 0.50374s0.69353-0.19194 0.87427-0.50374l16.816-29.125c0.18036-0.31252 0.1804-0.69749 1.13e-4 -1.0101s-0.51356-0.50527-0.87439-0.50562h-33.633m5.1529 3.953h25.614l-12.806 22.181s-12.808-22.181-12.808-22.181" color="#000000" color-rendering="auto" dominant-baseline="auto" fill-opacity=".04784" image-rendering="auto" opacity="1" solid-color="#000000" style="font-feature-settings:normal;font-variant-alternates:normal;font-variant-caps:normal;font-variant-ligatures:normal;font-variant-numeric:normal;font-variant-position:normal;isolation:auto;mix-blend-mode:normal;paint-order:normal;shape-padding:0;text-decoration-color:#000000;text-decoration-line:none;text-decoration-style:solid;text-indent:0;text-orientation:mixed;text-transform:none;white-space:normal"/>
			<path d="m15.713 21.435c-0.35987 3.47e-4 -0.69225 0.19255-0.87207 0.50428-0.17981 0.31173-0.17977 0.69568 1.13e-4 1.0074l16.772 29.048c0.18027 0.31097 0.51251 0.5024 0.87196 0.5024 0.35944 0 0.69169-0.19143 0.87196-0.5024l16.772-29.048c0.17988-0.31169 0.17992-0.69564 1.12e-4 -1.0074-0.17981-0.31173-0.5122-0.50393-0.87207-0.50428h-33.544m5.1392 3.9425h25.547l-12.772 22.122-12.774-22.122" color="#000000" color-rendering="auto" dominant-baseline="auto" fill-opacity=".048645" image-rendering="auto" opacity="1" solid-color="#000000" style="font-feature-settings:normal;font-variant-alternates:normal;font-variant-caps:normal;font-variant-ligatures:normal;font-variant-numeric:normal;font-variant-position:normal;isolation:auto;mix-blend-mode:normal;paint-order:normal;shape-padding:0;text-decoration-color:#000000;text-decoration-line:none;text-decoration-style:solid;text-indent:0;text-orientation:mixed;text-transform:none;white-space:normal"/>
			<path d="m15.592 21.317c-0.35893 3.46e-4 -0.69045 0.19205-0.86979 0.50296-0.17934 0.31092-0.1793 0.69386 1.12e-4 1.0047l16.728 28.972c0.1798 0.31016 0.51117 0.50109 0.86968 0.50109s0.68988-0.19093 0.86968-0.50109l16.728-28.972c0.17941-0.31088 0.17946-0.69382 1.12e-4 -1.0047s-0.51086-0.50262-0.86979-0.50296h-33.456m5.1258 3.9322h25.48s-12.739 22.064-12.739 22.064l-12.741-22.064" color="#000000" color-rendering="auto" dominant-baseline="auto" fill-opacity=".049437" image-rendering="auto" opacity="1" solid-color="#000000" style="font-feature-settings:normal;font-variant-alternates:normal;font-variant-caps:normal;font-variant-ligatures:normal;font-variant-numeric:normal;font-variant-position:normal;isolation:auto;mix-blend-mode:normal;paint-order:normal;shape-padding:0;text-decoration-color:#000000;text-decoration-line:none;text-decoration-style:solid;text-indent:0;text-orientation:mixed;text-transform:none;white-space:normal"/>
			<path d="m15.474 21.202c-0.35801 3.45e-4 -0.68867 0.19155-0.86755 0.50167s-0.17884 0.69208 1.12e-4 1.0022c0 0 16.685 28.898 16.685 28.898 0.17933 0.30936 0.50985 0.4998 0.86744 0.4998s0.6881-0.19044 0.86744-0.4998c0 0 16.685-28.898 16.685-28.898 0.17895-0.31007 0.17899-0.69204 1.12e-4 -1.0022s-0.50954-0.50132-0.86755-0.50167h-33.37m5.1126 3.9221h25.414l-12.706 22.007-12.708-22.007" color="#000000" color-rendering="auto" dominant-baseline="auto" fill-opacity=".050215" image-rendering="auto" opacity="1" solid-color="#000000" style="font-feature-settings:normal;font-variant-alternates:normal;font-variant-caps:normal;font-variant-ligatures:normal;font-variant-numeric:normal;font-variant-position:normal;isolation:auto;mix-blend-mode:normal;paint-order:normal;shape-padding:0;text-decoration-color:#000000;text-decoration-line:none;text-decoration-style:solid;text-indent:0;text-orientation:mixed;text-transform:none;white-space:normal"/>
			<path d="m15.357 21.088c-0.3571 3.44e-4 -0.68692 0.19107-0.86535 0.50039-0.17843 0.30933-0.17838 0.69032 1.12e-4 0.99961l16.643 28.824c0.17888 0.30858 0.50856 0.49853 0.86523 0.49853s0.68636-0.18996 0.86523-0.49853l16.643-28.824c0.1785-0.30929 0.17854-0.69028 1.12e-4 -0.99961-0.17843-0.30933-0.50825-0.50005-0.86535-0.50039h-33.285m5.0996 3.9121h25.35l-12.674 21.951-12.676-21.951" color="#000000" color-rendering="auto" dominant-baseline="auto" fill-opacity=".05098" image-rendering="auto" opacity="1" solid-color="#000000" style="font-feature-settings:normal;font-variant-alternates:normal;font-variant-caps:normal;font-variant-ligatures:normal;font-variant-numeric:normal;font-variant-position:normal;isolation:auto;mix-blend-mode:normal;paint-order:normal;shape-padding:0;text-decoration-color:#000000;text-decoration-line:none;text-decoration-style:solid;text-indent:0;text-orientation:mixed;text-transform:none;white-space:normal"/>
		</g>
	</g>
	<path d="m15.357 20.088a1.0001 1.0001 0 0 0-0.86523 1.5l16.643 28.824a1.0001 1.0001 0 0 0 1.7305 0l16.643-28.824a1.0001 1.0001 0 0 0-0.86523-1.5zm5.0996 3.9121h25.35l-12.674 21.951z" color="#000000" color-rendering="auto" dominant-baseline="auto" fill="#b7d2f2" image-rendering="auto" shape-rendering="auto" solid-color="#000000" style="font-feature-settings:normal;font-variant-alternates:normal;font-variant-caps:normal;font-variant-ligatures:normal;font-variant-numeric:normal;font-variant-position:normal;isolation:auto;mix-blend-mode:normal;paint-order:normal;shape-padding:0;text-decoration-color:#000000;text-decoration-line:none;text-decoration-style:solid;text-indent:0;text-orientation:mixed;text-transform:none;white-space:normal"/>
	<path d="m15.357 21.088a1.0001 1.0001 0 0 0-0.86523 1.5l16.643 28.824a1.0001 1.0001 0 0 0 1.7305 0l16.643-28.824a1.0001 1.0001 0 0 0-0.86523-1.5zm5.0996 3.9121h25.35l-12.674 21.951z" color="#000000" color-rendering="auto" dominant-baseline="auto" fill="#0b6de4" image-rendering="auto" shape-rendering="auto" solid-color="#000000" style="font-feature-settings:normal;font-variant-alternates:normal;font-variant-caps:normal;font-variant-ligatures:normal;font-variant-numeric:normal;font-variant-position:normal;isolation:auto;mix-blend-mode:normal;paint-order:normal;shape-padding:0;text-decoration-color:#000000;text-decoration-line:none;text-decoration-style:solid;text-indent:0;text-orientation:mixed;text-transform:none;white-space:normal"/>
</svg>
