<?xml version="1.0" encoding="UTF-8"?>
<svg width="64" height="64" version="1.1" xmlns="http://www.w3.org/2000/svg" xmlns:xlink="http://www.w3.org/1999/xlink">
	<defs>
		<radialGradient id="b" cx="37.338" cy="41.714" r="32" gradientTransform="matrix(1.0524 0 0 1.0195 -1.933 -.907)" gradientUnits="userSpaceOnUse">
			<stop stop-color="#b7c4e3" offset="0"/>
			<stop stop-color="#b7c4e3" offset="1"/>
		</radialGradient>
		<radialGradient id="c-3" cx="35.574" cy="1.019" r="32" gradientTransform="matrix(0,1.1252,-5.1753,0,37.271,-39.029)" gradientUnits="userSpaceOnUse" xlink:href="#a-6"/>
		<linearGradient id="a-6">
			<stop stop-color="#fff" stop-opacity=".07" offset="0"/>
			<stop stop-color="#fff" stop-opacity=".001" offset="1"/>
		</linearGradient>
		<radialGradient id="d-7" cx="35.574" cy="1.036" r="32" gradientTransform="matrix(0,1.1252,-5.1753,0,37.363,-39.029)" gradientUnits="userSpaceOnUse" xlink:href="#a-6"/>
		<radialGradient id="e-5" cx="35.574" cy="1.055" r="32" gradientTransform="matrix(0,1.1252,-5.1753,0,37.458,-39.029)" gradientUnits="userSpaceOnUse" xlink:href="#a-6"/>
		<radialGradient id="f-3" cx="35.574" cy="1.071" r="32" gradientTransform="matrix(0,1.1252,-5.1753,0,37.544,-39.029)" gradientUnits="userSpaceOnUse" xlink:href="#a-6"/>
		<radialGradient id="g-5" cx="35.574" cy="1.091" r="32" gradientTransform="matrix(0,1.1252,-5.1753,0,37.648,-39.029)" gradientUnits="userSpaceOnUse" xlink:href="#a-6"/>
		<radialGradient id="h-6" cx="35.574" cy="1.113" r="32" gradientTransform="matrix(0,1.1252,-5.1753,0,37.758,-39.029)" gradientUnits="userSpaceOnUse" xlink:href="#a-6"/>
		<radialGradient id="i-2" cx="35.574" cy="1.135" r="32" gradientTransform="matrix(0,1.1252,-5.1753,0,37.875,-39.029)" gradientUnits="userSpaceOnUse" xlink:href="#a-6"/>
		<radialGradient id="j-9" cx="35.574" cy="1.159" r="32" gradientTransform="matrix(0,1.1252,-5.1753,0,38,-39.029)" gradientUnits="userSpaceOnUse" xlink:href="#a-6"/>
		<radialGradient id="k-1" cx="35.574" cy="1.18" r="32" gradientTransform="matrix(0,1.1252,-5.1753,0,38.107,-39.029)" gradientUnits="userSpaceOnUse" xlink:href="#a-6"/>
		<radialGradient id="l-2" cx="35.574" cy="1.208" r="32" gradientTransform="matrix(0,1.1252,-5.1753,0,38.252,-39.029)" gradientUnits="userSpaceOnUse" xlink:href="#a-6"/>
		<radialGradient id="m-7" cx="35.574" cy="1.239" r="32" gradientTransform="matrix(0,1.1252,-5.1753,0,38.411,-39.029)" gradientUnits="userSpaceOnUse" xlink:href="#a-6"/>
		<radialGradient id="n-0" cx="35.574" cy="1.273" r="32" gradientTransform="matrix(0,1.1252,-5.1753,0,38.587,-39.029)" gradientUnits="userSpaceOnUse" xlink:href="#a-6"/>
		<radialGradient id="o-9" cx="35.574" cy="1.304" r="32" gradientTransform="matrix(0,1.1252,-5.1753,0,38.75,-39.029)" gradientUnits="userSpaceOnUse" xlink:href="#a-6"/>
		<radialGradient id="p-3" cx="35.574" cy="1.346" r="32" gradientTransform="matrix(0,1.1252,-5.1753,0,38.966,-39.029)" gradientUnits="userSpaceOnUse" xlink:href="#a-6"/>
		<radialGradient id="q-6" cx="35.574" cy="1.393" r="32" gradientTransform="matrix(0,1.1252,-5.1753,0,39.208,-39.029)" gradientUnits="userSpaceOnUse" xlink:href="#a-6"/>
		<radialGradient id="r-0" cx="35.574" cy="1.439" r="32" gradientTransform="matrix(0,1.1252,-5.1753,0,39.446,-39.029)" gradientUnits="userSpaceOnUse" xlink:href="#a-6"/>
		<radialGradient id="s-6" cx="36.463" cy="1.498" r="32" gradientTransform="matrix(0 .02541 -1.2755 0 33.91 1.073)" gradientUnits="userSpaceOnUse">
			<stop stop-color="#fff" stop-opacity=".667" offset="0"/>
			<stop stop-color="#fff" stop-opacity=".001" offset="1"/>
		</radialGradient>
	</defs>
	<rect width="64" height="64" rx="1" ry="1" fill="url(#b)" paint-order="fill markers stroke"/>
	<g>
		<g fill="#050a18" opacity=".4">
			<g opacity="1" style="-inkscape-stroke:none;font-variation-settings:normal">
				<path d="m52.295 20.838-4.063 2.707A18.696 18.696 0 0 1 50.788 33c0 10.376-8.411 18.787-18.787 18.787-6.112 0-11.54-2.92-14.97-7.44l-4.06 2.708c4.315 5.827 11.239 9.613 19.03 9.613 13.05 0 23.668-10.617 23.668-23.668 0-4.444-1.233-8.606-3.373-12.162z" fill-opacity=".04" style="-inkscape-stroke:none;font-variation-settings:normal"/>
				<path d="m56.295 24.838-4.063 2.707A18.696 18.696 0 0 1 54.788 37c0 10.376-8.411 18.787-18.787 18.787-6.112 0-11.54-2.92-14.97-7.44l-4.06 2.708c4.315 5.827 11.239 9.613 19.03 9.613 13.05 0 23.668-10.617 23.668-23.668 0-4.444-1.233-8.606-3.373-12.162z" fill-opacity=".01" style="-inkscape-stroke:none;font-variation-settings:normal"/>
				<path d="m52.295 20.838-4.063 2.707A18.696 18.696 0 0 1 50.788 33c0 10.376-8.411 18.787-18.787 18.787-6.112 0-11.54-2.92-14.97-7.44l-4.06 2.708c4.315 5.827 11.239 9.613 19.03 9.613 13.05 0 23.668-10.617 23.668-23.668 0-4.444-1.233-8.606-3.373-12.162z" fill-opacity=".04" opacity="1" style="-inkscape-stroke:none;font-variation-settings:normal"/>
				<path d="m52.545 21.088-4.063 2.707a18.696 18.696 0 0 1 2.555 9.455c0 10.376-8.411 18.787-18.787 18.787-6.112 0-11.54-2.92-14.97-7.44l-4.06 2.708c4.315 5.827 11.239 9.613 19.03 9.613 13.05 0 23.668-10.617 23.668-23.668 0-4.444-1.233-8.606-3.373-12.162z" fill-opacity=".038" opacity="1" style="-inkscape-stroke:none;font-variation-settings:normal"/>
				<path d="m52.795 21.338-4.063 2.707a18.696 18.696 0 0 1 2.555 9.455c0 10.376-8.411 18.787-18.787 18.787-6.112 0-11.54-2.92-14.97-7.44l-4.06 2.708c4.315 5.827 11.239 9.613 19.03 9.613 13.05 0 23.668-10.617 23.668-23.668 0-4.444-1.233-8.606-3.373-12.162z" fill-opacity=".036" opacity="1" style="-inkscape-stroke:none;font-variation-settings:normal"/>
				<path d="m53.045 21.588-4.063 2.707a18.696 18.696 0 0 1 2.555 9.455c0 10.376-8.411 18.787-18.787 18.787-6.112 0-11.54-2.92-14.97-7.44l-4.06 2.708c4.315 5.827 11.239 9.613 19.03 9.613 13.05 0 23.668-10.617 23.668-23.668 0-4.444-1.233-8.606-3.373-12.162z" fill-opacity=".034" opacity="1" style="-inkscape-stroke:none;font-variation-settings:normal"/>
				<path d="m53.295 21.838-4.063 2.707A18.696 18.696 0 0 1 51.788 34c0 10.376-8.411 18.787-18.787 18.787-6.112 0-11.54-2.92-14.97-7.44l-4.06 2.708c4.315 5.827 11.239 9.613 19.03 9.613 13.05 0 23.668-10.617 23.668-23.668 0-4.444-1.233-8.606-3.373-12.162z" fill-opacity=".033" opacity="1" style="-inkscape-stroke:none;font-variation-settings:normal"/>
				<path d="m53.545 22.088-4.063 2.707a18.696 18.696 0 0 1 2.555 9.455c0 10.376-8.411 18.787-18.787 18.787-6.112 0-11.54-2.92-14.97-7.44l-4.06 2.708c4.315 5.827 11.239 9.613 19.03 9.613 13.05 0 23.668-10.617 23.668-23.668 0-4.444-1.233-8.606-3.373-12.162z" fill-opacity=".031" opacity="1" style="-inkscape-stroke:none;font-variation-settings:normal"/>
				<path d="m53.795 22.338-4.063 2.707a18.696 18.696 0 0 1 2.555 9.455c0 10.376-8.411 18.787-18.787 18.787-6.112 0-11.54-2.92-14.97-7.44l-4.06 2.708c4.315 5.827 11.239 9.613 19.03 9.613 13.05 0 23.668-10.617 23.668-23.668 0-4.444-1.233-8.606-3.373-12.162z" fill-opacity=".029" opacity="1" style="-inkscape-stroke:none;font-variation-settings:normal"/>
				<path d="m54.045 22.588-4.063 2.707a18.696 18.696 0 0 1 2.555 9.455c0 10.376-8.411 18.787-18.787 18.787-6.112 0-11.54-2.92-14.97-7.44l-4.06 2.708c4.315 5.827 11.239 9.613 19.03 9.613 13.05 0 23.668-10.617 23.668-23.668 0-4.444-1.233-8.606-3.373-12.162z" fill-opacity=".027" opacity="1" style="-inkscape-stroke:none;font-variation-settings:normal"/>
				<path d="m54.295 22.838-4.063 2.707A18.696 18.696 0 0 1 52.788 35c0 10.376-8.411 18.787-18.787 18.787-6.112 0-11.54-2.92-14.97-7.44l-4.06 2.708c4.315 5.827 11.239 9.613 19.03 9.613 13.05 0 23.668-10.617 23.668-23.668 0-4.444-1.233-8.606-3.373-12.162z" fill-opacity=".025" opacity="1" style="-inkscape-stroke:none;font-variation-settings:normal"/>
				<path d="m54.545 23.088-4.063 2.707a18.696 18.696 0 0 1 2.555 9.455c0 10.376-8.411 18.787-18.787 18.787-6.112 0-11.54-2.92-14.97-7.44l-4.06 2.708c4.315 5.827 11.239 9.613 19.03 9.613 13.05 0 23.668-10.617 23.668-23.668 0-4.444-1.233-8.606-3.373-12.162z" fill-opacity=".023" opacity="1" style="-inkscape-stroke:none;font-variation-settings:normal"/>
				<path d="m54.795 23.338-4.063 2.707a18.696 18.696 0 0 1 2.555 9.455c0 10.376-8.411 18.787-18.787 18.787-6.112 0-11.54-2.92-14.97-7.44l-4.06 2.708c4.315 5.827 11.239 9.613 19.03 9.613 13.05 0 23.668-10.617 23.668-23.668 0-4.444-1.233-8.606-3.373-12.162z" fill-opacity=".021" opacity="1" style="-inkscape-stroke:none;font-variation-settings:normal"/>
				<path d="m55.045 23.588-4.063 2.707a18.696 18.696 0 0 1 2.555 9.455c0 10.376-8.411 18.787-18.787 18.787-6.112 0-11.54-2.92-14.97-7.44l-4.06 2.708c4.315 5.827 11.239 9.613 19.03 9.613 13.05 0 23.668-10.617 23.668-23.668 0-4.444-1.233-8.606-3.373-12.162z" fill-opacity=".019" opacity="1" style="-inkscape-stroke:none;font-variation-settings:normal"/>
				<path d="m55.295 23.838-4.063 2.707A18.696 18.696 0 0 1 53.788 36c0 10.376-8.411 18.787-18.787 18.787-6.112 0-11.54-2.92-14.97-7.44l-4.06 2.708c4.315 5.827 11.239 9.613 19.03 9.613 13.05 0 23.668-10.617 23.668-23.668 0-4.444-1.233-8.606-3.373-12.162z" fill-opacity=".018" opacity="1" style="-inkscape-stroke:none;font-variation-settings:normal"/>
				<path d="m55.545 24.088-4.063 2.707a18.696 18.696 0 0 1 2.555 9.455c0 10.376-8.411 18.787-18.787 18.787-6.112 0-11.54-2.92-14.97-7.44l-4.06 2.708c4.315 5.827 11.239 9.613 19.03 9.613 13.05 0 23.668-10.617 23.668-23.668 0-4.444-1.233-8.606-3.373-12.162z" fill-opacity=".016" opacity="1" style="-inkscape-stroke:none;font-variation-settings:normal"/>
				<path d="m55.795 24.338-4.063 2.707a18.696 18.696 0 0 1 2.555 9.455c0 10.376-8.411 18.787-18.787 18.787-6.112 0-11.54-2.92-14.97-7.44l-4.06 2.708c4.315 5.827 11.239 9.613 19.03 9.613 13.05 0 23.668-10.617 23.668-23.668 0-4.444-1.233-8.606-3.373-12.162z" fill-opacity=".014" opacity="1" style="-inkscape-stroke:none;font-variation-settings:normal"/>
				<path d="m56.045 24.588-4.063 2.707a18.696 18.696 0 0 1 2.555 9.455c0 10.376-8.411 18.787-18.787 18.787-6.112 0-11.54-2.92-14.97-7.44l-4.06 2.708c4.315 5.827 11.239 9.613 19.03 9.613 13.05 0 23.668-10.617 23.668-23.668 0-4.444-1.233-8.606-3.373-12.162z" fill-opacity=".012" opacity="1" style="-inkscape-stroke:none;font-variation-settings:normal"/>
				<path d="m56.295 24.838-4.063 2.707A18.696 18.696 0 0 1 54.788 37c0 10.376-8.411 18.787-18.787 18.787-6.112 0-11.54-2.92-14.97-7.44l-4.06 2.708c4.315 5.827 11.239 9.613 19.03 9.613 13.05 0 23.668-10.617 23.668-23.668 0-4.444-1.233-8.606-3.373-12.162z" fill-opacity=".01" opacity="1" style="-inkscape-stroke:none;font-variation-settings:normal"/>
				<path d="m21.033 20.262v5.654l5.5 3.668-5.5 3.668v5.655l13.984-9.323z" fill-opacity=".04" style="-inkscape-stroke:none;font-variation-settings:normal"/>
				<path d="m25.033 24.262v5.654l5.5 3.668-5.5 3.668v5.655l13.984-9.323z" fill-opacity=".01" style="-inkscape-stroke:none;font-variation-settings:normal"/>
				<path d="m21.033 20.262v5.654l5.5 3.668-5.5 3.668v5.655l13.984-9.323z" fill-opacity=".04" opacity="1" style="-inkscape-stroke:none;font-variation-settings:normal"/>
				<path d="m21.283 20.512v5.654l5.5 3.668-5.5 3.668v5.655l13.984-9.323z" fill-opacity=".038" opacity="1" style="-inkscape-stroke:none;font-variation-settings:normal"/>
				<path d="m21.533 20.762v5.654l5.5 3.668-5.5 3.668v5.655l13.984-9.323z" fill-opacity=".036" opacity="1" style="-inkscape-stroke:none;font-variation-settings:normal"/>
				<path d="m21.783 21.012v5.654l5.5 3.668-5.5 3.668v5.655l13.984-9.323z" fill-opacity=".034" opacity="1" style="-inkscape-stroke:none;font-variation-settings:normal"/>
				<path d="m22.033 21.262v5.654l5.5 3.668-5.5 3.668v5.655l13.984-9.323z" fill-opacity=".033" opacity="1" style="-inkscape-stroke:none;font-variation-settings:normal"/>
				<path d="m22.283 21.512v5.654l5.5 3.668-5.5 3.668v5.655l13.984-9.323z" fill-opacity=".031" opacity="1" style="-inkscape-stroke:none;font-variation-settings:normal"/>
				<path d="m22.533 21.762v5.654l5.5 3.668-5.5 3.668v5.655l13.984-9.323z" fill-opacity=".029" opacity="1" style="-inkscape-stroke:none;font-variation-settings:normal"/>
				<path d="m22.783 22.012v5.654l5.5 3.668-5.5 3.668v5.655l13.984-9.323z" fill-opacity=".027" opacity="1" style="-inkscape-stroke:none;font-variation-settings:normal"/>
				<path d="m23.033 22.262v5.654l5.5 3.668-5.5 3.668v5.655l13.984-9.323z" fill-opacity=".025" opacity="1" style="-inkscape-stroke:none;font-variation-settings:normal"/>
				<path d="m23.283 22.512v5.654l5.5 3.668-5.5 3.668v5.655l13.984-9.323z" fill-opacity=".023" opacity="1" style="-inkscape-stroke:none;font-variation-settings:normal"/>
				<path d="m23.533 22.762v5.654l5.5 3.668-5.5 3.668v5.655l13.984-9.323z" fill-opacity=".021" opacity="1" style="-inkscape-stroke:none;font-variation-settings:normal"/>
				<path d="m23.783 23.012v5.654l5.5 3.668-5.5 3.668v5.655l13.984-9.323z" fill-opacity=".019" opacity="1" style="-inkscape-stroke:none;font-variation-settings:normal"/>
				<path d="m24.033 23.262v5.654l5.5 3.668-5.5 3.668v5.655l13.984-9.323z" fill-opacity=".018" opacity="1" style="-inkscape-stroke:none;font-variation-settings:normal"/>
				<path d="m24.283 23.512v5.654l5.5 3.668-5.5 3.668v5.655l13.984-9.323z" fill-opacity=".016" opacity="1" style="-inkscape-stroke:none;font-variation-settings:normal"/>
				<path d="m24.533 23.762v5.654l5.5 3.668-5.5 3.668v5.655l13.984-9.323z" fill-opacity=".014" opacity="1" style="-inkscape-stroke:none;font-variation-settings:normal"/>
				<path d="m24.783 24.012v5.654l5.5 3.668-5.5 3.668v5.655l13.984-9.323z" fill-opacity=".012" opacity="1" style="-inkscape-stroke:none;font-variation-settings:normal"/>
				<path d="m25.033 24.262v5.654l5.5 3.668-5.5 3.668v5.655l13.984-9.323z" fill-opacity=".01" opacity="1" style="-inkscape-stroke:none;font-variation-settings:normal"/>
				<path d="m42.451 27.172-13.984 9.324 13.984 9.322v-5.656l-5.502-3.666 5.502-3.668v-5.656z" fill-opacity=".04" style="-inkscape-stroke:none;font-variation-settings:normal"/>
				<path d="m46.451 31.172-13.984 9.324 13.984 9.322v-5.656l-5.502-3.666 5.502-3.668v-5.656z" fill-opacity=".01" style="-inkscape-stroke:none;font-variation-settings:normal"/>
				<path d="m42.451 27.172-13.984 9.324 13.984 9.322v-5.656l-5.502-3.666 5.502-3.668v-5.656z" fill-opacity=".04" opacity="1" style="-inkscape-stroke:none;font-variation-settings:normal"/>
				<path d="m42.701 27.422-13.984 9.324 13.984 9.322v-5.656l-5.502-3.666 5.502-3.668v-5.656z" fill-opacity=".038" opacity="1" style="-inkscape-stroke:none;font-variation-settings:normal"/>
				<path d="m42.951 27.672-13.984 9.324 13.984 9.322v-5.656l-5.502-3.666 5.502-3.668v-5.656z" fill-opacity=".036" opacity="1" style="-inkscape-stroke:none;font-variation-settings:normal"/>
				<path d="m43.201 27.922-13.984 9.324 13.984 9.322v-5.656l-5.502-3.666 5.502-3.668v-5.656z" fill-opacity=".034" opacity="1" style="-inkscape-stroke:none;font-variation-settings:normal"/>
				<path d="m43.451 28.172-13.984 9.324 13.984 9.322v-5.656l-5.502-3.666 5.502-3.668v-5.656z" fill-opacity=".033" opacity="1" style="-inkscape-stroke:none;font-variation-settings:normal"/>
				<path d="m43.701 28.422-13.984 9.324 13.984 9.322v-5.656l-5.502-3.666 5.502-3.668v-5.656z" fill-opacity=".031" opacity="1" style="-inkscape-stroke:none;font-variation-settings:normal"/>
				<path d="m43.951 28.672-13.984 9.324 13.984 9.322v-5.656l-5.502-3.666 5.502-3.668v-5.656z" fill-opacity=".029" opacity="1" style="-inkscape-stroke:none;font-variation-settings:normal"/>
				<path d="m44.201 28.922-13.984 9.324 13.984 9.322v-5.656l-5.502-3.666 5.502-3.668v-5.656z" fill-opacity=".027" opacity="1" style="-inkscape-stroke:none;font-variation-settings:normal"/>
				<path d="m44.451 29.172-13.984 9.324 13.984 9.322v-5.656l-5.502-3.666 5.502-3.668v-5.656z" fill-opacity=".025" opacity="1" style="-inkscape-stroke:none;font-variation-settings:normal"/>
				<path d="m44.701 29.422-13.984 9.324 13.984 9.322v-5.656l-5.502-3.666 5.502-3.668v-5.656z" fill-opacity=".023" opacity="1" style="-inkscape-stroke:none;font-variation-settings:normal"/>
				<path d="m44.951 29.672-13.984 9.324 13.984 9.322v-5.656l-5.502-3.666 5.502-3.668v-5.656z" fill-opacity=".021" opacity="1" style="-inkscape-stroke:none;font-variation-settings:normal"/>
				<path d="m45.201 29.922-13.984 9.324 13.984 9.322v-5.656l-5.502-3.666 5.502-3.668v-5.656z" fill-opacity=".019" opacity="1" style="-inkscape-stroke:none;font-variation-settings:normal"/>
				<path d="m45.451 30.172-13.984 9.324 13.984 9.322v-5.656l-5.502-3.666 5.502-3.668v-5.656z" fill-opacity=".018" opacity="1" style="-inkscape-stroke:none;font-variation-settings:normal"/>
				<path d="m45.701 30.422-13.984 9.324 13.984 9.322v-5.656l-5.502-3.666 5.502-3.668v-5.656z" fill-opacity=".016" opacity="1" style="-inkscape-stroke:none;font-variation-settings:normal"/>
				<path d="m45.951 30.672-13.984 9.324 13.984 9.322v-5.656l-5.502-3.666 5.502-3.668v-5.656z" fill-opacity=".014" opacity="1" style="-inkscape-stroke:none;font-variation-settings:normal"/>
				<path d="m46.201 30.922-13.984 9.324 13.984 9.322v-5.656l-5.502-3.666 5.502-3.668v-5.656z" fill-opacity=".012" opacity="1" style="-inkscape-stroke:none;font-variation-settings:normal"/>
				<path d="m46.451 31.172-13.984 9.324 13.984 9.322v-5.656l-5.502-3.666 5.502-3.668v-5.656z" fill-opacity=".01" opacity="1" style="-inkscape-stroke:none;font-variation-settings:normal"/>
			</g>
			<path d="M32 9.332C18.949 9.332 8.332 19.949 8.332 33c0 4.386 1.204 8.494 3.291 12.02l4.063-2.707A18.694 18.694 0 0 1 13.213 33c0-10.376 8.411-18.787 18.787-18.787 6.052 0 11.433 2.866 14.869 7.311l4.062-2.709C46.611 13.061 39.732 9.333 32 9.333z" fill-opacity=".04"/>
			<path d="M36 13.332c-13.051 0-23.668 10.617-23.668 23.668 0 4.386 1.204 8.494 3.291 12.02l4.063-2.707A18.694 18.694 0 0 1 17.213 37c0-10.376 8.411-18.787 18.787-18.787 6.052 0 11.433 2.866 14.869 7.311l4.062-2.709c-4.32-5.754-11.199-9.482-18.932-9.482z" fill-opacity=".01"/>
			<path d="M32 9.332C18.949 9.332 8.332 19.949 8.332 33c0 4.386 1.204 8.494 3.291 12.02l4.063-2.707A18.694 18.694 0 0 1 13.213 33c0-10.376 8.411-18.787 18.787-18.787 6.052 0 11.433 2.866 14.869 7.311l4.062-2.709C46.611 13.061 39.732 9.333 32 9.333z" fill-opacity=".04" opacity="1"/>
			<path d="m32.25 9.582c-13.051 0-23.668 10.617-23.668 23.668 0 4.386 1.204 8.494 3.291 12.02l4.063-2.707a18.694 18.694 0 0 1-2.473-9.313c0-10.376 8.411-18.787 18.787-18.787 6.052 0 11.433 2.866 14.869 7.311l4.062-2.709c-4.32-5.754-11.199-9.482-18.932-9.482z" fill-opacity=".038" opacity="1"/>
			<path d="M32.5 9.832C19.449 9.832 8.832 20.449 8.832 33.5c0 4.386 1.204 8.494 3.291 12.02l4.063-2.707a18.694 18.694 0 0 1-2.473-9.313c0-10.376 8.411-18.787 18.787-18.787 6.052 0 11.433 2.866 14.869 7.311l4.062-2.709c-4.32-5.754-11.199-9.482-18.932-9.482z" fill-opacity=".036" opacity="1"/>
			<path d="m32.75 10.082c-13.051 0-23.668 10.617-23.668 23.668 0 4.386 1.204 8.494 3.291 12.02l4.063-2.707a18.694 18.694 0 0 1-2.473-9.313c0-10.376 8.411-18.787 18.787-18.787 6.052 0 11.433 2.866 14.869 7.311l4.062-2.709c-4.32-5.754-11.199-9.482-18.932-9.482z" fill-opacity=".034" opacity="1"/>
			<path d="M33 10.332C19.949 10.332 9.332 20.949 9.332 34c0 4.386 1.204 8.494 3.291 12.02l4.063-2.707A18.694 18.694 0 0 1 14.213 34c0-10.376 8.411-18.787 18.787-18.787 6.052 0 11.433 2.866 14.869 7.311l4.062-2.709c-4.32-5.754-11.199-9.482-18.932-9.482z" fill-opacity=".033" opacity="1"/>
			<path d="m33.25 10.582c-13.051 0-23.668 10.617-23.668 23.668 0 4.386 1.204 8.494 3.291 12.02l4.063-2.707a18.694 18.694 0 0 1-2.473-9.313c0-10.376 8.411-18.787 18.787-18.787 6.052 0 11.433 2.866 14.869 7.311l4.062-2.709c-4.32-5.754-11.199-9.482-18.932-9.482z" fill-opacity=".031" opacity="1"/>
			<path d="m33.5 10.832c-13.051 0-23.668 10.617-23.668 23.668 0 4.386 1.204 8.494 3.291 12.02l4.063-2.707a18.694 18.694 0 0 1-2.473-9.313c0-10.376 8.411-18.787 18.787-18.787 6.052 0 11.433 2.866 14.869 7.311l4.062-2.709c-4.32-5.754-11.199-9.482-18.932-9.482z" fill-opacity=".029" opacity="1"/>
			<path d="m33.75 11.082c-13.051 0-23.668 10.617-23.668 23.668 0 4.386 1.204 8.494 3.291 12.02l4.063-2.707a18.694 18.694 0 0 1-2.473-9.313c0-10.376 8.411-18.787 18.787-18.787 6.052 0 11.433 2.866 14.869 7.311l4.062-2.709c-4.32-5.754-11.199-9.482-18.932-9.482z" fill-opacity=".027" opacity="1"/>
			<path d="M34 11.332c-13.051 0-23.668 10.617-23.668 23.668 0 4.386 1.204 8.494 3.291 12.02l4.063-2.707A18.694 18.694 0 0 1 15.213 35c0-10.376 8.411-18.787 18.787-18.787 6.052 0 11.433 2.866 14.869 7.311l4.062-2.709c-4.32-5.754-11.199-9.482-18.932-9.482z" fill-opacity=".025" opacity="1"/>
			<path d="m34.25 11.582c-13.051 0-23.668 10.617-23.668 23.668 0 4.386 1.204 8.494 3.291 12.02l4.063-2.707a18.694 18.694 0 0 1-2.473-9.313c0-10.376 8.411-18.787 18.787-18.787 6.052 0 11.433 2.866 14.869 7.311l4.062-2.709c-4.32-5.754-11.199-9.482-18.932-9.482z" fill-opacity=".023" opacity="1"/>
			<path d="m34.5 11.832c-13.051 0-23.668 10.617-23.668 23.668 0 4.386 1.204 8.494 3.291 12.02l4.063-2.707a18.694 18.694 0 0 1-2.473-9.313c0-10.376 8.411-18.787 18.787-18.787 6.052 0 11.433 2.866 14.869 7.311l4.062-2.709c-4.32-5.754-11.199-9.482-18.932-9.482z" fill-opacity=".021" opacity="1"/>
			<path d="m34.75 12.082c-13.051 0-23.668 10.617-23.668 23.668 0 4.386 1.204 8.494 3.291 12.02l4.063-2.707a18.694 18.694 0 0 1-2.473-9.313c0-10.376 8.411-18.787 18.787-18.787 6.052 0 11.433 2.866 14.869 7.311l4.062-2.709c-4.32-5.754-11.199-9.482-18.932-9.482z" fill-opacity=".019" opacity="1"/>
			<path d="M35 12.332c-13.051 0-23.668 10.617-23.668 23.668 0 4.386 1.204 8.494 3.291 12.02l4.063-2.707A18.694 18.694 0 0 1 16.213 36c0-10.376 8.411-18.787 18.787-18.787 6.052 0 11.433 2.866 14.869 7.311l4.062-2.709c-4.32-5.754-11.199-9.482-18.932-9.482z" fill-opacity=".018" opacity="1"/>
			<path d="m35.25 12.582c-13.051 0-23.668 10.617-23.668 23.668 0 4.386 1.204 8.494 3.291 12.02l4.063-2.707a18.694 18.694 0 0 1-2.473-9.313c0-10.376 8.411-18.787 18.787-18.787 6.052 0 11.433 2.866 14.869 7.311l4.062-2.709c-4.32-5.754-11.199-9.482-18.932-9.482z" fill-opacity=".016" opacity="1"/>
			<path d="m35.5 12.832c-13.051 0-23.668 10.617-23.668 23.668 0 4.386 1.204 8.494 3.291 12.02l4.063-2.707a18.694 18.694 0 0 1-2.473-9.313c0-10.376 8.411-18.787 18.787-18.787 6.052 0 11.433 2.866 14.869 7.311l4.062-2.709c-4.32-5.754-11.199-9.482-18.932-9.482z" fill-opacity=".014" opacity="1"/>
			<path d="m35.75 13.082c-13.051 0-23.668 10.617-23.668 23.668 0 4.386 1.204 8.494 3.291 12.02l4.063-2.707a18.694 18.694 0 0 1-2.473-9.313c0-10.376 8.411-18.787 18.787-18.787 6.052 0 11.433 2.866 14.869 7.311l4.062-2.709c-4.32-5.754-11.199-9.482-18.932-9.482z" fill-opacity=".012" opacity="1"/>
			<path d="M36 13.332c-13.051 0-23.668 10.617-23.668 23.668 0 4.386 1.204 8.494 3.291 12.02l4.063-2.707A18.694 18.694 0 0 1 17.213 37c0-10.376 8.411-18.787 18.787-18.787 6.052 0 11.433 2.866 14.869 7.311l4.062-2.709c-4.32-5.754-11.199-9.482-18.932-9.482z" fill-opacity=".01" opacity="1"/>
		</g>
		<path d="M21.033 20.262v5.654l5.5 3.668-5.5 3.668v5.655l13.984-9.323zm31.262.576-4.063 2.707A18.696 18.696 0 0 1 50.788 33c0 10.376-8.412 18.787-18.787 18.787-6.112 0-11.54-2.92-14.97-7.44l-4.06 2.708c4.315 5.828 11.239 9.613 19.03 9.613 13.05 0 23.668-10.617 23.668-23.668 0-4.444-1.233-8.606-3.373-12.162z" fill="#249467"/>
		<path d="M32 9.332C18.949 9.332 8.332 19.949 8.332 33c0 4.386 1.204 8.493 3.291 12.02l4.063-2.707A18.694 18.694 0 0 1 13.213 33c0-10.376 8.412-18.787 18.787-18.787 6.052 0 11.433 2.866 14.869 7.311l4.062-2.709C46.611 13.061 39.732 9.333 32 9.333zm10.451 17.84-13.984 9.324 13.984 9.322v-5.656l-5.502-3.666 5.502-3.668z" fill="#2d81d5"/>
		<path d="M32 9.332C18.949 9.332 8.332 19.949 8.332 33c0 4.386 1.204 8.493 3.291 12.02l.166-.11A23.493 23.493 0 0 1 8.832 33.5c0-13.05 10.617-23.667 23.668-23.667 6.283 0 12.001 2.461 16.242 6.47-4.287-4.3-10.206-6.97-16.742-6.97zm13.594 10.713c.45.471.877.963 1.275 1.478l.059-.039c-.42-.503-.865-.982-1.334-1.44zm-24.561.217v5.654l.5.334v-5.488l13.359 8.906.125-.084zm31.262.576-4.063 2.707A18.696 18.696 0 0 1 50.788 33c0 10.376-8.412 18.787-18.787 18.787-5.116 0-9.749-2.051-13.137-5.369a18.73 18.73 0 0 0 13.637 5.87c10.375 0 18.787-8.412 18.787-18.788 0-3.448-.933-6.678-2.555-9.455l3.903-2.6c-.114-.202-.22-.409-.34-.607zm-9.844 6.334-13.984 9.324.625.416 13.36-8.906zm-16.043 2.496-5.375 3.584v5.654l.5-.334v-4.82l5.5-3.668zm11.166 7.244-.125.084 5.002 3.332v-.166zM17.03 44.348l-4.058 2.707a23.871 23.871 0 0 0 2.74 3.093 23.835 23.835 0 0 1-2.24-2.593l3.994-2.664c-.147-.18-.295-.358-.436-.543z" fill="#fff" fill-opacity=".48"/>
	</g>
	<g transform="translate(0 .0015035)">
		<path d="m1 0c-0.554 0-1 0.446-1 1v62-0.224 0.224-61h1.752c19.15 2e-3 39.445 0 60.213 0h2.035v61-0.334 0.334-62a0.998 0.998 0 0 0-1-1z" fill="url(#c-3)"/>
		<path d="m1 0a0.998 0.998 0 0 0-1 1.006v61.98-0.197c0-0.277 4e-3 -0.184 0.01 0.246 0.012 0.016 0.03-0.297 0.052-0.897v-60c0.072-9e-3 0.133-0.013 0.185-0.013 0.29-0.016 0.357-0.032 0.774-0.044 0.246-0.011 0.496-0.019 0.747-0.019 19.183 2e-3 39.392 0 60.2 0 0.346 0 0.689 0.012 1.023 0.03 0.268 0.01 0.389 0.02 0.52 0.033 0.106 0 0.22 0.01 0.427 0.028v59.744c0.027 0.754 0.05 1.148 0.059 1.123l3e-3 -0.334v0.286-61.762c0-0.143 0-0.22-2e-3 -0.224a0.996 0.996 0 0 0-1.012-0.986h-61.986" fill="url(#d-7)"/>
		<path d="m1 0a0.998 0.998 0 0 0-1 1.006v61.966-0.169c0-0.245 8e-3 -0.145 0.021 0.266 0.022 0.034 0.06-0.247 0.104-0.807v-59.988a0.744 0.744 0 0 1 0.173-0.025c0.27-0.031 0.341-0.064 0.743-0.088 0.242-0.022 0.492-0.037 0.742-0.037 19.217 2e-3 39.34 0 60.187 0 0.347 0 0.69 0.024 1.013 0.06 0.256 0.02 0.372 0.042 0.494 0.065 0.1 0 0.206 0.02 0.398 0.057v59.731c0.055 0.703 0.102 1.052 0.119 1.003 4e-3 -0.154 6e-3 -0.265 6e-3 -0.333v0.237-61.748c0-0.139 0-0.215-3e-3 -0.224a0.994 0.994 0 0 0-0.807-0.952 1.025 1.025 0 0 0-0.217-0.02h-61.973" fill="url(#e-5)"/>
		<path d="m1 0a0.998 0.998 0 0 0-1 1.005v61.953-0.14c0-0.213 0.012-0.107 0.031 0.287 0.034 0.05 0.091-0.198 0.156-0.718v-59.974a0.45 0.45 0 0 1 0.16-0.037c0.252-0.048 0.327-0.097 0.715-0.132 0.238-0.034 0.487-0.056 0.737-0.056 19.25 2e-3 39.286 0 60.173 0 0.348 0 0.688 0.036 1.001 0.09 0.244 0.029 0.356 0.062 0.47 0.098 0.091 0 0.19 0.03 0.37 0.085v59.718c0.082 0.653 0.151 0.957 0.176 0.884 7e-3 -0.152 0.01-0.262 0.01-0.333v0.188-61.734c0-0.135 0-0.21-4e-3 -0.224a0.992 0.992 0 0 0-0.819-0.94 1.041 1.041 0 0 0-0.217-0.018h-61.96" fill="url(#f-3)"/>
		<path d="m1 0a0.998 0.998 0 0 0-1 1.005v61.939-0.113c0-0.18 0.015-0.068 0.042 0.308 0.045 0.067 0.121-0.149 0.208-0.629v-59.96a0.312 0.312 0 0 1 0.148-0.05c0.232-0.063 0.311-0.128 0.684-0.176 0.234-0.044 0.483-0.074 0.732-0.074 19.284 2e-3 39.234 0 60.16 0 0.35 0 0.689 0.048 0.991 0.12 0.232 0.039 0.34 0.083 0.444 0.13 0.085 0 0.176 0.04 0.341 0.114v59.704c0.11 0.603 0.203 0.862 0.236 0.764 0.01-0.148 0.014-0.259 0.014-0.333v0.14-61.721c0-0.13-2e-3 -0.206-6e-3 -0.224a0.991 0.991 0 0 0-0.83-0.927 1.066 1.066 0 0 0-0.22-0.017h-61.944" fill="url(#g-5)"/>
		<path d="m1 0a0.998 0.998 0 0 0-1 1.004v61.926-0.084c0-0.148 0.02-0.029 0.052 0.328 0.056 0.084 0.152-0.099 0.26-0.539v-59.949c0.053-0.04 0.097-0.061 0.136-0.061 0.212-0.08 0.297-0.16 0.655-0.22 0.23-0.056 0.477-0.093 0.727-0.093 19.317 2e-3 39.18 0 60.147 0 0.35 0 0.688 0.06 0.98 0.151 0.22 0.047 0.322 0.102 0.418 0.162 0.078 0 0.162 0.049 0.313 0.142v59.69c0.137 0.553 0.253 0.767 0.295 0.645a4.73 4.73 0 0 0 0.017-0.332v0.09-61.705c0-0.126-2e-3 -0.202-7e-3 -0.224a0.99 0.99 0 0 0-0.843-0.914 1.099 1.099 0 0 0-0.218-0.017h-61.932" fill="url(#h-6)"/>
		<path d="m1 0a0.998 0.998 0 0 0-1 1.004v61.912-0.056c0-0.117 0.023 0.01 0.063 0.349 0.067 0.1 0.182-0.05 0.312-0.45v-59.935c0.048-0.049 0.088-0.074 0.123-0.074 0.193-0.095 0.282-0.192 0.626-0.264 0.225-0.067 0.472-0.11 0.721-0.11h60.133c0.352 0 0.688 0.071 0.97 0.18a0.944 0.944 0 0 1 0.393 0.194c0.07 0 0.147 0.059 0.284 0.17v59.68c0.164 0.502 0.304 0.671 0.354 0.524 0.014-0.14 0.02-0.25 0.02-0.331v0.042-61.695c0-0.121-2e-3 -0.197-9e-3 -0.224a0.99 0.99 0 0 0-0.854-0.902 1.142 1.142 0 0 0-0.218-0.014h-61.918" fill="url(#i-2)"/>
		<path d="m1 0a0.998 0.998 0 0 0-1 1.004v61.898-0.029c0-0.084 0.027 0.049 0.073 0.37 0.079 0.117 0.212 0 0.365-0.36v-59.923c0.043-0.057 0.079-0.086 0.11-0.086 0.174-0.112 0.267-0.225 0.596-0.309a2.19 2.19 0 0 1 0.717-0.129c19.385 2e-3 39.075 0 60.12 0 0.353 0 0.687 0.084 0.958 0.211 0.196 0.066 0.29 0.144 0.368 0.227 0.063 0 0.132 0.068 0.256 0.199v59.665c0.192 0.452 0.354 0.576 0.413 0.404a3.11 3.11 0 0 0 0.024-0.33v-61.687c0-0.117-4e-3 -0.193-0.01-0.224a0.99 0.99 0 0 0-0.868-0.89 1.198 1.198 0 0 0-0.217-0.011h-61.905" fill="url(#j-9)"/>
		<path d="m1 0a0.998 0.998 0 0 0-1 1.003v61.885c0-0.052 0.03 0.087 0.084 0.39 0.09 0.135 0.242 0.05 0.416-0.27v-59.911c0.038-0.063 0.07-0.097 0.099-0.097 0.154-0.127 0.251-0.257 0.566-0.352 0.217-0.089 0.463-0.148 0.711-0.148 19.418 2e-3 39.022 0 60.107 0 0.355 0 0.687 0.096 0.947 0.242a0.723 0.723 0 0 1 0.343 0.258c0.056 0 0.118 0.079 0.227 0.227v59.651c0.22 0.402 0.406 0.482 0.473 0.285 0.018-0.132 0.027-0.243 0.027-0.33v-61.721c0-0.113-4e-3 -0.188-0.012-0.224a0.99 0.99 0 0 0-0.879-0.877 1.273 1.273 0 0 0-0.218-0.011h-61.89" fill="url(#k-1)"/>
		<path d="m1 0a0.998 0.998 0 0 0-1 1.003v61.899c0-0.02 0.035 0.126 0.094 0.41 0.101 0.152 0.273 0.1 0.468-0.18v-59.897c0.034-0.073 0.062-0.11 0.087-0.11 0.135-0.143 0.236-0.29 0.536-0.397 0.213-0.1 0.459-0.166 0.707-0.166 19.452 2e-3 38.969 0 60.093 0 0.356 0 0.687 0.108 0.936 0.272a0.678 0.678 0 0 1 0.317 0.29c0.05 0 0.103 0.089 0.2 0.256v59.64c0.246 0.352 0.455 0.386 0.531 0.165 0.02-0.128 0.03-0.239 0.03-0.33v-61.755c0-0.108-4e-3 -0.184-0.013-0.224a0.99 0.99 0 0 0-0.891-0.864 1.376 1.376 0 0 0-0.218-0.01h-61.877" fill="url(#l-2)"/>
		<path d="m1 0a0.998 0.998 0 0 0-1 1.002v61.913c0 0.013 0.039 0.165 0.105 0.432 0.112 0.168 0.303 0.148 0.52-0.092v-59.882c0.029-0.081 0.053-0.123 0.074-0.123 0.116-0.159 0.222-0.321 0.507-0.44 0.209-0.111 0.454-0.185 0.701-0.185 19.486 2e-3 38.916 0 60.08 0 0.357 0 0.687 0.12 0.925 0.302a0.66 0.66 0 0 1 0.292 0.323c0.043 0 0.089 0.098 0.171 0.284v59.626c0.275 0.302 0.507 0.29 0.591 0.046 0.022-0.125 0.034-0.236 0.034-0.33v-61.791c0-0.104-5e-3 -0.18-0.016-0.224a0.99 0.99 0 0 0-0.903-0.852 1.514 1.514 0 0 0-0.218-8e-3h-61.863" fill="url(#m-7)"/>
		<path d="m1 0a0.998 0.998 0 0 0-1 1.002v61.928c0 0.045 0.042 0.203 0.115 0.453 0.123 0.184 0.333 0.197 0.572-3e-3v-59.87c0.024-0.089 0.045-0.135 0.062-0.135 0.097-0.174 0.207-0.353 0.478-0.484 0.204-0.122 0.448-0.203 0.696-0.203 19.519 2e-3 38.863 0 60.067 0a1.4 1.4 0 0 1 0.914 0.332c0.15 0.103 0.224 0.225 0.267 0.355 0.035 0 0.073 0.108 0.142 0.313v59.612c0.302 0.251 0.557 0.196 0.65-0.074a1.7 1.7 0 0 0 0.037-0.33v-61.825c0-0.1-6e-3 -0.175-0.017-0.224a0.99 0.99 0 0 0-0.915-0.84 1.712 1.712 0 0 0-0.218-7e-3h-61.85" fill="url(#n-0)"/>
		<path d="m1 0a0.998 0.998 0 0 0-1 1.002v61.942c0 0.077 0.046 0.242 0.126 0.473 0.134 0.201 0.363 0.246 0.624 0.086v-59.856c0.02-0.097 0.035-0.147 0.05-0.147a0.981 0.981 0 0 1 0.447-0.529c0.2-0.133 0.444-0.221 0.691-0.221 19.553 2e-3 38.811 0 60.053 0 0.36 0 0.686 0.144 0.903 0.362a0.688 0.688 0 0 1 0.242 0.388c0.028 0 0.059 0.118 0.114 0.341v59.598c0.33 0.2 0.608 0.1 0.709-0.194 0.026-0.117 0.04-0.228 0.04-0.329v-61.86c0-0.095-6e-3 -0.17-0.018-0.224a0.991 0.991 0 0 0-0.927-0.827 2.015 2.015 0 0 0-0.218-5e-3h-61.836" fill="url(#o-9)"/>
		<path d="m1 0a0.998 0.998 0 0 0-1 1.001v61.956c0 0.11 0.05 0.281 0.136 0.494 0.146 0.218 0.394 0.296 0.677 0.176v-59.843c0.014-0.105 0.026-0.16 0.036-0.16a0.967 0.967 0 0 1 0.419-0.572c0.196-0.144 0.439-0.24 0.686-0.24 19.586 2e-3 38.758 0 60.04 0 0.36 0 0.685 0.156 0.892 0.392a0.73 0.73 0 0 1 0.216 0.42c0.021 0 0.044 0.128 0.086 0.37v59.585c0.356 0.15 0.658 5e-3 0.768-0.314 0.029-0.114 0.044-0.224 0.044-0.328v-61.895c0-0.09-7e-3 -0.166-0.02-0.224a0.992 0.992 0 0 0-0.94-0.814 2.524 2.524 0 0 0-0.217-5e-3h-61.823" fill="url(#p-3)"/>
		<path d="m1 0a0.998 0.998 0 0 0-1 1v61.972c0 0.142 0.054 0.32 0.147 0.515a0.643 0.643 0 0 0 0.728 0.265v-59.83c0.01-0.114 0.018-0.172 0.025-0.172a0.97 0.97 0 0 1 0.389-0.617c0.192-0.155 0.434-0.258 0.68-0.258 19.62 2e-3 38.705 0 60.027 0 0.362 0 0.686 0.168 0.882 0.422a0.794 0.794 0 0 1 0.19 0.453c0.015 0 0.03 0.137 0.057 0.398v59.572c0.385 0.1 0.71-0.09 0.828-0.434 0.03-0.11 0.047-0.22 0.047-0.328v-61.93c0-0.086-7e-3 -0.161-0.021-0.224a0.994 0.994 0 0 0-0.951-0.802 3.563 3.563 0 0 0-0.219-2e-3h-61.809" fill="url(#q-6)"/>
		<path d="m1 0a0.998 0.998 0 0 0-1 1v61.986c0 0.174 0.058 0.358 0.157 0.535a0.802 0.802 0 0 0 0.78 0.355v-59.816c5e-3 -0.122 0.01-0.185 0.013-0.185a0.987 0.987 0 0 1 0.36-0.66c0.187-0.166 0.429-0.277 0.675-0.277 19.653 2e-3 38.652 0 60.013 0 0.363 0 0.685 0.18 0.87 0.452a0.876 0.876 0 0 1 0.166 0.485c7e-3 0 0.015 0.147 0.028 0.427v59.558c0.412 0.05 0.76-0.186 0.887-0.553a1.1 1.1 0 0 0 0.05-0.328v-61.965a0.996 0.996 0 0 0-0.985-1.014 6.67 6.67 0 0 0-0.219 0h-61.795" fill="url(#r-0)"/>
		<path d="m1 0a0.998 0.998 0 0 0-1 1v62a0.997 0.997 0 0 0 1 1v-59.999c0-0.254 0.132-0.514 0.33-0.705a0.99 0.99 0 0 1 0.67-0.295c19.687 2e-3 38.599 0 60 0a1 1 0 0 1 0.86 0.483 0.98 0.98 0 0 1 0.14 0.516v60a0.998 0.998 0 0 0 1-1v-61.999a0.998 0.998 0 0 0-1-1h-62" fill="url(#s-6)"/>
	</g>
</svg>
