<?xml version="1.0" encoding="UTF-8"?>
<!-- Created with Inkscape (http://www.inkscape.org/) -->
<svg width="64" height="64" version="1.1" xmlns="http://www.w3.org/2000/svg" xmlns:cc="http://creativecommons.org/ns#" xmlns:dc="http://purl.org/dc/elements/1.1/" xmlns:rdf="http://www.w3.org/1999/02/22-rdf-syntax-ns#" xmlns:xlink="http://www.w3.org/1999/xlink">
	<defs>
		<linearGradient id="linearGradient27851">
			<stop stop-color="#245194" stop-opacity=".0018752" offset="0"/>
			<stop stop-color="#245093" offset=".78125"/>
			<stop stop-color="#204a88" offset="1"/>
		</linearGradient>
		<linearGradient id="a-6-5">
			<stop stop-color="#80d4ff" stop-opacity=".11" offset="0"/>
			<stop stop-color="#79cdff" stop-opacity=".05" offset="1"/>
		</linearGradient>
		<radialGradient id="radialGradient27572" cx="35.574" cy="1.019" r="32" gradientTransform="matrix(0,1.1252,-5.1753,0,37.271,-39.029)" gradientUnits="userSpaceOnUse" xlink:href="#a-6-5"/>
		<radialGradient id="radialGradient27574" cx="35.574" cy="1.036" r="32" gradientTransform="matrix(0,1.1252,-5.1753,0,37.363,-39.029)" gradientUnits="userSpaceOnUse" xlink:href="#a-6-5"/>
		<radialGradient id="radialGradient27576" cx="35.574" cy="1.055" r="32" gradientTransform="matrix(0,1.1252,-5.1753,0,37.458,-39.029)" gradientUnits="userSpaceOnUse" xlink:href="#a-6-5"/>
		<radialGradient id="radialGradient27578" cx="35.574" cy="1.071" r="32" gradientTransform="matrix(0,1.1252,-5.1753,0,37.544,-39.029)" gradientUnits="userSpaceOnUse" xlink:href="#a-6-5"/>
		<radialGradient id="radialGradient27580" cx="35.574" cy="1.091" r="32" gradientTransform="matrix(0,1.1252,-5.1753,0,37.648,-39.029)" gradientUnits="userSpaceOnUse" xlink:href="#a-6-5"/>
		<radialGradient id="radialGradient27582" cx="35.574" cy="1.113" r="32" gradientTransform="matrix(0,1.1252,-5.1753,0,37.758,-39.029)" gradientUnits="userSpaceOnUse" xlink:href="#a-6-5"/>
		<radialGradient id="radialGradient27584" cx="35.574" cy="1.135" r="32" gradientTransform="matrix(0,1.1252,-5.1753,0,37.875,-39.029)" gradientUnits="userSpaceOnUse" xlink:href="#a-6-5"/>
		<radialGradient id="radialGradient27586" cx="35.574" cy="1.159" r="32" gradientTransform="matrix(0,1.1252,-5.1753,0,38,-39.029)" gradientUnits="userSpaceOnUse" xlink:href="#a-6-5"/>
		<radialGradient id="radialGradient27588" cx="35.574" cy="1.18" r="32" gradientTransform="matrix(0,1.1252,-5.1753,0,38.107,-39.029)" gradientUnits="userSpaceOnUse" xlink:href="#a-6-5"/>
		<radialGradient id="radialGradient27590" cx="35.574" cy="1.208" r="32" gradientTransform="matrix(0,1.1252,-5.1753,0,38.252,-39.029)" gradientUnits="userSpaceOnUse" xlink:href="#a-6-5"/>
		<radialGradient id="radialGradient27592" cx="35.574" cy="1.239" r="32" gradientTransform="matrix(0,1.1252,-5.1753,0,38.411,-39.029)" gradientUnits="userSpaceOnUse" xlink:href="#a-6-5"/>
		<radialGradient id="radialGradient27594" cx="35.574" cy="1.273" r="32" gradientTransform="matrix(0,1.1252,-5.1753,0,38.587,-39.029)" gradientUnits="userSpaceOnUse" xlink:href="#a-6-5"/>
		<radialGradient id="radialGradient27596" cx="35.574" cy="1.304" r="32" gradientTransform="matrix(0,1.1252,-5.1753,0,38.75,-39.029)" gradientUnits="userSpaceOnUse" xlink:href="#a-6-5"/>
		<radialGradient id="radialGradient27598" cx="35.574" cy="1.346" r="32" gradientTransform="matrix(0,1.1252,-5.1753,0,38.966,-39.029)" gradientUnits="userSpaceOnUse" xlink:href="#a-6-5"/>
		<radialGradient id="radialGradient27600" cx="35.574" cy="1.393" r="32" gradientTransform="matrix(0,1.1252,-5.1753,0,39.208,-39.029)" gradientUnits="userSpaceOnUse" xlink:href="#a-6-5"/>
		<radialGradient id="radialGradient27602" cx="35.574" cy="1.439" r="32" gradientTransform="matrix(0,1.1252,-5.1753,0,39.446,-39.029)" gradientUnits="userSpaceOnUse" xlink:href="#a-6-5"/>
		<radialGradient id="radialGradient27604" cx="5.9927" cy="1.4073" r="32" gradientTransform="matrix(0 .012817 -1.2755 0 33.91 1.4205)" gradientUnits="userSpaceOnUse" xlink:href="#a-6-5">
			<stop stop-color="#ffd2e9" stop-opacity=".3231" offset="0"/>
			<stop stop-color="#ffc0b2" stop-opacity="0" offset="1"/>
		</radialGradient>
		<radialGradient id="radialGradient36696" cx="31.744" cy="35.593" r="32" gradientTransform="matrix(-1.1553 0 0 1.1553 68.931 -5.529)" gradientUnits="userSpaceOnUse">
			<stop stop-color="#1878e7" offset="0"/>
			<stop stop-color="#237fe8" offset="1"/>
		</radialGradient>
		<radialGradient id="radialGradient27853" cx="3.8898" cy="61.118" r="14.987" gradientTransform="matrix(2.1351 0 0 2.1351 -8.3052 -66.495)" gradientUnits="userSpaceOnUse" xlink:href="#linearGradient27851"/>
		<radialGradient id="radialGradient83226" cx="64" cy="1.5251" r="14.964" gradientTransform="matrix(-2.1385 0 0 -2.2049 200.86 4.3627)" gradientUnits="userSpaceOnUse" xlink:href="#linearGradient27851"/>
		<linearGradient id="linearGradient83902" x1="64" x2="32" y1="34" y2="34" gradientUnits="userSpaceOnUse">
			<stop stop-color="#80cafa" offset="0"/>
			<stop stop-color="#2177de" offset="1"/>
		</linearGradient>
	</defs>
	<metadata>
		<rdf:RDF>
			<cc:Work rdf:about="">
				<dc:format>image/svg+xml</dc:format>
				<dc:type rdf:resource="http://purl.org/dc/dcmitype/StillImage"/>
			</cc:Work>
		</rdf:RDF>
	</metadata>
	<path d="m32.082 1.1582c-0.03105 0.28023-0.0584 0.56085-0.08203 0.8418-1e-6 17.673 14.327 32 32 32v-2c-17.199-0.03282-31.296-13.654-31.918-30.842z" fill="url(#linearGradient83902)"/>
	<rect x="2" y="2" width="60" height="60" rx="1" ry="1" fill="#89bdeb" stop-color="#000000" style="-inkscape-stroke:none;font-variation-settings:normal;paint-order:stroke fill markers"/>
	<rect x="2" y="3" width="60" height="60" rx="1" ry="1" fill="#245194" stop-color="#000000" style="-inkscape-stroke:none;font-variation-settings:normal;paint-order:stroke fill markers"/>
	<path d="m2 32.07v29.93c0 0.554 0.446 1 1 1h28.975a32 32 0 0 0-29.975-30.93z" fill="url(#radialGradient27853)" stop-color="#000000" style="-inkscape-stroke:none;font-variation-settings:normal;paint-order:stroke fill markers"/>
	<path d="m32.072 3a32 32 0 0 0 29.928 30.857v-29.857c0-0.554-0.446-1-1-1z" fill="url(#radialGradient83226)" stop-color="#000000" style="-inkscape-stroke:none;font-variation-settings:normal;paint-order:stroke fill markers"/>
	<g transform="translate(1.5741e-5)">
		<path d="m0.99998 0c-0.554 0-1 0.446-1 1v31a32 32 0 0 1 32 32h31c0.554 0 1-0.446 1-1v-29a32 32 0 0 1-32-32 32 32 0 0 1 0.19727-2z" fill="url(#radialGradient36696)" opacity=".87403"/>
		<g transform="translate(0 .001503)">
			<path d="m1 0c-0.554 4.4736e-5 -1 0.446-1 1v30-0.224 0.224-30h1.752c19.15 2e-3 30.248-0.002503 30.248-0.002503v-1z" fill="url(#radialGradient27572)"/>
			<path d="m1 0c-0.5551-0.0011303-1.0045 0.45091-1 1.006v29.98-0.197c0-0.277 4e-3 -0.184 0.01 0.246 0.012 0.016 0.03-0.297 0.052-0.897v-29c0.072-9e-3 0.133-0.013 0.185-0.013 0.29-0.016 0.357-0.032 0.774-0.044 0.246-0.011 0.496-0.019 0.747-0.019 19.183 2e-3 30.232-0.0025 30.232-0.0025v0.03-1.092l-31 0.0025" fill="url(#radialGradient27574)"/>
			<path d="m1 0c-0.5551-0.0011303-1.0045 0.45091-1 1.006v29.966-0.169c0-0.245 8e-3 -0.145 0.021 0.266 0.022 0.034 0.06-0.247 0.104-0.807v-28.988c0.056484-0.015102 0.11455-0.023493 0.173-0.025 0.27-0.031 0.341-0.064 0.743-0.088 0.242-0.022 0.492-0.037 0.742-0.037 19.217 2e-3 30.217-0.0025033 30.217-0.0025033v0.06-1.184l-31 0.0025033" fill="url(#radialGradient27576)"/>
			<path d="m1 0c-0.55471-0.0011253-1.0039 0.45031-1 1.005v29.953-0.14c0-0.213 0.012-0.107 0.031 0.287 0.034 0.05 0.091-0.198 0.156-0.718v-28.974c0.050612-0.022043 0.10485-0.034585 0.16-0.037 0.252-0.048 0.327-0.097 0.715-0.132 0.238-0.034 0.487-0.056 0.737-0.056 19.25 2e-3 30.201-0.0025 30.201-0.0025v0.09-1.276l-31.001 0.0025" fill="url(#radialGradient27578)"/>
			<path d="m1 0c-0.55471-0.0011253-1.0039 0.45031-1 1.005v29.939-0.113c0-0.18 0.015-0.068 0.042 0.308 0.045 0.067 0.121-0.149 0.208-0.629v-28.96c0.044295-0.028947 0.095225-0.046153 0.148-0.05 0.232-0.063 0.311-0.128 0.684-0.176 0.234-0.044 0.483-0.074 0.732-0.074 19.284 2e-3 30.186-0.0025 30.186-0.0025v0.12-1.37l-31 0.0025" fill="url(#radialGradient27580)"/>
			<path d="m1 0c-0.55431-0.0011209-1.0033 0.4497-1 1.004v29.926-0.084c0-0.148 0.02-0.029 0.052 0.328 0.056 0.084 0.152-0.099 0.26-0.539v-28.949c0.053-0.04 0.097-0.061 0.136-0.061 0.212-0.08 0.297-0.16 0.655-0.22 0.23-0.056 0.477-0.093 0.727-0.093 19.317 2e-3 30.17-0.0025 30.17-0.0025v0.151-1.463l-31 0.0025" fill="url(#radialGradient27582)"/>
			<path d="m1 0c-0.55431-0.0011209-1.0033 0.4497-1 1.004v29.912-0.056c0-0.117 0.023 0.01 0.063 0.349 0.067 0.1 0.182-0.05 0.312-0.45v-28.935c0.048-0.049 0.088-0.074 0.123-0.074 0.193-0.095 0.282-0.192 0.626-0.264 0.225-0.067 0.472-0.11 0.721-0.11l30.155-0.0025v0.18-1.556l-31 0.0025" fill="url(#radialGradient27584)"/>
			<path d="m1 0c-0.55431-0.0011209-1.0033 0.4497-1 1.004v29.898-0.029c0-0.084 0.027 0.049 0.073 0.37 0.079 0.117 0.212 0 0.365-0.36v-28.923c0.043-0.057 0.079-0.086 0.11-0.086 0.174-0.112 0.267-0.225 0.596-0.309 0.23012-0.082729 0.47247-0.12633 0.717-0.129 19.385 2e-3 30.139-0.0025 30.139-0.0025v0.211-1.647l-31 0.0025" fill="url(#radialGradient27586)"/>
			<path d="M 1,0 C 0.44608,-0.001117 -0.0028,0.44909 0,1.003 v 29.885 c 0,-0.052 0.03,0.087 0.084,0.39 0.09,0.135 0.242,0.05 0.416,-0.27 V 2.097 C 0.538,2.034 0.57,2 0.599,2 0.753,1.873 0.85,1.743 1.165,1.648 1.382,1.559 1.628,1.5 1.876,1.5 21.294,1.502 32,1.4975 32,1.4975 v 0.242 -1.742 L 1.001,0" fill="url(#radialGradient27588)"/>
			<path d="m1 0c-0.55392-0.001117-1.0028 0.44909-1 1.003v29.899c0-0.02 0.035 0.126 0.094 0.41 0.101 0.152 0.273 0.1 0.468-0.18v-28.897c0.034-0.073 0.062-0.11 0.087-0.11 0.135-0.143 0.236-0.29 0.536-0.397 0.213-0.1 0.459-0.166 0.707-0.166 19.452 2e-3 30.108-0.0025 30.108-0.0025v0.272-1.832l-31 0.0025" fill="url(#radialGradient27590)"/>
			<path d="m1 0c-0.55353-0.0011137-1.0022 0.44848-1 1.002v29.913c0 0.013 0.039 0.165 0.105 0.432 0.112 0.168 0.303 0.148 0.52-0.092v-28.882c0.029-0.081 0.053-0.123 0.074-0.123 0.116-0.159 0.222-0.321 0.507-0.44 0.209-0.111 0.454-0.185 0.701-0.185 19.486 2e-3 30.093-0.0025 30.093-0.0025v0.302-1.926l-31 0.0025" fill="url(#radialGradient27592)"/>
			<path d="m1 0c-0.55353-0.0011137-1.0022 0.44848-1 1.002v29.928c0 0.045 0.042 0.203 0.115 0.453 0.123 0.184 0.333 0.197 0.572-3e-3v-28.87c0.024-0.089 0.045-0.135 0.062-0.135 0.097-0.174 0.207-0.353 0.478-0.484 0.204-0.122 0.448-0.203 0.696-0.203 19.519 2e-3 30.077-0.0025 30.077-0.0025v0.332-2.02l-31 0.0025" fill="url(#radialGradient27594)"/>
			<path d="M 1,0 C 0.44647,-0.0011137 -0.0022,0.44848 0,1.002 v 29.942 c 0,0.077 0.046,0.242 0.126,0.473 0.134,0.201 0.363,0.246 0.624,0.086 V 2.647 C 0.77,2.55 0.785,2.5 0.8,2.5 0.879731,2.27519 1.03864,2.08712 1.247,1.971 1.447,1.838 1.691,1.75 1.938,1.75 21.491,1.752 32,1.7475 32,1.7475 v -1.75 L 1,0" fill="url(#radialGradient27596)"/>
			<path d="m1 0c-0.55314-0.001111-1.0017 0.44787-1 1.001v29.956c0 0.11 0.05 0.281 0.136 0.494 0.146 0.218 0.394 0.296 0.677 0.176v-28.843c0.014-0.105 0.026-0.16 0.036-0.16 0.062205-0.23684 0.21195-0.44126 0.419-0.572 0.196-0.144 0.439-0.24 0.686-0.24 19.586 2e-3 30.046-0.0025 30.046-0.0025v-1.813l-31 0.0025" fill="url(#radialGradient27598)"/>
			<path d="m1 0c-0.55274-0.0011088-1.0011 0.44726-1 1v29.972c0 0.142 0.054 0.32 0.147 0.515 0.15624 0.24102 0.45338 0.34918 0.728 0.265v-28.83c0.01-0.114 0.018-0.172 0.025-0.172 0.044459-0.24844 0.184-0.46977 0.389-0.617 0.192-0.155 0.434-0.258 0.68-0.258 19.62 2e-3 30.031-0.0025 30.031-0.0025v-1.875l-31 0.0025033" fill="url(#radialGradient27600)"/>
			<path d="M 1,0 C 0.44726,-0.0011088 -0.0011,0.44726 0,1 v 29.986 c 0,0.174 0.058,0.358 0.157,0.535 0.16968,0.25897 0.47327,0.39714 0.78,0.355 V 3.06 C 0.942,2.938 0.947,2.875 0.95,2.875 0.978233,2.61612 1.10763,2.37889 1.31,2.215 1.497,2.049 1.739,1.938 1.985,1.938 21.638,1.94 32,1.9355 32,1.9355 v -1.938 L 1,0" fill="url(#radialGradient27602)"/>
			<path d="m1 0c-0.55274-0.0011088-1.0011 0.44726-1 1v1l31.992-0.00401 0.0075-1.9965-31 0.0025067z" fill="url(#radialGradient27604)"/>
			<path d="m-3.2081e-5 0.9985v2.5l2-2z" fill="#98e2ff" fill-opacity=".70005"/>
		</g>
	</g>
	<path d="m32.041 2.5801c-0.014595 0.13988-0.028267 0.27986-0.041016 0.41992-1e-6 17.673 14.327 32 32 32v-1c-17.433-0.019479-31.643-13.99-31.959-31.42z" fill="url(#linearGradient83902)"/>
	<g>
		<path d="m44.669 47.881q0.8644 1.2712 1.8813 2.0339 1.0678 0.71186 2.5932 1.0678v1.0169q-2.4407-0.15254-6.1016-0.15254-2.7457 0-5.2372 0.15254v-1.0169q1.2203-0.05085 1.7796-0.30508 0.55932-0.25423 0.55932-0.7627t-0.50847-1.2203l-7.4236-11.186q-1.4746-2.2373-2.4915-2.8983-1.0169-0.71186-2.8474-0.81355v12.813q0 1.9322 0.30508 2.7966t1.1186 1.1695q0.8644 0.30508 2.6949 0.40678v1.0169q-2.339-0.15254-6.4576-0.15254-4.3728 0-6.5084 0.15254v-1.0169q1.8305-0.10169 2.644-0.40678 0.8644-0.30508 1.1695-1.1695 0.30508-0.8644 0.30508-2.7966v-25.22q0-1.9322-0.30508-2.7966t-1.1695-1.1695q-0.81355-0.30508-2.644-0.40678v-1.0169q2.1356 0.15254 6.5084 0.15254 4.0678 0 6.4576-0.15254v1.0169q-1.8305 0.10169-2.6949 0.40678-0.81355 0.30508-1.1186 1.1695-0.30508 0.8644-0.30508 2.7966v11.39q3.7118-0.15254 5.7965-2.8474l4.8813-6.2033q2.5932-3.2034 2.5932-4.8813 0-1.7796-3.1525-1.8305v-1.0169q2.8983 0.15254 5.8474 0.15254 2.7966 0 4.322-0.15254v1.0169q-1.6779 0.25423-3.1525 1.1186-1.4746 0.81355-2.8474 2.5932l-8.288 10.627z" color="#000000" fill="#c8dee7"/>
		<path d="m18.025 16v1c1.4237 0.10169 3.5926 0.15234 6.5078 0.15234 2.7119 0 4.8658-0.05065 6.459-0.15234v-1c-1.5932 0.10169-3.7471 0.15234-6.459 0.15234-2.9152 0-5.0841-0.05065-6.5078-0.15234zm18.965 0v1c1.9322 0.10169 3.8816 0.15234 5.8477 0.15234 1.8644 0 3.3053-0.05065 4.3223-0.15234v-1c-1.0169 0.10169-2.4579 0.15234-4.3223 0.15234-1.9661 0-3.9155-0.05065-5.8477-0.15234zm3.0898 3.3867c-0.21968 1.0807-1.0588 2.5252-2.5293 4.3418l-4.8809 6.2031c-1.3898 1.7966-3.3223 2.746-5.7969 2.8477v1c2.4745-0.10169 4.4071-1.0511 5.7969-2.8477l4.8809-6.2031c1.7288-2.1356 2.5938-3.7623 2.5938-4.8809 0-0.16511-0.02375-0.31815-0.06445-0.46094zm-6.834 12.49-0.37305 0.47852 11.797 16.525c0.57627 0.84747 1.2029 1.5247 1.8809 2.0332 0.71187 0.47457 1.5749 0.83107 2.5918 1.0684v-1c-1.0169-0.23729-1.8799-0.59379-2.5918-1.0684-0.67793-0.50847-1.3046-1.1857-1.8809-2.0332zm-11.102 14.732c0 1.2881-0.10325 2.2206-0.30664 2.7969-0.2034 0.57628-0.5917 0.96654-1.168 1.1699-0.54233 0.20339-1.4242 0.33846-2.6445 0.40625v1c1.2203-0.06779 2.1022-0.20286 2.6445-0.40625 0.57627-0.20339 0.96457-0.59364 1.168-1.1699 0.20339-0.57627 0.30664-1.5087 0.30664-2.7969zm4.7285 0v1c0 1.2881 0.1013 2.2206 0.30469 2.7969 0.20339 0.57627 0.57679 0.96652 1.1191 1.1699 0.57627 0.20339 1.475 0.33845 2.6953 0.40625v-1c-1.2203-0.0678-2.119-0.20286-2.6953-0.40625-0.54235-0.2034-0.91575-0.59366-1.1191-1.1699-0.20339-0.57627-0.30469-1.5087-0.30469-2.7969zm13.139 3.7363c-0.09311 0.1329-0.23498 0.24442-0.42774 0.33203-0.37287 0.16949-0.96576 0.27079-1.7793 0.30469v1c0.81353-0.0339 1.4064-0.1352 1.7793-0.30469 0.37288-0.16949 0.56055-0.42469 0.56055-0.76367 0-0.17199-0.04555-0.36147-0.13281-0.56836z" fill="#f3f9ff" fill-opacity=".83221"/>
		<g opacity=".18263">
			<g fill="#000080" fill-opacity=".11017" opacity=".50353">
				<path d="m44.669 56.75c0.5763 0.8475 1.2034 1.5255 1.8813 2.0339 0.7119 0.4746 1.5763 0.8305 2.5932 1.0678v1.0169c-1.6271-0.1017-3.661-0.1525-6.1016-0.1525-1.8305 0-3.5762 0.0508-5.2372 0.1525v-1.0169c0.8135-0.0339 1.4067-0.1356 1.7796-0.305 0.3729-0.1695 0.5593-0.4238 0.5593-0.7627 0-0.339-0.1695-0.7458-0.5084-1.2203l-7.4236-11.186c-0.9831-1.4916-1.8136-2.4577-2.4915-2.8983-0.678-0.4746-1.6271-0.7458-2.8474-0.8136v12.813c0 1.2881 0.1016 2.2203 0.305 2.7966s0.5763 0.9661 1.1186 1.1695c0.5763 0.2034 1.4746 0.339 2.6949 0.4068v1.0169c-1.5593-0.1017-3.7118-0.1525-6.4576-0.1525-2.9152 0-5.0846 0.0508-6.5084 0.1525v-1.0169c1.2204-0.0678 2.1017-0.2034 2.644-0.4068 0.5763-0.2034 0.9661-0.5932 1.1695-1.1695s0.3051-1.5085 0.3051-2.7966v-25.22c0-1.2881-0.1017-2.2203-0.3051-2.7966s-0.5932-0.9661-1.1695-1.1695c-0.5423-0.2034-1.4237-0.339-2.644-0.4068v-1.0169c1.4238 0.1017 3.5932 0.1526 6.5084 0.1526 2.7119 0 4.8644-0.0509 6.4576-0.1526v1.0169c-1.2203 0.0678-2.1186 0.2034-2.6949 0.4068-0.5423 0.2034-0.9152 0.5932-1.1186 1.1695s-0.305 1.5085-0.305 2.7966v11.39c2.4745-0.1017 4.4067-1.0508 5.7965-2.8474l4.8813-6.2033c1.7288-2.1356 2.5932-3.7627 2.5932-4.8813 0-1.1864-1.0509-1.7966-3.1525-1.8305v-1.0169c1.9322 0.1017 3.8813 0.1526 5.8474 0.1526 1.8644 0 3.305-0.0509 4.322-0.1526v1.0169c-1.1186 0.1695-2.1695 0.5424-3.1525 1.1186-0.9831 0.5424-1.9322 1.4068-2.8474 2.5932l-8.288 10.627z" opacity="1"/>
				<path d="m44.669 53.824c0.5763 0.8475 1.2034 1.5254 1.8813 2.0339 0.7119 0.4746 1.5763 0.8305 2.5932 1.0678v1.0169c-1.6271-0.1017-3.661-0.1525-6.1016-0.1525-1.8305 0-3.5762 0.0508-5.2372 0.1525v-1.0169c0.8135-0.0339 1.4067-0.1356 1.7796-0.3051s0.5593-0.4237 0.5593-0.7627c0-0.3389-0.1695-0.7457-0.5084-1.2203l-7.4236-11.186c-0.9831-1.4915-1.8136-2.4576-2.4915-2.8983-0.678-0.4745-1.6271-0.7457-2.8474-0.8135v12.813c0 1.2881 0.1016 2.2203 0.305 2.7966s0.5763 0.9661 1.1186 1.1695c0.5763 0.2034 1.4746 0.339 2.6949 0.4068v1.0169c-1.5593-0.1017-3.7118-0.1526-6.4576-0.1526-2.9152 0-5.0846 0.0509-6.5084 0.1526v-1.0169c1.2204-0.0678 2.1017-0.2034 2.644-0.4068 0.5763-0.2034 0.9661-0.5932 1.1695-1.1695s0.3051-1.5085 0.3051-2.7966v-25.22c0-1.2881-0.1017-2.2203-0.3051-2.7966s-0.5932-0.9661-1.1695-1.1695c-0.5423-0.2034-1.4237-0.339-2.644-0.4068v-1.0169c1.4238 0.1017 3.5932 0.1525 6.5084 0.1525 2.7119 0 4.8644-0.0508 6.4576-0.1525v1.0169c-1.2203 0.0678-2.1186 0.2034-2.6949 0.4068-0.5423 0.2034-0.9152 0.5932-1.1186 1.1695s-0.305 1.5085-0.305 2.7966v11.39c2.4745-0.1017 4.4067-1.0508 5.7965-2.8474l4.8813-6.2033c1.7288-2.1356 2.5932-3.7627 2.5932-4.8813 0-1.1864-1.0509-1.7966-3.1525-1.8305v-1.0169c1.9322 0.1017 3.8813 0.1525 5.8474 0.1525 1.8644 0 3.305-0.0508 4.322-0.1525v1.0169c-1.1186 0.1695-2.1695 0.5423-3.1525 1.1186-0.9831 0.5424-1.9322 1.4068-2.8474 2.5932l-8.288 10.627z" opacity="1"/>
				<path d="m44.669 52.889c0.5763 0.8475 1.2034 1.5254 1.8813 2.0339 0.7119 0.4746 1.5763 0.8305 2.5932 1.0678v1.0169c-1.6271-0.1017-3.661-0.1526-6.1016-0.1526-1.8305 0-3.5762 0.0509-5.2372 0.1526v-1.0169c0.8135-0.0339 1.4067-0.1356 1.7796-0.3051s0.5593-0.4237 0.5593-0.7627-0.1695-0.7457-0.5084-1.2203l-7.4236-11.186c-0.9831-1.4915-1.8136-2.4576-2.4915-2.8983-0.678-0.4746-1.6271-0.7458-2.8474-0.8135v12.813c0 1.2881 0.1016 2.2203 0.305 2.7966 0.2034 0.5762 0.5763 0.9661 1.1186 1.1695 0.5763 0.2033 1.4746 0.3389 2.6949 0.4067v1.0169c-1.5593-0.1017-3.7118-0.1525-6.4576-0.1525-2.9152 0-5.0846 0.0508-6.5084 0.1525v-1.0169c1.2204-0.0678 2.1017-0.2034 2.644-0.4067 0.5763-0.2034 0.9661-0.5933 1.1695-1.1695 0.2034-0.5763 0.3051-1.5085 0.3051-2.7966v-25.22c0-1.2882-0.1017-2.2204-0.3051-2.7966-0.2034-0.5763-0.5932-0.9661-1.1695-1.1695-0.5423-0.2034-1.4237-0.339-2.644-0.4068v-1.0169c1.4238 0.1017 3.5932 0.1525 6.5084 0.1525 2.7119 0 4.8644-0.0508 6.4576-0.1525v1.0169c-1.2203 0.0678-2.1186 0.2034-2.6949 0.4068-0.5423 0.2033-0.9152 0.5932-1.1186 1.1695-0.2034 0.5762-0.305 1.5084-0.305 2.7966v11.39c2.4745-0.1017 4.4067-1.0509 5.7965-2.8474l4.8813-6.2033c1.7288-2.1356 2.5932-3.7627 2.5932-4.8813 0-1.1864-1.0509-1.7966-3.1525-1.8305v-1.0169c1.9322 0.1016 3.8813 0.1525 5.8474 0.1525 1.8644 0 3.305-0.0509 4.322-0.1525v1.0169c-1.1186 0.1694-2.1695 0.5423-3.1525 1.1186-0.9831 0.5423-1.9322 1.4067-2.8474 2.5932l-8.288 10.627z" opacity="1"/>
				<path d="m44.669 52.21c0.5763 0.8474 1.2034 1.5254 1.8813 2.0339 0.7119 0.4745 1.5763 0.8305 2.5932 1.0678v1.0169c-1.6271-0.1017-3.661-0.1526-6.1016-0.1526-1.8305 0-3.5762 0.0509-5.2372 0.1526v-1.0169c0.8135-0.0339 1.4067-0.1356 1.7796-0.3051s0.5593-0.4237 0.5593-0.7627-0.1695-0.7458-0.5084-1.2203l-7.4236-11.186c-0.9831-1.4915-1.8136-2.4576-2.4915-2.8983-0.678-0.4746-1.6271-0.7458-2.8474-0.8136v12.813c0 1.2882 0.1016 2.2204 0.305 2.7966 0.2034 0.5763 0.5763 0.9661 1.1186 1.1695 0.5763 0.2034 1.4746 0.339 2.6949 0.4068v1.0169c-1.5593-0.1017-3.7118-0.1525-6.4576-0.1525-2.9152 0-5.0846 0.0508-6.5084 0.1525v-1.0169c1.2204-0.0678 2.1017-0.2034 2.644-0.4068 0.5763-0.2033 0.9661-0.5932 1.1695-1.1695 0.2034-0.5762 0.3051-1.5084 0.3051-2.7966v-25.22c0-1.2881-0.1017-2.2203-0.3051-2.7966-0.2034-0.5762-0.5932-0.9661-1.1695-1.1695-0.5423-0.2033-1.4237-0.3389-2.644-0.4067v-1.0169c1.4238 0.1017 3.5932 0.1525 6.5084 0.1525 2.7119 0 4.8644-0.0508 6.4576-0.1525v1.0169c-1.2203 0.0678-2.1186 0.2034-2.6949 0.4067-0.5423 0.2034-0.9152 0.5933-1.1186 1.1695-0.2034 0.5763-0.305 1.5085-0.305 2.7966v11.39c2.4745-0.1016 4.4067-1.0508 5.7965-2.8474l4.8813-6.2033c1.7288-2.1356 2.5932-3.7627 2.5932-4.8813 0-1.1864-1.0509-1.7965-3.1525-1.8305v-1.0169c1.9322 0.1017 3.8813 0.1526 5.8474 0.1526 1.8644 0 3.305-0.0509 4.322-0.1526v1.0169c-1.1186 0.1695-2.1695 0.5424-3.1525 1.1186-0.9831 0.5424-1.9322 1.4068-2.8474 2.5932l-8.288 10.627z" opacity="1"/>
				<path d="m44.669 51.656c0.5763 0.8475 1.2034 1.5254 1.8813 2.0339 0.7119 0.4746 1.5763 0.8305 2.5932 1.0678v1.0169c-1.6271-0.1017-3.661-0.1525-6.1016-0.1525-1.8305 0-3.5762 0.0508-5.2372 0.1525v-1.0169c0.8135-0.0339 1.4067-0.1356 1.7796-0.3051s0.5593-0.4237 0.5593-0.7627-0.1695-0.7457-0.5084-1.2203l-7.4236-11.186c-0.9831-1.4915-1.8136-2.4576-2.4915-2.8983-0.678-0.4746-1.6271-0.7457-2.8474-0.8135v12.813c0 1.2881 0.1016 2.2203 0.305 2.7966 0.2034 0.5762 0.5763 0.9661 1.1186 1.1695 0.5763 0.2034 1.4746 0.339 2.6949 0.4068v1.0169c-1.5593-0.1017-3.7118-0.1526-6.4576-0.1526-2.9152 0-5.0846 0.0509-6.5084 0.1526v-1.0169c1.2204-0.0678 2.1017-0.2034 2.644-0.4068 0.5763-0.2034 0.9661-0.5932 1.1695-1.1695s0.3051-1.5085 0.3051-2.7966v-25.22c0-1.2882-0.1017-2.2204-0.3051-2.7966-0.2034-0.5763-0.5932-0.9661-1.1695-1.1695-0.5423-0.2034-1.4237-0.339-2.644-0.4068v-1.0169c1.4238 0.1017 3.5932 0.1525 6.5084 0.1525 2.7119 0 4.8644-0.0508 6.4576-0.1525v1.0169c-1.2203 0.0678-2.1186 0.2034-2.6949 0.4068-0.5423 0.2034-0.9152 0.5932-1.1186 1.1695-0.2034 0.5762-0.305 1.5084-0.305 2.7966v11.39c2.4745-0.1017 4.4067-1.0509 5.7965-2.8474l4.8813-6.2033c1.7288-2.1356 2.5932-3.7627 2.5932-4.8813 0-1.1864-1.0509-1.7966-3.1525-1.8305v-1.0169c1.9322 0.1017 3.8813 0.1525 5.8474 0.1525 1.8644 0 3.305-0.0508 4.322-0.1525v1.0169c-1.1186 0.1695-2.1695 0.5423-3.1525 1.1186-0.9831 0.5423-1.9322 1.4067-2.8474 2.5932l-8.288 10.627z" opacity="1"/>
				<path d="m44.669 51.18c0.5763 0.8475 1.2034 1.5255 1.8813 2.0339 0.7119 0.4746 1.5763 0.8306 2.5932 1.0678v1.0169c-1.6271-0.1016-3.661-0.1525-6.1016-0.1525-1.8305 0-3.5762 0.0509-5.2372 0.1525v-1.0169c0.8135-0.0339 1.4067-0.1355 1.7796-0.305s0.5593-0.4238 0.5593-0.7627c0-0.339-0.1695-0.7458-0.5084-1.2203l-7.4236-11.186c-0.9831-1.4916-1.8136-2.4577-2.4915-2.8983-0.678-0.4746-1.6271-0.7458-2.8474-0.8136v12.813c0 1.2882 0.1016 2.2204 0.305 2.7966 0.2034 0.5763 0.5763 0.9661 1.1186 1.1695 0.5763 0.2034 1.4746 0.339 2.6949 0.4068v1.0169c-1.5593-0.1017-3.7118-0.1525-6.4576-0.1525-2.9152 0-5.0846 0.0508-6.5084 0.1525v-1.0169c1.2204-0.0678 2.1017-0.2034 2.644-0.4068 0.5763-0.2034 0.9661-0.5932 1.1695-1.1695 0.2034-0.5762 0.3051-1.5084 0.3051-2.7966v-25.22c0-1.2881-0.1017-2.2203-0.3051-2.7966-0.2034-0.5762-0.5932-0.9661-1.1695-1.1695-0.5423-0.2034-1.4237-0.339-2.644-0.4068v-1.0169c1.4238 0.1017 3.5932 0.1526 6.5084 0.1526 2.7119 0 4.8644-0.0509 6.4576-0.1526v1.0169c-1.2203 0.0678-2.1186 0.2034-2.6949 0.4068-0.5423 0.2034-0.9152 0.5932-1.1186 1.1695s-0.305 1.5085-0.305 2.7966v11.39c2.4745-0.1017 4.4067-1.0508 5.7965-2.8474l4.8813-6.2033c1.7288-2.1356 2.5932-3.7627 2.5932-4.8813 0-1.1864-1.0509-1.7965-3.1525-1.8305v-1.0169c1.9322 0.1017 3.8813 0.1526 5.8474 0.1526 1.8644 0 3.305-0.0509 4.322-0.1526v1.0169c-1.1186 0.1695-2.1695 0.5424-3.1525 1.1186-0.9831 0.5424-1.9322 1.4068-2.8474 2.5932l-8.288 10.627z" opacity="1"/>
				<path d="m44.669 50.759c0.5763 0.8475 1.2034 1.5255 1.8813 2.0339 0.7119 0.4746 1.5763 0.8305 2.5932 1.0678v1.0169c-1.6271-0.1017-3.661-0.1525-6.1016-0.1525-1.8305 0-3.5762 0.0508-5.2372 0.1525v-1.0169c0.8135-0.0339 1.4067-0.1356 1.7796-0.3051 0.3729-0.1694 0.5593-0.4237 0.5593-0.7627 0-0.3389-0.1695-0.7457-0.5084-1.2203l-7.4236-11.186c-0.9831-1.4915-1.8136-2.4576-2.4915-2.8983-0.678-0.4745-1.6271-0.7457-2.8474-0.8135v12.813c0 1.2881 0.1016 2.2203 0.305 2.7966s0.5763 0.9661 1.1186 1.1695c0.5763 0.2034 1.4746 0.339 2.6949 0.4068v1.0169c-1.5593-0.1017-3.7118-0.1526-6.4576-0.1526-2.9152 0-5.0846 0.0509-6.5084 0.1526v-1.0169c1.2204-0.0678 2.1017-0.2034 2.644-0.4068 0.5763-0.2034 0.9661-0.5932 1.1695-1.1695s0.3051-1.5085 0.3051-2.7966v-25.22c0-1.2881-0.1017-2.2203-0.3051-2.7966s-0.5932-0.9661-1.1695-1.1695c-0.5423-0.2034-1.4237-0.339-2.644-0.4068v-1.0169c1.4238 0.1017 3.5932 0.1525 6.5084 0.1525 2.7119 0 4.8644-0.0508 6.4576-0.1525v1.0169c-1.2203 0.0678-2.1186 0.2034-2.6949 0.4068-0.5423 0.2034-0.9152 0.5932-1.1186 1.1695s-0.305 1.5085-0.305 2.7966v11.39c2.4745-0.1017 4.4067-1.0508 5.7965-2.8474l4.8813-6.2033c1.7288-2.1356 2.5932-3.7627 2.5932-4.8813 0-1.1864-1.0509-1.7966-3.1525-1.8305v-1.0169c1.9322 0.1017 3.8813 0.1525 5.8474 0.1525 1.8644 0 3.305-0.0508 4.322-0.1525v1.0169c-1.1186 0.1695-2.1695 0.5423-3.1525 1.1186-0.9831 0.5424-1.9322 1.4068-2.8474 2.5932l-8.288 10.627z" opacity="1"/>
				<path d="m44.669 50.378c0.5763 0.8475 1.2034 1.5254 1.8813 2.0339 0.7119 0.4746 1.5763 0.8305 2.5932 1.0678v1.0169c-1.6271-0.1017-3.661-0.1525-6.1016-0.1525-1.8305 0-3.5762 0.0508-5.2372 0.1525v-1.0169c0.8135-0.0339 1.4067-0.1356 1.7796-0.3051s0.5593-0.4237 0.5593-0.7627c0-0.3389-0.1695-0.7457-0.5084-1.2203l-7.4236-11.186c-0.9831-1.4915-1.8136-2.4576-2.4915-2.8983-0.678-0.4745-1.6271-0.7457-2.8474-0.8135v12.813c0 1.2881 0.1016 2.2203 0.305 2.7966s0.5763 0.9661 1.1186 1.1695c0.5763 0.2034 1.4746 0.339 2.6949 0.4068v1.0169c-1.5593-0.1017-3.7118-0.1526-6.4576-0.1526-2.9152 0-5.0846 0.0509-6.5084 0.1526v-1.0169c1.2204-0.0678 2.1017-0.2034 2.644-0.4068 0.5763-0.2034 0.9661-0.5932 1.1695-1.1695s0.3051-1.5085 0.3051-2.7966v-25.22c0-1.2881-0.1017-2.2203-0.3051-2.7966s-0.5932-0.9661-1.1695-1.1695c-0.5423-0.2034-1.4237-0.339-2.644-0.4068v-1.0169c1.4238 0.1017 3.5932 0.1525 6.5084 0.1525 2.7119 0 4.8644-0.0508 6.4576-0.1525v1.0169c-1.2203 0.0678-2.1186 0.2034-2.6949 0.4068-0.5423 0.2034-0.9152 0.5932-1.1186 1.1695s-0.305 1.5085-0.305 2.7966v11.39c2.4745-0.1017 4.4067-1.0508 5.7965-2.8474l4.8813-6.2033c1.7288-2.1356 2.5932-3.7627 2.5932-4.8813 0-1.1864-1.0509-1.7966-3.1525-1.8305v-1.0169c1.9322 0.1017 3.8813 0.1525 5.8474 0.1525 1.8644 0 3.305-0.0508 4.322-0.1525v1.0169c-1.1186 0.1695-2.1695 0.5423-3.1525 1.1186-0.9831 0.5424-1.9322 1.4068-2.8474 2.5932l-8.288 10.627z" opacity="1"/>
				<path d="m44.669 50.028c0.5763 0.8475 1.2034 1.5255 1.8813 2.0339 0.7119 0.4746 1.5763 0.8306 2.5932 1.0678v1.0169c-1.6271-0.1016-3.661-0.1525-6.1016-0.1525-1.8305 0-3.5762 0.0509-5.2372 0.1525v-1.0169c0.8135-0.0339 1.4067-0.1355 1.7796-0.305s0.5593-0.4238 0.5593-0.7627c0-0.339-0.1695-0.7458-0.5084-1.2203l-7.4236-11.186c-0.9831-1.4916-1.8136-2.4577-2.4915-2.8983-0.678-0.4746-1.6271-0.7458-2.8474-0.8136v12.813c0 1.2881 0.1016 2.2203 0.305 2.7966s0.5763 0.9661 1.1186 1.1695c0.5763 0.2034 1.4746 0.339 2.6949 0.4068v1.0169c-1.5593-0.1017-3.7118-0.1525-6.4576-0.1525-2.9152 0-5.0846 0.0508-6.5084 0.1525v-1.0169c1.2204-0.0678 2.1017-0.2034 2.644-0.4068 0.5763-0.2034 0.9661-0.5932 1.1695-1.1695s0.3051-1.5085 0.3051-2.7966v-25.22c0-1.2881-0.1017-2.2203-0.3051-2.7966s-0.5932-0.9661-1.1695-1.1695c-0.5423-0.2034-1.4237-0.339-2.644-0.4068v-1.0169c1.4238 0.1017 3.5932 0.1526 6.5084 0.1526 2.7119 0 4.8644-0.0509 6.4576-0.1526v1.0169c-1.2203 0.0678-2.1186 0.2034-2.6949 0.4068-0.5423 0.2034-0.9152 0.5932-1.1186 1.1695s-0.305 1.5085-0.305 2.7966v11.39c2.4745-0.1017 4.4067-1.0508 5.7965-2.8474l4.8813-6.2033c1.7288-2.1356 2.5932-3.7627 2.5932-4.8813 0-1.1864-1.0509-1.7966-3.1525-1.8305v-1.0169c1.9322 0.1017 3.8813 0.1526 5.8474 0.1526 1.8644 0 3.305-0.0509 4.322-0.1526v1.0169c-1.1186 0.1695-2.1695 0.5424-3.1525 1.1186-0.9831 0.5424-1.9322 1.4068-2.8474 2.5932l-8.288 10.627z" opacity="1"/>
				<path d="m44.669 49.704c0.5763 0.8475 1.2034 1.5254 1.8813 2.0339 0.7119 0.4746 1.5763 0.8305 2.5932 1.0678v1.0169c-1.6271-0.1017-3.661-0.1525-6.1016-0.1525-1.8305 0-3.5762 0.0508-5.2372 0.1525v-1.0169c0.8135-0.0339 1.4067-0.1356 1.7796-0.3051s0.5593-0.4237 0.5593-0.7627c0-0.3389-0.1695-0.7457-0.5084-1.2203l-7.4236-11.186c-0.9831-1.4915-1.8136-2.4576-2.4915-2.8983-0.678-0.4745-1.6271-0.7457-2.8474-0.8135v12.813c0 1.2881 0.1016 2.2203 0.305 2.7966s0.5763 0.9661 1.1186 1.1695c0.5763 0.2034 1.4746 0.339 2.6949 0.4068v1.0169c-1.5593-0.1017-3.7118-0.1526-6.4576-0.1526-2.9152 0-5.0846 0.0509-6.5084 0.1526v-1.0169c1.2204-0.0678 2.1017-0.2034 2.644-0.4068 0.5763-0.2034 0.9661-0.5932 1.1695-1.1695s0.3051-1.5085 0.3051-2.7966v-25.22c0-1.2881-0.1017-2.2203-0.3051-2.7966s-0.5932-0.9661-1.1695-1.1695c-0.5423-0.2034-1.4237-0.339-2.644-0.4068v-1.0169c1.4238 0.1017 3.5932 0.1525 6.5084 0.1525 2.7119 0 4.8644-0.0508 6.4576-0.1525v1.0169c-1.2203 0.0678-2.1186 0.2034-2.6949 0.4068-0.5423 0.2034-0.9152 0.5932-1.1186 1.1695s-0.305 1.5085-0.305 2.7966v11.39c2.4745-0.1017 4.4067-1.0508 5.7965-2.8474l4.8813-6.2033c1.7288-2.1356 2.5932-3.7627 2.5932-4.8813 0-1.1864-1.0509-1.7966-3.1525-1.8305v-1.0169c1.9322 0.1017 3.8813 0.1525 5.8474 0.1525 1.8644 0 3.305-0.0508 4.322-0.1525v1.0169c-1.1186 0.1695-2.1695 0.5423-3.1525 1.1186-0.9831 0.5424-1.9322 1.4068-2.8474 2.5932l-8.288 10.627z" opacity="1"/>
				<path d="m44.669 49.401c0.5763 0.8475 1.2034 1.5255 1.8813 2.0339 0.7119 0.4746 1.5763 0.8306 2.5932 1.0678v1.0169c-1.6271-0.1016-3.661-0.1525-6.1016-0.1525-1.8305 0-3.5762 0.0509-5.2372 0.1525v-1.0169c0.8135-0.0339 1.4067-0.1355 1.7796-0.305s0.5593-0.4238 0.5593-0.7627c0-0.339-0.1695-0.7458-0.5084-1.2203l-7.4236-11.186c-0.9831-1.4916-1.8136-2.4577-2.4915-2.8983-0.678-0.4746-1.6271-0.7458-2.8474-0.8136v12.813c0 1.2882 0.1016 2.2204 0.305 2.7966 0.2034 0.5763 0.5763 0.9661 1.1186 1.1695 0.5763 0.2034 1.4746 0.339 2.6949 0.4068v1.0169c-1.5593-0.1017-3.7118-0.1525-6.4576-0.1525-2.9152 0-5.0846 0.0508-6.5084 0.1525v-1.0169c1.2204-0.0678 2.1017-0.2034 2.644-0.4068 0.5763-0.2034 0.9661-0.5932 1.1695-1.1695 0.2034-0.5762 0.3051-1.5084 0.3051-2.7966v-25.22c0-1.2881-0.1017-2.2203-0.3051-2.7966-0.2034-0.5762-0.5932-0.9661-1.1695-1.1695-0.5423-0.2034-1.4237-0.339-2.644-0.4068v-1.0169c1.4238 0.1017 3.5932 0.1526 6.5084 0.1526 2.7119 0 4.8644-0.0509 6.4576-0.1526v1.0169c-1.2203 0.0678-2.1186 0.2034-2.6949 0.4068-0.5423 0.2034-0.9152 0.5932-1.1186 1.1695s-0.305 1.5085-0.305 2.7966v11.39c2.4745-0.1017 4.4067-1.0508 5.7965-2.8474l4.8813-6.2033c1.7288-2.1356 2.5932-3.7627 2.5932-4.8813 0-1.1864-1.0509-1.7965-3.1525-1.8305v-1.0169c1.9322 0.1017 3.8813 0.1526 5.8474 0.1526 1.8644 0 3.305-0.0509 4.322-0.1526v1.0169c-1.1186 0.1695-2.1695 0.5424-3.1525 1.1186-0.9831 0.5424-1.9322 1.4068-2.8474 2.5932l-8.288 10.627z" opacity="1"/>
				<path d="m44.669 49.115c0.5763 0.8474 1.2034 1.5254 1.8813 2.0339 0.7119 0.4746 1.5763 0.8305 2.5932 1.0678v1.0169c-1.6271-0.1017-3.661-0.1526-6.1016-0.1526-1.8305 0-3.5762 0.0509-5.2372 0.1526v-1.0169c0.8135-0.0339 1.4067-0.1356 1.7796-0.3051s0.5593-0.4237 0.5593-0.7627-0.1695-0.7457-0.5084-1.2203l-7.4236-11.186c-0.9831-1.4915-1.8136-2.4576-2.4915-2.8983-0.678-0.4746-1.6271-0.7458-2.8474-0.8135v12.813c0 1.2881 0.1016 2.2203 0.305 2.7966 0.2034 0.5762 0.5763 0.9661 1.1186 1.1695 0.5763 0.2033 1.4746 0.3389 2.6949 0.4067v1.0169c-1.5593-0.1017-3.7118-0.1525-6.4576-0.1525-2.9152 0-5.0846 0.0508-6.5084 0.1525v-1.0169c1.2204-0.0678 2.1017-0.2034 2.644-0.4067 0.5763-0.2034 0.9661-0.5933 1.1695-1.1695 0.2034-0.5763 0.3051-1.5085 0.3051-2.7966v-25.22c0-1.2882-0.1017-2.2204-0.3051-2.7966-0.2034-0.5763-0.5932-0.9661-1.1695-1.1695-0.5423-0.2034-1.4237-0.339-2.644-0.4068v-1.0169c1.4238 0.1017 3.5932 0.1525 6.5084 0.1525 2.7119 0 4.8644-0.0508 6.4576-0.1525v1.0169c-1.2203 0.0678-2.1186 0.2034-2.6949 0.4068-0.5423 0.2033-0.9152 0.5932-1.1186 1.1695-0.2034 0.5762-0.305 1.5084-0.305 2.7966v11.39c2.4745-0.1017 4.4067-1.0509 5.7965-2.8474l4.8813-6.2033c1.7288-2.1356 2.5932-3.7627 2.5932-4.8813 0-1.1864-1.0509-1.7966-3.1525-1.8305v-1.0169c1.9322 0.1016 3.8813 0.1525 5.8474 0.1525 1.8644 0 3.305-0.0509 4.322-0.1525v1.0169c-1.1186 0.1694-2.1695 0.5423-3.1525 1.1186-0.9831 0.5423-1.9322 1.4067-2.8474 2.5932l-8.288 10.627z" opacity="1"/>
				<path d="m44.669 48.845c0.5763 0.8475 1.2034 1.5254 1.8813 2.0339 0.7119 0.4746 1.5763 0.8305 2.5932 1.0678v1.0169c-1.6271-0.1017-3.661-0.1525-6.1016-0.1525-1.8305 0-3.5762 0.0508-5.2372 0.1525v-1.0169c0.8135-0.0339 1.4067-0.1356 1.7796-0.3051s0.5593-0.4237 0.5593-0.7627-0.1695-0.7457-0.5084-1.2203l-7.4236-11.186c-0.9831-1.4915-1.8136-2.4576-2.4915-2.8983-0.678-0.4746-1.6271-0.7457-2.8474-0.8135v12.813c0 1.2881 0.1016 2.2203 0.305 2.7966 0.2034 0.5762 0.5763 0.9661 1.1186 1.1695 0.5763 0.2034 1.4746 0.3389 2.6949 0.4067v1.0169c-1.5593-0.1016-3.7118-0.1525-6.4576-0.1525-2.9152 0-5.0846 0.0509-6.5084 0.1525v-1.0169c1.2204-0.0677 2.1017-0.2033 2.644-0.4067 0.5763-0.2034 0.9661-0.5933 1.1695-1.1695 0.2034-0.5763 0.3051-1.5085 0.3051-2.7966v-25.22c0-1.2882-0.1017-2.2204-0.3051-2.7966-0.2034-0.5763-0.5932-0.9661-1.1695-1.1695-0.5423-0.2034-1.4237-0.339-2.644-0.4068v-1.0169c1.4238 0.1017 3.5932 0.1525 6.5084 0.1525 2.7119 0 4.8644-0.0508 6.4576-0.1525v1.0169c-1.2203 0.0678-2.1186 0.2034-2.6949 0.4068-0.5423 0.2034-0.9152 0.5932-1.1186 1.1695-0.2034 0.5762-0.305 1.5084-0.305 2.7966v11.39c2.4745-0.1017 4.4067-1.0509 5.7965-2.8474l4.8813-6.2033c1.7288-2.1356 2.5932-3.7627 2.5932-4.8813 0-1.1864-1.0509-1.7966-3.1525-1.8305v-1.0169c1.9322 0.1017 3.8813 0.1525 5.8474 0.1525 1.8644 0 3.305-0.0508 4.322-0.1525v1.0169c-1.1186 0.1695-2.1695 0.5423-3.1525 1.1186-0.9831 0.5423-1.9322 1.4067-2.8474 2.5932l-8.288 10.627z" opacity="1"/>
				<path d="m44.669 48.588c0.5763 0.8475 1.2034 1.5255 1.8813 2.0339 0.7119 0.4746 1.5763 0.8305 2.5932 1.0678v1.0169c-1.6271-0.1017-3.661-0.1525-6.1016-0.1525-1.8305 0-3.5762 0.0508-5.2372 0.1525v-1.0169c0.8135-0.0339 1.4067-0.1356 1.7796-0.3051 0.3729-0.1694 0.5593-0.4237 0.5593-0.7627 0-0.3389-0.1695-0.7457-0.5084-1.2203l-7.4236-11.186c-0.9831-1.4915-1.8136-2.4576-2.4915-2.8983-0.678-0.4745-1.6271-0.7457-2.8474-0.8135v12.813c0 1.2881 0.1016 2.2203 0.305 2.7966s0.5763 0.9661 1.1186 1.1695c0.5763 0.2034 1.4746 0.339 2.6949 0.4068v1.0169c-1.5593-0.1017-3.7118-0.1526-6.4576-0.1526-2.9152 0-5.0846 0.0509-6.5084 0.1526v-1.0169c1.2204-0.0678 2.1017-0.2034 2.644-0.4068 0.5763-0.2034 0.9661-0.5932 1.1695-1.1695s0.3051-1.5085 0.3051-2.7966v-25.22c0-1.2881-0.1017-2.2203-0.3051-2.7966s-0.5932-0.9661-1.1695-1.1695c-0.5423-0.2034-1.4237-0.339-2.644-0.4068v-1.0169c1.4238 0.1017 3.5932 0.1526 6.5084 0.1526 2.7119 0 4.8644-0.0509 6.4576-0.1526v1.0169c-1.2203 0.0678-2.1186 0.2034-2.6949 0.4068-0.5423 0.2034-0.9152 0.5932-1.1186 1.1695s-0.305 1.5085-0.305 2.7966v11.39c2.4745-0.1017 4.4067-1.0508 5.7965-2.8474l4.8813-6.2033c1.7288-2.1356 2.5932-3.7627 2.5932-4.8813 0-1.1864-1.0509-1.7966-3.1525-1.8305v-1.0169c1.9322 0.1017 3.8813 0.1525 5.8474 0.1525 1.8644 0 3.305-0.0508 4.322-0.1525v1.0169c-1.1186 0.1695-2.1695 0.5423-3.1525 1.1186-0.9831 0.5424-1.9322 1.4068-2.8474 2.5932l-8.288 10.627z" opacity="1"/>
				<path d="m44.669 48.342c0.5763 0.8474 1.2034 1.5254 1.8813 2.0339 0.7119 0.4745 1.5763 0.8305 2.5932 1.0678v1.0169c-1.6271-0.1017-3.661-0.1526-6.1016-0.1526-1.8305 0-3.5762 0.0509-5.2372 0.1526v-1.0169c0.8135-0.0339 1.4067-0.1356 1.7796-0.3051s0.5593-0.4237 0.5593-0.7627-0.1695-0.7458-0.5084-1.2203l-7.4236-11.186c-0.9831-1.4916-1.8136-2.4577-2.4915-2.8983-0.678-0.4746-1.6271-0.7458-2.8474-0.8136v12.813c0 1.2882 0.1016 2.2204 0.305 2.7966 0.2034 0.5763 0.5763 0.9661 1.1186 1.1695 0.5763 0.2034 1.4746 0.339 2.6949 0.4068v1.0169c-1.5593-0.1017-3.7118-0.1525-6.4576-0.1525-2.9152 0-5.0846 0.0508-6.5084 0.1525v-1.0169c1.2204-0.0678 2.1017-0.2034 2.644-0.4068 0.5763-0.2034 0.9661-0.5932 1.1695-1.1695 0.2034-0.5762 0.3051-1.5084 0.3051-2.7966v-25.22c0-1.2881-0.1017-2.2203-0.3051-2.7966-0.2034-0.5762-0.5932-0.9661-1.1695-1.1695-0.5423-0.2034-1.4237-0.3389-2.644-0.4067v-1.0169c1.4238 0.1016 3.5932 0.1525 6.5084 0.1525 2.7119 0 4.8644-0.0509 6.4576-0.1525v1.0169c-1.2203 0.0677-2.1186 0.2033-2.6949 0.4067-0.5423 0.2034-0.9152 0.5933-1.1186 1.1695-0.2034 0.5763-0.305 1.5085-0.305 2.7966v11.39c2.4745-0.1017 4.4067-1.0508 5.7965-2.8474l4.8813-6.2033c1.7288-2.1356 2.5932-3.7627 2.5932-4.8813 0-1.1864-1.0509-1.7965-3.1525-1.8305v-1.0169c1.9322 0.1017 3.8813 0.1526 5.8474 0.1526 1.8644 0 3.305-0.0509 4.322-0.1526v1.0169c-1.1186 0.1695-2.1695 0.5424-3.1525 1.1186-0.9831 0.5424-1.9322 1.4068-2.8474 2.5932l-8.288 10.627z" opacity="1"/>
				<path d="m44.669 48.107c0.5763 0.8475 1.2034 1.5254 1.8813 2.0339 0.7119 0.4746 1.5763 0.8305 2.5932 1.0678v1.0169c-1.6271-0.1017-3.661-0.1525-6.1016-0.1525-1.8305 0-3.5762 0.0508-5.2372 0.1525v-1.0169c0.8135-0.0339 1.4067-0.1356 1.7796-0.3051s0.5593-0.4237 0.5593-0.7627c0-0.3389-0.1695-0.7457-0.5084-1.2203l-7.4236-11.186c-0.9831-1.4915-1.8136-2.4576-2.4915-2.8983-0.678-0.4745-1.6271-0.7457-2.8474-0.8135v12.813c0 1.2881 0.1016 2.2203 0.305 2.7966s0.5763 0.9661 1.1186 1.1695c0.5763 0.2034 1.4746 0.339 2.6949 0.4068v1.0169c-1.5593-0.1017-3.7118-0.1526-6.4576-0.1526-2.9152 0-5.0846 0.0509-6.5084 0.1526v-1.0169c1.2204-0.0678 2.1017-0.2034 2.644-0.4068 0.5763-0.2034 0.9661-0.5932 1.1695-1.1695s0.3051-1.5085 0.3051-2.7966v-25.22c0-1.2881-0.1017-2.2203-0.3051-2.7966s-0.5932-0.9661-1.1695-1.1695c-0.5423-0.2034-1.4237-0.339-2.644-0.4068v-1.0169c1.4238 0.1017 3.5932 0.1525 6.5084 0.1525 2.7119 0 4.8644-0.0508 6.4576-0.1525v1.0169c-1.2203 0.0678-2.1186 0.2034-2.6949 0.4068-0.5423 0.2034-0.9152 0.5932-1.1186 1.1695s-0.305 1.5085-0.305 2.7966v11.39c2.4745-0.1017 4.4067-1.0508 5.7965-2.8474l4.8813-6.2033c1.7288-2.1356 2.5932-3.7627 2.5932-4.8813 0-1.1864-1.0509-1.7966-3.1525-1.8305v-1.0169c1.9322 0.1017 3.8813 0.1525 5.8474 0.1525 1.8644 0 3.305-0.0508 4.322-0.1525v1.0169c-1.1186 0.1695-2.1695 0.5423-3.1525 1.1186-0.9831 0.5424-1.9322 1.4068-2.8474 2.5932l-8.288 10.627z" opacity="1"/>
				<path d="m44.669 47.881c0.5763 0.8475 1.2034 1.5254 1.8813 2.0339 0.7119 0.4746 1.5763 0.8305 2.5932 1.0678v1.0169c-1.6271-0.1017-3.661-0.1525-6.1016-0.1525-1.8305 0-3.5762 0.0508-5.2372 0.1525v-1.0169c0.8135-0.0339 1.4067-0.1356 1.7796-0.3051s0.5593-0.4237 0.5593-0.7627-0.1695-0.7457-0.5084-1.2203l-7.4236-11.186c-0.9831-1.4915-1.8136-2.4576-2.4915-2.8983-0.678-0.4746-1.6271-0.7457-2.8474-0.8135v12.813c0 1.2881 0.1016 2.2203 0.305 2.7966 0.2034 0.5762 0.5763 0.9661 1.1186 1.1695 0.5763 0.2034 1.4746 0.3389 2.6949 0.4067v1.0169c-1.5593-0.1016-3.7118-0.1525-6.4576-0.1525-2.9152 0-5.0846 0.0509-6.5084 0.1525v-1.0169c1.2204-0.0677 2.1017-0.2033 2.644-0.4067 0.5763-0.2034 0.9661-0.5933 1.1695-1.1695 0.2034-0.5763 0.3051-1.5085 0.3051-2.7966v-25.22c0-1.2882-0.1017-2.2204-0.3051-2.7966-0.2034-0.5763-0.5932-0.9661-1.1695-1.1695-0.5423-0.2034-1.4237-0.339-2.644-0.4068v-1.0169c1.4238 0.1017 3.5932 0.1525 6.5084 0.1525 2.7119 0 4.8644-0.0508 6.4576-0.1525v1.0169c-1.2203 0.0678-2.1186 0.2034-2.6949 0.4068-0.5423 0.2034-0.9152 0.5932-1.1186 1.1695-0.2034 0.5762-0.305 1.5084-0.305 2.7966v11.39c2.4745-0.1017 4.4067-1.0509 5.7965-2.8474l4.8813-6.2033c1.7288-2.1356 2.5932-3.7627 2.5932-4.8813 0-1.1864-1.0509-1.7966-3.1525-1.8305v-1.0169c1.9322 0.1017 3.8813 0.1525 5.8474 0.1525 1.8644 0 3.305-0.0508 4.322-0.1525v1.0169c-1.1186 0.1695-2.1695 0.5423-3.1525 1.1186-0.9831 0.5423-1.9322 1.4067-2.8474 2.5932l-8.288 10.627z" opacity="1"/>
			</g>
		</g>
	</g>
</svg>
