<?xml version="1.0" encoding="UTF-8"?>
<!-- Created with Inkscape (http://www.inkscape.org/) -->
<svg width="64" height="64" version="1.1" xmlns="http://www.w3.org/2000/svg" xmlns:cc="http://creativecommons.org/ns#" xmlns:dc="http://purl.org/dc/elements/1.1/" xmlns:rdf="http://www.w3.org/1999/02/22-rdf-syntax-ns#">
	<metadata>
		<rdf:RDF>
			<cc:Work rdf:about="">
				<dc:format>image/svg+xml</dc:format>
				<dc:type rdf:resource="http://purl.org/dc/dcmitype/StillImage"/>
			</cc:Work>
		</rdf:RDF>
	</metadata>
	<defs>
		<style id="current-color-scheme" type="text/css">.ColorScheme-Text {
			color:#090d11;
			}</style>
		<style type="text/css">.ColorScheme-Text {color:#090d11;}.ColorScheme-Background{color:#ffffff;}</style>
	</defs>
	<path class="ColorScheme-Text" d="m44.5 7c-0.82235 0-1.5 0.67765-1.5 1.5v11c0 0.82235 0.67765 1.5 1.5 1.5h11c0.82235 0 1.5-0.67765 1.5-1.5v-11c0-0.82235-0.67765-1.5-1.5-1.5zm1.5 3h8v8h-8zm-32.5 2c-0.82235 0-1.5 0.67765-1.5 1.5v4c0 0.82235 0.67765 1.5 1.5 1.5h4c0.82235 0 1.5-0.67765 1.5-1.5v-4c0-0.82235-0.67765-1.5-1.5-1.5zm14 0c-0.82235 0-1.5 0.67765-1.5 1.5v6c0 0.82235 0.67765 1.5 1.5 1.5h9c0.82235 0 1.5-0.67765 1.5-1.5v-6c0-0.82235-0.67765-1.5-1.5-1.5zm-13 2h2c0.28565 0 0.5 0.5 0.5 0.5v2s-0.21435 0.5-0.5 0.5h-2c-0.28565 0-0.5-0.5-0.5-0.5v-2s0.21435-0.5 0.5-0.5zm14 0h7c0.28565 0 0.5 0.21435 0.5 0.5v4c0 0.28565-0.21435 0.5-0.5 0.5h-7c-0.28565 0-0.5-0.21435-0.5-0.5v-4c0-0.28565 0.21435-0.5 0.5-0.5zm-2 11c-0.82235 0-1.5 0.67765-1.5 1.5v11c0 0.82235 0.67765 1.5 1.5 1.5h11c0.82235 0 1.5-0.67765 1.5-1.5v-11c0-0.82235-0.67765-1.5-1.5-1.5zm-13 1c-0.82235 0-1.5 0.67765-1.5 1.5v9c0 0.82235 0.67765 1.5 1.5 1.5h6c0.82235 0 1.5-0.67765 1.5-1.5v-9c0-0.82235-0.67765-1.5-1.5-1.5zm31 0c-0.82235 0-1.5 0.67765-1.5 1.5v9c0 0.82235 0.67765 1.5 1.5 1.5h6c0.82235 0 1.5-0.67765 1.5-1.5v-9c0-0.82235-0.67765-1.5-1.5-1.5zm-30 2h4c0.28565 0 0.5 0.21435 0.5 0.5v7c0 0.28565-0.21435 0.5-0.5 0.5h-4c-0.28565 0-0.5-0.21435-0.5-0.5v-7c0-0.28565 0.21435-0.5 0.5-0.5zm31 0h4c0.28565 0 0.5 0.21435 0.5 0.5v7c0 0.28565-0.21435 0.5-0.5 0.5h-4c-0.28565 0-0.5-0.21435-0.5-0.5v-7c0-0.28565 0.21435-0.5 0.5-0.5zm-37 15c-0.82235 0-1.5 0.67765-1.5 1.5v11c0 0.82235 0.67765 1.5 1.5 1.5h11c0.82235 0 1.5-0.67765 1.5-1.5v-11c0-0.82235-0.67765-1.5-1.5-1.5zm19 0c-0.82235 0-1.5 0.67765-1.5 1.5v6c0 0.82235 0.67765 1.5 1.5 1.5h9c0.82235 0 1.5-0.67765 1.5-1.5v-6c0-0.82235-0.67765-1.5-1.5-1.5zm1 2h7c0.28565 0 0.5 0.21435 0.5 0.5v4c0 0.28565-0.21435 0.5-0.5 0.5h-7c-0.28565 0-0.5-0.21435-0.5-0.5v-4c0-0.28565 0.21435-0.5 0.5-0.5zm18 0c-0.82235 0-1.5 0.67765-1.5 1.5v4c0 0.82235 0.67765 1.5 1.5 1.5h4c0.82235 0 1.5-0.67765 1.5-1.5v-4c0-0.82235-0.67765-1.5-1.5-1.5zm-36.5 1h8v8h-8zm37.5 1h2c0.28565 0 0.5 0.5 0.5 0.5v2s-0.21435 0.5-0.5 0.5h-2c-0.28565 0-0.5-0.5-0.5-0.5v-2s0.21435-0.5 0.5-0.5z" style="fill-opacity:.75;fill:currentColor"/>
</svg>
