<svg width="64" height="64" xmlns="http://www.w3.org/2000/svg" xmlns:xlink="http://www.w3.org/1999/xlink"><defs><radialGradient id="b" cx="31.744" cy="30.855" r="32" gradientTransform="translate(277.45 965.74) scale(1.1553)" gradientUnits="userSpaceOnUse"><stop stop-color="#384971" offset="0"/><stop stop-color="#4f565e" offset="1"/></radialGradient><radialGradient id="c" cx="35.574" cy="1.019" r="32" gradientTransform="matrix(0 1.1252 -5.1753 0 37.271 -39.029)" gradientUnits="userSpaceOnUse" xlink:href="#a"/><radialGradient id="d" cx="35.574" cy="1.036" r="32" gradientTransform="matrix(0 1.1252 -5.1753 0 37.363 -39.029)" gradientUnits="userSpaceOnUse" xlink:href="#a"/><radialGradient id="e" cx="35.574" cy="1.055" r="32" gradientTransform="matrix(0 1.1252 -5.1753 0 37.458 -39.029)" gradientUnits="userSpaceOnUse" xlink:href="#a"/><radialGradient id="f" cx="35.574" cy="1.071" r="32" gradientTransform="matrix(0 1.1252 -5.1753 0 37.544 -39.029)" gradientUnits="userSpaceOnUse" xlink:href="#a"/><radialGradient id="g" cx="35.574" cy="1.091" r="32" gradientTransform="matrix(0 1.1252 -5.1753 0 37.648 -39.029)" gradientUnits="userSpaceOnUse" xlink:href="#a"/><radialGradient id="h" cx="35.574" cy="1.113" r="32" gradientTransform="matrix(0 1.1252 -5.1753 0 37.758 -39.029)" gradientUnits="userSpaceOnUse" xlink:href="#a"/><radialGradient id="i" cx="35.574" cy="1.135" r="32" gradientTransform="matrix(0 1.1252 -5.1753 0 37.875 -39.029)" gradientUnits="userSpaceOnUse" xlink:href="#a"/><radialGradient id="j" cx="35.574" cy="1.159" r="32" gradientTransform="matrix(0 1.1252 -5.1753 0 38 -39.029)" gradientUnits="userSpaceOnUse" xlink:href="#a"/><radialGradient id="k" cx="35.574" cy="1.18" r="32" gradientTransform="matrix(0 1.1252 -5.1753 0 38.107 -39.029)" gradientUnits="userSpaceOnUse" xlink:href="#a"/><radialGradient id="l" cx="35.574" cy="1.208" r="32" gradientTransform="matrix(0 1.1252 -5.1753 0 38.252 -39.029)" gradientUnits="userSpaceOnUse" xlink:href="#a"/><radialGradient id="m" cx="35.574" cy="1.239" r="32" gradientTransform="matrix(0 1.1252 -5.1753 0 38.411 -39.029)" gradientUnits="userSpaceOnUse" xlink:href="#a"/><radialGradient id="n" cx="35.574" cy="1.273" r="32" gradientTransform="matrix(0 1.1252 -5.1753 0 38.587 -39.029)" gradientUnits="userSpaceOnUse" xlink:href="#a"/><radialGradient id="o" cx="35.574" cy="1.304" r="32" gradientTransform="matrix(0 1.1252 -5.1753 0 38.75 -39.029)" gradientUnits="userSpaceOnUse" xlink:href="#a"/><radialGradient id="p" cx="35.574" cy="1.346" r="32" gradientTransform="matrix(0 1.1252 -5.1753 0 38.966 -39.029)" gradientUnits="userSpaceOnUse" xlink:href="#a"/><radialGradient id="q" cx="35.574" cy="1.393" r="32" gradientTransform="matrix(0 1.1252 -5.1753 0 39.208 -39.029)" gradientUnits="userSpaceOnUse" xlink:href="#a"/><radialGradient id="r" cx="35.574" cy="1.439" r="32" gradientTransform="matrix(0 1.1252 -5.1753 0 39.446 -39.027)" gradientUnits="userSpaceOnUse" xlink:href="#a"/><radialGradient id="s" cx="32" cy="15.077" r="32" gradientTransform="matrix(2.0435 0 0 .0149 -33.393 1.217)" gradientUnits="userSpaceOnUse"><stop stop-color="#fff" stop-opacity=".126" offset="0"/><stop stop-color="#fff" stop-opacity=".001" offset="1"/></radialGradient><linearGradient id="a"><stop stop-color="#a6c7ce" stop-opacity=".13" offset="0"/><stop stop-color="#8eb8c1" stop-opacity=".03" offset="1"/></linearGradient><linearGradient id="t" x1="13.174" x2="44.787" y1="42.722" y2="16.92" gradientUnits="userSpaceOnUse"><stop stop-color="#1d86e7" offset="0"/><stop stop-color="#21608c" offset=".215"/><stop stop-color="#1981e1" offset=".326"/><stop stop-color="#009be8" offset=".545"/><stop stop-color="#1e84e1" stop-opacity=".646" offset="1"/></linearGradient><linearGradient id="u" x1="46.184" x2="29.573" y1="51.248" y2="36.338" gradientUnits="userSpaceOnUse"><stop stop-color="#1c85e6" stop-opacity=".77" offset="0"/><stop stop-color="#009be8" offset="1"/></linearGradient><linearGradient id="v" x1="42.25" x2="48.036" y1="53.899" y2="13.76" gradientUnits="userSpaceOnUse"><stop stop-color="#0f94e8" offset="0"/><stop stop-color="#22a1f1" offset=".167"/><stop stop-color="#22a1f1" offset=".837"/><stop stop-color="#32b3f0" offset="1"/></linearGradient></defs><g transform="translate(346.38 -971.27)"><rect transform="scale(-1 1)" x="282.38" y="971.27" width="64" height="64" rx="1" ry="1" fill="url(#b)" paint-order="fill markers stroke"/><path transform="translate(-346.38 971.329)" d="M1 0C.446 0 0 .446 0 1v62-.224V63 1h1.752c19.15.002 39.445 0 60.213 0H64v62-.334V63 1a.998.998 0 0 0-1-1z" fill="url(#c)"/><path transform="translate(-346.38 971.329)" d="M1 0a.998.998 0 0 0-1 1.006v61.98-.197c0-.277.004-.184.01.246.012.016.03-.297.052-.897v-61c.072-.009.133-.013.185-.013.29-.016.357-.032.774-.044.246-.011.496-.019.747-.019 19.183.002 39.392 0 60.2 0 .346 0 .689.012 1.023.03.268.01.389.02.52.033.106 0 .22.01.427.028v60.744c.027.754.05 1.148.059 1.123l.003-.334v.286V1.21c0-.143 0-.22-.002-.224A.996.996 0 0 0 62.986 0H1" fill="url(#d)"/><path transform="translate(-346.38 971.329)" d="M1 0a.998.998 0 0 0-1 1.006v61.966-.169c0-.245.008-.145.021.266.022.034.06-.247.104-.807V1.274a.744.744 0 0 1 .173-.025c.27-.031.341-.064.743-.088.242-.022.492-.037.742-.037 19.217.002 39.34 0 60.187 0 .347 0 .69.024 1.013.06.256.02.372.042.494.065.1 0 .206.02.398.057v60.731c.055.703.102 1.052.119 1.003.004-.154.006-.265.006-.333v.237V1.196c0-.139 0-.215-.003-.224A.994.994 0 0 0 63.19.02a1.025 1.025 0 0 0-.217-.02H1" fill="url(#e)"/><path transform="translate(-346.38 971.329)" d="M1 0a.998.998 0 0 0-1 1.005v61.953-.14c0-.213.012-.107.031.287.034.05.091-.198.156-.718V1.413a.45.45 0 0 1 .16-.037c.252-.048.327-.097.715-.132.238-.034.487-.056.737-.056 19.25.002 39.286 0 60.173 0 .348 0 .688.036 1.001.09.244.029.356.062.47.098.091 0 .19.03.37.085v60.718c.082.653.151.957.176.884.007-.152.01-.262.01-.333v.188V1.184c0-.135 0-.21-.004-.224a.992.992 0 0 0-.819-.94 1.041 1.041 0 0 0-.217-.018H.999" fill="url(#f)"/><path transform="translate(-346.38 971.329)" d="M1 0a.998.998 0 0 0-1 1.005v61.939-.113c0-.18.015-.068.042.308.045.067.121-.149.208-.629V1.55a.312.312 0 0 1 .148-.05c.232-.063.311-.128.684-.176.234-.044.483-.074.732-.074 19.284.002 39.234 0 60.16 0 .35 0 .689.048.991.12.232.039.34.083.444.13.085 0 .176.04.341.114v60.704c.11.603.203.862.236.764.008-.11.013-.222.014-.333v.14V1.168c0-.13-.002-.206-.006-.224a.991.991 0 0 0-.83-.927 1.066 1.066 0 0 0-.22-.017H1" fill="url(#g)"/><path transform="translate(-346.38 971.329)" d="M1 0a.998.998 0 0 0-1 1.004V62.93v-.084c0-.148.02-.029.052.328.056.084.152-.099.26-.539V1.686c.053-.04.097-.061.136-.061.212-.08.297-.16.655-.22.23-.056.477-.093.727-.093 19.317.002 39.18 0 60.147 0 .35 0 .688.06.98.151.22.047.322.102.418.162.078 0 .162.049.313.142v60.69c.137.553.253.767.295.645A4.7 4.7 0 0 0 64 62.77v.09V1.155c0-.126-.002-.202-.007-.224a.99.99 0 0 0-.843-.914A1.099 1.099 0 0 0 62.932 0H1" fill="url(#h)"/><path transform="translate(-346.38 971.329)" d="M1 0a.998.998 0 0 0-1 1.004v61.912-.056c0-.117.023.01.063.349.067.1.182-.05.312-.45V1.824c.048-.049.088-.074.123-.074.193-.095.282-.192.626-.264.225-.067.472-.11.721-.11h60.133c.352 0 .688.071.97.18.144.033.279.1.393.194.07 0 .147.059.284.17V62.6c.164.502.304.671.354.524.014-.14.02-.25.02-.331v.042V1.14c0-.121-.002-.197-.009-.224a.99.99 0 0 0-.854-.902A1.142 1.142 0 0 0 62.918 0H1" fill="url(#i)"/><path transform="translate(-346.38 971.329)" d="M1 0a.998.998 0 0 0-1 1.004v61.898-.029c0-.084.027.049.073.37.079.117.212 0 .365-.36V1.96c.043-.057.079-.086.11-.086.174-.112.267-.225.596-.309a2.19 2.19 0 0 1 .717-.129c19.385.002 39.075 0 60.12 0 .353 0 .687.084.958.211a.81.81 0 0 1 .368.227c.063 0 .132.068.256.199v60.665c.192.452.354.576.413.404.014-.11.022-.22.024-.33V1.125c0-.117-.004-.193-.01-.224a.99.99 0 0 0-.868-.89A1.198 1.198 0 0 0 62.905 0H1" fill="url(#j)"/><path transform="translate(-346.38 971.329)" d="M1 0a.998.998 0 0 0-1 1.003v61.885c0-.052.03.087.084.39.09.135.242.05.416-.27V2.097C.538 2.034.57 2 .599 2c.154-.127.251-.257.566-.352.217-.089.463-.148.711-.148 19.418.002 39.022 0 60.107 0 .355 0 .687.096.947.242.138.05.257.14.343.258.056 0 .118.079.227.227v60.651c.22.402.406.482.473.285.018-.132.027-.243.027-.33V1.112c0-.113-.004-.188-.012-.224a.99.99 0 0 0-.879-.877A1.273 1.273 0 0 0 62.891 0H1.001" fill="url(#k)"/><path transform="translate(-346.38 971.329)" d="M1 0a.998.998 0 0 0-1 1.003v61.899c0-.02.035.126.094.41.101.152.273.1.468-.18V2.235c.034-.073.062-.11.087-.11.135-.143.236-.29.536-.397.213-.1.459-.166.707-.166 19.452.002 38.969 0 60.093 0 .356 0 .687.108.936.272.134.06.246.162.317.29.05 0 .103.089.2.256v60.64c.246.352.455.386.531.165.02-.128.03-.239.03-.33V1.1c0-.108-.004-.184-.013-.224a.99.99 0 0 0-.891-.864 1.376 1.376 0 0 0-.218-.01H1" fill="url(#l)"/><path transform="translate(-346.38 971.329)" d="M1 0a.998.998 0 0 0-1 1.002v61.913c0 .013.039.165.105.432.112.168.303.148.52-.092V2.373c.029-.081.053-.123.074-.123.116-.159.222-.321.507-.44a1.52 1.52 0 0 1 .701-.185c19.486.002 38.916 0 60.08 0 .357 0 .687.12.925.302a.66.66 0 0 1 .292.323c.043 0 .089.098.171.284V63.16c.275.302.507.29.591.046.022-.125.034-.236.034-.33V1.085c0-.104-.005-.18-.016-.224a.99.99 0 0 0-.903-.852 1.514 1.514 0 0 0-.218-.008H1" fill="url(#m)"/><path transform="translate(-346.38 971.329)" d="M1 0a.998.998 0 0 0-1 1.002V62.93c0 .045.042.203.115.453.123.184.333.197.572-.003V2.51c.024-.089.045-.135.062-.135.097-.174.207-.353.478-.484.204-.122.448-.203.696-.203 19.519.002 38.863 0 60.067 0a1.4 1.4 0 0 1 .914.332c.15.103.224.225.267.355.035 0 .073.108.142.313V63.3c.302.251.557.196.65-.074a1.7 1.7 0 0 0 .037-.33V1.071c0-.1-.006-.175-.017-.224a.99.99 0 0 0-.915-.84A1.712 1.712 0 0 0 62.85 0H1" fill="url(#n)"/><path transform="translate(-346.38 971.329)" d="M1 0a.998.998 0 0 0-1 1.002v61.942c0 .077.046.242.126.473.134.201.363.246.624.086V2.647C.77 2.55.785 2.5.8 2.5a.981.981 0 0 1 .447-.529c.2-.133.444-.221.691-.221 19.553.002 38.811 0 60.053 0 .36 0 .686.144.903.362a.688.688 0 0 1 .242.388c.028 0 .059.118.114.341v60.598c.33.2.608.1.709-.194.026-.117.04-.228.04-.329V1.056c0-.095-.006-.17-.018-.224a.991.991 0 0 0-.927-.827A2.015 2.015 0 0 0 62.836 0H1" fill="url(#o)"/><path transform="translate(-346.38 971.329)" d="M1 0a.998.998 0 0 0-1 1.001v61.956c0 .11.05.281.136.494.146.218.394.296.677.176V2.784c.014-.105.026-.16.036-.16a.967.967 0 0 1 .419-.572c.196-.144.439-.24.686-.24 19.586.002 38.758 0 60.04 0 .36 0 .685.156.892.392a.73.73 0 0 1 .216.42c.021 0 .044.128.086.37v60.585c.356.15.658.005.768-.314.029-.114.044-.224.044-.328V1.042c0-.09-.007-.166-.02-.224a.992.992 0 0 0-.94-.814 2.524 2.524 0 0 0-.217-.005H1" fill="url(#p)"/><path transform="translate(-346.38 971.329)" d="M1 0a.998.998 0 0 0-1 1v61.972c0 .142.054.32.147.515.156.241.453.35.728.265V2.922c.01-.114.018-.172.025-.172a.97.97 0 0 1 .389-.617c.192-.155.434-.258.68-.258 19.62.002 38.705 0 60.027 0 .362 0 .686.168.882.422.11.127.176.286.19.453.015 0 .03.137.057.398V63.72c.385.1.71-.09.828-.434.03-.11.047-.22.047-.328V1.028c0-.086-.007-.161-.021-.224a.994.994 0 0 0-.951-.802A3.563 3.563 0 0 0 62.809 0H1" fill="url(#q)"/><path d="M1 .002a.998.998 0 0 0-1 1v61.986c0 .174.058.358.157.535.17.259.473.397.78.355V3.062c.005-.122.01-.185.013-.185a.987.987 0 0 1 .36-.66c.187-.166.429-.277.675-.277 19.653.002 38.652 0 60.013 0 .363 0 .685.18.87.452.102.141.16.31.166.485.007 0 .015.147.028.427v60.558c.412.05.76-.186.887-.553a1.1 1.1 0 0 0 .05-.328V1.016a.996.996 0 0 0-.985-1.014 6.67 6.67 0 0 0-.22 0H1" fill="url(#r)" transform="translate(-346.38 971.327)"/><path d="M1 .002a.998.998 0 0 0-1 1v1h64v-.998a.998.998 0 0 0-1-1H1z" fill="url(#s)" transform="translate(-346.38 971.327)"/><path d="M-346.38 972.27v2.5l2-2zM-282.38 974.77l-2-2 2-.5z" fill="#ccfbff" fill-opacity=".45"/></g><g fill-opacity=".01"><path d="M38.8 31.738c-.09.002-.181.01-.27.025h-.002c-.028.004-.056.012-.084.018-.175.036-.347.09-.508.173-.09.046-.177.1-.26.16-.03.022-.056.05-.084.073-.001 0-.003 0-.004.002-.05.04-.1.08-.146.126L25.005 43.652l-5.416-4.108-.001-.001a1.315 1.315 0 0 0-1.678.075L16.174 41.2a1.314 1.314 0 0 0-.002 1.943l4.697 4.283-4.697 4.282a1.314 1.314 0 0 0 .002 1.943l1.737 1.579a1.315 1.315 0 0 0 1.679.075l5.415-4.109 12.437 11.339c.043.042.089.077.133.114l.009.007h.001l.005.005h.001c.109.09.223.17.345.233a1.96 1.96 0 0 0 .565.188h.002c.098.016.198.026.297.028h.001a1.973 1.973 0 0 0 .594-.083h.001c.098-.03.193-.067.287-.112l6.497-3.125a1.97 1.97 0 0 0 1.117-1.775V36.832a1.97 1.97 0 0 0-1.117-1.775l-6.497-3.125a1.946 1.946 0 0 0-.882-.194zm.613 8.527v14.319l-9.437-7.16z"/><path d="M39.118 27.58c-.095.002-.19.011-.283.026-.03.005-.059.013-.088.02a2.045 2.045 0 0 0-.531.18 2.071 2.071 0 0 0-.27.166h-.001c-.031.023-.058.052-.088.076l-.004.002c-.052.043-.104.084-.152.132L24.72 40.015h-.001l-5.654-4.288a1.373 1.373 0 0 0-1.752.078l-1.813 1.65a1.371 1.371 0 0 0-.002 2.028l4.903 4.47c-.027.026-4.903 4.47-4.903 4.47a1.371 1.371 0 0 0 .002 2.028l1.813 1.648a1.373 1.373 0 0 0 1.752.078l5.652-4.289 12.983 11.836c.044.044.092.08.139.12l.008.006h.002l.005.006c.114.093.233.177.361.242a2.05 2.05 0 0 0 .59.196h.002c.102.018.207.028.31.03a2.061 2.061 0 0 0 .62-.087h.002c.102-.03.202-.069.3-.116l6.781-3.262a2.056 2.056 0 0 0 1.166-1.852v-22.11c0-.79-.453-1.51-1.166-1.852l-6.781-3.262a2.042 2.042 0 0 0-.92-.203zM39.758 36.48v14.946l-7.078-5.37-2.772-2.104 7.078-5.37"/><path d="M39.25 25.858a2.097 2.097 0 0 0-.288.026c-.03.005-.06.014-.09.02a2.08 2.08 0 0 0-.54.183 2.099 2.099 0 0 0-.275.17c-.032.023-.06.053-.09.077l-.004.002c-.053.044-.106.086-.155.134L24.603 38.51l-5.752-4.363h-.001a1.396 1.396 0 0 0-1.782.08c-.018.015-1.845 1.678-1.845 1.678a1.395 1.395 0 0 0-.001 2.063l4.988 4.548-4.988 4.547a1.395 1.395 0 0 0 .001 2.063l1.845 1.677a1.396 1.396 0 0 0 1.783.08l5.75-4.364 13.207 12.04v.001c.045.044.094.082.141.121l.01.008h.001l.005.005c.116.095.237.18.367.247a2.083 2.083 0 0 0 .6.2h.003a2.11 2.11 0 0 0 .633.01 2.096 2.096 0 0 0 .62-.187l6.899-3.318a2.092 2.092 0 0 0 1.186-1.885V31.267c0-.805-.461-1.537-1.186-1.885l-6.9-3.318a2.077 2.077 0 0 0-.62-.187h-.001a2.075 2.075 0 0 0-.316-.02zM39.901 34.912v15.206l-6.1-4.629-3.921-2.974 6.1-4.628"/><path d="M39.352 24.536a2.106 2.106 0 0 0-.291.027c-.032.005-.061.013-.092.02a2.111 2.111 0 0 0-.547.185c-.096.05-.19.108-.279.172-.032.024-.06.054-.09.079h-.001c-.001 0-.003 0-.004.002-.053.044-.107.086-.157.136L24.513 37.353l-5.828-4.42a1.415 1.415 0 0 0-1.806.08l-1.868 1.7a1.413 1.413 0 0 0-.002 2.09v.001l5.053 4.608-5.053 4.606a1.413 1.413 0 0 0 .002 2.09l1.868 1.7a1.415 1.415 0 0 0 1.806.08l5.826-4.42 13.38 12.198c.046.045.095.083.143.123l.01.007h.001l.006.006c.117.096.24.182.371.25a2.112 2.112 0 0 0 .608.202h.003a2.142 2.142 0 0 0 .642.01 2.112 2.112 0 0 0 .627-.19v.001l6.99-3.361a2.12 2.12 0 0 0 1.201-1.91V30.016a2.12 2.12 0 0 0-1.201-1.91l-6.99-3.361a2.104 2.104 0 0 0-.95-.209zM40.012 33.709v15.405l-5.351-4.06-4.802-3.643 5.351-4.06"/><path d="M39.437 23.422a2.135 2.135 0 0 0-.295.027c-.031.005-.061.014-.092.02a2.13 2.13 0 0 0-.553.188c-.098.05-.192.108-.282.173-.033.024-.06.055-.092.08l-.004.002c-.054.044-.109.087-.159.137L24.436 36.38l-5.891-4.468a1.43 1.43 0 0 0-1.826.081l-1.889 1.72a1.429 1.429 0 0 0-.002 2.113l5.109 4.658-5.109 4.656a1.429 1.429 0 0 0 .002 2.113l1.89 1.718a1.43 1.43 0 0 0 1.825.08l5.89-4.467 13.525 12.33v.001c.046.046.096.084.145.125l.01.007h.001l.005.005c.12.097.243.185.376.253a2.13 2.13 0 0 0 .614.204h.003a2.15 2.15 0 0 0 .649.01 2.128 2.128 0 0 0 .634-.192c.026-.01 7.066-3.397 7.066-3.397A2.142 2.142 0 0 0 48.679 52V28.962c0-.824-.472-1.573-1.215-1.93l-7.066-3.399a2.139 2.139 0 0 0-.96-.211zm.667 9.273v15.573l-4.719-3.58-5.545-4.207 4.72-3.58"/><path d="M39.512 22.44c-.1.002-.2.012-.297.027-.032.005-.062.014-.094.02-.193.04-.381.1-.558.19-.098.05-.194.11-.285.175-.033.024-.061.055-.093.08 0 .002-.002.002-.003.003-.055.044-.11.088-.16.138h-.001L24.368 35.52l-5.947-4.51a1.444 1.444 0 0 0-1.843.082l-1.907 1.735a1.442 1.442 0 0 0-.002 2.133l5.157 4.703-5.157 4.7a1.442 1.442 0 0 0 .002 2.133l1.907 1.734c.514.468 1.29.502 1.843.082l5.945-4.51 13.655 12.447c.046.047.097.085.146.126l.01.008h.001l.006.005c.12.098.245.187.38.256a2.146 2.146 0 0 0 .62.206h.002a2.19 2.19 0 0 0 .655.01 2.163 2.163 0 0 0 .64-.193l7.133-3.43a2.163 2.163 0 0 0 1.227-1.949V28.032c0-.831-.477-1.588-1.227-1.948l-7.133-3.431a2.14 2.14 0 0 0-.969-.213zm.673 9.361v15.721l-4.162-3.158-6.199-4.703 4.162-3.157"/><path d="M39.58 21.553c-.1.002-.2.012-.3.028-.032.005-.063.014-.094.02-.195.04-.385.1-.563.191-.1.051-.196.11-.287.177-.033.024-.062.055-.094.08v.001l-.004.002c-.055.045-.11.089-.162.14L24.307 34.745l-5.997-4.55a1.456 1.456 0 0 0-1.86.083l-1.922 1.75a1.455 1.455 0 0 0-.002 2.152l5.2 4.742-5.2 4.741a1.455 1.455 0 0 0 .002 2.151l1.923 1.749c.519.471 1.3.506 1.859.082l5.995-4.549L38.078 55.65c.046.047.097.086.147.127l.01.008h.001l.005.005c.121.1.248.189.383.258a2.158 2.158 0 0 0 .626.208h.002a2.189 2.189 0 0 0 .66.011 2.171 2.171 0 0 0 .646-.195l7.194-3.46a2.18 2.18 0 0 0 1.237-1.965V27.193a2.18 2.18 0 0 0-1.237-1.965l-7.193-3.46a2.177 2.177 0 0 0-.977-.215zm.679 9.441v15.854L36.6 44.072l-6.79-5.152 3.658-2.775"/><path d="M39.643 20.737a2.2 2.2 0 0 0-.302.028c-.032.005-.063.014-.095.02-.196.04-.388.101-.567.193-.1.051-.198.111-.29.178-.033.025-.062.056-.094.082-.002 0-.003 0-.004.002-.056.045-.112.09-.163.14L24.252 34.03c-.015-.01-6.045-4.584-6.045-4.584a1.467 1.467 0 0 0-1.873.084l-1.938 1.763a1.466 1.466 0 0 0-.002 2.168l5.241 4.78-5.24 4.777a1.466 1.466 0 0 0 .001 2.168l1.938 1.762c.523.475 1.31.51 1.873.084l6.043-4.585L38.128 55.1c.047.047.098.086.148.128l.01.008h.002l.005.005c.122.1.25.19.386.26a2.189 2.189 0 0 0 .63.21h.003a2.21 2.21 0 0 0 .666.011 2.184 2.184 0 0 0 .65-.197l7.25-3.487a2.198 2.198 0 0 0 1.246-1.98V26.42c0-.845-.485-1.615-1.246-1.98-.017-.01-7.25-3.487-7.25-3.487a2.2 2.2 0 0 0-.985-.217zM40.327 30.251V46.23l-3.195-2.424-7.335-5.565 3.195-2.424"/><path d="M39.701 19.977a2.217 2.217 0 0 0-.304.028c-.033.005-.064.014-.096.02-.197.04-.39.102-.571.195-.101.051-.2.112-.292.18-.033.024-.063.055-.095.081l-.004.002c-.056.046-.112.09-.164.142L24.2 33.366l-6.088-4.617a1.478 1.478 0 0 0-1.886.084l-1.952 1.776a1.476 1.476 0 0 0-.002 2.184l5.279 4.813-5.28 4.812a1.476 1.476 0 0 0 .003 2.184l1.952 1.774c.526.479 1.32.514 1.886.084l6.086-4.617 13.977 12.743c.047.047.1.087.15.129l.009.007h.002l.006.006c.122.1.25.19.388.261a2.192 2.192 0 0 0 .635.211h.002a2.229 2.229 0 0 0 .67.011 2.2 2.2 0 0 0 .655-.198h.001c.015-.006 7.302-3.51 7.302-3.51v-.001a2.213 2.213 0 0 0 1.255-1.995V25.702c0-.85-.488-1.625-1.255-1.994l-7.302-3.512a2.192 2.192 0 0 0-.992-.218zm.69 9.582v16.092l-2.765-2.097-7.842-5.95 2.765-2.097"/><path d="M39.756 19.264a2.23 2.23 0 0 0-.306.028c-.033.005-.064.014-.096.02v.001a2.22 2.22 0 0 0-.576.196 2.24 2.24 0 0 0-.293.18c-.034.025-.064.056-.096.083-.001 0-.003 0-.004.002-.056.046-.113.09-.165.143L24.15 32.743l-6.128-4.649a1.488 1.488 0 0 0-1.899.085l-1.965 1.788a1.486 1.486 0 0 0-.002 2.199l5.314 4.845-5.314 4.844a1.486 1.486 0 0 0 .002 2.198l1.965 1.787c.53.481 1.329.517 1.9.084l6.126-4.648 14.07 12.828c.048.048.1.087.151.13l.01.007h.002l.005.006c.124.1.253.192.391.263a2.212 2.212 0 0 0 .64.212h.002c.11.02.224.03.336.033a2.231 2.231 0 0 0 .673-.094c.111-.034.22-.075.326-.126L48.105 51a2.228 2.228 0 0 0 1.264-2.009V25.027c0-.856-.492-1.636-1.264-2.007l-7.35-3.536a2.208 2.208 0 0 0-.998-.22zM40.45 28.91v16.2l-2.36-1.791-8.317-6.31 2.36-1.79"/><path d="M39.807 18.589a2.258 2.258 0 0 0-.308.028c-.033.005-.065.015-.097.021-.2.04-.396.103-.579.197-.102.052-.201.113-.295.182-.034.025-.064.056-.097.083l-.003.002c-.057.046-.114.091-.167.144L24.104 32.152l-6.167-4.678a1.497 1.497 0 0 0-1.91.085l-1.978 1.8a1.496 1.496 0 0 0-.002 2.212l5.347 4.876-5.347 4.874a1.495 1.495 0 0 0 .002 2.212l1.977 1.798c.534.485 1.337.52 1.911.085l6.165-4.677 14.16 12.908c.047.047.1.088.15.13l.01.008h.002l.006.006c.124.101.254.193.393.264a2.24 2.24 0 0 0 .643.214h.003a2.26 2.26 0 0 0 .68.011h-.001a2.223 2.223 0 0 0 .664-.2l7.397-3.557a2.242 2.242 0 0 0 1.271-2.021V24.387c0-.862-.495-1.647-1.271-2.02l-7.397-3.558a2.235 2.235 0 0 0-1.005-.221zm.698 9.707v16.302l-1.977-1.5-8.767-6.652 1.977-1.5"/><path d="M39.856 17.947a2.27 2.27 0 0 0-.31.029c-.033.005-.065.014-.097.02-.202.041-.399.104-.583.199a2.258 2.258 0 0 0-.297.182c-.034.025-.064.057-.097.084l-.004.002c-.057.047-.114.092-.167.145L24.06 31.59l-6.203-4.705a1.506 1.506 0 0 0-1.923.085l-1.989 1.81a1.504 1.504 0 0 0-.002 2.225l5.38 4.905-5.38 4.904a1.504 1.504 0 0 0 .002 2.225l1.99 1.808a1.506 1.506 0 0 0 1.922.086l6.2-4.706h.001l14.243 12.985c.048.049.1.089.152.132l.01.007h.002l.005.006c.125.102.256.195.396.267a2.236 2.236 0 0 0 .647.215h.003a2.288 2.288 0 0 0 .683.012v-.001a2.25 2.25 0 0 0 .668-.202l7.44-3.578a2.255 2.255 0 0 0 1.28-2.033V23.78c0-.867-.498-1.656-1.28-2.032l-7.44-3.579a2.226 2.226 0 0 0-1.01-.223zm.702 9.765V44.11l-1.612-1.224-9.195-6.976 1.612-1.224"/><path d="M39.904 17.334a2.279 2.279 0 0 0-.312.029c-.033.005-.065.014-.098.02-.202.042-.4.105-.585.2a2.285 2.285 0 0 0-.299.184c-.035.025-.064.057-.098.084l-.003.002c-.058.047-.116.092-.169.145L24.018 31.054l-6.238-4.732a1.515 1.515 0 0 0-1.933.087l-2 1.82c-.66.6-.661 1.637-.003 2.238l5.41 4.932-5.41 4.931c-.658.6-.658 1.638.002 2.238l2 1.818c.54.49 1.353.527 1.934.086l6.236-4.731L38.34 52.799c.049.048.102.089.153.132l.01.008h.002l.006.005c.125.103.257.196.398.268a2.251 2.251 0 0 0 .65.216h.003a2.289 2.289 0 0 0 1.028-.063c.112-.033.222-.076.33-.128l7.483-3.598a2.268 2.268 0 0 0 1.286-2.045V23.2c0-.872-.5-1.666-1.286-2.044l-7.482-3.598a2.25 2.25 0 0 0-1.016-.224zM40.61 27.153v16.49l-1.264-.96-9.604-7.286 1.265-.959"/><path d="M39.948 16.746a2.29 2.29 0 0 0-.314.029c-.033.005-.065.015-.098.021a2.271 2.271 0 0 0-.589.2 2.281 2.281 0 0 0-.3.185c-.035.025-.065.057-.098.085-.002 0-.003 0-.004.002-.058.047-.116.092-.17.146L23.979 30.54l-6.272-4.757a1.523 1.523 0 0 0-1.944.086l-2.01 1.83a1.521 1.521 0 0 0-.003 2.25l5.439 4.96-5.439 4.957a1.521 1.521 0 0 0 .002 2.25l2.011 1.828c.543.493 1.36.53 1.944.086l6.27-4.757 14.4 13.128c.048.049.102.09.154.133l.01.008h.002l.005.005c.126.104.258.197.4.27a2.273 2.273 0 0 0 .654.217h.003a2.3 2.3 0 0 0 .69.012 2.278 2.278 0 0 0 .675-.204l7.524-3.618a2.28 2.28 0 0 0 1.293-2.055V22.643a2.28 2.28 0 0 0-1.293-2.055L40.97 16.97a2.26 2.26 0 0 0-1.022-.225zm.71 9.872v16.58l-.931-.707-9.996-7.584.931-.706"/><path d="M39.992 16.18a2.295 2.295 0 0 0-.315.029c-.034.005-.066.015-.099.021a2.28 2.28 0 0 0-.592.201 2.282 2.282 0 0 0-.302.186c-.035.025-.065.058-.098.085l-.004.002c-.058.048-.117.093-.17.147L23.939 30.045l-6.304-4.781a1.53 1.53 0 0 0-1.954.087l-2.021 1.84a1.529 1.529 0 0 0-.002 2.26l5.466 4.985-5.466 4.983a1.529 1.529 0 0 0 .002 2.261l2.02 1.838h.001a1.53 1.53 0 0 0 1.954.087l6.302-4.782L38.412 52.02c.048.05.102.09.154.134l.01.008h.002l.006.005c.127.104.26.198.402.271a2.276 2.276 0 0 0 .658.219h.002a2.332 2.332 0 0 0 .694.011 2.275 2.275 0 0 0 .679-.205l7.562-3.636a2.292 2.292 0 0 0 1.3-2.066V22.108c0-.881-.506-1.683-1.3-2.065l-7.562-3.637a2.275 2.275 0 0 0-1.027-.226zM40.706 26.103v16.664l-.61-.463-10.373-7.87.61-.463"/><path d="M40.034 15.634a2.302 2.302 0 0 0-.317.03c-.033.004-.066.014-.099.02a2.293 2.293 0 0 0-.595.203 2.315 2.315 0 0 0-.303.186c-.035.026-.065.058-.1.086l-.003.002c-.058.048-.117.094-.171.148L23.902 29.568l-6.335-4.806a1.538 1.538 0 0 0-1.963.088l-2.032 1.848a1.536 1.536 0 0 0-.002 2.273l5.494 5.01c-.002 0-5.494 5.007-5.494 5.007a1.536 1.536 0 0 0 .002 2.272l2.032 1.847a1.538 1.538 0 0 0 1.963.087L23.9 38.39l14.546 13.26c.05.05.103.091.155.135l.01.008h.003l.005.006c.127.104.261.198.404.272a2.293 2.293 0 0 0 .661.22h.002a2.33 2.33 0 0 0 .698.011 2.305 2.305 0 0 0 .682-.206l7.6-3.654a2.304 2.304 0 0 0 1.306-2.076V21.59c0-.886-.509-1.692-1.307-2.076l-7.599-3.654a2.287 2.287 0 0 0-1.032-.228zM40.752 25.606v16.746l-.3-.228-10.738-8.146.3-.228"/><path d="M40.074 15.106a2.308 2.308 0 0 0-.318.03c-.034.004-.067.014-.1.02a2.303 2.303 0 0 0-.598.204 2.31 2.31 0 0 0-.304.187c-.035.026-.066.059-.1.086l-.004.002c-.058.048-.117.094-.172.149L23.865 29.106 17.5 24.278a1.545 1.545 0 0 0-1.973.087l-2.04 1.858a1.544 1.544 0 0 0-.003 2.283l5.52 5.033-5.52 5.032a1.544 1.544 0 0 0 .002 2.283l2.041 1.855c.55.5 1.38.538 1.973.088l6.363-4.828 14.615 13.324c.05.05.104.09.157.135l.01.007h.001l.001.001.005.005c.128.105.262.2.407.274a2.291 2.291 0 0 0 .664.22h.002a2.35 2.35 0 0 0 .7.012 2.316 2.316 0 0 0 .686-.207l7.635-3.672a2.315 2.315 0 0 0 1.313-2.086v-24.89c0-.89-.51-1.7-1.313-2.086l-7.635-3.672a2.295 2.295 0 0 0-1.037-.228zm.72 10.02v16.826l-11.089-8.414"/></g><g stroke-width="1.119"><path d="m50.789 17.288-8.54-4.112a2.582 2.582 0 0 0-2.946.5l-27.957 25.49a1.727 1.727 0 0 0 .002 2.555l2.284 2.076c.615.56 1.542.6 2.205.098l33.667-25.54c1.13-.857 2.752-.052 2.752 1.366v-.099a2.59 2.59 0 0 0-1.467-2.334z" fill="url(#t)" transform="translate(3.342 3.056) scale(.89398)"/><path d="m50.789 49.787-8.54 4.112a2.582 2.582 0 0 1-2.946-.5l-27.957-25.49a1.727 1.727 0 0 1 .002-2.555l2.284-2.076c.615-.56 1.542-.6 2.205-.098l33.667 25.54c1.13.857 2.752.051 2.752-1.366v.099a2.59 2.59 0 0 1-1.467 2.334z" fill="url(#u)" transform="translate(3.342 3.056) scale(.89398)"/><path d="M42.25 53.899a2.583 2.583 0 0 1-2.946-.501c.956.956 2.59.279 2.59-1.073V14.75c0-1.352-1.634-2.03-2.59-1.073a2.583 2.583 0 0 1 2.946-.502l8.539 4.107a2.59 2.59 0 0 1 1.467 2.334v27.842a2.59 2.59 0 0 1-1.467 2.335z" fill="url(#v)" transform="translate(3.342 3.056) scale(.89398)"/></g></svg>