<?xml version="1.0" encoding="UTF-8"?>
<!-- Created with Inkscape (http://www.inkscape.org/) -->
<svg width="64" height="64" version="1.1" xmlns="http://www.w3.org/2000/svg" xmlns:cc="http://creativecommons.org/ns#" xmlns:dc="http://purl.org/dc/elements/1.1/" xmlns:rdf="http://www.w3.org/1999/02/22-rdf-syntax-ns#" xmlns:xlink="http://www.w3.org/1999/xlink">
	<defs>
		<style type="text/css">.fil2 {fill:#11A861}
    .fil0 {fill:#3777E3}
    .fil1 {fill:#FFCF63}</style>
		<radialGradient id="e-5-6" cx="35.574" cy="1.019" r="32" gradientTransform="matrix(0,1.1252,-5.1753,0,37.271,-39.029)" gradientUnits="userSpaceOnUse" xlink:href="#a-6"/>
		<linearGradient id="a-6">
			<stop stop-color="#fff" stop-opacity=".07" offset="0"/>
			<stop stop-color="#fff" stop-opacity=".001" offset="1"/>
		</linearGradient>
		<radialGradient id="f-6-9" cx="35.574" cy="1.036" r="32" gradientTransform="matrix(0,1.1252,-5.1753,0,37.363,-39.029)" gradientUnits="userSpaceOnUse" xlink:href="#a-6"/>
		<radialGradient id="g-2-1" cx="35.574" cy="1.055" r="32" gradientTransform="matrix(0,1.1252,-5.1753,0,37.458,-39.029)" gradientUnits="userSpaceOnUse" xlink:href="#a-6"/>
		<radialGradient id="h-2-3" cx="35.574" cy="1.071" r="32" gradientTransform="matrix(0,1.1252,-5.1753,0,37.544,-39.029)" gradientUnits="userSpaceOnUse" xlink:href="#a-6"/>
		<radialGradient id="i-7" cx="35.574" cy="1.091" r="32" gradientTransform="matrix(0,1.1252,-5.1753,0,37.648,-39.029)" gradientUnits="userSpaceOnUse" xlink:href="#a-6"/>
		<radialGradient id="j-0" cx="35.574" cy="1.113" r="32" gradientTransform="matrix(0,1.1252,-5.1753,0,37.758,-39.029)" gradientUnits="userSpaceOnUse" xlink:href="#a-6"/>
		<radialGradient id="k-9" cx="35.574" cy="1.135" r="32" gradientTransform="matrix(0,1.1252,-5.1753,0,37.875,-39.029)" gradientUnits="userSpaceOnUse" xlink:href="#a-6"/>
		<radialGradient id="l-3" cx="35.574" cy="1.159" r="32" gradientTransform="matrix(0,1.1252,-5.1753,0,38,-39.029)" gradientUnits="userSpaceOnUse" xlink:href="#a-6"/>
		<radialGradient id="m-6" cx="35.574" cy="1.18" r="32" gradientTransform="matrix(0,1.1252,-5.1753,0,38.107,-39.029)" gradientUnits="userSpaceOnUse" xlink:href="#a-6"/>
		<radialGradient id="n-0-3" cx="35.574" cy="1.208" r="32" gradientTransform="matrix(0,1.1252,-5.1753,0,38.252,-39.029)" gradientUnits="userSpaceOnUse" xlink:href="#a-6"/>
		<radialGradient id="o-6" cx="35.574" cy="1.239" r="32" gradientTransform="matrix(0,1.1252,-5.1753,0,38.411,-39.029)" gradientUnits="userSpaceOnUse" xlink:href="#a-6"/>
		<radialGradient id="p-2" cx="35.574" cy="1.273" r="32" gradientTransform="matrix(0,1.1252,-5.1753,0,38.587,-39.029)" gradientUnits="userSpaceOnUse" xlink:href="#a-6"/>
		<radialGradient id="q-6-6" cx="35.574" cy="1.304" r="32" gradientTransform="matrix(0,1.1252,-5.1753,0,38.75,-39.029)" gradientUnits="userSpaceOnUse" xlink:href="#a-6"/>
		<radialGradient id="r-1" cx="35.574" cy="1.346" r="32" gradientTransform="matrix(0,1.1252,-5.1753,0,38.966,-39.029)" gradientUnits="userSpaceOnUse" xlink:href="#a-6"/>
		<radialGradient id="s-8" cx="35.574" cy="1.393" r="32" gradientTransform="matrix(0,1.1252,-5.1753,0,39.208,-39.029)" gradientUnits="userSpaceOnUse" xlink:href="#a-6"/>
		<radialGradient id="t-7" cx="35.574" cy="1.439" r="32" gradientTransform="matrix(0,1.1252,-5.1753,0,39.446,-39.027)" gradientUnits="userSpaceOnUse" xlink:href="#a-6"/>
		<radialGradient id="radialGradient869" cx="32" cy="15.077" r="32" gradientTransform="matrix(1 0 0 .014897 0 1.2172)" gradientUnits="userSpaceOnUse">
			<stop stop-color="#fff" stop-opacity=".667" offset="0"/>
			<stop stop-color="#fff" stop-opacity=".001" offset="1"/>
		</radialGradient>
		<radialGradient id="b-3" cx="37.338" cy="41.714" r="32" gradientTransform="matrix(1.0524 0 0 1.0195 -1.933 -.907)" gradientUnits="userSpaceOnUse">
			<stop stop-color="#9d9fc8" offset="0"/>
			<stop stop-color="#9ba9ca" offset="1"/>
		</radialGradient>
	</defs>
	<metadata>
		<rdf:RDF>
			<cc:Work rdf:about="">
				<dc:format>image/svg+xml</dc:format>
				<dc:type rdf:resource="http://purl.org/dc/dcmitype/StillImage"/>
			</cc:Work>
		</rdf:RDF>
	</metadata>
	<rect width="64" height="64" rx="1" ry="1" fill="url(#b-3)" paint-order="fill markers stroke"/>
	<g transform="matrix(.9111 0 0 .9111 2.8448 5.4465)" fill="#00152b" fill-opacity=".03" opacity=".302" stroke-width="1.0976">
		<path d="m26.816 16.174c-3.4997 0-6.4906 2.355-7.6349 5.5147-3.1656 1.142-5.5201 4.1307-5.5201 7.6403v15.677c0 4.4521 3.7432 8.1953 8.1954 8.1953h15.327c3.5096 0 6.4983-2.3545 7.6403-5.5201 3.1597-1.1442 5.5147-4.1351 5.5147-7.6348v-15.683c0-4.4416-3.7483-8.1899-8.1899-8.1899z"/>
		<path d="m26.808 16.153c-3.5055 0-6.5015 2.3589-7.6476 5.5238h-1e-4c-3.1709 1.144-5.5293 4.1377-5.5293 7.6532v15.703c0 4.4596 3.7495 8.2091 8.2091 8.2091h15.353c3.5154 0 6.5091-2.3585 7.6531-5.5294 3.1649-1.1461 5.5239-4.1421 5.5239-7.6476v-15.708c0-4.4491-3.7545-8.2036-8.2036-8.2036h-15.358"/>
		<path d="m26.782 16.09c-3.5232 0-6.5341 2.3708-7.6861 5.5516-3.1868 1.1497-5.557 4.1584-5.557 7.6915v15.783c0 4.482 3.7683 8.2503 8.2503 8.2503h15.43c3.5331 0 6.5418-2.3703 7.6916-5.5571 3.1807-1.1519 5.5515-4.1629 5.5515-7.686v-15.787c0-4.4714-3.7733-8.2448-8.2448-8.2448h-15.435"/>
		<path d="m26.738 15.984c-3.5525 0-6.5885 2.3905-7.75 5.5978-3.2133 1.1593-5.6033 4.193-5.6033 7.7555v15.914c0 4.5192 3.7996 8.3188 8.3189 8.3188h15.558c3.5624 0 6.5961-2.39 7.7554-5.6033h1e-4c3.2072-1.1615 5.5977-4.1975 5.5977-7.7499v-15.919c0-4.5086-3.8048-8.3134-8.3134-8.3134h-15.564"/>
		<path d="m26.677 15.837c-3.5935 0-6.6645 2.4181-7.8395 5.6624-3.2504 1.1727-5.668 4.2414-5.668 7.8451v16.097c1e-4 4.5715 3.8435 8.415 8.415 8.415h15.738c3.6035-1e-4 6.6723-2.4176 7.845-5.668v-1e-4c3.2443-1.1749 5.6624-4.2459 5.6624-7.8394v-16.102c-1e-4 -4.5607-3.8487-8.4093-8.4094-8.4093h-15.743"/>
		<path d="m26.599 15.647c-3.6463 0-6.7624 2.4536-7.9546 5.7455h-1e-4c-3.2981 1.1899-5.7511 4.3037-5.7511 7.9602v16.333c1e-4 4.6386 3.9 8.5385 8.5385 8.5385h15.969c3.6565-1e-4 6.7703-2.4531 7.9602-5.7512l1e-4 -1e-4c3.2918-1.1922 5.7454-4.3083 5.7454-7.9545v-16.339c-1e-4 -4.6276-3.9052-8.5327-8.5328-8.5327h-15.974"/>
		<path d="m26.504 15.415c-3.7107 0-6.882 2.497-8.0952 5.8471l-1e-4 1e-4c-3.3565 1.2109-5.8528 4.3798-5.8528 8.1009v16.622c0 4.7206 3.9689 8.6894 8.6895 8.6894h16.251c3.7211 0 6.8899-2.4965 8.1008-5.8529h1e-4c3.3501-1.2133 5.847-4.3845 5.847-8.0952v-16.628c0-4.7094-3.9742-8.6836-8.6837-8.6836h-16.257"/>
		<path d="m26.391 15.141c-3.7869 0-7.0232 2.5483-8.2614 5.9672h-2e-4c-3.4253 1.2359-5.9729 4.4698-5.9729 8.2673v16.964c1e-4 4.8174 4.0504 8.8677 8.8679 8.8677h16.585c3.7974 0 7.0313-2.5477 8.2671-5.973l2e-4 -1e-4c3.4188-1.2382 5.967-4.4745 5.967-8.2613v-16.97c-1e-4 -4.8061-4.0559-8.8619-8.862-8.8619h-16.591"/>
		<path d="m26.261 14.825c-3.8748 0-7.1863 2.6074-8.4532 6.1057l-2e-4 1e-4c-3.5048 1.2645-6.1116 4.5735-6.1116 8.4592v17.357c1e-4 4.9293 4.1445 9.0736 9.0738 9.0736h16.97c3.8857-1e-4 7.1946-2.6069 8.4591-6.1117l2e-4 -1e-4c3.4982-1.2669 6.1055-4.5784 6.1055-8.4531v-17.364c-1e-4 -4.9177-4.1501-9.0676-9.0678-9.0676h-16.976"/>
		<path d="m26.113 14.467c-3.9745 0-7.3711 2.6745-8.6706 6.2627l-2e-4 1e-4c-3.595 1.2971-6.2687 4.6911-6.2687 8.6767v17.804c1e-4 5.056 4.2511 9.3069 9.3071 9.3069h17.407c3.9855-1e-4 7.3795-2.674 8.6765-6.2689l2e-4 -1e-4c3.5881-1.2996 6.2625-4.6961 6.2625-8.6705v-17.81c-1e-4 -5.0441-4.2568-9.3007-9.3009-9.3007h-17.412"/>
		<path d="m25.948 14.066c-4.0859 0-7.5777 2.7494-8.9136 6.4382l-3e-4 1e-4c-3.6956 1.3334-6.4442 4.8226-6.4442 8.9198v18.303c1e-4 5.1977 4.3701 9.5676 9.5679 9.5676h17.895c4.0972-1e-4 7.5862-2.7489 8.9196-6.4445l3e-4 -1e-4c3.6886-1.336 6.4378-4.8278 6.4378-8.9135v-18.309c-1e-4 -5.1854-4.376-9.5613-9.5615-9.5613h-17.9"/>
		<path d="m25.766 13.624c-4.2089 0-7.8059 2.8322-9.182 6.6321l-4e-4 1e-4c-3.8069 1.3736-6.6383 4.9679-6.6383 9.1885v18.854c1.5e-4 5.3542 4.5018 9.8558 9.8561 9.8558h18.434c4.2205-2e-4 7.8147-2.8317 9.1882-6.6387l4e-4 -1e-4c3.7996-1.3763 6.6317-4.9732 6.6317-9.1819v-18.861c-2e-4 -5.3416-4.5079-9.8492-9.8495-9.8492h-18.44"/>
		<path d="m25.566 13.139c-4.3437 0-8.0559 2.9229-9.4762 6.8445l-4e-4 2e-4c-3.9288 1.4176-6.8509 5.1269-6.8509 9.4827v19.459c1.9e-4 5.5257 4.6461 10.172 10.172 10.172h19.024c4.3557-3e-4 8.065-2.9225 9.4824-6.8514l5e-4 -1e-4c3.9214-1.4204 6.8441-5.1324 6.8441-9.476v-19.465c-2e-4 -5.5126-4.6523-10.165-10.165-10.165h-19.031"/>
		<path d="m25.349 12.612c-4.4902 0-8.3276 3.0215-9.7957 7.0754l-6e-4 2e-4c-4.0613 1.4655-7.0819 5.2999-7.0819 9.8026v20.115c2.1e-4 5.7121 4.8028 10.514 10.515 10.514h19.666c4.5026-3e-4 8.3369-3.0211 9.8022-7.0824l5e-4 -2e-4c4.0536-1.4683 7.0749-5.3056 7.0749-9.7956v-20.122c-2e-4 -5.6986-4.8092-10.508-10.508-10.508h-19.673"/>
		<path d="m25.115 12.043c-4.6484 0-8.6211 3.128-10.141 7.3248l-6e-4 2e-4c-4.2044 1.5171-7.3314 5.4867-7.3314 10.148v20.824c2.5e-4 5.9134 4.972 10.885 10.886 10.885h20.359c4.6612-3e-4 8.6306-3.1276 10.148-7.3321l7e-4 -2e-4c4.1964-1.52 7.3241-5.4925 7.3241-10.141v-20.831c-2e-4 -5.8995-4.9787-10.878-10.878-10.878h-20.366"/>
		<path d="m24.863 11.432c-4.8185 0-8.9364 3.2424-10.512 7.5926-3e-4 1e-4 -5e-4 2e-4 -8e-4 3e-4 -4.3581 1.5726-7.5994 5.6873-7.5994 10.519v21.585c2.8e-4 6.1296 5.1539 11.283 11.283 11.283h21.104c4.8317-3e-4 8.9462-3.2419 10.519-7.6001l7e-4 -3e-4c4.3498-1.5756 7.5919-5.6933 7.5919-10.512v-21.592c-3e-4 -6.1151-5.1608-11.276-11.276-11.276h-21.11"/>
		<path d="m24.594 10.778c-5.0002 0-9.2734 3.3647-10.908 7.8789-2e-4 1e-4 -5e-4 2e-4 -8e-4 3e-4 -4.5224 1.632-7.8859 5.9018-7.8859 10.916v22.4c3.2e-4 6.3607 5.3482 11.708 11.709 11.708h21.899c5.0138-4e-4 9.2834-3.3642 10.915-7.8867l8e-4 -3e-4c4.5138-1.635 7.8781-5.908 7.8781-10.908v-22.407c-4e-4 -6.3457-5.3555-11.701-11.701-11.701h-21.906"/>
	</g>
	<g>
		<g transform="translate(8.0016e-5 .057009)">
			<path transform="translate(0 .002)" d="m1 0c-0.554 0-1 0.446-1 1v62-0.224 0.224-62h1.752c19.15 2e-3 39.445 0 60.213 0h2.035v62-0.334 0.334-62c0.0011-0.55274-0.44726-1.0011-1-1z" fill="url(#e-5-6)"/>
			<path transform="translate(0 .002)" d="m1 0c-0.5551-0.0011303-1.0045 0.45091-1 1.006v61.98-0.197c0-0.277 4e-3 -0.184 0.01 0.246 0.012 0.016 0.03-0.297 0.052-0.897v-61c0.072-9e-3 0.133-0.013 0.185-0.013 0.29-0.016 0.357-0.032 0.774-0.044 0.246-0.011 0.496-0.019 0.747-0.019 19.183 2e-3 39.392 0 60.2 0 0.346 0 0.689 0.012 1.023 0.03 0.268 0.01 0.389 0.02 0.52 0.033 0.106 0 0.22 0.01 0.427 0.028v60.744c0.027 0.754 0.05 1.148 0.059 1.123l3e-3 -0.334v0.286-61.762c0-0.143 0-0.22-2e-3 -0.224-0.005475-0.55246-0.45958-0.9949-1.012-0.986h-61.986" fill="url(#f-6-9)"/>
			<path transform="translate(0 .002)" d="m1 0c-0.5551-0.0011303-1.0045 0.45091-1 1.006v61.966-0.169c0-0.245 8e-3 -0.145 0.021 0.266 0.022 0.034 0.06-0.247 0.104-0.807v-60.988c0.056484-0.015102 0.11455-0.023493 0.173-0.025 0.27-0.031 0.341-0.064 0.743-0.088 0.242-0.022 0.492-0.037 0.742-0.037 19.217 2e-3 39.34 0 60.187 0 0.347 0 0.69 0.024 1.013 0.06 0.256 0.02 0.372 0.042 0.494 0.065 0.1 0 0.206 0.02 0.398 0.057v60.731c0.055 0.703 0.102 1.052 0.119 1.003 4e-3 -0.154 6e-3 -0.265 6e-3 -0.333v0.237-61.748c0-0.139 0-0.215-3e-3 -0.224-0.011441-0.46771-0.34748-0.86412-0.807-0.952-0.071417-0.014359-0.14416-0.021063-0.217-0.02h-61.973" fill="url(#g-2-1)"/>
			<path transform="translate(0 .002)" d="m1 0c-0.55471-0.0011253-1.0039 0.45031-1 1.005v61.953-0.14c0-0.213 0.012-0.107 0.031 0.287 0.034 0.05 0.091-0.198 0.156-0.718v-60.974c0.050612-0.022043 0.10485-0.034585 0.16-0.037 0.252-0.048 0.327-0.097 0.715-0.132 0.238-0.034 0.487-0.056 0.737-0.056 19.25 2e-3 39.286 0 60.173 0 0.348 0 0.688 0.036 1.001 0.09 0.244 0.029 0.356 0.062 0.47 0.098 0.091 0 0.19 0.03 0.37 0.085v60.718c0.082 0.653 0.151 0.957 0.176 0.884 7e-3 -0.152 0.01-0.262 0.01-0.333v0.188-61.734c0-0.135 0-0.21-4e-3 -0.224-0.017399-0.46717-0.35861-0.85879-0.819-0.94-0.071505-0.013569-0.14424-0.019602-0.217-0.018h-61.96" fill="url(#h-2-3)"/>
			<path transform="translate(0 .002)" d="m1 0c-0.55471-0.0011253-1.0039 0.45031-1 1.005v61.939-0.113c0-0.18 0.015-0.068 0.042 0.308 0.045 0.067 0.121-0.149 0.208-0.629v-60.96c0.044295-0.028947 0.095225-0.046153 0.148-0.05 0.232-0.063 0.311-0.128 0.684-0.176 0.234-0.044 0.483-0.074 0.732-0.074 19.284 2e-3 39.234 0 60.16 0 0.35 0 0.689 0.048 0.991 0.12 0.232 0.039 0.34 0.083 0.444 0.13 0.085 0 0.176 0.04 0.341 0.114v60.704c0.11 0.603 0.203 0.862 0.236 0.764 0.0082-0.11082 0.01287-0.22188 0.014-0.333v0.14-61.721c0-0.13-2e-3 -0.206-6e-3 -0.224-0.024028-0.46583-0.36965-0.85184-0.83-0.927-0.072548-0.013262-0.14628-0.018959-0.22-0.017h-61.944" fill="url(#i-7)"/>
			<path transform="translate(0 .002)" d="m1 0c-0.55431-0.0011209-1.0033 0.4497-1 1.004v61.926-0.084c0-0.148 0.02-0.029 0.052 0.328 0.056 0.084 0.152-0.099 0.26-0.539v-60.949c0.053-0.04 0.097-0.061 0.136-0.061 0.212-0.08 0.297-0.16 0.655-0.22 0.23-0.056 0.477-0.093 0.727-0.093 19.317 2e-3 39.18 0 60.147 0 0.35 0 0.688 0.06 0.98 0.151 0.22 0.047 0.322 0.102 0.418 0.162 0.078 0 0.162 0.049 0.313 0.142v60.69c0.137 0.553 0.253 0.767 0.295 0.645 0.0096-0.11043 0.01523-0.22117 0.017-0.332v0.09-61.705c0-0.126-2e-3 -0.202-7e-3 -0.224-0.03077-0.46514-0.38186-0.8458-0.843-0.914-0.071921-0.0129-0.14495-0.018594-0.218-0.017h-61.932" fill="url(#j-0)"/>
			<path transform="translate(0 .002)" d="m1 0c-0.55431-0.0011209-1.0033 0.4497-1 1.004v61.912-0.056c0-0.117 0.023 0.01 0.063 0.349 0.067 0.1 0.182-0.05 0.312-0.45v-60.935c0.048-0.049 0.088-0.074 0.123-0.074 0.193-0.095 0.282-0.192 0.626-0.264 0.225-0.067 0.472-0.11 0.721-0.11h60.133c0.352 0 0.688 0.071 0.97 0.18 0.1444 0.03294 0.27903 0.099398 0.393 0.194 0.07 0 0.147 0.059 0.284 0.17v60.68c0.164 0.502 0.304 0.671 0.354 0.524 0.014-0.14 0.02-0.25 0.02-0.331v0.042-61.695c0-0.121-2e-3 -0.197-9e-3 -0.224-0.037172-0.46407-0.39266-0.83953-0.854-0.902-0.072052-0.011622-0.14505-0.01631-0.218-0.014h-61.918" fill="url(#k-9)"/>
			<path transform="translate(0 .002)" d="m1 0c-0.55431-0.0011209-1.0033 0.4497-1 1.004v61.898-0.029c0-0.084 0.027 0.049 0.073 0.37 0.079 0.117 0.212 0 0.365-0.36v-60.923c0.043-0.057 0.079-0.086 0.11-0.086 0.174-0.112 0.267-0.225 0.596-0.309 0.23012-0.082729 0.47247-0.12633 0.717-0.129 19.385 2e-3 39.075 0 60.12 0 0.353 0 0.687 0.084 0.958 0.211 0.14097 0.040924 0.26817 0.11939 0.368 0.227 0.063 0 0.132 0.068 0.256 0.199v60.665c0.192 0.452 0.354 0.576 0.413 0.404 0.01385-0.1095 0.02186-0.21965 0.024-0.33v-61.687c0-0.117-4e-3 -0.193-0.01-0.224-0.043775-0.464-0.40524-0.83463-0.868-0.89-0.071851-0.010232-0.14448-0.013914-0.217-0.011h-61.905" fill="url(#l-3)"/>
			<path transform="translate(0 .002)" d="m1 0c-0.55392-0.001117-1.0028 0.44909-1 1.003v61.885c0-0.052 0.03 0.087 0.084 0.39 0.09 0.135 0.242 0.05 0.416-0.27v-60.911c0.038-0.063 0.07-0.097 0.099-0.097 0.154-0.127 0.251-0.257 0.566-0.352 0.217-0.089 0.463-0.148 0.711-0.148 19.418 2e-3 39.022 0 60.107 0 0.355 0 0.687 0.096 0.947 0.242 0.13781 0.049299 0.25742 0.13926 0.343 0.258 0.056 0 0.118 0.079 0.227 0.227v60.651c0.22 0.402 0.406 0.482 0.473 0.285 0.018-0.132 0.027-0.243 0.027-0.33v-61.721c0-0.113-4e-3 -0.188-0.012-0.224-0.050481-0.46258-0.4163-0.82757-0.879-0.877-0.072218-0.0099014-0.14515-0.013582-0.218-0.011h-61.89" fill="url(#m-6)"/>
			<path transform="translate(0 .002)" d="m1 0c-0.55392-0.001117-1.0028 0.44909-1 1.003v61.899c0-0.02 0.035 0.126 0.094 0.41 0.101 0.152 0.273 0.1 0.468-0.18v-60.897c0.034-0.073 0.062-0.11 0.087-0.11 0.135-0.143 0.236-0.29 0.536-0.397 0.213-0.1 0.459-0.166 0.707-0.166 19.452 2e-3 38.969 0 60.093 0 0.356 0 0.687 0.108 0.936 0.272 0.13431 0.059746 0.24556 0.16152 0.317 0.29 0.05 0 0.103 0.089 0.2 0.256v60.64c0.246 0.352 0.455 0.386 0.531 0.165 0.02-0.128 0.03-0.239 0.03-0.33v-61.755c0-0.108-4e-3 -0.184-0.013-0.224-0.0572-0.46153-0.42793-0.82103-0.891-0.864-0.07229-0.0090995-0.14518-0.012443-0.218-0.01h-61.877" fill="url(#n-0-3)"/>
			<path transform="translate(0 .002)" d="m1 0c-0.55353-0.0011137-1.0022 0.44848-1 1.002v61.913c0 0.013 0.039 0.165 0.105 0.432 0.112 0.168 0.303 0.148 0.52-0.092v-60.882c0.029-0.081 0.053-0.123 0.074-0.123 0.116-0.159 0.222-0.321 0.507-0.44 0.21532-0.11731 0.45583-0.18078 0.701-0.185 19.486 2e-3 38.916 0 60.08 0 0.357 0 0.687 0.12 0.925 0.302 0.13107 0.071535 0.23401 0.1854 0.292 0.323 0.043 0 0.089 0.098 0.171 0.284v60.626c0.275 0.302 0.507 0.29 0.591 0.046 0.022-0.125 0.034-0.236 0.034-0.33v-61.791c0-0.104-5e-3 -0.18-0.016-0.224-0.063414-0.4609-0.4392-0.81546-0.903-0.852-0.07238-0.0079052-0.14524-0.010579-0.218-8e-3h-61.863" fill="url(#o-6)"/>
			<path transform="translate(0 .002)" d="m1 0c-0.55353-0.0011137-1.0022 0.44848-1 1.002v61.928c0 0.045 0.042 0.203 0.115 0.453 0.123 0.184 0.333 0.197 0.572-3e-3v-60.87c0.024-0.089 0.045-0.135 0.062-0.135 0.097-0.174 0.207-0.353 0.478-0.484 0.204-0.122 0.448-0.203 0.696-0.203 19.519 2e-3 38.863 0 60.067 0 0.33455-0.0021 0.65879 0.11568 0.914 0.332 0.15 0.103 0.224 0.225 0.267 0.355 0.035 0 0.073 0.108 0.142 0.313v60.612c0.302 0.251 0.557 0.196 0.65-0.074 0.02307-0.10853 0.03547-0.21906 0.037-0.33v-61.825c0-0.1-6e-3 -0.175-0.017-0.224-0.069565-0.46031-0.45044-0.80996-0.915-0.84-0.072444-0.0069646-0.14526-0.0093027-0.218-7e-3h-61.85" fill="url(#p-2)"/>
			<path transform="translate(0 .002)" d="m1 0c-0.55353-0.0011137-1.0022 0.44848-1 1.002v61.942c0 0.077 0.046 0.242 0.126 0.473 0.134 0.201 0.363 0.246 0.624 0.086v-60.856c0.02-0.097 0.035-0.147 0.05-0.147 0.079731-0.22481 0.23864-0.41288 0.447-0.529 0.2-0.133 0.444-0.221 0.691-0.221 19.553 2e-3 38.811 0 60.053 0 0.36 0 0.686 0.144 0.903 0.362 0.12254 0.097958 0.20793 0.23486 0.242 0.388 0.028 0 0.059 0.118 0.114 0.341v60.598c0.33 0.2 0.608 0.1 0.709-0.194 0.026-0.117 0.04-0.228 0.04-0.329v-61.86c0-0.095-6e-3 -0.17-0.018-0.224-0.076427-0.45917-0.46212-0.80326-0.927-0.827-0.072523-0.0056002-0.1453-0.0072693-0.218-5e-3h-61.836" fill="url(#q-6-6)"/>
			<path transform="translate(0 .002)" d="m1 0c-0.55314-0.001111-1.0017 0.44787-1 1.001v61.956c0 0.11 0.05 0.281 0.136 0.494 0.146 0.218 0.394 0.296 0.677 0.176v-60.843c0.014-0.105 0.026-0.16 0.036-0.16 0.062205-0.23684 0.21195-0.44126 0.419-0.572 0.196-0.144 0.439-0.24 0.686-0.24 19.586 2e-3 38.758 0 60.04 0 0.36 0 0.685 0.156 0.892 0.392 0.11655 0.1122 0.19253 0.25993 0.216 0.42 0.021 0 0.044 0.128 0.086 0.37v60.585c0.356 0.15 0.658 5e-3 0.768-0.314 0.029-0.114 0.044-0.224 0.044-0.328v-61.895c0-0.09-7e-3 -0.166-0.02-0.224-0.083295-0.45841-0.47439-0.79708-0.94-0.814-0.072228-0.0047776-0.14463-0.0064458-0.217-5e-3h-61.823" fill="url(#r-1)"/>
			<path transform="translate(0 .002)" d="m1 0c-0.55274-0.0011088-1.0011 0.44726-1 1v61.972c0 0.142 0.054 0.32 0.147 0.515 0.15624 0.24102 0.45338 0.34918 0.728 0.265v-60.83c0.01-0.114 0.018-0.172 0.025-0.172 0.044459-0.24844 0.184-0.46977 0.389-0.617 0.192-0.155 0.434-0.258 0.68-0.258 19.62 2e-3 38.705 0 60.027 0 0.362 0 0.686 0.168 0.882 0.422 0.10963 0.12712 0.17614 0.28571 0.19 0.453 0.015 0 0.03 0.137 0.057 0.398v60.572c0.385 0.1 0.71-0.09 0.828-0.434 0.03-0.11 0.047-0.22 0.047-0.328v-61.93c0-0.086-7e-3 -0.161-0.021-0.224-0.089858-0.45718-0.48521-0.79059-0.951-0.802-0.072962-0.0029106-0.146-0.0035776-0.219-2e-3h-61.809" fill="url(#s-8)"/>
			<path d="m0.99984 2e-3c-0.55274-0.0011088-1.0011 0.44726-1 1v61.986c0 0.174 0.058 0.358 0.157 0.535 0.16968 0.25897 0.47327 0.39714 0.78 0.355v-60.816c5e-3 -0.122 0.01-0.185 0.013-0.185 0.028233-0.25888 0.15763-0.49611 0.36-0.66 0.187-0.166 0.429-0.277 0.675-0.277 19.653 2e-3 38.652 0 60.013 0 0.363 0 0.685 0.18 0.87 0.452 0.10246 0.1415 0.16026 0.3104 0.166 0.485 7e-3 0 0.015 0.147 0.028 0.427v60.558c0.412 0.05 0.76-0.186 0.887-0.553 0.03316-0.10618 0.05001-0.21677 0.05-0.328v-61.965c0.01002-0.55281-0.43213-1.008-0.985-1.014-0.07299-0.0011985-0.146-0.0011985-0.219 0h-61.795" fill="url(#t-7)"/>
			<path d="m1 0.0019531c-0.55274-0.0011088-1.0011 0.44726-1 1v1h64v-0.998c0.0011-0.55274-0.44726-1.0011-1-1h-62z" fill="url(#radialGradient869)"/>
		</g>
		<path d="m0 1v2.5l2-2z" fill="#fffeff" fill-opacity=".4499"/>
		<path d="m64 3.5-2-2 2-0.5z" fill="#fffeff" fill-opacity=".4499"/>
	</g>
	<g transform="translate(0,-2)">
		<path d="m17.508 22.585c-2.4977 0-4.5085 2.0108-4.5085 4.5085v21.898c0 2.4977 2.0108 4.5085 4.5085 4.5085h21.898c2.4977 0 4.5085-2.0108 4.5085-4.5085v-21.898c0-2.4977-2.0108-4.5085-4.5085-4.5085zm6.4407 7.0847h9.0169c2.1409 0 3.8644 1.7235 3.8644 3.8644v9.0169c0 2.1409-1.7235 3.8644-3.8644 3.8644h-8.3729c-2.1409 0-4.5085-3.0117-4.5085-5.1525v-7.7288c0-2.1409 1.7235-3.8644 3.8644-3.8644z" color="#000000" enable-background="new" fill="#fdbc3f"/>
		<path d="m24.594 15.5c-2.4977 0-4.5 2.0023-4.5 4.5v2.5938h19.313c0.1338 0 0.27131 0.01339 0.40625 0.03125 0.07387 0.0067 0.14597 0.02109 0.21875 0.03125 0.06244 0.01246 0.12516 0.01532 0.1875 0.03125 1.8376 0.3351 3.2587 1.7562 3.5938 3.5938 0.03446 0.13481 0.04464 0.27131 0.0625 0.40625 0.01229 0.13627 0.03125 0.26667 0.03125 0.40625v8.375c0 2.1409-1.7029 3.875-3.8438 3.875h-9.0312c-2.1409 0-3.875-1.7341-3.875-3.875v-5.8125h-3.2188c-2.1409 0-3.8438 1.7341-3.8438 3.875v8.375c0 2.4977 2.0023 4.5 4.5 4.5h21.906c2.4977 0 4.5-2.0023 4.5-4.5v-21.906c0-2.4977-2.0023-4.5-4.5-4.5z" color="#000000" fill="#53d0ef" fill-rule="evenodd" stroke-width=".00048628"/>
		<path d="m17.508 23.085c-2.4977 0-4.5085 2.0108-4.5085 4.5085v21.898c0 2.4977 2.0108 4.5085 4.5085 4.5085h21.898c2.4977 0 4.5085-2.0108 4.5085-4.5085v-21.898c0-2.4977-2.0108-4.5085-4.5085-4.5085zm6.4407 7.0847h9.0169c2.1409 0 3.8644 1.7235 3.8644 3.8644v9.0169c0 2.1409-1.7235 3.8644-3.8644 3.8644h-8.3729c-2.1409 0-4.5085-3.0117-4.5085-5.1525v-7.7288c0-2.1409 1.7235-3.8644 3.8644-3.8644z" color="#000000" enable-background="new" fill="#d46944"/>
		<path d="m24.594 16c-2.4977 0-4.5 2.0023-4.5 4.5v2.5938h19.313c0.1338 0 0.27131 0.01339 0.40625 0.03125 0.07387 0.0067 0.14597 0.02109 0.21875 0.03125 0.06244 0.01246 0.12516 0.01532 0.1875 0.03125 1.8376 0.3351 3.2587 1.7562 3.5938 3.5938 0.03446 0.13481 0.04464 0.27131 0.0625 0.40625 0.01229 0.13627 0.03125 0.26667 0.03125 0.40625v8.375c0 2.1409-1.7029 3.875-3.8438 3.875h-9.0312c-2.1409 0-3.875-1.7341-3.875-3.875v-5.8125h-3.2188c-2.1409 0-3.8438 1.7341-3.8438 3.875v8.375c0 2.4977 2.0023 4.5 4.5 4.5h21.906c2.4977 0 4.5-2.0023 4.5-4.5v-21.906c0-2.4977-2.0023-4.5-4.5-4.5z" color="#000000" fill="#2c70b4" fill-rule="evenodd" stroke-width=".00048628"/>
	</g>
</svg>
