<?xml version="1.0" encoding="UTF-8"?>
<!-- Created with Inkscape (http://www.inkscape.org/) -->
<svg width="64" height="64" version="1.1" xmlns="http://www.w3.org/2000/svg" xmlns:cc="http://creativecommons.org/ns#" xmlns:dc="http://purl.org/dc/elements/1.1/" xmlns:rdf="http://www.w3.org/1999/02/22-rdf-syntax-ns#" xmlns:xlink="http://www.w3.org/1999/xlink">
	<defs>
		<radialGradient id="radialGradient2160630" cx="31.744" cy="35.593" r="32" gradientTransform="matrix(-1.1553,0,0,1.1553,68.931,-5.529)" gradientUnits="userSpaceOnUse">
			<stop stop-color="#cb2d4a" offset="0"/>
			<stop stop-color="#e0313c" offset="1"/>
		</radialGradient>
		<radialGradient id="radialGradient2160632-3-9" cx="35.574" cy="1.019" r="32" gradientTransform="matrix(0,1.1252,-5.1753,0,37.271,-39.029)" gradientUnits="userSpaceOnUse" xlink:href="#a-6-5"/>
		<linearGradient id="a-6-5">
			<stop stop-color="#ff87a0" stop-opacity=".2" offset="0"/>
			<stop stop-color="#ff8bbe" stop-opacity=".039216" offset="1"/>
		</linearGradient>
		<radialGradient id="radialGradient2160634-3-9" cx="35.574" cy="1.036" r="32" gradientTransform="matrix(0,1.1252,-5.1753,0,37.363,-39.029)" gradientUnits="userSpaceOnUse" xlink:href="#a-6-5"/>
		<radialGradient id="radialGradient2160636-5-4" cx="35.574" cy="1.055" r="32" gradientTransform="matrix(0,1.1252,-5.1753,0,37.458,-39.029)" gradientUnits="userSpaceOnUse" xlink:href="#a-6-5"/>
		<radialGradient id="radialGradient2160638-6-7" cx="35.574" cy="1.071" r="32" gradientTransform="matrix(0,1.1252,-5.1753,0,37.544,-39.029)" gradientUnits="userSpaceOnUse" xlink:href="#a-6-5"/>
		<radialGradient id="radialGradient2160640-2-8" cx="35.574" cy="1.091" r="32" gradientTransform="matrix(0,1.1252,-5.1753,0,37.648,-39.029)" gradientUnits="userSpaceOnUse" xlink:href="#a-6-5"/>
		<radialGradient id="radialGradient2160642-9-4" cx="35.574" cy="1.113" r="32" gradientTransform="matrix(0,1.1252,-5.1753,0,37.758,-39.029)" gradientUnits="userSpaceOnUse" xlink:href="#a-6-5"/>
		<radialGradient id="radialGradient2160644-1-5" cx="35.574" cy="1.135" r="32" gradientTransform="matrix(0,1.1252,-5.1753,0,37.875,-39.029)" gradientUnits="userSpaceOnUse" xlink:href="#a-6-5"/>
		<radialGradient id="radialGradient2160646-2-0" cx="35.574" cy="1.159" r="32" gradientTransform="matrix(0,1.1252,-5.1753,0,38,-39.029)" gradientUnits="userSpaceOnUse" xlink:href="#a-6-5"/>
		<radialGradient id="radialGradient2160648-7-3" cx="35.574" cy="1.18" r="32" gradientTransform="matrix(0,1.1252,-5.1753,0,38.107,-39.029)" gradientUnits="userSpaceOnUse" xlink:href="#a-6-5"/>
		<radialGradient id="radialGradient2160650-0-6" cx="35.574" cy="1.208" r="32" gradientTransform="matrix(0,1.1252,-5.1753,0,38.252,-39.029)" gradientUnits="userSpaceOnUse" xlink:href="#a-6-5"/>
		<radialGradient id="radialGradient2160652-9-1" cx="35.574" cy="1.239" r="32" gradientTransform="matrix(0,1.1252,-5.1753,0,38.411,-39.029)" gradientUnits="userSpaceOnUse" xlink:href="#a-6-5"/>
		<radialGradient id="radialGradient2160654-3-0" cx="35.574" cy="1.273" r="32" gradientTransform="matrix(0,1.1252,-5.1753,0,38.587,-39.029)" gradientUnits="userSpaceOnUse" xlink:href="#a-6-5"/>
		<radialGradient id="radialGradient2160656-6-6" cx="35.574" cy="1.304" r="32" gradientTransform="matrix(0,1.1252,-5.1753,0,38.75,-39.029)" gradientUnits="userSpaceOnUse" xlink:href="#a-6-5"/>
		<radialGradient id="radialGradient2160658-0-3" cx="35.574" cy="1.346" r="32" gradientTransform="matrix(0,1.1252,-5.1753,0,38.966,-39.029)" gradientUnits="userSpaceOnUse" xlink:href="#a-6-5"/>
		<radialGradient id="radialGradient2160660-6-2" cx="35.574" cy="1.393" r="32" gradientTransform="matrix(0,1.1252,-5.1753,0,39.208,-39.029)" gradientUnits="userSpaceOnUse" xlink:href="#a-6-5"/>
		<radialGradient id="radialGradient2160662-2-0" cx="35.574" cy="1.439" r="32" gradientTransform="matrix(0,1.1252,-5.1753,0,39.446,-39.029)" gradientUnits="userSpaceOnUse" xlink:href="#a-6-5"/>
		<radialGradient id="radialGradient2160664-6-6" cx="5.9927" cy="1.4073" r="32" gradientTransform="matrix(0 .012817 -1.2755 0 33.91 1.4205)" gradientUnits="userSpaceOnUse" xlink:href="#a-6-5">
			<stop stop-color="#ffd2e9" stop-opacity=".3231" offset="0"/>
			<stop stop-color="#ffc0b2" stop-opacity="0" offset="1"/>
		</radialGradient>
	</defs>
	<metadata>
		<rdf:RDF>
			<cc:Work rdf:about="">
				<dc:format>image/svg+xml</dc:format>
				<dc:type rdf:resource="http://purl.org/dc/dcmitype/StillImage"/>
			</cc:Work>
		</rdf:RDF>
	</metadata>
	<g transform="translate(3.2081e-5)">
		<path d="m1 0c-0.554 0-1 0.446-1 1v62c0 0.554 0.446 1 1 1h62c0.554 0 1-0.446 1-1v-62c0-0.554-0.446-1-1-1z" fill="url(#radialGradient2160630)"/>
		<g transform="translate(0 .001503)">
			<path d="m1 0c-0.554 0-1 0.446-1 1v62-0.224 0.224-62h1.752c19.15 2e-3 39.445 0 60.213 0h2.035v62-0.334 0.334-62c0.0011-0.55274-0.44726-1.0011-1-1z" fill="url(#radialGradient2160632-3-9)"/>
			<path d="m1 0c-0.5551-0.0011303-1.0045 0.45091-1 1.006v61.98-0.197c0-0.277 4e-3 -0.184 0.01 0.246 0.012 0.016 0.03-0.297 0.052-0.897v-61c0.072-9e-3 0.133-0.013 0.185-0.013 0.29-0.016 0.357-0.032 0.774-0.044 0.246-0.011 0.496-0.019 0.747-0.019 19.183 2e-3 39.392 0 60.2 0 0.346 0 0.689 0.012 1.023 0.03 0.268 0.01 0.389 0.02 0.52 0.033 0.106 0 0.22 0.01 0.427 0.028v60.744c0.027 0.754 0.05 1.148 0.059 1.123l3e-3 -0.334v0.286-61.762c0-0.143 0-0.22-2e-3 -0.224-0.005475-0.55246-0.45958-0.9949-1.012-0.986h-61.986" fill="url(#radialGradient2160634-3-9)"/>
			<path d="m1 0c-0.5551-0.0011303-1.0045 0.45091-1 1.006v61.966-0.169c0-0.245 8e-3 -0.145 0.021 0.266 0.022 0.034 0.06-0.247 0.104-0.807v-60.988c0.056484-0.015102 0.11455-0.023493 0.173-0.025 0.27-0.031 0.341-0.064 0.743-0.088 0.242-0.022 0.492-0.037 0.742-0.037 19.217 2e-3 39.34 0 60.187 0 0.347 0 0.69 0.024 1.013 0.06 0.256 0.02 0.372 0.042 0.494 0.065 0.1 0 0.206 0.02 0.398 0.057v60.731c0.055 0.703 0.102 1.052 0.119 1.003 4e-3 -0.154 6e-3 -0.265 6e-3 -0.333v0.237-61.748c0-0.139 0-0.215-3e-3 -0.224-0.011441-0.46771-0.34748-0.86412-0.807-0.952-0.071417-0.014359-0.14416-0.021063-0.217-0.02h-61.973" fill="url(#radialGradient2160636-5-4)"/>
			<path d="m1 0c-0.55471-0.0011253-1.0039 0.45031-1 1.005v61.953-0.14c0-0.213 0.012-0.107 0.031 0.287 0.034 0.05 0.091-0.198 0.156-0.718v-60.974c0.050612-0.022043 0.10485-0.034585 0.16-0.037 0.252-0.048 0.327-0.097 0.715-0.132 0.238-0.034 0.487-0.056 0.737-0.056 19.25 2e-3 39.286 0 60.173 0 0.348 0 0.688 0.036 1.001 0.09 0.244 0.029 0.356 0.062 0.47 0.098 0.091 0 0.19 0.03 0.37 0.085v60.718c0.082 0.653 0.151 0.957 0.176 0.884 7e-3 -0.152 0.01-0.262 0.01-0.333v0.188-61.734c0-0.135 0-0.21-4e-3 -0.224-0.017399-0.46717-0.35861-0.85879-0.819-0.94-0.071505-0.013569-0.14424-0.019602-0.217-0.018h-61.96" fill="url(#radialGradient2160638-6-7)"/>
			<path d="m1 0c-0.55471-0.0011253-1.0039 0.45031-1 1.005v61.939-0.113c0-0.18 0.015-0.068 0.042 0.308 0.045 0.067 0.121-0.149 0.208-0.629v-60.96c0.044295-0.028947 0.095225-0.046153 0.148-0.05 0.232-0.063 0.311-0.128 0.684-0.176 0.234-0.044 0.483-0.074 0.732-0.074 19.284 2e-3 39.234 0 60.16 0 0.35 0 0.689 0.048 0.991 0.12 0.232 0.039 0.34 0.083 0.444 0.13 0.085 0 0.176 0.04 0.341 0.114v60.704c0.11 0.603 0.203 0.862 0.236 0.764 0.01-0.148 0.014-0.259 0.014-0.333v0.14-61.721c0-0.13-2e-3 -0.206-6e-3 -0.224-0.024028-0.46583-0.36965-0.85184-0.83-0.927-0.072548-0.013262-0.14628-0.018959-0.22-0.017h-61.944" fill="url(#radialGradient2160640-2-8)"/>
			<path d="m1 0c-0.55431-0.0011209-1.0033 0.4497-1 1.004v61.926-0.084c0-0.148 0.02-0.029 0.052 0.328 0.056 0.084 0.152-0.099 0.26-0.539v-60.949c0.053-0.04 0.097-0.061 0.136-0.061 0.212-0.08 0.297-0.16 0.655-0.22 0.23-0.056 0.477-0.093 0.727-0.093 19.317 2e-3 39.18 0 60.147 0 0.35 0 0.688 0.06 0.98 0.151 0.22 0.047 0.322 0.102 0.418 0.162 0.078 0 0.162 0.049 0.313 0.142v60.69c0.137 0.553 0.253 0.767 0.295 0.645 0.0096-0.11043 0.01523-0.22117 0.017-0.332v0.09-61.705c0-0.126-2e-3 -0.202-7e-3 -0.224-0.03077-0.46514-0.38186-0.8458-0.843-0.914-0.071921-0.0129-0.14495-0.018594-0.218-0.017h-61.932" fill="url(#radialGradient2160642-9-4)"/>
			<path d="m1 0c-0.55431-0.0011209-1.0033 0.4497-1 1.004v61.912-0.056c0-0.117 0.023 0.01 0.063 0.349 0.067 0.1 0.182-0.05 0.312-0.45v-60.935c0.048-0.049 0.088-0.074 0.123-0.074 0.193-0.095 0.282-0.192 0.626-0.264 0.225-0.067 0.472-0.11 0.721-0.11h60.133c0.352 0 0.688 0.071 0.97 0.18 0.1444 0.03294 0.27903 0.099398 0.393 0.194 0.07 0 0.147 0.059 0.284 0.17v60.68c0.164 0.502 0.304 0.671 0.354 0.524 0.014-0.14 0.02-0.25 0.02-0.331v0.042-61.695c0-0.121-2e-3 -0.197-9e-3 -0.224-0.037172-0.46407-0.39266-0.83953-0.854-0.902-0.072052-0.011622-0.14505-0.01631-0.218-0.014h-61.918" fill="url(#radialGradient2160644-1-5)"/>
			<path d="m1 0c-0.55431-0.0011209-1.0033 0.4497-1 1.004v61.898-0.029c0-0.084 0.027 0.049 0.073 0.37 0.079 0.117 0.212 0 0.365-0.36v-60.923c0.043-0.057 0.079-0.086 0.11-0.086 0.174-0.112 0.267-0.225 0.596-0.309 0.23012-0.082729 0.47247-0.12633 0.717-0.129 19.385 2e-3 39.075 0 60.12 0 0.353 0 0.687 0.084 0.958 0.211 0.196 0.066 0.29 0.144 0.368 0.227 0.063 0 0.132 0.068 0.256 0.199v60.665c0.192 0.452 0.354 0.576 0.413 0.404 0.01385-0.1095 0.02186-0.21965 0.024-0.33v-61.687c0-0.117-4e-3 -0.193-0.01-0.224-0.043775-0.464-0.40524-0.83463-0.868-0.89-0.071851-0.010232-0.14448-0.013914-0.217-0.011h-61.905" fill="url(#radialGradient2160646-2-0)"/>
			<path d="m1 0c-0.55392-0.001117-1.0028 0.44909-1 1.003v61.885c0-0.052 0.03 0.087 0.084 0.39 0.09 0.135 0.242 0.05 0.416-0.27v-60.911c0.038-0.063 0.07-0.097 0.099-0.097 0.154-0.127 0.251-0.257 0.566-0.352 0.217-0.089 0.463-0.148 0.711-0.148 19.418 2e-3 39.022 0 60.107 0 0.355 0 0.687 0.096 0.947 0.242 0.13781 0.049299 0.25742 0.13926 0.343 0.258 0.056 0 0.118 0.079 0.227 0.227v60.651c0.22 0.402 0.406 0.482 0.473 0.285 0.018-0.132 0.027-0.243 0.027-0.33v-61.721c0-0.113-4e-3 -0.188-0.012-0.224-0.050481-0.46258-0.4163-0.82757-0.879-0.877-0.072218-0.0099014-0.14515-0.013582-0.218-0.011h-61.89" fill="url(#radialGradient2160648-7-3)"/>
			<path d="m1 0c-0.55392-0.001117-1.0028 0.44909-1 1.003v61.899c0-0.02 0.035 0.126 0.094 0.41 0.101 0.152 0.273 0.1 0.468-0.18v-60.897c0.034-0.073 0.062-0.11 0.087-0.11 0.135-0.143 0.236-0.29 0.536-0.397 0.213-0.1 0.459-0.166 0.707-0.166 19.452 2e-3 38.969 0 60.093 0 0.356 0 0.687 0.108 0.936 0.272 0.13431 0.059746 0.24556 0.16152 0.317 0.29 0.05 0 0.103 0.089 0.2 0.256v60.64c0.246 0.352 0.455 0.386 0.531 0.165 0.02-0.128 0.03-0.239 0.03-0.33v-61.755c0-0.108-4e-3 -0.184-0.013-0.224-0.0572-0.46153-0.42793-0.82103-0.891-0.864-0.07229-0.0090995-0.14518-0.012443-0.218-0.01h-61.877" fill="url(#radialGradient2160650-0-6)"/>
			<path d="m1 0c-0.55353-0.0011137-1.0022 0.44848-1 1.002v61.913c0 0.013 0.039 0.165 0.105 0.432 0.112 0.168 0.303 0.148 0.52-0.092v-60.882c0.029-0.081 0.053-0.123 0.074-0.123 0.116-0.159 0.222-0.321 0.507-0.44 0.209-0.111 0.454-0.185 0.701-0.185 19.486 2e-3 38.916 0 60.08 0 0.357 0 0.687 0.12 0.925 0.302 0.13107 0.071535 0.23401 0.1854 0.292 0.323 0.043 0 0.089 0.098 0.171 0.284v60.626c0.275 0.302 0.507 0.29 0.591 0.046 0.022-0.125 0.034-0.236 0.034-0.33v-61.791c0-0.104-5e-3 -0.18-0.016-0.224-0.063414-0.4609-0.4392-0.81546-0.903-0.852-0.07238-0.0079052-0.14524-0.010579-0.218-8e-3h-61.863" fill="url(#radialGradient2160652-9-1)"/>
			<path d="m1 0c-0.55353-0.0011137-1.0022 0.44848-1 1.002v61.928c0 0.045 0.042 0.203 0.115 0.453 0.123 0.184 0.333 0.197 0.572-3e-3v-60.87c0.024-0.089 0.045-0.135 0.062-0.135 0.097-0.174 0.207-0.353 0.478-0.484 0.204-0.122 0.448-0.203 0.696-0.203 19.519 2e-3 38.863 0 60.067 0 0.33455-0.0021 0.65879 0.11568 0.914 0.332 0.15 0.103 0.224 0.225 0.267 0.355 0.035 0 0.073 0.108 0.142 0.313v60.612c0.302 0.251 0.557 0.196 0.65-0.074 0.02307-0.10853 0.03547-0.21906 0.037-0.33v-61.825c0-0.1-6e-3 -0.175-0.017-0.224-0.069565-0.46031-0.45044-0.80996-0.915-0.84-0.072444-0.0069646-0.14526-0.0093027-0.218-7e-3h-61.85" fill="url(#radialGradient2160654-3-0)"/>
			<path d="m1 0c-0.55353-0.0011137-1.0022 0.44848-1 1.002v61.942c0 0.077 0.046 0.242 0.126 0.473 0.134 0.201 0.363 0.246 0.624 0.086v-60.856c0.02-0.097 0.035-0.147 0.05-0.147 0.079731-0.22481 0.23864-0.41288 0.447-0.529 0.2-0.133 0.444-0.221 0.691-0.221 19.553 2e-3 38.811 0 60.053 0 0.36 0 0.686 0.144 0.903 0.362 0.12254 0.097958 0.20793 0.23486 0.242 0.388 0.028 0 0.059 0.118 0.114 0.341v60.598c0.33 0.2 0.608 0.1 0.709-0.194 0.026-0.117 0.04-0.228 0.04-0.329v-61.86c0-0.095-6e-3 -0.17-0.018-0.224-0.076427-0.45917-0.46212-0.80326-0.927-0.827-0.072523-0.0056002-0.1453-0.0072693-0.218-5e-3h-61.836" fill="url(#radialGradient2160656-6-6)"/>
			<path d="m1 0c-0.55314-0.001111-1.0017 0.44787-1 1.001v61.956c0 0.11 0.05 0.281 0.136 0.494 0.146 0.218 0.394 0.296 0.677 0.176v-60.843c0.014-0.105 0.026-0.16 0.036-0.16 0.062205-0.23684 0.21195-0.44126 0.419-0.572 0.196-0.144 0.439-0.24 0.686-0.24 19.586 2e-3 38.758 0 60.04 0 0.36 0 0.685 0.156 0.892 0.392 0.11655 0.1122 0.19253 0.25993 0.216 0.42 0.021 0 0.044 0.128 0.086 0.37v60.585c0.356 0.15 0.658 5e-3 0.768-0.314 0.029-0.114 0.044-0.224 0.044-0.328v-61.895c0-0.09-7e-3 -0.166-0.02-0.224-0.083295-0.45841-0.47439-0.79708-0.94-0.814-0.072228-0.0047776-0.14463-0.0064458-0.217-5e-3h-61.823" fill="url(#radialGradient2160658-0-3)"/>
			<path d="m1 0c-0.55274-0.0011088-1.0011 0.44726-1 1v61.972c0 0.142 0.054 0.32 0.147 0.515 0.15624 0.24102 0.45338 0.34918 0.728 0.265v-60.83c0.01-0.114 0.018-0.172 0.025-0.172 0.044459-0.24844 0.184-0.46977 0.389-0.617 0.192-0.155 0.434-0.258 0.68-0.258 19.62 2e-3 38.705 0 60.027 0 0.362 0 0.686 0.168 0.882 0.422 0.10963 0.12712 0.17614 0.28571 0.19 0.453 0.015 0 0.03 0.137 0.057 0.398v60.572c0.385 0.1 0.71-0.09 0.828-0.434 0.03-0.11 0.047-0.22 0.047-0.328v-61.93c0-0.086-7e-3 -0.161-0.021-0.224-0.089858-0.45718-0.48521-0.79059-0.951-0.802-0.072962-0.0029106-0.146-0.0035776-0.219-2e-3h-61.809" fill="url(#radialGradient2160660-6-2)"/>
			<path d="m1 0c-0.55274-0.0011088-1.0011 0.44726-1 1v61.986c0 0.174 0.058 0.358 0.157 0.535 0.16968 0.25897 0.47327 0.39714 0.78 0.355v-60.816c5e-3 -0.122 0.01-0.185 0.013-0.185 0.028233-0.25888 0.15763-0.49611 0.36-0.66 0.187-0.166 0.429-0.277 0.675-0.277 19.653 2e-3 38.652 0 60.013 0 0.363 0 0.685 0.18 0.87 0.452 0.10246 0.1415 0.16026 0.3104 0.166 0.485 7e-3 0 0.015 0.147 0.028 0.427v60.558c0.412 0.05 0.76-0.186 0.887-0.553 0.03316-0.10618 0.05001-0.21677 0.05-0.328v-61.965c0.010025-0.55281-0.43213-1.008-0.985-1.014-0.073-0.0011985-0.146-0.0011985-0.219 0h-61.795" fill="url(#radialGradient2160662-2-0)"/>
			<path d="m1 0c-0.55274-0.0011088-1.0011 0.44726-1 1v1h64v-0.998c0.0011-0.55274-0.44726-1.0011-1-1h-62z" fill="url(#radialGradient2160664-6-6)"/>
			<path d="m-3.2081e-5 0.9985v2.5l2-2z" fill="#ffbbe5" fill-opacity=".70005"/>
			<path d="m64 3.4985-2-2 2-0.5z" fill="#ffbbe5" fill-opacity=".70005"/>
		</g>
	</g>
	<g transform="translate(0 -.75)" fill="#550000" fill-opacity=".07" opacity=".28725" stop-color="#000000" style="-inkscape-stroke:none;font-variation-settings:normal">
		<path d="m14.592 58.295c0.3369-0.0641 2.3141-0.4217 4.3937-0.7946l7e-4 -1e-4c2.0794-0.3729 3.9597-0.7529 4.1788-0.8444l7e-4 -3e-4c0.5013-0.2096 0.5663-0.3903 0.7234-2.0051 0.2138-2.1969 0.659-3.2713 1.7804-4.2962 1.1404-1.0422 2.5583-1.5087 4.5965-1.5124 3.2702-6e-3 6.322 1.2616 8.3963 3.4871l4e-4 4e-4c0.9378 1.0063 1.5898 2.1307 2.1785 3.7571l2e-4 5e-4c0.5084 1.4042 0.7979 1.756 1.445 1.756h6e-4c0.4077-0.0016 9.5223-1.5779 10.715-1.8533l6e-4 -1e-4c0.4195-0.0969 0.6829-0.2336 0.83-0.4305l3e-4 -4e-4c0.2069-0.2772 0.2078-0.3211 0.0264-1.134l-2e-4 -7e-4c-0.2101-0.9406-0.86-2.4256-1.4138-3.2306l-4e-4 -6e-4c-0.5783-0.8402-1.6686-1.9459-2.6432-2.6803l-5e-4 -3e-4c-1.3845-1.0432-2.8659-1.8681-5.6164-3.1274l-6e-4 -3e-4c-2.8233-1.2927-3.225-1.5325-3.225-1.9251v-6e-4c4e-4 -0.4339 0.4496-0.671 2.2358-1.1804l6e-4 -1e-4c3.4748-0.991 4.9491-2.042 5.6144-4.0025l4e-4 -1e-3c0.2162-0.6373 0.2404-0.9007 0.1926-2.0932v-6e-4c-0.0658-1.6412-0.2582-2.2252-0.821-2.4922l-7e-4 -4e-4c-0.5205-0.2467-1.1236-0.2253-3.0263 0.107l-7e-4 1e-4c-0.9008 0.1573-2.8362 0.4934-4.3014 0.747l-5e-4 1e-4c-2.7443 0.4748-3.2373 0.6228-3.3595 1.008l-3e-4 7e-4c-0.0384 0.1253 0.0858 0.8068 0.2765 1.5166l1e-4 5e-4c0.4002 1.4894 0.4218 1.8945 0.1352 2.5254l-2e-4 5e-4c-0.5669 1.247-2.3637 1.9884-4.819 1.9884h-1e-3c-1.2853-1e-4 -2.1243-0.1998-3.3252-0.7916l-8e-4 -4e-4c-2.1684-1.0687-3.6972-2.9638-4.7031-5.8298l-3e-4 -9e-4c-0.4372-1.2455-0.6403-1.6396-0.923-1.7909l-7e-4 -4e-4c-0.2633-0.1408-0.3222-0.1322-5.6292 0.8016l-6e-4 1e-4c-5.7864 1.0181-6.0051 1.0743-6.3735 1.6365l-4e-4 7e-4c-0.1629 0.2488-0.1619 0.3414 0.0109 1.0487l2e-4 8e-4c0.5272 2.1571 1.8698 3.9253 4.146 5.4606l7e-4 4e-4c0.9197 0.6201 2.6307 1.4149 4.9554 2.302l9e-4 4e-4c2.526 0.9638 3.291 1.3567 3.4891 1.7915l4e-4 8e-4c0.1212 0.2664 0.0962 0.322-0.2957 0.6607l-4e-4 4e-4c-0.261 0.2253-1.1497 0.6681-2.2707 1.1315l-8e-4 3e-4c-3.9871 1.6481-5.8044 2.6851-7.253 4.139l-5e-4 6e-4c-1.4642 1.4697-2.0366 2.8062-2.0366 4.755v6e-4c1e-4 1.5038 0.2171 1.6797 1.7185 1.3941z" color="#000000" opacity=".59169" stop-color="#000000" style="-inkscape-stroke:none;font-variation-settings:normal"/>
		<path d="m14.592 54.417c0.3369-0.0641 2.3141-0.4217 4.3937-0.7946l5e-4 -1e-4c2.0794-0.3729 3.9599-0.7529 4.179-0.8444l5e-4 -2e-4c0.5014-0.2096 0.5665-0.3901 0.7236-2.0052 0.2138-2.197 0.659-3.2713 1.7804-4.2962 1.1404-1.0422 2.5583-1.5088 4.5965-1.5124 3.2702-6e-3 6.322 1.2615 8.3963 3.4871l3e-4 2e-4c0.9378 1.0064 1.5899 2.1308 2.1786 3.7573l2e-4 3e-4c0.5084 1.4044 0.7978 1.7562 1.445 1.7562h4e-4c0.405-0.0011 9.5223-1.5779 10.715-1.8533l4e-4 -1e-4c0.4197-0.0969 0.6831-0.2335 0.8302-0.4305l2e-4 -3e-4c0.207-0.2773 0.2079-0.3211 0.0265-1.1341l-1e-4 -5e-4c-0.2101-0.9406-0.86-2.4258-1.4139-3.2308l-3e-4 -4e-4c-0.5782-0.8403-1.6686-1.9461-2.6433-2.6805l-4e-4 -2e-4c-1.3844-1.0432-2.8659-1.8682-5.6165-3.1276l-4e-4 -1e-4c-2.8235-1.2928-3.2252-1.5326-3.2252-1.9252v-4e-4c3e-4 -0.4341 0.4493-0.6711 2.2358-1.1806l4e-4 -1e-4c3.475-0.991 4.9493-2.042 5.6146-4.0025l3e-4 -7e-4c0.2163-0.6376 0.2405-0.9008 0.1927-2.0935v-4e-4c-0.0658-1.6414-0.2582-2.2254-0.821-2.4924l-5e-4 -3e-4c-0.5205-0.2468-1.1235-0.2255-3.0265 0.1069l-5e-4 1e-4c-0.9007 0.1573-2.8363 0.4934-4.3016 0.7469l-4e-4 1e-4c-2.7444 0.4749-3.2374 0.6228-3.3596 1.0081l-2e-4 5e-4c-0.0387 0.1246 0.0856 0.8066 0.2764 1.5168l1e-4 3e-4c0.4002 1.4896 0.4218 1.8947 0.1352 2.5256l-1e-4 3e-4c-0.5668 1.2471-2.3637 1.9886-4.8191 1.9886h-7e-4c-1.2854-1e-4 -2.1245-0.1998-3.3255-0.7916l-6e-4 -3e-4c-2.1685-1.0687-3.6974-2.9638-4.7033-5.8299l-2e-4 -6e-4c-0.4372-1.2458-0.6403-1.6399-0.9231-1.7912l-5e-4 -3e-4c-0.2634-0.1409-0.3207-0.1327-5.6294 0.8014l-4e-4 1e-4c-5.7866 1.0182-6.0053 1.0743-6.3737 1.6365l-3e-4 5e-4c-0.163 0.249-0.162 0.3414 0.0108 1.049l2e-4 5e-4c0.5271 2.1572 1.8697 3.9255 4.146 5.4608l5e-4 4e-4c0.9196 0.6201 2.6307 1.415 4.9556 2.3021l6e-4 2e-4c2.5262 0.964 3.2913 1.3568 3.4894 1.7917l3e-4 5e-4c0.1213 0.2666 0.0964 0.3222-0.2956 0.661l-3e-4 2e-4c-0.2609 0.2253-1.1496 0.6682-2.2708 1.1317l-5e-4 2e-4c-3.9874 1.6481-5.8047 2.6852-7.2533 4.1391l-4e-4 4e-4c-1.4643 1.4698-2.0367 2.8063-2.0367 4.7552v4e-4c0 1.504 0.217 1.6799 1.7185 1.3943z" color="#000000" opacity=".59169" stop-color="#000000" style="-inkscape-stroke:none;font-variation-settings:normal"/>
		<path d="m14.592 53.178c0.3369-0.064 2.3141-0.4216 4.3937-0.7945l4e-4 -1e-4c2.0795-0.3729 3.96-0.7529 4.1791-0.8444l4e-4 -2e-4c0.5015-0.2096 0.5666-0.3901 0.7237-2.0052 0.2138-2.197 0.659-3.2713 1.7804-4.2962 1.1404-1.0422 2.5583-1.5088 4.5965-1.5125 3.2702-6e-3 6.322 1.2616 8.3963 3.4872l2e-4 2e-4c0.9379 1.0063 1.59 2.1308 2.1787 3.7572l1e-4 3e-4c0.5085 1.4045 0.7979 1.7562 1.4451 1.7562h3e-4c0.4042-8e-4 9.5223-1.5778 10.715-1.8532l3e-4 -1e-4c0.4197-0.0969 0.6832-0.2336 0.8303-0.4305l1e-4 -3e-4c0.2071-0.2773 0.208-0.3211 0.0266-1.1341l-1e-4 -4e-4c-0.2101-0.9407-0.86-2.4259-1.4139-3.2309l-2e-4 -4e-4c-0.5782-0.8402-1.6687-1.9461-2.6434-2.6805l-3e-4 -2e-4c-1.3845-1.0432-2.866-1.8682-5.6166-3.1276l-3e-4 -1e-4c-2.8236-1.2928-3.2253-1.5326-3.2253-1.9252v-4e-4c2e-4 -0.4341 0.4492-0.6711 2.2358-1.1806l3e-4 -1e-4c3.4751-0.991 4.9494-2.042 5.6147-4.0026l2e-4 -5e-4c0.2164-0.6376 0.2406-0.9008 0.1928-2.0936v-4e-4c-0.0658-1.6414-0.2582-2.2254-0.821-2.4925l-4e-4 -2e-4c-0.5205-0.2468-1.1235-0.2255-3.0266 0.1069h-4e-4c-0.9007 0.1573-2.8363 0.4934-4.3017 0.747l-3e-4 1e-4c-2.7445 0.4749-3.2375 0.6228-3.3597 1.0081l-2e-4 4e-4c-0.0387 0.1244 0.0855 0.8065 0.2764 1.5169l1e-4 3e-4c0.4002 1.4895 0.4219 1.8946 0.1352 2.5256l-1e-4 2e-4c-0.5668 1.2472-2.3636 1.9887-4.8191 1.9887h-6e-4c-1.2855-1e-4 -2.1246-0.1998-3.3256-0.7916l-5e-4 -3e-4c-2.1686-1.0687-3.6975-2.9638-4.7034-5.8299l-1e-4 -5e-4c-0.4373-1.2459-0.6404-1.64-0.9232-1.7913l-4e-4 -3e-4c-0.2635-0.141-0.3203-0.1328-5.6295 0.8014l-3e-4 1e-4c-5.7867 1.0182-6.0054 1.0743-6.3738 1.6365l-2e-4 4e-4c-0.1631 0.2491-0.1621 0.3414 0.0107 1.049l1e-4 5e-4c0.5272 2.1572 1.8698 3.9256 4.1461 5.4609l4e-4 3e-4c0.9196 0.6201 2.6307 1.415 4.9557 2.3022l5e-4 2e-4c2.5263 0.9639 3.2914 1.3568 3.4895 1.7917l2e-4 4e-4c0.1215 0.2667 0.0965 0.3222-0.2955 0.6611l-2e-4 2e-4c-0.2609 0.2253-1.1496 0.6682-2.2709 1.1316l-4e-4 2e-4c-3.9874 1.6482-5.8048 2.6852-7.2534 4.1392l-3e-4 3e-4c-1.4644 1.4698-2.0368 2.8063-2.0368 4.7553v3e-4c0 1.504 0.217 1.68 1.7185 1.3943z" color="#000000" opacity=".59169" stop-color="#000000" style="-inkscape-stroke:none;font-variation-settings:normal"/>
		<path d="m14.592 52.277c0.3369-0.0641 2.3141-0.4217 4.3937-0.7946l4e-4 -1e-4c2.0794-0.3729 3.96-0.7529 4.1791-0.8444l3e-4 -2e-4c0.5016-0.2096 0.5666-0.39 0.7238-2.0052 0.2138-2.197 0.659-3.2713 1.7804-4.2962 1.1404-1.0422 2.5583-1.5088 4.5965-1.5125 3.2702-6e-3 6.322 1.2616 8.3963 3.4872l2e-4 1e-4c0.9379 1.0064 1.59 2.1309 2.1787 3.7573l1e-4 3e-4c0.5085 1.4045 0.7979 1.7562 1.4451 1.7562h3e-4c0.4035-7e-4 9.5223-1.5778 10.715-1.8532l3e-4 -1e-4c0.4197-0.0969 0.6832-0.2335 0.8303-0.4305l1e-4 -2e-4c0.2071-0.2774 0.2081-0.3212 0.0266-1.1342l-1e-4 -4e-4c-0.2101-0.9406-0.86-2.4259-1.4139-3.2309l-2e-4 -3e-4c-0.5782-0.8403-1.6687-1.9461-2.6434-2.6806l-3e-4 -2e-4c-1.3845-1.0432-2.8659-1.8681-5.6166-3.1276l-3e-4 -1e-4c-2.8236-1.2928-3.2253-1.5326-3.2253-1.9252v-3e-4c2e-4 -0.4342 0.4492-0.6712 2.2358-1.1807l3e-4 -1e-4c3.4751-0.991 4.9494-2.042 5.6147-4.0026l2e-4 -4e-4c0.2164-0.6377 0.2406-0.9009 0.1928-2.0937v-3e-4c-0.0658-1.6415-0.2582-2.2255-0.821-2.4925l-3e-4 -2e-4c-0.5206-0.2469-1.1235-0.2256-3.0267 0.1068h-4e-4c-0.9006 0.1573-2.8363 0.4935-4.3017 0.747l-3e-4 1e-4c-2.7445 0.4749-3.2375 0.6228-3.3597 1.0081l-1e-4 3e-4c-0.0389 0.1243 0.0854 0.8065 0.2763 1.517l1e-4 2e-4c0.4002 1.4896 0.4219 1.8947 0.1352 2.5257l-1e-4 2e-4c-0.5667 1.2472-2.3636 1.9887-4.8191 1.9887h-5e-4c-1.2856 0-2.1247-0.1998-3.3257-0.7916l-4e-4 -2e-4c-2.1686-1.0687-3.6975-2.9638-4.7035-5.83l-1e-4 -4e-4c-0.4373-1.246-0.6404-1.6401-0.9232-1.7914l-3e-4 -2e-4c-0.2636-0.141-0.32-0.1329-5.6296 0.8013l-3e-4 1e-4c-5.7867 1.0182-6.0054 1.0743-6.3738 1.6365l-2e-4 4e-4c-0.1631 0.2491-0.1621 0.3414 0.0107 1.0491l1e-4 3e-4c0.5271 2.1573 1.8697 3.9257 4.1461 5.461l4e-4 3e-4c0.9195 0.6201 2.6307 1.415 4.9557 2.3022l4e-4 1e-4c2.5264 0.964 3.2915 1.3569 3.4896 1.7918l2e-4 4e-4c0.1215 0.2667 0.0966 0.3222-0.2955 0.6611l-2e-4 2e-4c-0.2608 0.2252-1.1496 0.6682-2.2709 1.1317l-4e-4 1e-4c-3.9874 1.6482-5.8048 2.6852-7.2534 4.1392l-3e-4 3e-4c-1.4643 1.4698-2.0368 2.8063-2.0368 4.7553v3e-4c0 1.504 0.217 1.68 1.7185 1.3944z" color="#000000" opacity=".59169" stop-color="#000000" style="-inkscape-stroke:none;font-variation-settings:normal"/>
		<path d="m14.592 51.543c0.3369-0.064 2.3141-0.4216 4.3937-0.7945l3e-4 -1e-4c2.0795-0.3729 3.9601-0.7529 4.1792-0.8444l3e-4 -2e-4c0.5016-0.2096 0.5666-0.39 0.7238-2.0053 0.2138-2.1969 0.659-3.2712 1.7804-4.2961 1.1404-1.0422 2.5583-1.5088 4.5965-1.5125 3.2702-6e-3 6.322 1.2616 8.3963 3.4872l2e-4 1e-4c0.9379 1.0064 1.59 2.1308 2.1787 3.7573l1e-4 2e-4c0.5085 1.4045 0.7979 1.7563 1.4451 1.7563h2e-4c0.403-6e-4 9.5223-1.5778 10.715-1.8532l2e-4 -1e-4c0.4198-0.0969 0.6833-0.2335 0.8304-0.4305l1e-4 -2e-4c0.2071-0.2774 0.2081-0.3212 0.0266-1.1342l-1e-4 -3e-4c-0.21-0.9407-0.86-2.426-1.4139-3.231l-2e-4 -3e-4c-0.5781-0.8403-1.6687-1.9461-2.6434-2.6806l-2e-4 -2e-4c-1.3845-1.0432-2.866-1.8681-5.6167-3.1276l-3e-4 -1e-4c-2.8236-1.2928-3.2253-1.5326-3.2253-1.9252v-3e-4c2e-4 -0.4342 0.4491-0.6712 2.2358-1.1807l3e-4 -1e-4c3.475-0.991 4.9494-2.042 5.6147-4.0026l2e-4 -4e-4c0.2164-0.6377 0.2406-0.9009 0.1928-2.0937v-3e-4c-0.0658-1.6415-0.2582-2.2255-0.821-2.4926l-3e-4 -1e-4c-0.5206-0.2469-1.1235-0.2256-3.0267 0.1068h-3e-4c-0.9007 0.1573-2.8364 0.4934-4.3018 0.747l-2e-4 1e-4c-2.7446 0.4749-3.2376 0.6228-3.3598 1.0081l-1e-4 3e-4c-0.0389 0.1242 0.0854 0.8064 0.2763 1.517v2e-4c0.4003 1.4896 0.422 1.8947 0.1353 2.5257l-1e-4 2e-4c-0.5667 1.2472-2.3636 1.9887-4.8191 1.9887h-4e-4c-1.2856-1e-4 -2.1247-0.1998-3.3258-0.7916l-4e-4 -2e-4c-2.1686-1.0687-3.6975-2.9638-4.7035-5.83l-1e-4 -4e-4c-0.4373-1.246-0.6404-1.6401-0.9232-1.7914l-3e-4 -2e-4c-0.2636-0.1411-0.3196-0.133-5.6296 0.8013h-3e-4c-5.7867 1.0183-6.0054 1.0744-6.3738 1.6366l-2e-4 3e-4c-0.1631 0.2491-0.1622 0.3414 0.0107 1.0491l1e-4 4e-4c0.5271 2.1573 1.8697 3.9257 4.1461 5.461l3e-4 2e-4c0.9196 0.6201 2.6307 1.4151 4.9558 2.3023l4e-4 1e-4c2.5264 0.964 3.2915 1.3569 3.4896 1.7918l2e-4 3e-4c0.1215 0.2667 0.0966 0.3222-0.2955 0.6612l-2e-4 1e-4c-0.2607 0.2253-1.1496 0.6682-2.2709 1.1317l-3e-4 2e-4c-3.9875 1.6481-5.8049 2.6852-7.2535 4.1392l-2e-4 2e-4c-1.4644 1.4699-2.0369 2.8064-2.0369 4.7554v2e-4c0 1.5041 0.217 1.6801 1.7185 1.3944z" color="#000000" opacity=".59169" stop-color="#000000" style="-inkscape-stroke:none;font-variation-settings:normal"/>
		<path d="m14.592 50.913c0.3369-0.0641 2.3141-0.4217 4.3937-0.7946l3e-4 -1e-4c2.0795-0.3729 3.9601-0.7529 4.1792-0.8444l2e-4 -1e-4c0.5017-0.2097 0.5667-0.39 0.7239-2.0053 0.2138-2.197 0.659-3.2713 1.7804-4.2962 1.1404-1.0422 2.5583-1.5088 4.5965-1.5124 3.2702-6e-3 6.322 1.2615 8.3963 3.4871l2e-4 1e-4c0.9379 1.0064 1.5899 2.1309 2.1787 3.7574l1e-4 1e-4c0.5084 1.4046 0.7979 1.7564 1.4451 1.7564h2e-4c0.4025-6e-4 9.5223-1.5779 10.715-1.8533h2e-4c0.4198-0.097 0.6833-0.2336 0.8304-0.4306l1e-4 -2e-4c0.2071-0.2774 0.2081-0.3211 0.0266-1.1342l-1e-4 -3e-4c-0.21-0.9406-0.86-2.4259-1.4139-3.231l-1e-4 -2e-4c-0.5782-0.8403-1.6688-1.9462-2.6435-2.6807l-2e-4 -1e-4c-1.3845-1.0433-2.866-1.8682-5.6167-3.1277l-2e-4 -1e-4c-2.8237-1.2928-3.2254-1.5326-3.2254-1.9252v-2e-4c1e-4 -0.4342 0.4491-0.6713 2.2358-1.1808h2e-4c3.4751-0.991 4.9495-2.042 5.6148-4.0026l2e-4 -4e-4c0.2164-0.6378 0.2406-0.9009 0.1928-2.0938v-2e-4c-0.0658-1.6415-0.2581-2.2256-0.821-2.4926l-2e-4 -2e-4c-0.5206-0.2469-1.1235-0.2256-3.0268 0.1068h-3e-4c-0.9006 0.1573-2.8364 0.4935-4.3018 0.7471h-2e-4c-2.7446 0.4749-3.2376 0.6228-3.3598 1.0081l-1e-4 3e-4c-0.0389 0.124 0.0854 0.8064 0.2763 1.517v2e-4c0.4003 1.4896 0.422 1.8947 0.1353 2.5257l-1e-4 2e-4c-0.5667 1.2472-2.3636 1.9887-4.8191 1.9887h-4e-4c-1.2856 0-2.1247-0.1997-3.3258-0.7916l-3e-4 -1e-4c-2.1687-1.0687-3.6976-2.9639-4.7036-5.8301l-1e-4 -3e-4c-0.4373-1.246-0.6404-1.6402-0.9232-1.7915l-2e-4 -2e-4c-0.2637-0.141-0.3195-0.133-5.6297 0.8013l-2e-4 1e-4c-5.7868 1.0182-6.0055 1.0743-6.3739 1.6365l-1e-4 3e-4c-0.1632 0.2492-0.1623 0.3414 0.0106 1.0492l1e-4 3e-4c0.5271 2.1573 1.8697 3.9257 4.1461 5.461l3e-4 2e-4c0.9195 0.6202 2.6307 1.4151 4.9558 2.3023l3e-4 1e-4c2.5265 0.9641 3.2916 1.3569 3.4897 1.7918l2e-4 3e-4c0.1215 0.2668 0.0966 0.3223-0.2955 0.6612l-2e-4 1e-4c-0.2607 0.2253-1.1495 0.6683-2.2709 1.1318l-3e-4 1e-4c-3.9875 1.6482-5.8049 2.6853-7.2535 4.1392l-2e-4 2e-4c-1.4644 1.4699-2.0369 2.8064-2.0369 4.7554v2e-4c0 1.5042 0.217 1.6801 1.7185 1.3945z" color="#000000" opacity=".59169" stop-color="#000000" style="-inkscape-stroke:none;font-variation-settings:normal"/>
		<path d="m14.592 50.354c0.3369-0.0641 2.3141-0.4217 4.3937-0.7946h2e-4c2.0796-0.373 3.9602-0.753 4.1793-0.8445l2e-4 -1e-4c0.5017-0.2097 0.5667-0.3899 0.7239-2.0053 0.2138-2.1969 0.659-3.2713 1.7804-4.2962 1.1404-1.0422 2.5583-1.5087 4.5965-1.5124 3.2702-6e-3 6.322 1.2615 8.3963 3.4871l1e-4 1e-4c0.938 1.0064 1.59 2.1309 2.1788 3.7574l1e-4 1e-4c0.5084 1.4046 0.7979 1.7564 1.4451 1.7564h2e-4c0.4021-5e-4 9.5223-1.5779 10.715-1.8533h2e-4c0.4198-0.097 0.6833-0.2336 0.8304-0.4306l1e-4 -1e-4c0.2071-0.2774 0.2081-0.3212 0.0266-1.1343l-1e-4 -2e-4c-0.21-0.9407-0.86-2.426-1.4139-3.2311l-1e-4 -2e-4c-0.5782-0.8403-1.6688-1.9462-2.6435-2.6807l-2e-4 -1e-4c-1.3845-1.0432-2.866-1.8682-5.6167-3.1277h-2e-4c-2.8237-1.2929-3.2254-1.5327-3.2254-1.9253v-2e-4c1e-4 -0.4342 0.449-0.6712 2.2358-1.1808h2e-4c3.4751-0.991 4.9494-2.042 5.6148-4.0026l1e-4 -3e-4c0.2165-0.6379 0.2407-0.901 0.1929-2.0939v-2e-4c-0.0658-1.6415-0.2581-2.2255-0.821-2.4926l-2e-4 -1e-4c-0.5206-0.247-1.1235-0.2257-3.0268 0.1067h-3e-4c-0.9006 0.1573-2.8363 0.4935-4.3018 0.7471h-2e-4c-2.7446 0.4749-3.2376 0.6228-3.3598 1.0081l-1e-4 2e-4c-0.0389 0.124 0.0853 0.8064 0.2763 1.5171v2e-4c0.4003 1.4896 0.422 1.8948 0.1353 2.5257v2e-4c-0.5668 1.2472-2.3637 1.9887-4.8192 1.9887h-3e-4c-1.2857 0-2.1248-0.1997-3.3259-0.7916l-3e-4 -1e-4c-2.1687-1.0687-3.6976-2.9639-4.7036-5.8301l-1e-4 -3e-4c-0.4373-1.246-0.6404-1.6402-0.9232-1.7915l-2e-4 -1e-4c-0.2637-0.1411-0.3192-0.1332-5.6297 0.8012l-2e-4 1e-4c-5.7868 1.0182-6.0055 1.0744-6.3739 1.6365l-1e-4 3e-4c-0.1632 0.2491-0.1623 0.3414 0.0106 1.0492l1e-4 2e-4c0.5271 2.1574 1.8697 3.9258 4.1461 5.4612l3e-4 1e-4c0.9195 0.6201 2.6307 1.4151 4.9558 2.3023l3e-4 1e-4c2.5265 0.9641 3.2916 1.3569 3.4897 1.7918l1e-4 3e-4c0.1216 0.2668 0.0967 0.3223-0.2954 0.6612l-1e-4 1e-4c-0.2608 0.2253-1.1496 0.6683-2.271 1.1318l-3e-4 1e-4c-3.9875 1.6482-5.8049 2.6853-7.2535 4.1392l-2e-4 2e-4c-1.4644 1.4699-2.0369 2.8064-2.0369 4.7554v2e-4c0 1.5042 0.217 1.6802 1.7185 1.3945z" color="#000000" opacity=".59169" stop-color="#000000" style="-inkscape-stroke:none;font-variation-settings:normal"/>
		<path d="m14.592 49.849c0.3369-0.064 2.3141-0.4216 4.3937-0.7945l2e-4 -1e-4c2.0795-0.3729 3.9602-0.7529 4.1793-0.8444l2e-4 -1e-4c0.5017-0.2097 0.5667-0.3899 0.7239-2.0053 0.2138-2.197 0.659-3.2713 1.7804-4.2962 1.1404-1.0422 2.5583-1.5088 4.5965-1.5125 3.2702-6e-3 6.322 1.2616 8.3963 3.4872l1e-4 1e-4c0.938 1.0063 1.59 2.1308 2.1788 3.7573l1e-4 2e-4c0.5084 1.4045 0.7979 1.7563 1.4451 1.7563h1e-4c0.4018-4e-4 9.5224-1.5778 10.716-1.8532l1e-4 -1e-4c0.4199-0.0969 0.6834-0.2335 0.8305-0.4305l1e-4 -2e-4c0.2071-0.2774 0.2081-0.3211 0.0266-1.1342l-1e-4 -2e-4c-0.21-0.9407-0.86-2.426-1.4139-3.2311l-1e-4 -2e-4c-0.5782-0.8403-1.6688-1.9462-2.6435-2.6807l-2e-4 -1e-4c-1.3845-1.0433-2.866-1.8682-5.6167-3.1277l-2e-4 -1e-4c-2.8237-1.2928-3.2254-1.5326-3.2254-1.9252v-2e-4c1e-4 -0.4342 0.449-0.6713 2.2358-1.1808h2e-4c3.4751-0.9911 4.9494-2.0421 5.6148-4.0027l1e-4 -2e-4c0.2165-0.6379 0.2407-0.901 0.1929-2.0939v-2e-4c-0.0658-1.6415-0.2581-2.2256-0.821-2.4927l-2e-4 -1e-4c-0.5206-0.2469-1.1234-0.2256-3.0268 0.1068h-2e-4c-0.9006 0.1573-2.8364 0.4934-4.3019 0.747h-2e-4c-2.7446 0.475-3.2376 0.6229-3.3598 1.0082l-1e-4 2e-4c-0.039 0.1239 0.0853 0.8063 0.2763 1.5171v1e-4c0.4003 1.4897 0.422 1.8948 0.1353 2.5258v1e-4c-0.5667 1.2472-2.3636 1.9888-4.8192 1.9888h-3e-4c-1.2857 0-2.1248-0.1998-3.3259-0.7916l-3e-4 -1e-4c-2.1686-1.0687-3.6976-2.9639-4.7036-5.8301l-1e-4 -3e-4c-0.4373-1.246-0.6404-1.6402-0.9232-1.7915l-2e-4 -1e-4c-0.2637-0.1412-0.319-0.1332-5.6297 0.8012h-2e-4c-5.7868 1.0183-6.0055 1.0744-6.3739 1.6366l-1e-4 2e-4c-0.1632 0.2492-0.1623 0.3414 0.0106 1.0492l1e-4 3e-4c0.5271 2.1573 1.8697 3.9257 4.1461 5.4611l2e-4 1e-4c0.9196 0.6202 2.6308 1.4151 4.9559 2.3024l2e-4 1e-4c2.5265 0.964 3.2917 1.3569 3.4898 1.7918l1e-4 2e-4c0.1216 0.2668 0.0967 0.3223-0.2954 0.6613l-1e-4 1e-4c-0.2607 0.2252-1.1496 0.6682-2.271 1.1317l-2e-4 1e-4c-3.9876 1.6482-5.805 2.6853-7.2536 4.1393l-2e-4 1e-4c-1.4644 1.4699-2.0369 2.8065-2.0369 4.7555v2e-4c0 1.5041 0.217 1.6801 1.7185 1.3944z" color="#000000" opacity=".59169" stop-color="#000000" style="-inkscape-stroke:none;font-variation-settings:normal"/>
		<path d="m14.592 49.386c0.3369-0.0641 2.3141-0.4217 4.3937-0.7946h2e-4c2.0795-0.373 3.9602-0.753 4.1793-0.8445l2e-4 -1e-4c0.5017-0.2097 0.5667-0.3899 0.7239-2.0053 0.2138-2.197 0.659-3.2713 1.7804-4.2962 1.1404-1.0422 2.5583-1.5088 4.5965-1.5124 3.2702-6e-3 6.322 1.2615 8.3963 3.4871l1e-4 1e-4c0.938 1.0063 1.59 2.1308 2.1788 3.7574l1e-4 1e-4c0.5084 1.4046 0.7979 1.7564 1.4451 1.7564h1e-4c0.4015-4e-4 9.5223-1.5779 10.716-1.8533h1e-4c0.4198-0.097 0.6834-0.2336 0.8305-0.4306v-1e-4c0.2072-0.2774 0.2082-0.3211 0.0267-1.1343l-1e-4 -2e-4c-0.21-0.9406-0.86-2.426-1.4139-3.2311l-1e-4 -1e-4c-0.5781-0.8403-1.6687-1.9463-2.6435-2.6808l-1e-4 -1e-4c-1.3846-1.0432-2.8661-1.8682-5.6168-3.1277h-2e-4c-2.8237-1.2929-3.2254-1.5327-3.2254-1.9253v-1e-4c1e-4 -0.4343 0.4489-0.6713 2.2358-1.1809h1e-4c3.4752-0.991 4.9495-2.042 5.6149-4.0026l1e-4 -3e-4c0.2165-0.6378 0.2407-0.9009 0.1929-2.0939v-2e-4c-0.0658-1.6415-0.2581-2.2256-0.821-2.4926l-1e-4 -1e-4c-0.5207-0.247-1.1235-0.2257-3.0269 0.1067h-2e-4c-0.9006 0.1573-2.8364 0.4935-4.3019 0.747l-1e-4 1e-4c-2.7447 0.4749-3.2377 0.6228-3.3599 1.0081l-1e-4 2e-4c-0.039 0.1238 0.0853 0.8063 0.2763 1.5171v1e-4c0.4003 1.4897 0.422 1.8948 0.1353 2.5258v1e-4c-0.5667 1.2473-2.3636 1.9888-4.8192 1.9888h-3e-4c-1.2857 0-2.1248-0.1997-3.3259-0.7916l-2e-4 -1e-4c-2.1687-1.0687-3.6977-2.9638-4.7037-5.8301v-2e-4c-0.4374-1.2461-0.6405-1.6403-0.9233-1.7916l-1e-4 -1e-4c-0.2638-0.1411-0.3189-0.1332-5.6298 0.8012l-2e-4 1e-4c-5.7868 1.0182-6.0055 1.0743-6.3739 1.6365l-1e-4 2e-4c-0.1632 0.2492-0.1623 0.3414 0.0106 1.0493l1e-4 2e-4c0.5271 2.1573 1.8697 3.9258 4.1461 5.4611l2e-4 2e-4c0.9195 0.6201 2.6307 1.4151 4.9559 2.3023l2e-4 1e-4c2.5265 0.964 3.2917 1.3569 3.4898 1.7918l1e-4 2e-4c0.1216 0.2669 0.0967 0.3223-0.2954 0.6613l-1e-4 1e-4c-0.2607 0.2253-1.1496 0.6682-2.271 1.1318h-2e-4c-3.9876 1.6482-5.805 2.6853-7.2536 4.1393l-1e-4 1e-4c-1.4645 1.47-2.037 2.8065-2.037 4.7555v2e-4c0 1.5041 0.2169 1.6801 1.7185 1.3945z" color="#000000" opacity=".59169" stop-color="#000000" style="-inkscape-stroke:none;font-variation-settings:normal"/>
		<path d="m14.592 48.956c0.3369-0.0641 2.3141-0.4217 4.3937-0.7946h1e-4c2.0796-0.3729 3.9603-0.7529 4.1794-0.8445h1e-4c0.5018-0.2097 0.5668-0.3899 0.724-2.0054 0.2138-2.1969 0.659-3.2713 1.7804-4.2962 1.1404-1.0422 2.5583-1.5087 4.5965-1.5124 3.2702-6e-3 6.322 1.2616 8.3963 3.4871l1e-4 1e-4c0.938 1.0064 1.59 2.1308 2.1788 3.7574l1e-4 1e-4c0.5084 1.4046 0.7979 1.7564 1.4451 1.7564h1e-4c0.4012-3e-4 9.5223-1.5778 10.716-1.8533h1e-4c0.4198-0.0969 0.6834-0.2336 0.8305-0.4306v-1e-4c0.2072-0.2774 0.2082-0.3211 0.0267-1.1343l-1e-4 -1e-4c-0.21-0.9407-0.86-2.4261-1.4139-3.2312l-1e-4 -1e-4c-0.5781-0.8403-1.6687-1.9462-2.6435-2.6808h-1e-4c-1.3846-1.0433-2.866-1.8683-5.6168-3.1277l-2e-4 -1e-4c-2.8237-1.2929-3.2254-1.5327-3.2254-1.9253v-1e-4c1e-4 -0.4343 0.4489-0.6713 2.2358-1.1809h1e-4c3.4752-0.991 4.9495-2.042 5.6149-4.0026l1e-4 -2e-4c0.2165-0.6379 0.2407-0.901 0.1929-2.094v-1e-4c-0.0658-1.6416-0.2581-2.2256-0.821-2.4927l-1e-4 -1e-4c-0.5206-0.247-1.1235-0.2257-3.0269 0.1067h-2e-4c-0.9006 0.1573-2.8364 0.4935-4.3019 0.7471h-1e-4c-2.7447 0.4749-3.2377 0.6228-3.3599 1.0081l-1e-4 2e-4c-0.039 0.1237 0.0853 0.8062 0.2763 1.5171v1e-4c0.4003 1.4897 0.422 1.8949 0.1353 2.5258v1e-4c-0.5667 1.2473-2.3636 1.9888-4.8192 1.9888h-2e-4c-1.2858 0-2.1249-0.1997-3.326-0.7916l-2e-4 -1e-4c-2.1687-1.0687-3.6977-2.9638-4.7037-5.8301v-2e-4c-0.4374-1.2461-0.6405-1.6403-0.9233-1.7916l-1e-4 -1e-4c-0.2638-0.1411-0.3187-0.1333-5.6298 0.8013h-1e-4c-5.7869 1.0182-6.0056 1.0744-6.374 1.6366l-1e-4 1e-4c-0.1632 0.2492-0.1623 0.3414 0.0106 1.0493l1e-4 2e-4c0.5271 2.1573 1.8697 3.9258 4.1461 5.4612l2e-4 1e-4c0.9195 0.6201 2.6307 1.4151 4.9559 2.3023l2e-4 1e-4c2.5265 0.9641 3.2917 1.3569 3.4898 1.7918l1e-4 2e-4c0.1216 0.2669 0.0968 0.3223-0.2954 0.6613l-1e-4 1e-4c-0.2607 0.2253-1.1495 0.6682-2.271 1.1318l-2e-4 1e-4c-3.9876 1.6482-5.805 2.6853-7.2536 4.1392l-1e-4 1e-4c-1.4645 1.47-2.037 2.8065-2.037 4.7555v2e-4c0 1.5042 0.2169 1.6802 1.7185 1.3945z" color="#000000" opacity=".59169" stop-color="#000000" style="-inkscape-stroke:none;font-variation-settings:normal"/>
		<path d="m14.592 48.554c0.3369-0.0641 2.3141-0.4217 4.3937-0.7946h1e-4c2.0796-0.3729 3.9603-0.7529 4.1794-0.8445h1e-4c0.5018-0.2097 0.5668-0.3899 0.724-2.0054 0.2138-2.1969 0.659-3.2713 1.7804-4.2962 1.1404-1.0422 2.5583-1.5087 4.5965-1.5124 3.2702-6e-3 6.322 1.2616 8.3963 3.4871l1e-4 1e-4c0.938 1.0064 1.59 2.1308 2.1788 3.7574l1e-4 1e-4c0.5084 1.4046 0.7979 1.7564 1.4451 1.7564h1e-4c0.4009-3e-4 9.5223-1.5778 10.716-1.8533h1e-4c0.4198-0.0969 0.6834-0.2336 0.8305-0.4306v-1e-4c0.2072-0.2774 0.2082-0.3211 0.0267-1.1343l-1e-4 -1e-4c-0.21-0.9406-0.8599-2.4261-1.4139-3.2312v-1e-4c-0.5782-0.8403-1.6688-1.9462-2.6436-2.6808h-1e-4c-1.3846-1.0433-2.866-1.8683-5.6168-3.1277l-1e-4 -1e-4c-2.8238-1.2929-3.2255-1.5327-3.2255-1.9253v-1e-4c1e-4 -0.4342 0.4489-0.6713 2.2358-1.1808l1e-4 -1e-4c3.4752-0.991 4.9495-2.042 5.6149-4.0026l1e-4 -2e-4c0.2165-0.6379 0.2407-0.901 0.1929-2.094v-1e-4c-0.0658-1.6416-0.2581-2.2256-0.821-2.4927l-1e-4 -1e-4c-0.5206-0.247-1.1234-0.2257-3.0269 0.1067h-2e-4c-0.9005 0.1573-2.8364 0.4935-4.3019 0.7471h-1e-4c-2.7447 0.4749-3.2377 0.6229-3.3599 1.0081l-1e-4 1e-4c-0.039 0.1237 0.0853 0.8063 0.2763 1.5172v1e-4c0.4003 1.4897 0.422 1.8949 0.1353 2.5258v1e-4c-0.5667 1.2473-2.3636 1.9888-4.8192 1.9888h-2e-4c-1.2857 0-2.1249-0.1997-3.326-0.7916h-2e-4c-2.1687-1.0687-3.6977-2.9639-4.7037-5.8302v-1e-4c-0.4374-1.2462-0.6405-1.6404-0.9233-1.7917h-1e-4c-0.2638-0.1412-0.3185-0.1334-5.6298 0.8012h-1e-4c-5.7869 1.0182-6.0056 1.0744-6.374 1.6366l-1e-4 1e-4c-0.1632 0.2492-0.1623 0.3414 0.0106 1.0493l1e-4 1e-4c0.527 2.1574 1.8697 3.9259 4.1461 5.4613l2e-4 1e-4c0.9195 0.6201 2.6307 1.4151 4.9559 2.3023l1e-4 1e-4c2.5266 0.9641 3.2918 1.3569 3.4899 1.7918l1e-4 2e-4c0.1216 0.2669 0.0968 0.3223-0.2954 0.6613l-1e-4 1e-4c-0.2606 0.2252-1.1495 0.6682-2.271 1.1318h-2e-4c-3.9876 1.6483-5.805 2.6854-7.2536 4.1393l-1e-4 1e-4c-1.4645 1.47-2.037 2.8065-2.037 4.7556 0 1.5043 0.2169 1.6803 1.7185 1.3946z" color="#000000" opacity=".59169" stop-color="#000000" style="-inkscape-stroke:none;font-variation-settings:normal"/>
		<path d="m14.592 48.175c0.3369-0.0641 2.3141-0.4217 4.3937-0.7946h1e-4c2.0796-0.373 3.9603-0.753 4.1794-0.8445l1e-4 -1e-4c0.5018-0.2096 0.5668-0.3898 0.724-2.0053 0.2138-2.197 0.659-3.2713 1.7804-4.2962 1.1404-1.0422 2.5583-1.5088 4.5965-1.5124 3.2702-6e-3 6.322 1.2615 8.3963 3.4871h1e-4c0.938 1.0064 1.59 2.1309 2.1788 3.7574l1e-4 1e-4c0.5084 1.4046 0.7979 1.7564 1.4451 1.7564 0.4007-2e-4 9.5224-1.5778 10.716-1.8532 0.4199-0.097 0.6835-0.2336 0.8306-0.4306v-1e-4c0.2072-0.2774 0.2082-0.3211 0.0267-1.1343l-1e-4 -1e-4c-0.2099-0.9406-0.8599-2.4261-1.4139-3.2312v-1e-4c-0.5782-0.8403-1.6688-1.9463-2.6436-2.6808h-1e-4c-1.3845-1.0433-2.866-1.8683-5.6168-3.1278h-1e-4c-2.8238-1.2929-3.2255-1.5327-3.2255-1.9253v-1e-4c0-0.4343 0.4489-0.6713 2.2358-1.1809h1e-4c3.4752-0.991 4.9495-2.042 5.6149-4.0027l1e-4 -1e-4c0.2165-0.6379 0.2407-0.901 0.1929-2.094v-1e-4c-0.0658-1.6416-0.2581-2.2257-0.821-2.4927l-1e-4 -1e-4c-0.5206-0.247-1.1234-0.2257-3.0269 0.1067h-1e-4c-0.9006 0.1573-2.8365 0.4934-4.302 0.747l-1e-4 1e-4c-2.7447 0.4749-3.2377 0.6228-3.3599 1.0081l-1e-4 1e-4c-0.039 0.1236 0.0853 0.8062 0.2763 1.5172v1e-4c0.4003 1.4897 0.422 1.8948 0.1353 2.5258v1e-4c-0.5667 1.2472-2.3636 1.9888-4.8192 1.9888h-2e-4c-1.2857 0-2.1248-0.1997-3.326-0.7916l-2e-4 -1e-4c-2.1687-1.0686-3.6977-2.9638-4.7037-5.8301v-1e-4c-0.4374-1.2462-0.6405-1.6404-0.9233-1.7917l-1e-4 -1e-4c-0.2638-0.1411-0.3184-0.1333-5.6298 0.8012h-1e-4c-5.7869 1.0183-6.0056 1.0744-6.374 1.6366v1e-4c-0.1633 0.2493-0.1624 0.3415 0.0105 1.0494l1e-4 1e-4c0.527 2.1574 1.8696 3.9258 4.1461 5.4612l1e-4 1e-4c0.9196 0.6202 2.6308 1.4151 4.956 2.3024h1e-4c2.5266 0.9641 3.2918 1.357 3.4899 1.7919l1e-4 1e-4c0.1216 0.2669 0.0968 0.3224-0.2954 0.6614l-1e-4 1e-4c-0.2606 0.2252-1.1495 0.6682-2.271 1.1318h-1e-4c-3.9876 1.6482-5.8051 2.6853-7.2537 4.1393l-1e-4 1e-4c-1.4645 1.4699-2.037 2.8064-2.037 4.7555v1e-4c0 1.5042 0.2169 1.6802 1.7185 1.3946z" color="#000000" opacity=".59169" stop-color="#000000" style="-inkscape-stroke:none;font-variation-settings:normal"/>
		<path d="m14.592 47.817c0.3369-0.0641 2.3141-0.4217 4.3937-0.7946h1e-4c2.0796-0.373 3.9603-0.753 4.1794-0.8445h1e-4c0.5018-0.2097 0.5668-0.3899 0.724-2.0054 0.2138-2.197 0.659-3.2713 1.7804-4.2962 1.1404-1.0422 2.5583-1.5088 4.5965-1.5125 3.2702-6e-3 6.322 1.2616 8.3963 3.4872h1e-4c0.938 1.0064 1.59 2.1309 2.1788 3.7574l1e-4 1e-4c0.5084 1.4046 0.7979 1.7564 1.4451 1.7564 0.4004-1e-4 9.5224-1.5777 10.716-1.8532 0.4199-0.097 0.6835-0.2336 0.8306-0.4306v-1e-4c0.2072-0.2775 0.2082-0.3211 0.0267-1.1343l-1e-4 -1e-4c-0.2099-0.9406-0.8599-2.4261-1.4139-3.2312v-1e-4c-0.5782-0.8403-1.6688-1.9463-2.6436-2.6808h-1e-4c-1.3845-1.0433-2.866-1.8683-5.6168-3.1278h-1e-4c-2.8238-1.2929-3.2255-1.5327-3.2255-1.9253v-1e-4c0-0.4343 0.4488-0.6713 2.2358-1.1809h1e-4c3.4752-0.991 4.9495-2.042 5.6149-4.0027l1e-4 -1e-4c0.2165-0.6379 0.2407-0.901 0.1929-2.094v-1e-4c-0.0658-1.6416-0.2581-2.2257-0.821-2.4927v-1e-4c-0.5207-0.247-1.1235-0.2258-3.027 0.1067h-1e-4c-0.9006 0.1573-2.8365 0.4934-4.302 0.747l-1e-4 1e-4c-2.7447 0.4749-3.2377 0.6228-3.3599 1.0081l-1e-4 1e-4c-0.039 0.1235 0.0853 0.8062 0.2763 1.5172 0.4003 1.4898 0.422 1.8949 0.1353 2.5259-0.5667 1.2473-2.3636 1.9889-4.8192 1.9889h-1e-4c-1.2858 0-2.1249-0.1997-3.3261-0.7916l-1e-4 -1e-4c-2.1688-1.0686-3.6978-2.9638-4.7038-5.8301v-1e-4c-0.4374-1.2462-0.6405-1.6404-0.9233-1.7917v-1e-4c-0.2639-0.1411-0.3183-0.1334-5.6299 0.8012h-1e-4c-5.7869 1.0183-6.0056 1.0744-6.374 1.6366v1e-4c-0.1633 0.2493-0.1624 0.3414 0.0105 1.0494 0.5271 2.1575 1.8697 3.9259 4.1462 5.4613l1e-4 1e-4c0.9195 0.6201 2.6308 1.4151 4.956 2.3024h1e-4c2.5266 0.9641 3.2918 1.357 3.4899 1.7919l1e-4 1e-4c0.1216 0.2669 0.0968 0.3224-0.2954 0.6614h-1e-4c-0.2606 0.2253-1.1495 0.6683-2.271 1.1319h-1e-4c-3.9876 1.6482-5.805 2.6853-7.2537 4.1393l-1e-4 1e-4c-1.4645 1.4699-2.037 2.8064-2.037 4.7555v1e-4c0 1.5042 0.2169 1.6802 1.7185 1.3946z" color="#000000" opacity=".59169" stop-color="#000000" style="-inkscape-stroke:none;font-variation-settings:normal"/>
		<path d="m14.592 47.476c0.3369-0.0641 2.3141-0.4217 4.3937-0.7946 2.0797-0.373 3.9604-0.753 4.1795-0.8445 0.5019-0.2097 0.5669-0.3899 0.7241-2.0054 0.2138-2.197 0.659-3.2713 1.7804-4.2962 1.1404-1.0422 2.5583-1.5088 4.5965-1.5124 3.2702-6e-3 6.322 1.2615 8.3963 3.4871h1e-4c0.9379 1.0064 1.59 2.1309 2.1788 3.7574v1e-4c0.5085 1.4046 0.798 1.7564 1.4452 1.7564 0.4001-1e-4 9.5223-1.5777 10.716-1.8532 0.4199-0.0969 0.6835-0.2336 0.8306-0.4306v-1e-4c0.2072-0.2774 0.2082-0.3211 0.0267-1.1343v-1e-4c-0.21-0.9406-0.86-2.4261-1.414-3.2312-0.5782-0.8403-1.6688-1.9464-2.6436-2.6809h-1e-4c-1.3845-1.0433-2.866-1.8683-5.6168-3.1278h-1e-4c-2.8238-1.2929-3.2255-1.5327-3.2255-1.9253 0-0.4344 0.4488-0.6714 2.2358-1.181 3.4753-0.991 4.9496-2.042 5.615-4.0027h1e-4c0.2165-0.638 0.2407-0.901 0.1929-2.0941v-1e-4c-0.0658-1.6416-0.2581-2.2257-0.821-2.4927v-1e-4c-0.5207-0.247-1.1234-0.2258-3.027 0.1067h-1e-4c-0.9006 0.1573-2.8364 0.4934-4.302 0.747l-1e-4 1e-4c-2.7447 0.4749-3.2377 0.6228-3.3599 1.0081-0.0391 0.1236 0.0851 0.8062 0.2762 1.5173 0.4003 1.4898 0.422 1.8949 0.1353 2.5259-0.5667 1.2473-2.3636 1.9889-4.8192 1.9889h-1e-4c-1.2858 0-2.1249-0.1997-3.3261-0.7916h-1e-4c-2.1688-1.0687-3.6978-2.9639-4.7038-5.8302v-1e-4c-0.4374-1.2462-0.6405-1.6404-0.9233-1.7917-0.2639-0.1412-0.3181-0.1335-5.6299 0.8011h-1e-4c-5.7869 1.0183-6.0056 1.0744-6.374 1.6366v1e-4c-0.1633 0.2493-0.1624 0.3414 0.0105 1.0494 0.5271 2.1574 1.8697 3.9259 4.1462 5.4613l1e-4 1e-4c0.9195 0.6201 2.6307 1.4151 4.956 2.3024h1e-4c2.5266 0.9641 3.2918 1.357 3.4899 1.7919l1e-4 1e-4c0.1216 0.2669 0.0968 0.3224-0.2954 0.6614h-1e-4c-0.2605 0.2253-1.1495 0.6683-2.271 1.1319h-1e-4c-3.9876 1.6482-5.805 2.6853-7.2537 4.1393l-1e-4 1e-4c-1.4645 1.4699-2.037 2.8064-2.037 4.7555v1e-4c0 1.5042 0.2169 1.6802 1.7185 1.3946z" color="#000000" opacity=".59169" stop-color="#000000" style="-inkscape-stroke:none;font-variation-settings:normal"/>
		<path d="m14.592 47.151c0.3369-0.0641 2.3141-0.4217 4.3937-0.7946 2.0796-0.373 3.9604-0.753 4.1795-0.8445 0.5019-0.2097 0.5669-0.3898 0.7241-2.0054 0.2138-2.197 0.659-3.2713 1.7804-4.2962 1.1404-1.0422 2.5583-1.5088 4.5965-1.5125 3.2702-6e-3 6.322 1.2616 8.3963 3.4872 0.938 1.0064 1.5901 2.1309 2.1789 3.7574v1e-4c0.5085 1.4046 0.798 1.7564 1.4452 1.7564 0.3999 0 9.5223-1.5777 10.716-1.8532 0.4199-0.0969 0.6835-0.2336 0.8306-0.4306 0.2072-0.2775 0.2082-0.3212 0.0267-1.1344v-1e-4c-0.21-0.9406-0.86-2.4261-1.414-3.2312-0.5781-0.8403-1.6688-1.9463-2.6436-2.6809-1.3846-1.0433-2.8661-1.8683-5.6169-3.1278h-1e-4c-2.8238-1.2929-3.2255-1.5327-3.2255-1.9253 0-0.4343 0.4488-0.6714 2.2358-1.181 3.4753-0.991 4.9496-2.042 5.615-4.0027h1e-4c0.2165-0.638 0.2407-0.901 0.1929-2.0941v-1e-4c-0.0658-1.6416-0.2581-2.2257-0.821-2.4927v-1e-4c-0.5206-0.247-1.1234-0.2258-3.027 0.1067h-1e-4c-0.9005 0.1573-2.8364 0.4934-4.302 0.747h-1e-4c-2.7447 0.475-3.2377 0.6229-3.3599 1.0082-0.0392 0.1235 0.0851 0.8062 0.2762 1.5173 0.4003 1.4898 0.422 1.8949 0.1353 2.5259-0.5666 1.2473-2.3636 1.9889-4.8192 1.9889h-1e-4c-1.2858 0-2.1249-0.1997-3.3261-0.7916h-1e-4c-2.1688-1.0687-3.6978-2.9639-4.7038-5.8302-0.4374-1.2463-0.6405-1.6405-0.9233-1.7918-0.2639-0.1412-0.318-0.1335-5.6299 0.8011h-1e-4c-5.7869 1.0183-6.0056 1.0744-6.374 1.6366v1e-4c-0.1633 0.2493-0.1624 0.3414 0.0105 1.0494 0.5271 2.1574 1.8697 3.9259 4.1462 5.4613l1e-4 1e-4c0.9195 0.6201 2.6307 1.4151 4.956 2.3024 2.5267 0.9641 3.2919 1.357 3.49 1.7919 0.1217 0.267 0.0969 0.3224-0.2953 0.6615-0.2606 0.2253-1.1496 0.6683-2.2711 1.1319h-1e-4c-3.9876 1.6482-5.805 2.6853-7.2537 4.1393-1.4646 1.47-2.0371 2.8065-2.0371 4.7556 0 1.5043 0.2169 1.6803 1.7185 1.3947z" color="#000000" opacity=".59169" stop-color="#000000" style="-inkscape-stroke:none;font-variation-settings:normal"/>
		<path d="m14.592 46.839c0.3369-0.0641 2.3141-0.4216 4.3937-0.7945v-1e-4c2.0796-0.3729 3.9604-0.7529 4.1795-0.8444v-1e-4c0.5019-0.2097 0.5669-0.3897 0.7241-2.0054 0.2138-2.1969 0.659-3.2713 1.7804-4.2962 1.1404-1.0422 2.5583-1.5087 4.5965-1.5124 3.2702-6e-3 6.322 1.2616 8.3963 3.4871v1e-4c0.938 1.0063 1.5901 2.1309 2.1789 3.7574 0.5085 1.4047 0.798 1.7565 1.4452 1.7565 0.3997 0 9.5223-1.5778 10.716-1.8532 0.4199-0.097 0.6835-0.2336 0.8306-0.4307 0.2072-0.2775 0.2082-0.3211 0.0267-1.1344-0.21-0.9406-0.86-2.4261-1.414-3.2312-0.5781-0.8403-1.6688-1.9464-2.6436-2.6809-1.3846-1.0433-2.8661-1.8683-5.6169-3.1278h-1e-4c-2.8238-1.2929-3.2255-1.5327-3.2255-1.9253 0-0.4344 0.4488-0.6714 2.2358-1.181 3.4753-0.991 4.9496-2.042 5.615-4.0027 0.2166-0.638 0.2408-0.901 0.193-2.0942-0.0658-1.6416-0.2581-2.2257-0.821-2.4928-0.5206-0.247-1.1234-0.2258-3.027 0.1067h-1e-4c-0.9005 0.1572-2.8364 0.4934-4.302 0.747-2.7448 0.475-3.2378 0.6229-3.36 1.0081v1e-4c-0.0392 0.1234 0.0851 0.8061 0.2762 1.5172v1e-4c0.4003 1.4898 0.422 1.8949 0.1353 2.5259-0.5666 1.2473-2.3636 1.9889-4.8192 1.9889h-1e-4c-1.2858 0-2.1249-0.1997-3.3261-0.7916l-1e-4 -1e-4c-2.1688-1.0686-3.6978-2.9638-4.7038-5.8301-0.4374-1.2463-0.6405-1.6405-0.9233-1.7918v-1e-4c-0.2639-0.1412-0.3179-0.1335-5.6299 0.8012h-1e-4c-5.7869 1.0182-6.0056 1.0744-6.374 1.6366-0.1633 0.2493-0.1624 0.3414 0.0105 1.0494v1e-4c0.5271 2.1574 1.8697 3.9259 4.1462 5.4613h1e-4c0.9195 0.6202 2.6307 1.4152 4.956 2.3024v1e-4c2.5267 0.9641 3.2919 1.3569 3.49 1.7919 0.1217 0.267 0.0969 0.3224-0.2953 0.6615-0.2606 0.2252-1.1495 0.6682-2.2711 1.1318h-1e-4c-3.9876 1.6483-5.805 2.6854-7.2537 4.1394-1.4646 1.4699-2.0371 2.8065-2.0371 4.7556 0 1.5043 0.2169 1.6803 1.7185 1.3946z" color="#000000" opacity=".59169" stop-color="#000000" style="-inkscape-stroke:none;font-variation-settings:normal"/>
		<path d="m14.592 46.539c0.3369-0.0641 2.3141-0.4216 4.3937-0.7945 2.0796-0.373 3.9604-0.753 4.1795-0.8445 0.5019-0.2097 0.5669-0.3898 0.7241-2.0055 0.2138-2.1969 0.659-3.2712 1.7804-4.2961 1.1404-1.0422 2.5583-1.5088 4.5965-1.5125 3.2702-6e-3 6.322 1.2616 8.3963 3.4871 0.938 1.0064 1.5901 2.131 2.1789 3.7575 0.5085 1.4047 0.798 1.7565 1.4452 1.7565 0.3994 0 9.5223-1.5778 10.716-1.8532 0.4199-0.097 0.6835-0.2336 0.8306-0.4306 0.2072-0.2776 0.2082-0.3212 0.0267-1.1344-0.21-0.9407-0.86-2.4262-1.414-3.2313-0.5781-0.8403-1.6688-1.9464-2.6436-2.6809-1.3846-1.0433-2.8661-1.8683-5.6169-3.1278-2.8239-1.2929-3.2256-1.5327-3.2256-1.9253 0-0.4344 0.4487-0.6714 2.2358-1.181 3.4753-0.991 4.9496-2.042 5.615-4.0027 0.2166-0.638 0.2408-0.901 0.193-2.0941-0.0658-1.6417-0.2581-2.2258-0.821-2.4929-0.5206-0.247-1.1234-0.2258-3.027 0.1067-0.9006 0.1572-2.8365 0.4934-4.3021 0.747-2.7448 0.475-3.2378 0.6229-3.36 1.0082-0.0392 0.1233 0.0851 0.8061 0.2762 1.5172 0.4003 1.4899 0.422 1.895 0.1353 2.526-0.5666 1.2473-2.3636 1.9889-4.8192 1.9889-1.2859 0-2.125-0.1997-3.3262-0.7916-2.1688-1.0687-3.6979-2.9639-4.7039-5.8302-0.4374-1.2463-0.6405-1.6405-0.9233-1.7918-0.2639-0.1413-0.3177-0.1336-5.6299 0.8011-5.787 1.0183-6.0057 1.0744-6.3741 1.6366-0.1633 0.2493-0.1624 0.3414 0.0105 1.0494 0.5271 2.1575 1.8697 3.926 4.1462 5.4614 0.9195 0.6202 2.6308 1.4152 4.9561 2.3024 2.5267 0.9642 3.2919 1.357 3.49 1.792 0.1217 0.267 0.0969 0.3224-0.2953 0.6615-0.2606 0.2252-1.1495 0.6682-2.2711 1.1318-3.9877 1.6483-5.8051 2.6854-7.2538 4.1394-1.4646 1.4699-2.0371 2.8065-2.0371 4.7556 0 1.5043 0.2169 1.6803 1.7185 1.3946z" color="#000000" opacity=".59169" stop-color="#000000" style="-inkscape-stroke:none;font-variation-settings:normal"/>
	</g>
	<path d="m14.592 45.789c0.33687-0.06409 2.314-0.42165 4.3936-0.79458 2.0796-0.37293 3.9604-0.75296 4.1795-0.84449 0.50191-0.20971 0.56694-0.38978 0.72415-2.0054 0.21378-2.1969 0.65901-3.2713 1.7804-4.2962 1.1403-1.0422 2.5582-1.5087 4.5965-1.5124 3.2702-6e-3 6.322 1.2616 8.3963 3.4871 0.938 1.0064 1.5901 2.1309 2.1789 3.7575 0.50849 1.4047 0.79794 1.7565 1.4451 1.7565 0.39947 0 9.5223-1.5778 10.716-1.8532 0.41993-0.09694 0.6835-0.23359 0.83061-0.43062 0.20721-0.27753 0.20823-0.32114 0.0267-1.1344-0.20997-0.94062-0.85999-2.4261-1.4139-3.2313-0.57814-0.8403-1.6688-1.9463-2.6436-2.6809-1.3846-1.0433-2.8661-1.8683-5.6169-3.1278-2.8238-1.2929-3.2256-1.5327-3.2256-1.9253 0-0.43433 0.44875-0.67137 2.2358-1.181 3.4753-0.99103 4.9497-2.042 5.6151-4.0027 0.21654-0.63803 0.24077-0.90104 0.19297-2.0942-0.06577-1.6417-0.25813-2.2257-0.82096-2.4928-0.52065-0.24707-1.1234-0.22584-3.0271 0.10662-0.90054 0.15727-2.8365 0.49344-4.3021 0.74706-2.7448 0.47496-3.2377 0.62287-3.36 1.0081-0.03916 0.12337 0.08514 0.80615 0.27621 1.5173 0.40028 1.4898 0.42199 1.8949 0.13534 2.5259-0.56664 1.2473-2.3636 1.9889-4.8193 1.9889-1.2858 0-2.125-0.19971-3.3262-0.79162-2.1688-1.0687-3.6978-2.9639-4.7038-5.8302-0.4374-1.2463-0.64053-1.6405-0.92329-1.7918-0.2639-0.14123-0.31778-0.13357-5.63 0.80114-5.787 1.0182-6.0057 1.0744-6.374 1.6366-0.16338 0.24934-0.16246 0.34143 0.0105 1.0494 0.52706 2.1574 1.8697 3.9259 4.1462 5.4614 0.91949 0.62016 2.6308 1.4152 4.956 2.3024 2.5267 0.96413 3.2919 1.357 3.49 1.7919 0.12166 0.26701 0.09692 0.32242-0.29534 0.66151-0.26055 0.22523-1.1495 0.66826-2.2711 1.1318-3.9877 1.6482-5.8051 2.6853-7.2538 4.1393-1.4646 1.47-2.0371 2.8065-2.0371 4.7556 0 1.5043 0.2169 1.6803 1.7185 1.3946z" color="#000000" fill="#e1d0e2" stop-color="#000000" style="-inkscape-stroke:none;font-variation-settings:normal"/>
	<path d="m23.889 20.598c-0.3755-0.01361-1.4026 0.16616-5.3867 0.86719-5.787 1.0182-6.0047 1.0745-6.373 1.6367-0.12531 0.19125-0.15353 0.29528-0.08203 0.65039 0.01999-0.04826 0.0458-0.0951 0.08203-0.15039 0.36836-0.5622 0.58608-0.61847 6.373-1.6367 5.3122-0.93471 5.367-0.94202 5.6309-0.80078 0.28276 0.15132 0.48643 0.54474 0.92383 1.791 1.006 2.8663 2.5343 4.7614 4.7031 5.8301 1.2012 0.59191 2.0403 0.79102 3.3262 0.79102 2.4557 0 4.2517-0.74096 4.8184-1.9883 0.16101-0.35442 0.22178-0.64375 0.17578-1.0879-0.02581 0.20124-0.08304 0.38375-0.17578 0.58789-0.56664 1.2473-2.3627 1.9883-4.8184 1.9883-1.2858 0-2.1249-0.19911-3.3262-0.79102-2.1688-1.0687-3.6971-2.9638-4.7031-5.8301-0.4374-1.2463-0.64107-1.6397-0.92383-1.791-0.06597-0.03531-0.11898-0.06187-0.24414-0.06641zm23.299 0.42188c-0.45373 0.01598-1.0794 0.1033-2.0312 0.26953-0.90054 0.15727-2.8371 0.49443-4.3027 0.74805-2.7448 0.47496-3.2371 0.62255-3.3594 1.0078-0.01656 0.05215 5.88e-4 0.21769 0.03516 0.42969 0.16712-0.3333 0.75899-0.4936 3.3242-0.9375 1.4656-0.25361 3.4022-0.59078 4.3027-0.74805 1.9037-0.33246 2.5067-0.35253 3.0273-0.10547 0.56284 0.26708 0.75454 0.85053 0.82031 2.4922 0.0074 0.18495 0.0082 0.31388 0.01172 0.45898 0.0067-0.2479 0.0053-0.53415-0.01172-0.95898-0.065774-1.6417-0.25748-2.2251-0.82032-2.4922-0.26033-0.12353-0.54236-0.18004-0.99609-0.16406zm-6.1484 10.174c-0.05216 0.08099-0.08008 0.16484-0.08008 0.25977 0 0.39262 0.40274 0.63287 3.2266 1.9258 2.7509 1.2595 4.2326 2.0836 5.6172 3.127 0.97482 0.73455 2.0644 1.8413 2.6426 2.6816 0.55395 0.80514 1.2041 2.2898 1.4141 3.2305 0.04189 0.18768 0.07159 0.32728 0.09375 0.44531 0.07395-0.165 0.04002-0.34602-0.09375-0.94531-0.20997-0.94062-0.86011-2.4253-1.4141-3.2305-0.57814-0.8403-1.6678-1.9471-2.6426-2.6816-1.3846-1.0433-2.8663-1.8674-5.6172-3.127-2.23-1.021-2.9425-1.3841-3.1465-1.6855zm-16.355 2.9375c-0.05743 0.06341-0.13223 0.13621-0.24805 0.23633-0.26055 0.22522-1.1499 0.66922-2.2715 1.1328-3.9877 1.6482-5.8052 2.6847-7.2539 4.1387-1.4646 1.47-2.0371 2.8067-2.0371 4.7559 0 0.11296 0.0049 0.20438 0.0078 0.30274 0.03912-1.8402 0.61609-3.1402 2.0293-4.5586 1.4487-1.454 3.2662-2.4904 7.2539-4.1387 1.1216-0.46359 2.0109-0.90759 2.2715-1.1328 0.39226-0.33909 0.41658-0.39314 0.29492-0.66016-0.01148-0.0252-0.03135-0.05113-0.04687-0.07617z" color="#000000" fill="#ffffff" fill-opacity=".63712" stop-color="#000000" style="-inkscape-stroke:none;font-variation-settings:normal"/>
</svg>
