<?xml version="1.0" encoding="UTF-8"?>
<svg width="64" height="64" version="1.1" xmlns="http://www.w3.org/2000/svg" xmlns:xlink="http://www.w3.org/1999/xlink">
	<defs>
		<radialGradient id="b-2" cx="31.744" cy="30.855" r="32" gradientTransform="matrix(1.1553,0,0,1.1553,277.45,965.74)" gradientUnits="userSpaceOnUse">
			<stop stop-color="#83444d" offset="0"/>
			<stop stop-color="#4f565e" offset="1"/>
		</radialGradient>
		<radialGradient id="c-3" cx="35.574" cy="1.019" r="32" gradientTransform="matrix(0,1.1252,-5.1753,0,37.271,-39.029)" gradientUnits="userSpaceOnUse" xlink:href="#a-7"/>
		<linearGradient id="a-7">
			<stop stop-color="#a6c7ce" stop-opacity=".04" offset="0"/>
			<stop stop-color="#b8d2d8" stop-opacity=".031373" offset="1"/>
		</linearGradient>
		<radialGradient id="d-2" cx="35.574" cy="1.036" r="32" gradientTransform="matrix(0,1.1252,-5.1753,0,37.363,-39.029)" gradientUnits="userSpaceOnUse" xlink:href="#a-7"/>
		<radialGradient id="e-2" cx="35.574" cy="1.055" r="32" gradientTransform="matrix(0,1.1252,-5.1753,0,37.458,-39.029)" gradientUnits="userSpaceOnUse" xlink:href="#a-7"/>
		<radialGradient id="f-8" cx="35.574" cy="1.071" r="32" gradientTransform="matrix(0,1.1252,-5.1753,0,37.544,-39.029)" gradientUnits="userSpaceOnUse" xlink:href="#a-7"/>
		<radialGradient id="g-9" cx="35.574" cy="1.091" r="32" gradientTransform="matrix(0,1.1252,-5.1753,0,37.648,-39.029)" gradientUnits="userSpaceOnUse" xlink:href="#a-7"/>
		<radialGradient id="h-7" cx="35.574" cy="1.113" r="32" gradientTransform="matrix(0,1.1252,-5.1753,0,37.758,-39.029)" gradientUnits="userSpaceOnUse" xlink:href="#a-7"/>
		<radialGradient id="i-3" cx="35.574" cy="1.135" r="32" gradientTransform="matrix(0,1.1252,-5.1753,0,37.875,-39.029)" gradientUnits="userSpaceOnUse" xlink:href="#a-7"/>
		<radialGradient id="j-6" cx="35.574" cy="1.159" r="32" gradientTransform="matrix(0,1.1252,-5.1753,0,38,-39.029)" gradientUnits="userSpaceOnUse" xlink:href="#a-7"/>
		<radialGradient id="k-1" cx="35.574" cy="1.18" r="32" gradientTransform="matrix(0,1.1252,-5.1753,0,38.107,-39.029)" gradientUnits="userSpaceOnUse" xlink:href="#a-7"/>
		<radialGradient id="l-2" cx="35.574" cy="1.208" r="32" gradientTransform="matrix(0,1.1252,-5.1753,0,38.252,-39.029)" gradientUnits="userSpaceOnUse" xlink:href="#a-7"/>
		<radialGradient id="m-9" cx="35.574" cy="1.239" r="32" gradientTransform="matrix(0,1.1252,-5.1753,0,38.411,-39.029)" gradientUnits="userSpaceOnUse" xlink:href="#a-7"/>
		<radialGradient id="n-3" cx="35.574" cy="1.273" r="32" gradientTransform="matrix(0,1.1252,-5.1753,0,38.587,-39.029)" gradientUnits="userSpaceOnUse" xlink:href="#a-7"/>
		<radialGradient id="o-1" cx="35.574" cy="1.304" r="32" gradientTransform="matrix(0,1.1252,-5.1753,0,38.75,-39.029)" gradientUnits="userSpaceOnUse" xlink:href="#a-7"/>
		<radialGradient id="p-9" cx="35.574" cy="1.346" r="32" gradientTransform="matrix(0,1.1252,-5.1753,0,38.966,-39.029)" gradientUnits="userSpaceOnUse" xlink:href="#a-7"/>
		<radialGradient id="q-4" cx="35.574" cy="1.393" r="32" gradientTransform="matrix(0,1.1252,-5.1753,0,39.208,-39.029)" gradientUnits="userSpaceOnUse" xlink:href="#a-7"/>
		<radialGradient id="r-7" cx="35.574" cy="1.439" r="32" gradientTransform="matrix(0,1.1252,-5.1753,0,39.446,-39.027)" gradientUnits="userSpaceOnUse" xlink:href="#a-7"/>
		<radialGradient id="s-84" cx="32" cy="15.077" r="32" gradientTransform="matrix(2.0435 0 0 .0149 -33.393 1.217)" gradientUnits="userSpaceOnUse">
			<stop stop-color="#fff" stop-opacity=".126" offset="0"/>
			<stop stop-color="#fff" stop-opacity=".001" offset="1"/>
		</radialGradient>
		<radialGradient id="radialGradient3426" cx="31.741" cy="31.676" r="16.945" gradientTransform="matrix(1.1959 0 0 1.5587 -6.2586 -17.879)" gradientUnits="userSpaceOnUse">
			<stop stop-color="#bfcbd1" offset="0"/>
			<stop stop-color="#f8d1d2" offset="1"/>
		</radialGradient>
	</defs>
	<style>#P1{fill:url(#LO)}</style>
	<g transform="translate(346.38,-971.27)">
		<rect transform="scale(-1,1)" x="282.38" y="971.27" width="64" height="64" rx="1" ry="1" fill="url(#b-2)" paint-order="fill markers stroke"/>
		<path transform="translate(-346.38,971.33)" d="m1 0c-0.554 0-1 0.446-1 1v62-0.224 0.224-62h1.752c19.15 2e-3 39.445 0 60.213 0h2.035v62-0.334 0.334-62a0.998 0.998 0 0 0-1-1z" fill="url(#c-3)"/>
		<path transform="translate(-346.38,971.33)" d="m1 0a0.998 0.998 0 0 0-1 1.006v61.98-0.197c0-0.277 4e-3 -0.184 0.01 0.246 0.012 0.016 0.03-0.297 0.052-0.897v-61c0.072-9e-3 0.133-0.013 0.185-0.013 0.29-0.016 0.357-0.032 0.774-0.044 0.246-0.011 0.496-0.019 0.747-0.019 19.183 2e-3 39.392 0 60.2 0 0.346 0 0.689 0.012 1.023 0.03 0.268 0.01 0.389 0.02 0.52 0.033 0.106 0 0.22 0.01 0.427 0.028v60.744c0.027 0.754 0.05 1.148 0.059 1.123l3e-3 -0.334v0.286-61.762c0-0.143 0-0.22-2e-3 -0.224a0.996 0.996 0 0 0-1.012-0.986h-61.986" fill="url(#d-2)"/>
		<path transform="translate(-346.38,971.33)" d="m1 0a0.998 0.998 0 0 0-1 1.006v61.966-0.169c0-0.245 8e-3 -0.145 0.021 0.266 0.022 0.034 0.06-0.247 0.104-0.807v-60.988a0.744 0.744 0 0 1 0.173-0.025c0.27-0.031 0.341-0.064 0.743-0.088 0.242-0.022 0.492-0.037 0.742-0.037 19.217 2e-3 39.34 0 60.187 0 0.347 0 0.69 0.024 1.013 0.06 0.256 0.02 0.372 0.042 0.494 0.065 0.1 0 0.206 0.02 0.398 0.057v60.731c0.055 0.703 0.102 1.052 0.119 1.003 4e-3 -0.154 6e-3 -0.265 6e-3 -0.333v0.237-61.748c0-0.139 0-0.215-3e-3 -0.224a0.994 0.994 0 0 0-0.807-0.952 1.025 1.025 0 0 0-0.217-0.02h-61.973" fill="url(#e-2)"/>
		<path transform="translate(-346.38,971.33)" d="m1 0a0.998 0.998 0 0 0-1 1.005v61.953-0.14c0-0.213 0.012-0.107 0.031 0.287 0.034 0.05 0.091-0.198 0.156-0.718v-60.974a0.45 0.45 0 0 1 0.16-0.037c0.252-0.048 0.327-0.097 0.715-0.132 0.238-0.034 0.487-0.056 0.737-0.056 19.25 2e-3 39.286 0 60.173 0 0.348 0 0.688 0.036 1.001 0.09 0.244 0.029 0.356 0.062 0.47 0.098 0.091 0 0.19 0.03 0.37 0.085v60.718c0.082 0.653 0.151 0.957 0.176 0.884 7e-3 -0.152 0.01-0.262 0.01-0.333v0.188-61.734c0-0.135 0-0.21-4e-3 -0.224a0.992 0.992 0 0 0-0.819-0.94 1.041 1.041 0 0 0-0.217-0.018h-61.96" fill="url(#f-8)"/>
		<path transform="translate(-346.38,971.33)" d="m1 0a0.998 0.998 0 0 0-1 1.005v61.939-0.113c0-0.18 0.015-0.068 0.042 0.308 0.045 0.067 0.121-0.149 0.208-0.629v-60.96a0.312 0.312 0 0 1 0.148-0.05c0.232-0.063 0.311-0.128 0.684-0.176 0.234-0.044 0.483-0.074 0.732-0.074 19.284 2e-3 39.234 0 60.16 0 0.35 0 0.689 0.048 0.991 0.12 0.232 0.039 0.34 0.083 0.444 0.13 0.085 0 0.176 0.04 0.341 0.114v60.704c0.11 0.603 0.203 0.862 0.236 0.764 8e-3 -0.11 0.013-0.222 0.014-0.333v0.14-61.721c0-0.13-2e-3 -0.206-6e-3 -0.224a0.991 0.991 0 0 0-0.83-0.927 1.066 1.066 0 0 0-0.22-0.017h-61.944" fill="url(#g-9)"/>
		<path transform="translate(-346.38,971.33)" d="m1 0a0.998 0.998 0 0 0-1 1.004v61.926-0.084c0-0.148 0.02-0.029 0.052 0.328 0.056 0.084 0.152-0.099 0.26-0.539v-60.949c0.053-0.04 0.097-0.061 0.136-0.061 0.212-0.08 0.297-0.16 0.655-0.22 0.23-0.056 0.477-0.093 0.727-0.093 19.317 2e-3 39.18 0 60.147 0 0.35 0 0.688 0.06 0.98 0.151 0.22 0.047 0.322 0.102 0.418 0.162 0.078 0 0.162 0.049 0.313 0.142v60.69c0.137 0.553 0.253 0.767 0.295 0.645a4.7 4.7 0 0 0 0.017-0.332v0.09-61.705c0-0.126-2e-3 -0.202-7e-3 -0.224a0.99 0.99 0 0 0-0.843-0.914 1.099 1.099 0 0 0-0.218-0.017h-61.932" fill="url(#h-7)"/>
		<path transform="translate(-346.38,971.33)" d="m1 0a0.998 0.998 0 0 0-1 1.004v61.912-0.056c0-0.117 0.023 0.01 0.063 0.349 0.067 0.1 0.182-0.05 0.312-0.45v-60.935c0.048-0.049 0.088-0.074 0.123-0.074 0.193-0.095 0.282-0.192 0.626-0.264 0.225-0.067 0.472-0.11 0.721-0.11h60.133c0.352 0 0.688 0.071 0.97 0.18 0.144 0.033 0.279 0.1 0.393 0.194 0.07 0 0.147 0.059 0.284 0.17v60.68c0.164 0.502 0.304 0.671 0.354 0.524 0.014-0.14 0.02-0.25 0.02-0.331v0.042-61.695c0-0.121-2e-3 -0.197-9e-3 -0.224a0.99 0.99 0 0 0-0.854-0.902 1.142 1.142 0 0 0-0.218-0.014h-61.918" fill="url(#i-3)"/>
		<path transform="translate(-346.38,971.33)" d="m1 0a0.998 0.998 0 0 0-1 1.004v61.898-0.029c0-0.084 0.027 0.049 0.073 0.37 0.079 0.117 0.212 0 0.365-0.36v-60.923c0.043-0.057 0.079-0.086 0.11-0.086 0.174-0.112 0.267-0.225 0.596-0.309a2.19 2.19 0 0 1 0.717-0.129c19.385 2e-3 39.075 0 60.12 0 0.353 0 0.687 0.084 0.958 0.211a0.81 0.81 0 0 1 0.368 0.227c0.063 0 0.132 0.068 0.256 0.199v60.665c0.192 0.452 0.354 0.576 0.413 0.404 0.014-0.11 0.022-0.22 0.024-0.33v-61.687c0-0.117-4e-3 -0.193-0.01-0.224a0.99 0.99 0 0 0-0.868-0.89 1.198 1.198 0 0 0-0.217-0.011h-61.905" fill="url(#j-6)"/>
		<path transform="translate(-346.38,971.33)" d="m1 0a0.998 0.998 0 0 0-1 1.003v61.885c0-0.052 0.03 0.087 0.084 0.39 0.09 0.135 0.242 0.05 0.416-0.27v-60.911c0.038-0.063 0.07-0.097 0.099-0.097 0.154-0.127 0.251-0.257 0.566-0.352 0.217-0.089 0.463-0.148 0.711-0.148 19.418 2e-3 39.022 0 60.107 0 0.355 0 0.687 0.096 0.947 0.242 0.138 0.05 0.257 0.14 0.343 0.258 0.056 0 0.118 0.079 0.227 0.227v60.651c0.22 0.402 0.406 0.482 0.473 0.285 0.018-0.132 0.027-0.243 0.027-0.33v-61.721c0-0.113-4e-3 -0.188-0.012-0.224a0.99 0.99 0 0 0-0.879-0.877 1.273 1.273 0 0 0-0.218-0.011h-61.89" fill="url(#k-1)"/>
		<path transform="translate(-346.38,971.33)" d="m1 0a0.998 0.998 0 0 0-1 1.003v61.899c0-0.02 0.035 0.126 0.094 0.41 0.101 0.152 0.273 0.1 0.468-0.18v-60.897c0.034-0.073 0.062-0.11 0.087-0.11 0.135-0.143 0.236-0.29 0.536-0.397 0.213-0.1 0.459-0.166 0.707-0.166 19.452 2e-3 38.969 0 60.093 0 0.356 0 0.687 0.108 0.936 0.272 0.134 0.06 0.246 0.162 0.317 0.29 0.05 0 0.103 0.089 0.2 0.256v60.64c0.246 0.352 0.455 0.386 0.531 0.165 0.02-0.128 0.03-0.239 0.03-0.33v-61.755c0-0.108-4e-3 -0.184-0.013-0.224a0.99 0.99 0 0 0-0.891-0.864 1.376 1.376 0 0 0-0.218-0.01h-61.877" fill="url(#l-2)"/>
		<path transform="translate(-346.38,971.33)" d="m1 0a0.998 0.998 0 0 0-1 1.002v61.913c0 0.013 0.039 0.165 0.105 0.432 0.112 0.168 0.303 0.148 0.52-0.092v-60.882c0.029-0.081 0.053-0.123 0.074-0.123 0.116-0.159 0.222-0.321 0.507-0.44a1.52 1.52 0 0 1 0.701-0.185c19.486 2e-3 38.916 0 60.08 0 0.357 0 0.687 0.12 0.925 0.302a0.66 0.66 0 0 1 0.292 0.323c0.043 0 0.089 0.098 0.171 0.284v60.626c0.275 0.302 0.507 0.29 0.591 0.046 0.022-0.125 0.034-0.236 0.034-0.33v-61.791c0-0.104-5e-3 -0.18-0.016-0.224a0.99 0.99 0 0 0-0.903-0.852 1.514 1.514 0 0 0-0.218-8e-3h-61.863" fill="url(#m-9)"/>
		<path transform="translate(-346.38,971.33)" d="m1 0a0.998 0.998 0 0 0-1 1.002v61.928c0 0.045 0.042 0.203 0.115 0.453 0.123 0.184 0.333 0.197 0.572-3e-3v-60.87c0.024-0.089 0.045-0.135 0.062-0.135 0.097-0.174 0.207-0.353 0.478-0.484 0.204-0.122 0.448-0.203 0.696-0.203 19.519 2e-3 38.863 0 60.067 0a1.4 1.4 0 0 1 0.914 0.332c0.15 0.103 0.224 0.225 0.267 0.355 0.035 0 0.073 0.108 0.142 0.313v60.612c0.302 0.251 0.557 0.196 0.65-0.074a1.7 1.7 0 0 0 0.037-0.33v-61.825c0-0.1-6e-3 -0.175-0.017-0.224a0.99 0.99 0 0 0-0.915-0.84 1.712 1.712 0 0 0-0.218-7e-3h-61.85" fill="url(#n-3)"/>
		<path transform="translate(-346.38,971.33)" d="m1 0a0.998 0.998 0 0 0-1 1.002v61.942c0 0.077 0.046 0.242 0.126 0.473 0.134 0.201 0.363 0.246 0.624 0.086v-60.856c0.02-0.097 0.035-0.147 0.05-0.147a0.981 0.981 0 0 1 0.447-0.529c0.2-0.133 0.444-0.221 0.691-0.221 19.553 2e-3 38.811 0 60.053 0 0.36 0 0.686 0.144 0.903 0.362a0.688 0.688 0 0 1 0.242 0.388c0.028 0 0.059 0.118 0.114 0.341v60.598c0.33 0.2 0.608 0.1 0.709-0.194 0.026-0.117 0.04-0.228 0.04-0.329v-61.86c0-0.095-6e-3 -0.17-0.018-0.224a0.991 0.991 0 0 0-0.927-0.827 2.015 2.015 0 0 0-0.218-5e-3h-61.836" fill="url(#o-1)"/>
		<path transform="translate(-346.38,971.33)" d="m1 0a0.998 0.998 0 0 0-1 1.001v61.956c0 0.11 0.05 0.281 0.136 0.494 0.146 0.218 0.394 0.296 0.677 0.176v-60.843c0.014-0.105 0.026-0.16 0.036-0.16a0.967 0.967 0 0 1 0.419-0.572c0.196-0.144 0.439-0.24 0.686-0.24 19.586 2e-3 38.758 0 60.04 0 0.36 0 0.685 0.156 0.892 0.392a0.73 0.73 0 0 1 0.216 0.42c0.021 0 0.044 0.128 0.086 0.37v60.585c0.356 0.15 0.658 5e-3 0.768-0.314 0.029-0.114 0.044-0.224 0.044-0.328v-61.895c0-0.09-7e-3 -0.166-0.02-0.224a0.992 0.992 0 0 0-0.94-0.814 2.524 2.524 0 0 0-0.217-5e-3h-61.823" fill="url(#p-9)"/>
		<path transform="translate(-346.38,971.33)" d="m1 0a0.998 0.998 0 0 0-1 1v61.972c0 0.142 0.054 0.32 0.147 0.515 0.156 0.241 0.453 0.35 0.728 0.265v-60.83c0.01-0.114 0.018-0.172 0.025-0.172a0.97 0.97 0 0 1 0.389-0.617c0.192-0.155 0.434-0.258 0.68-0.258 19.62 2e-3 38.705 0 60.027 0 0.362 0 0.686 0.168 0.882 0.422 0.11 0.127 0.176 0.286 0.19 0.453 0.015 0 0.03 0.137 0.057 0.398v60.572c0.385 0.1 0.71-0.09 0.828-0.434 0.03-0.11 0.047-0.22 0.047-0.328v-61.93c0-0.086-7e-3 -0.161-0.021-0.224a0.994 0.994 0 0 0-0.951-0.802 3.563 3.563 0 0 0-0.219-2e-3h-61.809" fill="url(#q-4)"/>
		<path transform="translate(-346.38,971.33)" d="m1 2e-3a0.998 0.998 0 0 0-1 1v61.986c0 0.174 0.058 0.358 0.157 0.535 0.17 0.259 0.473 0.397 0.78 0.355v-60.816c5e-3 -0.122 0.01-0.185 0.013-0.185a0.987 0.987 0 0 1 0.36-0.66c0.187-0.166 0.429-0.277 0.675-0.277 19.653 2e-3 38.652 0 60.013 0 0.363 0 0.685 0.18 0.87 0.452 0.102 0.141 0.16 0.31 0.166 0.485 7e-3 0 0.015 0.147 0.028 0.427v60.558c0.412 0.05 0.76-0.186 0.887-0.553a1.1 1.1 0 0 0 0.05-0.328v-61.965a0.996 0.996 0 0 0-0.985-1.014 6.67 6.67 0 0 0-0.22 0h-61.794" fill="url(#r-7)"/>
		<path transform="translate(-346.38,971.33)" d="m1 2e-3a0.998 0.998 0 0 0-1 1v1h64v-0.998a0.998 0.998 0 0 0-1-1h-62z" fill="url(#s-84)"/>
		<path d="m-346.38 972.27v2.5l2-2zm64 2.5-2-2 2-0.5z" fill="#ccfbff" fill-opacity=".21916"/>
	</g>
	<g fill="#001c1d" fill-opacity=".02" opacity=".46837">
		<path d="m2.1267 63.61 23.028-30.108-23.708-33.104 15.237 0.012597 18.891 26.03-28.245 37.169zm45.071 0.0216-18.761-26.076 28.481-37.184h5.0749l-23.122 30.248 23.564 33.012h-15.239z"/>
		<path d="m5.4809 60.054 20.437-26.72-21.041-29.38 13.523 0.01118 16.765 23.101-25.068 32.988zm40.001 0.0192-16.65-23.143 25.277-33h4.504l-20.52 26.845 20.913 29.298h-13.525z"/>
		<path d="m6.5525 58.917 19.609-25.638-20.189-28.19 12.975 0.01072 16.086 22.166-24.052 31.652zm38.381 0.0184-15.976-22.206 24.253-31.664h4.3216l-19.689 25.758 20.066 28.112h-12.977z"/>
		<path d="m7.3318 58.091 19.008-24.851-19.569-27.325 12.577 0.0104 15.593 21.485-23.314 30.68zm37.203 0.0179-15.486-21.524 23.508-30.692h4.1889l-19.085 24.967 19.45 27.249h-12.579z"/>
		<path d="m7.9666 57.418 18.517-24.21-19.064-26.62 12.253 0.01013 15.19 20.931-22.712 29.889zm36.243 0.0173-15.086-20.969 22.902-29.9h4.0809l-18.593 24.323 18.949 26.546h-12.254z"/>
		<path d="m8.5118 56.84 18.096-23.66-18.631-26.014 11.974 0.0099 14.845 20.455-22.196 29.209zm35.419 0.017-14.743-20.492 22.381-29.22h3.988l-18.17 23.77 18.518 25.942h-11.976z"/>
		<path d="m8.9949 56.328 17.723-23.172-18.247-25.478 11.727 0.00969 14.539 20.033-21.738 28.607zm34.688 0.0166-14.439-20.069 21.92-28.618h3.9058l-17.795 23.28 18.136 25.407h-11.728z"/>
		<path d="m9.4317 55.865 17.386-22.731-17.899-24.993 11.504 0.00951 14.262 19.652-21.324 28.062zm34.028 0.0163-14.164-19.687 21.502-28.073h3.8315l-17.456 22.837 17.79 24.924h-11.505z"/>
		<path d="m9.8325 55.44 17.076-22.326-17.581-24.548 11.299 0.00934 14.008 19.302-20.945 27.563zm33.422 0.016-13.912-19.337 21.12-27.573h3.7632l-17.146 22.43 17.474 24.48h-11.3z"/>
		<path d="m10.204 55.046 16.789-21.951-17.285-24.135 11.109 0.00919 13.773 18.978-20.593 27.099zm32.86 0.0157-13.678-19.012 20.765-27.11h3.6999l-16.857 22.053 17.18 24.068h-11.11z"/>
		<path d="m10.552 54.677 16.52-21.6-17.008-23.749 10.932 0.00904 13.552 18.674-20.263 26.666zm32.335 0.0155-13.459-18.708 20.432-26.676h3.6408l-16.588 21.7 16.905 23.683h-10.933z"/>
		<path d="m10.879 54.33 16.268-21.269-16.748-23.386 10.764 0.0089 13.345 18.388-19.953 26.257zm31.84 0.0153-13.253-18.421 20.12-26.268h3.5851l-16.334 21.368 16.646 23.321h-10.765z"/>
		<path d="m11.189 54.002 16.028-20.956-16.502-23.041 10.606 0.0087 13.148 18.118-19.659 25.871zm31.371 0.015-13.058-18.15 19.824-25.881h3.5323l-16.093 21.054 16.401 22.978h-10.607z"/>
		<path d="m11.484 53.689 15.8-20.658-16.267-22.714 10.455 0.0087 12.962 17.86-19.38 25.503zm30.925 0.0148-12.873-17.892 19.542-25.513h3.4821l-15.865 20.754 16.168 22.651h-10.456z"/>
		<path d="m11.766 53.39 15.583-20.374-16.043-22.401 10.311 0.0085 12.783 17.614-19.113 25.152zm30.5 0.0146-12.696-17.646 19.273-25.162h3.4342l-15.646 20.469 15.946 22.339h-10.312z"/>
		<path d="m12.036 53.104 15.375-20.101-15.829-22.102 10.173 0.0084 12.612 17.379-18.858 24.816zm30.092 0.0144-12.526-17.41 19.015-24.826h3.3882l-15.437 20.195 15.733 22.041h-10.174z"/>
		<path d="m12.295 52.83 15.174-19.84-15.623-21.814 10.041 0.0083 12.448 17.152-18.612 24.493zm29.7 0.0143-12.363-17.183 18.768-24.503h3.3441l-15.236 19.932 15.528 21.754h-10.042z"/>
		<path d="m12.544 52.565 14.982-19.588-15.424-21.537 9.9133 0.0082 12.29 16.935-18.376 24.182zm29.323 0.0141-12.206-16.965 18.529-24.191h3.3017l-15.043 19.679 15.331 21.477h-9.9144z"/>
		<path d="m12.785 52.31 14.796-19.344-15.233-21.27 9.7902 0.0081 12.137 16.724-18.148 23.882zm28.959 0.0139-12.054-16.754 18.299-23.891h3.2606l-14.856 19.435 15.14 21.211h-9.7913z"/>
		<path d="m13.018 52.063 14.616-19.109-15.047-21.011 9.671 8e-3 11.99 16.521-17.927 23.591zm28.606 0.0137-11.908-16.551 18.076-23.6h3.2211l-14.675 19.198 14.956 20.953h-9.6721z"/>
		<path d="m13.244 51.823 14.441-18.881-14.868-20.76 9.5556 0.0079 11.847 16.324-17.713 23.31zm28.265 0.0136-11.765-16.353 17.861-23.319h3.1826l-14.5 18.969 14.778 20.703h-9.5568z"/>
		<path d="m13.463 51.591 14.272-18.66-14.694-20.517 9.4437 0.0078 11.708 16.132-17.505 23.036zm27.934 0.0134-11.628-16.161 17.652-23.045h3.1452l-14.33 18.747 14.604 20.46h-9.4448z"/>
		<path d="m13.676 51.365 14.108-18.445-14.524-20.28 9.3348 0.0077 11.573 15.947-17.304 22.771zm27.612 0.0132-11.494-15.975 17.448-22.78h3.109l-14.165 18.531 14.436 20.224h-9.3359z"/>
		<path d="m13.883 51.146 13.948-18.236-14.36-20.05 9.2289 0.0077 11.442 15.766-17.107 22.513zm27.299 0.0131-11.363-15.794 17.25-22.521h3.0738l-14.004 18.321 14.272 19.995h-9.23z"/>
		<path d="m14.085 50.932 13.792-18.032-14.199-19.826 9.1258 0.0075 11.314 15.59-16.916 22.261zm26.994 0.013-11.236-15.618 17.057-22.27h3.0394l-13.848 18.116 14.113 19.771h-9.1269z"/>
		<path d="m14.282 50.723 13.64-17.833-14.042-19.608 9.0252 0.0074 11.189 15.418-16.73 22.016zm26.696 0.0128-11.112-15.445 16.869-22.024h3.0059l-13.695 17.916 13.957 19.553h-9.0262z"/>
		<path d="m14.474 50.519 13.491-17.639-13.89-19.394 8.9269 0.0074 11.067 15.25-16.548 21.776zm26.406 0.0126-10.991-15.277 16.686-21.784h2.9732l-13.546 17.721 13.805 19.34h-8.928z"/>
		<path d="m14.662 50.32 13.346-17.449-13.74-19.186 8.8309 0.0073 10.948 15.086-16.37 21.542zm26.122 0.0126-10.873-15.113 16.506-21.55h2.9413l-13.4 17.531 13.657 19.133h-8.832z"/>
		<path d="m14.846 50.125 13.204-17.264-13.594-18.982 8.7371 0.0072 10.832 14.925-16.196 21.313zm25.844 0.0124-10.758-14.952 16.331-21.321h2.9099l-13.258 17.344 13.512 18.929h-8.7382z"/>
		<path d="m15.025 49.935 13.065-17.082-13.451-18.782 8.6452 0.0071 10.718 14.768-16.025 21.089zm25.572 0.0123-10.644-14.795 16.159-21.097h2.8794l-13.118 17.162 13.37 18.73h-8.6463z"/>
		<path d="m15.201 49.748 12.929-16.904-13.311-18.587 8.5553 0.0071 10.606 14.615-15.858 20.869zm25.306 0.0121-10.534-14.641 15.991-20.877h2.8494l-12.982 16.983 13.23 18.535h-8.5563z"/>
		<path d="m15.374 49.565 12.796-16.73-13.174-18.395 8.467 7e-3 10.497 14.464-15.695 20.654zm25.045 0.012-10.425-14.49 15.826-20.662h2.82l-12.848 16.808 13.094 18.344h-8.468z"/>
	</g>
	<g transform="translate(0 .5)">
		<path d="m15.374 49.565 12.796-16.73-13.174-18.395 8.467 7e-3 10.497 14.464-15.695 20.654zm25.045 0.012-10.425-14.49 15.826-20.662h2.82l-12.848 16.808 13.094 18.344h-8.468z" color="#000000" fill="url(#radialGradient3426)"/>
		<path d="m45.82 14.426-11.859 15.484-3.9512 5.1992 0.35547 0.49414 15.455-20.178h2.0566l0.76367-1zm-30.824 0.01367 0.7168 1 7.75 0.0078 10.127 13.951 0.37109-0.48828-10.498-14.463zm21.166 17.311-0.36914 0.48242 12.381 17.344h0.71289zm-8.3613 1.5703-12.428 16.244h0.76562l12.031-15.729z" fill="#ffffff" fill-opacity=".57384"/>
		<g transform="matrix(1.0948 0 0 1.0948 -3.0347 -3.3196)" fill-opacity=".066042" stroke-width=".91338">
			<path d="m31.998 18.711c-1.1431 0-2.2964 0.0855-3.3203 0.1836-0.0273 0.0027-0.0546 0.0057-0.0817 0.0093-0.8409 0.1095-1.5657 0.6524-1.9058 1.4336-0.3511 0.8065-0.237 1.7399 0.2981 2.438 0.8099 1.0554 1.5562 2.0368 2.2915 3.0062 0.844 1.1127 1.6735 2.2096 2.5679 3.3844 0.4013 0.5248 0.9797 0.8429 1.5927 0.9272 0.5313 0.0731 1.0887-0.0294 1.5791-0.3252 0.2408-0.1452 0.448-0.3265 0.6181-0.5331 0.5761-0.6993 0.7283-1.6888 0.3292-2.5533-0.435-0.9359-0.877-1.5496-1.2949-2.1914 0.3066 0.0156 0.6132 0.0321 0.9182 0.0517 0.2567 0.0165 0.5123 0.0351 0.766 0.0572 0.761 0.0664 1.5042 0.1638 2.2064 0.3267 0.5257-0.0185 1.031-0.2077 1.4395-0.5391 0.2212 0.6108 0.6786 1.107 1.2695 1.377 0.8596 0.3366 1.6534 0.7199 2.3771 1.1416l6e-4 3e-4m0.6174 0.3802c2.8993 1.8851 4.5107 4.4225 4.5107 6.9915 0 2.3532-1.2895 4.6159-3.7721 6.4697-0.1194 0.0892-0.2416 0.1775-0.3665 0.2647-2.7221 1.9011-6.6803 3.1758-11.096 3.1758-4.416 0-8.3767-1.2746-11.1-3.1758-0.6522-0.4553-1.2294-0.9374-1.7301-1.4411-1.5898-1.5996-2.4086-3.4179-2.4086-5.2933 0-2.6875 1.6995-5.2826 4.8965-7.2304 0.5601-0.3413 0.9577-0.8954 1.1016-1.5353 0.144-0.64 0.022-1.3109-0.338-1.8593l-1.1406-1.7382c-0.6417-0.9784-1.8916-1.3575-2.9687-0.9004-0.5286 0.2241-1.0459 0.4641-1.5503 0.7193-4.0997 2.0747-7.3423 5.1556-8.7898 8.8841-0.27585 0.7105-0.48651 1.4445-0.62549 2.1996-0.12928 0.7024-0.19654 1.423-0.19654 2.1599 0 4.8206 2.9451 9.0117 7.1972 11.842 0.312 0.2076 0.6315 0.4089 0.9582 0.6036 4.1265 2.4594 9.403 3.8749 15.147 3.8749 5.2476 0 10.105-1.1811 14.052-3.26 0.7161-0.3772 1.4024-0.7839 2.0555-1.2185 4.2534-2.8301 7.2012-7.021 7.2012-11.842 0-4.5551-2.5598-8.4846-6.4675-11.33-1.6082-1.1713-3.4447-2.159-5.4251-2.9313-0.6228-0.0556-1.2429 0.132-1.7305 0.5235-0.234-0.7477-0.8155-1.3357-1.5605-1.5781-2.5712-0.661-5.3036-0.9491-8.121-0.9493h-0.0021" fill="#f40951"/>
			<path d="m31.998 19.323c-1.1054 0-2.2349 0.0829-3.243 0.1791-0.0268 0.0026-0.0534 0.0055-0.08 0.0087-0.5072 0.2393-0.9333 0.7956-1.0751 1.5264-0.1405 0.7623 0.0631 1.6153 0.5808 2.2925 0.7767 1.015 1.5057 1.9746 2.2367 2.9375 0.4898 0.5284 0.8806 1.0524 1.4209 1.6871 0.2123 0.2255 0.6043 0.3214 1.1305 0.282 0.4821-0.0728 1.0204-0.2007 1.4888-0.4412 0.2772-0.1272 0.511-0.2526 0.6494-0.4069 0.6417-0.5222 0.9635-1.2509 0.8692-1.8766-0.1271-0.6797-0.2636-1.1097-0.3872-1.5523 0.2986 0.0252 0.5964 0.0522 0.8923 0.0827 0.1917 0.0123 0.4865-0.1168 0.6759-0.1003 0.4048 0.0075 0.7925 0.0445 1.1461 0.1365 0.2755-0.0341 0.5342-0.1929 0.7191-0.4551 0.0205 0.4383 0.2152 0.7951 0.5077 0.9868 0.4429 0.238 0.8333 0.5178 1.1686 0.8327l5e-4 3e-4m3.1285 0.7495c2.1652 1.4078 3.2729 3.4395 3.2729 5.3581 0.6724 2.0206 0.2747 4.0917-1.1786 5.9352 0.3237 0.5397 0.4705 1.1613 0.3772 1.8207-2.0329 1.4544-4.9897 2.441-8.2887 2.4754-3.338 0.857-6.8313 0.675-9.7018-0.1971-1.1679 0.1055-2.4795 0.044-3.8293-0.2535-1.3572-1.1808-2.1415-2.5316-2.3167-3.9322-0.4749-2.0071 0.3366-3.9969 2.2946-5.5475-0.3183-0.4194-0.6752-1.1275-1.0833-1.991-0.0141-0.5689-0.2192-1.166-0.5936-1.6761-0.1099-0.1048-1.0625-1.5127-1.1533-1.6268-0.5805-0.8579-1.6028-1.2736-2.4825-1.0696-0.5211-0.0626-0.9959-0.1265-1.4177-0.1883-3.0846 1.4214-5.518 3.5917-6.599 6.2439-0.206-0.4082 0.2307-0.7027 1.0665-0.7113-0.0966 0.5246-0.4354 0.6225-0.4354 1.1727-0.1563 3.6664 1.8925 6.8678 4.9235 9.0578-0.8909 0.7496-1.4047 1.7918-1.2715 2.9477 3.0723 1.9225 7.008 3.0662 11.298 3.1536 3.919 1.132 8.35 1.2575 12.546 0.3488 1.4293 0.1798 3.0644 0.1509 4.7706-0.1737 3.3619-2.1135 5.7466-5.2497 5.9271-8.8623 1.215-3.4853 0.3967-6.7775-1.6919-9.4401-0.2135-1.5142-0.9713-3.1457-2.4503-4.7112-0.4651-0.5178-1.0704-0.832-1.6922-0.954-0.2485-0.677-0.766-1.2315-1.4144-1.5242-2.0299-0.6268-4.1929-0.9699-6.4307-1.092-0.4295-0.391-0.9771-0.721-1.6078-0.9667h2e-4" fill="#f4393e"/>
			<path d="m31.998 19.519c-1.0933 0-2.2153 0.082-3.2183 0.1777-0.0266 0.0025-0.0531 0.0054-0.0795 0.0085-0.4006 0.2807-0.7312 0.8413-0.8097 1.556-0.0731 0.7481 0.159 1.5755 0.6712 2.2461 0.766 1.002 1.4895 1.9546 2.2192 2.9155 0.3765 0.3417 0.6272 0.6826 1.0544 1.1448 0.1519 0.1299 0.4843 0.1548 0.9829 0.0759 0.4663-0.1196 0.9986-0.2554 1.4598-0.4784 0.2889-0.1214 0.5312-0.2289 0.6595-0.3665 0.6627-0.4657 1.0386-1.111 1.0417-1.6604-0.0288-0.5979-0.0676-0.9692-0.0972-1.3481 0.296 0.0283 0.5911 0.0587 0.8841 0.0926 0.1709 0.0109 0.4781-0.1654 0.647-0.1507 0.2911-0.0113 0.5652 0.0065 0.8073 0.0758 0.1956-0.0391 0.3756-0.1882 0.4891-0.4283-0.0437 0.3833 0.0671 0.6955 0.2642 0.8621 0.3098 0.2066 0.5713 0.4533 0.7825 0.7341l4e-4 2e-4m3.9308 0.8676c1.9307 1.2553 2.8775 3.1254 2.8775 4.8361 0.8872 1.9145 0.7745 3.9243-0.35 5.7644 0.4654 0.6837 0.6981 1.4757 0.6149 2.3179-1.8127 1.3118-4.4496 2.2062-7.3919 2.2517-2.9936 1.1308-6.3375 1.2979-9.2552 0.7546-1.3327 0.2847-2.8789 0.3576-4.5 0.126-1.2829-1.0471-2.0562-2.2485-2.2873-3.4974-0.6266-1.7897-0.0989-3.5861 1.4633-5.0097-0.599-0.4444-1.1969-1.2017-1.7814-2.1366-0.0647-0.5462-0.2963-1.1198-0.6753-1.6177-0.145-0.1382-1.0375-1.4406-1.1574-1.5911-0.5609-0.8194-1.5105-1.2469-2.3272-1.1236-0.5186-0.1543-0.9798-0.3153-1.3753-0.4785-2.7602 1.2127-4.9351 3.0922-5.899 5.4004-0.1837-0.7656 0.4598-1.3887 1.6071-1.6413-0.0861 0.4678-0.5118 0.3667-0.5118 0.8573-0.2061 3.2975 1.5563 6.1828 4.1972 8.1682-1.2753 0.9229-2.0553 2.2338-1.984 3.6968 2.7354 1.7509 6.2428 2.8078 10.068 2.9231 3.4944 1.4937 7.7894 2.0366 12.065 1.5019 1.6572 0.3577 3.5954 0.4494 5.6381 0.16 3.0771-1.8845 5.2818-4.6837 5.5201-7.9103 1.6031-3.1435 1.3413-6.2321-0.1662-8.8361 0.2321-1.6237-0.181-3.4609-1.4997-5.28-0.4147-0.6654-1.0153-1.1398-1.68-1.426-0.2531-0.6543-0.7502-1.1981-1.3677-1.5069-1.857-0.6159-3.838-0.9765-5.8907-1.1376-0.5664-0.516-1.2888-0.9515-2.1208-1.2757h3e-4" fill="#f44838"/>
			<path d="m31.998 19.661c-1.0846 0-2.201 0.0814-3.2003 0.1767-0.0265 0.0025-0.0529 0.0053-0.0791 0.0084-0.3231 0.3108-0.5844 0.8745-0.6167 1.5775-0.0242 0.7379 0.2286 1.5465 0.7368 2.2123 0.7584 0.9926 1.4778 1.9401 2.2065 2.8995 0.2942 0.206 0.443 0.4138 0.788 0.7504 0.1079 0.0604 0.397 0.0337 0.8754-0.074 0.4549-0.1534 0.9827-0.2952 1.4388-0.5052 0.2974-0.1173 0.5459-0.2118 0.6668-0.3372 0.6779-0.4246 1.0933-1.0093 1.1672-1.5033 0.0428-0.5383 0.0749-0.8669 0.1137-1.1995 0.2941 0.0305 0.5871 0.0633 0.878 0.0997 0.1559 0.01 0.4722-0.2007 0.6262-0.1872 0.2083-0.025 0.3997-0.0213 0.5609 0.0316 0.1375-0.0428 0.2601-0.1848 0.3217-0.4088-0.0904 0.3432-0.0406 0.623 0.0872 0.7714 0.213 0.1837 0.3808 0.4063 0.5017 0.6624l4e-4 2e-4m4.5143 0.9533c1.7601 1.1444 2.5898 2.897 2.5898 4.4566 1.0435 1.8372 1.1379 3.8025 0.2526 5.6403 0.5683 0.7883 0.8635 1.7043 0.7877 2.6794-1.6526 1.208-4.0568 2.0355-6.7398 2.0889-2.7431 1.33-5.9784 1.7509-8.9304 1.4467-1.4525 0.415-3.1693 0.5856-4.9877 0.402-1.2289-0.9498-1.9941-2.0427-2.266-3.1812-0.7369-1.6316-0.4154-3.2874 0.8588-4.6187-0.803-0.4625-1.5763-1.2557-2.289-2.2425-0.1014-0.5297-0.3523-1.0861-0.7347-1.5751-0.1705-0.1626-1.0194-1.3882-1.1603-1.5653-0.5467-0.7913-1.4434-1.2273-2.2143-1.1629-0.5168-0.2209-0.9681-0.4525-1.3445-0.6893-2.5244 1.0609-4.5112 2.7288-5.39 4.787-0.1674-1.0256 0.6265-1.8876 2.0002-2.3176-0.0785 0.4264-0.5672 0.1806-0.5672 0.6279-0.2424 3.0293 1.3117 5.6847 3.6688 7.5214-1.5547 1.0487-2.5283 2.5551-2.502 4.2414 2.4906 1.6262 5.6864 2.6199 9.1736 2.7555 3.1857 1.7567 7.3817 2.6031 11.715 2.3403 1.8228 0.4872 3.9816 0.6667 6.2689 0.4028 2.87-1.718 4.9439-4.2721 5.2241-7.218 1.8854-2.895 2.0282-5.8355 0.9433-8.3969 0.5562-1.7034 0.3937-3.6902-0.8085-5.6936-0.3781-0.7728-0.9752-1.3638-1.6711-1.7692-0.2565-0.638-0.7387-1.174-1.3338-1.4944-1.7312-0.608-3.5799-0.9814-5.4979-1.1708-0.6661-0.6069-1.5155-1.119-2.494-1.5003h4e-4" fill="#f45334"/>
			<path d="m31.998 19.777c-1.0774 0-2.1894 0.0808-3.1857 0.1757-0.0264 0.0025-0.0526 0.0053-0.0788 0.0083-0.2599 0.3354-0.4646 0.9016-0.4595 1.5951 0.0157 0.7295 0.2855 1.523 0.7904 2.1848 0.7521 0.9849 1.4682 1.9283 2.1962 2.8864 0.2271 0.0955 0.2928 0.1948 0.5708 0.4293 0.0722 0.0037 0.326-0.065 0.788-0.1961 0.4455-0.1811 0.9698-0.3276 1.4217-0.5273 0.3042-0.1138 0.5578-0.1977 0.6727-0.3132 0.6903-0.3911 1.1378-0.9264 1.2694-1.3753 0.101-0.4898 0.1909-0.7836 0.2855-1.0785 0.2926 0.0323 0.5839 0.0671 0.8731 0.1056 0.1436 0.0092 0.4672-0.2295 0.6091-0.2171 0.1409-0.0361 0.265-0.0438 0.3602-0.0043 0.0902-0.0458 0.1662-0.182 0.1854-0.393-0.1283 0.3106-0.1283 0.564-0.057 0.6977 0.1342 0.165 0.2256 0.368 0.2731 0.6038l3e-4 2e-4m4.9895 1.0233c1.6212 1.054 2.3556 2.7109 2.3556 4.1474 1.1707 1.7743 1.4339 3.7033 0.7433 5.5391 0.6523 0.8736 0.9984 1.8905 0.9285 2.9739-1.5221 1.1235-3.7368 1.8965-6.2085 1.9564-2.5391 1.4921-5.6859 2.1199-8.6658 2.0104-1.5502 0.5212-3.4059 0.7714-5.385 0.6268-1.1849-0.8706-1.9436-1.875-2.2486-2.9236-0.8268-1.5028-0.6734-3.0441 0.3664-4.3002-0.9694-0.4773-1.8854-1.2996-2.7026-2.3288-0.1313-0.5162-0.398-1.0586-0.783-1.5404-0.1914-0.1825-1.0046-1.3455-1.1628-1.5442-0.535-0.7685-1.3887-1.2114-2.1222-1.1949-0.5155-0.2752-0.9587-0.5643-1.3194-0.8611-2.3323 0.9372-4.166 2.4329-4.9754 4.2873-0.1542-1.2373 0.7622-2.294 2.3204-2.8685-0.0723 0.3928-0.6124 0.0291-0.6124 0.4411-0.272 2.8109 1.1125 5.2789 3.2385 6.9945-1.7824 1.1513-2.9137 2.8168-2.924 4.685 2.291 1.5246 5.2331 2.4669 8.4451 2.619 2.9342 1.9709 7.0496 3.0647 11.43 3.0234 1.9578 0.5926 4.2962 0.8435 6.7828 0.6005 2.7013-1.5825 4.6686-3.937 4.983-6.6542 2.1153-2.6925 2.5877-5.5124 1.8471-8.0391 0.8201-1.7683 0.8618-3.877-0.2455-6.0305-0.3483-0.8602-0.9426-1.5462-1.6639-2.0488-0.2592-0.6246-0.7293-1.1542-1.3061-1.4842-1.6288-0.6015-3.3697-0.9853-5.1781-1.1978-0.7472-0.6809-1.7001-1.2555-2.7978-1.6832h5e-4" fill="#f45c31"/>
			<path d="m31.998 19.877c-1.0713 0-2.1794 0.0805-3.1732 0.1751-0.0262 0.0025-0.0524 0.0052-0.0784 0.0082-0.2057 0.3564-0.3619 0.9248-0.3245 1.6101 0.05 0.7223 0.3342 1.5027 0.8363 2.1611 0.7467 0.9784 1.4601 1.9183 2.1873 2.8753 0.1695 5e-4 0.164 0.0067 0.3844 0.1534 0.0414-0.0449 0.2649-0.1498 0.7128-0.301 0.4376-0.2048 0.9587-0.3555 1.407-0.5461 0.3102-0.1109 0.5681-0.1858 0.6779-0.2928 0.7009-0.3622 1.176-0.8552 1.3571-1.2652 0.1511-0.4481 0.2907-0.7121 0.4331-0.9747 0.2913 0.0339 0.5812 0.0704 0.8689 0.1107 0.133 0.0085 0.463-0.2542 0.5944-0.2427 0.083-0.0456 0.1494-0.0632 0.1879-0.0353 0.0495-0.0482 0.0854-0.1795 0.0683-0.3793-0.161 0.2826-0.2037 0.5134-0.1808 0.6343 0.0664 0.149 0.0922 0.3352 0.0765 0.5536l4e-4 2e-4m5.3976 1.0833c1.5019 0.9765 2.1544 2.5512 2.1544 3.8819 1.28 1.7203 1.6882 3.6182 1.165 5.4523 0.7243 0.9468 1.1141 2.0504 1.0494 3.2268-1.4101 1.0508-3.462 1.777-5.7523 1.8425-2.3638 1.6315-5.4347 2.4368-8.4386 2.4947-1.634 0.6123-3.6091 0.9308-5.7262 0.8198-1.1471-0.8025-1.9002-1.731-2.2337-2.7024-0.904-1.3922-0.8949-2.8351-0.0565-4.0266-1.1122-0.49-2.1508-1.3374-3.0578-2.4029-0.157-0.5047-0.4372-1.0351-0.8246-1.5107-0.2092-0.1994-0.9918-1.3088-1.1647-1.526-0.5252-0.749-1.3418-1.1978-2.0433-1.2224-0.5142-0.3218-0.9505-0.6603-1.2978-1.0087-2.1673 0.8311-3.8694 2.1787-4.6193 3.8582-0.1429-1.4192 0.8788-2.643 2.5955-3.3417-0.067 0.3639-0.6513-0.101-0.6513 0.2807-0.2974 2.6232 0.9414 4.9303 2.8689 6.5419-1.9779 1.2394-3.2446 3.0416-3.2864 5.066 2.1196 1.4373 4.8437 2.3354 7.8193 2.5018 2.7183 2.1549 6.7644 3.461 11.185 3.61 2.0737 0.6831 4.5663 0.9954 7.2241 0.7703 2.5563-1.466 4.4321-3.649 4.7759-6.1698 2.3128-2.5186 3.0682-5.235 2.6233-7.7318 1.0469-1.8241 1.264-4.0374 0.2381-6.3199-0.3226-0.9354-0.9145-1.7029-1.6576-2.2889-0.2616-0.6131-0.7213-1.1373-1.2824-1.4755-1.5408-0.5959-3.1891-0.9887-4.9033-1.221-0.8169-0.7444-1.8587-1.3727-3.0588-1.8404h5e-4" fill="#f4642e"/>
			<path d="m31.998 19.965c-1.0659 0-2.1706 0.0801-3.162 0.1744-0.0262 0.0025-0.0523 0.0052-0.0782 0.0082-0.1576 0.3751-0.2708 0.9454-0.2049 1.6234 0.0803 0.716 0.3775 1.4848 0.8771 2.1402 0.7418 0.9725 1.4527 1.9093 2.1793 2.8654 0.1186-0.0836 0.0498-0.1599 0.2193-0.0911 0.0141-0.088 0.2108-0.2249 0.6462-0.3938 0.4305-0.2259 0.9489-0.3802 1.394-0.5629 0.3154-0.1083 0.5771-0.1751 0.6823-0.2746 0.7105-0.3367 1.2099-0.7921 1.4349-1.1677 0.1955-0.4113 0.3791-0.6488 0.5639-0.8827 0.2901 0.0353 0.5787 0.0733 0.8651 0.1151 0.1237 8e-3 0.4593-0.276 0.5815-0.2653 0.0317-0.0541 0.0468-0.0804 0.0352-0.0627 0.0134-0.0505 0.0138-0.1774-0.0355-0.3672-0.1899 0.2577-0.2704 0.4684-0.2905 0.578 0.0064 0.1349-0.0259 0.3061-0.0975 0.5092l3e-4 2e-4m5.7593 1.1365c1.3961 0.9077 1.9761 2.4096 1.9761 3.6467 1.3769 1.6723 1.9135 3.5426 1.5385 5.3752 0.7881 1.0117 1.2167 2.1921 1.1565 3.451-1.3108 0.9865-3.2185 1.6711-5.348 1.7416-2.2086 1.7549-5.2121 2.7176-8.2373 2.9236-1.7082 0.6931-3.7891 1.0722-6.0285 0.9909-1.1136-0.7422-1.8618-1.6033-2.2205-2.5064-0.9724-1.2942-1.0912-2.6498-0.4312-3.7842-1.2387-0.5013-2.386-1.3708-3.3724-2.4685-0.1798-0.4944-0.472-1.0142-0.8615-1.4843-0.225-0.2146-0.9806-1.2763-1.1665-1.51-0.5164-0.7316-1.3002-1.1857-1.9732-1.2468-0.5132-0.3631-0.9434-0.7453-1.2788-1.1394-2.0211 0.737-3.6067 1.9535-4.3037 3.478-0.1329-1.5803 0.982-2.9523 2.8391-3.7609-0.0623 0.3382-0.6857-0.2164-0.6857 0.1385-0.3199 2.4569 0.7898 4.6216 2.5415 6.1409-2.1512 1.3175-3.5379 3.2408-3.6076 5.4037 1.9678 1.3599 4.4988 2.2189 7.2649 2.3978 2.527 2.318 6.5118 3.8123 10.968 4.1298 2.1765 0.7633 4.8057 1.1301 7.6152 0.9208 2.4279-1.3628 4.2226-3.3939 4.5924-5.7408 2.4877-2.3645 3.494-4.9891 3.3111-7.4595 1.2477-1.8734 1.6201-4.1795 0.6665-6.5762-0.2999-1.0019-0.8897-1.8417-1.6521-2.5018-0.2637-0.6029-0.7141-1.1222-1.2614-1.4676-1.4628-0.591-3.0291-0.9917-4.6598-1.2416-0.8787-0.8007-1.9993-1.4765-3.2901-1.9796h5e-4" fill="#f46b2b"/>
			<path d="m31.998 20.045c-1.0609 0-2.1626 0.0797-3.152 0.1738-0.0261 0.0025-0.052 0.0052-0.078 0.0081-0.1141 0.392-0.1884 0.9641-0.0966 1.6355 0.1077 0.7102 0.4165 1.4686 0.9139 2.1213 0.7375 0.9672 1.4461 1.9011 2.1722 2.8564 0.0724-0.1597-0.0535-0.3107 0.0698-0.3122-0.0104-0.1269 0.162-0.2927 0.5861-0.4778 0.424-0.2449 0.94-0.4025 1.3822-0.578 0.3201-0.106 0.5853-0.1654 0.6864-0.2581 0.719-0.3137 1.2406-0.7352 1.5053-1.0797 0.2355-0.3778 0.4589-0.5915 0.682-0.7993 0.2891 0.0365 0.5766 0.0759 0.8618 0.1191 0.1152 0.0074 0.4559-0.2958 0.5697-0.2859-0.0147-0.0618-0.0458-0.0958-0.1029-0.0874-0.0191-0.0525-0.0508-0.1755-0.1292-0.3563-0.2161 0.2353-0.3308 0.4278-0.3898 0.5272-0.0479 0.122-0.1327 0.2798-0.2549 0.469l3e-4 1e-4m6.0864 1.1846c1.3005 0.8456 1.8148 2.2816 1.8148 3.434 1.4645 1.629 2.1173 3.4744 1.8763 5.3056 0.8458 1.0704 1.3094 2.3203 1.2534 3.6536-1.2211 0.9284-2.9984 1.5755-4.9825 1.6505-2.0682 1.8664-5.0108 2.9715-8.0552 3.3115-1.7755 0.7661-3.952 1.2-6.3019 1.1455-1.0833-0.6876-1.827-1.4879-2.2085-2.3291-1.0343-1.2056-1.2687-2.4824-0.7701-3.565-1.3531-0.5115-2.5986-1.401-3.657-2.5279-0.2004-0.4852-0.5033-0.9953-0.8947-1.4605-0.2393-0.2281-0.9704-1.2469-1.1682-1.4954-0.5084-0.7159-1.2626-1.1748-1.9099-1.2688-0.5122-0.4005-0.9368-0.8223-1.2615-1.2576-1.8889 0.6518-3.3691 1.7498-4.0184 3.1341-0.1238-1.726 1.0754-3.2319 3.0594-4.14-0.058 0.3151-0.7168-0.3206-0.7168 0.0099-0.3402 2.3067 0.6528 4.3424 2.2454 5.7784-2.3078 1.3881-3.8031 3.4209-3.898 5.7089 1.8306 1.2901 4.187 2.1137 6.7637 2.304 2.3538 2.4653 6.2832 4.1298 10.772 4.5997 2.2693 0.8359 5.0222 1.2518 7.9688 1.0569 2.3118-1.2695 4.0332-3.1633 4.4264-5.3528 2.646-2.2251 3.8791-4.7667 3.9331-7.2133 1.4294-1.9181 1.9423-4.308 1.0539-6.808-0.2793-1.0621-0.8672-1.9672-1.6471-2.6942-0.2656-0.5937-0.7077-1.1087-1.2423-1.4606-1.3924-0.5866-2.8845-0.9944-4.4397-1.2602-0.9346-0.8516-2.1264-1.5704-3.4993-2.1055h6e-4" fill="#f47129"/>
			<path d="m31.998 20.118c-1.0564 0-2.1552 0.0794-3.1427 0.1733-0.026 0.0024-0.052 0.0051-0.0778 8e-3 -0.0743 0.4075-0.1129 0.9811 0.0026 1.6466 0.1329 0.7049 0.4524 1.4536 0.9477 2.1039 0.7335 0.9624 1.4401 1.8936 2.1656 2.8482 0.0301-0.2296-0.1482-0.449-0.0672-0.515-0.033-0.1627 0.1171-0.3551 0.5309-0.555 0.4181-0.2623 0.9318-0.4229 1.3714-0.5918 0.3244-0.1038 0.5928-0.1566 0.6901-0.243 0.7269-0.2926 1.2687-0.6828 1.5698-0.9988 0.2723-0.3473 0.5322-0.539 0.7905-0.723 0.2881 0.0376 0.5746 0.0783 0.8587 0.1228 0.1074 0.0069 0.4528-0.314 0.5589-0.3047-0.0572-0.0688-0.1308-0.1101-0.2296-0.1101-0.049-0.0544-0.1102-0.1738-0.2153-0.3463-0.24 0.2147-0.3861 0.3906-0.4808 0.4806-0.0977 0.1102-0.2307 0.2556-0.3992 0.4321l2e-4 1e-4m6.3864 1.2287c1.2128 0.7886 1.667 2.1642 1.667 3.2388 1.5448 1.5893 2.3041 3.4118 2.1861 5.2418 0.8988 1.1242 1.3945 2.4378 1.3423 3.8395-1.1387 0.875-2.7963 1.4876-4.647 1.5668-1.9394 1.9688-4.8262 3.2044-7.8883 3.6674-1.837 0.8331-4.1013 1.3173-6.5527 1.2875-1.0555-0.6376-1.7951-1.382-2.1975-2.1665-1.091-1.1243-1.4316-2.3288-1.081-3.364-1.458-0.5207-2.7937-1.4287-3.9181-2.5822-0.2193-0.4768-0.5321-0.9781-0.9252-1.4387-0.2525-0.2407-0.9611-1.2199-1.1698-1.4821-0.501-0.7015-1.228-1.1648-1.8518-1.289-0.5112-0.4348-0.9308-0.8929-1.2456-1.3661-1.7676 0.5738-3.1511 1.563-3.7567 2.8187-0.1153-1.8597 1.1612-3.4885 3.2617-4.4878-0.0541 0.2938-0.7454-0.4163-0.7454-0.1081-0.3588 2.1687 0.527 4.0862 1.9738 5.4457-2.4516 1.4528-4.0464 3.5862-4.1645 5.9891 1.7046 1.2258 3.9008 2.017 6.3037 2.2177 2.1951 2.6006 6.0736 4.4212 10.592 5.0309 2.3545 0.9025 5.2207 1.3635 8.2932 1.1817 2.2053-1.1838 3.8594-2.9515 4.2742-4.9966 2.7912-2.0974 4.2323-4.5629 4.5037-6.9875 1.596-1.9591 2.2378-4.4259 1.4094-7.0207-0.2605-1.1174-0.8466-2.0824-1.6425-2.8707-0.2674-0.5853-0.7018-1.0963-1.2249-1.4542-1.3277-0.5825-2.7518-0.9969-4.2378-1.2772-0.9857-0.8984-2.2429-1.6566-3.6911-2.2211h6e-4" fill="#f47727"/>
			<path d="m31.998 20.186c-1.0523 0-2.1484 0.0791-3.1342 0.1727-0.0259 0.0025-0.0518 0.0052-0.0776 8e-3 -0.0372 0.4219-0.0427 0.997 0.0947 1.6569 0.1563 0.7 0.4856 1.4398 0.979 2.0877 0.7299 0.958 1.4345 1.8868 2.1596 2.8407-0.0092-0.2944-0.2361-0.5772-0.1943-0.7031-0.054-0.1959 0.0755-0.4129 0.4796-0.6265 0.4127-0.2785 0.9242-0.4419 1.3614-0.6047 0.3285-0.1018 0.5998-0.1484 0.6936-0.229 0.7341-0.273 1.2947-0.6343 1.6296-0.9239 0.3065-0.3188 0.6002-0.4901 0.8911-0.6521 0.2872 0.0387 0.5727 0.0805 0.8559 0.1262 0.1001 0.0065 0.4499-0.3308 0.5489-0.3221-0.0967-0.0754-0.2097-0.1233-0.3471-0.1312-0.0767-0.0562-0.1653-0.1722-0.2951-0.337-0.2623 0.1956-0.4376 0.356-0.5653 0.4374-0.1439 0.0993-0.3215 0.2332-0.5332 0.3978l3e-4 1e-4m6.6647 1.2697c1.1314 0.7357 1.5298 2.0552 1.5298 3.0577 1.6193 1.5525 2.4775 3.3537 2.4735 5.1826 0.9479 1.1741 1.4735 2.5468 1.4247 4.0119-1.0623 0.8255-2.6089 1.4063-4.3359 1.4892-1.8199 2.0638-4.6549 3.4205-7.7333 3.9976-1.8943 0.8952-4.2399 1.426-6.7854 1.419-1.0297-0.5912-1.7655-1.2838-2.1873-2.0156-1.1437-1.0489-1.5827-2.1863-1.3694-3.1775-1.5554-0.5293-2.9747-1.4544-4.1602-2.6327-0.2368-0.4689-0.5589-0.962-0.9536-1.4184-0.2646-0.2523-0.9524-1.1949-1.1712-1.4697-0.4942-0.6881-1.196-1.1555-1.7979-1.3078-0.5104-0.4665-0.9252-0.9583-1.2309-1.4667-1.6551 0.5014-2.949 1.3897-3.5138 2.5261-0.1077-1.9837 1.2406-3.7264 3.4491-4.8104-0.0504 0.2741-0.7718-0.505-0.7718-0.2175-0.3762 2.0408 0.4103 3.8486 1.7217 5.1371-2.5849 1.513-4.272 3.7395-4.4115 6.2489 1.5877 1.1664 3.6353 1.9274 5.877 2.1378 2.0479 2.7261 5.8791 4.6915 10.425 5.4309 2.4336 0.9642 5.405 1.4671 8.5942 1.2975 2.1064-1.1044 3.6981-2.7552 4.1329-4.6665 2.9258-1.9788 4.56-4.3736 5.033-6.7779 1.7506-1.9971 2.5119-4.5353 1.7391-7.218-0.243-1.1686-0.8275-2.1892-1.6383-3.0344-0.269-0.5775-0.6963-1.0847-1.2087-1.4483-1.2677-0.5786-2.6287-0.9992-4.0504-1.293-1.0333-0.9417-2.3511-1.7365-3.8691-2.3282h6e-4" fill="#f47c25"/>
			<path d="m31.998 20.25c-1.0483 0-2.1421 0.0788-3.1262 0.1723-0.0258 0.0024-0.0517 0.0051-0.0774 0.0079-0.0026 0.4353 0.0228 1.0118 0.1808 1.6665 0.1781 0.6954 0.5167 1.4269 1.0083 2.0727 0.7265 0.9537 1.4293 1.8803 2.154 2.8334-0.046-0.3548-0.3184-0.6971-0.3133-0.879-0.0736-0.2269 0.0366-0.4669 0.4317-0.6934 0.4076-0.2936 0.9172-0.4596 1.352-0.6167 0.3323-0.0999 0.6064-0.1407 0.6969-0.2159 0.7409-0.2546 1.3191-0.5889 1.6856-0.8537 0.3383-0.2923 0.6638-0.4446 0.9852-0.5859 0.2864 0.0397 0.571 0.0826 0.8531 0.1294 0.0935 6e-3 0.4473-0.3465 0.5396-0.3385-0.1336-0.0814-0.2835-0.1356-0.457-0.1508-0.1026-0.0578-0.2167-0.1706-0.3698-0.3283-0.2831 0.1777-0.4855 0.3237-0.6442 0.3969-0.1871 0.0891-0.4066 0.2123-0.6585 0.3658l3e-4 1e-4m6.9249 1.308c1.0554 0.6862 1.4016 1.9533 1.4016 2.8884 1.689 1.518 2.6396 3.2993 2.7424 5.1271 0.9938 1.2209 1.5472 2.6488 1.5018 4.1733-0.9909 0.7792-2.4337 1.33-4.045 1.4166-1.7082 2.1526-4.4947 3.6226-7.5884 4.3063-1.9477 0.9534-4.3695 1.5278-7.003 1.5422-1.0056-0.5478-1.7378-1.1919-2.1778-1.8746-1.1929-0.9783-1.7239-2.053-1.6391-3.003-1.6464-0.5374-3.1439-1.4785-4.3867-2.68-0.2532-0.4614-0.5839-0.947-0.9801-1.3993-0.276-0.2632-0.9443-1.1716-1.1725-1.4582-0.4878-0.6757-1.166-1.1468-1.7475-1.3253-0.5096-0.4963-0.92-1.0196-1.2172-1.5608-1.5498 0.4337-2.7598 1.2276-3.2867 2.2524-0.1004-2.0996 1.315-3.949 3.6246-5.1122-0.0471 0.2557-0.7966-0.588-0.7966-0.3198-0.3924 1.9211 0.3012 3.6264 1.486 4.8486-2.7096 1.5691-4.4831 3.8828-4.6427 6.4918 1.4785 1.1107 3.3871 1.8436 5.478 2.063 1.9102 2.8435 5.6973 4.9443 10.269 5.805 2.5075 1.022 5.5773 1.564 8.8756 1.4058 2.0141-1.0301 3.5474-2.5716 4.0009-4.3576 3.0518-1.8679 4.8665-4.1966 5.528-6.582 1.8952-2.0326 2.7684-4.6375 2.0475-7.4025-0.2267-1.2165-0.8096-2.2891-1.6343-3.1875-0.2705-0.5701-0.6912-1.074-1.1936-1.4427-1.2116-0.5751-2.5135-1.0013-3.8752-1.3078-1.0777-0.9823-2.4522-1.8113-4.0355-2.4284h6e-4" fill="#f48123"/>
			<path d="m31.998 20.309c-1.0447 0-2.1361 0.0786-3.1186 0.1719-0.0258 0.0025-0.0516 0.0051-0.0773 0.0079 0.03 0.448 0.0846 1.0258 0.2619 1.6755 0.1987 0.6911 0.546 1.4148 1.0359 2.0585 0.7232 0.9498 1.4244 1.8742 2.1486 2.8268-0.0805-0.4119-0.3957-0.8101-0.4252-1.0448-0.0921-0.256-1e-4 -0.5178 0.3866-0.7563 0.4027-0.3078 0.9105-0.4764 1.3432-0.628 0.3358-0.0982 0.6125-0.1336 0.6999-0.2036 0.7473-0.2373 1.3421-0.5462 1.7383-0.7877 0.3684-0.2673 0.7237-0.4016 1.0738-0.5235 0.2856 0.0406 0.5693 0.0846 0.8506 0.1325 0.0871 0.0056 0.4448-0.3614 0.5308-0.3539-0.1683-0.0871-0.3529-0.1473-0.5605-0.1694-0.127-0.0593-0.2652-0.1692-0.4401-0.3201-0.3027 0.1608-0.5308 0.2932-0.7186 0.3588-0.2277 0.0795-0.4866 0.1926-0.7764 0.3357l2e-4 1e-4m7.1701 1.344c0.9837 0.6396 1.2807 1.8573 1.2807 2.729 1.7546 1.4855 2.7923 3.2481 2.9955 5.0749 1.0372 1.2648 1.6168 2.7449 1.5744 4.3252-0.9235 0.7356-2.2686 1.2583-3.7709 1.3482-1.603 2.2363-4.3439 3.8129-7.452 4.5971-1.998 1.0081-4.4915 1.6235-7.2079 1.6581-0.9829-0.5069-1.7117-1.1054-2.1688-1.7417-1.2392-0.9119-1.8569-1.9275-1.8931-2.8387-1.7322-0.5451-3.3033-1.5012-4.6-2.7245-0.2686-0.4545-0.6074-0.9329-1.005-1.3815-0.2868-0.2734-0.9367-1.1495-1.1737-1.4473-0.4819-0.6639-1.1379-1.1386-1.7001-1.3418-0.5089-0.5243-0.9151-1.0773-1.2042-1.6494-1.4508 0.3699-2.5818 1.0749-3.0729 1.9947-0.0936-2.2089 1.385-4.1587 3.7897-5.3963-0.0438 0.2383-0.8199-0.6662-0.8199-0.4162-0.4076 1.8084 0.1985 3.4171 1.2641 4.5768-2.827 1.622-4.6819 4.0178-4.8603 6.7207 1.3755 1.0583 3.1533 1.7646 5.1022 1.9926 1.7805 2.9539 5.526 5.1823 10.122 6.1572 2.5771 1.0763 5.7395 1.6553 9.1406 1.5078 1.9271-0.9602 3.4054-2.3987 3.8766-4.0668 3.1703-1.7635 5.155-4.03 5.9941-6.3974 2.0313-2.0661 3.0098-4.7339 2.3379-7.5763-0.2113-1.2616-0.7928-2.3832-1.6306-3.3318-0.2719-0.5632-0.6863-1.0637-1.1793-1.4374-1.1588-0.5717-2.4051-1.0033-3.7102-1.3217-1.1196-1.0205-2.5474-1.8817-4.1922-2.5228h6e-4" fill="#f48621"/>
			<path d="m31.998 20.366c-1.0412 0-2.1304 0.0784-3.1115 0.1715-0.0258 0.0025-0.0514 0.0051-0.0771 0.0078 0.0608 0.46 0.143 1.0391 0.3387 1.6841 0.2181 0.6871 0.5737 1.4033 1.062 2.0451 0.7202 0.946 1.4197 1.8685 2.1435 2.8204-0.1132-0.4659-0.469-0.9171-0.5312-1.2016-0.1095-0.2837-0.0348-0.566 0.3439-0.8159 0.3982-0.3214 0.9042-0.4923 1.3349-0.6388 0.3391-0.0965 0.6183-0.1267 0.7028-0.192 0.7534-0.2209 1.3638-0.5057 1.7882-0.7251 0.3968-0.2436 0.7803-0.3609 1.1577-0.4644 0.2848 0.0415 0.5678 0.0864 0.8482 0.1353 0.0811 0.0052 0.4423-0.3754 0.5225-0.3684-0.2013-0.0926-0.4188-0.1583-0.6585-0.187-0.1502-0.0608-0.3112-0.1678-0.5067-0.3123-0.3213 0.1449-0.5737 0.2644-0.789 0.3227-0.2663 0.0704-0.5624 0.1739-0.8881 0.3071l2e-4 1e-4m7.4021 1.3782c0.9159 0.5955 1.1663 1.7665 1.1663 2.578 1.8168 1.4548 2.9369 3.1997 3.2353 5.0255 1.0781 1.3065 1.6826 2.8358 1.6431 4.469-0.8599 0.6943-2.1124 1.1904-3.5115 1.2835-1.5034 2.3155-4.2011 3.9931-7.3228 4.8724-2.0457 1.06-4.6071 1.7142-7.4019 1.7679-0.9614-0.4683-1.6871-1.0236-2.1604-1.616-1.2831-0.849-1.9828-1.8086-2.1335-2.6831-1.8133-0.5524-3.4542-1.5227-4.8019-2.7666-0.2833-0.448-0.6297-0.9195-1.0287-1.3646-0.2969-0.2831-0.9295-1.1287-1.1748-1.437-0.4763-0.6527-1.1112-1.1309-1.6552-1.3575-0.5082-0.5507-0.9105-1.1318-1.192-1.7333-1.3569 0.3096-2.4131 0.9305-2.8704 1.7508-0.0871-2.3123 1.4513-4.3571 3.9461-5.6654-0.0408 0.2219-0.8419-0.7402-0.8419-0.5074-0.4221 1.7018 0.1011 3.2189 1.0539 4.3195-2.9382 1.6721-4.8701 4.1456-5.0664 6.9373 1.2781 1.0087 2.9319 1.6899 4.7465 1.926 1.6576 3.0585 5.3638 5.4076 9.9829 6.4907 2.643 1.1278 5.8931 1.7417 9.3915 1.6044 1.8447-0.894 3.271-2.235 3.7588-3.7914 3.2827-1.6646 5.4283-3.8723 6.4355-6.2228 2.1602-2.0977 3.2384-4.825 2.6129-7.7407-0.1968-1.3043-0.7769-2.4723-1.6271-3.4684-0.2732-0.5566-0.6818-1.0541-1.1658-1.4324-1.1088-0.5686-2.3024-1.0053-3.554-1.3349-1.1592-1.0566-2.6376-1.9483-4.3406-2.6122h6e-4" fill="#f48a1f"/>
			<path d="m31.998 20.42c-1.0379 0-2.125 0.0781-3.1047 0.1711-0.0257 0.0024-0.0514 5e-3 -0.0769 0.0077 0.0901 0.4714 0.1985 1.0516 0.4117 1.6923 0.2366 0.6831 0.6001 1.3923 1.0868 2.0322 0.7173 0.9425 1.4153 1.863 2.1388 2.8144-0.1445-0.5173-0.5388-1.0188-0.6321-1.3508-0.1261-0.31-0.0678-0.6118 0.3032-0.8726 0.3939-0.3343 0.8982-0.5073 1.327-0.649 0.3423-0.095 0.6238-0.1202 0.7055-0.1809 0.7592-0.2053 1.3845-0.4672 1.8357-0.6656 0.4239-0.2211 0.8343-0.3223 1.2375-0.4083 0.2841 0.0424 0.5663 0.0882 0.846 0.1381 0.0753 0.0048 0.44-0.3888 0.5145-0.3823-0.2326-0.0977-0.4813-0.1688-0.7517-0.2037-0.1722-0.0621-0.3548-0.1665-0.57-0.3049-0.3389 0.1297-0.6144 0.2369-0.856 0.2884-0.3029 0.0617-0.6345 0.1562-0.9943 0.28l1e-4 1e-4m7.6229 1.4106c0.8514 0.5535 1.0575 1.6801 1.0575 2.4344 1.8759 1.4256 3.0744 3.1537 3.4632 4.9786 1.1171 1.346 1.7453 2.9222 1.7086 4.6057-0.7993 0.6551-1.9638 1.1258-3.2648 1.2219-1.4086 2.3909-4.0652 4.1645-7.1999 5.1343-2.091 1.1093-4.717 1.8005-7.5865 1.8723-0.9409-0.4314-1.6635-0.9457-2.1522-1.4963-1.3249-0.7892-2.1027-1.6957-2.3623-2.5352-1.8905-0.5592-3.5977-1.5431-4.994-2.8067-0.2971-0.4417-0.6509-0.9067-1.0511-1.3485-0.3066-0.2923-0.9226-1.1088-1.176-1.4272-0.4708-0.6421-1.0858-1.1235-1.6124-1.3723-0.5075-0.576-0.9061-1.1837-1.1803-1.8131-1.2677 0.2521-2.2528 0.793-2.6778 1.5186-0.081-2.4106 1.5143-4.5458 4.0948-5.9212-0.0379 0.2062-0.863-0.8105-0.863-0.5942-0.4358 1.6003 0.0087 3.0305 0.8541 4.0747-3.0439 1.7198-5.049 4.2673-5.2624 7.1434 1.1854 0.9615 2.7214 1.6188 4.4081 1.8626 1.5408 3.1581 5.2095 5.622 9.8505 6.808 2.7057 1.1768 6.0392 1.8238 9.6302 1.6962 1.7663-0.831 3.1431-2.0793 3.6468-3.5295 3.3895-1.5706 5.6882-3.7222 6.8553-6.0565 2.2829-2.128 3.4559-4.9118 2.8744-7.8973-0.1829-1.3449-0.7617-2.557-1.6237-3.5982-0.2745-0.5504-0.6774-1.0449-1.153-1.4277-1.0612-0.5656-2.2048-1.0071-3.4054-1.3475-1.1969-1.0909-2.7233-2.0116-4.4818-2.6971h7e-4" fill="#f48f1e"/>
			<path d="m31.998 20.471c-1.0347 0-2.1198 0.0779-3.0982 0.1707-0.0257 0.0024-0.0513 5e-3 -0.0768 0.0077 0.1181 0.4823 0.2517 1.0636 0.4814 1.7 0.2543 0.6795 0.6253 1.3819 1.1106 2.0201 0.7145 0.9391 1.411 1.8578 2.1341 2.8086-0.1741-0.5663-0.6052-1.1159-0.7283-1.4933-0.142-0.3351-0.0993-0.6556 0.2645-0.9268 0.3897-0.3464 0.8924-0.5216 1.3193-0.6587 0.3454-0.0934 0.6292-0.114 0.7082-0.1703 0.7647-0.1904 1.4042-0.4304 1.881-0.6088 0.4498-0.1995 0.8857-0.2853 1.3137-0.3546 0.2834 0.0432 0.5649 0.0899 0.8438 0.1407 0.0699 0.0045 0.4378-0.4016 0.5069-0.3955-0.2625-0.1027-0.541-0.1788-0.8407-0.2197-0.1931-0.0635-0.3965-0.1653-0.6304-0.2979-0.3558 0.1153-0.6533 0.2108-0.92 0.2557-0.3378 0.0534-0.7033 0.1392-1.0958 0.2541h2e-4m7.8337 1.4417c0.7897 0.5134 0.9536 1.5975 0.9536 2.2972 1.9323 1.3977 3.2057 3.1097 3.6809 4.9337 1.1543 1.3839 1.805 3.0049 1.771 4.7364-0.7415 0.6176-1.8219 1.0642-3.0292 1.1631-1.3181 2.4628-3.9355 4.3282-7.0826 5.3843-2.1343 1.1564-4.8219 1.8829-7.7627 1.972-0.9214-0.3963-1.6411-0.8713-2.1445-1.3821-1.3647-0.732-2.2171-1.5877-2.5806-2.3939-1.9643-0.5658-3.7349-1.5625-5.1774-2.8449-0.3104-0.4358-0.6712-0.8946-1.0726-1.3331-0.3158-0.3011-0.9161-1.0899-1.1771-1.4179-0.4657-0.632-1.0615-1.1164-1.5715-1.3865-0.507-0.6-0.902-1.2333-1.1692-1.8893-1.1826 0.1973-2.0997 0.6617-2.494 1.297-0.0751-2.5045 1.5745-4.726 4.2369-6.1655-0.0352 0.1913-0.883-0.8778-0.883-0.6771-0.449 1.5034-0.0797 2.8505 0.6632 3.8411-3.1449 1.7652-5.22 4.3833-5.4496 7.3401 1.097 0.9164 2.5204 1.5509 4.085 1.802 1.4293 3.2531 5.0623 5.8267 9.7241 7.111 2.7656 1.2235 6.1787 1.9022 9.8581 1.7839 1.6915-0.7709 3.021-1.9307 3.5399-3.2794 3.4914-1.4808 5.9363-3.579 7.2561-5.8979 2.3999-2.1567 3.6635-4.9946 3.1241-8.0467-0.1697-1.3837-0.7472-2.6379-1.6205-3.7222-0.2757-0.5445-0.6732-1.0362-1.1407-1.4231-1.0158-0.5628-2.1115-1.0089-3.2635-1.3595-1.2329-1.1238-2.8053-2.0722-4.6166-2.7783h7e-4" fill="#f4931c"/>
			<path d="m31.998 20.52c-1.0317 0-2.1149 0.0776-3.092 0.1703-0.0256 0.0024-0.0512 5e-3 -0.0766 0.0077 0.1449 0.4926 0.3025 1.0751 0.5482 1.7075 0.2712 0.6758 0.6494 1.3718 1.1333 2.0083 0.7118 0.9358 1.4069 1.8528 2.1297 2.8031-0.2026-0.6133-0.669-1.209-0.8205-1.6298-0.1572-0.3592-0.1295-0.6975 0.2273-0.9787 0.3857-0.3582 0.8869-0.5354 1.312-0.668 0.3484-0.092 0.6343-0.1081 0.7107-0.1601 0.77-0.1763 1.4232-0.3953 1.9245-0.5545 0.4745-0.1789 0.935-0.2499 1.3866-0.3032 0.2828 0.044 0.5636 0.0916 0.8417 0.1432 0.0647 0.0042 0.4358-0.4138 0.4997-0.4082-0.2911-0.1074-0.5982-0.1883-0.9259-0.2349-0.2133-0.0647-0.4365-0.1641-0.6884-0.2912-0.3719 0.1014-0.6906 0.1858-0.9812 0.2244-0.3714 0.0454-0.7693 0.1229-1.193 0.2292l2e-4 1e-4m8.0356 1.4713c0.7307 0.4751 0.854 1.5185 0.854 2.1659 1.9864 1.371 3.3316 3.0675 3.8895 4.8907 1.1899 1.4201 1.8623 3.084 1.8308 4.8615-0.686 0.5817-1.686 1.0051-2.8035 1.1068-1.2314 2.5317-3.8112 4.4849-6.9701 5.6238-2.1758 1.2015-4.9224 1.9618-7.9315 2.0675-0.9027-0.3626-1.6197-0.8-2.1372-1.2726-1.4028-0.6773-2.3266-1.4843-2.7898-2.2586-2.035-0.572-3.8662-1.5812-5.3531-2.8816-0.3231-0.43-0.6906-0.8829-1.0931-1.3184-0.3247-0.3095-0.9098-1.0717-1.1781-1.4088-0.4608-0.6224-1.0384-1.1098-1.5325-1.4002-0.5063-0.6231-0.8979-1.2808-1.1585-1.9623-1.1009 0.1448-1.953 0.536-2.3178 1.0848-0.0695-2.5945 1.6322-4.8988 4.3729-6.3997-0.0326 0.177-0.9022-0.9421-0.9022-0.7564-0.4615 1.4106-0.1643 2.6781 0.4804 3.6172-3.2417 1.8088-5.3837 4.4945-5.6289 7.5286 1.0122 0.8733 2.3278 1.4859 3.7754 1.744 1.3225 3.3441 4.9212 6.0228 9.6031 7.4012 2.8229 1.2683 6.3123 1.9774 10.076 1.8679 1.6198-0.7132 2.904-1.7882 3.4374-3.0398 3.5891-1.3948 6.1741-3.4417 7.6401-5.7459 2.5121-2.1843 3.8624-5.0739 3.3633-8.1898-0.1569-1.4209-0.7333-2.7155-1.6174-3.841-0.2769-0.5389-0.6692-1.0278-1.1289-1.4188-0.9723-0.56-2.0223-1.0106-3.1276-1.371-1.2674-1.1552-2.8838-2.1302-4.7457-2.856h7e-4" fill="#f4971b"/>
			<path d="m31.998 20.568c-1.0287 0-2.1101 0.0774-3.086 0.17-0.0256 0.0024-0.0511 0.0049-0.0765 0.0076 0.1707 0.5027 0.3513 1.0862 0.6124 1.7146 0.2875 0.6725 0.6725 1.3622 1.1551 1.9972 0.7092 0.9326 1.4031 1.8479 2.1255 2.7977-0.23-0.6584-0.7303-1.2984-0.9091-1.7609-0.1719-0.3823-0.1586-0.7378 0.1915-1.0285 0.382-0.3695 0.8817-0.5486 1.3051-0.677 0.3512-0.0906 0.6391-0.1023 0.7131-0.1504 0.7751-0.1625 1.4413-0.3614 1.9662-0.5021 0.4983-0.1592 0.9824-0.216 1.4568-0.2538 0.2822 0.0447 0.5622 0.093 0.8397 0.1455 0.0597 0.0038 0.4338-0.4255 0.4927-0.4203-0.3186-0.112-0.6532-0.1976-1.0079-0.2497-0.2326-0.0659-0.4748-0.1629-0.744-0.2846-0.3874 0.0881-0.7264 0.1616-1.04 0.1942-0.4036 0.0378-0.8327 0.1073-1.2864 0.2053l2e-4 1e-4m8.2296 1.4999c0.674 0.4382 0.7584 1.4425 0.7584 2.0397 2.0384 1.3452 3.4524 3.027 4.0898 4.8494 1.2242 1.4549 1.9173 3.16 1.8883 4.9817-0.6328 0.5471-1.5554 0.9483-2.5866 1.0527-1.1482 2.5979-3.6918 4.6355-6.8622 5.8539-2.2157 1.2448-5.019 2.0377-8.0937 2.1593-0.8847-0.3303-1.599-0.7316-2.13-1.1675-1.4396-0.6248-2.432-1.385-2.9909-2.1286-2.1028-0.5781-3.9923-1.5991-5.5219-2.9168-0.3353-0.4245-0.7092-0.8717-1.1128-1.3042-0.3332-0.3176-0.9038-1.0543-1.1791-1.4003-0.4561-0.613-1.016-1.1032-1.4949-1.4132-0.5058-0.6452-0.8941-1.3264-1.1483-2.0324-1.0225 0.0943-1.812 0.4152-2.1485 0.8808-0.0641-2.6809 1.6875-5.0647 4.5036-6.6245-0.0301 0.1632-0.9207-1.004-0.9207-0.8327-0.4736 1.3214-0.2456 2.5124 0.3047 3.4021-3.3345 1.8507-5.541 4.6013-5.8011 7.7097 0.9307 0.8318 2.1428 1.4234 3.4781 1.6883 1.2198 3.4315 4.7856 6.2112 9.4866 7.6799 2.878 1.3113 6.4408 2.0497 10.286 1.9487 1.5509-0.6579 2.7916-1.6514 3.3389-2.8097 3.683-1.3121 6.4025-3.3098 8.0091-5.5998 2.6198-2.2108 4.0534-5.1502 3.5931-8.3273-0.1448-1.4566-0.72-2.7899-1.6144-3.9552-0.278-0.5333-0.6655-1.0197-1.1177-1.4146-0.9304-0.5574-1.9364-1.0122-2.997-1.382-1.3005-1.1854-2.9591-2.1859-4.8698-2.9307h8e-4" fill="#f49a19"/>
			<path d="m31.998 20.613c-1.0259 0-2.1056 0.0772-3.0803 0.1696-0.0255 0.0024-0.051 5e-3 -0.0763 0.0076 0.1955 0.5123 0.3984 1.0968 0.6742 1.7215 0.3032 0.6692 0.6948 1.353 1.1762 1.9864 0.7067 0.9296 1.3992 1.8433 2.1214 2.7926-0.2564-0.7019-0.7893-1.3845-0.9945-1.8872-0.1859-0.4046-0.1865-0.7766 0.1571-1.0765 0.3783-0.3804 0.8767-0.5614 1.2984-0.6856 0.3539-0.0893 0.6438-0.0969 0.7155-0.141 0.7799-0.1494 1.4588-0.3289 2.0063-0.4519 0.5212-0.14 1.0281-0.1832 1.5243-0.2062 0.2816 0.0454 0.561 0.0946 0.8378 0.1478 0.0548 0.0036 0.4319-0.4368 0.486-0.432-0.3451-0.1164-0.7062-0.2065-1.0868-0.2638-0.2512-0.0671-0.5117-0.1619-0.7976-0.2784-0.4023 0.0752-0.7608 0.1384-1.0967 0.1651-0.4346 0.0306-0.8937 0.0923-1.3763 0.1824l2e-4 1e-4m8.4164 1.5273c0.6194 0.4027 0.6663 1.3694 0.6663 1.9182 2.0884 1.3205 3.5688 2.988 4.2828 4.8096 1.2572 1.4885 1.9703 3.2332 1.9436 5.0975-0.5814 0.5139-1.4295 0.8936-2.3777 1.0006-1.0679 2.6617-3.5768 4.7806-6.7581 6.0756-2.2541 1.2865-5.1121 2.1106-8.2499 2.2476-0.8675-0.2991-1.5792-0.6656-2.1232-1.0662-1.4749-0.5741-2.5334-1.2893-3.1845-2.0033-2.1682-0.5839-4.1138-1.6165-5.6845-2.9507-0.3471-0.4193-0.7271-0.861-1.1319-1.2907-0.3413-0.3254-0.8979-1.0375-1.18-1.3919-0.4515-0.6041-0.9945-1.097-1.4587-1.4258-0.5052-0.6666-0.8903-1.3704-1.1385-2.1-0.9469 0.0457-1.6762 0.2988-1.9854 0.6844-0.059-2.7642 1.7409-5.2245 4.6295-6.8412-0.0276 0.1501-0.9385-1.0635-0.9385-0.9061-0.4852 1.2355-0.3239 2.3529 0.1356 3.1949-3.4241 1.8911-5.6925 4.7043-5.9671 7.8842 0.8523 0.7918 1.9646 1.3632 3.1916 1.6346 1.121 3.5158 4.6551 6.3926 9.3747 7.9485 2.931 1.3527 6.5644 2.1192 10.488 2.0263 1.4846-0.6045 2.6834-1.5195 3.2442-2.5879 3.7733-1.2325 6.6225-3.1827 8.3644-5.4591 2.7236-2.2363 4.2375-5.2236 3.8145-8.4598-0.1331-1.491-0.7072-2.8617-1.6116-4.0651-0.2791-0.5281-0.6618-1.012-1.1068-1.4106-0.8902-0.5548-1.8538-1.0137-2.8713-1.3927-1.3324-1.2145-3.0317-2.2395-4.9892-3.0026h8e-4" fill="#f49e18"/>
			<path d="m31.998 20.657c-1.0232 0-2.1012 0.0771-3.0747 0.1694-0.0255 0.0024-0.0509 0.0049-0.0763 0.0075 0.2196 0.5217 0.4439 1.1071 0.7339 1.7282 0.3183 0.666 0.7164 1.344 1.1965 1.9759 0.7044 0.9267 1.3957 1.8388 2.1175 2.7877-0.2818-0.7439-0.8463-1.4676-1.0769-2.0091-0.1995-0.4261-0.2134-0.8141 0.124-1.1229 0.3747-0.3908 0.8717-0.5737 1.2918-0.6939 0.3565-0.088 0.6484-0.0916 0.7178-0.1319 0.7846-0.1367 1.4756-0.2974 2.0451-0.4033 0.5433-0.1216 1.0721-0.1516 1.5895-0.1603 0.281 0.0461 0.5598 0.096 0.8359 0.1501 0.0502 0.0032 0.43-0.4478 0.4796-0.4434-0.3707-0.1206-0.7574-0.215-1.163-0.2775-0.2691-0.0682-0.5474-0.1607-0.8493-0.2724-0.4168 0.0629-0.7942 0.1161-1.1515 0.1372-0.4645 0.0234-0.9526 0.0777-1.463 0.1602h1e-4m8.5968 1.5539c0.5666 0.3684 0.5774 1.2988 0.5774 1.8008 2.1367 1.2967 3.6811 2.9504 4.4691 4.7713 1.289 1.5208 2.0214 3.3039 1.997 5.2093-0.532 0.4818-1.3081 0.8408-2.1761 0.9502-0.9905 2.7233-3.4658 4.9207-6.6577 6.2896-2.2911 1.3268-5.2019 2.1811-8.4007 2.3329-0.8507-0.269-1.56-0.602-2.1166-0.9685-1.509-0.5252-2.6313-1.1969-3.3714-1.8824-2.2312-0.5895-4.2311-1.6331-5.8414-2.9834-0.3585-0.4142-0.7445-0.8506-1.1502-1.2775-0.3492-0.3329-0.8924-1.0213-1.181-1.384-0.4471-0.5953-0.9737-1.0909-1.4238-1.4379-0.5046-0.6872-0.8867-1.4128-1.1289-2.1651-0.874-0.0013-1.5452 0.1864-1.8281 0.4946-0.0539-2.8444 1.7924-5.3786 4.751-7.0502-0.0252 0.1373-0.9556-1.121-0.9556-0.977-0.4964 1.1526-0.3995 2.1989-0.0278 2.9949-3.5104 1.93-5.8387 4.8036-6.1271 8.0526 0.7765 0.7532 1.7925 1.3051 2.9151 1.5828 1.0255 3.5971 4.529 6.5678 9.2664 8.2077 2.9823 1.3927 6.6838 2.1863 10.683 2.1014 1.4205-0.5531 2.5789-1.3923 3.1526-2.3739 3.8607-1.1557 6.8349-3.0602 8.7074-5.3234 2.8238-2.2609 4.4152-5.2945 4.0282-8.5876-0.1217-1.5242-0.6948-2.9309-1.6088-4.1712-0.2801-0.5231-0.6582-1.0046-1.0963-1.4068-0.8513-0.5523-1.774-1.0152-2.7498-1.4029-1.3632-1.2426-3.1019-2.2913-5.1046-3.072h8e-4" fill="#f4a117"/>
			<path d="m31.998 20.7c-1.0206 0-2.0969 0.0769-3.0693 0.169-0.0255 0.0024-0.0509 0.0049-0.0762 0.0075 0.2427 0.5307 0.4878 1.1171 0.7916 1.7347 0.333 0.6629 0.7373 1.3353 1.2162 1.9657 0.702 0.924 1.3921 1.8345 2.1136 2.783-0.3064-0.7845-0.9013-1.548-1.1565-2.1271-0.2127-0.4468-0.2396-0.8502 0.0918-1.1676 0.3713-0.401 0.867-0.5857 1.2856-0.7021 0.359-0.0867 0.6527-0.0864 0.7199-0.1231 0.7892-0.1244 1.492-0.267 2.0826-0.3562 0.5647-0.1039 1.1148-0.1211 1.6526-0.116 0.2805 0.0468 0.5586 0.0974 0.8341 0.1523 0.0457 0.0029 0.4282-0.4583 0.4733-0.4544-0.3954-0.1246-0.8068-0.2233-1.2366-0.2906-0.2865-0.0693-0.582-0.1598-0.8994-0.2666-0.4307 0.0509-0.8263 0.0944-1.2044 0.1101-0.4934 0.0165-1.0095 0.0637-1.547 0.1387h1e-4m8.7713 1.5796c0.5156 0.3352 0.4914 1.2305 0.4914 1.6873 2.1834 1.2736 3.7898 2.914 4.6493 4.7341 1.3197 1.5522 2.0709 3.3723 2.0487 5.3174-0.4841 0.4508-1.1907 0.7898-1.9812 0.9016-0.9156 2.7828-3.3584 5.0561-6.5606 6.4965-2.3269 1.3658-5.2886 2.2493-8.5465 2.4155-0.8345-0.24-1.5414-0.5405-2.1102-0.874-1.542-0.4779-2.7259-1.1076-3.5521-1.7655-2.2923-0.5949-4.3445-1.6492-5.9932-3.0151-0.3695-0.4092-0.7613-0.8404-1.168-1.2647-0.3569-0.3402-0.8869-1.0057-1.1818-1.3762-0.4429-0.5871-0.9537-1.0852-1.3901-1.4497-0.5041-0.7071-0.8832-1.4539-1.1197-2.2282-0.8035-0.0467-1.4185 0.0778-1.6759 0.3112-0.049-2.9222 1.8423-5.5278 4.8686-7.2524-0.023 0.1249-0.9722-1.1767-0.9722-1.0456-0.5073 1.0724-0.4727 2.05-0.1857 2.8015-3.5941 1.9676-5.9803 4.8997-6.2821 8.2154 0.7033 0.7159 1.6261 1.249 2.6477 1.5327 0.9332 3.6757 4.4071 6.7372 9.1618 8.4584 3.0318 1.4315 6.7992 2.2513 10.872 2.174 1.3586-0.5033 2.4778-1.2693 3.0641-2.1669 3.945-1.0814 7.0402-2.9416 9.0392-5.1921 2.9207-2.2847 4.587-5.363 4.2348-8.7113-0.1107-1.5563-0.6828-2.9978-1.6062-4.2738-0.2811-0.5181-0.6547-0.9973-1.0861-1.403-0.8137-0.55-1.6968-1.0167-2.6324-1.4128-1.393-1.2698-3.1696-2.3414-5.2161-3.1393h8e-4" fill="#f4a515"/>
			<path d="m31.998 20.741c-1.0181 0-2.0928 0.0767-3.0641 0.1687-0.0255 0.0025-0.0508 0.0049-0.0761 0.0075 0.2652 0.5394 0.5304 1.1267 0.8475 1.7409 0.3472 0.66 0.7575 1.3269 1.2352 1.956 0.6998 0.9212 1.3887 1.8303 2.11 2.7783-0.3303-0.8238-0.9547-1.6259-1.2338-2.2413-0.2253-0.467-0.2648-0.8854 0.0608-1.2111 0.368-0.4108 0.8623-0.5972 1.2794-0.7098 0.3615-0.0855 0.657-0.0815 0.7221-0.1147 0.7936-0.1124 1.5078-0.2375 2.119-0.3107 0.5854-0.0866 1.156-0.0914 1.7137-0.0729 0.2798 0.0474 0.5574 0.0988 0.8323 0.1543 0.0413 0.0027 0.4265-0.4685 0.4673-0.4649-0.4195-0.1286-0.8547-0.2313-1.308-0.3035-0.3034-0.0703-0.6154-0.1587-0.9479-0.2609-0.4442 0.0393-0.8576 0.0734-1.2557 0.0838-0.5215 0.01-1.0647 0.0501-1.6283 0.1179l1e-4 1e-4m8.9403 1.6044c0.4662 0.3031 0.408 1.1643 0.408 1.5774 2.2287 1.2512 3.8951 2.8787 4.8239 4.6981 1.3496 1.5825 2.1188 3.4385 2.0987 5.4222-0.4377 0.4207-1.0768 0.7403-1.7921 0.8544-0.8431 2.8405-3.2545 5.1873-6.4666 6.697-2.3616 1.4035-5.3728 2.3154-8.6878 2.4954-0.8189-0.2118-1.5234-0.4808-2.104-0.7823-1.574-0.4322-2.8177-1.0211-3.7272-1.6523-2.3515-0.6001-4.4545-1.6648-6.1403-3.0457-0.3801-0.4045-0.7775-0.8307-1.1852-1.2524-0.3643-0.3473-0.8817-0.9905-1.1827-1.3687-0.4387-0.579-0.9343-1.0795-1.3573-1.4611-0.5036-0.7264-0.8799-1.4936-1.1108-2.2893-0.7352-0.0907-1.2957-0.0275-1.5285 0.1335-0.0443-2.9975 1.8906-5.6723 4.9825-7.4483-0.0208 0.1129-0.9883-1.2306-0.9883-1.1121-0.5177 0.9947-0.5435 1.9057-0.3387 2.6141-3.675 2.0041-6.1173 4.9928-6.4322 8.3732 0.6323 0.6798 1.4649 1.1945 2.3886 1.4841 0.8438 3.752 4.289 6.9014 9.0604 8.7014 3.0799 1.4689 6.9111 2.3142 11.055 2.2443 1.2986-0.4551 2.3799-1.1501 2.9784-1.9664 4.0268-1.0094 7.2392-2.8266 9.3606-5.0648 3.0145-2.3078 4.7535-5.4294 4.4351-8.8311-0.1002-1.5874-0.6712-3.0627-1.6037-4.3733-0.2821-0.5134-0.6514-0.9902-1.0763-1.3994-0.7772-0.5476-1.622-1.018-2.5186-1.4224-1.4218-1.2961-3.2353-2.3899-5.3242-3.2043h8e-4" fill="#f4a814"/>
			<path d="m31.998 20.781c-1.0156 0-2.0887 0.0766-3.0591 0.1685-0.0254 0.0024-0.0507 0.0048-0.0759 0.0074 0.287 0.5479 0.5716 1.136 0.9017 1.7469 0.361 0.6571 0.7771 1.3188 1.2537 1.9465 0.6976 0.9186 1.3854 1.8263 2.1064 2.7738-0.3534-0.8619-1.0065-1.7015-1.3087-2.3521-0.2377-0.4866-0.2893-0.9195 0.0306-1.2533 0.3648-0.4203 0.8579-0.6083 1.2735-0.7174 0.3639-0.0843 0.6611-0.0766 0.7241-0.1064 0.7979-0.1009 1.5233-0.2089 2.1543-0.2665 0.6055-0.0698 1.1961-0.0627 1.773-0.0311 0.2793 0.048 0.5563 0.1001 0.8306 0.1563 0.0371 0.0024 0.4248-0.4784 0.4614-0.4752-0.4427-0.1325-0.9012-0.2391-1.3773-0.3159-0.3197-0.0714-0.6478-0.1578-0.9949-0.2554-0.4573 0.028-0.8878 0.053-1.3054 0.0583-0.5487 0.0035-1.1183 0.0369-1.7073 0.0977l1e-4 1e-4m9.1043 1.6285c0.4182 0.272 0.3272 1.1001 0.3272 1.4707 2.2726 1.2295 3.9973 2.8445 4.9933 4.6632 1.3785 1.6119 2.1653 3.5028 2.1473 5.5238-0.3927 0.3916-0.9664 0.6923-1.6088 0.8087-0.7727 2.8965-3.1535 5.3147-6.3752 6.8915-2.3954 1.4402-5.4545 2.3796-8.825 2.573-0.8037-0.1844-1.5059-0.4229-2.098-0.6934-1.605-0.3877-2.9067-0.9371-3.8972-1.5423-2.4088-0.6053-4.5611-1.68-6.283-3.0755-0.3904-0.3998-0.7932-0.8213-1.2019-1.2405-0.3714-0.3541-0.8765-0.9757-1.1835-1.3614-0.4347-0.571-0.9154-1.074-1.3256-1.4721-0.5031-0.7452-0.8765-1.5322-1.1021-2.3486-0.6688-0.1333-1.1765-0.1296-1.3853-0.0389-0.0398-3.0706 1.9374-5.8126 5.093-7.6385-0.0187 0.1013-1.0039-1.2829-1.0039-1.1766-0.528 0.9193-0.6123 1.7656-0.4873 2.4323-3.7536 2.0395-6.2503 5.0831-6.5778 8.5263 0.5635 0.6447 1.3084 1.1417 2.1371 1.437 0.757 3.8259 4.1744 7.0606 8.9621 8.9371 3.1264 1.5053 7.0197 2.3752 11.232 2.3125 1.2404-0.4082 2.2849-1.0343 2.8951-1.7717 4.1062-0.9395 7.4324-2.7152 9.6726-4.9413 3.1057-2.3303 4.9151-5.4939 4.6294-8.9474-0.0898-1.6176-0.6599-3.1257-1.6011-4.4698-0.2831-0.5088-0.6482-0.9835-1.0668-1.3959-0.7418-0.5454-1.5495-1.0194-2.4082-1.4317-1.4498-1.3216-3.299-2.437-5.4291-3.2675h9e-4" fill="#f4ab13"/>
			<path d="m31.998 20.82c-1.0132 0-2.0848 0.0764-3.0542 0.1682-0.0253 0.0024-0.0506 0.0048-0.0758 0.0074 0.3082 0.5561 0.6118 1.1451 0.9545 1.7528 0.3743 0.6543 0.7961 1.3109 1.2716 1.9372 0.6955 0.916 1.3822 1.8223 2.1029 2.7695-0.3759-0.8991-1.0568-1.775-1.3815-2.4599-0.2497-0.5056-0.3131-0.9526 0.0012-1.2942 0.3617-0.4296 0.8536-0.6192 1.2679-0.7248 0.3661-0.0832 0.6651-0.0719 0.726-0.0984 0.8021-0.0896 1.5382-0.1811 2.1886-0.2235 0.625-0.0536 1.235-0.0348 1.8306 0.0094 0.2788 0.0486 0.5553 0.1014 0.829 0.1583 0.0329 0.0021 0.4231-0.4881 0.4556-0.4852-0.4653-0.1362-0.9463-0.2467-1.4445-0.328-0.3356-0.0723-0.6794-0.1568-1.0407-0.2501-0.4701 0.0171-0.9172 0.0332-1.3538 0.0336-0.5751-0.0028-1.1703 0.024-1.784 0.0781h1e-4m9.2637 1.652c0.3717 0.2417 0.2487 1.0377 0.2487 1.367 2.3152 1.2084 4.0965 2.8112 5.1579 4.6293 1.4066 1.6405 2.2105 3.5652 2.1945 5.6226-0.3489 0.3632-0.8591 0.6457-1.4306 0.7642-0.7042 2.9509-3.0554 5.4385-6.2865 7.0806-2.4281 1.4758-5.5339 2.4418-8.9582 2.6484-0.789-0.1578-1.489-0.3666-2.0922-0.607-1.6351-0.3445-2.9932-0.8555-4.0623-1.4355-2.4646-0.6102-4.6648-1.6947-6.4218-3.1044-0.4004-0.3953-0.8085-0.8121-1.2181-1.2289-0.3784-0.3607-0.8716-0.9614-1.1843-1.3543-0.4308-0.5634-0.8971-1.0687-1.2947-1.4829-0.5026-0.7633-0.8734-1.5697-1.0937-2.4062-0.6044-0.1748-1.0607-0.2288-1.2463-0.2065-0.0353-3.1416 1.983-5.9489 5.2004-7.8233-0.0165 0.0901-1.019-1.3337-1.019-1.2392-0.5379 0.846-0.6791 1.6295-0.6316 2.2555-3.83 2.074-6.3796 5.1709-6.7194 8.6752 0.4966 0.6106 1.1564 1.0903 1.8928 1.3912 0.6726 3.8977 4.063 7.2154 8.8665 9.1661 3.1716 1.5407 7.1252 2.4346 11.404 2.3789 1.1838-0.3628 2.1926-0.9219 2.8143-1.5826 4.1833-0.8716 7.62-2.6068 9.9757-4.8213 3.1942-2.352 5.0721-5.5565 4.8182-9.0604-0.0798-1.6469-0.6489-3.1868-1.5986-4.5636-0.284-0.5042-0.6451-0.9768-1.0575-1.3924-0.7075-0.5433-1.479-1.0207-2.3009-1.4408-1.4771-1.3465-3.361-2.4828-5.5311-3.3288h9e-4" fill="#f4ae12"/>
			<path d="m31.998 20.858c-1.0109 0-2.081 0.0763-3.0494 0.1679-0.0253 0.0024-0.0506 0.0049-0.0757 0.0074 0.3288 0.5641 0.6508 1.1539 1.0058 1.7585 0.3873 0.6516 0.8146 1.3032 1.2891 1.9283 0.6934 0.9135 1.3791 1.8184 2.0995 2.7652-0.3978-0.9351-1.1058-1.8464-1.4523-2.5647-0.2614-0.5241-0.3364-0.9848-0.0274-1.3341 0.3586-0.4386 0.8494-0.6298 1.2622-0.7319 0.3685-0.0821 0.669-0.0674 0.7281-0.0906 0.806-0.0787 1.5527-0.1541 2.2218-0.1818 0.6441-0.0377 1.273-0.0076 1.8867 0.0489 0.2784 0.0493 0.5543 0.1026 0.8275 0.1602 0.0288 0.0019 0.4215-0.4974 0.45-0.4949-0.4873-0.1399-0.9903-0.254-1.51-0.3397-0.3511-0.0733-0.7101-0.1559-1.0852-0.2449-0.4825 0.0064-0.9459 0.0139-1.4008 0.0094-0.601-0.0088-1.2211 0.0116-1.8587 0.0591h1e-4m9.4188 1.6748c0.3263 0.2122 0.1722 0.977 0.1722 1.2661 2.3568 1.1878 4.1932 2.7788 5.3181 4.5963 1.434 1.6683 2.2546 3.626 2.2405 5.7186-0.3064 0.3357-0.7547 0.6003-1.2573 0.7211-0.6376 3.0037-2.9599 5.5588-6.2001 7.2646-2.46 1.5104-5.6111 2.5024-9.0879 2.7217-0.7745-0.132-1.4725-0.3119-2.0865-0.523-1.6645-0.3024-3.0774-0.776-4.2231-1.3315-2.5188-0.615-4.7656-1.709-6.5566-3.1325-0.4103-0.391-0.8235-0.8032-1.234-1.2176-0.3851-0.3672-0.8667-0.9475-1.185-1.3474-0.4271-0.556-0.8793-1.0636-1.2647-1.4934-0.5022-0.781-0.8703-1.6061-1.0855-2.4623-0.5417-0.2151-0.948-0.3254-1.111-0.3695-0.031-3.2107 2.0273-6.0816 5.305-8.0031-0.0146 0.079-1.0339-1.3832-1.0339-1.3002-0.5475 0.7747-0.7441 1.4971-0.772 2.0835-3.9043 2.1075-6.5053 5.2564-6.8571 8.82 0.4314 0.5774 1.0085 1.0404 1.655 1.3466 0.5906 3.9677 3.9546 7.3661 8.7734 9.3891 3.2158 1.5751 7.2279 2.4923 11.572 2.4434 1.1287-0.3185 2.1027-0.8125 2.7356-1.3986 4.2583-0.8055 7.8026-2.5013 10.271-4.7045 3.2803-2.3732 5.2249-5.6175 5.002-9.1703-0.0701-1.6755-0.6383-3.2464-1.5963-4.6549-0.2849-0.4999-0.642-0.9704-1.0485-1.3891-0.6741-0.5411-1.4104-1.022-2.1965-1.4496-1.5036-1.3706-3.4212-2.5273-5.6302-3.3885h8e-4" fill="#f4b111"/>
			<path d="m31.998 20.895c-1.0086 0-2.0774 0.0761-3.0448 0.1676-0.0252 0.0024-0.0504 0.0048-0.0756 0.0073 0.3489 0.572 0.6889 1.1626 1.0558 1.7642 0.4 0.6489 0.8328 1.2957 1.3061 1.9195 0.6915 0.911 1.3761 1.8147 2.0963 2.761-0.4192-0.9703-1.1536-1.916-1.5214-2.6668-0.2728-0.5421-0.359-1.0162-0.0552-1.3729 0.3557-0.4474 0.8453-0.6401 1.2568-0.739 0.3706-0.0809 0.6728-0.0628 0.7299-0.0829 0.8101-0.0681 1.5669-0.1277 2.2544-0.1411 0.6626-0.0223 1.3098 0.0189 1.9413 0.0874 0.2779 0.0498 0.5533 0.1038 0.8259 0.1621 0.025 0.0016 0.4199-0.5066 0.4446-0.5045-0.5087-0.1433-1.0331-0.2612-1.5738-0.3511-0.3661-0.0742-0.74-0.155-1.1285-0.2399-0.4946-0.0039-0.9738-0.0048-1.4467-0.014-0.626-0.0148-1.2704-6e-4 -1.9314 0.0405m9.57 1.6971c0.2821 0.1834 0.0977 0.9178 0.0977 1.1677 2.3973 1.1678 4.2873 2.7473 5.4742 4.5642 1.4607 1.6954 2.2974 3.6851 2.2852 5.8122-0.2649 0.3088-0.6529 0.5561-1.0883 0.6789-0.5728 3.0554-2.8669 5.6762-6.116 7.4439-2.491 1.5441-5.6863 2.5615-9.2142 2.7932-0.7606-0.1068-1.4565-0.2586-2.081-0.4411-1.6931-0.2615-3.1594-0.6986-4.3797-1.2302-2.5717-0.6197-4.8639-1.723-6.6881-3.16-0.4198-0.3866-0.838-0.7944-1.2493-1.2065-0.3918-0.3736-0.8621-0.9339-1.1859-1.3408-0.4233-0.5487-0.8618-1.0584-1.2354-1.5035-0.5017-0.7983-0.8673-1.6417-1.0775-2.5169-0.4806-0.2544-0.8383-0.4195-0.9791-0.5284-0.0269-3.2781 2.0704-6.2108 5.4067-8.1783-0.0126 0.0683-1.0482-1.4313-1.0482-1.3596-0.5569 0.7052-0.8074 1.3681-0.9089 1.916-3.9766 2.14-6.6278 5.3396-6.9912 8.961 0.368 0.5451 0.8643 0.9917 1.4233 1.3032 0.5106 4.0358 3.8491 7.5129 8.6828 9.6063 3.2587 1.6086 7.3279 2.5486 11.736 2.5063 1.0751-0.2754 2.0152-0.7059 2.6589-1.2193 4.3315-0.7411 7.9806-2.3986 10.558-4.5907 3.3643-2.3939 5.3737-5.6769 5.181-9.2775-0.0606-1.7033-0.6279-3.3044-1.594-4.7438-0.2857-0.4956-0.639-0.9641-1.0397-1.3858-0.6415-0.5391-1.3435-1.0233-2.0948-1.4582-1.5293-1.3942-3.4799-2.5708-5.7268-3.4467h9e-4" fill="#f4b410"/>
			<path d="m31.998 20.931c-1.0064 0-2.0737 0.0759-3.0402 0.1673-0.0253 0.0024-0.0504 0.0048-0.0755 0.0073 0.3684 0.5795 0.726 1.171 1.1045 1.7696 0.4124 0.6463 0.8504 1.2884 1.3227 1.9109 0.6895 0.9087 1.3731 1.8111 2.093 2.7571-0.4399-1.0046-1.2001-1.984-1.5887-2.7665-0.2838-0.5596-0.381-1.0468-0.0823-1.4108 0.3528-0.456 0.8413-0.6501 1.2515-0.7457 0.3728-0.0799 0.6765-0.0586 0.7318-0.0756 0.8139-0.0577 1.5806-0.102 2.2861-0.1013 0.6806-0.0073 1.3458 0.0447 1.9946 0.1249 0.2773 0.0503 0.5522 0.105 0.8243 0.1639 0.0212 0.0013 0.4184-0.5156 0.4393-0.5137-0.5296-0.1469-1.0749-0.2682-1.6361-0.3623-0.3807-0.0752-0.7691-0.1542-1.1707-0.235-0.5064-0.014-1.001-0.0231-1.4914-0.0369-0.6505-0.0205-1.3186-0.0124-2.0023 0.0224m9.7173 1.7187c0.2391 0.1554 0.0251 0.8601 0.0251 1.0719 2.4367 1.1483 4.3791 2.7165 5.6264 4.5328 1.4867 1.7218 2.3392 3.7429 2.3289 5.9036-0.2244 0.2825-0.5537 0.5129-0.9236 0.6377-0.5095 3.1057-2.7762 5.7906-6.034 7.6187-2.5212 1.5771-5.7596 2.6191-9.3374 2.8629-0.7469-0.0821-1.4407-0.2065-2.0756-0.3611-1.7209-0.2216-3.2394-0.6232-4.5323-1.1315-2.6233-0.6243-4.9598-1.7366-6.8165-3.1867-0.429-0.3825-0.8521-0.7859-1.2643-1.1958-0.3982-0.3797-0.8574-0.9207-1.1865-1.3342-0.4198-0.5416-0.8449-1.0536-1.2069-1.5134-0.5013-0.8152-0.8644-1.6764-1.0698-2.5702-0.421-0.2928-0.7311-0.5114-0.8505-0.6834-0.0227-3.3437 2.1125-6.3368 5.5061-8.3492-0.0107 0.0579-1.0622-1.4783-1.0622-1.4175-0.5662 0.6375-0.8693 1.2422-1.0424 1.7526-4.0472 2.1719-6.7473 5.4207-7.1221 9.0986 0.3061 0.5136 0.7238 0.9443 1.1974 1.2609 0.4326 4.1022 3.7461 7.6559 8.5944 9.8181 3.3005 1.6413 7.4254 2.6034 11.895 2.5676 1.0228-0.2334 1.9299-0.6019 2.5842-1.0444 4.4027-0.6784 8.1541-2.2984 10.838-4.4798 3.4462-2.414 5.5189-5.7348 5.3557-9.382-0.0514-1.7304-0.6178-3.3609-1.5918-4.8304-0.2866-0.4915-0.6361-0.958-1.0311-1.3827-0.6097-0.5371-1.2783-1.0245-1.9956-1.4666-1.5545-1.4171-3.5372-2.6131-5.8211-3.5035h9e-4" fill="#f4b70e"/>
			<path d="m31.998 20.966c-1.0042 0-2.0702 0.0757-3.0358 0.167-0.0252 0.0024-0.0503 0.0048-0.0754 0.0073 0.3876 0.587 0.7623 1.1792 1.1522 1.7749 0.4244 0.6437 0.8675 1.2812 1.3388 1.9026 0.6877 0.9064 1.3702 1.8075 2.0899 2.7531-0.4602-1.0381-1.2455-2.0503-1.6544-2.8637-0.2947-0.5768-0.4025-1.0767-0.1088-1.4478 0.35-0.4643 0.8374-0.6599 1.2463-0.7524 0.3749-0.0788 0.6801-0.0543 0.7336-0.0683 0.8176-0.0475 1.5941-0.0769 2.317-0.0625 0.6983 0.0074 1.381 0.0699 2.0466 0.1615 0.2769 0.0509 0.5513 0.1061 0.8229 0.1656 0.0174 0.0012 0.4169-0.5242 0.4342-0.5227-0.5501-0.1502-1.1158-0.275-1.6969-0.3732-0.3951-0.076-0.7976-0.1533-1.212-0.2301-0.5179-0.0239-1.0276-0.041-1.5351-0.0593-0.6744-0.0262-1.3655-0.024-2.0716 0.0047h1e-4m9.8612 1.7399c0.197 0.128-0.0459 0.8037-0.0459 0.9783 2.4753 1.1292 4.4688 2.6865 5.775 4.5021 1.5121 1.7477 2.38 3.7993 2.3715 5.9928-0.1849 0.2569-0.4568 0.4708-0.7627 0.5976-0.4477 3.1548-2.6877 5.9023-5.9539 7.7894-2.5508 1.6092-5.8313 2.6753-9.4577 2.931-0.7336-0.0582-1.4254-0.1558-2.0703-0.2832-1.7481-0.1826-3.3175-0.5496-4.6814-1.035-2.6737-0.6288-5.0534-1.75-6.9417-3.2129-0.4381-0.3784-0.8659-0.7776-1.2789-1.1853-0.4046-0.3857-0.853-0.9077-1.1873-1.3278-0.4163-0.5347-0.8284-1.0487-1.179-1.5231-0.5009-0.8316-0.8615-1.7103-1.0622-2.6223-0.3629-0.3302-0.6266-0.6009-0.725-0.8346-0.0187-3.4078 2.1536-6.4599 5.603-8.516-0.0088 0.0478-1.0759-1.5241-1.0759-1.4741-0.575 0.5714-0.9295 1.1194-1.1726 1.5931-4.1162 2.2029-6.864 5.5-7.2499 9.2329 0.2457 0.4829 0.5865 0.898 0.9768 1.2196 0.3565 4.1671 3.6456 7.7957 8.5081 10.025 3.3414 1.6732 7.5207 2.657 12.05 2.6274 0.9717-0.1922 1.8465-0.5004 2.5112-0.8736 4.4724-0.6171 8.3235-2.2006 11.112-4.3715 3.5261-2.4336 5.6606-5.7913 5.5261-9.4839-0.0423-1.7569-0.6079-3.4162-1.5896-4.9152-0.2874-0.4874-0.6332-0.952-1.0227-1.3796-0.5787-0.5351-1.2147-1.0256-1.8987-1.4747-1.5791-1.4395-3.5931-2.6544-5.9132-3.5589h1e-3" fill="#f4ba0d"/>
			<path d="m31.998 21c-1.0021 0-2.0668 0.0756-3.0315 0.1669l-0.0753 0.0072c0.4063 0.5943 0.7977 1.1872 1.1987 1.7801 0.4362 0.6413 0.8843 1.2743 1.3547 1.8945 0.6858 0.9041 1.3674 1.804 2.0868 2.7492-0.48-1.0708-1.2899-2.1151-1.7186-2.9588-0.3053-0.5935-0.4236-1.1058-0.1347-1.4838 0.3472-0.4725 0.8335-0.6696 1.2413-0.7589 0.3768-0.0779 0.6836-0.0502 0.7353-0.0613 0.8213-0.0376 1.6073-0.0524 2.3472-0.0246 0.7156 0.0217 1.4153 0.0945 2.0975 0.1973 0.2764 0.0514 0.5503 0.1072 0.8214 0.1674 0.0138 9e-4 0.4155-0.5328 0.4291-0.5316-0.57-0.1535-1.1556-0.2817-1.7562-0.3838-0.4092-0.0769-0.8254-0.1525-1.2524-0.2254-0.5291-0.0336-1.0535-0.0585-1.5777-0.0812-0.6977-0.0317-1.4115-0.0353-2.1393-0.0126h1e-4m10.002 1.7606c0.1559 0.1013-0.1152 0.7487-0.1152 0.8868 2.5129 1.1106 4.5564 2.6572 5.9202 4.4722 1.537 1.7729 2.4199 3.8544 2.4132 6.0799-0.1463 0.2319-0.3622 0.4297-0.6056 0.5584-0.3873 3.2028-2.6011 6.0115-5.8756 7.9562-2.5797 1.6406-5.9013 2.7303-9.5752 2.9975-0.7206-0.0348-1.4105-0.1062-2.0652-0.207-1.7747-0.1445-3.3938-0.4776-4.8271-0.9408-2.7228-0.6332-5.1448-1.763-7.064-3.2384-0.4469-0.3744-0.8794-0.7694-1.2932-1.175-0.4107-0.3916-0.8487-0.8951-1.1881-1.3216-0.4128-0.5279-0.8121-1.044-1.1517-1.5326-0.5005-0.8476-0.8587-1.7433-1.0548-2.673-0.306-0.3668-0.5245-0.6885-0.6023-0.9825-0.0148-3.4705 2.1937-6.5801 5.6978-8.6789-7e-3 0.0377-1.0893-1.5691-1.0893-1.5294-0.5838 0.5067-0.9885 0.9993-1.3 1.4372-4.1835 2.2332-6.978 5.5774-7.3747 9.3641 0.1866 0.4528 0.4524 0.8527 0.7612 1.1792 0.2822 4.2305 3.5474 7.9322 8.4239 10.227 3.3813 1.7044 7.6137 2.7093 12.202 2.6859 0.9218-0.1521 1.765-0.4012 2.4398-0.7068 4.5404-0.5571 8.489-2.105 11.379-4.2656 3.6042-2.4528 5.7991-5.8466 5.6927-9.5836-0.0335-1.7828-0.5983-3.4702-1.5875-4.9979-0.2882-0.4835-0.6304-0.9462-1.0145-1.3766-0.5484-0.5332-1.1525-1.0268-1.8041-1.4827-1.6031-1.4614-3.6477-2.6948-6.003-3.613h9e-4" fill="#f4bc0c"/>
			<path d="m31.998 21.034c-1 0-2.0634 0.0754-3.0272 0.1666-0.0252 0.0023-0.0503 0.0047-0.0752 0.0072 0.4245 0.6013 0.8323 1.195 1.2441 1.7851 0.4477 0.6389 0.9008 1.2675 1.3702 1.8866 0.6839 0.9018 1.3646 1.8005 2.0838 2.7454-0.4994-1.1027-1.3333-2.1784-1.7814-3.0517-0.3157-0.6099-0.4441-1.1344-0.16-1.5192 0.3445-0.4805 0.8298-0.6789 1.2363-0.7652 0.3789-0.0769 0.6871-0.0461 0.737-0.0544 0.8249-0.0279 1.6202-0.0284 2.3768 0.0124 0.7325 0.0358 1.449 0.1187 2.1472 0.2323 0.276 0.052 0.5494 0.1084 0.82 0.1691 0.0102 7e-4 0.4141-0.541 0.4242-0.5402-0.5895-0.1567-1.1946-0.2882-1.8143-0.3942-0.4228-0.0778-0.8526-0.1517-1.2918-0.2208-0.5401-0.0431-1.0789-0.0755-1.6195-0.1025-0.7205-0.0372-1.4563-0.0464-2.2054-0.0296m10.139 1.7808c0.1156 0.0752-0.183 0.6949-0.183 0.7974 2.5497 1.0924 4.642 2.6284 6.0622 4.4429 1.5612 1.7976 2.4589 3.9083 2.454 6.1651-0.1086 0.2075-0.2696 0.3895-0.4519 0.5201-0.3283 3.2497-2.5165 6.1183-5.7991 8.1193-2.6079 1.6713-5.9697 2.784-9.6902 3.0625-0.7078-0.0118-1.3958-0.0576-2.0601-0.1324-1.8007-0.1073-3.4684-0.4072-4.9696-0.8486-2.7709-0.6375-5.2342-1.7757-7.1836-3.2634-0.4557-0.3705-0.8927-0.7615-1.3073-1.165-0.4167-0.3973-0.8443-0.8827-1.1887-1.3155-0.4095-0.5213-0.7964-1.0394-1.1252-1.5418-0.5-0.8634-0.8559-1.7757-1.0474-2.7228-0.2505-0.4026-0.4246-0.7741-0.4824-1.1271-0.011-3.5317 2.233-6.6976 5.7904-8.8383-0.0051 0.028-1.1023-1.6128-1.1023-1.5834-0.5924 0.4434-1.0462 0.8819-1.4245 1.2847-4.2494 2.2629-7.0895 5.6532-7.4969 9.4925 0.129 0.4234 0.3213 0.8084 0.5505 1.1397 0.2094 4.2925 3.4512 8.0658 8.3414 10.425 3.4203 1.7349 7.7047 2.7605 12.351 2.7432 0.8729-0.1129 1.6853-0.3043 2.37-0.5437 4.6069-0.4985 8.6509-2.0115 11.641-4.1621 3.6806-2.4716 5.9346-5.9006 5.8556-9.6811-0.0248-1.8081-0.5888-3.5229-1.5853-5.0787-0.289-0.4796-0.6278-0.9405-1.0066-1.3737-0.5188-0.5313-1.0916-1.0279-1.7115-1.4905-1.6266-1.4829-3.7011-2.7343-6.091-3.666h1e-3" fill="#f4bf0b"/>
			<path d="m31.998 21.066c-0.998 0-2.0601 0.0753-3.0231 0.1664-0.0251 0.0023-0.0501 0.0047-0.0751 0.0071 0.4424 0.6083 0.8662 1.2027 1.2887 1.7902 0.459 0.6365 0.9168 1.2607 1.3853 1.8787 0.6822 0.8997 1.3619 1.7972 2.0809 2.7418-0.5184-1.1341-1.3759-2.2405-1.8429-3.1427-0.3258-0.626-0.4643-1.1624-0.1848-1.5538 0.3419-0.4883 0.8261-0.6881 1.2315-0.7715 0.3808-0.0759 0.6904-0.0421 0.7387-0.0475 0.8284-0.0185 1.6328-5e-3 2.4058 0.0486 0.7489 0.0495 1.4817 0.1422 2.1957 0.2666 0.2756 0.0525 0.5486 0.1094 0.8186 0.1707 0.0068 5e-4 0.4127-0.5492 0.4194-0.5486-0.6086-0.1598-1.2327-0.2946-1.8711-0.4044-0.4362-0.0786-0.8792-0.1509-1.3304-0.2163-0.5509-0.0523-1.1038-0.0923-1.6603-0.1235-0.7429-0.0424-1.5003-0.0572-2.2702-0.0461m10.274 1.8006c0.0764 0.0497-0.2493 0.6422-0.2493 0.7099 2.5858 1.0745 4.7259 2.6003 6.2013 4.4142 1.5849 1.8218 2.497 3.961 2.4938 6.2486-0.0717 0.1835-0.179 0.35-0.3014 0.4825-0.2706 3.2956-2.4337 6.2227-5.7242 8.2789-2.6356 1.7014-6.0367 2.8366-9.8027 3.1262-0.6954 0.0106-1.3816-0.0101-2.0552-0.0595-1.8262-0.0707-3.5415-0.3382-5.1091-0.7584-2.818-0.6416-5.3217-1.7881-7.3007-3.2877-0.4641-0.3668-0.9056-0.7538-1.321-1.1553-0.4226-0.4029-0.8401-0.8706-1.1894-1.3094-0.4062-0.5149-0.7808-1.035-1.0991-1.551-0.4996-0.8787-0.8532-1.8073-1.0403-2.7714-0.1961-0.4376-0.3268-0.8579-0.3649-1.2686-0.0073-3.5917 2.2714-6.8127 5.881-8.9943-0.0034 0.0185-1.1151-1.6558-1.1151-1.6364-0.6008 0.3816-1.1026 0.767-1.5463 1.1355-4.3139 2.292-7.1987 5.7273-7.6164 9.6182 0.0724 0.3946 0.1929 0.765 0.3441 1.101 0.1381 4.3532 3.3572 8.1965 8.2606 10.618 3.4586 1.7648 7.7939 2.8106 12.497 2.7992 0.8251-0.0745 1.6074-0.2093 2.3017-0.3839 4.6721-0.4413 8.8094-1.9201 11.897-4.0608 3.7553-2.49 6.0672-5.9535 6.0151-9.7765-0.0164-1.8329-0.5796-3.5746-1.5833-5.158-0.2898-0.4758-0.6251-0.9349-0.9987-1.3707-0.4898-0.5295-1.0322-1.0291-1.6209-1.4982-1.6496-1.5038-3.7535-2.7729-6.1771-3.7178h1e-3" fill="#f4c10a"/>
			<path d="m31.998 21.098c-0.996 0-2.0569 0.0752-3.019 0.1661-0.0251 0.0023-0.0501 0.0047-0.0751 0.0071 0.46 0.6151 0.8994 1.2102 1.3323 1.795 0.4701 0.6342 0.9326 1.2543 1.4002 1.8711 0.6804 0.8976 1.3593 1.794 2.0781 2.7382-0.5371-1.1648-1.4176-2.3013-1.9032-3.2318-0.3357-0.6417-0.484-1.1897-0.209-1.5877 0.3392-0.496 0.8225-0.6971 1.2267-0.7775 0.3827-0.075 0.6938-0.0383 0.7403-0.041 0.8319-0.0091 1.6452 0.0181 2.4341 0.0842 0.7651 0.063 1.514 0.1653 2.2435 0.3001 0.2752 0.053 0.5476 0.1105 0.8172 0.1724 0.0034 2e-4 0.4114-0.5572 0.4147-0.5569-0.6273-0.1629-1.2701-0.3008-1.9268-0.4144-0.4494-0.0794-0.9053-0.1501-1.3683-0.2119-0.5614-0.0613-1.128-0.1086-1.7003-0.1439-0.7647-0.0476-1.5433-0.0678-2.3336-0.0623m10.406 1.8199c0.0378 0.0246-0.3143 0.5906-0.3143 0.6241 2.6211 1.0571 4.808 2.5728 6.3374 4.3862 1.6082 1.8454 2.5345 4.0127 2.5328 6.3302-0.0354 0.1601-0.0902 0.3115-0.154 0.4458-0.2139 3.3406-2.3525 6.3251-5.6507 8.4353-2.6627 1.7309-6.1024 2.8882-9.913 3.1886-0.6831 0.0326-1.3675 0.0364-2.0503 0.0119-1.8512-0.035-3.6131-0.2707-5.2457-0.67-2.8641-0.6457-5.4075-1.8003-7.4155-3.3117-0.4724-0.363-0.9182-0.7462-1.3344-1.1456-0.4284-0.4084-0.836-0.8588-1.19-1.3036-0.403-0.5086-0.7657-1.0306-1.0736-1.5598-0.4992-0.8938-0.8506-1.8384-1.0334-2.8191-0.1428-0.4719-0.231-0.94-0.2499-1.4072-0.0036-3.6504 2.3091-6.9255 5.9699-9.1472-0.0016 0.0092-1.1277-1.6978-1.1277-1.6882-0.6089 0.321-1.1578 0.6545-1.6657 0.9894-4.377 2.3204-7.3056 5.7998-7.7334 9.7412 0.0171 0.3664 0.0671 0.7226 0.142 1.0632 0.0684 4.4125 3.2651 8.3245 8.1816 10.807 3.496 1.794 7.8811 2.8597 12.639 2.8541 0.7783-0.0369 1.531-0.1163 2.2348-0.2275 4.7359-0.3851 8.9646-1.8304 12.148-3.9616 3.8286-2.5079 6.1971-6.0053 6.1713-9.8699-0.0081-1.8571-0.5705-3.6253-1.5813-5.2355-0.2906-0.4721-0.6225-0.9295-0.991-1.3679-0.4614-0.5278-0.9738-1.0302-1.5322-1.5058-1.6721-1.5243-3.8047-2.8107-6.2614-3.7685h1e-3" fill="#f4c409"/>
			<path d="m31.998 21.13c-0.9941 0-2.0537 0.075-3.0151 0.1659-0.025 0.0023-0.05 0.0047-0.0749 0.0071 0.4771 0.6218 0.932 1.2176 1.3751 1.7998 0.4809 0.6319 0.948 1.2478 1.4147 1.8636 0.6787 0.8955 1.3566 1.7907 2.0752 2.7346-0.5553-1.1948-1.4583-2.3608-1.9622-3.3192-0.3454-0.657-0.5033-1.2165-0.2328-1.6208 0.3367-0.5035 0.819-0.7059 1.2221-0.7835 0.3846-0.0741 0.697-0.0345 0.7419-0.0345 0.8353 0 1.6573 0.0406 2.4619 0.119 0.781 0.0762 1.5456 0.188 2.2902 0.333 0.2748 0.0535 0.5468 0.1116 0.8159 0.174l0.41-0.565c-0.6456-0.166-1.3067-0.307-1.9814-0.4242-0.4622-0.0802-0.9308-0.1493-1.4053-0.2076-0.5717-0.0702-1.1519-0.1246-1.7395-0.164-0.7861-0.0526-1.5855-0.0782-2.3958-0.0782zm10.535 1.839-0.378 0.54c2.6557 1.04 4.8885 2.5459 6.4709 4.3587 1.631 1.8686 2.5711 4.0633 2.5711 6.4103 0 0.1371-0.0032 0.2737-0.0096 0.4097-0.1584 3.3847-2.2729 6.4255-5.5788 8.5886-2.6892 1.7597-6.1667 2.9387-10.021 3.2497-0.6712 0.0542-1.3538 0.082-2.0457 0.082-1.8756 0-3.6832-0.2045-5.3796-0.5834-2.9093-0.6498-5.4914-1.8123-7.5279-3.3352-0.4805-0.3593-0.9307-0.7387-1.3475-1.1361-0.4341-0.4138-0.832-0.8472-1.1907-1.2979-0.3999-0.5024-0.7509-1.0263-1.0486-1.5685-0.4988-0.9086-0.848-1.8688-1.0266-2.8658-0.0905-0.5055-0.1371-1.0205-0.1371-1.5431 0-3.708 2.346-7.036 6.057-9.297l-1.14-1.739c-0.617 0.2616-1.212 0.5441-1.7827 0.8461-4.4389 2.3483-7.4104 5.871-7.8482 9.8619-0.0372 0.3388-0.0561 0.6809-0.0561 1.026 0 4.4708 3.1748 8.45 8.1041 10.993 3.5327 1.8227 7.9666 2.9078 12.779 2.9078 0.7325 0 1.4562-0.0251 2.1693-0.0742 4.7983-0.33 9.1168-1.7425 12.393-3.8642 3.9004-2.5256 6.3244-6.0561 6.3244-9.9616 0-1.8809-0.5616-3.6748-1.5793-5.3115-0.2913-0.4685-0.62-0.9241-0.9835-1.3652-0.4335-0.5259-0.9167-1.0312-1.4452-1.513-1.6942-1.5445-3.8549-2.8479-6.344-3.8183z" fill="#f4c708"/>
		</g>
		<path d="m31.998 21.13c-1.02 0-2.109 0.079-3.09 0.173 1.748 2.278 3.197 4.207 4.865 6.398-0.936-2.014-2.86-3.946-2.195-4.94 0.658-0.984 1.872-0.818 1.964-0.818 1.945 0 3.818 0.22 5.568 0.626l0.41-0.565c-2.334-0.6-4.87-0.874-7.522-0.874zm10.535 1.839-0.378 0.54c5.393 2.112 9.042 6.145 9.042 10.769 0 6.807-7.91 12.33-17.655 12.33-9.746 0-17.658-5.523-17.658-12.33 0-3.708 2.346-7.036 6.057-9.297l-1.14-1.739c-5.823 2.469-9.687 6.801-9.687 11.734 0 7.675 9.356 13.901 20.883 13.901 11.528 0 20.887-6.226 20.887-13.9 0-5.119-4.16-9.594-10.352-12.008z" fill="#f3ed86"/>
	</g>
</svg>
