<?xml version="1.0" encoding="UTF-8"?>
<!-- Created with Inkscape (http://www.inkscape.org/) -->
<svg width="24" height="24" version="1.0" xmlns="http://www.w3.org/2000/svg" xmlns:cc="http://creativecommons.org/ns#" xmlns:dc="http://purl.org/dc/elements/1.1/" xmlns:rdf="http://www.w3.org/1999/02/22-rdf-syntax-ns#">
	<defs>
		<style id="current-color-scheme" type="text/css">.ColorScheme-Text {color:#090d11;}
			.ColorScheme-NegativeText{color:#fa0473;}</style>
	</defs>
	<metadata>
		<rdf:RDF>
			<cc:Work rdf:about="">
				<dc:format>image/svg+xml</dc:format>
				<dc:type rdf:resource="http://purl.org/dc/dcmitype/StillImage"/>
			</cc:Work>
		</rdf:RDF>
	</metadata>
	<path id="b" class="ColorScheme-NegativeText error" d="m12 3c-4.9646 0-9 4.0354-9 9 0 4.9646 4.0354 9 9 9 4.9646 0 9-4.0354 9-9 0-4.9646-4.0354-9-9-9zm0 1c4.4242 0 8 3.5758 8 8 0 4.4242-3.5758 8-8 8-4.4242 0-8-3.5758-8-8 0-4.4242 3.5758-8 8-8zm-3.5 4c-0.1326 2e-5 -0.25976 0.052712-0.35352 0.14648-0.19521 0.19525-0.19521 0.51178 0 0.70703l3.1465 3.1465-3.1465 3.1465c-0.19521 0.19525-0.19521 0.51178 0 0.70703 0.19525 0.19521 0.51178 0.19521 0.70703 0l3.1465-3.1465 3.1465 3.1465c0.19525 0.19521 0.51178 0.19521 0.70703 0 0.19521-0.19525 0.19521-0.51178 0-0.70703l-3.1465-3.1465 3.1465-3.1465c0.19521-0.19525 0.19521-0.51178 0-0.70703-0.19525-0.19521-0.51178-0.19521-0.70703 0l-3.1465 3.1465-3.1465-3.1465c-0.093753-0.093773-0.22092-0.14646-0.35352-0.14648z" style="fill:currentColor"/>
</svg>
