<?xml version="1.0" encoding="UTF-8"?>
<svg id="d" width="24" height="24" version="1.1" xmlns="http://www.w3.org/2000/svg" xmlns:cc="http://creativecommons.org/ns#" xmlns:dc="http://purl.org/dc/elements/1.1/" xmlns:rdf="http://www.w3.org/1999/02/22-rdf-syntax-ns#">
	<metadata id="a">
		<rdf:RDF>
			<cc:Work rdf:about="">
				<dc:format>image/svg+xml</dc:format>
				<dc:type rdf:resource="http://purl.org/dc/dcmitype/StillImage"/>
				<dc:title/>
			</cc:Work>
		</rdf:RDF>
	</metadata>
	<defs>
		<style id="current-color-scheme" type="text/css">
			.ColorScheme-Background{color:#ffffff;}
			.ColorScheme-Text{color:#090d11;}
			.ColorScheme-Highlight{color:#2598e4;}
			.ColorScheme-NegativeText {color:#f03489;}
			.ColorScheme-PositiveText {color:#42a53b;}
            .ColorScheme-NeutralText{color:#f2712c;}</style>
	</defs>
	<path id="b" d="m11.998 3c-0.30808 8.817e-4 -5.1938 8.4987-5.3477 8.7656-0.15351 0.2659-5.0526 8.7211-4.8984 8.9863 0.15481 0.26639 9.9552 0.24805 10.264 0.24805 0.30703 0 10.08 0.018337 10.232-0.24805 0.15331-0.26726-4.7619-8.7503-4.916-9.0176-0.15351-0.2659-5.027-8.7353-5.334-8.7344zm0.001953 7c0.554 0 1 0.446 1 1v3c0 0.554-0.446 1-1 1s-1-0.446-1-1v-3c0-0.554 0.446-1 1-1zm0 6c0.554 0 1 0.446 1 1s-0.446 1-1 1-1-0.446-1-1 0.446-1 1-1z" style="fill:currentColor" class="ColorScheme-NeutralText warning"/>
</svg>
