<?xml version="1.0" encoding="UTF-8"?>
<!-- Created with Inkscape (http://www.inkscape.org/) -->
<svg width="24" height="24" version="1.1" xmlns="http://www.w3.org/2000/svg" xmlns:cc="http://creativecommons.org/ns#" xmlns:dc="http://purl.org/dc/elements/1.1/" xmlns:rdf="http://www.w3.org/1999/02/22-rdf-syntax-ns#">
	<defs>
		<style id="current-color-scheme" type="text/css">.ColorScheme-Text {color:#090d11;}.ColorScheme-Background{color:#ffffff;}</style>
		<style type="text/css">.ColorScheme-Text {color:#090d11;}.ColorScheme-Background{color:#ffffff;}</style>
	</defs>
	<metadata>
		<rdf:RDF>
			<cc:Work rdf:about="">
				<dc:format>image/svg+xml</dc:format>
				<dc:type rdf:resource="http://purl.org/dc/dcmitype/StillImage"/>
			</cc:Work>
		</rdf:RDF>
	</metadata>
	<path id="c" class="ColorScheme-Background" d="m12.002 1.8516c-5.5979 0-10.148 4.5508-10.148 10.148 0 5.598 4.5508 10.146 10.148 10.146 5.5979 0 10.146-4.5491 10.146-10.146-1.02e-4 -5.5979-4.5491-10.148-10.146-10.148zm0 1.0996c5.0034 1e-4 9.0468 4.0453 9.0469 9.0488 0 5.0034-4.0434 9.0469-9.0469 9.0469-5.0035 0-9.0489-4.0434-9.0488-9.0469 0-5.0035 4.0453-9.0488 9.0488-9.0488zm-0.73047 1.3691c-0.27435 0.026761-0.47528 0.27051-0.44922 0.54492l0.53711 5.666c-0.56558 0.24718-0.96094 0.81201-0.96094 1.4688 9.7e-5 0.8844 0.71702 1.6016 1.6016 1.6016 0.41949 0 0.80046-0.16181 1.0859-0.42578l3.1719 1.7617c0.24162 0.13379 0.54595 0.04634 0.67969-0.19531 0.13411-0.24111 0.04758-0.54527-0.19336-0.67969l-3.1719-1.7617c0.01856-0.09754 0.0293-0.19784 0.0293-0.30078 0-0.76282-0.53405-1.3994-1.248-1.5605l-0.53711-5.6699c-0.02676-0.27435-0.27051-0.47529-0.54492-0.44922z" style="fill-opacity:.5;fill:currentColor"/>
	<path id="d" class="ColorScheme-Text" d="m12.002 2.9492c-4.9917-1.002e-4 -9.0508 4.0591-9.0508 9.0508s4.0591 9.0488 9.0508 9.0488c4.9916-1e-4 9.0488-4.0572 9.0488-9.0488 0-4.9917-4.0572-9.0507-9.0488-9.0508zm0 1.0996c4.3971 1e-4 7.9492 3.554 7.9492 7.9512 0 4.3971-3.5521 7.9491-7.9492 7.9492-4.3973 0-7.9512-3.552-7.9512-7.9492 0-4.3973 3.554-7.9512 7.9512-7.9512zm0.48438 1.9512c-0.25275 0.00788-0.45983 0.20322-0.48242 0.45508l-0.40234 4.4199c-0.46337 0.16416-0.79688 0.60522-0.79687 1.125 9.7e-5 0.6595 0.53581 1.1934 1.1953 1.1934 0.6596 0 1.1933-0.53386 1.1934-1.1934 0-0.44153-0.23953-0.82652-0.5957-1.0332l0.40234-4.4219c0.02485-0.27508-0.17804-0.5182-0.45312-0.54297-0.02012-0.00187-0.04034-0.00253-0.06055-0.00195zm-0.48633 5.6445c0.1958 0 0.35547 0.15957 0.35547 0.35547 0 0.1958-0.15967 0.35352-0.35547 0.35352s-0.35352-0.15772-0.35352-0.35352 0.15772-0.35547 0.35352-0.35547zm1.4297 1.0762c-0.15391 0.30452-0.40279 0.55264-0.70703 0.70703l2.4609 2.4609c0.19525 0.19521 0.51178 0.19521 0.70703 0 0.19521-0.19525 0.19521-0.51178 0-0.70703z" style="fill-opacity:.75;fill:currentColor"/>
</svg>
