<?xml version="1.0" encoding="UTF-8"?>
<!-- Created with Inkscape (http://www.inkscape.org/) -->
<svg width="24" height="24" version="1.1" xmlns="http://www.w3.org/2000/svg" xmlns:cc="http://creativecommons.org/ns#" xmlns:dc="http://purl.org/dc/elements/1.1/" xmlns:rdf="http://www.w3.org/1999/02/22-rdf-syntax-ns#">
	<metadata>
		<rdf:RDF>
			<cc:Work rdf:about="">
				<dc:format>image/svg+xml</dc:format>
				<dc:type rdf:resource="http://purl.org/dc/dcmitype/StillImage"/>
			</cc:Work>
		</rdf:RDF>
	</metadata>
	<defs id="e">
		<style id="current-color-scheme" type="text/css">.ColorScheme-Text {color:#090d11;}
			.ColorScheme-Background{color:#ffffff;}</style>
	</defs>
	<path class="ColorScheme-Text" d="m20 14c-1.0994 0-2 0.90065-2 2v2.9961c-0.31394 0.41784-0.5 0.93872-0.5 1.5039 0 1.385 1.115 2.5 2.5 2.5s2.5-1.115 2.5-2.5c0-0.56519-0.18606-1.0861-0.5-1.5039v-2.9961c0-1.0994-0.90065-2-2-2zm0 1c0.56265 0 1 0.43735 1 1v2.207c-0.30606-0.13308-0.64386-0.20703-1-0.20703s-0.69394 0.073948-1 0.20703v-2.207c0-0.56265 0.43735-1 1-1z" style="fill-opacity:.75;fill:currentColor"/>
</svg>
