<?xml version="1.0" encoding="UTF-8" standalone="no"?>
<svg
   xmlns:dc="http://purl.org/dc/elements/1.1/"
   xmlns:cc="http://creativecommons.org/ns#"
   xmlns:rdf="http://www.w3.org/1999/02/22-rdf-syntax-ns#"
   xmlns:svg="http://www.w3.org/2000/svg"
   xmlns="http://www.w3.org/2000/svg"
   version="1.1"
   width="22"
   height="22"
   id="svg13094">
  <metadata
     id="metadata13099">
    <rdf:RDF>
      <cc:Work
         rdf:about="">
        <dc:format>image/svg+xml</dc:format>
        <dc:type
           rdf:resource="http://purl.org/dc/dcmitype/StillImage" />
        <dc:title></dc:title>
      </cc:Work>
    </rdf:RDF>
  </metadata>
	<defs>
		<style id="current-color-scheme" type="text/css">
			.ColorScheme-Background{color:#ffffff;}
			.ColorScheme-Text{color:#090d11;}
			.ColorScheme-Highlight{color:#2598e4;}
			.ColorScheme-NegativeText {color:#f03489;}
			.ColorScheme-PositiveText {color:#42a53b;}
            .ColorScheme-NeutralText{color:#f2712c;}
		</style>
	</defs>
  <path
     style="fill:currentColor;fill-opacity:1;stroke-width:0.46808514"
     class="ColorScheme-Background"
     d="m 18.778176,18.778171 a 11.000001,11.000001 0 0 1 -15.5563501,0 11.000001,11.000001 0 0 1 0,-15.5563502 11.000001,11.000001 0 0 1 15.5563501,0 11.000001,11.000001 0 0 1 0,15.5563502 z"
     id="path3000" />
  <path
     class="ColorScheme-Highlight"
     style="fill:currentColor;fill-opacity:1"
     d="M 11.130859,2 C 8.6987853,1.96525 6.3561984,2.9163752 4.6367188,4.6367188 c -3.5138121,3.5145632 -3.5138121,9.2119992 0,12.7265622 3.5145631,3.513812 9.2119992,3.513812 12.7265622,0 3.513812,-3.514563 3.513812,-9.211999 0,-12.7265622 C 15.707927,2.9804979 13.47224,2.0346574 11.130859,2 Z M 11,6 c 0.554,0 1,0.446 1,1 v 3 h 3 c 0.554,0 1,0.446 1,1 0,0.554 -0.446,1 -1,1 h -3 v 3 c 0,0.554 -0.446,1 -1,1 -0.554,0 -1,-0.446 -1,-1 V 12 H 7 C 6.446,12 6,11.554 6,11 6,10.446 6.446,10 7,10 h 3 V 7 c 0,-0.554 0.446,-1 1,-1 z"
     id="path3778" />
</svg>
