<?xml version="1.0" encoding="UTF-8" standalone="no"?>
<svg
   xmlns:dc="http://purl.org/dc/elements/1.1/"
   xmlns:cc="http://creativecommons.org/ns#"
   xmlns:rdf="http://www.w3.org/1999/02/22-rdf-syntax-ns#"
   xmlns:svg="http://www.w3.org/2000/svg"
   xmlns="http://www.w3.org/2000/svg"
   id="svg13094"
   height="22"
   width="22"
   version="1.1">
  <metadata
     id="metadata13099">
    <rdf:RDF>
      <cc:Work
         rdf:about="">
        <dc:format>image/svg+xml</dc:format>
        <dc:type
           rdf:resource="http://purl.org/dc/dcmitype/StillImage" />
        <dc:title></dc:title>
      </cc:Work>
    </rdf:RDF>
  </metadata>
	<defs>
		<style id="current-color-scheme" type="text/css">
			.ColorScheme-Background{color:#ffffff;}
			.ColorScheme-Text{color:#090d11;}
			.ColorScheme-Highlight{color:#2598e4;}
			.ColorScheme-NegativeText {color:#f03489;}
			.ColorScheme-PositiveText {color:#42a53b;}
            .ColorScheme-NeutralText{color:#f2712c;}
		</style>
	</defs>
  <path
     id="path3000"
     d="m 18.778176,18.778171 c -4.295768,4.295767 -11.2605826,4.295767 -15.5563501,0 -4.2957673,-4.295768 -4.2957673,-11.2605826 0,-15.5563502 4.2957675,-4.2957673 11.2605821,-4.2957673 15.5563501,0 4.295767,4.2957676 4.295767,11.2605822 0,15.5563502 z"
     class="ColorScheme-Background"
     style="fill:currentColor;fill-opacity:1;stroke-width:0.46808514" />
  <path
     id="path3778"
     d="M 11.130859,2 C 8.6987853,1.96525 6.3561984,2.9163752 4.6367188,4.6367188 c -3.5138121,3.5145632 -3.5138121,9.2119992 0,12.7265622 3.5145631,3.513812 9.2119992,3.513812 12.7265622,0 3.513812,-3.514563 3.513812,-9.211999 0,-12.7265622 C 15.707927,2.9804979 13.47224,2.0346574 11.130859,2 Z M 15,10 c 0.554,0 1,0.446 1,1 0,0.554 -0.446,1 -1,1 H 7 C 6.446,12 6,11.554 6,11 6,10.446 6.446,10 7,10 Z"
     style="fill:currentColor;fill-opacity:1"
     class="ColorScheme-NegativeText" />
</svg>
