<?xml version="1.0" encoding="UTF-8"?>
<svg id="a" width="24" height="24" version="1.1" xmlns="http://www.w3.org/2000/svg" xmlns:cc="http://creativecommons.org/ns#" xmlns:dc="http://purl.org/dc/elements/1.1/" xmlns:rdf="http://www.w3.org/1999/02/22-rdf-syntax-ns#">
	<metadata id="d">
		<rdf:RDF>
			<cc:Work rdf:about="">
				<dc:format>image/svg+xml</dc:format>
				<dc:type rdf:resource="http://purl.org/dc/dcmitype/StillImage"/>
				<dc:title/>
			</cc:Work>
		</rdf:RDF>
	</metadata>
	<defs>
		<style id="current-color-scheme" type="text/css">.ColorScheme-Text {color:#090d11;}.ColorScheme-Background{color:#ffffff;}</style>
	</defs>
	<path id="c" d="m12 4c-1.1046 0-2 0.8954-2 2s0.89543 2 2 2c1.1046 0 2-0.8954 2-2s-0.89543-2-2-2zm0 4h-7v1l5 1v2l-2 8h2l2-6 2 6h2l-2-8v-2l5-1v-1h-5z" style="fill-opacity:.75;fill:currentColor" class="ColorScheme-Text"/>
	<path id="b" d="m12 2.8438c-1.7261 0-3.1562 1.4302-3.1562 3.1562 0 0.3264 0.061991 0.7027 0.15625 1h-5v3l0.71875 0.125 4.125 0.78125v0.90625l-1.9375 7.8125-0.4375 1.375h4.4375l0.1875-0.625 0.90625-2.7188 0.90625 2.7188 0.1875 0.625h4.4375l-0.4375-1.375-1.9375-7.8125v-0.90625l4.125-0.78125 0.71875-0.125v-3h-5c0.09426-0.2973 0.15625-0.6736 0.15625-1 0-1.7261-1.4302-3.1562-3.1562-3.1562zm0 1.1562c1.1046 0 2 0.8954 2 2s-0.89543 2-2 2h7v1l-5 1v2l2 8h-2l-2-6-2 6h-2l2-8v-2l-5-1v-1h7c-1.1046 0-2-0.8954-2-2s0.89543-2 2-2z" style="fill-opacity:.5;fill:currentColor" class="ColorScheme-Background"/>
</svg>
