<?xml version="1.0" encoding="UTF-8"?>
<!-- Created with Inkscape (http://www.inkscape.org/) -->
<svg width="24" height="24" version="1.1" xmlns="http://www.w3.org/2000/svg" xmlns:cc="http://creativecommons.org/ns#" xmlns:dc="http://purl.org/dc/elements/1.1/" xmlns:rdf="http://www.w3.org/1999/02/22-rdf-syntax-ns#">
	<defs>
		<radialGradient id="a" cx="-9382.9" cy="5039.4" r="9" gradientTransform="matrix(-2.2077,0,0,-1.9624,-20697,9894.2)" gradientUnits="userSpaceOnUse">
			<stop stop-color="#213851" stop-opacity=".9059" offset="0"/>
			<stop stop-color="#27303a" stop-opacity="0" offset="1"/>
		</radialGradient>
		<radialGradient id="b" cx="9.9746" cy="5.9293" r="9.0713" gradientTransform="matrix(1 0 0 .99903 2.6485 3.5686)" gradientUnits="userSpaceOnUse">
			<stop stop-color="#ffffff" stop-opacity=".8252" offset="0"/>
			<stop stop-color="#ffffff" stop-opacity=".6051" offset="1"/>
		</radialGradient>
	</defs>
	<metadata>
		<rdf:RDF>
			<cc:Work rdf:about="">
				<dc:format>image/svg+xml</dc:format>
				<dc:type rdf:resource="http://purl.org/dc/dcmitype/StillImage"/>
				<dc:title/>
			</cc:Work>
		</rdf:RDF>
	</metadata>
	<path d="m14.668 3.002c-1.9547-0.048465-3.8991 0.78266-5.2109 2.3965-1.9927 2.4514-1.9146 5.9631 0.11133 8.3262l-1.6797 1.6797a1.0001 1.0001 0 0 0-0.73633-0.29297 1.0001 1.0001 0 0 0-0.6875 0.30273l-3.5352 3.5352a1.0001 1.0001 0 1 0 1.4141 1.4141l3.5059-3.5059a0.50005 0.50005 0 0 0 0.029297-0.029297l2.666-2.668a0.50005 0.50005 0 0 0 0.007812-0.005859 0.50005 0.50005 0 0 0 0.20898-0.41797 0.50005 0.50005 0 0 0 0-0.003906 0.50005 0.50005 0 0 0 0-0.003906 0.50005 0.50005 0 0 0-0.17578-0.37109c-1.9692-1.9981-2.1278-5.1477-0.35547-7.3281 0.33281-0.40943 0.72306-0.73899 1.1367-1.0273-1.3944 3.1208-1.0716 6.6287 0.36328 10.014a0.50061 0.50061 0 0 0 0.078125 0.12695 0.50034 0.50034 0 0 0 0.31641 0.4082c2.5159 0.98732 5.3132 0.29758 7.0938-1.5801a0.50005 0.50005 0 0 0 0.001953-0.001953 0.50005 0.50005 0 0 0 0.097656-0.11133 0.50005 0.50005 0 0 0 0.001953-0.003906c0.36756-0.40671 0.69296-0.86176 0.95508-1.3691 1.1454-2.2173 0.89382-4.8237-0.47852-6.7559-0.45745-0.64406-1.0384-1.2123-1.7344-1.668-1.044-0.68352-2.2217-1.0295-3.3945-1.0586zm0.32422 1.0371c0.47171 0.042538 0.93949 0.14142 1.3945 0.30859-1.2923 3.3152-1.4884 6.7832-0.080078 10.338-0.408 0.14215-0.8326 0.22456-1.2656 0.26758-1.621-3.7762-1.4465-7.3603-0.048828-10.914zm-1.0645 0.0039063c-1.295 3.5106-1.4453 7.1662 0.046875 10.91-0.43841-0.042462-0.87536-0.13042-1.3066-0.2832a0.50061 0.50061 0 0 0-0.015625-0.044922c-1.4807-3.4932-1.7001-6.9562-0.025391-9.9512a0.50005 0.50005 0 0 0 0.052735-0.36719c0.4039-0.14141 0.8238-0.21927 1.248-0.26367zm3.3672 0.73828c0.071148 0.042181 0.14695 0.069504 0.2168 0.11523 0.3232 0.2116 0.61138 0.45736 0.875 0.7207-0.96742 2.505-1.1167 5.1362-0.072266 7.8242-0.33375 0.32326-0.69834 0.60385-1.0957 0.83008-1.2881-3.2781-1.1155-6.396 0.076172-9.4902zm1.8242 1.7617c1.0286 1.6072 1.1957 3.6838 0.26758 5.4805-0.097632 0.18899-0.22209 0.35445-0.33789 0.52734-0.6778-2.0634-0.5844-4.0401 0.070313-6.0078z" fill="#090d11" fill-opacity=".76621" style="font-feature-settings:normal;font-variant-alternates:normal;font-variant-caps:normal;font-variant-east_asian:normal;font-variant-ligatures:normal;font-variant-numeric:normal;font-variant-position:normal;isolation:auto;mix-blend-mode:normal;paint-order:normal;shape-padding:0;text-decoration-color:#000000;text-decoration-line:none;text-decoration-style:solid;text-indent:0;text-orientation:mixed;text-transform:none;white-space:normal"/>
	<path d="m14.668 3.002c-1.9547-0.048465-3.8991 0.78266-5.2109 2.3965-1.9927 2.4514-1.9146 5.9631 0.11133 8.3262l-1.6797 1.6797a1.0001 1.0001 0 0 0-0.73633-0.29297 1.0001 1.0001 0 0 0-0.6875 0.30273l-3.5352 3.5352a1.0001 1.0001 0 1 0 1.4141 1.4141l3.5059-3.5059a0.50005 0.50005 0 0 0 0.029297-0.029297l2.666-2.668a0.50005 0.50005 0 0 0 0.007812-0.005859 0.50005 0.50005 0 0 0 0.20898-0.41797 0.50005 0.50005 0 0 0 0-0.003906 0.50005 0.50005 0 0 0 0-0.003906 0.50005 0.50005 0 0 0-0.17578-0.37109c-1.9692-1.9981-2.1278-5.1478-0.35547-7.3281 0.33281-0.40943 0.72306-0.73899 1.1367-1.0273-1.3944 3.1208-1.0716 6.6287 0.36328 10.014a0.50061 0.50061 0 0 0 0.080078 0.12891 0.50034 0.50034 0 0 0 0.31445 0.40625c2.5159 0.98732 5.3132 0.29758 7.0938-1.5801a0.50005 0.50005 0 0 0 0.001953-0.001953 0.50005 0.50005 0 0 0 0.097656-0.11133 0.50005 0.50005 0 0 0 0.001953-0.003906c0.36756-0.40671 0.69296-0.86176 0.95508-1.3691 1.1454-2.2173 0.89382-4.8237-0.47852-6.7559-0.45745-0.64406-1.0384-1.2123-1.7344-1.668-1.044-0.68352-2.2217-1.0295-3.3945-1.0586zm0.32422 1.0371c0.47171 0.042538 0.93949 0.14142 1.3945 0.30859-1.2923 3.3152-1.4885 6.7832-0.080078 10.338-0.408 0.14215-0.8326 0.22456-1.2656 0.26758-1.621-3.7762-1.4465-7.3603-0.048828-10.914zm-1.0645 0.0039063c-1.295 3.5106-1.4453 7.1662 0.046875 10.91-0.43841-0.042462-0.87536-0.13042-1.3066-0.2832a0.50061 0.50061 0 0 0-0.015625-0.044922c-1.4807-3.4932-1.7001-6.9562-0.025391-9.9512a0.50005 0.50005 0 0 0 0.052735-0.36719c0.4039-0.14141 0.8238-0.21927 1.248-0.26367zm3.3672 0.73828c0.071148 0.042181 0.14695 0.069504 0.2168 0.11523 0.3232 0.2116 0.61138 0.45736 0.875 0.7207-0.96742 2.505-1.1167 5.1362-0.072266 7.8242-0.33375 0.32326-0.69834 0.60385-1.0957 0.83008-1.2881-3.2781-1.1155-6.396 0.076172-9.4902zm1.8242 1.7617c1.0286 1.6072 1.1957 3.6838 0.26758 5.4805-0.097632 0.18899-0.22209 0.35445-0.33789 0.52734-0.6778-2.0634-0.58438-4.0401 0.070313-6.0078z" fill="url(#a)" style="font-feature-settings:normal;font-variant-alternates:normal;font-variant-caps:normal;font-variant-east_asian:normal;font-variant-ligatures:normal;font-variant-numeric:normal;font-variant-position:normal;isolation:auto;mix-blend-mode:normal;paint-order:normal;shape-padding:0;text-decoration-color:#000000;text-decoration-line:none;text-decoration-style:solid;text-indent:0;text-orientation:mixed;text-transform:none;white-space:normal"/>
	<path d="m14.77 2.0059c-1.8352-0.06625-3.6939 0.53597-5.1797 1.8223-2.9715 2.5725-3.4512 7.0164-1.0977 10.164a0.50022 0.50022 0 0 0 0.70508 0.10352l0.0058594-0.003906 0.087891-0.089844a0.50022 0.50022 0 0 0 0.0019532-0.60938c-0.029798-0.039852-0.053277-0.082734-0.082031-0.12305-1.0233-1.4347-1.3852-3.1519-1.1289-4.7812 1.968e-4 -0.0012665-1.974e-4 -0.0026397 0-0.0039062 0.057679-0.36528 0.14612-0.72435 0.26562-1.0762 0.0032999-0.0097639 0.0064177-0.019545 0.0097657-0.029297 0.058285-0.16895 0.12289-0.33567 0.19531-0.5 0.0019874-0.0045211 0.003861-0.0091541 0.0058594-0.013672 0.07222-0.16286 0.1503-0.32311 0.23633-0.48047 0.013635-0.024985 0.028978-0.04937 0.042969-0.074219 0.080683-0.14306 0.16567-0.28428 0.25781-0.42188 0.020898-0.031269 0.044902-0.060801 0.066406-0.091797 0.088432-0.12719 0.17901-0.2533 0.27734-0.375 0.0061825-0.007676 0.011355-0.015782 0.017578-0.023438 0.015892-0.01955 0.034705-0.035367 0.050781-0.054688 0.12742-0.15264 0.26109-0.3008 0.4043-0.44336 0.053724-0.053662 0.10881-0.10479 0.16406-0.15625 0.056794-0.052781 0.1089-0.10902 0.16797-0.16016 0.058599-0.050733 0.12178-0.09254 0.18164-0.14062 0.073872-0.059548 0.14664-0.11984 0.22266-0.17578 0.037567-0.027624 0.073316-0.059137 0.11133-0.085938-0.003142 0.0057096-0.004684 0.011866-0.007813 0.017578 0.17118-0.12097 0.34494-0.23693 0.52539-0.33984a0.50005 0.50005 0 0 0-0.011719 0c0.1769-0.10177 0.3575-0.1923 0.54102-0.27539 0.033915-0.015408 0.069372-0.026207 0.10352-0.041016 0.14849-0.064111 0.29934-0.12146 0.45117-0.17383 0.31946-0.11113 0.64475-0.19753 0.97656-0.25781 0.014569-0.0026419 0.028387-0.0091728 0.042968-0.011719a0.50005 0.50005 0 0 0-0.007812 0.0058594c0.15328-0.026985 0.30803-0.050414 0.46289-0.066406a0.50005 0.50005 0 0 0-0.007813-0.0019531c0.013011-0.0013483 0.026051-6.597e-4 0.039063-0.0019532 0.26604-0.026182 0.53275-0.039849 0.80078-0.033203 0.001952 4.5e-5 0.003907-4.71e-5 0.005859 0 0.020202 4.881e-4 0.04034-0.0026848 0.060547-0.0019531 0.25917 0.0093848 0.51684 0.039828 0.77344 0.080078 0.032077 0.0049924 0.063673 0.012099 0.095704 0.017578 0.26177 0.045069 0.52177 0.10249 0.77734 0.17969 0.014871 0.0044819 0.030073 0.0071262 0.044922 0.011719 0.26518 0.082179 0.52449 0.18598 0.7793 0.30273 0.040721 0.018645 0.080644 0.039046 0.12109 0.058594 0.22972 0.11109 0.45399 0.23353 0.67188 0.37305 0.021129 0.01349 0.043431 0.023346 0.064453 0.037109 0.010247 0.0067091 0.0191 0.014727 0.029297 0.021484 0.078351 0.05209 0.15396 0.1102 0.23047 0.16602 0.095554 0.069486 0.19246 0.13712 0.2832 0.21094 0.05219 0.042599 0.1012 0.090317 0.15234 0.13477 0.10611 0.091994 0.21156 0.18544 0.31055 0.2832 0.009941 0.0098217 0.021358 0.017446 0.03125 0.027344 0.023101 0.023115 0.041812 0.048868 0.064453 0.072266 0.13703 0.14129 0.26624 0.28774 0.38867 0.43945 0.026486 0.033066 0.052374 0.066145 0.078125 0.099609 0.055139 0.071136 0.11405 0.13974 0.16602 0.21289 0.039992 0.056307 0.06934 0.11836 0.10742 0.17578 0.03246 0.048928 0.070423 0.094992 0.10156 0.14453a0.48172 0.3992 0 0 0-0.011718 0.0019531c0.16366 0.26166 0.30742 0.53211 0.43164 0.8125 0.002874-0.0065201 0.004921-0.013011 0.007813-0.019531 0.046156 0.103 0.08054 0.20964 0.12109 0.31445 0.025907 0.067243 0.054466 0.13315 0.078124 0.20117 0.083347 0.2387 0.15229 0.48133 0.20703 0.72656 0.003405 0.015274 0.010376 0.029623 0.013672 0.044922 6.97e-4 0.003232 0.001261 0.0065327 0.001953 0.0097656 0.057332 0.26783 0.094025 0.53846 0.11719 0.81055 0.005183 0.06053 0.006272 0.12093 0.009766 0.18164 0.011916 0.20895 0.014121 0.41773 0.005859 0.62695-0.003338 0.085465-0.00889 0.17037-0.015625 0.25586-0.01591 0.20144-0.041411 0.40186-0.076172 0.60156-0.012003 0.069042-0.020863 0.13819-0.035156 0.20703-0.056639 0.27266-0.12647 0.54318-0.21875 0.80859-4.74e-4 0.001363-0.001478 0.002544-0.001953 0.003907-0.002774 0.007962-0.006959 0.015483-0.009766 0.023437-0.07108 0.20146-0.15044 0.40032-0.24219 0.5957-0.002723-0.006004-0.00511-0.011576-0.007813-0.017578-0.037871 0.081372-0.063936 0.1657-0.10547 0.24609-0.11448 0.2216-0.24595 0.42889-0.38281 0.63086a0.48172 0.3992 0 0 0 0.003906 0.001954c-0.006405 0.009526-0.015039 0.017835-0.021484 0.027343-0.064655 0.094333-0.1361 0.18136-0.20508 0.27148-0.085151 0.11433-0.16297 0.23238-0.25781 0.3418-0.029233 0.033725-0.062023 0.062724-0.091797 0.095704a0.50005 0.50005 0 0 1-0.001953 0.003906 0.50005 0.50005 0 0 1-0.097656 0.11133 0.50005 0.50005 0 0 0-0.001953 0.001953c-0.01948 0.020543-0.042778 0.036383-0.0625 0.056641-0.19372 0.19951-0.39678 0.38506-0.60938 0.55469-0.25795 0.20497-0.52865 0.39016-0.8125 0.55274-0.007354 0.004212-0.014115 0.009489-0.021484 0.013672-0.11436 0.065002-0.23603 0.11038-0.35352 0.16797-0.18923 0.092868-0.37709 0.1876-0.57422 0.26172-0.13676 0.051181-0.27654 0.087198-0.41602 0.12891-0.19424 0.05862-0.38864 0.11393-0.58789 0.1543-0.12707 0.025353-0.25454 0.040879-0.38281 0.058594-0.2152 0.030415-0.43006 0.053811-0.64844 0.0625-0.12523 0.004659-0.24955 0.002578-0.375 0-0.2306-0.004196-0.46015-0.021523-0.69141-0.050781-0.10797-0.013799-0.21482-0.027608-0.32227-0.046875-0.24053-0.042871-0.47858-0.10458-0.7168-0.17578-0.1025-0.030744-0.20529-0.055825-0.30664-0.091796-0.070613-0.024949-0.14269-0.038857-0.21289-0.066407a0.50034 0.50034 0 0 1-0.15234-0.09375c-0.18464-0.078544-0.3738-0.14358-0.55273-0.24023a0.50061 0.50061 0 0 0 0.27734-0.28906c-0.93379-2.2342-1.3684-4.518-1.1562-6.709 0.005279-0.054185 0.011398-0.10809 0.017578-0.16211 0.1171-1.0455 0.36871-2.0702 0.80859-3.0547-0.41366 0.28835-0.80391 0.61792-1.1367 1.0273-0.16964 0.20869-0.30509 0.43361-0.43945 0.6582-0.45803 1.9127-0.33854 3.9271 0.19531 5.9395 0.17771 0.25556 0.37433 0.50188 0.59961 0.73047a0.50005 0.50005 0 0 1 0.17578 0.37109 0.50005 0.50005 0 0 1 0 0.003906 0.50005 0.50005 0 0 1 0 0.003906 0.50005 0.50005 0 0 1-0.20898 0.41797 0.50005 0.50005 0 0 1-0.007812 0.005859l-0.050781 0.050782c0.06964 0.1859 0.1268 0.3733 0.20312 0.55859-0.012272-0.008855-0.024881-0.016438-0.03711-0.02539l-0.001953-0.001953a0.50005 0.50005 0 0 0-0.16211-0.10547 0.50005 0.50005 0 0 0-0.00586-0.001953 0.50005 0.50005 0 0 0-0.41797-0.001954l-2.1934 2.1953a0.50005 0.50005 0 0 1-0.029297 0.029297l-3.5059 3.5059a1.0001 1.0001 0 0 1-0.21484 0.16992 1.0006 1.0006 0 0 0 1.5098 1.3047l3.5352-3.5371a1.0001 1.0001 0 0 0 0.029297-1.4043l1.1621-1.1484c3.1179 2.0645 7.3264 1.5231 9.8047-1.3359 2.5743-2.9699 2.415-7.4346-0.36328-10.215-1.3892-1.39-3.2019-2.1252-5.0371-2.1914zm-0.8418 2.0371c-0.36249 0.037935-0.71948 0.10928-1.0684 0.21484-1.1859 3.3821-1.2969 6.8972 0.099609 10.494 0.33661 0.096842 0.67528 0.16821 1.0156 0.20117-0.76296-1.9143-1.0918-3.8055-1.0625-5.666 7.31e-4 -0.056794 0.008297-0.11318 0.009766-0.16992 0.011576-0.41838 0.038555-0.83484 0.085937-1.25 2.3e-4 -0.0019141-2.3e-4 -0.0039453 0-0.0058594 0.14765-1.2893 0.45705-2.5635 0.91992-3.8184zm1.5605 0.072266a0.50005 0.50005 0 0 0-0.029297 0.0625c-1.3623 3.4316-1.5613 7.0273-0.015625 10.715 0.29325-0.047863 0.58305-0.1094 0.86328-0.20703-1.4084-3.5547-1.2123-7.0226 0.080078-10.338-0.29449-0.10819-0.59566-0.1782-0.89844-0.23242zm2.3223 1.0078a0.50005 0.50005 0 0 0-0.34766 0.30859c-1.0482 2.6404-1.201 5.4231 0.003906 8.2656a0.50005 0.50005 0 0 0 0.22461 0.25976c4.4e-4 -3.19e-4 0.001514 3.2e-4 0.001953 0 0.21684-0.15761 0.42577-0.32644 0.62109-0.51562-1.0444-2.688-0.89515-5.3192 0.072266-7.8242-0.17653-0.17634-0.37057-0.33855-0.57227-0.49414a0.50005 0.50005 0 0 0-0.003906 0zm1.5469 1.8496c-0.64286 1.6669-0.72846 3.4001-0.044922 5.166 0.023565-0.039431 0.052853-0.073873 0.074219-0.11523 0.23811-0.46093 0.40211-0.94067 0.5-1.4258-0.11341-0.68964-0.10226-1.3695 0.019531-2.0449-0.099336-0.55043-0.28844-1.0813-0.54883-1.5801z" fill="url(#b)" style="font-feature-settings:normal;font-variant-alternates:normal;font-variant-caps:normal;font-variant-east_asian:normal;font-variant-ligatures:normal;font-variant-numeric:normal;font-variant-position:normal;isolation:auto;mix-blend-mode:normal;paint-order:normal;shape-padding:0;text-decoration-color:#000000;text-decoration-line:none;text-decoration-style:solid;text-indent:0;text-orientation:mixed;text-transform:none;white-space:normal"/>
</svg>
