<?xml version="1.0" encoding="UTF-8" standalone="no"?>
<svg
   xmlns:dc="http://purl.org/dc/elements/1.1/"
   xmlns:cc="http://creativecommons.org/ns#"
   xmlns:rdf="http://www.w3.org/1999/02/22-rdf-syntax-ns#"
   xmlns:svg="http://www.w3.org/2000/svg"
   xmlns="http://www.w3.org/2000/svg"
   width="24"
   height="24"
   id="svg13094"
   version="1.1">
  <defs
     id="e">
    <style
       id="current-color-scheme"
       type="text/css">.ColorScheme-Text {color:#090d11;}.ColorScheme-Background{color:#ffffff;}</style>
  </defs>
  <metadata
     id="metadata13099">
    <rdf:RDF>
      <cc:Work
         rdf:about="">
        <dc:format>image/svg+xml</dc:format>
        <dc:type
           rdf:resource="http://purl.org/dc/dcmitype/StillImage" />
        <dc:title></dc:title>
      </cc:Work>
    </rdf:RDF>
  </metadata>
  <path
     id="rect872"
     d="m 3.9980469,3 c -1.0926,1e-4 -1.9998,0.9074 -2,2 v 10 c 2e-4,1.0926 0.9074,1.9999 2,2 H 4 6 7 v 0.5 c 0,0.8165 0.6835,1.4999 1.5,1.5 h 2.679688 c -0.06,0.1698 -0.187501,0.3281 -0.1875,0.5 0,0.3494 0.111712,0.714125 0.382812,1.015625 0.271,0.3016 0.718572,0.490275 1.138672,0.484375 H 20.5 c 0.8165,-10e-5 1.4999,-0.6835 1.5,-1.5 v -9 C 21.9999,9.6835 21.3165,9.0001 20.5,9 h -2 C 18.3069,9 18.1709,9.1397844 18,9.2089844 V 5 C 17.9998,3.9074 17.0926,3.0001 16,3 Z m 0,2 h 1 a 1.0001,1.0001 0 0 0 -1,1 z M 5,5 H 15.001953 16 16.002 V 6 A 1.0001,1.0001 0 0 0 16,5.9667969 V 14.070312 A 1.0001,1.0001 0 0 0 16.001953,14 v 1 H 16 v 1 H 8 5 Z m -1.0019531,9 a 1.0001,1.0001 0 0 0 1,1 h -1 z"
     class="ColorScheme-Background" style="fill-opacity:.5;fill:currentColor" />
  <path
     class="ColorScheme-Text" style="fill-opacity:.75;fill:currentColor"
     d="m 3.998,4 a 1.0001,1.0001 0 0 0 -1,1 v 10 a 1.0001,1.0001 0 0 0 1,1 H 6 V 14 H 4.998 V 6 h 10.004 v 8 H 8 v 2 0 1.5 A 0.50005,0.50005 0 0 0 8.5,18 h 10 A 0.50005,0.50005 0 0 0 19,17.5 V 11 h 1 v 8 h -7.5 a 0.50005,0.50005 0 1 0 0,1 h 8 A 0.50005,0.50005 0 0 0 21,19.5 v -9 A 0.50005,0.50005 0 0 0 20.5,10 h -2 A 0.50005,0.50005 0 0 0 18,10.5 V 17 H 9 v -1 h 7 a 1.0001,1.0001 0 0 0 1,-1 V 5 A 1.0001,1.0001 0 0 0 16,4 Z"
     id="path887" />
</svg>
