<?xml version="1.0" encoding="UTF-8"?>
<!-- Created with Inkscape (http://www.inkscape.org/) -->
<svg width="24" height="24" version="1.1" xmlns="http://www.w3.org/2000/svg" xmlns:cc="http://creativecommons.org/ns#" xmlns:dc="http://purl.org/dc/elements/1.1/" xmlns:rdf="http://www.w3.org/1999/02/22-rdf-syntax-ns#">
	<defs>
		<radialGradient id="b" cx="346.69" cy="-98.392" r="7.254" gradientTransform="matrix(-2.6647,0,0,-2.5787,935.41,-246.14)" gradientUnits="userSpaceOnUse">
			<stop stop-color="#213851" stop-opacity=".9059" offset="0"/>
			<stop stop-color="#27303a" stop-opacity="0" offset="1"/>
		</radialGradient>
		<radialGradient id="a" cx="11.813" cy="4.8277" r="8" gradientTransform="matrix(-1.8841,0,0,-1.8841,40.066,16.634)" gradientUnits="userSpaceOnUse">
			<stop stop-color="#ffffff" stop-opacity=".74858" offset="0"/>
			<stop stop-color="#ffffff" stop-opacity=".60511" offset="1"/>
		</radialGradient>
	</defs>
	<metadata>
		<rdf:RDF>
			<cc:Work rdf:about="">
				<dc:format>image/svg+xml</dc:format>
				<dc:type rdf:resource="http://purl.org/dc/dcmitype/StillImage"/>
				<dc:title/>
			</cc:Work>
		</rdf:RDF>
	</metadata>
	<path d="m7.6812 1.4694a0.49988 0.50022 0 0 0-0.49181 0.47284l-0.38987 7.3132-6.1897 3.9619a0.49988 0.50022 0 0 0 0.089546 0.88778l6.8303 2.6303 1.8529 7.1161a0.49988 0.50022 0 0 0 0.87204 0.18886l4.6095-5.6879 7.3345 0.43562a0.49988 0.50022 0 0 0 0.44911-0.77061l-3.98-6.1456 2.6809-6.8459a0.49988 0.50022 0 0 0-0.59514-0.66584l-7.07 1.89-5.6786-4.6678a0.49988 0.50022 0 0 0-0.32374-0.11304zm0.45324 1.5136 5.1124 4.2032a0.49988 0.50022 0 0 0 0.44635 0.096498l6.3633-1.7011-2.4136 6.1649a0.49988 0.50022 0 0 0 0.04684 0.45492l3.5832 5.5307-6.6057-0.39289a0.49988 0.50022 0 0 0-0.41742 0.18335l-4.1494 5.1199-1.6683-6.4075a0.49988 0.50022 0 0 0-0.30446-0.3405l-6.147-2.367 5.5739-3.5677a0.49988 0.50022 0 0 0 0.23006-0.39426z" color="#000000" color-rendering="auto" dominant-baseline="auto" fill="url(#a)" fill-opacity=".99858" image-rendering="auto" shape-rendering="auto" solid-color="#000000" style="font-feature-settings:normal;font-variant-alternates:normal;font-variant-caps:normal;font-variant-ligatures:normal;font-variant-numeric:normal;font-variant-position:normal;isolation:auto;mix-blend-mode:normal;paint-order:normal;shape-padding:0;text-decoration-color:#000000;text-decoration-line:none;text-decoration-style:solid;text-indent:0;text-orientation:mixed;text-transform:none;white-space:normal"/>
	<path d="m8.8549 3.7233a0.99977 1.0004 0 0 0-1.0015 0.9705l-0.15154 5.1379-4.3712 2.6992a0.99977 1.0004 0 0 0 0.18874 1.7935l4.8355 1.7315 1.2164 4.9931a0.99977 1.0004 0 0 0 1.762 0.37496l3.1396-4.0667 5.1206 0.38599a0.99977 1.0004 0 0 0 0.90097-1.5619l-2.8944-4.2446 1.9493-4.7546a0.99977 1.0004 0 0 0-1.2054-1.3399l-4.9292 1.4433-3.9166-3.3251a0.99977 1.0004 0 0 0-0.64335-0.23711zm0.93541 3.1086 2.7415 2.3284a0.99977 1.0004 0 0 0 0.92852 0.19713l3.451-1.0105-1.3652 3.3292a0.99977 1.0004 0 0 0 0.09919 0.94293l2.0279 2.9722-3.5873-0.2702a0.99977 1.0004 0 0 0-0.86515 0.38599l-2.1987 2.8481-0.85137-3.496a0.99977 1.0004 0 0 0-0.63509-0.70582l-3.3848-1.2131 3.0597-1.89a0.99977 1.0004 0 0 0 0.4739-0.82161z" color="#000000" color-rendering="auto" dominant-baseline="auto" fill="#090d11" fill-opacity=".76621" image-rendering="auto" shape-rendering="auto" solid-color="#000000" style="font-feature-settings:normal;font-variant-alternates:normal;font-variant-caps:normal;font-variant-ligatures:normal;font-variant-numeric:normal;font-variant-position:normal;isolation:auto;mix-blend-mode:normal;paint-order:normal;shape-padding:0;text-decoration-color:#000000;text-decoration-line:none;text-decoration-style:solid;text-indent:0;text-orientation:mixed;text-transform:none;white-space:normal"/>
	<path d="m8.8549 3.7233a0.99977 1.0004 0 0 0-1.0015 0.9705l-0.15154 5.1379-4.3712 2.6992a0.99977 1.0004 0 0 0 0.18874 1.7935l4.8355 1.7315 1.2164 4.9931a0.99977 1.0004 0 0 0 1.762 0.37496l3.1396-4.0667 5.1206 0.38599a0.99977 1.0004 0 0 0 0.90097-1.5619l-2.8944-4.2446 1.9493-4.7546a0.99977 1.0004 0 0 0-1.2054-1.3399l-4.9292 1.4433-3.9166-3.3251a0.99977 1.0004 0 0 0-0.64335-0.23711zm0.93541 3.1086 2.7415 2.3284a0.99977 1.0004 0 0 0 0.92852 0.19713l3.451-1.0105-1.3652 3.3292a0.99977 1.0004 0 0 0 0.09919 0.94293l2.0279 2.9722-3.5873-0.2702a0.99977 1.0004 0 0 0-0.86515 0.38599l-2.1987 2.8481-0.85137-3.496a0.99977 1.0004 0 0 0-0.63509-0.70582l-3.3848-1.2131 3.0597-1.89a0.99977 1.0004 0 0 0 0.4739-0.82161z" color="#000000" color-rendering="auto" dominant-baseline="auto" fill="url(#b)" fill-opacity=".7533" image-rendering="auto" shape-rendering="auto" solid-color="#000000" style="font-feature-settings:normal;font-variant-alternates:normal;font-variant-caps:normal;font-variant-ligatures:normal;font-variant-numeric:normal;font-variant-position:normal;isolation:auto;mix-blend-mode:normal;paint-order:normal;shape-padding:0;text-decoration-color:#000000;text-decoration-line:none;text-decoration-style:solid;text-indent:0;text-orientation:mixed;text-transform:none;white-space:normal"/>
</svg>
