<?xml version="1.0" encoding="UTF-8"?>
<!-- Created with Inkscape (http://www.inkscape.org/) -->
<svg width="24" height="24" version="1.1" xmlns="http://www.w3.org/2000/svg" xmlns:cc="http://creativecommons.org/ns#" xmlns:dc="http://purl.org/dc/elements/1.1/" xmlns:rdf="http://www.w3.org/1999/02/22-rdf-syntax-ns#">
	<metadata>
		<rdf:RDF>
			<cc:Work rdf:about="">
				<dc:format>image/svg+xml</dc:format>
				<dc:type rdf:resource="http://purl.org/dc/dcmitype/StillImage"/>
			</cc:Work>
		</rdf:RDF>
	</metadata>
	<defs>
		<style id="current-color-scheme" type="text/css">.ColorScheme-Text {color:#090d11;}.ColorScheme-Background{color:#ffffff;}</style>
	</defs>
	<g transform="translate(3364.4 -2092.7)" fill="currentColor">
		<path class="ColorScheme-Background" d="m-3361.4 2095.7v18h18v-18h-18zm1 1h7v7h-7v-7zm9 0h7v7h-7v-7zm-7 2v3h3v-3h-3zm10 0v2h2v-1h-1v-1h-1zm0 2h-1v1h1v-1zm-9-1h1v1h-1v-1zm-3 6h7v7h-7v-7zm9 0h7v7h-7v-7zm-7 2v1h1v-1h-1zm1 1v1h1v-1h-1zm1 0h1v-1h-1v1zm0 1v1h1v-1h-1zm-1 0h-1v1h1v-1zm8-1v2h1v-1h1v1h1v-2h-3z" fill-opacity=".5" style="fill-opacity:.5;fill:currentColor"/>
		<path class="ColorScheme-Text" d="m-3360.4 2096.7v7h7v-7h-7zm9 0v7h7v-7h-7zm-7 2h3v3h-3v-3zm10 0h1v1h1v1h-2v1h-1v-1h1v-2zm-9 1v1h1v-1h-1zm-3 6v7h7v-7h-7zm9 0v7h7v-7h-7zm-7 2h1v1h1v-1h1v1h-1v1h1v1h-1v-1h-1v1h-1v-1h1v-1h-1v-1zm9 1h3v2h-1v-1h-1v1h-1v-2z" fill-opacity=".75" style="fill-opacity:.75;fill:currentColor"/>
	</g>
</svg>
