<?xml version="1.0" encoding="UTF-8"?>
<!-- Created with Inkscape (http://www.inkscape.org/) -->
<svg width="24" height="24" version="1.1" xmlns="http://www.w3.org/2000/svg" xmlns:cc="http://creativecommons.org/ns#" xmlns:dc="http://purl.org/dc/elements/1.1/" xmlns:rdf="http://www.w3.org/1999/02/22-rdf-syntax-ns#">
	<defs>
		<radialGradient id="a" cx="7.5229" cy="8.2544" r="5.8618" gradientTransform="matrix(1.7118 0 0 2.3362 -3365.8 2085.4)" gradientUnits="userSpaceOnUse">
			<stop stop-color="#ffffff" stop-opacity=".74858" offset="0"/>
			<stop stop-color="#ffffff" stop-opacity=".60511" offset="1"/>
		</radialGradient>
		<radialGradient id="b" cx="-3352.4" cy="2104.7" r="9" gradientTransform="matrix(1.7778 0 0 1.7778 2607.4 -1637)" gradientUnits="userSpaceOnUse">
			<stop stop-color="#213851" stop-opacity=".9059" offset="0"/>
			<stop stop-color="#27303a" stop-opacity="0" offset="1"/>
		</radialGradient>
	</defs>
	<metadata>
		<rdf:RDF>
			<cc:Work rdf:about="">
				<dc:format>image/svg+xml</dc:format>
				<dc:type rdf:resource="http://purl.org/dc/dcmitype/StillImage"/>
				<dc:title/>
			</cc:Work>
		</rdf:RDF>
	</metadata>
	<g transform="translate(3364.4 -2092.7)">
		<path d="m-3352.4 2095.7c-4.9572 0-9 4.0428-9 9s4.0428 9 9 9 9-4.0428 9-9-4.0428-9-9-9zm-3 5h6l1 1v6l-1 1h-6l-1-1v-3l1-1h5v-1h-5zm1 5v1h4v-1z" color="#000000" fill="#000000" fill-opacity=".76471" style="paint-order:normal;text-decoration-line:none;text-indent:0;text-transform:none"/>
		<path d="m-3352.4 2095.7c-4.9572 0-9 4.0428-9 9s4.0428 9 9 9 9-4.0428 9-9-4.0428-9-9-9zm-3 5h6l1 1v6l-1 1h-6l-1-1v-3l1-1h5v-1h-5v-2zm1 5v1h4v-1h-4z" color="#000000" fill="url(#b)" fill-opacity=".76471" style="block-progression:tb;font-variant-east_asian:normal;paint-order:normal;text-indent:0;text-transform:none"/>
		<path d="m-3352.4 2094.7c-5.5064 0-10 4.4936-10 10s4.4936 10 10 10 10-4.4936 10-10-4.4936-10-10-10zm0 1c4.9572 0 9 4.0428 9 9s-4.0428 9-9 9-9-4.0428-9-9 4.0428-9 9-9zm-3 5v2h5v1h-5l-1 1v3l1 1h6l1-1v-6l-1-1zm1 5h4v1h-4z" color="#000000" fill="url(#a)" style="paint-order:normal;text-decoration-line:none;text-indent:0;text-transform:none"/>
	</g>
</svg>
