<?xml version="1.0" encoding="UTF-8"?>
<svg id="c" width="24" height="24" version="1.1" xmlns="http://www.w3.org/2000/svg" xmlns:cc="http://creativecommons.org/ns#" xmlns:dc="http://purl.org/dc/elements/1.1/" xmlns:rdf="http://www.w3.org/1999/02/22-rdf-syntax-ns#">
	<metadata id="a">
		<rdf:RDF>
			<cc:Work rdf:about="">
				<dc:format>image/svg+xml</dc:format>
				<dc:type rdf:resource="http://purl.org/dc/dcmitype/StillImage"/>
				<dc:title/>
			</cc:Work>
		</rdf:RDF>
	</metadata>
	<defs id="b">
		<style id="current-color-scheme" type="text/css">.ColorScheme-Text {color:#090d11;}.ColorScheme-Background{color:#ffffff;}</style>
	</defs>
	<path id="d" class="ColorScheme-Text" d="m12 3v6h-1v-2h-1v3h-1v-1h-1v-4h-1v6h-1v-4h-1v3h-1v1h-2v2h2v1h1v-1h1v3h1v3h1v-4h1v-1h1v3h1v-2h1v6h1v-4h1v2h1v-4h1v3h1v-4h1v1h1v-1h1v-1h2v-2h-2v-1h-1v-1h-1v1h-1v-4h-1v3h-1v-4h-1v2h-1v-4z" style="fill-opacity:.75;fill:currentColor"/>
	<path id="e" class="ColorScheme-Background" d="m11 2v4h-2v-2h-3v2h-2v3h-1v1h-2v1h3v-1h1v-3h1v4h1v-6h1v4h1v1h1v-3h1v2h1v-6h1v4h1v-2h1v4h1v-3h1v4h1v-1h1v1h1v1h3v-1h-2v-1h-1v-1h-2v-3h-2v-1h-2v-2h-2zm-10 11v1h2v1h2v2h1v3h3v-2h2v4h3v-2h2v-1h2v-3h2v-1h1v-1h2v-1h-3v1h-1v1h-1v-1h-1v4h-1v-3h-1v4h-1v-2h-1v4h-1v-6h-1v2h-1v-3h-1v1h-1v4h-1v-3h-1v-3h-1v1h-1v-1h-2z" style="fill-opacity:.5;fill:currentColor"/>
</svg>
