<?xml version="1.0" encoding="UTF-8"?>
<svg id="g" width="24" height="24" version="1.1" xmlns="http://www.w3.org/2000/svg" xmlns:cc="http://creativecommons.org/ns#" xmlns:dc="http://purl.org/dc/elements/1.1/" xmlns:rdf="http://www.w3.org/1999/02/22-rdf-syntax-ns#">
	<defs>
		<style id="current-color-scheme" type="text/css">.ColorScheme-Text{color:#090d11;}.ColorScheme-Background{color:#ffffff;}</style>
	</defs>
	<metadata id="a">
		<rdf:RDF>
			<cc:Work rdf:about="">
				<dc:format>image/svg+xml</dc:format>
				<dc:type rdf:resource="http://purl.org/dc/dcmitype/StillImage"/>
				<dc:title/>
			</cc:Work>
		</rdf:RDF>
	</metadata>
	<path id="f" d="m7 3c-1.108 0-2 0.892-2 2v14c0 1.108 0.892 2 2 2h10c1.108 0 2-0.89201 2-2v-14c0-1.108-0.892-2-2-2zm0 2.1055h10v1.8945h-10zm0 3.8945h2v2h-2zm4 0h2v2h-2zm4 0h2v2h-2zm-8 4h2v2h-2zm4 0h2v2h-2zm-4 4h2v2h-2zm4 0h2v2h-2zm4-4h2v6h-2z" style="fill:currentColor;fill-opacity:0.75;" class="ColorScheme-Text"/>
	<path id="h" d="m7 2c-1.6447 0-3 1.3553-3 3v14c0 1.6447 1.3553 3 3 3h10c1.6447 0 3-1.3553 3-3v-14c0-1.6447-1.3553-3-3-3zm0 1h10c1.108 0 2 0.892 2 2v14c0 1.108-0.892 2-2 2h-10c-1.108 0-2-0.89201-2-2v-14c0-1.108 0.892-2 2-2zm0 2.1055v1.8945h10v-1.8945zm0 3.8945v2h2v-2zm4 0v2h2v-2zm4 0v2h2v-2zm-8 4v2h2v-2zm4 0v2h2v-2zm-4 4v2h2v-2zm4 0v2h2v-2zm4-4v6h2v-6z" style="fill:currentColor;fill-opacity:0.5;" class="ColorScheme-Background"/>
</svg>
