<?xml version="1.0" encoding="UTF-8"?>
<svg id="g" width="24" height="24" version="1.0" xmlns="http://www.w3.org/2000/svg" xmlns:cc="http://creativecommons.org/ns#" xmlns:dc="http://purl.org/dc/elements/1.1/" xmlns:rdf="http://www.w3.org/1999/02/22-rdf-syntax-ns#">
	<metadata id="h">
		<rdf:RDF>
			<cc:Work rdf:about="">
				<dc:format>image/svg+xml</dc:format>
				<dc:type rdf:resource="http://purl.org/dc/dcmitype/StillImage"/>
				<dc:title/>
			</cc:Work>
		</rdf:RDF>
	</metadata>
	<defs>
		<style id="current-color-scheme" type="text/css">.ColorScheme-Text {color:#090d11;}.ColorScheme-Background{color:#ffffff;}</style>
	</defs>
	<path id="b" d="m7.4766 1c-0.81436 0.01275-1.4861 0.70315-1.4766 1.5176v0.48242h-3c-0.554 0-1 0.446-1 1v16c0 0.554 0.446 1 1 1h18c0.554 0 1-0.446 1-1v-16c0-0.554-0.446-1-1-1h-3v-0.48242c0.009763-0.83156-0.69196-1.5305-1.5234-1.5176-0.81436 0.012749-1.4861 0.70315-1.4766 1.5176v0.48242h-6v-0.48242c0.0097626-0.83156-0.69196-1.5305-1.5234-1.5176zm0.015625 1a0.50005 0.50005 0 0 1 0.19922 0.037109 0.50005 0.50005 0 0 1 0.16211 0.10938 0.50005 0.50005 0 0 1 0.10742 0.16016 0.50005 0.50005 0 0 1 0.039062 0.19922v1.4941h8v-1.4941a0.50005 0.50005 0 0 1 0.037109 -0.19336c5.77e-4 -0.0014281 0.001364-0.0024846 0.001953-0.0039062a0.50005 0.50005 0 0 1 0.097657 -0.15039 0.50005 0.50005 0 0 1 0.001953 -0.0019531c0.00324-0.0034247 0.00643-0.0064333 0.009766-0.0097656a0.50005 0.50005 0 0 1 0.15039 -0.10352 0.50005 0.50005 0 0 1 0.19336 -0.042969 0.50005 0.50005 0 0 1 0.19922 0.037109 0.50005 0.50005 0 0 1 0.16211 0.10938 0.50005 0.50005 0 0 1 0.10742 0.16016 0.50005 0.50005 0 0 1 0.039062 0.19922v1.4941h4v16h-18v-16h4v-1.4941a0.50005 0.50005 0 0 1 0.037109 -0.19336c5.764e-4 -0.0014281 0.0013639-0.0024846 0.0019531-0.0039062a0.50005 0.50005 0 0 1 0.097656 -0.15039 0.50005 0.50005 0 0 1 0.0019531 -0.0019531c0.0032402-0.0034247 0.0064304-0.0064333 0.0097656-0.0097656a0.50005 0.50005 0 0 1 0.15039 -0.10352 0.50005 0.50005 0 0 1 0.19336 -0.042969zm0 3.0137c-0.068842 0.0010775-0.13406 0.016857-0.19336 0.042969s-0.11174 0.061671-0.15625 0.10742-0.080991 0.10016-0.10547 0.16016c-0.024478 0.059996-0.037917 0.12646-0.037109 0.19531v1.9746c-0.0010272 0.072651 0.014983 0.13437 0.035156 0.19141a0.50005 0.50005 0 0 0 0.041016 0.080078c7.537e-4 0.0012603 0.0011888 0.0026563 0.0019531 0.0039062 0.010381 0.016976 0.022941 0.031814 0.035156 0.046875a0.50005 0.50005 0 0 0 0.087891 0.085938c0.028104 0.019735 0.056338 0.037368 0.087891 0.050781a0.50005 0.50005 0 0 0 0.0097656 0.0058594 0.50005 0.50005 0 0 0 0.035156 0.013672c0.052948 0.016708 0.10827 0.029106 0.16406 0.029297a0.50005 0.50005 0 0 0 0.0019531 0c6.436e-4 0 0.0013095 2.2e-6 0.0019531 0 0.055145-1.883e-4 0.10971-0.01297 0.16211-0.029297a0.50005 0.50005 0 0 0 0.048828 -0.019531c0.027447-0.011777 0.051294-0.028346 0.076172-0.044922a0.50005 0.50005 0 0 0 0.095703 -0.087891c5.741e-4 -6.941e-4 0.0013828-0.0012549 0.0019532-0.0019531a0.50005 0.50005 0 0 0 0.03125 -0.044922 0.50005 0.50005 0 0 0 0.044922 -0.083984 0.50005 0.50005 0 0 0 0.0019532 -0.0058593c0.019788-0.056628 0.036178-0.11752 0.035156-0.18945v-1.9746c8.001e-4 -0.068252-0.013105-0.13388-0.037109-0.19336a0.50005 0.50005 0 0 0 -0.0019531 -0.0058594c-5.72e-4 -0.0013695-0.0013694-0.002543-0.0019531-0.0039063-0.025403-0.059323-0.060414-0.11137-0.10547-0.15625-0.044048-0.04388-0.09646-0.08037-0.1543-0.10547a0.50005 0.50005 0 0 0 -0.011719 -0.0039063 0.50005 0.50005 0 0 0 -0.0039062 -0.0019531c-0.059096-0.023326-0.12383-0.03621-0.19141-0.035156zm9 0c-0.068843 0.0010775-0.13406 0.016857-0.19336 0.042969s-0.11174 0.061671-0.15625 0.10742-0.080991 0.10016-0.10547 0.16016c-0.024478 0.059996-0.037917 0.12646-0.037109 0.19531v1.9746c-0.001031 0.072651 0.014986 0.13437 0.035156 0.19141a0.50005 0.50005 0 0 0 0.041016 0.080078c7.54e-4 0.0012603 0.001189 0.0026563 0.001953 0.0039062 0.010381 0.016976 0.022941 0.031814 0.035156 0.046875a0.50005 0.50005 0 0 0 0.087891 0.085938c0.028104 0.019735 0.056338 0.037368 0.08789 0.050781a0.50005 0.50005 0 0 0 0.009766 0.0058594 0.50005 0.50005 0 0 0 0.035156 0.013672c0.052948 0.016708 0.10827 0.029106 0.16406 0.029297a0.50005 0.50005 0 0 0 0.001953 0c6.44e-4 0 0.00131 2.2e-6 0.001953 0 0.055146-1.883e-4 0.10971-0.01297 0.16211-0.029297a0.50005 0.50005 0 0 0 0.048829 -0.019531c0.027448-0.011777 0.051293-0.028346 0.076171-0.044922a0.50005 0.50005 0 0 0 0.095704 -0.087891c5.74e-4 -6.941e-4 0.001382-0.0012549 0.001953-0.0019531a0.50005 0.50005 0 0 0 0.03125 -0.044922 0.50005 0.50005 0 0 0 0.044922 -0.083984 0.50005 0.50005 0 0 0 0.001953 -0.0058593c0.019789-0.056628 0.036177-0.11752 0.035156-0.18945v-1.9746c8e-4 -0.068252-0.013105-0.13388-0.037109-0.19336a0.50005 0.50005 0 0 0 -0.001953 -0.0058594c-5.72e-4 -0.0013695-0.00137-0.002543-0.001954-0.0039063-0.025403-0.059323-0.060414-0.11137-0.10547-0.15625-0.044049-0.04388-0.096461-0.08037-0.1543-0.10547a0.50005 0.50005 0 0 0 -0.011719 -0.0039063 0.50005 0.50005 0 0 0 -0.003906 -0.0019531c-0.059097-0.023326-0.12382-0.03621-0.19141-0.035156zm-6.1367 5.9414c-0.44917 0.038109-0.85953 0.1882-1.1914 0.33398-0.44252 0.19438-0.75977 0.40625-0.75977 0.40625a0.50053 0.50053 0 0 0 0.46484 0.88086l-0.054688-0.074219 0.14258-0.12109c0.10039-0.08381 0.21097-0.15944 0.33008-0.22461 0.11966-0.065354 0.24935-0.12096 0.38672-0.16797 0.27568-0.096441 0.55857-0.14453 0.84375-0.14453 0.23106 0 0.44339 0.027631 0.63281 0.085938 0.094711 0.029153 0.18276 0.066542 0.26562 0.11133 0.083461 0.044964 0.15996 0.0967 0.23047 0.1582 0.10364 0.089744 0.18079 0.20005 0.24609 0.31836 0.010392 0.01913 0.021858 0.036861 0.03125 0.056641 0.060451 0.12503 0.10275 0.26087 0.12305 0.4082 0.16362-0.19301 0.30355-0.39066 0.37305-0.63086 0.05028-0.17379 0.059501-0.38444-0.011719-0.58008s-0.21502-0.3534-0.37305-0.46094c-0.31605-0.21507-0.69808-0.29743-1.2188-0.35156-0.15673-0.016297-0.31121-0.016609-0.46094-0.003906zm3.7812 0.076172a0.50034 0.50034 0 0 0 0.013672 1l0.10742-0.080078 0.052735-0.039063h0.28906l0.017579-0.017578-0.001954 0.017578h0.23438v5.0684h-0.068359v0.48828a0.50005 0.50005 0 1 0 1 0v-6.4375h-1.5938a0.50034 0.50034 0 0 0 -0.050781 0zm-3.1445 1.6074c-0.21721 0.20766-0.47827 0.43478-0.81641 0.69336l-1.2617 0.96484 0.63672-0.027344v-0.26562h0.71094c0.35604 0 0.61322-0.083708 0.79492-0.23047h0.001953c0.09154-0.074831 0.15912-0.15695 0.20312-0.25391 0.04401-0.096956 0.064453-0.20875 0.064453-0.3418 0-0.2117-0.065284-0.35019-0.20898-0.4707h-0.001954c-0.034969-0.030074-0.082336-0.045156-0.12305-0.068359zm1 0.99805c-2.02e-4 5.98e-4 2.02e-4 0.001355 0 0.001953-0.012008 0.03553-0.02982 0.067466-0.044922 0.10156-0.051676 0.12137-0.11588 0.23701-0.20703 0.33594l-0.001953 0.001953c-0.057051 0.062141-0.13139 0.10238-0.21094 0.13672-0.012836 0.005525-0.026017 0.010349-0.039063 0.015625-0.061353 0.0249-0.12425 0.048435-0.18359 0.076172 0.081773 0.022774 0.1514 0.051844 0.21875 0.082031 0.003339 0.001034 0.006434 0.002862 0.009765 0.003906 0.028293 0.008867 0.054742 0.019371 0.082031 0.029297 0.091928 0.033226 0.17804 0.072042 0.24219 0.13477 0.05916 0.057845 0.11024 0.12114 0.1543 0.18945 0.13215 0.20493 0.19726 0.4538 0.19726 0.72656 0 0.48216-0.17715 0.8941-0.52148 1.1719-0.086005 0.069265-0.18108 0.12916-0.2832 0.17969-0.10167 0.050168-0.21113 0.092436-0.32812 0.125-0.11761 0.032732-0.24449 0.056374-0.37695 0.072265-0.13191 0.015743-0.27196 0.023438-0.41797 0.023438-0.23215 0-0.44953-0.023852-0.6582-0.064453-0.20164-0.039233-0.38854-0.10497-0.56641-0.18359-0.0042537-0.001883-0.0094306-0.002002-0.013672-0.003906-0.040389-0.009226-0.18555-0.03711-0.18555-0.03711a0.50005 0.50005 0 1 0 -0.23828 0.9707s0.32866 0.080338 0.74805 0.14844c0.41938 0.06809 0.92349 0.13542 1.3828 0.078125 1.4497-0.18086 2.3759-1.3417 2.4219-2.5059 0.02297-0.58207-0.18903-1.1835-0.66211-1.6074-0.12795-0.11467-0.3168-0.1652-0.51758-0.20312z" style="fill-opacity:.5;fill:currentColor" class="ColorScheme-Background"/>
	<path id="e" d="m7.4922 2a0.50005 0.50005 0 0 0-0.49219 0.50586v1.4941h-2.5c-0.82235 0-1.5 0.67765-1.5 1.5v13c0 0.82235 0.67765 1.5 1.5 1.5h15c0.82235 0 1.5-0.67765 1.5-1.5v-13c0-0.82235-0.67765-1.5-1.5-1.5h-2.5v-1.4941a0.50005 0.50005 0 0 0-0.50781-0.50586 0.50005 0.50005 0 0 0-0.49219 0.50586v1.4941h-8v-1.4941a0.50005 0.50005 0 0 0-0.50781-0.50586zm0 3.0137a0.50005 0.50005 0 0 1 0.50781 0.50586v1.9746a0.50005 0.50005 0 1 1-1 0v-1.9746a0.50005 0.50005 0 0 1 0.49219-0.50586zm9 0a0.50005 0.50005 0 0 1 0.50781 0.50586v1.9746a0.50005 0.50005 0 1 1-1 0v-1.9746a0.50005 0.50005 0 0 1 0.49219-0.50586zm-12.492 4.9863h16v8.5c0 0.28565-0.21435 0.5-0.5 0.5h-15c-0.28565 0-0.5-0.21435-0.5-0.5zm6.5176 1.8438c-0.28518 0-0.56807 0.04809-0.84375 0.14453-0.27473 0.09402-0.51521 0.22428-0.7168 0.39258l-0.14258 0.12109 0.37891 0.51953 0.1582-0.10547c0.22827-0.15074 0.43068-0.25231 0.59961-0.30859h0.00195c0.16893-0.05815 0.35729-0.08984 0.57031-0.08984 0.26319 0 0.44928 0.06688 0.5918 0.18945h2e-3c0.1437 0.12051 0.20898 0.259 0.20898 0.4707 0 0.26609-0.0845 0.44604-0.26758 0.5957h-2e-3c-0.1817 0.14676-0.43888 0.23047-0.79492 0.23047h-0.71093v0.70508h0.70508c0.44502 0 0.76003 0.08297 0.95117 0.21484v2e-3c0.19493 0.1333 0.27734 0.28996 0.27734 0.54688 0 0.30229-0.08896 0.4981-0.2793 0.65234-0.18546 0.14862-0.49301 0.24023-0.9375 0.24023-0.17783 0-0.37083-0.02591-0.58203-0.07617-0.20757-0.049975-0.39391-0.11798-0.55664-0.20318l-0.29102-0.15234v0.76953l0.10938 0.05664c0.38578 0.19279 0.83381 0.28516 1.334 0.28516 0.58675 0 1.0622-0.12334 1.4062-0.40039 0.34433-0.27778 0.52148-0.68974 0.52148-1.1719 0-0.36368-0.11492-0.68464-0.35156-0.91602-0.13839-0.13531-0.37075-0.17144-0.57031-0.24219 0.15379-0.07552 0.33744-0.11246 0.45117-0.23633l2e-3 -2e-3c0.21475-0.23308 0.32617-0.53405 0.32617-0.86523 0-0.41209-0.14022-0.76951-0.41992-1.0117-0.28029-0.24449-0.66677-0.35547-1.1289-0.35547zm4.0996 0.05078-0.01758 0.01758h-0.28906l-0.05274 0.03906-1.4355 1.0723 0.43359 0.54297 0.15625-0.12109c0.31233-0.24398 0.55172-0.43066 0.7168-0.56055 0.01854-0.01459 0.01491-0.01255 0.03125-0.02539-0.0075 0.17344-0.02148 0.35211-0.02148 0.51953v3.6016h0.71094v-5.0684h-0.23438z" style="fill-opacity:.75;fill:currentColor" class="ColorScheme-Text"/>
</svg>
