<?xml version="1.0" encoding="UTF-8"?>
<svg width="24" height="24" version="1.1" xmlns="http://www.w3.org/2000/svg" xmlns:cc="http://creativecommons.org/ns#" xmlns:dc="http://purl.org/dc/elements/1.1/" xmlns:rdf="http://www.w3.org/1999/02/22-rdf-syntax-ns#">
	<defs>
		<style id="current-color-scheme" type="text/css">.ColorScheme-Text {color:#090d11;}.ColorScheme-Background{color:#ffffff;}</style>
	</defs>
	<metadata>
		<rdf:RDF>
			<cc:Work rdf:about="">
				<dc:format>image/svg+xml</dc:format>
				<dc:type rdf:resource="http://purl.org/dc/dcmitype/StillImage"/>
			</cc:Work>
		</rdf:RDF>
	</metadata>
	<path class="ColorScheme-Text" d="m4 4c-0.554 0-1 0.446-1 1v5c0 0.554 0.446 1 1 1h16c0.554 0 1-0.446 1-1v-5c0-0.554-0.446-1-1-1zm12 1h2v1h-2zm-10 0.5c1.1046 0 2 0.89543 2 2s-0.89543 2-2 2-2-0.89543-2-2 0.89543-2 2-2zm4 1c0.55228 0 1 0.44772 1 1s-0.44772 1-1 1-1-0.44772-1-1 0.44772-1 1-1zm3 0c0.55228 0 1 0.44772 1 1s-0.44772 1-1 1-1-0.44772-1-1 0.44772-1 1-1zm3 0.5h3v1h-3zm0 2h4v1h-4zm-12 3c-0.554 0-1 0.446-1 1v5c0 0.554 0.446 1 1 1h16c0.554 0 1-0.446 1-1v-5c0-0.554-0.446-1-1-1zm12 1h2v1h-2zm-10 0.5c1.1046 0 2 0.89543 2 2s-0.89543 2-2 2-2-0.89543-2-2 0.89543-2 2-2zm4 1c0.55228 0 1 0.44772 1 1s-0.44772 1-1 1-1-0.44772-1-1 0.44772-1 1-1zm3 0c0.55228 0 1 0.44772 1 1s-0.44772 1-1 1-1-0.44772-1-1 0.44772-1 1-1zm3 0.5h3v1h-3zm0 2h4v1h-4z" style="fill-opacity:.75;fill:currentColor"/>
	<path class="ColorScheme-Background" d="m4 3c-1.0907 0-2 0.9093-2 2v5c0 0.63005 0.34402 1.1313 0.81055 1.5-0.46653 0.36868-0.81055 0.86995-0.81055 1.5v5c0 1.0907 0.9093 2 2 2h16c1.0907 0 2-0.9093 2-2v-5c0-0.63005-0.34402-1.1313-0.81055-1.5 0.46653-0.36868 0.81055-0.86995 0.81055-1.5v-5c0-1.0907-0.9093-2-2-2zm0 1h16c0.554 0 1 0.446 1 1v5c0 0.554-0.446 1-1 1h-16c-0.554 0-1-0.446-1-1v-5c0-0.554 0.446-1 1-1zm12 1v1h2v-1zm-10 0.5c-1.1046 0-2 0.89543-2 2s0.89543 2 2 2 2-0.89543 2-2-0.89543-2-2-2zm0 1c0.56413 0 1 0.43587 1 1s-0.43587 1-1 1-1-0.43587-1-1 0.43587-1 1-1zm4 0c-0.55228 0-1 0.44772-1 1s0.44772 1 1 1 1-0.44772 1-1-0.44772-1-1-1zm3 0c-0.55228 0-1 0.44772-1 1s0.44772 1 1 1 1-0.44772 1-1-0.44772-1-1-1zm3 0.5v1h3v-1zm0 2v1h4v-1zm-12 3h16c0.554 0 1 0.446 1 1v5c0 0.554-0.446 1-1 1h-16c-0.554 0-1-0.446-1-1v-5c0-0.554 0.446-1 1-1zm12 1v1h2v-1zm-10 0.5c-1.1046 0-2 0.89543-2 2s0.89543 2 2 2 2-0.89543 2-2-0.89543-2-2-2zm0 1c0.56413 0 1 0.43587 1 1s-0.43587 1-1 1-1-0.43587-1-1 0.43587-1 1-1zm4 0c-0.55228 0-1 0.44772-1 1s0.44772 1 1 1 1-0.44772 1-1-0.44772-1-1-1zm3 0c-0.55228 0-1 0.44772-1 1s0.44772 1 1 1 1-0.44772 1-1-0.44772-1-1-1zm3 0.5v1h3v-1zm0 2v1h4v-1z" style="fill-opacity:.5;fill:currentColor"/>
</svg>
