<?xml version="1.0" encoding="UTF-8"?>
<svg id="d" width="24" height="24" version="1.1" xmlns="http://www.w3.org/2000/svg" xmlns:cc="http://creativecommons.org/ns#" xmlns:dc="http://purl.org/dc/elements/1.1/" xmlns:rdf="http://www.w3.org/1999/02/22-rdf-syntax-ns#">
	<metadata id="a">
		<rdf:RDF>
			<cc:Work rdf:about="">
				<dc:format>image/svg+xml</dc:format>
				<dc:type rdf:resource="http://purl.org/dc/dcmitype/StillImage"/>
			</cc:Work>
		</rdf:RDF>
	</metadata>
	<defs id="c">
		<style id="current-color-scheme" type="text/css">.ColorScheme-Text {color:#090d11;}.ColorScheme-Background{color:#ffffff;}</style>
	</defs>
	<path id="e" class="ColorScheme-Text" d="m4 3c-0.554 0-1 0.446-1 1v6c0 0.554 0.446 1 1 1h8c0.554 0 1-0.446 1-1v-6c0-0.554-0.446-1-1-1h-8zm11 0c-0.554 0-1 0.446-1 1v6c0 0.554 0.446 1 1 1h5c0.554 0 1-0.446 1-1v-6c0-0.554-0.446-1-1-1h-5zm-11 2h8v5h-8v-5zm11 0h5v5h-5v-5zm-11 7c-0.554 0-1 0.446-1 1v7c0 0.554 0.446 1 1 1h16c0.554 0 1-0.446 1-1v-7c0-0.554-0.446-1-1-1h-16zm0 2h16v6h-16v-6z" style="fill:currentColor;opacity:.75"/>
</svg>
