<?xml version="1.0" encoding="UTF-8"?>
<svg id="i" width="24" height="24" version="1.1" xmlns="http://www.w3.org/2000/svg" xmlns:cc="http://creativecommons.org/ns#" xmlns:dc="http://purl.org/dc/elements/1.1/" xmlns:rdf="http://www.w3.org/1999/02/22-rdf-syntax-ns#">
	<metadata id="a">
		<rdf:RDF>
			<cc:Work rdf:about="">
				<dc:format>image/svg+xml</dc:format>
				<dc:type rdf:resource="http://purl.org/dc/dcmitype/StillImage"/>
				<dc:title/>
			</cc:Work>
		</rdf:RDF>
	</metadata>
	<defs id="d">
		<style id="current-color-scheme" type="text/css">.ColorScheme-Text {color:#090d11;}.ColorScheme-Background{color:#ffffff;}</style>
	</defs>
	<path id="c" d="m6 3c-1.662 0-3 1.338-3 3v14c0 0.554 0.446 1 1 1h6.2051l10.795-12.699v-4.3008c0-0.554-0.446-1-1-1h-14zm1.3555 2c0.38318 6.2e-6 0.72403 0.066121 1.0195 0.19531 0.29776 0.12682 0.55071 0.30806 0.75391 0.54492 0.20313 0.23446 0.3551 0.51905 0.45898 0.85156 0.10618 0.33014 0.16016 0.69832 0.16016 1.1074-4.3e-6 0.34451-0.039061 0.66119-0.11523 0.95312-0.073865 0.28947-0.18075 0.54851-0.32617 0.77344-0.14543 0.22489-0.3283 0.41285-0.54297 0.56836-0.21469 0.15312-0.46286 0.2646-0.74219 0.33398 0.02077 0.27034 0.062322 0.49378 0.12695 0.66602 0.064637 0.17463 0.14594 0.31011 0.23828 0.4082 0.094635 0.10048 0.19744 0.16875 0.31055 0.20703 0.11309 0.03827 0.23188 0.05663 0.34961 0.05664h0.10938v0.43164h-0.50977c-0.21237-1e-6 -0.41727-0.03307-0.625-0.09766-0.20544-0.064597-0.39789-0.16938-0.56641-0.31054-0.16619-0.13875-0.30095-0.31897-0.41406-0.53906-0.11079-0.21769-0.17809-0.4819-0.20117-0.79297-0.31857-0.050241-0.59819-0.1505-0.83594-0.29883-0.23545-0.15072-0.43092-0.33869-0.58789-0.56836-0.15698-0.22967-0.27503-0.49502-0.35352-0.79883-0.076174-0.30383-0.11719-0.63682-0.11719-0.99805 0-0.40671 0.051133-0.77729 0.15039-1.1074 0.099252-0.33254 0.25071-0.61713 0.44922-0.85156 0.20084-0.23444 0.44794-0.41227 0.74805-0.53906 0.30239-0.12918 0.65624-0.19531 1.0625-0.19531zm4.0586 0.59766h0.58598v0.61719h0.75781v0.60547h-0.75781v1.8594c0 0.20798 0.02667 0.36088 0.08398 0.45703 0.05916 0.09616 0.15595 0.14453 0.28906 0.14453 0.07395 1.2e-6 0.14634-0.00445 0.21289-0.015625 0.06841-0.013421 0.16441-0.030942 0.23828-0.048828v0.67188c-0.03694 0.017886-0.08966 0.038469-0.1543 0.058594-0.06232 0.020137-0.13725 0.037087-0.22266 0.052734-0.08312 0.01788-0.17507 0.03179-0.28125 0.04297-0.10618 0.01116-0.22496 0.01563-0.34961 0.01563-0.15928 0-0.07777-0.02058-0.20703-0.05859-0.12927-0.035788-0.23811-0.098614-0.32812-0.1836-0.09002-0.08721-0.16051-0.19562-0.20898-0.33203-0.04848-0.13866-0.07227-0.30849-0.07227-0.50977v-2.1543h-0.53125v-0.48633c0.15235 4.8e-6 0.28817-0.02779 0.4082-0.085938 0.12003-0.058135 0.21751-0.12904 0.28906-0.20508 0.14542-0.14758 0.1765-0.13893 0.24805-0.44531zm-4.0586 0.03125c-0.2063 3.8e-6 -0.38141 0.052941-0.52539 0.14648-0.14399 0.091323-0.2613 0.22221-0.35156 0.40039-0.090252 0.17595-0.15448 0.39035-0.19531 0.64648-0.040834 0.25615-0.0625 0.54953-0.0625 0.87695-1.7e-6 0.32742 0.021668 0.62081 0.0625 0.87695 0.040824 0.25615 0.10505 0.47222 0.19531 0.65039 0.090258 0.17595 0.20973 0.30881 0.35156 0.40234 0.14399 0.093544 0.31537 0.14453 0.51953 0.14453 0.2063 0 0.37964-0.050988 0.52148-0.14453 0.14399-0.09355 0.26345-0.22639 0.35156-0.40234 0.088109-0.17819 0.15077-0.39426 0.18945-0.65039 0.040828-0.25615 0.0625-0.54953 0.0625-0.87695-6.7e-6 -0.32742-0.021672-0.6208-0.0625-0.87695-0.038692-0.25612-0.10134-0.47052-0.18945-0.64648-0.088115-0.17817-0.20387-0.30907-0.3457-0.40039-0.14184-0.093544-0.31733-0.14648-0.52148-0.14648zm15.438 2.4258a0.50005 0.50005 0 0 0-0.38086 0.17969l-1.4121 1.6484v-0.039062l-10.705 12.594a0.50005 0.50005 0 0 0 0.875 0.44727l1.6152-1.8848h5.2148c1.662 0 3-1.338 3-3v-6.584l2.1699-2.5313a0.50005 0.50005 0 0 0-0.37695-0.83008z" style="fill-opacity:.75;fill:currentColor" class="ColorScheme-Text" />
	<path id="b" d="m6 2c-2.1987 0-4 1.8013-4 4v14c0 1.0907 0.9093 2 2 2h5.3535l-0.22852 0.26953a0.50017 0.50017 0 1 0 0.76172 0.64844l11.113-13.074v0.039062l1-1.168v-0.046875l0.9082-1.0684a0.50005 0.50005 0 0 0-0.38086-0.83008 0.50005 0.50005 0 0 0-0.38086 0.18164l-0.14648 0.17188v-3.123c0-1.0907-0.9093-2-2-2h-14zm0 1h14c0.554 0 1 0.446 1 1v4.3008l-10.795 12.699h-6.2051c-0.554 0-1-0.446-1-1v-14c0-1.662 1.338-3 3-3zm1.3555 2c-0.40627 5.5e-6 -0.76013 0.066121-1.0625 0.19531-0.30009 0.1268-0.5472 0.30462-0.74805 0.53906-0.19851 0.23446-0.34997 0.5171-0.44922 0.84961-0.099265 0.33016-0.15039 0.70273-0.15039 1.1094-4e-7 0.36125 0.041011 0.69426 0.11719 0.99805 0.078488 0.30383 0.19653 0.56919 0.35352 0.79883 0.15697 0.22967 0.35244 0.41763 0.58789 0.56836 0.23775 0.14833 0.51737 0.24859 0.83594 0.29883 0.023081 0.31102 0.090377 0.57522 0.20117 0.79297 0.1131 0.2201 0.24787 0.40031 0.41406 0.53906 0.1685 0.14115 0.36096 0.24595 0.56641 0.31055 0.20774 0.06459 0.41269 0.10224 0.625 0.09766h0.50977v-0.43164h-0.10938c-0.11773-1.1e-5 -0.23652-0.01838-0.34961-0.05664-0.11312-0.03828-0.21592-0.10656-0.31055-0.20703-0.092339-0.09809-0.17364-0.23357-0.23828-0.4082-0.064637-0.17226-0.10618-0.3957-0.12695-0.66602 0.27931-0.06939 0.52747-0.18086 0.74219-0.33398 0.21466-0.15551 0.39754-0.34346 0.54297-0.56836 0.14542-0.22489 0.25231-0.48393 0.32617-0.77344 0.076168-0.29189 0.11523-0.60858 0.11523-0.95312-4.3e-6 -0.4091-0.053985-0.77723-0.16016-1.1074-0.10388-0.33254-0.25585-0.61712-0.45898-0.85156-0.20314-0.23685-0.45609-0.4181-0.75391-0.54492-0.29549-0.12918-0.63636-0.19531-1.0195-0.19531zm4.0605 0.59766c-0.07155 0.30638-0.10457 0.29773-0.25 0.44531-0.07156 0.076041-0.16903 0.14694-0.28906 0.20508-0.12003 0.058148-0.25585 0.085944-0.4082 0.085938v0.48633h0.53125v2.1543c0 0.20128 0.0238 0.3711 0.07227 0.50977 0.04847 0.13642 0.11897 0.24482 0.20898 0.33203 0.09002 0.084978 0.19886 0.14782 0.32812 0.18359 0.12927 0.03802 0.04775 0.05859 0.20703 0.05859 0.12464 0 0.24343-0.0045 0.34961-0.01563 0.10618-0.01118 0.19814-0.02509 0.28125-0.04297 0.08541-0.015647 0.16033-0.032597 0.22266-0.052734 0.06464-0.020125 0.11736-0.04266 0.1543-0.060547v-0.66991c-0.07387 0.017886-0.16988 0.035407-0.23828 0.048828-0.06656 0.011188-0.13895 0.015631-0.21289 0.015625-0.13311 1.2e-6 -0.22991-0.048372-0.28906-0.14453-0.05731-0.096154-0.08398-0.24904-0.08398-0.45703v-1.8594h0.75781v-0.60547h-0.75781v-0.61719h-0.58398zm-4.0605 0.03125c0.20416 4.1e-6 0.37964 0.052942 0.52148 0.14648 0.14184 0.091323 0.25759 0.22222 0.3457 0.40039 0.088109 0.17596 0.15076 0.39035 0.18945 0.64648 0.040828 0.25615 0.062494 0.54953 0.0625 0.87695-3.7e-6 0.32742-0.021672 0.62081-0.0625 0.87695-0.038686 0.25615-0.10134 0.47222-0.18945 0.65039-0.088115 0.17596-0.20758 0.30881-0.35156 0.40234-0.14184 0.09355-0.31518 0.14453-0.52148 0.14453-0.20416 0-0.37555-0.050988-0.51953-0.14453-0.14184-0.09355-0.2613-0.2264-0.35156-0.40234-0.090258-0.17819-0.15449-0.39426-0.19531-0.65039-0.040834-0.25615-0.0625-0.54953-0.0625-0.87695-1.4e-6 -0.32742 0.021668-0.6208 0.0625-0.87695 0.040829-0.25612 0.10506-0.47054 0.19531-0.64648 0.090258-0.17818 0.20758-0.30906 0.35156-0.40039 0.14399-0.093544 0.31909-0.14648 0.52539-0.14648zm14.645 4.6211-1 1.166v6.584c0 1.662-1.338 3-3 3h-5.2148l-0.85742 1h6.0723c2.1987 0 4-1.8013 4-4v-7.75z" style="fill-opacity:.5;fill:currentColor" class="ColorScheme-Background" />
</svg>
