<?xml version="1.0" encoding="UTF-8"?>
<!-- Created with Inkscape (http://www.inkscape.org/) -->
<svg width="24" height="24" version="1.1" xmlns="http://www.w3.org/2000/svg" xmlns:cc="http://creativecommons.org/ns#" xmlns:dc="http://purl.org/dc/elements/1.1/" xmlns:rdf="http://www.w3.org/1999/02/22-rdf-syntax-ns#">
	<metadata>
		<rdf:RDF>
			<cc:Work rdf:about="">
				<dc:format>image/svg+xml</dc:format>
				<dc:type rdf:resource="http://purl.org/dc/dcmitype/StillImage"/>
				<dc:title/>
			</cc:Work>
		</rdf:RDF>
	</metadata>
	<defs>
		<style id="current-color-scheme" type="text/css">.ColorScheme-Text {color:#090d11;}</style>
	</defs>
	<path d="m12 4c-1.8199 0-3.4995 0.6014-4.8438 1.625 0.035 0.1171 0.078 0.2387 0.094 0.3438 0.031 0.2359 0.021 0.2015 0.031 0.3437l0.625 0.031c1.1551-0.8407 2.5559-1.3438 4.0938-1.3438 1.1343 0 2.2087 0.2711 3.1562 0.75a1.0001 1.0001 0 0 1 0.9688-0.5625c-1.2083-0.7332-2.6084-1.1875-4.125-1.1875zm-6.75 1.0625c-0.6951 1.1743 0.091 2.4538-0.2188 3-0.6573 1.157-1.0312 2.5113-1.0312 3.9375 0 4.4199 3.5801 8 8 8s8-3.5801 8-8c0-2.2837-0.9665-4.324-2.5-5.7812l-0.4375-0.25 0.5312 1.0625-1.5625-0.8438 0.8125 1.5625-1.375-0.4375c1.124 0.9032 1.8438 2.2891 1.8438 3.8438 0 2.7226-2.1838 4.9062-4.9063 4.9062-1.1216 0-2.1406-0.4006-2.9687-1.0312l0.5312 0.2187 0.094-0.2187 1.4687-0.25 2.1875-1 0.031-0.625-2.8125 0.062-1.75-0.625-0.1875-0.625 1.3437-0.3125-0.1562-1.0938 1.75-0.9062-0.1875-0.9375-2-0.4063 0.8437-1.7812c0.1637-0.1086 0.3043-0.2212 0.4375-0.2813-0.7067 0.075-1.4628 0.081-2.8125 1.0938l-1.7812-0.031c-0.3433-0.7622 0.349-1.6713-1.1875-2.25z" style="fill-opacity:.75;fill:currentColor" class="ColorScheme-Text"/>
</svg>
