<?xml version="1.0" encoding="UTF-8" standalone="no"?>
<!-- Created with Inkscape (http://www.inkscape.org/) -->

<svg
   xmlns:dc="http://purl.org/dc/elements/1.1/"
   xmlns:cc="http://creativecommons.org/ns#"
   xmlns:rdf="http://www.w3.org/1999/02/22-rdf-syntax-ns#"
   xmlns:svg="http://www.w3.org/2000/svg"
   xmlns="http://www.w3.org/2000/svg"
   xmlns:sodipodi="http://sodipodi.sourceforge.net/DTD/sodipodi-0.dtd"
   xmlns:inkscape="http://www.inkscape.org/namespaces/inkscape"
   version="1.1"
   width="24"
   height="24"
   id="svg2"
   inkscape:version="0.92.2 5c3e80d, 2017-08-06"
   sodipodi:docname="genymotion-player.svg">
  <sodipodi:namedview
     pagecolor="#ffffff"
     bordercolor="#666666"
     borderopacity="1"
     objecttolerance="10"
     gridtolerance="10"
     guidetolerance="10"
     inkscape:pageopacity="0"
     inkscape:pageshadow="2"
     inkscape:window-width="1920"
     inkscape:window-height="1033"
     id="namedview6"
     showgrid="true"
     inkscape:zoom="29.5"
     inkscape:cx="8.5300215"
     inkscape:cy="11.373768"
     inkscape:window-x="-10"
     inkscape:window-y="25"
     inkscape:window-maximized="1"
     inkscape:current-layer="svg2"
     inkscape:snap-global="true">
    <inkscape:grid
       type="xygrid"
       id="grid2982"
       empspacing="5"
       visible="true"
       enabled="true"
       snapvisiblegridlinesonly="true" />
  </sodipodi:namedview>
  <defs
     id="defs4" />
  <metadata
     id="metadata7">
    <rdf:RDF>
      <cc:Work
         rdf:about="">
        <dc:format>image/svg+xml</dc:format>
        <dc:type
           rdf:resource="http://purl.org/dc/dcmitype/StillImage" />
        <dc:title />
      </cc:Work>
    </rdf:RDF>
  </metadata>
  <path
     id="path814"
     d="m 12.267578,1.9863281 c -0.243834,-0.00653 -0.487483,-0.00513 -0.730469,0.00586 -1.6200362,0.073274 -3.209421,0.53639 -4.6269528,1.375 -3.442138,2.0363623 -5.3438845,5.9090489 -4.8515624,9.8769535 0.3359027,2.707248 1.7683861,5.158659 3.9648437,6.796875 1.53481,1.14473 3.3930989,1.831873 5.3007815,1.957031 2.501605,0.164119 4.975273,-0.606623 6.919922,-2.162109 3.079166,-2.462966 4.428581,-6.465886 3.470703,-10.2949224 C 20.825686,5.9866689 18.010912,3.1741992 14.457031,2.2851562 13.732533,2.1039149 12.99908,2.0059057 12.267578,1.9863281 Z m -0.685547,1.0039063 c 0.875481,-0.039598 1.760597,0.04743 2.632813,0.265625 3.190957,0.7982534 5.731045,3.3363875 6.529297,6.5273437 0.865038,3.4579139 -0.345307,7.0480629 -3.125,9.2714849 C 15.871747,20.452395 13.644946,21.147896 11.390625,21 9.6806815,20.887815 7.997655,20.266935 6.6210938,19.240234 4.6406002,17.763094 3.3530383,15.557171 3.0507812,13.121094 2.6068147,9.5429141 4.3155398,6.0650621 7.4199219,4.2285156 8.6952144,3.4740542 10.122897,3.0562307 11.582031,2.9902344 Z m 3.824219,4.7636718 c -2.12365,10e-8 -3.855469,1.7318186 -3.855469,3.8554688 0,2.12365 1.731819,3.857422 3.855469,3.857422 2.12365,0 3.857422,-1.733772 3.857422,-3.857422 0,-2.1236502 -1.733772,-3.8554686 -3.857422,-3.8554688 z m 0,1 c 1.58321,0 2.857422,1.2722588 2.857422,2.8554688 0,1.58321 -1.274212,2.857422 -2.857422,2.857422 -1.58321,0 -2.855469,-1.274212 -2.855469,-2.857422 0,-1.58321 1.272259,-2.8554688 2.855469,-2.8554688 z M 7.6445312,9.3144531 c -1.7398591,0 -3.1621093,1.4202969 -3.1621093,3.1601559 0,1.739859 1.4222502,3.160157 3.1621093,3.160157 1.7398593,0 3.1601538,-1.420298 3.1601568,-3.160157 0,-1.739859 -1.4202975,-3.1601559 -3.1601568,-3.1601559 z m 0,0.9999999 c 1.1994193,0 2.1601563,0.960737 2.1601563,2.160156 0,1.199419 -0.960737,2.160157 -2.1601563,2.160157 -1.1994189,0 -2.1621093,-0.960738 -2.1621093,-2.160157 0,-1.199419 0.9626904,-2.160156 2.1621093,-2.160156 z"
     style="color:#000000;font-style:normal;font-variant:normal;font-weight:normal;font-stretch:normal;font-size:medium;line-height:normal;font-family:sans-serif;font-variant-ligatures:normal;font-variant-position:normal;font-variant-caps:normal;font-variant-numeric:normal;font-variant-alternates:normal;font-feature-settings:normal;text-indent:0;text-align:start;text-decoration:none;text-decoration-line:none;text-decoration-style:solid;text-decoration-color:#000000;letter-spacing:normal;word-spacing:normal;text-transform:none;writing-mode:lr-tb;direction:ltr;text-orientation:mixed;dominant-baseline:auto;baseline-shift:baseline;text-anchor:start;white-space:normal;shape-padding:0;clip-rule:nonzero;display:inline;overflow:visible;visibility:visible;opacity:1;isolation:auto;mix-blend-mode:normal;color-interpolation:sRGB;color-interpolation-filters:linearRGB;solid-color:#000000;solid-opacity:1;vector-effect:none;fill:#27303a;fill-opacity:0.75328082;fill-rule:nonzero;stroke:none;stroke-width:1;stroke-linecap:butt;stroke-linejoin:miter;stroke-miterlimit:4;stroke-dasharray:none;stroke-dashoffset:0;stroke-opacity:1;marker:none;color-rendering:auto;image-rendering:auto;shape-rendering:auto;text-rendering:auto;enable-background:accumulate;font-variant-east_asian:normal"
     inkscape:connector-curvature="0" />
  <path
     id="path816"
     d="M 11.582031,2.9902344 C 10.122897,3.0562307 8.6952144,3.4740542 7.4199219,4.2285156 4.3155398,6.0650621 2.6068146,9.5429144 3.0507812,13.121094 c 0.3022571,2.436077 1.589819,4.642 3.5703126,6.11914 C 7.997655,20.266935 9.6806815,20.887815 11.390625,21 c 2.254321,0.147896 4.481122,-0.547605 6.228516,-1.945312 2.779693,-2.223422 3.990038,-5.813571 3.125,-9.2714849 C 19.945889,6.5922469 17.405801,4.0541128 14.214844,3.2558594 13.342628,3.0376648 12.457512,2.9506366 11.582031,2.9902344 Z m 3.824219,4.7636718 c 2.12365,2e-7 3.857422,1.7318186 3.857422,3.8554688 0,2.12365 -1.733772,3.857422 -3.857422,3.857422 -2.12365,0 -3.855469,-1.733772 -3.855469,-3.857422 0,-2.1236502 1.731819,-3.8554688 3.855469,-3.8554688 z m 0,1 c -1.58321,0 -2.855469,1.2722588 -2.855469,2.8554688 0,1.58321 1.272259,2.857422 2.855469,2.857422 1.58321,0 2.857422,-1.274212 2.857422,-2.857422 0,-1.58321 -1.274212,-2.8554688 -2.857422,-2.8554688 z M 7.6445312,9.3144531 c 1.7398593,0 3.1601568,1.4202969 3.1601568,3.1601559 -2e-6,1.739859 -1.4202975,3.160157 -3.1601568,3.160157 -1.7398591,0 -3.1621093,-1.420298 -3.1621093,-3.160157 0,-1.739859 1.4222502,-3.1601559 3.1621093,-3.1601559 z m 0,0.9999999 c -1.1994189,0 -2.1621093,0.960737 -2.1621093,2.160156 0,1.199419 0.9626904,2.160157 2.1621093,2.160157 1.1994193,0 2.1601563,-0.960738 2.1601563,-2.160157 0,-1.199419 -0.960737,-2.160156 -2.1601563,-2.160156 z"
     style="opacity:1;vector-effect:none;fill:#f1f3f5;fill-opacity:0.90288714;stroke:none;stroke-width:2;stroke-linecap:butt;stroke-linejoin:miter;stroke-miterlimit:4;stroke-dasharray:none;stroke-dashoffset:0;stroke-opacity:1;marker:none;font-variant-east_asian:normal"
     inkscape:connector-curvature="0" />
</svg>
