<?xml version="1.0" encoding="UTF-8" standalone="no"?>
<svg
   xmlns:dc="http://purl.org/dc/elements/1.1/"
   xmlns:cc="http://creativecommons.org/ns#"
   xmlns:rdf="http://www.w3.org/1999/02/22-rdf-syntax-ns#"
   xmlns:svg="http://www.w3.org/2000/svg"
   xmlns="http://www.w3.org/2000/svg"
   id="svg24"
   version="1.1"
   height="24"
   width="24">
  <defs
     id="defs4">
    <style
       type="text/css"
       id="current-color-scheme">.ColorScheme-Text {color:#090d11;}.ColorScheme-Background{color:#ffffff;}</style>
  </defs>
  <metadata
     id="metadata14">
    <rdf:RDF>
      <cc:Work
         rdf:about="">
        <dc:format>image/svg+xml</dc:format>
        <dc:type
           rdf:resource="http://purl.org/dc/dcmitype/StillImage" />
        <dc:title></dc:title>
      </cc:Work>
    </rdf:RDF>
  </metadata>
  <path
     class="ColorScheme-Text"
     id="path16"
     d="m 12,3 c -4.9705627,0 -9,4.0294373 -9,9 0,4.970563 4.0294373,9 9,9 4.970563,0 9,-4.029437 9,-9 0,-4.9705627 -4.029437,-9 -9,-9 z m 0.494141,1.0234375 c 0.790395,0.049442 1.569068,0.2159716 2.310547,0.4941406 1.142287,2.2444359 1.416555,5.1390579 1.203124,7.4882809 l 2,0.0078 -3.015624,3.988281 -2.984376,-4.009765 2,0.0059 c 0.08737,-2.5170003 -0.09511,-5.2866675 -1.560546,-7.7910158 0.0067,-0.074926 0.03097,-0.1227437 0.04687,-0.1835937 z M 10.480469,4.1523438 C 9.361915,6.8657745 9.1796537,9.5925887 9.3125,12 c 0.1472253,2.667987 0.879927,5.410973 2.599609,7.964844 -0.110423,0.009 -0.221311,0.01003 -0.332031,0.01563 -0.48052,-0.02599 -0.957715,-0.09528 -1.425781,-0.207031 C 8.5947195,17.496483 7.8469786,14.812488 7.6035156,12.132812 7.3672393,9.5322429 7.7461894,7.1553976 8.4902344,4.8183594 9.1215208,4.5099203 9.7906891,4.2859887 10.480469,4.1523438 Z M 5.7988281,6.953125 C 4.967597,11.700746 5.9891082,16.106843 8.3554688,19.113281 7.6845785,18.768501 7.0658211,18.33057 6.5175781,17.8125 4.9800525,15.22856 4.3895624,11.761309 4.9003906,8.328125 5.1519011,7.8401807 5.4529666,7.3794195 5.7988281,6.953125 Z"
     style="fill:currentColor;fill-opacity:0.75" />
  <path
     class="ColorScheme-Background"
     id="path20"
     d="M 12,2 C 6.4889971,2 2,6.4889971 2,12 2,17.511003 6.4889971,22 12,22 17.511003,22 22,17.511003 22,12 22,6.4889971 17.511003,2 12,2 Z m 0,1 c 4.970563,0 9,4.0294373 9,9 0,4.970563 -4.029437,9 -9,9 C 7.0294373,21 3,16.970563 3,12 3,7.0294373 7.0294373,3 12,3 Z m 0.494141,1.0234375 c -0.0159,0.06085 -0.04021,0.108668 -0.04687,0.1835937 1.465432,2.5043482 1.647919,5.274015 1.560546,7.7910158 l -2,-0.0059 2.984376,4.009765 3.015624,-3.988281 -2,-0.0078 C 16.221248,9.6566075 15.946978,6.762014 14.804688,4.5175781 14.063209,4.2394091 13.284536,4.0728797 12.494141,4.0234375 Z M 10.480469,4.1523438 C 9.7906891,4.2859887 9.1215208,4.5099203 8.4902344,4.8183594 7.7461894,7.1553976 7.3672393,9.5322424 7.6035156,12.132812 c 0.243463,2.679676 0.9912039,5.363671 2.5507814,7.640626 0.468066,0.111752 0.945261,0.181043 1.425781,0.207031 0.11072,-0.0056 0.221608,-0.0066 0.332031,-0.01563 C 10.192427,17.410968 9.4597253,14.667986 9.3125,12 9.1796537,9.5925882 9.361915,6.8657747 10.480469,4.1523438 Z M 5.7988281,6.953125 c -0.3458615,0.4262945 -0.646927,0.8870557 -0.8984375,1.375 -0.5108282,3.433184 0.079662,6.900435 1.6171875,9.484375 0.548243,0.51807 1.1670004,0.956001 1.8378907,1.300781 C 5.9891082,16.106843 4.9675971,11.700745 5.7988281,6.953125 Z"
     style="fill:currentColor;fill-opacity:0.5" />
</svg>
