<?xml version="1.0" encoding="UTF-8"?>
<svg id="d" width="24" height="24" version="1.1" xmlns="http://www.w3.org/2000/svg" xmlns:cc="http://creativecommons.org/ns#" xmlns:dc="http://purl.org/dc/elements/1.1/" xmlns:rdf="http://www.w3.org/1999/02/22-rdf-syntax-ns#">
	<metadata id="a">
		<rdf:RDF>
			<cc:Work rdf:about="">
				<dc:format>image/svg+xml</dc:format>
				<dc:type rdf:resource="http://purl.org/dc/dcmitype/StillImage"/>
				<dc:title/>
			</cc:Work>
		</rdf:RDF>
	</metadata>
	<defs id="e">
		<style id="current-color-scheme" type="text/css">.ColorScheme-ViewText {color:#090d11;}.ColorScheme-Background{color:#ffffff;}</style>
	</defs>
	<path id="c" class="ColorScheme-Text" d="m4.1292 5.0012 1.896e-4 0.97202 1.2887 0.098123 0.20844 0.29531-2.0742 11.072-0.3191 0.30761-1.3134 0.09812v1.0087l5.7444 9.4e-5 1.897e-4 -1.0085-1.2767-0.08733-0.22086-0.31991 0.84693-4.638h1.3012l1.8655 3.9366c0.76253 1.57 1.2976 2.243 2.9459 2.2639 0.47396 0.01127 0.66467 0.03944 1.9434 0 4.4101-3.6903 6.6612-6.5035 7.017-7.7751 0.21526-0.77033-0.12669-1.2427-0.85954-1.2427-0.35732 0-0.7667 0.1507-1.2271 0.4554l-0.33143 2.645c-0.9025 1.1821-2.1058 2.47-3.5719 3.8136l0.96974-5.081c0.20123-1.0391 0.26752-1.5934-0.40521-1.8085l-3.0072 0.66432-0.15932 0.56592 1.3868 0.2215c0.09711 0.35831-0.01138 1.1371-0.22096 2.3376l-0.6751 3.7274c-0.01138 0.03944-0.01708 0.07981-0.02561 0.123-0.43774-0.23559-0.71369-0.6554-1.031-1.2916l-2.6389-5.2902 4.8236-4.8964 1.6448-0.15981-1.9e-4 -1.0089h-5.155l1.89e-4 1.0091 1.2763 0.098123 0.12271 0.33221-5.1676 5.3392h-0.61355l1.0187-5.413 0.27008-0.29521 1.3625-0.098217-1.898e-4 -0.97193z" style="fill-opacity:.75;fill:currentColor"/>
	<path id="b" d="m9.873 4l-5.7441 0.0019531a1.0001 1.0001 0 0 0 -1 1v0.9707a1.0001 1.0001 0 0 0 0.92383 0.99805l0.4375 0.033203-1.832 9.7812-0.8125 0.0625a1.0001 1.0001 0 0 0 -0.92578 0.99805v1.0078a1.0001 1.0001 0 0 0 1 1h5.7441a1.0001 1.0001 0 0 0 1 -1h-1-4.7441-1v-1.0078l1.3125-0.099609 0.32031-0.30664 2.0742-11.072-0.20898-0.29492-1.2891-0.099609v-0.9707h1l4.7441-0.0019531h1v0.97266l-1.3633 0.097656-0.26953 0.29492-0.92578 4.918 4.6875-4.8437-0.12305-0.33203-1.2754-0.097656v-1.0098h1 4.1543 1a1.0001 1.0001 0 0 0 -1 -1h-5.1543a1.0001 1.0001 0 0 0 -0.86524 0.50195 1.0001 1.0001 0 0 0 -0.86523 -0.50195zm7.8848 2.0098l-1.6445 0.1582-4.8242 4.8965 2.6406 5.291c0.069391 0.13912 0.13752 0.22889 0.20508 0.34766l0.52539-2.9062c0.20958-1.2005 0.31781-1.9796 0.2207-2.3379l-1.3867-0.22266 0.16016-0.56445 3.0078-0.66406c0.12271 0.039223 0.21387 0.093556 0.29102 0.15625l0.70898-0.15625c0.3356 0.10727 0.48653 0.29758 0.5293 0.5918-0.004262-0.046914-0.0028-0.090115-0.009765-0.13867-0.081312-0.56687-0.63397-1.22-1.2168-1.4063a1.0001 1.0001 0 0 0 -0.51953 -0.023438l-3.0078 0.66406a1.0001 1.0001 0 0 0 -0.74609 0.70508l-0.16016 0.56641a1.0001 1.0001 0 0 0 0.80664 1.2578l0.53711 0.085938c-0.03903 0.33712-0.10326 0.76479-0.19922 1.3145v-0.007812l-0.26367 1.4629-1.9082-3.8223 4.0684-4.1289 1.2832-0.125a1.0001 1.0001 0 0 0 0.90234 -0.99414zm-7.0312 0.47852a1.0001 1.0001 0 0 0 0.43359 0.41602l-2.4883 2.5723 0.46094-2.4492 0.8125-0.058594a1.0001 1.0001 0 0 0 0.78125 -0.48047zm10.5 2.4941c-0.6385 0-1.2179 0.24958-1.7793 0.62109a1.0001 1.0001 0 0 0 -0.43945 0.71094l-0.29297 2.3301c-0.25364 0.32496-0.68675 0.71419-0.99024 1.0586l0.32422-1.6973v-0.001953c0.09372-0.48364 0.18668-0.90099 0.14258-1.3984 0.041397 0.29502-0.02476 0.69334-0.125 1.2109l-0.74414 3.9043c0.91931-0.91945 1.7106-1.8068 2.3457-2.6387l0.33203-2.6445c0.4604-0.3047 0.86924-0.45508 1.2266-0.45508 0.19148 0 0.35511 0.034368 0.49024 0.095703 0.17992-0.060211 0.35045-0.095703 0.50976-0.095703 0.53614 0 0.86147 0.25406 0.91406 0.69141-0.018607-0.32495-0.10769-0.64681-0.30859-0.93359-0.37276-0.53211-1.0242-0.75781-1.6055-0.75781zm1.9121 1.791c0.004094 0.13738-0.005997 0.28392-0.052734 0.45117-0.35581 1.2716-2.6055 4.085-7.0156 7.7754-0.9674 0.029838-1.3015 0.020728-1.6172 0.009766-0.63031 0.008815-0.96706-0.001227-1.3262-0.009766-1.6483-0.020845-2.1847-0.69371-2.9473-2.2637l-1.8652-3.9355h-0.30078l-0.84766 4.6367 0.2207 0.32031 1.2773 0.087891a1.0001 1.0001 0 0 0 -0.93164 -0.99805l-0.43555-0.029297 0.50391-2.7656 1.4766 3.1113a1.0001 1.0001 0 0 0 0.0039062 0.009766c0.39689 0.81714 0.76304 1.5063 1.3945 2.0391 0.63149 0.53279 1.4786 0.77498 2.4375 0.78711 0.4361 0.01064 0.69751 0.03975 1.9863 0a1.0001 1.0001 0 0 0 0.61133 -0.23242c2.2367-1.8717 3.9366-3.5268 5.1406-4.9023 1.204-1.3755 1.9235-2.3925 2.1973-3.3711 0.064461-0.23068 0.092567-0.47581 0.089844-0.7207z" style="fill-opacity:.5;fill:currentColor" class="ColorScheme-Background"/>
</svg>
