<?xml version="1.0" encoding="UTF-8"?>
<svg id="c" width="24" height="24" version="1.1" xmlns="http://www.w3.org/2000/svg" xmlns:cc="http://creativecommons.org/ns#" xmlns:dc="http://purl.org/dc/elements/1.1/" xmlns:rdf="http://www.w3.org/1999/02/22-rdf-syntax-ns#">
	<metadata id="a">
		<rdf:RDF>
			<cc:Work rdf:about="">
				<dc:format>image/svg+xml</dc:format>
				<dc:type rdf:resource="http://purl.org/dc/dcmitype/StillImage"/>
				<dc:title/>
			</cc:Work>
		</rdf:RDF>
	</metadata>
	<defs>
		<style id="current-color-scheme" type="text/css">.ColorScheme-Text {color:#090d11;}.ColorScheme-Background{color:#ffffff;}</style>
	</defs>
	<path id="d" d="m19.656 2.8438a1.0001 1.0001 0 0 0-0.094 0.031 1.0001 1.0001 0 0 0-0.375 0.1563 1.0001 1.0001 0 0 0-0.062 0.031 1.0001 1.0001 0 0 0-0.3125 0.4063l-0.5313 1.1875 1.8438 0.7812 0.5312-1.1562a1.0001 1.0001 0 0 0 0.094-0.5 1.0001 1.0001 0 0 0 0-0.094 1.0001 1.0001 0 0 0-0.25-0.5312 1.0001 1.0001 0 0 0-0.094-0.062 1.0001 1.0001 0 0 0-0.625-0.25 1.0001 1.0001 0 0 0-0.031 0 1.0001 1.0001 0 0 0-0.094 0zm-13.656 2.1562c-0.554 0-1 0.446-1 1s0.446 1 1 1h7.75 2.375l0.9062-2zm11.844 0.5938-0.625 1.4062-1.8125 4-0.875 2-1.8125 4-0.7187 1.625 1.8437 0.7813 0.1875-0.4063 0.9063-2 0.7187-1.625 1.0625-2.375 0.9063-2 2.0937-4.625zm-11.844 5.4062c-0.554 0-1 0.446-1 1 0 0.554 0.446 1 1 1h5.3125 2.125l0.9062-2h-1.875zm12.625 0.2188-0.8125 1.7812h0.1875c0.554 0 1-0.446 1-1 0-0.3167-0.1466-0.5983-0.375-0.7812zm-12.625 5.7812c-0.554 0-1 0.446-1 1s0.446 1 1 1h4.7187l0.9063-2h-1.3438zm10.031 0-0.9062 2h2.875c0.554 0 1-0.446 1-1s-0.446-1-1-1zm-4.4687 2.5625-0.4063 0.9063a1.0074 1.0074 0 0 0 0 0.031 1.0074 1.0074 0 0 0-0.031 0.062 1.0074 1.0074 0 0 0 0 0.031 1.0074 1.0074 0 0 0-0.031 0.062 1.0074 1.0074 0 0 0 0 0.031 1.0074 1.0074 0 0 0 0 0.062 1.0074 1.0074 0 0 0-0.031 0.125 1.0074 1.0074 0 0 0 0.031 0.125 1.0074 1.0074 0 0 0 0 0.062 1.0074 1.0074 0 0 0 0 0.031 1.0074 1.0074 0 0 0 0.031 0.062 1.0074 1.0074 0 0 0 0.062 0.1562 1.0074 1.0074 0 0 0 0 0.031 1.0074 1.0074 0 0 0 0.031 0.031 1.0074 1.0074 0 0 0 0 0.031 1.0074 1.0074 0 0 0 0.031 0.062 1.0074 1.0074 0 0 0 0.062 0.031 1.0074 1.0074 0 0 0 0.031 0.062 1.0074 1.0074 0 0 0 0.031 0.031 1.0074 1.0074 0 0 0 0.031 0 1.0074 1.0074 0 0 0 0.031 0.062 1.0074 1.0074 0 0 0 0.031 0 1.0074 1.0074 0 0 0 0.062 0.062 1.0074 1.0074 0 0 0 0.031 0 1.0074 1.0074 0 0 0 0.062 0.031 1.0074 1.0074 0 0 0 0.031 0.031 1.0074 1.0074 0 0 0 0.062 0.031 1.0074 1.0074 0 0 0 0.031 0 1.0074 1.0074 0 0 0 0.062 0.031 1.0074 1.0074 0 0 0 0.031 0 1.0074 1.0074 0 0 0 0.062 0.031 1.0074 1.0074 0 0 0 0.031 0 1.0074 1.0074 0 0 0 0.062 0 1.0074 1.0074 0 0 0 0.031 0 1.0074 1.0074 0 0 0 0.062 0 1.0074 1.0074 0 0 0 0.031 0 1.0074 1.0074 0 0 0 0.375-0.094 1.0074 1.0074 0 0 0 0.031 0 1.0074 1.0074 0 0 0 0.031-0.031 1.0074 1.0074 0 0 0 0.094-0.062 1.0074 1.0074 0 0 0 0.031-0.031 1.0074 1.0074 0 0 0 0.062-0.031 1.0074 1.0074 0 0 0 0.125-0.1562 1.0074 1.0074 0 0 0 0.031 0 1.0074 1.0074 0 0 0 0.094-0.1563 1.0074 1.0074 0 0 0 0-0.031l0.4375-0.9688-1.875-0.75z" style="fill-opacity:.75;fill:currentColor" class="ColorScheme-Text"/>
	<path id="b" d="m19.562 1.8438a2.0002 2.0002 0 0 0-1.6563 1.2187l-7.6562 17a2.0005 2.0005 0 1 0 3.6562 1.625l2.125-4.6875h3.9688v-1h-3.5313l0.9063-2h2.625v-1h-2.1875l0.9062-2h1.2813v-1h-0.8438l2.4063-5.3125a2.0002 2.0002 0 0 0-2-2.8437zm0.094 1a1.0001 1.0001 0 0 1 0.125 0 1.0001 1.0001 0 0 1 0.875 1.4375l-0.5312 1.1562-1.8438-0.7812 0.5313-1.1875a1.0001 1.0001 0 0 1 0.75-0.5938 1.0001 1.0001 0 0 1 0.094-0.031zm-1.8125 2.75 1.875 0.7812-5.875 13.031-1.8437-0.7813zm-13.844 1.4062v1h9.75v-1zm0 3v1h8.4687v-1zm0 3v1h7.3125v-1zm0 3v1h6.2812v-1zm7.5625 3.5625 1.875 0.75-0.4375 0.9688a1.0074 1.0074 0 1 1-1.8438-0.8125z" style="fill-opacity:.5;fill:currentColor" class="ColorScheme-Background"/>
</svg>
