<?xml version="1.0" encoding="UTF-8"?>
<svg id="d" width="24" height="24" version="1.1" xmlns="http://www.w3.org/2000/svg" xmlns:cc="http://creativecommons.org/ns#" xmlns:dc="http://purl.org/dc/elements/1.1/" xmlns:rdf="http://www.w3.org/1999/02/22-rdf-syntax-ns#">
	<metadata id="a">
		<rdf:RDF>
			<cc:Work rdf:about="">
				<dc:format>image/svg+xml</dc:format>
				<dc:type rdf:resource="http://purl.org/dc/dcmitype/StillImage"/>
			</cc:Work>
		</rdf:RDF>
	</metadata>
	<defs id="c">
		<style id="current-color-scheme" type="text/css">.ColorScheme-Text {color:#090d11;}.ColorScheme-Background{color:#ffffff;}</style>
	</defs>
	<path id="e" class="ColorScheme-Text" d="m12 1v22h1v-3h2v-2h-2v-12h2v-2h-2v-3zm4 3v1h1v-1zm-5 0.064453c-0.3631 0.045802-0.72064 0.11515-1.0703 0.20898-0.00518 0.00139-0.010444 0.0025-0.015625 0.00391-0.19027 0.051385-0.37686 0.11153-0.56055 0.17578-0.070194 0.02465-0.13958 0.051557-0.20898 0.078125-0.12442 0.047441-0.24613 0.09916-0.36719 0.15234-0.067924 0.029944-0.1361 0.059996-0.20312 0.091797-0.10857 0.051361-0.21471 0.10621-0.32031 0.16211-0.077431 0.041081-0.15639 0.079454-0.23242 0.12305-0.14057 0.080453-0.27741 0.1675-0.41211 0.25586-0.015883 0.010432-0.033019 0.018751-0.048828 0.029297-0.067199 0.044826-0.13142 0.093763-0.19727 0.14062-0.095347 0.067797-0.19119 0.13532-0.2832 0.20703-0.078948 0.061569-0.15574 0.12683-0.23242 0.19141-0.061564 0.051835-0.12175 0.10461-0.18164 0.1582-0.090192 0.080711-0.17899 0.16312-0.26562 0.24805-0.051043 0.050053-0.10075 0.10098-0.15039 0.15234-0.081691 0.084492-0.16211 0.16952-0.24023 0.25781-0.11946 0.13502-0.23699 0.27236-0.34766 0.41602-0.031336 0.040669-0.059295 0.083734-0.089844 0.125-0.084283 0.11385-0.16598 0.22943-0.24414 0.34766-0.055278 0.083645-0.10782 0.16979-0.16016 0.25586-0.04715 0.077532-0.094148 0.15521-0.13867 0.23438-0.051758 0.092048-0.1006 0.18576-0.14844 0.2793-0.043514 0.085087-0.086458 0.17108-0.12695 0.25781-0.044094 0.094443-0.086745 0.18945-0.12695 0.28516-0.028984 0.069003-0.054955 0.13907-0.082031 0.20898-0.078638 0.20301-0.14753 0.40782-0.20898 0.61523-0.023211 0.07834-0.049553 0.15551-0.070312 0.23438-0.023513 0.08932-0.042132 0.17962-0.0625 0.26953-0.023148 0.10232-0.045279 0.20497-0.064453 0.30859-0.018388 0.09915-0.034216 0.1992-0.048828 0.29883-0.014198 0.09719-0.026449 0.19481-0.037109 0.29297-0.010665 0.09768-0.022235 0.19503-0.029297 0.29297-0.00921 0.12874-0.012596 0.25857-0.015625 0.38867-0.00293 0.1251-0.00293 0.2499 0 0.375 0.00303 0.13011 0.00641 0.25993 0.015625 0.38867 0.00706 0.09794 0.018632 0.19529 0.029297 0.29297 0.01066 0.09815 0.022912 0.19578 0.037109 0.29297 0.014612 0.09963 0.03044 0.19968 0.048828 0.29883 0.019174 0.10363 0.041305 0.20628 0.064453 0.30859 0.020368 0.08991 0.038987 0.18021 0.0625 0.26953 0.020759 0.07886 0.047101 0.15604 0.070312 0.23438 0.061453 0.20741 0.13035 0.41222 0.20898 0.61523 0.027076 0.06992 0.053048 0.13998 0.082031 0.20898 0.040208 0.0957 0.082859 0.19071 0.12695 0.28516 0.040495 0.08674 0.083439 0.17273 0.12695 0.25781 0.047842 0.09354 0.096679 0.18725 0.14844 0.2793 0.044524 0.07917 0.091522 0.15684 0.13867 0.23438 0.052336 0.08607 0.10488 0.17221 0.16016 0.25586 0.078158 0.11822 0.15986 0.23381 0.24414 0.34766 0.030549 0.04127 0.058508 0.08433 0.089844 0.125 0.11067 0.14366 0.22819 0.281 0.34766 0.41602 0.078121 0.0883 0.15854 0.17332 0.24023 0.25781 0.049645 0.05136 0.099348 0.10229 0.15039 0.15234 0.086637 0.08493 0.17543 0.16734 0.26562 0.24805 0.059888 0.0536 0.12008 0.10637 0.18164 0.1582 0.076682 0.06457 0.15347 0.12984 0.23242 0.19141 0.092017 0.07172 0.18786 0.13923 0.2832 0.20703 0.065847 0.04686 0.13007 0.0958 0.19727 0.14062 0.015727 0.01048 0.033017 0.01892 0.048828 0.0293 0.1347 0.08836 0.27154 0.17541 0.41211 0.25586 0.076032 0.04359 0.15499 0.08197 0.23242 0.12305 0.1056 0.0559 0.21174 0.11075 0.32031 0.16211 0.067027 0.0318 0.1352 0.06185 0.20312 0.0918 0.12106 0.05318 0.24277 0.1049 0.36719 0.15234 0.069406 0.02657 0.13879 0.05347 0.20898 0.07813 0.18368 0.06424 0.37028 0.12439 0.56055 0.17578 0.00518 0.0014 0.01044 0.0025 0.015625 0.0039 0.34968 0.093834 0.70721 0.16318 1.0703 0.20898v-2.0215c-1.7463-0.29488-3.2921-1.3497-4.1953-2.9141-1.0726-1.8578-1.0726-4.1422 0-6 0.90317-1.5643 2.4491-2.6192 4.1953-2.9141zm5 1.9355v2h2v-2h-1zm-2 1v1h1v-1zm5 1v1h1v-1zm0 1h-2v2h1v2h-1v2h2v-2h1v-2h-1zm0 6v1h1v-1zm-5 1v1h1v-1zm2 0v2h2v-2zm0 3v1h1v-1z" style="fill:currentColor;opacity:.75"/>
	<path id="b" class="ColorScheme-Background" d="m11 1v22h1v-22zm2 1v2h4v-1h-2v-1zm4 2v2h2v-2zm2 2v2h1v1h1v-2h-1v-1zm2 3v1h1v-1zm0 1h-1v4h1v-1h1v-2h-1zm0 4v1h1v-1zm0 1h-1v1h-1v2h1v-1h1zm-2 3h-2v2h2zm-2 2h-4v2h2v-1h2zm2-4v-1h-1v1zm0-8h-1v1h1zm-9.5879-5.6602c-4.3672 1.1702-7.4121 5.1389-7.4121 9.6602 0 4.5212 3.0449 8.49 7.4121 9.6602l0.51758-1.9336c-3.5021-0.93839-5.9297-4.1009-5.9297-7.7266 0-3.6257 2.4276-6.7882 5.9297-7.7266z" style="fill:currentColor;opacity:.5"/>
</svg>
