<?xml version="1.0" encoding="UTF-8"?>
<!-- Created with Inkscape (http://www.inkscape.org/) -->
<svg width="24" height="24" version="1.1" xmlns="http://www.w3.org/2000/svg" xmlns:cc="http://creativecommons.org/ns#" xmlns:dc="http://purl.org/dc/elements/1.1/" xmlns:rdf="http://www.w3.org/1999/02/22-rdf-syntax-ns#">
	<metadata>
		<rdf:RDF>
			<cc:Work rdf:about="">
				<dc:format>image/svg+xml</dc:format>
				<dc:type rdf:resource="http://purl.org/dc/dcmitype/StillImage"/>
			</cc:Work>
		</rdf:RDF>
	</metadata>
	<defs id="e">
		<style id="current-color-scheme" type="text/css">.ColorScheme-Text{color:#090d11;}</style>
	</defs>
	<path class="ColorScheme-Text" d="m12 3c-4.9587 0-9 4.0413-9 9 0 1.4848 0.36307 2.8866 1.0039 4.123l1.6719-1.1113c-0.43321-0.91164-0.67578-1.9317-0.67578-3.0117 0-3.8778 3.1222-7 7-7 2.0776 0 3.937 0.89775 5.2168 2.3262l1.668-1.1113c-1.6529-1.9635-4.1263-3.2148-6.8848-3.2148zm-3 3.5879v1.8008l2.002 1.3359-2.002 1.3359v1.8027l4.7051-3.1367zm10.996 1.2891-1.6719 1.1113c0.43321 0.91164 0.67578 1.9317 0.67578 3.0117 0 3.8778-3.1222 7-7 7-2.0776 0-3.937-0.89776-5.2168-2.3262l-1.668 1.1113c1.6529 1.9635 4.1263 3.2148 6.8848 3.2148 4.9587 0 9-4.0413 9-9 0-1.4848-0.36307-2.8866-1.0039-4.123zm-4.9961 3.3047-4.7383 3.1582 4.7383 3.1582v-1.8027l-2.0352-1.3555 2.0352-1.3555z" style="fill-opacity:.75;fill:currentColor" fill-opacity=".75" fill="currentColor" color="#000000"/>
</svg>
