<?xml version="1.0" encoding="UTF-8"?>
<!-- Created with Inkscape (http://www.inkscape.org/) -->
<svg width="24" height="24" version="1.1" xmlns="http://www.w3.org/2000/svg" xmlns:cc="http://creativecommons.org/ns#" xmlns:dc="http://purl.org/dc/elements/1.1/" xmlns:rdf="http://www.w3.org/1999/02/22-rdf-syntax-ns#">
	<defs>
		<style id="current-color-scheme" type="text/css">.ColorScheme-Text {
			color:#090d11;
			}
			.ColorScheme-Background{
			color:#ffffff;
			}</style>
	</defs>
	<metadata>
		<rdf:RDF>
			<cc:Work rdf:about="">
				<dc:format>image/svg+xml</dc:format>
				<dc:type rdf:resource="http://purl.org/dc/dcmitype/StillImage"/>
			</cc:Work>
		</rdf:RDF>
	</metadata>
	<path class="ColorScheme-Text" d="m11.117 5.4141c-1.0531 0-1.9857 0.527-2.5605 1.332-0.22526-0.092685-0.47097-0.14453-0.72852-0.14453-1.0777 0-1.9531 0.89629-1.9531 1.9785 0 0.2478 0.047144 0.4853 0.13086 0.70508-0.39137 0.33168-0.70765 0.75023-0.91992 1.2266-1.71 0.041649-3.0859 1.4715-3.0859 3.207 0 1.7614 1.4168 3.209 3.1621 3.209 0.56743 0 1.0998-0.153 1.5605-0.41992 0.34705 0.28421 0.78822 0.45508 1.2676 0.45508 0.65026 0 1.2292-0.31599 1.5996-0.80078 0.67975 0.48937 1.5089 0.77734 2.4043 0.77734 0.92812 0 1.7854-0.30969 2.4785-0.83203 0.59952 0.55352 1.3946 0.89258 2.2676 0.89258 0.73412 0 1.4143-0.23919 1.9688-0.64453 0.34691 0.2851 0.78736 0.45703 1.2676 0.45703 1.1159 0 2.0234-0.92772 2.0234-2.0488 0-1.1092-0.88869-2.0294-1.9883-2.0488-0.34346-1.3433-1.4744-2.3739-2.8633-2.5449-0.25965-1.4814-1.5274-2.6216-3.0605-2.6465-0.44358-1.2264-1.6072-2.1094-2.9707-2.1094zm0 1c1.1956 0 2.1621 0.979 2.1621 2.209 0 0.01955-0.0015 0.039174-2e-3 0.058594-0.4043-0.13321-0.83556-0.20703-1.2832-0.20703-1.0878 0-2.0776 0.4266-2.8203 1.1211-0.1396-0.29264-0.21875-0.62256-0.21875-0.97266 0-1.23 0.96651-2.209 2.1621-2.209zm-3.2891 1.1875c0.097473 0 0.19086 0.013779 0.2793 0.041016-0.086178 0.27055-0.13676 0.5559-0.14844 0.85156-0.37653 0.02327-0.73689 0.10907-1.0703 0.24805-0.0082095-0.052359-0.013672-0.107-0.013672-0.16211 0-0.5509 0.42517-0.97852 0.95312-0.97852zm6.4492 0.93555c0.90927 0.10168 1.6468 0.7719 1.8594 1.6641-0.22672 0.04203-0.44564 0.10588-0.6543 0.19141-0.32342-0.5001-0.74952-0.92669-1.2461-1.25 0.02741-0.16923 0.04297-0.34285 0.04297-0.51953 0-0.02883-0.0012-0.057281-2e-3 -0.085937zm-2.2832 0.9375c1.7519 0 3.1699 1.4365 3.1699 3.2324 0 1.7957-1.4179 3.2324-3.1699 3.2324s-3.1699-1.4367-3.1699-3.2324c0-1.796 1.418-3.2324 3.1699-3.2324zm-3.9199 0.015625c0.092608 0.33096 0.23623 0.64068 0.42188 0.91992-0.42433 0.66293-0.67188 1.4514-0.67188 2.2969 0 0.05503 0.00184 0.10952 0.00391 0.16406-0.55264 0.04498-1.0441 0.31688-1.3828 0.72266-0.40707-0.43451-0.6582-1.023-0.6582-1.6777 0-1.3198 1.0148-2.3772 2.2871-2.4258zm8.666 1.6543c1.3148 0 2.3789 1.0765 2.3789 2.4277s-1.0641 2.4277-2.3789 2.4277c-0.59208 0-1.1332-0.21868-1.5488-0.58203 0.6066-0.73582 0.97266-1.6818 0.97266-2.7109 0-0.49616-0.08627-0.97261-0.24219-1.416 0.25496-0.09463 0.53074-0.14648 0.81836-0.14648zm-11.932 0.39453c-0.013521 0.124-0.021484 0.2495-0.021484 0.37695 0 1.0506 0.47204 1.9964 1.2129 2.627-0.022088 0.12048-0.033203 0.24466-0.033203 0.37109 0 0.27719 0.055851 0.54271 0.15625 0.78516-0.28951 0.14602-0.61532 0.22852-0.96094 0.22852-1.1956 0-2.1621-0.97896-2.1621-2.209 0-1.1062 0.78154-2.0091 1.8086-2.1797zm15.307 2.1875c0.5004 0.067808 0.88477 0.49629 0.88477 1.0371 0 0.58977-0.45726 1.0488-1.0234 1.0488-0.2041 0-0.39358-0.06013-0.55273-0.16406 0.40655-0.53931 0.65967-1.2027 0.69141-1.9219zm-12.131 0.13867c0.17044 0.60536 0.4713 1.1562 0.86914 1.6191-0.18173 0.2905-0.50058 0.47852-0.86328 0.47852-0.56614 0-1.0234-0.4591-1.0234-1.0488 0-0.58769 0.45416-1.0457 1.0176-1.0488z" style="fill-opacity:.75;fill:currentColor"/>
	<path class="ColorScheme-Background" d="m11.117 4.4141c-1.1287 0-2.0867 0.53736-2.8359 1.2773-0.15354-0.02526-0.29313-0.089844-0.45312-0.089844-1.6321 0-2.9531 1.357-2.9531 2.9785 0 0.16629 0.061263 0.31191 0.087891 0.4707-0.1607 0.18375-0.3084 0.37507-0.4375 0.58398-1.985 0.32479-3.5254 2.0116-3.5254 4.084 0 2.2976 1.8638 4.209 4.1621 4.209 0.56536 0 1.067-0.21107 1.5605-0.41992 0.40416 0.20213 0.78929 0.45508 1.2676 0.45508 0.65712 0 1.2227-0.26966 1.7188-0.63086 0.69716 0.35474 1.4554 0.60742 2.2852 0.60742 0.89289 0 1.7046-0.28682 2.4395-0.69336 0.67836 0.43798 1.4448 0.75391 2.3066 0.75391 0.73134 0 1.3584-0.32074 1.9668-0.64453 0.40432 0.20327 0.78967 0.45703 1.2695 0.45703 1.6701 0 3.0234-1.388 3.0234-3.0488 0-1.3801-1.022-2.3903-2.2969-2.7539-0.50617-1.2876-1.5478-2.2234-2.8945-2.5879-0.50798-1.4502-1.653-2.5753-3.2051-2.7988-0.71861-1.2607-1.9444-2.209-3.4863-2.209zm0 1c1.3635 0 2.5271 0.88294 2.9707 2.1094 1.5332 0.024902 2.8009 1.1651 3.0605 2.6465 1.3889 0.17103 2.5198 1.2017 2.8633 2.5449 1.0996 0.019394 1.9883 0.93962 1.9883 2.0488 0 1.1211-0.90756 2.0488-2.0234 2.0488-0.48022 0-0.92066-0.17193-1.2676-0.45703-0.55449 0.40534-1.2346 0.64453-1.9688 0.64453-0.87302 0-1.6681-0.33906-2.2676-0.89258-0.6931 0.52234-1.5504 0.83203-2.4785 0.83203-0.89542 0-1.7245-0.28797-2.4043-0.77734-0.37042 0.48479-0.94935 0.80078-1.5996 0.80078-0.47936 0-0.92053-0.17087-1.2676-0.45508-0.46074 0.26693-0.99312 0.41992-1.5605 0.41992-1.7453 0-3.1621-1.4476-3.1621-3.209 0-1.7355 1.376-3.1654 3.0859-3.207 0.21227-0.47633 0.52856-0.89488 0.91992-1.2266-0.083715-0.21977-0.13086-0.45728-0.13086-0.70508 0-1.0822 0.87547-1.9785 1.9531-1.9785 0.25754 0 0.50326 0.051847 0.72852 0.14453 0.57482-0.80503 1.5074-1.332 2.5605-1.332zm-3.0684 2.4336c-0.051654 0.2083-0.082969 0.42493-0.091797 0.64648h0.00195c0.00876-0.22175 0.038714-0.43823 0.089844-0.64648zm7.2031 2.2266c0.07048 0.08952 0.13797 0.18214 0.20117 0.27734-0.06325-0.0953-0.13069-0.18771-0.20117-0.27734zm-7.4199 2.8652c0.00271 0.05028 0.00533 0.10059 0.00977 0.15039-0.00447-0.05-0.00704-0.09991-0.00977-0.15039zm-1.7852 1.4082c-0.00934 0.03255-0.017637 0.06644-0.025391 0.09961 0.00777-0.03339 0.016013-0.06683 0.025391-0.09961z" style="fill-opacity:.5;fill:currentColor"/>
</svg>
