<?xml version="1.0" encoding="UTF-8"?>
<svg id="d" width="24" height="24" version="1.1" xmlns="http://www.w3.org/2000/svg" xmlns:cc="http://creativecommons.org/ns#" xmlns:dc="http://purl.org/dc/elements/1.1/" xmlns:rdf="http://www.w3.org/1999/02/22-rdf-syntax-ns#">
	<metadata id="a">
		<rdf:RDF>
			<cc:Work rdf:about="">
				<dc:format>image/svg+xml</dc:format>
				<dc:type rdf:resource="http://purl.org/dc/dcmitype/StillImage"/>
				<dc:title/>
			</cc:Work>
		</rdf:RDF>
	</metadata>
	<defs id="c">
		<style id="current-color-scheme" type="text/css">.ColorScheme-Text {color:#090d11;}.ColorScheme-Background{color:#ffffff;}</style>
	</defs>
	<path id="b" class="ColorScheme-Background" d="m9.4062 2.375c-0.30471 6.875e-4 -0.60135 0.05175-0.875 0.1875-0.5857 0.2908-1.0513 0.78835-1.375 1.4062a1.2001 1.2001 0 0 0 -0.125 0.375c-0.4618 2.8337 0.8448 5.3418 2.125 7.1562 0.01 0.012 0.02325 0.01925 0.03125 0.03125 0.078 0.1184 0.1701 0.22655 0.25 0.34375-0.041 0.1264-0.04975 0.28255-0.09375 0.40625v0.03125c-0.1671 0.4125-0.39905 0.7877-0.59375 1.1875-0.1104 0.049-0.23405 0.075-0.34375 0.125-1.5024 0.672-3.1307 1.4648-4.5625 2.7188-0.029 0.026-0.06475 0.0375-0.09375 0.0625l0.03125 0.03125c-0.4851 0.379-1.0972 1.0019-1.2812 2a1.2001 1.2001 0 0 0 -0.03125 0.125c-0.05 0.6164 0.17065 1.268 0.59375 1.7188a1.2001 1.2001 0 0 0 0.0625 0.0625c0.2352 0.2201 0.4972 0.2559 0.75 0.375a1.2001 1.2001 0 0 0 0 0.03125 1.2001 1.2001 0 0 0 0.21875 0.125 1.2001 1.2001 0 0 0 0.3125 0.15625h0.03125a1.2001 1.2001 0 0 0 0.59375 -0.03125c1.2147 0.083 2.3398-0.2993 3.125-0.9375 0.01-0.01 0.02125-0.02325 0.03125-0.03125 1.1233-0.8893 1.9179-1.9786 2.5625-3.0312 0.1665-0.2691 0.2825-0.56805 0.4375-0.84375 0.1878-0.074 0.3739-0.14865 0.5625-0.21875 0.3548-0.1131 0.7553-0.18065 1.125-0.28125 0.5327 0.47 1.002 0.99685 1.5938 1.4062 0.018 0.014 0.0445 0.01825 0.0625 0.03125 1.6834 1.2506 4.1438 1.8163 6.3438 0.6875 1.1214-0.5672 1.782-1.8381 1.6562-3.1875a1.2001 1.2001 0 0 0 -0.03125 -0.25c-0.4493-1.4323-1.5128-2.2586-2.4062-2.6562v-0.03125c-0.021-0.011-0.0415 0.011-0.0625 0-0.013-0.01-0.01925-0.02525-0.03125-0.03125-0.9602-0.4696-1.9256-0.5878-2.7188-0.5625-0.01 3e-4 -0.02325-3e-4 -0.03125 0-0.9444 0.016-1.7974 0.1931-2.5938 0.375-0.01-0.01-0.02625 0.01-0.03125 0v-0.03125a1.2001 1.2001 0 0 0 -0.03125 -0.03125c-0.015-0.016-0.01725-0.0455-0.03125-0.0625a1.2001 1.2001 0 0 0 -0.03125 0c-0.335-0.3676-0.625-0.7879-0.9375-1.1875 0.1396-0.5113 0.36365-0.93035 0.46875-1.4688a1.2001 1.2001 0 0 0 0.03125 -0.0625c0.2897-1.8911-0.5516-3.6526-1.8125-4.8438-0.017-0.018-0.0455-0.0445-0.0625-0.0625-0.4257-0.4337-1.019-0.87015-1.7812-1.1562-0.04-0.015-0.05175-0.0485-0.09375-0.0625l-0.03125 0.0625c-0.2887-0.1075-0.60154-0.15694-0.90625-0.15625zm0.125 1.1562c0.1517-0.00489 0.29695 0.03085 0.4375 0.09375 0.6423 0.2212 1.118 0.5698 1.4688 0.9375 1.0368 0.9523 1.6914 2.3908 1.4688 3.8438-0.14492 0.74166-0.31954 1.4694-0.53125 2.1562 0.4069 0.54064 0.83208 1.0696 1.2812 1.5625 0.2047 0.22467 0.44103 0.41023 0.65625 0.625 0.1174-0.03061 0.2247-0.06488 0.34375-0.09375 0.8277-0.2023 1.7096-0.362 2.6562-0.375 0.6883-0.0246 1.475 0.06845 2.25 0.46875 0.6631 0.2757 1.4352 0.86565 1.7812 1.9688 0.0863 0.926-0.3339 1.6631-1 2-1.7364 0.891-3.7605 0.44255-5.125-0.59375-0.77799-0.53378-1.5142-1.1355-2.1875-1.7812-0.56329 0.14101-1.1288 0.26933-1.6562 0.4375-0.32402 0.11978-0.64847 0.24376-0.96875 0.375-0.21453 0.40179-0.4165 0.83157-0.65625 1.2188-0.613 1.0012-1.3354 1.9854-2.3125 2.75-0.7019 0.5797-1.6898 0.95925-2.7188 0.71875-0.2259-0.0485-0.4976-0.1389-0.75-0.375-0.2003-0.2134-0.30525-0.5185-0.28125-0.8125 0.1239-0.6721 0.5286-1.0874 0.875-1.3438 1.2926-1.156 2.838-1.9202 4.3438-2.5938 0.26725-0.12096 0.54168-0.22937 0.8125-0.34375 0.27592-0.54092 0.52267-1.0928 0.75-1.6562 0.11295-0.32166 0.21204-0.66217 0.3125-1-0.21151-0.29094-0.4289-0.57459-0.625-0.875-1.1992-1.6949-2.3226-3.9496-1.9375-6.3125 0.35122-0.67035 0.8574-0.98533 1.3125-1zm0.375 1.9375c0.027355 1.1663 0.73147 2.3901 1.5 3.625 0.04766-0.29065 0.08916-0.57778 0.125-0.875 0.1396-0.8244-0.47335-1.7674-1.2188-2.4688-0.14606-0.11615-0.27657-0.19374-0.40625-0.28125zm1.6562 7.25c-0.05364 0.12408-0.10103 0.25377-0.15625 0.375-0.10044 0.2488-0.23416 0.47385-0.34375 0.71875 0.3406-0.14259 0.73335-0.24201 1.0938-0.375-0.20844-0.229-0.39608-0.47955-0.59375-0.71875zm5.7188 1.0312c-0.58762-0.03619-1.1853 0.04986-1.7812 0.125 0.27088 0.22355 0.55879 0.42059 0.84375 0.625 1.0362 0.6462 2.3355 1.1728 3.125 0.65625 0.0981-0.0891 0.2685-0.2 0.1875-0.125 0.0837-0.2343-0.41375-0.51185-0.90625-0.90625-0.35-0.2521-0.89005-0.325-1.4688-0.375zm-8.375 2.0938c-1.3362 0.61988-2.6211 1.2772-3.6562 2.2188-0.2771 0.303-0.5681 0.51109-0.5625 0.6875 0.0229 0.0486 0.12585 0.09825 0.28125 0.15625 0.5497 0.1996 1.2498-0.1387 1.8438-0.5625 0.837-0.6399 1.4992-1.5503 2.0938-2.5z" style="fill-opacity:.5;fill:currentColor"/>
	<path id="e" class="ColorScheme-Text" d="m13.7 12.1c-0.6724-0.7379-1.2971-1.5345-1.8733-2.3715h-1e-4c-1.0642-1.6856-2.1497-3.3463-1.8414-4.8999-0.3764 0.3761-0.4104 0.5167-0.4718 0.4108 0.2448 0.038 0.5232 0.2571 0.8404 0.5094 0.7543 0.7098 1.3498 1.6152 1.2095 2.4434-0.1956 1.6223-0.5708 3.1392-1.0538 4.5145-0.4372 1.0836-0.9659 2.13-1.5798 3.1221-0.5945 0.9497-1.2472 1.8491-2.0842 2.489-0.594 0.4238-1.2868 0.764-1.8365 0.5644l-0.1343 0.4816-0.1343 0.4816c1.029 0.2405 2.0154-0.1572 2.7173-0.7369 0.9771-0.7646 1.7093-1.7522 2.3223-2.7534 0.6446-1.041 1.1992-2.138 1.6577-3.2738 0.633-1.3897 1.1635-2.9569 1.4984-4.6707 0.2234-1.458-0.4285-2.8939-1.475-3.8551-0.3501-0.367-0.8279-0.7333-1.4696-0.9543-0.5618-0.2514-1.2589 0.029-1.7273 0.9228-0.3887 2.385 0.7179 4.5882 1.9283 6.299 0.6051 0.927 1.2815 1.8097 2.0287 2.6269 0.8998 0.9841 1.9108 1.8824 3.0308 2.6509 1.3719 1.0419 3.3859 1.5005 5.1295 0.6058 0.667-0.3373 1.0928-1.086 1.0065-2.0123-0.3457-1.1019-1.1348-1.6936-1.7948-1.968-0.7735-0.3996-1.5655-0.4907-2.2514-0.4662-0.9433 0.013-1.8395 0.1725-2.6636 0.374-1.2999 0.3152-2.5088 0.74-3.6055 1.2009-0.72 0.2659-1.4284 0.5601-2.1246 0.8752-1.5057 0.6735-3.0519 1.4326-4.3445 2.5886-0.3464 0.2564-0.7593 0.6864-0.8832 1.3585-0.024 0.294 0.073 0.5714 0.2733 0.7848 0.2524 0.2361 0.5208 0.3548 0.7467 0.4033l0.1343-0.4816 0.1343-0.4816c-0.1554-0.058-0.2739-0.087-0.2968-0.1356v0.011c-0.038-0.1819 0.2666-0.3977 0.5577-0.716 1.1435-1.0401 2.6038-1.743 4.0868-2.4201 0.6778-0.3058 1.3645-0.5909 2.0597-0.8479 1.0942-0.3489 2.2789-0.6565 3.5186-0.8555 0.7864-0.1246 1.5946-0.2117 2.3734-0.1638 0.5764 0.05 1.1213 0.1212 1.4696 0.3721 0.4909 0.3932 0.9895 0.6696 0.9066 0.9015 0.085-0.079-0.086 0.023-0.1811 0.1091-0.7894 0.5166-2.0929 0.014-3.1343-0.6352-0.974-0.6987-1.8628-1.5132-2.6724-2.4018z" style="fill-opacity:.75;fill:currentColor"/>
</svg>
