<?xml version="1.0" encoding="UTF-8" standalone="no"?>
<svg
   xmlns:dc="http://purl.org/dc/elements/1.1/"
   xmlns:cc="http://creativecommons.org/ns#"
   xmlns:rdf="http://www.w3.org/1999/02/22-rdf-syntax-ns#"
   xmlns:svg="http://www.w3.org/2000/svg"
   xmlns="http://www.w3.org/2000/svg"
   id="svg22"
   version="1.1"
   height="24"
   width="24">
  <defs
     id="defs4">
    <style
       type="text/css"
       id="current-color-scheme">.ColorScheme-Text {color:#090d11;}.ColorScheme-Background{color:#ffffff;}</style>
  </defs>
  <metadata
     id="metadata14">
    <rdf:RDF>
      <cc:Work
         rdf:about="">
        <dc:format>image/svg+xml</dc:format>
        <dc:type
           rdf:resource="http://purl.org/dc/dcmitype/StillImage" />
        <dc:title></dc:title>
      </cc:Work>
    </rdf:RDF>
  </metadata>
  <path
     class="ColorScheme-Text"
     style="fill:currentColor;fill-opacity:0.75"
     id="path16"
     d="m12.467 3.6074c-0.10732 0.017967-0.19178 0.066629-0.23047 0.14844 0 0-3.1427 5.3753-4.3359 8.2363l2.8242 1.2246c1.6477-2.8258 2.6582-9.1074 2.6582-9.1074-0.072179-0.34453-0.59406-0.55585-0.91602-0.50195zm2.5332 1.3926c-0.554 0-1 0.446-1 1v1c0 0.554 0.446 1 1 1h2c0.554 0 1-0.446 1-1v-1c0-0.554-0.446-1-1-1zm-1.8652 3.9023-0.63281 9.3164h6.9961l-0.63281-9.3164zm-5.9043 3.8555 0.3125 0.36719-0.21094 0.13867-0.43555 2.5703 1.5195 0.61719 1.6875-2.0254-0.05274-0.24219 0.49805-0.02539c-0.59537-0.52074-2.4573-1.4315-3.3184-1.4004zm-0.4375 3.6309c-0.79698-0.031318-1.6243 0.37494-1.916 1.2617-0.56195 1.7085-1.3164 3.2949-1.3164 3.2949 2.9803-0.78655 5.3788-1.0519 4.9629-3.1934-0.16759-0.86287-0.93349-1.332-1.7305-1.3633zm5.207 2.6113v1h8v-1z" />
  <path
     class="ColorScheme-Background"
     style="fill:currentColor;fill-opacity:0.5"
     id="path20"
     d="m12.625 2.5938c-0.10276-6.398e-4 -0.2098 0.0081883-0.32422 0.027344-0.31235 0.052292-0.75261 0.25554-0.9668 0.70508 0 0-0.001953 0.0019531-0.001953 0.0019531-0.05648 0.096144-3.105 5.2809-4.3555 8.2793a1.0001 1.0001 0 0 0-0.058594 0.20117 1.0001 1.0001 0 0 0-0.58789 1.3809l-0.41406 2.4414c-0.85695 0.24014-1.6661 0.72737-1.9883 1.707-0.53635 1.6307-1.2695 3.1777-1.2695 3.1777a1.0001 1.0001 0 0 0 1.1582 1.3965c1.453-0.38346 2.8055-0.62497 3.9238-1.1504 0.55915-0.26271 1.0925-0.61879 1.4492-1.1855 0.35672-0.56676 0.45543-1.2999 0.31641-2.0156-0.040634-0.20921-0.22509-0.30552-0.30859-0.48633l1.6309-1.957a1.0001 1.0001 0 0 0 0.66992-1.2676 1.0001 1.0001 0 0 0 0.089844-0.12891c0.10038-0.17216 0.16399-0.41294 0.25781-0.59961l-0.33984 5.0117a1.0001 1.0001 0 0 0-0.50586 0.86719v1a1.0001 1.0001 0 0 0 1 1h8a1.0001 1.0001 0 0 0 1-1v-1a1.0001 1.0001 0 0 0-0.50586-0.86719l-0.63086-9.2988a1.0001 1.0001 0 0 0-0.99805-0.93164h-0.24414c0.1627-0.28824 0.37891-0.55294 0.37891-0.90234v-1c0-1.0907-0.9093-2-2-2h-2c-0.24347 0-0.41161 0.18115-0.62891 0.26367a1.0001 1.0001 0 0 0-0.009766-0.35938c-0.12682-0.60552-0.54459-0.91627-0.89844-1.0918-0.26538-0.13164-0.52962-0.21683-0.83789-0.21875zm-0.1582 1.0137c0.32195-0.053901 0.84384 0.15742 0.91602 0.50195 2e-6 0-1.0105 6.2816-2.6582 9.1074l-2.8242-1.2246c1.1932-2.861 4.3359-8.2363 4.3359-8.2363 0.038693-0.081808 0.12315-0.13047 0.23047-0.14844zm2.5332 1.3926h2c0.554 0 1 0.446 1 1v1c0 0.554-0.446 1-1 1h-2c-0.554 0-1-0.446-1-1v-1c0-0.554 0.446-1 1-1zm-1.8652 3.9023h5.7305l0.63281 9.3164h-6.9961l0.63281-9.3164zm-5.9043 3.8555c0.86108-0.031102 2.723 0.87965 3.3184 1.4004l-0.49805 0.025391 0.052735 0.24219-1.6875 2.0254-1.5195-0.61719 0.43555-2.5703 0.21094-0.13867-0.3125-0.36719zm-0.4375 3.6309c0.79698 0.031318 1.5629 0.50041 1.7305 1.3633 0.41594 2.1415-1.9826 2.4068-4.9629 3.1934 0 0 0.75446-1.5864 1.3164-3.2949 0.29168-0.88678 1.119-1.293 1.916-1.2617zm5.207 2.6113h8v1h-8v-1z" />
</svg>
