<?xml version="1.0" encoding="UTF-8" standalone="no"?>
<!-- Created with Inkscape (http://www.inkscape.org/) -->

<svg
   xmlns:dc="http://purl.org/dc/elements/1.1/"
   xmlns:cc="http://creativecommons.org/ns#"
   xmlns:rdf="http://www.w3.org/1999/02/22-rdf-syntax-ns#"
   xmlns:svg="http://www.w3.org/2000/svg"
   xmlns="http://www.w3.org/2000/svg"
   xmlns:sodipodi="http://sodipodi.sourceforge.net/DTD/sodipodi-0.dtd"
   xmlns:inkscape="http://www.inkscape.org/namespaces/inkscape"
   version="1.1"
   width="24"
   height="24"
   id="svg2"
   inkscape:version="0.92.2 5c3e80d, 2017-08-06"
   sodipodi:docname="playonlinux.svg">
  <sodipodi:namedview
     pagecolor="#ffffff"
     bordercolor="#666666"
     borderopacity="1"
     objecttolerance="10"
     gridtolerance="10"
     guidetolerance="10"
     inkscape:pageopacity="0"
     inkscape:pageshadow="2"
     inkscape:window-width="1920"
     inkscape:window-height="1033"
     id="namedview6"
     showgrid="true"
     inkscape:zoom="14.75"
     inkscape:cx="9.1276225"
     inkscape:cy="2.0999486"
     inkscape:window-x="-10"
     inkscape:window-y="25"
     inkscape:window-maximized="1"
     inkscape:current-layer="svg2"
     inkscape:snap-global="true">
    <inkscape:grid
       type="xygrid"
       id="grid2982"
       empspacing="5"
       visible="true"
       enabled="true"
       snapvisiblegridlinesonly="true" />
  </sodipodi:namedview>
  <defs
     id="defs4" />
  <metadata
     id="metadata7">
    <rdf:RDF>
      <cc:Work
         rdf:about="">
        <dc:format>image/svg+xml</dc:format>
        <dc:type
           rdf:resource="http://purl.org/dc/dcmitype/StillImage" />
        <dc:title />
      </cc:Work>
    </rdf:RDF>
  </metadata>
  <path
     inkscape:connector-curvature="0"
     style="color:#000000;display:inline;overflow:visible;visibility:visible;opacity:1;vector-effect:none;fill:#27303a;fill-opacity:0.44285715;fill-rule:evenodd;stroke:none;stroke-width:1;stroke-linecap:butt;stroke-linejoin:miter;stroke-miterlimit:4;stroke-dasharray:none;stroke-dashoffset:0;stroke-opacity:1;marker:none;enable-background:accumulate"
     d="M 5.8226288,5.8226294 C 4.3482521,7.2970061 3.1749852,9.4483093 4.7898497,10.735569 6.4047141,12.022829 9.3742828,10.999592 11.999999,12 10.999591,9.3742833 12.022829,6.4047146 10.735569,4.7898502 9.4483088,3.1749858 7.2970056,4.3482526 5.8226288,5.8226294 Z"
     id="path952" />
  <path
     inkscape:connector-curvature="0"
     style="color:#000000;display:inline;overflow:visible;visibility:visible;opacity:1;vector-effect:none;fill:#27303a;fill-opacity:0.65857143;fill-rule:evenodd;stroke:none;stroke-width:1;stroke-linecap:butt;stroke-linejoin:miter;stroke-miterlimit:4;stroke-dasharray:none;stroke-dashoffset:0;stroke-opacity:1;marker:none;enable-background:accumulate"
     d="M 13.515385,4.5195903 C 13.428547,4.5993865 13.344882,4.6889197 13.26443,4.7898502 11.97717,6.4047146 13.000407,9.3742833 11.999999,12 c 2.625717,-1.000408 5.595285,0.02283 7.21015,-1.264431 C 20.825013,9.4483093 19.651746,7.2970061 18.17737,5.8226294 16.795141,4.440401 14.817986,3.3226728 13.515385,4.5195903 Z"
     id="path954" />
  <path
     inkscape:connector-curvature="0"
     style="color:#000000;display:inline;overflow:visible;visibility:visible;opacity:1;vector-effect:none;fill:#27303a;fill-opacity:0.55428569;fill-rule:evenodd;stroke:none;stroke-width:1;stroke-linecap:butt;stroke-linejoin:miter;stroke-miterlimit:4;stroke-dasharray:none;stroke-dashoffset:0;stroke-opacity:1;marker:none;enable-background:accumulate"
     d="m 11.999999,12 c 1.000408,2.625716 -0.02283,5.595285 1.264431,7.210149 1.28726,1.614864 3.438563,0.441598 4.91294,-1.032779 1.474376,-1.474377 2.647643,-3.62568 1.032779,-4.91294 C 17.595284,11.97717 14.625716,13.000407 11.999999,12 Z"
     id="path956" />
  <path
     style="color:#000000;font-style:normal;font-variant:normal;font-weight:normal;font-stretch:normal;font-size:medium;line-height:normal;font-family:sans-serif;font-variant-ligatures:normal;font-variant-position:normal;font-variant-caps:normal;font-variant-numeric:normal;font-variant-alternates:normal;font-feature-settings:normal;text-indent:0;text-align:start;text-decoration:none;text-decoration-line:none;text-decoration-style:solid;text-decoration-color:#000000;letter-spacing:normal;word-spacing:normal;text-transform:none;writing-mode:lr-tb;direction:ltr;text-orientation:mixed;dominant-baseline:auto;baseline-shift:baseline;text-anchor:start;white-space:normal;shape-padding:0;clip-rule:nonzero;display:inline;overflow:visible;visibility:visible;opacity:1;isolation:auto;mix-blend-mode:normal;color-interpolation:sRGB;color-interpolation-filters:linearRGB;solid-color:#000000;solid-opacity:1;vector-effect:none;fill:#f1f3f5;fill-opacity:0.90288714;fill-rule:evenodd;stroke:none;stroke-width:2;stroke-linecap:butt;stroke-linejoin:miter;stroke-miterlimit:4;stroke-dasharray:none;stroke-dashoffset:0;stroke-opacity:1;marker:none;color-rendering:auto;image-rendering:auto;shape-rendering:auto;text-rendering:auto;enable-background:accumulate;font-variant-east_asian:normal"
     d="M 8.9296875 3.0195312 C 7.4142397 3.1310754 6.1344023 4.0960665 5.1152344 5.1152344 C 4.2998129 5.9306558 3.5468841 6.9187931 3.1933594 8.0507812 C 2.8398347 9.1827695 3.0538092 10.631003 4.1660156 11.517578 C 4.5068473 11.789266 4.8975077 11.863425 5.2734375 12 C 4.8975077 12.136575 4.5068473 12.210734 4.1660156 12.482422 C 4.0212477 12.597814 3.8939985 12.71927 3.7832031 12.839844 C 2.9092779 13.790933 2.8837442 15.117874 3.2636719 16.160156 C 3.6435996 17.202439 4.3508074 18.120339 5.1152344 18.884766 C 5.9306558 19.700187 6.9187932 20.453116 8.0507812 20.806641 C 9.1827695 21.160165 10.631003 20.94619 11.517578 19.833984 C 11.789266 19.493153 11.863425 19.102492 12 18.726562 C 12.136575 19.102493 12.210734 19.493153 12.482422 19.833984 C 13.368997 20.94619 14.817231 21.160165 15.949219 20.806641 C 17.081207 20.453116 18.069344 19.700187 18.884766 18.884766 C 19.700186 18.069344 20.453116 17.081207 20.806641 15.949219 C 21.160166 14.817231 20.94619 13.368997 19.833984 12.482422 C 19.493153 12.210734 19.102493 12.136575 18.726562 12 C 19.102493 11.863425 19.493153 11.789266 19.833984 11.517578 C 20.94619 10.631003 21.160165 9.1827694 20.806641 8.0507812 C 20.453116 6.9187933 19.700187 5.9306558 18.884766 5.1152344 C 18.120338 4.3508075 17.202439 3.6435996 16.160156 3.2636719 C 15.117874 2.8837441 13.790933 2.9092782 12.839844 3.7832031 C 12.71927 3.8939993 12.597809 4.0212579 12.482422 4.1660156 C 12.210734 4.5068473 12.136575 4.8975077 12 5.2734375 C 11.863425 4.8975077 11.789266 4.5068473 11.517578 4.1660156 C 10.852265 3.3313816 9.8387821 2.9526177 8.9296875 3.0195312 z M 9.0039062 4.0175781 C 9.648379 3.9701419 10.253606 4.1834884 10.736328 4.7890625 C 12.023588 6.4039269 10.999592 9.3742833 12 12 C 13.000408 9.3742833 11.976412 6.4039269 13.263672 4.7890625 C 13.344124 4.688132 13.428787 4.5993274 13.515625 4.5195312 C 14.818226 3.3226138 16.795505 4.4400372 18.177734 5.8222656 C 19.65211 7.2966423 20.8258 9.4490685 19.210938 10.736328 C 17.596072 12.02359 14.625717 10.999592 12 12 C 14.625717 13.000407 17.596071 11.976412 19.210938 13.263672 C 20.825801 14.550932 19.65211 16.703357 18.177734 18.177734 C 16.703357 19.652111 14.550932 20.825802 13.263672 19.210938 C 11.97641 17.596073 13.000408 14.625716 12 12 C 10.999592 14.625716 12.023588 17.596072 10.736328 19.210938 C 9.449068 20.825801 7.2966424 19.652111 5.8222656 18.177734 C 4.4400372 16.795506 3.3226141 14.818225 4.5195312 13.515625 C 4.5993275 13.428786 4.688132 13.344122 4.7890625 13.263672 C 6.4039269 11.97641 9.3742838 13.000407 12 12 C 9.3742838 10.999592 6.4039269 12.023588 4.7890625 10.736328 C 3.174198 9.4490685 4.3478889 7.2966423 5.8222656 5.8222656 C 6.7437511 4.9007801 7.9297853 4.0966385 9.0039062 4.0175781 z "
     id="path832" />
  <path
     inkscape:connector-curvature="0"
     style="color:#000000;display:inline;overflow:visible;visibility:visible;opacity:1;vector-effect:none;fill:#27303a;fill-opacity:0.75328082;fill-rule:evenodd;stroke:none;stroke-width:1;stroke-linecap:butt;stroke-linejoin:miter;stroke-miterlimit:4;stroke-dasharray:none;stroke-dashoffset:0;stroke-opacity:1;marker:none;enable-background:accumulate"
     d="m 4.5195897,13.515386 c -1.1969172,1.3026 -0.079189,3.279756 1.3030391,4.661984 1.4743768,1.474377 3.62568,2.647643 4.9129402,1.032779 1.28726,-1.614864 0.264022,-4.584433 1.26443,-7.210149 -2.6257162,1.000407 -5.5952849,-0.02283 -7.2101493,1.26443 -0.1009305,0.08045 -0.1904638,0.164117 -0.27026,0.250956 z"
     id="path958" />
</svg>
