<?xml version="1.0" encoding="UTF-8" standalone="no"?>
<svg
   xmlns:dc="http://purl.org/dc/elements/1.1/"
   xmlns:cc="http://creativecommons.org/ns#"
   xmlns:rdf="http://www.w3.org/1999/02/22-rdf-syntax-ns#"
   xmlns:svg="http://www.w3.org/2000/svg"
   xmlns="http://www.w3.org/2000/svg"
   id="a"
   width="24"
   height="24"
   version="1.1">
  <metadata
     id="c">
    <rdf:RDF>
      <cc:Work
         rdf:about="">
        <dc:format>image/svg+xml</dc:format>
        <dc:type
           rdf:resource="http://purl.org/dc/dcmitype/StillImage" />
        <dc:title></dc:title>
      </cc:Work>
    </rdf:RDF>
  </metadata>
  <defs
     id="e">
    <style
       id="current-color-scheme"
       type="text/css">.ColorScheme-Text {color:#090d11;}.ColorScheme-Background{color:#ffffff;}</style>
  </defs>
  <path
     id="b"
     d="M 10,1 C 8.3598335,1 7.0097656,2.3500679 7.0097656,3.9902344 V 10.378906 C 7.0080647,10.395756 7,10.410422 7,10.427734 v 0.652344 c -1.6833238,-0.347529 -3.4705924,0.302101 -4.34375,1.814453 -6.571e-4,0.002 -0.00131,0.0039 -0.00195,0.0059 l -0.1816407,0.314453 c -0.4756982,0.826911 -0.5597417,1.826915 -0.1660156,2.685547 0.3889829,0.84829 1.1701812,1.432638 2.0703125,1.673828 l 2.6328125,0.705078 v -0.269531 c 0,1.359976 1.0173499,2.332648 2.2695313,2.689453 C 9.6182825,21.983496 10.615458,23.027344 12,23.027344 h 5 c 1.281614,0 2.221834,-0.8992 2.625,-2.050782 0.181875,-0.04465 0.318834,-0.182502 0.361328,-0.365234 C 21.117476,20.201308 22,19.274927 22,18.009766 V 11.990234 C 22,10.350068 20.649932,9 19.009766,9 18.700932,9 18.46784,9.1964303 18.185547,9.2851562 17.688358,8.5863354 17.008546,8 16.03125,8 15.674728,8 15.477636,8.2175445 15.1875,8.3339844 14.687168,7.6047705 13.995576,7 13,7 V 4.5 4 h 0.5 4 C 17.777,4 18,3.777 18,3.5 18,3.223 17.777,3 17.5,3 H 14.605469 13.5 12.806641 11.714844 l 0.002,0.00195 c 0.0779,0.1343206 0.1386,0.2782014 0.183594,0.4296875 0.0065,0.020992 0.01373,0.041229 0.01953,0.0625 0.04159,0.1594763 0.07031,0.3241426 0.07031,0.4960938 V 4 H 12 v 1 h -0.0098 v 2.5175781 c -0.0065,0.032607 -0.01953,0.063031 -0.01953,0.097656 v 1.8046875 2.1503901 c 0,0.04635 0.01389,0.08833 0.02539,0.13086 6.42e-4,0.0024 0.0032,0.0035 0.0039,0.0059 V 12 h 0.226562 c 0.07007,0.04155 0.147982,0.07032 0.236329,0.07031 0.0879,0 0.165081,-0.02968 0.236328,-0.07031 H 13 V 9 8 c 0.681451,0 1.216573,0.3804917 1.541016,0.9238281 0.108147,0.1811122 0.193065,0.380748 0.251953,0.5898438 0.04212,-0.0351 0.08871,-0.064695 0.132812,-0.097656 v 1.0878904 1.314453 0.173829 c 0,0.276994 0.219338,0.499996 0.492188,0.5 0.27285,0 0.492187,-0.223003 0.492187,-0.5 v -1.962891 -0.0059 -1.0097661 C 15.95103,9.0103539 15.98932,9 16.03125,9 c 0.655264,0 1.165769,0.3579485 1.492188,0.8691406 0.108805,0.1704004 0.19727,0.3577994 0.263671,0.5546874 0.02954,-0.02325 0.06289,-0.04092 0.09375,-0.0625 v 1.056641 0.589843 0.40625 c 0,0.277004 0.219338,0.500003 0.492188,0.5 0.27285,0 0.492187,-0.222999 0.492187,-0.5 V 11.023438 10.011719 C 18.913596,10.008199 18.960536,10 19.009766,10 20.103627,10 21,10.896373 21,11.990234 v 6.019532 C 21,19.103627 20.103491,19.99996 19.009766,20 c -0.0036,0 -0.0062,-0.0019 -0.0098,-0.002 V 20 h -1 c 0,0 -0.5,0.223 -0.5,0.5 0,0.212544 0.13212,0.39028 0.318359,0.462891 l 0.0059,0.002 C 17.879145,20.985457 17.93767,21 18,21 h 0.734375 C 18.390261,21.608497 17.7448,22.027344 17,22.027344 h -5 c -1.099358,0 -2,-0.900644 -2,-2 V 20 C 9.5898022,20 9.2064711,19.873468 8.8886719,19.658203 8.7823198,19.586166 8.6842454,19.504697 8.59375,19.414062 8.232924,19.053225 8.0097656,18.556602 8.0097656,18.009766 V 17.511719 L 4.6367188,16.607422 C 3.980703,16.431643 3.4634329,16.026496 3.2148438,15.484375 c -0.2483171,-0.541526 -0.2055889,-1.197613 0.125,-1.771484 l 0.1816406,-0.316407 v -0.002 c 0.2486616,-0.430694 0.6110352,-0.779141 1.0371094,-1.027343 0.2130369,-0.124103 0.4416697,-0.222845 0.6796874,-0.294922 0.2380178,-0.07208 0.4862445,-0.117028 0.7363282,-0.132813 0.3334448,-0.02103 0.6718992,0.0097 1,0.09766 L 7,12.042969 v 0.96875 c 0,0.0249 0.010192,0.04645 0.013672,0.07031 v 0.002 c 0.036062,0.241075 0.2348973,0.427735 0.4863281,0.427735 0.1637877,0 0.3014874,-0.08213 0.3925781,-0.203125 0.030744,-0.0406 0.057323,-0.08475 0.076172,-0.132813 C 7.988315,13.124745 8,13.06988 8,13.011719 V 12.3125 l 0.00977,0.002 V 3.9902344 c -5e-7,-0.1367327 0.014369,-0.2711946 0.041016,-0.4003906 C 8.2373079,2.6854707 9.0428715,2 10,2 H 12.208984 13.5 14.605469 17.5 C 17.777,2 18,1.777 18,1.5 18,1.223 17.777,1 17.5,1 h -7.453125 c -0.0056,0 -0.01008,0.00373 -0.01563,0.00391 C 10.020564,1.0037914 10.010711,1 10,1 Z"
     style="fill:currentColor;fill-opacity:0.5" class="ColorScheme-Background"  />
  <path
     id="d"
     d="M 10 2 C 8.9061389 2 8.0097656 2.8963733 8.0097656 3.9902344 L 8.0097656 12.314453 L 8 12.3125 L 8 13.011719 C 8 13.128042 7.954808 13.231644 7.8886719 13.316406 L 8.3808594 13.447266 C 8.6980211 13.531846 9.0092796 13.293091 9.0097656 12.964844 L 9.0097656 3.9902344 C 9.0097656 3.4335075 9.4432731 3 10 3 C 10.556727 3 10.990233 3.4335066 10.990234 3.9902344 L 10.990234 11.59375 C 10.989817 11.94321 11.338846 12.185311 11.666016 12.0625 C 11.619306 12.08007 11.620405 12.078347 11.671875 12.060547 C 11.834586 12.004527 11.957057 11.868771 11.996094 11.701172 C 11.984594 11.658642 11.970703 11.616662 11.970703 11.570312 L 11.970703 7.6152344 C 11.970703 7.5806094 11.983704 7.5501851 11.990234 7.5175781 L 11.990234 5 L 12 5 L 12 4 L 11.990234 4 L 11.990234 3.9902344 C 11.990231 3.6288084 11.885349 3.2930954 11.714844 3 L 13.5 3 L 14.605469 3 L 17.5 3 C 17.777 3 18 2.777 18 2.5 C 18 2.223 17.777 2 17.5 2 L 14.605469 2 L 13.5 2 L 10 2 z M 13.5 4 C 13.223 4 13 4.223 13 4.5 C 13 4.777 13.223 5 13.5 5 L 14 5 L 15.5 5 L 17.5 5 C 17.777 5 18 4.777 18 4.5 C 18 4.223 17.777 4 17.5 4 L 15.5 4 L 14 4 L 13.5 4 z M 13 8 L 13 9 C 13.556727 9 13.990233 9.4335065 13.990234 9.9902344 L 13.990234 11.5 C 13.990262 11.776131 14.214103 11.999972 14.490234 12 L 14.541016 12 C 14.689918 11.99976 14.830967 11.93317 14.925781 11.818359 L 14.925781 9.4160156 C 14.881681 9.4489766 14.835091 9.4785719 14.792969 9.5136719 C 14.55742 8.6772892 13.908601 8 13 8 z M 16.03125 9 C 15.98932 9 15.95103 9.0103539 15.910156 9.0136719 L 15.910156 10.023438 C 15.951859 10.018325 15.987907 10 16.03125 10 C 16.587977 10 17.021481 10.433506 17.021484 10.990234 L 17.021484 11.597656 C 17.021524 11.806729 17.15163 11.993707 17.347656 12.066406 C 17.438696 12.099986 17.451282 12.102699 17.382812 12.074219 C 17.548704 12.143149 17.738824 12.117802 17.880859 12.007812 L 17.880859 10.361328 C 17.849999 10.382908 17.816649 10.400578 17.787109 10.423828 C 17.521498 9.636292 16.904935 9 16.03125 9 z M 19.009766 10 C 18.960536 10 18.913596 10.008199 18.865234 10.011719 L 18.865234 11.023438 C 18.913861 11.016207 18.958657 11 19.009766 11 C 19.566493 11 20 11.433507 20 11.990234 L 20 18.009766 C 20 18.566493 19.566493 19 19.009766 19 C 18.898548 19 18.789521 18.97648 18.671875 18.933594 C 18.345152 18.814047 17.999234 19.056391 18 19.404297 L 18 20 L 19 20 L 19 19.998047 C 19.0036 19.998068 19.006166 20 19.009766 20 C 20.103525 19.99996 21 19.103627 21 18.009766 L 21 11.990234 C 21 10.896373 20.103627 10 19.009766 10 z M 5.9746094 11.939453 C 4.9742748 12.002593 4.0188076 12.533143 3.5214844 13.394531 L 3.5214844 13.396484 L 3.3398438 13.712891 C 3.0092549 14.286762 2.9665267 14.942849 3.2148438 15.484375 C 3.463433 16.026496 3.9807031 16.431643 4.6367188 16.607422 L 8.0097656 17.511719 L 8.0097656 18.009766 C 8.0097656 19.103486 8.9061391 20 10 20 L 10 20.027344 C 10 21.1267 10.900642 22.027344 12 22.027344 L 17 22.027344 C 17.7448 22.027344 18.390261 21.608497 18.734375 21 L 17.5 21 L 17 21.027344 L 12 21.027344 C 11.437316 21.027344 11 20.590027 11 20.027344 L 11 19.408203 C 10.999786 19.062653 10.657515 18.821463 10.332031 18.9375 C 10.216635 18.978646 10.109181 19 10 19 C 9.4432729 19 9.0097656 18.566493 9.0097656 18.009766 L 9.0097656 17.128906 C 9.0094426 16.902667 8.8572591 16.704828 8.6386719 16.646484 L 4.8945312 15.642578 C 4.4747892 15.530109 4.2331261 15.308419 4.1230469 15.068359 C 4.0129677 14.8283 4.0125583 14.547767 4.2070312 14.210938 L 4.2070312 14.208984 L 4.3886719 13.894531 C 4.7776868 13.220738 5.8776851 12.777114 6.7167969 13.001953 L 7.0136719 13.082031 C 7.0101898 13.058212 7 13.036622 7 13.011719 L 7 12.042969 L 6.9746094 12.037109 C 6.6465086 11.949199 6.3080542 11.918415 5.9746094 11.939453 z "
     style="fill:currentColor;fill-opacity:0.75" class="ColorScheme-Text"  />
</svg>
