<?xml version="1.0" encoding="UTF-8"?>
<!-- Created with Inkscape (http://www.inkscape.org/) -->
<svg width="24" height="24" version="1.1" xmlns="http://www.w3.org/2000/svg" xmlns:cc="http://creativecommons.org/ns#" xmlns:dc="http://purl.org/dc/elements/1.1/" xmlns:rdf="http://www.w3.org/1999/02/22-rdf-syntax-ns#" xmlns:xlink="http://www.w3.org/1999/xlink">
	<defs>
		<radialGradient id="b" cx="-3384.1" cy="2107.7" r="6.9883" gradientTransform="matrix(0,1.3195,-1.3268,-1.6104e-5,2808.2,4478.7)" gradientUnits="userSpaceOnUse">
			<stop stop-color="#213851" stop-opacity=".9059" offset="0"/>
			<stop stop-color="#27303a" stop-opacity="0" offset="1"/>
		</radialGradient>
		<radialGradient id="a" cx="13.06" cy="17.68" r="10" gradientTransform="matrix(0,1.8,-1.5,0,38.577,-15.734)" gradientUnits="userSpaceOnUse">
			<stop stop-color="#ffffff" stop-opacity=".74858" offset="0"/>
			<stop stop-color="#ffffff" stop-opacity=".60511" offset="1"/>
		</radialGradient>
		<radialGradient id="d" cx="-9.5088" cy="9.1506" r=".81785" gradientTransform="matrix(-1.4342 0 0 1.4342 .52613 -.7766)" gradientUnits="userSpaceOnUse" xlink:href="#c"/>
		<radialGradient id="c" cx="13.06" cy="17.68" r="10" gradientTransform="matrix(0,1.8,-1.5,0,34.577,-19.734)" gradientUnits="userSpaceOnUse">
			<stop stop-color="#ffffff" stop-opacity=".74858" offset="0"/>
			<stop stop-color="#ffffff" stop-opacity=".60511" offset="1"/>
		</radialGradient>
		<radialGradient id="e" cx="5.9144" cy="9.2172" r=".81785" gradientTransform="matrix(1.4342 0 0 1.4342 .52613 -.7766)" gradientUnits="userSpaceOnUse" xlink:href="#c"/>
	</defs>
	<metadata>
		<rdf:RDF>
			<cc:Work rdf:about="">
				<dc:format>image/svg+xml</dc:format>
				<dc:type rdf:resource="http://purl.org/dc/dcmitype/StillImage"/>
				<dc:title/>
			</cc:Work>
		</rdf:RDF>
	</metadata>
	<path d="m5.9336 5c-0.71473 0-0.93359 0.59454-0.93359 1.9355-0.54164 0.31013-0.83332 0.75702-0.94531 1.4062-0.037328 0.21641-0.054688 0.45476-0.054688 0.71875v7.7031c0 2.7962 2.0295 2.6921 3 1.2363l2.3125-3.9668c0.56205-0.84307 0.76419-1.0332 1.4238-1.0332h2.5274c0.65964 0 0.86178 0.19013 1.4238 1.0332l2.3125 3.9668c0.9705 1.4557 3 1.5598 3-1.2363v-7.7031c0-0.26399-0.01736-0.50234-0.05469-0.71875-0.11198-0.64923-0.40367-1.0961-0.94531-1.4062 0-1.341-0.21886-1.9355-0.93359-1.9355h-3.1426c-0.31154 0-0.92383 0.33629-0.92383 1h-4c0-0.66371-0.61229-1-0.92383-1zm1.5664 2.6582c0.277 0 0.35757 0.033906 0.5 0.27148v0.83398l-0.5 0.5-0.5-0.5v-0.83398c0-0.277 0.223-0.27148 0.5-0.27148zm9 0.3418c0.27614 0 0.5 0.22386 0.5 0.5s-0.22386 0.5-0.5 0.5-0.5-0.22386-0.5-0.5 0.22386-0.5 0.5-0.5zm-10.57 1h0.83398l0.5 0.5-0.5 0.5h-0.83398c-0.277 0-0.27148-0.223-0.27148-0.5s-0.00552-0.5 0.27148-0.5zm2.3066 0h0.83398c0.277 0 0.27148 0.223 0.27148 0.5s0.00552 0.5-0.27148 0.5h-0.83398l-0.5-0.5zm7.2637 0c0.27614 0 0.5 0.22386 0.5 0.5s-0.22386 0.5-0.5 0.5-0.5-0.22386-0.5-0.5 0.22386-0.5 0.5-0.5zm2.0391 0c0.27614 0 0.5 0.22386 0.5 0.5s-0.22386 0.5-0.5 0.5-0.5-0.22386-0.5-0.5 0.22386-0.5 0.5-0.5zm-10.039 0.73633 0.5 0.5v0.83398c0 0.277-0.223 0.27148-0.5 0.27148s-0.64242-0.03392-0.5-0.27148v-0.83398zm9 0.26367c0.27614 0 0.5 0.22386 0.5 0.5s-0.22386 0.5-0.5 0.5-0.5-0.22386-0.5-0.5 0.22386-0.5 0.5-0.5z" fill="#090d11" fill-opacity=".76621" style="paint-order:normal"/>
	<path d="m5.9336 5c-0.71473 0-0.93359 0.59454-0.93359 1.9355-0.54164 0.31013-0.83332 0.75702-0.94531 1.4062-0.037328 0.21641-0.054688 0.45476-0.054688 0.71875v7.7031c0 2.7962 2.0295 2.6921 3 1.2363l2.3125-3.9668c0.56205-0.84307 0.76419-1.0332 1.4238-1.0332h2.5274c0.65964 0 0.86178 0.19013 1.4238 1.0332l2.3125 3.9668c0.9705 1.4557 3 1.5598 3-1.2363v-7.7031c0-0.26399-0.01736-0.50234-0.05469-0.71875-0.11198-0.64923-0.40367-1.0961-0.94531-1.4062 0-1.341-0.21886-1.9355-0.93359-1.9355h-3.1426c-0.31154 0-0.92383 0.33629-0.92383 1h-4c0-0.66371-0.61772-1.0579-0.92383-1h-3.1426zm1.5664 2.6582c0.277 0 0.35757 0.033906 0.5 0.27148v0.83398l-0.5 0.5-0.5-0.5v-0.83398c0-0.277 0.223-0.27148 0.5-0.27148zm9 0.3418c0.27614 0 0.5 0.22386 0.5 0.5s-0.22386 0.5-0.5 0.5-0.5-0.22386-0.5-0.5 0.22386-0.5 0.5-0.5zm-10.57 1h0.83398l0.5 0.5-0.5 0.5h-0.83398c-0.277 0-0.27148-0.223-0.27148-0.5s-0.00552-0.5 0.27148-0.5zm2.3066 0h0.83398c0.277 0 0.27148 0.223 0.27148 0.5s0.00552 0.5-0.27148 0.5h-0.83398l-0.5-0.5zm7.2637 0c0.27614 0 0.5 0.22386 0.5 0.5s-0.22386 0.5-0.5 0.5-0.5-0.22386-0.5-0.5 0.22386-0.5 0.5-0.5zm2.0391 0c0.27614 0 0.5 0.22386 0.5 0.5s-0.22386 0.5-0.5 0.5-0.5-0.22386-0.5-0.5 0.22386-0.5 0.5-0.5zm-10.039 0.73633 0.5 0.5v0.83398c0 0.277-0.223 0.27148-0.5 0.27148s-0.64242-0.03392-0.5-0.27148v-0.83398zm9 0.26367c0.27614 0 0.5 0.22386 0.5 0.5s-0.22386 0.5-0.5 0.5-0.5-0.22386-0.5-0.5 0.22386-0.5 0.5-0.5z" fill="url(#b)" style="paint-order:normal"/>
	<path d="m6.2402 4c-0.10908 0-0.38076-0.013496-0.68555 0.11914-0.30479 0.13264-0.57662 0.43163-0.70898 0.71094-0.21683 0.45753-0.22202 1.0281-0.23438 1.7246-0.83761 0.48359-1.6113 1.3-1.6113 2.3145v7.5547c0 2.5989 1.4021 3.5469 2.4043 3.5469 1.1775 0 1.4646-0.6808 2.0371-1.4707 0.25732-0.35503 0.88787-1.5675 1.4902-2.6367 0.25962 0.08037 0.53015 0.13638 0.81445 0.13672h0.00195c1.0176 4.01e-4 1.7562-0.64215 2.252-1.4609 0.49573 0.81879 1.2343 1.4613 2.252 1.4609h2e-3c0.2843-3.32e-4 0.55484-0.05635 0.81445-0.13672 0.60237 1.0693 1.2329 2.2817 1.4902 2.6367 0.57251 0.7899 0.85965 1.4707 2.0371 1.4707 1.0022 0 2.4043-0.94794 2.4043-3.5469v-7.5547c0-1.0145-0.77375-1.8309-1.6113-2.3145-0.01236-0.69648-0.01754-1.2671-0.23438-1.7246-0.13237-0.2793-0.40419-0.5783-0.70898-0.71094-0.30483-0.13264-0.5765-0.11914-0.68559-0.11914h-2.3047c-0.61102 0-1.4316 0.27985-1.4316 1 0 0.50342-0.44294 0.34766-2.0234 0.34766-1.5805 0-2.0234 0.15576-2.0234-0.34766 0-0.72015-0.82064-1-1.4316-1h-2.3047zm-0.30664 1h3.1426c0.26785-0.050662 0.77406 0.24438 0.89648 0.76367 1.504e-4 6.245e-4 -1.492e-4 0.00133 0 0.00195 0.017219 0.073654 0.027344 0.15209 0.027344 0.23438h4c0-0.082964 0.01-0.16166 0.02734-0.23438 0.12146-0.509 0.62389-0.76562 0.89648-0.76562h3.1426c0.35736 0 0.59032 0.14859 0.73438 0.46484 0.14406 0.31627 0.19922 0.80022 0.19922 1.4707 0.13541 0.077532 0.25606 0.16411 0.36133 0.25977 0.21053 0.19129 0.36173 0.42119 0.46484 0.69727 0.05156 0.13804 0.09115 0.28691 0.11914 0.44922 0.03733 0.21641 0.05469 0.45476 0.05469 0.71875v7.7031c0 2.0971-1.1409 2.5631-2.1211 2.0508-0.16376-0.0856-0.32203-0.19879-0.4707-0.33594-0.14837-0.1367-0.28689-0.29655-0.4082-0.47852l-1.3828-2.373-0.50391-0.86328c-0.17698 0.09669-0.36683 0.17374-0.57422 0.20703-0.09383 0.01506-0.18906 0.02918-0.28711 0.0293-0.15914 6.3e-5 -0.30992-0.02609-0.45703-0.06445-0.03666-0.0097-0.07173-0.02129-0.10742-0.0332-0.12602-0.04143-0.24526-0.09555-0.35742-0.16211-0.0153-0.0092-0.03187-0.01575-0.04687-0.02539-0.13455-0.08526-0.25576-0.18813-0.36328-0.30469-0.11108-0.12042-0.20377-0.25522-0.2793-0.40234-0.1277-0.24872-0.20715-0.52733-0.20703-0.82617 7.4e-5 -0.06233 0.01138-0.12093 0.01758-0.18164h-0.90234c0.0062 0.06071 0.0175 0.11931 0.01758 0.18164 1.18e-4 0.29884-0.07933 0.57745-0.20703 0.82617-0.07553 0.14712-0.16821 0.28192-0.2793 0.40234-0.10752 0.11656-0.22873 0.21942-0.36328 0.30469-0.015 0.0096-0.03158 0.01619-0.04687 0.02539-0.11216 0.06656-0.2314 0.12068-0.35742 0.16211-0.03569 0.01191-0.07076 0.02351-0.10742 0.0332-0.14711 0.03837-0.29789 0.06452-0.45703 0.06445-0.098054-1.16e-4 -0.19328-0.01424-0.28711-0.0293-0.20738-0.03329-0.39723-0.11034-0.57422-0.20703l-0.50391 0.86328-1.3828 2.373c-0.12131 0.18198-0.25983 0.34181-0.4082 0.47852-0.14867 0.13714-0.30695 0.25035-0.4707 0.33594-0.98023 0.51237-2.1211 0.04637-2.1211-2.0508v-7.7031c0-0.26399 0.01736-0.50234 0.054688-0.71875 0.11199-0.64918 0.40367-1.0961 0.94531-1.4062 0-0.33449 0.013388-0.62323 0.044922-0.86719 9.62e-5 -7.422e-4 -9.66e-5 -0.00121 0-0.00195 0.095057-0.73293 0.35262-1.0664 0.88867-1.0664zm1.5664 2.6582c-0.12527 0-0.26285 0.013397-0.36914 0.042969-0.079004 0.035679-0.13086 0.10011-0.13086 0.22852v0.83398l0.5 0.5 0.5-0.5v-0.83398c-0.14243-0.23757-0.223-0.27148-0.5-0.27148zm9 0.3418c-0.27614 0-0.5 0.22386-0.5 0.5 0 0.2071 0.12523 0.38503 0.30469 0.46094 0.05982 0.025302 0.12628 0.039062 0.19531 0.039062 0.27614 0 0.5-0.22386 0.5-0.5s-0.22386-0.5-0.5-0.5zm-10.57 1c-0.068453 0-0.11991 0.014376-0.1582 0.039062-0.038436 0.025234-0.065409 0.062234-0.082031 0.10742-0.033245 0.090375-0.03125 0.21502-0.03125 0.35352s-0.00199 0.26314 0.03125 0.35352c0.016622 0.045188 0.043596 0.082188 0.082031 0.10742s0.088953 0.039062 0.1582 0.039062h0.83398l0.5-0.5-0.5-0.5h-0.83398zm2.3066 0-0.5 0.5 0.5 0.5h0.83398c0.277 0 0.27148-0.223 0.27148-0.5s0.00552-0.5-0.27148-0.5zm7.2637 0c-0.13807 0-0.26303 0.056002-0.35352 0.14648-0.04524 0.045241-0.08212 0.098384-0.10742 0.1582-0.0253 0.059819-0.03906 0.12628-0.03906 0.19531s0.01376 0.13549 0.03906 0.19531c0.0506 0.11964 0.14599 0.21502 0.26563 0.26562 5.02e-4 2.144e-4 0.0014-2.128e-4 2e-3 0 0.05936 0.024843 0.12499 0.039062 0.19336 0.039062 0.27614 0 0.5-0.22386 0.5-0.5s-0.22386-0.5-0.5-0.5zm2.0391 0c-0.27614 0-0.5 0.22386-0.5 0.5 0 0.2071 0.12523 0.38503 0.30469 0.46094 5.02e-4 2.144e-4 0.0015-2.128e-4 2e-3 0 0.05936 0.024843 0.12499 0.039062 0.19336 0.039062 0.27614 0 0.5-0.22386 0.5-0.5s-0.22386-0.5-0.5-0.5zm-10.039 0.73633-0.5 0.5v0.83398c0 0.12841 0.051855 0.19284 0.13086 0.22852 0.10644 0.02993 0.24328 0.04297 0.36914 0.04297 0.074655 0 0.11093-0.01714 0.16211-0.02539-0.00339 0.0038-0.0064 0.0079-0.00977 0.01172 0.19289-0.0086 0.34766-0.0405 0.34766-0.25781v-0.83398l-0.5-0.5zm9 0.26367c-0.06904 0-0.13549 0.01376-0.19531 0.03906-0.17866 0.07626-0.30469 0.25441-0.30469 0.46094 0 0.13807 0.056 0.26303 0.14648 0.35352 0.04524 0.04524 0.09838 0.08212 0.1582 0.10742 0.06022 0.02571 0.1257 0.03906 0.19531 0.03906 0.27614 0 0.5-0.22386 0.5-0.5s-0.22386-0.5-0.5-0.5z" fill="url(#a)" style="font-feature-settings:normal;font-variant-alternates:normal;font-variant-caps:normal;font-variant-ligatures:normal;font-variant-numeric:normal;font-variant-position:normal;isolation:auto;mix-blend-mode:normal;paint-order:normal;shape-padding:0;text-decoration-color:#000000;text-decoration-line:none;text-decoration-style:solid;text-indent:0;text-orientation:mixed;text-transform:none;white-space:normal"/>
	<path d="m9.7477 11.367c-1.002 0.0012-1.814 0.81317-1.8152 1.8152-3.965e-4 1.0031 0.81205 1.8168 1.8152 1.818 1.0042 3.96e-4 1.8184-0.8138 1.818-1.818-0.0012-1.0031-0.81492-1.8156-1.818-1.8152zm4.5045 0c-1.0031-3.96e-4 -1.8168 0.81205-1.818 1.8152-3.96e-4 1.0042 0.8138 1.8184 1.818 1.818 1.0031-0.0012 1.8156-0.81492 1.8152-1.818-0.0012-1.002-0.81317-1.814-1.8152-1.8152z" fill="#090d11" fill-opacity=".76621" style="paint-order:normal"/>
	<path d="m10.532 12.793c0 0.64782-0.52516 1.173-1.173 1.173s-1.173-0.52516-1.173-1.173c-2e-7 -0.64782 0.52516-1.173 1.173-1.173s1.173 0.52516 1.173 1.173z" fill="url(#e)" fill-opacity=".99858" style="paint-order:normal"/>
	<path d="m13.469 12.793c0 0.64782 0.52516 1.173 1.173 1.173s1.173-0.52516 1.173-1.173-0.52516-1.173-1.173-1.173-1.173 0.52516-1.173 1.173z" fill="url(#d)" fill-opacity=".99858" style="paint-order:normal"/>
</svg>
