<?xml version="1.0" encoding="UTF-8"?>
<svg id="d" width="24" height="24" version="1.1" xmlns="http://www.w3.org/2000/svg" xmlns:cc="http://creativecommons.org/ns#" xmlns:dc="http://purl.org/dc/elements/1.1/" xmlns:rdf="http://www.w3.org/1999/02/22-rdf-syntax-ns#">
	<metadata id="a">
		<rdf:RDF>
			<cc:Work rdf:about="">
				<dc:format>image/svg+xml</dc:format>
				<dc:type rdf:resource="http://purl.org/dc/dcmitype/StillImage"/>
				<dc:title/>
			</cc:Work>
		</rdf:RDF>
	</metadata>
	<defs id="f">
		<style id="current-color-scheme" type="text/css">.ColorScheme-Text {color:#090d11;}.ColorScheme-Background{color:#ffffff;}</style>
	</defs>
	<path id="e" class="ColorScheme-Text" d="m7.5 3c-2.4853 0-4.5 2.0147-4.5 4.5 0 1.1439 0.45315 2.1748 1.1562 2.9688-0.095 0.4933-0.15625 1.01-0.15625 1.5312 0 4.4183 3.5817 8 8 8 0.5212 0 1.0378-0.06105 1.5312-0.15625 0.7939 0.703 1.8248 1.1562 2.9688 1.1562 2.4853 0 4.5-2.0147 4.5-4.5 0-1.1439-0.45325-2.1748-1.1562-2.9688 0.095-0.4934 0.15625-1.01 0.15625-1.5312 0-4.4183-3.5817-8-8-8-0.5212 0-1.038 0.06095-1.5312 0.15625-0.794-0.7031-1.8248-1.1562-2.9688-1.1562zm4.3535 3.998c2.4758 0 3.748 1.3051 3.748 2.0703 0 0.7653-0.37267 0.88867-0.98047 0.88867-1.1795 0-0.68864-1.418-2.9023-1.418-0.7331 0-1.6426 0.32754-1.6426 1.1816 0 0.6853 0.79732 0.9357 2.2285 1.2832 2.1517 0.5765 3.7793 1.1593 3.7793 3.1289 0 1.9132-1.5751 2.8691-4.0508 2.8691-2.4758 0-4.0508-1.4749-4.0508-2.2402 0-0.7652 0.29269-0.9668 0.90039-0.9668 1.1796 0 1.0166 1.6094 3.2305 1.6094 0.733 0 1.8105-0.32744 1.8105-1.1816 0-0.6854-0.05024-0.92921-1.6191-1.3496-1.6762-0.2286-4.3887-0.76656-4.3887-2.8477 0-1.9132 1.4616-3.0273 3.9375-3.0273z" style="fill-opacity:.75;fill:currentColor"/>
	<path id="b" class="ColorScheme-Background" d="m6.0625 2c-1.9845 0.51825-3.5442 2.078-4.0625 4.0625v2.7188c0.19308 0.72274 0.51886 1.3832 0.9375 1.9688-0.011956 0.0815-0.019451 0.16872-0.03125 0.25h0.09375v2.8438c0.72667 3.5479 3.5064 6.3751 7.0312 7.1562h2.9688v0.125c0.09369-0.01314 0.1891-0.01783 0.28125-0.03125 0.5543 0.39502 1.1733 0.70802 1.8438 0.90625h2.9375c1.8872-0.54476 3.3928-2.0503 3.9375-3.9375v-2.9375c-0.19821-0.67041-0.51117-1.2894-0.90625-1.8438 0.01342-0.09208 0.01811-0.18759 0.03125-0.28125h-0.125v-2.9688c-0.78112-3.5249-3.6083-6.3046-7.1562-7.0312h-2.8438v-0.09375c-0.08133 0.011799-0.16842 0.019294-0.25 0.03125-0.58552-0.41864-1.246-0.74442-1.9688-0.9375h-2.7188zm1.4375 1c1.1439 0 2.1748 0.45315 2.9688 1.1562 0.4933-0.0953 1.01-0.15625 1.5312-0.15625 4.4183 0 8 3.5817 8 8 0 0.5212-0.06125 1.0378-0.15625 1.5312 0.703 0.7939 1.1562 1.8248 1.1562 2.9688 0 2.4853-2.0147 4.5-4.5 4.5-1.1439 0-2.1748-0.45325-2.9688-1.1562-0.4934 0.0952-1.01 0.15625-1.5312 0.15625-4.4183 0-8-3.5817-8-8 0-0.5212 0.06125-1.038 0.15625-1.5312-0.7031-0.794-1.1562-1.8248-1.1562-2.9688 0-2.4853 2.0147-4.5 4.5-4.5zm4.3535 3.998c-2.4759 0-3.9375 1.1141-3.9375 3.0273 0 2.0811 2.7125 2.6191 4.3887 2.8477 1.5689 0.4204 1.6191 0.66421 1.6191 1.3496 0 0.8542-1.0775 1.1816-1.8105 1.1816-2.2139 0-2.0509-1.6094-3.2305-1.6094-0.6077 0-0.90039 0.2016-0.90039 0.9668 0 0.7653 1.575 2.2402 4.0508 2.2402 2.4757 0 4.0508-0.95594 4.0508-2.8691 0-1.9696-1.6276-2.5524-3.7793-3.1289-1.4312-0.3475-2.2285-0.5979-2.2285-1.2832 0-0.8541 0.90948-1.1816 1.6426-1.1816 2.2137 0 1.7228 1.418 2.9023 1.418 0.6078 0 0.98047-0.12337 0.98047-0.88867 0-0.7652-1.2722-2.0703-3.748-2.0703z" style="fill-opacity:.5;fill:currentColor"/>
</svg>
