<?xml version="1.0" encoding="UTF-8"?>
<svg id="a" width="24" height="24" version="1.1" xmlns="http://www.w3.org/2000/svg" xmlns:cc="http://creativecommons.org/ns#" xmlns:dc="http://purl.org/dc/elements/1.1/" xmlns:rdf="http://www.w3.org/1999/02/22-rdf-syntax-ns#">
	<metadata id="d">
		<rdf:RDF>
			<cc:Work rdf:about="">
				<dc:format>image/svg+xml</dc:format>
				<dc:type rdf:resource="http://purl.org/dc/dcmitype/StillImage"/>
				<dc:title/>
			</cc:Work>
		</rdf:RDF>
	</metadata>
	<defs>
		<style id="current-color-scheme" type="text/css">.ColorScheme-Text {color:#090d11;}.ColorScheme-Background{color:#ffffff;}</style>
	</defs>
	<g id="c" transform="translate(-375 -504.36)">
		<path id="e" d="m387 508.36-5 5h10zm-7 6v2h5v4h-3l5 5 5-5h-3v-4h5v-2z" style="fill-opacity:.75;fill:currentColor" class="ColorScheme-Text"/>
		<path id="b" d="m387 506.92-0.71875 0.46875-5 5-0.71875 0.96875h-0.5625-1v1h1v2h4v3h-2-2.4062l1.6875 1.9375 5 5 0.71875 0.46875 0.71875-0.46875 5-5 1.6875-1.9375h-2.4062-2v-3h4v-2h1v-1h-1-0.5625l-0.71875-0.96875-5-5zm0 1.4375 5 5h-10zm-7 6h14v2h-5v4h3l-5 5-5-5h3v-4h-5z" style="fill-opacity:.5;fill:currentColor" class="ColorScheme-Background"/>
	</g>
</svg>
