<?xml version="1.0" encoding="UTF-8"?>
<!-- Created with Inkscape (http://www.inkscape.org/) -->
<svg width="24" height="24" version="1.1" xmlns="http://www.w3.org/2000/svg" xmlns:cc="http://creativecommons.org/ns#" xmlns:dc="http://purl.org/dc/elements/1.1/" xmlns:rdf="http://www.w3.org/1999/02/22-rdf-syntax-ns#">
	<defs>
		<style id="current-color-scheme" type="text/css">.ColorScheme-Text {color:#090d11;}.ColorScheme-Background{color:#ffffff;}</style>
	</defs>
	<metadata>
		<rdf:RDF>
			<cc:Work rdf:about="">
				<dc:format>image/svg+xml</dc:format>
				<dc:type rdf:resource="http://purl.org/dc/dcmitype/StillImage"/>
			</cc:Work>
		</rdf:RDF>
	</metadata>
	<path class="ColorScheme-Text" d="m12 3c-4.9646 0-9 4.0354-9 9s4.0354 9 9 9 9-4.0354 9-9-4.0354-9-9-9zm0 1c4.4242 0 8 3.5758 8 8s-3.5758 8-8 8-8-3.5758-8-8 3.5758-8 8-8zm2.5859 3.7109c-0.25715 0-0.51422 0.096252-0.70703 0.28906l-1.7129 1.7129c-0.3338-0.086482-0.70534-0.001694-0.96289 0.25586l-3.7461 3.7461c-0.38562 0.38562-0.38562 1.0284 0 1.4141l1.4141 1.4141c0.38562 0.38562 1.0284 0.38562 1.4141 0l3.7461-3.7461c0.25755-0.25755 0.34234-0.62909 0.25586-0.96289l1.7129-1.7129c0.38562-0.38562 0.38562-1.0284 0-1.4141l-0.70703-0.70703c-0.19281-0.19281-0.44988-0.28906-0.70703-0.28906zm0 0.99609 0.70703 0.70703-1.6152 1.6152-0.70703-0.70703z" style="fill-opacity:.75;fill:currentColor"/>
</svg>
