<?xml version="1.0" encoding="UTF-8"?>
<!-- Created with Inkscape (http://www.inkscape.org/) -->
<svg width="24" height="24" version="1.1" xmlns="http://www.w3.org/2000/svg" xmlns:cc="http://creativecommons.org/ns#" xmlns:dc="http://purl.org/dc/elements/1.1/" xmlns:rdf="http://www.w3.org/1999/02/22-rdf-syntax-ns#">
	<defs>
		<style id="current-color-scheme" type="text/css">.ColorScheme-Text {
			color:#090d11;
			}
			.ColorScheme-Background{
			color:#ffffff;
			}</style>
	</defs>
	<metadata>
		<rdf:RDF>
			<cc:Work rdf:about="">
				<dc:format>image/svg+xml</dc:format>
				<dc:type rdf:resource="http://purl.org/dc/dcmitype/StillImage"/>
			</cc:Work>
		</rdf:RDF>
	</metadata>
	<path class="ColorScheme-Background" d="m3.5 2c-0.39742 6.01e-5 -0.77956 0.15841-1.0605 0.43945-0.28105 0.28099-0.43939 0.66313-0.43945 1.0605v5c0 0.81658 0.68342 1.5 1.5 1.5s1.5-0.68342 1.5-1.5v-1.3789l2 2v1.3789c0 0.81658 0.68342 1.5 1.5 1.5s1.5-0.68342 1.5-1.5v-0.5h0.5c0.81658 0 1.5-0.68342 1.5-1.5s-0.68342-1.5-1.5-1.5h-1.3789l-2-2h1.3789c0.81658 0 1.5-0.68342 1.5-1.5s-0.68342-1.5-1.5-1.5zm8.5 6.5c0 0.81658 0.68342 1.5 1.5 1.5h0.5v0.5c0 0.81658 0.68342 1.5 1.5 1.5s1.5-0.68342 1.5-1.5v-1.3789l2-2v1.3789c0 0.81658 0.68342 1.5 1.5 1.5s1.5-0.68342 1.5-1.5v-5c-6e-5 -0.39742-0.15841-0.77956-0.43945-1.0605-0.28099-0.28105-0.66313-0.43939-1.0605-0.43945h-5c-0.81658 0-1.5 0.68342-1.5 1.5s0.68342 1.5 1.5 1.5h1.3789l-2 2h-1.3789c-0.81658 0-1.5 0.68342-1.5 1.5zm3.5 3.5c-0.81658 0-1.5 0.68342-1.5 1.5v0.5h-0.5c-0.81658 0-1.5 0.68342-1.5 1.5s0.68342 1.5 1.5 1.5h1.3789l2 2h-1.3789c-0.81658 0-1.5 0.68342-1.5 1.5s0.68342 1.5 1.5 1.5h5c0.39742-5.9e-5 0.77956-0.15841 1.0605-0.43945 0.28105-0.28099 0.43939-0.66313 0.43945-1.0605v-5c0-0.81658-0.68342-1.5-1.5-1.5s-1.5 0.68342-1.5 1.5v1.3789l-2-2v-1.3789c0-0.81658-0.68342-1.5-1.5-1.5zm-12-9h5c0.27614 0 0.5 0.22386 0.5 0.5s-0.22386 0.5-0.5 0.5h-3.793l4 4h1.793c0.27614 0 0.5 0.22386 0.5 0.5s-0.22386 0.5-0.5 0.5h-1.5v1.5c0 0.27614-0.22386 0.5-0.5 0.5s-0.5-0.22386-0.5-0.5v-1.793l-4-4v3.793c0 0.27614-0.22386 0.5-0.5 0.5s-0.5-0.22386-0.5-0.5v-5c2e-5 -0.1326 0.052712-0.25976 0.14648-0.35352 0.093753-0.093773 0.22092-0.14646 0.35352-0.14648zm12 0h5c0.1326 1.99e-5 0.25976 0.052712 0.35352 0.14648 0.093773 0.093753 0.14646 0.22092 0.14648 0.35352v5c0 0.27614-0.22386 0.5-0.5 0.5s-0.5-0.22386-0.5-0.5v-3.793l-4 4v1.793c0 0.27614-0.22386 0.5-0.5 0.5s-0.5-0.22386-0.5-0.5v-1.5h-1.5c-0.27614 0-0.5-0.22386-0.5-0.5s0.22386-0.5 0.5-0.5h1.793l4-4h-3.793c-0.27614 0-0.5-0.22386-0.5-0.5s0.22386-0.5 0.5-0.5zm0 10c0.27614 0 0.5 0.22386 0.5 0.5v1.793l4 4v-3.793c0-0.27614 0.22386-0.5 0.5-0.5s0.5 0.22386 0.5 0.5v5c-2e-5 0.1326-0.05271 0.25976-0.14648 0.35352-0.093753 0.093773-0.22092 0.14646-0.35352 0.14648h-5c-0.27614 0-0.5-0.22386-0.5-0.5s0.22386-0.5 0.5-0.5h3.793l-4-4h-1.793c-0.27614 0-0.5-0.22386-0.5-0.5s0.22386-0.5 0.5-0.5h1.5v-1.5c0-0.27614 0.22386-0.5 0.5-0.5z" style="fill-opacity:.5;fill:currentColor;stroke-linecap:round;stroke-linejoin:round"/>
	<path class="ColorScheme-Text" d="m3.5 3c-0.1326 2e-5 -0.25976 0.052712-0.35352 0.14648-0.093773 0.093753-0.14646 0.22092-0.14648 0.35352v5c0 0.27614 0.22386 0.5 0.5 0.5s0.5-0.22386 0.5-0.5v-3.793l4 4v1.793c0 0.27614 0.22386 0.5 0.5 0.5s0.5-0.22386 0.5-0.5v-1.5h1.5c0.27614 0 0.5-0.22386 0.5-0.5s-0.22386-0.5-0.5-0.5h-1.793l-4-4h3.793c0.27614 0 0.5-0.22386 0.5-0.5s-0.22386-0.5-0.5-0.5zm12 0c-0.27614 0-0.5 0.22386-0.5 0.5s0.22386 0.5 0.5 0.5h3.793l-4 4h-1.793c-0.27614 0-0.5 0.22386-0.5 0.5s0.22386 0.5 0.5 0.5h1.5v1.5c0 0.27614 0.22386 0.5 0.5 0.5s0.5-0.22386 0.5-0.5v-1.793l4-4v3.793c0 0.27614 0.22386 0.5 0.5 0.5s0.5-0.22386 0.5-0.5v-5c-2e-5 -0.1326-0.052711-0.25976-0.14648-0.35352-0.093753-0.093773-0.22092-0.14646-0.35352-0.14648zm0 10c-0.27614 0-0.5 0.22386-0.5 0.5v1.5h-1.5c-0.27614 0-0.5 0.22386-0.5 0.5s0.22386 0.5 0.5 0.5h1.793l4 4h-3.793c-0.27614 0-0.5 0.22386-0.5 0.5s0.22386 0.5 0.5 0.5h5c0.1326-2e-5 0.25976-0.05271 0.35352-0.14648 0.093773-0.093753 0.14646-0.22092 0.14648-0.35352v-5c0-0.27614-0.22386-0.5-0.5-0.5s-0.5 0.22386-0.5 0.5v3.793l-4-4v-1.793c0-0.27614-0.22386-0.5-0.5-0.5z" style="fill-opacity:.75;fill:currentColor;stroke-linecap:round;stroke-linejoin:round"/>
</svg>
