<?xml version="1.0" encoding="UTF-8"?>
<svg id="a" width="24" height="24" version="1.1" xmlns="http://www.w3.org/2000/svg" xmlns:cc="http://creativecommons.org/ns#" xmlns:dc="http://purl.org/dc/elements/1.1/" xmlns:rdf="http://www.w3.org/1999/02/22-rdf-syntax-ns#">
	<metadata id="d">
		<rdf:RDF>
			<cc:Work rdf:about="">
				<dc:format>image/svg+xml</dc:format>
				<dc:type rdf:resource="http://purl.org/dc/dcmitype/StillImage"/>
			</cc:Work>
		</rdf:RDF>
	</metadata>
	<defs>
		<style id="current-color-scheme" type="text/css">.ColorScheme-Text {color:#090d11;}.ColorScheme-Background{color:#ffffff;}</style>
	</defs>
	<path id="c" class="ColorScheme-Text" d="m12 3c-3.3078 0-6 2.6922-6 6 0 3.3078 2.6922 6 6 6 3.3078 0 6-2.6922 6-6 0-3.3078-2.6922-6-6-6zm0 1c2.7673 0 5 2.2327 5 5 0 2.7673-2.2327 5-5 5-2.7673 0-5-2.2327-5-5 0-2.7673 2.2327-5 5-5zm0 3c-1.0986 0-2 0.90135-2 2 0 1.0986 0.90135 2 2 2s2-0.90135 2-2c0-1.0986-0.90135-2-2-2zm0 1c0.55821 0 1 0.44179 1 1s-0.44179 1-1 1-1-0.44179-1-1 0.44179-1 1-1zm-1 8v4h-2.5c-0.277 0-0.5 0.21738-0.5 0.48633v0.02734c0 0.26895 0.223 0.48633 0.5 0.48633h7c0.277 0 0.5-0.21738 0.5-0.48633v-0.02734c0-0.26895-0.223-0.48633-0.5-0.48633h-2.5v-4z" style="fill-opacity:.75;fill:currentColor"/>
	<path id="e" class="ColorScheme-Background" d="m12 2c-3.8601 0-7 3.1399-7 7 0 3.8601 3.1399 7 7 7 3.8601 0 7-3.1399 7-7 0-3.8601-3.1399-7-7-7zm0 1c3.3196 0 6 2.6804 6 6 0 3.3196-2.6804 6-6 6-3.3196 0-6-2.6804-6-6 0-3.3196 2.6804-6 6-6zm0 3c-1.6509 0-3 1.3491-3 3 0 1.6509 1.3491 3 3 3s3-1.3491 3-3c0-1.6509-1.3491-3-3-3zm0 1c1.1105 0 2 0.88951 2 2 0 1.1105-0.88951 2-2 2s-2-0.88951-2-2c0-1.1105 0.88951-2 2-2zm-1.5 9c-0.277 0-0.5 0.223-0.5 0.5v3c0 0.277 0.223 0.5 0.5 0.5s0.5-0.223 0.5-0.5v-3c0-0.277-0.223-0.5-0.5-0.5zm3 0c-0.277 0-0.5 0.223-0.5 0.5v3c0 0.277 0.223 0.5 0.5 0.5s0.5-0.223 0.5-0.5v-3c0-0.277-0.223-0.5-0.5-0.5zm-5 5c-0.277 0-0.5 0.223-0.5 0.5s0.223 0.5 0.5 0.5h7c0.277 0 0.5-0.223 0.5-0.5s-0.223-0.5-0.5-0.5z" style="fill-opacity:.5;fill:currentColor"/>
</svg>
