<?xml version="1.0" encoding="UTF-8"?>
<svg width="24" height="24" version="1.1" xmlns="http://www.w3.org/2000/svg" xmlns:cc="http://creativecommons.org/ns#" xmlns:dc="http://purl.org/dc/elements/1.1/" xmlns:rdf="http://www.w3.org/1999/02/22-rdf-syntax-ns#">
	<defs>
		<style id="current-color-scheme" type="text/css">.ColorScheme-Text {color:#090d11;}.ColorScheme-Background{color:#ffffff;}</style>
	</defs>
	<metadata>
		<rdf:RDF>
			<cc:Work rdf:about="">
				<dc:format>image/svg+xml</dc:format>
				<dc:type rdf:resource="http://purl.org/dc/dcmitype/StillImage"/>
			</cc:Work>
		</rdf:RDF>
	</metadata>
	<path class="ColorScheme-Text" d="m5 4c-1.0907 0-2 0.9093-2 2v12c0 1.0907 0.9093 2 2 2h14c1.0907 0 2-0.9093 2-2v-12c0-1.0907-0.9093-2-2-2zm-1 1h16v14h-16zm1 10v3h14v-3zm1 1h1v1h-1zm2 0h1v1h-1zm9 0h1v1h-1z" style="fill-opacity:.75;fill:currentColor"/>
	<path class="ColorScheme-Background" d="m3.5 3c-0.82235 0-1.5 0.6776-1.5 1.5v15c0 0.8224 0.67765 1.5 1.5 1.5l0.066406-0.04492v0.04492h16.867v-0.04492l0.066406 0.04492c0.82235 0 1.5-0.6776 1.5-1.5v-15c0-0.8224-0.67765-1.5-1.5-1.5zm0 1h17c0.28565 0 0.59032 0.22906 0.5 0.5v15c0 0.2856-0.21435 0.5-0.5 0.5h-17c-0.28565 0-0.59031-0.22906-0.5-0.5v-15c0-0.2856 0.21435-0.5 0.5-0.5zm0.5 10v5h16v-5zm1 1h14v3h-14zm1 1v1h1v-1zm2 0v1h1v-1zm9 0v1h1v-1z" style="fill-opacity:.5;fill:currentColor"/>
</svg>
