<?xml version="1.0" encoding="UTF-8"?>
<!-- Created with Inkscape (http://www.inkscape.org/) -->
<svg width="24" height="24" version="1.1" xmlns="http://www.w3.org/2000/svg" xmlns:cc="http://creativecommons.org/ns#" xmlns:dc="http://purl.org/dc/elements/1.1/" xmlns:rdf="http://www.w3.org/1999/02/22-rdf-syntax-ns#">
	<metadata>
		<rdf:RDF>
			<cc:Work rdf:about="">
				<dc:format>image/svg+xml</dc:format>
				<dc:type rdf:resource="http://purl.org/dc/dcmitype/StillImage"/>
			</cc:Work>
		</rdf:RDF>
	</metadata>
	<defs>
		<style id="current-color-scheme" type="text/css">
			.ColorScheme-Text {color:#090d11;}
			.ColorScheme-Background{color:#ffffff;}
		</style>
	</defs>
	<path class="ColorScheme-Background" d="m12 6c-0.33231 0-0.6637 0.03573-1 0.0625l0.71875 0.96875c0.0044-0.076624 0.05393-0.15608 0.09375-0.21875 0.3153-0.49629 0.89325-0.40625 0.9375-0.40625 0.93138 0 1.8181 0.10735 2.6562 0.3125v-0.03125l0.1875-0.25c-1.1179-0.30326-2.324-0.4375-3.5938-0.4375zm6.625 1.75-0.21875 0.28125c1.7011 1.139 2.7812 2.7693 2.7812 4.5938 0 1.5652-0.79626 3-2.0938 4.0938l0.5625 0.75c1.4578-1.2186 2.3438-2.7544 2.3438-4.4688 0-2.0844-1.3154-3.9645-3.375-5.25zm-13.344 0.0625c-2.0051 1.283-3.2812 3.1348-3.2812 5.1875 0 1.74 0.90945 3.3051 2.4062 4.5312l1.1875-1.5625c-0.83027-0.96261-1.3125-2.1199-1.3125-3.3438 5e-7 -1.4295 0.64756-2.73 1.75-3.7812zm2.875 10.031-0.96875 1.3125c1.4233 0.54657 3.0763 0.84375 4.8125 0.84375 0.80194 0 1.565-0.09353 2.3125-0.21875l-0.71875-0.96875c-0.28407 0.02125-0.5521 0.03125-0.84375 0.03125-1.6873 0-3.2736-0.37236-4.5938-1z" style="fill:currentColor;opacity:.3"/>
	<path id="e" class="ColorScheme-Text" d="m12 6c-0.33231 0-0.6637 0.03573-1 0.0625l0.71875 0.96875c0.0044-0.076624 0.05393-0.15608 0.09375-0.21875 0.3153-0.49629 0.89325-0.40625 0.9375-0.40625 0.93138 0 1.8181 0.10735 2.6562 0.3125v-0.03125l0.1875-0.25c-1.1179-0.30326-2.324-0.4375-3.5938-0.4375zm6.625 1.75-0.21875 0.28125c1.7011 1.139 2.7812 2.7693 2.7812 4.5938 0 1.5652-0.79626 3-2.0938 4.0938l0.5625 0.75c1.4578-1.2186 2.3438-2.7544 2.3438-4.4688 0-2.0844-1.3154-3.9645-3.375-5.25zm-13.344 0.0625c-2.0051 1.283-3.2812 3.1348-3.2812 5.1875 0 1.74 0.90945 3.3051 2.4062 4.5312l1.1875-1.5625c-0.83027-0.96261-1.3125-2.1199-1.3125-3.3438 5e-7 -1.4295 0.64756-2.73 1.75-3.7812zm2.875 10.031-0.96875 1.3125c1.4233 0.54657 3.0763 0.84375 4.8125 0.84375 0.80194 0 1.565-0.09353 2.3125-0.21875l-0.71875-0.96875c-0.28407 0.02125-0.5521 0.03125-0.84375 0.03125-1.6873 0-3.2736-0.37236-4.5938-1z" style="fill:currentColor;opacity:.3"/>
	<path class="ColorScheme-Text" d="m3 3 6.7188 9.1875-3.4062 4.4688c0.29567 0.25503 0.62129 0.50187 0.96875 0.71875l5.5-7.2188-5.2812-7.1562zm16.531 0-8.3438 10.844 3.5312 4.8125c1.3507-0.23609 2.5536-0.6936 3.5625-1.3438l-4.0312-5.4688 6.75-8.8438zm-0.6875 15.094c-0.98104 0.64509-2.1468 1.1415-3.4375 1.4688l1.0312 1.4375h4.5625zm-13.656 0.03125-2.1875 2.875h1.5312l1.7188-2.2812c-0.3719-0.1833-0.73031-0.37748-1.0625-0.59375z" style="fill:currentColor;opacity:.75"/>
</svg>
