<?xml version="1.0" encoding="UTF-8"?>
<!-- Created with Inkscape (http://www.inkscape.org/) -->
<svg width="24" height="24" version="1.1" xmlns="http://www.w3.org/2000/svg" xmlns:cc="http://creativecommons.org/ns#" xmlns:dc="http://purl.org/dc/elements/1.1/" xmlns:rdf="http://www.w3.org/1999/02/22-rdf-syntax-ns#">
	<metadata>
		<rdf:RDF>
			<cc:Work rdf:about="">
				<dc:format>image/svg+xml</dc:format>
				<dc:type rdf:resource="http://purl.org/dc/dcmitype/StillImage"/>
			</cc:Work>
		</rdf:RDF>
	</metadata>
	<defs>
		<style id="current-color-scheme" type="text/css">.ColorScheme-Text {
				color:#090d11;
			}
			.ColorScheme-Background{
				color:#ffffff;
			}</style>
	</defs>
	<path class="ColorScheme-Text" d="m12 3c-4.9568 0-9 4.0474-9 9.0059 0 4.9584 4.0432 9.0059 9 9.0059 4.9569 0 9-4.0473 9-9.0059 0-4.9587-4.0431-9.0059-9-9.0059zm0 1.0059c4.4103 0 7.9941 3.5872 7.9941 8 0 4.4127-3.5838 8-7.9941 8-4.4102 0-7.9941-3.5873-7.9941-8 0-4.4128 3.5839-8 7.9941-8zm0 1c-0.1986 0-0.3935 0.013-0.5879 0.029a6.9999 6.9999 0 0 0-0.3965 0.047c-0.1011 0.014-0.203 0.028-0.3027 0.047a6.9999 6.9999 0 0 0-0.4082 0.092c-0.084 0.021-0.1676 0.041-0.25 0.064a6.9999 6.9999 0 0 0-0.4395 0.1465c-0.072 0.026-0.1441 0.05-0.2148 0.078a6.9999 6.9999 0 0 0-0.3906 0.1758c-0.086 0.041-0.1738 0.079-0.2578 0.123a6.9999 6.9999 0 0 0-0.3204 0.1836c-0.093 0.055-0.1872 0.1085-0.2773 0.168a6.9999 6.9999 0 0 0-0.2695 0.1934c-0.1008 0.074-0.2023 0.1458-0.2989 0.2246a6.9999 6.9999 0 0 0-0.1601 0.1406c-0.1232 0.107-0.246 0.2148-0.3613 0.3301-0.013 0.013-0.026 0.028-0.039 0.041-0.1452 0.1474-0.2863 0.2992-0.418 0.459-0.9959 1.2082-1.5937 2.7574-1.5937 4.4492 0 3.8667 3.1225 6.9922 6.9863 6.9922s6.9863-3.1255 6.9863-6.9922c0-0.7251-0.1106-1.4249-0.3144-2.082-0.066-0.2138-0.1429-0.4227-0.2285-0.627a6.9999 6.9999 0 0 0-0.01-0.016c-0.01-0.013-0.012-0.026-0.018-0.039-0.08-0.1854-0.167-0.3663-0.2617-0.543a6.9999 6.9999 0 0 0-0.065-0.1113c-0.088-0.1571-0.1797-0.3116-0.2792-0.4609a6.9999 6.9999 0 0 0-0.1-0.1406c-0.098-0.1396-0.1989-0.2765-0.3066-0.4082a6.9999 6.9999 0 0 0-0.092-0.1055c-0.1175-0.138-0.2375-0.274-0.3652-0.4024a6.9999 6.9999 0 0 0-0.082-0.076c-0.133-0.1295-0.269-0.2564-0.4121-0.375a6.9999 6.9999 0 0 0-0.012-0.01c-0.044-0.037-0.093-0.068-0.1387-0.1035-0.1262-0.099-0.2517-0.1987-0.3847-0.2891a6.9999 6.9999 0 0 0-0.4395-0.2676c-0.043-0.025-0.083-0.054-0.1269-0.078a6.9999 6.9999 0 0 0-0.625-0.3028 6.9999 6.9999 0 0 0-0.6582-0.2402 6.9999 6.9999 0 0 0-0.6582-0.1699h-0.02a6.9999 6.9999 0 0 0-0.1855-0.027 6.9999 6.9999 0 0 0-0.5059-0.076 6.9999 6.9999 0 0 0-0.6992-0.035zm-3.207 2.9355 3.2129 3.2129 3.2168-3.2129 1.2207 1.2227-3.5684 3.5684v4.2539h-1.7305v-4.2481l-3.5742-3.5742z" style="fill-opacity:.75;fill:currentColor"/>
	<path class="ColorScheme-Background" d="m12 4c-4.336 0-7.9991 3.4848-7.9991 7.9362 0 4.4513 3.5855 8.07 7.9991 8.07 4.4137 0 8.0009-3.6187 8.0009-8.07 0-4.4514-3.6647-7.9362-8.0009-7.9362zm9e-4 1c3.8638 0 6.9861 3.1253 6.9861 6.9922 0 3.8667-3.1232 6.9922-6.987 6.9922s-6.9852-3.1255-6.9852-6.9922c0-3.8669 3.1223-6.9922 6.9861-6.9922zm-3.2079 2.9352-1.2223 1.2224 3.5751 3.5751v4.2487h1.7294v-4.2539l3.5698-3.5699-1.2224-1.2224-3.2157 3.214z" style="fill-opacity:.5;fill:currentColor"/>
</svg>
