<?xml version="1.0" encoding="UTF-8"?>
<!-- Created with Inkscape (http://www.inkscape.org/) -->
<svg width="64" height="64" version="1.1" xmlns="http://www.w3.org/2000/svg" xmlns:cc="http://creativecommons.org/ns#" xmlns:dc="http://purl.org/dc/elements/1.1/" xmlns:rdf="http://www.w3.org/1999/02/22-rdf-syntax-ns#" xmlns:xlink="http://www.w3.org/1999/xlink">
	<defs>
		<radialGradient id="b" cx="46.87" cy="36.89" r="14.16" gradientTransform="matrix(1.44,0,0,2.118,-19.19,-35.79)" gradientUnits="userSpaceOnUse">
			<stop stop-color="#550006" stop-opacity=".3137" offset="0"/>
			<stop stop-color="#480d0d" stop-opacity=".1412" offset="1"/>
		</radialGradient>
		<linearGradient id="d" x1="82.74" x2="71" y1="79.42" y2="69" gradientTransform="translate(-34,-33)" gradientUnits="userSpaceOnUse">
			<stop stop-color="#ef9f14" offset="0"/>
			<stop stop-color="#ef9b2a" offset=".2523"/>
			<stop stop-color="#f7b021" offset="1"/>
		</linearGradient>
		<linearGradient id="c" x1="37" x2="48.96" y1="36" y2="46.16" gradientUnits="userSpaceOnUse">
			<stop stop-color="#ffff3a" stop-opacity=".0015624" offset="0"/>
			<stop stop-color="#ffff3a" stop-opacity=".28872" offset=".5903"/>
			<stop stop-color="#ffff3a" stop-opacity=".4103" offset=".7003"/>
			<stop stop-color="#ffff3a" stop-opacity=".53535" offset=".8081"/>
			<stop stop-color="#ffff3a" stop-opacity=".64166" offset=".9019"/>
			<stop stop-color="#ffff3a" stop-opacity=".71418" offset="1"/>
		</linearGradient>
		<radialGradient id="a" cx="20.34" cy="28.54" r="30" gradientTransform="matrix(1.181,0,0,1.22,-5.424,-7.265)" gradientUnits="userSpaceOnUse">
			<stop stop-color="#f60e3f" stop-opacity=".16596" offset="0"/>
			<stop stop-color="#e9132c" stop-opacity="0" offset="1"/>
		</radialGradient>
	</defs>
	<metadata>
		<rdf:RDF>
			<cc:Work rdf:about="">
				<dc:format>image/svg+xml</dc:format>
				<dc:type rdf:resource="http://purl.org/dc/dcmitype/StillImage"/>
			</cc:Work>
		</rdf:RDF>
	</metadata>
	<path d="m4 0h60v62h-60z" fill="#f5ae19"/>
	<path d="m0 2h60v31l-26 31h-34z" color="#000000" fill="#f1cd43"/>
	<path d="m0 2h60v31l-26 31h-34z" color="#000000" fill="url(#a)"/>
	<path d="m0 2h60v31l-26 31h-34z" color="#000000" fill="url(#c)" opacity=".42032"/>
	<path d="m34 64 26-31c-2.329 2.776-4.361 3-11 3h-12v15c0 6.644 0.04437 9.37-3 13z" fill="url(#d)"/>
	<path d="m60 2v31l-24.32 29h28.32v-56z" fill="url(#b)"/>
	<path class="ColorScheme-Text" d="m25.741 12.94h2.8279m-1.358 11.23h2.8279m-11.648-11.23h2.8279m-1.358 11.23h2.8279m-11.687-11.23h2.8279m-1.358 11.23h2.8279m18.7-12.17v16h-14l-7 8v-8h-6m0-3 2e-7 -16 27-2e-7" color="#090d11" fill="none" stroke="#db0c32" stroke-linecap="round" stroke-linejoin="round" stroke-opacity=".56929" stroke-width="2"/>
</svg>
