<?xml version="1.0" encoding="UTF-8"?>
<!-- Created with Inkscape (http://www.inkscape.org/) -->
<svg width="64" height="64" version="1.1" xmlns="http://www.w3.org/2000/svg" xmlns:cc="http://creativecommons.org/ns#" xmlns:dc="http://purl.org/dc/elements/1.1/" xmlns:rdf="http://www.w3.org/1999/02/22-rdf-syntax-ns#">
	<defs>
		<linearGradient id="linearGradient82616" x1="53.055" x2="60.201" y1="35.97" y2="35.97" gradientUnits="userSpaceOnUse">
			<stop stop-color="#86f4ff" stop-opacity=".23451" offset="0"/>
			<stop stop-color="#ffffff" stop-opacity="0" offset="1"/>
		</linearGradient>
		<linearGradient id="d-7" x1="82.744" x2="71" y1="79.421" y2="69" gradientTransform="translate(-34,-33)" gradientUnits="userSpaceOnUse">
			<stop stop-color="#2565c6" offset="0"/>
			<stop stop-color="#197cd7" offset=".25231"/>
			<stop stop-color="#3e91e5" offset="1"/>
		</linearGradient>
		<linearGradient id="c-6" x1="48.918" x2="35.044" y1="46.214" y2="33.714" gradientUnits="userSpaceOnUse">
			<stop stop-color="#7cf0ff" stop-opacity=".2" offset="0"/>
			<stop stop-color="#34e1ff" stop-opacity="0" offset="1"/>
		</linearGradient>
		<radialGradient id="b-2" cx="7.5836" cy="45.157" r="30" gradientTransform="matrix(2.4121,0,0,2.4925,-12.294,-54.03)" gradientUnits="userSpaceOnUse">
			<stop stop-color="#2795d8" offset="0"/>
			<stop stop-color="#3c9df1" offset="1"/>
		</radialGradient>
		<radialGradient id="a-2" cx="46.306" cy="38.848" r="14.161" gradientTransform="matrix(1.8203 1.4347 -1.8968 2.4066 36.393 -111.43)" gradientUnits="userSpaceOnUse">
			<stop stop-color="#0a003d" stop-opacity=".30682" offset="0"/>
			<stop stop-color="#241254" stop-opacity=".0039216" offset="1"/>
		</radialGradient>
		<linearGradient id="linearGradient48967" x1="62.456" x2="62.456" y1="10.772" y2=".52221" gradientUnits="userSpaceOnUse">
			<stop stop-color="#1871c4" offset="0"/>
			<stop stop-color="#1383e9" offset="1"/>
		</linearGradient>
	</defs>
	<metadata>
		<rdf:RDF>
			<cc:Work rdf:about="">
				<dc:format>image/svg+xml</dc:format>
				<dc:type rdf:resource="http://purl.org/dc/dcmitype/StillImage"/>
			</cc:Work>
		</rdf:RDF>
	</metadata>
	<path d="m4 0h60v62h-60z" fill="url(#linearGradient48967)"/>
	<path d="m60 2v31l-24.322 29h25.322v-59z" fill="url(#a-2)"/>
	<path d="m0 2h60v31l-26 31h-34z" fill="url(#b-2)"/>
	<path d="m0 2h60v31l-26 31h-34z" fill="url(#c-6)"/>
	<rect y="2" width="60" height="1" fill="#63e5ff" fill-opacity=".26293" stop-color="#000000" style="-inkscape-stroke:none;paint-order:stroke fill markers"/>
	<rect x="4" width="60" height="1" fill="#4ce9ff" fill-opacity=".16374" stop-color="#000000" style="-inkscape-stroke:none;paint-order:stroke fill markers"/>
	<rect transform="rotate(90)" x="2" y="-1" width="62" height="1" fill="#000000" fill-opacity=".03" stop-color="#000000" style="-inkscape-stroke:none;paint-order:stroke fill markers"/>
	<path d="m34 64 26-31c-2.3286 2.7764-4.3614 3-11 3h-12v15c0 6.6441 0.04437 9.3702-3 13z" fill="url(#d-7)"/>
	<path d="m60 33c-2.3286 2.7764-4.3614 3-11 3h-11.5" fill="none" stroke="url(#linearGradient82616)" stroke-linecap="round" stroke-opacity=".9954"/>
	<path d="m29.12 2c0.1452 12.52-9.276 23.95-29.12 29.62v0.5625c19.32-4.819 35.68-14.79 38.31-30.19h-9.188zm18.97 14.91c-19.76 0.0242-38.64 12-48.09 42.91v4.188h10.06c6.78-29.4 24.59-49.05 49.94-44.62v-1.094c-0.4814-0.1091-0.9553-0.216-1.438-0.3125-3.488-0.698-6.989-1.067-10.47-1.062z" color="#000000" fill="#bce1f4" style="font-variant-east_asian:normal"/>
</svg>
