<?xml version="1.0" encoding="UTF-8"?>
<!-- Created with Inkscape (http://www.inkscape.org/) -->
<svg width="64" height="64" version="1.1" xmlns="http://www.w3.org/2000/svg" xmlns:cc="http://creativecommons.org/ns#" xmlns:dc="http://purl.org/dc/elements/1.1/" xmlns:rdf="http://www.w3.org/1999/02/22-rdf-syntax-ns#" xmlns:xlink="http://www.w3.org/1999/xlink">
	<defs>
		<radialGradient id="radialGradient901" cx="31.104" cy="49.495" r="32" gradientTransform="matrix(1.0312 0 0 1.0369 -1.0763 -3.3225)" gradientUnits="userSpaceOnUse">
			<stop style="stop-color:#183612;stop-opacity:.40087" offset="0"/>
			<stop style="stop-color:#427538;stop-opacity:0" offset="1"/>
		</radialGradient>
		<linearGradient id="linearGradient928" x1="15.558" x2="48.375" y1="23.188" y2="23.188" gradientTransform="matrix(.8173 0 0 .8173 5.8358 11.914)" gradientUnits="userSpaceOnUse">
			<stop style="stop-color:#dae4d9" offset="0"/>
			<stop style="stop-color:#fff" offset=".013576"/>
			<stop style="stop-color:#fff" offset=".13798"/>
			<stop style="stop-color:#fff" offset=".15301"/>
			<stop style="stop-color:#d2dfd1" offset=".16852"/>
			<stop style="stop-color:#9bb797" offset=".27365"/>
			<stop style="stop-color:#cedccd" offset=".27947"/>
			<stop style="stop-color:#dde6dc" offset=".30219"/>
			<stop style="stop-color:#fff" offset=".31035"/>
			<stop style="stop-color:#fff" offset=".38142"/>
			<stop style="stop-color:#fff" offset=".39114"/>
			<stop style="stop-color:#e7eee6" offset=".40985"/>
			<stop style="stop-color:#eef3ed" offset=".59274"/>
			<stop style="stop-color:#eef3ed" offset=".60675"/>
			<stop style="stop-color:#9cb798" offset=".62076"/>
			<stop style="stop-color:#9cb898" offset=".62652"/>
			<stop style="stop-color:#c5d5c3" offset=".69985"/>
			<stop style="stop-color:#d7e2d6" offset=".70561"/>
			<stop style="stop-color:#d4e0d3" offset=".72538"/>
			<stop style="stop-color:#f2f5f1" offset=".72992"/>
			<stop style="stop-color:#fff" offset=".82425"/>
			<stop style="stop-color:#f7f9f6" offset=".84402"/>
			<stop style="stop-color:#cedccc" offset=".86544"/>
			<stop style="stop-color:#9cb798" offset="1"/>
		</linearGradient>
		<linearGradient id="linearGradient947" x1="47.972" x2="48.469" y1="44.938" y2="44.938" gradientUnits="userSpaceOnUse">
			<stop style="stop-color:#a0ba9c" offset="0"/>
			<stop style="stop-color:#7c9c77" offset="1"/>
		</linearGradient>
		<linearGradient id="linearGradient949" x1="15.75" x2="17.992" y1="44.594" y2="44.938" gradientUnits="userSpaceOnUse">
			<stop style="stop-color:#709a6b" offset="0"/>
			<stop style="stop-color:#c7d8c5" offset=".065495"/>
			<stop style="stop-color:#9ebb9a" offset="1"/>
		</linearGradient>
		<linearGradient id="linearGradient955" x1="12" x2="19.035" y1="34" y2="34" gradientTransform="matrix(-1 0 0 1 64.002 0)" gradientUnits="userSpaceOnUse">
			<stop style="stop-color:#73956e" offset="0"/>
			<stop style="stop-color:#d5e1d4" offset=".072888"/>
			<stop style="stop-color:#d5e1d4" offset=".17615"/>
			<stop style="stop-color:#a9c2a7" offset=".79305"/>
			<stop style="stop-color:#92b28e" offset=".80189"/>
			<stop style="stop-color:#62855d" offset="1"/>
		</linearGradient>
		<linearGradient id="linearGradient999" x1="12" x2="19.035" y1="34" y2="34" gradientUnits="userSpaceOnUse">
			<stop style="stop-color:#fff" offset="0"/>
			<stop style="stop-color:#f6f8f6" offset=".072888"/>
			<stop style="stop-color:#e6ede5" offset=".072888"/>
			<stop style="stop-color:#e1e9df" offset=".78728"/>
			<stop style="stop-color:#92b28e" offset=".79324"/>
			<stop style="stop-color:#62855d" offset="1"/>
		</linearGradient>
		<radialGradient id="radialGradient1146" cx="30.789" cy="28.858" r="20" gradientTransform="translate(0 -.61177)" gradientUnits="userSpaceOnUse">
			<stop style="stop-color:#e1eeef" offset="0"/>
			<stop style="stop-color:#cbe0c6" offset="1"/>
		</radialGradient>
		<radialGradient id="radialGradient1226" cx="31.553" cy="-7.2028" r="32" gradientTransform="matrix(1 0 0 .32458 0 6.5372)" gradientUnits="userSpaceOnUse">
			<stop style="stop-color:#f9ff92;stop-opacity:.031838" offset="0"/>
			<stop style="stop-color:#91e5e5;stop-opacity:.34118" offset="1"/>
		</radialGradient>
		<radialGradient id="radialGradient2369" cx="32.013" cy="39.52" r="23.725" gradientTransform="matrix(1.2893 0 0 1.2893 -9.2618 -10.472)" gradientUnits="userSpaceOnUse">
			<stop style="stop-color:#dcead9;stop-opacity:0" offset="0"/>
			<stop style="stop-color:#001d26;stop-opacity:0" offset=".70189"/>
			<stop style="stop-color:#002423;stop-opacity:.99608" offset="1"/>
		</radialGradient>
		<radialGradient id="radialGradient54189" cx="32.013" cy="55.165" r="24.473" gradientTransform="matrix(1.5499 0 0 1.5499 -17.602 -30.332)" gradientUnits="userSpaceOnUse">
			<stop style="stop-color:#b6ffad;stop-opacity:.23761" offset="0"/>
			<stop style="stop-color:#9cf691;stop-opacity:.0054988" offset="1"/>
		</radialGradient>
		<linearGradient id="linearGradient72857" x1="32.013" x2="32.013" y1="42.929" y2="34.364" gradientTransform="matrix(1.8517 0 0 1.8517 -26.078 -30.652)" gradientUnits="userSpaceOnUse">
			<stop style="stop-color:#fff" offset="0"/>
			<stop style="stop-color:#d5dcce" offset="1"/>
		</linearGradient>
	</defs>
	<metadata>
		<rdf:RDF>
			<cc:Work rdf:about="">
				<dc:format>image/svg+xml</dc:format>
				<dc:type rdf:resource="http://purl.org/dc/dcmitype/StillImage"/>
			</cc:Work>
		</rdf:RDF>
	</metadata>
	<path d="m0 1 2-1h60l2 1v15h-64z" style="fill:#a2ff65"/>
	<path d="m0 1 2-1h60l2 1v15h-64z" style="fill:url(#radialGradient1226)"/>
	<path d="m0 15h64v47l-2 2h-60l-2-2z" style="color:#000000;fill:#7bc64b"/>
	<path d="m0 15h64v47l-2 2h-60l-2-2z" style="fill:#6eb441"/>
	<path d="m0 15h64v47l-2 2h-60l-2-2z" style="fill:url(#radialGradient901)"/>
	<path d="m64 17-2-2 2-1z" style="fill:#8ac763;font-variant-east_asian:normal"/>
	<path d="m0 17 2-2-2-1z" style="fill:#aeff74;font-variant-east_asian:normal"/>
	<path d="m4.2135 18.704 1.7218 2.6005-1.8643 2.7192h1.0806l1.3774-2.0661 1.3418 2.0661h1.1399l-1.8643-2.7073 1.7693-2.6123h-1.0568l-1.2824 1.983-1.2587-1.983zm5.0822 0v0.7837h2.7073l-2.8142 3.9066v0.62933h3.9897v-0.7837h-2.7786l2.7667-3.8235v-0.71245z" style="color:#000000;fill-opacity:.37482;fill:#00356b;font-variant-east_asian:normal"/>
	<g transform="matrix(.8173 0 0 .8173 5.8358 11.914)" style="stroke-width:1.2235">
		<circle cx="32.013" cy="33.887" r="23.725" style="fill-opacity:.33673;fill:url(#radialGradient2369);paint-order:stroke fill markers;stop-color:#000000;stroke-width:1.497"/>
		<circle cx="32.013" cy="33.887" r="23.725" style="fill-opacity:.13543;fill:#1c4a54;paint-order:stroke fill markers;stop-color:#000000;stroke-width:1.497"/>
		<circle cx="32.013" cy="33.887" r="23.725" style="fill:none;paint-order:stroke fill markers;stop-color:#000000;stroke-width:1.497;stroke:url(#radialGradient54189)"/>
		<g>
			<path d="m29 14c-0.554 0-1 0.446-1 1v4.5625c-1.1967 0.33005-2.3182 0.80705-3.375 1.4062l-3.2188-3.2188c-0.19587-0.19587-0.46313-0.3125-0.71875-0.3125s-0.52288 0.11663-0.71875 0.3125l-4.2188 4.2188-0.28225 1.7873 3.501 2.869c-0.5992 1.0568-1.0762 2.1783-1.4062 3.375h-4.5625c-0.554 0-1 0.446-1 1v6c0 0.554 0.446 1 1 1h4.5625c0.33005 1.1967 0.80705 2.3182 1.4062 3.375l-3.2188 3.2188-0.28619 1.8163 4.5049 3.8399c0.39174 0.39174 1.0458 0.39174 1.4375 0l3.2188-3.2188c1.0568 0.5992 2.1783 1.0762 3.375 1.4062v4.5625c0 0.554 0.446 1 1 1h6c0.554 0 1-0.446 1-1v-4.5625c1.1967-0.33005 2.3182-0.80705 3.375-1.4062l3.2188 3.2188c0.39174 0.39174 1.0458 0.39174 1.4375 0l4.4973-3.8921-0.27852-1.7642-3.2188-3.2188c0.5992-1.0568 1.0762-2.1783 1.4062-3.375h4.5625c0.554 0 1-0.446 1-1v-6c0-0.554-0.446-1-1-1h-4.5625c-0.33005-1.1967-0.80705-2.3182-1.4062-3.375l3.5049-2.8399-0.28619-1.8163-4.2188-4.2188c-0.19587-0.19587-0.46313-0.3125-0.71875-0.3125s-0.52288 0.11663-0.71875 0.3125l-3.2188 3.2188c-1.0568-0.5992-2.1783-1.0762-3.375-1.4062v-4.5625c0-0.554-0.446-1-1-1zm3 11.612c4.9706 0 9 4.0294 9 9s-4.0294 9-9 9-9-4.0294-9-9 4.0294-9 9-9z" style="fill:#e2e7dd"/>
			<path d="m32 25.612c-4.9706 0-9 4.0294-9 9s4.0294 9 9 9 9-4.0294 9-9-4.0294-9-9-9z" style="fill:#acc4a5"/>
			<path d="m23.006 34.307c-0.0034 0.10165-0.0072 0.2034-0.0072 0.30588 0 4.9706 4.0315 8.9997 9.0021 8.9997s8.9997-4.0291 8.9997-8.9997c0-0.10248-0.0038-0.20423-0.0072-0.30588-0.16144 4.8288-4.1244 8.6938-8.9925 8.6938-4.8681 0-8.8335-3.865-8.9949-8.6938z" style="fill:url(#linearGradient72857);stroke-width:1.2235"/>
			<path d="m29 14.612c-0.554 0-1 0.446-1 1v4.5625c-1.1967 0.33005-2.3182 0.80705-3.375 1.4062l-3.2188-3.2188c-0.19587-0.19587-0.46313-0.3125-0.71875-0.3125s-0.52288 0.11663-0.71875 0.3125l-4.2188 4.2188c-0.39174 0.39174-0.39174 1.0458 0 1.4375l3.2188 3.2188c-0.5992 1.0568-1.0762 2.1783-1.4062 3.375h-4.5625c-0.554 0-1 0.446-1 1v6c0 0.554 0.446 1 1 1h4.5625c0.33005 1.1967 0.80705 2.3182 1.4062 3.375l-3.2188 3.2188c-0.39174 0.39174-0.39174 1.0458 0 1.4375l4.2188 4.2188c0.39174 0.39174 1.0458 0.39174 1.4375 0l3.2188-3.2188c1.0568 0.5992 2.1783 1.0762 3.375 1.4062v4.5625c0 0.554 0.446 1 1 1h6c0.554 0 1-0.446 1-1v-4.5625c1.1967-0.33005 2.3182-0.80705 3.375-1.4062l3.2188 3.2188c0.39174 0.39174 1.0458 0.39174 1.4375 0l4.2188-4.2188c0.39174-0.39174 0.39174-1.0458 0-1.4375l-3.2188-3.2188c0.5992-1.0568 1.0762-2.1783 1.4062-3.375h4.5625c0.554 0 1-0.446 1-1v-6c0-0.554-0.446-1-1-1h-4.5625c-0.33005-1.1967-0.80705-2.3182-1.4062-3.375l3.2188-3.2188c0.39174-0.39174 0.39174-1.0458 0-1.4375l-4.2188-4.2188c-0.19587-0.19587-0.46313-0.3125-0.71875-0.3125s-0.52288 0.11663-0.71875 0.3125l-3.2188 3.2188c-1.0568-0.5992-2.1783-1.0762-3.375-1.4062v-4.5625c0-0.554-0.446-1-1-1zm3 8.9752c6.0889 0 11.025 4.9359 11.025 11.025s-4.9359 11.025-11.025 11.025-11.025-4.9359-11.025-11.025 4.9359-11.025 11.025-11.025z" style="fill:url(#radialGradient1146)"/>
			<path transform="matrix(1.2235,0,0,1.2235,-7.1404,-14.577)" d="m29.537 23.355c-0.45278 0-0.81641 0.36558-0.81641 0.81836v0.49998c0-0.45278 0.36362-0.81836 0.81641-0.81836h4.9043c0.45278 0 0.81641 0.36558 0.81641 0.81836v-0.49998c0-0.45278-0.36362-0.81836-0.81641-0.81836zm-6.793 2.8105c-0.20892 0-0.42781 0.09382-0.58789 0.25391l-3.4473 3.4492-0.23047 0.96088 0.01172 0.0098c0.02407-0.1728 0.08818-0.34013 0.21875-0.4707l3.4473-3.4492c0.16008-0.16008 0.37897-0.25391 0.58789-0.25391s0.42781 0.09382 0.58789 0.25391l2.6289 2.6309c0.86374-0.48973 1.7817-0.87869 2.7598-1.1484v-0.49998c-0.97806 0.26974-1.896 0.65871-2.7598 1.1484l-2.6289-2.6309c-0.16008-0.16008-0.37897-0.25391-0.58789-0.25391zm18.49 0c-0.20892 0-0.42586 0.09382-0.58594 0.25391l-2.6309 2.6309c-0.86374-0.48973-1.7817-0.87869-2.7598-1.1484v0.49998c0.97807 0.26975 1.896 0.65871 2.7598 1.1484l2.6309-2.6309c0.16008-0.16008 0.37702-0.25391 0.58594-0.25391s0.42781 0.09382 0.58789 0.25391l3.4473 3.4492c0.13655 0.13655 0.20258 0.31286 0.22266 0.49414l0.01172-0.0098-0.23438-0.98438-3.4473-3.4492c-0.16008-0.16008-0.37897-0.25391-0.58789-0.25391z" style="fill:url(#linearGradient928)"/>
			<path d="m18.566 27.444c-0.40188 0.81663-0.7564 1.658-1.0037 2.5546h-4.562c-0.554 0-1.0013 0.4473-1.0013 1.0013v0.61173c0-0.554 0.4473-1.0013 1.0013-1.0013h4.562c0.33005-1.1967 0.80835-1.7057 1.4076-2.7625z" style="fill:url(#linearGradient999)"/>
			<path d="m45.436 27.444c0.40188 0.81663 0.7564 1.658 1.0037 2.5546h4.562c0.554 0 1.0013 0.4473 1.0013 1.0013v0.61173c0-0.554-0.4473-1.0013-1.0013-1.0013h-4.562c-0.33005-1.1967-0.80835-1.7057-1.4076-2.7625z" style="fill:url(#linearGradient955)"/>
			<path d="m18.566 41.778-2.8151 2.8151-0.28677 1.2044 0.01434 0.01199c0.02485-0.22122 0.10576-0.43794 0.27243-0.6046l3.219-3.219c-0.15024-0.26498-0.26938 0.06537-0.40386-0.20791z" style="fill:url(#linearGradient949)"/>
			<path d="m45.436 41.778c-0.13455 0.27344-0.25354-0.05723-0.40386 0.20791l3.2166 3.219c0.15447 0.15447 0.23022 0.35294 0.26287 0.55681l0.01673-0.01434-0.2796-1.1542z" style="fill:url(#linearGradient947)"/>
			<path d="m29 38.611v-8l8 4z" style="fill-opacity:.30672;fill:#003308"/>
		</g>
	</g>
</svg>
