<?xml version="1.0" encoding="UTF-8"?>
<!-- Created with Inkscape (http://www.inkscape.org/) -->
<svg width="64" height="64" version="1.1" xmlns="http://www.w3.org/2000/svg" xmlns:cc="http://creativecommons.org/ns#" xmlns:dc="http://purl.org/dc/elements/1.1/" xmlns:rdf="http://www.w3.org/1999/02/22-rdf-syntax-ns#" xmlns:xlink="http://www.w3.org/1999/xlink">
	<defs>
		<radialGradient id="b" cx="32" cy="39.5" r="32" gradientTransform="matrix(1 0 0 .76562 0 9.2578)" gradientUnits="userSpaceOnUse">
			<stop stop-color="#7da5cb" offset="0"/>
			<stop stop-color="#9ab7d4" offset="1"/>
		</radialGradient>
		<radialGradient id="a" cx="32" cy="8" r="32" gradientTransform="matrix(1 0 0 .25 0 6)" gradientUnits="userSpaceOnUse">
			<stop stop-color="#daebf8" offset="0"/>
			<stop stop-color="#d4e8f7" offset="1"/>
		</radialGradient>
	</defs>
	<metadata>
		<rdf:RDF>
			<cc:Work rdf:about="">
				<dc:format>image/svg+xml</dc:format>
				<dc:type rdf:resource="http://purl.org/dc/dcmitype/StillImage"/>
				<dc:title/>
			</cc:Work>
		</rdf:RDF>
	</metadata>
	<path d="m0 1 2-1h60l2 1v15h-64z" color="#000000" fill="url(#a)"/>
	<path d="m0 15h64v47l-2 2h-60l-2-2z" fill="#46729d"/>
	<path d="m0 15h64v47l-2 2h-60l-2-2z" fill="url(#b)"/>
	<path d="m64 17-2-2 2-1z" fill="#b7cfe5"/>
	<path d="m0 17 2-2-2-1z" fill="#e3f6ff"/>
	<path d="m25 27c-0.554 0-1 0.446-1 1v4h3v-2h15v15h-15v-10h-3v12c0 0.554 0.446 1 1 1h19c0.554 0 1-0.446 1-1v-19c0-0.554-0.446-1-1-1z" fill="#2559c9" style="paint-order:normal"/>
	<path d="m20 32c-0.554 0-1 0.446-1 1v19c0 0.554 0.446 1 1 1h19c0.554 0 1-0.446 1-1v-4h-3v2h-15v-15h15v10h3v-12c0-0.554-0.446-1-1-1z" fill="#bb6227" style="paint-order:normal"/>
</svg>
