<svg width="64" height="64" xmlns="http://www.w3.org/2000/svg"><defs><radialGradient id="a" cx="46.87" cy="36.89" r="14.16" gradientTransform="matrix(1.44 0 0 2.118 -19.19 -35.79)" gradientUnits="userSpaceOnUse"><stop stop-color="#002455" stop-opacity=".425" offset="0"/><stop stop-color="#0d2548" stop-opacity=".26" offset="1"/></radialGradient><radialGradient id="c" cx="12.664" cy="21.493" r="30" gradientTransform="matrix(1 0 0 .9443 0 1.69)" gradientUnits="userSpaceOnUse"><stop stop-color="#dadb00" stop-opacity=".402" offset="0"/><stop stop-color="#46f714" stop-opacity="0" offset="1"/></radialGradient><linearGradient id="b" x1="37" x2="48.96" y1="36" y2="46.16" gradientUnits="userSpaceOnUse"><stop stop-color="#b4fff4" stop-opacity="0" offset="0"/><stop stop-color="#b4fff4" stop-opacity=".199" offset=".59"/><stop stop-color="#8effef" stop-opacity=".374" offset=".7"/><stop stop-color="#8effef" stop-opacity=".415" offset=".808"/><stop stop-color="#8effef" stop-opacity=".474" offset=".902"/><stop stop-color="#8effef" stop-opacity=".557" offset="1"/></linearGradient><linearGradient id="d" x1="82.74" x2="71" y1="79.42" y2="69" gradientTransform="translate(-34 -33)" gradientUnits="userSpaceOnUse"><stop stop-color="#1a9dca" offset="0"/><stop stop-color="#09a7d6" offset=".252"/><stop stop-color="#13cde9" offset="1"/></linearGradient></defs><path d="M4 0h60v62H4z" fill="#1aa2d9"/><path d="M60 2 40 26l-4.32 36H64V6z" fill="url(#a)"/><path d="M0 2h60v31l-1.971 2.351L42.999 40l-7.334 22.01-1.666 1.986h-34z" fill="#12d8e9"/><path d="M0 2v34.44l36.77 21.22c.428-7.116 5.227-10.03 5.227-17.66 6.877-.498 13.87-2.235 18-7v-3.438l-47.75-27.56zm60 31L38.49 58.65l.012.008z" fill="#14f7f2"/><path d="M0 2v62h34c3.044-3.63 3-6.356 3-13V36h12c6.639 0 8.671-.224 11-3V2H0z" color="#000" fill="url(#b)"/><path d="M0 2v34.44l36.77 21.22c.428-7.116 5.227-10.03 5.227-17.66 6.877-.498 13.87-2.235 18-7v-3.438l-47.75-27.56zm60 31L38.49 58.65l.012.008z" fill="url(#c)"/><g fill="#ffcc1c" fill-opacity=".172"><path d="M1.281 6 .283 20.054 0 24.03V40.62l.762-11.06.14-2.032.04-.568.902-13.09.158 3.478.253 5.584.519 11.452.101 2.236v.032c0 .193.262.343.562.343s.594-.15.594-.343v-.032l.304-6.3.54-11.2.531 2c.095.333 1.031.333 1.125 0l1.47-7.094.182 4.05.036.806.61 13.526.265 5.868c.095.333 1.031.333 1.125 0l.208-3.432.794-13.146.03-.482 1.655 8.03v.063c.107.333 1.045.336 1.125 0v-.093l.02-.167.918-7.49.562 2.032c.134.455 1.1.376 1.125-.094V18.34l.546 4.745.892 7.755v.094c-.015.193.231.365.531.375s.58-.15.594-.344l.232-1.114 1.83-8.792.056.214.6 2.317c.05.22.306.401.563.406H60v-1H23.001l-1.219-4.438c-.094-.333-1.031-.333-1.125 0l-1.305 6.217-.539 2.564-.987-8.622A475414.114 475414.114 0 0 0 16.657 8.5v-.03c-.118-.333-1.061-.308-1.125.03v10.722l-.188-.656c-.106-.333-1.014-.305-1.094.03v.095l-.547 4.325-.359 2.83-1.822-8.741-.022-.102v-.063c-.015-.193-.293-.353-.594-.344-.3.01-.546.182-.53.375l-.597 9.6-.06.96-.528-12.095-.253-5.785v-.062c-.064-.339-1.007-.364-1.125-.032v.063l-.48 2.256-.164.775-1.262 5.938-.813-3.312c-.022-.193-.324-.358-.625-.344-.3.014-.553.213-.53.406l-.074 1.457-.396 7.918-.875-18.72-.5.003L1.282 6z" style="text-decoration-line:none;text-indent:0;text-transform:none"/><path d="M1.281 6 .283 20.054 0 24.03V40.62l.762-11.06.14-2.032.04-.568.902-13.09.158 3.478.253 5.584.519 11.452.101 2.236v.032c0 .193.262.343.562.343s.594-.15.594-.343v-.032l.304-6.3.54-11.2.531 2c.095.333 1.031.333 1.125 0l1.47-7.094.182 4.05.036.806.61 13.526.265 5.868c.095.333 1.031.333 1.125 0l.208-3.432.794-13.146.03-.482 1.655 8.03v.063c.107.333 1.045.336 1.125 0v-.093l.02-.167.918-7.49.562 2.032c.134.455 1.1.375 1.125-.094V18.34l.546 4.745.892 7.755v.094c-.015.193.231.365.531.375s.58-.15.594-.344l.232-1.114 1.83-8.792.056.214.6 2.317c.05.22.306.402.563.407H60v-1H23.001l-1.219-4.438c-.094-.334-1.031-.334-1.125 0l-1.305 6.216-.539 2.564-.987-8.622A475414.114 475414.114 0 0 0 16.657 8.5v-.03c-.118-.333-1.061-.308-1.125.03v10.722l-.188-.656c-.106-.333-1.014-.305-1.094.03v.095l-.547 4.325-.359 2.83-1.822-8.741-.022-.102v-.063c-.015-.193-.293-.353-.594-.344-.3.01-.546.182-.53.375l-.597 9.6-.06.96-.528-12.095-.253-5.785v-.062c-.064-.339-1.007-.364-1.125-.032v.063l-.48 2.256-.164.775-1.262 5.938-.813-3.312c-.022-.193-.324-.358-.625-.344s-.553.213-.53.406l-.074 1.457-.396 7.918-.875-18.72-.5.003L1.282 6z" style="text-decoration-line:none;text-indent:0;text-transform:none"/><path d="M1.281 6 .283 20.054 0 24.03V40.62l.762-11.06.14-2.032.04-.568.902-13.09.158 3.478.253 5.584.519 11.452.101 2.236v.032c0 .193.262.343.562.343s.594-.15.594-.343v-.032l.304-6.3.54-11.2.531 2c.095.333 1.031.333 1.125 0l1.47-7.094.182 4.05.036.806.61 13.526.265 5.868c.095.333 1.031.333 1.125 0l.208-3.432.794-13.146.03-.482 1.655 8.03v.063c.107.333 1.045.336 1.125 0v-.093l.02-.167.918-7.49.562 2.032c.134.455 1.1.375 1.125-.094V18.34l.546 4.745.892 7.755v.094c-.015.193.231.365.531.375s.58-.15.594-.344l.232-1.114 1.83-8.792.056.214.6 2.317c.05.22.306.402.563.407H60v-1H23.001l-1.219-4.438c-.094-.334-1.031-.334-1.125 0l-1.305 6.216-.539 2.564-.987-8.622-1.079-9.427-.09-.79v-.032c-.118-.332-1.061-.307-1.125.031v10.722l-.188-.656c-.106-.333-1.014-.305-1.094.03v.095l-.547 4.325-.359 2.83-1.822-8.741-.022-.102v-.063c-.015-.193-.293-.353-.594-.344-.3.01-.546.182-.53.375l-.597 9.6-.06.96-.528-12.095-.253-5.785v-.062c-.064-.339-1.007-.364-1.125-.032v.063l-.48 2.256-.164.775-1.262 5.938-.813-3.312c-.022-.193-.324-.358-.625-.344s-.553.213-.53.406l-.074 1.457-.396 7.918-.875-18.72-.5.003L1.282 6z" style="text-decoration-line:none;text-indent:0;text-transform:none"/><path d="M1.281 6 .283 20.054 0 24.03v16.59l.762-11.06.14-2.032.04-.568.902-13.09.158 3.478.253 5.583a1954110.77 1954110.77 0 0 0 .62 13.69v.03c0 .193.262.344.562.344.3 0 .594-.15.594-.344v-.03l.304-6.3.54-11.2.531 2c.095.333 1.031.333 1.125 0l1.47-7.094.182 4.05.036.806.61 13.526.265 5.867c.095.334 1.031.334 1.125 0l.208-3.431.794-13.146.03-.482 1.655 8.03v.063c.107.333 1.045.336 1.125 0v-.094l.02-.167.918-7.488.562 2.03c.134.456 1.1.376 1.125-.093V18.34l.546 4.745.892 7.755v.094c-.015.193.231.365.532.375s.578-.15.593-.344l.232-1.115 1.83-8.79.056.213.6 2.317c.05.22.306.401.563.406H60v-1H23l-1.219-4.438c-.094-.333-1.03-.333-1.125 0 0 0-.76 3.625-1.305 6.216l-.539 2.565-.987-8.622-1.078-9.427-.09-.79v-.032c-.119-.332-1.062-.307-1.126.031v10.722l-.187-.657c-.107-.332-1.014-.304-1.094.032v.093l-.548 4.326-.359 2.83-1.822-8.741a47.127 47.127 0 0 0-.022-.102v-.063c-.014-.193-.293-.353-.593-.344-.3.01-.547.182-.532.375l-.596 9.6-.06.96-.528-12.095-.253-5.785v-.063c-.064-.338-1.007-.363-1.125-.03v.062l-.48 2.256-.164.775-1.262 5.938-.813-3.312c-.022-.193-.324-.359-.625-.344-.3.014-.553.213-.53.406l-.074 1.457-.396 7.918-.875-18.72-.5.002L1.282 6z" style="text-decoration-line:none;text-indent:0;text-transform:none"/><path d="M1.281 6 .283 20.053 0 24.03v16.59l.762-11.06.14-2.031.04-.569.902-13.089.158 3.477.253 5.584.519 11.452.101 2.236v.032c0 .193.262.343.563.343.3 0 .593-.15.593-.344v-.03s.14-2.879.304-6.3l.54-11.2.531 2c.095.333 1.031.333 1.125 0l1.47-7.093.182 4.05.036.806.61 13.525.265 5.867c.095.334 1.031.334 1.125 0l.208-3.431.794-13.147.03-.481 1.655 8.03v.063c.107.332 1.045.335 1.125 0v-.094l.02-.167.918-7.489.562 2.031c.134.456 1.1.376 1.125-.094V18.34a133286.273 133286.273 0 0 0 1.439 12.5v.093c-.015.193.23.366.53.375s.58-.15.595-.343l.232-1.115 1.83-8.79.055.213.6 2.317c.05.22.307.401.563.406H60v-1H23.001l-1.22-4.438c-.094-.333-1.03-.333-1.124 0l-1.306 6.216-.538 2.565-.987-8.622-1.08-9.427-.09-.79v-.031c-.117-.333-1.06-.307-1.125.03v10.722l-.187-.657c-.107-.332-1.014-.304-1.094.032v.093l-.548 4.325-.359 2.831-1.822-8.74-.022-.103v-.063c-.015-.193-.293-.353-.593-.344-.3.01-.547.182-.532.375a1149048.681 1149048.681 0 0 0-.656 10.56 621938.837 621938.837 0 0 1-.781-17.88v-.062c-.064-.338-1.007-.363-1.125-.031v.062l-.48 2.256-.164.776-1.262 5.937-.813-3.312c-.022-.193-.324-.358-.625-.343-.3.014-.553.213-.53.406l-.074 1.457-.396 7.917-.875-18.72-.5.003L1.281 6z" style="text-decoration-line:none;text-indent:0;text-transform:none"/><path d="M1.282 6.001.283 20.054.001 24.03v16.588L.761 29.56l.14-2.03.04-.57.902-13.087L2 17.349l.254 5.583c.189 4.177.398 8.787.52 11.45l.1 2.236v.03c0 .194.263.344.563.344.3 0 .593-.15.594-.343v-.032a196728.09 196728.09 0 0 0 .843-17.496l.532 2c.094.334 1.03.334 1.124 0l1.47-7.091.182 4.05.036.805.61 13.522.266 5.867c.094.334 1.03.334 1.124 0l.208-3.43.795-13.145.029-.482 1.656 8.03v.063c.107.332 1.045.335 1.125 0v-.094l.02-.167.917-7.488.563 2.03c.134.456 1.1.376 1.125-.094v-5.155a50029.871 50029.871 0 0 0 1.439 12.498v.093c-.015.194.23.366.53.375s.58-.15.595-.343l.232-1.115c.538-2.589 1.83-8.79 1.83-8.789l.055.214.601 2.316c.05.22.306.402.563.407l8.548-.001h28.949v-.999H23.005l-1.22-4.438c-.094-.333-1.03-.333-1.125 0a18734.187 18734.187 0 0 0-1.844 8.78l-.988-8.62-1.079-9.427-.09-.79V8.47c-.118-.332-1.061-.307-1.125.032v.03a37545.081 37545.081 0 0 0-.001 10.69l-.188-.657c-.106-.332-1.013-.304-1.093.031v.094a15624.07 15624.07 0 0 0-.907 7.155l-1.823-8.74-.021-.102v-.062c-.015-.194-.293-.354-.594-.344-.3.01-.546.181-.53.375A135031.107 135031.107 0 0 0 9.72 27.53a147933.77 147933.77 0 0 1-.782-17.876v-.062c-.064-.339-1.007-.364-1.125-.032v.063l-.48 2.255-.164.775-1.262 5.937-.812-3.31c-.023-.194-.325-.359-.625-.344-.3.014-.554.213-.531.406l-.073 1.457-.396 7.916-.875-18.72-.5.003-.812.004z" style="text-decoration-line:none;text-indent:0;text-transform:none"/><path d="m1.283 6.004-.998 14.05-.283 3.976v5.075L0 34.365v6.247l.761-11.051.14-2.03.04-.568c.453-6.587.901-13.085.902-13.086L2 17.351l.254 5.583.52 11.443.101 2.235v.03c0 .194.262.344.563.344.3 0 .593-.15.593-.344v-.031a77554.73 77554.73 0 0 0 .844-17.49l.53 2c.095.334 1.031.334 1.125.001L8 14.034l.182 4.05.037.805.61 13.515.266 5.866c.094.334 1.03.334 1.124 0l.208-3.428.795-13.143.03-.482 1.655 8.03v.062c.107.333 1.045.336 1.125 0v-.093l.02-.167.918-7.487.563 2.03c.134.454 1.1.375 1.124-.095V22.39l.001-4.046.547 4.744c.406 3.534.892 7.75.893 7.749v.094c-.015.193.23.365.531.374.3.01.578-.15.594-.343l.232-1.115 1.83-8.784.056.213.601 2.316c.05.22.306.401.563.406l8.546-.001 22.602.001h6.344v-1H23.01l-1.22-4.436c-.094-.334-1.03-.334-1.125 0a6138.308 6138.308 0 0 0-1.845 8.776l-.99-8.616c-.434-3.8-.89-7.776-1.08-9.425l-.09-.79v-.03c-.118-.333-1.06-.307-1.125.03v.032a15872.458 15872.458 0 0 0-.002 10.685l-.187-.656c-.107-.332-1.014-.304-1.094.031v.094a5875.56 5875.56 0 0 0-.907 7.152 26191.314 26191.314 0 0 1-1.844-8.837v-.063c-.015-.193-.293-.353-.594-.344-.3.01-.546.182-.53.375a45094.255 45094.255 0 0 0-.658 10.551A46101.254 46101.254 0 0 1 8.938 9.66v-.063c-.064-.338-1.007-.363-1.125-.031v.062l-.48 2.254-.164.775-1.262 5.936-.812-3.309c-.022-.193-.324-.358-.625-.343-.3.014-.553.213-.53.406l-.073 1.457-.396 7.91L2.596 6l-.5.002-.812.004z" style="text-decoration-line:none;text-indent:0;text-transform:none"/><path d="M1.287 6.01.29 20.054.005 24.03l-.001 5.073-.002 5.253V40.6l.76-11.037c.046-.67.092-1.347.14-2.027l.039-.568.902-13.082.158 3.47c.07 1.561.16 3.52.254 5.58.19 4.172.402 8.77.522 11.429l.101 2.231v.032c0 .192.262.342.562.342s.593-.15.593-.344v-.031l.304-6.296.54-11.176.531 2c.094.333 1.03.333 1.123 0L8 14.046l.183 4.048.037.805c.175 3.892.425 9.36.611 13.497l.266 5.864c.094.334 1.03.334 1.124.001l.208-3.424.796-13.139.03-.48 1.655 8.026v.062c.107.333 1.044.336 1.124.001v-.093l.02-.167c.137-1.118.918-7.481.92-7.484l.562 2.027c.134.454 1.1.374 1.124-.095V22.39l.002-4.041c.001.002.255 2.195.547 4.742.407 3.53.894 7.741.896 7.74v.093c-.015.193.23.364.53.374.3.01.579-.151.594-.344l.232-1.114c.538-2.585 1.832-8.774 1.832-8.773l.056.213c.158.61.6 2.314.602 2.313.05.22.305.4.562.406.002-.002 3.591-.004 8.543-.004 6.87 0 16.388.004 22.594.004h6.341v-.375l.001-.624-9.203-.001h-17.24l-10.522-.001-1.22-4.433c-.095-.333-1.031-.333-1.125 0-.003 0-.766 3.618-1.31 6.206l-.539 2.563c-.002.001-.485-4.183-.992-8.607-.434-3.796-.893-7.773-1.082-9.42l-.09-.79v-.03c-.119-.332-1.06-.306-1.125.032v.03a6043.395 6043.395 0 0 0-.005 10.68l-.188-.656c-.107-.333-1.013-.305-1.093.03v.093l-.549 4.317c-.19 1.506-.358 2.827-.359 2.828-.002.003-1.62-7.74-1.824-8.723l-.022-.102v-.063c-.014-.193-.292-.353-.593-.344-.3.01-.546.182-.53.374a18751.361 18751.361 0 0 0-.658 10.539A18059.919 18059.919 0 0 1 8.938 9.67v-.063c-.065-.338-1.006-.363-1.124-.032v.063l-.48 2.25-.165.775-1.26 5.934c-.001.001-.813-3.305-.813-3.304-.022-.193-.324-.358-.624-.343-.3.015-.553.213-.53.406l-.074 1.457c-.131 2.63-.395 7.904-.396 7.9l-.875-18.71-.499.002-.812.004z" style="text-decoration-line:none;text-indent:0;text-transform:none"/><path d="M1.295 6.02.296 20.057c-.164 2.308-.283 3.968-.284 3.971-.002.005-.004 2.244-.004 5.07l-.003 5.238-.001.796-.001 5.445c-.002.01.356-5.19.757-11.007l.14-2.02.04-.567.902-13.073c0-.004.064 1.376.158 3.46.07 1.558.162 3.52.256 5.576.188 4.165.405 8.743.525 11.398.063 1.376.101 2.228.102 2.226v.031c0 .192.261.342.56.342.3-.001.593-.152.593-.345v-.03l.304-6.293c.241-5 .54-11.156.54-11.146l.53 1.998c.094.333 1.028.334 1.122.003 0 .005 1.465-7.063 1.465-7.06l.183 4.046.038.804c.175 3.885.427 9.33.614 13.46l.266 5.86c.094.333 1.028.334 1.122.002.001.004.087-1.405.209-3.415.258-4.265.686-11.25.8-13.13l.029-.48c0 .003 1.653 8.018 1.655 8.022v.062c.106.333 1.042.337 1.122.003v-.094l.02-.166c.137-1.116.919-7.472.922-7.478.001-.001.563 2.023.563 2.022.134.453 1.098.373 1.123-.096v-.062c.001-.001.002-.433.002-1.044 0-1.485.001-4.033.003-4.03.002.004.256 2.196.549 4.738.405 3.525.895 7.725.898 7.72v.094c-.014.192.231.363.53.373.3.01.578-.151.594-.344l.232-1.113c.538-2.581 1.834-8.753 1.836-8.751l.055.213c.158.608.6 2.31.603 2.308.05.219.306.4.562.404.005-.003 3.593-.008 8.536-.008 6.859 0 16.384.009 22.58.009 3.771 0 6.33 0 6.336-.002l.001-.373.001-.624c.008 0-3.898-.002-9.178-.002l-.814-.001L33.576 23a7127.3 7127.3 0 0 1-10.514-.004c-.003 0-1.221-4.425-1.224-4.426-.095-.333-1.03-.333-1.124 0-.007-.002-.77 3.61-1.313 6.194a464.427 464.427 0 0 1-.541 2.56c-.006.003-.493-4.172-.998-8.588-.434-3.79-.899-7.767-1.087-9.412-.057-.502-.09-.788-.091-.787v-.031c-.118-.33-1.059-.305-1.123.033v.031c-.004.004-.01 4.944-.01 8.098 0 1.482-.001 2.57-.002 2.567l-.188-.655c-.107-.333-1.011-.305-1.092.029v.093c-.002-.004-.297 2.311-.55 4.305-.19 1.503-.358 2.824-.36 2.826a4452.71 4452.71 0 0 1-1.847-8.803v-.062c-.015-.193-.293-.353-.593-.344-.3.009-.545.18-.53.372a8214.538 8214.538 0 0 0-.66 10.512c-.001.006-.306-6.829-.533-12.036L8.94 9.694v-.062c-.064-.338-1.004-.364-1.122-.034v.063l-.48 2.245-.165.773-1.26 5.93c0 .002-.811-3.297-.812-3.295-.022-.192-.323-.357-.623-.342-.3.015-.552.214-.53.407l-.073 1.455c-.131 2.626-.395 7.887-.396 7.879L2.605 6.015l-.498.001-.812.004z" style="text-decoration-line:none;text-indent:0;text-transform:none"/><path d="M1.309 6.041.31 20.061c-.163 2.3-.283 3.959-.286 3.966-.004.008-.008 2.245-.008 5.062 0 1.651-.005 3.486-.005 5.213 0 .268-.003.532-.003.793 0 2.991-.002 5.427-.003 5.439-.002.018.353-5.154.753-10.951l.139-2.011.041-.565c.452-6.55.9-13.039.903-13.058 0-.008.064 1.366.158 3.442.07 1.554.164 3.52.257 5.57.189 4.152.413 8.695.533 11.341.062 1.372.101 2.22.102 2.214v.031c0 .191.26.34.559.34.299-.002.59-.152.59-.345v-.031c.002-.011.141-2.884.305-6.284.24-4.985.539-11.111.54-11.09l.529 1.996c.094.333 1.025.335 1.118.005 0 .01 1.462-7.03 1.462-7.023l.183 4.041.04.801c.174 3.873.43 9.275.616 13.392.152 3.36.266 5.842.269 5.853.094.333 1.025.334 1.12.005 0 .007.087-1.395.209-3.398.256-4.253.691-11.24.804-13.112l.03-.478c.001.006 1.651 8.003 1.654 8.012v.062c.107.333 1.04.337 1.12.005v-.093l.02-.165c.136-1.113.92-7.456.927-7.467.001-.002.562 2.014.563 2.012.134.45 1.096.37 1.121-.098v-.062c.002-.002.003-.433.003-1.042 0-1.481.003-4.017.007-4.01.004.007.26 2.196.55 4.73.405 3.515.899 7.694.907 7.685v.093c-.014.191.23.362.53.37.299.01.576-.15.591-.343a2085.089 2085.089 0 0 1 2.074-9.822l.056.213c.157.607.6 2.302.605 2.299.05.218.305.398.561.402.011-.007 3.596-.016 8.524-.016 6.837 0 16.375.017 22.55.017 3.76 0 6.317-.001 6.33-.003l.001-.372.003-.622c.017-.002-3.869-.004-9.132-.004-.267 0-.538-.003-.812-.003-5.06 0-11.266.007-16.393.007-5.905 0-10.48-.004-10.5-.008-.007-.001-1.224-4.413-1.23-4.414-.095-.332-1.027-.332-1.122-.001-.014-.003-.78 3.597-1.321 6.173a221.413 221.413 0 0 1-.544 2.554c-.011.006-.505-4.15-1.01-8.552-.431-3.778-.906-7.757-1.094-9.398-.057-.5-.09-.784-.092-.783v-.03c-.118-.33-1.056-.303-1.121.034v.032c-.008.008-.02 4.94-.02 8.084 0 1.477-.002 2.56-.005 2.554l-.187-.654c-.107-.332-1.01-.305-1.09.027v.092c-.004-.007-.3 2.297-.552 4.284-.19 1.499-.359 2.817-.362 2.823-.008.01-1.626-7.68-1.83-8.66l-.022-.102v-.062c-.014-.192-.291-.353-.59-.344-.3.009-.544.179-.53.37a4026.775 4026.775 0 0 0-.662 10.463c-.004.01-.313-6.786-.54-11.976-.138-3.183-.254-5.761-.256-5.771v-.062c-.064-.338-1.002-.365-1.12-.036v.062c0-.005-.205.947-.478 2.233l-.167.77-1.259 5.924c0 .005-.809-3.282-.81-3.279-.022-.19-.323-.354-.622-.338-.298.015-.55.213-.528.406l-.074 1.454c-.13 2.617-.394 7.855-.395 7.838L2.617 6.036H2.12l-.811.005z" style="text-decoration-line:none;text-indent:0;text-transform:none"/><path d="M1.333 6.078S.707 14.82.335 20.068a431.15 431.15 0 0 1-.29 3.956c-.007.016-.014 2.249-.014 5.05 0 1.642-.011 3.45-.011 5.167 0 .266-.006.53-.006.79 0 2.974-.002 5.405-.005 5.426-.004.034.347-5.088.745-10.854l.138-1.993c.013-.187.03-.374.043-.561.449-6.514.899-12.995.903-13.03.002-.015.065 1.346.158 3.412.07 1.545.17 3.518.262 5.557.187 4.129.425 8.611.544 11.243.062 1.364.101 2.204.103 2.195v.03c0 .19.259.337.556.335.297-.002.587-.153.588-.345v-.031c.002-.02.142-2.89.305-6.271.24-4.958.537-11.032.54-10.99 0 .005.526 1.986.526 1.991.094.333 1.02.336 1.113.01.001.019 1.455-6.974 1.456-6.96l.183 4.032c.011.257.029.523.041.797.174 3.852.439 9.18.623 13.274.151 3.341.267 5.82.273 5.84.094.332 1.02.335 1.114.009.003.013.09-1.376.211-3.368.255-4.23.701-11.22.814-13.083.018-.306.029-.475.03-.473.002.01 1.647 7.977 1.652 7.994v.062c.107.332 1.035.339 1.115.009v-.092l.02-.164c.136-1.107.923-7.426.936-7.447.003-.004.562 1.999.564 1.995.135.447 1.092.365 1.118-.102v-.062c.003-.004.004-.433.004-1.038 0-1.474.007-3.99.014-3.977.008.015.265 2.2.555 4.72.402 3.494.904 7.639.918 7.622v.092c-.013.19.23.358.529.366.298.008.574-.151.59-.344.003-.003.094-.432.235-1.107.532-2.56 1.842-8.647 1.849-8.64l.056.213c.156.603.6 2.287.608 2.282.05.216.305.394.56.398.022-.012 3.602-.03 8.503-.03 6.799 0 16.359.032 22.5.032 3.74 0 6.292-.002 6.316-.005l.003-.37.004-.619c.032-.004-3.816-.008-9.05-.008-.266 0-.536-.005-.808-.005-5.033 0-11.259.013-16.358.013-5.873 0-10.44-.007-10.478-.015-.01-.002-1.227-4.391-1.237-4.393-.096-.33-1.025-.331-1.12-.002-.026-.005-.798 3.573-1.336 6.134-.299 1.426-.539 2.54-.548 2.545-.02.012-.528-4.113-1.029-8.49-.43-3.758-.922-7.74-1.11-9.37-.056-.498-.09-.78-.092-.777v-.031c-.118-.326-1.053-.3-1.118.038v.031c-.014.017-.038 4.934-.038 8.06 0 1.47-.003 2.543-.008 2.534l-.188-.653c-.107-.331-1.005-.306-1.085.023v.092c-.008-.014-.307 2.27-.557 4.247a230.86 230.86 0 0 1-.365 2.815c-.014.02-1.634-7.613-1.837-8.586a16.639 16.639 0 0 0-.02-.102l-.001-.062c-.015-.192-.29-.353-.588-.345-.298.008-.541.176-.527.365a2095.026 2095.026 0 0 0-.669 10.378c-.007.02-.323-6.71-.549-11.871-.138-3.165-.255-5.74-.26-5.758v-.062c-.064-.338-.997-.366-1.114-.04v.061c-.003-.01-.206.935-.478 2.214-.052.245-.112.502-.169.766l-1.256 5.911c-.001.008-.806-3.257-.808-3.25-.022-.188-.321-.35-.619-.334-.297.016-.548.214-.526.407l-.074 1.45c-.13 2.603-.393 7.8-.396 7.77-.003-.051-.873-18.62-.875-18.636 0-.002-.229-.002-.494-.001l-.809.004z" style="text-decoration-line:none;text-indent:0;text-transform:none"/><path d="M1.374 6.138s-.63 8.74-.999 13.94C.214 22.347.089 23.996.079 24.02c-.012.028-.025 2.254-.025 5.03 0 1.627-.019 3.39-.019 5.092 0 .264-.01.525-.01.782 0 2.948-.004 5.37-.008 5.408-.007.06.336-4.98.73-10.693l.137-1.963c.013-.186.033-.37.045-.556.445-6.455.897-12.922.904-12.984.003-.026.067 1.315.16 3.36.069 1.532.176 3.517.268 5.538.185 4.09.446 8.474.564 11.082.061 1.351.1 2.178.102 2.162v.03c0 .186.258.33.552.328.295-.003.583-.154.583-.346v-.031c.004-.036.146-2.898.307-6.25.237-4.911.534-10.9.54-10.827 0 .009.522 1.976.522 1.985.093.332 1.01.337 1.103.016.003.034 1.444-6.881 1.446-6.856l.183 4.018c.011.255.033.519.046.79.172 3.817.45 9.022.633 13.08.149 3.31.269 5.783.278 5.817.093.333 1.012.338 1.105.017.007.023.095-1.345.214-3.32.254-4.19.718-11.187.83-13.033.017-.303.028-.47.03-.466.004.018 1.641 7.936 1.65 7.965v.062c.106.333 1.026.341 1.106.016v-.09l.02-.162c.135-1.097.927-7.378.951-7.415.005-.008.561 1.974.566 1.967.134.44 1.084.357 1.111-.107v-.062c.005-.007.008-.434.008-1.034 0-1.46.012-3.944.024-3.92.014.025.276 2.202.563 4.7.399 3.462.912 7.549.937 7.519l.001.09c-.012.187.23.354.526.36.297.008.571-.152.588-.343.006-.007.097-.434.236-1.103.528-2.536 1.853-8.535 1.865-8.521l.056.211c.155.598.599 2.263.614 2.254.051.214.305.39.56.393.037-.022 3.609-.055 8.465-.055 6.737 0 16.334.059 22.42.059 3.705 0 6.25-.004 6.293-.01.002 0 .003-.367.005-.367.003 0 .005-.613.008-.613.056-.006-3.73-.013-8.917-.013-.263 0-.531-.01-.801-.01-4.987 0-11.248.023-16.3.023-5.82 0-10.374-.013-10.44-.027-.02-.004-1.233-4.354-1.251-4.358-.098-.328-1.02-.33-1.118-.004-.045-.01-.824 3.533-1.357 6.072-.297 1.412-.54 2.519-.556 2.528-.037.022-.565-4.05-1.062-8.388-.426-3.723-.947-7.71-1.132-9.326a16.44 16.44 0 0 0-.095-.766v-.03c-.119-.323-1.046-.294-1.113.043v.03c-.025.03-.066 4.925-.066 8.023 0 1.456-.007 2.513-.016 2.497l-.187-.65c-.107-.33-.998-.308-1.08.016v.09c-.013-.024-.314 2.23-.562 4.188-.187 1.477-.36 2.785-.371 2.802-.024.037-1.646-7.502-1.847-8.466l-.021-.101v-.062c-.016-.192-.29-.352-.585-.346-.295.007-.536.172-.522.358-.011-.038-.46 6.735-.618 9.284-.036.583-.06.945-.062.952-.011.037-.34-6.583-.564-11.699a599.213 599.213 0 0 0-.266-5.736v-.062c-.064-.337-.989-.367-1.106-.047v.06c-.004-.016-.207.914-.477 2.182-.051.242-.116.497-.171.76l-1.252 5.89c-.003.014-.802-3.215-.804-3.202-.023-.186-.32-.344-.615-.327-.294.018-.543.215-.522.407-.002.011-.032.589-.075 1.445-.129 2.58-.391 7.71-.395 7.654-.007-.088-.873-18.542-.876-18.57a8.94 8.94 0 0 0-.49-.004l-.806.004z" style="text-decoration-line:none;text-indent:0;text-transform:none"/><path d="M1.438 6.232s-.636 8.74-1 13.863C.28 22.33.15 23.971.133 24.012c-.02.048-.042 2.263-.042 5 0 1.603-.032 3.295-.032 4.972 0 .26-.017.519-.017.772 0 2.905-.006 5.314-.014 5.378-.012.102.32-4.81.708-10.441.045-.648.09-1.26.135-1.917.013-.183.037-.364.05-.547.439-6.362.892-12.808.905-12.912.005-.044.07 1.265.16 3.282.069 1.509.189 3.512.279 5.504.182 4.032.478 8.257.595 10.827.06 1.332.1 2.139.103 2.111v.03c.001.181.255.321.545.316.29-.005.574-.156.575-.348v-.03c.007-.061.15-2.912.31-6.214.233-4.842.53-10.696.54-10.572 0 .014.514 1.96.515 1.974.092.331.997.34 1.088.028.005.057 1.427-6.736 1.43-6.693.004.052.078 1.662.183 3.996.011.25.04.512.052.779.17 3.762.469 8.773.649 12.772.147 3.263.272 5.726.287 5.785.093.33 1 .34 1.093.027.01.039.1-1.296.218-3.242.25-4.13.743-11.137.852-12.957.019-.299.03-.461.031-.455.009.03 1.632 7.871 1.646 7.92v.062c.107.333 1.015.345 1.094.027v-.089c.001.002.008-.053.021-.158.133-1.08.933-7.301.973-7.363.01-.013.56 1.934.568 1.923.135.43 1.074.344 1.103-.116v-.062c.008-.012.013-.436.013-1.027 0-1.439.02-3.871.04-3.832.024.044.292 2.208.575 4.67.393 3.412.926 7.408.968 7.357 0 0 .001.09.002.089-.011.182.23.344.522.35.294.005.566-.154.584-.344.01-.011.102-.435.24-1.095.52-2.499 1.868-8.36 1.887-8.336.002.002.023.082.056.21.153.589.598 2.226.624 2.21.052.21.304.383.557.385.064-.038 3.623-.093 8.409-.093 6.64 0 16.294.099 22.292.099 3.651 0 6.185-.007 6.258-.016.002 0 .005-.362.008-.363.004 0 .009-.604.013-.604.094-.011-3.595-.023-8.706-.023-.26 0-.525-.017-.79-.017-4.916 0-11.23.04-16.21.04-5.735 0-10.268-.022-10.38-.046-.033-.007-1.243-4.297-1.274-4.304-.1-.323-1.013-.325-1.113-.005-.075-.016-.867 3.47-1.393 5.972-.292 1.392-.54 2.487-.568 2.504-.061.036-.623-3.953-1.112-8.228-.42-3.67-.987-7.664-1.17-9.257-.055-.486-.091-.758-.098-.75v-.03c-.119-.314-1.035-.282-1.104.052v.031c-.042.05-.112 4.908-.112 7.962 0 1.434-.011 2.468-.026 2.44-.002-.004-.185-.641-.188-.646-.107-.329-.987-.31-1.068.006l-.001.089c-.023-.042-.328 2.162-.573 4.092-.184 1.456-.36 2.754-.38 2.784-.04.062-1.664-7.327-1.863-8.278l-.02-.1-.001-.062c-.015-.19-.286-.35-.578-.348-.29.005-.53.167-.517.348-.018-.065-.475 6.555-.63 9.067-.037.574-.06.934-.065.947-.02.061-.368-6.386-.588-11.427-.135-3.091-.26-5.649-.275-5.704v-.061c-.065-.336-.977-.37-1.093-.058v.06c-.008-.028-.21.88-.476 2.129-.05.24-.12.49-.176.749l-1.244 5.858c-.006.024-.795-3.147-.8-3.126-.023-.18-.315-.334-.606-.316-.291.02-.537.217-.516.408-.004.019-.035.593-.077 1.437-.127 2.542-.388 7.568-.395 7.473-.012-.15-.872-18.419-.876-18.468 0-.007-.224-.01-.483-.008l-.801.003z" style="text-decoration-line:none;text-indent:0;text-transform:none"/><path d="M1.535 6.375s-.645 8.736-1 13.747c-.156 2.184-.293 3.813-.32 3.88-.032.077-.067 2.276-.067 4.952 0 1.567-.052 3.153-.052 4.793 0 .254-.028.508-.028.755 0 2.84-.01 5.23-.022 5.332-.02.166.294-4.553.674-10.059.043-.633.087-1.204.132-1.846.012-.179.044-.355.056-.534.43-6.22.886-12.635.906-12.802.009-.07.074 1.19.163 3.162.067 1.475.206 3.508.294 5.455.179 3.942.528 7.929.642 10.442.059 1.302.1 2.078.105 2.034v.028c0 .174.25.308.534.3.284-.009.562-.16.563-.35v-.03c.012-.1.157-2.933.313-6.162.228-4.734.524-10.386.54-10.184.001.024.504 1.935.506 1.959.09.33.975.345 1.065.045.007.091 1.4-6.515 1.406-6.445.006.083.08 1.68.183 3.962.011.245.05.5.062.762.166 3.678.496 8.397.673 12.307.143 3.19.276 5.639.3 5.733.093.33.98.345 1.073.044.017.064.11-1.221.226-3.124.244-4.038.78-11.06.887-12.84.018-.292.03-.449.032-.438.014.048 1.617 7.772 1.64 7.851v.062c.107.332.996.35 1.074.043l.001-.085c.001.003.009-.05.021-.152.13-1.057.943-7.187 1.008-7.286.014-.022.559 1.874.57 1.856.137.414 1.058.324 1.09-.13v-.061c.013-.02.02-.438.02-1.017 0-1.406.032-3.761.066-3.698.038.071.316 2.217.593 4.624.384 3.336.946 7.194 1.015 7.112l.002.086c-.008.175.229.331.517.334.29.002.558-.156.577-.344.016-.018.11-.437.244-1.082.51-2.443 1.893-8.094 1.924-8.056.003.004.024.082.057.207.149.576.596 2.17.638 2.146.054.203.303.37.553.37.103-.06 3.643-.15 8.322-.15 6.492 0 16.234.16 22.1.16 3.57 0 6.088-.012 6.205-.025.004 0 .008-.355.012-.355.008-.001.015-.592.022-.593.152-.017-3.39-.037-8.388-.037-.254 0-.514-.028-.774-.028-4.806 0-11.203.066-16.072.066-5.608 0-10.108-.036-10.291-.074-.053-.011-1.256-4.21-1.306-4.221-.104-.318-1.003-.321-1.106-.01-.122-.025-.933 3.376-1.447 5.822-.286 1.361-.541 2.44-.586 2.466-.1.059-.711-3.805-1.19-7.985-.41-3.587-1.047-7.593-1.225-9.15-.055-.476-.092-.739-.103-.726v-.028c-.12-.304-1.02-.269-1.092.064v.03c-.067.08-.18 4.884-.18 7.87 0 1.403-.018 2.4-.042 2.355-.004-.007-.184-.633-.188-.64-.108-.326-.97-.313-1.053-.01 0 0-.001.087-.002.086-.036-.067-.349 2.062-.588 3.95-.18 1.422-.361 2.706-.392 2.753-.066.101-1.695-7.062-1.889-7.991l-.02-.1-.001-.061c-.016-.188-.28-.348-.568-.35-.285.003-.52.157-.508.33-.029-.103-.5 6.283-.653 8.74-.034.561-.06.918-.066.938-.032.1-.41-6.086-.625-11.016-.132-3.022-.266-5.564-.289-5.653v-.061c-.065-.335-.959-.373-1.074-.073v.056c-.012-.044-.213.831-.473 2.052-.05.234-.129.48-.182.733l-1.234 5.808c-.009.04-.784-3.045-.791-3.01-.024-.173-.31-.32-.596-.298-.285.022-.526.218-.506.408-.007.03-.038.599-.08 1.424-.124 2.486-.382 7.353-.394 7.2-.019-.242-.87-18.235-.876-18.313 0-.01-.22-.016-.473-.015l-.795.003z" style="text-decoration-line:none;text-indent:0;text-transform:none"/><path d="M1.677 6.586S1.02 15.316.675 20.16c-.15 2.111-.297 3.722-.34 3.825-.05.121-.105 2.297-.105 4.883 0 1.516-.08 2.945-.08 4.53 0 .246-.043.493-.043.732 0 2.746-.016 5.104-.036 5.265-.03.258.258-4.176.625-9.497.042-.613.084-1.123.127-1.743.012-.173.055-.342.067-.515.414-6.012.876-12.381.907-12.642.013-.11.08 1.08.167 2.985.064 1.427.23 3.5.316 5.383.173 3.81.6 7.447.71 9.876.058 1.26.1 1.99.108 1.92v.028c.001.163.242.288.517.275.276-.013.545-.164.547-.354v-.03c.018-.153.167-2.963.318-6.084.22-4.575.515-9.929.539-9.615.003.037.49 1.899.493 1.936.088.328.944.351 1.032.07.01.143 1.362-6.19 1.37-6.082.01.13.084 1.707.183 3.913.011.237.066.485.077.738.16 3.555.536 7.845.707 11.625.14 3.084.283 5.51.32 5.658.093.328.953.35 1.045.068.025.1.124-1.112.235-2.95.236-3.904.836-10.95.94-12.669.017-.282.03-.43.034-.414.02.075 1.595 7.627 1.63 7.751l.001.06c.106.333.968.36 1.045.068 0 .002.001-.082.002-.08a1.05 1.05 0 0 0 .02-.144c.126-1.022.958-7.017 1.06-7.172.021-.034.556 1.786.575 1.757.138.391 1.034.296 1.068-.15l.002-.06c.02-.03.03-.441.03-1 0-1.36.05-3.6.104-3.502.059.11.351 2.23.619 4.556.371 3.225.976 6.88 1.084 6.751 0 0 .002.083.003.082-.005.166.227.313.51.313.282-.003.545-.16.567-.345.024-.029.121-.44.25-1.064.492-2.362 1.928-7.703 1.976-7.644.005.006.027.083.058.204.144.556.594 2.087.66 2.048.055.194.3.353.547.35.16-.094 3.672-.233 8.196-.233 6.275 0 16.145.25 21.814.25 3.45 0 5.944-.019 6.127-.04.006 0 .013-.343.02-.344.01-.001.022-.573.033-.574.237-.028-3.089-.057-7.92-.057-.245 0-.499-.044-.75-.044-4.645 0-11.164.102-15.87.102-5.42 0-9.874-.057-10.158-.116-.082-.017-1.277-4.083-1.355-4.1-.11-.308-.987-.313-1.095-.014-.19-.04-1.03 3.237-1.526 5.6-.276 1.316-.542 2.37-.613 2.412-.155.091-.84-3.588-1.303-7.629-.397-3.467-1.136-7.49-1.308-8.996-.052-.459-.093-.708-.11-.688v-.027c-.12-.288-.996-.247-1.072.083l-.001.03c-.105.124-.28 4.848-.28 7.734 0 1.356-.03 2.3-.066 2.23-.006-.01-.183-.62-.189-.631-.108-.323-.946-.318-1.03-.032 0-.002-.002.082-.003.08-.056-.104-.379 1.915-.61 3.739-.174 1.376-.363 2.637-.41 2.711-.104.157-1.74-6.673-1.927-7.571a5.634 5.634 0 0 0-.02-.099l-.001-.06c-.016-.185-.274-.344-.553-.353-.277-.002-.505.143-.495.305-.046-.162-.537 5.884-.684 8.258-.034.543-.06.895-.07.926-.05.155-.472-5.647-.68-10.411-.128-2.922-.273-5.44-.31-5.58v-.06c-.065-.332-.93-.378-1.044-.097v.054c-.019-.07-.218.757-.47 1.938-.047.226-.14.464-.192.708l-1.219 5.736c-.013.063-.767-2.895-.779-2.841-.023-.162-.302-.3-.578-.273-.277.027-.511.221-.493.41-.01.046-.043.607-.083 1.405-.12 2.403-.375 7.037-.394 6.797C3.766 24.315 2.93 6.73 2.92 6.61c-.001-.017-.213-.026-.458-.025l-.785.003z" style="text-decoration-line:none;text-indent:0;text-transform:none"/><path d="M1.88 6.886S1.204 15.61.877 20.214c-.143 2.007-.305 3.593-.37 3.748-.076.184-.159 2.326-.159 4.784 0 1.441-.122 2.647-.122 4.154 0 .234-.065.47-.065.697 0 2.61-.023 4.926-.053 5.17-.047.39.205-3.637.553-8.696.04-.582.081-1.005.122-1.595.011-.164.068-.323.08-.487.394-5.716.863-12.018.91-12.412.02-.165.089.921.171 2.733.062 1.356.268 3.49.35 5.28.163 3.622.703 6.759.808 9.068.054 1.197.097 1.864.11 1.758v.025c.002.149.232.26.495.24.263-.02.52-.17.522-.359v-.03c.028-.231.182-3.006.325-5.973.21-4.35.502-9.276.539-8.801.004.055.469 1.846.473 1.902.085.325.9.36.984.106.017.217 1.307-5.726 1.32-5.562.015.197.089 1.745.183 3.841.01.226.087.463.098.703.152 3.38.594 7.057.756 10.65.132 2.932.292 5.329.35 5.552.09.324.912.359 1.002.103.04.15.145-.956.25-2.705.225-3.71.916-10.788 1.015-12.423.016-.268.029-.404.036-.38.032.114 1.564 7.42 1.617 7.608l.001.06c.105.333.93.372 1.004.102.001.003.002-.076.003-.074a.531.531 0 0 0 .021-.132c.119-.97.978-6.774 1.131-7.009.034-.051.553 1.661.582 1.618.14.357 1 .255 1.04-.18l.003-.059c.028-.044.046-.446.046-.977 0-1.293.076-3.37.156-3.22.089.166.402 2.246.656 4.458.353 3.066 1.02 6.431 1.182 6.237.002-.002.004.077.005.075 0 .152.226.286.498.28.275-.008.53-.163.554-.344.037-.044.138-.446.261-1.038.467-2.245 1.977-7.145 2.05-7.057.007.01.03.084.06.2.137.529.59 1.968.689 1.91.06.181.299.328.54.322.243-.143 3.714-.353 8.014-.353 5.966 0 16.019.377 21.408.377 3.281 0 5.74-.027 6.016-.06.01 0 .02-.327.03-.328.017-.002.034-.546.05-.548.36-.041-2.658-.086-7.251-.086-.233 0-.477-.067-.716-.067-4.416 0-11.107.155-15.581.155-5.153 0-9.539-.086-9.97-.176-.123-.026-1.306-3.9-1.424-3.925-.117-.297-.964-.304-1.08-.022-.286-.06-1.166 3.037-1.638 5.285-.263 1.25-.545 2.27-.652 2.332-.234.138-1.026-3.277-1.465-7.119-.378-3.296-1.261-7.343-1.425-8.774-.05-.437-.094-.667-.12-.636 0 0-.001-.026-.002-.025-.12-.266-.962-.216-1.044.109l-.001.029c-.158.188-.425 4.798-.425 7.54 0 1.29-.043 2.157-.099 2.052-.008-.016-.18-.601-.189-.618-.108-.318-.911-.325-.997-.065-.002-.002-.003.077-.004.075-.085-.159-.423 1.703-.643 3.437-.165 1.308-.364 2.537-.438 2.65-.155.238-1.8-6.118-1.978-6.972a4.048 4.048 0 0 0-.02-.096l-.002-.06c-.016-.18-.263-.338-.531-.356-.266-.009-.484.122-.477.268-.069-.244-.59 5.313-.73 7.57-.032.516-.06.861-.075.908-.074.234-.56-5.018-.757-9.548-.122-2.777-.283-5.263-.338-5.474l-.001-.059c-.065-.329-.892-.386-1.002-.13 0-.002-.001.05-.002.049-.027-.105-.224.652-.463 1.774-.045.215-.158.442-.207.674l-1.196 5.633c-.02.095-.745-2.682-.762-2.6-.024-.146-.29-.268-.555-.237-.265.034-.489.226-.473.411-.015.072-.05.622-.088 1.38-.114 2.285-.365 6.585-.393 6.222-.044-.57-.862-17.573-.876-17.757-.002-.026-.204-.04-.437-.038l-.77.002z" style="text-decoration-line:none;text-indent:0;text-transform:none"/><path d="M2.163 7.305S1.46 16.018 1.158 20.29C1.026 22.151.842 23.7.747 23.93c-.112.27-.234 2.366-.234 4.647 0 1.336-.18 2.23-.18 3.628 0 .217-.095.439-.095.65 0 2.42-.035 4.677-.079 5.035-.069.575.13-2.884.454-7.576.038-.54.075-.842.113-1.39.01-.151.089-.296.1-.448.365-5.302.844-11.512.914-12.093.03-.243.1.701.177 2.382.057 1.258.32 3.475.394 5.135.153 3.36.85 5.8.946 7.941.05 1.11.095 1.688.114 1.532v.022c.004.128.218.22.463.19.245-.029.485-.18.488-.365v-.03c.042-.34.203-3.066.335-5.818.195-4.035.484-8.367.539-7.667.006.082.44 1.773.446 1.856.08.32.837.373.917.157.025.318 1.23-5.08 1.249-4.84.022.292.096 1.8.184 3.744.01.21.116.432.126.654.142 3.135.676 5.957.826 9.29.123 2.72.305 5.073.39 5.402.09.32.856.371.944.152.057.221.172-.74.27-2.36.208-3.443 1.027-10.566 1.119-12.083.015-.25.029-.367.039-.332.047.168 1.52 7.131 1.599 7.408 0 .003 0 .055.002.058.104.334.874.39.947.15.001.005.002-.067.003-.064.004.013.011-.028.022-.115.11-.9 1.006-6.436 1.233-6.782.049-.076.548 1.486.59 1.422.144.31.953.197 1-.22.001-.003.002-.055.004-.057.042-.066.068-.453.068-.946 0-1.199.112-3.048.23-2.828.13.245.473 2.27.709 4.322.327 2.844 1.08 5.806 1.319 5.52.002-.003.005.069.007.066.007.132.224.249.483.236.262-.017.505-.17.535-.345.053-.065.16-.452.274-1.002.433-2.082 2.047-6.367 2.154-6.236.01.013.034.086.061.192.127.491.586 1.804.731 1.719.064.162.296.293.53.282.358-.211 3.772-.52 7.761-.52 5.534 0 15.842.555 20.841.555 3.044 0 5.454-.04 5.86-.088.015-.001.03-.305.045-.306.025-.003.05-.509.074-.512.529-.061-2.059-.127-6.319-.127-.216 0-.446-.098-.668-.098-4.096 0-11.028.228-15.178.228-4.78 0-9.071-.126-9.705-.259-.183-.038-1.348-3.646-1.522-3.683-.128-.279-.933-.29-1.058-.032-.423-.088-1.359 2.76-1.797 4.844-.243 1.16-.547 2.13-.704 2.223-.346.203-1.285-2.845-1.693-6.408-.35-3.058-1.436-7.139-1.588-8.466-.046-.405-.096-.608-.134-.563l-.002-.022c-.122-.235-.916-.173-1.006.146l-.003.028c-.232.278-.624 4.727-.624 7.271 0 1.196-.064 1.956-.146 1.802-.013-.024-.177-.576-.19-.6-.11-.312-.864-.335-.952-.11-.002-.004-.004.068-.006.065-.124-.233-.483 1.409-.687 3.017-.154 1.213-.368 2.399-.476 2.564-.228.35-1.886-5.341-2.051-6.134a2.994 2.994 0 0 0-.02-.094c-.002-.002-.002-.055-.003-.058-.017-.173-.25-.331-.502-.362-.249-.017-.454.094-.45.218-.102-.36-.663 4.517-.793 6.61-.03.48-.061.814-.083.883-.11.345-.682-4.142-.865-8.343-.113-2.576-.298-5.016-.378-5.327l-.002-.057c-.065-.325-.837-.397-.944-.178 0-.002-.001.046-.002.043-.04-.154-.234.506-.455 1.547-.043.199-.182.41-.228.625-.445 2.094-1.09 5.13-1.165 5.49-.03.139-.713-2.385-.738-2.264-.025-.124-.274-.226-.522-.186-.248.043-.458.231-.445.413-.022.105-.06.64-.095 1.344-.106 2.119-.35 5.954-.392 5.42-.065-.84-.856-17.03-.877-17.302-.003-.04-.19-.06-.407-.058h-.75z" style="text-decoration-line:none;text-indent:0;text-transform:none"/><path d="M2.55 7.878s-.737 8.7-1.008 12.515c-.118 1.663-.33 3.163-.467 3.493-.162.388-.337 2.42-.337 4.457 0 1.194-.259 1.662-.259 2.91 0 .195-.137.397-.137.586 0 2.163-.05 4.336-.113 4.852-.1.827.03-1.855.319-6.047.033-.482.067-.618.1-1.107.01-.136.117-.26.127-.397.326-4.736.819-10.82.92-11.655.042-.349.117.4.185 1.902.05 1.124.39 3.456.456 4.938.136 3.002 1.047 4.487 1.133 6.4.045.992.093 1.447.12 1.224v.017c.005.1.198.166.419.123.22-.042.437-.193.442-.375v-.028c.06-.49.23-3.15.349-5.608.173-3.604.46-7.124.537-6.117.01.118.4 1.675.41 1.794.073.314.752.39.825.225.035.458 1.125-4.197 1.152-3.85.032.419.107 1.871.185 3.609.009.186.156.389.165.588.127 2.8.787 4.453.921 7.43.11 2.43.322 4.725.445 5.198.087.315.779.388.865.22.082.317.21-.443.298-1.892.186-3.075 1.178-10.26 1.26-11.614.013-.223.03-.317.043-.266.068.241 1.462 6.736 1.574 7.135l.003.055c.104.335.8.414.87.217.001.006.003-.056.004-.052.005.019.013-.014.022-.092.099-.804 1.046-5.974 1.372-6.472.07-.109.542 1.247.603 1.154.148.248.888.12.944-.275.002-.003.004-.051.006-.054.061-.094.099-.462.099-.902 0-1.071.16-2.61.33-2.293.188.353.57 2.304.78 4.137.293 2.54 1.162 4.95 1.506 4.538.004-.004.007.06.01.055.018.106.221.197.462.175.246-.03.473-.178.51-.346.077-.093.19-.461.292-.952.387-1.86 2.143-5.304 2.296-5.116a.7.7 0 0 1 .064.184c.114.438.58 1.578.788 1.456.07.137.292.245.515.227.515-.303 3.853-.749 7.416-.749 4.943 0 15.601.8 20.067.8 2.719 0 5.064-.059 5.648-.127.021-.002.043-.274.064-.276.036-.005.071-.458.107-.462.76-.088-1.239-.183-5.044-.183-.194 0-.406-.14-.604-.14-3.659 0-10.92.327-14.628.327-4.27 0-8.432-.182-9.344-.372-.263-.055-1.404-3.3-1.654-3.352-.144-.255-.89-.27-1.03-.046-.608-.127-1.62 2.38-2.012 4.242-.218 1.036-.551 1.94-.777 2.072-.498.292-1.638-2.253-2.002-5.436-.313-2.732-1.676-6.859-1.812-8.044-.041-.362-.098-.529-.153-.463-.001.001-.002-.02-.003-.018-.124-.192-.852-.115-.954.196l-.003.026c-.335.4-.9 4.63-.9 6.903 0 1.069-.091 1.682-.21 1.46-.017-.033-.17-.54-.19-.575-.11-.302-.797-.347-.89-.172-.003-.005-.005.058-.008.053-.18-.335-.566 1.007-.748 2.444-.138 1.083-.372 2.209-.527 2.447-.33.504-2.005-4.282-2.153-4.99a2.057 2.057 0 0 0-.02-.09l-.003-.056c-.018-.165-.23-.323-.461-.371-.226-.029-.414.055-.416.15-.146-.52-.762 3.428-.878 5.298-.027.428-.062.75-.093.849-.158.497-.85-2.945-1.014-6.698-.1-2.301-.316-4.679-.432-5.125l-.003-.055c-.065-.32-.762-.412-.865-.242l-.002.034c-.058-.222-.247.306-.445 1.236-.038.178-.214.367-.255.56-.398 1.87-1.014 4.775-1.123 5.292-.042.2-.669-1.977-.705-1.803-.026-.094-.252-.169-.477-.117-.225.055-.416.24-.408.416-.031.15-.072.665-.104 1.294-.095 1.892-.33 5.092-.39 4.324-.093-1.208-.848-16.29-.878-16.68-.004-.055-.173-.085-.366-.084h-.724z" style="text-decoration-line:none;text-indent:0;text-transform:none"/><path d="M3.068 8.646s-.783 8.681-1.01 11.885c-.1 1.397-.35 2.83-.544 3.296-.227.546-.474 2.493-.474 4.203 0 1.003-.365.9-.365 1.949 0 .162-.193.34-.193.497 0 1.817-.071 3.88-.159 4.608-.14 1.164-.106-.476.137-3.996.028-.405.056-.32.085-.73.008-.114.153-.212.161-.326.274-3.977.785-9.892.927-11.069.06-.492.14-.004.197 1.257.043.944.483 3.43.54 4.674.114 2.521 1.311 2.727 1.384 4.334.038.833.088 1.123.126.808 0-.002 0 .014.001.012.007.06.172.093.36.033.189-.059.373-.21.38-.388l.001-.027c.083-.691.267-3.26.366-5.325.146-3.026.427-5.456.537-4.037.012.167.346 1.541.359 1.709.065.307.638.413.703.317.05.647.985-3.01 1.023-2.522.045.59.12 1.969.186 3.428.007.157.21.331.218.499.106 2.351.935 2.436 1.047 4.937.092 2.04.346 4.257.519 4.924.084.306.676.41.758.308.116.448.262-.044.335-1.261.156-2.582 1.382-9.85 1.451-10.988.011-.187.03-.25.05-.177.095.34 1.381 6.205 1.54 6.768 0 .004.002.047.004.052.102.336.699.445.765.306.002.008.004-.041.006-.035.007.026.015.004.023-.06.083-.676 1.099-5.355 1.557-6.058.1-.153.535.926.62.796.153.163.802.015.87-.35.003-.004.006-.046.008-.05.087-.133.14-.474.14-.844 0-.9.225-2.02.464-1.575.266.499.7 2.35.877 3.889.246 2.134 1.272 3.803 1.758 3.222.005-.006.01.045.014.04.03.069.216.128.433.092.223-.045.43-.188.474-.347.11-.13.232-.473.318-.885.325-1.562 2.27-3.877 2.487-3.612.022.027.047.091.068.171.095.368.57 1.277.864 1.104.08.103.286.182.495.153.727-.426 3.961-1.054 6.953-1.054 4.151 0 15.278 1.126 19.028 1.126 2.283 0 4.54-.082 5.363-.177.03-.004.06-.234.09-.237.05-.006.1-.39.152-.395 1.07-.124-.14-.258-3.336-.258-.162 0-.35-.198-.516-.198-3.073 0-10.776.461-13.889.461-3.586 0-7.576-.255-8.86-.524-.37-.077-1.48-2.834-1.833-2.907-.163-.224-.832-.245-.99-.065-.857-.18-1.973 1.87-2.301 3.434-.183.87-.557 1.684-.875 1.871-.7.412-2.112-1.46-2.417-4.133-.263-2.294-1.998-6.482-2.112-7.478-.035-.304-.101-.421-.179-.329-.001.002-.003-.015-.005-.013-.126-.134-.765-.035-.883.264-.002.002-.003.022-.005.024-.47.563-1.267 4.5-1.267 6.41 0 .896-.129 1.314-.296 1.002-.025-.048-.164-.493-.191-.543-.112-.29-.71-.365-.807-.255-.004-.007-.007.043-.01.036-.254-.472-.679.468-.832 1.674-.115.91-.377 1.955-.595 2.29-.464.71-2.164-2.86-2.288-3.455a1.522 1.522 0 0 0-.02-.086c0-.004-.002-.047-.004-.052-.019-.153-.204-.31-.407-.383-.196-.043-.36.004-.368.058-.206-.73-.896 1.969-.994 3.54-.022.359-.062.663-.107.802-.222.7-1.074-1.338-1.211-4.49-.085-1.932-.343-4.226-.506-4.855-.001-.005-.002-.047-.004-.052-.066-.312-.662-.432-.759-.328 0-.005-.002.028-.004.023-.08-.313-.264.037-.43.818-.031.15-.258.31-.292.471-.334 1.571-.912 4.3-1.066 5.03-.06.282-.61-1.432-.661-1.187-.027-.053-.222-.09-.416-.024-.194.071-.36.25-.357.42-.045.213-.091.7-.118 1.227-.079 1.59-.304 3.936-.387 2.854-.132-1.702-.837-15.295-.88-15.844-.006-.079-.149-.121-.31-.12l-.689-.003z" style="text-decoration-line:none;text-indent:0;text-transform:none"/><path d="M3.753 9.66s-.845 8.657-1.016 11.054c-.074 1.045-.375 2.391-.642 3.035-.315.756-.656 2.59-.656 3.87 0 .75-.505-.108-.505.677 0 .121-.268.264-.268.382 0 1.36-.098 3.279-.22 4.284-.193 1.611-.283 1.346-.102-1.288.021-.303.042.076.063-.231.006-.086.203-.148.209-.233.205-2.976.74-8.668.936-10.295.083-.68.17-.537.212.406.032.706.608 3.394.65 4.325.085 1.886 1.661.404 1.716 1.606.028.624.083.697.135.262 0-.004.001.007.002.004.009.01.137-.003.283-.087.145-.08.287-.232.298-.405v-.024c.116-.957.316-3.407.39-4.952.11-2.265.384-3.255.535-1.292.018.23.276 1.365.294 1.597.054.297.488.444.542.439.069.894.799-1.447.851-.77.063.816.138 2.097.188 3.189.005.117.281.256.287.38.08 1.76 1.13-.224 1.215 1.646.07 1.527.377 3.641.616 4.563.08.296.54.44.618.426.16.62.329.482.384-.429.117-1.931 1.65-9.309 1.702-10.16.009-.14.03-.16.057-.06.133.47 1.277 5.506 1.496 6.284.002.006.004.041.006.048.1.338.566.488.627.423.003.011.006-.02.008-.012.01.036.019.028.025-.02.062-.506 1.168-4.537 1.802-5.509.138-.21.524.504.641.323.162.051.688-.123.773-.448.004-.006.008-.04.012-.046.12-.183.192-.49.192-.767 0-.673.313-1.243.642-.626.369.69.872 2.41 1.005 3.56.183 1.597 1.417 2.29 2.089 1.486.007-.008.013.026.02.018.048.023.21.038.395-.016.194-.065.373-.202.429-.347.15-.18.286-.489.35-.797.244-1.17 2.44-1.994 2.738-1.628.031.038.057.095.073.155.071.275.558.877.966.638.09.06.278.099.469.057 1.005-.59 4.103-1.458 6.342-1.458 3.105 0 14.85 1.558 17.656 1.558 1.708 0 3.847-.114 4.985-.246.042-.005.084-.179.126-.184.07-.008.139-.298.21-.306 1.48-.172 1.31-.358-1.08-.358-.121 0-.277-.273-.401-.273-2.299 0-10.586.638-12.915.638-2.683 0-6.444-.354-8.222-.725-.511-.107-1.58-2.219-2.067-2.32-.19-.182-.756-.212-.939-.09-1.185-.249-2.437 1.198-2.682 2.368-.137.651-.564 1.346-1.004 1.605-.97.569-2.737-.414-2.966-2.413-.196-1.717-2.422-5.986-2.507-6.732-.026-.227-.105-.28-.212-.151-.003.002-.005-.009-.007-.006-.13-.059-.652.068-.791.352-.002.003-.005.02-.007.022-.651.78-1.752 4.33-1.752 5.757 0 .672-.178.83-.41.399-.034-.066-.155-.43-.192-.5-.115-.273-.593-.388-.697-.364-.005-.01-.01.023-.015.014-.35-.654-.825-.245-.94.658-.086.68-.384 1.619-.686 2.082-.642.983-2.373-.984-2.466-1.428a1.275 1.275 0 0 0-.019-.08c-.002-.007-.004-.042-.006-.05-.02-.137-.17-.292-.336-.396a.803.803 0 0 0-.305-.064c-.284-1.01-1.073.042-1.146 1.217a3.33 3.33 0 0 1-.125.742c-.308.969-1.37.783-1.473-1.575-.063-1.446-.378-3.629-.603-4.499-.002-.007-.003-.041-.005-.048-.068-.302-.53-.458-.619-.442-.002-.007-.003.015-.005.008-.112-.433-.287-.318-.411.266-.024.112-.316.235-.341.356-.25 1.175-.779 3.672-.991 4.68-.083.391-.532-.71-.604-.371a.797.797 0 0 0-.335.098c-.154.093-.286.264-.291.426a8.14 8.14 0 0 0-.134 1.138c-.06 1.19-.269 2.41-.385.914-.182-2.354-.822-13.982-.881-14.743-.008-.11-.117-.168-.239-.167-.167 0-.64-.005-.64-.005z" style="text-decoration-line:none;text-indent:0;text-transform:none"/><path d="M4.644 10.979s-.926 8.626-1.022 9.973c-.042.588-.409 1.82-.773 2.696-.427 1.029-.892 2.716-.892 3.435 0 .422-.686-1.416-.686-.976 0 .069-.365.167-.365.234 0 .763-.133 2.494-.298 3.863-.264 2.19-.517 3.714-.415 2.233.012-.17.024.59.036.418.003-.048.266-.064.27-.112.115-1.673.681-7.075.948-9.288.112-.926.207-1.23.231-.7.018.397.77 3.348.793 3.871.048 1.06 2.117-2.618 2.148-1.942.015.35.076.142.147-.45.001-.005.002-.002.002-.007.013-.056.092-.127.182-.241a.815.815 0 0 0 .192-.427l.001-.022c.156-1.301.38-3.598.421-4.466.062-1.273.327-.392.533 2.278.024.313.184 1.137.208 1.453.04.284.293.483.332.597.094 1.216.557.588.628 1.508.086 1.11.162 2.265.19 2.88.003.065.375.157.378.227.044.989 1.385-3.688 1.433-2.636.038.858.417 2.838.741 4.092.076.283.364.478.436.58.219.844.417 1.165.448.654.066-1.086 2-8.606 2.03-9.085.004-.079.028-.044.067.091.18.639 1.14 4.596 1.437 5.654.003.01.005.035.008.044.099.34.394.542.447.576.005.015.009.005.012.017.014.049.023.06.026.032.035-.284 1.259-3.472 2.121-4.794.188-.288.51-.048.67-.293.171-.095.54-.303.646-.576.005-.008.01-.032.016-.04.162-.25.262-.511.262-.666 0-.379.425-.233.873.607.501.937 1.095 2.487 1.17 3.134.103.897 1.606.319 2.52-.774.01-.011.019.001.028-.01.07-.039.203-.08.345-.156.156-.093.3-.221.37-.349.205-.246.357-.51.393-.683.137-.657 2.659.456 3.066.955.041.05.07.1.078.133.04.155.544.358 1.098.033.106 0 .269-.01.435-.069 1.367-.803 4.288-1.984 5.546-1.984 1.746 0 14.295 2.12 15.872 2.12.96 0 2.948-.156 4.497-.335.056-.006.113-.108.17-.115.095-.01.19-.18.285-.191 2.016-.234 3.2-.486 1.856-.486-.068 0-.181-.372-.251-.372-1.293 0-10.338.867-11.647.867-1.508 0-4.973-.48-7.392-.986-.695-.146-1.71-1.42-2.372-1.558-.224-.126-.657-.167-.872-.122-1.612-.337-3.04.324-3.179.982-.077.366-.572.907-1.172 1.259-1.318.774-3.55.949-3.678-.176-.11-.964-2.974-5.34-3.022-5.759-.015-.128-.11-.096-.256.079-.003.003-.007-.001-.01.003-.133.04-.504.203-.67.468-.003.004-.006.015-.01.019-.885 1.06-2.383 4.106-2.383 4.908 0 .378-.243.2-.557-.387-.048-.09-.144-.348-.195-.442-.117-.253-.44-.42-.553-.509-.007-.012-.014-.001-.02-.014-.476-.89-1.017-1.171-1.082-.664-.048.383-.393 1.183-.804 1.813-.873 1.338-2.645 1.457-2.697 1.207a1.2 1.2 0 0 0-.019-.072l-.008-.044c-.023-.117-.125-.271-.243-.416-.102-.09-.195-.153-.224-.222-.387-1.375-1.303-2.464-1.344-1.803-.009.15-.065.4-.148.663-.419 1.317-1.756 3.54-1.814 2.215-.035-.812-.422-2.85-.729-4.035-.002-.009-.004-.034-.007-.043-.069-.288-.359-.491-.436-.59-.002-.009-.005-.002-.007-.012-.153-.589-.317-.778-.387-.45-.013.063-.39.136-.405.204l-.893 4.227c-.112.532-.43.227-.528.688-.03.072-.132.146-.231.258a.87.87 0 0 0-.204.433c-.085.4-.145.802-.157 1.024-.033.668-.222.425-.38-1.61-.247-3.203-.803-12.276-.883-13.31-.012-.148-.077-.229-.145-.228-.094 0-.578-.008-.578-.008z" style="text-decoration-line:none;text-indent:0;text-transform:none"/><path d="m5.787 12.672-1.03 8.586-.939 2.26-1.195 2.877-.92-3.098-.488.041-.4 3.323L0 33.416v1.25l.348.043.964-7.995.256-2.12.977 3.289 2.701-6.498.164-1.365.002-.018.053-.44.054-.456.003-.019.46-3.843.53 6.863.099 1.266.062.8a466709.619 466709.619 0 0 0 .534 6.915l.494.031 1.713-8.133.904 3.49a2159.109 2159.109 0 0 0 .73 2.819l2.45-7.703.08.286 1.364 4.846.01.037a2615.71 2615.71 0 0 1 .26.927l2.531-3.878.707-1.083c.184-.283.348-.535.483-.74l.021-.033.35-.538a221211.102 221211.102 0 0 0 2.553 4.777s1.85-2.21 3.074-3.675l.038-.044.282-.337.293-.35.448-.537 3.486 4.27.087.105 1.266-.744.392-.23 4.525-2.659 13.582 2.84 3.868-.448.228-.026.382-.044 5.624-.652-.06-.498-10.019 1.162-6.325-1.321-2.765-.578-.785-.164-3.816-.798-1.388.814-4.593 2.698-3.684-4.512-.312.374a1.44 1.44 0 0 1-.013.015l-.515.617-.013.014-3.193 3.82-.747-1.397-.198-.37-.37-.691-.027-.051-1.262-2.36-.956 1.466-2.995 4.59-.017-.061a1442.234 1442.234 0 0 1-.135-.479l-.12-.424-1.597-5.682-.179.562-2.25 7.082-.892-3.44-.01-.036a2029.977 2029.977 0 0 0-.566-2.188l-.486.01-.768 3.646-.431 2.048-.098.463-.093.442-.184.876-.375-4.851-.887-11.47-.023-.306-.498-.012z" style="text-decoration-line:none;text-indent:0;text-transform:none"/></g><path d="m5.787 12.672-1.03 8.586-2.134 5.137-.92-3.098-.488.04L0 33.417v1.25l.348.043 1.22-10.115.977 3.289 2.701-6.498.736-6.14 1.225 15.843.494.032 1.713-8.133 1.635 6.308 2.45-7.703 1.714 6.096 4.092-6.271 2.552 4.777 4.135-4.944 3.572 4.375 6.184-3.632 13.582 2.84 10.102-1.17-.059-.499-10.02 1.163-13.69-2.862-5.981 3.512-3.684-4.512-4.047 4.84-2.603-4.869-3.951 6.057-1.87-6.647-2.429 7.645-1.467-5.665-.486.01-1.574 7.475-1.286-16.627-.498-.012z" fill="#36448e" fill-opacity=".041"/><path d="M1.281 6 0 24.03v16.59l1.844-26.75 1.031 22.75v.031c0 .193.262.344.563.344s.593-.15.593-.344v-.031l.844-17.5.531 2c.095.334 1.031.334 1.125 0l1.47-7.094 1.093 24.25c.095.334 1.031.334 1.125 0l1.031-17.06 1.656 8.031v.063c.107.332 1.045.335 1.125 0v-.094l.938-7.656.562 2.03c.134.456 1.1.377 1.125-.093v-5.156l1.438 12.5v.093c-.015.193.231.366.531.375s.58-.15.594-.344l2.062-9.906.657 2.531c.049.22.305.402.562.407H60v-1H23l-1.219-4.438c-.094-.334-1.031-.334-1.125 0l-1.844 8.78L16.656 8.5v-.03c-.118-.333-1.061-.308-1.125.03v10.722l-.188-.657c-.106-.332-1.014-.304-1.094.032v.093l-.906 7.156-1.844-8.844v-.062c-.015-.193-.293-.353-.594-.344-.3.01-.546.182-.53.375l-.657 10.56-.781-17.88v-.062c-.064-.339-1.007-.364-1.125-.032v.063l-1.906 8.969-.813-3.312c-.022-.193-.324-.358-.625-.344-.3.015-.553.213-.53.406l-.47 9.375-.875-18.72z" color="#000" fill="#6d576d" style="text-decoration-line:none;text-indent:0;text-transform:none"/><path d="m34 64 26-31c-2.329 2.776-4.361 3-11 3H37v15c0 6.644.044 9.37-3 13z" fill="url(#d)"/></svg>