<?xml version="1.0" encoding="UTF-8"?>
<svg width="64" height="64" version="1.1" xmlns="http://www.w3.org/2000/svg" xmlns:xlink="http://www.w3.org/1999/xlink">
	<defs>
		<linearGradient id="h" x1="53.055" x2="60.201" y1="35.97" y2="35.97" gradientUnits="userSpaceOnUse">
			<stop stop-color="#86f4ff" stop-opacity=".235" offset="0"/>
			<stop stop-color="#fff" stop-opacity="0" offset="1"/>
		</linearGradient>
		<linearGradient id="f" x1="48.918" x2="35.044" y1="46.214" y2="33.714" gradientUnits="userSpaceOnUse">
			<stop stop-color="#7cfeff" stop-opacity=".2" offset="0"/>
			<stop stop-color="#34fffb" stop-opacity="0" offset="1"/>
		</linearGradient>
		<linearGradient id="i" x1="9" x2="61" y1="-7" y2="-7" gradientUnits="userSpaceOnUse" xlink:href="#a"/>
		<linearGradient id="a">
			<stop stop-color="#7736bb" offset="0"/>
			<stop stop-color="#aa4da7" offset=".493"/>
			<stop stop-color="#c65d6b" offset="1"/>
		</linearGradient>
		<linearGradient id="j" x1="9" x2="61" y1="-3" y2="-3" gradientUnits="userSpaceOnUse" xlink:href="#b"/>
		<linearGradient id="b">
			<stop stop-color="#7500f1" stop-opacity=".063" offset="0"/>
			<stop stop-color="#f700f0" stop-opacity=".137" offset=".493"/>
			<stop stop-color="#ff350c" stop-opacity=".049" offset="1"/>
		</linearGradient>
		<linearGradient id="g" x1="82.744" x2="71" y1="79.421" y2="69" gradientTransform="translate(-34 -33)" gradientUnits="userSpaceOnUse">
			<stop stop-color="#277fab" offset="0"/>
			<stop stop-color="#2585b6" offset=".252"/>
			<stop stop-color="#309dd7" offset="1"/>
		</linearGradient>
		<linearGradient id="c" x1="62.456" x2="62.456" y1="10.772" y2=".522" gradientUnits="userSpaceOnUse">
			<stop stop-color="#8046be" offset="0"/>
			<stop stop-color="#a361b2" offset="1"/>
		</linearGradient>
		<linearGradient id="k" x1="9" x2="61" y1="-7" y2="-7" gradientTransform="matrix(1 0 0 1.3068 0 -4.601)" gradientUnits="userSpaceOnUse" xlink:href="#a"/>
		<linearGradient id="l" x1="9" x2="61" y1="-3" y2="-3" gradientTransform="matrix(1 0 0 1.3068 0 -4.601)" gradientUnits="userSpaceOnUse" xlink:href="#b"/>
		<radialGradient id="e" cx="7.584" cy="45.157" r="30" gradientTransform="matrix(2.4121 0 0 2.4925 -12.294 -54.03)" gradientUnits="userSpaceOnUse">
			<stop stop-color="#3ed4e1" offset="0"/>
			<stop stop-color="#3fd5e0" offset="1"/>
		</radialGradient>
		<radialGradient id="d" cx="46.306" cy="38.848" r="14.161" gradientTransform="matrix(2.3177 0 0 3.1347 -60.325 -73.277)" gradientUnits="userSpaceOnUse">
			<stop stop-color="#0a003d" stop-opacity=".307" offset="0"/>
			<stop stop-color="#241254" stop-opacity=".004" offset="1"/>
		</radialGradient>
	</defs>
	<path d="M4 0h60v62H4z" fill="url(#c)"/>
	<path d="M60 2v31L35.678 62H61V3z" fill="url(#d)"/>
	<path d="M0 2h60v31L34 64H0z" fill="url(#e)"/>
	<path d="M0 2h60v31L34 64H0z" fill="url(#f)"/>
	<path d="M0 2h60v1H0z" fill="#63e5ff" fill-opacity=".63368" style="-inkscape-stroke:none" paint-order="stroke fill markers"/>
	<path d="M4 0h60v1H4z" fill="#ff8ce6" fill-opacity=".48951" style="-inkscape-stroke:none" paint-order="stroke fill markers"/>
	<path transform="rotate(90)" d="M2-1h62v1H2z" fill-opacity=".03" style="-inkscape-stroke:none" paint-order="stroke fill markers"/>
	<path d="m34 64 26-31c-2.329 2.776-4.361 3-11 3H37v15c0 6.644.044 9.37-3 13z" fill="url(#g)"/>
	<path d="M60 33c-2.329 2.776-4.361 3-11 3H37.5" fill="none" stroke="url(#h)" stroke-linecap="round" stroke-opacity=".995"/>
	<g stroke-linecap="round" stroke-linejoin="round" stroke-opacity=".994" stroke-width="4" style="-inkscape-stroke:none;font-variation-settings:normal" paint-order="stroke fill markers">
		<path transform="translate(-1 4)" d="M15 7.887v12.502C14.265 19.547 13.197 19 12 19c-2.197 0-4 1.803-4 4s1.803 4 4 4 4-1.802 4-4V11.707l3.272 3.272 1.414-1.414zM12 21c1.116 0 2 .884 2 2s-.884 2-2 2-2-.884-2-2 .884-2 2-2z" fill="url(#i)" stroke="url(#j)" style="-inkscape-stroke:none;font-variation-settings:normal"/>
		<path transform="translate(-1 4)" d="M60 15H49l-1-.883-2 1.766-2-2.65-.503.84-.667 1.112-1.333 2.224-.497.829-.8-1.96-2.005-4.92-.195-.479-2 5.004-1.156-1.19-.844-.87-1.657 2.015-.614-1.596L31 12.351l-.163.527-.68 2.203-.978 3.166c-.109.36-.179.58-.179.58l-1.453-5.167-.735-2.616-1.414 4.236L25 16.473l-.83-3.664-.17-.752-.778 3.092L22 20.004l-.21-2.106L21 9.996l-.237.595L19 15" fill="url(#k)" stroke="url(#l)" style="-inkscape-stroke:none;font-variation-settings:normal"/>
	</g>
</svg>
