<?xml version="1.0" encoding="UTF-8" standalone="no"?>
<!-- Created with Inkscape (http://www.inkscape.org/) -->

<svg
   xmlns:dc="http://purl.org/dc/elements/1.1/"
   xmlns:cc="http://creativecommons.org/ns#"
   xmlns:rdf="http://www.w3.org/1999/02/22-rdf-syntax-ns#"
   xmlns:svg="http://www.w3.org/2000/svg"
   xmlns="http://www.w3.org/2000/svg"
   xmlns:xlink="http://www.w3.org/1999/xlink"
   xmlns:sodipodi="http://sodipodi.sourceforge.net/DTD/sodipodi-0.dtd"
   xmlns:inkscape="http://www.inkscape.org/namespaces/inkscape"
   version="1.1"
   width="64"
   height="64"
   id="svg13094"
   inkscape:version="0.92.2 5c3e80d, 2017-08-06"
   sodipodi:docname="application-sql.svg">
  <sodipodi:namedview
     pagecolor="#ffffff"
     bordercolor="#666666"
     borderopacity="1"
     objecttolerance="10"
     gridtolerance="10"
     guidetolerance="10"
     inkscape:pageopacity="0"
     inkscape:pageshadow="2"
     inkscape:window-width="1920"
     inkscape:window-height="1021"
     id="namedview72"
     showgrid="false"
     inkscape:snap-bbox="true"
     inkscape:bbox-paths="true"
     inkscape:bbox-nodes="true"
     inkscape:snap-bbox-edge-midpoints="true"
     inkscape:snap-bbox-midpoints="true"
     inkscape:object-paths="true"
     inkscape:snap-intersection-paths="true"
     inkscape:object-nodes="true"
     inkscape:snap-smooth-nodes="true"
     inkscape:snap-midpoints="true"
     inkscape:snap-object-midpoints="true"
     inkscape:snap-center="true"
     inkscape:zoom="7.375"
     inkscape:cx="28.132639"
     inkscape:cy="30.982085"
     inkscape:window-x="-4"
     inkscape:window-y="32"
     inkscape:window-maximized="1"
     inkscape:current-layer="svg13094"
     inkscape:snap-global="false">
    <inkscape:grid
       type="xygrid"
       id="grid3049" />
  </sodipodi:namedview>
  <defs
     id="defs11">
    <linearGradient
       inkscape:collect="always"
       id="linearGradient876">
      <stop
         style="stop-color:#5d4288;stop-opacity:1"
         offset="0"
         id="stop872" />
      <stop
         style="stop-color:#394464;stop-opacity:1"
         offset="1"
         id="stop874" />
    </linearGradient>
    <linearGradient
       inkscape:collect="always"
       id="linearGradient866">
      <stop
         style="stop-color:#ffffff;stop-opacity:0.37771347"
         offset="0"
         id="stop862" />
      <stop
         style="stop-color:#ffffff;stop-opacity:0;"
         offset="1"
         id="stop864" />
    </linearGradient>
    <linearGradient
       inkscape:collect="always"
       id="linearGradient848">
      <stop
         style="stop-color:#ffffff;stop-opacity:0.75907111"
         offset="0"
         id="stop844" />
      <stop
         style="stop-color:#ffffff;stop-opacity:0;"
         offset="1"
         id="stop846" />
    </linearGradient>
    <linearGradient
       inkscape:collect="always"
       id="linearGradient838">
      <stop
         style="stop-color:#9486b4;stop-opacity:1"
         offset="0"
         id="stop834" />
      <stop
         id="stop856"
         offset="0.11928183"
         style="stop-color:#3c3b5c;stop-opacity:1" />
      <stop
         id="stop850"
         offset="0.25965837"
         style="stop-color:#7584b7;stop-opacity:1" />
      <stop
         id="stop842"
         offset="0.5"
         style="stop-color:#c1dbed;stop-opacity:1" />
      <stop
         style="stop-color:#917f8a;stop-opacity:1"
         offset="0.74459547"
         id="stop852" />
      <stop
         id="stop854"
         offset="0.87008357"
         style="stop-color:#59474e;stop-opacity:1" />
      <stop
         style="stop-color:#59476e;stop-opacity:1"
         offset="1"
         id="stop836" />
    </linearGradient>
    <linearGradient
       y1="15"
       x2="64"
       y2="15"
       id="linearGradient3972"
       gradientUnits="userSpaceOnUse"
       gradientTransform="translate(0,64)">
      <stop
         id="stop3974"
         style="stop-color:#1b395f;stop-opacity:0.14901961"
         offset="0" />
      <stop
         id="stop3978"
         style="stop-color:#ffffff;stop-opacity:0.88969523"
         offset="0.4986577" />
      <stop
         id="stop3976"
         style="stop-color:#1b395f;stop-opacity:0.1509434"
         offset="1" />
    </linearGradient>
    <linearGradient
       x1="23.35111"
       y1="92.5"
       x2="41.135098"
       y2="92.5"
       id="linearGradient3970"
       xlink:href="#linearGradient3972"
       gradientUnits="userSpaceOnUse"
       gradientTransform="translate(0,-47)" />
    <linearGradient
       x1="23.35111"
       y1="92.5"
       x2="41.135098"
       y2="92.5"
       id="linearGradient3982"
       xlink:href="#linearGradient3972"
       gradientUnits="userSpaceOnUse"
       gradientTransform="translate(0,-64)" />
    <linearGradient
       inkscape:collect="always"
       xlink:href="#linearGradient838"
       id="linearGradient840"
       x1="0.12447034"
       y1="32"
       x2="63.87553"
       y2="32"
       gradientUnits="userSpaceOnUse" />
    <radialGradient
       inkscape:collect="always"
       xlink:href="#linearGradient866"
       id="radialGradient870"
       cx="32.83852"
       cy="15.581162"
       fx="32.83852"
       fy="15.581162"
       r="10.211102"
       gradientTransform="matrix(1.6372399,0,0,1.3220904,-21.764535,-5.599705)"
       gradientUnits="userSpaceOnUse" />
    <radialGradient
       inkscape:collect="always"
       xlink:href="#linearGradient876"
       id="radialGradient878"
       cx="31.45433"
       cy="22.49827"
       fx="31.45433"
       fy="22.49827"
       r="32"
       gradientTransform="matrix(1,0,0,1.1639301,0,0.29663715)"
       gradientUnits="userSpaceOnUse" />
    <radialGradient
       inkscape:collect="always"
       xlink:href="#linearGradient848"
       id="radialGradient848"
       cx="31.87793"
       cy="36.165279"
       fx="31.87793"
       fy="36.165279"
       r="3.3095705"
       gradientTransform="matrix(-0.95902941,0,0,-14.755229,62.449801,548.56215)"
       gradientUnits="userSpaceOnUse" />
  </defs>
  <metadata
     id="metadata13099">
    <rdf:RDF>
      <cc:Work
         rdf:about="">
        <dc:format>image/svg+xml</dc:format>
        <dc:type
           rdf:resource="http://purl.org/dc/dcmitype/StillImage" />
        <dc:title />
      </cc:Work>
    </rdf:RDF>
  </metadata>
  <path
     inkscape:connector-curvature="0"
     d="M 2,0 0,1 V 56.5 C 0,60.64214 14.326888,64 32,64 49.673112,64 64,60.64214 64,56.5 V 1 L 62,0 H 47.46875 V 3.4375 H 16.53125 V 0 Z"
     id="path958"
     style="fill:url(#linearGradient840);fill-opacity:1;fill-rule:nonzero" />
  <path
     style="fill:#3b577a;fill-rule:nonzero;fill-opacity:1;font-variant-east_asian:normal;opacity:1;vector-effect:none;stroke:none;stroke-width:1;stroke-linecap:butt;stroke-linejoin:miter;stroke-miterlimit:4;stroke-dasharray:none;stroke-dashoffset:0;stroke-opacity:1;marker:none"
     d="M 2 0 L 0 1 L 0 7.2402344 L 64 7.2402344 L 64 1 L 62 0 L 47.46875 0 L 47.46875 3.4375 L 16.53125 3.4375 L 16.53125 0 L 2 0 z "
     id="path915" />
  <path
     style="fill:#668cbb;fill-opacity:1;fill-rule:nonzero;font-variant-east_asian:normal;opacity:1;vector-effect:none;stroke:none;stroke-width:2.28571415;stroke-linecap:butt;stroke-linejoin:miter;stroke-miterlimit:4;stroke-dasharray:none;stroke-dashoffset:0;stroke-opacity:1;marker:none"
     d="M 2 0 L 0 1 L 0 5.40625 C 2.3053108 3.059675 8.4228929 1.111852 16.53125 0 L 2 0 z M 47.46875 0 C 55.577107 1.111852 61.694689 3.059675 64 5.40625 L 64 1 L 62 0 L 47.46875 0 z M 0 9.59375 L 0 15 L 16.53125 15 C 8.4201489 13.888784 2.3054588 11.940476 0 9.59375 z M 64 9.59375 C 61.694541 11.940476 55.579851 13.888784 47.46875 15 L 64 15 L 64 9.59375 z "
     id="path953" />
  <path
     style="fill:#e9eced;fill-opacity:1;fill-rule:nonzero"
     d="M 32,0 C 14.326888,0 0,3.357864 0,7.5 0,11.642136 14.326888,15 32,15 49.673112,15 64,11.642136 64,7.5 64,3.357864 49.673112,0 32,0 Z"
     id="path951" />
  <path
     d="m 0,24.5 0,1.4375 c 0.09001052,0.134458 0.17059217,0.279507 0.28125,0.40625 0.48168704,0.551706 1.1565822,1.032641 2,1.5 1.6868355,0.934717 4.0458131,1.752437 6.96875,2.4375 C 15.095874,31.651377 23.131778,32.5 32,32.5 c 8.868222,0 16.904126,-0.848623 22.75,-2.21875 2.922937,-0.685063 5.281914,-1.502783 6.96875,-2.4375 0.843418,-0.467359 1.518313,-0.948294 2,-1.5 C 63.829408,26.217007 63.909989,26.071958 64,25.9375 l 0,-1.4375 -0.5,0 c 0,0.37365 -0.1604,0.762742 -0.53125,1.1875 C 62.5979,26.112258 62.02587,26.538821 61.25,26.96875 59.698259,27.828608 57.367924,28.64033 54.5,29.3125 48.764152,30.656839 40.80489,31.5 32,31.5 23.19511,31.5 15.235848,30.656839 9.5,29.3125 6.6320759,28.64033 4.3017407,27.828608 2.75,26.96875 1.9741296,26.538821 1.4021002,26.112258 1.03125,25.6875 0.66039976,25.262742 0.5,24.87365 0.5,24.5 l -0.5,0 z"
     id="path3980"
     style="font-size:medium;font-style:normal;font-variant:normal;font-weight:normal;font-stretch:normal;text-indent:0;text-align:start;text-decoration:none;line-height:normal;letter-spacing:normal;word-spacing:normal;text-transform:none;direction:ltr;block-progression:tb;writing-mode:lr-tb;text-anchor:start;baseline-shift:baseline;color:#000000;fill:url(#linearGradient3982);fill-opacity:1;stroke:none;stroke-width:1;marker:none;visibility:visible;display:inline;overflow:visible;enable-background:accumulate;font-family:Sans;-inkscape-font-specification:Sans" />
  <path
     d="m 0,41.5 0,1.4375 c 0.09001052,0.13446 0.17059217,0.27951 0.28125,0.40625 0.48168704,0.55171 1.1565822,1.03264 2,1.5 1.6868355,0.93472 4.0458131,1.75244 6.96875,2.4375 C 15.095874,48.65138 23.131778,49.5 32,49.5 c 8.868222,0 16.904126,-0.84862 22.75,-2.21875 2.922937,-0.68506 5.281914,-1.50278 6.96875,-2.4375 0.843418,-0.46736 1.518313,-0.94829 2,-1.5 C 63.829408,43.21701 63.909989,43.07196 64,42.9375 l 0,-1.4375 -0.5,0 c 0,0.37365 -0.1604,0.76274 -0.53125,1.1875 C 62.5979,43.11226 62.02587,43.53882 61.25,43.96875 59.698259,44.82861 57.367924,45.64033 54.5,46.3125 48.764152,47.65684 40.80489,48.5 32,48.5 23.19511,48.5 15.235848,47.65684 9.5,46.3125 6.6320759,45.64033 4.3017407,44.82861 2.75,43.96875 1.9741296,43.53882 1.4021002,43.11226 1.03125,42.6875 0.66039976,42.26274 0.5,41.87365 0.5,41.5 l -0.5,0 z"
     id="path3820"
     style="font-size:medium;font-style:normal;font-variant:normal;font-weight:normal;font-stretch:normal;text-indent:0;text-align:start;text-decoration:none;line-height:normal;letter-spacing:normal;word-spacing:normal;text-transform:none;direction:ltr;block-progression:tb;writing-mode:lr-tb;text-anchor:start;baseline-shift:baseline;color:#000000;fill:url(#linearGradient3970);fill-opacity:1;stroke:none;stroke-width:1;marker:none;visibility:visible;display:inline;overflow:visible;enable-background:accumulate;font-family:Sans;-inkscape-font-specification:Sans"
     inkscape:connector-curvature="0" />
  <path
     d="m 0,15 0,47 2,2 14.53125,0 0,-49 L 0,15 z m 47.46875,0 0,49 L 62,64 64,62 64,15 47.46875,15 z"
     id="path3818"
     style="fill:url(#radialGradient878);fill-opacity:1;fill-rule:nonzero;font-variant-east_asian:normal;opacity:1;vector-effect:none;stroke:none;stroke-width:1;stroke-linecap:butt;stroke-linejoin:miter;stroke-miterlimit:4;stroke-dasharray:none;stroke-dashoffset:0;stroke-opacity:1;marker:none" />
  <path
     d="m 64,17 -2,-2 2,-1 z"
     id="path3028"
     style="fill:#52739c;fill-opacity:1" />
  <path
     d="M 0,17 2,15 0,14 z"
     id="path3028-3"
     style="fill:#80a2cf;fill-opacity:1" />
  <path
     style="fill:#668cbb;fill-opacity:0.25904486;fill-rule:nonzero;stroke:none"
     d="M 0 31 L 0 32 L 16.53125 32 L 16.53125 31 L 0 31 z M 47.46875 31 L 47.46875 32 L 64 32 L 64 31 L 47.46875 31 z M 0 48 L 0 49 L 16.53125 49 L 16.53125 48 L 0 48 z M 47.46875 48 L 47.46875 49 L 64 49 L 64 48 L 47.46875 48 z "
     id="rect3827" />
  <path
     style="opacity:1;vector-effect:none;fill:url(#radialGradient848);fill-opacity:1;fill-rule:nonzero;stroke:none;stroke-width:1;stroke-linecap:butt;stroke-linejoin:miter;stroke-miterlimit:4;stroke-dasharray:none;stroke-dashoffset:0;stroke-opacity:1;marker:none;paint-order:normal;font-variant-east_asian:normal"
     d="m 28.568359,14.955078 v 49 C 29.69665,63.983294 30.839759,64 32,64 c 1.07621,0 2.138587,-0.01279 3.1875,-0.03711 v -49 C 34.138587,14.987213 33.07621,15 32,15 c -1.160241,0 -2.30335,-0.01671 -3.431641,-0.04492 z"
     id="rect883" />
  <path
     id="path3949-9"
     d="m 89.205464,9.307814 v 1.999782 h 4.999454 V 9.307814 Z m 0,2.999673 v 1.999781 h 4.999454 v -1.999781 z"
     style="color:#000000;display:inline;overflow:visible;visibility:visible;opacity:1;fill:#162f4d;fill-opacity:0.35241502;fill-rule:nonzero;stroke:none;stroke-width:0.62299293;stroke-linecap:butt;stroke-linejoin:miter;stroke-miterlimit:4;stroke-dasharray:none;stroke-dashoffset:0;stroke-opacity:1;marker:none;enable-background:accumulate"
     inkscape:connector-curvature="0" />
  <ellipse
     style="opacity:1;vector-effect:none;fill:url(#radialGradient870);fill-opacity:1;fill-rule:nonzero;stroke:none;stroke-width:2.10552239;stroke-linecap:butt;stroke-linejoin:miter;stroke-miterlimit:4;stroke-dasharray:none;stroke-dashoffset:0;stroke-opacity:1;marker:none;paint-order:normal"
     id="path860"
     cx="32"
     cy="15"
     rx="16.718023"
     ry="13.5" />
</svg>
