<?xml version="1.0" encoding="UTF-8" standalone="no"?>
<svg
   xmlns:dc="http://purl.org/dc/elements/1.1/"
   xmlns:cc="http://creativecommons.org/ns#"
   xmlns:rdf="http://www.w3.org/1999/02/22-rdf-syntax-ns#"
   xmlns:svg="http://www.w3.org/2000/svg"
   xmlns="http://www.w3.org/2000/svg"
   xmlns:sodipodi="http://sodipodi.sourceforge.net/DTD/sodipodi-0.dtd"
   xmlns:inkscape="http://www.inkscape.org/namespaces/inkscape"
   viewBox="0 0 64 64"
   id="svg2"
   version="1.1"
   inkscape:version="0.92.2 5c3e80d, 2017-08-06"
   width="100%"
   height="100%"
   sodipodi:docname="application-x-font-ttf.svg">
  <metadata
     id="metadata29">
    <rdf:RDF>
      <cc:Work
         rdf:about="">
        <dc:format>image/svg+xml</dc:format>
        <dc:type
           rdf:resource="http://purl.org/dc/dcmitype/StillImage" />
      </cc:Work>
    </rdf:RDF>
  </metadata>
  <sodipodi:namedview
     pagecolor="#ffffff"
     bordercolor="#666666"
     borderopacity="1"
     objecttolerance="10"
     gridtolerance="10"
     guidetolerance="10"
     inkscape:pageopacity="0"
     inkscape:pageshadow="2"
     inkscape:window-width="1920"
     inkscape:window-height="1016"
     id="namedview27"
     showgrid="false"
     inkscape:zoom="8.2090678"
     inkscape:cx="21.167318"
     inkscape:cy="35.139113"
     inkscape:window-x="-5"
     inkscape:window-y="27"
     inkscape:window-maximized="1"
     inkscape:current-layer="svg2"
     inkscape:snap-global="false" />
  <defs
     id="defs4">
    <linearGradient
       id="0"
       gradientUnits="userSpaceOnUse"
       x1="48.918"
       y1="46.21"
       x2="32.67"
       y2="24">
      <stop
         stop-color="#fff"
         stop-opacity=".53"
         id="stop7" />
      <stop
         offset="1"
         stop-color="#fff"
         stop-opacity="0"
         id="stop9" />
    </linearGradient>
    <linearGradient
       x1="48.917568"
       y1="46.213669"
       x2="32.669781"
       y2="24"
       id="linearGradient4259-6-1"
       gradientUnits="userSpaceOnUse">
      <stop
         id="stop3988-6-1"
         style="stop-color:#ffffff;stop-opacity:0.52975047"
         offset="0" />
      <stop
         id="stop3990-9-2"
         style="stop-color:#ffffff;stop-opacity:0"
         offset="1" />
    </linearGradient>
  </defs>
  <path
     inkscape:connector-curvature="0"
     d="M 4,0 H 64 V 62 H 4 Z"
     id="path3960"
     style="fill:#50575a;fill-opacity:1;fill-rule:nonzero" />
  <path
     inkscape:connector-curvature="0"
     style="fill:#222e33;fill-opacity:0.12192981;fill-rule:nonzero"
     d="M 60,2 V 33 L 35.677734,62 H 64 V 37 6 Z"
     id="path3900" />
  <path
     inkscape:connector-curvature="0"
     d="M 0,2 H 60 V 33 L 34,64 H 0 Z"
     id="path4257"
     style="fill:url(#linearGradient4259-6-1);fill-rule:nonzero" />
  <path
     inkscape:connector-curvature="0"
     d="M 0,2 H 60 V 33 L 34,64 H 0 Z"
     id="path3982"
     style="color:#000000;display:inline;overflow:visible;visibility:visible;fill:#5a6368;fill-opacity:1;fill-rule:nonzero;stroke:none;stroke-width:1;marker:none;enable-background:accumulate" />
  <path
     inkscape:connector-curvature="0"
     d="M 34,64 60,33 c -2.328567,2.776369 -4.36141,3 -11,3 H 37 v 15 c 0,6.644068 0.04437,9.370179 -3,13 z"
     id="path4278"
     style="fill:#4d565a;fill-opacity:1;fill-rule:nonzero" />
  <path
     inkscape:connector-curvature="0"
     id="path845"
     style="font-style:italic;font-variant:normal;font-weight:bold;font-stretch:normal;font-size:medium;line-height:1.25;font-family:'Playfair Display';-inkscape-font-specification:'Playfair Display Bold Italic';letter-spacing:0px;word-spacing:0px;fill:#e3e5e6;fill-opacity:1;stroke:none;stroke-width:0.99999994;stroke-linecap:butt;stroke-linejoin:miter;stroke-miterlimit:4;stroke-dasharray:none;stroke-dashoffset:0;stroke-opacity:1"
     d="m 13.275614,31.317069 c -0.07561,0.252019 -0.113409,0.504037 -0.113409,0.756056 0,0.378028 0.100808,0.66785 0.302423,0.869465 0.201615,0.176413 0.478835,0.264619 0.831662,0.264619 0.554441,0 1.083681,-0.26462 1.587718,-0.793859 0.529239,-0.554441 0.995474,-1.373502 1.398704,-2.457183 l 0.567042,-1.549915 h 0.718254 l -0.756057,2.192563 c -0.982873,2.973821 -2.873013,4.460732 -5.670422,4.460732 -1.285295,0 -2.2555675,-0.327624 -2.9108165,-0.982873 -0.6300469,-0.680451 -0.9450704,-1.600319 -0.9450704,-2.759605 0,-0.730855 0.1134084,-1.486911 0.3402253,-2.268169 L 12.185092,16.67116 H 8.7828383 L 9.2307125,14.986253 H 12.670769 L 14.29629,9.3536333 c 2.142159,-0.025202 3.969295,-0.2016151 5.481408,-0.5292394 l -1.776733,6.1618591 h 4.271718 l -0.372268,1.684907 h -4.385126 z"
     sodipodi:nodetypes="cscscccccscscccccccccccc" />
</svg>
