<?xml version="1.0" encoding="UTF-8" standalone="no"?>
<!--Created with Inkscape (http://www.inkscape.org/)-->
<svg sodipodi:docname="midi.svg" inkscape:version="1.1 (c4e8f9ed74, 2021-05-24)" id="svg13094" height="64" width="64" version="1.1" xmlns:inkscape="http://www.inkscape.org/namespaces/inkscape" xmlns:sodipodi="http://sodipodi.sourceforge.net/DTD/sodipodi-0.dtd" xmlns:xlink="http://www.w3.org/1999/xlink" xmlns="http://www.w3.org/2000/svg" xmlns:svg="http://www.w3.org/2000/svg" xmlns:rdf="http://www.w3.org/1999/02/22-rdf-syntax-ns#" xmlns:cc="http://creativecommons.org/ns#" xmlns:dc="http://purl.org/dc/elements/1.1/">
  <sodipodi:namedview pagecolor="#cdd0d8" bordercolor="#666666" borderopacity="1" objecttolerance="10" gridtolerance="10" guidetolerance="10" inkscape:pageopacity="1" inkscape:pageshadow="2" inkscape:window-width="1920" inkscape:window-height="1019" id="namedview81" showgrid="true" inkscape:zoom="8" inkscape:cx="36" inkscape:cy="30.8125" inkscape:window-x="0" inkscape:window-y="0" inkscape:window-maximized="1" inkscape:current-layer="svg13094" inkscape:snap-bbox="true" inkscape:bbox-paths="true" inkscape:bbox-nodes="true" inkscape:snap-bbox-edge-midpoints="true" inkscape:snap-bbox-midpoints="true" inkscape:object-paths="true" inkscape:snap-intersection-paths="true" inkscape:object-nodes="true" inkscape:snap-smooth-nodes="true" inkscape:snap-midpoints="true" inkscape:snap-object-midpoints="true" inkscape:snap-center="true" inkscape:pagecheckerboard="0" inkscape:snap-global="false">
    <inkscape:grid type="xygrid" id="grid3044"/>
  </sodipodi:namedview>
  <defs id="defs11">
    <linearGradient inkscape:collect="always" id="linearGradient117080">
      <stop offset="0" id="stop117074" stop-color="#347566" stop-opacity="1"/>
      <stop offset="0.16692677" id="stop117076" stop-color="#397f6f" stop-opacity="1"/>
      <stop offset="1" id="stop117078" stop-color="#439985" stop-opacity="1"/>
    </linearGradient>
    <linearGradient inkscape:collect="always" id="linearGradient18332">
      <stop offset="0" id="stop18328" stop-color="#6ee0c5" stop-opacity="1"/>
      <stop offset="0.16692677" id="stop90297" stop-color="#50baa1" stop-opacity="1"/>
      <stop offset="1" id="stop18330" stop-color="#4aa892" stop-opacity="1"/>
    </linearGradient>
    <linearGradient inkscape:collect="always" id="linearGradient6273">
      <stop offset="0" id="stop6269" stop-color="#c2c2c2" stop-opacity="1"/>
      <stop offset="1" id="stop6271" stop-color="#dbd3d3" stop-opacity="1"/>
    </linearGradient>
    <linearGradient inkscape:collect="always" id="linearGradient3058">
      <stop offset="0" id="stop3054" stop-color="#d7d7d7" stop-opacity="1"/>
      <stop offset="1" id="stop3056" stop-color="#ede9e9" stop-opacity="1"/>
    </linearGradient>
    <linearGradient inkscape:collect="always" id="linearGradient1438">
      <stop offset="0" id="stop1434" stop-color="#ffffff" stop-opacity="0.30743986"/>
      <stop offset="1" id="stop1436" stop-color="#ffffff" stop-opacity="0.54848742"/>
    </linearGradient>
    <linearGradient inkscape:collect="always" id="linearGradient3832">
      <stop offset="0" id="stop3834" stop-color="#ff7f2a" stop-opacity="0.15501793"/>
      <stop offset="1" id="stop3836" stop-color="#ff7f2a" stop-opacity="0"/>
    </linearGradient>
    <linearGradient x1="48.917568" y1="46.213669" x2="32.669781" y2="24" id="linearGradient4259-6" gradientUnits="userSpaceOnUse">
      <stop id="stop3988-6" offset="0" stop-color="#ffffff" stop-opacity="0.52975047"/>
      <stop id="stop3990-9" offset="1" stop-color="#ffffff" stop-opacity="0"/>
    </linearGradient>
    <linearGradient x1="31" y1="64" x2="31" y2="2" id="linearGradient5236-7" gradientUnits="userSpaceOnUse">
      <stop id="stop5238-1" offset="0" stop-color="#607277" stop-opacity="1"/>
      <stop id="stop5240-4" offset="0.50050378" stop-color="#697c82" stop-opacity="1"/>
      <stop id="stop5242-1" offset="0.51612902" stop-color="#607277" stop-opacity="1"/>
      <stop id="stop5244-2" offset="1" stop-color="#697c82" stop-opacity="1"/>
    </linearGradient>
    <linearGradient inkscape:collect="always" xlink:href="#linearGradient5236-7" id="linearGradient3830" gradientUnits="userSpaceOnUse" gradientTransform="translate(-3067.6486,-1600.2279)" x1="3113.439" y1="1664.3622" x2="3113.439" y2="1602.3622"/>
    <radialGradient inkscape:collect="always" xlink:href="#linearGradient3832" id="radialGradient3842" gradientUnits="userSpaceOnUse" gradientTransform="matrix(1.4519844,0,0,1.5003839,-13.559533,-16.512669)" cx="30" cy="15.004606" fx="30" fy="15.004606" r="30"/>
    <linearGradient inkscape:collect="always" xlink:href="#linearGradient1438" id="linearGradient1448" x1="0" y1="50" x2="18" y2="50" gradientUnits="userSpaceOnUse" gradientTransform="matrix(1,0,0,0.75,2,-50.5)"/>
    <linearGradient inkscape:collect="always" xlink:href="#linearGradient3058" id="linearGradient3060" x1="31" y1="-9" x2="2.1576061" y2="-9" gradientUnits="userSpaceOnUse" gradientTransform="matrix(1,0,0,0.92423856,0,-0.71973369)"/>
    <linearGradient inkscape:collect="always" xlink:href="#linearGradient6273" id="linearGradient6027" gradientUnits="userSpaceOnUse" gradientTransform="matrix(1,0,0,0.92423856,-6.2939941e-7,-7.7197335)" x1="31" y1="-9" x2="2.1576061" y2="-9"/>
    <linearGradient inkscape:collect="always" xlink:href="#linearGradient117080" id="linearGradient18334" x1="49.949844" y1="44.785999" x2="37.461517" y2="35.598022" gradientUnits="userSpaceOnUse"/>
    <linearGradient inkscape:collect="always" xlink:href="#linearGradient18332" id="linearGradient103171" x1="34.334915" y1="62.961948" x2="9.0960903" y2="40.223122" gradientUnits="userSpaceOnUse"/>
  </defs>
  <metadata id="metadata13099">
    <rdf:RDF>
      <cc:Work rdf:about="">
        <dc:format>
          image/svg+xml
        </dc:format>
        <dc:type rdf:resource="http://purl.org/dc/dcmitype/StillImage"/>
      </cc:Work>
    </rdf:RDF>
  </metadata>
  <path d="M 4,0 64,0 64,62 4,62 z" id="path3960" fill="#367b6b" fill-opacity="1" fill-rule="nonzero"/>
  <path d="M 60 2 L 60 33 L 35.677734 62 L 64 62 L 64 37 L 64 6 L 60 2 z" id="path3900" fill="#000000" fill-rule="nonzero" fill-opacity="0.12960236"/>
  <path d="M 0,2 60,2 60,33 34,64 0,64 z" id="path4257" fill="url(#linearGradient4259-6)" fill-rule="nonzero"/>
  <path style="marker:none" id="path3828" d="M 0,2 60,2 60,33 34,64 0,64 z" inkscape:connector-curvature="0" color="#000000" fill="url(#linearGradient3830)" fill-opacity="1" fill-rule="nonzero" stroke="none" stroke-width="1" visibility="visible" display="inline" overflow="visible" enable-background="accumulate"/>
  <path style="marker:none" id="path3840" d="M 0,2 60,2 60,33 34,64 0,64 z" inkscape:connector-curvature="0" color="#000000" fill="url(#radialGradient3842)" fill-opacity="1" fill-rule="nonzero" stroke="none" stroke-width="1" visibility="visible" display="inline" overflow="visible" enable-background="accumulate"/>
  <path d="M 0,2 60,2 60,33 34,64 0,64 z" id="path3982" style="marker:none" fill="url(#linearGradient103171)" fill-rule="nonzero" color="#000000" fill-opacity="1" stroke="none" stroke-width="1" visibility="visible" display="inline" overflow="visible" enable-background="accumulate"/>
  <path d="M 34,64 60,33 c -2.328567,2.776369 -4.36141,3 -11,3 H 37 v 15 c 0,6.644068 0.04437,9.370179 -3,13 z" id="path4278" fill="url(#linearGradient18334)" fill-rule="nonzero" fill-opacity="1"/>
  <g id="g2389">
    <path id="rect2822" transform="rotate(90)" d="m 2,-13 h 28 c 1.108,0 2,0.892 2,2 v 3 c 0,1.108 -0.892,2 -2,2 H 2 Z" sodipodi:nodetypes="csssscc" fill="#543e64" fill-opacity="0.2718007"/>
    <path id="rect982" transform="rotate(90)" d="m 2,-12.734835 h 27.870273 c 1.024056,0 1.848477,0.824421 1.848477,1.848477 v 2.772716 c 0,1.0240564 -0.824421,1.8484771 -1.848477,1.8484771 H 2 Z" sodipodi:nodetypes="csssscc" fill="url(#linearGradient3060)" stroke-width="0.961373"/>
  </g>
  <g id="g2392">
    <path id="rect2822-7" transform="rotate(90)" d="m 2,-20 h 28 c 1.108,0 2,0.892 2,2 v 3 c 0,1.108 -0.892,2 -2,2 H 2 Z" sodipodi:nodetypes="csssscc" opacity="1" vector-effect="none" fill="#543e64" fill-opacity="0.2718007" stop-color="#000000" stop-opacity="1"/>
    <path id="rect982-5" transform="rotate(90)" d="m 2,-19.734835 h 27.870273 c 1.024056,0 1.848477,0.824421 1.848477,1.848477 v 2.772716 c 0,1.024056 -0.824421,1.848477 -1.848477,1.848477 H 2 Z" sodipodi:nodetypes="csssscc" fill="url(#linearGradient6027)" stroke-width="0.961373"/>
  </g>
  <g id="g2386">
    <g id="g88093">
      <g id="g89550">
        <path d="M 15 2 L 15 20.8571 C 15 20.9443 14.9903 21.0292 14.972 21.1107 C 14.8573 21.621 14.4031 22 13.8571 22 C 13.8571 22 13.7975 22 13.7005 22 C 13.2773 22 12.1429 22 12.1429 22 C 12.1218 22 12.1009 21.9994 12.0802 21.9983 C 11.4882 21.9666 11.0187 21.4885 11.0005 20.8929 C 11.0002 20.881 11 20.8691 11 20.8571 L 11 2 C 11 2 11.0813 2 11.2208 2 C 12.0593 2 15 2 15 2" id="path89536" fill="#0e0e1e" fill-opacity="0.03999999" stroke-width="0.617213px"/>
        <path d="M 15.3146 2 C 15.3146 2 15.3146 20.9234 15.3146 21.3621 C 15.3146 21.467 15.3065 21.555 15.2913 21.6229 C 15.1957 22.1536 14.7398 22.5562 14.1835 22.5708 C 14.1737 22.5722 14.1139 22.5729 14.0227 22.5729 C 13.6701 22.5729 12.4815 22.5729 12.4236 22.5729 C 12.3982 22.5729 12.3764 22.5724 12.3591 22.5715 C 11.75 22.5451 11.2655 22.0535 11.2505 21.4414 C 11.2502 21.4315 11.25 21.4192 11.25 21.4046 C 11.25 21.2378 11.25 2.44208 11.25 2.04256 C 11.25 2.01481 11.3178 2 11.434 2 C 12.1328 2 15.3146 2 15.3146 2" id="path89538" fill="#0e0e1e" fill-opacity="0.03999999" stroke-width="0.617213px"/>
        <path d="M 15.6292 2 C 15.6292 2 15.6292 20.9896 15.6292 21.8671 C 15.6292 21.9896 15.6227 22.0808 15.6105 22.1351 C 15.534 22.6862 15.0765 23.1124 14.51 23.1415 C 14.4902 23.1444 14.4302 23.1458 14.345 23.1458 C 14.0628 23.1458 12.8202 23.1458 12.7043 23.1458 C 12.6746 23.1458 12.6518 23.1455 12.638 23.1447 C 12.0118 23.1236 11.5124 22.6185 11.5004 21.9899 C 11.5001 21.982 11.5 21.9693 11.5 21.952 C 11.5 21.6185 11.5 2.88417 11.5 2.08512 C 11.5 2.02962 11.5542 2 11.6472 2 C 12.2062 2 15.6292 2 15.6292 2" id="path89540" fill="#0e0e1e" fill-opacity="0.03999999" stroke-width="0.617213px"/>
        <path d="M 15.9437 2 C 15.9437 2 15.9437 21.0559 15.9437 22.3721 C 15.9437 22.5123 15.9389 22.6065 15.9298 22.6473 C 15.8724 23.2188 15.4132 23.6685 14.8364 23.7123 C 14.8067 23.7165 14.7466 23.7188 14.6672 23.7188 C 14.4556 23.7188 13.1589 23.7188 12.9851 23.7188 C 12.951 23.7188 12.9273 23.7185 12.9169 23.7179 C 12.2737 23.7021 11.7593 23.1834 11.7503 22.5384 C 11.7501 22.5325 11.75 22.5194 11.75 22.4994 C 11.75 21.9992 11.75 3.32625 11.75 2.12768 C 11.75 2.04443 11.7907 2 11.8604 2 C 12.2797 2 15.9437 2 15.9437 2" id="path89542" fill="#0e0e1e" fill-opacity="0.03999999" stroke-width="0.617213px"/>
        <path d="M 16.2583 2 C 16.2583 2 16.2583 21.1221 16.2583 22.8771 C 16.2583 23.035 16.2551 23.1323 16.249 23.1595 C 16.2108 23.7515 15.7499 24.2247 15.1628 24.283 C 15.1232 24.2887 15.0629 24.2917 14.9894 24.2917 C 14.8484 24.2917 13.4976 24.2917 13.2658 24.2917 C 13.2275 24.2917 13.2027 24.2915 13.1958 24.2911 C 12.5355 24.2805 12.0062 23.7484 12.0002 23.0869 C 12.0001 23.083 12 23.0695 12 23.0469 C 12 22.3798 12 3.76833 12 2.17024 C 12 2.05925 12.0271 2 12.0736 2 C 12.3531 2 16.2583 2 16.2583 2" id="path89544" fill="#0e0e1e" fill-opacity="0.03999999" stroke-width="0.617213px"/>
        <path d="M 16.5729 2 C 16.5729 2 16.5729 21.1884 16.5729 23.3821 C 16.5729 23.5576 16.5713 23.6581 16.5683 23.6717 C 16.5491 24.2841 16.0867 24.7809 15.4892 24.8538 C 15.4398 24.8609 15.3793 24.8646 15.3117 24.8646 C 15.2412 24.8646 13.8363 24.8646 13.5465 24.8646 C 13.5039 24.8646 13.4781 24.8645 13.4747 24.8643 C 12.7973 24.859 12.2531 24.3134 12.2501 23.6354 C 12.25 23.6334 12.25 23.6195 12.25 23.5943 C 12.25 22.7605 12.25 4.21041 12.25 2.21279 C 12.25 2.07406 12.2636 2 12.2868 2 C 12.4266 2 16.5729 2 16.5729 2" id="path89546" fill="#0e0e1e" fill-opacity="0.03999999" stroke-width="0.617213px"/>
        <path d="M 16.8875 2 C 16.8875 2 16.8875 21.2546 16.8875 23.8871 C 16.8875 24.0803 16.8875 24.1839 16.8875 24.1839 C 16.8875 24.8167 16.4234 25.3371 15.8156 25.4246 C 15.7563 25.4331 15.6956 25.4375 15.6339 25.4375 C 15.6339 25.4375 14.1749 25.4375 13.8273 25.4375 C 13.7803 25.4375 13.7536 25.4375 13.7536 25.4375 C 13.0591 25.4375 12.5 24.8784 12.5 24.1839 C 12.5 24.1839 12.5 24.1696 12.5 24.1418 C 12.5 23.1412 12.5 4.6525 12.5 2.25535 C 12.5 2.08887 12.5 2 12.5 2 Z" id="path89548" fill="#0e0e1e" fill-opacity="0.03999999" stroke-width="0.617213px"/>
      </g>
    </g>
    <path id="path87991" d="M 15,2 V 20.857143 C 15,21.490286 14.490286,22 13.857143,22 H 12.142857 C 11.509714,22 11,21.490286 11,20.857143 V 2 Z" sodipodi:nodetypes="csssscc" fill="#3d4047" fill-opacity="1" stroke-width="0.617213"/>
    <path id="rect976" transform="rotate(90)" d="M 2,-14.5 H 19.142857 C 19.617714,-14.5 20,-14.117714 20,-13.642857 v 1.285714 C 20,-11.882286 19.617714,-11.5 19.142857,-11.5 H 2 Z" sodipodi:nodetypes="csssscc" fill="url(#linearGradient1448)" stroke-width="0.534522"/>
  </g>
  <use x="0" y="0" xlink:href="#g2389" id="use2398" transform="translate(14)" width="100%" height="100%"/>
  <use x="0" y="0" xlink:href="#g2389" id="use2402" transform="translate(28)" width="100%" height="100%"/>
  <use x="0" y="0" xlink:href="#g2389" id="use2394" transform="translate(42)" width="100%" height="100%"/>
  <use x="0" y="0" xlink:href="#g2392" id="use2400" transform="translate(14)" width="100%" height="100%"/>
  <use x="0" y="0" xlink:href="#g2392" id="use2396" transform="translate(28)" width="100%" height="100%"/>
  <use x="0" y="0" xlink:href="#g2386" id="use2406" transform="translate(7)" width="100%" height="100%"/>
  <use x="0" y="0" xlink:href="#g2386" id="use2410" transform="translate(21)" width="100%" height="100%"/>
  <use x="0" y="0" xlink:href="#g2386" id="use2412" transform="translate(28)" width="100%" height="100%"/>
  <use x="0" y="0" xlink:href="#g2386" id="use2404" transform="translate(35)" width="100%" height="100%"/>
</svg>
