<?xml version="1.0" encoding="UTF-8"?>
<!-- Created with Inkscape (http://www.inkscape.org/) -->
<svg width="64" height="64" version="1.1" xmlns="http://www.w3.org/2000/svg" xmlns:cc="http://creativecommons.org/ns#" xmlns:dc="http://purl.org/dc/elements/1.1/" xmlns:rdf="http://www.w3.org/1999/02/22-rdf-syntax-ns#">
	<defs>
		<linearGradient id="d" x1="82.74" x2="71" y1="79.42" y2="69" gradientTransform="translate(-34,-33)" gradientUnits="userSpaceOnUse">
			<stop stop-color="#50931a" offset="0"/>
			<stop stop-color="#4e9316" offset=".2523"/>
			<stop stop-color="#55a018" offset="1"/>
		</linearGradient>
		<radialGradient id="b" cx="46.87" cy="36.89" r="14.16" gradientTransform="matrix(1.44,0,0,2.118,-19.19,-35.79)" gradientUnits="userSpaceOnUse">
			<stop stop-color="#002455" stop-opacity=".3139" offset="0"/>
			<stop stop-color="#0d2548" stop-opacity=".1428" offset="1"/>
		</radialGradient>
		<radialGradient id="c" cx="20.34" cy="28.54" r="30" gradientTransform="matrix(1.181,0,0,1.22,-5.424,-7.265)" gradientUnits="userSpaceOnUse">
			<stop stop-color="#1b4757" stop-opacity=".06802" offset="0"/>
			<stop stop-color="#0a4f68" stop-opacity=".01013" offset="1"/>
		</radialGradient>
		<linearGradient id="a" x1="37" x2="48.96" y1="36" y2="46.16" gradientUnits="userSpaceOnUse">
			<stop stop-color="#a3f83d" stop-opacity="0" offset="0"/>
			<stop stop-color="#a3f83d" stop-opacity=".01894" offset=".5903"/>
			<stop stop-color="#a3f83d" stop-opacity=".05317" offset=".7003"/>
			<stop stop-color="#a3f83d" stop-opacity=".1777" offset=".8081"/>
			<stop stop-color="#a3f83d" stop-opacity=".244" offset=".9019"/>
			<stop stop-color="#a3f83d" stop-opacity=".4224" offset="1"/>
		</linearGradient>
	</defs>
	<metadata>
		<rdf:RDF>
			<cc:Work rdf:about="">
				<dc:format>image/svg+xml</dc:format>
				<dc:type rdf:resource="http://purl.org/dc/dcmitype/StillImage"/>
				<dc:title/>
			</cc:Work>
		</rdf:RDF>
	</metadata>
	<path d="m4 0h60v62h-60z" fill="#4f941d"/>
	<path d="m60 2v31l-24.32 29h28.32v-56z" fill="url(#b)"/>
	<path d="m0 2h60v31l-26 31h-34z" color="#000000" fill="#70bc2c"/>
	<path d="m0 2h60v31l-26 31h-34z" color="#000000" fill="url(#c)"/>
	<path d="m0 2h60v31l-26 31h-34z" color="#000000" fill="url(#a)"/>
	<path d="m34 64 26-31c-2.329 2.776-4.361 3-11 3h-12v15c0 6.644 0.04437 9.37-3 13z" fill="url(#d)"/>
	<path d="m5 7v15h24v-15h-22.59zm1 2h4v3h-4zm5 0h8v3h-8zm9 0h8v3h-8zm-14 4h4v3h-4zm5 0h8v3h-8zm9 0h8v3h-8zm-14 4h4v3h-4zm5 0h8v3h-8zm9 0h8v3h-8z" color="#000000" fill="#e9f3d9"/>
	<path d="m47.5 7c-0.8284 0-1.5 0.6716-1.5 1.5s0.6716 1.5 1.5 1.5 1.5-0.6716 1.5-1.5-0.6716-1.5-1.5-1.5zm3.5 0v2h2v5h-5v-2h-2v3c0 0.554 0.446 1 1 1h7c0.554 0 1-0.446 1-1v-7c0-0.554-0.446-1-1-1h-3z" color="#000000" fill="#e9f3d9"/>
</svg>
