<?xml version="1.0" encoding="UTF-8"?>
<!-- Created with Inkscape (http://www.inkscape.org/) -->
<svg width="64" height="64" version="1.1" xmlns="http://www.w3.org/2000/svg" xmlns:cc="http://creativecommons.org/ns#" xmlns:dc="http://purl.org/dc/elements/1.1/" xmlns:rdf="http://www.w3.org/1999/02/22-rdf-syntax-ns#" xmlns:xlink="http://www.w3.org/1999/xlink">
	<defs>
		<radialGradient id="a" cx="32.542" cy="-22.639" r="32" gradientTransform="matrix(0 .48729 -1.791 0 -8.0044 -15.629)" gradientUnits="userSpaceOnUse">
			<stop stop-color="#d4bf91" offset="0"/>
			<stop stop-color="#e6be7c" offset="1"/>
		</radialGradient>
		<radialGradient id="b" cx="23.137" cy="54.02" r="32" gradientTransform="matrix(1.3446 0 0 1.0085 -11.582 .8623)" gradientUnits="userSpaceOnUse">
			<stop stop-color="#87716a" stop-opacity=".76034" offset="0"/>
			<stop stop-color="#89746c" stop-opacity="0" offset="1"/>
		</radialGradient>
	</defs>
	<metadata>
		<rdf:RDF>
			<cc:Work rdf:about="">
				<dc:format>image/svg+xml</dc:format>
				<dc:type rdf:resource="http://purl.org/dc/dcmitype/StillImage"/>
				<dc:title/>
			</cc:Work>
		</rdf:RDF>
	</metadata>
	<path d="m0 1 2-1h60l2 1v16h-64z" fill="url(#a)"/>
	<path d="m0 16h64v46l-2 2h-60l-2-2z" color="#000000" fill="#ae7f45"/>
	<path d="m0 16h64v46l-2 2h-60l-2-2z" fill="url(#b)"/>
	<path d="m64 18-2-2 2-1z" fill="#be9156"/>
	<path d="m0 18 2-2-2-1z" fill="#eecc80"/>
	<path d="m39 56.2v-2.8h2.8 2.8v2.8 2.8h-2.8-2.8zm4.8 0v-2h-2-2v2 2h2 2zm-3.2 0v-1.2h1.2 1.2v1.2 1.2h-1.2-1.2zm4.8 1.2v-1.6h0.39999 0.4v-0.4-0.4h0.4 0.4v-0.79999-0.8h-0.80001-0.79999v-1.2-1.2h0.39999 0.4v-0.40001-0.39999h-0.79999-0.80001v0.39999 0.40001h-0.4-0.4v0.39999 0.40001h0.4 0.4v0.39999 0.40001h-1.2-1.2v-0.40001-0.39999h-0.40002-0.39998v0.39999 0.40001h-0.4-0.4v-0.8-0.8h-0.4-0.39998v0.39999 0.40001h-0.4-0.4v-0.40001-0.39999h0.4 0.4v-1.2-1.2h-0.4-0.4v-0.8-0.8h0.4 0.4v-0.40001-0.39999h-0.4-0.4v-0.40001-0.4h1.6 1.6v0.4 0.40001h0.79999 0.8v-0.40001-0.4h0.4 0.4v0.4 0.40001h-0.4-0.4v0.39999 0.40001h0.4 0.4v0.39999 0.40001h-0.4-0.4v0.39999 0.40001h0.4 0.4v0.39999 0.40001h0.4 0.4v-0.40001-0.39999h0.39999 0.4v-0.40001-0.39999h-0.4-0.39999v-1.2-1.2h0.39999 0.4v0.80001 0.8h0.4 0.4v-2-2h0.4 0.39998v1.2 1.2h0.80001 0.80001v0.4 0.40001h-0.4-0.4v0.39999 0.40001h0.80001 0.8v-2.8-2.8h-0.4-0.4v0.8 0.8h-0.4-0.4v-0.8-0.8h0.4 0.4v-0.40001-0.39999h-0.80001-0.80001v0.8 0.8h-0.79999-0.80001v0.4 0.4h-0.4-0.39999v-1.2-1.2h0.39999 0.4v-0.40001-0.39999h-0.4-0.39999v-0.40001-0.39999h0.39999 0.4v0.39999 0.40001h1.2 1.2v-0.40001-0.39999h0.4 0.4v0.8 0.8h0.4 0.4v-0.40001-0.39999h0.39999 0.4v0.39999 0.40001h-0.4-0.39999v0.39999 0.40001h0.39999 0.4v0.39999 0.40001h0.4 0.4v-1.2-1.2h0.39998 0.4v2.4 2.4h-0.4-0.39998v0.4 0.4h0.79999 0.80001v0.4 0.40001h-0.4-0.4v0.39999 0.40001h0.80001 0.79999v-0.40001-0.39999h0.4 0.40002v-0.40001-0.4h1.2 1.2v1.2 1.2h0.79999 0.8v1.2 1.2h-0.4-0.4v0.39999 0.40001h0.4 0.4v0.8 0.8h-0.8-0.79999v0.39999 0.40001h0.79999 0.8v0.39999 0.40001h-1.2-1.2v-0.8-0.8h-0.39999-0.40004v1.6 1.6h0.40004 0.39999v0.4 0.4h-0.39999-0.40004v0.4 0.4h0.80003 0.80001v-1.2-1.2h0.79999 0.79998v1.6h-0.8v0.8h-0.80006v0.79999h1.6v0.8h-3.2v-1.6h-0.79997v1.6h-0.80003v-0.8h-1.6v-2.4h-0.79999v-0.80001h-0.80001v0.80001h-0.79999v0.8h1.6v0.8h-0.8v0.79999h-0.79999v0.8h-1.6v-0.8h0.80001v-2.4h-0.8v-0.80001h0.80001v0.80001h0.8v-1.6h-0.8v-0.8h-1.6v1.6h-0.79999v1.6h1.6v0.8h-0.80001v0.79999h-0.79999v0.8h-1.6v-1.6zm9.6-1.2v-0.40001h-0.80003v0.80001h0.80003zm0-2.4v-1.2h-2.4v2.4h2.4v-1.2zm-1.6 0v-0.4h0.4 0.39999v0.4 0.4h-0.39999-0.4zm-1.6-0.8v-1.2h-0.80001-0.79999v-0.40001-0.39999h0.79999 0.80001v-0.40001-0.39999h0.39998 0.4v-0.80002-0.79998h-0.4-0.39998v-0.40001-0.39999h0.39998 0.4v-0.40001-0.39999h-0.4-0.39998v-0.8-0.80001h-0.4-0.4v1.2 1.2h-0.4-0.39999v0.39999 0.40001h0.79999 0.80001v0.79998 0.80002h-0.80001-0.79999v-0.40001-0.40001h-0.4-0.4v-0.39999-0.39999h-0.4-0.4v-0.40001-0.39999h-0.4-0.4v0.8 0.79998h-0.39998-0.4v0.8 0.80002h0.79999 0.80001v0.39999 0.39999h-0.4-0.4v0.40001 0.4h-0.39998-0.4v-0.4-0.40001h-0.4-0.4v0.40001 0.4h0.4 0.4v0.4 0.4h0.4 0.39998v-0.4-0.4h0.80001 0.80001v0.4 0.4h0.8 0.79999v0.4 0.4h0.4 0.4zm-2.4-0.8v-0.39999h0.4 0.4v0.39999 0.40001h-0.4-0.4zm-0.80001-2v-0.8h0.4 0.4v0.39999 0.40001h0.4 0.4v0.39999 0.40001h-0.8-0.80001zm5.6 1.2v-0.39999h0.4 0.40002v0.39999 0.40001h1.2 1.2v-0.8-0.8h-2-2v0.8 0.8h0.4 0.39999zm-12.8-0.8v-0.39999h1.6 1.6v-0.40001-0.39999h-0.4-0.4v-0.40001-0.39999h-0.39998-0.40002v-0.40001-0.39999h0.40002 0.39998v-0.40001-0.39999h-0.8-0.79999v-0.40001-0.39999h-0.40002-0.39998v0.39999 0.40001h-0.80001-0.79999v0.39999 0.40001h0.79999 0.80001v0.8 0.79998h-0.4-0.4v0.80002 0.8h0.4 0.4zm0-3.2v-0.39999h0.39998 0.40002v0.39999 0.40001h-0.40002-0.39998zm16.8 1.6v-0.39999h-0.39999-0.4v0.39999 0.40001h0.4 0.39999zm-4-0.8v-0.39999h-0.39999-0.4v0.39999 0.40001h0.4 0.39999zm1.6-0.39999v-0.8h0.40004 0.39999v-0.40001-0.39999h-0.80003-0.79997v1.2 1.2h0.39998 0.39999zm-4-4v-0.8h-0.80001v1.6h0.80001v-0.8zm6.4 2v-0.4h0.4 0.4v0.4 0.40001h-0.4-0.4zm-19.2-4v-2.8h2.8 2.8v2.8 2.8h-2.8-2.8zm4.8 0v-2h-2-2v2 2h2 2zm-3.2 0v-1.2h1.2 1.2v1.2 1.2h-1.2-1.2zm4.8 2.4v-0.4h0.79999v0.8h-0.79999zm3.2 0v-0.4h0.4 0.4v0.4 0.4h-0.4-0.4zm4.8-2.4v-2.8h2.8 2.8v5.6h-5.6v-2.8zm4.8 0v-2h-2-2v2 2h2 2zm-3.2 0v-1.2h1.2 1.2v1.2 1.2h-1.2-1.2z" fill="#240d00" fill-opacity=".23879"/>
	<path d="m5.207 48c-0.043718 2.6e-5 -0.083556 0.03659-0.087891 0.08008 0 0-0.15311 1.5182-0.11328 2.1387 0.019953 0.31329 0.14832 1.0821 0.39258 1.9043 0.24429 0.82221 0.60105 1.6929 1.1035 2.1953-3.87e-5 2.4e-5 0.00391 2e-3 0.00391 2e-3 0.226 0.20709 0.32735 0.36805 0.38281 0.64648 0.055427 0.27845 0.056641 0.67724 0.056641 1.3223-3.87e-5 0.74151 0.00793 0.62075-0.019531 1.1445-0.013741 0.26184-0.03774 0.47771-0.072266 0.62695-0.017224 0.07462-0.037327 0.13316-0.056641 0.16797-0.019721 0.03478-0.033916 0.04203-0.037109 0.04297-0.26763 0.07173-0.57819 0.19791-0.8457 0.33008-0.26752 0.13214-0.48432 0.25653-0.58594 0.375-0.020804 0.02672-0.027993 0.06482-0.013672 0.0957 0.013934 0.03073 0.048222 0.05072 0.082031 0.05078h1.9336 1.9336c0.034119 8.4e-5 0.067768-0.02009 0.082031-0.05078 0.013934-0.03069 0.00839-0.06998-0.013672-0.0957-0.10156-0.11849-0.31645-0.24283-0.58398-0.375-0.26752-0.13213-0.57999-0.25835-0.84766-0.33008-0.00387-0.0015-0.017814-0.0081-0.037109-0.04297-0.01974-0.0349-0.039204-0.09336-0.056641-0.16797-0.034506-0.14924-0.056747-0.36506-0.070312-0.62695-0.027288-0.52376-0.019531-0.403-0.019531-1.1445 0-0.6448 1.36e-5 -1.0439 0.056641-1.3223 0.055388-0.27834 0.15499-0.43924 0.38086-0.64648 0-5.79e-4 3.62e-5 -0.0011 0.00391-2e-3 0.51296-0.51299 0.86964-1.3834 1.1113-2.2031 0.24162-0.81973 0.36468-1.5841 0.38477-1.8965 0.039732-0.62062-0.11133-2.1289-0.11133-2.1289 7.74e-5 -0.04661-0.043165-0.089844-0.089844-0.089844h-4.2441zm8.8496 0-2.748 3.8223h1.832v6.8359h-2.5176v0.46484h2.0176 2.834 2.0156v-0.46484h-2.5176v-6.8359h1.834zm10.916 0c-0.09365 7.74e-4 -0.1754 0.1178-0.19531 0.28516-3.0094 0.07063-5.6748 1.9386-6.3242 4.623 0.20177-0.42697 0.69748-0.71025 1.2461-0.71289 0.08974-3.87e-4 0.18198 0.0064 0.27344 0.02148 0.49807 0.08244 0.89367 0.38903 1.0332 0.78906l0.04883 2e-3c0.22896-0.5057 0.8683-0.8158 1.5254-0.70703 0.47233 0.07818 0.85461 0.35863 1.0117 0.72852h0.0098c0.16419-0.46376 0.66521-0.78232 1.2305-0.80469-0.0021 1.0723-0.0038 2.5725-2e-3 3.6406l-0.17969 0.02148c0.037 0.31468-0.09538 1.0811 0.0332 1.791 0.06431 0.35496 0.20651 0.71522 0.50195 0.98828 0.29548 0.27306 0.72706 0.43779 1.2969 0.45703h0.01953l0.01953-2e-3c0.77-0.07269 1.2332-0.43251 1.4277-0.87109 0.1945-0.43858 0.16016-0.89936 0.16016-1.2324h-0.59375c0 0.35639 0.0057 0.73232-0.10938 0.99219-0.11403 0.25713-0.30829 0.4557-0.92383 0.51758-0.4577-0.01866-0.72101-0.14026-0.89258-0.29883-0.17412-0.16091-0.27038-0.38264-0.32031-0.6582-0.09978-0.55112 0.03362-1.2352-0.02734-1.7539l-0.13672 0.01563c-0.0025-1.062-1.47e-4 -2.5316 2e-3 -3.5938 0.01742 0.0023 0.03524 3e-3 0.05273 0.0059 0.50573 0.08371 0.90549 0.39954 1.0391 0.80859h0.04492c0.19746-0.54938 0.86599-0.89329 1.5547-0.7793 0.50399 0.08342 0.90408 0.39572 1.0391 0.80273h0.01758c0.19953-0.5468 0.8659-0.88909 1.5527-0.77539 0.50176 0.08305 0.90036 0.39443 1.0371 0.79883h0.06641c-0.47912-2.3685-2.5666-4.2365-5.2559-4.7051-0.36314-0.06328-0.72379-0.09888-1.082-0.10938-0.01626-0.1406-0.07798-0.25122-0.1582-0.2793-0.01374-0.0048-0.02757-6e-3 -0.04102-0.0059z" color="#000000" fill="#240d00" fill-opacity=".23879"/>
	<path d="m47.11 19.906c-0.88525 6e-6 -1.5866 0.26529-2.1001 0.79751-0.5135 0.53223-0.74434 1.257-0.74434 2.2064 0 0.94409 0.23352 1.6955 0.74434 2.233 0.5135 0.5349 1.2149 0.82409 2.1001 0.82409 0.88257-1e-6 1.5866-0.28652 2.1001-0.82409 0.51349-0.53757 0.77092-1.2677 0.77093-2.2064-6e-6 -0.94944-0.26011-1.7008-0.77093-2.233-0.51083-0.53489-1.2149-0.7975-2.1001-0.79751zm-23.42 0.07975v11.989h2.1799v-5.1306h1.8609c0.52265 0 0.83787-0.0054 0.93043 0 0.12521 0.20688 0.4555 0.87226 0.9836 1.9938l1.3824 3.1369h2.4191l-1.7811-3.6951c-0.43556-0.8983-0.79594-1.5022-1.0899-1.8343 1.4427-0.50087 2.1533-1.5471 2.1533-3.1369-9e-6 -0.53897-0.06568-1.0169-0.21267-1.4089-0.14156-0.39742-0.33441-0.71201-0.58484-0.95701-0.245-0.24498-0.58073-0.44328-0.9836-0.58484-0.39744-0.14698-0.80301-0.23797-1.2494-0.29242-0.44099-0.05444-0.96412-0.07974-1.5684-0.07975zm10.82 0v0.87726h1.7279v4.9977h1.0633v-4.9977h1.7014v-0.87726zm5.1041 0v0.87726h3.004l-3.1103 4.28v0.71776h4.4129v-0.87726h-3.0837l3.0571-4.2002v-0.79751zm-35.516 0.02659v1.7811h3.4825v10.182h2.233v-10.182h3.4559v-1.7811zm12.202 0-4.4129 11.963h2.3128l1.1963-3.3761h4.2002l1.1697 3.3761h2.2862l-4.3331-11.963zm30.81 0.77093c0.56699 6e-6 0.98717 0.18116 1.276 0.55826 0.29151 0.37711 0.4785 0.91036 0.47851 1.595-5e-6 0.67664-0.18699 1.1967-0.47851 1.5684-0.28885 0.36908-0.70636 0.55826-1.276 0.55826-0.56967 1e-6 -0.9845-0.21309-1.276-0.58484-0.29152-0.37175-0.42534-0.86788-0.42534-1.5419-2e-6 -0.68199 0.13382-1.2179 0.42534-1.595 0.29419-0.37977 0.70635-0.55825 1.276-0.55826zm-21.24 0.85068h2.552c0.77308 9e-6 1.3523 0.1211 1.7279 0.39876 0.37565 0.27767 0.55825 0.71463 0.55826 1.3026-9e-6 0.66965-0.18805 1.1572-0.55826 1.4621-0.37022 0.29945-0.98498 0.45193-1.8343 0.45192h-1.2228c-0.72954-0.0054-1.1412 8e-6 -1.2228 0zm-8.3473 0.45192c0.02721 0.10345 0.53529 1.7235 1.5153 4.8648h-3.0837z" color="#000000" fill="#4c3339" style="font-variant-east_asian:normal"/>
	<path d="m47.323 20.81c-0.59479 0.09956-1.077 0.34518-1.4621 0.74434-0.11478 0.11897-0.23189 0.2336-0.319 0.37217-0.09105 0.29112-0.13292 0.62212-0.13292 1.0102-2e-6 0.67397 0.13382 1.1701 0.42534 1.5419 0.16717 0.21318 0.38379 0.35336 0.63801 0.45192-0.13166-0.31091-0.21267-0.68413-0.21267-1.1431-2e-6 -0.68199 0.13382-1.2179 0.42534-1.595 0.29419-0.37977 0.70635-0.55825 1.276-0.55826 0.24059 3e-6 0.44911 0.03997 0.63801 0.10634-0.06666-0.14208-0.12471-0.28497-0.21267-0.39876-0.23581-0.30785-0.56431-0.47695-0.9836-0.53167-0.02556-0.0033-0.05346 0.0025-0.07975 0zm-8.3207 0.02658v0.02658h-1.7014v4.9977h-0.21267v0.85068h1.0633v-4.9977h1.7014v-0.85068h-0.23925v-0.02658zm4.8648 0-0.63801 0.87726h0.23925l-2.3659 3.2698h1.1963l2.0204-2.7381c0.0013-0.0091-0.0014-0.01757 0-0.02658 0.06814-0.45876 0.20087-0.86292 0.42534-1.1963v-0.18609zm-30.598 0.02658v0.93043h-3.4559v10.182h-1.3824v0.85068h2.233v-10.182h3.4559v-1.7811zm5.7687 0 4.0141 11.112h-1.7279l0.29242 0.85068h2.2862l-4.3331-11.963zm16.322 0v0.85068h0.87726v-0.85068zm5.1041 0v0.85068h1.5419l0.61142-0.85068zm9.0916 0.29242c0.28866 0.48036 0.42534 1.069 0.42534 1.7811-4e-6 0.65415-0.12263 1.1912-0.37217 1.6482-0.08315 0.30443-0.2082 0.56182-0.37217 0.77093-0.28885 0.36908-0.70636 0.55826-1.276 0.55826-0.05671 0-0.10583 0.0042-0.1595 0-0.01789-0.0014-0.03561 0.0019-0.05317 0-0.19814 0.03526-0.41736 0.05317-0.63801 0.05317-0.61592-1e-6 -1.1319-0.16-1.5684-0.42534 0.09373 0.16079 0.1913 0.31753 0.319 0.45192 0.5135 0.5349 1.2149 0.82409 2.1001 0.82409 0.88257-1e-6 1.5866-0.28652 2.1001-0.82409 0.51349-0.53757 0.77092-1.2677 0.77093-2.2064-6e-6 -0.94944-0.26011-1.7008-0.77093-2.233-0.15-0.15706-0.32208-0.2884-0.50509-0.39876zm-17.253 0.29242c0.07994 0.14086 0.15204 0.28172 0.21267 0.45192 0.14699 0.392 0.21266 0.86996 0.21267 1.4089-9e-6 1.5897-0.71055 2.636-2.1533 3.1369 0.29398 0.3321 0.65438 0.93598 1.0899 1.8343l1.7811 3.6951h-1.9406l0.37217 0.85068h2.4191l-1.7811-3.6951c-0.43556-0.8983-0.79594-1.5022-1.0899-1.8343 1.4427-0.50087 2.1533-1.5471 2.1533-3.1369-8e-6 -0.53897-0.06568-1.0169-0.21267-1.4089-0.14156-0.39742-0.33441-0.71201-0.58484-0.95701-0.13428-0.13426-0.29361-0.24102-0.47851-0.34559zm-6.4333 0.18609v3.6154c0.05681 6e-6 0.47856-2.27e-4 0.85068 0v-2.7647h2.552c0.54051 6e-6 0.98152 0.05557 1.3292 0.18609-0.09029-0.26385-0.23567-0.47816-0.45192-0.63801-0.37566-0.27765-0.95486-0.39875-1.7279-0.39876zm-20.921 0.15951v0.85068h2.6318v-0.85068zm12.574 0.29242-1.5684 4.8648h1.1165l1.0102-3.0837c-0.13859-0.44516-0.54829-1.7432-0.55826-1.7811zm26.398 3.7483v0.02658h-3.4559l-0.10634 0.13292v0.71776h4.4129v-0.87726zm-18.05 1.0102v5.1306h-1.3292v0.85068h2.1799v-5.1307h1.8609c0.28372 0 0.34606 5.97e-4 0.50509 0-0.12806-0.25614-0.37177-0.76217-0.42534-0.85068-0.09256-0.0054-0.40778 0-0.93043 0zm-10.474 1.7545-1.1963 3.3761h-1.1431l-0.319 0.85068h2.3128l1.1963-3.3761h3.642l-0.29242-0.85068z" color="#000000" fill="#642400" fill-opacity=".14043"/>
</svg>
