<?xml version="1.0" encoding="UTF-8" standalone="no"?>
<!-- Created with Inkscape (http://www.inkscape.org/) -->

<svg
   xmlns:dc="http://purl.org/dc/elements/1.1/"
   xmlns:cc="http://creativecommons.org/ns#"
   xmlns:rdf="http://www.w3.org/1999/02/22-rdf-syntax-ns#"
   xmlns:svg="http://www.w3.org/2000/svg"
   xmlns="http://www.w3.org/2000/svg"
   xmlns:sodipodi="http://sodipodi.sourceforge.net/DTD/sodipodi-0.dtd"
   xmlns:inkscape="http://www.inkscape.org/namespaces/inkscape"
   version="1.1"
   width="64"
   height="64"
   id="svg13094"
   inkscape:version="0.92.2 5c3e80d, 2017-08-06"
   sodipodi:docname="apk.svg">
  <sodipodi:namedview
     pagecolor="#ffffff"
     bordercolor="#666666"
     borderopacity="1"
     objecttolerance="10"
     gridtolerance="10"
     guidetolerance="10"
     inkscape:pageopacity="0"
     inkscape:pageshadow="2"
     inkscape:window-width="1920"
     inkscape:window-height="1033"
     id="namedview44"
     showgrid="true"
     inkscape:zoom="5.2149125"
     inkscape:cx="58.1584"
     inkscape:cy="33.729289"
     inkscape:window-x="-10"
     inkscape:window-y="25"
     inkscape:window-maximized="1"
     inkscape:current-layer="svg13094"
     inkscape:snap-global="true">
    <inkscape:grid
       type="xygrid"
       id="grid3800" />
  </sodipodi:namedview>
  <defs
     id="defs11" />
  <metadata
     id="metadata13099">
    <rdf:RDF>
      <cc:Work
         rdf:about="">
        <dc:format>image/svg+xml</dc:format>
        <dc:type
           rdf:resource="http://purl.org/dc/dcmitype/StillImage" />
        <dc:title />
      </cc:Work>
    </rdf:RDF>
  </metadata>
  <path
     d="M 0,1 2,0 h 60 l 2,1 V 17 H 0 Z"
     id="path3029-3"
     style="fill:#aadc61;fill-opacity:1;fill-rule:nonzero"
     inkscape:connector-curvature="0"
     sodipodi:nodetypes="ccccccc" />
  <path
     d="m 0,16 h 64 v 46 l -2,2 H 2 L 0,62 Z"
     id="path3809-5"
     style="color:#000000;display:inline;overflow:visible;visibility:visible;fill:#a07c46;fill-opacity:1;fill-rule:nonzero;stroke-width:1;stroke-linecap:butt;stroke-linejoin:miter;stroke-miterlimit:4;stroke-dasharray:none;stroke-dashoffset:0;stroke-opacity:1;marker:none;enable-background:accumulate"
     inkscape:connector-curvature="0"
     sodipodi:nodetypes="ccccccc" />
  <path
     d="m 0,16 h 64 v 46 l -2,2 H 2 L 0,62 Z"
     id="path3831-6"
     style="fill:#7aa635;fill-opacity:1;fill-rule:nonzero"
     inkscape:connector-curvature="0"
     sodipodi:nodetypes="ccccccc" />
  <path
     d="m 64,18 -2,-2 2,-1 z"
     id="path3028-6"
     style="fill:#93c24c;fill-opacity:1"
     inkscape:connector-curvature="0"
     sodipodi:nodetypes="cccc" />
  <path
     d="M 0,18 2,16 0,15 Z"
     id="path3028-3-0"
     style="fill:#bcf46b;fill-opacity:1"
     inkscape:connector-curvature="0"
     sodipodi:nodetypes="cccc" />
  <path
     style="color:#000000;fill:#d2d8c7;fill-opacity:1;fill-rule:nonzero;stroke:none;stroke-width:1;marker:none;visibility:visible;display:inline;overflow:visible;enable-background:accumulate"
     d="M 14.9375 28.96875 C 13.537968 28.987208 12.528394 30.800703 13.25 32 L 17.65625 39.78125 C 9.9892475 44.198306 4.8892602 52.04595 4.875 61 L 59.125 61 C 59.107382 52.040465 53.990248 44.194203 46.3125 39.78125 L 50.75 32 C 51.273599 31.083702 50.916297 29.773599 50 29.25 C 49.083702 28.726401 47.773599 29.083702 47.25 30 L 42.71875 38.03125 C 39.432288 36.726606 35.805061 36 32 36 C 28.199284 36 24.595462 36.727558 21.3125 38.03125 L 16.75 30 C 16.396135 29.360119 15.668357 28.946038 14.9375 28.96875 z M 20 46 C 21.656854 46 23 47.343146 23 49 C 23 50.656854 21.656854 52 20 52 C 18.343146 52 17 50.656854 17 49 C 17 47.343146 18.343146 46 20 46 z M 44 46 C 45.656854 46 47 47.343146 47 49 C 47 50.656854 45.656854 52 44 52 C 42.343146 52 41 50.656854 41 49 C 41 47.343146 42.343146 46 44 46 z "
     id="path4414" />
</svg>
