<?xml version="1.0" encoding="UTF-8"?>
<!-- Created with Inkscape (http://www.inkscape.org/) -->
<svg width="64" height="64" version="1.1" xmlns="http://www.w3.org/2000/svg" xmlns:cc="http://creativecommons.org/ns#" xmlns:dc="http://purl.org/dc/elements/1.1/" xmlns:rdf="http://www.w3.org/1999/02/22-rdf-syntax-ns#" xmlns:xlink="http://www.w3.org/1999/xlink">
	<defs>
		<radialGradient id="a" cx="32.542" cy="-22.639" r="32" gradientTransform="matrix(0 .48729 -1.791 0 -8.0044 -15.629)" gradientUnits="userSpaceOnUse">
			<stop stop-color="#d4bf91" offset="0"/>
			<stop stop-color="#e6be7c" offset="1"/>
		</radialGradient>
		<radialGradient id="b" cx="23.137" cy="54.02" r="32" gradientTransform="matrix(1.3446 0 0 1.0085 -11.582 .8623)" gradientUnits="userSpaceOnUse">
			<stop stop-color="#87716a" stop-opacity=".76034" offset="0"/>
			<stop stop-color="#89746c" stop-opacity="0" offset="1"/>
		</radialGradient>
	</defs>
	<metadata>
		<rdf:RDF>
			<cc:Work rdf:about="">
				<dc:format>image/svg+xml</dc:format>
				<dc:type rdf:resource="http://purl.org/dc/dcmitype/StillImage"/>
				<dc:title/>
			</cc:Work>
		</rdf:RDF>
	</metadata>
	<path d="m0 1 2-1h60l2 1v16h-64z" fill="url(#a)"/>
	<path d="m0 16h64v46l-2 2h-60l-2-2z" color="#000000" fill="#ae7f45"/>
	<path d="m0 16h64v46l-2 2h-60l-2-2z" fill="url(#b)"/>
	<path d="m64 18-2-2 2-1z" fill="#be9156"/>
	<path d="m0 18 2-2-2-1z" fill="#eecc80"/>
	<path d="m32.131 24.473c-6.0165 0-13.172 5.8929-13.172 16.212 0 8.1117 6.4431 14.186 14.186 14.186 7.0926 0 10.133-3.458 10.133-8.1004 0-5.1929-3.7584-7.1773-8.1061-8.0426-5.7628-1.1472-5.1295-7.0296-2.2798-8.1752 0.95003-0.43752 2.2798-0.90261 2.2798-3.0398 0-1.6151-1.361-3.0398-3.0398-3.0398zm7.0928 2.0265c-1.1192 0-2.0265 0.90747-2.0265 2.0265 0 1.1192 0.90727 2.0265 2.0265 2.0265 1.1192 0 2.0265-0.90727 2.0265-2.0265 0-1.119-0.90727-2.0265-2.0265-2.0265zm6.0795 6.0795c-1.1192 0-2.0265 0.90747-2.0265 2.0265 0 1.1192 0.90727 2.0265 2.0265 2.0265 1.1192 0 2.0265-0.90727 2.0265-2.0265 0-1.119-0.90727-2.0265-2.0265-2.0265zm2.0265 8.1061c-1.1192 0-2.0265 0.90747-2.0265 2.0265 0 1.1192 0.90727 2.0265 2.0265 2.0265 1.1192 0 2.0265-0.90727 2.0265-2.0265 0-1.119-0.90727-2.0265-2.0265-2.0265z" color="#000000" fill="#4c3339" style="font-variant-east_asian:normal"/>
	<path d="m34.688 25.938c0.29461 0.46914 0.46875 0.99097 0.46875 1.5625 0 2.1372-1.3 2.625-2.25 3.0625-2.3154 0.93079-3.1966 4.9895-0.34375 7.0938-1.5831-2.1936-0.64266-5.2952 1.3438-6.0938 0.95003-0.43752 2.25-0.92534 2.25-3.0625 0-1.0657-0.58342-2.0172-1.4688-2.5625zm6.375 1.75c0.1205 0.25928 0.1875 0.53904 0.1875 0.84375 0 1.1192-0.91201 2.0312-2.0312 2.0312-0.30476 0-0.58446-0.067001-0.84375-0.1875 0.32204 0.69296 1.0293 1.1875 1.8438 1.1875 1.1192 0 2.0312-0.912 2.0312-2.0312 0-0.81433-0.49454-1.5217-1.1875-1.8438zm6.0625 6.0938c0.1133 0.25278 0.21875 0.51759 0.21875 0.8125 0 1.1192-0.91201 2.0312-2.0312 2.0312-0.29496 0-0.59096-0.074205-0.84375-0.1875 0.31661 0.70644 1.0195 1.1875 1.8438 1.1875 1.1192 0 2.0312-0.91201 2.0312-2.0312 0-0.82413-0.51231-1.4958-1.2188-1.8125zm2.0312 8.0625c0.12789 0.26564 0.1875 0.56049 0.1875 0.875 0 1.1192-0.88076 2.0312-2 2.0312-0.27981 0-0.57005-0.053705-0.8125-0.15625 0.32983 0.67222 1.0132 1.1562 1.8125 1.1562 1.1192 0 2-0.91201 2-2.0312 0-0.82948-0.47369-1.5614-1.1875-1.875zm-7.3125 0.28125c0.89883 1.1577 1.4375 2.6982 1.4375 4.6562 0 4.6423-3.0324 8.0938-10.125 8.0938-3.673 0-7.0548-1.3845-9.5938-3.6875 2.6129 2.9001 6.4182 4.6875 10.594 4.6875 7.0926 0 10.125-3.4514 10.125-8.0938 0-2.5965-0.95445-4.4029-2.4375-5.6562z" color="#000000" fill="#642400" fill-opacity=".14043" style="font-variant-east_asian:normal"/>
</svg>
