<?xml version="1.0" encoding="UTF-8"?>
<!-- Created with Inkscape (http://www.inkscape.org/) -->
<svg width="64" height="64" version="1.1" xmlns="http://www.w3.org/2000/svg" xmlns:cc="http://creativecommons.org/ns#" xmlns:dc="http://purl.org/dc/elements/1.1/" xmlns:rdf="http://www.w3.org/1999/02/22-rdf-syntax-ns#">
	<defs>
		<linearGradient id="e" x1="48.92" x2="32.67" y1="46.21" y2="24" gradientUnits="userSpaceOnUse">
			<stop stop-color="#ffffff" stop-opacity=".5298" offset="0"/>
			<stop stop-color="#ffffff" stop-opacity="0" offset="1"/>
		</linearGradient>
		<linearGradient id="d" x1="82.74" x2="71" y1="79.42" y2="69" gradientTransform="translate(-34,-33)" gradientUnits="userSpaceOnUse">
			<stop stop-color="#117de1" offset="0"/>
			<stop stop-color="#117cde" offset=".2523"/>
			<stop stop-color="#1284ed" offset="1"/>
		</linearGradient>
		<linearGradient id="c" x1="37" x2="48.96" y1="36" y2="46.16" gradientUnits="userSpaceOnUse">
			<stop stop-color="#43b5ff" stop-opacity="0" offset="0"/>
			<stop stop-color="#4ab9ff" stop-opacity=".01092" offset=".5903"/>
			<stop stop-color="#47b7ff" stop-opacity=".1471" offset=".7003"/>
			<stop stop-color="#46b6ff" stop-opacity=".2673" offset=".8081"/>
			<stop stop-color="#44b5ff" stop-opacity=".5149" offset=".9019"/>
			<stop stop-color="#43b5ff" offset="1"/>
		</linearGradient>
		<radialGradient id="a" cx="20.34" cy="28.54" r="30" gradientTransform="matrix(1.181,0,0,1.22,-5.424,-7.265)" gradientUnits="userSpaceOnUse">
			<stop stop-color="#1b4757" stop-opacity=".06802" offset="0"/>
			<stop stop-color="#0a4f68" stop-opacity=".01013" offset="1"/>
		</radialGradient>
		<radialGradient id="b" cx="46.87" cy="36.89" r="14.16" gradientTransform="matrix(1.44,0,0,2.118,-19.19,-35.79)" gradientUnits="userSpaceOnUse">
			<stop stop-color="#002455" stop-opacity=".3139" offset="0"/>
			<stop stop-color="#0d2548" stop-opacity=".1428" offset="1"/>
		</radialGradient>
	</defs>
	<metadata>
		<rdf:RDF>
			<cc:Work rdf:about="">
				<dc:format>image/svg+xml</dc:format>
				<dc:type rdf:resource="http://purl.org/dc/dcmitype/StillImage"/>
				<dc:title/>
			</cc:Work>
		</rdf:RDF>
	</metadata>
	<path d="m4 0h60v62h-60z" fill="#1383e9"/>
	<path d="m0 2h60v31l-26 31h-34z" fill="url(#e)"/>
	<path d="m0 2h60v31l-26 31h-34z" color="#000000" fill="#2d97f7"/>
	<path d="m29.12 2c0.1452 12.52-9.276 23.95-29.12 29.62v0.5625c19.32-4.819 35.68-14.79 38.31-30.19h-9.188zm18.97 14.91c-19.76 0.0242-38.64 12-48.09 42.91v4.188h10.06c6.78-29.4 24.59-49.05 49.94-44.62v-1.094c-0.4814-0.1091-0.9553-0.216-1.438-0.3125-3.488-0.698-6.989-1.067-10.47-1.062z" color="#000000" fill="#e8ecee" style="font-variant-east_asian:normal"/>
	<path d="m0 2h60v31l-26 31h-34z" color="#000000" fill="url(#a)"/>
	<path d="m0 2h60v31l-26 31h-34z" color="#000000" fill="url(#c)"/>
	<path d="m34 64 26-31c-2.329 2.776-4.361 3-11 3h-12v15c0 6.644 0.04437 9.37-3 13z" fill="url(#d)"/>
	<path d="m60 2v31l-24.32 29h28.32v-56z" fill="url(#b)"/>
</svg>
