<?xml version="1.0" encoding="UTF-8"?>
<!-- Created with Inkscape (http://www.inkscape.org/) -->
<svg width="64" height="64" version="1.1" xmlns="http://www.w3.org/2000/svg" xmlns:cc="http://creativecommons.org/ns#" xmlns:dc="http://purl.org/dc/elements/1.1/" xmlns:rdf="http://www.w3.org/1999/02/22-rdf-syntax-ns#">
	<defs>
		<linearGradient id="linearGradient880" x1="82.744" x2="71" y1="79.421" y2="69" gradientTransform="translate(-34,-33)" gradientUnits="userSpaceOnUse">
			<stop stop-color="#c79c60" offset="0"/>
			<stop stop-color="#caaa72" offset=".25231"/>
			<stop stop-color="#d5c095" offset="1"/>
		</linearGradient>
		<radialGradient id="radialGradient13114" cx="18.073" cy="52.994" r="30" gradientTransform="matrix(2.1226 0 0 2.1933 -28.813 -47.808)" gradientUnits="userSpaceOnUse">
			<stop stop-color="#e6c4a8" offset="0"/>
			<stop stop-color="#e1d4ad" offset="1"/>
		</radialGradient>
		<linearGradient id="linearGradient65039" x1="48.258" x2="36.557" y1="47" y2="35.298" gradientUnits="userSpaceOnUse">
			<stop stop-color="#ffffcb" stop-opacity=".30325" offset="0"/>
			<stop stop-color="#ffffff" stop-opacity="0" offset="1"/>
		</linearGradient>
		<linearGradient id="linearGradient82616" x1="53.055" x2="60.201" y1="35.97" y2="35.97" gradientUnits="userSpaceOnUse">
			<stop stop-color="#ffffff" stop-opacity=".21183" offset="0"/>
			<stop stop-color="#ffffff" stop-opacity="0" offset="1"/>
		</linearGradient>
		<radialGradient id="a" cx="46.762" cy="39.221" r="14.161" gradientTransform="matrix(.86297 .86297 -2.3655 2.3655 98.927 -83.343)" gradientUnits="userSpaceOnUse">
			<stop stop-color="#700a36" stop-opacity=".30196" offset="0"/>
			<stop stop-color="#532240" stop-opacity=".15195" offset="1"/>
		</radialGradient>
		<linearGradient id="linearGradient76950" x1="63.086" x2="63.086" y1="11.788" y2="-2.7756e-17" gradientUnits="userSpaceOnUse">
			<stop stop-color="#cdb174" offset="0"/>
			<stop stop-color="#d8c48d" offset="1"/>
		</linearGradient>
	</defs>
	<metadata>
		<rdf:RDF>
			<cc:Work rdf:about="">
				<dc:format>image/svg+xml</dc:format>
				<dc:type rdf:resource="http://purl.org/dc/dcmitype/StillImage"/>
			</cc:Work>
		</rdf:RDF>
	</metadata>
	<g>
		<path d="m4 0h60v62h-60z" fill="url(#linearGradient76950)"/>
		<rect x="13" width="1" height="62" color="#000000" fill="#cb0000" fill-opacity=".2182"/>
		<path d="m4 16v1h60v-1h-60zm0 6v1h60v-1h-60zm0 6v1h60v-1h-60zm0 6v1h60v-1h-60zm0 6v1h60v-1h-60zm0 6v1h60v-1h-60zm0 6v1h60v-1h-60z" color="#000000" fill="#2d7dd3" fill-opacity=".23421"/>
	</g>
	<g>
		<path d="m60 2h-56v60h57v-59z" fill="url(#a)" stop-color="#000000" style="-inkscape-stroke:none;font-variation-settings:normal"/>
		<path d="m0 2v62h34l26-31v-31h-60zm10 3c1.6569 0 3 1.3431 3 3s-1.3431 3-3 3-3-1.3431-3-3 1.3431-3 3-3zm10 0c1.6569 0 3 1.3431 3 3s-1.3431 3-3 3-3-1.3431-3-3 1.3431-3 3-3zm10 0c1.6569 0 3 1.3431 3 3s-1.3431 3-3 3-3-1.3431-3-3 1.3431-3 3-3zm10 0c1.6569 0 3 1.3431 3 3s-1.3431 3-3 3-3-1.3431-3-3 1.3431-3 3-3zm10 0c1.6569 0 3 1.3431 3 3s-1.3431 3-3 3-3-1.3431-3-3 1.3431-3 3-3z" fill="url(#radialGradient13114)"/>
		<path d="m0 2v62h34l26-31v-31zm10 3c1.6569 0 3 1.3431 3 3s-1.3431 3-3 3-3-1.3431-3-3 1.3431-3 3-3zm10 0c1.6569 0 3 1.3431 3 3s-1.3431 3-3 3-3-1.3431-3-3 1.3431-3 3-3zm10 0c1.6569 0 3 1.3431 3 3s-1.3431 3-3 3-3-1.3431-3-3 1.3431-3 3-3zm10 0c1.6569 0 3 1.3431 3 3s-1.3431 3-3 3-3-1.3431-3-3 1.3431-3 3-3zm10 0c1.6569 0 3 1.3431 3 3s-1.3431 3-3 3-3-1.3431-3-3 1.3431-3 3-3z" color="#000000" fill="url(#linearGradient65039)"/>
	</g>
	<g>
		<path d="m9 2v3.1875c0.31647-0.11352 0.64447-0.1875 1-0.1875v-3h-1zm0 8.8125v53.188h1v-53c-0.35553 0-0.68353-0.073979-1-0.1875z" color="#000000" fill="#cb0000" fill-opacity=".2182"/>
		<path d="m0 18v1h60v-1zm0 6v1h60v-1zm0 6v1h60v-1zm0 6v1h56.469l0.84375-1zm0 6v1h51.438l0.84375-1zm0 6v1h46.406l0.84375-1zm0 6v1h41.375l0.84375-1z" color="#000000" fill="#2d7dd3" fill-opacity=".18409"/>
		<path d="m34 64 26-31c-2.3286 2.7764-4.3614 3-11 3h-12v15c0 6.6441 0.04437 9.3702-3 13z" fill="url(#linearGradient880)"/>
		<path d="m57 35.25c-0.31363 0.1196-0.64042 0.22813-1 0.3125v2.207l1-1.1934v-1.3262zm-6 0.73633c-0.31144 0.00421-0.66336 0.004137-1 0.00586v8.9316l1-1.1934v-7.7441zm-7 0.013672v16.076l1-1.1914v-14.885h-1z" color="#000000" fill="#2d7dd3" fill-opacity=".22239"/>
	</g>
	<path d="m60 33c-2.3286 2.7764-4.3614 3-11 3h-11.5" fill="none" stroke="url(#linearGradient82616)" stroke-linecap="round" stroke-opacity=".9954"/>
	<rect y="2" width="60" height="1" fill="#ffffff" fill-opacity=".23" stop-color="#000000" style="-inkscape-stroke:none;paint-order:stroke fill markers"/>
	<rect x="4" width="60" height="1" fill="#ffffff" fill-opacity=".2" stop-color="#000000" style="-inkscape-stroke:none;paint-order:stroke fill markers"/>
	<rect transform="rotate(90)" x="2" y="-1" width="62" height="1" fill="#000000" fill-opacity=".04" stop-color="#000000" style="-inkscape-stroke:none;paint-order:stroke fill markers"/>
</svg>
