<?xml version="1.0" encoding="UTF-8"?>
<svg width="64" height="64" version="1.1" xmlns="http://www.w3.org/2000/svg">
  <defs>
    <radialGradient id="a" cx="46.306" cy="38.848" r="14.161" gradientTransform="matrix(2.3177 0 0 3.1347 -60.325 -73.277)" gradientUnits="userSpaceOnUse">
      <stop stop-color="#56088f" stop-opacity=".35" offset="0"/>
      <stop stop-color="#472253" stop-opacity=".14556" offset="1"/>
    </radialGradient>
    <linearGradient id="c" x1="48.918" x2="35.678" y1="46.214" y2="32.974" gradientUnits="userSpaceOnUse">
      <stop stop-color="#7cfeff" stop-opacity=".42168" offset="0"/>
      <stop stop-color="#34fffb" stop-opacity="0" offset="1"/>
    </linearGradient>
    <linearGradient id="d" x1="82.744" x2="71" y1="79.421" y2="69" gradientTransform="translate(-34,-33)" gradientUnits="userSpaceOnUse">
      <stop stop-color="#31a5f5" offset="0"/>
      <stop stop-color="#26beff" offset=".25231"/>
      <stop stop-color="#30d0ff" offset="1"/>
    </linearGradient>
    <radialGradient id="b" cx="8.5693" cy="26.419" r="30" gradientTransform="matrix(2.4121 0 0 2.4925 -12.294 -54.03)" gradientUnits="userSpaceOnUse">
      <stop stop-color="#38ccff" offset="0"/>
      <stop stop-color="#37dcff" stop-opacity="0" offset="1"/>
    </radialGradient>
  </defs>
  <path d="m4 0h60v62h-60z" fill="#33b6f1"/>
  <path d="m60 2v31l-24.322 29h28.322v-56z" fill="url(#a)"/>
  <path d="m0 2h60v31l-26 31h-34z" fill="#66d8ff"/>
  <path d="m0 2h60v31l-26 31h-34z" fill="url(#b)"/>
  <path d="m0 2h60v31l-26 31h-34z" fill="url(#c)"/>
  <path d="m34 64 26-31c-2.3286 2.7764-4.3614 3-11 3h-12v15c0 6.6441 0.04437 9.3702-3 13z" fill="url(#d)"/>
  <path transform="matrix(.83529 0 0 .83626 -1.7566 .78294)" d="m34.309 29.309-12.212 7.0507-12.212-7.0507v-14.101l12.212-7.0507 12.212 7.0507z" fill="none" stroke="#eef9ff" stroke-width="1.1965" style="-inkscape-stroke:none"/>
  <path d="m19.903 23.496c-1.2198 0.93613-2.8343 1.2901-4.3884 0.87316-2.2116-0.59328-3.7494-2.5997-3.7494-4.892 1.1e-5 -2.2923 1.5378-4.2987 3.7494-4.892 1.5856-0.42537 3.2341-0.04829 4.4621 0.93083" fill="none" stroke="#eef9ff" stroke-width="4.786"/>
  <path d="m21 17v1h-1v1h1v1h-1v1h1v1h1v-1h1v1h1v-1h1v-1h-1v-1h1v-1h-1v-1h-1v1h-1v-1zm1 2h1v1h-1z" fill="#eef9ff" style="-inkscape-stroke:none"/>
</svg>
