<?xml version="1.0" encoding="UTF-8"?>
<svg width="64" height="64" version="1.1" xmlns="http://www.w3.org/2000/svg" xmlns:xlink="http://www.w3.org/1999/xlink">
  <defs>
    <radialGradient id="a" cx="46.306" cy="38.848" r="14.161" gradientTransform="matrix(2.3177 0 0 3.1347 -60.325 -73.277)" gradientUnits="userSpaceOnUse">
      <stop style="stop-color:#671043;stop-opacity:.21335" offset="0"/>
      <stop style="stop-color:#472253;stop-opacity:.14556" offset="1"/>
    </radialGradient>
    <linearGradient id="c" x1="48.918" x2="35.678" y1="46.214" y2="32.974" gradientUnits="userSpaceOnUse">
      <stop style="stop-color:#fff;stop-opacity:.52975" offset="0"/>
      <stop style="stop-color:#fff;stop-opacity:0" offset="1"/>
    </linearGradient>
    <linearGradient id="d" x1="82.744" x2="71" y1="79.421" y2="69" gradientTransform="translate(-34,-33)" gradientUnits="userSpaceOnUse">
      <stop style="stop-color:#d4c9dd" offset="0"/>
      <stop style="stop-color:#d5d3db" offset=".25231"/>
      <stop style="stop-color:#d4dee4" offset="1"/>
    </linearGradient>
    <radialGradient id="b" cx="8.5693" cy="26.419" r="30" gradientTransform="matrix(2.4121 0 0 2.4925 -12.294 -54.03)" gradientUnits="userSpaceOnUse">
      <stop style="stop-color:#6040ff;stop-opacity:.054902" offset="0"/>
      <stop style="stop-color:#2a82ff;stop-opacity:0" offset="1"/>
    </radialGradient>
  </defs>
  <metadata/>
  <path d="m4 0h60v62h-60z" style="fill:#d5dee4"/>
  <path d="m60 2v31l-24.322 29h28.322v-56z" style="fill:url(#a)"/>
  <path d="m0 2h60v31l-26 31h-34z" style="color:#000;fill:#edf0f2"/>
  <path d="m0 2h60v31l-26 31h-34z" style="color:#000;fill:url(#b)"/>
  <path d="m0 2h60v31l-26 31h-34z" style="fill:url(#c)"/>
  <path d="m34 64 26-31c-2.3286 2.7764-4.3614 3-11 3h-12v15c0 6.6441 0.04437 9.3702-3 13z" style="fill:url(#d)"/>
</svg>
