<?xml version="1.0" encoding="UTF-8"?>
<!-- Created with Inkscape (http://www.inkscape.org/) -->
<svg width="64" height="64" version="1.1" xmlns="http://www.w3.org/2000/svg" xmlns:cc="http://creativecommons.org/ns#" xmlns:dc="http://purl.org/dc/elements/1.1/" xmlns:rdf="http://www.w3.org/1999/02/22-rdf-syntax-ns#">
	<defs>
		<linearGradient id="linearGradient82616" x1="53.055" x2="60.201" y1="35.97" y2="35.97" gradientUnits="userSpaceOnUse">
			<stop stop-color="#83ff4b" stop-opacity=".19094" offset="0"/>
			<stop stop-color="#ffffff" stop-opacity="0" offset="1"/>
		</linearGradient>
		<linearGradient id="linearGradient70762" x1="82.744" x2="71" y1="79.421" y2="69" gradientTransform="translate(-34,-33)" gradientUnits="userSpaceOnUse">
			<stop stop-color="#317235" offset="0"/>
			<stop stop-color="#328c33" offset=".25231"/>
			<stop stop-color="#41942c" offset="1"/>
		</linearGradient>
		<linearGradient id="c-7" x1="48.918" x2="33.898" y1="46.214" y2="31.194" gradientUnits="userSpaceOnUse">
			<stop stop-color="#adff86" stop-opacity=".25627" offset="0"/>
			<stop stop-color="#26ff0d" stop-opacity="0" offset="1"/>
		</linearGradient>
		<radialGradient id="radialGradient83837" cx="29.526" cy="55.944" r="30" gradientTransform="matrix(1.8427,0,0,1.9042,-26.521,-39.268)" gradientUnits="userSpaceOnUse">
			<stop stop-color="#3b9a6b" offset="0"/>
			<stop stop-color="#4eb737" offset="1"/>
		</radialGradient>
		<radialGradient id="a-5" cx="46.762" cy="39.221" r="14.161" gradientTransform="matrix(.86297 .86297 -2.3655 2.3655 98.927 -83.343)" gradientUnits="userSpaceOnUse">
			<stop stop-color="#111531" stop-opacity=".2792" offset="0"/>
			<stop stop-color="#282253" stop-opacity=".0039216" offset="1"/>
		</radialGradient>
		<linearGradient id="linearGradient65720" x1="61.017" x2="61.017" y1="10" gradientUnits="userSpaceOnUse">
			<stop stop-color="#32762e" offset="0"/>
			<stop stop-color="#419330" offset="1"/>
		</linearGradient>
	</defs>
	<metadata>
		<rdf:RDF>
			<cc:Work rdf:about="">
				<dc:format>image/svg+xml</dc:format>
				<dc:type rdf:resource="http://purl.org/dc/dcmitype/StillImage"/>
			</cc:Work>
		</rdf:RDF>
	</metadata>
	<path d="m4 0h60v62h-60z" fill="url(#linearGradient65720)"/>
	<path d="m60 2v31l-24.322 29h25.322v-59z" fill="url(#a-5)"/>
	<path d="m0 2h60v31l-26 31h-34z" fill="url(#radialGradient83837)"/>
	<g>
		<path d="m0 2h60v31l-26 31h-34z" fill="url(#c-7)"/>
	</g>
	<path d="m34 64 26-31c-2.3286 2.7764-4.3614 3-11 3h-12v15c0 6.6441 0.04437 9.3702-3 13z" fill="url(#linearGradient70762)"/>
	<g stroke-linecap="round">
		<path d="m60 33c-2.3286 2.7764-4.3614 3-11 3h-11.5" fill="none" stroke="url(#linearGradient82616)" stroke-opacity=".9954"/>
		<g stroke-linejoin="round">
			<g>
				<rect y="2" width="60" height="1" fill="#94ff4c" fill-opacity=".16745" stop-color="#000000" style="-inkscape-stroke:none;paint-order:stroke fill markers"/>
				<rect x="4" width="60" height="1" fill="#94ff4c" fill-opacity=".14975" stop-color="#000000" style="-inkscape-stroke:none;paint-order:stroke fill markers"/>
				<rect transform="rotate(90)" x="2" y="-1" width="62" height="1" fill="#000000" fill-opacity=".03" stop-color="#000000" style="-inkscape-stroke:none;paint-order:stroke fill markers"/>
				<rect transform="rotate(90)" y="-5" width="2" height="1" fill="#000000" fill-opacity=".06" stop-color="#000000" style="-inkscape-stroke:none;paint-order:stroke fill markers"/>
			</g>
			<path d="m8.5254 7c-1.9502 0.023866-3.5004 1.6134-3.5251 3.5691v16.877l0.70499 0.70499h16.171l0.74906-0.08813c1.6089-0.34581 2.8115-1.7688 2.82-3.481v-17.581h-16.92zm4.3182 5.1444c0.68629 9e-6 1.2994 0.11824 1.8286 0.34149 0.53332 0.21913 0.98008 0.53807 1.3439 0.94733 0.36381 0.40517 0.64013 0.89043 0.82616 1.4651 0.19017 0.57054 0.2864 1.2098 0.28641 1.9168-9e-6 0.59535-0.07288 1.137-0.2093 1.6413-0.1323 0.50025-0.32338 0.95531-0.58384 1.3439-0.26047 0.38863-0.58491 0.71167-0.96936 0.98042-0.3845 0.2646-0.83264 0.45292-1.3329 0.57282 0.0372 0.46718 0.11556 0.85897 0.23133 1.1566 0.11575 0.30181 0.25322 0.5355 0.4186 0.70499 0.1695 0.17364 0.35921 0.28635 0.5618 0.35251 0.20257 0.06615 0.41704 0.09914 0.6279 0.09914h0.19828v0.74906h-0.91431c-0.38036-3e-6 -0.75152-0.06462-1.1236-0.17625-0.36796-0.11163-0.71167-0.28483-1.0134-0.52876-0.29767-0.23979-0.5465-0.55599-0.74906-0.93634-0.19845-0.37622-0.31117-0.82848-0.35251-1.366-0.57054-0.08682-1.0723-0.26142-1.4981-0.51774-0.4217-0.26046-0.76537-0.58351-1.0465-0.98042-0.28113-0.39689-0.49835-0.85188-0.63892-1.377-0.13643-0.52505-0.2093-1.1052-0.2093-1.7295 0-0.7028 0.0866-1.3462 0.26438-1.9168 0.17777-0.57466 0.4486-1.0599 0.80412-1.4651 0.35968-0.40516 0.80644-0.7172 1.3439-0.93634 0.54159-0.22324 1.1781-0.34148 1.9057-0.34149zm0 0.82616c-0.3969 8e-6 -0.73644 0.09075-1.0134 0.26438-0.277 0.16952-0.49832 0.41833-0.67196 0.74906-0.17364 0.32661-0.307 0.72525-0.38555 1.2007-0.07856 0.47545-0.11016 1.0226-0.11016 1.6303-3e-6 0.60775 0.03159 1.1439 0.11016 1.6193 0.07855 0.47544 0.21191 0.88101 0.38555 1.2117 0.17364 0.32662 0.39909 0.57543 0.67196 0.74906 0.27699 0.17364 0.60967 0.26438 1.0025 0.26438 0.39689 1e-6 0.72955-0.09073 1.0025-0.26438 0.27699-0.17364 0.50245-0.42246 0.67196-0.74906 0.1695-0.33074 0.2891-0.7363 0.36352-1.2117 0.07854-0.47544 0.12116-1.0116 0.12117-1.6193-7e-6 -0.60774-0.04263-1.1549-0.12117-1.6303-0.07442-0.47544-0.19402-0.87412-0.36352-1.2007-0.16952-0.33074-0.38809-0.57956-0.66095-0.74906-0.27287-0.17364-0.60968-0.26437-1.0025-0.26438zm6.279 0h1.0575v1.5753h1.6193v0.88128h-1.6193v3.9216c-4e-6 0.38449 0.0591 0.67044 0.18727 0.84819 0.13229 0.17778 0.35225 0.26438 0.64993 0.26438 0.16537 0 0.32484-0.01238 0.47368-0.03305 0.15296-0.02481 0.29731-0.05505 0.42962-0.08813v0.82616c-0.06615 0.03308-0.15964 0.07295-0.2754 0.11016-0.11163 0.03721-0.2436 0.07021-0.39657 0.09914-0.14884 0.03308-0.31655 0.05644-0.50673 0.07711s-0.40465 0.03305-0.6279 0.03305c-0.28527 0-0.53958-0.03987-0.7711-0.11016-0.23152-0.06615-0.4226-0.18438-0.58384-0.34149-0.16124-0.16124-0.29873-0.35367-0.38555-0.60587-0.08682-0.25633-0.12118-0.57527-0.12117-0.94733v-4.0538h-0.95838v-0.66095c0.27287 7e-6 0.52307-0.04673 0.73808-0.15422 0.21498-0.10748 0.38958-0.24497 0.51774-0.38555 0.26046-0.27286 0.44465-0.68936 0.57282-1.2558z" color="#000000" fill="none" stop-color="#000000" stroke="#000000" stroke-opacity=".045462" stroke-width="6" style="font-variation-settings:normal"/>
			<path d="m8.5254 7c-1.9502 0.023866-3.5004 1.6134-3.5251 3.5691v16.877l0.70499 0.70499h16.171l0.74906-0.08813c1.6089-0.34581 2.8115-1.7688 2.82-3.481v-17.581h-16.92zm4.3182 5.1444c0.68629 9e-6 1.2994 0.11824 1.8286 0.34149 0.53332 0.21913 0.98008 0.53807 1.3439 0.94733 0.36381 0.40517 0.64013 0.89043 0.82616 1.4651 0.19017 0.57054 0.2864 1.2098 0.28641 1.9168-9e-6 0.59535-0.07288 1.137-0.2093 1.6413-0.1323 0.50025-0.32338 0.95531-0.58384 1.3439-0.26047 0.38863-0.58491 0.71167-0.96936 0.98042-0.3845 0.2646-0.83264 0.45292-1.3329 0.57282 0.0372 0.46718 0.11556 0.85897 0.23133 1.1566 0.11575 0.30181 0.25322 0.5355 0.4186 0.70499 0.1695 0.17364 0.35921 0.28635 0.5618 0.35251 0.20257 0.06615 0.41704 0.09914 0.6279 0.09914h0.19828v0.74906h-0.91431c-0.38036-3e-6 -0.75152-0.06462-1.1236-0.17625-0.36796-0.11163-0.71167-0.28483-1.0134-0.52876-0.29767-0.23979-0.5465-0.55599-0.74906-0.93634-0.19845-0.37622-0.31117-0.82848-0.35251-1.366-0.57054-0.08682-1.0723-0.26142-1.4981-0.51774-0.4217-0.26046-0.76537-0.58351-1.0465-0.98042-0.28113-0.39689-0.49835-0.85188-0.63892-1.377-0.13643-0.52505-0.2093-1.1052-0.2093-1.7295 0-0.7028 0.0866-1.3462 0.26438-1.9168 0.17777-0.57466 0.4486-1.0599 0.80412-1.4651 0.35968-0.40516 0.80644-0.7172 1.3439-0.93634 0.54159-0.22324 1.1781-0.34148 1.9057-0.34149zm0 0.82616c-0.3969 8e-6 -0.73644 0.09075-1.0134 0.26438-0.277 0.16952-0.49832 0.41833-0.67196 0.74906-0.17364 0.32661-0.307 0.72525-0.38555 1.2007-0.07856 0.47545-0.11016 1.0226-0.11016 1.6303-3e-6 0.60775 0.03159 1.1439 0.11016 1.6193 0.07855 0.47544 0.21191 0.88101 0.38555 1.2117 0.17364 0.32662 0.39909 0.57543 0.67196 0.74906 0.27699 0.17364 0.60967 0.26438 1.0025 0.26438 0.39689 1e-6 0.72955-0.09073 1.0025-0.26438 0.27699-0.17364 0.50245-0.42246 0.67196-0.74906 0.1695-0.33074 0.2891-0.7363 0.36352-1.2117 0.07854-0.47544 0.12116-1.0116 0.12117-1.6193-7e-6 -0.60774-0.04263-1.1549-0.12117-1.6303-0.07442-0.47544-0.19402-0.87412-0.36352-1.2007-0.16952-0.33074-0.38809-0.57956-0.66095-0.74906-0.27287-0.17364-0.60968-0.26437-1.0025-0.26438zm6.279 0h1.0575v1.5753h1.6193v0.88128h-1.6193v3.9216c-4e-6 0.38449 0.0591 0.67044 0.18727 0.84819 0.13229 0.17778 0.35225 0.26438 0.64993 0.26438 0.16537 0 0.32484-0.01238 0.47368-0.03305 0.15296-0.02481 0.29731-0.05505 0.42962-0.08813v0.82616c-0.06615 0.03308-0.15964 0.07295-0.2754 0.11016-0.11163 0.03721-0.2436 0.07021-0.39657 0.09914-0.14884 0.03308-0.31655 0.05644-0.50673 0.07711s-0.40465 0.03305-0.6279 0.03305c-0.28527 0-0.53958-0.03987-0.7711-0.11016-0.23152-0.06615-0.4226-0.18438-0.58384-0.34149-0.16124-0.16124-0.29873-0.35367-0.38555-0.60587-0.08682-0.25633-0.12118-0.57527-0.12117-0.94733v-4.0538h-0.95838v-0.66095c0.27287 7e-6 0.52307-0.04673 0.73808-0.15422 0.21498-0.10748 0.38958-0.24497 0.51774-0.38555 0.26046-0.27286 0.44465-0.68936 0.57282-1.2558z" color="#000000" fill="none" stop-color="#000000" stroke="#000000" stroke-opacity=".045462" stroke-width="3" style="font-variation-settings:normal"/>
		</g>
	</g>
	<path d="m8.5254 7c-1.9502 0.023866-3.5004 1.6134-3.5251 3.5691v16.877l0.70499 0.70499h16.171l0.74906-0.08813c1.6089-0.34581 2.8115-1.7688 2.82-3.481v-17.581h-16.92zm4.3182 5.1444c0.68629 9e-6 1.2994 0.11824 1.8286 0.34149 0.53332 0.21913 0.98008 0.53807 1.3439 0.94733 0.36381 0.40517 0.64013 0.89043 0.82616 1.4651 0.19017 0.57054 0.2864 1.2098 0.28641 1.9168-9e-6 0.59535-0.07288 1.137-0.2093 1.6413-0.1323 0.50025-0.32338 0.95531-0.58384 1.3439-0.26047 0.38863-0.58491 0.71167-0.96936 0.98042-0.3845 0.2646-0.83264 0.45292-1.3329 0.57282 0.0372 0.46718 0.11556 0.85897 0.23133 1.1566 0.11575 0.30181 0.25322 0.5355 0.4186 0.70499 0.1695 0.17364 0.35921 0.28635 0.5618 0.35251 0.20257 0.06615 0.41704 0.09914 0.6279 0.09914h0.19828v0.74906h-0.91431c-0.38036-3e-6 -0.75152-0.06462-1.1236-0.17625-0.36796-0.11163-0.71167-0.28483-1.0134-0.52876-0.29767-0.23979-0.5465-0.55599-0.74906-0.93634-0.19845-0.37622-0.31117-0.82848-0.35251-1.366-0.57054-0.08682-1.0723-0.26142-1.4981-0.51774-0.4217-0.26046-0.76537-0.58351-1.0465-0.98042-0.28113-0.39689-0.49835-0.85188-0.63892-1.377-0.13643-0.52505-0.2093-1.1052-0.2093-1.7295 0-0.7028 0.0866-1.3462 0.26438-1.9168 0.17777-0.57466 0.4486-1.0599 0.80412-1.4651 0.35968-0.40516 0.80644-0.7172 1.3439-0.93634 0.54159-0.22324 1.1781-0.34148 1.9057-0.34149zm0 0.82616c-0.3969 8e-6 -0.73644 0.09075-1.0134 0.26438-0.277 0.16952-0.49832 0.41833-0.67196 0.74906-0.17364 0.32661-0.307 0.72525-0.38555 1.2007-0.07856 0.47545-0.11016 1.0226-0.11016 1.6303-3e-6 0.60775 0.03159 1.1439 0.11016 1.6193 0.07855 0.47544 0.21191 0.88101 0.38555 1.2117 0.17364 0.32662 0.39909 0.57543 0.67196 0.74906 0.27699 0.17364 0.60967 0.26438 1.0025 0.26438 0.39689 1e-6 0.72955-0.09073 1.0025-0.26438 0.27699-0.17364 0.50245-0.42246 0.67196-0.74906 0.1695-0.33074 0.2891-0.7363 0.36352-1.2117 0.07854-0.47544 0.12116-1.0116 0.12117-1.6193-7e-6 -0.60774-0.04263-1.1549-0.12117-1.6303-0.07442-0.47544-0.19402-0.87412-0.36352-1.2007-0.16952-0.33074-0.38809-0.57956-0.66095-0.74906-0.27287-0.17364-0.60968-0.26437-1.0025-0.26438zm6.279 0h1.0575v1.5753h1.6193v0.88128h-1.6193v3.9216c-4e-6 0.38449 0.0591 0.67044 0.18727 0.84819 0.13229 0.17778 0.35225 0.26438 0.64993 0.26438 0.16537 0 0.32484-0.01238 0.47368-0.03305 0.15296-0.02481 0.29731-0.05505 0.42962-0.08813v0.82616c-0.06615 0.03308-0.15964 0.07295-0.2754 0.11016-0.11163 0.03721-0.2436 0.07021-0.39657 0.09914-0.14884 0.03308-0.31655 0.05644-0.50673 0.07711s-0.40465 0.03305-0.6279 0.03305c-0.28527 0-0.53958-0.03987-0.7711-0.11016-0.23152-0.06615-0.4226-0.18438-0.58384-0.34149-0.16124-0.16124-0.29873-0.35367-0.38555-0.60587-0.08682-0.25633-0.12118-0.57527-0.12117-0.94733v-4.0538h-0.95838v-0.66095c0.27287 7e-6 0.52307-0.04673 0.73808-0.15422 0.21498-0.10748 0.38958-0.24497 0.51774-0.38555 0.26046-0.27286 0.44465-0.68936 0.57282-1.2558z" color="#000000" fill="#cdedd3" stop-color="#000000" style="-inkscape-stroke:none;font-variation-settings:normal"/>
</svg>
