<?xml version="1.0" encoding="UTF-8"?>
<svg width="64" height="64" version="1.1" xmlns="http://www.w3.org/2000/svg" xmlns:xlink="http://www.w3.org/1999/xlink">
  <defs>
    <radialGradient id="a" cx="46.306" cy="38.848" r="14.161" gradientTransform="matrix(2.3177 0 0 3.1347 -60.325 -73.277)" gradientUnits="userSpaceOnUse">
      <stop offset="0" stop-color="#671043" stop-opacity=".21335"/>
      <stop offset="1" stop-color="#472253" stop-opacity=".14556"/>
    </radialGradient>
    <linearGradient id="c" x1="48.918" x2="35.678" y1="46.214" y2="32.974" gradientUnits="userSpaceOnUse">
      <stop offset="0" stop-color="#fff" stop-opacity=".52975"/>
      <stop offset="1" stop-color="#fff" stop-opacity="0"/>
    </linearGradient>
    <linearGradient id="d" x1="82.744" x2="71" y1="79.421" y2="69" gradientTransform="translate(-34,-33)" gradientUnits="userSpaceOnUse">
      <stop offset="0" stop-color="#d4c9dd"/>
      <stop offset=".25231" stop-color="#d5d3db"/>
      <stop offset="1" stop-color="#d4dee4"/>
    </linearGradient>
    <radialGradient id="b" cx="8.5693" cy="26.419" r="30" gradientTransform="matrix(2.4121 0 0 2.4925 -12.294 -54.03)" gradientUnits="userSpaceOnUse">
      <stop offset="0" stop-color="#6040ff" stop-opacity=".054902"/>
      <stop offset="1" stop-color="#2a82ff" stop-opacity="0"/>
    </radialGradient>
  </defs>
  <path d="m4 0h60v62h-60z" fill="#d5dee4"/>
  <path d="m60 2v31l-24.322 29h28.322v-56z" fill="url(#a)"/>
  <path d="m0 2h60v31l-26 31h-34z" fill="#edf0f2"/>
  <path d="m0 2h60v31l-26 31h-34z" fill="url(#b)"/>
  <path d="m0 2h60v31l-26 31h-34z" fill="url(#c)"/>
  <path d="m34 64 26-31c-2.3286 2.7764-4.3614 3-11 3h-12v15c0 6.6441 0.04437 9.3702-3 13z" fill="url(#d)"/>
  <path d="m13.12 25.032-7.2277 6.1786 22.224 0.0025-14.996-6.1811z" color="#000" fill="#73ab46"/>
  <path d="m19.074 7.6982 1.7533 18.798 9.6537 3.9691z" style="-inkscape-stroke:none;font-variation-settings:normal" color="#000" fill="#dd4d6f" stop-color="#000"/>
  <path d="m17.388 6.5235-11.178 22.335 12.206-10.422z" style="-inkscape-stroke:none;font-variation-settings:normal" color="#000" fill="#4391df" stop-color="#000"/>
</svg>
