<?xml version="1.0" encoding="UTF-8"?>
<!-- Created with Inkscape (http://www.inkscape.org/) -->
<svg width="64" height="64" version="1.1" xmlns="http://www.w3.org/2000/svg" xmlns:cc="http://creativecommons.org/ns#" xmlns:dc="http://purl.org/dc/elements/1.1/" xmlns:rdf="http://www.w3.org/1999/02/22-rdf-syntax-ns#" xmlns:xlink="http://www.w3.org/1999/xlink">
	<defs>
		<linearGradient id="e" x1="48.918" x2="32.67" y1="46.214" y2="24" gradientUnits="userSpaceOnUse">
			<stop stop-color="#ffffff" stop-opacity=".52975" offset="0"/>
			<stop stop-color="#ffffff" stop-opacity="0" offset="1"/>
		</linearGradient>
		<linearGradient id="d" x1="82.744" x2="71" y1="79.421" y2="69" gradientTransform="translate(-34,-33)" gradientUnits="userSpaceOnUse">
			<stop stop-color="#c1cad0" offset="0"/>
			<stop stop-color="#bcc7cc" offset=".25231"/>
			<stop stop-color="#d1dbe2" offset="1"/>
		</linearGradient>
		<radialGradient id="a" cx="20.34" cy="28.541" r="30" gradientTransform="matrix(1.1808 0 0 1.2202 -5.4237 -7.265)" gradientUnits="userSpaceOnUse">
			<stop stop-color="#1b4757" stop-opacity=".068017" offset="0"/>
			<stop stop-color="#0a4f68" stop-opacity=".01013" offset="1"/>
		</radialGradient>
		<linearGradient id="c" x1="37" x2="48.96" y1="36" y2="46.164" gradientUnits="userSpaceOnUse">
			<stop stop-color="#ffffff" stop-opacity=".006555" offset="0"/>
			<stop stop-color="#fefefe" stop-opacity=".45448" offset=".80048"/>
			<stop stop-color="#feffff" offset="1"/>
		</linearGradient>
		<radialGradient id="b" cx="46.869" cy="36.888" r="14.161" gradientTransform="matrix(1.4401 0 0 2.1185 -19.191 -35.791)" gradientUnits="userSpaceOnUse">
			<stop stop-color="#222e33" stop-opacity=".28509" offset="0"/>
			<stop stop-color="#222e33" stop-opacity=".12157" offset="1"/>
		</radialGradient>
	</defs>
	<metadata>
		<rdf:RDF>
			<cc:Work rdf:about="">
				<dc:format>image/svg+xml</dc:format>
				<dc:type rdf:resource="http://purl.org/dc/dcmitype/StillImage"/>
				<dc:title/>
			</cc:Work>
		</rdf:RDF>
	</metadata>
	<path d="m4 0h60v62h-60z" fill="#c8d4dc"/>
	<path d="m60 2v31l-24.322 29h28.322v-56z" fill="url(#b)"/>
	<path d="m0 2h60v31l-26 31h-34z" fill="url(#e)"/>
	<path d="m0 2h60v31l-26 31h-34z" color="#000000" fill="#edf0f2"/>
	<path d="m0 2h60v31l-26 31h-34z" color="#000000" fill="url(#c)"/>
	<path d="m0 2h60v31l-26 31h-34z" color="#000000" fill="url(#a)"/>
	<path d="m34 64 26-31c-2.3286 2.7764-4.3614 3-11 3h-12v15c0 6.6441 0.04437 9.3702-3 13z" fill="url(#d)"/>
	<g transform="translate(26.475 -17.945)">
		<path d="m-2.1602 37.717c-0.37538-0.01797-0.78072 0.03715-1.1973 0.18359-0.29274 0.10393-0.44531 0.34375-0.44531 0.34375s0.18284-0.07423 0.5957-0.16016c1.6845-0.35115 4.0984 2.2545-1.1211 4.9668-0.024145 0.06457-0.10547 0.13679-0.10547 0.13672 6.0996-1.6035 4.9011-5.3449 2.2734-5.4707zm-11.584 0.26172c-0.66545 0.01748-2.222 0.16354-4.0332 1.0391-2.8556 1.3813 7.0627 2.0086 12.197 0.6582 0.53382-0.3645 1.2734-0.67969 1.2734-0.67969s-2.1028 0.37427-4.1953 0.55078c-2.5604 0.21454-5.3086 0.25688-6.6875 0.07227-3.2657-0.43611 1.791-1.6367 1.791-1.6367s-0.12389-0.0097-0.3457-0.0039zm-0.83203 3.1582c-4.7123 1.564 2.6223 3.3376 9.207 1.4121-0.69991-0.24678-1.1445-0.69727-1.1445-0.69727-3.2181 0.61967-5.0786 0.60037-7.4336 0.35742-1.8211-0.18836-0.62891-1.0723-0.62891-1.0723zm0.66602 3.0469c-4.2776 1.1953 2.6027 3.6642 8.0488 1.3301-0.89202-0.34688-1.5312-0.74805-1.5312-0.74805-2.4294 0.4598-3.5572 0.49759-5.7617 0.24609-1.8197-0.20921-0.75586-0.82812-0.75586-0.82812zm-2.7656 2.0195c-1.8383-0.07083-6.01 1.7662-2.4473 2.3438 11.104 1.8008 20.242-0.81215 17.361-2.1113 0 0 0.786 0.64889-0.86719 1.1504-3.1436 0.9523-13.084 1.241-15.846 0.03906-0.99265-0.43184 0.86952-1.0325 1.4551-1.1582 0.61067-0.13242 0.95898-0.10742 0.95898-0.10742-0.13799-0.09721-0.35262-0.14613-0.61523-0.15625zm16.676 1.6504s-0.35031 0.89762-4.1406 1.6113c-4.2762 0.80473-9.5496 0.71106-12.678 0.19531 7.5e-5 -7.5e-5 0.63884 0.52908 3.9316 0.74024 5.0101 0.32071 12.705-0.17624 12.887-2.5469z" fill="#5483b5"/>
		<path d="m-7.4746 22.668c1.1663 4.5932-4.1124 5.9811-6.0176 8.8418-1.298 1.9488 0.63706 4.0432 3.2734 6.4219-1.028-2.3236-4.5146-4.3589 2e-3 -7.9258 5.6323-4.4465 2.7422-7.3379 2.7422-7.3379zm3.4844 5.6836s-9.5235 2.3777-4.9746 7.6191c1.3419 1.545-0.35352 2.9355-0.35352 2.9355s3.4086-1.7583 1.8438-3.9609c-1.4615-2.0541-2.5831-3.0748 3.4844-6.5938z" fill="#ca7865"/>
	</g>
</svg>
