<?xml version="1.0" encoding="UTF-8"?>
<svg width="64" height="64" version="1.1" xmlns="http://www.w3.org/2000/svg">
  <defs>
    <radialGradient id="a" cx="46.306" cy="38.848" r="14.161" gradientTransform="matrix(2.3177 0 0 3.1347 -60.325 -73.277)" gradientUnits="userSpaceOnUse">
      <stop offset="0" stop-color="#671043" stop-opacity=".21335"/>
      <stop offset="1" stop-color="#472253" stop-opacity=".14556"/>
    </radialGradient>
    <linearGradient id="c" x1="48.918" x2="35.678" y1="46.214" y2="32.974" gradientUnits="userSpaceOnUse">
      <stop offset="0" stop-color="#fff" stop-opacity=".52975"/>
      <stop offset="1" stop-color="#fff" stop-opacity="0"/>
    </linearGradient>
    <linearGradient id="d" x1="82.744" x2="71" y1="79.421" y2="69" gradientTransform="translate(-34,-33)" gradientUnits="userSpaceOnUse">
      <stop offset="0" stop-color="#d4c9dd"/>
      <stop offset=".25231" stop-color="#d5d3db"/>
      <stop offset="1" stop-color="#d4dee4"/>
    </linearGradient>
    <radialGradient id="b" cx="8.5693" cy="26.419" r="30" gradientTransform="matrix(2.4121 0 0 2.4925 -12.294 -54.03)" gradientUnits="userSpaceOnUse">
      <stop offset="0" stop-color="#6040ff" stop-opacity=".054902"/>
      <stop offset="1" stop-color="#2a82ff" stop-opacity="0"/>
    </radialGradient>
  </defs>
  <path d="m4 0h60v62h-60z" fill="#d5dee4"/>
  <path d="m60 2v31l-24.322 29h28.322v-56z" fill="url(#a)"/>
  <path d="m0 2h60v31l-26 31h-34z" fill="#edf0f2"/>
  <path d="m0 2h60v31l-26 31h-34z" fill="url(#b)"/>
  <path d="m0 2h60v31l-26 31h-34z" fill="url(#c)"/>
  <path d="m34 64 26-31c-2.3286 2.7764-4.3614 3-11 3h-12v15c0 6.6441 0.04437 9.3702-3 13z" fill="url(#d)"/>
  <rect x="6.4953" y="8.4953" width="24.531" height="14.985" rx="1.9846" ry="1.9846" fill="none" style="-inkscape-stroke:none;font-variation-settings:normal" stop-color="#000" stroke="#6d808c"/>
  <path d="m10 19.944v-7.9439h2.3364l2.3364 2.9205 2.3364-2.9205h2.3364v7.9439h-2.3364v-4.556l-2.3364 2.9205-2.3364-2.9205v4.556zm14.603 0-3.5046-3.8551h2.3364v-4.0888h2.3364v4.0888h2.3364z" fill="#6d808c"/>
</svg>
