<?xml version="1.0" encoding="UTF-8" standalone="no"?>
<!-- Created with Inkscape (http://www.inkscape.org/) -->

<svg
   xmlns:dc="http://purl.org/dc/elements/1.1/"
   xmlns:cc="http://creativecommons.org/ns#"
   xmlns:rdf="http://www.w3.org/1999/02/22-rdf-syntax-ns#"
   xmlns:svg="http://www.w3.org/2000/svg"
   xmlns="http://www.w3.org/2000/svg"
   xmlns:xlink="http://www.w3.org/1999/xlink"
   xmlns:sodipodi="http://sodipodi.sourceforge.net/DTD/sodipodi-0.dtd"
   xmlns:inkscape="http://www.inkscape.org/namespaces/inkscape"
   version="1.1"
   width="64"
   height="64"
   id="svg13094"
   inkscape:version="0.92.2 5c3e80d, 2017-08-06"
   sodipodi:docname="gnome-mime-application-vnd.rn-realmedia-vbr.svg">
  <sodipodi:namedview
     pagecolor="#ffffff"
     bordercolor="#666666"
     borderopacity="1"
     objecttolerance="10"
     gridtolerance="10"
     guidetolerance="10"
     inkscape:pageopacity="0"
     inkscape:pageshadow="2"
     inkscape:window-width="1920"
     inkscape:window-height="1023"
     id="namedview70"
     showgrid="true"
     inkscape:zoom="10.429825"
     inkscape:cx="9.4870981"
     inkscape:cy="35.268411"
     inkscape:window-x="-10"
     inkscape:window-y="35"
     inkscape:window-maximized="1"
     inkscape:current-layer="svg13094"
     fit-margin-top="0"
     fit-margin-left="0"
     fit-margin-right="0"
     fit-margin-bottom="0"
     inkscape:snap-bbox="true"
     inkscape:bbox-paths="true"
     inkscape:bbox-nodes="true"
     inkscape:snap-bbox-edge-midpoints="true"
     inkscape:snap-bbox-midpoints="true"
     inkscape:object-paths="true"
     inkscape:object-nodes="true"
     inkscape:snap-intersection-paths="true"
     inkscape:snap-smooth-nodes="true"
     inkscape:snap-midpoints="true"
     inkscape:snap-others="true"
     inkscape:snap-object-midpoints="true"
     inkscape:snap-center="true"
     inkscape:snap-text-baseline="true"
     inkscape:snap-global="false">
    <inkscape:grid
       type="xygrid"
       id="grid3062"
       empspacing="5"
       visible="true"
       enabled="true"
       snapvisiblegridlinesonly="true"
       originx="0"
       originy="0"
       spacingx="1"
       spacingy="1" />
  </sodipodi:namedview>
  <defs
     id="defs11">
    <linearGradient
       inkscape:collect="always"
       id="linearGradient878">
      <stop
         style="stop-color:#386f9e;stop-opacity:1"
         offset="0"
         id="stop874" />
      <stop
         id="stop882"
         offset="0.25230676"
         style="stop-color:#0472d0;stop-opacity:1;" />
      <stop
         style="stop-color:#1776c6;stop-opacity:1"
         offset="1"
         id="stop876" />
    </linearGradient>
    <linearGradient
       inkscape:collect="always"
       id="linearGradient861">
      <stop
         style="stop-color:#1a56aa;stop-opacity:1"
         offset="0"
         id="stop857" />
      <stop
         id="stop865"
         offset="0.5"
         style="stop-color:#1b5bb4;stop-opacity:0.996" />
      <stop
         style="stop-color:#1b5bb4;stop-opacity:0.969"
         offset="1"
         id="stop859" />
    </linearGradient>
    <linearGradient
       inkscape:collect="always"
       id="linearGradient853">
      <stop
         style="stop-color:#1ee283;stop-opacity:0.40544629"
         offset="0"
         id="stop849" />
      <stop
         style="stop-color:#1b5bb4;stop-opacity:0;"
         offset="1"
         id="stop851" />
    </linearGradient>
    <linearGradient
       inkscape:collect="always"
       id="linearGradient839">
      <stop
         style="stop-color:#1b5bb4;stop-opacity:0"
         offset="0"
         id="stop835" />
      <stop
         id="stop843"
         offset="0.43333334"
         style="stop-color:#1b5bb4;stop-opacity:0" />
      <stop
         style="stop-color:#3c00a9;stop-opacity:0.165"
         offset="1"
         id="stop837" />
    </linearGradient>
    <linearGradient
       inkscape:collect="always"
       id="linearGradient827">
      <stop
         style="stop-color:#7517db;stop-opacity:0.34732273"
         offset="0"
         id="stop823" />
      <stop
         style="stop-color:#b3ff80;stop-opacity:0.1301059"
         offset="1"
         id="stop825" />
    </linearGradient>
    <radialGradient
       inkscape:collect="always"
       xlink:href="#linearGradient827"
       id="radialGradient833"
       gradientUnits="userSpaceOnUse"
       gradientTransform="matrix(0.99999999,0,0,1.0333333,2.2972648e-7,-1.0999999)"
       cx="29.054668"
       cy="36.022873"
       fx="29.054668"
       fy="36.022873"
       r="30" />
    <radialGradient
       inkscape:collect="always"
       xlink:href="#linearGradient839"
       id="radialGradient847"
       gradientUnits="userSpaceOnUse"
       gradientTransform="matrix(0.99999989,2.6645517e-8,-2.7533701e-8,1.0333332,5.0887252e-6,-1.0999956)"
       cx="30"
       cy="33"
       fx="30"
       fy="33"
       r="30" />
    <linearGradient
       inkscape:collect="always"
       xlink:href="#linearGradient861"
       id="linearGradient863"
       x1="0"
       y1="1"
       x2="10"
       y2="1"
       gradientUnits="userSpaceOnUse" />
    <linearGradient
       inkscape:collect="always"
       xlink:href="#linearGradient853"
       id="linearGradient869"
       gradientUnits="userSpaceOnUse"
       x1="0"
       y1="33"
       x2="5"
       y2="33" />
    <linearGradient
       inkscape:collect="always"
       xlink:href="#linearGradient878"
       id="linearGradient880"
       x1="50.432293"
       y1="44.34483"
       x2="39.693859"
       y2="34.9487"
       gradientUnits="userSpaceOnUse" />
  </defs>
  <metadata
     id="metadata13099">
    <rdf:RDF>
      <cc:Work
         rdf:about="">
        <dc:format>image/svg+xml</dc:format>
        <dc:type
           rdf:resource="http://purl.org/dc/dcmitype/StillImage" />
        <dc:title />
      </cc:Work>
    </rdf:RDF>
  </metadata>
  <path
     inkscape:connector-curvature="0"
     style="fill:url(#linearGradient863);fill-opacity:1;fill-rule:nonzero"
     id="path4267"
     d="M 3,0 C 1,0 0,1 0,2 l 0,58 64,0 0,-3 -3,0 0,-7 3,0 0,-40 -3,0 0,-7 3,0 L 64,0 5,0 4,0 3,0 Z m 3,3 8,0 0,7 -8,0 0,-7 z m 11,0 8,0 0,7 -8,0 0,-7 z m 11,0 8,0 0,7 -8,0 0,-7 z m 11,0 8,0 0,7 -8,0 0,-7 z m 11,0 8,0 0,7 -8,0 0,-7 z m -44,47 8,0 0,7 -8,0 0,-7 z m 11,0 8,0 0,7 -8,0 0,-7 z m 11,0 8,0 0,7 -8,0 0,-7 z m 11,0 8,0 0,7 -8,0 0,-7 z m 11,0 8,0 0,7 -8,0 0,-7 z" />
  <path
     inkscape:connector-curvature="0"
     id="path821"
     d="m 0,2 v 60 c 0,1 1,2 3,2 h 31 l 2.53125,-3 H 36 v -7 h 6.375 L 60,33 V 14 H 58 V 7 h 2 V 4 H 3 C 1,4 0,3 0,2 Z m 3,5 h 8 v 7 H 3 Z m 11,0 h 8 v 7 h -8 z m 11,0 h 8 v 7 h -8 z m 11,0 h 8 v 7 h -8 z m 11,0 h 8 v 7 H 47 Z M 3,54 h 8 v 7 H 3 Z m 11,0 h 8 v 7 h -8 z m 11,0 h 8 v 7 h -8 z"
     style="color:#000000;display:inline;overflow:visible;visibility:visible;fill:#19bef4;fill-opacity:1;fill-rule:nonzero;stroke:none;stroke-width:1;marker:none;enable-background:accumulate" />
  <path
     inkscape:connector-curvature="0"
     style="fill:#000000;fill-opacity:0.10341803;fill-rule:nonzero"
     id="path4317"
     d="m 0,62 c 0,1 2,1 3,1 l 32,0 -1,1 -31,0 C 1,64 0,63 0,62 Z" />
  <path
     style="color:#000000;display:inline;overflow:visible;visibility:visible;opacity:1;fill:#19bef4;fill-opacity:1;fill-rule:nonzero;stroke:none;stroke-width:1;stroke-linecap:butt;stroke-linejoin:miter;stroke-miterlimit:4;stroke-dasharray:none;stroke-dashoffset:0;stroke-opacity:1;marker:none;enable-background:accumulate"
     d="M 0 3 L 0 10.599609 L 3 12.400391 L 3 7 L 11 7 L 11 14 L 5.6660156 14 L 39 34 L 60 21.400391 L 60 14 L 58 14 L 58 7 L 60 7 L 60 4 L 3 4 C 1.6963049 4 0.82497839 3.572837 0.37109375 3 L 0 3 z M 14 7 L 22 7 L 22 14 L 14 14 L 14 7 z M 25 7 L 33 7 L 33 14 L 25 14 L 25 7 z M 36 7 L 44 7 L 44 14 L 36 14 L 36 7 z M 47 7 L 55 7 L 55 14 L 47 14 L 47 7 z "
     id="rect4386" />
  <path
     style="color:#000000;display:inline;overflow:visible;visibility:visible;opacity:1;fill:#1cb2f1;fill-opacity:1;fill-rule:nonzero;stroke:none;stroke-width:1;stroke-linecap:butt;stroke-linejoin:miter;stroke-miterlimit:4;stroke-dasharray:none;stroke-dashoffset:0;stroke-opacity:1;marker:none;enable-background:accumulate"
     d="M 0 10.599609 L 0 57.400391 L 3 55.599609 L 3 54 L 5.6660156 54 L 39 34 L 5.6660156 14 L 3 14 L 3 12.400391 L 0 10.599609 z "
     id="rect4265" />
  <path
     style="color:#000000;display:inline;overflow:visible;visibility:visible;opacity:1;fill:#1cb2f1;fill-opacity:1;fill-rule:nonzero;stroke:none;stroke-width:1;stroke-linecap:butt;stroke-linejoin:miter;stroke-miterlimit:4;stroke-dasharray:none;stroke-dashoffset:0;stroke-opacity:1;marker:none;enable-background:accumulate"
     d="M 60 21.400391 L 39 34 L 52.408203 42.044922 L 60 33 L 60 21.400391 z "
     id="rect4408" />
  <path
     style="color:#000000;display:inline;overflow:visible;visibility:visible;opacity:1;fill:#19bef4;fill-opacity:1;fill-rule:nonzero;stroke:none;stroke-width:1;stroke-linecap:butt;stroke-linejoin:miter;stroke-miterlimit:4;stroke-dasharray:none;stroke-dashoffset:0;stroke-opacity:1;marker:none;enable-background:accumulate"
     d="M 39 34 L 5.6660156 54 L 11 54 L 11 61 L 3 61 L 3 55.599609 L 0 57.400391 L 0 62 C 0 63 1 64 3 64 L 34 64 L 36.53125 61 L 36 61 L 36 54 L 42.375 54 L 52.408203 42.044922 L 39 34 z M 14 54 L 22 54 L 22 61 L 14 61 L 14 54 z M 25 54 L 33 54 L 33 61 L 25 61 L 25 54 z "
     id="path4416" />
  <path
     inkscape:connector-curvature="0"
     id="path831"
     d="m 0,2 v 60 c 0,1 1,2 3,2 h 31 l 2.53125,-3 H 36 v -7 h 6.375 L 60,33 V 14 H 58 V 7 h 2 V 4 H 3 C 1,4 0,3 0,2 Z m 3,5 h 8 v 7 H 3 Z m 11,0 h 8 v 7 h -8 z m 11,0 h 8 v 7 h -8 z m 11,0 h 8 v 7 h -8 z m 11,0 h 8 v 7 H 47 Z M 3,54 h 8 v 7 H 3 Z m 11,0 h 8 v 7 h -8 z m 11,0 h 8 v 7 h -8 z"
     style="color:#000000;display:inline;overflow:visible;visibility:visible;fill:url(#radialGradient833);fill-opacity:1;fill-rule:nonzero;stroke:none;stroke-width:1;marker:none;enable-background:accumulate" />
  <path
     inkscape:connector-curvature="0"
     id="path845"
     d="m 0,2 v 60 c 0,1 1,2 3,2 h 31 l 2.53125,-3 H 36 v -7 h 6.375 L 60,33 V 14 H 58 V 7 h 2 V 4 H 3 C 1,4 0,3 0,2 Z m 3,5 h 8 v 7 H 3 Z m 11,0 h 8 v 7 h -8 z m 11,0 h 8 v 7 h -8 z m 11,0 h 8 v 7 h -8 z m 11,0 h 8 v 7 H 47 Z M 3,54 h 8 v 7 H 3 Z m 11,0 h 8 v 7 h -8 z m 11,0 h 8 v 7 h -8 z"
     style="color:#000000;display:inline;overflow:visible;visibility:visible;fill:url(#radialGradient847);fill-opacity:1;fill-rule:nonzero;stroke:none;stroke-width:1;marker:none;enable-background:accumulate" />
  <path
     inkscape:connector-curvature="0"
     id="path867"
     d="m 0,2 v 60 c 0,1 1,2 3,2 h 31 l 2.53125,-3 H 36 v -7 h 6.375 L 60,33 V 14 H 58 V 7 h 2 V 4 H 3 C 1,4 0,3 0,2 Z m 3,5 h 8 v 7 H 3 Z m 11,0 h 8 v 7 h -8 z m 11,0 h 8 v 7 h -8 z m 11,0 h 8 v 7 h -8 z m 11,0 h 8 v 7 H 47 Z M 3,54 h 8 v 7 H 3 Z m 11,0 h 8 v 7 h -8 z m 11,0 h 8 v 7 h -8 z"
     style="color:#000000;display:inline;overflow:visible;visibility:visible;fill:url(#linearGradient869);fill-opacity:1;fill-rule:nonzero;stroke:none;stroke-width:1;marker:none;enable-background:accumulate" />
  <path
     style="color:#000000;display:inline;overflow:visible;visibility:visible;fill:#09ff99;fill-opacity:0.34190619;fill-rule:nonzero;stroke:none;stroke-width:1;marker:none;enable-background:accumulate"
     d="M 0,2 V 3 C 0,4 1,5 3,5 H 60 V 4 H 3 C 1,4 0,3 0,2 Z m 3,12 v 1 h 8 v -1 z m 11,0 v 1 h 8 v -1 z m 11,0 v 1 h 8 v -1 z m 11,0 v 1 h 8 v -1 z m 11,0 v 1 h 8 v -1 z m 11,0 v 1 h 2 V 14 Z M 3,61 v 1 h 8 v -1 z m 11,0 v 1 h 8 v -1 z m 11,0 v 1 h 8 v -1 z m 11,0 v 0.628906 L 36.53125,61 Z"
     id="path4289"
     inkscape:connector-curvature="0" />
  <polygon
     transform="matrix(0.33333333,0,0,0.30000074,9,16.599957)"
     style="color:#000000;display:inline;overflow:visible;visibility:visible;fill:#2d4362;fill-opacity:0.96862745;fill-rule:nonzero;stroke:none;stroke-width:3.16227388;marker:none;enable-background:accumulate"
     id="polygon4325"
     points="90,58 42,90 42,26 42,26 " />
  <path
     d="m 60,33 c -2.328567,2.776369 -4.36141,3 -11,3 l -2,0 0,2 -7,0 0,-2 -3,0 0,15 c 0,6.64407 0.04437,9.37018 -3,13 L 40,56.84375 40,52 44.0625,52 46.59375,49 40,49 l 0,-8 7,0 0,7.5 L 60,33 Z"
     id="path4331"
     style="fill:url(#linearGradient880);fill-rule:nonzero;fill-opacity:1"
     inkscape:connector-curvature="0" />
</svg>
