<?xml version="1.0" encoding="UTF-8"?>
<!-- Created with Inkscape (http://www.inkscape.org/) -->
<svg width="64" height="64" version="1.1" xmlns="http://www.w3.org/2000/svg" xmlns:cc="http://creativecommons.org/ns#" xmlns:dc="http://purl.org/dc/elements/1.1/" xmlns:rdf="http://www.w3.org/1999/02/22-rdf-syntax-ns#">
	<defs>
		<linearGradient id="linearGradient82616" x1="53.055" x2="60.201" y1="35.97" y2="35.97" gradientUnits="userSpaceOnUse">
			<stop stop-color="#94b0ff" stop-opacity=".3098" offset="0"/>
			<stop stop-color="#ffffff" stop-opacity="0" offset="1"/>
		</linearGradient>
		<linearGradient id="linearGradient70762" x1="82.744" x2="71" y1="79.421" y2="69" gradientTransform="translate(-34,-33)" gradientUnits="userSpaceOnUse">
			<stop stop-color="#5c3da8" offset="0"/>
			<stop stop-color="#6e3fc0" offset=".25231"/>
			<stop stop-color="#774dd0" offset="1"/>
		</linearGradient>
		<linearGradient id="linearGradient79106-5" x1="-43.279" x2="-23.435" y1="28.456" y2="49.965" gradientTransform="translate(68.672)" gradientUnits="userSpaceOnUse">
			<stop stop-color="#835ae2" stop-opacity="0" offset="0"/>
			<stop stop-color="#a290fa" stop-opacity=".43857" offset="1"/>
		</linearGradient>
		<radialGradient id="radialGradient83837-9" cx="29.526" cy="55.944" r="30" gradientTransform="matrix(1.8427,0,0,1.9042,-26.521,-39.268)" gradientUnits="userSpaceOnUse">
			<stop stop-color="#6d64ce" offset="0"/>
			<stop stop-color="#865cc7" offset="1"/>
		</radialGradient>
		<radialGradient id="a-5-7" cx="46.762" cy="39.221" r="14.161" gradientTransform="matrix(.86297 .86297 -2.3655 2.3655 98.927 -83.343)" gradientUnits="userSpaceOnUse">
			<stop stop-color="#171131" stop-opacity=".28647" offset="0"/>
			<stop stop-color="#282253" stop-opacity=".0039216" offset="1"/>
		</radialGradient>
		<linearGradient id="linearGradient65720-3" x1="61.017" x2="61.017" y1="10" gradientUnits="userSpaceOnUse">
			<stop stop-color="#5e3ba6" offset="0"/>
			<stop stop-color="#673cc0" offset="1"/>
		</linearGradient>
	</defs>
	<metadata>
		<rdf:RDF>
			<cc:Work rdf:about="">
				<dc:format>image/svg+xml</dc:format>
				<dc:type rdf:resource="http://purl.org/dc/dcmitype/StillImage"/>
			</cc:Work>
		</rdf:RDF>
	</metadata>
	<path d="m4 0h60v62h-60z" fill="url(#linearGradient65720-3)"/>
	<path d="m60 2v31l-24.322 29h25.322v-59z" fill="url(#a-5-7)"/>
	<path d="m0 2h60v31l-26 31h-34z" fill="url(#radialGradient83837-9)"/>
	<path d="m0 2v62h1v-3h4v3h1v-3h4v3h1v-3h4v3h1v-3h4v3h1v-3h4v3h1v-3h4v3h1v-3h4v1.8125l1-1.1875v-0.625h0.53125l0.8125-1h-1.3438v-4h4v0.84375l1.5625-1.8438h-0.5625v-4h3.9062l1.0938-1.3125v-3.6875h3.0938l0.84375-1h-3.9375v-4h4v3.9375l1-1.2188v-2.7188h2.2812l0.84375-1h-3.125v-4h4v2.9688l1-1.1875v-1.7812h1.4688l0.84375-1h-2.3125v-4h4v-1h-4v-4h4v-1h-4v-4h4v-1h-4v-4h4v-1h-4v-4h4v-1h-4v-4h4v-1h-4v-3h-1v3h-4v-3h-1v3h-4v-3h-1v3h-4v-3h-1v3h-4v-3h-1v3h-4v-3h-1v3h-4v-3h-1v3h-4v-3h-1v3h-4v-3h-1v3h-4v-3h-1v3h-4v-3h-1v3h-4v-3zm1 4h4v4h-4zm5 0h4v4h-4zm5 0h4v4h-4zm5 0h4v4h-4zm5 0h4v4h-4zm5 0h4v4h-4zm5 0h4v4h-4zm5 0h4v4h-4zm5 0h4v4h-4zm5 0h4v4h-4zm5 0h4v4h-4zm-50 5h4v4h-4zm5 0h4v4h-4zm5 0h4v4h-4zm5 0h4v4h-4zm5 0h4v4h-4zm5 0h4v4h-4zm5 0h4v4h-4zm5 0h4v4h-4zm5 0h4v4h-4zm5 0h4v4h-4zm5 0h4v4h-4zm-50 5h4v4h-4zm5 0h4v4h-4zm5 0h4v4h-4zm5 0h4v4h-4zm5 0h4v4h-4zm5 0h4v4h-4zm5 0h4v4h-4zm5 0h4v4h-4zm5 0h4v4h-4zm5 0h4v4h-4zm5 0h4v4h-4zm-50 5h4v4h-4zm5 0h4v4h-4zm5 0h4v4h-4zm5 0h4v4h-4zm5 0h4v4h-4zm5 0h4v4h-4zm5 0h4v4h-4zm5 0h4v4h-4zm5 0h4v4h-4zm5 0h4v4h-4zm5 0h4v4h-4zm-50 5h4v4h-4zm5 0h4v4h-4zm5 0h4v4h-4zm5 0h4v4h-4zm5 0h4v4h-4zm5 0h4v4h-4zm5 0h4v4h-4zm5 0h4v4h-4zm5 0h4v4h-4zm5 0h4v4h-4zm5 0h4v4h-4zm-50 5h4v4h-4zm5 0h4v4h-4zm5 0h4v4h-4zm5 0h4v4h-4zm5 0h4v4h-4zm5 0h4v4h-4zm5 0h4v4h-4zm5 0h4v4h-4zm5 0h4v4h-4zm5 0h4v4h-4zm5 0h4v4h-4zm-50 5h4v4h-4zm5 0h4v4h-4zm5 0h4v4h-4zm5 0h4v4h-4zm5 0h4v4h-4zm5 0h4v4h-4zm5 0h4v4h-4zm5 0h4v4h-4zm5 0h4v4h-4zm5 0h4v4h-4zm-45 5h4v4h-4zm5 0h4v4h-4zm5 0h4v4h-4zm5 0h4v4h-4zm5 0h4v4h-4zm5 0h4v4h-4zm5 0h4v4h-4zm5 0h4v4h-4zm5 0h4v4h-4zm-40 5h4v4h-4zm5 0h4v4h-4zm5 0h4v4h-4zm5 0h4v4h-4zm5 0h4v4h-4zm5 0h4v4h-4zm5 0h4v4h-4zm5 0h4v4h-4zm5 0h4v4h-4zm-40 5h4v4h-4zm5 0h4v4h-4zm5 0h4v4h-4zm5 0h4v4h-4zm5 0h4v4h-4zm5 0h4v4h-4zm5 0h4v4h-4zm5 0h4v4h-4zm-35 5h4v4h-4zm5 0h4v4h-4zm5 0h4v4h-4zm5 0h4v4h-4zm5 0h4v4h-4zm5 0h4v4h-4zm5 0h4v4h-4z" fill="#65c3ff" fill-opacity=".16966"/>
	<g>
		<path d="m18.676 15.559c-0.01049 1.4721-0.02097 2.9442-0.03146 4.4163 0 0 0.22314-0.0094 0.64356 0.01205 0.42041 0.02149 1.0409 0.077 1.8155 0.25572 0.77456 0.17872 1.706 0.48338 2.6828 1.0077 0.97679 0.52433 2.0001 1.2702 2.8608 2.3008 0.67981 0.79486 1.2651 1.7861 1.665 2.9172 0.39992 1.1312 0.61398 2.4018 0.54678 3.6965-0.05753 1.1221-0.34393 2.2867-0.85726 3.3666s-1.2534 2.0739-2.1986 2.8338c-1.462 1.2071-3.5015 1.8713-5.4754 1.7447-1.9431-0.1238-3.8955-1.0858-5.0495-2.6025-0.94638-1.2101-1.3998-2.8285-1.2741-4.3312 0.06535-0.78238 0.30574-1.5534 0.67779-2.226 0.37206-0.67266 0.87568-1.2467 1.4707-1.6588 0.9287-0.66318 2.1196-0.92843 3.182-0.80341 0.5803 0.06882 1.1395 0.27592 1.6075 0.57281 0.46798 0.29689 0.84482 0.68356 1.0936 1.1206 0.37574 0.62969 0.46077 1.3989 0.33833 2.0466-0.07186 0.37129-0.24776 0.71547-0.46941 0.97396-0.22165 0.25848-0.48941 0.43216-0.76604 0.51207-0.16564 0.06479-0.35713 0.05444-0.53899 0.01395s-0.35448-0.11154-0.50246-0.18756c-0.1662-0.10354-0.29138-0.19887-0.33026-0.30694-0.07348-0.11748-0.01563-0.27069 0.01849-0.37226 0.03411-0.10157 0.05675-0.16318 0.03543-0.1845s-0.08917-0.0069-0.18645 0.07824c-0.04864 0.04259-0.10382 0.10398-0.14943 0.19317s-0.08231 0.20641-0.07397 0.36067c0.03248 0.22913 0.1751 0.47725 0.39127 0.6459 0.15567 0.14015 0.3562 0.27772 0.606 0.3746 0.24981 0.09688 0.54926 0.15351 0.89046 0.10577 0.4211-0.07501 0.85213-0.27004 1.2286-0.59675 0.37645-0.32671 0.69869-0.786 0.86771-1.3464 0.26641-0.8563 0.26946-1.9107-0.19776-2.9112-0.31198-0.64752-0.78689-1.2411-1.4002-1.7167-0.61329-0.47558-1.3651-0.83305-2.1989-0.99457-1.4391-0.28244-3.0749-0.05833-4.4961 0.80562-0.87369 0.54246-1.6331 1.2884-2.2148 2.183-0.58173 0.89464-0.98559 1.9378-1.1442 3.0509-0.29512 2.0577 0.17465 4.2839 1.4378 6.1198 1.5598 2.2244 4.1097 3.7118 6.8746 4.0236 2.7287 0.30847 5.5458-0.44589 7.7616-2.0858 1.3892-1.0472 2.496-2.3811 3.2856-3.8502 0.78964-1.4691 1.2618-3.0721 1.4112-4.6741 0.16831-1.8055-0.0471-3.5714-0.54141-5.1722-0.4943-1.6008-1.2669-3.036-2.2039-4.2417-1.1949-1.513-2.5806-2.6213-3.9134-3.4119-1.3328-0.79061-2.6135-1.2662-3.6929-1.5567-1.0793-0.29056-1.9596-0.39994-2.5608-0.45158-0.60118-0.05164-0.92556-0.0498-0.92556-0.0498z" color="#000000" fill="#c890ff"/>
		<path d="m17.062 7.2813c-2.4453 0.063311-4.815 0.50247-7 1.2188-2.9133 0.95504-5.5191 2.404-7.6875 4.1562-0.87347 0.71672-1.6503 1.4767-2.375 2.25v15.031c0.044841-0.34779 0.11548-0.73613 0.1875-1.125 0.2881-1.5555 0.82288-3.4248 1.8125-5.4062 0.98963-1.9814 2.4461-4.0647 4.5-5.8125 1.5205-1.3216 3.3997-2.4696 5.5625-3.25 2.1628-0.78035 4.6064-1.2111 7.0938-1.0938 2.1503 0.10018 4.3588 0.65714 6.4375 1.625s4.0036 2.3507 5.5 4.1562c2.4206 2.8579 3.7832 6.8787 3.5625 10.812-0.21307 3.8297-2.0445 7.709-5.0312 10.094-2.4578 2.0059-5.7864 2.9994-8.9375 2.7812-3.224-0.22222-6.3405-1.8325-8.1875-4.2812-1.5499-2.0088-2.2485-4.6412-2.0312-7.0625 0.11558-1.2876 0.50987-2.5361 1.125-3.625s1.4395-2.0256 2.4062-2.6875c1.5353-1.0783 3.4714-1.4653 5.1875-1.25 0.95234 0.12041 1.8686 0.44633 2.625 0.9375s1.3511 1.1315 1.75 1.8438c0.60672 1.0421 0.74085 2.2984 0.53125 3.3438-0.12524 0.61092-0.44409 1.1776-0.8125 1.5938s-0.79763 0.68712-1.25 0.8125c-0.28213 0.1008-0.611 0.07049-0.90625 0s-0.54666-0.18538-0.78125-0.3125c-0.26882-0.17132-0.47055-0.34735-0.53125-0.53125-0.11043-0.20715-0.0295-0.4349 0.03125-0.59375s0.12294-0.25206 0.09375-0.28125c-0.0292-0.0292-0.13408-0.01131-0.28125 0.125-0.07359 0.06817-0.15028 0.17377-0.21875 0.3125s-0.14136 0.32786-0.125 0.5625c0.05216 0.34934 0.28764 0.70854 0.625 0.96875 0.2452 0.21442 0.54949 0.41522 0.9375 0.5625s0.85286 0.23402 1.375 0.15625c0.64875-0.1191 1.3271-0.42826 1.9062-0.9375s1.055-1.2244 1.3125-2.0938c0.4042-1.3287 0.41978-2.9527-0.3125-4.5-0.48486-0.99675-1.2338-1.9228-2.1875-2.6562-0.95374-0.73344-2.1395-1.2851-3.4375-1.5312-2.2247-0.42659-4.7635-0.07145-6.9688 1.2812-1.341 0.83786-2.5076 1.9859-3.4062 3.375-0.89868 1.3891-1.508 3.0426-1.75 4.7812-0.44297 3.1653 0.26701 6.6072 2.25 9.4688 1.1943 1.6951 2.7679 3.1203 4.5938 4.1875s3.9185 1.7607 6.0938 2c4.1495 0.45737 8.504-0.647 12-3.25 4.1399-3.1321 6.7786-8.0386 7.25-13.219 0.47436-5.2165-1.1036-10.524-4.2812-14.594-1.9902-2.5088-4.4992-4.4551-7.2188-5.8437-2.7195-1.3887-5.644-2.2112-8.5625-2.4375-0.8299-0.06417-1.6536-0.083604-2.4688-0.0625z" color="#000000" fill="#d3cde0"/>
		<path d="m4.7965 35.148c-0.72455-0.72455-1.8975-0.74125-2.622-0.0167-0.72455 0.72455-0.72455 1.9142 8e-7 2.6387 0.67369 0.67369 1.7416 0.71272 2.4717 0.13361l4.9602 4.9602-0.71813 0.71814 0.26722 0.26721 1.954 1.954 0.26721-0.26722 0.45092-0.45092 12.609 12.609c-0.57846 0.73013-0.53984 1.7983 0.13361 2.4717 0.72455 0.72455 1.9142 0.72455 2.6387 0 0.72455-0.72455 0.70785-1.8975-0.0167-2.622-0.58767-0.58767-1.472-0.6955-2.1711-0.33402l-12.659-12.659 0.71814-0.71814-0.26722-0.26721-1.954-1.954-0.71813 0.71813-5.0103-5.0103c0.3638-0.6997 0.25468-1.5824-0.33402-2.1711zm-0.53443 0.53443c0.34495 0.34495 0.41397 0.84338 0.21711 1.2526l-0.40082 0.40082 0.033399 0.03341c-0.43325 0.29956-1.0162 0.25304-1.4029-0.13361-0.43572-0.43572-0.43572-1.1342 0-1.5699 0.43572-0.43572 1.1175-0.41902 1.5532 0.0167zm22.396 22.396c0.43572 0.43572 0.45242 1.1175 0.0167 1.5532-0.43572 0.43572-1.1342 0.43572-1.5699 0-0.43572-0.43572-0.43572-1.1342 0-1.5699 0.43572-0.43572 1.1175-0.41902 1.5532 0.0167zm-15.799-15.398 1.1524 1.1524-0.90185 0.90185-1.1524-1.1524z" color="#000000" fill="#333333" style="text-decoration-line:none;text-indent:0;text-transform:none"/>
	</g>
	<g>
		<path d="m0 2h60v31l-26 31h-34z" fill="url(#linearGradient79106-5)"/>
	</g>
	<g stroke-linecap="round" stroke-linejoin="round">
		<rect y="2" width="60" height="1" fill="#97a7ff" fill-opacity=".38396" stop-color="#000000" style="-inkscape-stroke:none;paint-order:stroke fill markers"/>
		<rect x="4" width="60" height="1" fill="#9798ff" fill-opacity=".38396" stop-color="#000000" style="-inkscape-stroke:none;paint-order:stroke fill markers"/>
		<rect transform="rotate(90)" x="2" y="-1" width="62" height="1" fill="#000000" fill-opacity=".03" stop-color="#000000" style="-inkscape-stroke:none;paint-order:stroke fill markers"/>
		<rect transform="rotate(90)" y="-5" width="2" height="1" fill="#000000" fill-opacity=".06" stop-color="#000000" style="-inkscape-stroke:none;paint-order:stroke fill markers"/>
	</g>
	<path d="m34 64 26-31c-2.3286 2.7764-4.3614 3-11 3h-12v15c0 6.6441 0.04437 9.3702-3 13z" fill="url(#linearGradient70762)"/>
	<path d="m60 33c-2.3286 2.7764-4.3614 3-11 3h-11.5" fill="none" stroke="url(#linearGradient82616)" stroke-linecap="round" stroke-opacity=".9954"/>
</svg>
