<?xml version="1.0" encoding="UTF-8"?>
<!-- Created with Inkscape (http://www.inkscape.org/) -->
<svg width="64" height="64" version="1.1" xmlns="http://www.w3.org/2000/svg" xmlns:cc="http://creativecommons.org/ns#" xmlns:dc="http://purl.org/dc/elements/1.1/" xmlns:rdf="http://www.w3.org/1999/02/22-rdf-syntax-ns#">
	<defs>
		<radialGradient id="a" cx="20.34" cy="28.54" r="30" gradientTransform="matrix(1.181,0,0,1.22,-5.424,-7.265)" gradientUnits="userSpaceOnUse">
			<stop stop-color="#c909e8" stop-opacity=".18824" offset="0"/>
			<stop stop-color="#e213e9" stop-opacity="0" offset="1"/>
		</radialGradient>
		<linearGradient id="c" x1="37" x2="48.96" y1="36" y2="46.16" gradientUnits="userSpaceOnUse">
			<stop stop-color="#eb57ff" stop-opacity="0" offset="0"/>
			<stop stop-color="#eb57ff" stop-opacity=".13103" offset=".5903"/>
			<stop stop-color="#eb57ff" stop-opacity=".22241" offset=".7003"/>
			<stop stop-color="#eb57ff" stop-opacity=".32069" offset=".8081"/>
			<stop stop-color="#eb57ff" stop-opacity=".44655" offset=".9019"/>
			<stop stop-color="#eb57ff" stop-opacity=".64828" offset="1"/>
		</linearGradient>
		<linearGradient id="d" x1="82.74" x2="71" y1="79.42" y2="69" gradientTransform="translate(-34,-33)" gradientUnits="userSpaceOnUse">
			<stop stop-color="#833da9" offset="0"/>
			<stop stop-color="#7b379f" offset=".2523"/>
			<stop stop-color="#863cae" offset="1"/>
		</linearGradient>
		<radialGradient id="b" cx="46.87" cy="36.89" r="14.16" gradientTransform="matrix(1.44,0,0,2.118,-19.19,-35.79)" gradientUnits="userSpaceOnUse">
			<stop stop-color="#550045" stop-opacity=".3137" offset="0"/>
			<stop stop-color="#480d42" stop-opacity=".14118" offset="1"/>
		</radialGradient>
	</defs>
	<metadata>
		<rdf:RDF>
			<cc:Work rdf:about="">
				<dc:format>image/svg+xml</dc:format>
				<dc:type rdf:resource="http://purl.org/dc/dcmitype/StillImage"/>
				<dc:title/>
			</cc:Work>
		</rdf:RDF>
	</metadata>
	<path d="m4 0h60v62h-60z" fill="#863cae"/>
	<path d="m0 2h60v31l-26 31h-34z" color="#000000" fill="#bc64d1"/>
	<path d="m0 2h60v31l-26 31h-34z" color="#000000" fill="url(#a)"/>
	<path d="m0 2h60v31l-26 31h-34z" color="#000000" fill="url(#c)"/>
	<path d="m34 64 26-31c-2.329 2.776-4.361 3-11 3h-12v15c0 6.644 0.04437 9.37-3 13z" fill="url(#d)"/>
	<path d="m60 2v31l-24.32 29h28.32v-56z" fill="url(#b)"/>
	<path d="m20.654 8.0371-6.1621 19 2.8535 0.92578 6.1621-19-2.8535-0.92578zm-8.4551 1.3633-6.4492 8.5996 6.4492 8.5996 1.6016-1.1992-5.5508-7.4004 5.5508-7.4004-1.6016-1.1992zm13.602 0-1.6016 1.1992 5.5508 7.4004-5.5508 7.4004 1.6016 1.1992 6.4492-8.5996-6.4492-8.5996z" color="#000000" color-rendering="auto" dominant-baseline="auto" fill="#d6e9c9" image-rendering="auto" shape-rendering="auto" solid-color="#000000" style="font-feature-settings:normal;font-variant-alternates:normal;font-variant-caps:normal;font-variant-ligatures:normal;font-variant-numeric:normal;font-variant-position:normal;isolation:auto;mix-blend-mode:normal;paint-order:normal;shape-padding:0;text-decoration-color:#000000;text-decoration-line:none;text-decoration-style:solid;text-indent:0;text-orientation:mixed;text-transform:none;white-space:normal"/>
</svg>
