<?xml version="1.0" encoding="UTF-8"?>
<!-- Created with Inkscape (http://www.inkscape.org/) -->
<svg width="12" height="12" version="1.1" xmlns="http://www.w3.org/2000/svg" xmlns:cc="http://creativecommons.org/ns#" xmlns:dc="http://purl.org/dc/elements/1.1/" xmlns:rdf="http://www.w3.org/1999/02/22-rdf-syntax-ns#">
	<defs>
		<style id="current-color-scheme" type="text/css">.ColorScheme-Text {
			color:#090d11;
			}
			.ColorScheme-Background{
			color:#ffffff;
			}</style>
	</defs>
	<metadata>
		<rdf:RDF>
			<cc:Work rdf:about="">
				<dc:format>image/svg+xml</dc:format>
				<dc:type rdf:resource="http://purl.org/dc/dcmitype/StillImage"/>
			</cc:Work>
		</rdf:RDF>
	</metadata>
	<path class="ColorScheme-Text" d="m6 1c-0.76911 0-1.4722 0.29138-2.0039 0.76953 0.24819 0.22272 0.45921 0.48672 0.62305 0.7793 0.35739-0.33976 0.84077-0.54883 1.3809-0.54883 1.1167 0 2 0.8833 2 2v1.7637c-0.031646-0.028298-0.064964-0.0552-0.097656-0.082031a3 3 0 0 0-0.0078126-0.0078125c-0.035611-0.02901-0.070645-0.056731-0.10742-0.083984a3 3 0 0 0-0.11328-0.080078c-0.0024209-0.001628-0.0053872-0.0022855-0.0078125-0.0039062a3 3 0 0 0-0.10742-0.068359c-0.005282-0.0032124-0.010325-0.0065868-0.015625-0.0097656a3 3 0 0 0-0.10156-0.058594l-0.0019531-0.0019531a3 3 0 0 0-0.11914-0.060547 3 3 0 0 0-0.082031-0.039062c-0.029679-0.01344-0.059753-0.0266-0.089844-0.039062-0.041724-0.017281-0.084494-0.033449-0.12695-0.048828-0.003859-0.0013978-0.007854-0.0025243-0.011719-0.0039063a3 3 0 0 0-0.068359-0.023437c-0.023599-0.0078047-0.046519-0.016219-0.070312-0.023438a3 3 0 0 0-0.023438-0.0058593c-0.033021-0.0097265-0.066247-0.018753-0.099609-0.027344-0.0065458-0.0016855-0.012973-0.0042178-0.019531-0.0058593a3 3 0 0 0-0.048828-0.011719c-0.03127-0.0072752-0.062225-0.013257-0.09375-0.019531a3 3 0 0 0-0.039062-0.0078126c-0.035631-0.0065973-0.071511-0.012268-0.10742-0.017578-0.043385-0.0064152-0.08712-0.013062-0.13086-0.017578-0.0045646-4.712e-4 -0.0091039-0.0015027-0.013672-0.0019531a3 3 0 0 0-0.019531-0.0019531c-0.042986-0.0039553-0.085651-0.0057123-0.12891-0.0078126a3 3 0 0 0-0.0078125 0c-0.045884-0.0021075-0.092553-0.0039106-0.13867-0.0039062-0.12685 1.722e-4 -0.25233 0.011221-0.37695 0.027344a3 3 0 0 0-0.085938 0.011719c-0.10942 0.017381-0.21781 0.039178-0.32422 0.068359a3 3 0 0 0-0.13672 0.042969c-0.025283 0.0082392-0.051123 0.014541-0.076172 0.023438v0.0058594a3 3 0 0 0-2 2.8203c0 0.14458 0.01148 0.28666 0.03125 0.42578a3 3 0 0 0 0 0.0039063c0.020287 0.14145 0.050541 0.2797 0.089844 0.41406a3 3 0 0 0 0 0.0039062c0.040386 0.13743 0.09163 0.26998 0.15039 0.39844 0.059688 0.13049 0.12804 0.25537 0.20508 0.375 0.073908 0.11476 0.15572 0.22481 0.24414 0.32812a3 3 0 0 0 0.023438 0.027344c0.087027 0.099264 0.18003 0.19227 0.2793 0.2793a3 3 0 0 0 0.027344 0.023438c0.10332 0.088421 0.21336 0.17023 0.32812 0.24414 0.11963 0.077041 0.24451 0.14539 0.375 0.20508 0.12846 0.05876 0.26101 0.11 0.39844 0.15039 0.0011963 3.52e-4 0.0027092-3.5e-4 0.0039062 0 0.13436 0.039303 0.27261 0.069557 0.41406 0.089844 0.0012721 1.82e-4 0.0026335-1.81e-4 0.0039063 0 0.13912 0.01977 0.2812 0.03125 0.42578 0.03125s0.28666-0.01148 0.42578-0.03125h0.0019532a3 3 0 0 0 0.0019531 0c0.14145-0.020287 0.2797-0.050541 0.41406-0.089844h0.0019531a3 3 0 0 0 0.0019531 0c0.13743-0.040386 0.26998-0.09163 0.39844-0.15039 0.13049-0.059688 0.25537-0.12804 0.375-0.20508 0.11476-0.073909 0.22481-0.15572 0.32812-0.24414 0.0091192-0.007805 0.01832-0.015526 0.027344-0.023438 0.099264-0.087027 0.19227-0.18003 0.2793-0.2793 0.0079115-0.009024 0.015633-0.018225 0.023438-0.027344 0.088421-0.10332 0.17023-0.21336 0.24414-0.32812 0.077043-0.11963 0.14539-0.24451 0.20508-0.375 0.058761-0.12846 0.11-0.26101 0.15039-0.39844v-0.0019531a3 3 0 0 0 0-0.0019531c0.039303-0.13436 0.069556-0.27261 0.089844-0.41406v-0.0019531a3 3 0 0 0 0-0.0019532c0.01977-0.13912 0.03125-0.2812 0.03125-0.42578v-4c0-1.6534-1.3466-3-3-3zm0 6a1 1 0 0 1 1 1 1 1 0 0 1-1 1 1 1 0 0 1-1-1 1 1 0 0 1 1-1z" style="fill-opacity:.75;fill:currentColor"/>
	<path class="ColorScheme-Background" d="m6 0c-1.1222 0-2.1421 0.47111-2.8711 1.2246 0.32137 0.13243 0.61593 0.31725 0.87109 0.54688 0.53162-0.47781 1.2312-0.77148 2-0.77148 1.6534 0 3 1.3466 3 3v1.3574a4 4 0 0 0-1.7109-1.1426 4 4 0 0 0-0.0097656-0.0039063c-0.004482-0.0015299-0.0091829-0.0023919-0.013672-0.0039063a4 4 0 0 0-0.18945-0.058594 4 4 0 0 0-0.20898-0.052734 4 4 0 0 0-0.21094-0.041016 4 4 0 0 0-0.13867-0.019531c-0.04162-0.0054633-0.082999-0.01147-0.125-0.015625a4 4 0 0 0-0.16992-0.013672c-0.001288-7.17e-5 -0.0026178 7.04e-5 -0.0039062 0a4 4 0 0 0-0.21875-0.0058594c-0.18607 0-0.36938 0.013801-0.54883 0.039062a4 4 0 0 0-0.056641 0.0097656c-0.1337 0.020808-0.26539 0.046375-0.39453 0.080078v0.0058594a4 4 0 0 0-3 3.8652c0 0.18645 0.013964 0.36892 0.039062 0.54883a4 4 0 0 0 0.0039063 0.03125c0.025596 0.17338 0.063979 0.34416 0.11133 0.50977a4 4 0 0 0 0.019531 0.068359c0.046592 0.15255 0.10217 0.30093 0.16602 0.44531a4 4 0 0 0 0.050781 0.11133c0.0021553 0.0044933 0.0036878 0.0091875 0.0058594 0.013672 0.056415 0.1165 0.11849 0.22987 0.18555 0.33984 0.003212 0.005268 0.0065301 0.010374 0.0097657 0.015625a4 4 0 0 0 0.091797 0.14258c8.129e-4 0.001205 0.0011387 0.002705 0.0019531 0.003907 0.065074 0.09605 0.13606 0.18937 0.20898 0.2793 0.0079032 0.009745 0.015446 0.019628 0.023438 0.029296a4 4 0 0 0 0.125 0.14648c0.086289 0.094873 0.17661 0.1852 0.27148 0.27148a4 4 0 0 0 0.14648 0.125 4 4 0 0 0 0.029297 0.023438c0.08993 0.072927 0.18325 0.14391 0.2793 0.20898 0.0012021 8.14e-4 0.0027034 0.00114 0.0039063 0.001953a4 4 0 0 0 0.14258 0.091797c0.0052517 0.003236 0.010358 0.006554 0.015625 0.009766 0.10998 0.06706 0.22335 0.12913 0.33984 0.18555 0.0044843 0.002171 0.0091784 0.003704 0.013672 0.005859a4 4 0 0 0 0.11133 0.050781c0.14438 0.063847 0.29277 0.11942 0.44531 0.16602a4 4 0 0 0 0.068359 0.019531c0.1656 0.047349 0.33638 0.085732 0.50977 0.11133a4 4 0 0 0 0.03125 0.003907c0.17991 0.025097 0.36238 0.039062 0.54883 0.039062s0.36892-0.013965 0.54883-0.039062a4 4 0 0 0 0.03125-0.003907c0.17338-0.025596 0.34416-0.063979 0.50977-0.11133a4 4 0 0 0 0.068359-0.019531c0.15255-0.046592 0.30093-0.10217 0.44531-0.16602a4 4 0 0 0 0.11133-0.050781 4 4 0 0 0 0.013672-0.005859c0.1165-0.056415 0.22987-0.11849 0.33984-0.18555a4 4 0 0 0 0.015625-0.009766 4 4 0 0 0 0.14258-0.091797 4 4 0 0 0 0.0039063-0.001953c0.09605-0.065074 0.18937-0.13606 0.2793-0.20898 0.0097455-0.007903 0.019627-0.015446 0.029297-0.023438a4 4 0 0 0 0.14648-0.125c0.094873-0.086289 0.18519-0.17661 0.27148-0.27148a4 4 0 0 0 0.125-0.14648c0.007992-0.009668 0.015534-0.019551 0.023438-0.029296 0.072927-0.08993 0.14391-0.18325 0.20898-0.2793 8.144e-4 -0.001202 0.0011402-0.002702 0.0019531-0.003907a4 4 0 0 0 0.091797-0.14258 4 4 0 0 0 0.0097657-0.015625c0.06706-0.10998 0.12913-0.22335 0.18555-0.33984 0.0021716-0.0044843 0.0037041-0.0091786 0.0058594-0.013672a4 4 0 0 0 0.050781-0.11133c0.063847-0.14438 0.11942-0.29277 0.16602-0.44531a4 4 0 0 0 0.019531-0.068359c0.047349-0.1656 0.085732-0.33638 0.11133-0.50977a4 4 0 0 0 0.0039063-0.03125c0.025099-0.17991 0.039062-0.36238 0.039062-0.54883v-4c0-2.1964-1.8036-4-4-4zm0 5a3 3 0 0 1 3 3 3 3 0 0 1-3 3 3 3 0 0 1-3-3 3 3 0 0 1 3-3zm0 2a1 1 0 0 0-1 1 1 1 0 0 0 1 1 1 1 0 0 0 1-1 1 1 0 0 0-1-1z" style="fill-opacity:.5;fill:currentColor"/>
</svg>
