<?xml version="1.0" encoding="UTF-8"?>
<!-- Created with Inkscape (http://www.inkscape.org/) -->
<svg width="12" height="12" version="1.1" xmlns="http://www.w3.org/2000/svg" xmlns:cc="http://creativecommons.org/ns#" xmlns:dc="http://purl.org/dc/elements/1.1/" xmlns:rdf="http://www.w3.org/1999/02/22-rdf-syntax-ns#">
	<defs>
		<style id="current-color-scheme" type="text/css">.ColorScheme-Text {
			color:#090d11;
			}
			.ColorScheme-Background{
			color:#ffffff;
			}</style>
	</defs>
	<metadata>
		<rdf:RDF>
			<cc:Work rdf:about="">
				<dc:format>image/svg+xml</dc:format>
				<dc:type rdf:resource="http://purl.org/dc/dcmitype/StillImage"/>
			</cc:Work>
		</rdf:RDF>
	</metadata>
	<path class="ColorScheme-Text" d="m6 1c-1.6533 0-3 1.3466-3 3v4c0 1.6569 1.3431 3 3 3s3-1.3431 3-3v-4c0-1.6534-1.3466-3-3-3zm0 1c1.1167 0 2 0.8833 2 2v1.7637c-0.55006-0.49186-1.2621-0.76374-2-0.76367-0.73841 0.0010023-1.4505 0.2743-2 0.76758v-1.7676c0-1.1167 0.8834-2 2-2zm-0.00977 5h0.019531c0.54902 0 0.99024 0.446 0.99024 1s-0.44123 1-0.99023 1h-0.019531c-0.54901 0-0.99023-0.446-0.99023-1s0.44123-1 0.99023-1z" style="fill-opacity:.75;fill:currentColor"/>
	<path class="ColorScheme-Background" d="m6 0c-2.1963 0-4 1.8036-4 4v4c0 2.1973 1.8027 4 4 4s4-1.8027 4-4v-4c0-2.1964-1.8036-4-4-4zm0 1c1.6534 0 3 1.3466 3 3v1.3652c-0.73491-0.83506-1.809-1.3652-3-1.3652s-2.2651 0.53017-3 1.3652v-1.3652c0-1.6534 1.3467-3 3-3zm0 4c1.6569 0 3 1.3431 3 3-4.6e-5 0.15302-0.011799 0.30581-0.035156 0.45703-6.433e-4 0.00391-0.00129 0.00781-0.00195 0.011719-0.024452 0.15497-0.061022 0.30778-0.10938 0.45703-3.829e-4 0.00118 3.844e-4 0.00273 0 0.00391-0.045327 0.13458-0.10015 0.26577-0.16406 0.39258-0.00956 0.019396-0.017382 0.039437-0.027344 0.058594-0.064025 0.1227-0.13646 0.24082-0.2168 0.35352-0.01697 0.023882-0.035089 0.046956-0.052734 0.070312-0.083048 0.11164-0.17376 0.21736-0.27148 0.31641-0.099046 0.09772-0.20477 0.18844-0.31641 0.27148-0.023356 0.01764-0.046431 0.03576-0.070312 0.05273-0.1127 0.08033-0.23082 0.15277-0.35352 0.2168-0.019157 0.01-0.039197 0.01779-0.058594 0.02734-0.12681 0.06391-0.258 0.11874-0.39258 0.16406h-0.0039c-0.14925 0.04835-0.30206 0.08492-0.45703 0.10938-0.0039 6.59e-4 -0.00781 0.0013-0.011719 2e-3 -0.15123 0.023314-0.30402 0.035067-0.45704 0.035113-0.15302-4.6e-5 -0.30581-0.0118-0.45703-0.03516-0.00392-5.99e-4 -0.00781-0.0013-0.011719-2e-3 -0.15497-0.02445-0.30778-0.06102-0.45703-0.10938-0.00118-3.83e-4 -0.00273 3.84e-4 -0.00391 0-0.13458-0.04533-0.26577-0.10015-0.39258-0.16406-0.019396-0.0096-0.039437-0.01738-0.058594-0.02734-0.12269-0.06398-0.24081-0.13642-0.35351-0.21675-0.023882-0.01697-0.046956-0.03509-0.070312-0.05273-0.11164-0.083052-0.21736-0.17376-0.31641-0.27149-0.097723-0.099046-0.18844-0.20477-0.27148-0.31641-0.017645-0.023356-0.035764-0.046431-0.052734-0.070312-0.080333-0.1127-0.15277-0.23082-0.2168-0.35352-0.0099614-0.019157-0.017786-0.039197-0.027344-0.058594-0.06391-0.12681-0.11874-0.258-0.16406-0.39258v-0.00391c-0.048353-0.14925-0.084923-0.30206-0.10938-0.45703-6.137e-4 -0.00391-0.00135-0.0078-0.00195-0.011719-0.02336-0.15122-0.035113-0.30401-0.035159-0.45703 0-1.6569 1.3431-3 3-3zm0 2c-0.55228 0-1 0.44772-1 1s0.44772 1 1 1 1-0.44772 1-1-0.44772-1-1-1z" style="fill-opacity:.5;fill:currentColor"/>
</svg>
