<?xml version="1.0" encoding="UTF-8"?>
<!-- Created with Inkscape (http://www.inkscape.org/) -->
<svg width="24" height="24" version="1.1" xmlns="http://www.w3.org/2000/svg" xmlns:cc="http://creativecommons.org/ns#" xmlns:dc="http://purl.org/dc/elements/1.1/" xmlns:rdf="http://www.w3.org/1999/02/22-rdf-syntax-ns#">
	<defs>
		<radialGradient id="a" cx="-9416.6" cy="5035.4" r="9" gradientTransform="matrix(1.3333 0 0 1.1851 3181.7 -1122.5)" gradientUnits="userSpaceOnUse">
			<stop stop-color="#213851" stop-opacity=".9059" offset="0"/>
			<stop stop-color="#27303a" stop-opacity="0" offset="1"/>
		</radialGradient>
		<radialGradient id="b" cx="8" cy="11.997" r="9.3438" gradientTransform="matrix(1 0 0 .82441 0 2.1098)" gradientUnits="userSpaceOnUse">
			<stop stop-color="#ffffff" stop-opacity=".74858" offset="0"/>
			<stop stop-color="#ffffff" stop-opacity=".60511" offset="1"/>
		</radialGradient>
	</defs>
	<metadata>
		<rdf:RDF>
			<cc:Work rdf:about="">
				<dc:format>image/svg+xml</dc:format>
				<dc:type rdf:resource="http://purl.org/dc/dcmitype/StillImage"/>
				<dc:title/>
			</cc:Work>
		</rdf:RDF>
	</metadata>
	<g transform="translate(9379.3 -4835.2)">
		<path d="m-9375.3 4847.2 6.1562 6.1562 1.6563-1.4375-3.7188-3.7187h11.906v-2h-11.906l3.7188-3.7188-1.6563-1.4375z" color="#000000" fill="#090d11" fill-opacity=".76621" style="font-variant-east_asian:normal;paint-order:normal;text-decoration-line:none;text-indent:0;text-transform:none"/>
		<path d="m-9375.3 4847.2 6.1562 6.1562 1.6563-1.4375-3.7188-3.7187h11.906v-2h-11.906l3.7188-3.7188-1.6563-1.4375z" color="#000000" fill="url(#a)" fill-opacity=".75328" style="block-progression:tb;font-variant-east_asian:normal;paint-order:normal;text-indent:0;text-transform:none"/>
		<path transform="translate(-9379.3 4835.2)" d="m10 4.3125-7.6875 7.6875 7.6875 7.7188v-1.7188l-6-6 6-6zm-1.4062 6.1875-0.5 0.5h11.906v-0.5zm-0.5 2.5 0.5 0.5h11.406v-0.5z" color="#000000" fill="url(#b)" fill-opacity=".99858" style="paint-order:normal;text-decoration-line:none;text-indent:0;text-transform:none"/>
	</g>
</svg>
