<?xml version="1.0" encoding="UTF-8"?>
<svg id="d" width="24" height="24" version="1.1" xmlns="http://www.w3.org/2000/svg" xmlns:cc="http://creativecommons.org/ns#" xmlns:dc="http://purl.org/dc/elements/1.1/" xmlns:rdf="http://www.w3.org/1999/02/22-rdf-syntax-ns#">
	<defs id="c">
		<style id="current-color-scheme" type="text/css">.ColorScheme-Text {
			color:#090d11;
			}
			.ColorScheme-Background{
			color:#ffffff;
			}</style>
	</defs>
	<metadata id="b">
		<rdf:RDF>
			<cc:Work rdf:about="">
				<dc:format>image/svg+xml</dc:format>
				<dc:type rdf:resource="http://purl.org/dc/dcmitype/StillImage"/>
				<dc:title/>
			</cc:Work>
		</rdf:RDF>
	</metadata>
	<path id="e" d="m11.977 3.7637c-0.24536 1.674e-4 -0.32978 0.11161-0.38086 0.16406-0.05108 0.052457-0.076839 0.090523-0.099609 0.12695-0.04553 0.072867-0.076791 0.14179-0.11328 0.22266-0.072979 0.16173-0.15395 0.36717-0.24414 0.61328-0.18039 0.49222-0.39628 1.1372-0.61133 1.7852-0.21505 0.64798-0.42874 1.2975-0.59766 1.7891-0.082228 0.23927-0.15304 0.43632-0.20703 0.57617-0.14969 0.00831-0.35867 0.014947-0.61133 0.019531-0.51977 0.00943-1.2058 0.012413-1.8887 0.017578-0.68287 0.00516-1.3608 0.013075-1.8848 0.033203-0.26198 0.010064-0.48378 0.023318-0.66016 0.042969-0.088187 0.00983-0.16469 0.01817-0.24805 0.039062-0.04168 0.010446-0.082792 0.02224-0.14844 0.054688-0.065642 0.032447-0.20168 0.079152-0.27734 0.3125-0.075662 0.23335 0.0068997 0.35124 0.041016 0.41602 0.034117 0.06478 0.06222 0.097958 0.089844 0.13086 0.055247 0.06581 0.11013 0.11805 0.17578 0.17773 0.1313 0.11936 0.30352 0.25811 0.50977 0.41992 0.4125 0.32362 0.95785 0.73003 1.5078 1.1348 0.54997 0.40471 1.1022 0.80858 1.5176 1.1211 0.2019 0.15189 0.36802 0.27852 0.48438 0.37305-0.038343 0.14492-0.096101 0.34784-0.16992 0.58984-0.15165 0.49712-0.3603 1.1479-0.56641 1.7988-0.2061 0.65088-0.40997 1.3003-0.55273 1.8047-0.071382 0.2522-0.12825 0.46686-0.16406 0.64062-0.017904 0.08688-0.029271 0.16038-0.035156 0.24609-0.00294 0.042861-0.0066738 0.087707 0.0039062 0.16016 0.010582 0.07244 0.014291 0.21532 0.21289 0.35938 0.1986 0.14405 0.33408 0.10226 0.40625 0.089844 0.072165-0.01242 0.1125-0.028822 0.15234-0.044922 0.079679-0.03219 0.14559-0.067358 0.22266-0.11133 0.15412-0.08796 0.34093-0.20936 0.55859-0.35547 0.43533-0.29221 0.99-0.6861 1.5449-1.084 0.55495-0.39786 1.1095-0.79923 1.5352-1.0977 0.20641-0.1447 0.38004-0.26234 0.50586-0.34375 0.003783 0.00244 0.011755 0.007261 0.015625 0.009766v-1.0781c-0.007205-1.47e-4 -0.007802-0.001959-0.015625-0.001953-0.15818 1.08e-4 -0.18657 0.033921-0.22656 0.050781-0.039989 0.01686-0.068749 0.031918-0.099609 0.048828-0.06173 0.03383-0.12507 0.073364-0.19922 0.12109-0.1483 0.09546-0.33482 0.22224-0.55273 0.375-0.43582 0.30552-0.99203 0.70714-1.5449 1.1035-0.46143 0.33082-0.88647 0.62922-1.2676 0.89062 0.13029-0.44318 0.28184-0.93951 0.45312-1.4805 0.20535-0.6485 0.41504-1.3015 0.57031-1.8105 0.077637-0.2545 0.14275-0.47201 0.1875-0.64258 0.022373-0.08528 0.039718-0.1574 0.052734-0.22656 0.00651-0.03458 0.012006-0.068088 0.015625-0.11133 0.00362-0.04324 0.023592-0.080099-0.025391-0.23047-0.048983-0.15037-0.086847-0.16836-0.11523-0.20117-0.028392-0.03281-0.052495-0.054005-0.078125-0.078125-0.051261-0.04824-0.10746-0.096583-0.17578-0.15234-0.13668-0.1115-0.31859-0.25017-0.53125-0.41016-0.42532-0.31997-0.97743-0.72569-1.5254-1.1289-0.4573-0.33652-0.87181-0.64812-1.2383-0.92969 0.46176-0.01306 0.98156-0.021101 1.5488-0.025391 0.68037-0.0051 1.3662-0.007898 1.8984-0.017578 0.2661-0.0048 0.49188-0.011314 0.66797-0.021485 0.088042-0.005099 0.16065-0.010531 0.23047-0.019531 0.03491-0.0045 0.069078-0.007698 0.11133-0.017578 0.04225-0.0098998 0.084981-0.0027 0.21289-0.095703 0.12791-0.09304 0.13185-0.13474 0.1543-0.17188 0.022441-0.037135 0.037695-0.067786 0.052735-0.099609 0.03005-0.063646 0.055971-0.13266 0.087891-0.21484 0.063849-0.16437 0.14008-0.37727 0.22656-0.62891 0.17296-0.50328 0.3873-1.1552 0.60156-1.8008 0.17853-0.53794 0.34751-1.0278 0.50195-1.4629 0.15501 0.43479 0.32469 0.92531 0.50391 1.4629 0.21514 0.64531 0.42986 1.2958 0.60352 1.7988 0.086819 0.25152 0.16248 0.46462 0.22656 0.62891 0.03204 0.082142 0.061667 0.15124 0.091797 0.21484 0.01507 0.031802 0.030244 0.062504 0.052734 0.099609s0.026267 0.079005 0.1543 0.17188c0.12803 0.09286 0.16868 0.08389 0.21094 0.09375 0.0045 0.00106 0.007398 0.0010031 0.011718 0.0019531h6.0605c0.0082-0.013032 0.014718-0.016607 0.023438-0.033203 0.03403-0.06482 0.11505-0.18277 0.039062-0.41602-0.07598-0.23324-0.2097-0.28014-0.27539-0.3125-0.06569-0.032357-0.1087-0.044299-0.15039-0.054687-0.08339-0.020778-0.15985-0.03131-0.24805-0.041016-0.1764-0.019411-0.39621-0.03131-0.6582-0.041016-0.52399-0.019412-1.2038-0.025064-1.8867-0.029297-0.68288-0.00423-1.3669-0.0069-1.8867-0.015625-0.25266-0.00424-0.46358-0.0094701-0.61328-0.017578-0.05412-0.13973-0.1247-0.33766-0.20703-0.57617-0.16959-0.4913-0.38368-1.1414-0.59961-1.7891s-0.43418-1.2932-0.61524-1.7852c-0.09053-0.24598-0.17094-0.45166-0.24414-0.61328-0.0366-0.080813-0.069595-0.1479-0.11524-0.2207-0.02282-0.036402-0.046496-0.074569-0.097656-0.12695-0.05115-0.052387-0.13745-0.16423-0.38281-0.16406zm5.1035 7.2363c-0.01353 0.01-0.023509 0.017314-0.037109 0.027344-0.5474 0.40397-1.1005 0.80836-1.5254 1.1289-0.21244 0.16028-0.39086 0.29846-0.52734 0.41016-0.06824 0.05585-0.12654 0.10404-0.17773 0.15234-0.0256 0.02416-0.049775 0.049181-0.078125 0.082031s-0.066464 0.048789-0.11523 0.19922h1.4434c0.023218-0.017643 0.034329-0.026616 0.058594-0.044922 0.41496-0.31307 0.96624-0.71764 1.5156-1.123 0.40282-0.29727 0.75741-0.56691 1.1055-0.83203h-1.6621zm-4.0801 3v1h7v-1h-7zm0 2v1h7v-1h-7zm0 2v1h7v-1h-7z" style="fill-opacity:.75;fill:currentColor" class="ColorScheme-Text"/>
	<path id="h" d="m11.975 1.1602c-0.24494 1.673e-4 -0.32885 0.11065-0.38281 0.16406-0.05397 0.053414-0.08021 0.093412-0.10742 0.13477-0.05443 0.0827-0.09955 0.16828-0.14844 0.26953-0.097771 0.2025-0.21002 0.46618-0.33594 0.7832-0.25183 0.63405-0.55564 1.4695-0.85938 2.3086-0.30372 0.83908-0.60731 1.6833-0.8457 2.3223-0.1192 0.31947-0.22134 0.58758-0.29883 0.77344-0.015843 0.038003-0.023729 0.053564-0.037109 0.083984-0.033162 0.00339-0.052534 0.0063556-0.09375 0.0097656-0.20058 0.01658-0.48572 0.033648-0.82617 0.048828-0.6809 0.030359-1.5755 0.058872-2.4668 0.089844-0.89132 0.030971-1.7786 0.064719-2.459 0.10938-0.3402 0.022326-0.62893 0.045402-0.85156 0.076172-0.11132 0.015385-0.20344 0.032221-0.29883 0.058594-0.047693 0.013186-0.094712 0.02365-0.16211 0.058594-0.067397 0.034944-0.19791 0.085207-0.27344 0.31836-0.075531 0.23315 0.0030203 0.3462 0.037109 0.41406 0.034091 0.067864 0.062859 0.10781 0.09375 0.14648 0.061782 0.077353 0.12981 0.14485 0.21094 0.22266 0.16225 0.15562 0.38017 0.34275 0.64258 0.56055 0.52482 0.43559 1.2241 0.98297 1.9277 1.5312 0.70365 0.54833 1.4098 1.0972 1.9434 1.5215 0.2668 0.21216 0.49182 0.39422 0.64453 0.52539 0.03163 0.02717 0.043354 0.038197 0.068359 0.060547-0.00701 0.03253-0.010064 0.049704-0.019531 0.089844-0.046223 0.196-0.12016 0.476-0.21094 0.80469-0.18156 0.65737-0.43369 1.5172-0.67969 2.375-0.246 0.85781-0.48648 1.7117-0.6543 2.373-0.083907 0.33065-0.14795 0.6126-0.1875 0.83398-0.019776 0.11069-0.034652 0.20381-0.039062 0.30273-0.0022 0.04946-0.0026144 0.09889 0.0097656 0.17383 0.012386 0.07494 0.014633 0.21349 0.21289 0.35742 0.19826 0.14393 0.33121 0.10522 0.40625 0.09375 0.075036-0.01147 0.12362-0.029425 0.16992-0.046875 0.092613-0.03489 0.17637-0.07769 0.27539-0.13086 0.19805-0.10632 0.44433-0.25508 0.73242-0.4375 0.57618-0.36484 1.3122-0.85916 2.0508-1.3594 0.66328-0.44919 1.2978-0.8815 1.8379-1.2422v-1.1953c-0.11636 0.07531-0.20788 0.13062-0.34375 0.2207-0.57808 0.38326-1.3182 0.88991-2.0547 1.3887-0.73645 0.49874-1.4712 0.99153-2.0273 1.3438-0.042254 0.02676-0.061407 0.035467-0.10156 0.060546 0.011311-0.04575 0.015103-0.067 0.027344-0.11523 0.16199-0.63834 0.40316-1.4904 0.64844-2.3457 0.24528-0.85531 0.49692-1.7159 0.68164-2.3848 0.09236-0.33441 0.1668-0.61955 0.21875-0.83984 0.025975-0.11015 0.044739-0.20339 0.058594-0.28711 0.00693-0.04186 0.012515-0.07994 0.015625-0.12695 0.00311-0.04701 0.022444-0.08545-0.025391-0.23242-0.047835-0.14697-0.083105-0.16892-0.11328-0.20508-0.030177-0.03616-0.05961-0.062047-0.089844-0.091797-0.060474-0.0595-0.13098-0.12356-0.2168-0.19726-0.17163-0.14743-0.40042-0.33298-0.67188-0.54883-0.54291-0.43171-1.2515-0.97864-1.9531-1.5254-0.7016-0.54674-1.3958-1.0952-1.9023-1.5156-0.037713-0.0313-0.052326-0.046288-0.087891-0.076172 0.045887-0.00329 0.066834-0.0065856 0.11523-0.0097656 0.65677-0.0431 1.539-0.080445 2.4277-0.11133 0.88873-0.030881 1.7857-0.057003 2.4785-0.087891 0.34638-0.015444 0.6398-0.032147 0.86523-0.050781 0.11271-0.00932 0.20716-0.016612 0.29102-0.029297 0.041927-0.00634 0.081319-0.013825 0.12695-0.025391 0.045638-0.011567 0.087982-0.0067203 0.21289-0.097656 0.12491-0.090941 0.13121-0.13198 0.15625-0.17188 0.025043-0.039892 0.043568-0.075317 0.0625-0.11328 0.037866-0.075932 0.075598-0.16118 0.11914-0.26562 0.087089-0.20889 0.19318-0.48551 0.31445-0.81055 0.24255-0.65007 0.54481-1.4934 0.84766-2.3301 0.30284-0.83664 0.60653-1.6692 0.84961-2.2812 0.01809-0.04555 0.027511-0.062397 0.044921-0.10547 0.01761 0.043387 0.028585 0.059558 0.046875 0.10547 0.24392 0.6117 0.55149 1.4431 0.85547 2.2793 0.30398 0.83622 0.60618 1.6784 0.84961 2.3281 0.12172 0.32487 0.22708 0.60373 0.31445 0.8125 0.04369 0.10439 0.08312 0.18976 0.12109 0.26562 0.01898 0.03794 0.035457 0.073425 0.060547 0.11328 0.0251 0.039857 0.03317 0.0811 0.1582 0.17188 0.12503 0.09077 0.16919 0.082246 0.21484 0.09375s0.08502 0.019106 0.12695 0.025391c0.07423 0.011127 0.16005 0.020871 0.25586 0.029297h7.4766c0.01096-0.064079 0.015089-0.13971-0.019531-0.24609-0.07585-0.23305-0.20795-0.2796-0.27539-0.31445-0.06744-0.034852-0.11635-0.049379-0.16406-0.0625-0.09542-0.026243-0.18749-0.041408-0.29883-0.056641-0.22268-0.030466-0.50938-0.054311-0.84961-0.076172-0.68045-0.043722-1.5676-0.07767-2.459-0.10742-0.89136-0.029753-1.7859-0.054555-2.4668-0.083984-0.34047-0.014714-0.62754-0.030569-0.82812-0.046875-0.04127-0.00335-0.058607-0.0064157-0.091797-0.0097656-0.01327-0.030077-0.021449-0.044607-0.037109-0.082031-0.077764-0.18573-0.1831-0.45804-0.30274-0.77734-0.23926-0.63861-0.54083-1.4797-0.8457-2.3184-0.30487-0.83866-0.61254-1.6729-0.86523-2.3066-0.12635-0.31685-0.23789-0.58279-0.33594-0.78516-0.04902-0.10118-0.091944-0.18495-0.14648-0.26758-0.02727-0.041312-0.055335-0.083377-0.10938-0.13672-0.05404-0.053341-0.13983-0.16228-0.38477-0.16211zm6.7422 9.8398c-0.45873 0.35797-0.8716 0.68119-1.2773 1h1.6211c0.16627-0.12986 0.29646-0.23366 0.46484-0.36523 0.29117-0.22754 0.52096-0.41541 0.79883-0.63477h-1.6074zm-6.7168 2v1h9v-1h-9zm0 2v1h9v-1h-8-1zm0 2v1h9v-1h-8-1zm0 2v1h9v-1h-8-1z" style="fill-opacity:.5;fill:currentColor" class="ColorScheme-Background"/>
</svg>
