<?xml version="1.0" encoding="UTF-8" standalone="no"?>
<svg
   xmlns:dc="http://purl.org/dc/elements/1.1/"
   xmlns:cc="http://creativecommons.org/ns#"
   xmlns:rdf="http://www.w3.org/1999/02/22-rdf-syntax-ns#"
   xmlns:svg="http://www.w3.org/2000/svg"
   xmlns="http://www.w3.org/2000/svg"
   id="svg11"
   version="1.1"
   height="24"
   width="24">
  <defs
     id="defs3">
    <style
       type="text/css"
       id="current-color-scheme">.ColorScheme-Text {
				color:#090d11;
			}
			.ColorScheme-Background{
				color:#ffffff;
			}</style>
  </defs>
  <metadata
     id="metadata5">
    <rdf:RDF>
      <cc:Work
         rdf:about="">
        <dc:format>image/svg+xml</dc:format>
        <dc:type
           rdf:resource="http://purl.org/dc/dcmitype/StillImage" />
        <dc:title></dc:title>
      </cc:Work>
    </rdf:RDF>
  </metadata>
  <path
     id="path9"
     style="fill-opacity:.75;fill:currentColor"
     d="m12 3c-2.7614 0-5 2.2386-5 5v3.6914a5.9999 5.9999 0 0 0-1 3.3086 5.9999 5.9999 0 0 0 6 6 5.9999 5.9999 0 0 0 6-6 5.9999 5.9999 0 0 0-1-3.3105v-3.6895c0-2.7614-2.2386-5-5-5zm0 1c2.2247 0 4 1.7753 4 4v2.5352a5.9999 5.9999 0 0 0-4-1.5352 5.9999 5.9999 0 0 0-4 1.5391v-2.5391c0-2.2247 1.7753-4 4-4zm0 10c0.554 0 1 0.446 1 1v2c0 0.1864-0.064 0.3509-0.1523 0.5 0.088 0.1491 0.1523 0.3136 0.1523 0.5 0 0.554-0.446 1-1 1s-1-0.446-1-1c0-0.1864 0.064-0.3509 0.1523-0.5-0.088-0.1491-0.1523-0.3136-0.1523-0.5v-2c0-0.554 0.446-1 1-1z"
     class="ColorScheme-Text" />
</svg>
