<?xml version="1.0" encoding="UTF-8"?>
<!-- Created with Inkscape (http://www.inkscape.org/) -->
<svg width="24" height="24" version="1.1" xmlns="http://www.w3.org/2000/svg" xmlns:cc="http://creativecommons.org/ns#" xmlns:dc="http://purl.org/dc/elements/1.1/" xmlns:rdf="http://www.w3.org/1999/02/22-rdf-syntax-ns#" xmlns:xlink="http://www.w3.org/1999/xlink">
	<metadata>
		<rdf:RDF>
			<cc:Work rdf:about="">
				<dc:format>image/svg+xml</dc:format>
				<dc:type rdf:resource="http://purl.org/dc/dcmitype/StillImage"/>
				<dc:title/>
			</cc:Work>
		</rdf:RDF>
	</metadata>
	<g transform="translate(9622 -1039)">
		<path d="m-9609 1045 5.218 5.218 1.706-1.706-1.881-1.882 2.388-2.388-1.433-1.433-2.388 2.388-1.904-1.903zm-7.18 10.28 0.052 0.8594-1.499 1.499 1.206 1.206 1.477-1.521 0.022 0.022 0.9696-0.059 7.416-7.416-2.116-2.116z" color="#000000" fill="#27303a" fill-opacity=".7533" style="block-progression:tb;text-indent:0;text-transform:none"/>
		<path d="m-9603 1041-0.875 0.875-1.531 1.531-1.062-1.062-0.8438-0.8437-0.8437 0.8437-1.719 1.719-0.8437 0.8437 0.8437 0.8438 0.7188 0.7187-0.3438 0.3438-7.531 7.531-0.4063 0.375 0.062 0.5313v0.3125l-1.125 1.125-0.8437 0.8437 0.8437 0.875 1.219 1.188 0.875 0.875 0.8437-0.875 1.125-1.188 0.5313-0.031h0.4687l0.3125-0.3438 7.438-7.406 0.3438-0.3438 0.6875 0.6875 0.875 0.8438 0.8437-0.8438 1.688-1.719 0.8438-0.8438-0.8438-0.8437-1.031-1.031 1.562-1.531 0.8437-0.8438-0.8437-0.875-1.438-1.406-0.8438-0.875zm-0.031 1.719 1.438 1.438-2.375 2.375 1.875 1.875-1.719 1.719-5.219-5.219 1.719-1.719 1.906 1.906 2.375-2.375zm-5.656 4.938 2.125 2.125-7.406 7.406-0.9688 0.062-0.031-0.031-1.469 1.531-1.219-1.219 1.5-1.5-0.062-0.8437 7.531-7.531z" color="#000000" fill="#f1f3f5" fill-opacity=".9029" style="block-progression:tb;text-indent:0;text-transform:none"/>
	</g>
</svg>
