<?xml version="1.0" encoding="UTF-8"?>
<svg id="g" width="24" height="24" version="1.1" xmlns="http://www.w3.org/2000/svg" xmlns:cc="http://creativecommons.org/ns#" xmlns:dc="http://purl.org/dc/elements/1.1/" xmlns:rdf="http://www.w3.org/1999/02/22-rdf-syntax-ns#">
	<metadata id="a">
		<rdf:RDF>
			<cc:Work rdf:about="">
				<dc:format>image/svg+xml</dc:format>
				<dc:type rdf:resource="http://purl.org/dc/dcmitype/StillImage"/>
			</cc:Work>
		</rdf:RDF>
	</metadata>
	<defs>
		<style id="current-color-scheme" type="text/css">.ColorScheme-Text {color:#090d11;}.ColorScheme-Background{color:#ffffff;}</style>
	</defs>
	<path id="f" class="ColorScheme-Text" d="m19.988 4c-0.03328 2.944e-4 -0.066519 0.0022494-0.099609 0.0058594-0.22538 0.02538-0.43544 0.12662-0.5957 0.28711l-3 3c-0.05027 0.051687-0.094803 0.10866-0.13281 0.16992l-1.5605-1.5605c-0.09375-0.093773-0.22092-0.14646-0.35352-0.14648-0.1326 1.99e-5 -0.25976 0.052716-0.35352 0.14648-0.19521 0.19525-0.19521 0.51178 0 0.70703l0.68555 0.68555c-0.06889 0.02197-0.13219 0.058621-0.18555 0.10742l-9.2461 9.2441c-0.093768 0.093756-0.14646 0.22092-0.14648 0.35352v2.5c2.76e-5 0.27613 0.22387 0.49997 0.5 0.5h2.5c0.1326-2.5e-5 0.25976-0.052724 0.35352-0.14648l9.2461-9.2441c0.05019-0.05109 0.088832-0.11237 0.11328-0.17969l0.67969 0.67969c0.19525 0.19521 0.51178 0.19521 0.70703 0 0.19521-0.19525 0.19521-0.51178 0-0.70703l-1.5625-1.5625c0.06126-0.038016 0.11824-0.082549 0.16992-0.13281l3-3c0.39042-0.39051 0.39042-1.0236 0-1.4141-0.19037-0.19044-0.44949-0.29607-0.71875-0.29297zm-4.7754 3.9297 1.8652 1.8652c-0.06889 0.02197-0.13219 0.058621-0.18555 0.10742l-2.0977 2.0977h-3.5859l3.8906-3.8906c0.05019-0.051091 0.088832-0.11237 0.11328-0.17969zm-8.7129 10.07c0.27614 0 0.5 0.22386 0.5 0.5s-0.22386 0.5-0.5 0.5-0.5-0.22386-0.5-0.5 0.22386-0.5 0.5-0.5zm-1.0254 3c-0.26418 0.013392-0.47461 0.23249-0.47461 0.5 0 0.27614 0.22386 0.5 0.5 0.5s0.5-0.22386 0.5-0.5-0.22386-0.5-0.5-0.5c-0.0086294 0-0.016869-4.32e-4 -0.025391 0z" style="fill-opacity:.75;fill:currentColor"/>
</svg>
