<?xml version="1.0" encoding="UTF-8"?>
<svg id="a" width="24" height="24" version="1.1" xmlns="http://www.w3.org/2000/svg" xmlns:cc="http://creativecommons.org/ns#" xmlns:dc="http://purl.org/dc/elements/1.1/" xmlns:rdf="http://www.w3.org/1999/02/22-rdf-syntax-ns#">
	<metadata id="d">
		<rdf:RDF>
			<cc:Work rdf:about="">
				<dc:format>image/svg+xml</dc:format>
				<dc:type rdf:resource="http://purl.org/dc/dcmitype/StillImage"/>
				<dc:title/>
			</cc:Work>
		</rdf:RDF>
	</metadata>
	<defs id="f">
		<style id="current-color-scheme" type="text/css">.ColorScheme-Text {color:#090d11;}.ColorScheme-Background{color:#ffffff;}</style>
	</defs>
	<path id="b" class="ColorScheme-Text" d="m12 10c-1.1046 0-2 0.89543-2 2s0.89543 2 2 2 2-0.89543 2-2-0.89543-2-2-2z" style="fill-opacity:.75;fill:currentColor"/>
	<path id="e" class="ColorScheme-Text" d="m16.5 12.001c-1.85e-4 1.5782-0.83376 3.0784-2.2504 3.8963-1.7639 1.0184-3.9918 0.72505-5.432-0.71513l-6.318 6.318m4.9996-9.4991c-4.203e-4 -1.5788 0.83325-3.0798 2.2504-3.898 1.7639-1.0184 3.9918-0.72505 5.432 0.71513l6.318-6.318" style="fill:none;stroke-opacity:.75;stroke:currentColor"/>
	<path id="c" class="ColorScheme-Background" d="m17.464 12.001c-2.24e-4 1.9162-1.0123 3.7377-2.7324 4.7308-1.8671 1.078-4.1624 0.94549-5.8789-0.2648l-5.6512 5.7453m3.3338-10.211c-5.104e-4 -1.9169 1.0117-3.7394 2.7324-4.7329 1.8047-1.0419 4.0095-0.95299 5.705 0.14712l0.11338 0.08294 5.7338-5.7437m-8.8202 7.7455c-1.3807 0-2.5 1.1193-2.5 2.5s1.1193 2.5 2.5 2.5 2.5-1.1193 2.5-2.5-1.1193-2.5-2.5-2.5z" style="fill:none;stroke-opacity:.5;stroke:currentColor"/>
</svg>
