<?xml version="1.0" encoding="UTF-8"?>
<!-- Created with Inkscape (http://www.inkscape.org/) -->
<svg width="24" height="24" version="1.1" xmlns="http://www.w3.org/2000/svg" xmlns:cc="http://creativecommons.org/ns#" xmlns:dc="http://purl.org/dc/elements/1.1/" xmlns:rdf="http://www.w3.org/1999/02/22-rdf-syntax-ns#">
	<defs>
		<radialGradient id="b" cx="8" cy="11.997" r="9.3438" gradientTransform="matrix(0 -1 -.82441 0 -9362.7 4861.5)" gradientUnits="userSpaceOnUse">
			<stop stop-color="#ffffff" stop-opacity=".74858" offset="0"/>
			<stop stop-color="#ffffff" stop-opacity=".60511" offset="1"/>
		</radialGradient>
		<radialGradient id="a" cx="-9416.6" cy="5035.4" r="9" gradientTransform="matrix(0 -1.3333 -1.1851 0 -3402.7 -7697.8)" gradientUnits="userSpaceOnUse">
			<stop stop-color="#213851" stop-opacity=".9059" offset="0"/>
			<stop stop-color="#27303a" stop-opacity="0" offset="1"/>
		</radialGradient>
	</defs>
	<metadata>
		<rdf:RDF>
			<cc:Work rdf:about="">
				<dc:format>image/svg+xml</dc:format>
				<dc:type rdf:resource="http://purl.org/dc/dcmitype/StillImage"/>
				<dc:title/>
			</cc:Work>
		</rdf:RDF>
	</metadata>
	<g transform="translate(9384.3 -4838.2)">
		<path d="m-9378.8 4841.2c-0.8224 0-1.5 0.6776-1.5 1.5v15c0 0.8223 0.6776 1.5 1.5 1.5h6.5v-1h-6.5c-0.2857 0-0.5-0.2144-0.5-0.5v-15c0-0.2857 0.2143-0.5 0.5-0.5h13c0.2856 0 0.5 0.2143 0.5 0.5v8.5h1v-8.5c0-0.8224-0.6777-1.5-1.5-1.5zm7.5 11v7l7-7z" color="#000000" color-rendering="auto" dominant-baseline="auto" fill="#090d11" fill-opacity=".76621" image-rendering="auto" shape-rendering="auto" solid-color="#000000" style="font-feature-settings:normal;font-variant-alternates:normal;font-variant-caps:normal;font-variant-ligatures:normal;font-variant-numeric:normal;font-variant-position:normal;isolation:auto;mix-blend-mode:normal;paint-order:normal;shape-padding:0;text-decoration-color:#000000;text-decoration-line:none;text-decoration-style:solid;text-indent:0;text-orientation:mixed;text-transform:none;white-space:normal"/>
		<path d="m-9378.8 4841.2c-0.8224 0-1.5 0.6776-1.5 1.5v15c0 0.8223 0.6776 1.5 1.5 1.5h6.5v-1h-6.5c-0.2857 0-0.5-0.2144-0.5-0.5v-15c0-0.2857 0.2143-0.5 0.5-0.5h13c0.2856 0 0.5 0.2143 0.5 0.5v8.5h1v-8.5c0-0.8224-0.6777-1.5-1.5-1.5zm7.5 11v7l7-7z" color="#000000" color-rendering="auto" dominant-baseline="auto" fill="url(#a)" fill-opacity=".75328" image-rendering="auto" shape-rendering="auto" solid-color="#000000" style="font-feature-settings:normal;font-variant-alternates:normal;font-variant-caps:normal;font-variant-ligatures:normal;font-variant-numeric:normal;font-variant-position:normal;isolation:auto;mix-blend-mode:normal;paint-order:normal;shape-padding:0;text-decoration-color:#000000;text-decoration-line:none;text-decoration-style:solid;text-indent:0;text-orientation:mixed;text-transform:none;white-space:normal"/>
		<path d="m-9379.8 4840.2c-0.8224 0-1.5 0.6776-1.5 1.5v17c0 0.8223 0.6776 1.5 1.5 1.5h8.5v-0.01c0.2481 0 0.5012-0.079 0.707-0.2852l7-7c0.6296-0.63 0.1836-1.7067-0.707-1.707h-7c-0.5523 1e-4 -0.9999 0.4478-1 1v6h1v-6h7l-7 7h-8.5c-0.2857 0-0.5-0.2143-0.5-0.5v-17c0-0.2856 0.2143-0.5 0.5-0.5h15c0.2856 0 0.5 0.2144 0.5 0.5v8.5h1v-8.5c0-0.8223-0.6777-1.5-1.5-1.5h-15z" color="#000000" color-rendering="auto" dominant-baseline="auto" fill="url(#b)" fill-opacity=".99858" image-rendering="auto" shape-rendering="auto" solid-color="#000000" style="font-feature-settings:normal;font-variant-alternates:normal;font-variant-caps:normal;font-variant-ligatures:normal;font-variant-numeric:normal;font-variant-position:normal;isolation:auto;mix-blend-mode:normal;paint-order:normal;shape-padding:0;text-decoration-color:#000000;text-decoration-line:none;text-decoration-style:solid;text-indent:0;text-orientation:mixed;text-transform:none;white-space:normal"/>
		<circle cx="-9379.3" cy="4842.2" r="3" fill="#feab00" style="paint-order:normal"/>
	</g>
</svg>
