<?xml version="1.0" encoding="UTF-8"?>
<svg id="a" width="24" height="24" version="1.1" xmlns="http://www.w3.org/2000/svg" xmlns:cc="http://creativecommons.org/ns#" xmlns:dc="http://purl.org/dc/elements/1.1/" xmlns:rdf="http://www.w3.org/1999/02/22-rdf-syntax-ns#">
	<metadata id="d">
		<rdf:RDF>
			<cc:Work rdf:about="">
				<dc:format>image/svg+xml</dc:format>
				<dc:type rdf:resource="http://purl.org/dc/dcmitype/StillImage"/>
			</cc:Work>
		</rdf:RDF>
	</metadata>
	<defs id="f">
		<style id="current-color-scheme" type="text/css">.ColorScheme-Text {color:#090d11;}.ColorScheme-Background{color:#ffffff;}</style>
	</defs>
	<path id="b" class="ColorScheme-Text" d="m21.371 2.0176a0.5 0.5 0 0 0-0.22461 0.12891l-6.0234 6.0234c-1.593-1.2941-3.8158-1.5435-5.623-0.5-1.392 0.8037-2.2798 2.2032-2.4648 3.7305a0.5 0.5 0 0 0 0.43555 0.55664 0.5 0.5 0 0 0 0.55664-0.43555c0.14794-1.2213 0.85635-2.3418 1.9727-2.9863 1.57-0.90646 3.5462-0.64516 4.8281 0.63672a0.50005 0.50005 0 0 0 0.70703 0l6.3184-6.3184a0.5 0.5 0 0 0 0-0.70703 0.5 0.5 0 0 0-0.48242-0.12891zm-9.3711 7.9824c-1.1046 0-2 0.89543-2 2s0.89543 2 2 2 2-0.89543 2-2-0.89543-2-2-2zm4.5273 2.0527a0.5 0.5 0 0 0-0.55664 0.43555c-0.15016 1.2181-0.85694 2.3335-1.9707 2.9766-1.57 0.90646-3.5462 0.64516-4.8281-0.63672a0.50005 0.50005 0 0 0-0.70703 0l-6.3184 6.3184a0.5 0.5 0 0 0 0 0.70703 0.5 0.5 0 0 0 0.70703 0l6.0234-6.0234c1.593 1.2943 3.8157 1.5435 5.623 0.5 1.3889-0.80186 2.2751-2.1955 2.4629-3.7188a0.5 0.5 0 0 0-0.43555-0.55859z" style="fill-opacity:.75;fill:currentColor"/>
</svg>
