<?xml version="1.0" encoding="UTF-8"?>
<svg id="c" width="24" height="24" version="1.1" xmlns="http://www.w3.org/2000/svg" xmlns:cc="http://creativecommons.org/ns#" xmlns:dc="http://purl.org/dc/elements/1.1/" xmlns:rdf="http://www.w3.org/1999/02/22-rdf-syntax-ns#">
	<metadata id="a">
		<rdf:RDF>
			<cc:Work rdf:about="">
				<dc:format>image/svg+xml</dc:format>
				<dc:type rdf:resource="http://purl.org/dc/dcmitype/StillImage"/>
			</cc:Work>
		</rdf:RDF>
	</metadata>
	<defs>
		<style id="current-color-scheme" type="text/css">.ColorScheme-Text {color:#090d11;}.ColorScheme-Background{color:#ffffff;}</style>
	</defs>
	<path class="ColorScheme-Background" d="m12 2c-5.5229 0-10 4.4771-10 10s4.4771 10 10 10 10-4.4771 10-10-4.4771-10-10-10zm0 1c4.9706 0 9 4.0294 9 9 0 4.9706-4.0294 9-9 9-4.9706 0-9-4.0294-9-9 0-4.9706 4.0294-9 9-9zm-0.5 2c-0.27614 0-0.5 0.22386-0.5 0.5v7c0 0.27614 0.22386 0.5 0.5 0.5s0.5-0.22386 0.5-0.5v-7c0-0.27614-0.22386-0.5-0.5-0.5zm1 8c-0.27614 0-0.5 0.22386-0.5 0.5s0.22386 0.5 0.5 0.5h5c0.27614 0 0.5-0.22386 0.5-0.5s-0.22386-0.5-0.5-0.5z" style="fill-opacity:.5;fill:currentColor"/>
	<path id="b" class="ColorScheme-Text" d="m12 3c-4.9706 0-9 4.0294-9 9 0 4.9706 4.0294 9 9 9 4.9706 0 9-4.0294 9-9 0-4.9706-4.0294-9-9-9zm0 1c4.4183 0 8 3.5817 8 8 0 4.4183-3.5817 8-8 8-4.4183 0-8-3.5817-8-8 0-4.4183 3.5817-8 8-8zm0.5 1.5c-0.27614 0-0.5 0.22386-0.5 0.5v6.5c0 0.27614 0.22386 0.5 0.5 0.5 0.07171-0.0012 0.14232-0.01789 0.20703-0.04883 0.09468 0.03077 0.19343 0.04723 0.29297 0.04883h3.5c0.55228 0 1-0.44772 1-1s-0.44772-1-1-1h-3.5v-5c0-0.27614-0.22386-0.5-0.5-0.5z" style="fill-opacity:.75;fill:currentColor"/>
</svg>
