<?xml version="1.0" encoding="UTF-8"?>
<!-- Created with Inkscape (http://www.inkscape.org/) -->
<svg width="24" height="24" version="1.1" xmlns="http://www.w3.org/2000/svg" xmlns:cc="http://creativecommons.org/ns#" xmlns:dc="http://purl.org/dc/elements/1.1/" xmlns:rdf="http://www.w3.org/1999/02/22-rdf-syntax-ns#">
	<metadata>
		<rdf:RDF>
			<cc:Work rdf:about="">
				<dc:format>image/svg+xml</dc:format>
				<dc:type rdf:resource="http://purl.org/dc/dcmitype/StillImage"/>
			</cc:Work>
		</rdf:RDF>
	</metadata>
	<defs>
		<style id="current-color-scheme" type="text/css">.ColorScheme-Text {color:#090d11;}.ColorScheme-Background{color:#ffffff;}</style>
	</defs>
	<path d="m14 4-6.8992 6.8992 6.9492 6.9512 6.8992-6.9012zm-7.6562 7.6562-1.4141 1.4141c-0.39174 0.39174-0.39174 1.0223 0 1.4141l4.5137 4.5156h9.0058c0.277 0 0.5-0.223 0.5-0.5s-0.22404-0.47606-0.5-0.5h-5.7637zm9.1562 8.3438c-0.277 0-0.5 0.223-0.5 0.5s0.223 0.5 0.5 0.5h3c0.277 0 0.5-0.223 0.5-0.5s-0.223-0.5-0.5-0.5z" class="ColorScheme-Text" style="fill-opacity:.75;fill:currentColor;"/>
	<path d="m14 2.5859-9.7773 9.7773c-0.77115 0.77115-0.77115 2.057 0 2.8281l4.8066 4.8086c3.8222-0.4197 12.192-0.75632 12.715-0.76172 0.06615-6.83e-4 0.11914-0.05299 0.11914-0.11914s-0.05299-0.11914-0.11914-0.11914h-12.301l-4.5137-4.5156c-0.19587-0.1959-0.29297-0.45145-0.29297-0.70703 0-0.12779 0.023298-0.25467 0.072266-0.375s0.12277-0.2341 0.2207-0.33203l1.4141-1.4141 6.3418 6.3438h2.6289l7.0488-7.0508zm0 1.4141 6.9492 6.9492-6.8988 6.9008-6.9492-6.9512zm1.4219 17c-0.19044 0-0.34375 0.15331-0.34375 0.34375s0.15382 0.35766 0.34375 0.34375l6.2148-0.45508c0.06415-0.0047 0.11719-0.05287 0.11719-0.11719s-0.05287-0.11523-0.11719-0.11523h-6.1367z" class="ColorScheme-Background" style="fill-opacity:.5;fill:currentColor;"/>
</svg>
