<?xml version="1.0" encoding="UTF-8"?>
<svg id="h" width="24" height="24" version="1.1" xmlns="http://www.w3.org/2000/svg" xmlns:cc="http://creativecommons.org/ns#" xmlns:dc="http://purl.org/dc/elements/1.1/" xmlns:rdf="http://www.w3.org/1999/02/22-rdf-syntax-ns#">
	<metadata id="a">
		<rdf:RDF>
			<cc:Work rdf:about="">
				<dc:format>image/svg+xml</dc:format>
				<dc:type rdf:resource="http://purl.org/dc/dcmitype/StillImage"/>
			</cc:Work>
		</rdf:RDF>
	</metadata>
	<defs>
		<style id="current-color-scheme" type="text/css">.ColorScheme-Text {color:#090d11;}.ColorScheme-Background{color:#ffffff;}</style>
	</defs>
	<path class="ColorScheme-Text" transform="matrix(-1.4512 0 0 -1.4528 .39009 1.1526)" d="m-4.1504-13.494a0.34438 0.34438 0 0 0-0.22656 0.01172l-3.623 1.4629-3.623-1.4629a0.34438 0.34438 0 0 0-0.47266 0.34375l0.27148 3.8965-2.5098 2.9941a0.34438 0.34438 0 0 0 0.17969 0.55469l3.791 0.94531 2.0723 3.3125a0.34438 0.34438 0 0 0 0.58203 0l2.0723-3.3125 3.791-0.94531a0.34438 0.34438 0 0 0 0.17969-0.55469l-2.5098-2.9941 0.27148-3.8965a0.34438 0.34438 0 0 0-0.24609-0.35547zm-7.2188 0.85742 3.2402 1.3066a0.34438 0.34438 0 0 0 0.25781 0l3.2402-1.3066-0.24219 3.4844a0.34438 0.34438 0 0 0 0.080078 0.24609l2.2461 2.6777-3.3926 0.8457a0.34438 0.34438 0 0 0-0.20703 0.15234l-1.8535 2.9648-1.8535-2.9648a0.34438 0.34438 0 0 0-0.20703-0.15234l-3.3926-0.8457 2.2461-2.6777a0.34438 0.34438 0 0 0 0.08008-0.24609z" style="fill-opacity:.75;fill:currentColor"/>
</svg>
