<?xml version="1.0" encoding="UTF-8"?>
<!-- Created with Inkscape (http://www.inkscape.org/) -->
<svg width="24" height="24" version="1.0" xmlns="http://www.w3.org/2000/svg" xmlns:cc="http://creativecommons.org/ns#" xmlns:dc="http://purl.org/dc/elements/1.1/" xmlns:rdf="http://www.w3.org/1999/02/22-rdf-syntax-ns#">
	<metadata>
		<rdf:RDF>
			<cc:Work rdf:about="">
				<dc:format>image/svg+xml</dc:format>
				<dc:type rdf:resource="http://purl.org/dc/dcmitype/StillImage"/>
				<dc:title/>
			</cc:Work>
		</rdf:RDF>
	</metadata>
	<defs>
		<radialGradient id="b" cx="-2.1682" cy="16" r="9.75" gradientTransform="matrix(1.641,0,0,1.641,15.558,-12.256)" gradientUnits="userSpaceOnUse">
			<stop stop-color="#ffffff" stop-opacity=".74858" offset="0"/>
			<stop stop-color="#ffffff" stop-opacity=".60511" offset="1"/>
		</radialGradient>
		<radialGradient id="a" cx="308.74" cy="-102.01" r="7.254" gradientTransform="matrix(2.9709,0,0,2.8752,-905.26,305.29)" gradientUnits="userSpaceOnUse">
			<stop stop-color="#213851" stop-opacity=".9059" offset="0"/>
			<stop stop-color="#27303a" stop-opacity="0" offset="1"/>
		</radialGradient>
	</defs>
	<path d="m18 6v2h-3.4688l-4.0938 8.75-0.15625 0.25h-4.2812v-2h-1v5h1v-2h5.0312l0.15625-0.25 4.0938-8.75h2.7188v2h1v-5z" color="#000000" fill="url(#b)" fill-opacity=".99858" style="paint-order:normal;text-indent:0;text-transform:none"/>
	<path d="m20 4v2h-1v3h1v2h1v-7zm-6.2812 3-0.15625 0.25-4.0938 8.75h-3.4688v1h4.2812l0.15625-0.25 4.0938-8.75h3.4688v-1h-4zm-10.719 6v7h1v-2h1v-3h-1v-2z" color="#000000" fill="#090d11" fill-opacity=".76621" style="paint-order:normal"/>
	<path d="m20 4v2h-1v3h1v2h1v-7zm-6.2812 3-0.15625 0.25-4.0938 8.75h-3.4688v1h4.2812l0.15625-0.25 4.0938-8.75h3.4688v-1h-4zm-10.719 6v7h1v-2h1v-3h-1v-2z" color="#000000" fill="url(#a)" style="paint-order:normal"/>
</svg>
