<?xml version="1.0" encoding="UTF-8"?>
<!-- Created with Inkscape (http://www.inkscape.org/) -->
<svg width="24" height="24" version="1.1" xmlns="http://www.w3.org/2000/svg" xmlns:cc="http://creativecommons.org/ns#" xmlns:dc="http://purl.org/dc/elements/1.1/" xmlns:rdf="http://www.w3.org/1999/02/22-rdf-syntax-ns#">
	<defs>
		<style id="current-color-scheme" type="text/css">.ColorScheme-Text {
			color:#090d11;
			}
			.ColorScheme-Background{
			color:#ffffff;
			}</style>
	</defs>
	<metadata>
		<rdf:RDF>
			<cc:Work rdf:about="">
				<dc:format>image/svg+xml</dc:format>
				<dc:type rdf:resource="http://purl.org/dc/dcmitype/StillImage"/>
				<dc:title/>
			</cc:Work>
		</rdf:RDF>
	</metadata>
	<path class="ColorScheme-Background" d="m10.049 5.5254-7.2598 6.4746h11.176c1.2813 0 2.1129 0.01877 3.1328 0.48828 1.0199 0.46952 2.2666 1.4307 4.2129 3.377l0.70703-0.70703c-1.9797-1.9797-3.2946-3.0232-4.5-3.5781-1.2054-0.55488-2.2603-0.58008-3.5527-0.58008h-8.5527l3.6367-3.2441v2.2031h1z" style="fill-opacity:.5;fill:currentColor"/>
	<path class="ColorScheme-Text" d="m9.0158 7.793-6.207 6.207h8.8549c3.7592 0 5.6892-0.16096 9.1587 3.1953l0.54242 7.88e-4c-4.5767-5.191-6.3131-5.1961-9.2817-5.1961h-5.8603l1.793-1.793v0.75195h1z" style="fill-opacity:.75;fill:currentColor"/>
</svg>
