<?xml version="1.0" encoding="UTF-8"?>
<svg id="a" width="24" height="24" version="1.1" xmlns="http://www.w3.org/2000/svg" xmlns:cc="http://creativecommons.org/ns#" xmlns:dc="http://purl.org/dc/elements/1.1/" xmlns:rdf="http://www.w3.org/1999/02/22-rdf-syntax-ns#">
	<metadata id="d">
		<rdf:RDF>
			<cc:Work rdf:about="">
				<dc:format>image/svg+xml</dc:format>
				<dc:type rdf:resource="http://purl.org/dc/dcmitype/StillImage"/>
				<dc:title/>
			</cc:Work>
		</rdf:RDF>
	</metadata>
	<defs>
		<style id="current-color-scheme" type="text/css">.ColorScheme-Text {color:#090d11;}.ColorScheme-Background{color:#ffffff;}</style>
	</defs>
	<g id="b" transform="translate(9384.3 -4838.2)">
		<path id="c" transform="translate(-9384.3 4838.2)" d="m12 2.4062-4.2812 5.5938h1.2812l3-4 3 4h1.2812zm-2 5.5938v7h1v-7zm3 0v7h1v-7zm-9.5059 3.6953c-0.49829 9.9e-5 -0.68988 0.64929-0.27148 0.91992l1.7754 1.1855v6.6992c2.76e-5 0.27613 0.22387 0.49997 0.5 0.5h13.004c0.27613-2.8e-5 0.49997-0.22387 0.5-0.5v-6.6992l1.7754-1.1855c0.56934-0.3668 0.0029-1.2165-0.55469-0.83203l-2 1.334c-0.13835 0.09318-0.22113 0.24921-0.2207 0.41602v6.4668h-12.004v-6.4668c4.225e-4 -0.1668-0.082354-0.32283-0.2207-0.41602l-2-1.334c-0.083344-0.05726-0.18209-0.0879-0.2832-0.08789z" style="fill-opacity:.5;fill:currentColor" class="ColorScheme-Background"/>
		<path id="e" transform="translate(-9384.3 4838.2)" d="m12 4-3 4h2v7h2v-7h2zm-8.5059 6.4961c-0.49829 9.9e-5 -0.68988 0.64929-0.27148 0.91992l2.7754 1.8516v6.2324c2.76e-5 0.27613 0.22387 0.49997 0.5 0.5h11.004c0.27613-2.8e-5 0.49997-0.22387 0.5-0.5v-6.2324l2.7754-1.8516c0.56929-0.36681 0.0029-1.2164-0.55469-0.83203l-3 2c-0.13835 0.093182-0.22113 0.24921-0.2207 0.41602v6h-10.004v-6c4.228e-4 -0.1668-0.082354-0.32283-0.2207-0.41602l-3-2c-0.083344-0.05726-0.18209-0.0879-0.2832-0.08789z" style="fill-opacity:.75;fill:currentColor" class="ColorScheme-Text"/>
	</g>
</svg>
