<?xml version="1.0" encoding="UTF-8"?>
<svg id="a" width="24" height="24" version="1.1" xmlns="http://www.w3.org/2000/svg" xmlns:cc="http://creativecommons.org/ns#" xmlns:dc="http://purl.org/dc/elements/1.1/" xmlns:rdf="http://www.w3.org/1999/02/22-rdf-syntax-ns#">
	<metadata id="c">
		<rdf:RDF>
			<cc:Work rdf:about="">
				<dc:format>image/svg+xml</dc:format>
				<dc:type rdf:resource="http://purl.org/dc/dcmitype/StillImage"/>
				<dc:title/>
			</cc:Work>
		</rdf:RDF>
	</metadata>
	<defs>
		<style id="current-color-scheme" type="text/css">.ColorScheme-Text {color:#090d11;}.ColorScheme-Background{color:#ffffff;}</style>
	</defs>
	<path id="b" d="m12 3.9591c-4.429 0-8.0409 3.6117-8.0409 8.0409 0 4.429 3.6118 8.0409 8.0409 8.0409 4.429 0 8.0409-3.6119 8.0409-8.0409 0-4.4292-3.6119-8.0409-8.0409-8.0409zm-3 5.0409h2v2h-2zm4 0h2v2h-2zm-5.5 4h1.0625c0.4319 1.4528 1.8462 2 3.4375 2s3.0056-0.5472 3.4375-2h1.0625c-0.4642 2.0053-2.3654 3.5-4.5 3.5s-4.0358-1.4947-4.5-3.5z" style="fill-opacity:.75;fill:currentColor" class="ColorScheme-Text"/>
	<path id="d" d="m12 2.8126c-5.0459 0-9.1875 4.1414-9.1875 9.1874 0 5.0459 4.1416 9.1875 9.1875 9.1875 5.0459 0 9.1875-4.1416 9.1875-9.1875 0-5.046-4.1416-9.1874-9.1875-9.1874zm0 1.1465c4.429 0 8.0409 3.6117 8.0409 8.0409 0 4.429-3.6119 8.0409-8.0409 8.0409-4.429 0-8.0409-3.6119-8.0409-8.0409 0-4.4292 3.6118-8.0409 8.0409-8.0409zm-3 5.0409v2h2v-2zm4 0v2h2v-2zm-5.5 4c0.46419 2.0053 2.3654 3.5 4.5 3.5s4.0358-1.4947 4.5-3.5h-1.0625c-0.4319 1.4528-1.8462 2-3.4375 2s-3.0056-0.5472-3.4375-2z" style="fill-opacity:.5;fill:currentColor" class="ColorScheme-Background"/>
</svg>
