<?xml version="1.0" encoding="UTF-8"?>
<!-- Created with Inkscape (http://www.inkscape.org/) -->
<svg width="24" height="24" version="1.1" xmlns="http://www.w3.org/2000/svg" xmlns:cc="http://creativecommons.org/ns#" xmlns:dc="http://purl.org/dc/elements/1.1/" xmlns:rdf="http://www.w3.org/1999/02/22-rdf-syntax-ns#">
	<defs>
		<radialGradient id="a" cx="8" cy="15.334" r="8.5006" gradientTransform="matrix(1.8013 0 0 2.2249 -6.4107 -18.117)" gradientUnits="userSpaceOnUse">
			<stop stop-color="#213851" stop-opacity=".9059" offset="0"/>
			<stop stop-color="#27303a" stop-opacity="0" offset="1"/>
		</radialGradient>
		<radialGradient id="b" cx="37.431" cy="7.9865" r="8.7344" gradientTransform="matrix(2.5044,0,0,2.5044,-85.305,-4.0019)" gradientUnits="userSpaceOnUse">
			<stop stop-color="#ffffff" stop-opacity=".74858" offset="0"/>
			<stop stop-color="#ffffff" stop-opacity=".60511" offset="1"/>
		</radialGradient>
	</defs>
	<metadata>
		<rdf:RDF>
			<cc:Work rdf:about="">
				<dc:format>image/svg+xml</dc:format>
				<dc:type rdf:resource="http://purl.org/dc/dcmitype/StillImage"/>
				<dc:title/>
			</cc:Work>
		</rdf:RDF>
	</metadata>
	<path d="m13.561 2.0059c-0.44128 0.024111-0.78295 0.13451-0.97266 0.32422l-8.2031 8.2012c-0.75883 0.75883 0.47156 3.2196 2.748 5.4961 1.3599 1.3599 2.7779 2.3338 3.8672 2.7461v1.7266c0 0.554-0.45028 0.93128-1 1l-4 0.5c-0.54972 0.06872-1 0.446-1 1h14c0-0.554-0.44875-0.94488-1-1l-5-0.5c-0.55125-0.05513-1-0.446-1-1v-1.5215c0.25811-0.0056 0.48309-0.05731 0.62891-0.20312l8.2031-8.2012c0.75883-0.75883 0.25696-3.9481-2.0195-6.2246-1.7074-1.7074-3.9281-2.4161-5.252-2.3438zm-6.9492 9.2949a3.8862 1.2954 45 0 1 3.2695 1.9785 3.8862 1.2954 45 0 1 1.832 3.6641 3.8862 1.2954 45 0 1-3.6641-1.832 3.8862 1.2954 45 0 1-1.832-3.6641 3.8862 1.2954 45 0 1 0.39453-0.14648z" fill="#090d11" fill-opacity=".76621" style="font-variant-east_asian:normal;paint-order:normal"/>
	<path d="m13.561 2.0059c-0.44128 0.024111-0.78295 0.13451-0.97266 0.32422l-8.2031 8.2012c-0.75883 0.75883 0.47156 3.2196 2.748 5.4961 1.3599 1.3599 2.7779 2.3338 3.8672 2.7461v1.7266c0 0.554-0.45028 0.93128-1 1l-4 0.5c-0.54972 0.06872-1 0.446-1 1h14c0-0.554-0.44875-0.94488-1-1l-5-0.5c-0.55125-0.05513-1-0.446-1-1v-1.5215c0.25811-0.0056 0.48309-0.05731 0.62891-0.20312l8.2031-8.2012c0.75883-0.75883 0.25696-3.9481-2.0195-6.2246-1.7074-1.7074-3.9281-2.4161-5.252-2.3438zm-6.9492 9.2949a3.8862 1.2954 45 0 1 3.2695 1.9785 3.8862 1.2954 45 0 1 1.832 3.6641 3.8862 1.2954 45 0 1-3.6641-1.832 3.8862 1.2954 45 0 1-1.832-3.6641 3.8862 1.2954 45 0 1 0.39453-0.14648z" fill="url(#a)" fill-opacity=".75328" style="font-variant-east_asian:normal;paint-order:normal"/>
	<path d="m13.506 1.0078c-0.57924 0.03165-1.1479 0.13818-1.625 0.61523l-8.2031 8.2012c-0.47634 0.47634-0.56115 1.1347-0.49609 1.6836 0.065055 0.54885 0.26215 1.0848 0.54492 1.6504 0.56554 1.1311 1.4973 2.3742 2.6992 3.5762 1.2117 1.2117 2.4311 2.0602 3.5742 2.6191v1.1465c0 0.01215 0.04438-0.013346-0.125 0.007812l-4 0.5c-0.61068 0.076351-1.2224 0.44198-1.5742 0.99219h1.6992l4-0.5c0.042793-0.005349 0.079671-0.024176 0.12109-0.033203h2.752c0.043461 0.008886 0.081936 0.028701 0.12695 0.033203l5 0.5h1.7012c-0.35163-0.55702-0.96762-0.93075-1.6016-0.99414l-5-0.5c-0.13902-0.013903-0.099609 0.00813-0.099609-0.005859v-0.89062c0.11621-0.06646 0.22707-0.018083 0.33594-0.12695l8.2031-8.2012c0.47634-0.47634 0.58356-1.045 0.61524-1.625 0.031665-0.58005-0.048453-1.2125-0.22852-1.8848-0.36012-1.3445-1.129-2.8515-2.4062-4.1289-1.9161-1.9161-4.2737-2.7298-6.0137-2.6348zm0.054688 0.99805c1.3238-0.072334 3.5446 0.63633 5.252 2.3438 2.2765 2.2765 2.7784 5.4658 2.0195 6.2246l-8.2031 8.2012c-0.14582 0.14582-0.37079 0.19752-0.62891 0.20312v1.5215c0 0.13008 0.029219 0.24952 0.074219 0.35938h-1.1484c0.045532-0.10931 0.074219-0.22865 0.074219-0.35938v-1.5-0.22656-1.7148a3.8862 1.2954 45 0 0 0.71289-0.11524 3.8862 1.2954 45 0 0-1.832-3.6641 3.8862 1.2954 45 0 0-3.6641-1.832 3.8862 1.2954 45 0 0 1.832 3.6641 3.8862 1.2954 45 0 0 1.9512 1.5352v1.6348c-0.89213-0.51345-1.8923-1.279-2.8672-2.2539-2.2765-2.2765-3.5069-4.7373-2.748-5.4961l8.2031-8.2012c0.18971-0.18971 0.53138-0.30011 0.97266-0.32422z" fill="url(#b)" style="font-feature-settings:normal;font-variant-alternates:normal;font-variant-caps:normal;font-variant-east_asian:normal;font-variant-ligatures:normal;font-variant-numeric:normal;font-variant-position:normal;isolation:auto;mix-blend-mode:normal;paint-order:normal;shape-padding:0;text-decoration-color:#000000;text-decoration-line:none;text-decoration-style:solid;text-indent:0;text-orientation:mixed;text-transform:none;white-space:normal"/>
</svg>
