<?xml version="1.0" encoding="UTF-8"?>
<!-- Created with Inkscape (http://www.inkscape.org/) -->
<svg width="24" height="24" version="1.1" xmlns="http://www.w3.org/2000/svg" xmlns:cc="http://creativecommons.org/ns#" xmlns:dc="http://purl.org/dc/elements/1.1/" xmlns:rdf="http://www.w3.org/1999/02/22-rdf-syntax-ns#" xmlns:xlink="http://www.w3.org/1999/xlink">
	<defs>
		<radialGradient id="a" cx="8.7671" cy="4.7533" r="9.0713" gradientTransform="matrix(1 0 0 .99903 0 .011687)" gradientUnits="userSpaceOnUse">
			<stop stop-color="#ffffff" stop-opacity=".8252" offset="0"/>
			<stop stop-color="#ffffff" stop-opacity=".6051" offset="1"/>
		</radialGradient>
	</defs>
	<metadata>
		<rdf:RDF>
			<cc:Work rdf:about="">
				<dc:format>image/svg+xml</dc:format>
				<dc:type rdf:resource="http://purl.org/dc/dcmitype/StillImage"/>
				<dc:title/>
			</cc:Work>
		</rdf:RDF>
	</metadata>
	<path d="m13 4c-3.314 0-6 2.686-6 6 0 1.298 0.4241 2.487 1.125 3.469l-4.844 4.844 1.438 1.406 4.844-4.844c0.9781 0.6921 2.148 1.125 3.438 1.125 3.314 0 6-2.686 6-6s-2.686-6-6-6zm0 2c2.209 0 4 1.791 4 4s-1.791 4-4 4-4-1.791-4-4 1.791-4 4-4z" color="#000000" fill="#0c1218" fill-opacity=".7203" style="paint-order:normal"/>
	<path d="m12.6 2.5996c-3.8543 0-7 3.1457-7 7 0 1.2006 0.37845 2.2861 0.91211 3.2676l-6.0527 6.0547 2.8223-0.60938 4.8438-4.8438c-0.7009-0.982-1.125-2.1708-1.125-3.4688 0-3.314 2.686-6 6-6h0.001953c3.314 0 6 2.686 6 6s-2.686 6-6 6c-1.29 0-2.4614-0.4329-3.4395-1.125l-4.8438 4.8438-0.99219 2.4062 6.0352-6.0352c0.96951 0.52864 2.042 0.81055 3.2402 0.81055 3.8543 0 7-3.0969 7-6.9512 0-2.0286-0.77659-3.9048-2.1641-5.1855-1.2807-1.3874-3.2078-2.1641-5.2363-2.1641h-0.001953zm0.40039 3.4004a4 4 0 0 0-4 4 4 4 0 0 0 4 4 4 4 0 0 0 1.1816-0.18359 3.569 3.569 0 0 1-0.83203 0.10352 3.569 3.569 0 0 1-3.5684-3.5703 3.569 3.569 0 0 1 3.5684-3.5684 3.569 3.569 0 0 1 3.5703 3.5684 3.569 3.569 0 0 1-0.11719 0.88477 4 4 0 0 0 0.19727-1.2344 4 4 0 0 0-4-4z" fill="url(#a)" style="font-feature-settings:normal;font-variant-alternates:normal;font-variant-caps:normal;font-variant-ligatures:normal;font-variant-numeric:normal;font-variant-position:normal;isolation:auto;mix-blend-mode:normal;paint-order:normal;shape-padding:0;text-decoration-color:#000000;text-decoration-line:none;text-decoration-style:solid;text-indent:0;text-orientation:mixed;text-transform:none;white-space:normal"/>
</svg>
