<?xml version="1.0" encoding="UTF-8"?>
<!-- Created with Inkscape (http://www.inkscape.org/) -->
<svg width="24" height="24" version="1.1" xmlns="http://www.w3.org/2000/svg" xmlns:cc="http://creativecommons.org/ns#" xmlns:dc="http://purl.org/dc/elements/1.1/" xmlns:rdf="http://www.w3.org/1999/02/22-rdf-syntax-ns#">
	<metadata>
		<rdf:RDF>
			<cc:Work rdf:about="">
				<dc:format>image/svg+xml</dc:format>
				<dc:type rdf:resource="http://purl.org/dc/dcmitype/StillImage"/>
				<dc:title/>
			</cc:Work>
		</rdf:RDF>
	</metadata>
	<path d="m7.4844 4.0703a0.50005 0.50005 0 0 0-0.36133 0.83203l5.6992 6.6133c0.2284 0.26509 0.22888 0.67785 0 0.94336l-5.7012 6.6152a0.50005 0.50005 0 1 0 0.75781 0.65234l5.7012-6.6152c0.55452-0.64329 0.5536-1.6055 0-2.248l-5.6992-6.6133a0.50005 0.50005 0 0 0-0.39648-0.17969zm9.5 4.8848a1.0001 1.0001 0 0 0-0.98438 1.0137v4.1309a1.0001 1.0001 0 1 0 2 0v-4.1309a1.0001 1.0001 0 0 0-1.0156-1.0137z" color="#000000" color-rendering="auto" dominant-baseline="auto" fill="#000000" fill-opacity=".76471" image-rendering="auto" shape-rendering="auto" solid-color="#000000" style="font-feature-settings:normal;font-variant-alternates:normal;font-variant-caps:normal;font-variant-ligatures:normal;font-variant-numeric:normal;font-variant-position:normal;isolation:auto;mix-blend-mode:normal;paint-order:normal;shape-padding:0;text-decoration-color:#000000;text-decoration-line:none;text-decoration-style:solid;text-indent:0;text-orientation:mixed;text-transform:none;white-space:normal"/>
</svg>
