<?xml version="1.0" encoding="UTF-8"?>
<!-- Created with Inkscape (http://www.inkscape.org/) -->
<svg width="24" height="24" version="1.1" viewBox="0 0 24 24" xmlns="http://www.w3.org/2000/svg" xmlns:cc="http://creativecommons.org/ns#" xmlns:dc="http://purl.org/dc/elements/1.1/" xmlns:rdf="http://www.w3.org/1999/02/22-rdf-syntax-ns#">
	<metadata>
		<rdf:RDF>
			<cc:Work rdf:about="">
				<dc:format>image/svg+xml</dc:format>
				<dc:type rdf:resource="http://purl.org/dc/dcmitype/StillImage"/>
				<dc:title/>
			</cc:Work>
		</rdf:RDF>
	</metadata>
	<defs>
		<radialGradient id="b" cx="8" cy="10.465" r="6.0801" gradientTransform="matrix(2.4671 0 0 3.2461 -8.736 -13.571)" gradientUnits="userSpaceOnUse">
			<stop stop-color="#ffffff" stop-opacity=".74858" offset="0"/>
			<stop stop-color="#ffffff" stop-opacity=".60511" offset="1"/>
		</radialGradient>
		<radialGradient id="a" cx="-9376.3" cy="4856.5" r="5" gradientTransform="matrix(3.7094 0 0 5.1932 34793 -25201)" gradientUnits="userSpaceOnUse">
			<stop stop-color="#213851" stop-opacity=".9059" offset="0"/>
			<stop stop-color="#27303a" stop-opacity="0" offset="1"/>
		</radialGradient>
	</defs>
	<path d="m13.686 1.9941-7.7168 7.5723-0.15625 0.15625-0.0625 0.21875-2.6875 7.7148-0.21875 0.59375-0.0625 0.96875 1 1 0.96875-0.0625 0.59375-0.21875 7.8125-2.5918 0.21875-0.0625 0.15625-0.15625 7.4746-7.8359v-1.2969l-8.0059 8.0059-8 3-1-1 3-8 8.0547-8.0059zm3.3145 1.0059-8 8-2 1.25-0.75 2.5c1.0427 0.4943 1.5058 0.9574 2 2l2.75-0.75 1-2 8-8v-2l-8 8-3 2 2-3 8-8zm-13 18c-0.277 0-0.5 0.223-0.5 0.5s0.223 0.5 0.5 0.5h15.5c0.277 0 0.5-0.223 0.5-0.5s-0.223-0.5-0.5-0.5z" color="#000000" fill="url(#b)" fill-opacity=".99858" style="font-variant-east_asian:normal;paint-order:normal;text-decoration-line:none;text-indent:0;text-transform:none"/>
	<path d="m16.25 2.25-2.25 0.75-7 7-3 8 1 1 8-3 7-7 0.75-2.25-8 8-1.75 1.25-2.75 0.75c-0.49425-1.0426-0.95734-1.5057-2-2l0.75-2.5 1.25-2zm2.75 0.75-8 8-2 3 3-2 8-8v-1zm-12.5 17c-0.277 0-0.5 0.223-0.5 0.5s0.223 0.5 0.5 0.5h13c0.277 0 0.5-0.223 0.5-0.5s-0.223-0.5-0.5-0.5z" fill="#090d11" fill-opacity=".76621" style="paint-order:normal"/>
	<path d="m16.25 2.25-2.25 0.75-7 7-3 8 1 1 8-3 7-7 0.75-2.25-8 8-1.75 1.25-2.75 0.75c-0.49425-1.0426-0.95734-1.5057-2-2l0.75-2.5 1.25-2zm2.75 0.75-8 8-2 3 3-2 8-8v-1zm-12.5 17c-0.277 0-0.5 0.223-0.5 0.5s0.223 0.5 0.5 0.5h13c0.277 0 0.5-0.223 0.5-0.5s-0.223-0.5-0.5-0.5z" fill="url(#a)" fill-opacity=".75328" style="font-variant-east_asian:normal;paint-order:normal"/>
</svg>
