<?xml version="1.0" encoding="UTF-8"?>
<!-- Created with Inkscape (http://www.inkscape.org/) -->
<svg width="24" height="24" version="1.1" xmlns="http://www.w3.org/2000/svg" xmlns:cc="http://creativecommons.org/ns#" xmlns:dc="http://purl.org/dc/elements/1.1/" xmlns:rdf="http://www.w3.org/1999/02/22-rdf-syntax-ns#">
	<defs>
		<radialGradient id="a" cx="12" cy="12" r="6" gradientTransform="matrix(2.1667 0 0 3.1001 -14 -25.202)" gradientUnits="userSpaceOnUse">
			<stop stop-color="#213851" stop-opacity=".9059" offset="0"/>
			<stop stop-color="#27303a" stop-opacity="0" offset="1"/>
		</radialGradient>
		<radialGradient id="b" cx="12.001" cy="11.02" r="6.999" gradientTransform="matrix(2.143 0 0 3.0619 -13.717 -24.743)" gradientUnits="userSpaceOnUse">
			<stop stop-color="#ffffff" stop-opacity=".74858" offset="0"/>
			<stop stop-color="#ffffff" stop-opacity=".60511" offset="1"/>
		</radialGradient>
	</defs>
	<metadata>
		<rdf:RDF>
			<cc:Work rdf:about="">
				<dc:format>image/svg+xml</dc:format>
				<dc:type rdf:resource="http://purl.org/dc/dcmitype/StillImage"/>
				<dc:title/>
			</cc:Work>
		</rdf:RDF>
	</metadata>
	<g transform="translate(3364.4 -2092.7)">
		<path transform="translate(-3364.4 2092.7)" d="m12.002 2c-3.3154 0-6 2.6846-6 6v3.4121c-0.63073 1.0509-1 2.2752-1 3.5879 0 3.86 3.138 6.9999 6.998 7 3.8601 0 7-3.14 7-7 0-1.3101-0.36926-2.5324-0.99805-3.582v-3.418c0-3.3154-2.6846-6-6-6zm0 1c2.7787 0 5 2.2213 5 5v2.1133c-1.2718-1.3015-3.0426-2.1133-5.002-2.1133-1.9583 0-3.7288 0.81096-5 2.1113v-2.1113c0-2.7787 2.2233-5 5.002-5zm-0.021484 6a5.9999 5.9999 0 0 1 0.019531 0 5.9999 5.9999 0 0 1 0.69727 0.044922c0.079741 0.009209 0.15758 0.022863 0.23633 0.035156a5.9999 5.9999 0 0 1 0.42188 0.080078c0.10004 0.02307 0.19884 0.048178 0.29688 0.076172a5.9999 5.9999 0 0 1 0.33398 0.10938c0.10988 0.03854 0.21934 0.076449 0.32617 0.12109a5.9999 5.9999 0 0 1 0.27539 0.12891c0.18234 0.087404 0.35974 0.18238 0.53125 0.28711a5.9999 5.9999 0 0 1 0.30078 0.18945c0.088294 0.061372 0.17112 0.1294 0.25586 0.19531a5.9999 5.9999 0 0 1 0.2832 0.22852c0.075572 0.066493 0.14663 0.13686 0.21875 0.20703a5.9999 5.9999 0 0 1 0.25977 0.26953c0.065907 0.072645 0.13103 0.14487 0.19336 0.2207a5.9999 5.9999 0 0 1 0.24805 0.32617c0.039749 0.055697 0.085176 0.10697 0.12305 0.16406v0.007812a5.9999 5.9999 0 0 1 0.86133 2.0723c8.74e-4 -0.004075 0.003041-0.007641 0.003907-0.011719 0.006474 0.030718 0.009585 0.062867 0.015624 0.09375a5.9999 5.9999 0 0 1 0.056641 0.36524c0.010966 0.081164 0.023538 0.16198 0.03125 0.24414a5.9999 5.9999 0 0 1 0.029297 0.54492 5.9999 5.9999 0 0 1-0.03125 0.61133c-1.29e-4 0.001279 1.29e-4 0.002627 0 0.003906a5.9999 5.9999 0 0 1-0.087891 0.57617c-0.20103 1.0019-0.65165 1.9112-1.2832 2.6641a5.9999 5.9999 0 0 1-0.007812 0.009765c-0.018418 0.021863-0.03987 0.040908-0.058594 0.0625-0.10881 0.12548-0.22109 0.24728-0.33984 0.36328a5.9999 5.9999 0 0 1-0.078125 0.072265c-0.11726 0.11056-0.23738 0.21747-0.36328 0.31836a5.9999 5.9999 0 0 1-0.091797 0.068359c-0.12898 0.099391-0.25945 0.19635-0.39648 0.28516a5.9999 5.9999 0 0 1-0.078125 0.046875c-0.14366 0.090038-0.28986 0.17605-0.44141 0.25391a5.9999 5.9999 0 0 1-0.080079 0.037109c-0.14928 0.073936-0.30098 0.14351-0.45703 0.20508a5.9999 5.9999 0 0 1-0.11133 0.041016c-0.14308 0.053178-0.28751 0.10218-0.43555 0.14453a5.9999 5.9999 0 0 1-0.16992 0.042969c-0.13466 0.034295-0.27004 0.066757-0.4082 0.091797a5.9999 5.9999 0 0 1-0.20703 0.03125c-0.12107 0.017604-0.24191 0.034628-0.36524 0.044921a5.9999 5.9999 0 0 1-0.50781 0.025391 5.9999 5.9999 0 0 1-0.61133-0.03125 5.9999 5.9999 0 0 1-0.003906 0c-0.1954-0.019778-0.38685-0.049897-0.57617-0.087891-1.0018-0.20104-1.9116-0.65164-2.6641-1.2832a5.9999 5.9999 0 0 1-0.072266-0.066406c-0.12543-0.10881-0.24733-0.22109-0.36328-0.33984a5.9999 5.9999 0 0 1-0.072266-0.078125c-0.10992-0.11664-0.21605-0.23614-0.31641-0.36133a5.9999 5.9999 0 0 1-0.087891-0.11523c-0.088792-0.11642-0.17367-0.2345-0.25391-0.35742a5.9999 5.9999 0 0 1-0.09375-0.15234c-0.073074-0.1196-0.14424-0.24027-0.20898-0.36523a5.9999 5.9999 0 0 1-0.076172-0.1582c-0.058941-0.12244-0.11531-0.24613-0.16602-0.37305a5.9999 5.9999 0 0 1-0.072266-0.19922c-0.041258-0.11497-0.082855-0.22953-0.11719-0.34766a5.9999 5.9999 0 0 1-0.064453-0.25195c-0.02634-0.10792-0.051831-0.21603-0.072266-0.32617a5.9999 5.9999 0 0 1-0.044922-0.29883c-0.012094-0.090314-0.025154-0.17993-0.033203-0.27148a5.9999 5.9999 0 0 1-0.029297-0.53516 5.9999 5.9999 0 0 1 0.035156-0.63477 5.9999 5.9999 0 0 1 0.095703-0.59961c9.303e-4 -0.004467 0.001013-0.009209 0.0019531-0.013672a5.9999 5.9999 0 0 1 0.86719-2.0605v-0.009765c0.0095189-0.014345 0.021611-0.026759 0.03125-0.041016a5.9999 5.9999 0 0 1 0.38086-0.50586 5.9999 5.9999 0 0 1 0.0019531-0.001954c0.056839-0.067454 0.11997-0.1285 0.17969-0.19336a5.9999 5.9999 0 0 1 0.2793-0.28906c0.078771-0.07484 0.16139-0.14434 0.24414-0.21484a5.9999 5.9999 0 0 1 0.25586-0.20703c0.086447-0.065829 0.17362-0.13026 0.26367-0.19141a5.9999 5.9999 0 0 1 0.31055-0.19531c0.08831-0.05237 0.17641-0.10446 0.26758-0.15234a5.9999 5.9999 0 0 1 0.31641-0.15039c0.098238-0.044441 0.19392-0.091642 0.29492-0.13086a5.9999 5.9999 0 0 1 0.13086-0.044922 5.9999 5.9999 0 0 1 0.46875-0.15234c0.089087-0.024126 0.18078-0.040467 0.27148-0.060547a5.9999 5.9999 0 0 1 0.40625-0.078125c0.092438-0.013831 0.18551-0.023628 0.2793-0.033203a5.9999 5.9999 0 0 1 0.59766-0.039062zm0.019531 5c-0.554 0-1 0.446-1 1v2c0 0.1864 0.064044 0.3509 0.15234 0.5-0.088 0.1491-0.15234 0.3136-0.15234 0.5 0 0.554 0.446 1 1 1s1-0.446 1-1c0-0.1864-0.064044-0.3509-0.15234-0.5 0.088-0.1491 0.15234-0.3136 0.15234-0.5v-2c0-0.554-0.446-1-1-1z" color="#000000" color-rendering="auto" dominant-baseline="auto" fill="url(#b)" fill-opacity=".99858" image-rendering="auto" shape-rendering="auto" solid-color="#000000" style="font-feature-settings:normal;font-variant-alternates:normal;font-variant-caps:normal;font-variant-east_asian:normal;font-variant-ligatures:normal;font-variant-numeric:normal;font-variant-position:normal;isolation:auto;mix-blend-mode:normal;paint-order:normal;shape-padding:0;text-decoration-color:#000000;text-decoration-line:none;text-decoration-style:solid;text-indent:0;text-orientation:mixed;text-transform:none;white-space:normal"/>
		<path d="m-3352.4 2095.7c-2.7614 0-5 2.2386-5 5v3.6914a5.9999 5.9999 0 0 0-1 3.3086 5.9999 5.9999 0 0 0 6 6 5.9999 5.9999 0 0 0 6-6 5.9999 5.9999 0 0 0-1-3.3105v-3.6895c0-2.7614-2.2386-5-5-5zm0 1c2.2247 0 4 1.7753 4 4v2.5352a5.9999 5.9999 0 0 0-4-1.5352 5.9999 5.9999 0 0 0-4 1.5391v-2.5391c0-2.2247 1.7753-4 4-4zm0 10c0.554 0 1 0.446 1 1v2c0 0.1864-0.064 0.3509-0.1523 0.5 0.088 0.1491 0.1523 0.3136 0.1523 0.5 0 0.554-0.446 1-1 1s-1-0.446-1-1c0-0.1864 0.064-0.3509 0.1523-0.5-0.088-0.1491-0.1523-0.3136-0.1523-0.5v-2c0-0.554 0.446-1 1-1z" fill="#090d11" fill-opacity=".76621" style="paint-order:normal"/>
		<path transform="translate(-3364.4 2092.7)" d="m12 3c-2.7614 0-5 2.2386-5 5v3.6914a5.9999 5.9999 0 0 0-1 3.3086 5.9999 5.9999 0 0 0 6 6 5.9999 5.9999 0 0 0 6-6 5.9999 5.9999 0 0 0-1-3.3105v-3.6895c0-2.7614-2.2386-5-5-5zm0 1c2.2247 0 4 1.7753 4 4v2.5352a5.9999 5.9999 0 0 0-4-1.5352 5.9999 5.9999 0 0 0-4 1.5391v-2.5391c0-2.2247 1.7753-4 4-4zm0 10c0.554 0 1 0.446 1 1v2c0 0.1864-0.064344 0.3509-0.15234 0.5 0.0883 0.1491 0.15234 0.3136 0.15234 0.5 0 0.554-0.446 1-1 1s-1-0.446-1-1c0-0.1864 0.064344-0.3509 0.15234-0.5-0.0883-0.1491-0.15234-0.3136-0.15234-0.5v-2c0-0.554 0.446-1 1-1z" fill="url(#a)" fill-opacity=".75328" style="font-variant-east_asian:normal;paint-order:normal"/>
	</g>
</svg>
