<?xml version="1.0" encoding="UTF-8"?>
<svg id="a" width="24" height="24" version="1.1" viewBox="0 0 24 24" xmlns="http://www.w3.org/2000/svg" xmlns:cc="http://creativecommons.org/ns#" xmlns:dc="http://purl.org/dc/elements/1.1/" xmlns:rdf="http://www.w3.org/1999/02/22-rdf-syntax-ns#">
	<metadata id="e">
		<rdf:RDF>
			<cc:Work rdf:about="">
				<dc:format>image/svg+xml</dc:format>
				<dc:type rdf:resource="http://purl.org/dc/dcmitype/StillImage"/>
				<dc:title/>
			</cc:Work>
		</rdf:RDF>
	</metadata>
	<defs id="d">
		<style id="current-color-scheme" type="text/css">.ColorScheme-Text{color:#090d11;}.ColorScheme-Highlight{color:#0079c1;}.ColorScheme-Background{color:#ffffff;}</style>
	</defs>
	<path id="f" d="m15.973 5c-1.662 0-3 1.338-3 3 0 1.662 1.338 3 3 3 1.662 0 3-1.338 3-3 0-1.662-1.338-3-3-3zm-7.5817 0-3.4642 6h6.9281l-1.7321-3zm2.7469 8c-0.6648 0-1.2 0.5352-1.2 1.2v3.6c0 0.6648 0.5352 1.2 1.2 1.2h3.6c0.6648 0 1.2-0.5352 1.2-1.2v-3.6c0-0.6648-0.5352-1.2-1.2-1.2z" style="fill-opacity:.75;fill:currentColor" class="ColorScheme-Text"/>
	<path id="b" d="m8.3906 3-0.86523 1.5-1.7324 3-2.5977 4.5h5.1953 2.748c-1.2015 0-2.2012 0.99772-2.2012 2.1992v3.6016c0 1.2015 0.99967 2.1992 2.2012 2.1992h3.5996c1.2015 0 2.1992-0.99772 2.1992-2.1992v-3.6016c0-1.2015-0.99772-2.1992-2.1992-2.1992h-1.1504l-2.5977-4.5-2.5996-4.5zm7.582 1c-2.1987 0-4 1.8013-4 4 0 2.1987 1.8013 4 4 4s4-1.8013 4-4c0-2.1987-1.8013-4-4-4zm-7.582 1 3.4648 6h-3.4648-3.4629l1.7324-3 1.7305-3zm7.582 0c1.662 0 3 1.338 3 3 0 1.662-1.338 3-3 3-1.662 0-3-1.338-3-3 0-1.662 1.338-3 3-3zm-4.834 8h3.5996c0.6648 0 1.1992 0.53442 1.1992 1.1992v3.6016c0 0.6648-0.53442 1.1992-1.1992 1.1992h-3.5996c-0.6648 0-1.2012-0.53442-1.2012-1.1992v-3.6016c0-0.6648 0.53637-1.1992 1.2012-1.1992z" style="fill-opacity:.5;fill:currentColor" class="ColorScheme-Background"/>
	<path id="c" d="m3.5 2v0.5l-0.097656-0.49023-0.24219 0.048828 0.19727 0.98047 0.19141-0.039062h0.95117v-1zm2 0v1h1v-1zm2 0v1h1v-1zm2 0v1h1v-1zm2 0v1h1v-1zm2 0v1h1v-1zm2 0v1h1v-1zm2 0v1h1v-1zm2 0v1h1v-1zm2.2441 0.69531-0.74024 0.49805-0.07227 0.015625 0.0059 0.03125-0.02148 0.013672 0.03516 0.050781 0.048784 0.24414v0.38867h1v-0.4375l-0.0098-0.097656-0.07813-0.39062-0.07617-0.18164zm-19.672 0.39648-0.0625 0.31055-0.0097656 0.097656v0.68555h1v-0.63672l0.052734-0.25977zm18.928 1.8457v1h1v-1zm-19 0.24805v1h1v-1zm19 1.752v1h1v-1zm-19 0.24805v1h1v-1zm19 1.752v1h1v-1zm-19 0.24805v1h1v-1zm19 1.752v1h1v-1zm-19 0.24805v1h1v-1zm19 1.752v1h1v-1zm-19 0.24805v1h1v-1zm19 1.752v1h1v-1zm-19 0.24805v1h1v-1zm19 1.752v1h1v-1zm-19 0.24805v1h1v-1zm19 1.752v1h1v-1zm-19 0.24805v1h1v-1zm18.984 1.459-0.13672 0.20312-0.15234 0.10352-0.17383 0.03516 0.19727 0.98047 0.26953-0.05469 0.18164-0.07617 0.31641-0.21289 0.13672-0.13672 0.19141-0.2832zm-17.912 0.14844-0.13867 0.20508-0.60938 0.41016 0.052734 0.07813 0.13672 0.13672 0.31641 0.21289 0.18164 0.07617 0.39062 0.07813 0.097656 0.009757h0.12305v-1h-0.074219l-0.24414-0.048828-0.15039-0.10156zm1.5508 0.20703v1h1v-1zm2 0v1h1v-1zm2 0v1h1v-1zm2 0v1h1v-1zm2 0v1h1v-1zm2 0v1h1v-1zm2 0v1h1v-1zm2 0v1h1v-1z" style="fill:currentColor" class="ColorScheme-Highlight"/>
</svg>
