<?xml version="1.0" encoding="UTF-8"?>
<!-- Created with Inkscape (http://www.inkscape.org/) -->
<svg width="24" height="24" version="1.1" xmlns="http://www.w3.org/2000/svg" xmlns:cc="http://creativecommons.org/ns#" xmlns:dc="http://purl.org/dc/elements/1.1/" xmlns:rdf="http://www.w3.org/1999/02/22-rdf-syntax-ns#">
	<defs>
		<style id="current-color-scheme" type="text/css">.ColorScheme-Text {
				color:#090d11;
			}
			.ColorScheme-Background{
				color:#ffffff;
			}</style>
	</defs>
	<metadata>
		<rdf:RDF>
			<cc:Work rdf:about="">
				<dc:format>image/svg+xml</dc:format>
				<dc:type rdf:resource="http://purl.org/dc/dcmitype/StillImage"/>
			</cc:Work>
		</rdf:RDF>
	</metadata>
	<path class="ColorScheme-Background" d="m12 2.3008c3.0052 0 5.2686 0.63774 7.6387 3.0078l-0.63867 0.69141c-1.3561-1.3561-3.3292-3-7-3-4.7732 0-8.0522 3.9299-8.4434 8.1758 0.39079-5.6258 4.5952-8.875 8.4434-8.875zm9 0.69922c0.47714 2 1 5 1 6s0 1-1 1-4-0.4641-6-1h5.5c0.29437 0 0.5-0.22147 0.5-0.5zm-9 1c3.4059 0 5.6353 2.5337 6.0508 2.9492l-0.14258 0.14258c-3.7536-4.0357-8.4278-3.6028-11.225-0.96289 1.3157-1.2526 3.0956-2.1289 5.3164-2.1289zm8.4434 8.8242c-0.39079 5.6258-4.5952 8.875-8.4434 8.875-3.0052 0-5.2686-0.63774-7.6387-3.0078l0.63867-0.69141c1.3561 1.3561 3.3292 3 7 3 4.7732 0 8.0522-3.9299 8.4434-8.1758zm-17.443 1.1758c1 0 4 0.4641 6 1h-5.5c-0.29437 0-0.5 0.22147-0.5 0.5v5.5c-0.47714-2-1-5-1-6s0-1 1-1zm3.0918 2.9082c3.7536 4.0357 8.4278 3.6028 11.225 0.96289-1.3157 1.2526-3.0956 2.1289-5.3164 2.1289-3.4059 0-5.6353-2.5337-6.0508-2.9492l0.14258-0.14258z" style="fill-opacity:.5;fill:currentColor"/>
	<path class="ColorScheme-Text" d="m12 3c3.3178 0 5.688 1.688 7 3l1-1c1-1 1-1 1 0v3.5c0 0.27853-0.20563 0.5-0.5 0.5h-3.5c-1 0-1 0 0-1l1.0508-1.0508c-0.41551-0.41551-2.6449-2.9492-6.0508-2.9492-5.2033 0-8.0098 4.7939-8.0098 8.0273h-0.47266c0-4.5569 3.4262-9.0273 8.4824-9.0273zm8.4824 8.9727c0 4.5569-3.4262 9.0273-8.4824 9.0273-3.3178 0-5.688-1.688-7-3l-1 1c-1 1-1 1-1 0v-3.5c0-0.27853 0.20563-0.5 0.5-0.5h3.5c1 0 1 0 0 1l-1.0508 1.0508c0.41551 0.41551 2.6449 2.9492 6.0508 2.9492 5.2033 0 8.0098-4.7939 8.0098-8.0273h0.47266z" style="fill-opacity:.75;fill:currentColor"/>
</svg>
