<?xml version="1.0" encoding="UTF-8"?>
<!-- Created with Inkscape (http://www.inkscape.org/) -->
<svg width="24" height="24" version="1.1" xmlns="http://www.w3.org/2000/svg" xmlns:cc="http://creativecommons.org/ns#" xmlns:dc="http://purl.org/dc/elements/1.1/" xmlns:rdf="http://www.w3.org/1999/02/22-rdf-syntax-ns#" xmlns:xlink="http://www.w3.org/1999/xlink">
	<defs>
		<radialGradient id="b" cx="12" cy="12.5" r="8" gradientTransform="matrix(1.7333 0 0 1.4083 -8.7996 -5.1038)" gradientUnits="userSpaceOnUse">
			<stop stop-color="#ffffff" stop-opacity=".74858" offset="0"/>
			<stop stop-color="#ffffff" stop-opacity=".60511" offset="1"/>
		</radialGradient>
		<radialGradient id="a" cx="12" cy="9.1468" r="8" gradientTransform="matrix(1.7778 0 0 1.8 -9.3333 -9.6)" gradientUnits="userSpaceOnUse">
			<stop stop-color="#213851" stop-opacity=".9059" offset="0"/>
			<stop stop-color="#27303a" stop-opacity="0" offset="1"/>
		</radialGradient>
	</defs>
	<metadata>
		<rdf:RDF>
			<cc:Work rdf:about="">
				<dc:format>image/svg+xml</dc:format>
				<dc:type rdf:resource="http://purl.org/dc/dcmitype/StillImage"/>
				<dc:title/>
			</cc:Work>
		</rdf:RDF>
	</metadata>
	<path d="m4 7v2h16v-2zm0 4v2h16v-2zm0 4v2h16v-2z" color="#000000" fill="#090d11" fill-opacity=".76471" style="paint-order:normal"/>
	<path d="m4 7v2h16v-2h-16zm0 4v2h16v-2h-16zm0 4v2h16v-2h-16z" color="#000000" fill="url(#a)" fill-opacity=".76471" style="font-variant-east_asian:normal;paint-order:normal"/>
	<path d="m4 6v1h16v-1zm0 4v1h16v-1zm0 4v1h16v-1zm0 4v1h16v-1z" color="#000000" fill="url(#b)" fill-opacity=".72157" style="font-variant-east_asian:normal;paint-order:normal"/>
</svg>
