<?xml version="1.0" encoding="UTF-8"?>
<!-- Created with Inkscape (http://www.inkscape.org/) -->
<svg width="24" height="24" version="1.1" xmlns="http://www.w3.org/2000/svg" xmlns:cc="http://creativecommons.org/ns#" xmlns:dc="http://purl.org/dc/elements/1.1/" xmlns:rdf="http://www.w3.org/1999/02/22-rdf-syntax-ns#" xmlns:xlink="http://www.w3.org/1999/xlink">
	<defs>
		<radialGradient id="b" cx="7.5229" cy="8.2544" r="5.8618" gradientTransform="matrix(1.7118,0,0,2.3362,-2.37,-7.8)" gradientUnits="userSpaceOnUse">
			<stop stop-color="#ffffff" stop-opacity=".74858" offset="0"/>
			<stop stop-color="#ffffff" stop-opacity=".60511" offset="1"/>
		</radialGradient>
		<radialGradient id="a" cx="4.9165" cy="8.1285" r="4.2714" gradientTransform="matrix(3.0688 0 0 4.0193 -9.08 -20.7)" gradientUnits="userSpaceOnUse">
			<stop stop-color="#213851" stop-opacity=".9059" offset="0"/>
			<stop stop-color="#27303a" stop-opacity="0" offset="1"/>
		</radialGradient>
	</defs>
	<metadata>
		<rdf:RDF>
			<cc:Work rdf:about="">
				<dc:format>image/svg+xml</dc:format>
				<dc:type rdf:resource="http://purl.org/dc/dcmitype/StillImage"/>
				<dc:title/>
			</cc:Work>
		</rdf:RDF>
	</metadata>
	<path d="m19 4v16h1v-16zm-6.793 0.9219c-0.0663 0.011-0.13575 0.037-0.20703 0.078-1.7321 1-3.8933 4-6 4-2 0-2 3-2 3s0 3 2 3c2.1067 0 4.2679 3 6 4 0.57023 0.3292 1.1054-0.3676 1-1l-0.5-6 0.5-6c0.0466-0.5591-0.3287-1.1582-0.79297-1.0781zm4.793 0.078v14h1v-14zm-2 1v12h1v-12z" fill="#000000" fill-opacity=".76471" style="paint-order:normal"/>
	<path d="m19 4v16h1v-16zm-6.793 0.9219c-0.0663 0.011-0.13575 0.037-0.20703 0.078-1.7321 1-3.8933 4-6 4-2 0-2 3-2 3s0 3 2 3c2.1067 0 4.2679 3 6 4 0.57023 0.3292 1.1054-0.3676 1-1l-0.5-6 0.5-6c0.0466-0.5591-0.3287-1.1582-0.79297-1.0781zm4.793 0.078v14h1v-14zm-2 1v12h1v-12z" fill="url(#a)" fill-opacity=".76471" style="paint-order:normal"/>
	<path d="m20 3v18h1v-18zm-7.9629 0.9355c-0.1968 0.034-0.37747 0.1071-0.53711 0.1993-1.0322 0.5959-2.7862 2.3915-3.4902 2.9629-0.7041 0.5713-1.2729 0.9023-2.0098 0.9023-0.75 0-1.4249 0.3233-1.8633 0.7617-0.43839 0.4384-0.67932 0.952-0.83594 1.4219-0.31324 0.9397-0.30078 1.8164-0.30078 1.8164s-0.0125 0.8767 0.30078 1.8164c0.15662 0.4699 0.39755 0.9835 0.83594 1.4219 0.43838 0.4384 1.1133 0.7617 1.8633 0.7617 0.7369 0 1.3057 0.331 2.0098 0.9023 0.70409 0.5714 2.458 2.367 3.4902 2.9629 0.3203 0.1849 0.74882 0.2698 1.125 0.1817 0.37618-0.088 0.65876-0.3095 0.85156-0.5371 0.36068-0.5098 0.52344-0.7451 0.52344-1.5098l-0.5-6 0.5-6c0.0425-0.5095-0.17591-0.9685-0.39063-1.3359-0.27679-0.4134-0.89082-0.8461-1.5723-0.7286zm5.9629 0.064v16h1v-16zm-5.793 0.9219c0.46427-0.08 0.8852 0.5247 0.79297 1.0781l-0.5 6 0.5 6c0.0532 0.6389-0.42977 1.3292-1 1-1.7321-1-3.8933-4-6-4-2 0-2-3-2-3s0-3 2-3c2.1067 0 4.2679-3 6-4 0.0713-0.041 0.14073-0.067 0.20703-0.078zm3.793 0.078v14h1v-14z" color="#000000" color-rendering="auto" dominant-baseline="auto" fill="url(#b)" image-rendering="auto" shape-rendering="auto" solid-color="#000000" style="font-feature-settings:normal;font-variant-alternates:normal;font-variant-caps:normal;font-variant-ligatures:normal;font-variant-numeric:normal;font-variant-position:normal;isolation:auto;mix-blend-mode:normal;paint-order:normal;shape-padding:0;text-decoration-color:#000000;text-decoration-line:none;text-decoration-style:solid;text-indent:0;text-orientation:mixed;text-transform:none;white-space:normal"/>
</svg>
