<?xml version="1.0" encoding="UTF-8"?>
<svg id="a" width="24" height="24" version="1.1" xmlns="http://www.w3.org/2000/svg" xmlns:cc="http://creativecommons.org/ns#" xmlns:dc="http://purl.org/dc/elements/1.1/" xmlns:rdf="http://www.w3.org/1999/02/22-rdf-syntax-ns#">
	<metadata id="c">
		<rdf:RDF>
			<cc:Work rdf:about="">
				<dc:format>image/svg+xml</dc:format>
				<dc:type rdf:resource="http://purl.org/dc/dcmitype/StillImage"/>
			</cc:Work>
		</rdf:RDF>
	</metadata>
	<defs id="e">
		<style id="current-color-scheme" type="text/css">.ColorScheme-Text {color:#090d11;}.ColorScheme-Background{color:#ffffff;}</style>
	</defs>
	<path id="b" class="ColorScheme-Text" d="m20 12c0-0.554-0.446-1-1-1h-7c-0.554 0-1 0.446-1 1s0.446 1 1 1h7c0.554 0 1-0.446 1-1zm-0.82422 3.3926c-9e-3 -0.17842-0.11247-0.3385-0.27148-0.41992-0.24544-0.1252-0.5459-0.02824-0.67188 0.2168-1.4728 2.8772-4.7177 4.3708-7.8613 3.6191-3.1437-0.75168-5.3592-3.551-5.3711-6.7832-0.011917-3.2322 2.1842-6.0474 5.3223-6.8223 3.138-0.77484 6.3928 0.69424 7.8867 3.5605 0.12741 0.24472 0.42895 0.33999 0.67383 0.21289 0.11763-0.061166 0.20615-0.16655 0.24609-0.29297 0.03982-0.12634 0.02788-0.26332-0.0332-0.38086-1.7047-3.2707-5.4329-4.9545-9.0137-4.0703-3.5808 0.88417-6.0956 4.1086-6.082 7.7969s2.5515 6.8942 6.1387 7.752 7.3019-0.85156 8.9824-4.1348c0.04028-0.07834 0.05914-0.16593 0.05469-0.25391z" style="fill-opacity:.75;fill:currentColor"/>
</svg>
