<?xml version="1.0" encoding="UTF-8"?>
<svg id="a" width="24" height="24" version="1.1" xmlns="http://www.w3.org/2000/svg" xmlns:cc="http://creativecommons.org/ns#" xmlns:dc="http://purl.org/dc/elements/1.1/" xmlns:rdf="http://www.w3.org/1999/02/22-rdf-syntax-ns#">
	<metadata id="d">
		<rdf:RDF>
			<cc:Work rdf:about="">
				<dc:format>image/svg+xml</dc:format>
				<dc:type rdf:resource="http://purl.org/dc/dcmitype/StillImage"/>
			</cc:Work>
		</rdf:RDF>
	</metadata>
	<defs>
		<style id="current-color-scheme" type="text/css">.ColorScheme-Background{color:#ffffff;}
			.ColorScheme-Text{color:#090d11;}
			.ColorScheme-Highlight{color:#2598e4;}
			.ColorScheme-NegativeText {color:#f03489;}
			.ColorScheme-PositiveText {color:#42a53b;}
            .ColorScheme-NeutralText{color:#f2712c;}</style>
	</defs>
	<path id="h" class="ColorScheme-Text" d="m7.5 5c-1.9303 0-3.5 1.5697-3.5 3.5v7.5h1v-7.5c0-1.3936 1.1064-2.5 2.5-2.5h9c1.3936 0 2.5 1.1064 2.5 2.5v7.5h1v-7.5c0-1.9303-1.5697-3.5-3.5-3.5h-9zm-5.5 12a1 1 0 0 0-1 1 1 1 0 0 0 1 1h20a1 1 0 0 0 1-1 1 1 0 0 0-1-1h-20z" style="fill-opacity:.75;fill:currentColor"/>
	<circle id="c" class="ColorScheme-NeutralText warning" cx="20" cy="4" r="3" style="fill:currentColor"/>
</svg>
