<?xml version="1.0" encoding="UTF-8"?>
<!-- Created with Inkscape (http://www.inkscape.org/) -->
<svg width="24" height="24" version="1.1" xmlns="http://www.w3.org/2000/svg" xmlns:cc="http://creativecommons.org/ns#" xmlns:dc="http://purl.org/dc/elements/1.1/" xmlns:rdf="http://www.w3.org/1999/02/22-rdf-syntax-ns#">
	<metadata>
		<rdf:RDF>
			<cc:Work rdf:about="">
				<dc:format>image/svg+xml</dc:format>
				<dc:type rdf:resource="http://purl.org/dc/dcmitype/StillImage"/>
			</cc:Work>
		</rdf:RDF>
	</metadata>
	<defs>
		<style id="current-color-scheme" type="text/css">.ColorScheme-Text {color:#090d11;}.ColorScheme-Background{color:#ffffff;}</style>
	</defs>
	<path d="m9 1v1.3418c0 2.5895 1.3865 5.0852 4.0352 5.7949 1.7534 0.46982 2.9648 2.048 2.9648 3.8633s-1.2114 3.3935-2.9648 3.8633c-2.6488 0.70974-4.035 3.2075-4.0352 5.7969v1.3398h2v-1.3398c8.6e-5 -1.9367 0.82968-3.4035 2.5527-3.8652 2.6184-0.70161 4.4473-3.0841 4.4473-5.7949s-1.8288-5.0933-4.4473-5.7949c-1.7231-0.46171-2.5527-1.9267-2.5527-3.8633v-1.3418zm2.7832 8.1348c-0.41675 0.030266-0.8326 0.15234-1.2168 0.375-1.366 0.79168-1.8367 2.5578-1.0488 3.9277 0.78792 1.3699 2.55 1.8444 3.916 1.0527s1.8367-2.5578 1.0488-3.9277c-0.39396-0.68495-1.0303-1.145-1.7402-1.3359-0.17748-0.047727-0.35907-0.078473-0.54297-0.091797-0.13792-0.00999-0.2771-0.010089-0.41602 0zm0.34961 0.99219c0.11925 0.0084 0.23656 0.02765 0.35156 0.05859 0.46002 0.12376 0.87137 0.4258 1.1309 0.87695 0.51898 0.90231 0.21398 2.0423-0.68359 2.5625-0.89757 0.52018-2.0279 0.21481-2.5469-0.6875-0.51898-0.90231-0.21398-2.0423 0.68359-2.5625 0.33659-0.19507 0.70669-0.27313 1.0645-0.24805z" class="ColorScheme-Text" style="fill-opacity:.75;fill:currentColor;"/>
	<path d="m11 1v1.3418c0 1.9366 0.82959 3.4016 2.5527 3.8633 2.6184 0.70161 4.4473 3.0841 4.4473 5.7949s-1.8288 5.0933-4.4473 5.7949c-1.7231 0.46169-2.5526 1.9286-2.5527 3.8652v1.3398h1v-1.3398c3.7e-5 -0.82556 0.17878-1.4829 0.47461-1.9492 0.29583-0.46636 0.69335-0.77652 1.3379-0.94922 3.0527-0.81796 5.1875-3.6012 5.1875-6.7617 0-3.1606-2.1348-5.9438-5.1875-6.7617-0.64492-0.17281-1.0422-0.48146-1.3379-0.94727-0.29568-0.4658-0.47461-1.1237-0.47461-1.9492v-1.3418h-1zm1.082 7.1055c-0.18768-0.0043563-0.37649 0.0041631-0.56445 0.027344-0.50122 0.061815-0.99739 0.22165-1.4609 0.49023-1.8542 1.0743-2.4936 3.4666-1.4238 5.3262s3.4564 2.5021 5.3105 1.4277c1.8542-1.0743 2.4936-3.4666 1.4238-5.3262-0.70206-1.2203-1.9714-1.9148-3.2852-1.9453zm-0.29688 1c0.13973-0.010529 0.27944-0.0097963 0.41797 0 0.1847 0.013061 0.36684 0.043901 0.54492 0.091797 0.71235 0.19158 1.3516 0.65755 1.752 1.3535 0.80078 1.3919 0.3291 3.158-1.0566 3.9609-1.3857 0.80291-3.1426 0.33139-3.9434-1.0605-0.80078-1.3919-0.32911-3.16 1.0566-3.9629 0.38974-0.22582 0.80931-0.35123 1.2285-0.38281z" class="ColorScheme-Background" style="fill-opacity:.5;fill:currentColor;"/>
</svg>
