<?xml version="1.0" encoding="UTF-8"?>
<!-- Created with Inkscape (http://www.inkscape.org/) -->
<svg width="24" height="24" version="1.1" xmlns="http://www.w3.org/2000/svg" xmlns:cc="http://creativecommons.org/ns#" xmlns:dc="http://purl.org/dc/elements/1.1/" xmlns:rdf="http://www.w3.org/1999/02/22-rdf-syntax-ns#">
	<defs>
		<style id="current-color-scheme" type="text/css">.ColorScheme-Text {
				color:#090d11;
			}
			.ColorScheme-Background{
				color:#ffffff;
			}</style>
	</defs>
	<metadata>
		<rdf:RDF>
			<cc:Work rdf:about="">
				<dc:format>image/svg+xml</dc:format>
				<dc:type rdf:resource="http://purl.org/dc/dcmitype/StillImage"/>
			</cc:Work>
		</rdf:RDF>
	</metadata>
	<path class="ColorScheme-Background" d="m7.25 2c-0.20519 1.082e-4 -0.38949 0.12556-0.46484 0.31641l-4.75 12c-0.10127 0.25672 0.024612 0.54695 0.28125 0.64844 0.25672 0.10127 0.54695-0.02461 0.64844-0.28125l1.459-3.6836h7.1523l1.459 3.6836c0.03138 0.07438 0.0803 0.14005 0.14258 0.19141 0.01503 0.01129 0.03068 0.02172 0.04687 0.03125 0.05048 0.03399 0.10674 0.05848 0.16602 0.07227 0.02056 0.0052 0.04144 0.0091 0.0625 0.01172 0.01546 4e-3 0.0311 0.0073 0.04687 0.0098 0.06286-7.3e-5 0.12515-0.012 0.18359-0.03516 6.51e-4 1e-6 0.0013 1e-6 2e-3 0 0.0059-0.0031 0.01178-0.0064 0.01758-0.0098 0.05269-0.02344 0.10093-0.05582 0.14258-0.0957 0.0053-0.0057 0.01056-0.0116 0.01563-0.01758 0.03882-0.04063 0.07051-0.08751 0.09375-0.13867 0.0035-0.0077 0.0067-0.01554 0.0098-0.02344 0.0244-0.06149 0.03634-0.12722 0.03516-0.19336v-1.1641c0.82588 1.0218 2.0883 1.6777 3.4999 1.6777 2.4794 0 4.5-2.0206 4.5-4.5 0-2.4794-2.0206-4.5-4.5-4.5-1.4116 0-2.674 0.65598-3.5 1.6777v-5.1777c0-0.27614-0.22386-0.5-0.5-0.5s-0.5 0.22386-0.5 0.5v9.3789l-3.7852-9.5625c-0.075356-0.19085-0.25965-0.3163-0.46484-0.31641zm0.33984 1h0.82031l2.7715 7h-6.3633zm9.9102 4c1.9389 0 3.5 1.5611 3.5 3.5 0 1.9389-1.5611 3.5-3.5 3.5s-3.5-1.5611-3.5-3.5c0-1.9389 1.5611-3.5 3.5-3.5zm-9.5 10.5c-0.15193-8.8e-5 -0.29566 0.0689-0.39062 0.1875l-1.6094 2.0117-1.6094-2.0117c-0.17252-0.21586-0.48743-0.25085-0.70312-0.078125-0.21586 0.17252-0.25085 0.48743-0.078125 0.70312l2 2.5c0.20019 0.25048 0.58106 0.25048 0.78125 0l1.6094-2.0117 1.6094 2.0117c0.20019 0.25048 0.58106 0.25048 0.78125 0l1.6094-2.0117 1.6094 2.0117c0.20019 0.25048 0.58106 0.25048 0.78125 0l1.6094-2.0117 1.6094 2.0117c0.20019 0.25048 0.58106 0.25048 0.78125 0l2-2.5c0.17273-0.2157 0.13774-0.53061-0.07813-0.70312-0.2157-0.17273-0.53061-0.13774-0.70312 0.07813l-1.6094 2.0117-1.6094-2.0117c-0.20019-0.25048-0.58106-0.25048-0.78125 0l-1.6094 2.0117-1.6094-2.0117c-0.20019-0.25048-0.58106-0.25048-0.78125 0l-1.6094 2.0117-1.6094-2.0117c-0.094963-0.1186-0.23869-0.18759-0.39062-0.1875z" style="fill-opacity:.5;fill:currentColor"/>
	<path class="ColorScheme-Text" d="m14.5 3c-0.27614 0-0.5 0.22386-0.5 0.5v10c0 0.27614 0.22386 0.5 0.5 0.5s0.5-0.22386 0.5-0.5v-0.55664c0.63639 0.65091 1.5227 1.0566 2.5 1.0566 1.9259 0 3.5-1.5741 3.5-3.5s-1.5741-3.5-3.5-3.5c-0.97725 0-1.8636 0.40573-2.5 1.0566v-4.5566c0-0.27614-0.22386-0.5-0.5-0.5zm-6.5 0.15039c-0.24849-1.82e-4 -0.47139 0.15282-0.56055 0.38477l-3.75 9.75c-0.11884 0.30959 0.035994 0.65687 0.3457 0.77539 0.30959 0.11884 0.65687-0.03599 0.77539-0.3457l0.66016-1.7148h5.0586l0.66016 1.7148c0.11852 0.30971 0.4658 0.46454 0.77539 0.3457 0.30971-0.11852 0.46454-0.4658 0.3457-0.77539l-3.75-9.75c-0.089156-0.23195-0.31205-0.38495-0.56055-0.38477zm0 2.2715 2.1445 5.5781h-4.2891zm9.5 2.7773c1.2774 0 2.3008 1.0234 2.3008 2.3008 0 1.2774-1.0234 2.3008-2.3008 2.3008s-2.3008-1.0234-2.3008-2.3008c0-1.2774 1.0234-2.3008 2.3008-2.3008zm-9.5 7.5508c-0.15193-8.8e-5 -0.29566 0.0689-0.39062 0.1875l-1.6094 2.0117-1.6094-2.0117c-0.17252-0.21586-0.48743-0.25085-0.70312-0.078125-0.21586 0.17252-0.25085 0.48743-0.078125 0.70312l2 2.5c0.20019 0.25048 0.58106 0.25048 0.78125 0l1.6094-2.0117 1.6094 2.0117c0.20019 0.25048 0.58106 0.25048 0.78125 0l1.6094-2.0117 1.6094 2.0117c0.20019 0.25048 0.58106 0.25048 0.78125 0l1.6094-2.0117 1.6094 2.0117c0.20019 0.25048 0.58106 0.25048 0.78125 0l2-2.5c0.17273-0.2157 0.13774-0.53061-0.07813-0.70312-0.2157-0.17273-0.53061-0.13774-0.70312 0.07813l-1.6094 2.0117-1.6094-2.0117c-0.20019-0.25048-0.58106-0.25048-0.78125 0l-1.6094 2.0117-1.6094-2.0117c-0.20019-0.25048-0.58106-0.25048-0.78125 0l-1.6094 2.0117-1.6094-2.0117c-0.094963-0.1186-0.23869-0.18759-0.39062-0.1875z" style="fill-opacity:.75;fill:currentColor"/>
</svg>
