<?xml version="1.0" encoding="UTF-8"?>
<!-- Created with Inkscape (http://www.inkscape.org/) -->
<svg width="64" height="64" version="1.1" xmlns="http://www.w3.org/2000/svg" xmlns:cc="http://creativecommons.org/ns#" xmlns:dc="http://purl.org/dc/elements/1.1/" xmlns:rdf="http://www.w3.org/1999/02/22-rdf-syntax-ns#" xmlns:xlink="http://www.w3.org/1999/xlink">
	<defs>
		<linearGradient id="linearGradient332481" x1="32" x2="32" y1="40" y2="35" gradientUnits="userSpaceOnUse">
			<stop stop-color="#f1f2fc" stop-opacity=".64577" offset="0"/>
			<stop stop-color="#f1f2fc" stop-opacity=".0013202" offset="1"/>
		</linearGradient>
		<linearGradient id="linearGradient332669" x1="34" x2="34" y1="39" y2="26" gradientUnits="userSpaceOnUse">
			<stop stop-color="#3e1872" stop-opacity=".35685" offset="0"/>
			<stop stop-color="#250065" stop-opacity=".028366" offset="1"/>
		</linearGradient>
		<linearGradient id="linearGradient251789" x1="11" x2="1" y1="7" y2="14" gradientUnits="userSpaceOnUse" xlink:href="#linearGradient251715"/>
		<linearGradient id="linearGradient251715">
			<stop stop-color="#370089" stop-opacity=".2297" offset="0"/>
			<stop stop-color="#4d00b0" stop-opacity="0" offset="1"/>
		</linearGradient>
		<linearGradient id="linearGradient251717" x1="30" x2="26" y1="16" y2="10" gradientUnits="userSpaceOnUse" xlink:href="#linearGradient251715"/>
		<linearGradient id="linearGradient201824" x1="54" x2="54" y1="16" y2="17" gradientUnits="userSpaceOnUse">
			<stop stop-color="#f1f2fc" offset="0"/>
			<stop stop-color="#f1f2fc" stop-opacity=".0010996" offset="1"/>
		</linearGradient>
		<radialGradient id="radialGradient251991-3" cx="44.705" cy="18.677" r="7.75" gradientTransform="matrix(1.4194,1.0043e-7,-2.3226e-7,3.4839,-18.452,-41.067)" gradientUnits="userSpaceOnUse" xlink:href="#linearGradient251715"/>
		<linearGradient id="linearGradient252365-9" x1="65" x2="60" y1="12" y2="12" gradientUnits="userSpaceOnUse" xlink:href="#linearGradient251715"/>
	</defs>
	<metadata>
		<rdf:RDF>
			<cc:Work rdf:about="">
				<dc:format>image/svg+xml</dc:format>
				<dc:type rdf:resource="http://purl.org/dc/dcmitype/StillImage"/>
			</cc:Work>
		</rdf:RDF>
	</metadata>
	<path d="m0 1 1-1h62l1 1v16h-64z" fill="#eff0fb"/>
	<path d="m0 16h64v46l-2 2h-60l-2-2z" fill="#aaabe4" stop-color="#000000" style="-inkscape-stroke:none;font-variation-settings:normal"/>
	<g fill="#4c3174" fill-opacity=".81202">
		<path d="m32 0h1v16h-1z" stop-color="#000000" style="paint-order:stroke fill markers"/>
		<path d="m12 15-11 1h29l-11-1z" stop-color="#000000" style="paint-order:stroke fill markers"/>
		<path d="m62 15 1 1h-28l17-1z" stop-color="#000000" style="-inkscape-stroke:none;font-variation-settings:normal;paint-order:stroke fill markers"/>
	</g>
	<path d="m62 16h-30.5z" fill="#6c4425" stop-color="#000000" style="paint-order:stroke fill markers"/>
	<g>
		<path d="m0 8 12 7-12 1z" fill="url(#linearGradient251789)"/>
		<path d="m32 7-13 8 10 1h3z" fill="url(#linearGradient251717)"/>
		<path d="m64 16h-64v4h64z" fill="url(#linearGradient201824)"/>
		<path d="m29 14.266 6-1v9.734l-6-1z" fill="#f8e8d8" stop-color="#000000" style="paint-order:stroke fill markers"/>
		<path d="m29 16h6v7l-6-1z" fill="#c0a997" stop-color="#000000" style="paint-order:stroke fill markers"/>
		<path d="m29 0h6v1.4904h-6z" fill="#f8e8d8" stop-color="#000000" style="paint-order:stroke fill markers"/>
	</g>
	<rect x="20.5" y="28.5" width="23" height="10" rx="5" ry="5" fill="#240055" fill-opacity=".08" stop-color="#000000" stroke="url(#linearGradient332669)" stroke-linejoin="round" stroke-opacity=".98379" style="paint-order:normal"/>
	<path d="m43.5 34.5c0 2.77-2.23 5-5 5h-13c-2.77 0-5-2.23-5-5" fill="none" stroke="url(#linearGradient332481)" stroke-linejoin="round" style="paint-order:stroke fill markers"/>
	<g transform="rotate(-67.007 19.426 56.904)">
		<path d="m31.423 49.774a8.4461 8.4461 0 0 1-8.446 8.4461 8.4461 8.4461 0 0 1-8.4461-8.446 8.4461 8.4461 0 0 1 8.446-8.4461 8.4461 8.4461 0 0 1 8.4461 8.446z" fill="#cc4a84" stop-color="#000000" stroke-opacity=".05" stroke-width="4" style="paint-order:stroke fill markers"/>
		<g transform="matrix(.17774 .41886 -.41886 .17774 27.076 23.258)" fill="#7d385f" stroke-width="2.1978">
			<path d="m51.302 21c-0.34754 0.0291-0.69273 0.0467-1.034 0.0902l0.14962 0.019793c0.25083-0.09173 0.61743-0.0496 0.88443-0.11zm-1.5158 0.1584c-0.56455 0.0343-1.3485 0.32957-1.1066 0.06162-0.921 0.41116-2.558 0.98717-3.476 1.848l-0.02861-0.19139c-0.42059 0.50487-1.8344 1.5081-1.947 2.1626l-0.11221 0.02639c-0.21848 0.37066-0.36108 0.78934-0.53459 1.1704-0.28612 0.48797-0.41916 0.18744-0.3784 0.264-0.56304 1.1415-0.84324 2.1016-1.0846 2.8886 0.17203 0.25728 0.0056 1.549 0.07041 2.5828-0.2824 5.1069 3.5836 10.065 7.8101 11.209 0.61949 0.22199 1.5397 0.21352 2.3232 0.23538-0.92423-0.26448-1.0439-0.13923-1.9448-0.4532-0.64956-0.30624-0.79143-0.65651-1.2518-1.056l0.1826 0.32341c-0.90236-0.31944-0.5241-0.3946-1.2584-0.62701l0.19358-0.25519c-0.29257-0.0224-0.77464-0.49336-0.90641-0.75462l-0.319 0.0132c-0.3843-0.4738-0.58934-0.81496-0.57421-1.0802l-0.10339 0.18479c-0.11708-0.20111-1.4168-1.7798-0.7436-1.4124-0.12504-0.11385-0.29058-0.1869-0.4708-0.5148l0.13641-0.1562c-0.32341-0.41687-0.5951-0.95064-0.57422-1.1286 0.17278 0.23318 0.29259 0.27678 0.41143 0.31681-0.81811-2.0294-0.86361-0.1117-1.4828-2.0658l0.1298-0.01105c-0.10016-0.1519-0.16145-0.31388-0.242-0.47521l0.0572-0.56981c-0.58864-0.68013-0.16445-2.8931-0.07921-4.1074 0.05843-0.49369 0.49173-1.0213 0.8206-1.8458l-0.2002-0.03301c0.38332-0.66819 2.1888-2.684 3.025-2.5806 0.40495-0.50861-0.08128-2e-3 -0.16058-0.1298 0.88969-0.92051 1.1685-0.6504 1.7688-0.81621 0.64708-0.38406-0.55535 0.14916-0.24861-0.14741 1.1194-0.28562 0.7929-0.64928 2.2528-0.7942 0.15411 0.08751-0.35574 0.135-0.48402 0.24861 0.93222-0.45641 2.9499-0.3523 4.2614 0.253 1.5206 0.71121 3.2302 2.8124 3.2978 4.7894l0.07702 0.0198c-0.03876 0.78603 0.11998 1.6953-0.15619 2.53l0.187-0.3938c0.0218 0.59905-0.17572 0.8926-0.35423 1.408l-0.32118 0.15844c-0.26278 0.51059 0.02537 0.32446-0.16281 0.7304-0.41066 0.36468-1.2444 1.1411-1.5114 1.2122-0.19512-0.0042 0.13106-0.23076 0.1738-0.31901-0.54911 0.37686-0.44044 0.56696-1.2804 0.7964l-0.02423-0.05498c-2.0707 0.97446-4.946-0.95643-4.9082-3.5904-0.02189 0.16705-0.06425 0.12428-0.10999 0.1914-0.1069-1.355 0.62742-2.7148 1.8634-3.2714 1.2089-0.5981 2.6261-0.35444 3.4914 0.45321-0.47529-0.62297-1.424-1.2822-2.5454-1.221-1.099 0.01789-2.1276 0.71558-2.4706 1.474-0.56281 0.35423-0.62832 1.3656-0.87343 1.551-0.33035 2.4262 0.62173 3.4748 2.2308 4.708 0.1263 0.08527 0.14378 0.13413 0.13421 0.1782 1.8982 0.70871 3.8601 0.53744 5.5022-0.77882 0.41812-0.32564 0.87341-0.87914 1.0054-0.8866-0.19862 0.2988 0.03384 0.14326-0.11879 0.407 0.41563-0.67144-0.18008-0.27346 0.43121-1.1594l0.22439 0.31019c-0.08452-0.55782 0.69285-1.2349 0.61382-2.1164 0.17823-0.26947 0.19993 0.29084 0.01117 0.91081 0.26225-0.68783 0.06927-0.79844 0.13639-1.3662 0.07235 0.19091 0.16665 0.3946 0.2156 0.5962-0.17101-0.66497 0.17578-1.1205 0.26181-1.507-0.08503-0.03727-0.26454 0.29445-0.30583-0.49059 0.0062-0.34106 0.09576-0.17999 0.12982-0.264-0.06661-0.03853-0.24315-0.29942-0.3498-0.8008 0.07682-0.11809 0.20699 0.30624 0.3124 0.32339-0.06788-0.39847-0.18423-0.70379-0.1892-1.0098-0.30825-0.64384-0.10902 0.08742-0.3586-0.27501-0.32812-1.0227 0.27164-0.23746 0.31242-0.70181 0.49667 0.71966 0.78029 1.8347 0.9108 2.2968-0.09943-0.56354-0.25927-1.1086-0.4554-1.6368 0.15137 0.06389-0.2442-1.1597 0.19579-0.3498-0.46958-1.7264-2.0075-3.3398-3.4232-4.0964 0.17278 0.15836 0.39046 0.3581 0.3124 0.38941-0.70449-0.41886-0.57887-0.45221-0.6798-0.62921-0.57298-0.23341-0.61312 0.01844-0.99222 0-1.0813-0.57373-1.2885-0.51225-2.2836-0.87121l0.04399 0.21121c-0.71617-0.23866-0.83437 0.08927-1.6082 0-0.04685-0.03644 0.24791-0.1319 0.4906-0.1672-0.6902 0.09067-0.65851-0.13746-1.3354 0.02418 0.16682-0.11708 0.34342-0.19535 0.52143-0.2948zm0.55878 0.1298c0.19837 0.03529 0.42907 0.06254 0.396 0.11001 0.21777-0.04798 0.26623-0.09112-0.396-0.11001zm0.396 0.11001-0.13859 0.03081 0.12759-0.01319 0.01117-0.01759zm-9.1411 4.4022c0.0579 0.53545-0.40124 0.74289 0.1034 0.3894 0.27096-0.61003-0.10689-0.16767-0.1034-0.3894zm-0.41141 1.7006c-0.32141 0.41115-0.1466 0.49914-0.18042 0.7788 0.11661-0.35722 0.13592-0.57172 0.18042-0.7788zm13.238 2.4838c-0.04597 0.0013-0.10451 0.11681-0.13421 0.2442 0.0691 0.0363 0.12452 0.47187 0.1914 0.20241 0.02263-0.33448-0.01117-0.44778-0.05718-0.44661zm4.0634 1.1264-0.055 0.1364c-0.09994 0.71046-0.3157 1.4138-0.64681 2.0658 0.36591-0.68784 0.60163-1.4398 0.70182-2.2022zm-4.3032 0.25081c-0.04995 0.24608-0.18392 0.45727-0.3102 0.682-0.6943 0.43726-0.06494-0.25837 0-0.52359-0.74627 0.94039-0.10246 0.56445-0.1298 0.8272 0.22198-0.30551 0.38308-0.64008 0.44001-0.98561zm-1.5136 1.4344c-0.30155 0.07382-0.60987 0.07428-0.9196 0.0462-0.37138 0.0048 0.0694 0.19138 0.55439 0.2662 0.1345-0.1049 0.25682-0.20949 0.36521-0.3124zm-4.6882 0.04839c0.08206 0.30103 0.25114 0.5593 0.40702 0.82282l-0.11661-0.33661c-0.12926-0.14319-0.20438-0.31517-0.2904-0.48621zm-0.286 0.50821-0.05279 0.2596c0.24436 0.33186 0.43874 0.69188 0.75021 0.95041-0.22423-0.43726-0.39064-0.61788-0.6974-1.21zm0.46862 0.3872c0.86878 1.5556 3.5257 2.727 4.917 2.145-0.64383 0.02393-1.4617 0.01421-2.1846-0.253-0.2834-0.14553-0.6598-0.43537-0.6512-0.52361-0.01337 0.03741-0.03662 0.07372-0.02199 0.1298-0.53447-0.25007-1.0251-0.6264-1.4278-1.089 0.21379 0.31247 0.44556 0.61495 0.74362 0.85361-0.50438-0.1703-1.1789-1.2201-1.375-1.2628z" fill="#d1d2ed"/>
		</g>
		<path d="m22.977 39.33c-5.7453 1.1e-5 -10.446 4.6997-10.446 10.445 1.1e-5 5.7453 4.7017 10.445 10.447 10.445 5.7453-1.1e-5 10.445-4.6997 10.444-10.445-1.1e-5 -5.7453-4.6997-10.445-10.445-10.444zm2e-6 1.9999a8.4459 8.4459 0 0 1 8.445 8.445 8.4459 8.4459 0 0 1-8.445 8.445 8.4459 8.4459 0 0 1-8.445-8.445 8.4459 8.4459 0 0 1 8.445-8.445z" color="#000000" fill="#000000" fill-opacity=".05" stroke-width=".9387" style="-inkscape-stroke:none;paint-order:stroke fill markers"/>
		<path d="m29.134 51.823 3.1767-1.6331 1.9053 3.7062-3.4489 1.1037z" fill="#e0d4cb" fill-opacity=".62131" stop-color="#000000" stroke-width="1.0806" style="paint-order:stroke fill markers"/>
		<path d="m12.439 42.924 4.7772 1.5764-1.2465 3.9766-4.5991-2.1445z" fill="#e0d4cb" fill-opacity=".62131" stop-color="#000000" stroke-width="1.0806" style="paint-order:stroke fill markers"/>
	</g>
	<path d="m39 0h8l5 15-15.5 1 3.5-8z" fill="url(#radialGradient251991-3)"/>
	<path d="m63 0-1 15 1 1 1-0.5v-14.5z" fill="url(#linearGradient252365-9)"/>
	<path d="m64 17-1-1 1-0.5z" fill="#eff0fb" stop-color="#000000" style="-inkscape-stroke:none;font-variation-settings:normal;paint-order:stroke fill markers"/>
	<path d="m0 17 1-1h-1z" fill="#eff0fb"/>
</svg>
