<?xml version="1.0" encoding="UTF-8"?>
<svg width="64" height="64" version="1.1" xmlns="http://www.w3.org/2000/svg">
	<defs>
		<linearGradient id="linearGradient82616-3" x1="53.055" x2="60.201" y1="35.97" y2="35.97" gradientUnits="userSpaceOnUse">
			<stop stop-color="#ffffff" stop-opacity=".21183" offset="0"/>
			<stop stop-color="#ffffff" stop-opacity="0" offset="1"/>
		</linearGradient>
		<linearGradient id="linearGradient70762-5" x1="82.744" x2="71" y1="79.421" y2="69" gradientTransform="translate(-34,-33)" gradientUnits="userSpaceOnUse">
			<stop stop-color="#9795c1" offset="0"/>
			<stop stop-color="#a6a4d5" offset=".25231"/>
			<stop stop-color="#b7bbcc" offset="1"/>
		</linearGradient>
		<linearGradient id="c" x1="48.918" x2="33.898" y1="46.214" y2="31.194" gradientUnits="userSpaceOnUse">
			<stop stop-color="#ffffff" stop-opacity=".38231" offset="0"/>
			<stop stop-color="#fff" stop-opacity="0" offset="1"/>
		</linearGradient>
		<radialGradient id="radialGradient83837-9" cx="29.405" cy="56.248" r="30" gradientTransform="matrix(1.8427,0,0,1.9042,-26.521,-39.268)" gradientUnits="userSpaceOnUse">
			<stop stop-color="#b0b7dd" offset="0"/>
			<stop stop-color="#c5cfe8" offset="1"/>
		</radialGradient>
		<radialGradient id="a" cx="46.762" cy="39.221" r="14.161" gradientTransform="matrix(.86297 .86297 -2.3655 2.3655 98.927 -83.343)" gradientUnits="userSpaceOnUse">
			<stop stop-color="#171032" stop-opacity=".30327" offset="0"/>
			<stop stop-color="#282253" stop-opacity=".093149" offset="1"/>
		</radialGradient>
		<linearGradient id="linearGradient65720-9" x1="61.017" x2="61.017" y1="10" gradientUnits="userSpaceOnUse">
			<stop stop-color="#9fa7d6" offset="0"/>
			<stop stop-color="#b5bcde" offset="1"/>
		</linearGradient>
	</defs>
	<path d="m4 0h60v62h-60z" fill="url(#linearGradient65720-9)"/>
	<path d="m60 2v31l-24.322 29h25.322v-59z" fill="url(#a)"/>
	<path d="m0 2h60v31l-26 31h-34z" fill="url(#radialGradient83837-9)"/>
	<g>
		<path d="m0 2h60v31l-26 31h-34z" fill="url(#c)"/>
	</g>
	<path d="m34 64 26-31c-2.3286 2.7764-4.3614 3-11 3h-12v15c0 6.6441 0.04437 9.3702-3 13z" fill="url(#linearGradient70762-5)"/>
	<path d="m60 33c-2.3286 2.7764-4.3614 3-11 3h-11.5" fill="none" stroke="url(#linearGradient82616-3)" stroke-linecap="round" stroke-opacity=".9954"/>
	<g stroke-linecap="round" stroke-linejoin="round">
		<rect y="2" width="60" height="1" fill="#ffffff" fill-opacity=".23" stop-color="#000000" style="-inkscape-stroke:none;paint-order:stroke fill markers"/>
		<rect x="4" width="60" height="1" fill="#ffffff" fill-opacity=".2" stop-color="#000000" style="-inkscape-stroke:none;paint-order:stroke fill markers"/>
		<rect transform="rotate(90)" x="2" y="-1" width="62" height="1" fill="#000000" fill-opacity=".03" stop-color="#000000" style="-inkscape-stroke:none;paint-order:stroke fill markers"/>
		<rect transform="rotate(90)" y="-5" width="2" height="1" fill="#000000" fill-opacity=".06" stop-color="#000000" style="-inkscape-stroke:none;paint-order:stroke fill markers"/>
	</g>
	<path d="m9.8543 17.823c-1.1119 1.1119-1.2032 2.8683-0.28756 4.0952l1.289-1.289c-0.2493-0.50182-0.15878-1.1104 0.26773-1.5369l5.7115-5.7115c0.4265-0.4265 1.0351-0.51703 1.5369-0.26773l1.289-1.289c-1.2269-0.91565-2.9833-0.82435-4.0952 0.28756zm-3.7878 8.8647c0.19496 0.22338 0.402 0.44166 0.61478 0.65444 0.21277 0.21277 0.43106 0.41982 0.65444 0.61478l7.1195-7.1195a0.89756 0.89756 0 1 0-1.2692-1.2692zm11.185-11.185a0.89846 0.89846 0 1 0 1.3287 1.2097l7.1195-7.1195c-0.19496-0.22338-0.402-0.44166-0.61478-0.65444-0.21277-0.21277-0.43106-0.41982-0.65444-0.61478l-7.1195 7.1195a0.89756 0.89756 0 0 0-0.0595 0.0595zm-5.1463 8.9539c1.2269 0.91565 2.9833 0.82435 4.0952-0.28756l5.7115-5.7115c1.1119-1.1119 1.2032-2.8683 0.28756-4.0952l-1.289 1.289c0.2493 0.50182 0.15878 1.1104-0.26772 1.5369l-5.7115 5.7115c-0.4265 0.4265-1.0351 0.51703-1.5369 0.26772z" fill="#1f3159" fill-opacity=".67" stop-color="#000000" style="-inkscape-stroke:none;font-variation-settings:normal"/>
</svg>
