<?xml version="1.0" encoding="UTF-8"?>
<!-- Created with Inkscape (http://www.inkscape.org/) -->
<svg width="64" height="64" version="1.1" xmlns="http://www.w3.org/2000/svg" xmlns:cc="http://creativecommons.org/ns#" xmlns:dc="http://purl.org/dc/elements/1.1/" xmlns:rdf="http://www.w3.org/1999/02/22-rdf-syntax-ns#">
	<defs>
		<linearGradient id="linearGradient82616" x1="53.055" x2="60.201" y1="35.97" y2="35.97" gradientUnits="userSpaceOnUse">
			<stop stop-color="#83ff4b" stop-opacity=".19094" offset="0"/>
			<stop stop-color="#ffffff" stop-opacity="0" offset="1"/>
		</linearGradient>
		<linearGradient id="linearGradient70762" x1="82.744" x2="71" y1="79.421" y2="69" gradientTransform="translate(-34,-33)" gradientUnits="userSpaceOnUse">
			<stop stop-color="#496f2f" offset="0"/>
			<stop stop-color="#447c2c" offset=".25231"/>
			<stop stop-color="#528f24" offset="1"/>
		</linearGradient>
		<linearGradient id="c-7" x1="48.918" x2="33.898" y1="46.214" y2="31.194" gradientUnits="userSpaceOnUse">
			<stop stop-color="#adff86" stop-opacity=".25627" offset="0"/>
			<stop stop-color="#26ff0d" stop-opacity="0" offset="1"/>
		</linearGradient>
		<radialGradient id="radialGradient83837" cx="29.526" cy="55.944" r="30" gradientTransform="matrix(1.8427,0,0,1.9042,-26.521,-39.268)" gradientUnits="userSpaceOnUse">
			<stop stop-color="#3b9a6b" offset="0"/>
			<stop stop-color="#5ca03f" offset="1"/>
		</radialGradient>
		<radialGradient id="a-5" cx="46.762" cy="39.221" r="14.161" gradientTransform="matrix(.86297 .86297 -2.3655 2.3655 98.927 -83.343)" gradientUnits="userSpaceOnUse">
			<stop stop-color="#111531" stop-opacity=".2792" offset="0"/>
			<stop stop-color="#282253" stop-opacity=".0039216" offset="1"/>
		</radialGradient>
		<linearGradient id="linearGradient65720" x1="61.017" x2="61.017" y1="10" gradientUnits="userSpaceOnUse">
			<stop stop-color="#387024" offset="0"/>
			<stop stop-color="#589e1a" offset="1"/>
		</linearGradient>
	</defs>
	<metadata>
		<rdf:RDF>
			<cc:Work rdf:about="">
				<dc:format>image/svg+xml</dc:format>
				<dc:type rdf:resource="http://purl.org/dc/dcmitype/StillImage"/>
			</cc:Work>
		</rdf:RDF>
	</metadata>
	<path d="m4 0h60v62h-60z" fill="url(#linearGradient65720)"/>
	<path d="m60 2v31l-24.322 29h25.322v-59z" fill="url(#a-5)"/>
	<path d="m0 2h60v31l-26 31h-34z" fill="url(#radialGradient83837)"/>
	<g>
		<path d="m0 2h60v31l-26 31h-34z" fill="url(#c-7)"/>
	</g>
	<path d="m34 64 26-31c-2.3286 2.7764-4.3614 3-11 3h-12v15c0 6.6441 0.04437 9.3702-3 13z" fill="url(#linearGradient70762)"/>
	<path d="m60 33c-2.3286 2.7764-4.3614 3-11 3h-11.5" fill="none" stroke="url(#linearGradient82616)" stroke-linecap="round" stroke-opacity=".9954"/>
	<g stroke-linecap="round" stroke-linejoin="round">
		<rect y="2" width="60" height="1" fill="#94ff4c" fill-opacity=".16745" stop-color="#000000" style="-inkscape-stroke:none;paint-order:stroke fill markers"/>
		<rect x="4" width="60" height="1" fill="#94ff4c" fill-opacity=".14975" stop-color="#000000" style="-inkscape-stroke:none;paint-order:stroke fill markers"/>
		<rect transform="rotate(90)" x="2" y="-1" width="62" height="1" fill="#000000" fill-opacity=".03" stop-color="#000000" style="-inkscape-stroke:none;paint-order:stroke fill markers"/>
		<rect transform="rotate(90)" y="-5" width="2" height="1" fill="#000000" fill-opacity=".06" stop-color="#000000" style="-inkscape-stroke:none;paint-order:stroke fill markers"/>
	</g>
	<path d="m5 7v15h24v-15h-22.59zm1 2h4v3h-4zm5 0h8v3h-8zm9 0h8v3h-8zm-14 4h4v3h-4zm5 0h8v3h-8zm9 0h8v3h-8zm-14 4h4v3h-4zm5 0h8v3h-8zm9 0h8v3h-8z" color="#000000" fill="#dbe6ea"/>
	<path d="m47 7c-0.554 0-1 0.446-1 1v7c0 0.554 0.446 1 1 1h3v-2h-2v-5h5v2h2v-3c0-0.554-0.446-1-1-1zm6.5 6c-0.8284 0-1.5 0.6716-1.5 1.5s0.6716 1.5 1.5 1.5 1.5-0.6716 1.5-1.5-0.6716-1.5-1.5-1.5z" color="#000000" fill="#dbe6ea" stop-color="#000000" style="-inkscape-stroke:none;font-variation-settings:normal"/>
</svg>
