<?xml version="1.0" encoding="UTF-8"?>
<!-- Created with Inkscape (http://www.inkscape.org/) -->
<svg width="64" height="64" version="1.1" xmlns="http://www.w3.org/2000/svg" xmlns:cc="http://creativecommons.org/ns#" xmlns:dc="http://purl.org/dc/elements/1.1/" xmlns:rdf="http://www.w3.org/1999/02/22-rdf-syntax-ns#" xmlns:xlink="http://www.w3.org/1999/xlink">
	<defs>
		<linearGradient id="linearGradient332481" x1="32" x2="32" y1="40" y2="35" gradientUnits="userSpaceOnUse">
			<stop stop-color="#ffffff" stop-opacity=".37159" offset="0"/>
			<stop stop-color="#ffffff" stop-opacity="0" offset="1"/>
		</linearGradient>
		<linearGradient id="linearGradient332669" x1="34" x2="34" y1="39" y2="26" gradientUnits="userSpaceOnUse">
			<stop stop-color="#33251b" stop-opacity=".55435" offset="0"/>
			<stop stop-color="#33251b" stop-opacity="0" offset="1"/>
		</linearGradient>
		<linearGradient id="linearGradient251789" x1="11" x2="1" y1="7" y2="14" gradientUnits="userSpaceOnUse" xlink:href="#linearGradient251715"/>
		<linearGradient id="linearGradient251715">
			<stop stop-color="#342d27" stop-opacity=".21124" offset="0"/>
			<stop stop-color="#342d27" stop-opacity="0" offset="1"/>
		</linearGradient>
		<linearGradient id="linearGradient251717" x1="30" x2="26" y1="16" y2="10" gradientUnits="userSpaceOnUse" xlink:href="#linearGradient251715"/>
		<radialGradient id="radialGradient251991" cx="44.705" cy="18.677" r="7.75" gradientTransform="matrix(1.4194,1.0043e-7,-2.3226e-7,3.4839,-18.452,-41.067)" gradientUnits="userSpaceOnUse" xlink:href="#linearGradient251715"/>
		<linearGradient id="linearGradient252365" x1="65" x2="60" y1="12" y2="12" gradientUnits="userSpaceOnUse" xlink:href="#linearGradient251715"/>
		<linearGradient id="linearGradient201824" x1="54" x2="54" y1="16" y2="17" gradientUnits="userSpaceOnUse">
			<stop stop-color="#ffffff" stop-opacity=".43483" offset="0"/>
			<stop stop-color="#ffffff" stop-opacity="0" offset="1"/>
		</linearGradient>
		<radialGradient id="b-9" cx="23.137" cy="54.02" r="32" gradientTransform="matrix(1.3446 0 0 1.0085 -11.582 .8623)" gradientUnits="userSpaceOnUse">
			<stop stop-color="#8d5f3b" offset="0"/>
			<stop stop-color="#9d6d45" offset="1"/>
		</radialGradient>
		<radialGradient id="a-7" cx="32.542" cy="-22.639" r="32" gradientTransform="matrix(0 .48729 -1.791 0 -8.0044 -15.629)" gradientUnits="userSpaceOnUse">
			<stop stop-color="#e6b990" offset="0"/>
			<stop stop-color="#eabd94" offset="1"/>
		</radialGradient>
	</defs>
	<metadata>
		<rdf:RDF>
			<cc:Work rdf:about="">
				<dc:format>image/svg+xml</dc:format>
				<dc:type rdf:resource="http://purl.org/dc/dcmitype/StillImage"/>
			</cc:Work>
		</rdf:RDF>
	</metadata>
	<path d="m0 1 1-1h62l1 1v16h-64z" fill="url(#a-7)"/>
	<path d="m0 16h64v46l-2 2h-60l-2-2z" color="#000000" fill="#ae7f45"/>
	<path d="m0 16h64v46l-2 2h-60l-2-2z" fill="url(#b-9)"/>
	<path d="m64 17-1-1 1-0.5z" fill="#be9156"/>
	<path d="m0 17 1-1h-1z" fill="#be9156"/>
	<g fill="#4f3522" fill-opacity=".74824">
		<path d="m32 0h1v16h-1z" stop-color="#000000" style="paint-order:stroke fill markers"/>
		<path d="m62 15 1 1h-28l17-1z" stop-color="#000000" style="paint-order:stroke fill markers"/>
		<path d="m12 15-11 1h29l-11-1z" stop-color="#000000" style="paint-order:stroke fill markers"/>
	</g>
	<path d="m62 16h-30.5z" fill="#6c4425" stop-color="#000000" style="paint-order:stroke fill markers"/>
	<g>
		<path d="m0 8 12 7-12 1z" fill="url(#linearGradient251789)"/>
		<path d="m32 7-13 8 10 1h3z" fill="url(#linearGradient251717)"/>
		<path d="m39 0h8l5 15-15.5 1 3.5-8z" fill="url(#radialGradient251991)"/>
		<path d="m63 0-1 15 1 1 1-0.5v-14.5z" fill="url(#linearGradient252365)"/>
		<path d="m64 16h-64v4h64z" fill="url(#linearGradient201824)"/>
		<path d="m29 14.266 6-1v9.734l-6-1z" fill="#f8e8d8" stop-color="#000000" style="paint-order:stroke fill markers"/>
		<path d="m29 16h6v7l-6-1z" fill="#c0a997" stop-color="#000000" style="paint-order:stroke fill markers"/>
		<path d="m29 0h6v1.4904h-6z" fill="#f8e8d8" stop-color="#000000" style="paint-order:stroke fill markers"/>
	</g>
	<g fill="none" stroke-linejoin="round">
		<rect x="20.5" y="28.5" width="23" height="10" rx="5" ry="5" stop-color="#000000" stroke="url(#linearGradient332669)" stroke-opacity=".98379" style="paint-order:stroke fill markers"/>
		<path d="m43.5 34.5c0 2.77-2.23 5-5 5h-13c-2.77 0-5-2.23-5-5" stop-color="#000000" stroke="url(#linearGradient332481)" stroke-opacity=".36685" style="paint-order:stroke fill markers"/>
	</g>
	<g transform="matrix(.93562 .076377 -.076377 .93562 19.303 2.0206)">
		<path d="m3.0982 43.717 27.807-2.4718 1.5281 17.19-27.807 2.4718z" fill="#c0a997"/>
		<g stroke-linecap="round" stroke-linejoin="round">
			<path d="m30.716 39.122-27.805 2.4724a2.1307 2.1307 0 0 0-1.9343 2.3101l1.5265 17.191a2.1307 2.1307 0 0 0 2.312 1.9321l27.805-2.4724a2.1307 2.1307 0 0 0 1.9323-2.3099l-1.5264-17.188a2.1307 2.1307 0 0 0-2.3101-1.9343zm0.18786 2.1222 1.5286 17.19-27.806 2.4703-1.5284-17.188 27.805-2.4724z" color="#000000" fill="#000000" fill-opacity=".05" stroke-width=".99996" style="-inkscape-stroke:none;paint-order:stroke fill markers"/>
			<path d="m45.979 24.842a8.9973 8.9973 0 0 1-8.2354 9.6995 8.9973 8.9973 0 0 1-9.6995-8.2354 8.9973 8.9973 0 0 1 8.2354-9.6995 8.9973 8.9973 0 0 1 9.6995 8.2354z" fill="#d9567e" stop-color="#000000" stroke-opacity=".05" stroke-width="4.2611" style="paint-order:stroke fill markers"/>
			<path d="m36.105 14.484c-6.1 0.49797-10.684 5.8952-10.186 11.995 0.49797 6.1 5.8972 10.682 11.997 10.184 6.1-0.49797 10.682-5.8951 10.184-11.995-0.49797-6.1-5.8951-10.682-11.995-10.184zm0.17334 2.1234a8.9971 8.9971 0 0 1 9.6983 8.2344 8.9971 8.9971 0 0 1-8.2344 9.6983 8.9971 8.9971 0 0 1-9.6983-8.2344 8.9971 8.9971 0 0 1 8.2344-9.6983z" color="#000000" fill="#000000" fill-opacity=".05" stroke-width=".99996" style="-inkscape-stroke:none;paint-order:stroke fill markers"/>
		</g>
		<path d="m20.309 47.347 0.61814 6.9537 1.2643-0.11239-0.26453-2.9758 1.0793-0.09595c0.30314-0.02694 0.48569-0.0463 0.53965-0.04796 0.08329 0.11354 0.30916 0.48243 0.67328 1.1056l0.96346 1.7482 1.4031-0.12472-1.2236-2.0513c-0.29894-0.49855-0.53911-0.83021-0.72673-1.0077 0.81097-0.36489 1.1692-1.0084 1.0871-1.9305-0.02779-0.31261-0.09053-0.58641-0.19599-0.80622-0.1026-0.2232-0.23067-0.39573-0.38856-0.52491-0.15474-0.12945-0.35968-0.22716-0.60064-0.2885-0.23809-0.06476-0.47801-0.09661-0.73975-0.10518-0.25859-0.0088-0.56331 0.0034-0.91386 0.0346zm-11.362 1.0256 0.091829 1.033 2.0198-0.17955 0.52496 5.9055 1.2952-0.11513-0.52497-5.9055 2.0044-0.17818-0.09183-1.033zm7.0773-0.62913-1.9427 7.1661 1.3414-0.11924 0.51979-2.0199 2.4361-0.21656 0.85251 1.8978 1.326-0.11787-3.13-6.7152zm5.6343 0.4471 1.4802-0.13158c0.44839-0.03986 0.79058 5.15e-4 1.0228 0.14219 0.2322 0.14168 0.36063 0.3857 0.39095 0.72672 0.03452 0.3884-0.04941 0.68086-0.2484 0.87683-0.19929 0.19276-0.54799 0.31291-1.0406 0.35669l-0.70924 0.06304c-0.42342 0.03451-0.66188 0.05884-0.70924 0.06304zm-4.8182 0.69249c0.02111 0.0586 0.39933 0.97199 1.1296 2.7434l-1.7885 0.15899z" color="#000000" fill="#57473a"/>
		<path d="m2.5773 50.301 3.4964 1.5013-0.96395 2.7664-4.0338-0.77138z" fill="#e0d4cb" fill-opacity=".62131" stop-color="#000000" stroke-width="1.1511" style="paint-order:stroke fill markers"/>
		<path d="m29.947 48.911 3.2313-2.0093 2.3442 3.7699-3.5662 1.4708z" fill="#e0d4cb" fill-opacity=".62131" stop-color="#000000" stroke-width="1.1511" style="paint-order:stroke fill markers"/>
		<path d="m32.18 24.031 0.31427 3.8498 2.1999-0.17958-0.04488-0.54996-1.4794 0.10347-0.26656-3.2654zm2.7498-0.22448 0.31427 3.8498 0.70463-0.05753-0.13469-1.6499 0.75622-0.06174c0.16749-0.01364 0.27955-0.0246 0.30936-0.02525 0.04554 0.06302 0.16267 0.26503 0.36127 0.61064l0.52962 0.97749 0.77337-0.06314-0.68115-1.1382c-0.16309-0.2765-0.28852-0.45753-0.39143-0.55628 0.44927-0.19826 0.64629-0.56063 0.60471-1.0701-0.01403-0.17274-0.03071-0.32086-0.08804-0.44264-0.05576-0.12366-0.14482-0.22055-0.23149-0.29252-0.08493-0.07211-0.19197-0.12897-0.32479-0.1638-0.13122-0.0367-0.2578-0.04788-0.4023-0.05367-0.14276-0.0059-0.32472-0.0081-0.5184 0.0077zm3.7997-0.29288 0.04631 0.56715 1.9593-0.15994-1.8165 2.9683 0.03787 0.46403 2.8873-0.2357-0.04631-0.56715-1.9936 0.16275 1.7505-2.9283-0.0407-0.49841zm-3.0529 0.75094 0.9796-0.07997c0.24776-0.02023 0.43353 0.01345 0.56119 0.09259 0.12766 0.07916 0.20874 0.22579 0.22413 0.41423 0.01749 0.21461-0.04191 0.35489-0.15258 0.46228-0.11081 0.10566-0.29952 0.18015-0.57171 0.20238l-0.56715 0.04631c-0.23395 0.0173-0.35193 0.02873-0.3781 0.03086z" color="#000000" fill="#512835" stroke-width="1.0653"/>
		<path d="m43.725 27.215 3.2313-2.0093 2.3442 3.7699-3.5662 1.4708z" fill="#e0d4cb" fill-opacity=".62131" stop-color="#000000" stroke-width="1.1511" style="paint-order:stroke fill markers"/>
		<path d="m25.228 19.213 5.2087 1.2597-0.97881 4.3301-5.0689-1.8783z" fill="#e0d4cb" fill-opacity=".62131" stop-color="#000000" stroke-width="1.1511" style="paint-order:stroke fill markers"/>
	</g>
</svg>
