<?xml version="1.0" encoding="UTF-8"?>
<!-- Created with Inkscape (http://www.inkscape.org/) -->
<svg width="64" height="64" version="1.1" xmlns="http://www.w3.org/2000/svg" xmlns:cc="http://creativecommons.org/ns#" xmlns:dc="http://purl.org/dc/elements/1.1/" xmlns:rdf="http://www.w3.org/1999/02/22-rdf-syntax-ns#">
	<metadata>
		<rdf:RDF>
			<cc:Work rdf:about="">
				<dc:format>image/svg+xml</dc:format>
				<dc:type rdf:resource="http://purl.org/dc/dcmitype/StillImage"/>
			</cc:Work>
		</rdf:RDF>
	</metadata>
	<path d="m0 1 2-1h60l2 1v15h-64z" fill="#f29f5f"/>
	<path d="m0 15h64v47l-2 2h-60l-2-2z" fill="#a56637"/>
	<path d="m0 15h64v47l-2 2h-60l-2-2z" fill="#cb6f2b"/>
	<path d="m64 17-2-2 2-1z" fill="#dc8442"/>
	<path d="m0 17 2-2-2-1z" fill="#eda166"/>
	<path d="m31.782 24h16.436l-8.3575 9h3.8l-8.3575 9h4l-13.929 15 4.6814-11h-4l4.2558-10h-3.6364z" color="#000000" fill="#570000" fill-opacity=".08863"/>
	<path d="m30.425 24.145 15-4-9 12 5-1-8 12 4-1-14 17 5-14-4 1 5-11-5 1z" color="#000000" fill="#f6e3b8" fill-opacity=".93912"/>
</svg>
