<?xml version="1.0" encoding="UTF-8"?>
<svg width="64" height="64" version="1.1" xmlns="http://www.w3.org/2000/svg">
	<defs>
		<linearGradient id="linearGradient82616" x1="53.055" x2="60.201" y1="35.97" y2="35.97" gradientUnits="userSpaceOnUse">
			<stop stop-color="#ff94fb" stop-opacity=".087476" offset="0"/>
			<stop stop-color="#ffffff" stop-opacity="0" offset="1"/>
		</linearGradient>
		<linearGradient id="linearGradient70762" x1="82.744" x2="71" y1="79.421" y2="69" gradientTransform="translate(-34,-33)" gradientUnits="userSpaceOnUse">
			<stop stop-color="#5d3da3" offset="0"/>
			<stop stop-color="#6141b9" offset=".25231"/>
			<stop stop-color="#7651d2" offset="1"/>
		</linearGradient>
		<linearGradient id="linearGradient79106" x1="-53.516" x2="-23.435" y1="19.884" y2="49.965" gradientTransform="translate(68.672)" gradientUnits="userSpaceOnUse">
			<stop stop-color="#8d4ced" stop-opacity=".0016706" offset="0"/>
			<stop stop-color="#a945f3" stop-opacity=".61537" offset="1"/>
		</linearGradient>
		<radialGradient id="radialGradient83837-2" cx="29.526" cy="55.944" r="30" gradientTransform="matrix(1.8427,0,0,1.9042,-26.521,-39.268)" gradientUnits="userSpaceOnUse">
			<stop stop-color="#6e59e2" offset="0"/>
			<stop stop-color="#9257e3" offset="1"/>
		</radialGradient>
		<radialGradient id="a-5-2" cx="46.762" cy="39.221" r="14.161" gradientTransform="matrix(.86297 .86297 -2.3655 2.3655 98.927 -83.343)" gradientUnits="userSpaceOnUse">
			<stop stop-color="#27083a" stop-opacity=".3511" offset="0"/>
			<stop stop-color="#282253" stop-opacity=".0039216" offset="1"/>
		</radialGradient>
		<linearGradient id="linearGradient65720-9" x1="61.017" x2="61.017" y1="10" gradientUnits="userSpaceOnUse">
			<stop stop-color="#5b3cb8" offset="0"/>
			<stop stop-color="#764de7" offset="1"/>
		</linearGradient>
	</defs>
	<path d="m4 0h60v62h-60z" fill="url(#linearGradient65720-9)"/>
	<path d="m60 2v31l-24.322 29h25.322v-59z" fill="url(#a-5-2)"/>
	<path d="m0 2h60v31l-26 31h-34z" fill="url(#radialGradient83837-2)"/>
	<g>
		<path d="m0 2h60v31l-26 31h-34z" fill="url(#linearGradient79106)"/>
	</g>
	<path d="m34 64 26-31c-2.3286 2.7764-4.3614 3-11 3h-12v15c0 6.6441 0.04437 9.3702-3 13z" fill="url(#linearGradient70762)"/>
	<path d="m60 33c-2.3286 2.7764-4.3614 3-11 3h-11.5" fill="none" stroke="url(#linearGradient82616)" stroke-linecap="round" stroke-opacity=".9954"/>
	<g stroke-linecap="round" stroke-linejoin="round">
		<rect y="2" width="60" height="1" fill="#ff6df9" fill-opacity=".17493" stop-color="#000000" style="-inkscape-stroke:none;paint-order:stroke fill markers"/>
		<rect x="4" width="60" height="1" fill="#ff97fb" fill-opacity=".10927" stop-color="#000000" style="-inkscape-stroke:none;paint-order:stroke fill markers"/>
		<rect transform="rotate(90)" x="2" y="-1" width="62" height="1" fill="#000000" fill-opacity=".03" stop-color="#000000" style="-inkscape-stroke:none;paint-order:stroke fill markers"/>
		<rect transform="rotate(90)" y="-5" width="2" height="1" fill="#000000" fill-opacity=".06" stop-color="#000000" style="-inkscape-stroke:none;paint-order:stroke fill markers"/>
	</g>
	<path d="m16.701 7.0273-10.701 6.1855v12.369l10.701 6.1855 10.699-6.1855v-0.28906-12.08l-10.699-6.1855zm0 1.1543 9.6992 5.6074v11.215l-9.6992 5.6074-9.7012-5.6074v-11.215l9.7012-5.6074zm0.029297 3.8398c-0.61038 0.006793-1.227 0.088592-1.8359 0.25195-3.2475 0.8712-5.5215 3.8406-5.5215 7.2031 1.64e-5 3.3625 2.274 6.3319 5.5215 7.2031 3.2476 0.87124 6.703-0.56174 8.3828-3.4746l-4.1445-2.3906c-0.60982 1.0575-1.8224 1.5576-2.998 1.2422-1.1756-0.31537-1.9766-1.3581-1.9766-2.5801 6e-6 -1.222 0.80097-2.2647 1.9766-2.5801 1.1756-0.31538 2.3882 0.18667 2.998 1.2441l4.1445-2.3926c-1.2598-2.1847-3.5187-3.5367-5.9395-3.709-0.20173-0.014355-0.40396-0.019842-0.60742-0.017578zm4.2695 5.9785v1h-1v1h1v1h1v-1h1v1h1v-1h1v-1h-1v-1h-1v1h-1v-1h-1z" color="#000000" fill="#ffdefd" style="-inkscape-stroke:none"/>
</svg>
