<?xml version="1.0" encoding="UTF-8"?>
<svg width="64" height="64" version="1.1" xmlns="http://www.w3.org/2000/svg">
	<defs>
		<linearGradient id="linearGradient82616" x1="53.055" x2="60.201" y1="35.97" y2="35.97" gradientUnits="userSpaceOnUse">
			<stop stop-color="#ffffff" stop-opacity=".21183" offset="0"/>
			<stop stop-color="#ffffff" stop-opacity="0" offset="1"/>
		</linearGradient>
		<linearGradient id="linearGradient70762-7" x1="82.744" x2="71" y1="79.421" y2="69" gradientTransform="translate(-34,-33)" gradientUnits="userSpaceOnUse">
			<stop stop-color="#9795c1" offset="0"/>
			<stop stop-color="#a6a4d5" offset=".25231"/>
			<stop stop-color="#b7bbcc" offset="1"/>
		</linearGradient>
		<linearGradient id="c" x1="48.918" x2="33.898" y1="46.214" y2="31.194" gradientUnits="userSpaceOnUse">
			<stop stop-color="#ffffff" stop-opacity=".38231" offset="0"/>
			<stop stop-color="#fff" stop-opacity="0" offset="1"/>
		</linearGradient>
		<radialGradient id="radialGradient83837-2" cx="29.405" cy="56.248" r="30" gradientTransform="matrix(1.8427,0,0,1.9042,-26.521,-39.268)" gradientUnits="userSpaceOnUse">
			<stop stop-color="#b0b7dd" offset="0"/>
			<stop stop-color="#c5cfe8" offset="1"/>
		</radialGradient>
		<radialGradient id="a" cx="46.762" cy="39.221" r="14.161" gradientTransform="matrix(.86297 .86297 -2.3655 2.3655 98.927 -83.343)" gradientUnits="userSpaceOnUse">
			<stop stop-color="#171032" stop-opacity=".30327" offset="0"/>
			<stop stop-color="#282253" stop-opacity=".093149" offset="1"/>
		</radialGradient>
		<linearGradient id="linearGradient65720-0" x1="61.017" x2="61.017" y1="10" gradientUnits="userSpaceOnUse">
			<stop stop-color="#9fa7d6" offset="0"/>
			<stop stop-color="#b5bcde" offset="1"/>
		</linearGradient>
	</defs>
	<path d="m4 0h60v62h-60z" fill="url(#linearGradient65720-0)"/>
	<path d="m60 2v31l-24.322 29h25.322v-59z" fill="url(#a)"/>
	<path d="m0 2h60v31l-26 31h-34z" fill="url(#radialGradient83837-2)"/>
	<g>
		<path d="m0 2h60v31l-26 31h-34z" fill="url(#c)"/>
	</g>
	<path d="m34 64 26-31c-2.3286 2.7764-4.3614 3-11 3h-12v15c0 6.6441 0.04437 9.3702-3 13z" fill="url(#linearGradient70762-7)"/>
	<path d="m60 33c-2.3286 2.7764-4.3614 3-11 3h-11.5" fill="none" stroke="url(#linearGradient82616)" stroke-linecap="round" stroke-opacity=".9954"/>
	<g stroke-linecap="round" stroke-linejoin="round">
		<rect y="2" width="60" height="1" fill="#ffffff" fill-opacity=".23" stop-color="#000000" style="-inkscape-stroke:none;paint-order:stroke fill markers"/>
		<rect x="4" width="60" height="1" fill="#ffffff" fill-opacity=".2" stop-color="#000000" style="-inkscape-stroke:none;paint-order:stroke fill markers"/>
		<rect transform="rotate(90)" x="2" y="-1" width="62" height="1" fill="#000000" fill-opacity=".03" stop-color="#000000" style="-inkscape-stroke:none;paint-order:stroke fill markers"/>
		<rect transform="rotate(90)" y="-5" width="2" height="1" fill="#000000" fill-opacity=".06" stop-color="#000000" style="-inkscape-stroke:none;paint-order:stroke fill markers"/>
	</g>
	<path d="m13.5 7c-4.683 0-8.5 3.817-8.5 8.5h2.031c0-3.602 2.867-6.469 6.469-6.469s6.469 2.867 6.469 6.469-2.867 6.5-6.469 6.5c-0.6474 0-1.287-0.09104-1.906-0.2812l-0.5938 1.906c0.8092 0.2487 1.653 0.375 2.5 0.375 4.683 0 8.5-3.817 8.5-8.5s-3.817-8.5-8.5-8.5zm0 19c-1.105 0-2 0.8954-2 2s0.8954 2 2 2 2-0.8954 2-2-0.8954-2-2-2z" fill="#1f3159" fill-opacity=".67" stop-color="#000000" style="-inkscape-stroke:none;font-variation-settings:normal"/>
</svg>
