<?xml version="1.0" encoding="UTF-8"?>
<svg id="n" width="64" height="64" version="1.1" xmlns="http://www.w3.org/2000/svg" xmlns:cc="http://creativecommons.org/ns#" xmlns:dc="http://purl.org/dc/elements/1.1/" xmlns:rdf="http://www.w3.org/1999/02/22-rdf-syntax-ns#" xmlns:xlink="http://www.w3.org/1999/xlink">
	<defs id="ab">
		<radialGradient id="b" cx="44.556" cy=".60247" r="32" gradientTransform="matrix(.187 -.01164 .17013 2.7333 19.065 1.0014)" gradientUnits="userSpaceOnUse" xlink:href="#a"/>
		<linearGradient id="a">
			<stop id="g" style="stop-color:#fff220;stop-opacity:.69458" offset="0"/>
			<stop id="k" style="stop-color:#ff8200;stop-opacity:.001903" offset="1"/>
		</linearGradient>
		<radialGradient id="d" cx="105.85" cy="72.047" r="32" gradientTransform="matrix(.8465 0 -.00016842 3.762 -69.198 -282.39)" gradientUnits="userSpaceOnUse" xlink:href="#a"/>
		<radialGradient id="h" cx="21.868" cy="34.504" r="16.085" gradientTransform="matrix(1.8394 0 0 2.6419 -11.545 -50.811)" gradientUnits="userSpaceOnUse" xlink:href="#a"/>
		<radialGradient id="f" cx="22.859" cy="41.438" r="10.494" gradientTransform="matrix(4.1094 0 0 6.4357 -65.294 -237.5)" gradientUnits="userSpaceOnUse" xlink:href="#a"/>
		<radialGradient id="e" cx="20.234" cy="21.542" r="11.081" gradientTransform="matrix(6.2436 0 0 10.389 -134.71 -186.89)" gradientUnits="userSpaceOnUse" xlink:href="#a"/>
	</defs>
	<metadata id="u">
		<rdf:RDF>
			<cc:Work rdf:about="">
				<dc:format>image/svg+xml</dc:format>
				<dc:type rdf:resource="http://purl.org/dc/dcmitype/StillImage"/>
				<dc:title/>
			</cc:Work>
		</rdf:RDF>
	</metadata>
	<path id="az" d="m0 1v44.525c0 2.8765 10.732 9.6742 20 14.174l2.0508 0.97656c4.321 1.9823 8.0935 3.3242 9.9492 3.3242 1.8632 0 5.6569-1.3521 10-3.3477l2.0117-0.95898c9.2653-4.4995 19.988-11.293 19.988-14.168v-44.525s-21.328-1-32-1-32 0.99996-32 0.99996z" style="fill:#96691a"/>
	<path id="ah" d="m0 1v44.525c0 2.8765 10.732 9.6742 20 14.174l2.0508 0.97656c4.321 1.9823 8.0935 3.3242 9.9492 3.3242 1.8632 0 5.6569-1.3521 10-3.3477l2.0117-0.95898c9.2653-4.4995 19.988-11.293 19.988-14.168v-44.525s-21.328-1-32-1-32 0.99996-32 0.99996z" style="fill:url(#b)"/>
	<path id="c" d="m0 1v44.525c0 2.8765 10.732 9.6742 20 14.174l2.0508 0.97656c4.321 1.9823 8.0935 3.3242 9.9492 3.3242 1.8632 0 5.6569-1.3521 10-3.3477l2.0117-0.95898c9.2653-4.4995 19.988-11.293 19.988-14.168v-44.525s-21.328-1-32-1-32 0.99996-32 0.99996z" style="fill:url(#d)"/>
	<path id="v" d="m0 1s21.328 1 32 1 32-1 32-1-21.328-1-32-1-32 1-32 1z" style="color:#000000;fill:#fff546"/>
	<path id="p" d="m0 8.7168v36.809c0 1.7489 3.9884 4.9491 9.1816 8.1992l20.988-25.295-30.17-19.713z" style="fill:url(#h);paint-order:normal"/>
	<path id="q" d="m30.17 28.43-20.988 25.295c0.019736 0.012352 0.036869 0.024757 0.056641 0.03711 3.3346 2.0834 7.15 4.1839 10.762 5.9375l0.99609 0.47461 9.1738-31.744z" style="fill:url(#f);paint-order:normal"/>
	<path id="m" d="m52.332 9.9921-12.199 31.381 22.162 5.4941z" style="fill:url(#e);paint-order:normal"/>
	<path id="i" d="m0 7.3477v0.79102l46.562 50.262c1.486-0.76658 2.9737-1.5585 4.4297-2.3867l-50.992-48.666z" style="fill-opacity:.15033;fill:#96691a;paint-order:normal"/>
	<g id="w">
		<path id="o" d="m0 7.7695v1.1309c3.1315 0.38358 6.2865 0.55321 9.4824 0.84375 6.2392 0.5672 12.453 1.5396 18.699 2.1074 0.70822 0.064384 1.4096 0.12931 2.1152 0.19336-1.4495 0.19238-2.8994 0.3679-4.3535 0.46484-7.9858 0.53239-17.243 1.5993-25.943 3.2852v5.8652c2.4489-0.26974 4.8983-0.53214 7.375-0.72266 6.3273-0.48672 12.686-1.2161 18.963-1.8438 2.0861-0.20861 4.2342 0.20861 6.3203 0 5.4149-0.54148 10.895-0.33616 16.33-0.78906 4.6737-0.38947 9.3639-0.20531 14.035-0.46094 0.32561 0.12708 0.65145 0.25146 0.97656 0.38086v-9.1895c-2.1789 0.18107-4.355 0.40854-6.5312 0.64062-1.3306-0.12603-2.6641-0.24243-4.0039-0.32617-13.312-0.83199-26.679-1.3164-40.033-1.3164-4.3585 0-8.7671-0.26367-13.168-0.26367h-0.26367z" style="fill-opacity:.15033;fill:#96691a;paint-order:normal"/>
		<path id="j" d="m0 17.139v12.424c13.63 0.42287 27.308 0.19922 40.955 0.19922 5.8495 0 11.594 0.40958 17.383 1.0527 1.3002 0.14447 2.3844-0.025902 3.6875 0.26367 0.65846 0.14632 1.3165 0.25406 1.9746 0.36133v-0.82617c-8.2397-3.0332-16.757-5.4175-25.416-7.041-3.1914-0.59838-6.3765-1.0339-9.5605-1.4336 2.2861 0.030856 4.5583 0.1304 6.7949 0.37891 3.3609 0.37344 6.7261-0.29356 10.01 0.52734 0.62471 0.15618 1.5078-0.23905 2.1055 0 4.9647 1.9859 10.489 3.0552 16.066 3.4102v-0.66211c-7.5382-1.9207-15.134-3.7677-22.781-5.1172-12.969-2.2887-26.351-2.5469-39.506-3.4238-0.56657-0.037772-1.1435-0.075292-1.7129-0.11328z" style="fill-opacity:.15033;fill:#96691a;paint-order:normal"/>
		<path id="z" d="m37.469 36.193c-3.728 0.024145-7.4449 0.13248-11.131 0.41602-5.3246 0.40959-10.739-0.3805-16.066 0-3.4144 0.24389-6.8446 0.39231-10.271 0.57617v7.1309c0.18623 0.001043 0.37236-9.18e-4 0.55859 0 4.33-0.33892 8.6638-0.75096 13.006-0.99219 3.0624-0.17013 6.1558 0.19131 9.2168 0 8.009-0.50057 15.982-1.5351 23.967-2.1055 5.8539-0.41814 11.487-1.1306 17.252-1.9434v-2.9121c-2.9931 0.048684-5.8206-0.017578-7.9004-0.017578-6.1741 0-12.418-0.19258-18.631-0.15234zm-36.91 8.123c-0.18624 0.014578-0.37237 0.028685-0.55859 0.042969v0.38672c4.5212-0.25309 9.0442-0.5 13.564-0.5 13.282 0 27.116 0.001499 40.295-1.3164 2.7599-0.27599 5.571-0.83865 8.166-1.5801 0.61706-0.1763 1.2892-0.25295 1.9746-0.30859v-0.88281c-0.70294 0.089401-1.4055 0.18179-2.1074 0.26953-7.7227 0.96534-15.61 2.1074-23.439 2.1074-4.8489 0-9.6638 0.65086-14.486 1.0527-4.2731 0.35609-8.6286 0.26011-12.904 0.52734-3.494 0.21838-6.9988 0.21845-10.504 0.20117z" style="fill-opacity:.15033;fill:#96691a;paint-order:normal"/>
		<path id="aa" d="m64 43.623c-5.3688 2.0781-10.703 4.2761-15.982 6.5352 0.54448-0.13367 1.0893-0.27294 1.6289-0.38086 1.7104-0.34207 3.5574-0.21899 5.2676-0.78906 2.7507-0.91689 5.5956-1.2853 8.416-1.9668 0.41846-0.5668 0.66992-1.0767 0.66992-1.4961v-1.9023zm-15.982 6.5352c-2.5864 0.63498-5.2206 1.4633-7.8535 1.7266-2.5363 0.25363-5.0979 0.29654-7.6367 0.52734-5.9064 0.53695-11.759 1.5167-17.646 2.1055-1.4349 0.14349-2.8887 0.099272-4.3438 0.035156 0.86645 0.52299 1.7381 1.043 2.6445 1.5566 2.7023 0.016305 5.4764 0.19669 8.2207 0.46484-1.9737 0.10949-3.9543 0.15537-5.8633 0.31445-0.26562 0.022135-0.5295 0.052936-0.79492 0.076172 0.46375 0.25392 0.92242 0.51409 1.3887 0.76172 2.7951-0.23311 5.6867-0.41671 8.5195-0.79687 0.60657 0.074049 1.2198 0.14311 1.8164 0.22266 4.8864 0.65152 10.338 0 15.275 0h7.1699c2.9844-1.6219 5.8982-3.3522 8.3594-5.0195-3.6347 0.35511-7.2693 0.73649-10.92 1.0684-3.1373 0.28521-6.1253 0.80116-9.2168 1.3164-0.78608 0.13101-1.5991-0.046932-2.3945-0.029297 4.3834-1.2172 8.9002-2.4575 12.928-4.1836 0.11538-0.049451 0.23222-0.097089 0.34766-0.14648zm-1.791 8.4141c-2.0408 0.17941-4.0731 0.38144-6.0625 0.6875-4.6252 0.71158-11.966 0-16.855 0-1.4553 0-2.9004-0.033525-4.3418-0.083985 0.34343 0.171 0.69312 0.35832 1.0332 0.52344l1.3066 0.62109c6.032 0.644 12.564 1.038 19.105 1.0234 0.52981-0.23074 1.0376-0.43857 1.5879-0.69141l2.0117-0.95898c0.72869-0.35387 1.474-0.74186 2.2148-1.1211z" style="fill-opacity:.15033;fill:#96691a;paint-order:normal"/>
		<path id="y" d="m0 30.633v1.918c1.8489 0.13555 3.6975 0.24024 5.5312 0.24024 4.3191 0 8.596 0.26172 12.904 0.26172 1.6933 0 3.375 0.059753 5.0547 0.12109-6.4814 0.47116-12.955 0.99805-19.408 1.459-1.3715 0.097961-2.7287 0.27969-4.082 0.48438v4.5918c0.9213-0.13723 1.8428-0.26299 2.7656-0.33398 2.0077-0.15444 4.0473 0.13396 6.0566 0 8.9384-0.5959 17.891-0.79102 26.865-0.79102 3.6489 0 7.4293-0.19723 11.061-0.52734 5.6359-0.51235 11.514-0.17979 17.252-0.054688v-2.9805c-4.983-0.49846-9.9804-0.99796-14.994-1.4707 2.7295 0.002513 5.4574 0.024065 8.1465 0.29297 2.3727 0.23727 4.6128 0.35073 6.8477 0.30078v-2.3984c-4.6217 0.22196-9.2985 0.25391-13.828 0.25391-4.7758 0-9.5517 0.15916-14.326 0.39648-2.2476-0.18234-4.495-0.36683-6.7422-0.52734-2.0965-0.14975-4.2249 0.13982-6.3223 0-3.7476-0.24984-7.5709-0.79102-11.324-0.79102-3.8439 0-7.6516-0.21446-11.457-0.44531z" style="fill-opacity:.15033;fill:#96691a;paint-order:normal"/>
		<path id="r" d="m64 9.4922c-3.4798 1.3819-6.96 2.7688-10.402 4.2031-2.8761 1.1984-6.199 1.6568-8.9551 3.1602-3.1094 1.6961-6.6549 2.6608-10.01 3.9512-5.8471 2.2489-11.6 4.799-17.381 7.1113-2.3696 0.94786-5.007 1.3543-7.375 2.3691-3.2989 1.4138-6.5915 2.8542-9.877 4.3125v4.8086c3.5861-1.3142 6.9808-3.243 10.666-4.248 4.7297-1.2899 9.3698-3.1682 13.959-5.0039 9.4816-3.7926 19.383-6.0699 29.002-9.2227 0.16563-0.042268 0.33468-0.073149 0.49609-0.12695 2.8551-0.95171 5.8684-1.5761 8.6914-2.6348 0.38421-0.14408 0.79394-0.31569 1.1855-0.47266v-8.207z" style="fill-opacity:.15033;fill:#96691a;paint-order:normal"/>
		<path id="s" d="m0 6.877v0.17773c0.49649 0.22517 2.0168 0.34138 2.502 0.58398 1.4536 0.7268 3.4458 0.87123 5.0039 1.3164 6.1987 1.7711 12.319 3.9105 18.437 5.793 10.957 3.3714 22.184 6.7017 32.658 11.59 0.21631 0.10094 0.4424 0.18269 0.66211 0.27734 0.95618 0.13323 1.9084 0.27477 2.8633 0.4082-1.8886-0.82104-3.7592-2.1198-5.6328-3.0566-1.7898-0.89488-3.9059-1.0881-5.7949-1.8438-6.4458-2.5783-13.311-4.3806-20.016-6.0566-2.7991-0.69977-5.3913-2.1417-8.166-2.8984-5.9741-1.6293-12.017-3.799-18.041-5.0039-1.6647-0.33294-2.7296-1.1436-4.4766-1.2871zm62.127 20.146c0.44787 0.19471 0.89548 0.37137 1.3457 0.5 0.15682 0.044805 0.33796 0.13237 0.52734 0.23633v-0.4707c-0.62351-0.08965-1.2481-0.1783-1.873-0.26562zm-2.8633-0.4082c-3.1326-0.43648-6.2653-0.88386-9.3535-1.4629-15.026-2.8174-30.182-5.0258-45.236-7.6699-1.5615-0.43499-3.1166-0.88802-4.6738-1.3379v9.748c13.741 3.1729 27.688 5.521 41.701 7.291 1.0626 0.42634 2.1186 0.86794 3.2051 1.1875 6.2397 1.8352 12.746 2.8489 19.094 4.3184v-10.219c-1.5709-0.637-3.1857-1.1874-4.7363-1.8555z" style="fill-opacity:.15033;fill:#96691a;paint-order:normal"/>
		<path id="ad" d="m32 0c-5.6618 0-13.85 0.26699-20.734 0.53125 0.39 0.21161 0.77723 0.42831 1.1719 0.63086 3.1704 0.25849 6.3782 0.43729 9.5547 0.68164 3.0505 0.23466 6.1431 0.83318 9.2168 1.0527 2.8828 0.20591 5.8075-0.19226 8.6914 0 3.5529 0.23686 7.1474 0.42836 10.744 0.56445-0.68609-0.18714-1.3649-0.37687-2.0527-0.56445-3.1044-0.84665-6.0803-2.03-9.2031-2.7871-2.6975-0.062783-5.2775-0.10938-7.3887-0.10938zm18.645 3.4609c4.4838 1.223 8.9377 2.4514 13.355 3.7715v-3.543c-0.50482 0.0011088-1.8344-0.0019531-1.9746-0.0019531-3.7687 0-7.5769-0.082632-11.381-0.22656zm-38.207-2.2988c-1.5854-0.12926-3.1563-0.28914-4.7109-0.48438-0.43418 0.018195-0.60644 0.024202-1 0.041016 1.4247 0.36205 2.8467 0.73414 4.2031 1.2559 0.54967 0.21141 1.011 0.63927 1.5801 0.79102 1.4575 0.38866 3.0016 0.30601 4.498 0.50195-1.5509-0.64119-3.0774-1.3393-4.5703-2.1055zm4.5703 2.1055c2.8196 1.1657 5.7228 2.1354 8.6719 2.9219 2.4501 0.65336 4.7385 1.8419 7.1113 2.6328 2.0123 0.67077 2.1508 0.37599 3.9492 0.79102 3.2676 0.75407 6.4515 2.0151 9.7461 2.6328 5.7533 1.0787 11.577 1.8053 17.383 2.6348 0.043047 0.00615 0.087757 0.013341 0.13086 0.019532v-1.6367c-1.4531-0.41573-2.8848-0.98713-4.3457-1.2793-3.2011-0.64021-6.5726-0.74742-9.7441-1.582-2.8918-0.76101-5.7686-1.7196-8.6914-2.3691-5.993-1.3318-12.152-2.1333-18.174-3.4238-1.9289-0.41334-3.8364-1.0154-5.793-1.3164-0.080615-0.012402-0.16322-0.014796-0.24414-0.025391z" style="fill-opacity:.15033;fill:#96691a;paint-order:normal"/>
		<path id="t" d="m42.166 2.4668c-0.72559 0.018581-1.4391 0.066915-2.1328 0.16602-6.8656 0.9808-13.858 1.3474-20.807 1.8438-4.2639 0.30457-8.445 1.4616-12.643 2.1074-2.1246 0.32686-4.415 0.51756-6.584 0.875v1.457c2.5559 0.015205 5.3591 0.20706 7.375 0.039062 6.5511-0.54592 13.178-0.90551 19.752-1.3164 10.956-0.68477 21.954-0.93684 32.922-1.582 1.3177-0.077514 2.6346-0.19123 3.9512-0.29883v-3.125h-15.275c-2.1052 0-4.3818-0.22176-6.5586-0.16602zm21.834 4.957c-2.1728 0.46918-4.3437 0.95434-6.5156 1.4531 1.4304-0.23084 2.8695-0.43132 4.2773-0.71289 0.74815-0.14963 1.4938-0.32619 2.2383-0.51953v-0.2207zm-6.5156 1.4531c-1.0429 0.16831-2.0826 0.3517-3.0977 0.60547-0.23633 0.059082-0.65981 0.21384-1.084 0.36133 1.3941-0.32254 2.789-0.64698 4.1816-0.9668zm-4.1816 0.9668c-0.42905 0.099265-0.85783 0.19781-1.2871 0.29688-0.23367 0.053924-0.46467 0.11962-0.69727 0.18164 0.14494-0.014802 0.29066-0.036293 0.43555-0.050782 0.39738-0.039737 0.9857-0.23193 1.5488-0.42773zm-1.9844 0.47852c-16.881 1.724-34.081 5.559-50.396 10.221-0.29725 0.084927-0.61898 0.16298-0.92188 0.24609v1.6699c3.362-0.67173 6.8096-0.85529 10.141-1.5215 6.1292-1.2258 12.968-2.3506 18.963-3.9492 4.5317-1.2085 9.193-2.3022 13.695-3.6875 2.8397-0.87374 5.6411-2.211 8.5195-2.9785z" style="fill-opacity:.15033;fill:#96691a;paint-order:normal"/>
		<path id="l" d="m0 30.699v12.92c1.5859 0.3141 3.1728 0.59477 4.7402 0.75976 11.466 1.2069 22.957 2.0252 34.502 2.6328 7.9718 0.41957 16.063 0.10794 24.072 0.029297 0.42767-0.57479 0.68555-1.0915 0.68555-1.5156v-5.1543c-3.4765-0.21218-6.9555-0.578-10.402-0.86524-5.2523-0.43769-10.577-0.56982-15.803-1.3164-1.8198-0.25997-3.6561-0.70712-5.4824-1.1035 6.9469 0.54494 13.91 0.94064 20.895 1.0566-8.661-1.6719-17.334-3.2698-26.08-4.2988-7.0985-0.83512-14.015-1.8509-21.07-2.6348-2.0082-0.22313-4.0414-0.46978-6.0566-0.50976zm53.207 7.4434c3.598 0.69456 7.1943 1.3961 10.793 2.082v-1.9277c-2.2453-0.056018-4.4876-0.10742-6.7168-0.10742-1.3602 0-2.7177-0.024313-4.0762-0.046875z" style="fill-opacity:.15033;fill:#96691a;paint-order:normal"/>
		<path id="ac" d="m62.053 48.434c-0.14108 0.010589-0.28313 0.013273-0.42383 0.027344-9.3365 0.93365-18.822-0.19251-28.18 0.52734-6.1406 0.47236-12.309 0.49558-18.438 1.0527-2.5373 0.23066-5.1064-0.017474-7.6367 0.26367-0.88922 0.098801-1.7649 0.25529-2.6367 0.42383 3.1594 2.342 7.5097 4.96 11.875 7.2539 2.6999-0.22809 5.423-0.37202 8.1445-0.56641 2.4098-0.17213 4.7693-0.98183 7.1113-1.3164 1.2167-0.17382 2.4688 0.17382 3.6855 0 7.1265-1.0181 14.363-2.5569 21.334-3.9512 0.15553-0.031107 0.31767-0.044895 0.47461-0.072266 1.9027-1.2932 3.5245-2.5374 4.6895-3.6426z" style="fill-opacity:.15033;fill:#96691a;paint-order:normal"/>
		<path id="ag" d="m63.869 26.205c-3.6441 0-7.1904 0.22664-10.799 0.52734-1.5336 0.1278-3.0724 0.22923-4.6094 0.33984 2.7701 0.17411 5.5532 0.31836 8.2969 0.31836 2.4156 0 4.833 0.027297 7.2422 0.125v-1.3066c-0.042603-2.61e-4 -0.088493-0.003906-0.13086-0.003906zm-15.408 0.86719c-1.0994-0.069103-2.204-0.1312-3.293-0.20898-7.9815-0.5701-16.226 0-24.23 0-4.8001 0-10.273-0.72907-15.012 0-1.9649 0.3023-3.9201 0.79698-5.9258 1.0059v2.2285c0.92214-0.067856 1.8421-0.14351 2.7656-0.20508 6.1376-0.40917 12.302-0.5809 18.436-1.0527 9.0696-0.69766 18.189-1.1148 27.26-1.7676z" style="fill-opacity:.15033;fill:#96691a;paint-order:normal"/>
		<g id="ae">
			<path id="x" d="m0.29688 38.17c-0.098781 7.19e-4 -0.19805 0.001136-0.29688 0.001953v2.5195h39.77c6.8001 0 13.772 0.32072 20.584-0.10742-0.14483-0.010345-0.29107-0.010302-0.43555-0.023437-7.085-0.64409-14.234-0.77217-21.334-1.3184-5.681-0.437-11.438 0.20973-17.119-0.26367-3.8859-0.32382-9.3594 0.44727-12.904-0.26172-2.696-0.5392-5.4699-0.56723-8.2637-0.54688zm60.057 2.4141c1.2064 0.086177 2.4238 0.078142 3.6465 0.035157v-0.34766c-1.2095 0.13222-2.4246 0.2357-3.6465 0.3125zm-60.354 0.89453v3.5762c6.0544 0.030385 12.105 0.18208 18.154 0.36914-0.25739-0.040762-0.51213-0.085997-0.77148-0.12305-4.8799-0.69712-10.32-1.2617-14.75-3.1602-0.81874-0.35089-1.723-0.51025-2.6328-0.66211zm18.154 3.9453c2.2321 0.35349 4.4008 0.82624 6.6035 1.1934 2.2275 0.37124 4.5943 0.11344 6.8477 0.26367 4.1249 0.275 8.3595 0.74221 12.379 1.3164 3.8594 0.55134 8.2085 0 12.115 0 1.991 0 4.0373 0.093158 6.0762 0.125 0.49613-0.47922 0.88288-0.92329 1.1855-1.3398-0.44755-0.028-0.89343-0.057312-1.3359-0.10156-2.0313-0.20313-4.0029-0.52734-6.0586-0.52734-12.626 0-25.218-0.54026-37.812-0.92969z" style="fill-opacity:.15033;fill:#96691a;paint-order:normal"/>
			<path id="af" d="m0 1v44.525c0 2.8765 10.732 9.6742 20 14.174l2.0508 0.97656c4.321 1.9823 8.0935 3.3242 9.9492 3.3242 1.8632 0 5.6569-1.3521 10-3.3477l2.0117-0.95898c9.2653-4.4995 19.988-11.293 19.988-14.168v-44.525s-21.328-1-32-1-32 0.99996-32 0.99996z" style="fill:url(#d)"/>
		</g>
	</g>
	<path id="ai" d="m55.637 12.516c-0.11424 0.29434-0.18969 0.61238-0.38672 0.86719 0.18136-0.30538 0.48018-0.59043 0.44531-0.97852l-0.058593 0.11133zm-0.91406 1.4902c-1.2129 1.1888-2.4258 2.3776-3.6387 3.5664-1.0879 1.4102-2.1758 2.8203-3.2637 4.2305-1.3222 1.0498-2.725 2.0524-3.7324 3.4297-0.92259 1.2297-1.786 2.5518-3.0449 3.4707l-5.3379 3.5605c-1.199 0.91485-2.2947 1.9592-3.2875 3.0936-1.9438 2.3446-3.8864 4.6903-5.8297 7.0353 1.8099-1.89 3.6198-3.7799 5.4297-5.6699 1.49-1.2675 3.0636-2.4302 4.645-3.58 1.9066-1.3997 3.8162-2.7955 5.7242-4.1934 1.2661-1.0171 2.4629-2.1226 3.5352-3.3438 1.0002-1.1313 1.971-2.2993 3.1406-3.2637 1.2931-1.0926 2.5453-2.2947 3.3476-3.8052 0.96154-1.6937 1.8694-3.4176 2.8145-5.1206-0.16732 0.19661-0.33464 0.39323-0.50195 0.58984zm7.123 9.1094c-0.18776 0.041762-0.30551 0.2698-0.2207 0.44531 0.13608-0.31811 0.54967-0.27131 0.80273-0.43359-0.19464 0.048711-0.38689-0.045708-0.58203-0.011719zm-2.0254 0.85547c-0.93685 0.21224-1.8737 0.42448-2.8105 0.63672-0.81711 0.91615-1.5854 2.0278-2.8301 2.377-0.94637 1.0418-1.9418 2.1188-3.2695 2.668-1.3659 1.3535-2.7318 2.707-4.0977 4.0605-1.1753 1.082-2.4059 2.1011-3.6658 3.0827-1.4685 1.135-2.8382 2.3885-4.2014 3.6459-1.2037 0.94565-2.5321 1.7227-3.9282 2.3475-1.5839 0.75789-3.1417 1.5835-4.5793 2.5961-0.98483 0.70542-1.8598 1.5689-2.5764 2.5466 1.474-0.85547 2.9479-1.7109 4.4219-2.5664 1.459-0.98307 2.918-1.9661 4.377-2.9492 1.3839-0.64721 2.8082-1.2296 4.0801-2.0879 1.2362-1.0552 2.4069-2.1831 3.5898-3.2969 1.5943-1.3508 3.3382-2.5063 5.0486-3.7017 1.5743-1.0614 3.0993-2.1928 4.6467-3.2924 0.89646-0.71653 1.884-1.4153 2.4746-2.418 0.19895-0.6697 0.2397-1.5036 0.96799-1.8424 1.0002-0.83015 2.2002-1.3521 3.3406-1.9545-0.32943 0.049479-0.65885 0.098958-0.98828 0.14844zm-1.3457 11.25c-2.3964 1.7933-4.8114 3.5651-7.1051 5.4901-1.6232 1.3458-3.2463 2.6915-4.8695 4.0373-2.325 1.4643-4.653 2.9251-7.0215 4.3184-1.8669 1.0438-3.8136 1.944-5.8242 2.6745-2.5387 0.95252-5.0869 1.8795-7.6309 2.8177 1.5295-0.069351 3.0669-0.086924 4.5801-0.3457 1.4772-0.53015 2.8746-1.248 4.2852-1.9297 3.6777-2.0319 7.3555-4.0638 11.033-6.0957 1.3157-0.79674 2.5856-1.6682 3.8008-2.6113 2.6109-2.3437 5.2333-4.6744 7.8672-6.9922 0.6901-0.65039 1.3802-1.3008 2.0703-1.9512-0.39518 0.19596-0.79036 0.39193-1.1855 0.58789zm-32.727 19.4c-0.76953 0.26953-1.5391 0.53906-2.3086 0.80859 0.88538-0.21092 1.7568-0.487 2.584-0.86914l-0.27484 0.060425-5.55e-4 1.22e-4zm-2.5977 0.83203c-0.39393 0.048607-0.79755 0.064427-1.1758 0.19727 0.48568-0.072917 0.97136-0.14583 1.457-0.21875l-0.28058 0.021433-6.67e-4 5.1e-5z" style="fill-opacity:.11981;fill:#000000;paint-order:normal"/>
	<path id="aj" d="m55.637 12.514c-0.11512 0.29459-0.18918 0.61392-0.38672 0.86914 0.18136-0.30538 0.48018-0.59043 0.44531-0.97852l-0.058593 0.10938zm-0.91406 1.4922c-1.2135 1.1888-2.4271 2.3776-3.6406 3.5664-1.127 1.4629-2.2539 2.9258-3.3809 4.3887-1.2678 0.98038-2.6102 1.9171-3.5801 3.2148-0.85011 1.1205-1.6451 2.311-2.7246 3.2286-1.2908 0.96946-2.6549 1.844-3.9919 2.7502-1.2847 0.83036-2.5376 1.7195-3.6311 2.7951-1.033 0.98571-1.9243 2.1043-2.8398 3.1966-1.4387 1.7377-2.8788 3.4742-4.3185 5.211 2.2148-2.3737 4.4297-4.7474 6.6445-7.1211 1.1375-0.99188 2.265-1.9986 3.4844-2.8906 1.4714-0.91471 2.9427-1.8294 4.4141-2.7441 1.381-1.0343 2.3822-2.4602 3.4395-3.8008 1.011-1.1847 2.1169-2.2847 3.2793-3.3203 1.6294-1.7115 3.1304-3.5375 4.6543-5.3418 0.96275-1.1923 1.8574-2.4385 2.6934-3.7227-0.16732 0.19661-0.33464 0.39323-0.50195 0.58984zm7.123 9.1094c-0.18776 0.041762-0.30551 0.2698-0.2207 0.44531 0.13608-0.31811 0.54967-0.27131 0.80273-0.43359-0.19464 0.048711-0.38689-0.045708-0.58203-0.011719zm-2.0254 0.85547c-0.93685 0.21224-1.8737 0.42448-2.8105 0.63672-0.81826 0.91537-1.5838 2.0336-2.832 2.377-0.98816 1.0906-2.0399 2.207-3.4316 2.7715-1.4693 0.98032-2.4678 2.4774-3.726 3.6904-2.3549 2.4295-5.1972 4.3053-7.6811 6.5916-1.054 1.0357-2.3097 1.8323-3.6418 2.4602-1.7769 0.78178-3.5343 1.6436-5.1065 2.7924-1.0464 0.72183-1.9643 1.6215-2.7392 2.6275 2.8544-1.8617 5.685-3.7727 8.699-5.3716 1.4053-0.72549 2.7603-1.5567 3.9385-2.6193 1.3848-1.1715 2.7613-2.3528 4.1678-3.4984 1.3284-1.0871 2.6495-2.1924 3.7899-3.4809 1.0654-1.1844 2.1117-2.4264 3.5082-3.2369 0.89429-0.56913 1.674-1.2915 2.3145-2.1328 0.64146-0.51783 1.4727-0.76852 2.0173-1.4133 0.88919-0.8582 1.9205-1.6323 3.1694-1.8361 0.46941-0.1176 0.90828-0.31915 1.3523-0.50642-0.32943 0.049479-0.65885 0.098958-0.98828 0.14844zm-1.3457 11.25c-2.3528 1.7678-4.7317 3.504-6.9911 5.3917-1.4777 1.2176-2.948 2.444-4.423 3.6649-2.0553 1.4415-4.2085 2.7337-6.3493 4.0422-1.7636 1.0666-3.5778 2.0623-5.498 2.8195-2.7947 1.1622-5.6659 2.1258-8.505 3.1717-0.22826 0.0826-0.45652 0.1652-0.68477 0.2478 1.4942-0.21165 2.9688-0.54906 4.4082-1.002 1.8457-0.65453 3.6803-1.3389 5.5039-2.0527 2.7407-1.5147 5.472-3.0462 8.1877-4.6053 1.5261-0.85443 2.968-1.8544 4.3123-2.9728 3.7893-3.0396 7.4969-6.1787 11.225-9.293-0.39518 0.19596-0.79036 0.39193-1.1855 0.58789zm-32.451 19.338c-0.86133 0.29036-1.7227 0.58073-2.584 0.87109 0.88768-0.20426 1.765-0.46696 2.584-0.87109zm-2.873 0.89453c-0.39193 0.065104-0.78386 0.13021-1.1758 0.19531 0.48568-0.072266 0.97136-0.14453 1.457-0.2168l-0.28058 0.021433-6.67e-4 5.1e-5z" style="fill-opacity:.28599;fill:#000000;paint-order:normal"/>
	<path id="ak" d="m56.137 13.014c-0.11512 0.29459-0.18918 0.61392-0.38672 0.86914 0.18136-0.30538 0.48018-0.59043 0.44531-0.97852l-0.058593 0.10938zm-0.5918 1.1172c-1.0687 1.318-1.9997 2.7373-2.9414 4.1465-0.95211 1.3957-1.9021 2.8477-3.2778 3.8673-1.323 1.065-2.4543 2.3349-3.5535 3.6227-1.0307 1.1997-2.2129 2.2567-3.4711 3.212-1.5316 1.2266-3.1213 2.3783-4.7035 3.5382-1.2689 0.89841-2.5902 1.7258-3.7969 2.709-1.1878 0.98173-2.104 2.2278-3.1162 3.378-1.2102 1.4028-2.3846 2.8358-3.5733 4.2568 1.8698-1.9492 3.7396-3.8984 5.6094-5.8477 1.5458-1.2734 3.17-2.4458 4.8054-3.6002 1.9093-1.3739 3.8573-2.6985 5.6688-4.2023 1.135-0.90831 2.2391-1.8663 3.1782-2.9806 0.95932-1.1958 2.0012-2.3356 3.218-3.2752 1.3796-0.9316 2.3742-2.3066 3.1822-3.7386 1.0265-1.7428 1.9781-3.5279 2.9514-5.3006l-0.17969 0.21484zm6.8008 9.4844c-0.18776 0.041762-0.30551 0.2698-0.2207 0.44531 0.13608-0.31811 0.54967-0.27131 0.80273-0.43359-0.19464 0.048711-0.38689-0.045708-0.58203-0.011719zm-2.0195 0.85156c-1.3688 0.37174-2.7805 0.93881-3.6523 2.1172 0.11308 1.117-0.69484 2.0483-1.6023 2.5754-1.4242 1.0908-2.8485 2.1815-4.2727 3.2723l-4.7832 3.293c-1.4844 1.3021-2.9688 2.6042-4.4531 3.9062-1.2252 0.89316-2.4535 1.7846-3.7578 2.5605-1.6613 0.8561-3.3467 1.6741-4.918 2.6914-1.3843 0.91177-2.8557 1.7238-4.0625 2.875-0.17847 0.21112-0.33974 0.43503-0.49414 0.66406 1.5527-0.89583 3.1055-1.7917 4.6582-2.6875 1.3932-0.96222 2.7764-1.9405 4.2129-2.8379 1.3744-0.64513 2.7755-1.2485 4.0527-2.0781 1.2964-1.1068 2.5247-2.2892 3.7656-3.457 1.3081-1.0826 2.7071-2.046 4.1098-3.0003 1.3208-0.88558 2.5987-1.834 3.8113-2.8634 1.2879-1.0965 2.6729-2.1129 3.7435-3.4344 0.50958-0.4881 0.16315-1.4198 0.8647-1.78 1.1629-0.81721 2.4968-1.326 3.7598-1.9609-0.32747 0.048177-0.65495 0.096354-0.98242 0.14453zm-1.3594 11.348c-1.4909 1.1452-2.9818 2.2904-4.4727 3.4355-1.6628 1.4915-3.3255 2.9831-4.9883 4.4746-1.4468 1.1019-2.9621 2.1163-4.5534 2.9981-3.1384 1.7603-6.284 3.5081-9.4251 5.2636-1.4705 0.7349-2.9296 1.4965-4.4492 2.127-1.293 0.394-2.6653 0.41531-3.9629 0.79102-0.18164 0.065104-0.36328 0.13021-0.54492 0.19531 1.5078-0.081254 3.0233-0.11572 4.5137-0.38086 1.5096-0.52226 2.9428-1.2398 4.3297-2.0273 2.7187-1.5624 5.4175-3.163 8.209-4.5938 1.8003-0.97374 3.7141-1.7837 5.3173-3.0798 1.448-1.1159 2.7953-2.355 4.1742-3.5535 2.359-2.0786 4.7181-4.1572 7.0771-6.2358-0.4082 0.19531-0.81641 0.39062-1.2246 0.58594zm-33.723 19.717c-0.4349 0.13281-0.86979 0.26562-1.3047 0.39844 0.88874-0.19894 1.7636-0.47216 2.584-0.87109-0.42643 0.15755-0.85286 0.3151-1.2793 0.47266zm-1.5938 0.42188c-0.39193 0.065104-0.78386 0.13021-1.1758 0.19531 0.48568-0.072266 0.97136-0.14453 1.457-0.2168l-0.28058 0.021433-6.67e-4 5.1e-5z" style="fill-opacity:.088889;fill:#ffffff;paint-order:normal"/>
</svg>
