<?xml version="1.0" encoding="UTF-8"?>
<svg id="b" width="22" height="22" version="1.1" xmlns="http://www.w3.org/2000/svg" xmlns:cc="http://creativecommons.org/ns#" xmlns:dc="http://purl.org/dc/elements/1.1/" xmlns:rdf="http://www.w3.org/1999/02/22-rdf-syntax-ns#">
	<metadata id="e">
		<rdf:RDF>
			<cc:Work rdf:about="">
				<dc:format>image/svg+xml</dc:format>
				<dc:type rdf:resource="http://purl.org/dc/dcmitype/StillImage"/>
			</cc:Work>
		</rdf:RDF>
	</metadata>
	<defs id="c">
		<style id="current-color-scheme" type="text/css">.ColorScheme-Text {color:#090d11;}.ColorScheme-Background{color:#ffffff;}</style>
	</defs>
	<path id="a" class="ColorScheme-Background" d="m10.5 1c-1.373 0-2.5 1.127-2.5 2.5s1.127 2.5 2.5 2.5 2.5-1.127 2.5-2.5-1.127-2.5-2.5-2.5zm0 1.3008c0.67044 0 1.1992 0.52878 1.1992 1.1992s-0.52878 1.1992-1.1992 1.1992c-0.67044 0-1.1992-0.52878-1.1992-1.1992s0.52878-1.1992 1.1992-1.1992zm-8 4.6992c-0.27614 0-0.5 0.22386-0.5 0.5s0.22386 0.5 0.5 0.5h5.4609l-0.95898 12.461c-0.021333 0.27498 0.18404 0.51531 0.45898 0.53711 0.27499 0.02133 0.51531-0.18404 0.53711-0.45898l1-13c0.021333-0.27499-0.18404-0.51531-0.45898-0.53711-0.098177-0.0038766-0.19532 0.021258-0.2793 0.072266-0.078138-0.048107-0.16801-0.073784-0.25977-0.074219zm10.75 0c-0.14685 0.00196-0.28541 0.068385-0.37891 0.18164-0.10076-0.12119-0.25276-0.18778-0.41016-0.17969-0.27495 0.021799-0.48032 0.26212-0.45898 0.53711l1 13c0.0218 0.27495 0.26212 0.48032 0.53711 0.45898 0.27495-0.0218 0.48032-0.26212 0.45898-0.53711l-0.96289-12.518c0.06646 0.034754 0.13989 0.054112 0.21484 0.056641h5.25c0.27614 0 0.5-0.22386 0.5-0.5s-0.22386-0.5-0.5-0.5zm-3.75 6v1h2v-1z" style="fill-opacity:.5;fill:currentColor"/>
	<path id="d" class="ColorScheme-Text" d="m10.5 2c-0.82843 0-1.5 0.67157-1.5 1.5s0.67157 1.5 1.5 1.5 1.5-0.67157 1.5-1.5-0.67157-1.5-1.5-1.5zm-6.9492 4c-0.27614 0-0.5 0.22386-0.5 0.5s0.22386 0.5 0.5 0.5h5.3281l-0.97656 12.453c-0.0256 0.32998 0.22084 0.61837 0.55078 0.64453 0.32998 0.0256 0.61837-0.22084 0.64453-0.55078l0.51562-6.5625h1.7754l0.51367 6.5625c0.02616 0.32994 0.31455 0.57638 0.64453 0.55078 0.32994-0.02616 0.57638-0.31455 0.55078-0.64453l-0.97656-12.453h5.3281c0.27614 0 0.5-0.22386 0.5-0.5s-0.22386-0.5-0.5-0.5z" style="fill-opacity:.75;fill:currentColor"/>
</svg>
