<?xml version="1.0" encoding="UTF-8"?>
<!-- Created with Inkscape (http://www.inkscape.org/) -->
<svg width="22" height="22" version="1.1" xmlns="http://www.w3.org/2000/svg" xmlns:cc="http://creativecommons.org/ns#" xmlns:dc="http://purl.org/dc/elements/1.1/" xmlns:rdf="http://www.w3.org/1999/02/22-rdf-syntax-ns#">
	<defs>
		<style id="current-color-scheme" type="text/css">.ColorScheme-Text {
			color:#090d11;
			}
			.ColorScheme-Background{
			color:#ffffff;
			}</style>
	</defs>
	<metadata>
		<rdf:RDF>
			<cc:Work rdf:about="">
				<dc:format>image/svg+xml</dc:format>
				<dc:type rdf:resource="http://purl.org/dc/dcmitype/StillImage"/>
			</cc:Work>
		</rdf:RDF>
	</metadata>
	<path class="ColorScheme-Text" d="m9.4434 2.0547v1.791h-0.67383c-0.61081 0-1.1133 0.50358-1.1133 1.1074v2.9199h0.00977c-0.0097 0.095881 0.047769 0.20161 0.17383 0.32617l0.52539 0.46484-5.3594 9.2832-0.12109 1.998 1.668-1.1016 2.9434-5.0977c1.0502 0.53833 2.2443 0.83203 3.5059 0.83203 0.96337 0 2.0306-0.17638 2.9688-0.49609l2.748 4.7617 1.668 1.1016-0.11914-1.998-2.6934-4.668c0.38724-0.26004 0.75712-0.54311 1.0859-0.86524 1.4373-1.3984 2.3398-3.4184 2.3398-5.584-0.61324-0.00601-1.2609 8.93e-5 -1.8047-0.00586-7.72e-4 2.3868-0.71038 2.9554-1.5742 3.9648-0.28948 0.33355-0.62374 0.61845-0.97852 0.87891l-1.7344-3.0059 0.52539-0.46289c0.12604-0.12456 0.17383-0.23989 0.17383-0.32617h0.01172v-2.9102c-0.009729-0.61338-0.50645-1.1172-1.127-1.1172h-0.66211v-1.791h-1.1992zm1.1895 2.9844 0.0078 0.013672c0.6526 0.00775 1.1895 0.53168 1.1895 1.1855 0 0.65381-0.53686 1.1779-1.1895 1.1855h-0.0078c-0.6526 0-1.1895-0.53174-1.1895-1.1855 0-0.65387 0.53686-1.1855 1.1895-1.1855zm-0.89844 4.8301 0.3457 0.30469c0.15513 0.15336 0.35688 0.23047 0.55078 0.23047v-0.0098l0.0098 0.0098c0.2036 0 0.4073-0.07711 0.55273-0.23047l0.34766-0.30469 1.498 2.5977c-0.66607 0.19654-1.4041 0.3125-2.0488 0.3125-0.93137 0-1.8046-0.235-2.5723-0.62695z" style="fill-opacity:.75;fill:currentColor"/>
</svg>
