<?xml version="1.0" encoding="UTF-8"?>
<svg id="d" width="22" height="22" version="1.1" xmlns="http://www.w3.org/2000/svg" xmlns:cc="http://creativecommons.org/ns#" xmlns:dc="http://purl.org/dc/elements/1.1/" xmlns:rdf="http://www.w3.org/1999/02/22-rdf-syntax-ns#">
	<metadata id="b">
		<rdf:RDF>
			<cc:Work rdf:about="">
				<dc:format>image/svg+xml</dc:format>
				<dc:type rdf:resource="http://purl.org/dc/dcmitype/StillImage"/>
			</cc:Work>
		</rdf:RDF>
	</metadata>
	<defs>
		<style id="current-color-scheme" type="text/css">.ColorScheme-Text {color:#090d11;}.ColorScheme-Background{color:#ffffff;}</style>
	</defs>
	<path id="c" class="ColorScheme-Text" d="m11 2c-4.9572 0-9 4.0428-9 9s4.0428 9 9 9 9-4.0428 9-9-4.0428-9-9-9zm-2.5469 5h5.5938c0.54708 0 0.95312 0.47949 0.95312 1v6c0 0.29279-0.12811 0.57293-0.33789 0.76172-0.02331 0.02098-0.04897 0.03997-0.07422 0.05859-0.15128 0.11117-0.33644 0.17969-0.54102 0.17969h-6.0938c-0.54708 0-0.95312-0.47949-0.95312-1v-3c0-0.52051 0.40604-1 0.95312-1h6.0469v-2h-5.5469c-0.27614 0-0.5-0.22386-0.5-0.5s0.22386-0.5 0.5-0.5zm-0.45312 4v3h6v-3z" style="fill-opacity:.75;fill:currentColor"/>
	<path id="a" class="ColorScheme-Background" d="m11 0.9224c-5.557 0-10.078 4.5206-10.078 10.078s4.5206 10.078 10.078 10.078 10.078-4.5206 10.078-10.078-4.5206-10.078-10.078-10.078zm0 1.1429c4.9434 3e-7 8.9347 3.9912 8.9347 8.9347s-3.9912 8.9347-8.9347 8.9347c-4.9434 0-8.9347-3.9912-8.9347-8.9347 1e-7 -4.9434 3.9912-8.9347 8.9347-8.9347zm-2.5469 4.9347c-0.27614 0-0.5 0.22386-0.5 0.5s0.22498 0.47521 0.5 0.5h5.5469v2h-6.0469c-0.54708 0-0.95312 0.47949-0.95312 1v3c0 0.52051 0.40604 1 0.95312 1h6.0938c0.20458 0 0.38974-0.06852 0.54102-0.17969 0.02525-0.01862 0.05091-0.03762 0.07422-0.05859 0.20978-0.18879 0.33789-0.46893 0.33789-0.76172v-6c0-0.52051-0.40821-1.0487-0.95312-1h-5.5938zm-0.45312 4h6v3h-6z" style="fill-opacity:.5;fill:currentColor"/>
</svg>
