<?xml version="1.0" encoding="UTF-8"?>
<svg id="h" width="22" height="22" version="1.1" xmlns="http://www.w3.org/2000/svg" xmlns:cc="http://creativecommons.org/ns#" xmlns:dc="http://purl.org/dc/elements/1.1/" xmlns:rdf="http://www.w3.org/1999/02/22-rdf-syntax-ns#" xmlns:xlink="http://www.w3.org/1999/xlink">
	<metadata id="k">
		<rdf:RDF>
			<cc:Work rdf:about="">
				<dc:format>image/svg+xml</dc:format>
				<dc:type rdf:resource="http://purl.org/dc/dcmitype/StillImage"/>
				<dc:title/>
			</cc:Work>
		</rdf:RDF>
	</metadata>
	<defs id="a">
		<style id="current-color-scheme" type="text/css">.ColorScheme-ViewText {color:#090d11;}.ColorScheme-Background{color:#ffffff;}</style>
	</defs>
	<g id="d" transform="translate(2.8225,3)">
		<path id="m" class="ColorScheme-Text" d="m8.156-1.3652c-0.73443 0.031977-1.4899 0.16276-2.2324 0.36914-0.74961 0.21925-1.5195 0.52171-2.2422 0.89062-0.20749 0.10592-0.39921 0.22632-0.59766 0.3418-1.1266 0.67977-2.0909 1.5252-2.6992 2.4727-0.30304 0.472-0.5375 0.97907-0.72461 1.502-0.36083 1.2461-0.53596 2.7648-0.5 4.1992 0.015203 0.60642 0.082818 1.1704 0.16797 1.7109 0.01821 0.10186 0.034606 0.20406 0.054688 0.30273a5.5344 4.1879 80.432 0 1 0.7832 -1.5938c-0.16131-1.8634 0.05166-4.0087 1.0605-5.5801 1.1556-1.7999 4.3438-3.5008 6.9727-3.6152zm-4.8203 9.0117a4.7664 3.1452 75 0 0 -0.23828 0.00977 4.7664 3.1452 75 0 0 -0.083984 0.00586 4.7664 3.1452 75 0 0 -0.28516 0.052735 4.7664 3.1452 75 0 0 -0.26367 0.09375 4.7664 3.1452 75 0 0 -0.11719 0.05664 4.7664 3.1452 75 0 0 -0.1543 0.082032 4.7664 3.1452 75 0 0 -0.13086 0.085937 4.7664 3.1452 75 0 0 -0.14258 0.10352 4.7664 3.1452 75 0 0 -0.10156 0.091797 4.7664 3.1452 75 0 0 -0.14844 0.14258 4.7664 3.1452 75 0 0 -0.076172 0.089844 4.7664 3.1452 75 0 0 -0.15039 0.18555 4.7664 3.1452 75 0 0 -0.060547 0.089844 4.7664 3.1452 75 0 0 -0.13477 0.2168 4.7664 3.1452 75 0 0 -0.0625 0.11914 4.7664 3.1452 75 0 0 -0.097656 0.19922 4.7664 3.1452 75 0 0 -0.070312 0.17774 4.7664 3.1452 75 0 0 -0.078125 0.21094 4.7664 3.1452 75 0 0 -0.037109 0.12305 4.7664 3.1452 75 0 0 -0.076172 0.2832 4.7664 3.1452 75 0 0 -0.021484 0.10547 4.7664 3.1452 75 0 0 -0.056641 0.31445 4.7664 3.1452 75 0 0 -0.015625 0.13477 4.7664 3.1452 75 0 0 -0.029297 0.27734 4.7664 3.1452 75 0 0 -0.007813 0.18945 4.7664 3.1452 75 0 0 -0.007813 0.29297 4.7664 3.1452 75 0 0 0.23828 1.752 4.7664 3.1452 75 0 0 0.25391 0.77148 4.7664 3.1452 75 0 0 0.1875 0.43164 4.7664 3.1452 75 0 0 0.19141 0.36719 4.7664 3.1452 75 0 0 0.023437 0.04687 4.7664 3.1452 75 0 0 0.49219 0.74219 4.7664 3.1452 75 0 0 0.27734 0.32617 4.7664 3.1452 75 0 0 0.29297 0.29297 4.7664 3.1452 75 0 0 0.26758 0.22461 4.7664 3.1452 75 0 0 0.039063 0.03125 4.7664 3.1452 75 0 0 0.25977 0.17383 4.7664 3.1452 75 0 0 0.058594 0.03906 4.7664 3.1452 75 0 0 0.27344 0.14453 4.7664 3.1452 75 0 0 0.050781 0.02734 4.7664 3.1452 75 0 0 0.27734 0.10742 4.7664 3.1452 75 0 0 0.044922 0.01758 4.7664 3.1452 75 0 0 0.00195 0 4.7664 3.1452 75 0 0 0.22461 0.05664 4.7664 3.1452 75 0 0 0.11133 0.02734 4.7664 3.1452 75 0 0 0.14258 0.01367 4.7664 3.1452 75 0 0 0.1875 0.01953 4.7664 3.1452 75 0 0 0.00586 0 4.7664 3.1452 75 0 0 0.12305 -0.0059 4.7664 3.1452 75 0 0 0.18359 -0.0078 4.7664 3.1452 75 0 0 0.30078 -0.05664 4.7664 3.1452 75 0 0 0.25781 -0.08984 4.7664 3.1452 75 0 0 0.13086 -0.0625 4.7664 3.1452 75 0 0 0.1543 -0.08398 4.7664 3.1452 75 0 0 0.11133 -0.07422 4.7664 3.1452 75 0 0 0.1543 -0.10938 4.7664 3.1452 75 0 0 0.11328 -0.10156 4.7664 3.1452 75 0 0 0.12891 -0.125 4.7664 3.1452 75 0 0 0.10547 -0.12109 4.7664 3.1452 75 0 0 0.12109 -0.15234 4.7664 3.1452 75 0 0 0.095703 -0.14258 4.7664 3.1452 75 0 0 0.09375 -0.14844 4.7664 3.1452 75 0 0 0.10156 -0.19531 4.7664 3.1452 75 0 0 0.070312 -0.14062 4.7664 3.1452 75 0 0 0.085938 -0.21484 4.7664 3.1452 75 0 0 0.06055 -0.16207 4.7664 3.1452 75 0 0 0.058593 -0.20312 4.7664 3.1452 75 0 0 0.050781 -0.18359 4.7664 3.1452 75 0 0 0.052735 -0.24805 4.7664 3.1452 75 0 0 0.029297 -0.16797 4.7664 3.1452 75 0 0 0.03125 -0.26367 4.7664 3.1452 75 0 0 0.017578 -0.17774 4.7664 3.1452 75 0 0 0.011719 -0.23633 4.7664 3.1452 75 0 0 0.00586 -0.22266 4.7664 3.1452 75 0 0 -0.00586 -0.22656 4.7664 3.1452 75 0 0 -0.00977 -0.23828 4.7664 3.1452 75 0 0 -0.027344 -0.26367 4.7664 3.1452 75 0 0 -0.019531 -0.17383 4.7664 3.1452 75 0 0 -0.048828 -0.30859 4.7664 3.1452 75 0 0 -0.03125 -0.16992 4.7664 3.1452 75 0 0 -0.095703 -0.41016 4.7664 3.1452 75 0 0 -0.11719 -0.38672 4.7664 3.1452 75 0 0 -0.082031 -0.22852 4.7664 3.1452 75 0 0 -0.078125 -0.21094 4.7664 3.1452 75 0 0 -0.10938 -0.25195 4.7664 3.1452 75 0 0 -0.080078 -0.17578 4.7664 3.1452 75 0 0 -0.11914 -0.22852 4.7664 3.1452 75 0 0 -0.10156 -0.18359 4.7664 3.1452 75 0 0 -0.125 -0.20508 4.7664 3.1452 75 0 0 -0.11132 -0.17578 4.7664 3.1452 75 0 0 -0.13672 -0.19141 4.7664 3.1452 75 0 0 -0.12695 -0.16797 4.7664 3.1452 75 0 0 -0.16992 -0.19922 4.7664 3.1452 75 0 0 -0.091797 -0.10352 4.7664 3.1452 75 0 0 -0.19141 -0.19141 4.7664 3.1452 75 0 0 -0.11914 -0.11133 4.7664 3.1452 75 0 0 -0.16992 -0.14258 4.7664 3.1452 75 0 0 -0.13281 -0.10352 4.7664 3.1452 75 0 0 -0.19727 -0.13281 4.7664 3.1452 75 0 0 -0.11523 -0.072265 4.7664 3.1452 75 0 0 -0.22461 -0.11914 4.7664 3.1452 75 0 0 -0.089844 -0.044922 4.7664 3.1452 75 0 0 -0.23242 -0.089844 4.7664 3.1452 75 0 0 -0.10156 -0.035156 4.7664 3.1452 75 0 0 -0.24219 -0.058594 4.7664 3.1452 75 0 0 -0.074219 -0.015624 4.7664 3.1452 75 0 0 -0.25195 -0.027344 4.7664 3.1452 75 0 0 -0.074219 -0.00586z" style="fill-opacity:.75;fill:currentColor"/>
		<path id="j" class="ColorScheme-Background" d="m8.1775-2.3691c-1.5506 0-3.3454 0.55338-4.9512 1.373-1.6058 0.81967-3.0201 1.8932-3.7559 3.0859-1.0002 1.6213-1.3675 4.0727-1.3105 6.3457 0.028493 1.1365 0.1689 2.2245 0.42188 3.1445 0.14532 0.52854 0.32852 0.99658 0.56055 1.3965a5.5344 4.1879 80.432 0 0 0.003906 0.05859 5.5344 4.1879 80.432 0 0 4.748 5.2832 5.5344 4.1879 80.432 0 0 3.6426 -5.7109 5.5344 4.1879 80.432 0 0 -4.748 -5.2832 5.5344 4.1879 80.432 0 0 -3.4141 3.123c-0.11247-0.63306-0.19662-1.3103-0.21484-2.0371-0.053607-2.1383 0.35051-4.4793 1.1621-5.7949 0.56632-0.91803 1.8639-1.9573 3.3594-2.7207s3.1919-1.2637 4.4961-1.2637zm-4.8203 10.016a4.7664 3.1452 75 0 1 3.6445 3.8594 4.7664 3.1452 75 0 1 -1.8047 5.418 4.7664 3.1452 75 0 1 -4.2715 -3.791 4.7664 3.1452 75 0 1 1.8027 -5.418 4.7664 3.1452 75 0 1 0.62891 -0.06836z" style="fill-opacity:.5;fill:currentColor"/>
		<ellipse id="f" class="ColorScheme-Background" transform="rotate(-15)" cx="1.6021" cy="12.925" rx="1.373" ry="2.0807" style="fill-opacity:.5;fill:currentColor"/>
	</g>
	<use id="n" transform="matrix(-1,0,0,1,22,0)" width="100%" height="100%" xlink:href="#d"/>
</svg>
