<?xml version="1.0" encoding="UTF-8"?>
<!-- Created with Inkscape (http://www.inkscape.org/) -->
<svg width="22" height="22" version="1.1" xmlns="http://www.w3.org/2000/svg" xmlns:cc="http://creativecommons.org/ns#" xmlns:dc="http://purl.org/dc/elements/1.1/" xmlns:rdf="http://www.w3.org/1999/02/22-rdf-syntax-ns#">
	<defs>
		<style id="current-color-scheme" type="text/css">.ColorScheme-Text {color:#090d11;}.ColorScheme-Background{color:#ffffff;}</style>
	</defs>
	<metadata>
		<rdf:RDF>
			<cc:Work rdf:about="">
				<dc:format>image/svg+xml</dc:format>
				<dc:type rdf:resource="http://purl.org/dc/dcmitype/StillImage"/>
			</cc:Work>
		</rdf:RDF>
	</metadata>
	<path id="d" class="ColorScheme-Text" d="m7 1v3h-4v2h2.0352c0.52516 0.01816 0.94668 0.43968 0.96484 0.96484v8.0352c0 0.55228-0.44772 1-1 1h-2v2h4v3h2v-3h2v3h2v-3h1c2.1973 0 4-1.8027 4-4 0-1.4485-0.7838-2.7256-1.9473-3.4277 0.58913-0.69723 0.94727-1.5952 0.94727-2.5723 0-2.1973-1.8027-4-4-4v-3h-2v3h-2v-3zm2 5h3c1.1164 0 2 0.88359 2 2s-0.88359 2-2 2h-3zm0 6h4c1.1164 0 2 0.88359 2 2s-0.88359 2-2 2h-4z" style="fill-opacity:.75;fill:currentColor"/>
	<path id="c" class="ColorScheme-Background" d="m7 0c-0.55226 5.52e-5 -0.99994 0.44774-1 1v2h-3c-0.55226 5.52e-5 -0.99994 0.44774-1 1v2c5.52e-5 0.55226 0.44774 0.99994 1 1h2v8h-2c-0.55226 5.5e-5 -0.99994 0.44774-1 1v2c5.52e-5 0.55226 0.44774 0.99994 1 1h3v2c5.52e-5 0.55226 0.44774 0.99994 1 1h2c0.55226-5.5e-5 0.99994-0.44774 1-1 5.5e-5 0.55226 0.44774 0.99994 1 1h2c0.55226-5.5e-5 0.99994-0.44774 1-1v-2c2.7442 0 5-2.2558 5-5 0-1.4465-0.73159-2.6487-1.7246-3.5645 0.42023-0.73083 0.72461-1.5376 0.72461-2.4355 0-2.3905-1.7448-4.3159-4-4.7969v-2.2031c-5.5e-5 -0.55226-0.44774-0.99994-1-1h-2c-0.55226 5.52e-5 -0.99994 0.44774-1 1-5.5e-5 -0.55226-0.44774-0.99994-1-1zm0 1h2v3h2v-3h2v3c2.1973 0 4 1.8027 4 4 0 0.9771-0.35814 1.875-0.94727 2.5723 1.1635 0.70214 1.9473 1.9792 1.9473 3.4277 0 2.1973-1.8027 4-4 4h-1v3h-2v-3h-2v3h-2v-3h-4v-2h2c0.55228 0 1-0.44772 1-1v-8.0352c-0.01816-0.52516-0.43968-0.94668-0.96484-0.96484h-2.0352v-2h4zm2 5v4h3c1.1164 0 2-0.88359 2-2s-0.88359-2-2-2zm1 1h2c0.58878 0 1 0.41122 1 1s-0.41122 1-1 1h-2zm-1 5v4h4c1.1164 0 2-0.88359 2-2s-0.88359-2-2-2zm1 1h3c0.58878 0 1 0.41122 1 1s-0.41122 1-1 1h-3z" style="fill-opacity:.5;fill:currentColor"/>
</svg>
