<?xml version="1.0" encoding="UTF-8"?>
<svg id="a" width="22" height="22" version="1.1" xmlns="http://www.w3.org/2000/svg" xmlns:cc="http://creativecommons.org/ns#" xmlns:dc="http://purl.org/dc/elements/1.1/" xmlns:rdf="http://www.w3.org/1999/02/22-rdf-syntax-ns#">
	<metadata id="c">
		<rdf:RDF>
			<cc:Work rdf:about="">
				<dc:format>image/svg+xml</dc:format>
				<dc:type rdf:resource="http://purl.org/dc/dcmitype/StillImage"/>
			</cc:Work>
		</rdf:RDF>
	</metadata>
	<defs>
		<style id="current-color-scheme" type="text/css">.ColorScheme-Text {color:#090d11;}.ColorScheme-Background{color:#ffffff;}</style>
	</defs>
	<path id="b" class="ColorScheme-Text" d="m9.826 1.5c-0.18044 0-0.32617 0.14574-0.32617 0.32617v2.9668c-0.4562 0.14214-0.89665 0.33063-1.3145 0.5625l-2.1113-2.1113c-0.12759-0.12759-0.33335-0.12759-0.46094 0l-2.3691 2.3691c-0.12759 0.12759-0.12759 0.33335 0 0.46094l2.1113 2.1113c-0.23187 0.4178-0.42036 0.85825-0.5625 1.3145h-2.9668c-0.18044 0-0.32617 0.14574-0.32617 0.32617v3.3477c0 0.18044 0.14574 0.32617 0.32617 0.32617h2.9668c0.14214 0.4562 0.33063 0.89665 0.5625 1.3145l-2.1113 2.1113c-0.12759 0.12759-0.12759 0.33335 0 0.46094l2.3691 2.3691c0.12759 0.12759 0.33335 0.12759 0.46094 0l2.1113-2.1113c0.4178 0.23187 0.85825 0.42036 1.3145 0.5625v2.9668c0 0.18044 0.14574 0.32617 0.32617 0.32617h3.3477c0.18044 0 0.32617-0.14574 0.32617-0.32617v-2.9668c0.4562-0.14214 0.89665-0.33063 1.3145-0.5625l2.1113 2.1113c0.12759 0.12759 0.33335 0.12759 0.46094 0l2.3691-2.3691c0.12759-0.12759 0.12759-0.33335 0-0.46094l-2.1113-2.1113c0.23187-0.4178 0.42036-0.85825 0.5625-1.3145h2.9668c0.18044 0 0.32617-0.14574 0.32617-0.32617v-3.3477c0-0.18044-0.14574-0.32617-0.32617-0.32617h-2.9668c-0.1369-0.46036-0.32081-0.90542-0.54883-1.3281l2.0977-2.0977c0.12759-0.12759 0.12759-0.33335 0-0.46094l-2.3691-2.3691c-0.12759-0.12759-0.33335-0.12759-0.46094 0l-2.0977 2.0977c-0.42271-0.22802-0.86776-0.41193-1.3281-0.54883v-2.9668c0-0.18044-0.14574-0.32617-0.32617-0.32617zm1.5527 5.0039c0.32217-0.00822 0.64608 0.013858 0.9668 0.068359 0.57017 0.096892 1.1304 0.29518 1.6543 0.59766l-1 1.7324c-1.2666-0.73126-2.8587-0.45043-3.7988 0.66992-0.94009 1.1204-0.94009 2.7351 0 3.8555s2.5322 1.4012 3.7988 0.66992l1 1.7324c-2.0956 1.2099-4.7746 0.73846-6.3301-1.1152-1.5554-1.8537-1.5554-4.576 0-6.4297 0.94784-1.1296 2.3129-1.7456 3.709-1.7812z" style="fill-opacity:.75;fill:currentColor"/>
	<path id="d" class="ColorScheme-Background" d="m9.826 0.5c-0.71889 0-1.3262 0.60728-1.3262 1.3262v2.3125c-0.027468 0.011543-0.054694 0.023307-0.082031 0.035156l-1.6367-1.6367c-0.5077-0.5077-1.3673-0.5077-1.875 0l-2.3691 2.3691c-0.5077 0.5077-0.5077 1.3673 0 1.875l1.6367 1.6367c-0.011849 0.027337-0.023613 0.054563-0.035156 0.082031h-2.3125c-0.71889 0-1.3262 0.60728-1.3262 1.3262v3.3477c0 0.71889 0.60728 1.3262 1.3262 1.3262h2.3125c0.011543 0.02747 0.023307 0.05469 0.035156 0.08203l-1.6367 1.6367c-0.50771 0.50771-0.50771 1.3673 0 1.875l2.3691 2.3691c0.5077 0.5077 1.3673 0.5077 1.875 0l1.6367-1.6367c0.027337 0.01185 0.054563 0.02361 0.082031 0.03516v2.3125c2e-7 0.71888 0.60728 1.3262 1.3262 1.3262h3.3477c0.71889 0 1.3262-0.60728 1.3262-1.3262v-2.3125c0.02747-0.01154 0.05469-0.02331 0.08203-0.03516l1.6367 1.6367c0.50771 0.50771 1.3673 0.50771 1.875 0l2.3691-2.3691c0.50771-0.50771 0.50771-1.3673 0-1.875l-1.6367-1.6367c0.01185-0.02734 0.02361-0.05456 0.03516-0.08203h2.3125c0.71888 6e-6 1.3262-0.60728 1.3262-1.3262v-3.3477c0-0.71889-0.60728-1.3262-1.3262-1.3262h-2.3027c-0.01221-0.030066-0.02453-0.059929-0.03711-0.089844l1.6289-1.6289c0.5077-0.5077 0.5077-1.3673 0-1.875l-2.3691-2.3691c-0.50771-0.50771-1.3673-0.50771-1.875 0l-1.6289 1.6289c-0.02991-0.01258-0.05978-0.024895-0.08984-0.037109v-2.3027c0-0.71889-0.60728-1.3262-1.3262-1.3262zm0 1h3.3477c0.18044 0 0.32617 0.14574 0.32617 0.32617v2.9668c0.46036 0.1369 0.90542 0.32081 1.3281 0.54883l2.0977-2.0977c0.12759-0.12759 0.33335-0.12759 0.46094 0l2.3691 2.3691c0.12759 0.12759 0.12759 0.33335 0 0.46094l-2.0977 2.0977c0.22802 0.42271 0.41193 0.86776 0.54883 1.3281h2.9668c0.18044 0 0.32617 0.14574 0.32617 0.32617v3.3477c0 0.18044-0.14574 0.32617-0.32617 0.32617h-2.9668c-0.14214 0.4562-0.33063 0.89665-0.5625 1.3145l2.1113 2.1113c0.12759 0.12759 0.12759 0.33335 0 0.46094l-2.3691 2.3691c-0.12759 0.12759-0.33335 0.12759-0.46094 0l-2.1113-2.1113c-0.4178 0.23187-0.85825 0.42036-1.3145 0.5625v2.9668c0 0.18044-0.14574 0.32617-0.32617 0.32617h-3.3477c-0.18044 0-0.32617-0.14574-0.32617-0.32617v-2.9668c-0.4562-0.14214-0.89665-0.33063-1.3145-0.5625l-2.1113 2.1113c-0.12759 0.12759-0.33335 0.12759-0.46094 0l-2.3691-2.3691c-0.12759-0.12759-0.12759-0.33335 0-0.46094l2.1113-2.1113c-0.23187-0.4178-0.42036-0.85825-0.5625-1.3145h-2.9668c-0.18044 0-0.32617-0.14574-0.32617-0.32617v-3.3477c0-0.18044 0.14574-0.32617 0.32617-0.32617h2.9668c0.14214-0.4562 0.33063-0.89665 0.5625-1.3145l-2.1113-2.1113c-0.12759-0.12759-0.12759-0.33335 0-0.46094l2.3691-2.3691c0.12759-0.12759 0.33335-0.12759 0.46094 0l2.1113 2.1113c0.4178-0.23187 0.85825-0.42036 1.3145-0.5625v-2.9668c0-0.18044 0.14574-0.32617 0.32617-0.32617zm1.5527 5.0039c-1.3961 0.035627-2.7611 0.65166-3.709 1.7812-1.5554 1.8537-1.5554 4.576 0 6.4297s4.2344 2.3251 6.3301 1.1152l-1-1.7324c-1.2666 0.73126-2.8587 0.45043-3.7988-0.66992-0.94009-1.1204-0.94009-2.7351 0-3.8555s2.5322-1.4012 3.7988-0.66992l1-1.7324c-0.52391-0.30248-1.0841-0.50076-1.6543-0.59766-0.32072-0.054502-0.64462-0.076581-0.9668-0.068359z" style="fill-opacity:.5;fill:currentColor"/>
</svg>
