<?xml version="1.0" encoding="UTF-8"?>
<svg id="g" width="22" height="22" version="1.1" xmlns="http://www.w3.org/2000/svg" xmlns:cc="http://creativecommons.org/ns#" xmlns:dc="http://purl.org/dc/elements/1.1/" xmlns:rdf="http://www.w3.org/1999/02/22-rdf-syntax-ns#">
	<metadata id="b">
		<rdf:RDF>
			<cc:Work rdf:about="">
				<dc:format>image/svg+xml</dc:format>
				<dc:type rdf:resource="http://purl.org/dc/dcmitype/StillImage"/>
				<dc:title/>
			</cc:Work>
		</rdf:RDF>
	</metadata>
	<defs id="a">
		<style id="current-color-scheme" type="text/css">.ColorScheme-Text {color:#090d11;}.ColorScheme-Background{color:#ffffff;}</style>
	</defs>
	<path id="f" class="ColorScheme-Text" d="m5 3c-2.216 0-4 1.784-4 4v9c0 2.216 1.784 4 4 4h12c2.216 0 4-1.784 4-4v-9c0-2.216-1.784-4-4-4zm3 4h2v1h-2zm2 2h2v1h-2zm2 2h2v1h-2zm-2 2h2v1h-2zm-2 2h2v1h-2z" style="fill-opacity:.75;fill:currentColor"/>
	<path id="h" class="ColorScheme-Background" d="m5 2c-2.7527 0-5 2.2473-5 5v9c0 2.7527 2.2473 5 5 5h12c2.7527 0 5-2.2473 5-5v-9c0-2.7527-2.2473-5-5-5zm0 1h12c2.216 0 4 1.784 4 4v9c0 2.216-1.784 4-4 4h-12c-2.216 0-4-1.784-4-4v-9c0-2.216 1.784-4 4-4zm3 4v1h2v-1zm2 2v1h2v-1zm2 2v1h2v-1zm-2 2v1h2v-1zm-2 2v1h2v-1z" style="fill-opacity:.5;fill:currentColor"/>
</svg>
