<?xml version="1.0" encoding="UTF-8" standalone="no"?>
<svg
   xmlns:dc="http://purl.org/dc/elements/1.1/"
   xmlns:cc="http://creativecommons.org/ns#"
   xmlns:rdf="http://www.w3.org/1999/02/22-rdf-syntax-ns#"
   xmlns:svg="http://www.w3.org/2000/svg"
   xmlns="http://www.w3.org/2000/svg"
   version="1.1"
   width="22"
   height="22"
   id="svg2">
  <defs
     id="defs4">
    <style
       type="text/css"
       id="current-color-scheme">.ColorScheme-Text {color:#090d11;}.ColorScheme-Background{color:#ffffff;}</style>
  </defs>
  <metadata
     id="metadata7">
    <rdf:RDF>
      <cc:Work
         rdf:about="">
        <dc:format>image/svg+xml</dc:format>
        <dc:type
           rdf:resource="http://purl.org/dc/dcmitype/StillImage" />
        <dc:title></dc:title>
      </cc:Work>
    </rdf:RDF>
  </metadata>
  <path
     style="fill:currentColor;fill-opacity:0.5"
     d="M 5,1 C 2.8012972,1 1,2.8012972 1,5 v 12 c 0,2.198703 1.8012972,4 4,4 H 6 11.533203 15 c 0.52164,-4.91e-4 0.955293,-0.401833 0.996094,-0.921875 L 20,22 15,18 v 2 H 11.533203 6 5 C 3.338,20 2,18.662 2,17 V 5 C 2,4.79225 2.0207148,4.5901758 2.0605469,4.3945312 2.3393711,3.0250195 3.54575,2 5,2 h 1 9 2 c 1.662,0 3,1.338 3,3 V 6 8.482422 22 l 1,-2 V 6 5 C 21,2.8012972 19.198703,1 17,1 H 15 6 Z m 4.335938,5.8339844 c -2e-6,0 -1.4032755,-0.029513 -2.8886724,1.0742187 0,0 -1.484375,2.6703729 -1.484375,5.9609379 0,0 0.8648595,1.486383 3.1445313,1.558593 0,0 -0.1043842,-0.0085 -0.1699219,-0.06641 C 7.8719623,15.303392 7.8452709,15.195989 8,15 6.6899634,14.60802 6.9941406,13.375 6.9941406,13.375 c 0,0 0.1033851,0.07264 0.2890625,0.175781 0.010326,0 0.020378,0.0092 0.041016,0.01953 0.03095,0.02063 0.0628,0.03212 0.09375,0.05274 0.2578808,0.144414 0.5147034,0.256769 0.7519531,0.349609 0.4229261,0.175359 0.9276568,0.329892 1.5156248,0.44336 0.773644,0.144414 1.681612,0.197408 2.671875,0.01172 0.484817,-0.09284 0.98033,-0.228693 1.496094,-0.445312 0.361034,-0.1341 0.764576,-0.32891 1.1875,-0.607422 0,0 0.310282,1.243336 -1.041016,1.625 0.309458,0.381669 -0.146484,0.417969 -0.146484,0.417969 C 16.133187,15.34576 17,13.858821 17,13.869141 17,10.578576 15.513672,7.9082031 15.513672,7.9082031 14.03859,6.8044814 12.626953,6.8339844 12.626953,6.8339844 L 12.482422,7 c 1.753593,0.5260779 2.568359,1.298828 2.568359,1.298828 -1.072786,-0.5776538 -2.125515,-0.8650475 -3.105469,-0.9785155 -0.742694,-0.082525 -1.454753,-0.06298 -2.083984,0.019531 -0.06188,-10e-8 -0.113881,0.011186 -0.175781,0.021484 -0.361034,0.041262 -1.2361122,0.1655735 -2.3398439,0.6503905 -0.381665,0.165044 -0.609375,0.28711 -0.609375,0.28711 0,0 0.8463798,-0.813766 2.7031249,-1.3398442 z M 9,11 c 0.558812,0 1.0098,0.445455 1,1 0,0.554546 -0.441188,1 -1,1 -0.5490096,0 -1,-0.445454 -1,-1 0,-0.554545 0.4411871,-1 1,-1 z m 4,0 c 0.549009,0 1,0.445455 1,1 0,0.554546 -0.441186,1 -1,1 -0.549008,0 -1,-0.445454 -1,-1 0,-0.554545 0.441188,-1 1,-1 z"
     id="rect3801"
     class="ColorScheme-Background" />
  <path
     id="path19"
     d="M 5,2 C 3.338,2 2,3.338 2,5 v 12 c 0,1.662 1.338,3 3,3 H 6 11.533203 15 v -2 l 5,4 V 8.482422 6 5 C 20,3.338 18.662,2 17,2 H 15 6 Z m 4.335938,4.8339844 0.103515,0.125 C 7.5827078,7.4850626 6.7363281,8.298828 6.7363281,8.298828 c 0,0 0.22771,-0.122065 0.609375,-0.287109 C 8.4494348,7.5269017 9.324513,7.4025901 9.685547,7.3613281 c 0.0619,-0.010298 0.113901,-0.021484 0.175781,-0.021484 0.629231,-0.082511 1.341289,-0.1020563 2.083984,-0.019531 0.979953,0.113468 2.032683,0.4008617 3.105469,0.9785159 0,0 -0.814766,-0.7727505 -2.568359,-1.2988284 L 12.626953,6.833985 c 0,0 1.411637,-0.029503 2.886719,1.0742187 0,0 1.486328,2.6703733 1.486328,5.9609383 0,-0.01032 -0.866813,1.476619 -3.146484,1.548828 0,0 0.455942,-0.0363 0.146484,-0.417969 1.351298,-0.381664 1.041016,-1.625 1.041016,-1.625 -0.422924,0.278512 -0.826466,0.473322 -1.1875,0.607422 -0.515764,0.216619 -1.011277,0.352472 -1.496094,0.445312 -0.990263,0.18569 -1.898231,0.132694 -2.671875,-0.01172 C 9.097579,14.302547 8.592848,14.148014 8.1699219,13.972655 7.9326722,13.879815 7.6758496,13.76746 7.4179688,13.623046 c -0.03095,-0.02062 -0.0628,-0.03211 -0.09375,-0.05274 -0.020638,-0.01036 -0.03069,-0.01953 -0.041016,-0.01953 C 7.0975254,13.447632 6.9941406,13.375 6.9941406,13.375 c 0,0 -0.3041772,1.23302 1.0058594,1.625 -0.3094581,0.391978 0.1074219,0.427734 0.1074219,0.427734 -2.2796718,-0.07221 -3.1445313,-1.558593 -3.1445313,-1.558593 0,-3.290565 1.484375,-5.9609379 1.484375,-5.9609379 C 7.9326625,6.8044717 9.335937,6.8339844 9.335938,6.8339844 Z M 9,11 c -0.5588129,0 -1,0.445455 -1,1 0,0.554546 0.4509904,1 1,1 0.558812,0 1,-0.445454 1,-1 0.0098,-0.554545 -0.441188,-1 -1,-1 z m 4,0 c -0.558812,0 -1,0.445455 -1,1 0,0.554546 0.450992,1 1,1 0.558814,0 1,-0.445454 1,-1 0,-0.554545 -0.450991,-1 -1,-1 z"
     style="fill:currentColor;fill-opacity:0.75"
     class="ColorScheme-Text" />
</svg>
