<?xml version="1.0" encoding="UTF-8"?>
<!-- Created with Inkscape (http://www.inkscape.org/) -->
<svg width="22" height="22" version="1.1" xmlns="http://www.w3.org/2000/svg" xmlns:cc="http://creativecommons.org/ns#" xmlns:dc="http://purl.org/dc/elements/1.1/" xmlns:rdf="http://www.w3.org/1999/02/22-rdf-syntax-ns#">
	<defs>
		<style id="current-color-scheme" type="text/css">.ColorScheme-Text {color:#090d11;}.ColorScheme-Background{color:#ffffff;}</style>
	</defs>
	<metadata>
		<rdf:RDF>
			<cc:Work rdf:about="">
				<dc:format>image/svg+xml</dc:format>
				<dc:type rdf:resource="http://purl.org/dc/dcmitype/StillImage"/>
			</cc:Work>
		</rdf:RDF>
	</metadata>
	<path id="h" class="ColorScheme-Background" d="m5.7676-0.06836c-0.3087 0.0024471-0.60645 0.14853-0.79688 0.40625-1.3709 1.8609-1.697 4.4083-0.92969 6.4062-0.058458 0.084918-0.10874 0.17475-0.16406 0.26172-0.77913-0.30987-1.5033-0.81051-2.1465-1.8828-0.52181-0.8687-1.8561-0.4997-1.8574 0.51367 0 2.345 0.89582 4.4949 2.6465 5.793-4.406e-4 0.01042-0.00155 0.02083-0.00195 0.03125-3.077e-4 0.01432-3.077e-4 0.02865 0 0.04297 0.0063 1.3016 0.35794 2.5651 0.93555 3.7266-0.94407 1.6471-1.3263 3.7705-0.67773 5.6855 0.3066 0.9026 1.5823 0.90524 1.8926 0.0039 0.41554-1.2109 0.82989-1.9407 1.6719-2.457 1.3915 0.93598 2.9865 1.5331 4.6758 1.5371 2e-3 6e-6 0.0039 6e-6 0.0059 0 1.6665-5e-3 3.2397-0.58835 4.6191-1.502 0.80028 0.51647 1.2108 1.2376 1.6172 2.4219 0.31033 0.90133 1.586 0.89869 1.8926-0.0039 0.63522-1.8757 0.27671-3.9529-0.61719-5.5879 0.60937-1.1876 0.97862-2.4847 0.98438-3.8242v-0.01c-2.64e-4 -0.04501-0.0049-0.08978-0.0059-0.13477 1.6858-1.3095 2.541-3.4237 2.541-5.7227-0.0013-1.0129-1.3356-1.3821-1.8574-0.51344-0.61749 1.0294-1.3113 1.5263-2.0527 1.8457-0.07122-0.11197-0.13648-0.22739-0.21289-0.33594 0.70129-1.9826 0.36971-4.4701-0.97461-6.2949-0.20089-0.27206-0.52567-0.42416-0.86328-0.4043-0.52034 0.030466-0.93003 0.45546-0.94141 0.97656-0.02818 1.27-0.21205 2.0792-0.8457 2.8223-1.0442-0.44164-2.1474-0.73212-3.2871-0.73242-2e-3 -5.7e-6 -0.0039-5.7e-6 -0.0059 0-1.1635 0.00571-2.2857 0.31277-3.3457 0.77734-0.67321-0.75512-0.86186-1.5728-0.89058-2.8672-0.0095099-0.42824-0.29068-0.80288-0.69922-0.93164-0.10186-0.03216-0.20569-0.047691-0.30859-0.046875zm0.00781 1c0.035181 1.5852 0.20287 2.956 1.5645 4.0527 1.1208-0.63899 2.3876-0.97804 3.6777-0.98438 1.2695 3.413e-4 2.5181 0.32291 3.6289 0.9375 1.3089-1.0889 1.4692-2.4432 1.5039-4.0059 1.2164 1.6512 1.4742 4.2787 0.69922 5.8555 0.35935 0.44463 0.66669 0.9289 0.91602 1.4434 1.2468-0.30524 2.3856-1.0908 3.2871-2.5938 0 2.286-0.85862 4.2628-2.5605 5.2891 0.0158 0.19101 0.02427 0.38256 0.02539 0.57422-0.0057 1.3313-0.3657 2.6371-1.043 3.7832 0.94102 1.3653 1.3124 3.5884 0.72852 5.3125-0.48729-1.42-1.0312-2.621-2.4707-3.2812-1.3321 1.0854-2.9965 1.6804-4.7148 1.6855-1.7369-0.0041-3.4185-0.61088-4.7578-1.7168-1.4902 0.65335-2.0423 1.8706-2.5371 3.3125-0.59642-1.7611-0.19704-4.0442 0.78906-5.4004-0.64533-1.1251-0.98786-2.3983-0.99414-3.6953 0.00657-0.17029 0.018952-0.34032 0.037109-0.50977-1.7801-1.005-2.6816-3.0154-2.6816-5.3535 0.92681 1.5451 2.1047 2.3309 3.3926 2.6172 0.2374-0.48686 0.52685-0.94658 0.86328-1.3711-0.83604-1.5639-0.59562-4.2651 0.64648-5.9512zm5.2246 5.0684-4 6 3-1v5h2v-5l3 1z" style="fill-opacity:.5;fill:currentColor"/>
	<path id="e" class="ColorScheme-Text" d="m5.7754 0.9316c-1.2421 1.6861-1.4825 4.3873-0.64648 5.9512-0.33643 0.42452-0.62588 0.88423-0.86328 1.3711-1.2879-0.28626-2.4658-1.0721-3.3926-2.6172 0 2.3382 0.90153 4.3485 2.6816 5.3535-0.018158 0.16945-0.030535 0.33947-0.037109 0.50977 0.00628 1.297 0.34881 2.5702 0.99414 3.6953-0.9861 1.3562-1.3855 3.6393-0.78906 5.4004 0.49482-1.4419 1.0469-2.6592 2.5371-3.3125 1.3393 1.1059 3.0209 1.7127 4.7578 1.7168 1.7183-0.0052 3.3827-0.60018 4.7148-1.6855 1.4395 0.66026 1.9834 1.8613 2.4707 3.2812 0.5839-1.7241 0.2125-3.9472-0.72852-5.3125 0.67727-1.1462 1.0372-2.4519 1.043-3.7832-0.0011-0.19166-0.0096-0.38321-0.02539-0.57422 1.7019-1.0263 2.5605-3.003 2.5605-5.2891-0.9015 1.5029-2.0403 2.2885-3.2871 2.5938-0.24933-0.51446-0.55667-0.99872-0.91602-1.4434 0.77502-1.5768 0.51718-4.2043-0.69922-5.8555-0.03468 1.5626-0.19504 2.917-1.5039 4.0059-1.1108-0.61459-2.3594-0.93716-3.6289-0.9375-1.2902 0.00633-2.5569 0.34538-3.6777 0.98438-1.3616-1.0967-1.5293-2.4675-1.5645-4.0527zm5.2246 5.0684 4 6-3-1v5h-2v-5l-3 1z" style="fill-opacity:.75;fill:currentColor"/>
</svg>
