<?xml version="1.0" encoding="UTF-8"?>
<!-- Created with Inkscape (http://www.inkscape.org/) -->
<svg width="22" height="22" version="1.1" xmlns="http://www.w3.org/2000/svg" xmlns:cc="http://creativecommons.org/ns#" xmlns:dc="http://purl.org/dc/elements/1.1/" xmlns:rdf="http://www.w3.org/1999/02/22-rdf-syntax-ns#">
	<defs>
		<style id="current-color-scheme" type="text/css">.ColorScheme-Text {color:#090d11;}.ColorScheme-Background{color:#ffffff;}</style>
	</defs>
	<metadata>
		<rdf:RDF>
			<cc:Work rdf:about="">
				<dc:format>image/svg+xml</dc:format>
				<dc:type rdf:resource="http://purl.org/dc/dcmitype/StillImage"/>
			</cc:Work>
		</rdf:RDF>
	</metadata>
	<path id="e" class="ColorScheme-Text" d="m5.7754 0.9316c-1.2421 1.6861-1.4825 4.3873-0.64648 5.9512-0.33643 0.42452-0.62588 0.88423-0.86328 1.3711-1.2879-0.28626-2.4658-1.0721-3.3926-2.6172 0 2.3382 0.90153 4.3485 2.6816 5.3535-0.018158 0.16945-0.030535 0.33947-0.037109 0.50977 0.00628 1.297 0.34881 2.5702 0.99414 3.6953-0.9861 1.3562-1.3855 3.6393-0.78906 5.4004 0.49482-1.4419 1.0469-2.6592 2.5371-3.3125 1.3393 1.1059 3.0209 1.7127 4.7578 1.7168 1.7183-0.0052 3.3827-0.60018 4.7148-1.6855 1.4395 0.66026 1.9834 1.8613 2.4707 3.2812 0.5839-1.7241 0.2125-3.9472-0.72852-5.3125 0.67727-1.1462 1.0372-2.4519 1.043-3.7832-0.0011-0.19166-0.0096-0.38321-0.02539-0.57422 1.7019-1.0263 2.5605-3.003 2.5605-5.2891-0.9015 1.5029-2.0403 2.2885-3.2871 2.5938-0.24933-0.51446-0.55667-0.99872-0.91602-1.4434 0.77502-1.5768 0.51718-4.2043-0.69922-5.8555-0.03468 1.5626-0.19504 2.917-1.5039 4.0059-1.1108-0.61459-2.3594-0.93716-3.6289-0.9375-1.2902 0.00633-2.5569 0.34538-3.6777 0.98438-1.3616-1.0967-1.5293-2.4675-1.5645-4.0527zm5.2246 5.0684 4 6-3-1v5h-2v-5l-3 1z" style="fill-opacity:.75;fill:currentColor"/>
</svg>
