<?xml version="1.0" encoding="UTF-8"?>
<!-- Created with Inkscape (http://www.inkscape.org/) -->
<svg width="22" height="22" version="1.1" xmlns="http://www.w3.org/2000/svg" xmlns:cc="http://creativecommons.org/ns#" xmlns:dc="http://purl.org/dc/elements/1.1/" xmlns:rdf="http://www.w3.org/1999/02/22-rdf-syntax-ns#">
	<metadata>
		<rdf:RDF>
			<cc:Work rdf:about="">
				<dc:format>image/svg+xml</dc:format>
				<dc:type rdf:resource="http://purl.org/dc/dcmitype/StillImage"/>
			</cc:Work>
		</rdf:RDF>
	</metadata>
	<defs>
		<style id="current-color-scheme" type="text/css">.ColorScheme-Background{color:#ffffff;}
			.ColorScheme-Text{color:#090d11;}</style>
	</defs>
	<path class="ColorScheme-Text" d="m2 2v2.9205c0.79421 0.45851 1.2841 1.3053 1.2857 2.2224-0.0016 0.91706-0.4915 1.7639-1.2857 2.2224v3.2696c0.79421 0.45851 1.2841 1.3053 1.2857 2.2224-0.0016 0.91706-0.4915 1.7639-1.2857 2.2224v2.9205h2.9481c0.45352-0.78574 1.2876-1.2743 2.1947-1.2857 0.91706 0.0016 1.7639 0.4915 2.2224 1.2857h3.2972c0.45352-0.78574 1.2876-1.2743 2.1947-1.2857 0.91706 0.0016 1.7639 0.4915 2.2224 1.2857h2.9205v-2.9481c-0.78574-0.45352-1.2743-1.2876-1.2857-2.1947 0.01138-0.90716 0.49997-1.7412 1.2857-2.1947v-3.3249c-0.78574-0.45352-1.2743-1.2876-1.2857-2.1947 0.011379-0.90716 0.49997-1.7412 1.2857-2.1947v-2.9481h-2.9205c-0.45851 0.79421-1.3053 1.2841-2.2224 1.2857-0.90716-0.011379-1.7412-0.49997-2.1947-1.2857h-3.2972c-0.45851 0.79421-1.3053 1.2841-2.2224 1.2857-0.90716-0.011379-1.7412-0.49997-2.1947-1.2857h-1.6624zm5.5 4h7.5v2h-5.565l-0.20289 2h6.7679v2.2857l-2.5714 1.7143h2.5714v2h-5v-2l3-2h-5l-0.57145 4h-2.0714z" style="fill-opacity:.75;fill:currentColor"/>
	<path class="ColorScheme-Background" d="m2.25 1c-0.69032 6.9e-5 -1.2499 0.55967-1.25 1.25v2.8394c3.788e-4 0.44622 0.23857 0.85841 0.625 1.0815 0.38675 0.22325 0.62056 0.63272 0.62256 1.0791 0 0.44637-0.23581 0.85585-0.62256 1.0791-0.38642 0.22314-0.62462 0.63532-0.625 1.0815v3.1787c3.786e-4 0.44622 0.23857 0.85841 0.625 1.0815 0.38675 0.22325 0.62056 0.63272 0.62256 1.0791 0 0.44638-0.23581 0.85585-0.62256 1.0791-0.38642 0.22314-0.62462 0.63532-0.625 1.0815v2.8394c6.9e-5 0.69032 0.55967 1.2499 1.25 1.25h2.8662c0.44622-3.79e-4 0.85841-0.23858 1.0815-0.625 0.21987-0.38088 0.62032-0.61136 1.0596-0.62011 0.44312 0 0.84977 0.23574 1.0718 0.62011 0.22314 0.38642 0.63532 0.62462 1.0815 0.625h3.2056c0.44622-3.79e-4 0.85841-0.23858 1.0815-0.625 0.21988-0.38088 0.62032-0.61136 1.0596-0.62011 0.44312 0 0.84978 0.23574 1.0718 0.62011 0.22314 0.38642 0.63532 0.62462 1.0815 0.625h2.8394c0.69032-6.9e-5 1.2499-0.55968 1.25-1.25v-2.8662c-3.78e-4 -0.44622-0.23857-0.85841-0.625-1.0815-0.37812-0.21825-0.60336-0.61687-0.61524-1.0522 0.0125-0.43538 0.23711-0.834 0.61524-1.0522 0.38642-0.22314 0.62462-0.63532 0.625-1.0815v-3.2324c-3.78e-4 -0.44622-0.23857-0.85841-0.625-1.0815-0.37812-0.21825-0.60336-0.61687-0.61524-1.0522 0.012499-0.43537 0.23711-0.834 0.61524-1.0522 0.38642-0.22314 0.62462-0.63532 0.625-1.0815v-2.8662c-6.8e-5 -0.69032-0.55967-1.2499-1.25-1.25h-2.8394c-0.44622 3.785e-4 -0.85841 0.23857-1.0815 0.625-0.222 0.38437-0.62865 0.61524-1.0718 0.62011-0.43925-0.0125-0.8397-0.23924-1.0596-0.62011-0.22314-0.38642-0.63532-0.62462-1.0815-0.625h-3.2056c-0.44622 3.787e-4 -0.85841 0.23857-1.0815 0.625-0.222 0.38437-0.62865 0.61524-1.0718 0.62011-0.43925-0.0125-0.8397-0.23924-1.0596-0.62011-0.22314-0.38642-0.63532-0.62462-1.0815-0.625h-1.6162zm-0.25002 0.99997h2.9481c0.45354 0.78575 1.2876 1.2743 2.1947 1.2857 0.91706-0.00161 1.7639-0.4915 2.2224-1.2857h3.2972c0.45354 0.78575 1.2876 1.2743 2.1947 1.2857 0.91706-0.00161 1.7639-0.4915 2.2224-1.2857h2.9205v2.9481c-0.78575 0.45354-1.2743 1.2876-1.2857 2.1947 0.01131 0.90718 0.49996 1.7412 1.2857 2.1947v3.3247c-0.78575 0.45354-1.2743 1.2876-1.2857 2.1947 0.01132 0.90718 0.49996 1.7412 1.2857 2.1947v2.9481h-2.9205c-0.45851-0.79421-1.3053-1.2841-2.2224-1.2857-0.90718 0.01131-1.7412 0.49996-2.1947 1.2857h-3.2972c-0.45851-0.79421-1.3053-1.2841-2.2224-1.2857-0.90718 0.01131-1.7412 0.49996-2.1947 1.2857h-2.9481v-2.9205c0.79421-0.45851 1.2841-1.3053 1.2857-2.2224-0.00161-0.91706-0.4915-1.7639-1.2857-2.2224v-3.2696c0.79421-0.45851 1.2841-1.3053 1.2857-2.2224-0.0016-0.91706-0.4915-1.7639-1.2857-2.2224v-1.6348zm5.5 4-1.1429 10h2.0714l0.57145-4h5l-3 2v2h5v-2h-2.5714l2.5714-1.7143v-2.2857h-6.7679l0.20289-2h5.565v-2h-6.2143z" style="fill-opacity:.5;fill:currentColor"/>
</svg>
