<?xml version="1.0" encoding="UTF-8"?>
<svg id="b" width="22" height="22" version="1.1" xmlns="http://www.w3.org/2000/svg" xmlns:cc="http://creativecommons.org/ns#" xmlns:dc="http://purl.org/dc/elements/1.1/" xmlns:rdf="http://www.w3.org/1999/02/22-rdf-syntax-ns#">
	<metadata id="a">
		<rdf:RDF>
			<cc:Work rdf:about="">
				<dc:format>image/svg+xml</dc:format>
				<dc:type rdf:resource="http://purl.org/dc/dcmitype/StillImage"/>
				<dc:title/>
			</cc:Work>
		</rdf:RDF>
	</metadata>
	<defs id="j">
		<style id="current-color-scheme" type="text/css">.ColorScheme-Text {color:#090d11;}.ColorScheme-Background{color:#ffffff;}</style>
	</defs>
	<path id="c" class="ColorScheme-Text" d="m8.8694 0.726c-0.83078 0.21813-1.8447 0.55504-2.6272 0.96726 0.019655 0.72105 0.046582 1.4928 0.087639 2.3473-0.8345 0.50895-1.4039 0.99835-1.9203 1.4853-0.64753-0.45145-1.265-0.81942-1.8482-1.0927-0.7695 0.82123-1.2931 1.6414-1.8346 2.4627 0.39298 0.59061 0.86514 1.3235 1.2756 1.888l-0.00194 6.1314 3.3478 0.31163c0.020348 0.0018 0.040535 0.0051 0.060373 0.01015 0.020677 0.0057 0.04087 0.01314 0.060373 0.02226 0.00589 0.0026 0.011749 0.0053 0.017528 0.0081 0.00393 2e-3 0.00783 0.0039 0.011686 0.0061 0.00195 6.59e-4 0.0039 0.0013 0.00583 0.0021 0.00932 0.0057 0.018423 0.01175 0.027265 0.01821 0.00195 0.0013 0.00391 0.0027 0.00583 4e-3 0.0087 0.0064 0.017148 0.01314 0.025318 0.02023 0.00195 0.0013 0.00391 0.0027 0.00583 4e-3 0.00808 7e-3 0.015873 0.01451 0.02337 0.02225 0.00196 2e-3 0.00392 4e-3 0.00583 0.0061 0.0068 0.0079 0.013288 0.01592 0.019474 0.02428 0.00196 2e-3 0.00392 4e-3 0.00583 0.0061 0.00616 0.0085 0.01202 0.0173 0.017528 0.02631 0.00413 0.0073 0.00802 0.01471 0.011686 0.02225 0.00269 0.0047 0.00528 0.0094 0.00779 0.01416 0.00132 2e-3 0.0026 4e-3 0.0039 0.0061 0.00495 0.0099 0.00948 0.02005 0.013633 0.03036 6.646e-4 2e-3 0.00132 4e-3 0.00194 0.0061 0.00368 0.01065 0.00693 0.02145 0.00974 0.03238 6.646e-4 2e-3 0.00132 4e-3 0.00194 0.0061 0.00302 0.01067 0.00562 0.02148 0.00779 0.03238 6.76e-4 0.0027 0.00133 0.0054 0.00194 0.0081 0.00171 0.01073 0.00301 0.02154 0.0039 0.03238 2.58e-5 0.0027 2.58e-5 0.0054 0 0.0081l0.095428 1.5197 2.8745 0.15986 0.16943-1.8354c0.00142-0.01223 0.00336-0.02438 0.00584-0.03643 0.00181-0.0061 0.00377-0.01219 0.00583-0.01821 0.00328-0.01301 0.00718-0.02584 0.011686-0.03845 0.00299-0.0082 0.00624-0.0163 0.00974-0.02429-1.7e-6 -6.74e-4 -1.7e-6 -0.0013 0-0.0021 0.00363-0.0082 0.00752-0.01633 0.011686-0.02428 0.00431-0.0076 0.00885-0.01499 0.013633-0.02225 6.421e-4 -0.0013 0.00129-0.0027 0.00194-4e-3 0.00673-0.0097 0.013882-0.01922 0.021423-0.02833 0.00499-0.0069 0.01018-0.01366 0.015579-0.02023 0.00319-0.0034 0.00643-0.0068 0.00974-0.01015 0.00565-0.0062 0.011501-0.01234 0.017528-0.01821 0.0032-0.0028 0.00645-0.0055 0.00974-0.0081 0.00193-0.0013 0.00388-0.0027 0.00583-4e-3 0.00877-0.0079 0.017864-0.01526 0.027264-0.02225 0.0064-5e-3 0.01284-0.0096 0.01947-0.01416l0.0078-4e-3c0.0077-0.0044 0.01545-0.0084 0.02337-0.01214 0.0045-0.0021 0.0091-0.0041 0.01363-0.0061 0.0013-6.81e-4 0.0026-0.0013 0.0039-0.0021 0.0121-0.0054 0.02446-0.01005 0.03701-0.01416 0.01216-4e-3 0.02452-0.0074 0.03701-0.01015 0.01286-0.0027 0.02588-0.0048 0.03895-0.0061 0.01294-0.0013 0.02595-0.0021 0.03895-0.0021h3.5368c0.013 1e-6 0.026 6.76e-4 0.03895 0.0021 0.0047 5.92e-4 9e-3 0.0012 0.01363 0.0021 0.0084 1e-3 0.01692 0.0024 0.02532 4e-3 0.01248 0.0027 0.02484 0.0061 0.03701 0.01015 0.01254 4e-3 0.02491 0.0088 0.03701 0.01416 0.0013 6.68e-4 0.0026 0.0013 0.0039 0.0021 0.0047 2e-3 0.0091 0.0039 0.01363 0.0061 8e-3 0.0037 0.01572 0.0079 0.02338 0.01214 0.01925 0.01184 0.0375 0.02538 0.05453 0.04047 2e-3 0.0013 0.0039 0.0027 0.0059 4e-3 0.02841 0.02455 0.05333 0.05317 0.07402 0.08499 0.0013 2e-3 0.0026 4e-3 0.0039 0.0061 0.01322 0.02244 0.02431 0.04616 0.03311 0.07082 0.0046 0.01261 0.0084 0.02544 0.01168 0.03845 0.0021 6e-3 4e-3 0.01209 0.0059 0.01821 0.0025 0.01204 0.0045 0.02419 0.0059 0.03643l0.16944 1.8354 2.8745-0.15986 0.09542-1.5197c4.16e-4 -0.0081 0.0011-0.01621 2e-3 -0.02428 0.0041-0.03256 0.0119-0.06451 0.02338-0.09511 0.0051-0.01449 0.0109-0.02869 0.01752-0.0425 0.0055-0.0097 0.01131-0.01915 0.01752-0.02833 0.0037-0.0068 0.0077-0.01361 0.01169-0.02023 0.01176-0.01722 0.02477-0.03345 0.03895-0.04856l0.0079-0.0081c0.01687-0.01648 0.03512-0.03138 0.05453-0.04452 6.47e-4 -6.77e-4 0.0013-0.0013 2e-3 -0.0021 0.01379-9e-3 0.02809-0.01713 0.04284-0.02428 0.0058-0.0028 0.01163-0.0056 0.01752-0.0081 0.0195-0.0091 0.0397-0.01657 0.06038-0.02225 0.01984-5e-3 0.04003-0.0084 0.06038-0.01015l3.3478-0.31163-2e-3 -6.1314c0.4101-0.56462 0.88224-1.2975 1.2753-1.8881-0.54149-0.82123-1.065-1.6414-1.8346-2.4627-0.58324 0.2733-1.2007 0.64127-1.8482 1.0927-0.51636-0.48694-1.0857-0.9763-1.9203-1.4853 0.04106-0.85449 0.06798-1.6263 0.08764-2.3473-0.78248-0.41222-1.7964-0.74911-2.6272-0.96726-0.38221 0.66606-0.72199 1.3393-0.99713 2.0276-0.34996-0.037202-0.74752-0.046542-1.1335-0.046542-0.38594 0-0.78351 0.00933-1.1335 0.046542-0.27514-0.68832-0.61494-1.3615-0.99713-2.0276zm-2.5785 8.1832c1.1406 7.29e-4 2.0647 0.96187 2.0644 2.147-7.012e-4 1.1843-0.92454 2.1442-2.0644 2.145-1.1406 3.88e-4 -2.0656-0.95984-2.0663-2.145-3.733e-4 -1.1859 0.92497-2.1474 2.0663-2.147zm9.4182 0c1.1414-3.88e-4 2.0667 0.96108 2.0663 2.147-7.01e-4 1.1851-0.92573 2.1454-2.0663 2.145-1.1398-7.3e-4 -2.0637-0.96064-2.0644-2.145-3.73e-4 -1.1851 0.92378-2.1463 2.0644-2.147zm-9.243 0.88429c-0.73749 1.12e-4 -1.335 0.62187-1.3341 1.3882 1.08e-4 0.76549 0.59732 1.386 1.3341 1.3861 0.73673-1.13e-4 1.3339-0.62064 1.3341-1.3861 9.72e-4 -0.76628-0.59656-1.388-1.3341-1.3882zm9.0677 0c-0.7375 1.12e-4 -1.335 0.62187-1.3341 1.3882 1.08e-4 0.76549 0.59732 1.386 1.3341 1.3861 0.73673-1.12e-4 1.3339-0.62064 1.3341-1.3861 9.62e-4 -0.76628-0.59656-1.388-1.3341-1.3882zm-4.5338 0.39459c0.35029 3e-6 0.63295 0.2937 0.63295 0.65765v1.8475c0 0.36397-0.28266 0.65765-0.63295 0.65765s-0.63295-0.2937-0.63295-0.65765v-1.8475c0-0.36396 0.28266-0.65765 0.63295-0.65765zm-8.9995 5.5425v0.39257c0 3.7156 5.6009 4.9898 8.9995 4.9898s8.9995-1.274 8.9995-4.9898v-0.39257l-2.9447 0.2752-0.09738 1.5318c-4.87e-4 0.0067-0.0011 0.01351-2e-3 0.02023-4.88e-4 0.0067-0.0011 0.01351-2e-3 0.02023-0.0011 0.0067-0.0024 0.01353-0.0039 0.02023-0.0012 0.0061-0.0025 0.01217-0.0039 0.01821-0.0018 0.0068-0.0037 0.01354-0.0059 0.02023-0.0025 0.0061-0.0051 0.0122-0.0079 0.01821-0.0024 0.0068-0.0051 0.01356-0.0079 0.02023-0.0025 0.0061-0.0051 0.01221-0.0079 0.01821-0.0031 0.0061-0.0064 0.01223-0.0098 0.01821-0.0031 0.0055-0.0064 0.01087-0.0098 0.01619-0.0031 0.0061-0.0064 0.01223-0.0098 0.01821-0.0038 0.0055-0.0078 0.01089-0.01169 0.01619-0.0045 0.0049-0.0089 0.0095-0.01363 0.01416-0.0085 0.01059-0.01769 0.02072-0.02726 0.03036-0.0045 0.0049-0.0089 0.0095-0.01363 0.01416-0.0051 0.0041-0.01029 0.0082-0.01558 0.01214-0.0051 0.0041-0.01029 0.0082-0.01558 0.01214-0.0051 0.0035-0.01031 0.0068-0.01558 0.01015-0.0058 0.0035-0.01161 0.0069-0.01752 0.01015-0.0058 0.0035-0.01161 0.0069-0.01752 0.01015-0.0058 0.0028-0.01163 0.0056-0.01752 0.0081-0.0058 0.0028-0.01162 0.0056-0.01752 0.0081-0.0065 0.0022-0.01293 0.0042-0.01947 0.0061-0.0065 0.0022-0.01293 0.0042-0.01947 0.0061-0.0058 0.0015-0.01166 0.0028-0.01752 4e-3 -0.01926 0.0042-0.03877 0.0069-0.05843 0.0081l-3.5815 0.20033c-0.01168 5.45e-4 -0.02338 5.45e-4 -0.03507 0-0.0026 2.7e-5 -0.0052 2.7e-5 -0.0079 0-0.01174-8e-4 -0.02344-0.0022-0.03506-4e-3 -0.0079-0.0011-0.01563-0.0025-0.02337-4e-3 -0.0039-6.14e-4 -0.0079-0.0012-0.01169-0.0021-0.0013 6e-6 -0.0026 6e-6 -0.0039 0-0.01121-0.0035-0.02226-0.0076-0.03311-0.01214-0.01055-0.0036-0.02094-0.0077-0.03116-0.01214-0.0033-0.0013-0.0065-0.0027-0.0098-4e-3 -2e-3 -0.0013-0.0039-0.0027-0.0059-4e-3 -0.01482-0.0078-0.02912-0.0166-0.04284-0.02631-0.0143-0.0098-0.02797-0.02066-0.0409-0.03238-0.01097-0.01015-0.02137-0.02098-0.03116-0.03238-2e-3 -2e-3 -0.0039-4e-3 -0.0059-0.0061-0.02365-0.02872-0.04331-0.06073-0.05842-0.09511-0.0027-0.0054-0.0053-0.01073-0.0079-0.01619-0.0029-8e-3 -0.0055-0.0161-0.0079-0.02428-0.0015-0.0054-0.0027-0.01076-0.0039-0.01619-6e-3 -0.01919-0.01051-0.0388-0.01363-0.05868l-0.17216-1.8578h-2.8531l-0.17138 1.8576c-0.0036 0.02548-0.0093 0.05055-0.01752 0.07488-0.0039 0.01304-0.0084 0.02588-0.01363 0.03845-0.0058 0.01317-0.01233 0.026-0.01947 0.03845-0.0061 0.01041-0.01253 0.02055-0.01946 0.03036-6.43e-4 0.0013-0.0013 0.0027-2e-3 4e-3 -0.0075 0.0098-0.01516 0.01926-0.02338 0.02833-6.47e-4 6.77e-4 -0.0013 0.0013-2e-3 0.0021-0.0082 0.0091-0.01649 0.01795-0.02532 0.02631-0.0071 0.0063-0.01409 0.0124-0.02143 0.01821l-0.0079 0.0081c-0.0058 0.0042-0.01159 0.0083-0.01752 0.01214-0.0051 0.0035-0.01031 0.0068-0.01557 0.01015-6.48e-4 6.76e-4 -0.0013 0.0013-2e-3 0.0021-0.01012 0.0065-0.02051 0.01264-0.03116 0.01821-0.0013 6.81e-4 -0.0026 0.0013-0.0039 0.0021-0.0019 6.9e-4 -0.0039 0.0013-0.0059 0.0021-0.01022 0.0045-0.02061 0.0086-0.03116 0.01214-0.0065 0.0022-0.01293 0.0042-0.01946 0.0061-0.0046 0.0015-9e-3 0.0028-0.01363 4e-3 -0.0013 6.82e-4 -0.0026 0.0013-0.0039 0.0021-0.01159 0.0026-0.02328 0.0046-0.03506 0.0061-0.01162 0.0019-0.02332 0.0032-0.03507 4e-3 -0.0013 7e-6 -0.0026 7e-6 -0.0039 0-0.0013 7e-6 -0.0026 7e-6 -0.0039 0-0.01168 5.45e-4 -0.02338 5.45e-4 -0.035057 0l-3.5812-0.20069c-0.013041-6.73e-4 -0.026041-0.0021-0.03895-4e-3 -0.00652-0.0011-0.013018-0.0025-0.019474-4e-3 -0.00652-0.0011-0.013018-0.0025-0.019475-4e-3 -0.00587-0.0019-0.011733-0.0039-0.017528-0.0061-0.00654-0.0019-0.013036-0.0038-0.019475-0.0061-0.00589-0.0026-0.011749-0.0053-0.017528-0.0081-0.00589-0.0026-0.01175-0.0053-0.017528-0.0081-0.00591-0.0032-0.01177-0.0066-0.017528-0.01015-0.00591-0.0032-0.01177-0.0066-0.017528-0.01015-0.00195-0.0013-0.00391-0.0027-0.00583-4e-3 -0.00593-0.0038-0.011791-8e-3 -0.017528-0.01214-0.00804-0.0064-0.015836-0.01318-0.02337-0.02023-0.00528-0.0039-0.010484-8e-3 -0.015579-0.01214-0.00265-0.0033-0.00524-0.0067-0.00779-0.01015-0.00602-0.0059-0.011871-0.01195-0.017528-0.01821-0.00468-0.0053-0.00921-0.01067-0.013633-0.01619-0.00132-2e-3 -0.0026-4e-3 -0.0039-0.0061-0.0062-0.0092-0.012065-0.01864-0.017528-0.02832-0.00703-0.01113-0.01353-0.02261-0.019474-0.0344-0.00582-0.01253-0.011025-0.02536-0.015579-0.03845-0.00274-6e-3 -0.00533-0.01208-0.00779-0.01821-0.00138-0.0047-0.00268-0.0094-0.0039-0.01416-0.00147-0.0067-0.00276-0.01346-0.0039-0.02023-6.757e-4 -0.0027-0.00133-0.0054-0.00194-0.0081-0.00249-0.01204-0.00443-0.02419-0.00583-0.03643-8.117e-4 -0.0067-0.00147-0.01348-0.00194-0.02023l-0.097397-1.532z" style="fill-opacity:.75;fill:currentColor"/>
	<path id="av" class="ColorScheme-Background" d="m8.8184-0.27344a1.0001 1.0001 0 0 0-0.20312 0.03125c-0.88212 0.23161-1.941 0.57727-2.8398 1.0508a1.0001 1.0001 0 0 0-0.5332 0.91211c0.01549 0.56824 0.040551 1.2042 0.068359 1.8516-0.36761 0.25604-0.68649 0.50475-0.97266 0.75195-0.45407-0.28685-0.91154-0.59069-1.3516-0.79688a1.0001 1.0001 0 0 0-1.1543 0.22266c-0.84191 0.8985-1.4033 1.7826-1.9395 2.5957a1.0001 1.0001 0 0 0 0.001953 1.1035c0.32935 0.49499 0.72693 1.0961 1.1074 1.6387l-0.00195 5.8262a1.0001 1.0001 0 0 0 0.087891 0.4082 1.0001 1.0001 0 0 0-0.087891 0.4082v0.39258c0 1.1801 0.47339 2.2249 1.1855 3.0156s1.6423 1.3602 2.6465 1.791c2.0084 0.86165 4.3437 1.1836 6.168 1.1836s4.1596-0.32196 6.168-1.1836c1.0042-0.43082 1.9343-1.0003 2.6465-1.791 0.71216-0.79072 1.1855-1.8355 1.1855-3.0156v-0.39258a1.0001 1.0001 0 0 0-0.08789-0.40625 1.0001 1.0001 0 0 0 0.08789-0.41016l-2e-3 -5.8262c0.38011-0.5424 0.77806-1.1437 1.1074-1.6387a1.0001 1.0001 0 0 0 2e-3 -1.1035c-0.53616-0.81306-1.0975-1.6972-1.9395-2.5957a1.0001 1.0001 0 0 0-1.1543-0.22266c-0.44003 0.20619-0.8975 0.51003-1.3516 0.79688-0.28616-0.2472-0.60505-0.49591-0.97266-0.75195 0.02781-0.64732 0.05287-1.2833 0.06836-1.8516a1.0001 1.0001 0 0 0-0.5332-0.91211c-0.89887-0.47354-1.9578-0.81916-2.8398-1.0508a1.0001 1.0001 0 0 0-1.1211 0.4707c-0.27835 0.48508-0.50578 0.99382-0.73828 1.5-0.17616-0.00508-0.35481-0.021484-0.52539-0.021484s-0.34923 0.016406-0.52539 0.021484c-0.23251-0.50618-0.45995-1.0149-0.73828-1.5a1.0001 1.0001 0 0 0-0.91797-0.50195zm0.050781 1c0.38219 0.66606 0.72291 1.339 0.99805 2.0273 0.34995-0.037212 0.74687-0.046875 1.1328-0.046875 0.38594 0 0.78285 0.00967 1.1328 0.046875 0.27514-0.68831 0.61584-1.3613 0.99805-2.0273 0.83078 0.21815 1.8445 0.55458 2.627 0.9668-0.01965 0.72105-0.04683 1.4932-0.08789 2.3477 0.83454 0.50899 1.4036 0.99744 1.9199 1.4844 0.64753-0.45145 1.2664-0.8185 1.8496-1.0918 0.76954 0.82123 1.2925 1.6417 1.834 2.4629-0.39302 0.59061-0.86529 1.3221-1.2754 1.8867l2e-3 6.1328-3.3477 0.31055c-0.02035 0.0018-0.04071 0.0048-0.06055 0.0098-0.02068 0.0057-0.04105 0.01434-0.06055 0.02344-0.0059 0.0025-0.01178 5e-3 -0.01758 0.0078-0.01475 0.0071-0.02918 0.01444-0.04297 0.02344l-2e-3 2e-3c-0.01941 0.01314-0.03782 0.02844-0.05469 0.04492l-0.0078 0.0078c-0.01418 0.01511-0.0273 0.03161-0.03906 0.04883-4e-3 0.0066-8e-3 0.01469-0.01172 0.02148-0.0062 0.0092-0.01208 0.01764-0.01758 0.02734-0.0066 0.01381-0.01248 0.02848-0.01758 0.04297-0.01148 0.0306-0.01934 0.06314-0.02344 0.0957-9e-4 0.0081-0.0015 0.01534-2e-3 0.02344l-0.0957 1.5195-2.873 0.16016-0.16992-1.8359c-0.0014-0.01224-0.0034-0.02312-0.0059-0.03516-0.0019-0.0061-0.0038-0.01353-0.0059-0.01953-0.0033-0.01301-0.0071-0.0245-0.01172-0.03711-0.0088-0.02466-0.01998-0.04983-0.0332-0.07227-0.0013-0.0021-0.0026-0.0039-0.0039-0.0059-0.02069-0.03182-0.04581-0.05943-0.07422-0.08398-2e-3 -0.0013-0.0039-0.0026-0.0059-0.0039-0.01703-0.01509-0.03544-0.02917-0.05469-0.04102-0.0077-0.0042-0.01544-8e-3 -0.02344-0.01172-0.0045-0.0022-9e-3 -0.0039-0.01367-0.0059-0.0013-7.99e-4 -0.0026-0.0032-0.0039-0.0039-0.0121-0.0054-0.02457-0.0097-0.03711-0.01367-0.01217-4e-3 -0.02463-0.0071-0.03711-0.0098-0.0084-0.0016-0.01699-0.0029-0.02539-0.0039-0.0046-9e-4 -9e-3 -0.0014-0.01367-2e-3 -0.01295-0.0014-0.02606-2e-3 -0.03906-2e-3h-3.5352c-0.013 0-0.026123 6.53e-4 -0.039063 2e-3 -0.01307 0.0013-0.026202 0.0032-0.039062 0.0059-0.01249 0.0028-0.02495 0.0058-0.037109 0.0098-0.01255 0.0041-0.02501 0.0083-0.03711 0.01367-0.0013 8e-4 -0.00261 0.0032-0.00391 0.0039-0.00453 2e-3 -0.00917 0.0038-0.013672 0.0059-0.00792 0.0037-0.015738 0.0073-0.023438 0.01172l-0.00781 0.0039c-0.00663 0.0046-0.013131 0.0087-0.019531 0.01367-0.0094 7e-3 -0.018574 0.01554-0.027344 0.02344-0.00195 0.0013-0.00393 0.0026-0.00586 0.0039-0.00329 0.0026-0.00657 5e-3 -0.00977 0.0078-0.00603 0.0059-0.011928 0.01138-0.017578 0.01758-0.00331 0.0034-0.00658 0.0064-0.00977 0.0098-0.0054 0.0066-0.010635 0.01458-0.015625 0.02148-0.00754 0.0091-0.014754 0.01764-0.021484 0.02734-6.5e-4 0.0013-0.00131 0.0026-0.00195 0.0039-0.00478 0.0073-0.00936 0.01584-0.013672 0.02344-0.00417 8e-3 -0.00809 0.01524-0.011719 0.02344v2e-3c-0.0035 8e-3 -0.00678 0.01524-0.00977 0.02344-0.00451 0.01261-0.00844 0.02605-0.011719 0.03906-0.00206 6e-3 -0.00405 0.01343-0.00586 0.01953-0.00248 0.01205-0.00444 0.02293-0.00586 0.03516l-0.16992 1.8359-2.873-0.16016-0.095703-1.5195c2.58e-5 -0.0027 2.58e-5 -0.0051 0-0.0078-8.9e-4 -0.01084-0.0022-0.02247-0.00391-0.0332-6.1e-4 -0.0027-0.00128-0.0051-0.00195-0.0078-0.00217-0.0109-0.00479-0.02253-0.00781-0.0332-6.2e-4 -0.0021-0.00129-0.0039-0.00195-0.0059-0.00281-0.01093-0.00609-0.0206-0.00977-0.03125-6.2e-4 -0.0021-0.00129-0.0039-0.00195-0.0059-0.00415-0.01031-0.00872-0.02135-0.013672-0.03125-0.0013-0.0021-0.00259-0.0039-0.00391-0.0059-0.00251-0.0048-0.00512-9e-3 -0.00781-0.01367-0.00367-0.0075-0.00759-0.01614-0.011719-0.02344-0.00551-9e-3 -0.011418-0.01689-0.017578-0.02539-0.00191-0.0021-0.0039-0.0039-0.00586-0.0059-0.00619-0.0084-0.012731-0.01749-0.019531-0.02539-0.00191-0.0021-0.0039-0.0039-0.00586-0.0059-0.0075-0.0077-0.015358-0.01448-0.023438-0.02148-0.00192-0.0013-0.00391-0.0026-0.00586-0.0039-0.00817-0.0071-0.016691-0.01508-0.025391-0.02148-0.00192-0.0013-0.00391-0.0026-0.00586-0.0039-0.00884-0.0065-0.018024-0.01188-0.027344-0.01758-0.00193-8e-4 -0.00391-0.0013-0.00586-2e-3 -0.00386-0.0022-0.00779-0.0039-0.011719-0.0059-0.00578-0.0028-0.011688-0.0052-0.017578-0.0078-0.019503-0.0091-0.03987-0.01774-0.060547-0.02344-0.019838-0.0051-0.040199-8e-3 -0.060547-0.0098l-3.3477-0.31055 0.00195-6.1328c-0.41049-0.5645-0.88241-1.2961-1.2754-1.8867 0.54149-0.82123 1.0645-1.6417 1.834-2.4629 0.58323 0.2733 1.2021 0.64035 1.8496 1.0918 0.51636-0.48694 1.0854-0.97543 1.9199-1.4844-0.041057-0.85449-0.068236-1.6266-0.087891-2.3477 0.78252-0.41222 1.7962-0.74867 2.627-0.9668zm-2.5781 8.1836c-1.1414-3.88e-4 -2.0668 0.96058-2.0664 2.1465 7.017e-4 1.1851 0.92581 2.1449 2.0664 2.1445 1.1398-7.29e-4 2.0638-0.9602 2.0645-2.1445 3.732e-4 -1.1851-0.92386-2.1458-2.0645-2.1465zm9.418 0c-1.1406 7.29e-4 -2.0648 0.96137-2.0645 2.1465 7e-4 1.1843 0.92462 2.1438 2.0645 2.1445 1.1406 3.88e-4 2.0657-0.95941 2.0664-2.1445 3.74e-4 -1.1859-0.92505-2.1469-2.0664-2.1465zm-9.2422 0.88281c0.73749 1.12e-4 1.335 0.62239 1.334 1.3887-1.081e-4 0.76549-0.59725 1.3866-1.334 1.3867-0.73673-1.13e-4 -1.3339-0.62122-1.334-1.3867-9.682e-4 -0.76628 0.59649-1.3886 1.334-1.3887zm9.0664 0c0.73749 1.12e-4 1.3349 0.62239 1.334 1.3887-1.09e-4 0.76549-0.59725 1.3866-1.334 1.3867-0.73673-1.12e-4 -1.3339-0.62122-1.334-1.3867-9.68e-4 -0.76628 0.59649-1.3886 1.334-1.3887zm-4.5332 0.39453c-0.35028 2e-6 -0.63281 0.29424-0.63281 0.6582v1.8477c-1e-6 0.36396 0.28252 0.6582 0.63281 0.6582s0.63281-0.29424 0.63281-0.6582v-1.8477c0-0.36396-0.28252-0.6582-0.63281-0.6582zm-9 5.543 2.9453 0.27539 0.097656 1.5312c4.699e-4 0.0068 0.00114 0.01478 0.00195 0.02149 0.0014 0.01224 0.00337 0.02312 0.00586 0.03516 6.1e-4 0.0027 0.00128 0.0051 0.00195 0.0078 0.00114 0.0068 0.00244 0.01478 0.00391 0.02149 0.00122 0.0048 0.00253 9e-3 0.00391 0.01367 0.00246 0.0061 0.00507 0.01158 0.00781 0.01758 0.00455 0.01309 0.00981 0.02653 0.015625 0.03906 0.00594 0.01179 0.012501 0.02403 0.019531 0.03516 0.00546 0.0097 0.011378 0.01814 0.017578 0.02734 0.0013 0.0021 0.00259 0.0039 0.00391 0.0059 0.00442 0.0055 0.00899 0.01228 0.013672 0.01758 0.00566 0.0063 0.011558 0.01168 0.017578 0.01758 0.00255 0.0035 0.00516 0.0065 0.00781 0.0098 0.00509 0.0041 0.010345 0.0078 0.015625 0.01172 0.00753 7e-3 0.015398 0.01508 0.023438 0.02149 0.00574 0.0041 0.011648 0.0079 0.017578 0.01172 0.00192 0.0013 0.00391 0.0026 0.00586 0.0039 0.00576 0.0036 0.00971 0.0066 0.015625 0.0098 0.00576 0.0036 0.011668 0.0066 0.017578 0.0098 0.00578 0.0028 0.011688 0.0052 0.017578 0.0078 0.00578 0.0028 0.011688 0.0072 0.017578 0.0098 0.00644 0.0023 0.012991 4e-3 0.019531 0.0059 0.00579 0.0022 0.011708 4e-3 0.017578 0.0059 0.00646 0.0015 0.013011 0.0028 0.019531 0.0039 0.00646 0.0015 0.013011 0.0028 0.019531 0.0039 0.012909 0.0019 0.026021 0.0032 0.039062 0.0039l3.582 0.20117c0.011676 5.44e-4 0.023476 5.44e-4 0.035156 0 0.0013 7e-6 0.00261 7e-6 0.00391 0 0.0013 7e-6 0.00261 7e-6 0.00391 0 0.01175-8.01e-4 0.023536-2e-3 0.035156-0.0039 0.011781-0.0015 0.023567-0.0033 0.035157-0.0059 0.0013-8e-4 0.00261-0.0013 0.00391-2e-3 0.00463-0.0012 0.00907-0.0044 0.013672-0.0059 0.00653-0.0019 0.013031-0.0037 0.019531-0.0059 0.01055-0.0035 0.02103-0.0072 0.03125-0.01172 2e-3 -8e-4 0.00396-0.0013 0.00586-2e-3 0.0013-8e-4 0.00261-0.0013 0.00391-2e-3 0.01065-0.0056 0.02113-0.01108 0.03125-0.01758l0.00195-2e-3c0.00526-0.0033 0.010525-0.0082 0.015625-0.01172 0.00593-0.0038 0.00982-0.0075 0.015625-0.01172l0.00976-0.0078c0.00734-0.0058 0.012432-0.01128 0.019532-0.01758 0.00883-0.0084 0.01719-0.01824 0.02539-0.02734l0.00195-2e-3c0.00822-0.0091 0.015937-0.01754 0.023437-0.02734 7e-4 -0.0013 0.00131-0.0026 0.00195-0.0039 0.00693-0.0098 0.013431-0.02084 0.019531-0.03125 0.00714-0.01245 0.013732-0.02589 0.019532-0.03906 0.00523-0.01257 0.00977-0.02407 0.013671-0.03711 0.00822-0.02433 0.013979-0.05069 0.017579-0.07617l0.17188-1.8574h2.8535l0.17188 1.8574c0.0031 0.01988 0.0077 0.0394 0.01367 0.05859 0.0012 0.0054 0.0024 0.01218 0.0039 0.01758 0.0024 0.0082 0.0049 0.01544 0.0078 0.02344 0.0026 0.0055 0.0051 0.01022 0.0078 0.01563 0.01511 0.03438 0.03494 0.06698 0.05859 0.0957 2e-3 0.0021 0.0039 0.0039 0.0059 0.0059 0.0098 0.0114 0.02028 0.02305 0.03125 0.0332 0.01293 0.01172 0.02672 0.02145 0.04102 0.03125 0.01372 0.0097 0.02815 0.01954 0.04297 0.02734 2e-3 0.0013 0.0039 0.0026 0.0059 0.0039 0.0033 0.0013 0.0065 0.0026 0.0098 0.0039 0.01022 0.0044 0.0207 0.0081 0.03125 0.01172 0.01085 0.0045 0.02199 0.0082 0.0332 0.01172 0.0013 6e-6 0.0026 6e-6 0.0039 0 0.0038 9e-4 0.0078 0.0033 0.01172 0.0039 0.0077 0.0015 0.01554 0.0028 0.02344 0.0039 0.01162 0.0018 0.02342 0.0031 0.03516 0.0039 0.0027 2.6e-5 0.0052 2.6e-5 0.0078 0 0.01169 5.44e-4 0.02348 5.44e-4 0.03516 0l3.5801-0.20117c0.01966-0.0012 0.03933-0.0036 0.05859-0.0078 0.0059-0.0012 0.01178-0.0024 0.01758-0.0039 0.0065-0.0019 0.01303-0.0037 0.01953-0.0059 0.0065-0.0019 0.01303-0.0037 0.01953-0.0059 0.0059-0.0025 0.01178-7e-3 0.01758-0.0098 0.0059-0.0025 0.01178-5e-3 0.01758-0.0078 0.0059-0.0032 0.01178-0.0063 0.01758-0.0098 0.0059-0.0032 0.01178-0.0063 0.01758-0.0098 0.0053-0.0034 0.01052-0.0063 0.01562-0.0098 0.0053-0.0039 0.01053-0.0076 0.01563-0.01172 0.0053-0.0039 0.01052-0.0096 0.01562-0.01367 0.0047-0.0047 0.0092-0.0088 0.01367-0.01367 0.0096-0.0096 0.01884-0.02066 0.02734-0.03125 0.0047-0.0047 0.0092-0.0088 0.01367-0.01367 0.0039-0.0053 0.0079-0.01013 0.01172-0.01563 0.0034-6e-3 0.0067-0.01148 0.0098-0.01758 0.0034-0.0053 0.0067-0.01208 0.0098-0.01758 0.0034-6e-3 0.0067-0.01148 0.0098-0.01758 0.0028-6e-3 0.0053-0.01148 0.0078-0.01758 0.0028-0.0067 0.0054-0.01468 0.0078-0.02148 0.0028-6e-3 0.0053-0.01148 0.0078-0.01758 0.0022-0.0067 0.0041-0.01273 0.0059-0.01953 0.0014-6e-3 0.0027-0.01343 0.0039-0.01953 0.0015-0.0067 0.0028-0.01283 0.0039-0.01953 9e-4 -0.0067 0.0015-0.01283 2e-3 -0.01953 9e-4 -0.0067 0.0015-0.01478 2e-3 -0.02149l0.09766-1.5312 2.9453-0.27539v0.39258c0 3.7158-5.6014 4.9902-9 4.9902s-9-1.2746-9-4.9902v-0.3923z" style="fill-opacity:.5;fill:currentColor"/>
</svg>
