<?xml version="1.0" encoding="UTF-8"?>
<svg id="d" width="22" height="22" version="1.1" xmlns="http://www.w3.org/2000/svg" xmlns:cc="http://creativecommons.org/ns#" xmlns:dc="http://purl.org/dc/elements/1.1/" xmlns:rdf="http://www.w3.org/1999/02/22-rdf-syntax-ns#">
	<metadata id="a">
		<rdf:RDF>
			<cc:Work rdf:about="">
				<dc:format>image/svg+xml</dc:format>
				<dc:type rdf:resource="http://purl.org/dc/dcmitype/StillImage"/>
				<dc:title/>
			</cc:Work>
		</rdf:RDF>
	</metadata>
	<defs id="k">
		<style id="current-color-scheme" type="text/css">.ColorScheme-Text {color:#090d11;}.ColorScheme-Background{color:#ffffff;}</style>
	</defs>
	<path id="b" class="ColorScheme-Text" d="m11 3v1h-0.9999v5h-1.0001v-7h-0.9999v9h-4.0001l7 9 7-9h-4v-9h-1v5h-1v-4z" style="fill-opacity:.75;fill:currentColor"/>
	<path id="e" class="ColorScheme-Background" d="m7 1v9h-5.0312l1 1.625 7 9 1.0312 1 1.0313-1 7-9 1-1.625h-5.0313v-9h-1v10h4l-7 9-7-9h4v-10zm2 3v5h1v-5 1-1zm3-2v5h1v-5z" style="fill-opacity:.5;fill:currentColor"/>
</svg>
