<?xml version="1.0" encoding="UTF-8"?>
<svg id="a" width="22" height="22" version="1.1" xmlns="http://www.w3.org/2000/svg" xmlns:cc="http://creativecommons.org/ns#" xmlns:dc="http://purl.org/dc/elements/1.1/" xmlns:rdf="http://www.w3.org/1999/02/22-rdf-syntax-ns#">
	<metadata id="d">
		<rdf:RDF>
			<cc:Work rdf:about="">
				<dc:format>image/svg+xml</dc:format>
				<dc:type rdf:resource="http://purl.org/dc/dcmitype/StillImage"/>
			</cc:Work>
		</rdf:RDF>
	</metadata>
	<defs>
		<style id="current-color-scheme" type="text/css">.ColorScheme-Text {color:#090d11;}.ColorScheme-Background{color:#ffffff;}</style>
	</defs>
	<path class="ColorScheme-Text" d="m11 3c-3.5207 0-6.375 2.8541-6.375 6.375 0 0.22004 0.011451 0.44976 0.033203 0.66407 9.317e-4 0.01088-9.822e-4 0.02224 0 0.03319 0.021664 0.20299 0.05933 0.40082 0.09961 0.59766 0.54883 3.2753 3.071 6.6084 6.2422 9.3301 3.1712-2.7212 5.6937-6.0543 6.2422-9.3301 0.04027-0.19683 0.07794-0.39466 0.09961-0.59766 9.45e-4 -0.01088-9.3e-4 -0.02225 0-0.03319 0.02177-0.2143 0.03322-0.44402 0.03322-0.66406 0-3.5207-2.8541-6.375-6.375-6.375zm0 3.7852c1.4247 0 2.5898 1.1651 2.5898 2.5898s-1.1651 2.5898-2.5898 2.5898-2.5898-1.1651-2.5898-2.5898 1.1651-2.5898 2.5898-2.5898z" style="fill-opacity:.75;fill:currentColor"/>
	<path id="e" class="ColorScheme-Background" d="m11 2c-0.11625 0-0.21316 0.061036-0.32812 0.066406l-2e-3 -0.00977c-0.0026 0.00389-0.0052 0.00779-0.0078 0.011719-3.8964 0.18744-7.0371 3.365-7.0371 7.3066 0 0.24949 0.012669 0.50412 0.037109 0.75-0.01405-0.16407-0.016808-0.15027 0 0.03711 6.1e-4 0.0052 0.00126 0.01042 0.00195 0.01563 0.02598 0.24343 0.067234 0.46052 0.10742 0.6582 0.61308 3.6587 3.2997 7.11 6.5781 9.9238 0.37437 0.32049 0.92641 0.32049 1.3008 0 3.2786-2.8133 5.9654-6.2645 6.5781-9.9238 0.04017-0.19764 0.08144-0.41478 0.10742-0.6582 7.15e-4 -0.0065 0.0014-0.01301 2e-3 -0.01953 0.01601-0.18432 0.01363-0.19551 0-0.03516 0.0243-0.24534 0.03707-0.49921 0.03707-0.74805 0-4.0611-3.3136-7.375-7.375-7.375zm0 1c3.5209 0 6.375 2.8543 6.375 6.375 0 0.22004-0.01143 0.44977-0.0332 0.66406-9.3e-4 0.01094 9.45e-4 0.02232 0 0.0332-0.02167 0.20299-0.05934 0.40082-0.09961 0.59766-0.5485 3.2758-3.071 6.6089-6.2422 9.3301-3.1711-2.7217-5.6934-6.0548-6.2422-9.3301-0.04028-0.19684-0.077945-0.39466-0.099609-0.59766-9.822e-4 -0.01095 9.317e-4 -0.02232 0-0.0332-0.021752-0.21431-0.033204-0.44402-0.033204-0.66407 0-3.5209 2.8543-6.375 6.375-6.375zm0 3.7852c-1.4248 0-2.5898 1.1651-2.5898 2.5898 0 1.4248 1.1651 2.5898 2.5898 2.5898 1.4248 0 2.5898-1.1651 2.5898-2.5898 0-1.4248-1.1651-2.5898-2.5898-2.5898zm0 1c0.87955 0 1.5898 0.71026 1.5898 1.5898 0 0.87955-0.71026 1.5898-1.5898 1.5898-0.87955 0-1.5898-0.71026-1.5898-1.5898 0-0.87955 0.71026-1.5898 1.5898-1.5898z" style="fill-opacity:.5;fill:currentColor"/>
</svg>
