<?xml version="1.0" encoding="UTF-8"?>
<svg id="c" width="22" height="22" version="1.1" xmlns="http://www.w3.org/2000/svg" xmlns:cc="http://creativecommons.org/ns#" xmlns:dc="http://purl.org/dc/elements/1.1/" xmlns:rdf="http://www.w3.org/1999/02/22-rdf-syntax-ns#">
	<metadata id="a">
		<rdf:RDF>
			<cc:Work rdf:about="">
				<dc:format>image/svg+xml</dc:format>
				<dc:type rdf:resource="http://purl.org/dc/dcmitype/StillImage"/>
			</cc:Work>
		</rdf:RDF>
	</metadata>
	<defs>
		<style id="current-color-scheme" type="text/css">.ColorScheme-Text {color:#090d11;}.ColorScheme-Background{color:#ffffff;}</style>
	</defs>
	<path id="b" class="ColorScheme-Text" d="m3 3c-0.554 0-1 0.446-1 1v14c0 0.554 0.446 1 1 1h6l2 2 2-2h6c0.554 0 1-0.446 1-1v-14c0-0.554-0.446-1-1-1zm2.5 3h1c0.27614 0 0.5 0.22386 0.5 0.5s-0.22386 0.5-0.5 0.5h-1c-0.27614 0-0.5-0.22386-0.5-0.5s0.22386-0.5 0.5-0.5zm3 0h7.75c0.27614 0 0.5 0.22386 0.5 0.5s-0.22386 0.5-0.5 0.5h-7.75c-0.27614 0-0.5-0.22386-0.5-0.5s0.22386-0.5 0.5-0.5zm-3 3h1c0.27614 0 0.5 0.22386 0.5 0.5s-0.22386 0.5-0.5 0.5h-1c-0.27614 0-0.5-0.22386-0.5-0.5s0.22386-0.5 0.5-0.5zm3 0h7.75c0.27614 0 0.5 0.22386 0.5 0.5s-0.22386 0.5-0.5 0.5h-7.75c-0.27614 0-0.5-0.22386-0.5-0.5s0.22386-0.5 0.5-0.5zm-3 3h1c0.27614 0 0.5 0.22386 0.5 0.5s-0.22386 0.5-0.5 0.5h-1c-0.27614 0-0.5-0.22386-0.5-0.5s0.22386-0.5 0.5-0.5zm3 0h7.75c0.27614 0 0.5 0.22386 0.5 0.5s-0.22386 0.5-0.5 0.5h-7.75c-0.27614 0-0.5-0.22386-0.5-0.5s0.22386-0.5 0.5-0.5zm-3 3h1c0.27614 0 0.5 0.22386 0.5 0.5s-0.22386 0.5-0.5 0.5h-1c-0.27614 0-0.5-0.22386-0.5-0.5s0.22386-0.5 0.5-0.5zm3 0h7.75c0.27614 0 0.5 0.22386 0.5 0.5s-0.22386 0.5-0.5 0.5h-7.75c-0.27614 0-0.5-0.22386-0.5-0.5s0.22386-0.5 0.5-0.5z" style="fill-opacity:.75;fill:currentColor"/>
	<path id="d" class="ColorScheme-Background" d="m3 2c-1.0907 0-2 0.9093-2 2v14c0 1.0907 0.9093 2 2 2h5.5859l1.707 1.707c0.39053 0.39037 1.0235 0.39037 1.4141 0l1.707-1.707h5.5859c1.0907 0 2-0.9093 2-2v-14c0-1.0907-0.9093-2-2-2zm0 1h16c0.554 0 1 0.446 1 1v14c0 0.554-0.446 1-1 1h-6l-2 2-2-2h-6c-0.554 0-1-0.446-1-1v-14c0-0.554 0.446-1 1-1zm2.5 3c-0.27614 0-0.5 0.22386-0.5 0.5s0.22386 0.5 0.5 0.5h1c0.27614 0 0.5-0.22386 0.5-0.5s-0.22386-0.5-0.5-0.5zm3 0c-0.27614 0-0.5 0.22386-0.5 0.5s0.22386 0.5 0.5 0.5h7.75c0.27614 0 0.5-0.22386 0.5-0.5s-0.22386-0.5-0.5-0.5zm-3 3c-0.27614 0-0.5 0.22386-0.5 0.5s0.22386 0.5 0.5 0.5h1c0.27614 0 0.5-0.22386 0.5-0.5s-0.22386-0.5-0.5-0.5zm3 0c-0.27614 0-0.5 0.22386-0.5 0.5s0.22386 0.5 0.5 0.5h7.75c0.27614 0 0.5-0.22386 0.5-0.5s-0.22386-0.5-0.5-0.5zm-3 3c-0.27614 0-0.5 0.22386-0.5 0.5s0.22386 0.5 0.5 0.5h1c0.27614 0 0.5-0.22386 0.5-0.5s-0.22386-0.5-0.5-0.5zm3 0c-0.27614 0-0.5 0.22386-0.5 0.5s0.22386 0.5 0.5 0.5h7.75c0.27614 0 0.5-0.22386 0.5-0.5s-0.22386-0.5-0.5-0.5zm-3 3c-0.27614 0-0.5 0.22386-0.5 0.5s0.22386 0.5 0.5 0.5h1c0.27614 0 0.5-0.22386 0.5-0.5s-0.22386-0.5-0.5-0.5zm3 0c-0.27614 0-0.5 0.22386-0.5 0.5s0.22386 0.5 0.5 0.5h7.75c0.27614 0 0.5-0.22386 0.5-0.5s-0.22386-0.5-0.5-0.5z" style="fill-opacity:.5;fill:currentColor"/>
</svg>
