<?xml version="1.0" encoding="UTF-8"?>
<svg id="d" width="22" height="22" version="1.1" xmlns="http://www.w3.org/2000/svg" xmlns:cc="http://creativecommons.org/ns#" xmlns:dc="http://purl.org/dc/elements/1.1/" xmlns:rdf="http://www.w3.org/1999/02/22-rdf-syntax-ns#">
	<metadata id="a">
		<rdf:RDF>
			<cc:Work rdf:about="">
				<dc:format>image/svg+xml</dc:format>
				<dc:type rdf:resource="http://purl.org/dc/dcmitype/StillImage"/>
			</cc:Work>
		</rdf:RDF>
	</metadata>
	<defs id="e">
		<style id="current-color-scheme" type="text/css">.ColorScheme-Text {color:#090d11;}.ColorScheme-Background{color:#ffffff;}</style>
	</defs>
	<path class="ColorScheme-Text" d="m11 2c-2.216 0-5 1.784-5 4v7c0 1.1046-1.8954 2-3 2v1h0.79297l3.207-3.207v-6.793c0-1.6793 2.3207-3 4-3 1.345 0 3.0981 0.8487 3.7441 2.0488l0.71484-0.71484c-0.91719-1.3793-2.8385-2.334-4.459-2.334zm8.3711 0.017578a0.5 0.5 0 0 0-0.22461 0.12891l-3.2266 3.2266c-0.005699-0.023795-0.00738-0.048616-0.013672-0.072266l-0.90625 0.90625v0.085938l-7.707 7.707h-0.085938l-2 2h0.085938l-3.1465 3.1465a0.5 0.5 0 0 0 0 0.70703 0.5 0.5 0 0 0 0.70703 0l3.8535-3.8535h12.293v-1c-1.1046 0-3-0.89543-3-2v-6.293l3.8535-3.8535a0.5 0.5 0 0 0 0-0.70703 0.5 0.5 0 0 0-0.48242-0.12891zm-4.3711 5.6895v5.293c0 0.35428 0.073306 0.68883 0.19727 1h-6.4902l6.293-6.293zm-7 9.293a3 3 0 0 0 3 3 3 3 0 0 0 3-3h-6z" style="fill-opacity:.75;fill:currentColor"/>
	<path id="c" class="ColorScheme-Background" d="m11 1c-2.7527 0-6 2.2473-6 5v7c0 0.56413-1.4359 1-2 1-0.55226 5.5e-5 -0.99994 0.44774-1 1v1c4.87e-5 0.48728 0.34918 0.89361 0.81055 0.98242l-1.1641 1.1641a0.5 0.5 0 0 0 0 0.70703 0.5 0.5 0 0 0 0.70703 0l1.8535-1.8535h0.085938l1-1h-0.085938l10.725-10.725c0.004343 0.024543 0.007529 0.049614 0.011718 0.074219l0.76367-0.76367c-0.008515-0.02061-0.014584-0.042001-0.023437-0.0625l2.1699-2.1699a0.5 0.5 0 0 0 0-0.70703 0.5 0.5 0 0 0-0.70703 0l-1.9805 1.9805c-1.1431-1.5615-3.2712-2.627-5.166-2.627zm0 1c0.1385 0 0.27536 0.0078804 0.41016 0.021484 0.0039 3.668e-4 0.007799-3.77e-4 0.011719 0 4.21e-4 3.81e-5 0.003506-3.82e-5 0.003906 0 0.15503 0.013562 1.2538 0.032334 1.3828 0.058594 0.13043 0.026555 0.25741 0.060768 0.38281 0.099609 0.1254 0.038842 0.24942 0.082348 0.36914 0.13281 0.11972 0.050469 0.23624 0.10653 0.34961 0.16797 0.11337 0.061435 0.22371 0.12943 0.33008 0.20117 0.10637 0.071742 0.20794 0.14908 0.30664 0.23047 0.1974 0.16278 0.37824 0.34361 0.54102 0.54102 0.08139 0.098701 0.15873 0.20027 0.23047 0.30664s0.13974 0.21671 0.20117 0.33008c0.021722 0.040082 0.040179 0.082175 0.060547 0.12305l-11.787 11.787h-0.79297v-1c0.069036 0 0.13784-0.002866 0.20508-0.009766 0.47064-0.0478 1.1423-0.2595 1.709-0.57617 0.61193-0.36192 1.0859-0.86172 1.0859-1.4141v-7c0-0.085905 0.0054999-0.17133 0.013672-0.25586 0.00338-0.051266 0.0027025-0.10359 0.0078125-0.1543 0.013607-0.1348 0.032039-0.26801 0.058594-0.39844 0.026555-0.13043 0.060768-0.25741 0.099609-0.38281 0.038842-0.1254 0.082348-0.24942 0.13281-0.36914 0.050469-0.11972 0.10653-0.23624 0.16797-0.34961 0.061435-0.11337 0.12943-0.22371 0.20117-0.33008s0.14908-0.20794 0.23047-0.30664c0.16278-0.1974 0.34361-0.37824 0.54102-0.54102 0.098701-0.081389 0.20027-0.15873 0.30664-0.23047s0.2167-0.13974 0.33008-0.20117c0.11337-0.061436 0.22989-0.1175 0.34961-0.16797 0.11972-0.050469 0.24374-0.093976 0.36914-0.13281 0.1254-0.038842 0.25238-0.073055 0.38281-0.099609 0.12898-0.02626 1.2278-0.045031 1.3828-0.058594 0.14341-0.013848 0.28604-0.021484 0.42578-0.021484zm5.9844 3.7227-0.98438 0.98438v6.293c0 0.48325 0.36264 0.92575 0.86328 1.2715 0.64368 0.44449 1.5154 0.72852 2.1367 0.72852v1h-5.1719a3 3 0 0 1 0.17188 1 3 3 0 0 1-3 3 3 3 0 0 1-3-3 3 3 0 0 1 0.17969-1h-1.4727l-1 1h1.293c0 1.4275 0.76379 2.7511 2 3.4648 1.2362 0.71373 2.7638 0.71373 4 0s2-2.0374 2-3.4648h4c0.55226-5.5e-5 0.99994-0.44774 1-1v-1c-5.5e-5 -0.55226-0.44774-0.99994-1-1-0.56413 0-2-0.43587-2-1v-7c0-0.093476-0.008188-0.18509-0.015625-0.27734z" style="fill-opacity:.5;fill:currentColor"/>
</svg>
