<?xml version="1.0" encoding="UTF-8"?>
<svg id="i" width="22" height="22" version="1.1" xmlns="http://www.w3.org/2000/svg" xmlns:cc="http://creativecommons.org/ns#" xmlns:dc="http://purl.org/dc/elements/1.1/" xmlns:rdf="http://www.w3.org/1999/02/22-rdf-syntax-ns#">
	<metadata id="a">
		<rdf:RDF>
			<cc:Work rdf:about="">
				<dc:format>image/svg+xml</dc:format>
				<dc:type rdf:resource="http://purl.org/dc/dcmitype/StillImage"/>
				<dc:title/>
			</cc:Work>
		</rdf:RDF>
	</metadata>
	<defs id="d">
		<style id="current-color-scheme" type="text/css">.ColorScheme-Text {color:#090d11;}.ColorScheme-Background{color:#ffffff;}</style>
	</defs>
	<path id="c" class="ColorScheme-Text" d="m15.522 1.9762c-0.51916 0.00464-0.95988 0.066404-1.3355 0.1346 1.0277 0.46986 1.8162 1.158 2.3754 1.8475 0.48255 0.59511 0.80423 1.1855 1.0003 1.6391 0.09803 0.22678 0.16468 0.41925 0.20323 0.57011 0.01928 0.075428 0.0322 0.13665 0.03694 0.20851 0.0023 0.035934 0.0072 0.074093-0.0079 0.13989-9.47e-4 0.0041-0.0068 0.011439-0.0079 0.015836 0.01684 0.74204-0.1641 1.2475-0.19004 1.94-0.01501 0.50082 0.11894 1.1028 0.15308 1.7683 0.03152 0.6146-0.0544 1.2966-0.45661 1.9637 0.0099 0.01709 0.02026 0.03398 0.03168 0.05015 1.0882-1.6621 1.8854-3.4903 2.3041-5.0517 0.22664-0.84501 0.34703-1.6103 0.35636-2.2118 0.0094-0.60149-0.11148-1.0309-0.2481-1.1983-1.2066-1.4842-2.8582-1.828-4.2153-1.8159zm-3.9776 0.22434c-1.0866-0.017121-1.8525 0.28783-2.4283 0.74958-0.57575 0.46175-0.96175 1.0945-1.2167 1.7446-0.29572 0.75398-0.3943 1.4262-0.43813 1.9346 0.31101-0.16205 0.70066-0.32271 1.1244-0.41702 0.22268-0.049563 0.45524-0.08229 0.68624-0.08182 0.23099 4.699e-4 0.46039 0.034136 0.68096 0.11613 0.44112 0.164 0.81211 0.56014 0.94489 1.1508 0.6218 2.7701-0.20193 3.8356-0.49356 4.5925-0.11516 0.29887-0.20742 0.55887-0.26921 0.78125 0.01918-0.0049 0.03895-0.01947 0.05807-0.02111 0.21938-0.01884 0.39025 0.05183 0.48828 0.08974a0.3376 0.3376 0 0 0 0.0027 0.0027c0.31063 0.12548 0.52531 0.38687 0.64136 0.68887 0.02102 0.0547 0.01317 0.1204 0.02639 0.17947a0.3376 0.3376 0 0 1 0.05015 0.19268c-0.03225 1.1226-0.02754 2.25 0.01321 3.1593 0.02037 0.45467 0.04968 0.85487 0.0871 1.1692 0.03727 0.31309 0.09187 0.54992 0.12141 0.62289v0.0027c0.11079 0.26797 0.27243 0.60737 0.55954 0.83932 0.28775 0.23246 0.70298 0.39298 1.4754 0.23755 0.66723-0.13824 1.0766-0.33178 1.3461-0.60177 0.26992-0.27046 0.43183-0.64392 0.53579-1.2273 0.15602-0.87424 0.47072-3.3892 0.51468-3.9089v-0.0027c-1.75e-4 -0.0031 1.66e-4 -5e-3 0-0.0079-0.0217-0.38393 0.03578-0.68513 0.16628-0.91585 0.13223-0.23378 0.33642-0.37397 0.5094-0.44869 0.07027-0.03036 0.09491-0.03277 0.15308-0.05015-0.0495-0.06876-0.06108-0.09287-0.15836-0.21115-0.17944-0.21814-0.41001-0.5182-0.59125-0.93964-0.0155-0.03621-0.10474-0.20161-0.2217-0.40383-0.11696-0.20221-0.26467-0.4576-0.41966-0.7443-0.31-0.5734-0.6492-1.2696-0.82613-1.9532-0.17692-0.68354-0.20517-1.4071 0.25866-1.9188 0.385-0.4248 1.2007-0.45838 2.1406-0.3959-0.03073-0.097688-0.05879-0.19302-0.12141-0.33783-0.17298-0.40007-0.47024-0.94352-0.90794-1.4833-0.8754-1.0796-2.2902-2.1493-4.4895-2.1827zm-6.2685 0.044869c-0.88306 0.048787-1.7125 0.29604-2.3016 0.89738-0.58909 0.60135-0.97852 1.5866-0.89211 3.2385 0.016232 0.30354 0.15755 1.1892 0.40119 2.2355 0.24363 1.0463 0.5884 2.2763 1.003 3.3626 0.41456 1.0862 0.91772 2.0299 1.3857 2.4678 0.23398 0.21896 0.43288 0.30317 0.61232 0.29561 0.17946-0.0076 0.39863-0.10656 0.67304-0.42494 0.83929-0.9756 1.4688-1.6113 1.5968-1.7419-0.75483-0.58542-1.2157-1.5335-1.0584-2.6182 0.091165-0.62439 0.10545-1.2056 0.095017-1.6655-0.00949-0.41821-0.034361-0.68011-0.039591-0.87626-8.919e-4 -0.00175-0.00177-0.00351-0.00264-0.00528-0.0032-0.022725-0.00409-0.045719-0.00264-0.068623v-0.00528c-4.6e-6 -0.00161 0-0.00633 0-0.00792-5.49e-5 -0.00351-5.49e-5 -0.00703 0-0.010555 1.081e-4 -0.00378 0.00247-0.00428 0.00264-0.00792-0.00134-0.049346-0.037434-1.4358 0.5226-2.8636 0.23901-0.60939 0.59996-1.2215 1.1164-1.734-0.58216-0.19363-1.75-0.5424-3.1118-0.46717zm11.349 4.4737c-0.66788-0.011439-1.0269 0.14317-1.2009 0.33519-0.23205 0.25603-0.25728 0.7098-0.10559 1.2959 0.1517 0.58612 0.46985 1.2511 0.76805 1.8027 0.1491 0.2758 0.29173 0.52292 0.4091 0.72583 0.11737 0.2029 0.20272 0.34438 0.25866 0.47509 0.03739 0.08694 0.08055 0.15005 0.12141 0.22434 0.19112-0.4311 0.22355-0.85655 0.20061-1.3039-0.03015-0.58788-0.17449-1.1972-0.15572-1.8238a0.3376 0.3376 0 0 0 0 -0.0027c0.02572-0.6993 0.14572-1.1644 0.17156-1.6866-0.1598-0.016695-0.33316-0.039872-0.46717-0.042169zm-7.3559 0.089738c-0.16832 2.11e-4 -0.35144 0.02231-0.53579 0.063344-0.36872 0.082068-0.73951 0.23467-1.0056 0.37743-0.13305 0.07138-0.24179 0.14177-0.30353 0.19004 0.00634 0.13255 0.032514 0.4083 0.04223 0.83668 0.01099 0.48513-0.00446 1.1044-0.10294 1.779-0.20857 1.4378 0.91968 2.5858 2.2145 2.5391 0.07747-0.27853 0.08308-0.55595 0.19532-0.84724 0.363-0.94208 1.0559-1.579 0.46717-4.2018-0.0046-0.020713-0.01605-0.02541-0.02111-0.044868-0.02623 0.088005-0.06114 0.15101-0.10294 0.20059-0.04902 0.058149-0.10497 0.10992-0.1742 0.15572-0.13846 0.091601-0.33316 0.16489-0.5569 0.13461-0.22224-0.029786-0.38761-0.14276-0.50676-0.26394-0.059576-0.060587-0.10946-0.12283-0.14781-0.19796-0.034572-0.06772-0.062984-0.15877-0.044871-0.29032l-0.010504-0.00264c8.646e-4 -0.00624 0.00679-0.00713 0.00794-0.013203 0.00141-0.00753-0.00436-0.00794-0.00269-0.015836l0.010504 0.00264c0.029194-0.12316 0.10496-0.22228 0.1742-0.26921 0.075882-0.051433 0.146-0.073403 0.21643-0.089737 0.12251-0.028415 0.25254-0.023828 0.38798-0.010555-0.06841-0.00903-0.12529-0.031767-0.20059-0.031672zm6.7989 0.00528c0.14192-0.019223 0.27466-0.015729 0.38798 0.010555 0.05666 0.013149 0.10752 0.031521 0.15836 0.065983 0.04769 0.032331 0.09514 0.090755 0.11085 0.16628l0.0079-0.00264c9.47e-4 0.00477-0.0036 0.00597-0.0027 0.010555v0.00264c0.01368 0.083171-0.0072 0.14281-0.03432 0.19532-0.029 0.056069-0.06954 0.10871-0.11877 0.15836-0.09847 0.099303-0.23736 0.19041-0.41174 0.21379h-0.0054c-0.17373 0.017913-0.3251-0.040316-0.43549-0.11349-0.0552-0.036587-0.10023-0.075968-0.13724-0.11877-0.03699-0.042804-0.06784-0.081875-0.08445-0.15045l-0.0027-0.00792v-0.00528c-0.01391-0.083422 0.0207-0.16092 0.06069-0.20851 0.04002-0.047592 0.08881-0.078082 0.13989-0.10557 0.10218-0.054983 0.22546-0.091702 0.36687-0.11085zm-6.4717 0.044866c0.06148 0.011119 0.11532 0.034469 0.17156 0.052787-0.01897-0.0083-0.0302-0.026893-0.05015-0.034312-0.03432-0.012758-0.08338-0.00935-0.12141-0.018475zm7.7412 6.4717c-0.0046 0.0015-0.0114 0.0091-0.01585 0.0105-0.13437 0.04532-0.23715 0.06364-0.322 0.1003-0.08486 0.03666-0.13993 0.07241-0.19004 0.161-0.04559 0.08056-0.07762 0.25061-0.07127 0.50411 0.01894 0.01076 0.03519 0.02126 0.08709 0.03694 0.14527 0.04392 0.39417 0.07342 0.67304 0.07126 0.55773-0.0042 1.2484-0.13032 1.6048-0.29034h0.0027c0.30981-0.13861 0.43288-0.2766 0.61234-0.4223-1.0125 0.16702-1.7341 0.16482-2.1247 0.0079-0.12216-0.04907-0.17563-0.11682-0.25602-0.17947zm-7.0893 0.09238c-0.0378 0.0032-0.09355 0.0097-0.21907 0.14517a0.3376 0.3376 0 0 1 -0.04223 0.03959c-0.0022 0.0024-0.0032 0.0028-0.0053 0.0053-0.26522 0.29739-0.38474 0.50671-0.63081 0.69415-0.26176 0.19939-0.59444 0.29916-1.251 0.43021-0.1684 0.03329-0.18921 0.05813-0.26921 0.08974 0.081508 0.03684 0.17184 0.07186 0.2481 0.08974a0.3376 0.3376 0 0 0 0.00264 0c0.28109 0.06756 0.73829 0.14674 1.2141 0.06862 0.4758-0.07812 0.96541-0.29651 1.3857-0.86571 0.02784-0.03759 0.04221-0.08499 0.04751-0.13725 3.76e-4 -0.01403-3.85e-4 -0.02555 0-0.03959-5.89e-4 -0.05263-0.0077-0.1091-0.03168-0.17154-0.05489-0.14281-0.1796-0.26647-0.2613-0.30087-0.0968-0.03743-0.1496-0.05075-0.1874-0.04751z" style="fill-opacity:.75;fill:currentColor"/>
	<path id="b" class="ColorScheme-Background" d="m15.512 0.9766c-0.05704 1e-3 -0.11389 0.00688-0.16992 0.017578-0.50772 0.017357-0.97391 0.067439-1.334 0.13281-0.30461 0.055337-0.56641 0.24863-0.70898 0.52344-0.5686-0.16761-1.0509-0.43864-1.7344-0.44922h-0.0039c-1.0467-0.016493-1.8855 0.28571-2.582 0.70703-0.083698-0.062243-0.17662-0.11101-0.27539-0.14453-0.55026-0.18302-1.7589-0.44384-3.0859-0.45703-0.12672-0.046748-0.26159-0.067344-0.39648-0.060547-1.0344 0.05715-2.1394 0.35862-2.9609 1.1973-0.817 0.834-1.2715 2.1611-1.1758 3.9902v0.00195c0.02722 0.50902 0.17325 1.3237 0.42578 2.4082 0.25163 1.0806 0.60459 2.3435 1.043 3.4922 0.44187 1.1577 0.90457 2.1585 1.6348 2.8418 0.34703 0.32476 0.81539 0.58646 1.3379 0.56445h0.00195c0.48718-0.02063 0.94857-0.32757 1.3203-0.73438 0.059012 0.32219 0.27206 0.59506 0.57031 0.73047 0.11681 0.05279 0.24344 0.10645 0.42969 0.15039l0.00195 2e-3c0.041856 0.0092 0.084261 0.01575 0.12695 0.01953 0.35347 0.07862 0.86177 0.16409 1.4805 0.0625 0.30058-0.04935 0.6305-0.17316 0.95312-0.3457 0.0035 0.49725-0.01353 1.0487 0.0059 1.4805 0.02111 0.4713 0.0518 0.88977 0.09375 1.2422 0.02191 0.18407 0.04799 0.34671 0.07617 0.48438 0.01291 0.06305 0.03818 0.12888 0.05078 0.18164 0.01201 0.07705 0.03298 0.15243 0.0625 0.22461 0.1281 0.30984 0.34016 0.81806 0.85547 1.2344 0.47851 0.38658 1.3299 0.63482 2.3008 0.43945 2e-3 6e-6 0.0039 6e-6 0.0059 0 0.76922-0.15937 1.3932-0.41584 1.8516-0.875 0.45383-0.45473 0.69001-1.0705 0.8125-1.7578 0.13584-0.76115 0.3-2.1524 0.41211-3.1328 0.18323 0.0246 0.36109 0.06801 0.56836 0.06641 0.65167-0.0049 1.2888-0.09449 1.8711-0.32812 0.0467-0.01294 0.09239-0.02926 0.13672-0.04883 0.44554-0.19934 0.72072-0.46664 0.83398-0.55859 0.79765-0.64641 0.21994-1.9313-0.79297-1.7637-0.7597 0.12532-1.1006 0.07179-1.2891 0.05469 1.0738-1.6918 1.8972-3.5024 2.3281-5.1094 0.24281-0.90532 0.37944-1.7333 0.39062-2.4551 0.0116-0.74211 0.0097-1.2519-0.47266-1.8438-1.3443-1.6534-3.1727-2.0829-4.6602-2.129-0.091163-0.032483-0.18656-0.051562-0.2832-0.056641v0.00977c-0.01669 4.1e-5 -0.03811-0.00991-0.05469-0.00977zm0.0098 1c1.357-0.012169 3.0082 0.33219 4.2148 1.8164 0.13662 0.16737 0.25745 0.59578 0.24805 1.1973-0.0093 0.60153-0.12883 1.3659-0.35547 2.2109-0.41874 1.5615-1.2165 3.3906-2.3047 5.0527-0.01142-0.01617-0.02135-0.03369-0.03125-0.05078 0.40221-0.66711 0.48855-1.3483 0.45703-1.9629-0.03415-0.6655-0.16931-1.2668-0.1543-1.7676 0.02594-0.69251 0.20825-1.1994 0.19141-1.9414 0.0011-0.0044 0.0069-0.011525 0.0078-0.015625 0.0151-0.065798 0.01011-0.10274 0.0078-0.13867-0.0047-0.07186-0.01783-0.13356-0.03711-0.20898-0.03856-0.15086-0.1051-0.34354-0.20313-0.57031-0.19609-0.45358-0.5194-1.0436-1.002-1.6387-0.55913-0.68949-1.3473-1.3778-2.375-1.8477 0.37562-0.068196 0.81678-0.13013 1.3359-0.13477zm-3.9766 0.22461h2e-3c2.1994 0.033432 3.6148 1.1021 4.4902 2.1816 0.4377 0.5398 0.73327 1.0843 0.90625 1.4844 0.06261 0.14481 0.09232 0.2402 0.12305 0.33789-0.93985-0.062484-1.7556-0.030265-2.1406 0.39453-0.46383 0.51173-0.43669 1.2364-0.25976 1.9199 0.17692 0.6836 0.51617 1.3797 0.82617 1.9531 0.15499 0.2867 0.30296 0.54193 0.41992 0.74414 0.11696 0.20222 0.20716 0.36809 0.22266 0.4043 0.18124 0.42144 0.4104 0.72131 0.58984 0.93945 0.09728 0.11828 0.1087 0.14218 0.1582 0.21094-0.05818 0.01738-0.08207 0.02042-0.15234 0.05078-0.17298 0.07472-0.37754 0.21348-0.50977 0.44726-0.1305 0.23072-0.18772 0.53208-0.16602 0.91602 1.66e-4 0.0029-1.75e-4 0.0047 0 0.0078v0.0039c-0.04396 0.51968-0.35765 3.034-0.51367 3.9082-0.10396 0.58338-0.26719 0.95611-0.53711 1.2266-0.26955 0.27-0.67848 0.46332-1.3457 0.60156-0.7724 0.15543-1.1869-0.0039-1.4746-0.23633-0.28711-0.23195-0.44976-0.57187-0.56055-0.83984v-2e-3c-0.02954-0.07297-0.08382-0.30996-0.12109-0.62305-0.03742-0.31437-0.06752-0.71525-0.08789-1.1699-0.04075-0.90934-0.04397-2.0356-0.01172-3.1582 3e-3 -0.0681-0.01472-0.13551-0.05078-0.19336-0.01322-0.05908-0.0063-0.12499-0.02734-0.17969-0.11605-0.30201-0.33-0.56397-0.64062-0.68945-6.48e-4 -6.54e-4 -0.0013-0.0013-2e-3 -2e-3 -0.09803-0.03791-0.2689-0.10868-0.48828-0.08984-0.01912 0.0016-0.03941 0.01658-0.05859 0.02148 0.06179-0.22238 0.15438-0.48238 0.26953-0.78125 0.29163-0.7569 1.114-1.8236 0.49219-4.5937-0.13282-0.59051-0.50229-0.98628-0.9434-1.1503-0.22056-0.081996-0.45065-0.11476-0.68164-0.11523s-0.46287 0.032468-0.68555 0.082031c-0.42371 0.094315-0.81399 0.25396-1.125 0.41602 0.043834-0.5084 0.14178-1.1796 0.4375-1.9336 0.255-0.65014 0.64104-1.2843 1.2168-1.7461 0.57578-0.46175 1.3431-0.76517 2.4297-0.74805zm-6.2696 0.044922c1.3618-0.075229 2.5292 0.27317 3.1113 0.4668-0.51649 0.51253-0.87622 1.125-1.1152 1.7344-0.56003 1.4279-0.52478 2.8139-0.52344 2.8633-1.7e-4 0.00364-0.00185 0.00403-0.00195 0.00781-5.49e-5 0.00352-5.5e-5 0.00626 0 0.00977-1e-7 0.00159-4.6e-6 0.0062 0 0.00781v0.00586c-0.00145 0.022904-0.00125 0.045634 0.00195 0.068359 8.7e-4 0.00177 0.00106 0.00411 0.00195 0.00586 0.00523 0.19615 0.031526 0.45874 0.041016 0.87695 0.010432 0.45984-0.00454 1.0397-0.095703 1.6641-0.15734 1.0847 0.30377 2.0337 1.0586 2.6191-0.12796 0.13066-0.75836 0.76659-1.5977 1.7422-0.27441 0.31838-0.49242 0.41623-0.67188 0.42383-0.17945 0.0076-0.37931-0.07596-0.61328-0.29492-0.46799-0.43795-0.9702-1.3826-1.3848-2.4688-0.41456-1.0862-0.76027-2.3151-1.0039-3.3613-0.24363-1.0463-0.38416-1.9328-0.40039-2.2363-0.086412-1.6519 0.30349-2.6369 0.89258-3.2383 0.5891-0.60135 1.4177-0.8477 2.3008-0.89648zm11.35 4.4727c0.13401 0.0023 0.307 0.026264 0.4668 0.042969-0.02584 0.52224-0.14615 0.98625-0.17188 1.6855 8e-6 0.0013 8e-6 0.0026 0 0.0039-0.01876 0.62662 0.1261 1.2344 0.15625 1.8223 0.02294 0.44731-0.01006 0.87359-0.20117 1.3047-0.04086-0.07429-0.0837-0.13767-0.12109-0.22461-0.05594-0.13071-0.14044-0.27171-0.25781-0.47461-0.11737-0.20292-0.26106-0.45077-0.41016-0.72657-0.2982-0.55158-0.61588-1.2166-0.76758-1.8027-0.15169-0.58612-0.12658-1.0389 0.10547-1.2949 0.17404-0.19202 0.53329-0.34738 1.2012-0.33594zm-7.3555 0.089844c0.07531-9.51e-5 0.13081 0.02222 0.19922 0.03125-0.13545-0.013273-0.26421-0.016696-0.38672 0.011719-0.07043 0.016334-0.14091 0.038411-0.2168 0.089844-0.069235 0.046933-0.14463 0.14637-0.17383 0.26953l-0.011719-0.00391c-0.00167 0.0079 0.00532 0.0081 0.00391 0.015625-0.00115 0.00607-0.00695 0.00743-0.00781 0.013672l0.00977 0.00195c-0.018112 0.13155 0.010349 0.2233 0.044922 0.29102 0.038356 0.075125 0.088861 0.13668 0.14844 0.19727 0.11915 0.12118 0.28362 0.23584 0.50586 0.26562 0.22374 0.030281 0.41818-0.043165 0.55664-0.13477 0.06922-0.045801 0.12481-0.098101 0.17383-0.15625 0.04179-0.049579 0.07728-0.11316 0.10351-0.20117 0.0051 0.019458 0.01688 0.024209 0.02148 0.044922 0.58874 2.6228-0.10379 3.2611-0.4668 4.2031-0.11223 0.29128-0.11784 0.56718-0.19531 0.8457-1.2948 0.04676-2.4234-1.1012-2.2148-2.5391 0.098476-0.67453 0.11451-1.2942 0.10352-1.7793-0.00972-0.42838-0.036629-0.70339-0.042969-0.83594 0.061741-0.048266 0.16968-0.11807 0.30273-0.18945 0.26609-0.14276 0.63714-0.29489 1.0059-0.37695 0.18435-0.041034 0.36879-0.064242 0.53711-0.064453zm6.7988 0.00586c-0.14142 0.019151-0.26501 0.056345-0.36719 0.11133-0.05108 0.027491-0.1006 0.057877-0.14062 0.10547-0.03999 0.047587-0.07446 0.12361-0.06055 0.20703v0.00586l2e-3 0.00781c0.01661 0.068571 0.04895 0.10759 0.08594 0.15039 0.03701 0.042804 0.08152 0.082554 0.13672 0.11914 0.11039 0.073176 0.26181 0.13119 0.43555 0.11328h0.0059c0.17439-0.023377 0.31169-0.11359 0.41016-0.21289 0.04923-0.049654 0.09014-0.10213 0.11914-0.1582 0.02712-0.052505 0.04884-0.11214 0.03516-0.19531v-0.00391c-9e-4 -0.00459 0.0029-5e-3 2e-3 -0.00977l-0.0078 0.00195c-0.01586-0.075511-0.06379-0.13367-0.11148-0.166-0.05084-0.034462-0.10154-0.053257-0.1582-0.066406-0.11332-0.026284-0.2448-0.028989-0.38672-0.0097657zm-6.4727 0.044922c0.03803 0.00913 0.08677 0.00482 0.12109 0.017578 0.01995 0.00742 0.03181 0.026856 0.05078 0.035156-0.05623-0.018318-0.1104-0.041615-0.17188-0.052734zm7.7422 6.4707c0.08039 0.06265 0.1337 0.13062 0.25586 0.17969 0.39056 0.15692 1.1125 0.15921 2.125-0.0078-0.17946 0.14569-0.30347 0.28326-0.61328 0.42188h-2e-3c-0.35632 0.16001-1.0477 0.28682-1.6055 0.29102-0.27887 0.0022-0.5266-0.02835-0.67188-0.07227-0.0519-0.01568-0.06895-0.0244-0.08789-0.03516-0.0064-0.2535 0.02472-0.4253 0.07031-0.50586 0.05011-0.08859 0.10655-0.1235 0.19141-0.16016 0.08485-0.03666 0.1879-0.05429 0.32227-0.09961 0.0045-0.0014 0.01103-0.01022 0.01563-0.01172zm-7.0898 0.09375c0.0378-0.0032 0.0907 0.0094 0.1875 0.04687 0.0817 0.03439 0.20683 0.15797 0.26172 0.30078 0.02398 0.06245 0.03066 0.11924 0.03125 0.17188-3.85e-4 0.01404 3.76e-4 0.02503 0 0.03906-0.0053 0.05226-0.01904 0.09913-0.04687 0.13672-0.4203 0.5692-0.91092 0.78907-1.3867 0.86719-0.47582 0.07812-0.9318-0.0028-1.2129-0.07031-0.0013 8e-6 -0.0026 8e-6 -0.00391 0-0.076267-0.01788-0.16654-0.05105-0.24805-0.08789 0.080007-0.03161 0.10113-0.05655 0.26953-0.08984 0.65661-0.13105 0.99019-0.23225 1.252-0.43164 0.24607-0.18744 0.36369-0.39597 0.62891-0.69336 0.0021-0.0025 0.0037-0.0035 0.0059-0.0059 0.01542-0.01176 0.0298-0.02483 0.04297-0.03906 0.12552-0.13547 0.18095-0.14133 0.21875-0.14453z" style="fill-opacity:.5;fill:currentColor"/>
</svg>
