<?xml version="1.0" encoding="UTF-8"?>
<!-- Created with Inkscape (http://www.inkscape.org/) -->
<svg width="22" height="22" version="1.1" xmlns="http://www.w3.org/2000/svg" xmlns:cc="http://creativecommons.org/ns#" xmlns:dc="http://purl.org/dc/elements/1.1/" xmlns:rdf="http://www.w3.org/1999/02/22-rdf-syntax-ns#">
	<defs>
		<style id="current-color-scheme" type="text/css">.ColorScheme-Text {color:#090d11;}.ColorScheme-Background{color:#ffffff;}</style>
	</defs>
	<metadata>
		<rdf:RDF>
			<cc:Work rdf:about="">
				<dc:format>image/svg+xml</dc:format>
				<dc:type rdf:resource="http://purl.org/dc/dcmitype/StillImage"/>
			</cc:Work>
		</rdf:RDF>
	</metadata>
	<path id="e" class="ColorScheme-Text" d="m2.8359 2.2246c-0.04627 4.578e-4 -0.080651 0.011157-0.10352 0.03125-0.36583 0.32149 1.5216 4.1486 1.4902 4.6348-0.031356 0.48601-2.3957 4.0404-2.0742 4.4062 0.32149 0.36583 4.1486-1.5216 4.6348-1.4902 0.48601 0.03135 4.0404 2.3957 4.4062 2.0742 0.36583-0.32149-1.5216-4.1507-1.4902-4.6367 0.03135-0.48601 2.3957-4.0404 2.0742-4.4062-0.3215-0.36582-4.1507 1.5216-4.6367 1.4902-0.42527-0.027437-3.1989-1.8385-4.1309-2.0762v-0.00195c-0.066575-0.016982-0.12365-0.025851-0.16992-0.025394zm13.258 2.0039c-0.29587 0.055884-0.49631 2.6867-0.66602 2.9355-0.1697 0.24873-2.548 1.3976-2.4922 1.6934 0.05588 0.29587 2.6908 0.49631 2.9395 0.66602 0.24873 0.1697 1.3936 2.548 1.6895 2.4922 0.29592-0.05584 0.49631-2.6867 0.66602-2.9355 0.1697-0.24873 2.548-1.3976 2.4922-1.6934s-2.6867-0.49631-2.9355-0.66602c-0.24873-0.1697-1.3976-2.548-1.6934-2.4922zm3.5449 9.4902c-0.22624 0.02863-1.1614 0.84362-1.3086 0.87305-0.15695 0.03139-1.4874-0.41834-1.5762-0.28516-0.08879 0.13317 0.8358 1.1887 0.86719 1.3457 0.03139 0.15695-0.41443 1.4875-0.28125 1.5762 0.13317 0.08879 1.1868-0.83775 1.3438-0.86914 0.15695-0.03139 1.4854 0.41834 1.5742 0.28516 0.08879-0.13317-0.8358-1.1887-0.86719-1.3457-0.03139-0.15695 0.41638-1.4855 0.2832-1.5742-0.0083-0.0055-0.02007-0.0078-0.03516-0.0059zm-5.9707 0.80078c-0.32322 0.04074-1.6607 1.204-1.8711 1.2461-0.22433 0.04486-2.1252-0.59661-2.252-0.40625-0.1269 0.19034 1.1954 1.6975 1.2402 1.9219 0.04486 0.22433-0.59466 2.1271-0.4043 2.2539 0.19036 0.12688 1.6975-1.1974 1.9219-1.2422 0.22433-0.04486 2.1231 0.5966 2.25 0.40625 0.1269-0.19034-1.1953-1.6975-1.2402-1.9219-0.04486-0.22433 0.59661-2.1251 0.40625-2.252-0.0119-0.0079-0.02923-0.0086-0.05078-0.0059z" style="fill-opacity:.75;fill:currentColor"/>
	<path class="ColorScheme-Background" d="m2.8262 1.2266c-0.18135 0.00179-0.46744 0.025644-0.75391 0.27734-0.28773 0.25285-0.35045 0.53748-0.375 0.7168s-0.01273 0.30684 0.00195 0.42773c0.029372 0.24178 0.086683 0.45415 0.1582 0.68945 0.14305 0.4706 0.35178 1.0076 0.56641 1.5449 0.21462 0.53735 0.43626 1.0715 0.5957 1.4844 0.073116 0.18931 0.12653 0.34204 0.16406 0.45703-0.052052 0.10923-0.12623 0.25398-0.22266 0.43164-0.21125 0.38919-0.49929 0.89083-0.78125 1.3965-0.28196 0.50563-0.55545 1.0105-0.75781 1.459-0.10118 0.22427-0.1859 0.42804-0.24609 0.66406-0.030097 0.11801-0.057932 0.24482-0.056641 0.42578 0.00129 0.18096 0.024361 0.468 0.27734 0.75586 0.25285 0.28773 0.53748 0.35045 0.7168 0.375s0.30684 0.01278 0.42773-2e-3c0.24178-0.02937 0.45415-0.08668 0.68945-0.1582 0.4706-0.14305 1.0076-0.35178 1.5449-0.56641 0.53735-0.21462 1.0715-0.43626 1.4844-0.5957 0.18931-0.07312 0.34204-0.12653 0.45703-0.16406 0.10923 0.05205 0.25398 0.12623 0.43164 0.22266 0.38919 0.21124 0.89083 0.49929 1.3965 0.78125 0.50563 0.28196 1.0105 0.55741 1.459 0.75977 0.22427 0.10118 0.42804 0.1859 0.66406 0.24609 0.11801 0.0301 0.24482 0.05793 0.42578 0.05664 0.18096-0.0013 0.468-0.02631 0.75586-0.2793 0.28785-0.25296 0.35046-0.53555 0.375-0.71484s0.01278-0.30684-2e-3 -0.42774c-0.02936-0.24179-0.08669-0.456-0.1582-0.69141-0.14303-0.47081-0.35179-1.0073-0.56641-1.5449-0.21462-0.53765-0.43624-1.0713-0.5957-1.4844-0.07315-0.18948-0.12652-0.34391-0.16406-0.45898 0.05205-0.10923 0.12623-0.25398 0.22266-0.43164 0.21124-0.38919 0.49929-0.89083 0.78125-1.3965 0.28196-0.50563 0.55742-1.0105 0.75976-1.459 0.10118-0.22427 0.1859-0.42804 0.24609-0.66406 0.0301-0.11801 0.05793-0.24482 0.05664-0.42578-0.0013-0.18096-0.02631-0.468-0.2793-0.75586-0.25297-0.28784-0.53556-0.35047-0.71484-0.375-0.17929-0.024533-0.30683-0.012724-0.42774 0.00195-0.24179 0.02936-0.456 0.086693-0.69141 0.1582-0.47076 0.14308-1.0073 0.35179-1.5449 0.56641-0.5376 0.21467-1.0732 0.43629-1.4863 0.59575-0.18871 0.072845-0.34007 0.12649-0.45508 0.16406-0.080282-0.037982-0.16911-0.080738-0.29297-0.14648-0.31245-0.16587-0.72628-0.40007-1.1602-0.64453-0.74357-0.41899-1.4365-0.79349-2.1406-1.043-0.10631-0.081272-0.22785-0.14038-0.35742-0.17383-0.11921-0.030404-0.24639-0.056482-0.42773-0.054688zm0.00977 1c0.046267-4.579e-4 0.10335 0.00646 0.16992 0.023438v0.00195c0.93209 0.23768 3.7056 2.0487 4.1309 2.0762 0.48599 0.031403 4.3152-1.8561 4.6367-1.4902s-2.0429 3.9202-2.0742 4.4062c-0.0314 0.48599 1.8561 4.3152 1.4902 4.6367-0.36582 0.3215-3.9202-2.0429-4.4062-2.0742-0.48612-0.0314-4.3133 1.8561-4.6348 1.4902-0.3215-0.36582 2.0429-3.9202 2.0742-4.4062 0.031403-0.48612-1.8561-4.3133-1.4902-4.6348 0.022869-0.020094 0.057241-0.028839 0.10352-0.029297zm13.326 1c-0.07658-0.00317-0.16068 0.0023-0.25195 0.019531-0.36492 0.068926-0.55088 0.27252-0.65234 0.40039s-0.14711 0.22504-0.18555 0.3125c-0.07687 0.17493-0.11537 0.32133-0.1543 0.48047-0.07786 0.31828-0.13562 0.67436-0.19141 1.0312-0.05578 0.35694-0.10637 0.71053-0.15039 0.97266-0.0091 0.053977-0.01515 0.078451-0.02344 0.12305-0.03892 0.024251-0.05975 0.039823-0.10742 0.068359-0.22804 0.13651-0.53948 0.31213-0.85156 0.49414s-0.6226 0.36622-0.89062 0.55469c-0.13401 0.094236-0.25574 0.185-0.39062 0.32031-0.06745 0.067657-0.14054 0.14405-0.22266 0.28516s-0.20369 0.38883-0.13477 0.75391c0.06899 0.36526 0.27247 0.55092 0.40039 0.65234s0.22307 0.14519 0.31055 0.18359c0.17496 0.07681 0.32123 0.11538 0.48047 0.1543 0.31847 0.07784 0.67596 0.13758 1.0332 0.19336s0.71226 0.10637 0.97461 0.15039c0.05402 0.0091 0.07841 0.01515 0.12305 0.02344 0.02381 0.0383 0.03852 0.05882 0.06641 0.10547 0.13626 0.22799 0.31244 0.53948 0.49414 0.85156s0.36643 0.62252 0.55469 0.89062c0.09413 0.13405 0.18305 0.25562 0.31836 0.39062 0.06765 0.06751 0.14397 0.14045 0.28516 0.22266s0.38903 0.20557 0.75391 0.13672c0.36491-0.06886 0.55084-0.27251 0.65234-0.40039s0.14515-0.22503 0.18359-0.3125c0.07688-0.17494 0.11536-0.32132 0.1543-0.48047 0.07787-0.31829 0.13758-0.67435 0.19336-1.0312 0.05578-0.35695 0.10638-0.71052 0.15039-0.97266 0.0091-0.05398 0.01515-0.07845 0.02344-0.12305 0.03892-0.02425 0.05975-0.03982 0.10742-0.06836 0.22804-0.13651 0.53948-0.31213 0.85156-0.49414s0.62065-0.36622 0.88867-0.55469c0.13401-0.094236 0.25574-0.185 0.39062-0.32031 0.06745-0.067657 0.14249-0.14405 0.22461-0.28516s0.20369-0.38883 0.13477-0.75391c-0.06891-0.36503-0.27251-0.54893-0.40039-0.65039s-0.22504-0.14712-0.3125-0.18555c-0.17491-0.07685-0.31938-0.11537-0.47852-0.1543-0.31826-0.077852-0.67626-0.13757-1.0332-0.19336-0.35694-0.055785-0.71052-0.10637-0.97266-0.15039-0.0548-0.0092-0.0799-0.015038-0.125-0.023437-0.02385-0.038319-0.03847-0.058805-0.06641-0.10547-0.1365-0.22804-0.31213-0.53948-0.49414-0.85156-0.18202-0.31208-0.36622-0.6226-0.55469-0.89062-0.09424-0.13401-0.18305-0.25574-0.31836-0.39062-0.06766-0.067446-0.146-0.14054-0.28711-0.22266-0.10583-0.06159-0.27025-0.14674-0.5-0.15625zm-0.06641 1.002c0.2958-0.055842 1.4427 2.3225 1.6914 2.4922 0.24882 0.1697 2.8797 0.37022 2.9355 0.66602 0.05584 0.2958-2.3205 1.4446-2.4902 1.6934-0.1697 0.24882-0.37204 2.8797-0.66797 2.9355-0.29592 0.05584-1.4407-2.3225-1.6895-2.4922-0.24869-0.1697-2.8816-0.37014-2.9375-0.66602-0.05584-0.2958 2.3205-1.4427 2.4902-1.6914 0.1697-0.24882 0.3721-2.8816 0.66797-2.9375zm3.5801 8.4961c-0.04444 3.01e-4 -0.08881 0.0036-0.13281 0.0098-0.0065 7.54e-4 -0.02317-0.0086-0.0293-0.0078-0.14873 0.01882-0.2306 0.05183-0.30078 0.08008-0.14035 0.0565-0.22433 0.10844-0.31055 0.16211-0.17243 0.10734-0.33288 0.22619-0.49024 0.34375-0.11151 0.08331-0.20145 0.15212-0.29297 0.2207-0.11114-0.02822-0.22184-0.05757-0.35742-0.0918-0.19041-0.04807-0.38356-0.09606-0.58398-0.12891-0.10021-0.01642-0.19633-0.03107-0.34766-0.0293-0.07566 8.87e-4 -0.16595 0.0012-0.31055 0.04102s-0.3964 0.12579-0.59766 0.42773c-0.20129 0.3019-0.18288 0.56807-0.16406 0.7168s0.05183 0.23256 0.08008 0.30273c0.0565 0.14035 0.10844 0.22238 0.16211 0.30859 0.10734 0.17243 0.22424 0.33288 0.3418 0.49023 0.08367 0.11199 0.15195 0.20316 0.2207 0.29492-0.02804 0.11114-0.05585 0.22188-0.08984 0.35742-0.04775 0.19043-0.09444 0.38358-0.12695 0.58398-0.01625 0.10021-0.0313 0.19644-0.0293 0.34766 1e-3 0.07561 0.0011 0.1662 0.04102 0.31055s0.12608 0.39464 0.42773 0.5957c0.3016 0.20109 0.56791 0.18488 0.7168 0.16602s0.23252-0.05372 0.30274-0.08203c0.14044-0.05663 0.22246-0.10839 0.30859-0.16211 0.17226-0.10744 0.33124-0.22423 0.48828-0.3418 0.11104-0.08313 0.2018-0.15224 0.29297-0.2207 0.11111 0.02821 0.22189 0.05563 0.35742 0.08984 0.19041 0.04807 0.38356 0.09606 0.58398 0.12891 0.10021 0.01642 0.19633 0.03303 0.34766 0.03125 0.07566-8.87e-4 0.16595-0.0032 0.31055-0.04297 0.1446-0.03982 0.3964-0.12579 0.59766-0.42773 0.20129-0.3019 0.18288-0.56612 0.16406-0.71484-0.01882-0.14873-0.05183-0.23256-0.08008-0.30273-0.0565-0.14035-0.10844-0.22433-0.16211-0.31055-0.10734-0.17243-0.22424-0.33093-0.3418-0.48828-0.08385-0.11222-0.15382-0.20499-0.22266-0.29687 0.02814-0.11078 0.05774-0.22058 0.0918-0.35547 0.04807-0.19041 0.09606-0.38356 0.12891-0.58398 0.01642-0.10021 0.03107-0.19633 0.0293-0.34766-8.88e-4 -0.07566-0.0012-0.16595-0.04102-0.31055-0.0018-0.0066-0.0175-0.0203-0.01953-0.02734-0.06319-0.23243-0.20813-0.43424-0.4082-0.56836-0.23853-0.15904-0.4131-0.13764-0.56641-0.13086zm-5.9941 0.79102c-0.05173 0.0012-0.09792 0.0068-0.13672 0.01172-0.15519 0.01956-0.24699 0.0541-0.32617 0.08594-0.15837 0.06367-0.26499 0.12762-0.37695 0.19727-0.22392 0.13928-0.44636 0.30328-0.66797 0.46875-0.21709 0.1621-0.42787 0.32193-0.58594 0.4375-0.1907-0.04598-0.44558-0.1114-0.70898-0.17774-0.26853-0.06763-0.53839-0.1352-0.79883-0.17773-0.13022-0.02127-0.25316-0.03918-0.42383-0.03711-0.08533 1e-3 -0.18318 0.0034-0.33398 0.04492-0.1508 0.04155-0.40568 0.12994-0.60938 0.43555-0.20366 0.30546-0.18767 0.57518-0.16797 0.73047 0.019703 0.15529 0.055968 0.24699 0.087891 0.32617 0.063845 0.15836 0.12749 0.26502 0.19727 0.37695 0.13956 0.22387 0.30492 0.44638 0.4707 0.66797 0.16205 0.2166 0.32179 0.42605 0.4375 0.58398-0.04598 0.1907-0.11334 0.44751-0.17969 0.71094-0.06763 0.26853-0.13324 0.53839-0.17578 0.79883-0.02127 0.13022-0.03918 0.2512-0.03711 0.42188 1e-3 0.08533 0.0034 0.18318 0.04492 0.33398 0.04156 0.1508 0.12994 0.40763 0.43555 0.61133 0.30548 0.20361 0.5752 0.18572 0.73047 0.16602 0.15527-0.01971 0.247-0.05401 0.32617-0.08594 0.15835-0.06385 0.26502-0.12944 0.37695-0.19922 0.22387-0.13956 0.44638-0.30297 0.66797-0.46875 0.21787-0.163 0.4277-0.32361 0.58594-0.43945 0.19029 0.04596 0.44461 0.11352 0.70703 0.17969 0.26822 0.06763 0.5366 0.13322 0.79688 0.17578 0.13014 0.02128 0.25312 0.04113 0.42383 0.03906 0.08535-1e-3 0.18314-0.0033 0.33398-0.04492 0.15085-0.0416 0.40588-0.13026 0.60938-0.43555 0.20345-0.30515 0.18753-0.57528 0.16797-0.73047s-0.0541-0.24699-0.08594-0.32617c-0.06367-0.15837-0.12958-0.26304-0.19922-0.375-0.13928-0.22392-0.30328-0.44831-0.46875-0.66992-0.16209-0.21708-0.32194-0.42592-0.4375-0.58398 0.04596-0.19043 0.11334-0.44588 0.17969-0.70898 0.06763-0.26822 0.13322-0.53855 0.17578-0.79883 0.02128-0.13014 0.04114-0.25116 0.03906-0.42188-1e-3 -0.08535-0.0053-0.18314-0.04687-0.33398-0.0021-0.0076-0.01912-0.02312-0.02148-0.03125-0.0621-0.23765-0.20949-0.44413-0.41406-0.58008-0.22886-0.15259-0.4366-0.18148-0.5918-0.17773zm5.959 0.20312c0.01509-0.0019 0.02683 3.1e-4 0.03516 0.0059 0.13317 0.08876-0.31655 1.4173-0.28516 1.5742 0.03139 0.15695 0.95793 1.2125 0.86914 1.3457-0.08876 0.13317-1.4192-0.31655-1.5762-0.28516-0.15689 0.03139-1.2106 0.95793-1.3438 0.86914-0.13317-0.08876 0.31459-1.4192 0.2832-1.5762-0.03139-0.15695-0.95793-1.2125-0.86914-1.3457 0.08876-0.13317 1.4192 0.31655 1.5762 0.28516 0.14714-0.02943 1.0843-0.84451 1.3105-0.87305zm-5.9727 0.79883c0.02153-0.0027 0.03889-1.19e-4 0.05078 0.0078 0.19036 0.12688-0.44916 2.0276-0.4043 2.252 0.04486 0.22438 1.3652 1.7315 1.2383 1.9219-0.12688 0.19036-2.0257-0.45111-2.25-0.40625-0.22438 0.04486-1.7315 1.3691-1.9219 1.2422-0.19036-0.12688 0.45111-2.0296 0.40625-2.2539-0.04486-0.22438-1.3691-1.7315-1.2422-1.9219 0.12688-0.19036 2.0296 0.45111 2.2539 0.40625 0.21036-0.04206 1.5461-1.2072 1.8691-1.248z" style="fill-opacity:.5;fill:currentColor"/>
</svg>
