<?xml version="1.0" encoding="UTF-8"?>
<svg id="i" width="22" height="22" version="1.1" xmlns="http://www.w3.org/2000/svg" xmlns:cc="http://creativecommons.org/ns#" xmlns:dc="http://purl.org/dc/elements/1.1/" xmlns:rdf="http://www.w3.org/1999/02/22-rdf-syntax-ns#">
	<metadata id="a">
		<rdf:RDF>
			<cc:Work rdf:about="">
				<dc:format>image/svg+xml</dc:format>
				<dc:type rdf:resource="http://purl.org/dc/dcmitype/StillImage"/>
				<dc:title/>
			</cc:Work>
		</rdf:RDF>
	</metadata>
	<defs id="d">
		<style id="current-color-scheme" type="text/css">.ColorScheme-Text {color:#090d11;}.ColorScheme-Background{color:#ffffff;}</style>
	</defs>
	<path id="c" d="m5 2c-1.662 0-3 1.338-3 3v14c0 0.554 0.446 1 1 1h14c1.662 0 3-1.338 3-3v-14c0-0.554-0.446-1-1-1h-14zm9.3613 1.373c0.024978-0.024979 0.76546 0.37109 0.80078 0.37109 0.035318 0 0.7758-0.39608 0.80078-0.37109 0.024979 0.024979-0.37109 0.76546-0.37109 0.80078 0 0.035319 0.39607 0.77385 0.37109 0.79883-0.024979 0.024979-0.76547-0.37109-0.80078-0.37109-0.035319 0-0.7758 0.39608-0.80078 0.37109-0.024979-0.024979 0.38086-0.76351 0.38086-0.79883-1e-6 -0.035319-0.40584-0.7758-0.38086-0.80078zm-8.0059 0.62695c0.38318 6.2e-6 0.72403 0.06612 1.0195 0.19531 0.29776 0.12682 0.55072 0.30806 0.75391 0.54492 0.20313 0.23446 0.35509 0.51905 0.45898 0.85156 0.10618 0.33014 0.16016 0.69828 0.16016 1.1074-4.3e-6 0.34451-0.03906 0.66118-0.11523 0.95312-0.073865 0.28947-0.18075 0.54851-0.32617 0.77344-0.14543 0.22489-0.32831 0.41285-0.54297 0.56836-0.21469 0.15312-0.46286 0.26459-0.74219 0.33398 0.02077 0.27034 0.062325 0.49378 0.12695 0.66602 0.064637 0.17463 0.14595 0.31011 0.23828 0.4082 0.094635 0.10048 0.19744 0.16875 0.31055 0.20703 0.11309 0.03827 0.23188 0.056631 0.34961 0.056641h0.10938v0.43164h-0.50977c-0.21237-1e-6 -0.41727-0.033067-0.625-0.097656-0.20544-0.064602-0.3979-0.16939-0.56641-0.31055-0.16619-0.13875-0.30095-0.31897-0.41406-0.53906-0.11079-0.21769-0.17809-0.4819-0.20117-0.79297-0.31857-0.050241-0.59819-0.1505-0.83594-0.29883-0.23545-0.15072-0.43092-0.3387-0.58789-0.56836-0.15698-0.22967-0.27504-0.49502-0.35352-0.79883-0.076174-0.30383-0.11719-0.63682-0.11719-0.99805 0-0.40671 0.051129-0.7792 0.15039-1.1094 0.099252-0.33254 0.25071-0.61518 0.44922-0.84961 0.20084-0.23444 0.44794-0.41226 0.74805-0.53906 0.30239-0.12918 0.65628-0.1953 1.0625-0.19531zm4.0586 0.59766h0.58594v0.61719h0.75781v0.60547h-0.75781v1.8594c0 0.20798 0.026674 0.36088 0.083984 0.45703 0.05916 0.09616 0.15595 0.14453 0.28906 0.14453 0.07395 1.2e-6 0.14634-0.00445 0.21289-0.015625 0.06841-0.013421 0.16441-0.030942 0.23828-0.048828v0.66992c-0.03694 0.017886-0.089657 0.040422-0.1543 0.060547-0.06232 0.020137-0.13725 0.037087-0.22266 0.052734-0.08312 0.01788-0.17508 0.031787-0.28125 0.042969-0.10618 0.011158-0.22496 0.015625-0.34961 0.015625-0.15928-3e-7 -0.07777-0.020577-0.20703-0.058594-0.12927-0.035778-0.2381-0.098602-0.32812-0.18359-0.090019-0.08721-0.16051-0.19562-0.20898-0.33203-0.048478-0.13866-0.072266-0.30849-0.072266-0.50977v-2.1543h-0.53125v-0.48633c0.15235 4.8e-6 0.28817-0.02779 0.4082-0.085938 0.12003-0.058135 0.2175-0.12904 0.28906-0.20508 0.14542-0.14758 0.1765-0.13892 0.24805-0.44531zm-4.0586 0.03125c-0.2063 3.7e-6 -0.3814 0.052938-0.52539 0.14648-0.14399 0.091323-0.26131 0.22221-0.35156 0.40039-0.090252 0.17595-0.15448 0.39035-0.19531 0.64648-0.040834 0.25615-0.0625 0.54952-0.0625 0.87695-1.7e-6 0.32742 0.021668 0.62081 0.0625 0.87695 0.040824 0.25615 0.10505 0.47222 0.19531 0.65039 0.090258 0.17595 0.20973 0.3088 0.35156 0.40234 0.14399 0.093544 0.31537 0.14453 0.51953 0.14453 0.2063 0 0.37963-0.050985 0.52148-0.14453 0.14399-0.09355 0.26345-0.22638 0.35156-0.40234 0.088109-0.17819 0.15077-0.39426 0.18945-0.65039 0.040828-0.25615 0.0625-0.54953 0.0625-0.87695-6.7e-6 -0.32742-0.021672-0.62079-0.0625-0.87695-0.038692-0.25612-0.10135-0.47052-0.18945-0.64648-0.088115-0.17817-0.20387-0.30907-0.3457-0.40039-0.14184-0.093544-0.31732-0.14647-0.52148-0.14648zm9.0156 1.127c0.044072-0.025437 0.93328 0.80519 0.98242 0.81836 0.049165 0.013167 1.2226-0.27259 1.248-0.22852 0.025438 0.044072-0.80519 0.93328-0.81836 0.98242-0.013167 0.049165 0.26283 1.2226 0.21875 1.248-0.044072 0.025437-0.92352-0.80714-0.97266-0.82031-0.049165-0.013167-1.2226 0.26478-1.248 0.2207-0.025436-0.044072 0.80519-0.92352 0.81836-0.97266 0.013166-0.049165-0.27258-1.2226-0.22852-1.248zm-0.37109 3.3066c0.064476-0.03721 1.3578 1.1819 1.4297 1.2012 0.071888 0.019245 1.7929-0.39846 1.8301-0.33398 0.037209 0.064476-1.1819 1.3578-1.2012 1.4297-0.019276 0.071887 0.38867 1.7928 0.32422 1.8301-0.064444 0.037241-1.348-1.1721-1.4199-1.1914-0.071888-0.019277-1.7928 0.38869-1.8301 0.32422-0.03724-0.064477 1.1721-1.3578 1.1914-1.4297 0.019276-0.071887-0.38869-1.7929-0.32422-1.8301zm-5.2129 3.002c0.099612-0.057492 2.0901 1.8198 2.2012 1.8496 0.11105 0.029768 2.7726-0.60547 2.8301-0.50586 0.057492 0.099612-1.8179 2.0921-1.8477 2.2031-0.029767 0.11105 0.59375 2.7726 0.49414 2.8301-0.099613 0.057492-2.0901-1.8198-2.2012-1.8496-0.11105-0.029767-2.7726 0.60547-2.8301 0.50586-0.057492-0.099613 1.8179-2.0901 1.8477-2.2012 0.029768-0.11105-0.59372-2.7745-0.49414-2.832z" style="fill-opacity:.75;fill:currentColor" class="ColorScheme-Text" />
	<path id="b" d="m5 1c-2.1987 0-4 1.8013-4 4v14c0 1.0907 0.9093 2 2 2h14c2.1987 0 4-1.8013 4-4v-14c0-1.0907-0.9093-2-2-2h-14zm0 1h14c0.554 0 1 0.446 1 1v14c0 1.662-1.338 3-3 3h-14c-0.554 0-1-0.446-1-1v-14c0-1.662 1.338-3 3-3zm9.3613 1.373c-0.02498 0.024982 0.38086 0.76546 0.38086 0.80078 0 0.035319-0.40584 0.77385-0.38086 0.79883 0.02498 0.024982 0.76546-0.37109 0.80078-0.37109 0.03531 0 0.7758 0.39607 0.80078 0.37109 0.02498-0.024982-0.37109-0.76351-0.37109-0.79883 0-0.035318 0.39607-0.7758 0.37109-0.80078-0.02498-0.024982-0.76546 0.37109-0.80078 0.37109-0.03532 0-0.7758-0.39607-0.80078-0.37109zm-8.0059 0.62695c-0.40627 5.5e-6 -0.76016 0.06612-1.0625 0.19531-0.30009 0.1268-0.5472 0.30462-0.74805 0.53906-0.19851 0.23446-0.34997 0.5171-0.44922 0.84961-0.099265 0.33016-0.15039 0.70268-0.15039 1.1094-4e-7 0.36125 0.041012 0.69426 0.11719 0.99805 0.078488 0.30383 0.19654 0.56919 0.35352 0.79883 0.15697 0.22967 0.35243 0.41764 0.58789 0.56836 0.23775 0.14833 0.51737 0.24859 0.83594 0.29883 0.023081 0.31102 0.090373 0.57522 0.20117 0.79297 0.1131 0.2201 0.24786 0.40031 0.41406 0.53906 0.1685 0.14115 0.36097 0.24595 0.56641 0.31055 0.20774 0.06459 0.41269 0.10225 0.625 0.097656h0.50977v-0.43164h-0.10938c-0.11773-7e-6 -0.23652-0.018372-0.34961-0.056641-0.11312-0.038283-0.21592-0.10655-0.31055-0.20703-0.092339-0.098095-0.17365-0.23357-0.23828-0.4082-0.064637-0.17226-0.10618-0.3957-0.12695-0.66602 0.27931-0.069386 0.52748-0.18086 0.74219-0.33398 0.21466-0.15551 0.39754-0.34347 0.54297-0.56836 0.14542-0.22489 0.2523-0.48393 0.32617-0.77344 0.076168-0.29189 0.11522-0.60858 0.11523-0.95312-4.3e-6 -0.4091-0.053983-0.77719-0.16016-1.1074-0.10388-0.33253-0.25584-0.61712-0.45898-0.85156-0.20314-0.23685-0.45609-0.4181-0.75391-0.54492-0.29549-0.12918-0.63636-0.1953-1.0195-0.19531zm4.0586 0.59766c-0.07155 0.30638-0.10263 0.29773-0.24805 0.44531-0.07156 0.076041-0.16903 0.14694-0.28906 0.20508-0.12003 0.058148-0.25584 0.085944-0.4082 0.085938v0.48633h0.53125v2.1543c0 0.20128 0.023796 0.3711 0.072266 0.50977 0.04847 0.13642 0.11896 0.24482 0.20898 0.33203 0.09002 0.084978 0.19886 0.14781 0.32812 0.18359 0.12927 0.038017 0.047751 0.058594 0.20703 0.058594 0.12464 0 0.24343-0.0044501 0.34961-0.015625 0.10618-0.011182 0.19814-0.025088 0.28125-0.042969 0.08541-0.015647 0.16033-0.032597 0.22266-0.052734 0.06464-0.020125 0.11736-0.04266 0.1543-0.060547v-0.66992c-0.07387 0.017886-0.16988 0.035407-0.23828 0.048828-0.066561 0.011188-0.13895 0.015631-0.21289 0.015625-0.13311 1.2e-6 -0.22991-0.048373-0.28906-0.14453-0.057307-0.096154-0.083984-0.24904-0.083984-0.45703v-1.8594h0.75781v-0.60547h-0.75781v-0.61719h-0.58398-0.001954zm-4.0586 0.03125c0.20416 4.1e-6 0.37963 0.052939 0.52148 0.14648 0.14184 0.091323 0.25758 0.22222 0.3457 0.40039 0.088109 0.17596 0.15076 0.39035 0.18945 0.64648 0.040828 0.25615 0.062494 0.54952 0.0625 0.87695-3.7e-6 0.32742-0.021672 0.62081-0.0625 0.87695-0.038686 0.25615-0.10134 0.47222-0.18945 0.65039-0.088115 0.17596-0.20758 0.3088-0.35156 0.40234-0.14184 0.09355-0.31517 0.14453-0.52148 0.14453-0.20416 0-0.37554-0.050985-0.51953-0.14453-0.14184-0.09355-0.2613-0.22639-0.35156-0.40234-0.090258-0.17819-0.15449-0.39426-0.19531-0.65039-0.040834-0.25615-0.0625-0.54953-0.0625-0.87695-1.4e-6 -0.32742 0.021668-0.62079 0.0625-0.87695 0.040829-0.25612 0.10506-0.47053 0.19531-0.64648 0.090258-0.17818 0.20758-0.30906 0.35156-0.40039 0.14399-0.093544 0.31908-0.14647 0.52539-0.14648zm9.0156 1.127c-0.04406 0.025437 0.24168 1.1989 0.22852 1.248-0.01317 0.04914-0.8438 0.92858-0.81836 0.97266 0.02543 0.044077 1.1989-0.23387 1.248-0.2207 0.04914 0.013169 0.92858 0.84575 0.97266 0.82031 0.04408-0.025435-0.23192-1.1989-0.21875-1.248 0.01317-0.04914 0.8438-0.93835 0.81836-0.98242-0.025439-0.044072-1.1989 0.24168-1.248 0.22852-0.04914-0.013167-0.93835-0.8438-0.98242-0.81836zm-0.37109 3.3066c-0.06447 0.037215 0.3435 1.7582 0.32422 1.8301-0.01926 0.0719-1.2286 1.3652-1.1914 1.4297 0.037241 0.06447 1.7582-0.3435 1.8301-0.32422 0.0719 0.01926 1.3555 1.2286 1.4199 1.1914 0.064451-0.03724-0.34349-1.7582-0.32422-1.8301 0.01926-0.0719 1.2384-1.3652 1.2012-1.4297-0.03721-0.064474-1.7582 0.35323-1.8301 0.33398-0.0719-0.01926-1.3652-1.2384-1.4297-1.2012zm-5.2129 3.002c-0.09958 0.05749 0.52391 2.721 0.49414 2.832-0.02976 0.11107-1.9051 2.1016-1.8477 2.2012 0.057492 0.09961 2.719-0.53563 2.8301-0.50586 0.11107 0.02977 2.1016 1.9071 2.2012 1.8496 0.09961-0.05749-0.52391-2.719-0.49414-2.8301 0.02976-0.11107 1.9051-2.1035 1.8477-2.2031-0.05749-0.09961-2.719 0.53563-2.8301 0.50586-0.11107-0.029759-2.1016-1.9071-2.2012-1.8496z" style="fill-opacity:.5;fill:currentColor" class="ColorScheme-Background" />
</svg>
