<?xml version="1.0" encoding="UTF-8"?>
<svg id="i" width="22" height="22" version="1.1" xmlns="http://www.w3.org/2000/svg" xmlns:cc="http://creativecommons.org/ns#" xmlns:dc="http://purl.org/dc/elements/1.1/" xmlns:rdf="http://www.w3.org/1999/02/22-rdf-syntax-ns#">
	<metadata id="a">
		<rdf:RDF>
			<cc:Work rdf:about="">
				<dc:format>image/svg+xml</dc:format>
				<dc:type rdf:resource="http://purl.org/dc/dcmitype/StillImage"/>
				<dc:title/>
			</cc:Work>
		</rdf:RDF>
	</metadata>
	<defs id="d">
		<style id="current-color-scheme" type="text/css">.ColorScheme-Text {color:#090d11;}.ColorScheme-Background{color:#ffffff;}</style>
	</defs>
	<path id="c" class="ColorScheme-Text" d="m5 2c-1.662 0-3 1.338-3 3v14c0 0.554 0.446 1 1 1h14c1.662 0 3-1.338 3-3v-14c0-0.554-0.446-1-1-1zm3.8349 4.0182c0.62412 9.6e-6 1.1794 0.10259 1.6607 0.30217 0.48499 0.19592 0.89444 0.47635 1.2254 0.84226 0.33086 0.36221 0.58026 0.79962 0.74946 1.3133 0.17294 0.51002 0.26171 1.0787 0.26171 1.7107-7e-6 0.53222-0.06389 1.0218-0.18796 1.4728-0.12031 0.44719-0.29609 0.84933-0.53295 1.1968-0.23687 0.34742-0.53544 0.6377-0.88508 0.87794-0.34968 0.23654-0.75373 0.40911-1.2087 0.5163 0.03383 0.41764 0.10172 0.76172 0.20699 1.0278 0.10528 0.26978 0.23742 0.47896 0.38782 0.6305 0.15414 0.15522 0.32255 0.25968 0.50678 0.31882 0.1842 0.05912 0.37688 0.08803 0.56864 0.08804h0.17844v0.66618h-0.83036c-0.3459-1e-6 -0.67995-0.05012-1.0183-0.1499-0.33461-0.0998-0.6463-0.26255-0.92077-0.48061-0.27069-0.21435-0.49148-0.49272-0.67571-0.83273-0.18046-0.3363-0.28837-0.74484-0.32596-1.2254-0.51888-0.077615-0.97606-0.23004-1.3633-0.45919-0.3835-0.23284-0.70079-0.52552-0.95646-0.88032-0.25568-0.3548-0.44795-0.76306-0.57578-1.2324-0.12407-0.46937-0.19034-0.98366-0.19034-1.5417 0-0.6283 0.081012-1.203 0.24268-1.713 0.16166-0.51372 0.40948-0.95114 0.7328-1.3133 0.32712-0.36217 0.72939-0.63685 1.2182-0.83273 0.49253-0.19957 1.0704-0.30216 1.7321-0.30217zm-9.855e-4 0.97248c-0.33602 5.7e-6 -0.6227 0.07921-0.85722 0.22372-0.23452 0.14108-0.42447 0.34495-0.57148 0.62021-0.147 0.27181-0.25246 0.6033-0.31896 0.99898-0.066509 0.39571-0.10189 0.84758-0.10189 1.3534-2.9e-6 0.50581 0.035383 0.9599 0.10189 1.3556 0.066493 0.39571 0.17195 0.73036 0.31896 1.0056 0.14701 0.27181 0.34046 0.4757 0.57148 0.6202 0.23452 0.14451 0.51583 0.22372 0.84836 0.22372 0.33602 0 0.61733-0.07921 0.84836-0.22372 0.23452-0.14452 0.42796-0.34838 0.57148-0.6202 0.14351-0.27528 0.2471-0.60992 0.31011-1.0056 0.0665-0.39571 0.10189-0.84979 0.10189-1.3556-1.1e-5 -0.50581-0.03539-0.95768-0.10189-1.3534-0.06302-0.39567-0.1666-0.72715-0.31011-0.99898-0.14352-0.27524-0.3316-0.47913-0.56261-0.62021-0.23103-0.14451-0.51583-0.22371-0.84836-0.22372zm5.8492 1e-7h1.3195v1.0211h1.233v1.0007h-1.233v3.0735c0 0.34373 0.04386 0.59531 0.1372 0.75422 0.09636 0.15892 0.25387 0.23792 0.47068 0.23792 0.12045 2e-6 0.23842-0.0077 0.34682-0.02617 0.11142-0.02218 0.2675-0.04895 0.38782-0.07851v1.1081c-0.06017 0.02956-0.14692 0.06429-0.2522 0.09755-0.10151 0.03328-0.22254 0.06216-0.36165 0.08802-0.13538 0.02955-0.28625 0.05289-0.45919 0.07137-0.17294 0.01844-0.36561 0.02617-0.56864 0.02617-0.25943 0-0.49371-0.03472-0.70425-0.09755-0.21055-0.05913-0.38633-0.16171-0.53295-0.30217-0.14662-0.14413-0.26366-0.32416-0.34261-0.5496-0.07896-0.22916-0.11658-0.50961-0.11658-0.84226v-3.5605h-0.86605v-0.80563c0.24815 8e-6 0.47068-0.04427 0.66618-0.14037 0.1955-0.096078 0.35454-0.21218 0.47109-0.33785 0.23686-0.2439 0.28825-0.23158 0.40479-0.73793z" style="fill-opacity:.75;fill:currentColor"/>
	<path id="b" class="ColorScheme-Background" d="m5 1c-2.1987 0-4 1.8013-4 4v14c0 1.0907 0.9093 2 2 2h14c2.1987 0 4-1.8013 4-4v-14c0-1.0907-0.9093-2-2-2zm0 1h14c0.554 0 1 0.446 1 1v14c0 1.662-1.338 3-3 3h-14c-0.554 0-1-0.446-1-1v-14c0-1.662 1.338-3 3-3zm3.8349 4.0182c-0.66172 8.4e-6 -1.2396 0.10259-1.7321 0.30217-0.48878 0.19589-0.89106 0.47056-1.2182 0.83273-0.32333 0.3622-0.57114 0.79962-0.7328 1.3133-0.16168 0.51004-0.24268 1.0848-0.24268 1.713-7e-7 0.55808 0.066265 1.0724 0.19034 1.5417 0.12784 0.46937 0.32009 0.87764 0.57578 1.2324 0.25567 0.3548 0.57296 0.64747 0.95646 0.88032 0.38724 0.22915 0.84442 0.38158 1.3633 0.45919 0.037594 0.48047 0.1455 0.88901 0.32596 1.2254 0.18422 0.34002 0.40502 0.61838 0.67571 0.83273 0.27445 0.21805 0.58615 0.38081 0.92077 0.4806 0.33836 0.09978 0.67249 0.15698 1.0183 0.1499h0.83035v-0.66619h-0.17844c-0.19175-1.2e-5 -0.38444-0.02892-0.56864-0.08804-0.18424-0.05914-0.35265-0.1636-0.50678-0.31882-0.1504-0.15154-0.28254-0.36072-0.38782-0.6305-0.10528-0.26611-0.17316-0.6102-0.20699-1.0278 0.45493-0.10719 0.85898-0.27975 1.2087-0.5163 0.34964-0.24024 0.64821-0.53051 0.88508-0.87794 0.23686-0.34742 0.41264-0.74956 0.53295-1.1968 0.12406-0.45092 0.18795-0.94054 0.18796-1.4728-7e-6 -0.63199-0.08878-1.2006-0.26171-1.7107-0.16919-0.51371-0.4186-0.95113-0.74946-1.3133-0.33087-0.36589-0.74032-0.64634-1.2254-0.84226-0.48128-0.19957-1.0366-0.30216-1.6607-0.30217zm-9.855e-4 0.97248c0.33253 6.3e-6 0.61733 0.079212 0.84836 0.22372 0.23102 0.14108 0.41909 0.34496 0.56261 0.62021 0.14351 0.27183 0.24709 0.6033 0.31011 0.99898 0.0665 0.39571 0.10188 0.84758 0.10189 1.3534-6e-6 0.50581-0.03539 0.9599-0.10189 1.3556-0.06301 0.39571-0.16659 0.73035-0.31011 1.0056-0.14352 0.27183-0.33696 0.4757-0.57148 0.6202-0.23103 0.14452-0.51234 0.22372-0.84836 0.22372-0.33253 0-0.61384-0.07921-0.84836-0.22372-0.23102-0.14452-0.42446-0.34839-0.57148-0.6202-0.14701-0.27527-0.25247-0.60992-0.31896-1.0056-0.066509-0.39571-0.10189-0.84979-0.10189-1.3556-2.2e-6 -0.50581 0.035383-0.95768 0.10189-1.3534 0.066502-0.39567 0.17196-0.72717 0.31896-0.99898 0.14701-0.27526 0.33696-0.47912 0.57148-0.62021 0.23452-0.14451 0.5212-0.22371 0.85722-0.22372zm5.8492 1e-7c-0.11654 0.50635-0.16792 0.49403-0.40479 0.73793-0.11656 0.12567-0.27559 0.24177-0.47109 0.33785-0.1955 0.0961-0.41803 0.14038-0.66618 0.14037v0.80563h0.86605v3.5605c0 0.33265 0.03762 0.61309 0.11658 0.84226 0.07895 0.22545 0.19599 0.40547 0.34261 0.5496 0.14662 0.14044 0.3224 0.24304 0.53295 0.30217 0.21055 0.06283 0.44482 0.09755 0.70425 0.09755 0.20302 0 0.39569-0.0077 0.56864-0.02617 0.17294-0.01848 0.32382-0.04182 0.45919-0.07137 0.13912-0.02586 0.26013-0.05476 0.36165-0.08804 0.10528-0.03326 0.19203-0.06799 0.2522-0.09755v-1.1081c-0.12032 0.02956-0.2764 0.05633-0.38782 0.07851-0.10841 0.01849-0.22638 0.02618-0.34682 0.02617-0.21681 2e-6 -0.37433-0.079-0.47068-0.23792-0.09334-0.15891-0.1372-0.41048-0.1372-0.75422v-3.0735h1.233v-1.0007h-1.233v-1.0211h-1.3195z" style="fill-opacity:.5;fill:currentColor"/>
</svg>
