<?xml version="1.0" encoding="UTF-8"?>
<!-- Created with Inkscape (http://www.inkscape.org/) -->
<svg width="22" height="22" version="1.1" xmlns="http://www.w3.org/2000/svg" xmlns:cc="http://creativecommons.org/ns#" xmlns:dc="http://purl.org/dc/elements/1.1/" xmlns:rdf="http://www.w3.org/1999/02/22-rdf-syntax-ns#">
	<metadata>
		<rdf:RDF>
			<cc:Work rdf:about="">
				<dc:format>image/svg+xml</dc:format>
				<dc:type rdf:resource="http://purl.org/dc/dcmitype/StillImage"/>
			</cc:Work>
		</rdf:RDF>
	</metadata>
	<defs>
		<style id="current-color-scheme" type="text/css">.ColorScheme-Text {
				color:#090d11;
			}
			.ColorScheme-Background{
				color:#ffffff;
			}</style>
	</defs>
	<path class="ColorScheme-Background" d="m11.451 1c-1.2552-3.549e-4 -2.5108 0.00215-3.7676 0.00781-0.0013-2.5e-6 -0.0026-2.5e-6 -0.00391 0-0.45104 0.00324-0.91706 0.045456-1.3848 0.14844-0.56537 0.12371-1.1285 0.3387-1.6484 0.67188v-0.00195c-0.3838 0.24534-0.77639 0.53743-1.1309 0.92578-0.49454 0.53837-0.89096 1.1657-1.1543 1.877-0.17806 0.48094-0.2681 0.95386-0.32422 1.3945-0.1098 0.8415 0.042112 1.6222 0.25195 2.3105 0.15157 0.49832 0.375 0.96704 0.6543 1.3965 0.40166 0.61814 0.90877 1.1988 1.5742 1.6445 0.32218 0.21637 0.6353 0.39355 0.92383 0.56055 0.034321 0.02002 0.061919 0.03539 0.095703 0.05469-0.22635 0.047-0.4072 0.01011-0.64648 0.11524-0.36974 0.16186-0.76679 0.3622-1.1465 0.66602-0.65471 0.52334-1.1488 1.2135-1.4375 1.998-0.18175 0.49431-0.31172 1.0544-0.28906 1.6641 0.01127 0.31198 0.056594 0.59194 0.10156 0.83789v2e-3c0.037059 0.19923 0.082115 0.4664 0.20898 0.77344v2e-3c0.21611 0.52629 0.52044 1.0365 0.9375 1.4844 6.482e-4 0.0013 0.0013 0.0026 0.00195 0.0039 0.6121 0.65186 1.3934 1.1106 2.2617 1.3164 0.00134 3.22e-4 0.00257-3.21e-4 0.00391 0 0.443 0.10623 0.8762 0.13849 1.2793 0.13867 2.5058 0.0085 5.0122 0.01036 7.5195 2e-3h2e-3c0.79901-0.0033 1.6201-0.14096 2.4082-0.5v2e-3c0.52609-0.23911 1.0127-0.55829 1.4453-0.95508h2e-3c0.44017-0.40531 0.82928-0.88333 1.123-1.4395v-2e-3c0.16944-0.32265 0.30496-0.65606 0.41211-0.99023l2e-3 -0.0059c0.11353-0.34723 0.15952-0.66852 0.19531-0.94336 0.03296-0.2531 0.08432-0.57932 0.05859-0.97461v-4e-3c-0.03836-0.5666-0.13887-1.1472-0.34766-1.7227-6.48e-4 -0.0013-0.0013-0.0026-2e-3 -0.0039-0.18817-0.51263-0.4376-1.01-0.76758-1.4688l-2e-3 -2e-3c-0.42452-0.59155-0.95913-1.134-1.6406-1.5312h-2e-3c-0.23104-0.13484-0.47325-0.27657-0.71094-0.41602 0.10577-0.02746 0.1613 0.01202 0.27148-0.0293l2e-3 -2e-3c0.32908-0.12424 0.68288-0.26822 1.0371-0.4707l2e-3 -2e-3c0.51751-0.29791 0.97358-0.71676 1.3066-1.2402v-0.00195c0.19077-0.30204 0.39212-0.63901 0.55655-1.0253 0.18449-0.43418 0.19053-0.74303 0.2207-0.86914v-0.00195c0.22486-0.90971 0.01252-1.7356-0.21484-2.3887-0.20618-0.59409-0.54637-1.0914-0.92383-1.5078-0.61657-0.67865-1.4047-1.1258-2.248-1.3438h-2e-3c-0.45435-0.11696-0.89391-0.14639-1.2988-0.14648-1.2557-0.00425-2.5104-0.00746-3.7656-0.00781zm0 1c1.2542 3.54e-4 2.5087 0.00357 3.7637 0.00781 0.35177 0 0.71213 0.027574 1.0527 0.11523 0.67842 0.17532 1.2748 0.51525 1.7578 1.0469 0.31268 0.34499 0.56994 0.72859 0.7207 1.1641 0.2038 0.58535 0.34384 1.1917 0.1875 1.8223-0.05863 0.24036-0.07695 0.49536-0.17188 0.71875-0.13122 0.30823-0.29984 0.59808-0.47852 0.88086-0.24289 0.38175-0.57287 0.68676-0.96094 0.91016-0.28198 0.16118-0.58743 0.28836-0.89453 0.4043-0.50532 0.18946-1.0368 0.14278-1.5645 0.14844-0.4802 0.0056-0.96316-8.94e-4 -1.4434 2e-3 -0.04746 0-0.09512 0.0349-0.14258 0.05469 0.03629 0.0509 0.05716 0.12016 0.10742 0.14844 0.3769 0.22057 0.76094 0.43636 1.1406 0.64844 0.3071 0.16967 0.62147 0.33054 0.92578 0.50586 0.42436 0.24036 0.84406 0.49226 1.2656 0.73828 0.53882 0.31388 0.97104 0.74578 1.334 1.252 0.27081 0.37609 0.48065 0.78934 0.64258 1.2305 0.1703 0.46941 0.25556 0.95631 0.28906 1.4512 0.01675 0.25733-0.01922 0.52392-0.05273 0.78125s-0.07529 0.51961-0.15625 0.76562c-0.09213 0.28843-0.20611 0.57013-0.3457 0.83594-0.23451 0.44396-0.54749 0.83254-0.91602 1.1719-0.35456 0.3252-0.74807 0.58135-1.1836 0.7793-0.63933 0.29126-1.3085 0.40733-1.998 0.41016-2.5043 0.0085-5.0094 0.0065-7.5137-2e-3 -0.35177 0-0.71213-0.02932-1.0527-0.11133-0.684-0.16113-1.279-0.50898-1.7676-1.0293-0.32385-0.34781-0.56351-0.74812-0.74219-1.1836-0.07538-0.18098-0.1141-0.38301-0.15039-0.57812-0.041878-0.22905-0.077561-0.45953-0.085937-0.69141-0.01675-0.44396 0.077756-0.87513 0.22852-1.2852 0.22893-0.62211 0.6046-1.1477 1.1211-1.5605 0.27918-0.22339 0.59634-0.38703 0.92578-0.53125 0.46344-0.2036 0.94781-0.22892 1.4336-0.24023 0.61141-0.01414 1.2256-2e-3 1.8398-2e-3 0.053043-0.0029 0.10962-0.0089 0.17383-0.01172-0.022336-0.20916-0.18827-0.23287-0.30273-0.30073-0.37969-0.22339-0.76707-0.43548-1.1523-0.65039l-0.62695-0.34766c-0.23731-0.13291-0.47754-0.25988-0.71484-0.39844-0.29314-0.16967-0.58717-0.33593-0.86914-0.52539-0.52766-0.35347-0.94399-0.82405-1.293-1.3613-0.23172-0.3563-0.41232-0.73821-0.53516-1.1426-0.18705-0.61363-0.3025-1.2468-0.21875-1.8887 0.050253-0.39589 0.1291-0.7912 0.27148-1.1758 0.21776-0.58818 0.5391-1.0964 0.95508-1.5488 0.2736-0.29974 0.59104-0.54007 0.93164-0.75781 0.4104-0.26298 0.85798-0.43531 1.3242-0.53711 0.38527-0.084833 0.78409-0.12217 1.1777-0.125 1.2549-0.00566 2.5094-0.00817 3.7637-0.00781zm1.9785 1.0801c-2.0297 0.019588-4.1887-0.020856-6.0469 0.019531-0.3769 0.00848-0.76458 0.11036-1.1191 0.24609-0.41598 0.15835-0.78384 0.41181-1.1133 0.72852-0.56395 0.53728-0.89947 1.1942-1.0391 1.9492-0.10051 0.53728-0.04027 1.0773 0.11328 1.5977 0.11447 0.38741 0.29423 0.7466 0.51758 1.0859 0.41319 0.62777 0.99711 1.0372 1.6309 1.3906 0.3071 0.17249 0.61868 0.33727 0.92578 0.50977 0.3769 0.21208 0.75201 0.42659 1.1289 0.63867 0.36573 0.20643 0.73081 0.40968 1.0937 0.61328 0.27081 0.14987 0.54169 0.30238 0.8125 0.45508 0.08097 0.04524 0.11383 0.0051 0.125-0.06836 0.0084-0.05656 0.0098-0.11249 0.0098-0.17188v-1.6621c0-0.56273 0.0029-1.1287 0-1.6914 0-0.18663 0.04622-0.36176 0.21094-0.45508 0.09771-0.056555 0.2304-0.080078 0.34766-0.080078 1.4043-0.00565 2.8106-0.0048 4.2148-0.00195 0.55278 0 1.07-0.12516 1.5391-0.42773 0.64491-0.41851 1.0128-1.0252 1.1328-1.7773 0.09493-0.58818-0.02743-1.1566-0.3457-1.6543-0.49695-0.77764-1.2182-1.2174-2.1367-1.2344-0.66725-0.011311-1.3347-0.011177-2.002-0.00977zm2e-3 0.99805c0.66421-0.00131 1.3257 6.051e-4 1.9824 0.011719 0.6102 0.011272 0.95789 0.21963 1.3105 0.77148 0.19502 0.30495 0.25833 0.60286 0.20117 0.95703v0.00195c-0.0829 0.51939-0.26947 0.82367-0.6875 1.0957-0.29295 0.18898-0.59336 0.26758-0.99609 0.26758-1.405-0.00285-2.8124-0.00371-4.2188 0.00195-0.24393 1.797e-4 -0.5097 0.024906-0.83984 0.21484-0.55493 0.31889-0.71484 0.96559-0.71484 1.3203-6e-6 0.00195-6e-6 0.00391 0 0.00586 0.0029 0.55584 0 1.1194 0 1.6855v0.27148c-0.18368-0.10271-0.36827-0.20555-0.55083-0.30859-0.37175-0.20918-0.74686-0.42564-1.1289-0.64062-0.32382-0.18188-0.63735-0.34471-0.92773-0.50781l-0.00195-2e-3c-0.57448-0.32027-0.99582-0.63465-1.2813-1.0683-0.17986-0.27327-0.31066-0.5411-0.39258-0.81836-0.12087-0.40956-0.15649-0.78503-0.091797-1.1309v-0.00195c0.10642-0.57558 0.33329-1.013 0.74609-1.4062 6.538e-4 -0.0013 0.0013-0.0026 0.00195-0.00391 0.25379-0.24398 0.51077-0.41415 0.77734-0.51562h0.00195c0.28296-0.10832 0.57275-0.17491 0.78516-0.17969 1.3227-0.03051 2.6625-0.012774 4.0215-0.015625h2e-3c0.67082-8.2e-6 1.3377-0.00455 2.002-0.00586zm-1.8398 5.5977c-0.03439 0.01037-0.04607 0.05814-0.05078 0.15039-0.0029 0.05656-0.0039 0.11532-0.0039 0.17188v3.2383c0 0.41851-0.15712 0.57617-0.57031 0.57617-1.3289 0.0029-2.6594-0.0026-3.9883 0.0059-0.29314 0.0029-0.58967 0.04049-0.88281 0.08008-0.46065 0.06221-0.85192 0.27987-1.1953 0.59375-0.47461 0.4383-0.75331 0.98027-0.82031 1.625-0.03071 0.30823-0.0101 0.61452 0.082031 0.91992 0.1033 0.34782 0.25656 0.66213 0.48828 0.93359 0.53603 0.62494 1.2113 0.94141 2.0293 0.94141 1.301 0.0029 2.5963 1e-6 3.8945 0 1.2591 0 2.5182-0.0065 3.7773 2e-3 0.52766 0.0029 1.0209-0.1089 1.5039-0.3125 0.5137-0.21774 0.93841-0.56129 1.293-0.98828 0.25406-0.3054 0.45361-0.64667 0.58203-1.0312 0.11726-0.35064 0.20592-0.699 0.20312-1.0723-0.0029-0.29126 0.0047-0.57855-0.0957-0.86133-0.0726-0.2036-0.09399-0.42988-0.17774-0.625-0.10888-0.25167-0.24824-0.49078-0.39062-0.72266-0.36014-0.5882-0.89112-0.9797-1.4746-1.3105-0.29593-0.16684-0.59274-0.32926-0.88867-0.49609-0.28756-0.16118-0.56791-0.331-0.85547-0.49219-0.31268-0.17249-0.62872-0.33532-0.94141-0.50781-0.46344-0.25733-0.92439-0.52002-1.3906-0.77734-0.0342-0.01909-0.06147-0.03301-0.08398-0.03906-0.01688-0.0045-0.03151-0.0054-0.04297-2e-3zm0.94531 1.6426c0.02918 0.01626 0.05668 0.03258 0.08594 0.04883 0.0013 6.54e-4 0.0026 0.0013 0.0039 2e-3 0.32704 0.18041 0.64112 0.34519 0.93945 0.50976 0.26794 0.15035 0.5483 0.3183 0.85156 0.48828 0.30351 0.17108 0.59996 0.33247 0.88672 0.49414 0.51176 0.29064 0.8766 0.57953 1.1113 0.96289 0.13501 0.21987 0.24797 0.41801 0.32422 0.59375-0.0013-0.0031 0.02673 0.20318 0.15625 0.56641 0.02261 0.06455 0.03396 0.21925 0.03711 0.53516 0.0013 0.20866-0.04997 0.43996-0.15234 0.74609-0.08695 0.26038-0.21763 0.48929-0.40039 0.70898h-2e-3c-0.27177 0.32729-0.56279 0.55701-0.91211 0.70508-0.37951 0.15974-0.72878 0.23647-1.1094 0.23437-1.2607-0.0085-2.5153-2e-3 -3.7656-2e-3h-0.01758c-1.2997 1e-6 -2.5946 0.0029-3.8926 0h-0.00195c-0.55885 0-0.89598-0.15715-1.2695-0.5918l-0.00195-2e-3c-0.12542-0.14749-0.21632-0.32147-0.28906-0.56641v-4e-3c-0.050184-0.16635-0.063068-0.32952-0.042969-0.53125 0.04397-0.41442 0.18891-0.69848 0.50195-0.98828 0.23333-0.21271 0.42485-0.30912 0.65234-0.33984 0.28443-0.03841 0.53824-0.0679 0.75391-0.07031 1.3204-0.0084 2.6505-3e-3 3.9824-0.0059 0.33434 0 0.79502-0.0658 1.1523-0.42773 0.35733-0.36193 0.41797-0.81466 0.41797-1.1484z" style="fill-opacity:.5;fill:currentColor"/>
	<path class="ColorScheme-Text" d="m11.451 2c-1.2542-3.54e-4 -2.5087 0.00216-3.7637 0.00781-0.39365 0.00283-0.79246 0.040167-1.1777 0.125-0.46624 0.1018-0.91382 0.27413-1.3242 0.53711-0.3406 0.21774-0.65804 0.45807-0.93164 0.75781-0.41598 0.45244-0.73732 0.96065-0.95508 1.5488-0.14238 0.38458-0.22123 0.77989-0.27148 1.1758-0.083755 0.6419 0.031697 1.275 0.21875 1.8887 0.12284 0.40437 0.30343 0.78628 0.53516 1.1426 0.34898 0.53728 0.76531 1.0079 1.293 1.3613 0.28198 0.18946 0.576 0.35572 0.86914 0.52539 0.23731 0.13856 0.47754 0.26553 0.71484 0.39844l0.62695 0.34766c0.38527 0.21491 0.77265 0.427 1.1523 0.65039 0.11446 0.06787 0.2804 0.09153 0.30273 0.30078-0.064213 0.0028-0.12079 0.0088-0.17383 0.01172-0.6142 0-1.2284-0.01219-1.8398 2e-3 -0.48578 0.01131-0.97015 0.03663-1.4336 0.24023-0.32944 0.14422-0.6466 0.30786-0.92578 0.53125-0.51649 0.41286-0.89216 0.93844-1.1211 1.5605-0.15076 0.41003-0.24527 0.8412-0.22852 1.2852 0.00838 0.23188 0.04406 0.46236 0.085937 0.69141 0.036294 0.19512 0.075011 0.39715 0.15039 0.57812 0.17868 0.43548 0.41834 0.83578 0.74219 1.1836 0.48857 0.52031 1.0836 0.86817 1.7676 1.0293 0.3406 0.08201 0.70096 0.11133 1.0527 0.11133 2.5043 0.0085 5.0094 0.01045 7.5137 2e-3 0.68958-0.0028 1.3587-0.1189 1.998-0.41016 0.43552-0.19794 0.82903-0.4541 1.1836-0.7793 0.36852-0.33933 0.6815-0.72791 0.91602-1.1719 0.13959-0.26581 0.25357-0.5475 0.3457-0.83594 0.08096-0.24602 0.12274-0.5083 0.15625-0.76562 0.03351-0.25733 0.06948-0.52392 0.05273-0.78125-0.0335-0.49486-0.11876-0.98176-0.28906-1.4512-0.16193-0.44113-0.37177-0.85438-0.64258-1.2305-0.36294-0.50617-0.79516-0.93807-1.334-1.252-0.42157-0.24602-0.84127-0.49792-1.2656-0.73828-0.30431-0.17532-0.61868-0.33619-0.92578-0.50586-0.37969-0.21208-0.76373-0.42787-1.1406-0.64844-0.05026-0.02828-0.07113-0.09754-0.10742-0.14844 0.04745-0.01979 0.09512-0.05469 0.14258-0.05469 0.4802-0.0028 0.96316 0.0036 1.4434-2e-3 0.52766-0.0057 1.0591 0.04102 1.5645-0.14844 0.30711-0.11598 0.61256-0.24316 0.89454-0.40434 0.38806-0.22339 0.71805-0.52841 0.96094-0.91016 0.17868-0.28278 0.3473-0.57263 0.47852-0.88086 0.09492-0.22339 0.11324-0.47839 0.17188-0.71875 0.15634-0.63059 0.0163-1.2369-0.1875-1.8223-0.15076-0.43548-0.40802-0.81907-0.7207-1.1641-0.48299-0.53162-1.0794-0.87155-1.7578-1.0469-0.3406-0.087661-0.70096-0.11523-1.0527-0.11523-1.2549-0.00424-2.5094-0.00746-3.7637-0.00781zm1.9785 1.0801c0.66725-0.00142 1.3347-0.00155 2.002 0.00977 0.91851 0.016967 1.6398 0.45674 2.1367 1.2344 0.31828 0.49769 0.44063 1.0661 0.3457 1.6543-0.12005 0.75219-0.4879 1.3588-1.1328 1.7773-0.46903 0.30257-0.98628 0.42773-1.5391 0.42773-1.4043-0.00285-2.8106-0.0037-4.2148 0.00195-0.11726 0-0.24995 0.023523-0.34766 0.080078-0.16472 0.093317-0.21094 0.26844-0.21094 0.45508 0.0029 0.56273 0 1.1287 0 1.6914v1.6621c0 0.05938-0.0014 0.11532-0.0098 0.17188-0.01117 0.07346-0.04403 0.1136-0.125 0.06836-0.27081-0.1527-0.54169-0.3052-0.8125-0.45508-0.3629-0.2036-0.72799-0.40686-1.0937-0.61328-0.3769-0.21208-0.75201-0.42659-1.1289-0.63867-0.3071-0.17249-0.61868-0.33727-0.92578-0.50977-0.63375-0.35347-1.2177-0.76286-1.6309-1.3906-0.22335-0.33933-0.40311-0.69853-0.51758-1.0859-0.15355-0.52031-0.21379-1.0604-0.11328-1.5977 0.13959-0.75502 0.47511-1.4119 1.0391-1.9492 0.32944-0.31671 0.6973-0.57016 1.1133-0.72852 0.35456-0.13573 0.74224-0.23761 1.1191-0.24609 1.3485-0.031105 2.6965-0.012775 4.0449-0.015625 0.66725 0 1.3347-0.00249 2.002-0.00391zm-1.7949 6.5977c0.02251 0.0061 0.04978 0.01998 0.08398 0.03906 0.46624 0.25733 0.92718 0.52002 1.3906 0.77734 0.31269 0.1725 0.62872 0.33532 0.94141 0.50781 0.28756 0.16118 0.56791 0.331 0.85547 0.49219 0.29593 0.16684 0.59274 0.32925 0.88867 0.49609 0.58349 0.33085 1.1145 0.72235 1.4746 1.3105 0.14238 0.23188 0.28174 0.47099 0.39062 0.72266 0.08375 0.19512 0.10514 0.4214 0.17774 0.625 0.10043 0.28278 0.0928 0.57007 0.0957 0.86133 0.0028 0.37327-0.08587 0.72162-0.20312 1.0723-0.12842 0.38458-0.32797 0.72585-0.58203 1.0312-0.35456 0.42699-0.77927 0.77054-1.293 0.98828-0.48299 0.2036-0.97625 0.3154-1.5039 0.3125-1.2591-0.0085-2.5182-2e-3 -3.7773-2e-3 -1.2982 1e-6 -2.5935 0.0029-3.8945 0-0.81801 0-1.4933-0.31647-2.0293-0.94141-0.23172-0.27147-0.38498-0.58578-0.48828-0.93359-0.092131-0.3054-0.11274-0.61169-0.082031-0.91992 0.067004-0.64473 0.3457-1.1867 0.82031-1.625 0.3434-0.31388 0.73466-0.53154 1.1953-0.59375 0.29314-0.03959 0.58967-0.07718 0.88281-0.08008 1.3289-0.0085 2.6594-3e-3 3.9883-0.0059 0.41319 0 0.57031-0.15766 0.57031-0.57617v-3.2383c0-0.05656 1e-3 -0.11532 0.0039-0.17188 0.0063-0.12301 0.02622-0.1666 0.09375-0.14844z" style="fill-opacity:.75;fill:currentColor"/>
</svg>
