<?xml version="1.0" encoding="UTF-8"?>
<!-- Created with Inkscape (http://www.inkscape.org/) -->
<svg width="22" height="22" version="1.1" xmlns="http://www.w3.org/2000/svg" xmlns:cc="http://creativecommons.org/ns#" xmlns:dc="http://purl.org/dc/elements/1.1/" xmlns:rdf="http://www.w3.org/1999/02/22-rdf-syntax-ns#">
	<defs>
		<style id="current-color-scheme" type="text/css">.ColorScheme-Text {
			color:#090d11;
			}
			.ColorScheme-Background{
			color:#ffffff;
			}</style>
	</defs>
	<metadata>
		<rdf:RDF>
			<cc:Work rdf:about="">
				<dc:format>image/svg+xml</dc:format>
				<dc:type rdf:resource="http://purl.org/dc/dcmitype/StillImage"/>
			</cc:Work>
		</rdf:RDF>
	</metadata>
	<path class="ColorScheme-Text" d="m11.125 0.998c-2.697-0.035609-5.2939 1.0186-7.2031 2.9238-1.8994 1.905-2.9529 4.4937-2.9219 7.1836 2.6153 0.02808 5.1161 1.0796 6.9668 2.9277 1.8409 1.8539 2.8853 4.3543 2.9082 6.9668 2.6966 0.03634 5.2934-1.0176 7.2031-2.9219 1.9042-1.9097 2.9582-4.5065 2.9219-7.2031-2.6125-0.02288-5.1129-1.0673-6.9668-2.9082-1.8416-1.8545-2.886-4.3552-2.9082-6.9688zm2.0098 1.2949c-0.20084 0.026426-0.36589 0.17142-0.41797 0.36719-0.07205 0.26702 0.08634 0.54181 0.35352 0.61328 2.7615 0.73994 4.9163 2.8947 5.6562 5.6562 0.07147 0.26717 0.34627 0.42557 0.61328 0.35352 0.26717-0.07147 0.42557-0.34627 0.35352-0.61328-0.832-3.1051-3.2582-5.5313-6.3633-6.3633-0.06357-0.017384-0.12994-0.02203-0.19531-0.013672zm-10.279 10.41c-0.065369-0.0084-0.13175-0.0037-0.19531 0.01367-0.26717 0.07147-0.42557 0.34626-0.35352 0.61328 0.832 3.1051 3.2582 5.5313 6.3633 6.3633 0.26702 0.07205 0.54181-0.08634 0.61328-0.35352 0.07205-0.26702-0.08634-0.54181-0.35352-0.61328-2.7615-0.73994-4.9163-2.8947-5.6562-5.6562-0.052077-0.19576-0.21713-0.34076-0.41797-0.36719z" style="fill-opacity:.75;fill:currentColor"/>
</svg>
