<?xml version="1.0" encoding="UTF-8"?>
<svg id="a" width="22" height="22" version="1.1" xmlns="http://www.w3.org/2000/svg" xmlns:cc="http://creativecommons.org/ns#" xmlns:dc="http://purl.org/dc/elements/1.1/" xmlns:rdf="http://www.w3.org/1999/02/22-rdf-syntax-ns#">
	<metadata id="d">
		<rdf:RDF>
			<cc:Work rdf:about="">
				<dc:format>image/svg+xml</dc:format>
				<dc:type rdf:resource="http://purl.org/dc/dcmitype/StillImage"/>
				<dc:title/>
			</cc:Work>
		</rdf:RDF>
	</metadata>
	<defs id="c">
		<style id="current-color-scheme" type="text/css">.ColorScheme-Text {color:#090d11;}.ColorScheme-Background{color:#ffffff;}</style>
	</defs>
	<path id="e" class="ColorScheme-Text" d="m11 3-5 5h10zm-7 6v2h5v4h-3l5 5 5-5h-3v-4h5v-2z" style="fill-opacity:.75;fill:currentColor"/>
	<path id="b" class="ColorScheme-Background" d="m11 1.56-0.71875 0.46875-5 5-0.71875 0.96875h-1.5625v1h1v2h4v3h-4.4062l1.6875 1.9375 5 5 0.71875 0.46875 0.71875-0.46875 5-5 1.6875-1.9375h-4.4062v-3h4v-2h1v-1h-1.5625l-0.71875-0.96875-5-5zm0 1.4375 5 5h-10zm-7 6h14v2h-5v4h3l-5 5-5-5h3v-4h-5z" style="fill-opacity:.5;fill:currentColor"/>
</svg>
