<?xml version="1.0" encoding="UTF-8"?>
<!-- Created with Inkscape (http://www.inkscape.org/) -->
<svg width="22" height="22" version="1.1" xmlns="http://www.w3.org/2000/svg" xmlns:cc="http://creativecommons.org/ns#" xmlns:dc="http://purl.org/dc/elements/1.1/" xmlns:rdf="http://www.w3.org/1999/02/22-rdf-syntax-ns#">
	<defs>
		<style id="current-color-scheme" type="text/css">.ColorScheme-Text {color:#090d11;}.ColorScheme-Background{color:#ffffff;}</style>
	</defs>
	<metadata>
		<rdf:RDF>
			<cc:Work rdf:about="">
				<dc:format>image/svg+xml</dc:format>
				<dc:type rdf:resource="http://purl.org/dc/dcmitype/StillImage"/>
			</cc:Work>
		</rdf:RDF>
	</metadata>
	<path class="ColorScheme-Text" d="m11 2c-4.9646 0-9 4.0354-9 9s4.0354 9 9 9 9-4.0354 9-9-4.0354-9-9-9zm0 1c4.4242 0 8 3.5758 8 8s-3.5758 8-8 8-8-3.5758-8-8 3.5758-8 8-8zm2.5859 3.7109c-0.25715 0-0.51422 0.096252-0.70703 0.28906l-1.7129 1.7129c-0.3338-0.086482-0.70534-0.00169-0.96289 0.25586l-3.7461 3.7461c-0.38562 0.38562-0.38562 1.0284 0 1.4141l1.4141 1.4141c0.38562 0.38562 1.0284 0.38562 1.4141 0l3.7461-3.7461c0.25755-0.25755 0.34234-0.62909 0.25586-0.96289l1.7129-1.7129c0.38562-0.38562 0.38562-1.0284 0-1.4141l-0.70703-0.70703c-0.19281-0.19281-0.44988-0.28906-0.70703-0.28906zm0 0.99609 0.70703 0.70703-1.6152 1.6152-0.70703-0.70703z" style="fill-opacity:.75;fill:currentColor"/>
	<path class="ColorScheme-Background" d="m11 1c-5.5169 0-10 4.4831-10 10s4.4831 10 10 10 10-4.4831 10-10-4.4831-10-10-10zm0 1c0.31029 0 0.61765 0.016107 0.91992 0.046875h2e-3c0.15048 0.01535 0.29906 0.033947 0.44727 0.056641h2e-3c0.29691 0.045271 0.5904 0.10622 0.87695 0.17969 0.0012 3.138e-4 0.0027-3.143e-4 0.0039 0 0.14246 0.036782 0.28223 0.077589 0.42188 0.12109 2.8224 0.87514 5.0467 3.0995 5.9219 5.9219 0.04335 0.1398 0.08446 0.27923 0.12109 0.42188 3.15e-4 0.00122-3.14e-4 0.00269 0 0.00391 0.07347 0.28656 0.13442 0.58005 0.17969 0.87695v2e-3c0.0226 0.14846 0.04136 0.2965 0.05664 0.44727 0.03081 0.30285 0.04679 0.61087 0.04679 0.92182 0 0.31029-0.01611 0.61765-0.04687 0.91992v2e-3c-0.01535 0.15048-0.03395 0.29906-0.05664 0.44727v2e-3c-0.04527 0.29691-0.10622 0.5904-0.17969 0.87695-3.14e-4 0.0012 3.14e-4 0.0027 0 0.0039-0.03678 0.14246-0.07759 0.28223-0.12109 0.42188-0.87514 2.8224-3.0995 5.0467-5.9219 5.9219-0.14084 0.04388-0.28208 0.08406-0.42578 0.12109-0.28656 0.07347-0.58005 0.13442-0.87695 0.17969-0.44715 0.06848-0.905 0.10343-1.3711 0.10343-0.31095 0-0.61898-0.01598-0.92188-0.04687-0.15077-0.01528-0.2988-0.03404-0.44727-0.05664h-2e-3c-0.29691-0.04527-0.5904-0.10622-0.87695-0.17969-0.00122-3.14e-4 -0.00269 3.15e-4 -0.00391 0-0.14264-0.03664-0.28207-0.07775-0.42188-0.12109-2.8223-0.87515-5.0467-3.0995-5.9218-5.9219-0.043505-0.13965-0.084312-0.27942-0.12109-0.42188-3.143e-4 -0.0012 3.138e-4 -0.0027 0-0.0039-0.073468-0.28656-0.13442-0.58005-0.17969-0.87695v-2e-3c-0.022694-0.14821-0.041291-0.29679-0.056641-0.44727v-2e-3c-0.030768-0.30218-0.046875-0.60954-0.046875-0.91983 0-0.15552 0.00395-0.30933 0.011719-0.46289 0.00782-0.15389 0.019674-0.30721 0.035156-0.45898 0.015276-0.15077 0.034037-0.2988 0.056641-0.44727v-2e-3c0.045271-0.29691 0.10622-0.5904 0.17969-0.87695 3.144e-4 -0.00122-3.148e-4 -0.00269 0-0.00391 0.036636-0.14259 0.077744-0.28202 0.12109-0.42182 0.87514-2.8224 3.0995-5.0467 5.9219-5.9219 0.141-0.043721 0.28189-0.084202 0.42578-0.12109 0.28656-0.073468 0.58005-0.13442 0.87695-0.17969 0.29818-0.045464 0.60108-0.076267 0.9082-0.091797 0.15324-0.00779 0.30775-0.011719 0.46289-0.011719zm2.6094 3.3086c-0.25715 0-0.51422 0.096252-0.70703 0.28906l-2.2188 2.2207c-0.31758-0.061854-0.66027 0.027455-0.90234 0.26953l-4.7383 4.7363c-0.38562 0.38562-0.38562 1.0284 0 1.4141l2.7734 2.7734c0.38562 0.38562 1.0284 0.38562 1.4141 0l4.7383-4.7363c0.25763-0.25763 0.34052-0.63096 0.25391-0.96484l2.1973-2.1973c0.38562-0.38562 0.38562-1.0284 0-1.4141l-2.1016-2.1016c-0.19281-0.19281-0.45184-0.28906-0.70898-0.28906zm0 0.99609 2.1035 2.1016-0.70508 0.70508c-0.0029 3e-3 -0.0048 0.0068-0.0078 0.0098l-1.3867 1.3848-0.32617 0.32812c0.08648 0.3338 0.0017 0.70534-0.25586 0.96289l-0.95312 0.95508h-2e-3l-3.5527 3.5527-2.7734-2.7734 0.49414-0.49414c0.048179-0.11747 0.11864-0.22801 0.21289-0.32226l3.7461-3.7461c0.25755-0.25755 0.62909-0.34234 0.96289-0.25586l1.7129-1.7129c0.05186-0.051857 0.11002-0.094919 0.16992-0.13281zm-0.03516 1.4219-0.61328 0.60547-0.99024 0.99023 0.70703 0.70703 0.22852-0.22852-0.0039-0.0059 0.76367-0.75391 0.60742-0.60742z" style="fill-opacity:.5;fill:currentColor"/>
</svg>
