<?xml version="1.0" encoding="UTF-8"?>
<svg id="c" width="22" height="22" version="1.1" xmlns="http://www.w3.org/2000/svg" xmlns:cc="http://creativecommons.org/ns#" xmlns:dc="http://purl.org/dc/elements/1.1/" xmlns:rdf="http://www.w3.org/1999/02/22-rdf-syntax-ns#">
	<metadata id="a">
		<rdf:RDF>
			<cc:Work rdf:about="">
				<dc:format>image/svg+xml</dc:format>
				<dc:type rdf:resource="http://purl.org/dc/dcmitype/StillImage"/>
				<dc:title/>
			</cc:Work>
		</rdf:RDF>
	</metadata>
	<defs id="e">
		<style id="current-color-scheme" type="text/css">.ColorScheme-Text {color:#090d11;}.ColorScheme-Background{color:#ffffff;}</style>
	</defs>
	<path id="b" class="ColorScheme-Text" d="m2 2 6.3 18h5.4l0.25312-0.73125c-0.49878-0.22487-0.84375-0.7262-0.84375-1.3078 0-0.51662 0.27886-0.95754 0.68906-1.2094-0.05733 7e-3 -0.10954 0.01406-0.16875 0.01406-0.79081 0-1.4344-0.6295-1.4344-1.4203 0-0.79081 0.64357-1.4344 1.4344-1.4344 0.10981 0 0.20666 0.01879 0.30938 0.04219-0.12427-0.21213-0.19688-0.45359-0.19688-0.71719 0-0.79081 0.64357-1.4344 1.4344-1.4344 0.26664 0 0.51749 0.06995 0.73125 0.19688-0.0042-0.03858-0.01406-0.0728-0.01406-0.1125 0-0.57855 0.45387-1.0596 1.0266-1.0828l3.0797-8.8031h-5.4l-3.6 10.28-3.6-10.28z" style="fill-opacity:.75;fill:currentColor"/>
	<path id="d" class="ColorScheme-Background" d="m0.5898 1 0.4668 1.3301 6.5332 18.67h6.8223l0.78516-2.2676-0.83398-0.375c-0.1486-0.06699-0.25391-0.21023-0.25391-0.39648 0-0.15678 0.07398-0.27214 0.21289-0.35742l-0.64453-1.8438c-0.06512 8e-3 -0.06911 0.0059-0.04883 0.0059-0.26013 0-0.43359-0.17165-0.43359-0.41992s0.1853-0.43555 0.43359-0.43555c-0.0043 0 0.0049-0.0013 0.08789 0.01758l2.2539 0.51367-1.168-1.9941c-0.04286-0.07317-0.06055-0.13097-0.06055-0.21094 0-0.24827 0.1853-0.43555 0.43359-0.43555 0.09174 0 0.16359 0.02272 0.2207 0.05664l1.7227 1.0234-0.2168-1.9902c-0.0016-0.01481-8.08e-4 -0.01-2e-3 -0.02148 0.0071-0.04081 0.03005-0.06516 0.06055-0.06641l0.67969-0.02734 3.7695-10.775h-7.5195l-2.8906 8.2559-2.8906-8.2559h-7.5195zm1.4102 1h5.4004l3.5996 10.279 3.5996-10.279h5.4004l-3.0801 8.8027c-0.5727 0.02324-1.0254 0.50544-1.0254 1.084 0 0.0397 0.0095 0.07275 0.01367 0.11133-0.21376-0.12693-0.46579-0.19727-0.73242-0.19727-0.79084 0-1.4336 0.64474-1.4336 1.4355 0 0.2636 0.07299 0.50466 0.19726 0.7168-0.10272-0.0234-0.20074-0.04297-0.31055-0.04297-0.79084 0-1.4336 0.64474-1.4336 1.4355 0 0.79082 0.64278 1.4199 1.4336 1.4199 0.05921 0 0.11259-0.0067 0.16992-0.01367-0.4102 0.25184-0.68945 0.69236-0.68945 1.209 0 0.58164 0.34497 1.0837 0.84375 1.3086l-0.25391 0.73047h-5.3984l-6.3008-18z" style="fill-opacity:.5;fill:currentColor"/>
</svg>
