<?xml version="1.0" encoding="UTF-8"?>
<svg id="d" width="22" height="22" version="1.1" xmlns="http://www.w3.org/2000/svg" xmlns:cc="http://creativecommons.org/ns#" xmlns:dc="http://purl.org/dc/elements/1.1/" xmlns:rdf="http://www.w3.org/1999/02/22-rdf-syntax-ns#">
	<metadata id="a">
		<rdf:RDF>
			<cc:Work rdf:about="">
				<dc:format>image/svg+xml</dc:format>
				<dc:type rdf:resource="http://purl.org/dc/dcmitype/StillImage"/>
				<dc:title/>
			</cc:Work>
		</rdf:RDF>
	</metadata>
	<defs id="e">
		<style id="current-color-scheme" type="text/css">.ColorScheme-Text {color:#090d11;}.ColorScheme-Background{color:#ffffff;}</style>
	</defs>
	<path id="c" class="ColorScheme-Text" d="m2 1v1h1v-1zm0 3v1h1v-1zm7 0v13h2v-13zm-7 3v1h1v-1zm11 0v10h2v-10zm-8 2v8h2v-8zm-3 1v1h1v-1zm15 2v5h2v-5zm-15 1v1h1v-1zm0 3v1h1v-1zm0 3v1h1v-1zm3 0v1h1v-1zm3 0v1h1v-1zm3 0v1h1v-1zm3 0v1h1v-1zm3 0v1h1v-1zm3 0v1h1v-1z" style="fill-opacity:.75;fill:currentColor"/>
	<path id="b" class="ColorScheme-Background" d="m1 2v1h1v-1zm0 3v1h1v-1zm6 0v14h2v-14zm-6 3v1h1v-1zm10 0v11h2v-11zm-8 2v9h2v-9zm-2 1v1h1v-1zm14 1v7h2v-7zm-14 2v1h1v-1zm18 0v5h2v-5zm-18 3v1h1v-1zm0 3v1h1v-1zm3 0v1h1v-1zm3 0v1h1v-1zm3 0v1h1v-1zm3 0v1h1v-1zm3 0v1h1v-1zm3 0v1h1v-1z" style="fill-opacity:.5;fill:currentColor"/>
</svg>
