<?xml version="1.0" encoding="UTF-8"?>
<!-- Created with Inkscape (http://www.inkscape.org/) -->
<svg width="24" height="24" version="1.1" xmlns="http://www.w3.org/2000/svg" xmlns:cc="http://creativecommons.org/ns#" xmlns:dc="http://purl.org/dc/elements/1.1/" xmlns:rdf="http://www.w3.org/1999/02/22-rdf-syntax-ns#">
	<metadata>
		<rdf:RDF>
			<cc:Work rdf:about="">
				<dc:format>image/svg+xml</dc:format>
				<dc:type rdf:resource="http://purl.org/dc/dcmitype/StillImage"/>
			</cc:Work>
		</rdf:RDF>
	</metadata>
	<defs>
		<style id="current-color-scheme" type="text/css">.ColorScheme-Background{color:#ffffff;}
			.ColorScheme-Text{color:#090d11;}</style>
	</defs>
	<path class="ColorScheme-Text" d="m5.3083 4c-1.6345-0.022678-2.7951 1.6951-2.1055 3.1614 0.036918 0.078513 2.015 3.541 2.2794 3.9899 0.034235 0.05811 0.082466 0.14376 0.10702 0.19084 0.024552 0.04711 0.067981 0.12414 0.097204 0.17123 0.073742 0.11882 0.077326 0.1247 1.1317 1.9521 0.51796 0.89773 0.96993 1.68 1.0042 1.7381 0.034235 0.05809 0.082493 0.14376 0.10701 0.19084 0.024526 0.04711 0.076323 0.13698 0.11593 0.19976 0.039611 0.06278 0.085435 0.13983 0.10166 0.17123 0.016234 0.0314 0.058236 0.10424 0.092747 0.16231 0.034509 0.05806 0.24221 0.4154 0.46195 0.7937s0.42722 0.73564 0.46106 0.7937c0.033843 0.05806 0.080107 0.13734 0.10256 0.17658 0.022448 0.03925 0.070496 0.12271 0.10701 0.18549s0.084564 0.14626 0.10701 0.18549c0.022446 0.03924 0.068713 0.1185 0.10256 0.17657 0.033843 0.05807 0.15688 0.26997 0.27378 0.47087 0.72137 1.2397 1.362 1.6003 2.5514 1.4349 0.42663-0.05933 0.84037-0.27432 1.1763-0.61088 0.23605-0.23651 0.35297-0.40973 0.77051-1.1379 0.1244-0.21696 0.24675-0.42885 0.272-0.47087 0.02525-0.04203 0.07341-0.12485 0.107-0.18371 0.03363-0.05886 0.08911-0.15517 0.12307-0.21403s0.08009-0.13912 0.10256-0.17836c0.02246-0.03925 0.06872-0.11913 0.10256-0.17747 0.03385-0.05834 0.56237-0.97344 1.1745-2.0333 0.61213-1.0598 1.1386-1.9709 1.17-2.0253 1.2469-2.1581 2.1801-3.7764 2.2197-3.8481 0.02798-0.050713 0.07936-0.13991 0.11415-0.19887 0.27302-0.46278 0.95699-1.6545 1.0175-1.7729 0.51813-1.0131 0.18198-2.3013-0.75891-2.9099-1.9322-1.2499-4.2582 0.77761-3.2854 2.8636 1.1944 2.561-0.41117 5.2067-3.1596 5.2063-1.5625-2.27e-4 -2.4032-0.55619-3.3674-2.225-0.031397-0.054329-0.49937-0.86616-1.0398-1.8041-1.1275-1.9567-1.4494-2.5137-1.5259-2.6415-0.029896-0.049967-0.068968-0.11665-0.086504-0.14804-0.6655-1.1913-1.1844-1.5862-2.1466-1.632-0.026178-0.00123-0.052535-0.0023-0.078479-0.00267z" style="fill-opacity:.75;fill:currentColor"/>
</svg>
