<?xml version="1.0" encoding="UTF-8"?>
<!-- Created with Inkscape (http://www.inkscape.org/) -->
<svg width="22" height="22" version="1.1" xmlns="http://www.w3.org/2000/svg" xmlns:cc="http://creativecommons.org/ns#" xmlns:dc="http://purl.org/dc/elements/1.1/" xmlns:rdf="http://www.w3.org/1999/02/22-rdf-syntax-ns#">
	<defs>
		<style id="current-color-scheme" type="text/css">.ColorScheme-Text {color:#090d11;}.ColorScheme-Background{color:#ffffff;}</style>
	</defs>
	<metadata>
		<rdf:RDF>
			<cc:Work rdf:about="">
				<dc:format>image/svg+xml</dc:format>
				<dc:type rdf:resource="http://purl.org/dc/dcmitype/StillImage"/>
			</cc:Work>
		</rdf:RDF>
	</metadata>
	<path class="ColorScheme-Text" d="m4 6c-0.554 0-1 0.446-1 1v11c0 0.554 0.446 1 1 1h11c0.554 0 1-0.446 1-1v-2h-2v1h-9v-9h9v6h2v-7c0-0.554-0.446-1-1-1z" style="fill-opacity:.3;fill:currentColor"/>
	<path id="i" class="ColorScheme-Text" d="m7 3c-0.554 0-1.0911 0.45354-1 1v2h2v-1h9v9h-9v-6h-2v7c0 0.554 0.446 1 1 1h11c0.554 0 1-0.446 1-1v-11c0-0.554-0.446-1-1-1z" style="fill-opacity:.75;fill:currentColor"/>
</svg>
