<?xml version="1.0" encoding="UTF-8"?>
<!-- Created with Inkscape (http://www.inkscape.org/) -->
<svg width="22" height="22" version="1.1" xmlns="http://www.w3.org/2000/svg" xmlns:cc="http://creativecommons.org/ns#" xmlns:dc="http://purl.org/dc/elements/1.1/" xmlns:rdf="http://www.w3.org/1999/02/22-rdf-syntax-ns#">
	<defs>
		<style id="current-color-scheme" type="text/css">.ColorScheme-Text {color:#090d11;}.ColorScheme-Background{color:#ffffff;}</style>
	</defs>
	<metadata>
		<rdf:RDF>
			<cc:Work rdf:about="">
				<dc:format>image/svg+xml</dc:format>
				<dc:type rdf:resource="http://purl.org/dc/dcmitype/StillImage"/>
			</cc:Work>
		</rdf:RDF>
	</metadata>
	<path id="d" class="ColorScheme-Text" d="m2.0508 1.9922v8.4141c0 0.31676 0.11342 0.81236 0.25391 1.1035l0.97266 2.0176h2.6445c0.023682-0.21236 1.1621-1.6777 1.1621-1.6777h0.75586l1.1836 1.6777h2.6543l0.94531-2.0176c0.13692-0.29241 0.25028-0.78534 0.25391-1.1035l0.09766-8.4141h-1.8223l-0.26367 8.7148-0.89063 1.7891-1.1602-1.7891-0.09375-8.7148h-2.5371v8.7148l-1.3047 1.7891-0.90234-1.7891v-8.7148zm12.627 0v1.4746h3.2246l-3.3828 8.5938v1.4668h5.4551v-1.5586h-3.1602l3.2324-8.502v-1.4746zm-2.3809 12.799v2e-3c-0.27109 0-0.5152 0.04192-0.73438 0.125-0.21919 0.08308-0.3906 0.19712-0.51172 0.34375-0.12112 0.14662-0.19885 0.32063-0.23633 0.52344-0.03747 0.20282-0.05859 0.47235-0.05859 0.80469v1.7676c0 0.3128 0.01813 0.55208 0.05274 0.7207 0.03461 0.16861 0.12738 0.33579 0.27734 0.50195 0.14996 0.16615 0.32548 0.28366 0.52734 0.34961 0.20188 0.06598 0.46205 0.09766 0.7793 0.09766 0.53061 0 0.92798-0.14914 1.1934-0.44727 0.1788-0.20039 0.28364-0.44409 0.3125-0.73242 0.0058-0.05865 0.0078-0.24873 0.0078-0.56641v-1.6914c0-0.33234-0.01019-0.58334-0.0332-0.75195-0.02306-0.16862-0.09363-0.32897-0.20898-0.48047-0.12117-0.17596-0.30164-0.31584-0.54102-0.41602-0.23938-0.10018-0.51469-0.15039-0.82617-0.15039zm4.2812 0v2e-3c-0.27108 0-0.5152 0.04192-0.73438 0.125-0.21919 0.08308-0.3906 0.19712-0.51172 0.34375-0.12112 0.14662-0.19882 0.32062-0.23633 0.52344-0.03749 0.20282-0.05469 0.47235-0.05469 0.80469v1.7676c0 0.3128 0.01617 0.55208 0.05078 0.7207 0.0346 0.16861 0.12738 0.33579 0.27734 0.50195 0.14996 0.16615 0.32547 0.28366 0.52734 0.34961 0.20188 0.06598 0.46205 0.09766 0.7793 0.09766 0.53061 0 0.92602-0.14914 1.1914-0.44727 0.1788-0.20039 0.2838-0.44409 0.3125-0.73242 0.0056-0.05865 0.0078-0.24873 0.0078-0.56641v-1.6914c0-0.33234-0.01019-0.58334-0.0332-0.75195-0.02305-0.16862-0.09168-0.32897-0.20703-0.48047-0.12112-0.17594-0.30358-0.31584-0.54297-0.41602-0.23938-0.10018-0.51469-0.15039-0.82617-0.15039zm-12.234 2e-3c-0.40376 0-0.7305 0.09067-0.97852 0.27148-0.24802 0.18083-0.39935 0.44402-0.45703 0.79102-0.017292 0.09773-0.028296 0.19229-0.03125 0.28516-0.00292 0.09285-0.00391 0.18739-0.00391 0.28516v0.17188h1.2109v-0.4707c0.00766-0.17579 0.02213-0.31437 0.0625-0.41211 0.040373-0.09777 0.11706-0.14453 0.23242-0.14453 0.20188 0 0.30273 0.12964 0.30273 0.38867 0 0.1222-0.020174 0.24062-0.060547 0.35547-0.040372 0.11486-0.13519 0.30738-0.28516 0.57617-0.23072 0.39099-0.43642 0.72528-0.61523 1.0039-0.14997 0.23952-0.43238 0.6781-0.84766 1.3184v0.71875h2.9434v-0.86333h-1.4648c0.27685-0.39098 0.55313-0.78283 0.82422-1.1738 0.27109-0.39098 0.45876-0.70778 0.56836-0.94726 0.13267-0.29323 0.20117-0.573 0.20117-0.8418-2e-7 -0.46432-0.19967-0.82394-0.59766-1.0781-0.13843-0.08311-0.28772-0.14303-0.44922-0.17969-0.16151-0.03661-0.34704-0.054687-0.55469-0.054687zm3.9492 0.0957c-0.20188 0.21504-0.40758 0.38368-0.61523 0.50586-0.24225 0.14172-0.52864 0.24211-0.85742 0.30078v0.58594h0.2168c0.25379 0 0.42622 0.03751 0.51562 0.11328 0.089408 0.07575 0.13679 0.20397 0.13477 0.38477v3.1523h1.4805v-5.041zm4.0469 0.68164c0.10382 0 0.16937 0.03804 0.19531 0.11133 0.02595 0.07332 0.03906 0.19125 0.03906 0.35742v2.6328c0 0.23457-0.01304 0.39104-0.03906 0.4668-0.02596 0.07572-0.09354 0.11133-0.20312 0.11133-0.1442 0-0.22683-0.08381-0.24414-0.25v-3.0195c0-0.13196 0.02111-0.23382 0.05859-0.30469 0.03748-0.07088 0.10106-0.10547 0.19336-0.10547zm4.2812 0c0.10381 0 0.17122 0.03804 0.19726 0.11133 0.02586 0.07332 0.03711 0.19125 0.03711 0.35742v2.6328c0 0.23457-0.01108 0.39104-0.03711 0.4668-0.02596 0.07572-0.09548 0.11133-0.20508 0.11133-0.14421 0-0.22308-0.08381-0.24023-0.25v-3.0195c0-0.13196 0.01718-0.23382 0.05469-0.30469 0.03749-0.07088 0.1011-0.10547 0.19336-0.10547z" style="fill-opacity:.75;fill:currentColor"/>
	<path id="c" class="ColorScheme-Background" d="m1.0508 0.99219v9.4141c0 0.55614 0.11163 1.0378 0.35352 1.5391l1.2305 2.5488c-0.34022 0.33535-0.63474 0.74024-0.71094 1.1953l-0.00195 2e-3c-0.02382 0.13702-0.040422 0.27649-0.044922 0.41797-0.0031 0.09859-0.00586 0.20377-0.00586 0.31641v1.1719h0.85156c-0.15758 0.24768-0.34909 0.54554-0.68945 1.0703l-0.16211 0.24805v2.0156h8.2969v-1.0137c0.06881 0.10436 0.09435 0.24181 0.17578 0.33203 0.25348 0.28083 0.59017 0.5084 0.95898 0.62891 0.35439 0.11583 0.70613 0.14648 1.0898 0.14648 0.7159 0 1.4542-0.23401 1.9395-0.7793 0.07468-0.08369 0.07001-0.20994 0.13086-0.30469 0.06497 0.09608 0.08838 0.22473 0.16406 0.30859 0.25722 0.28498 0.5925 0.50916 0.95898 0.62891 0.35203 0.11506 0.70613 0.14648 1.0898 0.14648 0.71528 0 1.4522-0.23505 1.9375-0.7793 0.31838-0.35682 0.51547-0.82636 0.5625-1.2988v-0.0059c0.02272-0.23793 0.01172-0.33807 0.01172-0.66016v-1.6914c0-0.3525-0.0054-0.62551-0.04102-0.88672-0.04704-0.34416-0.1975-0.66265-0.39258-0.92578-0.08079-0.11457-0.21756-0.15636-0.31836-0.25h2.5371v-3.5586h-2.709l2.7832-7.3184v-2.6582h-10.865l-0.28516 9.4648-0.013672 0.025391-0.048828-0.076172-0.10156-9.4141h-4.5254v9.3887l-0.14844 0.20312-0.058594-0.11523v-9.4766zm1 1h1.9492v8.7148l0.90234 1.7891 1.3047-1.7891v-8.7148h2.5371l0.09375 8.7148 1.1602 1.7891 0.89258-1.7891 0.26172-8.7148h1.8223l-0.09766 8.4141c-0.0036 0.31818-0.11698 0.81112-0.25391 1.1035l-0.94531 2.0176h-2.6543l-1.1836-1.6777h-0.75586s-1.1384 1.4654-1.1621 1.6777h-2.6445l-0.97266-2.0176c-0.14049-0.29116-0.25391-0.78678-0.25391-1.1035zm12.627 0h5.3691v1.4746l-3.2324 8.502h3.1582v1.5586h-5.4531v-1.4668l3.3828-8.5938h-3.2246zm-0.73242 2.4746h2.4883l-2.8555 7.2578c0.17044-0.42216 0.29347-0.83732 0.29883-1.3066zm-9.6016 10.324c0.20764 0 0.39318 0.02004 0.55469 0.05664 0.1615 0.03666 0.31079 0.09658 0.44922 0.17969 0.39799 0.25414 0.59766 0.61382 0.59766 1.0781 0 0.26879-0.068508 0.54856-0.20117 0.8418-0.1096 0.23948-0.29727 0.55433-0.56836 0.94531-0.27109 0.39099-0.54737 0.78478-0.82422 1.1758h1.4648v0.86328h-2.9453v-0.71875c0.41528-0.64025 0.69964-1.0808 0.84961-1.3203 0.17881-0.27858 0.38451-0.61292 0.61523-1.0039 0.14997-0.26879 0.24478-0.45936 0.28516-0.57422 0.040373-0.11484 0.060547-0.23327 0.060547-0.35547 0-0.25903-0.10086-0.38867-0.30273-0.38867-0.11536 0-0.19205 0.04676-0.23242 0.14453-0.04037 0.09775-0.05484 0.23632-0.0625 0.41211v0.4707h-1.2129v-0.17188c0-0.09777 0.00294-0.19231 0.00586-0.28516 0.00295-0.09287 0.013958-0.18743 0.03125-0.28516 0.057676-0.347 0.20901-0.61019 0.45703-0.79102 0.24802-0.18081 0.57475-0.27344 0.97852-0.27344zm7.9531 0c0.31148 0 0.5868 0.05021 0.82617 0.15039 0.23938 0.10018 0.41984 0.24006 0.54102 0.41602 0.11535 0.1515 0.18592 0.31184 0.20898 0.48047 0.02301 0.16861 0.0332 0.41961 0.0332 0.75195v1.6914c0 0.31768-2e-3 0.50776-0.0078 0.56641-0.02886 0.28834-0.1337 0.53204-0.3125 0.73242-0.26533 0.29813-0.66271 0.44531-1.1934 0.44531-0.31724 0-0.57742-0.02972-0.7793-0.0957-0.20186-0.06596-0.37738-0.18346-0.52734-0.34961-0.14996-0.16616-0.24273-0.33334-0.27734-0.50195s-0.05274-0.40791-0.05274-0.7207v-1.7676c0-0.33234 0.02112-0.60187 0.05859-0.80469 0.03749-0.20281 0.11521-0.37682 0.23633-0.52344 0.12112-0.14663 0.29253-0.26262 0.51172-0.3457 0.21918-0.08308 0.46328-0.125 0.73438-0.125zm4.2812 0c0.31148 0 0.58679 0.05021 0.82617 0.15039 0.23939 0.10018 0.42185 0.24007 0.54297 0.41602 0.11534 0.1515 0.18398 0.31184 0.20703 0.48047 0.02301 0.16861 0.0332 0.41961 0.0332 0.75195v1.6914c0 0.31768-0.0022 0.50776-0.0078 0.56641-0.0287 0.28834-0.1337 0.53204-0.3125 0.73242-0.26534 0.29813-0.6608 0.44531-1.1914 0.44531-0.31724 0-0.57742-0.02972-0.7793-0.0957-0.20188-0.06596-0.37738-0.18346-0.52734-0.34961-0.14997-0.16616-0.24274-0.33334-0.27734-0.50195-0.03461-0.16861-0.05078-0.40791-0.05078-0.7207v-1.7676c0-0.33234 0.0172-0.60187 0.05469-0.80469 0.0375-0.20282 0.11521-0.37682 0.23633-0.52344 0.12112-0.14663 0.29253-0.26262 0.51172-0.3457 0.21916-0.08308 0.46328-0.125 0.73438-0.125zm-8.2852 0.09766h0.875v5.043h-1.4805v-3.1523c0.00202-0.1808-0.045354-0.30902-0.13477-0.38477-0.089399-0.07577-0.26184-0.11328-0.51562-0.11328h-0.2168v-0.58594c0.32878-0.05868 0.61517-0.15906 0.85742-0.30078 0.20764-0.12219 0.41336-0.29082 0.61523-0.50586zm4.0469 0.68164c-0.0923 0-0.15588 0.03459-0.19336 0.10547-0.03748 0.07087-0.05859 0.17273-0.05859 0.30469v3.0195c0.01731 0.16618 0.09994 0.25 0.24414 0.25 0.1096 0 0.17716-0.03756 0.20312-0.11328 0.02602-0.07576 0.03906-0.23027 0.03906-0.46484v-2.6328c0-0.16616-0.01311-0.28606-0.03906-0.35937-0.02594-0.07329-0.09149-0.10938-0.19531-0.10938zm4.2812 0c-0.09226 0-0.15587 0.03459-0.19336 0.10547-0.03751 0.07087-0.05469 0.17273-0.05469 0.30469v3.0195c0.01716 0.16618 0.09602 0.25 0.24023 0.25 0.1096 0 0.17912-0.03756 0.20508-0.11328 0.02603-0.07576 0.03711-0.23027 0.03711-0.46484v-2.6328c0-0.16616-0.01125-0.28606-0.03711-0.35937-0.02605-0.07329-0.09347-0.10938-0.19726-0.10938z" style="fill-opacity:.5;fill:currentColor"/>
</svg>
