<?xml version="1.0" encoding="UTF-8"?>
<svg id="a" width="22" height="22" version="1.1" xmlns="http://www.w3.org/2000/svg" xmlns:cc="http://creativecommons.org/ns#" xmlns:dc="http://purl.org/dc/elements/1.1/" xmlns:rdf="http://www.w3.org/1999/02/22-rdf-syntax-ns#">
	<metadata id="c">
		<rdf:RDF>
			<cc:Work rdf:about="">
				<dc:format>image/svg+xml</dc:format>
				<dc:type rdf:resource="http://purl.org/dc/dcmitype/StillImage"/>
				<dc:title/>
			</cc:Work>
		</rdf:RDF>
	</metadata>
	<defs>
		<style id="current-color-scheme" type="text/css">.ColorScheme-Text {color:#090d11;}.ColorScheme-Background{color:#ffffff;}</style>
	</defs>
	<path id="b" class="ColorScheme-Text" d="m14.598 3.0234-2.0664 1.9766h5.4688v10.969l2.8125-1.668-1.875-3.5098 1.875-1.9551-2.2227-5.4648zm-6.6426 0.027344-4.2852 1.7676 1.3301 7.9062v-7.7246h6.084l1.3379-1.2793-1.7617 0.9375zm-1.9551 2.9492v11h11v-11zm8.0078 1.9414c0.53264-0.00223 1.0504 0.17621 1.4688 0.50586l-0.45703 0.67383c-0.29069-0.22716-0.64358-0.36095-1.0117-0.38477-0.31301 0-0.50586 0.14464-0.50586 0.36133 0 0.26485 0.16958 0.36074 0.84375 0.5293 0.79455 0.21669 1.252 0.5049 1.252 1.2031 0 0.79455-0.60262 1.252-1.4453 1.252-0.61856-0.02274-1.2119-0.25186-1.6855-0.65039l0.50586-0.625c0.36115 0.28892 0.72222 0.48047 1.1797 0.48047 0.36115 0 0.57812-0.14398 0.57812-0.38476 0-0.21669-0.14484-0.33731-0.79492-0.50586-0.79455-0.21669-1.2988-0.43201-1.2988-1.2266v-0.02539c0-0.72232 0.57657-1.2031 1.3711-1.2031zm-6.9316 0.072266h0.9375l0.60156 2.3105 0.67578-2.3105h0.67383l0.67383 2.3105 0.60156-2.3105h0.93945l-1.1562 3.9961h-0.74609l-0.65039-2.3105-0.65039 2.3105h-0.74609zm0.92383 5.9863h4v1h-4zm-2.1133 4 0.085937 0.50586 6.6719 1.1699-1.2324-0.85352-1.1855-0.82227zm6.0957 0 1.1953 0.82812 1.3965-0.82812zm3.8125 0.43945-2.3281 1.3809 1.9883 0.34766z" style="fill-opacity:.75;fill:currentColor"/>
	<path id="r" class="ColorScheme-Background" d="m14.584 2.0234a1.0001 1.0001 0 0 0 -0.67773 0.27734l-0.76172 0.72852a1.0001 1.0001 0 0 0 -1.1934 -0.19141l-1.2637 0.67383-2.2207-1.3203a1.0001 1.0001 0 0 0 -0.89258 -0.064453l-4.2852 1.7676a1.0001 1.0001 0 0 0 -0.60547 1.0898l1.3301 7.9062a1.0001 1.0001 0 0 0 0.98633 0.83203v3.2773a1.0001 1.0001 0 0 0 0.085938 0.4043 1.0001 1.0001 0 0 0 -0.18555 0.76367l0.085938 0.50586a1.0001 1.0001 0 0 0 0.81445 0.81641l6.6719 1.1699a1.0001 1.0001 0 0 0 0.42383 -0.01758 1.0001 1.0001 0 0 0 0.39844 0.16211l1.9883 0.34766a1.0001 1.0001 0 0 0 1.1523 -0.79102l0.33984-1.7285a1.0001 1.0001 0 0 0 -0.08398 -0.63281h0.30859a1.0001 1.0001 0 0 0 1 -1v-0.03125a1.0001 1.0001 0 0 0 0.50977 -0.14062l2.8125-1.668a1.0001 1.0001 0 0 0 0.37305 -1.3301l-1.5332-2.8711 1.373-1.4316a1.0001 1.0001 0 0 0 0.20312 -1.0684l-2.2227-5.4648a1.0001 1.0001 0 0 0 -0.83984 -0.61914l-3.9922-0.34766a1.0001 1.0001 0 0 0 -0.09961 -0.00391zm0.01367 1 3.9922 0.34766 2.2227 5.4648-1.875 1.9551 1.875 3.5098-2.8125 1.668v-10.969h-5.4688l2.0664-1.9766zm-6.6426 0.027344 2.7051 1.6074 1.7617-0.9375-1.3379 1.2793h-6.084v7.7246l-1.3301-7.9062zm-1.9551 2.9492h11v11h-11zm8.0078 1.9414c-0.79452 4e-7 -1.3711 0.4808-1.3711 1.2031v0.02539c0 0.79455 0.50428 1.0099 1.2988 1.2266 0.65009 0.16855 0.79492 0.28917 0.79492 0.50586 0 0.24078-0.21698 0.38476-0.57812 0.38476-0.45747 0-0.81854-0.19155-1.1797-0.48047l-0.50586 0.625c0.47362 0.39853 1.067 0.62765 1.6855 0.65039 0.84269 0 1.4453-0.4574 1.4453-1.252 0-0.69823-0.4574-0.98643-1.252-1.2031-0.67417-0.16855-0.84375-0.26445-0.84375-0.5293 0-0.21668 0.19285-0.36133 0.50586-0.36133 0.36814 0.02382 0.72103 0.15761 1.0117 0.38477l0.45703-0.67383c-0.41839-0.32965-0.93611-0.50809-1.4688-0.50586zm-6.9316 0.072266 1.1543 3.9961h0.74609l0.65039-2.3105 0.65039 2.3105h0.74609l1.1562-3.9961h-0.93945l-0.60156 2.3105-0.67383-2.3105h-0.67383l-0.67578 2.3105-0.60156-2.3105h-0.9375zm0.92383 5.9863v1h4v-1zm-2.1133 4h4.3398l1.1855 0.82227 1.2324 0.85352-6.6719-1.1699-0.085937-0.50586zm6.0957 0h2.5918l-1.3965 0.82812zm3.8125 0.43945-0.33984 1.7285-1.9883-0.34766 2.3281-1.3809z" style="fill-opacity:.5;fill:currentColor"/>
</svg>
