<?xml version="1.0" encoding="UTF-8"?>
<!-- Created with Inkscape (http://www.inkscape.org/) -->
<svg width="22" height="22" version="1.1" xmlns="http://www.w3.org/2000/svg" xmlns:cc="http://creativecommons.org/ns#" xmlns:dc="http://purl.org/dc/elements/1.1/" xmlns:rdf="http://www.w3.org/1999/02/22-rdf-syntax-ns#">
	<defs>
		<style id="current-color-scheme" type="text/css">.ColorScheme-Text {color:#090d11;}
			.ColorScheme-Background{color:#ffffff;}</style>
	</defs>
	<metadata>
		<rdf:RDF>
			<cc:Work rdf:about="">
				<dc:format>image/svg+xml</dc:format>
				<dc:type rdf:resource="http://purl.org/dc/dcmitype/StillImage"/>
			</cc:Work>
		</rdf:RDF>
	</metadata>
	<path class="ColorScheme-Background" d="m4.5 1c-0.27614 0-0.5 0.22386-0.5 0.5v7.5c-1.153e-4 2.501 1.3341 4.812 3.5 6.0625 0.4736 0.26924 0.977 0.48227 1.5 0.63477v2.8027c0 0.27614 0.22386 0.5 0.5 0.5s0.5-0.22386 0.5-0.5v-3.5879c-0.11672-0.02518-0.23265-0.05384-0.34766-0.08594-0.17385-0.03855-0.34589-0.08482-0.51562-0.13867-0.11447-0.03695-0.2278-0.07733-0.33984-0.12109-0.27434-0.10404-0.54068-0.22808-0.79688-0.37109-0.27883-0.16324-0.54401-0.34874-0.79297-0.55469-0.087583-0.076925-0.17291-0.15638-0.25586-0.23828-0.15972-0.14344-0.31164-0.29535-0.45508-0.45508-0.078357-0.092097-0.15391-0.18654-0.22656-0.2832-0.12788-0.16362-0.24718-0.33377-0.35742-0.50976-0.065164-0.10548-0.12704-0.21295-0.18555-0.32227-0.095976-0.18035-0.18268-0.36549-0.25977-0.55469-0.051492-0.12016-0.099044-0.24197-0.14258-0.36524-0.068331-0.20961-0.12506-0.42282-0.16992-0.63867-0.0252-0.096423-0.047993-0.19346-0.068359-0.29102-0.055555-0.32456-0.084298-0.65314-0.085938-0.98242v-7.5c0-0.27614-0.22386-0.5-0.5-0.5zm6.5 0c-0.27614 0-0.5 0.22386-0.5 0.5s0.22386 0.5 0.5 0.5h1v6h-5.5c-0.277 0-0.5 0.223-0.5 0.5s0.223 0.5 0.5 0.5h5.5v2c0 0.554 0.41938 1 0.94141 1h0.11719c0.52203 0 0.94141-0.446 0.94141-1v-2h1.5c0.277 0 0.5-0.223 0.5-0.5s-0.223-0.5-0.5-0.5h-1.5v-6h3v7c-0.0016 0.32928-0.03038 0.65786-0.08594 0.98242-0.02037 0.09756-0.04316 0.19459-0.06836 0.29102-0.04486 0.21585-0.10159 0.42906-0.16992 0.63867-0.04353 0.12327-0.09109 0.24508-0.14258 0.36524-0.07709 0.1892-0.16379 0.37433-0.25976 0.55469-0.0585 0.10931-0.12038 0.21679-0.18555 0.32227-0.11024 0.17599-0.22954 0.34614-0.35742 0.50976-0.07265 0.09666-0.1482 0.19111-0.22656 0.2832-0.14344 0.15972-0.29535 0.31164-0.45508 0.45508-0.08295 0.0819-0.16828 0.16136-0.25586 0.23828-0.24895 0.20594-0.51414 0.39144-0.79297 0.55469-0.25619 0.14302-0.52253 0.26705-0.79688 0.37109-0.11204 0.04376-0.22537 0.08414-0.33984 0.12109-0.16973 0.05385-0.34178 0.10012-0.51562 0.13867-0.115 0.0321-0.23094 0.06076-0.34766 0.08594v3.5879c0 0.27614 0.22386 0.5 0.5 0.5s0.5-0.22386 0.5-0.5v-2.8027c0.523-0.1525 1.0264-0.36553 1.5-0.63477 2.1659-1.2505 3.5001-3.5615 3.5-6.0625v-7.5c-2.8e-5 -0.27613-0.22387-0.49997-0.5-0.5zm-5 19c-0.27614 0-0.5 0.22386-0.5 0.5s0.22386 0.5 0.5 0.5h10c0.27614 0 0.5-0.22386 0.5-0.5s-0.22386-0.5-0.5-0.5h-9.5z" style="fill:currentColor;opacity:.5"/>
	<path class="ColorScheme-Text" d="m5.5 2c-0.27613 2.76e-5 -0.49997 0.22387-0.5 0.5v6.5c3.001e-4 2.1433 1.1439 4.1237 3 5.1953 0.61925 0.35327 1.2965 0.59336 2 0.70898v4.0957h-3.5c-0.277 0-0.5 0.223-0.5 0.5s0.223 0.5 0.5 0.5h9c0.277 0 0.5-0.223 0.5-0.5s-0.223-0.5-0.5-0.5h-3.5v-4.0957c0.70349-0.11563 1.3807-0.35571 2-0.70898 1.8561-1.0716 2.9997-3.052 3-5.1953v-6.5c0-0.27614-0.22386-0.5-0.5-0.5s-0.5 0.22386-0.5 0.5v6.5h-2v2c0 0.554-0.41938 1-0.94141 1h-0.11719c-0.52203 0-0.94141-0.446-0.94141-1v-2h-6v-6h5c0.27614 0 0.5-0.22386 0.5-0.5s-0.22386-0.5-0.5-0.5z" style="fill:currentColor;opacity:.75"/>
</svg>
