<?xml version="1.0" encoding="UTF-8"?>
<!-- Created with Inkscape (http://www.inkscape.org/) -->
<svg width="22" height="22" version="1.1" xmlns="http://www.w3.org/2000/svg" xmlns:cc="http://creativecommons.org/ns#" xmlns:dc="http://purl.org/dc/elements/1.1/" xmlns:rdf="http://www.w3.org/1999/02/22-rdf-syntax-ns#">
	<defs>
		<style id="current-color-scheme" type="text/css">.ColorScheme-Text {color:#090d11;}.ColorScheme-Background{color:#ffffff;}</style>
	</defs>
	<metadata>
		<rdf:RDF>
			<cc:Work rdf:about="">
				<dc:format>image/svg+xml</dc:format>
				<dc:type rdf:resource="http://purl.org/dc/dcmitype/StillImage"/>
			</cc:Work>
		</rdf:RDF>
	</metadata>
	<path id="g" class="ColorScheme-Text" d="m5.1289 2-3.1289 3.1289 3.2422 3.2422c0.1855-0.22942 0.46284-0.36523 0.75781-0.37109h2c0.55226 5.52e-5 0.99994 0.44774 1 1h2c0.22199 0.10022 0.39978 0.27801 0.5 0.5 0.10022-0.22199 0.27801-0.39978 0.5-0.5h4.1289l3.8711-3.8711-3.1289-3.1289-5.8711 5.8711zm0.87109 7v4h2v-2h2v2h1v-3h-3v-1zm12 0v1h-6v3h3v-1h-1v-1h2v2h1v-2h1v2h3v-1h-1v-1h1v-1h-1v-1zm-17 1v3h4v-1h-2v-1h2v-1zm8 3c-5.52e-5 0.55226-0.44774 0.99994-1 1h-2c-0.22199-0.10022-0.39978-0.27801-0.5-0.5-0.10022 0.22199-0.27801 0.39978-0.5 0.5h-0.12891l-2.8711 2.8711 3.1289 3.1289 5.8711-5.8711 5.8711 5.8711 3.1289-3.1289-2.9238-2.9238c-0.02456 0.01874-0.04998 0.03634-0.07617 0.05273h-1c-0.22199-0.10022-0.39978-0.27801-0.5-0.5-0.10022 0.22199-0.27801 0.39978-0.5 0.5h-3c-0.22199-0.10022-0.39978-0.27801-0.5-0.5-0.10022 0.22199-0.27801 0.39978-0.5 0.5h-1c-0.55226-5.5e-5 -0.99994-0.44774-1-1z" style="fill-opacity:.75;fill:currentColor"/>
	<path id="a" class="ColorScheme-Background" d="m5.1289 1c-0.2652 5.11e-5 -0.51952 0.10543-0.70703 0.29297l-3.1289 3.1289c-0.39037 0.39053-0.39037 1.0235 0 1.4141l3.1641 3.1641h-3.457c-0.55226 5.5e-5 -0.99994 0.44774-1 1v3c5.52e-5 0.55226 0.44774 0.99994 1 1h2.457l-2.1641 2.1641c-0.39037 0.39053-0.39037 1.0235 0 1.4141l3.1289 3.1289c0.39053 0.39037 1.0235 0.39037 1.4141 0l5.1641-5.1641 5.1641 5.1641c0.39053 0.39037 1.0235 0.39037 1.4141 0l3.1289-3.1289c0.39037-0.39053 0.39037-1.0235 0-1.4141l-2.1641-2.1641h2.457c0.55226-5.5e-5 0.99994-0.44774 1-1v-1c-0.10022-0.22199-0.27801-0.39978-0.5-0.5 0.22199-0.10022 0.39978-0.27801 0.5-0.5v-1c-5.5e-5 -0.55226-0.44774-0.99994-1-1-5.5e-5 -0.55226-0.44774-0.99994-1-1h-1.457l2.1641-2.1641c0.39037-0.39053 0.39037-1.0235 0-1.4141l-3.1289-3.1289c-0.39053-0.39037-1.0235-0.39037-1.4141 0l-5.1641 5.1641-5.1641-5.1641c-0.18751-0.18754-0.44183-0.29292-0.70703-0.29297zm0 1 5.8711 5.8711 5.8711-5.8711 3.1289 3.1289-3.8711 3.8711h-4.1289c-0.22199 0.10022-0.39978 0.27801-0.5 0.5-0.10022-0.22199-0.27801-0.39978-0.5-0.5h-2c-5.52e-5 -0.55226-0.44774-0.99994-1-1h-2c-0.29498 0.0058636-0.57231 0.14167-0.75781 0.37109l-3.2422-3.2422zm0.87109 7h2v1h3v3h-1v-2h-2v2h-2zm12 0h2v1h1v1h-1v1h1v1h-3v-2h-1v2h-1v-2h-2v1h1v1h-3v-3h6zm-17 1h4v1h-2v1h2v1h-4zm8 3c5.5e-5 0.55226 0.44774 0.99994 1 1h1c0.22199-0.10022 0.39978-0.27801 0.5-0.5 0.10022 0.22199 0.27801 0.39978 0.5 0.5h3c0.22199-0.10022 0.39978-0.27801 0.5-0.5 0.10022 0.22199 0.27801 0.39978 0.5 0.5h1c0.02619-0.01639 0.05161-0.03399 0.07617-0.05273l2.9238 2.9238-3.1289 3.1289-5.8711-5.8711-5.8711 5.8711-3.1289-3.1289 2.8711-2.8711h0.12891c0.22199-0.10022 0.39978-0.27801 0.5-0.5 0.10022 0.22199 0.27801 0.39978 0.5 0.5h2c0.55226-5.5e-5 0.99994-0.44774 1-1z" style="fill-opacity:.5;fill:currentColor"/>
</svg>
