<?xml version="1.0" encoding="UTF-8"?>
<svg width="22" height="22" version="1.1" xmlns="http://www.w3.org/2000/svg" xmlns:cc="http://creativecommons.org/ns#" xmlns:dc="http://purl.org/dc/elements/1.1/" xmlns:rdf="http://www.w3.org/1999/02/22-rdf-syntax-ns#">
	<defs>
		<style id="current-color-scheme" type="text/css">.ColorScheme-Text {color:#090d11;}.ColorScheme-Background{color:#ffffff;}</style>
	</defs>
	<metadata>
		<rdf:RDF>
			<cc:Work rdf:about="">
				<dc:format>image/svg+xml</dc:format>
				<dc:type rdf:resource="http://purl.org/dc/dcmitype/StillImage"/>
			</cc:Work>
		</rdf:RDF>
	</metadata>
	<path class="ColorScheme-Text" d="m18 2a0.5 0.5 0 0 0-0.21875 0.058594 0.5 0.5 0 0 0-0.04687 0.023437 0.5 0.5 0 0 0-0.15234 0.15234 0.5 0.5 0 0 0-0.02344 0.046875 0.5 0.5 0 0 0-0.05859 0.21875v1.0625c-0.02853 0.00743-0.05595 0.016724-0.08398 0.025391-0.0026 7.964e-4 -0.0052 0.00115-0.0078 0.00195-0.02298 0.00721-0.04574 0.015418-0.06836 0.023437-0.0202 0.00714-0.04064 0.013713-0.06055 0.021484-0.0129 0.00505-0.0263 0.010318-0.03906 0.015625-0.03538 0.014686-0.07112 0.030243-0.10547 0.046875-0.0058 0.00282-0.01181 0.00494-0.01758 0.00781-0.02324 0.011529-0.04564 0.024713-0.06836 0.037109-0.02843 0.015571-0.05639 0.031937-0.08398 0.048828-0.04835 0.029598-0.09505 0.062252-0.14062 0.095703-0.0091 0.00665-0.01839 0.012738-0.02734 0.019531-0.01664 0.01264-0.03259 0.025926-0.04883 0.039062-0.0057 0.00462-0.01192 9e-3 -0.01758 0.013672-0.02009 0.01662-0.03917 0.033417-0.05859 0.050781-0.03047 0.027217-0.06108 0.054988-0.08984 0.083984-0.0019 0.00196-0.0039 0.00389-0.0059 0.00586l-0.92383-0.5332a0.5 0.5 0 0 0-0.16211-0.054687 0.5 0.5 0 0 0-0.04687-0.00586 0.5 0.5 0 0 0-0.16992 0.011719 0.5 0.5 0 0 0-0.1582 0.076172 0.5 0.5 0 0 0-0.03125 0.025391 0.5 0.5 0 0 0-0.11523 0.13086 0.5 0.5 0 0 0-0.06055 0.22852 0.5 0.5 0 0 0-2e-3 0.035156 0.5 0.5 0 0 0 0.05859 0.21875 0.5 0.5 0 0 0 0.02344 0.037109 0.5 0.5 0 0 0 0.16406 0.16406l0.92188 0.53125c-0.01203 0.042859-0.02208 0.084967-0.03125 0.12891-9e-3 0.04336-0.01728 0.08851-0.02344 0.13281-0.0051 0.03679-0.01061 0.07395-0.01367 0.11133-0.0011 0.01361-0.0011 0.027326-2e-3 0.041016-0.0024 0.04036-0.0039 0.080145-0.0039 0.12109 0 0.04095 0.0014 0.08073 0.0039 0.12109 8.45e-4 0.01369 7.8e-4 0.027406 2e-3 0.041016 0.0031 0.03738 0.0086 0.07454 0.01367 0.11133 0.0062 0.0443 0.01439 0.08946 0.02344 0.13281 0.0092 0.04394 0.01922 0.086049 0.03125 0.12891l-0.92188 0.53125a0.5 0.5 0 0 0-0.16406 0.16406 0.5 0.5 0 0 0-0.02344 0.037109 0.5 0.5 0 0 0-0.05859 0.21875 0.5 0.5 0 0 0 2e-3 0.035156 0.5 0.5 0 0 0 0.06055 0.22852 0.5 0.5 0 0 0 0.16406 0.16406 0.5 0.5 0 0 0 0.03711 0.023438 0.5 0.5 0 0 0 0.21875 0.058594 0.5 0.5 0 0 0 0.03516-0.00195 0.5 0.5 0 0 0 0.22852-0.060547l0.92383-0.5332c0.0019 2e-3 0.0039 0.00386 0.0059 0.00586 0.02876 0.029 0.05938 0.056774 0.08984 0.083984 0.0034 0.0031 0.0063 0.00667 0.0098 0.00977 0.02156 0.019 0.04404 0.036608 0.06641 0.054688 0.01624 0.01314 0.03218 0.026422 0.04883 0.039062 9e-3 0.0068 0.01828 0.012891 0.02734 0.019531 0.04558 0.03345 0.09228 0.066103 0.14062 0.095703 0.02759 0.01689 0.05555 0.033258 0.08398 0.048828 0.02267 0.01242 0.04517 0.025559 0.06836 0.037109 0.0347 0.01722 0.07163 0.031655 0.10742 0.046875 0.01811 0.0077 0.03632 0.016248 0.05469 0.023438 0.01991 0.0078 0.04034 0.014334 0.06055 0.021484 0.02262 8e-3 0.04538 0.016227 0.06836 0.023437 0.0026 8.071e-4 0.0052 0.00115 0.0078 0.00195 0.02803 0.0087 0.05545 0.017961 0.08398 0.025391v1.0625a0.5 0.5 0 0 0 0.05859 0.21875 0.5 0.5 0 0 0 0.02344 0.046875 0.5 0.5 0 0 0 0.15234 0.15234 0.5 0.5 0 0 0 0.04687 0.023437 0.5 0.5 0 0 0 0.21875 0.058594 0.5 0.5 0 0 0 0.21875-0.058594 0.5 0.5 0 0 0 0.04687-0.023437 0.5 0.5 0 0 0 0.15234-0.15234 0.5 0.5 0 0 0 0.02344-0.046875 0.5 0.5 0 0 0 0.05859-0.21875v-1.0625c0.02862-0.0075 0.05586-0.016711 0.08398-0.025391 0.0026-7.94e-4 0.0052-0.00105 0.0078-0.00195 0.02285-0.0072 0.04586-0.015477 0.06836-0.023437 0.01998-0.0071 0.04086-0.013774 0.06055-0.021484 0.07918-0.03091 0.15647-0.06705 0.23047-0.10742 0.02843-0.01557 0.05639-0.031938 0.08398-0.048828 0.04835-0.0296 0.09505-0.062253 0.14062-0.095703 9e-3 -0.0066 0.0185-0.012821 0.02734-0.019531 0.01643-0.01247 0.03279-0.026102 0.04883-0.039062 0.0225-0.0182 0.04472-0.035558 0.06641-0.054688 0.0028-0.0024 0.0051-0.00541 0.0078-0.00781 0.0052-0.0046 0.01051-9e-3 0.01563-0.013672 0.02778-0.02527 0.0557-0.051355 0.08203-0.078125l0.92383 0.5332a0.5 0.5 0 0 0 0.22852 0.060547 0.5 0.5 0 0 0 0.03516 0.00195 0.5 0.5 0 0 0 0.21875-0.058594 0.5 0.5 0 0 0 0.03711-0.023438 0.5 0.5 0 0 0 0.16406-0.16406 0.5 0.5 0 0 0 0.03516-0.076172 0.5 0.5 0 0 0 0.0078-0.027344 0.5 0.5 0 0 0 0.0039-0.00781 0.5 0.5 0 0 0 0.01563-0.070312 0.5 0.5 0 0 0 0-0.00391 0.5 0.5 0 0 0 0-0.00781 0.5 0.5 0 0 0 0.0039-0.089844 0.5 0.5 0 0 0-0.0098-0.066406 0.5 0.5 0 0 0-2e-3 -0.00977 0.5 0.5 0 0 0-0.0098-0.037109 0.5 0.5 0 0 0-0.0039-0.011719 0.5 0.5 0 0 0-0.02539-0.064453 0.5 0.5 0 0 0-0.0039-0.00586 0.5 0.5 0 0 0-0.04492-0.068359 0.5 0.5 0 0 0-0.0039-0.00781 0.5 0.5 0 0 0-0.0098-0.011719 0.5 0.5 0 0 0-0.04687-0.050781 0.5 0.5 0 0 0-0.02148-0.019531 0.5 0.5 0 0 0-0.06836-0.046875l-0.92188-0.53125c0.01203-0.04286 0.02208-0.08497 0.03125-0.12891 9e-3 -0.04336 0.01728-0.08851 0.02344-0.13281 0.0051-0.03679 0.01061-0.073949 0.01367-0.11133 6.36e-4 -0.0078 0.0014-0.015638 2e-3 -0.023438 8.6e-4 -0.01219 0.0013-0.024859 2e-3 -0.037109 0.0016-0.03392 2e-3 -0.067234 2e-3 -0.10156 0-0.03393-1.73e-4 -0.06807-2e-3 -0.10156-6.34e-4 -0.01237-0.0011-0.024789-2e-3 -0.037109-5.57e-4 -0.0079-0.0013-0.015578-2e-3 -0.023438-0.0031-0.03738-0.0086-0.074539-0.01367-0.11133-0.0062-0.0443-0.01439-0.08946-0.02344-0.13281-0.0092-0.04394-0.01922-0.08605-0.03125-0.12891l0.92188-0.53125a0.5 0.5 0 0 0 0.06836-0.046875 0.5 0.5 0 0 0 0.02148-0.019531 0.5 0.5 0 0 0 0.0059-0.00586 0.5 0.5 0 0 0 0.05078-0.056641 0.5 0.5 0 0 0 0.0039-0.00781 0.5 0.5 0 0 0 0.04492-0.068359 0.5 0.5 0 0 0 0.0039-0.00586 0.5 0.5 0 0 0 0.0039-0.00781 0.5 0.5 0 0 0 0.02539-0.068359 0.5 0.5 0 0 0 0.0098-0.037109 0.5 0.5 0 0 0 0.0059-0.044922 0.5 0.5 0 0 0 0.0039-0.023438 0.5 0.5 0 0 0 2e-3 -0.03125 0.5 0.5 0 0 0-0.0039-0.066406 0.5 0.5 0 0 0 0-0.00781 0.5 0.5 0 0 0 0-0.00391 0.5 0.5 0 0 0-0.01563-0.070312 0.5 0.5 0 0 0-0.0039-0.00781 0.5 0.5 0 0 0-0.0078-0.027344 0.5 0.5 0 0 0-0.03516-0.076172 0.5 0.5 0 0 0-0.16406-0.16406 0.5 0.5 0 0 0-0.03711-0.023438 0.5 0.5 0 0 0-0.21875-0.058594 0.5 0.5 0 0 0-0.03516 0.00195 0.5 0.5 0 0 0-0.22852 0.060547l-0.92383 0.5332c-0.0039-0.00394-0.0078-0.00781-0.01172-0.011719-0.02759-0.027592-0.05679-0.054114-0.08594-0.080078-0.02434-0.021702-0.04884-0.04197-0.07422-0.0625-0.01603-0.012961-0.0324-0.02659-0.04883-0.039062-0.0088-0.00671-0.01839-0.01296-0.02734-0.019531-0.04558-0.033451-0.09228-0.066105-0.14062-0.095703-0.02759-0.016891-0.05555-0.033257-0.08398-0.048828-0.074-0.040371-0.15129-0.076513-0.23047-0.10742-0.01969-0.0077-0.04056-0.0144-0.06055-0.021484-0.0225-0.00795-0.04551-0.01628-0.06836-0.023437-0.0026-8.05e-4 -0.0052-0.00116-0.0078-0.00195-0.02813-0.00869-0.05536-0.017939-0.08398-0.025391v-1.0625a0.5 0.5 0 0 0-0.0098-0.09375 0.5 0.5 0 0 0 0-0.00391 0.5 0.5 0 0 0 0-0.00195 0.5 0.5 0 0 0-0.02344-0.076172 0.5 0.5 0 0 0 0-0.00195 0.5 0.5 0 0 0-0.01367-0.03125 0.5 0.5 0 0 0-0.03516-0.064453 0.5 0.5 0 0 0-2e-3 -0.00391 0.5 0.5 0 0 0-0.0039-0.00586 0.5 0.5 0 0 0-0.05859-0.070312 0.5 0.5 0 0 0-0.07031-0.058594 0.5 0.5 0 0 0-0.0059-0.00391 0.5 0.5 0 0 0-0.0039-0.00195 0.5 0.5 0 0 0-0.06445-0.035156 0.5 0.5 0 0 0-0.03125-0.013672 0.5 0.5 0 0 0-2e-3 0 0.5 0.5 0 0 0-0.07617-0.023438 0.5 0.5 0 0 0-2e-3 0 0.5 0.5 0 0 0-0.0039 0 0.5 0.5 0 0 0-0.09375-0.00977zm-14 1c-1.0907 0-2 0.9093-2 2v12c0 1.0907 0.9093 2 2 2h14c1.0907 0 2-0.9093 2-2v-6h-1v7h-16v-14h10v-1zm14 1.5c0.06978 0 0.13762 0.00636 0.20312 0.019531s0.1295 0.033524 0.18945 0.058594 0.11678 0.056098 0.16992 0.091797c0.05314 0.035698 0.10143 0.076038 0.14648 0.12109 0.04506 0.045056 0.0854 0.093342 0.12109 0.14648 0.0357 0.053142 0.06673 0.10996 0.0918 0.16992 0.02507 0.059958 0.04542 0.12395 0.05859 0.18945 0.01317 0.065502 0.01953 0.13335 0.01953 0.20312 0 0.069776-0.0064 0.13762-0.01953 0.20312-0.01317 0.065502-0.03352 0.1295-0.05859 0.18945-0.02507 0.059958-0.0561 0.11678-0.0918 0.16992-0.0357 0.053142-0.07604 0.10143-0.12109 0.14648-0.04506 0.045056-0.09334 0.085395-0.14648 0.12109s-0.10996 0.066727-0.16992 0.091797-0.12395 0.045423-0.18945 0.058594c-0.0655 0.01317-0.13335 0.019531-0.20312 0.019531s-0.13762-0.00636-0.20312-0.019531-0.1295-0.033524-0.18945-0.058594-0.11678-0.056098-0.16992-0.091797-0.10143-0.076038-0.14648-0.12109c-0.04506-0.045056-0.0854-0.093342-0.12109-0.14648-0.0357-0.053142-0.06673-0.10996-0.0918-0.16992-0.02507-0.059958-0.04542-0.12395-0.05859-0.18945-0.01317-0.065502-0.01953-0.13335-0.01953-0.20312 0-0.069776 0.0064-0.13762 0.01953-0.20312 0.01317-0.065502 0.03352-0.1295 0.05859-0.18945 0.02507-0.059958 0.0561-0.11678 0.0918-0.16992 0.0357-0.053142 0.07604-0.10143 0.12109-0.14648 0.04506-0.045056 0.09334-0.085395 0.14648-0.12109 0.05314-0.035699 0.10996-0.066727 0.16992-0.091797s0.12395-0.045423 0.18945-0.058594c0.065502-0.01317 0.13335-0.019531 0.20312-0.019531zm-14 9.5v3h14v-3zm1 1h1v1h-1zm2 0h1v1h-1zm9 0h1v1h-1z" style="fill-opacity:.75;fill:currentColor"/>
</svg>
