<?xml version="1.0" encoding="UTF-8"?>
<svg id="d" width="22" height="22" version="1.1" xmlns="http://www.w3.org/2000/svg" xmlns:cc="http://creativecommons.org/ns#" xmlns:dc="http://purl.org/dc/elements/1.1/" xmlns:rdf="http://www.w3.org/1999/02/22-rdf-syntax-ns#">
	<metadata id="b">
		<rdf:RDF>
			<cc:Work rdf:about="">
				<dc:format>image/svg+xml</dc:format>
				<dc:type rdf:resource="http://purl.org/dc/dcmitype/StillImage"/>
			</cc:Work>
		</rdf:RDF>
	</metadata>
	<defs id="e">
		<style id="current-color-scheme" type="text/css">.ColorScheme-Text {color:#090d11;}.ColorScheme-Background{color:#ffffff;}</style>
	</defs>
	<path id="a" class="ColorScheme-Text" d="m4 2c-0.554 0-1 0.446-1 1v16c0 0.554 0.446 1 1 1h14c0.554 0 1-0.446 1-1v-15h-14.5c-0.277 0-0.5-0.223-0.5-0.5s0.223-0.5 0.5-0.5h14.5c0-0.554-0.446-1-1-1zm4 6h8l-8 6c2 0.26735 3.9991 1 6.6777 1 1.5347 0 2.3223-1 2.3223-2 0 2 3.96e-4 2.6298-1.4727 3-4.527 0-6.5276-1.4986-10.527-1 2.5159-2.0042 6.3434-4.626 9-6.6172-3 0.61697-5.2947 0.12761-7 1.6172l1-2z" style="fill-opacity:.75;fill:currentColor"/>
</svg>
