<?xml version="1.0" encoding="UTF-8" standalone="no"?>
<svg
   xmlns:dc="http://purl.org/dc/elements/1.1/"
   xmlns:cc="http://creativecommons.org/ns#"
   xmlns:rdf="http://www.w3.org/1999/02/22-rdf-syntax-ns#"
   xmlns:svg="http://www.w3.org/2000/svg"
   xmlns="http://www.w3.org/2000/svg"
   width="24"
   height="24"
   id="svg13094"
   version="1.1">
  <defs
     id="defs4">
    <style
       type="text/css"
       id="current-color-scheme">.ColorScheme-Text {color:#090d11;}.ColorScheme-Background{color:#ffffff;}</style>
  </defs>
  <metadata
     id="metadata13099">
    <rdf:RDF>
      <cc:Work
         rdf:about="">
        <dc:format>image/svg+xml</dc:format>
        <dc:type
           rdf:resource="http://purl.org/dc/dcmitype/StillImage" />
        <dc:title></dc:title>
      </cc:Work>
    </rdf:RDF>
  </metadata>
  <path
     class="ColorScheme-Text"
     style="fill:currentColor;fill-opacity:0.75"
     d="m 9,4 v 1 l 1,1 v 4 l -4,7 v 2 l 1,1 h 10 l 1,-1 V 17 L 14,10 V 6 L 15,5 V 4 Z m 1.414062,1 h 3.171876 L 13.292969,5.2929688 C 13.105433,5.4804805 13.000051,5.734801 13,6 v 4 c -2.61e-4,0.17393 0.04484,0.344922 0.130859,0.496094 l 1.425306,2.493745 -5.1067995,-0.0097 1.4197755,-2.484069 C 10.955157,10.344922 11.000261,10.17393 11,10 V 6 C 10.999949,5.734801 10.894567,5.4804805 10.707031,5.2929688 Z"
     id="path41" />
  <path
     class="ColorScheme-Background"
     id="rect3000"
     d="M 8 3 L 8 5.6875 L 8.15625 5.84375 L 8.8125 6.5 L 8.8125 9.6875 L 5 16.34375 L 5 19.6875 L 5.15625 19.84375 L 6.15625 20.84375 L 6.3125 21 L 17.6875 21 L 17.84375 20.84375 L 18.84375 19.84375 L 19 19.6875 L 19 16.34375 L 15.1875 9.6875 L 15.1875 6.5 L 15.84375 5.84375 L 16 5.6875 L 16 3 L 8 3 z M 9 4 L 15 4 L 15 5 L 14 6 L 14 10 L 18 17 L 18 19 L 17 20 L 7 20 L 6 19 L 6 17 L 10 10 L 10 6 L 9 5 L 9 4 z M 10.009766 12 L 9.4492188 12.980469 L 14.556641 12.990234 L 13.990234 12 L 10.009766 12 z "
     style="fill:currentColor;fill-opacity:0.5" />
</svg>
