<?xml version="1.0" encoding="UTF-8"?>
<!-- Created with Inkscape (http://www.inkscape.org/) -->
<svg width="64" height="64" version="1.1" xmlns="http://www.w3.org/2000/svg" xmlns:cc="http://creativecommons.org/ns#" xmlns:dc="http://purl.org/dc/elements/1.1/" xmlns:rdf="http://www.w3.org/1999/02/22-rdf-syntax-ns#">
	<defs>
		<linearGradient id="d" x1="53" x2="53" y1="17" y2="15" gradientUnits="userSpaceOnUse">
			<stop stop-color="#dad8ce" offset="0"/>
			<stop stop-color="#ebebeb" offset="1"/>
		</linearGradient>
		<linearGradient id="f" x1="32.559" x2="33.542" y1="15.559" y2="14.542" gradientUnits="userSpaceOnUse">
			<stop stop-color="#37321c" stop-opacity=".15675" offset="0"/>
			<stop stop-color="#6d5524" stop-opacity="0" offset="1"/>
		</linearGradient>
		<radialGradient id="e" cx="33.466" cy="2.1992" r="30.5" gradientTransform="matrix(-1.0283 0 0 -.55738 67.779 1.2258)" gradientUnits="userSpaceOnUse">
			<stop stop-color="#668cbb" offset="0"/>
			<stop stop-color="#668cbb" offset="1"/>
		</radialGradient>
		<linearGradient id="g" x1="61" x2="60" y1="17" gradientTransform="translate(-.88255)" gradientUnits="userSpaceOnUse">
			<stop stop-color="#3e4d60" stop-opacity=".72157" offset="0"/>
			<stop stop-color="#393b49" stop-opacity=".2656" offset="1"/>
		</linearGradient>
		<linearGradient id="b" x1="62.381" x2="62.381" y1="63.314" y2="23.077" gradientUnits="userSpaceOnUse">
			<stop stop-color="#000828" stop-opacity=".35976" offset="0"/>
			<stop stop-color="#000828" stop-opacity=".12715" offset="1"/>
		</linearGradient>
		<radialGradient id="c" cx="30.107" cy="50.318" r="30.5" gradientTransform="matrix(2.7541,-1.4218e-7,8.3652e-8,2.7869,-52.917,-93.23)" gradientUnits="userSpaceOnUse">
			<stop stop-color="#9e1423" stop-opacity=".12917" offset="0"/>
			<stop stop-color="#f4405b" stop-opacity=".023222" offset=".54"/>
			<stop stop-color="#f43f6d" stop-opacity=".169" offset="1"/>
		</radialGradient>
		<linearGradient id="h" x1="-5" x2="-5" y1="64" y2="14" gradientTransform="translate(.88908)" gradientUnits="userSpaceOnUse">
			<stop stop-color="#f43f66" stop-opacity=".018868" offset="0"/>
			<stop stop-color="#f4ae3f" stop-opacity=".47025" offset="1"/>
		</linearGradient>
		<linearGradient id="a" x1="4.5255" x2="4.5255" y1="64" y2="61.09" gradientUnits="userSpaceOnUse">
			<stop stop-color="#e50d4c" stop-opacity=".47868" offset="0"/>
			<stop stop-color="#e50d4c" stop-opacity="0" offset="1"/>
		</linearGradient>
	</defs>
	<metadata>
		<rdf:RDF>
			<cc:Work rdf:about="">
				<dc:format>image/svg+xml</dc:format>
				<dc:type rdf:resource="http://purl.org/dc/dcmitype/StillImage"/>
				<dc:title/>
			</cc:Work>
		</rdf:RDF>
	</metadata>
	<g>
		<g>
			<path d="m38 0c-1 0-1.5103 0.51027-2 1l-3 3c-0.53814 0.53814-1 1-2 1h-28c-0.52243 0-1 0.43922-1 1l-0.76511 58h61.543c1 0 1.2218-1 1.2218-2v-61c0-0.51973-0.5-1-1-1z" color="#000000" fill="url(#e)"/>
			<path d="m38 0c-1 0-1.5103 0.51027-2 1l-3 3c-0.53814 0.53814-1 1-2 1h-28c-0.52243 0-1 0.43922-1 1l-0.76511 58h61.543c1 0 1.2218-1 1.2218-2v-61c0-0.51973-0.5-1-1-1z" color="#000000" fill="url(#g)"/>
			<path d="m38 0c-1 0-1.5103 0.51027-2 1l-3 3c-0.53814 0.53814-1 1-2 1h-28c-0.52243 0-1 0.43922-1 1l-0.76562 58h0.00586l0.75976-57.5c0-0.56078 0.47757-1 1-1h28c1 0 1.4619-0.46186 2-1l3-3c0.48973-0.48973 1-1 2-1h25c0.5 0 1 0.48027 1 1v-0.5c0-0.51973-0.5-1-1-1z" color="#000000" fill="#b3ffff" fill-opacity=".19073"/>
			<path d="m61 13v51h1.7773c0.09408 0 0.17509-0.01633 0.25586-0.0332l0.8125-0.8125c0.11225-0.34056 0.1543-0.74535 0.1543-1.1543v-46l-3-3z" fill="url(#b)"/>
			<path d="m63.5 0.15532v61.845c0 0.52439-0.13604 1.5011-0.72184 1.5v0.5c1 0 1.2218-1 1.2218-2v-61c0-0.39808-0.24002-0.69459-0.5-0.84468z" fill="#0f1f33" fill-opacity=".14136" style="paint-order:normal"/>
		</g>
		<g>
			<path d="m7 13h54v31h-54z" fill="url(#d)"/>
			<path d="m30 13 4 4h2l-4-4z" color="#000000" fill="url(#f)"/>
		</g>
		<path d="m62.778 63.5c-0.58579-0.0011-0.77816-0.9402-0.77816-1.5v-44c0-0.57647-0.4549-1-1-1h-26c-1 0-1.3759-0.3759-2-1l-3-3c-0.46442-0.46442-1-1-2-1h-27c-0.52342 0-1 0.4716-1 1 0.0044097 9.6802 0.0035924 21.791 0.002195 32.011-9.6046e-4 7.024-0.002195 13.155-0.002195 16.989 0 1 0.23489 2 1.2349 2h61.543z" color="#000000" fill="#f4ae3f"/>
		<path d="m62.778 63.5c-0.58579-0.0011-0.77816-0.9402-0.77816-1.5v-44c0-0.57647-0.4549-1-1-1h-26c-1 0-1.3759-0.3759-2-1l-3-3c-0.46442-0.46442-1-1-2-1h-27c-0.52342 0-1 0.4716-1 1 0.0044097 9.6802 0.0035924 21.791 0.002195 32.011-9.6046e-4 7.024-0.002195 13.155-0.002195 16.989 0 1 0.23489 2 1.2349 2h61.543z" color="#000000" fill="#f4ae3f"/>
		<path d="m62.778 63.5c-0.58579-0.0011-0.77816-0.9402-0.77816-1.5v-44c0-0.57647-0.4549-1-1-1h-26c-1 0-1.3759-0.3759-2-1l-3-3c-0.46442-0.46442-1-1-2-1h-27c-0.52342 0-1 0.4716-1 1 0.0044097 9.6802 0.0035924 21.791 0.002195 32.011-9.6046e-4 7.024-0.002195 13.155-0.002195 16.989 0 1 0.23489 2 1.2349 2h61.543z" color="#000000" fill="url(#c)"/>
		<path d="m62.778 63.5c-0.58579-0.0011-0.77816-0.9402-0.77816-1.5v-44c0-0.57647-0.4549-1-1-1h-26c-1 0-1.3759-0.3759-2-1l-3-3c-0.46442-0.46442-1-1-2-1h-27c-0.52342 0-1 0.4716-1 1 0.0044097 9.6802 0.0035924 21.791 0.002195 32.011-9.6046e-4 7.024-0.002195 13.155-0.002195 16.989 0 1 0.23489 2 1.2349 2h61.543z" color="#000000" fill="url(#h)"/>
		<path d="m62.778 63.5c-0.58579-0.0011-0.77816-0.9402-0.77816-1.5v-44c0-0.57647-0.4549-1-1-1h-26c-1 0-1.3759-0.3759-2-1l-3-3c-0.46442-0.46442-1-1-2-1h-27c-0.52342 0-1 0.4716-1 1 0.0044097 9.6802 0.0035924 21.791 0.002195 32.011-9.6046e-4 7.024-0.002195 13.155-0.002195 16.989 0 1 0.23489 2 1.2349 2h61.543z" color="#000000" fill="url(#a)" opacity=".318"/>
		<path d="m27.5 12c1 0 1.5356 0.53558 2 1l3 3c0.6241 0.6241 1 1 2 1h0.5c-1 0-1.3759-0.3759-2-1l-3-3c-0.46442-0.46442-1-1-2-1zm33 5c0.5451 0 1 0.42353 1 1v44c0 0.90201 0.20957 1.9442 1.2782 2h-8.19e-4v-0.5c-0.58579-0.0011-0.77734-0.9402-0.77734-1.5v-44c0-0.57647-0.4549-1-1-1z" color="#000000" fill="#ff024d" fill-opacity=".23186" style="paint-order:normal"/>
		<path d="m27.75 12c1 0 1.5356 0.53558 2 1l3 3c0.6241 0.6241 1 1 2 1h0.25c-1 0-1.3759-0.3759-2-1l-3-3c-0.46442-0.46442-1-1-2-1zm33 5c0.5451 0 1 0.42353 1 1v44c0 0.5598 0.19155 1.4989 0.77734 1.5v0.45508c0.08 0.01886 0.15756 0.0401 0.25 0.04492v-0.5c-0.58579-0.0011-0.77734-0.9402-0.77734-1.5v-44c0-0.57647-0.4549-1-1-1z" color="#000000" fill="#ff024d" fill-opacity=".19147" style="paint-order:normal"/>
		<path d="m1 12c-0.52342 0-1 0.4716-1 1 6.888e-5 0.15121-6.6347e-5 0.34762 0 0.5 0-0.5284 0.47658-1 1-1h27c1 0 1.5356 0.53558 2 1l3 3c0.6241 0.6241 1 1 2 1h26c0.5451 0 1 0.42353 1 1v-0.5c0-0.57647-0.4549-1-1-1h-26c-1 0-1.3759-0.3759-2-1l-3-3c-0.46442-0.46442-1-1-2-1z" color="#000000" fill="#f8ff34" fill-opacity=".31189"/>
		<path d="m1 12c-0.52342 0-1 0.4716-1 1 3.444e-5 0.0756-3.3805e-5 0.1741 0 0.25 0-0.5284 0.47658-1 1-1h27c1 0 1.5356 0.53558 2 1l3 3c0.6241 0.6241 1 1 2 1h26c0.5451 0 1 0.42353 1 1v-0.25c0-0.57647-0.4549-1-1-1h-26c-1 0-1.3759-0.3759-2-1l-3-3c-0.46442-0.46442-1-1-2-1z" color="#000000" fill="#f8ff34" fill-opacity=".31189"/>
	</g>
	<g>
		<g fill="#ff0066" opacity=".4" shape-rendering="auto">
			<path d="m24 34v22.43s2.355-3.6375 2.355-3.6375c2.3654-3.6558 4.2832-5.0429 5.8625-5.3475 1.5793-0.30457 3.2338 0.37925 5.29 1.7575 3.9003 2.6143 8.8041 7.411 15.932 8.81v0.3075h-29.44v2.56h32v-4.9475l-1.1075-0.15c-6.7882-0.91984-11.451-5.6853-15.96-8.7075-2.2544-1.5111-4.6153-2.6435-7.2-2.145-1.7731 0.34195-3.4675 1.724-5.1725 3.63v-12h26.88v10.23h2.56v-12.79h-32m24.32 5.12c-0.67895 0-1.3301 0.26971-1.8102 0.74981s-0.74981 1.1312-0.74981 1.8102 0.26971 1.3301 0.74981 1.8102 1.1312 0.74981 1.8102 0.74981 1.3301-0.26971 1.8102-0.74981 0.74981-1.1312 0.74981-1.8102-0.26971-1.3301-0.74981-1.8102-1.1312-0.74981-1.8102-0.74981" color="#000000" color-rendering="auto" dominant-baseline="auto" fill-opacity=".0039216" image-rendering="auto" opacity="1" solid-color="#000000" style="font-feature-settings:normal;font-variant-alternates:normal;font-variant-caps:normal;font-variant-ligatures:normal;font-variant-numeric:normal;font-variant-position:normal;isolation:auto;mix-blend-mode:normal;paint-order:normal;shape-padding:0;text-decoration-color:#000000;text-decoration-line:none;text-decoration-style:solid;text-indent:0;text-orientation:mixed;text-transform:none;white-space:normal"/>
			<path d="m22.922 32.922v21.549l6e-5 -9.3e-5c0.0051-0.0079 2.2624-3.4945 2.2624-3.4945 2.1e-5 -3.1e-5 4.1e-5 -6.3e-5 6.1e-5 -9.4e-5 2.2725-3.5121 4.1149-4.8447 5.6321-5.1373 5.4e-5 -1e-5 1.08e-4 -2.1e-5 1.62e-4 -3.1e-5 1.5172-0.29252 3.1067 0.36443 5.082 1.6885 3.3e-5 2.3e-5 6.6e-5 4.5e-5 1e-4 6.7e-5 3.747 2.5116 8.4581 7.1198 15.306 8.4638v0.29542h-28.283v2.4595h30.743v-4.7531s-3.8e-5 -5e-6 -1.13e-4 -1.6e-5c-0.0047-6.37e-4 -1.0639-0.14409-1.0639-0.14409-5.8e-5 -8e-6 -1.16e-4 -1.6e-5 -1.74e-4 -2.4e-5 -6.5214-0.88376-11.001-5.462-15.333-8.3654-3.8e-5 -2.6e-5 -7.7e-5 -5.2e-5 -1.16e-4 -7.8e-5 -2.1658-1.4517-4.4339-2.5395-6.917-2.0606-3.1e-5 6e-6 -6.1e-5 1.2e-5 -9.1e-5 1.8e-5 -1.7034 0.32854-3.3312 1.6563-4.9692 3.4874v-11.528h25.824v9.8281h2.4595v-12.287h-30.743m3.4125 0.71842m19.952 4.2004c-0.55706 0-1.0913 0.22127-1.4852 0.61514-0.09522 3.7e-5 -0.18653 0.03788-0.25386 0.10521-0.3939 0.3939-0.6152 0.92813-0.61524 1.4852-0.0673 0.06736-0.10511 0.15868-0.10511 0.2539 0 0.55706 0.22127 1.0913 0.61514 1.4852 3.7e-5 0.09522 0.03788 0.18653 0.10521 0.25386 0.3939 0.3939 0.92813 0.6152 1.4852 0.61524 0.06736 0.0673 0.15868 0.10511 0.2539 0.10511 0.55706 0 1.0913-0.22127 1.4852-0.61514 0.09522-3.7e-5 0.18653-0.03788 0.25386-0.10521 0.3939-0.3939 0.6152-0.92813 0.61524-1.4852 0.0673-0.06736 0.10511-0.15868 0.10511-0.2539 0-0.55706-0.22127-1.0913-0.61514-1.4852-3.7e-5 -0.09522-0.03788-0.18653-0.10521-0.25386-0.3939-0.3939-0.92813-0.6152-1.4852-0.61524-0.06736-0.0673-0.15868-0.10511-0.2539-0.10511" color="#000000" color-rendering="auto" dominant-baseline="auto" fill-opacity=".0088519" image-rendering="auto" opacity="1" solid-color="#000000" style="font-feature-settings:normal;font-variant-alternates:normal;font-variant-caps:normal;font-variant-ligatures:normal;font-variant-numeric:normal;font-variant-position:normal;isolation:auto;mix-blend-mode:normal;paint-order:normal;shape-padding:0;text-decoration-color:#000000;text-decoration-line:none;text-decoration-style:solid;text-indent:0;text-orientation:mixed;text-transform:none;white-space:normal"/>
			<path d="m22.476 32.476v21.184s2.9e-5 -4.4e-5 8.6e-5 -1.31e-4c0.0072-0.0111 2.2241-3.4353 2.2241-3.4353 2.8e-5 -4.4e-5 5.7e-5 -8.8e-5 8.6e-5 -1.33e-4 2.234-3.4526 4.0451-4.7626 5.5367-5.0502 7.7e-5 -1.5e-5 1.53e-4 -3e-5 2.3e-4 -4.4e-5 1.4915-0.28754 3.054 0.35829 4.9958 1.6599 4.7e-5 3.1e-5 9.5e-5 6.3e-5 1.42e-4 9.5e-5 3.6835 2.4691 8.3148 6.9991 15.047 8.3204v0.29042h-27.804v2.4178h30.222v-4.6726s-5.4e-5 -7e-6 -1.6e-4 -2.2e-5c-0.0067-9.01e-4 -1.0458-0.14164-1.0458-0.14164l-2.46e-4 -3.3e-5c-6.4109-0.86881-10.815-5.3694-15.073-8.2237-5.5e-5 -3.6e-5 -1.1e-4 -7.3e-5 -1.64e-4 -1.1e-4 -2.1291-1.4271-4.3588-2.4965-6.7998-2.0257-4.3e-5 8e-6 -8.6e-5 1.6e-5 -1.29e-4 2.5e-5 -1.6746 0.32299-3.2747 1.6283-4.885 3.4283v-11.333h25.386v9.6615h2.4178v-12.079h-30.222m4.826 1.016m18.143 3.8195c-0.50656 0-0.99239 0.20121-1.3506 0.55936-0.13466 5.2e-5 -0.26379 0.05357-0.35901 0.14879-0.3582 0.3582-0.55945 0.844-0.5595 1.3505-0.09518 0.09526-0.14865 0.22441-0.14865 0.35907 0 0.50657 0.20121 0.99239 0.55936 1.3506 5.2e-5 0.13466 0.05357 0.26379 0.14879 0.35901 0.3582 0.3582 0.844 0.55945 1.3505 0.5595 0.09526 0.09518 0.22441 0.14865 0.35907 0.14865 0.50657 0 0.99239-0.20121 1.3506-0.55936 0.13466-5.2e-5 0.26379-0.05357 0.35901-0.14879 0.3582-0.3582 0.55945-0.844 0.5595-1.3505 0.09518-0.09526 0.14865-0.22441 0.14865-0.35907 0-0.50656-0.20121-0.99239-0.55936-1.3506-5.2e-5 -0.13466-0.05357-0.26379-0.14879-0.35901-0.3582-0.3582-0.844-0.55945-1.3505-0.5595-0.09525-0.09518-0.22441-0.14865-0.35907-0.14865" color="#000000" color-rendering="auto" dominant-baseline="auto" fill-opacity=".010894" image-rendering="auto" opacity="1" solid-color="#000000" style="font-feature-settings:normal;font-variant-alternates:normal;font-variant-caps:normal;font-variant-ligatures:normal;font-variant-numeric:normal;font-variant-position:normal;isolation:auto;mix-blend-mode:normal;paint-order:normal;shape-padding:0;text-decoration-color:#000000;text-decoration-line:none;text-decoration-style:solid;text-indent:0;text-orientation:mixed;text-transform:none;white-space:normal"/>
			<path d="m22.133 32.133v20.904s3.5e-5 -5.4e-5 1.04e-4 -1.61e-4c0.0088-0.0136 2.1946-3.3898 2.1946-3.3898 3.5e-5 -5.4e-5 7.1e-5 -1.08e-4 1.06e-4 -1.62e-4 2.2044-3.4069 3.9916-4.6996 5.4635-4.9834l2.82e-4 -5.4e-5c1.4718-0.28371 3.0136 0.35358 4.9297 1.638l1.74e-4 1.17e-4c3.6348 2.4364 8.2049 6.9066 14.848 8.2104v0.28657h-27.437v2.3858h29.822v-4.6108s-6.5e-5 -8e-6 -1.95e-4 -2.6e-5c-0.0081-0.0011-1.0319-0.13977-1.0319-0.13977-1.01e-4 -1.4e-5 -2.02e-4 -2.8e-5 -3.02e-4 -4.1e-5 -6.3261-0.85734-10.672-5.2984-14.874-8.1149l-2.01e-4 -1.35e-4c-2.1009-1.4082-4.3011-2.4634-6.7098-1.9989-5.3e-5 1e-5 -1.05e-4 2e-5 -1.58e-4 3.1e-5 -1.6524 0.31873-3.2314 1.6067-4.8204 3.3829v-11.183h25.051v9.5338h2.3858v-11.92h-29.822m5.9106 1.2443m16.754 3.5272c-0.46782 0-0.91649 0.18581-1.2473 0.51655-0.16492 6.4e-5 -0.32308 0.06561-0.4397 0.18223-0.3308 0.3308-0.51667 0.77944-0.51672 1.2472-0.11657 0.11666-0.18206 0.27484-0.18206 0.43977 0 0.46782 0.18581 0.91649 0.51655 1.2473 6.4e-5 0.16492 0.06561 0.32308 0.18223 0.4397 0.3308 0.3308 0.77944 0.51667 1.2472 0.51672 0.11666 0.11657 0.27484 0.18206 0.43977 0.18206 0.46782 0 0.91649-0.18581 1.2473-0.51655 0.16492-6.4e-5 0.32308-0.06561 0.4397-0.18223 0.3308-0.3308 0.51667-0.77944 0.51672-1.2472 0.11657-0.11666 0.18206-0.27484 0.18206-0.43977 0-0.46782-0.18581-0.91649-0.51655-1.2473-6.4e-5 -0.16492-0.06561-0.32308-0.18223-0.4397-0.3308-0.3308-0.77944-0.51667-1.2472-0.51672-0.11666-0.11657-0.27484-0.18206-0.43977-0.18206" color="#000000" color-rendering="auto" dominant-baseline="auto" fill-opacity=".012461" image-rendering="auto" opacity="1" solid-color="#000000" style="font-feature-settings:normal;font-variant-alternates:normal;font-variant-caps:normal;font-variant-ligatures:normal;font-variant-numeric:normal;font-variant-position:normal;isolation:auto;mix-blend-mode:normal;paint-order:normal;shape-padding:0;text-decoration-color:#000000;text-decoration-line:none;text-decoration-style:solid;text-indent:0;text-orientation:mixed;text-transform:none;white-space:normal"/>
			<path d="m21.845 31.845v20.668s4.1e-5 -6.2e-5 1.21e-4 -1.86e-4c0.01017-0.0157 2.1698-3.3515 2.1698-3.3515 4e-5 -6.2e-5 8.1e-5 -1.25e-4 1.21e-4 -1.88e-4 2.1795-3.3684 3.9465-4.6465 5.4017-4.9271 1.09e-4 -2.1e-5 2.17e-4 -4.1e-5 3.25e-4 -6.2e-5 1.4551-0.28048 2.9795 0.34961 4.874 1.6195 6.7e-5 4.4e-5 1.34e-4 8.9e-5 2.01e-4 1.34e-4 3.5938 2.4089 8.1122 6.8285 14.68 8.1176v0.28334h-27.127v2.3588h29.485v-4.5588s-7.6e-5 -1e-5 -2.25e-4 -3e-5c-0.0094-0.0013-1.0202-0.13818-1.0202-0.13818-1.17e-4 -1.6e-5 -2.33e-4 -3.2e-5 -3.49e-4 -4.7e-5 -6.2546-0.84768-10.551-5.2386-14.706-8.0232-7.8e-5 -5.2e-5 -1.55e-4 -1.04e-4 -2.32e-4 -1.55e-4 -2.0772-1.3923-4.2525-2.4356-6.634-1.9763-6e-5 1.2e-5 -1.21e-4 2.4e-5 -1.82e-4 3.6e-5 -1.6337 0.31514-3.1949 1.5886-4.7659 3.3447v-11.057h24.767v9.4262h2.3588v-11.785h-29.485m6.825 1.4368m15.584 3.2808c-0.43516 0-0.8525 0.17283-1.1602 0.48047-0.19044 7.4e-5 -0.37306 0.07576-0.50772 0.21042-0.3077 0.3077-0.4806 0.72502-0.48067 1.1602-0.13461 0.13471-0.21022 0.31736-0.21022 0.5078 0 0.43516 0.17283 0.8525 0.48047 1.1602 7.4e-5 0.19044 0.07576 0.37306 0.21042 0.50772 0.3077 0.3077 0.72502 0.4806 1.1602 0.48066 0.13471 0.13461 0.31736 0.21022 0.5078 0.21022 0.43516 0 0.8525-0.17283 1.1602-0.48047 0.19044-7.3e-5 0.37306-0.07576 0.50772-0.21042 0.3077-0.3077 0.4806-0.72502 0.48067-1.1602 0.13461-0.13471 0.21022-0.31736 0.21022-0.5078 0-0.43516-0.17283-0.8525-0.48047-1.1602-7.4e-5 -0.19044-0.07576-0.37306-0.21042-0.50772-0.3077-0.3077-0.72502-0.4806-1.1602-0.48066-0.13471-0.13461-0.31736-0.21022-0.5078-0.21022" color="#000000" color-rendering="auto" dominant-baseline="auto" fill-opacity=".013782" image-rendering="auto" opacity="1" solid-color="#000000" style="font-feature-settings:normal;font-variant-alternates:normal;font-variant-caps:normal;font-variant-ligatures:normal;font-variant-numeric:normal;font-variant-position:normal;isolation:auto;mix-blend-mode:normal;paint-order:normal;shape-padding:0;text-decoration-color:#000000;text-decoration-line:none;text-decoration-style:solid;text-indent:0;text-orientation:mixed;text-transform:none;white-space:normal"/>
			<path d="m21.59 31.59v20.459s4.5e-5 -7e-5 1.35e-4 -2.08e-4c0.01137-0.01756 2.148-3.3177 2.148-3.3177 4.6e-5 -7e-5 9.1e-5 -1.4e-4 1.36e-4 -2.1e-4 2.1576-3.3345 3.9068-4.5997 5.3473-4.8775 1.21e-4 -2.3e-5 2.42e-4 -4.6e-5 3.63e-4 -7e-5 1.4405-0.27764 2.9495 0.34611 4.8249 1.6032l2.25e-4 1.5e-4c3.5576 2.3847 8.0305 6.7598 14.533 8.0359v0.28049h-26.854v2.3351h29.189v-4.5129s-8.4e-5 -1.2e-5 -2.51e-4 -3.4e-5c-0.01052-0.0014-1.01-0.13679-1.01-0.13679-1.3e-4 -1.7e-5 -2.6e-4 -3.5e-5 -3.9e-4 -5.3e-5 -6.1916-0.83916-10.445-5.1859-14.557-7.9425-8.6e-5 -5.8e-5 -1.72e-4 -1.16e-4 -2.59e-4 -1.74e-4 -2.0562-1.3782-4.2097-2.411-6.5672-1.9564l-2.04e-4 3.9e-5c-1.6173 0.31197-3.1627 1.5726-4.7179 3.3111v-10.946h24.518v9.3313h2.3351v-11.666h-29.189m7.6306 1.6064m14.553 3.0638c-0.40638 0-0.79613 0.16139-1.0835 0.44868-0.21291 8.3e-5 -0.41709 0.0847-0.56765 0.23526-0.28736 0.28736-0.44882 0.67707-0.4489 1.0834-0.1505 0.15061-0.23504 0.35482-0.23504 0.56774 0 0.40638 0.16139 0.79613 0.44868 1.0835 8.3e-5 0.21292 0.0847 0.41709 0.23526 0.56765 0.28736 0.28736 0.67707 0.44882 1.0834 0.4489 0.15061 0.1505 0.35482 0.23504 0.56774 0.23504 0.40638 0 0.79613-0.16139 1.0835-0.44868 0.21291-8.2e-5 0.41709-0.0847 0.56765-0.23526 0.28736-0.28736 0.44882-0.67707 0.4489-1.0834 0.1505-0.15061 0.23504-0.35482 0.23504-0.56774 0-0.40638-0.16139-0.79613-0.44868-1.0835-8.3e-5 -0.21292-0.0847-0.41709-0.23526-0.56765-0.28736-0.28736-0.67707-0.44882-1.0834-0.4489-0.15061-0.1505-0.35482-0.23504-0.56774-0.23504" color="#000000" color-rendering="auto" dominant-baseline="auto" fill-opacity=".014946" image-rendering="auto" opacity="1" solid-color="#000000" style="font-feature-settings:normal;font-variant-alternates:normal;font-variant-caps:normal;font-variant-ligatures:normal;font-variant-numeric:normal;font-variant-position:normal;isolation:auto;mix-blend-mode:normal;paint-order:normal;shape-padding:0;text-decoration-color:#000000;text-decoration-line:none;text-decoration-style:solid;text-indent:0;text-orientation:mixed;text-transform:none;white-space:normal"/>
			<path d="m21.36 31.36v20.271s4.9e-5 -7.6e-5 1.47e-4 -2.28e-4c0.01245-0.01923 2.1282-3.2872 2.1282-3.2872 4.9e-5 -7.7e-5 9.9e-5 -1.53e-4 1.48e-4 -2.3e-4 2.1377-3.3038 3.8709-4.5574 5.2982-4.8326 1.33e-4 -2.5e-5 2.65e-4 -5.1e-5 3.98e-4 -7.7e-5 1.4272-0.27507 2.9224 0.34295 4.7805 1.5884l2.46e-4 1.65e-4c3.5249 2.3628 7.9567 6.6976 14.399 7.962v0.2779h-26.607v2.3137h28.92v-4.4714s-9.3e-5 -1.2e-5 -2.76e-4 -3.7e-5c-0.01153-0.0016-1.0006-0.13553-1.0006-0.13553-1.42e-4 -2e-5 -2.84e-4 -3.9e-5 -4.27e-4 -5.8e-5 -6.1347-0.83146-10.349-5.1382-14.424-7.8695-9.5e-5 -6.3e-5 -1.9e-4 -1.27e-4 -2.84e-4 -1.9e-4 -2.0373-1.3656-4.171-2.3888-6.5068-1.9384-7.4e-5 1.4e-5 -1.49e-4 2.9e-5 -2.23e-4 4.3e-5 -1.6024 0.30911-3.1336 1.5581-4.6745 3.2806v-10.845h24.293v9.2455h2.3137v-11.559h-28.92m8.3589 1.7598m13.621 2.8675c-0.38037 0-0.74516 0.15106-1.0142 0.41994-0.23324 9.1e-5 -0.4569 0.09278-0.62183 0.25771-0.26896 0.26896-0.4201 0.63372-0.42018 1.0141-0.16486 0.16499-0.25747 0.38868-0.25747 0.62193 0 0.38037 0.15106 0.74516 0.41994 1.0142 9e-5 0.23324 0.09278 0.4569 0.25771 0.62183 0.26896 0.26896 0.63372 0.4201 1.0141 0.42018 0.16499 0.16486 0.38868 0.25747 0.62193 0.25747 0.38037 0 0.74516-0.15106 1.0142-0.41994 0.23324-9.1e-5 0.4569-0.09278 0.62183-0.25771 0.26896-0.26896 0.4201-0.63372 0.42018-1.0141 0.16486-0.16499 0.25747-0.38868 0.25747-0.62193 0-0.38037-0.15106-0.74516-0.41994-1.0142-9e-5 -0.23324-0.09278-0.4569-0.25771-0.62183-0.26896-0.26896-0.63372-0.4201-1.0141-0.42018-0.16499-0.16486-0.38868-0.25747-0.62193-0.25747" color="#000000" color-rendering="auto" dominant-baseline="auto" fill-opacity=".015998" image-rendering="auto" opacity="1" solid-color="#000000" style="font-feature-settings:normal;font-variant-alternates:normal;font-variant-caps:normal;font-variant-ligatures:normal;font-variant-numeric:normal;font-variant-position:normal;isolation:auto;mix-blend-mode:normal;paint-order:normal;shape-padding:0;text-decoration-color:#000000;text-decoration-line:none;text-decoration-style:solid;text-indent:0;text-orientation:mixed;text-transform:none;white-space:normal"/>
			<path d="m21.149 31.149v20.098s5.4e-5 -8.3e-5 1.59e-4 -2.46e-4c0.01345-0.02077 2.11-3.2591 2.11-3.2591 5.3e-5 -8.3e-5 1.07e-4 -1.65e-4 1.61e-4 -2.48e-4 2.1195-3.2756 3.8378-4.5185 5.2529-4.7914 1.44e-4 -2.8e-5 2.87e-4 -5.5e-5 4.3e-4 -8.3e-5 1.415-0.2727 2.8974 0.34004 4.7397 1.5749 8.8e-5 6e-5 1.77e-4 1.19e-4 2.65e-4 1.78e-4 3.4948 2.3426 7.8888 6.6405 14.276 7.894v0.27554h-26.38v2.2939h28.674v-4.4332s-1e-4 -1.3e-5 -2.98e-4 -4e-5c-0.01245-0.0017-0.99208-0.13437-0.99208-0.13437-1.54e-4 -2e-5 -3.08e-4 -4.1e-5 -4.61e-4 -6.2e-5 -6.0823-0.82438-10.261-5.0944-14.301-7.8023-1.03e-4 -6.9e-5 -2.05e-4 -1.37e-4 -3.07e-4 -2.05e-4 -2.0199-1.3539-4.1354-2.3684-6.4513-1.9218-8e-5 1.5e-5 -1.6e-4 3.1e-5 -2.41e-4 4.6e-5 -1.5887 0.30648-3.1069 1.5449-4.6346 3.2526v-10.752h24.085v9.1666h2.2939v-11.46h-28.674m9.0286 1.9008m12.763 2.687c-0.35644 0-0.69829 0.14155-0.95038 0.39351-0.25192 9.7e-5 -0.49351 0.10022-0.67165 0.27836-0.25204 0.25204-0.39368 0.59386-0.39377 0.95027-0.17807 0.17821-0.2781 0.41983-0.2781 0.67176 0 0.35644 0.14155 0.6983 0.39351 0.95038 9.7e-5 0.25192 0.10022 0.49351 0.27836 0.67165 0.25204 0.25204 0.59386 0.39368 0.95027 0.39377 0.17821 0.17807 0.41983 0.2781 0.67176 0.2781 0.35644 0 0.6983-0.14155 0.95038-0.3935 0.25192-9.8e-5 0.49351-0.10022 0.67165-0.27836 0.25204-0.25204 0.39368-0.59386 0.39377-0.95027 0.17807-0.17821 0.2781-0.41983 0.2781-0.67176 0-0.35644-0.14155-0.69829-0.3935-0.95038-9.8e-5 -0.25192-0.10022-0.49351-0.27836-0.67165-0.25204-0.25204-0.59386-0.39368-0.95027-0.39377-0.17821-0.17807-0.41983-0.2781-0.67176-0.2781" color="#000000" color-rendering="auto" dominant-baseline="auto" fill-opacity=".016966" image-rendering="auto" opacity="1" solid-color="#000000" style="font-feature-settings:normal;font-variant-alternates:normal;font-variant-caps:normal;font-variant-ligatures:normal;font-variant-numeric:normal;font-variant-position:normal;isolation:auto;mix-blend-mode:normal;paint-order:normal;shape-padding:0;text-decoration-color:#000000;text-decoration-line:none;text-decoration-style:solid;text-indent:0;text-orientation:mixed;text-transform:none;white-space:normal"/>
			<path d="m20.952 30.952v19.937s5.7e-5 -8.8e-5 1.7e-4 -2.63e-4c0.01438-0.0222 2.0931-3.233 2.0931-3.233 5.8e-5 -8.8e-5 1.15e-4 -1.77e-4 1.72e-4 -2.65e-4 2.1025-3.2494 3.8071-4.4823 5.2109-4.753 1.53e-4 -3e-5 3.06e-4 -5.9e-5 4.59e-4 -8.9e-5 1.4037-0.2705 2.8742 0.33733 4.7017 1.5623 9.5e-5 6.4e-5 1.89e-4 1.27e-4 2.84e-4 1.9e-4 3.4668 2.3238 7.8256 6.5873 14.162 7.8308v0.27333h-26.168v2.2755h28.444v-4.3978s-1.07e-4 -1.5e-5 -3.18e-4 -4.4e-5c-0.01331-0.0018-0.98411-0.13329-0.98411-0.13329-1.65e-4 -2.2e-5 -3.29e-4 -4.4e-5 -4.94e-4 -6.7e-5 -6.0336-0.81778-10.178-5.0535-14.186-7.7398l-3.27e-4 -2.19e-4c-2.0038-1.3431-4.1022-2.3495-6.3996-1.9064-8.6e-5 1.6e-5 -1.72e-4 3.3e-5 -2.57e-4 4.9e-5 -1.576 0.30403-3.082 1.5325-4.5974 3.2266v-10.666h23.892v9.0932h2.2755v-11.368h-28.444m9.652 2.032m11.965 2.519c-0.33418 0-0.65467 0.1327-0.89101 0.3689-0.26932 1.04e-4 -0.52758 0.10714-0.71803 0.29758-0.2363 0.2363-0.36909 0.55676-0.36918 0.89089-0.19036 0.19051-0.2973 0.44881-0.2973 0.71814 0 0.33418 0.1327 0.65467 0.3689 0.89101 1.05e-4 0.26932 0.10714 0.52758 0.29758 0.71803 0.2363 0.2363 0.55676 0.36909 0.89089 0.36918 0.19051 0.19036 0.44881 0.2973 0.71814 0.2973 0.33418 0 0.65467-0.1327 0.89101-0.3689 0.26932-1.04e-4 0.52758-0.10714 0.71803-0.29758 0.2363-0.2363 0.36909-0.55676 0.36918-0.89089 0.19036-0.19051 0.2973-0.44881 0.2973-0.71814 0-0.33418-0.1327-0.65467-0.3689-0.89101-1.04e-4 -0.26932-0.10714-0.52758-0.29758-0.71803-0.2363-0.2363-0.55676-0.36909-0.89089-0.36918-0.19051-0.19036-0.44881-0.2973-0.71814-0.2973" color="#000000" color-rendering="auto" dominant-baseline="auto" fill-opacity=".017867" image-rendering="auto" opacity="1" solid-color="#000000" style="font-feature-settings:normal;font-variant-alternates:normal;font-variant-caps:normal;font-variant-ligatures:normal;font-variant-numeric:normal;font-variant-position:normal;isolation:auto;mix-blend-mode:normal;paint-order:normal;shape-padding:0;text-decoration-color:#000000;text-decoration-line:none;text-decoration-style:solid;text-indent:0;text-orientation:mixed;text-transform:none;white-space:normal"/>
			<path d="m20.767 30.767v19.786l1.8e-4 -2.79e-4c0.01525-0.02355 2.0772-3.2085 2.0772-3.2085 6.1e-5 -9.4e-5 1.22e-4 -1.88e-4 1.83e-4 -2.81e-4 2.0865-3.2247 3.7782-4.4483 5.1713-4.7169 1.62e-4 -3.1e-5 3.25e-4 -6.2e-5 4.87e-4 -9.3e-5 1.393-0.26844 2.8524 0.33479 4.666 1.5504l3e-4 2.01e-4c3.4405 2.3062 7.7662 6.5373 14.054 7.7714v0.27125h-25.97v2.2583h28.228v-4.3644s-1.14e-4 -1.5e-5 -3.38e-4 -4.6e-5c-0.01412-0.0019-0.97662-0.13227-0.97662-0.13227-1.74e-4 -2.4e-5 -3.49e-4 -4.7e-5 -5.23e-4 -7.1e-5 -5.9878-0.8116-10.101-5.0152-14.078-7.6811-1.16e-4 -7.8e-5 -2.32e-4 -1.55e-4 -3.48e-4 -2.33e-4 -1.9886-1.3329-4.0711-2.3316-6.351-1.8919-9.1e-5 1.7e-5 -1.82e-4 3.5e-5 -2.73e-4 5.2e-5 -1.564 0.30173-3.0586 1.5209-4.5626 3.2021v-10.585h23.712v9.0242h2.2583v-11.282h-28.228m10.238 2.1553m11.216 2.3613c-0.31326 0-0.6137 0.12439-0.83525 0.3458-0.28566 1.11e-4 -0.55959 0.11363-0.76158 0.31563-0.22151 0.22151-0.346 0.52191-0.3461 0.83513-0.20191 0.20207-0.31534 0.47604-0.31534 0.7617 0 0.31326 0.12439 0.6137 0.3458 0.83525 1.11e-4 0.28566 0.11363 0.55958 0.31563 0.76158 0.22151 0.22151 0.52191 0.346 0.83513 0.3461 0.20207 0.20191 0.47604 0.31534 0.7617 0.31534 0.31326 0 0.6137-0.12439 0.83525-0.3458 0.28566-1.11e-4 0.55959-0.11364 0.76158-0.31563 0.22151-0.22151 0.346-0.52191 0.3461-0.83513 0.20191-0.20207 0.31534-0.47604 0.31534-0.7617 0-0.31326-0.12439-0.6137-0.3458-0.83525-1.11e-4 -0.28566-0.11363-0.55959-0.31563-0.76158-0.22151-0.22151-0.52191-0.346-0.83513-0.3461-0.20207-0.20191-0.47604-0.31534-0.7617-0.31534" color="#000000" color-rendering="auto" dominant-baseline="auto" fill-opacity=".018713" image-rendering="auto" opacity="1" solid-color="#000000" style="font-feature-settings:normal;font-variant-alternates:normal;font-variant-caps:normal;font-variant-ligatures:normal;font-variant-numeric:normal;font-variant-position:normal;isolation:auto;mix-blend-mode:normal;paint-order:normal;shape-padding:0;text-decoration-color:#000000;text-decoration-line:none;text-decoration-style:solid;text-indent:0;text-orientation:mixed;text-transform:none;white-space:normal"/>
			<path d="m20.592 30.592v19.643s6.4e-5 -9.8e-5 1.9e-4 -2.94e-4c0.01607-0.02483 2.0622-3.1853 2.0622-3.1853l1.92e-4 -2.97e-4c2.0715-3.2014 3.7509-4.4161 5.1339-4.6828 1.71e-4 -3.3e-5 3.42e-4 -6.6e-5 5.14e-4 -9.9e-5 1.3829-0.26648 2.8317 0.33238 4.6322 1.5392 1.05e-4 7.1e-5 2.11e-4 1.42e-4 3.17e-4 2.13e-4 3.4156 2.2896 7.7101 6.4901 13.953 7.7152v0.26929h-25.782v2.2419h28.024v-4.3328s-1.2e-4 -1.6e-5 -3.56e-4 -4.8e-5c-0.01488-2e-3 -0.96955-0.13132-0.96955-0.13132-1.84e-4 -2.5e-5 -3.68e-4 -5e-5 -5.52e-4 -7.5e-5 -5.9445-0.80574-10.028-4.979-13.977-7.6256-1.22e-4 -8.2e-5 -2.44e-4 -1.64e-4 -3.67e-4 -2.46e-4 -1.9742-1.3232-4.0417-2.3148-6.3051-1.8783-9.6e-5 1.9e-5 -1.92e-4 3.7e-5 -2.88e-4 5.6e-5 -1.5527 0.29956-3.0365 1.5099-4.5296 3.1789v-10.509h23.541v8.959h2.2419v-11.201h-28.024m10.791 2.2718m10.507 2.212c-0.29348 0-0.57495 0.11653-0.78251 0.32394-0.30111 1.17e-4 -0.58986 0.11978-0.80278 0.3327-0.20752 0.20752-0.32415 0.48895-0.32426 0.78238-0.21283 0.213-0.33239 0.50179-0.33239 0.80291 0 0.29348 0.11653 0.57495 0.32394 0.78251 1.17e-4 0.30111 0.11978 0.58986 0.3327 0.80278 0.20752 0.20752 0.48895 0.32415 0.78238 0.32426 0.213 0.21283 0.50179 0.33239 0.80291 0.33239 0.29348 0 0.57495-0.11653 0.78251-0.32394 0.30111-1.16e-4 0.58986-0.11978 0.80278-0.3327 0.20752-0.20752 0.32415-0.48895 0.32426-0.78238 0.21283-0.213 0.33239-0.50179 0.33239-0.80291 0-0.29348-0.11653-0.57495-0.32394-0.78251-1.17e-4 -0.30111-0.11978-0.58986-0.3327-0.80278-0.20752-0.20752-0.48895-0.32415-0.78238-0.32426-0.213-0.21283-0.50179-0.33239-0.80291-0.33239" color="#000000" color-rendering="auto" dominant-baseline="auto" fill-opacity=".019513" image-rendering="auto" opacity="1" solid-color="#000000" style="font-feature-settings:normal;font-variant-alternates:normal;font-variant-caps:normal;font-variant-ligatures:normal;font-variant-numeric:normal;font-variant-position:normal;isolation:auto;mix-blend-mode:normal;paint-order:normal;shape-padding:0;text-decoration-color:#000000;text-decoration-line:none;text-decoration-style:solid;text-indent:0;text-orientation:mixed;text-transform:none;white-space:normal"/>
			<path d="m20.426 30.426v19.507s6.7e-5 -1.04e-4 1.99e-4 -3.09e-4c0.01686-0.02604 2.0479-3.1632 2.0479-3.1632 6.7e-5 -1.04e-4 1.34e-4 -2.08e-4 2.01e-4 -3.11e-4 2.0571-3.1792 3.7249-4.3855 5.0984-4.6504 1.8e-4 -3.5e-5 3.59e-4 -6.9e-5 5.39e-4 -1.04e-4 1.3734-0.26462 2.8121 0.33009 4.6001 1.5286 1.1e-4 7.5e-5 2.21e-4 1.49e-4 3.32e-4 2.23e-4 3.392 2.2737 7.6567 6.4451 13.856 7.6618v0.26743h-25.604v2.2264h27.83v-4.3028s-1.26e-4 -1.7e-5 -3.74e-4 -5e-5c-0.01561-0.0021-0.96281-0.1304-0.96281-0.1304-1.93e-4 -2.6e-5 -3.86e-4 -5.3e-5 -5.79e-4 -7.9e-5 -5.9033-0.80017-9.9586-4.9445-13.88-7.5728-1.28e-4 -8.6e-5 -2.56e-4 -1.72e-4 -3.84e-4 -2.57e-4 -1.9605-1.3141-4.0137-2.2987-6.2614-1.8652-1.01e-4 2e-5 -2.02e-4 3.9e-5 -3.03e-4 5.8e-5 -1.542 0.29749-3.0154 1.4994-4.4982 3.1569v-10.436h23.378v8.897h2.2264v-11.123h-27.83m11.318 2.3827m9.833 2.0701c-0.27467 0-0.53809 0.10905-0.73235 0.30316-0.3158 1.22e-4 -0.61864 0.12563-0.84196 0.34894-0.19422 0.19422-0.30338 0.4576-0.30349 0.73222-0.22322 0.22339-0.34862 0.52628-0.34862 0.8421 0 0.27467 0.10905 0.53809 0.30316 0.73235 1.23e-4 0.3158 0.12563 0.61864 0.34894 0.84196 0.19422 0.19422 0.4576 0.30338 0.73222 0.30349 0.22339 0.22322 0.52628 0.34862 0.8421 0.34862 0.27467 0 0.53809-0.10905 0.73235-0.30316 0.3158-1.22e-4 0.61864-0.12563 0.84196-0.34894 0.19422-0.19422 0.30338-0.4576 0.30349-0.73222 0.22322-0.22339 0.34862-0.52628 0.34862-0.8421 0-0.27467-0.10905-0.53809-0.30316-0.73236-1.23e-4 -0.3158-0.12563-0.61864-0.34894-0.84196-0.19422-0.19422-0.4576-0.30338-0.73222-0.30349-0.22339-0.22322-0.52628-0.34862-0.8421-0.34862" color="#000000" color-rendering="auto" dominant-baseline="auto" fill-opacity=".020274" image-rendering="auto" opacity="1" solid-color="#000000" style="font-feature-settings:normal;font-variant-alternates:normal;font-variant-caps:normal;font-variant-ligatures:normal;font-variant-numeric:normal;font-variant-position:normal;isolation:auto;mix-blend-mode:normal;paint-order:normal;shape-padding:0;text-decoration-color:#000000;text-decoration-line:none;text-decoration-style:solid;text-indent:0;text-orientation:mixed;text-transform:none;white-space:normal"/>
			<path d="m20.267 30.267v19.377s7e-5 -1.08e-4 2.08e-4 -3.22e-4c0.01761-0.0272 2.0343-3.1421 2.0343-3.1421 7e-5 -1.09e-4 1.4e-4 -2.17e-4 2.1e-4 -3.26e-4 2.0434-3.158 3.7001-4.3563 5.0644-4.6194 1.87e-4 -3.6e-5 3.75e-4 -7.2e-5 5.62e-4 -1.08e-4 1.3642-0.26285 2.7934 0.32791 4.5695 1.5184 1.16e-4 7.8e-5 2.32e-4 1.55e-4 3.47e-4 2.33e-4 3.3694 2.2586 7.6057 6.4022 13.764 7.6107v0.26565h-25.433v2.2116h27.645v-4.2741s-1.32e-4 -1.8e-5 -3.9e-4 -5.3e-5c-0.0163-0.0022-0.95638-0.12953-0.95638-0.12953-2.02e-4 -2.8e-5 -4.03e-4 -5.5e-5 -6.04e-4 -8.2e-5 -5.864-0.79485-9.8923-4.9116-13.787-7.5223-1.34e-4 -9e-5 -2.67e-4 -1.8e-4 -4.01e-4 -2.69e-4 -1.9474-1.3053-3.9869-2.2834-6.2197-1.8528-1.06e-4 2e-5 -2.11e-4 4.1e-5 -3.16e-4 6.1e-5 -1.5317 0.29551-2.9953 1.4894-4.4682 3.1359v-10.367h23.222v8.8377h2.2116v-11.049h-27.645m11.821 2.4887m9.1888 1.9345c-0.25669 0-0.50287 0.10191-0.68443 0.2833-0.32985 1.28e-4 -0.64615 0.13121-0.8794 0.36446-0.18151 0.18151-0.28353 0.42764-0.28364 0.68429-0.23314 0.23333-0.36412 0.54968-0.36412 0.87954 0 0.25669 0.1019 0.50287 0.2833 0.68443 1.28e-4 0.32984 0.13121 0.64615 0.36446 0.8794 0.18151 0.18151 0.42764 0.28353 0.68428 0.28364 0.23333 0.23315 0.54968 0.36412 0.87954 0.36412 0.25669 0 0.50287-0.10191 0.68443-0.2833 0.32985-1.28e-4 0.64615-0.13121 0.8794-0.36446 0.18151-0.18151 0.28353-0.42764 0.28364-0.68429 0.23314-0.23333 0.36412-0.54968 0.36412-0.87954 0-0.25669-0.1019-0.50287-0.2833-0.68443-1.28e-4 -0.32985-0.13121-0.64615-0.36446-0.8794-0.18151-0.18151-0.42764-0.28353-0.68428-0.28364-0.23333-0.23315-0.54968-0.36412-0.87954-0.36412" color="#000000" color-rendering="auto" dominant-baseline="auto" fill-opacity=".021001" image-rendering="auto" opacity="1" solid-color="#000000" style="font-feature-settings:normal;font-variant-alternates:normal;font-variant-caps:normal;font-variant-ligatures:normal;font-variant-numeric:normal;font-variant-position:normal;isolation:auto;mix-blend-mode:normal;paint-order:normal;shape-padding:0;text-decoration-color:#000000;text-decoration-line:none;text-decoration-style:solid;text-indent:0;text-orientation:mixed;text-transform:none;white-space:normal"/>
			<path d="m20.115 30.115v19.253s7.3e-5 -1.12e-4 2.17e-4 -3.35e-4c0.01833-0.02831 2.0212-3.1219 2.0212-3.1219l2.19e-4 -3.39e-4c2.0303-3.1377 3.6763-4.3282 5.0318-4.5896 1.95e-4 -3.8e-5 3.9e-4 -7.5e-5 5.85e-4 -1.13e-4 1.3554-0.26114 2.7754 0.32581 4.54 1.5086 1.21e-4 8.1e-5 2.41e-4 1.62e-4 3.62e-4 2.43e-4 3.3477 2.244 7.5568 6.361 13.675 7.5618v0.26394h-25.269v2.1973h27.467v-4.2467s-1.36e-4 -1.8e-5 -4.06e-4 -5.5e-5c-0.01697-0.0023-0.95021-0.1287-0.95021-0.1287-2.1e-4 -2.9e-5 -4.19e-4 -5.7e-5 -6.29e-4 -8.6e-5 -5.8262-0.78975-9.8286-4.88-13.699-7.4739-1.39e-4 -9.4e-5 -2.78e-4 -1.87e-4 -4.17e-4 -2.8e-4 -1.9349-1.2969-3.9612-2.2687-6.1796-1.8409-1.1e-4 2.1e-5 -2.19e-4 4.2e-5 -3.29e-4 6.3e-5 -1.5218 0.29361-2.9761 1.4799-4.4394 3.1157v-10.3h23.073v8.7809h2.1973v-10.978h-27.467m12.304 2.5903m8.5709 1.8044c-0.23945 0-0.46909 0.09505-0.63846 0.26425-0.34332 1.33e-4 -0.67254 0.13657-0.91531 0.37934-0.16932 0.16932-0.26449 0.39891-0.26461 0.63831-0.24266 0.24285-0.37898 0.57213-0.37898 0.91546 0 0.23945 0.09505 0.4691 0.26425 0.63846 1.33e-4 0.34331 0.13657 0.67254 0.37934 0.91531 0.16932 0.16932 0.39891 0.26449 0.63831 0.2646 0.24285 0.24267 0.57213 0.37899 0.91546 0.37899 0.23945 0 0.4691-0.09505 0.63846-0.26425 0.34331-1.33e-4 0.67254-0.13657 0.91531-0.37934 0.16931-0.16932 0.26449-0.39891 0.2646-0.63831 0.24267-0.24285 0.37899-0.57213 0.37899-0.91546 0-0.23945-0.09505-0.46909-0.26425-0.63846-1.33e-4 -0.34331-0.13657-0.67254-0.37934-0.91531-0.16932-0.16932-0.39891-0.26449-0.63831-0.2646-0.24285-0.24267-0.57213-0.37899-0.91546-0.37899" color="#000000" color-rendering="auto" dominant-baseline="auto" fill-opacity=".021698" image-rendering="auto" opacity="1" solid-color="#000000" style="font-feature-settings:normal;font-variant-alternates:normal;font-variant-caps:normal;font-variant-ligatures:normal;font-variant-numeric:normal;font-variant-position:normal;isolation:auto;mix-blend-mode:normal;paint-order:normal;shape-padding:0;text-decoration-color:#000000;text-decoration-line:none;text-decoration-style:solid;text-indent:0;text-orientation:mixed;text-transform:none;white-space:normal"/>
			<path d="m19.968 29.968v19.133l2.25e-4 -3.48e-4c0.01902-0.02938 2.0086-3.1024 2.0086-3.1024 7.6e-5 -1.17e-4 1.52e-4 -2.34e-4 2.27e-4 -3.51e-4 2.0176-3.1181 3.6534-4.3013 5.0005-4.561 2.02e-4 -3.9e-5 4.05e-4 -7.8e-5 6.07e-4 -1.17e-4 1.347-0.2595 2.7581 0.32379 4.5117 1.4993 1.25e-4 8.4e-5 2.5e-4 1.67e-4 3.75e-4 2.51e-4 3.3269 2.2301 7.5097 6.3213 13.59 7.5146v0.26229h-25.112v2.1836h27.296v-4.2202s-1.42e-4 -2e-5 -4.21e-4 -5.8e-5c-0.01761-0.0024-0.94427-0.12789-0.94427-0.12789-2.17e-4 -3e-5 -4.35e-4 -5.9e-5 -6.52e-4 -8.9e-5 -5.7899-0.78484-9.7674-4.8496-13.613-7.4274-1.44e-4 -9.7e-5 -2.88e-4 -1.94e-4 -4.33e-4 -2.91e-4 -1.9228-1.2888-3.9366-2.2545-6.1411-1.8294-1.13e-4 2.2e-5 -2.27e-4 4.4e-5 -3.41e-4 6.6e-5 -1.5123 0.29179-2.9575 1.4706-4.4118 3.0963v-10.236h22.929v8.7262h2.1836v-10.91h-27.296m12.768 2.6881m7.9764 1.6792c-0.22286 0-0.43659 0.08846-0.59423 0.24592-0.35627 1.39e-4 -0.69793 0.14173-0.94986 0.39366-0.15758 0.15758-0.24617 0.37127-0.24629 0.59407-0.25183 0.25202-0.39329 0.59372-0.39329 0.95001 0 0.22286 0.08846 0.43659 0.24592 0.59423 1.38e-4 0.35628 0.14173 0.69793 0.39366 0.94986 0.15758 0.15758 0.37127 0.24617 0.59407 0.24629 0.25202 0.25183 0.59372 0.39329 0.95001 0.39329 0.22286 0 0.43659-0.08846 0.59423-0.24592 0.35627-1.38e-4 0.69793-0.14173 0.94986-0.39366 0.15758-0.15758 0.24617-0.37127 0.24629-0.59407 0.25183-0.25202 0.39329-0.59372 0.39329-0.95001 0-0.22286-0.08846-0.43659-0.24592-0.59423-1.38e-4 -0.35627-0.14173-0.69793-0.39366-0.94986-0.15758-0.15758-0.37127-0.24617-0.59407-0.24629-0.25202-0.25183-0.59372-0.39329-0.95001-0.39329" color="#000000" color-rendering="auto" dominant-baseline="auto" fill-opacity=".022369" image-rendering="auto" opacity="1" solid-color="#000000" style="font-feature-settings:normal;font-variant-alternates:normal;font-variant-caps:normal;font-variant-ligatures:normal;font-variant-numeric:normal;font-variant-position:normal;isolation:auto;mix-blend-mode:normal;paint-order:normal;shape-padding:0;text-decoration-color:#000000;text-decoration-line:none;text-decoration-style:solid;text-indent:0;text-orientation:mixed;text-transform:none;white-space:normal"/>
			<path d="m19.826 29.826v19.017s7.8e-5 -1.21e-4 2.33e-4 -3.6e-4c0.01969-0.03041 1.9964-3.0836 1.9964-3.0836 7.9e-5 -1.21e-4 1.57e-4 -2.42e-4 2.36e-4 -3.64e-4 2.0054-3.0993 3.6313-4.2752 4.9702-4.5334 2.09e-4 -4e-5 4.19e-4 -8e-5 6.28e-4 -1.21e-4 1.3388-0.25792 2.7414 0.32185 4.4844 1.4902 1.29e-4 8.6e-5 2.59e-4 1.73e-4 3.88e-4 2.6e-4 3.3067 2.2166 7.4642 6.2831 13.508 7.4692v0.26071h-24.96v2.1705h27.131v-4.1947s-1.47e-4 -2e-5 -4.37e-4 -5.9e-5c-0.01823-0.0025-0.93854-0.12712-0.93854-0.12712-2.25e-4 -3e-5 -4.51e-4 -6.1e-5 -6.76e-4 -9.1e-5 -5.7549-0.7801-9.7083-4.8202-13.531-7.3824-1.49e-4 -1.01e-4 -2.99e-4 -2.01e-4 -4.48e-4 -3.01e-4 -1.9112-1.281-3.9127-2.2409-6.104-1.8183-1.18e-4 2.3e-5 -2.36e-4 4.6e-5 -3.53e-4 6.8e-5 -1.5032 0.29003-2.9396 1.4617-4.3851 3.0776v-10.174h22.79v8.6733h2.1705v-10.844h-27.131m13.217 2.7824m7.4028 1.5585c-0.20685 0-0.40523 0.0821-0.55155 0.22824-0.36878 1.43e-4 -0.72242 0.1467-0.9832 0.40748-0.14626 0.14626-0.22849 0.3446-0.22862 0.55139-0.26066 0.26087-0.4071 0.61456-0.4071 0.98336 0 0.20685 0.0821 0.40523 0.22824 0.55155 1.43e-4 0.36878 0.1467 0.72242 0.40748 0.9832 0.14626 0.14626 0.3446 0.22849 0.55139 0.22862 0.26087 0.26066 0.61456 0.4071 0.98336 0.4071 0.20685 0 0.40523-0.0821 0.55155-0.22824 0.36878-1.43e-4 0.72242-0.1467 0.9832-0.40748 0.14626-0.14626 0.22849-0.34459 0.22862-0.55139 0.26066-0.26087 0.4071-0.61456 0.4071-0.98336 0-0.20685-0.0821-0.40523-0.22824-0.55155-1.43e-4 -0.36878-0.1467-0.72242-0.40748-0.9832-0.14626-0.14626-0.3446-0.22849-0.55139-0.22862-0.26087-0.26066-0.61456-0.4071-0.98336-0.4071" color="#000000" color-rendering="auto" dominant-baseline="auto" fill-opacity=".023017" image-rendering="auto" opacity="1" solid-color="#000000" style="font-feature-settings:normal;font-variant-alternates:normal;font-variant-caps:normal;font-variant-ligatures:normal;font-variant-numeric:normal;font-variant-position:normal;isolation:auto;mix-blend-mode:normal;paint-order:normal;shape-padding:0;text-decoration-color:#000000;text-decoration-line:none;text-decoration-style:solid;text-indent:0;text-orientation:mixed;text-transform:none;white-space:normal"/>
			<path d="m19.689 29.689v18.905s8e-5 -1.25e-4 2.41e-4 -3.72e-4c0.02033-0.0314 1.9847-3.0655 1.9847-3.0655 8.1e-5 -1.25e-4 1.62e-4 -2.5e-4 2.43e-4 -3.75e-4 1.9936-3.081 3.6099-4.25 4.9409-4.5067 2.16e-4 -4.1e-5 4.32e-4 -8.3e-5 6.49e-4 -1.25e-4 1.3309-0.25639 2.7252 0.31996 4.458 1.4814 1.34e-4 9e-5 2.67e-4 1.79e-4 4.01e-4 2.69e-4 3.2873 2.2035 7.4203 6.2461 13.428 7.4252v0.25918h-24.813v2.1577h26.971v-4.17s-1.51e-4 -2.1e-5 -4.5e-4 -6.1e-5c-0.01882-0.0025-0.933-0.12637-0.933-0.12637-2.32e-4 -3.2e-5 -4.65e-4 -6.3e-5 -6.97e-4 -9.5e-5 -5.721-0.77551-9.6511-4.7919-13.451-7.339-1.54e-4 -1.04e-4 -3.09e-4 -2.07e-4 -4.63e-4 -3.11e-4 -1.9-1.2735-3.8897-2.2277-6.068-1.8076-1.22e-4 2.3e-5 -2.43e-4 4.7e-5 -3.65e-4 7e-5 -1.4943 0.28833-2.9223 1.4531-4.3593 3.0595v-10.114h22.656v8.6223h2.1577v-10.78h-26.971m13.65 2.8737m6.848 1.4417c-0.19136 0-0.3749 0.07595-0.51027 0.21113-0.38087 1.48e-4 -0.74612 0.15151-1.0154 0.42084-0.13532 0.13532-0.21139 0.3188-0.21152 0.51011-0.26921 0.26942-0.42045 0.63472-0.42045 1.0156 0 0.19136 0.07594 0.3749 0.21113 0.51027 1.47e-4 0.38087 0.15151 0.74612 0.42084 1.0154 0.13532 0.13532 0.3188 0.21139 0.51011 0.21152 0.26942 0.26921 0.63472 0.42045 1.0156 0.42045 0.19136 0 0.3749-0.07594 0.51027-0.21113 0.38087-1.47e-4 0.74611-0.15151 1.0154-0.42084 0.13532-0.13532 0.21139-0.3188 0.21152-0.51011 0.26921-0.26942 0.42045-0.63472 0.42045-1.0156 0-0.19136-0.07595-0.3749-0.21113-0.51027-1.47e-4 -0.38087-0.15151-0.74611-0.42084-1.0154-0.13532-0.13532-0.3188-0.21139-0.51011-0.21152-0.26942-0.26921-0.63472-0.42045-1.0156-0.42045" color="#000000" color-rendering="auto" dominant-baseline="auto" fill-opacity=".023643" image-rendering="auto" opacity="1" solid-color="#000000" style="font-feature-settings:normal;font-variant-alternates:normal;font-variant-caps:normal;font-variant-ligatures:normal;font-variant-numeric:normal;font-variant-position:normal;isolation:auto;mix-blend-mode:normal;paint-order:normal;shape-padding:0;text-decoration-color:#000000;text-decoration-line:none;text-decoration-style:solid;text-indent:0;text-orientation:mixed;text-transform:none;white-space:normal"/>
			<path d="m19.557 29.557v18.797s8.3e-5 -1.28e-4 2.48e-4 -3.83e-4c0.02096-0.03237 1.9733-3.0479 1.9733-3.0479 8.3e-5 -1.29e-4 1.67e-4 -2.58e-4 2.5e-4 -3.87e-4 1.9821-3.0633 3.5892-4.2256 4.9126-4.4809 2.23e-4 -4.3e-5 4.46e-4 -8.6e-5 6.69e-4 -1.29e-4 1.3233-0.25491 2.7096 0.31814 4.4324 1.4729 1.37e-4 9.3e-5 2.75e-4 1.85e-4 4.13e-4 2.77e-4 3.2684 2.1909 7.3777 6.2102 13.351 7.3826v0.25769h-24.671v2.1453h26.816v-4.146s-1.57e-4 -2.1e-5 -4.65e-4 -6.2e-5c-0.0194-0.0026-0.92763-0.12564-0.92763-0.12564-2.39e-4 -3.3e-5 -4.79e-4 -6.5e-5 -7.19e-4 -9.8e-5 -5.6881-0.77107-9.5957-4.7644-13.374-7.2969-1.59e-4 -1.06e-4 -3.18e-4 -2.13e-4 -4.77e-4 -3.2e-4 -1.889-1.2661-3.8674-2.2149-6.0332-1.7972-1.25e-4 2.4e-5 -2.51e-4 4.8e-5 -3.76e-4 7.2e-5 -1.4858 0.28668-2.9055 1.4448-4.3342 3.0419v-10.056h22.526v8.5728h2.1453v-10.718h-26.816m14.07 2.9621m6.3103 1.3285c-0.17636 0-0.3455 0.06998-0.47026 0.19455-0.3926 1.52e-4 -0.76908 0.15618-1.0467 0.43379-0.1247 0.1247-0.19482 0.29379-0.19496 0.4701-0.2775 0.27771-0.43339 0.65425-0.43339 1.0469 0 0.17636 0.06998 0.3455 0.19455 0.47026 1.52e-4 0.3926 0.15618 0.76908 0.43379 1.0467 0.1247 0.1247 0.29379 0.19482 0.4701 0.19496 0.27771 0.2775 0.65425 0.43339 1.0469 0.43339 0.17636 0 0.3455-0.06998 0.47026-0.19455 0.3926-1.52e-4 0.76908-0.15618 1.0467-0.43379 0.1247-0.1247 0.19482-0.29379 0.19496-0.4701 0.2775-0.27771 0.43339-0.65425 0.43339-1.0469 0-0.17636-0.06998-0.3455-0.19455-0.47026-1.52e-4 -0.3926-0.15618-0.76908-0.43379-1.0467-0.1247-0.1247-0.29379-0.19482-0.4701-0.19496-0.27771-0.2775-0.65425-0.43339-1.0469-0.43339" color="#000000" color-rendering="auto" dominant-baseline="auto" fill-opacity=".02425" image-rendering="auto" opacity="1" solid-color="#000000" style="font-feature-settings:normal;font-variant-alternates:normal;font-variant-caps:normal;font-variant-ligatures:normal;font-variant-numeric:normal;font-variant-position:normal;isolation:auto;mix-blend-mode:normal;paint-order:normal;shape-padding:0;text-decoration-color:#000000;text-decoration-line:none;text-decoration-style:solid;text-indent:0;text-orientation:mixed;text-transform:none;white-space:normal"/>
			<path d="m19.428 29.428v18.691s8.6e-5 -1.32e-4 2.56e-4 -3.95e-4c0.02156-0.03331 1.9622-3.0308 1.9622-3.0308 8.6e-5 -1.33e-4 1.72e-4 -2.66e-4 2.58e-4 -3.99e-4 1.971-3.0461 3.569-4.2019 4.885-4.4557 2.29e-4 -4.5e-5 4.59e-4 -8.9e-5 6.88e-4 -1.33e-4 1.3159-0.25347 2.6944 0.31637 4.4075 1.4647 1.42e-4 9.5e-5 2.84e-4 1.9e-4 4.26e-4 2.85e-4 3.2501 2.1786 7.3364 6.1754 13.276 7.3412v0.25624h-24.533v2.1333h26.666v-4.1228s-1.61e-4 -2.1e-5 -4.78e-4 -6.4e-5c-0.01996-0.0027-0.92242-0.12493-0.92242-0.12493-2.47e-4 -3.3e-5 -4.93e-4 -6.7e-5 -7.4e-4 -1e-4 -5.6563-0.76676-9.5419-4.7377-13.299-7.256-1.64e-4 -1.09e-4 -3.28e-4 -2.19e-4 -4.91e-4 -3.29e-4 -1.8785-1.259-3.8457-2.2025-5.9994-1.7871-1.29e-4 2.4e-5 -2.57e-4 4.9e-5 -3.86e-4 7.4e-5 -1.4774 0.28507-2.8892 1.4367-4.3099 3.0248v-9.9997h22.4v8.5248h2.1333v-10.658h-26.666m14.478 3.048m5.7881 1.2186c-0.16179 0-0.31696 0.06419-0.43142 0.17845-0.40398 1.57e-4 -0.79137 0.1607-1.077 0.44637-0.1144 0.1144-0.17873 0.26951-0.17887 0.43124-0.28554 0.28577-0.44595 0.67322-0.44595 1.0772 0 0.16179 0.06419 0.31696 0.17845 0.43142 1.57e-4 0.40398 0.1607 0.79137 0.44637 1.077 0.1144 0.1144 0.26951 0.17873 0.43124 0.17887 0.28577 0.28554 0.67322 0.44595 1.0772 0.44595 0.16179 0 0.31696-0.06419 0.43142-0.17845 0.40398-1.57e-4 0.79137-0.1607 1.077-0.44637 0.1144-0.1144 0.17873-0.26951 0.17887-0.43124 0.28554-0.28576 0.44595-0.67322 0.44595-1.0772 0-0.16179-0.06419-0.31696-0.17845-0.43142-1.56e-4 -0.40398-0.1607-0.79137-0.44637-1.077-0.1144-0.1144-0.26951-0.17873-0.43124-0.17887-0.28576-0.28554-0.67322-0.44595-1.0772-0.44595" color="#000000" color-rendering="auto" dominant-baseline="auto" fill-opacity=".024839" image-rendering="auto" opacity="1" solid-color="#000000" style="font-feature-settings:normal;font-variant-alternates:normal;font-variant-caps:normal;font-variant-ligatures:normal;font-variant-numeric:normal;font-variant-position:normal;isolation:auto;mix-blend-mode:normal;paint-order:normal;shape-padding:0;text-decoration-color:#000000;text-decoration-line:none;text-decoration-style:solid;text-indent:0;text-orientation:mixed;text-transform:none;white-space:normal"/>
			<path d="m19.303 29.303v18.589s8.8e-5 -1.36e-4 2.62e-4 -4.05e-4c0.02216-0.03422 1.9514-3.0142 1.9514-3.0142 8.8e-5 -1.37e-4 1.76e-4 -2.73e-4 2.65e-4 -4.09e-4 1.9602-3.0294 3.5495-4.1789 4.8583-4.4313 2.35e-4 -4.5e-5 4.71e-4 -9.1e-5 7.07e-4 -1.36e-4 1.3086-0.25207 2.6796 0.31464 4.3834 1.4567 1.45e-4 9.8e-5 2.91e-4 1.95e-4 4.36e-4 2.93e-4 3.2323 2.1667 7.2961 6.1416 13.204 7.3009v0.25484h-24.398v2.1216h26.52v-4.1003s-1.65e-4 -2.2e-5 -4.91e-4 -6.6e-5c-0.02051-0.0028-0.91734-0.12425-0.91734-0.12425-2.54e-4 -3.4e-5 -5.07e-4 -6.8e-5 -7.6e-4 -1.03e-4 -5.6252-0.76256-9.4896-4.7117-13.226-7.2162-1.68e-4 -1.13e-4 -3.36e-4 -2.26e-4 -5.05e-4 -3.38e-4 -1.8681-1.2521-3.8246-2.1904-5.9665-1.7773-1.33e-4 2.5e-5 -2.65e-4 5.1e-5 -3.98e-4 7.6e-5 -1.4693 0.28352-2.8734 1.4288-4.2863 3.0083v-9.9449h22.277v8.4781h2.1216v-10.599h-26.52m14.875 3.1315m5.2803 1.1116c-0.14762 0-0.2892 0.05856-0.39364 0.1628-0.41505 1.61e-4 -0.81306 0.16511-1.1066 0.4586-0.10438 0.10438-0.16308 0.2459-0.16323 0.39346-0.29337 0.2936-0.45817 0.69167-0.45817 1.1067 0 0.14762 0.05856 0.2892 0.1628 0.39364 1.61e-4 0.41505 0.16511 0.81306 0.4586 1.1066 0.10438 0.10438 0.2459 0.16308 0.39346 0.16323 0.2936 0.29337 0.69167 0.45817 1.1067 0.45817 0.14762 0 0.2892-0.05856 0.39364-0.1628 0.41505-1.61e-4 0.81306-0.16511 1.1066-0.4586 0.10438-0.10438 0.16308-0.2459 0.16323-0.39346 0.29337-0.2936 0.45817-0.69167 0.45817-1.1067 0-0.14762-0.05856-0.2892-0.1628-0.39364-1.61e-4 -0.41505-0.16511-0.81306-0.4586-1.1066-0.10438-0.10438-0.2459-0.16308-0.39346-0.16323-0.2936-0.29337-0.69167-0.45817-1.1067-0.45817" color="#000000" color-rendering="auto" dominant-baseline="auto" fill-opacity=".025412" image-rendering="auto" opacity="1" solid-color="#000000" style="font-feature-settings:normal;font-variant-alternates:normal;font-variant-caps:normal;font-variant-ligatures:normal;font-variant-numeric:normal;font-variant-position:normal;isolation:auto;mix-blend-mode:normal;paint-order:normal;shape-padding:0;text-decoration-color:#000000;text-decoration-line:none;text-decoration-style:solid;text-indent:0;text-orientation:mixed;text-transform:none;white-space:normal"/>
			<path d="m19.181 29.181v18.489s9e-5 -1.4e-4 2.69e-4 -4.16e-4c0.02273-0.03511 1.9409-2.998 1.9409-2.998 9e-5 -1.4e-4 1.81e-4 -2.8e-4 2.72e-4 -4.2e-4 1.9497-3.0132 3.5304-4.1565 4.8322-4.4075 2.42e-4 -4.6e-5 4.84e-4 -9.3e-5 7.26e-4 -1.39e-4 1.3016-0.2507 2.6652 0.31297 4.3598 1.4488 1.49e-4 1.01e-4 2.99e-4 2.01e-4 4.48e-4 3.01e-4 3.2149 2.155 7.257 6.1086 13.133 7.2617v0.25347h-24.267v2.1102h26.377v-4.0782s-1.7e-4 -2.3e-5 -5.04e-4 -6.8e-5c-0.02105-0.0029-0.9124-0.12358-0.9124-0.12358-2.6e-4 -3.6e-5 -5.2e-4 -7.1e-5 -7.79e-4 -1.06e-4 -5.595-0.75848-9.4386-4.6864-13.155-7.1774-1.73e-4 -1.15e-4 -3.45e-4 -2.31e-4 -5.18e-4 -3.47e-4 -1.8581-1.2454-3.8041-2.1786-5.9344-1.7678-1.35e-4 2.6e-5 -2.71e-4 5.3e-5 -4.07e-4 7.9e-5 -1.4614 0.282-2.8579 1.4212-4.2633 2.9921v-9.8915h22.157v8.4326h2.1102v-10.542h-26.377m15.261 3.2129m4.7857 1.0075c-0.13381 0-0.26215 0.05307-0.35684 0.14755-0.42583 1.65e-4 -0.83418 0.1694-1.1353 0.47052-0.09462 0.09462-0.14784 0.2229-0.14799 0.35665-0.30099 0.30122-0.47007 0.70964-0.47007 1.1355 0 0.13381 0.05307 0.26215 0.14755 0.35684 1.65e-4 0.42583 0.1694 0.83418 0.47051 1.1353 0.09462 0.09462 0.2229 0.14784 0.35665 0.14799 0.30122 0.30099 0.70964 0.47007 1.1355 0.47007 0.13381 0 0.26215-0.05307 0.35684-0.14755 0.42583-1.65e-4 0.83418-0.1694 1.1353-0.47052 0.09462-0.09462 0.14784-0.2229 0.14799-0.35665 0.30099-0.30122 0.47007-0.70964 0.47007-1.1355 0-0.13381-0.05307-0.26216-0.14755-0.35684-1.65e-4 -0.42583-0.1694-0.83418-0.47052-1.1353-0.09462-0.09462-0.2229-0.14784-0.35665-0.14799-0.30122-0.30099-0.70964-0.47007-1.1355-0.47007" color="#000000" color-rendering="auto" dominant-baseline="auto" fill-opacity=".025971" image-rendering="auto" opacity="1" solid-color="#000000" style="font-feature-settings:normal;font-variant-alternates:normal;font-variant-caps:normal;font-variant-ligatures:normal;font-variant-numeric:normal;font-variant-position:normal;isolation:auto;mix-blend-mode:normal;paint-order:normal;shape-padding:0;text-decoration-color:#000000;text-decoration-line:none;text-decoration-style:solid;text-indent:0;text-orientation:mixed;text-transform:none;white-space:normal"/>
			<path d="m19.062 29.062v18.392s9.2e-5 -1.43e-4 2.75e-4 -4.26e-4c0.02329-0.03598 1.9307-2.9822 1.9307-2.9822 9.3e-5 -1.43e-4 1.86e-4 -2.87e-4 2.78e-4 -4.3e-4 1.9394-2.9973 3.5118-4.1346 4.8067-4.3843 2.48e-4 -4.8e-5 4.96e-4 -9.6e-5 7.44e-4 -1.43e-4 1.2947-0.24938 2.6512 0.31133 4.3368 1.4412 1.53e-4 1.03e-4 3.06e-4 2.05e-4 4.59e-4 3.08e-4 3.198 2.1437 7.2188 6.0764 13.064 7.2235v0.25214h-24.139v2.0991h26.238v-4.0568s-1.73e-4 -2.3e-5 -5.16e-4 -7e-5c-0.02156-0.0029-0.90758-0.12292-0.90758-0.12292-2.67e-4 -3.6e-5 -5.33e-4 -7.2e-5 -8e-4 -1.08e-4 -5.5656-0.75449-9.3889-4.6617-13.086-7.1397-1.77e-4 -1.18e-4 -3.54e-4 -2.37e-4 -5.31e-4 -3.56e-4 -1.8483-1.2388-3.784-2.1671-5.9032-1.7585-1.39e-4 2.7e-5 -2.78e-4 5.4e-5 -4.17e-4 8.1e-5 -1.4537 0.28052-2.8429 1.4137-4.2408 2.9764v-9.8395h22.041v8.3882h2.0991v-10.487h-26.238m15.638 3.2922m4.3033 0.90596c-0.12035 0-0.23578 0.04772-0.32094 0.13268-0.43634 1.69e-4 -0.85478 0.17358-1.1633 0.48213-0.0851 0.0851-0.13298 0.20047-0.13313 0.32076-0.30842 0.30866-0.48168 0.72716-0.48168 1.1635 0 0.12035 0.04772 0.23578 0.13268 0.32094 1.69e-4 0.43634 0.17358 0.85478 0.48213 1.1633 0.0851 0.0851 0.20047 0.13298 0.32076 0.13313 0.30866 0.30842 0.72716 0.48168 1.1635 0.48168 0.12035 0 0.23578-0.04772 0.32094-0.13268 0.43634-1.69e-4 0.85478-0.17358 1.1633-0.48213 0.0851-0.0851 0.13298-0.20047 0.13313-0.32076 0.30842-0.30866 0.48168-0.72716 0.48168-1.1635 0-0.12035-0.04772-0.23578-0.13268-0.32094-1.69e-4 -0.43634-0.17358-0.85478-0.48213-1.1633-0.0851-0.0851-0.20047-0.13298-0.32076-0.13313-0.30866-0.30842-0.72716-0.48168-1.1635-0.48168" color="#000000" color-rendering="auto" dominant-baseline="auto" fill-opacity=".026515" image-rendering="auto" opacity="1" solid-color="#000000" style="font-feature-settings:normal;font-variant-alternates:normal;font-variant-caps:normal;font-variant-ligatures:normal;font-variant-numeric:normal;font-variant-position:normal;isolation:auto;mix-blend-mode:normal;paint-order:normal;shape-padding:0;text-decoration-color:#000000;text-decoration-line:none;text-decoration-style:solid;text-indent:0;text-orientation:mixed;text-transform:none;white-space:normal"/>
			<path d="m18.945 28.945v18.297s9.4e-5 -1.47e-4 2.82e-4 -4.36e-4c0.02384-0.03682 1.9207-2.9667 1.9207-2.9667 9.5e-5 -1.46e-4 1.9e-4 -2.93e-4 2.85e-4 -4.4e-4 1.9294-2.9818 3.4937-4.1132 4.7819-4.3616 2.54e-4 -4.9e-5 5.07e-4 -9.8e-5 7.61e-4 -1.47e-4 1.288-0.24808 2.6374 0.30973 4.3144 1.4338 1.57e-4 1.05e-4 3.14e-4 2.1e-4 4.7e-4 3.15e-4 3.1815 2.1326 7.1815 6.045 12.996 7.1862v0.25083h-24.015v2.0882h26.103v-4.0358s-1.78e-4 -2.4e-5 -5.28e-4 -7.2e-5c-0.02207-3e-3 -0.90288-0.12229-0.90288-0.12229-2.73e-4 -3.7e-5 -5.46e-4 -7.4e-5 -8.18e-4 -1.11e-4 -5.5368-0.7506-9.3404-4.6376-13.018-7.1028-1.81e-4 -1.21e-4 -3.62e-4 -2.43e-4 -5.44e-4 -3.64e-4 -1.8388-1.2324-3.7645-2.1559-5.8726-1.7494-1.43e-4 2.8e-5 -2.85e-4 5.5e-5 -4.28e-4 8.3e-5 -1.4462 0.27907-2.8282 1.4064-4.2189 2.961v-9.7887h21.927v8.3448h2.0882v-10.433h-26.103m16.006 3.3697m3.8323 0.80679c-0.10721 0-0.21003 0.0425-0.2859 0.11815-0.44661 1.74e-4 -0.8749 0.17766-1.1907 0.49348-0.07581 0.07581-0.11846 0.17856-0.11862 0.28571-0.31568 0.31593-0.49302 0.74427-0.49302 1.1909 0 0.10721 0.0425 0.21003 0.11815 0.2859 1.73e-4 0.44661 0.17766 0.8749 0.49348 1.1907 0.07581 0.07581 0.17856 0.11846 0.28571 0.11862 0.31592 0.31568 0.74427 0.49302 1.1909 0.49302 0.1072 0 0.21003-0.0425 0.2859-0.11815 0.44661-1.73e-4 0.8749-0.17766 1.1907-0.49348 0.07581-0.07581 0.11846-0.17856 0.11862-0.28571 0.31568-0.31593 0.49302-0.74427 0.49302-1.1909 0-0.1072-0.0425-0.21003-0.11815-0.2859-1.73e-4 -0.44661-0.17766-0.8749-0.49348-1.1907-0.07581-0.07581-0.17856-0.11846-0.28571-0.11862-0.31592-0.31568-0.74427-0.49302-1.1909-0.49302" color="#000000" color-rendering="auto" dominant-baseline="auto" fill-opacity=".027047" image-rendering="auto" opacity="1" solid-color="#000000" style="font-feature-settings:normal;font-variant-alternates:normal;font-variant-caps:normal;font-variant-ligatures:normal;font-variant-numeric:normal;font-variant-position:normal;isolation:auto;mix-blend-mode:normal;paint-order:normal;shape-padding:0;text-decoration-color:#000000;text-decoration-line:none;text-decoration-style:solid;text-indent:0;text-orientation:mixed;text-transform:none;white-space:normal"/>
			<path d="m18.832 28.832v18.204s9.7e-5 -1.49e-4 2.89e-4 -4.46e-4c0.02438-0.03765 1.911-2.9517 1.911-2.9517 9.7e-5 -1.5e-4 1.95e-4 -3e-4 2.92e-4 -4.5e-4 1.9196-2.9666 3.4759-4.0923 4.7576-4.3395 2.6e-4 -5e-5 5.19e-4 -1e-4 7.79e-4 -1.5e-4 1.2815-0.24681 2.624 0.30817 4.2925 1.4265 1.6e-4 1.07e-4 3.2e-4 2.15e-4 4.8e-4 3.22e-4 3.1653 2.1218 7.145 6.0143 12.93 7.1497v0.24956h-23.893v2.0776h25.97v-4.0153s-1.82e-4 -2.5e-5 -5.4e-4 -7.3e-5c-0.02257-0.0031-0.89828-0.12166-0.89828-0.12166-2.78e-4 -3.8e-5 -5.57e-4 -7.6e-5 -8.36e-4 -1.14e-4 -5.5087-0.7468-9.2929-4.6141-12.952-7.0667-1.85e-4 -1.24e-4 -3.7e-4 -2.49e-4 -5.55e-4 -3.73e-4 -1.8294-1.2262-3.7453-2.145-5.8428-1.7405-1.45e-4 2.8e-5 -2.91e-4 5.6e-5 -4.37e-4 8.4e-5 -1.4389 0.27766-2.8138 1.3993-4.1975 2.9459v-9.739h21.815v8.3025h2.0776v-10.38h-25.97m16.366 3.4454m3.3718 0.70985c-0.09436 0-0.18486 0.03739-0.25164 0.10396-0.45665 1.77e-4 -0.89456 0.18166-1.2175 0.50457-0.06672 0.06672-0.10427 0.15715-0.10443 0.25144-0.32278 0.32303-0.5041 0.761-0.5041 1.2177 0 0.09436 0.03739 0.18486 0.10396 0.25164 1.77e-4 0.45665 0.18166 0.89456 0.50457 1.2175 0.06672 0.06672 0.15715 0.10427 0.25144 0.10443 0.32303 0.32278 0.761 0.5041 1.2177 0.5041 0.09436 0 0.18486-0.03739 0.25164-0.10396 0.45665-1.77e-4 0.89456-0.18166 1.2175-0.50457 0.06672-0.06672 0.10427-0.15715 0.10443-0.25144 0.32278-0.32303 0.5041-0.761 0.5041-1.2177 0-0.09436-0.03739-0.18486-0.10396-0.25164-1.77e-4 -0.45665-0.18166-0.89456-0.50457-1.2175-0.06672-0.06672-0.15715-0.10427-0.25144-0.10443-0.32303-0.32278-0.761-0.5041-1.2177-0.5041" color="#000000" color-rendering="auto" dominant-baseline="auto" fill-opacity=".027567" image-rendering="auto" opacity="1" solid-color="#000000" style="font-feature-settings:normal;font-variant-alternates:normal;font-variant-caps:normal;font-variant-ligatures:normal;font-variant-numeric:normal;font-variant-position:normal;isolation:auto;mix-blend-mode:normal;paint-order:normal;shape-padding:0;text-decoration-color:#000000;text-decoration-line:none;text-decoration-style:solid;text-indent:0;text-orientation:mixed;text-transform:none;white-space:normal"/>
			<path d="m18.721 28.721v18.113s9.9e-5 -1.53e-4 2.95e-4 -4.55e-4c0.0249-0.03846 1.9014-2.9369 1.9014-2.9369 9.9e-5 -1.53e-4 1.98e-4 -3.07e-4 2.98e-4 -4.6e-4 1.91-2.9518 3.4585-4.0718 4.7338-4.3178 2.65e-4 -5.1e-5 5.3e-4 -1.02e-4 7.95e-4 -1.53e-4 1.2751-0.24556 2.6109 0.30664 4.271 1.4194 1.64e-4 1.09e-4 3.28e-4 2.19e-4 4.91e-4 3.29e-4 3.1495 2.1112 7.1093 5.9843 12.865 7.114v0.24832h-23.773v2.0672h25.841v-3.9952s-1.86e-4 -2.5e-5 -5.52e-4 -7.5e-5c-0.02305-0.0031-0.89378-0.12106-0.89378-0.12106-2.85e-4 -3.8e-5 -5.7e-4 -7.7e-5 -8.55e-4 -1.15e-4 -5.4811-0.74308-9.2465-4.5911-12.887-7.0314-1.89e-4 -1.27e-4 -3.78e-4 -2.53e-4 -5.67e-4 -3.8e-4 -1.8203-1.2201-3.7266-2.1342-5.8136-1.7318-1.48e-4 2.8e-5 -2.97e-4 5.7e-5 -4.46e-4 8.6e-5 -1.4317 0.27628-2.7998 1.3923-4.1765 2.9312v-9.6903h21.706v8.261h2.0672v-10.328h-25.841m16.718 3.5195m2.9213 0.615c-0.08178 0-0.16022 0.0324-0.21812 0.09007-0.46647 1.81e-4 -0.9138 0.18556-1.2437 0.51542-0.05783 0.05783-0.09039 0.1362-0.09055 0.21792-0.32972 0.32997-0.51494 0.77737-0.51494 1.2439 0 0.08178 0.0324 0.16022 0.09007 0.21812 1.81e-4 0.46647 0.18556 0.9138 0.51542 1.2437 0.05783 0.05783 0.1362 0.09039 0.21792 0.09055 0.32997 0.32972 0.77737 0.51494 1.2439 0.51494 0.08178 0 0.16022-0.0324 0.21812-0.09007 0.46647-1.81e-4 0.9138-0.18556 1.2437-0.51542 0.05783-0.05783 0.09039-0.1362 0.09055-0.21792 0.32972-0.32997 0.51494-0.77737 0.51494-1.2439 0-0.08178-0.0324-0.16022-0.09007-0.21812-1.81e-4 -0.46647-0.18556-0.9138-0.51542-1.2437-0.05783-0.05783-0.1362-0.09039-0.21792-0.09055-0.32997-0.32972-0.77737-0.51494-1.2439-0.51494" color="#000000" color-rendering="auto" dominant-baseline="auto" fill-opacity=".028075" image-rendering="auto" opacity="1" solid-color="#000000" style="font-feature-settings:normal;font-variant-alternates:normal;font-variant-caps:normal;font-variant-ligatures:normal;font-variant-numeric:normal;font-variant-position:normal;isolation:auto;mix-blend-mode:normal;paint-order:normal;shape-padding:0;text-decoration-color:#000000;text-decoration-line:none;text-decoration-style:solid;text-indent:0;text-orientation:mixed;text-transform:none;white-space:normal"/>
			<path d="m18.612 28.612v18.024s1.01e-4 -1.55e-4 3.01e-4 -4.65e-4c0.02541-0.03925 1.8921-2.9225 1.8921-2.9225 1.01e-4 -1.57e-4 2.03e-4 -3.14e-4 3.04e-4 -4.7e-4 1.9006-2.9373 3.4415-4.0518 4.7105-4.2966 2.71e-4 -5.3e-5 5.41e-4 -1.05e-4 8.12e-4 -1.57e-4 1.2688-0.24435 2.5981 0.30514 4.25 1.4124 1.67e-4 1.12e-4 3.34e-4 2.23e-4 5.01e-4 3.35e-4 3.134 2.1008 7.0744 5.9549 12.802 7.079v0.2471h-23.656v2.0571h25.714v-3.9756s-1.89e-4 -2.6e-5 -5.63e-4 -7.7e-5c-0.02353-0.0032-0.88938-0.12046-0.88938-0.12046-2.91e-4 -4e-5 -5.82e-4 -7.9e-5 -8.72e-4 -1.19e-4 -5.4542-0.73943-9.2011-4.5685-12.824-6.9969-1.93e-4 -1.29e-4 -3.86e-4 -2.59e-4 -5.8e-4 -3.88e-4 -1.8113-1.214-3.7083-2.1237-5.785-1.7232-1.51e-4 2.9e-5 -3.03e-4 5.9e-5 -4.55e-4 8.8e-5 -1.4246 0.27492-2.786 1.3854-4.1559 2.9168v-9.6427h21.6v8.2203h2.0571v-10.277h-25.714m17.063 3.5921m2.48 0.5221c-0.06947 0-0.1361 0.0275-0.18529 0.07646-0.47609 1.84e-4 -0.93264 0.18939-1.2693 0.52605-0.04912 0.04912-0.07679 0.11569-0.07695 0.18509-0.33652 0.33678-0.52556 0.7934-0.52556 1.2695 0 0.06947 0.0275 0.1361 0.07646 0.18529 1.85e-4 0.47609 0.18939 0.93264 0.52605 1.2693 0.04912 0.04912 0.11568 0.07679 0.18508 0.07695 0.33678 0.33652 0.7934 0.52556 1.2695 0.52556 0.06947 0 0.1361-0.0275 0.18529-0.07646 0.47609-1.85e-4 0.93264-0.18939 1.2693-0.52605 0.04912-0.04912 0.07679-0.11568 0.07695-0.18508 0.33652-0.33678 0.52556-0.7934 0.52556-1.2695 0-0.06947-0.0275-0.1361-0.07646-0.18529-1.85e-4 -0.47609-0.18939-0.93264-0.52605-1.2693-0.04912-0.04912-0.11568-0.07679-0.18508-0.07695-0.33678-0.33652-0.7934-0.52556-1.2695-0.52556" color="#000000" color-rendering="auto" dominant-baseline="auto" fill-opacity=".028573" image-rendering="auto" opacity="1" solid-color="#000000" style="font-feature-settings:normal;font-variant-alternates:normal;font-variant-caps:normal;font-variant-ligatures:normal;font-variant-numeric:normal;font-variant-position:normal;isolation:auto;mix-blend-mode:normal;paint-order:normal;shape-padding:0;text-decoration-color:#000000;text-decoration-line:none;text-decoration-style:solid;text-indent:0;text-orientation:mixed;text-transform:none;white-space:normal"/>
			<path d="m18.505 28.505v17.937s1.03e-4 -1.59e-4 3.07e-4 -4.74e-4c0.02592-0.04003 1.8829-2.9083 1.8829-2.9083 1.03e-4 -1.6e-4 2.06e-4 -3.2e-4 3.1e-4 -4.79e-4 1.8914-2.9231 3.4249-4.0322 4.6877-4.2757 2.76e-4 -5.3e-5 5.52e-4 -1.06e-4 8.27e-4 -1.59e-4 1.2627-0.24316 2.5855 0.30368 4.2294 1.4056 1.71e-4 1.14e-4 3.41e-4 2.28e-4 5.11e-4 3.43e-4 3.1188 2.0907 7.0401 5.926 12.74 7.0447v0.2459h-23.542v2.0471h25.589v-3.9563s-1.94e-4 -2.6e-5 -5.75e-4 -7.8e-5c-0.02399-0.0033-0.88506-0.11987-0.88506-0.11987-2.97e-4 -4.1e-5 -5.93e-4 -8.1e-5 -8.9e-4 -1.21e-4 -5.4278-0.73586-9.1565-4.5464-12.762-6.963l-5.91e-4 -3.96e-4c-1.8026-1.2082-3.6903-2.1134-5.757-1.7149-1.55e-4 3e-5 -3.1e-4 6e-5 -4.65e-4 9e-5 -1.4177 0.27359-2.7725 1.3787-4.1358 2.9027v-9.596h21.495v8.1805h2.0471v-10.227h-25.589m17.4 3.6632m2.0475 0.43105c-0.0574 0-0.11245 0.02271-0.15311 0.06313-0.48552 1.88e-4 -0.95111 0.19314-1.2944 0.53647-0.04059 0.04059-0.06346 0.09557-0.06363 0.1529-0.34318 0.34345-0.53597 0.80911-0.53597 1.2946 0 0.0574 0.02271 0.11245 0.06313 0.15311 1.88e-4 0.48552 0.19314 0.95111 0.53647 1.2944 0.04059 0.04059 0.09557 0.06346 0.1529 0.06363 0.34345 0.34318 0.80911 0.53597 1.2946 0.53597 0.0574 0 0.11245-0.02271 0.15311-0.06313 0.48552-1.88e-4 0.95111-0.19314 1.2944-0.53647 0.04059-0.04059 0.06346-0.09557 0.06363-0.1529 0.34318-0.34345 0.53597-0.80911 0.53597-1.2946 0-0.0574-0.02271-0.11245-0.06313-0.15311-1.88e-4 -0.48552-0.19314-0.95111-0.53647-1.2944-0.04059-0.04059-0.09557-0.06346-0.1529-0.06363-0.34345-0.34318-0.80911-0.53597-1.2946-0.53597" color="#000000" color-rendering="auto" dominant-baseline="auto" fill-opacity=".029061" image-rendering="auto" opacity="1" solid-color="#000000" style="font-feature-settings:normal;font-variant-alternates:normal;font-variant-caps:normal;font-variant-ligatures:normal;font-variant-numeric:normal;font-variant-position:normal;isolation:auto;mix-blend-mode:normal;paint-order:normal;shape-padding:0;text-decoration-color:#000000;text-decoration-line:none;text-decoration-style:solid;text-indent:0;text-orientation:mixed;text-transform:none;white-space:normal"/>
			<path d="m18.4 28.4v17.851s1.05e-4 -1.62e-4 3.13e-4 -4.83e-4c0.02641-0.0408 1.8739-2.8944 1.8739-2.8944 1.05e-4 -1.63e-4 2.11e-4 -3.26e-4 3.16e-4 -4.88e-4 1.8824-2.9091 3.4085-4.0129 4.6654-4.2553 2.82e-4 -5.5e-5 5.63e-4 -1.09e-4 8.44e-4 -1.63e-4 1.2566-0.24198 2.5731 0.30224 4.2092 1.3989 1.74e-4 1.17e-4 3.47e-4 2.33e-4 5.21e-4 3.49e-4 3.104 2.0807 7.0065 5.8978 12.679 7.0111v0.24472h-23.43v2.0373h25.467v-3.9375s-1.97e-4 -2.6e-5 -5.85e-4 -7.9e-5c-0.02445-0.0033-0.88082-0.1193-0.88082-0.1193-3.02e-4 -4.1e-5 -6.04e-4 -8.2e-5 -9.06e-4 -1.23e-4 -5.4019-0.73236-9.1128-4.5247-12.701-6.9297-2e-4 -1.35e-4 -4.01e-4 -2.69e-4 -6.02e-4 -4.04e-4 -1.794-1.2024-3.6727-2.1033-5.7295-1.7067-1.57e-4 3.1e-5 -3.15e-4 6.1e-5 -4.73e-4 9.2e-5 -1.411 0.27229-2.7593 1.3721-4.1161 2.8888v-9.5502h21.393v8.1415h2.0373v-10.178h-25.467m17.732 3.733m1.6232 0.34173c-0.04556 0-0.08926 0.018-0.12154 0.05004-0.49477 1.92e-4 -0.96923 0.19682-1.3191 0.54669-0.03221 0.03221-0.05039 0.07585-0.05056 0.12133-0.34972 0.34999-0.54618 0.82452-0.54618 1.3193 0 0.04556 0.018 0.08926 0.05005 0.12154 1.92e-4 0.49477 0.19682 0.96923 0.54669 1.3191 0.03221 0.03221 0.07584 0.05039 0.12133 0.05056 0.34999 0.34972 0.82452 0.54618 1.3193 0.54618 0.04556 0 0.08926-0.018 0.12154-0.05004 0.49477-1.92e-4 0.96923-0.19682 1.3191-0.54669 0.03221-0.03221 0.05039-0.07584 0.05056-0.12133 0.34972-0.34999 0.54618-0.82452 0.54618-1.3193 0-0.04556-0.018-0.08926-0.05004-0.12154-1.92e-4 -0.49477-0.19682-0.96923-0.54669-1.3191-0.03221-0.03221-0.07585-0.05039-0.12133-0.05056-0.34999-0.34972-0.82452-0.54618-1.3193-0.54618" color="#000000" color-rendering="auto" dominant-baseline="auto" fill-opacity=".02954" image-rendering="auto" opacity="1" solid-color="#000000" style="font-feature-settings:normal;font-variant-alternates:normal;font-variant-caps:normal;font-variant-ligatures:normal;font-variant-numeric:normal;font-variant-position:normal;isolation:auto;mix-blend-mode:normal;paint-order:normal;shape-padding:0;text-decoration-color:#000000;text-decoration-line:none;text-decoration-style:solid;text-indent:0;text-orientation:mixed;text-transform:none;white-space:normal"/>
			<path d="m18.298 28.298v17.767s1.07e-4 -1.65e-4 3.19e-4 -4.92e-4c0.0269-0.04154 1.8651-2.8808 1.8651-2.8808 1.08e-4 -1.65e-4 2.15e-4 -3.31e-4 3.22e-4 -4.97e-4 1.8735-2.8954 3.3925-3.994 4.6434-4.2353 2.86e-4 -5.5e-5 5.72e-4 -1.11e-4 8.59e-4 -1.66e-4 1.2507-0.24084 2.561 0.30082 4.1894 1.3923 1.77e-4 1.18e-4 3.54e-4 2.37e-4 5.3e-4 3.55e-4 3.0893 2.0709 6.9735 5.87 12.62 6.9781v0.24358h-23.319v2.0277h25.347v-3.919s-2.01e-4 -2.7e-5 -5.96e-4 -8.1e-5c-0.0249-0.0034-0.87666-0.11874-0.87666-0.11874-3.07e-4 -4.2e-5 -6.15e-4 -8.4e-5 -9.23e-4 -1.25e-4 -5.3764-0.72892-9.0699-4.5034-12.641-6.8971-2.04e-4 -1.37e-4 -4.09e-4 -2.74e-4 -6.13e-4 -4.11e-4 -1.7855-1.1967-3.6554-2.0934-5.7025-1.6987-1.61e-4 3.1e-5 -3.22e-4 6.2e-5 -4.83e-4 9.3e-5 -1.4043 0.27101-2.7463 1.3657-4.0967 2.8752v-9.5052h21.292v8.1032h2.0277v-10.131h-25.347m18.057 3.8015m1.2067 0.25404c-0.03393 0-0.06649 0.01338-0.09056 0.0372-0.50385 1.95e-4 -0.98702 0.20043-1.3433 0.55672-0.02399 0.024-0.03755 0.05648-0.03773 0.09034-0.35614 0.35641-0.5562 0.83965-0.5562 1.3435 0 0.03393 0.01338 0.06649 0.03721 0.09056 1.95e-4 0.50385 0.20043 0.98702 0.55672 1.3433 0.024 0.02399 0.05648 0.03755 0.09034 0.03773 0.35641 0.35614 0.83965 0.5562 1.3435 0.5562 0.03393 0 0.06649-0.01338 0.09056-0.0372 0.50385-1.96e-4 0.98702-0.20043 1.3433-0.55672 0.02399-0.02399 0.03755-0.05648 0.03773-0.09034 0.35614-0.35641 0.5562-0.83965 0.5562-1.3435 0-0.03393-0.01338-0.06649-0.0372-0.09056-1.96e-4 -0.50385-0.20043-0.98702-0.55672-1.3433-0.024-0.02399-0.05648-0.03755-0.09034-0.03773-0.35641-0.35614-0.83965-0.5562-1.3435-0.5562" color="#000000" color-rendering="auto" dominant-baseline="auto" fill-opacity=".030011" image-rendering="auto" opacity="1" solid-color="#000000" style="font-feature-settings:normal;font-variant-alternates:normal;font-variant-caps:normal;font-variant-ligatures:normal;font-variant-numeric:normal;font-variant-position:normal;isolation:auto;mix-blend-mode:normal;paint-order:normal;shape-padding:0;text-decoration-color:#000000;text-decoration-line:none;text-decoration-style:solid;text-indent:0;text-orientation:mixed;text-transform:none;white-space:normal"/>
			<path d="m18.197 28.197v17.684s1.09e-4 -1.68e-4 3.24e-4 -5.01e-4c0.02737-0.04228 1.8564-2.8674 1.8564-2.8674 1.09e-4 -1.68e-4 2.18e-4 -3.37e-4 3.27e-4 -5.06e-4 1.8648-2.882 3.3767-3.9755 4.6218-4.2156 2.92e-4 -5.6e-5 5.83e-4 -1.13e-4 8.74e-4 -1.69e-4 1.2449-0.23971 2.5491 0.29944 4.1699 1.3858 1.8e-4 1.21e-4 3.6e-4 2.41e-4 5.4e-4 3.62e-4 3.075 2.0613 6.9411 5.8427 12.561 6.9457v0.24244h-23.211v2.0184h25.229v-3.9007s-2.04e-4 -2.8e-5 -6.07e-4 -8.2e-5c-0.02534-0.0034-0.87257-0.11818-0.87257-0.11818-3.13e-4 -4.3e-5 -6.26e-4 -8.5e-5 -9.39e-4 -1.28e-4 -5.3514-0.72554-9.0277-4.4825-12.582-6.8651-2.08e-4 -1.39e-4 -4.16e-4 -2.78e-4 -6.24e-4 -4.18e-4 -1.7772-1.1912-3.6384-2.0837-5.676-1.6908-1.64e-4 3.1e-5 -3.27e-4 6.3e-5 -4.91e-4 9.5e-5 -1.3978 0.26976-2.7335 1.3593-4.0776 2.8619v-9.4611h21.193v8.0656h2.0184v-10.084h-25.229m18.377 3.8688m0.7976 0.16791c-0.02252 0-0.04412 0.0088-0.06012 0.02459-0.51277 1.99e-4 -1.0045 0.20398-1.3671 0.56658-0.01592 0.01592-0.02495 0.03745-0.02512 0.0599-0.36244 0.36272-0.56604 0.85452-0.56604 1.3673 0 0.02252 0.0088 0.04412 0.02459 0.06012 1.99e-4 0.51277 0.20398 1.0045 0.56658 1.3671 0.01592 0.01592 0.03745 0.02495 0.0599 0.02512 0.36272 0.36244 0.85452 0.56604 1.3673 0.56604 0.02252 0 0.04412-0.0088 0.06012-0.02459 0.51277-1.99e-4 1.0045-0.20398 1.3671-0.56658 0.01592-0.01592 0.02495-0.03745 0.02512-0.0599 0.36244-0.36272 0.56604-0.85452 0.56604-1.3673 0-0.02252-0.0088-0.04412-0.02459-0.06012-1.99e-4 -0.51277-0.20398-1.0045-0.56658-1.3671-0.01592-0.01592-0.03745-0.02495-0.0599-0.02512-0.36272-0.36244-0.85452-0.56604-1.3673-0.56604" color="#000000" color-rendering="auto" dominant-baseline="auto" fill-opacity=".030472" image-rendering="auto" opacity="1" solid-color="#000000" style="font-feature-settings:normal;font-variant-alternates:normal;font-variant-caps:normal;font-variant-ligatures:normal;font-variant-numeric:normal;font-variant-position:normal;isolation:auto;mix-blend-mode:normal;paint-order:normal;shape-padding:0;text-decoration-color:#000000;text-decoration-line:none;text-decoration-style:solid;text-indent:0;text-orientation:mixed;text-transform:none;white-space:normal"/>
			<path d="m18.098 28.098v17.603s1.11e-4 -1.7e-4 3.3e-4 -5.09e-4c0.02784-0.043 1.8479-2.8542 1.8479-2.8542 1.11e-4 -1.71e-4 2.21e-4 -3.43e-4 3.32e-4 -5.14e-4 1.8563-2.8687 3.3612-3.9572 4.6006-4.1962 2.97e-4 -5.7e-5 5.93e-4 -1.14e-4 8.89e-4 -1.71e-4 1.2392-0.2386 2.5374 0.29807 4.1507 1.3795 1.83e-4 1.23e-4 3.66e-4 2.45e-4 5.49e-4 3.68e-4 3.0609 2.0518 6.9093 5.8159 12.503 6.9138v0.24133h-23.104v2.0091h25.114v-3.8828s-2.08e-4 -2.9e-5 -6.17e-4 -8.4e-5c-0.02577-0.0035-0.86856-0.11764-0.86856-0.11764-3.19e-4 -4.3e-5 -6.37e-4 -8.6e-5 -9.56e-4 -1.29e-4 -5.3269-0.72221-8.9863-4.4619-12.525-6.8336-2.12e-4 -1.42e-4 -4.23e-4 -2.83e-4 -6.35e-4 -4.25e-4 -1.7691-1.1857-3.6217-2.0741-5.65-1.683-1.66e-4 3.2e-5 -3.33e-4 6.4e-5 -4.99e-4 9.6e-5 -1.3914 0.26852-2.721 1.3531-4.0589 2.8488v-9.4177h21.096v8.0286h2.0091v-10.037h-25.114m18.691 3.935m0.39547 0.08326c-0.0113 0-0.02214 0.0044-0.0302 0.01219-0.52153 2.02e-4 -1.0217 0.20747-1.3905 0.57626-8e-3 8e-3 -0.01255 0.01875-0.01273 0.02998-0.36864 0.36892-0.57572 0.86912-0.57572 1.3907 0 0.0113 0.0044 0.02214 0.01219 0.0302 2.02e-4 0.52153 0.20747 1.0217 0.57626 1.3905 8e-3 8e-3 0.01875 0.01255 0.02998 0.01273 0.36892 0.36864 0.86912 0.57572 1.3907 0.57572 0.0113 0 0.02214-0.0044 0.0302-0.01219 0.52153-2.03e-4 1.0217-0.20747 1.3905-0.57626 8e-3 -8e-3 0.01255-0.01876 0.01273-0.02998 0.36864-0.36892 0.57572-0.86912 0.57572-1.3907 0-0.01129-0.0044-0.02214-0.01219-0.0302-2.03e-4 -0.52153-0.20747-1.0217-0.57626-1.3905-8e-3 -8e-3 -0.01876-0.01255-0.02998-0.01273-0.36892-0.36864-0.86912-0.57572-1.3907-0.57572" color="#000000" color-rendering="auto" dominant-baseline="auto" fill-opacity=".030926" image-rendering="auto" opacity="1" solid-color="#000000" style="font-feature-settings:normal;font-variant-alternates:normal;font-variant-caps:normal;font-variant-ligatures:normal;font-variant-numeric:normal;font-variant-position:normal;isolation:auto;mix-blend-mode:normal;paint-order:normal;shape-padding:0;text-decoration-color:#000000;text-decoration-line:none;text-decoration-style:solid;text-indent:0;text-orientation:mixed;text-transform:none;white-space:normal"/>
			<path d="m18 28v17.523s1.12e-4 -1.73e-4 3.35e-4 -5.18e-4c0.0283-0.04371 1.8395-2.8413 1.8395-2.8413 1.13e-4 -1.74e-4 2.26e-4 -3.49e-4 3.38e-4 -5.23e-4 1.8478-2.8557 3.346-3.9393 4.5797-4.1772 3.01e-4 -5.8e-5 6.02e-4 -1.16e-4 9.04e-4 -1.74e-4 1.2336-0.23751 2.5259 0.29673 4.1319 1.3732 1.86e-4 1.25e-4 3.72e-4 2.49e-4 5.58e-4 3.74e-4 3.047 2.0425 6.878 5.7895 12.447 6.8824v0.24023h-23v2h25v-3.8652s-2.11e-4 -2.9e-5 -6.27e-4 -8.5e-5c-0.0262-0.0035-0.86461-0.1171-0.86461-0.1171-3.24e-4 -4.4e-5 -6.47e-4 -8.8e-5 -9.71e-4 -1.32e-4 -5.3027-0.71895-8.9455-4.4417-12.468-6.8026l-6.45e-4 -4.32e-4c-1.761-1.1803-3.6053-2.0647-5.6244-1.6754-1.69e-4 3.3e-5 -3.38e-4 6.5e-5 -5.07e-4 9.8e-5 -1.3851 0.26731-2.7086 1.347-4.0405 2.8358v-9.375h21v7.9922h2v-9.9922h-25m19 4h-7.77e-4c-0.53015 2.06e-4 -1.0385 0.2109-1.4134 0.58579-1.83e-4 1.84e-4 -3.66e-4 3.67e-4 -5.49e-4 5.5e-4 -0.37473 0.37502-0.58524 0.88349-0.58524 1.4137v7.77e-4c2.06e-4 0.53015 0.2109 1.0385 0.58579 1.4134 1.84e-4 1.83e-4 3.67e-4 3.66e-4 5.5e-4 5.49e-4 0.37502 0.37473 0.88349 0.58524 1.4137 0.58524h7.77e-4c0.53015-2.06e-4 1.0385-0.2109 1.4134-0.58579 1.83e-4 -1.84e-4 3.66e-4 -3.67e-4 5.49e-4 -5.5e-4 0.37473-0.37502 0.58524-0.88349 0.58524-1.4137v-7.77e-4c-2.06e-4 -0.53015-0.2109-1.0385-0.58579-1.4134-1.84e-4 -1.83e-4 -3.67e-4 -3.66e-4 -5.5e-4 -5.49e-4 -0.37502-0.37473-0.88349-0.58524-1.4137-0.58524" color="#000000" color-rendering="auto" dominant-baseline="auto" fill-opacity=".031373" image-rendering="auto" opacity="1" solid-color="#000000" style="font-feature-settings:normal;font-variant-alternates:normal;font-variant-caps:normal;font-variant-ligatures:normal;font-variant-numeric:normal;font-variant-position:normal;isolation:auto;mix-blend-mode:normal;paint-order:normal;shape-padding:0;text-decoration-color:#000000;text-decoration-line:none;text-decoration-style:solid;text-indent:0;text-orientation:mixed;text-transform:none;white-space:normal"/>
		</g>
		<path d="m18 48h24v-1.9922c-11.385-1.5427-15.326-15.731-23-3.8701v-13.138h23v8.9922" fill="#000000" fill-opacity=".0039216" stroke="#d5ffff" stroke-width="2" style="paint-order:normal"/>
		<circle cx="37" cy="34" r="2" fill="#4b617d" style="paint-order:normal"/>
	</g>
</svg>