<?xml version="1.0" encoding="UTF-8"?>
<!-- Created with Inkscape (http://www.inkscape.org/) -->
<svg width="64" height="64" version="1.1" xmlns="http://www.w3.org/2000/svg" xmlns:cc="http://creativecommons.org/ns#" xmlns:dc="http://purl.org/dc/elements/1.1/" xmlns:rdf="http://www.w3.org/1999/02/22-rdf-syntax-ns#">
	<defs>
		<radialGradient id="a" cx="33.466" cy="2.1992" r="30.5" gradientTransform="matrix(-1.0283 0 0 -.55738 67.779 1.2258)" gradientUnits="userSpaceOnUse">
			<stop stop-color="#668cbb" offset="0"/>
			<stop stop-color="#668cbb" offset="1"/>
		</radialGradient>
		<linearGradient id="g" x1="61" x2="60" y1="17" gradientTransform="translate(-.88255)" gradientUnits="userSpaceOnUse">
			<stop stop-color="#3e4d60" stop-opacity=".72157" offset="0"/>
			<stop stop-color="#393b49" stop-opacity=".2656" offset="1"/>
		</linearGradient>
		<linearGradient id="c" x1="62.381" x2="62.381" y1="63.314" y2="23.077" gradientUnits="userSpaceOnUse">
			<stop stop-color="#000828" stop-opacity=".35976" offset="0"/>
			<stop stop-color="#000828" stop-opacity=".12715" offset="1"/>
		</linearGradient>
		<linearGradient id="d" x1="53" x2="53" y1="17" y2="15" gradientUnits="userSpaceOnUse">
			<stop stop-color="#dad8ce" offset="0"/>
			<stop stop-color="#ebebeb" offset="1"/>
		</linearGradient>
		<linearGradient id="f" x1="32.559" x2="33.542" y1="15.559" y2="14.542" gradientUnits="userSpaceOnUse">
			<stop stop-color="#37321c" stop-opacity=".15675" offset="0"/>
			<stop stop-color="#6d5524" stop-opacity="0" offset="1"/>
		</linearGradient>
		<radialGradient id="b" cx="30.107" cy="50.318" r="30.5" gradientTransform="matrix(2.7541,-1.4218e-7,8.3652e-8,2.7869,-52.917,-93.23)" gradientUnits="userSpaceOnUse">
			<stop stop-color="#9e1423" stop-opacity=".12917" offset="0"/>
			<stop stop-color="#f4405b" stop-opacity=".023222" offset=".54"/>
			<stop stop-color="#f43f6d" stop-opacity=".169" offset="1"/>
		</radialGradient>
		<linearGradient id="h" x1="-5" x2="-5" y1="64" y2="14" gradientTransform="translate(.88908)" gradientUnits="userSpaceOnUse">
			<stop stop-color="#f43f66" stop-opacity=".018868" offset="0"/>
			<stop stop-color="#f4ae3f" stop-opacity=".47025" offset="1"/>
		</linearGradient>
		<linearGradient id="e" x1="4.5255" x2="4.5255" y1="64" y2="61.09" gradientUnits="userSpaceOnUse">
			<stop stop-color="#e50d4c" stop-opacity=".47868" offset="0"/>
			<stop stop-color="#e50d4c" stop-opacity="0" offset="1"/>
		</linearGradient>
	</defs>
	<metadata>
		<rdf:RDF>
			<cc:Work rdf:about="">
				<dc:format>image/svg+xml</dc:format>
				<dc:type rdf:resource="http://purl.org/dc/dcmitype/StillImage"/>
				<dc:title/>
			</cc:Work>
		</rdf:RDF>
	</metadata>
	<g>
		<g>
			<path d="m38 0c-1 0-1.5103 0.51027-2 1l-3 3c-0.53814 0.53814-1 1-2 1h-28c-0.52243 0-1 0.43922-1 1l-0.76511 58h61.543c1 0 1.2218-1 1.2218-2v-61c0-0.51973-0.5-1-1-1z" color="#000000" fill="url(#a)"/>
			<path d="m38 0c-1 0-1.5103 0.51027-2 1l-3 3c-0.53814 0.53814-1 1-2 1h-28c-0.52243 0-1 0.43922-1 1l-0.76511 58h61.543c1 0 1.2218-1 1.2218-2v-61c0-0.51973-0.5-1-1-1z" color="#000000" fill="url(#g)"/>
			<path d="m38 0c-1 0-1.5103 0.51027-2 1l-3 3c-0.53814 0.53814-1 1-2 1h-28c-0.52243 0-1 0.43922-1 1l-0.76562 58h0.00586l0.75976-57.5c0-0.56078 0.47757-1 1-1h28c1 0 1.4619-0.46186 2-1l3-3c0.48973-0.48973 1-1 2-1h25c0.5 0 1 0.48027 1 1v-0.5c0-0.51973-0.5-1-1-1z" color="#000000" fill="#b3ffff" fill-opacity=".19073"/>
			<path d="m61 13v51h1.7773c0.09408 0 0.17509-0.01633 0.25586-0.0332l0.8125-0.8125c0.11225-0.34056 0.1543-0.74535 0.1543-1.1543v-46l-3-3z" fill="url(#c)"/>
			<path d="m63.5 0.15532v61.845c0 0.52439-0.13604 1.5011-0.72184 1.5v0.5c1 0 1.2218-1 1.2218-2v-61c0-0.39808-0.24002-0.69459-0.5-0.84468z" fill="#0f1f33" fill-opacity=".14136" style="paint-order:normal"/>
		</g>
		<g>
			<path d="m7 13h54v31h-54z" fill="url(#d)"/>
			<path d="m30 13 4 4h2l-4-4z" color="#000000" fill="url(#f)"/>
		</g>
		<path d="m62.778 63.5c-0.58579-0.0011-0.77816-0.9402-0.77816-1.5v-44c0-0.57647-0.4549-1-1-1h-26c-1 0-1.3759-0.3759-2-1l-3-3c-0.46442-0.46442-1-1-2-1h-27c-0.52342 0-1 0.4716-1 1 0.0044097 9.6802 0.0035924 21.791 0.002195 32.011-9.6046e-4 7.024-0.002195 13.155-0.002195 16.989 0 1 0.23489 2 1.2349 2h61.543z" color="#000000" fill="#f4ae3f"/>
		<path d="m62.778 63.5c-0.58579-0.0011-0.77816-0.9402-0.77816-1.5v-44c0-0.57647-0.4549-1-1-1h-26c-1 0-1.3759-0.3759-2-1l-3-3c-0.46442-0.46442-1-1-2-1h-27c-0.52342 0-1 0.4716-1 1 0.0044097 9.6802 0.0035924 21.791 0.002195 32.011-9.6046e-4 7.024-0.002195 13.155-0.002195 16.989 0 1 0.23489 2 1.2349 2h61.543z" color="#000000" fill="#f4ae3f"/>
		<path d="m62.778 63.5c-0.58579-0.0011-0.77816-0.9402-0.77816-1.5v-44c0-0.57647-0.4549-1-1-1h-26c-1 0-1.3759-0.3759-2-1l-3-3c-0.46442-0.46442-1-1-2-1h-27c-0.52342 0-1 0.4716-1 1 0.0044097 9.6802 0.0035924 21.791 0.002195 32.011-9.6046e-4 7.024-0.002195 13.155-0.002195 16.989 0 1 0.23489 2 1.2349 2h61.543z" color="#000000" fill="url(#b)"/>
		<path d="m62.778 63.5c-0.58579-0.0011-0.77816-0.9402-0.77816-1.5v-44c0-0.57647-0.4549-1-1-1h-26c-1 0-1.3759-0.3759-2-1l-3-3c-0.46442-0.46442-1-1-2-1h-27c-0.52342 0-1 0.4716-1 1 0.0044097 9.6802 0.0035924 21.791 0.002195 32.011-9.6046e-4 7.024-0.002195 13.155-0.002195 16.989 0 1 0.23489 2 1.2349 2h61.543z" color="#000000" fill="url(#h)"/>
		<path d="m62.778 63.5c-0.58579-0.0011-0.77816-0.9402-0.77816-1.5v-44c0-0.57647-0.4549-1-1-1h-26c-1 0-1.3759-0.3759-2-1l-3-3c-0.46442-0.46442-1-1-2-1h-27c-0.52342 0-1 0.4716-1 1 0.0044097 9.6802 0.0035924 21.791 0.002195 32.011-9.6046e-4 7.024-0.002195 13.155-0.002195 16.989 0 1 0.23489 2 1.2349 2h61.543z" color="#000000" fill="url(#e)" opacity=".318"/>
		<path d="m27.5 12c1 0 1.5356 0.53558 2 1l3 3c0.6241 0.6241 1 1 2 1h0.5c-1 0-1.3759-0.3759-2-1l-3-3c-0.46442-0.46442-1-1-2-1zm33 5c0.5451 0 1 0.42353 1 1v44c0 0.90201 0.20957 1.9442 1.2782 2h-8.19e-4v-0.5c-0.58579-0.0011-0.77734-0.9402-0.77734-1.5v-44c0-0.57647-0.4549-1-1-1z" color="#000000" fill="#ff024d" fill-opacity=".23186" style="paint-order:normal"/>
		<path d="m27.75 12c1 0 1.5356 0.53558 2 1l3 3c0.6241 0.6241 1 1 2 1h0.25c-1 0-1.3759-0.3759-2-1l-3-3c-0.46442-0.46442-1-1-2-1zm33 5c0.5451 0 1 0.42353 1 1v44c0 0.5598 0.19155 1.4989 0.77734 1.5v0.45508c0.08 0.01886 0.15756 0.0401 0.25 0.04492v-0.5c-0.58579-0.0011-0.77734-0.9402-0.77734-1.5v-44c0-0.57647-0.4549-1-1-1z" color="#000000" fill="#ff024d" fill-opacity=".19147" style="paint-order:normal"/>
		<path d="m1 12c-0.52342 0-1 0.4716-1 1 6.888e-5 0.15121-6.6347e-5 0.34762 0 0.5 0-0.5284 0.47658-1 1-1h27c1 0 1.5356 0.53558 2 1l3 3c0.6241 0.6241 1 1 2 1h26c0.5451 0 1 0.42353 1 1v-0.5c0-0.57647-0.4549-1-1-1h-26c-1 0-1.3759-0.3759-2-1l-3-3c-0.46442-0.46442-1-1-2-1z" color="#000000" fill="#f8ff34" fill-opacity=".31189"/>
		<path d="m1 12c-0.52342 0-1 0.4716-1 1 3.444e-5 0.0756-3.3805e-5 0.1741 0 0.25 0-0.5284 0.47658-1 1-1h27c1 0 1.5356 0.53558 2 1l3 3c0.6241 0.6241 1 1 2 1h26c0.5451 0 1 0.42353 1 1v-0.25c0-0.57647-0.4549-1-1-1h-26c-1 0-1.3759-0.3759-2-1l-3-3c-0.46442-0.46442-1-1-2-1z" color="#000000" fill="#f8ff34" fill-opacity=".31189"/>
	</g>
	<g fill="#ff0066" opacity=".214">
		<path d="m40.5 36c-7.7162 0-14 6.2838-14 14s6.2838 14 14 14 14-6.2838 14-14-6.2838-14-14-14m0 2.6667c6.275 0 11.333 5.0583 11.333 11.333v5.74e-4c-3.09e-4 6.2748-5.0585 11.333-11.333 11.333-6.275 0-11.333-5.0583-11.333-11.333s5.0583-11.333 11.333-11.333m0 5.3333c-3.3137 0-6 2.6863-6 6v6.07e-4c3.28e-4 3.3134 2.6865 5.9994 6 5.9994 3.3137 0 6-2.6863 6-6s-2.6863-6-6-6" color="#000000" fill-opacity=".0039216" opacity="1" style="paint-order:normal"/>
		<path d="m38.794 34.922c-7.3697 0-13.371 6.0017-13.371 13.371v9.5e-5c5.2e-5 7.3697 6.0017 13.371 13.371 13.371h9.5e-5c7.3697-5.1e-5 13.371-6.0017 13.371-13.371v-9.5e-5c-5.1e-5 -7.3697-6.0017-13.371-13.371-13.371m0 0.35921m0 2.1877c5.148 0 9.2979 4.1498 9.298 9.2978 0.8452 2.4e-4 1.5265 0.68174 1.5265 1.5271-2.53e-4 5.1478-4.15 9.2973-9.2978 9.2973 0 0.84527-0.68138 1.5266-1.5266 1.5266-5.148 0-9.2979-4.1498-9.298-9.2978-0.8452-8.3e-5 -1.5265-0.68143-1.5265-1.5266 0-5.148 4.1498-9.2979 9.2978-9.298 8.3e-5 -0.8452 0.68143-1.5265 1.5266-1.5265m0 0.71842m0 4.3754c-2.7186 0-4.9225 2.2038-4.9225 4.9224-0.44629 2.54e-4 -0.80806 0.36224-0.80806 0.80872 2.69e-4 2.7183 2.204 4.9219 4.9224 4.9219 0 0.44637 0.36185 0.80822 0.80822 0.80822 2.7186 0 4.9225-2.2038 4.9225-4.9224 0.4463-8.8e-5 0.80806-0.36191 0.80806-0.80822 0-2.7186-2.2038-4.9225-4.9224-4.9225-8.9e-5 -0.44629-0.36191-0.80806-0.80822-0.80806" color="#000000" fill-opacity=".0088519" opacity="1" style="paint-order:normal"/>
		<path d="m38.087 34.476c-7.2262 0-13.111 5.8848-13.111 13.111v1.35e-4c7.3e-5 7.2262 5.8848 13.111 13.111 13.111h1.34e-4c7.2262-7.3e-5 13.111-5.8848 13.111-13.111v-1.34e-4c-7.3e-5 -7.2262-5.8848-13.111-13.111-13.111m0 0.508m0 1.9893c4.6812 0 8.4548 3.7735 8.4549 8.4547 1.1953 2.6e-4 2.1588 0.96397 2.1588 2.1594-2.31e-4 4.681-3.7736 8.4542-8.4547 8.4542 0 1.1954-0.96361 2.159-2.159 2.159-4.6812 0-8.4548-3.7735-8.4549-8.4547-1.1953-1.17e-4 -2.1588-0.96368-2.1588-2.159 0-4.6812 3.7735-8.4548 8.4547-8.4549 1.17e-4 -1.1953 0.96368-2.1588 2.159-2.1588m0 1.016m0 3.9787c-2.4721 0-4.4762 2.004-4.4762 4.476-0.63116 2.76e-4 -1.1428 0.51212-1.1428 1.1435 2.45e-4 2.4718 2.0041 4.4755 4.476 4.4755 0 0.63126 0.51174 1.143 1.143 1.143 2.4721 0 4.4762-2.004 4.4762-4.476 0.63116-1.25e-4 1.1428-0.51182 1.1428-1.143 0-2.4721-2.004-4.4762-4.476-4.4762-1.25e-4 -0.63116-0.51182-1.1428-1.143-1.1428" color="#000000" fill-opacity=".010894" opacity="1" style="paint-order:normal"/>
		<path d="m37.545 34.133c-7.1161 0-12.911 5.7951-12.911 12.911v1.65e-4c9e-5 7.116 5.7952 12.911 12.911 12.911h1.65e-4c7.116-8.9e-5 12.911-5.7952 12.911-12.911v-1.65e-4c-8.9e-5 -7.116-5.7952-12.911-12.911-12.911m0 0.62217m0 1.8371c4.323 0 7.8079 3.4847 7.808 7.8077 1.4639 2.76e-4 2.644 1.1805 2.644 2.6446-2.13e-4 4.3228-3.4849 7.8073-7.8077 7.8073 0 1.464-1.1802 2.6442-2.6442 2.6442-4.323 0-7.8079-3.4847-7.808-7.8077-1.4639-1.44e-4 -2.644-1.1803-2.644-2.6442 0-4.323 3.4847-7.8079 7.8077-7.808 1.44e-4 -1.4639 1.1803-2.644 2.6442-2.644m0 1.2443m0 3.6742c-2.283 0-4.1337 1.8506-4.1338 4.1335-0.773 2.92e-4 -1.3996 0.62712-1.3996 1.4003 2.26e-4 2.2827 1.8508 4.1331 4.1335 4.1331 0 0.77314 0.62675 1.3999 1.3999 1.3999 2.283 0 4.1337-1.8506 4.1338-4.1335 0.773-1.53e-4 1.3996-0.62684 1.3996-1.3999 0-2.283-1.8506-4.1337-4.1335-4.1338-1.53e-4 -0.773-0.62684-1.3996-1.3999-1.3996" color="#000000" fill-opacity=".012461" opacity="1" style="paint-order:normal"/>
		<path d="m37.087 33.845c-7.0233 0-12.743 5.7195-12.743 12.743v1.9e-4c1.03e-4 7.0232 5.7196 12.743 12.743 12.743h1.9e-4c7.0232-1.03e-4 12.743-5.7196 12.743-12.743v-1.9e-4c-1.03e-4 -7.0232-5.7196-12.743-12.743-12.743m0 0.71842m0 1.7088c4.0211 0 7.2625 3.2413 7.2626 7.2623 1.6904 2.89e-4 3.053 1.3631 3.053 3.0537-1.97e-4 4.0208-3.2414 7.2619-7.2623 7.2619 0 1.6905-1.3628 3.0533-3.0533 3.0533-4.0211 0-7.2625-3.2413-7.2626-7.2623-1.6904-1.66e-4 -3.053-1.3629-3.053-3.0533 0-4.0211 3.2413-7.2625 7.2623-7.2626 1.66e-4 -1.6904 1.3629-3.053 3.0533-3.053m0 1.4368m0 3.4175c-2.1235 0-3.845 1.7213-3.8451 3.8447-0.89259 3.07e-4 -1.6161 0.72408-1.6161 1.6168 2.1e-4 2.1232 1.7215 3.8443 3.8447 3.8443 0 0.89274 0.72371 1.6164 1.6164 1.6164 2.1235 0 3.845-1.7213 3.8451-3.8447 0.89259-1.77e-4 1.6161-0.72382 1.6161-1.6164 0-2.1235-1.7213-3.845-3.8447-3.8451-1.76e-4 -0.89259-0.72382-1.6161-1.6164-1.6161" color="#000000" fill-opacity=".013782" opacity="1" style="paint-order:normal"/>
		<path d="m36.685 33.59c-6.9415 0-12.594 5.6529-12.594 12.594v2.13e-4c1.16e-4 6.9414 5.653 12.594 12.594 12.594h2.12e-4c6.9414-1.15e-4 12.594-5.653 12.594-12.594v-2.13e-4c-1.15e-4 -6.9414-5.653-12.594-12.594-12.594m0 0.80322m0 1.5957c3.755 0 6.782 3.0268 6.7821 6.7818 1.8899 3e-4 3.4133 1.5239 3.4133 3.414-1.85e-4 3.7548-3.027 6.7814-6.7818 6.7814 0 1.8901-1.5236 3.4137-3.4137 3.4137-3.755 0-6.782-3.0268-6.7821-6.7818-1.8899-1.86e-4 -3.4133-1.5237-3.4133-3.4137 0-3.755 3.0268-6.782 6.7818-6.7821 1.86e-4 -1.8899 1.5237-3.4133 3.4137-3.4133m0 1.6064m0 3.1914c-1.983 0-3.5906 1.6075-3.5907 3.5903-0.99794 3.18e-4 -1.8069 0.80949-1.8069 1.8076 1.96e-4 1.9827 1.6076 3.59 3.5903 3.59 0 0.99811 0.80913 1.8072 1.8072 1.8072 1.983 0 3.5906-1.6075 3.5907-3.5903 0.99794-1.97e-4 1.8069-0.80925 1.8069-1.8072 0-1.983-1.6075-3.5906-3.5903-3.5907-1.97e-4 -0.99794-0.80925-1.8069-1.8072-1.8069" color="#000000" fill-opacity=".014946" opacity="1" style="paint-order:normal"/>
		<path d="m36.321 33.36c-6.8675 0-12.46 5.5927-12.46 12.46v2.33e-4c1.27e-4 6.8674 5.5928 12.46 12.46 12.46h2.33e-4c6.8674-1.26e-4 12.46-5.5928 12.46-12.46v-2.33e-4c-1.26e-4 -6.8674-5.5928-12.46-12.46-12.46m0 0.87988m0 1.4935c3.5145 0 6.3476 2.833 6.3477 6.3473 2.0703 3.11e-4 3.7391 1.6694 3.7391 3.7398-1.73e-4 3.5142-2.8331 6.347-6.3473 6.347 0 2.0705-1.669 3.7395-3.7395 3.7395-3.5145 0-6.3476-2.833-6.3477-6.3473-2.0703-2.04e-4 -3.7391-1.6691-3.7391-3.7395 0-3.5145 2.833-6.3476 6.3473-6.3477 2.04e-4 -2.0703 1.6691-3.7391 3.7395-3.7391m0 1.7598m0 2.987c-1.856 0-3.3606 1.5045-3.3608 3.3604-1.0932 3.3e-4 -1.9793 0.88672-1.9793 1.9801 1.83e-4 1.8557 1.5046 3.36 3.3604 3.36 0 1.0934 0.88636 1.9797 1.9797 1.9797 1.856 0 3.3606-1.5045 3.3608-3.3604 1.0932-2.16e-4 1.9793-0.88649 1.9793-1.9797 0-1.856-1.5045-3.3606-3.3604-3.3608-2.17e-4 -1.0932-0.88649-1.9793-1.9797-1.9793" color="#000000" fill-opacity=".015998" opacity="1" style="paint-order:normal"/>
		<path d="m35.986 33.149c-6.7995 0-12.337 5.5373-12.337 12.337v2.52e-4c1.36e-4 6.7994 5.5374 12.337 12.337 12.337h2.52e-4c6.7994-1.36e-4 12.337-5.5374 12.337-12.337v-2.52e-4c-1.36e-4 -6.7994-5.5374-12.337-12.337-12.337m0 0.95038m0 1.3995c3.2933 0 5.9481 2.6546 5.9482 5.9478 2.2362 3.2e-4 4.0387 1.8031 4.0387 4.0394-1.62e-4 3.293-2.6547 5.9475-5.9478 5.9475 0 2.2364-1.8027 4.0391-4.0391 4.0391-3.2933 0-5.9481-2.6546-5.9482-5.9478-2.2362-2.2e-4 -4.0387-1.8029-4.0387-4.0391 0-3.2933 2.6546-5.9481 5.9478-5.9482 2.2e-4 -2.2362 1.8029-4.0387 4.0391-4.0387m0 1.9008m0 2.799c-1.7392 0-3.1491 1.4098-3.1493 3.1489-1.1808 3.39e-4 -2.1379 0.95773-2.1379 2.1387 1.72e-4 1.7389 1.4099 3.1485 3.1489 3.1485 0 1.181 0.95738 2.1384 2.1384 2.1384 1.7392 0 3.1491-1.4098 3.1493-3.1489 1.1808-2.34e-4 2.1379-0.95752 2.1379-2.1384 0-1.7392-1.4098-3.1491-3.1489-3.1493-2.34e-4 -1.1808-0.95752-2.1379-2.1384-2.1379" color="#000000" fill-opacity=".016966" opacity="1" style="paint-order:normal"/>
		<path d="m35.674 32.952c-6.7362 0-12.222 5.4858-12.222 12.222v2.69e-4c1.47e-4 6.7361 5.4859 12.222 12.222 12.222h2.69e-4c6.7361-1.46e-4 12.222-5.4859 12.222-12.222v-2.69e-4c-1.46e-4 -6.7361-5.4859-12.222-12.222-12.222m0 1.016m0 1.312c3.0875 0 5.5763 2.4887 5.5764 5.576 2.3906 3.29e-4 4.3176 1.9276 4.3176 4.3183-1.52e-4 3.0872-2.4888 5.5757-5.576 5.5757 0 2.3908-1.9272 4.318-4.318 4.318-3.0875 0-5.5763-2.4887-5.5764-5.576-2.3906-2.35e-4 -4.3176-1.9274-4.3176-4.318 0-3.0875 2.4887-5.5763 5.576-5.5764 2.36e-4 -2.3906 1.9274-4.3176 4.318-4.3176m0 2.032m0 2.624c-1.6305 0-2.9523 1.3217-2.9525 2.952-1.2623 3.49e-4 -2.2855 1.0238-2.2855 2.2863 1.62e-4 1.6302 1.3218 2.9517 2.952 2.9517 0 1.2625 1.0235 2.286 2.286 2.286 1.6305 0 2.9523-1.3217 2.9525-2.952 1.2623-2.49e-4 2.2855-1.0236 2.2855-2.286 0-1.6305-1.3217-2.9523-2.952-2.9525-2.5e-4 -1.2623-1.0236-2.2855-2.286-2.2855" color="#000000" fill-opacity=".017867" opacity="1" style="paint-order:normal"/>
		<path d="m35.381 32.767c-6.6768 0-12.114 5.4374-12.114 12.114v2.85e-4c1.55e-4 6.6767 5.4374 12.114 12.114 12.114h2.86e-4c6.6767-1.55e-4 12.114-5.4374 12.114-12.114v-2.86e-4c-1.55e-4 -6.6767-5.4374-12.114-12.114-12.114m0 1.0776m0 1.2298c2.8941 0 5.2271 2.3328 5.2272 5.2268 2.5356 3.38e-4 4.5795 2.0445 4.5795 4.5802-1.43e-4 2.8938-2.3329 5.2265-5.2268 5.2265 0 2.5358-2.0441 4.5799-4.5799 4.5799-2.8941 0-5.2271-2.3328-5.2272-5.2268-2.5356-2.49e-4 -4.5795-2.0443-4.5795-4.5799 0-2.8941 2.3328-5.2271 5.2268-5.2272 2.5e-4 -2.5356 2.0443-4.5795 4.5799-4.5795m0 2.1553m0 2.4596c-1.5284 0-2.7674 1.2389-2.7676 2.7671-1.3389 3.59e-4 -2.4242 1.0859-2.4242 2.425 1.52e-4 1.5281 1.239 2.7668 2.7671 2.7668 0 1.3391 1.0856 2.4247 2.4247 2.4247 1.5284 0 2.7674-1.2389 2.7676-2.7671 1.3389-2.64e-4 2.4242-1.0857 2.4242-2.4247 0-1.5284-1.2389-2.7674-2.7671-2.7676-2.65e-4 -1.3389-1.0857-2.4242-2.4247-2.4242" color="#000000" fill-opacity=".018713" opacity="1" style="paint-order:normal"/>
		<path d="m35.104 32.592c-6.6206 0-12.012 5.3916-12.012 12.012v3.01e-4c1.63e-4 6.6204 5.3917 12.012 12.012 12.012h3.01e-4c6.6204-1.63e-4 12.012-5.3917 12.012-12.012v-3.01e-4c-1.63e-4 -6.6204-5.3917-12.012-12.012-12.012m0 1.1359m0 1.1521c2.7112 0 4.8968 2.1854 4.8969 4.8964 2.6728 3.46e-4 4.8272 2.155 4.8272 4.8279-1.33e-4 2.7109-2.1855 4.8962-4.8964 4.8962 0 2.673-2.1547 4.8277-4.8277 4.8277-2.7112 0-4.8968-2.1854-4.8969-4.8964-2.6728-2.63e-4 -4.8272-2.1549-4.8272-4.8277 0-2.7112 2.1854-4.8968 4.8964-4.8969 2.63e-4 -2.6728 2.1549-4.8272 4.8277-4.8272m0 2.2718m0 2.3042c-1.4318 0-2.5926 1.1606-2.5927 2.5922-1.4113 3.66e-4 -2.5553 1.1446-2.5553 2.5561 1.42e-4 1.4315 1.1607 2.592 2.5922 2.592 0 1.4115 1.1443 2.5558 2.5558 2.5558 1.4318 0 2.5926-1.1606 2.5927-2.5922 1.4113-2.79e-4 2.5553-1.1445 2.5553-2.5558 0-1.4318-1.1606-2.5926-2.5922-2.5927-2.79e-4 -1.4113-1.1445-2.5553-2.5558-2.5553" color="#000000" fill-opacity=".019513" opacity="1" style="paint-order:normal"/>
		<path d="m34.841 32.426c-6.5671 0-11.915 5.348-11.915 11.915v3.16e-4c1.72e-4 6.5669 5.3481 11.915 11.915 11.915h3.16e-4c6.5669-1.71e-4 11.915-5.3481 11.915-11.915v-3.16e-4c-1.71e-4 -6.5669-5.3481-11.915-11.915-11.915m0 1.1914m0 1.0782c2.5373 0 4.5826 2.0452 4.5828 4.5823 2.8032 3.53e-4 5.0628 2.2602 5.0628 5.0635-1.25e-4 2.537-2.0452 4.582-4.5823 4.582 0 2.8034-2.2599 5.0633-5.0633 5.0633-2.5373 0-4.5826-2.0452-4.5828-4.5823-2.8032-2.76e-4 -5.0628-2.26-5.0628-5.0633 0-2.5373 2.0452-4.5826 4.5823-4.5828 2.76e-4 -2.8032 2.26-5.0628 5.0633-5.0628m0 2.3827m0 2.1564c-1.34 0-2.4263 1.0861-2.4264 2.4259-1.4802 3.74e-4 -2.68 1.2005-2.68 2.6808 1.33e-4 1.3397 1.0862 2.4257 2.4259 2.4257 0 1.4804 1.2001 2.6806 2.6806 2.6806 1.34 0 2.4263-1.0861 2.4264-2.4259 1.4802-2.93e-4 2.68-1.2003 2.68-2.6806 0-1.34-1.0861-2.4263-2.4259-2.4264-2.93e-4 -1.4802-1.2003-2.68-2.6806-2.68" color="#000000" fill-opacity=".020274" opacity="1" style="paint-order:normal"/>
		<path d="m34.589 32.267c-6.516 0-11.822 5.3064-11.822 11.822v3.29e-4c1.78e-4 6.5158 5.3065 11.822 11.822 11.822h3.3e-4c6.5158-1.79e-4 11.822-5.3065 11.822-11.822v-3.3e-4c-1.79e-4 -6.5158-5.3065-11.822-11.822-11.822m0 1.2443m0 1.0075c2.3711 0 4.2824 1.9112 4.2826 4.2821 2.9279 3.6e-4 5.2879 2.3607 5.2879 5.2887-1.16e-4 2.3708-1.9112 4.2818-4.2821 4.2818 0 2.9281-2.3604 5.2885-5.2885 5.2885-2.3711 0-4.2824-1.9112-4.2826-4.2821-2.9279-2.88e-4 -5.2879-2.3605-5.2879-5.2885 0-2.3711 1.9112-4.2824 4.2821-4.2826 2.88e-4 -2.9279 2.3605-5.2879 5.2885-5.2879m0 2.4887m0 2.0151c-1.2522 0-2.2674 1.015-2.2675 2.267-1.546 3.82e-4 -2.7992 1.2538-2.7992 2.8 1.24e-4 1.2519 1.015 2.2667 2.267 2.2667 0 1.5463 1.2535 2.7998 2.7998 2.7998 1.2522 0 2.2674-1.015 2.2675-2.267 1.546-3.06e-4 2.7992-1.2537 2.7992-2.7998 0-1.2522-1.015-2.2674-2.267-2.2675-3.05e-4 -1.546-1.2537-2.7992-2.7998-2.7992" color="#000000" fill-opacity=".021001" opacity="1" style="paint-order:normal"/>
		<path d="m34.348 32.115c-6.467 0-11.733 5.2665-11.733 11.733v3.43e-4c1.86e-4 6.4668 5.2666 11.733 11.733 11.733h3.44e-4c6.4668-1.87e-4 11.733-5.2666 11.733-11.733v-3.43e-4c-1.87e-4 -6.4668-5.2666-11.733-11.733-11.733m0 1.2952m0 0.9398c2.2117 0 3.9945 1.7827 3.9947 3.9941 3.0474 3.67e-4 5.5038 2.4571 5.5038 5.5046-1.09e-4 2.2114-1.7827 3.9939-3.9941 3.9939 0 3.0477-2.4567 5.5044-5.5044 5.5044-2.2117 0-3.9945-1.7827-3.9947-3.9941-3.0474-3e-4 -5.5038-2.4569-5.5038-5.5044 0-2.2117 1.7827-3.9945 3.9941-3.9947 3e-4 -3.0474 2.4569-5.5038 5.5044-5.5038m0 2.5903m0 1.8796c-1.168 0-2.1149 0.94671-2.1151 2.1145-1.6091 3.89e-4 -2.9135 1.305-2.9135 2.9143 1.15e-4 1.1677 0.94678 2.1143 2.1145 2.1143 0 1.6094 1.3047 2.9141 2.9141 2.9141 1.168 0 2.1149-0.94671 2.1151-2.1145 1.6091-3.19e-4 2.9135-1.3049 2.9135-2.9141 0-1.168-0.94671-2.1149-2.1145-2.1151-3.19e-4 -1.6091-1.3049-2.9135-2.9141-2.9135" color="#000000" fill-opacity=".021698" opacity="1" style="paint-order:normal"/>
		<path d="m34.116 31.968c-6.4198 0-11.648 5.2281-11.648 11.648v3.56e-4c1.93e-4 6.4197 5.2282 11.648 11.648 11.648h3.56e-4c6.4197-1.94e-4 11.648-5.2282 11.648-11.648v-3.56e-4c-1.94e-4 -6.4197-5.2282-11.648-11.648-11.648m0 1.344m0 0.87461c2.0583 0 3.7175 1.659 3.7177 3.7171 3.1624 3.74e-4 5.7116 2.5498 5.7116 5.7124-1.02e-4 2.058-1.6591 3.7169-3.7171 3.7169 0 3.1627-2.5495 5.7122-5.7122 5.7122-2.0583 0-3.7175-1.659-3.7177-3.7171-3.1624-3.11e-4 -5.7116-2.5497-5.7116-5.7122 0-2.0583 1.659-3.7175 3.7171-3.7177 3.11e-4 -3.1624 2.5497-5.7116 5.7122-5.7116m0 2.6881m0 1.7492c-1.087 0-1.9683 0.88105-1.9685 1.9679-1.6699 3.97e-4 -3.0235 1.3543-3.0235 3.0243 1.07e-4 1.0867 0.88111 1.9677 1.9679 1.9677 0 1.6702 1.3539 3.0241 3.0241 3.0241 1.087 0 1.9683-0.88105 1.9685-1.9679 1.6699-3.31e-4 3.0235-1.3541 3.0235-3.0241 0-1.087-0.88105-1.9683-1.9679-1.9685-3.3e-4 -1.6699-1.3541-3.0235-3.0241-3.0235" color="#000000" fill-opacity=".022369" opacity="1" style="paint-order:normal"/>
		<path d="m33.892 31.826c-6.3743 0-11.565 5.191-11.565 11.565v3.69e-4c2e-4 6.3742 5.1912 11.565 11.565 11.565h3.69e-4c6.3742-2e-4 11.565-5.1912 11.565-11.565v-3.68e-4c-2e-4 -6.3742-5.1912-11.565-11.565-11.565m0 1.3912m0 0.81171c1.9103 0 3.4502 1.5397 3.4504 3.4498 3.2734 3.81e-4 5.9121 2.6393 5.9121 5.9128-9.4e-5 1.91-1.5398 3.4496-3.4498 3.4496 0 3.2737-2.639 5.9127-5.9127 5.9127-1.9103 0-3.4502-1.5397-3.4504-3.4498-3.2734-3.22e-4 -5.9121-2.6392-5.9121-5.9127 0-1.9103 1.5397-3.4502 3.4498-3.4504 3.22e-4 -3.2734 2.6392-5.9121 5.9127-5.9121m0 2.7824m0 1.6234c-1.0089 0-1.8268 0.81768-1.827 1.8264-1.7285 4.03e-4 -3.1296 1.4018-3.1296 3.1304 1e-4 1.0086 0.81775 1.8262 1.8264 1.8262 0 1.7288 1.4015 3.1302 3.1302 3.1302 1.0089 0 1.8268-0.81768 1.827-1.8264 1.7285-3.42e-4 3.1296-1.4017 3.1296-3.1302 0-1.0089-0.81768-1.8268-1.8264-1.827-3.42e-4 -1.7285-1.4017-3.1296-3.1302-3.1296" color="#000000" fill-opacity=".023017" opacity="1" style="paint-order:normal"/>
		<path d="m33.675 31.689c-6.3303 0-11.486 5.1552-11.486 11.486v3.81e-4c2.07e-4 6.3301 5.1553 11.485 11.486 11.485h3.81e-4c6.3302-2.07e-4 11.485-5.1553 11.485-11.486v-3.81e-4c-2.07e-4 -6.3302-5.1553-11.485-11.486-11.485m0 1.4368m0 0.75088c1.7671 0 3.1916 1.4243 3.1918 3.1912 3.3808 3.86e-4 6.106 2.7258 6.106 6.1067-8.7e-5 1.7668-1.4244 3.1911-3.1912 3.1911 0 3.3811-2.7255 6.1066-6.1066 6.1066-1.7671 0-3.1916-1.4243-3.1918-3.1912-3.3808-3.32e-4 -6.106-2.7257-6.106-6.1066 0-1.7671 1.4243-3.1916 3.1912-3.1918 3.33e-4 -3.3808 2.7257-6.106 6.1066-6.106m0 2.8737m0 1.5018c-0.93329 0-1.6899 0.7564-1.6901 1.6895-1.7852 4.1e-4 -3.2322 1.4477-3.2322 3.2331 9.2e-5 0.93299 0.75646 1.6893 1.6895 1.6893 0 1.7855 1.4474 3.2329 3.2329 3.2329 0.93329 0 1.6899-0.7564 1.6901-1.6895 1.7852-3.53e-4 3.2322-1.4476 3.2322-3.2329 0-0.93329-0.7564-1.6899-1.6895-1.6901-3.54e-4 -1.7852-1.4476-3.2322-3.2329-3.2322" color="#000000" fill-opacity=".023643" opacity="1" style="paint-order:normal"/>
		<path d="m33.465 31.557c-6.2877 0-11.408 5.1205-11.408 11.408v3.92e-4c2.13e-4 6.2875 5.1206 11.408 11.408 11.408h3.93e-4c6.2875-2.13e-4 11.408-5.1206 11.408-11.408v-3.92e-4c-2.13e-4 -6.2875-5.1206-11.408-11.408-11.408m0 1.4811m0 0.69192c1.6284 0 2.9411 1.3125 2.9413 2.9406 3.4848 3.93e-4 6.2939 2.8097 6.2939 6.2947-8.1e-5 1.6281-1.3125 2.9405-2.9406 2.9405 0 3.4851-2.8094 6.2945-6.2945 6.2945-1.6284 0-2.9411-1.3125-2.9413-2.9406-3.4848-3.43e-4 -6.2939-2.8096-6.2939-6.2945 0-1.6284 1.3125-2.9411 2.9406-2.9413 3.43e-4 -3.4848 2.8096-6.2939 6.2945-6.2939m0 2.9621m0 1.3838c-0.86003 0-1.5573 0.69701-1.5575 1.5568-1.8401 4.16e-4 -3.3317 1.4923-3.3317 3.3325 8.5e-5 0.85973 0.69706 1.5567 1.5568 1.5567 0 1.8404 1.492 3.3324 3.3324 3.3324 0.86003 0 1.5573-0.69701 1.5575-1.5568 1.8401-3.64e-4 3.3317-1.4922 3.3317-3.3324 0-0.86003-0.69701-1.5573-1.5568-1.5575-3.65e-4 -1.8401-1.4922-3.3317-3.3324-3.3317" color="#000000" fill-opacity=".02425" opacity="1" style="paint-order:normal"/>
		<path d="m33.261 31.428c-6.2463 0-11.333 5.0867-11.333 11.333v4.04e-4c2.19e-4 6.2461 5.0869 11.333 11.333 11.333h4.03e-4c6.2461-2.2e-4 11.333-5.0869 11.333-11.333v-4.03e-4c-2.2e-4 -6.2461-5.0869-11.333-11.333-11.333m0 1.524m0 0.63466c1.4937 0 2.6978 1.2039 2.698 2.6973 3.5859 3.98e-4 6.4764 2.8911 6.4764 6.4771-7.4e-5 1.4934-1.2039 2.6972-2.6973 2.6972 0 3.5862-2.8908 6.477-6.477 6.477-1.4937 0-2.6978-1.2039-2.698-2.6973-3.5859-3.53e-4 -6.4764-2.891-6.4764-6.477 0-1.4937 1.2039-2.6978 2.6973-2.698 3.53e-4 -3.5859 2.891-6.4764 6.477-6.4764m0 3.048m0 1.2693c-0.78889 0-1.4285 0.63934-1.4287 1.428-1.8935 4.23e-4 -3.4283 1.5355-3.4283 3.4291 7.8e-5 0.78859 0.63938 1.4279 1.428 1.4279 0 1.8938 1.5352 3.429 3.429 3.429 0.78889 0 1.4285-0.63934 1.4287-1.428 1.8935-3.75e-4 3.4283-1.5354 3.4283-3.429 0-0.78889-0.63934-1.4285-1.428-1.4287-3.75e-4 -1.8935-1.5354-3.4283-3.429-3.4283" color="#000000" fill-opacity=".024839" opacity="1" style="paint-order:normal"/>
		<path d="m33.063 31.303c-6.206 0-11.26 5.0539-11.26 11.26v4.14e-4c2.25e-4 6.2058 5.0541 11.26 11.26 11.26h4.15e-4c6.2058-2.25e-4 11.26-5.0541 11.26-11.26v-4.15e-4c-2.25e-4 -6.2058-5.0541-11.26-11.26-11.26m0 1.5658m0 0.57898c1.3626 0 2.4611 1.0983 2.4614 2.4607 3.6841 4.04e-4 6.6538 2.9704 6.6538 6.6546-6.7e-5 1.3624-1.0983 2.4606-2.4607 2.4606 0 3.6844-2.97 6.6545-6.6545 6.6545-1.3626 0-2.4611-1.0983-2.4614-2.4607-3.6841-3.62e-4 -6.6538-2.9703-6.6538-6.6545 0-1.3626 1.0983-2.4611 2.4607-2.4614 3.63e-4 -3.6841 2.9703-6.6538 6.6545-6.6538m0 3.1315m0 1.158c-0.7197 0-1.3032 0.58324-1.3034 1.3027-1.9454 4.29e-4 -3.5223 1.5776-3.5223 3.5231 7.1e-5 0.71941 0.58329 1.3026 1.3027 1.3026 0 1.9457 1.5773 3.523 3.523 3.523 0.7197 0 1.3032-0.58324 1.3034-1.3027 1.9454-3.85e-4 3.5223-1.5775 3.5223-3.523 0-0.7197-0.58324-1.3032-1.3027-1.3034-3.85e-4 -1.9454-1.5775-3.5223-3.523-3.5223" color="#000000" fill-opacity=".025412" opacity="1" style="paint-order:normal"/>
		<path d="m32.869 31.181c-6.1667 0-11.189 5.022-11.189 11.189v4.26e-4c2.31e-4 6.1665 5.0221 11.188 11.189 11.188h4.26e-4c6.1666-2.31e-4 11.188-5.0221 11.188-11.189v-4.26e-4c-2.31e-4 -6.1665-5.0221-11.188-11.189-11.188m0 1.6064m0 0.52475c1.235 0 2.2306 0.99538 2.2309 2.2302 3.7798 4.09e-4 6.8267 3.0475 6.8267 6.8275-6e-5 1.2348-0.99542 2.2301-2.2302 2.2301 0 3.7802-3.0472 6.8274-6.8274 6.8274-1.235 0-2.2306-0.99538-2.2309-2.2302-3.7798-3.72e-4 -6.8267-3.0474-6.8267-6.8274 0-1.235 0.99538-2.2306 2.2302-2.2309 3.72e-4 -3.7798 3.0474-6.8267 6.8274-6.8267m0 3.2129m0 1.0495c-0.65232 0-1.1812 0.52861-1.1814 1.1807-1.9959 4.35e-4 -3.6138 1.6186-3.6138 3.6146 6.5e-5 0.65202 0.52865 1.1806 1.1807 1.1806 0 1.9962 1.6183 3.6145 3.6145 3.6145 0.65232 0 1.1812-0.52861 1.1814-1.1807 1.9959-3.95e-4 3.6138-1.6185 3.6138-3.6145 0-0.65232-0.52861-1.1812-1.1807-1.1814-3.95e-4 -1.9959-1.6185-3.6138-3.6145-3.6138" color="#000000" fill-opacity=".025971" opacity="1" style="paint-order:normal"/>
		<path d="m32.681 31.062c-6.1285 0-11.119 4.9908-11.119 11.119v4.36e-4c2.37e-4 6.1283 4.991 11.119 11.119 11.119h4.36e-4c6.1283-2.37e-4 11.119-4.991 11.119-11.119v-4.36e-4c-2.37e-4 -6.1283-4.991-11.119-11.119-11.119m0 1.6461m0 0.47185c1.1106 0 2.0059 0.89504 2.0061 2.0054 3.8732 4.15e-4 6.9953 3.1228 6.9953 6.9961-5.5e-5 1.1103-0.89508 2.0053-2.0054 2.0053 0 3.8735-3.1225 6.996-6.996 6.996-1.1106 0-2.0058-0.89504-2.0061-2.0054-3.8732-3.81e-4 -6.9953-3.1227-6.9953-6.996 0-1.1106 0.89504-2.0058 2.0054-2.0061 3.81e-4 -3.8732 3.1227-6.9953 6.996-6.9953m0 3.2922m0 0.94371c-0.58659 0-1.0622 0.47533-1.0624 1.0617-2.0452 4.41e-4 -3.703 1.6585-3.703 3.7039 5.8e-5 0.5863 0.47536 1.0616 1.0617 1.0616 0 2.0455 1.6582 3.7037 3.7037 3.7037 0.58659 0 1.0622-0.47533 1.0624-1.0617 2.0452-4.05e-4 3.703-1.6585 3.703-3.7037 0-0.58659-0.47533-1.0622-1.0617-1.0624-4.04e-4 -2.0452-1.6585-3.703-3.7037-3.703" color="#000000" fill-opacity=".026515" opacity="1" style="paint-order:normal"/>
		<path d="m32.497 30.945c-6.0911 0-11.052 4.9604-11.052 11.052v4.46e-4c2.42e-4 6.0909 4.9605 11.051 11.052 11.051h4.47e-4c6.0909-2.43e-4 11.051-4.9606 11.051-11.052v-4.46e-4c-2.43e-4 -6.0909-4.9605-11.051-11.052-11.051m0 1.6848m0 0.4202c0.98904 0 1.7864 0.79707 1.7866 1.7859 3.9643 4.2e-4 7.1599 3.1962 7.1599 7.1607-4.9e-5 0.98875-0.7971 1.7858-1.7859 1.7858 0 3.9647-3.1959 7.1606-7.1606 7.1606-0.98904 0-1.7864-0.79707-1.7866-1.7859-3.9643-3.9e-4 -7.1599-3.1962-7.1599-7.1606 0-0.98904 0.79707-1.7864 1.7859-1.7866 3.9e-4 -3.9643 3.1962-7.1599 7.1606-7.1599m0 3.3697m0 0.84041c-0.52242 0-0.94597 0.4233-0.94622 0.94546-2.0933 4.46e-4 -3.7901 1.6976-3.7901 3.791 5.1e-5 0.52212 0.42333 0.94536 0.94546 0.94536 0 2.0937 1.6972 3.7909 3.7909 3.7909 0.52242 0 0.94597-0.4233 0.94623-0.94546 2.0933-4.14e-4 3.7901-1.6975 3.7901-3.7909 0-0.52242-0.4233-0.94597-0.94546-0.94622-4.14e-4 -2.0933-1.6975-3.7901-3.7909-3.7901" color="#000000" fill-opacity=".027047" opacity="1" style="paint-order:normal"/>
		<path d="m32.317 30.832c-6.0546 0-10.985 4.9307-10.985 10.985v4.57e-4c2.48e-4 6.0544 4.9308 10.985 10.985 10.985h4.56e-4c6.0544-2.48e-4 10.985-4.9308 10.985-10.985v-4.56e-4c-2.48e-4 -6.0544-4.9308-10.985-10.985-10.985m0 1.7227m0 0.36972c0.87024 0 1.5718 0.7013 1.572 1.5713 4.0534 4.25e-4 7.3208 3.2681 7.3208 7.3216-4.3e-5 0.86995-0.70133 1.5712-1.5713 1.5712 0 4.0538-3.2678 7.3215-7.3215 7.3215-0.87024 0-1.5718-0.7013-1.572-1.5713-4.0534-3.99e-4 -7.3208-3.268-7.3208-7.3215 0-0.87024 0.7013-1.5718 1.5713-1.572 3.99e-4 -4.0534 3.268-7.3208 7.3215-7.3208m0 3.4454m0 0.73943c-0.45968 0-0.83238 0.37244-0.83264 0.83186-2.1404 4.52e-4 -3.8753 1.7357-3.8753 3.8762 4.5e-5 0.45938 0.37246 0.83178 0.83186 0.83178 0 2.1407 1.7354 3.8761 3.8761 3.8761 0.45968 0 0.83238-0.37244 0.83264-0.83186 2.1404-4.24e-4 3.8753-1.7357 3.8753-3.8761 0-0.45968-0.37244-0.83238-0.83186-0.83264-4.24e-4 -2.1404-1.7357-3.8753-3.8761-3.8753" color="#000000" fill-opacity=".027567" opacity="1" style="paint-order:normal"/>
		<path d="m32.141 30.721c-6.0189 0-10.92 4.9016-10.92 10.92v4.66e-4c2.53e-4 6.0186 4.9017 10.92 10.92 10.92h4.67e-4c6.0186-2.53e-4 10.92-4.9017 10.92-10.92v-4.66e-4c-2.53e-4 -6.0186-4.9017-10.92-10.92-10.92m0 1.7598m0 0.32031c0.75399 0 1.3618 0.60759 1.3621 1.3613 4.1406 4.31e-4 7.4782 3.3383 7.4782 7.4791-3.7e-5 0.75371-0.60761 1.3613-1.3613 1.3613 0 4.141-3.338 7.479-7.479 7.479-0.75399 0-1.3618-0.60759-1.3621-1.3613-4.1406-4.07e-4 -7.4782-3.3383-7.4782-7.479 0-0.75399 0.60759-1.3618 1.3613-1.3621 4.08e-4 -4.1406 3.3383-7.4782 7.479-7.4782m0 3.5195m0 0.64062c-0.3983 0-0.72124 0.32267-0.7215 0.7207-2.1864 4.57e-4 -3.9587 1.773-3.9587 3.9595 4e-5 0.398 0.3227 0.72063 0.7207 0.72063 0 2.1868 1.7727 3.9595 3.9595 3.9595 0.3983 0 0.72124-0.32267 0.7215-0.7207 2.1864-4.32e-4 3.9587-1.773 3.9587-3.9595 0-0.3983-0.32267-0.72124-0.7207-0.7215-4.32e-4 -2.1864-1.773-3.9587-3.9595-3.9587" color="#000000" fill-opacity=".028075" opacity="1" style="paint-order:normal"/>
		<path d="m31.969 30.612c-5.9839 0-10.857 4.873-10.857 10.857v4.76e-4c2.58e-4 5.9836 4.8732 10.856 10.857 10.856h4.76e-4c5.9836-2.58e-4 10.856-4.8732 10.856-10.857v-4.76e-4c-2.58e-4 -5.9836-4.8732-10.856-10.857-10.856m0 1.7961m0 0.27193c0.64014 0 1.1562 0.51581 1.1565 1.1557 4.226 4.35e-4 7.6325 3.4072 7.6325 7.6333-3.2e-5 0.63986-0.51583 1.1556-1.1557 1.1556 0 4.2264-3.4069 7.6332-7.6332 7.6332-0.64014 0-1.1562-0.51581-1.1565-1.1557-4.226-4.16e-4 -7.6325-3.4071-7.6325-7.6332 0-0.64014 0.51581-1.1562 1.1557-1.1565 4.16e-4 -4.226 3.4071-7.6325 7.6332-7.6325m0 3.5921m0 0.54386c-0.33818 0-0.61239 0.27393-0.61266 0.61184-2.2315 4.62e-4 -4.0403 1.8096-4.0403 4.0412 3.3e-5 0.33788 0.27395 0.61178 0.61184 0.61178 0 2.2318 1.8093 4.0411 4.0411 4.0411 0.33818 0 0.61239-0.27393 0.61266-0.61184 2.2315-4.41e-4 4.0403-1.8095 4.0403-4.0411 0-0.33818-0.27393-0.61239-0.61184-0.61266-4.41e-4 -2.2315-1.8095-4.0403-4.0411-4.0403" color="#000000" fill-opacity=".028573" opacity="1" style="paint-order:normal"/>
		<path d="m31.8 30.505c-5.9495 0-10.795 4.8451-10.795 10.795v4.85e-4c2.64e-4 5.9493 4.8453 10.794 10.795 10.794h4.85e-4c5.9493-2.64e-4 10.794-4.8453 10.794-10.795v-4.85e-4c-2.64e-4 -5.9493-4.8453-10.794-10.795-10.794m0 1.8316m0 0.2245c0.52855 0 0.95467 0.42586 0.95493 0.95414 4.3097 4.4e-4 7.7836 3.4746 7.7836 7.7844-2.6e-5 0.52827-0.42587 0.9541-0.95414 0.9541 0 4.31-3.4743 7.7844-7.7844 7.7844-0.52855 0-0.95467-0.42586-0.95493-0.95414-4.3097-4.24e-4 -7.7836-3.4746-7.7836-7.7844 0-0.52855 0.42586-0.95467 0.95414-0.95493 4.24e-4 -4.3097 3.4746-7.7836 7.7844-7.7836m0 3.6632m0 0.44901c-0.27926 0-0.50569 0.22616-0.50597 0.50514-2.2757 4.67e-4 -4.1203 1.8454-4.1203 4.1212 2.8e-5 0.27895 0.22617 0.50508 0.50514 0.50508 0 2.276 1.8451 4.1211 4.1211 4.1211 0.27926 0 0.50569-0.22616 0.50597-0.50513 2.2757-4.5e-4 4.1203-1.8454 4.1203-4.1211 0-0.27926-0.22616-0.50569-0.50514-0.50597-4.5e-4 -2.2757-1.8454-4.1203-4.1211-4.1203" color="#000000" fill-opacity=".029061" opacity="1" style="paint-order:normal"/>
		<path d="m31.634 30.4c-5.9159 0-10.734 4.8177-10.734 10.734v4.94e-4c2.68e-4 5.9157 4.8179 10.733 10.734 10.733h4.94e-4c5.9157-2.68e-4 10.733-4.8179 10.733-10.734v-4.95e-4c-2.68e-4 -5.9157-4.8179-10.733-10.734-10.733m0 1.8665m0 0.17798c0.41908 0 0.75696 0.33761 0.75723 0.75643 4.3918 4.45e-4 7.9319 3.5408 7.9319 7.9327-2e-5 0.4188-0.33762 0.75639-0.75643 0.75639 0 4.3922-3.5405 7.9327-7.9327 7.9327-0.41908 0-0.75696-0.33761-0.75723-0.75643-4.3918-4.32e-4 -7.9319-3.5408-7.9319-7.9327 0-0.41908 0.33761-0.75696 0.75643-0.75723 4.32e-4 -4.3918 3.5408-7.9319 7.9327-7.9319m0 3.733m0 0.35597c-0.22145 0-0.40103 0.17929-0.40131 0.40046-2.319 4.72e-4 -4.1988 1.8806-4.1988 4.1997 2.2e-5 0.22115 0.17931 0.40042 0.40046 0.40042 0 2.3194 1.8802 4.1997 4.1997 4.1997 0.22145 0 0.40103-0.17929 0.40131-0.40046 2.319-4.59e-4 4.1988-1.8805 4.1988-4.1997 0-0.22145-0.17929-0.40103-0.40046-0.40131-4.59e-4 -2.319-1.8805-4.1988-4.1997-4.1988" color="#000000" fill-opacity=".02954" opacity="1" style="paint-order:normal"/>
		<path d="m31.471 30.298c-5.8829 0-10.674 4.7908-10.674 10.674v5.03e-4c2.74e-4 5.8826 4.791 10.673 10.674 10.673h5.03e-4c5.8826-2.74e-4 10.673-4.791 10.673-10.674v-5.04e-4c-2.74e-4 -5.8826-4.791-10.673-10.674-10.673m0 1.9008m0 0.13232c0.31163 0 0.56288 0.25098 0.56316 0.56234 4.4724 4.5e-4 8.0774 3.6058 8.0774 8.0783-1.5e-5 0.31134-0.25099 0.56231-0.56234 0.56231 0 4.4727-3.6055 8.0782-8.0782 8.0782-0.31163 0-0.56288-0.25098-0.56316-0.56234-4.4724-4.4e-4 -8.0774-3.6058-8.0774-8.0782 0-0.31163 0.25098-0.56288 0.56234-0.56316 4.4e-4 -4.4724 3.6058-8.0774 8.0782-8.0774m0 3.8015m0 0.26463c-0.16471 0-0.29828 0.13329-0.29857 0.29771-2.3616 4.77e-4 -4.2759 1.9151-4.2759 4.2767 1.6e-5 0.16441 0.1333 0.29768 0.29771 0.29768 0 2.362 1.9148 4.2767 4.2767 4.2767 0.16471 0 0.29828-0.13329 0.29857-0.29771 2.3616-4.67e-4 4.2759-1.915 4.2759-4.2767 0-0.16471-0.13329-0.29828-0.29771-0.29857-4.67e-4 -2.3616-1.915-4.2759-4.2767-4.2759" color="#000000" fill-opacity=".030011" opacity="1" style="paint-order:normal"/>
		<path d="m31.312 30.197c-5.8504 0-10.615 4.7644-10.615 10.615v5.13e-4c2.78e-4 5.8502 4.7645 10.614 10.615 10.614h5.12e-4c5.8502-2.78e-4 10.614-4.7645 10.614-10.615v-5.12e-4c-2.78e-4 -5.8502-4.7645-10.614-10.615-10.614m0 1.9344m0 0.08746c0.20607 0 0.37224 0.16589 0.37252 0.37169 4.5515 4.54e-4 8.2204 3.6696 8.2204 8.2213-1e-5 0.20579-0.1659 0.37167-0.37169 0.37167 0 4.5519-3.6693 8.2212-8.2212 8.2212-0.20607 0-0.37224-0.16589-0.37252-0.37169-4.5515-4.48e-4 -8.2204-3.6696-8.2204-8.2212 0-0.20607 0.16589-0.37224 0.37169-0.37252 4.48e-4 -4.5515 3.6696-8.2204 8.2212-8.2204m0 3.8688m0 0.17491c-0.10897 0-0.19736 0.0881-0.19766 0.19678-2.4034 4.82e-4 -4.3515 1.949-4.3515 4.3524 1.1e-5 0.10867 0.08811 0.19676 0.19678 0.19676 0 2.4038 1.9486 4.3524 4.3524 4.3524 0.10897 0 0.19736-0.0881 0.19766-0.19678 2.4034-4.76e-4 4.3515-1.9489 4.3515-4.3524 0-0.10897-0.0881-0.19736-0.19678-0.19766-4.76e-4 -2.4034-1.9489-4.3515-4.3524-4.3515" color="#000000" fill-opacity=".030472" opacity="1" style="paint-order:normal"/>
		<path d="m31.154 30.098c-5.8185 0-10.557 4.7384-10.557 10.557v5.21e-4c2.83e-4 5.8183 4.7386 10.556 10.557 10.556h5.21e-4c5.8183-2.83e-4 10.556-4.7386 10.556-10.557v-5.21e-4c-2.83e-4 -5.8183-4.7386-10.556-10.557-10.556m0 1.9675m0 0.04336c0.10232 0 0.18486 0.08226 0.18514 0.18429 4.6293 4.59e-4 8.3609 3.7323 8.3609 8.3618-5e-6 0.10204-0.08226 0.18428-0.18429 0.18428 0 4.6297-3.732 8.3618-8.3618 8.3618-0.10232 0-0.18486-0.08225-0.18514-0.18429-4.6293-4.55e-4 -8.3609-3.7323-8.3609-8.3618 0-0.10232 0.08225-0.18486 0.18429-0.18514 4.56e-4 -4.6293 3.7323-8.3609 8.3618-8.3609m0 3.935m0 0.08673c-0.05418 0-0.09817 0.04368-0.09846 0.09757-2.4445 4.87e-4 -4.4259 1.9823-4.4259 4.4268 5e-6 0.05388 0.04369 0.09756 0.09757 0.09756 0 2.4449 1.982 4.4268 4.4268 4.4268 0.05418 0 0.09816-0.04368 0.09846-0.09757 2.4445-4.84e-4 4.4259-1.9823 4.4259-4.4268 0-0.05418-0.04368-0.09817-0.09757-0.09846-4.84e-4 -2.4445-1.9823-4.4259-4.4268-4.4259" color="#000000" fill-opacity=".030926" opacity="1" style="paint-order:normal"/>
		<path d="m31 30c-5.7871 0-10.5 4.7129-10.5 10.5v5.3e-4c2.88e-4 5.7869 4.713 10.499 10.5 10.499h5.3e-4c5.7869-2.88e-4 10.499-4.713 10.499-10.5v-5.3e-4c-2.88e-4 -5.7869-4.713-10.499-10.5-10.499m0 2h8.62e-4c4.7059 4.63e-4 8.4991 3.794 8.4991 8.5 0 4.7063-3.7937 8.5-8.5 8.5h-8.62e-4c-4.7059-4.63e-4 -8.4991-3.794-8.4991-8.5v-8.62e-4c4.63e-4 -4.7059 3.794-8.4991 8.5-8.4991m0 4h-9.1e-4c-2.4849 4.92e-4 -4.4991 2.015-4.4991 4.5 0 2.4853 2.0147 4.5 4.5 4.5h9.1e-4c2.4849-4.92e-4 4.4991-2.015 4.4991-4.5v-9.1e-4c-4.92e-4 -2.4849-2.015-4.4991-4.5-4.4991" color="#000000" fill-opacity=".031373" opacity="1" style="paint-order:normal"/>
	</g>
	<path d="m53.812 17-15.781 15.781c-1.9278-1.7517-4.4147-2.7812-7.0312-2.7812h-0.125c-2.837 0.03812-5.411 1.2235-7.2812 3.0938-1.9016 1.9016-3.0938 4.5127-3.0938 7.4062h2c-1e-6 -4.7063 3.7937-8.5 8.5-8.5 2.2547 0 4.4369 0.87442 6.0312 2.4688l0.34375 0.375 0.71875 0.71875 0.6875-0.71875 17.844-17.844z" color="#000000" fill="#d5ffff" style="font-variant-east_asian:normal;paint-order:normal"/>
	<path d="m31 36c-2.4853 0-4.5 2.0147-4.5 4.5s2.0147 4.5 4.5 4.5 4.5-2.0147 4.5-4.5-2.0147-4.5-4.5-4.5z" color="#000000" fill="#4b617d"/>
	<path d="m39.5 40.5c0 4.7063-3.7937 8.5-8.5 8.5-2.2547 0-4.4369-0.87442-6.0312-2.4688l-0.34375-0.375-0.71875-0.71875-0.6875 0.71875-18.219 18.219 3-0.1875 15.969-15.969c1.9278 1.7517 4.4147 2.7812 7.0312 2.7812h0.125c2.837-0.03812 5.411-1.2235 7.2812-3.0938 1.9016-1.9016 3.0938-4.5127 3.0938-7.4062z" color="#000000" fill="#d5ffff" style="font-variant-east_asian:normal;paint-order:normal"/>
</svg>
