<?xml version="1.0" encoding="UTF-8"?>
<!-- Created with Inkscape (http://www.inkscape.org/) -->
<svg width="64" height="64" version="1.1" xmlns="http://www.w3.org/2000/svg" xmlns:cc="http://creativecommons.org/ns#" xmlns:dc="http://purl.org/dc/elements/1.1/" xmlns:rdf="http://www.w3.org/1999/02/22-rdf-syntax-ns#" xmlns:xlink="http://www.w3.org/1999/xlink">
	<defs>
		<linearGradient id="d" x1="53" x2="53" y1="17" y2="15" gradientUnits="userSpaceOnUse">
			<stop stop-color="#dad8ce" offset="0"/>
			<stop stop-color="#ebebeb" offset="1"/>
		</linearGradient>
		<linearGradient id="f" x1="32.559" x2="33.542" y1="15.559" y2="14.542" gradientUnits="userSpaceOnUse">
			<stop stop-color="#37321c" stop-opacity=".15675" offset="0"/>
			<stop stop-color="#6d5524" stop-opacity="0" offset="1"/>
		</linearGradient>
		<radialGradient id="a" cx="33.466" cy="2.1992" r="30.5" gradientTransform="matrix(-1.0283 0 0 -.55738 67.779 1.2258)" gradientUnits="userSpaceOnUse">
			<stop stop-color="#668cbb" offset="0"/>
			<stop stop-color="#668cbb" offset="1"/>
		</radialGradient>
		<radialGradient id="b" cx="30.107" cy="50.318" r="30.5" gradientTransform="matrix(2.7541,-1.4218e-7,8.3652e-8,2.7869,-52.917,-93.23)" gradientUnits="userSpaceOnUse">
			<stop stop-color="#9e1423" stop-opacity=".12917" offset="0"/>
			<stop stop-color="#f4405b" stop-opacity=".023222" offset=".54"/>
			<stop stop-color="#f43f6d" stop-opacity=".169" offset="1"/>
		</radialGradient>
		<linearGradient id="h" x1="-5" x2="-5" y1="64" y2="14" gradientTransform="translate(.88908)" gradientUnits="userSpaceOnUse">
			<stop stop-color="#f43f66" stop-opacity=".018868" offset="0"/>
			<stop stop-color="#f4ae3f" stop-opacity=".47025" offset="1"/>
		</linearGradient>
		<linearGradient id="g" x1="61" x2="60" y1="17" gradientTransform="translate(-.88255)" gradientUnits="userSpaceOnUse">
			<stop stop-color="#3e4d60" stop-opacity=".72157" offset="0"/>
			<stop stop-color="#393b49" stop-opacity=".2656" offset="1"/>
		</linearGradient>
		<linearGradient id="e" x1="4.5255" x2="4.5255" y1="64" y2="61.09" gradientUnits="userSpaceOnUse">
			<stop stop-color="#e50d4c" stop-opacity=".47868" offset="0"/>
			<stop stop-color="#e50d4c" stop-opacity="0" offset="1"/>
		</linearGradient>
		<linearGradient id="c" x1="62.381" x2="62.381" y1="63.314" y2="23.077" gradientUnits="userSpaceOnUse">
			<stop stop-color="#000828" stop-opacity=".35976" offset="0"/>
			<stop stop-color="#000828" stop-opacity=".12715" offset="1"/>
		</linearGradient>
	</defs>
	<metadata>
		<rdf:RDF>
			<cc:Work rdf:about="">
				<dc:format>image/svg+xml</dc:format>
				<dc:type rdf:resource="http://purl.org/dc/dcmitype/StillImage"/>
				<dc:title/>
			</cc:Work>
		</rdf:RDF>
	</metadata>
	<g>
		<g>
			<path d="m38 0c-1 0-1.5103 0.51027-2 1l-3 3c-0.53814 0.53814-1 1-2 1h-28c-0.52243 0-1 0.43922-1 1l-0.76511 58h61.543c1 0 1.2218-1 1.2218-2v-61c0-0.51973-0.5-1-1-1z" color="#000000" fill="url(#a)"/>
			<path d="m38 0c-1 0-1.5103 0.51027-2 1l-3 3c-0.53814 0.53814-1 1-2 1h-28c-0.52243 0-1 0.43922-1 1l-0.76511 58h61.543c1 0 1.2218-1 1.2218-2v-61c0-0.51973-0.5-1-1-1z" color="#000000" fill="url(#g)"/>
			<path d="m38 0c-1 0-1.5103 0.51027-2 1l-3 3c-0.53814 0.53814-1 1-2 1h-28c-0.52243 0-1 0.43922-1 1l-0.76562 58h0.00586l0.75976-57.5c0-0.56078 0.47757-1 1-1h28c1 0 1.4619-0.46186 2-1l3-3c0.48973-0.48973 1-1 2-1h25c0.5 0 1 0.48027 1 1v-0.5c0-0.51973-0.5-1-1-1z" color="#000000" fill="#b3ffff" fill-opacity=".19073"/>
			<path d="m61 13v51h1.7773c0.094079 0 0.17509-0.016334 0.25586-0.033203l0.8125-0.8125c0.11225-0.34056 0.1543-0.74535 0.1543-1.1543v-46l-3-3z" fill="url(#c)"/>
			<path d="m63.5 0.15532v61.845c0 0.52439-0.13604 1.5011-0.72184 1.5v0.5c1 0 1.2218-1 1.2218-2v-61c0-0.39808-0.24002-0.69459-0.5-0.84468z" fill="#0f1f33" fill-opacity=".14136" style="paint-order:normal"/>
		</g>
		<g>
			<path d="m7 13h54v31h-54z" fill="url(#d)"/>
			<path d="m30 13 4 4h2l-4-4z" color="#000000" fill="url(#f)"/>
		</g>
		<path d="m62.778 63.5c-0.58579-0.0011-0.77816-0.9402-0.77816-1.5v-44c0-0.57647-0.4549-1-1-1h-26c-1 0-1.3759-0.3759-2-1l-3-3c-0.46442-0.46442-1-1-2-1h-27c-0.52342 0-1 0.4716-1 1 0.0044097 9.6802 0.0035924 21.791 0.002195 32.011-9.6046e-4 7.024-0.002195 13.155-0.002195 16.989 0 1 0.23489 2 1.2349 2h61.543z" color="#000000" fill="#f4ae3f"/>
		<path d="m62.778 63.5c-0.58579-0.0011-0.77816-0.9402-0.77816-1.5v-44c0-0.57647-0.4549-1-1-1h-26c-1 0-1.3759-0.3759-2-1l-3-3c-0.46442-0.46442-1-1-2-1h-27c-0.52342 0-1 0.4716-1 1 0.0044097 9.6802 0.0035924 21.791 0.002195 32.011-9.6046e-4 7.024-0.002195 13.155-0.002195 16.989 0 1 0.23489 2 1.2349 2h61.543z" color="#000000" fill="#f4ae3f"/>
		<path d="m62.778 63.5c-0.58579-0.0011-0.77816-0.9402-0.77816-1.5v-44c0-0.57647-0.4549-1-1-1h-26c-1 0-1.3759-0.3759-2-1l-3-3c-0.46442-0.46442-1-1-2-1h-27c-0.52342 0-1 0.4716-1 1 0.0044097 9.6802 0.0035924 21.791 0.002195 32.011-9.6046e-4 7.024-0.002195 13.155-0.002195 16.989 0 1 0.23489 2 1.2349 2h61.543z" color="#000000" fill="url(#b)"/>
		<path d="m62.778 63.5c-0.58579-0.0011-0.77816-0.9402-0.77816-1.5v-44c0-0.57647-0.4549-1-1-1h-26c-1 0-1.3759-0.3759-2-1l-3-3c-0.46442-0.46442-1-1-2-1h-27c-0.52342 0-1 0.4716-1 1 0.0044097 9.6802 0.0035924 21.791 0.002195 32.011-9.6046e-4 7.024-0.002195 13.155-0.002195 16.989 0 1 0.23489 2 1.2349 2h61.543z" color="#000000" fill="url(#h)"/>
		<path d="m62.778 63.5c-0.58579-0.0011-0.77816-0.9402-0.77816-1.5v-44c0-0.57647-0.4549-1-1-1h-26c-1 0-1.3759-0.3759-2-1l-3-3c-0.46442-0.46442-1-1-2-1h-27c-0.52342 0-1 0.4716-1 1 0.0044097 9.6802 0.0035924 21.791 0.002195 32.011-9.6046e-4 7.024-0.002195 13.155-0.002195 16.989 0 1 0.23489 2 1.2349 2h61.543z" color="#000000" fill="url(#e)" opacity=".318"/>
		<path d="m27.5 12c1 0 1.5356 0.53558 2 1l3 3c0.6241 0.6241 1 1 2 1h0.5c-1 0-1.3759-0.3759-2-1l-3-3c-0.46442-0.46442-1-1-2-1zm33 5c0.5451 0 1 0.42353 1 1v44c0 0.90201 0.20957 1.9442 1.2782 2h-8.19e-4v-0.5c-0.58579-0.0011-0.77734-0.9402-0.77734-1.5v-44c0-0.57647-0.4549-1-1-1z" color="#000000" fill="#ff024d" fill-opacity=".23186" style="paint-order:normal"/>
		<path d="m27.75 12c1 0 1.5356 0.53558 2 1l3 3c0.6241 0.6241 1 1 2 1h0.25c-1 0-1.3759-0.3759-2-1l-3-3c-0.46442-0.46442-1-1-2-1zm33 5c0.5451 0 1 0.42353 1 1v44c0 0.5598 0.19155 1.4989 0.77734 1.5v0.45508c0.08 0.01886 0.15756 0.0401 0.25 0.04492v-0.5c-0.58579-0.0011-0.77734-0.9402-0.77734-1.5v-44c0-0.57647-0.4549-1-1-1z" color="#000000" fill="#ff024d" fill-opacity=".19147" style="paint-order:normal"/>
		<path d="m1 12c-0.52342 0-1 0.4716-1 1 6.888e-5 0.15121-6.6347e-5 0.34762 0 0.5 0-0.5284 0.47658-1 1-1h27c1 0 1.5356 0.53558 2 1l3 3c0.6241 0.6241 1 1 2 1h26c0.5451 0 1 0.42353 1 1v-0.5c0-0.57647-0.4549-1-1-1h-26c-1 0-1.3759-0.3759-2-1l-3-3c-0.46442-0.46442-1-1-2-1z" color="#000000" fill="#f8ff34" fill-opacity=".31189"/>
		<path d="m1 12c-0.52342 0-1 0.4716-1 1 3.444e-5 0.0756-3.3805e-5 0.1741 0 0.25 0-0.5284 0.47658-1 1-1h27c1 0 1.5356 0.53558 2 1l3 3c0.6241 0.6241 1 1 2 1h26c0.5451 0 1 0.42353 1 1v-0.25c0-0.57647-0.4549-1-1-1h-26c-1 0-1.3759-0.3759-2-1l-3-3c-0.46442-0.46442-1-1-2-1z" color="#000000" fill="#f8ff34" fill-opacity=".31189"/>
	</g>
	<g>
		<g opacity=".4">
			<g fill="#ff0066" style="">
				<path d="m25 33v30.545h8.1353e-4 17.817l8.9091-8.9091v-9.8785e-4 -21.635h-3.0547e-4 -26.727m2.5455 2.5455h9.8785e-4 21.635v8.7164e-4 19.09h-2.9055e-4 -6.3633v2.9055e-4 6.3633h-6.9731e-4 -15.272m0-25.455m4.4545 2.5455c-1.0576 0-1.9091 0.85146-1.9091 1.9091 0 2.5821e-4 5.08e-8 5.1641e-4 1.522e-7 7.746e-4 4.1561e-4 1.0573 0.85171 1.9083 1.9091 1.9083h9.2732e-4 5.09c2.5821e-4 0 5.1641e-4 -5.08e-8 7.746e-4 -1.522e-7 1.0573-4.1561e-4 1.9083-0.85171 1.9083-1.9091 0-2.5821e-4 -5.08e-8 -5.1641e-4 -1.522e-7 -7.746e-4 -4.1561e-4 -1.0573-0.85171-1.9083-1.9091-1.9083h-5.0909" color="#000000" fill-opacity=".0039216" opacity="1" style="paint-order:normal;text-decoration-line:none;text-indent:0;text-transform:none"/>
				<path d="m24.102 32.102v29.37h6.6741e-4 17.132s1.1153e-4 -1.1153e-4 3.3371e-4 -3.3371e-4l8.5659-8.5659v-8.1043e-4 -20.803h-2.5061e-4 -25.698m2.0883 2.0883m0.35921 0.35921h3.0541 17.75v2.6948 15.661h-0.89826-5.2205v0.89826 5.2205h-2.1558c-0.097125 0-12.529-5.4811e-5 -12.529-1.6401e-4v-3.5919m0.62862-20.524m3.6545 2.0883c-0.86772 0-1.5663 0.69853-1.5663 1.5662-0.1492 2.7049e-4 -0.2693 0.12062-0.2693 0.27004 3.4096e-4 0.86738 0.69874 1.5656 1.5662 1.5656 0 0.14925 0.12041 0.26941 0.27017 0.26941h4.1758c2.1184e-4 0 0.71884-4.16e-8 0.71906-1.249e-7 0.86739-3.4096e-4 1.5656-0.69874 1.5656-1.5662 0.14925-2.1184e-4 0.26941-0.12058 0.26941-0.27004-3.4096e-4 -0.86738-0.69874-1.5656-1.5662-1.5656 0-0.14925-0.12016-0.26941-0.26941-0.26941h-4.1767" color="#000000" fill-opacity=".008725" opacity="1" style="paint-order:normal;text-decoration-line:none;text-indent:0;text-transform:none"/>
				<path d="m23.73 31.73v28.883h6.0689e-4 16.848s1.0141e-4 -1.0141e-4 3.0345e-4 -3.0345e-4c0.051518-0.051518 8.4239-8.4239 8.4239-8.4239v-7.3694e-4 -20.458h-2.2788e-4 -25.272m1.8989 1.8989m0.508 0.508h4.3187 16.14v3.8107 14.241h-1.2702-4.7471v1.2702 4.7471h-3.0485c-0.088317 0-11.393-7.7515e-5 -11.393-2.3194e-4v-5.0798m0.889-18.481m3.3231 1.8989c-0.78905 0-1.4243 0.63519-1.4243 1.4242-0.211 2.7557e-4 -0.38085 0.17036-0.38085 0.38158 3.1004e-4 0.78873 0.63538 1.4236 1.4242 1.4236 0 0.21107 0.17016 0.381 0.38169 0.381h3.7971c1.9263e-4 0 1.0164-3.79e-8 1.0166-1.136e-7 0.78873-3.1004e-4 1.4236-0.63538 1.4236-1.4242 0.21107-1.9263e-4 0.381-0.17031 0.381-0.38158-3.1004e-4 -0.78873-0.63538-1.4236-1.4242-1.4236 0-0.21107-0.16993-0.381-0.381-0.381h-3.798" color="#000000" fill-opacity=".010715" opacity="1" style="paint-order:normal;text-decoration-line:none;text-indent:0;text-transform:none"/>
				<path d="m23.445 31.445v28.509h5.6045e-4 16.63l2.8023e-4 -2.8023e-4c0.047576-0.047576 8.3149-8.3149 8.3149-8.3149v-6.8055e-4 -20.193h-2.1044e-4 -24.945m1.7536 1.7536m0.62217 0.62217h5.2891 14.905v4.6669 13.151h-1.5556-4.3838v1.5556 4.3838h-3.7335c-0.081559 0-10.521-9.4936e-5 -10.521-2.8407e-4v-6.2214m1.0888-16.914m3.0688 1.7536c-0.72868 0-1.3153 0.58658-1.3154 1.3152-0.25842 2.7947e-4 -0.46644 0.20854-0.46644 0.46716 2.8632e-4 0.72837 0.58676 1.3147 1.3152 1.3147 0 0.25851 0.20833 0.46663 0.46727 0.46663h3.5066c1.7789e-4 0 1.2447-3.49e-8 1.2449-1.048e-7 0.72837-2.8632e-4 1.3147-0.58676 1.3147-1.3152 0.25851-1.7789e-4 0.46663-0.20847 0.46663-0.46716-2.8632e-4 -0.72837-0.58676-1.3147-1.3152-1.3147 0-0.25851-0.20812-0.46663-0.46663-0.46663h-3.5074" color="#000000" fill-opacity=".012241" opacity="1" style="paint-order:normal;text-decoration-line:none;text-indent:0;text-transform:none"/>
				<path d="m23.204 31.204v28.194h5.213e-4 16.446l8.2233-8.2233v-6.3301e-4 -19.97h-1.9574e-4 -24.67m1.6311 1.6311m0.71842 0.71842h6.1072 13.864v5.3887 12.233h-1.7962-4.0776v1.7962 4.0776h-4.311c-0.075862 0-9.7862-1.0962e-4 -9.7862-3.2801e-4v-7.1839m1.2572-15.593m2.8544 1.6311c-0.67779 0-1.2235 0.5456-1.2235 1.2233-0.2984 2.8276e-4 -0.5386 0.24072-0.5386 0.53931 2.6632e-4 0.67749 0.54577 1.2228 1.2233 1.2228 0 0.2985 0.24051 0.53882 0.53941 0.53882h3.2616c1.6546e-4 0 1.4372-3.25e-8 1.4373-9.75e-8 0.67749-2.6632e-4 1.2228-0.54577 1.2228-1.2233 0.2985-1.6546e-4 0.53882-0.24064 0.53882-0.53931-2.6632e-4 -0.67749-0.54577-1.2228-1.2233-1.2228 0-0.2985-0.24031-0.53882-0.53882-0.53882h-3.2625" color="#000000" fill-opacity=".013528" opacity="1" style="paint-order:normal;text-decoration-line:none;text-indent:0;text-transform:none"/>
				<path d="m22.992 30.992v27.917h4.8681e-4 16.284s8.1346e-5 -8.1346e-5 2.434e-4 -2.434e-4l8.1421-8.1421v-5.9112e-4 -19.774h-1.8279e-4 -24.427m1.5232 1.5232m0.80322 0.80322h6.828 12.946v6.0247 11.423h-2.0082-3.8078v2.0082 3.8078h-4.8197c-0.070842 0-9.1386-1.2256e-4 -9.1386-3.6673e-4v-8.0318m1.4056-14.429m2.6656 1.5232c-0.63296 0-1.1425 0.5095-1.1426 1.1424-0.33362 2.8566e-4 -0.60217 0.26907-0.60217 0.60288 2.487e-4 0.63266 0.50966 1.1419 1.1424 1.1419 0 0.33374 0.26886 0.60241 0.60297 0.60241h3.0458c1.5451e-4 0 1.6067-3.03e-8 1.6069-9.11e-8 0.63266-2.487e-4 1.1419-0.50966 1.1419-1.1424 0.33374-1.5451e-4 0.60241-0.26899 0.60241-0.60288-2.487e-4 -0.63266-0.50966-1.1419-1.1424-1.1419 0-0.33374-0.26868-0.60241-0.60241-0.60241h-3.0466" color="#000000" fill-opacity=".014662" opacity="1" style="paint-order:normal;text-decoration-line:none;text-indent:0;text-transform:none"/>
				<path d="m22.8 30.8v27.666h4.5562e-4 16.138l8.0692-8.0692v-5.5326e-4 -19.596h-1.7108e-4 -24.207m1.4256 1.4256m0.87988 0.87988h7.4796 12.117v6.5996 10.692h-2.1999-3.5638v2.1999 3.5638h-5.2797c-0.066304 0-8.5532-1.3426e-4 -8.5532-4.0173e-4v-8.7984m1.5398-13.376m2.4948 1.4256c-0.59243 0-1.0694 0.47686-1.0695 1.0692-0.36547 2.8828e-4 -0.65964 0.2947-0.65964 0.66035 2.3277e-4 0.59214 0.47701 1.0688 1.0692 1.0688 0 0.36559 0.29449 0.65991 0.66043 0.65991h2.8507c1.4461e-4 0 1.7601-2.84e-8 1.7602-8.52e-8 0.59214-2.3277e-4 1.0688-0.47701 1.0688-1.0692 0.36559-1.4461e-4 0.65991-0.29461 0.65991-0.66035-2.3277e-4 -0.59214-0.47701-1.0688-1.0692-1.0688 0-0.36559-0.29432-0.65991-0.65991-0.65991h-2.8515" color="#000000" fill-opacity=".015687" opacity="1" style="paint-order:normal;text-decoration-line:none;text-indent:0;text-transform:none"/>
				<path d="m22.624 30.624v27.435h4.2695e-4 16.003s7.1344e-5 -7.1344e-5 2.1347e-4 -2.1347e-4c0.036243-0.036243 8.0017-8.0017 8.0017-8.0017v-5.1844e-4 -19.433h-1.6031e-4 -24.006m1.3359 1.3359m0.95038 0.95038h8.0788 11.354v7.1283 10.019h-2.3761-3.3395v2.3761 3.3395h-5.7027c-0.062131 0-8.0149-1.4502e-4 -8.0149-4.3392e-4v-9.5034m1.6632-12.408m2.3378 1.3359c-0.55515 0-1.0021 0.44685-1.0022 1.0019-0.39475 2.9069e-4 -0.7125 0.31827-0.7125 0.71319 2.1812e-4 0.55487 0.44699 1.0015 1.0019 1.0015 0 0.39488 0.31807 0.71279 0.71327 0.71279h2.6713c1.3551e-4 0 1.901-2.66e-8 1.9012-7.99e-8 0.55487-2.1812e-4 1.0015-0.44699 1.0015-1.0019 0.39488-1.3551e-4 0.71279-0.31817 0.71279-0.71319-2.1812e-4 -0.55487-0.44699-1.0015-1.0019-1.0015 0-0.39488-0.3179-0.71279-0.71279-0.71279h-2.6721" color="#000000" fill-opacity=".01663" opacity="1" style="paint-order:normal;text-decoration-line:none;text-indent:0;text-transform:none"/>
				<path d="m22.46 30.46v27.22h4.0026e-4 15.878s6.6883e-5 -6.6883e-5 2.0013e-4 -2.0013e-4c0.033977-0.033977 7.9391-7.9391 7.9391-7.9391v-4.8602e-4 -19.281h-1.5029e-4 -23.818m1.2524 1.2524m1.016 1.016h8.6365 10.645v7.6204 9.3923h-2.5401-3.1308v2.5401 3.1308h-6.0963c-0.058247 0-7.5138-1.5503e-4 -7.5138-4.6388e-4v-10.16m1.778-11.508m2.1916 1.2524c-0.52046 0-0.93948 0.41892-0.93958 0.93927-0.42201 2.9293e-4 -0.76169 0.34021-0.76169 0.76238 2.0448e-4 0.52018 0.41904 0.93889 0.93927 0.93889 0 0.42215 0.34001 0.762 0.76246 0.762h2.5043c1.2704e-4 0 2.0323-2.5e-8 2.0324-7.49e-8 0.52018-2.0448e-4 0.93889-0.41904 0.93889-0.93927 0.42215-1.2704e-4 0.762-0.34011 0.762-0.76238-2.0448e-4 -0.52018-0.41904-0.93889-0.93927-0.93889 0-0.42215-0.33985-0.762-0.762-0.762h-2.5051" color="#000000" fill-opacity=".017508" opacity="1" style="paint-order:normal;text-decoration-line:none;text-indent:0;text-transform:none"/>
				<path d="m22.306 30.306v27.019h3.7519e-4 15.761s6.2694e-5 -6.2694e-5 1.8759e-4 -1.8759e-4c0.031849-0.031849 7.8803-7.8803 7.8803-7.8803v-4.5558e-4 -19.138h-1.4088e-4 -23.641m1.1739 1.1739m1.0776 1.0776h9.1603 9.9779v8.0826 8.804h-2.6942-2.9347v2.6942 2.9347h-6.4661c-0.054599 0-7.0432-1.6443e-4 -7.0432-4.9202e-4v-10.776m1.8859-10.662m2.0544 1.1739c-0.48787 0-0.88066 0.39268-0.88077 0.88044-0.4476 2.9503e-4 -0.8079 0.36082-0.8079 0.80858 1.9167e-4 0.4876 0.3928 0.88009 0.88044 0.88009 0 0.44776 0.36061 0.80822 0.80865 0.80822h2.3474c1.1908e-4 0 2.1555-2.34e-8 2.1556-7.03e-8 0.4876-1.9167e-4 0.88009-0.3928 0.88009-0.88044 0.44776-1.1908e-4 0.80822-0.36071 0.80822-0.80858-1.9167e-4 -0.4876-0.3928-0.88009-0.88044-0.88009 0-0.44776-0.36047-0.80822-0.80822-0.80822h-2.3482" color="#000000" fill-opacity=".018332" opacity="1" style="paint-order:normal;text-decoration-line:none;text-indent:0;text-transform:none"/>
				<path d="m22.16 30.16v26.828h3.5148e-4 15.649l7.8248-7.8248v-4.2679e-4 -19.003h-1.3198e-4 -23.474m1.0997 1.0997m1.1359 1.1359h9.6558 9.3473v8.5198 8.2476h-2.8399-2.7492v2.8399 2.7492h-6.8158c-0.051148 0-6.5981-1.7333e-4 -6.5981-5.1863e-4v-11.359m1.9879-9.8614m1.9245 1.0997c-0.45705 0-0.82503 0.36786-0.82515 0.8248-0.47182 2.9703e-4 -0.8516 0.3803-0.8516 0.85228 1.7956e-4 0.45678 0.36797 0.82447 0.8248 0.82447 0 0.47198 0.3801 0.85194 0.85234 0.85194h2.1991c1.1156e-4 0 2.2721-2.19e-8 2.2722-6.58e-8 0.45678-1.7956e-4 0.82447-0.36797 0.82447-0.8248 0.47198-1.1156e-4 0.85194-0.38019 0.85194-0.85228-1.7956e-4 -0.45678-0.36797-0.82447-0.8248-0.82447 0-0.47198-0.37997-0.85194-0.85194-0.85194h-2.1999" color="#000000" fill-opacity=".019111" opacity="1" style="paint-order:normal;text-decoration-line:none;text-indent:0;text-transform:none"/>
				<path d="m22.022 30.022v26.646h3.2892e-4 15.543s5.4964e-5 -5.4964e-5 1.6446e-4 -1.6446e-4c0.027922-0.027922 7.7717-7.7717 7.7717-7.7717v-3.9941e-4 -18.874h-1.2351e-4 -23.316m1.0292 1.0292m1.1914 1.1914h10.127 8.7475v8.9356 7.7184h-2.9785-2.5728v2.9785 2.5728h-7.1485c-0.047866 0-6.1747-1.8179e-4 -6.1747-5.4394e-4v-11.913m2.0849-9.1003m1.801 1.0292c-0.42774 0-0.77212 0.34426-0.77224 0.77188-0.49484 2.9892e-4 -0.89316 0.39884-0.89316 0.89384 1.6804e-4 0.42747 0.34436 0.77156 0.77188 0.77156 0 0.49501 0.39864 0.89353 0.8939 0.89353h2.058c1.044e-4 0 2.3829-2.06e-8 2.383-6.16e-8 0.42748-1.6804e-4 0.77156-0.34436 0.77156-0.77188 0.49501-1.044e-4 0.89353-0.39872 0.89353-0.89384-1.6804e-4 -0.42747-0.34436-0.77156-0.77188-0.77156 0-0.49501-0.39851-0.89353-0.89353-0.89353h-2.0588" color="#000000" fill-opacity=".019853" opacity="1" style="paint-order:normal;text-decoration-line:none;text-indent:0;text-transform:none"/>
				<path d="m21.889 29.889v26.473h3.0737e-4 15.442s5.1363e-5 -5.1363e-5 1.5369e-4 -1.5369e-4c0.026093-0.026093 7.7212-7.7212 7.7212-7.7212v-3.7324e-4 -18.751h-1.1542e-4 -23.164m0.96175 0.96175m1.2443 1.2443h10.577 8.1745v9.3329 7.2128h-3.111-2.4043v3.111 2.4043h-7.4663c-0.04473 0-5.7702-1.8987e-4 -5.7702-5.6813e-4v-12.443m2.1776-8.3731m1.6831 0.96175c-0.39973 0-0.72156 0.3217-0.72169 0.72131-0.51685 3.0073e-4 -0.93288 0.41655-0.93288 0.93355 1.5703e-4 0.39947 0.3218 0.72102 0.72131 0.72102 0 0.51702 0.41635 0.93326 0.93361 0.93326h1.9231c9.756e-5 0 2.4889-1.92e-8 2.489-5.75e-8 0.39947-1.5703e-4 0.72102-0.3218 0.72102-0.72131 0.51702-9.756e-5 0.93326-0.41643 0.93326-0.93355-1.5703e-4 -0.39947-0.3218-0.72102-0.72131-0.72102 0-0.51702-0.41623-0.93326-0.93326-0.93326h-1.9239" color="#000000" fill-opacity=".020561" opacity="1" style="paint-order:normal;text-decoration-line:none;text-indent:0;text-transform:none"/>
				<path d="m21.762 29.762v26.307h2.8671e-4 15.345s4.7909e-5 -4.7909e-5 1.4335e-4 -1.4335e-4c0.024338-0.024338 7.6727-7.6727 7.6727-7.6727v-3.4814e-4 -18.634h-1.0766e-4 -23.018m0.89708 0.89708m1.2952 1.2952h11.009 7.6248v9.7139 6.7278h-3.238-2.2426v3.238 2.2426h-7.7712c-0.041723 0-5.3822-1.9762e-4 -5.3822-5.9133e-4v-12.951m2.2665-7.6756m1.5699 0.89708c-0.37287 0-0.67307 0.30007-0.6732 0.67281-0.53795 3.0247e-4 -0.97097 0.43354-0.97097 0.97164 1.4647e-4 0.37261 0.30016 0.67254 0.67281 0.67254 0 0.53814 0.43334 0.97136 0.97169 0.97136h1.7938c9.1e-5 0 2.5905-1.79e-8 2.5906-5.37e-8 0.37261-1.4647e-4 0.67254-0.30016 0.67254-0.67281 0.53814-9.1e-5 0.97136-0.43341 0.97136-0.97164-1.4647e-4 -0.37261-0.30016-0.67254-0.67281-0.67254 0-0.53814-0.43323-0.97136-0.97136-0.97136h-1.7946" color="#000000" fill-opacity=".02124" opacity="1" style="paint-order:normal;text-decoration-line:none;text-indent:0;text-transform:none"/>
				<path d="m21.64 29.64v26.147h2.6682e-4 15.252s4.4586e-5 -4.4586e-5 1.3341e-4 -1.3341e-4c0.02265-0.02265 7.626-7.626 7.626-7.626v-3.24e-4 -18.52h-1.0019e-4 -22.878m0.83485 0.83485m1.344 1.344h11.425 7.0959v10.081 6.2611h-3.3602-2.087v3.3602 2.087h-8.0645c-0.038829 0-5.0089-2.0508e-4 -5.0089-6.1365e-4v-13.44m2.3521-7.0045m1.461 0.83485c-0.34702 0-0.62641 0.27926-0.62655 0.62614-0.55826 3.0414e-4 -1.0076 0.44989-1.0076 1.0083 1.3631e-4 0.34676 0.27934 0.62589 0.62614 0.62589 0 0.55845 0.44968 1.008 1.0083 1.008h1.6694c8.4688e-5 0 2.6883-1.66e-8 2.6883-4.99e-8 0.34676-1.3631e-4 0.62589-0.27934 0.62589-0.62614 0.55845-8.4688e-5 1.008-0.44975 1.008-1.0083-1.3631e-4 -0.34676-0.27934-0.62589-0.62614-0.62589 0-0.55845-0.44958-1.008-1.008-1.008h-1.6702" color="#000000" fill-opacity=".021894" opacity="1" style="paint-order:normal;text-decoration-line:none;text-indent:0;text-transform:none"/>
				<path d="m21.522 29.522v25.992h2.4763e-4 15.162l7.5811-7.5811v-3.0069e-4 -18.411h-9.2983e-5 -22.743m0.77481 0.77481m1.3912 1.3912h11.826 6.5856v10.434 5.8108h-3.4781-1.9369v3.4781 1.9369h-8.3475c-0.036036 0-4.6487-2.1228e-4 -4.6487-6.3519e-4v-13.912m2.4346-6.3569m1.3559 0.77482c-0.32208 0-0.58139 0.25918-0.58153 0.58111-0.57785 3.0575e-4 -1.043 0.46566-1.043 1.0436 1.2651e-4 0.32183 0.25925 0.58088 0.58111 0.58088 0 0.57805 0.46546 1.0434 1.0437 1.0434h1.5493c7.8598e-5 0 2.7826-1.54e-8 2.7827-4.63e-8 0.32183-1.2651e-4 0.58088-0.25925 0.58088-0.58111 0.57805-7.8598e-5 1.0434-0.46552 1.0434-1.0436-1.2651e-4 -0.32183-0.25925-0.58088-0.58111-0.58088 0-0.57805-0.46536-1.0434-1.0434-1.0434h-1.5501" color="#000000" fill-opacity=".022525" opacity="1" style="paint-order:normal;text-decoration-line:none;text-indent:0;text-transform:none"/>
				<path d="m21.408 29.408v25.843h2.2907e-4 15.075s3.8278e-5 -3.8278e-5 1.1454e-4 -1.1454e-4c0.019446-0.019446 7.5374-7.5374 7.5374-7.5374v-2.7816e-4 -18.305h-8.6014e-5 -22.613m0.71675 0.71675m1.4368 1.4368h12.213 6.0921v10.777 5.3753h-3.5922-1.7918v3.5922 1.7918h-8.6213c-0.033336 0-4.3003-2.1924e-4 -4.3003-6.5602e-4v-14.368m2.5145-5.7306m1.2543 0.71675c-0.29795 0-0.53785 0.23975-0.538 0.53756-0.59681 3.0731e-4 -1.0772 0.48091-1.0772 1.0778 1.1703e-4 0.29771 0.23982 0.53734 0.53756 0.53734 0 0.59701 0.48071 1.0776 1.0779 1.0776h1.4332c7.2707e-5 0 2.8738-1.43e-8 2.8739-4.29e-8 0.29771-1.1703e-4 0.53734-0.23982 0.53734-0.53756 0.59701-7.2707e-5 1.0776-0.48077 1.0776-1.0778-1.1703e-4 -0.29771-0.23982-0.53734-0.53756-0.53734 0-0.59701-0.48062-1.0776-1.0776-1.0776h-1.434" color="#000000" fill-opacity=".023135" opacity="1" style="paint-order:normal;text-decoration-line:none;text-indent:0;text-transform:none"/>
				<path d="m21.297 29.297v25.698h2.1108e-4 14.99s3.5273e-5 -3.5273e-5 1.0554e-4 -1.0554e-4c0.017919-0.017919 7.4952-7.4952 7.4952-7.4952v-2.5632e-4 -18.203h-7.926e-5 -22.486m0.66046 0.66046m1.4811 1.4811h12.589 5.6137v11.108 4.9533h-3.7027-1.6511v3.7027 1.6511h-8.8866c-0.030718 0-3.9626-2.2599e-4 -3.9626-6.7621e-4v-14.81m2.5919-5.1236m1.1558 0.66047c-0.27457 0-0.49565 0.22093-0.4958 0.49535-0.61517 3.0882e-4 -1.1103 0.4957-1.1103 1.111 1.0784e-4 0.27433 0.22099 0.49515 0.49535 0.49515 0 0.61538 0.4955 1.1108 1.111 1.1108h1.3207c6.6998e-5 0 2.9623-1.31e-8 2.9623-3.95e-8 0.27433-1.0784e-4 0.49515-0.22099 0.49515-0.49535 0.61538-6.6998e-5 1.1108-0.49555 1.1108-1.111-1.0784e-4 -0.27433-0.22099-0.49515-0.49535-0.49515 0-0.61538-0.49542-1.1108-1.1108-1.1108h-1.3215" color="#000000" fill-opacity=".023726" opacity="1" style="paint-order:normal;text-decoration-line:none;text-indent:0;text-transform:none"/>
				<path d="m21.19 29.19v25.558h1.9362e-4 14.909l7.4544-7.4544v-2.3511e-4 -18.103h-7.2702e-5 -22.363m0.60582 0.60582m1.524 1.524h12.954 5.1492v11.43 4.5434h-3.8101-1.5145v3.8101 1.5145h-9.1442c-0.028176 0-3.6347-2.3254e-4 -3.6347-6.9582e-4v-15.239m2.667-4.5342m1.0602 0.60582c-0.25187 0-0.45467 0.20265-0.45483 0.45436-0.63301 3.1029e-4 -1.1425 0.51006-1.1425 1.1432 9.8915e-5 0.25163 0.20271 0.45418 0.45436 0.45418 0 0.63322 0.50985 1.143 1.1432 1.143h1.2114c6.1454e-5 0 3.0481-1.21e-8 3.0482-3.63e-8 0.25163-9.8915e-5 0.45418-0.20271 0.45418-0.45436 0.63322-6.1454e-5 1.143-0.5099 1.143-1.1432-9.8915e-5 -0.25163-0.20271-0.45418-0.45436-0.45418 0-0.63322-0.50978-1.143-1.143-1.143h-1.2122" color="#000000" fill-opacity=".024301" opacity="1" style="paint-order:normal;text-decoration-line:none;text-indent:0;text-transform:none"/>
				<path d="m21.086 29.086v25.421h1.7663e-4 14.829l8.8316e-5 -8.8316e-5c0.014994-0.014994 7.4144-7.4144 7.4144-7.4144v-2.1448e-4 -18.006h-6.6324e-5 -22.243m0.55267 0.55267m1.5658 1.5658h13.309 4.6974v11.743 4.1448h-3.9145-1.3816v3.9145 1.3816h-9.3947c-0.025704 0-3.3158-2.3892e-4 -3.3158-7.1488e-4v-15.657m2.7401-3.9609m0.96716 0.55267c-0.22979 0-0.41482 0.18487-0.41498 0.4145-0.65035 3.1171e-4 -1.1738 0.52402-1.1738 1.1745 9.0236e-5 0.22955 0.18492 0.41433 0.4145 0.41433 0 0.65057 0.52382 1.1743 1.1745 1.1743h1.1051c5.6063e-5 0 3.1316-1.1e-8 3.1317-3.3e-8 0.22955-9.0237e-5 0.41433-0.18492 0.41433-0.4145 0.65057-5.6063e-5 1.1743-0.52386 1.1743-1.1745-9.0237e-5 -0.22955-0.18492-0.41433-0.4145-0.41433 0-0.65057-0.52375-1.1743-1.1743-1.1743h-1.1059" color="#000000" fill-opacity=".024859" opacity="1" style="paint-order:normal;text-decoration-line:none;text-indent:0;text-transform:none"/>
				<path d="m20.984 28.984v25.288h1.6009e-4 14.751s2.6751e-5 -2.6751e-5 8.0043e-5 -8.0043e-5l7.3756-7.3756v-1.9439e-4 -17.912h-6.0111e-5 -22.127m0.5009 0.5009m1.6064 1.6064h13.655 4.2574v12.048 3.7566h-4.0162-1.2522v4.0162 1.2522h-9.6388c-0.023296 0-3.0052-2.4512e-4 -3.0052-7.3345e-4v-16.064m2.8113-3.4025m0.87657 0.5009c-0.20829 0-0.376 0.16755-0.37616 0.37567-0.66725 3.131e-4 -1.2043 0.53762-1.2043 1.205 8.1784e-5 0.20805 0.1676 0.37552 0.37567 0.37552 0 0.66748 0.53741 1.2048 1.205 1.2048h1.0016c5.0811e-5 0 3.213-1e-8 3.213-3e-8 0.20805-8.1784e-5 0.37552-0.1676 0.37552-0.37567 0.66748-5.0811e-5 1.2048-0.53746 1.2048-1.205-8.1784e-5 -0.20805-0.1676-0.37552-0.37567-0.37552 0-0.66748-0.53735-1.2048-1.2048-1.2048h-1.0024" color="#000000" fill-opacity=".025403" opacity="1" style="paint-order:normal;text-decoration-line:none;text-indent:0;text-transform:none"/>
				<path d="m20.885 28.885v25.158h1.4395e-4 14.675l7.3378-7.3378v-1.748e-4 -17.82h-5.4052e-5 -22.013m0.45041 0.45041m1.6461 1.6461h13.992 3.8283v12.346 3.3779h-4.1153-1.126v4.1153 1.126h-9.8768c-0.020948 0-2.7023-2.5118e-4 -2.7023-7.5157e-4v-16.46m2.8807-2.8579m0.78821 0.45041c-0.18731 0-0.33814 0.15066-0.33831 0.3378-0.68373 3.1446e-4 -1.2341 0.55088-1.2341 1.2347 7.354e-5 0.18708 0.15071 0.33767 0.3378 0.33767 0 0.68396 0.55068 1.2346 1.2347 1.2346h0.90065c4.5689e-5 0 3.2923-8.9e-9 3.2924-2.69e-8 0.18708-7.354e-5 0.33767-0.15071 0.33767-0.3378 0.68396-4.5689e-5 1.2346-0.55072 1.2346-1.2347-7.354e-5 -0.18708-0.15071-0.33767-0.3378-0.33767 0-0.68396-0.55062-1.2346-1.2346-1.2346h-0.90141" color="#000000" fill-opacity=".025933" opacity="1" style="paint-order:normal;text-decoration-line:none;text-indent:0;text-transform:none"/>
				<path d="m20.788 28.788v25.031h1.2819e-4 14.602s2.1421e-5 -2.1421e-5 6.4096e-5 -6.4096e-5c0.010882-0.010882 7.3008-7.3008 7.3008-7.3008v-1.5566e-4 -17.73h-4.8135e-5 -21.902m0.4011 0.4011m1.6848 1.6848h14.321 3.4092v12.636 3.0081h-4.2122-1.0027v4.2122 1.0027h-10.109c-0.018655 0-2.4065-2.5709e-4 -2.4065-7.6925e-4v-16.848m2.9485-2.3262m0.70193 0.4011c-0.16683 0-0.30117 0.13417-0.30134 0.30083-0.69982 3.1578e-4 -1.2631 0.56383-1.2631 1.2638 6.549e-5 0.1666 0.13421 0.30071 0.30083 0.30071 0 0.70005 0.56363 1.2636 1.2638 1.2636h0.80206c4.0688e-5 0 3.3698-8e-9 3.3698-2.4e-8 0.1666-6.549e-5 0.30071-0.13421 0.30071-0.30083 0.70005-4.0688e-5 1.2636-0.56366 1.2636-1.2638-6.549e-5 -0.1666-0.13421-0.30071-0.30083-0.30071 0-0.70005-0.56358-1.2636-1.2636-1.2636h-0.80282" color="#000000" fill-opacity=".026451" opacity="1" style="paint-order:normal;text-decoration-line:none;text-indent:0;text-transform:none"/>
				<path d="m20.693 28.693v24.907h1.1279e-4 14.529s1.8848e-5 -1.8847e-5 5.6395e-5 -5.6395e-5c0.0095746-0.0095746 7.2646-7.2646 7.2646-7.2646v-1.3696e-4 -17.643h-4.2352e-5 -21.794m0.35291 0.35291m1.7227 1.7227h14.643 2.9996v12.92 2.6467h-4.3068-0.88223v4.3068 0.88223h-10.336c-0.016414 0-2.1174-2.6287e-4 -2.1174-7.8654e-4v-17.226m3.0147-1.8064m0.61759 0.35291c-0.14681 0-0.26503 0.11805-0.26521 0.26468-0.71554 3.1708e-4 -1.2915 0.57649-1.2915 1.2921 5.7621e-5 0.14658 0.11808 0.26458 0.26468 0.26458 0 0.71579 0.57629 1.292 1.2922 1.292h0.70569c3.5799e-5 0 3.4455-7e-9 3.4455-2.11e-8 0.14658-5.7622e-5 0.26458-0.11808 0.26458-0.26468 0.71579-3.5799e-5 1.292-0.57632 1.292-1.2921-5.7622e-5 -0.14658-0.11808-0.26458-0.26468-0.26458 0-0.71579-0.57625-1.292-1.292-1.292h-0.70645" color="#000000" fill-opacity=".026958" opacity="1" style="paint-order:normal;text-decoration-line:none;text-indent:0;text-transform:none"/>
				<path d="m20.601 28.601v24.786h9.7719e-5 14.459s1.6329e-5 -1.6329e-5 4.8859e-5 -4.8859e-5c0.0082952-0.0082952 7.2293-7.2293 7.2293-7.2293v-1.1866e-4 -17.557h-3.6692e-5 -21.688m0.30575 0.30575m1.7598 1.7598h14.958 2.5988v13.198 2.293h-4.3994-0.76435v4.3994 0.76435h-10.559c-0.01422 0-1.8344-2.6852e-4 -1.8344-8.0346e-4v-17.597m3.0796-1.2978m0.53507 0.30575c-0.12722 0-0.22967 0.10227-0.22985 0.22931-0.73093 3.1834e-4 -1.3193 0.58888-1.3193 1.3199 4.9922e-5 0.127 0.10231 0.22922 0.22931 0.22922 0 0.73118 0.58868 1.3198 1.3199 1.3198h0.61139c3.1016e-5 0 3.5196-6.1e-9 3.5196-1.83e-8 0.127-4.9922e-5 0.22922-0.10231 0.22922-0.22931 0.73118-3.1016e-5 1.3198-0.5887 1.3198-1.3199-4.9922e-5 -0.127-0.10231-0.22922-0.22931-0.22922 0-0.73118-0.58864-1.3198-1.3198-1.3198h-0.61215" color="#000000" fill-opacity=".027453" opacity="1" style="paint-order:normal;text-decoration-line:none;text-indent:0;text-transform:none"/>
				<path d="m20.51 28.51v24.667h8.2958e-5 14.389s1.3862e-5 -1.3862e-5 4.1479e-5 -4.1479e-5c0.0070422-0.0070422 7.1946-7.1946 7.1946-7.1946v-1.0074e-4 -17.473h-3.115e-5 -21.584m0.25957 0.25957m1.7961 1.7961h15.267 2.2062v13.47 1.9467h-4.4902-0.64889v4.4902 0.64889h-10.776c-0.012072 0-1.5573-2.7406e-4 -1.5573-8.2003e-4v-17.96m3.1431-0.79964m0.45425 0.25957c-0.10803 0-0.19504 0.086826-0.19522 0.19468-0.74601 3.1958e-4 -1.3465 0.60101-1.3465 1.3471 4.2381e-5 0.10781 0.086852 0.1946 0.19468 0.1946 0 0.74626 0.60081 1.347 1.3471 1.347h0.51904c2.6331e-5 0 3.5922-5.2e-9 3.5922-1.55e-8 0.10781-4.2381e-5 0.1946-0.086852 0.1946-0.19468 0.74626-2.6331e-5 1.347-0.60083 1.347-1.3471-4.2381e-5 -0.10781-0.086852-0.1946-0.19468-0.1946 0-0.74626-0.60078-1.347-1.347-1.347h-0.51979" color="#000000" fill-opacity=".027938" opacity="1" style="paint-order:normal;text-decoration-line:none;text-indent:0;text-transform:none"/>
				<path d="m20.421 28.421v24.551h6.849e-5 14.321s1.1445e-5 -1.1445e-5 3.4245e-5 -3.4245e-5l7.1607-7.1607v-8.3167e-5 -17.39h-2.5717e-5 -21.482m0.2143 0.2143m1.8316 1.8316h15.569 1.8215v13.737 1.6072h-4.5791-0.53572v4.5791 0.53572h-10.99c-0.009967 0-1.2857-2.7948e-4 -1.2857-8.3627e-4v-18.315m3.2053-0.31137m0.37502 0.2143c-0.089227 0-0.1611 0.071683-0.16128 0.16072-0.76078 3.208e-4 -1.3732 0.61291-1.3732 1.3738 3.499e-5 0.089011 0.071705 0.16066 0.16072 0.16066 0 0.76104 0.6127 1.3737 1.3738 1.3737h0.42852c2.1739e-5 0 3.6633-4.3e-9 3.6633-1.28e-8 0.089011-3.499e-5 0.16066-0.071705 0.16066-0.16072 0.76104-2.1739e-5 1.3737-0.61272 1.3737-1.3738-3.499e-5 -0.089011-0.071705-0.16066-0.16072-0.16066 0-0.76104-0.61268-1.3737-1.3737-1.3737h-0.42927" color="#000000" fill-opacity=".028414" opacity="1" style="paint-order:normal;text-decoration-line:none;text-indent:0;text-transform:none"/>
				<path d="m20.334 28.334v24.437h5.4298e-5 14.255l7.1274-7.1274v-6.5933e-5 -17.309h-2.0388e-5 -21.382m0.16989 0.16989m1.8665 1.8665h15.865 1.444v13.999 1.2741h-4.6663-0.42471v4.6663 0.42471h-11.199c-0.0079016 0-1.0193-2.8481e-4 -1.0193-8.522e-4v-18.664m3.2664 0.16759m0.29731 0.16989c-0.07078 0-0.1278 0.056829-0.12799 0.12742-0.77527 3.2199e-4 -1.3993 0.62457-1.3993 1.3999 2.7739e-5 0.070566 0.056846 0.12737 0.12742 0.12737 0 0.77554 0.62437 1.3999 1.3999 1.3999h0.33972c1.7234e-5 0 3.7331-3.4e-9 3.7331-1.02e-8 0.070566-2.7739e-5 0.12737-0.056846 0.12737-0.12742 0.77554-1.7234e-5 1.3999-0.62438 1.3999-1.3999-2.7739e-5 -0.070566-0.056846-0.12737-0.12742-0.12737 0-0.77554-0.62435-1.3999-1.3999-1.3999h-0.34046" color="#000000" fill-opacity=".028881" opacity="1" style="paint-order:normal;text-decoration-line:none;text-indent:0;text-transform:none"/>
				<path d="m20.248 28.248v24.325h4.0366e-5 14.189s6.7452e-6 -6.7451e-6 2.0183e-5 -2.0183e-5c0.0034266-0.0034266 7.0947-7.0947 7.0947-7.0947v-4.9015e-5 -17.23h-1.5157e-5 -21.284m0.1263 0.1263m1.9008 1.9008h16.157 1.0735v14.256 0.94721h-4.7519-0.31574v4.7519 0.31574h-11.405c-0.0058742 0-0.75777-2.9003e-4 -0.75777-8.6783e-4v-19.007m3.3263 0.63776m0.22103 0.1263c-0.052671 0-0.095111 0.042248-0.095304 0.094726-0.7895 3.2316e-4 -1.425 0.63602-1.425 1.4256 2.0622e-5 0.05246 0.04226 0.094687 0.094725 0.094687 0 0.78977 0.63582 1.4256 1.4256 1.4256h0.25256c1.2812e-5 0 3.8016-2.5e-9 3.8016-7.6e-9 0.05246-2.0622e-5 0.094687-0.04226 0.094687-0.094725 0.78977-1.2812e-5 1.4256-0.63583 1.4256-1.4256-2.0622e-5 -0.05246-0.04226-0.094687-0.094725-0.094687 0-0.78977-0.63581-1.4256-1.4256-1.4256h-0.25329" color="#000000" fill-opacity=".029339" opacity="1" style="paint-order:normal;text-decoration-line:none;text-indent:0;text-transform:none"/>
				<path d="m20.164 28.164v24.215h2.668e-5 14.125s4.4583e-6 -4.4583e-6 1.334e-5 -1.334e-5c0.0022649-0.0022649 7.0626-7.0626 7.0626-7.0626v-3.2398e-5 -17.152h-1.0018e-5 -21.188m0.08348 0.08348m1.9344 1.9344h16.443 0.70955v14.508 0.62607h-4.836-0.20869v4.836 0.20869h-11.606c-0.0038826 0-0.50086-2.9517e-4 -0.50086-8.832e-4v-19.343m3.3852 1.0996m0.14609 0.08348c-0.034882 0-0.063003 0.027924-0.063199 0.06261-0.80347 3.2431e-4 -1.4502 0.64727-1.4502 1.4508 1.363e-5 0.034674 0.027933 0.062585 0.06261 0.062585 0 0.80375 0.64707 1.4508 1.4508 1.4508h0.16693c8.4683e-6 0 3.8688-1.7e-9 3.8688-5e-9 0.034674-1.363e-5 0.062585-0.027933 0.062585-0.06261 0.80375-8.4683e-6 1.4508-0.64708 1.4508-1.4508-1.363e-5 -0.034674-0.027933-0.062585-0.06261-0.062585 0-0.80375-0.64706-1.4508-1.4508-1.4508h-0.16767" color="#000000" fill-opacity=".029789" opacity="1" style="paint-order:normal;text-decoration-line:none;text-indent:0;text-transform:none"/>
				<path d="m20.081 28.081v24.106h1.3229e-5 14.062l6.6145e-6 -6.6145e-6c0.001123-0.001123 7.031-7.031 7.031-7.031v-1.6064e-5 -17.075h-4.9673e-6 -21.093m0.041392 0.041392m1.9675 1.9675h16.724 0.35182v14.756 0.31043h-4.9187-0.10348v4.9187 0.10348h-11.805c-0.0019251 0-0.24834-3.0021e-4 -0.24834-8.9829e-4v-19.674m3.4431 1.5536m0.072436 0.041392c-0.017398 0-0.031443 0.013846-0.031643 0.031044-0.81721 3.2544e-4 -1.475 0.65833-1.475 1.4756 6.7583e-6 0.017193 0.01385 0.031032 0.031044 0.031032 0 0.81749 0.65813 1.4756 1.4756 1.4756h0.082769c4.1989e-6 0 3.935-9e-10 3.935-2.5e-9 0.017193-6.7583e-6 0.031032-0.01385 0.031032-0.031044 0.81749-4.1989e-6 1.4756-0.65813 1.4756-1.4756-6.7583e-6 -0.017193-0.01385-0.031032-0.031044-0.031032 0-0.81749-0.65812-1.4756-1.4756-1.4756h-0.083501" color="#000000" fill-opacity=".030231" opacity="1" style="paint-order:normal;text-decoration-line:none;text-indent:0;text-transform:none"/>
				<path d="m20 28v24h14l7-7v-17h-21m2 2h17v15h-5v5h-12v-9.1314e-4 -19.999m3.5 2c-2.0288e-4 0-4.0575e-4 3.99e-8 -6.0861e-4 1.196e-7 -0.83072 3.2655e-4 -1.4994 0.6692-1.4994 1.5 0 0.831 0.669 1.5 1.5 1.5h4c0.831 0 1.5-0.669 1.5-1.5s-0.669-1.5-1.5-1.5h-7.2861e-4" color="#000000" fill-opacity=".030666" opacity="1" style="paint-order:normal;text-decoration-line:none;text-indent:0;text-transform:none"/>
			</g>
		</g>
		<path d="m20 28v24h14v-2h-12v-20h17v15h2v-17z" color="#000000" fill="#d5ffff" style="paint-order:normal;text-decoration-line:none;text-indent:0;text-transform:none"/>
		<path d="m34 45v7l7-7z" color="#000000" fill="#4b617d" style="paint-order:normal;text-decoration-line:none;text-indent:0;text-transform:none"/>
		<rect x="24" y="32" width="7" height="3" rx="1.5" ry="1.5" fill="#4b617d" style="paint-order:normal"/>
	</g>
</svg>
