<?xml version="1.0" encoding="UTF-8"?>
<!-- Created with Inkscape (http://www.inkscape.org/) -->
<svg width="64" height="64" version="1.1" xmlns="http://www.w3.org/2000/svg" xmlns:cc="http://creativecommons.org/ns#" xmlns:dc="http://purl.org/dc/elements/1.1/" xmlns:rdf="http://www.w3.org/1999/02/22-rdf-syntax-ns#">
	<defs>
		<radialGradient id="e" cx="33.466" cy="2.1992" r="30.5" gradientTransform="matrix(-1.0283 0 0 -.55738 67.779 1.2258)" gradientUnits="userSpaceOnUse">
			<stop stop-color="#668cbb" offset="0"/>
			<stop stop-color="#668cbb" offset="1"/>
		</radialGradient>
		<linearGradient id="g" x1="61" x2="60" y1="17" gradientTransform="translate(-.88255)" gradientUnits="userSpaceOnUse">
			<stop stop-color="#3e4d60" stop-opacity=".72157" offset="0"/>
			<stop stop-color="#393b49" stop-opacity=".2656" offset="1"/>
		</linearGradient>
		<linearGradient id="b" x1="62.381" x2="62.381" y1="63.314" y2="23.077" gradientUnits="userSpaceOnUse">
			<stop stop-color="#000828" stop-opacity=".35976" offset="0"/>
			<stop stop-color="#000828" stop-opacity=".12715" offset="1"/>
		</linearGradient>
		<linearGradient id="d" x1="53" x2="53" y1="17" y2="15" gradientUnits="userSpaceOnUse">
			<stop stop-color="#dad8ce" offset="0"/>
			<stop stop-color="#ebebeb" offset="1"/>
		</linearGradient>
		<linearGradient id="f" x1="32.559" x2="33.542" y1="15.559" y2="14.542" gradientUnits="userSpaceOnUse">
			<stop stop-color="#37321c" stop-opacity=".15675" offset="0"/>
			<stop stop-color="#6d5524" stop-opacity="0" offset="1"/>
		</linearGradient>
		<radialGradient id="c" cx="30.107" cy="50.318" r="30.5" gradientTransform="matrix(2.7541,-1.4218e-7,8.3652e-8,2.7869,-52.917,-93.23)" gradientUnits="userSpaceOnUse">
			<stop stop-color="#9e1423" stop-opacity=".12917" offset="0"/>
			<stop stop-color="#f4405b" stop-opacity=".023222" offset=".54"/>
			<stop stop-color="#f43f6d" stop-opacity=".169" offset="1"/>
		</radialGradient>
		<linearGradient id="h" x1="-5" x2="-5" y1="64" y2="14" gradientTransform="translate(.88908)" gradientUnits="userSpaceOnUse">
			<stop stop-color="#f43f66" stop-opacity=".018868" offset="0"/>
			<stop stop-color="#f4ae3f" stop-opacity=".47025" offset="1"/>
		</linearGradient>
		<linearGradient id="a" x1="4.5255" x2="4.5255" y1="64" y2="61.09" gradientUnits="userSpaceOnUse">
			<stop stop-color="#e50d4c" stop-opacity=".47868" offset="0"/>
			<stop stop-color="#e50d4c" stop-opacity="0" offset="1"/>
		</linearGradient>
	</defs>
	<metadata>
		<rdf:RDF>
			<cc:Work rdf:about="">
				<dc:format>image/svg+xml</dc:format>
				<dc:type rdf:resource="http://purl.org/dc/dcmitype/StillImage"/>
			</cc:Work>
		</rdf:RDF>
	</metadata>
	<g>
		<g>
			<path d="m38 0c-1 0-1.5103 0.51027-2 1l-3 3c-0.53814 0.53814-1 1-2 1h-28c-0.52243 0-1 0.43922-1 1l-0.76511 58h61.543c1 0 1.2218-1 1.2218-2v-61c0-0.51973-0.5-1-1-1z" color="#000000" fill="url(#e)"/>
			<path d="m38 0c-1 0-1.5103 0.51027-2 1l-3 3c-0.53814 0.53814-1 1-2 1h-28c-0.52243 0-1 0.43922-1 1l-0.76511 58h61.543c1 0 1.2218-1 1.2218-2v-61c0-0.51973-0.5-1-1-1z" color="#000000" fill="url(#g)"/>
			<path d="m38 0c-1 0-1.5103 0.51027-2 1l-3 3c-0.53814 0.53814-1 1-2 1h-28c-0.52243 0-1 0.43922-1 1l-0.76562 58h0.00586l0.75976-57.5c0-0.56078 0.47757-1 1-1h28c1 0 1.4619-0.46186 2-1l3-3c0.48973-0.48973 1-1 2-1h25c0.5 0 1 0.48027 1 1v-0.5c0-0.51973-0.5-1-1-1z" color="#000000" fill="#b3ffff" fill-opacity=".19073"/>
			<path d="m61 13v51h1.7773c0.09408 0 0.17509-0.01633 0.25586-0.0332l0.8125-0.8125c0.11225-0.34056 0.1543-0.74535 0.1543-1.1543v-46l-3-3z" fill="url(#b)"/>
			<path d="m63.5 0.15532v61.845c0 0.52439-0.13604 1.5011-0.72184 1.5v0.5c1 0 1.2218-1 1.2218-2v-61c0-0.39808-0.24002-0.69459-0.5-0.84468z" fill="#0f1f33" fill-opacity=".14136" style="paint-order:normal"/>
		</g>
		<g>
			<path d="m7 13h54v31h-54z" fill="url(#d)"/>
			<path d="m30 13 4 4h2l-4-4z" color="#000000" fill="url(#f)"/>
		</g>
		<path d="m62.778 63.5c-0.58579-0.0011-0.77816-0.9402-0.77816-1.5v-44c0-0.57647-0.4549-1-1-1h-26c-1 0-1.3759-0.3759-2-1l-3-3c-0.46442-0.46442-1-1-2-1h-27c-0.52342 0-1 0.4716-1 1 0.0044097 9.6802 0.0035924 21.791 0.002195 32.011-9.6046e-4 7.024-0.002195 13.155-0.002195 16.989 0 1 0.23489 2 1.2349 2h61.543z" color="#000000" fill="#f4ae3f"/>
		<path d="m62.778 63.5c-0.58579-0.0011-0.77816-0.9402-0.77816-1.5v-44c0-0.57647-0.4549-1-1-1h-26c-1 0-1.3759-0.3759-2-1l-3-3c-0.46442-0.46442-1-1-2-1h-27c-0.52342 0-1 0.4716-1 1 0.0044097 9.6802 0.0035924 21.791 0.002195 32.011-9.6046e-4 7.024-0.002195 13.155-0.002195 16.989 0 1 0.23489 2 1.2349 2h61.543z" color="#000000" fill="#f4ae3f"/>
		<path d="m62.778 63.5c-0.58579-0.0011-0.77816-0.9402-0.77816-1.5v-44c0-0.57647-0.4549-1-1-1h-26c-1 0-1.3759-0.3759-2-1l-3-3c-0.46442-0.46442-1-1-2-1h-27c-0.52342 0-1 0.4716-1 1 0.0044097 9.6802 0.0035924 21.791 0.002195 32.011-9.6046e-4 7.024-0.002195 13.155-0.002195 16.989 0 1 0.23489 2 1.2349 2h61.543z" color="#000000" fill="url(#c)"/>
		<path d="m62.778 63.5c-0.58579-0.0011-0.77816-0.9402-0.77816-1.5v-44c0-0.57647-0.4549-1-1-1h-26c-1 0-1.3759-0.3759-2-1l-3-3c-0.46442-0.46442-1-1-2-1h-27c-0.52342 0-1 0.4716-1 1 0.0044097 9.6802 0.0035924 21.791 0.002195 32.011-9.6046e-4 7.024-0.002195 13.155-0.002195 16.989 0 1 0.23489 2 1.2349 2h61.543z" color="#000000" fill="url(#h)"/>
		<path d="m62.778 63.5c-0.58579-0.0011-0.77816-0.9402-0.77816-1.5v-44c0-0.57647-0.4549-1-1-1h-26c-1 0-1.3759-0.3759-2-1l-3-3c-0.46442-0.46442-1-1-2-1h-27c-0.52342 0-1 0.4716-1 1 0.0044097 9.6802 0.0035924 21.791 0.002195 32.011-9.6046e-4 7.024-0.002195 13.155-0.002195 16.989 0 1 0.23489 2 1.2349 2h61.543z" color="#000000" fill="url(#a)" opacity=".318"/>
		<path d="m27.5 12c1 0 1.5356 0.53558 2 1l3 3c0.6241 0.6241 1 1 2 1h0.5c-1 0-1.3759-0.3759-2-1l-3-3c-0.46442-0.46442-1-1-2-1zm33 5c0.5451 0 1 0.42353 1 1v44c0 0.90201 0.20957 1.9442 1.2782 2h-8.19e-4v-0.5c-0.58579-0.0011-0.77734-0.9402-0.77734-1.5v-44c0-0.57647-0.4549-1-1-1z" color="#000000" fill="#ff024d" fill-opacity=".23186" style="paint-order:normal"/>
		<path d="m27.75 12c1 0 1.5356 0.53558 2 1l3 3c0.6241 0.6241 1 1 2 1h0.25c-1 0-1.3759-0.3759-2-1l-3-3c-0.46442-0.46442-1-1-2-1zm33 5c0.5451 0 1 0.42353 1 1v44c0 0.5598 0.19155 1.4989 0.77734 1.5v0.45508c0.08 0.01886 0.15756 0.0401 0.25 0.04492v-0.5c-0.58579-0.0011-0.77734-0.9402-0.77734-1.5v-44c0-0.57647-0.4549-1-1-1z" color="#000000" fill="#ff024d" fill-opacity=".19147" style="paint-order:normal"/>
		<path d="m1 12c-0.52342 0-1 0.4716-1 1 6.888e-5 0.15121-6.6347e-5 0.34762 0 0.5 0-0.5284 0.47658-1 1-1h27c1 0 1.5356 0.53558 2 1l3 3c0.6241 0.6241 1 1 2 1h26c0.5451 0 1 0.42353 1 1v-0.5c0-0.57647-0.4549-1-1-1h-26c-1 0-1.3759-0.3759-2-1l-3-3c-0.46442-0.46442-1-1-2-1z" color="#000000" fill="#f8ff34" fill-opacity=".31189"/>
		<path d="m1 12c-0.52342 0-1 0.4716-1 1 3.444e-5 0.0756-3.3805e-5 0.1741 0 0.25 0-0.5284 0.47658-1 1-1h27c1 0 1.5356 0.53558 2 1l3 3c0.6241 0.6241 1 1 2 1h26c0.5451 0 1 0.42353 1 1v-0.25c0-0.57647-0.4549-1-1-1h-26c-1 0-1.3759-0.3759-2-1l-3-3c-0.46442-0.46442-1-1-2-1z" color="#000000" fill="#f8ff34" fill-opacity=".31189"/>
	</g>
	<g transform="rotate(19.478,25.633,35.142)">
		<path d="m26 32c-0.36308-3.3041 2.676-6 6-6s6.3631 2.6959 6 6l-1.1111 10.111c-0.29584 2.6923-2.1805 4.8889-4.8889 4.8889s-4.5931-2.1967-4.8889-4.8889" fill="none" stroke="#d5ffff" stroke-linecap="round" stroke-linejoin="round" stroke-width="2" style="paint-order:normal"/>
		<path d="m31.945 35c-3.9088 0-7.0566 3.1459-7.0566 7.0547s3.1479 7.0566 7.0566 7.0566c3.9088 0 7.0547-3.1479 7.0547-7.0566 0-3.9088-3.1459-7.0547-7.0547-7.0547z" fill="#d5ffff" style="paint-order:normal"/>
		<path d="m31.977 39h0.04688c0.54072 0 0.97656 0.446 0.97656 1v2c0 0.554-0.43584 1-0.97656 1h-0.02344c0.554 0 1 0.446 1 1s-0.446 1-1 1-1-0.446-1-1 0.446-1 1-1h-0.02344c-0.54072 0-0.97656-0.446-0.97656-1v-2c0-0.554 0.43584-1 0.97656-1z" fill="#4b617d" style="paint-order:normal"/>
	</g>
	<path d="M 37.439,33.22 C 45.5413,32.23641 54.534,27.201 62,19" fill="none" stroke="#4b617d" stroke-linecap="round" stroke-linejoin="round" stroke-width="2" style="paint-order:normal"/>
	<path d="m17.952 31.431c-6.0318-2.2987-12.17-6.5513-17.523-12.431" fill="none" stroke="#d5ffff" stroke-linecap="round" stroke-linejoin="round" stroke-width="2" style="paint-order:normal"/>
	<g fill="#ff0066" fill-opacity=".02" opacity=".27438">
		<path d="m61.953 18c-0.2652 0.0124-0.5147 0.1297-0.6933 0.3262-0.0062 0.0067-0.0123 0.0134-0.0184 0.0202-6.2905 6.9097-13.673 15.021-20.557 17.2-0.4375 0.1385-0.8729 0.2531-1.3059 0.3419-0.6102-1.5488-1.8035-2.8983-3.3275-3.7252-0.3299-0.1791-0.6754-0.3336-1.0338-0.4604-3.414-1.2075-7.501 0.2761-8.7521 3.6626-0.0841 0.2277-0.1554 0.4639-0.2128 0.7085-0.071 0.3041 0.0049 0.6081 0.1815 0.8377 0.1358 0.1764 0.331 0.3089 0.5646 0.3635 0.3226 0.0755 0.6453-0.0145 0.8791-0.2147 0.1554-0.1331 0.2715-0.315 0.3221-0.5295 0.5816-2.4781 3.4637-3.7576 6.0108-3.0483 0.1137 0.0317 0.2267 0.0673 0.3388 0.1069 1.2573 0.4447 2.2829 1.3559 2.8842 2.4473 0.0021 0.0039 0.0042 0.0077 0.0064 0.0116 0.0318 0.0581 0.0624 0.1168 0.0918 0.1759-0.0045 6e-4 -0.0091 0.0014-0.0136 2e-3 -0.2085 0.0251-0.3941 0.1127-0.5406 0.2416-0.2017 0.1777-0.3291 0.4339-0.3392 0.714-0.0019 0.0519 3e-4 0.1045 0.0067 0.1577 0.0275 0.2282 0.1299 0.4292 0.2795 0.5813 0.1876 0.1905 0.4493 0.3043 0.7312 0.2989 0.034-6e-4 0.0682-3e-3 0.1026-0.0072 0.0531-0.0064 0.1062-0.0144 0.1594-0.0221 0.0308-0.0045 0.0617-9e-3 0.0925-0.013 0.0036 0.5625-0.1043 1.1263-0.3573 1.6626-0.0046 0.0096-0.0091 0.0192-0.0137 0.0288l-2.0782 4.3086c-0.023-0.039-0.0464-0.0778-0.0701-0.1164-0.8151-1.3239-2.0736-2.3869-3.6603-2.9481-0.0972-0.0343-0.1946-0.0665-0.2922-0.0964-3.6028-1.1047-7.4427 0.8054-8.7117 4.3933-0.0782 0.2209-0.1447 0.4429-0.2 0.6655-0.8672 3.4914 1.0346 7.1151 4.4988 8.3404 0.3464 0.1225 0.6957 0.2165 1.0453 0.2833 3.3707 0.6437 6.7778-1.2455 7.9586-4.5841 0.1671-0.4726 0.2809-0.9503 0.3448-1.4269 0.0817-0.6105 0.0816-1.2193 0.0068-1.8134 0 0 0.2903-0.6021 0.689-1.4291 0.8743-1.8132 2.2699-4.7076 2.2699-4.7076 0.275-0.57 0.4472-1.154 0.5286-1.7385 0.0539-0.3871 0.068-0.7744 0.0457-1.158 0.617-0.1265 1.2369-0.2995 1.8588-0.5145 7.2152-2.4948 14.692-10.651 21.067-17.653 0.142-0.1557 0.2256-0.3439 0.252-0.5379 0.0364-0.2667-0.0352-0.5443-0.2115-0.7629-0.0321-0.0398-0.0678-0.0778-0.1069-0.1133-0.1644-0.1499-0.3731-0.2398-0.5924-0.2576-0.0425-0.0035-0.0853-0.0042-0.1283-0.0022zm-61.477 2e-3m0 0c-0.23129-0.0114-0.45825 0.0579-0.64293 0.1941-0.026856 0.0199-0.052818 0.0411-0.077769 0.0637-0.18509 0.1682-0.29258 0.3898-0.32034 0.62-0.031936 0.2647 0.041581 0.5407 0.22376 0.7595 0.009747 0.0117 0.019804 0.0232 0.030173 0.0346 0.17157 0.1884 0.34393 0.3772 0.51708 0.5663 5.3244 5.8128 11.38 11.835 17.389 14.125 0.1069 0.0408 0.2164 0.0621 0.3246 0.0655 0.2753 0.0088 0.5423-0.0973 0.7364-0.2896 0.0981-0.0972 0.1776-0.2165 0.23-0.354 0.0477-0.125 0.0687-0.2536 0.0658-0.3796-0.0065-0.2741-0.1261-0.5356-0.3299-0.7196-0.0893-0.0806-0.1948-0.1464-0.314-0.1918-0.1373-0.0523-0.2747-0.1068-0.4122-0.1634-5.722-2.3553-11.579-8.3514-16.71-13.986-0.00627-0.0069-0.01254-0.0137-0.01881-0.0206-0.17851-0.1953-0.42712-0.3119-0.69141-0.3242z" color="#000000" stop-color="#000000" style="-inkscape-stroke:none;font-variation-settings:normal;paint-order:normal"/>
		<path d="m61.953 18c-0.2623 0.0122-0.5092 0.1272-0.6874 0.3198-0.0061 0.0066-0.0122 0.0132-0.0183 0.0199-6.4236 7.056-13.988 14.049-20.993 16-0.3455-0.0401-0.7027-0.0918-1.0698-0.1545-0.6918-1.4868-1.9303-2.7546-3.4738-3.4935-0.3353-0.1603-0.6832-0.2952-1.0409-0.4025-3.4075-1.0227-7.3637 0.5615-8.4742 3.9903-0.0751 0.2331-0.1105 0.472-0.1131 0.7037-0.0046 0.2853 0.1231 0.5522 0.3383 0.7287 0.1653 0.1356 0.3706 0.2151 0.5915 0.222 0.3052 0.0095 0.5913-0.1308 0.7721-0.3677 0.1198-0.1556 0.2181-0.3412 0.2771-0.5458 0.6876-2.3849 3.5561-3.5798 6.0614-2.8221 0.1119 0.0338 0.2228 0.0715 0.3325 0.1129 1.2319 0.4655 2.2313 1.3808 2.8111 2.4678-1e-4 0.0028-2e-4 0.0057-2e-4 0.0085 2e-4 0.0415 2e-4 0.0853 0 0.1313-0.0045 9e-4 -9e-3 0.0019-0.0135 0.0028-0.2002 0.0372-0.3783 0.1336-0.5165 0.271-0.1892 0.1879-0.299 0.4471-0.2952 0.7217 8e-4 0.0514 0.0055 0.103 0.0142 0.1546 0.0372 0.2203 0.1456 0.4151 0.3016 0.5607 0.1945 0.1817 0.4575 0.2824 0.7333 0.2683 0.0335-0.0018 0.0673-0.0049 0.1011-0.0092 0.0525-0.0068 0.105-0.0147 0.1575-0.0221 0.0208 0.0069 0.0414 0.0139 0.0619 0.0212-3e-4 0.5559-0.1101 1.1125-0.3618 1.6422-3e-3 0.0064-0.0076 0.016-0.0135 0.0284-0.0524 0.1085-1.9509 4.0447-2.0551 4.2607-0.0274-0.0012-0.0498-0.0134-0.0657-0.0392-0.7987-1.3155-2.0331-2.3774-3.5915-2.9518-0.0954-0.0352-0.1913-0.0683-0.2877-0.0993-3.5596-1.1454-7.3749 0.672-8.7247 4.1564-0.083 0.2144-0.1555 0.4316-0.2174 0.6511-0.9722 3.445 0.7898 7.0694 4.1168 8.4215 0.3324 0.1351 0.6719 0.2445 1.0165 0.3282 3.3239 0.8081 6.7559-0.8973 8.1045-4.0669 0.1907-0.4484 0.3339-0.91 0.4299-1.3799 0.1209-0.5959 0.1616-1.1931 0.1289-1.7793 0.0158-0.17 0.2071-0.7426 0.4534-1.4624 0.5859-1.2151 1.9554-4.0553 2.2446-4.6551 0.3286-0.6815 0.5523-1.2973 0.6068-1.689 0.0912-0.3734 0.1431-0.7487 0.1591-1.1221 0.4674-0.2876 0.9016-0.6083 1.3066-0.9542 7.352-2.1879 15.021-9.2404 21.55-16.362 0.1387-0.1512 0.238-0.3245 0.299-0.502 0.0834-0.2434 0.0663-0.515-0.0559-0.749-0.0224-0.0434-0.0483-0.0854-0.0778-0.1255-0.1239-0.169-0.2992-0.2922-0.4986-0.3517-0.0385-0.0116-0.0779-0.0206-0.1177-0.0271-0.0597-0.0422-0.1322-0.0636-0.206-0.0601m-41.197 0.0013m-20.28 7e-4c-0.16557-0.0082-0.32822 0.0382-0.46248 0.1301-0.094164 0.0168-0.18452 0.0609-0.25823 0.1277-0.18887 0.1716-0.29965 0.4024-0.32237 0.6441-0.021633 0.1824 0.027511 0.3723 0.14959 0.5238 0.006372 0.0902 0.043735 0.1775 0.10637 0.2462 1.883 2.0683 4.0242 3.6131 6.1544 4.5278 3.601 3.9083 7.6921 7.9566 11.752 9.5038 0.1534 0.0585 0.3176 0.0702 0.47 0.0367 0.2263-0.0128 0.4422-0.1109 0.6025-0.273 0.0933-0.0954 0.1685-0.2107 0.2185-0.3418 0.0632-0.1656 0.0747-0.3426 0.0369-0.5069-0.0205-0.22-0.1232-0.4279-0.2873-0.5791-0.0927-0.0873-0.2033-0.1576-0.3277-0.2051-2.0249-0.7716-4.1038-2.1808-5.9306-4.124-3.8363-1.5805-7.7632-5.6008-11.203-9.3786-0.0626-0.0652-0.14625-0.1059-0.23474-0.1145-0.11962-0.1308-0.28622-0.209-0.46333-0.2172z" color="#000000" stop-color="#000000" style="-inkscape-stroke:none;font-variation-settings:normal;paint-order:normal"/>
		<path d="m61.953 18c-0.2614 0.0122-0.5075 0.1264-0.6855 0.3178-0.0061 0.0065-0.0122 0.0131-0.0182 0.0198-6.4662 7.1027-14.089 13.739-21.133 15.617-0.3162-0.0971-0.6484-0.202-0.9944-0.313-0.7178-1.4671-1.9709-2.7088-3.5206-3.4195-0.3369-0.1544-0.6857-0.2829-1.0431-0.384-3.4055-0.9637-7.3199 0.6527-8.3854 4.095-0.0723 0.2348-0.0961 0.4745-0.0813 0.7022 0.0167 0.2793 0.1609 0.5343 0.3884 0.6938 0.1748 0.1226 0.3832 0.1852 0.6002 0.1768 0.2995-0.0115 0.5739-0.168 0.7379-0.4166 0.1083-0.1627 0.201-0.3495 0.2626-0.551 0.7216-2.3551 3.5857-3.523 6.0776-2.7498 0.1113 0.0345 0.2216 0.0728 0.3305 0.1148 1.2237 0.4721 2.2148 1.3888 2.7877 2.4744-7e-4 0.0024-0.0015 5e-3 -0.0023 0.0074-0.0098 0.0362-0.0197 0.0753-0.0293 0.1172-0.0045 9e-4 -9e-3 2e-3 -0.0135 3e-3 -0.1975 0.0411-0.3733 0.1402-0.5087 0.2803-0.1852 0.1912-0.2894 0.4514-0.2812 0.7242 0.0016 0.0513 0.0071 0.1026 0.0166 0.1537 0.0403 0.2177 0.1506 0.4106 0.3086 0.5541 0.1968 0.1789 0.4601 0.2754 0.734 0.2584 0.0334-0.0021 0.067-0.0054 0.1007-0.0098 0.0523-0.0069 0.1046-0.0148 0.1569-0.0221 0.0175 0.0106 0.0349 0.0212 0.0521 0.0321-0.0016 0.5538-0.1119 1.1082-0.3632 1.6357-0.0026 0.0055-0.0071 0.015-0.0135 0.0283-0.0691 0.1432-1.9102 3.9604-2.0477 4.2454-0.0289 0.0109-0.0509 0.0072-0.0643-0.0146-0.7935-1.3128-2.0201-2.3743-3.5695-2.9529-0.0948-0.0354-0.1903-0.0688-0.2863-0.1002-3.5458-1.1584-7.3532 0.6293-8.7289 4.0807-0.0846 0.2123-0.1589 0.4279-0.223 0.6464-1.0056 3.4303 0.7117 7.0548 3.9948 8.4475 0.328 0.1391 0.6644 0.2534 1.0073 0.3426 3.309 0.8606 6.7489-0.7861 8.1512-3.9017 0.1982-0.4407 0.3508-0.8972 0.4571-1.3649 0.1333-0.5912 0.1871-1.1847 0.1679-1.7685 0.0208-0.2243 0.1804-0.7874 0.3781-1.473 0.4937-1.024 1.8549-3.8469 2.2365-4.6383 0.3458-0.7171 0.5859-1.3431 0.6318-1.6731 0.103-0.3691 0.1671-0.7405 0.1953-1.1107 0.4197-0.339 0.7945-0.707 1.1302-1.0946 7.3957-2.09 15.126-8.7898 21.704-15.95 0.1376-0.1497 0.2421-0.3183 0.314-0.4905 0.0985-0.236 0.0988-0.5056-0.0062-0.7445-0.0192-0.0447-0.042-0.0879-0.0684-0.1294-0.1111-0.1752-0.2756-0.309-0.4686-0.3819-0.0373-0.0141-0.0756-0.0258-0.1144-0.035-0.0788-0.0557-0.1744-0.0839-0.2718-0.0793m-34.717 0.0011m-26.759 9e-4c-0.14458-0.0071-0.28668 0.032-0.40482 0.1096-0.11567 0.0159-0.22661 0.0673-0.31588 0.1482-0.19008 0.1727-0.30191 0.4064-0.32301 0.6519-0.018341 0.156 0.023016 0.3184 0.12589 0.4485 0.005293 0.1152 0.05138 0.2267 0.13072 0.3137 2.4299 2.6689 5.2001 4.647 7.9556 5.7936 3.0504 3.2997 6.5138 6.7174 9.9507 8.0272 0.1682 0.0642 0.3499 0.0728 0.5164 0.0276 0.2107-0.0198 0.4103-0.1154 0.5598-0.2678 0.0918-0.0948 0.1656-0.2089 0.2148-0.3379 0.0681-0.1785 0.0766-0.371 0.0277-0.5475-0.0251-0.2028-0.1224-0.3936-0.2737-0.5342-0.0938-0.0895-0.206-0.1613-0.3321-0.2094-2.6279-1.0015-5.3272-2.8435-7.6937-5.3895-3.2339-1.3329-6.5441-4.7219-9.4442-7.9065-0.08059-0.0839-0.18898-0.1354-0.30373-0.1445-0.10081-0.1102-0.24121-0.176-0.39046-0.183z" color="#000000" stop-color="#000000" style="-inkscape-stroke:none;font-variation-settings:normal;paint-order:normal"/>
		<path d="m61.953 18c-0.2607 0.0121-0.5062 0.1258-0.6841 0.3163-0.0061 0.0065-0.0122 0.0131-0.0182 0.0197-6.4971 7.1367-14.162 13.513-21.234 15.338-0.2948-0.1387-0.6088-0.2822-0.9396-0.4284-0.7367-1.4527-2.0003-2.6754-3.5545-3.3657-0.3382-0.15-0.6875-0.2739-1.0448-0.3706-3.404-0.9206-7.2879 0.7191-8.3208 4.1712-0.0702 0.2361-0.0857 0.4765-0.0582 0.7011 0.0322 0.2749 0.1884 0.5213 0.4249 0.6685 0.1817 0.1131 0.3924 0.1634 0.6064 0.1439 0.2955-0.0268 0.5614-0.195 0.7131-0.4522 0.1-0.1679 0.1886-0.3555 0.2522-0.5548 0.7462-2.3333 3.6071-3.4816 6.0892-2.6972 0.111 0.035 0.2207 0.0738 0.3291 0.1162 1.2178 0.4769 2.2028 1.3946 2.7708 2.4792-0.0013 0.0022-0.0026 0.0045-0.0039 0.0067-0.0171 0.0323-0.0341 0.068-0.0507 0.1068-0.0044 1e-3 -0.0089 0.0021-0.0134 0.0032-0.1956 0.0439-0.3696 0.1451-0.5031 0.2871-0.1823 0.1936-0.2824 0.4545-0.271 0.726 0.0022 0.0512 0.0083 0.1023 0.0184 0.153 0.0425 0.2159 0.1542 0.4073 0.3137 0.5493 0.1984 0.1768 0.462 0.2703 0.7344 0.2513 0.0334-0.0024 0.0669-0.0059 0.1004-0.0103 0.0521-0.0069 0.1043-0.0148 0.1565-0.0221 0.0151 0.0133 0.0301 0.0266 0.0449 0.0401-0.0024 0.5522-0.1132 1.1049-0.3641 1.631-0.0023 0.0047-0.0068 0.0142-0.0135 0.0281-0.0813 0.1684-1.8807 3.8991-2.0423 4.2343-0.0299 0.0197-0.0517 0.0222-0.0633 0.0034-0.7897-1.3109-2.0108-2.3722-3.5535-2.9539-0.0944-0.0355-0.1895-0.0692-0.2853-0.1008-3.5358-1.1678-7.3374 0.5983-8.7319 4.0257-0.0857 0.2108-0.1614 0.4253-0.227 0.6431-1.03 3.4194 0.6547 7.0441 3.906 8.4663 0.3247 0.142 0.6588 0.2599 1.0006 0.353 3.2981 0.8988 6.7439-0.7052 8.1851-3.7816 0.2037-0.435 0.3631-0.8878 0.4769-1.3539 0.1424-0.5878 0.2057-1.1786 0.1962-1.7606 0.0245-0.2637 0.1611-0.82 0.3234-1.4808 0.4267-0.885 1.7818-3.6952 2.2306-4.626 0.3583-0.743 0.6103-1.3764 0.65-1.6617 0.1117-0.3658 0.1845-0.7344 0.2217-1.1023 0.3848-0.3764 0.7165-0.7787 1.0018-1.1968 7.4275-2.0186 15.203-8.462 21.817-15.65 0.1368-0.1486 0.2449-0.3137 0.3249-0.4821 0.1094-0.2306 0.1224-0.4988 0.0299-0.7413-0.0169-0.0455-0.0375-0.0897-0.0616-0.1322-0.1017-0.1796-0.2584-0.3211-0.4468-0.4038-0.0364-0.0159-0.0738-0.0296-0.112-0.0407-0.0926-0.0655-0.205-0.0987-0.3196-0.0933m-30.006 1e-3m-31.471 1e-3c-0.12931-0.0064-0.25646 0.0274-0.36289 0.0947-0.13131 0.0152-0.2572 0.0719-0.35781 0.1631-0.19096 0.1735-0.30355 0.4094-0.32348 0.6575-0.015948 0.1369 0.019747 0.2793 0.10865 0.3937 0.00451 0.1334 0.05694 0.2626 0.14842 0.3629 2.8275 3.1057 6.0552 5.3988 9.2654 6.714 2.65 2.8572 5.6569 5.8163 8.6409 6.9535 0.179 0.0683 0.3734 0.0747 0.5502 0.0209 0.1993-0.0247 0.387-0.1185 0.5287-0.2639 0.0906-0.0944 0.1635-0.2075 0.2121-0.3351 0.0717-0.1879 0.078-0.3916 0.021-0.5771-0.0283-0.1902-0.1217-0.3686-0.2638-0.5015-0.0946-0.0911-0.208-0.1639-0.3353-0.2124-3.0665-1.1687-6.2168-3.3255-8.9758-6.3098-2.7958-1.1529-5.6576-4.0828-8.1649-6.8361-0.09368-0.0974-0.22004-0.1567-0.3539-0.1662-0.087124-0.0953-0.20847-0.1522-0.33746-0.1582z" color="#000000" stop-color="#000000" style="-inkscape-stroke:none;font-variation-settings:normal;paint-order:normal"/>
		<path d="m61.953 18c-0.2602 0.0121-0.5052 0.1253-0.683 0.3151-0.0061 0.0065-0.0121 0.0131-0.0182 0.0197-6.5222 7.1643-14.221 13.329-21.317 15.111-0.2774-0.1725-0.5766-0.3474-0.8949-0.5223-0.7522-1.441-2.0243-2.6483-3.5823-3.3218-0.3392-0.1465-0.6889-0.2667-1.0461-0.3597-3.4027-0.8857-7.2619 0.7732-8.2682 4.2332-0.0685 0.2372-0.0772 0.478-0.0393 0.7002 0.0447 0.2714 0.2108 0.5107 0.4545 0.6479 0.1873 0.1054 0.4 0.1456 0.6116 0.1171 0.2922-0.0393 0.5511-0.2171 0.6928-0.4812 0.0932-0.1721 0.1784-0.3604 0.2436-0.5578 0.7663-2.3158 3.6246-3.448 6.0989-2.6545 0.1106 0.0355 0.22 0.0747 0.3279 0.1174 1.213 0.4809 2.193 1.3993 2.7569 2.4831-0.0017 2e-3 -0.0034 0.0041-0.0051 0.0061-0.0231 0.0292-0.0459 0.062-0.0681 0.0983-0.0044 0.0011-0.0089 0.0023-0.0134 0.0034-0.194 0.0462-0.3666 0.149-0.4985 0.2927-0.18 0.1955-0.2767 0.457-0.2627 0.7275 0.0027 0.051 0.0093 0.1019 0.0198 0.1523 0.0443 0.2144 0.1572 0.4047 0.3179 0.5454 0.1997 0.1752 0.4636 0.2662 0.7348 0.2455 0.0333-0.0026 0.0667-0.0062 0.1002-0.0107 0.052-7e-3 0.104-0.0148 0.1561-0.022 0.0132 0.0154 0.0263 0.0309 0.0391 0.0465-0.0032 0.551-0.1143 1.1024-0.365 1.6271-0.0019 0.0041-0.0065 0.0136-0.0135 0.0281-0.0911 0.1889-1.8565 3.8492-2.0379 4.2253-0.0307 0.0268-0.0523 0.0344-0.0624 0.0179-0.7866-1.3092-2.0031-2.3703-3.5405-2.9545-0.0941-0.0358-0.1889-0.0696-0.2845-0.1014-3.5276-1.1755-7.3246 0.5731-8.7343 3.9809-0.0867 0.2095-0.1635 0.4231-0.2304 0.6403-1.0498 3.4107 0.6085 7.0355 3.8338 8.4817 0.322 0.1444 0.6543 0.2651 0.9951 0.3615 3.2893 0.9299 6.7398-0.6393 8.2127-3.6837 0.2082-0.4304 0.3732-0.8802 0.493-1.3451 0.1499-0.585 0.2209-1.1736 0.2194-1.7541 0.0275-0.2959 0.1454-0.8466 0.2788-1.4871 0.3721-0.7718 1.7222-3.5718 2.2258-4.6161 0.3684-0.7641 0.6302-1.4035 0.6648-1.6523 0.1187-0.3632 0.1988-0.7296 0.2431-1.0955 0.3566-0.4069 0.6531-0.8372 0.8974-1.28 7.4534-1.9606 15.265-8.1951 21.908-15.405 0.1362-0.1478 0.2473-0.31 0.3338-0.4753 0.1183-0.2262 0.1415-0.4933 0.0594-0.7387-0.0151-0.0461-0.0339-0.0911-0.0562-0.1345-0.094-0.1832-0.2444-0.331-0.429-0.4216-0.0357-0.0175-0.0724-0.0327-0.11-0.0454-0.104-0.0735-0.2301-0.1108-0.3586-0.1047m-26.168 9e-4m-35.309 0.0011c-0.11687-0.0058-0.23186 0.0237-0.32874 0.0826-0.14405 0.0146-0.28213 0.0757-0.39196 0.1752-0.19168 0.1741-0.30489 0.4117-0.32387 0.6621-0.013998 0.1213 0.017084 0.2474 0.094614 0.3491 0.00387 0.1482 0.061469 0.2917 0.16285 0.4029 3.1514 3.4615 6.7517 6.0112 10.332 7.4638 2.3238 2.4967 4.9589 5.0822 7.574 6.0788 0.1878 0.0717 0.3926 0.0763 0.5777 0.0155 0.19-0.0288 0.3681-0.1211 0.5034-0.2607 0.0897-0.0941 0.1617-0.2065 0.2099-0.3329 0.0747-0.1956 0.0791-0.4084 0.0156-0.6011-0.0311-0.18-0.1213-0.3482-0.2558-0.475-0.0952-0.0923-0.2096-0.166-0.3379-0.2149-3.4237-1.3048-6.9415-3.7179-10.02-7.0593-2.4389-1.0063-4.9354-3.5622-7.1228-5.9642-0.10434-0.1084-0.24535-0.1742-0.39477-0.1839-0.07598-0.0832-0.1818-0.1328-0.2943-0.138z" color="#000000" stop-color="#000000" style="-inkscape-stroke:none;font-variation-settings:normal;paint-order:normal"/>
		<path d="m61.953 18c-0.2597 0.0121-0.5043 0.1249-0.682 0.314-0.0061 0.0065-0.0122 0.0131-0.0182 0.0197-6.5439 7.1881-14.272 13.171-21.388 14.916-0.2624-0.2015-0.5489-0.4034-0.8565-0.6029-0.7654-1.4309-2.0449-2.6249-3.606-3.2842-0.3401-0.1435-0.6902-0.2605-1.0472-0.3503-3.4018-0.8556-7.2397 0.8196-8.2231 4.2865-0.0671 0.2381-0.0699 0.4793-0.0231 0.6994 0.0555 0.2683 0.23 0.5017 0.48 0.6302 0.1921 0.0988 0.4064 0.1304 0.6159 0.0941 0.2894-0.0501 0.5424-0.236 0.6755-0.5061 0.0874-0.1757 0.1697-0.3646 0.2363-0.5604 0.7835-2.3006 3.6396-3.4192 6.1071-2.6177 0.1103 0.0358 0.2193 0.0753 0.3268 0.1184 1.2089 0.4841 2.1847 1.4033 2.7451 2.4864-0.0021 0.0017-0.0041 0.0037-0.0062 0.0055-0.0283 0.0265-0.0561 0.057-0.083 0.0911-0.0044 0.0011-0.0089 0.0024-0.0134 0.0035-0.1926 0.0482-0.364 0.1524-0.4946 0.2975-0.1779 0.1972-0.2718 0.4591-0.2555 0.7287 0.0031 0.051 0.0101 0.1017 0.021 0.1519 0.0459 0.2131 0.1597 0.4023 0.3215 0.5421 0.2008 0.1737 0.4648 0.2625 0.7351 0.2404 0.0332-0.0027 0.0666-0.0065 0.1-0.011 0.0518-7e-3 0.1038-0.0149 0.1557-0.022 0.0116 0.0173 0.023 0.0346 0.0342 0.0521-0.0038 0.5499-0.1153 1.1001-0.3657 1.6238-0.0017 0.0036-0.0063 0.0131-0.0135 0.028-0.0996 0.2066-1.8358 3.8063-2.0342 4.2175-0.0314 0.0329-0.0528 0.0448-0.0617 0.0305-0.7839-1.3079-1.9965-2.3689-3.5293-2.9552-0.0937-0.0358-0.1883-0.0698-0.2837-0.1018-3.5206-1.1821-7.3136 0.5514-8.7364 3.9424-0.0875 0.2084-0.1653 0.4212-0.2332 0.6379-1.0669 3.4032 0.5686 7.0281 3.7716 8.4949 0.3198 0.1465 0.6505 0.2697 0.9905 0.3688 3.2817 0.9566 6.7362-0.5827 8.2364-3.5996 0.2121-0.4265 0.3818-0.8737 0.5069-1.3375 0.1561-0.5826 0.2338-1.1693 0.2392-1.7485 0.03-0.3236 0.1318-0.8695 0.2404-1.4925 0.3253-0.6746 1.6711-3.4658 2.2217-4.6076 0.3772-0.7822 0.6473-1.4268 0.6776-1.6442 0.1247-0.3611 0.2109-0.7255 0.2615-1.0898 0.3322-0.433 0.5986-0.8873 0.8076-1.3514 7.4756-1.9107 15.319-7.9658 21.986-15.195 0.1357-0.1471 0.2494-0.3069 0.3415-0.4694 0.1259-0.2225 0.158-0.4886 0.0846-0.7365-0.0134-0.0467-0.0306-0.0923-0.0514-0.1365-0.0874-0.1863-0.2324-0.3395-0.4138-0.4369-0.035-0.0188-0.0712-0.0353-0.1082-0.0494-0.1137-0.0804-0.2516-0.1211-0.3921-0.1145m-22.871 7e-4m-38.606 0.0013c-0.10619-0.0052-0.21072 0.0205-0.2994 0.0722-0.15499 0.0141-0.30354 0.0789-0.4213 0.1856-0.19229 0.1747-0.30604 0.4138-0.3242 0.666-0.012324 0.1079 0.014797 0.22 0.082556 0.3108 0.003322 0.161 0.065359 0.3168 0.17523 0.4373 3.4296 3.767 7.35 6.5372 11.249 8.1077 2.0436 2.1871 4.3593 4.4518 6.6576 5.3277 0.1954 0.0746 0.409 0.0776 0.6013 0.0108 0.1821-0.0324 0.3519-0.1233 0.4816-0.2581 0.089-0.0937 0.1603-0.2055 0.2081-0.3308 0.0772-0.2022 0.0801-0.4229 0.0109-0.6218-0.0334-0.1712-0.1208-0.3308-0.2489-0.4522-0.0958-0.0934-0.2109-0.1678-0.3401-0.217-3.7305-1.4217-7.5639-4.0551-10.917-7.7032-2.1324-0.8803-4.3152-3.1151-6.2277-5.2152-0.1135-0.1179-0.26709-0.1892-0.42988-0.1992-0.066408-0.0727-0.1589-0.116-0.25722-0.1206z" color="#000000" stop-color="#000000" style="-inkscape-stroke:none;font-variation-settings:normal;paint-order:normal"/>
		<path d="m61.953 18c-0.2593 0.0121-0.5035 0.1245-0.6812 0.3131-0.0061 0.0065-0.0121 0.013-0.0181 0.0196-6.5631 7.2092-14.318 13.031-21.451 14.743-0.2492-0.2272-0.5244-0.4531-0.8225-0.6744-0.7772-1.422-2.0632-2.6042-3.6271-3.2508-0.3408-0.1408-0.6913-0.2549-1.0483-0.3419-3.4007-0.8291-7.2199 0.8606-8.183 4.3337-0.0658 0.2388-0.0635 0.4804-0.0088 0.6987 0.0651 0.2656 0.247 0.4935 0.5026 0.6144 0.1964 0.0929 0.4121 0.1169 0.6198 0.0738 0.2869-0.0596 0.5346-0.2528 0.6601-0.5281 0.0823-0.179 0.162-0.3685 0.2298-0.5629 0.7988-2.2871 3.6529-3.3935 6.1144-2.5851 0.11 0.0362 0.2187 0.076 0.3259 0.1193 1.2052 0.4872 2.1772 1.4069 2.7345 2.4893-0.0023 0.0017-0.0047 0.0035-0.0071 0.0052-0.0328 0.024-0.065 0.0523-0.0962 0.0846-0.0045 0.0012-0.0089 0.0024-0.0134 0.0036-0.1914 0.0499-0.3618 0.1555-0.4912 0.3017-0.176 0.1987-0.2674 0.4611-0.2491 0.7299 0.0035 0.0509 0.0109 0.1015 0.0221 0.1514 0.0473 0.212 0.162 0.4003 0.3246 0.5391 0.2019 0.1724 0.4661 0.2594 0.7355 0.2361 0.0331-0.0029 0.0664-0.0068 0.0997-0.0113 0.0518-0.0071 0.1037-0.015 0.1555-0.022 0.0102 0.0189 0.0201 0.0379 0.0298 0.057-0.0044 0.5489-0.1161 1.0981-0.3664 1.6208-0.0015 0.0031-6e-3 0.0127-0.0134 0.0279-0.1072 0.2223-1.8175 3.7684-2.0309 4.2107-0.0321 0.0384-0.0533 0.0541-0.061 0.0416-0.7816-1.3067-1.9907-2.3675-3.5194-2.9557-0.0935-0.036-0.1879-0.0701-0.2831-0.1023-3.5144-1.1879-7.3038 0.5322-8.7383 3.9083-0.0882 0.2075-0.1669 0.4196-0.2357 0.6359-1.082 3.3964 0.5333 7.0214 3.7166 8.5066 0.3178 0.1482 0.6471 0.2737 0.9863 0.3752 3.275 0.9803 6.7331-0.5326 8.2575-3.5251 0.2154-0.4231 0.3894-0.8679 0.5191-1.3307 0.1618-0.5806 0.2453-1.1656 0.2568-1.7437 0.0323-0.348 0.1198-0.8897 0.2065-1.4973 0.2837-0.5884 1.6258-3.3718 2.218-4.6 0.3849-0.7982 0.6624-1.4474 0.6889-1.6371 0.1301-0.3591 0.2217-0.7217 0.2779-1.0845 0.3106-0.4562 0.5502-0.9319 0.728-1.4148 7.4953-1.8665 15.366-7.7626 22.056-15.009 0.1352-0.1464 0.2511-0.3041 0.3482-0.4643 0.1327-0.2191 0.1727-0.4843 0.1071-0.7344-0.0121-0.0473-0.0279-0.0935-0.0472-0.1383-0.0816-0.1891-0.2218-0.3471-0.4003-0.4504-0.0345-0.02-0.0702-0.0377-0.1068-0.0531-0.1222-0.0864-0.2705-0.1302-0.4217-0.1231m-19.95 6e-4m-41.526 0.0014c-0.096726-0.0048-0.19199 0.0177-0.27342 0.0629-0.16468 0.0137-0.32251 0.0818-0.44729 0.1949-0.19284 0.1752-0.30706 0.4156-0.32449 0.6695-0.01084 0.096 0.01277 0.1957 0.071873 0.2769 0.002836 0.1722 0.068805 0.339 0.18621 0.4677 3.6761 4.0378 7.88 7.0032 12.061 8.6783 1.7954 1.9128 3.8282 3.8932 5.8457 4.6621 0.2021 0.0771 0.4236 0.0788 0.6223 0.0066 0.1749-0.0354 0.3374-0.1252 0.4623-0.2556 0.0883-0.0935 0.159-0.2047 0.2064-0.3292 0.0794-0.2079 0.081-0.4356 0.0068-0.6401-0.0354-0.1634-0.1204-0.3152-0.2428-0.4319-0.0963-0.0943-0.2122-0.1694-0.3421-0.219-4.0024-1.5253-8.1154-4.3537-11.712-8.2735-1.8609-0.7687-3.7656-2.7189-5.4348-4.5517-0.12161-0.1263-0.28635-0.2024-0.46097-0.2127-0.057929-0.0634-0.13861-0.1012-0.22438-0.1052z" color="#000000" stop-color="#000000" style="-inkscape-stroke:none;font-variation-settings:normal;paint-order:normal"/>
		<path d="m61.953 18c-0.2589 0.0121-0.5028 0.1242-0.6804 0.3123-0.0061 0.0065-0.0121 0.013-0.0181 0.0196-6.5804 7.2282-14.359 12.905-21.508 14.587-0.2372-0.2505-0.5023-0.4981-0.7918-0.7391-0.7877-1.4139-2.0797-2.5855-3.6461-3.2206-0.3415-0.1384-0.6924-0.2499-1.0492-0.3344-3.3999-0.805-7.202 0.8978-8.1469 4.3764-0.0646 0.2395-0.0576 0.4814 0.0043 0.698 0.0737 0.2632 0.2624 0.4863 0.523 0.6003 0.2002 0.0876 0.4173 0.1047 0.6233 0.0553 0.2846-0.0681 0.5275-0.2679 0.6461-0.548 0.0777-0.1819 0.1551-0.3719 0.224-0.565 0.8126-2.275 3.6649-3.3703 6.1209-2.5556 0.1099 0.0364 0.2183 0.0765 0.3251 0.12 1.2019 0.4899 2.1705 1.4101 2.7251 2.492-0.0027 0.0015-0.0054 0.0032-0.0081 0.0048-0.0368 0.0218-0.0731 0.0482-0.1081 0.0788-0.0045 0.0012-0.0089 0.0025-0.0134 0.0037-0.1903 0.0515-0.3597 0.1582-0.488 0.3055-0.1744 0.2-0.2635 0.4628-0.2434 0.7309 0.0039 0.0509 0.0116 0.1013 0.023 0.151 0.0486 0.211 0.1641 0.3985 0.3276 0.5364 0.2028 0.1713 0.4671 0.2566 0.7357 0.2321 0.0331-3e-3 0.0663-7e-3 0.0996-0.0116 0.0517-0.0071 0.1034-0.0149 0.1552-0.0219 0.0088 0.0204 0.0174 0.0408 0.0258 0.0614-0.0049 0.5481-0.1169 1.0963-0.367 1.6182-0.0013 0.0027-0.0058 0.0122-0.0134 0.0279-0.114 0.2363-1.8009 3.7339-2.0278 4.2044-0.0327 0.0433-0.0538 0.0625-0.0605 0.0516-0.7794-1.3056-1.9855-2.3662-3.5104-2.9561-0.0933-0.0361-0.1875-0.0704-0.2826-0.1027-3.5087-1.1932-7.2949 0.5148-8.74 3.8774-0.0888 0.2067-0.1682 0.4182-0.2379 0.634-1.0957 3.3905 0.5014 7.0156 3.6668 8.5172 0.316 0.1499 0.644 0.2773 0.9826 0.3811 3.2689 1.0017 6.7302-0.4872 8.2765-3.4578 0.2185-0.4199 0.3963-0.8626 0.5302-1.3245 0.1669-0.5787 0.2557-1.1622 0.2726-1.7393 0.0344-0.3702 0.1091-0.908 0.1759-1.5016 0.2461-0.5105 1.5848-3.2869 2.2147-4.5932 0.3919-0.8127 0.6761-1.4661 0.6991-1.6306 0.1349-0.3573 0.2315-0.7184 0.2926-1.0799 0.2912-0.4772 0.5066-0.9721 0.6561-1.472 7.5132-1.8266 15.409-7.579 22.119-14.841 0.1347-0.1458 0.2527-0.3016 0.3543-0.4596 0.1388-0.216 0.1859-0.4805 0.1273-0.7326-0.0108-0.0477-0.0253-0.0945-0.0434-0.1399-0.0763-0.1916-0.2121-0.3539-0.3881-0.4627-0.034-0.021-0.0691-0.0398-0.1053-0.0562-0.1301-0.092-0.2878-0.1386-0.4486-0.131m-17.309 6e-4m-44.167 0.0014c-0.088168-0.0043-0.17506 0.0151-0.24991 0.0546-0.17345 0.0133-0.33966 0.0844-0.47079 0.2032-0.19333 0.1756-0.30798 0.4172-0.32475 0.6726-0.009498 0.0854 0.010938 0.1738 0.062213 0.2462 0.002396 0.1825 0.071922 0.3591 0.19613 0.4953 3.899 4.2826 8.3593 7.4246 12.795 9.1942 1.571 1.6648 3.3479 3.3881 5.1116 4.0603 0.2082 0.0794 0.4368 0.0798 0.6412 0.0029 0.1686-0.0383 0.3244-0.1271 0.4449-0.2535 0.0876-0.0933 0.1578-0.204 0.2049-0.3276 0.0814-0.2132 0.0817-0.4472 3e-3 -0.6567-0.0372-0.1563-0.12-0.3012-0.2372-0.4136-0.0967-0.0952-0.2133-0.1709-0.3439-0.2207-4.2482-1.619-8.614-4.6239-12.431-8.7894-1.6153-0.6678-3.2687-2.3606-4.7177-3.9516-0.12894-0.1339-0.30375-0.2144-0.48909-0.225-0.050259-0.0549-0.12026-0.0877-0.19467-0.0912z" color="#000000" stop-color="#000000" style="-inkscape-stroke:none;font-variation-settings:normal;paint-order:normal"/>
		<path d="m61.953 18c-0.2586 0.012-0.5021 0.1239-0.6797 0.3115-0.0061 0.0065-0.0121 0.013-0.0181 0.0196-6.5963 7.2457-14.396 12.789-21.56 14.443-0.2262-0.2719-0.4819-0.5393-0.7635-0.7984-0.7976-1.4065-2.0949-2.5684-3.6637-3.1929-0.3421-0.1361-0.6933-0.2454-1.05-0.3275-3.3992-0.7829-7.1856 0.9319-8.1136 4.4155-0.0636 0.2402-0.0523 0.4825 0.0161 0.6975 0.0817 0.2609 0.2765 0.4796 0.5417 0.5872 0.2038 0.0828 0.4221 0.0935 0.6266 0.0385 0.2825-0.0761 0.521-0.2819 0.6333-0.5664 0.0734-0.1845 0.1487-0.3749 0.2186-0.5669 0.8253-2.2638 3.676-3.3491 6.127-2.5286 0.1096 0.0367 0.2178 0.077 0.3243 0.1208 1.1989 0.4923 2.1644 1.4131 2.7163 2.4945-0.0029 0.0013-0.0058 0.0029-0.0088 0.0043-0.0406 0.0199-0.0805 0.0445-0.1191 0.0735-0.0044 0.0013-0.0089 0.0026-0.0133 0.0038-0.1894 0.053-0.3579 0.1607-0.4852 0.309-0.1729 0.2013-0.2599 0.4644-0.2381 0.7319 0.0041 0.0507 0.0121 0.1011 0.0239 0.1506 0.0497 0.21 0.1659 0.3968 0.3301 0.534 0.2037 0.1702 0.4682 0.2539 0.7361 0.2283 0.033-0.0031 0.0661-0.0072 0.0993-0.0117 0.0517-0.0072 0.1034-0.015 0.155-0.022 0.0077 0.0218 0.015 0.0436 0.0221 0.0655-0.0053 0.5473-0.1175 1.0947-0.3674 1.6158-0.0011 0.0023-0.0057 0.0118-0.0134 0.0278-0.1202 0.2493-1.7858 3.7024-2.0251 4.1987-0.0332 0.0478-0.0542 0.0702-0.06 0.0609-0.7774-1.3047-1.9806-2.3652-3.5022-2.9567-0.093-0.0362-0.187-0.0705-0.282-0.103-3.5036-1.1981-7.2868 0.4989-8.7415 3.8492-0.0894 0.2059-0.1695 0.4167-0.2401 0.6322-1.1081 3.3849 0.4723 7.0101 3.6213 8.5269 0.3143 0.1514 0.6411 0.2807 0.9791 0.3864 3.2633 1.0214 6.7276-0.4456 8.2939-3.3959 0.2213-0.417 0.4027-0.8579 0.5404-1.319 0.1715-0.5769 0.2652-1.159 0.2872-1.7351 0.0363-0.3905 0.0991-0.9248 0.1477-1.5056 0.2117-0.4391 1.5473-3.209 2.2117-4.587 0.3983-0.826 0.6887-1.4831 0.7084-1.6247 0.1394-0.3556 0.2405-0.7153 0.3062-1.0756 0.2733-0.4964 0.4665-1.0089 0.5902-1.5245 7.5295-1.7899 15.448-7.4104 22.177-14.687 0.1344-0.1453 0.2543-0.2992 0.3599-0.4553 0.1445-0.2132 0.1981-0.477 0.146-0.731-0.0096-0.0481-0.023-0.0953-0.04-0.1412-0.0715-0.1939-0.2033-0.3603-0.3768-0.474-0.0335-0.022-0.0683-0.0418-0.1041-0.0593-0.1372-0.0969-0.3036-0.1461-0.4732-0.1381m-14.886 5e-4m-46.591 0.0015c-0.080316-4e-3 -0.15952 0.0128-0.22835 0.0469-0.18149 0.013-0.3554 0.0868-0.49235 0.2109-0.19378 0.1761-0.30883 0.4188-0.32499 0.6755-0.008268 0.0755 0.009256 0.1537 0.053348 0.218 0.001994 0.1919 0.074782 0.3775 0.20524 0.5206 4.1035 4.5072 8.7991 7.8113 13.468 9.6676 1.3651 1.4372 2.9072 2.9246 4.438 3.508 0.2137 0.0816 0.4489 0.0808 0.6586-5e-4 0.1627-0.0409 0.3124-0.1286 0.4289-0.2515 0.087-0.0931 0.1567-0.2033 0.2035-0.3261 0.0833-0.2181 0.0825-0.4579-4e-4 -0.6719-0.039-0.1499-0.1197-0.2884-0.2322-0.3968-0.0971-0.0961-0.2143-0.1723-0.3455-0.2223-4.4737-1.7049-9.0716-4.8717-13.09-9.2627-1.39-0.5752-2.8128-2.032-4.0597-3.4011-0.13567-0.1409-0.31973-0.2254-0.51489-0.2361-0.043224-0.0473-0.10342-0.0755-0.16742-0.0785z" color="#000000" stop-color="#000000" style="-inkscape-stroke:none;font-variation-settings:normal;paint-order:normal"/>
		<path d="m61.953 18c-0.2582 0.012-0.5015 0.1236-0.679 0.3108-0.0061 0.0065-0.0121 0.013-0.0181 0.0195-6.6111 7.262-14.431 12.681-21.609 14.31-0.2161-0.2916-0.4631-0.5774-0.7374-0.8533-0.8066-1.3997-2.1089-2.5525-3.6799-3.1673-0.3427-0.134-0.6941-0.2411-1.0508-0.3211-3.3984-0.7624-7.1704 0.9636-8.0828 4.4519-0.0626 0.2408-0.0473 0.4833 0.0271 0.6969 0.0891 0.2589 0.2897 0.4735 0.5592 0.5752 0.207 0.0782 0.4264 0.0831 0.6295 0.0228 0.2806-0.0834 0.5151-0.2948 0.6215-0.5834 0.0694-0.187 0.1428-0.3778 0.2136-0.5687 0.837-2.2535 3.6862-3.3294 6.1326-2.5035 0.1094 0.0369 0.2173 0.0775 0.3236 0.1214 1.1961 0.4947 2.1586 1.4159 2.7082 2.4968-0.0031 0.0012-0.0063 0.0027-0.0095 4e-3 -0.0442 0.018-0.0875 0.041-0.1293 0.0686-0.0045 0.0012-0.0089 0.0025-0.0133 0.0038-0.1885 0.0543-0.3561 0.163-0.4825 0.3123-0.1716 0.2024-0.2566 0.4659-0.2333 0.7327 0.0045 0.0507 0.0128 0.1009 0.0248 0.1503 0.0507 0.2091 0.1677 0.3952 0.3326 0.5317 0.2044 0.1692 0.469 0.2515 0.7362 0.2249 0.033-0.0032 0.0661-0.0074 0.0992-0.012 0.0516-0.0072 0.1032-0.015 0.1548-0.0219 0.0065 0.023 0.0128 0.0461 0.0187 0.0693-0.0058 0.5465-0.1181 1.0932-0.3679 1.6135-1e-3 2e-3 -0.0055 0.0115-0.0134 0.0278-0.126 0.2613-1.7716 3.6731-2.0225 4.1933-0.0337 0.0521-0.0546 0.0774-0.0595 0.0695-0.7756-1.3037-1.9761-2.3641-3.4946-2.9571-0.0928-0.0362-0.1867-0.0707-0.2815-0.1033-3.4988-1.2026-7.2793 0.4841-8.7429 3.8229-0.09 0.2052-0.1708 0.4155-0.2421 0.6307-1.1198 3.3797 0.4452 7.005 3.579 8.5359 0.3127 0.1527 0.6385 0.2837 0.9759 0.3913 3.2581 1.0396 6.7252-0.407 8.3101-3.3386 0.2239-0.4143 0.4085-0.8534 0.5498-1.3137 0.1759-0.5753 0.2741-1.1562 0.3008-1.7314 0.038-0.4094 0.0898-0.9404 0.1215-1.5093 0.1798-0.3728 1.5124-3.1367 2.2089-4.5811 0.4043-0.8384 0.7004-1.4991 0.7171-1.6192 0.1435-0.3542 0.2488-0.7125 0.3188-1.0717 0.2567-0.5142 0.4293-1.0432 0.5289-1.5732 7.5447-1.7559 15.485-7.2542 22.23-14.544 0.134-0.1448 0.2556-0.2971 0.3651-0.4513 0.1497-0.2107 0.2093-0.4738 0.1632-0.7295-0.0085-0.0485-0.0208-0.0962-0.0367-0.1426-0.067-0.196-0.1951-0.366-0.3665-0.4844-0.033-0.0229-0.0674-0.0436-0.1029-0.062-0.1438-0.1016-0.3182-0.1532-0.496-0.1448m-12.638 4e-4m-48.838 0.0016c-0.073033-0.0036-0.14511 0.0106-0.20835 0.0398-0.18895 0.0127-0.37 0.089-0.51235 0.218-0.1942 0.1764-0.30961 0.4202-0.32522 0.6782-0.007126 0.0664 0.007698 0.135 0.045128 0.1919 0.001619 0.2006 0.077434 0.3946 0.21368 0.544 4.2932 4.7156 9.207 8.1699 14.093 10.107 1.1741 1.2261 2.4985 2.4949 3.8132 2.9959 0.2189 0.0835 0.4601 0.0817 0.6747-0.0037 0.1573-0.0433 0.3013-0.1302 0.4141-0.2497 0.0865-0.0928 0.1557-0.2026 0.2022-0.3247 0.085-0.2226 0.0831-0.4678-0.0036-0.686-0.0405-0.1439-0.1194-0.2765-0.2274-0.3813-0.0975-0.0968-0.2153-0.1735-0.3471-0.2237-4.6829-1.7847-9.4959-5.1016-13.702-9.7016-1.181-0.4894-2.3899-1.7272-3.4495-2.8905-0.14192-0.1474-0.33456-0.2357-0.53883-0.2466-0.036697-0.0401-0.087808-0.0641-0.14214-0.0666z" color="#000000" stop-color="#000000" style="-inkscape-stroke:none;font-variation-settings:normal;paint-order:normal"/>
		<path d="m61.953 18c-0.2579 0.012-0.5009 0.1233-0.6784 0.3102-0.0061 0.0064-0.0121 0.0129-0.0181 0.0194-6.6249 7.2771-14.464 12.58-21.654 14.186-0.2065-0.3101-0.4454-0.6132-0.7129-0.9048-0.815-1.3932-2.1221-2.5376-3.695-3.1432-0.3433-0.1321-0.695-0.2371-1.0515-0.3151-3.3978-0.7433-7.1562 0.9932-8.0541 4.4858-0.0617 0.2414-0.0426 0.4842 0.0375 0.6965 0.096 0.2569 0.3019 0.4676 0.5754 0.5638 0.2101 0.074 0.4305 0.0734 0.6323 0.0081 0.2787-0.0902 0.5095-0.3068 0.6104-0.5992 0.0657-0.1893 0.1372-0.3805 0.2089-0.5704 0.8481-2.2438 3.6958-3.3109 6.1378-2.48 0.1093 0.0371 0.217 0.0779 0.3231 0.122 1.1934 0.4968 2.1532 1.4185 2.7006 2.4989-0.0034 0.0011-0.0068 0.0025-0.0102 0.0037-0.0475 0.0163-0.0939 0.0378-0.1389 0.064-0.0044 0.0012-0.0088 0.0026-0.0133 0.0039-0.1876 0.0555-0.3544 0.1651-0.48 0.3153-0.1702 0.2035-0.2534 0.4672-0.2286 0.7335 0.0047 0.0507 0.0132 0.1008 0.0255 0.1499 0.0518 0.2084 0.1693 0.3939 0.3349 0.5296 0.2051 0.1684 0.4698 0.2492 0.7364 0.2218 0.033-0.0034 0.066-0.0076 0.0991-0.0122 0.0515-0.0072 0.1031-0.0151 0.1546-0.022 0.0054 0.0243 0.0106 0.0486 0.0155 0.0729-0.0062 0.5459-0.1187 1.0917-0.3684 1.6114-8e-4 0.0016-0.0053 0.0111-0.0133 0.0277-0.1315 0.2726-1.7585 3.6459-2.0202 4.1884-0.0341 0.056-0.0549 0.0841-0.059 0.0775-0.7739-1.3028-1.9719-2.3631-3.4874-2.9575-0.0927-0.0363-0.1864-0.0709-0.2811-0.1036-3.4943-1.2068-7.2722 0.4703-8.7443 3.7984-0.0904 0.2044-0.1718 0.4143-0.2438 0.6291-1.1307 3.375 0.4197 7.0003 3.5393 8.5443 0.3113 0.1541 0.6361 0.2867 0.9729 0.3961 3.2533 1.0566 6.7229-0.371 8.3252-3.2851 0.2264-0.4118 0.4141-0.8492 0.5587-1.3088 0.1799-0.5738 0.2824-1.1535 0.3134-1.7279 0.0397-0.427 0.0812-0.9549 0.0972-1.5127 0.1498-0.3108 1.4798-3.0691 2.2062-4.5757 0.4099-0.8499 0.7113-1.5139 0.7252-1.6141 0.1474-0.3527 0.2567-0.7098 0.3306-1.0679 0.2411-0.5309 0.3945-1.0752 0.4716-1.6188 7.5589-1.7241 15.519-7.1079 22.28-14.41 0.1337-0.1444 0.2569-0.2951 0.37-0.4476 0.1546-0.2083 0.2198-0.4708 0.1793-0.728-0.0075-0.049-0.0188-0.097-0.0337-0.1439-0.0628-0.198-0.1874-0.3715-0.3567-0.4942-0.0327-0.0237-0.0667-0.0453-0.1019-0.0646-0.1499-0.106-0.3319-0.1597-0.5173-0.151m-10.536 3e-4m-50.94 0.0017c-0.066221-0.0033-0.13163 0.0086-0.18964 0.0332-0.19593 0.0123-0.38365 0.091-0.53106 0.2246-0.19459 0.1768-0.31034 0.4215-0.32543 0.6807-0.006057 0.0578 0.00624 0.1176 0.037439 0.1675 0.00127 0.2087 0.079914 0.4106 0.22158 0.5659 4.4706 4.9104 9.5885 8.5053 14.677 10.517 0.9954 1.0286 2.1161 2.0928 3.2288 2.5168 0.2237 0.0854 0.4706 0.0826 0.6898-0.0067 0.1522-0.0455 0.2909-0.1315 0.4002-0.2479 0.086-0.0927 0.1547-0.2021 0.201-0.3235 0.0866-0.2268 0.0837-0.477-0.0066-0.6992-0.042-0.1383-0.1191-0.2653-0.223-0.3667-0.0979-0.0975-0.2161-0.1747-0.3485-0.2251-4.8786-1.8592-9.8929-5.3166-14.274-10.112-0.98557-0.409-1.9944-1.442-2.8787-2.4129-0.14776-0.1534-0.34842-0.2452-0.56121-0.2563-0.030593-0.0334-0.073203-0.0534-0.1185-0.0555z" color="#000000" stop-color="#000000" style="-inkscape-stroke:none;font-variation-settings:normal;paint-order:normal"/>
		<path d="m61.953 18c-0.2577 0.012-0.5004 0.1231-0.6778 0.3096-0.0061 0.0064-0.0121 0.0128-0.0181 0.0194-6.6379 7.2914-14.495 12.486-21.696 14.069-0.1976-0.3275-0.4288-0.6468-0.6899-0.9532-0.823-1.3872-2.1345-2.5236-3.7093-3.1207-0.3438-0.1302-0.6957-0.2333-1.0522-0.3094-3.3972-0.7252-7.1428 1.0211-8.0269 4.5178-0.0608 0.2419-0.0383 0.485 0.0472 0.696 0.1024 0.2551 0.3134 0.4622 0.5906 0.5532 0.2131 0.07 0.4345 0.0643 0.635-0.0057 0.2771-0.0966 0.5042-0.3182 0.6-0.6141 0.0622-0.1915 0.132-0.3831 0.2045-0.572 0.8584-2.2348 3.7048-3.2936 6.1428-2.458 0.109 0.0374 0.2166 0.0783 0.3224 0.1226 1.1909 0.4989 2.1482 1.4209 2.6935 2.501-0.0036 1e-3 -0.0073 0.0022-0.0109 0.0033-0.0505 0.0147-0.1 0.0347-0.1478 0.0596-0.0044 0.0013-0.0089 0.0027-0.0133 0.0041-0.1868 0.0567-0.3529 0.1671-0.4776 0.3181-0.1691 0.2045-0.2505 0.4685-0.2244 0.7343 0.0049 0.0506 0.0137 0.1006 0.0262 0.1496 0.0527 0.2076 0.1709 0.3925 0.337 0.5276 0.2059 0.1675 0.4707 0.2471 0.7367 0.2188 0.0329-0.0035 0.0659-0.0078 0.099-0.0124 0.0514-0.0073 0.1029-0.0151 0.1544-0.022 0.0044 0.0254 0.0086 0.0508 0.0125 0.0762-0.0066 0.5452-0.1193 1.0904-0.3688 1.6094-7e-4 0.0014-0.0052 0.0108-0.0134 0.0277-0.1366 0.2832-1.746 3.6201-2.0179 4.1837-0.0346 0.0597-0.0552 0.0904-0.0585 0.085-0.7724-1.302-1.968-2.3621-3.4808-2.9578-0.0925-0.0364-0.186-0.071-0.2806-0.1038-3.4901-1.2109-7.2656 0.4572-8.7456 3.7752-0.0909 0.2038-0.1729 0.4132-0.2455 0.6277-1.1409 3.3704 0.3959 6.9958 3.5021 8.5522 0.3099 0.1553 0.6337 0.2894 0.9701 0.4004 3.2487 1.0727 6.7208-0.3369 8.3394-3.2345 0.2287-0.4095 0.4192-0.8453 0.567-1.3043 0.1837-0.5723 0.2902-1.1509 0.3254-1.7245 0.0411-0.4436 0.073-0.9687 0.0741-1.516 0.1217-0.2524 1.4491-3.0054 2.2038-4.5706 0.415-0.8608 0.7215-1.5279 0.7328-1.6092 0.151-0.3514 0.264-0.7073 0.3416-1.0644 0.2266-0.5467 0.3618-1.1053 0.4178-1.6617 7.5722-1.6942 15.551-6.9703 22.328-14.284 0.1333-0.1439 0.2581-0.2932 0.3746-0.4441 0.1591-0.206 0.2297-0.4679 0.1945-0.7267-0.0066-0.0492-0.0169-0.0977-0.0309-0.145-0.0588-0.1999-0.1802-0.3766-0.3475-0.5034-0.0323-0.0245-0.066-0.0469-0.1009-0.067-0.1558-0.1101-0.3448-0.166-0.5374-0.1569m-8.5567 3e-4m-52.92 0.0017c-0.059806-0.0029-0.11894 0.0067-0.17203 0.0269-0.2025 0.0121-0.39651 0.093-0.54867 0.2309-0.19496 0.1771-0.31104 0.4227-0.32562 0.6831-0.005052 0.0497 0.004866 0.1011 0.030198 0.1444 9.4e-4 0.2164 0.08225 0.4257 0.22902 0.5866 4.6377 5.0939 9.9477 8.8212 15.228 10.904 0.8271 0.8427 1.7561 1.7142 2.6785 2.0657 0.2282 0.0871 0.4805 0.0834 0.7039-0.0095 0.1475-0.0476 0.2812-0.1329 0.3872-0.2463 0.0855-0.0925 0.1539-0.2015 0.1999-0.3223 0.0881-0.2308 0.0843-0.4857-0.0094-0.7116-0.0434-0.133-0.1189-0.2548-0.2189-0.353-0.0982-0.0981-0.2169-0.1758-0.3498-0.2264-5.0628-1.9295-10.267-5.5191-14.812-10.499-0.80151-0.3334-1.6219-1.1735-2.3412-1.9632-0.15325-0.1591-0.36146-0.2542-0.58228-0.2654-0.024846-0.0272-0.05945-0.0434-0.096235-0.0451z" color="#000000" stop-color="#000000" style="-inkscape-stroke:none;font-variation-settings:normal;paint-order:normal"/>
		<path d="m61.953 18c-0.2574 0.012-0.4999 0.1229-0.6773 0.309-0.0061 0.0064-0.0121 0.0128-0.018 0.0194-6.6502 7.3049-14.524 12.396-21.737 13.958-0.1891-0.3441-0.4131-0.6787-0.6681-0.9991-0.8305-1.3815-2.1462-2.5103-3.7228-3.0992-0.3443-0.1286-0.6965-0.2298-1.0529-0.3041-3.3965-0.7082-7.1301 1.0474-8.0012 4.5481-0.06 0.2424-0.0341 0.4857 0.0564 0.6955 0.1086 0.2534 0.3244 0.457 0.6052 0.5432 0.2157 0.0662 0.438 0.0556 0.6374-0.0188 0.2755-0.1028 0.4992-0.329 0.5901-0.6283 0.0589-0.1936 0.1271-0.3855 0.2003-0.5735 0.8683-2.2261 3.7134-3.2772 6.1475-2.4371 0.1089 0.0376 0.2162 0.0787 0.3218 0.1232 1.1886 0.5008 2.1435 1.4232 2.6868 2.5028-0.0038 9e-4 -0.0077 0.0021-0.0115 0.0031-0.0534 0.0131-0.1058 0.0318-0.1563 0.0555-0.0044 0.0013-0.0089 0.0027-0.0133 0.0041-0.186 0.0578-0.3515 0.1691-0.4754 0.3209-0.1679 0.2054-0.2477 0.4697-0.2203 0.7349 0.0052 0.0506 0.0142 0.1005 0.0269 0.1494 0.0536 0.2068 0.1723 0.3911 0.3391 0.5257 0.2065 0.1666 0.4714 0.245 0.7368 0.2159 0.0329-0.0036 0.0659-0.0079 0.0989-0.0126 0.0514-0.0073 0.1028-0.0151 0.1542-0.0219 0.0035 0.0264 0.0067 0.0528 0.0097 0.0793-0.0069 0.5446-0.1198 1.0892-0.3693 1.6076-4e-4 1e-3 -5e-3 0.0105-0.0133 0.0276-0.1414 0.2932-1.7342 3.5957-2.0157 4.1793-0.035 0.0631-0.0556 0.0963-0.0582 0.0921-0.7708-1.3012-1.9642-2.3613-3.4744-2.9581-0.0923-0.0365-0.1857-0.0712-0.2802-0.1042-3.4861-1.2145-7.2593 0.4449-8.7467 3.7533-0.0914 0.2033-0.174 0.4122-0.2472 0.6264-1.1506 3.3662 0.3732 6.9916 3.4668 8.5598 0.3086 0.1565 0.6315 0.2919 0.9674 0.4046 3.2444 1.0878 6.7188-0.3048 8.353-3.1868 0.2308-0.4072 0.424-0.8416 0.5748-1.2999 0.1873-0.571 0.2976-1.1485 0.3366-1.7214 0.0427-0.4593 0.0654-0.9816 0.0524-1.5191 0.095-0.1971 1.42-2.9451 2.2014-4.5657 0.4201-0.8711 0.7312-1.5411 0.7401-1.6047 0.1544-0.3501 0.2709-0.7048 0.3521-1.0611 0.2127-0.5615 0.3308-1.1338 0.3667-1.7023 7.5849-1.6658 15.582-6.8399 22.372-14.164 0.133-0.1435 0.2593-0.2914 0.3789-0.4408 0.1635-0.2039 0.2391-0.4652 0.2089-0.7254-0.0057-0.0496-0.0151-0.0984-0.0282-0.1462-0.0551-0.2016-0.1734-0.3814-0.3389-0.512-0.0319-0.0253-0.0653-0.0484-0.0998-0.0693-0.1614-0.1141-0.357-0.1719-0.5565-0.1625m-6.6824 2e-4m-54.794 0.0018c-0.053733-0.0026-0.10692 0.0049-0.15535 0.021-0.20872 0.0118-0.40868 0.0948-0.56535 0.2368-0.19531 0.1774-0.31169 0.4239-0.32581 0.6853-0.0041 0.0422 0.003565 0.0855 0.023342 0.1227 6.28e-4 0.2236 0.084462 0.4399 0.23606 0.6061 4.7959 5.2677 10.288 9.1202 15.749 11.27 0.6679 0.6667 1.4152 1.3558 2.1575 1.6386 0.2325 0.0888 0.4898 0.0842 0.7174-0.0121 0.1429-0.0496 0.2719-0.1342 0.3748-0.2448 0.0851-0.0923 0.153-0.2009 0.1988-0.3212 0.0895-0.2345 0.0849-0.4938-0.0121-0.7234-0.0447-0.128-0.1186-0.2448-0.2149-0.34-0.0985-0.0987-0.2177-0.1768-0.3511-0.2276-5.2373-1.9959-10.621-5.7107-15.322-10.865-0.62724-0.2618-1.2692-0.9193-1.8324-1.5374-0.15846-0.1645-0.37383-0.2627-0.60224-0.2741-0.019404-0.0212-0.046428-0.0339-0.075156-0.0352z" color="#000000" stop-color="#000000" style="-inkscape-stroke:none;font-variation-settings:normal;paint-order:normal"/>
		<path d="m61.953 18c-0.2571 0.012-0.4994 0.1226-0.6767 0.3084-0.0061 0.0064-0.0122 0.0128-0.0181 0.0194-6.6619 7.3177-14.552 12.31-21.775 13.852-0.181-0.3598-0.3981-0.709-0.6473-1.0427-0.8377-1.3761-2.1573-2.4977-3.7357-3.0789-0.3448-0.1269-0.6971-0.2264-1.0535-0.299-3.396-0.6919-7.118 1.0726-7.9768 4.577-0.0592 0.2428-0.0301 0.4864 0.0652 0.6951 0.1144 0.2517 0.3347 0.4521 0.6189 0.5335 0.2184 0.0627 0.4416 0.0474 0.6399-0.0312 0.2739-0.1085 0.4944-0.3392 0.5806-0.6417 0.0558-0.1956 0.1224-0.3878 0.1964-0.575 0.8776-2.2179 3.7215-3.2615 6.1519-2.4172 0.1088 0.0378 0.2159 0.0791 0.3213 0.1237 1.1863 0.5026 2.1389 1.4254 2.6803 2.5047-4e-3 8e-4 -8e-3 0.0019-0.0121 0.0027-0.0562 0.0117-0.1112 0.0291-0.1643 0.0516-0.0045 0.0014-0.0089 0.0028-0.0133 0.0042-0.1853 0.0589-0.3501 0.171-0.4733 0.3234-0.1667 0.2064-0.245 0.471-0.2164 0.7357 0.0054 0.0506 0.0147 0.1004 0.0276 0.1491 0.0544 0.2061 0.1737 0.3899 0.341 0.5239 0.2071 0.1658 0.4721 0.2431 0.737 0.2132 0.0329-0.0037 0.0658-0.0081 0.0987-0.0128 0.0513-0.0073 0.1027-0.0151 0.1541-0.0219 0.0026 0.0274 0.0049 0.0549 7e-3 0.0824-0.0073 0.544-0.1204 1.0879-0.3697 1.6057-3e-4 8e-4 -0.0049 0.0102-0.0133 0.0276-0.146 0.3028-1.723 3.5725-2.0137 4.1751-0.0354 0.0665-0.0559 0.102-0.0578 0.0989-0.7693-1.3005-1.9606-2.3605-3.4683-2.9585-0.0922-0.0365-0.1855-0.0713-0.2798-0.1044-3.4823-1.2181-7.2534 0.4332-8.7479 3.7325-0.0918 0.2027-0.1749 0.4112-0.2487 0.6251-1.1598 3.3621 0.3517 6.9876 3.4332 8.5669 0.3074 0.1576 0.6294 0.2944 0.9649 0.4085 3.2402 1.1024 6.7168-0.2741 8.3658-3.1412 0.2329-0.4051 0.4287-0.8381 0.5823-1.2958 0.1908-0.5698 0.3046-1.1462 0.3474-1.7185 0.044-0.4742 0.058-0.9939 0.0316-1.522 0.0697-0.1445 1.3924-2.8877 2.1992-4.561 0.4248-0.8809 0.7405-1.5538 0.747-1.6003 0.1577-0.349 0.2775-0.7027 0.362-1.058 0.1996-0.5757 0.3014-1.161 0.3182-1.741 7.5969-1.6388 15.611-6.7159 22.415-14.051 0.1328-0.1431 0.2604-0.2897 0.3831-0.4376 0.1676-0.2018 0.248-0.4626 0.2225-0.7242-0.0047-0.0499-0.0133-0.0991-0.0255-0.1472-0.0516-0.2034-0.1669-0.3861-0.3307-0.5204-0.0316-0.026-0.0646-0.0498-0.0989-0.0715-0.1666-0.1177-0.3687-0.1774-0.5746-0.1677m-4.8997 2e-4m-56.577 0.0018c-0.047956-0.0024-0.095492 0.0031-0.13949 0.0154-0.21464 0.0115-0.42026 0.0965-0.58122 0.2424-0.19565 0.1778-0.31231 0.425-0.32599 0.6874-0.003195 0.035 0.002328 0.0708 0.016822 0.102 3.31e-4 0.2305 0.086565 0.4534 0.24276 0.6247 4.9463 5.4329 10.611 9.4047 16.244 11.618 0.5164 0.4993 1.0911 1.0148 1.662 1.2323 0.2366 0.0903 0.4987 0.0849 0.7302-0.0146 0.1385-0.0515 0.2631-0.1354 0.363-0.2434 0.0847-0.0921 0.1522-0.2004 0.1978-0.3201 0.0909-0.2381 0.0854-0.5017-0.0146-0.7345-0.0459-0.1233-0.1184-0.2354-0.2112-0.3277-0.0988-0.0993-0.2185-0.1778-0.3523-0.2288-5.4032-2.0592-10.957-5.893-15.807-11.213-0.46149-0.1937-0.93382-0.6775-1.3483-1.1323-0.16341-0.1697-0.38558-0.2709-0.62122-0.2824-0.014227-0.0156-0.034042-0.0248-0.055106-0.0258z" color="#000000" stop-color="#000000" style="-inkscape-stroke:none;font-variation-settings:normal;paint-order:normal"/>
		<path d="m61.953 18c-0.2569 0.012-0.499 0.1224-0.6762 0.3079-0.0061 0.0063-0.0121 0.0128-0.0181 0.0193-6.6731 7.33-14.578 12.229-21.812 13.752-0.1732-0.3747-0.3838-0.738-0.6274-1.0844-0.8446-1.3708-2.168-2.4856-3.7481-3.0594-0.3451-0.1253-0.6977-0.2232-1.054-0.2941-3.3955-0.6764-7.1065 1.0965-7.9535 4.6044-0.0584 0.2433-0.0264 0.4871 0.0736 0.6947 0.12 0.2501 0.3446 0.4474 0.6321 0.5244 0.2208 0.0592 0.4449 0.0395 0.6421-0.0431 0.2724-0.1141 0.4899-0.3489 0.5716-0.6546 0.0528-0.1974 0.1179-0.3899 0.1926-0.5763 0.8865-2.2101 3.7293-3.2466 6.1562-2.3982 0.1086 0.038 0.2156 0.0795 0.3207 0.1242 1.1842 0.5044 2.1346 1.4275 2.6742 2.5064-0.0041 7e-4 -0.0084 0.0017-0.0126 0.0025-0.0588 0.0103-0.1164 0.0264-0.1721 0.0479-0.0044 0.0013-0.0088 0.0028-0.0132 0.0042-0.1846 0.0599-0.3488 0.1727-0.4713 0.3259-0.1657 0.2072-0.2425 0.472-0.2127 0.7363 0.0056 0.0505 0.0151 0.1003 0.0282 0.1489 0.0553 0.2054 0.175 0.3887 0.3428 0.5221 0.2077 0.1651 0.4729 0.2412 0.7373 0.2107 0.0328-0.0038 0.0656-0.0083 0.0985-0.013 0.0513-0.0073 0.1026-0.0151 0.1539-0.0219 0.0018 0.0284 0.0033 0.0568 0.0045 0.0852-0.0076 0.5435-0.1208 1.0868-0.37 1.604-3e-4 5e-4 -0.0048 0.01-0.0133 0.0276-0.1504 0.3119-1.7124 3.5504-2.0118 4.1711-0.0358 0.0696-0.0562 0.1074-0.0574 0.1054-0.768-1.2998-1.9573-2.3597-3.4626-2.9588-0.092-0.0367-0.1852-0.0715-0.2794-0.1046-3.4787-1.2216-7.2477 0.4219-8.749 3.7126-0.0922 0.2021-0.1758 0.4101-0.2501 0.6239-1.1687 3.3581 0.3311 6.9837 3.401 8.5737 0.3063 0.1586 0.6275 0.2967 0.9626 0.4122 3.2363 1.1162 6.715-0.2449 8.378-3.0978 0.2349-0.4031 0.4332-0.8347 0.5894-1.2919 0.1941-0.5685 0.3114-1.1439 0.3577-1.7156 0.0453-0.4884 0.051-1.0057 0.0118-1.5247 0.0455-0.0943 1.366-2.833 2.1971-4.5567 0.4293-0.8902 0.7493-1.5658 0.7535-1.5962 0.1609-0.3477 0.2838-0.7004 0.3716-1.0549 0.187-0.5892 0.2732-1.1869 0.2718-1.7779 7.6084-1.6131 15.638-6.5975 22.455-13.943 0.1325-0.1428 0.2615-0.2881 0.387-0.4346 0.1716-0.1999 0.2566-0.4602 0.2356-0.723-0.0039-0.0502-0.0117-0.0998-0.0231-0.1483-0.0482-0.2049-0.1607-0.3904-0.3228-0.5282-0.0313-0.0267-0.064-0.0513-0.098-0.0736-0.1716-0.1213-0.3798-0.1828-0.5919-0.1728m-3.1974 1e-4m-58.279 0.0019c-0.04244-0.0021-0.084578 0.0015-0.12434 0.01-0.22028 0.0112-0.43131 0.0982-0.59636 0.2478-0.19596 0.178-0.3129 0.426-0.32616 0.6895-0.00233 0.028 0.001148 0.0565 0.010596 0.0821 4.8e-5 0.2371 0.088574 0.4664 0.24916 0.6425 5.09 5.5907 10.92 9.6763 16.717 11.951 0.3717 0.3394 0.7815 0.6892 1.1888 0.8445 0.2405 0.0918 0.5072 0.0855 0.7424-0.0171 0.1344-0.0534 0.2547-0.1365 0.3517-0.242 0.0843-0.092 0.1515-0.1999 0.1969-0.3191 0.0922-0.2414 0.0859-0.5091-0.017-0.7452-0.0471-0.1187-0.1182-0.2264-0.2076-0.3158-0.0991-0.0999-0.2192-0.1788-0.3535-0.23-5.5616-2.1195-11.279-6.0671-16.271-11.545-0.30322-0.1287-0.61354-0.4466-0.88616-0.7456-0.16814-0.1746-0.3968-0.2786-0.63935-0.2903-0.009284-0.0101-0.022215-0.0162-0.035961-0.0168z" color="#000000" stop-color="#000000" style="-inkscape-stroke:none;font-variation-settings:normal;paint-order:normal"/>
		<path d="m61.953 18c-0.2567 0.012-0.4985 0.1222-0.6758 0.3074-0.0061 0.0063-0.0121 0.0128-0.018 0.0193-6.6838 7.3418-14.603 12.151-21.847 13.655-0.1659-0.3891-0.3702-0.7658-0.6085-1.1243-0.8511-1.3659-2.1782-2.4741-3.7598-3.0408-0.3456-0.1238-0.6983-0.2201-1.0546-0.2895-3.3949-0.6615-7.0955 1.1195-7.9311 4.6308-0.0578 0.2438-0.0228 0.4877 0.0815 0.6943 0.1254 0.2486 0.3542 0.4429 0.6447 0.5157 0.2233 0.0559 0.4481 0.0319 0.6443-0.0545 0.271-0.1194 0.4856-0.3583 0.5631-0.6669 0.0499-0.1993 0.1136-0.3921 0.189-0.5776 0.895-2.2026 3.7367-3.2323 6.1602-2.38 0.1085 0.0381 0.2152 0.0797 0.3202 0.1247 1.1822 0.5059 2.1304 1.4294 2.6683 2.508-0.0043 6e-4 -0.0087 0.0015-0.0131 0.0022-0.0614 9e-3 -0.1215 0.0239-0.1795 0.0443-0.0044 0.0014-0.0088 0.0028-0.0132 0.0043-0.184 0.0609-0.3475 0.1744-0.4693 0.3283-0.1648 0.208-0.2402 0.4731-0.2093 0.7369 0.0059 0.0505 0.0156 0.1001 0.0289 0.1486 0.056 0.2048 0.1762 0.3876 0.3446 0.5205 0.2083 0.1644 0.4735 0.2395 0.7374 0.2082 0.0328-0.0039 0.0656-0.0084 0.0984-0.0131 0.0513-0.0074 0.1026-0.0152 0.1538-0.022 1e-3 0.0294 0.0016 0.0587 2e-3 0.088-8e-3 0.543-0.1213 1.0857-0.3704 1.6024-1e-4 2e-4 -0.0047 0.0097-0.0133 0.0275-0.1546 0.3206-1.7021 3.5292-2.0099 4.1673-0.0361 0.0727-0.0565 0.1125-0.0571 0.1116-0.7666-1.2992-1.954-2.359-3.457-2.9591-0.0919-0.0367-0.1849-0.0717-0.2791-0.1049-3.4752-1.2248-7.2422 0.4112-8.75 3.6936-0.0926 0.2016-0.1766 0.4092-0.2515 0.6227-1.1771 3.3544 0.3114 6.98 3.3703 8.5802 0.3052 0.1597 0.6256 0.299 0.9602 0.4159 3.2326 1.1294 6.7133-0.2169 8.3898-3.0563 0.2368-0.4011 0.4374-0.8314 0.5963-1.288 0.1972-0.5674 0.3177-1.1419 0.3674-1.7129 0.0467-0.5021 0.0444-1.017-0.0071-1.5274 0.0223-0.0462 1.3407-2.7805 2.1951-4.5525 0.4336-0.8992 0.7577-1.5772 0.7598-1.5921 0.1638-0.3467 0.2899-0.6984 0.3807-1.0521 0.175-0.6022 0.2462-1.2118 0.2274-1.8132 7.6194-1.5885 15.665-6.4841 22.494-13.839 0.1321-0.1423 0.2624-0.2864 0.3908-0.4316 0.1753-0.198 0.2647-0.4578 0.248-0.7219-0.0031-0.0505-0.0101-0.1004-0.0207-0.1493-0.045-0.2065-0.1548-0.3946-0.3153-0.5358-0.0309-0.0273-0.0634-0.0525-0.0972-0.0756-0.1764-0.1247-0.3903-0.1879-0.6084-0.1776m-1.5667 1e-4m-59.91 0.0019c-0.037156-0.0018-0.074122-1e-4 -0.10983 0.0048-0.2257 0.0111-0.4419 0.0999-0.61087 0.253-0.19627 0.1783-0.31347 0.427-0.32632 0.6914-0.001501 0.0214 1.6e-5 0.043 0.004631 0.0632-2.23e-4 0.2434 0.090499 0.4788 0.25528 0.6595 5.2276 5.7419 11.216 9.9365 17.171 12.269 0.2332 0.1863 0.4849 0.3774 0.7355 0.4729 0.2443 0.0932 0.5153 0.0862 0.7541-0.0194 0.1305-0.0551 0.2466-0.1376 0.341-0.2406 0.0839-0.0919 0.1507-0.1995 0.1959-0.3181 0.0934-0.2447 0.0864-0.5163-0.0194-0.7555-0.0482-0.1143-0.1179-0.2177-0.2041-0.3045-0.0994-0.1005-0.2199-0.1797-0.3546-0.231-5.7134-2.1774-11.586-6.2339-16.714-11.864-0.1516-0.0663-0.30671-0.2254-0.44339-0.3751-0.17267-0.1792-0.40756-0.286-0.65672-0.2978-0.004549-5e-3 -0.010885-0.0079-0.017621-0.0082z" color="#000000" stop-color="#000000" style="-inkscape-stroke:none;font-variation-settings:normal;paint-order:normal"/>
		<path d="m61.953 18c-0.2564 0.0119-0.4981 0.122-0.6753 0.3069-0.0061 0.0063-0.0121 0.0127-0.018 0.0193-6.6941 7.353-14.628 12.076-21.881 13.562-0.1588-0.403-0.357-0.7924-0.5902-1.1627-0.8574-1.3611-2.188-2.463-3.7711-3.0229-0.346-0.1224-0.699-0.2171-1.0552-0.285-3.3944-0.6472-7.0849 1.1415-7.9097 4.6561-0.057 0.2442-0.0193 0.4884 0.0893 0.694 0.1305 0.2471 0.3633 0.4386 0.6568 0.5072 0.2256 0.0528 0.4512 0.0247 0.6464-0.0654 0.2697-0.1245 0.4813-0.3673 0.5548-0.6788 0.0472-0.2009 0.1095-0.394 0.1855-0.5788 0.9032-2.1954 3.7438-3.2186 6.1641-2.3626 0.1084 0.0384 0.215 0.0801 0.3198 0.1252 1.1801 0.5076 2.1264 1.4314 2.6626 2.5096-0.0045 6e-4 -0.0091 0.0014-0.0136 2e-3 -0.0638 0.0077-0.1263 0.0215-0.1866 0.0409-0.0044 0.0014-0.0088 0.0028-0.0132 0.0043-0.1833 0.0618-0.3463 0.176-0.4675 0.3305-0.1637 0.2088-0.2378 0.4742-0.2058 0.7376 0.0061 0.0504 0.016 0.1 0.0294 0.1483 0.0568 0.2042 0.1775 0.3865 0.3463 0.5189 0.2088 0.1638 0.4742 0.2378 0.7376 0.2058 0.0327-0.0039 0.0655-0.0085 0.0984-0.0132 0.0511-0.0074 0.1024-0.0152 0.1535-0.0219 2e-4 0.0302 1e-4 0.0604-3e-4 0.0906-0.0083 0.5424-0.1218 1.0846-0.3707 1.6008 0 0-0.0046 0.0095-0.0133 0.0275-0.1587 0.329-1.6924 3.5087-2.0082 4.1635-0.0364 0.0756-0.0567 0.1176-0.0567 0.1176-0.7654-1.2985-1.9509-2.3582-3.4517-2.9594-0.0917-0.0368-0.1846-0.0718-0.2787-0.1051-3.4719-1.2279-7.237 0.401-8.7511 3.6753-0.0929 0.2011-0.1774 0.4084-0.2528 0.6216-1.1852 3.3509 0.2925 6.9765 3.3408 8.5865 0.3041 0.1606 0.6238 0.3011 0.958 0.4194 3.2289 1.142 6.7116-0.1901 8.401-3.0164 0.2387-0.3992 0.4416-0.8283 0.6029-1.2844 0.2002-0.5662 0.3239-1.1398 0.3769-1.7102 0.0478-0.5153 0.0379-1.0279-0.0253-1.5301 0 0 1.3163-2.7301 2.1931-4.5483 0.4377-0.9078 0.7658-1.5884 0.7658-1.5884 0.1667-0.3456 0.2957-0.6964 0.3895-1.0493 0.1634-0.6146 0.2203-1.2356 0.1848-1.8472 7.6299-1.5647 15.69-6.3751 22.531-13.739 0.1319-0.142 0.2634-0.285 0.3944-0.4289 0.179-0.1962 0.2726-0.4556 0.2601-0.7209-0.0024-0.0507-0.0086-0.1009-0.0185-0.1502-0.0418-0.2079-0.149-0.3986-0.308-0.543-0.0306-0.028-0.0628-0.0538-0.0964-0.0775-0.181-0.128-0.4005-0.1929-0.6243-0.1823m-61.477 2e-3c-0.032079-0.0016-0.064076-0.0016-0.095889-1e-4 -0.2309 0.0108-0.45208 0.1014-0.62481 0.2579-0.19656 0.1786-0.31402 0.428-0.32648 0.6933-7.05e-4 0.015-0.001071 0.03-0.0011 0.045-4.84e-4 0.2494 0.092347 0.4907 0.26117 0.6758 5.3598 5.8871 11.501 10.186 17.606 12.576 0.0999 0.0391 0.1999 0.0777 0.2999 0.1158 0.2479 0.0946 0.5232 0.0869 0.7653-0.0216 0.1267-0.0567 0.2389-0.1386 0.3307-0.2393 0.0835-0.0917 0.15-0.199 0.195-0.3172 0.0946-0.2478 0.0869-0.5231-0.0216-0.7653-0.0493-0.1102-0.1177-0.2094-0.2009-0.2937-0.0996-0.1009-0.2205-0.1805-0.3556-0.232-5.8592-2.2329-11.882-6.3941-17.141-12.17-0.00593-0.0065-0.01193-0.0129-0.01801-0.0192-0.17702-0.1837-0.41789-0.2931-0.6734-0.305z" color="#000000" stop-color="#000000" style="-inkscape-stroke:none;font-variation-settings:normal;paint-order:normal"/>
	</g>
</svg>
