<?xml version="1.0" encoding="UTF-8"?>
<!-- Created with Inkscape (http://www.inkscape.org/) -->
<svg width="64" height="64" version="1.1" xmlns="http://www.w3.org/2000/svg" xmlns:cc="http://creativecommons.org/ns#" xmlns:dc="http://purl.org/dc/elements/1.1/" xmlns:rdf="http://www.w3.org/1999/02/22-rdf-syntax-ns#">
	<defs>
		<radialGradient id="e" cx="33.466" cy="2.1992" r="30.5" gradientTransform="matrix(-1.0283 0 0 -.55738 67.779 1.2258)" gradientUnits="userSpaceOnUse">
			<stop stop-color="#668cbb" offset="0"/>
			<stop stop-color="#668cbb" offset="1"/>
		</radialGradient>
		<linearGradient id="g" x1="61" x2="60" y1="17" gradientTransform="translate(-.88255)" gradientUnits="userSpaceOnUse">
			<stop stop-color="#3e4d60" stop-opacity=".72157" offset="0"/>
			<stop stop-color="#393b49" stop-opacity=".2656" offset="1"/>
		</linearGradient>
		<linearGradient id="b" x1="62.381" x2="62.381" y1="63.314" y2="23.077" gradientUnits="userSpaceOnUse">
			<stop stop-color="#000828" stop-opacity=".35976" offset="0"/>
			<stop stop-color="#000828" stop-opacity=".12715" offset="1"/>
		</linearGradient>
		<linearGradient id="d" x1="53" x2="53" y1="17" y2="15" gradientUnits="userSpaceOnUse">
			<stop stop-color="#dad8ce" offset="0"/>
			<stop stop-color="#ebebeb" offset="1"/>
		</linearGradient>
		<linearGradient id="f" x1="32.559" x2="33.542" y1="15.559" y2="14.542" gradientUnits="userSpaceOnUse">
			<stop stop-color="#37321c" stop-opacity=".15675" offset="0"/>
			<stop stop-color="#6d5524" stop-opacity="0" offset="1"/>
		</linearGradient>
		<radialGradient id="c" cx="30.107" cy="50.318" r="30.5" gradientTransform="matrix(2.7541,-1.4218e-7,8.3652e-8,2.7869,-52.917,-93.23)" gradientUnits="userSpaceOnUse">
			<stop stop-color="#9e1423" stop-opacity=".12917" offset="0"/>
			<stop stop-color="#f4405b" stop-opacity=".023222" offset=".54"/>
			<stop stop-color="#f43f6d" stop-opacity=".169" offset="1"/>
		</radialGradient>
		<linearGradient id="h" x1="-5" x2="-5" y1="64" y2="14" gradientTransform="translate(.88908)" gradientUnits="userSpaceOnUse">
			<stop stop-color="#f43f66" stop-opacity=".018868" offset="0"/>
			<stop stop-color="#f4ae3f" stop-opacity=".47025" offset="1"/>
		</linearGradient>
		<linearGradient id="a" x1="4.5255" x2="4.5255" y1="64" y2="61.09" gradientUnits="userSpaceOnUse">
			<stop stop-color="#e50d4c" stop-opacity=".47868" offset="0"/>
			<stop stop-color="#e50d4c" stop-opacity="0" offset="1"/>
		</linearGradient>
	</defs>
	<metadata>
		<rdf:RDF>
			<cc:Work rdf:about="">
				<dc:format>image/svg+xml</dc:format>
				<dc:type rdf:resource="http://purl.org/dc/dcmitype/StillImage"/>
			</cc:Work>
		</rdf:RDF>
	</metadata>
	<g>
		<g>
			<path d="m38 0c-1 0-1.5103 0.51027-2 1l-3 3c-0.53814 0.53814-1 1-2 1h-28c-0.52243 0-1 0.43922-1 1l-0.76511 58h61.543c1 0 1.2218-1 1.2218-2v-61c0-0.51973-0.5-1-1-1z" color="#000000" fill="url(#e)"/>
			<path d="m38 0c-1 0-1.5103 0.51027-2 1l-3 3c-0.53814 0.53814-1 1-2 1h-28c-0.52243 0-1 0.43922-1 1l-0.76511 58h61.543c1 0 1.2218-1 1.2218-2v-61c0-0.51973-0.5-1-1-1z" color="#000000" fill="url(#g)"/>
			<path d="m38 0c-1 0-1.5103 0.51027-2 1l-3 3c-0.53814 0.53814-1 1-2 1h-28c-0.52243 0-1 0.43922-1 1l-0.76562 58h0.00586l0.75976-57.5c0-0.56078 0.47757-1 1-1h28c1 0 1.4619-0.46186 2-1l3-3c0.48973-0.48973 1-1 2-1h25c0.5 0 1 0.48027 1 1v-0.5c0-0.51973-0.5-1-1-1z" color="#000000" fill="#b3ffff" fill-opacity=".19073"/>
			<path d="m61 13v51h1.7773c0.09408 0 0.17509-0.01633 0.25586-0.0332l0.8125-0.8125c0.11225-0.34056 0.1543-0.74535 0.1543-1.1543v-46l-3-3z" fill="url(#b)"/>
			<path d="m63.5 0.15532v61.845c0 0.52439-0.13604 1.5011-0.72184 1.5v0.5c1 0 1.2218-1 1.2218-2v-61c0-0.39808-0.24002-0.69459-0.5-0.84468z" fill="#0f1f33" fill-opacity=".14136" style="paint-order:normal"/>
		</g>
		<g>
			<path d="m7 13h54v31h-54z" fill="url(#d)"/>
			<path d="m30 13 4 4h2l-4-4z" color="#000000" fill="url(#f)"/>
		</g>
		<path d="m62.778 63.5c-0.58579-0.0011-0.77816-0.9402-0.77816-1.5v-44c0-0.57647-0.4549-1-1-1h-26c-1 0-1.3759-0.3759-2-1l-3-3c-0.46442-0.46442-1-1-2-1h-27c-0.52342 0-1 0.4716-1 1 0.0044097 9.6802 0.0035924 21.791 0.002195 32.011-9.6046e-4 7.024-0.002195 13.155-0.002195 16.989 0 1 0.23489 2 1.2349 2h61.543z" color="#000000" fill="#f4ae3f"/>
		<path d="m62.778 63.5c-0.58579-0.0011-0.77816-0.9402-0.77816-1.5v-44c0-0.57647-0.4549-1-1-1h-26c-1 0-1.3759-0.3759-2-1l-3-3c-0.46442-0.46442-1-1-2-1h-27c-0.52342 0-1 0.4716-1 1 0.0044097 9.6802 0.0035924 21.791 0.002195 32.011-9.6046e-4 7.024-0.002195 13.155-0.002195 16.989 0 1 0.23489 2 1.2349 2h61.543z" color="#000000" fill="#f4ae3f"/>
		<path d="m62.778 63.5c-0.58579-0.0011-0.77816-0.9402-0.77816-1.5v-44c0-0.57647-0.4549-1-1-1h-26c-1 0-1.3759-0.3759-2-1l-3-3c-0.46442-0.46442-1-1-2-1h-27c-0.52342 0-1 0.4716-1 1 0.0044097 9.6802 0.0035924 21.791 0.002195 32.011-9.6046e-4 7.024-0.002195 13.155-0.002195 16.989 0 1 0.23489 2 1.2349 2h61.543z" color="#000000" fill="url(#c)"/>
		<path d="m62.778 63.5c-0.58579-0.0011-0.77816-0.9402-0.77816-1.5v-44c0-0.57647-0.4549-1-1-1h-26c-1 0-1.3759-0.3759-2-1l-3-3c-0.46442-0.46442-1-1-2-1h-27c-0.52342 0-1 0.4716-1 1 0.0044097 9.6802 0.0035924 21.791 0.002195 32.011-9.6046e-4 7.024-0.002195 13.155-0.002195 16.989 0 1 0.23489 2 1.2349 2h61.543z" color="#000000" fill="url(#h)"/>
		<path d="m62.778 63.5c-0.58579-0.0011-0.77816-0.9402-0.77816-1.5v-44c0-0.57647-0.4549-1-1-1h-26c-1 0-1.3759-0.3759-2-1l-3-3c-0.46442-0.46442-1-1-2-1h-27c-0.52342 0-1 0.4716-1 1 0.0044097 9.6802 0.0035924 21.791 0.002195 32.011-9.6046e-4 7.024-0.002195 13.155-0.002195 16.989 0 1 0.23489 2 1.2349 2h61.543z" color="#000000" fill="url(#a)" opacity=".318"/>
		<path d="m27.5 12c1 0 1.5356 0.53558 2 1l3 3c0.6241 0.6241 1 1 2 1h0.5c-1 0-1.3759-0.3759-2-1l-3-3c-0.46442-0.46442-1-1-2-1zm33 5c0.5451 0 1 0.42353 1 1v44c0 0.90201 0.20957 1.9442 1.2782 2h-8.19e-4v-0.5c-0.58579-0.0011-0.77734-0.9402-0.77734-1.5v-44c0-0.57647-0.4549-1-1-1z" color="#000000" fill="#ff024d" fill-opacity=".23186" style="paint-order:normal"/>
		<path d="m27.75 12c1 0 1.5356 0.53558 2 1l3 3c0.6241 0.6241 1 1 2 1h0.25c-1 0-1.3759-0.3759-2-1l-3-3c-0.46442-0.46442-1-1-2-1zm33 5c0.5451 0 1 0.42353 1 1v44c0 0.5598 0.19155 1.4989 0.77734 1.5v0.45508c0.08 0.01886 0.15756 0.0401 0.25 0.04492v-0.5c-0.58579-0.0011-0.77734-0.9402-0.77734-1.5v-44c0-0.57647-0.4549-1-1-1z" color="#000000" fill="#ff024d" fill-opacity=".19147" style="paint-order:normal"/>
		<path d="m1 12c-0.52342 0-1 0.4716-1 1 6.888e-5 0.15121-6.6347e-5 0.34762 0 0.5 0-0.5284 0.47658-1 1-1h27c1 0 1.5356 0.53558 2 1l3 3c0.6241 0.6241 1 1 2 1h26c0.5451 0 1 0.42353 1 1v-0.5c0-0.57647-0.4549-1-1-1h-26c-1 0-1.3759-0.3759-2-1l-3-3c-0.46442-0.46442-1-1-2-1z" color="#000000" fill="#f8ff34" fill-opacity=".31189"/>
		<path d="m1 12c-0.52342 0-1 0.4716-1 1 3.444e-5 0.0756-3.3805e-5 0.1741 0 0.25 0-0.5284 0.47658-1 1-1h27c1 0 1.5356 0.53558 2 1l3 3c0.6241 0.6241 1 1 2 1h26c0.5451 0 1 0.42353 1 1v-0.25c0-0.57647-0.4549-1-1-1h-26c-1 0-1.3759-0.3759-2-1l-3-3c-0.46442-0.46442-1-1-2-1z" color="#000000" fill="#f8ff34" fill-opacity=".31189"/>
	</g>
	<g transform="translate(1.3889,-1)">
		<path d="m20.611 51h20l-0.1111-21h-20v17h4s2-5 6-5 6 5 6 5" fill="none" stroke="#d5ffff" stroke-linecap="round" stroke-linejoin="round" stroke-width="2" style="paint-order:normal"/>
		<circle cx="30.5" cy="36.5" r="2.5" fill="#4b617d" style="paint-order:normal"/>
	</g>
	<g transform="translate(1.3889 -1)" fill="#ff0066" fill-opacity=".026726" opacity=".23167">
		<path d="m20.5 39c-0.5523 1e-4 -1 0.4477-1 1v17c0 0.5523 0.4477 0.9999 1 1h4c0.4087-4e-4 0.776-0.2494 0.9277-0.6289 0 0 0.4551-1.1231 1.3535-2.2461s2.1354-2.125 3.7188-2.125c1.5833 0 2.8203 1.002 3.7187 2.125s1.3535 2.2461 1.3535 2.2461c0.2053 0.512 0.7865 0.7611 1.2989 0.5566 0.512-0.2053 0.7611-0.7864 0.5566-1.2988 0 0-0.5449-1.3769-1.6465-2.7539s-2.8646-2.875-5.2812-2.875c-2.4167 0-4.1797 1.498-5.2813 2.875-0.8498 1.0623-1.0766 1.6951-1.2695 2.125h-2.4492v-15h18.006l0.0996 19h-18.994c-0.2652 0-0.5196 0.1054-0.7071 0.2929s-0.2929 0.4419-0.2929 0.7071 0.1054 0.5196 0.2929 0.7071 0.4419 0.2929 0.7071 0.2929h20c0.2662 0 0.5215-0.1062 0.7092-0.295s0.2923-0.4446 0.2908-0.7109l-0.1113-21c-0.0033-0.5499-0.45-0.9941-1-0.9941zm10 5c-0.6631 0-1.299 0.2634-1.7678 0.7322-0.4688 0.4689-0.7322 1.1048-0.7322 1.7678 0 1.3807 1.1193 2.5 2.5 2.5 0.663 0 1.2989-0.2634 1.7677-0.7322 0.4689-0.4689 0.7323-1.1048 0.7323-1.7678s-0.2634-1.2989-0.7323-1.7678c-0.4688-0.4688-1.1047-0.7322-1.7677-0.7322z" color="#000000" stop-color="#000000" style="-inkscape-stroke:none;font-variation-settings:normal;paint-order:normal"/>
		<path d="m20.5 36.468c-0.5523 1e-4 -1 0.4478-1 1v17c0 0.5523 0.4477 1 1 1h4c0.4087-3e-4 0.776-0.2494 0.9277-0.6289 0 0 0.4551-1.123 1.3535-2.2461 0.8984-1.123 2.1354-2.125 3.7188-2.125 1.5833 0 2.8203 1.002 3.7187 2.125 0.8984 1.1231 1.3535 2.2461 1.3535 2.2461 0.2053 0.5121 0.7865 0.7612 1.2989 0.5567 0.512-0.2053 0.7611-0.7865 0.5566-1.2988 0 0-0.5449-1.377-1.6465-2.754-1.1016-1.3769-2.8646-2.875-5.2812-2.875-2.4167 0-4.1797 1.4981-5.2813 2.875-0.8498 1.0624-1.0766 1.6952-1.2695 2.125h-2.4492v-15h18.006l0.0996 19h-18.994c-0.2652 0-0.5196 0.1054-0.7071 0.2929-0.1875 0.1876-0.2929 0.4419-0.2929 0.7071 0 0.2653 0.1054 0.5196 0.2929 0.7072 0.1875 0.1875 0.4419 0.2928 0.7071 0.2928h20c0.2662 0 0.5215-0.1061 0.7092-0.2949s0.2923-0.4447 0.2908-0.7109l-0.1113-21c-0.0033-0.55-0.45-0.9941-1-0.9942zm10 5c-0.6631 0-1.299 0.2634-1.7678 0.7323-0.4688 0.4688-0.7322 1.1047-0.7322 1.7677 0 1.3808 1.1193 2.5 2.5 2.5 0.663 0 1.2989-0.2633 1.7677-0.7322 0.4689-0.4688 0.7323-1.1047 0.7323-1.7678 0-0.663-0.2634-1.2989-0.7323-1.7677-0.4688-0.4689-1.1047-0.7323-1.7677-0.7323z" color="#000000" stop-color="#000000" style="-inkscape-stroke:none;font-variation-settings:normal;paint-order:normal"/>
		<path d="m20.5 35.659c-0.5523 0-1 0.4477-1 1v17c0 0.5522 0.4477 0.9999 1 1h4c0.4087-4e-4 0.776-0.2494 0.9277-0.6289 0 0 0.4551-1.1231 1.3535-2.2461 0.8984-1.1231 2.1354-2.125 3.7188-2.125 1.5833 0 2.8203 1.0019 3.7187 2.125 0.8984 1.123 1.3535 2.2461 1.3535 2.2461 0.2053 0.512 0.7865 0.7611 1.2989 0.5566 0.512-0.2053 0.7611-0.7865 0.5566-1.2988 0 0-0.5449-1.377-1.6465-2.7539-1.1016-1.377-2.8646-2.875-5.2812-2.875-2.4167 0-4.1797 1.498-5.2813 2.875-0.8498 1.0623-1.0766 1.6951-1.2695 2.125h-2.4492v-15h18.006l0.0996 19h-18.994c-0.2652 0-0.5196 0.1053-0.7071 0.2929-0.1875 0.1875-0.2929 0.4419-0.2929 0.7071s0.1054 0.5195 0.2929 0.7071c0.1875 0.1875 0.4419 0.2929 0.7071 0.2929h20c0.2662-1e-4 0.5215-0.1062 0.7092-0.295s0.2923-0.4447 0.2908-0.7109l-0.1113-21c-0.0033-0.55-0.45-0.9941-1-0.9941zm10 5c-0.6631 0-1.299 0.2634-1.7678 0.7322s-0.7322 1.1047-0.7322 1.7678c0 1.3807 1.1193 2.5 2.5 2.5 0.663 0 1.2989-0.2634 1.7677-0.7323 0.4689-0.4688 0.7323-1.1047 0.7323-1.7677 0-0.6631-0.2634-1.299-0.7323-1.7678-0.4688-0.4688-1.1047-0.7322-1.7677-0.7322z" color="#000000" stop-color="#000000" style="-inkscape-stroke:none;font-variation-settings:normal;paint-order:normal"/>
		<path d="m20.5 35.071c-0.5523 1e-4 -1 0.4477-1 1v17c0 0.5523 0.4477 0.9999 1 1h4c0.4087-4e-4 0.776-0.2494 0.9277-0.6289 0 0 0.4551-1.1231 1.3535-2.2461s2.1354-2.125 3.7188-2.125c1.5833 0 2.8203 1.002 3.7187 2.125s1.3535 2.2461 1.3535 2.2461c0.2053 0.512 0.7865 0.7611 1.2989 0.5566 0.512-0.2053 0.7611-0.7864 0.5566-1.2988 0 0-0.5449-1.3769-1.6465-2.7539s-2.8646-2.875-5.2812-2.875c-2.4167 0-4.1797 1.498-5.2813 2.875-0.8498 1.0623-1.0766 1.6951-1.2695 2.125h-2.4492v-15h18.006l0.0996 19h-18.994c-0.2652 0-0.5196 0.1054-0.7071 0.2929s-0.2929 0.4419-0.2929 0.7071 0.1054 0.5196 0.2929 0.7071 0.4419 0.2929 0.7071 0.2929h20c0.2662 0 0.5215-0.1062 0.7092-0.295s0.2923-0.4446 0.2908-0.7109l-0.1113-21c-0.0033-0.5499-0.45-0.9941-1-0.9941zm10 5c-0.6631 0-1.299 0.2634-1.7678 0.7322-0.4688 0.4689-0.7322 1.1048-0.7322 1.7678 0 1.3807 1.1193 2.5 2.5 2.5 0.663 0 1.2989-0.2634 1.7677-0.7322 0.4689-0.4689 0.7323-1.1048 0.7323-1.7678s-0.2634-1.2989-0.7323-1.7678c-0.4688-0.4688-1.1047-0.7322-1.7677-0.7322z" color="#000000" stop-color="#000000" style="-inkscape-stroke:none;font-variation-settings:normal;paint-order:normal"/>
		<path d="m20.5 34.592c-0.5523 1e-4 -1 0.4478-1 1v17c0 0.5523 0.4477 1 1 1h4c0.4087-4e-4 0.776-0.2494 0.9277-0.6289 0 0 0.4551-1.1231 1.3535-2.2461s2.1354-2.125 3.7188-2.125c1.5833 0 2.8203 1.002 3.7187 2.125s1.3535 2.2461 1.3535 2.2461c0.2053 0.5121 0.7865 0.7611 1.2989 0.5567 0.512-0.2053 0.7611-0.7865 0.5566-1.2989 0 0-0.5449-1.3769-1.6465-2.7539s-2.8646-2.875-5.2812-2.875c-2.4167 0-4.1797 1.498-5.2813 2.875-0.8498 1.0623-1.0766 1.6951-1.2695 2.125h-2.4492v-15h18.006l0.0996 19h-18.994c-0.2652 0-0.5196 0.1054-0.7071 0.2929s-0.2929 0.4419-0.2929 0.7071 0.1054 0.5196 0.2929 0.7071c0.1875 0.1876 0.4419 0.2929 0.7071 0.2929h20c0.2662 0 0.5215-0.1062 0.7092-0.295s0.2923-0.4446 0.2908-0.7108l-0.1113-21c-0.0033-0.55-0.45-0.9941-1-0.9942zm10 5c-0.6631 0-1.299 0.2634-1.7678 0.7323-0.4688 0.4688-0.7322 1.1047-0.7322 1.7677 0 1.3807 1.1193 2.5 2.5 2.5 0.663 0 1.2989-0.2634 1.7677-0.7322 0.4689-0.4689 0.7323-1.1047 0.7323-1.7678 0-0.663-0.2634-1.2989-0.7323-1.7677-0.4688-0.4689-1.1047-0.7323-1.7677-0.7323z" color="#000000" stop-color="#000000" style="-inkscape-stroke:none;font-variation-settings:normal;paint-order:normal"/>
		<path d="m20.5 34.18c-0.5523 1e-4 -1 0.4478-1 1v17c0 0.5523 0.4477 1 1 1h4c0.4087-3e-4 0.776-0.2494 0.9277-0.6289 0 0 0.4551-1.123 1.3535-2.2461 0.8984-1.123 2.1354-2.125 3.7188-2.125 1.5833 0 2.8203 1.002 3.7187 2.125 0.8984 1.1231 1.3535 2.2461 1.3535 2.2461 0.2053 0.5121 0.7865 0.7611 1.2989 0.5567 0.512-0.2053 0.7611-0.7865 0.5566-1.2989 0 0-0.5449-1.3769-1.6465-2.7539-1.1016-1.3769-2.8646-2.875-5.2812-2.875-2.4167 0-4.1797 1.4981-5.2813 2.875-0.8498 1.0623-1.0766 1.6952-1.2695 2.125h-2.4492v-15h18.006l0.0996 19h-18.994c-0.2652 0-0.5196 0.1054-0.7071 0.2929-0.1875 0.1876-0.2929 0.4419-0.2929 0.7071 0 0.2653 0.1054 0.5196 0.2929 0.7071 0.1875 0.1876 0.4419 0.2929 0.7071 0.2929h20c0.2662 0 0.5215-0.1062 0.7092-0.2949 0.1877-0.1888 0.2923-0.4447 0.2908-0.7109l-0.1113-21c-0.0033-0.55-0.45-0.9941-1-0.9942zm10 5c-0.6631 0-1.299 0.2634-1.7678 0.7323-0.4688 0.4688-0.7322 1.1047-0.7322 1.7677 0 1.3808 1.1193 2.5 2.5 2.5 0.663 0 1.2989-0.2634 1.7677-0.7322 0.4689-0.4688 0.7323-1.1047 0.7323-1.7678 0-0.663-0.2634-1.2989-0.7323-1.7677-0.4688-0.4689-1.1047-0.7323-1.7677-0.7323z" color="#000000" stop-color="#000000" style="-inkscape-stroke:none;font-variation-settings:normal;paint-order:normal"/>
		<path d="m20.5 33.815c-0.5523 0-1 0.4477-1 1v17c0 0.5523 0.4477 0.9999 1 1h4c0.4087-4e-4 0.776-0.2494 0.9277-0.6289 0 0 0.4551-1.1231 1.3535-2.2461s2.1354-2.125 3.7188-2.125c1.5833 0 2.8203 1.002 3.7187 2.125s1.3535 2.2461 1.3535 2.2461c0.2053 0.512 0.7865 0.7611 1.2989 0.5566 0.512-0.2053 0.7611-0.7864 0.5566-1.2988 0 0-0.5449-1.3769-1.6465-2.7539s-2.8646-2.875-5.2812-2.875c-2.4167 0-4.1797 1.498-5.2813 2.875-0.8498 1.0623-1.0766 1.6951-1.2695 2.125h-2.4492v-15h18.006l0.0996 19h-18.994c-0.2652 0-0.5196 0.1054-0.7071 0.2929s-0.2929 0.4419-0.2929 0.7071 0.1054 0.5196 0.2929 0.7071 0.4419 0.2929 0.7071 0.2929h20c0.2662 0 0.5215-0.1062 0.7092-0.295s0.2923-0.4446 0.2908-0.7109l-0.1113-21c-0.0033-0.5499-0.45-0.9941-1-0.9941zm10 5c-0.6631 0-1.299 0.2634-1.7678 0.7322-0.4688 0.4689-0.7322 1.1048-0.7322 1.7678 0 1.3807 1.1193 2.5 2.5 2.5 0.663 0 1.2989-0.2634 1.7677-0.7322 0.4689-0.4689 0.7323-1.1048 0.7323-1.7678s-0.2634-1.2989-0.7323-1.7678c-0.4688-0.4688-1.1047-0.7322-1.7677-0.7322z" color="#000000" stop-color="#000000" style="-inkscape-stroke:none;font-variation-settings:normal;paint-order:normal"/>
		<path d="m20.5 33.486c-0.5523 1e-4 -1 0.4478-1 1v17c0 0.5523 0.4477 1 1 1h4c0.4087-3e-4 0.776-0.2494 0.9277-0.6289 0 0 0.4551-1.123 1.3535-2.2461 0.8984-1.123 2.1354-2.125 3.7188-2.125 1.5833 0 2.8203 1.002 3.7187 2.125 0.8984 1.1231 1.3535 2.2461 1.3535 2.2461 0.2053 0.5121 0.7865 0.7612 1.2989 0.5567 0.512-0.2053 0.7611-0.7865 0.5566-1.2988 0 0-0.5449-1.377-1.6465-2.754-1.1016-1.3769-2.8646-2.875-5.2812-2.875-2.4167 0-4.1797 1.4981-5.2813 2.875-0.8498 1.0624-1.0766 1.6952-1.2695 2.125h-2.4492v-15h18.006l0.0996 19h-18.994c-0.2652 0-0.5196 0.1054-0.7071 0.2929-0.1875 0.1876-0.2929 0.4419-0.2929 0.7071 0 0.2653 0.1054 0.5196 0.2929 0.7072 0.1875 0.1875 0.4419 0.2928 0.7071 0.2928h20c0.2662 0 0.5215-0.1061 0.7092-0.2949s0.2923-0.4447 0.2908-0.7109l-0.1113-21c-0.0033-0.55-0.45-0.9941-1-0.9942zm10 5c-0.6631 0-1.299 0.2634-1.7678 0.7323-0.4688 0.4688-0.7322 1.1047-0.7322 1.7677 0 1.3808 1.1193 2.5 2.5 2.5 0.663 0 1.2989-0.2633 1.7677-0.7322 0.4689-0.4688 0.7323-1.1047 0.7323-1.7678 0-0.663-0.2634-1.2989-0.7323-1.7677-0.4688-0.4689-1.1047-0.7323-1.7677-0.7323z" color="#000000" stop-color="#000000" style="-inkscape-stroke:none;font-variation-settings:normal;paint-order:normal"/>
		<path d="m20.5 33.183c-0.5523 1e-4 -1 0.4477-1 1v17c0 0.5523 0.4477 0.9999 1 1h4c0.4087-4e-4 0.776-0.2494 0.9277-0.6289 0 0 0.4551-1.1231 1.3535-2.2461s2.1354-2.125 3.7188-2.125c1.5833 0 2.8203 1.002 3.7187 2.125s1.3535 2.2461 1.3535 2.2461c0.2053 0.512 0.7865 0.7611 1.2989 0.5566 0.512-0.2053 0.7611-0.7864 0.5566-1.2988 0 0-0.5449-1.3769-1.6465-2.7539s-2.8646-2.875-5.2812-2.875c-2.4167 0-4.1797 1.498-5.2813 2.875-0.8498 1.0623-1.0766 1.6951-1.2695 2.125h-2.4492v-15h18.006l0.0996 19h-18.994c-0.2652 0-0.5196 0.1054-0.7071 0.2929s-0.2929 0.4419-0.2929 0.7071 0.1054 0.5196 0.2929 0.7071 0.4419 0.2929 0.7071 0.2929h20c0.2662 0 0.5215-0.1062 0.7092-0.295s0.2923-0.4446 0.2908-0.7109l-0.1113-21c-0.0033-0.5499-0.45-0.9941-1-0.9941zm10 5c-0.6631 0-1.299 0.2634-1.7678 0.7322-0.4688 0.4689-0.7322 1.1048-0.7322 1.7678 0 1.3807 1.1193 2.5 2.5 2.5 0.663 0 1.2989-0.2634 1.7677-0.7322 0.4689-0.4689 0.7323-1.1048 0.7323-1.7678s-0.2634-1.2989-0.7323-1.7678c-0.4688-0.4688-1.1047-0.7322-1.7677-0.7322z" color="#000000" stop-color="#000000" style="-inkscape-stroke:none;font-variation-settings:normal;paint-order:normal"/>
		<path d="m20.5 32.902c-0.5523 0-1 0.4477-1 1v17c0 0.5523 0.4477 0.9999 1 1h4c0.4087-4e-4 0.776-0.2494 0.9277-0.6289 0 0 0.4551-1.1231 1.3535-2.2461s2.1354-2.125 3.7188-2.125c1.5833 0 2.8203 1.002 3.7187 2.125s1.3535 2.2461 1.3535 2.2461c0.2053 0.512 0.7865 0.7611 1.2989 0.5566 0.512-0.2053 0.7611-0.7864 0.5566-1.2988 0 0-0.5449-1.3769-1.6465-2.7539s-2.8646-2.875-5.2812-2.875c-2.4167 0-4.1797 1.498-5.2813 2.875-0.8498 1.0623-1.0766 1.6951-1.2695 2.125h-2.4492v-15h18.006l0.0996 19h-18.994c-0.2652 0-0.5196 0.1053-0.7071 0.2929-0.1875 0.1875-0.2929 0.4419-0.2929 0.7071s0.1054 0.5196 0.2929 0.7071 0.4419 0.2929 0.7071 0.2929h20c0.2662 0 0.5215-0.1062 0.7092-0.295s0.2923-0.4446 0.2908-0.7109l-0.1113-21c-0.0033-0.5499-0.45-0.9941-1-0.9941zm10 5c-0.6631 0-1.299 0.2634-1.7678 0.7322-0.4688 0.4689-0.7322 1.1048-0.7322 1.7678 0 1.3807 1.1193 2.5 2.5 2.5 0.663 0 1.2989-0.2634 1.7677-0.7322 0.4689-0.4689 0.7323-1.1048 0.7323-1.7678s-0.2634-1.2989-0.7323-1.7678c-0.4688-0.4688-1.1047-0.7322-1.7677-0.7322z" color="#000000" stop-color="#000000" style="-inkscape-stroke:none;font-variation-settings:normal;paint-order:normal"/>
		<path d="m20.5 32.64c-0.5523 1e-4 -1 0.4478-1 1v17c0 0.5523 0.4477 1 1 1h4c0.4087-4e-4 0.776-0.2494 0.9277-0.6289 0 0 0.4551-1.123 1.3535-2.2461 0.8984-1.123 2.1354-2.125 3.7188-2.125 1.5833 0 2.8203 1.002 3.7187 2.125 0.8984 1.1231 1.3535 2.2461 1.3535 2.2461 0.2053 0.5121 0.7865 0.7611 1.2989 0.5567 0.512-0.2053 0.7611-0.7865 0.5566-1.2989 0 0-0.5449-1.3769-1.6465-2.7539-1.1016-1.3769-2.8646-2.875-5.2812-2.875-2.4167 0-4.1797 1.4981-5.2813 2.875-0.8498 1.0623-1.0766 1.6952-1.2695 2.125h-2.4492v-15h18.006l0.0996 19h-18.994c-0.2652 0-0.5196 0.1054-0.7071 0.2929-0.1875 0.1876-0.2929 0.4419-0.2929 0.7071s0.1054 0.5196 0.2929 0.7071c0.1875 0.1876 0.4419 0.2929 0.7071 0.2929h20c0.2662 0 0.5215-0.1062 0.7092-0.295s0.2923-0.4446 0.2908-0.7108l-0.1113-21c-0.0033-0.55-0.45-0.9941-1-0.9942zm10 5c-0.6631 0-1.299 0.2634-1.7678 0.7323-0.4688 0.4688-0.7322 1.1047-0.7322 1.7677 0 1.3807 1.1193 2.5 2.5 2.5 0.663 0 1.2989-0.2634 1.7677-0.7322 0.4689-0.4688 0.7323-1.1047 0.7323-1.7678 0-0.663-0.2634-1.2989-0.7323-1.7677-0.4688-0.4689-1.1047-0.7323-1.7677-0.7323z" color="#000000" stop-color="#000000" style="-inkscape-stroke:none;font-variation-settings:normal;paint-order:normal"/>
		<path d="m20.5 32.393c-0.5523 0-1 0.4477-1 1v17c0 0.5522 0.4477 0.9999 1 1h4c0.4087-4e-4 0.776-0.2494 0.9277-0.6289 0 0 0.4551-1.1231 1.3535-2.2461 0.8984-1.1231 2.1354-2.125 3.7188-2.125 1.5833 0 2.8203 1.0019 3.7187 2.125 0.8984 1.123 1.3535 2.2461 1.3535 2.2461 0.2053 0.512 0.7865 0.7611 1.2989 0.5566 0.512-0.2053 0.7611-0.7864 0.5566-1.2988 0 0-0.5449-1.377-1.6465-2.7539-1.1016-1.377-2.8646-2.875-5.2812-2.875-2.4167 0-4.1797 1.498-5.2813 2.875-0.8498 1.0623-1.0766 1.6951-1.2695 2.125h-2.4492v-15h18.006l0.0996 19h-18.994c-0.2652 0-0.5196 0.1053-0.7071 0.2929-0.1875 0.1875-0.2929 0.4419-0.2929 0.7071s0.1054 0.5195 0.2929 0.7071c0.1875 0.1875 0.4419 0.2929 0.7071 0.2929h20c0.2662 0 0.5215-0.1062 0.7092-0.295s0.2923-0.4447 0.2908-0.7109l-0.1113-21c-0.0033-0.55-0.45-0.9941-1-0.9941zm10 5c-0.6631 0-1.299 0.2634-1.7678 0.7322-0.4688 0.4689-0.7322 1.1047-0.7322 1.7678 0 1.3807 1.1193 2.5 2.5 2.5 0.663 0 1.2989-0.2634 1.7677-0.7323 0.4689-0.4688 0.7323-1.1047 0.7323-1.7677 0-0.6631-0.2634-1.2989-0.7323-1.7678-0.4688-0.4688-1.1047-0.7322-1.7677-0.7322z" color="#000000" stop-color="#000000" style="-inkscape-stroke:none;font-variation-settings:normal;paint-order:normal"/>
		<path d="m20.5 32.159c-0.5523 0-1 0.4477-1 1v17c0 0.5522 0.4477 0.9999 1 1h4c0.4087-4e-4 0.776-0.2494 0.9277-0.6289 0 0 0.4551-1.1231 1.3535-2.2461 0.8984-1.1231 2.1354-2.125 3.7188-2.125 1.5833 0 2.8203 1.0019 3.7187 2.125 0.8984 1.123 1.3535 2.2461 1.3535 2.2461 0.2053 0.512 0.7865 0.7611 1.2989 0.5566 0.512-0.2053 0.7611-0.7865 0.5566-1.2988 0 0-0.5449-1.377-1.6465-2.7539-1.1016-1.377-2.8646-2.875-5.2812-2.875-2.4167 0-4.1797 1.498-5.2813 2.875-0.8498 1.0623-1.0766 1.6951-1.2695 2.125h-2.4492v-15h18.006l0.0996 19h-18.994c-0.2652 0-0.5196 0.1053-0.7071 0.2929-0.1875 0.1875-0.2929 0.4419-0.2929 0.7071s0.1054 0.5195 0.2929 0.7071c0.1875 0.1875 0.4419 0.2929 0.7071 0.2929h20c0.2662-1e-4 0.5215-0.1062 0.7092-0.295s0.2923-0.4447 0.2908-0.7109l-0.1113-21c-0.0033-0.55-0.45-0.9941-1-0.9941zm10 5c-0.6631 0-1.299 0.2634-1.7678 0.7322s-0.7322 1.1047-0.7322 1.7678c0 1.3807 1.1193 2.5 2.5 2.5 0.663 0 1.2989-0.2634 1.7677-0.7323 0.4689-0.4688 0.7323-1.1047 0.7323-1.7677 0-0.6631-0.2634-1.299-0.7323-1.7678-0.4688-0.4688-1.1047-0.7322-1.7677-0.7322z" color="#000000" stop-color="#000000" style="-inkscape-stroke:none;font-variation-settings:normal;paint-order:normal"/>
		<path d="m20.5 31.936c-0.5523 0-1 0.4477-1 1v17c0 0.5523 0.4477 0.9999 1 1h4c0.4087-4e-4 0.776-0.2494 0.9277-0.6289 0 0 0.4551-1.1231 1.3535-2.2461s2.1354-2.125 3.7188-2.125c1.5833 0 2.8203 1.002 3.7187 2.125s1.3535 2.2461 1.3535 2.2461c0.2053 0.512 0.7865 0.7611 1.2989 0.5566 0.512-0.2053 0.7611-0.7864 0.5566-1.2988 0 0-0.5449-1.3769-1.6465-2.7539s-2.8646-2.875-5.2812-2.875c-2.4167 0-4.1797 1.498-5.2813 2.875-0.8498 1.0623-1.0766 1.6951-1.2695 2.125h-2.4492v-15h18.006l0.0996 19h-18.994c-0.2652 0-0.5196 0.1054-0.7071 0.2929s-0.2929 0.4419-0.2929 0.7071 0.1054 0.5196 0.2929 0.7071 0.4419 0.2929 0.7071 0.2929h20c0.2662 0 0.5215-0.1062 0.7092-0.295s0.2923-0.4446 0.2908-0.7109l-0.1113-21c-0.0033-0.5499-0.45-0.9941-1-0.9941zm10 5c-0.6631 0-1.299 0.2634-1.7678 0.7322-0.4688 0.4689-0.7322 1.1048-0.7322 1.7678 0 1.3807 1.1193 2.5 2.5 2.5 0.663 0 1.2989-0.2634 1.7677-0.7322 0.4689-0.4689 0.7323-1.1048 0.7323-1.7678s-0.2634-1.2989-0.7323-1.7678c-0.4688-0.4688-1.1047-0.7322-1.7677-0.7322z" color="#000000" stop-color="#000000" style="-inkscape-stroke:none;font-variation-settings:normal;paint-order:normal"/>
		<path d="m20.5 31.724c-0.5523 0-1 0.4477-1 1v17c0 0.5522 0.4477 0.9999 1 1h4c0.4087-4e-4 0.776-0.2494 0.9277-0.6289 0 0 0.4551-1.1231 1.3535-2.2461 0.8984-1.1231 2.1354-2.125 3.7188-2.125 1.5833 0 2.8203 1.0019 3.7187 2.125 0.8984 1.123 1.3535 2.2461 1.3535 2.2461 0.2053 0.512 0.7865 0.7611 1.2989 0.5566 0.512-0.2053 0.7611-0.7865 0.5566-1.2988 0 0-0.5449-1.377-1.6465-2.7539-1.1016-1.377-2.8646-2.875-5.2812-2.875-2.4167 0-4.1797 1.498-5.2813 2.875-0.8498 1.0623-1.0766 1.6951-1.2695 2.125h-2.4492v-15h18.006l0.0996 19h-18.994c-0.2652 0-0.5196 0.1053-0.7071 0.2929-0.1875 0.1875-0.2929 0.4419-0.2929 0.7071s0.1054 0.5195 0.2929 0.7071c0.1875 0.1875 0.4419 0.2929 0.7071 0.2929h20c0.2662-1e-4 0.5215-0.1062 0.7092-0.295s0.2923-0.4447 0.2908-0.7109l-0.1113-21c-0.0033-0.55-0.45-0.9941-1-0.9941zm10 5c-0.6631 0-1.299 0.2634-1.7678 0.7322s-0.7322 1.1047-0.7322 1.7678c0 1.3807 1.1193 2.5 2.5 2.5 0.663 0 1.2989-0.2634 1.7677-0.7323 0.4689-0.4688 0.7323-1.1047 0.7323-1.7677 0-0.6631-0.2634-1.299-0.7323-1.7678-0.4688-0.4688-1.1047-0.7322-1.7677-0.7322z" color="#000000" stop-color="#000000" style="-inkscape-stroke:none;font-variation-settings:normal;paint-order:normal"/>
		<path d="m20.5 31.52c-0.5523 0-1 0.4477-1 1v17c0 0.5522 0.4477 0.9999 1 1h4c0.4087-4e-4 0.776-0.2494 0.9277-0.6289 0 0 0.4551-1.1231 1.3535-2.2461 0.8984-1.1231 2.1354-2.125 3.7188-2.125 1.5833 0 2.8203 1.0019 3.7187 2.125 0.8984 1.123 1.3535 2.2461 1.3535 2.2461 0.2053 0.512 0.7865 0.7611 1.2989 0.5566 0.512-0.2053 0.7611-0.7865 0.5566-1.2988 0 0-0.5449-1.377-1.6465-2.7539-1.1016-1.377-2.8646-2.875-5.2812-2.875-2.4167 0-4.1797 1.498-5.2813 2.875-0.8498 1.0623-1.0766 1.6951-1.2695 2.125h-2.4492v-15h18.006l0.0996 19h-18.994c-0.2652 0-0.5196 0.1053-0.7071 0.2929-0.1875 0.1875-0.2929 0.4419-0.2929 0.7071s0.1054 0.5195 0.2929 0.7071c0.1875 0.1875 0.4419 0.2929 0.7071 0.2929h20c0.2662-1e-4 0.5215-0.1062 0.7092-0.295s0.2923-0.4447 0.2908-0.7109l-0.1113-21c-0.0033-0.55-0.45-0.9941-1-0.9941zm10 5c-0.6631 0-1.299 0.2634-1.7678 0.7322s-0.7322 1.1047-0.7322 1.7678c0 1.3807 1.1193 2.5 2.5 2.5 0.663 0 1.2989-0.2634 1.7677-0.7323 0.4689-0.4688 0.7323-1.1047 0.7323-1.7677 0-0.6631-0.2634-1.299-0.7323-1.7678-0.4688-0.4688-1.1047-0.7322-1.7677-0.7322z" color="#000000" stop-color="#000000" style="-inkscape-stroke:none;font-variation-settings:normal;paint-order:normal"/>
		<path d="m20.5 31.325c-0.5523 0-1 0.4477-1 1v17c0 0.5522 0.4477 0.9999 1 1h4c0.4087-4e-4 0.776-0.2494 0.9277-0.6289 0 0 0.4551-1.1231 1.3535-2.2461 0.8984-1.1231 2.1354-2.125 3.7188-2.125 1.5833 0 2.8203 1.0019 3.7187 2.125 0.8984 1.123 1.3535 2.2461 1.3535 2.2461 0.2053 0.512 0.7865 0.7611 1.2989 0.5566 0.512-0.2053 0.7611-0.7865 0.5566-1.2988 0 0-0.5449-1.377-1.6465-2.7539-1.1016-1.377-2.8646-2.875-5.2812-2.875-2.4167 0-4.1797 1.498-5.2813 2.875-0.8498 1.0623-1.0766 1.6951-1.2695 2.125h-2.4492v-15h18.006l0.0996 19h-18.994c-0.2652 0-0.5196 0.1053-0.7071 0.2929-0.1875 0.1875-0.2929 0.4418-0.2929 0.7071 0 0.2652 0.1054 0.5195 0.2929 0.7071 0.1875 0.1875 0.4419 0.2929 0.7071 0.2929h20c0.2662-1e-4 0.5215-0.1062 0.7092-0.295s0.2923-0.4447 0.2908-0.7109l-0.1113-21c-0.0033-0.55-0.45-0.9941-1-0.9941zm10 5c-0.6631 0-1.299 0.2634-1.7678 0.7322s-0.7322 1.1047-0.7322 1.7678c0 1.3807 1.1193 2.5 2.5 2.5 0.663 0 1.2989-0.2634 1.7677-0.7323 0.4689-0.4688 0.7323-1.1047 0.7323-1.7677 0-0.6631-0.2634-1.299-0.7323-1.7678-0.4688-0.4688-1.1047-0.7322-1.7677-0.7322z" color="#000000" stop-color="#000000" style="-inkscape-stroke:none;font-variation-settings:normal;paint-order:normal"/>
		<path d="m20.5 31.136c-0.5523 0-1 0.4477-1 1v17c0 0.5522 0.4477 0.9999 1 1h4c0.4087-4e-4 0.776-0.2494 0.9277-0.629 0 0 0.4551-1.123 1.3535-2.246 0.8984-1.1231 2.1354-2.125 3.7188-2.125 1.5833 0 2.8203 1.0019 3.7187 2.125 0.8984 1.123 1.3535 2.246 1.3535 2.246 0.2053 0.5121 0.7865 0.7612 1.2989 0.5567 0.512-0.2053 0.7611-0.7865 0.5566-1.2988 0 0-0.5449-1.377-1.6465-2.7539-1.1016-1.377-2.8646-2.875-5.2812-2.875-2.4167 0-4.1797 1.498-5.2813 2.875-0.8498 1.0623-1.0766 1.6951-1.2695 2.125h-2.4492v-15h18.006l0.0996 19h-18.994c-0.2652 0-0.5196 0.1053-0.7071 0.2928-0.1875 0.1876-0.2929 0.4419-0.2929 0.7072 0 0.2652 0.1054 0.5195 0.2929 0.7071 0.1875 0.1875 0.4419 0.2929 0.7071 0.2929h20c0.2662-1e-4 0.5215-0.1062 0.7092-0.295s0.2923-0.4447 0.2908-0.7109l-0.1113-21c-0.0033-0.55-0.45-0.9941-1-0.9941zm10 5c-0.6631 0-1.299 0.2633-1.7678 0.7322-0.4688 0.4688-0.7322 1.1047-0.7322 1.7678 0 1.3807 1.1193 2.5 2.5 2.5 0.663 0 1.2989-0.2634 1.7677-0.7323 0.4689-0.4688 0.7323-1.1047 0.7323-1.7677 0-0.6631-0.2634-1.299-0.7323-1.7678-0.4688-0.4689-1.1047-0.7322-1.7677-0.7322z" color="#000000" stop-color="#000000" style="-inkscape-stroke:none;font-variation-settings:normal;paint-order:normal"/>
		<path d="m20.5 30.954c-0.5523 0-1 0.4477-1 1v17c0 0.5523 0.4477 0.9999 1 1h4c0.4087-4e-4 0.776-0.2494 0.9277-0.6289 0 0 0.4551-1.1231 1.3535-2.2461s2.1354-2.125 3.7188-2.125c1.5833 0 2.8203 1.002 3.7187 2.125s1.3535 2.2461 1.3535 2.2461c0.2053 0.512 0.7865 0.7611 1.2989 0.5566 0.512-0.2053 0.7611-0.7864 0.5566-1.2988 0 0-0.5449-1.3769-1.6465-2.7539s-2.8646-2.875-5.2812-2.875c-2.4167 0-4.1797 1.498-5.2813 2.875-0.8498 1.0623-1.0766 1.6951-1.2695 2.125h-2.4492v-15h18.006l0.0996 19h-18.994c-0.2652 0-0.5196 0.1053-0.7071 0.2929-0.1875 0.1875-0.2929 0.4419-0.2929 0.7071s0.1054 0.5196 0.2929 0.7071 0.4419 0.2929 0.7071 0.2929h20c0.2662 0 0.5215-0.1062 0.7092-0.295s0.2923-0.4446 0.2908-0.7109l-0.1113-21c-0.0033-0.5499-0.45-0.9941-1-0.9941zm10 5c-0.6631 0-1.299 0.2634-1.7678 0.7322-0.4688 0.4689-0.7322 1.1047-0.7322 1.7678 0 1.3807 1.1193 2.5 2.5 2.5 0.663 0 1.2989-0.2634 1.7677-0.7322 0.4689-0.4689 0.7323-1.1048 0.7323-1.7678 0-0.6631-0.2634-1.2989-0.7323-1.7678-0.4688-0.4688-1.1047-0.7322-1.7677-0.7322z" color="#000000" stop-color="#000000" style="-inkscape-stroke:none;font-variation-settings:normal;paint-order:normal"/>
		<path d="m20.5 30.778c-0.5523 0-1 0.4477-1 1v17c0 0.5523 0.4477 0.9999 1 1h4c0.4087-4e-4 0.776-0.2494 0.9277-0.6289 0 0 0.4551-1.1231 1.3535-2.2461s2.1354-2.125 3.7188-2.125c1.5833 0 2.8203 1.002 3.7187 2.125s1.3535 2.2461 1.3535 2.2461c0.2053 0.512 0.7865 0.7611 1.2989 0.5566 0.512-0.2053 0.7611-0.7864 0.5566-1.2988 0 0-0.5449-1.3769-1.6465-2.7539s-2.8646-2.875-5.2812-2.875c-2.4167 0-4.1797 1.498-5.2813 2.875-0.8498 1.0623-1.0766 1.6951-1.2695 2.125h-2.4492v-15h18.006l0.0996 19h-18.994c-0.2652 0-0.5196 0.1053-0.7071 0.2929-0.1875 0.1875-0.2929 0.4419-0.2929 0.7071s0.1054 0.5196 0.2929 0.7071 0.4419 0.2929 0.7071 0.2929h20c0.2662 0 0.5215-0.1062 0.7092-0.295s0.2923-0.4446 0.2908-0.7109l-0.1113-21c-0.0033-0.5499-0.45-0.9941-1-0.9941zm10 5c-0.6631 0-1.299 0.2634-1.7678 0.7322-0.4688 0.4689-0.7322 1.1048-0.7322 1.7678 0 1.3807 1.1193 2.5 2.5 2.5 0.663 0 1.2989-0.2634 1.7677-0.7322 0.4689-0.4689 0.7323-1.1048 0.7323-1.7678s-0.2634-1.2989-0.7323-1.7678c-0.4688-0.4688-1.1047-0.7322-1.7677-0.7322z" color="#000000" stop-color="#000000" style="-inkscape-stroke:none;font-variation-settings:normal;paint-order:normal"/>
		<path d="m20.5 30.608c-0.5523 0-1 0.4477-1 1v17c0 0.5522 0.4477 0.9999 1 1h4c0.4087-4e-4 0.776-0.2494 0.9277-0.6289 0 0 0.4551-1.1231 1.3535-2.2461 0.8984-1.1231 2.1354-2.125 3.7188-2.125 1.5833 0 2.8203 1.0019 3.7187 2.125 0.8984 1.123 1.3535 2.2461 1.3535 2.2461 0.2053 0.512 0.7865 0.7611 1.2989 0.5566 0.512-0.2053 0.7611-0.7865 0.5566-1.2988 0 0-0.5449-1.377-1.6465-2.7539-1.1016-1.377-2.8646-2.875-5.2812-2.875-2.4167 0-4.1797 1.498-5.2813 2.875-0.8498 1.0623-1.0766 1.6951-1.2695 2.125h-2.4492v-15h18.006l0.0996 19h-18.994c-0.2652 0-0.5196 0.1053-0.7071 0.2929-0.1875 0.1875-0.2929 0.4418-0.2929 0.7071 0 0.2652 0.1054 0.5195 0.2929 0.7071 0.1875 0.1875 0.4419 0.2929 0.7071 0.2929h20c0.2662-1e-4 0.5215-0.1062 0.7092-0.295s0.2923-0.4447 0.2908-0.7109l-0.1113-21c-0.0033-0.55-0.45-0.9941-1-0.9941zm10 5c-0.6631 0-1.299 0.2634-1.7678 0.7322s-0.7322 1.1047-0.7322 1.7678c0 1.3807 1.1193 2.5 2.5 2.5 0.663 0 1.2989-0.2634 1.7677-0.7323 0.4689-0.4688 0.7323-1.1047 0.7323-1.7677 0-0.6631-0.2634-1.299-0.7323-1.7678-0.4688-0.4688-1.1047-0.7322-1.7677-0.7322z" color="#000000" stop-color="#000000" style="-inkscape-stroke:none;font-variation-settings:normal;paint-order:normal"/>
		<path d="m20.5 30.443c-0.5523 0-1 0.4477-1 1v17c0 0.5522 0.4477 0.9999 1 1h4c0.4087-4e-4 0.776-0.2494 0.9277-0.6289 0 0 0.4551-1.1231 1.3535-2.2461 0.8984-1.1231 2.1354-2.125 3.7188-2.125 1.5833 0 2.8203 1.0019 3.7187 2.125 0.8984 1.123 1.3535 2.2461 1.3535 2.2461 0.2053 0.512 0.7865 0.7611 1.2989 0.5566 0.512-0.2053 0.7611-0.7865 0.5566-1.2988 0 0-0.5449-1.377-1.6465-2.7539-1.1016-1.377-2.8646-2.875-5.2812-2.875-2.4167 0-4.1797 1.498-5.2813 2.875-0.8498 1.0623-1.0766 1.6951-1.2695 2.125h-2.4492v-15h18.006l0.0996 19h-18.994c-0.2652 0-0.5196 0.1053-0.7071 0.2929-0.1875 0.1875-0.2929 0.4419-0.2929 0.7071s0.1054 0.5195 0.2929 0.7071c0.1875 0.1875 0.4419 0.2929 0.7071 0.2929h20c0.2662 0 0.5215-0.1062 0.7092-0.295s0.2923-0.4447 0.2908-0.7109l-0.1113-21c-0.0033-0.55-0.45-0.9941-1-0.9941zm10 5c-0.6631 0-1.299 0.2634-1.7678 0.7322-0.4688 0.4689-0.7322 1.1047-0.7322 1.7678 0 1.3807 1.1193 2.5 2.5 2.5 0.663 0 1.2989-0.2634 1.7677-0.7323 0.4689-0.4688 0.7323-1.1047 0.7323-1.7677 0-0.6631-0.2634-1.2989-0.7323-1.7678-0.4688-0.4688-1.1047-0.7322-1.7677-0.7322z" color="#000000" stop-color="#000000" style="-inkscape-stroke:none;font-variation-settings:normal;paint-order:normal"/>
		<path d="m20.5 30.282c-0.5523 1e-4 -1 0.4478-1 1v17c0 0.5523 0.4477 1 1 1h4c0.4087-3e-4 0.776-0.2494 0.9277-0.6289 0 0 0.4551-1.123 1.3535-2.2461 0.8984-1.123 2.1354-2.125 3.7188-2.125 1.5833 0 2.8203 1.002 3.7187 2.125 0.8984 1.1231 1.3535 2.2461 1.3535 2.2461 0.2053 0.5121 0.7865 0.7612 1.2989 0.5567 0.512-0.2053 0.7611-0.7865 0.5566-1.2988 0 0-0.5449-1.377-1.6465-2.754-1.1016-1.3769-2.8646-2.875-5.2812-2.875-2.4167 0-4.1797 1.4981-5.2813 2.875-0.8498 1.0624-1.0766 1.6952-1.2695 2.125h-2.4492v-15h18.006l0.0996 19h-18.994c-0.2652 0-0.5196 0.1054-0.7071 0.2929-0.1875 0.1876-0.2929 0.4419-0.2929 0.7071 0 0.2653 0.1054 0.5196 0.2929 0.7072 0.1875 0.1875 0.4419 0.2928 0.7071 0.2928h20c0.2662 0 0.5215-0.1061 0.7092-0.2949s0.2923-0.4447 0.2908-0.7109l-0.1113-21c-0.0033-0.55-0.45-0.9941-1-0.9942zm10 5c-0.6631 0-1.299 0.2634-1.7678 0.7323-0.4688 0.4688-0.7322 1.1047-0.7322 1.7677 0 1.3808 1.1193 2.5 2.5 2.5 0.663 0 1.2989-0.2633 1.7677-0.7322 0.4689-0.4688 0.7323-1.1047 0.7323-1.7678 0-0.663-0.2634-1.2989-0.7323-1.7677-0.4688-0.4689-1.1047-0.7323-1.7677-0.7323z" color="#000000" stop-color="#000000" style="-inkscape-stroke:none;font-variation-settings:normal;paint-order:normal"/>
		<path d="m20.5 30.125c-0.5523 1e-4 -1 0.4478-1 1v17c0 0.5523 0.4477 1 1 1h4c0.4087-3e-4 0.776-0.2494 0.9277-0.6289 0 0 0.4551-1.123 1.3535-2.2461 0.8984-1.123 2.1354-2.125 3.7188-2.125 1.5833 0 2.8203 1.002 3.7187 2.125 0.8984 1.1231 1.3535 2.2461 1.3535 2.2461 0.2053 0.5121 0.7865 0.7612 1.2989 0.5567 0.512-0.2053 0.7611-0.7865 0.5566-1.2988 0 0-0.5449-1.377-1.6465-2.754-1.1016-1.3769-2.8646-2.875-5.2812-2.875-2.4167 0-4.1797 1.4981-5.2813 2.875-0.8498 1.0624-1.0766 1.6952-1.2695 2.125h-2.4492v-15h18.006l0.0996 19h-18.994c-0.2652 0-0.5196 0.1054-0.7071 0.2929-0.1875 0.1876-0.2929 0.4419-0.2929 0.7071 0 0.2653 0.1054 0.5196 0.2929 0.7072 0.1875 0.1875 0.4419 0.2928 0.7071 0.2928h20c0.2662 0 0.5215-0.1061 0.7092-0.2949s0.2923-0.4447 0.2908-0.7109l-0.1113-21c-0.0033-0.55-0.45-0.9941-1-0.9942zm10 5c-0.6631 0-1.299 0.2634-1.7678 0.7323-0.4688 0.4688-0.7322 1.1047-0.7322 1.7677 0 1.3808 1.1193 2.5 2.5 2.5 0.663 0 1.2989-0.2633 1.7677-0.7322 0.4689-0.4688 0.7323-1.1047 0.7323-1.7678 0-0.663-0.2634-1.2989-0.7323-1.7677-0.4688-0.4689-1.1047-0.7323-1.7677-0.7323z" color="#000000" stop-color="#000000" style="-inkscape-stroke:none;font-variation-settings:normal;paint-order:normal"/>
		<path d="m20.5 29.973c-0.5523 0-1 0.4477-1 1v17c0 0.5522 0.4477 0.9999 1 1h4c0.4087-4e-4 0.776-0.2494 0.9277-0.6289 0 0 0.4551-1.1231 1.3535-2.2461 0.8984-1.1231 2.1354-2.125 3.7188-2.125 1.5833 0 2.8203 1.0019 3.7187 2.125 0.8984 1.123 1.3535 2.2461 1.3535 2.2461 0.2053 0.512 0.7865 0.7611 1.2989 0.5566 0.512-0.2053 0.7611-0.7865 0.5566-1.2988 0 0-0.5449-1.377-1.6465-2.7539-1.1016-1.377-2.8646-2.875-5.2812-2.875-2.4167 0-4.1797 1.498-5.2813 2.875-0.8498 1.0623-1.0766 1.6951-1.2695 2.125h-2.4492v-15h18.006l0.0996 19h-18.994c-0.2652 0-0.5196 0.1053-0.7071 0.2929-0.1875 0.1875-0.2929 0.4419-0.2929 0.7071s0.1054 0.5195 0.2929 0.7071c0.1875 0.1875 0.4419 0.2929 0.7071 0.2929h20c0.2662 0 0.5215-0.1062 0.7092-0.295s0.2923-0.4447 0.2908-0.7109l-0.1113-21c-0.0033-0.55-0.45-0.9941-1-0.9941zm10 5c-0.6631 0-1.299 0.2634-1.7678 0.7322s-0.7322 1.1047-0.7322 1.7678c0 1.3807 1.1193 2.5 2.5 2.5 0.663 0 1.2989-0.2634 1.7677-0.7323 0.4689-0.4688 0.7323-1.1047 0.7323-1.7677 0-0.6631-0.2634-1.299-0.7323-1.7678-0.4688-0.4688-1.1047-0.7322-1.7677-0.7322z" color="#000000" stop-color="#000000" style="-inkscape-stroke:none;font-variation-settings:normal;paint-order:normal"/>
		<path d="m20.5 29.824c-0.5523 0-1 0.4477-1 1v17c0 0.5522 0.4477 0.9999 1 1h4c0.4087-4e-4 0.776-0.2494 0.9277-0.6289 0 0 0.4551-1.1231 1.3535-2.2461 0.8984-1.1231 2.1354-2.125 3.7188-2.125 1.5833 0 2.8203 1.0019 3.7187 2.125 0.8984 1.123 1.3535 2.2461 1.3535 2.2461 0.2053 0.512 0.7865 0.7611 1.2989 0.5566 0.512-0.2053 0.7611-0.7865 0.5566-1.2988 0 0-0.5449-1.377-1.6465-2.7539-1.1016-1.377-2.8646-2.875-5.2812-2.875-2.4167 0-4.1797 1.498-5.2813 2.875-0.8498 1.0623-1.0766 1.6951-1.2695 2.125h-2.4492v-15h18.006l0.0996 19h-18.994c-0.2652 0-0.5196 0.1053-0.7071 0.2929-0.1875 0.1875-0.2929 0.4418-0.2929 0.7071 0 0.2652 0.1054 0.5195 0.2929 0.7071 0.1875 0.1875 0.4419 0.2929 0.7071 0.2929h20c0.2662-1e-4 0.5215-0.1062 0.7092-0.295s0.2923-0.4447 0.2908-0.7109l-0.1113-21c-0.0033-0.55-0.45-0.9941-1-0.9941zm10 5c-0.6631 0-1.299 0.2634-1.7678 0.7322s-0.7322 1.1047-0.7322 1.7678c0 1.3807 1.1193 2.5 2.5 2.5 0.663 0 1.2989-0.2634 1.7677-0.7323 0.4689-0.4688 0.7323-1.1047 0.7323-1.7677 0-0.6631-0.2634-1.299-0.7323-1.7678-0.4688-0.4688-1.1047-0.7322-1.7677-0.7322z" color="#000000" stop-color="#000000" style="-inkscape-stroke:none;font-variation-settings:normal;paint-order:normal"/>
		<path d="m20.5 29.679c-0.5523 0-1 0.4477-1 1v17c0 0.5522 0.4477 0.9999 1 1h4c0.4087-4e-4 0.776-0.2494 0.9277-0.6289 0 0 0.4551-1.1231 1.3535-2.2461s2.1354-2.125 3.7188-2.125c1.5833 0 2.8203 1.002 3.7187 2.125s1.3535 2.2461 1.3535 2.2461c0.2053 0.512 0.7865 0.7611 1.2989 0.5566 0.512-0.2053 0.7611-0.7864 0.5566-1.2988 0 0-0.5449-1.3769-1.6465-2.7539s-2.8646-2.875-5.2812-2.875c-2.4167 0-4.1797 1.498-5.2813 2.875-0.8498 1.0623-1.0766 1.6951-1.2695 2.125h-2.4492v-15h18.006l0.0996 19h-18.994c-0.2652 0-0.5196 0.1053-0.7071 0.2929-0.1875 0.1875-0.2929 0.4419-0.2929 0.7071s0.1054 0.5196 0.2929 0.7071 0.4419 0.2929 0.7071 0.2929h20c0.2662 0 0.5215-0.1062 0.7092-0.295s0.2923-0.4447 0.2908-0.7109l-0.1113-21c-0.0033-0.5499-0.45-0.9941-1-0.9941zm10 5c-0.6631 0-1.299 0.2634-1.7678 0.7322-0.4688 0.4689-0.7322 1.1047-0.7322 1.7678 0 1.3807 1.1193 2.5 2.5 2.5 0.663 0 1.2989-0.2634 1.7677-0.7323 0.4689-0.4688 0.7323-1.1047 0.7323-1.7677 0-0.6631-0.2634-1.2989-0.7323-1.7678-0.4688-0.4688-1.1047-0.7322-1.7677-0.7322z" color="#000000" stop-color="#000000" style="-inkscape-stroke:none;font-variation-settings:normal;paint-order:normal"/>
		<path d="m20.5 29.538c-0.5523 1e-4 -1 0.4477-1 1v17c0 0.5523 0.4477 1 1 1h4c0.4087-4e-4 0.776-0.2494 0.9277-0.6289 0 0 0.4551-1.1231 1.3535-2.2461s2.1354-2.125 3.7188-2.125c1.5833 0 2.8203 1.002 3.7187 2.125s1.3535 2.2461 1.3535 2.2461c0.2053 0.512 0.7865 0.7611 1.2989 0.5566 0.512-0.2052 0.7611-0.7864 0.5566-1.2988 0 0-0.5449-1.3769-1.6465-2.7539s-2.8646-2.875-5.2812-2.875c-2.4167 0-4.1797 1.498-5.2813 2.875-0.8498 1.0623-1.0766 1.6951-1.2695 2.125h-2.4492v-15h18.006l0.0996 19h-18.994c-0.2652 0-0.5196 0.1054-0.7071 0.2929s-0.2929 0.4419-0.2929 0.7071 0.1054 0.5196 0.2929 0.7071c0.1875 0.1876 0.4419 0.2929 0.7071 0.2929h20c0.2662 0 0.5215-0.1062 0.7092-0.295s0.2923-0.4446 0.2908-0.7108l-0.1113-21c-0.0033-0.55-0.45-0.9941-1-0.9942zm10 5c-0.6631 0-1.299 0.2634-1.7678 0.7322-0.4688 0.4689-0.7322 1.1048-0.7322 1.7678 0 1.3807 1.1193 2.5 2.5 2.5 0.663 0 1.2989-0.2634 1.7677-0.7322 0.4689-0.4689 0.7323-1.1047 0.7323-1.7678 0-0.663-0.2634-1.2989-0.7323-1.7678-0.4688-0.4688-1.1047-0.7322-1.7677-0.7322z" color="#000000" stop-color="#000000" style="-inkscape-stroke:none;font-variation-settings:normal;paint-order:normal"/>
		<path d="m20.5 29.399c-0.5523 0-1 0.4477-1 1v17c0 0.5522 0.4477 0.9999 1 1h4c0.4087-4e-4 0.776-0.2494 0.9277-0.629 0 0 0.4551-1.123 1.3535-2.246 0.8984-1.1231 2.1354-2.125 3.7188-2.125 1.5833 0 2.8203 1.0019 3.7187 2.125 0.8984 1.123 1.3535 2.246 1.3535 2.246 0.2053 0.5121 0.7865 0.7612 1.2989 0.5567 0.512-0.2053 0.7611-0.7865 0.5566-1.2988 0 0-0.5449-1.377-1.6465-2.7539-1.1016-1.377-2.8646-2.875-5.2812-2.875-2.4167 0-4.1797 1.498-5.2813 2.875-0.8498 1.0623-1.0766 1.6951-1.2695 2.125h-2.4492v-15h18.006l0.0996 19h-18.994c-0.2652 0-0.5196 0.1053-0.7071 0.2928-0.1875 0.1876-0.2929 0.4419-0.2929 0.7072 0 0.2652 0.1054 0.5195 0.2929 0.7071 0.1875 0.1875 0.4419 0.2929 0.7071 0.2929h20c0.2662-1e-4 0.5215-0.1062 0.7092-0.295s0.2923-0.4447 0.2908-0.7109l-0.1113-21c-0.0033-0.55-0.45-0.9941-1-0.9941zm10 5c-0.6631 0-1.299 0.2633-1.7678 0.7322-0.4688 0.4688-0.7322 1.1047-0.7322 1.7678 0 1.3807 1.1193 2.5 2.5 2.5 0.663 0 1.2989-0.2634 1.7677-0.7323 0.4689-0.4688 0.7323-1.1047 0.7323-1.7677 0-0.6631-0.2634-1.299-0.7323-1.7678-0.4688-0.4689-1.1047-0.7322-1.7677-0.7322z" color="#000000" stop-color="#000000" style="-inkscape-stroke:none;font-variation-settings:normal;paint-order:normal"/>
		<path d="m20.5 29.263c-0.5523 1e-4 -1 0.4478-1 1v17c0 0.5523 0.4477 1 1 1h4c0.4087-3e-4 0.776-0.2494 0.9277-0.6289 0 0 0.4551-1.123 1.3535-2.2461 0.8984-1.123 2.1354-2.125 3.7188-2.125 1.5833 0 2.8203 1.002 3.7187 2.125 0.8984 1.1231 1.3535 2.2461 1.3535 2.2461 0.2053 0.5121 0.7865 0.7611 1.2989 0.5567 0.512-0.2053 0.7611-0.7865 0.5566-1.2989 0 0-0.5449-1.3769-1.6465-2.7539-1.1016-1.3769-2.8646-2.875-5.2812-2.875-2.4167 0-4.1797 1.4981-5.2813 2.875-0.8498 1.0623-1.0766 1.6952-1.2695 2.125h-2.4492v-15h18.006l0.0996 19h-18.994c-0.2652 0-0.5196 0.1054-0.7071 0.2929-0.1875 0.1876-0.2929 0.4419-0.2929 0.7071 0 0.2653 0.1054 0.5196 0.2929 0.7071 0.1875 0.1876 0.4419 0.2929 0.7071 0.2929h20c0.2662 0 0.5215-0.1062 0.7092-0.295s0.2923-0.4446 0.2908-0.7108l-0.1113-21c-0.0033-0.55-0.45-0.9941-1-0.9942zm10 5c-0.6631 0-1.299 0.2634-1.7678 0.7323-0.4688 0.4688-0.7322 1.1047-0.7322 1.7677 0 1.3808 1.1193 2.5 2.5 2.5 0.663 0 1.2989-0.2634 1.7677-0.7322 0.4689-0.4688 0.7323-1.1047 0.7323-1.7678 0-0.663-0.2634-1.2989-0.7323-1.7677-0.4688-0.4689-1.1047-0.7323-1.7677-0.7323z" color="#000000" stop-color="#000000" style="-inkscape-stroke:none;font-variation-settings:normal;paint-order:normal"/>
		<path d="m20.5 29.13c-0.5523 1e-4 -1 0.4477-1 1v17c0 0.5523 0.4477 0.9999 1 1h4c0.4087-4e-4 0.776-0.2494 0.9277-0.6289 0 0 0.4551-1.1231 1.3535-2.2461s2.1354-2.125 3.7188-2.125c1.5833 0 2.8203 1.002 3.7187 2.125s1.3535 2.2461 1.3535 2.2461c0.2053 0.512 0.7865 0.7611 1.2989 0.5566 0.512-0.2053 0.7611-0.7864 0.5566-1.2988 0 0-0.5449-1.3769-1.6465-2.7539s-2.8646-2.875-5.2812-2.875c-2.4167 0-4.1797 1.498-5.2813 2.875-0.8498 1.0623-1.0766 1.6951-1.2695 2.125h-2.4492v-15h18.006l0.0996 19h-18.994c-0.2652 0-0.5196 0.1054-0.7071 0.2929s-0.2929 0.4419-0.2929 0.7071 0.1054 0.5196 0.2929 0.7071 0.4419 0.2929 0.7071 0.2929h20c0.2662 0 0.5215-0.1062 0.7092-0.295s0.2923-0.4446 0.2908-0.7109l-0.1113-21c-0.0033-0.5499-0.45-0.9941-1-0.9941zm10 5c-0.6631 0-1.299 0.2634-1.7678 0.7322-0.4688 0.4689-0.7322 1.1048-0.7322 1.7678 0 1.3807 1.1193 2.5 2.5 2.5 0.663 0 1.2989-0.2634 1.7677-0.7322 0.4689-0.4689 0.7323-1.1048 0.7323-1.7678s-0.2634-1.2989-0.7323-1.7678c-0.4688-0.4688-1.1047-0.7322-1.7677-0.7322z" color="#000000" stop-color="#000000" style="-inkscape-stroke:none;font-variation-settings:normal;paint-order:normal"/>
		<path d="m20.5 29c-0.5523 1e-4 -1 0.4477-1 1v17c0 0.5523 0.4477 0.9999 1 1h4c0.4087-4e-4 0.776-0.2494 0.9277-0.6289 0 0 0.4551-1.1231 1.3535-2.2461s2.1354-2.125 3.7188-2.125c1.5833 0 2.8203 1.002 3.7187 2.125s1.3535 2.2461 1.3535 2.2461c0.2053 0.512 0.7865 0.7611 1.2989 0.5566 0.512-0.2053 0.7611-0.7864 0.5566-1.2988 0 0-0.5449-1.3769-1.6465-2.7539s-2.8646-2.875-5.2812-2.875c-2.4167 0-4.1797 1.498-5.2813 2.875-0.8498 1.0623-1.0766 1.6951-1.2695 2.125h-2.4492v-15h18.006l0.0996 19h-18.994c-0.2652 0-0.5196 0.1054-0.7071 0.2929s-0.2929 0.4419-0.2929 0.7071 0.1054 0.5196 0.2929 0.7071 0.4419 0.2929 0.7071 0.2929h20c0.2662 0 0.5215-0.1062 0.7092-0.295s0.2923-0.4446 0.2908-0.7109l-0.1113-21c-0.0033-0.5499-0.45-0.9941-1-0.9941zm10 5c-0.6631 0-1.299 0.2634-1.7678 0.7322-0.4688 0.4689-0.7322 1.1048-0.7322 1.7678 0 1.3807 1.1193 2.5 2.5 2.5 0.663 0 1.2989-0.2634 1.7677-0.7322 0.4689-0.4689 0.7323-1.1048 0.7323-1.7678s-0.2634-1.2989-0.7323-1.7678c-0.4688-0.4688-1.1047-0.7322-1.7677-0.7322z" color="#000000" stop-color="#000000" style="-inkscape-stroke:none;font-variation-settings:normal;paint-order:normal"/>
	</g>
</svg>
