<?xml version="1.0" encoding="UTF-8"?>
<svg width="64" height="64" version="1.1" xmlns="http://www.w3.org/2000/svg" xmlns:xlink="http://www.w3.org/1999/xlink">
	<defs>
		<radialGradient id="z" cx="33" cy="35" r="24" gradientUnits="userSpaceOnUse">
			<stop stop-color="#0ffff4" stop-opacity=".331" offset="0"/>
			<stop stop-color="#07c0ff" stop-opacity=".098" offset=".5"/>
			<stop stop-color="#04bcff" stop-opacity=".032" offset=".75"/>
			<stop stop-color="#01bdff" stop-opacity="0" offset="1"/>
		</radialGradient>
		<radialGradient id="w" cx="32.052" cy="32.374" r="2" gradientTransform="matrix(-2.1311 0 0 -13.544 99.866 453.89)" gradientUnits="userSpaceOnUse">
			<stop stop-color="#44ffbd" offset="0"/>
			<stop stop-color="#0069f6" stop-opacity=".204" offset=".5"/>
			<stop stop-color="#0065ee" stop-opacity="0" offset="1"/>
		</radialGradient>
		<radialGradient id="A" cx="9.5" cy="42.667" r="3.5" gradientTransform="matrix(0 1.143 -1.5716 0 76.556 32.146)" gradientUnits="userSpaceOnUse" xlink:href="#a"/>
		<radialGradient id="B" cx="8.625" cy="28.985" r="3.5" gradientTransform="matrix(0 1.143 -1.5716 0 76.556 32.146)" gradientUnits="userSpaceOnUse" xlink:href="#a"/>
		<radialGradient id="C" cx="9.5" cy="41.5" r="3.5" gradientTransform="matrix(0 2.286 -7.2865 0 320.39 21.288)" gradientUnits="userSpaceOnUse" xlink:href="#a"/>
		<radialGradient id="v" cx="122.05" cy="1.45" r="31.76" gradientTransform="matrix(0 .02013 -1.1972 0 34.259 1.303)" gradientUnits="userSpaceOnUse">
			<stop stop-color="#fff" offset="0"/>
			<stop stop-color="#8ef4ff" stop-opacity="0" offset="1"/>
		</radialGradient>
		<radialGradient id="u" cx="28.444" cy="-1.667" r="31.76" gradientTransform="matrix(0 .99134 -5.0677 -.00045 23.677 -26.201)" gradientUnits="userSpaceOnUse" xlink:href="#b"/>
		<radialGradient id="t" cx="28.444" cy="-1.681" r="32" gradientTransform="matrix(0 .98389 -5.0295 -.00044 23.668 -25.989)" gradientUnits="userSpaceOnUse" xlink:href="#b"/>
		<radialGradient id="s" cx="28.444" cy="-1.678" r="31.971" gradientTransform="matrix(0 .98478 -5.0341 -.00044 23.677 -26.014)" gradientUnits="userSpaceOnUse" xlink:href="#b"/>
		<radialGradient id="r" cx="28.444" cy="-1.675" r="31.944" gradientTransform="matrix(0 .9856 -5.0384 -.00044 23.685 -26.038)" gradientUnits="userSpaceOnUse" xlink:href="#b"/>
		<radialGradient id="q" cx="28.444" cy="-1.672" r="31.92" gradientTransform="matrix(0 .98637 -5.0423 -.00044 23.693 -26.06)" gradientUnits="userSpaceOnUse" xlink:href="#b"/>
		<radialGradient id="p" cx="28.444" cy="-1.678" r="31.897" gradientTransform="matrix(0 .98708 -5.046 -.00044 23.657 -26.08)" gradientUnits="userSpaceOnUse" xlink:href="#b"/>
		<radialGradient id="o" cx="28.444" cy="-1.675" r="31.875" gradientTransform="matrix(0 .98774 -5.0493 -.00044 23.664 -26.099)" gradientUnits="userSpaceOnUse" xlink:href="#b"/>
		<radialGradient id="n" cx="28.444" cy="-1.678" r="31.856" gradientTransform="matrix(0 .98834 -5.0524 -.00044 23.646 -26.116)" gradientUnits="userSpaceOnUse" xlink:href="#b"/>
		<radialGradient id="m" cx="28.444" cy="-1.676" r="31.839" gradientTransform="matrix(0 .98888 -5.0551 -.00044 23.652 -26.131)" gradientUnits="userSpaceOnUse" xlink:href="#b"/>
		<radialGradient id="l" cx="28.444" cy="-1.674" r="31.823" gradientTransform="matrix(0 .98937 -5.0576 -.00044 23.657 -26.145)" gradientUnits="userSpaceOnUse" xlink:href="#b"/>
		<radialGradient id="k" cx="28.444" cy="-1.673" r="31.809" gradientTransform="matrix(0 .9898 -5.0598 -.00044 23.661 -26.157)" gradientUnits="userSpaceOnUse" xlink:href="#b"/>
		<radialGradient id="j" cx="28.444" cy="-1.671" r="31.797" gradientTransform="matrix(0 .99017 -5.0618 -.00045 23.665 -26.168)" gradientUnits="userSpaceOnUse" xlink:href="#b"/>
		<radialGradient id="i" cx="28.444" cy="-1.67" r="31.787" gradientTransform="matrix(0 .99049 -5.0634 -.00045 23.668 -26.177)" gradientUnits="userSpaceOnUse" xlink:href="#b"/>
		<radialGradient id="h" cx="28.444" cy="-1.669" r="31.778" gradientTransform="matrix(0 .99076 -5.0648 -.00045 23.671 -26.185)" gradientUnits="userSpaceOnUse" xlink:href="#b"/>
		<radialGradient id="g" cx="28.444" cy="-1.668" r="31.771" gradientTransform="matrix(0 .99098 -5.0659 -.00045 23.673 -26.191)" gradientUnits="userSpaceOnUse" xlink:href="#b"/>
		<radialGradient id="f" cx="28.444" cy="-1.667" r="31.766" gradientTransform="matrix(0 .99114 -5.0667 -.00045 23.675 -26.195)" gradientUnits="userSpaceOnUse" xlink:href="#b"/>
		<radialGradient id="e" cx="28.444" cy="-1.667" r="31.762" gradientTransform="matrix(0 .99125 -5.0673 -.00045 23.676 -26.199)" gradientUnits="userSpaceOnUse" xlink:href="#b"/>
		<radialGradient id="d" cx="28.444" cy="-1.667" r="31.76" gradientTransform="matrix(0 .99132 -5.0676 -.00045 23.677 -26.2)" gradientUnits="userSpaceOnUse" xlink:href="#b"/>
		<radialGradient id="c" cx="31.744" cy="30.855" r="32" gradientTransform="translate(-68.939 -5.53) scale(1.1554)" gradientUnits="userSpaceOnUse">
			<stop stop-color="#32536e" offset="0"/>
			<stop stop-color="#546657" offset=".507"/>
			<stop stop-color="#3f4b5e" offset="1"/>
		</radialGradient>
		<linearGradient id="a">
			<stop stop-color="#233344" offset="0"/>
			<stop stop-color="#293d51" offset="1"/>
		</linearGradient>
		<linearGradient id="y" x1="24.556" x2="38.875" y1="29.125" y2="43.444" gradientUnits="userSpaceOnUse">
			<stop stop-color="#3b444e" offset="0"/>
			<stop stop-color="#444d58" offset="1"/>
		</linearGradient>
		<linearGradient id="b">
			<stop stop-color="#bfe3e8" stop-opacity=".062" offset="0"/>
			<stop stop-color="#98ffe1" stop-opacity="0" offset="1"/>
		</linearGradient>
		<radialGradient id="w-3-5" cx="32.052" cy="32.374" r="2" gradientTransform="matrix(0 -2.8752 24.134 0 -730.63 143.87)" gradientUnits="userSpaceOnUse">
			<stop stop-color="#70fff5" stop-opacity=".53725" offset="0"/>
			<stop stop-color="#0379ff" stop-opacity=".20836" offset=".12059"/>
			<stop stop-color="#0065ee" stop-opacity="0" offset="1"/>
		</radialGradient>
	</defs>
	<g transform="scale(.99989)">
		<rect transform="scale(-1 1)" x="-64.007" width="64.007" height="64.007" rx="1" ry="1" fill="url(#c)" paint-order="fill markers stroke"/>
		<g paint-order="fill markers stroke">
			<path d="M.242.24C.241.24.24.81.24 1.844v61.917c0 .002.511.004 1.442.004l1.605.002h60.47c.005 0 .007-1.05.007-2.884.002-.482.003-1.018.003-1.605V.254c0-.007-1.614-.01-4.326-.01C58.943.24 58.407.24 57.837.24H.257m.029 3.603h63.437s.002.966.002 2.656v56.864c0 .001-.511.002-1.44.002h-2.596L.283 63.363v-1.366L.285 5.29V3.844" fill="url(#d)"/>
			<path d="M.249.238a50 50 0 0 0-.011 1.6v61.905c0 .01.507.015 1.43.015.438.007.976.012 1.6.012h60.458c.02 0 .032-1.043.032-2.86.006-.477.011-1.013.011-1.6V.299c0-.03-1.6-.048-4.29-.048C58.986.245 58.45.24 57.88.24H.31M.305 3.86h63.4c.006 0 .01.961.01 2.641v56.853c0 .006-.51.01-1.435.01H.529a1.43 1.43 0 0 1-.236-.01v-1.848c0-7.698.005-47.872.01-56.212V3.86" fill="url(#e)"/>
			<path d="M.26.234c-.014 0-.026.568-.026 1.59V63.71c0 .024.5.037 1.408.037.432.015.97.026 1.59.026h60.441c.047 0 .074-1.027.074-2.816.015-.47.026-1.005.026-1.59V.373c0-.07-1.576-.111-4.224-.111a52.97 52.97 0 0 0-1.59-.026H.409M.338 3.888h63.334c.013 0 .308.977.024 2.614v56.834c0 .013-.51.023-1.428.023H.557c-.16-.003-.244-.012-.244-.023v-2.695c0-7.588.01-47.13.025-55.342V3.89" fill="url(#f)"/>
			<path d="M.277.229C.25.229.229.794.229 1.806v61.857c0 .043.488.067 1.377.067.525.033 1.051.049 1.577.048h60.412c.086 0 .136-1.004.136-2.753.026-.46.048-.992.048-1.577V.48c0-.128-1.54-.203-4.13-.203A28.164 28.164 0 0 0 58.072.23H.549M.386 3.927h63.239c.024 0 .243.952.044 2.576V63.31c0 .023-.507.042-1.417.042H.595c-.164-.006-.253-.022-.253-.042v-3.92c0-7.429.02-46.052.044-54.082v-1.38" fill="url(#g)"/>
			<path d="M.298.222c-.042 0-.076.562-.076 1.56V63.6c0 .07.473.11 1.335.11.41.041.942.075 1.56.075h60.376c.137 0 .216-.974.216-2.67.043-.446.077-.976.077-1.56V.624c0-.204-1.495-.325-4.006-.325-.519-.05-1.04-.075-1.56-.076H.734M.448 3.979h63.114c.039 0 .212.93.07 2.525v56.77c0 .038-.503.068-1.401.068h-6.708c-10.775 0-51.605 0-54.878-.002-.171-.007-.267-.034-.267-.066v-5.533c0-7.22.032-44.635.07-52.423v-1.34" fill="url(#h)"/>
			<path d="M.326.213C.263.213.213.771.213 1.751v61.771c0 .103.455.16 1.284.16.394.061.922.111 1.54.111h60.326c.202 0 .318-.936.318-2.567.062-.43.113-.956.113-1.538V.8c0-.298-1.437-.476-3.851-.476-.51-.073-1.023-.11-1.538-.112H.96M.525 4.045h62.958c.057 0 .103.904.103 2.461v56.726c0 .055-.5.1-1.382.1H53.51c-10.362 0-49.655-.002-52.804-.004-.18-.01-.284-.05-.284-.097v-7.547c0-6.96.046-42.865.104-50.353V4.045" fill="url(#i)"/>
			<path d="M.358.203C.272.203.203.755.203 1.715V63.43c0 .142.433.22 1.222.22.375.085.9.155 1.512.155H63.21c.28 0 .44-.89.44-2.444.085-.408.155-.93.155-1.512V1.017c0-.413-1.368-.658-3.665-.658a7.65 7.65 0 0 0-1.513-.155H1.237M.62 4.124h62.77c.079 0 .218.88.142 2.385v56.67c0 .076-.495.137-1.36.137h-11.08c-9.864 0-47.31 0-50.31-.004-.19-.015-.302-.069-.302-.133v-9.966c0-6.648.063-40.74.142-47.865V4.123" fill="url(#j)"/>
			<path d="M.396.19C.282.19.191.738.191 1.673v61.648c0 .188.407.291 1.15.291a5 5 0 0 0 1.481.205H63.03c.37 0 .581-.838.581-2.297.114-.384.206-.903.206-1.482V1.27c0-.547-1.286-.872-3.447-.872a5.47 5.47 0 0 0-1.482-.205H1.559m-.83 4.024h62.549c.105 0 .19.85.19 2.296V63.12c0 .1-.491.182-1.335.182H48.259c-9.283 0-44.565-.002-47.393-.006-.203-.02-.327-.09-.327-.176V50.322c0-6.282.085-38.25.19-44.954V4.216" fill="url(#k)"/>
			<path d="M.44.177C.294.177.177.715.177 1.624v61.571c0 .24.378.372 1.066.372.327.146.841.263 1.447.263h60.133c.473 0 .744-.777.744-2.13.146-.357.263-.871.263-1.448V1.556c0-.7-1.192-1.116-3.197-1.116a4.032 4.032 0 0 0-1.446-.263H1.93M.855 4.322h62.297c.135 0 .243.817.243 2.193V63.05c0 .13-.485.233-1.304.233H45.01c-8.615 0-41.417-.002-44.044-.007-.218-.025-.354-.116-.354-.226V47.002c0-5.86.108-35.396.242-41.613V4.321" fill="url(#l)"/>
			<path d="M.49.161c-.182 0-.33.53-.33 1.407v61.486c0 .3.345.464.972.464.298.182.806.328 1.408.328h60.047c.59 0 .93-.708.93-1.943.181-.324.327-.832.327-1.407V1.884c0-.873-1.087-1.393-2.914-1.393-.335-.182-.842-.328-1.407-.328H2.348m-1.35 4.28H63.01c.168 0 .336.78.302 2.077v56.45c0 .161-.478.29-1.27.29H41.34c-7.861 0-37.86-.002-40.26-.008-.234-.03-.384-.145-.384-.282V43.252c0-5.387.135-32.17.302-37.836v-.973" fill="url(#m)"/>
			<path d="M.545.144C.323.144.144.665.144 1.507v61.387c0 .367.307.568.866.568.266.222.768.401 1.364.401h59.953c.72 0 1.134-.632 1.134-1.733.222-.289.401-.79.401-1.363V2.247c0-1.066-.97-1.701-2.599-1.701-.299-.222-.799-.401-1.363-.401H2.815m-1.658 4.43h61.695c.204 0 .369.74.369 1.95v56.358c0 .196-.471.354-1.233.354H37.24c-7.018 0-33.887-.003-36.034-.01-.253-.039-.418-.178-.418-.344V39.064c0-4.857.164-28.567.368-33.62v-.87" fill="url(#n)"/>
			<path d="M.606.125C.34.125.125.635.125 1.439V62.72c0 .44.266.68.75.68.23.268.724.482 1.315.482h59.85c.865 0 1.361-.547 1.361-1.5.267-.25.482-.744.482-1.315V2.649c0-1.28-.84-2.042-2.25-2.042-.26-.267-.752-.481-1.315-.481H3.331m-2 4.597h61.344c.246 0 .463.692.443 1.806v56.256c0 .236-.463.426-1.19.426H32.71c-6.088 0-29.496-.004-31.366-.012-.272-.046-.455-.213-.455-.414V34.436c0-4.27.197-24.586.442-28.96v-.752" fill="url(#o)"/>
			<path d="M.673.103c-.316 0-.57.5-.57 1.261v61.164c0 .52.221.806.623.806.191.316.677.57 1.262.57h59.735c1.023 0 1.61-.455 1.61-1.246.316-.208.57-.693.57-1.26V3.09c0-1.515-.697-2.417-1.868-2.417-.215-.315-.7-.57-1.26-.57H3.895M1.523 4.885H62.48c.29 0 .54.642.524 1.65V62.68c0 .28-.454.504-1.144.504H27.744c-5.068 0-24.684-.005-26.25-.015-.293-.054-.495-.252-.495-.489V29.364c0-3.63.233-20.222.523-23.856v-.624" fill="url(#p)"/>
			<path d="M.746.08C.377.08.08.568.08 1.283V62.32c0 .608.172.942.485.942.148.368.625.665 1.203.665H61.38c1.196 0 1.882-.353 1.882-.968.37-.162.665-.639.665-1.203V3.57c0-1.77-.54-2.823-1.452-2.823-.167-.368-.643-.665-1.203-.665H4.511m-2.776 4.98h60.539c.339 0 .624.586.612 1.48v56.021c0 .327-.444.59-1.095.59H22.34l-20.677-.018c-.318-.064-.54-.295-.54-.572V23.844c0-2.93.272-15.472.61-18.297v-.485" fill="url(#q)"/>
			<path d="M.824.056C.398.056.056.53.056 1.196v60.9c0 .701.118 1.087.334 1.087.102.426.57.768 1.14.768h59.476c1.382 0 2.176-.243 2.176-.668.426-.112.77-.579.77-1.14V4.09c0-2.046-.375-3.264-1.004-3.264-.115-.426-.582-.768-1.14-.768H5.176M1.961 5.25h60.087c.39 0 .715.527.707 1.295v55.891c0 .377-.434.68-1.041.68H16.496c-2.755 0-12.781-.006-13.653-.02-.344-.073-1.59-.34-1.59-.66V17.872c0-2.176.316-10.336.708-12.287V5.25" fill="url(#r)"/>
			<path d="M.91.029C.42.029.028.489.028 1.1v60.751c0 .804.061 1.246.173 1.246.053.488.51.88 1.072.88h59.333c1.583 0 2.492-.125 2.492-.345.488-.058.88-.515.88-1.073V4.647c0-2.343-.193-3.737-.518-3.737-.06-.488-.517-.88-1.073-.88H5.892M2.205 5.457h59.597c.45 0 .817.463.81 1.097v55.748c0 .432-.421.78-.982.78H10.204c-1.461 0-6.683-.009-7.169-.024-.37-.084-1.64-.39-1.64-.756V11.444c0-1.36.36-4.807.81-5.815v-.174" fill="url(#s)"/>
			<path d="M1 0C.446 0 0 .446 0 1v62.007c0 .554.446 1 1 1h62.007c.554 0 1-.446 1-1V1c0-.554-.446-1-1-1zm1.466 5.676H61.54c.51 0 .92.394.92.885v55.596c0 .49-.41.886-.92.886H2.466c-.51 0-.92-.394-.92-.885V6.56c0-.49.41-.885.92-.885z" fill="url(#t)"/>
			<path d="M.24.24v63.527h63.527V.24zm.04 3.598h63.447v59.53H.28z" fill="url(#u)"/>
			<path d="M.24 1.28v62.486h63.527V1.28zm.04 3.277h63.447v58.81H.28z" fill="url(#v)"/>
		</g>
		<g transform="translate(0 1)">
			<g>
				<g id="x">
					<path transform="rotate(90 40 25.5)" d="m30 2.5h3v62h-3z" fill-opacity=".152"/>
					<path transform="rotate(90 40 25.5)" d="m30 2.5h3v62h-3z" fill="url(#w)"/>
					<path transform="rotate(90 40 25.5)" d="m30 2.5h1v62h-1z" fill-opacity=".11"/>
				</g>
				<path d="m1 15.5v1h62v-1zm0 12v1h62v-1zm0 12v1h62v-1zm0 12v1h62v-1z" fill-opacity=".168"/>
				<path d="m1 17.5v1h62v-1zm0 12v1h62v-1zm0 12v1h62v-1zm0 12v1h62v-1z" fill="#fff" fill-opacity=".206"/>
			</g>
			<use transform="translate(0 12)" width="1" height="1" xlink:href="#x"/>
			<use transform="translate(0 24)" width="64" height="64" xlink:href="#x"/>
			<use transform="translate(0 36)" width="64" height="64" xlink:href="#x"/>
			<g transform="translate(25)" fill-rule="evenodd">
				<circle transform="matrix(.125 0 0 .125 2.875 53.625)" cx="33" cy="35" r="24" fill="url(#y)"/>
				<circle transform="translate(4.938 55.812) scale(.0625)" cx="33" cy="35" r="24" fill="#7b941e"/>
				<circle transform="translate(.125 50.708) scale(.20833)" cx="33" cy="35" r="24" fill="url(#z)"/>
				<circle transform="translate(5.625 56.542) scale(.04167)" cx="33" cy="35" r="24" fill="#bddb49"/>
			</g>
			<g id="D" transform="translate(0 1.5)" paint-order="stroke fill markers">
				<g transform="translate(22.002)">
					<path transform="translate(11.001)" d="M11.001 48.005v-.5h1v-.5h1v-5h-7v5h1v.5h1v.5z" fill="url(#A)" stroke-linecap="round" stroke-linejoin="round" stroke-width="2"/>
					<path transform="translate(11.001) scale(1.0001)" d="M13 42.5V47h-1v.5h-1v.5H8.5v.5h3V48h1v-.5h1v-5zM6.5 47v.5H7V47zm1 .5v.5H8v-.5z" fill="#fff" fill-opacity=".192" stroke-linecap="round" stroke-linejoin="round" stroke-width="2"/>
					<path transform="translate(11.001)" d="m7.001 43.005h1v1h-1zm4 0h1v1h-1zm-2 0h1v1h-1z" fill="#646464"/>
					<rect x="28.003" y="42.005" width="7.001" height="2" rx="1" ry="1" fill="url(#B)" style="-inkscape-stroke:none;font-variation-settings:normal"/>
					<path d="m30.003 42.005h3v1h-3z" fill="#646464"/>
					<path transform="scale(1.0001)" d="M34.912 42.588A1.002 1.002 0 0 1 34 44h-5a.992.992 0 0 1-.412-.088.998.998 0 0 0 .912.588h5c.554 0 1-.446 1-1a.998.998 0 0 0-.588-.912z" fill="#fff" fill-opacity=".192" style="-inkscape-stroke:none;font-variation-settings:normal"/>
					<g transform="translate(0 4)">
						<rect x="28.003" y="42.005" width="7.001" height="2" rx="1" ry="1" fill="url(#B)" style="-inkscape-stroke:none;font-variation-settings:normal"/>
						<path d="m30.003 42.005h3v1h-3z" fill="#646464"/>
						<path transform="scale(1.0001)" d="M34.912 42.588A1.002 1.002 0 0 1 34 44h-5a.992.992 0 0 1-.412-.088.998.998 0 0 0 .912.588h5c.554 0 1-.446 1-1a.998.998 0 0 0-.588-.912z" fill="#fff" fill-opacity=".192" style="-inkscape-stroke:none;font-variation-settings:normal"/>
					</g>
				</g>
				<path d="m64.007 46.033v10.941h-64.014v-10.941z" fill="url(#w-3-5)" stroke-width="1.9405"/>
				<rect x="6.001" y="42.005" width="30.003" height="6.001" rx="1" ry="1" fill="url(#C)" style="-inkscape-stroke:none;font-variation-settings:normal"/>
				<path d="M7 42.005c-.553 0-1 .446-1 1v.5a.5.5 0 0 1 .5-.5.5.5 0 0 1 .5.5.5.5 0 0 1-.5.5.5.5 0 0 1-.5-.5v2a.5.5 0 0 1 .5-.5.5.5 0 0 1 .5.5.5.5 0 0 1-.5.5.5.5 0 0 1-.5-.5v1.5c0 .108.02.209.051.305a.5.5 0 0 1 .45-.304.5.5 0 0 1 .5.5.5.5 0 0 1-.305.449c.097.03.198.05.305.05h1.5a.5.5 0 0 1-.5-.5.5.5 0 0 1 .5-.5.5.5 0 0 1 .5.5.5.5 0 0 1-.5.5h2a.5.5 0 0 1-.5-.5.5.5 0 0 1 .5-.5.5.5 0 0 1 .5.5.5.5 0 0 1-.5.5h2a.5.5 0 0 1-.5-.5.5.5 0 0 1 .5-.5.5.5 0 0 1 .5.5.5.5 0 0 1-.5.5h2a.5.5 0 0 1-.5-.5.5.5 0 0 1 .5-.5.5.5 0 0 1 .5.5.5.5 0 0 1-.5.5h2a.5.5 0 0 1-.5-.5.5.5 0 0 1 .5-.5.5.5 0 0 1 .5.5.5.5 0 0 1-.5.5h2.001a.5.5 0 0 1-.5-.5.5.5 0 0 1 .5-.5.5.5 0 0 1 .5.5.5.5 0 0 1-.5.5h2a.5.5 0 0 1-.154-.025.5.5 0 0 1-.346-.474.5.5 0 0 1 .346-.475.5.5 0 0 1 .154-.025.5.5 0 0 1 .5.5.5.5 0 0 1-.5.5h2a.5.5 0 0 1-.5-.5.5.5 0 0 1 .5-.5.5.5 0 0 1 .5.5.5.5 0 0 1-.5.5h2a.5.5 0 0 1-.5-.5.5.5 0 0 1 .5-.5.5.5 0 0 1 .5.5.5.5 0 0 1-.5.5h2a.5.5 0 0 1-.5-.5.5.5 0 0 1 .5-.5.5.5 0 0 1 .5.5.5.5 0 0 1-.5.5h2.001a.5.5 0 0 1-.5-.5.5.5 0 0 1 .5-.5.5.5 0 0 1 .5.5.5.5 0 0 1-.5.5h2a.5.5 0 0 1-.5-.5.5.5 0 0 1 .5-.5.5.5 0 0 1 .5.5.5.5 0 0 1-.5.5h2a.5.5 0 0 1-.5-.5.5.5 0 0 1 .5-.5.5.5 0 0 1 .5.5.5.5 0 0 1-.5.5h2a.5.5 0 0 1-.5-.5.5.5 0 0 1 .5-.5.5.5 0 0 1 .5.5.5.5 0 0 1-.5.5h.5c.555 0 1-.446 1-1v-.5a.5.5 0 0 1-.5.5.5.5 0 0 1-.5-.5.5.5 0 0 1 .5-.5.5.5 0 0 1 .5.5v-2a.5.5 0 0 1-.5.5.5.5 0 0 1-.5-.5.5.5 0 0 1 .5-.5.5.5 0 0 1 .5.5v-1.5a.995.995 0 0 0-.05-.306.5.5 0 0 1-.45.305.5.5 0 0 1-.5-.5.5.5 0 0 1 .305-.45.995.995 0 0 0-.304-.05h-1.5a.5.5 0 0 1 .5.5.5.5 0 0 1-.5.5.5.5 0 0 1-.5-.5.5.5 0 0 1 .5-.5h-2a.5.5 0 0 1 .5.5.5.5 0 0 1-.5.5.5.5 0 0 1-.5-.5.5.5 0 0 1 .5-.5h-2.001a.5.5 0 0 1 .5.5.5.5 0 0 1-.5.5.5.5 0 0 1-.5-.5.5.5 0 0 1 .5-.5h-2a.5.5 0 0 1 .5.5.5.5 0 0 1-.5.5.5.5 0 0 1-.5-.5.5.5 0 0 1 .5-.5h-2a.5.5 0 0 1 .5.5.5.5 0 0 1-.5.5.5.5 0 0 1-.5-.5.5.5 0 0 1 .5-.5h-2a.5.5 0 0 1 .5.5.5.5 0 0 1-.5.5.5.5 0 0 1-.5-.5.5.5 0 0 1 .5-.5h-2a.5.5 0 0 1 .5.5.5.5 0 0 1-.5.5.5.5 0 0 1-.155-.025.5.5 0 0 1-.346-.475.5.5 0 0 1 .346-.475.5.5 0 0 1 .154-.025h-2a.5.5 0 0 1 .5.5.5.5 0 0 1-.5.5.5.5 0 0 1-.5-.5.5.5 0 0 1 .5-.5h-2a.5.5 0 0 1 .5.5.5.5 0 0 1-.5.5.5.5 0 0 1-.5-.5.5.5 0 0 1 .5-.5h-2a.5.5 0 0 1 .5.5.5.5 0 0 1-.5.5.5.5 0 0 1-.5-.5.5.5 0 0 1 .5-.5h-2a.5.5 0 0 1 .5.5.5.5 0 0 1-.5.5.5.5 0 0 1-.5-.5.5.5 0 0 1 .5-.5h-2a.5.5 0 0 1 .5.5.5.5 0 0 1-.5.5.5.5 0 0 1-.5-.5.5.5 0 0 1 .5-.5H9.5a.5.5 0 0 1 .5.5.5.5 0 0 1-.5.5.5.5 0 0 1-.5-.5.5.5 0 0 1 .5-.5h-2a.5.5 0 0 1 .5.5.5.5 0 0 1-.5.5.5.5 0 0 1-.5-.5.5.5 0 0 1 .5-.5zm1.501 1a.5.5 0 0 1 .5.5.5.5 0 0 1-.5.5.5.5 0 0 1-.5-.5.5.5 0 0 1 .5-.5zm2 0a.5.5 0 0 1 .5.5.5.5 0 0 1-.5.5.5.5 0 0 1-.5-.5.5.5 0 0 1 .5-.5zm2 0a.5.5 0 0 1 .5.5.5.5 0 0 1-.5.5.5.5 0 0 1-.5-.5.5.5 0 0 1 .5-.5zm2 0a.5.5 0 0 1 .5.5.5.5 0 0 1-.5.5.5.5 0 0 1-.5-.5.5.5 0 0 1 .5-.5zm2 0a.5.5 0 0 1 .5.5.5.5 0 0 1-.5.5.5.5 0 0 1-.5-.5.5.5 0 0 1 .5-.5zm2.001 0a.5.5 0 0 1 .5.5.5.5 0 0 1-.5.5.5.5 0 0 1-.5-.5.5.5 0 0 1 .5-.5zm2 0a.5.5 0 0 1 .5.5.5.5 0 0 1-.5.5.5.5 0 0 1-.154-.025.5.5 0 0 1-.346-.475.5.5 0 0 1 .346-.474.5.5 0 0 1 .154-.026zm2 0a.5.5 0 0 1 .5.5.5.5 0 0 1-.5.5.5.5 0 0 1-.5-.5.5.5 0 0 1 .5-.5zm2 0a.5.5 0 0 1 .5.5.5.5 0 0 1-.5.5.5.5 0 0 1-.5-.5.5.5 0 0 1 .5-.5zm2 0a.5.5 0 0 1 .5.5.5.5 0 0 1-.5.5.5.5 0 0 1-.5-.5.5.5 0 0 1 .5-.5zm2.001 0a.5.5 0 0 1 .5.5.5.5 0 0 1-.5.5.5.5 0 0 1-.5-.5.5.5 0 0 1 .5-.5zm2 0a.5.5 0 0 1 .5.5.5.5 0 0 1-.5.5.5.5 0 0 1-.5-.5.5.5 0 0 1 .5-.5zm2 0a.5.5 0 0 1 .5.5.5.5 0 0 1-.5.5.5.5 0 0 1-.5-.5.5.5 0 0 1 .5-.5zm2 0a.5.5 0 0 1 .5.5.5.5 0 0 1-.5.5.5.5 0 0 1-.5-.5.5.5 0 0 1 .5-.5zm-27.002 1a.5.5 0 0 1 .5.5.5.5 0 0 1-.5.5.5.5 0 0 1-.5-.5.5.5 0 0 1 .5-.5zm2 0a.5.5 0 0 1 .5.5.5.5 0 0 1-.5.5.5.5 0 0 1-.5-.5.5.5 0 0 1 .5-.5zm2 0a.5.5 0 0 1 .5.5.5.5 0 0 1-.5.5.5.5 0 0 1-.5-.5.5.5 0 0 1 .5-.5zm2 0a.5.5 0 0 1 .5.5.5.5 0 0 1-.5.5.5.5 0 0 1-.5-.5.5.5 0 0 1 .5-.5zm2 0a.5.5 0 0 1 .5.5.5.5 0 0 1-.5.5.5.5 0 0 1-.5-.5.5.5 0 0 1 .5-.5zm2 0a.5.5 0 0 1 .5.5.5.5 0 0 1-.5.5.5.5 0 0 1-.5-.5.5.5 0 0 1 .5-.5zm2 0a.5.5 0 0 1 .5.5.5.5 0 0 1-.5.5.5.5 0 0 1-.5-.5.5.5 0 0 1 .5-.5zm2.001 0a.5.5 0 0 1 .5.5.5.5 0 0 1-.5.5.5.5 0 0 1-.154-.025.5.5 0 0 1-.346-.475.5.5 0 0 1 .346-.474.5.5 0 0 1 .154-.026zm2 0a.5.5 0 0 1 .5.5.5.5 0 0 1-.5.5.5.5 0 0 1-.5-.5.5.5 0 0 1 .5-.5zm2 0a.5.5 0 0 1 .5.5.5.5 0 0 1-.5.5.5.5 0 0 1-.5-.5.5.5 0 0 1 .5-.5zm2 0a.5.5 0 0 1 .5.5.5.5 0 0 1-.5.5.5.5 0 0 1-.5-.5.5.5 0 0 1 .5-.5zm2 0a.5.5 0 0 1 .5.5.5.5 0 0 1-.5.5.5.5 0 0 1-.5-.5.5.5 0 0 1 .5-.5zm2.001 0a.5.5 0 0 1 .5.5.5.5 0 0 1-.5.5.5.5 0 0 1-.5-.5.5.5 0 0 1 .5-.5zm2 0a.5.5 0 0 1 .5.5.5.5 0 0 1-.5.5.5.5 0 0 1-.5-.5.5.5 0 0 1 .5-.5zm-25.003 1a.5.5 0 0 1 .5.5.5.5 0 0 1-.5.5.5.5 0 0 1-.5-.5.5.5 0 0 1 .5-.5zm2 0a.5.5 0 0 1 .5.5.5.5 0 0 1-.5.5.5.5 0 0 1-.5-.5.5.5 0 0 1 .5-.5zm2 0a.5.5 0 0 1 .5.5.5.5 0 0 1-.5.5.5.5 0 0 1-.5-.5.5.5 0 0 1 .5-.5zm2 0a.5.5 0 0 1 .5.5.5.5 0 0 1-.5.5.5.5 0 0 1-.5-.5.5.5 0 0 1 .5-.5zm2.001 0a.5.5 0 0 1 .5.5.5.5 0 0 1-.5.5.5.5 0 0 1-.5-.5.5.5 0 0 1 .5-.5zm2 0a.5.5 0 0 1 .5.5.5.5 0 0 1-.5.5.5.5 0 0 1-.5-.5.5.5 0 0 1 .5-.5zm2 0a.5.5 0 0 1 .5.5.5.5 0 0 1-.5.5.5.5 0 0 1-.154-.025.5.5 0 0 1-.346-.475.5.5 0 0 1 .346-.474.5.5 0 0 1 .154-.026zm2 0a.5.5 0 0 1 .5.5.5.5 0 0 1-.5.5.5.5 0 0 1-.5-.5.5.5 0 0 1 .5-.5zm2 0a.5.5 0 0 1 .5.5.5.5 0 0 1-.5.5.5.5 0 0 1-.5-.5.5.5 0 0 1 .5-.5zm2.001 0a.5.5 0 0 1 .5.5.5.5 0 0 1-.5.5.5.5 0 0 1-.5-.5.5.5 0 0 1 .5-.5zm2 0a.5.5 0 0 1 .5.5.5.5 0 0 1-.5.5.5.5 0 0 1-.5-.5.5.5 0 0 1 .5-.5zm2 0a.5.5 0 0 1 .5.5.5.5 0 0 1-.5.5.5.5 0 0 1-.5-.5.5.5 0 0 1 .5-.5zm2 0a.5.5 0 0 1 .5.5.5.5 0 0 1-.5.5.5.5 0 0 1-.5-.5.5.5 0 0 1 .5-.5zm2 0a.5.5 0 0 1 .5.5.5.5 0 0 1-.5.5.5.5 0 0 1-.5-.5.5.5 0 0 1 .5-.5zm-27.002 1a.5.5 0 0 1 .5.5.5.5 0 0 1-.5.5.5.5 0 0 1-.5-.5.5.5 0 0 1 .5-.5zm2 0a.5.5 0 0 1 .5.5.5.5 0 0 1-.5.5.5.5 0 0 1-.5-.5.5.5 0 0 1 .5-.5zm2 0a.5.5 0 0 1 .5.5.5.5 0 0 1-.5.5.5.5 0 0 1-.5-.5.5.5 0 0 1 .5-.5zm2 0a.5.5 0 0 1 .5.5.5.5 0 0 1-.5.5.5.5 0 0 1-.5-.5.5.5 0 0 1 .5-.5zm2 0a.5.5 0 0 1 .5.5.5.5 0 0 1-.5.5.5.5 0 0 1-.5-.5.5.5 0 0 1 .5-.5zm2 0a.5.5 0 0 1 .5.5.5.5 0 0 1-.5.5.5.5 0 0 1-.5-.5.5.5 0 0 1 .5-.5zm2.001 0a.5.5 0 0 1 .5.5.5.5 0 0 1-.5.5.5.5 0 0 1-.5-.5.5.5 0 0 1 .5-.5zm2 0a.5.5 0 0 1 .5.5.5.5 0 0 1-.5.5.5.5 0 0 1-.154-.025.5.5 0 0 1-.346-.475.5.5 0 0 1 .346-.474.5.5 0 0 1 .154-.026zm2 0a.5.5 0 0 1 .5.5.5.5 0 0 1-.5.5.5.5 0 0 1-.5-.5.5.5 0 0 1 .5-.5zm2 0a.5.5 0 0 1 .5.5.5.5 0 0 1-.5.5.5.5 0 0 1-.5-.5.5.5 0 0 1 .5-.5zm2 0a.5.5 0 0 1 .5.5.5.5 0 0 1-.5.5.5.5 0 0 1-.5-.5.5.5 0 0 1 .5-.5zm2.001 0a.5.5 0 0 1 .5.5.5.5 0 0 1-.5.5.5.5 0 0 1-.5-.5.5.5 0 0 1 .5-.5zm2 0a.5.5 0 0 1 .5.5.5.5 0 0 1-.5.5.5.5 0 0 1-.5-.5.5.5 0 0 1 .5-.5zm2 0a.5.5 0 0 1 .5.5.5.5 0 0 1-.5.5.5.5 0 0 1-.5-.5.5.5 0 0 1 .5-.5z" fill="#41556f" opacity=".548" style="-inkscape-stroke:none;font-variation-settings:normal"/>
				<path transform="scale(1.0001)" d="M35.91 42.59c.056.125.09.264.09.41v4c0 .554-.446 1-1 1H7a.998.998 0 0 1-.41-.09c.156.348.502.59.91.59h28c.554 0 1-.446 1-1v-4a.995.995 0 0 0-.59-.91z" fill="#fff" fill-opacity=".192" style="-inkscape-stroke:none;font-variation-settings:normal"/>
				<path d="M7 42.005a.996.996 0 0 0-.468.12.5.5 0 0 0 .469.38.5.5 0 0 1 .5-.5zm1.501 0a.5.5 0 0 0 .5.5.5.5 0 0 1 .5-.5zm2 0a.5.5 0 0 0 .5.5.5.5 0 0 1 .5-.5zm2 0a.5.5 0 0 0 .5.5.5.5 0 0 1 .5-.5zm2 0a.5.5 0 0 0 .5.5.5.5 0 0 1 .5-.5zm2 0a.5.5 0 0 0 .5.5.5.5 0 0 1 .5-.5zm2.001 0a.5.5 0 0 0 .5.5.5.5 0 0 1 .5-.5zm2 0a.5.5 0 0 0 .346.475.5.5 0 0 0 .154.025.5.5 0 0 1 .346-.475.5.5 0 0 1 .154-.025zm2 0a.5.5 0 0 0 .5.5.5.5 0 0 1 .5-.5zm2 0a.5.5 0 0 0 .5.5.5.5 0 0 1 .5-.5zm2 0a.5.5 0 0 0 .5.5.5.5 0 0 1 .5-.5zm2.001 0a.5.5 0 0 0 .5.5.5.5 0 0 1 .5-.5zm2 0a.5.5 0 0 0 .5.5.5.5 0 0 1 .5-.5zm2 0a.5.5 0 0 0 .5.5.5.5 0 0 1 .5-.5zm2 0a.5.5 0 0 0 .5.5.5.5 0 0 1 .305-.45.995.995 0 0 0-.304-.05zm-26.502.5a.5.5 0 0 1-.5.5.5.5 0 0 0 .5.5.5.5 0 0 1 .5-.5.5.5 0 0 0-.5-.5zm2 0a.5.5 0 0 1-.5.5.5.5 0 0 0 .5.5.5.5 0 0 1 .5-.5.5.5 0 0 0-.5-.5zm2 0a.5.5 0 0 1-.5.5.5.5 0 0 0 .5.5.5.5 0 0 1 .5-.5.5.5 0 0 0-.5-.5zm2 0a.5.5 0 0 1-.5.5.5.5 0 0 0 .5.5.5.5 0 0 1 .5-.5.5.5 0 0 0-.5-.5zm2 0a.5.5 0 0 1-.5.5.5.5 0 0 0 .5.5.5.5 0 0 1 .5-.5.5.5 0 0 0-.5-.5zm2 0a.5.5 0 0 1-.5.5.5.5 0 0 0 .5.5.5.5 0 0 1 .5-.5.5.5 0 0 0-.5-.5zm2 0a.5.5 0 0 1-.5.5.5.5 0 0 0 .346.475.5.5 0 0 0 .155.025.5.5 0 0 1 .346-.474.5.5 0 0 1 .154-.026.5.5 0 0 0-.5-.5zm2.001 0a.5.5 0 0 1-.5.5.5.5 0 0 0 .5.5.5.5 0 0 1 .5-.5.5.5 0 0 0-.5-.5zm2 0a.5.5 0 0 1-.5.5.5.5 0 0 0 .5.5.5.5 0 0 1 .5-.5.5.5 0 0 0-.5-.5zm2 0a.5.5 0 0 1-.5.5.5.5 0 0 0 .5.5.5.5 0 0 1 .5-.5.5.5 0 0 0-.5-.5zm2 0a.5.5 0 0 1-.5.5.5.5 0 0 0 .5.5.5.5 0 0 1 .5-.5.5.5 0 0 0-.5-.5zm2 0a.5.5 0 0 1-.5.5.5.5 0 0 0 .5.5.5.5 0 0 1 .5-.5.5.5 0 0 0-.5-.5zm2.001 0a.5.5 0 0 1-.5.5.5.5 0 0 0 .5.5.5.5 0 0 1 .5-.5.5.5 0 0 0-.5-.5zm2 0a.5.5 0 0 1-.5.5.5.5 0 0 0 .5.5.5.5 0 0 1 .5-.5.5.5 0 0 0-.5-.5zm-27.884.031a.996.996 0 0 0-.119.47v.5a.5.5 0 0 1 .5-.5.5.5 0 0 0-.38-.47zm29.833.164a.5.5 0 0 1-.45.305v1a.5.5 0 0 1 .501.5v-1.5a.995.995 0 0 0-.05-.305zm.051 1.805a.5.5 0 0 1-.5.5v1a.5.5 0 0 1 .5.5zm0 2a.5.5 0 0 1-.5.5.5.5 0 0 1-.12-.03.993.993 0 0 1-.398.404.5.5 0 0 1 .018.127.5.5 0 0 1-.5.5h.5c.554 0 1-.446 1-1zm-1.5 1.5a.5.5 0 0 1-.5-.5h-1a.5.5 0 0 1-.5.5h1zm-2 0a.5.5 0 0 1-.5-.5h-1a.5.5 0 0 1-.5.5h1zm-2 0a.5.5 0 0 1-.5-.5h-1a.5.5 0 0 1-.5.5h1zm-2 0a.5.5 0 0 1-.5-.5h-1.001a.5.5 0 0 1-.5.5h1zm-2.001 0a.5.5 0 0 1-.5-.5h-1a.5.5 0 0 1-.5.5h1zm-2 0a.5.5 0 0 1-.5-.5h-1a.5.5 0 0 1-.5.5h1zm-2 0a.5.5 0 0 1-.5-.5h-1a.5.5 0 0 1-.5.5h1zm-2 0a.5.5 0 0 1-.155-.025.5.5 0 0 1-.346-.474h-1a.5.5 0 0 1-.5.5h1zm-2 0a.5.5 0 0 1-.5-.5H17a.5.5 0 0 1-.5.5h1zm-2.001 0a.5.5 0 0 1-.5-.5h-1a.5.5 0 0 1-.5.5h1zm-2 0a.5.5 0 0 1-.5-.5h-1a.5.5 0 0 1-.5.5h1zm-2 0a.5.5 0 0 1-.5-.5h-1a.5.5 0 0 1-.5.5h1zm-2 0a.5.5 0 0 1-.5-.5H9a.5.5 0 0 1-.5.5h1zm-2 0a.5.5 0 0 1-.5-.5H7a.5.5 0 0 1-.305.45c.097.03.198.05.305.05h.5zm-.5-.5a.5.5 0 0 1 .5-.5.5.5 0 0 0-.5-.5.5.5 0 0 1-.5.5.5.5 0 0 0 .5.5zm2 0a.5.5 0 0 1 .5-.5.5.5 0 0 0-.5-.5.5.5 0 0 1-.5.5.5.5 0 0 0 .5.5zm2 0a.5.5 0 0 1 .5-.5.5.5 0 0 0-.5-.5.5.5 0 0 1-.5.5.5.5 0 0 0 .5.5zm2 0a.5.5 0 0 1 .5-.5.5.5 0 0 0-.5-.5.5.5 0 0 1-.5.5.5.5 0 0 0 .5.5zm2 0a.5.5 0 0 1 .5-.5.5.5 0 0 0-.5-.5.5.5 0 0 1-.5.5.5.5 0 0 0 .5.5zm2 0a.5.5 0 0 1 .5-.5.5.5 0 0 0-.5-.5.5.5 0 0 1-.5.5.5.5 0 0 0 .5.5zm2 0a.5.5 0 0 1 .346-.474.5.5 0 0 1 .154-.025.5.5 0 0 0-.5-.5.5.5 0 0 1-.5.5.5.5 0 0 0 .346.474.5.5 0 0 0 .154.026zm2 0a.5.5 0 0 1 .5-.5.5.5 0 0 0-.5-.5.5.5 0 0 1-.5.5.5.5 0 0 0 .5.5zm2 0a.5.5 0 0 1 .5-.5.5.5 0 0 0-.5-.5.5.5 0 0 1-.5.5.5.5 0 0 0 .5.5zm2 0a.5.5 0 0 1 .501-.5.5.5 0 0 0-.5-.5.5.5 0 0 1-.5.5.5.5 0 0 0 .5.5zm2.001 0a.5.5 0 0 1 .5-.5.5.5 0 0 0-.5-.5.5.5 0 0 1-.5.5.5.5 0 0 0 .5.5zm2 0a.5.5 0 0 1 .5-.5.5.5 0 0 0-.5-.5.5.5 0 0 1-.5.5.5.5 0 0 0 .5.5zm2 0a.5.5 0 0 1 .5-.5.5.5 0 0 0-.5-.5.5.5 0 0 1-.5.5.5.5 0 0 0 .5.5zm2 0a.5.5 0 0 1 .5-.5.5.5 0 0 0-.5-.5.5.5 0 0 1-.5.5.5.5 0 0 0 .5.5zm1.5-1.5a.5.5 0 0 0-.5-.5.5.5 0 0 1-.5.5.5.5 0 0 0 .5.5.5.5 0 0 1 .5-.5zm0-2a.5.5 0 0 0-.5-.5.5.5 0 0 1-.5.5.5.5 0 0 0 .5.5.5.5 0 0 1 .5-.5zM7 43.505a.5.5 0 0 1-.5.5.5.5 0 0 0 .5.5.5.5 0 0 1 .5-.5.5.5 0 0 0-.5-.5zm2 0a.5.5 0 0 1-.5.5.5.5 0 0 0 .5.5.5.5 0 0 1 .5-.5.5.5 0 0 0-.5-.5zm2 0a.5.5 0 0 1-.5.5.5.5 0 0 0 .5.5.5.5 0 0 1 .5-.5.5.5 0 0 0-.5-.5zm2 0a.5.5 0 0 1-.5.5.5.5 0 0 0 .5.5.5.5 0 0 1 .5-.5.5.5 0 0 0-.5-.5zm2 0a.5.5 0 0 1-.5.5.5.5 0 0 0 .5.5.5.5 0 0 1 .5-.5.5.5 0 0 0-.5-.5zm2 0a.5.5 0 0 1-.5.5.5.5 0 0 0 .5.5.5.5 0 0 1 .501-.5.5.5 0 0 0-.5-.5zm2.001 0a.5.5 0 0 1-.5.5.5.5 0 0 0 .5.5.5.5 0 0 1 .5-.5.5.5 0 0 0-.5-.5zm2 0a.5.5 0 0 1-.5.5.5.5 0 0 0 .346.475.5.5 0 0 0 .154.025.5.5 0 0 1 .346-.474.5.5 0 0 1 .154-.026.5.5 0 0 0-.5-.5zm2 0a.5.5 0 0 1-.5.5.5.5 0 0 0 .5.5.5.5 0 0 1 .5-.5.5.5 0 0 0-.5-.5zm2 0a.5.5 0 0 1-.5.5.5.5 0 0 0 .5.5.5.5 0 0 1 .5-.5.5.5 0 0 0-.5-.5zm2 0a.5.5 0 0 1-.5.5.5.5 0 0 0 .5.5.5.5 0 0 1 .501-.5.5.5 0 0 0-.5-.5zm2.001 0a.5.5 0 0 1-.5.5.5.5 0 0 0 .5.5.5.5 0 0 1 .5-.5.5.5 0 0 0-.5-.5zm2 0a.5.5 0 0 1-.5.5.5.5 0 0 0 .5.5.5.5 0 0 1 .5-.5.5.5 0 0 0-.5-.5zm2 0a.5.5 0 0 1-.5.5.5.5 0 0 0 .5.5.5.5 0 0 1 .5-.5.5.5 0 0 0-.5-.5zM6 44.505v1a.5.5 0 0 1 .5-.5.5.5 0 0 0-.5-.5zm2 0a.5.5 0 0 1-.5.5.5.5 0 0 0 .5.5.5.5 0 0 1 .5-.5.5.5 0 0 0-.5-.5zm2 0a.5.5 0 0 1-.5.5.5.5 0 0 0 .5.5.5.5 0 0 1 .5-.5.5.5 0 0 0-.5-.5zm2 0a.5.5 0 0 1-.5.5.5.5 0 0 0 .5.5.5.5 0 0 1 .5-.5.5.5 0 0 0-.5-.5zm2 0a.5.5 0 0 1-.5.5.5.5 0 0 0 .5.5.5.5 0 0 1 .5-.5.5.5 0 0 0-.5-.5zm2 0a.5.5 0 0 1-.5.5.5.5 0 0 0 .5.5.5.5 0 0 1 .5-.5.5.5 0 0 0-.5-.5zm2 0a.5.5 0 0 1-.5.5.5.5 0 0 0 .5.5.5.5 0 0 1 .5-.5.5.5 0 0 0-.5-.5zm2 0a.5.5 0 0 1-.5.5.5.5 0 0 0 .347.475.5.5 0 0 0 .154.025.5.5 0 0 1 .346-.474.5.5 0 0 1 .154-.026.5.5 0 0 0-.5-.5zm2.001 0a.5.5 0 0 1-.5.5.5.5 0 0 0 .5.5.5.5 0 0 1 .5-.5.5.5 0 0 0-.5-.5zm2 0a.5.5 0 0 1-.5.5.5.5 0 0 0 .5.5.5.5 0 0 1 .5-.5.5.5 0 0 0-.5-.5zm2 0a.5.5 0 0 1-.5.5.5.5 0 0 0 .5.5.5.5 0 0 1 .5-.5.5.5 0 0 0-.5-.5zm2 0a.5.5 0 0 1-.5.5.5.5 0 0 0 .5.5.5.5 0 0 1 .5-.5.5.5 0 0 0-.5-.5zm2 0a.5.5 0 0 1-.5.5.5.5 0 0 0 .5.5.5.5 0 0 1 .501-.5.5.5 0 0 0-.5-.5zm2.001 0a.5.5 0 0 1-.5.5.5.5 0 0 0 .5.5.5.5 0 0 1 .5-.5.5.5 0 0 0-.5-.5zm2 0a.5.5 0 0 1-.5.5.5.5 0 0 0 .5.5.5.5 0 0 1 .5-.5.5.5 0 0 0-.5-.5zM7 45.505a.5.5 0 0 1-.5.5.5.5 0 0 0 .5.5.5.5 0 0 1 .5-.5.5.5 0 0 0-.5-.5zm2 0a.5.5 0 0 1-.5.5.5.5 0 0 0 .5.5.5.5 0 0 1 .5-.5.5.5 0 0 0-.5-.5zm2 0a.5.5 0 0 1-.5.5.5.5 0 0 0 .5.5.5.5 0 0 1 .5-.5.5.5 0 0 0-.5-.5zm2 0a.5.5 0 0 1-.5.5.5.5 0 0 0 .5.5.5.5 0 0 1 .501-.5.5.5 0 0 0-.5-.5zm2.001 0a.5.5 0 0 1-.5.5.5.5 0 0 0 .5.5.5.5 0 0 1 .5-.5.5.5 0 0 0-.5-.5zm2 0a.5.5 0 0 1-.5.5.5.5 0 0 0 .5.5.5.5 0 0 1 .5-.5.5.5 0 0 0-.5-.5zm2 0a.5.5 0 0 1-.5.5.5.5 0 0 0 .5.5.5.5 0 0 1 .5-.5.5.5 0 0 0-.5-.5zm2 0a.5.5 0 0 1-.5.5.5.5 0 0 0 .346.475.5.5 0 0 0 .155.026.5.5 0 0 1 .345-.475.5.5 0 0 1 .155-.026.5.5 0 0 0-.5-.5zm2 0a.5.5 0 0 1-.5.5.5.5 0 0 0 .5.5.5.5 0 0 1 .501-.5.5.5 0 0 0-.5-.5zm2.001 0a.5.5 0 0 1-.5.5.5.5 0 0 0 .5.5.5.5 0 0 1 .5-.5.5.5 0 0 0-.5-.5zm2 0a.5.5 0 0 1-.5.5.5.5 0 0 0 .5.5.5.5 0 0 1 .5-.5.5.5 0 0 0-.5-.5zm2 0a.5.5 0 0 1-.5.5.5.5 0 0 0 .5.5.5.5 0 0 1 .5-.5.5.5 0 0 0-.5-.5zm2 0a.5.5 0 0 1-.5.5.5.5 0 0 0 .5.5.5.5 0 0 1 .5-.5.5.5 0 0 0-.5-.5zm2 0a.5.5 0 0 1-.5.5.5.5 0 0 0 .5.5.5.5 0 0 1 .501-.5.5.5 0 0 0-.5-.5zM6 46.505v.5c0 .108.02.209.05.305a.5.5 0 0 1 .45-.304.5.5 0 0 0-.5-.5z" fill="#fff" fill-opacity=".195" opacity=".548" style="-inkscape-stroke:none;font-variation-settings:normal"/>
				<path d="M7 42.005c-.553 0-1 .446-1 1v4c0 .408.243.755.59.91a.998.998 0 0 1-.09-.41v-4c0-.554.447-1 1-1h28.004a1 1 0 0 1 .41.09.995.995 0 0 0-.91-.59z" fill-opacity=".277" style="-inkscape-stroke:none;font-variation-settings:normal"/>
			</g>
			<use transform="translate(0 -12.001)" width="100%" height="100%" xlink:href="#D"/>
			<use transform="translate(0 -24.003)" width="100%" height="100%" xlink:href="#D"/>
			<use transform="translate(0 -36.004)" width="100%" height="100%" xlink:href="#D"/>
		</g>
	</g>
</svg>
