<?xml version="1.0" encoding="UTF-8"?>
<!-- Created with Inkscape (http://www.inkscape.org/) -->
<svg width="16" height="16" version="1.1" xmlns="http://www.w3.org/2000/svg" xmlns:cc="http://creativecommons.org/ns#" xmlns:dc="http://purl.org/dc/elements/1.1/" xmlns:rdf="http://www.w3.org/1999/02/22-rdf-syntax-ns#">
	<defs>
		<style id="current-color-scheme" type="text/css">.ColorScheme-Text {color:#090d11;}.ColorScheme-Background{color:#ffffff;}</style>
		<style type="text/css">.ColorScheme-Text{color:#090d11;}.ColorScheme-Highlight{color:#0079c1;}</style>
		<style type="text/css">.ColorScheme-Text{color:#090d11;}.ColorScheme-NegativeText{color:#df0278;}</style>
	</defs>
	<metadata>
		<rdf:RDF>
			<cc:Work rdf:about="">
				<dc:format>image/svg+xml</dc:format>
				<dc:type rdf:resource="http://purl.org/dc/dcmitype/StillImage"/>
			</cc:Work>
		</rdf:RDF>
	</metadata>
	<path class="ColorScheme-Background" d="m2.1993 2.1993c-2.9324 2.9324-2.9324 7.6692-3e-7 10.601 2.9324 2.9324 7.6692 2.9324 10.601 0 2.9324-2.9324 2.9324-7.6692 0-10.601-2.9324-2.9324-7.6692-2.9324-10.601 0z" style="fill-opacity:.02;fill:currentColor"/>
	<g transform="translate(0,-1)">
		<path id="c" class="ColorScheme-NegativeText" d="M 7.5,2 A 6.5,6.5 0 0 0 1,8.5 6.5,6.5 0 0 0 7.5,15 6.5,6.5 0 0 0 14,8.5 6.5,6.5 0 0 0 7.5,2 Z" style="fill:currentColor"/>
	</g>
	<g class="ColorScheme-Text" transform="rotate(45 14.682 4.5251)" style="fill:none;stroke-linecap:round;stroke-opacity:.05;stroke-width:3;stroke:currentColor">
		<path d="m9.2323 14.182 4.9497-4.9497" style="stroke-width:3"/>
	</g>
	<g class="ColorScheme-Background" transform="rotate(45 14.682 4.5251)" style="fill:none;stroke-linecap:round;stroke-opacity:.85;stroke:currentColor">
		<path d="m9.2323 14.182 4.9497-4.9497"/>
	</g>
	<path class="ColorScheme-Background" d="m7.5 0c-4.1441 0-7.5 3.3562-7.5 7.5 1.3543e-6 4.1441 3.3562 7.5 7.5 7.5 4.1441-2e-6 7.5-3.3562 7.5-7.5 7.14e-4 -4.0915-3.4088-7.5014-7.5-7.5zm0 1a6.5 6.5 0 0 1 6.5 6.5 6.5 6.5 0 0 1-6.5 6.5 6.5 6.5 0 0 1-6.5-6.5 6.5 6.5 0 0 1 6.5-6.5z" style="fill-opacity:.85;fill:currentColor;stroke-width:.99999"/>
</svg>
