<?xml version="1.0" encoding="UTF-8"?>
<!-- Created with Inkscape (http://www.inkscape.org/) -->
<svg width="16" height="16" version="1.1" xmlns="http://www.w3.org/2000/svg" xmlns:cc="http://creativecommons.org/ns#" xmlns:dc="http://purl.org/dc/elements/1.1/" xmlns:rdf="http://www.w3.org/1999/02/22-rdf-syntax-ns#" xmlns:xlink="http://www.w3.org/1999/xlink">
	<defs>
		<radialGradient id="a" cx="3.4462" cy="2.3882" r="6.5" gradientTransform="matrix(1 0 0 .76923 0 1.8462)" gradientUnits="userSpaceOnUse">
			<stop stop-color="#ffffff" stop-opacity=".74858" offset="0"/>
			<stop stop-color="#ffffff" stop-opacity=".60511" offset="1"/>
		</radialGradient>
		<radialGradient id="b" cx="321.62" cy="-95.751" r="7.254" gradientTransform="matrix(1.179 0 0 1.141 -371.19 123.25)" gradientUnits="userSpaceOnUse">
			<stop stop-color="#213851" stop-opacity=".9059" offset="0"/>
			<stop stop-color="#27303a" stop-opacity="0" offset="1"/>
		</radialGradient>
	</defs>
	<metadata>
		<rdf:RDF>
			<cc:Work rdf:about="">
				<dc:format>image/svg+xml</dc:format>
				<dc:type rdf:resource="http://purl.org/dc/dcmitype/StillImage"/>
				<dc:title/>
			</cc:Work>
		</rdf:RDF>
	</metadata>
	<path d="m0 2v1 11h1 14v-1-10-1h-14zm1 1h13v10h-13zm1 1v5h2v-5zm3 0v2 6h2v-6h1v6h2v-6h1v6h2v-8zm-3 6v2h2v-2z" fill="#090d11" fill-opacity=".76621" style="paint-order:normal"/>
	<path d="m0 2v1 11h1 14v-1-10-1h-14zm1 1h13v10h-13zm1 1v5h2v-5zm3 0v2 6h2v-6h1v6h2v-6h1v6h2v-8zm-3 6v2h2v-2z" fill="url(#b)" fill-opacity=".7533" style="paint-order:normal"/>
	<path d="m1 3v10h13v-10h-13zm1 1h2v5h-2v-5zm3 0h8v8h-2v-6h-1v6h-2v-6h-1v6h-2v-6-2zm-3 6h2v2h-2v-2z" fill="url(#a)" fill-opacity=".99858" style="font-variant-east_asian:normal;paint-order:normal"/>
</svg>
