<?xml version="1.0" encoding="UTF-8"?>
<svg id="a" width="16" height="16" version="1.0" xmlns="http://www.w3.org/2000/svg" xmlns:cc="http://creativecommons.org/ns#" xmlns:dc="http://purl.org/dc/elements/1.1/" xmlns:rdf="http://www.w3.org/1999/02/22-rdf-syntax-ns#" xmlns:xlink="http://www.w3.org/1999/xlink">
	<metadata id="d">
		<rdf:RDF>
			<cc:Work rdf:about="">
				<dc:format>image/svg+xml</dc:format>
				<dc:type rdf:resource="http://purl.org/dc/dcmitype/StillImage"/>
				<dc:title/>
			</cc:Work>
		</rdf:RDF>
	</metadata>
	<defs>
		<style id="current-color-scheme" type="text/css">.ColorScheme-Text {color:#090d11;}.ColorScheme-Background{color:#ffffff;}.ColorScheme-NeutralText {color:#feab00;}</style>
	</defs>
	<path id="b" d="m9 1v14h2v-14h-2zm-5 3v3h-4v2h4v3l4-4-4-4zm8 0v8h3v-8h-3z" style="fill-opacity:.75;fill:currentColor" class="ColorScheme-Text"/>
	<path id="c" d="m8 0v6.25l-4-4v1.75l4 4-4 4v1.75l4-4v6.25h1v-16h-1zm3 0v7.25 1.5 7.25h1v-3h3 1v-10h-1-3v-3h-1zm1 4h3v8h-3v-8zm-12 2v1h4v-1h-4zm0 3v1h4v-1h-4z" style="fill-opacity:.5;fill:currentColor" class="ColorScheme-Background"/>
</svg>
