<?xml version="1.0" encoding="UTF-8"?>
<svg id="e" width="16" height="16" version="1.1" xmlns="http://www.w3.org/2000/svg" xmlns:cc="http://creativecommons.org/ns#" xmlns:dc="http://purl.org/dc/elements/1.1/" xmlns:rdf="http://www.w3.org/1999/02/22-rdf-syntax-ns#">
	<defs id="d">
		<style id="current-color-scheme" type="text/css">.ColorScheme-Text {
			color:#090d11;
			}
			.ColorScheme-Background{
			color:#ffffff;
			}
			.ColorScheme-NeutralText {
			color:#feab00;
			}</style>
	</defs>
	<metadata id="c">
		<rdf:RDF>
			<cc:Work rdf:about="">
				<dc:format>image/svg+xml</dc:format>
				<dc:type rdf:resource="http://purl.org/dc/dcmitype/StillImage"/>
				<dc:title/>
			</cc:Work>
		</rdf:RDF>
	</metadata>
	<path id="f" d="m7.5 4v4.5h4.5m2.5-0.5c0 3.5899-2.9101 6.5-6.5 6.5-3.5899 0-6.5-2.9101-6.5-6.5 0-3.5899 2.9101-6.5 6.5-6.5 3.5899 0 6.5 2.9101 6.5 6.5z" style="fill:none;stroke-opacity:.75;stroke:currentColor" class="ColorScheme-Text"/>
	<path id="a" d="M 8.5,3 V 7.5 H 13 M 15.5,8 A 7.5,7.5 0 0 1 8,15.5 7.5,7.5 0 0 1 0.5,8 7.5,7.5 0 0 1 8,0.5 7.5,7.5 0 0 1 15.5,8 Z" style="fill:none;stroke-opacity:.5;stroke:currentColor" class="ColorScheme-Background"/>
	<circle id="b" cx="3.5001" cy="2.5001" r="2.4999" style="fill:currentColor" class="ColorScheme-NeutralText"/>
</svg>
