<?xml version="1.0" encoding="UTF-8"?>
<svg id="g" width="16" height="16" version="1.1" xmlns="http://www.w3.org/2000/svg" xmlns:cc="http://creativecommons.org/ns#" xmlns:dc="http://purl.org/dc/elements/1.1/" xmlns:rdf="http://www.w3.org/1999/02/22-rdf-syntax-ns#">
	<metadata id="a">
		<rdf:RDF>
			<cc:Work rdf:about="">
				<dc:format>image/svg+xml</dc:format>
				<dc:type rdf:resource="http://purl.org/dc/dcmitype/StillImage"/>
				<dc:title/>
			</cc:Work>
		</rdf:RDF>
	</metadata>
	<defs>
		<style id="current-color-scheme" type="text/css">.ColorScheme-Text {color:#090d11;}.ColorScheme-Background{color:#ffffff;}</style>
	</defs>
	<path id="f" d="m12.4 0.9c-0.4527 0-0.9055 0.1729-1.2508 0.5184-0.3136 0.3145-0.4985 0.7356-0.516 1.1794-0.1197 0.1632-0.224 0.3312-0.3086 0.4998l-0.012-0.012-0.4976 0.072c-0.7701-0.2033-1.755-0.1184-2.3615 0.2018l-0.1387 0.01 4.3867 4.3867 0.01-0.1387c0.3186-0.6056 0.4047-1.5882 0.2022-2.3565l0.072-0.5022-0.012-0.012c0.1683-0.085 0.335-0.1886 0.4976-0.3086 0.4441-0.016 0.8664-0.2004 1.1816-0.5137 0.6909-0.6909 0.6909-1.8107 0-2.5016-0.3454-0.3454-0.7981-0.5183-1.2509-0.5183zm-4.4391 4.0852-4.2765 4.2277c-0.5876 0.5876-0.5754 1.69-0.15814 2.1073 0.41725 0.41725 1.6913 0.5976 2.2811 0.013799l4.2746-4.2258zm-4.83 6.8593c-0.41001 0.7101-1.0651 1.8971-1.0651 2.4853 0 0.58825 0.4769 1.0651 1.0651 1.0651s1.0651-0.4769 1.0651-1.0651c0-0.58824-0.70974-1.7752-1.0651-2.4853z" style="fill-opacity:.75;fill:currentColor" class="ColorScheme-Text"/>
	<path id="h" d="m12.2 0.1c-0.6961 0-1.4001 0.2711-1.9278 0.7989-0.3308 0.3317-0.4196 0.8005-0.5454 1.2461-0.014 0-0.033-0.011-0.047-0.011l0.011-0.021c0 0.011-0.011 0.015-0.013 0.021-0.3122-0.078-0.5692 0.114-0.9394 0.068-0.4466-0.056-0.9481-0.08-1.4785 0.1192l-2.1934 0.1543 1.9746 1.9746-0.076 0.076-3.9766 3.9278c-0.6939 0.6939-0.7121 1.6587-0.4102 2.5371l-0.053848 0.46149c-0.20877 0.36158-0.48478 0.8497-0.71564 1.3425-0.23085 0.49281-0.44516 0.9401-0.44516 1.4979 0 0.97205 0.80319 1.7752 1.7752 1.7752s1.7752-0.80319 1.7752-1.7752c0-0.57972-0.23483-1.0193-0.47016-1.5062-0.097426-0.2016 0.28221 0.1234 0.14211-0.1434 0.7015 0.051 1.405-0.1251 1.9356-0.6504l4.0586-4.0078 1.9766 1.9766 0.1542-2.1953c0.1989-0.5296 0.1746-1.029 0.1192-1.4746-0.046-0.3721 0.1477-0.6305 0.069-0.9434 0.011 0 0.014-0.011 0.021-0.013l-0.021 0.011c0-0.013 0-0.032-0.013-0.045 0.4451-0.1248 0.9138-0.2129 1.2462-0.5432 0.9965-0.9966 1.1405-2.7008 0.2555-3.7661l-0.034-0.068-0.1236-0.1214c-0.5275-0.5269-1.3299-0.6988-2.0257-0.6988zm0.2052 0.7524c0.4528 0 0.9054 0.1729 1.2508 0.5183 0.6909 0.6909 0.6909 1.8108 0 2.5017-0.3152 0.3132-0.7375 0.4971-1.1817 0.5136-0.1625 0.1201-0.3292 0.2238-0.4975 0.3087l0.011 0.012-0.071 0.5022c0.2025 0.7683 0.1163 1.751-0.2023 2.3566l-0.01 0.1387-4.3867-4.3867 0.1387-0.01c0.6065-0.3202 1.5915-0.4051 2.3616-0.2019l0.4975-0.071 0.012 0.012c0.085-0.1687 0.189-0.3366 0.3087-0.4999 0.017-0.4438 0.2024-0.8648 0.516-1.1794 0.3453-0.3454 0.7982-0.5183 1.2508-0.5183zm-4.4391 4.0852 2.1211 2.123-4.2746 4.2258c-0.5898 0.5838-1.8654 0.41725-2.2826 0-0.41725-0.41732-0.42795-1.5335 0.15965-2.1211zm-4.8315 6.8731c0.3554 0.7101 1.0651 1.8971 1.0651 2.4853 0 0.58825-0.4769 1.0651-1.0651 1.0651s-1.0651-0.4769-1.0651-1.0651c0-0.58824 0.65514-1.7752 1.0651-2.4853z" style="fill-opacity:.5;fill:currentColor" class="ColorScheme-Background"/>
</svg>
