<?xml version="1.0" encoding="UTF-8"?>
<svg id="g" width="16" height="16" version="1.1" xmlns="http://www.w3.org/2000/svg" xmlns:cc="http://creativecommons.org/ns#" xmlns:dc="http://purl.org/dc/elements/1.1/" xmlns:rdf="http://www.w3.org/1999/02/22-rdf-syntax-ns#">
	<metadata id="a">
		<rdf:RDF>
			<cc:Work rdf:about="">
				<dc:format>image/svg+xml</dc:format>
				<dc:type rdf:resource="http://purl.org/dc/dcmitype/StillImage"/>
			</cc:Work>
		</rdf:RDF>
	</metadata>
	<defs>
		<style id="current-color-scheme" type="text/css">.ColorScheme-Text {color:#090d11;}.ColorScheme-Background{color:#ffffff;}</style>
	</defs>
	<path id="f" class="ColorScheme-Text" d="m14 2c-0.2652 4.01e-5 -0.51953 0.10542-0.70703 0.29297l-2.5 2.5c-0.14244 0.14533-0.23715 0.33067-0.27148 0.53125l-1.4219-1.4219c-0.19525-0.19521-0.51178-0.19521-0.70703 0-0.19521 0.19525-0.19521 0.51178 0 0.70703l0.68164 0.68164c-0.067842 0.02363-0.12979 0.061601-0.18164 0.11133l-5.7461 5.7441c-0.093768 0.093756-0.14646 0.22092-0.14648 0.35352v2c2.76e-5 0.27613 0.22387 0.49997 0.5 0.5h2c0.1326-2.5e-5 0.25976-0.05272 0.35352-0.14648l5.7461-5.7441c0.05066-0.050335 0.08996-0.11094 0.11524-0.17773l0.67773 0.67773c0.19525 0.19521 0.51178 0.19521 0.70703 0 0.19521-0.19525 0.19521-0.51178 0-0.70703l-1.4238-1.4238c0.20058-0.034332 0.38592-0.12904 0.53125-0.27148l2.5-2.5c0.39042-0.39051 0.39042-1.0236 0-1.4141-0.1875-0.18755-0.44183-0.29293-0.70703-0.29297zm-4.2852 3.9316 1.3594 1.3594c-0.06784 0.02363-0.1298 0.061601-0.18164 0.11133l-1.5977 1.5977h-2.5879l2.8926-2.8906c0.050664-0.050335 0.089957-0.11094 0.11523-0.17773zm-5.2148 6.0684c0.27614 0 0.5 0.22386 0.5 0.5s-0.22386 0.5-0.5 0.5-0.5-0.22386-0.5-0.5 0.22386-0.5 0.5-0.5zm-1 3c-0.27614 0-0.5 0.22386-0.5 0.5s0.22386 0.5 0.5 0.5 0.5-0.22386 0.5-0.5-0.22386-0.5-0.5-0.5z" style="fill-opacity:.75;fill:currentColor"/>
</svg>
