<?xml version="1.0" encoding="UTF-8"?>
<svg id="g" width="16" height="16" version="1.1" xmlns="http://www.w3.org/2000/svg" xmlns:cc="http://creativecommons.org/ns#" xmlns:dc="http://purl.org/dc/elements/1.1/" xmlns:rdf="http://www.w3.org/1999/02/22-rdf-syntax-ns#">
	<metadata id="a">
		<rdf:RDF>
			<cc:Work rdf:about="">
				<dc:format>image/svg+xml</dc:format>
				<dc:type rdf:resource="http://purl.org/dc/dcmitype/StillImage"/>
			</cc:Work>
		</rdf:RDF>
	</metadata>
	<defs>
		<style id="current-color-scheme" type="text/css">.ColorScheme-Text {color:#090d11;}.ColorScheme-Background{color:#ffffff;}</style>
	</defs>
	<path id="f" class="ColorScheme-Text" d="m12.4 0.9c-0.4527 0-0.9055 0.1729-1.2508 0.5184-0.3136 0.3145-0.4985 0.7356-0.516 1.1794-0.1197 0.1632-0.224 0.3312-0.3086 0.4998l-0.012-0.012-0.4976 0.072c-0.7701-0.2033-1.755-0.1184-2.3615 0.2018l-0.1387 0.01 4.3867 4.3867 0.01-0.1387c0.3186-0.6056 0.4047-1.5882 0.2022-2.3565l0.072-0.5022-0.012-0.012c0.1683-0.085 0.335-0.1886 0.4976-0.3086 0.4441-0.016 0.8664-0.2004 1.1816-0.5137 0.6909-0.6909 0.6909-1.8107 0-2.5016-0.3454-0.3454-0.7981-0.5183-1.2509-0.5183zm-4.4391 4.0852-4.2765 4.2277c-0.5876 0.5876-0.5754 1.69-0.15814 2.1073 0.41725 0.41725 1.6913 0.5976 2.2811 0.013799l4.2746-4.2258zm-4.83 6.8593c-0.41001 0.7101-1.0651 1.8971-1.0651 2.4853 0 0.58825 0.4769 1.0651 1.0651 1.0651s1.0651-0.4769 1.0651-1.0651c0-0.58824-0.70974-1.7752-1.0651-2.4853z" style="fill-opacity:.75;fill:currentColor"/>
</svg>
