<?xml version="1.0" encoding="UTF-8"?>
<svg id="c" width="16" height="16" version="1.1" xmlns="http://www.w3.org/2000/svg" xmlns:cc="http://creativecommons.org/ns#" xmlns:dc="http://purl.org/dc/elements/1.1/" xmlns:rdf="http://www.w3.org/1999/02/22-rdf-syntax-ns#">
	<metadata id="b">
		<rdf:RDF>
			<cc:Work rdf:about="">
				<dc:format>image/svg+xml</dc:format>
				<dc:type rdf:resource="http://purl.org/dc/dcmitype/StillImage"/>
				<dc:title/>
			</cc:Work>
		</rdf:RDF>
	</metadata>
	<defs>
		<style id="current-color-scheme" type="text/css">.ColorScheme-Text {color:#090d11;}.ColorScheme-Background{color:#ffffff;}</style>
	</defs>
	<path id="d" d="m2 2v4h1v-1a1 1 0 0 1 1-1h3v8a1 1 0 0 1-1 1h-2v1h8v-1h-2a1 1 0 0 1-1-1v-8h3a1 1 0 0 1 1 1v1h1v-4h-11z" style="fill-opacity:.75;fill:currentColor" class="ColorScheme-Text"/>
	<path id="a" d="m1 1v5h1v-4h1 11v4h1v-5h-13-1zm5 3v9a1 1 0 0 0 1 -1v-8h-1zm3 0v8a1 1 0 0 0 1 1v-9h-1zm-5 10v1h8v-1h-8z" style="fill-opacity:.5;fill:currentColor" class="ColorScheme-Background"/>
</svg>
