<?xml version="1.0" encoding="UTF-8"?>
<svg id="r" width="16" height="16" version="1.1" xmlns="http://www.w3.org/2000/svg" xmlns:cc="http://creativecommons.org/ns#" xmlns:dc="http://purl.org/dc/elements/1.1/" xmlns:rdf="http://www.w3.org/1999/02/22-rdf-syntax-ns#" xmlns:xlink="http://www.w3.org/1999/xlink">
	<metadata id="ak">
		<rdf:RDF>
			<cc:Work rdf:about="">
				<dc:format>image/svg+xml</dc:format>
				<dc:type rdf:resource="http://purl.org/dc/dcmitype/StillImage"/>
				<dc:title/>
			</cc:Work>
		</rdf:RDF>
	</metadata>
	<defs>
		<style id="current-color-scheme" type="text/css">.ColorScheme-Text {color:#090d11;}.ColorScheme-Background{color:#ffffff;}</style>
	</defs>
	<path id="l" d="m0 4.9753e-7v1.4375l1.5 1.5625 0.5 1.5-0.25 1.25 2.2188 3.5 0.03125-1.75 3.5-3.5625 1.75 0.03125-3.5-2.2188-1.25 0.25-1.5-0.5-1.5625-1.5zm8 5-3 3v1h1l3-3v-1zm3 3-3 3v2l2.25 1.25 1.25-0.25 1.5 0.5 1.5625 1.5h1.4375v-1.4375l-1.5-1.5625-0.5-1.5 0.25-1.25-1.25-2.25z" style="fill-opacity:.75;fill:currentColor" class="ColorScheme-Text"/>
	<path id="n" d="m-0.125-1.1562a1.1501 1.1501 0 0 0-1.0312 1.1562v1.4375a1.1501 1.1501 0 0 0 0.3125 0.78125l1.3125 1.375 0.34375 1-0.1875 0.9375a1.1501 1.1501 0 0 0 0.15625 0.84375l2.2188 3.5a1.1501 1.1501 0 0 0 2.125-0.59375l0.03125-1.3125 2.8125-2.875 1.25 0.03125a1.1501 1.1501 0 0 0 0.65625-2.125l-3.5-2.2188a1.1501 1.1501 0 0 0-0.84375-0.15625l-0.9375 0.1875-1-0.34375-1.375-1.3125a1.1501 1.1501 0 0 0-0.78125-0.3125h-1.4375a1.1501 1.1501 0 0 0-0.125 0zm0.125 1.1562h1.4375l1.5625 1.5 1.5 0.5 1.25-0.25 3.5 2.2188-1.75-0.03125-3.5 3.5625-0.03125 1.75-2.2188-3.5 0.25-1.25-0.5-1.5-1.5-1.5625v-1.4375zm10.875 6.8438a1.1501 1.1501 0 0 0-0.6875 0.34375l-3 3a1.1501 1.1501 0 0 0-0.34375 0.8125v2a1.1501 1.1501 0 0 0 0.59375 1l2.25 1.25a1.1501 1.1501 0 0 0 0.78125 0.125l0.9375-0.1875 1 0.34375 1.375 1.3125a1.1501 1.1501 0 0 0 0.78125 0.3125h1.4375a1.1501 1.1501 0 0 0 1.1562-1.1562v-1.4375a1.1501 1.1501 0 0 0-0.3125-0.78125l-1.3125-1.375-0.34375-1 0.1875-0.9375a1.1501 1.1501 0 0 0-0.125-0.78125l-1.25-2.25a1.1501 1.1501 0 0 0-1-0.59375h-2a1.1501 1.1501 0 0 0-0.125 0zm0.125 1.1562h2l1.25 2.25-0.25 1.25 0.5 1.5 1.5 1.5625v1.4375h-1.4375l-1.5625-1.5-1.5-0.5-1.25 0.25-2.25-1.25v-2z" style="fill-opacity:.5;fill:currentColor" class="ColorScheme-Background"/>
</svg>
