<?xml version="1.0" encoding="UTF-8"?>
<svg id="a" width="16" height="16" version="1.1" xmlns="http://www.w3.org/2000/svg" xmlns:cc="http://creativecommons.org/ns#" xmlns:dc="http://purl.org/dc/elements/1.1/" xmlns:rdf="http://www.w3.org/1999/02/22-rdf-syntax-ns#">
	<metadata id="d">
		<rdf:RDF>
			<cc:Work rdf:about="">
				<dc:format>image/svg+xml</dc:format>
				<dc:type rdf:resource="http://purl.org/dc/dcmitype/StillImage"/>
			</cc:Work>
		</rdf:RDF>
	</metadata>
	<defs>
		<style id="current-color-scheme" type="text/css">.ColorScheme-Text {color:#090d11;}.ColorScheme-Background{color:#ffffff;}</style>
	</defs>
	<path id="b" class="ColorScheme-Text" d="m16.857-1.5312a0.55 0.55 0 0 0-0.24609 0.14258l-5.4941 5.4941c-1.6067-1.2811-3.8308-1.5245-5.6426-0.47852-1.3885 0.80168-2.2807 2.1906-2.4824 3.7109a0.55 0.55 0 0 0 0.47266 0.61719 0.55 0.55 0 0 0 0.61914-0.47266c0.15774-1.1887 0.85051-2.2736 1.9395-2.9023 1.5506-0.89526 3.5035-0.63909 4.7695 0.62695a0.55006 0.55006 0 0 0 0.77734 0l5.8184-5.8184a0.55 0.55 0 0 0 0-0.77734 0.55 0.55 0 0 0-0.53125-0.14258zm-8.8574 7.375c-1.1909 0-2.1562 0.96535-2.1562 2.1562s0.96535 2.1562 2.1562 2.1562 2.1562-0.96535 2.1562-2.1562-0.96535-2.1562-2.1562-2.1562zm4.5332 2.168a0.55 0.55 0 0 0-0.61328 0.47656c-0.15013 1.2002-0.84744 2.2978-1.9453 2.9316-1.5506 0.89526-3.5015 0.63909-4.7676-0.62695a0.55006 0.55006 0 0 0-0.7793 0l-5.8164 5.8184a0.55 0.55 0 0 0 0 0.77734 0.55 0.55 0 0 0 0.77734 0l5.4941-5.4941c1.6066 1.2802 3.8293 1.5243 5.6406 0.47852 1.3999-0.80819 2.2963-2.213 2.4883-3.748a0.55 0.55 0 0 0-0.47852-0.61328z" style="fill-opacity:.75;fill:currentColor"/>
</svg>
