<?xml version="1.0" encoding="UTF-8"?>
<svg id="c" width="16" height="16" version="1.1" xmlns="http://www.w3.org/2000/svg" xmlns:cc="http://creativecommons.org/ns#" xmlns:dc="http://purl.org/dc/elements/1.1/" xmlns:rdf="http://www.w3.org/1999/02/22-rdf-syntax-ns#">
	<metadata id="a">
		<rdf:RDF>
			<cc:Work rdf:about="">
				<dc:format>image/svg+xml</dc:format>
				<dc:type rdf:resource="http://purl.org/dc/dcmitype/StillImage"/>
			</cc:Work>
		</rdf:RDF>
	</metadata>
	<defs>
		<style id="current-color-scheme" type="text/css">.ColorScheme-Text {color:#090d11;}.ColorScheme-Background{color:#ffffff;}</style>
	</defs>
	<path class="ColorScheme-Background" d="m8 0c-4.4183 0-8 3.5817-8 8s3.5817 8 8 8 8-3.5817 8-8-3.5817-8-8-8zm0 1c3.866 0 7 3.134 7 7 0 3.866-3.134 7-7 7-3.866 0-7-3.134-7-7 0-3.866 3.134-7 7-7zm-0.5 2c-0.27614 0-0.5 0.22386-0.5 0.5v5c0 0.27614 0.22386 0.5 0.5 0.5s0.5-0.22386 0.5-0.5v-5c0-0.27614-0.22386-0.5-0.5-0.5zm1 6c-0.27614 0-0.5 0.22386-0.5 0.5s0.22386 0.5 0.5 0.5h4c0.27614 0 0.5-0.22386 0.5-0.5s-0.22386-0.5-0.5-0.5z" style="fill-opacity:.5;fill:currentColor"/>
	<path id="b" class="ColorScheme-Text" d="m8 1c-3.866 0-7 3.134-7 7 0 3.866 3.134 7 7 7 3.866 0 7-3.134 7-7 0-3.866-3.134-7-7-7zm0 1c3.3137 0 6 2.6863 6 6 0 3.3137-2.6863 6-6 6-3.3137 0-6-2.6863-6-6 0-3.3137 2.6863-6 6-6zm0.5 1.5c-0.27614 0-0.5 0.22386-0.5 0.5v4.5c0 0.27614 0.22386 0.5 0.5 0.5 0.071714-0.0012384 0.14232-0.017891 0.20703-0.048828 0.094681 0.030769 0.19343 0.047226 0.29297 0.048828h2.5c0.55228 0 1-0.44772 1-1s-0.44772-1-1-1h-2.5v-3c0-0.27614-0.22386-0.5-0.5-0.5z" style="fill-opacity:.75;fill:currentColor"/>
</svg>
