<?xml version="1.0" encoding="UTF-8"?>
<!-- Created with Inkscape (http://www.inkscape.org/) -->
<svg width="16" height="16" version="1.1" xmlns="http://www.w3.org/2000/svg" xmlns:cc="http://creativecommons.org/ns#" xmlns:dc="http://purl.org/dc/elements/1.1/" xmlns:rdf="http://www.w3.org/1999/02/22-rdf-syntax-ns#">
	<metadata>
		<rdf:RDF>
			<cc:Work rdf:about="">
				<dc:format>image/svg+xml</dc:format>
				<dc:type rdf:resource="http://purl.org/dc/dcmitype/StillImage"/>
				<dc:title/>
			</cc:Work>
		</rdf:RDF>
	</metadata>
	<defs>
		<style id="current-color-scheme" type="text/css">.ColorScheme-Text {
			color:#090d11;
			}</style>
	</defs>
	<path d="m7 3.834-6.207 6.207h8.207c0.62533 0 1.0461 3e-3 1.3301 0.05273 0.28399 0.04971 0.43501 0.11968 0.66797 0.32227 0.46488 0.40427 1.1497 1.4217 2.6934 3.4336 0.0035 0.0045 0.0024 0.0033 0.0059 0.0078l0.79883-0.60156c-0.0034-0.0045-0.0025-0.0033-0.0059-0.0078-1.8259-2.4683-2.4321-3.6692-3-4.3848-0.28448-0.35842-0.62548-0.62034-1.0332-0.72656-0.40772-0.10621-0.83143-0.095703-1.457-0.095703h-4.793l1.793-1.793v0.75195h1z" color="#090d11" fill="currentColor" class="ColorScheme-Text"/>
</svg>
