<?xml version="1.0" encoding="UTF-8"?>
<!-- Created with Inkscape (http://www.inkscape.org/) -->
<svg width="16" height="16" version="1.1" xmlns="http://www.w3.org/2000/svg" xmlns:cc="http://creativecommons.org/ns#" xmlns:dc="http://purl.org/dc/elements/1.1/" xmlns:rdf="http://www.w3.org/1999/02/22-rdf-syntax-ns#">
	<metadata>
		<rdf:RDF>
			<cc:Work rdf:about="">
				<dc:format>image/svg+xml</dc:format>
				<dc:type rdf:resource="http://purl.org/dc/dcmitype/StillImage"/>
				<dc:title/>
			</cc:Work>
		</rdf:RDF>
	</metadata>
	<defs>
		<style id="current-color-scheme" type="text/css">.ColorScheme-Text {color:#090d11;}</style>
	</defs>
	<g transform="translate(9384.3 -4846.2)">
		<path transform="translate(-9384.3 4846.2)" d="m3.5 1c-0.8225 0-1.5 0.6776-1.5 1.5v8c0 0.8224 0.6776 1.5 1.5 1.5h7c0.2857 0 0.5-0.2143 0.5-0.5v-9c0-0.8224-0.68151-1.5-1.5039-1.5zm0 1h5.9961c0.2856 0 0.50391 0.2143 0.50391 0.5v8c0 0.2858-0.21821 0.5-0.50391 0.5h-5.9961c-0.2858 0-0.5-0.2142-0.5-0.5v-8c0-0.2858 0.2142-0.5 0.5-0.5zm8.5 3v6.5c0 0.8224-0.6776 1.5-1.5 1.5h-4.5v0.5c0 0.8224 0.6776 1.5 1.5 1.5h4.9961c0.8224 0 1.5039-0.6775 1.5039-1.5v-7c0-0.8224-0.68151-1.5-1.5039-1.5z" style="fill-opacity:.75;fill:currentColor" class="ColorScheme-Text"/>
		<path transform="translate(-9384.3 4846.2)" d="m11 5v6.5c0 0.2857-0.2143 0.5-0.5 0.5h-4.5v1h4.5c0.8224 0 1.5-0.6776 1.5-1.5v-6.5h-1z" style="fill-opacity:.75;fill:currentColor" class="ColorScheme-Text"/>
	</g>
</svg>
