<?xml version="1.0" encoding="UTF-8"?>
<svg id="a" width="16" height="16" version="1.1" xmlns="http://www.w3.org/2000/svg" xmlns:cc="http://creativecommons.org/ns#" xmlns:dc="http://purl.org/dc/elements/1.1/" xmlns:rdf="http://www.w3.org/1999/02/22-rdf-syntax-ns#">
	<metadata id="d">
		<rdf:RDF>
			<cc:Work rdf:about="">
				<dc:format>image/svg+xml</dc:format>
				<dc:type rdf:resource="http://purl.org/dc/dcmitype/StillImage"/>
				<dc:title/>
			</cc:Work>
		</rdf:RDF>
	</metadata>
	<defs>
		<style id="current-color-scheme" type="text/css">.ColorScheme-Text {color:#090d11;}.ColorScheme-Background{color:#ffffff;}</style>
	</defs>
	<g id="b" transform="translate(9384.3 -4846.2)">
		<path id="e" transform="translate(-9384.3 4846.2)" d="m8 1l-3 4h2v5h2v-5h2l-3-4zm-7.5059 5.4961a0.50005 0.50005 0 0 0 -0.27148 0.91992l2.7754 1.8516v5.2324a0.50005 0.50005 0 0 0 0.5 0.5h9.0039a0.50005 0.50005 0 0 0 0.5 -0.5v-5.2324l2.7754-1.8516a0.50005 0.50005 0 1 0 -0.55469 -0.83203l-3 2a0.50005 0.50005 0 0 0 -0.2207 0.41602v5h-8.0039v-5a0.50005 0.50005 0 0 0 -0.2207 -0.41602l-3-2a0.50005 0.50005 0 0 0 -0.2832 -0.087891z" style="fill-opacity:.75;fill:currentColor" class="ColorScheme-Text"/>
		<path id="c" transform="translate(-9384.3 4846.2)" d="m8-0.59375l-4.2812 5.5938h1.2812l3-4 3 4h1.2812l-4.2812-5.5938zm-2 5.5938v1 3 1h1v-1-4h-1zm3 0v4 1h1v-1-3-1h-1zm-8.5059 2.6953a0.50005 0.50005 0 0 0 -0.27148 0.91992l1.7754 1.1855v5.6992a0.50005 0.50005 0 0 0 0.5 0.5h11.004a0.50005 0.50005 0 0 0 0.5 -0.5v-5.6992l1.7754-1.1855a0.50005 0.50005 0 1 0 -0.55469 -0.83203l-2 1.334a0.50005 0.50005 0 0 0 -0.2207 0.41602v5.4668h-10.004v-5.4668a0.50005 0.50005 0 0 0 -0.2207 -0.41602l-2-1.334a0.50005 0.50005 0 0 0 -0.2832 -0.087891z" style="fill-opacity:.5;fill:currentColor" class="ColorScheme-Background"/>
	</g>
</svg>
