<?xml version="1.0" encoding="UTF-8"?>
<svg id="g" width="16" height="16" version="1.1" xmlns="http://www.w3.org/2000/svg" xmlns:cc="http://creativecommons.org/ns#" xmlns:dc="http://purl.org/dc/elements/1.1/" xmlns:rdf="http://www.w3.org/1999/02/22-rdf-syntax-ns#">
	<metadata id="a">
		<rdf:RDF>
			<cc:Work rdf:about="">
				<dc:format>image/svg+xml</dc:format>
				<dc:type rdf:resource="http://purl.org/dc/dcmitype/StillImage"/>
			</cc:Work>
		</rdf:RDF>
	</metadata>
	<defs>
		<style id="current-color-scheme" type="text/css">.ColorScheme-Text {color:#090d11;}.ColorScheme-Background{color:#ffffff;}</style>
	</defs>
	<path id="f" class="ColorScheme-Text" d="m8.8008 1.0039c-0.30248 0.0075617-0.54301 0.084022-0.68945 0.23047l-5.6582 5.6562c-0.58579 0.58579 0.20743 2.3266 1.7695 3.8887 0.59128 0.59128 1.2071 1.0706 1.7773 1.4082v2.8125h-2c-0.554 0-1 0.446-1 1h8c0-0.554-0.446-1-1-1h-3v-2.3555c0.48975 0.14661 0.88651 0.12716 1.1113-0.09766l5.6562-5.6562c0.58579-0.58579 0.03984-2.6828-1.4668-4.1895-1.13-1.13-2.5926-1.72-3.5-1.6973zm-4.656 6.4543c0.54259 0.031496 1.3762 0.53269 2.1157 1.2721 1.0164 1.0163 1.5307 2.1491 1.1483 2.5289-0.38189 0.37887-1.5127-0.13583-2.527-1.1502-1.0144-1.0143-1.5291-2.1451-1.1502-2.527 0.092094-0.092369 0.23261-0.13446 0.41323-0.12378z" style="fill-opacity:.75;fill:currentColor"/>
</svg>
