<?xml version="1.0" encoding="UTF-8"?>
<!-- Created with Inkscape (http://www.inkscape.org/) -->
<svg width="16" height="16" version="1.1" xmlns="http://www.w3.org/2000/svg" xmlns:cc="http://creativecommons.org/ns#" xmlns:dc="http://purl.org/dc/elements/1.1/" xmlns:rdf="http://www.w3.org/1999/02/22-rdf-syntax-ns#">
	<defs>
		<radialGradient id="a" cx="-9416.6" cy="5035.4" r="9" gradientTransform="matrix(-1.3333 0 0 1.1851 -12543 -5961.7)" gradientUnits="userSpaceOnUse">
			<stop stop-color="#213851" stop-opacity=".9059" offset="0"/>
			<stop stop-color="#27303a" stop-opacity="0" offset="1"/>
		</radialGradient>
		<radialGradient id="b" cx="8" cy="11.997" r="9.3438" gradientTransform="matrix(-1 0 0 .82441 18 -1.9)" gradientUnits="userSpaceOnUse">
			<stop stop-color="#ffffff" stop-opacity=".74858" offset="0"/>
			<stop stop-color="#ffffff" stop-opacity=".60511" offset="1"/>
		</radialGradient>
	</defs>
	<metadata>
		<rdf:RDF>
			<cc:Work rdf:about="">
				<dc:format>image/svg+xml</dc:format>
				<dc:type rdf:resource="http://purl.org/dc/dcmitype/StillImage"/>
				<dc:title/>
			</cc:Work>
		</rdf:RDF>
	</metadata>
	<path d="m14 8-6.1562 6.1562-1.6563-1.4375 3.7188-3.7187h-7.906v-2h7.906l-3.7188-3.7188 1.6563-1.4375z" color="#000000" fill="#090d11" fill-opacity=".76621" style="paint-order:normal;text-decoration-line:none;text-indent:0;text-transform:none"/>
	<path d="m14 8-6.1562 6.1562-1.6563-1.4375 3.7188-3.7187h-7.906v-2h7.906l-3.7188-3.7188 1.6563-1.4375z" color="#000000" fill="url(#a)" fill-opacity=".75328" style="paint-order:normal;text-decoration-line:none;text-indent:0;text-transform:none"/>
	<path d="m8 0.3 7.6875 7.6875-7.6875 7.7187v-1.7187l6-6-6-6zm1.4063 6.1875 0.5 0.5h-8.906v-0.5zm0.5 2.5-0.5 0.5h-8.406v-0.5z" color="#000000" fill="url(#b)" fill-opacity=".99858" style="paint-order:normal;text-decoration-line:none;text-indent:0;text-transform:none"/>
</svg>
