<?xml version="1.0" encoding="UTF-8"?>
<svg id="b" width="16" height="16" version="1.1" xmlns="http://www.w3.org/2000/svg" xmlns:cc="http://creativecommons.org/ns#" xmlns:dc="http://purl.org/dc/elements/1.1/" xmlns:rdf="http://www.w3.org/1999/02/22-rdf-syntax-ns#">
	<metadata id="d">
		<rdf:RDF>
			<cc:Work rdf:about="">
				<dc:format>image/svg+xml</dc:format>
				<dc:type rdf:resource="http://purl.org/dc/dcmitype/StillImage"/>
				<dc:title/>
			</cc:Work>
		</rdf:RDF>
	</metadata>
	<defs>
		<style id="current-color-scheme" type="text/css">.ColorScheme-Text {color:#090d11;}.ColorScheme-Background{color:#ffffff;}</style>
	</defs>
	<g id="e">
		<path id="a" d="m3 1v1h10v-1zm-1 2v2h12v-2zm-1 3v0.59375l7 3.4063 7-3.4063v-0.59375zm0 1.25v7.75h14v-7.75l-7 4.75z" style="fill-opacity:.75;fill:currentColor" class="ColorScheme-Text"/>
		<path id="c" d="m2 0v1h12v-1h-11zm-1 2v2h1v-1h12v1h1v-2h-13zm-1 3v11h16v-11h-15zm1 1h14v0.59375l-7 3.4062-7-3.4062zm0 1.25 7 4.75 7-4.75v7.75h-14z" style="fill-opacity:.5;fill:currentColor" class="ColorScheme-Background"/>
	</g>
</svg>
