<?xml version="1.0" encoding="UTF-8"?>
<svg id="c" width="16" height="16" version="1.0" xmlns="http://www.w3.org/2000/svg" xmlns:cc="http://creativecommons.org/ns#" xmlns:dc="http://purl.org/dc/elements/1.1/" xmlns:rdf="http://www.w3.org/1999/02/22-rdf-syntax-ns#">
	<metadata id="d">
		<rdf:RDF>
			<cc:Work rdf:about="">
				<dc:format>image/svg+xml</dc:format>
				<dc:type rdf:resource="http://purl.org/dc/dcmitype/StillImage"/>
				<dc:title/>
			</cc:Work>
		</rdf:RDF>
	</metadata>
	<defs>
		<style id="current-color-scheme" type="text/css">.ColorScheme-Text {color:#090d11;}.ColorScheme-Background{color:#ffffff;}</style>
	</defs>
	<path id="b" d="m11.535 0.96875c-0.89717 4e-8 -1.7941 0.34093-2.4746 1.0215l-3.5352 3.5352c-1.3611 1.3611-1.3611 3.5881 0 4.9492 0.1221 0.1221 0.25335 0.22353 0.38672 0.32031l1.4512-1.4512c-0.15225-0.07087-0.29761-0.15698-0.42383-0.2832-0.60313-0.60313-0.60313-1.518 0-2.1211l3.5352-3.5352c0.60313-0.60313 1.518-0.60313 2.1211 0 0.60313 0.60313 0.60313 1.518 0 2.1211l-0.54102 0.54297c0.070029 0.14926 0.13105 0.3002 0.18359 0.45117v0.0039063l0.019531 0.058594 0.070313 0.27539c0.12331 0.47318 0.17187 0.96284 0.13867 1.4512l-0.013672 0.1875 1.5566-1.5566c1.3611-1.3611 1.3611-3.5881 0-4.9492-0.68053-0.68055-1.5774-1.0215-2.4746-1.0215zm-1.4473 4.2363-1.4512 1.4512c0.15225 0.070871 0.29761 0.15699 0.42383 0.2832 0.5964 0.5964 0.60066 1.4964 0.017578 2.0996l0.0019531 0.0019531-3.5547 3.5547c-0.60313 0.60313-1.518 0.60313-2.1211 0-0.60313-0.60313-0.60313-1.518 0-2.1211l0.55078-0.55078c-0.3601-0.76433-0.49074-1.6034-0.39844-2.4297l-1.5664 1.5664c-1.3611 1.3611-1.3611 3.5881 0 4.9492s3.5881 1.3611 4.9492 0l3.5352-3.5352c0.52919-0.52919 0.8486-1.1919 0.9668-1.875l0.001953-0.013672 0.001953-0.011719 0.023438-0.33398c0.01287-0.1893 0.010277-0.37871-0.007812-0.56836-0.017971-0.18874-0.05117-0.37662-0.09961-0.5625l-0.001953-0.0019531-0.0625-0.24414-0.003906-0.015625c-0.16511-0.47418-0.43026-0.93414-0.81836-1.3223-0.1221-0.1221-0.25335-0.22353-0.38672-0.32031zm4.4121 4.7949c-0.277 0-0.5 0.223-0.5 0.5v3.5h-3.5c-0.277 0-0.5 0.223-0.5 0.5s0.223 0.5 0.5 0.5h4c0.277 0 0.5-0.223 0.5-0.5v-4c0-0.277-0.223-0.5-0.5-0.5z" style="fill-opacity:.75;fill:currentColor" class="ColorScheme-Text"/>
	<path id="a" d="m11.535-0.03125c-1.1505 5e-8 -2.3085 0.44131-3.1816 1.3145l-3.5352 3.5352c-0.49306 0.49306-0.81068 1.0835-1.0254 1.7051a1.0001 1.0001 0 0 0-0.94336 0.26367l-1.5664 1.5664c-1.7467 1.7467-1.7467 4.6165 0 6.3633 1.7467 1.7467 4.6165 1.7467 6.3633 0l3.5352-3.5352c0.49642-0.49642 0.69243-1.1354 0.90625-1.7559a1.0001 1.0001 0 0 0 1.0723-0.22266l1.5566-1.5566c1.7467-1.7467 1.7467-4.6165 0-6.3633-0.87309-0.8731-2.0311-1.3145-3.1816-1.3145zm0 1c0.89717-4e-8 1.7941 0.34092 2.4746 1.0215 1.3611 1.3611 1.3611 3.5881 0 4.9492l-1.5566 1.5566 0.013672-0.1875c0.0332-0.48831-0.015362-0.97796-0.13867-1.4512l-0.070313-0.27539-0.019531-0.058594v-0.0039063c-0.052547-0.15097-0.11356-0.30191-0.18359-0.45117l0.54102-0.54297c0.60313-0.60313 0.60313-1.518 0-2.1211-0.60313-0.60313-1.518-0.60313-2.1211 0l-3.5352 3.5352c-0.60313 0.60313-0.60313 1.518 0 2.1211 0.12622 0.12622 0.27158 0.21233 0.42383 0.2832l-1.4512 1.4512c-0.13337-0.096779-0.26462-0.19822-0.38672-0.32031-1.3611-1.3611-1.3611-3.5881 0-4.9492l3.5352-3.5352c0.68054-0.68054 1.5774-1.0215 2.4746-1.0215zm0 0.99414c-0.4797 1e-7 -0.95907 0.13882-1.375 0.41406 0.83162-0.54903 1.9184-0.54903 2.75 0-0.41593-0.27525-0.8953-0.41406-1.375-0.41406zm0 1.9648c0.11535 1e-7 0.23071 0.060789 0.35352 0.18359 0.24562 0.24562 0.24562 0.46141 0 0.70703a1.0001 1.0001 0 0 0-0.001953 0.0019531l-0.43359 0.43555c-0.10888-0.14053-0.14129-0.3073-0.27148-0.4375-0.1369-0.1369-0.26181-0.22933-0.38477-0.32227l0.38477-0.38477c0.12281-0.12281 0.23816-0.18359 0.35352-0.18359zm-1.4473 1.2773c0.13337 0.096779 0.26462 0.19822 0.38672 0.32031 0.3881 0.3881 0.65325 0.84805 0.81836 1.3223l0.003906 0.015625 0.0625 0.24414 0.001953 0.0019531c0.04844 0.18588 0.081638 0.37376 0.09961 0.5625 0.01809 0.18965 0.020682 0.37906 0.007812 0.56836l-0.023438 0.33398-0.001953 0.011719-0.001953 0.013672c-0.1182 0.68312-0.4376 1.3458-0.9668 1.875l-3.5352 3.5352c-1.3611 1.3611-3.5881 1.3611-4.9492 0s-1.3611-3.5881 0-4.9492l1.5664-1.5664c-0.092303 0.82629 0.038338 1.6654 0.39844 2.4297l-0.55078 0.55078c-0.60313 0.60313-0.60313 1.518 0 2.1211 0.60313 0.60313 1.518 0.60313 2.1211 0l3.5547-3.5547-0.0019531-0.0019531c0.58308-0.6032 0.57882-1.5032-0.017578-2.0996-0.12622-0.12622-0.27158-0.21233-0.42383-0.2832l1.4512-1.4512zm-2.1582 2.1582a1.0001 1.0001 0 0 0 0.28516 0.19922c0.092051 0.042849 0.12309 0.068405 0.13867 0.083984 0.24239 0.24239 0.24178 0.4532 0.0058594 0.69727a1.0001 1.0001 0 0 0-0.027344 0.03125 1.0001 1.0001 0 0 0-0.19727 0.33398 1.0001 1.0001 0 0 0-0.064453-0.072266 1.0001 1.0001 0 0 0-0.28516-0.19922c-0.092051-0.042849-0.12309-0.068405-0.13867-0.083984-0.24562-0.24562-0.24562-0.46141 0-0.70703l0.2832-0.2832zm0.37695 2.3086a1.0001 1.0001 0 0 0 0.027344 0.035156l-0.03125-0.029297a1.0001 1.0001 0 0 0 0.0039062-0.0058594zm7.1934 0.32812c-0.277 0-0.5 0.223-0.5 0.5v4.5h-4.5c-0.277 0-0.5 0.223-0.5 0.5s0.223 0.5 0.5 0.5h5c0.277 0 0.5-0.223 0.5-0.5v-5c0-0.277-0.223-0.5-0.5-0.5zm-10.963 0.75586c0.10716 0.13576 0.15618 0.30071 0.28125 0.42578 0.1369 0.1369 0.26181 0.22934 0.38477 0.32226l-0.38477 0.38477c-0.24562 0.24562-0.46141 0.24562-0.70703 0s-0.24562-0.46141 0-0.70703l0.42578-0.42578z" style="fill-opacity:.5;fill:currentColor" class="ColorScheme-Background"/>
</svg>
