<?xml version="1.0" encoding="UTF-8"?>
<!-- Created with Inkscape (http://www.inkscape.org/) -->
<svg width="16" height="16" version="1.1" xmlns="http://www.w3.org/2000/svg" xmlns:cc="http://creativecommons.org/ns#" xmlns:dc="http://purl.org/dc/elements/1.1/" xmlns:rdf="http://www.w3.org/1999/02/22-rdf-syntax-ns#">
	<defs>
		<radialGradient id="b" cx="7.0346" cy="8.1285" r="4.2714" gradientTransform="matrix(2.4469 0 0 3.2048 -8.7129 -18.05)" gradientUnits="userSpaceOnUse">
			<stop stop-color="#213851" stop-opacity=".9059" offset="0"/>
			<stop stop-color="#27303a" stop-opacity="0" offset="1"/>
		</radialGradient>
		<radialGradient id="a" cx="7.5229" cy="8.2544" r="5.8618" gradientTransform="matrix(1.7118,0,0,2.3362,-4.3777,-11.284)" gradientUnits="userSpaceOnUse">
			<stop stop-color="#ffffff" stop-opacity=".74858" offset="0"/>
			<stop stop-color="#ffffff" stop-opacity=".60511" offset="1"/>
		</radialGradient>
	</defs>
	<metadata>
		<rdf:RDF>
			<cc:Work rdf:about="">
				<dc:format>image/svg+xml</dc:format>
				<dc:type rdf:resource="http://purl.org/dc/dcmitype/StillImage"/>
				<dc:title/>
			</cc:Work>
		</rdf:RDF>
	</metadata>
	<path d="m7 3c-0.554 0-1 0.446-1 1v8c0 0.554 0.446 1 1 1s1-0.446 1-1v-8c0-0.554-0.446-1-1-1zm3 0c-0.554 0-1 0.446-1 1v8c0 0.554 0.446 1 1 1s1-0.446 1-1v-8c0-0.554-0.446-1-1-1z" fill="#000000" fill-opacity=".76471" style="paint-order:normal"/>
	<path d="m7 3c-0.554 0-1 0.446-1 1v8c0 0.554 0.446 1 1 1s1-0.446 1-1v-8c0-0.554-0.446-1-1-1zm3 0c-0.554 0-1 0.446-1 1v8c0 0.554 0.446 1 1 1s1-0.446 1-1v-8c0-0.554-0.446-1-1-1z" fill="url(#b)" fill-opacity=".76471" style="paint-order:normal"/>
	<path d="m5.5 3c-0.277 0-0.5 0.223-0.5 0.5v9c0 0.277 0.223 0.5 0.5 0.5s0.5-0.223 0.5-0.5v-9c0-0.277-0.223-0.5-0.5-0.5zm6 0c-0.277 0-0.5 0.223-0.5 0.5v9c0 0.277 0.223 0.5 0.5 0.5s0.5-0.223 0.5-0.5v-9c0-0.277-0.223-0.5-0.5-0.5z" fill="url(#a)" style="paint-order:normal"/>
</svg>
