<?xml version="1.0" encoding="UTF-8"?>
<svg id="a" version="1.1" viewBox="0 0 16 16" xmlns="http://www.w3.org/2000/svg" xmlns:cc="http://creativecommons.org/ns#" xmlns:dc="http://purl.org/dc/elements/1.1/" xmlns:rdf="http://www.w3.org/1999/02/22-rdf-syntax-ns#">
	<metadata id="e">
		<rdf:RDF>
			<cc:Work rdf:about="">
				<dc:format>image/svg+xml</dc:format>
				<dc:type rdf:resource="http://purl.org/dc/dcmitype/StillImage"/>
			</cc:Work>
		</rdf:RDF>
	</metadata>
	<defs id="d">
		<style id="current-color-scheme" type="text/css">.ColorScheme-Text{color:#090d11;}.ColorScheme-Background{color:#ffffff;}.ColorScheme-PositiveText {color:#31ad39;}</style>
	</defs>
	<path class="ColorScheme-Text" d="m1 1v2h2v-2h-2zm12 0v1h-1v1h1v1h1v-1h1v-2h-2zm-9 1v1h1v-1h-1zm2 0v1h1v-1h-1zm2 0v1h1v-1h-1zm2 0v1h1v-1h-1zm-8 2v1h1v-1h-1zm3 0c-0.554 0-1 0.446-1 1v3c0 0.554 0.446 1 1 1h3c0.554 0 1-0.446 1-1v-3c0-0.554-0.446-1-1-1h-3zm8 1v1h1v-1h-1zm-11 1v1h1v-1h-1zm8 1v1c0 1.0907-0.9093 2-2 2h-1v1c0 0.554 0.446 1 1 1h3c0.554 0 1-0.446 1-1v-3c0-0.554-0.446-1-1-1h-1zm3 0v1h1v-1h-1zm-11 1v1h1v-1h-1zm11 1v1h1v-1h-1zm-11 1v1h1v-1h-1zm11 1v1h1v-1h-1zm-11 1v1h-1v2h2v-1h1v-1h-1v-1h-1zm3 1v1h1v-1h-1zm2 0v1h1v-1h-1zm2 0v1h1v-1h-1zm2 0v1h1v-1h-1zm2 0v2h2v-2h-2z" style="fill-opacity:.75;fill:currentColor"/>
</svg>
