<?xml version="1.0" encoding="UTF-8"?>
<!-- Created with Inkscape (http://www.inkscape.org/) -->
<svg width="16" height="16" version="1.1" xmlns="http://www.w3.org/2000/svg" xmlns:cc="http://creativecommons.org/ns#" xmlns:dc="http://purl.org/dc/elements/1.1/" xmlns:rdf="http://www.w3.org/1999/02/22-rdf-syntax-ns#">
	<defs>
		<style id="current-color-scheme" type="text/css">.ColorScheme-Text {
			color:#090d11;
			}
			.ColorScheme-Background{
			color:#ffffff;
			}</style>
	</defs>
	<metadata>
		<rdf:RDF>
			<cc:Work rdf:about="">
				<dc:format>image/svg+xml</dc:format>
				<dc:type rdf:resource="http://purl.org/dc/dcmitype/StillImage"/>
			</cc:Work>
		</rdf:RDF>
	</metadata>
	<path class="ColorScheme-Text" d="m7.9512 1.0156c2.0799-0.01099 4.092 0.92004 5.4473 2.5859l1.6016-1.6016v4h-4l1.6875-1.6875c-1.5608-1.9877-4.1883-2.7931-6.5898-1.9902-2.4481 0.81841-4.0977 3.1137-4.0977 5.7051h-1c0-3.0166 1.9274-5.6983 4.7812-6.6523 0.71347-0.23852 1.4454-0.35554 2.1699-0.35938zm7.0488 6.957c0 3.0166-1.9274 5.6983-4.7812 6.6523-0.71347 0.23852-1.4454 0.35554-2.1699 0.35938-2.0799 0.01099-4.092-0.92004-5.4473-2.5859l-1.6016 1.6016v-4h4l-1.6875 1.6875c1.5608 1.9877 4.1883 2.7931 6.5898 1.9902 2.4481-0.81841 4.0977-3.1137 4.0977-5.7051h1z" style="fill-opacity:.75;fill:currentColor"/>
</svg>
