<?xml version="1.0" encoding="UTF-8"?>
<!-- Created with Inkscape (http://www.inkscape.org/) -->
<svg width="16" height="16" version="1.1" xmlns="http://www.w3.org/2000/svg" xmlns:cc="http://creativecommons.org/ns#" xmlns:dc="http://purl.org/dc/elements/1.1/" xmlns:rdf="http://www.w3.org/1999/02/22-rdf-syntax-ns#">
	<metadata>
		<rdf:RDF>
			<cc:Work rdf:about="">
				<dc:format>image/svg+xml</dc:format>
				<dc:type rdf:resource="http://purl.org/dc/dcmitype/StillImage"/>
			</cc:Work>
		</rdf:RDF>
	</metadata>
	<defs>
		<style id="current-color-scheme" type="text/css">.ColorScheme-Text {color:#090d11;}.ColorScheme-Background{color:#ffffff;}</style>
	</defs>
	<path class="ColorScheme-Text" d="m8 1.002v6.0977l1.5 0.90039-1.5 0.90039v6.0977c0.52684 0 0.78979-0.037167 0.84961-0.060547 0.059821-0.02338 0.051371-0.007838 0.18555-0.24023 0.49059-0.84973 0.84174-1.6234 1.625-2.0781v-0.001953c0.78981-0.456 1.6358-0.37305 2.6211-0.37305 0.26836 0 0.25257 0.001067 0.30273-0.039063 0.05016-0.04012 0.21314-0.24882 0.47656-0.70508 0.26342-0.45625 0.36337-0.70212 0.37305-0.76562 0.0097-0.0635 0.016984-0.050806-0.11719-0.2832-0.49101-0.85044-0.98466-1.5403-0.98633-2.4473v-0.0078124c0.0017-0.90692 0.49532-1.5968 0.98633-2.4473 0.13418-0.2324 0.12687-0.21971 0.11719-0.2832-0.0097-0.063503-0.10963-0.30938-0.37305-0.76562s-0.4264-0.66495-0.47656-0.70508c-0.05016-0.040115-0.034388-0.03906-0.30273-0.039062-0.98538-1.4e-6 -1.8313 0.082952-2.6211-0.37305v-0.0019531c-0.78327-0.45467-1.1344-1.2284-1.625-2.0781-0.13418-0.2324-0.12574-0.21684-0.18555-0.24023-0.059821-0.023379-0.32277-0.060547-0.84961-0.060547zm-1 0.24219c-0.014163 0.024273-0.015494 0.024536-0.035156 0.058594-0.3268 0.56603-0.59276 1.0965-0.96484 1.5234v10.346c0.37208 0.42758 0.63804 0.9593 0.96484 1.5254 0.019664 0.034056 0.020992 0.034322 0.035156 0.058593v-13.512zm-2 2.3008c-0.32071 0.12572-0.65212 0.17921-1 0.20117v8.5078c0.34736 0.021985 0.67929 0.075913 1 0.20117v-8.9102zm-2.2812 0.21094c-0.26835 2.2e-6 -0.25256-0.001054-0.30273 0.039062-0.045946 0.036747-0.19031 0.22494-0.41602 0.60547v1.6875c0.36641 0.62418 0.66927 1.2017 0.66992 1.9121-6.568e-4 0.71027-0.30351 1.2879-0.66992 1.9121v1.6875c0.2257 0.38052 0.37007 0.56871 0.41602 0.60547 0.050158 0.04012 0.034381 0.039053 0.30273 0.039063 0.096922 0 0.18695-9.31e-4 0.28125-0.001953v-8.4844c-0.094229-0.0010286-0.18444-0.0019531-0.28125-0.0019531z" style="fill-opacity:.75;fill:currentColor"/>
	<path id="c" class="ColorScheme-Background" d="m8 0v1c0.45169 0 0.67723 0.03269 0.72852 0.052734 0.051288 0.020044 0.043168 0.0058281 0.1582 0.20508 0.42188 0.73061 0.96594 1.6364 1.7852 2.1094l0.5-0.86719c-0.46466-0.26827-1.018-1.0496-1.418-1.7422-0.14341-0.24839-0.34904-0.51437-0.66211-0.63672-0.31306-0.12235-0.61815-0.12109-1.0918-0.12109zm-1 0.089844c-0.030575 0.0097045-0.061234 0.019306-0.091797 0.03125-0.31306 0.12235-0.5187 0.38833-0.66211 0.63672-0.076674 0.13278-0.15984 0.26923-0.24609 0.4043v1.6699c0.40884-0.41711 0.72806-0.92116 1-1.3848v-1.3574zm-2 2.291c-0.058358 0.046383-0.11568 0.0867-0.17188 0.11914l0.17188 0.29883v-0.41797zm-0.17578 0.12109c-0.20017 0.11557-0.49381 0.19722-0.82422 0.25391v1.0332c0.34322-0.048072 0.68271-0.12909 1-0.26172v-0.7207l-0.17578-0.30469zm6.3516 0-0.5 0.86719c0.81917 0.47295 1.875 0.49214 2.7188 0.49219 0.23007 1.9e-6 0.21481-0.0011896 0.25781 0.033203 0.043 0.034394 0.18431 0.2143 0.41016 0.60547s0.31007 0.60181 0.31836 0.65625c0.0083 0.054439 0.015431 0.042936-0.099609 0.24219-0.42179 0.73066-0.93164 1.6537-0.93164 2.5996h1c-1e-6 -0.53655 0.39899-1.407 0.79883-2.0996 0.14341-0.24839 0.27128-0.56028 0.2207-0.89258-0.050574-0.3323-0.20458-0.59563-0.44141-1.0059-0.23682-0.41019-0.3879-0.67482-0.65039-0.88477s-0.59599-0.2539-0.88281-0.25391c-0.79976-4.84e-5 -1.754-0.091095-2.2188-0.35938zm-8.1758 0.35156c-0.13337 0.0050305-0.26644 0.0078048-0.39453 0.0078125-0.19265 1.6e-6 -0.40636 0.021012-0.60547 0.097656v1.4375c0.18716-0.31312 0.30904-0.47107 0.34766-0.50195 0.043003-0.034394 0.027743-0.033201 0.25781-0.033203 0.12494-7.6e-6 0.26174-0.0036009 0.39453-0.0058593v-1.002zm-2 1.2734c-0.19363 0.3375-0.32423 0.5838-0.36914 0.87891-0.050573 0.3323 0.077299 0.64418 0.2207 0.89258 0.04998 0.086579 0.09926 0.17644 0.14844 0.26758v-2.0391zm1 1.7773v2.0938h0.65039c2.4e-6 -0.74046-0.31234-1.4626-0.65039-2.0938zm5 0.5957v3l2.5-1.5-2.5-1.5zm-5 1.502v2.0937c0.33805-0.63113 0.65039-1.3533 0.65039-2.0937h-0.65039zm11.35 0c-2e-6 0.9459 0.50985 1.8689 0.93164 2.5996 0.11504 0.19925 0.10789 0.18775 0.099609 0.24219-0.0083 0.05444-0.092509 0.26508-0.31836 0.65625-0.22584 0.39117-0.36715 0.57107-0.41016 0.60547-0.043 0.03439-0.027743 0.033203-0.25781 0.033203-0.84367 5.1e-5 -1.8996 0.019237-2.7188 0.49219l0.5 0.86719c0.46466-0.26828 1.419-0.35932 2.2188-0.35938 0.28682-2e-6 0.62032-0.043956 0.88281-0.25391 0.26249-0.20994 0.41356-0.47457 0.65039-0.88477 0.23683-0.41019 0.39083-0.67352 0.44141-1.0059 0.05057-0.3323-0.077304-0.64418-0.2207-0.89258-0.39984-0.69263-0.79883-1.5631-0.79883-2.0996h-1zm-12.35 1.832c-0.049176 0.091136-0.098456 0.181-0.14844 0.26758-0.14341 0.2484-0.27128 0.56028-0.2207 0.89258 0.044913 0.29511 0.17551 0.5414 0.36914 0.87891v-2.0391zm1 1.7695v1.4375c0.19911 0.076644 0.41282 0.097655 0.60547 0.097656 0.12809 8e-6 0.26116 0.002782 0.39453 0.007812v-1.002c-0.13279-0.002258-0.26959-0.005852-0.39453-0.005859-0.23007-2e-6 -0.21481 0.001197-0.25781-0.033203-0.038612-0.030886-0.1605-0.18884-0.34766-0.50195zm2 0.60742v1.0332c0.33041 0.056684 0.62405 0.13834 0.82422 0.25391l0.17578-0.30469v-0.7207c-0.31729-0.13263-0.65678-0.21365-1-0.26172zm6.6719 0.42187c-0.81917 0.47295-1.3633 1.3788-1.7852 2.1094-0.11504 0.19925-0.10692 0.18503-0.1582 0.20508s-0.27683 0.052734-0.72852 0.052734v1c0.47365 0 0.77873 0.001296 1.0918-0.12109 0.31306-0.12235 0.5187-0.38833 0.66211-0.63672 0.39992-0.69259 0.95327-1.4739 1.418-1.7422l-0.5-0.86719zm-4.6719 0.53516v1.6699c0.086249 0.13507 0.16942 0.27151 0.24609 0.4043 0.14341 0.24839 0.34904 0.51437 0.66211 0.63672 0.030563 0.011945 0.061222 0.021546 0.091797 0.03125v-1.3574c-0.27194-0.46358-0.59116-0.96762-1-1.3848zm-1 0.033203-0.17188 0.29883c0.056191 0.032442 0.11352 0.072758 0.17188 0.11914v-0.41797z" style="fill-opacity:.5;fill:currentColor"/>
</svg>
