<?xml version="1.0" encoding="UTF-8"?>
<svg id="b" width="16" height="16" version="1.1" xmlns="http://www.w3.org/2000/svg" xmlns:cc="http://creativecommons.org/ns#" xmlns:dc="http://purl.org/dc/elements/1.1/" xmlns:rdf="http://www.w3.org/1999/02/22-rdf-syntax-ns#">
	<metadata id="d">
		<rdf:RDF>
			<cc:Work rdf:about="">
				<dc:format>image/svg+xml</dc:format>
				<dc:type rdf:resource="http://purl.org/dc/dcmitype/StillImage"/>
				<dc:title/>
			</cc:Work>
		</rdf:RDF>
	</metadata>
	<defs>
		<style id="current-color-scheme" type="text/css">.ColorScheme-Text {color:#090d11;}.ColorScheme-Background{color:#ffffff;}</style>
	</defs>
	<path id="c" d="m7 1.0014v8h2v-8h-2zm-2 0.6875c-2.363 1.1242-4 3.5215-4 6.3125 0 3.866 3.134 7 7 7 3.866 0 7-3.134 7-7 0-2.791-1.637-5.1883-4-6.3125v2.3125c1.2085 0.91268 2 2.3689 2 4 0 2.7614-2.2386 5-5 5-2.7614 0-5-2.2386-5-5 0-1.6311 0.79152-3.0873 2-4v-2.3125z" style="fill-opacity:.75;fill:currentColor" class="ColorScheme-Text"/>
	<path id="a" d="m6 0v10h4v-10h-4zm-1.8789 1c-2.4669 1.3614-4.1211 3.9811-4.1211 7 0 4.4183 3.5817 8 8 8 4.4183 0 8-3.5817 8-8 0-3.0189-1.6542-5.6386-4.1211-7l0.12109 1.2812c1.8043 1.2636 3 3.3478 3 5.7188 0 3.866-3.134 7-7 7-3.866 0-7-3.134-7-7 0-2.371 1.1957-4.4551 3-5.7188l0.12109-1.2812zm2.8789 0h2v8h-2v-8z" style="fill-opacity:.5;fill:currentColor"  class="ColorScheme-Background"/>
</svg>
