<?xml version="1.0" encoding="UTF-8"?>
<svg id="a" width="16" height="16" version="1.1" xmlns="http://www.w3.org/2000/svg" xmlns:cc="http://creativecommons.org/ns#" xmlns:dc="http://purl.org/dc/elements/1.1/" xmlns:rdf="http://www.w3.org/1999/02/22-rdf-syntax-ns#">
	<metadata id="d">
		<rdf:RDF>
			<cc:Work rdf:about="">
				<dc:format>image/svg+xml</dc:format>
				<dc:type rdf:resource="http://purl.org/dc/dcmitype/StillImage"/>
			</cc:Work>
		</rdf:RDF>
	</metadata>
	<defs>
		<style id="current-color-scheme" type="text/css">.ColorScheme-Text {color:#090d11;}.ColorScheme-Background{color:#ffffff;}</style>
	</defs>
	<path id="c" class="ColorScheme-Text" d="m8 1c-3.866 0-7 3.134-7 7s3.134 7 7 7 7-3.134 7-7-3.134-7-7-7zm0 1c3.3019 0 6 2.6981 6 6s-2.6981 6-6 6-6-2.6981-6-6 2.6981-6 6-6zm-2.6016 3.3984c-1.4286 1.4286-1.4286 3.7746 0 5.2031 1.4285 1.4286 3.7745 1.4286 5.2031 0l-1.3164-1.3164c-0.7144 0.7144-1.856 0.7144-2.5703 0-0.7144-0.7143-0.7144-1.8559 0-2.5703l-1.3164-1.3164z" style="fill-opacity:.75;fill:currentColor"/>
</svg>
