<?xml version="1.0" encoding="UTF-8"?>
<svg id="a" width="16" height="16" version="1.1" xmlns="http://www.w3.org/2000/svg" xmlns:cc="http://creativecommons.org/ns#" xmlns:dc="http://purl.org/dc/elements/1.1/" xmlns:rdf="http://www.w3.org/1999/02/22-rdf-syntax-ns#">
	<metadata id="c">
		<rdf:RDF>
			<cc:Work rdf:about="">
				<dc:format>image/svg+xml</dc:format>
				<dc:type rdf:resource="http://purl.org/dc/dcmitype/StillImage"/>
				<dc:title/>
			</cc:Work>
		</rdf:RDF>
	</metadata>
	<defs>
		<style id="current-color-scheme" type="text/css">.ColorScheme-Text {color:#090d11;}.ColorScheme-Background{color:#ffffff;}</style>
	</defs>
	<path id="d" d="m8 1c-3.5248 0-6.419 2.61-6.9062 6h2c0.45229-2.2819 2.4603-4 4.875-4 0.010691 0 0.020575-6.73e-5 0.03125 0h4.875c-1.2616-1.2309-2.9731-2-4.875-2zm1 4v2h6v-2zm-8 4v2h6v-2zm12 0c-0.48838 2.2766-2.5439 3.9829-5 3.9982v0.001775h-4.875c1.2616 1.2309 2.9731 2 4.875 2 3.5248 0 6.419-2.61 6.9062-6z" style="fill-opacity:.75;fill:currentColor" class="ColorScheme-Text"/>
	<path id="b" d="m8 0c-3.7445 0-6.8863 2.5859-7.7578 6.0605l1.0703-0.060547c0.86143-2.885 3.5217-5 6.6875-5 2.791 0 5.1883 1.637 6.3125 4l1.1426 0.091797c-1.1612-2.985-4.0594-5.0918-7.4551-5.0918zm1 7v1h7v-1h-7zm-9 1v1h7v-1h-7zm15.758 1.9395-1.0703 0.060547c-0.86144 2.885-3.5217 5-6.6875 5-2.791 0-5.1883-1.637-6.3125-4l-1.1426-0.091797c1.1612 2.985 4.0594 5.0918 7.4551 5.0918 3.7445 0 6.8863-2.5859 7.7578-6.0605z" style="fill-opacity:.5;fill:currentColor"  class="ColorScheme-Background"/>
</svg>
