<?xml version="1.0" encoding="UTF-8"?>
<!-- Created with Inkscape (http://www.inkscape.org/) -->
<svg width="16" height="16" version="1.0" xmlns="http://www.w3.org/2000/svg" xmlns:cc="http://creativecommons.org/ns#" xmlns:dc="http://purl.org/dc/elements/1.1/" xmlns:rdf="http://www.w3.org/1999/02/22-rdf-syntax-ns#">
	<metadata>
		<rdf:RDF>
			<cc:Work rdf:about="">
				<dc:format>image/svg+xml</dc:format>
				<dc:type rdf:resource="http://purl.org/dc/dcmitype/StillImage"/>
				<dc:title/>
			</cc:Work>
		</rdf:RDF>
	</metadata>
	<defs>
		<radialGradient id="b" cx="-9416.6" cy="5031.8" r="9" gradientTransform="matrix(0 2.3216 -2.0635 0 10393 21862)" gradientUnits="userSpaceOnUse">
			<stop stop-color="#213851" stop-opacity=".9059" offset="0"/>
			<stop stop-color="#27303a" stop-opacity="0" offset="1"/>
		</radialGradient>
		<radialGradient id="a" cx="8" cy="11.997" r="9.3438" gradientTransform="matrix(1 0 0 .82441 -.20294 .02263)" gradientUnits="userSpaceOnUse">
			<stop stop-color="#ffffff" stop-opacity=".74858" offset="0"/>
			<stop stop-color="#ffffff" stop-opacity=".60511" offset="1"/>
		</radialGradient>
	</defs>
	<path d="m1 0c-0.554 0-1 0.446-1 1s0.446 1 1 1 1-0.446 1-1-0.446-1-1-1zm4 0c-0.554 0-1 0.446-1 1s0.446 1 1 1 1-0.446 1-1-0.446-1-1-1zm-2 2c-0.554 0-1 0.446-1 1s0.446 1 1 1 1-0.446 1-1-0.446-1-1-1zm4 0c-0.554 0-1 0.446-1 1s0.446 1 1 1 1-0.446 1-1-0.446-1-1-1zm3-1v2c-0.554 0-1.248 0.5045-1 1v1h4v-1c0-0.554-0.446-1-1-1v-2zm-9 3c-0.554 0-1 0.446-1 1s0.446 1 1 1 1-0.446 1-1-0.446-1-1-1zm4 0c-0.554 0-1 0.446-1 1s0.446 1 1 1 1-0.446 1-1-0.446-1-1-1zm2 2v1h1v7h-1v1h8v-1h-1v-7h1v-1z" fill="#090d11" fill-opacity=".76621" style="font-variant-east_asian:normal;paint-order:normal"/>
	<path d="m1 0c-0.554 0-1 0.446-1 1s0.446 1 1 1 1-0.446 1-1-0.446-1-1-1zm4 0c-0.554 0-1 0.446-1 1s0.446 1 1 1 1-0.446 1-1-0.446-1-1-1zm-2 2c-0.554 0-1 0.446-1 1s0.446 1 1 1 1-0.446 1-1-0.446-1-1-1zm4 0c-0.554 0-1 0.446-1 1s0.446 1 1 1 1-0.446 1-1-0.446-1-1-1zm3-1v2c-0.554 0-1.248 0.5045-1 1v1h4v-1c0-0.554-0.446-1-1-1v-2zm-9 3c-0.554 0-1 0.446-1 1s0.446 1 1 1 1-0.446 1-1-0.446-1-1-1zm4 0c-0.554 0-1 0.446-1 1s0.446 1 1 1 1-0.446 1-1-0.446-1-1-1zm2 2v1h1v7h-1v1h8v-1h-1v-7h1v-1z" fill="url(#b)" fill-opacity=".75328" style="font-variant-east_asian:normal;paint-order:normal"/>
	<path d="m0 0c-0.554 0-1 0.446-1 1s0.446 1 1 1c0.1864 0 0.3509-0.06427 0.5-0.1523-0.294-0.1737-0.5-0.48-0.5-0.8477s0.206-0.6739 0.5-0.8477c-0.1491-0.08808-0.3136-0.1523-0.5-0.1523zm4 0c-0.554 0-1 0.446-1 1s0.446 1 1 1c0.1864 0 0.3509-0.06427 0.5-0.1523-0.294-0.1737-0.5-0.48-0.5-0.8477s0.206-0.6739 0.5-0.8477c-0.1491-0.08808-0.3136-0.1523-0.5-0.1523zm6 0c-0.5523 5.52e-5 -0.9999 0.4477-1 1v1.92c-0.5612 0.3573-1.315 0.4509-1 1.08v1h-1c-0.5523 5.52e-5 -0.4999 0.4477-0.5 1v1c5.5e-5 0.5523-0.05226 0.9999 0.5 1v5c-0.5523 5.5e-5 -0.4999 0.4477-0.5 1v1c5.5e-5 0.5523-0.05226 0.9999 0.5 1h8c0.5523-5.5e-5 0.4999-0.4477 0.5-1v-1c-5.5e-5 -0.5523 0.05226-0.9999-0.5-1v-5c0.5523-5.5e-5 0.4999-0.4477 0.5-1v-1c-5.5e-5 -0.5523 0.05226-0.9999-0.5-1h-1v-1c0-0.7035-0.4388-0.7228-1-1.08v-1.92c-5.5e-5 -0.5523-0.4477-0.9999-1-1zm-8 2c-0.554 0-1 0.446-1 1s0.446 1 1 1c0.1864 0 0.3509-0.06427 0.5-0.1523-0.294-0.1737-0.5-0.48-0.5-0.8477s0.206-0.6739 0.5-0.8477c-0.1491-0.08808-0.3136-0.1523-0.5-0.1523zm4 0c-0.554 0-1 0.446-1 1s0.446 1 1 1c0.1864 0 0.3509-0.06427 0.5-0.1523-0.294-0.1737-0.5-0.48-0.5-0.8477s0.206-0.6739 0.5-0.8477c-0.1491-0.08808-0.3136-0.1523-0.5-0.1523zm4-1h2v2c0.554 0 1 0.446 1 1v1h-2.5c1.5 0 4.5 1 4.5 1v1h-1v7h1v1h-8v-1h1v-7h-1v-1s2-1 3.5-1h-1.5v-1c0-0.554 0.446-1 1-1zm-10 3c-0.554 0-1 0.446-1 1s0.446 1 1 1c0.1864 0 0.3509-0.06427 0.5-0.1523-0.294-0.1737-0.5-0.48-0.5-0.8477s0.206-0.6739 0.5-0.8477c-0.1491-0.08808-0.3136-0.1523-0.5-0.1523zm4 0c-0.554 0-1 0.446-1 1s0.446 1 1 1c0.1864 0 0.3509-0.06427 0.5-0.1523-0.294-0.1737-0.5-0.48-0.5-0.8477s0.206-0.6739 0.5-0.8477c-0.1491-0.08808-0.3136-0.1523-0.5-0.1523z" color="#000000" color-rendering="auto" dominant-baseline="auto" fill="url(#a)" fill-opacity=".99858" image-rendering="auto" shape-rendering="auto" solid-color="#000000" style="font-feature-settings:normal;font-variant-alternates:normal;font-variant-caps:normal;font-variant-east_asian:normal;font-variant-ligatures:normal;font-variant-numeric:normal;font-variant-position:normal;isolation:auto;mix-blend-mode:normal;paint-order:normal;shape-padding:0;text-decoration-color:#000000;text-decoration-line:none;text-decoration-style:solid;text-indent:0;text-orientation:mixed;text-transform:none;white-space:normal"/>
</svg>
