<?xml version="1.0" encoding="UTF-8"?>
<svg id="a" width="16" height="16" version="1.1" xmlns="http://www.w3.org/2000/svg" xmlns:cc="http://creativecommons.org/ns#" xmlns:dc="http://purl.org/dc/elements/1.1/" xmlns:rdf="http://www.w3.org/1999/02/22-rdf-syntax-ns#">
	<metadata id="d">
		<rdf:RDF>
			<cc:Work rdf:about="">
				<dc:format>image/svg+xml</dc:format>
				<dc:type rdf:resource="http://purl.org/dc/dcmitype/StillImage"/>
				<dc:title/>
			</cc:Work>
		</rdf:RDF>
	</metadata>
	<defs>
		<style id="current-color-scheme" type="text/css">.ColorScheme-Text {color:#090d11;}.ColorScheme-Background{color:#ffffff;}</style>
	</defs>
	<path id="e" d="m3 1c-1.108 0-2 0.892-2 2v2h1v-2c0-0.554 0.446-1 1-1h2v-1h-2zm7 0v1h2c0.554 0 1 0.446 1 1v2h1v-2c0-1.108-0.892-2-2-2h-2zm-3.5 3c-0.277 0-0.5 0.223-0.5 0.5s0.223 0.5 0.5 0.5h0.5v5h-0.5c-0.277 0-0.5 0.223-0.5 0.5s0.223 0.5 0.5 0.5h1 1c0.277 0 0.5-0.223 0.5-0.5s-0.223-0.5-0.5-0.5h-0.5v-5.5c0-0.277-0.223-0.5-0.5-0.5h-1zm-5.5 6v2c0 1.108 0.892 2 2 2h2v-1h-2c-0.554 0-1-0.446-1-1v-2h-1zm12 0v2c0 0.554-0.446 1-1 1h-2v1h2c1.108 0 2-0.892 2-2v-2h-1z" style="fill-opacity:.75;fill:currentColor" class="ColorScheme-Text" />
	<path id="c" d="m3 0c-1.6447 0-3 1.3553-3 3v2h1v-2c0-1.108 0.892-2 2-2h2v-1h-2zm7 0v1h2c1.108 0 2 0.892 2 2v2h1v-2c0-1.6447-1.3553-3-3-3h-2zm-1.5 4c-0.277 0-0.5 0.223-0.5 0.5v5c0 0.277 0.223 0.5 0.5 0.5s0.5-0.223 0.5-0.5v-5c0-0.277-0.223-0.5-0.5-0.5zm-8.5 6v2c0 1.6447 1.3553 3 3 3h2v-1h-2c-1.108 0-2-0.892-2-2v-2h-1zm14 0v2c0 1.108-0.892 2-2 2h-2v1h2c1.6447 0 3-1.3553 3-3v-2h-1z" style="fill-opacity:.5;fill:currentColor" class="ColorScheme-Background" />
</svg>
