<?xml version="1.0" encoding="UTF-8"?>
<svg id="a" width="16" height="16" version="1.1" xmlns="http://www.w3.org/2000/svg" xmlns:cc="http://creativecommons.org/ns#" xmlns:dc="http://purl.org/dc/elements/1.1/" xmlns:rdf="http://www.w3.org/1999/02/22-rdf-syntax-ns#">
	<metadata id="d">
		<rdf:RDF>
			<cc:Work rdf:about="">
				<dc:format>image/svg+xml</dc:format>
				<dc:type rdf:resource="http://purl.org/dc/dcmitype/StillImage"/>
				<dc:title/>
			</cc:Work>
		</rdf:RDF>
	</metadata>
	<defs id="b">
		<style id="current-color-scheme" type="text/css">.ColorScheme-Text {color:#090d11;}.ColorScheme-Background{color:#ffffff;}</style>
	</defs>
	<path id="e" class="ColorScheme-Text" d="m3 1c-1.108 0-2 0.892-2 2v2h1v-2c0-0.554 0.446-1 1-1h2v-1zm7 0v1h2c0.554 0 1 0.446 1 1v2h1v-2c0-1.108-0.892-2-2-2zm-6 4c-0.54535 0-1 0.45465-1 1v3c0 0.54535 0.45465 1 1 1h7c0.54535 0 1-0.45465 1-1v-3c0-0.54535-0.45465-1-1-1zm0 1h7v3h-7zm-3 4v2c0 1.108 0.892 2 2 2h2v-1h-2c-0.554 0-1-0.446-1-1v-2zm12 0v2c0 0.554-0.446 1-1 1h-2v1h2c1.108 0 2-0.892 2-2v-2z" style="fill-opacity:.75;fill:currentColor"/>
	<path id="c" class="ColorScheme-Background" d="m3 0c-1.6447 0-3 1.3553-3 3v2h1v-2c0-1.108 0.892-2 2-2h2v-1zm7 0v1h2c1.108 0 2 0.892 2 2v2h1v-2c0-1.6447-1.3553-3-3-3zm-7 4c-0.54535 0-1 0.45465-1 1v5c0 0.54535 0.45465 1 1 1h9c0.54535 0 1-0.45465 1-1v-5c0-0.54535-0.45465-1-1-1zm0 1h9v5h-9zm-3 5v2c0 1.6447 1.3553 3 3 3h2v-1h-2c-1.108 0-2-0.892-2-2v-2zm14 0v2c0 1.108-0.892 2-2 2h-2v1h2c1.6447 0 3-1.3553 3-3v-2z" style="fill-opacity:.5;fill:currentColor"/>
</svg>
