<?xml version="1.0" encoding="UTF-8"?>
<!-- Created with Inkscape (http://www.inkscape.org/) -->
<svg width="22" height="22" version="1.1" xmlns="http://www.w3.org/2000/svg" xmlns:cc="http://creativecommons.org/ns#" xmlns:dc="http://purl.org/dc/elements/1.1/" xmlns:rdf="http://www.w3.org/1999/02/22-rdf-syntax-ns#">
	<defs>
		<radialGradient id="e" cx="8.3933" cy="11.545" r="6.1541" gradientTransform="matrix(3.5079,0,0,3.838,-16.301,-29.326)" gradientUnits="userSpaceOnUse">
			<stop stop-color="#213851" stop-opacity=".9059" offset="0"/>
			<stop stop-color="#27303a" stop-opacity="0" offset="1"/>
		</radialGradient>
		<radialGradient id="g" cx="7.8564" cy="12.164" r="7.1556" gradientTransform="matrix(1.9441,0,0,2.1703,-4.1627,-11.944)" gradientUnits="userSpaceOnUse">
			<stop stop-color="#ffffff" stop-opacity=".74858" offset="0"/>
			<stop stop-color="#ffffff" stop-opacity=".60511" offset="1"/>
		</radialGradient>
	</defs>
	<metadata>
		<rdf:RDF>
			<cc:Work rdf:about="">
				<dc:format>image/svg+xml</dc:format>
				<dc:type rdf:resource="http://purl.org/dc/dcmitype/StillImage"/>
				<dc:title/>
			</cc:Work>
		</rdf:RDF>
	</metadata>
	<path d="m10.8 4.9c-1.6855 0.013-3.1339 0.5855-4.3633 1.7421-0.6526 0.6139-1.0432 1.1836-1.6816 2.4551-0.5369 1.0695-0.59 1.1506-1.2988 1.9649-0.5731 0.6584-1.0209 1.3234-1.3418 1.9921-0.138 0.2876-0.2612 0.6596-0.3418 0.9903-0.04 0.1654-0.073 0.3213-0.086 0.4512-0.015 0.1298-0.021 0.228 0.016 0.3203 0.014 0.033 0.012 0.057 0.059 0.1054 0.011 0.011 0.024 0.014 0.037 0.02 0.1344 1.1912 1.221 1.8826 3.2304 2.0215 0.4039 0.028 0.8791 0.041 1.0547 0.031 0.1756-0.011 0.5856-0.037 0.9121-0.057 2.0709-0.1263 4.8354-0.9944 6.9414-2.1817 3.4375-1.9378 6.1056-4.9628 6.1016-6.916 0-0.4883-0.3196-1.0113-0.8047-1.3613 0-0.021-7e-4 -0.042-0.012-0.055-0.011-0.029-0.023-0.041-0.035-0.053-0.021-0.023-0.043-0.037-0.07-0.055-0.054-0.036-0.1285-0.075-0.2168-0.1192-0.1766-0.088-0.408-0.1863-0.6211-0.2597-0.672-0.2317-1.4386-0.3266-2.9726-0.375-1.4895-0.047-1.4757-0.045-2.1797-0.2715-0.9817-0.3173-1.4309-0.3928-2.3164-0.3906zm6.4102 2.5742c0.4656 0.011 0.9014 0.056 1.0644 0.094 0.1636 0.039 0.3174 0.073 0.461 0.098 0.02 0.011 0.032 0.01 0.049 0.01 0.029 0.057 0.1269 0.1685 0.1269 0.168 0 0.4621-0.4793 1.5844-1.4785 2.7168-0.4869 0.5518-1.0828 1.112-1.748 1.6484a1.5 4.5 64.569 0 0 0.3887-1.1503 1.5 4.5 64.569 0 0-4.709 0.5781 1.5 4.5 64.569 0 0-3.42 3.2871 1.5 4.5 64.569 0 0 1.5411 0.4023c-0.9216 0.2538-1.8177 0.4432-2.5586 0.4883-0.3292 0.02-0.7414 0.046-0.916 0.057 0.012 0-0.5349-0.01-0.9043-0.029-0.8902-0.062-1.4927-0.2562-1.7969-0.4473-0.1709-0.1077-0.1667-0.2247-0.2207-0.3242 0.034-0.098 0.085-0.1961 0.1328-0.3301 0.085-0.2418 0.4993-0.8794 1.1465-1.5391 0.6472-0.6596 1.5165-1.3815 2.4922-2.0351 2.6762-1.7931 6.2581-3.219 8.9531-3.6055 0.4128-0.06 0.9307-0.089 1.3965-0.084z" color="#000000" color-rendering="auto" dominant-baseline="auto" fill="#090d11" fill-opacity=".76621" image-rendering="auto" shape-rendering="auto" solid-color="#000000" style="font-feature-settings:normal;font-variant-alternates:normal;font-variant-caps:normal;font-variant-ligatures:normal;font-variant-numeric:normal;font-variant-position:normal;isolation:auto;mix-blend-mode:normal;paint-order:normal;shape-padding:0;text-decoration-color:#000000;text-decoration-line:none;text-decoration-style:solid;text-indent:0;text-orientation:mixed;text-transform:none;white-space:normal"/>
	<path d="m10.8 4.9c-1.6855 0.013-3.1339 0.5855-4.3633 1.7421-0.6526 0.6139-1.0432 1.1836-1.6816 2.4551-0.5369 1.0695-0.59 1.1506-1.2988 1.9649-0.5731 0.6584-1.0209 1.3234-1.3418 1.9921-0.138 0.2876-0.2612 0.6596-0.3418 0.9903-0.04 0.1654-0.073 0.3213-0.086 0.4512-0.015 0.1298-0.021 0.228 0.016 0.3203 0.014 0.033 0.012 0.057 0.059 0.1054 0.011 0.011 0.024 0.014 0.037 0.02 0.1344 1.1912 1.221 1.8826 3.2304 2.0215 0.4039 0.028 0.8791 0.041 1.0547 0.031 0.1756-0.011 0.5856-0.037 0.9121-0.057 2.0709-0.1263 4.8354-0.9944 6.9414-2.1817 3.4375-1.9378 6.1056-4.9628 6.1016-6.916 0-0.4883-0.3196-1.0113-0.8047-1.3613 0-0.021-7e-4 -0.042-0.012-0.055-0.011-0.029-0.023-0.041-0.035-0.053-0.021-0.023-0.043-0.037-0.07-0.055-0.054-0.036-0.1285-0.075-0.2168-0.1192-0.1766-0.088-0.408-0.1863-0.6211-0.2597-0.672-0.2317-1.4386-0.3266-2.9726-0.375-1.4895-0.047-1.4757-0.045-2.1797-0.2715-0.9817-0.3173-1.4309-0.3928-2.3164-0.3906zm6.4102 2.5742c0.4656 0.011 0.9014 0.056 1.0644 0.094 0.1636 0.039 0.3174 0.073 0.461 0.098 0.02 0.011 0.032 0.01 0.049 0.01 0.029 0.057 0.1269 0.1685 0.1269 0.168 0 0.4621-0.4793 1.5844-1.4785 2.7168-0.4869 0.5518-1.0828 1.112-1.748 1.6484a1.5 4.5 64.569 0 0 0.3887-1.1503 1.5 4.5 64.569 0 0-4.709 0.5781 1.5 4.5 64.569 0 0-3.42 3.2871 1.5 4.5 64.569 0 0 1.5411 0.4023c-0.9216 0.2538-1.8177 0.4432-2.5586 0.4883-0.3292 0.02-0.7414 0.046-0.916 0.057 0.012 0-0.5349-0.01-0.9043-0.029-0.8902-0.062-1.4927-0.2562-1.7969-0.4473-0.1709-0.1077-0.1667-0.2247-0.2207-0.3242 0.034-0.098 0.085-0.1961 0.1328-0.3301 0.085-0.2418 0.4993-0.8794 1.1465-1.5391 0.6472-0.6596 1.5165-1.3815 2.4922-2.0351 2.6762-1.7931 6.2581-3.219 8.9531-3.6055 0.4128-0.06 0.9307-0.089 1.3965-0.084z" color="#000000" color-rendering="auto" dominant-baseline="auto" fill="url(#e)" fill-opacity=".76621" image-rendering="auto" shape-rendering="auto" solid-color="#000000" style="font-feature-settings:normal;font-variant-alternates:normal;font-variant-caps:normal;font-variant-ligatures:normal;font-variant-numeric:normal;font-variant-position:normal;isolation:auto;mix-blend-mode:normal;paint-order:normal;shape-padding:0;text-decoration-color:#000000;text-decoration-line:none;text-decoration-style:solid;text-indent:0;text-orientation:mixed;text-transform:none;white-space:normal"/>
	<path d="m10.7 3.9 0.018 0.01h-0.01c-0.02 1e-4 -0.039 0.01-0.059 0.01v-0.01h-0.01v0.01c-1.8819 0.03-3.6013 0.7024-4.9805 2-0.7325 0.689-1.2305 1.4257-1.8886 2.7363-0.5342 1.0643-0.457 0.95-1.1602 1.7578-0.6227 0.7154-1.124 1.4539-1.4902 2.2168-0.1828 0.3809-0.3166 0.7938-0.4121 1.1855-0.044 0.1843-0.084 0.3687-0.1055 0.5704-0.018 0.1529-0.065 0.4439 0.08 0.8046v0.022c-0.049-0.1164 0.082 0.1187 0.1816 0.2852 0.2017 0.6865 0.6009 1.3155 1.2149 1.7012 0.7489 0.4705 1.675 0.6911 2.7812 0.7675 0.4365 0.03 0.8528 0.048 1.1797 0.029 0.1768-0.011 0.5874-0.037 0.9121-0.057 2.2951-0.1399 5.1188-1.0419 7.3691-2.3106 1.8162-1.0237 3.4191-2.3199 4.6016-3.6601 1.1821-1.3396 2.012-2.6926 2.0098-4.125 0-0.7787-0.4105-1.391-0.9434-1.877l0.062 0.1055c-0.017-0.046-0.048-0.073-0.08-0.125-0.019-0.017-0.033-0.038-0.053-0.055-0.018-0.03 5e-4 -0.024-0.019-0.057-0.04-0.055-0.086-0.1368-0.1016-0.1543-0.1165-0.1187-0.227-0.1904-0.2344-0.1953-0.1292-0.086-0.2253-0.1327-0.3242-0.1817-0.2212-0.1102-0.4769-0.2203-0.7383-0.3105-0.8145-0.2806-1.7042-0.3785-3.2676-0.4278-1.4902-0.047-1.1983 0-1.9042-0.2246-1.0238-0.3309-1.6827-0.4399-2.629-0.4375zm0.014 1.0079h0.01c0.2187-6e-4 0.4119 0 0.5918 0.016 0 1e-4 0-1e-4 0.01 0 0.055 0 0.1053 0.013 0.1582 0.018 0.1229 0.011 0.2466 0.023 0.3672 0.043 0.3455 0.058 0.7022 0.1557 1.1934 0.3145 0.704 0.2268 0.6902 0.2245 2.1797 0.2715 0.767 0.024 1.3429 0.061 1.8105 0.1191 0.2337 0.029 0.4386 0.063 0.6289 0.1055 0.1911 0.042 0.3647 0.092 0.5332 0.1504 0.2131 0.073 0.4445 0.1717 0.6211 0.2597 0.088 0.044 0.1628 0.083 0.2168 0.1192 0.027 0.018 0.049 0.032 0.07 0.055 0.012 0.012 0.024 0.024 0.035 0.053 0.011 0.013 0.012 0.034 0.012 0.055 0.1217 0.088 0.2316 0.1866 0.3301 0.2929 0.098 0.1058 0.1835 0.2184 0.2539 0.336 0.1405 0.2355 0.2207 0.4883 0.2207 0.7324 4e-4 0.1891-0.03 0.3905-0.078 0.5977-0.01 0.024-0.011 0.048-0.018 0.072-0.027 0.1061-0.074 0.2183-0.1133 0.3282-0.058 0.1626-0.1208 0.3265-0.2031 0.496-0.056 0.1171-0.122 0.2358-0.1895 0.3555-0.081 0.1429-0.1695 0.2859-0.2656 0.4317-0.099 0.1518-0.2016 0.3031-0.3164 0.457-0.071 0.094-0.1485 0.1886-0.2246 0.2832-0.76 0.9507-1.7823 1.909-2.9746 2.7734-0.012 0.01-0.023 0.019-0.035 0.027 0 0-0.01 0.01-0.012 0.01-0.5326 0.3835-1.085 0.7532-1.6719 1.084-0.8693 0.4901-1.857 0.9042-2.8554 1.2559-0.3584 0.1262-0.7081 0.2425-1.0664 0.3457-0.3785 0.1114-0.753 0.2059-1.1211 0.2891-0.3014 0.065-0.5985 0.1277-0.8868 0.1719-0.026 0-0.052 0.01-0.078 0.014-0.3205 0.047-0.6336 0.086-0.9297 0.1036-0.3265 0.02-0.7365 0.046-0.9121 0.057-0.1756 0.01-0.6508 0-1.0547-0.031-1.507-0.1042-2.4944-0.5191-2.9511-1.2227-0.1523-0.2345-0.2457-0.501-0.2793-0.7988-0.013-0.01-0.026-0.01-0.037-0.02-0.047-0.048-0.045-0.072-0.059-0.1054-0.037-0.092-0.031-0.1905-0.016-0.3203 0.013-0.1299 0.046-0.2858 0.086-0.4512 0.04-0.1659 0.09-0.3409 0.1484-0.5117 0.058-0.1703 0.1244-0.3348 0.1934-0.4786 0.3209-0.6687 0.7687-1.3337 1.3418-1.9921 0.7088-0.8143 0.7619-0.8954 1.2988-1.9649 0.6384-1.2715 1.029-1.8412 1.6816-2.4551 0.1533-0.1442 0.3106-0.2801 0.4707-0.4062 8e-4 -6e-4 0 0 0 0 0.1602-0.126 0.3231-0.2416 0.4902-0.3496 8e-4 -5e-4 0 0 0 0 0.1208-0.078 0.2466-0.1462 0.3711-0.2149 0.048-0.027 0.095-0.059 0.1445-0.084 0.032-0.016 0.065-0.029 0.098-0.045 0.1441-0.071 0.2885-0.1401 0.4375-0.1992 0.3616-0.1437 0.7368-0.2509 1.1269-0.3242 0-5e-4 0.01 0 0.01 0 0.1939-0.036 0.3908-0.063 0.5918-0.082 0.2033-0.019 0.4105-0.03 0.6211-0.031zm4.2324 4.7285c-0.2348 0-0.4759 0.014-0.7265 0.045-1.0034 0.1231-2.1654 0.488-3.3692 1.0605-1.2038 0.5724-2.2223 1.2447-2.9511 1.9453-0.3649 0.3505-0.66 0.7024-0.8672 1.1211-0.2073 0.4187-0.3392 0.9997-0.076 1.5528 0.079 0.1668 0.1877 0.3003 0.3066 0.4179 0.6475-0.072 1.3811-0.2372 2.1368-0.4453a1.5 4.5 64.569 0 1-1.5411-0.4023 1.5 4.5 64.569 0 1 3.42-3.2871 1.5 4.5 64.569 0 1 3.7168-1.0039 1.5 4.5 64.569 0 1 0.9922 0.4258 1.5 4.5 64.569 0 1-0.3887 1.1503c0.5156-0.4158 0.9719-0.8454 1.3847-1.2753-0.024-0.1015-0.044-0.204-0.092-0.3047-0.263-0.5531-0.7984-0.8166-1.254-0.92-0.2273-0.052-0.4565-0.077-0.6914-0.08z" color="#000000" color-rendering="auto" dominant-baseline="auto" fill="url(#g)" image-rendering="auto" shape-rendering="auto" solid-color="#000000" style="font-feature-settings:normal;font-variant-alternates:normal;font-variant-caps:normal;font-variant-ligatures:normal;font-variant-numeric:normal;font-variant-position:normal;isolation:auto;mix-blend-mode:normal;paint-order:normal;shape-padding:0;text-decoration-color:#000000;text-decoration-line:none;text-decoration-style:solid;text-indent:0;text-orientation:mixed;text-transform:none;white-space:normal"/>
</svg>
