<?xml version="1.0" encoding="UTF-8"?>
<svg id="a" width="22" height="22" version="1.1" xmlns="http://www.w3.org/2000/svg" xmlns:cc="http://creativecommons.org/ns#" xmlns:dc="http://purl.org/dc/elements/1.1/" xmlns:rdf="http://www.w3.org/1999/02/22-rdf-syntax-ns#">
	<metadata id="d">
		<rdf:RDF>
			<cc:Work rdf:about="">
				<dc:format>image/svg+xml</dc:format>
				<dc:type rdf:resource="http://purl.org/dc/dcmitype/StillImage"/>
			</cc:Work>
		</rdf:RDF>
	</metadata>
	<defs id="e">
		<style id="current-color-scheme" type="text/css">.ColorScheme-Text {color:#090d11;}.ColorScheme-Background{color:#ffffff;}</style>
	</defs>
	<path id="c" class="ColorScheme-Text" d="m8 2c-0.554 0-1 0.446-1 1v3c0 0.056981 0.0046 0.11169 0.013672 0.16602-1.0096 0.32836-1.8178 1.1467-2.1035 2.2129-0.33047 1.2333 0.20405 2.4539 1.1738 3.2383l-3.0488 7.6992c-0.10127 0.25672 0.024612 0.54695 0.28125 0.64844 0.25672 0.10127 0.54695-0.02461 0.64844-0.28125l3.3086-8.3555-0.37305-0.2168c-0.86417-0.49893-1.2837-1.5088-1.0254-2.4727 0.25827-0.96386 1.1271-1.6309 2.125-1.6309 0.99786 0 1.8667 0.667 2.125 1.6309 0.25826 0.96386-0.16122 1.9737-1.0254 2.4727l-0.37305 0.2168 3.3086 8.3555c0.02145 0.02717 0.04567 0.05205 0.07227 0.07422 0.03375 0.05173 0.0768 0.09676 0.12695 0.13281 0.05181 0.03374 0.10942 0.05758 0.16992 0.07031 0.03047 0.01629 0.06254 0.02938 0.0957 0.03906h5.5c0.27614 0 0.5-0.22386 0.5-0.5s-0.22386-0.5-0.5-0.5h-5.1602l-2.9238-7.3828c0.96978-0.7844 1.5043-2.0049 1.1738-3.2383-0.28568-1.0662-1.0939-1.8845-2.1035-2.2129 0.00907-0.054328 0.013672-0.10903 0.013672-0.16602v-3c0-0.554-0.446-1-1-1zm6 1c-0.27614 0-0.5 0.22386-0.5 0.5s0.22386 0.5 0.5 0.5h4c0.27614 0 0.5-0.22386 0.5-0.5s-0.22386-0.5-0.5-0.5zm2 2c-0.27614 0-0.5 0.22386-0.5 0.5s0.22386 0.5 0.5 0.5h2c0.27614 0 0.5-0.22386 0.5-0.5s-0.22386-0.5-0.5-0.5zm-2 2c-0.27614 0-0.5 0.22386-0.5 0.5s0.22386 0.5 0.5 0.5h4c0.27614 0 0.5-0.22386 0.5-0.5s-0.22386-0.5-0.5-0.5zm2 2c-0.27614 0-0.5 0.22386-0.5 0.5s0.22386 0.5 0.5 0.5h2c0.27614 0 0.5-0.22386 0.5-0.5s-0.22386-0.5-0.5-0.5zm-2 2c-0.27614 0-0.5 0.22386-0.5 0.5s0.22386 0.5 0.5 0.5h4c0.27614 0 0.5-0.22386 0.5-0.5s-0.22386-0.5-0.5-0.5zm2 2c-0.27614 0-0.5 0.22386-0.5 0.5s0.22386 0.5 0.5 0.5h2c0.27614 0 0.5-0.22386 0.5-0.5s-0.22386-0.5-0.5-0.5zm-2 2c-0.27614 0-0.5 0.22386-0.5 0.5s0.22386 0.5 0.5 0.5h4c0.27614 0 0.5-0.22386 0.5-0.5s-0.22386-0.5-0.5-0.5zm2 2c-0.27614 0-0.5 0.22386-0.5 0.5s0.22386 0.5 0.5 0.5h2c0.27614 0 0.5-0.22386 0.5-0.5s-0.22386-0.5-0.5-0.5z" style="fill-opacity:.75;fill:currentColor"/>
	<path id="b" class="ColorScheme-Background" d="m8 1c-1.1046 0-2-0.024491-2 1.0801v3.4297c-0.89603 0.52042-1.582 1.3835-1.8633 2.4375-0.36153 1.3549 0.014802 2.7697 0.92773 3.7617-0.77176 2.0114-2.1495 5.9425-2.6309 7.1309-0.033635 0.08288-0.044427 0.17325-0.03125 0.26172l0.26953 1.834c0.040191 0.2736 0.29484 0.46262 0.56836 0.42188 0.27272-0.04022 0.46144-0.29359 0.42188-0.56641l-0.11719-0.80078c-0.07711 0.0094-0.15535 7.1e-4 -0.22852-0.02539-0.25664-0.10149-0.38252-0.39171-0.28125-0.64844l3.0488-7.6992c-0.96978-0.7844-1.5043-2.0049-1.1738-3.2383 0.28568-1.0662 1.0939-1.8845 2.1035-2.2129-0.009072-0.054328-0.013672-0.10903-0.013672-0.16602v-3c0-0.554 0.446-1 1-1s1 0.446 1 1v3c0 0.056981-0.0046 0.11169-0.013672 0.16602 1.0096 0.32836 1.8178 1.1467 2.1035 2.2129 0.33047 1.2333-0.20405 2.4539-1.1738 3.2383l2.9238 7.3828h0.76172c-0.0028-0.05496-0.0147-0.10907-0.03516-0.16016-0.48137-1.1883-1.8591-5.1195-2.6309-7.1309 0.91293-0.99206 1.2893-2.4068 0.92773-3.7617-0.28123-1.054-0.96724-1.9171-1.8633-2.4375v-3.4297c0-1.1046-0.89543-1.0801-2-1.0801zm9 1c-0.27614 0-0.5 0.22386-0.5 0.5s0.22386 0.5 0.5 0.5h2c0.27614 0 0.5-0.22386 0.5-0.5s-0.22386-0.5-0.5-0.5zm-2 2c-0.27614 0-0.5 0.22386-0.5 0.5s0.22386 0.5 0.5 0.5h4c0.27614 0 0.5-0.22386 0.5-0.5s-0.22386-0.5-0.5-0.5zm2 2c-0.27614 0-0.5 0.22386-0.5 0.5s0.22386 0.5 0.5 0.5h2c0.27614 0 0.5-0.22386 0.5-0.5s-0.22386-0.5-0.5-0.5zm-9 1.0078c-0.99786 0-1.8667 0.667-2.125 1.6309-0.25827 0.96386 0.16122 1.9737 1.0254 2.4727l0.37305 0.2168-1.6777 4.2363 2.4043-3.2227 2.4043 3.2227-1.6777-4.2363 0.37305-0.2168c0.86417-0.49893 1.2837-1.5088 1.0254-2.4727-0.25827-0.96386-1.1271-1.6309-2.125-1.6309zm7 0.99219c-0.27614 0-0.5 0.22386-0.5 0.5s0.22386 0.5 0.5 0.5h4c0.27614 0 0.5-0.22386 0.5-0.5s-0.22386-0.5-0.5-0.5zm2 2c-0.27614 0-0.5 0.22386-0.5 0.5s0.22386 0.5 0.5 0.5h2c0.27614 0 0.5-0.22386 0.5-0.5s-0.22386-0.5-0.5-0.5zm-2 2c-0.27614 0-0.5 0.22386-0.5 0.5s0.22386 0.5 0.5 0.5h4c0.27614 0 0.5-0.22386 0.5-0.5s-0.22386-0.5-0.5-0.5zm2 2c-0.27614 0-0.5 0.22386-0.5 0.5s0.22386 0.5 0.5 0.5h2c0.27614 0 0.5-0.22386 0.5-0.5s-0.22386-0.5-0.5-0.5zm-2 2c-0.27614 0-0.5 0.22386-0.5 0.5s0.22386 0.5 0.5 0.5h4c0.27614 0 0.5-0.22386 0.5-0.5s-0.22386-0.5-0.5-0.5zm2 2c-0.27614 0-0.5 0.22386-0.5 0.5s0.22386 0.5 0.5 0.5h2c0.27614 0 0.5-0.22386 0.5-0.5s-0.22386-0.5-0.5-0.5zm-4 2-0.66211 0.79102c-0.0071 0.07053 8.95e-4 0.14177 0.02344 0.20898h6.6387c0.27614 0 0.5-0.22386 0.5-0.5s-0.22386-0.5-0.5-0.5h-5.5352z" style="fill-opacity:.5;fill:currentColor"/>
</svg>
