<?xml version="1.0" encoding="UTF-8"?>
<svg id="g" width="22" height="22" version="1.1" xmlns="http://www.w3.org/2000/svg" xmlns:cc="http://creativecommons.org/ns#" xmlns:dc="http://purl.org/dc/elements/1.1/" xmlns:rdf="http://www.w3.org/1999/02/22-rdf-syntax-ns#">
	<defs id="a">
		<style id="current-color-scheme" type="text/css">.ColorScheme-Text {color:#090d11;}.ColorScheme-Background{color:#ffffff;}</style>
	</defs>
	<metadata id="b">
		<rdf:RDF>
			<cc:Work rdf:about="">
				<dc:format>image/svg+xml</dc:format>
				<dc:type rdf:resource="http://purl.org/dc/dcmitype/StillImage"/>
			</cc:Work>
		</rdf:RDF>
	</metadata>
	<path id="f" class="ColorScheme-Text" d="m3 2c-0.554 0-1 0.446-1 1v6c0 0.554 0.446 1 1 1h16c0.5541 0 1-0.446 1-1v-6c0-0.554-0.4459-1-1-1zm-1 8v1c0 0.554 0.446 1 1 1h16c0.5541 0 1-0.446 1-1v-1c0 0.554-0.4459 1-1 1h-16c-0.554 0-1-0.446-1-1zm0 2v1c0 0.554 0.446 1 1 1h16c0.5541 0 1-0.446 1-1v-1c0 0.554-0.4459 1-1 1h-16c-0.554 0-1-0.446-1-1zm0 2v1c0 0.554 0.446 1 1 1h16c0.5541 0 1-0.446 1-1v-1c0 0.554-0.4459 1-1 1h-16c-0.554 0-1-0.446-1-1zm0 2v1c0 0.554 0.446 1 1 1h16c0.5541 0 1-0.446 1-1v-1c0 0.554-0.4459 1-1 1h-16c-0.554 0-1-0.446-1-1zm0 2v1c0 0.554 0.446 1 1 1h16c0.5541 0 1-0.446 1-1v-1c0 0.554-0.4459 1-1 1h-16c-0.554 0-1-0.446-1-1z" style="fill-opacity:.75;fill:currentColor"/>
</svg>
