<?xml version="1.0" encoding="UTF-8"?>
<!-- Created with Inkscape (http://www.inkscape.org/) -->
<svg width="16" height="16" version="1.1" xmlns="http://www.w3.org/2000/svg" xmlns:cc="http://creativecommons.org/ns#" xmlns:dc="http://purl.org/dc/elements/1.1/" xmlns:rdf="http://www.w3.org/1999/02/22-rdf-syntax-ns#">
	<defs>
		<style id="current-color-scheme" type="text/css">.ColorScheme-Text {color:#090d11;}.ColorScheme-Background{color:#ffffff;}</style>
	</defs>
	<metadata>
		<rdf:RDF>
			<cc:Work rdf:about="">
				<dc:format>image/svg+xml</dc:format>
				<dc:type rdf:resource="http://purl.org/dc/dcmitype/StillImage"/>
			</cc:Work>
		</rdf:RDF>
	</metadata>
	<path id="c" class="ColorScheme-Text" d="m8.043 0.28906c-0.2661 0-1.6837 2.2361-1.9141 2.3691s-2.8767 0.24216-3.0098 0.47266c-0.133 0.2304 1.0957 2.5757 1.0957 2.8418 0 0.266-1.2287 2.6134-1.0957 2.8438 0.1331 0.2304 2.7794 0.33956 3.0098 0.47266 0.2304 0.133 1.648 2.3691 1.9141 2.3691s1.6837-2.2361 1.9141-2.3691c0.2305-0.1331 2.8768-0.24226 3.0098-0.47266s-1.0977-2.5777-1.0977-2.8438 1.2307-2.6114 1.0977-2.8418c-0.133-0.2305-2.7793-0.33966-3.0098-0.47266-0.2304-0.133-1.648-2.3691-1.9141-2.3691zm-0.044922 2.7109c1.6509 0 3 1.3491 3 3s-1.3491 3-3 3-2.9961-1.3491-2.9961-3 1.3452-3 2.9961-3zm0 1c-1.1104 0-1.9961 0.8896-1.9961 2 0 1.1105 0.88569 2 1.9961 2s2-0.8895 2-2c0-1.1104-0.8896-2-2-2zm-4.1992 6.0234-2.1367 3.9766 2.8711 0.0918 1.2637 1.9082 1.0938-3.7734-1.334-1.8906zm8.4395 0-1.7578 0.3125-1.334 1.8906 1.0937 3.7734 1.2637-1.9082 2.8711-0.0918z" style="fill-opacity:.75;fill:currentColor"/>
</svg>
