<?xml version="1.0" encoding="UTF-8"?>
<!-- Created with Inkscape (http://www.inkscape.org/) -->
<svg width="16" height="16" version="1.1" xmlns="http://www.w3.org/2000/svg" xmlns:cc="http://creativecommons.org/ns#" xmlns:dc="http://purl.org/dc/elements/1.1/" xmlns:rdf="http://www.w3.org/1999/02/22-rdf-syntax-ns#">
	<metadata>
		<rdf:RDF>
			<cc:Work rdf:about="">
				<dc:format>image/svg+xml</dc:format>
				<dc:type rdf:resource="http://purl.org/dc/dcmitype/StillImage"/>
			</cc:Work>
		</rdf:RDF>
	</metadata>
	<defs>
		<style id="current-color-scheme" type="text/css">.ColorScheme-Text {color:#090d11;}.ColorScheme-Background{color:#ffffff;}</style>
	</defs>
	<path class="ColorScheme-Text" d="m5 1c-1.0994 0-2 0.90065-2 2v4a0.5 0.5 0 0 0 0.029297 0.15234c-0.15349-0.095748-0.33432-0.15234-0.5293-0.15234h-0.5c-0.554 0-1 0.446-1 1s0.446 1 1 1h0.5c0.19497 0 0.37581-0.056596 0.5293-0.15234a0.5 0.5 0 0 0-0.029297 0.15234v4c0 1.0994 0.90065 2 2 2h1a0.5 0.5 0 0 0 0.5-0.5 0.5 0.5 0 0 0-0.5-0.5h-1c-0.56265 0-1-0.43735-1-1v-4a0.5 0.5 0 0 0-0.5-0.5 0.5 0.5 0 0 0-0.15234 0.029297c0.095748-0.15349 0.15234-0.33432 0.15234-0.5293s-0.056596-0.37581-0.15234-0.5293a0.5 0.5 0 0 0 0.15234 0.029297 0.5 0.5 0 0 0 0.5-0.5v-4c0-0.56265 0.43735-1 1-1h1a0.5 0.5 0 0 0 0.5-0.5 0.5 0.5 0 0 0-0.5-0.5h-1zm5 0a0.5 0.5 0 0 0-0.5 0.5 0.5 0.5 0 0 0 0.5 0.5h1c0.56265 0 1 0.43735 1 1v4a0.5 0.5 0 0 0 0.5 0.5 0.5 0.5 0 0 0 0.15234-0.029297c-0.095748 0.15349-0.15234 0.33432-0.15234 0.5293 0 0.19247 0.05495 0.37121 0.14844 0.52344a0.5 0.5 0 0 0-0.14844-0.023438 0.5 0.5 0 0 0-0.5 0.5v4c0 0.56265-0.43735 1-1 1h-1a0.5 0.5 0 0 0-0.5 0.5 0.5 0.5 0 0 0 0.5 0.5h1c1.0994 0 2-0.90065 2-2v-4a0.5 0.5 0 0 0-0.023438-0.14844c0.15222 0.093488 0.33097 0.14844 0.52344 0.14844h0.5c0.554 0 1-0.446 1-1s-0.446-1-1-1h-0.5c-0.19497 0-0.37581 0.056596-0.5293 0.15234a0.5 0.5 0 0 0 0.029297-0.15234v-4c0-1.0994-0.90065-2-2-2h-1z" style="fill-opacity:.75;fill:currentColor"/>
</svg>
