<?xml version="1.0" encoding="UTF-8"?>
<svg id="g" width="16" height="16" version="1.1" xmlns="http://www.w3.org/2000/svg" xmlns:cc="http://creativecommons.org/ns#" xmlns:dc="http://purl.org/dc/elements/1.1/" xmlns:rdf="http://www.w3.org/1999/02/22-rdf-syntax-ns#">
	<metadata id="a">
		<rdf:RDF>
			<cc:Work rdf:about="">
				<dc:format>image/svg+xml</dc:format>
				<dc:type rdf:resource="http://purl.org/dc/dcmitype/StillImage"/>
			</cc:Work>
		</rdf:RDF>
	</metadata>
	<defs>
		<style id="current-color-scheme" type="text/css">.ColorScheme-Text {color:#090d11;}.ColorScheme-Background{color:#ffffff;}</style>
	</defs>
	<path id="f" class="ColorScheme-Text" d="m3.5 1c-0.82235 0-1.5 0.67765-1.5 1.5v11c0 0.82235 0.67765 1.5 1.5 1.5h4.5v-1h-4.5c-0.28565 0-0.5-0.21435-0.5-0.5v-11c0-0.28565 0.21435-0.5 0.5-0.5h9c0.28565 0 0.5 0.21435 0.5 0.5v6.5h1v-6.5c0-0.82235-0.67765-1.5-1.5-1.5h-9zm2 2.5a1 1 0 0 0-1 1 1 1 0 0 0 1 1 1 1 0 0 0 1-1 1 1 0 0 0-1-1zm0 3.5a0.5 0.5 0 0 0-0.5 0.5v3a0.5 0.5 0 0 0 0.5 0.5 0.5 0.5 0 0 0 0.5-0.5v-3a0.5 0.5 0 0 0-0.5-0.5zm3.5 3v5l5-5h-5z" style="fill-opacity:.75;fill:currentColor"/>
</svg>
