<?xml version="1.0" encoding="UTF-8"?>
<!-- Created with Inkscape (http://www.inkscape.org/) -->
<svg width="16" height="16" version="1.1" xmlns="http://www.w3.org/2000/svg" xmlns:cc="http://creativecommons.org/ns#" xmlns:dc="http://purl.org/dc/elements/1.1/" xmlns:rdf="http://www.w3.org/1999/02/22-rdf-syntax-ns#">
	<defs>
		<style id="current-color-scheme" type="text/css">.ColorScheme-Text {color:#090d11;}.ColorScheme-Background{color:#ffffff;}</style>
	</defs>
	<metadata>
		<rdf:RDF>
			<cc:Work rdf:about="">
				<dc:format>image/svg+xml</dc:format>
				<dc:type rdf:resource="http://purl.org/dc/dcmitype/StillImage"/>
			</cc:Work>
		</rdf:RDF>
	</metadata>
	<path class="ColorScheme-Background" d="m3.5 0c-0.82235 0-1.5 0.67765-1.5 1.5v7.5h-0.5c-0.82235 0-1.5 0.67765-1.5 1.5v4c0 0.82235 0.67765 1.5 1.5 1.5h11c0.82235 0 1.5-0.67765 1.5-1.5v-7.5h0.5c0.82235 0 1.5-0.67765 1.5-1.5v-4c0-0.82235-0.67765-1.5-1.5-1.5zm0 1h9.709c-0.068614 0.1711-0.20898 0.30572-0.20898 0.5v13c0 0.28565-0.21435 0.5-0.5 0.5s-0.5-0.21435-0.5-0.5v-4c0-0.28565 0.21435-0.5 0.5-0.5v-1h-9.5v-7.5c0-0.28565 0.21435-0.5 0.5-0.5zm11 0c0.28565 0 0.5 0.21435 0.5 0.5v4c0 0.28565-0.29802 0.70198-0.5 0.5h-0.5v-4.5c0-0.28565 0.21435-0.5 0.5-0.5zm-13 9h9.709c-0.068614 0.1711-0.20898 0.30572-0.20898 0.5v4c0 0.19428 0.14037 0.3289 0.20898 0.5h-9.709c-0.28565 0-0.5-0.21435-0.5-0.5v-4c0-0.28565 0.21435-0.5 0.5-0.5z" style="fill-opacity:.5;fill:currentColor"/>
	<path id="c" class="ColorScheme-Text" d="m4.5 1c-0.82235 0-1.5 0.67765-1.5 1.5v6.5h1v-6.5c0-0.28565 0.21435-0.5 0.5-0.5h7.709c-0.068614 0.1711-0.20898 0.30572-0.20898 0.5v11c0 0.28565-0.21435 0.5-0.5 0.5s-0.5-0.21435-0.5-0.5v-2c0-0.28565 0.21435-0.5 0.5-0.5v-1h-7-0.5-1-0.5c-0.82235 0-1.5 0.67765-1.5 1.5v2c0 0.82235 0.67765 1.5 1.5 1.5h9c0.82235 0 1.5-0.67765 1.5-1.5v-7-0.5-1-0.5-2c0-0.28565 0.21435-0.5 0.5-0.5s0.5 0.21435 0.5 0.5v2 1.4102c0.57949-0.20825 1-0.76308 1-1.4102v-2c0-0.82235-0.67765-1.5-1.5-1.5h-9zm-2 10h7.709c-0.068614 0.1711-0.20898 0.30572-0.20898 0.5v2c0 0.19428 0.14037 0.3289 0.20898 0.5h-7.709c-0.28565 0-0.5-0.21435-0.5-0.5v-2c0-0.28565 0.21435-0.5 0.5-0.5z" style="fill-opacity:.75;fill:currentColor"/>
</svg>
