<?xml version="1.0" encoding="UTF-8"?>
<!-- Created with Inkscape (http://www.inkscape.org/) -->
<svg width="16" height="16" version="1.1" xmlns="http://www.w3.org/2000/svg" xmlns:cc="http://creativecommons.org/ns#" xmlns:dc="http://purl.org/dc/elements/1.1/" xmlns:rdf="http://www.w3.org/1999/02/22-rdf-syntax-ns#">
	<metadata>
		<rdf:RDF>
			<cc:Work rdf:about="">
				<dc:format>image/svg+xml</dc:format>
				<dc:type rdf:resource="http://purl.org/dc/dcmitype/StillImage"/>
			</cc:Work>
		</rdf:RDF>
	</metadata>
	<defs id="e">
		<style id="current-color-scheme" type="text/css">.ColorScheme-Text {color:#090d11;}
			.ColorScheme-Background{color:#ffffff;}</style>
	</defs>
	<path class="ColorScheme-Text" d="m7 1c-0.554 0-1 0.446-1 1-1.6447 0-3 1.3553-3 3v7c0 1.6447 1.3553 3 3 3h3c1.6447 0 3-1.3553 3-3v-7c0-1.6447-1.3553-3-3-3 0-0.554-0.446-1-1-1h-1zm-1 2h3c1.108 0 2 0.892 2 2h-2.0859a1.5 1.5 0 0 1 0.0097656 0.97461l-0.34961 1.0488a1.5002 1.5002 0 0 1 1.3672 1.8887l-1 3.5a1.5 1.5 0 0 1-1.8535 1.0293 1.5 1.5 0 0 1-1.0293-1.8535l0.45312-1.5879h-0.011719a1.5002 1.5002 0 0 1-1.4238-1.9746l1-3a1.5 1.5 0 0 1 0.011719-0.025391h-2.0879c0-1.108 0.892-2 2-2zm1.4922 1.8516a0.65 0.65 0 0 0-0.21289 0.041016 0.65 0.65 0 0 0-0.1875 0.10742 0.65 0.65 0 0 0-0.20898 0.29492l-1 3a0.65006 0.65006 0 0 0 0.61719 0.85547h1.1387l-0.76367 2.6719a0.65 0.65 0 0 0 0.44727 0.80273 0.65 0.65 0 0 0 0.80273-0.44727l1-3.5a0.65006 0.65006 0 0 0-0.625-0.82812h-1.0977l0.71484-2.1445a0.65 0.65 0 0 0-0.20312-0.70508 0.65 0.65 0 0 0-0.20898-0.11719 0.65 0.65 0 0 0-0.21289-0.03125z" style="fill-opacity:.75;fill:currentColor"/>
</svg>
