<?xml version="1.0" encoding="UTF-8"?>
<!-- Created with Inkscape (http://www.inkscape.org/) -->
<svg width="16" height="16" version="1.1" xmlns="http://www.w3.org/2000/svg" xmlns:cc="http://creativecommons.org/ns#" xmlns:dc="http://purl.org/dc/elements/1.1/" xmlns:rdf="http://www.w3.org/1999/02/22-rdf-syntax-ns#">
	<metadata>
		<rdf:RDF>
			<cc:Work rdf:about="">
				<dc:format>image/svg+xml</dc:format>
				<dc:type rdf:resource="http://purl.org/dc/dcmitype/StillImage"/>
			</cc:Work>
		</rdf:RDF>
	</metadata>
	<defs id="e">
		<style id="current-color-scheme" type="text/css">.ColorScheme-Text {color:#090d11;}
			.ColorScheme-Background{color:#ffffff;}</style>
	</defs>
	<path class="ColorScheme-Background" d="m7 0c-0.7507 0-1.2835 0.5009-1.625 1.125-1.8921 0.3123-3.375 1.9003-3.375 3.875v7c0 2.194 1.8059 4 4 4h3c2.194 0 3.9999-1.806 4-4v-7c0-1.9704-1.489-3.5576-3.375-3.875-0.3416-0.6241-0.8744-1.125-1.625-1.125h-1zm0 1h1c0.554 0 1 0.446 1 1 1.6447 0 3 1.3553 3 3v7c0 1.6447-1.3553 3-3 3h-3c-1.6447 0-3-1.3553-3-3v-7c0-1.6447 1.3553-3 3-3 0-0.554 0.446-1 1-1zm0.64648 3.0059a1.5 1.5 0 0 0-1.5586 0.99414h-2.0879v1h1.752l-0.67578 2.0254a1.5002 1.5002 0 0 0 1.4238 1.9746h0.011719l-0.45312 1.5879a1.5 1.5 0 0 0 1.0293 1.8535 1.5 1.5 0 0 0 1.8535-1.0293l1-3.5a1.5002 1.5002 0 0 0-1.3672-1.8887l0.3418-1.0234h2.084v-1h-2.0859a1.5 1.5 0 0 0-0.93945-0.92383 1.5 1.5 0 0 0-0.32812-0.070312zm-0.14258 0.84375a0.65 0.65 0 0 1 0.20117 0.033203 0.65 0.65 0 0 1 0.20898 0.11719 0.65 0.65 0 0 1 0.052734 0.048828 0.65 0.65 0 0 1 0.044922 0.052734 0.65 0.65 0 0 1 0.041016 0.058594 0.65 0.65 0 0 1 0.025391 0.046875 0.65 0.65 0 0 1 0.0097656 0.015625 0.65 0.65 0 0 1 0.0097656 0.021484 0.65 0.65 0 0 1 0.015625 0.042969 0.65 0.65 0 0 1 0.019531 0.068359 0.65 0.65 0 0 1 0.011719 0.0625 0.65 0.65 0 0 1 0.0019532 0.0078124 0.65 0.65 0 0 1 0.0019531 0.017578 0.65 0.65 0 0 1 0.0019531 0.044922 0.65 0.65 0 0 1 0 0.0078126 0.65 0.65 0 0 1-0.0019531 0.019531 0.65 0.65 0 0 1-0.0019531 0.046875 0.65 0.65 0 0 1 0 0.0039062 0.65 0.65 0 0 1-0.0097656 0.0625 0.65 0.65 0 0 1-0.0019532 0.0078126 0.65 0.65 0 0 1-0.017578 0.068359l-0.097656 0.29492-0.61719 1.8496h1.0977a0.65006 0.65006 0 0 1 0.625 0.82812l-1 3.5a0.65 0.65 0 0 1-0.80273 0.44727 0.65 0.65 0 0 1-0.44727-0.80273l0.76367-2.6719h-1.1387a0.65006 0.65006 0 0 1-0.61719-0.85547l0.76562-2.2949 0.23438-0.70508a0.65 0.65 0 0 1 0.083984-0.16211 0.65 0.65 0 0 1 0.0019531-0.0019531 0.65 0.65 0 0 1 0.12305-0.13086 0.65 0.65 0 0 1 0.41211-0.15039z" style="fill-opacity:.5;fill:currentColor"/>
	<path class="ColorScheme-Text" d="m7 1c-0.554 0-1 0.446-1 1-1.6447 0-3 1.3553-3 3v7c0 1.6447 1.3553 3 3 3h3c1.6447 0 3-1.3553 3-3v-7c0-1.6447-1.3553-3-3-3 0-0.554-0.446-1-1-1h-1zm-1 2h3c1.108 0 2 0.892 2 2v1h-2.084l-0.3418 1.0234a1.5002 1.5002 0 0 1 1.3672 1.8887l-1 3.5a1.5 1.5 0 0 1-1.8535 1.0293 1.5 1.5 0 0 1-1.0293-1.8535l0.45312-1.5879h-0.011719a1.5002 1.5002 0 0 1-1.4238-1.9746l0.67578-2.0254h-1.752v-1c0-1.108 0.892-2 2-2zm1.5039 1.8496a0.65 0.65 0 0 0-0.62109 0.44531l-0.23438 0.70508-0.76562 2.2949a0.65006 0.65006 0 0 0-0.029297 0.2207 0.65006 0.65006 0 0 0 0.011719 0.083984 0.65006 0.65006 0 0 0 0.035156 0.13867 0.65006 0.65006 0 0 0 0.041016 0.080078 0.65006 0.65006 0 0 0 0.080078 0.11133 0.65006 0.65006 0 0 0 0.064453 0.064453 0.65006 0.65006 0 0 0 0.12109 0.078125 0.65006 0.65006 0 0 0 0.072266 0.037109 0.65006 0.65006 0 0 0 0.2207 0.041016h1.1387l-0.76367 2.6719a0.65 0.65 0 0 0-0.017578 0.23047 0.65 0.65 0 0 0 0.013672 0.072266 0.65 0.65 0 0 0 0.046875 0.14648 0.65 0.65 0 0 0 0.042969 0.080078 0.65 0.65 0 0 0 0.09375 0.11133 0.65 0.65 0 0 0 0.066406 0.060547 0.65 0.65 0 0 0 0.20117 0.10156 0.65 0.65 0 0 0 0.23047 0.017578 0.65 0.65 0 0 0 0.072266-0.013672 0.65 0.65 0 0 0 0.14648-0.046875 0.65 0.65 0 0 0 0.080078-0.042969 0.65 0.65 0 0 0 0.11133-0.09375 0.65 0.65 0 0 0 0.060547-0.066406 0.65 0.65 0 0 0 0.10156-0.20117l1-3.5a0.65006 0.65006 0 0 0 0.019531-0.10742 0.65006 0.65006 0 0 0 0.0019532-0.0097656 0.65006 0.65006 0 0 0 0-0.0097657 0.65006 0.65006 0 0 0 0-0.099609 0.65006 0.65006 0 0 0 0-0.011719 0.65006 0.65006 0 0 0-0.0019532-0.0058593 0.65006 0.65006 0 0 0-0.015625-0.095703 0.65006 0.65006 0 0 0-0.0039062-0.015625 0.65006 0.65006 0 0 0-0.0058594-0.015625 0.65006 0.65006 0 0 0-0.033203-0.087891 0.65006 0.65006 0 0 0-0.0039063-0.0078125 0.65006 0.65006 0 0 0-0.0039062-0.0058594 0.65006 0.65006 0 0 0-0.058594-0.097656 0.65006 0.65006 0 0 0-0.076172-0.082031 0.65006 0.65006 0 0 0-0.0058594-0.0058594 0.65006 0.65006 0 0 0-0.0097656-0.0078124 0.65006 0.65006 0 0 0-0.085938-0.064453 0.65006 0.65006 0 0 0-0.10352-0.050781 0.65006 0.65006 0 0 0-0.0039062-0.0019532 0.65006 0.65006 0 0 0-0.0097656-0.0019531 0.65006 0.65006 0 0 0-0.091797-0.027344 0.65006 0.65006 0 0 0-0.013672-0.0039063 0.65006 0.65006 0 0 0-0.0097656 0 0.65006 0.65006 0 0 0-0.10938-0.011719h-1.0977l0.61719-1.8496 0.097656-0.29492a0.65 0.65 0 0 0-0.41211-0.82227 0.65 0.65 0 0 0-0.20117-0.033203z" style="fill-opacity:.75;fill:currentColor"/>
</svg>
