<?xml version="1.0" encoding="UTF-8" standalone="no"?>
<svg
   xmlns:dc="http://purl.org/dc/elements/1.1/"
   xmlns:cc="http://creativecommons.org/ns#"
   xmlns:rdf="http://www.w3.org/1999/02/22-rdf-syntax-ns#"
   xmlns:svg="http://www.w3.org/2000/svg"
   xmlns="http://www.w3.org/2000/svg"
   version="1.1"
   width="36"
   height="36"
   id="svg13094">
  <metadata
     id="metadata13099">
    <rdf:RDF>
      <cc:Work
         rdf:about="">
        <dc:format>image/svg+xml</dc:format>
        <dc:type
           rdf:resource="http://purl.org/dc/dcmitype/StillImage" />
        <dc:title></dc:title>
      </cc:Work>
    </rdf:RDF>
  </metadata>
	<defs>
		<style id="current-color-scheme" type="text/css">
			.ColorScheme-Background{color:#ffffff;}
			.ColorScheme-Text{color:#090d11;}
			.ColorScheme-Highlight{color:#2598e4;}
			.ColorScheme-NegativeText {color:#f03489;}
			.ColorScheme-PositiveText {color:#42a53b;}
            .ColorScheme-NeutralText{color:#f2712c;}
		</style>
	</defs>
  <path
     style="fill:currentColor;fill-opacity:1;stroke-width:0.46808514"
     class="ColorScheme-Background"
     d="M 31,17.999996 C 31,25.1797 25.179701,30.999999 17.999998,30.999999 10.820294,30.999999 4.9999955,25.1797 4.9999953,17.999996 4.9999955,10.820293 10.820294,4.9999941 17.999998,4.9999939 25.179701,4.9999941 31,10.820293 31,17.999996 Z"
     id="path3000" />
  <path
     id="path3778"
     class="ColorScheme-NeutralText"
     d="M 18 7 C 15.137693 6.9992506 12.387675 8.113642 10.333984 10.107422 C 8.2018244 12.179511 6.9992524 15.026844 7 18 C 7.0006488 24.074864 11.925136 28.999351 18 29 C 24.074864 28.999351 28.999351 24.074864 29 18 C 28.999351 11.925136 24.074864 7.0006491 18 7 z M 21.785156 12.369141 L 23.630859 14.214844 L 22.214844 15.630859 L 20.369141 13.785156 L 21.785156 12.369141 z M 19.53125 14.701172 L 21.298828 16.46875 L 15.761719 22.005859 L 15.605469 21.849609 L 12.757812 23.242188 L 14.150391 20.394531 L 13.994141 20.238281 L 19.53125 14.701172 z "
     style="fill:currentColor;fill-opacity:1" />
</svg>
