<?xml version="1.0" encoding="UTF-8"?>
<!-- Created with Inkscape (http://www.inkscape.org/) -->
<svg width="22" height="22" version="1.0" xmlns="http://www.w3.org/2000/svg" xmlns:cc="http://creativecommons.org/ns#" xmlns:dc="http://purl.org/dc/elements/1.1/" xmlns:rdf="http://www.w3.org/1999/02/22-rdf-syntax-ns#">
	<metadata>
		<rdf:RDF>
			<cc:Work rdf:about="">
				<dc:format>image/svg+xml</dc:format>
				<dc:type rdf:resource="http://purl.org/dc/dcmitype/StillImage"/>
			</cc:Work>
		</rdf:RDF>
	</metadata>
	<defs>
		<style id="current-color-scheme" type="text/css">.ColorScheme-Text {color:#090d11;}.ColorScheme-Background{color:#ffffff;}</style>
	</defs>
	<path class="ColorScheme-Text" d="m18.5 19c0.27613-2.8e-5 0.49997-0.22387 0.5-0.5v-15c-2.8e-5 -0.27613-0.22387-0.49997-0.5-0.5h-0.5v7h-5c-0.554 0-1 0.41664-1 0.93359v0.13281c0 0.51695 0.446 0.93359 1 0.93359h5v7z" style="fill-opacity:.75;fill:currentColor"/>
	<path class="ColorScheme-Text" d="m18 19v-1h-14v-14h14v-1h-14.5c-0.27613 2.76e-5 -0.49997 0.22387-0.5 0.5v15c2.76e-5 0.27613 0.22387 0.49997 0.5 0.5z" style="fill-opacity:.75;fill:currentColor;opacity:.5"/>
</svg>
