<?xml version="1.0" encoding="UTF-8"?>
<svg id="c" width="22" height="22" version="1.1" xmlns="http://www.w3.org/2000/svg" xmlns:cc="http://creativecommons.org/ns#" xmlns:dc="http://purl.org/dc/elements/1.1/" xmlns:rdf="http://www.w3.org/1999/02/22-rdf-syntax-ns#">
	<metadata id="a">
		<rdf:RDF>
			<cc:Work rdf:about="">
				<dc:format>image/svg+xml</dc:format>
				<dc:type rdf:resource="http://purl.org/dc/dcmitype/StillImage"/>
			</cc:Work>
		</rdf:RDF>
	</metadata>
	<defs>
		<style id="current-color-scheme" type="text/css">.ColorScheme-Text {color:#090d11;}.ColorScheme-Background{color:#ffffff;}</style>
	</defs>
	<path id="b" class="ColorScheme-Text" d="m11 2c-4.9706 0-9 4.0294-9 9s4.0294 9 9 9 9-4.0294 9-9-4.0294-9-9-9zm0 1c4.4183 0 8 3.5817 8 8s-3.5817 8-8 8-8-3.5817-8-8 3.5817-8 8-8zm0.5 1.5c-0.27614 0-0.5 0.22386-0.5 0.5v6.5c0 0.27614 0.22386 0.5 0.5 0.5 0.07171-0.0012 0.14232-0.01789 0.20703-0.04883 0.09468 0.03077 0.19343 0.04723 0.29297 0.04883h3.5c0.55228 0 1-0.44772 1-1s-0.44772-1-1-1h-3.5v-5c0-0.27614-0.22386-0.5-0.5-0.5z" style="fill-opacity:.75;fill:currentColor"/>
</svg>
