<?xml version="1.0" encoding="UTF-8"?>
<!-- Created with Inkscape (http://www.inkscape.org/) -->
<svg width="22" height="22" version="1.1" xmlns="http://www.w3.org/2000/svg" xmlns:cc="http://creativecommons.org/ns#" xmlns:dc="http://purl.org/dc/elements/1.1/" xmlns:rdf="http://www.w3.org/1999/02/22-rdf-syntax-ns#" xmlns:xlink="http://www.w3.org/1999/xlink">
	<defs>
		<radialGradient id="a" cx="-2.8918" cy="11.825" r="8.5006" gradientTransform="matrix(3.0131,0,0,3.7218,18.5,-36.971)" gradientUnits="userSpaceOnUse">
			<stop stop-color="#213851" stop-opacity=".9059" offset="0"/>
			<stop stop-color="#27303a" stop-opacity="0" offset="1"/>
		</radialGradient>
		<radialGradient id="b" cx="20.321" cy="10.389" r="5.2283" gradientTransform="matrix(1.4143 -.81652 1.5751 2.7283 -33.702 -7.7114)" gradientUnits="userSpaceOnUse">
			<stop stop-color="#ffffff" stop-opacity=".74858" offset="0"/>
			<stop stop-color="#ffffff" stop-opacity=".60511" offset="1"/>
		</radialGradient>
		<radialGradient id="c" cx="12.132" cy="12.944" r="10.015" gradientTransform="matrix(1.617 0 0 1.5825 -8.4622 -8.4377)" gradientUnits="userSpaceOnUse" xlink:href="#a"/>
		<radialGradient id="e" cx="19.084" cy="11.435" r="5.2283" gradientTransform="matrix(4.8852 0 5.1558e-7 6.4519 -81.699 -55.195)" gradientUnits="userSpaceOnUse">
			<stop stop-color="#ffffff" stop-opacity=".52321" offset="0"/>
			<stop stop-color="#ffffff" stop-opacity=".00084388" offset="1"/>
		</radialGradient>
		<radialGradient id="d" cx="-2.8918" cy="11.825" r="8.5006" gradientTransform="matrix(2.7278 0 0 3.3693 16.887 -33.29)" gradientUnits="userSpaceOnUse" xlink:href="#a"/>
	</defs>
	<metadata>
		<rdf:RDF>
			<cc:Work rdf:about="">
				<dc:format>image/svg+xml</dc:format>
				<dc:type rdf:resource="http://purl.org/dc/dcmitype/StillImage"/>
				<dc:title/>
			</cc:Work>
		</rdf:RDF>
	</metadata>
	<path d="m10.587 3.7249-7.748 4.2694v8.2052l7.748 2.9192v-15.394z" fill="#090d11" fill-opacity=".76621" fill-rule="evenodd" style="paint-order:normal"/>
	<path d="m10.997 1.6052c-0.02833 0.00102-0.05661 0.00338-0.08472 0.00706-0.01586 0.00149-0.03182 0.00149-0.04766 0.00353-0.02245 0.0029-0.0448 0.00657-0.06706 0.01059-0.0018 5.829e-4 -0.0035 0.00117-0.0054 0.00176-0.04458 0.00836-0.08881 0.01897-0.13237 0.031769-0.03935 0.011338-0.07833 0.023975-0.11649 0.038829-0.01427 0.00549-0.02829 0.011674-0.04235 0.017649-0.0054 0.00172-0.01061 0.00348-0.01589 0.0053l-8.6499 4.7653c-0.00295 0.00174-0.0059 0.00352-0.00883 0.0053-0.037328 0.017128-0.07381 0.036035-0.10942 0.056478-0.00184 0.00105-0.00345 0.00248-0.0053 0.00353-0.00228 0.00131-0.00479 0.00219-0.00706 0.00353-0.035717 0.020749-0.070454 0.043142-0.10413 0.067068-0.00118 0.00117-0.00236 0.00235-0.00353 0.00353-0.036688 0.026453-0.072035 0.054731-0.1059 0.084716-0.029125 0.025518-0.05788 0.0515-0.084716 0.079423-0.00237 0.00234-0.00471 0.00469-0.00706 0.00706-0.031792 0.033734-0.06184 0.069085-0.090011 0.1059-0.00178 0.00234-0.00354 0.0047-0.0053 0.00706-0.053236 0.071182-0.099356 0.14746-0.13766 0.22767-0.016257 0.034036-0.030764 0.068865-0.044123 0.10413-0.00114 0.00294-0.00241 0.00587-0.00353 0.00883-0.00174 0.00471-0.0036 0.00938-0.0053 0.01412-0.012612 0.034227-0.023721 0.068992-0.033534 0.10413-0.00121 0.0047-0.0024 0.0094-0.00353 0.01412-0.023179 0.088348-0.037373 0.17883-0.042359 0.27004-7.179e-4 0.00882-0.0013 0.017641-0.00177 0.026474-5.826e-4 0.022939-5.826e-4 0.045893 0 0.068833v8.7629c-9.45e-5 0.18059 0.035909 0.35944 0.1059 0.52595 0.017379 0.04153 0.03682 0.08218 0.058242 0.12178 0.00289 0.0054 0.00582 0.01062 0.00883 0.01589 0.019173 0.03382 0.03977 0.0668 0.061772 0.09884 0.00238 0.0035 0.00465 0.0072 0.00706 0.01059 0.00168 0.0024 0.0036 0.0047 0.0053 0.0071 0.021189 0.03028 0.043471 0.05979 0.067067 0.08825 0.00117 0.0012 0.00235 0.0023 0.00353 0.0035 0.12355 0.14703 0.277 0.26619 0.45006 0.34946l8.5776 3.221 0.03529 0.01765 0.02119 0.01059c0.0012 5.92e-4 0.0023 0.0012 0.0035 0.0018 0.02078 0.01082 0.04198 0.02083 0.06354 0.03 0.0029 0.0013 6e-3 0.0022 0.0089 0.0035 0.01113 0.0048 0.02228 0.0096 0.03353 0.01413 0.0134 0.0056 0.02694 0.01091 0.04059 0.01589 0.0054 0.0018 0.01055 0.0035 0.01589 0.0054 0.0022 7.69e-4 0.0048 9.94e-4 0.0071 0.0018 0.0048 0.0016 0.0093 0.0037 0.01413 0.0054 0.01055 0.0036 0.02114 0.0072 0.03177 0.01059 0.0076 0.0019 0.01527 0.0036 0.02294 0.0054 0.01228 0.0038 0.02463 0.0073 0.03706 0.01059 0.02455 0.0061 0.04928 0.01125 0.07412 0.01589 0.0013 2.46e-4 0.0022 0.0015 0.0035 0.0018 0.0088 0.0013 0.01763 0.0024 0.02647 0.0035 0.02637 0.0043 0.05285 0.0079 0.07942 0.01059 0.0159 0.0017 0.03171 0.0041 0.04765 0.0054 0.01822 0.0012 0.03646 0.0017 0.05472 0.0018 0.05654 0.0015 0.11313 2.8e-4 0.16943-0.0054 0.01592-0.0015 0.0318-0.0031 0.04765-0.0054 0.01773-0.0024 0.03538-0.0054 0.05295-0.0089l-0.02824 0.0035c0.04453-0.0067 0.08872-0.01542 0.13237-0.02647 0.03381-0.0084 0.06755-0.01725 0.1006-0.02824l0.0071-0.0035c0.04872-0.01667 0.09644-0.03614 0.14296-0.05824 0.0018-5.84e-4 0.0035-0.0012 0.0054-0.0018l8.5052-3.2087c0.01249-0.0056 0.02484-0.01149 0.03707-0.01765h0.0018c0.0035-0.0017 0.0071-0.0035 0.01059-0.0054 0.08043-0.03998 0.15672-0.08789 0.22767-0.14296 0.03337-0.02583 0.06626-0.05235 0.09707-0.08118l0.0018-0.0018c0.09713-0.09087 0.18044-0.19551 0.24709-0.31063v-0.0018c0.04528-0.07813 0.0786-0.16261 0.09884-0.25062 0.01441-0.04267 0.0393-0.08131 0.04942-0.12531 5.98e-4 -0.0023 0.0012-0.0047 0.0018-0.0071 0.01926-0.08699 0.0299-0.17567 0.03177-0.26474 2.8e-5 -0.0041 2.8e-5 -0.0082 0-0.01236v-0.0054c4e-6 -0.0018 4e-6 -0.0035 0-0.0054 1.1e-5 -0.0054 5.2e-5 -0.01058 0-0.01589v-8.8387c1.55e-4 -0.042416-0.0014-0.084827-0.0054-0.12707-5.3e-4 -0.0059-0.0011-0.011772-0.0018-0.017649-4e-3 -0.037324-0.01049-0.07434-0.01765-0.11119v-0.00176c-0.0085-0.044058-0.01913-0.087594-0.03177-0.1306-0.0033-0.011246-0.0069-0.022426-0.01059-0.033534-0.0024-0.00725-0.0063-0.013972-0.0089-0.021179v-0.00176c-0.0099-0.033004-0.02169-0.065414-0.03529-0.09707-0.01647-0.037328-0.03495-0.073736-0.05472-0.10942l-0.0018-0.00176v-0.00176c-0.043319-0.078438-0.095307-0.15202-0.15344-0.22047-0.084549-0.099754-0.18354-0.18616-0.29298-0.25768-0.0028-0.00183-0.0042-0.00525-0.0071-0.00706-0.02514-0.015979-0.05107-0.030704-0.07766-0.044123l-0.0071-0.00353c-6e-3 -0.00332-0.01159-0.00736-0.01765-0.01059-0.01107-0.00609-0.0223-0.011874-0.03353-0.017649-0.01394-0.00743-0.02806-0.014491-0.04235-0.021179l-8.4699-4.6982-0.02294-0.01059-0.01413-0.00706-0.0018-0.00176c-0.0081-0.00425-0.01641-0.00836-0.0247-0.012354-0.0029-0.00119-0.0059-0.00237-0.0089-0.00353-0.01396-0.00684-0.02808-0.013308-0.04235-0.019414-0.0089-0.00362-0.01759-0.00715-0.02647-0.01059-0.0064-0.00243-0.01291-0.00478-0.01942-0.00706-0.0035-0.00126-0.0071-0.0023-0.01059-0.00353-0.01227-0.00438-0.02462-0.0085-0.03706-0.012354-0.0094-0.0031-0.01878-0.00604-0.02823-0.00883-0.01121-0.00338-0.02223-0.0075-0.03353-0.01059h-0.0035c-0.01996-0.00545-0.03981-0.011351-0.06001-0.015884-0.02916-0.00616-0.05862-0.010871-0.08825-0.01412-0.0035-2.08e-5 -0.0071-2.08e-5 -0.01059 0-0.01245-0.00183-0.02457-0.00558-0.03707-0.00706-0.03692-0.0045-0.07402-0.00737-0.11119-0.00883-0.0059-2.303e-4 -0.01174-0.00161-0.01765-0.00176-0.02294-5.825e-4 -0.0459-5.825e-4 -0.06883 0-0.0018-5.2e-6 -0.0035-5.2e-6 -0.0054 0zm0.02823 0.90365c0.0077-1.942e-4 0.0153-1.942e-4 0.02294 0 0.01534 3.965e-4 0.03066 0.00157 0.04589 0.00353 0.01423 0.00168 0.02835 0.00403 0.04235 0.00706h0.0018c0.0072 0.00159 0.01416 0.00336 0.02119 0.0053 0.0041 0.00112 0.0082 0.0023 0.01236 0.00353 0.0029 0.00114 0.0059 0.00233 0.0089 0.00353 0.0072 0.00217 0.01418 0.00454 0.02119 0.00706 0.0029 0.00114 0.0059 0.00233 0.0089 0.00353l0.0018 0.00176c0.0035 0.00113 0.0071 0.00232 0.01059 0.00353 0.0072 0.00335 0.01422 0.00688 0.02119 0.01059l8.5246 4.7247c0.0066 0.00337 0.01303 0.00691 0.0194 0.01059 0.01332 7e-3 0.02628 0.014655 0.03883 0.022944h0.0018c0.03773 0.02426 0.07164 0.054001 0.1006 0.088247 0.0195 0.022943 0.03664 0.047775 0.05118 0.074127v0.00176c0.0071 0.012624 0.01358 0.025582 0.01942 0.038829v0.00176c6e-3 0.013268 0.01124 0.026815 0.01589 0.040593 0.0042 0.014521 0.0078 0.029247 0.01059 0.044123 3e-3 0.014582 0.0055 0.029308 0.0071 0.044123 0.0013 0.015256 2e-3 0.030572 0.0018 0.045888v8.8476c2.8e-5 0.0029 2.8e-5 0.0059 0 0.0089v0.0018c-6.22e-4 0.02969-0.0041 0.05925-0.01059 0.08825-0.01012 0.04401-0.02678 0.08625-0.04942 0.12531v0.0018c-0.02236 0.03861-0.05032 0.07371-0.08295 0.10414-0.01124 0.0106-0.02303 0.02061-0.03529 0.03-0.02365 0.01836-0.04908 0.03432-0.07588 0.04765h-0.0018l-8.5441 3.2263c-0.0155 0.0074-0.03141 0.01385-0.04766 0.01941-0.0122 4e-3 -0.02457 0.0076-0.03706 0.01059-0.01455 0.0037-0.02928 0.0066-0.04413 0.0089-0.0029 6.17e-4 -0.0059 0.0012-0.0089 0.0018-0.0053 6.83e-4 -0.01058 0.0013-0.01589 0.0018-0.02169 0.0021-0.04352 0.0027-0.06531 0.0018-0.0029 2.9e-5 -0.0059 2.9e-5 -0.0089 0-0.0065-4.49e-4 -0.01295-9.94e-4 -0.01942-0.0018-0.0089-9.04e-4 -0.01769-0.0021-0.02647-0.0035-0.0029-5.59e-4 -0.0059-0.0012-0.0089-0.0018-0.0083-0.0015-0.01652-0.0033-0.0247-0.0054-0.0035-0.0012-0.0071-0.0023-0.01059-0.0035-0.0077-0.0021-0.01536-0.0046-0.02294-0.0071-0.0035-0.0012-0.0071-0.0023-0.01059-0.0035-0.0018-5.77e-4 -0.0035-0.0012-0.0054-0.0018-0.01199-0.0048-0.02376-0.01011-0.03529-0.01589l-0.0089-0.0035c-0.0029-0.0017-0.0059-0.0035-0.0089-0.0054l-8.6339-3.2492c-0.057694-0.02776-0.10883-0.06747-0.15002-0.11649-0.00939-0.01134-0.018229-0.02311-0.026474-0.03529-0.00889-0.01252-0.017137-0.02547-0.02471-0.03883-0.00714-0.01321-0.01362-0.02675-0.019414-0.04059-0.023482-0.05587-0.035486-0.11589-0.035298-0.17649v-8.7859c-1.943e-4 -0.00765-1.943e-4 -0.015297 0-0.022945 0.00168-0.030511 0.00641-0.060668 0.01414-0.090119 4e-3 -0.014343 0.00872-0.028481 0.01412-0.042359 0.00516-0.014409 0.011053-0.028547 0.017649-0.042359 0.01277-0.026741 0.028141-0.052162 0.045888-0.075892 0.00939-0.012271 0.019406-0.024053 0.030003-0.035298 0.010102-0.010508 0.020702-0.020521 0.031769-0.030003 0.011287-0.010001 0.023068-0.019421 0.035298-0.028239 0.012515-0.00889 0.025475-0.017137 0.038828-0.02471 0.013164-0.00775 0.026714-0.014811 0.040593-0.021179l8.65-4.7653c0.0059-0.00248 0.01172-0.00483 0.01765-0.00706 0.01388-0.0054 0.02802-0.010113 0.04235-0.01412 0.01452-0.00427 0.02926-0.0078 0.04413-0.01059 0.0076-0.00138 0.01526-0.00255 0.02294-0.00353 0.01464-0.0019 0.02937-0.00307 0.04413-0.00353z" color="#000000" color-rendering="auto" dominant-baseline="auto" fill="url(#b)" fill-rule="evenodd" image-rendering="auto" shape-rendering="auto" solid-color="#000000" style="font-feature-settings:normal;font-variant-alternates:normal;font-variant-caps:normal;font-variant-ligatures:normal;font-variant-numeric:normal;font-variant-position:normal;isolation:auto;mix-blend-mode:normal;paint-order:normal;shape-padding:0;text-decoration-color:#000000;text-decoration-line:none;text-decoration-style:solid;text-indent:0;text-orientation:mixed;text-transform:none;white-space:normal"/>
	<path d="m10.587 3.7249-7.748 4.2694v8.2052l7.748 2.9192z" fill="url(#d)" fill-opacity=".75328" fill-rule="evenodd" style="paint-order:normal"/>
	<path d="m11.491 3.7284v15.388l7.6404-2.8857v-8.2687l-7.6404-4.234z" fill="url(#e)" fill-rule="evenodd" style="paint-order:normal"/>
	<path d="m2.3873 7.726 8.6512-4.7658v16.811l-8.6512-3.2589zm8.6512-4.7658v16.811l8.5454-3.2265v-8.8482zm-1.57e-4 1.328e-4 -8.651 4.7665v8.7851l8.651 3.2585 8.5451-3.2266v-8.8472z" fill="#8686bf" fill-opacity=".75328" fill-rule="evenodd" stroke="#090d11" stroke-linejoin="round" stroke-opacity=".76471" style="paint-order:normal"/>
	<path d="m2.3873 7.726 8.6512-4.7658v16.811l-8.6512-3.2589zm8.6512-4.7658v16.811l8.5454-3.2265v-8.8482zm-1.57e-4 1.328e-4 -8.651 4.7665v8.7851l8.651 3.2585 8.5451-3.2266v-8.8472z" fill="#8686bf" fill-opacity=".75328" fill-rule="evenodd" stroke="url(#c)" stroke-linejoin="round" stroke-opacity=".76471" style="paint-order:normal"/>
</svg>
