<?xml version="1.0" encoding="UTF-8"?>
<!-- Created with Inkscape (http://www.inkscape.org/) -->
<svg width="22" height="22" version="1.1" xmlns="http://www.w3.org/2000/svg" xmlns:cc="http://creativecommons.org/ns#" xmlns:dc="http://purl.org/dc/elements/1.1/" xmlns:rdf="http://www.w3.org/1999/02/22-rdf-syntax-ns#">
	<metadata>
		<rdf:RDF>
			<cc:Work rdf:about="">
				<dc:format>image/svg+xml</dc:format>
				<dc:type rdf:resource="http://purl.org/dc/dcmitype/StillImage"/>
				<dc:title/>
			</cc:Work>
		</rdf:RDF>
	</metadata>
	<defs>
		<style id="current-color-scheme" type="text/css">.ColorScheme-Text {color:#090d11;}.ColorScheme-Background{color:#ffffff;}</style>
	</defs>
	<path d="m5.5 2c-0.8225 0-1.5 0.6776-1.5 1.5v12c0 0.8224 0.6776 1.5 1.5 1.5h2.5v1.5c0 0.8224 0.6776 1.5 1.5 1.5h7.996c0.8224 0 1.504-0.6775 1.504-1.5v-11c0-0.8224-0.6816-1.5-1.504-1.5h-1.496v-2.5c0-0.8224-0.6816-1.5-1.504-1.5zm0 1h8.996c0.2856 0 0.504 0.2143 0.504 0.5v12c0 0.2858-0.2183 0.5-0.504 0.5h-8.996c-0.2858 0-0.5-0.2142-0.5-0.5v-12c0-0.2858 0.2142-0.5 0.5-0.5z" style="fill-opacity:.75;fill:currentColor" class="ColorScheme-Text"/>
	<path d="m4.502 1c-0.8225 0-1.502 0.67945-1.502 1.502v13.998c0 0.8224 0.67945 1.5 1.502 1.5h10.998c0.8224 0 1.5-0.6776 1.5-1.5v-13.998c0-0.8225-0.6776-1.502-1.5-1.502zm0 1h10.998c0.2857 0 0.5 0.21625 0.5 0.50195v13.998c0 0.2857-0.2143 0.5-0.5 0.5h-10.998c-0.2857 0-0.50195-0.2143-0.50195-0.5v-13.998c0-0.2857 0.21625-0.50195 0.50195-0.50195zm12.498 3v1h1.5c0.2857 0 0.5 0.21625 0.5 0.50195v12.998c0 0.2857-0.2143 0.5-0.5 0.5h-9.998c-0.29637 0-0.50195-0.24005-0.50195-0.5v-1.5h-1v1.5c0 0.75423 0.69454 1.5 1.502 1.5h9.998c0.8224 0 1.5-0.6776 1.5-1.5v-12.998c0-0.8225-0.6776-1.502-1.5-1.502z" style="fill-opacity:.5;fill:currentColor" class="ColorScheme-Background"/>
</svg>
