<?xml version="1.0" encoding="UTF-8"?>
<!-- Created with Inkscape (http://www.inkscape.org/) -->
<svg width="22" height="22" version="1.1" xmlns="http://www.w3.org/2000/svg" xmlns:cc="http://creativecommons.org/ns#" xmlns:dc="http://purl.org/dc/elements/1.1/" xmlns:rdf="http://www.w3.org/1999/02/22-rdf-syntax-ns#">
	<metadata>
		<rdf:RDF>
			<cc:Work rdf:about="">
				<dc:format>image/svg+xml</dc:format>
				<dc:type rdf:resource="http://purl.org/dc/dcmitype/StillImage"/>
			</cc:Work>
		</rdf:RDF>
	</metadata>
	<defs>
		<style id="current-color-scheme" type="text/css">
			.ColorScheme-Background{color:#ffffff;}
			.ColorScheme-Text{color:#090d11;}
            .ColorScheme-NeutralText{color:#f2712c;}
		</style>
	</defs>
	<path class="ColorScheme-Text" d="m3.4336 2c-0.78542 0-1.4336 0.64818-1.4336 1.4336v12.133c0 0.78542 0.64818 1.4336 1.4336 1.4336h1.5664v1.5664c0 0.78542 0.64818 1.4336 1.4336 1.4336h12.133c0.78542 0 1.4336-0.64818 1.4336-1.4336v-12.133c0-0.78542-0.64818-1.4336-1.4336-1.4336h-1.5664v-1.5664c0-0.78542-0.64818-1.4336-1.4336-1.4336zm0 1h12.133c0.24872 0 0.43359 0.18488 0.43359 0.43359v12.133c0 0.24872-0.18488 0.43359-0.43359 0.43359h-12.133c-0.24872 0-0.43359-0.18488-0.43359-0.43359v-12.133c0-0.24872 0.18488-0.43359 0.43359-0.43359zm13.566 3h1.5664c0.24872 0 0.43359 0.18488 0.43359 0.43359v12.133c0 0.24872-0.18488 0.43359-0.43359 0.43359h-12.133c-0.24872 0-0.43359-0.18488-0.43359-0.43359v-1.5664h9.5664c0.78542 0 1.4336-0.64818 1.4336-1.4336z" style="fill-opacity:.75;fill:currentColor"/>
	<path class="ColorScheme-Background" d="m2.4336 1c-0.78542 0-1.4336 0.64818-1.4336 1.4336v14.133c0 0.78542 0.64818 1.4336 1.4336 1.4336h1.5664v1.5664c0 0.78542 0.64818 1.4336 1.4336 1.4336h14.133c0.78542 0 1.4336-0.64818 1.4336-1.4336v-14.133c0-0.78542-0.64818-1.4336-1.4336-1.4336h-1.5664v-1.5664c0-0.78542-0.64818-1.4336-1.4336-1.4336zm0 1h14.133c0.24872 0 0.43359 0.18488 0.43359 0.43359v14.133c0 0.24872-0.18488 0.43359-0.43359 0.43359h-14.133c-0.24872 0-0.43359-0.18488-0.43359-0.43359v-14.133c0-0.24872 0.18488-0.43359 0.43359-0.43359zm15.566 3h1.5664c0.24872 0 0.43359 0.18488 0.43359 0.43359v14.133c0 0.24872-0.18488 0.43359-0.43359 0.43359h-14.133c-0.24872 0-0.43359-0.18488-0.43359-0.43359v-1.5664h11.566c0.78542 0 1.4336-0.64818 1.4336-1.4336z" style="fill-opacity:.5;fill:currentColor"/>
	<path class="ColorScheme-NeutralText warning" d="m9.5 5c-1.205 0-2.2161 0.86193-2.4492 2h1.0332c0.20218-0.58738 0.75247-1 1.416-1 0.83965 0 1.5 0.66035 1.5 1.5v1.5h-4c-0.554 0-1 0.446-1 1v3c0 0.554 0.446 1 1 1h5c0.554 0 1-0.446 1-1v-3c0-0.554-0.446-1-1-1v-1.5c0-1.3764-1.1236-2.5-2.5-2.5z" style="fill:currentColor"/>
</svg>
