<?xml version="1.0" encoding="UTF-8"?>
<!-- Created with Inkscape (http://www.inkscape.org/) -->
<svg width="22" height="22" version="1.1" xmlns="http://www.w3.org/2000/svg" xmlns:cc="http://creativecommons.org/ns#" xmlns:dc="http://purl.org/dc/elements/1.1/" xmlns:rdf="http://www.w3.org/1999/02/22-rdf-syntax-ns#" xmlns:xlink="http://www.w3.org/1999/xlink">
	<metadata>
		<rdf:RDF>
			<cc:Work rdf:about="">
				<dc:format>image/svg+xml</dc:format>
				<dc:type rdf:resource="http://purl.org/dc/dcmitype/StillImage"/>
				<dc:title/>
			</cc:Work>
		</rdf:RDF>
	</metadata>
	<defs>
		<style id="current-color-scheme" type="text/css">
			.ColorScheme-Text {color:#090d11;}
		</style>
	</defs>
	<path d="m8.9688 5a1.0001 1.0001 0 1 0 0 2h4.1309a1.0001 1.0001 0 1 0 0-2h-4.1309zm2.0176 4.0039c-0.40118 9.68e-5 -0.80179 0.13922-1.123 0.41602l-6.6133 5.6992a0.50005 0.50005 0 1 0 0.65234 0.75781l6.6133-5.6992c0.26509-0.2284 0.67785-0.22888 0.94336 0l6.6152 5.7012a0.50005 0.50005 0 1 0 0.65234-0.75781l-6.6152-5.7012c-0.32164-0.27726-0.72382-0.41611-1.125-0.41602z" color="#090d11" fill="currentColor" style="fill:currentColor;" class="ColorScheme-Text"/>
</svg>
