<?xml version="1.0" encoding="UTF-8"?>
<!-- Created with Inkscape (http://www.inkscape.org/) -->
<svg width="22" height="22" version="1.1" xmlns="http://www.w3.org/2000/svg" xmlns:cc="http://creativecommons.org/ns#" xmlns:dc="http://purl.org/dc/elements/1.1/" xmlns:rdf="http://www.w3.org/1999/02/22-rdf-syntax-ns#">
	<defs>
		<radialGradient id="a" cx="290.77" cy="-102.17" r="7.254" gradientTransform="matrix(2.4849,0,0,2.4049,-712.91,256.7)" gradientUnits="userSpaceOnUse">
			<stop stop-color="#213851" stop-opacity=".9059" offset="0"/>
			<stop stop-color="#27303a" stop-opacity="0" offset="1"/>
		</radialGradient>
		<radialGradient id="b" cx="7801.9" cy="-3925.2" r="6.5" gradientTransform="matrix(9.4698e-6,2.8322,-3.0683,0,-12034,-22086)" gradientUnits="userSpaceOnUse">
			<stop stop-color="#ffffff" stop-opacity=".74858" offset="0"/>
			<stop stop-color="#ffffff" stop-opacity=".60511" offset="1"/>
		</radialGradient>
	</defs>
	<metadata>
		<rdf:RDF>
			<cc:Work rdf:about="">
				<dc:format>image/svg+xml</dc:format>
				<dc:type rdf:resource="http://purl.org/dc/dcmitype/StillImage"/>
				<dc:title/>
			</cc:Work>
		</rdf:RDF>
	</metadata>
	<path d="m17.086 0.9668 4.0234 4.5137-3.6523 3.2969 4.4336-3.1777c0.39937-0.28168 0.38157-0.69163-0.23633-1.166-0.9961-0.76474-4.5684-3.4668-4.5684-3.4668zm-0.06055 3.0371c-1.4935 0.05023-3.0884 0.79989-4.543 1.8379-1.3529 0.9655-2.5586 2.1851-3.4102 3.4043 0.20649 0.28255 0.40677 0.57078 0.59961 0.86133 0.04976-0.07043 0.10874-0.13719 0.16016-0.20703 0.77175-1.1275 1.9404-2.3241 3.2324-3.2461 0.24363-0.17386 0.49329-0.323 0.74219-0.47461 0.09449-0.060347 0.18905-0.12316 0.2832-0.17969 0.0465-0.026501 0.09216-0.048604 0.13867-0.074219 0.96994-0.56333 1.9169-0.92578 2.7637-0.92578a0.50005 0.50005 0 0 1 0.0098 0c0.0016-0.24346 0.01284-0.63336 0.02344-0.99609zm-13.549 2.1016c-0.86385-0.086946-1.7593 0.25824-2.4668 1.0957a0.50028 0.50028 0 1 0 0.76367 0.64648c0.55519-0.65716 1.0538-0.81563 1.6289-0.74805 0.57512 0.067582 1.2532 0.43152 1.9277 0.99414 0.92144 0.76852 1.8098 1.8767 2.541 2.9062-0.73119 1.0296-1.6196 2.1377-2.541 2.9062-0.67458 0.56263-1.3526 0.92656-1.9277 0.99414-0.57512 0.06758-1.0737-0.09089-1.6289-0.74805a0.50028 0.50028 0 0 0-0.76367 0.64648c0.70753 0.83747 1.6029 1.1826 2.4668 1.0957 0.99584-0.21375 1.9185-0.74413 2.7812-1.4902 0.22026-0.19049 0.43227-0.40324 0.64258-0.61914 0.10777-0.1136 0.21587-0.22625 0.32031-0.34375 0.045512-0.05039 0.089752-0.10293 0.13477-0.1543 0.38682-0.44662 0.75146-0.91125 1.0859-1.3691 0.21333-0.30073 0.4199-0.6073 0.61914-0.91797-0.19924-0.31067-0.40581-0.61724-0.61914-0.91797-0.33448-0.45789-0.69912-0.92252-1.0859-1.3691-0.045011-0.051369-0.089251-0.10391-0.13477-0.1543-0.10445-0.1175-0.21254-0.23015-0.32031-0.34375-0.2103-0.2159-0.42231-0.42865-0.64258-0.61914-0.86272-0.74611-1.7854-1.2765-2.7812-1.4902zm6.1953 5.7871c-0.19284 0.29054-0.39312 0.57878-0.59961 0.86133 0.85151 1.2192 2.0572 2.4388 3.4102 3.4043 1.4545 1.038 3.0494 1.7877 4.543 1.8379-0.0106-0.36273-0.02188-0.75263-0.02344-0.99609a0.50005 0.50005 0 0 1-0.0098 0c-0.84676 0-1.7937-0.36246-2.7637-0.92578-0.04651-0.02561-0.09218-0.04772-0.13867-0.07422-0.09415-0.05653-0.18872-0.11934-0.2832-0.17969-0.24889-0.15161-0.49856-0.30075-0.74219-0.47461-1.292-0.922-2.4607-2.1186-3.2324-3.2461-0.05142-0.06984-0.1104-0.13661-0.16016-0.20703zm7.7852 1.3301 3.6523 3.2969-4.0234 4.5137s3.5723-2.7021 4.5684-3.4668c0.6179-0.47438 0.6357-0.88433 0.23633-1.166l-4.4336-3.1777z" color="#000000" color-rendering="auto" dominant-baseline="auto" fill="url(#b)" image-rendering="auto" shape-rendering="auto" solid-color="#000000" style="font-feature-settings:normal;font-variant-alternates:normal;font-variant-caps:normal;font-variant-ligatures:normal;font-variant-numeric:normal;font-variant-position:normal;isolation:auto;mix-blend-mode:normal;paint-order:normal;shape-padding:0;text-decoration-color:#000000;text-decoration-line:none;text-decoration-style:solid;text-indent:0;text-orientation:mixed;text-transform:none;white-space:normal"/>
	<path d="m17.189 2.5645c-0.16342 0.1231-0.18303 1.7348-0.1875 2.4355a0.50005 0.50005 0 0 0-0.0098 0c-1.2144 0-2.6305 0.71434-4.0332 1.7559-1.2203 0.9061-2.3915 2.0839-3.2871 3.3516-0.79604-1.1994-1.7041-2.3546-2.7598-3.2676-1.2574-1.0874-2.7357-1.8398-4.4121-1.8398a0.50005 0.50005 0 1 0 0 1c1.3788 0 2.6195 0.61122 3.7578 1.5957 1.0488 0.90706 1.9855 2.13 2.8027 3.4043-0.81723 1.2743-1.7539 2.4972-2.8027 3.4043-1.1384 0.98448-2.379 1.5957-3.7578 1.5957a0.50005 0.50005 0 1 0 0 1c1.6764 0 3.1547-0.75242 4.4121-1.8398 1.0556-0.91296 1.9637-2.0682 2.7598-3.2676 0.89563 1.2676 2.0668 2.4455 3.2871 3.3516 1.4027 1.0415 2.8188 1.7559 4.0332 1.7559a0.50005 0.50005 0 0 0 0.0098 0c0.0045 0.70078 0.02407 2.3124 0.1875 2.4355 0.19129 0.14409 1.8126-1.0688 2.0039-1.2129 0.19126-0.14409 1.8066-1.3681 1.8066-1.6562s-1.6154-1.5141-1.8066-1.6582c-0.19129-0.14409-1.8126-1.357-2.0039-1.2129-0.15494 0.11671-0.17877 1.5394-0.18555 2.3047a0.50005 0.50005 0 0 0-0.01172 0c-0.77816 0-2.1306-0.58813-3.4375-1.5586-1.2408-0.92132-2.453-2.1656-3.2891-3.4414 0.83604-1.2758 2.0483-2.5201 3.2891-3.4414 1.3069-0.97046 2.6593-1.5586 3.4375-1.5586a0.50005 0.50005 0 0 0 0.01172 0c0.0068 0.7653 0.03061 2.188 0.18555 2.3047 0.19129 0.14409 1.8126-1.0688 2.0039-1.2129 0.19129-0.14409 1.8066-1.37 1.8066-1.6582 0-0.28818-1.6154-1.5122-1.8066-1.6562-0.19129-0.14409-1.8126-1.357-2.0039-1.2129z" color="#000000" color-rendering="auto" dominant-baseline="auto" fill="#090d11" fill-opacity=".76621" image-rendering="auto" shape-rendering="auto" solid-color="#000000" style="font-feature-settings:normal;font-variant-alternates:normal;font-variant-caps:normal;font-variant-ligatures:normal;font-variant-numeric:normal;font-variant-position:normal;isolation:auto;mix-blend-mode:normal;paint-order:normal;shape-padding:0;text-decoration-color:#000000;text-decoration-line:none;text-decoration-style:solid;text-indent:0;text-orientation:mixed;text-transform:none;white-space:normal"/>
	<path d="m17.189 2.5645c-0.16342 0.1231-0.18303 1.7348-0.1875 2.4355a0.50005 0.50005 0 0 0-0.0098 0c-1.2144 0-2.6305 0.71434-4.0332 1.7559-1.2203 0.9061-2.3915 2.0839-3.2871 3.3516-0.79604-1.1994-1.7041-2.3546-2.7598-3.2676-1.2574-1.0874-2.7357-1.8398-4.4121-1.8398a0.50005 0.50005 0 1 0 0 1c1.3788 0 2.6195 0.61122 3.7578 1.5957 1.0488 0.90706 1.9855 2.13 2.8027 3.4043-0.81723 1.2743-1.7539 2.4972-2.8027 3.4043-1.1384 0.98448-2.379 1.5957-3.7578 1.5957a0.50005 0.50005 0 1 0 0 1c1.6764 0 3.1547-0.75242 4.4121-1.8398 1.0556-0.91296 1.9637-2.0682 2.7598-3.2676 0.89563 1.2676 2.0668 2.4455 3.2871 3.3516 1.4027 1.0415 2.8188 1.7559 4.0332 1.7559a0.50005 0.50005 0 0 0 0.0098 0c0.0045 0.70078 0.02407 2.3124 0.1875 2.4355 0.19129 0.14409 1.8126-1.0688 2.0039-1.2129 0.19126-0.14409 1.8066-1.3681 1.8066-1.6562s-1.6154-1.5141-1.8066-1.6582c-0.19129-0.14409-1.8126-1.357-2.0039-1.2129-0.15494 0.11671-0.17877 1.5394-0.18555 2.3047a0.50005 0.50005 0 0 0-0.01172 0c-0.77816 0-2.1306-0.58813-3.4375-1.5586-1.2408-0.92132-2.453-2.1656-3.2891-3.4414 0.83604-1.2758 2.0483-2.5201 3.2891-3.4414 1.3069-0.97046 2.6593-1.5586 3.4375-1.5586a0.50005 0.50005 0 0 0 0.01172 0c0.0068 0.7653 0.03061 2.188 0.18555 2.3047 0.19129 0.14409 1.8126-1.0688 2.0039-1.2129 0.19129-0.14409 1.8066-1.37 1.8066-1.6582 0-0.28818-1.6154-1.5122-1.8066-1.6562-0.19129-0.14409-1.8126-1.357-2.0039-1.2129z" color="#000000" color-rendering="auto" dominant-baseline="auto" fill="url(#a)" fill-opacity=".7533" image-rendering="auto" shape-rendering="auto" solid-color="#000000" style="font-feature-settings:normal;font-variant-alternates:normal;font-variant-caps:normal;font-variant-ligatures:normal;font-variant-numeric:normal;font-variant-position:normal;isolation:auto;mix-blend-mode:normal;paint-order:normal;shape-padding:0;text-decoration-color:#000000;text-decoration-line:none;text-decoration-style:solid;text-indent:0;text-orientation:mixed;text-transform:none;white-space:normal"/>
</svg>
