<?xml version="1.0" encoding="UTF-8"?>
<!-- Created with Inkscape (http://www.inkscape.org/) -->
<svg width="22" height="22" version="1.1" xmlns="http://www.w3.org/2000/svg" xmlns:cc="http://creativecommons.org/ns#" xmlns:dc="http://purl.org/dc/elements/1.1/" xmlns:rdf="http://www.w3.org/1999/02/22-rdf-syntax-ns#" xmlns:xlink="http://www.w3.org/1999/xlink">
	<defs>
		<radialGradient id="a" cx="289.34" cy="-103.84" r="7.254" gradientTransform="matrix(2.0678,0,0,2.0012,-574.3,215.81)" gradientUnits="userSpaceOnUse">
			<stop stop-color="#213851" stop-opacity=".9059" offset="0"/>
			<stop stop-color="#27303a" stop-opacity="0" offset="1"/>
		</radialGradient>
		<radialGradient id="b" cx="7800.1" cy="-3926.4" r="6.5" gradientTransform="matrix(-7.7857e-6,1.8461,-2,-1.5122e-5,-7845,-14396)" gradientUnits="userSpaceOnUse">
			<stop stop-color="#ffffff" stop-opacity=".74858" offset="0"/>
			<stop stop-color="#ffffff" stop-opacity=".60511" offset="1"/>
		</radialGradient>
		<radialGradient id="f" cx="14.203" cy="20.913" r="9.4181" gradientTransform="matrix(1.5929 -.01552 .014656 1.5042 -10.341 -11.014)" gradientUnits="userSpaceOnUse" xlink:href="#b"/>
		<radialGradient id="e" cx="15.799" cy="18.914" r="2.3997" gradientTransform="matrix(5.7794,0,0,5.7782,-75.362,-90.449)" gradientUnits="userSpaceOnUse" xlink:href="#a"/>
		<radialGradient id="d" cx="14.203" cy="20.913" r="9.4181" gradientTransform="matrix(1.6916 -.016483 .015564 1.5975 -11.664 -12.372)" gradientUnits="userSpaceOnUse" xlink:href="#b"/>
		<radialGradient id="c" cx="16.308" cy="19.135" r="8.4199" gradientTransform="matrix(2.2536,0,0,2.1099,-20.443,-21.727)" gradientUnits="userSpaceOnUse" xlink:href="#a"/>
	</defs>
	<metadata>
		<rdf:RDF>
			<cc:Work rdf:about="">
				<dc:format>image/svg+xml</dc:format>
				<dc:type rdf:resource="http://purl.org/dc/dcmitype/StillImage"/>
				<dc:title/>
			</cc:Work>
		</rdf:RDF>
	</metadata>
	<path d="m6.2647 19.209a9.4706 9.4711 0 0 1-4.2739-11.122 9.4706 9.4711 0 0 1 9.9856-6.5004 9.4706 9.4711 0 0 1 8.4402 8.4103 9.4706 9.4711 0 0 1-6.4641 10.009" fill="none" stroke="url(#d)" stroke-opacity=".76471" stroke-width="1.1" style="paint-order:normal"/>
	<path d="m13.894 15.642-0.31841 5.0847 6.3709-1.2032" fill="none" stroke="url(#f)" stroke-opacity=".76471" style="paint-order:normal"/>
	<g transform="matrix(.98055 0 0 .98053 -.76664 -.77008)" stroke-width="1.0198">
		<path d="m8.0402 18.859a7.9196 7.9196 0 0 1-3.6831-8.9336 7.9196 7.9196 0 0 1 7.6953-5.8444 7.9196 7.9196 0 0 1 7.6173 5.9457 7.9196 7.9196 0 0 1-3.801 8.8841" fill="none" stroke="#090d11" stroke-opacity=".76471" stroke-width="1.0198" style="paint-order:normal"/>
		<path d="m8.0402 18.859a7.9196 7.9196 0 0 1-3.6831-8.9336 7.9196 7.9196 0 0 1 7.6953-5.8444 7.9196 7.9196 0 0 1 7.6173 5.9457 7.9196 7.9196 0 0 1-3.801 8.8841" fill="none" stroke="url(#c)" stroke-opacity=".76471" stroke-width="1.0198" style="paint-order:normal"/>
		<path d="m15.708 15.244c0.2026-0.02851 1.3561 1.0973 1.8547 1.5896l0.0069-0.0069 0.70723 0.70727-0.0083 0.0083c0.53634 0.54596 1.5255 1.5688 1.4985 1.7609-0.03338 0.23715-2.0375 0.52595-2.2746 0.55932-0.23715 0.03337-2.2462 0.30872-2.45 0.10494-0.20377-0.20377 0.07297-2.2115 0.10635-2.4486 0.03337-0.23715 0.32216-2.2412 0.55932-2.2746z" color="#000000" color-rendering="auto" dominant-baseline="auto" fill="#090d11" fill-opacity=".76471" image-rendering="auto" shape-rendering="auto" solid-color="#000000" style="font-feature-settings:normal;font-variant-alternates:normal;font-variant-caps:normal;font-variant-ligatures:normal;font-variant-numeric:normal;font-variant-position:normal;isolation:auto;mix-blend-mode:normal;paint-order:normal;shape-padding:0;text-decoration-color:#000000;text-decoration-line:none;text-decoration-style:solid;text-indent:0;text-orientation:mixed;text-transform:none;white-space:normal"/>
		<path d="m15.708 15.244c0.2026-0.02851 1.3561 1.0973 1.8547 1.5896l0.0069-0.0069 0.70723 0.70727-0.0083 0.0083c0.53634 0.54596 1.5255 1.5688 1.4985 1.7609-0.03338 0.23715-2.0375 0.52595-2.2746 0.55932-0.23715 0.03337-2.2462 0.30872-2.45 0.10494-0.20377-0.20377 0.07297-2.2115 0.10635-2.4486 0.03337-0.23715 0.32216-2.2412 0.55932-2.2746z" color="#000000" color-rendering="auto" dominant-baseline="auto" fill="url(#e)" fill-opacity=".76471" image-rendering="auto" shape-rendering="auto" solid-color="#000000" style="font-feature-settings:normal;font-variant-alternates:normal;font-variant-caps:normal;font-variant-ligatures:normal;font-variant-numeric:normal;font-variant-position:normal;isolation:auto;mix-blend-mode:normal;paint-order:normal;shape-padding:0;text-decoration-color:#000000;text-decoration-line:none;text-decoration-style:solid;text-indent:0;text-orientation:mixed;text-transform:none;white-space:normal"/>
	</g>
</svg>
