<?xml version="1.0" encoding="UTF-8"?>
<!-- Created with Inkscape (http://www.inkscape.org/) -->
<svg width="22" height="22" version="1.1" xmlns="http://www.w3.org/2000/svg" xmlns:cc="http://creativecommons.org/ns#" xmlns:dc="http://purl.org/dc/elements/1.1/" xmlns:rdf="http://www.w3.org/1999/02/22-rdf-syntax-ns#">
	<metadata>
		<rdf:RDF>
			<cc:Work rdf:about="">
				<dc:format>image/svg+xml</dc:format>
				<dc:type rdf:resource="http://purl.org/dc/dcmitype/StillImage"/>
				<dc:title/>
			</cc:Work>
		</rdf:RDF>
	</metadata>
	<defs>
		<style id="current-color-scheme" type="text/css">.ColorScheme-Text {
			color:#090d11;
			}
			.ColorScheme-Background{
			color:#ffffff;
			}</style>
	</defs>
	<path class="ColorScheme-Text" d="m9.834 3.0117a0.50005 0.50005 0 0 0-0.49219 0.41406l-0.35547 2.0508-0.89062 0.5293-0.87305 0.49023-1.9531-0.71875a0.50005 0.50005 0 0 0-0.19531-0.03125 0.50005 0.50005 0 0 0-0.41016 0.25l-1.1641 2.0195a0.50005 0.50005 0 0 0 0.11133 0.63477l1.5996 1.332 0.011719 1.0352-0.011719 1-1.5996 1.332a0.50005 0.50005 0 0 0-0.11133 0.63477l1.1641 2.0195a0.50005 0.50005 0 0 0 0.60547 0.21875l1.9531-0.71875 0.9043 0.50781 0.85938 0.51172 0.35547 2.0508a0.50005 0.50005 0 0 0 0.49219 0.41406h2.332a0.50005 0.50005 0 0 0 0.49219-0.41406l0.35547-2.0508 0.85938-0.51172 0.9043-0.50781 1.9531 0.71875a0.50005 0.50005 0 0 0 0.60547-0.21875l1.1641-2.0195a0.50005 0.50005 0 0 0-0.11133-0.63477l-1.5996-1.332-0.01172-1 0.01172-1.0352 1.5996-1.332a0.50005 0.50005 0 0 0 0.11133-0.63477l-1.1641-2.0195a0.50005 0.50005 0 0 0-0.46094-0.25 0.50005 0.50005 0 0 0-0.14453 0.03125l-1.9531 0.71875-0.9043-0.50781-0.85938-0.51172-0.35547-2.0508a0.50005 0.50005 0 0 0-0.49219-0.41406h-2.332zm0.42188 1h1.4883l0.32226 1.8633a0.50005 0.50005 0 0 0 0.23828 0.34375l1.0801 0.64062 1.1035 0.62109a0.50005 0.50005 0 0 0 0.41797 0.033203l1.7734-0.65234 0.37305 0.64453 0.37109 0.64453-1.4512 1.2109a0.50005 0.50005 0 0 0-0.17969 0.37695l-0.01563 1.2559v0.0118l0.01563 1.2559a0.50005 0.50005 0 0 0 0.17969 0.37695l1.4512 1.2109-0.37109 0.64453-0.37305 0.64453-1.7734-0.65234a0.50005 0.50005 0 0 0-0.19727-0.0293 0.50005 0.50005 0 0 0-0.2207 0.0625l-1.0938 0.61524-1.0898 0.64648a0.50005 0.50005 0 0 0-0.23828 0.34375l-0.32226 1.8633h-1.4883l-0.32226-1.8633a0.50005 0.50005 0 0 0-0.23828-0.34375l-1.0801-0.64062-1.1035-0.62109a0.50005 0.50005 0 0 0-0.23828-0.06445 0.50005 0.50005 0 0 0-0.17969 0.03125l-1.7734 0.65234-0.37305-0.64453-0.37109-0.64453 1.4512-1.2109a0.50005 0.50005 0 0 0 0.17969-0.37695l0.015625-1.2559-0.015625-1.2676a0.50005 0.50005 0 0 0-0.17969-0.37695l-1.4512-1.2109 0.37109-0.64453 0.37305-0.64453 1.7734 0.65234a0.50005 0.50005 0 0 0 0.41797-0.033285l1.1035-0.62109 1.0801-0.64062a0.50005 0.50005 0 0 0 0.23828-0.34375l0.32226-1.8633zm0.74414 4.9883c-1.0987-5.5e-5 -2.0001 0.90132-2 2-5.56e-5 1.0987 0.90132 2.0001 2 2 1.0987 5.6e-5 2.0001-0.90132 2-2 5.5e-5 -1.0987-0.90132-2.0001-2-2zm0 1c0.55821-2.8e-5 1 0.44179 1 1 2.8e-5 0.55821-0.44179 1-1 1-0.55821 2.8e-5 -1-0.44179-1-1-2.8e-5 -0.55821 0.44179-1 1-1zm4.4922 4.2617 0.04492 0.0098c-0.0149-0.0036-0.02987-0.0069-0.04492-0.0098z" style="fill-opacity:.75;fill:currentColor"/>
</svg>
