<?xml version="1.0" encoding="UTF-8"?>
<!-- Created with Inkscape (http://www.inkscape.org/) -->
<svg width="22" height="22" version="1.1" xmlns="http://www.w3.org/2000/svg" xmlns:cc="http://creativecommons.org/ns#" xmlns:dc="http://purl.org/dc/elements/1.1/" xmlns:rdf="http://www.w3.org/1999/02/22-rdf-syntax-ns#">
	<defs>
		<style id="current-color-scheme" type="text/css">.ColorScheme-Text {
				color:#090d11;
			}
			.ColorScheme-Background{
				color:#ffffff;
			}</style>
	</defs>
	<metadata>
		<rdf:RDF>
			<cc:Work rdf:about="">
				<dc:format>image/svg+xml</dc:format>
				<dc:type rdf:resource="http://purl.org/dc/dcmitype/StillImage"/>
			</cc:Work>
		</rdf:RDF>
	</metadata>
	<path class="ColorScheme-Text" d="m11 2c3.3178 0 5.688 1.688 7 3l1-1c1-1 1-1 1 0v3.5c0 0.27853-0.20563 0.5-0.5 0.5h-3.5c-1 0-1 0 0-1l1.0508-1.0508c-0.41551-0.41551-2.6449-2.9492-6.0508-2.9492-5.2033 0-8.0098 4.7939-8.0098 8.0273h-0.47266c0-4.5569 3.4262-9.0273 8.4824-9.0273zm8.4824 8.9727c0 4.5569-3.4262 9.0273-8.4824 9.0273-3.3178 0-5.688-1.688-7-3l-1 1c-1 1-1 1-1 0v-3.5c0-0.27853 0.20563-0.5 0.5-0.5h3.5c1 0 1 0 0 1l-1.0508 1.0508c0.41551 0.41551 2.6449 2.9492 6.0508 2.9492 5.2033 0 8.0098-4.7939 8.0098-8.0273h0.47266z" style="fill-opacity:.75;fill:currentColor"/>
</svg>
