<?xml version="1.0" encoding="UTF-8"?>
<!-- Created with Inkscape (http://www.inkscape.org/) -->
<svg width="22" height="22" version="1.1" xmlns="http://www.w3.org/2000/svg" xmlns:cc="http://creativecommons.org/ns#" xmlns:dc="http://purl.org/dc/elements/1.1/" xmlns:rdf="http://www.w3.org/1999/02/22-rdf-syntax-ns#">
	<defs>
		<style id="current-color-scheme" type="text/css">.ColorScheme-Text {color:#090d11;}.ColorScheme-Background{color:#ffffff;}</style>
	</defs>
	<metadata>
		<rdf:RDF>
			<cc:Work rdf:about="">
				<dc:format>image/svg+xml</dc:format>
				<dc:type rdf:resource="http://purl.org/dc/dcmitype/StillImage"/>
			</cc:Work>
		</rdf:RDF>
	</metadata>
	<path id="b" class="ColorScheme-Background" d="m16.5 0.75c-0.14558 2.29e-5 -0.28393 0.063489-0.37891 0.17383l-3 3.5c-0.18012 0.20927-0.15651 0.52493 0.05273 0.70508 0.20927 0.18012 0.52493 0.15651 0.70508-0.052734l1.1211-1.3086v0.033203l0.64648-0.77539c-0.0019-0.00132-0.0039-0.00262-0.0059-0.00391l0.30664-0.35938 0.55273-0.66211 0.50977 0.61133 0.35156 0.41016c-0.0026 0.00128-0.0052 0.00258-0.0078 0.00391l0.64648 0.77539v-0.033203l1.1211 1.3086c0.18015 0.20924 0.49581 0.23285 0.70508 0.052734 0.20924-0.18015 0.23285-0.49581 0.05273-0.70508l-3-3.5c-0.094929-0.11034-0.23329-0.17381-0.37887-0.17383zm-8.75 0.25a0.50005 0.50005 0 0 0-0.44727 0.27734l-3.75 7.5a0.5 0.5 0 0 0 0.22461 0.66992 0.5 0.5 0 0 0 0.66992-0.22461l0.61133-1.2227h4.9414a0.5 0.5 0 0 0 0.36328-0.1582l0.68945 1.3809a0.5 0.5 0 0 0 0.66992 0.22461 0.5 0.5 0 0 0 0.22461-0.66992l-3.75-7.5a0.50005 0.50005 0 0 0-0.44727-0.27734zm0 1.6172 2.1914 4.3828h-4.3828zm7.25 2.3828v4.5c0 0.27614 0.22386 0.5 0.5 0.5s0.5-0.22386 0.5-0.5v-4.5zm2 0v4.5c0 0.27614 0.22386 0.5 0.5 0.5s0.5-0.22386 0.5-0.5v-4.5zm-12.75 6a0.5 0.5 0 0 0-0.5 0.5 0.5 0.5 0 0 0 0.5 0.5h4.1465l-6.2734 7.1699a0.50005 0.50005 0 0 0 0.37695 0.83008h8.25a0.5 0.5 0 0 0 0.5-0.5 0.5 0.5 0 0 0-0.5-0.5h-7.1465l6.2734-7.1699a0.50005 0.50005 0 0 0-0.37695-0.83008zm11.25 1c-0.27614 0-0.5 0.22386-0.5 0.5v4.5h1v-4.5c0-0.27614-0.22386-0.5-0.5-0.5zm2 0c-0.27614 0-0.5 0.22386-0.5 0.5v4.5h1v-4.5c0-0.27614-0.22386-0.5-0.5-0.5zm-3.9609 4.752c-0.13275-0.01051-0.26421 0.03237-0.36523 0.11914-0.20924 0.18015-0.23285 0.49581-0.05273 0.70508l3 3.5c0.1995 0.23165 0.55832 0.23165 0.75781 0l3-3.5c0.18012-0.20927 0.15651-0.52493-0.05273-0.70508-0.20927-0.18012-0.52493-0.15651-0.70508 0.05273l-1.1211 1.3086v-0.0332l-0.64648 0.77539 0.0078 0.0039-0.35156 0.41016-0.50977 0.61133-0.50977-0.61133-0.35156-0.41016 0.0078-0.0039-0.64648-0.77539v0.0332l-1.1211-1.3086c-0.08617-0.09988-0.20832-0.16166-0.33984-0.17188z" style="fill-opacity:.5;fill:currentColor"/>
	<path id="d" class="ColorScheme-Text" d="m16.5 2-2.5 3h2v4.5c0 0.27614 0.22386 0.5 0.5 0.5s0.5-0.22386 0.5-0.5v-4.5h2zm-8.5 1a0.50005 0.50005 0 0 0-0.45312 0.29102l-3 6.5a0.5 0.5 0 0 0 0.24414 0.66211 0.5 0.5 0 0 0 0.66211-0.24414l0.55859-1.209h3.9766l0.55859 1.209a0.5 0.5 0 0 0 0.66211 0.24414 0.5 0.5 0 0 0 0.24414-0.66211l-3-6.5a0.50005 0.50005 0 0 0-0.45312-0.29102zm0 1.6914 1.5273 3.3086h-3.0547l1.5273-3.3086zm-2.5 7.3086a0.5 0.5 0 0 0-0.5 0.5 0.5 0.5 0 0 0 0.5 0.5h3.4316l-4.3164 5.1797a0.50005 0.50005 0 0 0 0.38477 0.82031h5.5a0.5 0.5 0 0 0 0.5-0.5 0.5 0.5 0 0 0-0.5-0.5h-4.4316l4.3164-5.1797a0.50005 0.50005 0 0 0-0.38477-0.82031zm11 0c-0.27614 0-0.5 0.22386-0.5 0.5v4.5h-2l2.5 3 2.5-3h-2v-4.5c0-0.27614-0.22386-0.5-0.5-0.5z" style="fill-opacity:.75;fill:currentColor"/>
</svg>
