<?xml version="1.0" encoding="UTF-8"?>
<!-- Created with Inkscape (http://www.inkscape.org/) -->
<svg width="22" height="22" version="1.1" xmlns="http://www.w3.org/2000/svg" xmlns:cc="http://creativecommons.org/ns#" xmlns:dc="http://purl.org/dc/elements/1.1/" xmlns:rdf="http://www.w3.org/1999/02/22-rdf-syntax-ns#">
	<defs>
		<style id="current-color-scheme" type="text/css">.ColorScheme-Text {color:#090d11;}.ColorScheme-Background{color:#ffffff;}</style>
	</defs>
	<metadata>
		<rdf:RDF>
			<cc:Work rdf:about="">
				<dc:format>image/svg+xml</dc:format>
				<dc:type rdf:resource="http://purl.org/dc/dcmitype/StillImage"/>
			</cc:Work>
		</rdf:RDF>
	</metadata>
	<path id="b" class="ColorScheme-Background" d="m7.75 1c-0.18961 1.694e-4 -0.36282 0.10757-0.44727 0.27734l-3.75 7.5c-0.12274 0.24703-0.022238 0.54681 0.22461 0.66992 0.24703 0.12274 0.5468 0.02224 0.66992-0.22461l0.61133-1.2227h4.9414c0.13771-4.547e-4 0.26914-0.057691 0.36328-0.1582l0.68945 1.3809c0.12312 0.24685 0.42289 0.34735 0.66992 0.22461 0.24685-0.12312 0.34735-0.42289 0.22461-0.66992l-3.75-7.5c-0.084449-0.16977-0.25765-0.27717-0.44727-0.27734zm0 1.6172 2.1914 4.3828h-4.3828zm7.75 0.38281c-0.27614 0-0.5 0.22386-0.5 0.5v13.5h1v-13.5c0-0.31836-0.22386-0.5-0.5-0.5zm2 0c-0.27614 0-0.5 0.22386-0.5 0.5v13.5h1v-13.5c0-0.27614-0.22386-0.5-0.5-0.5zm-13.25 8c-0.27614 0-0.5 0.22386-0.5 0.5s0.22386 0.5 0.5 0.5h4.1465l-6.2734 7.1699c-0.28426 0.32357-0.05374 0.83118 0.37695 0.83008h8.25c0.27614 0 0.5-0.22386 0.5-0.5s-0.22386-0.5-0.5-0.5h-7.1465l6.2734-7.1699c0.28426-0.32357 0.05374-0.83118-0.37695-0.83008zm9.2871 5.752c-0.12759-0.0095-0.25865 0.02908-0.36328 0.11914-0.20924 0.18015-0.23285 0.49581-0.05273 0.70508l3 3.5c0.09497 0.11034 0.23333 0.17383 0.37891 0.17383 0.29116 0 0.28393-0.06349 0.37891-0.17383l3-3.5c0.18012-0.20927 0.15651-0.52493-0.05273-0.70508-0.20927-0.18012-0.52493-0.15651-0.70508 0.05273l-1.1211 1.3086v-0.0332l-0.64844 0.7793c0.0026 6.72e-4 0.0052 0.0013 0.0078 2e-3l-0.34375 0.40039-0.51562 0.61914-0.54688-0.6543-0.31445-0.36914c2e-3 -0.0013 0.0039-0.0026 0.0059-0.0039l-0.64453-0.77344v0.0332l-1.1211-1.3086c-0.09008-0.10462-0.2142-0.16233-0.3418-0.17188z" style="fill-opacity:.5;fill:currentColor"/>
	<path id="d" class="ColorScheme-Text" d="m8 3c-0.19484 4.463e-4 -0.37168 0.11402-0.45312 0.29102l-3 6.5c-0.11482 0.25028-0.00567 0.54628 0.24414 0.66211 0.25028 0.11482 0.54628 0.0057 0.66211-0.24414l0.55859-1.209h3.9766l0.55859 1.209c0.11582 0.24982 0.41183 0.35896 0.66211 0.24414 0.24982-0.11582 0.35896-0.41183 0.24414-0.66211l-3-6.5c-0.081445-0.177-0.25829-0.29057-0.45312-0.29102zm8.5 0c-0.27614 0-0.5 0.22386-0.5 0.5v13.5h-2l2.5 3 2.5-3h-2v-13.5c0-0.31836-0.22386-0.5-0.5-0.5zm-8.5 1.6914 1.5273 3.3086h-3.0547l1.5273-3.3086zm-2.5 7.3086c-0.27614 0-0.5 0.22386-0.5 0.5s0.22386 0.5 0.5 0.5h3.4316l-4.3164 5.1797c-0.2718 0.32593-0.039622 0.82094 0.38477 0.82031h5.5c0.27614 0 0.5-0.22386 0.5-0.5s-0.22386-0.5-0.5-0.5h-4.4316l4.3164-5.1797c0.2718-0.32593 0.039622-0.82094-0.38477-0.82031z" style="fill-opacity:.75;fill:currentColor"/>
</svg>
