<?xml version="1.0" encoding="UTF-8"?>
<svg id="a" width="22" height="22" version="1.1" xmlns="http://www.w3.org/2000/svg" xmlns:cc="http://creativecommons.org/ns#" xmlns:dc="http://purl.org/dc/elements/1.1/" xmlns:rdf="http://www.w3.org/1999/02/22-rdf-syntax-ns#">
	<metadata id="d">
		<rdf:RDF>
			<cc:Work rdf:about="">
				<dc:format>image/svg+xml</dc:format>
				<dc:type rdf:resource="http://purl.org/dc/dcmitype/StillImage"/>
			</cc:Work>
		</rdf:RDF>
	</metadata>
	<defs id="f">
		<style id="current-color-scheme" type="text/css">.ColorScheme-Text {color:#090d11;}.ColorScheme-Background{color:#ffffff;}</style>
	</defs>
	<path id="c" class="ColorScheme-Text" d="m3.5 3c-0.42757 1.405e-4 -0.65776 0.50204-0.37891 0.82617l6.8789 8.0254v7.1484h2v-7.1484l6.8789-8.0254c0.27885-0.32413 0.048666-0.82603-0.37891-0.82617zm1.0879 1h12.824l-6.4121 7.4824z" style="fill-opacity:.75;fill:currentColor"/>
	<path id="b" class="ColorScheme-Background" d="m2.5 2c-0.27613 2.76e-5 -0.49997 0.22387-0.5 0.5v1.5c-5.85e-5 0.11879 0.042176 0.23373 0.11914 0.32422l6.8809 8.1094v6.5664c0 0.27614 0.22386 0.5 0.5 0.5s0.5-0.22386 0.5-0.5v-6.75c5.8e-5 -0.11879-0.04218-0.23373-0.11914-0.32422l-6.8809-8.1094v-0.81641h16v0.81641l-6.8809 8.1094c-0.07696 0.09049-0.1192 0.20542-0.11914 0.32422v6.75c0 0.27614 0.22386 0.5 0.5 0.5s0.5-0.22386 0.5-0.5v-6.5664l6.8809-8.1094c0.076964-0.09049 0.1192-0.20542 0.11914-0.32422v-1.5c-2.8e-5 -0.27613-0.22387-0.49997-0.5-0.5zm3.5 2c-0.27614 0-0.5 0.22386-0.5 0.5s0.22386 0.5 0.5 0.5h10c0.27614 0 0.5-0.22386 0.5-0.5s-0.22386-0.5-0.5-0.5z" style="fill-opacity:.5;fill:currentColor"/>
</svg>
