<?xml version="1.0" encoding="UTF-8" standalone="no"?>
<!-- Created with Inkscape (http://www.inkscape.org/) -->

<svg
   xmlns:dc="http://purl.org/dc/elements/1.1/"
   xmlns:cc="http://creativecommons.org/ns#"
   xmlns:rdf="http://www.w3.org/1999/02/22-rdf-syntax-ns#"
   xmlns:svg="http://www.w3.org/2000/svg"
   xmlns="http://www.w3.org/2000/svg"
   xmlns:sodipodi="http://sodipodi.sourceforge.net/DTD/sodipodi-0.dtd"
   xmlns:inkscape="http://www.inkscape.org/namespaces/inkscape"
   width="16"
   height="16"
   id="svg3434"
   version="1.1"
   inkscape:version="0.92.2 5c3e80d, 2017-08-06"
   sodipodi:docname="drive-harddisk.svg">
  <defs
     id="defs3436" />
  <sodipodi:namedview
     id="base"
     pagecolor="#ffffff"
     bordercolor="#666666"
     borderopacity="1.0"
     inkscape:pageopacity="0.0"
     inkscape:pageshadow="2"
     inkscape:zoom="45.254834"
     inkscape:cx="9.3314678"
     inkscape:cy="7.2601152"
     inkscape:document-units="px"
     inkscape:current-layer="g3026"
     showgrid="true"
     inkscape:snap-global="true"
     inkscape:window-width="1920"
     inkscape:window-height="1033"
     inkscape:window-x="-10"
     inkscape:window-y="25"
     inkscape:window-maximized="1"
     fit-margin-top="0"
     fit-margin-left="0"
     fit-margin-right="0"
     fit-margin-bottom="0"
     inkscape:snap-bbox="true"
     inkscape:bbox-paths="true"
     inkscape:bbox-nodes="true"
     inkscape:snap-bbox-edge-midpoints="true"
     inkscape:snap-bbox-midpoints="true"
     inkscape:object-paths="true"
     inkscape:snap-intersection-paths="true"
     inkscape:snap-smooth-nodes="true"
     inkscape:snap-midpoints="true"
     inkscape:snap-object-midpoints="true"
     inkscape:snap-center="true"
     inkscape:snap-text-baseline="true">
    <inkscape:grid
       type="xygrid"
       id="grid3564"
       empspacing="5"
       visible="true"
       enabled="true"
       snapvisiblegridlinesonly="true"
       originx="-1"
       originy="-1.0000021"
       spacingx="1"
       spacingy="1" />
  </sodipodi:namedview>
  <metadata
     id="metadata3439">
    <rdf:RDF>
      <cc:Work
         rdf:about="">
        <dc:format>image/svg+xml</dc:format>
        <dc:type
           rdf:resource="http://purl.org/dc/dcmitype/StillImage" />
        <dc:title />
      </cc:Work>
    </rdf:RDF>
  </metadata>
  <g
     inkscape:label="Camada 1"
     inkscape:groupmode="layer"
     id="device-notifier"
     transform="translate(-1,-1035.3622)">
    <g
       id="g3026"
       inkscape:label="#device">
      <path
         style="color:#000000;font-style:normal;font-variant:normal;font-weight:normal;font-stretch:normal;font-size:medium;line-height:normal;font-family:sans-serif;font-variant-ligatures:normal;font-variant-position:normal;font-variant-caps:normal;font-variant-numeric:normal;font-variant-alternates:normal;font-feature-settings:normal;text-indent:0;text-align:start;text-decoration:none;text-decoration-line:none;text-decoration-style:solid;text-decoration-color:#000000;letter-spacing:normal;word-spacing:normal;text-transform:none;writing-mode:lr-tb;direction:ltr;text-orientation:mixed;dominant-baseline:auto;baseline-shift:baseline;text-anchor:start;white-space:normal;shape-padding:0;clip-rule:nonzero;display:inline;overflow:visible;visibility:visible;opacity:1;isolation:auto;mix-blend-mode:normal;color-interpolation:sRGB;color-interpolation-filters:linearRGB;solid-color:#000000;solid-opacity:1;vector-effect:none;fill:#f1f3f5;fill-opacity:0.90196078;fill-rule:nonzero;stroke:none;stroke-width:2;stroke-linecap:butt;stroke-linejoin:miter;stroke-miterlimit:4;stroke-dasharray:none;stroke-dashoffset:0;stroke-opacity:1;marker:none;paint-order:normal;color-rendering:auto;image-rendering:auto;shape-rendering:auto;text-rendering:auto;enable-background:accumulate;font-variant-east_asian:normal"
         d="M 3 0 C 1.9093099 0 1 0.9093 1 2 L 1 14 C 1 15.0907 1.9093101 16 3 16 L 13 16 C 14.09069 16 15 15.0907 15 14 L 15 2 C 15 0.9093 14.09069 0 13 0 L 3 0 z M 3 1 L 13 1 C 13.554011 1 14 1.446 14 2 L 14 14 C 14 14.554 13.554011 15 13 15 L 3 15 C 2.4459892 15 2 14.554 2 14 L 2 2 C 2 1.446 2.4459892 1 3 1 z M 8.0136719 3 C 7.5502653 2.9976 7.0799833 3.0776406 6.625 3.2441406 C 4.8050663 3.9103406 3.7198919 5.8057906 4.0644531 7.7128906 C 4.4090143 9.6200906 6.0873926 11.0127 8.0253906 11 L 8.0136719 9 C 7.034629 9.01 6.2053163 8.3189687 6.03125 7.3554688 C 5.8571837 6.3919686 6.3931012 5.4595469 7.3125 5.1230469 C 8.2318988 4.7864469 9.2433229 5.1539531 9.7324219 6.0019531 C 10.172051 6.7642531 10.060565 7.6935781 9.4882812 8.3300781 L 8.4160156 6.7226562 A 0.50005 0.50005 0 0 0 7.9941406 6.4941406 A 0.50005 0.50005 0 0 0 7.5039062 6.9101562 A 0.50005 0.50005 0 0 0 7.5039062 6.9121094 A 0.50005 0.50005 0 0 0 7.5839844 7.2773438 L 11.583984 13.277344 A 0.50005 0.50005 0 0 0 11.646484 13.355469 A 0.50005 0.50005 0 0 0 11.722656 13.419922 A 0.50005 0.50005 0 0 0 11.765625 13.445312 A 0.50005 0.50005 0 0 0 11.857422 13.484375 A 0.50005 0.50005 0 0 0 12.396484 13.318359 A 0.50005 0.50005 0 0 0 12.396484 13.316406 A 0.50005 0.50005 0 0 0 12.451172 13.234375 A 0.50005 0.50005 0 0 0 12.451172 13.232422 A 0.50005 0.50005 0 0 0 12.470703 13.189453 A 0.50005 0.50005 0 0 0 12.470703 13.1875 A 0.50005 0.50005 0 0 0 12.486328 13.142578 A 0.50005 0.50005 0 0 0 12.486328 13.138672 A 0.50005 0.50005 0 0 0 12.498047 13.09375 A 0.50005 0.50005 0 0 0 12.498047 13.089844 A 0.50005 0.50005 0 0 0 12.503906 13.042969 A 0.50005 0.50005 0 0 0 12.503906 13.041016 A 0.50005 0.50005 0 0 0 12.476562 12.84375 A 0.50005 0.50005 0 0 0 12.460938 12.800781 A 0.50005 0.50005 0 0 0 12.458984 12.796875 A 0.50005 0.50005 0 0 0 12.4375 12.755859 A 0.50005 0.50005 0 0 0 12.435547 12.753906 A 0.50005 0.50005 0 0 0 12.416016 12.722656 L 10.615234 10.019531 C 12.055546 8.7711315 12.420391 6.6589531 11.464844 5.0019531 C 11.283563 4.6875872 11.063002 4.4060659 10.814453 4.1601562 C 10.191879 3.544194 9.3865509 3.153486 8.53125 3.0371094 C 8.3602841 3.0138469 8.1874495 3.0009 8.0136719 3 z M 4 12 C 3.446 12 3 12.446 3 13 C 3 13.554 3.446 14 4 14 C 4.554 14 5 13.554 5 13 C 5 12.446 4.554 12 4 12 z "
         transform="translate(1,1035.3622)"
         id="rect824" />
      <path
         style="opacity:1;vector-effect:none;fill:#27303a;fill-opacity:0.75328082;fill-rule:nonzero;stroke:none;stroke-width:1;stroke-linecap:butt;stroke-linejoin:miter;stroke-miterlimit:4;stroke-dasharray:none;stroke-dashoffset:0;stroke-opacity:1;marker:none;paint-order:normal"
         d="M 3 1 C 2.4459892 1 2 1.446 2 2 L 2 14 C 2 14.554 2.4459892 15 3 15 L 13 15 C 13.554011 15 14 14.554 14 14 L 14 2 C 14 1.446 13.554011 1 13 1 L 3 1 z M 8.0136719 3 C 9.403893 3.01 10.738721 3.7427531 11.464844 5.0019531 C 12.420391 6.6589531 12.055546 8.7711313 10.615234 10.019531 L 12.416016 12.722656 A 0.50005 0.50005 0 1 1 11.583984 13.277344 L 7.5839844 7.2773438 A 0.50005 0.50005 0 0 1 7.9941406 6.4941406 A 0.50005 0.50005 0 0 1 8.4160156 6.7226562 L 9.4882812 8.3300781 C 10.060565 7.6935781 10.172051 6.7642531 9.7324219 6.0019531 C 9.2433229 5.1540531 8.2318988 4.7864469 7.3125 5.1230469 C 6.3931012 5.4595469 5.8571837 6.3919687 6.03125 7.3554688 C 6.2053163 8.3189688 7.034629 9.01 8.0136719 9 L 8.0253906 11 C 6.0873926 11.013 4.4090143 9.6200906 4.0644531 7.7128906 C 3.7198919 5.8057906 4.8050663 3.9103406 6.625 3.2441406 C 7.0799833 3.0776406 7.5502653 2.9976 8.0136719 3 z M 4 12 C 4.554 12 5 12.446 5 13 C 5 13.554 4.554 14 4 14 C 3.446 14 3 13.554 3 13 C 3 12.446 3.446 12 4 12 z "
         transform="translate(1,1035.3622)"
         id="path894" />
    </g>
  </g>
</svg>
