<?xml version="1.0" encoding="UTF-8"?>
<!-- Created with Inkscape (http://www.inkscape.org/) -->
<svg width="16" height="16" version="1.1" xmlns="http://www.w3.org/2000/svg" xmlns:cc="http://creativecommons.org/ns#" xmlns:dc="http://purl.org/dc/elements/1.1/" xmlns:rdf="http://www.w3.org/1999/02/22-rdf-syntax-ns#" xmlns:xlink="http://www.w3.org/1999/xlink">
	<defs>
		<radialGradient id="a" cx="23.728" cy="5.2045" r="8" gradientTransform="matrix(-1.8841 0 0 -1.8841 52.695 12.163)" gradientUnits="userSpaceOnUse">
			<stop stop-color="#ffffff" stop-opacity=".74858" offset="0"/>
			<stop stop-color="#ffffff" stop-opacity=".60511" offset="1"/>
		</radialGradient>
		<radialGradient id="b" cx="346.32" cy="-100.95" r="7.254" gradientTransform="matrix(2.3133 0 0 2.2386 -793.04 234.03)" gradientUnits="userSpaceOnUse">
			<stop stop-color="#213851" stop-opacity=".9059" offset="0"/>
			<stop stop-color="#27303a" stop-opacity="0" offset="1"/>
		</radialGradient>
	</defs>
	<metadata>
		<rdf:RDF>
			<cc:Work rdf:about="">
				<dc:format>image/svg+xml</dc:format>
				<dc:type rdf:resource="http://purl.org/dc/dcmitype/StillImage"/>
				<dc:title/>
			</cc:Work>
		</rdf:RDF>
	</metadata>
	<path d="m8 1c-3.8541 0-7 3.1459-7 7 0 3.8541 3.1459 7 7 7 3.8541 0 7-3.1459 7-7 0-3.8541-3.1459-7-7-7zm-1 2.1074v3.8926h-3.9004c0.39461-1.9657 1.9356-3.4963 3.9004-3.8926zm2 0c1.9648 0.39625 3.5058 1.9269 3.9004 3.8926h-3.9004v-3.8926zm-5.9004 5.8926h3.9004v3.8926c-1.9648-0.39625-3.5058-1.9269-3.9004-3.8926zm5.9004 0h3.9004c-0.39461 1.9657-1.9356 3.4963-3.9004 3.8926v-3.8926z" color="#000000" color-rendering="auto" dominant-baseline="auto" fill="#090d11" fill-opacity=".76621" image-rendering="auto" shape-rendering="auto" solid-color="#000000" style="font-feature-settings:normal;font-variant-alternates:normal;font-variant-caps:normal;font-variant-east_asian:normal;font-variant-ligatures:normal;font-variant-numeric:normal;font-variant-position:normal;isolation:auto;mix-blend-mode:normal;paint-order:normal;shape-padding:0;text-decoration-color:#000000;text-decoration-line:none;text-decoration-style:solid;text-indent:0;text-orientation:mixed;text-transform:none;white-space:normal"/>
	<path d="m8 1c-3.8541 0-7 3.1459-7 7 0 3.8541 3.1459 7 7 7 3.8541 0 7-3.1459 7-7 0-3.8541-3.1459-7-7-7zm-1 2.1074v3.8926h-3.9004c0.39461-1.9657 1.9356-3.4963 3.9004-3.8926zm2 0c1.9648 0.39625 3.5058 1.9269 3.9004 3.8926h-3.9004zm-5.9004 5.8926h3.9004v3.8926c-1.9648-0.39625-3.5058-1.9269-3.9004-3.8926zm5.9004 0h3.9004c-0.39461 1.9657-1.9356 3.4963-3.9004 3.8926z" color="#000000" color-rendering="auto" dominant-baseline="auto" fill="url(#b)" fill-opacity=".7533" image-rendering="auto" shape-rendering="auto" solid-color="#000000" style="font-feature-settings:normal;font-variant-alternates:normal;font-variant-caps:normal;font-variant-ligatures:normal;font-variant-numeric:normal;font-variant-position:normal;isolation:auto;mix-blend-mode:normal;paint-order:normal;shape-padding:0;text-decoration-color:#000000;text-decoration-line:none;text-decoration-style:solid;text-indent:0;text-orientation:mixed;text-transform:none;white-space:normal"/>
	<path d="m8 1.5c-3.5839 0-6.5 2.9161-6.5 6.5 0 3.5839 2.9161 6.5 6.5 6.5 3.5839 0 6.5-2.9161 6.5-6.5 0-3.5839-2.9161-6.5-6.5-6.5zm-0.5 1.0254v4.9746h-4.9746c0.23748-2.6422 2.3324-4.7371 4.9746-4.9746zm1 0c2.6422 0.23748 4.7371 2.3324 4.9746 4.9746h-4.9746v-4.9746zm-5.9746 5.9746h4.9746v4.9746c-2.6422-0.23748-4.7371-2.3324-4.9746-4.9746zm5.9746 0h4.9746c-0.23748 2.6422-2.3324 4.7371-4.9746 4.9746v-4.9746z" color="#000000" color-rendering="auto" dominant-baseline="auto" fill="url(#a)" fill-opacity=".99858" image-rendering="auto" shape-rendering="auto" solid-color="#000000" style="font-feature-settings:normal;font-variant-alternates:normal;font-variant-caps:normal;font-variant-east_asian:normal;font-variant-ligatures:normal;font-variant-numeric:normal;font-variant-position:normal;isolation:auto;mix-blend-mode:normal;paint-order:normal;shape-padding:0;text-decoration-color:#000000;text-decoration-line:none;text-decoration-style:solid;text-indent:0;text-orientation:mixed;text-transform:none;white-space:normal"/>
</svg>
