<?xml version="1.0" encoding="UTF-8"?>
<svg id="i" width="16" height="16" version="1.1" xmlns="http://www.w3.org/2000/svg" xmlns:cc="http://creativecommons.org/ns#" xmlns:dc="http://purl.org/dc/elements/1.1/" xmlns:rdf="http://www.w3.org/1999/02/22-rdf-syntax-ns#">
	<metadata id="a">
		<rdf:RDF>
			<cc:Work rdf:about="">
				<dc:format>image/svg+xml</dc:format>
				<dc:type rdf:resource="http://purl.org/dc/dcmitype/StillImage"/>
			</cc:Work>
		</rdf:RDF>
	</metadata>
	<defs>
		<style id="current-color-scheme" type="text/css">.ColorScheme-Text {color:#090d11;}.ColorScheme-Background{color:#ffffff;}</style>
	</defs>
	<path id="b" class="ColorScheme-Text" d="m1.5 1c-0.27613 2.76e-5 -0.49997 0.22387-0.5 0.5v13c2.76e-5 0.27613 0.22387 0.49997 0.5 0.5h12c0.27613-2.8e-5 0.49997-0.22387 0.5-0.5v-11.5h-11c-0.27614 0-0.5-0.22386-0.5-0.5s0.22386-0.5 0.5-0.5h11v-0.5c-2.8e-5 -0.27613-0.22387-0.49997-0.5-0.5zm3.5 4h5c0.554 0 1 0.446 1 1v4c0 0.554-0.446 1-1 1h-3c-0.554 0-1-0.446-1-1v-2c0-0.554 0.446-1 1-1h1c0.554 0 1 0.446 1 1v2h1v-4h-5v6h2.5c0.27614 0 0.5 0.22386 0.5 0.5s-0.22386 0.5-0.5 0.5h-2.5c-0.554 0-1-0.446-1-1v-6c0-0.554 0.446-1 1-1zm2 3v2h1v-2z" style="fill-opacity:.75;fill:currentColor"/>
</svg>
