<?xml version="1.0" encoding="UTF-8"?>
<svg id="d" width="16" height="16" version="1.1" xmlns="http://www.w3.org/2000/svg" xmlns:cc="http://creativecommons.org/ns#" xmlns:dc="http://purl.org/dc/elements/1.1/" xmlns:rdf="http://www.w3.org/1999/02/22-rdf-syntax-ns#">
	<metadata id="a">
		<rdf:RDF>
			<cc:Work rdf:about="">
				<dc:format>image/svg+xml</dc:format>
				<dc:type rdf:resource="http://purl.org/dc/dcmitype/StillImage"/>
				<dc:title/>
			</cc:Work>
		</rdf:RDF>
	</metadata>
	<defs>
		<style id="current-color-scheme" type="text/css">.ColorScheme-Text {color:#090d11;}.ColorScheme-Background{color:#ffffff;}</style>
	</defs>
	<path id="c" d="m8 1c-3.866 0-7 3.134-7 7 0 3.866 3.134 7 7 7s7-3.134 7-7c0-3.866-3.134-7-7-7zm-4.0195 2.9805 1.8593 1.8594c-0.6208 0.48953-1.0926 1.303-1.1757 2.1602-0.2384 1.6544 1.3631 3.7121 3.3359 3.8555 1.9728 0.20666 4.1799-1.5753 4.354-3.8555 0.1742 2.2801-1.7445 4.6879-4.354 4.8945-2.6095 0.14335-5.1757-1.9667-5.4141-4.8945-0.083-1.4336 0.3956-2.8892 1.3946-4.0195zm4.0195 3.0195c0.5523 0 1 0.4477 1 1s-0.4477 1-1 1-1-0.4477-1-1 0.4477-1 1-1z" style="fill-opacity:.75;fill:currentColor" class="ColorScheme-Text"/>
	<path id="e" d="m8 4.8267e-7c-4.4064 0-8 3.5936-8 8 0 4.4064 3.5936 8 8 8 4.4065 0 8-3.5936 8-8 0-4.4064-3.5935-8-8-8zm0 1c3.866 0 7 3.134 7 7 0 3.866-3.134 7-7 7s-7-3.134-7-7c0-3.866 3.134-7 7-7zm-4.0195 2.9805c-0.999 1.1303-1.4775 2.586-1.3945 4.0195 0.2384 2.9278 2.8046 5.0379 5.4141 4.8945 2.6095-0.20667 4.5277-2.6144 4.3535-4.8945-0.1741 2.2801-2.3807 4.0621-4.3535 3.8555-1.9728-0.14335-3.5743-2.201-3.3359-3.8555 0.0831-0.8572 0.55498-1.6706 1.1758-2.1602zm4.0195 3.0195c-0.5523 0-1 0.4477-1 1s0.4477 1 1 1 1-0.4477 1-1-0.4477-1-1-1zm-0.085937 5.8496c0 3.7e-4 0.00967 0.0039 0.013672 0.0039l-0.03125-2e-3c0.01 6.31e-4 0.011578-3e-3 0.017578-2e-3z" style="fill-opacity:.5;fill:currentColor"  class="ColorScheme-Background"/>
</svg>
