<?xml version="1.0" encoding="UTF-8"?>
<svg width="16" height="16" version="1.1" xmlns="http://www.w3.org/2000/svg" xmlns:cc="http://creativecommons.org/ns#" xmlns:dc="http://purl.org/dc/elements/1.1/" xmlns:rdf="http://www.w3.org/1999/02/22-rdf-syntax-ns#">
	<defs>
		<style id="current-color-scheme" type="text/css">.ColorScheme-Text {color:#090d11;}.ColorScheme-Background{color:#ffffff;}</style>
	</defs>
	<metadata>
		<rdf:RDF>
			<cc:Work rdf:about="">
				<dc:format>image/svg+xml</dc:format>
				<dc:type rdf:resource="http://purl.org/dc/dcmitype/StillImage"/>
			</cc:Work>
		</rdf:RDF>
	</metadata>
	<path class="ColorScheme-Text" d="m5.8906 0.87305-0.60156 0.68555c-0.2025 0.23132-0.37005 0.42169-0.5 0.55859-0.044568 0.046953-0.074222 0.075088-0.10547 0.10547-6.321e-4 6.698e-4 -0.00128 0.00132-0.00195 0.00195-1.08e-4 1.33e-4 -0.050619 0.05259-0.050781 0.052734-1.615e-4 1.435e-4 -0.012631 0.011566-0.025391 0.021484-0.01276 0.00992-0.024697 0.019656-0.037109 0.027344-0.016666 0.01032-0.031522 0.016685-0.037109 0.019531-0.015374 0.00782-0.02418 0.01295-0.035156 0.017578-0.00318 9.898e-4 -0.00645 0.00164-0.00977 0.00195-0.042163 0.0063-0.051462 0.00912-0.097656 0.00781s-0.13446-0.00635-0.35352-0.013672c-0.00195 1.2e-4 -0.00391 1.2e-4 -0.00586 0-0.48698-0.081884-0.81486-0.045954-1.0156 0.078125-0.0094 0.00581-0.014266 0.00889-0.015625 0.00977-0.00185 0.00216-0.00975 0.00998-0.033203 0.03125-0.029481 0.026731-0.06802 0.063265-0.11523 0.10938-0.092209 0.090051-0.20783 0.20763-0.32422 0.33008l-0.35742 0.37696 0.10352 0.25391c0.033468 0.082924 0.063665 0.16448 0.089844 0.24219 0.0029 0.00229 0.00552 0.00491 0.00781 0.00781l0.046874 0.125 0.00195 0.00781c1e-5 4.4e-5 0.00585 0.04679 0.00586 0.046875 1.33e-5 6.51e-4 1.33e-5 0.0013 0 0.00195 1e-5 1.709e-4 0.00144 0.0087 0.00195 0.021484 7.33e-5 3.481e-4 0.00154 0.00187 0.00195 0.00391 4.094e-4 0.00203-1.08e-5 0.011056 0 0.011719 1.995e-4 0.012365-2.783e-4 0.019259 0 0.037109 1.417e-4 0.00913-3.55e-5 0.00879 0 0.00977 1.4e-6 4.25e-5 1.369e-4 0.00223 0 0.00391v0.00195c-2.324e-4 0.00281 6e-6 0.00583 0 0.00586v0.00391c-5.523e-4 0.011745-0.00542 0.022873-0.013672 0.03125-0.11941 0.43475-0.26681 0.86206-0.41016 1.2871l0.19141 0.72852c0.11174 0.42487 0.47182 1.8044 0.80273 3.0684 0.16546 0.632 0.3249 1.2346 0.44922 1.6953 0.12469 0.46215 0.2098 0.76782 0.23438 0.83984 0.18274 0.53557 0.39212 0.83948 0.7832 1.1426 0.38095 0.29517 2.9377 2.0425 3.3633 2.2988 0.083681 0.05038 0.13142 0.06771 0.17383 0.07227 0.017 0.0018 0.088416-0.01145 0.12305-0.0293 0.022653-0.01167 0.05259-0.03331 0.13477-0.08594 0.075697-0.04849 0.17245-0.10788 0.28711-0.18359 0.23196-0.15318 0.53467-0.35557 0.86133-0.57617 0.6536-0.44136 1.4028-0.95466 1.8691-1.2832 0.61453-0.43293 0.85891-0.74613 1.0645-1.3496 0.02433-0.07139 0.10776-0.38051 0.23242-0.84375 0.12426-0.46173 0.28382-1.0654 0.44922-1.6973 0.33087-1.264 0.69261-2.6423 0.80469-3.0664 0.0025-0.00827 0.0073-0.015693 0.01367-0.021484l-0.0078 0.00586 0.1875-0.71094c-0.14446-0.39287-0.27713-0.81675-0.38672-1.1621l-2e-3 -0.00586c-0.0013-0.00324-0.0039-0.00781-0.0039-0.00781-1.3e-5 -6.51e-4 -1.3e-5 -0.0013 0-0.00195l-0.0098-0.03125-2e-3 -0.00586c-0.0024-0.00912-0.01489-0.058789-0.01563-0.064453-0.0061-0.051103-0.0015-0.10261 0.0098-0.15234v-0.0039c-1.3e-5 -6.51e-4 -1.3e-5 -0.0013 0-0.00195-1e-6 -1.667e-4 -1.9e-5 -0.00767 0-0.00781 9e-6 -7.08e-5 -7.07e-4 -0.00308 0-0.00586l2e-3 -0.00391v-0.00195c6.1e-4 -0.00162 0.0014-0.00268 2e-3 -0.00391 1e-5 -3.88e-5 3.02e-4 0.00409 0 0.00586 1.8e-5 -0.011488 0.0042-0.022583 0.01172-0.03125h-2e-3c5.91e-4 -0.00133 0.0012-0.00263 2e-3 -0.00391 7e-3 -0.02417 0.01227-0.048369 0.02149-0.076172 0.02672-0.081132 0.06077-0.18125 0.10352-0.28516-1.3e-5 -6.51e-4 -1.3e-5 -0.0013 0-0.00195l0.10546-0.25392-0.35742-0.37109-2e-3 -0.00195c-0.0056-0.00609-0.0099-0.012091-0.0059-0.00781-1.3e-5 -6.51e-4 -1.3e-5 -0.0013 0-0.00195-0.08819-0.097471-0.2092-0.21268-0.32031-0.32617-0.04314-0.042058-0.08127-0.076605-0.11523-0.10742-0.02264-0.020534-0.02845-0.027319-0.0332-0.033203-1.2e-5 -6.5e-6 -0.0047-0.00227-0.01367-0.00781-0.19954-0.12338-0.52964-0.15985-1.0156-0.078125-6.51e-4 1.33e-5 -0.0013 1.33e-5 -2e-3 0l-0.23828 0.025391-0.01367 0.00195c-0.06993 0.00828-0.14239 0.00232-0.21094-0.023438-0.0084-0.00352-0.02037-0.00907-0.03711-0.017578-0.0084-0.00428-0.02025-0.010305-0.03516-0.019531-0.01156-0.00716-0.02392-0.017478-0.03711-0.027344-0.01319-0.00987-0.02718-0.02134-0.02734-0.021484-0.0018-0.00195-0.0374-0.038717-0.04492-0.046875l-0.0039-0.00391-4e-3 -0.0039v-0.00195c-5.8e-5 -6.62e-5 -0.0058-0.00583-0.0059-0.00586-0.02905-0.028197-0.05794-0.053774-0.09961-0.097656-0.12851-0.13538-0.29722-0.32496-0.5-0.55664-0.02732-0.031353-0.04681-0.068436-0.06445-0.10547-0.01255 0.00153-0.02519-0.00198-0.03516-0.00977l-0.5017-0.57228h-2.1211zm2.1191 2.1523h0.00391c0.00272-1.49e-5 0.20284-5.384e-4 0.55469 0.11719 0.19148 0.064062 0.39766 0.13726 0.58594 0.19727 0.18827 0.060007 0.34216 0.11328 0.52539 0.11328 0.1212 0 0.22107-0.02032 0.38867-0.046875s0.36908-0.062793 0.56445-0.097656c0.29589-0.052799 0.45311-0.082982 0.57227-0.10547 0.08907 0.10894 0.37291 0.45235 0.74414 0.95117 0.21276 0.28589 0.42429 0.58543 0.57812 0.83203 0.07692 0.1233 0.13878 0.23376 0.17773 0.31641 0.03895 0.082645 0.04492 0.14992 0.04492 0.10742 0 0.17399-0.02843 0.23124-0.07813 0.30078-0.04968 0.069541-0.14719 0.15253-0.27344 0.28711-0.21697 0.23136-1.1708 1.2447-1.2949 1.377-0.042074 0.044855-0.1685 0.14806-0.26172 0.32031s-0.13003 0.4382-0.023438 0.69141c0.15521 0.36874 0.30731 0.68507 0.13672 1.0039-0.10211 0.1908-0.24398 0.35162-0.37305 0.44922-0.12907 0.097595-0.24046 0.11055-0.23633 0.11133-0.058232-0.010948-0.29252-0.099528-0.50391-0.20312-0.21139-0.1036-0.42571-0.22471-0.52148-0.28711-0.083408-0.054344-0.33112-0.24779-0.53125-0.43555-0.10007-0.093879-0.19259-0.18897-0.25-0.26172-0.00849-0.010755-0.013542-0.021049-0.019531-0.03125l-0.00195 0.00195c-0.051865 0.051906-0.03125 0.094447-0.03125-0.013672 0-0.087692-0.00132-0.047084 0.033203 0.011719 0.052107-0.051739 0.14106-0.12062 0.23633-0.1875 0.19251-0.13515 0.39009-0.24593 0.5-0.32031 0.043528-0.029438 0.25637-0.15737 0.44726-0.28711 0.095444-0.06487 0.18798-0.13151 0.26953-0.20312 0.040774-0.035806 0.077978-0.072058 0.11523-0.11914 0.03726-0.047083 0.08637-0.10254 0.09766-0.22656 7e-3 -0.077343 0.01022-0.19542-0.02539-0.31055-0.035615-0.11512-0.090485-0.22319-0.1875-0.40625-0.10413-0.1965-0.23623-0.40218-0.32812-0.58594s-0.12224-0.34284-0.11719-0.37109c-1.43e-4 7.97e-4 0.052259-0.07855 0.21484-0.16211 0.16258-0.08356 0.38974-0.1602 0.5957-0.23828 0.19566-0.074168 0.48175-0.18256 0.73242-0.27734 0.25067-0.094779 0.42885-0.15963 0.53125-0.20703 0.04528-0.020962 0.10125-0.024595 0.17774-0.14844 0.03824-0.061921 0.06452-0.18722 0.0293-0.2832-0.03522-0.095979-0.0943-0.13997-0.13477-0.16602-0.16187-0.10417-0.23134-0.082686-0.38868-0.097656-0.13232-0.012589-0.41633-0.047939-0.71289-0.066406-0.29656-0.018468-0.59648-0.031678-0.86328 0.042969-0.1786 0.049974-0.42946 0.11503-0.64648 0.17969-0.10851 0.032326-0.20865 0.064073-0.29492 0.097656-0.043136 0.016792-0.081346 0.033892-0.12305 0.056641-0.041701 0.022749-0.091563 0.0307-0.16016 0.14258-0.00535 0.00873-0.067076 0.07672-0.095703 0.19922s-0.015185 0.22865 0.013672 0.38672c0.02725 0.14936 0.10665 0.56085 0.18359 0.96875 0.076946 0.4079 0.15256 0.83913 0.16016 0.91016 0.00999 0.093261 0.012774 0.11061 0.015625 0.13867-0.12791 0.02949-0.28325 0.06729-0.42773 0.097656-0.15634 0.032858-0.31819 0.052734-0.32227 0.052734-0.00407 0-0.16592-0.019877-0.32227-0.052734-0.14386-0.030233-0.29817-0.068226-0.42578-0.097656 0.00299-0.028961 0.00567-0.045738 0.015625-0.13867 0.00771-0.07198 0.083707-0.50422 0.16016-0.91211 0.076449-0.40789 0.15451-0.81815 0.18164-0.9668 0.028834-0.15806 0.04228-0.26424 0.013672-0.38672s-0.09033-0.19045-0.095703-0.19922c-0.06859-0.11194-0.11845-0.11983-0.16016-0.14258-0.041704-0.022753-0.079911-0.039848-0.12305-0.056641-0.086271-0.033585-0.18641-0.06533-0.29492-0.097656-0.21703-0.064653-0.46787-0.12971-0.64648-0.17969-0.26679-0.074643-0.56672-0.061435-0.86328-0.042969s-0.58056 0.053812-0.71289 0.066406c-0.15732 0.014971-0.22684-0.0064903-0.38867 0.097656-0.040459 0.026037-0.099533 0.070073-0.13477 0.16602-0.035232 0.095943-0.00894 0.22126 0.029297 0.2832 0.076464 0.12389 0.13245 0.12747 0.17773 0.14844 0.10232 0.04735 0.28058 0.11225 0.53125 0.20703 0.25067 0.094777 0.53677 0.20317 0.73242 0.27734 0.20594 0.078084 0.43311 0.15472 0.5957 0.23828s0.21499 0.16292 0.21484 0.16211c0.00506 0.02827-0.02529 0.18734-0.11719 0.37109-0.091897 0.18375-0.22401 0.38942-0.32812 0.58594-0.097012 0.18306-0.15188 0.29112-0.1875 0.40625-0.035621 0.11512-0.032423 0.23318-0.025391 0.31055 0.011246 0.12407 0.060398 0.17947 0.097656 0.22656 0.037259 0.047094 0.074459 0.083332 0.11523 0.11914 0.081551 0.071618 0.17408 0.13825 0.26953 0.20312 0.1909 0.12974 0.40376 0.25768 0.44727 0.28711 0.10986 0.074323 0.30749 0.18517 0.5 0.32031 0.095266 0.06688 0.18422 0.13576 0.23633 0.1875 0.034459-0.058721 0.033203-0.099079 0.033203-0.011719 0 0.1081 0.020613 0.065579-0.03125 0.013672l-0.00195-0.00195c-0.00598 0.010187-0.011067 0.020497-0.019531 0.03125-0.057258 0.072728-0.14823 0.16981-0.24805 0.26367-0.19964 0.18772-0.44817 0.37946-0.53125 0.43359-0.095446 0.062193-0.3096 0.1835-0.52148 0.28711s-0.44749 0.19215-0.50586 0.20312c0.0041457-7.794e-4 -0.10726-0.013732-0.23633-0.11133-0.12907-0.097597-0.27094-0.25841-0.37305-0.44922-0.08514-0.15913-0.088568-0.29837-0.054688-0.4668 0.033881-0.16843 0.11558-0.3523 0.19336-0.53711 0.10677-0.25364 0.068484-0.51933-0.025391-0.69141-0.093875-0.17207-0.22016-0.27601-0.26172-0.32031-0.12339-0.13161-1.0753-1.1449-1.293-1.377-0.12624-0.13456-0.22376-0.21757-0.27344-0.28711s-0.078125-0.12677-0.078125-0.30078c0 0.042512 0.00597-0.024779 0.044922-0.10742 0.038951-0.082643 0.10082-0.19311 0.17773-0.31641 0.15383-0.2466 0.36537-0.54614 0.57812-0.83203 0.37123-0.49883 0.65507-0.84223 0.74414-0.95117 0.11916 0.022518 0.27503 0.052711 0.57031 0.10547 0.19514 0.034864 0.39703 0.0711 0.56445 0.097656s0.26747 0.046875 0.38867 0.046875c0.18323 0 0.33711-0.053274 0.52539-0.11328 0.18828-0.060007 0.39447-0.1332 0.58594-0.19727 0.35184-0.11772 0.55197-0.1172 0.55469-0.11719zm-5.7129 0.75391s-0.00317 0.0019-0.00586 0.00391c0.00318-9.898e-4 0.00645-0.00164 0.00977-0.00195zm5.6758 6.4824c0.00398-4.4e-4 0.015625 0 0.039063 0 0.063496 0 0.038865 0.0031 0 0.0098 0.019097 0.0032 0.036945 5e-3 0.058594 0.01172 0.064945 0.02016 0.15444 0.05121 0.25586 0.08984 0.20283 0.07726 0.4541 0.18478 0.66992 0.29688 0.34158 0.17745 0.50097 0.2621 0.65039 0.3418-0.332 0.24796-1.1968 0.91499-1.3965 1.0918-0.070273 0.06221-0.1445 0.131-0.20508 0.17773-0.011448 0.0088-0.022811 0.01394-0.033203 0.01953 0.044792 0.02474 0.071177 0.02344 0 0.02344-0.070479 0-0.044599 5.58e-4 0-0.02344-0.00989-0.0055-0.020378-0.01109-0.03125-0.01953-0.060106-0.04665-0.13428-0.11504-0.20508-0.17773-0.20027-0.17721-1.0645-0.84398-1.3965-1.0918 0.14939-0.07969 0.30879-0.16434 0.65039-0.3418 0.2159-0.11217 0.46755-0.21962 0.66992-0.29688 0.10118-0.03863 0.19111-0.0697 0.25586-0.08984 0.020891-0.0065 0.038128-0.0085 0.056641-0.01172-0.023871-4e-3 -0.045687-9e-3 -0.039063-0.0098z" fill="currentColor" fill-opacity=".75"/>
	<path d="m14.153 3.9998c-0.0019 0.010205-0.0053 0.019113-0.0057 0.022942-0.0012 0.012515-0.0014 0.01751-0.0014 0.01864-2.9e-5 5.652e-4 1e-3 8.442e-4 0.0014-0.0043 2.11e-4 -0.00316 0.0031-0.020393 0.0057-0.037279z" fill="#f00" fill-opacity=".5" stroke-width=".73412"/>
	<path class="ColorScheme-Background" d="m10.207 0.019531-2.1953 0.0019531h-2.1953c-0.19829-2.6318e-4 -0.38638 0.085628-0.51758 0.23438h-0.0019531l-0.64844 0.74219c-0.19571 0.22358-0.35588 0.40414-0.46875 0.52344-0.00441-7.06e-4 -0.0051-0.00117-0.00977-0.00195-0.58131-0.097769-1.1378-0.097655-1.6055 0.1914-0.085304 0.052723-0.14834 0.11342-0.17188 0.13477-0.043873 0.039785-0.090382 0.083752-0.14062 0.13281-0.10284 0.10044-0.22504 0.22451-0.34766 0.35352l-0.42773 0.45117c-0.18613 0.19577-0.2382 0.48403-0.13672 0.73438l0.14062 0.35156c0.028983 0.071814 0.055287 0.14114 0.074219 0.19727-0.00446 0.015666-0.00848 0.021517-0.013672 0.039063-0.10954 0.35796-0.22498 0.67779-0.35938 1.0625-0.0451 0.12997-0.048942 0.27133-0.013672 0.4043h-0.00195l0.20117 0.76953c0.11114 0.42256 0.47376 1.8043 0.80469 3.0684 0.16576 0.63314 0.32584 1.2386 0.45117 1.7031 0.12495 0.46312 0.19878 0.73868 0.25195 0.89453 0.22082 0.64727 0.55763 1.1448 1.0664 1.5391 0.52072 0.40358 2.8763 2.0129 3.4453 2.3555 0.13812 0.08317 0.31402 0.16893 0.52539 0.19141 0.22724 0.02416 0.42925-0.03032 0.60156-0.11914 0.079703-0.04108 0.13109-0.07886 0.20312-0.125 0.078081-0.05001 0.18012-0.11496 0.29883-0.19336 0.23553-0.15554 0.53859-0.36009 0.86719-0.58203 0.65715-0.4438 1.4067-0.9556 1.8828-1.291 0.70312-0.49541 1.1306-1.0287 1.3828-1.7695 0.05358-0.15736 0.1252-0.4347 0.25-0.89844 0.12517-0.46511 0.28743-1.0701 0.45312-1.7031 0.33072-1.2635 0.69323-2.6467 0.80469-3.0684l-2e-3 0.00195 0.20508-0.76953c0.03529-0.133 0.02947-0.27434-0.01563-0.4043-1e-3 -0.00316-9.06e-4 -0.00663-2e-3 -0.00977-0.13078-0.35011-0.25587-0.75238-0.36709-1.1035 0.01975-0.057532 0.04265-0.12097 0.06836-0.18359v-0.00195l0.14453-0.34961v-0.00195c0.10309-0.25137 0.04704-0.54177-0.14062-0.73828l-0.42188-0.44336-0.0098-0.00781c-0.11821-0.12999-0.24572-0.24942-0.33981-0.34571-0.0021-0.00212-0.0017-0.00574-0.0039-0.00781-0.05345-0.052179-0.10305-0.096951-0.14258-0.13281-0.01887-0.017116-0.08167-0.080227-0.16992-0.13477-0.46691-0.28857-1.0226-0.2891-1.6035-0.19141-0.0047 7.856e-4 -0.0054 0.00125-0.0098 0.00195-0.11332-0.11976-0.27489-0.30005-0.46872-0.52148v-0.001953l-0.64844-0.74023c-0.13084-0.15052-0.32206-0.23803-0.52148-0.23828zm-4.2734 0.94922h4.1563l0.47266 0.53906c0.01937 0.00992 0.04075 0.015263 0.0625 0.015625 0.0179 0.031345 0.01315 0.072116 0.03711 0.099609 0.20324 0.23221 0.3738 0.42154 0.50391 0.55859 0.04344 0.045749 0.07237 0.073227 0.10156 0.10156l4e-3 0.0039c2.24e-4 2.402e-4 0.0033 0.00325 0.0039 0.00391 0.0016 0.00159 9.15e-4 0.00293 2e-3 0.00391 0.0019 0.00183 0.0039 0.00195 0.0039 0.00195 0.01439 0.015403 0.04587 0.0496 0.04883 0.052734l2e-3 0.00195c0.0024 0.00192 0.01839 0.013823 0.03125 0.023437 0.01376 0.010289 0.02394 0.018264 0.04492 0.03125 0.01745 0.010804 0.03168 0.01868 0.04102 0.023437 0.01841 0.00936 0.03267 0.015213 0.04297 0.019531 0.0013 6.71e-4 0.0026 0.00132 0.0039 0.00195 0.08357 0.031404 0.17269 0.039148 0.25586 0.029297 6.51e-4 -4.5e-6 0.0013-4.5e-6 2e-3 0l0.01172-0.00195 0.23633-0.025391c0.0026 7.15e-5 0.0052 7.15e-5 0.0078 0 0.47482-0.079852 0.7835-0.039168 0.95117 0.064453 0.0047 0.00291 0.0036 0.00248 0.0059 0.00391 0.0094 0.010256 0.01106 0.014349 0.02539 0.027344 0.0339 0.030755 0.0715 0.064734 0.11328 0.10547 0.11221 0.11451 0.2327 0.22975 0.31641 0.32227 6.57e-4 6.447e-4 0.0013 0.0013 2e-3 0.00195-0.01099-0.011693 0.0028 0.00391 0.0059 0.00781l0.0059 0.00586 0.31055 0.32422-0.08008 0.19531c4e-6 6.51e-4 4e-6 0.0013 0 0.00195-6.45e-4 6.573e-4 -0.0013 0.00131-2e-3 0.00195-0.04354 0.1061-0.07856 0.2093-0.10547 0.29102-0.0082 0.024894-0.01253 0.044066-0.01758 0.0625-4.81e-4 0.00175-0.0015 0.00415-2e-3 0.00586-6.14e-4 0.00223-0.0013 0.00566-2e-3 0.00781l-2e-3 0.00195v0.00195c4e-6 6.51e-4 4e-6 0.0013 0 0.00195 4.29e-4 0.00459 0.0011 0.00915 2e-3 0.013672-0.0086 0.014463-0.01453 0.030334-0.01758 0.046875v0.00195l-2e-3 0.00195c-0.0017 0.00757 0.0013 0.015798 0 0.023437v0.00195c-0.0088 0.051159-0.01605 0.10361-0.0098 0.15625 6.91e-4 0.0053 0.01448 0.062991 0.01953 0.082031l2e-3 0.00781 2e-3 0.00586 0.0078 0.023437c-1.8e-5 0.0013-1.8e-5 0.0026 0 0.00391 0 0 0.0048 0.00824 0.0078 0.015625l2e-3 0.00586c0.10626 0.33493 0.23491 0.74305 0.375 1.127l-0.17409 0.65824 0.02344-0.025391c-0.01716 0.018039-0.02928 0.040263-0.03516 0.064453-0.11216 0.42448-0.4738 1.8043-0.80469 3.0684-0.16536 0.63177-0.32506 1.2339-0.44922 1.6953-0.12465 0.46316-0.21302 0.78098-0.23242 0.83789 4e-6 6.51e-4 4e-6 0.0013 0 2e-3 -0.20123 0.59084-0.42296 0.87363-1.0293 1.3008-0.46522 0.32779-1.214 0.84212-1.8672 1.2832-0.32629 0.22035-0.62956 0.42116-0.86133 0.57422-0.11385 0.07518-0.20914 0.13685-0.28516 0.18555-0.083353 0.05338-0.11428 0.07355-0.12695 0.08008-0.012948 0.0067-0.089769 0.01747-0.070312 0.01953-0.024876-0.0027-0.056993-0.01178-0.13477-0.05859-0.40673-0.24509-2.991-2.0141-3.3535-2.295-0.37955-0.29417-0.57292-0.57293-0.75195-1.0977-0.020259-0.059381-0.10979-0.37222-0.23438-0.83398-0.12421-0.46036-0.2838-1.0615-0.44922-1.6934-0.3309-1.2639-0.69089-2.6451-0.80273-3.0703l-0.18359-0.69922c0.13815-0.40925 0.27753-0.82177 0.39453-1.2441 0.012657-0.01868 0.020691-0.040103 0.023437-0.0625 4.1e-6 -2e-5 0.00154-0.00675 0.00195-0.011719 6.815e-4 -0.00823 0.00166-0.015877 0.00195-0.019531 5.85e-5 -7.227e-4 5e-7 -0.00389 0-0.00391-3.55e-5 -9.765e-4 1.654e-4 0.00284 0-0.00781-2.478e-4 -0.015896 2.559e-4 -0.021246 0-0.037109-6.9e-6 -4.24e-4 -0.00108-0.00963-0.00195-0.017578-7.151e-4 -0.017843-0.00159-0.012435-0.00195-0.013672-2.585e-4 -8.729e-4 4.4e-6 -0.00969 0-0.00977-4.5e-6 -6.511e-4 -4.5e-6 -0.0013 0-0.00195-4.5e-6 -6.51e-4 -4.5e-6 -0.0013 0-0.00195-4.5e-6 -6.51e-4 -4.5e-6 -0.0013 0-0.00195-7.8e-6 -8.54e-5 -0.00976-0.05855-0.00977-0.058594l-0.00586-0.019531-0.023437-0.0625-0.023438-0.0625c-0.00254-0.00204-0.00514-4e-3 -0.00781-0.00586-0.026679-0.079067-0.05598-0.16219-0.089844-0.24609-6.573e-4 -6.447e-4 -0.00131-0.0013-0.00195-0.00195l-0.080078-0.19532 0.31641-0.33398c0.11531-0.12132 0.23073-0.23678 0.32227-0.32617 0.046724-0.045632 0.085287-0.082038 0.11328-0.10742 0.013507-0.012248 0.011282-0.012881 0.019531-0.021484-7.113e-4 4.602e-4 0.00409-0.00282 0.00586-0.00391 0.0021-0.00223 0.00678-0.00474 0.00781-0.00586 0.16908-0.10449 0.47524-0.14449 0.95117-0.064453 0.00646 0.0011 0.012984 0.00175 0.019531 0.00195 0.21855 0.0073 0.30224 0.012275 0.35156 0.013672 0.049324 0.0014 0.075998-0.0039 0.11523-0.00977 0.011424-0.00189 0.022574-0.00517 0.033203-0.00977 0.018063-0.00762 0.026681-0.012238 0.041016-0.019531 9.069e-4 -4.621e-4 0.020314-0.00941 0.042969-0.023437 0.02349-0.014548 0.03343-0.022752 0.046875-0.033203s0.029135-0.025247 0.029297-0.025391c1.44e-4 -1.28e-4 0.044115-0.045585 0.054687-0.056641 0.00196-0.00191 0.00585-0.00395 0.00781-0.00586 0.00275-0.00314 0.00535-0.0064 0.00781-0.00977 0.027133-0.026308 0.053636-0.051489 0.09375-0.09375 0.13185-0.13887 0.30114-0.32889 0.50391-0.56053zm2.0762 2.0566c-0.0027211-1.49e-5 -0.20285-5.366e-4 -0.55469 0.11719-0.19147 0.064068-0.39766 0.13726-0.58594 0.19727-0.18828 0.060007-0.34216 0.11328-0.52539 0.11328-0.1212 0-0.22125-0.020319-0.38867-0.046875s-0.36932-0.062792-0.56445-0.097656c-0.29528-0.052758-0.45115-0.082951-0.57031-0.10547-0.089066 0.10894-0.37291 0.45234-0.74414 0.95117-0.21276 0.28589-0.42429 0.58543-0.57812 0.83203-0.076916 0.1233-0.13878 0.23376-0.17773 0.31641s-0.044922 0.14993-0.044922 0.10742c0 0.17401 0.028447 0.23125 0.078125 0.30078 0.049678 0.069536 0.14719 0.15255 0.27344 0.28711 0.21769 0.23206 1.1696 1.2453 1.293 1.377 0.041563 0.044298 0.16784 0.14824 0.26172 0.32031 0.093875 0.17207 0.13216 0.43777 0.025391 0.69141-0.07778 0.18481-0.15948 0.36868-0.19336 0.53711-0.033881 0.16843-0.030452 0.30767 0.054688 0.4668 0.10211 0.19081 0.24398 0.35162 0.37305 0.44922 0.12907 0.097596 0.24047 0.11055 0.23633 0.11133 0.058372-0.010974 0.29398-0.099513 0.50586-0.20312 0.21188-0.10361 0.42604-0.22492 0.52148-0.28711 0.083081-0.054135 0.33161-0.24587 0.53125-0.43359 0.099818-0.093862 0.19079-0.19094 0.24805-0.26367 0.00846-0.010753 0.013553-0.021063 0.019531-0.03125-0.052105-0.051739-0.14106-0.12062-0.23633-0.1875-0.19251-0.13515-0.39014-0.24599-0.5-0.32031-0.043506-0.029426-0.25637-0.15737-0.44727-0.28711-0.095449-0.064871-0.18798-0.13151-0.26953-0.20312-0.040776-0.035809-0.077976-0.072047-0.11523-0.11914s-0.08641-0.1025-0.097656-0.22656c-0.007032-0.077367-0.01023-0.19542 0.025391-0.31055 0.035621-0.11512 0.090488-0.22319 0.1875-0.40625 0.10412-0.19652 0.23623-0.40219 0.32812-0.58594 0.091897-0.18375 0.12225-0.34282 0.11719-0.37109 1.446e-4 8.091e-4 -0.052249-0.078547-0.21484-0.16211s-0.38976-0.1602-0.5957-0.23828c-0.19565-0.07417-0.48175-0.18257-0.73242-0.27734s-0.42893-0.15968-0.53125-0.20703c-0.04528-0.020967-0.10127-0.024552-0.17773-0.14844-0.038232-0.061943-0.064529-0.18726-0.029297-0.2832 0.035232-0.095943 0.094307-0.13998 0.13477-0.16602 0.16184-0.10415 0.23135-0.082685 0.38867-0.097656 0.13233-0.012594 0.41633-0.04794 0.71289-0.066406s0.59649-0.031675 0.86328 0.042969c0.17862 0.049975 0.42945 0.11503 0.64648 0.17969 0.10852 0.032327 0.20865 0.064071 0.29492 0.097656 0.043136 0.016792 0.081343 0.033888 0.12305 0.056641 0.041704 0.022753 0.091566 0.03064 0.16016 0.14258 0.00537 0.00877 0.067095 0.07674 0.095703 0.19922s0.015162 0.22866-0.013672 0.38672c-0.027132 0.14865-0.10519 0.5589-0.18164 0.9668-0.076449 0.40789-0.15245 0.84013-0.16016 0.91211-0.00995 0.092934-0.012633 0.10971-0.015625 0.13867 0.12761 0.02943 0.28192 0.067423 0.42578 0.097656 0.15634 0.032857 0.31819 0.052734 0.32227 0.052734s0.16592-0.019876 0.32227-0.052734c0.14448-0.030365 0.29982-0.068166 0.42773-0.097656-0.002851-0.028061-0.0056372-0.045411-0.015625-0.13867-0.0075945-0.071031-0.08321-0.50225-0.16016-0.91016-0.076946-0.4079-0.15634-0.81939-0.18359-0.96875-0.028857-0.15807-0.042299-0.26422-0.013672-0.38672s0.090354-0.19049 0.095703-0.19922c0.068593-0.11188 0.11846-0.11983 0.16016-0.14258 0.041701-0.022749 0.079911-0.039849 0.12305-0.056641 0.086271-0.033584 0.18641-0.06533 0.29492-0.097656 0.21703-0.064653 0.46788-0.12971 0.64648-0.17969 0.2668-0.074647 0.56672-0.061436 0.86328-0.042969s0.58057 0.053818 0.71289 0.066406c0.15734 0.01497 0.22681-0.00651 0.38867 0.097656 0.04047 0.026041 0.09954 0.070037 0.13477 0.16602 0.03522 0.095979 0.0089 0.22128-0.0293 0.2832-0.07648 0.12384-0.13245 0.12748-0.17774 0.14844-0.1024 0.047403-0.28058 0.11225-0.53125 0.20703-0.25067 0.094779-0.53676 0.20318-0.73242 0.27734-0.20596 0.078079-0.43312 0.15472-0.5957 0.23828-0.16258 0.083559-0.21499 0.16291-0.21484 0.16211-0.00505 0.028254 0.025294 0.18734 0.11719 0.37109 0.091893 0.18375 0.224 0.38944 0.32812 0.58594 0.097016 0.18306 0.15188 0.29113 0.1875 0.40625 0.03561 0.11512 0.03241 0.2332 0.02539 0.31055-0.01128 0.12403-0.0604 0.17948-0.09766 0.22656-0.03726 0.047083-0.07446 0.083334-0.11523 0.11914-0.081531 0.071614-0.17408 0.13826-0.26952 0.20313-0.19089 0.12974-0.40373 0.25767-0.44727 0.28711-0.10991 0.074378-0.30749 0.18516-0.5 0.32031-0.095268 0.066881-0.18422 0.13576-0.23633 0.1875 0.00599 0.010201 0.011045 0.020495 0.019531 0.03125 0.057405 0.072748 0.14993 0.16784 0.25 0.26172 0.20013 0.18776 0.44784 0.3812 0.53125 0.43555 0.09577 0.062403 0.3101 0.18351 0.52148 0.28711 0.21139 0.1036 0.44567 0.19218 0.50391 0.20312-0.0041-7.768e-4 0.10726-0.013733 0.23633-0.11133 0.12907-0.097595 0.27094-0.25841 0.37305-0.44922 0.17059-0.31884 0.018493-0.63517-0.13672-1.0039-0.10659-0.2532-0.069779-0.51915 0.023438-0.69141s0.21964-0.27546 0.26172-0.32031c0.12408-0.13224 1.0779-1.1456 1.2949-1.377 0.12624-0.13458 0.22376-0.21757 0.27344-0.28711s0.078125-0.12679 0.078125-0.30078c0 0.042496-6e-3 -0.024777-0.04492-0.10742-0.038955-0.082645-0.10082-0.19311-0.17774-0.31641-0.15383-0.2466-0.36537-0.54614-0.57812-0.83203-0.37123-0.49883-0.65508-0.84223-0.74414-0.95117-0.11915 0.022487-0.27638 0.05267-0.57227 0.10547-0.19538 0.034864-0.39685 0.071102-0.56445 0.097656-0.1676 0.026555-0.26748 0.046875-0.38867 0.046875-0.18323 0-0.33712-0.053274-0.52539-0.11328-0.18827-0.060007-0.39446-0.1332-0.58594-0.19727-0.35185-0.11773-0.55197-0.1172-0.55469-0.11719zm0.50977 5.707c-0.034521-0.058803-0.033203-0.099411-0.033203-0.011719 0 0.10812-0.020615 0.065578 0.03125 0.013672zm-1.0156 0 0.00195 0.00195c0.051863 0.051907 0.03125 0.094424 0.03125-0.013672 0-0.08736 0.00126-0.047002-0.033203 0.011719zm-5.2539-5.0352 0.017578 0.00586c-0.015628 0.00204-0.030808 0.00666-0.044922 0.013672 7.991e-4 -7.718e-4 0.027344-0.019532 0.027344-0.019532zm11.309 0.15039c-0.0041 0.00813-0.0073 0.016635-0.0098 0.025391l-2e-3 -0.00391zm-0.03516 0.072266c-0.0013 0.00506-0.0023 0.00732-0.0039 0.013672v0.00195c-3.15e-4 0.00125 3.07e-4 0.00265 0 0.00391h2e-3c-9e-6 9.65e-5 2e-3 -0.019583 2e-3 -0.019531zm-0.0039 0.021484c-2.33e-4 9.237e-4 -2e-3 0.00389-2e-3 0.00391h2e-3zm-5.5469 6.3203c-0.00663 7.32e-4 0.015191 0.0058 0.039063 0.0098 0.038865-0.0067 0.063496-0.0098 0-0.0098-0.023437 0-0.035087-4.4e-4 -0.039063 0zm0.039063 0.0098c-0.018513 0.0032-0.03575 0.0052-0.056641 0.01172-0.064747 0.02014-0.15468 0.05122-0.25586 0.08984-0.20237 0.07726-0.45402 0.18471-0.66992 0.29688-0.34161 0.17745-0.501 0.26211-0.65039 0.3418 0.33199 0.24782 1.1962 0.91458 1.3965 1.0918 0.070803 0.0627 0.14497 0.13108 0.20508 0.17773 0.010872 0.0084 0.021359 0.01407 0.03125 0.01953 0.010392-0.0056 0.021755-0.0107 0.033203-0.01953 0.060582-0.046794 0.13481-0.11556 0.20508-0.17777 0.19968-0.17677 1.0645-0.8438 1.3965-1.0918-0.14942-0.0797-0.30881-0.16435-0.65039-0.3418-0.21582-0.1121-0.46709-0.21962-0.66992-0.29688-0.10142-0.03863-0.19091-0.069686-0.25586-0.089844-0.021648-0.0067-0.039497-0.0085-0.058594-0.01172zm0 2.0293c-0.044599 0.02399-0.070479 0.02344 0 0.02344 0.071177 0 0.044792 0.0013 0-0.02344z" fill="currentColor" fill-opacity=".5"/>
</svg>
