<?xml version="1.0" encoding="UTF-8"?>
<!-- Created with Inkscape (http://www.inkscape.org/) -->
<svg width="16" height="16" version="1.1" xmlns="http://www.w3.org/2000/svg" xmlns:cc="http://creativecommons.org/ns#" xmlns:dc="http://purl.org/dc/elements/1.1/" xmlns:rdf="http://www.w3.org/1999/02/22-rdf-syntax-ns#">
	<metadata>
		<rdf:RDF>
			<cc:Work rdf:about="">
				<dc:format>image/svg+xml</dc:format>
				<dc:type rdf:resource="http://purl.org/dc/dcmitype/StillImage"/>
			</cc:Work>
		</rdf:RDF>
	</metadata>
	<defs>
		<style id="current-color-scheme" type="text/css">.ColorScheme-Text {
				color:#090d11;
			}
			.ColorScheme-Background{
				color:#ffffff;
			}</style>
	</defs>
	<path class="ColorScheme-Text" d="m7.4375 1-6.2094 12.342 3.3013-2.8215c0.026091-0.01813 0.053703-0.03399 0.082532-0.04742l3.3968-2.8884zm1.1924 0.82987 0.90133 10.409 5.4688 2.2352zm-0.50171 7.1067-2.1654 1.8429 2.4108 0.98506zm-3.1145 2.6491-4.0137 3.4122 12.33 0.0022-4.5327-1.8408c-0.041262-0.01963-0.079924-0.04425-0.11511-0.07329z" style="fill-opacity:.75;fill:currentColor"/>
	<path class="ColorScheme-Background" d="m7.3047 0.0078125c-0.32739 0.044382-0.61174 0.24759-0.75977 0.54297l-6.2109 12.342c-0.16892 0.39566-0.065882 0.85502 0.25586 1.1406l-0.23828 0.20312c-0.70852 0.60299-0.28193 1.762 0.64844 1.7617l12.33 0.001953c0.42473-0.04518 0.7739-0.35511 0.86914-0.77148l0.42188 0.17188c0.85691 0.35101 1.6895-0.55066 1.2715-1.377l-6.3691-12.643c-0.21818-0.39225-0.67097-0.59109-1.1074-0.48633-0.044259-0.43284-0.36328-0.7874-0.78906-0.87695-0.10619-0.020663-0.21502-0.023961-0.32227-0.0097656zm0.13281 0.99219 0.57031 6.5859-3.3965 2.8867c-0.028829 0.01343-0.05594 0.0307-0.082031 0.04883l-3.3008 2.8203zm1.1914 0.83008 6.3711 12.645-5.4688-2.2363zm-0.5 7.1074 0.24414 2.8262-2.4102-0.98438zm-3.1152 2.6484 3.668 1.5c0.035186 0.02904 0.073972 0.05459 0.11523 0.07422l4.5332 1.8398-12.33-0.001953z" style="fill-opacity:.5;fill:currentColor"/>
</svg>
