<?xml version="1.0" encoding="UTF-8"?>
<!-- Created with Inkscape (http://www.inkscape.org/) -->
<svg width="16" height="16" version="1.1" xmlns="http://www.w3.org/2000/svg" xmlns:cc="http://creativecommons.org/ns#" xmlns:dc="http://purl.org/dc/elements/1.1/" xmlns:rdf="http://www.w3.org/1999/02/22-rdf-syntax-ns#">
	<defs>
		<style id="current-color-scheme" type="text/css">.ColorScheme-Text {color:#090d11;}.ColorScheme-Background{color:#ffffff;}</style>
	</defs>
	<metadata>
		<rdf:RDF>
			<cc:Work rdf:about="">
				<dc:format>image/svg+xml</dc:format>
				<dc:type rdf:resource="http://purl.org/dc/dcmitype/StillImage"/>
			</cc:Work>
		</rdf:RDF>
	</metadata>
	<g transform="translate(3446.7 -3647.7)">
		<path id="a" class="ColorScheme-Text" transform="translate(-3446.7 3647.7)" d="m7 1-1 1v1l-1 1v4l-1 3-2 2 1 1h1v-1l2-2 1-2 2 3v3h2v-1l-1-1v-3l-2-3v-1h1l1-1h1l1 1v-2l2-1-1-1v1h-2l-1-1v1h-1v-1h-1v-1h-0.49609z" style="fill-opacity:.75;fill:currentColor"/>
		<path id="c" class="ColorScheme-Background" transform="translate(-3446.7 3647.7)" d="m6.9062 0c-0.22394 0.024212-0.43315 0.12331-0.59375 0.28125l-1 1c-0.19762 0.18709-0.31046 0.44663-0.3125 0.71875v0.59375l-0.6875 0.6875c-0.19762 0.18709-0.31046 0.44663-0.3125 0.71875v3.875l-0.84375 2.5625-1.8438 1.8438c-0.40625 0.39306-0.40625 1.0444 0 1.4375l1 1c0.18456 0.17853 0.43072 0.27924 0.6875 0.28125h1c0.55226-5.5e-5 0.99994-0.44774 1-1v-0.5625l1.7188-1.7188c0.078005-0.08243 0.14141-0.17754 0.1875-0.28125l0.21875-0.46875 0.875 1.3125v2.7188c5.52e-5 0.55226 0.44774 0.99994 1 1h2c0.55226-5.5e-5 0.99994-0.44774 1-1v-1c0.0062-0.26756-0.0951-0.52645-0.28125-0.71875l-0.71875-0.71875v-2.5625c5e-3 -0.19887-0.04938-0.39471-0.15625-0.5625l-1.625-2.4688c0.18704-0.034112 0.36049-0.12083 0.5-0.25l0.71875-0.71875h0.15625l0.71875 0.71875c0.63489 0.60084 1.6808 0.15535 1.6875-0.71875v-1.375l1.4688-0.71875c0.62783-0.30582 0.75688-1.1446 0.25-1.625l-1-1c-0.63298-0.65455-1.7402-0.19155-1.7188 0.71875h-0.5625l-0.71875-0.71875c-0.31743-0.30956-0.80079-0.37316-1.1875-0.15625-0.16207-0.090113-0.346-0.13339-0.53125-0.125-5.52e-5 -0.55226-0.44774-0.99994-1-1h-1c-0.031233-0.0014655-0.062517-0.0014655-0.09375 0zm0.09375 1h1v1h1v1h1v-1l1 1h2v-1l1 1-2 1v2l-1-1h-1l-1 1h-1v1l2 3v3l1 1v1h-2v-3l-2-3-1 2-2 2v1h-1l-1-1 2-2 1-3v-4l1-1v-1z" style="fill-opacity:.5;fill:currentColor"/>
	</g>
</svg>
