<?xml version="1.0" encoding="UTF-8"?>
<svg width="16" height="16" version="1.1" xmlns="http://www.w3.org/2000/svg" xmlns:cc="http://creativecommons.org/ns#" xmlns:dc="http://purl.org/dc/elements/1.1/" xmlns:rdf="http://www.w3.org/1999/02/22-rdf-syntax-ns#">
	<defs>
		<style id="current-color-scheme" type="text/css">.ColorScheme-Text {color:#090d11;}.ColorScheme-Background{color:#ffffff;}</style>
	</defs>
	<metadata>
		<rdf:RDF>
			<cc:Work rdf:about="">
				<dc:format>image/svg+xml</dc:format>
				<dc:type rdf:resource="http://purl.org/dc/dcmitype/StillImage"/>
			</cc:Work>
		</rdf:RDF>
	</metadata>
	<path class="ColorScheme-Text" d="m8 1c-3.8661 0-7 3.1339-7 7s3.1339 7 7 7 7-3.1339 7-7-3.1339-7-7-7zm1.1875 2.2188 1.3438 0.15625-0.46875 2.7188-0.96875-0.0625zm2.4062 0.625 0.90625 0.90625-1 2.1875-0.84375-0.40625zm-4.5 0.40625 0.96875 2.5625 3 0.6875 1.5 1.4688-0.96875 1.3125-3.9375 1.9062-2.8125-0.03125-1.3125-1.6562 0.625-3.0312-0.46875-2.0625 0.90625-0.4375 1.1875 2.4688 0.53125-0.34375-0.375-2.5625z" style="fill-opacity:.75;fill:currentColor"/>
	<path class="ColorScheme-Background" d="m8-0.1875c-4.5146 0-8.1875 3.6729-8.1875 8.1875s3.6729 8.1875 8.1875 8.1875 8.2188-3.6729 8.2188-8.1875-3.7042-8.1875-8.2188-8.1875zm0 1.1875c3.8661 0 7 3.1339 7 7s-3.1339 7-7 7-7-3.1339-7-7 3.1339-7 7-7zm1.1875 2.2188-0.09375 2.8125 0.96875 0.0625 0.46875-2.7188zm2.4062 0.625-0.9375 2.6875 0.84375 0.40625 1-2.1875zm-4.5 0.40625-1.1562 0.28125 0.375 2.5625-0.53125 0.34375-1.1875-2.4688-0.90625 0.4375 0.46875 2.0625-0.625 3.0312 1.3125 1.6562 2.8125 0.03125 3.9375-1.9062 0.96875-1.3125-1.5-1.4688-3-0.6875z" style="fill-opacity:.5;fill:currentColor"/>
</svg>
