<?xml version="1.0" encoding="UTF-8"?>
<!-- Created with Inkscape (http://www.inkscape.org/) -->
<svg width="16" height="16" version="1.1" xmlns="http://www.w3.org/2000/svg" xmlns:cc="http://creativecommons.org/ns#" xmlns:dc="http://purl.org/dc/elements/1.1/" xmlns:rdf="http://www.w3.org/1999/02/22-rdf-syntax-ns#">
	<metadata>
		<rdf:RDF>
			<cc:Work rdf:about="">
				<dc:format>image/svg+xml</dc:format>
				<dc:type rdf:resource="http://purl.org/dc/dcmitype/StillImage"/>
			</cc:Work>
		</rdf:RDF>
	</metadata>
	<defs>
		<style id="current-color-scheme" type="text/css">.ColorScheme-Text {
				color:#090d11;
			}
			.ColorScheme-Background{
				color:#ffffff;
			}</style>
	</defs>
	<path class="ColorScheme-Text" d="m10.207 0.92188c-1.3757 0.80667-2.2819 2.2234-2.4375 3.8105 0.08317-0.00531 0.16595-0.011719 0.25-0.011719 1.2724-0.0052 2.453 0.66158 3.1055 1.7539-0.50295-0.3347-1.1097-0.47686-1.709-0.40039 2.808 1.4594 1.4706 5.7252-1.668 5.3203-0.31421-0.01341-0.62478-0.07262-0.92188-0.17578-0.069013-0.02477-0.13802-0.05389-0.20703-0.08398-0.0407-0.0177-0.082164-0.03522-0.12109-0.05469-0.90293-0.41226-1.5327-1.2572-1.6699-2.2402 0 0 0.32625-1.1797 2.3418-1.1797 0.36378-0.14597 0.66551-0.41387 0.85352-0.75781-0.6002-0.2791-1.1747-0.61045-1.7168-0.99023-0.25659-0.24509-0.37945-0.36269-0.48828-0.45117-0.058396-0.047778-0.1137-0.088757-0.18359-0.13477-0.16128-0.54605-0.16804-1.1261-0.019531-1.6758-0.64975 0.3038-1.2301 0.73791-1.7051 1.2754-0.21968-0.54462-0.30412-1.1344-0.24609-1.7188-0.081884 0.033417-0.16037 0.074622-0.23438 0.12305-0.24759 0.1706-0.47961 0.36276-0.69336 0.57422-0.2416 0.23706-0.46307 0.49381-0.66211 0.76758-0.45541 0.62112-0.7803 1.328-0.95508 2.0781 0 0.00796-0.068524 0.28775-0.11719 0.63281l-0.021484 0.16016c-0.016811 0.10352-0.029697 0.21651-0.042969 0.39258v0.021484c-0.004424 0.067244-0.009248 0.14181-0.013672 0.22852v0.035156c0.064766 3.8496 3.2363 6.9188 7.0859 6.8574 3.4022 0.04399 6.347-2.3561 6.9902-5.6973l0.03125-0.26562c0.14525-1.1691-0.014205-2.356-0.46289-3.4453-0.29186-0.70767-0.78658-1.3132-1.4219-1.7402 0.34821 0.65162 0.59081 1.3544 0.71875 2.082v0.015625c-0.79631-1.9333-2.1595-2.7131-3.2734-4.4102l-0.16797-0.26562c-0.03097-0.052202-0.05601-0.099223-0.07813-0.14258-0.04602-0.085203-0.08144-0.17572-0.10547-0.26953-1.1e-4 -0.007654-0.0047-0.014532-0.01172-0.017578-5e-3 -0.001823-0.01058-0.001823-0.01563 0z" style="fill-opacity:.75;fill:currentColor"/>
	<path class="ColorScheme-Background" d="m10.549 0.011719-0.0098 0.099609c-0.03303 0.00218-0.06525 0.018896-0.09766 0.041016-0.02651 0.008907-0.05344 0.025083-0.07813 0.050781-0.50542 0.73852-3.4035 2.5282-3.5898 4.4336 0.01267 0.17791 0.072686 0.34919 0.17383 0.49609-0.010593-0.00729-0.022637-0.0122-0.033203-0.019531-0.12983-0.12455-0.22997-0.21506-0.32222-0.29688-0.053641-0.30085-0.08999-0.60742-0.0097657-0.9043 0.22302-0.82172-0.61732-1.5285-1.3887-1.168-0.21637 0.10105-0.36582 0.29922-0.56836 0.42383-0.036188-0.66652-0.70271-1.1112-1.332-0.88867-0.14222 0.056905-0.27758 0.12783-0.40625 0.21094-0.00855 0.00573-0.017018 0.011588-0.025391 0.017578-0.29511 0.20355-0.57129 0.43148-0.82617 0.68359-0.28007 0.27507-0.53671 0.57119-0.76758 0.88867-0.53536 0.72973-0.91736 1.562-1.123 2.4434-0.002531 0.011014-0.005658 0.022119-0.007813 0.033203-9.8299e-4 0.00462-0.004056 0.017767-0.007813 0.035156-0.007508 0.034778-0.018488 0.086827-0.03125 0.15039-0.025524 0.12713-0.057927 0.30138-0.085938 0.5-2.54e-6 0.0013-2.54e-6 0.0026 0 0.00391l-0.017578 0.13672c-0.02285 0.14071-0.038373 0.28799-0.052734 0.47852-7.9437e-4 0.00976-0.0014455 0.019522-0.0019531 0.029297v0.017578c-7.7595e-4 0.00911-0.001427 0.018221-0.0019531 0.027344-0.0038275 0.056991-0.0076247 0.11897-0.011719 0.19922-0.0010811 0.016908-0.0017323 0.03384-0.0019531 0.050781v0.035156c-4.069e-5 0.00521-4.069e-5 0.010417 0 0.015625 0.073427 4.3853 3.7042 7.9022 8.0879 7.8398 3.8739 0.04295 7.2385-2.7021 7.9707-6.5078 4e-3 -0.022667 0.0073-0.045467 0.0098-0.068359l0.0332-0.26562-2e-3 0.00391c0.16664-1.3402-0.015-2.7005-0.52928-3.9492v-0.00195c-0.29614-0.71749-0.8566-1.2635-1.4434-1.7637-0.01055-0.020182-0.01076-0.044356-0.02148-0.064453l-0.01758 0.015625c-0.12617-0.10474-0.16971-0.28297-0.30664-0.375-0.17924-0.036334-0.36501-0.022823-0.53711 0.039063-0.61482-0.69683-1.5911-1.248-2.0938-2.0137-0.28881-0.43246-0.26872-0.83657-0.52539-1.1133zm-0.3418 0.91016h0.0059c5e-3 -0.001823 0.01057-0.001823 0.01563 0 7e-3 0.003046 0.01161 0.009924 0.01172 0.017578 0.02402 0.093811 0.05945 0.18433 0.10547 0.26953 0.02212 0.043355 0.04716 0.090376 0.07813 0.14258l0.16797 0.26562c1.1139 1.697 2.4771 2.4769 3.2734 4.4102v-0.015625c-0.12805-0.72766-0.37059-1.4304-0.7188-2.082 0.63529 0.42707 1.13 1.0326 1.4219 1.7402 0.44869 1.0893 0.60814 2.2762 0.46289 3.4453l-0.03125 0.26562c-0.64322 3.3411-3.588 5.7413-6.9902 5.6973-3.8497 0.061417-7.0212-3.0078-7.0859-6.8574v-0.035156c0.0044236-0.086709 0.0092479-0.16127 0.013672-0.22852v-0.021484c0.013272-0.17607 0.026158-0.28906 0.042969-0.39258l0.021484-0.16016c0.048663-0.34507 0.11719-0.62485 0.11719-0.63281 0.17478-0.75009 0.49967-1.457 0.95508-2.0781 0.19904-0.27377 0.42051-0.53052 0.66211-0.76758 0.21375-0.21146 0.44577-0.40361 0.69336-0.57422 0.074005-0.048425 0.15249-0.08963 0.23438-0.12305-0.058022 0.58438 0.026418 1.1741 0.24609 1.7188 0.47496-0.53748 1.0553-0.97159 1.7051-1.2754-0.14851 0.54966-0.14175 1.1297 0.019531 1.6758 0.069898 0.046009 0.1252 0.086987 0.18359 0.13477 0.10883 0.088479 0.23169 0.20609 0.48828 0.45117 0.54212 0.37978 1.1166 0.71114 1.7168 0.99023-0.18801 0.34394-0.48973 0.61184-0.85352 0.75781-2.0155 2e-7 -2.3418 1.1797-2.3418 1.1797 0.13718 0.98307 0.76699 1.828 1.6699 2.2402 0.03893 0.01947 0.080394 0.03699 0.12109 0.05469 0.069013 0.03009 0.13802 0.05921 0.20703 0.08398 0.2971 0.10316 0.60766 0.16238 0.92188 0.17578 3.1386 0.40492 4.4759-3.8609 1.668-5.3203 0.59928-0.076468 1.206 0.065687 1.709 0.40039-0.6525-1.0923-1.8331-1.7591-3.1055-1.7539-0.084055 0-0.16683 0.00641-0.25 0.011719 0.15556-1.5872 1.0618-3.0039 2.4375-3.8105zm-2.1875 4.7988c0.0013 2.5e-6 0.0026 2.5e-6 0.00391 0 0.16663-6.701e-4 0.30659 0.091071 0.4668 0.12109-0.00236 0.067997 0.00222 0.13606 0.013672 0.20312-0.018875-0.017678-0.038417-0.034618-0.058598-0.050781-0.16456-0.076402-0.31054-0.18656-0.4707-0.27148 0.010609-4.539e-4 0.038164-0.00195 0.044922-0.00195zm0.96875 1.2773c0.94516 0.51841 1.1165 1.3476 0.86914 2.1367-0.25191 0.80358-0.87121 1.4105-1.9805 1.2676-0.0279-0.0031-0.05592-0.0051-0.083984-0.0059-0.217-0.0095-0.43162-0.05154-0.63672-0.12305-0.047313-0.01716-0.094879-0.03559-0.13867-0.05469-0.03597-0.01564-0.060571-0.02736-0.072266-0.0332-0.010338-0.0047-0.020756-0.0093-0.03125-0.01367-0.48531-0.22138-0.73076-0.70583-0.89648-1.2011 0.16148-0.12893 0.41126-0.31055 1.1523-0.31055 0.12782-2.72e-5 0.25446-0.024558 0.37305-0.072266 0.57863-0.23264 1.0586-0.65963 1.3574-1.207 0.054312-0.12054 0.084185-0.25065 0.087891-0.38281z" style="fill-opacity:.5;fill:currentColor"/>
</svg>
