<?xml version="1.0" encoding="UTF-8"?>
<!-- Created with Inkscape (http://www.inkscape.org/) -->
<svg width="16" height="16" version="1.1" xmlns="http://www.w3.org/2000/svg" xmlns:cc="http://creativecommons.org/ns#" xmlns:dc="http://purl.org/dc/elements/1.1/" xmlns:rdf="http://www.w3.org/1999/02/22-rdf-syntax-ns#">
	<metadata>
		<rdf:RDF>
			<cc:Work rdf:about="">
				<dc:format>image/svg+xml</dc:format>
				<dc:type rdf:resource="http://purl.org/dc/dcmitype/StillImage"/>
				<dc:title/>
			</cc:Work>
		</rdf:RDF>
	</metadata>
	<defs>
		<style id="current-color-scheme" type="text/css">
			.ColorScheme-Text {
				color:#090d11;
			}
			.ColorScheme-Background{
				color:#ffffff;
			}
		</style>
	</defs>
	<g transform="translate(3360.4 -2096.7)">
		<path d="m-3352.4 2097.7c-1.5439 0-2.9678 0.4979-4.125 1.3438 0.048 0.129 0.1081 0.2629 0.125 0.375 0.025 0.1662-0.01 0.1081 0 0.2187l0.6562 0.094c0.9577-0.6469 2.1012-1.0313 3.3438-1.0313 0.927 0 1.81 0.2184 2.5937 0.5938 0.1437-0.3547 0.496-0.6448 0.875-0.6875-1.0208-0.5818-2.2091-0.9063-3.4687-0.9063zm-5.9063 0.9375c-0.6081 1.0275 0.084 2.1471-0.1875 2.625-0.5751 1.0124-0.9062 2.1896-0.9062 3.4375 0 3.8675 3.1326 7 7 7s7-3.1325 7-7c0-1.9981-0.8458-3.7873-2.1875-5.0625l-0.375-0.2187 0.4687 0.9375-1.375-0.75 0.7188 1.375-1.2188-0.375c0.9836 0.7903 1.625 1.9834 1.625 3.3437 0 2.3823-1.9302 4.3125-4.3125 4.3125-0.9813 0-1.8691-0.3544-2.5937-0.9062l0.4687 0.1875 0.094-0.1875 1.2812-0.2188 1.9063-0.875 0.031-0.5625-2.4687 0.062-1.5313-0.5312-0.1562-0.5625 1.1875-0.2813-0.1563-0.9375 1.5313-0.8125-0.1563-0.8125-1.75-0.3437 0.75-1.5625c0.1433-0.095 0.2586-0.1973 0.375-0.25-0.6182 0.066-1.2877 0.082-2.4687 0.9687l-1.5625-0.031c-0.3004-0.6669 0.3132-1.4625-1.0313-1.9688z" class="ColorScheme-Text" style="fill-opacity:.75;fill:currentColor" />
		<path transform="translate(-3360.4 2096.7)" d="m7.9961-0.0078125 0.0039062 0.0078125c-1.7589 0-3.393 0.57091-4.7148 1.5371a1.0001 1.0001 0 0 0-0.011719 0c-0.2441-0.2101-0.49523-0.41226-0.83203-0.53906a1.0001 1.0001 0 0 0-1.2129 0.42578 1.0001 1.0001 0 0 0-0.13086 0.41016c-0.2498 0.6559-0.27855 1.3037-0.21875 1.748 0.036 0.2696 0.075938 0.4853 0.085938 0.5957 0.0022222 0.024533 0.0011138 0.013886 0 0.023438-0.61143 1.1275-0.96875 2.4217-0.96875 3.791 0 4.4074 3.5926 8 8 8 4.4074 0 8-3.5926 8-8 0-2.2804-0.96995-4.3347-2.498-5.7871a1.0001 1.0001 0 0 0-0.18555-0.13867l-0.375-0.21875a1.0001 1.0001 0 0 0-0.49219-0.13672 1.0001 1.0001 0 0 0-0.48437-0.68164c-1.1031-0.6288-2.3816-0.96526-3.7207-1.0059a1.0001 1.0001 0 0 0-0.24414-0.03125zm0.0039062 1.0078c1.2596 0 2.448 0.32445 3.4688 0.90625-0.379 0.0427-0.7313 0.3328-0.875 0.6875-0.7837-0.3754-1.6668-0.59375-2.5938-0.59375-1.2426 0-2.386 0.38435-3.3438 1.0312l-0.65625-0.09375c-0.01-0.1106 0.025-0.05255 0-0.21875-0.0169-0.1121-0.077-0.246-0.125-0.375 1.1572-0.8459 2.5811-1.3438 4.125-1.3438zm-5.9062 0.9375c1.3445 0.5063 0.73085 1.3018 1.0312 1.9688l1.5625 0.03125c1.181-0.8867 1.8506-0.90275 2.4688-0.96875-0.1164 0.0527-0.2317 0.155-0.375 0.25l-0.75 1.5625 1.75 0.34375 0.15625 0.8125-1.5312 0.8125 0.15625 0.9375-1.1875 0.28125 0.15625 0.5625 1.5312 0.53125 2.4688-0.0625-0.03125 0.5625-1.9062 0.875-1.2812 0.21875-0.09375 0.1875-0.46875-0.1875c0.7246 0.5518 1.6124 0.90625 2.5938 0.90625 2.3823 0 4.3125-1.9302 4.3125-4.3125 0-1.3603-0.6414-2.5534-1.625-3.3438l1.2188 0.375-0.71875-1.375 1.375 0.75-0.46875-0.9375 0.375 0.21875c1.3417 1.2752 2.1875 3.0644 2.1875 5.0625 0 3.8675-3.1326 7-7 7s-7-3.1325-7-7c0-1.2479 0.33115-2.4251 0.90625-3.4375 0.2715-0.4779-0.4206-1.5975 0.1875-2.625zm6.0605 1.0977c0.6979 0.023 1.3717 0.17033 1.9727 0.45312a1.0001 1.0001 0 0 0 0.2793 1.1973c0.766 0.6155 1.25 1.5185 1.25 2.5645 0 1.0109-0.46582 1.8808-1.1699 2.4863a1.0001 1.0001 0 0 0 0.013672-0.11914l0.03125-0.5625a1.0001 1.0001 0 0 0-1.0234-1.0547l-2.0156 0.050781a1.0001 1.0001 0 0 0 0.056641-0.5293l-0.037109-0.22656 0.89453-0.47461a1.0001 1.0001 0 0 0 0.51367-1.0723l-0.15625-0.8125a1.0001 1.0001 0 0 0-0.78906-0.79297l-0.48242-0.09375 0.082031-0.17188a1.0001 1.0001 0 0 0 0.58008-0.8418z" style="fill-opacity:.5;fill:currentColor" class="ColorScheme-Background"/>
	</g>
</svg>
