<?xml version="1.0" encoding="UTF-8"?>
<!-- Created with Inkscape (http://www.inkscape.org/) -->
<svg width="16" height="16" version="1.1" xmlns="http://www.w3.org/2000/svg" xmlns:cc="http://creativecommons.org/ns#" xmlns:dc="http://purl.org/dc/elements/1.1/" xmlns:rdf="http://www.w3.org/1999/02/22-rdf-syntax-ns#">
	<metadata>
		<rdf:RDF>
			<cc:Work rdf:about="">
				<dc:format>image/svg+xml</dc:format>
				<dc:type rdf:resource="http://purl.org/dc/dcmitype/StillImage"/>
			</cc:Work>
		</rdf:RDF>
	</metadata>
	<defs>
		<style id="current-color-scheme" type="text/css">.ColorScheme-Background{color:#ffffff;}
			.ColorScheme-Text{color:#090d11;}</style>
	</defs>
	<path class="ColorScheme-Text" d="m2 2c-0.554 0-1 0.446-1 1v10c0 0.554 0.446 1 1 1h12c0.554 0 1-0.446 1-1v-10c0-0.554-0.446-1-1-1zm7.3262 2.5645c0.1299-0.025907 0.26476 7.853e-4 0.375 0.074219 0.22975 0.15318 0.29184 0.4636 0.13867 0.69336l-2.418 3.627 0.6875 1.0312 3.4766-5.2129c0.07366-0.1104 0.18819-0.18699 0.31836-0.21289 0.1299-0.025907 0.26476 7.853e-4 0.375 0.074219 0.22975 0.15318 0.29184 0.4636 0.13867 0.69336l-3.8926 5.8379c-0.19794 0.29679-0.63409 0.29679-0.83203 0l-0.87305-1.3105-0.87305 1.3105c-0.19794 0.29679-0.63409 0.29679-0.83203 0l-1.9883-2.9824c-0.15317-0.22976-0.091082-0.54018 0.13867-0.69336 0.22976-0.15317 0.54018-0.091082 0.69336 0.13867l1.5723 2.3594 0.68945-1.0332-0.51367-0.77148c-0.15317-0.22976-0.091082-0.54018 0.13867-0.69336 0.22976-0.15317 0.54018-0.091082 0.69336 0.13867l0.2832 0.42383 2.1855-3.2793c0.073659-0.1104 0.18819-0.18699 0.31836-0.21289z" style="fill-opacity:.75;fill:currentColor"/>
</svg>
