<?xml version="1.0" encoding="UTF-8"?>
<!-- Created with Inkscape (http://www.inkscape.org/) -->
<svg width="16" height="16" version="1.1" xmlns="http://www.w3.org/2000/svg" xmlns:cc="http://creativecommons.org/ns#" xmlns:dc="http://purl.org/dc/elements/1.1/" xmlns:rdf="http://www.w3.org/1999/02/22-rdf-syntax-ns#" xmlns:xlink="http://www.w3.org/1999/xlink">
	<defs>
		<style id="current-color-scheme" type="text/css">.ColorScheme-Text {color:#090d11;}.ColorScheme-Background{color:#ffffff;}</style>
	</defs>
	<metadata>
		<rdf:RDF>
			<cc:Work rdf:about="">
				<dc:format>image/svg+xml</dc:format>
				<dc:type rdf:resource="http://purl.org/dc/dcmitype/StillImage"/>
			</cc:Work>
		</rdf:RDF>
	</metadata>
	<g transform="translate(9384.3 -4846.2)">
		<path class="ColorScheme-Text" transform="translate(-9384.3 4846.2)" d="m2 1c-0.55389 0-1 0.44611-1 1v12c0 0.5539 0.44611 1 1 1h12c0.5539 0 1-0.4461 1-1v-12c0-0.55389-0.4461-1-1-1zm8.998 2h2.0039v2h-2v1h1.9961v2h-1.9961v5h-2v-5h-1.0039v-2h1.0039v-1c0-1.0906 0.90549-2 1.9961-2z" style="fill-opacity:.75;fill:currentColor"/>
		<path class="ColorScheme-Background" transform="translate(-9384.3 4846.2)" d="m1.998 0c-1.0906 0-2 0.9094-2 2v12c0 1.0906 0.9094 2 2 2h12.004c1.0906 0 1.9961-0.9094 1.9961-2v-12c0-1.0906-0.90549-2-1.9961-2zm0.0019531 1h12c0.5539 0 1 0.4461 1 1v12c0 0.5539-0.4461 1-1 1h-12c-0.5539 0-1-0.4461-1-1v-12c0-0.5539 0.4461-1 1-1zm8.998 2c-1.0906 0-1.9961 0.9094-1.9961 2v1h-1.0039v2h1.0039v5h2v-5h1.9961v-2h-1.9961v-1h2v-2z" style="fill-opacity:.5;fill:currentColor"/>
	</g>
</svg>
