<?xml version="1.0" encoding="UTF-8"?>
<svg id="g" width="16.014" height="16" version="1.1" xmlns="http://www.w3.org/2000/svg" xmlns:cc="http://creativecommons.org/ns#" xmlns:dc="http://purl.org/dc/elements/1.1/" xmlns:rdf="http://www.w3.org/1999/02/22-rdf-syntax-ns#">
	<metadata id="k">
		<rdf:RDF>
			<cc:Work rdf:about="">
				<dc:format>image/svg+xml</dc:format>
				<dc:type rdf:resource="http://purl.org/dc/dcmitype/StillImage"/>
			</cc:Work>
		</rdf:RDF>
	</metadata>
	<defs>
		<style id="current-color-scheme" type="text/css">.ColorScheme-Text {color:#090d11;}.ColorScheme-Background{color:#ffffff;}</style>
	</defs>
	<path id="e" class="ColorScheme-Text" d="m7 0c1.1989 1.464-1.6055 0.9855-2.875 2.8125-1.1802 1.6984-0.3298 4.0267 3.1875 3.375-1.2172-0.8979-2.168-2.1408 0-3.3125 3.2121-1.7359 1.6875-2.875 1.6875-2.875zm3.875 2.9375s-4.7179 0.2721-2.9375 2.5938c0.3636 0.4739-0.125 1.0625-0.125 1.0625s3.0262-1.1558 1.9687-1.7813c-1.2068-0.7138-0.2111-1.2216 1.0938-1.875zm2.1562 1.6875c-1.1491 0.035-2.3598 0.8996-2.0937 2.0313 0 0 2.7625-1.0222 2.6875 0.9687-0.075 1.9908-2.3125 3.1563-2.3125 3.1563 3.7922-0.4589 3.7328-2.1975 3.5625-4.4688-0.093-1.2383-0.95-1.7145-1.8438-1.6875zm-12.031 2.375 1 2 10-1v-1zm10 2-9 1 1 1 8-1zm0 2-8 1 1 1 7-1zm-10 3v1h13v-1z" style="fill-opacity:.75;fill:currentColor"/>
</svg>
