<?xml version="1.0" encoding="UTF-8"?>
<svg id="d" width="16" height="16" version="1.1" xmlns="http://www.w3.org/2000/svg" xmlns:cc="http://creativecommons.org/ns#" xmlns:dc="http://purl.org/dc/elements/1.1/" xmlns:rdf="http://www.w3.org/1999/02/22-rdf-syntax-ns#">
	<metadata id="a">
		<rdf:RDF>
			<cc:Work rdf:about="">
				<dc:format>image/svg+xml</dc:format>
				<dc:type rdf:resource="http://purl.org/dc/dcmitype/StillImage"/>
				<dc:title/>
			</cc:Work>
		</rdf:RDF>
	</metadata>
	<defs>
		<style id="current-color-scheme" type="text/css">.ColorScheme-Text {color:#090d11;}.ColorScheme-Background{color:#ffffff;}</style>
	</defs>
	<g id="c" transform="translate(1356.2 -1760.7)">
		<path id="b" d="m-1351.2 1762.7a1 1 0 0 0 -1 1 1 1 0 0 0 1 1 1 1 0 0 0 1 -1 1 1 0 0 0 -1 -1zm5 0-1.5 1.5 2.5 2.5-2.5 2.5 1.5 1.5 4-4zm-7 4.5a1 1 0 0 0 -1 1 1 1 0 0 0 1 1 1 1 0 0 0 1 -1 1 1 0 0 0 -1 -1zm3.5 4.5a1.5 1.5 0 0 0 -1.5 1.5 1.5 1.5 0 0 0 1.5 1.5 1.5 1.5 0 0 0 1.5 -1.5 1.5 1.5 0 0 0 -1.5 -1.5z" style="fill-opacity:.75;fill:currentColor" class="ColorScheme-Text"/>
		<path id="e" d="m-1351.2 1761.7c-1.0927 0-2 0.9073-2 2s0.9073 2 2 2 2-0.9073 2-2-0.9073-2-2-2zm4.9844 0a1.0001 1.0001 0 0 0 -0.6914 0.293l-1.5 1.5a1.0001 1.0001 0 0 0 0 1.414l1.7929 1.793-1.7929 1.793a1.0001 1.0001 0 0 0 0 1.414l1.5 1.5a1.0001 1.0001 0 0 0 1.414 0l4-4a1.0001 1.0001 0 0 0 0 -1.414l-4-4a1.0001 1.0001 0 0 0 -0.7226 -0.293zm-4.9844 1a1 1 0 0 1 1 1 1 1 0 0 1 -1 1 1 1 0 0 1 -1 -1 1 1 0 0 1 1 -1zm5 0 4 4-4 4-1.5-1.5 2.5-2.5-2.5-2.5zm-7 3.5c-1.0927 0-2 0.9073-2 2s0.9073 2 2 2 2-0.9073 2-2-0.9073-2-2-2zm0 1a1 1 0 0 1 1 1 1 1 0 0 1 -1 1 1 1 0 0 1 -1 -1 1 1 0 0 1 1 -1zm3.5 3.5c-1.3689 0-2.5 1.1311-2.5 2.5s1.1311 2.5 2.5 2.5 2.5-1.1311 2.5-2.5-1.1311-2.5-2.5-2.5zm0 1a1.5 1.5 0 0 1 1.5 1.5 1.5 1.5 0 0 1 -1.5 1.5 1.5 1.5 0 0 1 -1.5 -1.5 1.5 1.5 0 0 1 1.5 -1.5z" style="fill-opacity:.5;fill:currentColor" class="ColorScheme-Background"/>
	</g>
</svg>
