<?xml version="1.0" encoding="UTF-8"?>
<svg id="h" width="16" height="16" version="1.1" xmlns="http://www.w3.org/2000/svg" xmlns:cc="http://creativecommons.org/ns#" xmlns:dc="http://purl.org/dc/elements/1.1/" xmlns:rdf="http://www.w3.org/1999/02/22-rdf-syntax-ns#">
	<defs id="e">
		<style id="current-color-scheme" type="text/css">.ColorScheme-Text {color:#090d11;}.ColorScheme-Background{color:#ffffff;}</style>
	</defs>
	<metadata id="b">
		<rdf:RDF>
			<cc:Work rdf:about="">
				<dc:format>image/svg+xml</dc:format>
				<dc:type rdf:resource="http://purl.org/dc/dcmitype/StillImage"/>
			</cc:Work>
		</rdf:RDF>
	</metadata>
	<path id="g" class="ColorScheme-Text" d="m6 1c-0.554 0-0.8913 0.4567-1 1l-1 5c-0.1091 0.5455 0.5729 1 1.2852 1h1.2148v1l0.5 1v5l1 0.9629v0.037h0.9998v-0.037l1-0.9629v-5l0.5-1v-1h1.2148c0.7124 0 1.3943-0.4545 1.2852-1l-1-5c-0.1087-0.5433-0.4459-1-1-1zm0 1h5l0.9668 4.9297-0.25 0.07h-2.2148v1.7637l-0.2715 0.5449-0.2305 0.6914v5h-1v-5l-0.2285-0.6934-0.2715-0.5429v-1.7637h-2.2148l-0.25-0.07zm2.5 1c-0.277 0-0.5 0.223-0.5 0.5s0.223 0.5 0.5 0.5 0.5-0.223 0.5-0.5-0.223-0.5-0.5-0.5z" style="fill-opacity:.75;fill:currentColor"/>
	<path class="ColorScheme-Text" d="m13.479 9c-0.81645 0-1.4785 0.6833-1.4785 1.5v2.9277c0 0.01177-2.74e-4 0.02344 0 0.03516-2.93e-4 0.01225 0 0.02478 0 0.03711 0 0.83098 0.66902 1.5 1.5 1.5s1.5-0.66902 1.5-1.5c0-0.01233 2.93e-4 -0.02486 0-0.03711 2.74e-4 -0.01172 0-0.02339 0-0.03516v-2.9277c0-0.8167-0.66207-1.5-1.4785-1.5zm0 1h0.04297c0.26817 0 0.47851 0.2087 0.47851 0.5v1.584c-0.15611-0.05477-0.32471-0.08398-0.5-0.08398s-0.34389 0.02921-0.5 0.08398v-1.584c0-0.2913 0.21034-0.5 0.47852-0.5z" style="fill-opacity:.75;fill:currentColor"/>
</svg>
