<?xml version="1.0" encoding="UTF-8"?>
<svg id="c" width="16" height="16" version="1.1" xmlns="http://www.w3.org/2000/svg" xmlns:cc="http://creativecommons.org/ns#" xmlns:dc="http://purl.org/dc/elements/1.1/" xmlns:rdf="http://www.w3.org/1999/02/22-rdf-syntax-ns#">
	<metadata id="a">
		<rdf:RDF>
			<cc:Work rdf:about="">
				<dc:format>image/svg+xml</dc:format>
				<dc:type rdf:resource="http://purl.org/dc/dcmitype/StillImage"/>
				<dc:title/>
			</cc:Work>
		</rdf:RDF>
	</metadata>
	<defs id="f">
		<style id="current-color-scheme" type="text/css">.ColorScheme-Text {color:#090d11;}.ColorScheme-Background{color:#ffffff;}</style>
	</defs>
	<g id="b" transform="translate(3360.4 -2096.7)">
		<path id="d" d="m-3358.4 2097.7c-0.554 0-1 0.446-1 1v12c0 0.554 0.446 1 1 1h9v-3c0-0.554 0.446-1 1-1h3v-9c0-0.554-0.446-1-1-1zm13 10-4 4h3c0.554 0 1-0.446 1-1zm-7-8a1.5 1.5 0 0 1 1.5 1.5 1.5 1.5 0 0 1 -1.5 1.5 1.5 1.5 0 0 1 -1.5 -1.5 1.5 1.5 0 0 1 1.5 -1.5z" style="fill-opacity:.75;fill:currentColor" class="ColorScheme-Text"/>
		<path id="e" transform="translate(-3360.4,2096.7)" d="m2 0c-1.0907 0-2 0.9093-2 2v12c0 1.0907 0.9093 2 2 2h12c1.0907 0 2-0.9093 2-2v-12c0-1.0907-0.9093-2-2-2zm0 1h12c0.554 0 1 0.446 1 1v12c0 0.554-0.446 1-1 1h-12c-0.554 0-1-0.446-1-1v-12c0-0.554 0.446-1 1-1zm9 14 4-4h-3c-0.554 0-1 0.446-1 1zm-3-12c-0.82842 2.44e-5 -1.5 0.67158-1.5 1.5 2.44e-5 0.82842 0.67158 1.5 1.5 1.5 0.82842-2.44e-5 1.5-0.67158 1.5-1.5-2.44e-5 -0.82842-0.67158-1.5-1.5-1.5z" style="fill-opacity:.5;fill:currentColor" class="ColorScheme-Background"/>
	</g>
</svg>
