<?xml version="1.0" encoding="UTF-8"?>
<svg id="d" width="16" height="16" version="1.1" xmlns="http://www.w3.org/2000/svg" xmlns:cc="http://creativecommons.org/ns#" xmlns:dc="http://purl.org/dc/elements/1.1/" xmlns:rdf="http://www.w3.org/1999/02/22-rdf-syntax-ns#">
	<metadata id="a">
		<rdf:RDF>
			<cc:Work rdf:about="">
				<dc:format>image/svg+xml</dc:format>
				<dc:type rdf:resource="http://purl.org/dc/dcmitype/StillImage"/>
				<dc:title/>
			</cc:Work>
		</rdf:RDF>
	</metadata>
	<defs id="f">
		<style id="current-color-scheme" type="text/css">.ColorScheme-ViewText {color:#090d11;}.ColorScheme-Background{color:#ffffff;}</style>
	</defs>
	<g id="c" transform="matrix(.93957 0 0 .93957 3367.8 -2101.3)" style="stroke-width:1.0643">
		<path id="b" class="ColorScheme-Text" d="m-3582.3 2238.6v1.0666h1.0667l-1.0667 10.667h-1.0666v1.0667h4.2666v-1.0667h-1.0666l0.5333-5.2-0.5333-1.2 0.7333-1 0.3333-3.2667h1.0667v-1.0666h-1.0667zm6.4 0v1.0666l-3.2 4.2667 3.2 7.4667h2.1334l-0.9-2.1334h-0.1667v-0.3666l-2.1333-4.9667 3.2-4.2667h2.1333v-1.0666h-1.0667zm2.1334 12.8h1.0666l5.3334-7.4667h-2.1334l-3.7333 5.3333h-0.5333zm0-7.4667v4.3333l2.1333-3.0333v-1.3z" style="fill-opacity:.75;fill:currentColor;stroke-width:1.0643"/>
		<path id="e" class="ColorScheme-Background" d="m-3583.4 2237.6v2.1333h1.0666v-1.0666h3.2v-1.0667zm1.0666 2.1333-1.0666 10.667h1.0666l1.0667-10.667zm-1.0666 10.667h-1.0667v2.1333h4.2667v-1.0666h-3.2zm6.4-12.8v2.1333l-3.2 4.2667 3.2 7.4667v1.0666h4.2666v-1.0666h-3.2l-3.2-7.4667 3.2-4.2667v-1.0666h3.2v-1.0667zm2.1333 6.4v5.3333h1.6l3.7333-5.3333h-1.2334l-3.0332 4.3333v-4.3333z" style="fill-opacity:.5;fill:currentColor;stroke-width:1.0643"/>
	</g>
</svg>
