<?xml version="1.0" encoding="UTF-8"?>
<!-- Created with Inkscape (http://www.inkscape.org/) -->
<svg width="16" height="16" version="1.1" xmlns="http://www.w3.org/2000/svg" xmlns:cc="http://creativecommons.org/ns#" xmlns:dc="http://purl.org/dc/elements/1.1/" xmlns:rdf="http://www.w3.org/1999/02/22-rdf-syntax-ns#">
	<defs>
		<style id="current-color-scheme" type="text/css">.ColorScheme-Text {color:#090d11;}.ColorScheme-Background{color:#ffffff;}</style>
	</defs>
	<metadata>
		<rdf:RDF>
			<cc:Work rdf:about="">
				<dc:format>image/svg+xml</dc:format>
				<dc:type rdf:resource="http://purl.org/dc/dcmitype/StillImage"/>
			</cc:Work>
		</rdf:RDF>
	</metadata>
	<path class="ColorScheme-Text" d="m7.5 1.002c-0.50872 8.284e-4 -0.88634 0.32634-1.1719 0.69141-0.2858 0.36552-0.51328 0.81699-0.70508 1.2949-0.3837 0.95584-0.62109 1.9668-0.62109 2.6191v5.3066l0.060547 0.11328s0.19243 0.33502 0.58203 0.61914c0.3896 0.28413 1.0069 0.55112 1.8574 0.55078 0.8504-3.3e-4 1.4648-0.26848 1.8535-0.55274 0.3888-0.28425 0.58008-0.61914 0.58008-0.61914l0.0625-0.11133v-5.3066c0-0.65231-0.23739-1.6633-0.62109-2.6191-0.1918-0.47793-0.41918-0.9294-0.70508-1.2949-0.28543-0.36505-0.66133-0.69056-1.1699-0.69141zm0.00195 1c0.044 0 0.19227 0.060401 0.38477 0.30664 0.1926 0.24621 0.39505 0.63079 0.56445 1.0527 0.3387 0.84389 0.54883 1.8877 0.54883 2.2461v5c-0.023 0.0372-0.046022 0.0944-0.23242 0.23047-0.2348 0.1717-0.61812 0.35912-1.2656 0.35938-0.6474 2.6e-4 -1.0295-0.18726-1.2656-0.35938-0.1874-0.13667-0.21118-0.19513-0.23438-0.23242v-4.998c0-0.35838 0.21013-1.4022 0.54883-2.2461 0.1693-0.42194 0.37195-0.80652 0.56445-1.0527 0.1926-0.24621 0.34292-0.30664 0.38672-0.30664zm-3.002 6.998c-0.277 0-0.446 0.22833-0.5 0.5l-1 5c-0.0543 0.27163 1.223 0.5 1.5 0.5s0.5-0.223 0.5-0.5v-5c0-0.277-0.223-0.5-0.5-0.5zm6 0c-0.277 0-0.5 0.223-0.5 0.5v5c0 0.277 0.223 0.5 0.5 0.5s1.5543-0.22833 1.5-0.5l-1-5c-0.05433-0.27163-0.223-0.5-0.5-0.5zm-4.4531 3.752c-0.043041-0.0036-0.086371-0.0017-0.12891 0.0059-0.2724 0.04579-0.45606 0.30379-0.41016 0.57617 0 0 0.10088 0.60684 0.36328 1.2344 0.1312 0.31376 0.30079 0.64054 0.55469 0.91797 0.2539 0.2774 0.62897 0.51363 1.0762 0.51363s0.82032-0.23623 1.0742-0.51367c0.2539-0.27743 0.42349-0.60421 0.55469-0.91797 0.2624-0.62753 0.36328-1.2344 0.36328-1.2344 0.045903-0.27238-0.13776-0.53038-0.41016-0.57617-0.27238-0.0459-0.53038 0.13776-0.57617 0.41016 0 0-0.091028 0.51816-0.29883 1.0156-0.104 0.24874-0.23889 0.48447-0.37109 0.62891-0.1322 0.14443-0.22414 0.1875-0.33594 0.1875s-0.20569-0.0431-0.33789-0.1875c-0.1322-0.14444-0.26709-0.38017-0.37109-0.62891-0.2081-0.49747-0.29883-1.0156-0.29883-1.0156-0.037212-0.22421-0.22095-0.39511-0.44727-0.41602z" style="fill-opacity:.75;fill:currentColor"/>
</svg>
