<?xml version="1.0" encoding="UTF-8"?>
<svg id="a" width="16" height="16" version="1.1" xmlns="http://www.w3.org/2000/svg" xmlns:cc="http://creativecommons.org/ns#" xmlns:dc="http://purl.org/dc/elements/1.1/" xmlns:rdf="http://www.w3.org/1999/02/22-rdf-syntax-ns#">
	<metadata id="c">
		<rdf:RDF>
			<cc:Work rdf:about="">
				<dc:format>image/svg+xml</dc:format>
				<dc:type rdf:resource="http://purl.org/dc/dcmitype/StillImage"/>
				<dc:title/>
			</cc:Work>
		</rdf:RDF>
	</metadata>
	<defs>
        <style id="current-color-scheme" type="text/css">.ColorScheme-Text {color:#090d11;}.ColorScheme-Background{color:#ffffff;}</style>
    </defs>
	<path id="e" d="m4 7.1055-3.9785 1.5723 2.9316 2.1738a1.0001 1.0001 0 0 1 0.50781-0.86133c0.98921-0.55211 1.4785-0.95837 2.1895-1.9766l-1.6504-0.9082z" style="fill:currentColor;fill-opacity:0.55;" class="ColorScheme-Background"/>
	<path id="f" d="m4 7.1055-3.9785 1.5723 2.9316 2.1738a1.0001 1.0001 0 0 1 0.50781-0.86133c0.98921-0.55211 1.4785-0.95837 2.1895-1.9766z" style="fill:currentColor;fill-opacity:0.55;" class="ColorScheme-Text"/>
	<path id="d" d="m8.2852 2.6582c-0.55934 0.92372-1.2112 2.2679-2.3945 2.752-1.3345 0.54594-1.5497 1.1756-1.8906 1.6953l1.4609 1.1641c0.37875-0.50802 0.79374-1.1414 1.4121-2.1699 0.52145-0.86736 0.87933-2.0221 1.252-3.0371 0.051282-0.13969 0.10685-0.26983 0.16016-0.4043z" style="fill:currentColor;fill-opacity:0.20;" class="ColorScheme-Background"/>
	<path id="g" d="m8.2852 2.6582c-0.55934 0.92372-1.2112 2.2679-2.3945 2.752-1.3345 0.54594-1.5497 1.1756-1.8906 1.6953l1.4609 1.1641c0.37875-0.50802 0.79374-1.1414 1.4121-2.1699 0.52145-0.86736 0.87933-2.0221 1.252-3.0371 0.051282-0.13969 0.10685-0.26983 0.16016-0.4043z" style="fill:currentColor;fill-opacity:0.20;" class="ColorScheme-Text"/>
	<path id="j" d="m3.9474 10.863c1.549-0.86452 2.147-1.5288 3.7825-4.2491 1.2244-2.0365 1.4667-4.8758 2.6035-4.9123 1.3945-0.044726 2.9449 7.2309 4.6667 10.561-0.69351-0.19649-1.8678-2.1145-3.1684-1.9158-1.4358 0.21938-2.7016 3.5204-4.8386 3.9298-0.92511-1.7276-1.272-4.1171-3.0456-3.414z" style="fill:currentColor;fill-opacity:0.75;" class="ColorScheme-Text"/>
	<path id="b" d="m10.301 0.70312c-0.69868 0.022409-1.2227 0.50418-1.5137 0.94141-0.29095 0.43722-0.4758 0.91049-0.66211 1.418-0.37262 1.015-0.7305 2.1698-1.252 3.0371-1.617 2.6897-1.9579 3.079-3.4121 3.8906a1.0001 1.0001 0 0 0 0.85547 1.8027c0.25264-0.10014 0.23141-0.065445 0.26758-0.046875 0.036165 0.01856 0.17879 0.13912 0.3418 0.41797 0.32601 0.5577 0.65697 1.5989 1.1855 2.5859a1.0001 1.0001 0 0 0 1.0703 0.50977c1.5205-0.29129 2.476-1.4469 3.2578-2.373 0.39092-0.46305 0.74165-0.89211 1.0312-1.1758 0.2896-0.28367 0.50124-0.3734 0.51172-0.375 0.13101-0.020021 0.51738 0.14425 1 0.57031 0.24131 0.21303 0.48718 0.4593 0.74609 0.69141 0.25891 0.2321 0.48535 0.48169 0.99805 0.62695a1.0001 1.0001 0 0 0 1.1621-1.4199c-0.78069-1.5102-1.6139-4.1616-2.4004-6.418-0.39323-1.1282-0.77552-2.1586-1.1875-2.9727-0.20599-0.40701-0.41408-0.76097-0.69141-1.0723s-0.6972-0.65828-1.3086-0.63867zm0.033203 0.99805c1.3945-0.044726 2.9443 7.232 4.666 10.563-0.69351-0.19649-1.8674-2.1147-3.168-1.916-1.4358 0.21938-2.7029 3.5203-4.8398 3.9297-0.92511-1.7276-1.2713-4.1171-3.0449-3.4141 1.549-0.86452 2.1478-1.5297 3.7832-4.25 1.2244-2.0365 1.4667-4.8756 2.6035-4.9121z" style="fill:currentColor;fill-opacity:0.5;" class="ColorScheme-Background"/>
</svg>
