<?xml version="1.0" encoding="UTF-8"?>
<svg id="c" width="16" height="16" version="1.1" xmlns="http://www.w3.org/2000/svg" xmlns:cc="http://creativecommons.org/ns#" xmlns:dc="http://purl.org/dc/elements/1.1/" xmlns:rdf="http://www.w3.org/1999/02/22-rdf-syntax-ns#">
	<metadata id="a">
		<rdf:RDF>
			<cc:Work rdf:about="">
				<dc:format>image/svg+xml</dc:format>
				<dc:type rdf:resource="http://purl.org/dc/dcmitype/StillImage"/>
				<dc:title/>
			</cc:Work>
		</rdf:RDF>
	</metadata>
	<defs>
		<style id="current-color-scheme" type="text/css">.ColorScheme-Text {color:#090d11;}.ColorScheme-Background{color:#ffffff;}</style>
	</defs>
	<path id="b" d="m3 1c-0.554 0-1 0.446-1 1s0.446 1 1 1h6.25 2.2188l0.65625-1.7188c0.03436-0.096773 0.0762-0.19089 0.125-0.28125zm10.75 0c-0.06555 0.024573-0.12851 0.056053-0.1875 0.09375-0.03239 0.01905-0.06371 0.039927-0.09375 0.0625-0.05479 0.026412-0.10716 0.057835-0.15625 0.09375-0.02174 0.019899-0.0426 0.040759-0.0625 0.0625-1.63e-4 0.010416-1.63e-4 0.020834 0 0.03125-0.02119 0.00968-0.04204 0.02011-0.0625 0.03125-1.63e-4 0.010416-1.63e-4 0.020834 0 0.03125-0.01114 0.020461-0.02155 0.041311-0.03125 0.0625-1.63e-4 0.010416-1.63e-4 0.020834 0 0.03125-0.02174 0.019899-0.0426 0.040759-0.0625 0.0625-0.01195 0.03071-0.02235 0.062011-0.03125 0.09375l-0.4375 1.1875 1.8438 0.75 0.21875-0.59375 0.25-0.65625c0.04448-0.11949 0.0658-0.24754 0.0625-0.375 1.63e-4 -0.010416 1.63e-4 -0.020834 0-0.03125 0.0015-0.031227 0.0015-0.062523 0-0.09375-0.01707-0.097706-0.04878-0.19284-0.09375-0.28125-0.02641-0.05479-0.05784-0.10716-0.09375-0.15625-0.04364-0.068986-0.09719-0.13114-0.15625-0.1875-0.01699-0.015229-0.04451-0.017217-0.0625-0.03125-0.0199-0.021741-0.04076-0.042601-0.0625-0.0625-0.0092-0.00359-0.02193 0.00331-0.03125 0-0.02046-0.01114-0.04131-0.021565-0.0625-0.03125-0.03004-0.022573-0.06136-0.04345-0.09375-0.0625-0.06132-0.016334-0.1242-0.02681-0.1875-0.03125-0.03123-0.00147-0.06252-0.00147-0.09375 0-0.07263-0.00799-0.14612-0.00799-0.21875 0-0.02083-6.511e-4 -0.04167-6.511e-4 -0.0625 0-0.01042-1.628e-4 -0.02083-1.628e-4 -0.03125 0zm-1.5 2.7812-0.09375 0.21875-0.1875 0.5-0.21875 0.53125-0.34375 0.96875-0.40625 1-0.28125 0.75-0.46875 1.25-0.40625 1-0.375 1-0.0625 0.1875-0.09375 0.21875 1.8438 0.75 0.0625-0.15625 0.78125-2 0.375-1 0.75-1.9688 0.03125-0.03125 0.375-1 0.5625-1.4688zm-9.25 3.2188c-0.554 0-1 0.446-1 1s0.446 1 1 1h4 2.1562l0.1875-0.5 0.59375-1.5h-2.1875zm10.938 0.65625-0.4375 1.1875c0.29199-0.17423 0.5-0.47765 0.5-0.84375 0-0.12696-0.018686-0.23428-0.0625-0.34375zm-5 4.6875-0.125 0.375-0.125 0.28125-0.125 0.34375c-0.01114 0.02046-0.02157 0.04131-0.03125 0.0625-1.627e-4 0.01042-1.627e-4 0.02083 0 0.03125-0.014548 0.05114-0.02501 0.10345-0.03125 0.15625-1.627e-4 0.01042-1.627e-4 0.02083 0 0.03125-0.00799 0.07262-0.00799 0.14613 0 0.21875-0.00261 0.04161-0.00261 0.08339 0 0.125 0.00968 0.02119 0.02011 0.04204 0.03125 0.0625 0.017886 0.04306 0.038787 0.08486 0.0625 0.125 0.00968 0.02119 0.02011 0.04204 0.03125 0.0625 0.00968 0.02119 0.02011 0.04204 0.03125 0.0625 0.01905 0.03239 0.039927 0.06371 0.0625 0.09375 0.010185 0.01065 0.020605 0.02107 0.03125 0.03125 0.010185 0.01065 0.020605 0.02107 0.03125 0.03125 0.037871 0.04525 0.079755 0.08713 0.125 0.125 0.010416 1.62e-4 0.020834 1.62e-4 0.03125 0 0.010185 0.01065 0.020605 0.02107 0.03125 0.03125 0.020461 0.01114 0.041311 0.02155 0.0625 0.03125 0.010185 0.01065 0.020605 0.02107 0.03125 0.03125 0.020827 6.51e-4 0.041673 6.51e-4 0.0625 0 0.010185 0.01065 0.020605 0.02107 0.03125 0.03125 0.020827 6.51e-4 0.041673 6.51e-4 0.0625 0 0.010185 0.01065 0.020605 0.02107 0.03125 0.03125 0.020827 6.51e-4 0.041673 6.51e-4 0.0625 0 0.010416 1.62e-4 0.020834 1.62e-4 0.03125 0 0.020461 0.01114 0.041311 0.02155 0.0625 0.03125 0.020827 6.51e-4 0.041673 6.51e-4 0.0625 0 0.063303-0.0044 0.12618-0.01492 0.1875-0.03125 0.097706-0.01707 0.19284-0.04878 0.28125-0.09375 0.021189-0.00968 0.042039-0.02011 0.0625-0.03125 0.01042 1.62e-4 0.02083 1.62e-4 0.03125 0 0.01065-0.01018 0.02107-0.0206 0.03125-0.03125 0.01065-0.01018 0.02107-0.0206 0.03125-0.03125 0.02119-0.0097 0.04204-0.02011 0.0625-0.03125 1.63e-4 -0.01042 1.63e-4 -0.02083 0-0.03125 0.01042 1.62e-4 0.02083 1.62e-4 0.03125 0 0.01114-0.02046 0.02155-0.04131 0.03125-0.0625 0.02174-0.0199 0.0426-0.04076 0.0625-0.0625 0.01065-0.01018 0.02107-0.0206 0.03125-0.03125 0.01114-0.02046 0.02155-0.04131 0.03125-0.0625 0.02371-0.04014 0.04462-0.08194 0.0625-0.125 0.01065-0.01018 0.02107-0.0206 0.03125-0.03125 6.51e-4 -0.02083 6.51e-4 -0.04167 0-0.0625l0.34375-0.90625-1.8125-0.78125zm-5.9375 0.65625c-0.554 0-1 0.446-1 1s0.446 1 1 1h2 1.9375 0.78125c-0.26863-0.4365-0.39363-0.96706-0.28125-1.4688 0.029159-0.12872 0.071098-0.25453 0.125-0.375l0.0625-0.15625h-2.125zm8.875 0-0.53125 1.4062c-0.04843 0.21619-0.12995 0.41058-0.25 0.59375h0.03125 0.875 1c0.554 0 1-0.446 1-1s-0.446-1-1-1z" style="fill-opacity:.75;fill:currentColor" class="ColorScheme-Text"/>
	<path id="d" d="m13.906-0.0312c-0.7805 0.038-1.5134 0.5782-1.7812 1.3125l-4.5595 11.873c-0.054 0.1205-0.096 0.2463-0.125 0.375-0.2291 1.0227 0.493 2.1616 1.5156 2.3907 1.0227 0.229 2.1616-0.493 2.3906-1.5157l0.5283-1.4046h3.125v-1h-2.7188l0.75-2h1.9688v-1h-1.5625l0.75-2h0.8125v-1h-0.4063l1.25-3.2812c0.5006-1.2345-0.6065-2.8059-1.9375-2.75zm-0.1562 1.0312c0.01-2e-4 0.021-2e-4 0.031 0 0.021-7e-4 0.042-7e-4 0.062 0 0.073-0.01 0.1462-0.01 0.2188 0h0.094c0.063 0 0.1262 0.015 0.1875 0.031 0.032 0.019 0.064 0.04 0.094 0.062 0.032 0.01 0.063 0.019 0.094 0.031 0.056 0.036 0.1086 0.078 0.1563 0.125 0.022 0.02 0.043 0.041 0.062 0.062 0.023 0.03 0.043 0.061 0.062 0.094 0.036 0.049 0.067 0.1014 0.094 0.1562 0.045 0.088 0.077 0.1835 0.094 0.2813v0.094c2e-4 0.01 2e-4 0.021 0 0.031 0 0.1274-0.018 0.2555-0.062 0.375l-0.25 0.6562-0.2188 0.5938-1.8437-0.75 0.4375-1.1875c0.01-0.032 0.019-0.063 0.031-0.094 0.02-0.022 0.041-0.043 0.062-0.062-1e-4 -0.01-1e-4 -0.021 0-0.031 0.01-0.021 0.02-0.042 0.031-0.062-2e-4 -0.01-2e-4 -0.021 0-0.031 0.021-0.011 0.041-0.022 0.062-0.031-2e-4 -0.01-2e-4 -0.021 0-0.031 0.02-0.022 0.041-0.043 0.062-0.062 0.049-0.036 0.1015-0.067 0.1562-0.094 0.03-0.023 0.061-0.043 0.094-0.062 0.059-0.038 0.1219-0.069 0.1875-0.094zm-12.75 2v1h7.875l0.375-1zm11.25 0.7813 1.8437 0.75-0.5625 1.4687-0.375 1-0.7812 2-0.375 1-0.7813 2 0.128-0.3141-0.125 0.3125-0.062 0.1562-1.8437-0.75 0.1532-0.4046 0.375-1 0.4063-1 0.4687-1.25 0.2813-0.75 0.4062-1 0.5625-1.5 0.1875-0.5zm-11.25 2.2187v1h6.75l0.375-1zm0 3v1h5.625l0.375-1zm0 3v1h4.5l0.375-1zm7.9405 0.3421 1.8437 0.7813-0.3437 0.9062c6e-4 0.021 6e-4 0.042 0 0.062-0.01 0.011-0.021 0.021-0.031 0.031-0.018 0.043-0.039 0.085-0.062 0.125-0.01 0.021-0.02 0.042-0.031 0.062-0.01 0.011-0.021 0.021-0.031 0.031-0.02 0.022-0.041 0.043-0.062 0.062-0.01 0.021-0.02 0.042-0.031 0.062-0.01 2e-4 -0.021 2e-4 -0.031 0 2e-4 0.01 2e-4 0.021 0 0.031-0.02 0.011-0.041 0.022-0.062 0.031-0.01 0.011-0.021 0.021-0.031 0.031-0.01 0.011-0.021 0.021-0.031 0.031-0.01 2e-4 -0.021 2e-4 -0.031 0-0.021 0.011-0.041 0.022-0.062 0.031-0.088 0.045-0.1836 0.077-0.2813 0.094-0.061 0.016-0.1242 0.027-0.1875 0.031-0.021 6e-4 -0.042 6e-4 -0.062 0-0.021-0.01-0.042-0.02-0.062-0.031-0.01 2e-4 -0.021 2e-4 -0.031 0-0.021 7e-4 -0.042 7e-4 -0.062 0-0.011-0.01-0.021-0.021-0.031-0.031-0.021 6e-4 -0.042 6e-4 -0.062 0-0.011-0.01-0.021-0.021-0.031-0.031-0.021 7e-4 -0.042 7e-4 -0.062 0-0.011-0.01-0.021-0.021-0.031-0.031-0.021-0.01-0.042-0.02-0.062-0.031-0.011-0.01-0.021-0.021-0.031-0.031-0.01 2e-4 -0.021 2e-4 -0.031 0-0.045-0.038-0.087-0.08-0.125-0.125-0.011-0.01-0.021-0.021-0.031-0.031-0.011-0.01-0.021-0.021-0.031-0.031-0.023-0.03-0.043-0.061-0.062-0.094-0.011-0.02-0.021-0.041-0.031-0.062-0.011-0.02-0.022-0.041-0.031-0.062-0.024-0.04-0.045-0.082-0.062-0.125-0.011-0.02-0.021-0.041-0.031-0.062v-0.125c-0.01-0.073-0.01-0.1461 0-0.2187-2e-4 -0.01-2e-4 -0.021 0-0.031 0.01-0.053 0.017-0.1051 0.031-0.1562-1e-4 -0.01-1e-4 -0.021 0-0.031 0.01-0.021 0.02-0.042 0.031-0.062z" style="fill-opacity:.5;fill:currentColor" class="ColorScheme-Background"/>
</svg>
