<?xml version="1.0" encoding="UTF-8" standalone="no"?>
<svg
   xmlns:dc="http://purl.org/dc/elements/1.1/"
   xmlns:cc="http://creativecommons.org/ns#"
   xmlns:rdf="http://www.w3.org/1999/02/22-rdf-syntax-ns#"
   xmlns:svg="http://www.w3.org/2000/svg"
   xmlns="http://www.w3.org/2000/svg"
   id="svg2"
   height="16"
   width="16"
   version="1.1">
  <defs
     id="defs4">
    <style
       id="current-color-scheme"
       type="text/css">.ColorScheme-Text {color:#090d11;}.ColorScheme-Background{color:#ffffff;}</style>
  </defs>
  <metadata
     id="metadata7">
    <rdf:RDF>
      <cc:Work
         rdf:about="">
        <dc:format>image/svg+xml</dc:format>
        <dc:type
           rdf:resource="http://purl.org/dc/dcmitype/StillImage" />
        <dc:title></dc:title>
      </cc:Work>
    </rdf:RDF>
  </metadata>
  <path
     id="rect3654"
	  class="ColorScheme-Background"
     d="M 0 0 L 0 16 L 16 16 L 16 0 L 0 0 z M 1 1 L 15 1 L 15 15 L 12 15 L 12 10 L 10 10 L 10 8 L 6 8 L 6 10 L 4 10 L 4 15 L 1 15 L 1 1 z M 6 8 L 6 5 L 3 5 L 3 8 L 6 8 z M 10 8 L 13 8 L 13 5 L 10 5 L 10 8 z M 6 13 L 10 13 L 10 15 L 6 15 L 6 13 z "
     style="fill:currentColor;fill-opacity:0.5" />
  <path
     id="path3687"
	  class="ColorScheme-Text"
     d="m 1,1 0,14 3,0 0,-5 2,0 0,-2 -3,0 0,-3 3,0 0,3 4,0 0,-3 3,0 0,3 -3,0 0,2 2,0 0,5 3,0 0,-14 z m 5,12 0,2 4,0 0,-2 z"
     style="fill:currentColor;fill-opacity:0.75" />
</svg>
