<?xml version="1.0" encoding="UTF-8"?>
<svg id="x" width="16" height="16" version="1.1" xmlns="http://www.w3.org/2000/svg" xmlns:cc="http://creativecommons.org/ns#" xmlns:dc="http://purl.org/dc/elements/1.1/" xmlns:rdf="http://www.w3.org/1999/02/22-rdf-syntax-ns#" xmlns:xlink="http://www.w3.org/1999/xlink">
	<defs id="e">
		<style id="current-color-scheme" type="text/css">.ColorScheme-Text{color:#090d11;}.ColorScheme-Background{color:#ffffff;}</style>
	</defs>
	<metadata id="t">
		<rdf:RDF>
			<cc:Work rdf:about="">
				<dc:format>image/svg+xml</dc:format>
				<dc:type rdf:resource="http://purl.org/dc/dcmitype/StillImage"/>
				<dc:title/>
			</cc:Work>
		</rdf:RDF>
	</metadata>
	<path id="p" d="m1.668 12.833c0.65943-0.6157 1.285-0.86933 1.9206-1.2285v-0.47227c0.036149-0.09329 0.090373-0.19124 0.40347-0.35916l0.76846-0.01866c0.17025-0.22448 0.32709-0.38598 0.57605-0.35916 1.5226 2.1094 3.2955 2.5708 5.2582 1.2544l-3.5351-3.6252c-0.47694 0.42155-1.1418 1.077-1.6846 1.3697-0.72473-0.55331-1.3952-1.1824-1.9398-1.9841l3.3228-2.9269 2.766-0.17025 0.55681 0.56672c-0.49268 0.57314-1.1785 1.308-1.6712 1.7744l3.4678 3.6707c2.9608-3.9305-0.94317-8.1775-4.2874-9.3049 5.0687 0.79398 9.485 5.2813 5.8761 10.871l1.4352 1.5852-1.4649 1.3699-1.3647-1.4354c-2.4328 2.169-5.8378 1.5827-7.3107-0.65295-0.48335 0.77079-1.0594 1.4396-1.748 1.9841-1.5356 0.83652-2.6359-0.70816-1.3451-1.9089z" style="fill:currentColor;fill-opacity:0.75;" class="ColorScheme-Text"/>
	<path id="k" d="m7.5449 0.021422a1.0001 1.0001 0 0 0-0.27344 1.9453c0.758 0.25554 1.5652 0.7455 2.3066 1.3496a1.0001 1.0001 0 0 0-0.11523-0.00195l-2.7656 0.16992a1.0001 1.0001 0 0 0-0.59961 0.24805l-3.3242 2.9277a1.0001 1.0001 0 0 0-0.16602 1.3125c0.50152 0.73832 1.1223 1.27 1.7402 1.7871-0.00164 0.0014-0.00228 0.00251-0.00391 0.00391l-0.375 0.00977a1.0001 1.0001 0 0 0-0.44922 0.11914c-0.20673 0.11087-0.37764 0.21964-0.53906 0.38086-0.16142 0.16121-0.28788 0.40427-0.32422 0.49805a1.0001 1.0001 0 0 0-0.064453 0.28906 1.0001 1.0001 0 0 0 0 2e-3c-0.49278 0.25904-1.0045 0.47797-1.6055 1.0391-0.90574 0.84254-1.1443 2.1477-0.52148 3.0273 0.62286 0.87964 1.9444 1.0821 3.0273 0.49219a1.0001 1.0001 0 0 0 0.14062-0.09375c0.47868-0.37857 0.81679-0.88953 1.1992-1.3594 1.835 1.6996 4.6646 2.0038 7.0391 0.48438l0.83984 0.88281a1.0001 1.0001 0 0 0 1.4082 0.04102l1.4648-1.3691a1.0001 1.0001 0 0 0 0.05859-1.4023l-0.99023-1.0938c1.5059-2.808 1.328-5.5713-0.03906-7.6113-1.4371-2.1445-3.9427-3.4987-6.6172-3.9805-0.029446-0.010296-0.056502-0.036952-0.085938-0.046875l-0.00391 0.015625c-0.057263-0.0098344-0.10469-0.047646-0.16211-0.056641a1.0001 1.0001 0 0 0-0.19922-0.0097656zm0.044922 0.99805c5.0687 0.79398 9.4859 5.2811 5.877 10.871l1.4336 1.5859-1.4648 1.3691-1.3633-1.4355c-2.4328 2.169-5.8377 1.5833-7.3105-0.65234-0.48335 0.77079-1.0595 1.4398-1.748 1.9844-1.5356 0.83652-2.6365-0.70745-1.3457-1.9082 0.65943-0.6157 1.2844-0.86936 1.9199-1.2285v-0.47266c0.036149-0.09329 0.091199-0.19146 0.4043-0.35937l0.76758-0.01953c0.17025-0.22448 0.32721-0.3862 0.57617-0.35938 1.5226 2.1094 3.297 2.5723 5.2598 1.2559l-3.5352-3.625c-0.47694 0.42155-1.1427 1.0764-1.6855 1.3691-0.72473-0.55331-1.3949-1.1827-1.9395-1.9844l3.3223-2.9277 2.7656-0.16992 0.55664 0.56641c-0.49268 0.57314-1.1772 1.309-1.6699 1.7754l3.4668 3.6699c2.9608-3.9305-0.94289-8.1773-4.2871-9.3047zm3.4863 3.9375c0.04415 0.066533 0.12523 0.11417 0.16602 0.18164 0.6496 1.0747 0.6976 2.1932 0.28906 3.3633l-1.748-1.8496c0.36755-0.38386 0.74361-0.75694 1.0566-1.1211a1.0001 1.0001 0 0 0 0.23633-0.57422zm-4.0996 4.4141 1.7441 1.7891c-0.21078 0.01751-0.48826 0.22345-0.68359 0.17578-0.52923-0.12915-1.1305-0.61339-1.75-1.4121 0.26471-0.19065 0.47146-0.35505 0.68945-0.55273z" style="fill:currentColor;fill-opacity:0.5;" class="ColorScheme-Background"/>
</svg>
