<?xml version="1.0" encoding="UTF-8"?>
<svg id="g" width="16" height="16" version="1.1" xmlns="http://www.w3.org/2000/svg" xmlns:cc="http://creativecommons.org/ns#" xmlns:dc="http://purl.org/dc/elements/1.1/" xmlns:rdf="http://www.w3.org/1999/02/22-rdf-syntax-ns#">
	<metadata id="b">
		<rdf:RDF>
			<cc:Work rdf:about="">
				<dc:format>image/svg+xml</dc:format>
				<dc:type rdf:resource="http://purl.org/dc/dcmitype/StillImage"/>
				<dc:title/>
			</cc:Work>
		</rdf:RDF>
	</metadata>
	<defs>
		<style id="current-color-scheme" type="text/css">.ColorScheme-Text {color:#090d11;}.ColorScheme-Background{color:#ffffff;}</style>
	</defs>
	<path id="f" d="m1 1v14h14v-14zm7.3125 1.8582c0.67773-0.00622 1.3417 0.19997 1.5017 0.46909l-0.5143 0.84737c-0.25489-0.26347-1.0277-0.48773-1.145-0.18591-0.39141 0.97956 1.8901 0.5173 1.6362 1.9347-0.34345 1.9179-2.9998 1.0272-3.1709 0.51254l0.45437-0.77454c0.72914 0.6669 1.5525 0.57532 1.6944 0.1804 0.28532-0.79376-2.0292-0.44593-1.6846-1.9149 0.20934-0.89252 0.62494-1.003 1.2282-1.0688zm-5.2881 0.088834h2.1403c0.62153 0 1.2401 0.67016 1.2401 1.4065 0 0.73629-0.68226 1.3837-1.2401 1.3837h-1.1647v1.2628l-0.97558 0.01051zm0.97558 0.73563v1.2961h0.86874c0.35877 0 0.6463-0.28928 0.6463-0.64805s-0.31044-0.52191-0.6463-0.64805zm-0.99998 8.3174h4v1h-4z" style="fill-opacity:.75;fill:currentColor" class="ColorScheme-Text"/>
	<path id="h" d="m0 0v16h16v-16zm1 1h14v14h-14zm7.3125 1.8574c-0.58703 0.0425-1.0167 0.19332-1.2285 1.0703-0.3542 1.4667 1.9709 1.1203 1.6855 1.9141-0.1419 0.39492-0.96617 0.48721-1.6953-0.17969l-0.45312 0.77344c0.1711 0.51465 2.8092 1.403 3.1699-0.51172 0.2702-1.4337-2.0281-0.95599-1.6367-1.9355 0.14994-0.31814 0.89159-0.077923 1.1465 0.18555l0.51367-0.8457c-0.13882-0.2335-0.66086-0.41201-1.2383-0.45312l0.00195 0.00391c-0.00945-7.758e-4 -0.019713-0.00134-0.029297-0.00195l-0.00195-0.00391c-0.078554-0.0049-0.15464-0.016357-0.23438-0.015625zm-5.2891 0.089844 0.00195 4.0625 0.97461-0.00977v-1.2637h1.1641c0.53655 0.15263 1.2402-0.64652 1.2402-1.3828 0-0.73634-0.63499-1.5476-1.2402-1.4062h-2.1406zm0.97656 0.73633h0.86914c0.35875 0.00363 0.64648 0.28771 0.64648 0.64648s-0.3355 0.46954-0.64648 0.64844h-0.86914v-1.2949zm-1 8.3164v1h4v-1z" style="fill-opacity:.5;fill:currentColor" class="ColorScheme-Background"/>
</svg>
