<?xml version="1.0" encoding="UTF-8"?>
<!-- Created with Inkscape (http://www.inkscape.org/) -->
<svg width="16" height="16" version="1.1" xmlns="http://www.w3.org/2000/svg" xmlns:cc="http://creativecommons.org/ns#" xmlns:dc="http://purl.org/dc/elements/1.1/" xmlns:rdf="http://www.w3.org/1999/02/22-rdf-syntax-ns#">
	<defs>
		<radialGradient id="b" cx="8.0467" cy="8.006" r="7.9533" gradientTransform="matrix(1.5029,0,0,1.4919,-4.0469,-3.938)" gradientUnits="userSpaceOnUse">
			<stop stop-color="#ffffff" stop-opacity=".74858" offset="0"/>
			<stop stop-color="#ffffff" stop-opacity=".60511" offset="1"/>
		</radialGradient>
		<radialGradient id="a" cx="8.0057" cy="8.0097" r="6.9939" gradientTransform="matrix(1.572,0,0,1.5738,-4.5792,-4.5963)" gradientUnits="userSpaceOnUse">
			<stop stop-color="#213851" stop-opacity=".9059" offset="0"/>
			<stop stop-color="#27303a" stop-opacity="0" offset="1"/>
		</radialGradient>
	</defs>
	<metadata>
		<rdf:RDF>
			<cc:Work rdf:about="">
				<dc:format>image/svg+xml</dc:format>
				<dc:type rdf:resource="http://purl.org/dc/dcmitype/StillImage"/>
				<dc:title/>
			</cc:Work>
		</rdf:RDF>
	</metadata>
	<g transform="translate(3360.4 -2096.7)">
		<g transform="rotate(180 -1467.2 1584.1)">
			<path transform="translate(410,1055.4)" d="m7.998 0.11133c-4.0954 0.025-7.5095 3.1689-7.873 7.25-0.36354 4.081 2.4404 7.7778 6.4668 8.5273a0.50005 0.50005 0 1 0 0.18359-0.98242c-0.89024-0.16571-1.7102-0.49607-2.4355-0.95312a0.50005 0.50005 0 0 1-0.076172-0.04297c-2.9391-1.861-4.0639-5.6097-2.6348-8.7812 1.0719-2.3786 3.3404-3.8963 5.8164-4.0977 0.20633-0.014 0.41451-0.023438 0.62305-0.023438 0.62562 0.0052 1.2583 0.095644 1.8848 0.27734 2.7986 0.81149 4.7374 3.2522 5.0078 6.0469 0.0011 0.010549 0.0028 0.020686 0.0039 0.03125 0.0016 0.015705 4.66e-4 0.031183 2e-3 0.046875 0.01376 0.16118 0.02292 0.32312 0.02539 0.48633 0.0032 0.1252 0.0015 0.24903-2e-3 0.37305-0.0015 0.039751-0.0017 0.07931-0.0039 0.11914-0.14265 3.1519-2.4052 5.8696-5.584 6.502a0.50005 0.50005 0 1 0 0.19531 0.98047c4.0168-0.799 6.7751-4.5311 6.3613-8.6074-0.41377-4.0763-3.8655-7.1776-7.9609-7.1523zm0.00781 2.8965a4.994 4.9937 0 0 0-4.9941 4.9941 4.994 4.9937 0 0 0 3.9883 4.8867v-2.8887a1.0001 1.0001 0 0 1 0.98438-1.0137 1.0001 1.0001 0 0 1 1.0156 1.0137v2.8965a4.994 4.9937 0 0 0 4-4.8945 4.994 4.9937 0 0 0-4.9941-4.9941zm-0.00586 1.9922a1.0001 1.0001 0 0 1 1 1 1.0001 1.0001 0 0 1-1 1 1.0001 1.0001 0 0 1-1-1 1.0001 1.0001 0 0 1 1-1z" fill="url(#b)" fill-opacity=".99858" style="paint-order:normal"/>
			<path d="m418.07 1056.4c-0.20854 0-0.41671 0.01-0.62305 0.024-2.476 0.2014-4.7445 1.719-5.8164 4.0976-1.4292 3.1715-0.3043 6.9203 2.6348 8.7813a0.50005 0.50005 0 1 0 0.53516-0.8438c-2.5247-1.5985-3.4855-4.8011-2.2578-7.5254 1.2276-2.7242 4.2647-4.1271 7.1348-3.2949s4.684 3.6413 4.2637 6.5996c-0.37269 2.6233-2.4014 4.6384-4.9394 5.0625v-3.9082a1.0001 1.0001 0 0 0-1.0156-1.0137 1.0001 1.0001 0 0 0-0.98437 1.0137v4a1.0001 1.0001 0 0 0 1.2324 0.9844c3.3792-0.1092 6.2187-2.6296 6.6973-5.9981 0.48929-3.444-1.6355-6.7323-4.9766-7.7011-0.62645-0.1817-1.2591-0.2722-1.8848-0.2774zm-0.0684 3.9922a1.0001 1.0001 0 0 0-1 1 1.0001 1.0001 0 0 0 1 1 1.0001 1.0001 0 0 0 1-1 1.0001 1.0001 0 0 0-1-1z" color="#000000" color-rendering="auto" dominant-baseline="auto" fill="#090d11" fill-opacity=".76621" image-rendering="auto" shape-rendering="auto" solid-color="#000000" style="font-feature-settings:normal;font-variant-alternates:normal;font-variant-caps:normal;font-variant-ligatures:normal;font-variant-numeric:normal;font-variant-position:normal;isolation:auto;mix-blend-mode:normal;paint-order:normal;shape-padding:0;text-decoration-color:#000000;text-decoration-line:none;text-decoration-style:solid;text-indent:0;text-orientation:mixed;text-transform:none;white-space:normal"/>
			<path transform="translate(410,1055.4)" d="m8.0684 1.0078c-0.20854-0.00173-0.41671 0.00664-0.62305 0.023438-2.476 0.2014-4.7445 1.7191-5.8164 4.0977-1.4292 3.1715-0.30429 6.9202 2.6348 8.7812a0.50005 0.50005 0 1 0 0.53516-0.84375c-2.5247-1.5985-3.4855-4.8011-2.2578-7.5254 1.2276-2.7242 4.2647-4.1271 7.1348-3.2949 2.87 0.8322 4.684 3.6413 4.2637 6.5996-0.37269 2.6233-2.4014 4.6384-4.9395 5.0625v-3.9082a1.0001 1.0001 0 0 0-1.0156-1.0137 1.0001 1.0001 0 0 0-0.98438 1.0137v4a1.0001 1.0001 0 0 0 1.2324 0.98438c3.3792-0.10916 6.2187-2.6296 6.6973-5.998 0.48929-3.444-1.6355-6.7324-4.9766-7.7012-0.62645-0.18165-1.2591-0.27215-1.8848-0.27734zm-0.068359 3.9922a1.0001 1.0001 0 0 0-1 1 1.0001 1.0001 0 0 0 1 1 1.0001 1.0001 0 0 0 1-1 1.0001 1.0001 0 0 0-1-1z" color="#000000" color-rendering="auto" dominant-baseline="auto" fill="url(#a)" fill-opacity=".75328" image-rendering="auto" shape-rendering="auto" solid-color="#000000" style="font-feature-settings:normal;font-variant-alternates:normal;font-variant-caps:normal;font-variant-ligatures:normal;font-variant-numeric:normal;font-variant-position:normal;isolation:auto;mix-blend-mode:normal;paint-order:normal;shape-padding:0;text-decoration-color:#000000;text-decoration-line:none;text-decoration-style:solid;text-indent:0;text-orientation:mixed;text-transform:none;white-space:normal"/>
		</g>
	</g>
</svg>
