<?xml version="1.0" encoding="UTF-8" standalone="no"?>
<svg
   xmlns:dc="http://purl.org/dc/elements/1.1/"
   xmlns:cc="http://creativecommons.org/ns#"
   xmlns:rdf="http://www.w3.org/1999/02/22-rdf-syntax-ns#"
   xmlns:svg="http://www.w3.org/2000/svg"
   xmlns="http://www.w3.org/2000/svg"
   version="1.1"
   height="16"
   width="16"
   id="a">
  <metadata
     id="b">
    <rdf:RDF>
      <cc:Work
         rdf:about="">
        <dc:format>image/svg+xml</dc:format>
        <dc:type
           rdf:resource="http://purl.org/dc/dcmitype/StillImage" />
        <dc:title></dc:title>
      </cc:Work>
    </rdf:RDF>
  </metadata>
  <defs
     id="e">
    <style
       type="text/css"
       id="current-color-scheme">.ColorScheme-Text {color:#090d11;}.ColorScheme-Background{color:#ffffff;}</style>
  </defs>
  <path
     id="c" class="ColorScheme-Text" style="fill-opacity:.75;fill:currentColor"
     d="M 3 1 C 1.9093 1 1 1.9093 1 3 L 1 10 C 1 11.0907 1.9093 12 3 12 L 6 12 C 6.55228 12 7 12.4477 7 13 L 9 13 C 9 12.4477 9.44772 12 10 12 L 13 12 C 14.0907 12 15 11.0907 15 10 L 15 3 C 15 1.9093 14.0907 1 13 1 L 3 1 z M 2 2 L 14 2 L 14 11 L 2 11 L 2 2 z M 4 3 L 4 4 L 5 4 L 5 3 L 4 3 z M 4 4 L 3 4 L 3 5 L 4 5 L 4 4 z M 11 3 L 11 4 L 12 4 L 12 3 L 11 3 z M 12 4 L 12 5 L 13 5 L 13 4 L 12 4 z M 3 8 L 3 9 L 4 9 L 4 8 L 3 8 z M 4 9 L 4 10 L 5 10 L 5 9 L 4 9 z M 12 8 L 12 9 L 13 9 L 13 8 L 12 8 z M 12 9 L 11 9 L 11 10 L 12 10 L 12 9 z M 4 14 L 4 15 L 12 15 L 12 14 L 4 14 z "
      />
  <path
     id="d" class="ColorScheme-Background" 
     d="M 1.5 0 C 0.67765 0 0 0.6775 0 1.5 L 0 11.5 C 0 12.3224 0.67765 13 1.5 13 L 7 13 C 7 12.4477 6.55228 12 6 12 L 1.5 12 C 1.21435 12 1.04694 11.7816 1 11.5 L 1 1.5 C 1 1.2143 1.21435 1 1.5 1 L 14.5 1 C 14.78565 1 15 1.2143 15 1.5 L 15 11.5 C 15 11.7855 14.78565 12 14.5 12 L 10 12 C 9.44772 12 9 12.4477 9 13 L 14.5 13 C 15.32235 13 16 12.3224 16 11.5 L 16 1.5 C 16 0.6775 15.32235 1.4802974e-16 14.5 0 L 1.5 0 z M 9 13 L 7 13 L 7 14 L 9 14 L 9 13 z M 4 2 L 4 3 L 5 3 L 5 2 L 4 2 z M 4 3 L 3 3 L 3 4 L 4 4 L 4 3 z M 3 4 L 2 4 L 2 5 L 3 5 L 3 4 z M 11 2 L 11 3 L 12 3 L 12 2 L 11 2 z M 12 3 L 12 4 L 13 4 L 13 3 L 12 3 z M 13 4 L 13 5 L 14 5 L 14 4 L 13 4 z M 2 8 L 2 9 L 3 9 L 3 8 L 2 8 z M 3 9 L 3 10 L 4 10 L 4 9 L 3 9 z M 4 10 L 4 11 L 5 11 L 5 10 L 4 10 z M 13 8 L 13 9 L 14 9 L 14 8 L 13 8 z M 13 9 L 12 9 L 12 10 L 13 10 L 13 9 z M 12 10 L 11 10 L 11 11 L 12 11 L 12 10 z M 3 15 L 3 16 L 13 16 L 13 15 L 3 15 z "
     style="fill-opacity:.5;fill:currentColor" />
</svg>
