<?xml version="1.0" encoding="UTF-8" standalone="no"?>
<svg
   xmlns:dc="http://purl.org/dc/elements/1.1/"
   xmlns:cc="http://creativecommons.org/ns#"
   xmlns:rdf="http://www.w3.org/1999/02/22-rdf-syntax-ns#"
   xmlns:svg="http://www.w3.org/2000/svg"
   xmlns="http://www.w3.org/2000/svg"
   version="1.1"
   height="16"
   width="16"
   id="a">
  <metadata
     id="d">
    <rdf:RDF>
      <cc:Work
         rdf:about="">
        <dc:format>image/svg+xml</dc:format>
        <dc:type
           rdf:resource="http://purl.org/dc/dcmitype/StillImage" />
        <dc:title></dc:title>
      </cc:Work>
    </rdf:RDF>
  </metadata>
  <defs
     id="defs4">
    <style
       type="text/css"
       id="current-color-scheme">.ColorScheme-Text {color:#090d11;}.ColorScheme-Background{color:#ffffff;}</style>
  </defs>
  <path
     style="fill:currentColor;fill-opacity:0.75"
     d="M 2,1 C 1.4459,1 1,1.4459 1,2 v 4 c 0,0.5541 0.4459,1 1,1 h 10 c 0.5541,0 1,-0.4459 1,-1 V 2 C 13,1.4459 12.5541,1 12,1 Z M 14.492,2.9922 A 0.50005,0.50005 0 0 0 13.9978,3.5 V 8 h -6.5 a 0.50005,0.50005 0 0 0 -0.5,0.5 V 10 h -0.998 v 5 h 3 V 10 H 7.9978 V 9 h 6.5 a 0.50005,0.50005 0 0 0 0.5,-0.5 v -5 A 0.50005,0.50005 0 0 0 14.492,2.9922 Z"
     class="ColorScheme-Text"
     id="c" />
  <path
     style="fill:currentColor;fill-opacity:0.5"
     d="M 2.002,0 C 0.9025,0 -0.0019,0.9006 -0.0019,2 v 4 c 0,1.0994 0.90441,2 2.0039,2 H 6.2071 C 6.1381,8.1709 5.99822,8.3069 5.99812,8.5 V 9 C 5.44662,9.0011 5.00013,9.4485 5.00007,10 v 5 c 5.52e-5,0.55226 0.44774,0.99994 1,1 h 3 c 0.55226,-5.5e-5 0.99994,-0.44774 1,-1 v -5 h 4.498 c 0.8165,-10e-5 1.5,-0.6835 1.5,-1.5 V 3 h -1 v 5.5 a 0.50005,0.50005 0 0 1 -0.03906,0.19336 c -2.41e-4,5.76e-4 2.44e-4,0.0014 0,0.0019 a 0.50005,0.50005 0 0 1 -0.002,0.0039 0.50005,0.50005 0 0 1 -0.10547,0.1543 0.50005,0.50005 0 0 1 -0.002,0 0.50005,0.50005 0 0 1 -0.15625,0.10742 0.50005,0.50005 0 0 1 -0.19531,0.03906 h -6.5 v 1 h 1.002 v 5 h -3 v -5 h 0.99805 v -1.5 A 0.50005,0.50005 0 0 1 7.037092,8.30658 c 8.091e-4,-0.0019 0.00112,-0.0039 0.00195,-0.0059 a 0.50005,0.50005 0 0 1 0.10547,-0.1543 0.50005,0.50005 0 0 1 0.00195,0 0.50005,0.50005 0 0 1 0.15625,-0.10742 0.50005,0.50005 0 0 1 0.19541,-0.039061 h 4.5 c 1.0994,0 2,-0.9006 2,-2 v -2.5 a 0.50005,0.50005 0 0 1 0,-0.037109 v -1.4629 c 0,-1.0994 -0.9006,-2 -2,-2 h -9.9961 z M 2.00005,1 h 10 c 0.01957,3.63e-5 0.03544,0.010638 0.05469,0.011719 0.39636,0.022257 0.72574,0.25273 0.86719,0.59766 0.01412,0.0335 0.01102,0.074106 0.02148,0.10938 0.02694,0.090778 0.05664,0.18149 0.05664,0.28125 v 4 c 0,0.099765 -0.0297,0.19047 -0.05664,0.28125 -0.01047,0.035269 -0.0074,0.075876 -0.02148,0.10938 -0.14145,0.34493 -0.47082,0.5754 -0.86719,0.59766 -0.01925,0.00108 -0.03512,0.011682 -0.05469,0.011719 h -9.998 c -6.715e-4,0 -0.00128,1.2e-6 -0.00195,0 -0.019447,0 -0.035522,-0.010635 -0.054688,-0.011719 -0.53371,-0.029949 -0.94727,-0.44583 -0.94727,-0.98828 v -4 c 0,-0.54245 0.41356,-0.95833 0.94727,-0.98828 C 1.964578,1.010659 1.980653,1.00002 2.0001,1.00002 Z"
     class="ColorScheme-Background"
     id="e" />
</svg>
