<?xml version="1.0" encoding="UTF-8"?>
<svg id="d" width="16" height="16" version="1.1" xmlns="http://www.w3.org/2000/svg" xmlns:cc="http://creativecommons.org/ns#" xmlns:dc="http://purl.org/dc/elements/1.1/" xmlns:rdf="http://www.w3.org/1999/02/22-rdf-syntax-ns#">
	<metadata id="a">
		<rdf:RDF>
			<cc:Work rdf:about="">
				<dc:format>image/svg+xml</dc:format>
				<dc:type rdf:resource="http://purl.org/dc/dcmitype/StillImage"/>
			</cc:Work>
		</rdf:RDF>
	</metadata>
	<defs id="c">
		<style id="current-color-scheme" type="text/css">
			.ColorScheme-Text {color:#090d11;}
			.ColorScheme-Background{color:#ffffff;}
		</style>
	</defs>
	<g class="ColorScheme-Background" style="fill:currentColor">
		<path d="m8 0c-1.4042 2.367e-5 -2.784 0.37016-4 1.0723a0.5 0.5 0 0 0-0.18359 0.68164 0.5 0.5 0 0 0 0.68359 0.18359c1.0641-0.61436 2.2713-0.93748 3.5-0.9375a0.5 0.5 0 0 0 0.5-0.5 0.5 0.5 0 0 0-0.5-0.5z" style="fill-opacity:.09;opacity:.356"/>
		<path d="m8 0c-2.1214 1.8478e-5 -4.1562 0.84368-5.6562 2.3438a0.5 0.5 0 0 0 0 0.70703 0.5 0.5 0 0 0 0.70703 0c1.3128-1.3128 3.0927-2.0508 4.9492-2.0508a0.5 0.5 0 0 0 0.5-0.5 0.5 0.5 0 0 0-0.5-0.5z" style="fill-opacity:.09;opacity:.356"/>
		<path d="m8 0c-2.8571 2.1912e-5 -5.4992 1.5256-6.9277 4a0.5 0.5 0 0 0 0.18359 0.68359 0.5 0.5 0 0 0 0.68164-0.18359c1.2507-2.1664 3.561-3.5 6.0625-3.5a0.5 0.5 0 0 0 0.5-0.5 0.5 0.5 0 0 0-0.5-0.5z" style="fill-opacity:.09;opacity:.356"/>
		<path d="m8 0c-3.6182 3.4384e-5 -6.7901 2.4347-7.7266 5.9297a0.5 0.5 0 0 0 0.35352 0.61133 0.5 0.5 0 0 0 0.61133-0.35352c0.82055-3.0624 3.5913-5.1875 6.7617-5.1875a0.5 0.5 0 0 0 0.5-0.5 0.5 0.5 0 0 0-0.5-0.5z" style="fill-opacity:.09;opacity:.356"/>
		<path d="m8 0c-4.4121 0-8 3.5879-8 8a0.5 0.5 0 0 0 0.5 0.5 0.5 0.5 0 0 0 0.5-0.5c0-3.8717 3.1284-7 7-7a0.5 0.5 0 0 0 0.5-0.5 0.5 0.5 0 0 0-0.5-0.5z" style="fill-opacity:.09;opacity:.356"/>
		<path d="m8 0c-2.4865 3.4797e-5 -4.832 1.1581-6.3457 3.1309-1.5137 1.9727-2.0244 4.5376-1.3809 6.9395a0.5 0.5 0 0 0 0.61133 0.35352 0.5 0.5 0 0 0 0.35352-0.61328c-0.56332-2.1024-0.11597-4.3455 1.209-6.0723 1.3249-1.7268 3.3763-2.7383 5.5527-2.7383a0.5 0.5 0 0 0 0.5-0.5 0.5 0.5 0 0 0-0.5-0.5z" style="fill-opacity:.09;opacity:.356"/>
		<path d="m8 0c-2.8571 2.1912e-5 -5.4992 1.5256-6.9277 4-1.4286 2.4744-1.4286 5.5256 0 8a0.5 0.5 0 0 0 0.68359 0.18359 0.5 0.5 0 0 0 0.18164-0.68359c-1.2507-2.1664-1.2507-4.8336 0-7 1.2507-2.1664 3.561-3.5 6.0625-3.5a0.5 0.5 0 0 0 0.5-0.5 0.5 0.5 0 0 0-0.5-0.5z" style="fill-opacity:.09;opacity:.356"/>
		<path d="m8 0c-3.2341 2.7882e-5 -6.153 1.9515-7.3906 4.9395-1.2376 2.9879-0.55246 6.4299 1.7344 8.7168a0.5 0.5 0 0 0 0.70703 0 0.5 0.5 0 0 0 0-0.70703c-2.0029-2.0029-2.6015-5.0101-1.5176-7.627 1.0839-2.6169 3.6343-4.3222 6.4668-4.3223a0.5 0.5 0 0 0 0.5-0.5 0.5 0.5 0 0 0-0.5-0.5z" style="fill-opacity:.09;opacity:.356"/>
		<path d="m8 0c-3.6182 3.4384e-5 -6.7901 2.4347-7.7266 5.9297-0.93647 3.495 0.59311 7.1889 3.7266 8.998a0.5 0.5 0 0 0 0.68359-0.18359 0.5 0.5 0 0 0-0.18359-0.68164c-2.7457-1.5852-4.0823-4.8106-3.2617-7.873 0.82055-3.0624 3.5913-5.1894 6.7617-5.1895a0.5 0.5 0 0 0 0.5-0.5 0.5 0.5 0 0 0-0.5-0.5z" style="fill-opacity:.09;opacity:.356"/>
		<path d="m8 0c-4.0105 2.138e-5 -7.4082 2.9788-7.9316 6.9551-0.52351 3.9763 1.9874 7.7335 5.8613 8.7715a0.5 0.5 0 0 0 0.61133-0.35352 0.5 0.5 0 0 0-0.35352-0.61133c-3.3966-0.91014-5.586-4.1894-5.127-7.6758 0.45899-3.4864 3.423-6.0859 6.9395-6.0859a0.5 0.5 0 0 0 0.5-0.5 0.5 0.5 0 0 0-0.5-0.5z" style="fill-opacity:.09;opacity:.356"/>
		<path d="m8 0c-2.8571 2.1912e-5 -5.4992 1.5256-6.9277 4-1.4286 2.4744-1.4286 5.5256 0 8 1.4286 2.4744 4.0706 3.998 6.9277 3.998a0.5 0.5 0 0 0 0.5-0.5 0.5 0.5 0 0 0-0.5-0.5c-2.5015-1.9e-5 -4.8118-1.3317-6.0625-3.498-1.2507-2.1664-1.2507-4.8336 0-7 1.2507-2.1664 3.561-3.5 6.0625-3.5a0.5 0.5 0 0 0 0.5-0.5 0.5 0.5 0 0 0-0.5-0.5z" style="fill-opacity:.09;opacity:.356"/>
		<path d="m8 0c-3.1077 3.6018e-5 -5.9367 1.8026-7.25 4.6191-1.3134 2.8166-0.87651 6.1428 1.1211 8.5234 1.9976 2.3806 5.1975 3.3883 8.1992 2.584a0.5 0.5 0 0 0 0.35352-0.61133 0.5 0.5 0 0 0-0.61328-0.35352c-2.6287 0.70434-5.4226-0.17699-7.1719-2.2617-1.7493-2.0848-2.1326-4.9925-0.98242-7.459 1.1501-2.4665 3.6223-4.041 6.3438-4.041a0.5 0.5 0 0 0 0.5-0.5 0.5 0.5 0 0 0-0.5-0.5z" style="fill-opacity:.09;opacity:.356"/>
		<path d="m8 0c-3.3613 1.3447e-5 -6.368 2.1051-7.5176 5.2637-1.1497 3.1586-0.19988 6.7046 2.375 8.8652 2.5749 2.1606 6.2317 2.4795 9.1426 0.79883a0.5 0.5 0 0 0 0.18359-0.68359 0.5 0.5 0 0 0-0.68359-0.18164c-2.5498 1.4722-5.7426 1.1914-7.998-0.70117-2.2555-1.8926-3.0852-4.9891-2.0781-7.7559 1.007-2.7668 3.6319-4.6055 6.5762-4.6055a0.5 0.5 0 0 0 0.5-0.5 0.5 0.5 0 0 0-0.5-0.5z" style="fill-opacity:.09;opacity:.356"/>
		<path d="m8 0c-3.6182 3.4384e-5 -6.7901 2.4347-7.7266 5.9297-0.93647 3.495 0.59311 7.1889 3.7266 8.998 3.1334 1.8091 7.0978 1.287 9.6562-1.2715a0.5 0.5 0 0 0 0-0.70703 0.5 0.5 0 0 0-0.70703 0c-2.2418 2.2419-5.7036 2.6985-8.4492 1.1133-2.7457-1.5852-4.0823-4.8126-3.2617-7.875 0.82055-3.0624 3.5913-5.1875 6.7617-5.1875a0.5 0.5 0 0 0 0.5-0.5 0.5 0.5 0 0 0-0.5-0.5z" style="fill-opacity:.09;opacity:.356"/>
		<path d="m8 0c-3.8788 3.3262e-5 -7.2034 2.7915-7.877 6.6113-0.67359 3.8199 1.4957 7.5796 5.1406 8.9062 3.6448 1.3266 7.7247-0.15844 9.6641-3.5176a0.5 0.5 0 0 0-0.18359-0.68359 0.5 0.5 0 0 0-0.68164 0.18359c-1.7001 2.9446-5.262 4.241-8.457 3.0781-3.1951-1.1629-5.0885-4.4444-4.498-7.793 0.59043-3.3485 3.4925-5.7851 6.8926-5.7852a0.5 0.5 0 0 0 0.5-0.5 0.5 0.5 0 0 0-0.5-0.5z" style="fill-opacity:.09;opacity:.356"/>
		<path d="m8 0c-4.1433 3.5936e-5 -7.6077 3.1752-7.9688 7.3027-0.36111 4.1276 2.4997 7.8547 6.5801 8.5742 4.0804 0.71946 8.0429-1.8045 9.1152-5.8066a0.5 0.5 0 0 0-0.35352-0.61328 0.5 0.5 0 0 0-0.61133 0.35352c-0.94045 3.51-4.398 5.713-7.9766 5.082-3.5785-0.631-6.0745-3.882-5.7578-7.502 0.31669-3.62 3.3389-6.3906 6.9727-6.3906a0.5 0.5 0 0 0 0.5-0.5 0.5 0.5 0 0 0-0.5-0.5z" style="fill-opacity:.09;opacity:.356"/>
		<path d="m8 0c-3.2341 2.7882e-5 -6.153 1.9496-7.3906 4.9375-1.2376 2.9879-0.55246 6.4319 1.7344 8.7188 2.2868 2.2869 5.7289 2.972 8.7168 1.7344 2.9879-1.2376 4.9375-4.1565 4.9375-7.3906a0.5 0.5 0 0 0-0.5-0.5 0.5 0.5 0 0 0-0.5 0.5c2.2e-5 2.8325-1.7034 5.3828-4.3203 6.4668-2.6169 1.084-5.6241 0.48531-7.627-1.5176-2.0029-2.0029-2.6015-5.012-1.5176-7.6289 1.0839-2.6169 3.6343-4.3203 6.4668-4.3203a0.5 0.5 0 0 0 0.5-0.5 0.5 0.5 0 0 0-0.5-0.5z" style="fill-opacity:.09;opacity:.356"/>
		<path d="m8 0c-3.4252 1.1596e-5 -6.4733 2.1843-7.5742 5.4277-1.101 3.2435-0.012336 6.8328 2.7051 8.918 2.7174 2.0851 6.4646 2.2076 9.3125 0.30469 2.848-1.9029 4.1697-5.4122 3.2832-8.7207a0.5 0.5 0 0 0-0.61133-0.35352 0.5 0.5 0 0 0-0.35352 0.61133c0.77662 2.8983-0.37817 5.9658-2.873 7.6328-2.4948 1.667-5.7699 1.559-8.1504-0.26758-2.3805-1.8266-3.3317-4.9614-2.3672-7.8027 0.96446-2.8413 3.6284-4.75 6.6289-4.75a0.5 0.5 0 0 0 0.5-0.5 0.5 0.5 0 0 0-0.5-0.5z" style="fill-opacity:.09;opacity:.356"/>
		<path d="m8 0c-3.6182 3.4384e-5 -6.7901 2.4347-7.7266 5.9297-0.93647 3.495 0.59311 7.1889 3.7266 8.998 3.1334 1.8091 7.0978 1.287 9.6562-1.2715 2.5585-2.5585 3.0806-6.5227 1.2715-9.6562a0.5 0.5 0 0 0-0.68359-0.18359 0.5 0.5 0 0 0-0.18164 0.68359c1.5853 2.7457 1.1286 6.2073-1.1133 8.4492-2.2418 2.2419-5.7036 2.6985-8.4492 1.1133-2.7457-1.5852-4.0803-4.8126-3.2598-7.875 0.82055-3.0624 3.5894-5.1875 6.7598-5.1875a0.5 0.5 0 0 0 0.5-0.5 0.5 0.5 0 0 0-0.5-0.5z" style="fill-opacity:.09;opacity:.356"/>
		<path d="m8 0c-3.8133-4.6431e-7 -7.1018 2.6994-7.8457 6.4395-0.74397 3.7401 1.2621 7.4919 4.7852 8.9512 3.523 1.4593 7.5944 0.22339 9.7129-2.9473 2.1186-3.1707 1.7003-7.4032-0.99609-10.1a0.5 0.5 0 0 0-0.70703 0 0.5 0.5 0 0 0 0 0.70703c2.3634 2.3634 2.728 6.0588 0.87109 8.8379-1.8569 2.7791-5.4101 3.8572-8.498 2.5781-3.088-1.2791-4.8396-4.5538-4.1875-7.832 0.65206-3.2782 3.5229-5.6348 6.8652-5.6348a0.5 0.5 0 0 0 0.5-0.5 0.5 0.5 0 0 0-0.5-0.5z" style="fill-opacity:.09;opacity:.356"/>
		<path d="m8 0c-4.0105 2.138e-5 -7.4082 2.9788-7.9316 6.9551-0.52351 3.9763 1.9874 7.7335 5.8613 8.7715 3.8739 1.038 7.9262-0.96074 9.4609-4.666 1.5348-3.7053 0.082649-7.983-3.3906-9.9883a0.5 0.5 0 0 0-0.68359 0.18164 0.5 0.5 0 0 0 0.18359 0.68359c3.0454 1.7582 4.3125 5.4914 2.9668 8.7402-1.3457 3.2488-4.8807 4.9941-8.2773 4.084-3.3966-0.91014-5.5879-4.1894-5.1289-7.6758 0.45899-3.4864 3.423-6.0859 6.9395-6.0859a0.5 0.5 0 0 0 0.5-0.5 0.5 0.5 0 0 0-0.5-0.5z" style="fill-opacity:.09;opacity:.356"/>
		<path d="m8 0c-4.2101 2.4038e-5 -7.7071 3.2755-7.9824 7.4766-0.27539 4.2011 2.7634 7.9055 6.9375 8.4551 4.1741 0.54954 8.0693-2.2418 8.8906-6.3711 0.82137-4.1293-1.7087-8.1974-5.7754-9.2871a0.5 0.5 0 0 0-0.61328 0.35352 0.5 0.5 0 0 0 0.35352 0.61133c3.567 0.95577 5.7751 4.505 5.0547 8.127-0.72041 3.6219-4.1181 6.0562-7.7793 5.5742-3.6612-0.48204-6.3119-3.7135-6.0703-7.3984 0.24152-3.6849 3.2916-6.541 6.9844-6.541a0.5 0.5 0 0 0 0.5-0.5 0.5 0.5 0 0 0-0.5-0.5z" style="fill-opacity:.09;opacity:.356"/>
	</g>
	<g class="ColorScheme-Text" style="fill:currentColor;fill-opacity:.75">
		<path d="m8 1c-1.2286-4.2e-7 -2.436 0.32317-3.5 0.9375a0.5 0.5 0 0 0-0.18359 0.68359 0.5 0.5 0 0 0 0.68359 0.18359c0.91204-0.52658 1.9469-0.80469 3-0.80469a0.5 0.5 0 0 0 0.5-0.5 0.5 0.5 0 0 0-0.5-0.5z" style="opacity:.067;"/>
		<path d="m8 1c-1.8562-5.41e-6 -3.6367 0.73822-4.9492 2.0508a0.5 0.5 0 0 0 0 0.70703 0.5 0.5 0 0 0 0.70703 0c1.1252-1.1253 2.6509-1.7578 4.2422-1.7578a0.5 0.5 0 0 0 0.5-0.5 0.5 0.5 0 0 0-0.5-0.5z" style="opacity:.067;"/>
		<path d="m8 1c-2.4999-2.096e-5 -4.8126 1.335-6.0625 3.5a0.5 0.5 0 0 0 0.18359 0.68359 0.5 0.5 0 0 0 0.68359-0.18359c1.0721-1.857 3.0511-3 5.1953-3a0.5 0.5 0 0 0 0.5-0.5 0.5 0.5 0 0 0-0.5-0.5z" style="opacity:.067;"/>
		<path d="m8 1c-3.1656-4.045e-5 -5.9424 2.1297-6.7617 5.1875a0.5 0.5 0 0 0 0.35352 0.61328 0.5 0.5 0 0 0 0.61328-0.35352c0.70345-2.6253 3.0772-4.4473 5.7949-4.4473a0.5 0.5 0 0 0 0.5-0.5 0.5 0.5 0 0 0-0.5-0.5z" style="opacity:.067;"/>
		<path d="m8 1c-3.8597 0-7 3.1402-7 7a0.5 0.5 0 0 0 0.5 0.5 0.5 0.5 0 0 0 0.5-0.5c0-3.3194 2.6807-6 6-6a0.5 0.5 0 0 0 0.5-0.5 0.5 0.5 0 0 0-0.5-0.5z" style="opacity:.067;"/>
		<path d="m8 1c-2.1756 8.4e-6 -4.2283 1.0122-5.5527 2.7383-1.3244 1.7261-1.7721 3.9707-1.209 6.0723a0.5 0.5 0 0 0 0.61328 0.35352 0.5 0.5 0 0 0 0.35352-0.61133c-0.48284-1.802-0.10052-3.725 1.0352-5.2051 1.1357-1.4801 2.8942-2.3476 4.7598-2.3477a0.5 0.5 0 0 0 0.5-0.5 0.5 0.5 0 0 0-0.5-0.5z" style="opacity:.067;"/>
		<path d="m8 1c-2.4999-2.096e-5 -4.8126 1.335-6.0625 3.5-1.2499 2.165-1.2499 4.835 0 7a0.5 0.5 0 0 0 0.68359 0.18359 0.5 0.5 0 0 0 0.18359-0.68359c-1.0721-1.857-1.0721-4.143 0-6 1.0721-1.857 3.0511-3 5.1953-3a0.5 0.5 0 0 0 0.5-0.5 0.5 0.5 0 0 0-0.5-0.5z" style="opacity:.067;"/>
		<path d="m8 1c-2.8296-1.821e-5 -5.384 1.708-6.4668 4.3223-1.0828 2.6142-0.48322 5.6261 1.5176 7.627a0.5 0.5 0 0 0 0.70703 0 0.5 0.5 0 0 0 0-0.70703c-1.7168-1.7169-2.2299-4.2939-1.3008-6.5371 0.92915-2.2432 3.115-3.7051 5.543-3.7051a0.5 0.5 0 0 0 0.5-0.5 0.5 0.5 0 0 0-0.5-0.5z" style="opacity:.067;"/>
		<path d="m8 1c-3.1656-4.045e-5 -5.9424 2.1317-6.7617 5.1895-0.81929 3.0577 0.52031 6.2902 3.2617 7.873a0.5 0.5 0 0 0 0.68359-0.18359 0.5 0.5 0 0 0-0.18359-0.68359c-2.3536-1.3589-3.4983-4.1228-2.7949-6.748 0.70345-2.6253 3.0772-4.4473 5.7949-4.4473a0.5 0.5 0 0 0 0.5-0.5 0.5 0.5 0 0 0-0.5-0.5z" style="opacity:.067;"/>
		<path d="m8 1c-3.5086-4.04e-6 -6.4815 2.6072-6.9395 6.0859-0.45797 3.4787 1.7379 6.7676 5.127 7.6758a0.5 0.5 0 0 0 0.61328-0.35352 0.5 0.5 0 0 0-0.35352-0.61328c-2.9118-0.78026-4.788-3.5893-4.3945-6.5781 0.39349-2.9889 2.9327-5.2168 5.9473-5.2168a0.5 0.5 0 0 0 0.5-0.5 0.5 0.5 0 0 0-0.5-0.5z" style="opacity:.067;"/>
		<path d="m8 1c-2.4999-2.096e-5 -4.8126 1.335-6.0625 3.5-1.2499 2.165-1.2499 4.835 0 7 1.2499 2.165 3.5626 3.4981 6.0625 3.498a0.5 0.5 0 0 0 0.5-0.5 0.5 0.5 0 0 0-0.5-0.5c-2.1442 1.8e-5 -4.1232-1.1411-5.1953-2.998-1.0721-1.857-1.0721-4.143 0-6 1.0721-1.857 3.0511-3 5.1953-3a0.5 0.5 0 0 0 0.5-0.5 0.5 0.5 0 0 0-0.5-0.5z" style="opacity:.067;"/>
		<path d="m8 1c-2.719-2.788e-5 -5.1946 1.5767-6.3438 4.041-1.1491 2.4643-0.7653 5.3761 0.98242 7.459 1.7477 2.0829 4.5455 2.9655 7.1719 2.2617a0.5 0.5 0 0 0 0.35547-0.61328 0.5 0.5 0 0 0-0.61328-0.35352c-2.2533 0.60377-4.649-0.1524-6.1484-1.9395-1.4995-1.787-1.8277-4.2764-0.8418-6.3906 0.98588-2.1143 3.1048-3.4649 5.4375-3.4648a0.5 0.5 0 0 0 0.5-0.5 0.5 0.5 0 0 0-0.5-0.5z" style="opacity:.067;"/>
		<path d="m8 1c-2.9408 1.63e-5 -5.5704 1.8419-6.5762 4.6055-1.0058 2.7635-0.17463 5.8655 2.0781 7.7559 2.2528 1.8904 5.4512 2.1716 7.998 0.70117a0.5 0.5 0 0 0 0.18359-0.68359 0.5 0.5 0 0 0-0.68359-0.18359c-2.1857 1.262-4.9221 1.0227-6.8555-0.59961-1.9334-1.6223-2.6444-4.2748-1.7812-6.6465 0.86321-2.3717 3.1129-3.9492 5.6367-3.9492a0.5 0.5 0 0 0 0.5-0.5 0.5 0.5 0 0 0-0.5-0.5z" style="opacity:.067;"/>
		<path d="m8 1c-3.1656-4.045e-5 -5.9404 2.1317-6.7598 5.1895-0.81929 3.0577 0.51835 6.2902 3.2598 7.873 2.7415 1.5828 6.2108 1.1252 8.4492-1.1133a0.5 0.5 0 0 0 0-0.70703 0.5 0.5 0 0 0-0.70703 0c-1.9218 1.9218-4.8885 2.3121-7.2422 0.95312-2.3536-1.3589-3.4983-4.1228-2.7949-6.748 0.70345-2.6253 3.0772-4.4473 5.7949-4.4473a0.5 0.5 0 0 0 0.5-0.5 0.5 0.5 0 0 0-0.5-0.5z" style="opacity:.067;"/>
		<path d="m8 1c-3.3934-2.632e-5 -6.3033 2.4432-6.8926 5.7852-0.58923 3.3419 1.3093 6.6323 4.498 7.793 3.1888 1.1607 6.7603-0.13923 8.457-3.0781a0.5 0.5 0 0 0-0.18359-0.68359 0.5 0.5 0 0 0-0.68359 0.18359c-1.4574 2.5244-4.5071 3.6356-7.2461 2.6387-2.739-0.99695-4.3635-3.8091-3.8574-6.6797 0.50617-2.8706 2.9934-4.959 5.9082-4.959a0.5 0.5 0 0 0 0.5-0.5 0.5 0.5 0 0 0-0.5-0.5z" style="opacity:.067;"/>
		<path d="m8 1c-3.6248-1.905e-5 -6.6567 2.7796-6.9727 6.3906-0.31589 3.611 2.1881 6.8725 5.7578 7.502 3.5697 0.62949 7.0384-1.5807 7.9766-5.082a0.5 0.5 0 0 0-0.35352-0.61133 0.5 0.5 0 0 0-0.61328 0.35352c-0.80629 3.0092-3.7681 4.8965-6.8359 4.3555-3.0679-0.54094-5.207-3.3282-4.9355-6.4316 0.27152-3.1034 2.8614-5.4766 5.9766-5.4766a0.5 0.5 0 0 0 0.5-0.5 0.5 0.5 0 0 0-0.5-0.5z" style="opacity:.067;"/>
		<path d="m8 1c-2.8296-1.821e-5 -5.384 1.7061-6.4668 4.3203-1.0828 2.6142-0.48322 5.6281 1.5176 7.6289 2.0008 2.0009 5.0128 2.6005 7.627 1.5176 2.6142-1.0828 4.3203-3.6372 4.3203-6.4668a0.5 0.5 0 0 0-0.5-0.5 0.5 0.5 0 0 0-0.5 0.5c-2e-5 2.428-1.46 4.6138-3.7031 5.543-2.2431 0.92918-4.8203 0.4161-6.5371-1.3008-1.7168-1.7169-2.2299-4.2958-1.3008-6.5391 0.92915-2.2432 3.115-3.7031 5.543-3.7031a0.5 0.5 0 0 0 0.5-0.5 0.5 0.5 0 0 0-0.5-0.5z" style="opacity:.067;"/>
		<path d="m8 1c-2.9967-2.157e-5 -5.6656 1.9123-6.6289 4.75-0.96325 2.8378-0.010266 5.9784 2.3672 7.8027 2.3775 1.8244 5.6587 1.9325 8.1504 0.26758 2.4917-1.6649 3.6486-4.7381 2.873-7.6328a0.5 0.5 0 0 0-0.61328-0.35352 0.5 0.5 0 0 0-0.35352 0.61328c0.66568 2.4845-0.32235 5.112-2.4609 6.541-2.1386 1.429-4.9458 1.3373-6.9863-0.22852-2.0406-1.5658-2.8561-4.2538-2.0293-6.6895 0.82679-2.4356 3.1096-4.0703 5.6816-4.0703a0.5 0.5 0 0 0 0.5-0.5 0.5 0.5 0 0 0-0.5-0.5z" style="opacity:.067;"/>
		<path d="m8 1c-3.1656-4.045e-5 -5.9404 2.1297-6.7598 5.1875-0.81929 3.0577 0.51835 6.2922 3.2598 7.875 2.7415 1.5828 6.2108 1.1252 8.4492-1.1133 2.2384-2.2384 2.696-5.7077 1.1133-8.4492a0.5 0.5 0 0 0-0.68359-0.18359 0.5 0.5 0 0 0-0.18359 0.68359c1.3589 2.3537 0.96864 5.3204-0.95312 7.2422-1.9218 1.9218-4.8885 2.3121-7.2422 0.95312-2.3536-1.3589-3.4983-4.1228-2.7949-6.748 0.70345-2.6253 3.0772-4.4473 5.7949-4.4473a0.5 0.5 0 0 0 0.5-0.5 0.5 0.5 0 0 0-0.5-0.5z" style="opacity:.067;"/>
		<path d="m8 1c-3.3362 9.1e-6 -6.2144 2.3626-6.8652 5.6348-0.65082 3.2721 1.1053 6.5553 4.1875 7.832 3.0822 1.2768 6.6446 0.19586 8.498-2.5781 1.8534-2.774 1.4879-6.4788-0.87109-8.8379a0.5 0.5 0 0 0-0.70703 0 0.5 0.5 0 0 0 0 0.70703c2.026 2.0261 2.3379 5.1918 0.74609 7.5742-1.5919 2.3824-4.6361 3.3075-7.2832 2.2109-2.6471-1.0965-4.1488-3.9026-3.5898-6.7129 0.55898-2.8103 3.0195-4.8301 5.8848-4.8301a0.5 0.5 0 0 0 0.5-0.5 0.5 0.5 0 0 0-0.5-0.5z" style="opacity:.067;"/>
		<path d="m8 1c-3.5086-4.04e-6 -6.4815 2.6072-6.9395 6.0859-0.45797 3.4787 1.7398 6.7676 5.1289 7.6758 3.3891 0.90812 6.9346-0.84236 8.2773-4.084 1.3427-3.2417 0.071796-6.9859-2.9668-8.7402a0.5 0.5 0 0 0-0.68359 0.18359 0.5 0.5 0 0 0 0.18359 0.68359c2.6107 1.5073 3.6966 4.7051 2.543 7.4902-1.1536 2.7851-4.1839 4.2802-7.0957 3.5-2.9118-0.78026-4.788-3.5893-4.3945-6.5781 0.39349-2.9889 2.9327-5.2168 5.9473-5.2168a0.5 0.5 0 0 0 0.5-0.5 0.5 0.5 0 0 0-0.5-0.5z" style="opacity:.067;"/>
		<path d="m8 1c-3.6831-9.12e-6 -6.7435 2.8676-6.9844 6.543-0.24083 3.6753 2.4187 6.9158 6.0703 7.3965 3.6517 0.48079 7.0608-1.9617 7.7793-5.5742 0.71851-3.6125-1.497-7.1737-5.0547-8.127a0.5 0.5 0 0 0-0.61133 0.35352 0.5 0.5 0 0 0 0.35352 0.61328c3.058 0.81939 4.9496 3.8597 4.332 6.9648-0.61763 3.1052-3.5292 5.1906-6.668 4.7773-3.1388-0.41321-5.4101-3.1807-5.2031-6.3398 0.20706-3.1592 2.8205-5.6074 5.9863-5.6074a0.5 0.5 0 0 0 0.5-0.5 0.5 0.5 0 0 0-0.5-0.5z" style="opacity:.067;"/>
	</g>
</svg>
