<?xml version="1.0" encoding="UTF-8"?>
<svg id="i" width="16" height="16" version="1.1" xmlns="http://www.w3.org/2000/svg" xmlns:cc="http://creativecommons.org/ns#" xmlns:dc="http://purl.org/dc/elements/1.1/" xmlns:rdf="http://www.w3.org/1999/02/22-rdf-syntax-ns#">
	<metadata id="a">
		<rdf:RDF>
			<cc:Work rdf:about="">
				<dc:format>image/svg+xml</dc:format>
				<dc:type rdf:resource="http://purl.org/dc/dcmitype/StillImage"/>
			</cc:Work>
		</rdf:RDF>
	</metadata>
	<defs>
		<style id="current-color-scheme" type="text/css">.ColorScheme-Text {color:#090d11;}.ColorScheme-Background{color:#ffffff;}</style>
	</defs>
	<path id="c" class="ColorScheme-Text" d="m4 1c-1.662 0-3 1.338-3 3v10c0 0.554 0.446 1 1 1h10c1.662 0 3-1.338 3-3v-10c0-0.554-0.446-1-1-1zm2.2227 3c0.51234 7.9e-6 0.9682 0.084218 1.3633 0.24805 0.39813 0.16083 0.73425 0.39104 1.0059 0.69141 0.2716 0.29734 0.47634 0.65641 0.61523 1.0781 0.14197 0.41868 0.21484 0.8855 0.21484 1.4043-5.6e-6 0.4369-0.052452 0.83883-0.1543 1.209-0.098763 0.3671-0.24306 0.69722-0.4375 0.98242-0.19445 0.2852-0.43954 0.52349-0.72656 0.7207-0.28705 0.19418-0.61874 0.33584-0.99219 0.42383 0.027773 0.34284 0.083499 0.6253 0.16992 0.84375 0.086424 0.22146 0.1949 0.39318 0.31836 0.51758 0.12653 0.12742 0.26478 0.21317 0.41602 0.26172 0.15121 0.04853 0.30938 0.07226 0.4668 0.07227h0.14648v0.54687h-0.68164c-0.28395-1e-6 -0.55817-0.041137-0.83594-0.12305-0.27468-0.081925-0.53055-0.21553-0.75586-0.39453-0.22221-0.17596-0.40346-0.40447-0.55469-0.68359-0.14814-0.27607-0.23672-0.61144-0.26758-1.0059-0.42595-0.063714-0.80125-0.18884-1.1191-0.37695-0.31482-0.19114-0.57528-0.4314-0.78516-0.72266-0.20989-0.29126-0.36772-0.6264-0.47266-1.0117-0.10185-0.38531-0.15625-0.80749-0.15625-1.2656 0-0.51577 0.066503-0.98756 0.19922-1.4062 0.13271-0.42171 0.33614-0.78079 0.60156-1.0781 0.26853-0.29731 0.59876-0.52279 1-0.68359 0.40432-0.16383 0.87867-0.24804 1.4219-0.24805zm0 0.60352c-0.29629 5e-6 -0.54907 0.069844-0.75586 0.19727-0.20679 0.1244-0.37428 0.30416-0.50391 0.54688-0.12962 0.23967-0.22261 0.53197-0.28125 0.88086-0.058645 0.34892-0.089846 0.74736-0.089844 1.1934-2.5e-6 0.446 0.031199 0.8464 0.089844 1.1953 0.058631 0.34892 0.15162 0.644 0.28125 0.88672 0.12963 0.23967 0.3002 0.41945 0.50391 0.54687 0.20679 0.12742 0.45484 0.19727 0.74805 0.19727 0.29629 0 0.54434-0.06984 0.74805-0.19727 0.20679-0.12743 0.37736-0.30719 0.50391-0.54687 0.12654-0.24273 0.21788-0.5378 0.27344-0.88672 0.058642-0.34892 0.089838-0.74931 0.089844-1.1953-1e-5 -0.446-0.031201-0.84444-0.089844-1.1934-0.055566-0.34889-0.1469-0.64117-0.27344-0.88086-0.12655-0.2427-0.29239-0.42248-0.49609-0.54688-0.20371-0.12742-0.45484-0.19726-0.74805-0.19727zm4.6895 0h0.79102v1.1582h1.207v0.64062h-1.207v2.8848c0 0.28218 0.04495 0.48869 0.14062 0.61914 0.09876 0.13046 0.2602 0.19531 0.48242 0.19531 0.12345 1e-6 0.24436-0.0063 0.35547-0.02148 0.1142-0.01821 0.21959-0.04018 0.31836-0.06445v0.60352c-0.04939 0.02427-0.12061 0.05278-0.20703 0.08008-0.08333 0.02732-0.18268 0.05103-0.29688 0.07226-0.11113 0.02426-0.23498 0.04342-0.37695 0.05859-0.14197 0.01514-0.30013 0.02148-0.4668 0.02148-0.21297 0-0.40529-0.0285-0.57812-0.08008-0.17284-0.04854-0.31714-0.13275-0.4375-0.24805-0.12036-0.11832-0.21644-0.2661-0.28125-0.45117-0.06482-0.18812-0.0957-0.41834-0.0957-0.69141v-2.9785h-0.71094v-0.48047c0.20371 6.1e-6 0.38638-0.036345 0.54687-0.11523 0.16049-0.078871 0.29104-0.17418 0.38672-0.27734 0.19444-0.20022 0.33402-0.51012 0.42969-0.92578z" style="fill-opacity:.75;fill:currentColor"/>
	<path id="b" class="ColorScheme-Background" d="m4 0c-2.1987 0-4 1.8013-4 4v10c0 1.0907 0.9093 2 2 2h10c2.1987 0 4-1.8013 4-4v-10c0-1.0907-0.9093-2-2-2h-10zm0 1h10c0.554 0 1 0.446 1 1v10c0 1.662-1.338 3-3 3h-10c-0.554 0-1-0.446-1-1v-10c0-1.662 1.338-3 3-3zm2.2227 3c-0.54321 6.9e-6 -1.0176 0.084218-1.4219 0.24805-0.40124 0.16081-0.73147 0.38628-1 0.68359-0.26542 0.29733-0.46885 0.65641-0.60156 1.0781-0.13272 0.41869-0.19922 0.89048-0.19922 1.4062-6e-7 0.45813 0.054397 0.88031 0.15625 1.2656 0.10494 0.38531 0.26276 0.72046 0.47266 1.0117 0.20988 0.29126 0.47034 0.53151 0.78516 0.72266 0.31789 0.18811 0.69319 0.31324 1.1191 0.37695 0.030861 0.39442 0.11944 0.72979 0.26758 1.0059 0.15123 0.27912 0.33248 0.50763 0.55469 0.68359 0.2253 0.179 0.48117 0.31261 0.75586 0.39453 0.27776 0.08191 0.55199 0.12305 0.83594 0.12305h0.68164v-0.54688h-0.14648c-0.15741-1e-5 -0.31559-0.023736-0.4668-0.072266-0.15124-0.048546-0.28949-0.1343-0.41602-0.26172-0.12346-0.1244-0.23194-0.29612-0.31836-0.51758-0.086423-0.21845-0.14215-0.50091-0.16992-0.84375 0.37345-0.087986 0.70514-0.22965 0.99219-0.42383 0.28702-0.19721 0.53212-0.4355 0.72656-0.7207s0.33874-0.61532 0.4375-0.98242c0.10184-0.37016 0.15429-0.77209 0.1543-1.209-6.5e-6 -0.5188-0.072876-0.98561-0.21484-1.4043-0.13889-0.42171-0.34363-0.78079-0.61523-1.0781-0.27161-0.30036-0.60773-0.53058-1.0059-0.69141-0.39508-0.16383-0.85094-0.24804-1.3633-0.24805zm0 0.60352c0.29321 5.5e-6 0.54434 0.069846 0.74805 0.19727 0.2037 0.1244 0.36954 0.30417 0.49609 0.54688 0.12654 0.23969 0.21787 0.53197 0.27344 0.88086 0.058643 0.34892 0.089834 0.74736 0.089844 1.1934-5.7e-6 0.446-0.031202 0.8464-0.089844 1.1953-0.055561 0.34892-0.14689 0.64399-0.27344 0.88672-0.12655 0.23969-0.29712 0.41945-0.50391 0.54687-0.20371 0.12743-0.45176 0.19727-0.74805 0.19727-0.29321 0-0.54126-0.069843-0.74805-0.19727-0.2037-0.12743-0.37427-0.3072-0.50391-0.54687-0.12963-0.24272-0.22262-0.5378-0.28125-0.88672-0.058645-0.34892-0.089846-0.74931-0.089844-1.1953-2e-6 -0.446 0.031199-0.84444 0.089844-1.1934 0.058639-0.34889 0.15163-0.64119 0.28125-0.88086 0.12963-0.24271 0.29712-0.42247 0.50391-0.54688 0.20679-0.12742 0.45957-0.19726 0.75586-0.19727zm4.6895 0c-0.09567 0.41566-0.23524 0.72556-0.42969 0.92578-0.09568 0.10316-0.22623 0.19847-0.38672 0.27734-0.16049 0.078889-0.34316 0.11524-0.54687 0.11523v0.48047h0.71094v2.9785c0 0.27307 0.030883 0.50329 0.095703 0.69141 0.06481 0.18507 0.16089 0.33285 0.28125 0.45117 0.12036 0.11529 0.26466 0.19951 0.4375 0.24805 0.17284 0.05158 0.36515 0.080078 0.57812 0.080078 0.16666 0 0.32482-0.006344 0.4668-0.021484 0.14197-0.01517 0.26582-0.034334 0.37695-0.058594 0.1142-0.02123 0.21354-0.044945 0.29688-0.072265 0.08642-0.0273 0.15764-0.055808 0.20703-0.080078v-0.60352c-0.09877 0.02427-0.20416 0.046243-0.31836 0.064453-0.11111 0.01518-0.23202 0.021485-0.35547 0.021484-0.22222 1e-6 -0.38366-0.06485-0.48242-0.19531-0.095675-0.13045-0.14062-0.33696-0.14062-0.61914v-2.8848h1.207v-0.64062h-1.207v-1.1582h-0.79102z" style="fill-opacity:.5;fill:currentColor"/>
</svg>
