<?xml version="1.0" encoding="UTF-8"?>
<svg id="i" width="16" height="16" version="1.1" xmlns="http://www.w3.org/2000/svg" xmlns:cc="http://creativecommons.org/ns#" xmlns:dc="http://purl.org/dc/elements/1.1/" xmlns:rdf="http://www.w3.org/1999/02/22-rdf-syntax-ns#">
	<metadata id="a">
		<rdf:RDF>
			<cc:Work rdf:about="">
				<dc:format>image/svg+xml</dc:format>
				<dc:type rdf:resource="http://purl.org/dc/dcmitype/StillImage"/>
				<dc:title/>
			</cc:Work>
		</rdf:RDF>
	</metadata>
	<defs id="d">
		<style id="current-color-scheme" type="text/css">.ColorScheme-Text {color:#090d11;}.ColorScheme-Background{color:#ffffff;}</style>
	</defs>
	<path id="c" d="m4 1c-1.662 0-3 1.338-3 3v10c0 0.554 0.446 1 1 1h6.4746 1.1797l0.42383-1.5762c-0.65738-1.4193-0.81553-3.4003-0.57617-5.332-0.02497 0.0032622-0.043822 0.0088882-0.070312 0.011719-0.11169 0.011911-0.23606 0.015625-0.36719 0.015625-0.16755 0-0.31911-0.021921-0.45508-0.0625-0.13598-0.038188-0.24906-0.1046-0.34375-0.19531-0.09469-0.093085-0.17167-0.20987-0.22266-0.35547-0.050996-0.148-0.075332-0.32814-0.074219-0.54297v-2.3438h-0.56055v-0.37695c0.16026 4.8e-6 0.30538-0.029736 0.43164-0.091797 0.12626-0.06205 0.22941-0.13564 0.30469-0.2168 0.15297-0.15752 0.26262-0.40151 0.33789-0.72852h0.62109v0.91016h0.94922v0.50391h-0.94922v2.2695c0 0.222 0.03606 0.38565 0.11133 0.48828 0.076013 0.10042 0.20016 0.14828 0.36914 0.15039 0.46872-2.8316 1.7914-5.4234 3.6816-5.793a0.50005 0.50005 0 0 1 0.3457-0.16797 0.50005 0.50005 0 0 1 0.50781 0.63672l-3.5527 13.262a0.50029 0.50029 0 0 1-0.17383 0.26367 0.50005 0.50005 0 0 0 0.94922-0.080078l0.17383-0.64844h0.48438c0.15075 0 0.29479-0.021709 0.43945-0.042969 0.002059-3.03e-4 0.003876-0.001438 0.005859-0.001953h0.001954c0.15684-0.02347 0.30737-0.060777 0.45508-0.10742 0.003148-9.93e-4 0.006621-9.5e-4 0.009765-0.001953 0.027888-0.008834 0.05646-0.01578 0.083985-0.025391 0.002774-9.73e-4 0.005044-0.00292 0.007812-0.003906 0.1398-0.04976 0.27299-0.11076 0.40234-0.17969 0.027728-0.014646 0.054831-0.029448 0.082031-0.044922 0.11902-0.068286 0.2319-0.14317 0.33984-0.22656 0.001126-8.7e-4 0.002782-0.001081 0.003906-0.001953 0.040503-0.031111 0.078375-0.064562 0.11719-0.097656 0.093446-0.080384 0.18279-0.16268 0.26562-0.25391 0.046366-0.050565 0.088045-0.10452 0.13086-0.1582 0.001459-0.001847 0.002449-0.004014 0.003906-0.00586 0.065145-0.082506 0.12939-0.1645 0.18555-0.25391 0.047594-0.075064 0.086098-0.15492 0.12695-0.23438 0.040651-0.079692 0.085347-0.15673 0.11914-0.24023 5.3e-4 -0.001322 0.001425-0.002584 0.001953-0.003907 0.043653-0.10856 0.072691-0.2233 0.10352-0.33789 5.34e-4 -0.001995 0.00141-0.00387 0.001953-0.00586 0.017657-0.064643 0.039811-0.12682 0.052734-0.19336 0.036472-0.18698 0.058594-0.37989 0.058594-0.57812v-2.5176c1.1663-2.7623 1.439-5.8839 0-7.2793v-0.20312c0-0.13908-0.027252-0.2705-0.078125-0.39062-0.050469-0.11972-0.12447-0.22603-0.21484-0.31641-0.089994-0.089994-0.19747-0.16422-0.31641-0.21484h-0.001953c-0.11954-0.050648-0.25017-0.078125-0.38867-0.078125h-1.4551-8.5449zm0.79297 1.7305c0.40307 6.2e-6 0.7614 0.064468 1.0723 0.19336 0.31322 0.12653 0.5773 0.30861 0.79102 0.54492 0.21367 0.23392 0.3751 0.5159 0.48438 0.84766 0.11169 0.32938 0.16797 0.69729 0.16797 1.1055-4.4e-6 0.34372-0.040972 0.65995-0.12109 0.95117-0.077699 0.28881-0.19078 0.54906-0.34375 0.77344-0.15298 0.22437-0.34646 0.41126-0.57227 0.56641-0.22583 0.15277-0.4855 0.26476-0.7793 0.33398 0.02185 0.26972 0.064826 0.49025 0.13281 0.66211 0.067992 0.17423 0.15287 0.31033 0.25 0.4082 0.099544 0.10024 0.20914 0.16688 0.32812 0.20508 0.11896 0.03818 0.24334 0.056633 0.36719 0.056641h0.11523v0.43164h-0.53711c-0.22339-8e-7 -0.43772-0.033214-0.65625-0.097656-0.2161-0.064452-0.41845-0.16972-0.5957-0.31055-0.17482-0.13843-0.31657-0.31752-0.43555-0.53711-0.11654-0.21719-0.18666-0.48069-0.21094-0.79102-0.3351-0.050125-0.6308-0.14888-0.88086-0.29688-0.24768-0.15037-0.45207-0.33922-0.61719-0.56836-0.16513-0.22914-0.28854-0.49374-0.37109-0.79688-0.080128-0.30313-0.12305-0.63374-0.12305-0.99414 0-0.40577 0.051838-0.77809 0.15625-1.1074 0.10441-0.33177 0.26384-0.61376 0.47266-0.84766 0.21126-0.2339 0.47144-0.41256 0.78711-0.53906 0.31809-0.12889 0.69181-0.19335 1.1191-0.19336zm0 0.47461c-0.2331 4e-6 -0.43302 0.054045-0.5957 0.1543-0.16269 0.097868-0.2945 0.23873-0.39648 0.42969-0.10197 0.18855-0.17457 0.41888-0.2207 0.69336-0.046137 0.2745-0.070314 0.58854-0.070312 0.93945-2e-6 0.35088 0.024176 0.66497 0.070312 0.93945 0.046126 0.2745 0.11872 0.50827 0.2207 0.69922 0.10198 0.18855 0.23622 0.32944 0.39648 0.42969 0.16269 0.10024 0.35917 0.1543 0.58984 0.1543 0.2331 0 0.42763-0.054042 0.58789-0.1543 0.16269-0.10025 0.29692-0.24113 0.39648-0.42969 0.099552-0.19096 0.17113-0.42472 0.21484-0.69922 0.046135-0.2745 0.070308-0.58858 0.070312-0.93945-7.9e-6 -0.35088-0.024178-0.66492-0.070312-0.93945-0.043715-0.27448-0.11529-0.50479-0.21484-0.69336-0.09956-0.19094-0.23038-0.33182-0.39062-0.42969-0.16026-0.10024-0.35722-0.15429-0.58789-0.1543z" style="fill-opacity:.75;fill:currentColor" class="ColorScheme-Text" />
	<path id="b" d="m4 0c-2.1987 0-4 1.8013-4 4v10c0 1.0907 0.9093 2 2 2h8.6602a0.50005 0.50005 0 0 1-0.26758-0.27148 0.50029 0.50029 0 0 0 0.17383-0.26367l3.5527-13.262a0.50005 0.50005 0 0 0-0.50781-0.63672 0.50005 0.50005 0 0 0-0.3457 0.16797c-1.8902 0.36954-3.2129 2.9614-3.6816 5.793-0.16899-0.0021096-0.29313-0.049983-0.36914-0.15039-0.07527-0.10263-0.11133-0.26628-0.11133-0.48828v-2.2695h0.94922v-0.50391h-0.94922v-0.91016h-0.62109c-0.075266 0.32701-0.18491 0.571-0.33789 0.72852-0.075273 0.081158-0.17843 0.15475-0.30469 0.2168-0.12626 0.062064-0.27138 0.091805-0.43164 0.091797v0.37695h0.56055v2.3438c0 0.21483 0.023222 0.39497 0.074219 0.54297 0.050987 0.1456 0.12797 0.26238 0.22266 0.35547 0.09469 0.090701 0.20777 0.15712 0.34375 0.19531 0.13598 0.040579 0.28753 0.0625 0.45508 0.0625 0.13112 0 0.25549-0.003713 0.36719-0.015625 0.026489-0.0028305 0.045343-0.0084565 0.070312-0.011719-0.23936 1.9317-0.081206 3.9127 0.57617 5.332l-0.42383 1.5762h-1.1797-6.4746c-0.554 0-1-0.446-1-1v-10c0-0.20775 0.020715-0.40982 0.060547-0.60547 0.27882-1.3695 1.4852-2.3945 2.9395-2.3945h8.5449 1.4551c0.554 0 1 0.446 1 1v0.20312c1.439 1.3954 1.1663 4.517 0 7.2793v2.5176c0 0.19757-0.022339 0.38978-0.058594 0.57617v0.001953c-0.005214 0.026875-0.015562 0.051515-0.021484 0.078125-0.011468 0.040141-0.022336 0.080491-0.033203 0.12109-0.02921 0.10858-0.057701 0.21684-0.097657 0.32031-0.014749 0.037606-0.034575 0.072537-0.050781 0.10938-0.025345 0.050762-0.050351 0.10173-0.076172 0.15234-0.040855 0.079459-0.079359 0.15931-0.12695 0.23438-0.057411 0.091406-0.12279 0.1754-0.18945 0.25977-0.042814 0.053686-0.084493 0.10764-0.13086 0.1582-0.082838 0.091221-0.17218 0.17352-0.26562 0.25391-0.038813 0.033094-0.076685 0.066545-0.11719 0.097656-0.10897 0.084475-0.22346 0.1595-0.34375 0.22852-0.026705 0.015193-0.052863 0.030528-0.080078 0.044922-0.13702 0.07311-0.27892 0.13605-0.42773 0.1875-0.013443 0.004609-0.027487 0.00729-0.041016 0.011719-0.15923 0.052514-0.32222 0.093706-0.49219 0.11914h-0.001954c-0.001984 5.15e-4 -0.003801 0.001651-0.005859 0.001953-0.14449 0.021205-0.2887 0.042969-0.43945 0.042969h-0.48438l-0.17383 0.64844a0.50005 0.50005 0 0 1-0.29688 0.35156h0.95508c2.1987 0 4-1.8013 4-4v-10c0-1.0907-0.9093-2-2-2h-10zm0.79297 2.7305c-0.42736 5.4e-6 -0.80111 0.064468-1.1191 0.19336-0.31566 0.12651-0.57585 0.30516-0.78711 0.53906-0.20881 0.23392-0.36825 0.5159-0.47266 0.84766-0.10441 0.32939-0.15625 0.69971-0.15625 1.1055-4e-7 0.36042 0.042914 0.69298 0.12305 0.99609 0.082559 0.30313 0.20596 0.56774 0.37109 0.79688 0.16512 0.22914 0.36951 0.41798 0.61719 0.56836 0.25009 0.14799 0.54579 0.24674 0.88086 0.29688 0.024279 0.3103 0.09439 0.57379 0.21094 0.79102 0.11898 0.21959 0.26073 0.39868 0.43555 0.53711 0.17725 0.14082 0.3796 0.2461 0.5957 0.31055 0.21852 0.06444 0.43294 0.091506 0.65625 0.097656h0.53711v-0.43164h-0.11523c-0.12384-7.3e-6 -0.24823-0.018461-0.36719-0.056641-0.11898-0.038192-0.22858-0.10483-0.32812-0.20508-0.097129-0.097868-0.18201-0.23398-0.25-0.4082-0.067991-0.17186-0.11097-0.39239-0.13281-0.66211 0.2938-0.06922 0.55347-0.18122 0.7793-0.33398 0.2258-0.15515 0.4193-0.34203 0.57227-0.56641 0.15297-0.22437 0.26605-0.48463 0.34375-0.77344 0.08012-0.29121 0.12109-0.60744 0.12109-0.95117-5.3e-6 -0.40815-0.056282-0.77605-0.16797-1.1055-0.10927-0.33177-0.2707-0.61376-0.48438-0.84766-0.21368-0.2363-0.47777-0.41839-0.79102-0.54492-0.31082-0.12889-0.66915-0.19335-1.0723-0.19336zm0 0.47461c0.23067 4.4e-6 0.42763 0.054046 0.58789 0.1543 0.16026 0.097868 0.29108 0.23874 0.39062 0.42969 0.099552 0.18857 0.17113 0.41888 0.21484 0.69336 0.046136 0.2745 0.070304 0.58854 0.070312 0.93945-4.2e-6 0.35088-0.024178 0.66497-0.070312 0.93945-0.043711 0.2745-0.11528 0.50826-0.21484 0.69922-0.09956 0.18857-0.2338 0.32944-0.39648 0.42969-0.16026 0.10025-0.35479 0.1543-0.58789 0.1543-0.23067 0-0.42716-0.054044-0.58984-0.1543-0.16026-0.10025-0.29449-0.24113-0.39648-0.42969-0.10198-0.19095-0.17458-0.42472-0.2207-0.69922-0.046137-0.2745-0.070314-0.58858-0.070312-0.93945-1.6e-6 -0.35088 0.024176-0.66492 0.070312-0.93945 0.046133-0.27448 0.11873-0.50481 0.2207-0.69336 0.10198-0.19095 0.2338-0.33181 0.39648-0.42969 0.16269-0.10024 0.36261-0.15429 0.5957-0.1543z" style="fill-opacity:.5;fill:currentColor" class="ColorScheme-Background" />
</svg>
