<?xml version="1.0" encoding="UTF-8"?>
<svg id="d" width="16" height="16" version="1.1" xmlns="http://www.w3.org/2000/svg" xmlns:cc="http://creativecommons.org/ns#" xmlns:dc="http://purl.org/dc/elements/1.1/" xmlns:rdf="http://www.w3.org/1999/02/22-rdf-syntax-ns#">
	<metadata id="a">
		<rdf:RDF>
			<cc:Work rdf:about="">
				<dc:format>image/svg+xml</dc:format>
				<dc:type rdf:resource="http://purl.org/dc/dcmitype/StillImage"/>
				<dc:title/>
			</cc:Work>
		</rdf:RDF>
	</metadata>
	<defs>
		<style id="current-color-scheme" type="text/css">.ColorScheme-Text {color:#090d11;}.ColorScheme-Background{color:#ffffff;}</style>
	</defs>
	<g id="c" transform="translate(3364.4 -2100.7)">
		<path id="b" transform="translate(-3364.4 2100.7)" d="m7 0a1.0001 1.0001 0 0 0 -1 1v1h-2c-1.1081 0-2 0.89193-2 2v6.1543l-1.9316 1.1152a1.0001 1.0001 0 0 0 -0.36719 1.3652l1 1.7305a1.0001 1.0001 0 0 0 1.3652 0.36524l1.4043-0.81055c0.16927 0.047272 0.34415 0.080078 0.5293 0.080078h8c0.18296 0 0.35595-0.031924 0.52344-0.078125l1.3984 0.80859a1.0001 1.0001 0 0 0 1.3672 -0.36524l1-1.7305a1.0001 1.0001 0 0 0 -0.36719 -1.3652l-1.9219-1.1094v-6.1602c0-1.1081-0.89193-2-2-2h-2.0078v-1a1.0001 1.0001 0 0 0 -1 -1h-1.9922zm0 1h2v6.2695a2 2 0 0 0 -0.12305 -0.064453 2 2 0 0 0 -0.070312 -0.033203 2 2 0 0 0 -0.14062 -0.054688 2 2 0 0 0 -0.029297 -0.011719 2 2 0 0 0 -0.0097657 -0.0019532 2 2 0 0 0 -0.125 -0.035156 2 2 0 0 0 -0.085938 -0.021484 2 2 0 0 0 -0.091797 -0.017578 2 2 0 0 0 -0.097656 -0.015625 2 2 0 0 0 -0.10156 -0.0078125 2 2 0 0 0 -0.125 -0.0058594 2 2 0 0 0 -0.13086 0.0058594 2 2 0 0 0 -0.09375 0.0078125 2 2 0 0 0 -0.10938 0.017578 2 2 0 0 0 -0.078125 0.013672 2 2 0 0 0 -0.1582 0.041016 2 2 0 0 0 -0.025391 0.0078125 2 2 0 0 0 -0.12305 0.044922 2 2 0 0 0 -0.085938 0.035156 2 2 0 0 0 -0.072266 0.033203 2 2 0 0 0 -0.12305 0.064453v-6.2715zm1 7a0.99994 0.99994 0 0 1 0.099609 0.0058594 0.99994 0.99994 0 0 1 0.087891 0.011719 0.99994 0.99994 0 0 1 0.058594 0.013672 0.99994 0.99994 0 0 1 0.03125 0.0097656 0.99994 0.99994 0 0 1 0.058594 0.017578 0.99994 0.99994 0 0 1 0.035156 0.013672 0.99994 0.99994 0 0 1 0.058594 0.027344 0.99994 0.99994 0 0 1 0.041016 0.019531 0.99994 0.99994 0 0 1 0.019531 0.011719 0.99994 0.99994 0 0 1 0.0625 0.037109 0.99994 0.99994 0 0 1 0.068359 0.048828 0.99994 0.99994 0 0 1 0.0625 0.054688 0.99994 0.99994 0 0 1 0.023437 0.021484 0.99994 0.99994 0 0 1 0.021484 0.023437 0.99994 0.99994 0 0 1 0.054688 0.0625 0.99994 0.99994 0 0 1 0.048828 0.068359 0.99994 0.99994 0 0 1 0.037109 0.0625 0.99994 0.99994 0 0 1 0.011719 0.019531 0.99994 0.99994 0 0 1 0.019531 0.041016 0.99994 0.99994 0 0 1 0.027344 0.058594 0.99994 0.99994 0 0 1 0.013672 0.035156 0.99994 0.99994 0 0 1 0.017578 0.058594 0.99994 0.99994 0 0 1 0.0097656 0.03125 0.99994 0.99994 0 0 1 0.013672 0.058594 0.99994 0.99994 0 0 1 0.011719 0.087891 0.99994 0.99994 0 0 1 0.0058594 0.099609 0.99994 0.99994 0 0 1 -0.0058594 0.099609 0.99994 0.99994 0 0 1 -0.011719 0.087891 0.99994 0.99994 0 0 1 -0.013672 0.058594 0.99994 0.99994 0 0 1 -0.0097656 0.03125 0.99994 0.99994 0 0 1 -0.017578 0.058594 0.99994 0.99994 0 0 1 -0.013672 0.035156 0.99994 0.99994 0 0 1 -0.027344 0.058594 0.99994 0.99994 0 0 1 -0.019531 0.041016 0.99994 0.99994 0 0 1 -0.011719 0.019531 0.99994 0.99994 0 0 1 -0.037109 0.0625 0.99994 0.99994 0 0 1 -0.048828 0.068359 0.99994 0.99994 0 0 1 -0.054688 0.0625 0.99994 0.99994 0 0 1 -0.021484 0.023437 0.99994 0.99994 0 0 1 -0.023437 0.021484 0.99994 0.99994 0 0 1 -0.0625 0.054688 0.99994 0.99994 0 0 1 -0.068359 0.048828 0.99994 0.99994 0 0 1 -0.0625 0.037109 0.99994 0.99994 0 0 1 -0.019531 0.011719 0.99994 0.99994 0 0 1 -0.041016 0.019531 0.99994 0.99994 0 0 1 -0.058594 0.027344 0.99994 0.99994 0 0 1 -0.035156 0.013672 0.99994 0.99994 0 0 1 -0.058594 0.017578 0.99994 0.99994 0 0 1 -0.03125 0.0097656 0.99994 0.99994 0 0 1 -0.058594 0.013672 0.99994 0.99994 0 0 1 -0.087891 0.011719 0.99994 0.99994 0 0 1 -0.099609 0.0058594 0.99994 0.99994 0 0 1 -0.099609 -0.0058594 0.99994 0.99994 0 0 1 -0.087891 -0.011719 0.99994 0.99994 0 0 1 -0.058594 -0.013672 0.99994 0.99994 0 0 1 -0.03125 -0.0097656 0.99994 0.99994 0 0 1 -0.058594 -0.017578 0.99994 0.99994 0 0 1 -0.035156 -0.013672 0.99994 0.99994 0 0 1 -0.058594 -0.027344 0.99994 0.99994 0 0 1 -0.041016 -0.019531 0.99994 0.99994 0 0 1 -0.019531 -0.011719 0.99994 0.99994 0 0 1 -0.0625 -0.037109 0.99994 0.99994 0 0 1 -0.068359 -0.048828 0.99994 0.99994 0 0 1 -0.0625 -0.054688 0.99994 0.99994 0 0 1 -0.023437 -0.021484 0.99994 0.99994 0 0 1 -0.021484 -0.023437 0.99994 0.99994 0 0 1 -0.054688 -0.0625 0.99994 0.99994 0 0 1 -0.042969 -0.056641 0.99994 0.99994 0 0 1 -0.0058593 -0.011719 0.99994 0.99994 0 0 1 -0.037109 -0.0625 0.99994 0.99994 0 0 1 -0.011719 -0.019531 0.99994 0.99994 0 0 1 -0.019531 -0.041016 0.99994 0.99994 0 0 1 -0.027344 -0.058594 0.99994 0.99994 0 0 1 -0.013672 -0.035156 0.99994 0.99994 0 0 1 -0.017578 -0.058594 0.99994 0.99994 0 0 1 -0.0097656 -0.03125 0.99994 0.99994 0 0 1 -0.013672 -0.058594 0.99994 0.99994 0 0 1 -0.011719 -0.087891 0.99994 0.99994 0 0 1 -0.0058594 -0.099609 0.99994 0.99994 0 0 1 0.0058594 -0.099609 0.99994 0.99994 0 0 1 0.011719 -0.087891 0.99994 0.99994 0 0 1 0.013672 -0.058594 0.99994 0.99994 0 0 1 0.0097656 -0.03125 0.99994 0.99994 0 0 1 0.017578 -0.058594 0.99994 0.99994 0 0 1 0.013672 -0.035156 0.99994 0.99994 0 0 1 0.027344 -0.058594 0.99994 0.99994 0 0 1 0.019531 -0.041016 0.99994 0.99994 0 0 1 0.011719 -0.019531 0.99994 0.99994 0 0 1 0.037109 -0.0625 0.99994 0.99994 0 0 1 0.048828 -0.068359 0.99994 0.99994 0 0 1 0.054688 -0.0625 0.99994 0.99994 0 0 1 0.021484 -0.023437 0.99994 0.99994 0 0 1 0.023437 -0.021484 0.99994 0.99994 0 0 1 0.0625 -0.054688 0.99994 0.99994 0 0 1 0.056641 -0.042969 0.99994 0.99994 0 0 1 0.011719 -0.0058593 0.99994 0.99994 0 0 1 0.0625 -0.037109 0.99994 0.99994 0 0 1 0.019531 -0.011719 0.99994 0.99994 0 0 1 0.041016 -0.019531 0.99994 0.99994 0 0 1 0.058594 -0.027344 0.99994 0.99994 0 0 1 0.035156 -0.013672 0.99994 0.99994 0 0 1 0.058594 -0.017578 0.99994 0.99994 0 0 1 0.03125 -0.0097656 0.99994 0.99994 0 0 1 0.058594 -0.013672 0.99994 0.99994 0 0 1 0.087891 -0.011719 0.99994 0.99994 0 0 1 0.099609 -0.0058594zm-2 1.002a2 2 0 0 0 0.0078125 0.14453 2 2 0 0 0 0.0097656 0.099609 2 2 0 0 0 0.017578 0.11523 2 2 0 0 0 0.013672 0.068359 2 2 0 0 0 0.025391 0.10352 2 2 0 0 0 0.041016 0.12891 2 2 0 0 0 0.0058594 0.017578 2 2 0 0 0 0.011719 0.027344 2 2 0 0 0 0.042969 0.10742 2 2 0 0 0 0.056641 0.11523 2 2 0 0 0 0.035156 0.064453 2 2 0 0 0 0.050781 0.082031 2 2 0 0 0 0.070312 0.10352 2 2 0 0 0 0.039062 0.050781 2 2 0 0 0 0.095703 0.11133 2 2 0 0 0 0.027344 0.03125 2 2 0 0 0 0.10156 0.099609 2 2 0 0 0 0.068359 0.060547 2 2 0 0 0 0.070312 0.056641 2 2 0 0 0 0.091797 0.064453 2 2 0 0 0 0.11914 0.076172l-4.4941 2.5938-0.93555 0.54102-1-1.7305 1.4277-0.82422 4-2.3086zm4 0l4 2.3086 1.4277 0.82422-1 1.7305-5.4297-3.1348a2 2 0 0 0 0.11914 -0.076172 2 2 0 0 0 0.091797 -0.064453 2 2 0 0 0 0.070312 -0.056641 2 2 0 0 0 0.068359 -0.060547 2 2 0 0 0 0.10156 -0.099609 2 2 0 0 0 0.027344 -0.03125 2 2 0 0 0 0.095703 -0.11133 2 2 0 0 0 0.039062 -0.050781 2 2 0 0 0 0.078125 -0.11524 2 2 0 0 0 0.029297 -0.046875 2 2 0 0 0 0.066406 -0.12305 2 2 0 0 0 0.035156 -0.072266 2 2 0 0 0 0.035156 -0.083984 2 2 0 0 0 0.039062 -0.10156 2 2 0 0 0 0.029297 -0.095703 2 2 0 0 0 0.027344 -0.11133 2 2 0 0 0 0.013672 -0.068359 2 2 0 0 0 0.017578 -0.11523 2 2 0 0 0 0.0097656 -0.099609 2 2 0 0 0 0.0078125 -0.14453z" style="fill-opacity:.75;fill:currentColor" class="ColorScheme-Text"/>
		<path id="e" transform="translate(-3364.4 2100.7)" d="m4.002 1c-1.6448 0-3.002 1.3552-3.002 3v6.7324l1-0.57812v-6.1543c0-0.13851 0.014463-0.27386 0.041016-0.4043 0.18588-0.91306 0.98948-1.5957 1.959-1.5957h2v-1h-1.998zm2.998 0v1 5.2715a2 2 0 0 1 0.42969 -0.18359 2 2 0 0 1 0.41797 -0.080078 2 2 0 0 1 0.021484 -0.0019531 2 2 0 0 1 0.082031 -0.0058594 2 2 0 0 1 0.048828 -0.0039062 2 2 0 0 1 0.125 0.0097656 2 2 0 0 1 0.0058594 0 2 2 0 0 1 0.50391 0.099609 2 2 0 0 1 0.023438 0.0078124 2 2 0 0 1 0.0078125 0.0039063 2 2 0 0 1 0.14062 0.054688 2 2 0 0 1 0.070312 0.033203 2 2 0 0 1 0.025391 0.013672 2 2 0 0 1 0.097656 0.050781v-5.2695-1h-2zm2.9922 0v1h2.0078c1.1081 0 2 0.8919 2 2v6.1602l1 0.57812v-6.7383c0-1.6448-1.3552-3-3-3h-2.0078zm-1.9922 7a0.99994 0.99994 0 0 0 -0.099609 0.0058594 0.99994 0.99994 0 0 0 -0.0039062 0 0.99994 0.99994 0 0 0 -0.087891 0.011719 0.99994 0.99994 0 0 0 -0.0078126 0.0019531 0.99994 0.99994 0 0 0 -0.082031 0.021484 0.99994 0.99994 0 0 0 -0.0078125 0.0019532 0.99994 0.99994 0 0 0 -0.0097656 0.0039062 0.99994 0.99994 0 0 0 -0.076172 0.025391 0.99994 0.99994 0 0 0 -0.0097656 0.0039063 0.99994 0.99994 0 0 0 -0.019531 0.0097656 0.99994 0.99994 0 0 0 -0.029297 0.013672 0.99994 0.99994 0 0 0 -0.044922 0.023438 0.99994 0.99994 0 0 0 -0.015625 0.0078125 0.99994 0.99994 0 0 0 -0.0625 0.037109 0.99994 0.99994 0 0 0 -0.0058594 0.0039062 0.99994 0.99994 0 0 0 -0.0019531 0.0019531 0.99994 0.99994 0 0 0 -0.0039063 0.0039063 0.99994 0.99994 0 0 0 -0.056641 0.042969 0.99994 0.99994 0 0 0 -0.0625 0.054688 0.99994 0.99994 0 0 0 -0.011719 0.011719 0.99994 0.99994 0 0 0 -0.011719 0.0097656 0.99994 0.99994 0 0 0 -0.0019531 0.0019531 0.99994 0.99994 0 0 0 -0.0039063 0.0039063 0.99994 0.99994 0 0 0 -0.013672 0.017578 0.99994 0.99994 0 0 0 -0.052734 0.058594 0.99994 0.99994 0 0 0 -0.0019531 0.0039063 0.99994 0.99994 0 0 0 -0.021484 0.027344 0.99994 0.99994 0 0 0 -0.029297 0.039063 0.99994 0.99994 0 0 0 -0.0039063 0.0078124 0.99994 0.99994 0 0 0 -0.0019531 0.0019532 0.99994 0.99994 0 0 0 -0.029297 0.052734 0.99994 0.99994 0 0 0 -0.12891 0.48828 0.99994 0.99994 0 0 0 0.17383 0.56445 0.99994 0.99994 0 0 0 0.0019531 0.0039063 0.99994 0.99994 0 0 0 0.042969 0.056641 0.99994 0.99994 0 0 0 0.0058594 0.0078125 0.99994 0.99994 0 0 0 0.029297 0.033203 0.99994 0.99994 0 0 0 0.019531 0.021484 0.99994 0.99994 0 0 0 0.029297 0.029297 0.99994 0.99994 0 0 0 0.013672 0.013672 0.99994 0.99994 0 0 0 0.14258 0.11133 0.99994 0.99994 0 0 0 0.050781 0.029297 0.99994 0.99994 0 0 0 0.49023 0.12891 0.99994 0.99994 0 0 0 0.63672 -0.22852 0.99994 0.99994 0 0 0 0.0078124 -0.0058594 0.99994 0.99994 0 0 0 0.039063 -0.035156 0.99994 0.99994 0 0 0 0.14844 -0.17383 0.99994 0.99994 0 0 0 0.0097657 -0.015625 0.99994 0.99994 0 0 0 0.027344 -0.046875 0.99994 0.99994 0 0 0 0.021484 -0.041016 0.99994 0.99994 0 0 0 0.068359 -0.17188 0.99994 0.99994 0 0 0 0.0039062 -0.013672 0.99994 0.99994 0 0 0 0.021484 -0.087891 0.99994 0.99994 0 0 0 0.0019531 -0.0097656 0.99994 0.99994 0 0 0 0.0078125 -0.066406 0.99994 0.99994 0 0 0 0.0039063 -0.033203 0.99994 0.99994 0 0 0 0.0019531 -0.070312 0.99994 0.99994 0 0 0 -0.0058594 -0.091797 0.99994 0.99994 0 0 0 0 -0.0039062 0.99994 0.99994 0 0 0 0 -0.0039063 0.99994 0.99994 0 0 0 -0.011719 -0.083984 0.99994 0.99994 0 0 0 -0.013672 -0.058594 0.99994 0.99994 0 0 0 -0.0097656 -0.03125 0.99994 0.99994 0 0 0 -0.017578 -0.058594 0.99994 0.99994 0 0 0 -0.013672 -0.035156 0.99994 0.99994 0 0 0 -0.027344 -0.060547 0.99994 0.99994 0 0 0 -0.019531 -0.041016 0.99994 0.99994 0 0 0 -0.011719 -0.017578 0.99994 0.99994 0 0 0 -0.037109 -0.0625 0.99994 0.99994 0 0 0 -0.048828 -0.068359 0.99994 0.99994 0 0 0 -0.054688 -0.0625 0.99994 0.99994 0 0 0 -0.021484 -0.021484 0.99994 0.99994 0 0 0 -0.023437 -0.021484 0.99994 0.99994 0 0 0 -0.0625 -0.054688 0.99994 0.99994 0 0 0 -0.066406 -0.048828 0.99994 0.99994 0 0 0 -0.0625 -0.037109 0.99994 0.99994 0 0 0 -0.019531 -0.013672 0.99994 0.99994 0 0 0 -0.041016 -0.017578 0.99994 0.99994 0 0 0 -0.060547 -0.027344 0.99994 0.99994 0 0 0 -0.033203 -0.013672 0.99994 0.99994 0 0 0 -0.060547 -0.017578 0.99994 0.99994 0 0 0 -0.03125 -0.011719 0.99994 0.99994 0 0 0 -0.058594 -0.013672 0.99994 0.99994 0 0 0 -0.087891 -0.011719 0.99994 0.99994 0 0 0 -0.099609 -0.0097656zm-2 1.002l-3.9941 2.3086-1.4277 0.82422 0.99805 1.7285 0.066406-0.039062c5.673e-4 7.28e-4 0.0013852 0.001225 0.0019531 0.001953l0.86523-0.5c-6.137e-4 -6.9e-4 -0.0013403-0.001263-0.0019531-0.001953l4.4941-2.5938a2 2 0 0 1 -1.002 -1.7285zm4 0a2 2 0 0 1 -0.18164 0.82031 2 2 0 0 1 -0.035156 0.072266 2 2 0 0 1 -0.056641 0.10742 2 2 0 0 1 -0.0078125 0.015625 2 2 0 0 1 -0.029297 0.046875 2 2 0 0 1 -0.0058593 0.007813 2 2 0 0 1 -0.070313 0.10352 2 2 0 0 1 -0.041016 0.054688 2 2 0 0 1 -0.095703 0.11133 2 2 0 0 1 -0.023438 0.027344 2 2 0 0 1 -0.0078125 0.007812 2 2 0 0 1 -0.097656 0.095703 2 2 0 0 1 -0.017578 0.015625 2 2 0 0 1 -0.089844 0.078125 2 2 0 0 1 -0.019531 0.013672 2 2 0 0 1 -0.10352 0.074219 2 2 0 0 1 -0.11914 0.076172l4.4941 2.5938 0.86523 0.5 0.070312 0.041015 1-1.7305-0.42773-0.24609-1-0.57812-4-2.3086zm-6.5293 4.918l-1.0391 0.59961c0.45906 0.29323 0.98971 0.48047 1.5703 0.48047h7.998c0.57824 0 1.107-0.18541 1.5645-0.47656l-1.041-0.60156c-0.16749 0.046204-0.34048 0.078125-0.52344 0.078125h-8c-0.18515 0-0.36003-0.032802-0.5293-0.080078z" style="fill-opacity:.5;fill:currentColor" class="ColorScheme-Background"/>
	</g>
</svg>
