<?xml version="1.0" encoding="UTF-8"?>
<!-- Created with Inkscape (http://www.inkscape.org/) -->
<svg width="16" height="16" version="1.1" xmlns="http://www.w3.org/2000/svg" xmlns:cc="http://creativecommons.org/ns#" xmlns:dc="http://purl.org/dc/elements/1.1/" xmlns:rdf="http://www.w3.org/1999/02/22-rdf-syntax-ns#">
	<metadata>
		<rdf:RDF>
			<cc:Work rdf:about="">
				<dc:format>image/svg+xml</dc:format>
				<dc:type rdf:resource="http://purl.org/dc/dcmitype/StillImage"/>
			</cc:Work>
		</rdf:RDF>
	</metadata>
	<defs>
		<style id="current-color-scheme" type="text/css">.ColorScheme-Text {color:#090d11;}.ColorScheme-Background{color:#ffffff;}</style>
		<style type="text/css">.ColorScheme-Text {color:#090d11;}.ColorScheme-Background{color:#ffffff;}</style>
	</defs>
	<path class="ColorScheme-Background" d="m1.5 0c-0.82235 0-1.5 0.6775-1.5 1.5v10c0 0.8224 0.67765 1.5 1.5 1.5h5.5c0-0.46308-0.31692-0.84912-0.74414-0.96289 0.97735-0.0376 1.954-0.3079 2.8379-0.83203l0.81445 0.80469c-0.50844 0.047145-0.9082 0.46946-0.9082 0.99023h1.043c-0.02927 0.29575 0.07451 0.58919 0.2832 0.80078l1.1992 1.1992h-8.5254v1h9.5234l0.83789 0.83789c0.944 0.95333 2.3687-0.47333 1.4141-1.416l-3.0352-3.0352c-0.04975-0.05062-0.10475-0.09579-0.16406-0.13477l-1.9531-1.9297c-0.11631-0.21351-0.36934-0.31241-0.59961-0.23438-0.00326 6.19e-4 -0.00652 0.0013-0.00977 2e-3 -0.00393 0.0019-0.00784 0.0039-0.011719 0.0059-0.060689 0.01973-0.11704 0.05088-0.16602 0.0918-2.1336 1.4398-5.004 1.043-6.6621-0.93359-1.6697-1.9906-1.5499-4.9111 0.2754-6.7599 1.8253-1.8488 4.7461-2.0055 6.7578-0.36133 2.0116 1.6442 2.4387 4.5366 0.99023 6.6934-0.3982 0.55825 0.4629 1.1377 0.83008 0.55859 1.7313-2.5778 1.2169-6.0621-1.1875-8.0273-0.157-0.12833-0.31856-0.24746-0.48438-0.35742h5.1445c0.28565 0 0.5 0.2143 0.5 0.5v10c0 0.2855-0.21435 0.5-0.5 0.5h-0.37891l0.90234 0.90234c0.56756-0.21458 0.97656-0.76382 0.97656-1.4023v-10c0-0.8225-0.67765-1.5-1.5-1.5zm7.5 13h-2v1h2zm-2.8203-12.998c0.018948 4.6315e-4 0.037695 0.0032657 0.056641 0.0039062-0.049997-0.0016973-0.10039-0.0014911-0.15039-0.0019531 0.031231 2.8169e-4 0.06252-0.0027165 0.09375-0.0019531zm-4.6797 0.99805h1.2012c-0.34157 0.226-0.66481 0.48911-0.96289 0.79102-0.27992 0.28353-0.52566 0.58871-0.73828 0.91016v-1.2012c0-0.2857 0.21435-0.5 0.5-0.5zm-0.5 8.3496c0.12465 0.18825 0.26 0.37215 0.4082 0.54883 1.0215 1.2176 2.4343 1.9288 3.9121 2.1016h-3.8203c-0.28565 0-0.45306-0.2184-0.5-0.5z" style="fill-opacity:.5;fill:currentColor"/>
	<path class="ColorScheme-Text" d="m6.2129 1c-1.1231-0.041352-2.2501 0.29911-3.1875 1h0.037109c-0.41382 0.30458-0.76975 0.66388-1.0625 1.0625v-0.037109c-0.62016 0.82953-0.95956 1.8044-1 2.7949-0.045741 1.1204 0.28826 2.2549 1 3.207v-0.037109c0.85522 1.161 2.1643 1.8775 3.5625 2.0098h-0.24609c0.46425 0.06573 0.93816 0.06587 1.4062 0h-0.21289c0.42254-0.040781 0.84547-0.13503 1.2598-0.28906 0.64019-0.22606 0.28227-1.1858-0.34961-0.9375-1.9191 0.7135-4.0576-0.12934-4.9727-1.9609-0.915-1.8316-0.30503-4.0483 1.418-5.1543 1.7229-1.106 3.993-0.73708 5.2773 0.85742 1.2757 1.5838 1.1568 3.8573-0.26367 5.3066-0.070396 0.060712-0.12248 0.13985-0.15039 0.22852-0.00958 0.02732-0.016768 0.055421-0.021484 0.083984-7.139e-4 0.00455-0.00136 0.00911-0.00195 0.013672-5.1e-6 0.0013-5.1e-6 0.0026 0 0.00391-0.021949 0.18281 0.058337 0.36289 0.20898 0.46875 0.00194 0.00132 0.0039 0.00262 0.00586 0.00391l2.7012 2.7031c0.0094 0.01017 0.01913 0.01994 0.0293 0.0293l2.5059 2.5059c0.94251 0.98168 2.3957-0.47155 1.4141-1.4141l-1.6699-1.6699c0.64793-0.33387 1.0996-1.011 1.0996-1.7793v-7c0-1.0907-0.9093-2-2-2h-3.6445c0.16581 0.10996 0.32737 0.2291 0.48438 0.35742 0.24418 0.19958 0.469 0.4142 0.67383 0.64258h3.4863v9h-0.87891l-0.08594-0.08594c-0.18112-0.18641-0.4277-0.29499-0.6875-0.30273-0.27531-0.0079-0.5417 0.09809-0.73633 0.29297l-1.7305-1.7305c1.4761-1.8092 1.5315-4.4323 0.039062-6.2852-0.27614-0.34283-0.59088-0.63822-0.93164-0.88867h0.039063c-0.84264-0.62904-1.8245-0.96355-2.8145-1zm-3.5645 0.033203c-0.81342 0.14927-1.4668 0.80352-1.6152 1.6172 0.20482-0.30294 0.43984-0.59072 0.70508-0.85938 0.28297-0.2866 0.58771-0.53961 0.91016-0.75781zm-1.6484 8.3164v0.65039c0 1.0907 0.9093 2 2 2h2.3203c-0.95498-0.11163-1.8829-0.44582-2.6953-1h-0.625v-0.49023c-0.20874-0.18742-0.40676-0.39075-0.5918-0.61133-0.14821-0.17668-0.28356-0.36058-0.4082-0.54883zm8.0938 1.8555c-0.88392 0.52413-1.8605 0.79443-2.8379 0.83203 0.42722 0.11378 0.74414 0.49982 0.74414 0.96289h2c0-0.51977 0.39726-0.94562 0.9043-0.99414zm-5.0938 2.7949v1h7.5254l-1-1z" style="fill-opacity:.75;fill:currentColor"/>
</svg>
