<?xml version="1.0" encoding="UTF-8"?>
<!-- Created with Inkscape (http://www.inkscape.org/) -->
<svg width="16" height="16" version="1.1" xmlns="http://www.w3.org/2000/svg" xmlns:cc="http://creativecommons.org/ns#" xmlns:dc="http://purl.org/dc/elements/1.1/" xmlns:rdf="http://www.w3.org/1999/02/22-rdf-syntax-ns#">
	<metadata>
		<rdf:RDF>
			<cc:Work rdf:about="">
				<dc:format>image/svg+xml</dc:format>
				<dc:type rdf:resource="http://purl.org/dc/dcmitype/StillImage"/>
			</cc:Work>
		</rdf:RDF>
	</metadata>
	<defs>
		<style id="current-color-scheme" type="text/css">
			.ColorScheme-Text {color:#090d11;}
			.ColorScheme-Background{color:#ffffff;}
		</style>
	</defs>
	<path class="ColorScheme-Background" d="m0.5 1c-0.27613 2.76e-5 -0.49997 0.22387-0.5 0.5v13c2.7609e-5 0.27613 0.22387 0.49997 0.5 0.5h15c0.27613-2.8e-5 0.49997-0.22387 0.5-0.5v-13c-2.8e-5 -0.27613-0.22387-0.49997-0.5-0.5zm0.5 1h14v12h-14zm2 2v3h1v-2h2v-1zm7 0v1h2v2h1v-3zm-7 5v3h3v-1h-2v-2zm9 0v2h-2v1h3v-3z" style="fill-opacity:.5;fill:currentColor"/>
	<path class="ColorScheme-Text" d="m2 2c-0.55226 5.52e-5 -0.99994 0.44774-1 1v10c5.52e-5 0.55226 0.44774 0.99994 1 1h12c0.55226-5.5e-5 0.99994-0.44774 1-1v-10c-5.5e-5 -0.55226-0.44774-0.99994-1-1zm1 2h10v8h-10zm1 1v2h1v-1h1v-1zm6 0v1h1v1h1v-2zm-6 4v2h2v-1h-1v-1zm7 0v1h-1v1h2v-2z" style="fill-opacity:.75;fill:currentColor"/>
</svg>
