<?xml version="1.0" encoding="UTF-8"?>
<!-- Created with Inkscape (http://www.inkscape.org/) -->
<svg width="16" height="16" version="1.1" xmlns="http://www.w3.org/2000/svg" xmlns:cc="http://creativecommons.org/ns#" xmlns:dc="http://purl.org/dc/elements/1.1/" xmlns:rdf="http://www.w3.org/1999/02/22-rdf-syntax-ns#" xmlns:xlink="http://www.w3.org/1999/xlink">
	<defs>
		<radialGradient id="b" cx="7800.1" cy="-3926.4" r="6.5" gradientTransform="matrix(-7.7857e-6,1.8461,-2,-1.5122e-5,-7844.7,-14396)" gradientUnits="userSpaceOnUse">
			<stop stop-color="#ffffff" stop-opacity=".74858" offset="0"/>
			<stop stop-color="#ffffff" stop-opacity=".60511" offset="1"/>
		</radialGradient>
		<radialGradient id="a" cx="7.6717" cy="11.21" r="6" gradientTransform="matrix(2.938,0,0,3.1845,-15.017,-30.381)" gradientUnits="userSpaceOnUse">
			<stop stop-color="#213851" stop-opacity=".9059" offset="0"/>
			<stop stop-color="#27303a" stop-opacity="0" offset="1"/>
		</radialGradient>
		<radialGradient id="c" cx="7800.7" cy="-3926.4" r="6.5" gradientTransform="matrix(8.5282e-6,2.5506,-2.7632,0,-10842,-19893)" gradientUnits="userSpaceOnUse" xlink:href="#b"/>
		<radialGradient id="d" cx="-3354.2" cy="2106.4" r="3.5" gradientTransform="matrix(1.1619,0,0,1.0893,3922.6,-2288.2)" gradientUnits="userSpaceOnUse" xlink:href="#b"/>
	</defs>
	<metadata>
		<rdf:RDF>
			<cc:Work rdf:about="">
				<dc:format>image/svg+xml</dc:format>
				<dc:type rdf:resource="http://purl.org/dc/dcmitype/StillImage"/>
				<dc:title/>
			</cc:Work>
		</rdf:RDF>
	</metadata>
	<path d="m24 6c-0.5541 0-1 0.4459-1 1v3c0 0.5541 0.4459 1 1 1h4c0.5541 0 1-0.4459 1-1v-3c0-0.5541-0.4459-1-1-1z" fill="url(#d)" style="paint-order:normal"/>
	<text transform="scale(1.0635 .9403)" x="4.6707954" y="18.424528" fill="#090d11" fill-opacity=".76621" font-family="AmazDooMLeft" font-size="19.282px" letter-spacing="0px" word-spacing="0px" style="font-variant-east_asian:normal;line-height:1.25;paint-order:normal" xml:space="preserve"><tspan x="4.6707954" y="18.424528" fill="#090d11" fill-opacity=".76621" style="font-variant-east_asian:normal;paint-order:normal">S</tspan></text>
	<text transform="scale(1.0635 .9403)" x="4.6707954" y="18.424528" fill="url(#a)" fill-opacity=".7533" font-family="AmazDooMLeft" font-size="19.282px" letter-spacing="0px" word-spacing="0px" style="font-variant-east_asian:normal;line-height:1.25;paint-order:normal" xml:space="preserve"><tspan x="4.6707954" y="18.424528" fill="url(#a)" fill-opacity=".7533" style="font-variant-east_asian:normal;paint-order:normal">S</tspan></text>
	<path d="m2.3457 0.066406 1.5566 1.7246v5.4023l1.3379 0.66797h-1.3379v6.6992l-0.078125 0.16797 1.6426 1.0996 6.6563-4.707v-4.002l-3.8379-1.832v-0.76562h3.8379v-3.3027l-2.1641-1.1523h-0.29688-7.3164zm2.2109 0.93945h5.1074l1.3945 0.74414v1.832h-2.4609v-0.43555h-1.375v2.7012l3.8359 1.832v2.9902l-6.2559 4.4238 0.16406-0.34375v-5.9473h2.2559v1.2871l1.375-0.88867v-0.74219l-3.6309-1.8145v-5.1855l-0.41016-0.45312z" color="#000000" color-rendering="auto" dominant-baseline="auto" fill="url(#c)" image-rendering="auto" shape-rendering="auto" solid-color="#000000" style="font-feature-settings:normal;font-variant-alternates:normal;font-variant-caps:normal;font-variant-east_asian:normal;font-variant-ligatures:normal;font-variant-numeric:normal;font-variant-position:normal;isolation:auto;mix-blend-mode:normal;paint-order:normal;shape-padding:0;text-decoration-color:#000000;text-decoration-line:none;text-decoration-style:solid;text-indent:0;text-orientation:mixed;text-transform:none;white-space:normal"/>
</svg>
