<?xml version="1.0" encoding="UTF-8"?>
<svg id="a" width="16" height="16" version="1.1" xmlns="http://www.w3.org/2000/svg" xmlns:cc="http://creativecommons.org/ns#" xmlns:dc="http://purl.org/dc/elements/1.1/" xmlns:rdf="http://www.w3.org/1999/02/22-rdf-syntax-ns#">
	<metadata id="c">
		<rdf:RDF>
			<cc:Work rdf:about="">
				<dc:format>image/svg+xml</dc:format>
				<dc:type rdf:resource="http://purl.org/dc/dcmitype/StillImage"/>
				<dc:title/>
			</cc:Work>
		</rdf:RDF>
	</metadata>
	<defs id="f">
		<style id="current-color-scheme" type="text/css">.ColorScheme-Text {color:#090d11;}.ColorScheme-Background{color:#ffffff;}</style>
	</defs>
	<path id="d" class="ColorScheme-Text" d="m7.8997 1.003c-1.787 0.027389-3.5383 0.73702-4.849 2.0478-1.3351 1.3351-2.029 3.1281-2.031 4.9493l4.9802-6.2e-6c0 0.019827 0.00334 0.038868 0.00391 0.058596-0.017002-0.54001 0.18214-1.0728 0.58205-1.4727 0.57608-0.57608 1.427-0.74536 2.1797-0.43361 0.75269 0.31177 1.2344 1.033 1.2344 1.8477l5 6.2e-6c0-2.8245-1.7123-5.3859-4.3218-6.4669-0.65239-0.27023-1.3299-0.43534-2.0113-0.49979-0.25555-0.024167-0.51186-0.034295-0.76715-0.030383zm-6.8664 7.6381c0.00212 0.02338 0.00523 0.046504 0.0076 0.069876-0.0024-0.023279-0.00544-0.046543-0.0076-0.069876zm0.11697 0.72157c0.043228 0.21846 0.085696 0.43628 0.15039 0.6517-0.064293-0.21281-0.10679-0.43206-0.15039-0.6517zm0.16862 0.71398c0.062798 0.20224 0.13213 0.40344 0.21419 0.60157 0.040759 0.09841 0.08726 0.19282 0.13216 0.28863-0.13513-0.28769-0.25102-0.58496-0.34636-0.89018zm5.8841-0.24453c0.010787 0.00463 0.020354 0.011092 0.031248 0.015626 0.018741 0.0078 0.038302 0.011743 0.057295 0.018223-0.029568-0.011135-0.059629-0.021352-0.088543-0.033858zm-5.5135 1.1879c0.12268 0.25615 0.26554 0.4976 0.41624 0.73373-0.15106-0.23705-0.29438-0.47982-0.41624-0.73373zm0.70943 1.1469c0.1022 0.13703 0.20304 0.27398 0.31446 0.40257-0.11136-0.12903-0.21305-0.26583-0.31446-0.40257zm0.66537 0.76867c0.12007 0.11981 0.23799 0.24034 0.3661 0.35091-0.1282-0.11109-0.24669-0.23124-0.3661-0.35091zm0.78541 0.67752c0.1306 0.09652 0.25956 0.19378 0.39649 0.28104-0.13719-0.08756-0.26668-0.1845-0.39649-0.28104zm1.1135 0.68815c0.026384 0.01275 0.052443 0.02556 0.078992 0.03798-0.026505-0.01227-0.052741-0.02533-0.078992-0.03798zm0.94796 0.37522c0.035221 0.01107 0.070911 0.01986 0.10634 0.03038-0.035385-0.01044-0.071045-0.01941-0.10634-0.03038zm0.71854 0.17014c0.2193 0.04413 0.43757 0.08947 0.66233 0.11241-0.22196-0.02232-0.44195-0.06849-0.66233-0.11241zm0.72766 0.12001c0.21228 0.01965 0.42669 0.03342 0.64258 0.03342v-0.01975c-0.21405 2.33e-4 -0.42844 0.0058-0.64258-0.01367z" style="fill-opacity:.75;fill:currentColor"/>
	<path id="b" class="ColorScheme-Background" d="m8 0.99993c2.8245 0 5.3859 1.7123 6.4669 4.3218 1.0809 2.6095 0.47968 5.6302-1.5176 7.6274-1.9973 1.9973-5.0179 2.5985-7.6274 1.5176-2.6095-1.0809-4.3218-3.6423-4.3218-6.4669l5 4.9e-6c0 0.8147 0.48174 1.5359 1.2344 1.8477 0.75269 0.31177 1.6037 0.14247 2.1797-0.43361 0.57608-0.57608 0.74536-1.427 0.43361-2.1797-0.31177-0.75269-1.033-1.2344-1.8477-1.2344z" style="fill-opacity:.5;fill:currentColor"/>
	<path id="e" class="ColorScheme-Text" d="m1.0197 8c-2.38e-4 0.21355-0.00573 0.42742 0.013672 0.64107 0.00215 0.023334 0.0052 0.046597 0.0076 0.069876 0.021745 0.21532 0.065836 0.42872 0.10786 0.64258 0.044249 0.22268 0.086731 0.44507 0.15191 0.66081 0.00559 0.01861 0.00944 0.03762 0.015191 0.0562 0.096189 0.30904 0.21395 0.60976 0.35091 0.90083 0.00761 0.01619 0.015066 0.03249 0.022787 0.04861 0.12186 0.25391 0.26517 0.49668 0.41624 0.73373 0.089531 0.14028 0.1884 0.27287 0.28711 0.4056 0.10332 0.13934 0.20706 0.27867 0.32053 0.41016 0.11109 0.1282 0.23124 0.24669 0.35091 0.3661 0.11941 0.11967 0.2379 0.23982 0.3661 0.35091 0.13148 0.11347 0.27082 0.21721 0.41016 0.32053 0.13274 0.09871 0.26533 0.19758 0.4056 0.28711 0.23164 0.1476 0.46774 0.28739 0.7155 0.40712 0.029096 0.01404 0.058765 0.02736 0.088107 0.04101 0.27822 0.12973 0.56524 0.2416 0.85984 0.33421 0.035746 0.01118 0.072004 0.0198 0.10786 0.03038 0.1994 0.05918 0.4054 0.09841 0.61069 0.13976 0.22088 0.04401 0.4414 0.09004 0.66386 0.11241 0.021848 0.0023 0.043432 0.0056 0.065318 0.0076 0.21416 0.0195 0.42854 0.01391 0.64258 0.01367l-1.36e-5 -4.9802c-0.023808 0-0.046675-0.00437-0.070316-0.00523-0.060428-0.00223-0.12057-0.00523-0.18099-0.01302-0.045421-0.00566-0.08959-0.014812-0.13412-0.023444-0.048041-0.00959-0.095563-0.019338-0.14323-0.032555-0.059089-0.01602-0.11624-0.036078-0.17319-0.057293-0.021067-0.00789-0.042881-0.012163-0.063802-0.020838-0.0109-0.00454-0.020467-0.010937-0.031248-0.015626-0.064602-0.027916-0.12648-0.060557-0.18751-0.095056-0.023727-0.013363-0.048588-0.024834-0.071622-0.039061-0.059416-0.036829-0.11537-0.078037-0.17058-0.12104-0.024054-0.018587-0.048535-0.036401-0.071616-0.055989-0.039941-0.034181-0.077363-0.070689-0.11459-0.10808-0.036908-0.036748-0.072996-0.073889-0.10678-0.11328-0.022018-0.025901-0.041746-0.053615-0.062502-0.080729-0.039815-0.051588-0.078769-0.10362-0.11328-0.15886-0.016222-0.026128-0.03047-0.053715-0.045574-0.080729-0.033343-0.059415-0.064014-0.11952-0.09115-0.1823-0.0046868-0.01078-0.011111-0.020354-0.015625-0.031248-0.0086662-0.020921-0.01291-0.042735-0.020834-0.063802-0.021218-0.056935-0.041271-0.1141-0.057293-0.17318-0.013212-0.047675-0.022962-0.09519-0.032553-0.14323-0.008627-0.044528-0.017798-0.088696-0.023438-0.13412-0.0083402-0.064335-0.012299-0.12838-0.014323-0.19271-5.692e-4 -0.019728-0.0039087-0.038782-0.0039087-0.058609z" style="fill-opacity:.75;fill:currentColor"/>
</svg>
