<?xml version="1.0" encoding="UTF-8"?>
<!-- Created with Inkscape (http://www.inkscape.org/) -->
<svg width="16" height="16" version="1.1" xmlns="http://www.w3.org/2000/svg" xmlns:cc="http://creativecommons.org/ns#" xmlns:dc="http://purl.org/dc/elements/1.1/" xmlns:rdf="http://www.w3.org/1999/02/22-rdf-syntax-ns#">
	<defs>
		<radialGradient id="b" cx="8" cy="8" r="8" gradientTransform="matrix(1.875 0 0 1.875 -6.9999 -6.9999)" gradientUnits="userSpaceOnUse">
			<stop stop-color="#ffffff" stop-opacity=".8252" offset="0"/>
			<stop stop-color="#ffffff" stop-opacity=".6051" offset="1"/>
		</radialGradient>
		<radialGradient id="a" cx="-9371.3" cy="4850.4" r="7" gradientTransform="matrix(2.3714 0 0 2.2019 18870 -8575)" gradientUnits="userSpaceOnUse">
			<stop stop-color="#213851" stop-opacity=".9059" offset="0"/>
			<stop stop-color="#27303a" stop-opacity="0" offset="1"/>
		</radialGradient>
	</defs>
	<metadata>
		<rdf:RDF>
			<cc:Work rdf:about="">
				<dc:format>image/svg+xml</dc:format>
				<dc:type rdf:resource="http://purl.org/dc/dcmitype/StillImage"/>
				<dc:title/>
			</cc:Work>
		</rdf:RDF>
	</metadata>
	<g transform="translate(3360.4 -2096.7)">
		<path d="m-3358.4 2097.7c-0.5541 0-1 0.4459-1 1v1c0 0.5541 0.4459 1 1 1h1c0.5541 0 1-0.4459 1-1v-1c0-0.5541-0.4459-1-1-1zm10 0c-0.5541 0-1 0.4459-1 1v2c0 0.5541 0.4459 1 1 1h2c0.5541 0 1-0.4459 1-1v-2c0-0.5541-0.4459-1-1-1zm-5 1c-0.5541 0-1 0.4459-1 1v1c0 0.5541 0.4459 1 1 1h2c0.5541 0 1-0.4459 1-1v-1c0-0.5541-0.4459-1-1-1zm-4 4c-0.5541 0-1 0.4459-1 1v2c0 0.5541 0.4459 1 1 1h1c0.5541 0 1-0.4459 1-1v-2c0-0.5541-0.4459-1-1-1zm4 0c-0.5541 0-1 0.4459-1 1v2c0 0.5541 0.4459 1 1 1h2c0.5541 0 1-0.4459 1-1v-2c0-0.5541-0.4459-1-1-1zm5 0c-0.5541 0-1 0.4459-1 1v2c0 0.5541 0.4459 1 1 1h1c0.5541 0 1-0.4459 1-1v-2c0-0.5541-0.4459-1-1-1zm-10 5c-0.5541 0-1 0.4459-1 1v2c0 0.5541 0.4459 1 1 1h2c0.5541 0 1-0.4459 1-1v-2c0-0.5541-0.4459-1-1-1zm5 0c-0.5541 0-1 0.4459-1 1v1c0 0.5541 0.4459 1 1 1h2c0.5541 0 1-0.4459 1-1v-1c0-0.5541-0.4459-1-1-1zm6 1c-0.5541 0-1 0.4459-1 1v1c0 0.5541 0.4459 1 1 1h1c0.5541 0 1-0.4459 1-1v-1c0-0.5541-0.4459-1-1-1z" fill="#090d11" fill-opacity=".76621" style="paint-order:normal"/>
		<path d="m-3358.4 2097.7c-0.5541 0-1 0.4459-1 1v1c0 0.5541 0.4459 1 1 1h1c0.5541 0 1-0.4459 1-1v-1c0-0.5541-0.4459-1-1-1zm10 0c-0.5541 0-1 0.4459-1 1v2c0 0.5541 0.4459 1 1 1h2c0.5541 0 1-0.4459 1-1v-2c0-0.5541-0.4459-1-1-1zm-5 1c-0.5541 0-1 0.4459-1 1v1c0 0.5541 0.4459 1 1 1h2c0.5541 0 1-0.4459 1-1v-1c0-0.5541-0.4459-1-1-1zm-4 4c-0.5541 0-1 0.4459-1 1v2c0 0.5541 0.4459 1 1 1h1c0.5541 0 1-0.4459 1-1v-2c0-0.5541-0.4459-1-1-1zm4 0c-0.5541 0-1 0.4459-1 1v2c0 0.5541 0.4459 1 1 1h2c0.5541 0 1-0.4459 1-1v-2c0-0.5541-0.4459-1-1-1zm5 0c-0.5541 0-1 0.4459-1 1v2c0 0.5541 0.4459 1 1 1h1c0.5541 0 1-0.4459 1-1v-2c0-0.5541-0.4459-1-1-1zm-10 5c-0.5541 0-1 0.4459-1 1v2c0 0.5541 0.4459 1 1 1h2c0.5541 0 1-0.4459 1-1v-2c0-0.5541-0.4459-1-1-1zm5 0c-0.5541 0-1 0.4459-1 1v1c0 0.5541 0.4459 1 1 1h2c0.5541 0 1-0.4459 1-1v-1c0-0.5541-0.4459-1-1-1zm6 1c-0.5541 0-1 0.4459-1 1v1c0 0.5541 0.4459 1 1 1h1c0.5541 0 1-0.4459 1-1v-1c0-0.5541-0.4459-1-1-1z" fill="url(#a)" style="font-variant-east_asian:normal;paint-order:normal"/>
		<path transform="translate(-3360.4 2096.7)" d="m2 0c-1.0906 0-2 0.9094-2 2v1c0 0.72666 0.40794 1.3664 1 1.7168v-0.7168h1c-0.5541 0-1-0.4459-1-1v-1c0-0.5541 0.4459-1 1-1h1c0.5541 0 1 0.4459 1 1v-1h0.7168c-0.35037-0.59206-0.99013-1-1.7168-1zm10 0c-0.9 0-1.549 0.67841-1.793 1.5078-0.3435-0.2768-0.73953-0.50781-1.207-0.50781h-2c-1.0906 0-2 0.9094-2 2v1c0 0.63 0.34405 1.1313 0.81055 1.5-0.1254 0.099-0.21145 0.18515-0.31055 0.31055-0.3687-0.4665-0.87-0.81055-1.5-0.81055h-1c-1.0906 0-2 0.9094-2 2v2c0 0.4675 0.23101 0.86353 0.50781 1.207-0.8294 0.244-1.5078 0.89297-1.5078 1.793v2c0 1.0906 0.9094 2 2 2h2c0.9 0 1.549-0.67841 1.793-1.5078 0.3435 0.2768 0.73953 0.50781 1.207 0.50781h2c1.0906 0 2-0.9094 2-2v-1c0-0.63-0.34405-1.1313-0.81055-1.5 0.1254-0.099 0.21145-0.18515 0.31055-0.31055 0.3687 0.4665 0.87 0.81055 1.5 0.81055h1c1.0906 0 2-0.9094 2-2v-2c0-0.4675-0.23101-0.86353-0.50781-1.207 0.8294-0.244 1.5078-0.89297 1.5078-1.793v-2c0-1.0906-0.9094-2-2-2zm0 1h2c0.5541 0 1 0.4459 1 1v2c0 0.5541-0.4459 1-1 1h-2c-0.5541 0-1-0.4459-1-1v-2c0-0.5541 0.4459-1 1-1zm-5 1h2c0.5541 0 1 0.4459 1 1v1c0 0.5541-0.4459 1-1 1h-2c-0.5541 0-1-0.4459-1-1v-1c0-0.5541 0.4459-1 1-1zm-4 4h1c0.5541 0 1 0.4459 1 1v2c0 0.5541-0.4459 1-1 1h-1c-0.5541 0-1-0.4459-1-1v-2c0-0.5541 0.4459-1 1-1zm4 0h2c0.5541 0 1 0.4459 1 1v2c0 0.5541-0.4459 1-1 1h-2c-0.5541 0-1-0.4459-1-1v-2c0-0.5541 0.4459-1 1-1zm5 0h1c0.5541 0 1 0.4459 1 1v2c0 0.5541-0.4459 1-1 1h-1c-0.5541 0-1-0.4459-1-1v-2c0-0.5541 0.4459-1 1-1zm-10 5h2c0.5541 0 1 0.4459 1 1v2c0 0.5541-0.4459 1-1 1h-2c-0.5541 0-1-0.4459-1-1v-2c0-0.5541 0.4459-1 1-1zm5 0h2c0.5541 0 1 0.4459 1 1v1c0 0.5541-0.4459 1-1 1h-2c-0.5541 0-1-0.4459-1-1v-1c0-0.5541 0.4459-1 1-1zm8 0.2832v0.7168h-1c0.5541 0 1 0.4459 1 1v1c0 0.5541-0.4459 1-1 1h-1c-0.5541 0-1-0.4459-1-1v1h-0.7168c0.35037 0.59206 0.99013 1 1.7168 1h1c1.0906 0 2-0.9094 2-2v-1c0-0.72666-0.40794-1.3664-1-1.7168z" color="#000000" color-rendering="auto" dominant-baseline="auto" fill="url(#b)" image-rendering="auto" shape-rendering="auto" solid-color="#000000" style="font-feature-settings:normal;font-variant-alternates:normal;font-variant-caps:normal;font-variant-east_asian:normal;font-variant-ligatures:normal;font-variant-numeric:normal;font-variant-position:normal;isolation:auto;mix-blend-mode:normal;paint-order:normal;shape-padding:0;text-decoration-color:#000000;text-decoration-line:none;text-decoration-style:solid;text-indent:0;text-orientation:mixed;text-transform:none;white-space:normal"/>
	</g>
</svg>
