<?xml version="1.0" encoding="UTF-8"?>
<svg id="a" width="16" height="16" version="1.1" xmlns="http://www.w3.org/2000/svg" xmlns:cc="http://creativecommons.org/ns#" xmlns:dc="http://purl.org/dc/elements/1.1/" xmlns:rdf="http://www.w3.org/1999/02/22-rdf-syntax-ns#">
	<metadata id="c">
		<rdf:RDF>
			<cc:Work rdf:about="">
				<dc:format>image/svg+xml</dc:format>
				<dc:type rdf:resource="http://purl.org/dc/dcmitype/StillImage"/>
				<dc:title/>
			</cc:Work>
		</rdf:RDF>
	</metadata>
	<defs id="e">
		<style id="current-color-scheme" type="text/css">.ColorScheme-Text {color:#090d11;}.ColorScheme-Background{color:#ffffff;}</style>
	</defs>
	<path id="d" d="m1 0v15h14v-15h-1v13h-12v-13zm3.5 13 6.3613-6.3594-3.0937 5.3594 1.7324 1 4.5-7.7949-1.7324-1-1.4023 2.4316-1.4141-1.4141-6.3652 6.3633z" style="fill-opacity:.75;fill:currentColor" class="ColorScheme-Text"/>
	<path id="b" d="m0 0v15c5.5218e-5 0.55226 0.44774 0.99994 1 1h14c0.55226-5.5e-5 0.99994-0.44774 1-1v-15h-1v15h-14v-15zm2 0v13h2.5l-1.4141-1.4141 6.3652-6.3633 1.4141 1.4141 1.4023-2.4316 1.7324 1v-5.2051h-1v3.4746l-0.23242-0.13477c-0.47835-0.27701-1.0907-0.11342-1.3672 0.36523l-0.75 1.3027-0.49219-0.49219c-0.39053-0.39037-1.0235-0.39037-1.4141 0l-5.7441 5.7422v-10.258zm12 5.2051-4.5 7.7949h4.5zm-4.5 7.7949-1.7324-1 3.0937-5.3594-6.3613 6.3594zm3.5-4.0645v3.0645h-1.7695z" style="fill-opacity:.5;fill:currentColor" class="ColorScheme-Background"/>
</svg>
