<?xml version="1.0" encoding="UTF-8"?>
<svg id="a" width="16" height="16" version="1.1" xmlns="http://www.w3.org/2000/svg" xmlns:cc="http://creativecommons.org/ns#" xmlns:dc="http://purl.org/dc/elements/1.1/" xmlns:rdf="http://www.w3.org/1999/02/22-rdf-syntax-ns#">
	<metadata id="d">
		<rdf:RDF>
			<cc:Work rdf:about="">
				<dc:format>image/svg+xml</dc:format>
				<dc:type rdf:resource="http://purl.org/dc/dcmitype/StillImage"/>
				<dc:title/>
			</cc:Work>
		</rdf:RDF>
	</metadata>
	<defs>
		<style id="current-color-scheme" type="text/css">.ColorScheme-Text {color:#090d11;}.ColorScheme-Background{color:#ffffff;}</style>
	</defs>
	<g id="c" transform="translate(-375 -512.36)">
		<path id="e" d="m383 513.36-4 4h8zm-7 5v2h5v3h-2l4 4 4-4h-2v-3h5v-2z" style="fill-opacity:.75;fill:currentColor" class="ColorScheme-Text" />
		<path id="b" transform="translate(375 512.36)" d="m8-0.40625-0.96875 0.6875-4 4-0.46875 0.71875h-1.5625-1v1h1v2h4v2h-1-2.4062l1.4375 1.7188 4 4 0.96875 0.6875 0.96875-0.6875 4-4 1.4375-1.7188h-2.4062-1v-2h4v-2h1v-1h-1-1.5625l-0.46875-0.71875-4-4zm0 1.4062 4 4h-8zm-7 5h14v2h-5v3h2l-4 4-4-4h2v-3h-5z" style="fill-opacity:.5;fill:currentColor" class="ColorScheme-Background"/>
	</g>
</svg>
