<?xml version="1.0" encoding="UTF-8"?>
<svg id="c" width="16" height="16" version="1.1" xmlns="http://www.w3.org/2000/svg" xmlns:cc="http://creativecommons.org/ns#" xmlns:dc="http://purl.org/dc/elements/1.1/" xmlns:rdf="http://www.w3.org/1999/02/22-rdf-syntax-ns#">
	<metadata id="a">
		<rdf:RDF>
			<cc:Work rdf:about="">
				<dc:format>image/svg+xml</dc:format>
				<dc:type rdf:resource="http://purl.org/dc/dcmitype/StillImage"/>
				<dc:title/>
			</cc:Work>
		</rdf:RDF>
	</metadata>
	<defs id="e">
		<style id="current-color-scheme" type="text/css">.ColorScheme-Text {color:#090d11;}.ColorScheme-Background{color:#ffffff;}</style>
	</defs>
	<path id="b" d="m10 1v5.7734l5-2.8867zm-1.9277 0.072266c-2.5689 0-4.8111 1.4085-6.0078 3.4902l0.86133 0.49609c1.0208-1.7842 2.9388-2.9863 5.1465-2.9863 0.31634 0 0.62497 0.032636 0.92773 0.080078v-1.0117c-0.30434-0.041005-0.61232-0.068359-0.92773-0.068359zm0 3c-1.4586 0-2.7205 0.81081-3.3984 1.9961l0.85742 0.49414c0.50208-0.88756 1.4438-1.4902 2.541-1.4902 0.32667 0 0.63493 0.064497 0.92773 0.16211v-1.0391c-0.29918-0.073313-0.60646-0.12305-0.92773-0.12305zm-7.0723 1.0293v5.7734l5-2.8867zm13.471 0.24609-0.875 0.50586c0.25806 0.66575 0.4043 1.3882 0.4043 2.1465 0 0.75825-0.14624 1.4807-0.4043 2.1465l0.875 0.50586c0.34028-0.81773 0.5293-1.7127 0.5293-2.6523 0-0.93965-0.18902-1.8346-0.5293-2.6523zm-2.6543 1.5312-0.88086 0.50977c0.041561 0.19727 0.064453 0.40123 0.064453 0.61133s-0.02289 0.41405-0.06445 0.61133l0.88086 0.50977c0.10778-0.3578 0.18359-0.72891 0.18359-1.1211s-0.075815-0.7633-0.18359-1.1211zm-1.8164 2.3477v5.7734l5-2.8867zm-4.4785 0.19336-0.85742 0.49414c0.67535 1.1949 1.9424 2.0137 3.4082 2.0137 0.32128 0 0.62855-0.04973 0.92773-0.12305v-1.0391c-0.29281 0.09761-0.60107 0.16211-0.92773 0.16211-1.1044 0-2.0514-0.61058-2.5508-1.5078zm-2.6055 1.5039-0.86133 0.49805c1.1944 2.0905 3.4421 3.5059 6.0176 3.5059 0.31541 0 0.6234-0.02735 0.92773-0.06836v-1.0117c-0.30277 0.04744-0.61139 0.08008-0.92773 0.08008-2.2149 0-4.138-1.21-5.1562-3.0039z" style="fill-opacity:.75;fill:currentColor" class="ColorScheme-Text"/>
	<path id="d" d="m10.023 0c-0.23357-0.0052362-0.46161 0.071466-0.64453 0.2168-0.078863-0.032541-0.16157-0.054858-0.24609-0.066406-0.33449-0.045068-0.68732-0.078125-1.0605-0.078125-2.9344 0-5.5064 1.6115-6.875 3.9922-0.00963 0.017304-0.018753 0.034889-0.027344 0.052734-0.61074-0.10523-1.1692 0.36464-1.1699 0.98438v5.7734c7.3524e-4 0.61493 0.55101 1.0835 1.1582 0.98633 0.00852 0.01916 0.017638 0.03805 0.027344 0.05664 1.3661 2.3909 3.9449 4.0098 6.8867 4.0098 0.37323 0 0.72605-0.03305 1.0605-0.07813 0.084528-0.01155 0.16723-0.03386 0.24609-0.06641 0.32152 0.25464 0.76593 0.28716 1.1211 0.08203l5-2.8867c0.66471-0.38533 0.66471-1.3451 0-1.7305l-0.16406-0.0957c0.022-0.03711 0.04157-0.0756 0.05859-0.11524 0.38924-0.93539 0.60547-1.9633 0.60547-3.0371 0-1.0738-0.21623-2.1017-0.60547-3.0371-0.01703-0.039635-0.0366-0.078127-0.05859-0.11523l0.16406-0.095703c0.66471-0.38533 0.66471-1.3451 0-1.7305l-5-2.8867c-0.14504-0.084166-0.30892-0.13051-0.47656-0.13477zm-0.023438 1 5 2.8867-5 2.8867zm-1.9277 0.072266c0.31541-4e-7 0.6234 0.027354 0.92773 0.068359v1.0117c-0.30277-0.047442-0.61139-0.080078-0.92773-0.080078-2.2077 0-4.1256 1.2021-5.1465 2.9863l-0.86133-0.49609c1.1968-2.0817 3.439-3.4902 6.0078-3.4902zm0 3c0.32128-4e-7 0.62855 0.049734 0.92773 0.12305v1.0391c-0.29281-0.097613-0.60107-0.16211-0.92773-0.16211-1.0972 0-2.0389 0.60267-2.541 1.4902l-0.85742-0.49414c0.67795-1.1853 1.9398-1.9961 3.3984-1.9961zm-7.0723 1.0293 5 2.8867-5 2.8867zm13.471 0.24609c0.34028 0.81773 0.5293 1.7127 0.5293 2.6523 0 0.93965-0.18902 1.8346-0.5293 2.6523l-0.875-0.50586c0.25806-0.66575 0.4043-1.3882 0.4043-2.1465 0-0.75825-0.14624-1.4807-0.4043-2.1465zm-6.3984 0.72461c0.19504 0 0.39291 0.038514 0.61133 0.11133 0.10205 0.033824 0.20889 0.050971 0.31641 0.050781v0.53906c9.634e-4 0.54248 0.43423 0.98528 0.97656 0.99805 0.0091921 0.076031 0.023438 0.15085 0.023438 0.22852s-0.014245 0.15248-0.023438 0.22852c-0.54233 0.012766-0.9756 0.45557-0.97656 0.99805v0.53906c-0.10751-1.901e-4 -0.21435 0.016957-0.31641 0.050781-0.21842 0.072814-0.41628 0.11133-0.61133 0.11133-0.73589 0-1.3458-0.3978-1.6777-0.99414-0.00322-0.00458-0.00647-0.00914-0.00977-0.013672l0.11524-0.066406c0.66471-0.38533 0.66471-1.3451 0-1.7305l-0.10352-0.060547c0.00197-0.00259 0.00392-0.0052 0.00586-0.00781 0.33376-0.59002 0.93885-0.98242 1.6699-0.98242zm3.7441 0.80664c0.10778 0.3578 0.18359 0.72891 0.18359 1.1211s-0.075818 0.7633-0.18359 1.1211l-0.88086-0.50977c0.04156-0.19727 0.064453-0.40123 0.064453-0.61133s-0.022892-0.41405-0.064453-0.61133zm-1.8164 2.3477 5 2.8867-5 2.8867zm-4.4785 0.19336c0.49941 0.89723 1.4463 1.5078 2.5508 1.5078 0.32667 0 0.63493-0.0645 0.92773-0.16211v1.0391c-0.29918 0.07331-0.60646 0.12305-0.92773 0.12305-1.4658 0-2.7329-0.81879-3.4082-2.0137zm-2.6055 1.5039c1.0183 1.7939 2.9414 3.0039 5.1562 3.0039 0.31634 0 0.62497-0.03264 0.92773-0.08008v1.0117c-0.30434 0.04101-0.61232 0.06836-0.92773 0.06836-2.5754 0-4.8232-1.4153-6.0176-3.5059z" style="fill-opacity:.5;fill:currentColor" class="ColorScheme-Background"/>
</svg>
