<?xml version="1.0" encoding="UTF-8"?>
<svg id="d" width="16" height="16" version="1.1" xmlns="http://www.w3.org/2000/svg" xmlns:cc="http://creativecommons.org/ns#" xmlns:dc="http://purl.org/dc/elements/1.1/" xmlns:rdf="http://www.w3.org/1999/02/22-rdf-syntax-ns#">
	<metadata id="a">
		<rdf:RDF>
			<cc:Work rdf:about="">
				<dc:format>image/svg+xml</dc:format>
				<dc:type rdf:resource="http://purl.org/dc/dcmitype/StillImage"/>
				<dc:title/>
			</cc:Work>
		</rdf:RDF>
	</metadata>
	<defs id="e">
		<style id="current-color-scheme" type="text/css">.ColorScheme-Text {color:#090d11;}.ColorScheme-Background{color:#ffffff;}</style>
	</defs>
	<path id="b" d="m8 1c-1.3807-6e-8 -2.5 1.1193-2.5 2.5 1e-7 1.3807 1.1193 2.5 2.5 2.5 1.3807-1e-7 2.5-1.1193 2.5-2.5 0-1.3807-1.1193-2.5-2.5-2.5zm0 6c-0.60806 0-3.696 0.13535-4 0.68094-0.30403 0.54559 1.1268 3.5247 1.4309 4.0702 0.30403 0.54559 1.9611 3.2488 2.5691 3.2488 0.60806 0 2.2651-2.7032 2.5691-3.2488 0.30403-0.54559 1.7349-3.5247 1.4309-4.0702-0.30403-0.54559-3.3919-0.68094-4-0.68094z" style="fill:currentColor;fill-opacity:0.75;" class="ColorScheme-Text"/>
	<path id="c" d="m8 0c-1.9212-8.3485e-8 -3.5 1.5788-3.5 3.5 1e-7 1.0702 0.51708 1.9986 1.2832 2.6426-0.00492 5.626e-4 -0.0067997-5.666e-4 -0.011719 0-0.46977 0.054102-0.93557 0.124-1.3574 0.23438-0.21092 0.055185-0.40934 0.11744-0.61719 0.21875-0.20785 0.10131-0.46101 0.22276-0.66992 0.59766-0.21336 0.38288-0.18018 0.6458-0.16211 0.875 0.01807 0.2292 0.063505 0.43789 0.12109 0.65625 0.11518 0.43672 0.28647 0.90373 0.47461 1.3672 0.37629 0.92691 0.79207 1.7803 0.99609 2.1465 0.18621 0.33416 0.67044 1.1339 1.2285 1.9199 0.27904 0.39299 0.57068 0.77529 0.87109 1.0957 0.15021 0.1602 0.29903 0.30454 0.48633 0.43945 0.1873 0.13491 0.41094 0.30664 0.85742 0.30664s0.67013-0.17173 0.85742-0.30664 0.33612-0.27925 0.48633-0.43945c0.30042-0.32041 0.59205-0.70271 0.87109-1.0957 0.55808-0.78598 1.0423-1.5858 1.2285-1.9199 0.20403-0.36614 0.61981-1.2196 0.99609-2.1465 0.18814-0.46345 0.35943-0.93047 0.47461-1.3672 0.05759-0.21836 0.10302-0.42705 0.12109-0.65625 0.01807-0.2292 0.05125-0.49212-0.16211-0.875-0.20891-0.3749-0.46207-0.49635-0.66992-0.59766-0.20785-0.10131-0.40626-0.16356-0.61719-0.21875-0.42185-0.11037-0.88766-0.18027-1.3574-0.23438-0.0049-5.666e-4 -0.006799 5.626e-4 -0.011719 0 0.76612-0.644 1.2832-1.5724 1.2832-2.6426 0-1.9212-1.5788-3.5-3.5-3.5zm0 1c1.3807 1e-7 2.5 1.1193 2.5 2.5 0 1.3807-1.1193 2.5-2.5 2.5-1.3807 1e-7 -2.5-1.1193-2.5-2.5 2e-7 -1.3807 1.1193-2.5 2.5-2.5zm0 6c0.60806 0 3.696 0.13605 4 0.68164 0.30403 0.54559-1.1276 3.5247-1.4316 4.0703-0.30403 0.54559-1.9603 3.248-2.5684 3.248-0.60806 0-2.2643-2.7025-2.5684-3.248-0.30403-0.54559-1.7357-3.5247-1.4316-4.0703 0.30403-0.54559 3.3919-0.68164 4-0.68164z" style="fill:currentColor;fill-opacity:0.5;" class="ColorScheme-Background"/>
</svg>
