<?xml version="1.0" encoding="UTF-8"?>
<svg id="a" width="16" height="16" version="1.1" xmlns="http://www.w3.org/2000/svg" xmlns:cc="http://creativecommons.org/ns#" xmlns:dc="http://purl.org/dc/elements/1.1/" xmlns:rdf="http://www.w3.org/1999/02/22-rdf-syntax-ns#">
	<metadata id="c">
		<rdf:RDF>
			<cc:Work rdf:about="">
				<dc:format>image/svg+xml</dc:format>
				<dc:type rdf:resource="http://purl.org/dc/dcmitype/StillImage"/>
				<dc:title/>
			</cc:Work>
		</rdf:RDF>
	</metadata>
	<defs>
		<style id="current-color-scheme" type="text/css">.ColorScheme-Text {color:#090d11;}.ColorScheme-Background{color:#ffffff;}</style>
	</defs>
	<path id="b" d="m2.3125 1 2 2-2 2h-1.3125v9c0 0.554 0.446 1 1 1h12c0.554 0 1-0.446 1-1v-9-0.6875l-0.6875 0.6875h-1.625l1.6562-1.6562 0.375-0.34375-0.375-0.34375-1.6562-1.6562h-1.375l2 2-2 2h-1.625l1.6562-1.6562 0.375-0.34375-0.375-0.34375-1.6562-1.6562h-1.375l2 2-2 2h-1.625l1.6562-1.6562 0.375-0.34375-0.375-0.34375-1.6562-1.6562h-1.375l2 2-2 2h-1.625l1.6562-1.6562 0.375-0.34375-0.375-0.34375-1.6562-1.6562zm12.078 0.078125 0.53125 0.53125c-0.10094-0.23944-0.29181-0.43031-0.53125-0.53125zm-13.225 0.40039c-0.096304 0.15379-0.16602 0.3259-0.16602 0.52148v0.6875l0.3125 0.3125-0.3125 0.3125v1.375l1.3438-1.3438 0.375-0.34375-0.375-0.34375zm4.834 5.5215 5 3-5 3z" style="fill-opacity:.75;fill:currentColor" class="ColorScheme-Text"/>
	<path id="d" d="m2 0c-0.87762 0-1.6291 0.59239-1.8926 1.3906-0.0067461 0.019422-0.013282 0.038628-0.019531 0.058594-0.020344 0.068789-0.039953 0.13753-0.052734 0.20898-0.021119 0.10885-0.035156 0.22156-0.035156 0.3418v12c0 1.0907 0.9093 2 2 2h12c0.81803 0 1.5349-0.51068 1.8418-1.2266 0.10229-0.23863 0.1582-0.50076 0.1582-0.77344v-12c0-0.25703-0.05307-0.50311-0.14453-0.73047-0.0058-0.016093-0.0051-0.032908-0.01172-0.048828-0.0028-0.00666-0.01034-0.00942-0.01367-0.015625-0.20365-0.45933-0.57582-0.8315-1.0352-1.0352-0.0062-0.003326-9e-3 -0.010865-0.01563-0.013672-0.01526-0.006382-0.03145-0.006141-0.04687-0.011719-0.22783-0.091903-0.47475-0.14453-0.73242-0.14453zm0.3125 1h1.375l1.6562 1.6562 0.375 0.34375-0.375 0.34375-1.6562 1.6562h1.625l2-2-2-2h1.375l1.6562 1.6562 0.375 0.34375-0.375 0.34375-1.6562 1.6562h1.625l2-2-2-2h1.375l1.6562 1.6562 0.375 0.34375-0.375 0.34375-1.6562 1.6562h1.625l2-2-2-2h1.375l1.6562 1.6562 0.375 0.34375-0.375 0.34375-1.6562 1.6562h1.625l0.6875-0.6875v9.6875c0 0.554-0.446 1-1 1h-12c-0.554 0-1-0.446-1-1v-9h1.3125l2-2zm12.078 0.078125c0.23944 0.10094 0.43031 0.29181 0.53125 0.53125zm-13.225 0.40039 1.1777 1.1777 0.375 0.34375-0.375 0.34375-1.3438 1.3438v-1.375l0.3125-0.3125-0.3125-0.3125v-0.6875c0-0.10867 0.028777-0.20883 0.060547-0.30664 0.02769-0.073369 0.062438-0.14279 0.10352-0.20898 0.00108-0.00174 8.679e-4 -0.00413 0.00195-0.00586zm4.834 5.5215v6l5-3z" style="fill-opacity:.5;fill:currentColor" class="ColorScheme-Background"/>
</svg>
