<?xml version="1.0" encoding="UTF-8"?>
<!-- Created with Inkscape (http://www.inkscape.org/) -->
<svg width="16" height="16" version="1.1" xmlns="http://www.w3.org/2000/svg" xmlns:cc="http://creativecommons.org/ns#" xmlns:dc="http://purl.org/dc/elements/1.1/" xmlns:rdf="http://www.w3.org/1999/02/22-rdf-syntax-ns#">
	<defs>
		<style id="current-color-scheme" type="text/css">.ColorScheme-Text {
			color:#090d11;
			}
			.ColorScheme-Background{
			color:#ffffff;
			}</style>
	</defs>
	<metadata>
		<rdf:RDF>
			<cc:Work rdf:about="">
				<dc:format>image/svg+xml</dc:format>
				<dc:type rdf:resource="http://purl.org/dc/dcmitype/StillImage"/>
			</cc:Work>
		</rdf:RDF>
	</metadata>
	<path class="ColorScheme-Background" d="m1.5 0c-0.043092-1.7572e-4 -0.086151 0.0024339-0.12891 0.0078125-0.020914 0.0027237-0.041721 0.0061629-0.0625 0.0097656-0.057619 0.0074558-0.11546 0.017152-0.17188 0.03125-0.00326 6.3483e-4 -0.00651 0.0012859-0.00977 0.0019531-0.065831 0.017075-0.13045 0.038612-0.19336 0.064453-0.003266 0.001935-0.006522 0.003888-0.009766 0.005859-0.073342 0.031052-0.14346 0.06905-0.21094 0.11133-0.056246 0.034513-0.11088 0.071661-0.16211 0.11328-0.007471 0.005681-0.016073 0.009804-0.023438 0.015625-0.032982 0.025999-0.064294 0.054049-0.09375 0.083984-0.053206 0.054112-0.10206 0.1123-0.14648 0.17383v0.001953c-0.18507 0.25503-0.28634 0.56182-0.28711 0.87695v5.002c0 0.81658 0.68342 1.5 1.5 1.5 0.81658 0 1.5-0.68342 1.5-1.5v-1.3789l1 1v0.37891c0 0.81658 0.68342 1.5 1.5 1.5 0.68061 0 1.1746-0.51751 1.3516-1.1484 0.63093-0.17698 1.1484-0.67095 1.1484-1.3516 0-0.81658-0.68342-1.5-1.5-1.5h-0.37891l-1-1h1.3789c0.81658 0 1.5-0.68342 1.5-1.5 0-0.81658-0.68342-1.5-1.5-1.5zm6.5 1.5c0 0.81658 0.68342 1.5 1.5 1.5h1.3789l-1 1h-0.37891c-0.81658 0-1.5 0.68342-1.5 1.5 0 0.68061 0.51751 1.1746 1.1484 1.3516 0.17698 0.63093 0.67095 1.1484 1.3516 1.1484 0.81658 0 1.5-0.68342 1.5-1.5v-0.37891l1-1v1.3789c0 0.81658 0.68342 1.5 1.5 1.5s1.5-0.68342 1.5-1.5v-5.002c-7.67e-4 -0.31514-0.10204-0.62193-0.28711-0.87695-0.04465-0.061974-0.09292-0.12131-0.14648-0.17578-0.02946-0.029935-0.06077-0.057986-0.09375-0.083984-0.0074-0.005821-0.01597-0.009944-0.02344-0.015625-0.05123-0.04162-0.10586-0.078768-0.16211-0.11328-0.06748-0.042278-0.1376-0.080276-0.21094-0.11133-0.0032-0.001972-0.0065-0.003925-0.0098-0.005859-0.062839-0.025845-0.12749-0.047382-0.19332-0.064457-0.003252-6.6725e-4 -0.006507-0.0013183-0.009766-0.0019531-0.056391-0.014099-0.11426-0.023794-0.17188-0.03125-0.020779-0.0036028-0.041586-0.007042-0.0625-0.0097656-0.042755-0.0053786-0.085814-0.0079882-0.12891-0.0078125h-5c-0.81658 0-1.5 0.68342-1.5 1.5zm6.5 6.5c-0.81658 0-1.5 0.68342-1.5 1.5v1.3789l-1-1v-0.37891c0-0.81658-0.68342-1.5-1.5-1.5-0.68061 0-1.1746 0.51751-1.3516 1.1484-0.63093 0.17698-1.1484 0.67095-1.1484 1.3516 0 0.81658 0.68342 1.5 1.5 1.5h0.37891l1 1h-1.3789c-0.81658 0-1.5 0.68342-1.5 1.5s0.68342 1.5 1.5 1.5h5c0.04309 1.76e-4 0.08615-0.0024 0.12891-0.0078 0.02091-0.0027 0.04172-0.0062 0.0625-0.0098 0.05762-0.0075 0.11546-0.01715 0.17188-0.03125 0.0033-6.35e-4 0.0065-0.0013 0.0098-2e-3 0.06583-0.01708 0.13045-0.03861 0.19336-0.06445 0.0033-0.0019 0.0065-0.0039 0.0098-0.0059 0.07334-0.03105 0.14346-0.06905 0.21094-0.11133 0.05625-0.03451 0.11088-0.07166 0.16211-0.11328 0.0075-0.0057 0.01607-0.0098 0.02344-0.01563 0.03298-0.026 0.06429-0.05405 0.09375-0.08398 0.05321-0.05411 0.10207-0.1123 0.14648-0.17383v-2e-3c0.18493-0.25475 0.28627-0.56167 0.28704-0.8768v-5.002c0-0.81658-0.68342-1.5-1.5-1.5zm-13-7h5c0.27614 0 0.5 0.22386 0.5 0.5s-0.22386 0.5-0.5 0.5h-3.793l3 3h0.79297c0.27614 0 0.5 0.22386 0.5 0.5s-0.22386 0.5-0.5 0.5h-0.5v0.5c0 0.27614-0.22386 0.5-0.5 0.5s-0.5-0.22386-0.5-0.5v-0.79297l-3-3v3.793c0 0.27614-0.22386 0.5-0.5 0.5s-0.5-0.22386-0.5-0.5v-5c2.563e-4 -0.1053 0.033749-0.20783 0.095703-0.29297 0.015303-0.02149 0.032283-0.041736 0.050781-0.060547 0.011346-0.00897 0.023076-0.01744 0.035156-0.025391 0.018527-0.015053 0.038109-0.02876 0.058594-0.041016 0.023602-0.015076 0.048429-0.028143 0.074219-0.039063 0.020973-0.00861 0.042507-0.015792 0.064453-0.021484 0.028194-0.00705 0.056949-0.011621 0.085938-0.013672 0.011645-0.0023691 0.023371-0.0043234 0.035156-0.0058582zm8 0h5c0.01178 0.00153 0.02351 0.00349 0.03516 0.00586 0.02899 0.00205 0.05774 0.00663 0.08594 0.013672 0.02195 0.00569 0.04348 0.01287 0.06445 0.021484 0.02579 0.010919 0.05062 0.023986 0.07422 0.039063 0.02048 0.012256 0.04007 0.025963 0.05859 0.041016 0.01208 0.00795 0.02381 0.016423 0.03516 0.025391 0.0185 0.018811 0.03548 0.039056 0.05078 0.060547 0.061951 0.085141 0.095444 0.18767 0.0957 0.29297v5c0 0.27614-0.22386 0.5-0.5 0.5s-0.5-0.22386-0.5-0.5v-3.793l-3 3v0.79297c0 0.27614-0.22386 0.5-0.5 0.5s-0.5-0.22386-0.5-0.5v-0.5h-0.5c-0.27614 0-0.5-0.22386-0.5-0.5s0.22386-0.5 0.5-0.5h0.79297l3-3h-3.793c-0.27614 0-0.5-0.22386-0.5-0.5s0.22386-0.5 0.5-0.5zm1 8c0.27614 0 0.5 0.22386 0.5 0.5v0.79297l3 3v-3.793c0-0.27614 0.22386-0.5 0.5-0.5s0.5 0.22386 0.5 0.5v5c-2.56e-4 0.1053-0.03375 0.20783-0.0957 0.29297-0.0153 0.02149-0.03228 0.04174-0.05078 0.06055-0.01135 9e-3 -0.02308 0.01744-0.03516 0.02539-0.01853 0.01505-0.03811 0.02876-0.05859 0.04102-0.0236 0.01508-0.04843 0.02814-0.07422 0.03906-0.02097 0.0086-0.04251 0.01579-0.06445 0.02149-0.02819 7e-3 -0.05695 0.01162-0.08594 0.01367-0.01165 0.0024-0.02337 0.0043-0.03516 0.0059h-5c-0.27614-4.9e-5 -0.5-0.22391-0.5-0.50005s0.22386-0.5 0.5-0.5h3.793l-3-3h-0.79297c-0.27614 0-0.5-0.22386-0.5-0.5s0.22386-0.5 0.5-0.5h0.5v-0.5c0-0.27614 0.22386-0.5 0.5-0.5z" style="fill-opacity:.5;fill:currentColor"/>
	<path class="ColorScheme-Text" d="m1.5 1c-0.011785 0.00153-0.023511 0.00349-0.035156 0.00586-0.028989 0.00205-0.057743 0.00663-0.085938 0.013672-0.021947 0.00569-0.043481 0.01287-0.064453 0.021484-0.02579 0.010919-0.050617 0.023986-0.074219 0.039063-0.020485 0.012256-0.040067 0.025963-0.058594 0.041016-0.01208 0.00795-0.02381 0.016423-0.035156 0.025391-0.018498 0.018811-0.035478 0.039056-0.050781 0.060547-0.061954 0.085141-0.095447 0.18767-0.095703 0.29297v5c0 0.27614 0.22386 0.5 0.5 0.5s0.5-0.22386 0.5-0.5v-3.793l3 3v0.79297c0 0.27614 0.22386 0.5 0.5 0.5s0.5-0.22386 0.5-0.5v-0.5h0.5c0.27614 0 0.5-0.22386 0.5-0.5s-0.22386-0.5-0.5-0.5h-0.79297l-3-3h3.793c0.27614 0 0.5-0.22386 0.5-0.5s-0.22386-0.5-0.5-0.5zm8 0c-0.27614 0-0.5 0.22386-0.5 0.5s0.22386 0.5 0.5 0.5h3.793l-3 3h-0.79297c-0.27614 0-0.5 0.22386-0.5 0.5s0.22386 0.5 0.5 0.5h0.5v0.5c0 0.27614 0.22386 0.5 0.5 0.5s0.5-0.22386 0.5-0.5v-0.79297l3-3v3.793c0 0.27614 0.22386 0.5 0.5 0.5s0.5-0.22386 0.5-0.5v-5c-2.56e-4 -0.1053-0.03375-0.20783-0.0957-0.29297-0.0153-0.02149-0.03228-0.041736-0.05078-0.060547-0.01135-0.00897-0.02308-0.01744-0.03516-0.025391-0.01853-0.015053-0.03811-0.02876-0.05859-0.041016-0.0236-0.015076-0.04843-0.028143-0.07422-0.039063-0.02097-0.00861-0.04251-0.015792-0.06445-0.021484-0.02819-0.00705-0.05695-0.011621-0.08594-0.013672-0.011649-0.0023691-0.023375-0.0043234-0.03516-0.0058582zm1 8c-0.27614 0-0.5 0.22386-0.5 0.5v0.5h-0.5c-0.27614 0-0.5 0.22386-0.5 0.5s0.22386 0.5 0.5 0.5h0.79297l3 3h-3.793c-0.27614 0-0.5 0.22386-0.5 0.5s0.22386 0.5 0.5 0.5h5c0.01178-0.0015 0.02351-0.0035 0.03516-0.0059 0.02899-0.0021 0.05774-0.0066 0.08594-0.01367 0.02195-0.0057 0.04348-0.01287 0.06445-0.02149 0.02579-0.01092 0.05062-0.02399 0.07422-0.03906 0.02048-0.01226 0.04007-0.02596 0.05859-0.04102 0.01208-8e-3 0.02381-0.01642 0.03516-0.02539 0.0185-0.01881 0.03548-0.03906 0.05078-0.06055 0.061951-0.085094 0.095444-0.18762 0.0957-0.29292v-5c0-0.27614-0.22386-0.5-0.5-0.5s-0.5 0.22386-0.5 0.5v3.793l-3-3v-0.79297c0-0.27614-0.22386-0.5-0.5-0.5z" style="fill-opacity:.75;fill:currentColor"/>
</svg>
