<?xml version="1.0" encoding="UTF-8" standalone="no"?>
<!-- Created with Inkscape (http://www.inkscape.org/) -->

<svg
   xmlns:dc="http://purl.org/dc/elements/1.1/"
   xmlns:cc="http://creativecommons.org/ns#"
   xmlns:rdf="http://www.w3.org/1999/02/22-rdf-syntax-ns#"
   xmlns:svg="http://www.w3.org/2000/svg"
   xmlns="http://www.w3.org/2000/svg"
   xmlns:sodipodi="http://sodipodi.sourceforge.net/DTD/sodipodi-0.dtd"
   xmlns:inkscape="http://www.inkscape.org/namespaces/inkscape"
   version="1.1"
   width="18"
   height="18"
   id="svg2"
   inkscape:version="0.92.2 5c3e80d, 2017-08-06"
   sodipodi:docname="whatsapp.svg">
  <sodipodi:namedview
     pagecolor="#ffffff"
     bordercolor="#666666"
     borderopacity="1"
     objecttolerance="10"
     gridtolerance="10"
     guidetolerance="10"
     inkscape:pageopacity="0"
     inkscape:pageshadow="2"
     inkscape:window-width="1920"
     inkscape:window-height="1023"
     id="namedview6"
     showgrid="true"
     inkscape:zoom="32"
     inkscape:cx="-0.824908"
     inkscape:cy="7.8335184"
     inkscape:window-x="-10"
     inkscape:window-y="35"
     inkscape:window-maximized="1"
     inkscape:current-layer="svg2"
     inkscape:snap-global="false">
    <inkscape:grid
       type="xygrid"
       id="grid2982"
       empspacing="5"
       visible="true"
       enabled="true"
       snapvisiblegridlinesonly="true" />
  </sodipodi:namedview>
  <defs
     id="defs4" />
  <metadata
     id="metadata7">
    <rdf:RDF>
      <cc:Work
         rdf:about="">
        <dc:format>image/svg+xml</dc:format>
        <dc:type
           rdf:resource="http://purl.org/dc/dcmitype/StillImage" />
        <dc:title></dc:title>
      </cc:Work>
    </rdf:RDF>
  </metadata>
  <path
     style="color:#000000;display:inline;overflow:visible;visibility:visible;fill:none;fill-opacity:1;fill-rule:nonzero;stroke:#27303a;stroke-width:1;stroke-miterlimit:4;stroke-dasharray:none;stroke-opacity:0.75294118;marker:none;enable-background:accumulate"
     d="m 9.0469528,1.458201 c -4.1479436,0 -7.5154566,3.3573842 -7.5154566,7.5053279 0,1.4189111 0.3998192,2.7472661 1.0837652,3.8792731 L 1.2580228,16.874004 5.4107683,15.54715 c 1.0760375,0.595265 2.3194604,0.931836 3.6361845,0.931836 4.1477962,0 7.5053292,-3.367661 7.5053292,-7.5154571 0,-4.1479437 -3.357533,-7.5053279 -7.5053292,-7.5053279 z"
     id="path969"
     inkscape:connector-curvature="0" />
  <path
     style="color:#000000;display:inline;overflow:visible;visibility:visible;opacity:1;vector-effect:none;fill:#f1f3f5;fill-opacity:0.90288714;fill-rule:nonzero;stroke:none;stroke-width:1.85164511;stroke-linecap:butt;stroke-linejoin:miter;stroke-miterlimit:4;stroke-dasharray:none;stroke-dashoffset:0;stroke-opacity:1;marker:none;enable-background:accumulate"
     d="m 9.0351562,1.9414063 c -3.900584,0 -7.0488281,3.1379612 -7.0488281,7.0371093 0,1.3314144 0.3732447,2.5735084 1.015625,3.6367184 l 0.2148438,0.34961 -1.0058594,2.986328 3.0820313,-0.984375 0.3339843,0.185547 c 1.0067182,0.556917 2.169221,0.873047 3.4082031,0.873047 3.8989538,0 7.0371098,-3.146485 7.0371098,-7.0468754 0,-3.900563 -3.136698,-7.0371091 -7.0371098,-7.0371093 z M 8.90625,2.9257812 H 8.9082 c 0.245603,-5.303e-4 0.493644,-0.00144 0.7421875,0.00977 a 0.09540029,0.09540029 0 0 1 0.00391,0 c 1.0537485,0.089129 2.0718745,0.4942887 2.9257815,1.109375 h 0.002 c 1.284689,0.9154423 2.172447,2.3462496 2.44336,3.8984375 a 0.09540029,0.09540029 0 0 0 0,0.00195 c 0.08602,0.5742031 0.06886,1.1297873 0.04297,1.7050783 a 0.09540029,0.09540029 0 0 1 0,0.0059 c -0.195643,1.733919 -1.176604,3.366865 -2.632812,4.335938 l -0.002,0.002 C 10.866196,15.070454 8.7830315,15.336879 6.9980469,14.675781 6.4000476,14.5011 5.9207381,14.090619 5.3535156,14.066406 4.847623,14.107615 4.3583869,14.316691 3.84375,14.458984 A 0.09540029,0.09540029 0 0 1 3.7285156,14.337891 c 0.089208,-0.270664 0.1773641,-0.539629 0.2597656,-0.810547 a 0.09540029,0.09540029 0 0 1 0.00195,-0.0078 C 4.142103,13.126367 4.1591996,12.67955 3.9667969,12.308594 3.3671373,11.325105 2.9757598,10.193026 2.9765625,9.025391 2.9381004,6.9172919 4.0987612,4.8525045 5.9101562,3.7773438 6.8083266,3.2485379 7.8455725,2.8953349 8.90625,2.9257812 Z M 6.6015625,5.6191406 c -0.115486,0 -0.2983436,0.04538 -0.4570313,0.21875 -0.1588288,0.1733703 -0.6093749,0.5872838 -0.609375,1.4394532 0,0.8523101 0.6185343,1.6755295 0.7050782,1.7910152 0.086685,0.115628 1.2019383,1.927612 2.9628906,2.621094 1.761093,0.69334 1.760608,0.458488 2.078125,0.429688 0.317515,-0.02895 1.027445,-0.415971 1.171875,-0.820313 0.144287,-0.404484 0.138902,-0.755839 0.0957,-0.828125 -0.04334,-0.07228 -0.160753,-0.114346 -0.333981,-0.201172 -0.173087,-0.08654 -1.022814,-0.504757 -1.181641,-0.5625 -0.158829,-0.05774 -0.275137,-0.08744 -0.390625,0.08594 -0.115485,0.17337 -0.441883,0.562249 -0.542969,0.677734 -0.101085,0.115484 -0.2077706,0.13342 -0.380859,0.04687 C 9.5455205,10.430752 8.9898402,10.250011 8.328125,9.660156 7.8132376,9.201035 7.4663189,8.6323548 7.3652344,8.4589844 7.2641488,8.2856141 7.3547223,8.193683 7.4414062,8.1074219 7.5193439,8.0297685 7.6107205,7.902009 7.6972656,7.8007812 7.7839502,7.6996949 7.811397,7.6216276 7.8691406,7.5058594 7.9268781,7.3903741 7.9027169,7.2976232 7.859375,7.2109375 7.81604,7.1242526 7.4704587,6.2705689 7.3261719,5.9238281 7.1818843,5.5770875 7.0366328,5.6289062 6.9355469,5.6289062 c -0.1010858,0 -0.2184979,-0.00977 -0.3339844,-0.00977 z"
     id="path899"
     inkscape:connector-curvature="0" />
  <path
     id="path847"
     d="M 8.90625,2.9257812 C 7.8455725,2.8953349 6.8083266,3.2485379 5.9101562,3.7773438 4.0987612,4.8525045 2.9381004,6.9172919 2.9765625,9.025391 c -8.027e-4,1.167635 0.3905748,2.299714 0.9902344,3.283203 0.1924027,0.370956 0.1753061,0.817773 0.023437,1.210937 a 0.09540029,0.09540029 0 0 0 -0.00195,0.0078 c -0.082402,0.270918 -0.1705571,0.539883 -0.2597656,0.810547 A 0.09540029,0.09540029 0 0 0 3.84375,14.458984 c 0.5146369,-0.142293 1.003873,-0.351369 1.5097656,-0.392578 0.5672225,0.02421 1.046532,0.434694 1.6445313,0.609375 1.7849846,0.661098 3.8681491,0.394673 5.4355471,-0.68164 l 0.002,-0.002 c 1.456208,-0.969073 2.437169,-2.602019 2.632812,-4.335938 a 0.09540029,0.09540029 0 0 0 0,-0.0059 c 0.0259,-0.575291 0.04306,-1.130875 -0.04297,-1.7050781 a 0.09540029,0.09540029 0 0 0 0,-0.00195 C 14.754478,6.3911715 13.86672,4.9603642 12.582031,4.0449219 h -0.002 C 11.726171,3.4298356 10.708046,3.0246758 9.6542969,2.9355469 a 0.09540029,0.09540029 0 0 0 -0.00391,0 C 9.4018471,2.924343 9.1538061,2.9252509 8.9082031,2.9257812 Z M 6.6015625,5.6191406 c 0.1154865,0 0.2328986,0.00977 0.3339844,0.00977 0.1010859,0 0.2463374,-0.051819 0.390625,0.2949219 C 7.4704587,6.2705733 7.81604,7.124257 7.859375,7.2109419 7.902717,7.2976279 7.926878,7.3903785 7.869145,7.5058638 7.811397,7.6216276 7.7839502,7.6996948 7.6972656,7.8007812 7.6107205,7.902009 7.5193439,8.0297685 7.4414062,8.1074219 7.3547223,8.193683 7.2641488,8.2856141 7.3652344,8.4589844 7.4663189,8.6323548 7.8132376,9.201035 8.328125,9.660156 c 0.6617152,0.589855 1.2173955,0.770596 1.390625,0.857422 0.1730884,0.08655 0.279774,0.06861 0.380859,-0.04687 0.101086,-0.115485 0.427484,-0.504364 0.542969,-0.677734 0.115488,-0.173373 0.231796,-0.143675 0.390625,-0.08594 0.158827,0.05774 1.008554,0.475956 1.181641,0.5625 0.173228,0.08683 0.29064,0.128892 0.333984,0.201172 0.0432,0.07229 0.04858,0.423641 -0.0957,0.828125 -0.14443,0.404342 -0.85436,0.791363 -1.171875,0.820313 -0.317517,0.0288 -0.317032,0.263652 -2.078125,-0.429688 C 7.4421727,10.995971 6.3269194,9.183987 6.2402344,9.068359 6.1536905,8.9528733 5.5351562,8.1296539 5.5351562,7.2773438 c 10e-8,-0.8521694 0.4505462,-1.2660829 0.609375,-1.4394532 0.1586877,-0.1733704 0.3415453,-0.21875 0.4570313,-0.21875 z"
     style="opacity:1;vector-effect:none;fill:#27303a;fill-opacity:0.75328082;fill-rule:nonzero;stroke:none;stroke-width:1;stroke-linecap:butt;stroke-linejoin:miter;stroke-miterlimit:4;stroke-dasharray:none;stroke-dashoffset:0;stroke-opacity:1;marker:none"
     inkscape:connector-curvature="0" />
</svg>
