<?xml version="1.0" encoding="UTF-8"?>
<svg id="c" width="16" height="16" version="1.1" xmlns="http://www.w3.org/2000/svg" xmlns:cc="http://creativecommons.org/ns#" xmlns:dc="http://purl.org/dc/elements/1.1/" xmlns:rdf="http://www.w3.org/1999/02/22-rdf-syntax-ns#" xmlns:xlink="http://www.w3.org/1999/xlink">
	<metadata id="d">
		<rdf:RDF>
			<cc:Work rdf:about="">
				<dc:format>image/svg+xml</dc:format>
				<dc:type rdf:resource="http://purl.org/dc/dcmitype/StillImage"/>
				<dc:title/>
			</cc:Work>
		</rdf:RDF>
	</metadata>
	<defs>
		<style id="current-color-scheme" type="text/css">.ColorScheme-Text{color:#090d11;}.ColorScheme-Background{color:#ffffff;}</style>
	</defs>
	<path id="a" d="m2.8965 0.99219c-1.0125 1.7639-2.4615 5.3469-1.9316 7.332 0.26499 0.99248 0.86012 1.8465 1.7793 2.459 0.80788 0.53819 1.9593 0.80845 3.2617 1.0137 0.30479 0.048 0.87695 0.037071 0.87695 1.7285 0 0.30279-0.022974 0.49023-0.87695 0.49023-2.1865 0-2.5 0.37897-2.5 0.94336h3.5 3.3359l-0.18945 0.18945 0.6875 0.6875 2.1562-2.1562 2.1562 2.1562 0.6875-0.6875-2.1562-2.1562 2.1562-2.1562-0.6875-0.6875-4.6602 4.6602c-0.0648-0.47946-0.50233-0.79297-2.4863-0.79297-0.85428 0-0.87695-0.18744-0.87695-0.49023 0-1.6917 0.57216-1.6805 0.87695-1.7285 0.9326-0.14694 1.7812-0.33098 2.4883-0.61914l1.0645 1.0645 0.6875-0.6875-0.86328-0.86328c0.010031-0.0072 0.017404-0.016227 0.027344-0.023437l-0.7168-0.70508c-0.73483 0.48393-1.7925 0.83337-3.2383 0.98047l-0.44922 0.044922-0.44922-0.044922c-1.4576-0.1483-2.5223-0.5021-3.2578-0.99219-0.73549-0.48999-1.2486-1.0611-1.457-1.8418-0.41679-1.5615 0.1343-4.2225 1.5215-7.0957l-0.4668-0.021484zm8.2187 0-0.4668 0.021484c1.3872 2.8732 1.9383 5.5342 1.5215 7.0957-0.12706 0.47598-0.3799 0.86751-0.71484 1.2168l0.67578 0.67578c0.43225-0.48874 0.74854-1.0505 0.91602-1.6777 0.52989-1.9852-0.9192-5.5682-1.9316-7.332zm-3.9824 0.70508c-0.15102 0-0.27344 0.12242-0.27344 0.27344s0.12242 0.27344 0.27344 0.27344 0.27344-0.12242 0.27344-0.27344-0.12242-0.27344-0.27344-0.27344zm-1.5039 0.033203c-0.15779-0.0027299-0.33015 0.015802-0.51172 0.064453-1.0017 0.2684-1.5184 1.477-1.7168 1.959-1.6309 3.9634-0.028576 6.1934 3.5312 6.1934 4.2118 0 4.8749-2.6816 3.9922-5.5215-1.1982-1.1982-5.0942 2.4612-6.291 0.38867-0.41509-0.71889 0.11658-1.9453 1.0898-1.9453 1.4468 0 1.0108-1.1196-0.09375-1.1387zm1.8008 0.75977c-0.28085 0.019796-0.49844 0.2536-0.49805 0.53516 3.606e-4 0.29543 0.23972 0.53483 0.53516 0.53516 0.29543-3.246e-4 0.53483-0.23972 0.53516-0.53516-3.606e-4 -0.29543-0.23972-0.53483-0.53516-0.53516-0.012365-4.291e-4 -0.024741-4.291e-4 -0.037109 0z" style="fill:currentColor;fill-opacity:0.75;" class="ColorScheme-Text"/>
	<path id="b" d="m10.979-0.0097656c1.0125 1.7639 2.5885 6.3566 2.0586 8.3418-0.16658 0.62387-0.47834 1.183-0.9043 1.6719l-0.88476-0.88477c0.037279-0.058751 0.080153-0.11006 0.11523-0.17188 0.78539-1.3839 0.54051-3.0209 0.027344-4.5859-0.22463-0.68514-0.601-1.5644-1.9336-1.3613-1.6678 0.25421-4.875 2.5622-4.875 0.91406 0-0.090251 0.014071-0.16833 0.037109-0.23828-0.11556 0.27329-0.1578 0.57475-0.095703 0.84766v0.0019531c0.023313 0.10168 0.05974 0.19973 0.11133 0.28906 0.43232 0.74875 1.3118 0.71218 2.2812 0.44141 1.1814-0.36907 2.4985-1.101 3.375-1.0703 0.04944 0.00173 0.096077 0.00875 0.14258 0.015625 0.08229 0.00749 0.15784 0.02315 0.22461 0.050781 0.0153 0.00615 0.028149 0.01644 0.042969 0.023438 0.05064 0.02633 0.10144 0.052219 0.14062 0.09375 0.02684 0.020604 0.059374 0.032031 0.083984 0.056641 0.01414 0.045497 0.019863 0.089355 0.033203 0.13477 0.0035 0.00929 0.010432 0.013752 0.013672 0.023438 0.19864 0.5943 0.30609 1.2224 0.28906 1.832v0.0019532c0.01454 1.9844-1.1338 3.5293-4.3281 3.5293-3.5598 0.050607-5.1837-2.1968-3.5527-6.1602 0.089353-0.21709 0.25933-0.58998 0.49805-0.95703 0.025978-0.040503 0.042294-0.078908 0.070313-0.11914 0.13759-0.19758 0.3004-0.38673 0.49023-0.54688-0.75665 0.61508-1.4107 1.5671-1.834 2.4551-0.39854 0.83612-1.1084 2.8064-0.23828 4.2344 0.86998 1.4277 2.5776 2.0898 4.5664 2.0898 1.7038 0 2.8685-0.33383 3.6797-1.0586l0.79688 0.78516c-0.0095 0.0069-0.018333 0.014224-0.027344 0.021484l0.81836 0.81836c0.01265-0.0084 0.028456-0.012965 0.041016-0.021485l0.066406 0.066407-2.1562 2.1562 0.6875 0.71875 5-5-0.6875-0.71875-2.1562 2.1563-0.011719-0.011719c0.41438-0.45153 0.7532-1.0066 0.98828-1.7285 0.82116-2.5214-1.074-6.6645-2.457-9.1348l-0.53711-0.0019531zm-8.4863 0.0019531c-1.1875 2.3904-3.2142 6.6276-2.4727 9.0078 0.88164 2.8299 3.0756 3.3432 5.6172 3.752 0.14784-0.1994 0.67441 0.83568 0.69141 0.89648-1.0157 0.009999-2.0201 0.27469-2.6074 0.55078-1.0535 0.61579-1.2246 0.6417-1.2246 1.7676h4.5 4.5c0.03118-0.32843 0.017707-0.56541-0.033203-0.75391l-0.62305 0.62305-0.6875-0.6875 0.18164-0.18164h-3.3379-3.5c0-0.56439 0.31354-0.94336 2.5-0.94336 0.85398 0 0.87695-0.18745 0.87695-0.49024 0-1.6915-0.57216-1.6805-0.87695-1.7285-1.0797-0.17011-2.0422-0.39441-2.8047-0.76953h-0.25v-0.13281c-0.066714-0.038619-0.14436-0.069579-0.20703-0.11133-0.91918-0.61249-1.5143-1.4665-1.7793-2.459-0.52989-1.9852 1.1242-6.5311 2.1367-8.2949l0.054688 0.0019531v-0.035156l-0.6543-0.011719zm3.8105 1.5039c-0.15765-0.0049399-0.32847 0.0014312-0.51172 0.023437-0.32753 0.039345-0.64421 0.19227-0.95312 0.38672 0.088994-0.045486 0.18138-0.084569 0.28125-0.11133 0.1816-0.047999 0.35391-0.064453 0.51172-0.064453 0.2762 0.0047699 0.50996 0.077894 0.68359 0.18555 0.08746 0.05422 0.15869 0.11652 0.21289 0.18359 0.2686 0.33249 0.10018 0.76953-0.80273 0.76953-0.24332 0-0.45844 0.076922-0.63867 0.20312-0.18023 0.12621-0.32637 0.30176-0.42773 0.5-0.013014 0.025461-0.017729 0.053931-0.029297 0.080078 0.18531-0.4929 0.90923-0.49391 1.3555-0.52539 0.35773-0.025238 0.67788-0.02785 0.95508-0.070312-6.851e-4 -0.010842-0.0058493-0.020243-0.0058593-0.03125-3.967e-4 -0.2816 0.21713-0.51514 0.49805-0.53516 0.012001-4.003e-4 0.025109-4.003e-4 0.037109 0 0.073209 7.21e-5 0.14349 0.014373 0.20703 0.041016 0.067263-0.25106-0.045587-0.52945-0.33984-0.73633 0.041711 0.047989 0.072266 0.10722 0.072266 0.17578 0 0.1511-0.12234 0.27344-0.27344 0.27344-0.151 0-0.27344-0.12244-0.27344-0.27344 0-0.151 0.12244-0.27344 0.27344-0.27344-0.21812-0.10799-0.48337-0.19024-0.83203-0.20117zm4.1953 9.6855c-0.70954 0.29118-1.5637 0.4752-2.502 0.62305-0.30479 0.048-0.87695 0.03689-0.87695 1.7285 0 0.30279 0.022676 0.49024 0.87695 0.49024 1.9867 0 2.4224 0.31438 2.4863 0.79492l0.34766-0.34766c-0.16993-0.11834-0.3675-0.24993-0.58984-0.42969-0.58729-0.276-1.7499-0.41543-2.7656-0.42383 0.017002-0.060998 0.76191-0.84098 0.75391-0.83398 1.1631-0.19525 2.1946-0.42113 3.0742-0.79688l-0.80469-0.80469zm3.9355 1.123-0.6875 0.6875 1.4062 1.4375 0.6875-0.71875-1.4062-1.4062z" style="fill:currentColor;fill-opacity:0.5;" class="ColorScheme-Background"/>
</svg>
