<?xml version="1.0" encoding="UTF-8"?>
<!-- Created with Inkscape (http://www.inkscape.org/) -->
<svg width="16" height="16" version="1.1" xmlns="http://www.w3.org/2000/svg" xmlns:cc="http://creativecommons.org/ns#" xmlns:dc="http://purl.org/dc/elements/1.1/" xmlns:rdf="http://www.w3.org/1999/02/22-rdf-syntax-ns#">
	<metadata>
		<rdf:RDF>
			<cc:Work rdf:about="">
				<dc:format>image/svg+xml</dc:format>
				<dc:type rdf:resource="http://purl.org/dc/dcmitype/StillImage"/>
			</cc:Work>
		</rdf:RDF>
	</metadata>
	<defs>
		<style id="current-color-scheme" type="text/css">.ColorScheme-Text {
				color:#090d11;
			}
			.ColorScheme-Background{
				color:#ffffff;
			}</style>
	</defs>
	<path class="ColorScheme-Text" d="m8 0c-4.406 0-8 3.5947-8 7.998 0 4.4032 3.594 7.9961 8 7.9961 4.4061 0 8-3.5927 8-7.9961 0-4.4035-3.5939-7.998-8-7.998zm0 0.99805c3.8619 0 7 3.1397 7 7 0 3.8602-3.1381 6.998-7 6.998-3.8618 0-7-3.1378-7-6.998 0-3.8603 3.1382-7 7-7zm0 0.98828c-0.17073 0-0.33878 0.011488-0.50586 0.025391-0.11397 0.010178-0.22664 0.022409-0.33984 0.039062-0.086958 0.012248-0.17407 0.025095-0.25977 0.041016-0.11772 0.022779-0.23541 0.04836-0.35156 0.078125-0.07188 0.017887-0.14402 0.036196-0.21484 0.056641-0.12727 0.037756-0.25441 0.078921-0.37891 0.125-0.061745 0.0224-0.12281 0.04206-0.18359 0.066406-0.11344 0.046885-0.22558 0.098612-0.33594 0.15234-0.073911 0.035047-0.15046 0.067532-0.22266 0.10547-0.093152 0.050127-0.18306 0.10129-0.27344 0.15625-0.079877 0.047536-0.16282 0.093451-0.24023 0.14453-0.078532 0.053515-0.15456 0.10885-0.23047 0.16602-0.08658 0.063226-0.17484 0.1257-0.25781 0.19336-0.046502 0.039554-0.091439 0.080146-0.13672 0.12109-0.1059 0.091872-0.21136 0.18421-0.31055 0.2832-0.011502 0.011479-0.021795 0.023584-0.033203 0.035156-0.1248 0.12657-0.24616 0.25731-0.35938 0.39453-0.85608 1.0377-1.3711 2.3674-1.3711 3.8203 0 3.3206 2.6845 6.0059 6.0059 6.0059s6.0059-2.6852 6.0059-6.0059c0-0.62265-0.09626-1.2227-0.27148-1.7871-0.05699-0.18354-0.12168-0.36358-0.19531-0.53906-0.0016-0.00448-0.0043-0.0092-0.0059-0.013672-0.0047-0.011353-0.0088-0.021894-0.01367-0.033203-0.06852-0.15923-0.14512-0.31506-0.22656-0.4668-0.01817-0.032038-0.03594-0.064003-0.05469-0.095703-0.07573-0.13494-0.15468-0.26631-0.24023-0.39453-0.02805-0.040603-0.0569-0.081194-0.08594-0.12109-0.084247-0.11982-0.17101-0.23844-0.26363-0.35156-0.026-0.030454-0.05152-0.059915-0.07813-0.089844-0.101-0.11847-0.20465-0.23548-0.31445-0.3457-0.02333-0.021992-0.04663-0.042836-0.07031-0.064453-0.11438-0.11122-0.23057-0.2204-0.35352-0.32227-0.0033-0.0028-0.0084-0.00698-0.01172-0.00977-0.03825-0.031535-0.08013-0.057291-0.11914-0.087891-0.10852-0.085096-0.21573-0.17046-0.33008-0.24805-0.12306-0.081196-0.24825-0.15853-0.37695-0.23047-0.03706-0.021341-0.07181-0.045839-0.10938-0.066406l-0.0039-0.00195c-0.17468-0.095487-0.35381-0.18204-0.53711-0.25976-0.18503-0.078161-0.37448-0.14775-0.56641-0.20703-0.18612-0.057767-0.37359-0.10703-0.56445-0.14648-0.00551-0.00113-0.012047-8.332e-4 -0.017578-0.0019531-0.05306-0.00854-0.10689-0.016322-0.16016-0.023438-0.1441-0.027091-0.2879-0.049901-0.43359-0.066406-0.19972-0.020073-0.40083-0.029256-0.60156-0.029297zm-2.8516 2.4023 2.8574 2.8516 2.8594-2.8516 1.084 1.0859-3.1719 3.168v3.7773h-1.5371v-3.7715l-3.1777-3.1738z" style="fill-opacity:.75;fill:currentColor"/>
	<path class="ColorScheme-Background" d="m8 0.99805c-3.7968 0-7.0039 3.0493-7.0039 6.9434 0 3.894 3.1391 7.0605 7.0039 7.0605s7.0059-3.1665 7.0059-7.0605c0-3.8941-3.2089-6.9434-7.0059-6.9434zm0 0.98828c3.3214 0 6.0059 2.683 6.0059 6.0039 0 3.3206-2.6845 6.0059-6.0059 6.0059s-6.0039-2.6852-6.0039-6.0059c0-3.3208 2.6826-6.0039 6.0039-6.0039zm-2.8516 2.4004-1.0859 1.0859 3.1777 3.1758v3.7715h1.5371v-3.7773l3.1738-3.1699-1.0859-1.0859-2.8594 2.8555z" style="fill-opacity:.5;fill:currentColor"/>
</svg>
