<?xml version="1.0" encoding="UTF-8"?>
<svg id="g" width="22" height="22" version="1.1" xmlns="http://www.w3.org/2000/svg" xmlns:cc="http://creativecommons.org/ns#" xmlns:dc="http://purl.org/dc/elements/1.1/" xmlns:rdf="http://www.w3.org/1999/02/22-rdf-syntax-ns#">
	<metadata id="a">
		<rdf:RDF>
			<cc:Work rdf:about="">
				<dc:format>image/svg+xml</dc:format>
				<dc:type rdf:resource="http://purl.org/dc/dcmitype/StillImage"/>
				<dc:title/>
			</cc:Work>
		</rdf:RDF>
	</metadata>
	<defs id="b">
		<style id="current-color-scheme" type="text/css">.ColorScheme-Text {color:#090d11;}.ColorScheme-Background{color:#ffffff;}</style>
	</defs>
	<path id="f" class="ColorScheme-Text" d="m11 3c-4.4217 0-8.0061 3.5844-8.0061 8.0061s3.5844 8.0061 8.0061 8.0061 8.0061-3.5844 8.0061-8.0061-3.5844-8.0061-8.0061-8.0061zm-2.3397 1.8058 1.543 4.0516c-0.1318 0.049-0.2672 0.098-0.3863 0.1691l-2.5313-3.5187c0.423-0.2846 0.8854-0.5177 1.3746-0.702zm-1.8134 1.0529 2.5838 3.4332c-0.3759 0.3445-0.6151 0.826-0.7001 1.3521l-4.2819-0.7201c0.2717-1.6313 1.1464-3.0596 2.3982-4.0652zm4.1531 4.1474c0.5523 0 1 0.4477 1 1s-0.4477 1-1 1-1-0.4477-1-1 0.4477-1 1-1zm2.2694 1.3621 4.2819 0.72c-0.2717 1.6313-1.1464 3.0597-2.3982 4.0653l-2.5839-3.4333c0.376-0.3444 0.6152-0.8259 0.7002-1.352zm-1.0865 1.6175 2.5313 3.5187c-0.4229 0.2846-0.8853 0.5178-1.3745 0.702l-1.5431-4.0517c0.1319-0.05 0.2673-0.098 0.3863-0.169z" style="fill-opacity:.75;fill:currentColor"/>
	<path id="h" class="ColorScheme-Background" d="m11 1.8125c-5.0675 0-9.1875 4.12-9.1875 9.1875s4.12 9.1875 9.1875 9.1875 9.1875-4.12 9.1875-9.1875-4.12-9.1875-9.1875-9.1875zm0 1.1814c4.4217 0 8.0061 3.5844 8.0061 8.0061s-3.5844 8.0061-8.0061 8.0061-8.0061-3.5844-8.0061-8.0061 3.5844-8.0061 8.0061-8.0061zm-2.3397 1.8058c-0.48919 0.18428-0.95157 0.41741-1.3746 0.70192l2.5314 3.5187c0.11913-0.07123 0.25456-0.11955 0.38627-0.169zm-1.8133 1.0529c-1.2519 1.0056-2.1266 2.4339-2.3982 4.0653l4.2819 0.71999c0.084903-0.52603 0.3242-1.0076 0.70012-1.352zm4.153 4.1474c-0.5523 0-1 0.4477-1 1s0.4477 1 1 1 1-0.4477 1-1-0.4477-1-1-1zm2.2694 1.3621c-0.0849 0.52611-0.32412 1.0076-0.70012 1.352l2.5838 3.4333c1.2518-1.0056 2.1266-2.4339 2.3982-4.0653zm-1.0864 1.6175c-0.11905 0.07123-0.25448 0.11955-0.38627 0.169l1.543 4.0516c0.48919-0.18418 0.95166-0.41741 1.3746-0.70192z" style="fill-opacity:.5;fill:currentColor"/>
</svg>
