<?xml version="1.0" encoding="UTF-8"?>
<!-- Created with Inkscape (http://www.inkscape.org/) -->
<svg width="16" height="16" version="1.1" xmlns="http://www.w3.org/2000/svg" xmlns:cc="http://creativecommons.org/ns#" xmlns:dc="http://purl.org/dc/elements/1.1/" xmlns:rdf="http://www.w3.org/1999/02/22-rdf-syntax-ns#">
	<defs>
		<style id="current-color-scheme" type="text/css">.ColorScheme-Text {color:#090d11;}.ColorScheme-Background{color:#ffffff;}</style>
	</defs>
	<metadata>
		<rdf:RDF>
			<cc:Work rdf:about="">
				<dc:format>image/svg+xml</dc:format>
				<dc:type rdf:resource="http://purl.org/dc/dcmitype/StillImage"/>
			</cc:Work>
		</rdf:RDF>
	</metadata>
	<g transform="translate(-410 -1055.4)">
		<g class="ColorScheme-Text" style="fill-opacity:.75;fill:currentColor">
			<path transform="translate(410 1055.4)" d="m8 1c-2.7614 0-5 2.2387-5 5v3.5a0.50005 0.50005 0 0 0 0.14648 0.35352l1.0684 1.0684-0.20508 1.4375a1 1 0 0 0 0.84961 1.1309 1 1 0 0 0 1.1309-0.84766l0.5-3.5a1 1 0 0 0-0.84961-1.1309 1 1 0 0 0-1.1309 0.84766l-0.11719 0.82617-0.39258-0.39258v-3.293c0-2.2246 1.7754-4 4-4s4 1.7754 4 4v3.293l-0.39258 0.39258-0.11719-0.82617a1 1 0 0 0-1.1309-0.84766 1 1 0 0 0-0.84961 1.1309l0.5 3.5a1 1 0 0 0 1.1309 0.84766 1 1 0 0 0 0.84961-1.1309l-0.20508-1.4375 1.0684-1.0684a0.50005 0.50005 0 0 0 0.14648-0.35352v-3.5c0-2.7613-2.2386-5-5-5zm6.5 5.5a0.5 0.5 0 0 0-0.5 0.5v6.5c0 0.8397-0.66036 1.5-1.5 1.5h-4a0.5 0.5 0 0 0-0.5 0.5 0.5 0.5 0 0 0 0.5 0.5h4c1.3763 0 2.5-1.1236 2.5-2.5v-6.5a0.5 0.5 0 0 0-0.5-0.5z"/>
		</g>
		<g class="ColorScheme-Background" style="fill-opacity:.5;fill:currentColor">
			<path transform="translate(410 1055.4)" d="m8 0c-3.316 0-6 2.6921-6 6.0137v4.4863a0.50005 0.50005 0 0 0 0.5 0.5h0.82031l-0.30859 1.3926a0.5 0.5 0 0 0 0.37891 0.5957 0.5 0.5 0 0 0 0.59766-0.37891l1-4.5a0.5 0.5 0 0 0-0.37891-0.5957 0.5 0.5 0 0 0-0.59766 0.37891l-0.46875 2.1113a0.5 0.5 0 0 0-0.042969-0.003906h-0.5v-3.9863c-1e-5 -2.7862 2.222-5.0137 5-5.0137s5 2.2275 5 5.0137v3.9863h-0.5a0.5 0.5 0 0 0-0.041016 0.007812l-0.4707-2.1152a0.5 0.5 0 0 0-0.59766-0.37891 0.5 0.5 0 0 0-0.37891 0.5957l1 4.5a0.5 0.5 0 0 0 0.59766 0.37891 0.5 0.5 0 0 0 0.37891-0.5957l-0.30859-1.3926h0.82031a0.50005 0.50005 0 0 0 0.5-0.5v-4.4863c0-3.3216-2.684-6.0137-6-6.0137zm-7.5 6.5a0.5 0.5 0 0 0-0.5 0.5v6.5c0 1.3764 1.1237 2.5 2.5 2.5h4a0.5 0.5 0 0 0 0.5-0.5 0.5 0.5 0 0 0-0.5-0.5h-4c-0.83964 0-1.5-0.6603-1.5-1.5v-6.5a0.5 0.5 0 0 0-0.5-0.5z"/>
		</g>
	</g>
</svg>
