<?xml version="1.0" encoding="UTF-8"?>
<svg width="16" height="16" version="1.1" xmlns="http://www.w3.org/2000/svg" xmlns:cc="http://creativecommons.org/ns#" xmlns:dc="http://purl.org/dc/elements/1.1/" xmlns:rdf="http://www.w3.org/1999/02/22-rdf-syntax-ns#">
	<metadata>
		<rdf:RDF>
			<cc:Work rdf:about="">
				<dc:format>image/svg+xml</dc:format>
				<dc:type rdf:resource="http://purl.org/dc/dcmitype/StillImage"/>
			</cc:Work>
		</rdf:RDF>
	</metadata>
	<defs id="b">
		<style id="current-color-scheme" type="text/css">
			.ColorScheme-Text {color:#090d11;}
			.ColorScheme-Background{color:#ffffff;}
		</style>
	</defs>
	<path id="a" class="ColorScheme-Text" d="m2.5 1c-0.82236 0-1.5 0.67764-1.5 1.5v11c0 0.82236 0.67764 1.5 1.5 1.5h11c0.82236 0 1.5-0.67764 1.5-1.5v-11c0-0.82236-0.67764-1.5-1.5-1.5zm0 1h11c0.28566 0 0.5 0.21436 0.5 0.5v1c-0.55228 0-1 0.44772-1 1v7c0 0.55228 0.44772 1 1 1v1c0 0.28564-0.21434 0.5-0.5 0.5h-11c-0.28566 0-0.5-0.21436-0.5-0.5v-1c0.55228 0 1-0.44772 1-1v-7c0-0.55228-0.44772-1-1-1v-1c0-0.28564 0.21434-0.5 0.5-0.5zm5.5 2.9688-3.0156 4.0312h6.0312zm-2.5 5.0312c-0.27614 0-0.5 0.22386-0.5 0.5s0.22386 0.5 0.5 0.5h5c0.27614 0 0.5-0.22386 0.5-0.5s-0.22386-0.5-0.5-0.5z" style="fill-opacity:.75;fill:currentColor"/>
	<path id="h" class="ColorScheme-Background" d="m1.5 0c-0.82236 0-1.5 0.67764-1.5 1.5v13c0 0.82236 0.67764 1.5 1.5 1.5h13c0.82236 0 1.5-0.67764 1.5-1.5v-13c0-0.82236-0.67764-1.5-1.5-1.5zm0 1h13c0.28566 0 0.5 0.21436 0.5 0.5v13c0 0.28564-0.21434 0.5-0.5 0.5h-13c-0.28566 0-0.5-0.21436-0.5-0.5v-13c0-0.28564 0.21434-0.5 0.5-0.5zm6.5 2.4688c-0.16014 2.906e-4 -0.31046 0.077264-0.4043 0.20703l-4.0156 5.5312c-0.23874 0.33031-0.0032616 0.79217 0.4043 0.79297h8.0312c0.40756-7.973e-4 0.64304-0.46265 0.4043-0.79297l-4.0156-5.5312c-0.09384-0.12977-0.24415-0.20674-0.4043-0.20703zm0 1.3496 3.0352 4.1816h-6.0703zm-3 6.1816c-0.27614 0-0.5 0.22386-0.5 0.5s0.22386 0.5 0.5 0.5h6c0.27614 0 0.5-0.22386 0.5-0.5s-0.22386-0.5-0.5-0.5z" style="fill-opacity:.5;fill:currentColor"/>
</svg>
