<?xml version="1.0" encoding="UTF-8"?>
<svg id="g" width="16" height="16" version="1.1" xmlns="http://www.w3.org/2000/svg" xmlns:cc="http://creativecommons.org/ns#" xmlns:dc="http://purl.org/dc/elements/1.1/" xmlns:rdf="http://www.w3.org/1999/02/22-rdf-syntax-ns#">
	<defs id="f">
		<style id="current-color-scheme" type="text/css">.ColorScheme-Text {color:#090d11;}.ColorScheme-Background{color:#ffffff;}</style>
	</defs>
	<metadata id="a">
		<rdf:RDF>
			<cc:Work rdf:about="">
				<dc:format>image/svg+xml</dc:format>
				<dc:type rdf:resource="http://purl.org/dc/dcmitype/StillImage"/>
				<dc:title/>
			</cc:Work>
		</rdf:RDF>
	</metadata>
	<path id="b" class="ColorScheme-Text" d="m5 1c-0.554 0-1 0.446-1 1v12c0 0.554 0.446 1 1 1h7c0.554 0 1-0.446 1-1v-12c0-0.554-0.446-1-1-1zm0 1h7v10h-7zm2.5 11h2c0.277 0 0.5 0.223 0.5 0.5s-0.223 0.5-0.5 0.5h-2c-0.277 0-0.5-0.223-0.5-0.5s0.223-0.5 0.5-0.5z" style="fill-opacity:.75;fill:currentColor"/>
	<path id="c" class="ColorScheme-Background" d="m5 0c-1.0907 0-2 0.9093-2 2v12c0 1.0907 0.9093 2 2 2h7c1.0907 0 2-0.9093 2-2v-12c0-1.0907-0.9093-2-2-2zm0 1h7c0.554 0 1 0.446 1 1v12c0 0.554-0.446 1-1 1h-7c-0.554 0-1-0.446-1-1v-12c0-0.554 0.446-1 1-1zm0 1v10h7v-10zm1 1h5v8h-5zm1.5 10c-0.277 0-0.5 0.223-0.5 0.5s0.223 0.5 0.5 0.5h2c0.277 0 0.5-0.223 0.5-0.5s-0.223-0.5-0.5-0.5z" style="fill-opacity:.5;fill:currentColor"/>
</svg>
