<?xml version="1.0" encoding="UTF-8"?>
<svg id="c" width="16" height="16" version="1.1" xmlns="http://www.w3.org/2000/svg" xmlns:cc="http://creativecommons.org/ns#" xmlns:dc="http://purl.org/dc/elements/1.1/" xmlns:rdf="http://www.w3.org/1999/02/22-rdf-syntax-ns#">
	<metadata id="a">
		<rdf:RDF>
			<cc:Work rdf:about="">
				<dc:format>image/svg+xml</dc:format>
				<dc:type rdf:resource="http://purl.org/dc/dcmitype/StillImage"/>
				<dc:title/>
			</cc:Work>
		</rdf:RDF>
	</metadata>
	<defs>
		<style id="current-color-scheme" type="text/css">.ColorScheme-Text {color:#090d11;}.ColorScheme-Background{color:#ffffff;}</style>
	</defs>
	<path id="b" d="m4.5 0.9375c-2.1658 1.2504-3.5 3.5616-3.5 6.0625h7zm3.3437 0.062c-0.6435 0.017-1.3123 0.1436-1.9375 0.375l2.9688 5.125 0.2812 0.5h4.8438c0-1.0532-0.2859-2.0879-0.8125-3-1.1391-1.973-3.216-3.0553-5.3438-3zm-6.8599 7c0.4365 3.4866 3.4113 6.1875 7.0162 6.1875s6.5797-2.7009 7.0162-6.1875h-6.1323z" style="fill-opacity:.75;fill:currentColor" class="ColorScheme-Text"/>
	<path id="d" d="m4.4453-0.060546a1.0001 1.0001 0 0 0-0.44531 0.13281c-2.4739 1.4283-4 4.0711-4 6.9277a1.0001 1.0001 0 0 0 0.12695 0.48633 1.0001 1.0001 0 0 0-0.13477 0.63672c0.4982 3.9791 3.9034 7.0645 8.0078 7.0645s7.5116-3.0854 8.0098-7.0645a1.0001 1.0001 0 0 0-0.99219-1.123h-0.01953c0-1.2342-0.33331-2.4401-0.94531-3.5-1.3231-2.2917-3.7529-3.5646-6.2363-3.5-0.7562 0.02-1.5263 0.1668-2.2578 0.4375a1.0001 1.0001 0 0 0-0.15234 0.070312l-0.041016-0.070312a1.0001 1.0001 0 0 0-0.91797-0.49805zm0.054687 0.99805 3.5 6.0625h-7c0-2.5009 1.3342-4.8121 3.5-6.0625zm3.3438 0.0625c2.1278-0.0553 4.2047 1.027 5.3438 3 0.5266 0.9121 0.8125 1.9468 0.8125 3h-4.8438l-0.28125-0.5-2.9688-5.125c0.6252-0.2314 1.294-0.358 1.9375-0.375zm-6.8594 7h14.031c-0.4365 3.4866-3.4107 6.1875-7.0156 6.1875s-6.5791-2.7009-7.0156-6.1875z" style="fill-opacity:.5;fill:currentColor" class="ColorScheme-Background"/>
</svg>
