<?xml version="1.0" encoding="UTF-8"?>
<!-- Created with Inkscape (http://www.inkscape.org/) -->
<svg width="16" height="16" version="1.1" xmlns="http://www.w3.org/2000/svg" xmlns:cc="http://creativecommons.org/ns#" xmlns:dc="http://purl.org/dc/elements/1.1/" xmlns:rdf="http://www.w3.org/1999/02/22-rdf-syntax-ns#">
	<defs>
		<style id="current-color-scheme" type="text/css">.ColorScheme-Text {color:#090d11;}.ColorScheme-Background{color:#ffffff;}</style>
	</defs>
	<metadata>
		<rdf:RDF>
			<cc:Work rdf:about="">
				<dc:format>image/svg+xml</dc:format>
				<dc:type rdf:resource="http://purl.org/dc/dcmitype/StillImage"/>
			</cc:Work>
		</rdf:RDF>
	</metadata>
	<path class="ColorScheme-Text" d="m6 2 8 8v-8zm1.4785 3.6934-2.1211 2.1211 2.8281 2.8281 2.1211-2.1211zm-3.2285 3.2285-1.4141 1.4141 2.8281 2.8281 1.4141-1.4141zm-2.5215 2.5215-0.70703 0.70703 2.8281 2.8281 0.70703-0.70703z" style="fill-opacity:.75;fill:currentColor"/>
	<path id="d" class="ColorScheme-Background" d="m5 1v1h9v9h1v-10h-1zm3.5859 3.5859-1.1074 1.1074 2.8281 2.8281 1.1074-1.1074zm-3.2285 3.2285-0.80664 0.80859 2.8262 2.8262 0.80859-0.80664zm-2.5215 2.5234-0.45508 0.45508 2.8262 2.8262 0.45508-0.45508z" style="fill-opacity:.5;fill:currentColor"/>
</svg>
