<?xml version="1.0" encoding="UTF-8"?>
<svg id="a" width="16" height="16" version="1.1" xmlns="http://www.w3.org/2000/svg" xmlns:cc="http://creativecommons.org/ns#" xmlns:dc="http://purl.org/dc/elements/1.1/" xmlns:rdf="http://www.w3.org/1999/02/22-rdf-syntax-ns#">
	<metadata id="b">
		<rdf:RDF>
			<cc:Work rdf:about="">
				<dc:format>image/svg+xml</dc:format>
				<dc:type rdf:resource="http://purl.org/dc/dcmitype/StillImage"/>
				<dc:title/>
			</cc:Work>
		</rdf:RDF>
	</metadata>
	<defs id="f">
		<style id="current-color-scheme" type="text/css">.ColorScheme-Text {color:#090d11;}.ColorScheme-Background{color:#ffffff;}</style>
	</defs>
	<path id="c" class="ColorScheme-Text" d="m8 1c-3.8601 0-7 3.1399-7 7s3.1399 7 7 7 7-3.1399 7-7-3.1399-7-7-7zm0 1c3.3196 0 6 2.6804 6 6 0 2.7028-1.7765 4.9808-4.2285 5.7344-0.25166 0.07735-0.51266 0.13372-0.77734 0.17773 0.26449-0.044253 0.52594-0.10046 0.77734-0.17773-0.20494-0.28949-0.50328-0.64372-0.46289-0.93945 0.015175-0.2434 0.026214-0.56018 0.056641-0.83398 0.030454-0.2736 0.13387-2.5733 0.5293-3.1816 0.39537-0.6082 1.3608-1.221 1.7676-1.3652 0.37955-0.1346 0.47266-0.2714 0.47266-0.4082 0-0.1369-0.1518-0.78671-0.25827-0.83261-0.49929 0.3941-1.7598 0.67611-2.2322 0.89811 0.13093-0.6521 1.171-1.8444 1.6331-2.2589 0.10648-0.1826 0.14888-0.42314-0.04883-0.68164-0.19764-0.2585-0.33412-0.52148-0.41016-0.52148-0.2508 0-0.74133 0.58263-0.92383 0.67383-0.1825 0.091-1.6209 1.1183-1.7578 1.3008-0.13686 0.1826-0.32381 0.26305-0.52148 0.24805-0.19766-0.015-0.82421-0.024344-1.0371 0.097656-0.21293 0.1217-1.1844 1.1146-1.4277 1.2363-0.2433 0.1215-0.5569 0.18607-0.70898 0.20117-0.15208 0.015-0.63621 0.60764-0.79297 0.68164-0.13686 0.065-0.86718 0.054631-1.1328 0.14453 0.17253 0.9089 0.81986 1.4715 0.9082 1.8301 0.13339 0.0226-0.097915 0.5463-0.65234 0.91797-0.48869-0.86888-0.77148-1.8713-0.77148-2.9414 0-3.3196 2.6804-6 6-6zm-0.35156 4.459c0.060978 0 0.12827 0.010438 0.20703 0.023438 0.47483 0.7116-0.92878 1.0155-1.5098 1.3262 0.26584-0.5368 0.50391-0.88287 0.85156-1.2305 0.1512-0.077 0.26826-0.12594 0.45117-0.11914zm-4.8711 4.4902c0.11951 0.21168 0.2531 0.41472 0.39648 0.60938-0.1438-0.19496-0.27675-0.3973-0.39648-0.60938zm0.45117 0.68164c0.14861 0.1955 0.30558 0.383 0.47656 0.55859 0.17582 0.18056 0.36328 0.3486 0.56055 0.50586-0.19741-0.15715-0.38462-0.32542-0.56055-0.50586-0.17088-0.17526-0.32805-0.36347-0.47656-0.55859zm1.1074 1.1152c0.16111 0.12468 0.3303 0.24161 0.50391 0.34961-0.17424-0.10817-0.34223-0.22468-0.50391-0.34961zm0.66602 0.44726c0.19875 0.11506 0.4028 0.22243 0.61523 0.31445-0.21301-0.09204-0.41594-0.1993-0.61523-0.31445zm0.62891 0.32227c0.2201 0.09465 0.44872 0.17212 0.68164 0.24023-0.23268-0.067914-0.46169-0.14588-0.68164-0.24023zm0.87305 0.28906c0.17863 0.04585 0.36016 0.08385 0.54492 0.11328-0.18484-0.0294-0.36617-0.06747-0.54492-0.11328zm2.3125 0.13281c-0.26746 0.03629-0.53882 0.0625-0.81641 0.0625-0.2529 0-0.49957-0.02057-0.74414-0.05078 0.24427 0.03018 0.49147 0.05078 0.74414 0.05078 0.27786 0 0.54863-0.0259 0.81641-0.0625z" style="fill-opacity:.75;fill:currentColor"/>
	<path id="d" class="ColorScheme-Background" d="m8 0c-4.4124 0-8 3.5877-8 8 0 4.4124 3.5876 8 8 8s8-3.5876 8-8c0-4.4123-3.5876-8-8-8zm0 1c3.8719 0 7 3.1281 7 7s-3.1281 7-7 7-7-3.1281-7-7 3.1281-7 7-7zm2.6582 1.623c-0.32622 0.033966-0.48627 0.15753-0.61914 0.24609-0.15423 0.1027-0.26969 0.20312-0.37305 0.29492-0.10336 0.092-0.19246 0.17542-0.25195 0.22852-0.059495 0.053-0.14177 0.083 0.033203 0-0.24856 0.1239-0.28093 0.16861-0.45312 0.28711-0.1722 0.1185-0.3793 0.26346-0.58594 0.41406-0.20664 0.1505-0.41141 0.30375-0.58398 0.43945-0.086285 0.068-0.16407 0.13076-0.23633 0.19336-0.030221 0.026-0.076045 0.084075-0.10547 0.10938-0.13323 0-0.25607-0.011-0.43359 0-0.2623 0.014-0.48593-0.043978-0.96875 0.23242-0.27741 0.1585-0.31228 0.22856-0.44922 0.35156s-0.28909 0.26444-0.4375 0.40234-0.29301 0.27409-0.4043 0.37109c-0.047967 0.04181-0.098003 0.076094-0.13281 0.099609-0.098732 0.034162-0.30789 0.087195-0.31445 0.087891-0.62664 0.062-0.60261 0.24064-0.71484 0.33594-0.11223 0.095-0.20226 0.18688-0.28711 0.27148-0.05012 0.05-0.084374 0.082947-0.125 0.12305-0.052678 0-0.092967 0.00967-0.1582 0.013672-0.23829 0.017-0.45504-0.010041-0.86133 0.13086l-0.17188 0.29492c-0.011041 0.14911-0.023438 0.29724-0.023438 0.44922 0 1.0701 0.28279 2.0725 0.77148 2.9414 0.050219-0.03366 0.08402-0.07176 0.12891-0.10742l0.085938-0.07226c0.38687-0.34171 0.55072-0.71876 0.4375-0.73828-0.088339-0.3586-0.73567-0.92118-0.9082-1.8301 0.26563-0.0895 0.99595-0.079531 1.1328-0.14453 0.15676-0.074 0.64089-0.66664 0.79297-0.68164 0.15209-0.0151 0.46568-0.079672 0.70898-0.20117 0.24333-0.1217 1.2148-1.1146 1.4277-1.2363 0.2129-0.122 0.83945-0.11266 1.0371-0.097656 0.19768 0.015 0.38462-0.065447 0.52148-0.24805 0.13687-0.1825 1.5753-1.2098 1.7578-1.3008 0.18249-0.0912 0.67302-0.67383 0.92383-0.67383 0.07604 0 0.21252 0.26298 0.41016 0.52148 0.19771 0.2585 0.1553 0.49904 0.04883 0.68164-0.46208 0.4145-1.5021 1.6068-1.6331 2.2589 0.47247-0.222 1.7329-0.504 2.2322-0.89811 0.10647 0.0459 0.25827 0.69571 0.25827 0.83261 0 0.1368-0.09311 0.2736-0.47266 0.4082-0.40676 0.1442-1.3722 0.75703-1.7676 1.3652-0.39543 0.6083-0.49884 2.908-0.5293 3.1816-0.030427 0.2738-0.041466 0.59058-0.056641 0.83398-0.040389 0.2958 0.25795 0.64995 0.46289 0.93945 0.24597-0.0756 0.48358-0.17021 0.71484-0.27539l0.09961-0.29297c-0.12177-0.1721-0.22558-0.31042-0.27344-0.39062 0.01391-0.2417 0.02372-0.50256 0.04492-0.69336 0.03554-0.3193 0.05431-0.81659 0.12891-1.4629 0.0373-0.3232 0.08391-0.65 0.13867-0.9043s0.15464-0.45346 0.10742-0.38086c0.07861-0.1209 0.34656-0.3888 0.62695-0.5918 0.28039-0.2029 0.61897-0.3687 0.63672-0.375 0.26608-0.094 0.50565-0.20178 0.73828-0.42578 0.23263-0.2241 0.40039-0.63058 0.40039-0.92578 0-0.037 0.0057-0.21993-0.0098-0.42383-0.0077-0.1019-0.01676-0.20954-0.06055-0.36914s-0.05718-0.50545-0.62891-0.75195l-0.46289 0.0625 0.16797-0.20508c0.23665-0.40573 0.29456-1.211-0.10352-1.7617-0.41171-0.37481-0.87428-0.69406-1.3789-0.94336zm-3.0098 3.8359c-0.18292-0.0068-0.29997 0.042141-0.45117 0.11914-0.34766 0.3476-0.58573 0.69367-0.85156 1.2305 0.28341-0.15156 0.75972-0.30356 1.1211-0.5l0.021484-0.00977c0.3683-0.20443 0.60617-0.45827 0.36719-0.81641-0.078759-0.013-0.14605-0.023438-0.20703-0.023438zm-4.8711 4.4902c0.11973 0.21207 0.25268 0.41442 0.39648 0.60938-0.14339-0.19466-0.27697-0.3977-0.39648-0.60938zm1.5586 1.7969c0.16167 0.12493 0.32967 0.24144 0.50391 0.34961-0.17361-0.108-0.34279-0.22493-0.50391-0.34961zm0.66602 0.44726c0.19929 0.11515 0.40222 0.22241 0.61523 0.31445-0.21244-0.09202-0.41649-0.19939-0.61523-0.31445zm0.62891 0.32227c0.21995 0.09435 0.44896 0.17232 0.68164 0.24023-0.23292-0.06811-0.46154-0.14558-0.68164-0.24023zm0.87305 0.28906c0.17875 0.04581 0.36009 0.08388 0.54492 0.11328-0.18476-0.02943-0.36629-0.06743-0.54492-0.11328z" style="fill-opacity:.5;fill:currentColor"/>
</svg>
