<?xml version="1.0" encoding="UTF-8"?>
<!-- Created with Inkscape (http://www.inkscape.org/) -->
<svg width="16" height="16" version="1.1" xmlns="http://www.w3.org/2000/svg" xmlns:cc="http://creativecommons.org/ns#" xmlns:dc="http://purl.org/dc/elements/1.1/" xmlns:rdf="http://www.w3.org/1999/02/22-rdf-syntax-ns#">
	<metadata>
		<rdf:RDF>
			<cc:Work rdf:about="">
				<dc:format>image/svg+xml</dc:format>
				<dc:type rdf:resource="http://purl.org/dc/dcmitype/StillImage"/>
			</cc:Work>
		</rdf:RDF>
	</metadata>
	<defs>
		<style id="current-color-scheme" type="text/css">.ColorScheme-Text {color:#090d11;}.ColorScheme-Background{color:#ffffff;}</style>
	</defs>
	<path class="ColorScheme-Text" d="m1 1v6h6v-6zm8 0v6h6v-6zm-6 2h3v3h-3v-2zm8 0h1v1h1v1h-2v1h-1v-1h1v-1zm-7 1v1h1v-1zm-3 5v6h6v-6zm8 0v6h6v-6zm-6 1h1v1h1v-1h1v1h-1v1h1v1h-1v-1h-1v1h-1v-1h1v-1h-1zm7 1h3v2h-1v-1h-1v1h-1v-1z" fill-opacity=".75" style="fill-opacity:.75;fill:currentColor"/>
</svg>
