<?xml version="1.0" encoding="UTF-8"?>
<svg id="g" width="16" height="16" version="1.1" xmlns="http://www.w3.org/2000/svg" xmlns:cc="http://creativecommons.org/ns#" xmlns:dc="http://purl.org/dc/elements/1.1/" xmlns:rdf="http://www.w3.org/1999/02/22-rdf-syntax-ns#">
	<metadata id="b">
		<rdf:RDF>
			<cc:Work rdf:about="">
				<dc:format>image/svg+xml</dc:format>
				<dc:type rdf:resource="http://purl.org/dc/dcmitype/StillImage"/>
				<dc:title/>
			</cc:Work>
		</rdf:RDF>
	</metadata>
	<defs id="a">
		<style id="current-color-scheme" type="text/css">.ColorScheme-Text {color:#090d11;}.ColorScheme-Background{color:#ffffff;}</style>
	</defs>
	<path id="e" d="m7.1836 1.7207-0.074219 4.1699c0.28156-0.16953 0.57137-0.32552 0.86914-0.45898 0.37025-0.16594 0.76323-0.30823 1.1738-0.4082zm7.6328 0.83789-2.7715 2.6855c0.73067 0.32676 1.3216 0.82131 1.75 1.4043zm-4.5137 3.3164c-0.6492 0.0052867-1.3003 0.19282-1.916 0.46875-0.93816 0.42049-1.8148 1.0665-2.4688 1.8457-0.65398 0.77921-1.122 1.7218-0.98828 2.7461 0.1337 1.0243 0.9605 1.9122 2.2754 2.3965 1.0569 0.45611 1.6618-1.1961 0.56055-1.5312-0.97118-0.35773-1.1684-0.71493-1.2148-1.0703-0.046394-0.35539 0.14929-0.92377 0.62305-1.4883 0.47375-0.56447 1.1777-1.0948 1.877-1.4082 0.69922-0.3134 1.3722-0.38311 1.7539-0.25586 0.70197 0.234 0.97146 0.60381 1.1328 1.1641 0.15516 0.53874 0.12225 1.2627-0.03516 1.9375-0.0066 0.0048 1.1e-4 -1.41e-4 -0.01563 0.0098-0.07767 0.04891-0.21706 0.11048-0.40625 0.20508-0.39953 0.19977-0.61908 0.18042-0.74609 0.14258-0.05983-0.01781-0.08881-0.06599-0.13281-0.10156 0.51442-0.39754 0.38066-1.2093-0.23437-1.4199-0.27129-0.093692-0.61935-0.12198-0.93945 0.03125-0.32009 0.15322-0.52628 0.45571-0.60156 0.71484-0.15056 0.5182-0.015492 0.95386 0.22461 1.3672 0.2401 0.41334 0.65479 0.79902 1.2246 0.96875 0.56983 0.16971 1.2473 0.09608 1.9277-0.24414 0.08105-0.04052 0.3102-0.12946 0.56055-0.28711 0.25034-0.15765 0.58561-0.42837 0.70508-0.90625 0.22309-0.89236 0.31859-1.9031 0.04102-2.8672-0.27757-0.96401-1.0215-1.8751-2.1934-2.2657-0.24179-0.080599-0.48753-0.12605-0.73438-0.14453-0.09257-0.00693-0.18655-0.0085635-0.2793-0.0078125zm-9.1172 0.66211 2.875 2.9766c0.21508-0.75173 0.63092-1.4177 1.0918-1.9668 0.00444-0.00529 0.00922-0.010347 0.013672-0.015625z" style="fill-opacity:.75;fill:currentColor" class="ColorScheme-Text"/>
	<path id="c" d="m7.2168 0.7207c-0.55834-0.018573-1.0236 0.42385-1.0332 0.98242l-0.074219 4.1699c-0.0047668 0.27512 0.10403 0.54006 0.30078 0.73242-0.14615 0.11453-0.3038 0.20557-0.44141 0.33008-0.1378-0.18613-0.33592-0.31867-0.56055-0.375l-3.9805-0.99414c-0.97589-0.24394-1.6608 0.94344-0.96094 1.666l2.875 2.9766c0.17629 0.18185 0.41501 0.29004 0.66797 0.30274-0.00518 0.19102-0.098212 0.35393-0.072266 0.55273 0.19107 1.4638 1.3498 2.6067 2.8906 3.1855 0.49385 0.20634 1.0799 0.19695 1.5195-0.02734 0.44524-0.22718 0.73618-0.60442 0.88672-1.0156 0.027926-0.07628-0.022453-0.16979-0.00391-0.25 0.26986 0.19633 0.40635 0.49434 0.75977 0.59961 0.85345 0.25418 1.7939 0.12453 2.6602-0.30859-0.06973 0.03486 0.30682-0.12205 0.64648-0.33594 0.3465-0.2182 0.9379-0.69103 1.1426-1.5098 0.2499-0.9996 0.37712-2.1855 0.03125-3.3867-0.04743-0.16475-0.19139-0.29831-0.25976-0.45899 0.27649-0.12619 0.4806-0.37126 0.55469-0.66602l1.0215-4.0898c0.24394-0.97588-0.94344-1.6607-1.666-0.96094l-2.7715 2.6855c-0.12586 0.12196-0.21746 0.27485-0.26562 0.44336-0.1426-0.025396-0.28793-0.073516-0.42773-0.083984-0.13115-0.0098182-0.25137-0.010656-0.36133-0.0097656-0.05422 4.415e-4 -0.09666 0.032838-0.15039 0.035156-0.01557-0.14072-0.06084-0.27652-0.13281-0.39844l-1.9688-3.3027c-0.17421-0.29289-0.48558-0.47691-0.82617-0.48828zm-0.033203 1 1.9688 3.3027c-0.41059 0.099971-0.80358 0.24226-1.1738 0.4082-0.29777 0.13346-0.58758 0.28945-0.86914 0.45898zm7.6328 0.83789-1.0215 4.0898c-0.42836-0.58299-1.0193-1.0775-1.75-1.4043zm-4.5137 3.3164c0.09275-7.51e-4 0.18673 8.825e-4 0.2793 0.00781 0.24685 0.018483 0.49258 0.063932 0.73438 0.14453 1.1719 0.3906 1.9158 1.3016 2.1934 2.2656 0.27757 0.96404 0.18208 1.9748-0.04102 2.8672-0.11947 0.47788-0.45473 0.7486-0.70508 0.90625s-0.4795 0.24659-0.56055 0.28711c-0.68048 0.34022-1.3579 0.41385-1.9277 0.24414-0.56982-0.16972-0.98451-0.55541-1.2246-0.96875-0.2401-0.41333-0.37516-0.84898-0.22461-1.3672 0.075285-0.25913 0.28147-0.56162 0.60156-0.71484 0.3201-0.15323 0.66817-0.12494 0.93945-0.03125 0.61503 0.21065 0.7488 1.0224 0.23437 1.4199 0.044 0.03557 0.07298 0.08375 0.13281 0.10156 0.12701 0.03784 0.34657 0.05719 0.74609-0.14258 0.18919-0.0946 0.32858-0.15617 0.40625-0.20508 0.01574-0.0099 9e-3 -5e-3 0.01563-0.0098 0.15741-0.67475 0.19031-1.3987 0.035151-1.9375-0.16135-0.56025-0.43084-0.93006-1.1328-1.1641-0.38175-0.12725-1.0547-0.057542-1.7539 0.25586-0.69929 0.31343-1.4032 0.84373-1.877 1.4082-0.47375 0.56451-0.66944 1.1329-0.62305 1.4883 0.046414 0.35538 0.24366 0.71258 1.2148 1.0703 1.1012 0.33519 0.49632 1.9874-0.56055 1.5312-1.3149-0.48432-2.1417-1.3722-2.2754-2.3965-0.13368-1.0243 0.3343-1.9669 0.98828-2.7461 0.65398-0.77921 1.5306-1.4252 2.4688-1.8457 0.61567-0.27593 1.2668-0.46346 1.916-0.46875zm-9.1172 0.66211 3.9805 0.99414c-0.00445 0.00528-0.00923 0.010335-0.013672 0.015625-0.46088 0.54914-0.87672 1.2151-1.0918 1.9668z" style="fill-opacity:.5;fill:currentColor" class="ColorScheme-Background"/>
</svg>
