<?xml version="1.0" encoding="UTF-8"?>
<svg id="k" width="16" height="16" version="1.1" xmlns="http://www.w3.org/2000/svg" xmlns:cc="http://creativecommons.org/ns#" xmlns:dc="http://purl.org/dc/elements/1.1/" xmlns:rdf="http://www.w3.org/1999/02/22-rdf-syntax-ns#" xmlns:xlink="http://www.w3.org/1999/xlink">
	<metadata id="d">
		<rdf:RDF>
			<cc:Work rdf:about="">
				<dc:format>image/svg+xml</dc:format>
				<dc:type rdf:resource="http://purl.org/dc/dcmitype/StillImage"/>
				<dc:title/>
			</cc:Work>
		</rdf:RDF>
	</metadata>
	<defs>
		<style id="current-color-scheme" type="text/css">.ColorScheme-ViewText {color:#090d11;}.ColorScheme-Background{color:#ffffff;}</style>
	</defs>
	<g id="e">
		<path id="i" d="m8.1775 0.95703c-2.9487 0-4.9555 0.77779-5.8451 2.3398-0.86062 1.5111-1.2515 3.6846-1.0435 5.5352 0.011616 0.10339 0.035023 0.19183 0.048828 0.29297 0.23424-0.46728 0.54166-0.86301 0.9043-1.1641-0.071244-1.5266 0.39006-3.17 0.95956-4.1699 0.57277-1.0057 2.2151-1.834 4.976-1.834zm-4.0117 6.5625c-0.057078-8.299e-4 -0.11375 0.00112-0.16992 0.00586-0.024182 0.00144-0.048273 0.0034-0.072266 0.00586-0.076675 0.00847-0.15228 0.022153-0.22656 0.041016-0.071073 0.019993-0.1408 0.044758-0.20898 0.074219-0.029615 0.013435-0.058917 0.027761-0.087891 0.042969-0.047734 0.022424-0.094633 0.047176-0.14062 0.074219-0.025041 0.016234-0.049785 0.033164-0.074219 0.050781-0.04391 0.028478-0.086899 0.059091-0.12891 0.091797-0.025807 0.021978-0.051203 0.044768-0.076172 0.068359-0.048419 0.042706-0.095325 0.08831-0.14062 0.13672-0.00458 0.00518-0.00913 0.010387-0.013672 0.015625-0.054649 0.061044-0.10678 0.12621-0.15625 0.19531-0.010548 0.015443-0.020965 0.031069-0.03125 0.046875-0.041769 0.060379-0.081512 0.12358-0.11914 0.18945-0.012638 0.023775-0.025009 0.047866-0.037109 0.072266-0.037532 0.070217-0.072716 0.14319-0.10547 0.21875-0.017631 0.040296-0.034562 0.081321-0.050781 0.12305-0.31386 0.82607-0.33653 1.8804-0.0625 2.9062 0.016585 0.06085 0.034168 0.12142 0.052734 0.18164 0.020358 0.06491 0.04185 0.12939 0.064453 0.19336 0.021681 0.06432 0.044475 0.12814 0.068359 0.19141 0.02252 0.05848 0.045965 0.11644 0.070312 0.17383 0.021445 0.0506 0.043586 0.10074 0.066406 0.15039 0.027692 0.05936 0.056348 0.11797 0.085937 0.17578 0.029617 0.0601 0.060227 0.11937 0.091797 0.17774 0.026116 0.04555 0.052815 0.09048 0.080078 0.13476 0.031102 0.05363 0.063014 0.10638 0.095703 0.1582 0.033115 0.05111 0.06698 0.10126 0.10156 0.15039 0.035688 0.0519 0.07216 0.1027 0.10938 0.15234 0.026354 0.03379 0.053052 0.067 0.080078 0.09961 0.047171 0.05853 0.095374 0.1152 0.14453 0.16992 0.029632 0.03197 0.059586 0.06323 0.089844 0.09375 0.040463 0.04236 0.081493 0.08339 0.12305 0.12305 0.047564 0.04415 0.095763 0.08648 0.14453 0.12695 0.031655 0.02749 0.063563 0.05419 0.095703 0.08008 0.038782 0.02919 0.077855 0.05719 0.11719 0.08399 0.051618 0.03792 0.10373 0.07375 0.15625 0.10742 0.024022 0.01412 0.048113 0.0278 0.072266 0.04101 0.059526 0.03471 0.11946 0.06663 0.17969 0.0957 0.033792 0.01523 0.067652 0.02955 0.10156 0.04297 0.048078 0.02072 0.096274 0.0396 0.14453 0.05664 0.044921 0.01464 0.089858 0.02766 0.13477 0.03906 0.04235 0.01187 0.08468 0.02229 0.12695 0.03125 0.041107 0.0079 0.082134 0.01441 0.12305 0.01953 0.047051 0.0064 0.093943 0.01095 0.14062 0.01367 0.039895 2e-3 0.079619 0.0027 0.11914 2e-3 0.041245 1.58e-4 0.082273-0.0011 0.12305-0.0039 0.049277-5e-3 0.098127-0.01218 0.14648-0.02148 0.048661-7e-3 0.096859-0.01611 0.14453-0.02734 0.066327-0.01865 0.13149-0.04146 0.19531-0.06836 0.04901-0.0204 0.097211-0.0432 0.14453-0.06836 0.026307-0.01296 0.052353-0.02663 0.078125-0.04101 0.044538-0.02715 0.088178-0.05646 0.13086-0.08789 0.030423-0.02109 0.060378-0.04324 0.089844-0.06641 0.030523-0.02557 0.060479-0.05227 0.089844-0.08008 0.037386-0.03343 0.073859-0.0686 0.10938-0.10547 0.028676-0.03143 0.056678-0.064 0.083984-0.09766 0.030772-0.03514 0.06073-0.07161 0.089844-0.10938 0.026859-0.03792 0.052909-0.077 0.078125-0.11719 0.028345-0.04294 0.055698-0.08723 0.082031-0.13281 0.022989-0.04196 0.045131-0.08494 0.066406-0.12891 0.021643-0.04139 0.042482-0.08372 0.0625-0.12695 0.021887-0.04905 0.042728-0.09919 0.0625-0.15039 0.020648-0.05166 0.040186-0.10442 0.058594-0.1582 0.0116-0.03732 0.02267-0.07509 0.033203-0.11328 0.020712-0.06952 0.039603-0.14052 0.056641-0.21289 0.00684-0.03038 0.013346-0.06098 0.019531-0.0918 0.016483-0.07869 0.030816-0.15882 0.042969-0.24024 0.00582-0.0433 0.011029-0.08692 0.015625-0.13086 0.00785-0.06444 0.014365-0.12957 0.019531-0.19531 0.00431-0.05816 0.00757-0.11677 0.00977-0.17578 0.00245-0.06145 0.00375-0.12332 0.00391-0.18555-1.364e-4 -0.06284-0.00144-0.12601-0.00391-0.18945-0.00227-0.0584-0.00553-0.11701-0.00977-0.17578-0.00424-0.05847-0.00945-0.11708-0.015625-0.17578-0.00653-0.06761-0.014344-0.13534-0.023438-0.20312-0.00775-0.05081-0.016219-0.1016-0.025391-0.15234-0.012132-0.07497-0.02581-0.14988-0.041016-0.22461-0.020698-0.10074-0.044155-0.20108-0.070312-0.30078-0.028918-0.10582-0.060848-0.21073-0.095703-0.31445-0.020489-0.061006-0.04198-0.12157-0.064453-0.18164-0.018178-0.051152-0.037062-0.10196-0.056638-0.15239-0.02864-0.069868-0.058601-0.13891-0.089844-0.20703-0.023358-0.051979-0.047453-0.10342-0.072266-0.1543-0.020378-0.040764-0.041215-0.081135-0.0625-0.12109-0.035166-0.068909-0.071642-0.13665-0.10938-0.20312-0.034229-0.057718-0.069399-0.11438-0.10547-0.16992-0.023039-0.037588-0.046481-0.074703-0.070312-0.11133-0.045605-0.06695-0.092508-0.13209-0.14062-0.19531-0.021886-0.029054-0.044025-0.057703-0.066406-0.085938-0.042774-0.053638-0.086413-0.10574-0.13086-0.15625-0.034023-0.040028-0.068538-0.079101-0.10352-0.11719-0.036022-0.037519-0.072491-0.073987-0.10938-0.10938-0.039873-0.039705-0.08025-0.078129-0.12109-0.11523-0.043159-0.037954-0.086795-0.074425-0.13086-0.10938-0.03682-0.029725-0.073939-0.058378-0.11133-0.085937-0.048428-0.035064-0.097277-0.068281-0.14648-0.099609-0.034979-0.023101-0.070142-0.045241-0.10547-0.066406-0.042783-0.024232-0.085765-0.047025-0.12891-0.068359-0.046042-0.024462-0.092283-0.047257-0.13867-0.068359-0.044195-0.01848-0.088481-0.035412-0.13281-0.050781-0.039036-0.014238-0.078108-0.027262-0.11719-0.039062-0.043648-0.012604-0.087281-0.023676-0.13086-0.033203-0.045637-0.011455-0.091226-0.021224-0.13672-0.029297-0.043766-0.00614-0.0874-0.010703-0.13086-0.013672-0.039205-0.00389-0.078278-0.00649-0.11719-0.00781z" style="fill-opacity:.75;fill:currentColor" class="ColorScheme-Text"/>
		<path id="l" transform="translate(.17751)" d="m8 0.037109c-3.0235 0-5.5155 0.77578-6.7904 2.9785-0.96053 1.6595-1.2154 4.4295-0.67477 6.5355 0.24232 1.0425 0.23487 0.92863 0.28315 1.928 0.3787 2.9786 2.333 4.474 3.7602 4.474 2.0261 0 2.8966-2.437 2.583-4.9438-0.41823-2.3663-2.1162-3.9586-3.3818-3.9167-0.11192-1.044e-4 -0.22339 0.0074493-0.33398 0.022633-0.94619 0.13328-1.7768 0.81722-2.2812 1.8785-0.012379-0.09939-0.032187-0.18942-0.042969-0.29011-0.21355-1.9943 0.14051-3.8624 1.0164-5.3743 1.0083-1.7403 2.6185-2.355 5.8625-2.355zm-3.9805 7.4805c1.2181 0.045305 2.4284 1.3282 2.8945 3.0684 0.54155 2.0208-0.10024 3.9488-1.4336 4.3066-1.3337 0.35639-2.8534-0.99278-3.3945-3.0137-0.54155-2.0208 0.10024-3.9488 1.4336-4.3066 0.16137-0.042922 0.32887-0.061243 0.5-0.054687z" style="fill-opacity:.5;fill:currentColor" class="ColorScheme-Background"/>
		<path id="m" d="m6.139 10.874c0.22665 0.84587-0.042091 1.6528-0.60025 1.8024-0.55816 0.14956-1.1944-0.41491-1.421-1.2608-0.22665-0.84587 0.04209-1.6528 0.60025-1.8024s1.1944 0.41491 1.421 1.2608z" style="fill-opacity:.5;fill:currentColor" class="ColorScheme-Background"/>
	</g>
	<use id="g" transform="matrix(-1,0,0,1,16,0)" width="100%" height="100%" xlink:href="#e"/>
</svg>
