<?xml version="1.0" encoding="UTF-8"?>
<svg id="d" width="16" height="16" version="1.1" xmlns="http://www.w3.org/2000/svg" xmlns:cc="http://creativecommons.org/ns#" xmlns:dc="http://purl.org/dc/elements/1.1/" xmlns:rdf="http://www.w3.org/1999/02/22-rdf-syntax-ns#">
	<metadata id="a">
		<rdf:RDF>
			<cc:Work rdf:about="">
				<dc:format>image/svg+xml</dc:format>
				<dc:type rdf:resource="http://purl.org/dc/dcmitype/StillImage"/>
				<dc:title/>
			</cc:Work>
		</rdf:RDF>
	</metadata>
	<defs id="f">
		<style id="current-color-scheme" type="text/css">.ColorScheme-Text {color:#090d11;}.ColorScheme-Background{color:#ffffff;}</style>
	</defs>
	<path id="e" class="ColorScheme-Text" d="m8 1c-3.866 0-7 3.134-7 7s3.134 7 7 7 7-3.134 7-7-3.134-7-7-7zm-1 3h1c2.2154 0 4 1.7846 4 4 0 1.0638-0.404 2.0915-1.1563 2.8438l-0.875-0.875c0.5244-0.5244 0.8125-1.2273 0.8125-1.9688 0-1.5441-1.2371-2.7812-2.7812-2.7812v5.7812c0 0.554-0.446 1-1 1h-1c-0.554 0-1-0.446-1-1v-1c0-0.554 0.446-1 1-1h1z" style="fill-opacity:.75;fill:currentColor"/>
	<path id="b" class="ColorScheme-Background" d="m8-4e-5c-4.4111 0-8 3.5889-8 8s3.5889 8 8 8 8-3.5889 8-8-3.5889-8-8-8zm0 1c3.866 0 7 3.134 7 7s-3.134 7-7 7-7-3.134-7-7 3.134-7 7-7zm-1 3v5h-1c-0.554 0-1 0.446-1 1v1c0 0.554 0.446 1 1 1h1c0.554 0 1-0.446 1-1v-5.7812c1.5441 0 2.7812 1.2372 2.7812 2.7812 0 0.7415-0.2881 1.4444-0.8125 1.9688l0.875 0.875c0.7523-0.7523 1.1562-1.78 1.1562-2.8438 0-2.2154-1.7846-4-4-4z" style="fill-opacity:.5;fill:currentColor"/>
</svg>
