<?xml version="1.0" encoding="UTF-8"?>
<!-- Created with Inkscape (http://www.inkscape.org/) -->
<svg width="16" height="16" version="1.1" xmlns="http://www.w3.org/2000/svg" xmlns:cc="http://creativecommons.org/ns#" xmlns:dc="http://purl.org/dc/elements/1.1/" xmlns:rdf="http://www.w3.org/1999/02/22-rdf-syntax-ns#">
	<metadata>
		<rdf:RDF>
			<cc:Work rdf:about="">
				<dc:format>image/svg+xml</dc:format>
				<dc:type rdf:resource="http://purl.org/dc/dcmitype/StillImage"/>
			</cc:Work>
		</rdf:RDF>
	</metadata>
	<defs>
		<style id="current-color-scheme" type="text/css">.ColorScheme-Background{color:#ffffff;}
			.ColorScheme-Text{color:#090d11;}</style>
	</defs>
	<path class="ColorScheme-Text" d="m8 1c-2.8424 0-6.6035 1.902-6.6035 4.9824 0 4.662 4.8783 9.0176 6.6035 9.0176 1.7251-1.73e-4 6.6035-4.3555 6.6035-9.0176 0-3.0805-3.7609-4.9824-6.6035-4.9824zm-0.97852 2.3203c0.38667-0.00382 0.77335 0.012395 1.1562 0.068359 1.6592 0.21706 3.2436 0.95367 4.4902 2.0703 0.03569 0.016967 0.0052 0.064433-0.02344 0.037109-0.27216-0.21297-0.55758-0.41171-0.85937-0.58203-0.85943-0.49717-1.834-0.79084-2.8223-0.85938-0.44384-0.014768-0.8912-0.022811-1.3301 0.044922-0.69197 0.094265-1.3686 0.30127-1.998 0.60547-0.00638 0.00437-0.010601 0.00544-0.015625 0.00586 0.08985 0.14648 0.16861 0.29974 0.26367 0.44336 0.16733 0.2679 0.36109 0.52083 0.56055 0.76562l0.24805 0.26758c0.54352 0.51267 0.98935 1.1287 1.3047 1.8066 0.011432 0.015501 0.00698 0.027399-0.00391 0.033203 0.010469 0.00686 0.020146 0.014482 0.029297 0.023437 0.1996 0.43279 0.34605 0.89166 0.43945 1.3594 0.11434 0.52674 0.11829 1.0674 0.095703 1.6035-0.066451 0.99253-0.39593 1.963-0.92578 2.8027-0.036283 0.04539-0.06431-0.02951-0.035156-0.05664 0.29004-0.71873 0.43824-1.491 0.43946-2.2656 0.016899-1.5748-0.61399-3.1436-1.7129-4.2715l-0.375-0.36523c-0.53008-0.43703-0.9961-0.94963-1.377-1.5215 0.00331-0.00403 0.00623-0.00789 0.00977-0.011719-0.00327 2.227e-4 -0.00633 3.387e-4 -0.00977 0-0.11169-0.13943-0.19421-0.30068-0.28711-0.45312-0.00744-0.028204-0.052549-0.064207-0.035156-0.091797-0.00523-0.00176-0.0104-0.00409-0.015625-0.00586-0.12589-0.22975-0.2397-0.47038-0.3418-0.71289-0.013556-0.034469-0.05338-0.1039 0.0058594-0.11719 0.40386-0.16013 0.8168-0.30048 1.2402-0.39844 0.00776-0.00107 0.014572 0.00234 0.019531 0.00781 0.00254-0.00519 0.00586-0.00969 0.011719-0.013672 0.60561-0.14978 1.2298-0.21922 1.8535-0.21875z" style="fill-opacity:.75;fill:currentColor"/>
	<path class="ColorScheme-Background" d="m8 0c-1.6442 0-3.4416 0.52068-4.9219 1.5039-1.4803 0.98323-2.6816 2.5313-2.6816 4.4785-1e-8 2.6798 1.3541 5.1118 2.8965 6.9082 0.77117 0.89818 1.5957 1.64 2.3809 2.1797 0.78511 0.53971 1.4741 0.92969 2.3262 0.92969 0.85201-8.5e-5 1.541-0.38998 2.3262-0.92969 0.78514-0.5397 1.6096-1.2815 2.3809-2.1797 1.5425-1.7963 2.8965-4.2283 2.8965-6.9082 0-1.9473-1.2012-3.4953-2.6816-4.4785-1.4804-0.98321-3.2775-1.5039-4.9219-1.5039zm0 1c2.8427 0 6.6035 1.902 6.6035 4.9824 0 4.662-4.8784 9.0174-6.6035 9.0176-1.7253 0-6.6035-4.3555-6.6035-9.0176 0-3.0804 3.7611-4.9824 6.6035-4.9824zm-0.97852 2.3203c-0.62368-4.671e-4 -1.2479 0.068975-1.8535 0.21875-0.00586 0.00398-0.00918 0.00849-0.011719 0.013672-0.00496-0.00547-0.011771-0.00888-0.019531-0.00781-0.51827 0.13483-0.83364 0.25487-1.2402 0.39844-0.05924 0.013288-0.019414 0.082719-0.00586 0.11719 0.10209 0.24251 0.21591 0.48314 0.3418 0.71289 0.00523 0.00177 0.010392 0.0041 0.015625 0.00586-0.017393 0.02759 0.027715 0.063593 0.035156 0.091797 0.092903 0.15245 0.17542 0.31369 0.28711 0.45312 0.00343 3.387e-4 0.0065 2.227e-4 0.00977 0-0.00353 0.00383-0.00646 0.00769-0.00977 0.011719 0.38085 0.57186 0.84687 1.0845 1.377 1.5215l0.375 0.36523c1.0989 1.1279 1.7298 2.6967 1.7129 4.2715-0.00122 0.77464-0.14942 1.5469-0.43945 2.2656-0.029154 0.02713-0.00113 0.10203 0.035156 0.05664 0.52985-0.83971 0.85933-1.8102 0.92578-2.8027 0.022587-0.53613 0.018641-1.0768-0.095703-1.6035-0.093401-0.46771-0.23985-0.92659-0.43945-1.3594-0.00915-0.00896-0.018828-0.016577-0.029297-0.023437 0.01089-0.0058 0.015334-0.017702 0.00391-0.033203-0.13629-0.29297-0.29808-0.57334-0.48047-0.83984-0.011613 0.017229-0.022686 0.034816-0.033203 0.052734-0.00144-0.00188-0.00247-0.00398-0.00391-0.00586 0.013931-0.00871 0.024968-0.033181 0.037109-0.046875v-0.00195c-0.23943-0.34966-0.51598-0.6741-0.82421-0.96485l-0.24805-0.26758c-0.19945-0.24479-0.39322-0.49773-0.56055-0.76562-0.095063-0.14362-0.17382-0.29688-0.26367-0.44336 0.00502-4.2e-4 0.00924-0.00149 0.015625-0.00586 0.62947-0.3042 1.3061-0.5112 1.998-0.60547 0.43888-0.067733 0.88623-0.05969 1.3301-0.044922 0.9883 0.068537 1.9628 0.3622 2.8223 0.85938 0.30179 0.17032 0.58721 0.36906 0.85938 0.58203 0.02863 0.027324 0.05913-0.020142 0.02344-0.037109-1.2467-1.1166-2.831-1.8533-4.4902-2.0703-0.3829-0.055964-0.76958-0.072179-1.1562-0.068359z" style="fill-opacity:.5;fill:currentColor"/>
</svg>
