<?xml version="1.0" encoding="UTF-8"?>
<!-- Created with Inkscape (http://www.inkscape.org/) -->
<svg width="16" height="16" version="1.1" xmlns="http://www.w3.org/2000/svg" xmlns:cc="http://creativecommons.org/ns#" xmlns:dc="http://purl.org/dc/elements/1.1/" xmlns:rdf="http://www.w3.org/1999/02/22-rdf-syntax-ns#">
	
	<metadata>
		<rdf:RDF>
			<cc:Work rdf:about="">
				<dc:format>image/svg+xml</dc:format>
				<dc:type rdf:resource="http://purl.org/dc/dcmitype/StillImage"/>
				<dc:title/>
			</cc:Work>
		</rdf:RDF>
	</metadata>
	<defs>
		<style id="current-color-scheme" type="text/css">.ColorScheme-Text {color:#090d11;}.ColorScheme-Background{color:#ffffff;}</style>
	</defs>
	<path d="m5 2c-2.216 0-4 1.784-4 4v5c0 2.216 1.784 4 4 4h6c2.216 0 4-1.784 4-4v-5c0-2.216-1.784-4-4-4h-6zm0 2h2v1h-2v-1zm2 2h2v1h-2v-1zm2 2h2v1h-2v-1zm-2 2h2v1h-2v-1zm-2 2h2v1h-2v-1z" style="fill-opacity:.75;fill:currentColor" class="ColorScheme-Text"/>
	<path d="m5 1c-2.7527 0-5 2.2473-5 5v5c0 2.7527 2.2473 5 5 5h6c2.7527 0 5-2.2473 5-5v-5c0-2.7527-2.2473-5-5-5h-6zm0 1h6c2.216 0 4 1.784 4 4v5c0 2.216-1.784 4-4 4h-6c-2.216 0-4-1.784-4-4v-5c0-2.216 1.784-4 4-4zm0 2v1h2v-1h-2zm2 2v1h2v-1h-2zm2 2v1h2v-1h-2zm-2 2v1h2v-1h-2zm-2 2v1h2v-1h-2z" style="fill-opacity:.5;fill:currentColor"  class="ColorScheme-Background"/>
</svg>
