<?xml version="1.0" encoding="UTF-8"?>
<!-- Created with Inkscape (http://www.inkscape.org/) -->
<svg width="16" height="16" version="1.1" xmlns="http://www.w3.org/2000/svg" xmlns:cc="http://creativecommons.org/ns#" xmlns:dc="http://purl.org/dc/elements/1.1/" xmlns:rdf="http://www.w3.org/1999/02/22-rdf-syntax-ns#">
	<defs>
		<style id="current-color-scheme" type="text/css">.ColorScheme-Text {
			color:#090d11;
			}
			.ColorScheme-Background{
			color:#ffffff;
			}</style>
	</defs>
	<metadata>
		<rdf:RDF>
			<cc:Work rdf:about="">
				<dc:format>image/svg+xml</dc:format>
				<dc:type rdf:resource="http://purl.org/dc/dcmitype/StillImage"/>
			</cc:Work>
		</rdf:RDF>
	</metadata>
	<path class="ColorScheme-Text" d="m0.38086 3.0215c-0.78342-0.00253-1.2654 0.85584-0.85547 1.5234l0.4375 0.71484 0.0019531 6.7715c0.0013338 0.82758 0.9499 1.2955 1.6074 0.79297l3.0801-2.3633 1.4453 1.2656c0.39442 0.34515 0.9884 0.32726 1.3613-0.04101l0.56445-0.55664 0.57617 0.56055c0.37475 0.36479 0.96727 0.37926 1.3594 0.0332l1.4336-1.2695 0.52148 0.39258c0.23543 0.17714 0.537 0.24146 0.82422 0.17578 0.0314 0.26159 0.16475 0.50023 0.37109 0.66406l1.2754 1.0078c0.65532 0.5191 1.6205 0.05281 1.6211-0.7832l2e-3 -6.6133 0.47266-0.71289c0.43984-0.66348-0.034071-1.55-0.83012-1.5527l-1.6816-0.0078125c-0.1894-2.787e-4 -0.37498 0.053229-0.53516 0.1543-0.157-0.098274-0.33822-0.15101-0.52344-0.15234l-1.1602-0.0019531c-0.11933-1.912e-4 -0.23774 0.020976-0.34961 0.0625-0.1078-0.038619-0.22143-0.058438-0.33594-0.058594l-2.5625-0.00391c-0.16944-3.83e-5 -0.33611 0.042974-0.48438 0.125-0.1467-0.080387-0.31123-0.12269-0.47852-0.12304h-2.5605c-0.16729 3.496e-4 -0.33181 0.042656-0.47852 0.12305-0.14514-0.078768-0.30752-0.12037-0.47266-0.12109zm-0.001953 1 3.6465 0.00586 0.41797 0.31836v4.8496l0.11133 0.080078-3.5898 2.7559-0.0019531-7.0527zm8.1211 0.0019531 2.5645 0.00391 0.42774 0.38281-2e-3 4.623-2.1933 1.9394-1.2207-1.1855-0.0019531-5.4434zm3.248 0 1.1602 0.00195 0.14258 2.0586 0.39453-0.58203 0.51953-1.4785 1.6816 0.00781-0.63867 0.96289-2e-3 6.916-1.2754-1.0098-2e-3 -2.6582-0.42578 1.5332-0.70703-1.8398-0.08008 2.1133-1.0254-0.77344 0.26172-0.078125zm-6.7695 0.00195h2.5605l0.42578 0.32227 0.0019531 5.4336-1.2109 1.1934-2.2051-1.9336v-4.6953zm1.8828 1.3828-1.0527 0.00586-0.10156 0.076172 0.00195 2.8008 1.2559 1.0586 0.00195-3.8574zm3.3496 0-1.0684 0.00195-0.10352 0.078125 0.00586 3.8535 1.2734-1.0527v-2.7988zm-7.1445 0.00391-1.0391 0.00391-0.00195 3.8789 1.1406-1.0059-0.00195-2.7969z" style="fill-opacity:.75;fill:currentColor"/>
</svg>
