<?xml version="1.0" encoding="UTF-8"?>
<svg id="b" width="16" height="16" version="1.1" xmlns="http://www.w3.org/2000/svg" xmlns:cc="http://creativecommons.org/ns#" xmlns:dc="http://purl.org/dc/elements/1.1/" xmlns:rdf="http://www.w3.org/1999/02/22-rdf-syntax-ns#">
	<metadata id="d">
		<rdf:RDF>
			<cc:Work rdf:about="">
				<dc:format>image/svg+xml</dc:format>
				<dc:type rdf:resource="http://purl.org/dc/dcmitype/StillImage"/>
				<dc:title/>
			</cc:Work>
		</rdf:RDF>
	</metadata>
	<defs>
		<style id="current-color-scheme" type="text/css">.ColorScheme-Text {color:#090d11;}.ColorScheme-Background{color:#ffffff;}</style>
	</defs>
	<path id="c" d="m4.4995 0.54369-3.5005 2.9709 3.5005 3 3.5005-3zm3.5005 2.9709 3.5005 3 3.5005-3-3.5005-2.9709zm3.5005 3-3.5005 2.9709-3.5005-2.9709-3.5005 2.9709 7.0011 5.9709 7.0011-5.9709z" style="fill:currentColor;fill-opacity:0.75;" class="ColorScheme-Text"/>
	<path id="a" d="m4.5-0.90625-0.71875 0.625-3.5 2.9688-0.96875 0.8125 0.96875 0.84375 2.5312 2.1562-2.5312 2.1562-0.96875 0.8125 0.96875 0.84375 7 5.9688 0.71875 0.625 0.71875-0.625 7-5.9688 0.96875-0.84375-0.96875-0.8125-2.5312-2.1562 2.5312-2.1562 0.96875-0.84375-0.96875-0.8125-3.5-2.9688-0.71875-0.625-0.71875 0.625-2.7812 2.3438-2.7812-2.3438zm0 1.4375 3.5 2.9688 3.5-2.9688 3.5 2.9688-3.5 3 3.5 3-7 5.9688-7-5.9688 3.5-3-3.5-3z" style="fill:currentColor;fill-opacity:0.5;" class="ColorScheme-Background"/>
</svg>
