<?xml version="1.0" encoding="UTF-8"?>
<svg id="d" width="16" height="16" version="1.1" xmlns="http://www.w3.org/2000/svg" xmlns:cc="http://creativecommons.org/ns#" xmlns:dc="http://purl.org/dc/elements/1.1/" xmlns:rdf="http://www.w3.org/1999/02/22-rdf-syntax-ns#">
	<metadata id="a">
		<rdf:RDF>
			<cc:Work rdf:about="">
				<dc:format>image/svg+xml</dc:format>
				<dc:type rdf:resource="http://purl.org/dc/dcmitype/StillImage"/>
			</cc:Work>
		</rdf:RDF>
	</metadata>
	<defs id="e">
		<style id="current-color-scheme" type="text/css">.ColorScheme-Text {color:#090d11;}.ColorScheme-Background{color:#ffffff;}</style>
	</defs>
	<path id="c" class="ColorScheme-Background" d="m8-0.15039c-2.4369 0-4.4648 1.9615-4.4648 4.3828 0 0.51005 0.1046 0.99711 0.26953 1.4551-0.37238 0.13497-0.79515 0.23046-1.127 0.39062-0.72049 0.34778-1.3416 0.74068-1.8418 1.2109-0.49266 0.4632-0.98438 1.076-0.98438 1.9434 0 0.6086 0.30606 0.9988 0.6582 1.25 0.25631 0.18284 0.51311 0.26888 0.70703 0.31836 0.39081 0.09973 0.72991 0.11751 1.0215 0.14258 0.064323 0.0055 0.083257 0.0098 0.14453 0.01563l0.45508 2.9863c0.028775 0.34134 0.12776 0.6934 0.34961 1.0137 0.27287 0.39391 0.76325 0.76246 1.4141 0.76367l0.00195 2e-3c2.2872 0.52521 4.5695 0.51999 6.7813 0l2e-3 -2e-3c0.6382-0.0012 1.1272-0.35256 1.4082-0.74414 0.26239-0.36571 0.37336-0.77814 0.38281-1.1797v0.05859l0.43555-2.8652c0.07407-0.0077 0.102-0.0133 0.18164-0.02149 0.30317-0.03118 0.64659-0.06212 1.0312-0.17188 0.18764-0.05356 0.44129-0.14102 0.69531-0.33203 0.32809-0.24675 0.63086-0.63528 0.63086-1.2344 0-0.87131-0.49512-1.4815-0.98633-1.9434-0.49882-0.4689-1.1186-0.86275-1.8399-1.2109-0.3317-0.16012-0.7546-0.25564-1.127-0.39062 0.16429-0.45809 0.26758-0.94613 0.26758-1.4551 0-2.4224-2.0302-4.3828-4.4668-4.3828zm0 1.1504c1.8287 0 3.3164 1.4499 3.3164 3.2324 1e-6 0.79472-0.29226 1.524-0.78125 2.0879 0.84865 0.19513 1.6285 0.47317 2.291 0.79297 0.64257 0.31019 1.1728 0.65653 1.5527 1.0137 0.37996 0.35725 0.62305 0.72837 0.62305 1.1055 0 0.12949-0.07932 0.24484-0.17188 0.31445-0.09257 0.069611-0.19987 0.11211-0.32031 0.14648-0.24089 0.068732-0.53729 0.1025-0.83203 0.13281-0.29474 0.030287-0.58721 0.055114-0.80078 0.095703-0.10678 0.020291-0.19376 0.04596-0.24219 0.068359-0.02261 0.010532-0.03126 0.017032-0.03516 0.019532l-0.57226 3.7598v2e-3c-0.0048 0.2039-0.06184 0.39191-0.16602 0.53711-0.1089 0.15178-0.27933 0.26562-0.47656 0.26562-2.2077 0.5643-4.4782 0.57214-6.7813 0-0.19734 0-0.36514-0.11714-0.4707-0.26953-0.10098-0.14584-0.15366-0.33108-0.1582-0.53325l-0.57617-3.7852c-0.003309-0.003211-0.013524-0.013535-0.035156-0.025391-0.043265-0.02372-0.12426-0.048754-0.22852-0.070312-0.20851-0.043125-0.5035-0.068359-0.79883-0.09375-0.29533-0.025388-0.59114-0.049355-0.83398-0.11133-0.12142-0.030985-0.22967-0.07123-0.32422-0.13867-0.094544-0.067442-0.17578-0.18427-0.17578-0.31445 0-0.37709 0.24112-0.74822 0.62109-1.1055 0.37997-0.35725 0.91209-0.70348 1.5547-1.0137 0.66252-0.3198 1.443-0.59784 2.291-0.79297-0.48858-0.56387-0.7832-1.2931-0.7832-2.0879 0-1.7825 1.4853-3.2324 3.3145-3.2324zm0 1.1504c-1.2211 0-2.1641 0.938-2.1641 2.082 0 0.51109 0.18456 0.96768 0.50195 1.334 0.12262 0.14245 0.20846 0.31279 0.25 0.49609 0.86148 0.59074 1.9938 0.5816 2.8457-0.015625 0.038726-0.17617 0.11834-0.34075 0.23242-0.48047 0.31737-0.36598 0.5-0.82258 0.5-1.334 0-1.1424-0.94551-2.082-2.166-2.082zm0 1.1504c0.63025 0 1.0156 0.42383 1.0156 0.93164 0 0.23762-0.068477 0.40679-0.21875 0.58008-0.0073 0.00901-0.014461 0.018121-0.021484 0.027344-0.063097 0.077276-0.07662 0.18129-0.12891 0.26562-0.40732 0.22875-0.87911 0.23544-1.2891 0.0078122-0.059728-0.094269-0.075187-0.21178-0.14844-0.29688-6.486e-4 -0.0013033-0.0012997-0.0026054-0.0019532-0.0039062-0.15217-0.17562-0.2207-0.34585-0.2207-0.58008 0-0.51213 0.38146-0.93164 1.0137-0.93164zm1.6777 3.7715c-1.0384 0.56642-2.3042 0.57019-3.3477 0.0039063-0.15795 0.18196-0.36905 0.30971-0.60352 0.36523-0.76582 0.1762-1.47 0.42763-2.0488 0.70703-0.37975 0.18331-0.60217 0.36743-0.85352 0.55078 0.17811 0.016901 0.34683 0.023888 0.54297 0.064453 0.17088 0.035335 0.28845 0.046703 0.54883 0.18945 0.11225 0.06152 0.27052 0.19473 0.2832 0.20703 0.1802 0.17494 0.29819 0.40405 0.33594 0.65234l0.55859 3.6719c1.9865 0.46055 3.9172 0.45469 5.8145 0l0.55274-3.6484c0.05013-0.32709 0.23873-0.61675 0.51758-0.79492 0.02886-0.018502 0.11268-0.06627 0.17188-0.09375h2e-3c0.22331-0.10328 0.34135-0.12229 0.50976-0.1543 0.19744-0.037523 0.37396-0.05009 0.55664-0.068359-0.25565-0.19081-0.49556-0.3845-0.89262-0.57617-0.57901-0.2795-1.2826-0.53085-2.0488-0.70703-0.23355-0.057334-0.44325-0.18643-0.59961-0.36914zm-3.1777 0.92773c0.27614-1.1e-6 0.5 0.22386 0.5 0.5 0 0.09052 0.094073 0.26926 0.42969 0.39844 0.33562 0.12918 0.80501 0.12918 1.1406 0 0.33562-0.12918 0.42969-0.30792 0.42969-0.39844-1.1e-6 -0.27614 0.22386-0.5 0.5-0.5 0.27614-1.1e-6 0.5 0.22386 0.5 0.5 0 0.62401-0.47773 1.1039-1.0703 1.332s-1.2668 0.22809-1.8594 0c-0.59259-0.22809-1.0703-0.70802-1.0703-1.332-1.1e-6 -0.27614 0.22386-0.5 0.5-0.5zm-0.73047 2.2773c0.28144 0.24512 0.56407 0.50472 0.88672 0.62891 0.86548 0.33312 1.822 0.33312 2.6875 0 0.32265-0.12419 0.60528-0.38379 0.88672-0.62891l-0.32813 2.1777c-1.245 0.21454-2.5073 0.21454-3.8027-0.0039z" style="fill-opacity:.5;fill:currentColor"/>
	<path id="b" class="ColorScheme-Text" d="m8 1c-1.8292 0-3.3145 1.4499-3.3145 3.2324 0 0.79478 0.29463 1.524 0.7832 2.0879-0.84806 0.19513-1.6285 0.47317-2.291 0.79297-0.6426 0.31019-1.1747 0.65643-1.5547 1.0137-0.37997 0.35725-0.62109 0.72838-0.62109 1.1055 0 0.13018 0.081237 0.24701 0.17578 0.31445 0.094545 0.067442 0.2028 0.10769 0.32422 0.13867 0.24285 0.061973 0.53865 0.08594 0.83398 0.11133 0.29533 0.025391 0.59031 0.050625 0.79883 0.09375 0.10426 0.021559 0.18525 0.046592 0.22852 0.070312 0.021632 0.011856 0.031847 0.02218 0.035156 0.025391l0.57617 3.7852c0.00454 0.20217 0.057217 0.38742 0.1582 0.5332 0.10556 0.15239 0.27336 0.26953 0.4707 0.26953 2.3031 0.57214 4.5735 0.5643 6.7813 0 0.19723 0 0.36766-0.11384 0.47656-0.26562 0.10418-0.1452 0.16122-0.33321 0.16602-0.53711v-2e-3l0.57226-3.7598c0.0039-0.0025 0.01255-9e-3 0.03516-0.019532 0.04843-0.022399 0.1354-0.048068 0.24219-0.068359 0.21357-0.040589 0.50604-0.065416 0.80078-0.095703 0.29474-0.030309 0.59114-0.064081 0.83203-0.13281 0.12044-0.034377 0.22774-0.076873 0.32031-0.14648 0.09256-0.069612 0.17188-0.18497 0.17188-0.31445 0-0.37709-0.24309-0.74822-0.62305-1.1055-0.37991-0.3571-0.91017-0.70344-1.5527-1.0136-0.66249-0.3198-1.4424-0.59784-2.291-0.79297 0.489-0.5639 0.78125-1.2932 0.78125-2.0879 0-1.7825-1.4877-3.2324-3.3164-3.2324zm0 1.1504c1.2205 0 2.166 0.93967 2.166 2.082 0 0.51141-0.18263 0.968-0.5 1.334-0.11408 0.13972-0.1937 0.3043-0.23242 0.48047-0.85188 0.59723-1.9842 0.60637-2.8457 0.015625-0.041544-0.18331-0.12738-0.35364-0.25-0.49609-0.31739-0.36631-0.50195-0.8229-0.50195-1.334 0-1.144 0.94294-2.082 2.1641-2.082zm1.6777 4.9219c0.15636 0.18271 0.36606 0.31181 0.59961 0.36914 0.76625 0.17618 1.4698 0.42753 2.0488 0.70703 0.39706 0.19167 0.63697 0.38536 0.89258 0.57617-0.18268 0.018269-0.3592 0.030836-0.55664 0.068359-0.16842 0.032002-0.28645 0.051014-0.50976 0.1543h-2e-3c-0.0592 0.02748-0.14301 0.075248-0.17188 0.09375-0.27885 0.17818-0.46744 0.46783-0.51758 0.79492l-0.55274 3.6484c-1.8973 0.45469-3.8279 0.46055-5.8145 0l-0.55855-3.6719c-0.03775-0.24829-0.15574-0.47741-0.33594-0.65234-0.012681-0.012305-0.17096-0.14551-0.2832-0.20703-0.26037-0.14275-0.37795-0.15412-0.54883-0.18945-0.19614-0.040565-0.36486-0.047552-0.54297-0.064453 0.25134-0.18335 0.47377-0.36748 0.85352-0.55078 0.57883-0.2794 1.283-0.53083 2.0488-0.70703 0.23446-0.055521 0.44557-0.18328 0.60352-0.36523 1.0435 0.56629 2.3093 0.56252 3.3477-0.0039063zm-3.1777 0.92773c-0.27614-1.1e-6 -0.5 0.22386-0.5 0.5 0 0.62401 0.47773 1.1039 1.0703 1.332s1.2668 0.22809 1.8594 0c0.59259-0.22809 1.0703-0.70802 1.0703-1.332 1e-6 -0.27614-0.22386-0.5-0.5-0.5-0.27614-1.1e-6 -0.5 0.22386-0.5 0.5 0 0.09052-0.094072 0.26926-0.42969 0.39844-0.33562 0.12918-0.80501 0.12918-1.1406 0s-0.42969-0.30792-0.42969-0.39844c1.1e-6 -0.27614-0.22386-0.5-0.5-0.5z" style="fill-opacity:.75;fill:currentColor"/>
</svg>
