<?xml version="1.0" encoding="UTF-8"?>
<!-- Created with Inkscape (http://www.inkscape.org/) -->
<svg width="16" height="16" version="1.1" xmlns="http://www.w3.org/2000/svg" xmlns:cc="http://creativecommons.org/ns#" xmlns:dc="http://purl.org/dc/elements/1.1/" xmlns:rdf="http://www.w3.org/1999/02/22-rdf-syntax-ns#">
	<defs>
		<style id="current-color-scheme" type="text/css">.ColorScheme-Text {color:#090d11;}
			.ColorScheme-Background{color:#ffffff;}</style>
	</defs>
	<metadata>
		<rdf:RDF>
			<cc:Work rdf:about="">
				<dc:format>image/svg+xml</dc:format>
				<dc:type rdf:resource="http://purl.org/dc/dcmitype/StillImage"/>
			</cc:Work>
		</rdf:RDF>
	</metadata>
	<path class="ColorScheme-Text" d="m2 1c-0.554 0-1 0.446-1 1v11c0 0.554 0.446 1 1 1h2.5l0.5-2c-1.662 0-3-1.338-3-3v-3c0-1.662 1.338-3 3-3h5c1.662 0 3 1.338 3 3v3c0 1.662-1.338 3-3 3h-2l-2 2h7c0.554 0 1-0.446 1-1v-11c0-0.554-0.446-1-1-1zm4 13h-1.5l-0.5 2zm-1.5-7.1066c-0.33503 0-0.60663 0.2716-0.60663 0.60663s0.2716 0.60663 0.60663 0.60663 0.60663-0.2716 0.60663-0.60663-0.2716-0.60663-0.60663-0.60663zm3 0c-0.33503 0-0.60663 0.2716-0.60663 0.60663s0.2716 0.60663 0.60663 0.60663 0.60663-0.2716 0.60663-0.60663-0.2716-0.60663-0.60663-0.60663zm3-6.18e-5c-0.33507 0-0.60669 0.27163-0.60669 0.60669s0.27163 0.60669 0.60669 0.60669 0.60669-0.27163 0.60669-0.60669-0.27163-0.60669-0.60669-0.60669z" style="fill:currentColor;opacity:.75"/>
</svg>
