<?xml version="1.0" encoding="UTF-8"?>
<svg id="a" width="16" height="16" version="1.1" xmlns="http://www.w3.org/2000/svg" xmlns:cc="http://creativecommons.org/ns#" xmlns:dc="http://purl.org/dc/elements/1.1/" xmlns:rdf="http://www.w3.org/1999/02/22-rdf-syntax-ns#">
	<metadata id="b">
		<rdf:RDF>
			<cc:Work rdf:about="">
				<dc:format>image/svg+xml</dc:format>
				<dc:type rdf:resource="http://purl.org/dc/dcmitype/StillImage"/>
				<dc:title/>
			</cc:Work>
		</rdf:RDF>
	</metadata>
	<defs id="k">
		<style id="current-color-scheme" type="text/css">.ColorScheme-Text {color:#090d11;}.ColorScheme-Background{color:#ffffff;}</style>
	</defs>
	<path id="d" d="m7.6309 0.0019528c-1.295 0.058576-2.5664 0.42941-3.6992 1.0996-2.7495 1.6266-4.2702 4.7229-3.877 7.8926 0.26846 2.1637 1.4133 4.1229 3.168 5.4316 1.2276 0.91561 2.7101 1.4643 4.2363 1.5645 1.9989 0.13114 3.9764-0.48478 5.5312-1.7285 2.4591-1.967 3.5383-5.169 2.7734-8.2266-0.71106-2.8424-2.9589-5.0879-5.8008-5.7988-0.7707-0.1928-1.5548-0.26953-2.332-0.23438zm0.044922 0.99805c0.68017-0.030763 1.3673 0.037514 2.0449 0.20703 2.4791 0.62017 4.4521 2.5912 5.0723 5.0703 0.67206 2.6865-0.26816 5.4757-2.4277 7.2031-1.3576 1.0859-3.0884 1.6266-4.8398 1.5117-1.3285-0.087159-2.6356-0.56953-3.7051-1.3672-1.5387-1.1476-2.5386-2.8613-2.7734-4.7539-0.34492-2.7799 0.9827-5.4814 3.3945-6.9082 0.99079-0.58615 2.1008-0.91161 3.2344-0.96289zm3.1816 3.9766c-1.6404 0-2.9805 1.3421-2.9805 2.9824 0 1.6404 1.3401 2.9805 2.9805 2.9805 1.6404 0 2.9824-1.3401 2.9824-2.9805 0-1.6404-1.3421-2.9824-2.9824-2.9824zm0 1c1.0999 0 1.9824 0.8825 1.9824 1.9824 0 1.0999-0.8825 1.9805-1.9824 1.9805-1.0999 0-1.9805-0.88054-1.9805-1.9805 0-1.0999 0.88054-1.9824 1.9805-1.9824zm-6.3262 0.00781c-1.369 0-2.4902 1.1193-2.4902 2.4883 0 1.369 1.1213 2.4902 2.4902 2.4902s2.4883-1.1213 2.4883-2.4902c0-1.369-1.1193-2.4883-2.4883-2.4883zm0 1c0.82854 0 1.4883 0.65974 1.4883 1.4883 0 0.82854-0.65974 1.4902-1.4883 1.4902s-1.4902-0.66169-1.4902-1.4902c0-0.82854 0.66169-1.4883 1.4902-1.4883z" style="fill-opacity:.75;fill:currentColor" class="ColorScheme-Text"/>
	<path id="c" d="m7.6758 1c-1.1336 0.051276-2.2436 0.37674-3.2344 0.96289-2.4118 1.4268-3.7395 4.1283-3.3945 6.9082 0.23483 1.8926 1.2348 3.6063 2.7734 4.7539 1.0695 0.79766 2.3766 1.28 3.7051 1.3672 1.7514 0.1149 3.4823-0.42582 4.8398-1.5117 2.1596-1.7274 3.0998-4.5166 2.4277-7.2031-0.62017-2.4791-2.5932-4.4501-5.0723-5.0703-0.67764-0.16952-1.3647-0.23779-2.0449-0.20703zm3.1816 3.9766c1.6404 0 2.9824 1.3421 2.9824 2.9824 0 1.6404-1.3421 2.9805-2.9824 2.9805s-2.9805-1.3401-2.9805-2.9805c0-1.6404 1.3401-2.9824 2.9805-2.9824zm0 1c-1.0999 0-1.9805 0.8825-1.9805 1.9824 0 1.0999 0.88054 1.9805 1.9805 1.9805 1.0999 0 1.9824-0.88054 1.9824-1.9805 0-1.0999-0.8825-1.9824-1.9824-1.9824zm-6.3262 0.00781c1.369 0 2.4883 1.1193 2.4883 2.4883 0 1.369-1.1193 2.4902-2.4883 2.4902s-2.4902-1.1213-2.4902-2.4902c0-1.369 1.1213-2.4883 2.4902-2.4883zm0 1c-0.82854 0-1.4902 0.65974-1.4902 1.4883 0 0.82854 0.66169 1.4902 1.4902 1.4902s1.4883-0.66169 1.4883-1.4902c0-0.82854-0.65974-1.4883-1.4883-1.4883z" style="fill-opacity:.5;fill:currentColor" class="ColorScheme-Background"/>
</svg>
