<?xml version="1.0" encoding="UTF-8"?>
<!-- Created with Inkscape (http://www.inkscape.org/) -->
<svg width="16" height="16" version="1.1" xmlns="http://www.w3.org/2000/svg" xmlns:cc="http://creativecommons.org/ns#" xmlns:dc="http://purl.org/dc/elements/1.1/" xmlns:rdf="http://www.w3.org/1999/02/22-rdf-syntax-ns#">
	<defs>
		<style id="current-color-scheme" type="text/css">.ColorScheme-Text {color:#090d11;}.ColorScheme-Background{color:#ffffff;}</style>
	</defs>
	<metadata>
		<rdf:RDF>
			<cc:Work rdf:about="">
				<dc:format>image/svg+xml</dc:format>
				<dc:type rdf:resource="http://purl.org/dc/dcmitype/StillImage"/>
			</cc:Work>
		</rdf:RDF>
	</metadata>
	<path id="h" class="ColorScheme-Background" d="m2 0c-1.0907 0-2 0.9093-2 2v4c0 0.63005 0.34402 1.1313 0.81055 1.5-0.46653 0.36868-0.81055 0.86995-0.81055 1.5v4c0 1.0907 0.9093 2 2 2h4c0.63005 0 1.1313-0.34402 1.5-0.81055 0.36868 0.46653 0.86995 0.81055 1.5 0.81055h4c1.0907 0 2-0.9093 2-2v-4c0-1.0907-0.9093-2-2-2h-4c-0.63005 0-1.1313 0.34402-1.5 0.81055-0.099122-0.12543-0.18512-0.21142-0.31055-0.31055 0.46653-0.36868 0.81055-0.86995 0.81055-1.5v-4c0-1.0907-0.9093-2-2-2zm0 1h4c0.554 0 1 0.446 1 1v4c0 0.554-0.446 1-1 1h-4c-0.554 0-1-0.446-1-1v-4c0-0.554 0.446-1 1-1zm1.8984 1.0137c-0.15555 0-0.32293 0.022066-0.50195 0.064453-0.17831 0.042216-0.36837 0.10412-0.57031 0.18555l-0.09375 0.037109v0.85156l0.22461-0.125c0.18532-0.10388 0.35742-0.18117 0.51367-0.23047 0.15827-0.049465 0.30275-0.072266 0.4375-0.072266 0.18668 0 0.31866 0.048954 0.42188 0.14258h0.00195c0.10511 0.094217 0.15039 0.20041 0.15039 0.35742 0 0.091053-0.022403 0.18583-0.076172 0.29102h-0.00195c-0.051319 0.10168-0.15032 0.24434-0.30078 0.41406h-0.00195c-0.074477 0.085025-0.27693 0.29592-0.5957 0.61914-0.31793 0.32239-0.56872 0.58106-0.75391 0.77344l-0.042969 0.042969v0.62109h2.582v-0.71094h-1.4922c0.24992-0.25646 0.50556-0.51979 0.66211-0.68164 0.2154-0.2243 0.33955-0.35491 0.38867-0.41211l0.0039-0.0039c0.15112-0.18672 0.25884-0.35086 0.32227-0.50391v-0.00195c0.063285-0.15132 0.095703-0.31221 0.095703-0.47852 0-0.34786-0.13164-0.65163-0.38477-0.86523-0.25328-0.21375-0.59122-0.31446-0.98827-0.31446zm-1.8984 5.9863h4c0.554 0 1 0.446 1 1v4c0 0.554-0.446 1-1 1h-4c-0.554 0-1-0.446-1-1v-4c0-0.554 0.446-1 1-1zm7 0h4c0.554 0 1 0.446 1 1v4c0 0.554-0.446 1-1 1h-4c-0.554 0-1-0.446-1-1v-4c0-0.554 0.446-1 1-1zm2 0.97852c-0.37988 0-0.69948 0.091005-0.9375 0.28516v0.00195c-0.23615 0.19414-0.36133 0.47484-0.36133 0.79883 0 0.23444 0.069791 0.44693 0.20703 0.61719l0.00195 2e-3c0.079176 0.0969 0.21165 0.13433 0.32422 0.19531-0.13613 0.06691-0.29067 0.11252-0.38477 0.22656-0.15439 0.18712-0.23242 0.4228-0.23242 0.68164 0 0.38 0.12265 0.70052 0.36914 0.91797 0.24812 0.21721 0.59403 0.31641 1.0137 0.31641s0.76496-0.0987 1.0117-0.31641c0.24825-0.21736 0.3711-0.53787 0.37109-0.91797 1e-6 -0.25884-0.07803-0.49452-0.23242-0.68164-0.09308-0.11381-0.24733-0.15982-0.38281-0.22656 0.11143-0.06069 0.24211-0.09885 0.32031-0.19531 0.13921-0.17038 0.21094-0.38453 0.21094-0.61914 2.1e-6 -0.32402-0.12517-0.60473-0.36132-0.79887-0.23677-0.19465-0.55612-0.28711-0.9375-0.28711zm-6.8965 0.068359-0.042969 0.068359-1.5195 2.3223v0.66602h1.6211v0.84961h0.78516v-0.84961h0.51172v-0.70703h-0.51172v-2.3496zm6.8965 0.61914c0.18384 0 0.30474 0.042204 0.38867 0.11719v0.00195c0.08533 0.075245 0.12695 0.16898 0.12695 0.32422s-0.04163 0.24897-0.12695 0.32422v2e-3c-0.08393 0.074983-0.20483 0.11714-0.38867 0.11714-0.18479 0-0.30489-0.04288-0.38867-0.11719-0.08271-0.07496-0.125-0.17056-0.125-0.32617 0-0.15562 0.04229-0.25121 0.125-0.32617 0.083776-0.074336 0.20389-0.11719 0.38867-0.11719zm-6.8379 0.4707v1.2598h-0.80273zm6.8379 1.1016c0.20618 0 0.34426 0.05107 0.44336 0.14453h2e-3c0.10058 0.09367 0.15039 0.21725 0.15039 0.4043 0 0.18521-0.05038 0.30615-0.15234 0.40234-0.1011 0.09353-0.23978 0.14453-0.44336 0.14453s-0.34226-0.051-0.44336-0.14453c-0.09983-0.09411-0.15039-0.21513-0.15039-0.40234s0.05113-0.31073 0.15039-0.4043c0.101-0.093531 0.23973-0.14453 0.44331-0.14453z" style="fill-opacity:.5;fill:currentColor"/>
	<path id="f" class="ColorScheme-Text" d="m2 1c-0.554 0-1 0.446-1 1v4c0 0.554 0.446 1 1 1h4c0.554 0 1-0.446 1-1v-4c0-0.554-0.446-1-1-1zm1.8984 1.0137c0.39705 0 0.73499 0.10071 0.98828 0.31445 0.25313 0.2136 0.38477 0.51737 0.38477 0.86523 0 0.1663-0.032418 0.32719-0.095703 0.47852v0.00195c-0.063429 0.15305-0.17115 0.31719-0.32227 0.50391l-0.0039 0.0039c-0.049125 0.057207-0.17328 0.18781-0.38868 0.41212-0.15655 0.16185-0.41219 0.42518-0.66211 0.68164h1.4922v0.71094h-2.582v-0.62109l0.042969-0.042969c0.18519-0.19237 0.43598-0.45105 0.75391-0.77344 0.31877-0.32322 0.52123-0.53412 0.5957-0.61914h0.00195c0.15046-0.16973 0.24947-0.31238 0.30078-0.41406h0.00195c0.053769-0.10519 0.076172-0.19996 0.076172-0.29102 0-0.15701-0.045277-0.2632-0.15039-0.35742h-0.00195c-0.10321-0.093622-0.23518-0.14258-0.42188-0.14258-0.13475 0-0.27923 0.022801-0.4375 0.072266-0.15625 0.049298-0.32835 0.12659-0.51367 0.23047l-0.22461 0.125v-0.85156l0.09375-0.037109c0.20195-0.081425 0.39201-0.14333 0.57031-0.18555 0.17903-0.042387 0.3464-0.064453 0.50195-0.064453zm-1.8984 5.9863c-0.554 0-1 0.446-1 1v4c0 0.554 0.446 1 1 1h4c0.554 0 1-0.446 1-1v-4c0-0.554-0.446-1-1-1zm7 0c-0.554 0-1 0.446-1 1v4c0 0.554 0.446 1 1 1h4c0.554 0 1-0.446 1-1v-4c0-0.554-0.446-1-1-1zm2 0.97852c0.38138 1e-7 0.70073 0.092462 0.9375 0.28711 0.23615 0.19414 0.36133 0.47485 0.36133 0.79883-1e-6 0.23461-0.07173 0.44876-0.21094 0.61914-0.0782 0.09646-0.20888 0.13462-0.32031 0.19531 0.13549 0.06674 0.28973 0.11275 0.38281 0.22656 0.15439 0.18712 0.23242 0.4228 0.23242 0.68164 3e-6 0.3801-0.12284 0.7006-0.37109 0.91797-0.24678 0.21771-0.59213 0.31641-1.0117 0.31641s-0.76552-0.0992-1.0137-0.31641c-0.24649-0.21745-0.36914-0.53797-0.36914-0.91797 0-0.25884 0.078033-0.49452 0.23242-0.68164 0.094093-0.11404 0.24864-0.15965 0.38477-0.22656-0.11257-0.06098-0.24504-0.09841-0.32422-0.19531l-0.00195-2e-3c-0.13724-0.17025-0.20703-0.38275-0.20703-0.61719 0-0.32398 0.12518-0.60469 0.36133-0.79883v-0.00195c0.23802-0.19411 0.55762-0.28511 0.9375-0.28511zm-6.8965 0.068359h0.84375v2.3496h0.51172v0.70703h-0.51172v0.84961h-0.78516v-0.84961h-1.6211v-0.66602l1.5195-2.3223zm6.8965 0.61914c-0.18479 0-0.3049 0.042848-0.38867 0.11719-0.08271 0.074961-0.125 0.17056-0.125 0.32617 0 0.15562 0.04229 0.25121 0.125 0.32617 0.08378 0.0743 0.20389 0.11719 0.38867 0.11719 0.18384 0 0.30474-0.04216 0.38867-0.11719v-2e-3c0.08533-0.07525 0.12695-0.16898 0.12695-0.32422s-0.04162-0.24897-0.12695-0.32422v-0.00195c-0.083934-0.074938-0.20483-0.11714-0.38867-0.11714zm-6.8379 0.4707-0.80273 1.2598h0.80273zm6.8379 1.1016c-0.20358 0-0.34231 0.051-0.44336 0.14453-0.09926 0.09357-0.15039 0.21709-0.15039 0.4043s0.05056 0.30823 0.15039 0.40234c0.1011 0.09353 0.23978 0.14453 0.44336 0.14453s0.34226-0.051 0.44336-0.14453c0.10196-0.09619 0.15234-0.21713 0.15234-0.40234 0-0.18705-0.04981-0.31063-0.15039-0.4043h-2e-3c-0.099047-0.09346-0.23713-0.14453-0.44331-0.14453z" style="fill-opacity:.75;fill:currentColor"/>
</svg>
