<?xml version="1.0" encoding="UTF-8"?>
<!-- Created with Inkscape (http://www.inkscape.org/) -->
<svg width="16" height="16" version="1.1" xmlns="http://www.w3.org/2000/svg" xmlns:cc="http://creativecommons.org/ns#" xmlns:dc="http://purl.org/dc/elements/1.1/" xmlns:rdf="http://www.w3.org/1999/02/22-rdf-syntax-ns#">
	<metadata>
		<rdf:RDF>
			<cc:Work rdf:about="">
				<dc:format>image/svg+xml</dc:format>
				<dc:type rdf:resource="http://purl.org/dc/dcmitype/StillImage"/>
				<dc:title/>
			</cc:Work>
		</rdf:RDF>
	</metadata>
	<defs>
		<style
			id="current-color-scheme"
			type="text/css">
			.ColorScheme-Text {
			color:#090d11;
			}
			.ColorScheme-Background{
			color:#ffffff;
			}
		</style>
	</defs>
	<g transform="translate(3446.7 -3647.7)">
		<path d="m-3438.7 3648.7c-1.8905 0-3.585 0.7807-4.8437 2l2.1562 3.7187c0.4811-1.0112 1.4942-1.7187 2.6875-1.7187h6.3125c-1.1242-2.363-3.5215-4-6.3125-4zm-5.75 3.0312c-0.7852 1.1313-1.25 2.4874-1.25 3.9688 0 3.3049 2.295 6.0468 5.375 6.7812l2.2188-3.8437c-0.1953 0.04-0.3867 0.062-0.5938 0.062-1.1095 0-2.0747-0.6046-2.5937-1.5l-3.1563-5.4688zm5.75 1.9688c-1.1046 0-2 0.8954-2 2 0 0.2761 0.055 0.542 0.1563 0.7812l0.125 0.2188c0.346 0.5969 0.9791 1 1.7187 1 0.6742 0 1.2627-0.3327 1.625-0.8438l0.031-0.031c0.026-0.038 0.039-0.085 0.062-0.125 0.1707-0.2945 0.2812-0.635 0.2812-1 0-1.1046-0.8954-2-2-2zm2.2188 0c0.4794 0.5317 0.7812 1.2276 0.7812 2 0 0.5474-0.1502 1.0582-0.4062 1.5-0.035 0.06-0.055 0.1305-0.094 0.1875l-0.031 0.062-3.0313 5.2187c0.1854 0.015 0.3733 0.031 0.5625 0.031 3.866 0 7-3.134 7-7 0-0.6912-0.095-1.3693-0.2812-2h-4.5z" style="fill:currentColor;fill-opacity:0.75;" class="ColorScheme-Text"/>
		<path transform="translate(-3446.7 3647.7)" d="m8-0.09375c-2.1933 0-4.1492 0.9132-5.5938 2.3125a1.1001 1.1001 0 0 0-0.34375 0.71875 1.1001 1.1001 0 0 0-0.6875 0.46875h-0.03125c-0.018 0.026-0.01325 0.06675-0.03125 0.09375-0.021 0.03-0.0415 0.06275-0.0625 0.09375a1.1001 1.1001 0 0 0-0.03125 0.09375c-0.8022 1.2521-1.3125 2.7105-1.3125 4.3125 0 3.8141 2.6578 6.9948 6.2188 7.8438a1.1001 1.1001 0 0 0 0.625-0.03125 1.1001 1.1001 0 0 0 0.03125 0 1.1001 1.1001 0 0 0 0.5625 0.25c0.1823 0.015 0.40505 0.03125 0.65625 0.03125 4.4605 0 8.1251-3.6332 8.125-8.0938 0-0.792-0.12565-1.5739-0.34375-2.3125a1.1001 1.1001 0 0 0-0.375-0.5625 1.1001 1.1001 0 0 0-0.09375-0.59375c-1.3002-2.7329-4.0913-4.6251-7.3125-4.625zm0 1.0938c2.791 0 5.1883 1.637 6.3125 4h-6.3125c-1.1933 0-2.2064 0.70755-2.6875 1.7188l-2.1562-3.7188c1.2587-1.2193 2.9532-2 4.8438-2zm-5.75 3.0312 3.1562 5.4688c0.519 0.8954 1.4842 1.5 2.5938 1.5 0.2071 0 0.39845-0.0225 0.59375-0.0625l-2.2188 3.8438c-3.08-0.7344-5.375-3.4764-5.375-6.7812 0-1.4814 0.4648-2.8374 1.25-3.9688zm5.75 1.9688c1.1046 0 2 0.8954 2 2 0 0.365-0.11055 0.7055-0.28125 1-0.023 0.04-0.0365 0.087-0.0625 0.125l-0.03125 0.03125c-0.3623 0.5111-0.9508 0.84375-1.625 0.84375-0.7396 0-1.3728-0.4031-1.7188-1l-0.125-0.21875c-0.1013-0.2392-0.15625-0.50515-0.15625-0.78125 0-1.1046 0.8954-2 2-2zm2.2188 0h4.5c0.1862 0.6307 0.28125 1.3088 0.28125 2 0 3.866-3.134 7-7 7-0.1892 0-0.3771-0.01625-0.5625-0.03125l3.0312-5.2188 0.03125-0.0625c0.039-0.057 0.05875-0.1275 0.09375-0.1875 0.256-0.4418 0.40625-0.9526 0.40625-1.5 0-0.7724-0.30185-1.4683-0.78125-2z" style="fill:currentColor;fill-opacity:0.5;" class="ColorScheme-Background"/>
	</g>
</svg>
