<?xml version="1.0" encoding="UTF-8"?>
<!-- Created with Inkscape (http://www.inkscape.org/) -->
<svg width="16" height="16" version="1.1" xmlns="http://www.w3.org/2000/svg" xmlns:cc="http://creativecommons.org/ns#" xmlns:dc="http://purl.org/dc/elements/1.1/" xmlns:rdf="http://www.w3.org/1999/02/22-rdf-syntax-ns#">
	<defs>
		<style id="current-color-scheme" type="text/css">.ColorScheme-Text {color:#090d11;}.ColorScheme-Background{color:#ffffff;}</style>
	</defs>
	<metadata>
		<rdf:RDF>
			<cc:Work rdf:about="">
				<dc:format>image/svg+xml</dc:format>
				<dc:type rdf:resource="http://purl.org/dc/dcmitype/StillImage"/>
			</cc:Work>
		</rdf:RDF>
	</metadata>
	<path id="e" class="ColorScheme-Text" d="m7.9922 1c-3.868 0-6.9922 3.1244-6.9922 6.9922 0 3.8684 3.1242 6.9922 6.9922 6.9922 3.7955 0 6.8722-3.0078 6.9863-6.7754 0.014329-0.067621 0.021484-0.13697 0.021484-0.20898v-6c0-0.554-0.446-1-1-1h-6c-0.0026109-2.85e-6 -0.005201 0-0.0078125 0zm4.0078 1h1.5a0.50005 0.50005 0 0 1 0.5 0.5v2a0.50005 0.50005 0 0 1-0.5 0.5h-1.5v1h1.5a0.5 0.5 0 0 1 0.5 0.5 0.5 0.5 0 0 1-0.5 0.5h-2a0.50005 0.50005 0 0 1-0.5-0.5v-2a0.50005 0.50005 0 0 1 0.5-0.5h1.5v-1h-1a0.5 0.5 0 0 1-0.5-0.5 0.5 0.5 0 0 1 0.5-0.5zm-5.6094 1.9082h1.4024c0.23063 4.362e-4 0.4365 0.1447 0.51562 0.36133l1.7227 4.7305 0.29688 0.81445 0.83594-0.78125c0.019103-0.017804 0.039756-0.032307 0.060547-0.046875 0.015408-0.010824 0.030705-0.0222 0.046875-0.03125 0.011271-0.0062761 0.023571-0.010206 0.035157-0.015625 0.01928-0.0090688 0.038615-0.018698 0.058593-0.025391 0.029115-0.0097533 0.057852-0.016757 0.087891-0.021484 0.034883-0.0054895 0.070301-0.0070964 0.10547-0.0058593 0.033863 0.001191 0.06643 0.0062772 0.099609 0.013672 0.001278 2.848e-4 0.00263-2.94e-4 0.003906 0 0.002016 4.628e-4 0.003848 0.0014674 0.00586 0.0019532 0.028978 0.0070154 0.058226 0.015589 0.085937 0.027344 0.003226 0.0013682 0.006562 0.0024741 0.009766 0.0039063 0.002087 9.341e-4 0.003782 0.0029448 0.005859 0.0039062 0.023758 0.010989 0.046086 0.024527 0.06836 0.039062 0.009567 0.0062429 0.020054 0.010682 0.029297 0.017578 0.026112 0.019488 0.051216 0.041725 0.074218 0.066406 0.20762 0.22168 0.19626 0.56969-0.02539 0.77734l-1.4434 1.3496c-0.28845 0.2693-0.75826 0.15622-0.89258-0.21484l-0.71875-1.9727-0.625-1.7168-0.88477 1.4766-1.3574 2.2656c-0.15665 0.25964-0.49388 0.34352-0.75391 0.1875-0.26034-0.15599-0.34513-0.49338-0.18945-0.75391l1.9492-3.2539 0.75-1.252-0.34375-0.94531h-1.0156c-0.3036 4.319e-4 -0.55013-0.24522-0.55078-0.54883-4.328e-4 -0.30437 0.24641-0.55121 0.55078-0.55078z" style="fill-opacity:.75;fill:currentColor"/>
</svg>
