<?xml version="1.0" encoding="UTF-8"?>
<!-- Created with Inkscape (http://www.inkscape.org/) -->
<svg width="16" height="16" version="1.1" xmlns="http://www.w3.org/2000/svg" xmlns:cc="http://creativecommons.org/ns#" xmlns:dc="http://purl.org/dc/elements/1.1/" xmlns:rdf="http://www.w3.org/1999/02/22-rdf-syntax-ns#">
	<defs>
		<style id="current-color-scheme" type="text/css">.ColorScheme-Text {color:#090d11;}.ColorScheme-Background{color:#ffffff;}</style>
	</defs>
	<metadata>
		<rdf:RDF>
			<cc:Work rdf:about="">
				<dc:format>image/svg+xml</dc:format>
				<dc:type rdf:resource="http://purl.org/dc/dcmitype/StillImage"/>
			</cc:Work>
		</rdf:RDF>
	</metadata>
	<path id="a" class="ColorScheme-Text" d="m1.5 1c-0.27613 2.76e-5 -0.49997 0.22387-0.5 0.5v9c0.00179 0.0072 0.00375 0.01437 0.00586 0.02148 0.00224 0.07562 0.021602 0.14975 0.056641 0.2168 0.0074 0.01072 0.015221 0.02114 0.023437 0.03125 0.017222 0.03001 0.037513 0.05816 0.060547 0.08399l4 4c0.315 0.31478 0.85334 0.091802 0.85352-0.35352v-2c0-0.27614-0.22386-0.5-0.5-0.5s-0.5 0.22386-0.5 0.5v0.79297l-2.293-2.293h11.793c0.27613-2.8e-5 0.49997-0.22387 0.5-0.5v-9c-2.8e-5 -0.27613-0.22387-0.49997-0.5-0.5zm0.5 1h12v8h-12zm1.5 2c-0.27614 0-0.5 0.22386-0.5 0.5s0.22386 0.5 0.5 0.5h3c0.27614 0 0.5-0.22386 0.5-0.5s-0.22386-0.5-0.5-0.5zm6 3c-0.27614 0-0.5 0.22386-0.5 0.5s0.22386 0.5 0.5 0.5h3c0.27614 0 0.5-0.22386 0.5-0.5s-0.22386-0.5-0.5-0.5z" style="fill-opacity:.75;fill:currentColor"/>
	<path id="h" class="ColorScheme-Background" d="m0.5 0c-0.27613 2.7609e-5 -0.49997 0.22387-0.5 0.5v11c0.0022458 0.0771 0.0223 0.15264 0.058594 0.2207 0.012093 0.02183 0.025803 0.04272 0.041016 0.0625 0.013613 0.02472 0.029294 0.04824 0.046875 0.07031l6 6c0.315 0.31478 0.85334 0.091806 0.85352-0.35351v-4c0-0.27614-0.22386-0.5-0.5-0.5s-0.5 0.22386-0.5 0.5v2.793l-4.293-4.293h0.58594l-1-1h-0.29297v-10h14v10h-12.293l1 1h11.793c0.27613-2.8e-5 0.49997-0.22387 0.5-0.5v-11c-2.8e-5 -0.27613-0.22387-0.49997-0.5-0.5zm2 3c-0.27614 0-0.5 0.22386-0.5 0.5s0.22386 0.5 0.5 0.5h4c0.27614 0 0.5-0.22386 0.5-0.5s-0.22386-0.5-0.5-0.5zm7 5c-0.27614 0-0.5 0.22386-0.5 0.5s0.22386 0.5 0.5 0.5h4c0.27614 0 0.5-0.22386 0.5-0.5s-0.22386-0.5-0.5-0.5h-1z" style="fill-opacity:.5;fill:currentColor"/>
</svg>
