<?xml version="1.0" encoding="UTF-8"?>
<svg id="g" width="16" height="16" version="1.1" xmlns="http://www.w3.org/2000/svg" xmlns:cc="http://creativecommons.org/ns#" xmlns:dc="http://purl.org/dc/elements/1.1/" xmlns:rdf="http://www.w3.org/1999/02/22-rdf-syntax-ns#">
	<metadata id="a">
		<rdf:RDF>
			<cc:Work rdf:about="">
				<dc:format>image/svg+xml</dc:format>
				<dc:type rdf:resource="http://purl.org/dc/dcmitype/StillImage"/>
			</cc:Work>
		</rdf:RDF>
	</metadata>
	<defs>
		<style id="current-color-scheme" type="text/css">.ColorScheme-Text {color:#090d11;}.ColorScheme-Background{color:#ffffff;}</style>
	</defs>
	<path id="f" class="ColorScheme-Text" d="m8.0215 1c-1.1465 0-2.0488 0.19854-3.0352 0.66602-2.1206 1.0052-3.597 3.0168-3.9355 5.3633-0.067704 0.46936-0.067323 1.4142 0 1.9277 0.15726 1.1996 0.63378 2.3339 1.4004 3.334 0.27377 0.35714 0.90015 0.98936 1.2344 1.2441 1.0247 0.78115 2.2001 1.2702 3.4277 1.4277 0.39528 0.05072 1.4113 0.04277 1.8418-0.01367 1.2458-0.16331 2.5013-0.71009 3.4863-1.5176 0.35909-0.29435 0.90071-0.86163 1.1777-1.2363 0.93221-1.2609 1.3809-2.6176 1.3809-4.1719 0-1.1806-0.20207-2.0749-0.70117-3.1035-0.36897-0.76047-0.80081-1.3488-1.4434-1.9688-1.3338-1.2869-2.9796-1.9512-4.834-1.9512zm-0.021484 1.0605c1.0179 0.00104 1.7928 0.18325 2.6973 0.63672 0.59604 0.29885 1.0595 0.64356 1.5684 1.166 0.81624 0.83802 1.3337 1.8171 1.5742 2.9766 0.0908 0.43767 0.12587 1.4472 0.06641 1.9238-0.12346 0.98955-0.54341 2.0139-1.1602 2.832-0.22738 0.30165-0.77022 0.84905-1.084 1.0938-0.59006 0.46021-1.2011 0.77724-1.9512 1.0137-0.25737 0.08111-0.30048 0.08215-0.27734 0.0059 0.052548-0.17325 0.088791-0.40647 0.10156-0.64648 0.020236-0.38024 0.26083-0.98319 0.50195-1.2578 0.21209-0.24157 0.25361-0.43424 0.25781-1.2188 0.0035-0.64944 0.01029-0.72638 0.09375-1.0176 0.14206-0.4957 0.28904-0.84476 0.46094-1.0957 0.08736-0.12752 0.22735-0.35523 0.31055-0.50586 0.08319-0.15063 0.20317-0.35386 0.26758-0.45117 0.16824-0.25419 0.52747-0.60597 0.70508-0.68945 0.1985-0.093312 0.41786-0.34268 0.49024-0.56055 0.07438-0.22398 0.05227-0.57735-0.04492-0.70703-0.05727-0.076412-0.09349-0.091797-0.24023-0.091797-0.1344 0-0.19295-0.017409-0.25977-0.080078-0.09191-0.086206-0.1582-0.074705-0.1582 0.027344 0 0.080038-0.12255 0.23278-0.1582 0.19727-0.01484-0.014795-8.27e-4 -0.098738 0.0332-0.1875 0.12467-0.32533 0.16638-0.53399 0.14648-0.74418-0.032792-0.34656-0.24954-0.87577-0.36719-0.89844-0.028279-0.0054478-0.18231 0.10018-0.3418 0.23438-0.83172 0.69983-1.4622 1.1793-1.9023 1.4453-0.21001 0.12694-0.21028 0.12682-0.56445 0.11914-0.41936-0.0090953-0.48024 0.013456-1.1797 0.4375-0.24227 0.14686-0.51412 0.29537-0.60547 0.33008-0.091802 0.034889-0.38383 0.085684-0.65234 0.11328-0.55147 0.056677-0.69796 0.0898-0.9043 0.20898-0.20405 0.11788-0.2563 0.20605-0.21289 0.36328 0.042518 0.15393 0.26939 0.45764 0.54102 0.72461l0.20312 0.19922-0.1582 0.24414c-0.086936 0.13423-0.21618 0.38193-0.28906 0.55078-0.14486 0.33558-0.18586 0.40045-0.47461 0.75586-0.25017 0.30788-0.52622 0.75053-0.78516 1.2578-0.22143 0.43383-0.32789 0.54674-0.73438 0.7793-0.22723 0.13002-0.21898 0.13442-0.47656-0.25391-0.47169-0.71109-0.7973-1.5602-0.92773-2.418-0.06516-0.42864-0.064517-1.316 0.0019531-1.7637 0.1014-0.68277 0.3618-1.431 0.7168-2.0605 0.48198-0.85485 1.3616-1.7349 2.2129-2.2148 0.93514-0.52723 1.8814-0.77448 2.959-0.77344z" style="fill-opacity:.75;fill:currentColor"/>
	<path id="h" class="ColorScheme-Background" d="m8.0215 0c-1.2615 0-2.3618 0.23987-3.4629 0.76172-2.4251 1.1495-4.1124 3.4517-4.498 6.125-0.094687 0.65642-0.089869 1.5285-0.0019531 2.1992 0.18055 1.3772 0.73056 2.6833 1.5977 3.8145 0.37625 0.49082 0.93595 1.0578 1.4238 1.4297 1.1575 0.88238 2.4972 1.4444 3.9043 1.625 0.62158 0.07976 1.4804 0.06777 2.1016-0.01367 1.4449-0.18941 2.854-0.80492 3.9902-1.7363 0.46694-0.38276 0.98833-0.92999 1.3477-1.416 1.0447-1.413 1.5762-3.0189 1.5762-4.7656 0-1.2948-0.24854-2.4029-0.80078-3.541-0.41406-0.85341-0.93927-1.5658-1.6484-2.25-1.5058-1.4529-3.4361-2.2324-5.5293-2.2324zm0 1c1.8544 0 3.5002 0.66425 4.834 1.9512 0.64255 0.61995 1.0744 1.2083 1.4434 1.9688 0.4991 1.0286 0.70117 1.9229 0.70117 3.1035 0 1.5542-0.44865 2.911-1.3809 4.1719-0.27702 0.3747-0.81865 0.94198-1.1777 1.2363-0.98505 0.80749-2.2406 1.3543-3.4863 1.5176-0.43046 0.05644-1.4465 0.06439-1.8418 0.01367-1.2276-0.15752-2.4031-0.64658-3.4277-1.4277-0.33423-0.25478-0.96061-0.887-1.2344-1.2441-0.76661-1.0001-1.2431-2.1344-1.4004-3.334-0.067323-0.51358-0.067704-1.4584 0-1.9277 0.33851-2.3465 1.8149-4.3581 3.9355-5.3633 0.98631-0.46747 1.8887-0.66602 3.0352-0.66602zm-0.021484 1.0605c-1.0775-0.0010385-2.0238 0.24621-2.959 0.77344-0.8513 0.47997-1.7309 1.36-2.2129 2.2148-0.355 0.62958-0.6154 1.3778-0.7168 2.0605-0.06647 0.44765-0.067113 1.335-0.0019531 1.7637 0.13044 0.85781 0.45604 1.7069 0.92773 2.418 0.25759 0.38832 0.24933 0.38392 0.47656 0.25391 0.40648-0.23256 0.51294-0.34546 0.73438-0.7793 0.25894-0.50728 0.53499-0.94993 0.78516-1.2578 0.28875-0.35541 0.32975-0.42028 0.47461-0.75586 0.072884-0.16885 0.20213-0.41656 0.28906-0.55078l0.1582-0.24414-0.20312-0.19922c-0.27162-0.26697-0.4985-0.57068-0.54102-0.72461-0.043411-0.15723 0.008837-0.24541 0.21289-0.36328 0.20634-0.11918 0.35283-0.15231 0.9043-0.20898 0.26851-0.027597 0.56054-0.078392 0.65234-0.11328 0.091352-0.034713 0.3632-0.18322 0.60547-0.33008 0.69945-0.42404 0.76033-0.4466 1.1797-0.4375 0.35418 0.00768 0.35445 0.0077947 0.56445-0.11914 0.44009-0.26602 1.0706-0.74549 1.9023-1.4453 0.15949-0.1342 0.31352-0.23982 0.3418-0.23438 0.11764 0.022665 0.3344 0.55188 0.36719 0.89844 0.0199 0.21019-0.02181 0.41885-0.14648 0.74414-0.03403 0.088762-0.04804 0.17271-0.0332 0.1875 0.03565 0.035519 0.1582-0.11723 0.1582-0.19727 0-0.10205 0.06629-0.11355 0.1582-0.027344 0.06682 0.062669 0.12537 0.080078 0.25977 0.080078 0.14674 0 0.18296 0.015385 0.24023 0.091797 0.09719 0.12968 0.1193 0.48305 0.04492 0.70703-0.07237 0.21786-0.29174 0.46723-0.49024 0.56055-0.1776 0.083487-0.53683 0.43526-0.70508 0.68945-0.06441 0.097309-0.18439 0.30054-0.26758 0.45117-0.0832 0.15063-0.22319 0.37834-0.31055 0.50586-0.1719 0.25094-0.31887 0.6-0.46094 1.0957-0.08346 0.2912-0.09028 0.36814-0.09375 1.0176-0.0042 0.78451-0.04572 0.97718-0.25781 1.2188-0.24113 0.27462-0.48172 0.87758-0.50195 1.2578-0.012771 0.24002-0.049014 0.47324-0.10156 0.64648-0.02314 0.07629 0.019971 0.07525 0.27734-0.0059 0.75002-0.23643 1.3611-0.55347 1.9512-1.0137 0.31376-0.2447 0.85661-0.7921 1.084-1.0938 0.61674-0.81816 1.0367-1.8425 1.1602-2.832 0.05946-0.4766 0.02439-1.4862-0.06641-1.9238-0.2405-1.1594-0.75798-2.1385-1.5742-2.9765-0.50889-0.52245-0.97232-0.86716-1.5684-1.166-0.90442-0.45347-1.6794-0.63568-2.6973-0.63672zm-0.00195 1c0.86565 8.831e-4 1.4169 0.14567 2.168 0.51172-0.53485 0.43081-1.0629 0.85148-1.3281 1.0137l-0.00195-0.00195c4.52e-4 -0.00131-0.00698-3e-3 -0.048828-0.00391-0.22812-0.004947-0.55263 0.0075513-0.85352 0.11914-0.30089 0.11159-0.51136 0.24835-0.86523 0.46289-0.10659 0.064612-0.22579 0.13215-0.32031 0.18359-0.040756 0.022182-0.082508 0.039956-0.11328 0.054688-0.026535 0.0072465-0.053628 0.015882-0.085938 0.021484-0.092276 0.016001-0.21317 0.031756-0.32227 0.042969-0.57417 0.05901-0.99138 0.15887-1.3047 0.33984-0.16368 0.094556-0.37719 0.21333-0.56055 0.52734-0.18336 0.31401-0.17454 0.74491-0.11328 0.9668 0.097495 0.35296 0.21384 0.47565 0.3457 0.65234 0.028747 0.038519 0.068893 0.075057 0.099609 0.11328l0.26562-0.40625c-0.091133 0.14071-0.15985 0.29376-0.23437 0.44336 0.10234 0.12448 0.20392 0.24898 0.32617 0.36914l-0.34375-0.33594c-0.036818 0.075319-0.084032 0.14585-0.11719 0.22266-0.13665 0.31654-0.051622 0.17439-0.33203 0.51953-0.24192 0.29774-0.46287 0.6928-0.68359 1.0879-0.18121-0.41108-0.41-0.80448-0.47656-1.2422-0.033987-0.22358-0.034594-1.2075 0.0039063-1.4668 0.080513-0.54213 0.30639-1.1983 0.59766-1.7148 0.37058-0.65728 1.1819-1.4683 1.834-1.8359 0.80047-0.4513 1.5406-0.64542 2.4648-0.64453zm4.875 4.3145c0.03022 0.40236 0.06645 1.0598 0.04101 1.2637-0.0995 0.79748-0.46043 1.6837-0.9668 2.3555-0.11032 0.14636-0.62881 0.6671-0.8457 0.85156 0.03536-0.08932 0.1023-0.15106 0.12109-0.24023 0.06724-0.31905 0.07008-0.60463 0.07227-1.0137 0.0034-0.64267-0.02019-0.48681 0.05469-0.74805 0.126-0.43967 0.24691-0.69379 0.32422-0.80664 0.1203-0.1756 0.25546-0.39622 0.36133-0.58789 0.06888-0.12472 0.19767-0.33721 0.22656-0.38086 0.0201-0.030363 0.12296-0.15638 0.21484-0.24609 0.09189-0.089713 0.24647-0.16714 0.08203-0.089844 0.17618-0.082826 0.19106-0.25932 0.31445-0.35742z" style="fill-opacity:.5;fill:currentColor"/>
</svg>
