<?xml version="1.0" encoding="UTF-8"?>
<svg id="g" width="16" height="16" version="1.1" xmlns="http://www.w3.org/2000/svg" xmlns:cc="http://creativecommons.org/ns#" xmlns:dc="http://purl.org/dc/elements/1.1/" xmlns:rdf="http://www.w3.org/1999/02/22-rdf-syntax-ns#">
	
	<metadata id="b">
		<rdf:RDF>
			<cc:Work rdf:about="">
				<dc:format>image/svg+xml</dc:format>
				<dc:type rdf:resource="http://purl.org/dc/dcmitype/StillImage"/>
				<dc:title/>
			</cc:Work>
		</rdf:RDF>
	</metadata>
	<defs>
		<style id="current-color-scheme" type="text/css">.ColorScheme-Text {color:#090d11;}.ColorScheme-Background{color:#ffffff;}</style>
	</defs>
	<path id="a" d="m7.9844 0.89844a7.0442 7.0442 0 0 0-7.0449 7.0449 7.0442 7.0442 0 0 0 7.0449 7.0449 7.0442 7.0442 0 0 0 7.0449-7.0449 7.0442 7.0442 0 0 0-7.0449-7.0449zm-1.2598 0.51172v0.041016c-0.63463 0.90641-0.86236 2.2104-0.83398 3.3418a3.7866 3.7866 0 0 1 2.0938-0.63477 3.7866 3.7866 0 0 1 0.060547 0c0.38263-0.99961 0.97504-2.0604 1.6621-2.6035 0.079769 0.018886 0.15731 0.038774 0.23633 0.060547 0.21077 0.065176 0.41788 0.14061 0.62109 0.22656 0.20321 0.085908 0.40406 0.18132 0.59766 0.28711 0.19359 0.10574 0.38043 0.22313 0.5625 0.34766 0.18207 0.12458 0.35863 0.2563 0.52734 0.39844 0.16871 0.14209 0.32873 0.29294 0.48242 0.45117 0.08156 0.087943 0.16162 0.17923 0.23828 0.27148-1.1039-0.095942-2.3487 0.361-3.3145 0.95312a3.7866 3.7866 0 0 1 1.627 1.5449c0.94025-0.15336 2.1104-0.21573 3.0938 0.13477 0.05225 0.19184 0.09606 0.38626 0.13086 0.58203 0.03752 0.2174 0.06443 0.43619 0.08008 0.65625 0.01111 0.15577 0.01565 0.31065 0.01563 0.4668 1e-5 0.22062-0.01118 0.44252-0.0332 0.66211-0.02204 0.21943-0.05383 0.43813-0.09766 0.6543-0.04381 0.21617-0.09889 0.42985-0.16406 0.64062-0.02242 0.064513-0.04591 0.1276-0.07031 0.19141-0.46808-1.0028-1.4839-1.8519-2.4785-2.3926a3.7866 3.7866 0 0 1 0.0098 0.25 3.7866 3.7866 0 0 1-0.53711 1.9414c0.67505 0.83186 1.2994 1.8729 1.4258 2.7402-0.02007 0.02165-0.04022 0.04315-0.06055 0.06445-0.15826 0.15364-0.32524 0.30042-0.49805 0.4375-0.17281 0.13717-0.35146 0.26558-0.53711 0.38477-0.18559 0.11918-0.37764 0.22806-0.57422 0.32812-0.1966 0.10006-0.39791 0.18959-0.60352 0.26953-0.20565 0.0799-0.41437 0.14996-0.62695 0.20898-0.16702 0.04444-0.3359 0.08399-0.50586 0.11524 0.63407-0.90561 0.8619-2.2091 0.83398-3.3398a3.7866 3.7866 0 0 1-2.1035 0.64062 3.7866 3.7866 0 0 1-0.054687-0.0039c-0.3824 0.99658-0.97197 2.0525-1.6562 2.5938-0.080441-0.01893-0.16056-0.03879-0.24023-0.06055-0.2108-0.065177-0.41791-0.1426-0.62113-0.22852-0.20318-0.085906-0.40211-0.18137-0.5957-0.28711s-0.38043-0.22112-0.5625-0.3457c-0.18204-0.12458-0.35863-0.25825-0.52734-0.40039-0.16871-0.14209-0.33068-0.29294-0.48438-0.45117-0.081558-0.087943-0.15967-0.17731-0.23633-0.26953 1.0989 0.09547 2.3368-0.35712 3.3008-0.94531a3.7866 3.7866 0 0 1-1.6289-1.5527c-1.0566 0.16751-2.2658 0.18494-3.0781-0.13867-0.05197-0.19099-0.096207-0.38326-0.13086-0.57812-0.037528-0.2174-0.064444-0.4362-0.080078-0.65625-0.01103-0.15577-0.015649-0.3126-0.015625-0.46875-2.03e-5 -0.22062 0.011196-0.44063 0.033203-0.66016 0.022037-0.21943 0.053815-0.43813 0.097656-0.6543 0.043815-0.21621 0.098881-0.4299 0.16406-0.64062 0.022421-0.064514 0.045904-0.1276 0.070312-0.19141 0.46641 0.99942 1.4755 1.8456 2.4668 2.3867a3.7866 3.7866 0 0 1-0.0078125-0.23438 3.7866 3.7866 0 0 1 0.54492-1.9883c-0.6742-0.83144-1.2976-1.874-1.4238-2.7402 0.02005-0.021677 0.040205-0.043154 0.060547-0.064453 0.15824-0.15369 0.32524-0.29847 0.49805-0.43555 0.17281-0.13717 0.35146-0.26549 0.53711-0.38477 0.18561-0.11913 0.37764-0.22997 0.57422-0.33008 0.19658-0.10006 0.39791-0.18959 0.60352-0.26953 0.20563-0.079897 0.41437-0.14806 0.62695-0.20703 0.16702-0.044445 0.3359-0.083995 0.50586-0.11523zm-0.027344 4.5195v0.00195c-0.1225-0.00503-0.22262 0.095429-0.22266 0.21875v3.5859c-1.4e-6 0.16911 0.18258 0.27393 0.32812 0.18945l1.541-0.89648 1.543-0.89648c0.14547-0.084579 0.14547-0.29628 0-0.38086l-1.543-0.89453-1.541-0.89648c-0.031683-0.018616-0.068895-0.030244-0.10547-0.03125z" style="fill-opacity:.75;fill:currentColor" class="ColorScheme-Text"/>
	<path id="h" d="m8 0c-4.4124 0-8 3.5876-8 8s3.5876 8 8 8 8-3.5876 8-8-3.5876-8-8-8zm0 1c3.8719 0 7 3.1281 7 7s-3.1281 7-7 7-7-3.1281-7-7 3.1281-7 7-7zm-1.2754 0.41016c-0.16996 0.031239-0.33884 0.070789-0.50586 0.11523-0.21259 0.058976-0.42133 0.12713-0.62695 0.20703-0.20561 0.079944-0.40694 0.16947-0.60352 0.26953-0.19658 0.10011-0.38861 0.21094-0.57422 0.33008-0.18565 0.11928-0.3643 0.2476-0.53711 0.38477-0.17281 0.13707-0.33981 0.28186-0.49805 0.43555-0.020342 0.021299-0.040497 0.042776-0.060547 0.064453 0.031554 0.21657 0.094912 0.44323 0.18164 0.67578v0.0019531c0.08664 0.23204 0.19656 0.4692 0.32422 0.70508 0.12793 0.23629 0.27448 0.47113 0.42969 0.69922 0.1555 0.22868 0.31939 0.44992 0.48828 0.6582a3.7866 3.7866 0 0 0-0.12695 0.23633 3.7866 3.7866 0 0 0-0.09375 0.19922 3.7866 3.7866 0 0 0-0.066406 0.1582 3.7866 3.7866 0 0 0-0.064453 0.18164 3.7866 3.7866 0 0 0-0.056641 0.18359 3.7866 3.7866 0 0 0-0.042969 0.17188 3.7866 3.7866 0 0 0-0.041016 0.21289 3.7866 3.7866 0 0 0-0.021484 0.15234 3.7866 3.7866 0 0 0-0.019531 0.2168 3.7866 3.7866 0 0 0-0.011719 0.27539 3.7866 3.7866 0 0 0 0.0078125 0.23438c-0.24736-0.13502-0.49547-0.29029-0.73633-0.46094h-0.0019531c-0.72388-0.51312-1.3787-1.1762-1.7285-1.9258-0.024409 0.063804-0.047891 0.12689-0.070312 0.19141-0.065181 0.21072-0.12025 0.42441-0.16406 0.64062-0.043841 0.21617-0.075619 0.43486-0.097656 0.6543-0.022008 0.21953-0.033223 0.43954-0.033203 0.66016-2.44e-5 0.15615 0.004595 0.31298 0.015625 0.46875 0.015634 0.22005 0.04255 0.43885 0.080078 0.65625 0.034652 0.19487 0.078889 0.38714 0.13086 0.57812 0.20309 0.080903 0.42961 0.14038 0.67383 0.18164 0.24467 0.041466 0.50476 0.064668 0.77344 0.072266 0.53591 0.015155 1.1025-0.03148 1.6309-0.11523a3.7866 3.7866 0 0 0 0.0058594 0.011719 3.7866 3.7866 0 0 0 0.19531 0.31055 3.7866 3.7866 0 0 0 0.20508 0.26562 3.7866 3.7866 0 0 0 0.027344 0.035156 3.7866 3.7866 0 0 0 0.10156 0.10938 3.7866 3.7866 0 0 0 0.16602 0.17188 3.7866 3.7866 0 0 0 0.28711 0.24609 3.7866 3.7866 0 0 0 0.30859 0.21484 3.7866 3.7866 0 0 0 0.10352 0.058594 3.7866 3.7866 0 0 0 0.2168 0.12305 3.7866 3.7866 0 0 0 0.011719 0.005859c-0.96402 0.5882-2.2019 1.0408-3.3008 0.94531 0.076658 0.09222 0.15477 0.18159 0.23633 0.26953 0.1537 0.15823 0.31566 0.30908 0.48438 0.45117 0.16872 0.14214 0.3453 0.27581 0.52734 0.40039 0.18207 0.12458 0.36891 0.23996 0.5625 0.3457 0.1936 0.10574 0.39252 0.2012 0.5957 0.28711 0.20321 0.08592 0.41032 0.16334 0.62109 0.22852 0.079679 0.02176 0.15979 0.041617 0.24023 0.060547 0.68428-0.54129 1.2739-1.5972 1.6562-2.5938a3.7866 3.7866 0 0 0 0.054688 0.003906 3.7866 3.7866 0 0 0 0.35938-0.019531 3.7866 3.7866 0 0 0 0.16992-0.023438 3.7866 3.7866 0 0 0 0.20312-0.03125 3.7866 3.7866 0 0 0 0.18359-0.042969 3.7866 3.7866 0 0 0 0.18164-0.046875 3.7866 3.7866 0 0 0 0.22461-0.080078 3.7866 3.7866 0 0 0 0.11328-0.041015 3.7866 3.7866 0 0 0 0.013672-0.00586 3.7866 3.7866 0 0 0 0.17773-0.083984 3.7866 3.7866 0 0 0 0.17383-0.083984 3.7866 3.7866 0 0 0 0.30273-0.18164c0.00698 0.28268-0.001956 0.57573-0.029297 0.87109-0.054624 0.5901-0.18259 1.1886-0.40234 1.7227-0.11022 0.26786-0.24349 0.51921-0.40234 0.74609 0.16996-0.03125 0.33884-0.070793 0.50586-0.11524 0.21259-0.05902 0.4213-0.12909 0.62695-0.20898 0.2056-0.07994 0.40691-0.16947 0.60352-0.26953 0.19658-0.10006 0.38863-0.20894 0.57422-0.32812 0.18565-0.11918 0.3643-0.2476 0.53711-0.38477 0.1728-0.13708 0.33978-0.28386 0.49805-0.4375 0.02033-0.0213 0.040477-0.042803 0.060547-0.064453-0.12635-0.8673-0.75073-1.9084-1.4258-2.7402a3.7866 3.7866 0 0 0 0.11914-0.22266 3.7866 3.7866 0 0 0 0.08789-0.18359 3.7866 3.7866 0 0 0 0.076172-0.1875 3.7866 3.7866 0 0 0 0.050781-0.14062 3.7866 3.7866 0 0 0 0.070313-0.23633 3.7866 3.7866 0 0 0 0.033203-0.12891 3.7866 3.7866 0 0 0 0.042969-0.22266 3.7866 3.7866 0 0 0 0.02539-0.16211 3.7866 3.7866 0 0 0 0.019532-0.21484 3.7866 3.7866 0 0 0 0.011718-0.24219 3.7866 3.7866 0 0 0-0.009765-0.25c0.24865 0.13518 0.49782 0.28963 0.74023 0.46094h0.001953c0.72676 0.51379 1.3855 1.1799 1.7363 1.9316 0.0244-0.06381 0.047893-0.12689 0.070313-0.19141 0.06517-0.21077 0.12025-0.42446 0.16406-0.64062 0.04383-0.21617 0.075617-0.43486 0.097657-0.6543 0.02202-0.21958 0.033213-0.44149 0.033203-0.66211 2.6e-5 -0.15615-0.004515-0.31103-0.015625-0.4668-0.01565-0.22006-0.042558-0.43885-0.080078-0.65625-0.034802-0.19577-0.078614-0.39019-0.13086-0.58203-0.49166-0.17525-1.0295-0.24681-1.5625-0.25586-0.2672-0.0047532-0.53306 0.0054594-0.79102 0.027344-0.25658 0.021935-0.50578 0.05551-0.74024 0.09375a3.7866 3.7866 0 0 0-0.11133-0.17773 3.7866 3.7866 0 0 0-0.089844-0.14453 3.7866 3.7866 0 0 0-0.003906-0.0039063 3.7866 3.7866 0 0 0-0.49023-0.56836 3.7866 3.7866 0 0 0-0.003906-0.0039063 3.7866 3.7866 0 0 0-0.2832-0.24414 3.7866 3.7866 0 0 0-0.003906-0.0019531 3.7866 3.7866 0 0 0-0.30664-0.21484 3.7866 3.7866 0 0 0-0.0039063-0.0019531 3.7866 3.7866 0 0 0-0.32617-0.18164 3.7866 3.7866 0 0 0-0.0039063-0.0019532c0.24144-0.14803 0.49977-0.2875 0.76953-0.41211 0.80921-0.37382 1.717-0.61297 2.5449-0.54102-0.076658-0.09225-0.15672-0.18354-0.23828-0.27148-0.1537-0.15823-0.31371-0.30908-0.48242-0.45117-0.16872-0.14214-0.34528-0.27386-0.52734-0.39844-0.18207-0.12453-0.36891-0.24192-0.5625-0.34766-0.1936-0.10579-0.39445-0.2012-0.59766-0.28711-0.20321-0.085955-0.41032-0.16139-0.62109-0.22656-0.079018-0.021773-0.15656-0.041661-0.23633-0.060547-0.34354 0.27157-0.6635 0.67282-0.94531 1.1309-0.28137 0.45797-0.52548 0.97285-0.7168 1.4727a3.7866 3.7866 0 0 0-0.060547 0 3.7866 3.7866 0 0 0-0.36133 0.019531 3.7866 3.7866 0 0 0-0.15625 0.021484 3.7866 3.7866 0 0 0-0.20508 0.03125 3.7866 3.7866 0 0 0-0.2793 0.068359 3.7866 3.7866 0 0 0-0.074219 0.017578 3.7866 3.7866 0 0 0-0.26562 0.09375 3.7866 3.7866 0 0 0-0.099609 0.037109 3.7866 3.7866 0 0 0-0.22461 0.10352 3.7866 3.7866 0 0 0-0.11914 0.058594 3.7866 3.7866 0 0 0-0.30859 0.18359c-0.0071082-0.28346 0.0018828-0.57689 0.029297-0.87305 0.027352-0.29552 0.072213-0.59244 0.13867-0.88281 0.066492-0.29095 0.1532-0.57393 0.26367-0.8418 0.11023-0.2674 0.24369-0.51754 0.40234-0.74414v-0.041016zm-0.027344 4.5195c0.036574 0.0010063 0.073786 0.012634 0.10547 0.03125l1.541 0.89648 1.543 0.89453c0.14547 0.084579 0.14547 0.29628 0 0.38086l-1.543 0.89648-1.541 0.89648c-0.14554 0.084478-0.32813-0.020345-0.32812-0.18945v-3.5859c4.03e-5 -0.12332 0.10016-0.22378 0.22266-0.21875v-0.0019531z" style="fill-opacity:.5;fill:currentColor" class="ColorScheme-Background"/>
</svg>
