<?xml version="1.0" encoding="UTF-8"?>
<svg id="c" width="16" height="16" version="1.1" xmlns="http://www.w3.org/2000/svg" xmlns:cc="http://creativecommons.org/ns#" xmlns:dc="http://purl.org/dc/elements/1.1/" xmlns:rdf="http://www.w3.org/1999/02/22-rdf-syntax-ns#">
	<metadata id="a">
		<rdf:RDF>
			<cc:Work rdf:about="">
				<dc:format>image/svg+xml</dc:format>
				<dc:type rdf:resource="http://purl.org/dc/dcmitype/StillImage"/>
			</cc:Work>
		</rdf:RDF>
	</metadata>
	<defs id="e">
		<style id="current-color-scheme" type="text/css">.ColorScheme-Text {color:#090d11;}.ColorScheme-Background{color:#ffffff;}</style>
	</defs>
	<path id="b" class="ColorScheme-Text" d="m7.8605 0.99975c-1.8032 0.036846-3.5644 0.76946-4.8737 2.114-0.1931 0.19748-0.1896 0.51413 0.00781 0.70729 0.19743 0.19314 0.51402 0.18964 0.70713-0.00782 1.7121-1.7582 4.3183-2.2974 6.5869-1.3618 2.2686 0.93554 3.7377 3.1532 3.7134 5.6075-0.02428 2.4543-1.5362 4.6448-3.8228 5.5352-2.2866 0.89044-4.8825 0.29903-6.5595-1.4927-0.18909-0.20005-0.50426-0.20966-0.70518-0.02149-0.20057 0.18858-0.21105 0.50384-0.023441 0.70533 1.9543 2.088 4.9848 2.7785 7.6495 1.7409 2.6647-1.0377 4.4333-3.5974 4.4616-6.4574 0.0283-2.86-1.689-5.4512-4.3326-6.5414-0.66091-0.27256-1.347-0.43788-2.0354-0.50018-0.25815-0.023364-0.51595-0.032617-0.77355-0.027354zm-6.8604 2.9991v8.0029l7.001-4.0014zm6.9893 0.00195c-0.76589 0.00179-1.5377 0.22204-2.2132 0.67407-0.22911 0.15386-0.29031 0.46427-0.13674 0.69361 0.15383 0.22916 0.46417 0.29037 0.69346 0.13677 1.2526-0.83825 2.9217-0.62067 3.9185 0.50995 0.99681 1.1306 1.0038 2.8144 0.01563 3.9526-0.98817 1.1382-2.6557 1.3679-3.9146 0.53926-0.23081-0.15247-0.54152-0.08856-0.69346 0.14263-0.15243 0.23086-0.08854 0.54164 0.1426 0.69361 1.6711 1.1 3.9078 0.79181 5.2195-0.71901 1.3117-1.5108 1.3036-3.7707-0.01954-5.2714-0.66158-0.75039-1.5517-1.1976-2.4847-1.3188-0.17495-0.022739-0.35068-0.033628-0.52742-0.033215z" style="fill-opacity:.75;fill:currentColor"/>
	<path id="d" class="ColorScheme-Background" d="m7.8468 0.0013439c-1.8826 0.035633-3.7579 0.73076-5.2488 2.0965-0.20414 0.18657-0.21814 0.50343-0.031254 0.70729 0.18634 0.20289 0.50163 0.21687 0.70518 0.031261 0.074216-0.067986 0.1503-0.13313 0.22659-0.19734 0.063684-0.05359 0.12833-0.10535 0.19339-0.15631 0.035502-0.027749 0.071485-0.055063 0.10744-0.08206 0.060632-0.045652 0.12191-0.089444 0.18362-0.13286 0.023179-0.016256 0.045021-0.034845 0.068369-0.050799 0.188-0.12889 0.38153-0.24521 0.57821-0.35364 2.3368-1.2884 5.2307-1.134 7.4229 0.42789 0.14061 0.10018 0.27964 0.20477 0.41412 0.31652 0.12479 0.1037 0.24632 0.21264 0.36529 0.32629 0.0063 0.00605 0.01321 0.011512 0.01953 0.017584 0.0096 0.00926 0.01777 0.019986 0.02735 0.029307 0.04295 0.041811 0.08679 0.08192 0.12892 0.12505 0.06936 0.070994 0.13546 0.14374 0.2012 0.21688 0.11084 0.1233 0.21588 0.2501 0.31645 0.37904 0.0042 0.00546 0.0094 0.010164 0.01367 0.015631 0.0074 0.0096 0.01411 0.019686 0.02149 0.029307 0.09697 0.12644 0.19018 0.25562 0.27738 0.38686 0.09563 0.14393 0.18375 0.29055 0.26762 0.43961 0.16638 0.29571 0.30969 0.60048 0.42975 0.91244 0.0023 6e-3 0.0055 0.011576 0.0078 0.017584 0.0034 0.00905 0.0064 0.018301 0.0098 0.027354 0.05759 0.15278 0.10975 0.30739 0.15627 0.46306 0.04636 0.15514 0.0877 0.31152 0.12306 0.46892 0.0025 0.011142 0.0054 0.022057 0.0078 0.033215 0.0018 0.00835 0.0021 0.017039 0.0039 0.0254 0.07226 0.33495 0.12 0.67349 0.1426 1.014 0.0048 0.073037 0.0092 0.1457 0.01173 0.21883 0.0011 0.031185 0.0013 0.062524 2e-3 0.093784 0.0016 0.073596 0.0027 0.14717 2e-3 0.22078-0.0034 0.3483-0.03268 0.69654-0.08791 1.0414-8.28e-4 0.00516-0.0011 0.01047-2e-3 0.015631-8.62e-4 0.00531-3e-3 0.010326-0.0039 0.01563-0.02741 0.1663-0.06015 0.33189-0.09962 0.49627-0.04036 0.16802-0.08769 0.33489-0.14064 0.50018-0.05232 0.16328-0.11118 0.32466-0.17581 0.48455v2e-3l-2e-3 2e-3c-0.06399 0.15803-0.13299 0.31491-0.20901 0.46892-0.07581 0.15358-0.1564 0.30439-0.24418 0.45329-0.08646 0.14666-0.17931 0.29033-0.27738 0.4318-0.09458 0.13641-0.1935 0.27151-0.29887 0.40249-0.0026 0.0033-0.0052 0.0065-0.0078 0.0098-0.0049 0.0061-0.0107 0.01152-0.01563 0.01759-0.09343 0.11493-0.19121 0.22775-0.29301 0.33801-0.01 0.01084-0.01924 0.02242-0.0293 0.03322-0.0057 0.0061-0.01189 0.01153-0.01758 0.01759-0.01522 0.01618-0.02953 0.03279-0.04492 0.04885-0.09415 0.09817-0.19076 0.19179-0.2891 0.2833-0.0047 0.0044-0.0089 0.0093-0.01367 0.01367-0.0088 0.0082-0.0185 0.01535-0.02734 0.02345-0.11842 0.10848-0.23943 0.21173-0.36333 0.31066l-2e-3 2e-3c-0.13616 0.10863-0.27588 0.21164-0.41803 0.3087-0.1451 0.09909-0.29279 0.19239-0.44342 0.2794-0.46486 0.26852-0.95551 0.47804-1.4592 0.63109-0.33631 0.10219-0.67775 0.18013-1.0236 0.23055-1.1861 0.17295-2.4093 0.03942-3.5454-0.40249-0.30831-0.12011-0.60956-0.26241-0.90244-0.42807-0.016263-0.0092-0.032636-0.01805-0.048835-0.02735-0.13825-0.07967-0.27437-0.16404-0.40826-0.254-0.013977-0.0094-0.027104-0.01985-0.041022-0.02932-0.12284-0.083824-0.24477-0.1713-0.36339-0.26382-0.016467-0.012827-0.032467-0.026093-0.048835-0.03908-0.11312-0.089812-0.22512-0.18144-0.334-0.27934-0.20592-0.18492-0.52284-0.16741-0.70713 0.039077-0.18356 0.2057-0.16609 0.52118 0.039069 0.70533 3.2073 2.884 8.1371 2.7008 11.123-0.41226 2.9856-3.113 2.9634-8.0476-0.05079-11.133-1.5071-1.5427-3.4935-2.3475-5.5008-2.4032-0.12546-0.0034806-0.2515-0.0043294-0.37701-0.0019538zm-6.9248 2.9991c-0.52086 0.040874-0.92253 0.47583-0.92201 0.99841v8.0029c-5.3764e-4 0.76839 0.82922 1.2505 1.4963 0.86946l7.001-4.0014c0.67387-0.38369 0.67387-1.3552 0-1.7389l-7.001-4.0014c-0.17417-0.099623-0.37427-0.14455-0.5743-0.12895zm7.2022 0c-0.32202-0.0080729-0.64619 0.015661-0.96693 0.070338-0.57022 0.097204-1.1318 0.29487-1.6565 0.59787-0.23974 0.13794-0.32201 0.44433-0.18362 0.68384 0.13858 0.23908 0.44474 0.32045 0.68369 0.18171 0.00969-0.0056 0.019585-0.010126 0.029301-0.015631 0.035166-0.019917 0.071857-0.035958 0.10744-0.054706 0.053991-0.028492 0.10736-0.058203 0.16213-0.084015 0.053493-0.025209 0.10797-0.047672 0.16213-0.070337 0.04483-0.018672 0.089499-0.037761 0.13478-0.054706 0.064665-0.024355 0.12995-0.045598 0.19534-0.06643 0.029949-0.00947 0.059758-0.018618 0.089857-0.027354 0.081827-0.023961 0.1635-0.045928 0.24613-0.064476h0.00195c0.00125-2.773e-4 0.00265 2.763e-4 0.00391 0 0.37051-0.082609 0.74658-0.1116 1.1193-0.087923 0.088326 0.00562 0.17604 0.013961 0.26371 0.0254 0.11554 0.015076 0.23001 0.035476 0.3438 0.060568 0.00125 2.747e-4 0.00265-2.759e-4 0.00391 0 0.00138 3.059e-4 0.00253 0.00165 0.00391 0.00196 0.10849 0.024152 0.21605 0.052816 0.32231 0.08597 0.00512 0.00159 0.010509 0.0023 0.015628 0.00391 0.00529 0.00167 0.010351 0.00417 0.015628 0.00587 0.094971 0.030482 0.1886 0.065938 0.28129 0.10355 0.021472 0.00867 0.043126 0.016355 0.064462 0.0254 0.079352 0.033819 0.15712 0.070366 0.23441 0.10941 0.03538 0.017786 0.070574 0.035831 0.10548 0.054706 0.058178 0.03161 0.11514 0.065028 0.1719 0.099645 0.05043 0.030609 0.10119 0.060807 0.15041 0.093784 0.04103 0.027598 0.08098 0.056742 0.12111 0.085968 0.06082 0.044127 0.12108 0.088898 0.17971 0.13677 0.02706 0.022151 0.05353 0.045448 0.08009 0.068384 0.06407 0.055193 0.12649 0.11215 0.18753 0.17194 0.02817 0.027634 0.05455 0.057372 0.08204 0.085969 0.04027 0.04185 0.08238 0.081112 0.12111 0.12505 0.01394 0.015813 0.02542 0.032866 0.03906 0.048845 0.0082 0.00955 0.01731 0.017722 0.02539 0.027354 0.0208 0.024796 0.03849 0.051038 0.0586 0.0762 0.05018 0.06287 0.09872 0.12637 0.14455 0.19148 0.02912 0.041224 0.05661 0.08302 0.084 0.12505 0.03266 0.05031 0.06556 0.10098 0.09571 0.1524 0.03738 0.063385 0.06995 0.12856 0.10353 0.19343 0.02255 0.043808 0.04755 0.086463 0.06837 0.13091 0.03449 0.07314 0.06395 0.1481 0.09376 0.22274 0.01018 0.025687 0.02357 0.050347 0.03321 0.076199 0.0014 0.00383 0.0025 0.00788 0.0039 0.011723 0.03426 0.092118 0.06263 0.18553 0.08985 0.2794 0.0046 0.015849 0.01127 0.030998 0.01563 0.046892 8.81e-4 0.00318 0.0011 0.00658 2e-3 0.00978 0.18728 0.6836 0.18927 1.4042 0.0059 2.0886-0.03072 0.11463-0.06632 0.22782-0.10744 0.33997-0.04062 0.11077-0.08597 0.2206-0.13674 0.32824-6.17e-4 0.00132-0.0013 0.00259-2e-3 0.00391-6e-3 0.012606-0.01343 0.024566-0.01954 0.037122-0.04355 0.08962-0.08806 0.1788-0.13869 0.26572-0.03247 0.05603-0.07008 0.10939-0.10548 0.16412-0.02391 0.03683-0.04507 0.07516-0.07032 0.11137-0.0032 0.0046-0.0065 0.0091-0.0098 0.01367-0.04035 0.05752-0.0852 0.11222-0.12892 0.16803-0.02736 0.03486-0.05143 0.07134-0.08009 0.10551-0.0075 0.0089-0.0159 0.01656-0.02344 0.0254-0.0076 0.0089-0.01381 0.0185-0.02149 0.02735-0.03565 0.04108-0.07435 0.07794-0.11134 0.11723-0.03639 0.03865-0.07177 0.07834-0.10939 0.11528-0.04759 0.0467-0.09704 0.0909-0.1465 0.13481-0.04493 0.03995-0.09035 0.07958-0.13674 0.11723-0.03336 0.02702-0.06751 0.05233-0.10158 0.07816-0.06579 0.04998-0.13292 0.09713-0.2012 0.14263-0.0268 0.01781-0.05293 0.03564-0.08009 0.05275-0.0676 0.04273-0.13542 0.08469-0.20511 0.12309-0.03916 0.02149-0.079397 0.04046-0.11916 0.06058-0.074833 0.03801-0.14981 0.07436-0.22659 0.10746-0.00587 0.0025-0.0117 0.0053-0.01758 0.0078-0.010796 0.0046-0.022377 0.0072-0.033208 0.01173-0.090149 0.03741-0.18111 0.07291-0.27348 0.10355-0.021544 0.0071-0.042813 0.01474-0.064462 0.02149-0.094101 0.02945-0.18932 0.05575-0.2852 0.07816-0.00524 0.0012-0.010386 0.0027-0.015627 0.0039-0.00648 0.0015-0.013048 0.0025-0.019534 0.0039-0.10858 0.02434-0.21796 0.04341-0.32817 0.05861-0.11416 0.01576-0.22854 0.02737-0.3438 0.03322-0.00259 1.32e-4 -0.00523-1.29e-4 -0.00781 0-0.00326 1.58e-4 -0.00651-1.52e-4 -0.00977 0-0.10679 0.0049-0.21321 0.0056-0.32036 2e-3 -0.015671-5.14e-4 -0.031212-0.0013-0.046882-2e-3 -0.099694-0.0046-0.19937-0.01329-0.29887-0.0254-0.018238-0.0022-0.036475-0.0034-0.054694-0.0059-0.092221-0.01253-0.18379-0.02976-0.27543-0.04885-0.031263-0.0064-0.062607-0.01233-0.093763-0.01954-0.087163-0.02036-0.17358-0.04394-0.2598-0.07034-0.024058-0.0073-0.048315-0.0137-0.072277-0.02149-0.075948-0.02484-0.15166-0.05245-0.22659-0.08206-0.051265-0.02017-0.10171-0.04206-0.15237-0.06447-0.056451-0.02504-0.11232-0.05226-0.16799-0.08011-0.048357-0.02416-0.096905-0.04797-0.14455-0.07425-0.023347-0.01282-0.047111-0.02366-0.070307-0.03706-0.23895-0.13875-0.54511-0.05737-0.68369 0.18171-0.13839 0.23951-0.05612 0.5459 0.18362 0.68384 2.0988 1.212 4.7732 0.74127 6.331-1.1156 1.5578-1.8569 1.5578-4.5751 0-6.432-0.94928-1.1316-2.3121-1.7489-3.7076-1.7839zm-7.1241 0.99841 7.001 4.0014-7.001 4.0014z" style="fill-opacity:.5;fill:currentColor"/>
</svg>
