<?xml version="1.0" encoding="UTF-8"?>
<!-- Created with Inkscape (http://www.inkscape.org/) -->
<svg width="16" height="16" version="1.1" xmlns="http://www.w3.org/2000/svg" xmlns:cc="http://creativecommons.org/ns#" xmlns:dc="http://purl.org/dc/elements/1.1/" xmlns:rdf="http://www.w3.org/1999/02/22-rdf-syntax-ns#">
	<defs>
		<style id="current-color-scheme" type="text/css">.ColorScheme-Text {color:#090d11;}.ColorScheme-Background{color:#ffffff;}</style>
	</defs>
	<metadata>
		<rdf:RDF>
			<cc:Work rdf:about="">
				<dc:format>image/svg+xml</dc:format>
				<dc:type rdf:resource="http://purl.org/dc/dcmitype/StillImage"/>
			</cc:Work>
		</rdf:RDF>
	</metadata>
	<path class="ColorScheme-Text" d="m8 1.0039c-1.7925 2e-7 -3.5845 0.68214-4.9492 2.0469-0.19521 0.19525-0.19521 0.51178 0 0.70703 0.19525 0.19521 0.51178 0.19521 0.70703 0 2.3473-2.3473 6.137-2.3473 8.4844 0 0.19525 0.19521 0.51178 0.19521 0.70703 0 0.19521-0.19525 0.19521-0.51178 0-0.70703-1.3647-1.3647-3.1567-2.0469-4.9492-2.0469zm-4.0918 3.9961c-0.42759 3.17e-5 -0.82025 0.077235-1.1758 0.23047-0.35555 0.1533-0.66039 0.36539-0.91602 0.63672-0.25562 0.27138-0.45554 0.58882-0.59961 0.95312-0.14407 0.36434-0.2168 0.7576-0.2168 1.1797 0 0.42213 0.072727 0.81538 0.2168 1.1797 0.14407 0.36434 0.34398 0.6818 0.59961 0.95312 0.25563 0.27139 0.56047 0.48349 0.91602 0.63672 0.35553 0.1533 0.74819 0.2305 1.1758 0.23047 0.42294 3.2e-5 0.81206-0.077172 1.1699-0.23047 0.35786-0.15323 0.66587-0.36533 0.92383-0.63672 0.18538-0.19501 0.34022-0.41514 0.4668-0.6582 0.13259 0.25345 0.29336 0.47914 0.48047 0.67773 0.25329 0.26885 0.5466 0.47678 0.87891 0.625 0.3323 0.14825 0.67849 0.22266 1.041 0.22266 0.1766 0 0.35584-0.01895 0.53711-0.05664 0.18125-0.03768 0.3768-0.09732 0.58594-0.17773l0.13867-0.05273v-1.7481c-0.34857 0.40203-0.74086 0.60353-1.1777 0.60352-0.19985 1.54e-5 -0.38468-0.040678-0.55664-0.12109-0.17196-0.080384-0.32336-0.19131-0.45117-0.33203-0.12781-0.1407-0.2268-0.30709-0.29883-0.49805-0.072042-0.19094-0.10742-0.39885-0.10742-0.625 0-0.2211 0.03538-0.42623 0.10742-0.61719 0.072027-0.19094 0.17138-0.35593 0.29688-0.49414 0.12548-0.13818 0.27492-0.24771 0.44922-0.32812 0.17428-0.080385 0.36387-0.12108 0.56836-0.12109 0.46477 1.59e-5 0.85388 0.20988 1.1699 0.62695v-1.7637c-0.2231-0.10048-0.43455-0.1749-0.63672-0.22266-0.20217-0.047736-0.40804-0.072266-0.61719-0.072266-0.36717 0-0.71811 0.07442-1.0527 0.22266-0.33464 0.14825-0.62952 0.35338-0.88281 0.61719-0.18803 0.19585-0.34683 0.42064-0.47852 0.67188-0.12533-0.23783-0.27889-0.453-0.46094-0.64453-0.25796-0.27133-0.56596-0.48342-0.92383-0.63672-0.35786-0.15323-0.74699-0.23044-1.1699-0.23047zm6.2227 3.9824c0.04635 0.58576 0.24624 1.0673 0.59766 1.4473 0.35141 0.37995 0.98379 0.57033 1.8965 0.57031 0.51978 1.6e-5 0.94937-0.08185 1.291-0.24414 0.34164-0.16226 0.60848-0.3989 0.79883-0.71289 0.19035-0.31397 0.28516-0.65725 0.28516-1.0293 0-0.31662-0.072094-0.60344-0.21484-0.85938-0.14276-0.25592-0.37001-0.46974-0.68359-0.64258-0.31358-0.17281-0.83383-0.3448-1.5586-0.51367-0.29285-0.065948-0.47662-0.13636-0.55469-0.21289-0.08055-0.07388-0.12111-0.15765-0.12109-0.25-1.6e-5 -0.12664 0.04885-0.23387 0.14648-0.32227 0.0976-0.08838 0.24276-0.1328 0.43555-0.13281 0.23428 1.59e-5 0.41779 0.059022 0.55078 0.17773 0.13299 0.11874 0.22022 0.30909 0.26172 0.57031l1.5625-0.097656c-0.068345-0.60158-0.28263-1.0407-0.64258-1.3164-0.35995-0.27571-0.88264-0.41405-1.5684-0.41406-0.55885 1.59e-5 -0.99942 0.076805-1.3203 0.22852-0.3209 0.15171-0.56086 0.35983-0.7207 0.625-0.15984 0.26517-0.24024 0.5456-0.24024 0.84375 0 0.45383 0.15639 0.82822 0.46875 1.1211 0.30991 0.29289 0.82941 0.52635 1.5566 0.70312 0.44412 0.10555 0.72759 0.21916 0.84961 0.33789 0.12202 0.11874 0.18164 0.25197 0.18164 0.40234 0 0.15833-0.0633 0.29792-0.19141 0.41797-0.12814 0.12006-0.31018 0.1797-0.54688 0.17969-0.31725 1.59e-5 -0.5616-0.11672-0.73242-0.35156-0.10494-0.14511-0.17483-0.35576-0.20898-0.63281zm-6.2227-2.5508c0.19985 1.59e-5 0.38943 0.039309 0.56836 0.11719 0.17893 0.07791 0.33556 0.18744 0.47266 0.32812 0.13711 0.14072 0.24521 0.3071 0.32422 0.49805 0.078997 0.19097 0.11914 0.3989 0.11914 0.625 0 0.22616-0.040144 0.43407-0.11914 0.625-0.079012 0.19097-0.1871 0.35736-0.32422 0.49805-0.1371 0.14073-0.29372 0.25026-0.47266 0.32812-0.17893 0.077909-0.3685 0.1172-0.56836 0.11719-0.19984 1.54e-5 -0.38943-0.039278-0.56836-0.11719-0.17895-0.077862-0.33594-0.18739-0.4707-0.32812-0.1348-0.14068-0.24132-0.30707-0.32031-0.49805-0.079012-0.19093-0.11914-0.39884-0.11914-0.625 0-0.2261 0.040129-0.43403 0.11914-0.625 0.078997-0.19094 0.18552-0.35733 0.32031-0.49805 0.13477-0.14068 0.29176-0.25022 0.4707-0.32812 0.17893-0.077878 0.36852-0.11717 0.56836-0.11719zm-0.50391 5.6641c-0.1326 2e-5 -0.25976 0.05271-0.35352 0.14648-0.19521 0.19525-0.19521 0.51178 0 0.70703 1.3126 1.3126 3.0929 2.0508 4.9492 2.0508s3.6366-0.73816 4.9492-2.0508c0.19521-0.19525 0.19521-0.51178 0-0.70703-0.19525-0.19521-0.51178-0.19521-0.70703 0-1.1254 1.1254-2.6507 1.7578-4.2422 1.7578-1.5915 0-3.1168-0.63246-4.2422-1.7578-0.093753-0.093773-0.22091-0.14646-0.35352-0.14648z" style="fill-opacity:.75;fill:currentColor"/>
	<path class="ColorScheme-Background" d="m8 0.0039062c-2.0484 6e-8 -4.0962 0.77984-5.6562 2.3398-0.19521 0.19525-0.19521 0.51178 0 0.70703 0.19525 0.19521 0.51178 0.19521 0.70703 0 2.7379-2.7379 7.1606-2.7379 9.8984 0 0.19525 0.19521 0.51178 0.19521 0.70703 0 0.19521-0.19525 0.19521-0.51178 0-0.70703-1.56-1.56-3.6078-2.3398-5.6562-2.3398zm-4.0918 3.9961c-0.54791 4.06e-5 -1.0831 0.10166-1.5723 0.3125-0.47265 0.20379-0.89868 0.49831-1.248 0.86914-0.34408 0.36528-0.61343 0.79772-0.80078 1.2715-0.19224 0.48615-0.28711 1.0099-0.28711 1.5469 0 0.53699 0.094862 1.0607 0.28711 1.5469 0.18735 0.4738 0.45664 0.9062 0.80078 1.2715 0.3494 0.37095 0.77529 0.66539 1.248 0.86914 0.48926 0.21096 1.0243 0.31254 1.5723 0.3125 0.54468 4.1e-5 1.0771-0.10179 1.5645-0.31055 0.37272-0.15959 0.68464-0.4165 0.98633-0.68164 0.29384 0.26648 0.60031 0.52274 0.96094 0.68359 0.4546 0.20281 0.94986 0.30859 1.4492 0.30859 0.24812 0 0.49571-0.02727 0.74023-0.07813 0.24543-0.05102 0.49028-0.12555 0.73828-0.2207l0.0039-2e-3 0.13477-0.05078c0.04471-0.05183 0.08398-0.10812 0.11719-0.16797 0.57889 0.33537 1.2456 0.51954 2.0215 0.51953 0.62479 1.9e-5 1.2033-0.09603 1.7207-0.3418 0.49971-0.23734 0.93495-0.61985 1.2246-1.0977 0.28156-0.46436 0.42969-1.0049 0.42969-1.5468 0-0.46842-0.114-0.93729-0.3418-1.3457-0.046333-0.083059-0.1456-0.11721-0.20117-0.19336 0.25416-0.20897 0.38926-0.52958 0.36133-0.85742-0.088649-0.78029-0.4146-1.5252-1.0293-1.9961-0.60276-0.46169-1.3556-0.62107-2.1758-0.62109-0.65044 1.85e-5 -1.2253 0.077065-1.748 0.32422-0.0935 0.044205-0.14187 0.149-0.23047 0.20312-0.02704-0.050784-0.0584-0.09914-0.09375-0.14453-0.27025-0.12172-0.53983-0.21788-0.81641-0.2832-0.27537-0.065018-0.56032-0.099609-0.84766-0.099609-0.50229 0-0.999 0.10569-1.457 0.30859-0.36259 0.16063-0.67393 0.41197-0.9707 0.67773-0.29959-0.26162-0.60746-0.51767-0.97656-0.67578-0.48726-0.20864-1.0199-0.31051-1.5645-0.31055zm0 1c0.42294 3.17e-5 0.81206 0.077235 1.1699 0.23047 0.35786 0.1533 0.66587 0.36539 0.92383 0.63672 0.18204 0.19153 0.3356 0.4067 0.46094 0.64453 0.13168-0.25123 0.29049-0.47603 0.47852-0.67188 0.25329-0.26381 0.54818-0.46894 0.88281-0.61719 0.33462-0.14824 0.68557-0.22266 1.0527-0.22266 0.20914 0 0.41501 0.02453 0.61719 0.072266 0.20217 0.047752 0.41362 0.12217 0.63672 0.22266v1.7637c-0.31605-0.41707-0.70515-0.62694-1.1699-0.62695-0.20449 1.59e-5 -0.39408 0.040709-0.56836 0.12109-0.1743 0.080416-0.32374 0.18995-0.44922 0.32812-0.12549 0.13821-0.22485 0.3032-0.29688 0.49414-0.072042 0.19096-0.10742 0.39609-0.10742 0.61719 0 0.22615 0.03538 0.43406 0.10742 0.625 0.072027 0.19096 0.17102 0.35735 0.29883 0.49805 0.12781 0.14072 0.27921 0.25165 0.45117 0.33203 0.17196 0.080416 0.35679 0.12111 0.55664 0.12109 0.43688 1.54e-5 0.82916-0.20148 1.1777-0.60352v0.017578l1.5781-0.10742c0.03416 0.27705 0.10405 0.4877 0.20898 0.63281 0.17082 0.23484 0.41517 0.35158 0.73242 0.35156 0.2367 1.59e-5 0.41874-0.059626 0.54688-0.17969 0.12811-0.12005 0.19141-0.25964 0.19141-0.41797 0-0.15038-0.05962-0.2836-0.18164-0.40234-0.12202-0.11873-0.40549-0.23235-0.84961-0.33789-0.72723-0.17678-1.2467-0.41024-1.5566-0.70312-0.31236-0.29287-0.46875-0.66726-0.46875-1.1211 0-0.29815 0.08039-0.57858 0.24024-0.84375 0.15984-0.26517 0.3998-0.47329 0.7207-0.625 0.32089-0.15171 0.76146-0.2285 1.3203-0.22852 0.68572 1.59e-5 1.2084 0.13836 1.5684 0.41406 0.35995 0.27574 0.57423 0.71483 0.64258 1.3164l-1.5625 0.097656c-0.041495-0.26122-0.12873-0.45157-0.26172-0.57031-0.13299-0.11871-0.3165-0.17772-0.55078-0.17773-0.19278 1.59e-5 -0.33795 0.044433-0.43555 0.13281-0.09763 0.088396-0.1465 0.19562-0.14648 0.32227-1.6e-5 0.092346 0.04054 0.17612 0.12109 0.25 0.07807 0.076529 0.26184 0.14694 0.55469 0.21289 0.72476 0.16888 1.245 0.34086 1.5586 0.51367 0.31358 0.17284 0.54083 0.38665 0.68359 0.64258 0.14275 0.25594 0.21484 0.54275 0.21484 0.85938 0 0.37205-0.09481 0.71532-0.28516 1.0293-0.19035 0.31399-0.45719 0.55063-0.79883 0.71289-0.34165 0.16229-0.77124 0.24416-1.291 0.24414-0.91269 1.6e-5 -1.5451-0.19036-1.8965-0.57031-0.35141-0.37995-0.55131-0.86151-0.59766-1.4473v1.7305l-0.13867 0.05273c-0.20914 0.080418-0.40469 0.14006-0.58594 0.17774-0.18126 0.03769-0.36051 0.056641-0.53711 0.056641-0.36253 0-0.70871-0.074405-1.041-0.22266-0.3323-0.14822-0.62561-0.35615-0.87891-0.625-0.18711-0.1986-0.34788-0.42428-0.48047-0.67773-0.12657 0.24306-0.28142 0.46319-0.4668 0.6582-0.25796 0.27139-0.56596 0.48349-0.92383 0.63672-0.35786 0.1533-0.74699 0.2305-1.1699 0.23047-0.42759 3.2e-5 -0.82025-0.077172-1.1758-0.23047-0.35555-0.15323-0.66039-0.36533-0.91602-0.63672-0.25562-0.27133-0.45554-0.58878-0.59961-0.95312-0.14407-0.36431-0.2168-0.75755-0.2168-1.1797 0-0.42209 0.072727-0.81535 0.2168-1.1797 0.14407-0.36431 0.34398-0.68175 0.59961-0.95312 0.25563-0.27133 0.56047-0.48342 0.91602-0.63672 0.35553-0.15323 0.74819-0.23044 1.1758-0.23047zm0 1.4316c-0.19984 1.59e-5 -0.38943 0.03931-0.56836 0.11719-0.17895 0.07791-0.33594 0.18744-0.4707 0.32812-0.1348 0.14072-0.24132 0.3071-0.32031 0.49805-0.079012 0.19097-0.11914 0.3989-0.11914 0.625 0 0.22616 0.040129 0.43407 0.11914 0.625 0.078997 0.19097 0.18552 0.35736 0.32031 0.49805 0.13477 0.14073 0.29176 0.25026 0.4707 0.32812 0.17893 0.077909 0.36852 0.1172 0.56836 0.11719 0.19985 1.54e-5 0.38943-0.039278 0.56836-0.11719 0.17893-0.077862 0.33556-0.18739 0.47266-0.32812 0.13711-0.14068 0.24521-0.30707 0.32422-0.49805 0.078997-0.19093 0.11914-0.39884 0.11914-0.625 0-0.2261-0.040144-0.43403-0.11914-0.625-0.079012-0.19094-0.1871-0.35733-0.32422-0.49805-0.1371-0.14068-0.29372-0.25022-0.47266-0.32812-0.17893-0.077878-0.3685-0.11717-0.56836-0.11719zm0 1c0.068831 5.5e-6 0.11511 0.00935 0.16992 0.033203 0.060237 0.026228 0.10182 0.055522 0.1543 0.10938 0.045469 0.046663 0.082904 0.10074 0.11719 0.18359 0.026738 0.064639 0.042969 0.13446 0.042969 0.24219 0 0.10783-0.016268 0.17766-0.042969 0.24219-0.034282 0.082862-0.071792 0.13702-0.11719 0.18359-0.052435 0.053824-0.094214 0.08323-0.1543 0.10938-0.054736 0.023833-0.10119 0.033208-0.16992 0.033203-0.068708 5.3e-6 -0.1152-0.00938-0.16992-0.033203-0.060543-0.026343-0.10076-0.055771-0.14648-0.10352-0.044369-0.046307-0.08309-0.1023-0.11914-0.18945-0.026675-0.064459-0.042969-0.13432-0.042969-0.24219 0-0.10778 0.016256-0.17762 0.042969-0.24219 0.036052-0.087142 0.074698-0.14306 0.11914-0.18945 0.045765-0.047774 0.085787-0.077089 0.14648-0.10352 0.054789-0.023846 0.10112-0.033198 0.16992-0.033203zm5.0527 0c0.16376 5.6e-6 0.1981-4.062e-4 0.37305 0.23047 0.14183 0.086343 0.30292 0.13601 0.46875 0.14453 0.043342 0.084083 0.055082 0.17536 0.10742 0.25391-0.17045 0.035558-0.32866 0.115-0.45898 0.23047-0.025637 0.0055093-0.051047 0.012025-0.076172 0.019531-0.21365 0.24642-0.2925 0.25782-0.42188 0.25781-0.064065 4.9e-6 -0.09265-0.008562-0.13281-0.027344-0.056215-0.026278-0.095339-0.054249-0.13477-0.097656-0.036769-0.040477-0.070566-0.092331-0.10352-0.17969-0.025579-0.067795-0.042969-0.14964-0.042969-0.27148 0-0.11442 0.016243-0.19283 0.042969-0.26367 0.031987-0.084796 0.06574-0.13633 0.10156-0.17578 0.036636-0.040344 0.068861-0.064994 0.12695-0.091797 0.040373-0.018622 0.078517-0.029291 0.15039-0.029297zm-6.2637 5.3711c-0.1326 2e-5 -0.25976 0.05271-0.35352 0.14648-0.19521 0.19525-0.19521 0.51178 0 0.70703 1.5002 1.5002 3.5347 2.3438 5.6562 2.3438 2.1215 0 4.1561-0.8436 5.6562-2.3438 0.19521-0.19525 0.19521-0.51178 0-0.70703-0.19525-0.19521-0.51178-0.19521-0.70703 0-1.3129 1.3129-3.0925 2.0508-4.9492 2.0508-1.8567 0-3.6363-0.73789-4.9492-2.0508-0.093753-0.093773-0.22091-0.14646-0.35352-0.14648z" style="fill-opacity:.5;fill:currentColor"/>
</svg>
