<?xml version="1.0" encoding="UTF-8"?>
<svg id="g" width="16" height="16" version="1.1" xmlns="http://www.w3.org/2000/svg" xmlns:cc="http://creativecommons.org/ns#" xmlns:dc="http://purl.org/dc/elements/1.1/" xmlns:rdf="http://www.w3.org/1999/02/22-rdf-syntax-ns#">
	<metadata id="a">
		<rdf:RDF>
			<cc:Work rdf:about="">
				<dc:format>image/svg+xml</dc:format>
				<dc:type rdf:resource="http://purl.org/dc/dcmitype/StillImage"/>
			</cc:Work>
		</rdf:RDF>
	</metadata>
	<defs>
		<style id="current-color-scheme" type="text/css">.ColorScheme-Text {color:#090d11;}.ColorScheme-Background{color:#ffffff;}</style>
	</defs>
	<path class="ColorScheme-Text" d="m6.7285 1c-1.3071 0.020568-2.5108 0.4969-3.4023 1.4551-0.65037 0.69893-1.0621 1.576-1.2441 2.5449h2.3535c0.17644-0.58704 0.46752-1.1222 0.88086-1.5664 0.70043-0.75216 1.6397-1.1333 2.6543-1.1621 1.0733-0.030458 2.231 0.33486 3.2812 1.0664-0.15593 0.17625-0.25195 0.40719-0.25195 0.66211v1c0 0.554 0.446 1 1 1h1c0.18184 0 0.35143-0.048661 0.49805-0.13281 0.9329 1.7264 1.0843 3.6732 0.37695 5.1367-0.02545-0.001923-0.050213-0.003906-0.076172-0.003906h-0.79883c-0.554 0-1 0.446-1 1v0.80859c-1.7599 0.73955-4.1132 0.10035-5.8477-1.7637-0.49581-0.53283-0.89696-1.1194-1.2031-1.7305 0.032404-0.098679 0.050781-0.20466 0.050781-0.31445v-2c0-0.46882-0.31995-0.85945-0.75391-0.96875 7.715e-4 -0.010571 0.003071-0.020697 0.0039062-0.03125h-2.2734c-1.94e-5 6.545e-4 1.92e-5 0.0012986 0 0.0019531-0.54285 0.012629-0.97656 0.45205-0.97656 0.99805v2c0 0.554 0.446 1 1 1h0.92578c0.40451 0.79998 0.93574 1.5707 1.5879 2.2715 2.7086 2.9108 6.5339 3.5675 8.791 1.6016h0.49414c0.554 0 1-0.446 1-1v-0.87305c0-0.1282-0.024779-0.25084-0.068359-0.36328 0.56116-1.815 0.2317-4.0566-0.91211-6.0625 0.11384-0.16239 0.18164-0.35999 0.18164-0.57422v-1c0-0.554-0.446-1-1-1h-1c-0.08924 0-0.17559 0.01147-0.25781 0.033203-1.5533-1.3606-3.3647-2.0591-5.0137-2.0332z" style="fill-opacity:.75;fill:currentColor"/>
	<path class="ColorScheme-Background" d="m6.7129 0c-1.5403 0.024237-3.0344 0.60765-4.1191 1.7734-0.91887 0.98747-1.3566 2.2709-1.5039 3.6094-0.60698 0.34583-1.0898 0.87897-1.0898 1.6172v2c0 1.0907 0.9093 2 2 2h0.41602c0.39585 0.67606 0.80565 1.3518 1.3652 1.9531 1.4887 1.5998 3.3023 2.6061 5.1211 2.9316 1.6326 0.29222 3.2515-0.08191 4.5742-1.0117h0.32227c1.0907 0 2-0.9093 2-2v-0.87305c0-0.16425-0.050731-0.31116-0.08789-0.46289 0.47496-1.9193 0.14378-4.0537-0.87109-6.0293 0.049409-0.17381 0.16016-0.31984 0.16016-0.50781v-1c0-1.0907-0.9093-2-2-2h-1c-0.01465 0-0.028349 0.0055394-0.042969 0.0058594-1.6218-1.2785-3.4575-2.034-5.2441-2.0059zm0.015625 1c1.6489-0.025946 3.4603 0.67262 5.0137 2.0332 0.08222-0.021733 0.16857-0.033203 0.25781-0.033203h1c0.554 0 1 0.446 1 1v1c0 0.21423-0.0678 0.41183-0.18164 0.57422 1.1438 2.0059 1.4733 4.2475 0.91211 6.0625 0.04358 0.11244 0.068359 0.23508 0.068359 0.36328v0.87305c0 0.554-0.446 1-1 1h-0.49414c-2.2571 1.9659-6.0824 1.3092-8.791-1.6016-0.65215-0.70083-1.1834-1.4715-1.5879-2.2715h-0.92578c-0.554 0-1-0.446-1-1v-2c0-0.546 0.43371-0.98542 0.97656-0.99805 1.92e-5 -6.545e-4 -1.94e-5 -0.0012986 0-0.0019531h2.2734c-8.352e-4 0.010553-0.0031347 0.020679-0.0039062 0.03125 0.43395 0.1093 0.75391 0.49993 0.75391 0.96875v2c0 0.10979-0.018378 0.21577-0.050781 0.31445 0.30616 0.61109 0.70731 1.1976 1.2031 1.7305 1.7345 1.864 4.0878 2.5032 5.8477 1.7637v-0.80859c0-0.554 0.446-1 1-1h0.79883c0.02596 0 0.050722 0.002006 0.076172 0.003906 0.70733-1.4635 0.55594-3.4103-0.37695-5.1367-0.14662 0.084152-0.3162 0.13281-0.49805 0.13281h-1c-0.554 0-1-0.446-1-1v-1c0-0.25492 0.09602-0.48585 0.25195-0.66211-1.0502-0.73155-2.2079-1.0969-3.2812-1.0664-1.0145 0.028789-1.9539 0.40995-2.6543 1.1621-0.41333 0.44424-0.70442 0.97937-0.88086 1.5664h-2.3535c0.18206-0.96891 0.59377-1.846 1.2441-2.5449 0.89156-0.95818 2.0952-1.4345 3.4023-1.4551zm1.2715 2.2715c0.624-0.017707 1.3325 0.32222 2.0234 0.66992-7.67e-4 0.022387-0.023438 0.036058-0.023438 0.058594v1c0 1.0907 0.9093 2 2 2h0.81641c0.42379 1.0774 0.5017 2.1191 0.25195 3h-0.068359c-1.0513 0-1.8947 0.86064-1.957 1.8984-1.2483 0.25242-2.8416-0.12023-4.1582-1.5352-0.3702-0.39784-0.64905-0.83978-0.89648-1.2891 0.0010196-0.025894 0.011719-0.048029 0.011719-0.074219v-2c0-0.52616-0.24053-0.97185-0.58008-1.332 0.11905-0.58283 0.26076-1.1571 0.62891-1.5527 0.51138-0.54915 1.1693-0.82156 1.9512-0.84375z" style="fill-opacity:.5;fill:currentColor"/>
</svg>
