<?xml version="1.0" encoding="UTF-8"?>
<!-- Created with Inkscape (http://www.inkscape.org/) -->
<svg width="16" height="16" version="1.1" xmlns="http://www.w3.org/2000/svg" xmlns:cc="http://creativecommons.org/ns#" xmlns:dc="http://purl.org/dc/elements/1.1/" xmlns:rdf="http://www.w3.org/1999/02/22-rdf-syntax-ns#">
	<defs>
		<style id="current-color-scheme" type="text/css">.ColorScheme-Text {
			color:#090d11;
			}
			.ColorScheme-Background{
			color:#ffffff;
			}</style>
	</defs>
	<metadata>
		<rdf:RDF>
			<cc:Work rdf:about="">
				<dc:format>image/svg+xml</dc:format>
				<dc:type rdf:resource="http://purl.org/dc/dcmitype/StillImage"/>
			</cc:Work>
		</rdf:RDF>
	</metadata>
	<path class="ColorScheme-Background" d="m8 0c-4.4064 0-8 3.5936-8 8s3.5936 8 8 8 8-3.5936 8-8-3.5936-8-8-8zm0 1c3.866 0 7 3.134 7 7 0 3.866-3.134 7-7 7-3.866 0-7-3.134-7-7 0-3.866 3.134-7 7-7zm0 1.75c-1.5332 0-2.9133 0.65699-3.873 1.7051l1.7832 1.7832c0.50148-0.59445 1.2512-0.97266 2.0898-0.97266 1.5102 0 2.7344 1.2242 2.7344 2.7344h-1.2031l2.4062 2.4062 2.4062-2.4062h-1.0938c0-2.8995-2.3505-5.25-5.25-5.25zm0 1c2.3591 0 4.25 1.8909 4.25 4.25 0.08397 0.13922 0.20062 0.25587 0.33984 0.33984l-0.65234 0.65234-0.59766-0.59766c0.16628-0.09142 0.30311-0.22826 0.39453-0.39453 0-2.0506-1.6838-3.7344-3.7344-3.7344-0.74658 0-1.4017 0.27887-1.9883 0.66016l-0.36328-0.36328c0.68213-0.46951 1.4555-0.8125 2.3516-0.8125zm-3.9375 1.8438-2.4062 2.4062h1.0938c0 2.8995 2.3505 5.25 5.25 5.25 1.5332 0 2.9133-0.65699 3.873-1.7051l-1.7832-1.7832c-0.50149 0.59445-1.2512 0.97266-2.0898 0.97266-1.5102 0-2.7344-1.2242-2.7344-2.7344h1.2031zm0 1.4141 0.59766 0.59766c-0.16627 0.09142-0.30311 0.22826-0.39453 0.39453 0 2.0506 1.6838 3.7344 3.7344 3.7344 0.74658 0 1.4017-0.27887 1.9883-0.66016l0.36328 0.36328c-0.68213 0.46951-1.4555 0.8125-2.3516 0.8125-2.3591 0-4.25-1.8909-4.25-4.25-0.083973-0.13922-0.20062-0.25587-0.33984-0.33984z" style="fill-opacity:.5;fill:currentColor"/>
	<path class="ColorScheme-Text" d="m8 1c-3.866 0-7 3.134-7 7 0 3.866 3.134 7 7 7 3.866 0 7-3.134 7-7 0-3.866-3.134-7-7-7zm0 1.75c2.8995 0 5.25 2.3505 5.25 5.25h1.0938l-2.4062 2.4062-2.4062-2.4062h1.2031c0-1.5102-1.2242-2.7344-2.7344-2.7344-0.83863 0-1.5884 0.3782-2.0898 0.97266l-1.7832-1.7832c0.95977-1.0481 2.3399-1.7051 3.873-1.7051zm-3.9375 2.8438 2.4062 2.4062h-1.2031c0 1.5102 1.2242 2.7344 2.7344 2.7344 0.83863 0 1.5884-0.3782 2.0898-0.97266l1.7832 1.7832c-0.95976 1.0481-2.3399 1.7051-3.873 1.7051-2.8995 0-5.25-2.3505-5.25-5.25h-1.0938z" style="fill-opacity:.75;fill:currentColor"/>
</svg>
