<?xml version="1.0" encoding="UTF-8"?>
<!-- Created with Inkscape (http://www.inkscape.org/) -->
<svg width="16" height="16" version="1.1" xmlns="http://www.w3.org/2000/svg" xmlns:cc="http://creativecommons.org/ns#" xmlns:dc="http://purl.org/dc/elements/1.1/" xmlns:rdf="http://www.w3.org/1999/02/22-rdf-syntax-ns#" xmlns:xlink="http://www.w3.org/1999/xlink">
	<defs>
		<linearGradient id="i" x1="18.01" x2="72.5" y1="65.76" y2="65.76" gradientTransform="matrix(1.018 0 0 .9602 5.524 -18.77)" gradientUnits="userSpaceOnUse">
			<stop stop-color="#ffffff" offset="0"/>
			<stop stop-color="#ffffff" offset="1"/>
		</linearGradient>
		<radialGradient id="c" cx="68" cy="-117.3" r="28" gradientTransform="matrix(.9904 0 0 1.664 16.25 75.51)" gradientUnits="userSpaceOnUse">
			<stop stop-color="#ffffff" offset="0"/>
			<stop stop-color="#ffffff" stop-opacity="0" offset="1"/>
		</radialGradient>
		<linearGradient id="e" x1="38.88" x2="90.41" y1="67.53" y2="67.53" gradientTransform="matrix(.5115 0 0 .7714 67.77 6.629)" gradientUnits="userSpaceOnUse" xlink:href="#a"/>
		<linearGradient id="f" x1="11.54" x2="10.88" y1="3.438" y2="5.901" gradientTransform="matrix(5.468,0,0,5.821,24.29,-2.066)" gradientUnits="userSpaceOnUse">
			<stop stop-color="#ffffff" offset="0"/>
			<stop stop-color="#ffffff" stop-opacity="0" offset="1"/>
		</linearGradient>
		<linearGradient id="g" x1="38.88" x2="90.41" y1="67.53" y2="67.53" gradientTransform="matrix(.5115 0 0 .9611 67.77 4.832)" gradientUnits="userSpaceOnUse" xlink:href="#a"/>
		<linearGradient id="h" x1="38.88" x2="90.41" y1="67.53" y2="67.53" gradientTransform="matrix(.5115 0 0 1.806 68.03 -6.098)" gradientUnits="userSpaceOnUse" xlink:href="#a"/>
		<linearGradient id="a">
			<stop stop-color="#ffffff" offset="0"/>
			<stop stop-color="#ffffff" stop-opacity="0" offset="1"/>
		</linearGradient>
		<radialGradient id="d" cx="7.449" cy="6.531" r="9.555" gradientTransform="matrix(.8573 0 0 .8324 -2.573 -1.245)" gradientUnits="userSpaceOnUse">
			<stop stop-color="#ffffff" stop-opacity=".7486" offset="0"/>
			<stop stop-color="#ffffff" stop-opacity=".6051" offset="1"/>
		</radialGradient>
		<radialGradient id="b" cx="8.861" cy="10.67" r="7.335" gradientTransform="matrix(1 0 0 .9674 0 .2596)" gradientUnits="userSpaceOnUse">
			<stop stop-color="#213851" stop-opacity=".9059" offset="0"/>
			<stop stop-color="#27303a" stop-opacity="0" offset="1"/>
		</radialGradient>
	</defs>
	<metadata>
		<rdf:RDF>
			<cc:Work rdf:about="">
				<dc:format>image/svg+xml</dc:format>
				<dc:type rdf:resource="http://purl.org/dc/dcmitype/StillImage"/>
				<dc:title/>
			</cc:Work>
		</rdf:RDF>
	</metadata>
	<g id="WhiteBackgroundLayer" transform="translate(478.6,-1874)" display="none">
		<rect id="Background" x="3.854" y="-7.952" width="55.45" height="104.6" rx="2.194" ry="1.959" fill="url(#i)" opacity=".699"/>
	</g>
	<g id="Overlay" transform="translate(446.8,-1897)" display="none">
		<rect id="spacerover" x="1.039e-6" y="-.05473" width="128.1" height="127.8" fill="none"/>
		<rect x="70.72" y="16.67" width="13.17" height="102.9" rx="0" ry="0" fill="url(#g)" opacity=".2254"/>
		<rect x="70.72" y="16.13" width="13.17" height="31.86" rx="0" ry="0" fill="url(#e)" opacity=".2254"/>
		<path d="m60.85 17.94c-0.5206 0-0.8543 0.5371-0.8543 1.091v3.092c10.89 18.63 33.21 8.369 48.52 5.093v-8.185c0-0.5542-0.3337-1.091-0.8543-1.091h-46.82z" fill="url(#f)" opacity=".4836"/>
		<rect x="70.98" y="16.16" width="13.17" height="71.84" rx="0" ry="0" fill="url(#h)" opacity=".2254"/>
		<rect transform="scale(1,-1)" x="40.87" y="-119.7" width="55.46" height="61.21" rx="2.096" ry="1.939" fill="url(#c)" opacity=".41"/>
	</g>
	<path d="m0.942 11.33c2.081 1.565 5.239-0.2595 6.582-0.9739 2.631-1.399 3.028 0.3569 3.388 0.5988 0.558 0.4773-1.376 1.986-1.267 3.049 0.06001 0.5901 0.1427 1.059 0.1427 1.059 0.2455-8.7e-5 3.043-1.395 2.958-2.78 1.131 0.6371 1.373-0.3776 2.685-0.1754-0.1854-0.2819-0.4247-0.7017-0.9396-0.9216-0.5483-0.2053-1.475-0.1767-1.716-0.8753-0.04398-0.79-0.03198-5.004-1.943-6.293-0.2791-0.5612 0.02212-1.361 0.5652-1.907 0.4911-0.494 1.229-0.949 1.481-1.239-1.143-0.012-2.302 0.3103-3.397 0.9473-0.8684 0.5052-1.093 0.9559-1.456 1.125-3.276-0.6484-6.886 2.051-7.251 6.786-0.02941 0.3822-0.02358 1.481 0.1658 1.6z" enable-background="new" fill="#0c1218" fill-opacity=".7203" fill-rule="evenodd" style="font-variant-east_asian:normal;paint-order:normal"/>
	<path d="m0.942 11.33c2.081 1.565 5.239-0.2595 6.582-0.9739 2.631-1.399 3.028 0.3569 3.388 0.5988 0.558 0.4773-1.376 1.986-1.267 3.049 0.06001 0.5901 0.1427 1.059 0.1427 1.059 0.2455-8.7e-5 3.043-1.395 2.958-2.78 1.131 0.6371 1.373-0.3776 2.685-0.1754-0.1854-0.2819-0.4247-0.7017-0.9396-0.9216-0.5483-0.2053-1.475-0.1767-1.716-0.8753-0.04398-0.79-0.03198-5.004-1.943-6.293-0.2791-0.5612 0.02212-1.361 0.5652-1.907 0.4911-0.494 1.229-0.949 1.481-1.239-1.143-0.012-2.302 0.3103-3.397 0.9473-0.8684 0.5052-1.093 0.9559-1.456 1.125-3.276-0.6484-6.886 2.051-7.251 6.786-0.02941 0.3822-0.02358 1.481 0.1658 1.6z" enable-background="new" fill="url(#b)" fill-rule="evenodd" style="font-variant-east_asian:normal;paint-order:normal"/>
	<path d="m12.89-0.1289c-1.338-0.01405-2.677 0.3663-3.91 1.084-0.9822 0.5714-1.373 1.036-1.314 1.035-3.752-0.3794-7.502 2.702-7.885 7.664-0.02072 0.2692-0.02513 0.6439 0 1.039 0.01257 0.1976 0.03003 0.3918 0.07422 0.5996 0.02209 0.1039 0.04804 0.2104 0.1074 0.3477 0.05574 0.1288 0.1528 0.3174 0.4238 0.5039l0.001953 0.001953c0.01667 0.01141 0.007153 0.01986 0.02539 0.03125a1 1 0 0 0 0.1426 0.07227c-0.05417-0.03564-0.1107-0.06263-0.1641-0.1016l0.4238 0.1738a1 1 0 0 1-0.2598-0.07227c1.343 0.8834 2.929 0.782 4.23 0.4082 1.369-0.3932 2.562-1.074 3.209-1.418 1.144-0.6083 1.403-0.4411 1.547-0.3516 0.07192 0.04475 0.1532 0.1283 0.252 0.2637 0.01824 0.025 0.08954 0.08893 0.1035 0.1172-0.07198 0.1183-0.1321 0.2231-0.2676 0.416-0.398 0.5666-1.099 1.244-0.9785 2.42 0.06398 0.6291 0.1523 1.131 0.1523 1.131a1 1 0 0 0 0.9863 0.8262c0.2519-8.9e-5 0.2958-0.03714 0.3711-0.06055 0.07529-0.02341 0.1384-0.04808 0.207-0.07617 0.1373-0.05618 0.2881-0.1277 0.457-0.2148 0.3379-0.1743 0.7446-0.4118 1.154-0.709 0.4097-0.2972 0.8223-0.648 1.164-1.086 0.1008-0.1292 0.09164-0.3485 0.1777-0.5 0.438 0.02004 0.8353-0.03492 1.076-0.1328 0.4314-0.1753 0.4851-0.2488 0.8828-0.1875a1 1 0 0 0 0.9863-1.539c-0.152-0.231-0.5461-0.9345-1.381-1.291a1 1 0 0 0-0.04297-0.01758c-0.4618-0.1729-0.818-0.203-1.02-0.2676-0.05486-0.01757-0.06305-0.01688-0.07422-0.01758 1.38e-4 0.003998-1.39e-4 0.01564 0 0.01953-0.01178-0.01199-0.01881-0.02071 0-0.01953-0.01522-0.4398-0.02582-1.509-0.2617-2.793-0.2368-1.288-0.6437-2.748-1.742-3.701-1.45e-4 0.03341-0.01136 0.1121-0.01562 0.1035l-0.3379-0.3848c0.1279 0.08623 0.2409 0.1835 0.3535 0.2812 1.47e-4 -0.03403-0.01059-0.0236 0.01562-0.1055 0.05195-0.1623 0.183-0.3813 0.3477-0.5469 0.1774-0.1784 0.4526-0.3983 0.7266-0.6074s0.5263-0.3674 0.7988-0.6797a1 1 0 0 0-0.7441-1.658zm-0.009766 1c-0.2529 0.2898-0.9913 0.7463-1.482 1.24-0.5431 0.5461-0.8435 1.345-0.5645 1.906 1.911 1.289 1.899 5.503 1.943 6.293 0.2409 0.6986 1.167 0.6697 1.715 0.875 0.5149 0.2199 0.756 0.64 0.9414 0.9219-1.312-0.2022-1.555 0.8128-2.686 0.1758 0.08573 1.385-2.713 2.779-2.959 2.779 0 0-0.08257-0.4685-0.1426-1.059-0.1089-1.062 1.826-2.572 1.268-3.049-0.3601-0.2419-0.7576-1.999-3.389-0.5996-1.343 0.7144-4.501 2.539-6.582 0.9746-0.1894-0.1183-0.1954-1.217-0.166-1.6 0.3652-4.736 3.976-7.435 7.252-6.787 0.3626-0.1689 0.5866-0.6198 1.455-1.125 1.095-0.6371 2.254-0.9593 3.396-0.9473zm-2.652 10.77c0.06533 0.0598 0.01814 0.07011 0.1289 0.1445l-0.09375-0.07031c-0.01939-0.01658-0.01709-0.0523-0.03516-0.07422z" color="#000000" color-rendering="auto" dominant-baseline="auto" enable-background="new" fill="url(#d)" fill-opacity=".9986" fill-rule="evenodd" image-rendering="auto" shape-rendering="auto" solid-color="#000000" style="font-feature-settings:normal;font-variant-alternates:normal;font-variant-caps:normal;font-variant-east_asian:normal;font-variant-ligatures:normal;font-variant-numeric:normal;font-variant-position:normal;isolation:auto;mix-blend-mode:normal;paint-order:normal;shape-padding:0;text-decoration-color:#000000;text-decoration-line:none;text-decoration-style:solid;text-indent:0;text-orientation:mixed;text-transform:none;white-space:normal"/>
</svg>
