<?xml version="1.0" encoding="UTF-8"?>
<svg id="c" width="16" height="16" version="1.1" xmlns="http://www.w3.org/2000/svg" xmlns:cc="http://creativecommons.org/ns#" xmlns:dc="http://purl.org/dc/elements/1.1/" xmlns:rdf="http://www.w3.org/1999/02/22-rdf-syntax-ns#">
	<metadata id="a">
		<rdf:RDF>
			<cc:Work rdf:about="">
				<dc:format>image/svg+xml</dc:format>
				<dc:type rdf:resource="http://purl.org/dc/dcmitype/StillImage"/>
				<dc:title/>
			</cc:Work>
		</rdf:RDF>
	</metadata>
	<defs id="e">
		<style id="current-color-scheme" type="text/css">.ColorScheme-Text{color:#090d11;}.ColorScheme-Background{color:#ffffff;}</style>
	</defs>
	<path id="d" class="ColorScheme-Text" d="m1.5156 4c-0.28515 0-0.51562 0.23048-0.51562 0.51562v6.9688c0 0.28515 0.23048 0.51562 0.51562 0.51562h12.969c0.28515 0 0.51562-0.23048 0.51562-0.51562v-6.9688c0-0.28515-0.23048-0.51562-0.51562-0.51562zm2.4844 3c0.55229 0 1 0.44771 1 1s-0.44771 1-1 1-1-0.44771-1-1 0.44771-1 1-1zm4 0c0.55229 0 1 0.44771 1 1s-0.44771 1-1 1-1-0.44771-1-1 0.44771-1 1-1zm4 0c0.55229 0 1 0.44771 1 1s-0.44771 1-1 1-1-0.44771-1-1 0.44771-1 1-1z" style="fill-opacity:.75;fill:currentColor"/>
	<path id="b" class="ColorScheme-Background" d="m1.5 3c-0.82235 0-1.5 0.67765-1.5 1.5v7c0 0.82235 0.67765 1.5 1.5 1.5h13c0.82235 0 1.5-0.67765 1.5-1.5v-7c0-0.82235-0.67765-1.5-1.5-1.5zm0 1h13c0.28565 0 0.5 0.21435 0.5 0.5v7c0 0.28565-0.21435 0.5-0.5 0.5h-13c-0.28565 0-0.5-0.21435-0.5-0.5v-7c0-0.28565 0.21435-0.5 0.5-0.5zm2.5 3c-0.55229 0-1 0.44771-1 1s0.44771 1 1 1 1-0.44771 1-1-0.44771-1-1-1zm4 0c-0.55229 0-1 0.44771-1 1s0.44771 1 1 1 1-0.44771 1-1-0.44771-1-1-1zm4 0c-0.55229 0-1 0.44771-1 1s0.44771 1 1 1 1-0.44771 1-1-0.44771-1-1-1z" style="fill-opacity:.5;fill:currentColor"/>
</svg>
