<?xml version="1.0" encoding="UTF-8"?>
<!-- Created with Inkscape (http://www.inkscape.org/) -->
<svg width="16" height="16" version="1.1" xmlns="http://www.w3.org/2000/svg" xmlns:cc="http://creativecommons.org/ns#" xmlns:dc="http://purl.org/dc/elements/1.1/" xmlns:rdf="http://www.w3.org/1999/02/22-rdf-syntax-ns#">
	<defs>
		<style id="current-color-scheme" type="text/css">.ColorScheme-Text {color:#090d11;}.ColorScheme-Background{color:#ffffff;}</style>
	</defs>
	<metadata>
		<rdf:RDF>
			<cc:Work rdf:about="">
				<dc:format>image/svg+xml</dc:format>
				<dc:type rdf:resource="http://purl.org/dc/dcmitype/StillImage"/>
			</cc:Work>
		</rdf:RDF>
	</metadata>
	<path class="ColorScheme-Text" d="m1.6523 1.9961c-0.036541 3.616e-4 -0.063971 0.00757-0.082031 0.023437-0.28891 0.25389 1.2025 3.2763 1.1777 3.6602-0.024763 0.38382-1.8926 3.1916-1.6387 3.4805 0.25389 0.28891 3.2763-1.2025 3.6602-1.1777 0.38382 0.024763 3.1916 1.8926 3.4805 1.6387 0.28891-0.25389-1.2025-3.2783-1.1777-3.6621 0.024763-0.38382 1.8926-3.1916 1.6387-3.4805s-3.2783 1.2025-3.6621 1.1777c-0.33585-0.021668-2.5256-1.4529-3.2617-1.6406-0.052575-0.013409-0.098224-0.019893-0.13477-0.019531zm9.8301 0.96875c-0.23366 0.044133-0.39332 2.1219-0.52734 2.3184-0.13402 0.19643-2.0109 1.1023-1.9668 1.3359 0.044133 0.23366 2.1239 0.39332 2.3203 0.52734 0.19643 0.13402 1.1003 2.0109 1.334 1.9668s0.39332-2.1219 0.52734-2.3184c0.13402-0.19643 2.0109-1.1023 1.9668-1.3359s-2.1219-0.39332-2.3184-0.52734c-0.19643-0.13402-1.1023-2.0109-1.3359-1.9668zm3.3574 6.7695c-0.17867 0.022612-0.91895 0.66621-1.0352 0.68945-0.12395 0.02479-1.174-0.32978-1.2441-0.22461-0.07012 0.10517 0.66076 0.93855 0.68555 1.0625s-0.32783 1.174-0.22266 1.2441c0.10517 0.07012 0.93665-0.66076 1.0605-0.68555 0.12395-0.02479 1.174 0.32978 1.2441 0.22461 0.07012-0.10517-0.66076-0.93855-0.68555-1.0625s0.32978-1.174 0.22461-1.2441c-0.0066-0.00438-0.01543-0.00541-0.02734-0.00391zm-4.6035 1.4121c-0.25525 0.03217-1.3124 0.95116-1.4785 0.98438-0.17716 0.03543-1.6791-0.47064-1.7793-0.32031-0.10022 0.15032 0.94504 1.3404 0.98047 1.5176 0.035428 0.17716-0.47064 1.6791-0.32031 1.7793s1.3404-0.94504 1.5176-0.98047c0.17716-0.03543 1.6771 0.47064 1.7773 0.32031 0.10022-0.15032-0.94309-1.3404-0.97852-1.5176-0.035428-0.17716 0.47064-1.6771 0.32031-1.7773-0.0094-0.0063-0.02205-8e-3 -0.03906-0.0059z" style="fill-opacity:.75;fill:currentColor"/>
</svg>
