<?xml version="1.0" encoding="UTF-8"?>
<svg id="g" width="16" height="16" version="1.1" xmlns="http://www.w3.org/2000/svg" xmlns:cc="http://creativecommons.org/ns#" xmlns:dc="http://purl.org/dc/elements/1.1/" xmlns:rdf="http://www.w3.org/1999/02/22-rdf-syntax-ns#">
	<metadata id="a">
		<rdf:RDF>
			<cc:Work rdf:about="">
				<dc:format>image/svg+xml</dc:format>
				<dc:type rdf:resource="http://purl.org/dc/dcmitype/StillImage"/>
			</cc:Work>
		</rdf:RDF>
	</metadata>
	<defs>
		<style id="current-color-scheme" type="text/css">.ColorScheme-Text {color:#090d11;}.ColorScheme-Background{color:#ffffff;}</style>
	</defs>
	<path id="f" class="ColorScheme-Text" d="m3.5 1c-0.82235 0-1.5 0.67765-1.5 1.5v11c0 0.82235 0.67765 1.5 1.5 1.5h4.5v-1h-4.5c-0.28565 0-0.5-0.21435-0.5-0.5v-11c0-0.28565 0.21435-0.5 0.5-0.5h9c0.28565 0 0.5 0.21435 0.5 0.5v6.5h1v-6.5c0-0.82235-0.67765-1.5-1.5-1.5zm2 4c-0.67616-0.00956-0.67616 1.0096 0 1h1c0.67616 0.00956 0.67616-1.0096 0-1zm3.9746 0c-0.26491 0.013342-0.47461 0.23166-0.47461 0.5 0 0.277 0.223 0.5 0.5 0.5h1c0.277 0 0.5-0.223 0.5-0.5s-0.223-0.5-0.5-0.5h-1c-0.0086562 0-0.016845-4.304e-4 -0.025391 0zm-3.9746 3c-0.67616-0.00956-0.67616 1.0096 0 1h1c0.67616 0.00956 0.67616-1.0096 0-1zm3.9746 0c-0.26491 0.013342-0.47461 0.23166-0.47461 0.5 0 0.277 0.223 0.5 0.5 0.5h1c0.277 0 0.5-0.223 0.5-0.5s-0.223-0.5-0.5-0.5h-1c-0.0086562 0-0.016845-4.304e-4 -0.025391 0zm-0.47461 2v5l5-5z" style="fill-opacity:.75;fill:currentColor"/>
	<path id="h" class="ColorScheme-Background" d="m2.5 0c-0.82235 0-1.5 0.67765-1.5 1.5v13c0 0.82235 0.67765 1.5 1.5 1.5h6.5v-0.0078c0.24808 0.0019 0.5012-0.07946 0.70703-0.28516l5-5c0.62956-0.63001 0.18361-1.7067-0.70703-1.707h-5c-0.55226 5.5e-5 -0.99994 0.44774-1 1v4h1v-4h5l-5 5h-6.5c-0.28565 0-0.5-0.21435-0.5-0.5v-13c0-0.28565 0.21435-0.5 0.5-0.5h11c0.28565 0 0.47809 0.21519 0.5 0.5v6.5h1v-6.5c0-0.82235-0.67765-1.5-1.5-1.5zm3 4c-0.67616-0.00956-0.67616 1.0096 0 1h1c0.67616 0.0096 0.67616-1.0096 0-1zm3.9746 0c-0.26491 0.013342-0.47461 0.23166-0.47461 0.5 0 0.277 0.223 0.5 0.5 0.5h1c0.277 0 0.5-0.223 0.5-0.5s-0.223-0.5-0.5-0.5h-1c-0.0086562 0-0.016845-4.304e-4 -0.025391 0zm-3.9746 3c-0.67616-0.0096-0.67616 1.0096 0 1h1c0.67616 0.0096 0.67616-1.0096 0-1zm3.9746 0c-0.26491 0.013342-0.47461 0.23166-0.47461 0.5 0 0.277 0.223 0.5 0.5 0.5h1c0.277 0 0.5-0.223 0.5-0.5s-0.223-0.5-0.5-0.5h-1c-0.00866 0-0.016845-4.304e-4 -0.025391 0z" style="fill-opacity:.5;fill:currentColor"/>
</svg>
