<?xml version="1.0" encoding="UTF-8"?>
<!-- Created with Inkscape (http://www.inkscape.org/) -->
<svg width="16" height="16" version="1.1" xmlns="http://www.w3.org/2000/svg" xmlns:cc="http://creativecommons.org/ns#" xmlns:dc="http://purl.org/dc/elements/1.1/" xmlns:rdf="http://www.w3.org/1999/02/22-rdf-syntax-ns#" xmlns:xlink="http://www.w3.org/1999/xlink">
	<defs>
		<radialGradient id="b" cx="-3384.1" cy="2107.7" r="6.9883" gradientTransform="matrix(0 1.3195 -1.3268 -1.6104e-5 2804.2 4474.7)" gradientUnits="userSpaceOnUse">
			<stop stop-color="#213851" stop-opacity=".9059" offset="0"/>
			<stop stop-color="#27303a" stop-opacity="0" offset="1"/>
		</radialGradient>
		<radialGradient id="a" cx="13.06" cy="17.68" r="10" gradientTransform="matrix(0 1.8 -1.5 0 34.577 -19.734)" gradientUnits="userSpaceOnUse">
			<stop stop-color="#ffffff" stop-opacity=".74858" offset="0"/>
			<stop stop-color="#ffffff" stop-opacity=".60511" offset="1"/>
		</radialGradient>
	</defs>
	<metadata>
		<rdf:RDF>
			<cc:Work rdf:about="">
				<dc:format>image/svg+xml</dc:format>
				<dc:type rdf:resource="http://purl.org/dc/dcmitype/StillImage"/>
				<dc:title/>
			</cc:Work>
		</rdf:RDF>
	</metadata>
	<path d="m2.9336 3c-0.71473 0-0.93359 0.59454-0.93359 1.9355-0.54164 0.31013-0.83332 0.75702-0.94531 1.4062-0.037328 0.21641-0.054688 0.45476-0.054688 0.71875v3.7031c0 2.7962 2.0295 2.6921 3 1.2363l1.3125-1.9668c0.56205-0.84307 0.76419-1.0332 1.4238-1.0332h1.2637 1.2637c0.65964 0 0.86178 0.19013 1.4238 1.0332l1.3125 1.9668c0.9705 1.4557 3 1.5598 3-1.2363v-3.7031c0-0.26399-0.01736-0.50234-0.05469-0.71875-0.11198-0.64923-0.40367-1.0961-0.94531-1.4062 0-1.341-0.21886-1.9355-0.93359-1.9355h-2.6426c-0.31154 0-0.42383 0.33629-0.42383 1h-2-2c0-0.66371-0.11229-1-0.42383-1zm1.5664 1.6582c0.277 0 0.5-0.00552 0.5 0.27148v0.78125 0.052734l-0.5 0.5-0.5-0.5v-0.052734-0.78125c0-0.277 0.223-0.27148 0.5-0.27148zm7 0.3418a0.5 0.5 0 0 1 0.5 0.5 0.5 0.5 0 0 1-0.5 0.5 0.5 0.5 0 0 1-0.5-0.5 0.5 0.5 0 0 1 0.5-0.5zm-8.5703 1h0.78125 0.052734l0.5 0.5-0.5 0.5h-0.052734-0.78125c-0.277 0-0.27148-0.223-0.27148-0.5s-0.00552-0.5 0.27148-0.5zm2.3066 0h0.052734 0.78125c0.277 0 0.27148 0.223 0.27148 0.5s0.00552 0.5-0.27148 0.5h-0.78125-0.052734l-0.5-0.5zm5.2637 0a0.5 0.5 0 0 1 0.5 0.5 0.5 0.5 0 0 1-0.5 0.5 0.5 0.5 0 0 1-0.5-0.5 0.5 0.5 0 0 1 0.5-0.5zm2.0391 0a0.5 0.5 0 0 1 0.5 0.5 0.5 0.5 0 0 1-0.5 0.5 0.5 0.5 0 0 1-0.5-0.5 0.5 0.5 0 0 1 0.5-0.5zm-8.0391 0.73633 0.5 0.5v0.052734 0.78125c0 0.277-0.223 0.27148-0.5 0.27148s-0.5 0.00552-0.5-0.27148v-0.78125-0.052734zm7 0.26367a0.5 0.5 0 0 1 0.5 0.5 0.5 0.5 0 0 1-0.5 0.5 0.5 0.5 0 0 1-0.5-0.5 0.5 0.5 0 0 1 0.5-0.5z" fill="#090d11" fill-opacity=".76621" style="paint-order:normal"/>
	<path d="m2.9336 3c-0.71473 0-0.93359 0.59454-0.93359 1.9355-0.54164 0.31013-0.83332 0.75702-0.94531 1.4062-0.037328 0.21641-0.054688 0.45476-0.054688 0.71875v3.7031c0 2.7962 2.0295 2.6921 3 1.2363l1.3125-1.9668c0.56205-0.84307 0.76419-1.0332 1.4238-1.0332h1.2637 1.2637c0.65964 0 0.86178 0.19013 1.4238 1.0332l1.3125 1.9668c0.9705 1.4557 3 1.5598 3-1.2363v-3.7031c0-0.26399-0.017355-0.50234-0.054688-0.71875-0.11198-0.64923-0.40367-1.0961-0.94531-1.4062 0-1.341-0.21886-1.9355-0.93359-1.9355h-2.6426c-0.31154 0-0.42383 0.33629-0.42383 1h-2-2c0-0.66371-0.11229-1-0.42383-1h-2.6426zm1.5664 1.6582c0.277 0 0.5-0.0055156 0.5 0.27148v0.78125 0.052734l-0.5 0.5-0.5-0.5v-0.052734-0.78125c0-0.277 0.223-0.27148 0.5-0.27148zm7 0.3418a0.5 0.5 0 0 1 0.5 0.5 0.5 0.5 0 0 1-0.5 0.5 0.5 0.5 0 0 1-0.5-0.5 0.5 0.5 0 0 1 0.5-0.5zm-8.5703 1h0.78125 0.052734l0.5 0.5-0.5 0.5h-0.052734-0.78125c-0.277 0-0.27148-0.223-0.27148-0.5s-0.0055156-0.5 0.27148-0.5zm2.3066 0h0.052734 0.78125c0.277 0 0.27148 0.223 0.27148 0.5s0.0055156 0.5-0.27148 0.5h-0.78125-0.052734l-0.5-0.5 0.5-0.5zm5.2637 0a0.5 0.5 0 0 1 0.5 0.5 0.5 0.5 0 0 1-0.5 0.5 0.5 0.5 0 0 1-0.5-0.5 0.5 0.5 0 0 1 0.5-0.5zm2.0391 0a0.5 0.5 0 0 1 0.5 0.5 0.5 0.5 0 0 1-0.5 0.5 0.5 0.5 0 0 1-0.5-0.5 0.5 0.5 0 0 1 0.5-0.5zm-8.0391 0.73633 0.5 0.5v0.052734 0.78125c0 0.277-0.223 0.27148-0.5 0.27148s-0.5 0.0055156-0.5-0.27148v-0.78125-0.052734l0.5-0.5zm7 0.26367a0.5 0.5 0 0 1 0.5 0.5 0.5 0.5 0 0 1-0.5 0.5 0.5 0.5 0 0 1-0.5-0.5 0.5 0.5 0 0 1 0.5-0.5z" fill="url(#b)" style="font-variant-east_asian:normal;paint-order:normal"/>
	<path d="m3.2402 2c-0.10908 0-0.38076-0.013497-0.68555 0.11914-0.30479 0.13264-0.57662 0.43163-0.70898 0.71094-0.21683 0.45753-0.22202 1.0281-0.23438 1.7246-0.83761 0.48359-1.6113 1.2996-1.6113 2.3141v3.555c0 2.5989 1.4021 3.5469 2.4043 3.5469 1.1775 0 1.4646-0.6808 2.0371-1.4707 0.37252-0.51397 0.5258-0.83909 1.2461-1.8984 0.41679-0.61298 1.3748-0.60156 2.3125-0.60156s1.8957-0.011414 2.3125 0.60156c0.7203 1.0593 0.87358 1.3845 1.2461 1.8984 0.57251 0.7899 0.85964 1.4707 2.0371 1.4707 1.0022 0 2.4043-0.94796 2.4043-3.5469v-3.555c0-1.0145-0.77372-1.8305-1.6113-2.3141-0.012357-0.69648-0.017542-1.2671-0.23438-1.7246-0.13237-0.2793-0.40419-0.5783-0.70898-0.71094-0.30479-0.13264-0.57646-0.11914-0.68555-0.11914h-1.8047c-0.61102 0-1.431 0.27985-1.431 1 0 0.50342 0.056402 0.34846-1.5241 0.34846s-1.5241 0.15496-1.5241-0.34846c0-0.72015-0.82-1-1.431-1zm-0.30664 1h2.6426c0.31154 0 0.42383 0.33629 0.42383 1h2 2c0-0.66371 0.11229-1 0.42383-1h2.6426c0.71473 0 0.93359 0.59454 0.93359 1.9355 0.54164 0.31013 0.83333 0.75702 0.94531 1.4062 0.037332 0.21641 0.054688 0.45476 0.054688 0.71875v3.7031c0 2.7962-2.0295 2.6921-3 1.2363l-1.3125-1.9668c-0.56205-0.84307-0.76419-1.0332-1.4238-1.0332h-1.2637-1.2637c-0.65964 0-0.86178 0.19013-1.4238 1.0332l-1.3125 1.9668c-0.9705 1.4557-3 1.5598-3-1.2363v-3.7031c0-0.26399 0.017359-0.50234 0.054687-0.71875 0.11199-0.64923 0.40367-1.0961 0.94531-1.4062 0-1.341 0.21886-1.9355 0.93359-1.9355zm1.5664 1.6582c-0.277 0-0.5-0.00551-0.5 0.27148v0.78125 0.052734l0.5 0.5 0.5-0.5v-0.052734-0.78125c0-0.277-0.223-0.27148-0.5-0.27148zm7 0.3418c-0.27614 0-0.5 0.22386-0.5 0.5s0.22386 0.5 0.5 0.5 0.5-0.22386 0.5-0.5-0.22386-0.5-0.5-0.5zm-8.5703 1c-0.277 0-0.27148 0.223-0.27148 0.5s-0.00551 0.5 0.27148 0.5h0.78125 0.052734l0.5-0.5-0.5-0.5h-0.052734zm2.3066 0-0.5 0.5 0.5 0.5h0.052734 0.78125c0.277 0 0.27148-0.223 0.27148-0.5s0.00551-0.5-0.27148-0.5h-0.78125zm5.2637 0c-0.27614 0-0.5 0.22386-0.5 0.5s0.22386 0.5 0.5 0.5 0.5-0.22386 0.5-0.5-0.22386-0.5-0.5-0.5zm2.0391 0c-0.27614 0-0.5 0.22386-0.5 0.5s0.22386 0.5 0.5 0.5 0.5-0.22386 0.5-0.5-0.22386-0.5-0.5-0.5zm-8.0391 0.73633-0.5 0.5v0.052734 0.78125c0 0.277 0.223 0.27148 0.5 0.27148s0.5 0.00551 0.5-0.27148v-0.78125-0.052734zm7 0.26367c-0.27614 0-0.5 0.22386-0.5 0.5s0.22386 0.5 0.5 0.5 0.5-0.22386 0.5-0.5-0.22386-0.5-0.5-0.5z" color="#000000" color-rendering="auto" dominant-baseline="auto" fill="url(#a)" fill-opacity=".99858" image-rendering="auto" shape-rendering="auto" solid-color="#000000" style="font-feature-settings:normal;font-variant-alternates:normal;font-variant-caps:normal;font-variant-ligatures:normal;font-variant-numeric:normal;font-variant-position:normal;isolation:auto;mix-blend-mode:normal;paint-order:normal;shape-padding:0;text-decoration-color:#000000;text-decoration-line:none;text-decoration-style:solid;text-indent:0;text-orientation:mixed;text-transform:none;white-space:normal"/>
</svg>
