<?xml version="1.0" encoding="UTF-8"?>
<svg id="d" width="16" height="16" version="1.1" xmlns="http://www.w3.org/2000/svg" xmlns:cc="http://creativecommons.org/ns#" xmlns:dc="http://purl.org/dc/elements/1.1/" xmlns:rdf="http://www.w3.org/1999/02/22-rdf-syntax-ns#">
	<metadata id="a">
		<rdf:RDF>
			<cc:Work rdf:about="">
				<dc:format>image/svg+xml</dc:format>
				<dc:type rdf:resource="http://purl.org/dc/dcmitype/StillImage"/>
			</cc:Work>
		</rdf:RDF>
	</metadata>
	<defs>
		<style id="current-color-scheme" type="text/css">.ColorScheme-Text {color:#090d11;}.ColorScheme-Background{color:#ffffff;}</style>
	</defs>
	<path id="b" class="ColorScheme-Text" d="m7 0a1.0001 1.0001 0 0 0-1 1v1h-2c-1.1081 0-2 0.89193-2 2v6.1543l-1.9316 1.1152a1.0001 1.0001 0 0 0-0.36719 1.3652l1 1.7305a1.0001 1.0001 0 0 0 1.3652 0.36524l1.4043-0.81055c0.16927 0.04727 0.34415 0.08008 0.5293 0.08008h8c0.18296 0 0.35595-0.03192 0.52344-0.07813l1.3984 0.80859a1.0001 1.0001 0 0 0 1.3672-0.36524l1-1.7305a1.0001 1.0001 0 0 0-0.36719-1.3652l-1.9219-1.1094v-6.1602c0-1.1081-0.89193-2-2-2h-2.0078v-1a1.0001 1.0001 0 0 0-1-1h-1.9922zm0 1h2v6.2695a2 2 0 0 0-0.12305-0.064453 2 2 0 0 0-0.070312-0.033203 2 2 0 0 0-0.14062-0.054688 2 2 0 0 0-0.029297-0.011719 2 2 0 0 0-0.00977-0.00195 2 2 0 0 0-0.125-0.035156 2 2 0 0 0-0.085938-0.021484 2 2 0 0 0-0.091797-0.017578 2 2 0 0 0-0.097656-0.015625 2 2 0 0 0-0.10156-0.00781 2 2 0 0 0-0.125-0.00586 2 2 0 0 0-0.13086 0.00586 2 2 0 0 0-0.09375 0.00781 2 2 0 0 0-0.10938 0.017578 2 2 0 0 0-0.078125 0.013672 2 2 0 0 0-0.1582 0.041016 2 2 0 0 0-0.025391 0.00781 2 2 0 0 0-0.12305 0.044922 2 2 0 0 0-0.085938 0.035156 2 2 0 0 0-0.072266 0.033203 2 2 0 0 0-0.12305 0.064453v-6.2715zm1 7a0.99994 0.99994 0 0 1 0.099609 0.00586 0.99994 0.99994 0 0 1 0.087891 0.011719 0.99994 0.99994 0 0 1 0.058594 0.013672 0.99994 0.99994 0 0 1 0.03125 0.00977 0.99994 0.99994 0 0 1 0.058594 0.017578 0.99994 0.99994 0 0 1 0.035156 0.013672 0.99994 0.99994 0 0 1 0.058594 0.027344 0.99994 0.99994 0 0 1 0.041016 0.019531 0.99994 0.99994 0 0 1 0.019531 0.011719 0.99994 0.99994 0 0 1 0.0625 0.037109 0.99994 0.99994 0 0 1 0.068359 0.048828 0.99994 0.99994 0 0 1 0.0625 0.054688 0.99994 0.99994 0 0 1 0.023437 0.021484 0.99994 0.99994 0 0 1 0.021484 0.023437 0.99994 0.99994 0 0 1 0.054688 0.0625 0.99994 0.99994 0 0 1 0.048828 0.068359 0.99994 0.99994 0 0 1 0.037109 0.0625 0.99994 0.99994 0 0 1 0.011719 0.019531 0.99994 0.99994 0 0 1 0.019531 0.041016 0.99994 0.99994 0 0 1 0.027344 0.058594 0.99994 0.99994 0 0 1 0.013672 0.035156 0.99994 0.99994 0 0 1 0.017578 0.058594 0.99994 0.99994 0 0 1 0.00977 0.03125 0.99994 0.99994 0 0 1 0.013668 0.058589 0.99994 0.99994 0 0 1 0.011719 0.087891 0.99994 0.99994 0 0 1 0.0058594 0.099609 0.99994 0.99994 0 0 1-0.0058594 0.099609 0.99994 0.99994 0 0 1-0.011719 0.087891 0.99994 0.99994 0 0 1-0.013672 0.058594 0.99994 0.99994 0 0 1-0.0097656 0.03125 0.99994 0.99994 0 0 1-0.017578 0.058594 0.99994 0.99994 0 0 1-0.013672 0.035156 0.99994 0.99994 0 0 1-0.027344 0.058594 0.99994 0.99994 0 0 1-0.019531 0.041016 0.99994 0.99994 0 0 1-0.011719 0.019531 0.99994 0.99994 0 0 1-0.037109 0.0625 0.99994 0.99994 0 0 1-0.048828 0.068359 0.99994 0.99994 0 0 1-0.054688 0.0625 0.99994 0.99994 0 0 1-0.021484 0.023437 0.99994 0.99994 0 0 1-0.023437 0.021484 0.99994 0.99994 0 0 1-0.0625 0.054688 0.99994 0.99994 0 0 1-0.068359 0.048828 0.99994 0.99994 0 0 1-0.0625 0.037109 0.99994 0.99994 0 0 1-0.019531 0.011719 0.99994 0.99994 0 0 1-0.041016 0.019531 0.99994 0.99994 0 0 1-0.058594 0.027344 0.99994 0.99994 0 0 1-0.035156 0.013672 0.99994 0.99994 0 0 1-0.058594 0.017578 0.99994 0.99994 0 0 1-0.03125 0.0097656 0.99994 0.99994 0 0 1-0.058594 0.013672 0.99994 0.99994 0 0 1-0.087891 0.011719 0.99994 0.99994 0 0 1-0.099609 0.0058594 0.99994 0.99994 0 0 1-0.099609-0.0058594 0.99994 0.99994 0 0 1-0.087891-0.011719 0.99994 0.99994 0 0 1-0.058594-0.013672 0.99994 0.99994 0 0 1-0.03125-0.0097656 0.99994 0.99994 0 0 1-0.058594-0.017578 0.99994 0.99994 0 0 1-0.035156-0.013672 0.99994 0.99994 0 0 1-0.058594-0.027344 0.99994 0.99994 0 0 1-0.041016-0.019531 0.99994 0.99994 0 0 1-0.019531-0.011719 0.99994 0.99994 0 0 1-0.0625-0.037109 0.99994 0.99994 0 0 1-0.068359-0.048828 0.99994 0.99994 0 0 1-0.0625-0.054688 0.99994 0.99994 0 0 1-0.023437-0.021484 0.99994 0.99994 0 0 1-0.021484-0.023437 0.99994 0.99994 0 0 1-0.054688-0.0625 0.99994 0.99994 0 0 1-0.042969-0.056641 0.99994 0.99994 0 0 1-0.0058593-0.011719 0.99994 0.99994 0 0 1-0.037109-0.0625 0.99994 0.99994 0 0 1-0.011719-0.019531 0.99994 0.99994 0 0 1-0.019531-0.041016 0.99994 0.99994 0 0 1-0.027344-0.058594 0.99994 0.99994 0 0 1-0.013672-0.035156 0.99994 0.99994 0 0 1-0.017578-0.058594 0.99994 0.99994 0 0 1-0.0097656-0.03125 0.99994 0.99994 0 0 1-0.013672-0.058594 0.99994 0.99994 0 0 1-0.011719-0.087891 0.99994 0.99994 0 0 1-0.00586-0.099609 0.99994 0.99994 0 0 1 0.00586-0.099609 0.99994 0.99994 0 0 1 0.011719-0.087891 0.99994 0.99994 0 0 1 0.013672-0.058594 0.99994 0.99994 0 0 1 0.00977-0.03125 0.99994 0.99994 0 0 1 0.017578-0.058594 0.99994 0.99994 0 0 1 0.013672-0.035156 0.99994 0.99994 0 0 1 0.027344-0.058594 0.99994 0.99994 0 0 1 0.019531-0.041016 0.99994 0.99994 0 0 1 0.011719-0.019531 0.99994 0.99994 0 0 1 0.037109-0.0625 0.99994 0.99994 0 0 1 0.048828-0.068359 0.99994 0.99994 0 0 1 0.054688-0.0625 0.99994 0.99994 0 0 1 0.021484-0.023437 0.99994 0.99994 0 0 1 0.023437-0.021484 0.99994 0.99994 0 0 1 0.0625-0.054688 0.99994 0.99994 0 0 1 0.056641-0.042969 0.99994 0.99994 0 0 1 0.011719-0.00586 0.99994 0.99994 0 0 1 0.0625-0.037109 0.99994 0.99994 0 0 1 0.019531-0.011719 0.99994 0.99994 0 0 1 0.041016-0.019531 0.99994 0.99994 0 0 1 0.058594-0.027344 0.99994 0.99994 0 0 1 0.035156-0.013672 0.99994 0.99994 0 0 1 0.058594-0.017578 0.99994 0.99994 0 0 1 0.03125-0.00977 0.99994 0.99994 0 0 1 0.058594-0.013672 0.99994 0.99994 0 0 1 0.087891-0.011719 0.99994 0.99994 0 0 1 0.099609-0.00586zm-2 1.002a2 2 0 0 0 0.00781 0.14453 2 2 0 0 0 0.00977 0.099609 2 2 0 0 0 0.017578 0.11523 2 2 0 0 0 0.013672 0.068359 2 2 0 0 0 0.025391 0.10352 2 2 0 0 0 0.041016 0.12891 2 2 0 0 0 0.00586 0.017578 2 2 0 0 0 0.011719 0.027344 2 2 0 0 0 0.042969 0.10742 2 2 0 0 0 0.056641 0.11523 2 2 0 0 0 0.035156 0.064453 2 2 0 0 0 0.050781 0.082031 2 2 0 0 0 0.070312 0.10352 2 2 0 0 0 0.039062 0.05078 2 2 0 0 0 0.095703 0.11133 2 2 0 0 0 0.027344 0.03125 2 2 0 0 0 0.10156 0.09961 2 2 0 0 0 0.068359 0.06055 2 2 0 0 0 0.070312 0.05664 2 2 0 0 0 0.091797 0.06445 2 2 0 0 0 0.11914 0.07617l-4.4941 2.5938-0.93555 0.54102-1-1.7305 1.4277-0.82422 4-2.3086zm4 0 4 2.3086 1.4277 0.82422-1 1.7305-5.4297-3.1348a2 2 0 0 0 0.11914-0.07617 2 2 0 0 0 0.091797-0.06445 2 2 0 0 0 0.070312-0.05664 2 2 0 0 0 0.068359-0.06055 2 2 0 0 0 0.10156-0.09961 2 2 0 0 0 0.027344-0.03125 2 2 0 0 0 0.095703-0.11133 2 2 0 0 0 0.039062-0.05078 2 2 0 0 0 0.078125-0.11524 2 2 0 0 0 0.029297-0.04687 2 2 0 0 0 0.066406-0.12306 2 2 0 0 0 0.035156-0.072266 2 2 0 0 0 0.035156-0.083984 2 2 0 0 0 0.039062-0.10156 2 2 0 0 0 0.029297-0.095703 2 2 0 0 0 0.027344-0.11133 2 2 0 0 0 0.013672-0.068359 2 2 0 0 0 0.017578-0.11523 2 2 0 0 0 0.00977-0.099609 2 2 0 0 0 0.00781-0.14453z" style="fill-opacity:.75;fill:currentColor"/>
</svg>
