<?xml version="1.0" encoding="UTF-8"?>
<!-- Created with Inkscape (http://www.inkscape.org/) -->
<svg width="16" height="16" version="1.1" xmlns="http://www.w3.org/2000/svg" xmlns:cc="http://creativecommons.org/ns#" xmlns:dc="http://purl.org/dc/elements/1.1/" xmlns:rdf="http://www.w3.org/1999/02/22-rdf-syntax-ns#">
	<defs>
		<radialGradient id="b" cx="-9386.4" cy="5039.1" r="9" gradientTransform="matrix(0 1.5934 -1.4164 0 7145.5 14959)" gradientUnits="userSpaceOnUse">
			<stop stop-color="#213851" stop-opacity=".9059" offset="0"/>
			<stop stop-color="#27303a" stop-opacity="0" offset="1"/>
		</radialGradient>
		<radialGradient id="a" cx="9.9746" cy="5.9293" r="9.0713" gradientTransform="matrix(1 0 0 .99903 -1.0416 -6.7396)" gradientUnits="userSpaceOnUse">
			<stop stop-color="#ffffff" stop-opacity=".8252" offset="0"/>
			<stop stop-color="#ffffff" stop-opacity=".6051" offset="1"/>
		</radialGradient>
	</defs>
	<metadata>
		<rdf:RDF>
			<cc:Work rdf:about="">
				<dc:format>image/svg+xml</dc:format>
				<dc:type rdf:resource="http://purl.org/dc/dcmitype/StillImage"/>
				<dc:title/>
			</cc:Work>
		</rdf:RDF>
	</metadata>
	<path d="m13 1-10 3.1816v3.8184l4.5449 1.7363-4.5449 1.4453v3.8184l10-3.1816v-3.8184l-4.5449-1.7363 4.5449-1.4453z" fill="#090d11" fill-opacity=".76621" style="paint-order:normal"/>
	<path d="m13 1-10 3.1816v3.8184l4.5449 1.7363-4.5449 1.4453v3.8184l10-3.1816v-3.8184l-4.5449-1.7363 4.5449-1.4453z" fill="url(#b)" style="font-variant-east_asian:normal;paint-order:normal"/>
	<path d="m14-0.36719-1.3027 0.41406-10.697 3.4043v5.2363l2.5176 0.96289-2.5176 0.80078v5.916l12-3.8184v-5.2363l-2.5176-0.96289 2.5176-0.80078v-5.916zm-1 1.3672v3.8184l-4.5449 1.4453 4.5449 1.7363v3.8184l-10 3.1816v-3.8184l4.5449-1.4453-4.5449-1.7363v-3.8184l10-3.1816z" color="#000000" color-rendering="auto" dominant-baseline="auto" fill="url(#a)" image-rendering="auto" shape-rendering="auto" solid-color="#000000" style="font-feature-settings:normal;font-variant-alternates:normal;font-variant-caps:normal;font-variant-east_asian:normal;font-variant-ligatures:normal;font-variant-numeric:normal;font-variant-position:normal;isolation:auto;mix-blend-mode:normal;paint-order:normal;shape-padding:0;text-decoration-color:#000000;text-decoration-line:none;text-decoration-style:solid;text-indent:0;text-orientation:mixed;text-transform:none;white-space:normal"/>
</svg>
