<?xml version="1.0" encoding="UTF-8"?>
<!-- Created with Inkscape (http://www.inkscape.org/) -->
<svg width="16" height="16" version="1.1" xmlns="http://www.w3.org/2000/svg" xmlns:cc="http://creativecommons.org/ns#" xmlns:dc="http://purl.org/dc/elements/1.1/" xmlns:rdf="http://www.w3.org/1999/02/22-rdf-syntax-ns#">
	<defs>
		<style id="current-color-scheme" type="text/css">.ColorScheme-Text {
			color:#090d11;
			}
			.ColorScheme-Background{
			color:#ffffff;
			}</style>
	</defs>
	<metadata>
		<rdf:RDF>
			<cc:Work rdf:about="">
				<dc:format>image/svg+xml</dc:format>
				<dc:type rdf:resource="http://purl.org/dc/dcmitype/StillImage"/>
			</cc:Work>
		</rdf:RDF>
	</metadata>
	<path class="ColorScheme-Text" d="m1.5 1c-0.27613 2.76e-5 -0.49997 0.22387-0.5 0.5v11c2.76e-5 0.27613 0.22387 0.49997 0.5 0.5h4.75l1.3496 1.8008c0.2 0.26732 0.60078 0.26732 0.80078 0l1.3496-1.8008h4.75c0.27613-2.8e-5 0.49997-0.22387 0.5-0.5v-11c-2.8e-5 -0.27613-0.22387-0.49997-0.5-0.5zm0.5 1h12v10h-4.5c-0.15738-3e-4 -0.30571 0.07351-0.40039 0.19922l-1.0996 1.4668-1.0996-1.4668c-0.094678-0.12571-0.24301-0.19952-0.40039-0.19922h-4.5zm3 4c-0.55228 0-1 0.44772-1 1s0.44772 1 1 1 1-0.44772 1-1-0.44772-1-1-1zm3 0c-0.55228 0-1 0.44772-1 1s0.44772 1 1 1 1-0.44772 1-1-0.44772-1-1-1zm3 0c-0.55228 0-1 0.44772-1 1s0.44772 1 1 1 1-0.44772 1-1-0.44772-1-1-1z" style="fill-opacity:.75;fill:currentColor"/>
</svg>
