<?xml version="1.0" encoding="UTF-8"?>
<svg id="d" width="16" height="16" version="1.1" xmlns="http://www.w3.org/2000/svg" xmlns:cc="http://creativecommons.org/ns#" xmlns:dc="http://purl.org/dc/elements/1.1/" xmlns:rdf="http://www.w3.org/1999/02/22-rdf-syntax-ns#">
	<metadata id="a">
		<rdf:RDF>
			<cc:Work rdf:about="">
				<dc:format>image/svg+xml</dc:format>
				<dc:type rdf:resource="http://purl.org/dc/dcmitype/StillImage"/>
			</cc:Work>
		</rdf:RDF>
	</metadata>
	<defs id="e">
		<style id="current-color-scheme" type="text/css">.ColorScheme-Text {color:#090d11;}.ColorScheme-Background{color:#ffffff;}</style>
	</defs>
	<path id="b" class="ColorScheme-Text" d="m7.9668 1c-0.11822 0.0013564-0.23814 0.0096865-0.35742 0.025391-1.2724 0.16751-2.3004 1.13-2.5508 2.3887s0.33 2.5419 1.4414 3.1836c0.00258 0.00198 0.00519 0.00393 0.00781 0.00586l0.80664 0.44531c-2.4306 0.33622-4.3145 2.431-4.3145 4.9512v2.5c0 0.55228 0.44772 1 1 1s1-0.44772 1-1v-2.5c0-1.6793 1.3207-3 3-3s3 1.3207 3 3v2.5c0 0.55228 0.44772 1 1 1s1-0.44772 1-1v-2.5c0-1.8691-1.0375-3.5036-2.5645-4.3613-0.01859-0.014382-0.03817-0.027435-0.05859-0.039063l-3.3848-1.873c-0.0013-6.567e-4 -0.0026-0.00131-0.00391-0.00195-0.73561-0.43159-1.1158-1.2777-0.94922-2.1152 0.16752-0.84219 0.84788-1.4797 1.6992-1.5918 0.85134-0.11208 1.6749 0.32752 2.0547 1.0977 0.37979 0.77014 0.22828 1.6916-0.37891 2.2988-0.19521 0.19525-0.19521 0.51178 0 0.70703 0.19525 0.19521 0.51178 0.19521 0.70703 0 0.90746-0.90746 1.1379-2.2963 0.57031-3.4473-0.5144-1.0431-1.5818-1.6869-2.7246-1.6738z" style="fill-opacity:.75;fill:currentColor"/>
	<path id="c" class="ColorScheme-Background" d="m8 0c-2.2032 0-4 1.7968-4 4 0 1.063 0.41927 2.0304 1.0996 2.748-1.8484 1.0221-3.0996 2.989-3.0996 5.252v3.5c0 0.27614 0.22386 0.5 0.5 0.5s0.5-0.22386 0.5-0.5v-3.5c0-0.10656 0.00508-0.21147 0.011719-0.31641 0.00228-0.03721 0.00474-0.07435 0.00781-0.11133 0.00704-0.08223 0.016334-0.16503 0.027344-0.24609 0.00103-0.0078 8.892e-4 -0.01569 0.00195-0.02344 0.00893-0.06501 0.019877-0.12921 0.03125-0.19336 0.00391-0.02156 0.00753-0.04299 0.011719-0.06445 0.30968-1.6235 1.3932-2.9586 2.8594-3.6113 0.00324 0.00194 0.00652 0.00392 0.00977 0.00586 0.42384-0.19057 0.87775-0.32481 1.3535-0.39062l-0.80664-0.44531c-0.0026232-0.0019277-0.0052275-0.0038809-0.0078125-0.0058594-0.14673-0.084714-0.28263-0.18156-0.41016-0.28711-0.00135 4.528e-4 -0.00256 0.0015-0.00391 0.00195-0.036316-0.030054-0.068668-0.063991-0.10351-0.0957-0.023525-0.021449-0.04755-0.042328-0.070312-0.064453-0.045411-0.044044-0.088308-0.089889-0.13086-0.13672-0.0086875-0.0095825-0.016835-0.019611-0.025391-0.029297-0.096349-0.10883-0.18576-0.22356-0.26562-0.3457-0.03452-0.052798-0.06645-0.10705-0.097656-0.16211-0.012899-0.022796-0.026767-0.045244-0.039062-0.068359-0.094314-0.17715-0.17093-0.36614-0.22852-0.5625-0.0069063-0.023366-0.01319-0.046767-0.019531-0.070312-0.016207-0.06075-0.03053-0.12136-0.042969-0.18359-0.0084055-0.041388-0.01482-0.083201-0.021484-0.125-0.0061457-0.039357-0.014922-0.077325-0.019531-0.11719-0.0031154-0.026943-0.0034579-0.054869-0.0058594-0.082031-0.0061118-0.067108-0.010155-0.13342-0.011719-0.20117-5.132e-4 -0.022941-0.0039062-0.045289-0.0039062-0.068359 0-0.026309 0.00324-0.051983 0.00391-0.078125 9.602e-4 -0.037 0.00351-0.074232 0.00586-0.11133 0.00323-0.052277 0.00587-0.10475 0.011719-0.15625 0.00249-0.021468 0.0068-0.042978 0.00977-0.064453 0.00804-0.059286 0.015916-0.11767 0.027344-0.17578 0.015465-0.078639 0.035201-0.15616 0.056641-0.23242 0.019173-0.068202 0.040694-0.13506 0.064453-0.20117 0.00498-0.013783 0.010449-0.027331 0.015625-0.041016 0.024414-0.064903 0.049443-0.12876 0.078125-0.19141 0.00401-0.00872 0.00958-0.016714 0.013672-0.025391 0.096415-0.20532 0.21512-0.39782 0.35351-0.57422 0.047152-0.060104 0.096903-0.11757 0.14844-0.17383 0.052002-0.056768 0.1059-0.11147 0.16211-0.16406 0.16755-0.15678 0.35233-0.29497 0.55273-0.41016 0.065491-0.037643 0.13265-0.072748 0.20117-0.10547 0.00261-0.00125 0.0052-0.00266 0.00781-0.00391 0.063497-0.030094 0.12747-0.058306 0.19336-0.083984 0.021881-0.0086 0.044281-0.01534 0.066406-0.023437 0.056907-0.02064 0.1134-0.041346 0.17188-0.058594 0.075185-0.022404 0.15103-0.042035 0.22852-0.058594 0.038699-0.00817 0.077942-0.012855 0.11719-0.019531 0.039633-0.00685 0.079005-0.0162 0.11914-0.021484 0.016179-0.00213 0.032632-0.00205 0.048828-0.00391 0.023436-0.00263 0.046713-0.00572 0.070312-0.00781 0.07985-0.0072546 0.15926-0.012761 0.23828-0.013668 0.0072-8.264e-5 0.014288 3.05e-5 0.021484 0 0.017028-7.22e-5 0.03379 0.00173 0.050781 0.00195 0.073432 9.44e-4 0.14616 0.00543 0.21875 0.011719 0.029429 0.00248 0.058716 0.0045 0.087891 0.00781 0.063064 0.00734 0.12534 0.016062 0.1875 0.027344 0.058058 0.010345 0.11505 0.0235 0.17188 0.037109 0.042996 0.010438 0.086506 0.020901 0.12891 0.033203 0.044111 0.012656 0.087621 0.026425 0.13086 0.041016 0.030909 0.010521 0.061277 0.021692 0.091797 0.033203 0.046765 0.017513 0.093065 0.034947 0.13867 0.054687 0.063693 0.02771 0.12591 0.057819 0.1875 0.089844 0.057791 0.029963 0.11443 0.062168 0.16992 0.095703 0.00399 0.00241 0.00774 0.00538 0.011719 0.00781 0.00323 0.00197 0.00654 0.00387 0.00977 0.00586 0.052926 0.032602 0.10559 0.065827 0.15625 0.10156 0.00267 0.00188 0.00515 0.00397 0.00781 0.00586 0.013309 0.00945 0.025917 0.019632 0.039063 0.029297 0.081149 0.059665 0.15784 0.12403 0.23242 0.19141 0.01708 0.015404 0.036 0.02911 0.05273 0.044922 0.0047 0.00442 9e-3 0.00922 0.01367 0.013672 0.04191 0.040174 0.08158 0.082457 0.12109 0.125 0.0038 0.00406 8e-3 0.00764 0.01172 0.011719 0.0056 0.00613 0.01005 0.013357 0.01563 0.019531 0.04022 0.044522 0.08163 0.087862 0.11914 0.13477 0.0015 0.00182 0.0025 0.00404 0.0039 0.00586 9e-3 0.011325 0.01654 0.023698 0.02539 0.035156 0.06893 0.089226 0.13274 0.18242 0.19141 0.2793 0.0076 0.012612 0.01596 0.024359 0.02344 0.037109 0.0038 0.00654 0.0079 0.01296 0.01172 0.019531 0.02711 0.047105 0.05159 0.09584 0.07617 0.14453 0.0047 0.00937 0.01097 0.017911 0.01563 0.027344 0.0066 0.013399 0.01119 0.027554 0.01758 0.041016 0.02631 0.055587 0.05324 0.11054 0.07617 0.16797 0.0013 0.00323 0.0026 0.00654 0.0039 0.00977 0.0099 0.025097 0.01809 0.050743 0.02734 0.076172 0.01772 0.04868 0.03553 0.096645 0.05078 0.14648 0.0054 0.017411 0.0086 0.035263 0.01367 0.052734 0.01888 0.065435 0.0365 0.13113 0.05078 0.19727 0.0077 0.036181 0.0131 0.072714 0.01953 0.10938 0.0096 0.054008 0.01882 0.10786 0.02539 0.16211 0.0037 0.031232 7e-3 0.062224 0.0098 0.09375 0.0071 0.079392 0.01097 0.15886 0.01172 0.23828 8.44e-5 0.010506 0.0019304 0.020722 0.0019304 0.031252-3e-6 0.00325 1.4e-5 0.00651 0 0.00977-4.13e-4 0.098515-0.0075 0.19713-0.01758 0.29492-0.0039 0.038793-0.0083 0.076904-0.01367 0.11523-0.0081 0.056877-0.01798 0.11359-0.0293 0.16992-0.0077 0.038599-0.01432 0.077196-0.02344 0.11523-0.01878 0.077705-0.04146 0.15436-0.06641 0.23047v0.0019487c-0.0191 0.058285-0.04195 0.11525-0.06445 0.17188-0.012 0.030155-0.02411 0.060046-0.03711 0.089844-0.02079 0.047726-0.0413 0.0962-0.06445 0.14258-0.02022 0.040455-0.0443 0.079515-0.06641 0.11914-0.04604 0.082524-0.09506 0.16279-0.14844 0.24023-0.01937 0.028122-0.03819 0.056439-0.05859 0.083984-0.03402 0.045927-0.06893 0.090917-0.10547 0.13477-0.02265 0.027178-0.0466 0.053588-0.07031 0.080078-0.03634 0.040588-0.07285 0.080598-0.11133 0.11914l-2e-3 0.00195c-0.06657 0.066609-0.13434 0.13129-0.20698 0.19141-0.069699-0.023422-0.14208-0.041568-0.21289-0.0625-0.04444-0.0065236-0.087799-0.019006-0.12891-0.037109-0.50164-0.13616-1.0274-0.21289-1.5723-0.21289-0.16206 0-0.32168 0.0068483-0.48047 0.019531l2.7676 1.5293c1.3226 0.67561 2.2957 1.9211 2.6055 3.4219 4.26e-4 2e-3 0.0015 0.0038 2e-3 0.0059 0.0016 0.0077 0.0024 0.0157 0.0039 0.02344 0.01963 0.09807 0.03886 0.19675 0.05273 0.29688 6.51e-4 0.0046 0.0013 0.0091 2e-3 0.01367 0.0053 0.0388 0.0073 0.07809 0.01172 0.11719 8e-3 0.07093 0.01648 0.14106 0.02148 0.21289 2.85e-4 4e-3 0.0017 0.0078 2e-3 0.01172 0.007598 0.11461 0.011592 0.23086 0.011592 0.34761v3.5c0 0.27614 0.22386 0.5 0.5 0.5s0.5-0.22386 0.5-0.5v-3.5c0-2.263-1.2512-4.2299-3.0996-5.252 0.68033-0.71762 1.0996-1.6851 1.0996-2.748 0-2.2032-1.7968-4-4-4z" style="fill-opacity:.5;fill:currentColor"/>
</svg>
