<?xml version="1.0" encoding="UTF-8"?>
<!-- Created with Inkscape (http://www.inkscape.org/) -->
<svg width="16" height="16" version="1.1" xmlns="http://www.w3.org/2000/svg" xmlns:cc="http://creativecommons.org/ns#" xmlns:dc="http://purl.org/dc/elements/1.1/" xmlns:rdf="http://www.w3.org/1999/02/22-rdf-syntax-ns#">
	<defs>
		<style id="current-color-scheme" type="text/css">.ColorScheme-Text {
			color:#090d11;
			}
			.ColorScheme-Background{
			color:#ffffff;
			}</style>
	</defs>
	<metadata>
		<rdf:RDF>
			<cc:Work rdf:about="">
				<dc:format>image/svg+xml</dc:format>
				<dc:type rdf:resource="http://purl.org/dc/dcmitype/StillImage"/>
			</cc:Work>
		</rdf:RDF>
	</metadata>
	<path class="ColorScheme-Background" d="m2 1c-1.0907 0-2 0.9093-2 2v10c0 1.0907 0.9093 2 2 2h12c1.0907 0 2-0.9093 2-2v-10c0-1.0907-0.9093-2-2-2h-12zm0 1h12c0.554 0 1 0.446 1 1v10c0 0.554-0.446 1-1 1h-12c-0.554 0-1-0.446-1-1v-10c0-0.554 0.446-1 1-1zm1.4648 9a0.50005 0.50005 0 0 0 0.035156 1h3a0.50005 0.50005 0 1 0 0-1h-3a0.50005 0.50005 0 0 0-0.035156 0z" style="fill-opacity:.5;fill:currentColor"/>
	<path class="ColorScheme-Text" d="m2 2c-0.554 0-1 0.446-1 1v10c0 0.554 0.446 1 1 1h12c0.554 0 1-0.446 1-1v-10c0-0.554-0.446-1-1-1zm1.5 9h3a0.50005 0.50005 0 1 1 0 1h-3a0.50005 0.50005 0 1 1 0-1z" style="fill-opacity:.75;fill:currentColor"/>
</svg>
