<?xml version="1.0" encoding="UTF-8"?>
<svg id="b" width="16" height="16" version="1.1" xmlns="http://www.w3.org/2000/svg" xmlns:cc="http://creativecommons.org/ns#" xmlns:dc="http://purl.org/dc/elements/1.1/" xmlns:rdf="http://www.w3.org/1999/02/22-rdf-syntax-ns#">
	<metadata id="a">
		<rdf:RDF>
			<cc:Work rdf:about="">
				<dc:format>image/svg+xml</dc:format>
				<dc:type rdf:resource="http://purl.org/dc/dcmitype/StillImage"/>
				<dc:title/>
			</cc:Work>
		</rdf:RDF>
	</metadata>
	<defs>
		<style id="current-color-scheme" type="text/css">.ColorScheme-Text {color:#090d11;}.ColorScheme-Background{color:#ffffff;}</style>
	</defs>
	<path id="f" d="m9 1 3 10h2l1 3-1 1h-12l-1-1 1-3h2l3-10z" style="fill:currentColor;fill-opacity:0.75;" class="ColorScheme-Text"/>
	<path id="d" d="m7 0a1.0001 1.0001 0 0 0 -0.95703 0.71289l-2.7871 9.2871h-1.2559a1.0001 1.0001 0 0 0 -0.94922 0.68555l-1 3a1.0001 1.0001 0 0 0 0.24219 1.0215l1 1a1.0001 1.0001 0 0 0 0.70703 0.29297h12a1.0001 1.0001 0 0 0 0.70703 -0.29297l1-1a1.0001 1.0001 0 0 0 0.24219 -1.0215l-1-3a1.0001 1.0001 0 0 0 -0.94922 -0.68555h-1.2559l-2.7871-9.2871a1.0001 1.0001 0 0 0 -0.95703 -0.71289h-2zm0 1h2l3 10h2l1 3-1 1h-12l-1-1 1-3h2z" style="fill:currentColor;fill-opacity:0.5;" class="ColorScheme-Background"/>
</svg>
