<?xml version="1.0" encoding="UTF-8"?>
<svg id="h" width="16" height="16" version="1.1" xmlns="http://www.w3.org/2000/svg" xmlns:cc="http://creativecommons.org/ns#" xmlns:dc="http://purl.org/dc/elements/1.1/" xmlns:rdf="http://www.w3.org/1999/02/22-rdf-syntax-ns#">
	<metadata id="b">
		<rdf:RDF>
			<cc:Work rdf:about="">
				<dc:format>image/svg+xml</dc:format>
				<dc:type rdf:resource="http://purl.org/dc/dcmitype/StillImage"/>
				<dc:title/>
			</cc:Work>
		</rdf:RDF>
	</metadata>
	<defs id="f">
		<style id="current-color-scheme" type="text/css">.ColorScheme-Text {color:#090d11;}.ColorScheme-Background{color:#ffffff;}</style>
	</defs>
	<path id="a" class="ColorScheme-Text" d="m2 4c-0.554 0-1 0.446-1 1v9c0 0.554 0.446 1 1 1h9c0.554 0 1-0.446 1-1v-2h-2v1h-7v-7h7v4h2v-5c0-0.554-0.446-1-1-1z" style="fill-opacity:.3;fill:currentColor"/>
	<path id="i" class="ColorScheme-Text" d="m5 1c-0.554 0-1 0.446-1 1v2h2v-1h7v7h-7v-4h-2v5c0 0.554 0.446 1 1 1h9c0.554 0 1-0.446 1-1v-9c0-0.554-0.446-1-1-1z" style="fill-opacity:.75;fill:currentColor"/>
	<path id="e" class="ColorScheme-Background" d="m5 0c-1.0907 0-2 0.9093-2 2v1h-1c-1.0907 0-2 0.9093-2 2v9c0 1.0907 0.9093 2 2 2h9c1.0907 0 2-0.9093 2-2v-1h1c1.0907 0 2-0.9093 2-2v-9c0-1.0907-0.9093-2-2-2zm0 1h9c0.554 0 1 0.446 1 1v9c0 0.554-0.446 1-1 1h-2v2c0 0.554-0.446 1-1 1h-9c-0.554 0-1-0.446-1-1v-9c0-0.554 0.446-1 1-1h2v-2c0-0.554 0.446-1 1-1zm1 2v1h5c0.554 0 1 0.446 1 1v5h1v-7zm-3 3v7h7v-1h-5c-0.554 0-1-0.446-1-1v-5zm3 0v4h4v-4zm1 1h2v2h-2z" style="fill-opacity:.5;fill:currentColor"/>
</svg>
