<?xml version="1.0" encoding="UTF-8"?>
<svg id="g" width="16" height="16" version="1.1" xmlns="http://www.w3.org/2000/svg" xmlns:cc="http://creativecommons.org/ns#" xmlns:dc="http://purl.org/dc/elements/1.1/" xmlns:rdf="http://www.w3.org/1999/02/22-rdf-syntax-ns#">
	<metadata id="b">
		<rdf:RDF>
			<cc:Work rdf:about="">
				<dc:format>image/svg+xml</dc:format>
				<dc:type rdf:resource="http://purl.org/dc/dcmitype/StillImage"/>
				<dc:title/>
			</cc:Work>
		</rdf:RDF>
	</metadata>
	<defs id="c">
		<style id="current-color-scheme" type="text/css">.ColorScheme-Text {color:#090d11;}.ColorScheme-Background{color:#ffffff;}</style>
	</defs>
	<path id="a" d="m1 1v14h14v-14h-14zm9.4727 1.9277c0.53269-0.00223 1.0504 0.17621 1.4688 0.50586l-0.45703 0.67383c-0.29067-0.22716-0.64358-0.36095-1.0117-0.38477-0.31301 0-0.50586 0.14465-0.50586 0.36133 0 0.26485 0.16958 0.36075 0.84375 0.5293 0.7946 0.21667 1.252 0.5049 1.252 1.2031 0 0.7946-0.60262 1.252-1.4453 1.252-0.6185-0.02274-1.2119-0.25186-1.6855-0.65039l0.50586-0.625c0.36116 0.28892 0.72222 0.48047 1.1797 0.48047 0.36114 0 0.57812-0.14399 0.57812-0.38477 1e-6 -0.21669-0.14483-0.33731-0.79492-0.50586-0.79452-0.2167-1.2988-0.43201-1.2988-1.2266v-0.025391c0-0.7223 0.57657-1.2031 1.3711-1.2031zm-7.4727 0.072266h0.9375l0.60156 2.3105 0.67578-2.3105h0.67383l0.67383 2.3105 0.60156-2.3105h0.93945l-1.1562 3.9961h-0.74609l-0.65039-2.3105-0.65039 2.3105h-0.74609l-1.1543-3.9961zm0 9h4v1h-4v-1z" style="fill-opacity:.75;fill:currentColor" class="ColorScheme-Text"/>
	<path id="f" d="m0 0v1 15h16v-16h-16zm1 1h14v14h-14v-14zm9.4727 1.9277c-0.79452 4e-7 -1.3711 0.48082-1.3711 1.2031v0.025391c0 0.79455 0.50431 1.0099 1.2988 1.2266 0.65009 0.16855 0.79492 0.28917 0.79492 0.50586 0 0.24078-0.21698 0.38477-0.57812 0.38477-0.45747 0-0.81853-0.19155-1.1797-0.48047l-0.50586 0.625c0.47362 0.39853 1.067 0.62765 1.6855 0.65039 0.84269 0 1.4453-0.45735 1.4453-1.252 0-0.69823-0.45735-0.98645-1.252-1.2031-0.67417-0.16855-0.84375-0.26445-0.84375-0.5293 0-0.21668 0.19285-0.36133 0.50586-0.36133 0.36814 0.02382 0.72105 0.15761 1.0117 0.38477l0.45703-0.67383c-0.41839-0.32965-0.93606-0.50809-1.4688-0.50586zm-7.4727 0.072266l1.1543 3.9961h0.74609l0.65039-2.3105 0.65039 2.3105h0.74609l1.1562-3.9961h-0.93945l-0.60156 2.3105-0.67383-2.3105h-0.67383l-0.67578 2.3105-0.60156-2.3105h-0.9375zm0 9v1h4v-1h-4z" style="fill-opacity:.5;fill:currentColor" class="ColorScheme-Background"/>
</svg>
