<?xml version="1.0" encoding="UTF-8"?>
<!-- Created with Inkscape (http://www.inkscape.org/) -->
<svg width="16" height="16" version="1.1" xmlns="http://www.w3.org/2000/svg" xmlns:cc="http://creativecommons.org/ns#" xmlns:dc="http://purl.org/dc/elements/1.1/" xmlns:rdf="http://www.w3.org/1999/02/22-rdf-syntax-ns#">
	<defs>
		<style id="current-color-scheme" type="text/css">.ColorScheme-Text {color:#090d11;}.ColorScheme-Background{color:#ffffff;}</style>
	</defs>
	<metadata>
		<rdf:RDF>
			<cc:Work rdf:about="">
				<dc:format>image/svg+xml</dc:format>
				<dc:type rdf:resource="http://purl.org/dc/dcmitype/StillImage"/>
			</cc:Work>
		</rdf:RDF>
	</metadata>
	<path id="h" class="ColorScheme-Background" d="m8-0.054688-0.31641 0.10547-6.6836 2.2285v11.441l7 2.334 7-2.334v-11.441zm0 1.0547 6 2v10l-6 2-6-2v-10zm-3 3v2h3.5859l-3.5859 3.5859v2.4141h6v-2h-3.5859l3.5859-3.5859v-2.4141z" style="fill-opacity:.5;fill:currentColor"/>
	<path id="e" class="ColorScheme-Text" d="m8 1-6 2v10l6 2 6-2v-10zm-3 3h6v2.4141l-3.5859 3.5859h3.5859v2h-6v-2.4141l3.5859-3.5859h-3.5859z" style="fill-opacity:.75;fill:currentColor"/>
</svg>
