<?xml version="1.0" encoding="UTF-8"?>
<svg id="d" width="22" height="22" version="1.1" xmlns="http://www.w3.org/2000/svg" xmlns:cc="http://creativecommons.org/ns#" xmlns:dc="http://purl.org/dc/elements/1.1/" xmlns:rdf="http://www.w3.org/1999/02/22-rdf-syntax-ns#">
	<metadata id="a">
		<rdf:RDF>
			<cc:Work rdf:about="">
				<dc:format>image/svg+xml</dc:format>
				<dc:type rdf:resource="http://purl.org/dc/dcmitype/StillImage"/>
				<dc:title/>
			</cc:Work>
		</rdf:RDF>
	</metadata>
	<defs>
		<style id="current-color-scheme" type="text/css">.ColorScheme-Text {color:#090d11;}.ColorScheme-Background{color:#ffffff;}</style>
	</defs>
	<g id="b" transform="translate(3316.4 -2094.7)">
		<path id="c" class="ColorScheme-Text" d="m-3295.7 2096.2c-0.1298 0-0.2531 0.057-0.3438 0.1504l-9.3281 9.3281v-0.2676l-4.5938 4.5938c0.041 0.044 0.084 0.097 0.125 0.1426l-4.2031 4.2031c-0.4928 0.4712 0.2358 1.1998 0.707 0.707l4.1582-4.1582c0.8047 0.9077 1.7399 1.8047 3.1035 1.8047 0.4891 0 0.7032-3e-4 0.7032-0.6562v-4.9551l1.9297-1.9297c0.043 0.1727 0.07 0.3517 0.07 0.541 0 0.8126-0.4099 1.5147-1 1.8633v1.0918c1.2048-0.4062 2-1.611 2-2.9551 0-0.4714-0.1028-0.9213-0.2832-1.3281l1.4531-1.4531c0.5192 0.7945 0.83 1.7458 0.83 2.7812 0 2.4787-1.7246 4.5202-4 4.9551v1.0117c2.831-0.4485 5-2.9561 5-5.9668 0-1.3075-0.4167-2.5104-1.1152-3.4961l1.4199-1.4199c1.0575 1.356 1.6953 3.0569 1.6953 4.916 0 4.093-3.0514 7.454-7 7.9414v1.0078c4.4943-0.4949 8-4.316 8-8.9492 0-2.1302-0.7521-4.0796-1.9902-5.6211l3.0254-3.0254c0.3252-0.318 0.091-0.8698-0.3632-0.8574zm-8.6719 0.5547v1.0078c1.3902 0.1716 2.6645 0.7055 3.7383 1.4961l0.7129-0.7129c-1.2644-0.9659-2.7888-1.608-4.4512-1.791zm-1.7031 1.9492c-2.5713 0-3.6341 3.2257-5.1426 3.6309-2.5299 0.7381-3.1543 0.5689-3.1543 1.9688v2.8008c0 1.4 0.6244 1.2306 3.1543 1.9688 0.1771 0.048 0.3476 0.1383 0.5156 0.2539l5.3301-5.3301v-4.6367c0-0.656-0.2141-0.6563-0.7031-0.6563zm1.7031 1.0352v1.0098c0.582 0.1112 1.1249 0.3309 1.6152 0.6328l0.7051-0.7051c-0.6903-0.4641-1.4696-0.8027-2.3203-0.9375z" style="fill-opacity:.75;fill:currentColor;opacity:.35"/>
	</g>
</svg>
