<?xml version="1.0" encoding="UTF-8"?>
<!-- Created with Inkscape (http://www.inkscape.org/) -->
<svg width="22" height="22" version="1.1" xmlns="http://www.w3.org/2000/svg" xmlns:cc="http://creativecommons.org/ns#" xmlns:dc="http://purl.org/dc/elements/1.1/" xmlns:rdf="http://www.w3.org/1999/02/22-rdf-syntax-ns#">
	<metadata>
		<rdf:RDF>
			<cc:Work rdf:about="">
				<dc:format>image/svg+xml</dc:format>
				<dc:type rdf:resource="http://purl.org/dc/dcmitype/StillImage"/>
			</cc:Work>
		</rdf:RDF>
	</metadata>
	<defs id="e">
		<style id="current-color-scheme" type="text/css">.ColorScheme-NegativeText { color:#fa0473; }
			.ColorScheme-Text { color:#090d11; }
			.ColorScheme-Background { color:#ffffff; }</style>
	</defs>
	<path class="ColorScheme-Background" d="m10 1c-0.7507 0-1.2835 0.5009-1.625 1.125-1.8921 0.3123-3.375 1.9003-3.375 3.875v10c0 2.194 1.8059 4 4 4h4c2.194 0 3.9999-1.806 4-4v-10c0-1.9704-1.489-3.5576-3.375-3.875-0.3416-0.6241-0.8744-1.125-1.625-1.125zm0 1h2c0.554 0 1 0.446 1 1 1.6447 0 3 1.3553 3 3v10c0 1.6447-1.3553 3-3 3h-4c-1.6447 0-3-1.3553-3-3v-10c0-1.6447 1.3553-3 3-3 0-0.554 0.446-1 1-1z" style="fill-opacity:.5;fill:currentColor"/>
	<path class="ColorScheme-Text" d="m10 2c-0.554 0-1 0.446-1 1-1.6447 0-3 1.3553-3 3v10c0 1.6447 1.3553 3 3 3h4c1.6447 0 3-1.3553 3-3v-10c0-1.6447-1.3553-3-3-3 0-0.554-0.446-1-1-1zm-1 2h4c1.108 0 2 0.892 2 2v10c0 0.15803-0.02228 0.30983-0.05664 0.45703-0.0024 0.01028-0.0033 0.02103-0.0059 0.03125-0.13309 0.5311-0.47555 0.97771-0.9375 1.2441-0.29408 0.16962-0.63478 0.26758-1 0.26758h-4c-0.36522 0-0.70592-0.09795-1-0.26758-0.46195-0.26642-0.80441-0.71304-0.9375-1.2441-0.00256-0.01024-0.00344-0.02097-0.00586-0.03125-0.0099-0.04199-0.020214-0.08395-0.027344-0.12695-0.017778-0.10768-0.029256-0.21715-0.029256-0.33008v-10c0-1.108 0.892-2 2-2zm-3.3613 12.33c0.011988 0.05352 0.027336 0.10623 0.044922 0.1582-0.017549-0.05205-0.032971-0.10459-0.044922-0.1582zm10.723 0c-0.01195 0.05361-0.02736 0.10614-0.04492 0.1582 0.01758-0.05197 0.0329-0.10467 0.04492-0.1582z" style="fill-opacity:.75;fill:currentColor"/>
	<path class="ColorScheme-NegativeText error " d="m7 16c0 0.11293 0.011478 0.2224 0.029297 0.33008 0.00713 0.043 0.017444 0.08496 0.027344 0.12695 0.00242 0.01028 0.0033 0.02101 0.00586 0.03125 0.13309 0.5311 0.47555 0.97768 0.9375 1.2441 0.29408 0.16963 0.63478 0.26758 1 0.26758h4c0.36522 0 0.70592-0.09796 1-0.26758 0.46195-0.26643 0.80441-0.713 0.9375-1.2441 0.0026-0.01022 0.0035-0.02097 0.0059-0.03125 0.034358-0.1472 0.056599-0.299 0.056599-0.45703zm-1.3613 0.33008c0.011951 0.05361 0.027373 0.10615 0.044922 0.1582-0.017586-0.05197-0.032934-0.10468-0.044922-0.1582zm10.723 0c-0.01202 0.05353-0.02734 0.10623-0.04492 0.1582 0.01756-0.05206 0.03297-0.10459 0.04492-0.1582z" style="fill:currentColor"/>
</svg>
