<?xml version="1.0" encoding="UTF-8"?>
<!-- Created with Inkscape (http://www.inkscape.org/) -->
<svg width="22" height="22" version="1.1" xmlns="http://www.w3.org/2000/svg" xmlns:cc="http://creativecommons.org/ns#" xmlns:dc="http://purl.org/dc/elements/1.1/" xmlns:rdf="http://www.w3.org/1999/02/22-rdf-syntax-ns#">
	<metadata>
		<rdf:RDF>
			<cc:Work rdf:about="">
				<dc:format>image/svg+xml</dc:format>
				<dc:type rdf:resource="http://purl.org/dc/dcmitype/StillImage"/>
			</cc:Work>
		</rdf:RDF>
	</metadata>
	<defs id="e">
		<style id="current-color-scheme" type="text/css">.ColorScheme-Text {color:#090d11;}
			.ColorScheme-Background{color:#ffffff;}</style>
	</defs>
	<path class="ColorScheme-Text" d="m10 2c-0.554 0-1 0.446-1 1-1.6447 0-3 1.3553-3 3v10c0 1.6447 1.3553 3 3 3h4c1.6447 0 3-1.3553 3-3v-10c0-1.6447-1.3553-3-3-3 0-0.554-0.446-1-1-1zm-1 2h4c1.108 0 2 0.892 2 2v2h-2.4609l-0.39258 1.0488a1.5002 1.5002 0 0 1 1.2773 1.9258l-1.5 4.5a1.5 1.5 0 0 1-1.8984 0.94922 1.5 1.5 0 0 1-0.94922-1.8984l0.85352-2.5625a1.5002 1.5002 0 0 1-1.334-1.9902l0.74023-1.9727h-2.3359v-2c0-1.108 0.892-2 2-2zm2.5 1.8535a0.65 0.65 0 0 0-0.07422 0.00781 0.65 0.65 0 0 0-0.15039 0.035156 0.65 0.65 0 0 0-0.08399 0.037109 0.65 0.65 0 0 0-0.12109 0.087891 0.65 0.65 0 0 0-0.05859 0.052734 0.65 0.65 0 0 0-0.12109 0.19727l-0.64844 1.7285-0.85156 2.2715a0.65006 0.65006 0 0 0 0.60938 0.87891h1.0977l-1.2148 3.6445a0.65 0.65 0 0 0 0.41211 0.82227 0.65 0.65 0 0 0 0.82227-0.41211l1.5-4.5a0.65006 0.65006 0 0 0-0.61719-0.85547h-1.0605l0.69336-1.8496 0.47656-1.2715a0.65 0.65 0 0 0 0.02539-0.087891 0.65 0.65 0 0 0 0.0078-0.039062 0.65 0.65 0 0 0 0.0059-0.058594 0.65 0.65 0 0 0 2e-3 -0.033203 0.65 0.65 0 0 0-0.0039-0.068359 0.65 0.65 0 0 0 0-0.013672 0.65 0.65 0 0 0-2e-3 -0.00781 0.65 0.65 0 0 0-0.01758-0.089844 0.65 0.65 0 0 0 0-0.00391 0.65 0.65 0 0 0 0-0.00195 0.65 0.65 0 0 0-0.0332-0.09375 0.65 0.65 0 0 0-0.05078-0.089844 0.65 0.65 0 0 0-0.04102-0.054688 0.65 0.65 0 0 0-0.02148-0.025391 0.65 0.65 0 0 0-0.01172-0.00977 0.65 0.65 0 0 0-0.04883-0.046875 0.65 0.65 0 0 0-0.0293-0.023437 0.65 0.65 0 0 0-0.01172-0.00977 0.65 0.65 0 0 0-0.05859-0.037109 0.65 0.65 0 0 0-0.01367-0.00781 0.65 0.65 0 0 0-0.07813-0.035156 0.65 0.65 0 0 0-0.22852-0.037109z" style="fill-opacity:.75;fill:currentColor"/>
</svg>
