<?xml version="1.0" encoding="UTF-8"?>
<svg id="c" width="22" height="22" version="1.1" xmlns="http://www.w3.org/2000/svg" xmlns:cc="http://creativecommons.org/ns#" xmlns:dc="http://purl.org/dc/elements/1.1/" xmlns:rdf="http://www.w3.org/1999/02/22-rdf-syntax-ns#">
	<metadata id="a">
		<rdf:RDF>
			<cc:Work rdf:about="">
				<dc:format>image/svg+xml</dc:format>
				<dc:type rdf:resource="http://purl.org/dc/dcmitype/StillImage"/>
				<dc:title/>
			</cc:Work>
		</rdf:RDF>
	</metadata>
	<defs id="e">
		<style id="current-color-scheme" type="text/css">.ColorScheme-Text{color:#090d11;}.ColorScheme-Background{color:#ffffff;}</style>
	</defs>
	<g id="b" transform="translate(3316.4 -2094.7)">
		<path id="d" d="m-3306.4 2097.7c-0.554 0-1 0.446-1 1-1.6447 0-3 1.3553-3 3v9c0 1.6447 1.3553 3 3 3h4c1.6447 0 3-1.3553 3-3v-9c0-1.6447-1.3553-3-3-3 0-0.554-0.446-1-1-1zm-1 2.0003h4c1.1424 0 2.1612 0.8688 1.9997 1.9997l3e-4 7h-8l3e-4 -7c1e-4 -1.1424 0.8573-1.9996 1.9997-1.9997z" style="fill-opacity:.75;fill:currentColor;" class="ColorScheme-Text" />
		<path id="e" d="m-3306.4 2096.7c-0.7507 0-1.2835 0.5009-1.625 1.125-1.8921 0.3123-3.375 1.9003-3.375 3.875v9c0 2.194 1.8059 4 4 4h4c2.194 0 3.9999-1.806 4-4v-9c0-1.9704-1.489-3.5576-3.375-3.875-0.3416-0.6241-0.8744-1.125-1.625-1.125zm0 1h2c0.554 0 1 0.446 1 1 1.6447 0 3 1.3553 3 3v9c0 1.6447-1.3553 3-3 3h-4c-1.6447 0-3-1.3553-3-3v-9c0-1.6447 1.3553-3 3-3 0-0.554 0.446-1 1-1zm-3 10v1h8v-1z" style="fill:currentColor;fill-opacity:0.5;" class="ColorScheme-Background"/>
	</g>
</svg>
