<?xml version="1.0" encoding="UTF-8"?>
<!-- Created with Inkscape (http://www.inkscape.org/) -->
<svg width="22" height="22" version="1.1" xmlns="http://www.w3.org/2000/svg" xmlns:cc="http://creativecommons.org/ns#" xmlns:dc="http://purl.org/dc/elements/1.1/" xmlns:rdf="http://www.w3.org/1999/02/22-rdf-syntax-ns#">
	<metadata>
		<rdf:RDF>
			<cc:Work rdf:about="">
				<dc:format>image/svg+xml</dc:format>
				<dc:type rdf:resource="http://purl.org/dc/dcmitype/StillImage"/>
			</cc:Work>
		</rdf:RDF>
	</metadata>
	<defs id="e">
		<style id="current-color-scheme" type="text/css">.ColorScheme-Text {color:#090d11;}
			.ColorScheme-Background{color:#ffffff;}</style>
	</defs>
	<path class="ColorScheme-Background" d="m10 1c-0.7507 0-1.2835 0.5009-1.625 1.125-1.8921 0.3123-3.375 1.9003-3.375 3.875v10c0 2.194 1.8059 4 4 4h4c2.194 0 3.9999-1.806 4-4v-10c0-1.9704-1.489-3.5576-3.375-3.875-0.3416-0.6241-0.8744-1.125-1.625-1.125zm0 1h2c0.554 0 1 0.446 1 1 1.6447 0 3 1.3553 3 3v10c0 1.6447-1.3553 3-3 3h-4c-1.6447 0-3-1.3553-3-3v-10c0-1.6447 1.3553-3 3-3 0-0.554 0.446-1 1-1zm1.3652 3.0059a1.5 1.5 0 0 0-1.2695 0.9668l-1.5 4a1.5002 1.5002 0 0 0-0.00586 0.02734h-1.5898v1h1.6113a1.5002 1.5002 0 0 0 1.3184 0.96289l-0.85352 2.5625a1.5 1.5 0 0 0 0.94922 1.8984 1.5 1.5 0 0 0 1.8984-0.94922l1.4922-4.4746h1.584v-1h-1.6152a1.5002 1.5002 0 0 0-1.2383-0.95117l0.75781-2.0215a1.5 1.5 0 0 0-0.87695-1.9316 1.5 1.5 0 0 0-0.66211-0.089844zm0.16406 0.84375a0.65 0.65 0 0 1 0.19922 0.041016 0.65 0.65 0 0 1 0.38086 0.83789l-1.1699 3.1211h1.0605a0.65006 0.65006 0 0 1 0.45117 0.18359 0.65006 0.65006 0 0 1 0.0098 0.0078 0.65006 0.65006 0 0 1 0.0625 0.07226 0.65006 0.65006 0 0 1 0.0039 0.0059 0.65006 0.65006 0 0 1 0.0039 0.0059 0.65006 0.65006 0 0 1 0.04297 0.07227 0.65006 0.65006 0 0 1 0.0059 0.0098 0.65006 0.65006 0 0 1 0.0059 0.01172 0.65006 0.65006 0 0 1 0.02539 0.0625 0.65006 0.65006 0 0 1 0.01172 0.0332 0.65006 0.65006 0 0 1 0.01953 0.08399 0.65006 0.65006 0 0 1 0 0.0039 0.65006 0.65006 0 0 1 0.0078 0.09375 0.65006 0.65006 0 0 1 0 0.0078 0.65006 0.65006 0 0 1-2e-3 0.01367 0.65006 0.65006 0 0 1-0.0039 0.05859 0.65006 0.65006 0 0 1-0.0078 0.05078 0.65006 0.65006 0 0 1 0 2e-3 0.65006 0.65006 0 0 1-0.01953 0.07617l-0.09766 0.29492-1.4023 4.2051a0.65 0.65 0 0 1-0.82227 0.41211 0.65 0.65 0 0 1-0.41211-0.82227l1.2148-3.6445h-1.0977a0.65006 0.65006 0 0 1-0.42383-0.16406 0.65006 0.65006 0 0 1-0.11328-0.14062 0.65006 0.65006 0 0 1-0.046875-0.06641 0.65006 0.65006 0 0 1-0.050782-0.19531 0.65006 0.65006 0 0 1-0.013672-0.05469 0.65006 0.65006 0 0 1 0.039063-0.25781l0.10156-0.27148 1.3984-3.7285a0.65 0.65 0 0 1 0.63867-0.42188z" style="fill-opacity:.5;fill:currentColor"/>
	<path class="ColorScheme-Text" d="m10 2c-0.554 0-1 0.446-1 1-1.6447 0-3 1.3553-3 3v10c0 1.6447 1.3553 3 3 3h4c1.6447 0 3-1.3553 3-3v-10c0-1.6447-1.3553-3-3-3 0-0.554-0.446-1-1-1zm-1 2h4c1.108 0 2 0.892 2 2v5h-1.584l-1.4922 4.4746a1.5 1.5 0 0 1-1.8984 0.94922 1.5 1.5 0 0 1-0.94922-1.8984l0.85352-2.5625a1.5002 1.5002 0 0 1-1.3184-0.96289h-1.6113v-5c0-1.108 0.892-2 2-2zm2.5 1.8535a0.65 0.65 0 0 0-0.07422 0.00781 0.65 0.65 0 0 0-0.15039 0.035156 0.65 0.65 0 0 0-0.08399 0.037109 0.65 0.65 0 0 0-0.12109 0.087891 0.65 0.65 0 0 0-0.05859 0.052734 0.65 0.65 0 0 0-0.12109 0.19727l-1.5 4a0.65006 0.65006 0 0 0-0.039063 0.25781 0.65006 0.65006 0 0 0 0.013672 0.05469 0.65006 0.65006 0 0 0 0.050782 0.19531 0.65006 0.65006 0 0 0 0.046875 0.06641 0.65006 0.65006 0 0 0 0.11328 0.14062 0.65006 0.65006 0 0 0 0.42383 0.16406h1.0977l-1.2148 3.6445a0.65 0.65 0 0 0 0.41211 0.82227 0.65 0.65 0 0 0 0.82227-0.41211l1.4023-4.2051 0.09766-0.29492a0.65006 0.65006 0 0 0 0.02734-0.12305 0.65006 0.65006 0 0 0 2e-3 -0.02734 0.65006 0.65006 0 0 0 0-0.10156 0.65006 0.65006 0 0 0-2e-3 -0.02734 0.65006 0.65006 0 0 0-0.02539-0.125 0.65006 0.65006 0 0 0-0.04883-0.11133 0.65006 0.65006 0 0 0-0.01758-0.02734 0.65006 0.65006 0 0 0-0.05859-0.08203 0.65006 0.65006 0 0 0-0.01758-0.02148 0.65006 0.65006 0 0 0-0.09375-0.08399 0.65006 0.65006 0 0 0-0.11133-0.06445 0.65006 0.65006 0 0 0-0.0059-0.0039 0.65006 0.65006 0 0 0-0.01172-0.0039 0.65006 0.65006 0 0 0-0.09766-0.03125 0.65006 0.65006 0 0 0-0.03516-0.0098 0.65006 0.65006 0 0 0-0.12109-0.01172h-1.0605l1.1699-3.1211a0.65 0.65 0 0 0 0.02539-0.087891 0.65 0.65 0 0 0 0.0078-0.039062 0.65 0.65 0 0 0 0.0059-0.058594 0.65 0.65 0 0 0 2e-3 -0.033203 0.65 0.65 0 0 0-0.0039-0.068359 0.65 0.65 0 0 0 0-0.013672 0.65 0.65 0 0 0-2e-3 -0.00781 0.65 0.65 0 0 0-0.01758-0.089844 0.65 0.65 0 0 0 0-0.00391 0.65 0.65 0 0 0 0-0.00195 0.65 0.65 0 0 0-0.0332-0.09375 0.65 0.65 0 0 0-0.05078-0.089844 0.65 0.65 0 0 0-0.04102-0.054688 0.65 0.65 0 0 0-0.02148-0.025391 0.65 0.65 0 0 0-0.01172-0.00977 0.65 0.65 0 0 0-0.04883-0.046875 0.65 0.65 0 0 0-0.0293-0.023437 0.65 0.65 0 0 0-0.01172-0.00977 0.65 0.65 0 0 0-0.05859-0.037109 0.65 0.65 0 0 0-0.01367-0.00781 0.65 0.65 0 0 0-0.07813-0.035156 0.65 0.65 0 0 0-0.22852-0.037109z" style="fill-opacity:.75;fill:currentColor"/>
</svg>
