<?xml version="1.0" encoding="UTF-8"?>
<svg id="b" width="22" height="22" version="1.1" xmlns="http://www.w3.org/2000/svg" xmlns:cc="http://creativecommons.org/ns#" xmlns:dc="http://purl.org/dc/elements/1.1/" xmlns:rdf="http://www.w3.org/1999/02/22-rdf-syntax-ns#">
	<metadata id="d">
		<rdf:RDF>
			<cc:Work rdf:about="">
				<dc:format>image/svg+xml</dc:format>
				<dc:type rdf:resource="http://purl.org/dc/dcmitype/StillImage"/>
			</cc:Work>
		</rdf:RDF>
	</metadata>
	<defs id="e">
		<style id="current-color-scheme" type="text/css">.ColorScheme-Text {color:#090d11;}.ColorScheme-Background{color:#ffffff;}</style>
	</defs>
	<g id="network-wired" transform="matrix(.03381 0 0 .03381 118.94 2.6823)" style="opacity:.35;stroke-width:1.0909">
		<g id="f" transform="matrix(29.577,0,0,29.577,-3547.6,-108.9)">
			<path id="c" class="ColorScheme-Text" transform="translate(1,1)" d="m18.646 2.6465-16 16-0.5-0.5c-0.090375 0.09038-0.14648 0.21502-0.14648 0.35352 0 0.277 0.223 0.5 0.5 0.5h0.5l0.35352 0.35352 0.35352-0.35352h6.293v1h2v-1h7.5c0.277 0 0.5-0.223 0.5-0.5s-0.223-0.5-0.5-0.5h-7c0.277 0 0.5-0.223 0.5-0.5s-0.223-0.5-0.5-0.5h-3c-0.277 0-0.5 0.223-0.5 0.5s0.223 0.5 0.5 0.5h-4.793l3-3h1.8242c-0.277 0-0.5 0.223-0.5 0.5s0.223 0.5 0.5 0.5h3c0.277 0 0.5-0.223 0.5-0.5s-0.223-0.5-0.5-0.5h4.4688a1.0001 1.0001 0 0 0 1-1v-9.293l1.3535-1.3535zm-13.834 0.35352a1.0001 1.0001 0 0 0-0.8125 1v10a1.0001 1.0001 0 0 0 1 1h0.29297l2-2h-1.293v-8h9.293l1.9648-1.9648a1.0001 1.0001 0 0 0-0.25781-0.035156h-12a1.0001 1.0001 0 0 0-0.09375 0 1.0001 1.0001 0 0 0-0.09375 0zm11.188 3.707v6.293h-6.293z" style="fill-opacity:.75;fill:currentColor"/>
		</g>
	</g>
</svg>
