<?xml version="1.0" encoding="UTF-8"?>
<!-- Created with Inkscape (http://www.inkscape.org/) -->
<svg width="22" height="22" version="1.1" xmlns="http://www.w3.org/2000/svg" xmlns:cc="http://creativecommons.org/ns#" xmlns:dc="http://purl.org/dc/elements/1.1/" xmlns:rdf="http://www.w3.org/1999/02/22-rdf-syntax-ns#">
	<defs>
		<radialGradient id="b" cx="17" cy="1027" r="9" gradientTransform="matrix(1.8889,0,0,1.8889,-20.111,-1923)" gradientUnits="userSpaceOnUse">
			<stop stop-color="#ffffff" stop-opacity=".74858" offset="0"/>
			<stop stop-color="#ffffff" stop-opacity=".60511" offset="1"/>
		</radialGradient>
		<radialGradient id="e" cx="308.46" cy="-100.09" r="7.254" gradientTransform="matrix(1.9942,0,0,1.93,-603.15,210.1)" gradientUnits="userSpaceOnUse">
			<stop stop-color="#213851" stop-opacity=".9059" offset="0"/>
			<stop stop-color="#27303a" stop-opacity="0" offset="1"/>
		</radialGradient>
	</defs>
	<metadata>
		<rdf:RDF>
			<cc:Work rdf:about="">
				<dc:format>image/svg+xml</dc:format>
				<dc:type rdf:resource="http://purl.org/dc/dcmitype/StillImage"/>
				<dc:title/>
			</cc:Work>
		</rdf:RDF>
	</metadata>
	<g transform="translate(-1,-1)">
		<path d="m5 3c-0.554 0-1 0.446-1 1v12c0 0.554 0.446 1 1 1h5.5313c-0.277 0-0.5-0.223-0.5-0.5s0.223-0.5 0.5-0.5h-5.5312v-0.9062c-0.00147-0.031-0.00147-0.063 0-0.094v-10c-0.00147-0.031-0.00147-0.062 0-0.094v-0.9062h14v0.9062c0.0015 0.031 0.0015 0.063 0 0.094v10c0.0041 0.052 0.0041 0.1043 0 0.1563v0.8437h-5.4688c0.277 0 0.5 0.223 0.5 0.5s-0.223 0.5-0.5 0.5h5.4688c0.554 0 1-0.446 1-1v-12c0-0.554-0.446-1-1-1zm5 14v1h4v-1zm-6.5 3c-0.277 0-0.5 0.223-0.5 0.5s0.223 0.5 0.5 0.5h7.5v-1zm9.5 0v1h7.5c0.277 0 0.5-0.223 0.5-0.5s-0.223-0.5-0.5-0.5z" color="#000000" fill="url(#b)" fill-opacity=".99858" style="paint-order:normal"/>
		<path d="m5.812 4a1.0001 1.0001 0 0 0-0.8125 1v10a1.0001 1.0001 0 0 0 1 1h4.5312c-0.277 0-0.5 0.223-0.5 0.5s0.223 0.5 0.5 0.5h3c0.277 0 0.5-0.223 0.5-0.5s-0.223-0.5-0.5-0.5h4.4688a1.0001 1.0001 0 0 0 1-1v-10a1.0001 1.0001 0 0 0-1-1h-12a1.0001 1.0001 0 0 0-0.09375 0 1.0001 1.0001 0 0 0-0.09375 0zm1.1875 2h10v8h-10zm3.5 12c-0.277 0-0.5 0.223-0.5 0.5s0.223 0.5 0.5 0.5h-7c-0.277 0-0.5 0.223-0.5 0.5s0.223 0.5 0.5 0.5h7.5v1h2v-1h7.5c0.277 0 0.5-0.223 0.5-0.5s-0.223-0.5-0.5-0.5h-7c0.277 0 0.5-0.223 0.5-0.5s-0.223-0.5-0.5-0.5z" color="#000000" fill="#090d11" fill-opacity=".76621" style="paint-order:normal;text-decoration-line:none;text-indent:0;text-transform:none"/>
		<path d="m5.812 4a1.0001 1.0001 0 0 0-0.8125 1v10a1.0001 1.0001 0 0 0 1 1h4.5312c-0.277 0-0.5 0.223-0.5 0.5s0.223 0.5 0.5 0.5h3c0.277 0 0.5-0.223 0.5-0.5s-0.223-0.5-0.5-0.5h4.4688a1.0001 1.0001 0 0 0 1-1v-10a1.0001 1.0001 0 0 0-1-1h-12a1.0001 1.0001 0 0 0-0.09375 0 1.0001 1.0001 0 0 0-0.09375 0zm1.1875 2h10v8h-10zm3.5 12c-0.277 0-0.5 0.223-0.5 0.5s0.223 0.5 0.5 0.5h-7c-0.277 0-0.5 0.223-0.5 0.5s0.223 0.5 0.5 0.5h7.5v1h2v-1h7.5c0.277 0 0.5-0.223 0.5-0.5s-0.223-0.5-0.5-0.5h-7c0.277 0 0.5-0.223 0.5-0.5s-0.223-0.5-0.5-0.5z" color="#000000" fill="url(#e)" style="paint-order:normal;text-decoration-line:none;text-indent:0;text-transform:none"/>
	</g>
</svg>
