<?xml version="1.0" encoding="UTF-8"?>
<svg id="a" width="24" height="24" version="1.0" xmlns="http://www.w3.org/2000/svg" xmlns:cc="http://creativecommons.org/ns#" xmlns:dc="http://purl.org/dc/elements/1.1/" xmlns:rdf="http://www.w3.org/1999/02/22-rdf-syntax-ns#">
	<metadata id="d">
		<rdf:RDF>
			<cc:Work rdf:about="">
				<dc:format>image/svg+xml</dc:format>
				<dc:type rdf:resource="http://purl.org/dc/dcmitype/StillImage"/>
			</cc:Work>
		</rdf:RDF>
	</metadata>
	<defs id="e">
		<style id="current-color-scheme" type="text/css">.ColorScheme-Text{color:#090d11;}.ColorScheme-Background{color:#ffffff;}</style>
	</defs>
	<path id="b" d="m21.236 6.4785a0.5 0.5 0 0 0-0.70703 0.00195l-9.8926 9.959-4.9023-4.9355a0.5 0.5 0 0 0-0.70703-2e-3 0.5 0.5 0 0 0-0.00195 0.70703l5.2559 5.293a0.50005 0.50005 0 0 0 0.70898 0l10.248-10.316a0.5 0.5 0 0 0-2e-3 -0.70703z" style="-inkscape-stroke:none;color:#090d11;fill-opacity:.75;fill:currentColor;stroke-linecap:round;stroke-linejoin:round"/>
	<path id="c" d="m20.111 8.6016-9.4668 9.4297-5.582-5.5625a0.5 0.5 0 0 0-0.70703 2e-3 0.5 0.5 0 0 0 0 0.70703l5.9375 5.9141a0.50005 0.50005 0 0 0 0.70508 0l9.8184-9.7813a0.5 0.5 0 0 0 2e-3 -0.70703 0.5 0.5 0 0 0-0.70703-0.00195z" style="-inkscape-stroke:none;color:#ffffff;fill-opacity:.5;fill:currentColor;stroke-linecap:round;stroke-linejoin:round"/>
</svg>
