<?xml version="1.0" encoding="UTF-8"?>
<svg id="c" width="24" height="24" version="1.1" xmlns="http://www.w3.org/2000/svg" xmlns:cc="http://creativecommons.org/ns#" xmlns:dc="http://purl.org/dc/elements/1.1/" xmlns:rdf="http://www.w3.org/1999/02/22-rdf-syntax-ns#">
	<metadata id="b">
		<rdf:RDF>
			<cc:Work rdf:about="">
				<dc:format>image/svg+xml</dc:format>
				<dc:type rdf:resource="http://purl.org/dc/dcmitype/StillImage"/>
			</cc:Work>
		</rdf:RDF>
	</metadata>
	<defs id="e">
		<style id="current-color-scheme" type="text/css">.ColorScheme-Text {color:#090d11;}.ColorScheme-Background{color:#ffffff;}</style>
	</defs>
	<path id="i" class="ColorScheme-Text" d="m4 3c-0.54535 0-1 0.45465-1 1v16c0 0.54535 0.45465 1 1 1h16c0.54535 0 1-0.45465 1-1v-16c0-0.54535-0.45465-1-1-1zm0 1h16v16h-16zm8 2.9999c0-1e-7 -3.1224 5.155-3.1224 6.8797 0 1.7248 1.3977 3.1224 3.1224 3.1224 1.0199 0 1.9178-0.49623 2.4877-1.2525 0.13791-0.18296 0.25854-0.37724 0.35399-0.58836 0.09511-0.21037 0.17052-0.43194 0.21728-0.66405 0.04036-0.20038 0.06347-0.40539 0.06347-0.61766 0-1.7248-3.1224-6.8797-3.1224-6.8797z" style="fill-opacity:.75;fill:currentColor"/>
	<path id="d" class="ColorScheme-Background" d="m3 2c-0.54535 0-1 0.45465-1 1v18c0 0.54535 0.45465 1 1 1h18c0.54535 0 1-0.45465 1-1v-18c0-0.54535-0.45465-1-1-1zm0 1h18v18h-18zm9.0305 3c-0.4307-0.010763-0.83412 0.21018-1.057 0.57889l-0.0023 0.00469c-2.4e-5 3.92e-5 -0.01391 0.025522-0.01406 0.02578-0.0056 0.00852-0.01104 0.017118-0.01641 0.02578-0.03072 0.050757-0.74945 1.2379-1.5046 2.6928-0.38557 0.74287-0.77388 1.5427-1.0781 2.2969-0.3042 0.75412-0.55545 1.4036-0.55545 2.1796 0 2.3043 1.8932 4.1975 4.1975 4.1975 1.3681 0 2.587-0.67229 3.3468-1.6804 0.17554-0.23308 0.34172-0.49569 0.47576-0.79217 0.12226-0.27044 0.22517-0.56811 0.29062-0.89294 0.05261-0.26115 0.08437-0.5407 0.08437-0.83201 0-0.77608-0.25125-1.4256-0.55545-2.1796-0.30418-0.75412-0.6925-1.554-1.0781-2.2968-0.77113-1.4858-1.5375-2.7491-1.5375-2.7491-0.21164-0.35013-0.58707-0.56833-0.99607-0.57889zm-0.03047 0.99989s3.1224 5.155 3.1224 6.8797c0 0.21227-0.02311 0.41728-0.06347 0.61766-0.04676 0.23211-0.12217 0.45368-0.21728 0.66405-0.09546 0.21112-0.2161 0.4054-0.35399 0.58836-0.56987 0.75618-1.4678 1.2525-2.4877 1.2525-1.7248 0-3.1224-1.3977-3.1224-3.1224-2e-6 -1.7248 3.1224-6.8797 3.1224-6.8797z" style="fill-opacity:.5;fill:currentColor"/>
</svg>
