<?xml version="1.0" encoding="UTF-8"?>
<svg id="d" width="24" height="24" version="1.1" xmlns="http://www.w3.org/2000/svg" xmlns:cc="http://creativecommons.org/ns#" xmlns:dc="http://purl.org/dc/elements/1.1/" xmlns:rdf="http://www.w3.org/1999/02/22-rdf-syntax-ns#">
	<metadata id="a">
		<rdf:RDF>
			<cc:Work rdf:about="">
				<dc:format>image/svg+xml</dc:format>
				<dc:type rdf:resource="http://purl.org/dc/dcmitype/StillImage"/>
				<dc:title/>
			</cc:Work>
		</rdf:RDF>
	</metadata>
	<defs id="e">
		<style id="current-color-scheme" type="text/css">.ColorScheme-Text{color:#090d11;}.ColorScheme-Background{color:#ffffff;}</style>
	</defs>
	<path id="b" d="m12.121 3.0234c-4.6843-0.039-8.6287 3.5165-9.0781 8.1816-0.44943 4.6651 2.7442 8.9103 7.3496 9.7676a0.50005 0.50005 0 1 0 0.18359-0.98242c-4.1044-0.7641-6.9397-4.5292-6.5391-8.6875 0.087296-0.90615 0.32893-1.7606 0.68555-2.5488 0.00407-0.00912 0.00761-0.018233 0.011719-0.027344 0.00303-0.00673 0.00672-0.012815 0.00977-0.019531 0.285-0.61931 0.64447-1.1945 1.0684-1.7148 0.059888-0.073923 0.12131-0.14534 0.18359-0.2168 0.15799-0.18053 0.32291-0.354 0.49609-0.51953 0.056925-0.054451 0.10957-0.11339 0.16797-0.16602 0.0031-0.00279 0.00666-0.00502 0.00977-0.00781 0.21322-0.19158 0.43922-0.36716 0.67188-0.53516 0.083473-0.060094 0.16829-0.11708 0.25391-0.17383 0.19908-0.13248 0.40439-0.25455 0.61523-0.36914 0.064446-0.034847 0.12604-0.074364 0.19141-0.10742 0.28118-0.143 0.57246-0.26926 0.87109-0.37891 0.035452-0.01293 0.071782-0.022726 0.10742-0.035156 0.28051-0.098521 0.56799-0.17877 0.86133-0.24609 0.03999-0.00908 0.07899-0.020825 0.11914-0.029297 0.5659-0.12077 1.1509-0.18856 1.752-0.18359 4.1747 0.034 7.6231 3.2458 7.9551 7.4102s-2.5632 7.8839-6.6797 8.5801a0.5001 0.5001 0 0 0 0.16602 0.98633c4.6189-0.7812 7.8822-4.9726 7.5098-9.6445-0.37245-4.6719-4.259-8.2934-8.9434-8.332zm-0.12109 2.9766a6 6 0 0 0-6 6 6 6 0 0 0 5 5.9141v-3.9141a1.0001 1.0001 0 0 1 0.98438-1.0137 1.0001 1.0001 0 0 1 1.0156 1.0137v3.9102a6 6 0 0 0 5-5.9102 6 6 0 0 0-6-6zm0 3a1 1 0 0 1 1 1 1 1 0 0 1-1 1 1 1 0 0 1-1-1 1 1 0 0 1 1-1z" style="fill:currentColor;fill-opacity:0.5;" class="ColorScheme-Background"/>
	<path id="c" d="m12.07 4c-0.23778 0-0.47388 0.01-0.70899 0.027-2.8213 0.2295-5.4035 1.9573-6.625 4.668-1.6286 3.6143-0.34733 7.885 3.002 10.006a0.50005 0.50005 0 1 0 0.53515-0.8437c-2.9349-1.8584-4.0521-5.5829-2.625-8.75s4.9586-4.7976 8.2949-3.8301c3.3364 0.9675 5.4476 4.2326 4.959 7.6719-0.4408 3.1028-2.8775 5.4726-5.9004 5.9082v-4.8887a1.0001 1.0001 0 0 0-1.0156-1.0137 1.0001 1.0001 0 0 0-0.98437 1.0137v5a1.0001 1.0001 0 0 0 1.3418 0.9531c3.8138-0.1631 7.0055-3.021 7.5469-6.832 0.55759-3.9248-1.8625-7.6693-5.6699-8.7734-0.71389-0.207-1.437-0.3106-2.1504-0.3164zm-0.0684 4.9687a1 1 0 0 0-1 1 1 1 0 0 0 1 1 1 1 0 0 0 1-1 1 1 0 0 0-1-1z" style="fill-opacity:.75;fill:currentColor" class="ColorScheme-Text"/>
</svg>
