<?xml version="1.0" encoding="UTF-8"?>
<svg id="a" width="24" height="24" version="1.1" xmlns="http://www.w3.org/2000/svg" xmlns:cc="http://creativecommons.org/ns#" xmlns:dc="http://purl.org/dc/elements/1.1/" xmlns:rdf="http://www.w3.org/1999/02/22-rdf-syntax-ns#">
	<metadata id="c">
		<rdf:RDF>
			<cc:Work rdf:about="">
				<dc:format>image/svg+xml</dc:format>
				<dc:type rdf:resource="http://purl.org/dc/dcmitype/StillImage"/>
				<dc:title/>
			</cc:Work>
		</rdf:RDF>
	</metadata>
	<defs id="e">
		<style id="current-color-scheme" type="text/css">.ColorScheme-Text {color:#090d11;}.ColorScheme-Background{color:#ffffff;}</style>
	</defs>
	<path id="b" class="ColorScheme-Text" d="m12 2-7 7h5v6h-5l7 7 7-7h-5v-6h5z" style="fill-opacity:.75;fill:currentColor"/>
	<path id="d" class="ColorScheme-Background" d="m11.531 0.78125-7 7-1.25 1.2188h1.7188l7-7 7 7h1.7188l-1.25-1.2188-7-7-0.46875-0.1875zm-2.5312 8.2188v6h1v-6zm5 0v6h1v-6zm-10.719 6 1.25 1.2188 7 7 0.46875 0.1875 0.46875-0.1875 7-7 1.25-1.2188h-1.7188l-7 7-7-7z" style="fill-opacity:.5;fill:currentColor"/>
</svg>
