<?xml version="1.0" encoding="UTF-8"?>
<svg id="b" width="24" height="24" version="1.0" xmlns="http://www.w3.org/2000/svg" xmlns:cc="http://creativecommons.org/ns#" xmlns:dc="http://purl.org/dc/elements/1.1/" xmlns:rdf="http://www.w3.org/1999/02/22-rdf-syntax-ns#">
	<metadata id="d">
		<rdf:RDF>
			<cc:Work rdf:about="">
				<dc:format>image/svg+xml</dc:format>
				<dc:type rdf:resource="http://purl.org/dc/dcmitype/StillImage"/>
			</cc:Work>
		</rdf:RDF>
	</metadata>
	<defs id="e">
		<style id="current-color-scheme" type="text/css">.ColorScheme-Text {color:#090d11;}.ColorScheme-Background{color:#ffffff;}</style>
	</defs>
	<path id="c" class="ColorScheme-Text" d="m21.5 4c-0.831 0-1.5 0.669-1.5 1.5v4c0 0.831 0.669 1.5 1.5 1.5s1.5-0.669 1.5-1.5v-4c0-0.831-0.669-1.5-1.5-1.5zm-7.6582 3-0.15625 0.25-4.0938 8.75h-4.5918v1h5.2812l0.15625-0.25 4.0938-8.75h4.4688v-1h-5.1582zm-11.342 6c-0.831 0-1.5 0.669-1.5 1.5v4c0 0.831 0.669 1.5 1.5 1.5s1.5-0.669 1.5-1.5v-4c0-0.831-0.669-1.5-1.5-1.5z" style="fill-opacity:.75;fill:currentColor"/>
</svg>
