<?xml version="1.0" encoding="UTF-8"?>
<svg id="b" width="24" height="24" version="1.0" xmlns="http://www.w3.org/2000/svg" xmlns:cc="http://creativecommons.org/ns#" xmlns:dc="http://purl.org/dc/elements/1.1/" xmlns:rdf="http://www.w3.org/1999/02/22-rdf-syntax-ns#">
	<metadata id="d">
		<rdf:RDF>
			<cc:Work rdf:about="">
				<dc:format>image/svg+xml</dc:format>
				<dc:type rdf:resource="http://purl.org/dc/dcmitype/StillImage"/>
			</cc:Work>
		</rdf:RDF>
	</metadata>
	<defs>
		<style id="current-color-scheme" type="text/css">.ColorScheme-Text {color:#090d11;}.ColorScheme-Background{color:#ffffff;}</style>
	</defs>
	<path class="ColorScheme-Text" d="m12 3c-4.9646 0-9 4.0354-9 9s4.0354 9 9 9 9-4.0354 9-9-4.0354-9-9-9zm0 1c4.4242 0 8 3.5758 8 8s-3.5758 8-8 8-8-3.5758-8-8 3.5758-8 8-8z" style="fill-opacity:.75;fill:currentColor"/>
	<path class="ColorScheme-Background" d="m12 2c-5.5169 0-10 4.4831-10 10s4.4831 10 10 10 10-4.4831 10-10-4.4831-10-10-10zm0 1c4.9765 0 9 4.0235 9 9s-4.0235 9-9 9-9-4.0235-9-9 4.0235-9 9-9z" style="fill-opacity:.5;fill:currentColor"/>
</svg>
