<?xml version="1.0" encoding="UTF-8"?>
<svg id="a" width="24" height="24" version="1.1" xmlns="http://www.w3.org/2000/svg" xmlns:cc="http://creativecommons.org/ns#" xmlns:dc="http://purl.org/dc/elements/1.1/" xmlns:rdf="http://www.w3.org/1999/02/22-rdf-syntax-ns#">
	<metadata id="d">
		<rdf:RDF>
			<cc:Work rdf:about="">
				<dc:format>image/svg+xml</dc:format>
				<dc:type rdf:resource="http://purl.org/dc/dcmitype/StillImage"/>
				<dc:title/>
			</cc:Work>
		</rdf:RDF>
	</metadata>
	<defs id="b">
		<style id="current-color-scheme" type="text/css">.ColorScheme-Text {color:#090d11;}.ColorScheme-Background{color:#ffffff;}</style>
	</defs>
	<path id="c" class="ColorScheme-Text" d="m19.5 6c0.277 0 0.5 0.223 0.5 0.5s-0.223 0.5-0.5 0.5h-15c-0.277 0-0.5-0.223-0.5-0.5s0.223-0.5 0.5-0.5zm0 4c0.277 0 0.5 0.223 0.5 0.5s-0.223 0.5-0.5 0.5h-11c-0.277 0-0.5-0.223-0.5-0.5s0.223-0.5 0.5-0.5zm0 4c0.277 0 0.5 0.223 0.5 0.5s-0.223 0.5-0.5 0.5h-7c-0.277 0-0.5-0.223-0.5-0.5s0.223-0.5 0.5-0.5zm0 4c0.277 0 0.5 0.223 0.5 0.5s-0.223 0.5-0.5 0.5h-11c-0.277 0-0.5-0.223-0.5-0.5s0.223-0.5 0.5-0.5z" style="color:#090d11;fill-opacity:.75;fill:currentColor"/>
	<path id="e" class="ColorScheme-Background" d="m20 5v1h-16v-1zm0 4v1h-12v-1zm0 4v1h-8v-1zm0 4v1h-12v-1z" style="color:#ffffff;fill-opacity:.5;fill:currentColor"/>
</svg>
