<?xml version="1.0" encoding="UTF-8"?>
<!-- Created with Inkscape (http://www.inkscape.org/) -->
<svg width="24" height="24" version="1.1" xmlns="http://www.w3.org/2000/svg" xmlns:cc="http://creativecommons.org/ns#" xmlns:dc="http://purl.org/dc/elements/1.1/" xmlns:rdf="http://www.w3.org/1999/02/22-rdf-syntax-ns#" xmlns:xlink="http://www.w3.org/1999/xlink">
	<defs>
		<linearGradient id="i" x1="18.011" x2="72.499" y1="65.76" y2="65.76" gradientTransform="matrix(1.0177 0 0 .96017 5.5242 -18.775)" gradientUnits="userSpaceOnUse">
			<stop stop-color="#ffffff" offset="0"/>
			<stop stop-color="#ffffff" offset="1"/>
		</linearGradient>
		<radialGradient id="d" cx="68" cy="-117.35" r="28" gradientTransform="matrix(.99036 0 0 1.6642 16.252 75.515)" gradientUnits="userSpaceOnUse">
			<stop stop-color="#ffffff" offset="0"/>
			<stop stop-color="#ffffff" stop-opacity="0" offset="1"/>
		</radialGradient>
		<linearGradient id="e" x1="38.875" x2="90.41" y1="67.528" y2="67.528" gradientTransform="matrix(.5115 0 0 .77135 67.773 6.6291)" gradientUnits="userSpaceOnUse" xlink:href="#a"/>
		<linearGradient id="f" x1="11.543" x2="10.883" y1="3.4375" y2="5.9006" gradientTransform="matrix(5.4675 0 0 5.8206 24.29 -2.0656)" gradientUnits="userSpaceOnUse">
			<stop stop-color="#ffffff" offset="0"/>
			<stop stop-color="#ffffff" stop-opacity="0" offset="1"/>
		</linearGradient>
		<linearGradient id="g" x1="38.875" x2="90.41" y1="67.528" y2="67.528" gradientTransform="matrix(.5115 0 0 .96108 67.773 4.8321)" gradientUnits="userSpaceOnUse" xlink:href="#a"/>
		<linearGradient id="h" x1="38.875" x2="90.41" y1="67.528" y2="67.528" gradientTransform="matrix(.5115 0 0 1.8065 68.03 -6.0982)" gradientUnits="userSpaceOnUse" xlink:href="#a"/>
		<linearGradient id="a">
			<stop stop-color="#ffffff" offset="0"/>
			<stop stop-color="#ffffff" stop-opacity="0" offset="1"/>
		</linearGradient>
		<radialGradient id="b" cx="4.9165" cy="8.1285" r="4.2714" gradientTransform="matrix(3.0688 0 0 4.0193 -243.67 2176.4)" gradientUnits="userSpaceOnUse">
			<stop stop-color="#213851" stop-opacity=".9059" offset="0"/>
			<stop stop-color="#27303a" stop-opacity="0" offset="1"/>
		</radialGradient>
		<radialGradient id="c" cx="7.5229" cy="8.2544" r="5.8618" gradientTransform="matrix(1.7118 0 0 2.3362 -237.32 2188.9)" gradientUnits="userSpaceOnUse">
			<stop stop-color="#ffffff" stop-opacity=".74858" offset="0"/>
			<stop stop-color="#ffffff" stop-opacity=".60511" offset="1"/>
		</radialGradient>
	</defs>
	<metadata>
		<rdf:RDF>
			<cc:Work rdf:about="">
				<dc:format>image/svg+xml</dc:format>
				<dc:type rdf:resource="http://purl.org/dc/dcmitype/StillImage"/>
				<dc:title/>
			</cc:Work>
		</rdf:RDF>
	</metadata>
	<g transform="translate(234.95 -2196.7)">
		<rect x="-126.87" y="411.87" width="1" height="0" fill="#ffffff" opacity=".57787"/>
		<rect x="-162" y="384.34" width="1" height="0" fill="#ffffff" opacity=".57787"/>
		<rect x="34.14" y="526.07" width="1" height="0" fill="#ffffff" opacity=".57787"/>
		<g transform="translate(5278.2 7322.2)">
			<path transform="translate(1,1)" d="m4.305 7.0221c-0.6094 0-1.305 0.7602-1.305 1.3142v9.2987c0 0.731 0.7889 1.365 1.4535 1.365h15.048c0.798 0 1.498-0.678 1.498-1.376v-9.1594c0-0.7756-0.689-1.4646-1.409-1.4646l-15.286 0.0221zm0.5388 1.1341 6.8442 6.8438h0.59375l6.875-6.8438 0.6875 0.6875-4.094 4.1563 3.0938 3.1562-0.6875 0.6875-3.156-3.156-2.281 2.312h-1.438l-2.281-2.312-3.1562 3.187-0.6876-0.719 3.125-3.156-4.125-4.1562 0.6876-0.6876z" opacity=".3"/>
			<path transform="translate(1,1)" d="m4.305 6.0221c-0.6094 0-1.305 0.7602-1.305 1.3142v9.2987c0 0.731 0.7889 1.365 1.4535 1.365h15.048c0.798 0 1.498-0.678 1.498-1.376v-9.1594c0-0.7756-0.689-1.4646-1.409-1.4646l-15.286 0.0221zm0.5388 1.1341 6.8442 6.8438h0.59375l6.875-6.8438 0.6875 0.6875-4.094 4.1563 3.0938 3.1562-0.6875 0.6875-3.156-3.156-2.281 2.312h-1.438l-2.281-2.312-3.1562 3.187-0.6876-0.719 3.125-3.156-4.125-4.1562 0.6876-0.6876z" fill="#19b6ee"/>
		</g>
		<g transform="translate(5278.2 7322.2)">
			<path transform="translate(1,1)" d="m4.305 7.0221c-0.6094 0-1.305 0.7602-1.305 1.3142v9.2987c0 0.731 0.7889 1.365 1.4535 1.365h15.048c0.798 0 1.498-0.678 1.498-1.376v-9.1594c0-0.7756-0.689-1.4646-1.409-1.4646l-15.286 0.0221zm0.5388 1.1341 6.8442 6.8438h0.59375l6.875-6.8438 0.6875 0.6875-4.094 4.1563 3.0938 3.1562-0.6875 0.6875-3.156-3.156-2.281 2.312h-1.438l-2.281-2.312-3.1562 3.187-0.6876-0.719 3.125-3.156-4.125-4.1562 0.6876-0.6876z" opacity=".3"/>
			<path transform="translate(1,1)" d="m4.305 6.0221c-0.6094 0-1.305 0.7602-1.305 1.3142v9.2987c0 0.731 0.7889 1.365 1.4535 1.365h15.048c0.798 0 1.498-0.678 1.498-1.376v-9.1594c0-0.7756-0.689-1.4646-1.409-1.4646l-15.286 0.0221zm0.5388 1.1341 6.8442 6.8438h0.59375l6.875-6.8438 0.6875 0.6875-4.094 4.1563 3.0938 3.1562-0.6875 0.6875-3.156-3.156-2.281 2.312h-1.438l-2.281-2.312-3.1562 3.187-0.6876-0.719 3.125-3.156-4.125-4.1562 0.6876-0.6876z" fill="#19b6ee"/>
		</g>
		<g transform="translate(5278.2 7322.2)">
			<path transform="translate(1,1)" d="m4.305 7.0221c-0.6094 0-1.305 0.7602-1.305 1.3142v9.2987c0 0.731 0.7889 1.365 1.4535 1.365h15.048c0.798 0 1.498-0.678 1.498-1.376v-9.1594c0-0.7756-0.689-1.4646-1.409-1.4646l-15.286 0.0221zm0.5388 1.1341 6.8442 6.8438h0.59375l6.875-6.8438 0.6875 0.6875-4.094 4.1563 3.0938 3.1562-0.6875 0.6875-3.156-3.156-2.281 2.312h-1.438l-2.281-2.312-3.1562 3.187-0.6876-0.719 3.125-3.156-4.125-4.1562 0.6876-0.6876z" opacity=".3"/>
			<path transform="translate(1,1)" d="m4.305 6.0221c-0.6094 0-1.305 0.7602-1.305 1.3142v9.2987c0 0.731 0.7889 1.365 1.4535 1.365h15.048c0.798 0 1.498-0.678 1.498-1.376v-9.1594c0-0.7756-0.689-1.4646-1.409-1.4646l-15.286 0.0221zm0.5388 1.1341 6.8442 6.8438h0.59375l6.875-6.8438 0.6875 0.6875-4.094 4.1563 3.0938 3.1562-0.6875 0.6875-3.156-3.156-2.281 2.312h-1.438l-2.281-2.312-3.1562 3.187-0.6876-0.719 3.125-3.156-4.125-4.1562 0.6876-0.6876z" fill="#19b6ee"/>
		</g>
		<g transform="translate(5290.2 7318.2)">
			<path transform="translate(1,1)" d="m4.305 7.0221c-0.6094 0-1.305 0.7602-1.305 1.3142v9.2987c0 0.731 0.7889 1.365 1.4535 1.365h15.048c0.798 0 1.498-0.678 1.498-1.376v-9.1594c0-0.7756-0.689-1.4646-1.409-1.4646l-15.286 0.0221zm0.5388 1.1341 6.8442 6.8438h0.59375l6.875-6.8438 0.6875 0.6875-4.094 4.1563 3.0938 3.1562-0.6875 0.6875-3.156-3.156-2.281 2.312h-1.438l-2.281-2.312-3.1562 3.187-0.6876-0.719 3.125-3.156-4.125-4.1562 0.6876-0.6876z" opacity=".3"/>
			<path transform="translate(1,1)" d="m4.305 6.0221c-0.6094 0-1.305 0.7602-1.305 1.3142v9.2987c0 0.731 0.7889 1.365 1.4535 1.365h15.048c0.798 0 1.498-0.678 1.498-1.376v-9.1594c0-0.7756-0.689-1.4646-1.409-1.4646l-15.286 0.0221zm0.5388 1.1341 6.8442 6.8438h0.59375l6.875-6.8438 0.6875 0.6875-4.094 4.1563 3.0938 3.1562-0.6875 0.6875-3.156-3.156-2.281 2.312h-1.438l-2.281-2.312-3.1562 3.187-0.6876-0.719 3.125-3.156-4.125-4.1562 0.6876-0.6876z" fill="#19b6ee"/>
		</g>
		<g id="WhiteBackgroundLayer" transform="translate(243.69 330.75)" display="none">
			<rect id="Background" x="3.8542" y="-7.9516" width="55.454" height="104.64" rx="2.1938" ry="1.9589" fill="url(#i)" opacity=".69898"/>
		</g>
		<g id="Overlay" transform="translate(211.87 307.66)" display="none">
			<rect id="spacerover" x="1.0394e-6" y="-.054732" width="128.05" height="127.79" fill="none"/>
			<rect x="70.721" y="16.672" width="13.171" height="102.85" rx="0" ry="0" fill="url(#g)" opacity=".22541"/>
			<rect x="70.721" y="16.132" width="13.171" height="31.864" rx="0" ry="0" fill="url(#e)" opacity=".22541"/>
			<path d="m60.854 17.943c-0.52061 0-0.8543 0.53713-0.8543 1.0914v3.0922c10.886 18.631 33.206 8.3692 48.524 5.093v-8.1852c0-0.55423-0.33368-1.0914-0.85429-1.0914z" fill="url(#f)" opacity=".48361"/>
			<rect x="70.978" y="16.158" width="13.171" height="71.838" rx="0" ry="0" fill="url(#h)" opacity=".22541"/>
			<rect transform="scale(1,-1)" x="40.867" y="-119.74" width="55.46" height="61.206" rx="2.0961" ry="1.9391" fill="url(#d)" opacity=".41"/>
		</g>
		<rect x="-127.87" y="412.87" width="1" height="0" fill="#ff0000" opacity=".57787"/>
		<rect x="-163" y="385.34" width="1" height="0" fill="#ff0000" opacity=".57787"/>
		<rect x="33.14" y="527.07" width="1" height="0" fill="#ff0000" opacity=".57787"/>
		<g transform="translate(5277.2 7323.2)" fill="#ff0000">
			<path transform="translate(1,1)" d="m4.305 7.0221c-0.6094 0-1.305 0.7602-1.305 1.3142v9.2987c0 0.731 0.7889 1.365 1.4535 1.365h15.048c0.798 0 1.498-0.678 1.498-1.376v-9.1594c0-0.7756-0.689-1.4646-1.409-1.4646l-15.286 0.0221zm0.5388 1.1341 6.8442 6.8438h0.59375l6.875-6.8438 0.6875 0.6875-4.094 4.1563 3.0938 3.1562-0.6875 0.6875-3.156-3.156-2.281 2.312h-1.438l-2.281-2.312-3.1562 3.187-0.6876-0.719 3.125-3.156-4.125-4.1562 0.6876-0.6876z" opacity=".3"/>
			<path transform="translate(1,1)" d="m4.305 6.0221c-0.6094 0-1.305 0.7602-1.305 1.3142v9.2987c0 0.731 0.7889 1.365 1.4535 1.365h15.048c0.798 0 1.498-0.678 1.498-1.376v-9.1594c0-0.7756-0.689-1.4646-1.409-1.4646l-15.286 0.0221zm0.5388 1.1341 6.8442 6.8438h0.59375l6.875-6.8438 0.6875 0.6875-4.094 4.1563 3.0938 3.1562-0.6875 0.6875-3.156-3.156-2.281 2.312h-1.438l-2.281-2.312-3.1562 3.187-0.6876-0.719 3.125-3.156-4.125-4.1562 0.6876-0.6876z"/>
		</g>
		<g transform="translate(5277.2 7323.2)" fill="#ff0000">
			<path transform="translate(1,1)" d="m4.305 7.0221c-0.6094 0-1.305 0.7602-1.305 1.3142v9.2987c0 0.731 0.7889 1.365 1.4535 1.365h15.048c0.798 0 1.498-0.678 1.498-1.376v-9.1594c0-0.7756-0.689-1.4646-1.409-1.4646l-15.286 0.0221zm0.5388 1.1341 6.8442 6.8438h0.59375l6.875-6.8438 0.6875 0.6875-4.094 4.1563 3.0938 3.1562-0.6875 0.6875-3.156-3.156-2.281 2.312h-1.438l-2.281-2.312-3.1562 3.187-0.6876-0.719 3.125-3.156-4.125-4.1562 0.6876-0.6876z" opacity=".3"/>
			<path transform="translate(1,1)" d="m4.305 6.0221c-0.6094 0-1.305 0.7602-1.305 1.3142v9.2987c0 0.731 0.7889 1.365 1.4535 1.365h15.048c0.798 0 1.498-0.678 1.498-1.376v-9.1594c0-0.7756-0.689-1.4646-1.409-1.4646l-15.286 0.0221zm0.5388 1.1341 6.8442 6.8438h0.59375l6.875-6.8438 0.6875 0.6875-4.094 4.1563 3.0938 3.1562-0.6875 0.6875-3.156-3.156-2.281 2.312h-1.438l-2.281-2.312-3.1562 3.187-0.6876-0.719 3.125-3.156-4.125-4.1562 0.6876-0.6876z"/>
		</g>
		<g transform="translate(5277.2 7323.2)" fill="#ff0000">
			<path transform="translate(1,1)" d="m4.305 7.0221c-0.6094 0-1.305 0.7602-1.305 1.3142v9.2987c0 0.731 0.7889 1.365 1.4535 1.365h15.048c0.798 0 1.498-0.678 1.498-1.376v-9.1594c0-0.7756-0.689-1.4646-1.409-1.4646l-15.286 0.0221zm0.5388 1.1341 6.8442 6.8438h0.59375l6.875-6.8438 0.6875 0.6875-4.094 4.1563 3.0938 3.1562-0.6875 0.6875-3.156-3.156-2.281 2.312h-1.438l-2.281-2.312-3.1562 3.187-0.6876-0.719 3.125-3.156-4.125-4.1562 0.6876-0.6876z" opacity=".3"/>
			<path transform="translate(1,1)" d="m4.305 6.0221c-0.6094 0-1.305 0.7602-1.305 1.3142v9.2987c0 0.731 0.7889 1.365 1.4535 1.365h15.048c0.798 0 1.498-0.678 1.498-1.376v-9.1594c0-0.7756-0.689-1.4646-1.409-1.4646l-15.286 0.0221zm0.5388 1.1341 6.8442 6.8438h0.59375l6.875-6.8438 0.6875 0.6875-4.094 4.1563 3.0938 3.1562-0.6875 0.6875-3.156-3.156-2.281 2.312h-1.438l-2.281-2.312-3.1562 3.187-0.6876-0.719 3.125-3.156-4.125-4.1562 0.6876-0.6876z"/>
		</g>
		<g transform="translate(5289.2 7319.2)" fill="#ff0000">
			<path transform="translate(1,1)" d="m4.305 7.0221c-0.6094 0-1.305 0.7602-1.305 1.3142v9.2987c0 0.731 0.7889 1.365 1.4535 1.365h15.048c0.798 0 1.498-0.678 1.498-1.376v-9.1594c0-0.7756-0.689-1.4646-1.409-1.4646l-15.286 0.0221zm0.5388 1.1341 6.8442 6.8438h0.59375l6.875-6.8438 0.6875 0.6875-4.094 4.1563 3.0938 3.1562-0.6875 0.6875-3.156-3.156-2.281 2.312h-1.438l-2.281-2.312-3.1562 3.187-0.6876-0.719 3.125-3.156-4.125-4.1562 0.6876-0.6876z" opacity=".3"/>
			<path transform="translate(1,1)" d="m4.305 6.0221c-0.6094 0-1.305 0.7602-1.305 1.3142v9.2987c0 0.731 0.7889 1.365 1.4535 1.365h15.048c0.798 0 1.498-0.678 1.498-1.376v-9.1594c0-0.7756-0.689-1.4646-1.409-1.4646l-15.286 0.0221zm0.5388 1.1341 6.8442 6.8438h0.59375l6.875-6.8438 0.6875 0.6875-4.094 4.1563 3.0938 3.1562-0.6875 0.6875-3.156-3.156-2.281 2.312h-1.438l-2.281-2.312-3.1562 3.187-0.6876-0.719 3.125-3.156-4.125-4.1562 0.6876-0.6876z"/>
		</g>
		<path d="m-215.39 2200.7 0.22265 0.2227-0.77734 0.7773v15h1v-16zm-7.3477 0.9219c-0.0663 0.011-0.13575 0.037-0.20703 0.078-1.7321 1-3.8933 4-6 4-2 0-2 3-2 3s0 3 2 3c0.41613 0 0.83334 0.1404 1.25 0.3359l5.4238-5.4238 0.32617-3.9121c0.0466-0.5591-0.3287-1.1582-0.79297-1.0781zm4.793 0.078v0.5859l0.58594-0.5859zm-2 1v1.5859l1-1v-0.5859zm3 0-1 1v12h1zm-2 2-1 1v9h1zm-3.4551 3.4551-4.4004 4.4004c1.3789 0.9648 2.7116 2.4841 3.8555 3.1445 0.57023 0.3292 1.1054-0.3676 1-1l-0.5-6z" fill="#000000" fill-opacity=".76471" style="paint-order:normal"/>
		<path d="m-215.39 2200.7 0.22265 0.2227-0.77734 0.7773v15h1v-16zm-7.3477 0.9219c-0.0663 0.011-0.13575 0.037-0.20703 0.078-1.7321 1-3.8933 4-6 4-2 0-2 3-2 3s0 3 2 3c0.41613 0 0.83334 0.1404 1.25 0.3359l5.4238-5.4238 0.32617-3.9121c0.0466-0.5591-0.3287-1.1582-0.79297-1.0781zm4.793 0.078v0.5859l0.58594-0.5859zm-2 1v1.5859l1-1v-0.5859zm3 0-1 1v12h1zm-2 2-1 1v9h1zm-3.4551 3.4551-4.4004 4.4004c1.3789 0.9648 2.7116 2.4841 3.8555 3.1445 0.57023 0.3292 1.1054-0.3676 1-1l-0.5-6z" fill="url(#b)" fill-opacity=".76471" style="font-variant-east_asian:normal;paint-order:normal"/>
		<path d="m-214.95 2199.7v18h1v-18zm-0.92969 0.5156-0.48437 0.4844h-0.58594v0.5859l-1 1v-0.5859h-1v1.5859l-2.2344 2.2344 0.23437-2.8203c0.0425-0.5095-0.1759-0.9685-0.39062-1.3359-0.27679-0.4134-0.89083-0.8461-1.5723-0.7286-0.1968 0.034-0.37747 0.1071-0.53711 0.1993-1.0322 0.5959-2.7861 2.3915-3.4902 2.9629-0.7041 0.5713-1.2729 0.9023-2.0098 0.9023-0.75 0-1.4249 0.3233-1.8633 0.7617-0.43839 0.4384-0.67932 0.952-0.83594 1.4219-0.31324 0.9397-0.30078 1.8164-0.30078 1.8164s-0.0125 0.8767 0.30078 1.8164c0.15662 0.4699 0.39755 0.9835 0.83594 1.4219 0.43838 0.4384 1.1133 0.7617 1.8633 0.7617 0.18423 0 0.35744 0.021 0.52539 0.061l-3.0098 3.0098 0.70703 0.707 3.2656-3.2656c0.16824 0.1136 0.34052 0.2438 0.52149 0.3906 0.70409 0.5714 2.458 2.367 3.4902 2.9629 0.3203 0.1849 0.74882 0.2698 1.125 0.1817 0.37618-0.088 0.65876-0.3095 0.85156-0.5371 0.36068-0.5098 0.52344-0.7451 0.52344-1.5098l-0.5-6 0.13672-1.6367 2.3633-2.3633v11h1v-12l1-1v14h1v-15l0.77734-0.7773zm-6.8633 1.4063c0.46427-0.08 0.8852 0.5247 0.79297 1.0781l-0.32617 3.9121-5.4238 5.4238c-0.41666-0.1955-0.83387-0.3359-1.25-0.3359-2 0-2-3-2-3s0-3 2-3c2.1067 0 4.2679-3 6-4 0.0713-0.041 0.14073-0.067 0.20703-0.078zm0.33789 6.5332-0.0449 0.5449 0.5 6c0.0532 0.6389-0.42977 1.3292-1 1-1.1439-0.6604-2.4765-2.1797-3.8555-3.1445z" color="#000000" color-rendering="auto" dominant-baseline="auto" fill="url(#c)" image-rendering="auto" shape-rendering="auto" solid-color="#000000" style="font-feature-settings:normal;font-variant-alternates:normal;font-variant-caps:normal;font-variant-east_asian:normal;font-variant-ligatures:normal;font-variant-numeric:normal;font-variant-position:normal;isolation:auto;mix-blend-mode:normal;paint-order:normal;shape-padding:0;text-decoration-color:#000000;text-decoration-line:none;text-decoration-style:solid;text-indent:0;text-orientation:mixed;text-transform:none;white-space:normal"/>
		<rect transform="matrix(-.70711 -.70711 -.70711 .70711 0 0)" x="-1405.1" y="1708.4" width="1" height="22" fill="#000000" fill-opacity=".76471" style="paint-order:normal"/>
		<rect transform="matrix(-.70711 -.70711 -.70711 .70711 0 0)" x="-1405.1" y="1708.4" width="1" height="22" fill="url(#b)" fill-opacity=".76471" style="font-variant-east_asian:normal;paint-order:normal"/>
		<rect transform="rotate(45)" x="1403.1" y="1708.4" width="1" height="22" fill="url(#c)" style="font-variant-east_asian:normal;paint-order:normal"/>
	</g>
</svg>
