<?xml version="1.0" encoding="UTF-8"?>
<svg id="a" width="24" height="24" version="1.1" viewBox="0 0 24 24" xmlns="http://www.w3.org/2000/svg" xmlns:cc="http://creativecommons.org/ns#" xmlns:dc="http://purl.org/dc/elements/1.1/" xmlns:rdf="http://www.w3.org/1999/02/22-rdf-syntax-ns#">
	<metadata id="e">
		<rdf:RDF>
			<cc:Work rdf:about="">
				<dc:format>image/svg+xml</dc:format>
				<dc:type rdf:resource="http://purl.org/dc/dcmitype/StillImage"/>
			</cc:Work>
		</rdf:RDF>
	</metadata>
	<defs id="d">
		<style id="current-color-scheme" type="text/css">.ColorScheme-Text{color:#090d11;}.ColorScheme-Background{color:#ffffff;}.ColorScheme-PositiveText {color:#31ad39;}</style>
	</defs>
	<path id="f" class="ColorScheme-Text" d="m2 2v2h2v-2zm18 0v1h-1v1h1v1h1v-1h1v-2zm-15 1v1h1v-1zm2 0v1h1v-1zm2 0v1h1v-1zm2 0v1h1v-1zm2 0v1h1v-1zm2 0v1h1v-1zm2 0v1h1v-1zm-14 2v1h1v-1zm3 0c-0.51938 0-0.94311 0.39296-0.99414 0.89844-0.0034019 0.033699-0.0058594 0.066938-0.0058594 0.10156v7c0 0.51938 0.39296 0.94311 0.89844 0.99414 0.033699 0.003401 0.066938 0.005859 0.10156 0.005859h7c0.554 0 1-0.446 1-1v-7c0-0.554-0.446-1-1-1zm14 1v1h1v-1zm-17 1v1h1v-1zm17 1v1h1v-1zm-17 1v1h1v-1zm12 1v3c0 1.0907-0.9093 2-2 2h-3v3c0 0.554 0.446 1 1 1h7c0.554 0 1-0.446 1-1v-7c0-0.554-0.446-1-1-1zm5 0v1h1v-1zm-17 1v1h1v-1zm17 1v1h1v-1zm-17 1v1h1v-1zm17 1v1h1v-1zm-17 1v1h1v-1zm17 1v1h1v-1zm-17 1v1h1v-1zm17 1v1h1v-1zm-17 1v1h-1v2h2v-1h1v-1h-1v-1zm3 1v1h1v-1zm2 0v1h1v-1zm2 0v1h1v-1zm2 0v1h1v-1zm2 0v1h1v-1zm2 0v1h1v-1zm2 0v1h1v-1zm2 0v2h2v-2z" style="fill-opacity:.75;fill:currentColor"/>
</svg>
