<?xml version="1.0" encoding="UTF-8"?>
<svg id="a" width="24" height="24" version="1.1" viewBox="0 0 24 24" xmlns="http://www.w3.org/2000/svg" xmlns:cc="http://creativecommons.org/ns#" xmlns:dc="http://purl.org/dc/elements/1.1/" xmlns:rdf="http://www.w3.org/1999/02/22-rdf-syntax-ns#">
	<metadata id="e">
		<rdf:RDF>
			<cc:Work rdf:about="">
				<dc:format>image/svg+xml</dc:format>
				<dc:type rdf:resource="http://purl.org/dc/dcmitype/StillImage"/>
			</cc:Work>
		</rdf:RDF>
	</metadata>
	<defs id="d">
		<style id="current-color-scheme" type="text/css">.ColorScheme-Text{color:#090d11;}.ColorScheme-Background{color:#ffffff;}.ColorScheme-PositiveText {color:#31ad39;}</style>
	</defs>
	<path id="f" class="ColorScheme-Text" d="m2 2v2h2v-2zm18 0v1h-1v1h1v1h1v-1h1v-2zm-15 1v1h1v-1zm2 0v1h1v-1zm2 0v1h1v-1zm2 0v1h1v-1zm2 0v1h1v-1zm2 0v1h1v-1zm2 0v1h1v-1zm-14 2v1h1v-1zm3 0c-0.51938 0-0.94311 0.39296-0.99414 0.89844-0.0034019 0.033699-0.0058594 0.066938-0.0058594 0.10156v7c0 0.51938 0.39296 0.94311 0.89844 0.99414 0.033699 0.003401 0.066938 0.005859 0.10156 0.005859h7c0.554 0 1-0.446 1-1v-7c0-0.554-0.446-1-1-1zm14 1v1h1v-1zm-17 1v1h1v-1zm17 1v1h1v-1zm-17 1v1h1v-1zm12 1v3c0 1.0907-0.9093 2-2 2h-3v3c0 0.554 0.446 1 1 1h7c0.554 0 1-0.446 1-1v-7c0-0.554-0.446-1-1-1zm5 0v1h1v-1zm-17 1v1h1v-1zm17 1v1h1v-1zm-17 1v1h1v-1zm17 1v1h1v-1zm-17 1v1h1v-1zm17 1v1h1v-1zm-17 1v1h1v-1zm17 1v1h1v-1zm-17 1v1h-1v2h2v-1h1v-1h-1v-1zm3 1v1h1v-1zm2 0v1h1v-1zm2 0v1h1v-1zm2 0v1h1v-1zm2 0v1h1v-1zm2 0v1h1v-1zm2 0v1h1v-1zm2 0v2h2v-2z" style="fill-opacity:.75;fill:currentColor"/>
	<path id="b" class="ColorScheme-Background" d="m2 1c-0.554 0-1 0.446-1 1v2c0 0.554 0.446 1 1 1v1h1v-1h1c0.10323 0 0.20333-0.01614 0.29688-0.044922-0.053018 0.0858-0.10185 0.17365-0.14062 0.26562-0.05116 0.12136-0.09025 0.24661-0.11719 0.37891-0.027626 0.13569-0.039062 0.27093-0.039062 0.40039v7c0 0.12946 0.011437 0.2647 0.039063 0.40039 0.026936 0.1323 0.066024 0.25754 0.11719 0.37891 0.049896 0.11836 0.11272 0.23186 0.18555 0.33984 0.081813 0.1213 0.167 0.21778 0.24414 0.29492 0.07714 0.07714 0.17362 0.16232 0.29492 0.24414 0.10798 0.07283 0.22147 0.13565 0.33984 0.18555 0.12136 0.05116 0.24661 0.09025 0.37891 0.11719 0.13569 0.027619 0.27093 0.039062 0.40039 0.039062h3v3c0 1.0907 0.9093 2 2 2h7c0.38239 0 0.74045-0.11448 1.0469-0.30664-0.030683 0.096286-0.046875 0.19992-0.046875 0.30664v1h-1v1h1c0 0.554 0.446 1 1 1h2c0.554 0 1-0.446 1-1v-2c0-0.554-0.446-1-1-1v-1h-1v1h-1c-0.10672 0-0.21036 0.01619-0.30664 0.04687 0.19216-0.30642 0.30664-0.66448 0.30664-1.0469v-7c0-1.0907-0.9093-2-2-2h-3v-3c0-0.12946-0.01144-0.2647-0.03906-0.40039-0.02694-0.1323-0.06603-0.25755-0.11719-0.37891-0.0499-0.11837-0.11272-0.23186-0.18555-0.33984-0.08182-0.1213-0.167-0.21778-0.24414-0.29492-0.077141-0.077143-0.17362-0.16233-0.29492-0.24414-0.10798-0.072832-0.22149-0.13565-0.33984-0.18555-0.12136-0.051162-0.2466-0.09025-0.37891-0.11719-0.13569-0.027626-0.27094-0.039062-0.40039-0.039062h-7c-0.12946 0-0.2647 0.011438-0.40039 0.039062-0.1323 0.026936-0.25755 0.066024-0.37891 0.11719-0.09198 0.038775-0.17983 0.087604-0.26562 0.14062 0.028782-0.093541 0.044922-0.19365 0.044922-0.29688v-1h1v-1h-1c0-0.554-0.446-1-1-1zm18 0c-0.554 0-1 0.446-1 1v2c0 0.554 0.446 1 1 1h2c0.554 0 1-0.446 1-1v-2c0-0.554-0.446-1-1-1zm-18 1h2v2h-2zm5 0v1h1v-1zm2 0v1h1v-1zm2 0v1h1v-1zm2 0v1h1v-1zm2 0v1h1v-1zm2 0v1h1v-1zm3 0h2v2h-2zm-14 3h7c0.06925 0 0.13596 0.00625 0.20117 0.019531 0.06522 0.013278 0.12959 0.03336 0.18945 0.058594 0.05986 0.025235 0.11674 0.055926 0.16992 0.091797s0.10129 0.077857 0.14648 0.12305c0.04519 0.045187 0.08718 0.093304 0.12305 0.14648 0.03587 0.053184 0.06657 0.11006 0.0918 0.16992 0.02523 0.059859 0.04531 0.12424 0.05859 0.18945 0.013231 0.065215 0.019532 0.13192 0.019532 0.20117v7c0 0.06925-0.0063 0.13596-0.01953 0.20117-0.01327 0.06522-0.03336 0.12959-0.05859 0.18945-0.02524 0.05986-0.05593 0.11674-0.0918 0.16992s-0.07786 0.10129-0.12305 0.14648c-0.04519 0.04519-0.0933 0.08718-0.14648 0.12305-0.05318 0.03587-0.11006 0.06657-0.16992 0.0918s-0.12423 0.04531-0.18945 0.05859c-0.065222 0.013231-0.13192 0.019532-0.20117 0.019532h-7c-0.06925 0-0.13596-0.0063-0.20117-0.01953-0.065215-0.01327-0.12959-0.03336-0.18945-0.05859-0.059859-0.02524-0.11674-0.05593-0.16992-0.0918-0.053183-0.03587-0.1013-0.07786-0.14648-0.12305-0.045188-0.04519-0.087173-0.0933-0.12305-0.14648-0.035871-0.053182-0.066563-0.11006-0.091797-0.16992-0.025235-0.05986-0.045317-0.12423-0.058594-0.18945-0.013281-0.06522-0.019531-0.13192-0.019531-0.20117v-7c0-0.06925 0.0062503-0.13596 0.019531-0.20117 0.013277-0.065215 0.033359-0.12959 0.058594-0.18945s0.055926-0.11674 0.091797-0.16992 0.077856-0.1013 0.12305-0.14648c0.045187-0.045188 0.093305-0.087173 0.14648-0.12305s0.11006-0.066562 0.16992-0.091797 0.12424-0.045316 0.18945-0.058594c0.065215-0.013277 0.13192-0.019531 0.20117-0.019531zm15 1v1h1v-1zm-19 1v1h1v-1zm19 1v1h1v-1zm-19 1v1h1v-1zm13 1h3c0.554 0 1 0.446 1 1v7c0 0.554-0.446 1-1 1h-7c-0.554 0-1-0.446-1-1v-3h3c1.0907 0 2-0.9093 2-2zm6 0v1h1v-1zm-19 1v1h1v-1zm19 1v1h1v-1zm-19 1v1h1v-1zm19 1v1h1v-1zm-19 1v1h1v-1zm19 1v1h1v-1zm-19 1v1h1v-1zm0 2c-0.554 0-1 0.446-1 1v2c0 0.554 0.446 1 1 1h2c0.554 0 1-0.446 1-1v-2c0-0.554-0.446-1-1-1zm0 1h2v2h-2zm18 0h2v2h-2zm-14 1v1h1v-1zm2 0v1h1v-1zm2 0v1h1v-1zm2 0v1h1v-1zm2 0v1h1v-1zm2 0v1h1v-1z" style="fill-opacity:.5;fill:currentColor"/>
</svg>
