<?xml version="1.0" encoding="UTF-8"?>
<!-- Created with Inkscape (http://www.inkscape.org/) -->
<svg width="24" height="24" version="1.1" xmlns="http://www.w3.org/2000/svg" xmlns:cc="http://creativecommons.org/ns#" xmlns:dc="http://purl.org/dc/elements/1.1/" xmlns:rdf="http://www.w3.org/1999/02/22-rdf-syntax-ns#">
	<defs>
		<style id="current-color-scheme" type="text/css">.ColorScheme-Text {color:#090d11;}.ColorScheme-Background{color:#ffffff;}</style>
	</defs>
	<metadata>
		<rdf:RDF>
			<cc:Work rdf:about="">
				<dc:format>image/svg+xml</dc:format>
				<dc:type rdf:resource="http://purl.org/dc/dcmitype/StillImage"/>
			</cc:Work>
		</rdf:RDF>
	</metadata>
	<path id="b" class="ColorScheme-Background" d="m17.5 22c0.29116 0 0.28393-0.06349 0.37891-0.17383l3-3.5c0.18012-0.20927 0.15651-0.52493-0.05273-0.70508-0.20927-0.18012-0.52493-0.15651-0.70508 0.05273l-1.1211 1.3086v-0.0332l-0.64844 0.7793c0.0026 6.72e-4 0.0052 0.0013 0.0078 2e-3l-0.34374 0.40039-0.51562 0.61914-0.54688-0.6543-0.31445-0.36914c2e-3 -0.0013 0.0039-0.0026 0.0059-0.0039l-0.64457-0.77349v0.0332l-1.1211-1.3086c-0.18015-0.20924-0.49581-0.23285-0.70508-0.05273-0.20924 0.18015-0.23285 0.49581-0.05273 0.70508l3 3.5c0.094968 0.11034 0.23332 0.17383 0.3789 0.17383zm-13-16c-0.27614 0-0.5 0.22386-0.5 0.5s0.22386 0.5 0.5 0.5h8c0.27614 0 0.5-0.22386 0.5-0.5s-0.22386-0.5-0.5-0.5zm14.5 11.75v-13.5c0-0.27614-0.22386-0.5-0.5-0.5s-0.5 0.22386-0.5 0.5v13.5zm-2 0v-13.5c0-0.31836-0.22386-0.5-0.5-0.5s-0.5 0.22386-0.5 0.5v13.5zm-12.5-8.75c-0.27614 0-0.5 0.22386-0.5 0.5s0.22386 0.5 0.5 0.5h8c0.27614 0 0.5-0.22386 0.5-0.5s-0.22386-0.5-0.5-0.5zm0 3c-0.27614 0-0.5 0.22386-0.5 0.5s0.22386 0.5 0.5 0.5h8c0.27614 0 0.5-0.22386 0.5-0.5s-0.22386-0.5-0.5-0.5zm0 3c-0.27614 0-0.5 0.22386-0.5 0.5s0.22386 0.5 0.5 0.5h8c0.27614 0 0.5-0.22386 0.5-0.5s-0.22386-0.5-0.5-0.5z" style="fill-opacity:.5;fill:currentColor"/>
	<path id="d" class="ColorScheme-Text" d="m17.5 20.75 2.5-3h-2v-13.5c0-0.31836-0.22386-0.5-0.5-0.5s-0.5 0.22386-0.5 0.5v13.5h-2zm-13-13.75c-0.27614 0-0.5 0.22386-0.5 0.5s0.22386 0.5 0.5 0.5h8c0.27614 0 0.5-0.22386 0.5-0.5s-0.22386-0.5-0.5-0.5zm0 3c-0.27614 0-0.5 0.22386-0.5 0.5s0.22386 0.5 0.5 0.5h8c0.27614 0 0.5-0.22386 0.5-0.5s-0.22386-0.5-0.5-0.5zm0 3c-0.27614 0-0.5 0.22386-0.5 0.5s0.22386 0.5 0.5 0.5h8c0.27614 0 0.5-0.22386 0.5-0.5s-0.22386-0.5-0.5-0.5zm0 3c-0.27614 0-0.5 0.22386-0.5 0.5s0.22386 0.5 0.5 0.5h8c0.27614 0 0.5-0.22386 0.5-0.5s-0.22386-0.5-0.5-0.5z" style="fill-opacity:.75;fill:currentColor"/>
</svg>
