<?xml version="1.0" encoding="UTF-8"?>
<svg id="b" width="16" height="16" version="1.1" xmlns="http://www.w3.org/2000/svg" xmlns:cc="http://creativecommons.org/ns#" xmlns:dc="http://purl.org/dc/elements/1.1/" xmlns:rdf="http://www.w3.org/1999/02/22-rdf-syntax-ns#">
	<defs>
		<style id="current-color-scheme" type="text/css">.ColorScheme-Text {color:#090d11;}.ColorScheme-Background{color:#ffffff;}</style>
	</defs>
	<metadata id="f">
		<rdf:RDF>
			<cc:Work rdf:about="">
				<dc:format>image/svg+xml</dc:format>
				<dc:type rdf:resource="http://purl.org/dc/dcmitype/StillImage"/>
			</cc:Work>
		</rdf:RDF>
	</metadata>
	<path id="e" class="ColorScheme-Text" d="m14.871 0.51758a0.5 0.5 0 0 0-0.22461 0.12891l-0.98438 0.98438c-0.011889-0.016674-0.023929-0.033151-0.037109-0.048828l-0.85352 0.85352c0.008778 0.020495 0.014762 0.041974 0.023438 0.0625l-1.4219 1.4219c-0.007479-0.021428-0.013885-0.043057-0.021485-0.064453l-0.91016 0.91016c0.006651 0.022111 0.01302 0.044264 0.019532 0.066406l-1.5273 1.5273c-0.0044011-0.024707-0.0071184-0.049539-0.011719-0.074219l-1.0195 1.0195c0.002307 0.027259 0.0018714 0.054755 0.0039062 0.082031l-1.9062 1.9062v-0.085938l-1.2383 1.2383 0.056641 0.029297-4.1719 4.1719a0.5 0.5 0 0 0 0 0.70703 0.5 0.5 0 0 0 0.70703 0l4.4082-4.4082 0.19727 0.097657c0.01372 0.0068 0.027154 0.009695 0.041016 0.015625v-0.35156l1.8887-1.8887c-0.077532 0.77308-0.263 1.5387-0.56055 2.2715-0.12009 0.29448 0.021677 0.63052 0.31641 0.75 0.29448 0.12009 0.63052-0.021681 0.75-0.31641 0.50544-1.2447 0.72983-2.571 0.67773-3.8887l1.6582-1.6582c0.39669 2.1611 0.15836 4.4096-0.72461 6.4629-0.12581 0.29178 0.0089 0.63029 0.30078 0.75586 0.29232 0.12558 0.63104-0.01009 0.75586-0.30273 1.077-2.5046 1.2872-5.2755 0.63672-7.8848l1.4824-1.4824c1.1154 3.3427 0.94837 7.0008-0.51172 10.246-0.13011 0.2891-0.0017 0.62897 0.28711 0.75977 0.29014 0.13118 0.63165 0.001598 0.76172-0.28906 1.6579-3.6848 1.7796-7.8635 0.36719-11.621l1.2676-1.2676a0.5 0.5 0 0 0 0-0.70703 0.5 0.5 0 0 0-0.48242-0.12891zm-4.3672 2.1934c-0.075373 0.0015245-0.14927 0.018332-0.21875 0.048828-0.29222 0.12632-0.42618 0.46604-0.29883 0.75781 0.029589 0.068012 0.055802 0.13664 0.083984 0.20508l0.8457-0.8457c-0.054404-0.05351-0.11906-0.096396-0.19141-0.125-0.04636-0.018595-0.09495-0.03107-0.14453-0.037109-0.025137-0.0028084-0.051047-0.0044145-0.076172-0.0039063zm-2.6895 1.3945c-0.060388 0.00433-0.11971 0.018175-0.17578 0.041016-0.29396 0.12025-0.43476 0.45606-0.31445 0.75 0.15853 0.38854 0.28628 0.78631 0.38281 1.1895l0.92969-0.92969c-0.074413-0.23335-0.15487-0.46498-0.24805-0.69336-0.093687-0.23102-0.32557-0.37536-0.57422-0.35742zm-1.8145 0.83398c-0.013767 0.00603-0.027547 0.012811-0.041016 0.019531l-4.4824 2.2383c-0.63528 0.31766-0.63528 1.2859 0 1.6035l2.3438 1.1719 2.1797-2.1797v-2.8535z" style="fill-opacity:.75;fill:currentColor"/>
	<path id="c" class="ColorScheme-Background" d="m13.871 0.017578a0.5 0.5 0 0 0-0.22461 0.12891l-1.9199 1.9199c-0.023251-0.012383-0.045291-0.025989-0.070312-0.035156-0.07056-0.02604-0.14554-0.037985-0.2207-0.035156-0.07568 0.0029999-0.15002 0.020921-0.21875 0.052734-0.28875 0.13303-0.41474 0.47514-0.28125 0.76367 0.004779 0.010336 0.008923 0.020904 0.013672 0.03125l-1.3887 1.3887c-0.058997-0.15414-0.121-0.30707-0.1875-0.45898-0.060991-0.13943-0.17477-0.249-0.31641-0.30469-0.046361-0.018595-0.094947-0.03107-0.14453-0.037109-0.10055-0.011233-0.20228 0.0042625-0.29492 0.044922-0.29146 0.12707-0.42446 0.46657-0.29688 0.75781 0.12901 0.29474 0.24252 0.59501 0.33984 0.89844l-1.6602 1.6602v-0.29297c0-0.27614-0.22386-0.5-0.5-0.5s-0.5 0.22386-0.5 0.5v1.293l-2.1914 2.1914-2.3594-1.168h-0.0019532c-0.64728-0.32016-0.64536-1.3048 0.0019532-1.625l4.7715-2.3594c0.24646-0.12238 0.34771-0.4209 0.22656-0.66797-0.058586-0.11867-0.16183-0.20928-0.28711-0.25195-0.062162-0.021073-0.12786-0.029701-0.19336-0.025391-0.065219 0.0045098-0.12892 0.021759-0.1875 0.050781l-4.7734 2.3594h-0.0019532c-1.3705 0.678-1.3696 2.7352 0 3.4141l2.0586 1.0195-2.916 2.916a0.5 0.5 0 0 0 0 0.70703 0.5 0.5 0 0 0 0.70703 0l3.1543-3.1543 0.056641 0.029297 0.74609-0.74609-0.056641-0.029297 1.2461-1.2461v0.085938l1-1v-0.085938l1.9434-1.9434c0.0046414 0.024673 0.0072759 0.049518 0.011719 0.074219l0.96875-0.96875c-0.0058664-0.022768-0.011557-0.045622-0.017578-0.068359l1.4492-1.4492c0.007615 0.021364 0.01399 0.043058 0.021484 0.064453l0.89648-0.89648c-0.008223-0.02073-0.015109-0.041801-0.023438-0.0625l1.4258-1.4258c0.001467 0.024713 0.007071 0.04952 0.011719 0.074219l0.66992-0.66992c-0.025294-0.0043602-0.050461-0.008188-0.076172-0.0097656l0.072266-0.072266a0.5 0.5 0 0 0 0-0.70703 0.5 0.5 0 0 0-0.48242-0.12891zm1.1035 1.7148-0.88867 0.88867c1.4162 3.782 1.2903 7.9825-0.38086 11.688-0.13118 0.29014-0.0016 0.63165 0.28906 0.76172 0.28963 0.12986 0.6297 4.78e-4 0.75976-0.28906 1.8676-4.1406 1.9409-8.8611 0.2207-13.049zm-2.3359 2.3359-0.93555 0.93555c0.68376 2.7323 0.42212 5.6412-0.79102 8.2344-0.134 0.28748-0.0099 0.62918 0.27734 0.76367 0.28799 0.13532 0.63112 0.01102 0.76562-0.27734 1.4233-3.0424 1.649-6.4839 0.68359-9.6562zm-2.4824 2.4824-1.0586 1.0586c0.059679 1.4148-0.19997 2.8395-0.78125 4.1641-0.12783 0.2907 0.00422 0.62999 0.29492 0.75781 0.2907 0.12783 0.62999-0.0042 0.75781-0.29492 0.79104-1.8025 1.0526-3.7719 0.78711-5.6855zm-4.3984 4.3984-0.74609 0.74609 0.76562 0.37891c0.24703 0.12274 0.5468 0.02224 0.66992-0.22461 0.12274-0.24703 0.022238-0.5468-0.22461-0.66992l-0.46484-0.23047z" style="fill-opacity:.5;fill:currentColor"/>
</svg>
