<?xml version="1.0" encoding="UTF-8"?>
<svg id="b" width="16" height="16" version="1.1" xmlns="http://www.w3.org/2000/svg" xmlns:cc="http://creativecommons.org/ns#" xmlns:dc="http://purl.org/dc/elements/1.1/" xmlns:rdf="http://www.w3.org/1999/02/22-rdf-syntax-ns#">
	<defs>
		<style id="current-color-scheme" type="text/css">.ColorScheme-Text {color:#090d11;}.ColorScheme-Background{color:#ffffff;}</style>
	</defs>
	<metadata id="f">
		<rdf:RDF>
			<cc:Work rdf:about="">
				<dc:format>image/svg+xml</dc:format>
				<dc:type rdf:resource="http://purl.org/dc/dcmitype/StillImage"/>
			</cc:Work>
		</rdf:RDF>
	</metadata>
	<path class="ColorScheme-Text" d="m10.58 2.7148c-0.10055-0.011233-0.20228 0.00426-0.29492 0.044922-0.29222 0.12632-0.42618 0.46604-0.29883 0.75781 1.2374 2.8442 1.2449 6.0724 0.019531 8.9219-0.12581 0.29178 0.0089 0.63029 0.30078 0.75586 0.29232 0.12558 0.63104-0.01009 0.75586-0.30273 1.3505-3.1405 1.3423-6.6992-0.02148-9.834-0.06057-0.14017-0.17441-0.25049-0.31641-0.30664-0.04636-0.018595-0.09495-0.03107-0.14453-0.037109zm-2.7656 1.3906c-0.060388 0.00433-0.11971 0.018175-0.17578 0.041016-0.29396 0.12025-0.43476 0.45606-0.31445 0.75 0.80996 1.9851 0.81053 4.2069 0.00391 6.1934-0.12009 0.29448 0.021677 0.63052 0.31641 0.75 0.29448 0.12009 0.63052-0.02168 0.75-0.31641 0.91937-2.2641 0.91731-4.798-0.0058631-7.0605-0.093687-0.23102-0.32557-0.37536-0.57422-0.35742zm-1.8145 0.83398c-0.013767 0.00603-0.027547 0.012811-0.041016 0.019531l-4.4824 2.2383c-0.63528 0.31766-0.63528 1.2859 0 1.6035l4.4824 2.2422c0.01372 0.0068 0.027154 0.0097 0.041016 0.01563z" style="fill-opacity:.75;fill:currentColor"/>
	<path id="e" class="ColorScheme-Text" d="m13.17 1.375c-0.07555 0.00239-0.14988 0.019641-0.21875 0.050781-0.28879 0.1308-0.41722 0.47067-0.28711 0.75977 1.6617 3.6827 1.6636 7.9015 0.0059 11.586-0.13011 0.2891-0.0017 0.62897 0.28711 0.75977 0.29014 0.13118 0.63165 0.0016 0.76172-0.28906 1.7926-3.9844 1.7892-8.5469-0.0078-12.529-0.062794-0.13871-0.17799-0.24688-0.32036-0.30078-0.070427-0.026706-0.14542-0.039314-0.2207-0.037109z" style="fill-opacity:.75;fill:currentColor;opacity:.35"/>
</svg>
