<?xml version="1.0" encoding="UTF-8"?>
<!-- Created with Inkscape (http://www.inkscape.org/) -->
<svg width="16" height="16" version="1.0" xmlns="http://www.w3.org/2000/svg" xmlns:cc="http://creativecommons.org/ns#" xmlns:dc="http://purl.org/dc/elements/1.1/" xmlns:rdf="http://www.w3.org/1999/02/22-rdf-syntax-ns#">
	<defs>
		<style id="current-color-scheme" type="text/css">.ColorScheme-Text {color:#090d11;}
			.ColorScheme-NegativeText{color:#fa0473;}</style>
	</defs>
	<metadata>
		<rdf:RDF>
			<cc:Work rdf:about="">
				<dc:format>image/svg+xml</dc:format>
				<dc:type rdf:resource="http://purl.org/dc/dcmitype/StillImage"/>
			</cc:Work>
		</rdf:RDF>
	</metadata>
	<path id="b" class="ColorScheme-NegativeText error" d="m8 1c-3.8601 0-7 3.1399-7 7 0 3.8601 3.1399 7 7 7 3.8601 0 7-3.1399 7-7 0-3.8601-3.1399-7-7-7zm0 1c3.3196 0 6 2.6804 6 6 0 3.3196-2.6804 6-6 6-3.3196 0-6-2.6804-6-6 0-3.3196 2.6804-6 6-6zm-2.75 2.75c-0.1326 2e-5 -0.25976 0.052712-0.35352 0.14648-0.19521 0.19525-0.19521 0.51178 0 0.70703l2.3965 2.3965-2.3965 2.3965c-0.19521 0.19525-0.19521 0.51178 0 0.70703 0.19525 0.19521 0.51178 0.19521 0.70703 0l2.3965-2.3965 2.3965 2.3965c0.19525 0.19521 0.51178 0.19521 0.70703 0 0.19521-0.19525 0.19521-0.51178 0-0.70703l-2.3965-2.3965 2.3965-2.3965c0.19521-0.19525 0.19521-0.51178 0-0.70703-0.19525-0.19521-0.51178-0.19521-0.70703 0l-2.3965 2.3965-2.3965-2.3965c-0.093753-0.093773-0.22092-0.14646-0.35352-0.14648z" style="fill:currentColor"/>
</svg>
