<?xml version="1.0" encoding="UTF-8"?>
<!-- Created with Inkscape (http://www.inkscape.org/) -->
<svg width="16" height="16" version="1.1" xmlns="http://www.w3.org/2000/svg" xmlns:cc="http://creativecommons.org/ns#" xmlns:dc="http://purl.org/dc/elements/1.1/" xmlns:rdf="http://www.w3.org/1999/02/22-rdf-syntax-ns#">
	<metadata>
		<rdf:RDF>
			<cc:Work rdf:about="">
				<dc:format>image/svg+xml</dc:format>
				<dc:type rdf:resource="http://purl.org/dc/dcmitype/StillImage"/>
			</cc:Work>
		</rdf:RDF>
	</metadata>
	<defs>
		<style id="current-color-scheme" type="text/css">.ColorScheme-Text {color:#090d11;}.ColorScheme-Background{color:#ffffff;}</style>
	</defs>
	<path class="ColorScheme-Text" d="m8 2.0176c-2.5566 1e-7 -5.1128 0.97412-7.0605 2.9219-0.19521 0.19525-0.19521 0.51178 0 0.70703 0.19525 0.19521 0.51178 0.19521 0.70703 0 3.5134-3.5134 9.1937-3.5134 12.707 0 0.19525 0.19521 0.51178 0.19521 0.70703 0 0.19521-0.19525 0.19521-0.51178 0-0.70703-1.9478-1.9478-4.5039-2.9219-7.0605-2.9219z" style="fill-opacity:.75;fill:currentColor;opacity:.35"/>
	<path class="ColorScheme-Background" d="m8.0175 1.0049c-2.9478 0-5.7756 1.1748-7.8457 3.2734-0.19365 0.19688-0.19103 0.51346 0.00586 0.7071 0.19525 0.19521 0.51178 0.19521 0.70703 0 1.8821-1.9081 4.4507-2.9807 7.1309-2.9766 2.6801 0 5.2447 1.0843 7.1211 2.998 0.19248 0.198 0.50903 0.20248 0.70703 0.01 0.19736-0.19309 0.20085-0.5096 0.0078-0.707-2.0638-2.1049-4.8862-3.2925-7.834-3.2969z" style="fill-opacity:.5;fill:currentColor;opacity:.35"/>
	<path class="ColorScheme-Text" d="m8 4.9922c-1.7954 1e-7 -3.59 0.68379-4.957 2.0508-0.19521 0.19525-0.19521 0.51178 0 0.70703 0.19525 0.19521 0.51178 0.19521 0.70703 0 2.3518-2.3518 6.1482-2.3518 8.5 0 0.19525 0.19521 0.51178 0.19521 0.70703 0 0.19521-0.19525 0.19521-0.51178 0-0.70703-1.367-1.367-3.1616-2.0508-4.957-2.0508zm0 2.9922c-1.0296 0-2.0591 0.39118-2.8418 1.1738-0.19521 0.19525-0.19521 0.51178 0 0.70703 0.19525 0.19521 0.51178 0.19521 0.70703 0 1.1832-1.1832 3.0864-1.1832 4.2695 0 0.19525 0.19521 0.51178 0.19521 0.70703 0 0.19521-0.19525 0.19521-0.51178 0-0.70703-0.78265-0.78265-1.8122-1.1738-2.8418-1.1738zm0 3.0156c-0.82249 0-1.5 0.67751-1.5 1.5s0.67751 1.5 1.5 1.5 1.5-0.67751 1.5-1.5-0.67751-1.5-1.5-1.5z" style="fill-opacity:.75;fill:currentColor"/>
	<path class="ColorScheme-Background" d="m8 10.001c-1.3748 0-2.5 1.1252-2.5 2.5s1.1252 2.5 2.5 2.5 2.5-1.1252 2.5-2.5-1.1252-2.5-2.5-2.5zm0 1c0.83432 0 1.5 0.6656 1.5 1.5 0 0.8343-0.66568 1.5-1.5 1.5s-1.5-0.6657-1.5-1.5c0-0.8344 0.66568-1.5 1.5-1.5zm0.01953-4.0274c-1.3474-0.01-2.6413 0.5314-3.5898 1.4883-0.19418 0.19634-0.19243 0.51292 0.00391 0.7071 0.19525 0.19521 0.51178 0.19521 0.70703 0 0.76012-0.7668 1.7953-1.1955 2.875-1.1914 1.0797 0 2.111 0.4403 2.8652 1.2129 0.19248 0.198 0.50903 0.20248 0.70703 0.01 0.19792-0.19253 0.20231-0.50906 0.0098-0.707-0.94126-0.9641-2.2308-1.5106-3.5781-1.5157zm-0.03325-2.9941c-2.1401 0-4.1898 0.8638-5.6934 2.3867-0.19412 0.19633-0.19236 0.51283 0.00391 0.707 0.198 0.19248 0.51455 0.188 0.70703-0.01 1.3164-1.3333 3.1108-2.0849 4.9844-2.0879 1.8736 0 3.6715 0.7432 4.9922 2.0723 0.19525 0.19521 0.51178 0.19521 0.70703 0 0.19574-0.1947 0.19664-0.5112 2e-3 -0.707-1.5085-1.5181-3.563-2.3706-5.7031-2.3672z" style="fill-opacity:.5;fill:currentColor"/>
</svg>
