<?xml version="1.0" encoding="UTF-8"?>
<svg id="g" width="16" height="16" version="1.1" xmlns="http://www.w3.org/2000/svg" xmlns:cc="http://creativecommons.org/ns#" xmlns:dc="http://purl.org/dc/elements/1.1/" xmlns:rdf="http://www.w3.org/1999/02/22-rdf-syntax-ns#">
	<metadata id="a">
		<rdf:RDF>
			<cc:Work rdf:about="">
				<dc:format>image/svg+xml</dc:format>
				<dc:type rdf:resource="http://purl.org/dc/dcmitype/StillImage"/>
			</cc:Work>
		</rdf:RDF>
	</metadata>
	<defs>
		<style id="current-color-scheme" type="text/css">.ColorScheme-Text {color:#090d11;}.ColorScheme-Background{color:#ffffff;}</style>
	</defs>
	<path class="ColorScheme-Background" d="m4 0c-1.0994 0-2 0.90065-2 2v3.793l-1.8535 1.8535c-0.19521 0.19525-0.19521 0.51178 0 0.70703l1.8535 1.8535v3.793c0 1.0994 0.90065 2 2 2h0.5c0.27614 0 0.5-0.22386 0.5-0.5s-0.22386-0.5-0.5-0.5h-0.5c-0.56265 0-1-0.43735-1-1v-4c-2.32e-5 -0.1326-0.052717-0.25976-0.14648-0.35352l-1.6465-1.6465 1.6465-1.6465c0.093768-0.093758 0.14646-0.22092 0.14648-0.35352v-4c0-0.56265 0.43735-1 1-1h0.5c0.27614 0 0.5-0.22386 0.5-0.5s-0.22386-0.5-0.5-0.5h-0.5zm7.5 0c-0.27614 0-0.5 0.22386-0.5 0.5s0.22386 0.5 0.5 0.5h0.5c0.56265 0 1 0.43735 1 1v4c2.3e-5 0.1326 0.052714 0.25976 0.14648 0.35352l1.6465 1.6465-1.6465 1.6465c-0.093768 0.093758-0.14646 0.22092-0.14648 0.35352v4c0 0.56265-0.43735 1-1 1h-0.5c-0.27614 0-0.5 0.22386-0.5 0.5s0.22386 0.5 0.5 0.5h0.5c1.0994 0 2-0.90065 2-2v-3.793l1.8535-1.8535c0.04678-0.04631 0.083945-0.1014 0.10938-0.16211 0.02481-0.06075 0.037419-0.12579 0.037109-0.19141-1.8e-5 -0.1326-0.052714-0.25976-0.14648-0.35352l-1.8535-1.8535v-3.793c0-1.0994-0.90065-2-2-2h-0.5zm-3.5 4c-1.0986 0-2 0.90135-2 2s0.90135 2 2 2 2-0.90135 2-2-0.90135-2-2-2zm0 1c0.55821 0 1 0.44179 1 1s-0.44179 1-1 1-1-0.44179-1-1 0.44179-1 1-1zm1.0293 4a0.5 0.5 0 0 0-0.50391 0.3418l-1 3a0.5 0.5 0 0 0 0.31641 0.63281 0.5 0.5 0 0 0 0.63281-0.31641l1-3a0.5 0.5 0 0 0-0.31641-0.63281 0.5 0.5 0 0 0-0.12891-0.025391z" style="color:#ffffff;fill-opacity:.5;fill:currentColor"/>
	<path class="ColorScheme-Text" d="m5 1c-1.0994 0-2 0.90065-2 2v4c0.00178 0.051995 0.011665 0.1034 0.029297 0.15234-0.15349-0.095748-0.33432-0.15234-0.5293-0.15234h-0.5c-0.554 0-1 0.446-1 1s0.446 1 1 1h0.5c0.19497 0 0.37581-0.056604 0.5293-0.15234-0.017632 0.048947-0.027516 0.10035-0.029297 0.15234v4c0 1.0994 0.90065 2 2 2h1c0.27614 0 0.5-0.22386 0.5-0.5s-0.22386-0.5-0.5-0.5h-1c-0.56265 0-1-0.43735-1-1v-4c0-0.27614-0.22386-0.5-0.5-0.5-0.051995 0.0017806-0.1034 0.011665-0.15234 0.029297 0.095748-0.15349 0.15234-0.33432 0.15234-0.5293s-0.056604-0.37581-0.15234-0.5293c0.048947 0.017632 0.10035 0.027516 0.15234 0.029297 0.27614 0 0.5-0.22386 0.5-0.5v-4c0-0.56265 0.43735-1 1-1h1c0.27614 0 0.5-0.22386 0.5-0.5s-0.22386-0.5-0.5-0.5h-1zm5 0c-0.27614 0-0.5 0.22386-0.5 0.5s0.22386 0.5 0.5 0.5h1c0.56265 0 1 0.43735 1 1v4c0 0.27614 0.22386 0.5 0.5 0.5 0.05199-0.00178 0.1034-0.011665 0.15234-0.029297-0.09575 0.15349-0.15234 0.33432-0.15234 0.5293 0 0.19247 0.054947 0.37121 0.14844 0.52344-0.04802-0.015246-0.098058-0.023148-0.14844-0.023438-0.27614 0-0.5 0.22386-0.5 0.5v4c0 0.56265-0.43735 1-1 1h-1c-0.27614 0-0.5 0.22386-0.5 0.5s0.22386 0.5 0.5 0.5h1c1.0994 0 2-0.90065 2-2v-4c-2.9e-4 -0.050378-0.008197-0.10042-0.023438-0.14844 0.15222 0.093488 0.33097 0.14844 0.52344 0.14844h0.5c0.554 0 1-0.446 1-1s-0.446-1-1-1h-0.5c-0.19497 0-0.37581 0.056604-0.5293 0.15234 0.01763-0.048947 0.027517-0.10035 0.029297-0.15234v-4c0-1.0994-0.90065-2-2-2h-1zm-2 4a1 1 0 0 0-1 1 1 1 0 0 0 1 1 1 1 0 0 0 1-1 1 1 0 0 0-1-1zm0.5293 3a0.5 0.5 0 0 0-0.50391 0.3418l-1 3a0.5 0.5 0 0 0 0.31641 0.63281 0.5 0.5 0 0 0 0.63281-0.31641l1-3a0.5 0.5 0 0 0-0.31641-0.63281 0.5 0.5 0 0 0-0.12891-0.025391z" style="color:#090d11;fill-opacity:.75;fill:currentColor"/>
</svg>
