<?xml version="1.0" encoding="UTF-8"?>
<svg id="g" width="16" height="16" version="1.1" xmlns="http://www.w3.org/2000/svg" xmlns:cc="http://creativecommons.org/ns#" xmlns:dc="http://purl.org/dc/elements/1.1/" xmlns:rdf="http://www.w3.org/1999/02/22-rdf-syntax-ns#">
	<metadata id="a">
		<rdf:RDF>
			<cc:Work rdf:about="">
				<dc:format>image/svg+xml</dc:format>
				<dc:type rdf:resource="http://purl.org/dc/dcmitype/StillImage"/>
			</cc:Work>
		</rdf:RDF>
	</metadata>
	<defs>
		<style id="current-color-scheme" type="text/css">.ColorScheme-Text {color:#090d11;}.ColorScheme-Background{color:#ffffff;}</style>
	</defs>
	<path id="f" class="ColorScheme-Text" d="m1.5 1c-0.27613 2.76e-5 -0.49997 0.22387-0.5 0.5v13c2.76e-5 0.27613 0.22387 0.49997 0.5 0.5h12c0.27613-2.8e-5 0.49997-0.22387 0.5-0.5v-11.5h-11c-0.27614 0-0.5-0.22386-0.5-0.5s0.22386-0.5 0.5-0.5h11v-0.5c-2.8e-5 -0.27613-0.22387-0.49997-0.5-0.5zm5.9668 4.002c0.25746-0.0029163 0.51339 0.033278 0.75781 0.10742 0.48884 0.14829 0.93239 0.44504 1.2578 0.86914 0.65085 0.84821 0.68969 2.0212 0.095703 2.9102-0.59398 0.88896-1.6919 1.3021-2.7246 1.0254-0.2662-0.071502-0.42432-0.34495-0.35352-0.61133 0.071502-0.2662 0.34495-0.42432 0.61133-0.35352 0.62253 0.16681 1.2787-0.079364 1.6367-0.61523 0.35806-0.53587 0.33374-1.2367-0.058594-1.748s-1.0616-0.71302-1.6719-0.50586c-0.61028 0.20716-1.0176 0.77544-1.0176 1.4199 0 0.27614-0.22386 0.5-0.5 0.5s-0.5-0.22386-0.5-0.5c0-1.0691 0.68486-2.0235 1.6973-2.3672 0.2531-0.085916 0.51208-0.12794 0.76953-0.13086zm0.033203 5.998c0.55228 0 1 0.44772 1 1s-0.44772 1-1 1-1-0.44772-1-1 0.44772-1 1-1z" style="fill-opacity:.75;fill:currentColor"/>
	<path id="h" class="ColorScheme-Background" d="m1.5 0c-0.8165 8.1638e-5 -1.4999 0.6835-1.5 1.5v13c8.1638e-5 0.8165 0.6835 1.4999 1.5 1.5h12c0.8165-8.2e-5 1.4999-0.6835 1.5-1.5v-11.5c-0.10022-0.22199-0.27801-0.39978-0.5-0.5 0.22199-0.10022 0.39978-0.27801 0.5-0.5v-0.5c-8.2e-5 -0.8165-0.6835-1.4999-1.5-1.5zm0 1h12c0.27613 2.76e-5 0.49997 0.22387 0.5 0.5v0.5h-11c-0.27614 0-0.5 0.22386-0.5 0.5s0.22386 0.5 0.5 0.5h11v11.5c-2.8e-5 0.27613-0.22387 0.49997-0.5 0.5h-12c-0.27613-2.8e-5 -0.49997-0.22387-0.5-0.5v-13c2.76e-5 -0.27613 0.22387-0.49997 0.5-0.5zm5.9668 4.002c-0.25746 0.0029163-0.51643 0.044943-0.76953 0.13086-1.0124 0.34366-1.6973 1.298-1.6973 2.3672 0 0.27614 0.22386 0.5 0.5 0.5s0.5-0.22386 0.5-0.5c0-0.64449 0.40729-1.2128 1.0176-1.4199 0.61028-0.20716 1.2795-0.0054458 1.6719 0.50586s0.41665 1.2122 0.058594 1.748c-0.35806 0.53587-1.0142 0.78204-1.6367 0.61523-0.26638-0.070807-0.53983 0.087318-0.61133 0.35352-0.070807 0.26638 0.087318 0.53983 0.35352 0.61133 1.0327 0.27671 2.1306-0.13643 2.7246-1.0254 0.59398-0.88896 0.55515-2.0619-0.095703-2.9102-0.32543-0.4241-0.76897-0.72085-1.2578-0.86914-0.24442-0.074144-0.50036-0.11034-0.75781-0.10742zm0.033203 5.998c-0.55228 0-1 0.44772-1 1s0.44772 1 1 1 1-0.44772 1-1-0.44772-1-1-1z" style="fill-opacity:.5;fill:currentColor"/>
</svg>
